<svg xmlns="http://www.w3.org/2000/svg" width="100%" height="100%" viewBox="0 0 1200 1200"><path fill="currentColor" d="M487.2 1087.3C265.4 1036.1 100 837.4 100 600 100 323.9 323.9 100 600 100S1100 323.9 1100 600C1100 837.4 934.6 1036.1 712.8 1087.2L600 1200 487.3 1087.3zM350.6 912.9A397.7 397.7 0 0 0 509.7 989.8L537.7 996.3 600 1058.6 662.4 996.3 690.4 989.8A397.8 397.8 0 0 0 858.4 905.5 348.9 348.9 0 0 0 608 800C506.2 800 414.5 843.5 350.6 912.9zM280.8 841A448.8 448.8 0 0 1 608 700 448.6 448.6 0 0 1 926.1 831.7 400 400 0 1 0 280.8 841zM600 650A200 200 0 1 1 600 250 200 200 0 0 1 600 650zM600 550A100 100 0 1 0 600 350 100 100 0 0 0 600 550z" /></svg>