<svg xmlns="http://www.w3.org/2000/svg" width="100%" height="100%" viewBox="0 0 1200 1200"><path fill="currentColor" d="M325 575A225-225 0 1 0 325 125 225-225 0 0 0 325 575zM350 1075A225-225 0 1 0 350 625 225-225 0 0 0 350 1075zM850 575A225-225 0 1 0 850 125 225-225 0 0 0 850 575zM850 1075A225-225 0 1 0 850 625 225-225 0 0 0 850 1075zM325 475A125-125 0 1 1 325 225 125-125 0 0 1 325 475zM350 975A125-125 0 1 1 350 725 125-125 0 0 1 350 975zM850 475A125-125 0 1 1 850 225 125-125 0 0 1 850 475zM850 975A125-125 0 1 1 850 725 125-125 0 0 1 850 975z" /></svg>