<svg xmlns="http://www.w3.org/2000/svg" width="100%" height="100%" viewBox="0 0 1200 1200"><path fill="currentColor" d="M1099.8 911.5C1099.8 947.9 1079.5 1017.8 1034.1 1056.3 1025 1063.3 1015.9 1059.4 1019.9 1049.2 1033.1 1016.8 1063.4 941.8 1049.2 924.5 1039.2 911.4 997.7 912.4 962.3 915.5 946.1 917.5 932 918.5 920.9 920.7 910.8 921.5 908.6 912.5 918.9 905.5 932 896.3 946.1 889.3 962.4 884.1 1019.9 866.9 1086.3 877.3 1095.9 888.3 1097.7 890.4 1099.8 896.3 1099.8 911.4zM1003.8 976.2A371.3 371.3 0 0 1 962.3 1003.7C856.2 1067.5 718.8 1100.9 599.4 1100.9 407.2 1100.9 235.4 1030 105 911.5 93.8 902.4 103.1 889.2 116.1 896.3 256.6 978.3 430.5 1027.9 610.6 1027.9 723.8 1027.9 846 1006.7 962.3 961.1 970.4 958.1 979.5 953.9 987.5 951 1005.8 942.8 1022 963.2 1003.8 976.2zM695.3 424.7C695.3 372.7 697.3 342 680 315.7 664.8 294.1 638.4 281.1 601.6 283.1 561.8 285.3 518.9 311.5 507.9 359.4 505.9 370.4 499.4 381.2 486.1 383.6L364.4 368.1C355.6 366.1 342.4 359.4 346.8 342 372.9 204.4 490.5 156.5 601.6 150H627.8C688.8 150 767.1 167.5 817.3 213.2 878.1 270 871.7 346.3 871.7 429.2V625.5C871.7 684.5 895.6 710.5 919.6 741.3 926.1 752.2 928.3 765.1 917.4 774 893.3 795.8 847.6 834.9 821.5 856.7 812.8 863.4 797.1 864 791 859 752.5 826.7 743.1 808.8 719.2 776.1 677.7 819.6 642.9 843.7 601.5 856.7A351.8 351.8 0 0 1 512.3 867.5C407.8 867.5 325 802.4 325 673.5 325 571.1 379.5 501.4 460 468.5 540.5 435.5 657.5 425 695.2 424.8zM671.4 684.3C697.3 640.7 695.2 605 695.2 525.1 662.6 525.1 629.9 527.3 601.6 534 549.4 549.1 507.9 582 507.9 651.7 507.9 706.2 536.3 743.3 584.2 743.3 590.8 743.3 596.6 742.5 601.6 741.1 635.1 731.8 656 715 671.4 684.3z" /></svg>