<svg xmlns="http://www.w3.org/2000/svg" width="100%" height="100%" viewBox="0 0 1200 1200"><path fill="currentColor" d="M600 100C876.1 100 1100 323.9 1100 600S876.1 1100 600 1100 100 876.1 100 600 323.9 100 600 100zM441.2 767.1C421.4 743.3 396.9 734.8 367.2 741.7L359.7 743.8 330.2 794.5A41.1 41.1 0 0 0 398.5 840.3L401.6 835.7 441.1 767.1zM660.5 433C636.1 453.2 611.5 512.9 646 572.3L798 835.7A41.2 41.2 0 0 0 871.8 799.5L869.4 794.5 829.3 725H888.8A41 41 0 0 0 929.9 683.8 41 41 0 0 0 893.9 643L888.7 642.7H781.7L672 452.9 660.5 433zM674.4 280.8A41.3 41.3 0 0 0 621.3 291.3L618.2 295.9 599.8 327.5 581.9 295.9A41.2 41.2 0 0 0 508.1 332L510.5 337 552.4 409.8 418.1 642.5H313.3A41 41 0 0 0 272.2 683.6C272.2 704.6 287.8 721.9 308.2 724.4L313.3 724.7H687.3C704.3 692.7 684.3 647.3 646.8 642.8L640.8 642.5H513.1L689.5 337A41.1 41.1 0 0 0 674.4 280.8z" /></svg>