<svg xmlns="http://www.w3.org/2000/svg" width="100%" height="100%" viewBox="0 0 1200 1200"><path fill="currentColor" d="M358.6 137.8L520.7 300H679.3L841.4 137.9A50-50 0 0 0 912.1 208.6L820.7 300 925 300A175-175 0 0 0 1100 475V875A175-175 0 0 0 925 1050H275A175-175 0 0 0 100 875V475A175-175 0 0 0 275 300H379.3L287.9 208.5A50-50 0 0 0 358.6 137.8zM925 400H275A75-75 0 0 1 200.3 467.8L200 475V875A75-75 0 0 1 267.8 949.6L275 950H925A75-75 0 0 1 999.6 882.2L1000 875V475A75-75 0 0 1 925 400zM400 550A50-50 0 0 0 450 600V700A50-50 0 0 0 350 700V600A50-50 0 0 0 400 550zM800 550A50-50 0 0 0 850 600V700A50-50 0 0 0 750 700V600A50-50 0 0 0 800 550z" /></svg>