<svg xmlns="http://www.w3.org/2000/svg" width="100%" height="100%" viewBox="0 0 1200 1200"><path fill="currentColor" d="M475 550L482.2 550.4A75-75 0 0 0 549.7 617.8L550 625 549.6 632.2A75-75 0 0 0 482.2 699.7L475 700H300V800H475C560 800 630.9 739.4 646.7 659.1L648.2 650.1 950 650C985.5 650 1019.4 642.6 1050 629.2V850A150-150 0 0 0 950 991.5V1050A50-50 0 0 0 900 1100H300A50-50 0 0 0 250 1050V991.5A150-150 0 0 0 150 850V650A100-100 0 0 0 250 550H475zM1100 375V400L1099.8 408.8A150-150 0 0 0 958.8 549.8L950 550H633.1A175-175 0 0 1 485.4 450.3L475 450H250C213.6 450 179.4 459.8 149.9 476.8L150 300A200-200 0 0 0 350 100H825A275-275 0 0 0 1100 375z" /></svg>