<svg xmlns="http://www.w3.org/2000/svg" width="100%" height="100%" viewBox="0 0 1200 1200"><path fill="currentColor" d="M253.5 800A353-353 0 0 0 250 750V700H150V600H250V550C250 533 251.2 516.4 253.5 500H150V400H283.7A351.5-351.5 0 0 0 425.7 246.4L373.2 193.9 444 123.3 528.1 207.5A351.5-351.5 0 0 0 672 207.5L756.1 123.3 826.8 194 774.3 246.5A351.5-351.5 0 0 0 916.3 400H1050V500H946.5C948.8 516.4 950 533 950 550V600H1050V700H950V750C950 767 948.8 783.6 946.5 800H1050V900H916.3A350-350 0 0 0 283.7 900H150V800H253.5zM450 500V600H750V500H450zM450 700V800H750V700H450z" /></svg>