<svg xmlns="http://www.w3.org/2000/svg" width="100%" height="100%" viewBox="0 0 1200 1200"><path fill="currentColor" d="M350 250V100A50 50 0 0 1 400 50H800A50 50 0 0 1 850 100V250H1050A50 50 0 0 1 1100 300V1000A50 50 0 0 1 1050 1050H150A50 50 0 0 1 100 1000V300A50 50 0 0 1 150 250H350zM800 750H650V800H550V750H400V950H800V750zM400 350V650H550V600H650V650H800V350H400zM300 650V350H200V650H300zM900 650H1000V350H900V650zM300 750H200V950H300V750zM900 750V950H1000V750H900zM450 150V250H750V150H450z" /></svg>