<svg xmlns="http://www.w3.org/2000/svg" width="100%" height="100%" viewBox="0 0 1200 1200"><path fill="currentColor" d="M600 100C876 100 1100 324 1100 600S876 1100 600 1100 100 876 100 600 324 100 600 100zM600 300C461.9 300 350 434.3 350 600S461.9 900 600 900 850 765.7 850 600 738 300 600 300zM716.3 473.6C737.4 508.1 750 552.1 750 600 750 710.5 682.9 800 600 800 581.1 800 563 795.4 546.4 786.9L538.1 782.3 716.3 473.6zM600 400C618.9 400 637 404.6 653.6 413.1L661.9 417.8 483.8 726.4C462.6 691.9 450 647.9 450 600 450 489.5 517.1 400 600 400z" /></svg>