<svg xmlns="http://www.w3.org/2000/svg" width="100%" height="100%" viewBox="0 0 1200 1200"><path fill="currentColor" d="M212.8 283.6L391.8 462.4A125-125 0 0 1 491.8 649.8L500 650H700L704.5 650.4A25-25 0 0 0 704.5 699.6L700 700H425V800H550V900H650V800H700C706.1 800 712 799.5 717.8 798.8L726.5 797.2 916.4 987.2A498-498 0 0 0 600 1100C323.9 1100 100 876.1 100 600 100 480 142.3 369.8 212.8 283.6zM600 100C876.1 100 1100 323.9 1100 600 1100 720 1057.7 830.2 987.2 916.4L808.3 737.5A125-125 0 0 1 708.3 550.3L700 550H500L495.5 549.6A25-25 0 0 0 495.5 500.4L500 500H775V400H650V300H550V400H500C493.9 400 488 400.5 482.2 401.3L473.6 402.8 283.6 212.8A498-498 0 0 0 600 100z" /></svg>