<svg xmlns="http://www.w3.org/2000/svg" width="100%" height="100%" viewBox="0 0 1200 1200"><path fill="currentColor" d="M1050 400A100-100 0 0 0 1150 500V700A100-100 0 0 0 1050 800H996.9A400-400 0 0 0 600 1150V1050A300-300 0 0 1 900 750V450A300-300 0 1 1 300 450V800H150A100-100 0 0 0 50 700V500A100-100 0 0 0 150 400H203.1A400-400 0 0 0 996.9 400H1050zM388 789.3L441 704.5A298.6-298.6 0 0 1 600 750 298.6-298.6 0 0 1 759 704.5L812 789.3A398.1-398.1 0 0 0 600 850 398.1-398.1 0 0 0 388 789.3z" /></svg>