<svg xmlns="http://www.w3.org/2000/svg" width="100%" height="100%" viewBox="0 0 1200 1200"><path fill="currentColor" d="M600 100C876 100 1100 324 1100 600S876 1100 600 1100 100 876 100 600 324 100 600 100zM600 200C379.3 200 200 379.3 200 600S379.3 1000 600 1000 1000 820.8 1000 600 820.8 200 600 200zM600 300C738 300 850 434.3 850 600S738 900 600 900 350 765.7 350 600 461.9 300 600 300zM716.3 473.6L538.1 782.3C557 793.6 577.9 800 600 800 682.9 800 750 710.5 750 600 750 552.1 737.4 508 716.3 473.6zM600 400C517.1 400 450 489.5 450 600 450 647.9 462.6 692 483.8 726.4L661.9 417.8A118.8 118.8 0 0 0 600 400z" /></svg>