<svg xmlns="http://www.w3.org/2000/svg" width="100%" height="100%" viewBox="0 0 1200 1200"><path fill="currentColor" d="M816.5 675A349.4 349.4 0 0 0 950 400H1050A449.4 449.4 0 0 1 866.9 762.3L993.3 981.2A100 100 0 0 1 956.7 1117.8L780.3 812.4A448.5 448.5 0 0 1 600 850 448.5 448.5 0 0 1 419.7 812.4L243.3 1117.8A100 100 0 0 1 206.7 981.2L459.9 542.7A200.1 200.1 0 0 1 550 206.3V100H650V206.3A200.1 200.1 0 0 1 740.2 542.7L816.5 675zM730 725.1L653.6 592.8A200.2 200.2 0 0 1 546.5 592.8L470.1 725.1C510.3 741.1 554.1 750 600 750 645.9 750 689.8 741.1 730 725.1zM600 500A100 100 0 1 0 600 300 100 100 0 0 0 600 500z" /></svg>