<svg xmlns="http://www.w3.org/2000/svg" width="100%" height="100%" viewBox="0 0 1200 1200"><path fill="currentColor" d="M400 300V500H550V300H650V500H800V300H900V500L950 500A150-150 0 0 0 1099.8 641.2L1100 650V700C1100 750.7 1081.2 797 1050 832.3L1050 1050A50-50 0 0 0 1000 1100H200A50-50 0 0 0 150 1050V832A201.3-201.3 0 0 0 101.4 722.9L100.3 710.3 100 700V650A150-150 0 0 0 241.2 500.3L250 500 300 500V300H400zM450.1 832L447.4 835.2A199.7-199.7 0 0 0 321.7 898.8L310.2 899.7 300 900C282.8 900 266 897.8 250 893.7V1000H950V893.7A200.3-200.3 0 0 0 762.8 845.5L755.3 838 750 832.2 744.7 838.1A199.5-199.5 0 0 0 622.1 898.8L610 899.8 600 900A198.8-198.8 0 0 0 460.1 842.8L452.6 835 450.1 832zM950 600H250A50-50 0 0 1 200.3 644.1L200 650V698.5L200.2 705.9A100-100 0 0 1 300 800 100-100 0 0 1 399 715L399.8 707.4 400 698.5C401.8 636.2 491.4 633.9 499.4 691.9L499.9 698.5 500.1 705.9A100-100 0 0 1 699.8 707.5L700.4 693.4C706.6 635.6 793.5 635.6 799.7 693.4L800.3 707.5A100-100 0 0 1 999.8 707.5L1000 700V650A50-50 0 0 1 955.9 600.4L950 600zM350 50C416 93.5 433.2 154.4 422.4 194.4A75-75 0 0 0 277.6 155.6C292.5 100.1 350 125 350 50zM600 50C666 93.5 683.1 154.4 672.5 194.4A75-75 0 1 0 527.5 155.6C542.5 100.1 600 125 600 50zM850 50C916 93.5 933.1 154.4 922.5 194.4A75-75 0 1 0 777.6 155.6C792.5 100.1 850 125 850 50z" /></svg>