<svg xmlns="http://www.w3.org/2000/svg" width="100%" height="100%" viewBox="0 0 1200 1200"><path fill="currentColor" d="M600 100L814.6 314.6 867.7 261.6 806 200H1000V394L938.4 332.3 885.4 385.3 1100 600 885.4 814.6 938.4 867.6 1000 806V1000H806L867.6 938.4 814.6 885.4 600 1100 385.4 885.4 332.3 938.4 393.9 1000H200V806L261.6 867.6 314.6 814.6 100 600 314.7 385.3 261.6 332.3 200 394V200H393.9L332.3 261.5 385.4 314.6 600 100zM600 670.6L456 814.6 600 958.6 743.9 814.6 600 670.6zM385.4 456L241.4 600 385.3 743.9 529.3 599.9 385.4 456.1zM814.6 456L670.8 599.9 814.7 743.8 958.6 600 814.6 456zM600 241.4L456.1 385.3 600 529.3 743.9 385.3 600 241.4z" /></svg>