<svg xmlns="http://www.w3.org/2000/svg" width="100%" height="100%" viewBox="0 0 1200 1200"><path fill="currentColor" d="M600 100C876.1 100 1100 323.9 1100 600S876.1 1100 600 1100 100 876.1 100 600 323.9 100 600 100zM450 400C339.6 400 250 489.6 250 600A200.1-200.1 0 0 1 583.5 748.9L591.4 741.4 520.7 670.7A100-100 0 1 0 514.5 523.5L520.8 529.4 591.5 458.6A199.4-199.4 0 0 1 450 400zM800 400C689.6 400 600 489.6 600 600A200.1-200.1 0 0 1 933.5 748.9L941.4 741.4 870.7 670.7A100-100 0 1 0 864.4 523.5L870.8 529.4 941.5 458.6A199.4-199.4 0 0 1 800 400z" /></svg>