<svg xmlns="http://www.w3.org/2000/svg" width="100%" height="100%" viewBox="0 0 1200 1200"><path fill="currentColor" d="M491.4 250L391.4 350H200V950H1000V350H808.6L708.6 250H491.4zM450 150H750L850 250H1050A50-50 0 0 0 1100 300V1000A50-50 0 0 0 1050 1050H150A50-50 0 0 0 100 1000V300A50-50 0 0 0 150 250H350L450 150zM482 376.5A275-275 0 0 0 791.4 822.5L687.5 630H775L775 625A175-175 0 0 1 528.6 465.2L482 376.5zM715.9 874.5A275-275 0 0 0 406.9 429.3L512.5 625H425A175-175 0 0 1 669.3 785.8L715.9 874.5z" /></svg>