<svg xmlns="http://www.w3.org/2000/svg" width="100%" height="100%" viewBox="0 0 1200 1200"><path fill="currentColor" d="M322.8 950L100 1125V200A50 50 0 0 1 150 150H1050A50 50 0 0 1 1100 200V900A50 50 0 0 1 1050 950H322.8zM407.3 603.5L358.5 631.7 408.5 718.3 457.3 690.1C482.4 715.6 514.3 734.5 550 743.7V800H650V743.7A199.8 199.8 0 0 0 742.7 690.2L791.5 718.3 841.5 631.7 792.7 603.6A200.2 200.2 0 0 0 792.7 496.5L841.5 468.3 791.5 381.7 742.7 409.9A199.8 199.8 0 0 0 650 356.3V300H550V356.3A199.8 199.8 0 0 0 457.3 409.8L408.5 381.7 358.5 468.3 407.3 496.5A200.2 200.2 0 0 0 407.3 603.5zM600 650A100 100 0 1 1 600 450 100 100 0 0 1 600 650z" /></svg>