<svg xmlns="http://www.w3.org/2000/svg" width="100%" height="100%" viewBox="0 0 1200 1200"><path fill="currentColor" d="M200 737.3A350-350 0 1 0 600 737.3V1050A50-50 0 0 0 550 1100H250A50-50 0 0 0 200 1050V737.3zM400 700A250-250 0 1 1 400 200 250-250 0 0 1 400 700zM350 900V1000H450V900H350zM400 600A150-150 0 1 0 400 300 150-150 0 0 0 400 600zM700 850V785.4A448.9-448.9 0 0 1 850 450 448.3-448.3 0 0 1 735.4 150H1050A50-50 0 0 0 1100 200V800A50-50 0 0 0 1050 850H700zM900 350V450H1000V350H900z" /></svg>