<svg xmlns="http://www.w3.org/2000/svg" width="100%" height="100%" viewBox="0 0 1200 1200"><path fill="currentColor" d="M268.7 225.5A498.1 498.1 0 0 1 600 100C876.1 100 1100 323.9 1100 600A497.7 497.7 0 0 1 1010.4 885.8L875 600H1000A400 400 0 0 0 313.7 320.7L268.7 225.5zM931.4 974.5A498.1 498.1 0 0 1 600 1100C323.9 1100 100 876.1 100 600 100 493.8 133.2 395.3 189.7 314.3L325 600H200A400 400 0 0 0 886.3 879.4L931.3 974.5zM425 700H700A25 25 0 1 0 700 650H500A125 125 0 1 1 500 400H550V350H650V400H775V500H500A25 25 0 1 0 500 550H700A125 125 0 1 1 700 800H650V850H550V800H425V700z" /></svg>