<svg xmlns="http://www.w3.org/2000/svg" width="100%" height="100%" viewBox="0 0 1200 1200"><path fill="currentColor" d="M400.4 700A227.9 227.9 0 0 0 400 712.5C400 831.6 487.6 950 650 950 768.7 950 876.4 917.3 950 872.3V1039.9C860.5 1078.2 755.6 1100 650 1100 374.9 1100 250 926.5 250 712.5 250 551 352.1 412.5 497.1 354.3 426.9 433.2 400 517 400 549.8L900 550C900 379.7 772.6 250 600 250 350 250 199.9 449.4 150 549.9 164.5 311.9 350.5 100 600 100 860 100 1050 301.5 1050 550V700H400L400.4 700z" /></svg>