<svg xmlns="http://www.w3.org/2000/svg" width="100%" height="100%" viewBox="0 0 1200 1200"><path fill="currentColor" d="M600 100C876.1 100 1100 323.9 1100 600A497.9-497.9 0 0 0 1046.8 824.8 98.9-98.9 0 0 1 1026.8 786L1020.7 779.3 950 708.6 879.3 779.3 873.4 785.7A100-100 0 0 1 957.4 949.8 498.7-498.7 0 0 0 600 1100C323.9 1100 100 876.1 100 600S323.9 100 600 100zM600 750C531 750 468.5 778 423.3 823.2L415 831.9 462.3 874.9C501.8 859.1 549.1 850 600 850 645.3 850 687.7 857.2 724.3 869.8L737.8 874.8 785 831.8A249.3-249.3 0 0 1 600 750zM425 500A75-75 0 1 1 425 650 75-75 0 0 1 425 500zM775 500A75-75 0 1 1 775 650 75-75 0 0 1 775 500z" /></svg>