<svg xmlns="http://www.w3.org/2000/svg" width="100%" height="100%" viewBox="0 0 1200 1200"><path fill="currentColor" d="M506.5 792.1L467.1 939.1 370.6 913.2 409.9 766.3A549.4 549.4 0 0 1 248.1 672.6L140.4 780.3 69.7 709.6 177.3 601.9A547.9 547.9 0 0 1 58.8 348.5L103.8 340.2A846.1 846.1 0 0 0 600 500C785.2 500 956.5 440.8 1096.2 340.2L1141.2 348.4A547.9 547.9 0 0 1 1022.7 601.9L1130.3 709.6 1059.6 780.3 952 672.6A549.4 549.4 0 0 1 790.1 766.3L829.4 913.3 732.9 939.1 693.5 792.1A553.6 553.6 0 0 1 506.5 792.1z" /></svg>