<svg xmlns="http://www.w3.org/2000/svg" width="100%" height="100%" viewBox="0 0 1200 1200"><path fill="currentColor" d="M1100 450H1000V350H579.3L479.3 250H200V950H572.3A248.5 248.5 0 0 0 655.5 1050H150A50 50 0 0 1 100 1000V200A50 50 0 0 1 150 150H520.7L620.7 250H1050A50 50 0 0 1 1100 300V450zM650 550H1100V847.4C1100 896.9 1075 943.2 1033.2 970.7L875 1074.9 716.8 970.7A147.6 147.6 0 0 1 650 847.5V550zM750 847.4C750 863.2 758.1 878.1 771.8 887.2L875 955.2 978.2 887.2A47.7 47.7 0 0 0 1000 847.4V650H750V847.4z" /></svg>