<svg xmlns="http://www.w3.org/2000/svg" width="100%" height="100%" viewBox="0 0 1200 1200"><path fill="currentColor" d="M1000 650C916.1 650 837.6 673 770.4 713A749.2 749.2 0 0 1 907.4 950H1000V650zM800.2 950C702.2 715.1 470.4 550 200 550V950H800.2zM200 450C391.5 450 566.1 521.8 698.7 639.8A547.4 547.4 0 0 1 1000 550V150H1050.4C1077.8 150 1100 172.3 1100 199.6V1000.3A50 50 0 0 1 1050.4 1050H149.6A49.6 49.6 0 0 1 100 1000.4V199.6A50 50 0 0 1 149.6 150H300V50H400V250H200V450zM900 50V250H500V150H800V50H900zM825 500A75 75 0 1 1 825 350 75 75 0 0 1 825 500z" /></svg>