<svg xmlns="http://www.w3.org/2000/svg" width="100%" height="100%" viewBox="0 0 1200 1200"><path fill="currentColor" d="M600 100C775 100 900 250 950 400 1100 450 1150 586.5 1150 700L1011.3 739.6A50 50 0 0 0 975 787.7V862.5A87.5 87.5 0 0 1 887.5 950H857.7A100 100 0 0 0 774.3 994.8C727.9 1065 669.8 1100 600 1100 530.2 1100 472.1 1065 425.7 994.8A100 100 0 0 0 342.3 950H312.5A87.5 87.5 0 0 1 225 862.5V787.7A50 50 0 0 0 188.8 739.6L50 700C50 586.7 100 450 250 400 300 250 425 100 600 100zM600 200C494.5 200 396.8 289.4 349.4 418.5L344.9 431.6 329.1 479.1 281.6 494.8C218.8 515.8 178.3 561.9 160.4 622.8L159.3 627.1 216.3 643.5A150 150 0 0 1 324.8 778.6L325 787.7V850H342.3A200 200 0 0 1 502.3 930L509.1 939.6C537.9 983.1 565.8 1000 600 1000 631.9 1000 658.4 985.4 685.1 948L690.9 939.6A200 200 0 0 1 845.9 850.4L857.7 850H875V787.7A150 150 0 0 1 975.1 646.2L983.8 643.5 1040.8 627.1 1039.6 622.8C1022.7 565.3 985.6 521 928.6 498.6L918.4 494.9 870.9 479 855.1 431.6C809.8 295.5 709 200 600 200zM600 600C641.4 600 675 656 675 725S641.4 850 600 850 525 794 525 725 558.6 600 600 600zM475 400A75 75 0 1 1 475 550 75 75 0 0 1 475 400zM725 400A75 75 0 1 1 725 550 75 75 0 0 1 725 400z" /></svg>