<svg xmlns="http://www.w3.org/2000/svg" width="100%" height="100%" viewBox="0 0 1200 1200"><path fill="currentColor" d="M355.3 439.5A150 150 0 0 0 500 550H700A250.1 250.1 0 0 1 946.4 757.3 150 150 0 0 1 900 1050 150 150 0 0 1 844.8 760.5 150 150 0 0 0 700 650H500A248.9 248.9 0 0 1 350 600V758.5A150 150 0 1 1 250 758.5V441.5A150 150 0 1 1 355.3 439.5zM300 350A50 50 0 1 0 300 250 50 50 0 0 0 300 350zM300 950A50 50 0 1 0 300 850 50 50 0 0 0 300 950zM900 950A50 50 0 1 0 900 850 50 50 0 0 0 900 950z" /></svg>