<svg xmlns="http://www.w3.org/2000/svg" width="100%" height="100%" viewBox="0 0 1200 1200"><path fill="currentColor" d="M294.1 932.6C279.2 922.6 266.3 909.9 251.2 891.9A2516-2516 0 0 0 227.8 862.9C204.7 834.1 190.1 820.9 175 815.4A50-50 0 0 0 208.8 721.3C246.4 734.8 271.9 758 306.1 800.7 301.4 794.8 323.1 822 327.8 827.7 337.3 839 344.3 845.9 349.8 849.5 360 856.4 379.1 859.4 407.3 856.5 408.4 837.4 412 818.9 417.4 801.8 269 765.5 185 669.8 185 482 185 420 203.5 364.2 237.9 317.4 227 272.7 228.7 218.6 253 157.8A50-50 0 0 0 284.5 128.7C288.6 127.5 290.9 127 294.9 126.3 335.1 120.2 391.8 134.8 465.6 181.1A586.6-586.6 0 0 0 600 165.8C645.6 165.8 690.9 171 734.2 181.1 808.1 134.5 864.9 119.8 905.3 126.3 909.6 127 913.1 127.8 916.2 128.8A50-50 0 0 0 947 157.8C971.4 218.6 973 272.7 962.1 317.3 996.6 364.1 1015 419.6 1015 482 1015 669.9 931.3 765.3 782.9 801.6 789.2 822.3 792.4 845.5 792.4 870.6A15024.6-15024.6 0 0 0 791.8 1006.4 50-50 0 0 0 790.9 1104.3C733.9 1115.7 691.7 1077.7 691.7 1028L691.8 1005.7 692.1 970.5C692.3 935.1 692.4 903.6 692.4 870.6 692.4 835.8 683.3 813 671.1 802.6 638.1 774.1 654.9 719.9 698.2 715 846.5 698.3 915 640.9 915 482 915 434.3 899.4 394.8 869.4 361.8A50-50 0 0 0 859.8 309.5C868.1 288.9 871.7 261.7 864.6 228.9L864.1 229C839.6 236 808.6 251 771.2 276.5A50-50 0 0 0 729.6 283.2 481.3-481.3 0 0 1 600 265.8C555.5 265.8 511.4 271.7 470.4 283.3A50-50 0 0 0 428.9 276.5C391.3 251.2 360.2 236.2 335.5 229.2 328.3 261.9 331.8 288.9 340.1 309.5A50-50 0 0 0 330.6 361.8C300.8 394.5 285 434.7 285 482 285 640.6 353.6 698.4 501.1 715 544.4 719.9 561.2 773.9 528.3 802.4 518.7 810.8 506.9 839 506.9 870.6V1028.1C506.9 1077.4 465.1 1114.4 408.9 1104.5A50-50 0 0 0 406.9 1006.4V956.9C361.4 960 323.8 952.5 294.2 932.7z" /></svg>