<svg xmlns="http://www.w3.org/2000/svg" width="100%" height="100%" viewBox="0 0 1200 1200"><path fill="currentColor" d="M283.9 906.2C154.6 828.3 75 705.6 75 570.3 75 335 312.4 150 600 150S1125 335 1125 570.3C1125 805.4 887.6 990.5 600 990.5 577.9 990.5 555.9 989.4 534.1 987.2L345.9 1110.1C315.1 1126.4 298 1131.4 271.6 1113.4 240.6 1092.2 241.8 1068.8 252.6 1035.4L283.9 906.1zM175 570.3C175 676.8 245.9 776.4 364.1 836.3L399.4 854.2 390.1 892.7 370 975.1 510 883.6 528.3 885.9C551.9 889 575.9 890.5 600 890.5 837 890.5 1025 744 1025 570.3S837 250 600 250 175 396.5 175 570.3zM895.4 552.9L971 660.7A23.6 23.6 0 1 1 932.4 687.8L861 586.2 839.6 606.8V675A23.6 23.6 0 0 1 792.5 675V603A23.6 23.6 0 0 1 792.5 592V464.1A23.6 23.6 0 0 1 839.6 464.1V541.2L936 447.9A23.6 23.6 0 0 1 968.9 481.8L895.4 553zM747.5 649.2A23.6 23.6 0 0 1 747.5 696.4H650.9A23.6 23.6 0 0 1 627.3 672.8V464.9A23.6 23.6 0 1 1 674.4 464.9V649.2H747.4zM454.6 594.6H521.3L489.4 509.3 454.6 594.6zM580.7 619L598 665.3A23.6 23.6 0 1 1 553.8 681.8L538.9 641.8H435.4L418.9 682.5A23.6 23.6 0 1 1 375.1 664.6L458.1 460.9A34.8 34.8 0 0 1 490.8 438.5 34.5 34.5 0 0 1 522.2 462.2L574.5 602.2A23.4 23.4 0 0 1 580.8 618.2L580.7 619zM414.6 465.1C414.6 478.1 404.1 488.7 391.1 488.7H334.1V675.5A23.6 23.6 0 0 1 286.9 675.5V488.7H228.8A23.6 23.6 0 1 1 228.8 441.5H391.1C404.1 441.5 414.6 452 414.6 465.1z" /></svg>