<svg xmlns="http://www.w3.org/2000/svg" width="100%" height="100%" viewBox="0 0 1200 1200"><path fill="currentColor" d="M850 850H1100V950H950V1100H850V850zM350 350H100V250H250V100H350V350zM918.2 776.8L847.5 706 918.2 635.3A250-250 0 1 1 564.7 281.8L493.9 352.5 423.2 281.8 494 211.1A350-350 0 0 0 989 706.1L918.3 776.8zM776.8 918.2L706.1 988.9A350-350 0 0 0 211.1 493.9L281.8 423.2 352.5 494 281.8 564.7A250-250 0 1 1 635.4 918.3L706.1 847.5 776.8 918.3zM741.4 387.9L812.2 458.6 458.6 812.1 387.9 741.4 741.4 387.9z" /></svg>