<svg xmlns="http://www.w3.org/2000/svg" width="100%" height="100%" viewBox="0 0 1200 1200"><path fill="currentColor" d="M916.8 916.9H783.5V708.1C783.5 658.3 782.5 594.2 714 594.2 644.5 594.2 633.9 648.4 633.9 704.4V916.9H500.6V487.5H628.6V546H630.4C648.3 512.3 691.8 476.6 756.8 476.6 891.8 476.6 916.8 565.5 916.8 681.2V916.9zM350.1 428.8A77.3-77.3 0 0 0 272.8 351.3 77.4-77.4 0 1 0 350.1 428.8zM417 916.9H283.3V487.5H417V916.9zM983.5 150H216.4C179.7 150 150 179 150 214.9V985.1C150 1021 179.7 1050 216.4 1050H983.3C1020 1050 1050 1021 1050 985.1V214.9C1050 179 1020 150 983.3 150H983.5z" /></svg>