<svg xmlns="http://www.w3.org/2000/svg" width="100%" height="100%" viewBox="0 0 1200 1200"><path fill="currentColor" d="M763.3 577.7L982.7 387.8 917.3 312.2 603 584.1 282.4 311.9 217.7 388.1 602.8 715.1A348.3-348.3 0 0 1 550 900C550 953.7 562.1 1004.5 583.7 1050H150A50-50 0 0 0 100 1000V200A50-50 0 0 0 150 150H1050A50-50 0 0 0 1100 200V612.8A348.4-348.4 0 0 1 900 550C851.5 550 805.3 559.8 763.3 577.7zM835.3 1035.4A150-150 0 0 1 1035.4 835.3L835.4 1035.3zM764.6 964.6L964.6 764.6A150-150 0 0 1 764.6 964.7zM900 1150A250-250 0 1 0 900 650 250-250 0 0 0 900 1150z" /></svg>