<svg xmlns="http://www.w3.org/2000/svg" width="100%" height="100%" viewBox="0 0 1200 1200"><path fill="currentColor" d="M600 914.7A365 365 0 1 1 600 285.3 365 365 0 1 1 600 914.7zM685.1 845.5A265 265 0 1 0 685.1 354.5 363.6 363.6 0 0 1 780 600C780 694.5 744 780.7 685.1 845.5zM514.9 354.5A265 265 0 1 0 514.9 845.5 363.6 363.6 0 0 1 420 600C420 505.5 455.9 419.3 514.9 354.5zM600 410.3A264.2 264.2 0 0 0 520 600C520 674.4 550.6 741.6 600 789.8A264.2 264.2 0 0 0 680 600 264.2 264.2 0 0 0 600 410.3z" /></svg>