<svg xmlns="http://www.w3.org/2000/svg" width="100%" height="100%" viewBox="0 0 1200 1200"><path fill="currentColor" d="M600 1100C323.9 1100 100 876.1 100 600S323.9 100 600 100 1100 323.9 1100 600 876.1 1100 600 1100zM545.7 578.4C557.7 536.4 599.4 501.3 645.2 496 654.5 530.7 664.6 564.6 672.5 599.1 675.1 610.7 674.3 623.9 671.5 635.5 660.9 680.1 609.1 697.6 572.6 669.8 546.1 649.5 535.5 613.8 545.7 578.4zM736.5 568.6C730.3 545.3 723.8 522.2 716.9 497.5 741.9 504.1 762.3 515.5 779.6 532.5 842.5 593.5 848.9 697.5 794.4 769 737.6 843.5 636.6 875.7 543 849.3 427.9 816.8 352.6 701.6 370.9 583.5 384.6 495 434.4 433.3 515.9 396.8 536.3 387.7 544.9 368.8 536.9 350.3 529.1 332.1 509.9 325.1 489.7 333.2 353.7 387.6 273.7 539.9 306.2 682.5 341.9 838.4 480.9 940.7 639.9 925.5 726.5 917.2 798.1 878 850.8 808.1 926 708 915.6 568.9 827.6 483.2 794.3 450.6 754 432.3 708.1 425.5 703.9 424.9 697.2 422.9 696.5 420.2 692.1 404.5 687.5 388.6 686.2 372.5 684.8 354.6 700.7 340.5 718.7 340.3 731.4 340.1 740.4 346.8 748.9 355.3 764 370.3 784.1 371.3 798.3 358.3 812.8 345.1 813 324.5 799.1 308 770.9 274.4 719.9 263.4 677.7 281.8 635.3 300.3 611.6 341.2 617.7 386.5 619.6 400.5 623.2 414.3 626 428.5L613 432.1C570.2 444.1 535 467.3 508.1 502.8 462.1 563.8 461.3 644.2 506.1 700.2 569.8 779.9 693.4 764.4 732.2 671.8 746.4 638 746 603.4 736.6 568.5z" /></svg>