<svg xmlns="http://www.w3.org/2000/svg" width="100%" height="100%" viewBox="0 0 1200 1200"><path fill="currentColor" d="M435.5 318.3C380.1 383.5 344.4 480.1 341.9 588.3V611.8C344.4 720 380.2 816.4 435.5 881.8 507.1 974.9 613.8 1034 733 1034A360.4-360.4 0 0 1 933.2 972.7 497-497 0 0 0 576.3 1099.4 499.9-499.9 0 0 0 100 600C100 323.8 323.9 100 600 100H601.9A498.5-498.5 0 0 0 933.3 227.3 362-362 0 0 1 732.9 166C613.8 166 507.1 225.1 435.4 318.3H435.5zM1100 600A498.4-498.4 0 0 0 933.3 972.7C805 1035.2 685.5 991.5 645.9 964.2 771.9 936.5 867.1 784.2 867.1 600 867.1 415.8 771.9 263.5 645.9 235.9 685.5 208.6 805 164.8 933.3 227.3A498.4-498.4 0 0 0 1100 600z" /></svg>