<svg xmlns="http://www.w3.org/2000/svg" width="100%" height="100%" viewBox="0 0 1200 1200"><path fill="currentColor" d="M300 950H150A50-50 0 0 0 100 900V400A50-50 0 0 0 150 350H300V150A50-50 0 0 0 350 100H850A50-50 0 0 0 900 150V350H1050A50-50 0 0 0 1100 400V900A50-50 0 0 0 1050 950H900V1050A50-50 0 0 0 850 1100H350A50-50 0 0 0 300 1050V950zM300 850V800A50-50 0 0 0 350 750H850A50-50 0 0 0 900 800V850H1000V450H200V850H300zM400 200V350H800V200H400zM400 850V1000H800V850H400zM250 500H400V600H250V500z" /></svg>