<svg xmlns="http://www.w3.org/2000/svg" width="100%" height="100%" viewBox="0 0 1200 1200"><path fill="currentColor" d="M600 100C876.1 100 1100 298.9 1100 544.4A277.9 277.9 0 0 1 822.2 822.2H723.9C677.8 822.2 640.5 859.5 640.5 905.5 640.5 926.7 648.9 946.1 661.6 960.5 675 975.6 683.4 995 683.4 1016.7 683.4 1062.8 645 1100 600 1100 323.9 1100 100 876.1 100 600S323.9 100 600 100zM540.5 905.5A183.2 183.2 0 0 1 723.9 722.2H822.2A177.9 177.9 0 0 0 1000 544.5C1000 357 823.4 200 600 200A400 400 0 0 0 566.2 998.6 182.4 182.4 0 0 1 540.5 905.6zM375 600A75 75 0 1 1 375 450 75 75 0 0 1 375 600zM825 600A75 75 0 1 1 825 450 75 75 0 0 1 825 600zM600 450A75 75 0 1 1 600 300 75 75 0 0 1 600 450z" /></svg>