<svg xmlns="http://www.w3.org/2000/svg" width="100%" height="100%" viewBox="0 0 1200 1200"><path fill="currentColor" d="M1003.4 423.9C1028 467.9 1031.2 524.6 1018.4 590.3 981.4 780.5 854.6 846.3 692.7 846.3H667.7A40.3 40.3 0 0 0 628 880.3L626 891.3 594.5 1090.9 592.9 1099.4A40.2 40.2 0 0 1 553.1 1133.3H386A24.1 24.1 0 0 1 362.1 1105.4L370.9 1050H446.8L494.3 749H563.5C797.4 749 951 638.9 1003.4 423.9zM855.3 169.4C893.5 212.8 904.5 259.9 892.9 333.6 892 339.8 890.9 345.7 889.8 351.7 853.1 540.3 735.4 623.9 542 623.9H447.9C416.4 623.9 389.2 644.6 380.2 674L379.5 673.9 333 968.6H156.1A2.5 2.5 0 0 1 153.6 965.6L283.5 140.1A47.5 47.5 0 0 1 330.4 100H629.1C738.3 100 814.9 123.5 855.3 169.4z" /></svg>