<svg xmlns="http://www.w3.org/2000/svg" width="100%" height="100%" viewBox="0 0 1200 1200"><path fill="currentColor" d="M491.5 439.5L400 472.8V650H300V402.5H300.8L564.1 306.6C576.3 302 589.6 299.6 603.3 300A130.8-130.8 0 0 0 724.6 391C733.9 420.2 742.4 439.9 750.1 450.1A249.6-249.6 0 0 1 950 550V650A349.3-349.3 0 0 0 679.9 522.6L650.9 687.5 750 783.5V1150H650V850.7L547.5 751.3 500.1 966.3 155.4 905.5 172.8 807 419.1 850.4 491.5 439.5zM675 275A100-100 0 1 0 675 75 100-100 0 0 0 675 275z" /></svg>