<svg xmlns="http://www.w3.org/2000/svg" width="100%" height="100%" viewBox="0 0 1200 1200"><path fill="currentColor" d="M1050 950V1050H950V950H1050zM850 950V1050H750V950H850zM650 950V1050H550V950H650zM450 950V1050H350V950H450zM250 950V1050H150V950H250zM1050 750V850H950V750H1050zM250 750V850H150V750H250zM250 550V650H150V550H250zM800 150C934.4 150 1044.1 256.2 1049.8 389.2L1050 400V650H950V400C950 320.5 887.3 254.9 808.8 250.3L800 250H550V150H800zM250 350V450H150V350H250zM250 150V250H150V150H250zM450 150V250H350V150H450z" /></svg>