<svg xmlns="http://www.w3.org/2000/svg" width="100%" height="100%" viewBox="0 0 1200 1200"><path fill="currentColor" d="M1100 675V1050A50-50 0 0 0 1050 1100H1000A50-50 0 0 0 950 1050V1000H250V1050A50-50 0 0 0 200 1100H150A50-50 0 0 0 100 1050V675L37.9 659.5A50-50 0 0 0 0 611V575A25-25 0 0 0 25 550H118.8L225.7 264.9A100-100 0 0 0 319.3 200H880.7A100-100 0 0 0 974.4 264.9L1081.3 550H1175A25-25 0 0 0 1200 575V611A50-50 0 0 0 1162.1 659.5L1100 675zM200 750V850A50-50 0 0 1 250 900H412.3A25-25 0 0 1 434.3 863.2C394 787.7 315.9 750 200 750zM1000 750C884.1 750 806 787.8 765.7 863.2A25-25 0 0 1 787.8 900H950A50-50 0 0 1 1000 850V750zM300 300L221.9 534.2A50-50 0 0 1 269.4 600H930.6A50-50 0 0 1 978 534.2L900 300H300z" /></svg>