<svg xmlns="http://www.w3.org/2000/svg" width="100%" height="100%" viewBox="0 0 1200 1200"><path fill="currentColor" d="M497.7 110.5A499.5 499.5 0 0 1 702.3 110.4 199.6 199.6 0 0 0 800 253.5 199.6 199.6 0 0 0 972.9 266.5 499.5 499.5 0 0 1 1075 443.8 199.6 199.6 0 0 0 1000 600C1000 663.2 1029.3 719.5 1075.1 756.2A502.1 502.1 0 0 1 972.8 933.4 199.6 199.6 0 0 0 800 946.4 199.6 199.6 0 0 0 702.3 1089.4 499.5 499.5 0 0 1 497.7 1089.6 199.6 199.6 0 0 0 400 946.4 199.6 199.6 0 0 0 227.2 933.3 499.5 499.5 0 0 1 125 756 199.6 199.6 0 0 0 200 600 199.6 199.6 0 0 0 124.9 443.8 502.1 502.1 0 0 1 227.2 266.6 199.6 199.6 0 0 0 400 253.5 199.6 199.6 0 0 0 497.7 110.5zM600 750A150 150 0 1 0 600 450 150 150 0 0 0 600 750z" /></svg>