<svg xmlns="http://www.w3.org/2000/svg" width="100%" height="100%" viewBox="0 0 1200 1200"><path fill="currentColor" d="M725 150A75 75 0 0 1 800 225V475A75 75 0 0 1 650 475V225A75 75 0 0 1 725 150zM225 650H300V725A75 75 0 1 1 225 650zM650 900H725A75 75 0 1 1 650 975V900zM725 650H975A75 75 0 0 1 975 800H725A75 75 0 0 1 725 650zM975 400A75 75 0 0 1 975 550H900V475A75 75 0 0 1 975 400zM225 400H475A75 75 0 0 1 475 550H225A75 75 0 0 1 225 400zM475 150A75 75 0 0 1 550 225V300H475A75 75 0 0 1 475 150zM475 650A75 75 0 0 1 550 725V975A75 75 0 0 1 400 975V725A75 75 0 0 1 475 650z" /></svg>