<svg xmlns="http://www.w3.org/2000/svg" width="100%" height="100%" viewBox="0 0 1200 1200"><path fill="currentColor" d="M100 600C100 556.8 105.5 514.9 115.8 474.8A150 150 0 0 0 249.5 243.4 499.5 499.5 0 0 1 466.2 118.1 150 150 0 0 0 733.6 118.1 499.5 499.5 0 0 1 950.4 243.4 150 150 0 0 0 1084.2 474.9C1094.5 514.9 1100 556.8 1100 600 1100 643.3 1094.5 685.1 1084.2 725.2A150 150 0 0 0 950.4 956.6 499.5 499.5 0 0 1 733.6 1081.9 150 150 0 0 0 466.2 1081.9 499.5 499.5 0 0 1 249.5 956.6 150 150 0 0 0 115.8 725.1C105.5 685.2 100 643.3 100 600zM340.2 750C371.7 804.5 380.7 867.3 368.4 926.2 388.8 940.7 410.5 953.3 433.3 963.7A249.7 249.7 0 0 1 600 900C663 900 721.9 923.5 766.8 963.7 789.5 953.3 811.2 940.7 831.6 926.2A249.7 249.7 0 0 1 859.8 750 249.7 249.7 0 0 1 998.3 637.5 406.3 406.3 0 0 0 998.3 562.5 249.7 249.7 0 0 1 859.8 450 249.7 249.7 0 0 1 831.5 273.8 399.4 399.4 0 0 0 766.7 236.3 249.7 249.7 0 0 1 600 300 249.7 249.7 0 0 1 433.3 236.3 399.5 399.5 0 0 0 368.4 273.8 249.7 249.7 0 0 1 340.2 450 249.7 249.7 0 0 1 201.7 562.5 406.3 406.3 0 0 0 201.7 637.5 249.7 249.7 0 0 1 340.3 750zM600 750A150 150 0 1 1 600 450 150 150 0 0 1 600 750zM600 650A50 50 0 1 0 600 550 50 50 0 0 0 600 650z" /></svg>