<svg xmlns="http://www.w3.org/2000/svg" width="100%" height="100%" viewBox="0 0 1200 1200"><path fill="currentColor" d="M599.6 720.4L522.1 797.9A200-200 0 1 0 451.2 727.4L528.9 649.6 372.7 493.4A75-75 0 0 0 372.7 387.3L390.4 369.6 599.6 578.9 809.1 369.4 826.8 387.1A75-75 0 0 0 826.8 493.1L670.4 649.6 748.4 727.6A200-200 0 1 0 677.7 798.3L599.7 720.3zM950 650V250H250V650H150V200A50-50 0 0 0 200 150H1000A50-50 0 0 0 1050 200V650H950zM350 1000A100-100 0 1 1 350 800 100-100 0 0 1 350 1000zM850 1000A100-100 0 1 1 850 800 100-100 0 0 1 850 1000z" /></svg>