<svg xmlns="http://www.w3.org/2000/svg" width="100%" height="100%" viewBox="0 0 1200 1200"><path fill="currentColor" d="M569.4 100L660 100.3 702.1 101C1060.2 109.2 1099 176.6 1100 584.4L1099.7 660 1099 702.1C1090.8 1060.2 1023.4 1099 615.6 1100L540 1099.7 495.6 1099C153 1090.8 104.3 1027.5 100.3 660L100 584.6 100.3 540 101 496.8C109.3 144.2 175.3 102 569.4 100zM706 200.5L544.1 200 478 200.5C203.6 204.6 200.8 241.5 200 570.6L200.1 679.4 200.6 731.4C205.1 980.5 240.3 998.5 520.6 999.9L693.3 999.8 732.1 999.3C987.5 994.8 999.5 957.5 1000 655.5L999.9 518.3 999.3 465.6C994.5 225.8 960 203 706 200.4zM412.5 350A437.5 437.5 0 0 1 850 787.5V816.6A33.3 33.3 0 0 1 816.6 850H633.3A33.3 33.3 0 0 1 600 816.6V787.5A187.5 187.5 0 0 0 412.5 600H383.4A33.3 33.3 0 0 1 350 566.6V383.3C350 365 365 350 383.4 350H412.5z" /></svg>