<svg xmlns="http://www.w3.org/2000/svg" width="100%" height="100%" viewBox="0 0 1200 1200"><path fill="currentColor" d="M1083.9 399L1013.1 469.7 907.1 363.7 801.1 469.7 977.8 646.5 907.1 717.1 871.7 681.8 553.5 1000H270.7L164.7 1106 94 1035.3 200 929.3V646.4L518.2 328.3 482.9 292.9 553.5 222.2 730.3 398.9 836.4 292.9 730.3 186.9 801.1 116.1 1083.9 398.9zM801.1 611.1L588.9 399 518.2 469.7 624.3 575.8 553.6 646.5 447.5 540.4 376.8 611.1 482.8 717.1 412.2 787.9 306.1 681.8 300 687.9V900H512.2L801.1 611.1z" /></svg>