<svg xmlns="http://www.w3.org/2000/svg" width="100%" height="100%" viewBox="0 0 1200 1200"><path fill="currentColor" d="M150 150H1050A50 50 0 0 1 1100 200V1000A50 50 0 0 1 1050 1050H150A50 50 0 0 1 100 1000V200A50 50 0 0 1 150 150zM352.5 356A348.9 348.9 0 0 0 250 603.5C250 700.2 289.2 787.7 352.5 851L423.2 780.4A249.2 249.2 0 0 1 350 603.5C350 534.5 378 472 423.2 426.8L352.5 356zM847.5 356L776.8 426.8A249.2 249.2 0 0 1 850 603.5C850 672.5 822 735 776.8 780.3L847.5 851A348.9 348.9 0 0 0 950 603.5 348.9 348.9 0 0 0 847.5 356zM600 753.5A150 150 0 1 0 600 453.5 150 150 0 0 0 600 753.5zM600 653.5A50 50 0 1 1 600 553.5 50 50 0 0 1 600 653.5z" /></svg>