<svg xmlns="http://www.w3.org/2000/svg" width="100%" height="100%" viewBox="0 0 1200 1200"><path fill="currentColor" d="M600 100C877.5 100 1100 325 1100 600S875 1100 600 1100 100 875 100 600 325 100 600 100zM600 200C380.3 200 200 380.3 200 600S380.3 1000 600 1000 1000 819.8 1000 600C1000 379.3 821.4 200 600 200zM787.5 832.5C670 760 522.5 745 347.5 785 330 790 315 777.5 310 762.5 305 745 317.5 730 332.5 725 522.5 682.5 687.5 700 817.5 780 835 787.5 837.5 807.5 830 822.5 820 837.5 802.5 842.5 787.5 832.5zM837.5 697.5C702.5 615 497.5 590 340 640 320 645 297.5 635 292.5 615 287.5 595 297.5 572.5 317.5 567.5 500 512.5 725 540 880 635 895 642.5 902.5 667.5 890 685S855 710 837.5 697.5zM315 487.5C290 495 265 480 257.5 457.5 250 432.5 265 407.5 287.5 400 465 347.5 757.5 357.5 942.5 467.5 965 480 972.5 510 960 532.5 947.5 550 917.5 557.5 895 545 735 450 467.5 440 315 487.5z" /></svg>