<svg xmlns="http://www.w3.org/2000/svg" width="100%" height="100%" viewBox="0 0 1200 1200"><path fill="currentColor" d="M650.2 921.1A100-100 0 0 0 712 931.5 162.5-162.5 0 0 1 931.5 712 100-100 0 0 0 921.1 650.2 325-325 0 0 1 549.8 278.9 100-100 0 0 0 487.9 268.5 162.5-162.5 0 0 1 268.5 488 100-100 0 0 0 278.9 549.9 325-325 0 0 1 650.2 921.2zM600 1025A425-425 0 0 0 180 534.5 262.5-262.5 0 0 0 534.5 180 425-425 0 0 0 1020 665.5 262.5-262.5 0 0 0 665.5 1020C644.1 1023.3 622.2 1025 600 1025zM602.7 850C462.5 850 400 781 400 729.3 400 702.7 419.5 684.2 446.4 684.2 506.4 684.2 490.8 770.5 602.7 770.5 659.8 770.5 691.5 739.3 691.5 707.4 691.5 688.2 682 667 644.3 657.6L519.8 626.5C419.5 601.3 401.3 546.9 401.3 495.9 401.3 389.8 500.9 350 594.5 350 680.5 350 782.3 397.8 782.3 461.4 782.3 488.6 758.3 504.5 731.7 504.5 680.6 504.5 689.9 433.6 586.7 433.6 535.6 433.6 506.9 456.8 506.9 490 506.9 523.1 547.1 533.8 582 541.7L673.8 562.1C774.5 584.8 800 643.8 800 699.5 800 785.6 733.8 850 600.8 850H602.7z" /></svg>