<svg xmlns="http://www.w3.org/2000/svg" width="100%" height="100%" viewBox="0 0 1200 1200"><path fill="currentColor" d="M1108.1 282.8A419.2 419.2 0 0 1 988 315.7 209.8 209.8 0 0 0 1080 200C1039 224.4 994 241.5 947.2 250.8A209.1 209.1 0 0 0 590.9 441.5 593.7 593.7 0 0 1 159.9 223 208.4 208.4 0 0 0 131.6 328.1C131.6 400.6 168.5 464.7 224.6 502.2A208.4 208.4 0 0 1 129.9 476V478.6A209.2 209.2 0 0 0 297.7 683.7 210.5 210.5 0 0 1 203.2 687.3 209.2 209.2 0 0 0 398.5 832.5 419.7 419.7 0 0 1 89 919.1 591.5 591.5 0 0 0 409.4 1013.1C794.1 1013.1 1004.5 694.4 1004.5 418.1 1004.5 409.1 1004.2 400 1003.8 391.1A424.8 424.8 0 0 0 1108.1 282.8z" /></svg>