<svg xmlns="http://www.w3.org/2000/svg" width="100%" height="100%" viewBox="0 0 1200 1200"><path fill="currentColor" d="M1050 150A50 50 0 0 1 1100 200V475A125 125 0 1 0 1100 725V1000A50 50 0 0 1 1050 1050H150A50 50 0 0 1 100 1000V725A125 125 0 1 0 100 475V200A50 50 0 0 1 150 150H1050zM1000 250H200V398.4L207.8 402.5A225 225 0 0 1 324.8 589.4L325 600A224.9 224.9 0 0 1 207.8 797.5L200 801.6V950H1000V801.5L992.2 797.5A225 225 0 0 1 875.2 610.5L875 600C875 514.8 922.4 440.7 992.2 402.5L1000 398.3V250zM800 450V750H400V450H800z" /></svg>