<svg xmlns="http://www.w3.org/2000/svg" width="100%" height="100%" viewBox="0 0 1200 1200"><path fill="currentColor" d="M1027.8 172.2C1105.9 250.3 1105.9 376.9 1027.8 455L617.8 865C585.7 897.1 543.6 917.4 498.4 922.4L329.6 941.1 214.7 1056.1C195.2 1075.6 163.5 1075.6 144 1056.1 124.5 1036.5 124.5 1004.9 144 985.3L258.9 870.4 277.6 701.5C282.6 656.4 302.9 614.3 335 582.2L745 172.2C823.1 94.1 949.7 94.1 1027.8 172.2zM568.2 631.8L497.5 702.5 603.5 808.6 674.3 737.9 568.2 631.8zM709.6 490.4L638.9 561.1 745 667.1 815.7 596.5 709.6 490.4zM851.1 348.9L780.4 419.6 886.4 525.7 957.1 455 851.1 348.9z" /></svg>