<svg xmlns="http://www.w3.org/2000/svg" width="100%" height="100%" viewBox="0 0 1200 1200"><path fill="currentColor" d="M600 850C783.1 850 943.3 928.8 1030.3 1046.3L938.3 1089.8C867.4 1005.8 742.4 950 600 950 457.6 950 332.6 1005.8 261.8 1089.8L169.7 1046.2C256.8 928.7 416.9 850 600 850zM600 100A250-250 0 0 0 850 350V500A250-250 0 0 0 610.8 749.8L600 750A250-250 0 0 0 350 500V350A250-250 0 0 0 589.2 100.3L600 100zM600 200A150-150 0 0 1 450.3 341.2L450 350V500A150-150 0 0 1 749.8 508.8L750 500V350A150-150 0 0 1 600 200z" /></svg>