<svg xmlns="http://www.w3.org/2000/svg" width="100%" height="100%" viewBox="0 0 1200 1200"><path fill="currentColor" d="M600 700V1100H200A400 400 0 0 1 600 700zM600 650C434.3 650 300 515.8 300 350S434.3 50 600 50 900 184.3 900 350 765.8 650 600 650zM729.8 940.6A175.5 175.5 0 0 1 729.8 859.5L680.2 830.8 730.2 744.2 779.8 772.9A174.8 174.8 0 0 1 850 732.3V675H950V732.3C976.6 740.1 1000.6 754.3 1020.3 772.8L1069.9 744.2 1119.9 830.8 1070.3 859.5A175.5 175.5 0 0 1 1070.3 940.5L1119.9 969.2 1069.9 1055.8 1020.3 1027.1A174.8 174.8 0 0 1 950 1067.8V1125H850V1067.8A174.8 174.8 0 0 1 779.8 1027.1L730.2 1055.8 680.2 969.2 729.8 940.6zM900 850A50 50 0 1 0 900 950 50 50 0 0 0 900 850z" /></svg>