<svg xmlns="http://www.w3.org/2000/svg" width="100%" height="100%" viewBox="0 0 1200 1200"><path fill="currentColor" d="M600 700V800A300-300 0 0 1 300 1100H200A400-400 0 0 0 600 700zM600 650C434.3 650 300 515.8 300 350S434.3 50 600 50 900 184.3 900 350 765.8 650 600 650zM600 550C710.5 550 800 460.5 800 350S710.5 150 600 150 400 239.5 400 350 489.5 550 600 550zM1041.4 1053.5L900 1200 758.6 1053.6C680.5 972.7 680.5 841.6 758.6 760.7A195.2-195.2 0 0 0 1041.4 760.7C1119.5 841.5 1119.5 972.7 1041.4 1053.6zM969.5 984C1010.1 941.9 1010.1 872.2 969.5 830.1A95.2-95.2 0 0 1 830.5 830.1C789.8 872.2 789.8 941.9 830.5 984.1L900 1056 969.5 984z" /></svg>