<svg xmlns="http://www.w3.org/2000/svg" width="100%" height="100%" viewBox="0 0 1200 1200"><path fill="currentColor" d="M1077.1 324.9C1100 414 1100 600 1100 600S1100 786 1077.1 875.1C1064.4 924.3 1027.3 963.1 980.3 976.2 894.8 1000 600 1000 600 1000S305.4 1000 219.8 976.2C172.5 962.9 135.4 924.2 122.8 875.1 100 786 100 600 100 600S100 414 122.8 324.9C135.6 275.6 172.7 236.9 219.8 223.8 305.4 200 600 200 600 200S894.8 200 980.3 223.8C1027.5 237.1 1064.6 275.8 1077.1 324.9zM500 775L800 600 500 425V775z" /></svg>