<svg xmlns="http://www.w3.org/2000/svg" width="100%" height="100%" viewBox="-0.64 -0.64 33.28 33.28"><path fill="#3a4e55" d="M18.191 13.064H20.7v2.566h1.27a5.5 5.5 0 001.744-.292 4.462 4.462 0 00.848-.383 3.149 3.149 0 01-.589-1.623 3.427 3.427 0 01.616-2.416l.264-.3.314.253a4 4 0 011.575 2.531 3.837 3.837 0 012.913.271l.345.2-.181.354a3.629 3.629 0 01-3.648 1.74c-2.173 5.413-6.9 7.976-12.642 7.976A7.958 7.958 0 016.3 20.2l-.025-.043-.225-.457a7.28 7.28 0 01-.579-3.693l.035-.38h2.143v-2.563h2.51v-2.51h5.02v-2.51h3.011v5.02z"/><path fill="#d80000" d="M26.324 14.014a3.311 3.311 0 00-1.418-2.821 3.072 3.072 0 00.289 3.821 5.279 5.279 0 01-3.225 1.036H5.884a6.779 6.779 0 00.667 3.737l.183.335a6.2 6.2 0 00.379.569q.992.064 1.829.045a8.972 8.972 0 002.669-.389.193.193 0 11.126.365c-.09.031-.184.061-.281.088a8.4 8.4 0 01-1.845.3c.044 0-.046.007-.046.007l-.082.007a21.455 21.455 0 01-2.008-.006l-.01.007a7.882 7.882 0 006.063 2.41c5.56 0 10.276-2.465 12.365-8 1.482.152 2.906-.226 3.553-1.49a3.5 3.5 0 00-3.122-.022"/><path fill="#ea2828" d="M26.324 14.014a3.311 3.311 0 00-1.418-2.821 3.072 3.072 0 00.289 3.821 5.279 5.279 0 01-3.225 1.036H6.837a5.223 5.223 0 002.106 4.686 8.972 8.972 0 002.669-.389.193.193 0 11.126.365c-.09.031-.184.061-.281.088a8.83 8.83 0 01-1.894.314l-.019-.022c1.892.971 4.636.967 7.782-.241a21.867 21.867 0 009.1-6.889l-.1.048"/><path fill="#b70909" d="M5.914 17.724a6.431 6.431 0 00.637 2.061l.183.335a6.2 6.2 0 00.379.569q.992.064 1.829.045a8.972 8.972 0 002.669-.389.193.193 0 11.126.365c-.09.031-.184.061-.281.088a8.826 8.826 0 01-1.891.307h-.1c-.291.016-.6.026-.922.026-.351 0-.709-.007-1.1-.026a7.913 7.913 0 006.076 2.413c4.76 0 8.9-1.807 11.3-5.8z"/><path fill="#c60505" d="M6.981 17.724a4.832 4.832 0 001.961 3.01 8.972 8.972 0 002.669-.389.193.193 0 11.126.365c-.09.031-.184.061-.281.088a8.959 8.959 0 01-1.9.307c1.892.971 4.628.957 7.773-.252a20.544 20.544 0 005.377-3.13z"/><path fill="#ed2929" d="M12.4 13.664h.172v1.813H12.4zm-.33 0h.179v1.813h-.179zm-.33 0h.179v1.813h-.179zm-.33 0h.179v1.813h-.179zm-.33 0h.178v1.813h-.178zm-.323 0h.172v1.813h-.172zm-.181-.181h2.176v2.176h-2.174v-2.176zM14.91 11.154h.172v1.813h-.172zm-.33 0h.179v1.813h-.178v-1.813zm-.33 0h.179v1.813h-.178v-1.813zm-.33 0h.18v1.813h-.179v-1.813zm-.33 0h.179v1.813h-.179zm-.323 0h.172v1.813h-.172zm-.181-.181h2.176v2.176h-2.174v-2.177zM17.42 13.664h.172v1.813h-.172zm-.33 0h.179v1.813h-.179zm-.33 0h.179v1.813h-.179zm-.33 0h.179v1.813h-.179zm-.33 0h.179v1.813H16.1zm-.323 0h.172v1.813h-.172zm-.177-.181h2.176v2.176H15.6zM17.42 8.643h.172v1.813h-.172zm-.33 0h.179v1.813h-.179zm-.33 0h.179v1.813h-.179zm-.33 0h.179v1.813h-.179zm-.33 0h.179v1.813H16.1zm-.323 0h.172v1.813h-.172zm-.177-.181h2.176v2.176H15.6z"/><path fill="#d10000" d="M9.89 13.664h.172v1.813H9.89zm-.33 0h.179v1.813H9.56zm-.33 0h.179v1.813h-.178v-1.813zm-.33 0h.179v1.813H8.9v-1.813zm-.33 0h.179v1.813h-.178v-1.813zm-.323 0h.172v1.813h-.17v-1.813zm-.181-.181h2.175v2.176H8.067v-2.176zM12.4 11.154h.172v1.813H12.4zm-.33 0h.179v1.813h-.179zm-.33 0h.179v1.813h-.179zm-.33 0h.179v1.813h-.179zm-.33 0h.178v1.813h-.178zm-.323 0h.172v1.813h-.172zm-.181-.181h2.176v2.176h-2.174v-2.177zM17.42 11.154h.172v1.813h-.172zm-.33 0h.179v1.813h-.179zm-.33 0h.179v1.813h-.179zm-.33 0h.179v1.813h-.179zm-.33 0h.179v1.813H16.1zm-.323 0h.172v1.813h-.172zm-.181-.181h2.176v2.176H15.6v-2.177zM19.93 13.664h.17v1.813h-.17zm-.33 0h.178v1.813H19.6zm-.33 0h.179v1.813h-.179zm-.33 0h.179v1.813h-.179zm-.33 0h.179v1.813h-.179zm-.323 0h.172v1.813h-.172zm-.181-.181h2.176v2.176h-2.175v-2.176zM14.91 13.664h.172v1.813h-.172zm-.33 0h.179v1.813h-.178v-1.813zm-.33 0h.179v1.813h-.178v-1.813zm-.33 0h.18v1.813h-.179v-1.813zm-.33 0h.179v1.813h-.179zm-.323 0h.172v1.813h-.172zm-.181-.181h2.176v2.176h-2.174v-2.176z"/><path fill="#d5eef2" d="M12.617 19.185a.6.6 0 11-.6.6.6.6 0 01.6-.6"/><path fill="#3a4e55" d="M12.617 19.355a.431.431 0 01.156.029.175.175 0 10.241.236.43.43 0 11-.4-.265M2 17.941h27.92c-.608-.154-1.923-.362-1.707-1.159-1.1 1.279-3.771.9-4.444.267-.749 1.087-5.111.674-5.415-.173-.939 1.1-3.85 1.1-4.789 0-.3.847-4.666 1.26-5.415.173-.673.631-3.338 1.012-4.444-.267.217.8-1.1 1-1.707 1.159"/><path fill="#e0c1c1" d="M14.212 23.51a5.287 5.287 0 01-2.756-2.71 9.2 9.2 0 01-1.987.3q-.436.024-.917.025-.554 0-1.168-.033a7.942 7.942 0 006.145 2.43q.344 0 .683-.013"/><path fill="#efd5d5" d="M12.008 21.765a5.206 5.206 0 01-.552-.966 9.2 9.2 0 01-1.987.3 6.325 6.325 0 002.539.664"/></svg>