<svg xmlns="http://www.w3.org/2000/svg" width="100%" height="100%" viewBox="-0.64 -0.64 33.28 33.28"><path fill="#368832" d="M19.792 7.071h2.553v2.553H24.9V7.071h2.552v2.553H30v2.552h-2.55v2.551H30v2.553h-2.551v2.552H24.9v-2.55h-2.55v2.552h-2.557v-2.55H17.24v-2.559h2.553v-2.546H17.24V9.622h2.554zm2.553 7.658H24.9v-2.553h-2.555zM14.689 24.013a10.2 10.2 0 01-4.653.915 7.6 7.6 0 01-5.89-2.336A8.839 8.839 0 012 16.367a9.436 9.436 0 012.412-6.719 8.181 8.181 0 016.259-2.577 11.1 11.1 0 014.018.638v3.745a6.81 6.81 0 00-3.723-1.036 4.793 4.793 0 00-3.7 1.529 5.879 5.879 0 00-1.407 4.142 5.774 5.774 0 001.328 3.992 4.551 4.551 0 003.575 1.487 7.288 7.288 0 003.927-1.108z"/></svg>