<svg xmlns="http://www.w3.org/2000/svg" width="100%" height="100%" viewBox="-0.64 -0.64 33.28 33.28"><path fill="#9f4246" d="M20.929 2h-16.4v28h23.3V9zm5.114 26.35H6.409V3.65h13.406l6.333 6.333V28.35zM11.477 15.393c1.584 0 2.563-1.463 2.563-3.663 0-2.145-.8-3.443-2.4-3.443S9.068 9.75 9.068 11.95c0 2.15.803 3.443 2.409 3.443zm-1.243-3.663c0-1.562.429-2.453 1.32-2.453.649 0 1.045.55 1.221 1.474l-2.53 1.309a3.2 3.2 0 01-.011-.33zm1.331 2.67c-.638 0-1.045-.528-1.221-1.43l2.53-1.309v.286c0 1.565-.418 2.453-1.309 2.453zm10.27.847l.1-1.023h-1.65V8.21l-1.177.1v.8l-1.694.176.022.891 1.672-.044v4.092h-1.849v1.025zm-7.85 9.5l.1-1.023h-1.65V17.71l-1.177.1v.8l-1.694.176.022.891 1.672-.044v4.092H9.409v1.025zm5.442.143c1.584 0 2.563-1.463 2.563-3.663 0-2.145-.8-3.443-2.4-3.443s-2.574 1.463-2.574 3.663c.002 2.148.805 3.446 2.411 3.446zm-1.243-3.66c0-1.562.429-2.453 1.32-2.453.649 0 1.045.55 1.221 1.474l-2.53 1.309a3.2 3.2 0 01-.011-.33zm1.331 2.67c-.638 0-1.045-.528-1.221-1.43l2.53-1.309v.286c0 1.565-.418 2.453-1.309 2.453z"/></svg>