<svg xmlns="http://www.w3.org/2000/svg" width="100%" height="100%" viewBox="-0.64 -0.64 33.28 33.28"><path fill="#45d339" d="M16 30a14 14 0 1114-14 14 14 0 01-14 14zm0-26.82A12.82 12.82 0 1028.82 16 12.82 12.82 0 0016 3.18z"/><path fill="#45d339" d="M2.78 15.41h26.43v1.18H2.78zM16.32 10.47a44.78 44.78 0 01-11.9-1.55l.34-1.13c.11 0 11.28 3.32 22.43 0l.33 1.13a39.37 39.37 0 01-11.2 1.55zM4.79 23.91l-.34-1.13c11.5-3.42 22.63-.14 23.1 0l-.34 1.13c-.11-.04-11.27-3.32-22.42 0z"/><path fill="#45d339" d="M11.47 28.76a35.45 35.45 0 01-.74-25.71l1.08.46a34.23 34.23 0 00.74 24.79zM20.44 28.76l-1.08-.46a34.23 34.23 0 00.74-24.78l1.08-.46a35.46 35.46 0 01-.74 25.7zM15.41 2.78h1.18V29.7h-1.18z"/></svg>