<svg xmlns="http://www.w3.org/2000/svg" width="100%" height="100%" viewBox="-0.64 -0.64 33.28 33.28"><rect width="28" height="28" x="2" y="2" fill="#f08705" rx="1.12"/><path fill="#df6c0c" fill-rule="evenodd" d="M16.861 9.168l3.02-3.187L30 16.094V28.88A1.119 1.119 0 0128.88 30H11.316l-5.385-5.407z"/><path fill="#fff" d="M25.24 17.96h-3.294l-3.071-5.32h.2a1.119 1.119 0 001.12-1.12V6.76a1.119 1.119 0 00-1.12-1.12H12.92a1.119 1.119 0 00-1.12 1.12v4.76a1.119 1.119 0 001.12 1.12h.205l-3.071 5.32H6.76a1.119 1.119 0 00-1.12 1.12v4.76a1.119 1.119 0 001.12 1.12h6.16a1.119 1.119 0 001.12-1.12v-4.76a1.119 1.119 0 00-1.12-1.12h-.927l3.072-5.32h1.87l3.071 5.32h-.926a1.119 1.119 0 00-1.12 1.12v4.76a1.119 1.119 0 001.12 1.12h6.16a1.119 1.119 0 001.12-1.12v-4.76a1.119 1.119 0 00-1.12-1.12z"/></svg>