<svg xmlns="http://www.w3.org/2000/svg" width="100%" height="100%" viewBox="-0.64 -0.64 33.28 33.28"><path fill="#f2ebda" d="M24.053 7.707a2.306 2.306 0 012.314-2.3H9.4a2.307 2.307 0 00-2.315 2.3v18.885h14.653a2.307 2.307 0 002.315-2.3z"/><path fill="#e2d9c5" d="M28.685 7.844h-4.632v16.449a2.307 2.307 0 01-2.315 2.3H4.724a2.345 2.345 0 01-2.314-2.437h16.963a2.47 2.47 0 00.942 1.978 2.291 2.291 0 00.928-1.841V7.707a2.306 2.306 0 012.314-2.3h2.814a2.344 2.344 0 012.314 2.437z"/><path fill="#dda064" d="M17.816 19.8a11.156 11.156 0 011.917-4.122c2.21-2.507 6.642-3.244 9.857-3.162a28.516 28.516 0 00-2.9 2.752 15.113 15.113 0 01-4.821 3.22 25.123 25.123 0 00-4.053 1.312z"/><path fill="#b57947" d="M17.816 19.8c.476-1.472 8.559-7.366 11.774-7.284a28.516 28.516 0 00-2.9 2.752 15.113 15.113 0 01-4.821 3.22 25.123 25.123 0 00-4.053 1.312z"/><path d="M22.1 9.579a.409.409 0 00-.41-.408h-8.74a.408.408 0 100 .816h8.737a.409.409 0 00.413-.408zm-12.444.408h1.384a.408.408 0 100-.816H9.656a.408.408 0 100 .816zm0 11.681a.408.408 0 100 .816h4.293a.408.408 0 100-.816zm6.426-3.758a.409.409 0 00-.411-.407H9.656a.408.408 0 100 .815h6.015a.41.41 0 00.411-.408zm2.928-4.165a.409.409 0 00-.411-.408H9.656a.408.408 0 100 .815H18.6a.409.409 0 00.41-.407zm5.043 5.2a.41.41 0 00-.411.408v4.94a1.9 1.9 0 01-1.9 1.892h-.051a1.943 1.943 0 01-1.9-2.033.408.408 0 00-.41-.4H7.5V7.707a1.9 1.9 0 011.9-1.892h15.019l-.035.038-.043.046-.043.049a.966.966 0 00-.041.049l-.041.051-.039.051-.038.053-.037.052-.036.055-.034.055-.033.056-.032.057-.03.058-.03.058-.027.057-.026.06-.025.061-.024.061-.021.063-.021.062-.019.066-.017.061-.016.069-.014.061-.013.072-.011.06-.01.078c-.003.026 0 .038-.007.056s0 .059-.007.088V11.323a.411.411 0 00.821 0V8.251h4.222a.409.409 0 00.292-.121.4.4 0 00.118-.29A2.743 2.743 0 0026.367 5H9.4a2.718 2.718 0 00-2.72 2.707v16.042H2.41a.41.41 0 00-.41.411A2.742 2.742 0 004.724 27h17.014a2.719 2.719 0 002.725-2.707v-4.94a.409.409 0 00-.41-.408zm.431-11.518l.006-.037.01-.052.008-.039.011-.048.011-.041.013-.045.013-.041.015-.043.015-.042L24.6 7l.018-.042.016-.037.021-.043.016-.032.029-.046.01-.017a2.053 2.053 0 01.125-.193l.045-.059.008-.009.046-.054.009-.01.049-.053.008-.011.053-.053h.006l.058-.053a1.906 1.906 0 01.9-.433l.085-.013c.027 0 .054-.007.082-.009h.016l.076-.005h.092a1.9 1.9 0 011.863 1.621h-3.748zM4.724 26.185a1.9 1.9 0 01-1.864-1.621h16.131c.006.042.012.084.02.126l.008.041.016.082.011.048c.006.025.011.049.018.073l.014.05.019.069.016.051.022.065.018.051.025.064.02.048.028.064.02.046.032.066.021.041.041.076.015.028.061.1.015.023c.016.026.032.051.049.075l.024.034.045.061.028.036.044.055.03.036.046.052.032.035.023.025zM30 12.514V12.5a.369.369 0 00-.02-.11v-.006a.483.483 0 00-.023-.052v-.006a.494.494 0 00-.027-.042l-.006-.009-.035-.04-.009-.008a.276.276 0 00-.037-.031.331.331 0 00-.047-.029l-.009-.005a.461.461 0 00-.051-.022.341.341 0 00-.055-.014h-.012a.355.355 0 00-.057-.006c-3.434-.088-7.912.733-10.176 3.3a10.578 10.578 0 00-1.89 3.928l-.109.338v.014l-.693 2.447a.406.406 0 00.284.5.387.387 0 00.111.016.411.411 0 00.395-.3l.643-2.269a12.791 12.791 0 012.275-.769c.444-.12.947-.256 1.556-.442a15.343 15.343 0 005-3.332 27.951 27.951 0 012.859-2.714.378.378 0 00.041-.039.346.346 0 00.034-.044l.006-.009a.4.4 0 00.046-.1v-.01a.486.486 0 00.006-.067.234.234 0 000-.038zm-9.959 3.433a8.73 8.73 0 014.352-2.427 16.519 16.519 0 011.634-.352 32.007 32.007 0 00-3.579 2.069 32.733 32.733 0 00-3.565 2.708 6.672 6.672 0 011.158-1.998zm6.349-.955a14.82 14.82 0 01-4.64 3.108c-.6.182-1.092.316-1.53.434-.4.107-.756.2-1.112.317.159-.152.346-.322.566-.512a32.725 32.725 0 013.23-2.423 22.384 22.384 0 015.322-2.758 30.16 30.16 0 00-1.836 1.834z"/></svg>