<svg xmlns="http://www.w3.org/2000/svg" width="100%" height="100%" viewBox="-0.64 -0.64 33.28 33.28"><defs><radialGradient id="a" cx="-16.114" cy="20.532" r="18.384" gradientTransform="translate(26.52 -9.307)" gradientUnits="userSpaceOnUse"><stop offset="0" stop-color="#fff"/><stop offset=".5" stop-color="#4c6b96"/><stop offset="1" stop-color="#231f20"/></radialGradient></defs><ellipse cx="16" cy="16" fill="url(#a)" rx="14" ry="7.365"/><ellipse cx="16" cy="16" fill="#6280b6" rx="13.453" ry="6.818"/><path fill="#fff" d="M18.725 18.2l.667-3.434a1.752 1.752 0 00-.372-1.719 2.929 2.929 0 00-2-.525h-1.153l.331-1.7a.219.219 0 00-.215-.26h-1.6a.219.219 0 00-.215.177l-.709 3.646a2.051 2.051 0 00-.477-1.054 2.783 2.783 0 00-2.2-.807H7.7a.219.219 0 00-.215.177l-1.434 7.38a.219.219 0 00.215.26h1.603a.219.219 0 00.215-.177l.347-1.785h1.2a5.167 5.167 0 001.568-.2 3.068 3.068 0 001.15-.689 3.538 3.538 0 00.68-.844l-.287 1.475a.219.219 0 00.215.26h1.6a.219.219 0 00.215-.177l.787-4.051h1.094c.466 0 .6.093.64.133s.1.165.025.569l-.635 3.265a.219.219 0 00.215.26h1.62a.219.219 0 00.207-.18zm-7.395-2.834a1.749 1.749 0 01-.561 1.092 2.171 2.171 0 01-1.315.321h-.712l.515-2.651h.921c.677 0 .949.145 1.059.266a1.181 1.181 0 01.093.972zM25.546 13.332a2.783 2.783 0 00-2.2-.807h-3.091a.219.219 0 00-.215.177l-1.434 7.38a.219.219 0 00.215.26h1.608a.219.219 0 00.215-.177l.347-1.785h1.2a5.167 5.167 0 001.568-.2 3.068 3.068 0 001.15-.689 3.425 3.425 0 001.076-1.927 2.512 2.512 0 00-.439-2.232zm-1.667 2.034a1.749 1.749 0 01-.561 1.092 2.171 2.171 0 01-1.318.32h-.71l.515-2.651h.921c.677 0 .949.145 1.059.266a1.181 1.181 0 01.094.973z"/><path fill="#000004" d="M10.178 13.908a1.645 1.645 0 011.221.338 1.34 1.34 0 01.145 1.161 1.945 1.945 0 01-.642 1.223 2.361 2.361 0 01-1.448.37h-.978l.6-3.089zm-3.917 6.216h1.608l.381-1.962h1.377a4.931 4.931 0 001.5-.191 2.84 2.84 0 001.07-.642 3.207 3.207 0 001.01-1.808 2.3 2.3 0 00-.385-2.044 2.568 2.568 0 00-2.035-.732H7.7zM14.387 10.782h1.6l-.387 1.962h1.421a2.767 2.767 0 011.85.468 1.548 1.548 0 01.305 1.516l-.667 3.434H16.89l.635-3.265a.886.886 0 00-.08-.76 1.121 1.121 0 00-.8-.2H15.37l-.822 4.228h-1.6zM22.727 13.908a1.645 1.645 0 011.221.338 1.34 1.34 0 01.145 1.161 1.945 1.945 0 01-.642 1.223A2.361 2.361 0 0122 17h-.978l.6-3.089zm-3.917 6.216h1.608l.381-1.962h1.377a4.931 4.931 0 001.5-.191 2.84 2.84 0 001.07-.642 3.207 3.207 0 001.01-1.808 2.3 2.3 0 00-.385-2.044 2.568 2.568 0 00-2.035-.732h-3.092z"/></svg>