<svg xmlns="http://www.w3.org/2000/svg" width="100%" height="100%" viewBox="-0.64 -0.64 33.28 33.28"><defs><linearGradient id="b" x1="-403.546" x2="-403.376" y1="-337.031" y2="-337.031" gradientTransform="scale(180.004 -180.004) rotate(57.433 -509.183 199.746)" gradientUnits="userSpaceOnUse"><stop offset="0" stop-color="#fff"/><stop offset="1" stop-color="#e6e6e6"/></linearGradient><linearGradient id="a" x1="-403.546" x2="-403.376" y1="-337.033" y2="-337.033" gradientTransform="scale(180.004 -180.004) rotate(57.433 -509.183 199.746)" gradientUnits="userSpaceOnUse"><stop offset="0" stop-color="#949494"/><stop offset="1" stop-color="#8c8c8c"/></linearGradient><linearGradient id="c" x1="-403.546" x2="-403.376" y1="-336.987" y2="-336.987" xlink:href="#a"/><linearGradient id="d" x1="-405.673" x2="-405.503" y1="-336.64" y2="-336.64" gradientTransform="scale(-78.102 78.102) rotate(-45.304 200.718 -653.812)" gradientUnits="userSpaceOnUse"><stop offset="0" stop-color="#b3b3b3"/><stop offset="1" stop-color="#f2f2f2"/></linearGradient></defs><path fill="#949494" d="M24.037 2.072h-.003l5.564 5.801v22.055H8.814V30H29.67V7.945l-5.633-5.873"/><path fill="url(#b)" d="M23.893 7.945V2.072l5.633 5.873h-5.633M23.965 2H8.742v1.432h13.719v6.832H8.742v19.664H29.6V7.873l-5.564-5.8L23.965 2"/><path fill="url(#a)" d="M23.893 2.072v5.873h5.633l-5.633-5.873"/><path fill="#fff" d="M23.965 2v5.873h5.633L23.965 2z"/><path fill="#949494" d="M8.742 3.432H2.384v6.832h6.358V3.432"/><path fill="url(#c)" d="M22.461 3.432H8.742v6.832h13.719V3.432"/><path fill="#030100" d="M2.33 3.378h20.077v6.832H2.33z"/><path fill="#fe7814" d="M10.003 7.309H8.779v.834h1.371v.995H7.863V4.605h2.216v.989h-1.3v.733h1.224v.982zM11.163 4.666a5.451 5.451 0 011.129-.094 1.432 1.432 0 011.078.356 1.557 1.557 0 01.39 1.1 1.767 1.767 0 01-.329 1.116 1.422 1.422 0 01-1.139.471 1.893 1.893 0 01-.223-.014v1.54h-.906zm.906 2a1.463 1.463 0 00.207.014.564.564 0 00.582-.632.5.5 0 00-.516-.565 1.06 1.06 0 00-.273.027zM14.777 7.928a1.676 1.676 0 00.886.283c.314 0 .466-.141.466-.37s-.152-.35-.536-.525a1.448 1.448 0 01-.957-1.365A1.321 1.321 0 0116 4.531a1.748 1.748 0 01.926.235l-.192.968a1.431 1.431 0 00-.744-.215c-.278 0-.43.135-.43.336 0 .229.182.323.612.538a1.4 1.4 0 01.891 1.365 1.357 1.357 0 01-1.458 1.453 1.924 1.924 0 01-1-.283z"/><path fill="url(#d)" d="M12.608 17.582s5.392-4.282 9.559-.15.18 9.739.18 9.739z"/><path fill="#666" d="M22.42 27.223l-.147-.1c.039-.055 3.892-5.59-.17-9.623s-9.387.114-9.44.156l-.112-.141c.055-.043 5.5-4.287 9.678-.143s.231 9.795.191 9.851z"/><path fill="#999" d="M17.863 13.255l.127-.127 8.406 8.375-.127.127z"/><path fill="#fff" d="M21.792 17.058h.749v.749h-.749z"/><path fill="gray" d="M22.692 17.958h-1.051v-1.051h1.051zm-.749-.3h.447v-.447h-.447z"/><path fill="#fff" d="M12.233 17.208h.749v.749h-.749z"/><path fill="gray" d="M13.133 18.108h-1.051v-1.051h1.051zm-.749-.3h.447v-.447h-.447z"/><path fill="#fff" d="M21.972 26.797h.749v.749h-.749z"/><path fill="gray" d="M22.872 27.7h-1.051v-1.054h1.051zm-.749-.3h.447v-.447h-.447z"/><path fill="#999" d="M17.552 12.818h.749v.749h-.749zM25.958 21.193h.749v.749h-.749z"/></svg>