<svg xmlns="http://www.w3.org/2000/svg" width="100%" height="100%" viewBox="-0.64 -0.64 33.28 33.28"><path fill="#e0225c" d="M25.026 5.73A12.66 12.66 0 0016.01 2 12.8 12.8 0 003.246 14.77v2.162l1.68-1.145a6.76 6.76 0 015.049-1.08 6.547 6.547 0 013.331 1.67 9.012 9.012 0 01.753-1.349c.12-.177.248-.347.379-.513a8.718 8.718 0 00-4.083-1.915 9.006 9.006 0 00-1.607-.145 8.809 8.809 0 00-3.219.605 10.646 10.646 0 0110.49-8.915 10.6 10.6 0 0110.459 8.894 8.931 8.931 0 00-3.23-.612h-.156c-.114 0-.228 0-.339.011-.195.01-.388.028-.58.05-.057.006-.113.015-.17.023a9.438 9.438 0 00-.41.064l-.179.035q-.207.042-.41.093l-.146.037q-.256.069-.507.153l-.03.01a8.725 8.725 0 00-1.1.463l-.029.015q-.249.126-.49.269l-.04.024a8.581 8.581 0 00-2.223 1.919l-.078.1c-.137.172-.271.348-.4.532a7.77 7.77 0 00-.3.478l-.064.111a9.351 9.351 0 00-.249.462l-.013.026a8.85 8.85 0 00-.462 1.124 8.772 8.772 0 00-.449 2.922v.119c0 .077.006.155.01.233 0 .062.007.123.012.185s.01.131.017.2a11.088 11.088 0 00.112.793 8.812 8.812 0 003.625 5.607l.244.156a8.828 8.828 0 003.611 1.341l.174.023 1.293-2.075-.465-.013a6.673 6.673 0 01-.222-13.331l.222-.009a6.837 6.837 0 014.019 1.2l1.673 1.138v-2.151a12.665 12.665 0 00-3.723-9.034"/></svg>