<svg xmlns="http://www.w3.org/2000/svg" width="100%" height="100%" viewBox="-0.64 -0.64 33.28 33.28"><defs><linearGradient id="a" x1=".865" x2=".865" y1="-481.202" y2="-471.891" gradientTransform="translate(19.712 502.891)" gradientUnits="userSpaceOnUse"><stop offset=".15" stop-color="#2a4f84"/><stop offset=".388" stop-color="#294e82"/><stop offset="1" stop-color="#172e4e"/></linearGradient></defs><path fill="#5580bf" d="M27.5 5.5h-9.3l-2.1 4.2H4.4v16.8h25.2v-21zm0 4.2h-8.2l1.1-2.1h7.1z"/><path fill="url(#a)" d="M29.919 29.2a1.8 1.8 0 01-1.8 1.8H13.03a1.8 1.8 0 01-1.8-1.8v-5.715a1.8 1.8 0 011.8-1.8h15.093a1.8 1.8 0 011.8 1.8z"/><path fill="#f6f6f6" d="M26.762 26.222a1.479 1.479 0 011.183 1.418 1.268 1.268 0 01-.49 1.048 2.2 2.2 0 01-1.4.419 3.419 3.419 0 01-1.681-.463 1.489 1.489 0 01.12-.5 1.372 1.372 0 01.262-.432 2.774 2.774 0 001.236.37.724.724 0 00.387-.082.254.254 0 00.134-.224q0-.265-.409-.4l-.49-.185q-1.114-.405-1.114-1.322a1.315 1.315 0 01.467-1.062 1.94 1.94 0 011.258-.486 3.82 3.82 0 01.863.11 3.416 3.416 0 01.774.354 1.251 1.251 0 01-.1.542.915.915 0 01-.285.419 3.2 3.2 0 00-1.245-.335.408.408 0 00-.271.079.254.254 0 00-.093.2q0 .211.338.335l.552.194zM22.822 26.222A1.479 1.479 0 0124 27.64a1.269 1.269 0 01-.489 1.048 2.2 2.2 0 01-1.4.419 3.42 3.42 0 01-1.681-.463 1.486 1.486 0 01.12-.5 1.366 1.366 0 01.262-.432 2.777 2.777 0 001.237.37.722.722 0 00.39-.082.255.255 0 00.134-.224q0-.265-.409-.4l-.489-.185q-1.112-.405-1.112-1.321a1.314 1.314 0 01.467-1.062 1.939 1.939 0 011.258-.486 3.816 3.816 0 01.863.11 3.414 3.414 0 01.774.354 1.251 1.251 0 01-.1.542.915.915 0 01-.285.419 3.2 3.2 0 00-1.246-.335.407.407 0 00-.271.079.254.254 0 00-.093.2q0 .211.338.335l.552.194zM19.948 26.285a2.117 2.117 0 00-.129-.749 1.679 1.679 0 00-.369-.59 1.71 1.71 0 00-.582-.388 2.053 2.053 0 00-.769-.235 2.1 2.1 0 00-.885.271 1.692 1.692 0 00-.622.484 2.073 2.073 0 00-.365.727 3.3 3.3 0 00-.12.912 4.26 4.26 0 00.1.943 1.971 1.971 0 00.333.749 1.58 1.58 0 00.614.493 2.2 2.2 0 00.938.208 2.964 2.964 0 001.743-.534 1.4 1.4 0 00-.363-.811 4.641 4.641 0 01-.642.2 2.406 2.406 0 01-.492.059.762.762 0 01-.611-.218.89.89 0 01-.2-.578h2.313a3.335 3.335 0 00.108-.943zm-2.436.061a1.825 1.825 0 01.163-.753.474.474 0 01.419-.2.5.5 0 01.437.211 1.312 1.312 0 01.146.642v.1h-1.165z"/><path fill="#f6f6f6" stroke="#404040" stroke-miterlimit="10" stroke-width=".25" d="M30.385 26.932a1.2 1.2 0 00-.4.949v1.539a1.358 1.358 0 01-.512 1.168 2.1 2.1 0 01-1.238.412h-.28v-.77a.93.93 0 00.446-.251 1.027 1.027 0 00.314-.785v-1.242a1.909 1.909 0 01.193-.992 1.874 1.874 0 01.9-.628 1.9 1.9 0 01-.993-.884 2.217 2.217 0 01-.1-.874v-1.139a1.094 1.094 0 00-.275-.79.864.864 0 00-.486-.236v-.72h.7a1.257 1.257 0 01.768.331 1.5 1.5 0 01.505.757 1.748 1.748 0 01.064.526v1.317a1.384 1.384 0 00.372 1.037 1.585 1.585 0 00.64.359v.6a1.457 1.457 0 00-.615.32zM12.7 21.689h-.251a1.254 1.254 0 00-.768.331 1.283 1.283 0 00-.5.757 2.648 2.648 0 00-.029.526v1.317a1.4 1.4 0 01-.408 1.037 2.135 2.135 0 01-.736.359v.6a1.914 1.914 0 01.71.32 1.229 1.229 0 01.433.949v1.535a1.336 1.336 0 00.477 1.168A2.1 2.1 0 0012.86 31h.316v-.77a1.1 1.1 0 01-.482-.251 1.016 1.016 0 01-.278-.785v-1.242a1.887 1.887 0 00-.229-.992 1.872 1.872 0 00-.9-.628 1.9 1.9 0 00.993-.884 2.143 2.143 0 00.137-.874v-1.139a1.1 1.1 0 01.239-.79.985.985 0 01.431-.2h.321v-.754H12.7z"/><path fill="#f6f6f6" d="M15.653 27.932h-.24c-.261 0-.359-.137-.359-.413v-5.07a.942.942 0 00-.2-.642c-.113-.123-.308-.122-.587-.122h-.606v6.079a1.406 1.406 0 00.264.93 1.081 1.081 0 00.858.295 5.894 5.894 0 00.952-.088 1.672 1.672 0 00.027-.382 1.709 1.709 0 00-.107-.587z"/></svg>