<svg xmlns="http://www.w3.org/2000/svg" width="100%" height="100%" viewBox="-0.64 -0.64 33.28 33.28"><defs><linearGradient id="a" x1="16" x2="16" y1="-182.072" y2="-209.928" gradientTransform="matrix(1 0 0 -1 0 -180)" gradientUnits="userSpaceOnUse"><stop offset="0" stop-color="#fff"/><stop offset="1" stop-color="#fff" stop-opacity="0"/></linearGradient></defs><path fill="#52218a" d="M6.045 23.991a1.166 1.166 0 01-1.208.191L2.718 23.3A1.168 1.168 0 012 22.222V9.778A1.165 1.165 0 012.718 8.7l2.119-.883a1.169 1.169 0 011.208.191l.476.408a.646.646 0 00-1.021.526v14.116a.646.646 0 001.021.525z"/><path fill="#6c33af" d="M2.718 23.3A1.169 1.169 0 012 22.222v-.1a.674.674 0 001.174.452L21.25 2.583a1.743 1.743 0 011.99-.338l5.769 2.778A1.749 1.749 0 0130 6.6v.067a1.1 1.1 0 00-1.8-.854L6.521 23.583l-.476.408a1.166 1.166 0 01-1.208.191z"/><path fill="#854cc7" d="M2.718 8.7A1.168 1.168 0 002 9.778v.1a.674.674 0 011.174-.452l18.076 19.99a1.743 1.743 0 001.99.338l5.769-2.778A1.747 1.747 0 0030 25.4v-.068a1.1 1.1 0 01-1.8.855L6.521 8.417l-.476-.408a1.166 1.166 0 00-1.208-.191z"/><path fill="#b179f1" d="M23.24 29.755a1.743 1.743 0 01-1.99-.338 1.025 1.025 0 001.75-.725V3.308a1.025 1.025 0 00-1.75-.725 1.743 1.743 0 011.99-.338l5.768 2.774A1.749 1.749 0 0130 6.6v18.805a1.751 1.751 0 01-.991 1.577z"/><path fill="url(#a)" fill-rule="evenodd" d="M22.093 29.883a1.74 1.74 0 001.147-.128l5.768-2.774A1.749 1.749 0 0030 25.4V6.6a1.75 1.75 0 00-.992-1.577L23.24 2.245a1.742 1.742 0 00-1.99.339l-9.3 10.284-5.429-4.452-.476-.408a1.168 1.168 0 00-1.207-.191L2.719 8.7A1.167 1.167 0 002 9.689v12.62a1.167 1.167 0 00.715.989l2.119.883a1.226 1.226 0 00.155.052 1.165 1.165 0 001.052-.243l.476-.408 5.43-4.452 9.3 10.285a1.733 1.733 0 00.846.468zM23 10.072L15.77 16 23 21.927zM5.5 12l3.619 4L5.5 20z" opacity=".25"/></svg>