<svg xmlns="http://www.w3.org/2000/svg" width="100%" height="100%" viewBox="-0.64 -0.64 33.28 33.28"><defs><radialGradient id="b" cx="1341.25" cy="-3396.866" r="18.299" gradientTransform="translate(-1327.077 3405.935)" gradientUnits="userSpaceOnUse"><stop offset="0" stop-color="#fff"/><stop offset=".181" stop-color="#fbfbfb"/><stop offset=".365" stop-color="#efeff0"/><stop offset=".552" stop-color="#dadbdc"/><stop offset=".738" stop-color="#bebfc2"/><stop offset=".824" stop-color="#aeb0b3"/></radialGradient><radialGradient id="c" cx="6.678" cy="84.74" r="15.554" gradientTransform="matrix(1.072 0 0 1.166 -1.884 -86.154)" gradientUnits="userSpaceOnUse"><stop offset="0" stop-color="#fafdff"/><stop offset=".079" stop-color="#eef5fa"/><stop offset=".22" stop-color="#cfdfec"/><stop offset=".407" stop-color="#9dbbd5"/><stop offset=".631" stop-color="#588ab5"/><stop offset=".745" stop-color="#326fa4"/><stop offset=".799" stop-color="#2b6698"/><stop offset=".897" stop-color="#174e78"/><stop offset=".994" stop-color="#003152"/></radialGradient><radialGradient id="d" cx="11.241" cy="-9.897" r="16.594" gradientTransform="matrix(1 0 0 1.062 0 22.631)" gradientUnits="userSpaceOnUse"><stop offset="0" stop-color="#ffd540"/><stop offset=".667" stop-color="#ec1c24"/><stop offset=".994" stop-color="#760000"/></radialGradient><radialGradient id="a" cx="12.286" cy="26.127" r="2.083" gradientUnits="userSpaceOnUse"><stop offset="0" stop-color="#dddfe0"/><stop offset=".174" stop-color="#d9dbdc"/><stop offset=".351" stop-color="#cdcfd0"/><stop offset=".531" stop-color="#b8babb"/><stop offset=".711" stop-color="#9c9e9f"/><stop offset=".891" stop-color="#78797b"/><stop offset="1" stop-color="#5e5f61"/></radialGradient><radialGradient id="e" cx="19.064" cy="26.127" r="2.083" xlink:href="#a"/><radialGradient id="f" cx="15.434" cy="16.191" r="2.687" gradientTransform="translate(0 .461)" xlink:href="#a"/></defs><g style="isolation:isolate"><circle cx="16" cy="16" r="14" fill="url(#b)" transform="rotate(-42.265 16 16)"/><path fill="url(#c)" d="M19.938 6.309a9.785 9.785 0 00-6.5-2.339c-4.874 0-9.664 3.73-10.033 10.991-.4 7.8 4.75 12.862 12 12.862 10.733 0 16.672-9.78 10.027-20.388 4.671 10.6-.527 17.279-7.236 17.279-5.441 0-9.61-3.651-9.61-10.345-.004-9.66 7.237-10.33 11.352-8.06z"/><path fill="url(#d)" d="M22.7 10.415c-.293-.94-.645-2.788.634-3.86a3.729 3.729 0 00-3.844 1.534A9.165 9.165 0 0012 8.1a3.729 3.729 0 00-3.848-1.545c1.309 1.1.91 3.005.614 3.923A10.517 10.517 0 006.1 17.524c0 2.174 1.4 4.645 1.675 7.955l1.768-1.532a11.743 11.743 0 006.212 1.433 11.741 11.741 0 006.212-1.433l1.769 1.532c.28-3.31 1.675-5.781 1.675-7.955a10.512 10.512 0 00-2.711-7.109z"/><path fill="url(#a)" d="M10.722 27.867a1.621 1.621 0 113.24 0v.053a2.234 2.234 0 10-3.228.126 1.188 1.188 0 01-.012-.179z"/><path fill="url(#e)" d="M20.629 27.867a1.621 1.621 0 10-3.24 0v.053a2.234 2.234 0 113.228.126 1.678 1.678 0 00.012-.179z"/><g style="mix-blend-mode:multiply" fill="#231f20" opacity=".53"><path d="M8.346 18.4c-.132.667-.971.877-.971.877a1.359 1.359 0 01-.566-1.177 2.929 2.929 0 00.443 1.793A2.927 2.927 0 008.346 18.4zM10.008 18.737c-.132.667-.972.877-.972.877a1.36 1.36 0 01-.566-1.182 2.929 2.929 0 00.444 1.793 2.926 2.926 0 001.094-1.488zM8.833 20.249c-.132.667-.971.877-.971.877a1.359 1.359 0 01-.562-1.182 2.929 2.929 0 00.443 1.793 2.925 2.925 0 001.09-1.488zM10.5 20.583c-.132.667-.971.877-.971.877a1.36 1.36 0 01-.566-1.182 2.929 2.929 0 00.437 1.794 2.927 2.927 0 001.1-1.489zM9.328 22.121c-.132.667-.972.877-.972.877a1.36 1.36 0 01-.565-1.182 2.929 2.929 0 00.443 1.793 2.926 2.926 0 001.094-1.488zM11.664 19.07c-.132.667-.972.877-.972.877a1.359 1.359 0 01-.565-1.182 2.93 2.93 0 00.443 1.793 2.927 2.927 0 001.094-1.488z"/></g><g style="mix-blend-mode:multiply" fill="#231f20" opacity=".53"><path d="M23.157 18.4c.132.667.971.877.971.877a1.359 1.359 0 00.566-1.182 2.93 2.93 0 01-.443 1.793 2.927 2.927 0 01-1.094-1.488zM21.495 18.737c.132.667.972.877.972.877a1.36 1.36 0 00.565-1.182 2.931 2.931 0 01-.444 1.793 2.926 2.926 0 01-1.093-1.488zM22.669 20.249c.132.667.971.877.971.877a1.36 1.36 0 00.566-1.182 2.929 2.929 0 01-.443 1.793 2.926 2.926 0 01-1.094-1.488zM21.008 20.583c.132.667.971.877.971.877a1.359 1.359 0 00.565-1.182 2.928 2.928 0 01-.443 1.793 2.927 2.927 0 01-1.093-1.488zM22.175 22.121c.132.667.972.877.972.877a1.36 1.36 0 00.565-1.182 2.928 2.928 0 01-.444 1.793 2.927 2.927 0 01-1.093-1.488zM19.838 19.07c.132.667.972.877.972.877a1.359 1.359 0 00.565-1.182 2.928 2.928 0 01-.443 1.793 2.928 2.928 0 01-1.094-1.488z"/></g><circle cx="11.339" cy="14.074" r="3.816" fill="#fff"/><circle cx="12.13" cy="14.446" r="1.861" fill="#bdbfc1"/><circle cx="12.13" cy="14.446" r="1.191" fill="#231f20"/><circle cx="11.603" cy="14.027" r=".357" fill="#fff"/><circle cx="20.112" cy="14.074" r="3.816" fill="#fff"/><circle cx="20.903" cy="14.446" r="1.861" fill="#bdbfc1"/><circle cx="20.903" cy="14.446" r="1.191" fill="#231f20"/><circle cx="20.375" cy="14.027" r=".357" fill="#fff"/><path fill="url(#f)" d="M15.706 21.52c0-1.412 2.157-3.413 2.157-4.887a2.157 2.157 0 00-4.313 0c0 1.474 2.156 3.475 2.156 4.887z"/></g></svg>