<svg xmlns="http://www.w3.org/2000/svg" width="100%" height="100%" viewBox="-0.64 -0.64 33.28 33.28"><path fill="#eaeaea" d="M2.571 2.571h26.812v26.813H2.571z"/><path fill="#0303fe" d="M5.032 29.691a.5.5 0 01-.367-.838L18.65 13.7a.448.448 0 01.376-.161.5.5 0 01.37.173l4.287 4.976 5.348-6.095a.5.5 0 11.752.659l-5.728 6.527a.5.5 0 01-.376.17.5.5 0 01-.377-.174l-4.3-4.985L5.4 29.53a.5.5 0 01-.368.161z"/><path fill="#03fe03" d="M6.321 21.577a.5.5 0 01-.38-.177l-3.69-4.344a.5.5 0 01.763-.648l3.309 3.9 7.654-8.952a.5.5 0 01.378-.175.5.5 0 01.378.172l1.588 1.832L24.24 2.467a.5.5 0 01.805.595l-8.288 11.217a.5.5 0 01-.383.2.474.474 0 01-.4-.171l-1.614-1.863L6.7 21.4a.5.5 0 01-.379.177z"/><path fill="#fd0303" d="M29.407 28.839a.5.5 0 01-.377-.172l-7.322-8.407-4.978 5.678a.5.5 0 01-.376.169.5.5 0 01-.376-.172L2.259 10.092a.5.5 0 11.756-.654l13.342 15.409 4.976-5.677a.5.5 0 01.376-.17.5.5 0 01.376.172l7.7 8.839a.5.5 0 01-.377.828z"/><path d="M29 3v26H3V3h26m1-1H2v28h28V2z"/></svg>