<svg xmlns="http://www.w3.org/2000/svg" width="100%" height="100%" viewBox="-0.64 -0.64 33.28 33.28"><path style="isolation:isolate" fill="#008f90" d="M16.597 2L8.252 6.378l-.371 2.704.014 18.365L16.419 30" opacity=".75"/><path fill="#00393a" d="M7.895 11.896v3.033l5.435 2.746 3.157 2.031.043-7.817-8.635.007z"/><path fill="#008f90" d="M16.53 11.889l-.043 7.817 6.904-2.663.755-5.161-7.616.007z"/><path fill="#004748" d="M8.225 6.378l-.371 2.691 8.702-.605L16.597 2 8.225 6.378z"/><path fill="#009b9d" d="M22.375 3.222L16.597 2l-.041 6.464 7.549-1.276-1.73-3.966z"/><path style="isolation:isolate" fill="#002526" d="M8.252 6.378l-.371 2.704.014 18.365 8.647-15.551-8.29-5.518z" opacity=".7"/><path style="isolation:isolate" fill="#006c6e" d="M7.895 27.447l4.735 1.414L16.419 30l.123-18.104-8.647 15.551z" opacity=".5"/></svg>