<svg xmlns="http://www.w3.org/2000/svg" width="100%" height="100%" viewBox="-0.64 -0.64 33.28 33.28"><path fill="#d80303" d="M9.966 13.338a2 2 0 00-1.215-.315 2.113 2.113 0 00-1.728.887 3.826 3.826 0 00-.693 2.414V21H4v-9.771h2.33v2.013h.04a3.387 3.387 0 011.05-1.607A2.44 2.44 0 019 11.057a2.048 2.048 0 01.964.182z"/><path fill="#d2d2d2" d="M28 21h-2.33v-5.324a4.142 4.142 0 00-.457-2.224 1.714 1.714 0 00-1.542-.687 1.878 1.878 0 00-1.552.869 3.416 3.416 0 00-.638 2.08V21h-2.34v-5.506q0-2.728-2.029-2.729a1.855 1.855 0 00-1.552.821 3.485 3.485 0 00-.608 2.128V21h-2.33v-9.771h2.33v1.546h.04A3.6 3.6 0 0118.237 11a3.169 3.169 0 011.863.558 2.781 2.781 0 011.09 1.465A3.692 3.692 0 0124.605 11Q28 11 28 14.979z"/></svg>