<svg xmlns="http://www.w3.org/2000/svg" width="100%" height="100%" viewBox="-0.64 -0.64 33.28 33.28"><circle cx="16" cy="16" r="14" fill="#447cd2"/><path fill="#fff" d="M23.821 13.321a2.707 2.707 0 01-1.714.536 2.9 2.9 0 01-2.18-.9 4.143 4.143 0 01-.807-2.938 3.877 3.877 0 01.89-2.794 3 3 0 012.237-.842 2.858 2.858 0 011.682.506 2.271 2.271 0 01.9 1.342l2.483-.493a14.083 14.083 0 00-2.881-2.924 6.847 6.847 0 00-2.033-.3 5.862 5.862 0 00-4.2 1.453 5.5 5.5 0 00-1.643 4.188 5.237 5.237 0 001.534 4.052 5.687 5.687 0 004.024 1.52A5.8 5.8 0 0025.4 14.9a4.739 4.739 0 001.881-2.617l-2.409-.7a3.125 3.125 0 01-1.051 1.738z"/></svg>