<svg xmlns="http://www.w3.org/2000/svg" width="100%" height="100%" viewBox="-0.64 -0.64 33.28 33.28"><defs><linearGradient id="a" x1="13.859" x2="18.106" y1="29.219" y2="29.219" gradientUnits="userSpaceOnUse"><stop offset=".034" stop-color="#636361"/><stop offset=".178" stop-color="#6c6d70"/><stop offset=".219" stop-color="#6f7175"/><stop offset=".309" stop-color="#616366"/><stop offset=".481" stop-color="#3c3d3f"/><stop offset=".716" stop-color="#010101"/><stop offset=".719"/><stop offset="1" stop-color="#636a6e"/></linearGradient><linearGradient id="e" x1="15.178" x2="16.787" y1="29.734" y2="29.734" xlink:href="#a"/><linearGradient id="f" x1="15.277" x2="16.688" y1="29.881" y2="29.881" gradientUnits="userSpaceOnUse"><stop offset=".034" stop-color="#9b9b98"/><stop offset=".131" stop-color="#a4a5a7"/><stop offset=".219" stop-color="#aeb1b8"/><stop offset=".352" stop-color="#9fa4ab"/><stop offset=".605" stop-color="#788188"/><stop offset=".719" stop-color="#657076"/><stop offset="1" stop-color="#8b949a"/></linearGradient><linearGradient id="b" x1="16.126" x2="16.05" y1="28.108" y2="26.893" gradientUnits="userSpaceOnUse"><stop offset=".034" stop-color="#9b9b98"/><stop offset=".109" stop-color="#a5a6a7"/><stop offset=".219" stop-color="#babcc4"/><stop offset=".311" stop-color="#abaeb5"/><stop offset=".487" stop-color="#84898f"/><stop offset=".719" stop-color="#485054"/><stop offset="1" stop-color="#8b949a"/></linearGradient><linearGradient id="h" x1="16.013" x2="15.895" y1="26.542" y2="24.635" xlink:href="#b"/><linearGradient id="i" x1="16.023" x2="15.887" y1="25.546" y2="23.355" xlink:href="#b"/><linearGradient id="j" x1="16.013" x2="15.895" y1="27.627" y2="25.72" xlink:href="#b"/><linearGradient id="k" x1="13.68" x2="18.284" y1="28.805" y2="28.805" gradientUnits="userSpaceOnUse"><stop offset=".034" stop-color="#545453"/><stop offset=".071" stop-color="#616262"/><stop offset=".143" stop-color="#848589"/><stop offset=".219" stop-color="#aeb1b8"/><stop offset=".352" stop-color="#9fa4ab"/><stop offset=".605" stop-color="#788188"/><stop offset=".719" stop-color="#657076"/><stop offset="1" stop-color="#505659"/></linearGradient><linearGradient id="c" x1="12.159" x2="19.475" y1="25.813" y2="25.813" gradientUnits="userSpaceOnUse"><stop offset="0" stop-color="#e5e1df"/><stop offset="0" stop-color="#dddad6"/><stop offset=".038" stop-color="#ceccc9"/><stop offset=".112" stop-color="#a7a9a8"/><stop offset=".212" stop-color="#697072"/><stop offset=".264" stop-color="#465054"/><stop offset=".303" stop-color="#636c6f"/><stop offset=".398" stop-color="#a5aaac"/><stop offset=".478" stop-color="#d5d7d9"/><stop offset=".539" stop-color="#f3f4f5"/><stop offset=".573" stop-color="#fefeff"/><stop offset=".62" stop-color="#f4f5f6"/><stop offset=".699" stop-color="#dadcdf"/><stop offset=".8" stop-color="#b0b4b9"/><stop offset=".876" stop-color="#8b9298"/><stop offset="1" stop-color="#d1d3d4"/><stop offset="1" stop-color="#a7a9ac"/></linearGradient><linearGradient id="l" x1="12.159" x2="19.475" y1="24.728" y2="24.728" xlink:href="#c"/><linearGradient id="m" x1="12.159" x2="19.475" y1="23.548" y2="23.548" xlink:href="#c"/><linearGradient id="n" x1="12.159" x2="19.475" y1="26.898" y2="26.898" xlink:href="#c"/><linearGradient id="d" x1="12.159" x2="19.475" y1="25.967" y2="25.967" gradientUnits="userSpaceOnUse"><stop offset="0" stop-color="#e5e1df"/><stop offset="0" stop-color="#dde8d0"/><stop offset="0" stop-color="#d2f3ba"/><stop offset=".036" stop-color="#c5e4b1"/><stop offset=".105" stop-color="#a4bd98"/><stop offset=".199" stop-color="#6e7f71"/><stop offset=".264" stop-color="#465054"/><stop offset=".303" stop-color="#636c6f"/><stop offset=".398" stop-color="#a5aaac"/><stop offset=".478" stop-color="#d5d7d9"/><stop offset=".539" stop-color="#f3f4f5"/><stop offset=".573" stop-color="#fefeff"/><stop offset=".62" stop-color="#f4f5f6"/><stop offset=".699" stop-color="#dadcdf"/><stop offset=".8" stop-color="#b0b4b9"/><stop offset=".876" stop-color="#8b9298"/><stop offset="1" stop-color="#d1d3d4"/><stop offset="1" stop-color="#a7a9ac"/></linearGradient><linearGradient id="o" x1="12.159" x2="19.475" y1="24.883" y2="24.883" xlink:href="#d"/><linearGradient id="p" x1="12.159" x2="19.475" y1="27.05" y2="27.05" xlink:href="#d"/><linearGradient id="q" x1="11.902" x2="19.884" y1="23.201" y2="23.201" xlink:href="#b"/><radialGradient id="g" cx="-8.456" cy="-16.616" r="19.383" gradientTransform="translate(34.042 37.063) scale(1.054)" gradientUnits="userSpaceOnUse"><stop offset=".034" stop-color="#70706e"/><stop offset=".112" stop-color="#616261"/><stop offset=".219" stop-color="#46474a"/><stop offset=".408" stop-color="#48494c"/><stop offset=".487" stop-color="#4e5053"/><stop offset=".544" stop-color="#5a5c5f"/><stop offset=".592" stop-color="#6a6e71"/><stop offset=".633" stop-color="#7f8588"/><stop offset=".667" stop-color="#979ea1"/><stop offset=".719" stop-color="#3d4447"/><stop offset="1" stop-color="#656c70"/></radialGradient><radialGradient id="r" cx="-16.983" cy="-22.948" r="10.718" gradientTransform="translate(34.042 37.063) scale(1.054)" gradientUnits="userSpaceOnUse"><stop offset="0" stop-color="#ffffd1"/><stop offset=".505" stop-color="#ff0"/><stop offset=".568" stop-color="#fdf700"/><stop offset=".664" stop-color="#f6e200"/><stop offset=".782" stop-color="#ebbf00"/><stop offset=".906" stop-color="#de9200"/><stop offset="1" stop-color="#da9819"/></radialGradient></defs><path fill="url(#a)" d="M13.859 28.776a.242.242 0 00.128.191 12 12 0 001.392.622 4.3 4.3 0 00.578.072h.052a4.3 4.3 0 00.578-.072 12.014 12.014 0 001.392-.622.243.243 0 00.128-.191l-2.137.192z"/><path fill="url(#e)" d="M16.014 30a1.123 1.123 0 00.688-.247.175.175 0 00.085-.126v-.105a3.235 3.235 0 00-.773-.053h-.063a3.237 3.237 0 00-.773.053v.105a.175.175 0 00.085.126 1.122 1.122 0 00.688.247z"/><path fill="url(#f)" d="M15.951 29.807a4.732 4.732 0 01-.674-.044 1.105 1.105 0 00.674.237h.063a1.106 1.106 0 00.675-.237 4.733 4.733 0 01-.675.044z"/><path fill="url(#g)" d="M19.809 26.838a1 1 0 00-.234.389c-.036.181-.1.585-1.326 1.406l-.025.017a.435.435 0 01-.086.037 9.968 9.968 0 01-2.155.209 9.968 9.968 0 01-2.156-.209.436.436 0 01-.085-.036l-.025-.017a4.579 4.579 0 01-1.12-.957c-.164-.219-.373-.257-.39-.345a21.055 21.055 0 003.855.057 13.049 13.049 0 003.761-.654.692.692 0 01-.014.103z"/><path fill="url(#b)" d="M19.772 26.88a.985.985 0 01-.246.129c-.076.028-.245.078-.245.078a25.15 25.15 0 01-6.458.436c-.136-.009-.32-.028-.32-.028a1.062 1.062 0 01-.14-.028 1.016 1.016 0 01.14.107c.16.013.319.019.319.019a26.864 26.864 0 006.743-.323l.009-.042a.885.885 0 01.198-.348z"/><path fill="url(#h)" d="M19.439 25.382s.245-.07.245-.162a.114.114 0 00-.013-.065.214.214 0 01-.061-.144.437.437 0 01.119-.27 1.069 1.069 0 01-.2.1c-.076.028-.245.078-.245.078a25.151 25.151 0 01-6.458.436c-.136-.009-.32-.028-.32-.028a1.055 1.055 0 01-.181-.041.377.377 0 01.078.217.716.716 0 01-.254.432.673.673 0 01.368-.079 26.2 26.2 0 006.922-.474z"/><path fill="url(#i)" d="M19.439 24.229s.245-.078.245-.182a.143.143 0 00-.013-.073.254.254 0 01-.061-.162.514.514 0 01.119-.3 1.026 1.026 0 01-.2.111c-.076.032-.245.088-.245.088a22.507 22.507 0 01-6.458.489c-.136-.01-.32-.032-.32-.032a.953.953 0 01-.181-.046.455.455 0 01.078.243.825.825 0 01-.254.484.614.614 0 01.368-.089c.497-.002 4.418.281 6.922-.531z"/><path fill="url(#j)" d="M19.439 26.467s.245-.07.245-.163a.115.115 0 00-.013-.065.214.214 0 01-.061-.144.435.435 0 01.119-.27 1.07 1.07 0 01-.2.1c-.076.028-.245.078-.245.078a25.162 25.162 0 01-6.458.436c-.136-.009-.32-.028-.32-.028a1.042 1.042 0 01-.181-.041.377.377 0 01.078.217.717.717 0 01-.254.432.67.67 0 01.368-.079 26.207 26.207 0 006.922-.473z"/><path fill="url(#j)" d="M19.439 26.467s.245-.07.245-.163a.115.115 0 00-.013-.065.214.214 0 01-.061-.144.435.435 0 01.119-.27 1.07 1.07 0 01-.2.1c-.076.028-.245.078-.245.078a25.168 25.168 0 01-6.458.436c-.136-.009-.32-.028-.32-.028a1.042 1.042 0 01-.181-.041.376.376 0 01.078.217.717.717 0 01-.254.432.67.67 0 01.368-.079 26.207 26.207 0 006.922-.473z"/><path fill="url(#k)" d="M18.224 28.65a.435.435 0 01-.086.037 9.968 9.968 0 01-2.155.209 9.968 9.968 0 01-2.156-.209.436.436 0 01-.085-.036l-.025-.017-.029-.019a.112.112 0 000 .073c.024.073.147.1.147.1a9.943 9.943 0 002.15.209 9.942 9.942 0 002.15-.209s.126-.029.147-.1a.118.118 0 000-.073l-.029.019z"/><path fill="url(#c)" d="M19.944 25.5s.041.252-.418.423c-.076.028-.245.078-.245.078a25.162 25.162 0 01-6.458.436c-.136-.009-.32-.028-.32-.028-.276-.038-.467-.16-.455-.308 0 0-.033-.249.466-.249a26.2 26.2 0 006.925-.472s.245-.07.245-.162a.111.111 0 00-.013-.066s.273.16.273.348z"/><path fill="url(#l)" d="M19.944 24.416s.041.252-.418.423c-.076.028-.245.078-.245.078a25.151 25.151 0 01-6.458.436c-.136-.009-.32-.028-.32-.028-.276-.038-.467-.16-.455-.308 0 0-.033-.248.466-.248a26.193 26.193 0 006.925-.472s.245-.07.245-.162a.11.11 0 00-.013-.065s.273.157.273.346z"/><path fill="#fff" d="M19.893 24.406v-.021c-.012.076-.078.236-.417.355-.076.026-.245.073-.245.073a22.372 22.372 0 01-5.1.5 22.155 22.155 0 005.1-.441s.169-.047.245-.073c.457-.156.417-.393.417-.393zM19.893 25.491v-.021c-.012.076-.078.236-.417.355-.076.027-.245.073-.245.073a22.38 22.38 0 01-5.1.5 22.171 22.171 0 005.1-.441s.169-.047.245-.073c.457-.156.417-.393.417-.393z"/><path fill="url(#m)" d="M19.944 23.034s.041.329-.418.552c-.076.037-.245.1-.245.1a19.409 19.409 0 01-6.458.569 8.405 8.405 0 01-.32-.037c-.276-.05-.467-.209-.455-.4 0 0-.033-.324.466-.324a18.283 18.283 0 006.925-.461 1.014 1.014 0 00.444-.238.53.53 0 01.061.239z"/><path fill="url(#n)" d="M19.944 26.586s.041.252-.418.423c-.076.028-.245.078-.245.078a25.15 25.15 0 01-6.458.436c-.136-.009-.32-.028-.32-.028-.276-.038-.467-.16-.455-.308 0 0-.033-.248.466-.248a26.207 26.207 0 006.925-.472s.245-.07.245-.163a.111.111 0 00-.013-.065s.273.161.273.347z"/><path fill="#fff" d="M19.893 26.576v-.021c-.012.076-.078.236-.417.355-.076.026-.245.073-.245.073a22.372 22.372 0 01-5.1.5 22.163 22.163 0 005.1-.441s.169-.047.245-.073c.457-.156.417-.393.417-.393zM19.893 23.321V23.3c-.012.076-.078.236-.417.355-.076.027-.245.073-.245.073a22.372 22.372 0 01-5.1.5 22.156 22.156 0 005.1-.441s.169-.047.245-.073c.457-.156.417-.393.417-.393z"/><path fill="url(#d)" d="M12.417 25.881s-.236 0-.241.08.246.085.246.085.175 0 .3.005c.619-.013 1.993-.038 3.437-.166-1.775.073-3.436-.002-3.742-.004z"/><path fill="url(#o)" d="M12.417 24.8s-.236 0-.241.08.246.085.246.085.175 0 .3.005c.619-.012 1.993-.038 3.437-.166-1.775.07-3.436-.004-3.742-.004z"/><path fill="url(#p)" d="M12.417 26.965s-.236 0-.241.08.246.085.246.085.175 0 .3.005c.619-.012 1.993-.038 3.437-.166-1.775.073-3.436-.003-3.742-.004z"/><path fill="url(#q)" d="M11.965 22.779s-.274.315.319.711c0 0 5.775.587 7.6-.695 0 0-6.261.525-7.919-.016z"/><path fill="url(#r)" d="M20.035 22.779a4.449 4.449 0 00.81-1.155 3.386 3.386 0 00.2-1.115 6.733 6.733 0 01.632-2.91c.534-1.014 2.81-4.447 2.81-7.462A8.012 8.012 0 0016 2a8.012 8.012 0 00-8.483 8.136c0 3.015 2.276 6.448 2.81 7.462a6.731 6.731 0 01.632 2.91 3.384 3.384 0 00.2 1.115 4.453 4.453 0 00.81 1.155 13.866 13.866 0 003.987.37 15.151 15.151 0 004.079-.369z"/></svg>