<svg xmlns="http://www.w3.org/2000/svg" width="100%" height="100%" viewBox="-0.64 -0.64 33.28 33.28"><defs><radialGradient id="a" cx="29.86" cy="-463.041" r="15.86" gradientTransform="matrix(1 0 0 -1 0 -442)" gradientUnits="userSpaceOnUse"><stop offset=".045" stop-color="#f4793b"/><stop offset="1" stop-color="#fff33e"/></radialGradient><radialGradient id="b" cx="13.122" cy="-458.585" r="7.97" gradientTransform="matrix(1 0 0 -1 0 -442)" gradientUnits="userSpaceOnUse"><stop offset=".258" stop-color="#ee3d85"/><stop offset="1" stop-color="#7b5aa6"/></radialGradient><radialGradient id="d" cx="19.652" cy="-453.559" r="14.153" gradientTransform="matrix(1 0 0 -1 0 -442)" gradientUnits="userSpaceOnUse"><stop offset=".134" stop-color="#f05872"/><stop offset="1" stop-color="#f4793b"/></radialGradient><linearGradient id="c" x1="13.453" x2="18.024" y1="-458.063" y2="-454.205" gradientTransform="matrix(1 0 0 -1 0 -442)" gradientUnits="userSpaceOnUse"><stop offset="0" stop-color="#ee3d85"/><stop offset="1" stop-color="#f05872"/></linearGradient></defs><path fill="#bfb755" d="M27.5 5.5h-9.3l-2.1 4.2H4.4v16.8h25.2v-21zm0 4.2h-8.2l1.1-2.1h7.1z"/><path d="M30.662 21.651a.749.749 0 00-.762-1.288L16.064 27.95a1.636 1.636 0 101.791 2.733z" style="isolation:isolate" fill="url(#a)" opacity=".997"/><path fill="url(#b)" d="M14.551 14.655a1.8 1.8 0 10-1.844 3.062l7.412 3.061a.694.694 0 00.738-1.157z"/><path d="M19.995 10.065a1.422 1.422 0 00-1.188.158l-6.433 4.366a1.8 1.8 0 102.105 2.929q.065-.047.125-.1l5.864-4.884a1.426 1.426 0 00-.474-2.469z" style="isolation:isolate" fill="url(#c)" opacity=".999"/><path d="M20.574 10.413a1.426 1.426 0 00-2.006 2.027l.057.054 11.166 9.129a.748.748 0 001.021-1.086z" style="isolation:isolate" fill="url(#d)" opacity=".997"/></svg>