<svg xmlns="http://www.w3.org/2000/svg" width="100%" height="100%" viewBox="-0.64 -0.64 33.28 33.28"><path fill="none" d="M19.513 25.173c-.068 0-.136 0-.2-.01.065.006.132.01.2.01zM18.919 25.087a1.93 1.93 0 00.392.076 1.93 1.93 0 01-.392-.076zM20.091 27.511a5.135 5.135 0 010 0z"/><path fill="#f0d6b7" d="M7.436 14.214A.832.832 0 017.6 14.1a.581.581 0 00-.164.114zM10.412 18.253c.06.421.24 4.164 2.766 6.25a15.465 15.465 0 001.549.162c.28-.6 1.312-.554 1.985-.4a6.648 6.648 0 01-2.176-1.778 4.466 4.466 0 01-1.472-2.656c1.348 1.87 2.462 3.5 4.913 4.326 1.855.622 4.021-.285 5.446-1.286a6.258 6.258 0 001.365-1.68 14.242 14.242 0 002.145-8.621 9.567 9.567 0 00-.5-3.446c-.453-.908-1.984-1.72-2.88-.9a1.07 1.07 0 01-.016-.246c-.143.134-.23.232-.23.232a1.209 1.209 0 01-.122-.487 1.551 1.551 0 011.5-1.5 8.674 8.674 0 00-1.479-1.563 10.49 10.49 0 00-6.047-.222 8.06 8.06 0 00-5.975 5.4 14.085 14.085 0 00-.388 2.263c-.031.884.416 1.655.45 2.617-.239.394-.969.443-1.474.416a6.836 6.836 0 00-.136-.566 5.158 5.158 0 00-1.265-.5 1.719 1.719 0 011.009 2.038c-.373-.213-.462-1.15-.9-1.177-.626-.038-.512 1.216-.509 1.95a2.291 2.291 0 01-.19-2.213c-.284-.139-.444.061-.6.217-.222 1.036-.547 1.873.062 2.92a1.734 1.734 0 001.414.6c.567-.056.706-.624 1.324-.618a.513.513 0 01.431.468zm6.449 1.947l-.3-.061s-.314-1.1-.163-1.306c.08-.107.52-.268 1.136.028-.004.001-.734.123-.673 1.339zm5.706 1.341a5.27 5.27 0 01-3.426-.014 4.687 4.687 0 01-1.283-1.427c-.155-.2-.927-.708-.012-.709.717 1.8 3.18 1.592 5.257 1.543a1.111 1.111 0 01-.536.608zm.3-1.6a4.016 4.016 0 010-1.063 8.538 8.538 0 002.96-1.185 3.425 3.425 0 01-2.961 2.246zm2.756-8.073c-.183.061-1.37.762-1.278-.122a1.348 1.348 0 011.026-1.077 3.037 3.037 0 010-.4h.079a17.146 17.146 0 001.172 2.29c-.317.738-2.4 1.39-2.366.066.45-.2 1.227-.04 1.626-.291-.094-.257-.2-.5-.3-.756zm-5.187 4.75a.719.719 0 01.046.1c.091-.507.259-1.1.548-1.013a.684.684 0 01.5.638 6.908 6.908 0 00-.948.738c.065.3.144.6.523.668 1.106.189 2.393-.677 3.189-.979.493-.832-.043-1.138-.487-1.673-.91-1.1-2.13-2.456-2.086-4.1.368-.267.4.407.452.53a15.006 15.006 0 002.543 3.486c.214.234.567.459.606.614.113.451-.294.991-.247 1.29a6.587 6.587 0 01-4.466 1.4 1.322 1.322 0 01-.175-1.702zm1.958 2.321A4.933 4.933 0 0122.47 20c-1.811.09-3.952-.358-4.427-1.629a10.285 10.285 0 004.35.565zm-4.256-8.648a6.954 6.954 0 00.977 1.829c.228.222.67.492.451 1.109a1.406 1.406 0 01-.642.534c-.79.233-2.631.048-2.008-.937.653.03 1.532.424 2.02-.05a9.848 9.848 0 01-.322-.551c-.5.316-1.874.33-1.874-.479 0-.852 1.339-1.034 1.339-1.034l.01.024a1.11 1.11 0 01.048-.448zm-3.224-2.928c1.195-.815 1.8-.35 2.1.188a.568.568 0 01.274.828c-1.658-.386-2.482.694-2.985 1.814-.129.234-.136.068-.21-.136a.392.392 0 01-.061-.136.551.551 0 00-.092-.121c-.24-.247-.365-1.524.974-2.437z"/><path fill="#335061" d="M6.283 29.28h8.753c-.04-.135-.079-.268-.118-.394a12.164 12.164 0 01-.476-1.948 21.079 21.079 0 01-3.087-1.655 2.353 2.353 0 01-.24-.257l-5.266 2.353s.189.754.434 1.901z"/><path fill="#6d6b6d" d="M9.433 7a2.125 2.125 0 01.467-.088 3.817 3.817 0 00.747.029c.494-.123.912-1.231 1.285-1.644a11.333 11.333 0 01.941-.776A7.346 7.346 0 009.433 7zM7.177 12.586a2.147 2.147 0 013.145 1.747c.694-.018.259-.866.134-1.413-.369-1.608.487-3.34.192-4.861-3.866.578-3.648 3.547-3.471 4.527z"/><path fill="#dcd9d8" d="M13.249 3.851c-1.82.516-4.152 1.838-4.9 3.473A7.389 7.389 0 009.433 7a7.346 7.346 0 013.44-2.479 1.647 1.647 0 00.159-.166c.192-.093.476-.086.487-.375-.083-.089-.171-.157-.27-.129zM7.5 8.985c-.8.885-.636 2.542-.538 3.721a2.321 2.321 0 01.218-.12c-.18-.979-.394-3.949 3.471-4.527a2.81 2.81 0 00-.142-.493A4.409 4.409 0 007.5 8.985z"/><path fill="#f7e4cd" d="M10.412 18.253a.513.513 0 00-.42-.468c.335.668-.516.878-.6 1.355a3.837 3.837 0 00.125.832 11.351 11.351 0 001.445 3.365 3.181 3.181 0 002.22 1.166c-2.53-2.085-2.71-5.829-2.77-6.25zM21.525 16.338a.684.684 0 00-.5-.638c-.289-.082-.457.506-.548 1.013a2.376 2.376 0 01.1.363 6.908 6.908 0 01.948-.738zM24.344 11.744c-.092.884 1.1.183 1.278.122l-.043-.286a3.235 3.235 0 01-.209-.913 1.348 1.348 0 00-1.026 1.077zM16.739 11.744c0 .809 1.371.795 1.874.479a4.053 4.053 0 01-.525-1.489l-.01-.024s-1.339.182-1.339 1.034zM7.192 14.885a.8.8 0 01-.125.109 1.221 1.221 0 01.37-.781.581.581 0 01.163-.113.979.979 0 01.782-.032 5.158 5.158 0 011.265.5c-.193-.664-.524-1.263-1.208-1.338a2.034 2.034 0 00-2.2 1.963A3.858 3.858 0 007.254 17.8c-.61-1.042-.284-1.879-.062-2.915zM17.165 4.443a10.49 10.49 0 016.047.222 4.127 4.127 0 00-.49-.329c-1.889-1.066-5.086-1.867-7.1-.866-1.621.808-3.813 2.146-4.56 3.841a4.109 4.109 0 01.123 2.532 8.06 8.06 0 015.98-5.4zM23.188 7.728a1.209 1.209 0 00.122.487s.087-.1.23-.232c.031-.734.865-1.152 1.832-.866-.222-.286-.447-.589-.681-.889a1.551 1.551 0 00-1.503 1.5zM14.092 10.058c.074.2.082.37.21.136a.348.348 0 01-.21-.136z"/><path fill="#f7e4cd" d="M14.032 9.922a1.486 1.486 0 01.114-.758 2.816 2.816 0 012.47-1.755 1.149 1.149 0 01.4.143c-.3-.538-.9-1-2.1-.188-1.338.913-1.217 2.19-.973 2.434a.551.551 0 01.089.124z"/><path fill="#49728b" d="M5.849 27.379l5.266-2.353c-.386-.448-1.079-1.3-1.2-1.257a24.079 24.079 0 00-5.61 3.485 20.236 20.236 0 01.81 2.026h1.168a61.417 61.417 0 00-.434-1.901z"/><path fill="#335061" d="M27 29.307a20.836 20.836 0 00.548-2.058c.036-.181.106-.475.156-.756l-2.886-2.144a5.123 5.123 0 01.13 3.9c.1.372.454.515.6.85-.034.06-.068.119-.1.179h1.476a.149.149 0 01.076.029zM24.441 28.074a1.081 1.081 0 00.172-.381 1.081 1.081 0 01-.172.381zM23.617 23.946a.948.948 0 01.514-.106l-.238-.177a1.457 1.457 0 00-.276.283z"/><path fill="#49728b" d="M27.756 25.879c-.074-.537-.8-.935-1.172-1.266-.684-.613-1.112-1.153-1.823-1.726a4.391 4.391 0 01-.869.776l.238.177a.932.932 0 01.686.51l2.884 2.143a2.339 2.339 0 00.056-.614z"/><path fill="#fff" d="M20.572 29.2a.438.438 0 00.009.076h.479a.333.333 0 01.666 0h.774v-.03a20.686 20.686 0 00-1.2-.593c-.424-.178-.728.547-.728.547z"/><path fill="#dcd9d8" d="M20.572 29.2s.3-.73.73-.548c.322.138.921.449 1.2.593.01-.22.02-.44.034-.66-.618.039-.961-.559-1.394-.605-.378-.041-.7.435-1.19.229-.113.124-.215.259-.33.381a6.313 6.313 0 01.489.685h.476a.438.438 0 01-.015-.075z"/><path fill="#fff" d="M14.511 25.169a6.738 6.738 0 01-2.269-.4.282.282 0 00.017.421 7.657 7.657 0 002.14.578 1.748 1.748 0 00.112-.599z"/><path fill="#dcd9d8" d="M14.357 26.069a1.233 1.233 0 01.041-.3 7.657 7.657 0 01-2.14-.578 4.237 4.237 0 002.099.878z"/><path fill="#d33833" d="M24.613 27.693a2.963 2.963 0 00.073-.87 7.057 7.057 0 00-.2-1.378 3 3 0 00-1.009.049c-.3.061-.609.122-.669.487s.122.548-.061.852-.487.122-.791.3c-.207.124-.076.445.029.638a12.138 12.138 0 002.459.3 1.081 1.081 0 00.169-.378zM15.562 29.219l.047.128c.014.04.029.093.042.139l-.009-.117z"/><path fill="#d33833" d="M19.563 27.925l.021-.527a1.309 1.309 0 01-.96-.074c-.937-.511-.05-.36-.382-1.038a3.236 3.236 0 00-1.224-.365c-1.228 0-1.7-.247-1.568 1.169.069.76.131 1.519.191 2.28.1.188.19.357.262.5a4.834 4.834 0 001.833-.559 21.007 21.007 0 001.827-1.386zM20.027 27.2c.021.089.043.189.064.31a.7.7 0 10.428-1.31.953.953 0 01-.492 1z"/><path fill="#ef3d3a" d="M21.953 27.137c.3-.183.609 0 .791-.3s0-.487.061-.852.365-.426.669-.487a3 3 0 011.009-.049 1.125 1.125 0 00-.348-.652c-.747-.436-2.056.825-2.665 1.093l-.057.023a1.694 1.694 0 01.175.558 1.475 1.475 0 01.412-.042 1.761 1.761 0 01.276.033c.045.009.089.02.133.032a1.463 1.463 0 01.243.092 4.209 4.209 0 00-.757.1.7.7 0 00-.2.095 8.618 8.618 0 00-.035.9q.158.045.322.084c-.105-.183-.236-.504-.029-.628zM15.651 29.485c.051.183.095.348.253.385-.072-.144-.163-.313-.262-.5zM15.45 27.089c-.129-1.416.34-1.169 1.568-1.169a3.236 3.236 0 011.224.365c.332.678-.555.527.382 1.038a1.309 1.309 0 00.96.074v-.063a3.039 3.039 0 00-.916-.29 3.5 3.5 0 00-.371-.036 1.555 1.555 0 01.291-.106 3.285 3.285 0 00.906-.281c0-.079.006-.158.009-.236a1.883 1.883 0 01-.2-.027 1.565 1.565 0 01-.177-.044 1.585 1.585 0 01-.294-.127c-.178-.1-.331-.216-.525-.322a9.077 9.077 0 00-2.408-.881c-.921-.176-.929 1.105-.89 2.049 0 .1.008.192.013.28a6.585 6.585 0 00.544 1.9l.079.15c-.063-.754-.126-1.514-.195-2.274zM20.52 26.2a1.009 1.009 0 00-.582.2 1.7 1.7 0 00.007.412c.011.079.028.155.048.238l.031.131v.017a.953.953 0 00.496-.998z"/><path fill="#231f20" d="M14.146 9.164a1.486 1.486 0 00-.114.758.392.392 0 00.061.136.348.348 0 00.21.136c.5-1.12 1.327-2.2 2.985-1.814a.568.568 0 00-.274-.828 1.149 1.149 0 00-.4-.143 2.816 2.816 0 00-2.468 1.755zM24.252 12.627c-.032 1.324 2.049.672 2.366-.066a17.146 17.146 0 01-1.172-2.29h-.079a3.037 3.037 0 000 .4 3.235 3.235 0 00.209.913c.095.256.205.5.3.756-.397.247-1.176.09-1.624.287zM18.934 12.773c-.488.474-1.367.08-2.02.05-.623.985 1.218 1.17 2.008.937a1.406 1.406 0 00.642-.534c.219-.617-.223-.887-.451-1.109a6.954 6.954 0 01-.977-1.829 1.11 1.11 0 00-.049.445 4.053 4.053 0 00.525 1.489c.114.21.227.399.322.551zM20.605 18.315a6.587 6.587 0 004.466-1.4c-.047-.3.36-.84.247-1.29-.039-.155-.392-.38-.606-.614a15.006 15.006 0 01-2.543-3.486c-.053-.123-.085-.8-.452-.53-.044 1.642 1.176 3 2.086 4.1.444.535.98.841.487 1.673-.8.3-2.083 1.169-3.189.979-.379-.065-.458-.365-.523-.668a2.376 2.376 0 00-.1-.363.719.719 0 00-.046-.1 1.322 1.322 0 00.173 1.699zM7.6 14.1a.832.832 0 00-.159.111 1.221 1.221 0 00-.37.781.8.8 0 00.125-.109c.153-.156.313-.357.6-.217a2.291 2.291 0 00.19 2.213c0-.733-.117-1.987.509-1.95.438.027.527.964.9 1.177a1.719 1.719 0 00-1.017-2.036.979.979 0 00-.778.03zM22.868 18.875a4.016 4.016 0 000 1.063 3.425 3.425 0 002.962-2.249 8.538 8.538 0 01-2.962 1.186zM22.47 20a4.933 4.933 0 00-.077-1.066 10.285 10.285 0 01-4.35-.562c.475 1.272 2.616 1.72 4.427 1.628zM17.846 19.39c-.915 0-.143.51.012.709a4.687 4.687 0 001.284 1.428 5.27 5.27 0 003.426.014 1.111 1.111 0 00.536-.609c-2.078.05-4.541.257-5.258-1.542z"/><path fill="#81b0c4" d="M24.96 29.28a1.709 1.709 0 00-1.042-.753 1.433 1.433 0 00-.918.12c-.008.2-.018.415-.031.632z"/><path fill="#f0d6b7" d="M21.971 24.749c-.686.061-1.493.373-2.252.419-.069 0-.138.006-.206.006s-.136 0-.2-.01a1.93 1.93 0 01-.392-.076 1.666 1.666 0 01-.188-.07c0 .052-.071.033-.082.076a3.19 3.19 0 00.485.322 2.218 2.218 0 00.475.19 3.052 3.052 0 00.816.09c.1 0 .212 0 .327-.009.415-.303.783-.656 1.217-.938z"/><path fill="#81b0c4" d="M19.086 29.048l-.351.233h.527q-.086-.119-.176-.233z"/><path fill="#231f20" d="M4.681 29.769v-.335a.153.153 0 01.153-.153h.283a20.236 20.236 0 00-.81-2.026 24.079 24.079 0 015.61-3.485c.118-.047.811.809 1.2 1.257a2.353 2.353 0 00.24.257 21.079 21.079 0 003.087 1.655 12.164 12.164 0 00.476 1.948c.039.126.078.26.118.394h.162a.153.153 0 01.153.153v.158h.139a.153.153 0 01.153.153V30h1.691v-.255a.153.153 0 01.153-.153h.78v-.158a.153.153 0 01.153-.153h.317l.351-.233q.09.114.176.233h.843a6.313 6.313 0 00-.489-.685c.115-.122.217-.256.33-.381.492.206.812-.27 1.19-.229.433.046.776.644 1.394.605-.014.22-.024.44-.034.66v.03h.474c.012-.217.023-.429.031-.632a1.433 1.433 0 01.918-.12 1.709 1.709 0 011.042.753h.481c.034-.06.069-.119.1-.179-.143-.335-.495-.477-.6-.85a5.123 5.123 0 00-.13-3.9.932.932 0 00-.686-.51.948.948 0 00-.514.106 1.457 1.457 0 01.275-.283 4.391 4.391 0 00.869-.776c.712.573 1.141 1.112 1.824 1.725.37.332 1.1.73 1.172 1.266a2.339 2.339 0 01-.054.614c-.051.281-.12.575-.156.756A20.836 20.836 0 0127 29.307a.15.15 0 01.072.127V30h.368c.258-.808.511-1.635.766-2.489a6.207 6.207 0 00.478-2.187c-.078-.617-1.04-1.265-1.547-1.754-.281-.271-1.593-1.267-1.669-1.64s.535-1.178.731-1.586a11.669 11.669 0 00.621-1.788c1.032-3.627 1.137-8.611-.339-11.592a12.54 12.54 0 00-3.1-3.428c-2.3-1.742-6.563-1.935-9.339-.913a13.481 13.481 0 00-2.2.939c-1.818 1.066-3.748 1.78-4.287 3.928-1.328.6-1.729 2.3-1.662 4.268a6.221 6.221 0 01.149 1.227c-.037.184-.286.419-.336.538a5.3 5.3 0 00.609 4.592A3.225 3.225 0 008.468 19.5a4.568 4.568 0 00.447 1.672c.17.373.805 1.043.571 1.519a6.987 6.987 0 01-1.495.966c-1.158.695-2 1.12-3.066 1.89-.692.5-1.773.562-1.6 1.71a17.869 17.869 0 00.808 2.513c.025.078.053.155.08.232h.47zm8.351-25.414a1.647 1.647 0 01-.159.166 11.333 11.333 0 00-.941.776c-.373.413-.79 1.521-1.285 1.644a3.817 3.817 0 01-.747-.029A2.125 2.125 0 009.433 7a7.389 7.389 0 01-1.084.325c.748-1.635 3.08-2.957 4.9-3.473.1-.028.188.04.271.129-.011.287-.296.281-.488.374zm-2.385 3.7c.3 1.521-.561 3.254-.192 4.861.125.546.56 1.394-.134 1.413a2.147 2.147 0 00-3.145-1.747 2.321 2.321 0 00-.218.12c-.1-1.179-.266-2.836.538-3.721a4.409 4.409 0 013.009-1.419 2.81 2.81 0 01.142.497zM7.254 17.8a3.858 3.858 0 01-1.022-2.6 2.034 2.034 0 012.2-1.963c.684.075 1.014.674 1.208 1.338.054.187.1.379.136.566.505.027 1.235-.022 1.474-.416-.034-.962-.481-1.733-.45-2.617a14.085 14.085 0 01.388-2.263 4.109 4.109 0 00-.123-2.532c.747-1.695 2.939-3.032 4.56-3.841 2.009-1 5.207-.2 7.1.866a4.127 4.127 0 01.49.329 8.674 8.674 0 011.479 1.563c.234.3.459.6.681.889-.967-.287-1.8.132-1.832.866a1.07 1.07 0 00.016.246c.9-.821 2.427-.009 2.88.9a9.567 9.567 0 01.5 3.446 14.242 14.242 0 01-2.145 8.621 6.258 6.258 0 01-1.365 1.68c-1.425 1-3.591 1.908-5.446 1.286-2.451-.823-3.565-2.456-4.913-4.326a4.466 4.466 0 001.472 2.656 6.648 6.648 0 002.176 1.778c-.673-.158-1.7-.208-1.985.4a15.465 15.465 0 01-1.549-.162 3.181 3.181 0 01-2.22-1.166 11.351 11.351 0 01-1.445-3.365 3.837 3.837 0 01-.125-.832c.088-.478.939-.687.6-1.355-.618-.006-.757.562-1.324.618a1.734 1.734 0 01-1.416-.61zm12.77 9.38l-.031-.131a2.787 2.787 0 01-.048-.238 1.7 1.7 0 01-.007-.412 1.009 1.009 0 01.582-.2.7.7 0 11-.428 1.31 5.135 5.135 0 00-.064-.31zm-7.782-2.419a6.738 6.738 0 002.269.4 1.748 1.748 0 01-.112.6 1.233 1.233 0 00-.041.3 4.237 4.237 0 01-2.1-.882.282.282 0 01-.016-.413zm7.367.839a2.218 2.218 0 01-.475-.19 3.26 3.26 0 01-.485-.322c.011-.043.079-.024.082-.076a1.666 1.666 0 00.188.07 1.93 1.93 0 00.392.076 2.705 2.705 0 00.406.004c.759-.046 1.566-.358 2.252-.419-.433.283-.8.636-1.218.938a6.29 6.29 0 01-.327.009 3.052 3.052 0 01-.815-.085zm-1.872 3.706a4.834 4.834 0 01-1.833.559c-.158-.037-.2-.2-.253-.385a2.722 2.722 0 00-.089-.267 6.585 6.585 0 01-.544-1.9c0-.088-.009-.182-.013-.28-.039-.944-.031-2.225.89-2.049a9.077 9.077 0 012.408.881c.194.106.347.225.525.322a1.585 1.585 0 00.294.127 1.565 1.565 0 00.177.044 1.883 1.883 0 00.2.027c0 .078-.006.157-.009.236a3.285 3.285 0 01-.906.281 1.555 1.555 0 00-.291.106 3.5 3.5 0 01.371.036 3.039 3.039 0 01.916.29v.063l-.021.527a21.007 21.007 0 01-1.822 1.387zm4.245-1.536q-.164-.039-.322-.084a8.618 8.618 0 01.035-.9.7.7 0 01.2-.095 4.209 4.209 0 01.757-.1 1.463 1.463 0 00-.243-.092 1.843 1.843 0 00-.133-.032 1.761 1.761 0 00-.276-.038 1.475 1.475 0 00-.407.038 1.694 1.694 0 00-.175-.558l.057-.023c.609-.268 1.918-1.529 2.665-1.093a1.125 1.125 0 01.348.652 7.057 7.057 0 01.2 1.378 2.963 2.963 0 01-.073.87 1.081 1.081 0 01-.172.381 12.138 12.138 0 01-2.461-.3z"/><path fill="#f7e4cd" d="M17.53 18.862c-.616-.3-1.056-.135-1.136-.028-.152.2.163 1.306.163 1.306l.3.061c-.057-1.217.673-1.339.673-1.339z"/><path fill="#1d1919" d="M21.393 28.961a.334.334 0 00-.333.319h.666a.334.334 0 00-.333-.319z"/><path fill="#231f20" d="M15.642 29.745a.153.153 0 00-.153-.153h-.139v.177a.153.153 0 01-.153.153H4.834a.153.153 0 01-.153-.153V30h10.961zM26.918 29.922h-8.5a.153.153 0 01-.153-.153v-.177h-.78a.153.153 0 00-.153.153V30h9.737v-.231a.153.153 0 01-.151.153z"/><path fill="#231f20" d="M4.834 29.922H15.2a.153.153 0 00.153-.153v-.335a.153.153 0 00-.153-.153H4.834a.153.153 0 00-.153.153v.335a.153.153 0 00.153.153zM18.266 29.769a.153.153 0 00.153.153h8.5a.153.153 0 00.153-.153v-.335a.15.15 0 00-.072-.127.149.149 0 00-.081-.026h-8.5a.153.153 0 00-.153.153v.335z"/></svg>