<svg xmlns="http://www.w3.org/2000/svg" width="100%" height="100%" viewBox="-0.64 -0.64 33.28 33.28"><path fill="#fff" d="M16 2a14 14 0 1014 14A14.016 14.016 0 0016 2"/><path fill="#91dc47" d="M15.488 16.252c-.126.273-.265.579-.408.9a22.963 22.963 0 00-1.28 3.453 5.181 5.181 0 00-.119 1.155c0 .174.009.356.024.542a6.658 6.658 0 004.413.067 3.966 3.966 0 01-.44-.466c-.9-1.146-1.4-2.827-2.194-5.652M12.169 10.556a6.677 6.677 0 00-.077 10.881c.411-1.71 1.44-3.276 2.983-6.415-.092-.252-.2-.527-.313-.817a10.207 10.207 0 00-1.6-2.882 4.439 4.439 0 00-1-.767"/><path fill="#63b132" d="M21.84 23.7a10.877 10.877 0 01-2.257-.471 8.036 8.036 0 01-8.867-13.247 5.9 5.9 0 00-1.4-.171c-2.358.022-4.848 1.327-5.884 4.852a6.606 6.606 0 00-.074 1.361 12.649 12.649 0 0023 7.274 14.737 14.737 0 01-3.448.459 8.881 8.881 0 01-1.07-.057"/><path fill="#90b4fe" d="M19.463 21.244a3.53 3.53 0 00.5.172 6.69 6.69 0 002.737-5.393 6.681 6.681 0 00-8.79-6.348c1.358 1.548 2.011 3.761 2.643 6.181s.2.673.547 1.562a15.434 15.434 0 001.363 2.788 2.924 2.924 0 001 1.036"/><path fill="#5881d8" d="M16.013 3.372A12.632 12.632 0 005.731 8.656a6.425 6.425 0 013.48-1.009 6.8 6.8 0 013.182.772c.134.077.261.16.386.246a8.038 8.038 0 0111.273 7.358 8.013 8.013 0 01-2.391 5.719 9.871 9.871 0 001.143.064 6.24 6.24 0 004.051-1.263 5.348 5.348 0 001.7-2.906A12.632 12.632 0 0016.013 3.372"/></svg>