<svg xmlns="http://www.w3.org/2000/svg" width="100%" height="100%" viewBox="-0.64 -0.64 33.28 33.28"><path fill="#ce3d40" d="M20.869 17.282H30v1.343h-9.131zm5.382 2.687L28.985 24h-1.544l-2-2.627L23.428 24h-1.545l2.735-4.031z"/><path fill="#50b2dd" d="M7.811 18.259a5.576 5.576 0 01-1.037.287 6.34 6.34 0 01-1.1.093 3.664 3.664 0 01-2.723-.962A3.822 3.822 0 012 14.867a4.508 4.508 0 01.275-1.611 3.582 3.582 0 01.773-1.237 3.407 3.407 0 011.189-.794 4.009 4.009 0 011.523-.28 6.747 6.747 0 011.085.082 4.51 4.51 0 01.966.268v1.238a4.082 4.082 0 00-.985-.369 4.6 4.6 0 00-1.036-.116 2.348 2.348 0 00-.94.191 2.287 2.287 0 00-.777.547 2.589 2.589 0 00-.527.873 3.283 3.283 0 00-.194 1.163 2.8 2.8 0 00.658 2.031 2.431 2.431 0 001.824.675 4.312 4.312 0 001.022-.119 4.211 4.211 0 00.955-.358zm5.113-9.193h-2.207V8h3.514v9.454h2.222v1.081h-5.982v-1.081h2.453z"/></svg>