<svg xmlns="http://www.w3.org/2000/svg" width="100%" height="100%" viewBox="-0.64 -0.64 33.28 33.28"><path d="M29.507 18.773a1.378 1.378 0 00-1.144-.921 2.619 2.619 0 00-.913.051 8.2 8.2 0 01-1.406.185 27.125 27.125 0 002.872-6.83c.953-3.689.444-5.369-.151-6.13A8.239 8.239 0 0022.121 2a11.773 11.773 0 00-3.453.484 12.858 12.858 0 00-2.02-.184 6.565 6.565 0 00-3.518.867 16.039 16.039 0 00-2.484-.624 7.694 7.694 0 00-5.819.924C3.093 4.691 2.289 6.819 2.438 9.792a36.351 36.351 0 001.406 6.538 22.579 22.579 0 001.514 3.863A4.786 4.786 0 007.8 22.742a2.4 2.4 0 002.379-.516 2.08 2.08 0 00.5.43 3.328 3.328 0 00.944.4 5.069 5.069 0 003.3-.2c.006.171.011.335.014.477.006.229.013.454.021.665a11.641 11.641 0 00.441 3.3c.016.043.037.107.059.176a3.975 3.975 0 00.991 1.745 2.955 2.955 0 002.09.777 4.7 4.7 0 00.977-.109 4.592 4.592 0 003.091-1.787c.811-1.155 1.206-2.894 1.277-5.635l.026-.222.017-.145.191.017h.049a7.562 7.562 0 003.163-.548c.631-.293 2.654-1.361 2.177-2.8"/><path fill="#336791" d="M27.689 19.053c-3.163.652-3.38-.418-3.38-.418 3.339-4.955 4.735-11.245 3.53-12.784-3.286-4.2-8.975-2.213-9.07-2.162l-.031.006a11.28 11.28 0 00-2.11-.22 5.212 5.212 0 00-3.34 1S3.14.294 3.612 9.733c.1 2.008 2.878 15.194 6.191 11.211 1.211-1.456 2.381-2.688 2.381-2.688a3.071 3.071 0 002.006.512l.057-.048a2.21 2.21 0 00.023.567c-.854.954-.6 1.121-2.309 1.472-1.726.356-.712.989-.05 1.155a3.508 3.508 0 003.915-1.272l-.05.2c.334.268.569 1.742.53 3.079a8.481 8.481 0 00.2 2.971c.264.717.526 2.329 2.769 1.849a3.307 3.307 0 002.98-3.179c.1-1.234.313-1.052.326-2.155l.174-.522c.2-1.673.032-2.213 1.186-1.962l.281.025a6.4 6.4 0 002.615-.44c1.406-.652 2.239-1.742.853-1.455"/><path fill="#fff" d="M13.882 10.631a.981.981 0 00-.674.1.247.247 0 00-.1.164.48.48 0 00.117.314.881.881 0 00.559.349.637.637 0 00.09.006.725.725 0 00.687-.467c.035-.248-.326-.414-.676-.463m9.442.008c-.027-.195-.374-.25-.7-.2s-.647.194-.62.389a.667.667 0 00.62.411.592.592 0 00.083-.006.8.8 0 00.451-.247.5.5 0 00.169-.343"/><path fill="#fff" d="M28.741 18.979c-.121-.365-.509-.482-1.154-.349-1.915.4-2.6.121-2.826-.044a26.327 26.327 0 003.373-7.565 14.374 14.374 0 00.5-3.253 3.513 3.513 0 00-.509-2.2 7.482 7.482 0 00-6.049-2.825 10.363 10.363 0 00-3.5.551 8.717 8.717 0 00-1.968-.253 5.684 5.684 0 00-3.372.929 15.051 15.051 0 00-2.74-.718 6.978 6.978 0 00-5.242.805c-1.5 1.064-2.2 2.966-2.061 5.653a35.489 35.489 0 001.373 6.348c1.07 3.505 2.233 5.49 3.457 5.9a1.548 1.548 0 00.491.081 2.049 2.049 0 001.563-.886q1.042-1.25 2.155-2.438a3.472 3.472 0 001.55.417v.042q-.14.166-.273.338c-.375.475-.452.574-1.658.823-.343.071-1.254.259-1.267.9-.014.7 1.077.991 1.2 1.022a5.144 5.144 0 001.249.162 3.634 3.634 0 002.5-.934 23.674 23.674 0 00.381 5.684 2.854 2.854 0 002.729 2.1 4.378 4.378 0 00.917-.1 3.462 3.462 0 003.156-3.212c.177-1.026.481-3.475.624-4.789a3.859 3.859 0 001.11.137 6.6 6.6 0 002.519-.48c.712-.331 2-1.141 1.763-1.846zm-4.69-8.879a7.968 7.968 0 01-.116 1.107 10.229 10.229 0 00-.14 1.3 9.859 9.859 0 00.1 1.47 5.236 5.236 0 01-.229 2.986 3.882 3.882 0 01-.207-.426c-.058-.141-.185-.368-.359-.681-.68-1.22-2.274-4.078-1.458-5.244.243-.347.86-.7 2.408-.512zm-1.877-6.569a6.617 6.617 0 015.334 2.522c.975 1.245-.1 6.912-3.205 11.8l-.094-.119-.039-.049a5.524 5.524 0 00.506-3.8 9.114 9.114 0 01-.1-1.352 9.572 9.572 0 01.131-1.206 7.614 7.614 0 00.123-1.493.619.619 0 00.013-.21 8.381 8.381 0 00-1.912-3.6 8.61 8.61 0 00-3.039-2.284 10.246 10.246 0 012.28-.214zM9.479 20.654c-.627.754-1.061.61-1.2.562-.928-.31-2.006-2.272-2.955-5.384a35.167 35.167 0 01-1.34-6.159c-.12-2.4.462-4.074 1.73-4.974 2.063-1.463 5.456-.587 6.819-.143-.02.019-.04.037-.059.057-2.237 2.259-2.184 6.119-2.178 6.355 0 .091.007.22.018.4a15.969 15.969 0 01-.081 3.226 4.08 4.08 0 001.067 3.413q.133.138.278.262a55.7 55.7 0 00-2.1 2.385zm2.39-3.19a3.3 3.3 0 01-.865-2.764 16.7 16.7 0 00.087-3.381 15.422 15.422 0 01-.014-.243A4.3 4.3 0 0114 10.223a1.188 1.188 0 01.918 1.026c.646 2.989.085 4.234-.365 5.235-.093.206-.181.4-.255.6l-.058.156a10.218 10.218 0 00-.368 1.109 2.788 2.788 0 01-2-.887zm.113 4.03a1.733 1.733 0 01-.523-.225 2.553 2.553 0 01.557-.166c1.418-.292 1.637-.5 2.116-1.105.11-.139.234-.3.406-.489.256-.287.374-.238.586-.15a.829.829 0 01.408.525.585.585 0 01-.05.491 3.1 3.1 0 01-3.499 1.12zm7.424 6.906a2.113 2.113 0 01-2.754-1.526 31.129 31.129 0 01-.3-6.853.392.392 0 00-.017-.124 1.643 1.643 0 00-.048-.23 1.589 1.589 0 00-.862-1.034 1.216 1.216 0 00-.793-.1 9.586 9.586 0 01.342-1.022l.058-.157c.066-.177.148-.36.235-.554.471-1.047 1.117-2.482.416-5.722a2.044 2.044 0 00-2.468-1.669 5.694 5.694 0 00-1.887.591c-.078.04-.15.078-.216.115a8.244 8.244 0 011.918-4.952 4.711 4.711 0 013.57-1.336 7.567 7.567 0 015.781 2.763 8.774 8.774 0 011.582 2.71c-1.463-.149-2.458.14-2.962.861-1.1 1.568.6 4.612 1.416 6.075.15.268.279.5.319.6a5.432 5.432 0 00.861 1.387c.077.1.152.189.208.271-.443.128-1.239.423-1.166 1.9-.058.74-.474 4.205-.686 5.43-.279 1.617-.874 2.22-2.548 2.579zm7.242-8.288a5.714 5.714 0 01-1.931.4 2.422 2.422 0 01-1.3-.167c-.045-.919.3-1.015.66-1.117.057-.016.112-.032.166-.05a1.353 1.353 0 00.11.08c.639.422 1.78.467 3.39.135h.018a4.334 4.334 0 01-1.116.72z"/></svg>