<svg xmlns="http://www.w3.org/2000/svg" width="100%" height="100%" viewBox="-0.64 -0.64 33.28 33.28"><path fill="#2188b6" d="M28.208 24.409a10.493 10.493 0 00-3.959 1.822 23.743 23.743 0 01-5.835 2.642 1.632 1.632 0 01-.983.55 62.228 62.228 0 01-6.447.577c-1.163.009-1.876-.3-2.074-.776a1.573 1.573 0 01.866-2.074 3.759 3.759 0 01-.514-.379c-.171-.171-.352-.514-.406-.388-.225.55-.343 1.894-.947 2.5-.83.839-2.4.559-3.328.072-1.019-.541.072-1.813.072-1.813a.73.73 0 01-.992-.343 4.847 4.847 0 01-.667-2.949 5.374 5.374 0 011.749-2.895 9.334 9.334 0 01.658-4.4 10.445 10.445 0 013.165-3.661S6.628 10.747 7.35 8.817c.469-1.262.658-1.253.812-1.308a3.633 3.633 0 001.452-.857 5.265 5.265 0 014.41-1.7S15.2 1.4 16.277 2.09a18.349 18.349 0 011.533 2.886s1.281-.748 1.425-.469a11.334 11.334 0 01.523 6.132 14.01 14.01 0 01-2.6 5.411c-.135.225 1.551.938 2.615 3.887.983 2.7.108 4.96.262 5.212.027.045.036.063.036.063s1.127.09 3.391-1.308a8.5 8.5 0 014.277-1.604 1.081 1.081 0 01.469 2.11z"/></svg>