<svg xmlns="http://www.w3.org/2000/svg" width="100%" height="100%" viewBox="-0.64 -0.64 33.28 33.28"><path fill="#5ecae6" d="M4.232 19.36L6.56 20a10.28 10.28 0 019.452-14.271h.19l1.377-1.876L16.463 2h-.451A14.021 14.021 0 002.95 21.094z"/><path fill="#a5ddef" d="M18.387 3.971L16.962 5.8a10.267 10.267 0 019.286 10.212 10.143 10.143 0 01-.594 3.42l1.116 2.161 2.137-.166A14.127 14.127 0 0030 16.012 13.985 13.985 0 0017.247 2.071z"/><path fill="#7fd2ed" d="M26.343 22.258l-1-2.042a10.259 10.259 0 01-18.429.546l-2.47-.617-1.209 1.638a14.007 14.007 0 0025.364.309z"/><path fill="#ef4561" d="M12.165 9.932l-3.753 3.847.95 1.924 6.531 7.98 6.531-8.17.95-1.734-3.752-3.847h-7.457z"/><path fill="none" d="M8.412 13.898l2.351.475"/><path fill="#ef4d6e" d="M22.424 15.537l-2.327.689.926-1.853 2.351-.475-.95 1.639z"/><path fill="#ef4561" d="M14.967 16.582l-.95-2.375h3.752l-.95 2.375h-1.852zM18.696 16.107l-.927-1.9h3.254l-.926 1.9h-1.401z"/><path fill="#ef4d6e" d="M13.091 16.226l.926-1.853.95 2.328-1.876-.475zM16.819 16.701l.95-2.328.927 1.853-1.877.475z"/><path fill="#ef4561" d="M21.023 14.254L19.17 9.932h.452l3.752 3.776-2.351.546z"/><path fill="#ef4d6e" d="M17.769 14.207l.452-4.275h.949l1.853 4.275h-3.254zM9.362 15.774l2.328.452-.927-1.853-2.351-.475.95 1.876z"/><path fill="#ef4561" d="M13.091 16.107l.926-1.9h-3.254l.927 1.9h1.401z"/><path fill="#ef4561" d="M10.763 14.254l1.853-4.322h-.451l-3.753 3.776 2.351.546z"/><path fill="#ef4d6e" d="M14.017 14.207l-.451-4.275h-.95l-1.853 4.275h3.254z"/><path fill="#ef4561" d="M14.017 14.136l1.876-4.204h-2.327l.451 4.204zM17.769 14.136l.452-4.204h-2.328l1.876 4.204z"/><path fill="#ef4d6e" d="M17.769 14.207l-1.876-4.204-1.876 4.204h3.752zM11.69 16.107l4.203 7.457-2.802-7.457H11.69z"/><path fill="#ef4561" d="M9.362 15.774l2.328.452 4.203 7.481-6.531-7.933z"/><path fill="#ef4561" d="M13.091 16.226l1.876.475.926 7.006-2.802-7.481zM18.696 16.226l-2.803 7.481.926-7.006 1.877-.475z"/><path fill="#ef4d6e" d="M20.097 16.107l-4.204 7.457 2.803-7.457h1.401z"/><path fill="#ef4561" d="M22.424 15.537l-2.327.689-4.204 7.481 6.531-8.17z"/><path fill="#ef4d6e" d="M15.893 23.588l-.926-7.006h1.852l-.926 7.006z"/></svg>