<svg xmlns="http://www.w3.org/2000/svg" width="100%" height="100%" viewBox="-0.64 -0.64 33.28 33.28"><path fill="#7c7f3d" d="M27.5 5.5h-9.3l-2.1 4.2H4.4v16.8h25.2v-21zm0 4.2h-8.2l1.1-2.1h7.1z"/><path fill="#eaea28" d="M26.893 25.147H14.352c0-1.771-.005-3.537.018-5.3a6.083 6.083 0 013.13-5.491 14.624 14.624 0 011.715-.743 1.648 1.648 0 01-.168-1.454 2.246 2.246 0 01.612-.831 1.587 1.587 0 011.926 0c.692.5.822 1.168.451 2.291l1.976.827a4.6 4.6 0 002.883 7.8zm-13.09.844a.78.78 0 00-.881.6 9.553 9.553 0 00-.2 1.66c-.03.584.089.677.686.677 1.407 0 2.814.01 4.221-.008.354 0 .538.066.664.444A2.408 2.408 0 0020.658 31a2.435 2.435 0 002.293-1.685.474.474 0 01.536-.4h.019c1.463.019 2.927 0 4.39.008.272 0 .57-.039.593-.344a3.421 3.421 0 00-.274-2.141.812.812 0 00-.779-.448c-2.279.021-4.558.01-6.837.01s-4.531.02-6.8-.009zM27.264 13.98a3.713 3.713 0 10.048 0zm-14.585 4.231c0-.042-.259-4.161 4.619-5.887l-.225-.639a7.3 7.3 0 00-4.562 3.991 6.035 6.035 0 00-.5 2.587z"/><path fill="#fff" d="M26.585 19.651a.68.68 0 11.684.693.661.661 0 01-.684-.637.523.523 0 010-.056zm.25-1.074l-.175-3.451h1.209l-.169 3.451z"/></svg>