<svg xmlns="http://www.w3.org/2000/svg" width="100%" height="100%" viewBox="-0.64 -0.64 33.28 33.28"><defs><linearGradient id="a" x1="23.325" x2="7.26" y1="-118.543" y2="-104.193" gradientTransform="matrix(1 0 0 -1 0 -96)" gradientUnits="userSpaceOnUse"><stop offset="0" stop-color="#f4c058"/><stop offset="1" stop-color="#a88745"/></linearGradient><linearGradient id="b" x1="7.1" x2="23.001" y1="-104.002" y2="-118.292" gradientTransform="matrix(1 0 0 -1 0 -96)" gradientUnits="userSpaceOnUse"><stop offset="0" stop-color="#f4c058"/><stop offset="1" stop-color="#b58f41"/></linearGradient></defs><path fill="url(#a)" fill-rule="evenodd" d="M3.174 26.589a1.154 1.154 0 01-.928-.423 1.234 1.234 0 01-.21-1.052L6.233 6.78a1.8 1.8 0 011.681-1.37h20.912a1.157 1.157 0 01.928.423 1.235 1.235 0 01.21 1.052l-4.2 18.335a1.8 1.8 0 01-1.681 1.37H3.174z"/><path fill="url(#b)" fill-rule="evenodd" d="M7.914 5.646h20.912a.913.913 0 01.908 1.187l-4.2 18.334a1.575 1.575 0 01-1.451 1.187H3.174a.913.913 0 01-.908-1.187l4.2-18.334a1.574 1.574 0 011.448-1.187z"/><path fill="#87692e" fill-rule="evenodd" d="M16.04 21.544h5.086a1.118 1.118 0 010 2.234H16.04a1.118 1.118 0 010-2.234zM19.339 16.578a1.762 1.762 0 01-.591.6l-9.439 6.775a1.224 1.224 0 01-1.438-1.977l8.512-6.164v-.126L11.035 10a1.224 1.224 0 011.782-1.672l6.418 6.827a1.166 1.166 0 01.104 1.423z"/><path fill="#fff" fill-rule="evenodd" d="M19.1 16.342a1.749 1.749 0 01-.59.6l-9.436 6.776a1.225 1.225 0 01-1.439-1.977l8.513-6.164v-.127L10.8 9.761a1.224 1.224 0 011.783-1.672L19 14.916a1.162 1.162 0 01.1 1.426zM15.9 21.412h5.086a1.059 1.059 0 110 2.118H15.9a1.059 1.059 0 110-2.118z"/></svg>