<svg xmlns="http://www.w3.org/2000/svg" width="100%" height="100%" viewBox="-0.64 -0.64 33.28 33.28"><defs><linearGradient id="c" x1="-33.423" x2="-33.353" y1="-250.911" y2="-250.858" gradientTransform="matrix(37.134 26.001 13.575 -19.387 4673.473 -3982.019)" gradientUnits="userSpaceOnUse"><stop offset="0" stop-color="#767676"/><stop offset="1"/></linearGradient><linearGradient id="a" x1="-32.107" x2="-32.028" y1="-242.563" y2="-242.586" gradientTransform="matrix(81.081 56.774 17.306 -24.715 6804.021 -4149.644)" gradientUnits="userSpaceOnUse"><stop offset="0" stop-color="#0079b9"/><stop offset="1"/></linearGradient><linearGradient id="d" x1="-33.282" x2="-33.224" y1="-243.423" y2="-243.455" gradientTransform="matrix(60.003 42.015 34.184 -48.82 10343.005 -10469.084)" xlink:href="#a"/><linearGradient id="b" x1="12.356" x2="14.011" y1="26.268" y2="26.268" gradientUnits="userSpaceOnUse"><stop offset="0" stop-color="#595959"/><stop offset=".087" stop-color="#6e6e6e"/><stop offset=".242" stop-color="#8c8c8c"/><stop offset=".405" stop-color="#a4a4a4"/><stop offset=".577" stop-color="#b5b5b5"/><stop offset=".765" stop-color="#bfbfbf"/><stop offset="1" stop-color="#c2c2c2"/></linearGradient><linearGradient id="e" x1="18.291" x2="19.946" y1="26.171" y2="26.171" xlink:href="#b"/><linearGradient id="f" x1="24.44" x2="26.096" y1="26.171" y2="26.171" xlink:href="#b"/></defs><path fill="#1c0a42" d="M20.305 17.872l6.855 4.546-5.44 3.075-6.859-4.494 5.444-3.127z"/><path d="M21.716 25.619l-.055-.036-7.005-4.59 5.653-3.247 7.056 4.68zm-6.65-4.613l6.658 4.362 5.231-2.957L20.3 18z"/><path fill="url(#c)" d="M26.401 11.909l3.017 1.683-2.348 1.496-2.857-1.841 2.188-1.338z"/><path d="M27.069 15.215l-3.058-1.97 2.387-1.46 3.228 1.8zm-2.654-1.966l2.655 1.711 2.138-1.36-2.8-1.565z"/><path fill="#ffbd3f" d="M14.498 17.807l6.856 4.547-5.44 3.075-6.859-4.494 5.443-3.128z"/><path d="M15.91 25.554l-.055-.036-7.005-4.589 5.65-3.248 7.056 4.68zm-6.65-4.613l6.658 4.359 5.231-2.957-6.654-4.413z"/><path fill="#a11f40" d="M7.99 17.966l6.964 4.4-5.377 3.138-7.359-4.655 5.772-2.883z"/><path d="M9.575 25.629L2 20.838l6-3 7.164 4.527zM2.436 20.86l7.144 4.518 5.168-3.016-6.764-4.273z"/><path fill="url(#a)" d="M2.111 21.021l7.332 4.494v3.548l-7.332-4.731v-3.311z"/><path d="M9.55 29.26L2 24.391v-3.562l7.55 4.626zm-7.332-4.986l7.118 4.592v-3.291l-7.118-4.362z"/><path fill="url(#d)" d="M24.071 13.343l2.938 1.879v6.909l-2.938-1.884v-6.904z"/><path d="M27.063 22.229l-3.045-1.953v-7.031l3.045 1.947zm-2.938-2.012l2.831 1.815v-6.781l-2.831-1.81z"/><path fill="#fff" d="M27.149 22.526v-7.332l2.365-1.419v15.374H9.646v-3.548l5.44-3.075.699 3.075h.011l5.676-3.075.419 3.075h.054l5.204-3.075z"/><path d="M29.621 29.256H9.539v-3.718l5.62-3.177.7 3.083 5.7-3.087.422 3.1 5.061-2.991v-7.333l2.58-1.548zm-19.868-.215h19.654V13.964l-2.151 1.29v7.332l-.053.031-5.229 3.09H21.8l-.411-3.014-5.564 3.014H15.7l-.686-3.018-5.26 2.973z"/><rect width="1.656" height="1.656" x="12.356" y="25.44" fill="url(#b)" rx=".215" ry=".215"/><path d="M13.8 27.2h-1.23a.322.322 0 01-.322-.322v-1.223a.322.322 0 01.322-.322h1.23a.322.322 0 01.322.322v1.226a.322.322 0 01-.322.319zm-1.23-1.653a.108.108 0 00-.107.107v1.226a.108.108 0 00.107.107h1.23a.108.108 0 00.107-.107v-1.225a.108.108 0 00-.107-.107z"/><rect width="1.656" height="1.656" x="18.291" y="25.343" fill="url(#e)" rx=".215" ry=".215"/><path d="M19.732 27.106h-1.227a.322.322 0 01-.322-.322v-1.226a.322.322 0 01.322-.322h1.226a.322.322 0 01.322.322v1.226a.322.322 0 01-.321.322zm-1.226-1.656a.108.108 0 00-.107.107v1.226a.108.108 0 00.107.107h1.226a.108.108 0 00.107-.107v-1.225a.108.108 0 00-.107-.107z"/><rect width="1.656" height="1.656" x="24.44" y="25.343" fill="url(#f)" rx=".215" ry=".215"/><path d="M25.881 27.106h-1.226a.322.322 0 01-.322-.322v-1.226a.322.322 0 01.322-.322h1.226a.322.322 0 01.322.322v1.226a.322.322 0 01-.322.322zm-1.226-1.656a.108.108 0 00-.107.107v1.226a.108.108 0 00.107.107h1.226a.108.108 0 00.107-.107v-1.225a.108.108 0 00-.107-.107z"/><path fill="#ea2d2e" d="M27.215 11.23c-.052.069-.417-.262-.653-.526a4.408 4.408 0 01-.516-.73A2.6 2.6 0 0125.7 9.2a2.358 2.358 0 01-.052-.682 2.959 2.959 0 01.129-.749 3.142 3.142 0 01.787-1.207 15.532 15.532 0 001.283-1.4 3.062 3.062 0 00.479-.927 3.979 3.979 0 00.151-.855c.019-.364-.025-.593.023-.613s.215.274.287.564a3.167 3.167 0 01-.458 2.1 6.9 6.9 0 01-1.094 1.448 2.8 2.8 0 00-.849 1.234 2.466 2.466 0 00-.086.687 3.465 3.465 0 00.476 1.542c.288.572.48.833.439.888z"/><path d="M27.193 11.266c-.124 0-.492-.365-.651-.544a4.478 4.478 0 01-.52-.734 2.628 2.628 0 01-.346-.781 2.375 2.375 0 01-.053-.69 2.978 2.978 0 01.13-.756 3.208 3.208 0 01.793-1.216c.294-.331.5-.528.659-.686a4.393 4.393 0 00.622-.711 3.052 3.052 0 00.476-.919 3.951 3.951 0 00.15-.849c.008-.159 0-.294 0-.393 0-.159-.006-.225.038-.243a.05.05 0 01.043 0 1.226 1.226 0 01.28.579 3.167 3.167 0 01-.46 2.121 6.928 6.928 0 01-1.1 1.453c-.055.06-.109.116-.162.171a2.3 2.3 0 00-.681 1.052 2.47 2.47 0 00-.082.673 3.458 3.458 0 00.473 1.53c.114.231.215.415.289.549.129.235.178.323.142.369a.051.051 0 01-.04.02zM28.512 2.8a.863.863 0 000 .19c0 .1.007.236 0 .4a4.021 4.021 0 01-.152.861 3.106 3.106 0 01-.483.934 4.437 4.437 0 01-.629.719c-.162.158-.364.354-.657.683a3.168 3.168 0 00-.782 1.2 2.933 2.933 0 00-.128.743 2.325 2.325 0 00.052.675 2.59 2.59 0 00.341.767 4.422 4.422 0 00.513.725 2.035 2.035 0 00.611.526 1.183 1.183 0 00-.147-.31 12.935 12.935 0 01-.29-.551 3.5 3.5 0 01-.483-1.562 2.53 2.53 0 01.084-.688 2.375 2.375 0 01.694-1.075c.052-.055.106-.111.161-.171a6.879 6.879 0 001.09-1.442 3.119 3.119 0 00.456-2.083 1.281 1.281 0 00-.251-.541z"/><path fill="#ea2d2e" d="M29.972 6.087c-.019-.088-.432-.04-.766.073a2.6 2.6 0 00-1.059.722 2.8 2.8 0 00-.916 1.855 2.972 2.972 0 00.258 1.06c.221.572.455.773.444 1.225-.007.3-.114.484-.048.549s.314-.1.462-.313a1.8 1.8 0 00.259-1.022c-.046-.815-.6-1.015-.608-1.8a1.858 1.858 0 01.129-.676c.443-1.251 1.881-1.508 1.845-1.673z"/><path d="M27.934 11.617a.094.094 0 01-.069-.026c-.046-.046-.03-.122-.005-.237a1.718 1.718 0 00.045-.331 1.374 1.374 0 00-.214-.72 5 5 0 01-.228-.495 2.98 2.98 0 01-.259-1.07 2.81 2.81 0 01.923-1.874 2.64 2.64 0 011.07-.729 1.482 1.482 0 01.766-.1.065.065 0 01.037.046c.015.07-.092.121-.306.224a2.73 2.73 0 00-1.542 1.463 1.827 1.827 0 00-.127.667 1.645 1.645 0 00.291.885 1.889 1.889 0 01.317.914 1.814 1.814 0 01-.264 1.039.809.809 0 01-.421.342zm1.889-5.549a2.117 2.117 0 00-.608.117 2.588 2.588 0 00-1.048.715 2.764 2.764 0 00-.909 1.837 2.935 2.935 0 00.256 1.05 4.955 4.955 0 00.225.49 1.433 1.433 0 01.22.745 1.765 1.765 0 01-.047.341c-.019.091-.035.163-.009.188a.046.046 0 00.038.01.769.769 0 00.382-.32 1.793 1.793 0 00.254-1.005 1.844 1.844 0 00-.31-.89 1.711 1.711 0 01-.3-.911 1.877 1.877 0 01.13-.686 2.776 2.776 0 011.573-1.492c.126-.061.283-.136.277-.164l-.008-.007a.264.264 0 00-.116-.018z"/></svg>