<svg xmlns="http://www.w3.org/2000/svg" width="100%" height="100%" viewBox="-0.64 -0.64 33.28 33.28"><path fill="#7baddb" d="M27.4 5.5h-9.2l-2.1 4.2H4.3v16.8h25.2v-21zm0 18.7H6.6V11.8h20.8zm0-14.5h-8.2l1-2.1h7.1v2.1z"/><path fill="#7baddb" d="M25.7 13.7H.5l3.8 12.8h25.2l-3.8-12.8z"/><path fill="#3f5364" d="M17.344 23.685a4.575 4.575 0 003.2 1.33v-1.89a2.578 2.578 0 01-1.862-.77zM22.187 16.3l-.7 1.75a2.828 2.828 0 011.338 1.12h2.037a4.555 4.555 0 00-2.675-2.87z"/><path fill="#f18b21" d="M16.006 20.5a4.585 4.585 0 00.385 1.82l1.725-.77a2.557 2.557 0 01-.21-1.05 2.65 2.65 0 012.632-2.625v-1.89a4.534 4.534 0 00-4.532 4.515zM21.48 22.95l.7 1.75a4.536 4.536 0 002.7-2.9h-2.035a2.69 2.69 0 01-1.365 1.15z"/><path fill="#3f5364" d="M20.535 25.225A4.725 4.725 0 1125.1 19.2h1.827a6.493 6.493 0 100 2.625H25.1a4.725 4.725 0 01-4.565 3.4z"/><path fill="#3f5364" d="M20.535 13.78V12a8.494 8.494 0 00-7.935 5.42l1.65.63a6.786 6.786 0 016.285-4.27zM20.535 27.22V29a8.53 8.53 0 008.428-7.175h-1.827a6.7 6.7 0 01-6.601 5.395z"/><path fill="#f18b21" d="M27.171 19.2h1.792a8.55 8.55 0 00-5.341-6.615l-.63 1.645a6.834 6.834 0 014.179 4.97zM13.795 20.5H12a8.521 8.521 0 005.376 7.91l.665-1.645a6.772 6.772 0 01-4.246-6.265z"/><path fill="#3f5364" d="M29.173 19.2h1.792a10.847 10.847 0 00-1.512-4.235l-1.512.945a7.846 7.846 0 011.232 3.29zM10 20.507a11.055 11.055 0 00.931 4.536l1.736-.714a9.336 9.336 0 01-.861-3.825"/><path fill="#f18b21" d="M20.535 29.215a8.724 8.724 0 01-6.181-2.555l-1.267 1.26A10.384 10.384 0 0020.535 31 10.561 10.561 0 0031 21.8h-1.792a8.789 8.789 0 01-8.673 7.415zM20.535 11.785a8.535 8.535 0 015.229 1.75l1.092-1.435A10.573 10.573 0 0010.7 16.685l1.687.665a8.764 8.764 0 018.148-5.565z"/></svg>