<svg xmlns="http://www.w3.org/2000/svg" width="100%" height="100%" viewBox="-0.64 -0.64 33.28 33.28"><path fill="#db7bab" d="M27.4 5.5h-9.2l-2.1 4.2H4.3v16.8h25.2v-21zm0 18.7H6.6V11.8h20.8zm0-14.5h-8.2l1-2.1h7.1v2.1z"/><path fill="#db7bab" d="M25.7 13.7H.5l3.8 12.8h25.2l-3.8-12.8z"/><path fill="#fff" d="M22.308 22.525c-.361.166-.756.382-1.547.816-.3.169-.614.338-.905.5-.02-.02-.041-.046-.061-.066-1.565-1.673-4.46-2.854-4.337-5.1.046-.818.327-2.967 5.56-5.575 4.307-2.123 7.733-1.534 8.327-.23.849 1.862-1.836 5.319-6.286 5.821a3.352 3.352 0 01-2.813-.711c-.235-.256-.271-.271-.358-.22-.143.077-.051.307 0 .44a2.627 2.627 0 001.606 1.263 8.551 8.551 0 005.217-.517c2.7-1.043 4.8-3.943 4.184-6.373-.619-2.465-4.711-3.279-8.582-1.9a19.5 19.5 0 00-6.593 3.785c-2.133 1.995-2.47 3.729-2.332 4.455.5 2.578 4.051 4.255 5.473 5.5a8.554 8.554 0 01-.194.107c-.711.353-3.422 1.77-4.1 3.268-.767 1.7.123 2.915.711 3.079a4.374 4.374 0 004.711-1.908 4.725 4.725 0 00.419-4.353 3.772 3.772 0 01.537-.358c.363-.215.709-.426 1.016-.589a7.856 7.856 0 013.356-.742c2.435.286 2.915 1.805 2.823 2.445a1.618 1.618 0 01-.772 1.095c-.169.107-.225.143-.21.22.02.113.1.107.246.087a1.9 1.9 0 001.326-1.704c.077-1.5-1.355-3.146-3.887-3.13a5.815 5.815 0 00-2.209.44q-.168.07-.328.148zM18.689 28.4c-.808.88-1.933 1.212-2.419.931-.522-.3-.317-1.6.675-2.532a12.885 12.885 0 011.9-1.417c.118-.072.292-.174.5-.3l.056-.031.123-.077a3.493 3.493 0 01-.835 3.426z"/></svg>