<svg xmlns="http://www.w3.org/2000/svg" width="100%" height="100%" viewBox="-0.64 -0.64 33.28 33.28"><path fill="#56b0b7" d="M27.5 5.5h-9.3l-2.1 4.2H4.4v16.8h25.2v-21zm0 4.2h-8.2l1.1-2.1h7.1z"/><path fill="#d2d2d2" d="M28.922 23.857c-.018.671-1.313 1.137-.786 1.8 1.165.164.635.935 1.273 1.2-1.128 1.836-2.947 2.065-4.678.916a2.058 2.058 0 00-1.535-.3c-.264.423.13.472.381.534 1.214.242 2.444 2.123 6.561.331.549-.231.465-.91.228-1.444.456-.194.484-.7.551-1.354.449-1.468-1.017-1.34-1.995-1.683zm-6.473-3.19a5.522 5.522 0 00-1.73.723c.689.405.963.888 1.73.737s.752-.643.45-1.218a.453.453 0 00-.45-.242zM25.689 11c-.937.043-1.743 2.553-2.7 4.332-2.747 1.143-3.435-.339-4.332-.1-1.528-3.114-3.8-6.237-4.409-2.522.135 2.8-.985 3.035-.885 7.037 0 0-2 4.019-1.183 7.575A4.748 4.748 0 0016.131 31c.143-1.025 1.749-3.336 1.309-3.876-1.1-1.345-.753-4.642 2.029-4.982.38-2.774 2.267-2.252 2.071-3.054-.605-2.513 2-1.34 2.442-.516a18.889 18.889 0 001.984 3.2 6.643 6.643 0 001.993 1.22 10.837 10.837 0 01-2.82-3.2 8.971 8.971 0 01-.316-2.659c1.015-.159 1.424 1.549 2.526 3.1a.318.318 0 010 .276c-.151-.08-.2-.282-.387-.306-.166 0-.3.236-.3.526s.22.395.522.531a2.535 2.535 0 001.28 1.2l-1.357-3.97c-.05-2.487.214-4.974-1.228-7.461a.576.576 0 00-.19-.029zm.013.793c.075 0 .143.05.207.165.752 1.414.78 4.732.774 5.906a3.823 3.823 0 00-2.579-2.6s.985-3.464 1.596-3.471zm-10.102.316c.343 0 .733.2 1.184 1.024.724 1.319 1.242 2.2 1.494 2.653.516.929-.225.194-.457 2.579a1.131 1.131 0 01-.572.937 7.761 7.761 0 01-1.659-3.622c-.72 1.072.467 2.724.487 4.139a3.042 3.042 0 01-1.615.02c-.371-.186-.493-2.45.2-4.208.572-1.464.3-3.326.556-3.407.171-.056.172-.114.382-.115z"/></svg>