<svg xmlns="http://www.w3.org/2000/svg" width="100%" height="100%" viewBox="-0.64 -0.64 33.28 33.28"><path fill="#fdb300" d="M8.109 4.26L16 3.433l7.891.828L30 12.4 16 28.567 2 12.4z"/><path fill="#ea6c00" d="M7.671 12.395L16 28.567 2 12.395h5.671zM24.329 12.395L16 28.567l14-16.172h-5.671z"/><path fill="#fdad00" d="M7.671 12.395h16.658L16 28.567 7.671 12.395z"/><path fill="#fdd231" d="M16 3.433l-7.891.827-.438 8.135L16 3.433zM16 3.433l7.891.827.438 8.135L16 3.433z"/><path fill="#fdad00" d="M30 12.395L23.891 4.26l.438 8.135H30zM2 12.395L8.109 4.26l-.438 8.135H2z"/><path fill="#feeeb7" d="M16 3.433l-8.329 8.962h16.658L16 3.433z"/></svg>