<svg xmlns="http://www.w3.org/2000/svg" width="100%" height="100%" viewBox="-0.64 -0.64 33.28 33.28"><path fill="#ff931e" d="M8.533 12.742h3.733v3.734H8.533zM14.133 12.742h3.733v3.734h-3.733zM19.733 12.742h3.733v3.734h-3.733zM8.533 18.342h3.733v3.734H8.533zM14.133 18.342h3.733v3.734h-3.733zM19.733 18.342h3.733v3.734h-3.733z"/><path fill="#675f58" d="M27.367 4.92H4.632A2.637 2.637 0 002 7.552v16.9a2.637 2.637 0 002.632 2.628h22.735A2.637 2.637 0 0030 24.448V7.552a2.638 2.638 0 00-2.633-2.632zm1.2 19.528a1.207 1.207 0 01-1.2 1.2H4.632a1.207 1.207 0 01-1.2-1.2V9.24h25.133v15.208z"/></svg>