<svg xmlns="http://www.w3.org/2000/svg" width="100%" height="100%" viewBox="-0.64 -0.64 33.28 33.28"><path fill="#95538e" d="M14.188 19.163l-2.967-5.218-6.388 11.248A1.679 1.679 0 006.292 27.7h3.952a1.683 1.683 0 001.46-.85l2.482-4.371a3.366 3.366 0 00.002-3.316zM12.965 14.057a3.358 3.358 0 002.925 1.7h5.86L14.418 2.85A1.677 1.677 0 0012.965 2h-3.96a1.679 1.679 0 00-1.679 1.678 1.661 1.661 0 00.22.831zM27.171 25.191l-3.528-6.262a3.355 3.355 0 00-2.927-1.712h-5.851l5.42 9.623a1.675 1.675 0 001.462.854h3.96a1.679 1.679 0 001.464-2.5zM16.015 22.259l-2.234 3.87A2.58 2.58 0 0016.015 30a2.58 2.58 0 002.235-3.871z"/></svg>