<svg xmlns="http://www.w3.org/2000/svg" width="100%" height="100%" viewBox="-0.64 -0.64 33.28 33.28"><path fill="#ce3f31" d="M16 30A13.859 13.859 0 012.286 16 14.149 14.149 0 016.3 6.1a13.517 13.517 0 0119.4 0 14.149 14.149 0 014.014 9.9A13.859 13.859 0 0116 30z"/><path fill="#fff" d="M11.869 23.015h-.4a4.263 4.263 0 01-1.048-.113 1.387 1.387 0 01-.767-.548 2.2 2.2 0 01-.409-1.026 13.28 13.28 0 01-.086-1.728 12.78 12.78 0 00-.08-1.687 1.773 1.773 0 00-.405-.924 1.325 1.325 0 00-1.026-.391V15.4a1.325 1.325 0 001.026-.391 1.773 1.773 0 00.405-.924 12.78 12.78 0 00.08-1.687 13.28 13.28 0 01.084-1.731 2.2 2.2 0 01.409-1.026 1.387 1.387 0 01.767-.548 4.263 4.263 0 011.048-.113h.4v1.14h-.226q-.76 0-.931.4a7.72 7.72 0 00-.172 2.17 4.876 4.876 0 01-.416 2.316A2.117 2.117 0 018.859 16a2.089 2.089 0 011.264.986 4.876 4.876 0 01.417 2.314 7.72 7.72 0 00.172 2.17q.172.4.931.4h.226zm1.6-3.141h1.035V16.42h1.459l1.97 3.454h1.184l-2.077-3.566a2.243 2.243 0 001.833-2.319c0-1.7-1.2-2.294-2.855-2.294h-2.544zm1.035-4.3V12.53h1.359c1.272 0 1.97.386 1.97 1.459s-.7 1.583-1.97 1.583zm5.557-6.591h.4a4.263 4.263 0 011.048.113 1.387 1.387 0 01.767.548 2.2 2.2 0 01.409 1.026 13.28 13.28 0 01.084 1.731 12.78 12.78 0 00.08 1.687 1.773 1.773 0 00.405.924 1.325 1.325 0 001.026.391v1.191a1.325 1.325 0 00-1.026.391 1.773 1.773 0 00-.405.924 12.78 12.78 0 00-.08 1.687 13.28 13.28 0 01-.084 1.731 2.2 2.2 0 01-.409 1.026 1.387 1.387 0 01-.767.548 4.263 4.263 0 01-1.048.113h-.4v-1.14h.226q.76 0 .931-.4A7.72 7.72 0 0021.4 19.3a4.876 4.876 0 01.416-2.316A2.089 2.089 0 0123.075 16a2.117 2.117 0 01-1.264-.994 4.876 4.876 0 01-.416-2.316 7.72 7.72 0 00-.172-2.17q-.172-.4-.931-.4h-.226z"/></svg>