<svg xmlns="http://www.w3.org/2000/svg" width="100%" height="100%" viewBox="-0.64 -0.64 33.28 33.28"><defs><linearGradient id="a" x1="54.604" x2="54.604" y1="168.388" y2="194.885" gradientTransform="translate(-38.604 -165.636)" gradientUnits="userSpaceOnUse"><stop offset="0" stop-color="#d8d8d8"/><stop offset="1" stop-color="#a3a3a3"/></linearGradient><linearGradient id="b" x1="68.756" x2="91.638" y1="209.152" y2="209.152" gradientTransform="matrix(.832 0 0 .837 -50.601 -159.449)" gradientUnits="userSpaceOnUse"><stop offset="0" stop-color="#d7d7d7"/><stop offset=".5" stop-color="#e7e7e7"/><stop offset="1" stop-color="#d7d7d7"/></linearGradient></defs><rect width="28" height="26.353" x="2" y="2.824" fill="url(#a)" rx="3.088" ry="3.088"/><path fill="#8d8d8d" d="M26.856 29.181H5.144A3.148 3.148 0 012 26.037V5.963a3.148 3.148 0 013.144-3.144h21.712A3.148 3.148 0 0130 5.963v20.074a3.148 3.148 0 01-3.144 3.144zM5.144 2.963a3 3 0 00-3 3v20.074a3 3 0 003 3h21.712a3 3 0 003-3V5.963a3 3 0 00-3-3z"/><rect width="23.169" height="21.94" x="4.313" y="4.641" fill="url(#b)" rx="2.571" ry="2.571"/><path fill="#f8f8f8" d="M24.911 26.641H6.884a2.634 2.634 0 01-2.631-2.631V7.212a2.634 2.634 0 012.631-2.631h18.027a2.634 2.634 0 012.631 2.631v16.8a2.634 2.634 0 01-2.631 2.629zM6.884 4.7a2.514 2.514 0 00-2.511 2.512v16.8a2.514 2.514 0 002.511 2.511h18.027a2.514 2.514 0 002.511-2.511v-16.8A2.514 2.514 0 0024.911 4.7z"/><path d="M6.145 23.9l2.343-6.1h.87l2.5 6.1h-.92l-.712-1.848H7.673L7 23.9zM7.9 21.4h2.074l-.637-1.7q-.291-.77-.433-1.265a7.776 7.776 0 01-.328 1.165zM13.607 23.9v-6.1h.807v2.5h3.171v-2.5h.807v6.1h-.807v-2.879h-3.17V23.9zM20.478 23.9v-6.1h.807v3.025l3.03-3.025h1.094l-2.559 2.467 2.672 3.633h-1.066l-2.172-3.088-1 .974V23.9z"/></svg>