<svg xmlns="http://www.w3.org/2000/svg" width="100%" height="100%" viewBox="-0.64 -0.64 33.28 33.28"><path fill="#f8b424" d="M29.3 17.7L17.7 29.3a2.42 2.42 0 01-3.41 0L2.7 17.7a2.42 2.42 0 010-3.41L14.3 2.7a2.42 2.42 0 013.41 0L29.3 14.3a2.42 2.42 0 010 3.4z"/><path d="M16 5.5a1.807 1.807 0 011.279.527l8.694 8.694a1.815 1.815 0 010 2.558l-8.694 8.694a1.816 1.816 0 01-2.558 0l-8.694-8.694a1.815 1.815 0 010-2.558l8.694-8.694A1.807 1.807 0 0116 5.5m0-1.286a3.073 3.073 0 00-2.188.9l-8.694 8.698a3.1 3.1 0 000 4.376l8.694 8.694a3.1 3.1 0 004.376 0l8.694-8.694a3.1 3.1 0 000-4.376l-8.694-8.694A3.073 3.073 0 0016 4.214z"/><path d="M13.062 21.062V10.938h3.28a11.914 11.914 0 012.431.152 2.652 2.652 0 011.457.991 3.145 3.145 0 01.587 1.971 3.309 3.309 0 01-.338 1.568 2.785 2.785 0 01-.86 1 2.974 2.974 0 01-1.06.48 11.641 11.641 0 01-2.12.145h-1.333v3.819zm2.044-8.411v2.872h1.119a5.3 5.3 0 001.616-.158 1.333 1.333 0 00.87-1.285 1.3 1.3 0 00-.325-.911 1.409 1.409 0 00-.822-.449 9.831 9.831 0 00-1.471-.069z"/></svg>