<svg xmlns="http://www.w3.org/2000/svg" width="100%" height="100%" viewBox="-0.64 -0.64 33.28 33.28"><defs><radialGradient id="a" cx="-100.943" cy="-69.047" r=".004" gradientTransform="matrix(2074.534 0 0 -2395.464 209432.559 -165379.819)" gradientUnits="userSpaceOnUse"><stop offset="0" stop-color="#93b4e7"/><stop offset=".593" stop-color="#b9d1f8"/><stop offset="1" stop-color="#9cb6e0"/></radialGradient></defs><path fill="#8da2cc" d="M27.4 5.5h-9.2l-2.1 4.2H4.3v16.8h25.2v-21zm0 18.7H6.6V11.8h20.8zm0-14.5h-8.2l1-2.1h7.1v2.1z"/><path fill="#8da2cc" d="M25.7 13.7H.5l3.8 12.8h25.2l-3.8-12.8z"/><path fill="url(#a)" d="M21.9 10.032l-9.079 5.242v10.484L21.9 31l9.079-5.242V15.274z"/><path fill="#6f95db" d="M21.9 15.35l-4.5 2.6v5.2l4.5 2.6 4.5-2.6v-5.2z"/><path fill="#fff" fill-opacity=".1" d="M21.9 10l-9.1 5.278 9.1 4.954L31 15.31zm0 10.911l-9.1 4.824 9.1 5.245 9.066-5.28-9.066-4.789z"/></svg>