<svg xmlns="http://www.w3.org/2000/svg" width="100%" height="100%" viewBox="-0.64 -0.64 33.28 33.28"><path fill="#e24329" d="M16 28.896l5.156-15.867H10.844L16 28.896z"/><path fill="#fc6d26" d="M16 28.896l-5.156-15.867H3.619L16 28.896z"/><path fill="#fca326" d="M3.619 13.029l-1.567 4.822a1.067 1.067 0 00.388 1.193L16 28.9 3.619 13.029z"/><path fill="#e24329" d="M3.619 13.029h7.225L7.739 3.473a.534.534 0 00-1.015 0l-3.105 9.556z"/><path fill="#fc6d26" d="M16 28.896l5.156-15.867h7.225L16 28.896z"/><path fill="#fca326" d="M28.381 13.029l1.567 4.822a1.067 1.067 0 01-.388 1.193L16 28.9l12.381-15.871z"/><path fill="#e24329" d="M28.381 13.029h-7.225l3.105-9.557a.534.534 0 011.015 0l3.105 9.557z"/></svg>