<svg xmlns="http://www.w3.org/2000/svg" width="100%" height="100%" viewBox="-0.64 -0.64 33.28 33.28"><path fill="#59a5d2" d="M29.635 10.884l-3.9-3.909a.506.506 0 00-.717 0l-3.857 3.868a.506.506 0 000 .715L25.581 16s3.916-3.635 4.15-4.823a.325.325 0 00-.096-.293z"/><path fill="#337db8" d="M25.574 16.341l-4.589-4.61a.753.753 0 010-1.061l3.857-3.87a.746.746 0 01.532-.221.747.747 0 01.532.221l3.9 3.909a.573.573 0 01.162.513c-.242 1.231-3.817 4.579-4.224 4.956zm-.2-9.269a.259.259 0 00-.184.077l-3.857 3.868a.261.261 0 000 .368l4.254 4.274c1.548-1.454 3.748-3.745 3.9-4.529a.085.085 0 00-.028-.072l-3.9-3.909a.259.259 0 00-.185-.077z"/><path fill="#71c4f7" d="M29.74 11.07c0 1.086-4.159 4.93-4.159 4.93L16 25.583s-4.683 4.508-5.418 3.755l.184.188a.875.875 0 00.678.228h9.14a1.012 1.012 0 00.716-.3l8.161-8.154a.935.935 0 00.3-.716z"/><path fill="#337db8" d="M20.584 30h-9.14a1.115 1.115 0 01-.839-.288l-.2-.2.349-.345s.366.257 2.652-1.612a46.006 46.006 0 002.42-2.148l9.577-9.579c1.585-1.465 4.088-4.044 4.087-4.756h.491L30 20.581a1.168 1.168 0 01-.362.883l-8.168 8.168a1.251 1.251 0 01-.886.368zm-9.2-.492h9.2a.762.762 0 00.542-.225l8.161-8.161a.684.684 0 00.225-.542l-.016-8.43a31.454 31.454 0 01-3.749 4.029l-9.574 9.576a21.351 21.351 0 01-4.786 3.753z"/><path fill="#59a5d2" d="M16 25.583L6.413 16c-1.844 1.739-4.569 4.6-3.8 5.37l7.966 7.972c.748.749 5.421-3.759 5.421-3.759z"/><path fill="#337db8" d="M10.793 29.652a.519.519 0 01-.386-.142l-7.965-7.97a.739.739 0 01-.206-.548c.018-1.23 2.52-3.769 4.009-5.174l.174-.164 9.932 9.932-.18.174c-1.592 1.535-4.224 3.892-5.378 3.892zM6.409 16.339C4.11 18.528 2.738 20.262 2.727 21a.244.244 0 00.062.194l7.967 7.972c.265.269 2.4-1.2 4.893-3.585z"/><path fill="#71c4f7" d="M6.413 16l13.58-13.582a.1.1 0 00-.072-.173h-8.514a1.012 1.012 0 00-.716.3L2.539 10.7a1.012 1.012 0 00-.3.716v9.343a.447.447 0 00.167.392l.206.219c-.785-.826 2.1-3.662 3.801-5.37z"/><path fill="#337db8" d="M2.438 21.536l-.009-.009-.2-.211A.675.675 0 012 20.755v-9.343a1.25 1.25 0 01.368-.889l8.153-8.154A1.25 1.25 0 0111.407 2h8.514a.347.347 0 01.245.592L6.4 16.362c-1.253 1.259-4.185 4.2-3.608 4.83l.005.006zm8.969-19.045a.762.762 0 00-.542.225L2.712 10.87a.762.762 0 00-.225.542v8.758a21.8 21.8 0 013.56-4.155l.191-.192L19.573 2.491z"/></svg>