<svg xmlns="http://www.w3.org/2000/svg" width="100%" height="100%" viewBox="-0.64 -0.64 33.28 33.28"><path fill="#1e78b3" d="M20.092 29v-9.318a6.953 6.953 0 01-2.392 1.963 6.743 6.743 0 01-3.089.724A6.557 6.557 0 019.413 20 11.081 11.081 0 017 12.475 10.033 10.033 0 019.264 5.5a7.251 7.251 0 015.61-2.5 6.266 6.266 0 013.2.785 7.329 7.329 0 012.4 2.373V3.419H25V29zm.157-16.542a6.492 6.492 0 00-1.16-4.232 3.634 3.634 0 00-2.905-1.387 3.742 3.742 0 00-2.975 1.413 6.881 6.881 0 00-1.2 4.485 6.767 6.767 0 001.152 4.406 3.593 3.593 0 002.848 1.357 3.786 3.786 0 002.966-1.518 6.889 6.889 0 001.274-4.524z"/></svg>