<svg xmlns="http://www.w3.org/2000/svg" width="100%" height="100%" viewBox="-0.64 -0.64 33.28 33.28"><path fill="#0072c6" d="M19.484 7.937v5.477l1.916 1.205a.489.489 0 00.21 0l8.238-5.554a1.174 1.174 0 00-.959-1.128z"/><path fill="#0072c6" d="M19.484 15.457l1.747 1.2a.522.522 0 00.543 0c-.3.181 8.073-5.378 8.073-5.378v10.066a1.408 1.408 0 01-1.49 1.555h-8.874v-7.443zM10.44 12.932a1.609 1.609 0 00-1.42.838 4.131 4.131 0 00-.526 2.218A4.05 4.05 0 009.02 18.2a1.6 1.6 0 002.771.022 4.014 4.014 0 00.515-2.2 4.369 4.369 0 00-.5-2.281 1.536 1.536 0 00-1.366-.809z"/><path fill="#0072c6" d="M2.153 5.155v21.427L18.453 30V2zm10.908 14.336a3.231 3.231 0 01-2.7 1.361 3.19 3.19 0 01-2.64-1.318A5.459 5.459 0 016.706 16.1a5.868 5.868 0 011.036-3.616 3.267 3.267 0 012.744-1.384 3.116 3.116 0 012.61 1.321 5.639 5.639 0 011 3.484 5.763 5.763 0 01-1.035 3.586z"/></svg>