<svg xmlns="http://www.w3.org/2000/svg" width="100%" height="100%" viewBox="-0.64 -0.64 33.28 33.28"><path fill="green" d="M17.866 15.509l-.98.98-.98-.978-1.957-1.957.977-.977 1.957 1.957 4.891-4.894.98.977-4.888 4.892z"/><path fill="#c00000" d="M14.454 21.443h8.303v1.383h-8.303z"/><path fill="#cfcfcf" d="M2 5.74v23.709h24.909V5.74zm23.477 22.449l-22.083-.058.023-20.974h22.077zM6.151 10.951v5.534h5.534v-5.534zM10.3 15.1H7.534v-2.766H10.3zm-4.151 4.22v5.534h5.534v-5.531zm4.151 4.154H7.534v-2.765H10.3zM30 2.551V26.24h-1.431L28.549 4l-22.4-.029v-1.42H30z"/></svg>