<svg xmlns="http://www.w3.org/2000/svg" width="100%" height="100%" viewBox="-0.64 -0.64 33.28 33.28"><path fill="#8ebf55" d="M27.5 5.5h-9.3l-2.1 4.2H4.4v16.8h25.2v-21zm0 4.2h-8.2l1.1-2.1h7.1z"/><path fill="#fff" d="M21.688 31a1.613 1.613 0 01-.807-.216l-2.57-1.52c-.383-.215-.2-.291-.07-.335A5.121 5.121 0 0019.4 28.4a.2.2 0 01.191.015l1.974 1.172a.255.255 0 00.239 0l7.7-4.442a.242.242 0 00.118-.208v-8.881a.248.248 0 00-.119-.212l-7.692-4.438a.243.243 0 00-.238 0l-7.693 4.439a.247.247 0 00-.122.211v8.881a.236.236 0 00.121.206l2.108 1.218c1.144.572 1.845-.1 1.845-.778v-8.769a.221.221 0 01.223-.222h.976a.222.222 0 01.222.222v8.769a2.132 2.132 0 01-2.278 2.4A3.292 3.292 0 0115.2 27.5l-2.018-1.162a1.625 1.625 0 01-.807-1.4v-8.882a1.621 1.621 0 01.807-1.4l7.7-4.447a1.685 1.685 0 011.617 0l7.7 4.447a1.624 1.624 0 01.808 1.4v8.881a1.628 1.628 0 01-.808 1.4l-7.7 4.443a1.614 1.614 0 01-.811.22z"/><path fill="#fff" d="M20.231 21.965a.221.221 0 01.222-.222h1a.223.223 0 01.221.188c.15 1.013.6 1.524 2.634 1.524 1.621 0 2.311-.367 2.311-1.227 0-.5-.2-.864-2.715-1.111-2.106-.208-3.408-.674-3.408-2.358 0-1.553 1.309-2.479 3.5-2.479 2.466 0 3.685.856 3.84 2.691a.222.222 0 01-.221.242h-1a.222.222 0 01-.216-.174c-.239-1.066-.823-1.407-2.4-1.407-1.77 0-1.975.617-1.975 1.079 0 .56.243.723 2.632 1.039 2.365.313 3.488.755 3.488 2.418s-1.4 2.637-3.836 2.637c-3.372.002-4.077-1.543-4.077-2.84z"/></svg>