<svg xmlns="http://www.w3.org/2000/svg" width="100%" height="100%" viewBox="-0.64 -0.64 33.28 33.28"><circle cx="16" cy="16" r="14"/><path fill="#fff" d="M14.651 7.525l-.011-.011a1.556 1.556 0 00-2.2 0l-7.38 7.38a1.556 1.556 0 000 2.2l7.38 7.38a1.556 1.556 0 002.2 0l.011-.011a1.556 1.556 0 000-2.2L9.04 16.654a.933.933 0 010-1.32l5.61-5.609a1.556 1.556 0 00.001-2.2zM17.221 7.519l.011-.011a1.556 1.556 0 012.2 0l7.38 7.38a1.556 1.556 0 010 2.2l-7.38 7.38a1.556 1.556 0 01-2.2 0l-.011-.011a1.556 1.556 0 010-2.2l5.611-5.609a.933.933 0 000-1.32l-5.611-5.609a1.556 1.556 0 010-2.2z"/></svg>