<svg xmlns="http://www.w3.org/2000/svg" width="100%" height="100%" viewBox="-0.64 -0.64 33.28 33.28"><path fill="#828282" d="M23.425 2.937L30 2.94v6.573l-1.951-.029.021-3.714L18.827 15 11.4 8.656l-8.018 7.421L2 14.727l9.379-8.614 7.439 6.116 7.344-7.362-2.73.005-.008-1.935z"/><path fill="#828282" d="M24.365 11.708l1.911-1.884v19.227h-1.924l.013-17.342zM9.468 12.7l1.922-1.783-.016 18.148-1.906-.016V12.7zM13.2 12.5l1.908 1.619-.008 14.939-1.911-.008.011-16.55zM20.645 15.583l1.908-2.039.005 15.5h-1.927l.013-13.467zM5.742 16.191l1.924-1.826.027 14.682H5.748l-.006-12.856zM16.918 15.66l1.914 1.64.005 11.748H16.91l.008-13.39z"/></svg>