<svg xmlns="http://www.w3.org/2000/svg" width="100%" height="100%" viewBox="-0.64 -0.64 33.28 33.28"><path fill="#7fadb2" d="M7.556 14.485c-.024.3.137 2.121.2 3.181a36.589 36.589 0 00.22 3.9 6.052 6.052 0 002.279 4.241 10.921 10.921 0 005.117 1.647 11.873 11.873 0 004.961-.671 5.374 5.374 0 003-3.22 5.008 5.008 0 00-.351-4.066 5.858 5.858 0 00-3.541-2.208 10.167 10.167 0 00-5.236.157 8.084 8.084 0 00-3.177 1.877.747.747 0 00-.115 1.113c.289.321.676.385 1.3 0 .487-.3.977-1.016 1.693-1.114.252-.026.316.149.21.351a3.338 3.338 0 00-.076 2.527 3.233 3.233 0 002.173 1.753 3.487 3.487 0 003.085-.911 2.917 2.917 0 00.6-2.875.835.835 0 00-.771-.49.412.412 0 00-.316.315c-.025.124.193.237.14.351a.683.683 0 01-1.051.351.852.852 0 01-.175-1.051 1.508 1.508 0 011.4-.491 2.849 2.849 0 012.208 1.227 3.4 3.4 0 01-.141 3.225 4.906 4.906 0 01-3.225 1.823A9.11 9.11 0 0113.374 25a4.707 4.707 0 01-3.19-3.295 24.763 24.763 0 01-.22-4.074A4.708 4.708 0 009.333 15a1.826 1.826 0 00-1.427-.763c-.22-.024-.371.083-.35.248z"/><path fill="#fff" d="M16.256 27.52a8.221 8.221 0 01-.886-.045 10.8 10.8 0 01-5.127-1.651 6.064 6.064 0 01-2.288-4.256A17.719 17.719 0 017.779 19a31.667 31.667 0 00-.044-1.333c-.023-.38-.059-.862-.093-1.328-.063-.851-.122-1.654-.108-1.855A.217.217 0 017.6 14.3a.374.374 0 01.313-.082 1.855 1.855 0 011.441.771 4.651 4.651 0 01.63 2.611v.029c.02.445.021.9.023 1.335a12.824 12.824 0 00.2 2.735 4.686 4.686 0 003.176 3.279 9.066 9.066 0 004.583.42 4.734 4.734 0 003.21-1.813 3.359 3.359 0 00.14-3.2 2.85 2.85 0 00-2.192-1.216 1.489 1.489 0 00-1.382.481.831.831 0 00.168 1.023.694.694 0 00.658.07.574.574 0 00.362-.406c.024-.052-.018-.105-.061-.161a.248.248 0 01-.079-.189.436.436 0 01.334-.332.851.851 0 01.793.5 2.945 2.945 0 01-.6 2.9 3.527 3.527 0 01-3.1.917 3.237 3.237 0 01-2.188-1.765 3.494 3.494 0 01.023-2.461.24.24 0 01.051-.087.25.25 0 00.018-.249.213.213 0 00-.211-.066 2.372 2.372 0 00-1.185.707 3.778 3.778 0 01-.5.4c-.578.358-1 .356-1.324 0a.768.768 0 01-.2-.554.853.853 0 01.318-.588 8.1 8.1 0 013.181-1.883 10.262 10.262 0 015.248-.157A5.7 5.7 0 0123 19.486a5 5 0 01.353 4.084 5.377 5.377 0 01-3.012 3.23 12.34 12.34 0 01-4.085.72zM7.843 14.257a.3.3 0 00-.217.074.176.176 0 00-.049.152c-.015.194.045 1 .108 1.85.034.466.07.948.093 1.328.026.445.035.9.044 1.335A17.687 17.687 0 008 21.562a6.023 6.023 0 002.27 4.228 10.76 10.76 0 005.107 1.643 11.933 11.933 0 004.951-.669 5.336 5.336 0 002.984-3.208 4.961 4.961 0 00-.349-4.048 5.664 5.664 0 00-3.528-2.2 10.221 10.221 0 00-5.225.157 8.067 8.067 0 00-3.168 1.873.812.812 0 00-.3.559.726.726 0 00.19.524c.313.347.705.346 1.271 0a3.743 3.743 0 00.493-.4A2.4 2.4 0 0113.9 19.3a.246.246 0 01.25.084.292.292 0 01-.019.3v.007h-.008a3.346 3.346 0 00-.058 2.5 3.193 3.193 0 002.158 1.741 3.484 3.484 0 003.066-.9 2.9 2.9 0 00.592-2.853.816.816 0 00-.75-.478.39.39 0 00-.3.3c-.01.05.031.1.071.155s.1.129.068.2a.613.613 0 01-.386.433.736.736 0 01-.7-.073.878.878 0 01-.182-1.08 1.527 1.527 0 011.422-.5 2.893 2.893 0 012.225 1.237 3.4 3.4 0 01-.141 3.246 4.773 4.773 0 01-3.238 1.832 9.108 9.108 0 01-4.6-.422 4.728 4.728 0 01-3.2-3.309 12.855 12.855 0 01-.2-2.744c0-.438 0-.89-.023-1.334V17.6a4.621 4.621 0 00-.626-2.588 1.816 1.816 0 00-1.409-.755.555.555 0 00-.069 0z"/><path fill="#7fadb2" d="M10.31 6.11a1.266 1.266 0 00-.833 1.279 74.929 74.929 0 002.273 8.892 1.163 1.163 0 001.076.487c.353-.106.52-.572.589-.934a64.078 64.078 0 00-1.705-8.993 1.3 1.3 0 00-1.4-.731z"/><path fill="#fff" d="M12.653 16.814a1.332 1.332 0 01-.919-.52v-.007a75.532 75.532 0 01-2.278-8.895 1.291 1.291 0 01.848-1.3 1.317 1.317 0 011.425.744 63.464 63.464 0 011.707 9v.007c-.058.3-.213.834-.6.951a.62.62 0 01-.183.02zm-.884-.544a1.143 1.143 0 001.051.478c.368-.11.517-.619.574-.915a63.415 63.415 0 00-1.7-8.985 1.289 1.289 0 00-1.375-.717A1.247 1.247 0 009.5 7.388a75.568 75.568 0 002.269 8.882z"/><path fill="#7fadb2" d="M15 4.506c-.581.053-.948.758-1.016 1.288a84.584 84.584 0 001 9.729.866.866 0 001 .672c.437-.012.686-.469.716-.9a72.746 72.746 0 00-.421-9.754A1.343 1.343 0 0015 4.506z"/><path fill="#fff" d="M15.792 16.245a.964.964 0 01-.829-.716 85.2 85.2 0 01-1-9.735c.065-.513.429-1.255 1.034-1.31a1.366 1.366 0 011.3 1.052 71.984 71.984 0 01.421 9.758c-.03.448-.292.907-.733.921a.656.656 0 01-.193.03zm-.71-11.723a.721.721 0 00-.08 0c-.582.053-.933.774-1 1.27a85.253 85.253 0 001 9.723.847.847 0 00.971.656h.006c.418-.012.666-.452.7-.881a71.972 71.972 0 00-.42-9.748 1.347 1.347 0 00-1.177-1.02z"/><path fill="#7fadb2" d="M20.019 5.875c-.525-.056-.976.506-1.13.966a76.758 76.758 0 00-.831 8.827c.051.425.356.817.769.774.39.066.693-.3.8-.675a65.8 65.8 0 001.348-8.746 1.217 1.217 0 00-.956-1.146z"/><path fill="#fff" d="M18.919 16.47a.568.568 0 01-.092-.008c-.431.043-.738-.369-.789-.793a77.3 77.3 0 01.831-8.832c.149-.445.6-1.041 1.152-.983a1.239 1.239 0 01.971 1.167 65.149 65.149 0 01-1.349 8.75.854.854 0 01-.724.699zm-.091-.05c.372.062.67-.284.772-.66a65.11 65.11 0 001.348-8.74 1.192 1.192 0 00-.931-1.12c-.526-.057-.964.523-1.107.951a77.365 77.365 0 00-.83 8.821c.048.4.34.794.745.753z"/><path fill="#7fadb2" d="M23.8 8.739c-.436-.1-.874.312-1.054.672a62.105 62.105 0 00-1.646 7.135.653.653 0 00.564.714.667.667 0 00.74-.469 52.941 52.941 0 002.076-7.015 1 1 0 00-.68-1.037z"/><path fill="#fff" d="M21.8 17.3a.485.485 0 01-.136-.02.676.676 0 01-.582-.735 62.539 62.539 0 011.645-7.141c.175-.35.624-.791 1.079-.687a1.028 1.028 0 01.694 1.062 52.4 52.4 0 01-2.073 7.02.752.752 0 01-.627.501zm1.867-8.556a1.176 1.176 0 00-.9.676 62.589 62.589 0 00-1.642 7.129.633.633 0 00.544.689h.006a.647.647 0 00.715-.457 52.348 52.348 0 002.07-7.01.981.981 0 00-.66-1.014.579.579 0 00-.132-.012z"/><path fill="#333" d="M10.029 2.02h15.517a4.184 4.184 0 012.546 1.088 6.3 6.3 0 011.818 3.775 8.157 8.157 0 00.09.849v.489a.929.929 0 01-.409.649 1.588 1.588 0 01-.9.14H26.5v16.157a4.763 4.763 0 01-.709 2.516 4.833 4.833 0 01-2.506 2 5.8 5.8 0 01-1.278.3H7.262a5.372 5.372 0 01-3-1.068 5.991 5.991 0 01-2.122-3.598c-.07-.34-.1-.7-.14-1v-.549a1 1 0 01.409-.6 1.478 1.478 0 01.889-.18h2.237V6.823a4.773 4.773 0 011.5-3.475 4.853 4.853 0 013-1.328M7.492 5.715a6.081 6.081 0 00-.21 2.2V22.98h9.736a.869.869 0 01.779.579 3.994 3.994 0 01.07.759 4.553 4.553 0 001.378 3 3.545 3.545 0 002.407.869 3.056 3.056 0 003.115-3v-.061V7.152a2.6 2.6 0 010-.619 6.091 6.091 0 01.759-1.857 3 3 0 01.9-1H10.338a3.076 3.076 0 00-2.846 2.039z"/></svg>