<svg xmlns="http://www.w3.org/2000/svg" width="100%" height="100%" viewBox="-0.64 -0.64 33.28 33.28"><path fill="#3f85aa" d="M27.4 5.5h-9.2l-2.1 4.2H4.3v16.8h25.2v-21zm0 18.7H6.6V11.8h20.8zm0-14.5h-8.2l1-2.1h7.1v2.1z"/><path fill="#3f85aa" d="M25.7 13.7H.5l3.8 12.8h25.2l-3.8-12.8z"/><path fill="#0096e6" d="M20.805 21.7h2.146v2.19h1.085a4.7 4.7 0 001.491-.25 3.818 3.818 0 00.724-.327 2.688 2.688 0 01-.5-1.387 2.931 2.931 0 01.526-2.065l.223-.261.268.216a3.418 3.418 0 011.346 2.169 3.282 3.282 0 012.489.232l.3.17-.155.3a3.106 3.106 0 01-3.118 1.488c-1.86 4.626-5.9 6.816-10.806 6.816A6.8 6.8 0 0110.64 27.8l-.022-.037-.194-.392a6.237 6.237 0 01-.494-3.156l.03-.324h1.835V21.7h2.145v-2.148h4.291v-2.146H20.8z"/><path fill="#fff" d="M17.4 30.625a4.517 4.517 0 01-2.355-2.317 7.747 7.747 0 01-1.7.258q-.373.021-.784.021-.474 0-1-.028a6.789 6.789 0 005.252 2.077q.3 0 .587-.011zM13.71 22.209h.147v1.55h-.147zm-.282 0h.152v1.55h-.153v-1.55zm-.282 0h.154v1.55h-.152zm-.282 0h.153v1.55h-.153zm-.282 0h.152v1.55h-.152zm-.276 0h.147v1.55h-.147zm-.154-.155h1.858v1.859h-1.857zm2.148-2.145h1.86v1.859H14.3zm1.558.155H16v1.549h-.147zm-.282 0h.152v1.549h-.152zm-.282 0h.152v1.549H15.3v-1.549zm-.282 0h.152v1.549h-.154zm-.282 0h.152v1.549h-.152zm-.276 0h.146v1.549h-.147zm-.155 1.99h1.86v1.86H14.3v-1.859zm1.558.155H16v1.55h-.147zm-.282 0h.152v1.55h-.152zm-.282 0h.152v1.55h-.151v-1.55zm-.282 0h.152v1.55h-.153zm-.282 0h.152v1.55h-.152zm-.276 0h.147v1.55h-.147zm1.991-.155H18.3v1.86h-1.86v-1.859zm1.556.155h.147v1.55H18zm-.282 0h.152v1.55h-.152zm-.282 0h.152v1.55h-.152zm-.282 0h.152v1.55h-.152zm-.282 0h.152v1.55h-.152zm-.276 0h.147v1.55H16.6zm-.155-2.3H18.3v1.859h-1.86v-1.859zm1.559.155h.147v1.549H18zm-.282 0h.152v1.549h-.152zm-.282 0h.152v1.549h-.152zm-.282 0h.152v1.549h-.152zm-.282 0h.152v1.549h-.152zm-.276 0h.147v1.549H16.6zm1.991 1.99h1.859v1.86h-1.86v-1.859zm1.557.155h.147v1.55h-.147zm-.282 0h.152v1.55h-.152zm-.282 0h.152v1.55h-.152zm-.282 0h.152v1.55h-.15zm-.282 0h.152v1.55h-.148zm-.276 0h.144v1.55h-.147v-1.55zm-.155-2.3h1.859v1.859h-1.86v-1.859zm1.557.155h.147v1.549h-.147zm-.282 0h.152v1.549h-.152zm-.282 0h.152v1.549h-.152zm-.282 0h.152v1.549H19.3zm-.282 0h.152v1.549h-.146zm-.276 0h.144v1.549h-.147v-1.549zm-.155-2.3h1.859v1.859h-1.86v-1.859zm1.557.155h.147v1.549h-.147zm-.282 0h.152v1.549h-.152zm-.282 0h.152v1.549h-.152zm-.282 0h.152v1.549H19.3zm-.282 0h.152v1.549h-.144zm-.276 0h.144v1.549h-.147v-1.549zm1.99 4.135h1.859v1.86h-1.86v-1.859zm1.557.155h.146v1.55h-.147v-1.55zm-.282 0h.155v1.55h-.146zm-.282 0h.152v1.55h-.152zm-.282 0h.163v1.55h-.152zm-.282 0h.152v1.55h-.154v-1.55zm-.276 0h.147v1.55h-.136v-1.55zM16.041 26.929a.513.513 0 11-.513.513.513.513 0 01.513-.513zm0 .145a.367.367 0 01.133.025.15.15 0 10.207.2.367.367 0 11-.339-.228z"/></svg>