<svg xmlns="http://www.w3.org/2000/svg" width="100%" height="100%" viewBox="-0.64 -0.64 33.28 33.28"><path fill="#db9b7b" d="M27.4 5.5h-9.2l-2.1 4.2H4.3v16.8h25.2v-21zm0 18.7H6.6V11.8h20.8zm0-14.5h-8.2l1-2.1h7.1v2.1z"/><path fill="#db9b7b" d="M25.7 13.7H.5l3.8 12.8h25.2l-3.8-12.8z"/><path fill="#e24329" d="M20.5 30.972l3.867-11.9h-7.734l3.867 11.9z"/><path fill="#fc6d26" d="M20.5 30.972l-3.867-11.9h-5.419l9.286 11.9z"/><path fill="#fca326" d="M11.214 19.072l-1.175 3.616a.8.8 0 00.291.895l10.17 7.392z"/><path fill="#e24329" d="M11.214 19.072h5.419L14.3 11.905a.4.4 0 00-.761 0z"/><path fill="#fc6d26" d="M20.5 30.972l3.867-11.9h5.419l-9.286 11.9z"/><path fill="#fca326" d="M29.786 19.072l1.175 3.616a.8.8 0 01-.291.895L20.5 30.975z"/><path fill="#e24329" d="M29.786 19.072h-5.419L26.7 11.9a.4.4 0 01.761 0z"/></svg>