<svg xmlns="http://www.w3.org/2000/svg" width="100%" height="100%" viewBox="-0.64 -0.64 33.28 33.28"><path fill="#bf8a55" d="M27.5 5.5h-9.3l-2.1 4.2H4.4v16.8h25.2v-21zm0 4.2h-8.2l1.1-2.1h7.1z"/><path fill="#f68712" d="M20.5 12.625L12.625 20.5l7.875 7.875 7.875-7.875-7.875-7.875"/><path fill="#fab20b" d="M10 10l10.5 2.625-7.875 7.875L10 10"/><path fill="#f47216" d="M31 10l-2.625 10.5-7.875-7.875L31 10"/><path fill="#f25c19" d="M31 31l-10.5-2.625 7.875-7.875L31 31"/><path fill="#f89c0e" d="M10 31l2.625-10.5 7.875 7.875L10 31"/><path fill="#fbc707" d="M20.5 12.625L10 10h5.25l5.25 2.625M20.5 12.625L31 10h-5.25l-5.25 2.625"/><path fill="#f68712" d="M20.5 28.375L31 31h-5.25l-5.25-2.625"/><path fill="#f25c19" d="M20.5 28.375L10 31h5.25l5.25-2.625"/><path fill="#fff200" d="M12.625 20.5L10 31v-5.25l2.625-5.25M12.625 20.5L10 10v5.25l2.625 5.25"/><path fill="#f1471d" d="M28.375 20.5L31 10v5.25l-2.625 5.25M28.375 20.5L31 31v-5.25l-2.625-5.25"/></svg>