<svg xmlns="http://www.w3.org/2000/svg" width="100%" height="100%" viewBox="-0.64 -0.64 33.28 33.28"><defs><linearGradient id="a" x1="-117.555" x2="-116.883" y1="260.894" y2="260.894" gradientTransform="rotate(90 2089.825 5520.838) scale(29.091)" gradientUnits="userSpaceOnUse"><stop offset="0" stop-color="#fff"/><stop offset="1" stop-color="#fff" stop-opacity="0"/></linearGradient><linearGradient id="c" x1="-117.555" x2="-116.883" y1="261.146" y2="261.146" xlink:href="#a"/><mask id="b" width="19.545" height="19.546" x="11.227" y="11.227" maskUnits="userSpaceOnUse"><path fill="#fff" d="M14.08 24.342l.983-1.052 1.222 1.222-1 .994 1.205 1.2.993-.994 1.229 1.23-.974.973 2.85 2.85h4.48a.814.814 0 00.814-.814v-6.512l4.162-2.775a1.626 1.626 0 00.724-1.354v-7.269a.814.814 0 00-.814-.814h-7.268a1.631 1.631 0 00-1.355.724l-2.774 4.162H12.04a.814.814 0 00-.812.815v4.479zM12.693 25.886h-1.465v4.887h4.885v-1.466h-3.42z"/></mask></defs><path fill="#7798cc" d="M27.9 6h-9.8l-2 4H5v17h25V6zm.1 4h-7.8l1-2H28z"/><g mask="url(#b)"><path fill="#91b0f2" d="M11.228 25.886h1.465v3.421h3.42v1.466h-4.885z"/><path fill="#0f46bd" d="M11.228 16.927v4.48l2.852 2.935 1.22-1.307 3.664 3.665-1.222 1.22 2.85 2.85h4.48a.814.814 0 00.814-.814v-6.517l-7.329-7.326H12.04a.813.813 0 00-.812.814z"/><path fill="#062aa9" d="M14.281 22.511l7.533-11.284h8.959v8.958l-11.284 7.533z"/><path fill="#2560e0" d="M14.752 22.983a.814.814 0 01-.1-1.028l6.679-10a1.629 1.629 0 011.354-.724h7.275a.815.815 0 01.815.814v7.274a1.627 1.627 0 01-.725 1.354l-10 6.679a.815.815 0 01-1.028-.1z"/><path fill="#0a44c2" d="M15.289 25.506l6.218-6.218 1.2 1.2-6.217 6.219z"/><path fill="#729af2" d="M15.289 25.506l6.218-6.218 1.2 1.2-6.217 6.219z"/><path fill="#4c80f0" d="M17.487 25.716l-1.2-1.2 5.225-5.224 1.2 1.2z"/><path fill="#0a44c2" d="M25.887 18.557a2.443 2.443 0 10-2.443-2.443 2.443 2.443 0 002.443 2.443z"/><path fill="#91b0f2" d="M25.887 18.557a2.443 2.443 0 10-2.443-2.443 2.443 2.443 0 002.443 2.443z"/><g opacity=".2"><path fill="url(#a)" d="M14.08 24.342l.983-1.052 1.222 1.222-1 .994 1.205 1.2.993-.994 1.229 1.23-.974.973 2.85 2.85h4.48a.814.814 0 00.814-.814v-6.512l4.162-2.775a1.626 1.626 0 00.724-1.354v-7.269a.814.814 0 00-.814-.814h-7.268a1.631 1.631 0 00-1.355.724l-2.774 4.162H12.04a.814.814 0 00-.812.815v4.479z"/><path fill="url(#c)" d="M12.693 25.886h-1.465v4.887h4.885v-1.466h-3.42z"/></g></g></svg>