<svg xmlns="http://www.w3.org/2000/svg" width="100%" height="100%" viewBox="-0.64 -0.64 33.28 33.28"><path fill="#4a1700" d="M3.654 13.112l10.227-8 .173-.026a12.111 12.111 0 011.794-.122 19.253 19.253 0 016.411 1.154 10.827 10.827 0 015.434 3.926l.109.166v5.31a2.067 2.067 0 01-.177.945 1.181 1.181 0 01-.43.484v7.638L3.654 28.179z"/><path d="M3.639 28.2V13.105h.006l10.23-8 .176-.027a12.128 12.128 0 011.8-.123 19.268 19.268 0 016.416 1.155 10.841 10.841 0 015.433 3.931l.112.17v5.314a2.081 2.081 0 01-.179.952 1.191 1.191 0 01-.428.485V24.6h-.012zm.029-15.077v15.039L27.18 24.58v-7.634h.007a1.162 1.162 0 00.425-.478 2.054 2.054 0 00.176-.939v-5.31l-.107-.163a10.812 10.812 0 00-5.427-3.92 19.238 19.238 0 00-6.406-1.153 12.1 12.1 0 00-1.791.122l-.169.026z"/><path fill="#995700" d="M4.305 17.436l22.123-3.371v9.919l-22.123 3.37v-9.918z"/><path fill="#995700" d="M26.37 14.116v9.831L4.333 27.3v-9.827l22.037-3.357m.087-.1L4.247 17.4v10l22.21-3.384V14.015z"/><path fill="#4a1700" d="M16.422 15.245v10.267l4.743-.719v-10.26l-4.743.712z"/><path fill="#4a1700" d="M16.45 25.512l5.581 3.322A12.3 12.3 0 0026.059 30a1.7 1.7 0 001.821-1.65l-6.226-3.632z"/><path fill="#4a1700" d="M26.059 30a4.746 4.746 0 01-1.693-.328 2.406 2.406 0 01-1.329-1.082c-2.912-5.894-7.806-15.8-7.857-15.931a6.928 6.928 0 00-.466-.9 73.73 73.73 0 01-1.718-.907c-1.982-1.085-2.1-1.31-2.181-1.475L10.2 8.168V6.952l.575-.08.061-.008-.355-2.034-.011-1.514a.5.5 0 01.419-.575c.138-.019.877-.106.909-.11l.333-.039 1.883 3.825 1.51-.213-1.032-2.609-.015-1.377 1.636-.211a.722.722 0 01.1-.007.787.787 0 01.549.235L21 5.576l.02.02a2.961 2.961 0 01.5.786l.69 1.448v1.095l-.129.137c-.052.055-1.154 1.221-1.981 1.972 1.617 3.151 8.025 15.622 8.092 15.753v.007a1.581 1.581 0 01.144.444l.025.039-.006 1.11-.005.035a1.663 1.663 0 01-.556 1 2.4 2.4 0 01-1.253.547 3.2 3.2 0 01-.482.031z"/><path fill="#534741" d="M21.729 7.879v.858a26.384 26.384 0 01-2.605 2.473c-.638.386-.281-.772-.281-.772z"/><path fill="#4a1700" d="M18.907 11.3a.149.149 0 01-.095-.03c-.193-.15.008-.81.017-.838l2.886-2.559.024.011v.863a26.483 26.483 0 01-2.608 2.475.461.461 0 01-.224.078zm-.051-.856c-.016.055-.2.67-.026.8.058.045.154.028.286-.052a26.133 26.133 0 002.6-2.466v-.82z"/><path fill="#534741" d="M27.88 28.35a1.5 1.5 0 01-1.411 1.15c-.943.145-2.585-.26-3.006-1.116 0 0-7.79-15.766-7.841-15.9a8.008 8.008 0 00-.572-1.089s-3.607-1.821-3.808-2.23l-.56-1.108v-.708l6.185 2.7 11.015 17.365z"/><path fill="#4a1700" d="M26.062 29.538a3.1 3.1 0 01-2.612-1.152c-.318-.644-7.791-15.768-7.841-15.9a7.992 7.992 0 00-.569-1.084c-.192-.1-3.611-1.829-3.811-2.234l-.561-1.111v-.73l.02.009 6.189 2.7L27.9 27.41v.938a1.516 1.516 0 01-1.423 1.157 2.721 2.721 0 01-.415.033zM10.7 8.052l.558 1.105c.2.4 3.765 2.205 3.8 2.223a8.079 8.079 0 01.574 1.092c.05.128 7.763 15.737 7.84 15.895.431.876 2.086 1.247 2.991 1.108a1.489 1.489 0 001.4-1.132v-.931L16.857 10.059 10.7 7.371z"/><path fill="#534741" d="M14.961 2.65v.854l1.647 4.141.261-1.153-1.908-3.842z"/><path fill="#4a1700" d="M16.594 7.651l-1.647-4.144V2.65l.027-.006 1.91 3.847V6.5l-.262 1.153zM14.976 3.5L16.6 7.6l.25-1.1-1.874-3.789z"/><path fill="#534741" d="M10.946 3.312l.011 1.472.674 3.794h.23l-.064-1.371-.851-3.895z"/><path fill="#4a1700" d="M11.876 8.592h-.257l-.676-3.806-.012-1.474h.029l.851 3.888zm-.233-.029h.2l-.064-1.356-.821-3.756.01 1.333z"/><path fill="#736357" d="M15.312 10.868s-3.868-1.986-4.069-2.394l-.559-1.108 6.19-.873-1.894-3.847 1.2-.169a.313.313 0 01.26.108l4.24 3.346a2.662 2.662 0 01.408.652l.637 1.295c.121.245-2.406 2.425-2.406 2.425a.2.2 0 00-.014.224c.067.14 8.461 16.473 8.461 16.473.425.863-.41 1.669-1.3 1.806a3.1 3.1 0 01-2.874-1.217L15.555 11.1a.754.754 0 00-.243-.232z"/><path fill="#4a1700" d="M26.117 28.848A3.027 3.027 0 0123.58 27.6l-8.037-16.489a.739.739 0 00-.238-.229c-.165-.085-3.875-1.993-4.075-2.4l-.568-1.126h.02l6.17-.87-1.894-3.851 1.219-.172a.323.323 0 01.273.112l4.238 3.345a2.693 2.693 0 01.412.658l.637 1.294c.122.248-2.15 2.218-2.41 2.442a.181.181 0 00-.011.207c.068.137 8.378 16.312 8.462 16.475a1.03 1.03 0 01-.008.965 1.789 1.789 0 01-1.3.861 2.324 2.324 0 01-.353.026zM10.705 7.377l.55 1.09c.2.4 4.024 2.368 4.063 2.388a.758.758 0 01.249.241l8.037 16.489a3.063 3.063 0 002.858 1.209 1.759 1.759 0 001.281-.846 1 1 0 00.008-.939c-.084-.163-8.395-16.338-8.462-16.476a.208.208 0 01.017-.241 12.7 12.7 0 002.4-2.409l-.632-1.293a2.667 2.667 0 00-.4-.649L16.429 2.6a.3.3 0 00-.247-.1L15 2.658 16.895 6.5h-.02z"/><path fill="#736357" d="M13.743 6.934L11.856 3.1s-.764.09-.9.109.838 4 .838 4z"/><path fill="#4a1700" d="M11.786 7.225v-.013a40.286 40.286 0 01-.842-4.005.022.022 0 01.016-.01c.132-.019.89-.108.9-.109h.01l1.9 3.859zm-.822-4a38.1 38.1 0 00.844 3.968l1.914-.27-1.873-3.8a30.17 30.17 0 00-.885.102zM17.414 7.564l.705 1.346-3.278.434-.617-1.355 3.19-.425z"/><path fill="#736357" d="M14.624 8.229l.324-.047a.781.781 0 01.47.313.844.844 0 01.1.641l-.323.049a.72.72 0 00-.069-.628 1.411 1.411 0 00-.502-.328zM15.486 8.11l.324-.047a.781.781 0 01.47.313.844.844 0 01.1.641l-.323.049a.721.721 0 00-.069-.628 1.41 1.41 0 00-.502-.328zM16.326 7.99l.324-.047a.781.781 0 01.47.313.844.844 0 01.1.641l-.323.049a.721.721 0 00-.069-.628 1.411 1.411 0 00-.502-.328z"/><path fill="#4a1700" d="M16.429 15.654l.34-.072v-4.04a15 15 0 01-3.023-.827z"/><path fill="#fff" d="M14.017 6.416l1.51-.213-.227-.559a10.565 10.565 0 00-1.166.1l-.32.256zM21.574 6.609l.574 1.222v1.094l-.1.137c-.052.055-1.139 1.221-1.966 1.972.046.089.1.186.15.29l6.843-.909a10.378 10.378 0 00-5.501-3.806z"/><path fill="#ffe05c" d="M26.457 14.015v2.463c.521-.02.607-.469.607-.953v-5.111l-6.838.909c.4.793 1.006 1.994 1.72 3.384z"/><path fill="#fff" d="M13 10.849c-1.982-1.085-2.094-1.31-2.175-1.475l-.378-.742-6.154 4.8 12.14-1.602A22.719 22.719 0 0113 10.849z"/><path fill="#ffe05c" d="M16.436 15.654l-.014-3.824-12.146 1.606v3.977l12.16-1.759zM21.946 14.694v-3.586s-1.2-.694-.7-1.2l-1.162 1.13z"/><path fill="#4a1700" d="M5.438 13.288l7.025-.93s-2.519.51-4.462.749c-.917.113-2.563.181-2.563.181zM24.438 10.772l2.7-.357.118.162c-1.177.123-2.818.195-2.818.195z"/></svg>