<svg xmlns="http://www.w3.org/2000/svg" width="100%" height="100%" viewBox="-0.64 -0.64 33.28 33.28"><circle cx="16" cy="16" r="14" fill="#fff"/><path fill="#263238" d="M18.291 16A2.29 2.29 0 0116 18.29 2.29 2.29 0 0113.71 16a2.29 2.29 0 014.581 0z"/><path fill="#1976d2" d="M26.168 10.129a11.741 11.741 0 00-1.8-2.352l-2.647 1.528a8.82 8.82 0 00-2.765-1.6 10.866 10.866 0 00-2.14 3.053 12.959 12.959 0 018.818 3.074l1.666-.962a11.741 11.741 0 00-1.133-2.739z"/><path fill="#42a5f5" d="M26.169 21.869a11.741 11.741 0 001.137-2.734l-2.648-1.529a8.82 8.82 0 00.005-3.2 10.866 10.866 0 00-3.714-.327 12.959 12.959 0 011.751 9.179l1.666.962a11.741 11.741 0 001.803-2.351z"/><path fill="#1976d2" d="M16 27.74a11.741 11.741 0 002.937-.382V24.3a8.819 8.819 0 002.77-1.593 10.866 10.866 0 00-1.574-3.38 12.959 12.959 0 01-7.071 6.1v1.924A11.741 11.741 0 0016 27.74z"/><path fill="#42a5f5" d="M5.834 21.87a11.741 11.741 0 001.8 2.352l2.648-1.529a8.819 8.819 0 002.765 1.6 10.866 10.866 0 002.14-3.053 12.959 12.959 0 01-8.818-3.074l-1.669.965a11.741 11.741 0 001.134 2.739z"/><path fill="#1976d2" d="M5.833 10.13A11.741 11.741 0 004.7 12.864l2.648 1.529a8.819 8.819 0 00-.005 3.2 10.866 10.866 0 003.714.327 12.959 12.959 0 01-1.752-9.179l-1.666-.962a11.741 11.741 0 00-1.806 2.351z"/><path fill="#42a5f5" d="M16 4.259a11.741 11.741 0 00-2.937.382V7.7a8.819 8.819 0 00-2.77 1.593 10.866 10.866 0 001.574 3.38 12.959 12.959 0 017.071-6.1V4.648A11.741 11.741 0 0016 4.259z"/></svg>