<svg xmlns="http://www.w3.org/2000/svg" width="100%" height="100%" viewBox="-0.64 -0.64 33.28 33.28"><path fill="#3f5364" d="M11.791 20.247a6.1 6.1 0 004.265 1.773V19.5a3.438 3.438 0 01-2.483-1.027zM18.249 10.4l-.933 2.333a3.771 3.771 0 011.784 1.494h2.716a6.073 6.073 0 00-3.567-3.827z"/><path fill="#f18b21" d="M10.008 16a6.114 6.114 0 00.513 2.427l2.3-1.027a3.41 3.41 0 01-.28-1.4 3.534 3.534 0 013.509-3.5V9.98A6.045 6.045 0 0010.008 16zM17.307 19.267l.933 2.333a6.048 6.048 0 003.6-3.873h-2.713a3.587 3.587 0 01-1.82 1.54z"/><path fill="#3f5364" d="M16.047 22.3a6.3 6.3 0 116.085-8.027h2.436a8.657 8.657 0 100 3.5h-2.436a6.3 6.3 0 01-6.085 4.527z"/><path fill="#3f5364" d="M16.047 7.04V4.66a11.325 11.325 0 00-10.584 7.233l2.2.84a9.048 9.048 0 018.384-5.693zM16.047 24.96v2.38a11.373 11.373 0 0011.237-9.567h-2.436a8.936 8.936 0 01-8.801 7.187z"/><path fill="#f18b21" d="M24.895 14.273h2.389a11.4 11.4 0 00-7.121-8.82l-.84 2.193a9.112 9.112 0 015.572 6.627zM7.059 16h-2.39a11.361 11.361 0 007.168 10.547l.887-2.193A9.029 9.029 0 017.059 16z"/><path fill="#3f5364" d="M27.564 14.273h2.389a14.463 14.463 0 00-2.016-5.647l-2.016 1.26a10.461 10.461 0 011.643 4.387zM2 16.009a14.74 14.74 0 001.241 6.048l2.315-.952a12.448 12.448 0 01-1.148-5.1"/><path fill="#f18b21" d="M16.047 27.62a11.632 11.632 0 01-8.241-3.407l-1.689 1.68A13.846 13.846 0 0016.047 30 14.082 14.082 0 0030 17.727h-2.389a11.719 11.719 0 01-11.564 9.893zM16.047 4.38a11.38 11.38 0 016.972 2.333L24.475 4.8A13.96 13.96 0 0016.047 2a14.1 14.1 0 00-13.114 8.913l2.249.887a11.686 11.686 0 0110.865-7.42z"/></svg>