<svg xmlns="http://www.w3.org/2000/svg" width="100%" height="100%" viewBox="-0.64 -0.64 33.28 33.28"><path fill="#598baa" d="M27.4 5.5h-9.3L16 9.7H4.3v16.8h25.2v-21zm0 4.2h-8.2l1.1-2.1h7.1z"/><path fill="#fff" d="M31.662 28.332l-6.937-12.214a2.413 2.413 0 00-4.026-.277l-1.544-2.721a2.413 2.413 0 00-4.21.005L6.308 28.333a2.476 2.476 0 000 2.436A2.419 2.419 0 008.409 32h21.152a2.424 2.424 0 002.106-1.234 2.478 2.478 0 00-.005-2.434zm-18.191.219h-3.342l6.92-12.188 1.664 2.931-5.132 9.039c-.04.067-.081.144-.11.218zm3.933 0l3.282-5.782 3.283 5.782z"/><path fill="#00c58e" d="M20.7 17.845l-.823 1.449-2.815-4.956-8.637 15.213h5.849A1.437 1.437 0 0015.7 31H8.425a1.417 1.417 0 01-1.234-.725 1.466 1.466 0 010-1.448l8.64-15.214a1.414 1.414 0 012.468 0z"/><path fill="#2f495e" d="M26.938 28.827l-5.413-9.533-.825-1.449-.823 1.449-5.413 9.533a1.471 1.471 0 000 1.448A1.42 1.42 0 0015.7 31h10a1.419 1.419 0 001.234-.724 1.468 1.468 0 000-1.449zm-11.238.724l5-8.808 5 8.808z"/><path fill="#108775" d="M30.809 30.276a1.419 1.419 0 01-1.234.724H25.7a1.437 1.437 0 001.425-1.449h2.444l-6.933-12.215-1.111 1.958-.825-1.449.7-1.233a1.414 1.414 0 012.469 0l6.938 12.215a1.468 1.468 0 01.002 1.449z"/></svg>