<svg xmlns="http://www.w3.org/2000/svg" width="100%" height="100%" viewBox="-0.64 -0.64 33.28 33.28"><path fill="#303f9f" d="M7.575 16l-2.8 4.849 2.8 4.849 2.8-4.849z"/><path fill="#3f51b5" d="M24.374 6.3l-2.8 4.849 2.8 4.851 2.8-4.849z"/><path fill="#7986cb" d="M27.174 11.151L18.775 25.7h5.6l5.6-9.7z"/><path fill="#ff4081" d="M18.775 6.3L7.574 25.7h5.6l11.2-19.4z"/><path fill="#536dfe" d="M7.575 6.3l-5.6 9.7 2.8 4.849L13.176 6.3z"/><path fill="#fff" fill-opacity=".2" d="M18.775 6.3l2.8 4.849 2.8-4.849z"/><path fill="#fff" fill-opacity=".1" d="M15.975 11.151l2.8-4.849 2.8 4.849z"/><path fill="#fff" fill-opacity="0" d="M15.975 11.151l2.8 4.849 2.8-4.849z"/><path fill-opacity=".1" d="M13.175 16l2.8-4.849 2.8 4.849z"/><path fill-opacity=".2" d="M13.175 16l2.8 4.849 2.8-4.849z"/><path fill-opacity=".3" d="M10.376 20.849l2.8-4.849 2.8 4.849z"/><path fill-opacity=".4" d="M10.376 20.849l2.8 4.849 2.8-4.849z"/><path fill-opacity=".5" d="M7.575 25.7l2.8-4.849 2.8 4.849z"/><path fill="#fff" fill-opacity=".2" d="M7.575 6.3l2.8 4.849 2.8-4.849z"/><path fill="#fff" fill-opacity=".1" d="M4.776 11.151l2.8-4.851 2.8 4.849z"/><path fill="#fff" fill-opacity="0" d="M4.776 11.151L7.576 16l2.8-4.849z"/><path fill-opacity=".1" d="M1.976 16l2.8-4.849L7.576 16z"/><path fill-opacity=".2" d="M1.976 16l2.8 4.849L7.576 16z"/><path fill="#fff" fill-opacity="0" d="M10.376 20.849L7.575 16l-2.8 4.849z"/><path fill-opacity=".2" d="M10.376 20.849L7.575 25.7l-2.8-4.849zm16.8-9.7L24.374 6.3l-2.8 4.849z"/><path fill="#fff" fill-opacity="0" d="M27.174 11.151L24.374 16l-2.8-4.849z"/><path fill="#fff" fill-opacity=".2" d="M24.374 16l2.8-4.849L29.975 16z"/><path fill="#fff" fill-opacity=".1" d="M24.374 16l2.8 4.849L29.975 16z"/><path fill="#fff" fill-opacity="0" d="M21.574 20.849l2.8-4.849 2.8 4.849z"/><path fill-opacity=".1" d="M21.574 20.849l2.8 4.849 2.8-4.849z"/><path fill-opacity=".2" d="M18.775 25.7l2.8-4.849 2.8 4.849z"/></svg>