<svg xmlns="http://www.w3.org/2000/svg" width="100%" height="100%" viewBox="-0.64 -0.64 33.28 33.28"><path fill="#c2c2c2" d="M11.29 15.976a8.892 8.892 0 001.039 4.557 4.818 4.818 0 005.579 2.13 3.789 3.789 0 002.734-3.181c.095-.535.1-.54.1-.54 1.537.222 4.014.582 5.55.8l-.1.389A9.958 9.958 0 0123.8 24.9a8.35 8.35 0 01-4.747 2.378 12.925 12.925 0 01-7.322-.725 8.98 8.98 0 01-5.106-5.524A14.353 14.353 0 016.642 10.9a9.323 9.323 0 017.929-6.24 11.812 11.812 0 015.9.491 8.467 8.467 0 015.456 6.1c.083.311.1.369.1.369-1.709.311-3.821.705-5.518 1.075-.323-1.695-1.122-3.029-2.831-3.445a4.656 4.656 0 00-5.853 3.158 9.28 9.28 0 00-.341 1.273 10.89 10.89 0 00-.194 2.295z"/><path fill="#c2c2c2" d="M2.033 30V2h5.934v2.227H4.723v23.546h3.244V30H2.033zM29.967 29.999h-5.934v-2.228h3.244V4.226h-3.244V1.999h5.934v28z"/></svg>