<svg xmlns="http://www.w3.org/2000/svg" width="100%" height="100%" viewBox="-0.64 -0.64 33.28 33.28"><defs><linearGradient id="a" x1="-792.28" x2="-793.365" y1="633.265" y2="632.418" gradientTransform="matrix(12.821 0 0 -12.821 10188.143 8132.963)" gradientUnits="userSpaceOnUse"><stop offset=".18" stop-color="#0052cc"/><stop offset="1" stop-color="#2684ff"/></linearGradient></defs><path fill="#2684ff" d="M2.909 3.41A.9.9 0 002 4.3a.8.8 0 00.012.155L5.82 27.568a1.22 1.22 0 001.193 1.018h18.269a.9.9 0 00.9-.754l3.805-23.378a.9.9 0 00-.737-1.033.911.911 0 00-.147-.012zm16.035 16.709h-5.831l-1.579-8.244h8.823z"/><path fill="url(#a)" d="M28.776 11.874h-8.419l-1.413 8.244h-5.831L6.228 28.3a1.21 1.21 0 00.785.3h18.274a.9.9 0 00.9-.754z"/></svg>