<svg xmlns="http://www.w3.org/2000/svg" width="100%" height="100%" viewBox="-0.64 -0.64 33.28 33.28"><defs><linearGradient id="a" x1=".879" x2="1.093" y1="34.702" y2="34.702" gradientTransform="rotate(98.13 2033.217 2228.98) scale(130.809)" gradientUnits="userSpaceOnUse"><stop offset="0" stop-color="#60baeb"/><stop offset=".041" stop-color="#60baeb"/><stop offset=".129" stop-color="#4fb4e9"/><stop offset=".822" stop-color="#4054ad"/><stop offset="1" stop-color="#4054ad"/></linearGradient></defs><path fill="#737373" d="M13.134 18.662s.488-1.85-1.633-4.234l-.071-.075a5.873 5.873 0 014.5-9.662h.137a5.873 5.873 0 014.5 9.661 2.72 2.72 0 01-.071.073 5.622 5.622 0 00-1.634 4.237A8.567 8.567 0 0016.489 2h-.978a8.567 8.567 0 00-2.377 16.659M24.242 25.484a2.65 2.65 0 01.514-.15 3.264 3.264 0 01.6-.072l-.023-.167a1.566 1.566 0 00-.1-.358l-.066-.186c-.026-.059-.06-.113-.084-.159L25 24.239a5.266 5.266 0 01-.614-.139 4.785 4.785 0 01-.554-.191 2.39 2.39 0 01-.765-.465.561.561 0 01-.217-.477.409.409 0 01.1-.21.655.655 0 01.223-.174l-.186-.1c-.056-.03-.118-.066-.189-.1l-.234-.112c-.156-.074-.312-.149-.443-.2l-.207-.084a4.115 4.115 0 01-.482.034c-.173 0-.349 0-.52-.014a5.06 5.06 0 01-.977-.163 2.421 2.421 0 01-.4-.138 1.826 1.826 0 01-.3-.157c-.156-.114-.263-.229-.262-.345l-.236-.04a34.912 34.912 0 00-.656-.091c0 .033-.025.065-.032.12l-.05.242a.951.951 0 00.654 1.114 3.33 3.33 0 012.3 1.585c.514 1.388-1.647 2.744-4.934 2.744s-5.449-1.356-4.936-2.744a3.263 3.263 0 012.217-1.559 1.007 1.007 0 00.686-1.172l-.069-.33-.439.054c-.2.022-.381.056-.524.079l-.239.04a.429.429 0 01-.224.349 1.941 1.941 0 01-.278.164 3.363 3.363 0 01-.384.144 3.782 3.782 0 01-.469.108 4.615 4.615 0 01-.5.068 5.123 5.123 0 01-1.017 0l-.058.023c-.035.015-.091.036-.147.064l-.432.206c-.156.078-.3.162-.408.224l-.136.076-.047.031a.57.57 0 01.366.386c.055.155-.021.315-.163.491a2.125 2.125 0 01-.308.254 2.775 2.775 0 01-.442.235 4.789 4.789 0 01-1.168.361.732.732 0 00-.067.156l-.124.354-.052.365a.578.578 0 00-.01.17 3.291 3.291 0 011.161.2 1.433 1.433 0 01.728.5.8.8 0 01.066.746 1.774 1.774 0 01-.661.844l.059.042.167.119c.143.1.323.237.534.363l.621.341a1.79 1.79 0 00.226.1l.089.038a5.531 5.531 0 011.6-.386 4.694 4.694 0 01.8-.019 4.336 4.336 0 01.774.092 4.661 4.661 0 01.7.22 4.007 4.007 0 01.583.33 1.927 1.927 0 01.753.954l.462.018c.278.007.649.032 1.018.013s.74-.018 1.015-.036l.452-.043a1.4 1.4 0 01.237-.53 1.716 1.716 0 01.193-.225 2.337 2.337 0 01.224-.213 2.361 2.361 0 01.552-.337 3.2 3.2 0 01.667-.24 5.926 5.926 0 01.752-.119 6.751 6.751 0 01.792 0 5.613 5.613 0 011.618.342l.281-.156a4.964 4.964 0 00.57-.351c.181-.134.372-.262.487-.367l.186-.175a2.148 2.148 0 01-.734-.816.9.9 0 01-.087-.381.547.547 0 01.074-.343 1.207 1.207 0 01.637-.513"/><path fill="url(#a)" d="M11.641 10.589A3.5 3.5 0 0013 13.334a6.165 6.165 0 011.954 4.456c.055 2.088-.088 4.5-.175 5.735-1.118.158-1.9.532-1.9.968 0 .579 1.391 1.249 3.108 1.249s3.108-.669 3.108-1.249c0-.436-.785-.81-1.9-.968-.088-1.23-.229-3.647-.174-5.735a6.165 6.165 0 011.954-4.456 3.5 3.5 0 001.359-2.745c-.018-2.058-1.962-3.715-4.342-3.715-2.381 0-4.325 1.656-4.342 3.715"/></svg>