<svg xmlns="http://www.w3.org/2000/svg" width="100%" height="100%" viewBox="-0.64 -0.64 33.28 33.28"><path fill="#d2d2d2" d="M21.463 26.37h-1.838a.829.829 0 01-.823-.725 2.381 2.381 0 00-4.722 0 .829.829 0 01-.823.725H11.4a.831.831 0 01-.836-.705 2.377 2.377 0 00-4.719 0 .837.837 0 01-.826.725h-1.9a.832.832 0 01-.816-.676 14.3 14.3 0 01.48-7.557A10.655 10.655 0 016.6 13.079l.389-.277A1.83 1.83 0 017.9 10.47c6.237-2.972 10.45-.826 13.516.738 2.286 1.169 3.55 1.728 4.7.575A2.048 2.048 0 0023.442 8.7a.836.836 0 01-1.087-.075l-.542-.542a.837.837 0 01.006-1.183l.013-.013A4.726 4.726 0 0128.4 7a5.686 5.686 0 011.58 4.386c-.179 2.531-1.9 5.036-5.12 7.442-.748.562-2.5 2.339-2.567 6.741a.836.836 0 01-.833.826zm-1.828-.813h1.819c.026-1.6.369-5.489 2.906-7.387 2.968-2.224 4.624-4.572 4.784-6.828a4.825 4.825 0 00-1.339-3.733 3.883 3.883 0 00-5.388-.1l.526.526a2.89 2.89 0 013.765 4.365c-1.633 1.633-3.507.683-5.676-.421a18.152 18.152 0 00-5.313-1.986 12.346 12.346 0 00-7.458 1.258.979.979 0 00-.471 1.3q.018.037.039.075l.066.114L9.6 15.682a.98.98 0 001.33.388h.005l.043-.023.055-.026.689-.385a17.769 17.769 0 002.427-1.809.417.417 0 01.59.022.421.421 0 01-.042.584 18.01 18.01 0 01-2.548 1.9l-.787.441-.058.026a1.836 1.836 0 01-2.42-.706l-1.5-2.54-.326.219a9.789 9.789 0 00-3.5 4.676 13.469 13.469 0 00-.447 7.09h1.897a3.223 3.223 0 016.391 0h1.842a3.22 3.22 0 016.387 0zm1.423-10.45l-1.306-.653a.826.826 0 111.306.653z"/></svg>