<svg xmlns="http://www.w3.org/2000/svg" width="100%" height="100%" viewBox="-0.64 -0.64 33.28 33.28"><path fill="#7daad3" d="M27.4 5.5h-9.2l-2.1 4.2H4.3v4H.5l3.8 12.8h25.2v-21zm-7.2 2.1h7.1v2.1h-8.1zm5.5 6.1H6.6v-1.9h20.8v7.626z"/><circle cx="21" cy="21" r="10" fill="#ffc107"/><circle cx="21" cy="21" r="9" fill="#1976d2"/><path fill="#ffc107" d="M26.745 19.168a1.335 1.335 0 00-.146.111c-.807.8-1.617 1.591-2.416 2.4-.352.355-.278.275-.211.689.184 1.138.382 2.274.574 3.41 0 .03.006.06.011.109-.188-.095-.364-.181-.538-.27l-2.808-1.442a.365.365 0 00-.371-.007c-.659.345-1.32.683-1.981 1.023q-.6.311-1.205.618c-.054.028-.11.051-.185.085.01-.09.016-.162.027-.233l.435-2.67c.046-.281.085-.563.131-.845a.315.315 0 00-.1-.294l-1.241-1.223-1.321-1.313c-.043-.043-.083-.087-.14-.148l.611-.095q1.594-.254 3.19-.506a.233.233 0 00.186-.136q.52-1.037 1.045-2.07c.2-.4.395-.795.593-1.193l.089-.169c.04.071.072.124.1.179.455.891.907 1.784 1.363 2.674.107.208.223.411.344.611a.245.245 0 00.15.1q1.067.168 2.135.325c.534.079 1.069.154 1.6.231a.3.3 0 01.056.017z"/></svg>