<svg xmlns="http://www.w3.org/2000/svg" width="100%" height="100%" viewBox="-0.64 -0.64 33.28 33.28"><path fill="#a0bf55" d="M27.5 5.5h-9.3l-2.1 4.2H4.4v16.8h25.2v-21zm0 4.2h-8.2l1.1-2.1h7.1z"/><path fill="#fff" d="M27.773 31.076a2.517 2.517 0 01-1.848-4.229l-1.67-2.54a4.234 4.234 0 01-3.847-.05l-1.662 1.77a2.161 2.161 0 11-1.105-.983l1.593-1.7a4.233 4.233 0 01-1.1-2.854 4.007 4.007 0 01.021-.412l-3.8-1.166a2.517 2.517 0 11.558-1.579c0 .067 0 .134-.009.2l3.646 1.119a4.232 4.232 0 013.092-2.349v-2.381a2.068 2.068 0 111.479 0v2.386A4.242 4.242 0 0125.6 17.72l1.928-1.162a1.75 1.75 0 01-.015-.226 1.807 1.807 0 111.808 1.808 1.786 1.786 0 01-1.023-.319l-1.938 1.171a4.22 4.22 0 01.275 1.5v.036l1.057.183a1.806 1.806 0 11-.34 1.443l-.987-.172a4.317 4.317 0 01-.91 1.448l1.752 2.67a2.519 2.519 0 11.566 4.973z"/><path fill="#486600" d="M29.122 20.129a1.681 1.681 0 00-1.379.721l-1.24-.215v-.14a4.1 4.1 0 00-.306-1.556l2.1-1.267a1.684 1.684 0 10-.64-1.05l-2.09 1.261A4.126 4.126 0 0023 16.415v-2.58a1.943 1.943 0 10-1.23 0v2.58a4.137 4.137 0 00-3.149 2.394l-3.848-1.182a2.395 2.395 0 10-.461 1.145l3.979 1.222a4.1 4.1 0 001.119 3.355l-1.733 1.845a2.04 2.04 0 10.921.816l1.786-1.91a4.114 4.114 0 003.915.043l1.787 2.717a2.391 2.391 0 101.066-.616l-1.861-2.83a4.133 4.133 0 00.989-1.573l1.178.2a1.682 1.682 0 101.665-1.919z"/></svg>