<svg xmlns="http://www.w3.org/2000/svg" width="100%" height="100%" viewBox="-0.64 -0.64 33.28 33.28"><defs><linearGradient id="a" x1="4.494" x2="13.832" y1="-1712.086" y2="-1695.914" gradientTransform="translate(0 1720)" gradientUnits="userSpaceOnUse"><stop offset="0" stop-color="#2368c4"/><stop offset=".5" stop-color="#1a5dbe"/><stop offset="1" stop-color="#1146ac"/></linearGradient></defs><path fill="#41a5ee" d="M28.806 3H9.705a1.192 1.192 0 00-1.193 1.191V9.5l11.069 3.25L30 9.5V4.191A1.192 1.192 0 0028.806 3z"/><path fill="#2b7cd3" d="M30 9.5H8.512V16l11.069 1.95L30 16z"/><path fill="#185abd" d="M8.512 16v6.5l10.418 1.3L30 22.5V16z"/><path fill="#103f91" d="M9.705 29h19.1A1.192 1.192 0 0030 27.809V22.5H8.512v5.309A1.192 1.192 0 009.705 29z"/><path d="M16.434 8.2H8.512v16.25h7.922a1.2 1.2 0 001.194-1.191V9.391A1.2 1.2 0 0016.434 8.2z" style="isolation:isolate" opacity=".1"/><path d="M15.783 8.85H8.512V25.1h7.271a1.2 1.2 0 001.194-1.191V10.041a1.2 1.2 0 00-1.194-1.191z" style="isolation:isolate" opacity=".2"/><path d="M15.783 8.85H8.512V23.8h7.271a1.2 1.2 0 001.194-1.191V10.041a1.2 1.2 0 00-1.194-1.191z" style="isolation:isolate" opacity=".2"/><path d="M15.132 8.85h-6.62V23.8h6.62a1.2 1.2 0 001.194-1.191V10.041a1.2 1.2 0 00-1.194-1.191z" style="isolation:isolate" opacity=".2"/><path fill="url(#a)" d="M3.194 8.85h11.938a1.193 1.193 0 011.194 1.191v11.918a1.193 1.193 0 01-1.194 1.191H3.194A1.192 1.192 0 012 21.959V10.041A1.192 1.192 0 013.194 8.85z"/><path fill="#fff" d="M6.9 17.988c.023.184.039.344.046.481h.028c.01-.13.032-.287.065-.47s.062-.338.089-.465l1.255-5.407h1.624l1.3 5.326a7.761 7.761 0 01.162 1h.022a7.6 7.6 0 01.135-.975l1.039-5.358h1.477l-1.824 7.748h-1.727l-1.237-5.126q-.054-.222-.122-.578t-.084-.52h-.021q-.021.189-.084.561c-.042.249-.075.432-.1.552L7.78 19.871H6.024L4.19 12.127h1.5l1.131 5.418a4.469 4.469 0 01.079.443z"/></svg>