<svg xmlns="http://www.w3.org/2000/svg" width="100%" height="100%" viewBox="-0.64 -0.64 33.28 33.28"><path fill="#8993be" d="M7.6 13.791a2.352 2.352 0 011.745.483 1.916 1.916 0 01.207 1.66 2.78 2.78 0 01-.918 1.748 3.375 3.375 0 01-2.07.529h-1.4l.86-4.411zM2 22.677h2.3l.545-2.8h1.967a7.049 7.049 0 002.144-.277 4.06 4.06 0 001.53-.918A4.585 4.585 0 0011.93 16.1a3.288 3.288 0 00-.55-2.922 3.671 3.671 0 00-2.91-1.049H4.057zM13.617 9.323H15.9l-.553 2.8h2.031a3.956 3.956 0 012.645.669 2.213 2.213 0 01.436 2.167l-.954 4.909h-2.31l.908-4.667a1.267 1.267 0 00-.114-1.086 1.6 1.6 0 00-1.144-.286h-1.823l-1.175 6.044h-2.288zM25.539 13.791a2.352 2.352 0 011.745.483 1.916 1.916 0 01.207 1.66 2.78 2.78 0 01-.918 1.748 3.375 3.375 0 01-2.074.529H23.1l.858-4.416zm-5.6 8.886h2.3l.545-2.8h1.968A7.049 7.049 0 0026.9 19.6a4.06 4.06 0 001.53-.918 4.585 4.585 0 001.439-2.582 3.288 3.288 0 00-.55-2.922 3.671 3.671 0 00-2.909-1.046h-4.42z"/></svg>