<svg xmlns="http://www.w3.org/2000/svg" width="100%" height="100%" viewBox="-0.64 -0.64 33.28 33.28"><path fill="#cd6799" d="M26.11 17.572a5.8 5.8 0 00-2.537.588 5.345 5.345 0 01-.568-1.314 3.53 3.53 0 01-.051-1.1 9.811 9.811 0 01.332-1.192c-.005-.051-.061-.292-.624-.3s-1.048.107-1.1.256a6.171 6.171 0 00-.235.834 19.686 19.686 0 01-1.713 3.294 3.186 3.186 0 01-.44-2.066 9.811 9.811 0 01.332-1.192c-.005-.051-.061-.292-.624-.3s-1.048.107-1.1.256-.118.5-.235.834-1.483 3.386-1.841 4.173c-.184.4-.343.726-.455.946a.233.233 0 01-.02.041l-.153.292v.005c-.077.138-.159.266-.2.266a1.711 1.711 0 01.01-.869c.2-1.059.69-2.705.685-2.762 0-.031.092-.317-.317-.465a.508.508 0 00-.578.1c-.036 0-.061.087-.061.087s.445-1.851-.849-1.851a3.855 3.855 0 00-2.475 1.683c-.348.189-1.089.593-1.882 1.028-.3.169-.614.338-.905.5-.02-.02-.041-.046-.061-.066C6.87 17.6 3.975 16.416 4.1 14.171c.046-.818.327-2.966 5.559-5.575 4.306-2.122 7.733-1.534 8.326-.23.849 1.862-1.836 5.319-6.285 5.82a3.351 3.351 0 01-2.813-.711c-.235-.256-.271-.271-.358-.22-.143.077-.051.307 0 .44a2.626 2.626 0 001.606 1.263 8.55 8.55 0 005.217-.517c2.7-1.043 4.8-3.943 4.184-6.372-.619-2.465-4.71-3.278-8.582-1.9a19.5 19.5 0 00-6.595 3.783c-2.133 1.995-2.47 3.728-2.332 4.455.5 2.578 4.051 4.255 5.472 5.5a8.554 8.554 0 01-.194.107c-.711.353-3.421 1.77-4.1 3.268-.767 1.7.123 2.915.711 3.079a4.374 4.374 0 004.71-1.908 4.725 4.725 0 00.423-4.353.107.107 0 00-.02-.031l.557-.327a27.2 27.2 0 011.028-.578 6.74 6.74 0 00-.363 1.862 3.886 3.886 0 00.834 2.7.921.921 0 00.675.22c.6 0 .875-.5 1.176-1.094.368-.726.7-1.57.7-1.57s-.414 2.281.711 2.281c.409 0 .823-.532 1.008-.8v.005l.031-.051.066-.107v-.01c.164-.286.532-.936 1.079-2.015.706-1.391 1.386-3.13 1.386-3.13a8.888 8.888 0 00.271 1.13 10.643 10.643 0 00.583 1.309c-.164.23-.266.358-.266.358l.005.005c-.133.174-.276.363-.435.547a16.3 16.3 0 00-1.314 1.647.447.447 0 00.123.6 1.116 1.116 0 00.685.113 3.147 3.147 0 001.028-.235 3.45 3.45 0 00.885-.465 1.98 1.98 0 00.849-1.744 3.521 3.521 0 00-.322-1.233c.051-.072.1-.143.148-.215a23.428 23.428 0 001.534-2.649 8.888 8.888 0 00.271 1.13 7.57 7.57 0 00.5 1.125 4.861 4.861 0 00-1.497 1.922c-.322.931-.072 1.35.4 1.447a1.425 1.425 0 00.747-.153 3.4 3.4 0 00.946-.486 2.126 2.126 0 001.043-1.729 3.268 3.268 0 00-.235-1.023 5.356 5.356 0 012.716-.312c2.434.286 2.915 1.805 2.823 2.445a1.618 1.618 0 01-.772 1.094c-.169.107-.225.143-.21.22.02.113.1.107.245.087A1.9 1.9 0 0030 20.7c.077-1.5-1.355-3.145-3.887-3.13zM7.33 23.9c-.808.88-1.933 1.212-2.419.931-.522-.3-.317-1.6.675-2.532a12.884 12.884 0 011.9-1.417c.118-.072.292-.174.5-.3l.056-.031.123-.077A3.493 3.493 0 017.33 23.9zm5.881-4c-.281.685-.869 2.44-1.227 2.342-.307-.082-.5-1.412-.061-2.726a6.193 6.193 0 01.956-1.754c.44-.491.926-.655 1.043-.455a9.062 9.062 0 01-.711 2.593zm4.853 2.322c-.118.061-.23.1-.281.072-.036-.02.051-.1.051-.1s.609-.655.849-.951c.138-.174.3-.378.476-.609v.066c0 .782-.757 1.309-1.094 1.524zm3.744-.854c-.087-.061-.072-.266.22-.905a3.408 3.408 0 01.834-1.074 1.448 1.448 0 01.082.471 1.547 1.547 0 01-1.135 1.509z"/></svg>