<svg xmlns="http://www.w3.org/2000/svg" width="100%" height="100%" viewBox="-0.64 -0.64 33.28 33.28"><defs><linearGradient id="c" x1="-547.975" x2="-547" y1="-244.974" y2="-244.974" gradientTransform="matrix(4 0 0 -4 2204 -974)" gradientUnits="userSpaceOnUse"><stop offset="0" stop-color="#eea831"/><stop offset="1" stop-color="#ffc929"/></linearGradient><linearGradient id="a" x1="-547" x2="-544.762" y1="-247.171" y2="-247.171" gradientTransform="matrix(4 0 0 -4 2204 -974)" gradientUnits="userSpaceOnUse"><stop offset="0" stop-color="#b32629"/><stop offset=".583" stop-color="#8c1e21"/><stop offset="1" stop-color="#7a1a1d"/></linearGradient><linearGradient id="d" x1="-547" x2="-546.025" y1="-244.974" y2="-244.974" gradientTransform="matrix(4 0 0 -4 2204 -974)" gradientUnits="userSpaceOnUse"><stop offset="0" stop-color="#e8a333"/><stop offset=".612" stop-color="#c68931"/><stop offset="1" stop-color="#ab762f"/></linearGradient><linearGradient id="e" x2="-543.5" y1="-249.368" y2="-249.368" xlink:href="#a"/><linearGradient id="b" x1="-550.5" x2="-547" y1="-249.368" y2="-249.368" gradientTransform="matrix(4 0 0 -4 2204 -974)" gradientUnits="userSpaceOnUse"><stop offset="0" stop-color="#ae2524"/><stop offset=".563" stop-color="#d01d19"/><stop offset="1" stop-color="#ed1913"/></linearGradient><linearGradient id="f" x1="-549.238" y1="-247.171" y2="-247.171" xlink:href="#b"/></defs><path fill="url(#c)" d="M16 9.792V2l-3.903 5.77L16 9.792z"/><path fill="url(#a)" d="M16 12.097v7.806l8.952-4.667-3.904-5.769L16 12.097z"/><path fill="url(#d)" d="M16 9.792l3.903-2.022L16 2v7.792z"/><path fill="url(#e)" d="M26.097 16.947L16 22.208V30l14-7.283-3.903-5.77z"/><path fill="url(#b)" d="M2 22.717L16 30v-7.792L5.903 16.947 2 22.717z"/><path fill="url(#f)" d="M10.952 9.467l-3.904 5.769L16 19.903v-7.806l-5.048-2.63z"/></svg>