<svg xmlns="http://www.w3.org/2000/svg" width="100%" height="100%" viewBox="-0.64 -0.64 33.28 33.28"><path fill="#02296b" d="M5.527 22.349H2V9.651h3.527v.744H3.938v11.21h1.589v.744zM10.665 22.349H7.138V9.651h3.527v.744h-1.59v11.21h1.59v.744zM21.335 21.605h1.59v-11.21h-1.59v-.744h3.527v12.698h-3.527v-.744zM26.473 21.605h1.589v-11.21h-1.589v-.744H30v12.698h-3.527v-.744z"/><path fill="#ffd800" d="M14.993 12.126c-.178-1.225-.673-2.917-.73-3.724a1.49 1.49 0 01.972-1.5 1.923 1.923 0 011.528 0 1.49 1.49 0 01.975 1.5c-.057.807-.551 2.5-.73 3.724"/><path d="M17.161 12.148l-.307-.045c.085-.582.237-1.258.385-1.911a14.926 14.926 0 00.344-1.8 1.34 1.34 0 00-.883-1.353 1.769 1.769 0 00-1.4 0 1.34 1.34 0 00-.88 1.351 14.936 14.936 0 00.344 1.8c.148.653.3 1.328.385 1.911l-.307.045c-.083-.57-.235-1.239-.381-1.887a15.033 15.033 0 01-.35-1.849 1.632 1.632 0 011.063-1.656 2.078 2.078 0 011.656 0 1.632 1.632 0 011.063 1.656 15.041 15.041 0 01-.35 1.849c-.143.649-.298 1.318-.382 1.889z"/><path fill="#ffd800" d="M13.193 13.147c-.767-.972-2.042-2.191-2.494-2.86a1.49 1.49 0 01.09-1.788 1.923 1.923 0 011.323-.764 1.49 1.49 0 011.594.816c.354.727.771 2.44 1.23 3.591"/><path d="M13.071 13.243c-.357-.453-.823-.956-1.274-1.444a15.026 15.026 0 01-1.227-1.426 1.632 1.632 0 01.093-1.966A2.078 2.078 0 0112.1 7.58a1.632 1.632 0 011.749.9 15.032 15.032 0 01.621 1.776c.2.634.4 1.289.613 1.825l-.289.115c-.218-.547-.423-1.211-.621-1.847a14.93 14.93 0 00-.605-1.732 1.34 1.34 0 00-1.439-.73 1.769 1.769 0 00-1.211.7 1.34 1.34 0 00-.088 1.614 14.93 14.93 0 001.2 1.389c.455.492.925 1 1.289 1.462z"/><path fill="#ffd800" d="M12.143 14.933c-1.151-.458-2.863-.874-3.591-1.23a1.49 1.49 0 01-.816-1.594 1.923 1.923 0 01.764-1.322 1.49 1.49 0 011.788-.09c.673.453 1.888 1.727 2.86 2.494"/><path d="M12.086 15.078c-.538-.213-1.191-.417-1.825-.613a15.032 15.032 0 01-1.776-.621 1.632 1.632 0 01-.9-1.749 2.078 2.078 0 01.828-1.435 1.632 1.632 0 011.966-.093 15.03 15.03 0 011.421 1.228c.487.451.991.916 1.443 1.274l-.192.241c-.462-.365-.97-.835-1.462-1.289a14.935 14.935 0 00-1.389-1.2 1.34 1.34 0 00-1.614.088 1.769 1.769 0 00-.7 1.211 1.34 1.34 0 00.73 1.439 14.93 14.93 0 001.732.605c.64.2 1.3.4 1.847.621z"/><path fill="#ffd800" d="M12.127 17.009c-1.225.178-2.917.673-3.724.73a1.49 1.49 0 01-1.5-.972 1.923 1.923 0 010-1.528 1.49 1.49 0 011.5-.976c.807.057 2.5.551 3.724.73"/><path d="M8.282 17.9a1.638 1.638 0 01-1.524-1.068 2.078 2.078 0 010-1.656 1.632 1.632 0 011.656-1.063 15.033 15.033 0 011.849.35c.647.147 1.316.3 1.887.381l-.045.307c-.582-.085-1.258-.237-1.911-.385a14.936 14.936 0 00-1.8-.344 1.34 1.34 0 00-1.354.878 1.769 1.769 0 000 1.4 1.339 1.339 0 001.352.882 14.926 14.926 0 001.8-.344c.653-.148 1.328-.3 1.911-.385l.045.307c-.57.083-1.239.235-1.886.381a15.041 15.041 0 01-1.849.35q-.065.009-.131.009z"/><path fill="#ffd800" d="M13.149 18.808c-.972.767-2.19 2.042-2.86 2.494a1.49 1.49 0 01-1.788-.09 1.923 1.923 0 01-.764-1.324 1.49 1.49 0 01.816-1.588c.727-.354 2.44-.771 3.591-1.23"/><path d="M9.484 21.716a1.847 1.847 0 01-1.076-.379 2.078 2.078 0 01-.829-1.437 1.632 1.632 0 01.9-1.749 15.023 15.023 0 011.776-.621c.634-.2 1.289-.4 1.825-.613l.115.289c-.547.218-1.211.423-1.847.621a14.938 14.938 0 00-1.732.605 1.34 1.34 0 00-.73 1.439 1.769 1.769 0 00.7 1.211 1.34 1.34 0 001.614.088 14.941 14.941 0 001.389-1.2c.492-.455 1-.925 1.462-1.289l.192.243c-.453.357-.956.823-1.444 1.274a15.032 15.032 0 01-1.426 1.227 1.579 1.579 0 01-.889.291z"/><path fill="#ffd800" d="M14.936 19.858c-.458 1.151-.874 2.863-1.23 3.591a1.49 1.49 0 01-1.594.816 1.923 1.923 0 01-1.324-.764 1.49 1.49 0 01-.09-1.788c.453-.673 1.727-1.888 2.494-2.86"/><path d="M12.331 24.43q-.114 0-.233-.011a2.078 2.078 0 01-1.435-.828 1.632 1.632 0 01-.093-1.966A15.029 15.029 0 0111.8 20.2c.451-.487.917-.991 1.274-1.444l.243.192c-.365.462-.835.97-1.289 1.462a14.93 14.93 0 00-1.2 1.389 1.34 1.34 0 00.088 1.614 1.768 1.768 0 001.211.7 1.339 1.339 0 001.439-.73 14.93 14.93 0 00.605-1.732c.2-.64.4-1.3.621-1.847l.289.115c-.213.538-.417 1.191-.613 1.825a15.032 15.032 0 01-.621 1.776 1.589 1.589 0 01-1.516.91z"/><path fill="#ffd800" d="M17.01 19.874c.178 1.225.673 2.917.73 3.724a1.49 1.49 0 01-.972 1.5 1.923 1.923 0 01-1.528 0 1.49 1.49 0 01-.975-1.5c.057-.807.551-2.5.73-3.724"/><path d="M16 25.415a2.014 2.014 0 01-.828-.172 1.632 1.632 0 01-1.063-1.656 15.027 15.027 0 01.35-1.849c.147-.647.3-1.316.381-1.887l.307.045c-.085.582-.237 1.258-.385 1.911a14.936 14.936 0 00-.344 1.8 1.34 1.34 0 00.882 1.352 1.769 1.769 0 001.4 0 1.34 1.34 0 00.882-1.352 14.944 14.944 0 00-.344-1.8c-.148-.653-.3-1.328-.385-1.911l.307-.045c.083.57.235 1.24.381 1.887a15.036 15.036 0 01.35 1.849 1.632 1.632 0 01-1.063 1.656 2.014 2.014 0 01-.828.172z"/><path fill="#ffd800" d="M18.81 18.852c.767.972 2.042 2.19 2.494 2.86a1.49 1.49 0 01-.09 1.788 1.923 1.923 0 01-1.324.764 1.49 1.49 0 01-1.594-.816c-.354-.727-.771-2.44-1.23-3.591"/><path d="M19.672 24.431a1.589 1.589 0 01-1.515-.914 15.021 15.021 0 01-.621-1.776c-.2-.634-.4-1.289-.613-1.825l.289-.115c.218.547.423 1.211.621 1.847a14.93 14.93 0 00.605 1.732 1.339 1.339 0 001.439.73 1.769 1.769 0 001.211-.7 1.34 1.34 0 00.088-1.614 14.925 14.925 0 00-1.2-1.389c-.455-.492-.925-1-1.289-1.462l.243-.192c.357.453.823.956 1.273 1.443a15.017 15.017 0 011.228 1.426 1.632 1.632 0 01-.093 1.965 2.078 2.078 0 01-1.435.829 1.908 1.908 0 01-.231.015z"/><path fill="#ffd800" d="M19.861 17.066c1.151.458 2.863.874 3.591 1.23a1.49 1.49 0 01.816 1.594 1.923 1.923 0 01-.764 1.324 1.49 1.49 0 01-1.788.09c-.673-.453-1.888-1.727-2.86-2.494"/><path d="M22.521 21.716a1.579 1.579 0 01-.893-.286A15.031 15.031 0 0120.2 20.2c-.487-.451-.991-.916-1.443-1.273l.192-.239c.462.365.97.835 1.462 1.289a14.94 14.94 0 001.389 1.2 1.34 1.34 0 001.614-.088 1.769 1.769 0 00.7-1.211 1.34 1.34 0 00-.73-1.439 14.945 14.945 0 00-1.732-.605c-.64-.2-1.3-.4-1.847-.621l.115-.289c.538.213 1.191.417 1.825.613a15.027 15.027 0 011.776.621 1.632 1.632 0 01.9 1.749 2.078 2.078 0 01-.828 1.435 1.847 1.847 0 01-1.072.374z"/><path fill="#ffd800" d="M19.876 15c1.225-.178 2.917-.673 3.724-.73a1.49 1.49 0 011.5.972 1.923 1.923 0 010 1.528 1.49 1.49 0 01-1.5.972c-.807-.057-2.5-.551-3.724-.73"/><path d="M23.721 17.9a1.317 1.317 0 01-.135 0 15.036 15.036 0 01-1.849-.35c-.647-.147-1.316-.3-1.887-.381l.045-.307c.582.085 1.258.237 1.911.385a14.944 14.944 0 001.8.344 1.339 1.339 0 001.354-.891 1.769 1.769 0 000-1.4 1.339 1.339 0 00-1.352-.882 14.94 14.94 0 00-1.8.344c-.653.148-1.328.3-1.911.385l-.045-.307c.57-.083 1.239-.235 1.887-.381a15.03 15.03 0 011.849-.35 1.632 1.632 0 011.656 1.063 2.078 2.078 0 010 1.656 1.638 1.638 0 01-1.523 1.072z"/><path fill="#ffd800" d="M18.855 13.192c.972-.767 2.19-2.041 2.863-2.494a1.49 1.49 0 011.788.09 1.923 1.923 0 01.764 1.324 1.49 1.49 0 01-.816 1.594c-.727.354-2.44.771-3.591 1.23"/><path d="M19.918 15.079l-.115-.289c.547-.218 1.211-.423 1.847-.621a14.93 14.93 0 001.732-.605 1.34 1.34 0 00.73-1.439 1.768 1.768 0 00-.7-1.211 1.34 1.34 0 00-1.614-.088 14.924 14.924 0 00-1.389 1.2c-.492.455-1 .925-1.462 1.289l-.192-.243c.453-.357.956-.823 1.443-1.274a15.04 15.04 0 011.426-1.228 1.632 1.632 0 011.966.093 2.078 2.078 0 01.831 1.438 1.632 1.632 0 01-.9 1.749 15.032 15.032 0 01-1.776.621c-.632.192-1.291.395-1.827.608z"/><path fill="#ffd800" d="M17.068 12.142c.458-1.151.874-2.863 1.23-3.591a1.49 1.49 0 011.594-.816 1.923 1.923 0 011.324.764 1.49 1.49 0 01.09 1.788c-.453.673-1.727 1.888-2.494 2.86"/><path fill="#ffd800" d="M17.068 12.142c.458-1.151.874-2.863 1.23-3.591a1.49 1.49 0 011.594-.816 1.923 1.923 0 011.324.764 1.49 1.49 0 01.09 1.788c-.453.673-1.727 1.888-2.494 2.86"/><path d="M18.932 13.243l-.24-.19c.365-.462.835-.97 1.289-1.462a14.93 14.93 0 001.2-1.389 1.34 1.34 0 00-.088-1.614 1.768 1.768 0 00-1.211-.7 1.34 1.34 0 00-1.439.73 14.947 14.947 0 00-.605 1.732c-.2.64-.4 1.3-.621 1.847l-.289-.115c.213-.538.417-1.191.613-1.825a15.031 15.031 0 01.621-1.776 1.632 1.632 0 011.749-.9 2.078 2.078 0 011.435.828 1.632 1.632 0 01.093 1.966 15.034 15.034 0 01-1.231 1.425c-.453.488-.919.992-1.276 1.443z"/><path fill="#020000" d="M16 20.153A4.153 4.153 0 1120.155 16 4.158 4.158 0 0116 20.153z"/><path fill="#db9e2a" d="M19.783 16A3.781 3.781 0 1116 12.219 3.781 3.781 0 0119.783 16z"/><path fill="#da8703" d="M19.345 16A3.343 3.343 0 1116 12.657 3.343 3.343 0 0119.345 16z"/><path fill="#987d17" d="M16 13.585A2.413 2.413 0 1018.414 16 2.413 2.413 0 0016 13.585z"/><path fill="#987d17" d="M16 14.9a1.1 1.1 0 101.1 1.1 1.1 1.1 0 00-1.1-1.1z"/></svg>