<svg xmlns="http://www.w3.org/2000/svg" width="100%" height="100%" viewBox="-0.64 -0.64 33.28 33.28"><path fill="#5597bf" d="M27.5 5.5h-9.3l-2.1 4.2H4.4v16.8h25.2v-21zm0 4.2h-8.2l1.1-2.1h7.1z"/><path fill="#1572b6" d="M14.177 28.901L12.492 10h18.516l-1.686 18.898L21.739 31l-7.562-2.099z"/><path fill="#33a9dc" d="M21.75 29.393l6.127-1.699 1.442-16.149H21.75v17.848z"/><path fill="#fff" d="M21.75 18.393h3.068l.211-2.374H21.75v-2.318h5.813l-.056.622-.57 6.388H21.75v-2.318z"/><path fill="#ebebeb" d="M21.764 24.413l-.01.003-2.582-.697-.165-1.849H16.68l.325 3.64 4.748 1.318.011-.003v-2.412z"/><path fill="#fff" d="M24.62 20.613l-.279 3.105-2.585.697v2.412l4.752-1.317.035-.392.403-4.505H24.62z"/><path fill="#ebebeb" d="M21.758 13.701V16.019H16.159l-.047-.521-.105-1.175-.056-.622h5.807zM21.75 18.393V20.712h-2.549l-.046-.521-.106-1.176-.055-.622h2.756z"/></svg>