<svg xmlns="http://www.w3.org/2000/svg" width="100%" height="100%" viewBox="-0.64 -0.64 33.28 33.28"><path fill="#0f9bd7" d="M13.652 8.338A4.906 4.906 0 0117.2 6.814a4.957 4.957 0 014.32 2.56 5.972 5.972 0 012.442-.519 6.089 6.089 0 11-1.189 12.06 4.412 4.412 0 01-5.782 1.816 5.034 5.034 0 01-9.357-.231 4.646 4.646 0 01-.96.1 4.732 4.732 0 01-2.337-8.812 5.438 5.438 0 019.315-5.453"/><path fill="#fff" d="M25.376 30.966h-.561a4.658 4.658 0 01-1.284-.137 1.9 1.9 0 01-.818-.482 1.726 1.726 0 01-.455-.843 6.77 6.77 0 01-.106-1.413 5.889 5.889 0 00-.084-1.33 1 1 0 00-.3-.544 1.223 1.223 0 00-.66-.179l-.236-.014v-1.879l.236-.014a1.482 1.482 0 00.549-.1.706.706 0 00.273-.264 1.394 1.394 0 00.181-.529 6.683 6.683 0 00.044-.939 8.132 8.132 0 01.112-1.643 1.7 1.7 0 01.448-.841 2.144 2.144 0 01.906-.492 4.514 4.514 0 011.2-.116h.561v1.9h-.25a2.589 2.589 0 00-.743.056.284.284 0 00-.148.117.839.839 0 00-.054.386q0 .372-.053 1.413a3.74 3.74 0 01-.166 1.009 1.945 1.945 0 01-.693 1 2.01 2.01 0 01.7 1.044 4.627 4.627 0 01.163 1.079c.027.657.041 1.074.041 1.256a.871.871 0 00.057.408.343.343 0 00.164.125 2.382 2.382 0 00.728.06h.25z"/><path fill="#0072a0" d="M21.118 25.788v-1.406a1.752 1.752 0 00.645-.129.936.936 0 00.375-.354 1.621 1.621 0 00.217-.624 6.88 6.88 0 00.045-.975 8 8 0 01.105-1.585 1.456 1.456 0 01.381-.721 1.9 1.9 0 01.8-.431 4.336 4.336 0 011.125-.105h.311v1.4a2.876 2.876 0 00-.835.073.53.53 0 00-.272.223 1.079 1.079 0 00-.088.513q0 .369-.053 1.4a3.531 3.531 0 01-.152.94 1.918 1.918 0 01-.313.595 2.47 2.47 0 01-.583.486 2.045 2.045 0 01.565.466 1.869 1.869 0 01.337.647 4.41 4.41 0 01.152 1.02q.041.973.041 1.242a1.1 1.1 0 00.094.539.584.584 0 00.284.231 2.649 2.649 0 00.823.079v1.406h-.311a4.474 4.474 0 01-1.211-.128 1.644 1.644 0 01-.712-.419 1.478 1.478 0 01-.39-.724 6.621 6.621 0 01-.1-1.356 6.374 6.374 0 00-.094-1.4 1.232 1.232 0 00-.39-.671 1.431 1.431 0 00-.796-.232z"/><path fill="#fff" d="M27.011 30.966h-.561v-1.907h.25a2.329 2.329 0 00.726-.059.323.323 0 00.165-.127.812.812 0 00.058-.379q0-.36.05-1.375a3.725 3.725 0 01.173-1.047 2.223 2.223 0 01.387-.7 2.145 2.145 0 01.3-.292 2.141 2.141 0 01-.4-.4 2.612 2.612 0 01-.421-1.092 17.525 17.525 0 01-.1-1.841 1.357 1.357 0 00-.053-.479c-.008-.016-.031-.062-.136-.106a2.524 2.524 0 00-.757-.06h-.25V19.2h.561a4.793 4.793 0 011.283.133 1.841 1.841 0 01.818.485 1.781 1.781 0 01.453.843 6.6 6.6 0 01.109 1.414 6.359 6.359 0 00.079 1.336.992.992 0 00.3.537 1.226 1.226 0 00.664.18l.236.014v1.879l-.236.014a1.482 1.482 0 00-.549.1.686.686 0 00-.27.262 1.484 1.484 0 00-.186.534 6.743 6.743 0 00-.043.931 8.383 8.383 0 01-.108 1.644 1.694 1.694 0 01-.446.846 2.143 2.143 0 01-.913.492 4.5 4.5 0 01-1.183.122z"/><path fill="#0072a0" d="M30.708 25.788a1.752 1.752 0 00-.645.129.918.918 0 00-.372.354 1.725 1.725 0 00-.22.624 6.82 6.82 0 00-.047.973 8.27 8.27 0 01-.1 1.588 1.439 1.439 0 01-.378.724 1.9 1.9 0 01-.809.431 4.336 4.336 0 01-1.125.105H26.7V29.31a2.652 2.652 0 00.82-.079.572.572 0 00.28-.231 1.05 1.05 0 00.1-.5q0-.357.05-1.365a3.53 3.53 0 01.158-.976 1.976 1.976 0 01.343-.621 2.038 2.038 0 01.549-.453 2.416 2.416 0 01-.633-.551 2.339 2.339 0 01-.375-.984 17.564 17.564 0 01-.094-1.8 1.571 1.571 0 00-.079-.586.487.487 0 00-.264-.226 2.8 2.8 0 00-.853-.079v-1.4h.311a4.576 4.576 0 011.213.123 1.587 1.587 0 01.709.419 1.529 1.529 0 01.39.727 6.436 6.436 0 01.1 1.356 6.842 6.842 0 00.088 1.4 1.223 1.223 0 00.393.671 1.447 1.447 0 00.8.231z"/></svg>