<svg xmlns="http://www.w3.org/2000/svg" width="100%" height="100%" viewBox="-0.64 -0.64 33.28 33.28"><path d="M10.4 25.3v1.5h-.7a5.57 5.57 0 01-3.5-.8c-.6-.5-.9-1.6-.9-3.1v-2.5a2.863 2.863 0 00-.6-2.2 2.635 2.635 0 00-2.1-.6H2v-1.5h.7a2.743 2.743 0 002.1-.6 4.032 4.032 0 00.6-2.2v-2.5c0-1.6.3-2.6.9-3.1a5.332 5.332 0 013.4-.9h.7v1.5h-.7a2.877 2.877 0 00-2 .5 3.513 3.513 0 00-.5 2v2.6a4.025 4.025 0 01-.5 2.4 2.748 2.748 0 01-1.6 1 2.7 2.7 0 011.7 1 4.94 4.94 0 01.5 2.4v2.6a2.877 2.877 0 00.5 2 2.746 2.746 0 001.9.5zM20.9 25.3h.7a2.506 2.506 0 001.9-.5 2.815 2.815 0 00.4-2v-2.6a4.025 4.025 0 01.5-2.4 2.333 2.333 0 011.7-1 2.7 2.7 0 01-1.7-1 4.94 4.94 0 01-.5-2.4v-2.6a3.444 3.444 0 00-.4-2 3.394 3.394 0 00-1.9-.5h-.7V6.8h.7a5.57 5.57 0 013.5.8c.6.5.9 1.6.9 3.1v2.5a2.863 2.863 0 00.6 2.2 2.635 2.635 0 002.1.6h.7v1.5h-.7a2.743 2.743 0 00-2.1.6 2.863 2.863 0 00-.6 2.2v2.5c0 1.6-.3 2.6-.9 3.1a5.778 5.778 0 01-3.5.8h-.7z"/><path fill="#0c479c" d="M20.4 19.2c-.1 0-.2-.1-.3-.1h.1s-.6-.3-.7-2.3.6-2.4.6-2.4H20a2.818 2.818 0 10-2.6-5 2.752 2.752 0 00-1.5 2.9s.2.7-1.5 1.8-2.5.5-2.5.5v.1l-.1-.1a2.818 2.818 0 10-2.6 5 2.911 2.911 0 003.1-.3s.6-.5 2.4.5c1.4.8 1.6 1.5 1.7 1.8a2.8 2.8 0 105.6.2 3.076 3.076 0 00-1.6-2.6zm-3.1.4c-.3.1-.9.2-2.3-.6-1.5-.8-1.7-1.5-1.7-1.7v-.7s-.1-.6 1.6-1.7c1.5-.9 2.2-.8 2.3-.7a2.01 2.01 0 00.8.4 2.863 2.863 0 01.6 2.2 3.216 3.216 0 01-.6 2.3 4.234 4.234 0 00-.7.5z"/><path fill="#fff" d="M17.1 10.4a2.052 2.052 0 000 2.9 1.654 1.654 0 010-1.9.758.758 0 01.4-.2.569.569 0 00.7-.4.749.749 0 00-.1-.5 1.657 1.657 0 012-.2 2.082 2.082 0 00-3 .3zM8.9 15.7a2.052 2.052 0 000 2.9 1.654 1.654 0 010-1.9.758.758 0 01.4-.2.569.569 0 00.7-.4.749.749 0 00-.1-.5 1.657 1.657 0 012-.2 2.082 2.082 0 00-3 .3zM17.6 20.1a2.052 2.052 0 000 2.9 1.654 1.654 0 010-1.9.758.758 0 01.4-.2.569.569 0 00.7-.4v-.2a.758.758 0 00-.2-.4 1.657 1.657 0 012-.2 2.171 2.171 0 00-2.9.4z"/></svg>