<svg xmlns="http://www.w3.org/2000/svg" width="100%" height="100%" viewBox="-0.64 -0.64 33.28 33.28"><path fill="#252525" d="M7.448 21.983v-8.208l-2.432.669v8.729a2.66 2.66 0 01-.106.929.336.336 0 01-.308.239.405.405 0 01-.212-.074 1.282 1.282 0 01-.287-.3 2.813 2.813 0 00-.377-.409.874.874 0 00-.611-.207 1.22 1.22 0 00-.812.255.789.789 0 00-.3.627.907.907 0 00.539.767 3.115 3.115 0 001.561.319 7.065 7.065 0 001.37-.122 2.361 2.361 0 001.057-.483 2.292 2.292 0 00.68-1.014 5.094 5.094 0 00.239-1.715zM10.825 14.008H8.4v5.618a2.241 2.241 0 00.218.977 2.489 2.489 0 00.6.8 2.9 2.9 0 00.892.536 3.045 3.045 0 001.1.2 2.55 2.55 0 001.051-.244 4.347 4.347 0 001.019-.648v.743h2.43v-7.982h-2.421v5.756a2.764 2.764 0 01-.648.706 1.139 1.139 0 01-.648.281 1.155 1.155 0 01-.457-.09 1.263 1.263 0 01-.372-.239 1.06 1.06 0 01-.25-.356 1.091 1.091 0 01-.09-.441zM19.074 21.983V10.132l-2.411.669v11.182zM20.038 14.444v7.54h2.421v-8.209zM27.568 17.863v2.3q-.372.276-.674.457a1.165 1.165 0 01-.6.181.468.468 0 01-.276-.09 1 1 0 01-.234-.239 1.138 1.138 0 01-.165-.356 1.576 1.576 0 01-.058-.43.968.968 0 01.181-.552 2.306 2.306 0 01.473-.5 4.572 4.572 0 01.648-.43 7.612 7.612 0 01.706-.345zM30 21.983V16a2.083 2.083 0 00-.191-.9 1.779 1.779 0 00-.595-.69 3.006 3.006 0 00-1.025-.441 6.225 6.225 0 00-1.481-.154 5.735 5.735 0 00-1.327.149 4.6 4.6 0 00-1.1.4 2.373 2.373 0 00-.759.611 1.216 1.216 0 00-.281.77.958.958 0 00.319.738 1.178 1.178 0 00.828.292 1.364 1.364 0 00.547-.1.8.8 0 00.335-.255.986.986 0 00.165-.372 1.978 1.978 0 00.048-.435 1.031 1.031 0 01.223-.669.975.975 0 01.8-.276 1.008 1.008 0 01.781.319 1.594 1.594 0 01.292 1.083v.786l-.265.064q-.488.149-.988.313t-.961.361a7.884 7.884 0 00-.865.43 3.511 3.511 0 00-.706.531 2.319 2.319 0 00-.478.669 1.918 1.918 0 00-.175.828 2.034 2.034 0 00.165.823 1.876 1.876 0 00.473.653 2.255 2.255 0 00.749.435 2.907 2.907 0 00.993.159 3.679 3.679 0 00.7-.058 2.509 2.509 0 00.536-.165 2.209 2.209 0 00.43-.25q.191-.143.393-.313v.637z"/><circle cx="6.204" cy="11.672" r="1.5" fill="#6682df"/><path fill="#4063d8" d="M6.2 13.287a1.615 1.615 0 111.615-1.615A1.617 1.617 0 016.2 13.287zm0-3a1.385 1.385 0 101.385 1.385A1.386 1.386 0 006.2 10.287z"/><circle cx="21.417" cy="11.672" r="1.5" fill="#d5635c"/><path fill="#cb3c33" d="M21.417 13.287a1.615 1.615 0 111.615-1.615 1.617 1.617 0 01-1.615 1.615zm0-3a1.385 1.385 0 101.383 1.385 1.386 1.386 0 00-1.383-1.385z"/><circle cx="23.385" cy="8.297" r="1.5" fill="#60ad51"/><path fill="#389826" d="M23.385 9.912A1.615 1.615 0 1125 8.3a1.617 1.617 0 01-1.615 1.612zm0-3A1.385 1.385 0 1024.77 8.3a1.386 1.386 0 00-1.385-1.388z"/><circle cx="25.354" cy="11.672" r="1.5" fill="#aa79c1"/><path fill="#9558b2" d="M25.354 13.287a1.615 1.615 0 111.615-1.615 1.617 1.617 0 01-1.615 1.615zm0-3a1.385 1.385 0 101.385 1.385 1.386 1.386 0 00-1.385-1.385z"/></svg>