<svg xmlns="http://www.w3.org/2000/svg" width="100%" height="100%" viewBox="-0.64 -0.64 33.28 33.28"><path fill="#fad7ee" d="M27.5 5.5h-9.2l-2.1 4.2H4.4v16.8h25.2v-21zm0 18.7H6.7V11.8h20.8zm0-14.5h-8.2l1-2.1h7.1v2.1z"/><path fill="#fad7ee" d="M25.822 13.7H.622l3.8 12.8h25.2l-3.8-12.8z"/><path fill="#e535ab" stroke="#e535ab" stroke-miterlimit="10" stroke-width=".083" d="M30.932 25.457a1.84 1.84 0 01-2.965.3l-4.212 2.432a1.837 1.837 0 11-3.506.059l-4.237-2.446a1.838 1.838 0 11-1.764-3.054v-4.9a1.838 1.838 0 111.762-3.051l4.239-2.447a1.837 1.837 0 113.522 0h0l4.238 2.447a1.838 1.838 0 111.764 3.049v4.9a1.837 1.837 0 011.158 2.7zm-7.6-12.341l-.049.049 5.548 9.609.071-.019v-4.9a1.835 1.835 0 01-1.322-2.285l-4.248-2.453zm-2.641 0l-4.247 2.452a1.835 1.835 0 01-1.321 2.288v4.9l.072.019 5.548-9.609h0zm1.834.487a1.856 1.856 0 01-1.025 0l-5.548 9.607a1.829 1.829 0 01.517.894h11.085a1.844 1.844 0 01.517-.9zm.845 13.934l4.22-2.437q-.019-.06-.034-.121h-11.09l-.019.071 4.241 2.45a1.839 1.839 0 012.682.037z"/></svg>