<svg xmlns="http://www.w3.org/2000/svg" width="100%" height="100%" viewBox="-0.64 -0.64 33.28 33.28"><path fill="#a6acb4" d="M29.3 12.7a2.2 2.2 0 000-3.1 1.1 1.1 0 00-.5-.5A7.1 7.1 0 0025.1 8a1.3 1.3 0 00-.9.2 6.9 6.9 0 00-3.8 1.5c-.1.1-.2.2-.4.1a6.4 6.4 0 00-1.9-.8 7.2 7.2 0 00-6 .8l-.6-.5a7.9 7.9 0 00-3.3-1 6.5 6.5 0 00-6.1 3.6 1.2 1.2 0 00-.1.6 3.2 3.2 0 001.6 2.8 6.1 6.1 0 003.6.9h1.1a1.9 1.9 0 00-.3.7 8.6 8.6 0 00-.4 2.4 3.8 3.8 0 003.2 4.1 34.4 34.4 0 005.1.8 11.2 11.2 0 002.6 0 15.7 15.7 0 003.7-1.1 4.8 4.8 0 001.8-1.7 2.9 2.9 0 00.7-2 11.9 11.9 0 00-.3-2.2c0-.2-.1-.4.2-.4l1.3-.5a5.7 5.7 0 002.9-1.7 1.1 1.1 0 00.2-1.3c-.1-.3-.1-.4.1-.5z"/><path fill="#4b5b64" d="M13.7 20.5a4 4 0 011.3-2.3 2 2 0 012.8.3v.2l.6 1.2a6.2 6.2 0 010 .8 2.7 2.7 0 01-3.3 1.7H15a2 2 0 01-1.3-1.9z"/><path fill="#283037" d="M13.7 20.5l.5 1a2.2 2.2 0 002.8.5 2.5 2.5 0 001.3-1.4c.1-.1.1-.3.1-.5s0-.2.1-.1a3.2 3.2 0 01.3 1.8 1.3 1.3 0 01-.5.9 3.5 3.5 0 01-3.1.6 2.2 2.2 0 01-1.6-2.4z"/><path fill="#0a090b" d="M10.6 20.3a1.4 1.4 0 01.2-1.4.8.8 0 011.2-.3l.3.4a1.3 1.3 0 01-.6 1.7.8.8 0 01-1.1-.2zM20.1 20.3a1.1 1.1 0 001.1.5.9.9 0 00.6-.8 1 1 0 00-.2-.7l-.4-.4a.8.8 0 00-1-.1.7.7 0 00-.3.9v.2z"/><path fill="#8e949c" d="M10.6 20.3c.4.4.6.5 1 .3a1.4 1.4 0 00.8-1.3V19a1.5 1.5 0 01-.3 2.1H12a1 1 0 01-1.3-.6zM20.8 21.2a.7.7 0 00.9-.2 1.4 1.4 0 00-.1-1.7v.5a.9.9 0 01-.4.9c-.3.2-.6 0-.8-.2a1.7 1.7 0 01-.5-.6 1.6 1.6 0 00.9 1.3z"/><path fill="#d48691" d="M27 10.5h.1c-.2 1.4-.4 2.5-2 3.1l-1.2.4a.8.8 0 01-.8-.3 3.3 3.3 0 01-.6-1 .6.6 0 01.3-.6 7.7 7.7 0 012.8-1.5zM6.2 14.3h1.9c.5-.1 1 0 1-.7a.9.9 0 01.1-.5.3.3 0 00.1-.2c-.1-.2.1-.3 0-.5h-.5a6.8 6.8 0 00-3.6.8c-.4.4-.3.5.1.8l.6.3z"/><path fill="#c95e66" d="M27 10.5l-2.6.8-1.6 1-.3.4c-.6-1.1-.5-1 .4-1.6a5.1 5.1 0 014.1-.6zM9.3 12.5c.3-.8.2-.9-.6-1h-.3a5.9 5.9 0 00-3.2 1.6l.6-.2a7.4 7.4 0 013.4-.4z"/><path fill="#fcfdfc" d="M11.3 19c0-.2.1-.4.3-.3a.7.7 0 01.5.7c0 .2-.1.4-.4.4s-.4-.5-.4-.8zM20.7 18.8a.4.4 0 00-.4.3.4.4 0 00.3.4c.2 0 .3-.1.4-.3a.4.4 0 00-.3-.4z"/></svg>