<svg xmlns="http://www.w3.org/2000/svg" width="100%" height="100%" viewBox="-0.64 -0.64 33.28 33.28"><path fill="#bf555d" d="M27.5 5.5h-9.3l-2.1 4.2H4.4v16.8h25.2v-21zm0 4.2h-8.2l1.1-2.1h7.1z"/><path fill="#0e0f0d" d="M30.946 17.4a3.514 3.514 0 00-.037-.225 2.391 2.391 0 00-.054-.233l-.058-.093a4.05 4.05 0 00-.765-.458 8.898 8.898 0 00-.663-.275 9.449 9.449 0 00-3.107-4.337 8.112 8.112 0 00-9.915 0 9.449 9.449 0 00-3.107 4.334 7.948 7.948 0 00-.662.274 4.033 4.033 0 00-.765.458l-.058.093c-.023.084-.038.156-.054.233s-.026.15-.037.225c-.022.15-.036.3-.044.457a5.74 5.74 0 00.027.92 5.817 5.817 0 00.169.9 4.227 4.227 0 00.15.44c.028.075.059.145.094.217l.054.108c.042.075.049.088.067.114l.079.075.141.069.136.061.075.031a11.3 11.3 0 00-1.875 2.235L10 24.185l1.032-.906a16.973 16.973 0 012.325-1.613l.02.166a6.033 6.033 0 00-.683.4c-.225.186-.235.474-.175 1.012a9.327 9.327 0 00.273 1.3c.24.844.416.993.571 1.028a1.165 1.165 0 00.261.025 3.355 3.355 0 00.862-.124 8.465 8.465 0 001.125 2.271l-.067.019c-.281-.13-1.266-.586-1.6-.735l-.691-.311.409.638c.03.046.736 1.147 1.312 1.888a3.16 3.16 0 002.67 1.4 4.788 4.788 0 00.525-.031c.415-.048.727-.085.964-.115a6.535 6.535 0 004.6-.01 6.736 6.736 0 001.15-.568 87.5 87.5 0 001.554-.385l.181-.045a2.1 2.1 0 001.582-1.064c.4-.8 1.05-2.025 1.056-2.035l.3-.571-.592.257c-.031.014-.782.341-1.172.546a11.12 11.12 0 00.486-1.339 3.807 3.807 0 00.78.046 1.36 1.36 0 00.316-.04c.154-.039.274-.142.5-1.013a9.762 9.762 0 00.25-1.341c.049-.551.034-.847-.191-1.033a5.09 5.09 0 00-.608-.357.235.235 0 01.143-.027l.15-.576c.053-.022.11-.046.175-.07l.275-.112.136-.061c.047-.022.089-.042.141-.069l.079-.075a.7.7 0 00.037-.06c.05-.09.067-.125.085-.161.034-.075.064-.145.094-.217.057-.145.1-.292.15-.44a5.806 5.806 0 00.17-.9 5.687 5.687 0 00.026-.917 4.739 4.739 0 00-.044-.457z"/><path fill="#e1c5a2" d="M22.262 29.262a4.962 4.962 0 01-.334.039c-.075 0-.15.01-.216.01h-.025c.086-.193.15-.342.2-.455.1.113.229.253.375.4"/><path fill="#a89983" d="M22.126 20.656a4.908 4.908 0 01-.551.39l-.64.386a5.416 5.416 0 00-.769.154.11.11 0 00-.033.014.15.15 0 00-.066.084l-.652 2.148-3.485.774-1.1-.769-.319-2.586a35.317 35.317 0 012.457-.359 7.214 7.214 0 00-.31.4l-.6.856.868-.578a14.232 14.232 0 011.474-.81 40.035 40.035 0 013.723-.104zM16.7 23.573a2.012 2.012 0 01.965-.113h.277c.45 0 .825.038.82-.67s-.322-1.281-.772-1.275-.887.584-.86 1.292a1.125 1.125 0 00.075.413.712.712 0 00-.508.357zM28.164 21.244l-.316 2.2-1.1.775-3.48-.4-.649-2.138a.15.15 0 00-.1-.1 5.306 5.306 0 00-.909-.169l.083-.005a13.831 13.831 0 002.7-.646 36.923 36.923 0 013.768.478zm-2.223 2.035c0-.017-.1-.3-.519-.252a.894.894 0 00.055-.442c-.055-.706-.466-1.268-.917-1.252s-.739.6-.715 1.31.4.7.853.686c.606-.011.938-.2 1.242-.05z"/><path fill="#fff" d="M24.751 22.007a.23.23 0 11-.235-.225.23.23 0 01.235.225M18.293 22.176a.231.231 0 11-.237-.225.23.23 0 01.236.224"/><path fill="#e1c5a2" d="M29.683 22.211a3.927 3.927 0 00-.413-.244l-.292 2.044a.15.15 0 01-.061.1l-.417.289-.025.129a1.2 1.2 0 001.032-.408 8.567 8.567 0 00.225-1.223c.047-.53.005-.644-.048-.688M23.239 29.977a1.993 1.993 0 01-.735-.467l-.053-.054a4.419 4.419 0 01-.512.075c-.075 0-.143.01-.22.01h-.157a1.981 1.981 0 01-1.035.708 6.307 6.307 0 002.711-.27M14.325 24.971l-.028-.092-.542-.379a.15.15 0 01-.061-.1l-.264-2.146a4.533 4.533 0 00-.482.283c-.052.043-.092.15-.036.664a8.782 8.782 0 00.316 1.418 1.453 1.453 0 001.1.354M22.429 24.873a.15.15 0 01-.123-.1l-.669-2.2a1.922 1.922 0 00-.591 0l-.65 2.141a.15.15 0 01-.108.1l-.311.069a.52.52 0 01-.4.359 33.052 33.052 0 01-3.75.975 3.168 3.168 0 01-.845-.4 6.734 6.734 0 01-.185-.478A9.532 9.532 0 0016 27.63c.837-.247 1.56-.477 1.792-.55.471-.726 1.141-1.447 1.618-1.471.082 0 .168-.007.252-.007a5.637 5.637 0 01.663.041.829.829 0 01-.237-.429 2.032 2.032 0 001.382.375 2.442 2.442 0 001.256-.546l.015-.137-.311-.035"/><path fill="#e1c5a2" d="M23.058 25.152a.652.652 0 01-.325-.177l-.008.07a.79.79 0 01-.34.577 4.6 4.6 0 011.1-.263.541.541 0 01.39.158l.053.044c.5.393 1.1.87 1.275 1.01.2.023.848.1 1.254.134.234.022.445.04.652.04.067 0 .129 0 .189-.006a10.327 10.327 0 00.586-1.363 4.22 4.22 0 01-1.043.584 32.9 32.9 0 01-3.785-.808"/><path fill="#e0d896" d="M30.56 17.443a5.028 5.028 0 00-.044-.361 4.266 4.266 0 00-.625-.427 8.108 8.108 0 00-.75-.385 15.12 15.12 0 00-.783-.337q-.2-.081-.4-.155c-.133-.052-.268-.1-.4-.15.283.047.563.112.841.183.181.046.361.1.54.155a8.291 8.291 0 00-7.639-5.487 8.289 8.289 0 00-7.63 5.488c.178-.056.358-.109.539-.155a8.554 8.554 0 01.842-.183c-.136.049-.27.1-.4.15s-.266.1-.4.155a15.41 15.41 0 00-.784.337 8.249 8.249 0 00-.75.385 4.286 4.286 0 00-.625.427c-.007.048-.016.1-.022.15-.008.07-.016.14-.022.211a5.495 5.495 0 00-.018.426 6.238 6.238 0 00.217 1.687q.056.2.13.4a3.606 3.606 0 00.123.281l.018.034.063.031.126.06c.07.032.168.075.249.115l.013-.012-.235-.894c.049-.013.495-.129 1.263-.275a3.261 3.261 0 01-.186-.04 3.923 3.923 0 01-.514-.164 2.374 2.374 0 01-.242-.117.834.834 0 01-.214-.163 13.05 13.05 0 004.137-.009 42.478 42.478 0 014.268-.243 42.462 42.462 0 014.265.244 12.983 12.983 0 004.137.009.832.832 0 01-.213.163 2.434 2.434 0 01-.243.117 3.894 3.894 0 01-.514.164l-.075.017c.842.156 1.333.283 1.384.3l-.225.851.135-.06.127-.06.064-.031.017-.034.044-.091a3.606 3.606 0 00.21-.59 6.321 6.321 0 00.22-1.687 4.67 4.67 0 00-.019-.426"/><path fill="#d7c184" d="M24.8 15.789a6.04 6.04 0 01-.173 1.716.139.139 0 000 .075c-.225-.024-.45-.044-.675-.062a3.709 3.709 0 00.32-1.294 5.924 5.924 0 00.529-.433M18.342 16.224a3.687 3.687 0 00.32 1.294q-.338.027-.675.062a.142.142 0 000-.075 6.081 6.081 0 01-.174-1.716 5.981 5.981 0 00.53.433M27.567 18.107v.019l.075.022a5.685 5.685 0 01.617.232 2.389 2.389 0 01-.661-1.318 6.005 6.005 0 01-.024 1.044M17.534 15.669l-2.154.613a7.18 7.18 0 00-.069 1.7l.011-.007a6.315 6.315 0 01.213-1.263c.075-.18.525-.295.868-.375s.894-.246 1 .238a3.475 3.475 0 00.243.73 6.706 6.706 0 01-.113-1.635M25.073 15.669a6.583 6.583 0 01-.13 1.712 3.342 3.342 0 00.282-.808c.106-.484.655-.319 1-.238s.795.2.868.375a5.732 5.732 0 01.208 1.2 7.359 7.359 0 00-.075-1.633l-2.154-.607M18.324 15.856c.075.061.157.121.235.173a.142.142 0 01.061.115 3.418 3.418 0 00.33 1.321.211.211 0 01.01.028c.78-.053 1.562-.075 2.343-.075s1.563.023 2.342.075a.144.144 0 01.011-.03 3.415 3.415 0 00.33-1.321.143.143 0 01.062-.115c.075-.051.15-.109.225-.167l.01-.028a10.991 10.991 0 00-.326-3.773c-.01.494-.127 4.728-1.178 4.728h-2.9c-1.116 0-1.206-4.774-1.206-4.774l-.058.169a10.939 10.939 0 00-.293 3.672M15.045 18.125v-.019a5.938 5.938 0 01-.025-1.045 2.391 2.391 0 01-.663 1.319 5.624 5.624 0 01.618-.232l.075-.022"/><path fill="#9f8f78" d="M28.475 24.53c-.018.091-.032.165-.061.28a2.554 2.554 0 00.817.062 2.428 2.428 0 00.276-.75 1.2 1.2 0 01-1.032.408M19.9 30.385a5.242 5.242 0 001.73.186 6.913 6.913 0 002.12-.486 1.966 1.966 0 01-.514-.108 6.305 6.305 0 01-2.711.27 2.85 2.85 0 01-.5.118c-.042 0-.075.01-.125.019M14.363 25.1a6.16 6.16 0 01-.037-.128 1.452 1.452 0 01-1.1-.354 1.9 1.9 0 00.245.575 2.68 2.68 0 00.889-.094M14.981 25.807a3.163 3.163 0 00.845.4 33.052 33.052 0 003.75-.975.52.52 0 00.4-.359l-4.252.95H15.7a.15.15 0 01-.084-.026l-.166-.115-.5-.346-.2-.14.011.034.034.1c.014.042.075.219.186.478M28.014 24.991c.027-.1.054-.2.075-.3l-.15.1-.4.278-.43.3a.15.15 0 01-.075.026h-.026l-4.278-.487-.007.067a.651.651 0 00.325.177 32.881 32.881 0 003.785.808 4.217 4.217 0 001.043-.584l.006-.017.055-.161.067-.207"/><path fill="#6e6a67" d="M23.487 19.223l-.11.141a9.266 9.266 0 01-.817.909q-.583-.018-1.2-.019c-.675 0-1.329.018-1.95.047a15.51 15.51 0 013.062-.928q.5-.094 1.015-.15M18.38 19.617a7.752 7.752 0 00-1 .837c-.874.088-1.636.193-2.264.295a17.181 17.181 0 013.269-1.132M29.054 21.42l-.354 2.486L27 25.1l-4.439-.5-.668-2.2a.15.15 0 00-.116-.1 2.375 2.375 0 00-.864 0 .15.15 0 00-.116.1l-.657 2.14-4.414.982-1.751-1.222-.345-2.79.229-.127q.163-.035.365-.075l.325 2.632a.142.142 0 00.061.1l1.2.844a.15.15 0 00.083.026.169.169 0 00.032 0l3.63-.808a.179.179 0 00.036-.013.145.145 0 00.075-.089l.654-2.151a4.54 4.54 0 011.019-.15 4.548 4.548 0 011.018.15L23.011 24a.15.15 0 00.123.1l3.63.412a.145.145 0 00.1-.025l1.21-.842a.15.15 0 00.06-.1l.322-2.25c.241.046.443.088.6.123M29.5 19.861l-.313 1.186a34.167 34.167 0 00-3.953-.6 9.628 9.628 0 001.84-1.017c1.137.16 1.972.333 2.425.436M13.225 19.861l.087.328c.243-.193.466-.354.653-.482-.306.058-.556.112-.74.154"/><path fill="#93232c" d="M25.479 19.2q-.718-.04-1.435-.07c-.028.041-.084.123-.165.234a9.13 9.13 0 01-1.41 1.522 11.294 11.294 0 003.4-1.663l-.391-.024M21.974 19.073c-.242 0-.485-.006-.727-.007-.357 0-.713.005-1.07.012l-.658.312-.01.005a7.735 7.735 0 00-1.777 1.261c.071-.037.15-.075.225-.115a11.329 11.329 0 013.476-1.473c.18 0 .36 0 .54.005M17.93 19.154q-.457.021-.914.047-.529.029-1.057.07c-.175.013-.351.028-.525.046l-.15.016a14.711 14.711 0 00-3.426 2.823l.064-.075a13.8 13.8 0 016.007-2.929M28.049 27l-.04.021a1.924 1.924 0 01-.9.175 7.73 7.73 0 01-.694-.041 61.255 61.255 0 01-1.33-.144l-.064-.007-.05-.04c-.007-.005-.735-.585-1.323-1.05l-.065-.053c-.062-.053-.062-.053-.1-.053a13.274 13.274 0 00-1.939.542l-.075.023-.075-.028a5.6 5.6 0 00-1.741-.294c-.075 0-.154 0-.229.006-.094 0-.625.257-1.3 1.331l-.043.069-.081.026c-.011 0-1.18.381-2.419.735l-.08.022-.075-.035c-.008 0-.492-.225-.953-.439l.1.047c.455.393 1.327 1.149 1.425 1.254a.681.681 0 00.054.054c-.022-.025-.044-.052-.066-.075a2.6 2.6 0 00.67.471 1.467 1.467 0 00.381.124 1.193 1.193 0 00.2.016c.067 0 .136 0 .2-.005q.408-.021.825-.061c.277-.027.548-.052.825-.085s.547-.064.817-.106a4.01 4.01 0 00.4-.075 1.078 1.078 0 00.184-.055.8.8 0 00.15-.11c.1-.088.2-.185.3-.282s.193-.2.288-.3c.16-.168.3-.346.45-.52l.06-.059.1.075c.187.139.38.29.566.421a8.619 8.619 0 00.735.478 1.142 1.142 0 00.19.088l.021.005a.09.09 0 00.023.005h.148c.142-.01.286-.031.43-.053.287-.045.576-.1.862-.154s.574-.114.859-.177.572-.127.855-.2a2.365 2.365 0 00.407-.133 1.579 1.579 0 00.357-.235 2.775 2.775 0 00.562-.675 3.046 3.046 0 00.193-.439M22.687 13.484h.505v-1.027h-3.7v1.027H20v-.525h1.046v3.173h-.43v.589h1.458v-.589h-.43v-3.169h1.046v.525"/><path fill="#731b2a" d="M26.514 19.27q-.314-.024-.628-.043h-.012a11.294 11.294 0 01-3.4 1.662l-.028.024a11.354 11.354 0 002.538-.768 8.521 8.521 0 001.429-.8l.1-.075M21.434 19.069a11.324 11.324 0 00-3.476 1.473c.357-.181.779-.382 1.254-.58h.007l.15-.061.048-.019.129-.052.075-.028.118-.046.089-.034.11-.041.1-.037.1-.037.118-.041.094-.032.14-.046.075-.025.225-.07q.245-.075.5-.145c.225-.06.45-.117.675-.168-.18 0-.36 0-.54-.005M17.93 19.154a13.8 13.8 0 00-6.007 2.929l-.064.075a19.672 19.672 0 015.507-2.68l.235-.067q.6-.169 1.238-.293-.454.016-.91.037M28.485 26.79l-.022.01-.046.022-.037.017-.03.014-.046.022-.019.01-.051.025-.011.006-.054.026h-.006L28.05 27a3.045 3.045 0 01-.193.439 2.782 2.782 0 01-.561.675 1.579 1.579 0 01-.357.235 2.376 2.376 0 01-.407.133c-.283.075-.568.138-.855.2s-.572.122-.859.177-.575.109-.862.154a5.366 5.366 0 01-.43.053h-.148a.086.086 0 01-.022-.005l-.021-.005a1.125 1.125 0 01-.19-.088 8.692 8.692 0 01-.735-.478c-.186-.13-.379-.281-.566-.421l-.016.023.035.031-.025-.019.157.187.018.021c.08.094.415.482.812.876a1.494 1.494 0 001.086.45 1.937 1.937 0 00.445-.055l.45-.109c.464-.11.975-.233 1.319-.322l.066-.017.131-.035c.061-.017.13-.034.2-.049a1.674 1.674 0 001.279-.825 57.577 57.577 0 01.672-1.299l.058-.11.03-.057-.07.033M21.708 28.086l-.027-.025c-.155.173-.293.352-.45.52-.1.1-.19.2-.288.3s-.2.195-.3.282a.8.8 0 01-.15.11 1.068 1.068 0 01-.184.055c-.132.029-.267.052-.4.075a31.098 31.098 0 01-2.467.252c-.069 0-.137.005-.2.005a1.183 1.183 0 01-.2-.016 1.468 1.468 0 01-.381-.124 2.608 2.608 0 01-.67-.471c.027.034.057.064.085.1l-.02-.019q-.036-.03-.056-.057c-.1-.1-.969-.861-1.425-1.254l-.1-.047c.081.119.169.249.261.381.133.192.274.389.411.575.062.084.124.166.184.242a2.713 2.713 0 002.311 1.23 4.226 4.226 0 00.472-.028l.112-.013.1-.012c1.039-.119 1.325-.17 1.483-.2l.114-.019.046-.007a2.513 2.513 0 00.7-.213 1.171 1.171 0 00.583-.544c.288-.643.346-.8.349-.8l.1-.271"/><path fill="#0e0f0d" d="M24.525 22.242a.23.23 0 10-.235-.226.231.231 0 00.235.226zm1.417 1.037c-.3-.15-.637.039-1.242.05-.45.016-.829.021-.853-.686s.263-1.294.715-1.31.862.546.917 1.252a.893.893 0 01-.055.442c.419-.05.514.235.519.252zM18.068 22.413a.23.23 0 10-.237-.225.23.23 0 00.237.225zm.7.37c.007.708-.368.665-.82.67h-.277a2.012 2.012 0 00-.965.113.712.712 0 01.508-.358 1.12 1.12 0 01-.075-.413c-.027-.707.409-1.288.86-1.292s.766.568.772 1.275zM27.3 17.915c0 .062-.01.106-.012.13-.178-.049-.358-.092-.538-.135a17.876 17.876 0 00-1.8-.3l-.064-.007.01-.027a4.17 4.17 0 00.049-.2 6.583 6.583 0 00.13-1.709l2.154.613a7.365 7.365 0 01.071 1.635zm-2.679-.41a.139.139 0 000 .075c-.225-.024-.45-.044-.675-.062a3.709 3.709 0 00.32-1.294 5.936 5.936 0 00.529-.433 6.04 6.04 0 01-.173 1.716zm-6.637.075a.142.142 0 000-.075 6.081 6.081 0 01-.174-1.716 5.938 5.938 0 00.53.433 3.687 3.687 0 00.32 1.294q-.338.027-.675.062zm-.325.035c-.3.037-.6.075-.906.125s-.6.106-.9.172c-.181.042-.359.086-.538.135 0-.014 0-.036-.006-.064a7.18 7.18 0 01.069-1.7l2.154-.613a6.7 6.7 0 00.113 1.635c.019.092.041.184.066.277a.178.178 0 00.01.026l-.064.007zm10.8.87l-.054-.026-.09-.044a.558.558 0 01-.056-.032 5.7 5.7 0 00-.617-.232l-.075-.022v-.019a6.011 6.011 0 00.024-1.044 8.233 8.233 0 00-.1-.913.142.142 0 00-.1-.113l-.307-.087a5.708 5.708 0 00-1.075-3.525 6.529 6.529 0 01.851 3.463l-1.9-.541h-.038a.118.118 0 00-.031 0h-.005a.106.106 0 00-.025.008h-.008l-.019.013h-.005l-.133.127c.006-.178.007-.45-.013-.784l-.006-.1a7.26 7.26 0 00-.853-3.037c.005.015.064.185.139.472a10.993 10.993 0 01.326 3.773v.022l-.007.006c-.075.059-.15.117-.225.167a.143.143 0 00-.062.115 3.415 3.415 0 01-.33 1.321.145.145 0 00-.012.033c-.779-.053-1.561-.075-2.342-.075s-1.563.022-2.343.075a.2.2 0 00-.01-.028 3.418 3.418 0 01-.33-1.321.142.142 0 00-.061-.115 5.189 5.189 0 01-.235-.173 10.943 10.943 0 01.293-3.671c.09-.361.165-.58.171-.6a7.865 7.865 0 00-.868 3.918c-.081-.075-.131-.125-.133-.127h-.015l-.019-.011-.009-.005a.069.069 0 00-.023-.007h-.005a.127.127 0 00-.031 0h-.043l-1.9.541a6.524 6.524 0 01.853-3.471 5.716 5.716 0 00-1.075 3.525l-.306.087a.14.14 0 00-.1.113 8.279 8.279 0 00-.1.913 5.948 5.948 0 00.025 1.045v.019l-.075.022a5.633 5.633 0 00-.618.232.549.549 0 01-.056.031l-.09.044-.046.023-.03.016a3.4 3.4 0 01.433-.132c.15-.037.294-.069.442-.1.3-.055.593-.1.892-.139s.6-.075.9-.1.6-.051.9-.068c1.2-.071 2.407-.094 3.613-.094s2.411.019 3.613.094c.3.017.6.043.9.068s.6.058.9.1.6.083.892.139c.15.028.295.06.441.1a3.384 3.384 0 01.434.132l-.023-.013z"/><path fill="#0e0f0d" d="M21.641 12.963v3.173h.433v.589h-1.458v-.589h.43v-3.173H20v.525h-.5v-1.031h3.7v1.027h-.505v-.525h-1.05zm1.933.9v-1.786h-4.459v1.788h1.266v-.525h.284v2.415h-.429V17.1h2.212v-1.35h-.427v-2.408h.286v.525z"/></svg>