<svg xmlns="http://www.w3.org/2000/svg" width="100%" height="100%" viewBox="-0.64 -0.64 33.28 33.28"><path fill="#ee4d26" d="M29.465 15.715c-1.44-1.384-8.642-2.248-10.914-2.5a6.669 6.669 0 00.281-.806 9.094 9.094 0 01.99-.367c.042.124.241.6.354.826 4.569.126 4.8-3.4 4.99-4.36a5.447 5.447 0 011.74-3.521c-2.335-.68-5.693 1.055-6.818 3.637a7.015 7.015 0 00-1.265-.348 6.137 6.137 0 00-5.966-4.585A11.154 11.154 0 002 15.232c0 6.1 4.163 11.442 6.515 11.442a2.316 2.316 0 002.118-1.459c.174.473.708 1.943.883 2.317.259.553 1.457 1.032 1.981.458a1.93 1.93 0 002.585-.4 1.914 1.914 0 002.471-1.423c.637-.034.95-.928.81-1.641a17.5 17.5 0 00-1.625-3.056c.846.688 2.988.883 3.248 0 1.364 1.07 3.489.509 3.657-.362 1.657.431 3.558-.515 3.245-1.66 2.664-.183 2.324-3.015 1.577-3.733z"/><path fill="#fff" d="M20.658 16.158c-.616-.047-1.109-.081-1.406-.1.49.07 2.652.468 4.713.866.262.418-.905 1.376-1.927.9.478 1.077-1.623 1.972-2.643 1.2a.658.658 0 01-.332.609 1.833 1.833 0 01-.73.285 1.834 1.834 0 00.73-.285.658.658 0 00.332-.609c1.02.768 3.121-.128 2.643-1.2 1.022.476 2.189-.482 1.927-.9 1.743.336 3.413.671 3.937.805a2.032 2.032 0 01-2.337.69c.646.88-.608 1.936-2.355 1.354.385.864-1.171 1.642-2.939.741.022.864-2.193.964-3.069.009v.005q-.038-.081-.076-.169c-.112-.274-.25-.609-.351-.875l-.021-.057a1.57 1.57 0 001.578.494 1.57 1.57 0 01-1.578-.495l.021.057c.13.348.244.633.351.875.082.2.15.367.181.454.318.884-1.134 4.227-4.407 4.227a9.737 9.737 0 01-8.912-5.912c1.909.937 4.261.489 4.813-.1a7.8 7.8 0 002.38.4c2.421 0 4.609-1.7 5.816-4.253a3.964 3.964 0 00.773-.841 58.716 58.716 0 018.714 1.4c-1.209.129-4.276.43-5.826.422zM17.409 12.3a9.482 9.482 0 012.239-.99 4.201 4.201 0 01-.033-.319c-.624.15-1.8.654-2.476-.041 1.423.429 2.134-.383 3.18-.383a6.724 6.724 0 012.214.449 7.469 7.469 0 00-4.7-2.1 3.29 3.29 0 00-.424 3.384zm3.739-.777a4.627 4.627 0 01.047-.533 4.837 4.837 0 00-.839-.11 3.157 3.157 0 00.291 1.216 4.378 4.378 0 002.282-.633 7.638 7.638 0 00-1.54-.434 8.14 8.14 0 01-.24.498zm.9-1.852a10.185 10.185 0 012.2-3.148 5.71 5.71 0 00-2.575 2.9 9.02 9.02 0 00-.906-.506 5.878 5.878 0 014.8-3.308c-1.4 1.269-.9 3.906-2.053 5.3a15.066 15.066 0 00-1.461-1.234zm-11.669.338a2.439 2.439 0 102.439-2.439 2.439 2.439 0 00-2.434 2.443z"/><circle cx="12.823" cy="10.013" r="1.46" fill="#ee4d26"/><ellipse cx="12.823" cy="9.365" fill="#fff" rx=".851" ry=".529"/></svg>