<svg xmlns="http://www.w3.org/2000/svg" width="100%" height="100%" viewBox="-0.64 -0.64 33.28 33.28"><path fill="#7baddb" d="M27.4 5.5h-9.2l-2.1 4.2H4.3v16.8h25.2v-21zm0 18.7H6.6V11.8h20.8zm0-14.5h-8.2l1-2.1h7.1v2.1z"/><path fill="#7baddb" d="M25.7 13.7H.5l3.8 12.8h25.2l-3.8-12.8z"/><path fill="#b2cde5" d="M20.62 10v5.999l-5.188-3"/><path fill="#b2cde5" d="M25.807 12.999l-5.187 3V10"/><path fill="#4c89c3" d="M25.807 12.999V19l-5.187-3.001"/><path fill="#0057a9" d="M15.432 12.999V19l5.188-3.001M20.62 15.999V22l-5.188-3"/><path fill="#4c89c3" d="M20.622 15.999L20.62 22l5.187-2.998"/><path fill="#b2cde5" d="M25.807 19v6l-5.187-3"/><path fill="#b2cde5" d="M15.432 19v6l5.188-3"/><path fill="#4c89c3" d="M20.62 22v6l-5.188-3"/><path fill="#0057a9" d="M20.622 22l-.002 6 5.187-2.998"/><path fill="#b2cde5" d="M15.432 19v6l-5.187-3"/><path fill="#0057a9" d="M10.245 22v6l5.187-3M15.432 25v6l-5.187-3"/><path fill="#4c89c3" d="M15.434 25l-.002 6 5.188-2.998"/><path fill="#b2cde5" d="M30.995 22.002L25.807 25l.003-6"/><path fill="#4c89c3" d="M30.995 22v6l-5.188-3"/><path fill="#0057a9" d="M25.807 25v6l-5.187-3"/><path fill="#4c89c3" d="M25.81 25l-.003 6 5.188-2.998"/></svg>