<svg xmlns="http://www.w3.org/2000/svg" width="100%" height="100%" viewBox="-0.64 -0.64 33.28 33.28"><defs><radialGradient id="a" cx="-2.176" cy="-818.913" r="48.27" gradientTransform="matrix(.36 .402 .222 -.163 197.796 -86.468)" gradientUnits="userSpaceOnUse"><stop offset="0" stop-color="#7ce1ff"/><stop offset=".3" stop-color="#7ce1ff" stop-opacity="0"/></radialGradient><radialGradient id="b" cx="4199.973" cy="-1187.763" r="83.239" gradientTransform="matrix(.031 .03 .075 -.062 -28.337 -144.76)" gradientUnits="userSpaceOnUse"><stop offset="0" stop-color="#7ce1ff"/><stop offset="1" stop-color="#7ce1ff" stop-opacity="0"/></radialGradient><radialGradient id="c" cx="-264.938" cy="-509.943" r="27.886" gradientTransform="matrix(-1.048 -.5 -1.117 .527 -829.648 192.721)" gradientUnits="userSpaceOnUse"><stop offset="0" stop-color="#7ce1ff" stop-opacity=".8"/><stop offset=".15" stop-color="#7ce1ff" stop-opacity="0"/></radialGradient></defs><path fill="#0a6ec9" d="M2 9.033l14-6.956 14 6.956v.919l-14 6.956L2 9.974z"/><path fill="#0568c1" d="M2 9.033l14 6.956 14-6.956v13.934l-14.044 6.956L2 22.967z"/><path fill="#0663b4" d="M16 29.9V15.989L2.087 9.077H2v13.89l13.956 6.956z"/><path fill="#add4f7" d="M7.709 6.211l13.978 6.956 2.844-1.4-14.022-6.956z"/><path fill="#99c7f2" d="M21.687 13.167l2.844-1.4v4.375l-.766-.131-.809.989-1.269-.087z"/><path fill="#f2f2f2" d="M13.112 21.545l-4.725-2.362c-.262-.131-.481.022-.481.35V22.7a1 1 0 00.481.831l4.747 2.369c.262.131.481-.022.481-.35v-3.195a1.039 1.039 0 00-.503-.81zm-1.072 2.6l-3.018-1.506a.526.526 0 01-.241-.438c0-.175.109-.262.241-.2l3.019 1.509a.526.526 0 01.241.438c-.001.179-.11.266-.241.2zm.438-1.094L9.022 21.3a.526.526 0 01-.241-.438c0-.175.109-.262.241-.2l3.456 1.75a.526.526 0 01.241.438c0 .205-.11.27-.241.205z"/></svg>