<svg xmlns="http://www.w3.org/2000/svg" width="100%" height="100%" viewBox="-0.64 -0.64 33.28 33.28"><defs><linearGradient id="a" x1="4.416" x2="13.909" y1="-1909.341" y2="-1892.9" gradientTransform="translate(0 1917.121)" gradientUnits="userSpaceOnUse"><stop offset="0" stop-color="#b72c3f"/><stop offset=".5" stop-color="#b12334"/><stop offset="1" stop-color="#9d1623"/></linearGradient></defs><path fill="#881421" d="M8.512 20v6.667c0 1.84 4.81 3.333 10.744 3.333S30 28.507 30 26.667V20z"/><path fill="#af2031" d="M8.512 12.667V20c0 1.841 4.81 3.333 10.744 3.333S30 21.841 30 20v-7.333z"/><path fill="#c94f60" d="M8.512 5.333v7.334c0 1.84 4.81 3.333 10.744 3.333S30 14.507 30 12.667V5.333z"/><ellipse cx="19.256" cy="5.333" fill="#e08095" rx="10.744" ry="3.333"/><path d="M16.434 8H8.512v16.667h7.922a1.212 1.212 0 001.194-1.222V9.222A1.212 1.212 0 0016.434 8z" style="isolation:isolate" opacity=".1"/><path d="M15.783 8.667H8.512v16.666h7.271a1.212 1.212 0 001.194-1.222V9.889a1.212 1.212 0 00-1.194-1.222z" style="isolation:isolate" opacity=".2"/><path d="M15.783 8.667H8.512V24h7.271a1.212 1.212 0 001.194-1.222V9.889a1.212 1.212 0 00-1.194-1.222z" style="isolation:isolate" opacity=".2"/><path d="M15.132 8.667h-6.62V24h6.62a1.213 1.213 0 001.194-1.222V9.889a1.213 1.213 0 00-1.194-1.222z" style="isolation:isolate" opacity=".2"/><path fill="url(#a)" d="M3.194 8.667h11.938a1.208 1.208 0 011.194 1.222v12.222a1.208 1.208 0 01-1.194 1.222H3.194A1.208 1.208 0 012 22.111V9.889a1.208 1.208 0 011.194-1.222z"/><path fill="#fff" d="M8.305 12.027h1.758l2.825 7.945h-1.66l-.623-1.895H7.7l-.611 1.895H5.437zm1.926 4.826l-.9-2.875a3.812 3.812 0 01-.165-.649H9.13a3.729 3.729 0 01-.162.671l-.912 2.859z"/></svg>