<svg xmlns="http://www.w3.org/2000/svg" width="100%" height="100%" viewBox="0 0 24 24"><path d="M14 21l-2 2-2-2H4.995A1.995 1.995 0 0 1 3 19.005V4.995C3 3.893 3.893 3 4.995 3h14.01C20.107 3 21 3.893 21 4.995v14.01A1.995 1.995 0 0 1 19.005 21H14z m5-2V5H5v14h5.828L12 20.172 13.172 19H19z m-11.028-0.82a9.983 9.983 0 0 1-1.751-0.978A6.994 6.994 0 0 1 12.102 14c2.4 0 4.517 1.207 5.778 3.047a9.995 9.995 0 0 1-1.724 1.025A4.993 4.993 0 0 0 12.102 16c-1.715 0-3.23 0.864-4.13 2.18zM12 13a3.5 3.5 0 1 1 0-7 3.5 3.5 0 0 1 0 7z m0-2a1.5 1.5 0 1 0 0-3 1.5 1.5 0 0 0 0 3z" /></svg>