<svg xmlns="http://www.w3.org/2000/svg" width="100%" height="100%" viewBox="0 0 24 24"><path d="M18.901 10a2.999 2.999 0 0 0 4.075 1.113 3.5 3.5 0 0 1-1.975 3.55L21 21h-7v-2a2 2 0 0 0-1.85-1.995L12 17a2 2 0 0 0-1.995 1.85L10 19v2H3v-6.336a3.5 3.5 0 0 1-1.979-3.553A2.999 2.999 0 0 0 5.098 10h13.803z m-0.971 2H6.069l-0.076 0.079c-0.431 0.42-0.935 0.76-1.486 1.002l-0.096 0.039 0.589 0.28-0.001 5.6 3.002-0.001v-0.072l0.01-0.223c0.149-2.016 1.78-3.599 3.854-3.698l0.208-0.005 0.223 0.01a4 4 0 0 1 3.699 3.787l0.004 0.201L19 19l0.001-5.6 0.587-0.28-0.095-0.04a5.002 5.002 0 0 1-1.486-1.001L17.93 12z m-0.894-9a3.5 3.5 0 0 0 4.446 2.86 3.5 3.5 0 0 1-3.29 3.135L18 9H6a3.5 3.5 0 0 1-3.482-3.14A3.5 3.5 0 0 0 6.964 3h10.072zM15.6 5H8.399a5.507 5.507 0 0 1-1.49 1.816L6.661 7h10.677l-0.012-0.008a5.518 5.518 0 0 1-1.579-1.722L15.6 5z" /></svg>