<svg xmlns="http://www.w3.org/2000/svg" width="100%" height="100%" viewBox="0 0 24 24"><path d="M13 19.9a5.002 5.002 0 0 0 4-4.9v-3a4.98 4.98 0 0 0-0.415-2h-9.17A4.98 4.98 0 0 0 7 12v3a5.002 5.002 0 0 0 4 4.9V14h2v5.9z m-7.464-2.21A6.979 6.979 0 0 1 5 15H2v-2h3v-1c0-0.643 0.087-1.265 0.249-1.856L3.036 8.866l1-1.732L6.056 8.3a7.01 7.01 0 0 1 0.199-0.3h11.49c0.069 0.098 0.135 0.199 0.199 0.3l2.02-1.166 1 1.732-2.213 1.278c0.162 0.59 0.249 1.213 0.249 1.856v1h3v2h-3c0 0.953-0.19 1.862-0.536 2.69l2.5 1.444-1 1.732-2.526-1.458A6.986 6.986 0 0 1 12 22a6.986 6.986 0 0 1-5.438-2.592l-2.526 1.458-1-1.732 2.5-1.443zM8 6a4 4 0 1 1 8 0H8z" /></svg>