<svg xmlns="http://www.w3.org/2000/svg" width="100%" height="100%" viewBox="0 0 24 24"><path d="M16 16c1.657 0 3 1.343 3 3s-1.343 3-3 3-3-1.343-3-3 1.343-3 3-3zM6 12c2.21 0 4 1.79 4 4s-1.79 4-4 4-4-1.79-4-4 1.79-4 4-4z m10 6c-0.552 0-1 0.448-1 1s0.448 1 1 1 1-0.448 1-1-0.448-1-1-1zM6 14c-1.105 0-2 0.895-2 2s0.895 2 2 2 2-0.895 2-2-0.895-2-2-2z m8.5-12C17.538 2 20 4.462 20 7.5S17.538 13 14.5 13 9 10.538 9 7.5 11.462 2 14.5 2z m0 2C12.567 4 11 5.567 11 7.5s1.567 3.5 3.5 3.5S18 9.433 18 7.5 16.433 4 14.5 4z" /></svg>