<svg xmlns="http://www.w3.org/2000/svg" width="100%" height="100%" viewBox="0 0 24 24"><path d="M12 2c5.523 0 10 4.477 10 10s-4.477 10-10 10S2 17.523 2 12 6.477 2 12 2z m0 2a8 8 0 1 0 0 16 8 8 0 0 0 0-16z m0 2a6 6 0 1 1 0 12 6 6 0 0 1 0-12z m0 1.75a2.5 2.5 0 0 0-1.88 4.147c-0.565 0.457-0.92 1.118-0.92 1.853 0 1.38 1.254 2.5 2.8 2.5 1.546 0 2.8-1.12 2.8-2.5 0-0.735-0.355-1.396-0.92-1.852A2.5 2.5 0 0 0 12 7.75z m0 5c0.753 0 1.3 0.488 1.3 1s-0.547 1-1.3 1-1.3-0.488-1.3-1 0.547-1 1.3-1z m0-3.5a1 1 0 1 1 0 2 1 1 0 0 1 0-2z" /></svg>