<svg xmlns="http://www.w3.org/2000/svg" width="100%" height="100%" viewBox="0 0 24 24"><path d="M6.455 19L2 22.5V4a1 1 0 0 1 1-1h18a1 1 0 0 1 1 1v14a1 1 0 0 1-1 1H6.455z m1.69-6.929l-0.975 0.563 1 1.732 0.976-0.563c0.501 0.51 1.14 0.887 1.854 1.071V16h2v-1.126a3.996 3.996 0 0 0 1.854-1.071l0.976 0.563 1-1.732-0.975-0.563a4.004 4.004 0 0 0 0-2.142l0.975-0.563-1-1.732-0.976 0.563A3.996 3.996 0 0 0 13 7.126V6h-2v1.126a3.996 3.996 0 0 0-1.854 1.071l-0.976-0.563-1 1.732 0.975 0.563a4.004 4.004 0 0 0 0 2.142zM12 13a2 2 0 1 1 0-4 2 2 0 0 1 0 4z" /></svg>