<svg xmlns="http://www.w3.org/2000/svg" width="100%" height="100%" viewBox="0 0 24 24"><path d="M15.5 2a3.5 3.5 0 0 1 3.437 4.163l-0.015 0.066a4.502 4.502 0 0 1 0.303 8.428l-1.086 6.507a1 1 0 0 1-0.986 0.836H6.847a1 1 0 0 1-0.986-0.836l-1.029-6.17a3 3 0 0 1-0.829-5.824L4 9a6 6 0 0 1 8.575-5.42A3.493 3.493 0 0 1 15.5 2zM11 15H9v5h2v-5z m4 0h-2v5h2v-5z m2.5-2a2.5 2.5 0 1 0-0.956-4.81l-0.175 0.081a2 2 0 0 1-2.663-0.804l-0.07-0.137A4 4 0 0 0 10 5C7.858 5 6.109 6.684 6.005 8.767L6 8.964l0.003 0.17a2 2 0 0 1-1.186 1.863l-0.15 0.059A1.001 1.001 0 0 0 5 13h12.5z" /></svg>