<svg xmlns="http://www.w3.org/2000/svg" width="100%" height="100%" viewBox="0 0 24 24"><path d="M9.827 21.763C5.35 20.771 2 16.777 2 12c0-1.822 0.487-3.53 1.339-5.002l4.283 7.419a4.999 4.999 0 0 0 4.976 2.548l-2.77 4.798zM12 22l4.287-7.425A4.977 4.977 0 0 0 17 12a4.978 4.978 0 0 0-1-3h5.542c0.298 0.947 0.458 1.955 0.458 3 0 5.523-4.477 10-10 10z m2.572-8.455a2.999 2.999 0 0 1-5.17-0.045l-0.029-0.05a3 3 0 1 1 5.225 0.05l-0.026 0.045z m-9.94-8.306A9.974 9.974 0 0 1 12 2a9.996 9.996 0 0 1 8.662 5H12a5.001 5.001 0 0 0-4.599 3.035L4.632 5.239z" /></svg>