<svg xmlns="http://www.w3.org/2000/svg" width="100%" height="100%" viewBox="0 0 24 24"><path fill="none" d="M0 0h24v24H0z"/><path d="M15.5 2a3.5 3.5 0 013.437 4.163l-.015.066a4.502 4.502 0 01.303 8.428l-1.086 6.507a1 1 0 01-.986.836H6.847a1 1 0 01-.986-.836l-1.029-6.17a3 3 0 01-.829-5.824L4 9a6 6 0 018.575-5.42A3.493 3.493 0 0115.5 2zM11 15H9v5h2v-5zm4 0h-2v5h2v-5zm2.5-2a2.5 2.5 0 10-.956-4.81l-.175.081a2 2 0 01-2.663-.804l-.07-.137A4 4 0 0010 5C7.858 5 6.109 6.684 6.005 8.767L6 8.964l.003.17a2 2 0 01-1.186 1.863l-.15.059A1.001 1.001 0 005 13h12.5z"/></svg>