<svg xmlns="http://www.w3.org/2000/svg" width="100%" height="100%" viewBox="0 0 24 24"><path d="M12 2a9 9 0 0 1 6.894 14.786c1.255 0.83 2.033 1.89 2.101 3.049L21 20l-9 2-9-2 0.005-0.165c0.067-1.16 0.846-2.22 2.1-3.05A8.965 8.965 0 0 1 3 11a9 9 0 0 1 9-9z m0 2a7 7 0 0 0-7 7c0 1.567 0.514 3.05 1.445 4.261l0.192 0.239 1.443 1.717-1.962 1.299-0.137 0.097L12 19.951l6.018-1.338-0.049-0.036-0.178-0.123-1.871-1.237 1.443-1.718A6.963 6.963 0 0 0 19 11a7 7 0 0 0-7-7z m0 9c1.38 0 2.5 0.672 2.5 1.5S13.38 16 12 16s-2.5-0.672-2.5-1.5S10.62 13 12 13zM9 8c1.105 0 2 0.672 2 1.5S10.105 11 9 11s-2-0.672-2-1.5S7.895 8 9 8z m6 0c1.105 0 2 0.672 2 1.5s-0.895 1.5-2 1.5-2-0.672-2-1.5 0.895-1.5 2-1.5z" /></svg>