<svg xmlns="http://www.w3.org/2000/svg" width="100%" height="100%" viewBox="0 0 24 24"><path d="M12 2c5.523 0 10 4.477 10 10s-4.477 10-10 10S2 17.523 2 12 6.477 2 12 2z m0 3c-3.866 0-7 3.134-7 7 0 1.852 0.72 3.537 1.894 4.789l0.156 0.16 1.414-1.413C7.56 14.63 7 13.38 7 12c0-2.761 2.239-5 5-5 0.448 0 0.882 0.059 1.295 0.17l1.563-1.562C13.985 5.218 13.018 5 12 5z m6.392 4.143l-1.561 1.562c0.11 0.413 0.169 0.847 0.169 1.295 0 1.38-0.56 2.63-1.464 3.536l1.414 1.414C18.216 15.683 19 13.933 19 12c0-1.018-0.217-1.985-0.608-2.857z m-2.15-2.8l-3.725 3.724C12.352 10.023 12.179 10 12 10c-1.105 0-2 0.895-2 2s0.895 2 2 2 2-0.895 2-2c0-0.179-0.023-0.352-0.067-0.517l3.724-3.726-1.414-1.414z" /></svg>