<svg xmlns="http://www.w3.org/2000/svg" width="100%" height="100%" viewBox="0 0 24 24"><path d="M16 1C16.5522847 1 17 1.44771525 17 2L17 3 22 3 22 9 19.9813388 9 22.7270773 16.5438545C22.9032836 16.9948332 23 17.4856276 23 17.9990113 23 20.2081503 21.209139 21.9990113 19 21.9990113 17.1365166 21.9990113 15.5706587 20.7247255 15.1262721 19L10.8739825 19C10.4299397 20.7252272 8.86383943 22 7 22 5.05550552 22 3.43507622 20.612512 3.0747418 18.7735658 2.43596423 18.4396361 2 17.7707305 2 17L2 7C2 6.44771525 2.44771525 6 3 6L10 6C10.5522847 6 11 6.44771525 11 7L11 12C11 12.5522847 11.4477153 13 12 13L14 13C14.5522847 13 15 12.5522847 15 12L15 3 12 3 12 1 16 1ZM7 16C5.8954305 16 5 16.8954305 5 18 5 19.1045695 5.8954305 20 7 20 8.1045695 20 9 19.1045695 9 18 9 16.8954305 8.1045695 16 7 16ZM19 15.9990113C17.8954305 15.9990113 17 16.8944418 17 17.9990113 17 19.1035808 17.8954305 19.9990113 19 19.9990113 20.1045695 19.9990113 21 19.1035808 21 17.9990113 21 17.7586785 20.9576092 17.5282466 20.8798967 17.3147849L20.8635387 17.2714329C20.5725256 16.5266202 19.8478776 15.9990113 19 15.9990113ZM17.8529833 9L16.9999998 9 16.9999998 12C16.9999998 13.6568542 15.6568542 15 13.9999998 15L11.9999998 15C10.3431458 15 8.99999976 13.6568542 8.99999976 12L3.99999976 12 3.99999976 15.3541759C4.73294422 14.523755 5.80530734 14 6.99999976 14 8.86383943 14 10.4299397 15.2747728 10.8739825 17L15.1257631 17C15.569462 15.2742711 17.1358045 13.9990113 18.9999998 13.9990113 19.2368134 13.9990113 19.4688203 14.0195905 19.6943299 14.0590581L17.8529833 9ZM8.99999976 8L3.99999976 8 3.99999976 10 8.99999976 10 8.99999976 8ZM20 5L17 5 17 7 20 7 20 5Z" /></svg>