<svg xmlns="http://www.w3.org/2000/svg" width="100%" height="100%" viewBox="0 0 24 24"><path d="M16 2v2h-1v3.243c0 1.158 0.251 2.301 0.736 3.352l4.282 9.276c0.347 0.753 0.018 1.644-0.734 1.99-0.197 0.092-0.411 0.139-0.628 0.139H5.344c-0.828 0-1.5-0.672-1.5-1.5 0-0.217 0.047-0.432 0.138-0.629l4.282-9.276C8.749 9.545 9 8.401 9 7.243V4H8V2h8z m-2.612 8.001h-2.776c-0.104 0.363-0.23 0.721-0.374 1.071l-0.158 0.361L6.125 20h11.749l-3.954-8.567c-0.214-0.464-0.392-0.943-0.532-1.432zM11 7.243c0 0.253-0.01 0.506-0.029 0.758h2.058c-0.01-0.121-0.016-0.242-0.021-0.364L13 7.243V4h-2v3.243z" /></svg>