<svg xmlns="http://www.w3.org/2000/svg" width="100%" height="100%" viewBox="0 0 24 24"><path d="M12 2a9 9 0 0 1 9 9v7.5a3.5 3.5 0 0 1-6.39 1.976 2.999 2.999 0 0 1-5.223 0 3.5 3.5 0 0 1-6.382-1.783L3 18.499V11a9 9 0 0 1 9-9z m0 2a7 7 0 0 0-6.996 6.76L5 11v7.446l0.002 0.138a1.5 1.5 0 0 0 2.645 0.88l0.088-0.116a2 2 0 0 1 3.393 0.142 0.999 0.999 0 0 0 1.74 0.003 2 2 0 0 1 3.296-0.278l0.097 0.13a1.5 1.5 0 0 0 2.733-0.701L19 18.5V11a7 7 0 0 0-7-7z m0 8c1.105 0 2 1.12 2 2.5s-0.895 2.5-2 2.5-2-1.12-2-2.5 0.895-2.5 2-2.5zM9.5 8a1.5 1.5 0 1 1 0 3 1.5 1.5 0 0 1 0-3z m5 0a1.5 1.5 0 1 1 0 3 1.5 1.5 0 0 1 0-3z" /></svg>