<svg xmlns="http://www.w3.org/2000/svg" width="100%" height="100%" viewBox="0 0 24 24"><path d="M5 9a1 1 0 0 1 1 1 6.97 6.97 0 0 1 4.33 1.5h2.17c1.332 0 2.53 0.579 3.353 1.499L19 13a5 5 0 0 1 4.516 2.851C21.151 18.972 17.322 21 13 21c-2.79 0-5.15-0.603-7.06-1.658A0.998 0.998 0 0 1 5 20H2a1 1 0 0 1-1-1v-9a1 1 0 0 1 1-1h3z m1.001 3L6 17.021l0.045 0.033C7.84 18.314 10.178 19 13 19c3.004 0 5.799-1.156 7.835-3.13l0.133-0.133-0.12-0.1a2.994 2.994 0 0 0-1.643-0.63L19 15l-2.112-0.001c0.073 0.322 0.112 0.657 0.112 1.001v1H8v-2l6.79-0.001-0.034-0.078a2.501 2.501 0 0 0-2.092-1.416L12.5 13.5H9.57A4.985 4.985 0 0 0 6.002 12zM4 11H3v7h1v-7z m9.646-7.425L14 3.93l0.354-0.354a2.5 2.5 0 1 1 3.535 3.536L14 11l-3.89-3.89a2.5 2.5 0 1 1 3.536-3.535z m-2.12 1.415a0.5 0.5 0 0 0-0.06 0.637l0.058 0.069L14 8.17l2.476-2.474a0.5 0.5 0 0 0 0.058-0.638l-0.058-0.07a0.5 0.5 0 0 0-0.638-0.057l-0.07 0.058-1.769 1.768-1.767-1.77-0.068-0.056a0.5 0.5 0 0 0-0.638 0.058z" /></svg>