<svg xmlns="http://www.w3.org/2000/svg" width="100%" height="100%" viewBox="0 0 24 24"><path d="M18.328 4.256l-1.423 1.423c-3.138-2.442-7.677-2.22-10.562 0.664-2.374 2.374-2.944 5.868-1.71 8.78l2.417-2.417c-0.213-1.503 0.258-3.085 1.414-4.242 1.71-1.71 4.352-1.922 6.293-0.636l-1.464 1.464c-1.115-0.532-2.49-0.337-3.414 0.587-0.924 0.923-1.12 2.299-0.587 3.414l-6.45 6.45c-0.034-3.5-0.591-4.812-0.788-6.702-0.301-2.894 0.657-5.894 2.875-8.112 3.666-3.666 9.471-3.89 13.4-0.673z m2.83 0.002c0.034 3.5 0.591 4.811 0.788 6.701 0.301 2.894-0.657 5.894-2.875 8.112-3.666 3.666-9.471 3.89-13.4 0.673l1.424-1.423c3.138 2.442 7.677 2.22 10.562-0.664 2.374-2.374 2.944-5.868 1.71-8.78l-2.417 2.417c0.213 1.503-0.258 3.085-1.414 4.242-1.71 1.71-4.352 1.922-6.293 0.636l1.464-1.464c1.115 0.532 2.49 0.337 3.414-0.587 0.924-0.923 1.12-2.299 0.587-3.414l6.45-6.45z" /></svg>