<svg xmlns="http://www.w3.org/2000/svg" width="100%" height="100%" viewBox="0 0 24 24"><path d="M5.5 20c0.828 0 1.5 0.672 1.5 1.5S6.328 23 5.5 23 4 22.328 4 21.5 4.672 20 5.5 20z m13 0c0.828 0 1.5 0.672 1.5 1.5s-0.672 1.5-1.5 1.5-1.5-0.672-1.5-1.5 0.672-1.5 1.5-1.5zM2.172 1.757l3.827 3.828V17L20 17v2H5c-0.552 0-1-0.448-1-1V6.413L0.756 3.172l1.415-1.415zM16 3c0.552 0 1 0.448 1 1v2h2.993C20.55 6 21 6.456 21 6.995v8.01c0 0.55-0.45 0.995-1.007 0.995H8.007C7.45 16 7 15.544 7 15.005v-8.01C7 6.445 7.45 6 8.007 6h2.992L11 4c0-0.552 0.448-1 1-1h4z m-6 5H9v6h1V8z m6 0h-4v6h4V8z m3 0h-1v6h1V8z m-4-3h-2v1h2V5z" /></svg>