<svg xmlns="http://www.w3.org/2000/svg" width="100%" height="100%" viewBox="0 0 24 24"><path d="M2 18h7v2H2v-2z m0-7h9v2H2v-2z m0-7h20v2H2V4z m18.674 9.025l1.156-0.391 1 1.732-0.916 0.805a4.017 4.017 0 0 1 0 1.658l0.916 0.805-1 1.732-1.156-0.391c-0.41 0.37-0.898 0.655-1.435 0.83L19 21h-2l-0.24-1.196a3.996 3.996 0 0 1-1.434-0.83l-1.156 0.392-1-1.732 0.916-0.805a4.017 4.017 0 0 1 0-1.658l-0.916-0.805 1-1.732 1.156 0.391c0.41-0.37 0.898-0.655 1.435-0.83L17 11h2l0.24 1.196c0.536 0.174 1.024 0.46 1.434 0.83zM18 17a1 1 0 1 0 0-2 1 1 0 0 0 0 2z" /></svg>