<svg xmlns="http://www.w3.org/2000/svg" width="100%" height="100%" viewBox="0 0 24 24"><path d="M19 20H5v1a1 1 0 0 1-1 1H3a1 1 0 0 1-1-1v-7.5l-1.243-0.31A1 1 0 0 1 0 12.22v-0.72a0.5 0.5 0 0 1 0.5-0.5H2l2.48-5.788A2 2 0 0 1 6.32 4H17.68a2 2 0 0 1 1.838 1.212L22 11h1.5a0.5 0.5 0 0 1 0.5 0.5v0.72a1 1 0 0 1-0.757 0.97L22 13.5V21a1 1 0 0 1-1 1h-1a1 1 0 0 1-1-1v-1z m1-2v-5H4v5h16zM5.477 11h13.046a1 1 0 0 0 0.928-1.371L18 6H6L4.549 9.629A1 1 0 0 0 5.477 11zM5 14c2.317 0 3.879 0.755 4.686 2.264a0.5 0.5 0 0 1-0.441 0.736H6a1 1 0 0 1-1-1v-2z m14 0v2a1 1 0 0 1-1 1h-3.245a0.5 0.5 0 0 1-0.44-0.736C15.12 14.754 16.682 14 19 14z" /></svg>