<svg xmlns="http://www.w3.org/2000/svg" width="100%" height="100%" viewBox="0 0 24 24"><path d="M7.83 20A3.001 3.001 0 1 1 4 16.17V7.83A3.001 3.001 0 1 1 7.83 4h8.34A3.001 3.001 0 1 1 20 7.83v8.34A3.001 3.001 0 1 1 16.17 20H7.83z m0-2h8.34A3.008 3.008 0 0 1 18 16.17V7.83A3.008 3.008 0 0 1 16.17 6H7.83A3.008 3.008 0 0 1 6 7.83v8.34A3.008 3.008 0 0 1 7.83 18zM5 6a1 1 0 1 0 0-2 1 1 0 0 0 0 2z m14 0a1 1 0 1 0 0-2 1 1 0 0 0 0 2z m0 14a1 1 0 1 0 0-2 1 1 0 0 0 0 2zM5 20a1 1 0 1 0 0-2 1 1 0 0 0 0 2z" /></svg>