<svg xmlns="http://www.w3.org/2000/svg" width="100%" height="100%" viewBox="0 0 24 24"><path d="M6 2c0 0.513 0.49 1 1 1h10c0.513 0 1-0.49 1-1h2c0 1.657-1.343 3-3 3h-4l0.001 2.062C16.947 7.555 20 10.921 20 15v6c0 0.552-0.448 1-1 1H5c-0.552 0-1-0.448-1-1v-6c0-4.08 3.054-7.446 7-7.938V5H7C5.34 5 4 3.66 4 2h2z m6 9c-2.21 0-4 1.79-4 4s1.79 4 4 4 4-1.79 4-4c0-0.742-0.202-1.436-0.554-2.032l-2.739 2.74-0.094 0.082c-0.392 0.305-0.96 0.278-1.32-0.083-0.39-0.39-0.39-1.024 0-1.414l2.739-2.74C13.436 11.203 12.742 11 12 11z" /></svg>