<svg xmlns="http://www.w3.org/2000/svg" width="100%" height="100%" viewBox="0 0 24 24"><path d="M14.5 3A1.5 1.5 0 0 1 16 4.5v5a1.5 1.5 0 0 1-3 0v-5A1.5 1.5 0 0 1 14.5 3z m-10 10H6v1.5A1.5 1.5 0 1 1 4.5 13z m8.5 5h1.5a1.5 1.5 0 1 1-1.5 1.5V18z m1.5-5h5a1.5 1.5 0 0 1 0 3h-5a1.5 1.5 0 0 1 0-3z m5-5a1.5 1.5 0 0 1 0 3H18V9.5A1.5 1.5 0 0 1 19.5 8z m-15 0h5a1.5 1.5 0 0 1 0 3h-5a1.5 1.5 0 0 1 0-3z m5-5A1.5 1.5 0 0 1 11 4.5V6H9.5a1.5 1.5 0 0 1 0-3z m0 10a1.5 1.5 0 0 1 1.5 1.5v5a1.5 1.5 0 0 1-3 0v-5A1.5 1.5 0 0 1 9.5 13z" /></svg>