<svg xmlns="http://www.w3.org/2000/svg" width="100%" height="100%" viewBox="0 0 24 24"><path d="M12.485 3.121l7.758 1.94c0.445 0.11 0.757 0.51 0.757 0.97V7h1c1.1 0 2 0.9 2 2v3c0 1.657-1.343 3-3 3h-0.421c-0.535 1.35-1.552 2.486-2.896 3.158l-4.789 2.395c-0.563 0.281-1.225 0.281-1.788 0l-4.79-2.395C4.974 17.486 3.957 16.35 3.422 15H3c-1.657 0-3-1.343-3-3V9c0-1.105 0.895-2 2-2h1v-0.97c0-0.458 0.312-0.858 0.757-0.97l7.758-1.939c0.318-0.08 0.652-0.08 0.97 0zM12 5.061l-7 1.75v5.98c0 1.516 0.856 2.9 2.211 3.579L12 18.764l4.789-2.394C18.144 15.692 19 14.307 19 12.792v-5.98l-7-1.75zM3 9H2v3c0 0.552 0.448 1 1 1V9z m19 0h-1v4c0.552 0 1-0.448 1-1V9z" /></svg>