<svg xmlns="http://www.w3.org/2000/svg" width="100%" height="100%" viewBox="0 0 24 24"><path d="M9 4h5.446a1 1 0 0 1 0.848 0.47L18.75 10h4.408a0.5 0.5 0 0 1 0.439 0.74l-3.937 7.217A4.992 4.992 0 0 1 15 16 4.992 4.992 0 0 1 11 18a4.992 4.992 0 0 1-4-2 4.992 4.992 0 0 1-4.55 1.97l-1.236-6.791A1 1 0 0 1 2.198 10H3V5a1 1 0 0 1 1-1h1V1h4v3z m-4 6h11.392l-2.5-4H5v4zM3 20a5.978 5.978 0 0 0 4-1.528A5.978 5.978 0 0 0 11 20a5.978 5.978 0 0 0 4-1.528A5.978 5.978 0 0 0 19 20h2v2h-2a7.963 7.963 0 0 1-4-1.07A7.963 7.963 0 0 1 11 22a7.963 7.963 0 0 1-4-1.07A7.963 7.963 0 0 1 3 22H1v-2h2z" /></svg>