<svg xmlns="http://www.w3.org/2000/svg" width="100%" height="100%" viewBox="0 0 24 24"><path d="M12.498 3a6.464 6.464 0 0 0-0.479 2H7a2 2 0 0 0-1.995 1.85L5 7v11h14v-6.019a6.463 6.463 0 0 0 2-0.48V18a2 2 0 0 1-2 2h-1.8l1.8 1.5v0.5H5v-0.5L6.8 20H5a2 2 0 0 1-2-2V7a4 4 0 0 1 4-4h5.498zM12 13a2 2 0 1 1 0 4 2 2 0 0 1 0-4z m0.174-6a6.51 6.51 0 0 0 2.862 4.001L6 11V7h6.174zM18.5 1a4.5 4.5 0 1 1 0 9 4.5 4.5 0 0 1 0-9z m0 5.167c-0.491 0-0.94 0.177-1.289 0.47l-0.125 0.115L18.5 8.167l1.413-1.416a1.994 1.994 0 0 0-1.413-0.584z m0-2.667a4.65 4.65 0 0 0-3.128 1.203l-0.173 0.165 0.944 0.942a3.323 3.323 0 0 1 2.357-0.977 3.32 3.32 0 0 1 2.201 0.83l0.156 0.147 0.943-0.943A4.652 4.652 0 0 0 18.5 3.5z" /></svg>