<svg xmlns="http://www.w3.org/2000/svg" width="100%" height="100%" viewBox="0 0 24 24"><path d="M9.4 16H3a2 2 0 0 1-2-2v-2.104a2 2 0 0 1 0.15-0.762L4.246 3.62A1 1 0 0 1 5.17 3H22a1 1 0 0 1 1 1v10a1 1 0 0 1-1 1h-3.482a1 1 0 0 0-0.817 0.423l-5.453 7.726a0.5 0.5 0 0 1-0.632 0.159L9.802 22.4a2.5 2.5 0 0 1-1.305-2.853L9.4 16z m7.6-2.588V5H5.84L3 11.896V14h6.4a2 2 0 0 1 1.938 2.493l-0.903 3.548a0.5 0.5 0 0 0 0.261 0.571l0.661 0.33 4.71-6.672c0.25-0.354 0.57-0.644 0.933-0.858zM19 13h2V5h-2v8z" /></svg>