<svg xmlns="http://www.w3.org/2000/svg" width="100%" height="100%" viewBox="0 0 24 24"><path d="M12 11a5 5 0 0 1 5 5v6h-2v-6a3 3 0 0 0-2.824-2.995L12 13a3 3 0 0 0-2.995 2.824L9 16v6H7v-6a5 5 0 0 1 5-5z m-6.5 3c0.279 0 0.55 0.033 0.81 0.094a5.947 5.947 0 0 0-0.301 1.575L6 16v0.086a1.492 1.492 0 0 0-0.356-0.08L5.5 16a1.5 1.5 0 0 0-1.493 1.356L4 17.5V22H2v-4.5A3.5 3.5 0 0 1 5.5 14z m13 0a3.5 3.5 0 0 1 3.5 3.5V22h-2v-4.5a1.5 1.5 0 0 0-1.356-1.493L18.5 16c-0.175 0-0.343 0.03-0.5 0.085V16c0-0.666-0.108-1.306-0.309-1.904 0.259-0.063 0.53-0.096 0.809-0.096z m-13-6a2.5 2.5 0 1 1 0 5 2.5 2.5 0 0 1 0-5z m13 0a2.5 2.5 0 1 1 0 5 2.5 2.5 0 0 1 0-5z m-13 2a0.5 0.5 0 1 0 0 1 0.5 0.5 0 0 0 0-1z m13 0a0.5 0.5 0 1 0 0 1 0.5 0.5 0 0 0 0-1zM12 2a4 4 0 1 1 0 8 4 4 0 0 1 0-8z m0 2a2 2 0 1 0 0 4 2 2 0 0 0 0-4z" /></svg>