<svg xmlns="http://www.w3.org/2000/svg" width="100%" height="100%" viewBox="0 0 24 24"><path d="M12.707 17.793C13.534 18.62 14.295 19 15 19c0.378 0 0.68-0.067 1.237-0.276l0.392-0.152C17.679 18.15 18.209 18 19 18c1.214 0 2.379 0.545 3.486 1.58l0.221 0.213-1.414 1.414C20.466 20.38 19.705 20 19 20c-0.378 0-0.68 0.067-1.237 0.276l-0.392 0.152c-1.05 0.421-1.58 0.572-2.371 0.572-1.214 0-2.379-0.545-3.486-1.58l-0.221-0.213 1.414-1.414zM9 3a3 3 0 0 0 6 0h6a1 1 0 0 1 1 1v7a1 1 0 0 1-1 1h-9a2 2 0 0 0-1.995 1.85L10 14v7H6a1 1 0 0 1-1-1l-0.001-8.001L3 12a1 1 0 0 1-1-1V4a1 1 0 0 1 1-1h6z m3.707 10.793C13.534 14.62 14.295 15 15 15c0.378 0 0.68-0.067 1.237-0.276l0.392-0.152C17.679 14.15 18.209 14 19 14c1.214 0 2.379 0.545 3.486 1.58l0.221 0.213-1.414 1.414C20.466 16.38 19.705 16 19 16c-0.378 0-0.68 0.067-1.237 0.276l-0.392 0.152c-1.05 0.421-1.58 0.572-2.371 0.572-1.214 0-2.379-0.545-3.486-1.58l-0.221-0.213 1.414-1.414z" /></svg>