<svg xmlns="http://www.w3.org/2000/svg" width="100%" height="100%" viewBox="0 0 24 24"><path d="M12 14v8H4a8 8 0 0 1 8-8z m0-1c-3.315 0-6-2.685-6-6s2.685-6 6-6 6 2.685 6 6-2.685 6-6 6z m2.595 5.812a3.51 3.51 0 0 1 0-1.623l-0.992-0.573 1-1.732 0.992 0.573A3.496 3.496 0 0 1 17 14.645V13.5h2v1.145c0.532 0.158 1.012 0.44 1.405 0.812l0.992-0.573 1 1.732-0.992 0.573a3.51 3.51 0 0 1 0 1.622l0.992 0.573-1 1.732-0.992-0.573a3.496 3.496 0 0 1-1.405 0.812V22.5h-2v-1.145a3.496 3.496 0 0 1-1.405-0.812l-0.992 0.573-1-1.732 0.992-0.572zM18 17a1 1 0 1 0 0 2 1 1 0 0 0 0-2z" /></svg>