<svg xmlns="http://www.w3.org/2000/svg" width="100%" height="100%" viewBox="0 0 24 24"><path d="M5.889 16H2a1 1 0 0 1-1-1V9a1 1 0 0 1 1-1h3.889l5.294-4.332a0.5 0.5 0 0 1 0.817 0.387v15.89a0.5 0.5 0 0 1-0.817 0.387L5.89 16z m13.517 4.134l-1.416-1.416A8.978 8.978 0 0 0 21 12a8.982 8.982 0 0 0-3.304-6.968l1.42-1.42A10.976 10.976 0 0 1 23 12c0 3.223-1.386 6.122-3.594 8.134z m-3.543-3.543l-1.422-1.422A3.993 3.993 0 0 0 16 12c0-1.43-0.75-2.685-1.88-3.392l1.439-1.439A5.991 5.991 0 0 1 18 12c0 1.842-0.83 3.49-2.137 4.591z" /></svg>