<svg xmlns="http://www.w3.org/2000/svg" width="100%" height="100%" viewBox="0 0 583.68 583.68"><path d="M99.83999999999997 127.83999999999997v24h24V127.83999999999997H99.83999999999997z m40 0v24h48V127.83999999999997h-48z m64 0v24h48V127.83999999999997h-48z m64 0v24h48V127.83999999999997h-48z m64 0v24h48V127.83999999999997h-48z m64 0v24h48V127.83999999999997h-48z m64 0v24h24V127.83999999999997h-24zM83.83999999999997 167.83999999999997v16h416v-16H83.83999999999997z m16 32v112h128.67c4.696-29.122 34.004-56 63.33-56s58.634 26.878 63.33 56H483.84V199.83999999999997H99.83999999999997z m17.994 16H219.83999999999997v80H117.21299999999998l0.56-72.063 0.061-7.937zM243.83999999999997 215.83999999999997h96v16h-96v-16z m120.063 0h102.005v80H363.28099999999995l0.559-72.063 0.063-7.937zM133.70899999999997 231.83999999999997l-0.371 48H203.83999999999997v-48H133.70999999999998z m246.069 0l-0.372 48h70.502v-48h-70.13zM99.83999999999997 327.84v200h128V327.84H99.83999999999997z m256 0v200h128V327.84H355.84zM123.83999999999997 449.84h80v64H123.83999999999997v-64z m256 0h80v64h-80v-64z m-240 16v32h48v-32h-48z m256 0v32h48v-32h-48z" /></svg>