<svg xmlns="http://www.w3.org/2000/svg" width="100%" height="100%" viewBox="0 0 583.68 583.68"><path d="M204.64 68.72999999999998l-32.6 32.53 21.3 21.17L225.83999999999997 89.91999999999997z m33.9 33.96l-9.9 9.91 123 123.04 9.9-9.9z m159.4 18.06c-3.7 0-7.4 0.1-10.9 0.3-31.9 1.78-56.7 11.76-78.3 26.39l65.5 65.6c3.5 7.3 52 96.2 65.5 123.3-9.7-6.4-123.4-65.4-123.4-65.4l-15.3-15.2v140.3c23.9-14.6 50.1-27.7 83.6-31.2 37.5-4 83.5 4.3 144.2 33.1V154.53999999999996c-51.7-22.99-93.3-32.89-127.2-33.69-1.3 0-2.5-0.11-3.7-0.1z m-230.8 1.03C136.23999999999998 124.76999999999998 99.27999999999997 134.83999999999997 54.88999999999997 154.53999999999996v243.4C115.68999999999997 369.14 161.64 360.84 199.14 364.84c33 5.2 58.1 15.8 83.6 31.2V237.43999999999997c-38.6-38.5-77.1-77.1-115.6-115.66z m48.8 3.55l-9.9 9.89 123 123.02 9.9-9.9zM371.84 240.93999999999997l-27.5 27.5 55.1 27.6zM179.64 382.53999999999996c-32 0.3-71.85 9.8-124.75 36v42.5c60.8-28.8 106.75-37.1 144.25-33.1 18.6 2 34.9 6.9 49.8 13.3-4.7 6.1-9.3 13.3-13.9 21.7h117.2c-6-8.2-11.8-15.4-17.7-21.6 15-6.5 31.4-11.4 50.1-13.4 37.5-4 83.5 4.3 144.2 33.1v-42.5c-53.1-26.3-93.1-35.9-125.2-36h-3.1c-4.8 0.1-9.4 0.4-13.9 0.9-34 3.6-59.6 18-85.6 34.4-5.7-0.8-13-1.8-18.3-0.9-27.2-16.2-58.2-30.4-85.5-33.5-5.6-0.6-11.5-0.9-17.6-0.9z" /></svg>