<svg xmlns="http://www.w3.org/2000/svg" width="100%" height="100%" viewBox="0 0 583.68 583.68"><path d="M201.44699999999997 55.607999999999976c-23.41-0.103-45.42 3.88-64.998 12.148l59.087 143.24c2.407-3.998 5.27-7.708 8.625-11.062 7.098-7.098 15.763-12.045 25.477-14.955l54.87-113.724c-28.477-10.21-56.66-15.532-83.063-15.648zM119.74399999999997 76.22999999999998C110.92599999999997 81.51999999999998 102.75799999999998 87.83999999999997 95.36999999999998 95.22799999999998 71.88399999999997 118.70999999999998 59.13399999999997 150.027 56.339999999999975 185.28999999999996l136.266 99.38c-5.55-16.14-7.63-32.022-6.002-46.357L119.74399999999997 76.22999999999998z m182.194 1.885l-50.045 103.717c17.453-0.066 36.646 4.868 55.51 14.393l141.17-5.317c-8.735-10.745-18.182-21.25-28.342-31.41C383.72799999999995 122.99499999999998 342.84 95.59499999999997 301.94 78.11499999999998zM55.903999999999975 208.08499999999998c1.908 51.047 22.71 108.133 60.364 160.892l134.824-5.076c-6.03-4.68-11.91-9.846-17.557-15.494-8.606-8.606-16.102-17.746-22.445-27.144L55.903999999999975 208.08599999999998z m406.592 0.987L335.15 213.86999999999998c6.005 4.666 11.86 9.814 17.485 15.44 8.67 8.67 16.213 17.88 22.586 27.352l148.39 108.22c-3.41-49.83-24.4-104.89-61.114-155.81zM393.60999999999996 293.19c5.548 16.19 7.603 32.117 5.925 46.478l66.084 160.197c6.733-4.518 13.05-9.676 18.88-15.505 24.827-24.828 37.66-58.403 39.41-96.147l-130.3-95.023z m-3.06 73.668c-2.39 3.945-5.227 7.608-8.542 10.923-7.114 7.116-15.803 12.07-25.545 14.978L299.92999999999995 509.926c54.68 18.62 107.972 19.073 149.334-0.736L390.54999999999995 366.85799999999995z m-111.68 14.685l-148.805 5.604c9.076 11.28 18.93 22.3 29.574 32.94 37.823 37.825 80.355 65.884 122.73 83.25l51.85-107.454c-17.407 0.055-36.54-4.86-55.35-14.34z" /></svg>