<svg xmlns="http://www.w3.org/2000/svg" width="100%" height="100%" viewBox="0 0 583.68 583.68"><path d="M63.74999999999997 63.619999999999976l11.61 46.46 48 16L154.83999999999997 252.03999999999996h128v-78h-77.5l-32.2-96.75z m456.19 0L410.53999999999996 77.28999999999998l-32.2 96.75H300.84v78h128l30.3-121.16 1.2-4.8 48-16zM249.43999999999997 110.05999999999997l-23 45.98h130.8l-23-45.98z m-39 159.98l3 5.9L346.84 327.84v-4.4l6.7-18-90.9-35.4z m102 0l47.4 18.4 6.9-18.4z m-87.1 29.9l11.5 23v10.1L346.84 375.84v-28.6z m11.5 52.5v28.6L346.84 423.84v-28.6z m0 48v28.7L346.84 471.84v-28.6z m0 48V478.84l110 41.2v-28.8z" /></svg>