<svg xmlns="http://www.w3.org/2000/svg" width="100%" height="100%" viewBox="0 0 583.68 583.68"><path d="M125.29199999999997 67.83999999999997v44.667l166.75 28.9 166.75-28.9V67.83999999999997l-166.75 28.902L125.29199999999997 67.83999999999997z m-0.405 69.444v186.712c49.478 16.004 90.187 8.72 139.67 0 1.14-34.244 12.925-60.635 27.09-60.672 14.165 0.04 25.95 26.428 27.09 60.672 49.472 16.003 90.173 8.72 139.65 0V137.284l-166.74 28.813-166.76-28.813z m0 212.25V418.71999999999997c45.914 7.332 85.747 13.896 131.648 0V349.534c-45.915 7.33-85.747 13.895-131.648 0z m201.853 0V418.71999999999997c45.914 7.332 85.747 13.896 131.648 0V349.534c-45.915 7.33-85.747 13.895-131.648 0z m-198.44 94.55v64.2c43.532 6.802 81.302 12.893 124.823 0v-64.2c-43.534 6.8-81.303 12.893-124.824 0z m201.854 0v64.2c43.533 6.802 81.3 12.893 124.822 0v-64.2c-43.534 6.8-81.3 12.893-124.822 0z" /></svg>