<svg xmlns="http://www.w3.org/2000/svg" width="100%" height="100%" viewBox="0 0 583.68 583.68"><path d="M248.73799999999997 115.74999999999997c-4.538 0-6.847 2.742-7.828 4.09-0.98 1.348-1.34 2.29-1.69 3.207-0.705 1.835-1.122 3.578-1.567 5.693-0.892 4.23-1.71 9.75-2.536 16.442-1.65 13.384-3.268 31.297-4.71 50.232-2.88 37.87-5.036 79.37-5.036 96.428 0 15.474-2.12 45.862-4.958 71.846-0.145 1.334-0.31 2.47-0.46 3.78-0.114-1.007-0.243-1.867-0.356-2.89-2.838-25.672-4.957-56.006-4.957-72.736v-3.73l-0.097-0.094c-0.243-18.42-2.25-46.27-4.973-70.89-1.45-13.11-3.073-25.12-4.767-34.16-0.847-4.522-1.678-8.252-2.693-11.38-0.508-1.564-1-2.953-1.99-4.62-0.494-0.832-1.094-1.772-2.34-2.872-1.243-1.1-3.534-2.506-6.51-2.506-3.054 0-5.366 1.47-6.6 2.592-1.234 1.12-1.82 2.065-2.305 2.902-0.97 1.675-1.452 3.077-1.955 4.664-1.005 3.175-1.834 6.98-2.68 11.59-1.69 9.217-3.313 21.447-4.76 34.7-2.898 26.51-5.067 56.746-5.067 73.802 0 15.474-2.1 36.51-4.89 53.23-0.177 1.064-0.375 1.922-0.558 2.95-0.13-0.733-0.274-1.322-0.402-2.075-2.784-16.39-4.885-37.375-4.887-54.107 0-18.202-2.186-39.73-5.138-57.117-1.477-8.693-3.122-16.29-4.942-22.187-0.91-2.948-1.805-5.437-3.115-7.826-0.654-1.194-1.38-2.39-2.737-3.73-1.36-1.34-3.826-3.162-7.432-3.162-3.76 0-6.24 1.956-7.573 3.33-1.334 1.374-2.033 2.583-2.672 3.8-1.28 2.43-2.166 4.982-3.07 8.01-1.803 6.056-3.443 13.862-4.916 22.692-2.948 17.66-5.136 39.137-5.136 56.193 0 15.474-2.085 30.537-4.748 41.266-0.293 1.177-0.605 2.073-0.91 3.14-0.89-2.847-1.715-6.005-2.3-9.787-1.76-11.345-2.236-25.753-2.687-39.983-0.452-14.23-0.848-28.235-2.977-39.875-1.065-5.82-2.498-11.1-5.22-15.83-2.724-4.73-7.54-9.197-13.716-10.274l-0.767-0.133h-0.78c-4.603 0-7.32 2.488-8.988 4.354-1.668 1.865-2.75 3.763-3.785 5.886-2.072 4.245-3.78 9.44-5.315 15.63-3.072 12.374-5.277 28.546-5.277 45.602h18c0-15.473 2.084-30.536 4.748-41.266 0.624-2.51 1.29-4.736 1.94-6.7 0.528 1.685 1.036 3.684 1.455 5.97 1.72 9.397 2.24 22.992 2.69 37.205 0.452 14.213 0.863 29.093 2.89 42.17 2.027 13.077 5.084 25.195 15.132 32.406l2.352 1.69h2.895c4.603 0 7.322-2.488 8.99-4.354 1.668-1.867 2.75-3.765 3.785-5.888 2.072-4.245 3.776-9.44 5.312-15.628 3.073-12.375 5.28-28.548 5.28-45.604 0-15.475 2.1-36.51 4.888-53.23 0.178-1.064 0.376-1.92 0.56-2.948 0.13 0.732 0.272 1.32 0.4 2.073 2.782 16.39 4.884 37.375 4.884 54.103 0.002 18.205 2.19 39.733 5.143 57.12 1.475 8.695 3.118 16.293 4.938 22.19 0.91 2.947 1.807 5.436 3.117 7.825 0.655 1.194 1.38 2.392 2.74 3.73 1.357 1.34 3.824 3.162 7.43 3.162 3.763 0 6.24-1.956 7.575-3.33 1.333-1.374 2.03-2.583 2.67-3.8 1.278-2.43 2.165-4.982 3.068-8.01 1.805-6.056 3.446-13.862 4.92-22.692 2.946-17.66 5.134-39.137 5.134-56.193 0-15.474 2.12-45.862 4.96-71.846 0.145-1.333 0.31-2.47 0.458-3.78 0.116 1.01 0.245 1.87 0.358 2.892 2.838 25.672 4.96 56.006 4.96 72.734v3.73l0.095 0.094c0.243 18.422 2.25 46.272 4.972 70.893 1.45 13.11 3.074 25.12 4.768 34.16 0.847 4.52 1.677 8.248 2.693 11.377 0.508 1.564 0.998 2.953 1.988 4.62 0.496 0.832 1.098 1.774 2.342 2.874 1.245 1.1 3.534 2.504 6.51 2.504 3.054 0 5.365-1.47 6.6-2.592 1.234-1.12 1.82-2.065 2.304-2.902 0.97-1.675 1.453-3.077 1.955-4.664 1.006-3.175 1.835-6.982 2.68-11.59 1.69-9.217 3.314-21.447 4.762-34.7 2.896-26.51 5.064-56.746 5.064-73.802 0-15.475 2.132-57.52 4.988-95.063 0.132-1.74 0.282-3.268 0.418-4.987 0.11 1.415 0.236 2.662 0.345 4.092 2.857 37.238 4.988 79.227 4.988 95.955 0 18.205 2.158 59.76 5.04 97.334 1.44 18.787 3.058 36.476 4.71 49.678 0.825 6.6 1.642 12.04 2.537 16.217 0.447 2.087 0.867 3.81 1.58 5.637 0.356 0.914 0.722 1.857 1.717 3.2 0.994 1.342 3.32 4.023 7.783 4.023 4.538 0 6.845-2.742 7.826-4.09 0.982-1.348 1.34-2.29 1.692-3.207 0.704-1.835 1.123-3.578 1.57-5.693 0.89-4.23 1.707-9.75 2.532-16.442 1.65-13.384 3.27-31.296 4.71-50.23 2.88-37.87 5.036-79.368 5.036-96.424 0-15.475 2.132-57.52 4.988-95.065 0.132-1.735 0.28-3.26 0.416-4.973 0.112 1.41 0.237 2.654 0.346 4.08 2.855 37.238 4.984 79.23 4.984 95.957v9h0.315c0.402 20.462 2.157 54.84 4.725 88.33 1.44 18.787 3.06 36.476 4.71 49.678 0.827 6.6 1.646 12.038 2.54 16.215 0.448 2.088 0.867 3.812 1.58 5.64 0.357 0.914 0.723 1.857 1.717 3.2 0.995 1.342 3.323 4.023 7.783 4.023 4.54 0 6.848-2.744 7.83-4.092 0.98-1.348 1.338-2.29 1.69-3.207 0.703-1.834 1.12-3.576 1.566-5.69 0.892-4.23 1.71-9.75 2.535-16.442 1.65-13.384 3.266-31.296 4.707-50.23 2.88-37.868 5.04-79.37 5.04-96.424 0-15.475 2.118-45.864 4.958-71.848 0.145-1.333 0.31-2.47 0.46-3.78 0.114 1.01 0.243 1.87 0.356 2.892 2.838 25.67 4.96 56.004 4.96 72.734 0 18.204 2.17 48.495 5.067 74.715 1.45 13.11 3.074 25.12 4.768 34.16 0.848 4.52 1.68 8.25 2.694 11.377 0.508 1.564 0.997 2.953 1.987 4.62 0.496 0.832 1.098 1.772 2.342 2.872 1.245 1.1 3.533 2.506 6.51 2.506 3.054 0 5.366-1.47 6.6-2.592 1.234-1.12 1.82-2.065 2.305-2.902 0.97-1.675 1.452-3.077 1.955-4.664 1.005-3.175 1.836-6.982 2.68-11.59 1.69-9.217 3.315-21.447 4.763-34.7 2.897-26.51 5.066-56.746 5.066-73.802 0-15.475 2.1-36.51 4.89-53.23 0.177-1.06 0.374-1.917 0.557-2.942 0.13 0.73 0.273 1.317 0.4 2.066 2.783 16.39 4.885 37.376 4.885 54.106 0.002 18.205 2.19 39.733 5.142 57.12 1.477 8.695 3.12 16.293 4.94 22.19 0.91 2.946 1.807 5.434 3.117 7.823 0.656 1.194 1.38 2.39 2.737 3.73 1.358 1.34 3.827 3.162 7.434 3.162 3.764 0 6.242-1.956 7.575-3.33 1.333-1.374 2.03-2.583 2.67-3.8 1.28-2.43 2.166-4.982 3.07-8.01 1.803-6.056 3.443-13.862 4.916-22.692 2.948-17.66 5.136-39.137 5.136-56.193 0-15.474 2.085-30.538 4.748-41.268 0.238-0.958 0.493-1.67 0.74-2.556 0.17 0.612 0.35 1.06 0.514 1.71 2.642 10.36 4.735 25.384 4.735 42.114 0 18.204 2.195 34.416 5.29 46.56 1.548 6.07 3.27 11.088 5.397 15.198 1.063 2.055 2.187 3.903 3.908 5.695 1.72 1.792 4.48 4.018 8.772 4.018 4.603 0 7.322-2.488 8.99-4.354 1.668-1.867 2.75-3.763 3.785-5.886 2.072-4.245 3.777-9.443 5.313-15.63 3.072-12.375 5.28-28.548 5.28-45.604h-18c0 15.474-2.085 30.538-4.75 41.268-0.237 0.957-0.493 1.666-0.74 2.552-0.17-0.61-0.346-1.06-0.51-1.707-2.642-10.36-4.735-25.38-4.735-42.11 0-18.204-2.197-34.42-5.293-46.562-1.548-6.07-3.27-11.09-5.397-15.2-1.063-2.055-2.187-3.903-3.908-5.695-1.72-1.792-4.48-4.018-8.772-4.018-4.603 0-7.322 2.488-8.99 4.354-1.667 1.867-2.75 3.765-3.785 5.888-2.072 4.245-3.776 9.44-5.312 15.628-3.073 12.375-5.28 28.55-5.28 45.606 0 15.474-2.1 36.51-4.888 53.23-0.177 1.062-0.374 1.918-0.557 2.944-0.13-0.73-0.272-1.317-0.4-2.067-2.783-16.392-4.886-37.378-4.888-54.11 0-18.203-2.186-39.73-5.14-57.117-1.475-8.694-3.12-16.292-4.94-22.188-0.91-2.948-1.805-5.437-3.115-7.826-0.655-1.195-1.38-2.393-2.74-3.73-1.357-1.34-3.826-3.163-7.432-3.163-3.764 0-6.24 1.957-7.575 3.332-1.333 1.373-2.03 2.582-2.67 3.797-1.278 2.43-2.164 4.982-3.066 8.01-1.804 6.056-3.445 13.862-4.918 22.692-2.946 17.658-5.135 39.135-5.135 56.192 0 15.474-2.118 45.862-4.958 71.846-0.146 1.336-0.31 2.475-0.46 3.787-0.116-1.01-0.245-1.872-0.358-2.897-2.838-25.67-4.958-56.005-4.96-72.736 0-18.203-2.17-48.494-5.067-74.713-1.45-13.11-3.072-25.12-4.766-34.16-0.846-4.52-1.677-8.25-2.692-11.378-0.508-1.564-1-2.952-1.99-4.617-0.493-0.833-1.094-1.775-2.338-2.875-1.245-1.1-3.535-2.506-6.512-2.506-3.054 0-5.365 1.47-6.6 2.592-1.234 1.12-1.82 2.065-2.304 2.902-0.97 1.675-1.453 3.077-1.955 4.664-1.007 3.175-1.836 6.98-2.68 11.59-1.69 9.217-3.315 21.445-4.763 34.7-2.897 26.507-5.066 56.745-5.066 73.802 0 15.473-2.13 57.516-4.986 95.058-0.132 1.735-0.28 3.26-0.416 4.975-0.11-1.41-0.236-2.653-0.345-4.078-2.856-37.237-4.987-79.226-4.987-95.956v-9h-0.314c-0.403-20.46-2.157-54.842-4.725-88.332-1.44-18.787-3.06-36.477-4.71-49.68-0.826-6.6-1.645-12.04-2.54-16.217-0.447-2.088-0.865-3.812-1.578-5.64-0.357-0.914-0.725-1.857-1.72-3.2-0.994-1.34-3.32-4.02-7.777-4.023h-0.006c-4.536 0-6.846 2.745-7.826 4.092-0.98 1.348-1.34 2.29-1.69 3.207-0.704 1.836-1.123 3.578-1.57 5.692-0.89 4.23-1.707 9.75-2.532 16.442-1.65 13.384-3.27 31.296-4.71 50.23-2.88 37.87-5.038 79.372-5.038 96.43 0 15.474-2.13 57.516-4.986 95.058-0.132 1.732-0.282 3.254-0.416 4.965-0.11-1.408-0.235-2.648-0.344-4.07-2.855-37.237-4.986-79.226-4.986-95.957 0-18.202-2.158-59.757-5.04-97.332-1.44-18.787-3.06-36.477-4.712-49.68-0.826-6.6-1.643-12.04-2.537-16.217-0.45-2.087-0.868-3.81-1.582-5.637-0.356-0.914-0.724-1.857-1.718-3.2-0.995-1.342-3.32-4.023-7.782-4.023z" /></svg>