<svg xmlns="http://www.w3.org/2000/svg" width="100%" height="100%" viewBox="0 0 583.68 583.68"><path d="M72.83999999999997 108.83999999999997v382h18V108.83999999999997z m418.045 0l1.91 382h18l-1.91-382zM140.83999999999997 195.83999999999997c-14.638 0-27.157 9.715-31.43 23-2.405 6.634-1.479 14.38-0.574 18 3.61 14.3 16.641 25 32.004 25 14.17 0 26.36-9.102 31-21.736C176.47999999999996 252.73799999999997 188.67 261.84 202.83999999999997 261.84c15.363 0 28.394-10.7 32.004-25h238.682l-0.09-18H234.26999999999998c-4.273-13.285-16.792-23-31.43-23-14.17 0-26.36 9.102-31 21.736C167.2 204.94199999999998 155.01 195.83999999999997 140.83999999999997 195.83999999999997z m0 18c8.39 0 15 6.61 15 15s-6.61 15-15 15-15-6.61-15-15 6.61-15 15-15z m62 0c8.39 0 17 6.61 17 15s-8.61 15-17 15-15-6.61-15-15 6.61-15 15-15z m33 45c-15.002 0-27.775 10.206-31.729 24H108.83999999999997v18h95.271c3.954 13.794 16.727 24 31.729 24 15.002 0 27.775-10.206 31.729-24h206.277l-0.092-18H267.56999999999994c-3.954-13.794-16.727-24-31.729-24z m0 18c8.39 0 15 6.61 15 15s-6.61 15-15 15-15-6.61-15-15 6.61-15 15-15z m83 47c-14.638 0-27.157 9.715-31.43 23H108.83999999999997v18h177.996c3.61 14.3 16.641 25 32.004 25 14.17 0 26.36-9.102 31-21.736C354.47999999999996 380.738 366.66999999999996 389.84 380.84 389.84c14.17 0 26.36-9.102 31-21.736C416.47999999999996 380.738 428.66999999999996 389.84 442.84 389.84c15.363 0 28.394-10.7 32.004-25 1.31-3.077 0.621-13.458-0.77-18C467.84 330.246 454.30699999999996 324.126 442.84 323.84c-14.17 0-26.36 9.102-31 21.736C407.2 332.94199999999995 395.01 323.84 380.84 323.84c-14.17 0-26.36 9.102-31 21.736C345.2 332.94199999999995 333.01 323.84 318.84 323.84z m62 66c-13.892 0-25.874 8.752-30.71 21H108.83999999999997v18h239.564c2.853 15.29 16.366 27 32.436 27s29.583-11.71 32.436-27h61.209l-0.09-18H411.54999999999995c-4.837-12.248-16.819-21-30.711-21z m-62-48c8.39 0 15 6.61 15 15s-6.61 15-15 15-15-6.61-15-15 6.61-15 15-15z m62 0c8.39 0 15 6.61 15 15s-6.61 15-15 15-15-6.61-15-15 6.61-15 15-15z m62 0c8.39 0 15 6.61 15 15s-6.61 15-15 15-15-6.61-15-15 6.61-15 15-15z m-62 66c8.39 0 15 6.61 15 15s-6.61 15-15 15-15-6.61-15-15 6.61-15 15-15zM60.839999999999975 508.84v16h462v-16z" /></svg>