<svg xmlns="http://www.w3.org/2000/svg" width="100%" height="100%" viewBox="0 0 583.68 583.68"><path d="M291.84 67.83999999999997A224 224 0 0 0 67.83999999999997 291.84a224 224 0 0 0 224 224 224 224 0 0 0 224-224A224 224 0 0 0 291.84 67.83999999999997z m0 40a184 184 0 0 1 184 184 184 184 0 0 1-184 184A184 184 0 0 1 107.83999999999997 291.84 184 184 0 0 1 291.84 107.83999999999997z m0 48a136 136 0 0 0-136 136 136 136 0 0 0 136 136 136 136 0 0 0 136-136 136 136 0 0 0-136-136z m-0.994 47.834c9.848-0.197 19.708 1.524 29.002 4.752 26.805 8.13 47.273 30.513 55.82 56.678l-63.05-1.285L291.84 204.04199999999997l-20.777 59.776-63.27 1.288L258.21999999999997 303.34l-18.02 59.563c-20.54-15.486-34.84-39.655-36.673-65.24-4.02-48.442 39.505-94.682 87.32-93.99z m84.87 61.564c3.95 12.16 5.334 25.13 3.57 37.866-2.29 24.324-16.34 45.71-35.82 59.754L325.45799999999997 303.34l50.255-38.102zM291.84 327.76599999999996l51.04 35.515c-15.884 11.27-35.293 17.685-54.886 16.857-17.256-0.38-33.59-6.7-47.234-16.826L291.84 327.767z" /></svg>