<svg xmlns="http://www.w3.org/2000/svg" width="100%" height="100%" viewBox="0 0 583.68 583.68"><path d="M53.376999999999974 153.40399999999997L53.336999999999975 170.83999999999997h476.944v-17.436H53.37799999999997zM53.299999999999976 188.83999999999997l-0.106 47H59.839999999999975a32 32 0 0 1 32-32 32 32 0 0 1 32 32h16.033a32 32 0 0 1-0.033-0.676 32 32 0 0 1 32-32 32 32 0 0 1 32 32 32 32 0 0 1-0.023 0.676h15.783a32 32 0 0 1 32-32 32 32 0 0 1 32 32h16.033a32 32 0 0 1-0.033-0.676 32 32 0 0 1 32-32 32 32 0 0 1 32 32 32 32 0 0 1-0.024 0.676h16.33a32 32 0 0 1-0.066-1.324 32 32 0 0 1 32-32 32 32 0 0 1 32 32 32 32 0 0 1-0.047 1.324H459.94a32 32 0 0 1-0.1-2 32 32 0 0 1 32-32 32 32 0 0 1 32 32 32 32 0 0 1-0.07 2h6.51v-47H53.299999999999976z m-2.136 63l0.2 96h8.67A80 32 90 0 1 91.83999999999997 275.84a80 32 90 0 1 31.84 72h16.353A80 32 90 0 1 171.83999999999997 275.84a80 32 90 0 1 31.84 72h16.353A80 32 90 0 1 251.83999999999997 275.84a80 32 90 0 1 31.84 72h16.353A80 32 90 0 1 331.84 275.84a80 32 90 0 1 31.84 72h16.353A80 32 90 0 1 411.84 275.84a80 32 90 0 1 31.84 72h16.353A80 32 90 0 1 491.84 275.84a80 32 90 0 1 31.84 72h7.924l0.398-96H51.16399999999997z m-0.726 112l0.677 160H76.88999999999997A144 62.98799999999999 90 0 1 139.83999999999997 382.37699999999995 144 62.98799999999999 90 0 1 202.77399999999997 523.8399999999999h26.203A144 62.98799999999999 90 0 1 291.84 387.84a144 62.98799999999999 90 0 1 62.813 136h26.324A144 62.98799999999999 90 0 1 443.84 387.84a144 62.98799999999999 90 0 1 62.813 136h24.705l1.353-160H50.439999999999976z" /></svg>