<svg xmlns="http://www.w3.org/2000/svg" width="100%" height="100%" viewBox="0 0 583.68 583.68"><path d="M392.746 85.43399999999997c-108.533 0.34-194.246 85.275-306.719 20.312 17.05 30.293 55.26 55.692 101.47 67.688C163.08399999999997 209.46999999999997 96.46999999999997 225.82399999999998 51.589999999999975 221.83999999999997c141.27 81.595 210.67-64.442 380.313 29.656l-19.907 48.688H54.15199999999997v18.687h350.22l-17.907 43.814H53.619999999999976v18.687h325.19l-18.845 46.126H55.77699999999997v18.688h304.938c1.4 12.458 8.875 23.708 19.625 31.5 14 10.147 33.528 15.774 55.875 15.812 22.347 0.04 43.583-5.58 60.438-15.062 16.854-9.482 29.862-23.084 33.156-40 3.293-16.916-5.158-32.884-19.158-43.03-14-10.15-33.527-15.776-55.875-15.814-22.347-0.038-43.583 5.55-60.437 15.03-0.327 0.185-0.645 0.377-0.97 0.564L507.185 116.83999999999997l-17.313-7.063-0.06 0.126c-34.838-18.096-66.836-24.564-97.064-24.47z m85.53 41.906c0.567-0.02 1.122-0.022 1.69 0 0.864 0.033 1.728 0.145 2.593 0.28l-42.75 104.532c-26.664-27.147 4.468-103.57 38.467-104.812z" /></svg>