<svg xmlns="http://www.w3.org/2000/svg" width="100%" height="100%" viewBox="0 0 583.68 583.68"><path d="M367.57399999999996 56.28299999999997a4.421 4.421 0 0 0-1.802 0.327c-27.736 11.543-47.295 57.495-29.899 76.671 33.52 38.946 72.835 55.573 90.147 128.434 2.607 20.15 1.218 40.094 0 60.25-17.312 72.861-56.627 89.488-90.147 128.434-17.396 19.176 2.163 65.128 29.899 76.671 9.038 3.762 28.025-26.165 21.752-25.209-16.34 2.491-37.8-20.941-28.387-28.93 38.47-32.65 105.49-100.055 100.277-135.552-2.211-15.057-9.35-30.36-15.574-45.539 6.225-15.18 13.363-30.482 15.574-45.54 5.214-35.496-61.806-102.901-100.277-135.552-9.412-7.988 12.047-31.42 28.387-28.93 5.881 0.897-10.44-25.35-19.95-25.535zM187.83999999999997 60.06999999999998l-21.441 53.602L187.83999999999997 135.11299999999997l21.441-21.441z m-9 91.497v296.546l9-9 9 9V151.56699999999998l-2.637 2.636-6.363 6.364z m160 9.847v260.824l18-17.53V178.944zM187.83999999999997 464.56699999999995l-23 23v38.546l23-23 23 23v-38.546z" /></svg>