<svg xmlns="http://www.w3.org/2000/svg" width="100%" height="100%" viewBox="0 0 583.68 583.68"><path d="M48.29499999999997 148.12099999999998v19.153h31.75l5.606 163.779H75.41799999999998v19.152h153.389l19.318-18.838a45.2 45.2 0 0 1-2.795-15.709c0-17.091 9.399-31.867 23.34-39.476v-40.51c-10.45 7.054-18.058 18.863-21.37 32.506-12.957 11.747-21.122 28.696-21.122 47.48 0 2.654 0.182 5.265 0.498 7.836l-51.822-71.302 61.716-84.918h105.346l61.717 84.918-49.414 67.988c0.105-1.496 0.178-3 0.178-4.522 0-17.758-7.302-33.87-19.047-45.504-2.928-13.967-10.325-26.2-20.68-33.683v41.365c12.4 7.979 20.574 21.89 20.574 37.822 0 5.47-0.963 10.701-2.728 15.537l19.025 19.01H504.79999999999995v-19.152h-12.133l5.606-163.78h37.113v-19.152z m48.38 19.153h0.003l61.717 84.916-56.168 77.283z m16.464 0h106.97l-53.486 73.591z m245.238 0h106.97l-53.484 73.591z m123.256 0.244l-5.535 161.73-56.004-77.056z m-190.957 23.115l-8.441 8.441v88.182c-12.387 3.658-21.534 15.184-21.534 28.691a29.58 29.58 0 0 0 4.053 14.936l-65.447 65.45v11.937l1.65 1.65h11.938l66.34-66.342a29.519 29.519 0 0 0 11.375 2.278c4.062 0 7.945-0.829 11.49-2.323l65.758 65.756h11.937l1.65-1.65V395.7l-64.92-64.922a29.577 29.577 0 0 0 3.993-14.832c0-12.593-7.953-23.464-19.067-27.843v-89.03l-8.441-8.441z m-124.05 72.883l49.083 67.537H117.53999999999998z m245.237 0l49.084 67.537h-98.17zM290.61 304.039c6.683 0 11.908 5.225 11.908 11.908 0 6.684-5.225 11.909-11.908 11.909-6.684 0-11.909-5.225-11.909-11.909 0-6.683 5.225-11.908 11.909-11.908z m11.12 55.121a45.458 45.458 0 0 1-11.443 1.455c-3.607 0-7.107-0.43-10.463-1.222L258.662 380.53999999999996h64.319z m-118.374 2.229V380.53999999999996h14.338l19.642-19.152z m179.377 0L381.9 380.53999999999996h14.652V361.39z m-193.647 17.885c-6.044 0-9.576 5.43-9.576 10.418V425.14c0 4.987 3.532 10.418 9.576 10.418 6.044 0 9.576-5.431 9.576-10.418v-35.45c0-4.986-3.532-10.417-9.576-10.417z m240.8 0c-6.043 0-9.575 5.43-9.575 10.418V425.14c0 4.987 3.532 10.418 9.576 10.418 6.044 0 9.576-5.431 9.576-10.418v-35.45c0-4.986-3.532-10.417-9.576-10.417z" /></svg>