<svg xmlns="http://www.w3.org/2000/svg" width="100%" height="100%" viewBox="0 0 583.68 583.68"><path d="M420.31 45.77799999999998L356.27599999999995 61.869999999999976 216.86999999999998 201.27799999999996c-46.298 46.3 1.17 87.987-48.25 137.407l-81.593 81.594c-1.23-0.054-2.468-0.058-3.718 0.03-5.936 0.42-13.572 2.884-19.94 9.25-6.365 6.367-8.423 13.597-8.843 19.532-0.418 5.935 0.87 11.557 2.907 17.47 4.076 11.823 12.242 24.43 23.718 35.905 11.477 11.476 24.05 19.642 35.875 23.72 5.912 2.037 11.565 3.324 17.5 2.905 5.936-0.42 12.915-2.727 19.282-9.094 6.365-6.366 9.048-13.752 9.467-19.687 0.27-3.817-0.147-7.53-1.03-11.25l78.374-78.376c49.42-49.42 91.108-1.95 137.407-48.25l160.938-160.938-107 12.156 7.78-101.593L363.31 139.83999999999997c3.406-34.72 23.273-64.073 57-94.063z m1.217 218.906l13.438 13.437-65.344 65.314c-25.316 25.317-51.6 25.56-73.874 25.656-22.274 0.098-40.82-0.075-63.5 22.594l-77.625 78.5c-2.994-5.3-6.705-10.628-11.093-15.813l75.282-76.124c26.74-26.74 54.44-27.996 76.936-28.094 22.495-0.097 39.457 0.857 60.438-20.125l65.343-65.343z m-344.78 175.5c2.838-0.034 7.036 0.442 11.28 1.906 9.702 3.345 21.423 10.86 32.032 21.47 10.608 10.608 18.123 22.328 21.467 32.03 1.673 4.85 1.79 9.35 1.594 12.125-0.28 1.417-0.234 1.427-1.593 1.625-2.774 0.196-6.9-0.327-11.75-2-9.696-3.343-21.395-10.9-32-21.5-10.608-10.61-18.155-22.33-21.5-32.03-1.672-4.852-2.446-9.195-2.25-11.97 0.038-1.55 0.02-1.547 1.594-1.625 0.348-0.025 0.72-0.026 1.126-0.03z" /></svg>