<svg xmlns="http://www.w3.org/2000/svg" width="100%" height="100%" viewBox="0 0 583.68 583.68"><path d="M291.84 51.839999999999975C156.83999999999997 51.839999999999975 51.839999999999975 111.83999999999997 51.839999999999975 171.83999999999997c0 30 15 45 30 60-15 15-30 54.417-30 75v165c0 30 30 60 60 60h360c30 0 60-15 60-60V291.84c0-18.957-15-45-30-60 15-15 30-30 30-60 0-60-105-120-240-120z m0 60c105 0 180 15 180 60 0 15-15 45-30 60 15 15 30 60 30 75v165H111.83999999999997V306.84c0-15 15-60 30-75-15-15-30-45-30-60 0-45 75-60 180-60z m-10.375 27.125a15 15 0 0 0-10.844 4.375L143.33999999999997 270.62a15 15 0 0 0 0 21.22l10.625 10.594a15 15 0 0 0 21.22 0l127.28-127.28a15 15 0 0 0 0-21.19L291.84 143.33999999999997a15 15 0 0 0-10.375-4.375z m100.75 37.125a15 15 0 0 0-10.813 4.375L180.46499999999997 371.40299999999996a15 15 0 0 0 0 21.187l10.625 10.625a15 15 0 0 0 21.22 0l190.905-190.938a15 15 0 0 0 0-21.187l-10.594-10.625a15 15 0 0 0-10.405-4.375zM419.34 276.84a15 15 0 0 0-10.813 4.406l-127.28 127.28a15 15 0 0 0 0 21.19L291.84 440.34a15 15 0 0 0 21.22 0L440.34 313.06a15 15 0 0 0 0-21.22l-10.594-10.594A15 15 0 0 0 419.34 276.84z" /></svg>