<svg xmlns="http://www.w3.org/2000/svg" width="100%" height="100%" viewBox="0 0 583.68 583.68"><path d="M150.23999999999998 71.82999999999998l36.8 85.91c4 2.4 7.9 4.9 11.8 7.5V102.38999999999997c-16-11.07-32.2-21.32-48.6-30.56zM216.83999999999997 86.39999999999998V195.83999999999997c0 0.2 0.7 2.4 3.4 4.9 2.7 2.5 6.9 5.1 10.9 6.7 3.2 1.3 5.9 1.7 7.7 1.8V99.83999999999997c0-0.25-0.7-2.39-3.4-4.92s-6.9-5.11-10.9-6.72c-3.2-1.26-5.9-1.69-7.7-1.8z m40 60.54v63.2c48.3 43.4 88.2 95.2 118.7 145 22.3 36.5 39.5 71.9 51.2 102.5 9.9 25.8 16 47.9 17.6 65.2h93.1c-3.4-15.2-13.9-41.6-31-72.9-21.2-38.8-52-85.9-89.7-134.6C371.84 257.53999999999996 317.03999999999996 197.53999999999996 256.84 146.93999999999997z m-38 74.7V521.8399999999999h18V227.33999999999997c-4.2-0.3-8.3-1.5-12.3-3.1-1.9-0.8-3.8-1.7-5.7-2.6z" /></svg>