<svg xmlns="http://www.w3.org/2000/svg" width="100%" height="100%" viewBox="0 0 583.68 583.68"><path d="M163.43599999999998 62.275999999999975C147.05899999999997 61.96599999999998 126.20799999999997 74.02399999999997 113.83999999999997 67.83999999999997v64c16.008 8.004 48.437-15.563 64 0 16 16 40.004 7.996 48 0V67.83999999999997c-7.755 7.755-32 16-48 0-3.985-3.985-8.946-5.462-14.404-5.564zM74.83999999999997 67.83999999999997v254.373c5.412-12.05 11.43-23.452 18-34.172V67.83999999999997H74.83999999999997z m217 121C171.06999999999996 188.83999999999997 64.41499999999998 291.991 61.001999999999974 474.84H243.83999999999997V371.84c0-32 96-32 96 0v103h182.838C519.265 291.991 412.609 188.83999999999997 291.84 188.83999999999997z m0 26.938l36.025 18.011-8.05 16.102L291.84 235.90299999999996l-27.975 13.988-8.05-16.102L291.84 215.777z m0 38l36.025 18.011-8.05 16.102L291.84 273.90299999999996l-27.975 13.988-8.05-16.102L291.84 253.777z m0 38l36.025 18.011-8.05 16.102L291.84 311.90299999999996l-27.975 13.988-8.05-16.102L291.84 291.777zM115.83999999999997 371.84h96v48H115.83999999999997v-48z m256 0h96v48h-96v-48z m-80 39v18h32v-18h-32zM60.839999999999975 492.84v16h158v-16H60.839999999999975z m176 0v16h110v-16H236.83999999999997z m128 0v16h158v-16H364.84z" /></svg>