<svg xmlns="http://www.w3.org/2000/svg" width="100%" height="100%" viewBox="0 0 583.68 583.68"><path d="M99.83999999999997 67.83999999999997L51.839999999999975 531.8399999999999h96L99.83999999999997 67.83999999999997z m48 464h48c-20.053 0-37.38-12.205-44.943-29.55L147.83999999999997 531.8399999999999z m48 0h48l-3.057-29.547C233.21999999999997 519.6379999999999 215.89299999999997 531.8399999999999 195.83999999999997 531.8399999999999z m48 0h48c-20.052 0-37.38-12.202-44.943-29.547L243.83999999999997 531.8399999999999z m48 0h48l-3.057-29.55C329.21999999999997 519.634 311.893 531.8399999999999 291.84 531.8399999999999z m48 0h96L387.84 67.83999999999997l-48 464z m96 0h48c-20.053 0-37.38-12.205-44.943-29.55L435.84 531.8399999999999z m48 0h48l-3.057-29.55C521.22 519.634 503.893 531.8399999999999 483.84 531.8399999999999zM195.83999999999997 67.83999999999997l-28.914 279.512c8.12-5.97 18.12-9.512 28.914-9.512s20.795 3.542 28.914 9.512L195.83999999999997 67.83999999999997z m96 0l-40.016 386.82C260.717 442.09 275.356 433.84 291.84 433.84c16.486 0 31.123 8.254 40.016 20.826L291.84 67.83999999999997z m192 0l-18.373 177.605C471.15 243.128 477.34999999999997 241.83999999999997 483.84 241.83999999999997c6.49 0 12.69 1.288 18.373 3.605L483.84 67.83999999999997z m0 192c-17.227 0-31 13.773-31 31s13.773 31 31 31 31-13.773 31-31-13.773-31-31-31z m-27.273 71.648l-1.64 15.858c5.583-4.105 12.058-7.062 19.07-8.506-6.336-1.305-12.232-3.846-17.43-7.352z m54.546 0c-5.198 3.506-11.094 6.047-17.43 7.352 7.012 1.444 13.487 4.4 19.07 8.506l-1.64-15.858zM483.84 355.84c-17.227 0-31 13.773-31 31s13.773 31 31 31 31-13.773 31-31-13.773-31-31-31z m-324.387 63.732l-3.63 35.08c7.077-9.997 17.788-17.26 30.173-19.812-10.42-2.146-19.66-7.627-26.543-15.268z m72.774 0c-6.884 7.64-16.122 13.122-26.543 15.268 12.384 2.55 23.096 9.813 30.172 19.81l-3.63-35.078z m215.226 0l-3.63 35.08c7.077-9.997 17.788-17.26 30.173-19.812-10.42-2.146-19.66-7.627-26.543-15.268z m72.774 0c-6.884 7.64-16.122 13.122-26.543 15.268 12.385 2.55 23.096 9.815 30.172 19.813l-3.63-35.08zM483.84 451.84c-17.227 0-31 13.773-31 31s13.773 31 31 31 31-13.773 31-31-13.773-31-31-31z" /></svg>