<svg xmlns="http://www.w3.org/2000/svg" width="100%" height="100%" viewBox="0 0 583.68 583.68"><path d="M509.63 74.04999999999998c-1.853-1.85-3.902-3.5-6.066-4.89l-5.703 10.304 2.416-12.152c-5.255-2.56-10.94-3.467-16.103-1.746l-0.79 0.79c0.696 7.73 4.943 16.09 11.396 22.544 6.453 6.454 14.814 10.7 22.545 11.396l0.79-0.79c2.827-8.484-1.415-18.384-8.486-25.455z m-41.087 7.145L313.76 235.97999999999996l6.71 6.71 40.306-40.306-31.498 49.112 18.423 18.424L502.48499999999996 115.13699999999997c-1.877-0.724-3.712-1.558-5.5-2.488l-26.51 13.664 18.61-18.613c-2.49-1.847-4.845-3.884-7.032-6.072-5.808-5.807-10.56-12.777-13.51-20.433z m-167.51 167.512l-16.22 16.22 48.656 16.217-32.438-32.437z m20.46 47.42l-50.91-16.97-11.226 11.225 50.912 16.97 11.224-11.225zM296.03999999999996 321.58299999999997l-17.85-5.95-10.92 34.72 28.77-28.77z m-34.93-11.643l-15.98-5.328-11.88 11.88 19.628 19.63 8.232-26.182z m-6.513 53.13l-7.81-7.583-26.266-26.267L65.56499999999997 484.173c-3.395 10.185 3.4 22.4 13.044 29.324l61.006-61.006-53.14 65.167c4.35 1.522 8.86 1.847 13.03 0.457l155.09-155.044z" /></svg>