<svg xmlns="http://www.w3.org/2000/svg" width="100%" height="100%" viewBox="0 0 583.68 583.68"><path d="M58.839999999999975 154.83999999999997v274h466V154.83999999999997H58.839999999999975z m16 16h434v242H74.83999999999997V170.83999999999997z m72.285 18A64 64 0 0 1 92.83999999999997 243.13699999999997v97.418A64 64 0 0 1 147.13699999999997 394.84h289.418A64 64 0 0 1 490.84 340.54299999999995v-97.418A64 64 0 0 1 436.54299999999995 188.83999999999997H147.12499999999997zM291.84 211.83999999999997a80 48 90 0 1 48 80 80 48 90 0 1-48 80 80 48 90 0 1-48-80 80 48 90 0 1 48-80z m-9 32v14.057c-5.37 1.576-9.96 4.136-13.766 7.685-6.848 6.386-10.27 15.146-10.27 26.28 0 11.014 3.36 19.744 10.085 26.19 3.86 3.685 8.513 6.305 13.95 7.874V339.84h18v-12.32c3.475-0.23 6.878-0.712 10.203-1.463 4.78-1.08 9.392-2.698 13.834-4.858v-33.223h-27.762v11.937h10.873v13.418c-1.264 0.494-2.698 0.865-4.302 1.112-1.574 0.215-3.286 0.324-5.137 0.324-6.818 0-12.077-1.99-15.778-5.97-3.702-3.978-5.553-9.624-5.553-16.935 0-7.372 1.91-13.034 5.735-16.982 3.856-3.978 9.333-5.968 16.428-5.968 3.825 0 7.634 0.542 11.428 1.62 3.826 1.08 7.666 2.716 11.522 4.906v-14.3c-3.732-1.696-7.71-2.975-11.937-3.84-3.077-0.632-6.263-1.03-9.555-1.198V243.83999999999997h-18z m-119 32a16 16 0 0 1 16 16 16 16 0 0 1-16 16 16 16 0 0 1-16-16 16 16 0 0 1 16-16z m256 0a16 16 0 0 1 16 16 16 16 0 0 1-16 16 16 16 0 0 1-16-16 16 16 0 0 1 16-16z" /></svg>