<svg xmlns="http://www.w3.org/2000/svg" width="100%" height="100%" viewBox="0 0 583.68 583.68"><path d="M291.84 58.769999999999975L81.05999999999997 239.43999999999997l19.31 19.3L291.84 99.20999999999998 483.23999999999995 258.74l19.4-19.3z m0 63.86L148.83999999999997 241.83999999999997l54.2 230.1h177.6L434.84 241.83999999999997z m0 68.31c44.2 0 80 35.8 80 80s-35.8 80-80 80-80-35.8-80-80 35.8-80 80-80z m0 210c8.8 0 16 7.2 16 16s-7.2 16-16 16-16-7.2-16-16 7.2-16 16-16z m-9 89v35h18v-35z" /></svg>