<svg xmlns="http://www.w3.org/2000/svg" width="100%" height="100%" viewBox="0 0 583.68 583.68"><path d="M528.837 58.116999999999976c-26.511 13.835-46.459 23.883-80.37 29.6l-149.47 169c0.284 0.262 0.566 0.525 0.841 0.8 5.444 5.444 8.24 12.592 8.403 19.791 7.199 0.164 14.347 2.959 19.79 8.403 0.092 0.091 0.177 0.187 0.266 0.28 75.387-70.48 208.445-166.137 200.54-227.874zM257.54699999999997 243.42l-12.728 12.728 7.262 7.262 7.199-6.238a28.54 28.54 0 0 1 7.03-4.989z m21.83 23.566c-2.78 0-5.56 1.085-7.734 3.258-4.346 4.346-4.346 11.122 0 15.469 4.346 4.346 11.12 4.344 15.467-0.002 4.346-4.347 4.346-11.119 0-15.465-2.173-2.173-4.952-3.26-7.733-3.26z m-27.359 20.297L81.51999999999998 435.04999999999995l46.877 9.375 139.79-139.79a28.577 28.577 0 0 1-16.168-17.352z m55.553 7.897c-2.78 0-5.56 1.086-7.733 3.26-4.345 4.346-4.348 11.12-0.002 15.466 4.347 4.346 11.123 4.346 15.47 0 4.346-4.346 4.344-11.12-0.003-15.467-2.173-2.173-4.953-3.26-7.732-3.26z m-26.656 22.183l-139.79 139.79 9.376 46.876 147.765-170.498a28.577 28.577 0 0 1-17.351-16.168z m52.45 1.877a28.538 28.538 0 0 1-4.987 7.03l-6.239 7.199 7.262 7.261 12.728-12.726zM67.23599999999998 405.53999999999996l-12.729 12.726 8.774 8.774 13.637-11.818z m-2.924 44.424l-4.137 3.586c-0.14 0.124-0.137-0.033-0.181 0.638-0.048 0.712 0.14 2.267 0.908 4.264 1.536 3.995 5.278 9.47 9.857 14.049 4.58 4.58 10.054 8.32 14.05 9.857 1.997 0.769 3.553 0.956 4.265 0.908 0.712-0.047 0.504-0.022 0.676-0.193l23.351-23.351z m61.518 22.486l-23.352 23.352c-0.171 0.17-0.144-0.035-0.191 0.677-0.048 0.712 0.138 2.268 0.906 4.266 1.536 3.995 5.28 9.468 9.86 14.047 4.579 4.58 10.051 8.323 14.046 9.86 1.998 0.768 3.554 0.953 4.266 0.906 0.669-0.045 0.514-0.04 0.637-0.18l3.585-4.137z" /></svg>