<svg xmlns="http://www.w3.org/2000/svg" width="100%" height="100%" viewBox="0 0 583.68 583.68"><path d="M163.83999999999997 65.83999999999997c-10.8 0-19 5.73-24.9 11.79-5.83 6.05-10.34 13.22-14.59 21.44-8.5 16.44-15.67 37.27-21.88 60.07-8.17 30-14.5 62.8-17.88 91.7h36.4c3.3-25.9 9.02-55.9 16.25-82.3 5.8-21.2 12.6-40.37 19.1-52.93 3.2-6.28 6.5-10.86 8.5-12.93 0.7-0.73 0.8-0.73 0.9-0.84h252.2c0.1 0.11 0.2 0.11 0.9 0.84 2 2.07 5.3 6.65 8.5 12.93 6.5 12.56 13.3 31.73 19.1 52.93 7.2 26.4 13 56.4 16.2 82.3h36.4c-3.3-28.9-9.7-61.7-17.8-91.7-6.2-22.8-13.4-43.63-21.9-60.07-4.3-8.22-8.8-15.39-14.6-21.44C438.84 71.56999999999996 430.64 65.83999999999997 419.84 65.83999999999997H163.83999999999997zM67.83999999999997 268.84c-20 0-20 46 0 46h448c20 0 20-46 0-46H67.83999999999997z m27.2 64c0.45 2.2 0.88 4.5 1.3 6.8l3.51 3.5L110.07999999999997 332.84H95.03999999999998z m40.6 0l-23.04 23L163.83999999999997 407.03999999999996l51.2-51.2-23-23H135.64z m82 0l10.2 10.2 10.2-10.2h-20.4z m46 0l-23 23 51.2 51.2 51.2-51.2-23-23h-56.4z m82 0l10.2 10.2 10.2-10.2h-20.4z m46 0l-23 23 51.2 51.2 51.2-51.2-23-23h-56.4z m82 0l10.2 10.2 3.5-3.5c0.4-2.3 0.9-4.5 1.3-6.7h-15zM227.83999999999997 368.64L176.53999999999996 419.84l51.2 51.2 51.3-51.2-51.2-51.2z m128 0L304.64 419.84l51.2 51.2 51.2-51.2-51.2-51.2z m-254.58 1.4c3.82 25.9 7.56 54.3 13.36 79.8 0.4 1.8 0.83 3.5 1.25 5.2L151.03999999999996 419.84l-49.78-49.8z m381.08 0.1L432.64 419.84l35.2 35.2c0.4-1.8 0.8-3.5 1.2-5.2 5.8-25.5 9.6-53.8 13.3-79.7zM163.83999999999997 432.53999999999996l-42.37 42.4c3.64 11.2 7.86 21 12.71 28.6C142.43999999999997 516.44 151.23999999999998 522.8399999999999 163.83999999999997 522.8399999999999h12.2l39-39.1-51.2-51.2z m128 0.1l-51.2 51.3 38.9 38.9h24.6l38.9-39-51.2-51.2z m128 0L368.64 483.84l39 39H419.84c12.6 0 21.4-6.4 29.7-19.3 4.8-7.6 9-17.4 12.6-28.6L419.84 432.64z m-191.9 64L201.64 522.8399999999999h52.5l-26.2-26.2z m127.9 0L329.64 522.8399999999999h52.4L355.84 496.64z" /></svg>