<svg xmlns="http://www.w3.org/2000/svg" width="100%" height="100%" viewBox="0 0 583.68 583.68"><path d="M348.84 115.83999999999997v48h18V115.83999999999997z m-78.5 29.2l-17 5.6 16 48 17-5.6z m175 0l-16 48 17 5.6 16-48zM357.84 202.83999999999997c-71.9 0-130.9 55.5-136.6 126h127.1c5.7-18 6.2-37.7 8.4-54.8 10.5 6.9 21.1 22.4 26 37.7 4.9-22.7 5.7-46.6 8.2-67.6 20.3 14.8 40.9 56.5 37 84.7h66.5c-5.7-70.5-64.7-126-136.6-126zM55.839999999999975 346.84v18h472v-18z m190 38v18h224v-18z m16 38v18h192v-18z m32 38v18h128v-18z m42 38v18h44v-18z" /></svg>