<svg xmlns="http://www.w3.org/2000/svg" width="100%" height="100%" viewBox="0 0 583.68 583.68"><path d="M138.43399999999997 61.809999999999974l90.062 345.78L517.684 430.84 427.59 85.05999999999997 138.43399999999997 61.809999999999974z m-18.906 1.593c-30.466 11.873-55.68 53.098-49.75 75.312l3.25 11.78c0.667-1.76 1.36-3.522 2.093-5.28C85.02999999999997 121.50799999999998 101.67999999999998 98.44999999999997 125.49699999999997 86.30999999999997l-5.97-22.907z m44.937 18.906l247.813 21.593 80.937 305.156-249.344-20.064L164.46599999999998 82.30999999999997zM130.36999999999998 104.99499999999998c-16.66 10.01-29.916 28.068-38 47.406-5.245 12.552-8.037 25.64-8.75 36.532l64.814 235.28c0.293-0.55 0.572-1.105 0.875-1.655 10.6-19.254 27.822-37.696 51.124-48.47L130.36999999999998 104.99599999999998z m74.876 287.563c-17.673 9.067-31.144 23.712-39.562 39-4.464 8.105-7.262 16.36-8.688 23.75l11.688 42.405 1.625 0.125c-3.825-27.528 11.382-60.446 41.25-81.03l-6.314-24.25z m26.344 34.03c-32.552 17.26-46.49 52.402-41.844 72.906l289.844 24.53c-5.315-7.75-8.637-17.84-8.594-28.342l-22.562-9.063 46.625-7.31-13.595-12.97c5.605-6.907 13.688-13.025 24.78-17.656L231.58999999999997 426.59z" /></svg>