<svg xmlns="http://www.w3.org/2000/svg" width="100%" height="100%" viewBox="0 0 583.68 583.68"><path d="M291.84 85.83999999999997c-21.6 0-39 17.35-39 39 0 21.6 17.4 39 39 39s39-17.4 39-39c0-21.65-17.4-39-39-39z m-48 89c-21.6 0-39 17.4-39 39s17.4 39 39 39 39-17.4 39-39-17.4-39-39-39z m96 0c-21.6 0-39 17.4-39 39s17.4 39 39 39 39-17.4 39-39-17.4-39-39-39z m-144 90c-21.6 0-39 17.4-39 39s17.4 39 39 39 39-17.4 39-39-17.4-39-39-39z m96 0c-21.6 0-39 17.4-39 39s17.4 39 39 39 39-17.4 39-39-17.4-39-39-39z m96 0c-21.6 0-39 17.4-39 39s17.4 39 39 39 39-17.4 39-39-17.4-39-39-39z m-240 89.4c-21.65 0-39 17.4-39 39s17.35 39 39 39c21.6 0 39-17.4 39-39s-17.4-39-39-39z m96 0c-21.6 0-39 17.4-39 39s17.4 39 39 39 39-17.4 39-39-17.4-39-39-39z m96 0c-21.6 0-39 17.4-39 39s17.4 39 39 39 39-17.4 39-39-17.4-39-39-39z m96 0c-21.6 0-39 17.4-39 39s17.4 39 39 39 39-17.4 39-39-17.4-39-39-39zM99.83999999999997 444.84c-21.65 0-39 17.4-39 39s17.35 39 39 39 39-17.4 39-39-17.35-39-39-39z m96 0c-21.6 0-39 17.4-39 39s17.4 39 39 39 39-17.4 39-39-17.4-39-39-39z m96 0c-21.6 0-39 17.4-39 39s17.4 39 39 39 39-17.4 39-39-17.4-39-39-39z m96 0c-21.6 0-39 17.4-39 39s17.4 39 39 39 39-17.4 39-39-17.4-39-39-39z m96 0c-21.6 0-39 17.4-39 39s17.4 39 39 39 39-17.4 39-39-17.4-39-39-39z" /></svg>