<svg xmlns="http://www.w3.org/2000/svg" width="100%" height="100%" viewBox="0 0 583.68 583.68"><path d="M377.63 131.33999999999997L101.37999999999998 202.21899999999997l127.84 58.11 276.025-72.64L377.62899999999996 131.33999999999997z m-1.577 18.984l74.858 33.059-72.551 19.09-77.258-32.916 74.951-19.233z m142.813 52.395L230.70399999999998 278.54999999999995l-3.057 0.805h-0.002l-0.041 0.01-2.857-1.3L80.56999999999996 213.98999999999998l-0.184-0.092c-5.585-2.793-8.012-1.992-10.77 0.11-2.757 2.1-5.515 6.88-6.275 12.956-1.519 12.153 3.616 27.58 23.916 34.346l0.412 0.139L229.17799999999997 324.34l173.235-45.588V248.28999999999996l76-18.345v28.806l42.173-11.097c-4.36-14.037-5.33-29.146-1.72-44.934z m-58.453 50.086l-40 9.656v103.186l21.947-21.948 18.053 12.498V252.80499999999998z m58.453 13.914l-40.453 10.646v45.385l42.173-11.098c-4.36-14.036-5.33-29.145-1.72-44.933zM74.25999999999998 276.10799999999995c-1.803 0.036-3.177 0.782-4.642 1.898-2.758 2.101-5.516 6.88-6.276 12.957-1.519 12.153 3.616 27.579 23.916 34.346l0.412 0.138L229.17799999999997 388.34l173.235-45.588v-45.387l-174.766 45.99-146.62-65.161a61.602 61.602 0 0 1-4.802-1.874 8.317 8.317 0 0 0-1.965-0.212z m6.768 2.086l0.021 0.008-0.279-0.125 0.258 0.117z m437.838 52.525l-40.453 10.646v45.385l42.173-11.097c-4.36-14.037-5.33-29.146-1.72-44.934zM74.25999999999998 340.10799999999995c-1.803 0.036-3.177 0.782-4.642 1.898-2.758 2.101-5.516 6.88-6.276 12.957-1.519 12.153 3.616 27.579 23.916 34.346l0.412 0.138L229.17799999999997 452.34l173.235-45.588v-45.387l-174.766 45.99-146.62-65.161a61.602 61.602 0 0 1-4.802-1.874 8.317 8.317 0 0 0-1.965-0.212z m6.768 2.086l0.021 0.008-0.279-0.125 0.258 0.117z m363.437 24.855l-38.863 38.863 68.834-18.115-29.97-20.748z" /></svg>