<svg xmlns="http://www.w3.org/2000/svg" width="100%" height="100%" viewBox="0 0 583.68 583.68"><path d="M245.83999999999997 60.839999999999975c-10.012 0-19.372 5.32-26.74 15.145C211.73199999999997 85.80799999999998 206.83999999999997 99.98999999999998 206.83999999999997 115.83999999999997c0 15.85 4.892 30.032 12.26 39.855C226.46799999999996 165.51999999999998 235.82799999999997 170.83999999999997 245.83999999999997 170.83999999999997c10.012 0 19.372-5.32 26.74-15.145C279.948 145.87199999999996 284.84 131.68999999999997 284.84 115.83999999999997c0-15.85-4.892-30.032-12.26-39.855C265.212 66.15999999999997 255.85199999999998 60.839999999999975 245.83999999999997 60.839999999999975z m219.746 17.512l-18.701 15.21-22.76-9.206-7.72 15.271 85.86 36.313 16.807-34.532-53.486-23.056z m-5.264 59.392l-54.697 116.153 17.367 7.976L477.53 145.01999999999998l-17.207-7.276zM188.83999999999997 158.35799999999998c-5.86 0.764-11.17 1.81-16 3.086V288.84h146V161.44399999999996c-4.83-1.276-10.14-2.322-16-3.086v59.044l-4.975 2.489c-34.146 17.073-69.904 17.073-104.05 0L188.83999999999997 217.40299999999996v-59.045z m-34 9.982a61.312 61.312 0 0 0-5.008 2.988c-13.003 8.669-19.647 20.236-23.262 34.696-5.902 23.608-2.042 54.157-0.416 82.816H154.83999999999997V168.33999999999997z m182 0V288.84h28.686c1.626-28.659 5.486-59.208-0.416-82.816-3.615-14.46-10.26-26.027-23.262-34.696A61.312 61.312 0 0 0 336.84 168.33999999999997z m-130 0.846v36.793c26.365 11.776 51.635 11.776 78 0v-36.793C274.943 181.02799999999996 261.2 188.83999999999997 245.83999999999997 188.83999999999997s-29.103-7.812-39-19.654z m-16.951 137.058l-0.002 0.002v20.344H100.94899999999997c15.996 38.806 51.26 65.427 88.942 74.28V433.84h58.558c-12.115 30.534-33.527 55.682-58.5 77.592h-25.435v18.72h284.344v-18.72h-27.44c-28.728-21.894-50.024-47.017-61.594-77.594h63.657v-29.156c19.75-6.995 39.5-19.541 59.25-36.719-19.806-17.518-39.235-27.25-59.25-31.937v-29.782H189.88899999999998z" /></svg>