<svg xmlns="http://www.w3.org/2000/svg" width="100%" height="100%" viewBox="0 0 583.68 583.68"><path d="M144.71499999999997 68.52799999999998v56.5H450.86999999999995v-56.5H144.71599999999998z m19.688 75.187c-0.782 5.333-2.006 8.77-3.282 11.063-2.115 3.802-4.57 5.415-8.968 8.562-4.396 3.147-10.553 7.908-14.656 16.22-4.103 8.31-6.28 19.467-6.28 36.28v251.406C131.21499999999997 499.58599999999996 157.49999999999997 525.8399999999999 189.83999999999997 525.8399999999999h213.47c32.338 0 58.592-26.255 58.592-58.594V215.83999999999997c0-17.668-2.004-29.225-5.812-37.813-3.808-8.587-9.777-13.66-14.094-16.812-4.317-3.153-6.54-4.544-8.437-7.906-1.096-1.94-2.172-4.94-2.908-9.595H411.81c0.916 7.868 2.717 13.91 5.467 18.78 4.132 7.32 9.966 11.095 13.688 13.814 3.722 2.718 5.81 4.27 8.03 9.28 2.223 5.01 4.22 14.06 4.22 30.25v251.406c0 22.355-17.55 39.906-39.906 39.906H189.83999999999997c-22.355 0-39.938-17.55-39.938-39.906V215.83999999999997c0-15.155 2.098-23.42 4.376-28.03 2.277-4.614 4.64-6.31 8.75-9.25 4.11-2.943 10.142-7.028 14.406-14.69 2.898-5.206 4.827-11.705 5.78-20.155h-18.81z m184.812 2.28l-173.5 184.095H283.12l-59.218 159.28 195.5-208.936h-117l46.813-134.438z" /></svg>