<svg xmlns="http://www.w3.org/2000/svg" width="100%" height="100%" viewBox="0 0 583.68 583.68"><path d="M480.664 110.56599999999997C449.01 77.56999999999996 322.048 78.52599999999998 220.13799999999998 95.86299999999997l6.463 70.695c59.96-4.478 124.03-3.225 160.113 33.527 34.967 37.816 33.125 101.87 25.757 161.544l70.3 9.868c22.24-100.955 29.322-227.723-2.106-260.932zM199.91699999999997 99.59199999999998c-5.497 1.092-10.92 2.236-16.186 3.42l6.106 66.803c5.36-0.526 10.806-1.05 16.332-1.56l-6.25-68.663zM478.07 391.515l-68.283-9.56c-0.776 5.496-1.562 10.91-2.346 16.24l66.43 9.322c1.44-5.204 2.843-10.564 4.2-16.002zM163.64999999999998 107.90999999999997c-48.305 12.787-81.697 29.542-79.757 47.244 2.445 22.298 38.3 21.037 85.574 16.623L163.64999999999998 107.90999999999997zM468.01 427.34l-63.512-8.896c-6.69 47.005-9.682 82.76 12.472 86.277 17.588 2.794 35.935-29.75 51.04-77.38z" /></svg>