<svg xmlns="http://www.w3.org/2000/svg" width="100%" height="100%" viewBox="0 0 583.68 583.68"><path d="M232.56999999999996 71.06999999999996c-8.132 0.878-16.3 1.936-24.515 3.172C228.80799999999996 86.04999999999998 247.88499999999996 102.63499999999998 259.84 131.83999999999997c-24.896-22.512-44.232-39.5-75.795-53.512-8.808 1.676-17.69 3.562-26.656 5.64 22.69 10.745 49.026 26.094 75.114 51.306-57.456-25.454-81.792-31.066-120.23-39.4C100.16999999999997 99.43799999999997 87.86999999999998 103.33999999999997 75.33999999999997 107.58299999999997c54.813 3.532 103.127 19.644 187.346 47.717l2.015 0.673 1.503 1.504c5.794 5.793 15.356 9.254 25.203 9.353-2.725-39.43-18.787-67.802-58.836-95.76z m118.54 0c-40.05 27.958-56.11 56.33-58.836 95.76 9.847-0.1 19.41-3.56 25.203-9.353l1.502-1.504 2.014-0.672C405.214 127.22999999999998 453.527 111.11699999999998 508.34 107.58499999999998c-12.53-4.243-24.83-8.145-36.934-11.71-38.438 8.334-62.774 13.946-120.23 39.4 26.088-25.212 52.424-40.56 75.115-51.307-8.964-2.077-17.847-3.963-26.655-5.64-31.563 14.014-50.9 31-75.795 53.513 11.954-29.205 31.032-45.79 51.785-57.598-8.216-1.236-16.383-2.294-24.515-3.172zM60.839999999999975 125.12699999999998v301.758c44.68 0.19 106.01 16.813 190 44.498v-301.04C163.87399999999997 141.37399999999997 117.50999999999998 126.54999999999997 60.839999999999975 125.12799999999997z m462 0c-56.67 1.423-103.034 16.246-190 45.217v301.05c84.317-27.698 143.413-42.5 190-44.2V125.12699999999998z m-254 55.195v200.325c15.47 3.1 30.71 3.292 46 0.097V180.32199999999997c-7.227 3.058-15.14 4.518-23 4.518-7.86 0-15.773-1.46-23-4.518z m0 218.627v13.933c15.296 3.488 30.512 3.284 46-0.1V399.06c-15.37 2.728-30.764 2.543-46-0.11z m46 32.185c-15.226 2.856-30.633 3.058-46 0.125v48.838c3.222 3.24 5.775 5.876 8.365 7.56 3.283 2.136 6.77 3.49 14.274 3.19l0.18-0.008h0.18c11.61 0 15.954-4.04 23-10.836v-48.87z" /></svg>