<svg xmlns="http://www.w3.org/2000/svg" width="100%" height="100%" viewBox="0 0 583.68 583.68"><path d="M82.83999999999997 180.83999999999997c-10 0-23 12.4-23 24.9v134.3l52.49 7.5C120.80999999999997 332.84 136.73999999999998 322.84 154.83999999999997 322.84c21 0 39 13.3 45.9 32h188.2c6.9-18.7 24.9-32 45.9-32s39 13.3 45.9 32H523.8399999999999v-77.2L492.34 180.83999999999997z m-9 14h405.6l25.6 82H331.84v64h-98v-64H73.83999999999997z m18 18v46h62v-46z m80 0v46h62v-46z m80 0v110h22V212.83999999999997z m40 0v110h22V212.83999999999997z m40 0v46h62v-46z m86.6 0v46h62.2l-14.4-46zM154.83999999999997 340.84c-17.2 0-31 13.8-31 31s13.8 31 31 31 31-13.8 31-31-13.8-31-31-31z m280 0c-17.2 0-31 13.8-31 31s13.8 31 31 31 31-13.8 31-31-13.8-31-31-31z m-280 23a8 8 0 0 1 8 8 8 8 0 0 1-8 8 8 8 0 0 1-8-8 8 8 0 0 1 8-8z m280 0a8 8 0 0 1 8 8 8 8 0 0 1-8 8 8 8 0 0 1-8-8 8 8 0 0 1 8-8z" /></svg>