<svg xmlns="http://www.w3.org/2000/svg" width="100%" height="100%" viewBox="0 0 583.68 583.68"><path d="M410.84 67.83999999999997v41H136.16599999999997l-49.6 62h410.547l-49.6-62H428.84V67.83999999999997h-18zM121.56699999999998 188.83999999999997L131.83999999999997 199.11299999999997 142.11299999999997 188.83999999999997H121.56699999999998z m64 0L195.83999999999997 199.11299999999997 206.11299999999997 188.83999999999997h-20.546z m64 0L259.84 199.11299999999997 270.11299999999994 188.83999999999997h-20.546z m64 0l11.185 11.186L336.48499999999996 188.83999999999997h-22.918z m64 0L387.84 199.11299999999997 398.113 188.83999999999997h-20.546z m64 0L451.84 199.11299999999997 462.113 188.83999999999997h-20.546zM163.83999999999997 192.56699999999998L144.56699999999998 211.83999999999997 163.83999999999997 231.11299999999997 183.11299999999997 211.83999999999997 163.83999999999997 192.56699999999998z m64 0L208.56699999999998 211.83999999999997 227.83999999999997 231.11299999999997 247.11299999999997 211.83999999999997 227.83999999999997 192.56699999999998z m64 0L272.567 211.83999999999997l19.42 19.422 19.736-18.813L291.84 192.56599999999997z m128 0L400.56699999999995 211.83999999999997 419.84 231.11299999999997 439.113 211.83999999999997 419.84 192.56699999999998z m-62.623 1.377l-19.732 18.814L355.84 231.11299999999997 375.113 211.83999999999997l-17.896-17.896zM108.83999999999997 201.56699999999998v20.546L119.11299999999997 211.83999999999997 108.83999999999997 201.56699999999998z m366 0L464.56699999999995 211.83999999999997 474.84 222.11299999999997v-20.546z m-343 23L121.56699999999998 234.83999999999997h20.546L131.83999999999997 224.56699999999998z m64 0L185.56699999999998 234.83999999999997h20.546L195.83999999999997 224.56699999999998z m64 0L249.56699999999998 234.83999999999997h20.546L259.84 224.56699999999998z m128 0L377.56699999999995 234.83999999999997h20.546L387.84 224.56699999999998z m64 0L441.56699999999995 234.83999999999997h20.546L451.84 224.56699999999998z m-127.387 0.613l-10.13 9.66h19.79l-9.66-9.66zM108.83999999999997 252.83999999999997v126h366V252.83999999999997H108.83999999999997z m23 39h80v32H131.83999999999997v-32z m112 0h96v32h-96v-32z m128 0h80v32h-80v-32zM111.33999999999997 396.84l43.5 58v-30l-21-28H111.33999999999997z m61.5 0v126h23v-71h48v71h167V396.84H172.83999999999997z m277 0l-21 28v30l43.5-58H449.84z m-174 55h32v32h-32v-32z m64 0h32v32h-32v-32z" /></svg>