<svg xmlns="http://www.w3.org/2000/svg" width="100%" height="100%" viewBox="0 0 583.68 583.68"><path d="M282.09299999999996 316.392l71.99 97.834-166.207 48.293z m0.274-37.243L174.71699999999998 132.84599999999998 56.839999999999975 315.66999999999996l107.65 146.3 114.21-177.108z m162.63 9.728l34.46-53.457-38.665 11.226v33.426z m-115.097-2.12l-10.515-4.89-18.56 5.388-7.17 11.126 77.33 105.143 31.99-49.628-20.28-42.88z m45.55-88.33h65.405v27.44l44.9-13.06L378.094 66.40599999999998 190.67 120.85999999999997l107.712 146.39 77.055-22.45v-46.373z m45.45 86.06v-66.105h-25.507v49.49l-13.533-5.1-34.012 10.277 49.89 22.937 104.62 221.287 24.482-7.11z" /></svg>