<svg xmlns="http://www.w3.org/2000/svg" width="100%" height="100%" viewBox="0 0 583.68 583.68"><path d="M190.83999999999997 53.839999999999975L116.30999999999997 74.81999999999996l15.9 55.79L319.34 77.78999999999998 312.64 53.839999999999975z m105.5 48l-131 37 61.1 216.4 130.9-37z m53.3 52.9l-19.4 5.5 24 85 19.5-5.5z m-182.7 51.6l-19.5 5.5 24 85 19.5-5.4z m-30.9 27.6L53.839999999999975 257.14v54.3l96.5-27.4z m287.4 19.7l-55.7 34.7 6.5 24.6 28.4-8 24.4 89.6L206.83999999999997 457.14c-8.4-30-16.9-60-25.3-90l27.3-7.7-6.3-22.7-70.53-3.8L172.83999999999997 372.53999999999996 64.09999999999998 421.44s117.34 4.1 114.34 4.6c-3.1 0.5-31.3 84.4-31.3 84.4l88-45.2 22.9 64.3 70.6-76.4 94.4 49.7-24.7-70.9 113.5-5.6-77.7-53.7 94.6-66.3-113.4 3.5zM389.84 326.53999999999996l-187.3 52.9 15.7 55.9 187.2-52.9z" /></svg>