<svg xmlns="http://www.w3.org/2000/svg" width="100%" height="100%" viewBox="0 0 583.68 583.68"><path d="M53.839999999999975 53.839999999999975v29.75l36.09 31.578c13.506-3.722 27.044-6.596 40.193-8.146L83.58999999999997 53.839999999999975z m89.25 0l34.172 54.676c19.488 4.303 38.114 12.753 55.457 25.668L202.58999999999997 53.839999999999975z m120.656 0l28.092 129.424S313.90799999999996 81.58599999999998 319.93199999999996 53.839999999999975z m117.344 0l-30.13 80.344c17.344-12.915 35.97-21.365 55.458-25.668L440.59 53.839999999999975z m119 0l-46.533 53.182c13.15 1.55 26.687 4.424 40.193 8.146L529.8399999999999 83.58999999999997V53.839999999999975zM154.57599999999996 123.87999999999998c-1.488-0.026-2.997-0.025-4.525 0.003-28.57 0.524-63.666 10.44-96.21 22.7v143.114c2.86-7.516 7.632-14.432 13.44-20.22 7.7-7.675 17.647-13.693 28.706-14.117 0.79-0.03 1.586-0.032 2.387-0.004 0.8 0.028 1.607 0.086 2.418 0.175 7.908 0.875 13.682 5.74 18.136 10.994 4.454 5.252 7.902 11.385 10.74 17.312 5.676 11.853 8.844 23.21 8.844 23.21l-17.326 4.878s-2.89-10.16-7.754-20.315c-2.432-5.078-5.373-10.072-8.233-13.444-2.86-3.372-5.325-4.627-6.382-4.744-5.24-0.58-12.662 2.66-18.83 8.805-6.165 6.145-10.49 14.778-10.98 20.923-1.776 22.332 7.533 36.257 18.413 45.745 5.44 4.743 11.306 8.183 16.06 10.357 2.375 1.087 4.48 1.858 6.012 2.32 1.534 0.462 2.868 0.52 1.875 0.512l-0.146 18c-2.76-0.022-4.48-0.542-6.92-1.277-2.44-0.736-5.233-1.78-8.308-3.186-6.148-2.81-13.41-7.06-20.402-13.16-8.955-7.808-17.41-18.972-21.75-33.386V463.22999999999996c24.102 26.71 51.126 51.064 81.078 61.965 12.463 4.536 28.87 3.676 40.942-2.03 0.215-0.717 0.515-2.225 0.86-4.427 0.74-4.75 2.008-13.206 9.718-18.332 6.447-4.286 12.678-4.82 15.756-5.78-3.493-7.43-10.868-26.54-6.184-48.735 3.417-16.19 15.896-29.056 30.18-35.605 7.14-3.274 14.995-4.98 22.87-3.648 3.937 0.667 7.822 2.23 11.307 4.615 3.25-4.3 6.502-8.302 8.506-11.1l3.62-5.054 4.005 1.594c4.42 1.172 6.194 1.58 6.215 1.703 0.18-0.15 0.412-0.382 0.828-0.793 0.182-0.354 2.685-9.4 0.513-20.692-2.187-11.373-5.665-25.125-15.215-37.41-5.235 0.462-10.274 0.937-14.357 1.643-5.597 0.966-9.288 2.814-9.607 3.125l-12.566-12.887c3.454-3.367 7.37-5.176 11.527-6.354-5.143-1.766-10.087-2.734-15.598-2.49l-0.792-17.983c15.547-0.686 27.433 5.062 39.65 10.902-7.522-7.768-13.75-15.06-19.606-20.476-7.838-7.25-14.08-10.976-23.085-10.95-1.806 0.007-4.95 2.097-9.334 6.88-4.386 4.784-8.75 11.637-17.673 14.957l-6.278-16.87c1.232-0.46 5.672-4.788 10.68-10.25 5.006-5.463 11.842-12.683 22.548-12.716 14.558-0.043 26.002 7.077 35.36 15.732 5.22 4.825 10.085 10.18 15.134 15.62 5.293-23.545 9.614-46.54 8.076-69.415-31.038-64.935-71.1-95.532-115.53-103.06-4.063-0.613-8.346-0.945-12.812-1.026z m274.528 0c-4.466 0.082-8.75 0.414-12.813 1.026-44.428 7.53-84.49 38.126-115.528 103.06-1.538 22.876 2.783 45.87 8.076 69.417 5.05-5.44 9.915-10.796 15.133-15.62 9.36-8.656 20.804-15.776 35.362-15.732 10.706 0.034 17.542 7.254 22.55 12.716 5.006 5.463 9.446 9.79 10.68 10.25l-6.28 16.87c-8.92-3.32-13.286-10.172-17.67-14.956-4.385-4.783-7.53-6.873-9.334-6.88-9.006-0.026-15.248 3.7-23.086 10.95-5.856 5.414-12.084 12.707-19.606 20.475 12.217-5.84 24.103-11.588 39.65-10.902l-0.792 17.982c-5.51-0.243-10.455 0.725-15.598 2.49 4.157 1.18 8.073 2.988 11.527 6.356l-12.566 12.888c-0.32-0.31-4.01-2.158-9.608-3.125-4.084-0.705-9.123-1.18-14.358-1.643-9.55 12.285-13.028 26.037-15.215 37.41-2.172 11.293 0.33 20.338 0.512 20.692 0.415 0.41 0.646 0.642 0.827 0.793 0.02-0.122 1.794-0.53 6.215-1.703l4.006-1.594 3.62 5.053c2.003 2.8 5.255 6.802 8.505 11.102 3.485-2.384 7.37-3.948 11.308-4.615 7.875-1.333 15.73 0.374 22.87 3.648 14.284 6.55 26.763 19.415 30.18 35.606 4.684 22.195-2.69 41.306-6.184 48.735 3.078 0.96 9.31 1.495 15.756 5.78 7.71 5.127 8.978 13.582 9.72 18.333 0.343 2.202 0.643 3.71 0.858 4.428 12.073 5.705 28.48 6.565 40.942 2.03 29.952-10.902 56.976-35.257 81.078-61.965V329.075c-4.34 14.414-12.795 25.578-21.75 33.387-6.993 6.1-14.254 10.35-20.402 13.16-3.075 1.407-5.867 2.45-8.307 3.187-2.44 0.735-4.16 1.255-6.92 1.277l-0.145-18c-0.993 0.008 0.34-0.05 1.875-0.512 1.533-0.462 3.637-1.233 6.013-2.32 4.753-2.174 10.62-5.613 16.06-10.357 10.88-9.488 20.188-23.413 18.41-45.744-0.488-6.145-4.813-14.778-10.98-20.923-6.166-6.146-13.59-9.384-18.828-8.805-1.057 0.117-3.523 1.372-6.382 4.744-2.86 3.372-5.8 8.366-8.233 13.444-4.863 10.155-7.754 20.314-7.754 20.314l-17.326-4.88s3.168-11.355 8.844-23.208c2.838-5.927 6.286-12.06 10.74-17.312 4.454-5.253 10.228-10.12 18.135-10.993 0.81-0.088 1.616-0.146 2.417-0.174 0.8-0.03 1.597-0.027 2.387 0.004 11.06 0.424 21.006 6.443 28.707 14.117 5.808 5.788 10.58 12.705 13.44 20.22V146.58299999999997c-32.544-12.26-67.64-22.175-96.21-22.7-1.53-0.027-3.038-0.028-4.526 0zM243.408 424.20599999999996c-2.844 0.06-6.23 0.844-9.716 2.442-0.61 0.28-1.218 0.587-1.823 0.914l15.636 9.07s2.62-4.082 5.238-8.237c-1.925-2.575-3.95-3.546-6.69-4.01-0.81-0.137-1.698-0.198-2.646-0.178z m96.864 0c-0.948-0.02-1.836 0.04-2.647 0.178-2.738 0.464-4.764 1.435-6.69 4.01 2.62 4.155 5.24 8.238 5.24 8.238l15.636-9.07c-0.604-0.326-1.212-0.634-1.822-0.913-3.485-1.598-6.872-2.382-9.716-2.442zM212.63499999999996 462.96999999999997c0.727 14.314 6.52 25.452 6.945 26.253 4.71-1.988 8.2-3.552 8.26-3.867 0.104-0.54-7.425-11.492-15.205-22.387z m158.41 0c-7.78 10.894-15.31 21.847-15.205 22.386 0.06 0.315 3.55 1.88 8.26 3.867 0.425-0.8 6.218-11.94 6.945-26.254zM53.839999999999975 490.34299999999996V529.8399999999999h49.19C85.11199999999997 519.2819999999999 68.76699999999997 505.40999999999997 53.839999999999975 490.344z m476 0c-14.928 15.066-31.273 28.938-49.19 39.496H529.8399999999999z" /></svg>