<svg xmlns="http://www.w3.org/2000/svg" width="100%" height="100%" viewBox="0 0 583.68 583.68"><path d="M54.02799999999998 58.745999999999974v26.72l55.374 54.03c4.672-5.725 9.81-10.895 15.313-15.47L57.839999999999975 58.74699999999997h-3.813z m323.03 57.875c-33.02 0.364-67.89 19.083-88.468 59.032L280.246 191.83999999999997l-8.28-16.22c-26.002-50.874-67.868-64.366-104.157-53.874C131.51999999999998 132.23999999999998 100.45999999999998 167.73999999999998 99.71399999999997 221.80999999999997c-0.792 57.587 33.99 92.34 73.313 130.686 34.784 33.92 72.897 70.298 85.812 125.313 25.558-33.53 54.225-61.36 81.72-86.658l-77.564-75.406h-0.03v-0.03c-6.18-6.055-8.758-14.43-7.69-21.72 1.07-7.29 4.987-13.397 10-18.03 5.016-4.635 11.31-7.964 18.408-8.876 1.774-0.228 3.61-0.282 5.47-0.125 5.57 0.47 11.283 2.727 15.75 7.094 0.005 0.005 0.024-0.007 0.03 0l77.812 75.655 0.063 0.063 0.03 0.03c0.452 0.453 0.897 0.87 1.344 1.313 0.984-0.926 1.995-1.855 2.97-2.78 43.534-41.35 74.882-79.595 75.655-133.78 0.826-57.986-30.668-89.133-68.22-96.376-4.694-0.906-9.494-1.41-14.344-1.53-1.06-0.028-2.122-0.044-3.187-0.033z m-90.124 168.907c-0.28 0.018-0.565 0.054-0.875 0.094-2.48 0.32-5.677 1.83-8.095 4.064-2.418 2.234-3.896 5.01-4.188 7-0.29 1.978-0.197 3.274 2.22 5.656l0.03 0.03 77.844 75.658 0.033 0.03c27.01 26.466 41.222 44.93 40.906 64.157-0.16 9.614-4.967 18.253-12.033 24.844-3.662 3.415-7.95 6.473-12.78 9.374C413.78 502.45 474.84599999999995 525.5219999999999 527.0899999999999 530.8399999999999c-1.076-50.902-26.66-107.724-55.156-150.97-1.19 2.483-2.446 4.96-3.906 7.314-4.697 7.568-11.49 14.616-21.22 17.25-9.727 2.633-20.91 0.464-33.28-6.188-12.35-6.638-26.502-17.825-43.813-35.125l-0.094-0.092-77.75-75.594H291.84c-1.606-1.574-2.94-2.032-4.906-1.906z" /></svg>