<svg xmlns="http://www.w3.org/2000/svg" width="100%" height="100%" viewBox="-35.84 -35.84 583.68 583.68"><path d="M257.08 11.29l-9.232 1.437-62.868 9.765 3.586 23.08a221.089 221.089 0 00-37.416 16.303l-14.51-18.03-7.28 5.86-49.56 39.89 14.163 17.594A217.583 217.583 0 0069.39 140.3l-20.78-8.046-3.374 8.715-22.976 59.325 20.26 7.846a217.497 217.497 0 00-4.805 41.47l-21.02 3.267 11.2 72.1 20.634-3.206a221.072 221.072 0 0016.74 38.474l-16.165 13.012 45.75 56.84 15.858-12.764a217.626 217.626 0 0034.183 25.104l-7.27 18.773 68.042 26.347 7.266-18.76a217.733 217.733 0 0042.074 4.482l3.115 20.05 72.1-11.2-3.168-20.386a221.037 221.037 0 0038.433-17.205l13.075 16.24 56.84-45.747-13.315-16.543a217.598 217.598 0 0024.394-33.906l20.11 7.787 26.35-68.038-20.63-7.988a217.457 217.457 0 004.133-41.05l22.29-3.462-1.434-9.234-9.765-62.866-22.85 3.55a220.908 220.908 0 00-16.746-37.378l18.103-14.57-5.86-7.28-39.89-49.56-18.28 14.715a217.594 217.594 0 00-32.835-23.868l8.562-22.112-8.713-3.375L309.7 16.88 301.136 39a217.618 217.618 0 00-39.95-4.45c-.166-.004-.33-.002-.494-.005l-3.61-23.252zm-15.598 21.337l3.108 20.008-35.164 5.463-3.11-20.006 35.166-5.465zm78.897 8.43l33.184 12.85-7.312 18.882-33.184-12.853 7.31-18.88zM263.6 53.27c10.2.34 20.456 1.458 30.687 3.406l-5.4 13.94 68.042 26.35 5.402-13.952a199.386 199.386 0 0124.91 18.08l-11.842 9.53 45.75 56.84 12.098-9.735a201.448 201.448 0 0112.787 28.45l-15.443 2.398 11.2 72.1 15.98-2.483a199.283 199.283 0 01-3.174 31.29l-15.395-5.964-3.373 8.714-22.977 59.327 15.975 6.188a199.65 199.65 0 01-18.633 25.97l-10.926-13.575-7.278 5.86-49.56 39.89 11.24 13.964a201.661 201.661 0 01-29.514 13.24l-2.78-17.908-9.235 1.433-62.866 9.766 2.828 18.202a199.35 199.35 0 01-32.328-3.47l6.7-17.3-8.713-3.375-59.327-22.974-6.695 17.29a199.421 199.421 0 01-26.3-19.286l14.302-11.512-5.86-7.28-39.888-49.56-14.02 11.285a201.49 201.49 0 01-12.826-29.53l17.688-2.75-1.436-9.232-9.765-62.867-17.182 2.67a199.388 199.388 0 013.715-31.723l15.826 6.128 26.35-68.04-15.258-5.91a199.348 199.348 0 0118.726-25.24l10.118 12.57 56.84-45.75-9.778-12.147a201.564 201.564 0 0128.465-12.387l2.366 15.234 72.1-11.202-2.324-14.96zM133.8 70.124l12.694 15.772-27.723 22.312-12.694-15.77L133.8 70.122zm283.653 30.648l22.313 27.722-15.774 12.696-22.312-27.72 15.773-12.697zm-84.244 42a70.61 70.61 0 00-5.76.187c-23.033 1.7-45.933 15.003-61.29 44.006l-7.906 14.933-8.445-14.636c-20.227-35.054-56.5-47.824-87.093-41.81-30.592 6.012-55.328 29.383-53.947 72.85 1.278 40.24 29.05 67.447 63.59 97.54 30.045 26.176 64.672 53.784 85.763 93.478 22.093-39.507 57.856-65.95 88.133-91.453 17.386-14.644 33.017-28.982 43.86-44.736 10.846-15.755 17.13-32.66 16.456-54.243-1.262-40.46-26.58-66.478-56.316-73.916a73.02 73.02 0 00-17.047-2.2zM59.286 156.433l18.88 7.31-12.85 33.186-18.88-7.31 12.85-33.186zm412.65 44.636l5.463 35.164-20.01 3.11-5.462-35.164 20.01-3.11zm-413.9 64.3l5.465 35.165-20.006 3.108-5.465-35.163 20.007-3.11zm391.846 42.33l18.88 7.312-12.85 33.185-18.88-7.312 12.85-33.186zM91.156 363.4l22.313 27.723-15.775 12.695-22.312-27.722L91.156 363.4zm305.274 33.02l12.695 15.77-27.723 22.316-12.695-15.774 27.723-22.312zm-227.315 35.23l33.186 12.852-7.31 18.88-33.185-12.85 7.31-18.882zm136.662 14.873l3.11 20.01-35.164 5.463-3.11-20.008 35.164-5.465z"/></svg>