<svg xmlns="http://www.w3.org/2000/svg" width="100%" height="100%" viewBox="0 0 583.68 583.68"><path d="M224.12699999999998 205.26799999999997c-28.644-0.076-60.908 2.228-98.457 8.01-4.432 0.62-47.132 24.977-58.644 41.788-11.512 16.812-15.45 48.813-15.45 48.813-3.108 13.105-1.22 34.766-0.353 36.872 1.17 4.56 7.78 8.387 19.133 11.154C71.67999999999998 330.84799999999996 89.12999999999997 314.44 110.22999999999998 314.414c22.092 0 40 17.91 40 40-0.014 1.764-0.145 3.525-0.392 5.272 0.59 0.008 1.26 0.024 1.82 0.03l239.266 1.99c-0.453-2.405-0.685-4.845-0.693-7.292 0-22.09 17.91-40 40-40 22.092 0 40 17.91 40 40 0 2.668-0.266 5.33-0.796 7.944l62.186 0.517c1.318-22.812 6.86-46.77-7.024-66.72-5.456-7.84-31.93-22.038-99.03-32.66-34.668-17.41-68.503-37.15-105.35-48.462-28.41-5.635-59.26-9.668-96.09-9.765z m-17.197 11.984c5.998 0.044 11.5 0.29 16.014 0.81l7.287 48.352c-41.43-5.093-83.647-9.663-105.964-27.5 0.35-5.5 7.96-13.462 16.506-16.506 4.84-1.724 40.167-5.346 66.158-5.156z m34.625 0.348c25.012 0.264 62.032 2.69 87.502 13.94 12.202 5.65 35.174 18.874 50.537 30.55l-6.35 10.535c-41.706-1.88-97.288-4.203-120.1-6.78l-11.59-48.245zM110.22999999999998 330.414a24 24 0 0 0-24 24 24 24 0 0 0 24 24 24 24 0 0 0 24-24 24 24 0 0 0-24-24z m320 0a24 24 0 0 0-24 24 24 24 0 0 0 24 24 24 24 0 0 0 24-24 24 24 0 0 0-24-24z" /></svg>