<svg xmlns="http://www.w3.org/2000/svg" width="100%" height="100%" viewBox="0 0 583.68 583.68"><path d="M179.83999999999997 67.83999999999997S129.95 105.23999999999998 131.83999999999997 131.83999999999997c1.604 22.57 44.375 25.665 48 48 1.91 11.772-16 32-16 32s48-25.373 48-48-42.8-25.978-48-48c-3.875-16.414 16-48 16-48z m80 0s-49.89 37.4-48 64c1.604 22.57 44.375 25.665 48 48 1.91 11.772-16 32-16 32s48-25.373 48-48-42.8-25.978-48-48c-3.875-16.414 16-48 16-48z m80 0s-49.89 37.4-48 64c1.604 22.57 44.375 25.665 48 48 1.91 11.772-16 32-16 32s48-25.373 48-48-42.8-25.978-48-48c-3.875-16.414 16-48 16-48zM109.13299999999998 236.83999999999997c1.43 63.948 18.943 179.432 74.707 238h152c55.764-58.568 73.278-174.052 74.707-238H109.13299999999998z m319.598 0.445c-0.186 9.152-0.652 19.252-1.472 30.057C455.152 271.00199999999995 476.84 294.98199999999997 476.84 323.84c0 31.374-25.626 57-57 57-4.387 0-8.656-0.517-12.764-1.465-2.912 9.62-6.176 19.165-9.84 28.51C404.44199999999995 409.81 412.01599999999996 410.84 419.84 410.84c48.155 0 87-38.845 87-87 0-45.153-34.153-82.12-78.11-86.555zM78.60299999999998 492.84c1.507 5.193 3.854 11.2 6.955 16.37 2.637 4.394 5.69 8.207 8.428 10.58C96.72199999999998 522.16 98.83999999999997 522.8399999999999 99.83999999999997 522.8399999999999h320c1 0 3.118-0.678 5.855-3.05 2.738-2.373 5.79-6.186 8.428-10.58 3.1-5.17 5.448-11.177 6.955-16.37H78.60199999999998z" /></svg>