<svg xmlns="http://www.w3.org/2000/svg" width="100%" height="100%" viewBox="0 0 583.68 583.68"><path d="M84.74599999999998 55.495999999999974v10.782c0 103.173 10.53 206.07 41.313 289.53 30.78 83.463 82.763 148.094 164.53 170.563l2.188 0.626 2.25-0.5c89.686-19.12 142.322-84.028 171.187-168.344 28.865-84.315 35.406-188.656 35.406-291.875v-10.78l-10.655 1.53C359.09999999999997 75.79399999999998 227.29199999999997 75.83999999999997 95.43499999999997 57.02799999999998l-10.69-1.53zM103.58999999999997 76.86999999999998c63.242 8.536 126.495 12.792 189.75 12.782v184.532h174.78c-4.905 27.572-11.31 53.747-19.592 77.937-27.348 79.884-73.757 137.33-155.157 155.564-0.008-0.003-0.02 0.003-0.03 0v-233.5H122.36999999999998c-12.87-60.99-18.277-128.81-18.78-197.313z" /></svg>