<svg xmlns="http://www.w3.org/2000/svg" width="100%" height="100%" viewBox="0 0 583.68 583.68"><path d="M55.66999999999997 55.439999999999976v14.8L315.44 346.64l20.5-11.4 9.4-16.9L78.70999999999998 55.439999999999976z m140.87 0l25.2 53.3-16.2 4-51-37 43.4 62 34-7.3 26.2 55.5 75.3-43.4c17.6 26.7 32 48.1 46.2 72.7l-21.9 14-69.6-26.1 71.6 57c32-25.5-0.1-0.1 32-25.7l83.5 240.1C397.84 450.94 312.94 425.64 243.43999999999997 400.84c-20.9-13.7-43.2-31.7-60.6-50.4l43.7-18.1L145.33999999999997 203.83999999999997l-24.08 49.3-65.59-92.5v32.3l68.54 96.6 23.23-47.4 51.4 81.4-46.9 19.4c38.6 46.2 90 85.7 137.7 112.2l-137.9-2 15.6-39.6-66.44-33 7.19-30.1 46.55-41.9L104.87999999999998 327.84l-49.21-58.6v29.1l35.54 42.3-11.93 50 64.36 32c-5.8 19.5-15 36.6-25.49 53.7l-44.54-20.9 43.13 56.7 30.2-40.4 130.4 1.9-48.7 17.8 144.7 1.7c56.5 21.1 112.5 33.4 154.7 35.1-1.2-30.4-7.9-68-19.4-107.7l11.4-153.5-22.5 31.3-6.7-161.6 32.1-18.1L506.34 62.839999999999975l-7.2 43.6c-22.9 12.9-44.7 25.27-67.7 38l-49.3-89h-21.4L424.14 169.83999999999997l48.3-26.7 3.2 78.1-16.9-0.4-4.2-49-18.2 59.5 40.4 16.4 3.9 94.8c-37.2-78.9-87.9-144.4-131.1-209.5l2.2-47.2-73.6-11 53.3 28-4.9 22.1-60.1 34.7-49.2-104.2zM387.84 280.03999999999996l-38.1 69-68.9 38.1 164.1 57.1z" /></svg>