<svg xmlns="http://www.w3.org/2000/svg" width="100%" height="100%" viewBox="0 0 583.68 583.68"><path d="M192.53999999999996 61.66999999999997L124.83999999999997 75.21999999999997c-0.1 58.57-1.74 119.32-43.49 167.22C140.23999999999998 282.34 224.83999999999997 296.53999999999996 282.84 284.64v-99L144.14 124.05999999999997l7.4-16.44L291.84 170.03999999999996l140.3-62.42 7.4 16.44L300.84 185.64v99c58 11.9 142.6-2.3 201.5-42.2-41.8-47.9-43.4-108.65-43.5-167.22l-67.7-13.55c-12.9 13.88-20.6 28.15-32.9 40.53C344.73999999999995 115.61999999999998 325.34 124.83999999999997 291.84 124.83999999999997c-33.5 0-52.9-9.22-66.4-22.64-12.3-12.38-20-26.65-32.9-40.53zM89.71999999999997 268.74C111.79999999999997 316.84 131.90999999999997 372.44 138.53999999999996 428.64l65 22.8c4.2-52.7 28.2-104 63.7-146.1-55.1 6.3-122.7-5.8-177.52-36.6z m404.22 0c-54.8 30.8-122.4 42.9-177.5 36.6 35.5 42.1 59.5 93.4 63.7 146.1l65.2-22.9c6.6-56.8 26.6-111.8 48.6-159.8zM291.84 304.84c-40.5 43.1-67.7 97.9-70.7 152.7l61.7 21.6V371.84h18v107.3l61.7-21.6c-3.1-54.8-30.2-109.6-70.7-152.7z m151.7 143.4L332.84 486.94v18.8l110.2-44.1c0.1-4.5 0.3-8.9 0.5-13.4z m-303.3 0.1c0.3 4.5 0.4 8.9 0.5 13.4l110.1 44v-18.7l-110.6-38.7zM314.84 493.23999999999995l-23 8.1-23-8v19.6l23 9.2 23-9.2v-19.7z" /></svg>