<svg xmlns="http://www.w3.org/2000/svg" width="100%" height="100%" viewBox="0 0 583.68 583.68"><path d="M231.77799999999996 56.27799999999998C132.43999999999997 57.309999999999974 30.322999999999976 200.50699999999998 65.65299999999998 494.77799999999996c7.368-370.195 187-461.348 252.875-248.782-0.724 0.372-1.448 0.762-2.157 1.156l-80.78-58L283.84 282.02799999999996c-2.173 4.416-3.97 9.074-5.438 13.907L156.05999999999997 291.12l119.06 47.814c0.304 2.26 0.674 4.534 1.126 6.812 0.383 1.928 0.837 3.83 1.313 5.72l-76.44 85.25L303.99699999999996 400.84c0.916 1.003 1.864 1.974 2.813 2.938l-16.97 116 72.97-87.313c4.53 0.546 9.093 0.754 13.717 0.53l78.094 97.595-25.592-122.375c1.513-1.67 2.965-3.387 4.343-5.188l101.095-4.03-82.813-46.75c0.43-7.072 0.143-14.343-0.937-21.72l78.063-67.968-94.344 23.75c-2.162-3.464-4.484-6.8-6.97-9.97l30.938-91.063-66.937 61.532c-1.885-0.926-3.785-1.803-5.72-2.595C364.29999999999995 120.60199999999998 300.078 57.077999999999975 234.12199999999999 56.27699999999997c-0.78-0.01-1.56-0.008-2.343 0zM351.84 256.43399999999997c0.584-0.012 1.168-0.005 1.75 0 21.907 0.178 43.736 12.245 59 31.47l-45.938 25.53-13.187-16.625-5.47-6.908-7.217 5.063-47.907 33.78c-2.07-38.124 20.407-68.303 53.72-71.967 1.74-0.192 3.498-0.31 5.25-0.344z m70.906 47.22c3.957 7.708 6.95 16.112 8.72 25.03 1.7 8.574 2.16 16.875 1.562 24.72l-39.72-6.345-0.593-0.75-14.28-18.033 44.31-24.625z m-78.437 11.686l29.967 37.844-28.843 55.03c-22.418-10.077-41.54-31.73-49.156-59l48.03-33.874z m44.717 49.97l40.407 6.467c-7.628 23.216-26 39.61-50 42.25-5.258 0.58-10.54 0.418-15.78-0.375l25.373-48.343z" /></svg>