<svg xmlns="http://www.w3.org/2000/svg" width="100%" height="100%" viewBox="0 0 583.68 583.68"><path d="M472.746 57.059999999999974c-8.032 0.064-17.54 1.217-28.625 3.718 65.616 3.342 39.668 48.252 1.22 68.28-30.932 7.564-54.88 22.71-66.5 38.376-2.99 4.032-5.277 8.21-6.22 12.97-0.53 2.684-0.515 5.703 0.22 8.592-6.823 3.036-12.114 7.732-15.156 13.656-9.608 18.713 2.705 45.254 44.687 44.375-34.522-5.522-29.87-50.62 11.876-38.625l0.03-0.093c1.246 0.472 2.52 0.912 3.845 1.343 45.603 14.805 58.067 43.665 54.876 61.468-1.595 8.903-6.564 15.18-14.594 17.97-8.03 2.79-20.23 2.052-36.28-7.438v0.032c-8.874-5.603-18.476-9.237-28.25-10.53-12.003-1.59-24.365 0.628-35.032 6.967l-0.125-0.155c-38.065 24.243-55.985-19.317-23.22-34.97-42.085 11.47-39.62 37.586-24.53 53.407 4.892 5.124 10.563 8.736 17.063 10.282-36.324 28.3-79.572 37.478-107.438 30.187-14.514-3.796-24.514-11.35-29.438-22.655-4.053-9.307-4.848-22.003 0.22-38.656 1.896 3.908 4.593 7.465 7.968 10.686 15.818 15.086 41.93 17.587 53.406-24.5-15.655 32.763-59.243 14.81-35-23.25l-0.03-0.03c4.996-4.574 10.544-9.182 16.718-13.782 10.74-8.004 18.083-17.94 22.25-28.72 2.012 1.835 4.17 3.4 6.437 4.69 9.027 5.12 19.622 5.314 28.47 1.467 17.667-7.68 28.613-29.98 22.625-56.593-0.01-0.04-0.022-0.083-0.03-0.124-5.912-43.874 40.72-42.28 41.655-6.126 5.23-33.76-8.847-46.27-25.094-46.624-0.568-0.013-1.145-0.018-1.72 0-4.01 0.12-8.11 0.97-12.06 2.374-17.992 6.408-29.057 23.388-21 54.532 4.526 19.948-3.854 31.975-11.813 35.436-3.98 1.73-7.777 1.697-11.813-0.594-4.036-2.29-8.63-7.37-11.813-17.312h-0.03c-1.884-19.53-11.59-38.89-26.188-55.813-25.823-29.93-67.592-52.936-113.5-53-1.482-0.002-2.98 0.017-4.47 0.063-6.807 0.21-13.724 0.936-20.656 2.22-13.555 2.508-24.055 7.9-31.032 15.5-6.976 7.596-10.06 17.516-8.687 26.905 2.748 18.778 21.662 33.518 48.625 34.563v-0.094c41.574 6.197 28.145 49.054-6 40.844 39.224 17.305 53.466-4.186 51.75-25.594C148.84299999999996 134.05599999999998 136.35999999999996 120.29799999999997 105.30999999999997 118.83999999999997c-20.802-0.806-29.742-10.816-30.876-18.563-0.567-3.873 0.413-7.656 4-11.562 3.586-3.906 10.122-7.83 20.656-9.78 30.994-5.738 61.606 1.86 86.5 16.25-5.135 1.856-9.706 5.045-13.75 9.28-15.09 15.822-17.59 41.935 24.5 53.406-32.767-15.65-14.846-59.21 23.22-34.968l0.03-0.03c0.184 0.21 0.38 0.413 0.563 0.624 13.186 15.286 20.987 32.277 21.906 47.25 0.917 14.973-4.115 27.985-18.814 38.938-27.91 20.8-45.612 42.505-54.562 63.47-7.02 13.366-14.7 18.375-21.53 19.75-7.01 1.407-14.38-1.003-20.72-6.345-6.34-5.343-11.104-13.51-12.25-21.657-1.146-8.15 0.727-16.13 8.25-23.75l-0.063-0.063c16.246-17.097 28.458-11.82 25.907 16.625 15.532-26.902 2.804-42.35-13.843-42.344-8.604 0.004-18.237 4.128-25.563 12.94-11.183 11.493-15.03 26.1-13.186 39.218 1.092 7.766 3.983 15.04 8.156 21.406-14.864 3.695-24.072 15.795-27.28 29-5.74 23.643 6.367 50.204 53.31 37.844-40.282 3.147-45.326-60.28 2.564-45.188l0.03-0.094c5.846 1.6 12.07 1.987 18.376 0.72 3.726-0.75 7.375-2.075 10.906-3.97 0.655 20.03 10.09 37.605 25.438 48.875 8.294 6.09 18.098 10.423 29 12.75 28.34 10.235 37.578 33.04 34.125 52.69-3.65 20.763-20.855 38.536-55.064 33.717v-0.03c-45.96-10.195-27.063-55.586 8.656-42.97-12.347-7.056-22.527-9.82-30.718-9.625-18.022 0.428-26.378 15.295-26.75 30.97-0.39 16.733 7.874 30.675 30.062 37.593 33.648 23.994-11.885 60.06-37.22 30.438 24.93 42.746 52.786 32.332 65.69 11.156 6.8-11.167 9.034-25.468 2.5-38.283 11.814-0.413 22.282-3.384 31.093-8.218 0.79 12.907 7.522 21.706 17.78 27.31 18.752 10.243 44.032 5.985 44.22-36.655-6.485 34.86-52.068 29.015-38.94-12.938 3.5-5.966 5.905-12.478 7.095-19.25 3.327-18.93-2.59-39.604-17.563-55.125 18.313-2.714 38.102-10.17 58.125-23.125 0.013 0.438 0.004 0.878 0.032 1.313 0.87 13.752 8.91 25.195 19.436 32.53 10.525 7.337 23.78 11.064 37.03 9.44 13.254-1.627 26.493-9.203 34.69-23.19l-0.095-0.06c12.408-20.99 2.617-45.45-15.28-44.783-7.3 0.273-15.954 4.732-24.97 15.313 26.82-12.334 35.98-1.915 24.376 20.156l-0.156-0.094c-5.414 9.24-12.676 13.092-20.844 14.094-8.168 1.002-17.262-1.447-24.062-6.187-6.8-4.74-11.048-11.274-11.5-18.408-0.396-6.242 1.856-13.876 10.344-22.78 0.03-0.032 0.064-0.063 0.093-0.094 2.884-2.667 5.762-5.46 8.626-8.375 22.778-17.49 48.374-15.892 68.688-2.438 18.207 12.06 31.616 33.958 32 61.72-0.846 15.68-5.114 33.148-14.125 52.124l-0.095-0.064c-25.81 39.867-90.637 65.517-75.22-6.5-42.27 80.47 23.97 85.655 71.22 33.594-41.535 69.815 9.265 100.4 48.156 59.156-38.243 16.99-51.414-20.927-30.967-70.594h0.03c4.744-9.025 8.524-17.868 11.47-26.5l0.25 0.094c20.84-40.023 58.14-11.25 37.593 18.688 30.71-30.977 15.506-52.346-5.47-58.5-8.32-2.436-16.504-2.296-24.155 1.28 0.027-1.988-0.01-3.956-0.092-5.905v-0.158c0.444-24.372-6.092-45.647-16.782-62.25 5.33-0.002 10.372-0.817 15.03-2.437 14.478-5.032 24.225-17.692 26.845-32.313 0.413-2.3 0.667-4.654 0.75-7.03 0.002-0.02 0-0.043 0-0.063 6.647-22.772 24.25-23.93 36.533 2.56-0.003-35.37-25.383-40.707-41.75-27.936-8.972-20.076-29.596-39.217-63-50.063-10.21-3.313-14.798-7.486-16.438-10.405-1.64-2.92-1.608-5.352 0.375-9.313 3.876-7.74 17.467-17.59 32.563-19.968 0.158-0.023 0.31-0.04 0.468-0.063 54.322-7.65 88.576 15.056 61.97 47.97 49.906-26.893 33.498-83.894-44.688-61.844 54.705-28.146 70.82-81.647 14.594-81.187z" /></svg>