<svg xmlns="http://www.w3.org/2000/svg" width="100%" height="100%" viewBox="0 0 583.68 583.68"><path d="M147.83999999999997 60.839999999999975c-13 0-27.05 6.78-37.64 17.36C99.61999999999998 88.78999999999998 92.83999999999997 102.83999999999997 92.83999999999997 115.83999999999997v192c0 13 6.78 27.1 17.36 37.6C120.78999999999998 356.03999999999996 134.83999999999997 362.84 147.83999999999997 362.84h311v-30H163.83999999999997c-11 0-20.9-5.2-28.36-12.6C128.05999999999997 312.73999999999995 122.83999999999997 302.84 122.83999999999997 291.84V131.93999999999997c0-11.03 5.21-21.01 12.63-28.45C142.83999999999997 96.05999999999997 152.83999999999997 90.83999999999997 163.83999999999997 90.83999999999997h295V73.39999999999998L433.73999999999995 60.839999999999975H147.83999999999997z m217 48v14h62V108.83999999999997h-62z m-18.5 32l-10 30h119l-10-30h-99z m-10 112l10 30h99l10-30h-119z m28.5 48v14h62v-14h-62z m0 80v30h62v-30h-62z m-73 32c-2.6 0-5.9 1.8-9.3 7.3-3.3 5.6-5.7 14.1-5.7 23.7s2.4 18.1 5.7 23.7c3.4 5.5 6.7 7.3 9.3 7.3 2.6 0 5.9-1.8 9.3-7.3 3.3-5.6 5.7-14.1 5.7-23.7s-2.4-18.1-5.7-23.7c-3.4-5.5-6.7-7.3-9.3-7.3z m208 0c-2.6 0-5.9 1.8-9.3 7.3-3.3 5.6-5.7 14.1-5.7 23.7s2.4 18.1 5.7 23.7c3.4 5.5 6.7 7.3 9.3 7.3 2.6 0 5.9-1.8 9.3-7.3 3.3-5.6 5.7-14.1 5.7-23.7s-2.4-18.1-5.7-23.7c-3.4-5.5-6.7-7.3-9.3-7.3z m-175.8 20c0.5 3.5 0.8 7.2 0.8 11 0 3.1-0.2 6.1-0.5 9h143c-0.3-2.9-0.5-5.9-0.5-9 0-3.8 0.3-7.5 0.8-11H324.03999999999996z m56.8 38v36h30v-36h-30z" /></svg>