<svg xmlns="http://www.w3.org/2000/svg" width="100%" height="100%" viewBox="0 0 583.68 583.68"><path d="M96.64999999999998 512.75h300v-60h-300v60z m233.79-347.3l13.94 7.39c31.88-43.62 61.34-31.85 61.34-31.85l-21.62 53 35.64 19 2.87 33 64.42 108.75-43.55 29.37s-26.82-36.39-39.65-43.66c-10.66-6-41.22-10.25-56.17-12l-67.54-76.91-12 10.56 37.15 42.31c-0.13 0.18-0.25 0.37-0.38 0.57-35.78 58.17 23 105.69 68.49 131.78H119.97999999999998C128.83999999999997 120.83999999999997 330.44 165.45 330.44 165.45z" /></svg>