<svg xmlns="http://www.w3.org/2000/svg" width="100%" height="100%" viewBox="0 0 583.68 583.68"><path d="M291.84 56.839999999999975A235 235 0 0 0 56.839999999999975 291.84a235 235 0 0 0 235 235 235 235 0 0 0 235-235A235 235 0 0 0 291.84 56.839999999999975z m0 82c84.393 0 153 68.607 153 153s-68.607 153-153 153-153-68.607-153-153 68.607-153 153-153z m0 18c-20.417 0-39.757 4.52-57.09 12.602C246.29699999999997 202.32199999999997 266.058 243.83999999999997 291.84 243.83999999999997c25.823 0 44.926-41.65 56.752-74.555C331.34499999999997 161.30199999999996 312.12399999999997 156.83999999999997 291.84 156.83999999999997z m98.752 42.88c-27.714 21.143-61.142 52.79-53.17 77.327 7.981 24.564 53.508 29.858 88.459 30.936 0.628-5.294 0.959-10.678 0.959-16.143 0-35.642-13.755-68.012-36.248-92.12z m-197.729 0.243C170.503 224.04399999999998 156.83999999999997 256.317 156.83999999999997 291.84c0 5.55 0.34 11.018 0.988 16.39 34.833-0.825 80.381-6.793 88.344-31.3 7.974-24.542-25.68-55.553-53.309-76.967z m70.188 43.643a9 9 0 0 0-5.035 1.714 9 9 0 0 0-1.99 12.57 9 9 0 0 0 12.57 1.993 9 9 0 0 0 1.992-12.572 9 9 0 0 0-7.537-3.705z m57.578 0a9 9 0 0 0-0.637 0.004 9 9 0 0 0-6.9 3.7 9 9 0 0 0 1.992 12.573 9 9 0 0 0 12.57-1.992 9 9 0 0 0-1.99-12.57 9 9 0 0 0-5.035-1.715zM291.84 259.84a32 32 0 0 0-32 32 32 32 0 0 0 32 32 32 32 0 0 0 32-32 32 32 0 0 0-32-32z m-46.297 38.037a9 9 0 0 0-2.652 0.44 9 9 0 0 0-5.78 11.341 9 9 0 0 0 11.34 5.778 9 9 0 0 0 5.78-11.34 9 9 0 0 0-8.688-6.219z m92.856 0.008a9 9 0 0 0-8.95 6.21 9 9 0 0 0 5.78 11.34 9 9 0 0 0 11.34-5.777 9 9 0 0 0-5.78-11.341 9 9 0 0 0-2.39-0.432z m-92.143 27.713c-21.59 0.104-50.24 16.832-72.424 31.928 19.029 34.168 52.46 59.164 92.143 66.837 9.99-33.39 18.42-78.618-2.446-93.777-4.854-3.527-10.737-5.02-17.273-4.988z m91.016 0.02c-6.58 0-12.492 1.516-17.346 5.042-20.895 15.181-11.863 60.106-2.088 93.678 39.687-7.715 73.108-32.76 92.1-66.973-22.006-15.224-50.935-31.747-72.666-31.748zM291.84 331.41999999999996a9 9 0 0 0-9 9 9 9 0 0 0 9 9 9 9 0 0 0 9-9 9 9 0 0 0-9-9z" /></svg>