<svg xmlns="http://www.w3.org/2000/svg" width="100%" height="100%" viewBox="0 0 583.68 583.68"><path d="M329.164 56.577999999999975l-5.256 162.94L177.31799999999998 96.28999999999998l47.157 112.16L103.69999999999997 127.28599999999997 225.20999999999998 257.47999999999996 57.00999999999998 194.40699999999998 210.60999999999999 340.40999999999997l-113.885 2.92 160.02 77.09-127.9 14.602L232.74999999999997 471.65l-39.666 10.676 124.395 30.37-36.208 20.44h244.12v-91.835l-74.345-188.675 74.346 107.865v-44.025l-20.112-154.42-17.323 84.563L438.96 91.03299999999997 413.16999999999996 176.83999999999997 379.135 71.75999999999998l6.68 106.877-56.65-122.06z m12.133 116.823l73.764 121.56 15.376-30.233 38.836 141.656-73.946-103.967 9.682 76.022-77.018-20.64 102.518 91.044-33.8 6.584 93.515 53.76-202.012-61.412 64.49-21.9-113.56-57.97 74.012 13.08L192.08999999999997 278.02l126.86 37.164-19.96-60.555 69.795 44.25-27.488-125.48z" /></svg>