<svg xmlns="http://www.w3.org/2000/svg" width="100%" height="100%" viewBox="0 0 583.68 583.68"><path d="M251.80999999999997 63.65299999999998c-2.218 0.04-4.35 0.177-6.407 0.375l-0.532 0.062c-2.774 0.266-5.796 1.01-9.124 1.844-4.418 1.11-8.096 2.607-11.125 4.406l77.782 59.313 7.375 5.656-5.593 7.405-13.72 18.156 67.595 51.626 14.217-18.812 9.47-12.53 6.5 14.342 19.656 43.47 60.593-80.095-47.187-7.124-15.533-2.312 9.47-12.563 14.28-18.843-67.593-51.624L346.61999999999995 86.61999999999998l-5.03 6.657-7.188-4.25c-28.635-16.917-58.02-25.157-80.343-25.374-0.757-0.008-1.512-0.014-2.25 0zM488.84 162.96399999999997l-71.47 94.438 34.564 26.187c44.24-20.22 64.01-52.594 71.312-94.625l-34.406-26z m-193.688 25.03c-27.17 33.09-55.308 64.706-82.812 96.22l47.406 39.875c23.11-35.343 46.336-71.61 71.938-108.22l-36.53-27.874zM200.08999999999997 298.31c-11.355 13.115-22.564 26.254-33.5 39.5l48.375 52.717c11.707-16.6 23.107-33.515 34.438-50.687l-49.313-41.53z m-45.438 54.124c-7.884 9.808-15.59 19.71-23.093 29.72l33.468 73.842c13.586-16.22 26.434-32.893 38.843-49.937l-49.218-53.626z m-35.75 47.03c-12.108 16.978-23.57 34.335-34.124 52.282L134.36999999999998 490.31c5.882-6.166 11.622-12.4 17.22-18.72l-32.688-72.125z m-43.437 68.688c-5.185 9.492-10.105 19.145-14.75 29l37.375 28.313c7.976-7.11 15.672-14.348 23.125-21.72l-45.75-35.592z" /></svg>