<svg xmlns="http://www.w3.org/2000/svg" width="100%" height="100%" viewBox="0 0 583.68 583.68"><path d="M291.84 67.83999999999997c-35.999 0-82.121 10.125-115.59 33.22C188.48599999999996 124.46799999999998 208.15699999999998 144.15799999999996 227.83999999999997 163.83999999999997c-35.39 0-60.98-14.69-79.506-35.928C138.04399999999998 142.30199999999996 131.83999999999997 159.51999999999998 131.83999999999997 179.83999999999997c0 24.317 0.004 76.342 14.045 99.928C137.707 290.962 131.83999999999997 304.46799999999996 131.83999999999997 323.84c0 10.91 14.886 36.693 34.5 51.996L179.83999999999997 483.84c0 12.836 41.19 35.954 82.266 44.602L291.84 483.84l29.734 44.602C362.65 519.794 403.84 496.676 403.84 483.84l13.691-109.527C437.90999999999997 358.873 451.84 334.395 451.84 323.84c0-19.372-5.867-32.878-14.045-44.072C451.83599999999996 256.182 451.84 204.15699999999998 451.84 179.83999999999997c0-20.321-6.204-37.539-16.494-51.928C416.82 149.14999999999998 391.22999999999996 163.83999999999997 355.84 163.83999999999997c19.683-19.683 39.354-39.373 51.59-62.78C373.96 77.96599999999998 327.839 67.83999999999997 291.84 67.83999999999997z m0 16a48 24 90 0 1 24 48 48 24 90 0 1-24 48 48 24 90 0 1-24-48 48 24 90 0 1 24-48z m-71.787 104.72c0.787 0.001 1.577 0.013 2.367 0.038 22.134 0.682 45.34 10.898 60.908 34.25l-14.976 9.984c-14.208-21.312-34.44-27.78-53.698-26.03-19.257 1.752-36.643 12.82-42.765 25.063l-16.098-8.05c9.878-19.757 32.492-32.689 57.235-34.938a77.206 77.206 0 0 1 7.027-0.316z m143.574 0a77.253 77.253 0 0 1 7.027 0.317c24.743 2.25 47.357 15.181 57.235 34.938l-16.098 8.05c-6.122-12.243-23.508-23.311-42.765-25.062-19.258-1.75-39.49 4.717-53.698 26.03l-14.976-9.985c15.568-23.352 38.774-33.568 60.908-34.25a77.99 77.99 0 0 1 2.367-0.037zM219.83999999999997 227.83999999999997a56 48 0 0 1 56 48 56 48 0 0 1-56 48 56 48 0 0 1-56-48 56 48 0 0 1 56-48z m144 0a56 48 0 0 1 56 48 56 48 0 0 1-56 48 56 48 0 0 1-56-48 56 48 0 0 1 56-48z m-144.688 9.654c-5.775 11.55-8.207 16.432-7.312 22.346-3.549-4.815-8.722-6.545-20.973-10.629 4.084 12.251 5.816 17.422 10.631 20.97-5.914-0.894-10.795 1.538-22.345 7.313 11.55 5.775 16.431 8.206 22.345 7.31-4.815 3.55-6.547 8.722-10.63 20.974 12.25-4.084 17.423-5.814 20.972-10.63-0.895 5.914 1.537 10.796 7.313 22.346 5.775-11.55 8.205-16.432 7.31-22.345 3.549 4.815 8.722 6.545 20.973 10.628-4.084-12.25-5.816-17.423-10.631-20.972 5.914 0.895 10.797-1.536 22.347-7.31-11.55-5.776-16.433-8.208-22.347-7.313 4.815-3.549 6.547-8.72 10.63-20.97-12.25 4.083-17.423 5.813-20.972 10.628 0.895-5.914-1.535-10.795-7.31-22.346z m145.375 0c-5.775 11.55-8.205 16.432-7.31 22.346-3.549-4.815-8.722-6.545-20.973-10.629 4.084 12.251 5.816 17.422 10.631 20.97-5.914-0.894-10.797 1.538-22.348 7.313 11.55 5.775 16.434 8.206 22.348 7.31-4.815 3.55-6.547 8.722-10.63 20.974 12.25-4.084 17.423-5.814 20.972-10.63-0.895 5.914 1.535 10.796 7.31 22.346 5.776-11.55 8.208-16.432 7.313-22.345 3.549 4.815 8.722 6.545 20.973 10.628-4.084-12.25-5.816-17.423-10.631-20.972 5.914 0.895 10.795-1.536 22.346-7.31-11.55-5.776-16.432-8.208-22.346-7.313 4.815-3.549 6.547-8.72 10.63-20.97-12.25 4.083-17.423 5.813-20.972 10.628 0.895-5.914-1.537-10.795-7.313-22.346zM283.84 297.84v64h-32l32-64z m16 0l32 64h-32v-64z m-8 75c13.505 0 25.069 5.325 35.455 9.57 10.386 4.246 19.411 7.38 27.563 6.485 2.823-0.31 10.763-3.706 16.863-7.297 6.1-3.591 10.814-7.028 10.814-7.028l10.61 14.54s-5.357 3.914-12.293 7.998c-6.937 4.083-14.999 8.686-24.03 9.677-13.707 1.505-25.686-3.36-36.337-7.715-10.652-4.354-20.16-8.23-28.645-8.23s-17.993 3.876-28.645 8.23c-10.651 4.355-22.63 9.22-36.337 7.715-9.031-0.991-17.094-5.594-24.03-9.677-6.936-4.084-12.293-7.998-12.293-7.998l10.61-14.54s4.714 3.437 10.814 7.028c6.1 3.591 14.04 6.987 16.863 7.297 8.152 0.894 17.177-2.239 27.563-6.485C266.77 378.16499999999996 278.335 372.84 291.84 372.84z m-73 43h18v13h14v-13h18v13h14v-13h18v13h14v-13h18v13h14v-13h18v13h13v18h-13v17h-18v-17h-14v17h-18v-17h-14v17h-18v-17h-14v17h-18v-17h-14v17h-18v-17h-13v-18h13v-13z" /></svg>