<svg xmlns="http://www.w3.org/2000/svg" width="100%" height="100%" viewBox="0 0 583.68 583.68"><path d="M268.93999999999994 77.24999999999997c-21.8 0.1-43.2 5.41-61 17.32-19.1 12.7-34.5 32.86-42.5 63.97-26.1 101.5 19.3 208.4 43.2 314.7 64.6 15 126 11.7 185.3-5.5 17.2-26.3 38.4-52.3 56.3-77.5 18.5-26.2 33.2-51.6 36.9-74.1 1.8-10.8 0.1-24.5-5.8-32.7-5.9-8.2-15-13.4-36.1-8.1-6.9 1.8-15.5 10.3-24 24.5s-17 33.1-26.3 52.4l-17.1-4.5c4.6-69.1 26.7-152.1-0.4-215.52C365.84 104.60999999999997 319.84 78.56999999999996 273.34 77.29999999999998c-1.5-0.04-2.9-0.06-4.4-0.05zM161.53999999999996 420.03999999999996c-1 0-2 0.1-3 0.1-12 0.5-24.24 3.1-35.56 7.5-15.09 5.7-28.65 14.4-37.23 26.4-8.57 11.9-11.16 28.2-3.32 43.3l0.45 0.9 0.65 0.8c9.41 11.2 24.41 14.2 39.51 13.3 15.1-0.8 31.2-5.4 45.9-12 8.9-4 17.2-8.7 24.3-13.9l-0.8-3.7c-1.2-5.3-2.4-10.6-3.7-16-6.5 6-16.3 12.3-27.2 17.2-12.9 5.8-27.44 9.8-39.48 10.5-11.5 0.6-19.75-1.9-24.06-6.4-4.35-9.2-3-16 2.38-23.5 5.59-7.8 16.35-15.3 29.03-20.1 9.53-3.7 20.03-5.9 29.93-6.3 3.3-0.1 6.5-0.1 9.6 0.2 4.9 0.4 9.4 1.4 13.4 2.8-1.8-6.6-3.5-13.2-5.4-19.9-2.1-0.3-4.3-0.6-6.5-0.8-2.9-0.3-5.9-0.4-8.9-0.4z" /></svg>