<svg xmlns="http://www.w3.org/2000/svg" width="100%" height="100%" viewBox="0 0 583.68 583.68"><path d="M262.717 56.25599999999997c-18.832 0-37.66 2.584-55.922 7.72-28.518 5.13-56 17.362-79.572 36.71L65.04299999999998 64.50999999999998 101.34999999999998 126.91799999999998c-16.078 20.147-27.035 43.04-32.88 66.938C43.119999999999976 266.17999999999995 59.35299999999998 349.834 117.16999999999997 407.65c52.018 52.02 124.946 70.363 191.723 55.06l69.315 65.65-20.04-83.825c12.878-6.742 25.186-14.95 36.693-24.603L534.69 534.1659999999999 420.465 394.342c9.778-11.64 18.07-24.105 24.867-37.148l83.112 19.87-65.125-68.76c15.314-66.787-3.026-139.73-55.052-191.76-17.117-17.116-36.504-30.574-57.186-40.4l0.688-1.27-1.565 0.85c-27.637-12.973-57.56-19.468-87.488-19.468zM237.90999999999997 79.74799999999998c24.817 0 49.633 5.904 72.186 17.703l-97.574 52.86-67.93-39.52C172.19699999999997 90.10299999999998 205.04999999999998 79.74999999999997 237.90999999999997 79.74999999999997z m94.09 31.623c5.63 4.275 11.043 8.972 16.184 14.113 54.775 54.776 60.34 139.89 16.715 200.84l-89.796-109.92L332 111.36999999999998zM111.50799999999998 144.38399999999996l39.793 68.4L99.67999999999998 308.08C72.53999999999998 256.34 76.48799999999997 192.65399999999997 111.50799999999998 144.38299999999998z m104.77 129.66l110.26 90.076c-60.798 42.13-144.68 36.112-198.88-18.07l-0.02-0.017v-0.002c-5.17-5.17-9.892-10.617-14.187-16.284l102.828-55.703z" /></svg>