<svg xmlns="http://www.w3.org/2000/svg" width="100%" height="100%" viewBox="0 0 583.68 583.68"><path d="M115.83999999999997 58.839999999999975v18h23v14h18V76.83999999999997h23V58.839999999999975z m-8.2 50L78.21999999999997 314.84H170.83999999999997V180.33999999999997H131.33999999999997v-49H170.83999999999997V108.83999999999997zM220.83999999999997 172.83999999999997v46h78v-46z m96 0v46h78v-46z m96 0v46h78v-46z m-192 64v46h78v-46z m96 0v46h78v-46z m96 0v46h78v-46z m-192 64v46h78v-46z m96 0v46h19.3l32-32H394.84v-14z m96 0v14h78v-14zM63.059999999999974 332.84l24.11 108.5C112.58999999999997 433.94 141.53999999999996 426.84 163.83999999999997 426.84c24.2 0 46.2 8.6 67.2 16.6 21 8 41 15.4 60.8 15.4 19.8 0 39.8-7.4 60.8-15.4 19-7.2 38.9-15 60.5-16.4l-44.1-14.7 5.6-17 36.2 12V380.84h-17v-18h17v-30h-35.3l-32 32H190.23999999999998l-16-32zM428.84 332.84v30h17v18h-17v26.5l36.2-12 5.6 17-44 14.7c12.1 0.7 25.7 3.1 39.4 6.2 5.4-7.1 10.8-15.3 16.1-24 14.9-24.9 28.2-53.9 36.8-76.4zM163.83999999999997 442.84c-24.2 0-56.26 8.3-83.09 16.4-10.02 3-19.26 6-26.91 8.7v19c8.36-3 19.57-6.7 32.11-10.5C112.11999999999998 468.53999999999996 144.03999999999996 460.84 163.83999999999997 460.84c19.8 0 39.8 7.4 60.8 15.4s43 16.6 67.2 16.6c24.2 0 46.2-8.6 67.2-16.6 21-8 41-15.4 60.8-15.4 19.8 0 51.7 7.7 77.9 15.6 12.5 3.8 23.7 7.5 32.1 10.5v-19c-7.7-2.6-16.9-5.7-26.9-8.7-26.8-8.1-58.9-16.4-83.1-16.4-24.2 0-46.2 8.6-67.2 16.6-21 8-41 15.4-60.8 15.4-19.8 0-39.8-7.4-60.8-15.4S188.03999999999996 442.84 163.83999999999997 442.84z m0 36c-24.2 0-56.26 8.3-83.09 16.4-10.02 3-19.26 6-26.91 8.7v19c8.36-3 19.57-6.7 32.11-10.5C112.11999999999998 504.53999999999996 144.03999999999996 496.84 163.83999999999997 496.84c19.8 0 39.8 7.4 60.8 15.4s43 16.6 67.2 16.6c24.2 0 46.2-8.6 67.2-16.6 21-8 41-15.4 60.8-15.4 19.8 0 51.7 7.7 77.9 15.6 12.5 3.8 23.7 7.5 32.1 10.5v-19c-7.7-2.6-16.9-5.7-26.9-8.7-26.8-8.1-58.9-16.4-83.1-16.4-24.2 0-46.2 8.6-67.2 16.6-21 8-41 15.4-60.8 15.4-19.8 0-39.8-7.4-60.8-15.4S188.03999999999996 478.84 163.83999999999997 478.84z" /></svg>