<svg xmlns="http://www.w3.org/2000/svg" width="100%" height="100%" viewBox="0 0 583.68 583.68"><path d="M199.33999999999997 53.589999999999975c-125.028 2.135-223.03 231.994-9.188 461.625-197.34-240.608 9.41-548.496 174.157-289.03C323.193 102.17199999999997 258.26 52.583999999999975 199.33999999999997 53.589999999999975z m201.78 4.656c197.34 240.608-9.41 548.528-174.155 289.063C355.322 734.462 715.74 396.094 401.11999999999995 58.244999999999976z m-98.31 155.75c-42.422 0-76.814 34.392-76.814 76.813 0 42.42 34.392 76.81 76.813 76.81 42.42 0 76.81-34.39 76.81-76.81 0-42.422-34.39-76.814-76.81-76.814z" /></svg>