<svg xmlns="http://www.w3.org/2000/svg" width="100%" height="100%" viewBox="-35.84 -35.84 583.68 583.68"><path d="M263.09 50a205.803 205.803 0 00-35.857 3.13C142.026 68.156 75.156 135.026 60.13 220.233 45.108 305.44 85.075 391.15 160.005 434.41c32.782 18.927 69.254 27.996 105.463 27.553 46.555-.57 92.675-16.865 129.957-48.15l-30.855-36.768a157.846 157.846 0 01-180.566 15.797 157.846 157.846 0 01-76.603-164.274A157.848 157.848 0 01235.571 100.4a157.84 157.84 0 01139.17 43.862L327 192h128V64l-46.34 46.342C370.242 71.962 317.83 50.03 263.09 50z"/></svg>