<svg xmlns="http://www.w3.org/2000/svg" width="100%" height="100%" viewBox="0 0 583.68 583.68"><path d="M68.94699999999997 63.78999999999998l145.817 205.456L94.13999999999997 272.268l127.833 107.056-99.274 18.84 188.798 64.412c-27.16-26.503-51.394-55.114-71.83-84.88l15.406-10.577c39.313 57.257 93.652 110.5 155.83 151.78 26.423-5.435 52.822-21.64 73.036-42.826 20.17-21.14 33.822-46.97 36.597-70.004-43.09-60.1-94.658-111.11-156.87-151.148l10.112-15.717c30.99 19.946 59.436 42.53 85.55 67.483L414.803 122.43999999999997l-39.83 97.197L285.235 96.18999999999997l-3.14 124.414L68.94799999999998 63.78999999999998z m398.788 304.42l10.552 15.425c-34.503 23.6-64.288 57.193-90.49 92.758l-15.045-11.086c26.87-36.472 57.815-71.673 94.983-97.096z" /></svg>