<svg xmlns="http://www.w3.org/2000/svg" width="100%" height="100%" viewBox="0 0 583.68 583.68"><path d="M282.84 93.38499999999998c-29.212 2.622-71.312 17.137-106.37 38.172-19.394 11.637-36.707 25.19-48.83 39.178C115.51999999999998 184.72199999999998 108.83999999999997 198.83999999999997 108.83999999999997 211.83999999999997v263h174v-78h-46v16h-66v-16h-32v-66h32v-16h66v16h46V93.38499999999998z m18 0V330.84h46v-16h66v16h32v66h-32v16h-66v-16h-46v78h174V211.83999999999997c0-13-6.678-27.118-18.8-41.105-12.123-13.988-29.436-27.54-48.83-39.178C372.15 110.52199999999998 330.04999999999995 96.00699999999998 300.84 93.38499999999998zM188.83999999999997 332.84v62h30v-62h-30z m176 0v62h30v-62h-30z m-208 16v30h14v-30h-14z m80 0v30h110v-30H236.83999999999997z m176 0v30h14v-30h-14zM108.83999999999997 492.84v30h174v-30H108.83999999999997z m192 0v30h174v-30H300.84z" /></svg>