<svg xmlns="http://www.w3.org/2000/svg" width="100%" height="100%" viewBox="0 0 583.68 583.68"><path d="M266.203 68.09599999999998l-12.726 12.726L282.84 110.18799999999997v51.271h-67.271l-29.366-29.363-12.726 12.726 25.636 25.637-25.636 25.637 12.726 12.726 29.366-29.363H282.84v79.213c-17.269-16.404-34.965-23.523-50.857-22.102-2.99 0.268-5.916 0.838-8.762 1.704C200.44799999999998 245.2 186.83999999999997 269.59999999999997 186.83999999999997 298.459c0 29 22.182 53.882 44.365 78.082 21.702 23.675 44.225 47.136 51.617 67.416-0.184 13.99-2.919 22.791-6.336 28.186-3.538 5.586-7.751 8.128-13.119 9.662-5.367 1.533-11.853 1.643-18.113 1.18-4.385-0.325-8.464-0.929-12.41-1.27-12.532-5.06-22.06-10.59-29.479-16.36-26.256-24.219-36.388-52.882-52.545-85.812l-9.482 61.985 16.225-7.522c7.592 15.066 16.568 31.414 34.752 45.557 28.045 21.169 65.905 30.32 98.045 35.773l1.48 0.248 1.48-0.248c35.531-6.743 69.787-14.072 98.045-35.773 18.184-14.143 27.16-30.491 34.752-45.557l16.225 7.522-9.482-61.985c-14.464 29.13-30.782 68.45-52.545 85.813-7.42 5.77-16.947 11.3-29.479 16.359-3.946 0.341-8.025 0.945-12.41 1.27-6.26 0.463-12.746 0.353-18.113-1.18-5.368-1.534-9.581-4.076-13.12-9.662-3.416-5.395-6.15-14.195-6.335-28.186 7.392-20.28 29.915-43.741 51.617-67.416C374.65799999999996 352.34099999999995 396.84 327.46 396.84 298.46c0-28.859-13.608-53.259-36.38-60.185a43.324 43.324 0 0 0-8.763-1.704c-15.892-1.421-33.588 5.698-50.857 22.102v-79.213h67.271l29.366 29.363 12.726-12.726-25.636-25.637 25.636-25.637-12.726-12.726-29.366 29.363H300.84V110.18799999999997l29.363-29.366-12.726-12.726L291.84 93.73299999999998z m-29.597 186.29c12.329 0.199 28.452 8.274 46.234 31.126v122.402c-11.226-15.039-25.343-29.33-38.365-43.537C222.658 340.577 204.83999999999997 317.46 204.83999999999997 298.46c0-23.342 10.392-38.941 23.62-42.965 2.48-0.754 5.205-1.154 8.146-1.107z m110.468 0c2.941-0.046 5.667 0.354 8.147 1.108C368.448 259.518 378.84 275.11699999999996 378.84 298.46c0 19-17.818 42.118-39.635 65.918-13.022 14.207-27.139 28.498-38.365 43.537V285.51199999999994c17.782-22.852 33.905-30.927 46.234-31.125z" /></svg>