<svg xmlns="http://www.w3.org/2000/svg" width="100%" height="100%" viewBox="0 0 583.68 583.68"><path d="M469.03999999999996 53.82999999999997L195.64 327.23999999999995l60.8 60.8-6.3 6.3L529.8399999999999 114.62999999999998c0-24.32-36.5-60.8-60.8-60.8zM197.33999999999997 99.86999999999998a32 32 0 0 0-7.8 0.59c3.9 21.25 13.8 38.48 30.3 52.48a32 32 0 0 0 3.7-37.13 32 32 0 0 0-26.2-15.94z m-24.1 9.35a32 32 0 0 0-5.1 38.62 32 32 0 0 0 36 14.9c-15.5-14.7-25.9-32.79-30.9-53.52z m26.4 247.22C162.14 413.94 96.29999999999998 463.53999999999996 54.89999999999998 515.3399999999999c-4.82 5.9 7.6 18.2 13.53 13.5C120.15999999999997 487.44 169.73999999999998 421.53999999999996 227.23999999999998 384.03999999999996z" /></svg>