<svg xmlns="http://www.w3.org/2000/svg" width="100%" height="100%" viewBox="0 0 583.68 583.68"><path d="M282.84 61.839999999999975v17h-39v18h39v20h-32v42h-14.027l-4.364 12H186.83999999999997l-0.604 71.986 30.502 122.934c-48.878 3.346-97.752 8.937-145.013 16.414l2.812 17.777a1639.075 1639.075 0 0 1 121.096-14.529l-0.078 0.31c112.547 28.156 190.551 43.088 306.816-8.958l-7.355-16.43a485.085 485.085 0 0 1-26.844 11.092c-32.19-4.323-65.92-7.053-100.55-8.356l16.316-64.314L499.84 211.83999999999997H360.11499999999995l-13.248-53H332.84V116.83999999999997h-32V96.83999999999997h39V78.83999999999997h-39V61.839999999999975h-18z m89.91 0l30.045 35 18.54 15.557L386.171 131.83999999999997h58.334l27.809 23.334 39.474 23.334-16.14-23.334L467.84 131.83999999999997h58.334l-81.506-19.443L426.128 96.83999999999997 372.75 61.839999999999975zM268.84 134.83999999999997h46v24h-46V134.83999999999997z m-17.973 42h81.946l8.75 35h-8.928L291.84 189.58799999999997l-59.133 27.89L250.86699999999996 176.83999999999997zM204.83999999999997 188.83999999999997h21.063l-14.678 40.357L204.83999999999997 232.67999999999998V188.83999999999997z m87 21.252v152.346c-5.41 0.103-10.833 0.238-16.262 0.402h-40.46l-29.071-110.316L291.84 210.09199999999998zM277.09 380.84h82.404c22.502 0.709 44.618 2.01 66.149 3.96-58.924 14.561-109.381 9.793-169.532-3.194 7.006-0.306 13.999-0.558 20.979-0.766z m-132.865 29.363c-7.943-0.023-15.667 0.234-23.084 0.842l1.469 17.941c54.39-4.455 133.014 12.49 189.199 17.202 55.64 4.665 109.966-1.684 168.654-13.512l-3.557-17.645c-57.8 11.65-110.279 17.692-163.591 13.221-47.153-3.954-113.49-17.885-169.09-18.049z m20.22 35.285c-12.198-0.079-25.387 0.615-38.517 1.873-26.26 2.518-51.6 7.157-67.865 14.26l7.203 16.496c12.302-5.372 37.244-10.427 62.38-12.838 25.138-2.41 51.157-2.311 65.846 0.625 32.956 6.589 91.409 16.938 138.62 15.444l-0.569-17.99c-44.053 1.394-102.073-8.619-134.523-15.106-9.17-1.833-20.376-2.684-32.575-2.764z" /></svg>