<svg xmlns="http://www.w3.org/2000/svg" width="100%" height="100%" viewBox="0 0 583.68 583.68"><path d="M281.05999999999995 67.22699999999998c-70.06 0.15-134.335 31.794-168.1 90.28-5.223 9.045-8.83 18.417-12.24 28C157.99699999999996 106.83599999999997 255.212 76.43999999999997 327.90999999999997 118.40999999999997c78.822 45.506 98.658 158.253 44.405 252.223-25.855 44.782-63.857 77.026-105.15 93.723 95.38 29.26 195.698-0.307 240.96-78.704 54.027-93.574 8.905-220.773-100.055-283.68-40.858-23.59-84.976-34.837-127.01-34.747z m-24.763 49.945c-40.357 0.123-84.108 16.545-122.254 49.408C55.28999999999998 234.42799999999997 29.819999999999975 347.032 77.15999999999997 418.084c4.577 6.87 9.9 12.55 15.434 18.137C56.629999999999974 367.04999999999995 66.98399999999998 280.568 119.52999999999997 235.29999999999998c56.97-49.083 141.443-31.06 188.98 40.292 22.654 34.003 32.705 73.913 30.926 111.78 51.07-67.13 63.006-155.83 23.347-215.356h-0.002C338.37399999999997 135.38 299.26 117.03999999999998 256.298 117.17199999999997z m-63.36 107.71c-26.76 0.083-53.228 9.95-73.05 29.65-48.848 48.55-47.855 142.19 1.144 205.94 49 63.75 128.323 76.074 177.17 27.524-47.107 29.645-84.88 26.3-128.778-20.916-39.45-42.43-24.435-122.8 24.62-171.554 23.376-23.234 51.128-35.812 77.675-37.696-21.48-22.033-50.296-33.034-78.78-32.947z" /></svg>