<svg xmlns="http://www.w3.org/2000/svg" width="100%" height="100%" viewBox="0 0 583.68 583.68"><path d="M293.18399999999997 55.90299999999998c-10.24 0-20.324 0.65-30.22 1.906l28.532 69.093 44.844 33.124 68.25-11.53-42.625 30.468 42.938 31.75-84.313-13.344 27.125 65.657 70.844 36.25-66.095-1.28-50.656 0.843 10.342 21.906 45.032 32.188-32.406-5.47 59.843 126.72-84.81-88.53-50.126 22.936 33.312-40.5-49-51.156-76.875 35.156 51.095-62.094-61.22-63.906 90.907 5.72L150.02799999999996 103.83999999999997C92.77999999999997 147.152 55.839999999999975 215.84199999999998 55.839999999999975 293.246c0 131.19 106.154 237.344 237.344 237.344s237.344-106.154 237.344-237.344S424.373 55.90199999999997 293.18399999999997 55.90199999999997z" /></svg>