<svg xmlns="http://www.w3.org/2000/svg" width="100%" height="100%" viewBox="0 0 583.68 583.68"><path d="M154.83999999999997 110.83999999999997v64H90.83999999999997v346h402V174.83999999999997h-64V110.83999999999997H163.83999999999997z m18 18h46v46h-46z m64 0h46v46h-46z m64 0h46v46h-46z m64 0h46v46h-46zM108.83999999999997 192.83999999999997h46v18H108.83999999999997z m64 0h46v18h-46z m64 0h46v18h-46z m64 0h46v18h-46z m64 0h46v18h-46z m64 0h46v18h-46zM108.83999999999997 228.83999999999997h46v46H108.83999999999997z m64 0h46v46h-46z m64 0h46v46h-46z m64 0h46v46h-46z m64 0h46v46h-46z m64 0h46v46h-46zM108.83999999999997 292.84h46v46H108.83999999999997z m64 0h46v46h-46z m64 0h46v46h-46z m70.508 0h96.984l-26.287 46h20.73L410.84 317.729v156.22L398.777 452.84h-20.732l26.287 50h-96.984l26.287-50h-20.733L300.84 473.95V317.72799999999995L312.904 338.84h20.73zM428.84 292.84h46v46h-46zM108.83999999999997 356.84h46v46H108.83999999999997z m64 0h46v46h-46z m64 0h46v46h-46z m88 0v78h62v-78z m104 0h46v46h-46z m-73 10.043c7.732 0 14 6.268 14 14a14 14 0 0 1-5.19 10.87l5.19 31.13h-28l5.19-31.135a14 14 0 0 1-5.19-10.865c0-7.732 6.268-14 14-14zM108.83999999999997 420.84h46v46H108.83999999999997z m64 0h46v46h-46z m64 0h46v46h-46z m192 0h46v46h-46zM108.83999999999997 484.84h46v18H108.83999999999997z m64 0h46v18h-46z m64 0h46v18h-46z m192 0h46v18h-46z" /></svg>