<svg xmlns="http://www.w3.org/2000/svg" width="100%" height="100%" viewBox="0 0 583.68 583.68"><path d="M291.84 140.83999999999997c-117.2 0-173.246 53.452-202.066 107.25-21.827 40.743-27.162 81.332-28.479 98.75h461.09c-1.317-17.418-6.652-58.007-28.479-98.75C465.08599999999996 194.29199999999997 409.03999999999996 140.83999999999997 291.84 140.83999999999997z m42 151s15.334 15.333 15.334 30.666h-46C333.84099999999995 307.173 333.84 291.84 333.84 291.84z m-83.666 0.666s0 15.335 30.666 30.668h-46c0-15.333 15.334-30.668 15.334-30.668zM236.95499999999998 364.84c0.16 4.592 0.503 10.464 1.313 16.781 1.73 13.51 6.81 27.767 11.111 31.125 10.54 8.23 26.436 12.864 42.461 12.864s31.921-4.635 42.46-12.864c4.302-3.358 9.381-17.614 11.112-31.125 0.81-6.317 1.153-12.189 1.313-16.781h-109.77zM291.84 371.84c15.085 0 32 32 32 32-16-16-48-16-64 0 0 0 16.915-32 32-32z" /></svg>