<svg xmlns="http://www.w3.org/2000/svg" width="100%" height="100%" viewBox="0 0 583.68 583.68"><path d="M275.86799999999994 61.839999999999975v221.481L292.905 291.84l17.037-8.519V61.839999999999975h-34.074zM258.83 95.91399999999997c-80.22 0-136.297 56.077-136.297 136.296h119.26l17.037 17.037V95.91399999999997z m66.018 0v153.333l17.037-17.037h119.26c0-80.219-56.077-136.296-136.297-136.296zM105.49699999999997 249.24699999999999v34.074h50.047l-33.01-34.074H105.49699999999997z m41.528 0l34.074 34.074h34.074l-34.074-34.074h-34.074z m58.565 0l34.074 34.074h19.167v-8.518l-25.556-25.556H205.58999999999997z m144.815 0l-25.556 25.556v8.518h19.167l34.074-34.074h-27.685z m52.176 0l-34.074 34.074h34.074l34.074-34.074H402.58z m58.565 0l-33.01 34.074h50.047v-34.074h-17.037zM122.53399999999998 300.35999999999996v34.074l120.325 60.694 5.68-36.497-100.449-41.234-8.519-17.037H122.53399999999998z m321.575 0l-8.519 17.037-100.448 41.234 5.68 36.497 120.324-60.694v-34.074h-17.037z m-168.241 2.13L258.83 402.58l34.074 17.037 34.074-17.037-17.037-100.093-17.037 8.519-17.037-8.519zM114.01599999999998 350.404l-46.852 41.528v59.63l61.76-93.704-14.908-7.454z m355.648 0l-14.907 7.454 61.759 93.703v-59.63l-46.852-41.527z m-324.768 15.972L76.74699999999997 468.599l64.954 44.722 58.565-119.259-55.37-27.685z m293.888 0l-55.37 27.685 58.565 119.26 64.954-44.723-68.149-102.222z m-222.546 35.139L156.60799999999998 521.8399999999999h89.445l12.778-51.111h25.555v-36.204l-68.148-33.01z m151.204 0l-68.148 33.01v36.203h25.555L337.62699999999995 521.8399999999999h89.444l-59.63-120.324z" /></svg>