<svg xmlns="http://www.w3.org/2000/svg" width="100%" height="100%" viewBox="0 0 583.68 583.68"><path d="M140.83999999999997 60.839999999999975v462h302V60.839999999999975H140.83999999999997z m44 28h214v150H184.83999999999997V88.83999999999997z m18 18v114h178V106.83999999999997H202.83999999999997z m16 16h146v82H218.83999999999997V122.83999999999997z m15.8 25c0.8 7.9 5.2 18 11.1 24.8 11.2-0.2 25.9-3.4 36.1-8.8-21-2.3-38.9-9.3-47.2-16z m114.4 0c-8.3 6.7-26.2 13.7-47.2 16 10.2 5.4 24.9 8.6 36.1 8.8 5.9-6.8 10.3-16.9 11.1-24.8zM291.84 314.84h128v18h-17v14h17v18h-64v-18h29v-14h-93v-18z" /></svg>