<svg xmlns="http://www.w3.org/2000/svg" width="100%" height="100%" viewBox="0 0 583.68 583.68"><path d="M291.84 63.35999999999997L60.839999999999975 248.14v41L291.84 104.31999999999998 522.8399999999999 289.14v-41L291.84 63.35999999999997z m0 64L108.83999999999997 273.74V522.8399999999999h94c0.1-32.3 0.8-79.5 10.2-121 5.2-22.7 12.9-43.9 25.4-60 12.6-16.2 30.7-27 53.4-27s40.8 10.8 53.4 27c12.5 16.1 20.2 37.3 25.4 60 9.4 41.5 10.1 88.7 10.2 121h94V273.74L291.84 127.35999999999997zM199.73999999999998 234.03999999999996a25.03 14.73 15.040000000000003 0 1 12.1 2.2 25.03 14.73 15.040000000000003 0 1 17.7 14.6h124.6a14.730000000000004 25.03 74.96 0 1 17.7-14.6 14.730000000000004 25.03 74.96 0 1 12.1-2.2 14.730000000000004 25.03 74.96 0 1 17.8 7.8 14.730000000000004 25.03 74.96 0 1-13 19.6 25.03 14.73 15.040000000000003 0 1 10.7 18.4 25.03 14.73 15.040000000000003 0 1-29.9 5.7 25.03 14.73 15.040000000000003 0 1-18.1-16.7H232.23999999999998a14.730000000000004 25.03 74.96 0 1-18.1 16.7 14.730000000000004 25.03 74.96 0 1-29.9-5.7 14.730000000000004 25.03 74.96 0 1 10.7-18.4 25.03 14.73 15.040000000000003 0 1-13-19.6 25.03 14.73 15.040000000000003 0 1 17.8-7.8z" /></svg>