<svg xmlns="http://www.w3.org/2000/svg" width="100%" height="100%" viewBox="0 0 583.68 583.68"><path d="M378.68199999999996 498.786c-2.029 31.63-171.708 29.834-173.863 0-6.223-162.824 18.646-224.226 26.506-280.24 1.902-13.533-14.843-37.589-19.016-54.323-8.917-35.36 3.856-66.262-8.917-95.42L221.81699999999998 61.839999999999975C232.21299999999997 102.40799999999997 259.64 131.38699999999997 291.84 131.38699999999997c32.201 0 59.627-28.979 70.023-69.547l18.425 6.962c-12.773 29.159 0 60.06-8.917 95.42-4.226 16.735-20.96 40.79-19.016 54.324 7.68 56.025 32.55 117.427 26.327 280.24z" /></svg>