<svg xmlns="http://www.w3.org/2000/svg" width="100%" height="100%" viewBox="0 0 583.68 583.68"><path d="M140.83799999999997 140.83799999999997v110.004h206.004V140.83799999999997H140.83799999999997z m288 112v46.004h30.004v-46.004h-30.004z m-194.512 16l-8.668 26.004h36.364l-8.668-26.004h-19.028z m-157.488 44v18.004h430.004v-18.004H76.83799999999997z m14.004 36V531.8399999999999h17.996V407.56899999999996l58.73-58.731h-25.453l-33.277 33.277v-33.277H90.84199999999998z m289.996 0v46.004h94.004v-46.004h-94.004zM430.111 355.84a10.272 8 0 0 1 10.272 8 10.272 8 0 0 1-10.272 8A10.272 8 0 0 1 419.84 363.84a10.272 8 0 0 1 10.271-8z m-49.273 56.998v46.004h94.004v-46.004h-94.004zM430.111 419.84a10.272 8 0 0 1 10.272 8 10.272 8 0 0 1-10.272 8A10.272 8 0 0 1 419.84 427.84a10.272 8 0 0 1 10.271-8z m-49.273 56.998v46.004h94.004v-46.004h-94.004zM430.111 483.84a10.272 8 0 0 1 10.272 8 10.272 8 0 0 1-10.272 8A10.272 8 0 0 1 419.84 491.84a10.272 8 0 0 1 10.271-8z" /></svg>