<svg xmlns="http://www.w3.org/2000/svg" width="100%" height="100%" viewBox="0 0 583.68 583.68"><path d="M110.33999999999997 71.83999999999997A38.5 38.5 0 0 0 71.83999999999997 110.33999999999997v363A38.5 38.5 0 0 0 110.33999999999997 511.84h363a38.5 38.5 0 0 0 38.5-38.5v-363A38.5 38.5 0 0 0 473.34 71.83999999999997h-363z m316.97 36.03A50 50 0 0 1 475.84 157.83999999999997a50 50 0 0 1-100 0 50 50 0 0 1 51.47-49.97z m-268 268A50 50 0 0 1 207.83999999999997 425.84a50 50 0 0 1-100 0 50 50 0 0 1 51.47-49.97z" /></svg>