<svg xmlns="http://www.w3.org/2000/svg" width="100%" height="100%" viewBox="0 0 583.68 583.68"><path d="M312.28 56.46999999999997v473.227c43.08-1.258 82.452-26.44 111.833-68.043 30.15-42.69 49.18-102.418 49.18-168.57 0-66.152-19.027-125.88-49.178-168.57C394.73499999999996 82.91199999999998 355.35999999999996 57.729999999999976 312.28 56.46999999999997zM191.90999999999997 263.034c-10.05 0.02-20.717 0.973-31.93 2.67-0.857 98.74 54.765 57.68 122.387 65.075-14.887-50.39-46.9-67.83-90.457-67.745z m231.46 0c10.05 0.02 20.717 0.973 31.93 2.67 0.855 98.74-54.767 57.68-122.39 65.075 14.887-50.39 46.903-67.83 90.46-67.745z" /></svg>