<svg xmlns="http://www.w3.org/2000/svg" width="100%" height="100%" viewBox="0 0 583.68 583.68"><path d="M346.215 52.589999999999975L125.24499999999998 111.55999999999997l58.126 50.905L318.40299999999996 126.11999999999998l2.032-0.53 25.78-73z m17.063 7.844l-27.157 76.812 91.69 91.875 95.624-8.78L363.27799999999996 60.433999999999976z m-41.813 12.062l-8.594 33.657c-0.28-15.516-38.03-17.018-107.56-4.376l116.155-29.28z m51.063 14.625l123.5 123.407-58.844 7.563c16.2-21.37-32.277-91.112-64.656-130.97zM110.58999999999997 123.55999999999997L51.433999999999976 344.24499999999995l79-31.47 37.28-139.155L110.58999999999997 123.55999999999997z m207.438 22l-133.032 35.81-35.72 133.376 97.25 97.53 133.064-35.81 35.72-133.376-97.283-97.53z m-201.72 5.686l32.844 30.5-30.156 118.97-39.03 15.812c50.817-30.543 65.667-130.132 36.343-165.282z m195.876 14.78L394.84 249.21699999999998l-30.156 113.81-44.688 11.97c119.527-107.872-34.816-238.375-131.5-140.875l9.875-37.405 113.814-30.688zM526.404 238.83999999999997l-92.877 8.53-35.968 134.19 71.342 71.842L526.403 238.83999999999997z m-17.283 13.875L479.86999999999995 368.86999999999995c6.73-68.874-0.03-90.85-30.655-111.5l59.906-4.655z m-371.155 77.188L56.059999999999974 362.52799999999996l161.75 161.468 17.31-96.72-97.155-97.373z m0.094 20l78.124 82.437-7.438 61.375c-5.23-44.565-28.34-85.92-70.687-143.813z m246.124 44.687l-130.53 35.125-17.564 98.188 221.688-59.157-73.594-74.156z m18.625 42.5l24.28 24.844-115.22 32.72c61.28-26.446 83.34-37.418 90.94-57.564z" /></svg>