<svg xmlns="http://www.w3.org/2000/svg" width="100%" height="100%" viewBox="0 0 583.68 583.68"><path d="M240.57199999999997 73.87099999999998L99.83999999999997 99.83999999999997l43.873 21.793C96.62499999999997 162.90499999999997 66.83999999999997 223.46299999999997 66.83999999999997 290.84c0 124.05 100.95 225 225 225s225-100.95 225-225c0-67.377-29.785-127.935-76.873-169.207L483.84 99.83999999999997 343.10799999999995 73.87099999999998 406.772 202.03999999999996l9.834-53.299C456.01 183.34299999999996 480.84 234.11999999999998 480.84 290.84c0 104.595-84.405 189-189 189S102.83999999999997 395.435 102.83999999999997 290.84c0-56.721 24.83-107.497 64.234-142.1l9.834 53.3z m73.994 81.127c-8.391 0-15 6.61-15 15 0 8.391 6.609 15 15 15 8.39 0 15-6.609 15-15 0-8.39-6.61-15-15-15z m-75.369 68.498c-8.39 0-15 6.61-15 15 0 8.391 6.61 15 15 15 8.391 0 15-6.609 15-15 0-8.39-6.609-15-15-15z m129.14-15.232c-8.39 0-15 6.61-15 15 0 8.391 6.61 15 15 15 8.392 0 15-6.609 15-15 0-8.39-6.608-15-15-15z m-205.29 35.611c-8.39 0-15 6.61-15 15 0 8.391 6.61 15 15 15s15-6.609 15-15c0-8.39-6.61-15-15-15z m123.602 23.988c-8.391 0-15 6.61-15 15 0 8.391 6.609 15 15 15 8.39 0 15-6.609 15-15 0-8.39-6.61-15-15-15z m51.687 6.817c-8.39 0-15 6.609-15 15 0 8.39 6.61 15 15 15 8.391 0 15-6.61 15-15 0-8.391-6.609-15-15-15z m72.455 11.834c-8.39 0-15 6.609-15 15 0 8.39 6.61 15 15 15 8.391 0 15-6.61 15-15 0-8.391-6.609-15-15-15z m-197.097 20.273c-8.391 0-15 6.61-15 15 0 8.391 6.609 15 15 15 8.39 0 15-6.609 15-15 0-8.39-6.61-15-15-15z m75.447 29.637c-8.391 0-15 6.61-15 15s6.609 15 15 15c8.39 0 15-6.61 15-15s-6.61-15-15-15z m96.442 15.343c-8.39 0-15 6.609-15 15 0 8.39 6.61 15 15 15 8.391 0 15-6.61 15-15 0-8.391-6.609-15-15-15z m-186.355 33.08c-8.39 0-15 6.609-15 15 0 8.39 6.61 15 15 15 8.391 0 15-6.61 15-15 0-8.391-6.609-15-15-15z m109.116 24.382c-8.391 0-15 6.609-15 15 0 8.39 6.609 15 15 15 8.39 0 15-6.61 15-15 0-8.391-6.61-15-15-15z" /></svg>