<svg xmlns="http://www.w3.org/2000/svg" width="100%" height="100%" viewBox="0 0 583.68 583.68"><path d="M408.32 67.05499999999998c-77.65 0-116.48 65.73-116.48 65.73s-38.83-65.72-116.48-65.72c-37.14 0-107.77 33.72-107.77 125.13 0 161.24 224.25 324.43 224.25 324.43s224.25-163.19 224.25-324.43c0-91.42-70.63-125.13-107.77-125.14zM195.83999999999997 164.83999999999997h192v18H195.83999999999997v-18z m23 31h18v176h-18V195.83999999999997z m33 0h80s-8 80-40 80-40-80-40-80z m95 0h18v176h-18V195.83999999999997z m-55 96c32 0 40 80 40 80h-80s8-80 40-80z m-96 93h192v18H195.83999999999997v-18z" /></svg>