<svg xmlns="http://www.w3.org/2000/svg" width="100%" height="100%" viewBox="0 0 583.68 583.68"><path d="M291.84 67.83999999999997l-64 96 80 16-16 80 64-96-80-16 16-80z m-96 217c-1.9 0-9.8 3-15.8 6.7-2.8 1.7-5.3 3.5-7.2 4.8v119c1.9 1.3 4.4 3.1 7.2 4.8 6 3.7 13.9 6.7 15.8 6.7 1.9 0 9.8-3 15.8-6.7 5.9-3.7 10.6-7.3 10.6-7.3l2.5-2H236.83999999999997V300.84h-12.1l-2.5-2s-4.7-3.6-10.6-7.3c-6-3.7-13.9-6.7-15.8-6.7z m192 0c-1.9 0-9.8 3-15.8 6.7-5.9 3.7-10.6 7.3-10.6 7.3l-2.5 2H346.84v110h12.1l2.5 2s4.7 3.6 10.6 7.3c6 3.7 13.9 6.7 15.8 6.7 1.9 0 9.8-3 15.8-6.7 2.8-1.7 5.3-3.5 7.2-4.8v-119c-1.9-1.3-4.4-3.1-7.2-4.8-6-3.7-13.9-6.7-15.8-6.7z m-133 16v110h14V300.84h-14z m32 0v110h42V300.84h-42zM131.33999999999997 346.84c-18.8 0-36.6 9.2-49.94 22.7C68.05999999999997 382.94 58.839999999999975 400.84 58.839999999999975 419.84v106h18V419.84c0-13 6.78-27.1 17.32-37.7C104.68999999999997 371.64 118.63999999999997 364.84 131.33999999999997 364.84H154.83999999999997v-18H131.33999999999997z m297.5 0v18h22.9c13.1 0 27.1 6.8 37.7 17.4C500.03999999999996 392.84 506.84 406.84 506.84 419.84v106h18V419.84c0-19-9.2-37-22.7-50.4-13.4-13.4-31.4-22.6-50.4-22.6H428.84z" /></svg>