<svg xmlns="http://www.w3.org/2000/svg" width="100%" height="100%" viewBox="0 0 583.68 583.68"><path d="M119.90599999999998 53.671999999999976l9.3 55.445-43.282-40.412h-0.002L71.90399999999997 82.71999999999997l38.424 41.155-52.37-8.252 52.695 76.11 58.958-4.364 166.484 178.314-48.95-9.89 77.725 61.44-117.69-14.316 84.664 35.246-42.86 16.95 64.217 19.97-33.862 25.36 182.43 20.84 28.435 8.845-5.28-16.98-4.808-15.464-20.51-182.217-25.894 32.993-18.518-59.56-17.04 43.1-35.177-93.468-1.87 110.494-63.757-91.374 10.5 55.594-155.776-145.44 4.596-62.093-76.762-52.045zM304.10999999999996 107.09399999999998l142.714 156.144 30.81 14.963-10.304-62.438L304.10999999999996 107.09399999999998z m-62.377 12.81l92.97 115.235 36.477-0.935-14.836-35.195-114.61-79.106zM77.85799999999998 248.72399999999996L196.25999999999996 455.53999999999996l55.393 19.765-8.333-36.324L77.85799999999998 248.72399999999996z m92.117 23.08l46.824 83.112 47.577 18.723-17.23-41.66-77.172-60.175z m283.107 73.255l48.72 156.665-156.665-48.72 77.36-30.59 30.585-77.356z" /></svg>