<svg xmlns="http://www.w3.org/2000/svg" width="100%" height="100%" viewBox="0 0 583.68 583.68"><path d="M291.84 67.83999999999997c-37.764 0.086-74.894 9.72-107.938 28.002l27.52 19.36 40.033-13.694 24.582 5.62 8.78 49.864 15.1-11.588 41.087-14.046 18.26 27.742-35.82 18.963-22.473 16.152-2.458 22.475-24.932 21.07-7.023 34.064-14.047 1.053 7.023-38.63-53.027-2.807-12.64 18.61-0.1-0.01v26.644l25.824 1.986 23.838 16.885-1.986 25.328 33.77 5.96-0.36 0.76 53.004-30.558 90.88 59.098-20.51 48.548-32.685 20.156-61.143 77.965-13.498-3.845L298.056 400.84l-42.213-42.213 7.853-13.86-25.732-9.482-25.326-30.79-21.853-4.967L152.26199999999997 243.83999999999997H147.83999999999997l-5.117 26.746-3.64-39.146 5.267-29.147-0.7-23.178L133.087 134.03999999999996C91.35599999999997 175.95999999999998 67.89999999999998 232.68699999999998 67.83999999999997 291.84c0 123.712 100.288 224 224 224 82.413-0.028 158.155-45.308 197.195-117.887L478.65999999999997 333.97999999999996l-5.62-36.17-34.06-27.392 6.67-37.926 15.803-20.367 37.555-5.05C464.606 122.92599999999997 382.753 67.91199999999998 291.84 67.83999999999997z m89.047 48H403.84v48l-32 16v-23.836z m-122.76 166.518l29.85 4.918-4.213 6.32-24.23-4.916z" /></svg>