<svg xmlns="http://www.w3.org/2000/svg" width="100%" height="100%" viewBox="0 0 583.68 583.68"><path d="M429.03999999999996 64.59999999999998c-1.2 0-2.5 0.1-3.7 0.16-3.3 0.26-6.7 0.84-10.2 1.77-13.4 3.6-27.5 12.4-39.3 27.9-1.2 4.95-1.1 9.33 0.1 12.56 2 5.03 6.7 9.75 20.9 12.02l-2.8 17.73c-15.1-2.36-26.2-8.8-32.1-17.8-5.7 13.66-10 30.2-12 50.1l-0.5 4-3.2 2.4c-119.7 86.7-215.6 186-281.74 279.7 95.44-20.8 185.74-43.1 253.64-78.5 71.3-37.3 117.8-87.4 124.2-167 0-8.1-2.1-13.5-4.9-17.4-3.4-4.5-8.2-7.2-13.5-8.3-5.3-1.2-11-0.5-15.2 1.3-4.1 1.8-6.3 4.2-7.1 7.2l-17.4-4.4c2.3-9.2 9.4-15.9 17.3-19.3 15.8-6.5 34.4-3.2 46.4 8.3 2.9-9.8 6.6-19.9 10-29.8 0.9-2.6 1.8-5.2 2.6-7.7 14.8-14.48 30.3-23.12 58.4 0.1 3.1-27.19-24.8-53.8-50.9-48.22-2.5-9.52-8.3-16.44-16.2-21.05-6.3-3.75-14.2-5.84-22.8-5.77zM442.44 81.83999999999997c5 0 9 4.03 9 9s-4 9-9 9-9-4.03-9-9 4-9 9-9z m-31.5 247c-9.1 10.3-19.2 19.8-30.3 28.7-1.8 23-3.5 46.9-12.9 70.2 4.8 0.4 9.5 0.6 13.6 0.3 4.7-0.4 8.4-1.4 10.6-2.7 2.3-1.4 3.5-2.6 4.4-5.6 8.6-29.7 12.1-60.1 14.6-90.9z m-49.9 43.2c-10.9 7.3-22.4 14.1-34.6 20.5-9.9 5.2-20.2 10-30.8 14.7l7.2 27.5c1.1 4.2 2.5 5.2 5.9 6.3 3.3 1.1 8.8 1.1 14.6-0.1 5.9-1.2 12-3.6 16.6-6.1 4.6-2.5 7.6-6.1 7.1-5.1 9.1-17.7 12-37.2 14-57.7z m-143.1 63.4c-35.9 10.9-74 20.4-113.18 29.3-4.17 5.9-7.44 12.3-8.49 16.6-0.52 2.2-0.45 3.6-0.33 4.1 12.93 7.1 31.41 9.6 44.3 9.2 16.6-0.6 33.3-4.6 43.4-9.4 9.5-4.4 22-22.8 30.2-40.5 1.5-3.2 2.8-6.3 4.1-9.3z m171.6 9.6c-2.3 0.4-4.5 0.7-6.8 0.9-3.7 0.3-7.5 0.3-11.3 0.1l4.5 55h-46.6l3.1-43.8c-1.8 0.5-3.6 0.9-5.4 1.3-4.2 0.9-8.5 1.4-12.9 1.4l-2.8 41.1h-32.9l-14 18H469.84l-16-18h-59.8z" /></svg>