<svg xmlns="http://www.w3.org/2000/svg" width="100%" height="100%" viewBox="0 0 583.68 583.68"><path d="M191.95499999999998 70.31999999999996l-36.94 0.586 10.02 28.995 27.258-2.324zM53.839999999999975 73.56699999999998V529.8399999999999h297.682L339.84 483.84l-64-64-48-160-88.055-80L131.83999999999997 99.83999999999997zM254.91599999999997 134.41999999999996L195.83999999999997 147.83999999999997l16.38 30.342 17.65 5.394-1.223 19.672L280.50399999999996 179.83999999999997z m34.656 60.99l-19.56 21.05 27.508 12.61 12.855-20.804z m50.907 90.002l-34.38 25.012-11.766 58.662 100.53 22.97-4.163-98.218z m107.475 62.373l-20.886 3.465-15.988 20.033 4.873 21.23 40.848-15.55z m-43.62 95.996l-44.32 5.87 6.858 29.422 36.875-1.396z m37.573 59.982l-32.103 5.375L375.953 529.8399999999999h79.508z" /></svg>