<svg xmlns="http://www.w3.org/2000/svg" width="100%" height="100%" viewBox="0 0 583.68 583.68"><path d="M291.94 111.95999999999998L129.26 259.84h23.08L291.84 135.79999999999995 431.34 259.84h23.1L291.94 111.95999999999998zM364.84 140.83999999999997v13.1l30 27.2V140.83999999999997h-30z m-73 19L172.83999999999997 265.64v117.9c8.5 6.6 16 11.3 23 11.3 2.3 0 4.6-0.5 7-1.4V314.84h66v49.1c11.5 2.8 20.6 10.5 28.6 16.9 10 8 18.5 14 26.4 14 7.9 0 16.4-6 26.4-14s21.6-18 37.6-18c8.9 0 16.4 3.1 23 7.2V265.64L291.84 159.83999999999997z m-71 173v49.1c0.5-0.4 0.9-0.7 1.4-1.1 8-6.4 17.1-14.1 28.6-16.9V332.84h-30z m-89 48c-15.95 0-32.12 9-45.66 17.3C72.63999999999997 406.53999999999996 62.229999999999976 414.84 62.229999999999976 414.84l11.22 14s9.66-7.7 22.16-15.3C108.09999999999998 405.84 123.93999999999997 398.84 131.83999999999997 398.84c7.9 0 16.4 6 26.4 14s21.6 18 37.6 18 27.6-10 37.6-18 18.5-14 26.4-14c7.9 0 16.4 6 26.4 14s21.6 18 37.6 18 27.6-10 37.6-18 18.5-14 26.4-14c7.9 0 16.4 6 26.4 14s21.6 18 37.6 18 32.1-9 45.7-17.3c13.5-8.4 23.9-16.7 23.9-16.7l-11.2-14s-9.7 7.7-22.2 15.3C475.64 405.84 459.73999999999995 412.84 451.84 412.84c-7.9 0-16.4-6-26.4-14S403.84 380.84 387.84 380.84s-27.6 10-37.6 18-18.5 14-26.4 14c-7.9 0-16.4-6-26.4-14S275.84 380.84 259.84 380.84s-27.6 10-37.6 18-18.5 14-26.4 14c-7.9 0-16.4-6-26.4-14S147.83999999999997 380.84 131.83999999999997 380.84z m0 62c-15.96 0-32.13 9-45.68 17.3-13.54 8.4-23.96 16.7-23.96 16.7l11.22 14s9.66-7.7 22.16-15.3C108.08999999999997 467.84 123.92999999999998 460.84 131.83999999999997 460.84c7.9 0 16.4 6 26.4 14s21.6 18 37.6 18 27.6-10 37.6-18 18.5-14 26.4-14c7.9 0 16.4 6 26.4 14s21.6 18 37.6 18 27.6-10 37.6-18 18.5-14 26.4-14c7.9 0 16.4 6 26.4 14s21.6 18 37.6 18 32.1-9 45.7-17.3c13.5-8.4 23.9-16.7 23.9-16.7l-11.2-14s-9.7 7.7-22.2 15.3C475.64 467.84 459.73999999999995 474.84 451.84 474.84c-7.9 0-16.4-6-26.4-14S403.84 442.84 387.84 442.84s-27.6 10-37.6 18-18.5 14-26.4 14c-7.9 0-16.4-6-26.4-14S275.84 442.84 259.84 442.84s-27.6 10-37.6 18-18.5 14-26.4 14c-7.9 0-16.4-6-26.4-14S147.83999999999997 442.84 131.83999999999997 442.84z" /></svg>