<svg xmlns="http://www.w3.org/2000/svg" width="100%" height="100%" viewBox="0 0 583.68 583.68"><path d="M314.84 66.93999999999997L299.64 218.83999999999997H317.84l15-150.1-18-1.8z m80.5 14.05L349.44 218.83999999999997h18.8l44.1-132.15-17-5.7zM154.14 225.43999999999997l-77.21 92.6 13.82 11.6L158.83999999999997 247.93999999999997l-3.8-18.2-0.9-4.3z m275.4 0l-4.7 22.5 68.1 81.7 6.9-5.8 6.9-5.8-77.2-92.6zM180.64 236.83999999999997l52 78h118.4l52-78H180.64z m63.2 30h96v18h-96v-18z m-61.6 4.9L225.03999999999996 474.84h133.6l42.8-203.1-40.8 61.1H223.03999999999996l-40.8-61.1zM228.83999999999997 492.84l6.3 30h113.4l6.3-30H228.83999999999997z" /></svg>