<svg xmlns="http://www.w3.org/2000/svg" width="100%" height="100%" viewBox="0 0 583.68 583.68"><path d="M190.09599999999998 82.95499999999998a96 96 0 0 0-96 96 96 96 0 0 0 96 96 96 96 0 0 0 14.176-1.136c6.022-12.03 11.431-23.802 15.906-35.06l2.248-5.653 47.04-0.172a96 96 0 0 0 16.63-53.979 96 96 0 0 0-96-96zM233.85199999999998 250.83999999999997l-2.405 5.254C189.77299999999997 347.149 132.68999999999997 431.527 61.19499999999998 509.77L47.42399999999998 524.8399999999999h485.734l-9.953-14.172C462.75 424.59 393.78 338.48199999999997 364.30699999999996 256.78499999999997L362.15999999999997 250.83999999999997H233.85199999999998z m-7.83 56.92l8.687 48.08 19.666-43.785L275.84 355.84l24.78-48 7.22 64 24.385-64L371.84 355.84l-2.865-43.973C402.21999999999997 377.06399999999996 452.258 442.22499999999997 498.303 506.84H87.77599999999998c55.01-62.373 101.316-128.65 138.246-199.08z" /></svg>