<svg xmlns="http://www.w3.org/2000/svg" width="100%" height="100%" viewBox="0 0 583.68 583.68"><path d="M322.18399999999997 51.059999999999974c35.747 36.387 36.18 94.69-1.875 112.78-41.352 19.655-99.47-5.62-72.876-74.813-74.166 45.167-89.234 119.982-63.656 192.125-30.293-23.512-90.362-67.5-47.875-117.375-57 11.348-71.862 59.875-42.063 90.532 49.228 50.64 13.02 118.883-28.03 46.718-24.442 123.094 153.718 150.67 155.343 231.28h18.53C231.29999999999998 463.61999999999995 177.20799999999997 424.15 119.12199999999997 375.84l30.25-93.406c0.142 1.064 0.294 2.08 0.44 3.125-1.64 46.587 15.002 127.502 78.468 121.843-14.43-6.617-26.087-15.86-35.563-26.47 20.738-4.194 38.623-63.316 32.28-156.374l88.126-31.564c-64.46 43.87-78.115 117.557-39.436 154.563l44.72-103.94 85.498-22.343c-64.875 41.348-105.853 95.667-73 144.688l57.875-80.906L493.998 300.84c-125.27 21.775-157.203 101.965-173.626 176.28 3.107 17.593 10.72 36.258 20.283 55.19h13.656C308.534 408.26399999999995 488.84 398.923 516.683 323.81c26.825-72.37 7.37-109.43-52-157.69 48.237 78.413-19.87 116.58-38.53 85.845-38.098-62.747 70.19-152.574-103.97-200.906z" /></svg>