<svg xmlns="http://www.w3.org/2000/svg" width="100%" height="100%" viewBox="0 0 583.68 583.68"><path d="M309.697 57.74399999999997c-24.193 0.012-51.198 5.552-81.1 17.467 143.7 12.608 150.35 129.263 84.032 132.814-85.27 4.565-53.232-57.217-133.34-103.03C236.28499999999997 237.31999999999996 130.27999999999997 226.17 56.89399999999998 95.06999999999996c12.805 85.755 24.28 116.942 78.26 153.596C297.83599999999996 359.13399999999996 130.45799999999997 383.64 72.65999999999997 281.37c14.568 93.454 68.364 132.803 131.707 139.93-42.753 24.49-99.452 32.49-143.01 25.556 51.025 42.317 131.606 40.94 193.515 8.576-37.137 36.123-97.446 70.644-116.803 74.728H312.2C552.8399999999999 441.40299999999996 566.145 268.28999999999996 490.667 160.332c-2.433 26.21-10.08 49.507-25.545 70.23-18.48-102.394-69.02-172.86-155.426-172.818z m2.82 184.666l141.384 52.155c0.286-3.207 0.86-6.495 1.747-9.807 5.62-20.973 21.605-34.913 35.705-31.135 14.1 3.778 20.973 23.842 15.353 44.815-5.62 20.974-21.603 34.914-35.703 31.136-0.725-0.194-1.427-0.442-2.113-0.72l-60.58 49.394 70.637 19.584-140.023 84.71 65.848-68.866-31.32-7.006-150.335 122.58 158.06-196.89-137.39-41.137 137.006 5.654-68.275-54.467z" /></svg>