<svg xmlns="http://www.w3.org/2000/svg" width="100%" height="100%" viewBox="0 0 583.68 583.68"><path d="M329.23999999999995 59.00999999999998s-33 12.6-41.1 26.82c-8.7 15.15-2.3 52.31-2.3 52.31 9-28.63 23.2-55.07 43.4-79.13z m-172 47.78C165.83999999999997 176.64 123.27999999999997 233.03999999999996 131.53999999999996 287.34c-45.63-24.1-42.25-107.8-56.72-150.6-7.61 14.3-14.67 28.7-20.98 43.3V529.8399999999999h476V221.43999999999997c-14.6-27.9-21.9-60-16.4-99.66C455.14 153.83999999999997 467.03999999999996 246.64 475.44 290.84c-33.9-16.7-88.6-43-62.6-114.7-34.5 18.7-47.5 90.1-55.7 123.4 3.8-43.6-50-80.4-32.7-163.5-36.7 37.1-58.1 163.2-57.6 216.9-8.1-33-5.8-169.7-41.7-186.6 2.7 32-20.6 84.7-33.8 89.3 10.5-55.4-17.1-115.4-34.1-148.85z" /></svg>