<svg xmlns="http://www.w3.org/2000/svg" width="100%" height="100%" viewBox="0 0 583.68 583.68"><path d="M99.83999999999997 529.8399999999999c-9.2 0-18.58-6.3-26.22-19.1-6.66-11.1-11.41-26.6-12.53-44 13.27-3.3 24.47-13.5 32.41-26.7 2.36-3.9 4.48-8.2 6.34-12.7 1.86 4.5 3.98 8.8 6.34 12.7 7.94 13.2 19.14 23.4 32.36 26.7-1.1 17.4-5.82 32.9-12.48 44C118.41999999999997 523.54 109.03999999999998 529.8399999999999 99.83999999999997 529.8399999999999z m96 0c-9.2 0-18.6-6.3-26.2-19.1-6.7-11.1-11.4-26.6-12.5-44 13.2-3.3 24.4-13.5 32.4-26.7 2.3-3.9 4.5-8.2 6.3-12.6 1.8 4.4 4 8.7 6.3 12.6 8 13.2 19.2 23.4 32.4 26.7-1.1 17.4-5.8 32.9-12.5 44-7.6 12.8-17 19.1-26.2 19.1z m96 0c-9.2 0-18.6-6.3-26.2-19.1-6.7-11.1-11.4-26.6-12.5-44 13.2-3.3 24.4-13.5 32.4-26.7 2.3-3.9 4.5-8.2 6.3-12.6 1.8 4.4 4 8.7 6.3 12.6 8 13.2 19.2 23.4 32.4 26.7-1.1 17.4-5.8 32.9-12.5 44-7.6 12.8-17 19.1-26.2 19.1z m96 0c-9.2 0-18.6-6.3-26.2-19.1-6.7-11.1-11.4-26.6-12.5-44 13.2-3.3 24.4-13.5 32.4-26.7 2.3-3.9 4.5-8.2 6.3-12.6 1.8 4.4 4 8.7 6.3 12.6 8 13.2 19.2 23.4 32.4 26.7-1.1 17.4-5.8 32.9-12.5 44-7.6 12.8-17 19.1-26.2 19.1z m96 0c-9.2 0-18.6-6.3-26.2-19.1-6.7-11.1-11.4-26.6-12.5-44 13.2-3.3 24.4-13.5 32.4-26.7 2.3-3.9 4.5-8.2 6.3-12.6 1.8 4.4 4 8.7 6.3 12.6 8 13.2 19.2 23.4 32.4 26.7-1.1 17.4-5.8 32.9-12.5 44-7.6 12.8-17 19.1-26.2 19.1z m-336-80c-9.2 0-18.58-6.3-26.22-19.1-6.66-11.1-11.41-26.6-12.52-44 13.26-3.3 24.46-13.5 32.44-26.7 2.3-3.9 4.4-8.2 6.3-12.7 1.8 4.5 4 8.8 6.3 12.7 8 13.2 19.2 23.4 32.4 26.7-1.1 17.4-5.8 32.9-12.5 44-7.6 12.8-17 19.1-26.2 19.1z m96 0c-9.2 0-18.6-6.3-26.2-19.1-6.7-11.1-11.4-26.6-12.5-44 13.2-3.3 24.4-13.5 32.4-26.7 2.3-3.9 4.5-8.2 6.3-12.6 1.8 4.4 4 8.7 6.3 12.6 8 13.2 19.2 23.4 32.4 26.7-1.1 17.4-5.8 32.9-12.5 44-7.6 12.8-17 19.1-26.2 19.1z m96 0c-9.2 0-18.6-6.3-26.2-19.1-6.7-11.1-11.4-26.6-12.5-44 13.2-3.3 24.4-13.5 32.4-26.7 2.3-3.9 4.5-8.2 6.3-12.6 1.8 4.4 4 8.7 6.3 12.6 8 13.2 19.2 23.4 32.4 26.7-1.1 17.4-5.8 32.9-12.5 44-7.6 12.8-17 19.1-26.2 19.1z m96 0c-9.2 0-18.6-6.3-26.2-19.1-6.7-11.1-11.4-26.6-12.5-44 13.2-3.3 24.4-13.5 32.4-26.7 2.3-3.9 4.5-8.2 6.3-12.6 1.8 4.4 4 8.7 6.3 12.6 8 13.2 19.2 23.4 32.4 26.7-1.1 17.4-5.8 32.9-12.5 44-7.6 12.8-17 19.1-26.2 19.1z m-382-0.1V351.84c1.34 2.9 2.78 5.6 4.34 8.2 7.94 13.2 19.14 23.4 32.4 26.7-1.11 17.4-5.86 32.9-12.52 44-7.09 11.9-15.67 18.1-24.22 19z m476 0c-8.6-0.9-17.1-7.1-24.2-19-6.7-11.1-11.4-26.6-12.5-44 13.2-3.3 24.4-13.5 32.4-26.7 1.5-2.6 3-5.3 4.3-8.1zM99.83999999999997 369.84c-9.2 0-18.58-6.3-26.22-19.1-6.66-11.1-11.41-26.6-12.52-44 13.26-3.3 24.46-13.5 32.4-26.7 2.36-3.9 4.48-8.2 6.34-12.7 1.86 4.5 3.98 8.8 6.34 12.7 7.94 13.2 19.14 23.4 32.36 26.7-1.1 17.4-5.82 32.9-12.48 44C118.41999999999997 363.53999999999996 109.03999999999998 369.84 99.83999999999997 369.84z m96 0c-9.2 0-18.6-6.3-26.2-19.1-6.7-11.1-11.4-26.6-12.5-44 13.2-3.3 24.4-13.5 32.4-26.7 2.3-3.9 4.5-8.2 6.3-12.6 1.8 4.4 4 8.7 6.3 12.6 8 13.2 19.2 23.4 32.4 26.7-1.1 17.4-5.8 32.9-12.5 44-7.6 12.8-17 19.1-26.2 19.1z m96 0c-9.2 0-18.6-6.3-26.2-19.1-6.7-11.1-11.4-26.6-12.5-44 13.2-3.3 24.4-13.5 32.4-26.7 2.3-3.9 4.5-8.2 6.3-12.6 1.8 4.4 4 8.7 6.3 12.6 8 13.2 19.2 23.4 32.4 26.7-1.1 17.4-5.8 32.9-12.5 44-7.6 12.8-17 19.1-26.2 19.1z m96 0c-9.2 0-18.6-6.3-26.2-19.1-6.7-11.1-11.4-26.6-12.5-44 13.2-3.3 24.4-13.5 32.4-26.7 2.3-3.9 4.5-8.2 6.3-12.6 1.8 4.4 4 8.7 6.3 12.6 8 13.2 19.2 23.4 32.4 26.7-1.1 17.4-5.8 32.9-12.5 44-7.6 12.8-17 19.1-26.2 19.1z m96 0c-9.2 0-18.6-6.3-26.2-19.1-6.7-11.1-11.4-26.6-12.5-44 13.2-3.3 24.4-13.5 32.4-26.7 2.3-3.9 4.5-8.2 6.3-12.6 1.8 4.4 4 8.7 6.3 12.6 8 13.2 19.2 23.4 32.4 26.7-1.1 17.4-5.8 32.9-12.5 44-7.6 12.8-17 19.1-26.2 19.1z m-336-80c-9.2 0-18.58-6.3-26.22-19.1-6.66-11.1-11.41-26.6-12.52-44 13.26-3.3 24.46-13.5 32.44-26.7 2.3-3.9 4.4-8.2 6.3-12.7 1.8 4.5 4 8.8 6.3 12.7 8 13.2 19.2 23.4 32.4 26.7-1.1 17.4-5.8 32.9-12.5 44-7.6 12.8-17 19.1-26.2 19.1z m96 0c-9.2 0-18.6-6.3-26.2-19.1-6.7-11.1-11.4-26.6-12.5-44 13.2-3.3 24.4-13.5 32.4-26.7 2.3-3.9 4.5-8.2 6.3-12.6 1.8 4.4 4 8.7 6.3 12.6 8 13.2 19.2 23.4 32.4 26.7-1.1 17.4-5.8 32.9-12.5 44-7.6 12.8-17 19.1-26.2 19.1z m96 0c-9.2 0-18.6-6.3-26.2-19.1-6.7-11.1-11.4-26.6-12.5-44 13.2-3.3 24.4-13.5 32.4-26.7 2.4-3.9 4.5-8.2 6.3-12.7 1.9 4.5 3.9 8.8 6.3 12.7 8 13.2 19.2 23.4 32.4 26.7-1.1 17.4-5.8 32.9-12.5 44-7.6 12.8-17 19.1-26.2 19.1z m96 0c-9.2 0-18.6-6.3-26.2-19.1-6.7-11.1-11.4-26.6-12.5-44 13.2-3.3 24.4-13.5 32.4-26.7 2.4-3.9 4.5-8.2 6.3-12.7 1.9 4.5 3.9 8.8 6.3 12.7 8 13.2 19.2 23.4 32.4 26.7-1.1 17.4-5.8 32.9-12.5 44-7.6 12.8-17 19.1-26.2 19.1z m-382-0.1V191.83999999999997c1.34 2.9 2.78 5.6 4.34 8.2 7.94 13.2 19.14 23.4 32.4 26.7-1.11 17.4-5.86 32.9-12.52 44-7.09 11.9-15.67 18.1-24.22 19z m476 0c-8.6-0.9-17.1-7.1-24.2-19-6.7-11.1-11.4-26.6-12.5-44 13.2-3.3 24.4-13.5 32.4-26.7 1.6-2.5 3-5.3 4.3-8.1zM99.83999999999997 209.83999999999997c-9.2 0-18.58-6.3-26.22-19.1-6.66-11.1-11.41-26.6-12.52-44 13.26-3.3 24.46-13.5 32.4-26.7 2.36-3.9 4.48-8.2 6.34-12.7 1.86 4.5 3.98 8.8 6.34 12.7 7.94 13.2 19.14 23.4 32.36 26.7-1.1 17.4-5.82 32.9-12.48 44C118.41999999999997 203.53999999999996 109.03999999999998 209.83999999999997 99.83999999999997 209.83999999999997z m96 0c-9.2 0-18.6-6.3-26.2-19.1-6.7-11.1-11.4-26.6-12.5-44 13.2-3.3 24.4-13.5 32.4-26.7 2.3-3.9 4.5-8.2 6.3-12.6 1.8 4.4 4 8.7 6.3 12.6 8 13.2 19.2 23.4 32.4 26.7-1.1 17.4-5.8 32.9-12.5 44-7.6 12.8-17 19.1-26.2 19.1z m96 0c-9.2 0-18.6-6.3-26.2-19.1-6.7-11.1-11.4-26.6-12.5-44 13.2-3.3 24.4-13.5 32.4-26.7 2.3-3.9 4.5-8.2 6.3-12.6 1.8 4.4 4 8.7 6.3 12.6 8 13.2 19.2 23.4 32.4 26.7-1.1 17.4-5.8 32.9-12.5 44-7.6 12.8-17 19.1-26.2 19.1z m96 0c-9.2 0-18.6-6.3-26.2-19.1-6.7-11.1-11.4-26.6-12.5-44 13.2-3.3 24.4-13.5 32.4-26.7 2.3-3.9 4.5-8.2 6.3-12.6 1.8 4.4 4 8.7 6.3 12.6 8 13.2 19.2 23.4 32.4 26.7-1.1 17.4-5.8 32.9-12.5 44-7.6 12.8-17 19.1-26.2 19.1z m96 0c-9.2 0-18.6-6.3-26.2-19.1-6.7-11.1-11.4-26.6-12.5-44 13.2-3.3 24.4-13.5 32.4-26.7 2.3-3.9 4.5-8.2 6.3-12.6 1.8 4.4 4 8.7 6.3 12.6 8 13.2 19.2 23.4 32.4 26.7-1.1 17.4-5.8 32.9-12.5 44-7.6 12.8-17 19.1-26.2 19.1zM147.83999999999997 129.83999999999997c-9.2 0-18.58-6.3-26.22-19.1-6.66-11.1-11.41-26.6-12.52-44C116.76999999999998 64.83999999999997 123.73999999999998 60.63999999999997 129.79999999999995 54.839999999999975H165.83999999999997c6.1 5.8 13.1 10 20.7 11.9-1.1 17.4-5.8 32.9-12.5 44-7.6 12.8-17 19.1-26.2 19.1z m96 0c-9.2 0-18.6-6.3-26.2-19.1-6.7-11.1-11.4-26.6-12.5-44 7.6-1.9 14.6-6.1 20.7-11.9h36c6.1 5.8 13.1 10 20.7 11.9-1.1 17.4-5.8 32.9-12.5 44-7.6 12.8-17 19.1-26.2 19.1z m96 0c-9.2 0-18.6-6.3-26.2-19.1-6.7-11.1-11.4-26.6-12.5-44 7.6-1.9 14.6-6.1 20.7-11.9h36c6.1 5.8 13.1 10 20.7 11.9-1.1 17.4-5.8 32.9-12.5 44-7.6 12.8-17 19.1-26.2 19.1z m96 0c-9.2 0-18.6-6.3-26.2-19.1-6.7-11.1-11.4-26.6-12.5-44 7.6-1.9 14.6-6.1 20.7-11.9h36c6.1 5.8 13.1 10 20.7 11.9-1.1 17.4-5.8 32.9-12.5 44-7.6 12.8-17 19.1-26.2 19.1z m-382-0.1V54.839999999999975h16.04c6.06 5.8 13.03 10 20.7 11.9-1.11 17.4-5.86 32.9-12.52 44C70.96999999999997 122.63999999999997 62.38999999999997 128.83999999999997 53.839999999999975 129.73999999999998z m476 0c-8.6-0.9-17.1-7.1-24.2-19-6.7-11.1-11.4-26.6-12.5-44 7.6-1.9 14.6-6.1 20.7-11.9h16z" /></svg>