<svg xmlns="http://www.w3.org/2000/svg" width="100%" height="100%" viewBox="0 0 583.68 583.68"><path d="M58.247999999999976 54.229999999999976v60.587S234.02999999999997 272.005 353.344 369.875c-9.2 3.815-19.898 5.503-31.102 5.277 52.274 39.08 103.82 79.553 163.178 105.01-28.328-60.655-63.28-112.895-103.516-167.015 1.993 14.567 0.067 26.324-4.67 35.523-76.207-91.106-195.03-202.617-296.402-294.44H58.247999999999976z m121.678 0C287.09 140.29999999999995 393.354 225.34199999999998 464.928 320.53999999999996c-5.74 10.573-18.106 14.794-31.537 11.68l101.62 115.052c-7.606-173.11-135.933-294.98-266.897-393.043h-88.187zM58.449999999999974 207.23999999999998v0.004-0.004z m0 0.004v93.44C190.74499999999998 416.18699999999995 323.947 511.09 460.84 534.29L344.03299999999996 425.66499999999996c0.88 12.204-1.625 22.48-10.51 22.778-98.07-71.302-191.387-152.64-275.072-241.198z" /></svg>