<svg xmlns="http://www.w3.org/2000/svg" width="100%" height="100%" viewBox="0 0 583.68 583.68"><path d="M56.019999999999975 54.35999999999997V261.14c41.18 86.6 59.73 144.5 161.52 237l0.3 0.2 0.1 0.2c3.3 3.2 6.3 4.1 10.9 3.7 4.5-0.4 10.2-2.7 15.7-6.4 10-6.7 20.1-19.5 21.5-24.6L205.43999999999997 409.84l12.1-12.1 67.5 67.4c1.4 1.4 2.8 2 7 1.2 4-0.6 9.9-3.3 15.6-7.1 10.9-7.5 21.2-20.1 24.5-28.5l-57.6-62 11.7-12.1s144.8 107.3 218.3 131.6c9.8 3.2 19.6-8.8 22.2-17.9 2.9-10.4-1.9-25-10.9-30.6-43.5-27.2-192.5-126.1-192.5-126.1l10.1-9.2 94.1 64.2-56-97.1L314.84 200.83999999999997l8.4-8 50.4 61.6s1.2-26.4-1.8-39.2c-2.3-9.9-5.9-20-12.4-27.8-16.8-20.4-42.2-31.9-64.6-45.8-51.4-32.06-113.5-51.14-159.14-87.28zM400.53999999999996 446.64s0 0.4 0.2 0.9l0.4 0.3c-0.3-0.7-0.5-1.2-0.6-1.2z m0.6 1.2c2.2 4.8 10.5 25.1 15 33.8 4.5 9.1 9 17.7 14.8 26.4 8.2 12.4 14 20.2 24.9 21.1 8.9 0.8 19.4-5.7 23.1-13.9 3.9-8.1-4.5-26.6-4.5-26.6z" /></svg>