<svg xmlns="http://www.w3.org/2000/svg" width="100%" height="100%" viewBox="0 0 583.68 583.68"><path d="M294.465 66.58999999999997L61.184999999999974 162.33999999999997l0.968 0.406v104.188l5.78 2.375 6.938 2.843 15.407 186.812 14.438-174.563 17.813 7.313v233.53h18.687v-198.25l13.063 120.095 13.5-123.813 22.312 201.125 21.22-196.218 0.093 0.03 11.125 115.22 10.25-106.438 57.968 23.78 3.53 1.44 0.377-0.157 14.656 156.155 15.81-168.594 37.564-15.405v191.438h18.687V348.59l2.314-22.97 41.687-17.06 4.126 50.53v166.563h18.688V299.215l1.25-0.5 11.78 105.97 12.938-116.095 8.688-3.563 20.97 188.157 22.967-206.125 0.282-0.126V162.61999999999998l0.686-0.28-233.28-95.75zM508.36999999999995 170.30999999999997v84.06l-27.56 11.282h-0.126v0.063l-4.156 1.688L486.34 179.33999999999997l22.03-9.03zM113.02999999999997 183.61999999999998l13.187 5.407 9.406 86.688h-2.874L106.30999999999997 264.87l6.718-81.25z m304.125 24.126l6.625 81.25L385.84 304.56l8.875-87.626 22.438-9.188z m-237.188 3.344l20.97 8.625 8.436 87.438-38.155-15.657 8.75-80.406z m174.063 22.563l8.187 80.562-35.125 14.375 8.188-87.25 18.75-7.688z m-111.594 3.093l42.062 17.25 8.22 87.375-58.063-23.842 7.78-80.782z" /></svg>