<svg xmlns="http://www.w3.org/2000/svg" width="100%" height="100%" viewBox="0 0 583.68 583.68"><path d="M291.84 108.83999999999997c-62.875 0-91.913 11.948-105.273 26.979-11.632 13.086-13.324 30.848-13.59 51.021h30.437c1.634-13.963 7.309-26.44 19.438-34.518C237.54299999999998 142.53999999999996 259.09299999999996 138.83999999999997 291.84 138.83999999999997c32.753 0 54.311 3.739 68.996 13.54 12.115 8.084 17.788 20.546 19.426 34.46h30.441c-0.266-20.173-1.958-37.935-13.59-51.021C383.753 120.78799999999997 354.715 108.83999999999997 291.84 108.83999999999997z m-135 94v16h62v-16h-62z m208 0v16h62v-16h-62zM117.30999999999997 236.83999999999997c-13.866 0-28.232 6.837-38.97 17.412C67.60199999999998 264.828 60.839999999999975 278.84 60.839999999999975 291.84v192c0 14.5 3.485 23.754 9.37 29.633C76.09299999999998 519.3499999999999 85.36999999999998 522.8399999999999 99.90299999999998 522.8399999999999h384.387c14.253 0 23.382-3.463 29.219-9.342C519.347 507.61999999999995 522.8399999999999 498.34 522.8399999999999 483.84V291.84c0-13-6.777-27.05-17.363-37.637C494.89 243.61699999999996 480.84 236.83999999999997 467.84 236.83999999999997H117.30999999999997zM259.84 291.84h64v64h64v64h-64v64h-64v-64h-64v-64h64v-64z" /></svg>