<svg xmlns="http://www.w3.org/2000/svg" width="100%" height="100%" viewBox="0 0 583.68 583.68"><path d="M291.34 58.245999999999974c-129.203 0-233.938 104.734-233.938 233.938 0 45.56 13.034 88.074 35.563 124.03-11.252-26.148-17.5-54.945-17.5-85.218 0-119.205 96.64-215.844 215.844-215.844s215.843 96.637 215.843 215.844c0 30.397-6.318 59.298-17.657 85.53 22.654-36.024 35.78-78.644 35.78-124.342C525.28 162.97799999999998 420.544 58.245999999999974 291.34 58.245999999999974z m-0.03 90.22l-67.72 198.093-27.094-7.533v-63.03H177.80999999999997v57.812l-56.095-15.595V514.8699999999999l72.656-76.78 37.657 29 13.875 60.563h90.844l13.875-60.594 37.626-28.97 72.656 76.78V318.21599999999995L404.81 333.81v-57.814h-18.69v63.03l-27.092 7.533-67.72-198.095z m0 124.436c16.905 0.022 33.81 32.695 33.81 97.938h-67.624c0-65.33 16.906-97.96 33.813-97.938z" /></svg>