<svg xmlns="http://www.w3.org/2000/svg" width="100%" height="100%" viewBox="0 0 583.68 583.68"><path d="M60.84999999999998 84.83999999999997v46H138.83999999999997V84.83999999999997zM188.83999999999997 84.83999999999997v46h78V84.83999999999997z m128 0v46h78V84.83999999999997z m128 0v46h78V84.83999999999997zM90.84999999999997 148.83999999999997v64H154.83999999999997v46h18v-46h64v-64h-18v46H108.84999999999998v-46zM346.84 148.83999999999997v64h64v46h18v-46h64v-64h-18v46H364.84v-46zM124.84999999999998 276.84v46H202.83999999999997v-46zM380.84 276.84v46h78v-46z m-226 64v48h128v46h18v-46h128v-48h-18v30H172.83999999999997v-30z m98 112v46h78v-46z" /></svg>