<svg xmlns="http://www.w3.org/2000/svg" width="100%" height="100%" viewBox="0 0 583.68 583.68"><path d="M67.83999999999997 61.839999999999975c2.039 58.968 24.711 113.864 55.371 152.71-25.019-8.539-47.913-18.195-67.29-30.54C74.13199999999998 257.03999999999996 117.29399999999997 288.25 160.59999999999997 296.21999999999997c-18.355 2.802-41.627 3.987-71.827 2.804 54.487 34.364 101.994 41.915 137.119 32.972C196.253 311.173 176.83999999999997 276.72999999999996 176.83999999999997 237.83999999999997c0-25.291 8.215-48.697 22.107-67.705C152.21399999999997 151.86499999999998 108.06199999999997 111.75299999999997 67.83999999999997 61.839999999999975z m448 0c-40.222 49.913-84.374 90.024-131.107 108.295C398.625 189.14299999999997 406.84 212.54899999999998 406.84 237.83999999999997c0 38.89-19.413 73.333-49.053 94.156 35.125 8.943 82.632 1.392 137.12-32.972-30.201 1.183-53.473-0.002-71.829-2.803 43.307-7.97 86.469-39.182 104.682-112.211-19.378 12.345-42.272 22.001-67.291 30.54C491.12899999999996 175.70499999999998 513.8 120.80899999999997 515.8399999999999 61.839999999999975z m-224 79c-53.678 0-97 43.322-97 97 0 53.348 42.792 96.46 96.012 96.988L243.83999999999997 381.84v16h28.8L259.84 525.8399999999999h64l-12.8-128H339.84v-16l-47.012-47.012C346.048 334.29999999999995 388.84 291.188 388.84 237.83999999999997c0-53.678-43.322-97-97-97z m0 17.334c43.892 0 79.666 35.774 79.666 79.666 0 43.892-35.774 79.666-79.666 79.666-43.892 0-79.666-35.774-79.666-79.666 0-43.892 35.774-79.666 79.666-79.666z m0 17.998c-34.165 0-61.668 27.503-61.668 61.668s27.503 61.668 61.668 61.668 61.668-27.503 61.668-61.668-27.503-61.668-61.668-61.668z m0 17.336c24.378 0 44.332 19.954 44.332 44.332S316.21799999999996 282.17199999999997 291.84 282.17199999999997 247.50799999999998 262.21799999999996 247.50799999999998 237.83999999999997s19.954-44.332 44.332-44.332z m0 17.998c-14.65 0-26.334 11.683-26.334 26.334 0 14.65 11.683 26.334 26.334 26.334 14.65 0 26.334-11.683 26.334-26.334 0-14.65-11.683-26.334-26.334-26.334z" /></svg>