<svg xmlns="http://www.w3.org/2000/svg" width="100%" height="100%" viewBox="0 0 583.68 583.68"><path d="M291.84 58.839999999999975c-62.377 0-118.824 5.375-160.277 14.258-20.727 4.441-37.674 9.69-50.188 16.03-26.54 16.094-31.144 53.2-21.918 77.99C105.75499999999998 253.27499999999998 174.40999999999997 317.224 250.83999999999997 376.161V524.8399999999999c25.848-0.604 80.089-14.04 82-41V376.162c67.639-60.819 155.483-122.156 191.383-209.045 5.479-17.026 3.503-55.854-6.424-67.166-4.04-4.23-9.237-7.654-15.494-10.824-12.514-6.34-29.461-11.588-50.188-16.03C410.664 64.21599999999998 354.217 58.839999999999975 291.84 58.839999999999975z m0 18c61.335 0 116.887 5.37 156.506 13.86C458.19399999999996 93.54999999999998 506.666 105.46599999999998 506.84 115.83999999999997c0.175 10.464-46.091 22.442-58.494 25.14C408.726 149.46999999999997 353.17499999999995 154.83999999999997 291.84 154.83999999999997c-61.335 0-116.887-5.37-156.506-13.86C125.48599999999998 138.13 76.72699999999998 124.90399999999997 76.83999999999997 115.83999999999997c0.12-9.68 46.092-22.442 58.494-25.14C174.95399999999998 82.20999999999998 230.50499999999997 76.83999999999997 291.84 76.83999999999997z" /></svg>