<svg xmlns="http://www.w3.org/2000/svg" width="100%" height="100%" viewBox="0 0 583.68 583.68"><path d="M345.73999999999995 58.879999999999974l-35.2 38.05 34.5 72.21 1.4 3.2-0.9 3.3c-4.7 16-6.6 34.9-4.6 51.9 1.6 13 5.4 24.7 11.5 33.3l160-173.15c-9.1-5.45-21-8.3-34.1-8.84-17.1-0.68-35.8 2.75-51.4 8.67l-3.2 1.19-78-29.83zM301.53999999999996 119.93999999999997L112.19999999999997 215.33999999999997c6.18 2.8 11.68 6.9 16.17 11.9l180.87-91.1-7.7-16.2zM477.64 151.83999999999997l-63.9 69.3c19.1 12 44.7 9 60.6-8.2 15.9-17.1 16.8-42.9 3.3-61.1z m-160.6 0.6l-179.3 90.3c2 5.3 3.1 11.1 3.1 17.1v1.5l183.9-92.7-7.7-16.2zM91.83999999999997 228.83999999999997c-17.23 0-31 13.8-31 31s13.77 31 31 31 31-13.8 31-31-13.77-31-31-31z m45.5 49.1c-2.41 6-6 11.5-10.49 16.1L234.03999999999996 442.84h22.1L137.33999999999997 277.93999999999994z m-25.24 26.5c-5.82 2.6-12.25 4.2-19 4.4l96.54 134H211.83999999999997L112.09999999999998 304.44zM348.84 424.84v18h18v-18h-18z m-180.7 36l-49.57 62H465.14l-49.6-62H168.14z" /></svg>