<svg xmlns="http://www.w3.org/2000/svg" width="100%" height="100%" viewBox="0 0 583.68 583.68"><path d="M91.21899999999997 60.839999999999975l-28.4 142H208.10999999999999L291.84 119.11099999999998 375.56899999999996 202.83999999999997H520.8599999999999l-28.4-142zM291.84 144.56699999999998L215.569 220.83999999999997H76.83999999999997v302h158v-87c0-18.25 7.166-33.077 18.021-42.727C263.717 383.464 277.84 378.84 291.84 378.84s28.123 4.624 38.979 14.273C341.674 402.763 348.84 417.59 348.84 435.84v87h158V220.83999999999997H368.111z m0 38.544l57 57V332.84H234.83999999999997v-92.729z m0 25.456l-39 39V314.84h78v-67.271zM106.83999999999997 234.83999999999997h98v98H106.83999999999997z m272 0h98v98h-98zM124.83999999999997 252.83999999999997v30h62v-30z m272 0v30h62v-30zM124.83999999999997 300.84v14h62v-14z m272 0v14h62v-14zM106.83999999999997 394.84h98v98H106.83999999999997v-98z m272 0h98v98h-98v-98z m-87 2c-10 0-19.877 3.376-27.021 9.727C257.674 412.917 252.83999999999997 422.09 252.83999999999997 435.84v87h78v-87c0-13.75-4.834-22.923-11.979-29.273C311.717 400.21599999999995 301.84 396.84 291.84 396.84zM124.83999999999997 412.84v62h62v-62z m272 0v62h62v-62z" /></svg>