<svg xmlns="http://www.w3.org/2000/svg" width="100%" height="100%" viewBox="0 0 583.68 583.68"><path d="M169.03999999999996 60.839999999999975l-53.69 94H468.34l-53.7-94H169.03999999999996zM60.839999999999975 172.83999999999997v46h462v-46H60.839999999999975z m32 64v46h46v-46H92.83999999999997z m352 0v46h46v-46h-46z m-171.4 0.6s-22 8.8-24 18.8c-4.6 22.8 33.9 60.8 33.9 60.8s-13.3-34.6-14.3-52.8c-0.5-9.1 4.4-26.8 4.4-26.8z m54.4 14.8c-6.1 40.2-11.2 83.7-45.9 100.2-30.3 14.4-36.4-78.5-94.1-91.5 44.9 101.1-68.9 139.9 42.2 185.2h19.5c-24-25.9-34.4-90.8-34.4-90.8s30.2 72 62.5 74.2c15 1 33.5-30.2 33.5-30.2s5.9 29.8-0.1 46.8H354.84c27.3-14.8 44.6-35.7 51.2-57.3 6.5-20.9 3-42.5-10.9-59.9-8.6 51.8-21.4 62.8-55.1 74.1 36.6-44.7 20.2-119.2-12.2-150.8zM92.83999999999997 300.84v46h46v-46H92.83999999999997z m352 0v46h46v-46h-46zM92.83999999999997 364.84v78h46v-78H92.83999999999997z m352 0v78h46v-78h-46zM60.839999999999975 460.84v62h462v-62H60.839999999999975z" /></svg>