<svg xmlns="http://www.w3.org/2000/svg" width="100%" height="100%" viewBox="-35.84 -35.84 583.68 583.68"><path d="M256 25C163.7 25 89 99.66 89 192c0 92.3 74.7 167 167 167s167-74.7 167-167c0-92.34-74.7-167-167-167zm129.8 111.3a15.37 27.75 2.13 0114.3 28.3 15.37 27.75 2.13 01-16.4 27.1 15.37 27.75 2.13 01-14.3-28.3 15.37 27.75 2.13 0116.4-27.1zm-49.4 25.8a19.12 35.25 24.94 015.1 1.3 19.12 35.25 24.94 011.4 40.8 19.12 35.25 24.94 01-32.2 22.6 19.12 35.25 24.94 01-1.5-40.8 19.12 35.25 24.94 0127.2-23.9zm38.9 55.1a15.37 27.75 22.37 011.2 0 15.37 27.75 22.37 013 .6 15.37 27.75 22.37 013.6 31.5 15.37 27.75 22.37 01-24.8 19.8 15.37 27.75 22.37 01-3.6-31.5 15.37 27.75 22.37 0120.6-20.4zM288 247.1a19.12 35.25 54.78 0112.6 5.8 19.12 35.25 54.78 01-19.1 36.1 19.12 35.25 54.78 01-39.2 3.6 19.12 35.25 54.78 0119.1-36.1 19.12 35.25 54.78 0126.6-9.4zm39.2 37.2a15.37 27.75 46.31 011.4 0 15.37 27.75 46.31 017.5 3 15.37 27.75 46.31 01-9.4 30.3 15.37 27.75 46.31 01-30.7 8 15.37 27.75 46.31 019.4-30.3 15.37 27.75 46.31 0121.8-11zm-133.8 81.8C224 412.5 224 431 224 494h64c0-63 0-81.5 30.6-127.9C299.1 373.2 278 377 256 377s-43.1-3.8-62.6-10.9z"/></svg>