<svg xmlns="http://www.w3.org/2000/svg" width="100%" height="100%" viewBox="0 0 583.68 583.68"><path d="M195.21499999999997 66.55999999999997v94.186l205.25-51.062V66.55999999999997h-205.25z m-45.125 0.06v448.47h27.78V66.61999999999998h-27.78z m266.53 0v448.47h27.783V66.61999999999998H416.61999999999995z m-16.155 61.25l-205.25 51.064v45.062l205.25-51.656V127.86999999999998z m-205.25 279.69v45.217h67.72c3.82-17.578 18.53-30.687 36.093-30.687 17.56 0 32.24 13.11 36.062 30.688h65.375v-44.22l-205.25-1z m0 62.874v43.875h205.25v-43.876h-65.25c-3.668 17.8-18.48 31.125-36.188 31.125-17.708 0-32.52-13.326-36.187-31.126h-67.625z" /></svg>