<svg xmlns="http://www.w3.org/2000/svg" width="100%" height="100%" viewBox="0 0 583.68 583.68"><path d="M349.664 97.46499999999997l-67.865 118.24L211.83999999999997 131.83999999999997l-4.08 129.77L92.00199999999998 141.10399999999998 147.83999999999997 307.84l-81.986-63.115 19.865 113.77L53.839999999999975 347.56399999999996V426.84h7.514l16-48h40l16-48h40l16-48h40l16-48h92.972l16 48h40l16 48h40l16 48h40l16 48H529.8399999999999V277.125l-77.783 39.547L515.8399999999999 179.83999999999997l-125.797 83.758L435.84 163.83999999999997l-74.926 66.87zM258.32599999999996 252.83999999999997l-10 30h87.028l-10-30z m-56 48l-10 30h87.028l-10-30z m86 0L291.84 311.38l3.514-10.54z m26 0l-10 30h87.028l-10-30z m-168 48l-10 30h87.028l-10-30z m86 0L235.83999999999997 359.38l3.514-10.54z m26 0l-10 30h87.028l-10-30z m86 0L347.84 359.38l3.514-10.54z m26 0l-10 30h87.028l-10-30z m-280 48l-10 30h87.028l-10-30z m86 0L179.83999999999997 407.38l3.514-10.54z m26 0l-10 30h87.028l-10-30z m86 0L291.84 407.38l3.514-10.54z m26 0l-10 30h87.028l-10-30z m86 0L403.84 407.38l3.514-10.54z m26 0l-10 30h87.028l-10-30zM53.839999999999975 444.84v30h57.514l-10-30z m66.486 0L123.83999999999997 455.38 127.35399999999997 444.84z m26 0l-10 30h87.028l-10-30z m86 0L235.83999999999997 455.38l3.514-10.54z m26 0l-10 30h87.028l-10-30z m86 0L347.84 455.38l3.514-10.54z m26 0l-10 30h87.028l-10-30z m86 0L459.84 455.38l3.514-10.54z m26 0l-10 30H529.8399999999999v-30z m-418 48L67.83999999999997 503.38 71.35399999999998 492.84z m26 0l-10 30h87.028l-10-30z m86 0L179.83999999999997 503.38l3.514-10.54z m26 0l-10 30h87.028l-10-30z m86 0L291.84 503.38l3.514-10.54z m26 0l-10 30h87.028l-10-30z m86 0l3.344 10.033 0.342-0.01L407.354 492.84z m26 0l-10 30h87.028l-10-30z m86 0l2.287 6.863 2.477-0.07 2.264-6.793z" /></svg>