<svg xmlns="http://www.w3.org/2000/svg" width="100%" height="100%" viewBox="0 0 583.68 583.68"><path d="M291.84 54.339999999999975c-35 0-61.747 17.777-79.027 39.377-14.67 18.338-23.127 39.13-25.354 56.623h18.348c2.349-13.123 9.296-30.672 21.06-45.377C241.587 86.56299999999997 262.84 72.33999999999997 291.84 72.33999999999997s50.253 14.223 64.973 32.623c11.764 14.705 18.711 32.254 21.06 45.377h18.348c-2.227-17.492-10.683-38.285-25.354-56.623C353.587 72.11699999999998 326.84 54.339999999999975 291.84 54.339999999999975z m13.893 35.03c14.406 12.58 31.53 37.293 18.646 60.97h34.84c-1.092-12.498-24.592-55.762-53.486-60.97z m-125.32 78.97c-0.22 0.219-0.77 0.852-1.348 2.154C177.81799999999998 173.29999999999998 176.83999999999997 178.33999999999997 176.83999999999997 183.33999999999997s0.978 10.041 2.225 12.846c0.579 1.302 1.129 1.935 1.347 2.154h222.856c0.218-0.219 0.768-0.852 1.347-2.154C405.86199999999997 193.37999999999997 406.84 188.33999999999997 406.84 183.33999999999997s-0.978-10.041-2.225-12.846c-0.579-1.302-1.129-1.935-1.347-2.154z m3.984 48C143.31899999999996 248.40399999999997 116.83999999999997 298.35799999999995 116.83999999999997 354.34c0 96.437 78.563 175 175 175s175-78.563 175-175c0-55.982-26.479-105.936-67.557-138h-90.691C377.62199999999996 224.56999999999996 430.84 283.03099999999995 430.84 354.34c0 76.98-62.02 139-139 139-76.98 0-139-62.02-139-139 0-71.308 53.219-129.77 122.248-138z" /></svg>