<svg xmlns="http://www.w3.org/2000/svg" width="100%" height="100%" viewBox="0 0 583.68 583.68"><path d="M524.54 60.57999999999997c-25.6 25.54-51.7 50.93-78 76.26-57-13.38-129.6 16.5-170.7 43 49.3-8 98.8-16.3 120.4 4.7-85.4 80.4-173.5 159.8-261.92 239l38.92 44.9c23.9-8.7 56.6-29.2 92-57.6 38-30.6 79.2-70.3 117.4-113.7 67.7-76.8 125.6-166.14 141.9-236.56zM130.79999999999995 445.14l-13.61 12.5 19.95 22.6 14-12.9-20.34-22.2zM103.89999999999998 469.84L53.839999999999975 515.94V529.8399999999999h29.39l40.65-37.4L103.89999999999998 469.84z" /></svg>