<svg xmlns="http://www.w3.org/2000/svg" width="100%" height="100%" viewBox="0 0 583.68 583.68"><path d="M440.23999999999995 53.839999999999975l-18.642 48.578 62.498 9.41L506.82 53.839999999999975z m-25.246 65.787l-48.8 127.158-5.004 0.89c-15.403 2.74-30.98 5.11-46.71 7.157l39.094 85.52c16.356-5.765 32.46-11.918 48.248-18.555l75.54-192.78zM295.72999999999996 257.11c-7.35 0.832-14.732 1.598-22.146 2.294l35.307 95.586c9.26-2.82 18.453-5.743 27.573-8.777z m-40.744 3.898c-8.13 0.642-16.292 1.215-24.49 1.71l33.377 105.138c9.296-2.495 18.54-5.066 27.727-7.725z m-43.058 2.71c-8.492 0.4-17.02 0.73-25.576 0.99l30.465 115.087c9.92-2.39 19.797-4.84 29.623-7.365z m-138.71 0.907c-3.157 0.074-5.14 1.152-7.48 3.582-2.672 2.778-5.33 7.782-7.164 14.528-3.668 13.49-4.03 33.372-1.15 53.046 2.88 19.676 8.982 39.287 16.787 52.623 3.904 6.667 8.216 11.694 12.234 14.576 3.974 2.85 7.286 3.764 11.17 3.22 8.434-1.778 16.847-3.575 25.265-5.368l17.26-135.365c-21.577 0.08-43.32-0.193-65.22-0.8l-0.137-0.005-0.134-0.008c-0.505-0.03-0.98-0.04-1.43-0.03z m94.636 0.547c-3.175 0.06-6.364 0.093-9.547 0.137l-16.774 131.538c19.35-4.177 38.62-8.448 57.758-12.908z m270.412 144.063c-25.497 0-48.55 4.41-64.422 11.023-7.936 3.307-14.03 7.183-17.72 10.818-3.69 3.635-4.858 6.554-4.858 9.16 0 2.603 1.17 5.522 4.86 9.157 3.69 3.635 9.782 7.51 17.718 10.818 15.872 6.615 38.925 11.025 64.422 11.025 25.496 0 48.547-4.41 64.42-11.024 7.936-3.306 14.028-7.182 17.718-10.817 3.69-3.635 4.862-6.554 4.862-9.158 0-2.605-1.17-5.524-4.862-9.16-3.69-3.634-9.782-7.51-17.718-10.817-15.873-6.613-38.924-11.023-64.42-11.023z m-87 59.304v27.695c0 2.604 1.17 5.523 4.86 9.158 3.69 3.635 9.782 7.51 17.718 10.818 15.872 6.615 38.925 11.025 64.422 11.025 25.496 0 48.547-4.41 64.42-11.024 7.936-3.306 14.028-7.182 17.718-10.817 3.69-3.635 4.862-6.554 4.862-9.158V468.53999999999996c-4.59 3.128-9.84 5.863-15.656 8.286-18.873 7.864-43.82 12.41-71.344 12.41-27.523 0-52.47-4.546-71.344-12.41-5.816-2.423-11.068-5.158-15.656-8.287z" /></svg>