<svg xmlns="http://www.w3.org/2000/svg" width="100%" height="100%" viewBox="0 0 583.68 583.68"><path d="M61.27799999999998 55.90299999999998c-6.856-0.07-11.186 7.654-3.063 15.78l315.53 346.688c-4.782 6.952-10.63 12.444-16.5 16.783l81.69 94.875c11.577-6.95 22.384-14.636 32.592-22.907-6.568 0.54-13.36-0.86-19.5-4.405-16.038-9.26-21.54-29.743-12.28-45.78 6.076-10.526 16.99-16.53 28.312-16.783 5.93-0.132 11.986 1.317 17.5 4.5 12.5 7.218 18.583 21.275 16.28 34.72 11.174-11.344 21.762-23.25 32.03-35.47l-189.874-160.28c18.826 26.837 29.97 49.297 35.688 68.124L69.90299999999998 59.995999999999974c-2.86-2.858-5.943-4.067-8.626-4.093z m60.843 1.312c-10.29 0.46-13.115 12.897 0.44 16.53l254.468 98.876c-0.642 8.503-3 16.25-5.938 23l118.156 41.314c6.554-11.81 12.07-23.886 16.78-36.156-5.424 3.762-11.995 5.968-19.092 5.968-18.52 0-33.53-15.01-33.53-33.53-0.002-18.52 15.01-33.532 33.53-33.532 14.444 0 26.773 9.132 31.5 21.937 4.012-15.413 7.215-31.028 10-46.75L283.84 70.99699999999997c30.608 14.242 51.855 28.52 66.25 42.344L126.80999999999997 57.77699999999997c-1.303-0.348-2.508-0.527-3.657-0.562-0.348-0.01-0.7-0.015-1.032 0zM403.435 113.08999999999997l49.125 10.28L437.02599999999995 143.83999999999997l-33.593-30.75z m-344.75 0.094c-4.748 0.095-8.76 4.893-6.157 13.5l53.75 268.937c-8.64 5.273-17.805 7.86-26.25 9.095l27.22 122.22C120.74999999999997 526.27 133.91999999999996 524.5999999999999 146.83999999999997 522.1199999999999c-6.06-2.62-11.41-7.057-15.156-13.092-9.77-15.734-4.953-36.388 10.78-46.157 5.41-3.357 11.412-5.004 17.345-5.06 11.324-0.11 22.432 5.517 28.843 15.842 7.63 12.293 6.337 27.606-2.094 38.375 15.226-4.732 30.186-10.284 45.03-16.218l-91.72-230.94c3.786 31.363 3.21 55.78-0.28 74.782L68.33999999999997 121.90299999999998c-1.82-6.018-5.963-8.793-9.656-8.718z m360.312 263.969l37.406 33.5-23.656 9.937-13.75-43.438z m-259.625 6.875l15.657 47.718-24.218-2.156 8.56-45.563z" /></svg>