<svg xmlns="http://www.w3.org/2000/svg" width="100%" height="100%" viewBox="0 0 583.68 583.68"><path d="M291.84 51.839999999999975c-30.6 0-59.243 9.113-82.97 24.844l44.064 44.062c24.486-11.704 53.326-11.704 77.812 0l44.063-44.062C351.082 60.95399999999998 322.43699999999995 51.839999999999975 291.84 51.839999999999975zM166.68399999999997 118.86999999999998C150.95399999999998 142.59799999999996 141.83999999999997 171.24199999999996 141.83999999999997 201.83999999999997c0 30.6 9.113 59.245 24.844 82.97l44.062-44.064c-11.704-24.484-11.704-53.326 0-77.812L166.68399999999997 118.86999999999998z m250.312 0l-44.062 44.064c11.704 24.486 11.704 53.328 0 77.812l44.062 44.063C432.726 261.082 441.84 232.438 441.84 201.83999999999997c0-30.6-9.113-59.245-24.844-82.97z m-123.844 38a45 45 0 0 0-46.312 45 45 45 0 0 0 90 0 45 45 0 0 0-43.688-45z m-40.218 126.064l-44.063 44.062C232.59799999999998 342.726 261.24199999999996 351.84 291.84 351.84c30.6 0 59.243-9.113 82.97-24.844l-44.064-44.062c-24.486 11.704-53.326 11.704-77.812 0zM291.84 351.84H81.83999999999997c-15 0-30 15-30 30v60c0 30 45 30 60 90h360c15-60 60-60 60-90v-60c0-15-15-30-30-30H291.84z" /></svg>