<svg xmlns="http://www.w3.org/2000/svg" width="100%" height="100%" viewBox="0 0 583.68 583.68"><path d="M147.83999999999997 99.83999999999997c17.48 40.785 28.587 87.938 33.336 136.818C146.34999999999997 230.73599999999996 104.99799999999998 222.47199999999998 51.839999999999975 211.83999999999997v160c53.158-10.632 94.51-18.896 129.336-24.818C176.426 395.902 165.31999999999996 443.05499999999995 147.83999999999997 483.84h128c-18.493-43.15-29.852-93.428-34.096-145.338 34.994-3.54 65.198-3.54 100.192 0C337.69199999999995 390.412 326.33299999999997 440.69 307.84 483.84h128c-17.48-40.785-28.587-87.938-33.336-136.818C437.33 352.94399999999996 478.68199999999996 361.20799999999997 531.8399999999999 371.84V211.83999999999997c-53.158 10.632-94.51 18.896-129.336 24.818C407.25399999999996 187.77799999999996 418.35999999999996 140.62499999999997 435.84 99.83999999999997H307.84c18.493 43.15 29.852 93.428 34.096 145.338-34.994 3.54-65.198 3.54-100.192 0C245.98799999999997 193.26799999999997 257.347 142.98999999999998 275.84 99.83999999999997H147.83999999999997z" /></svg>