<svg xmlns="http://www.w3.org/2000/svg" width="100%" height="100%" viewBox="0 0 583.68 583.68"><path d="M291.84 86.83999999999997c-54.994 0-107.32 25.053-148.22 66.826l16.525 8.264C199.05999999999997 123.85199999999998 246.39799999999997 100.83999999999997 291.84 100.83999999999997c45.45 0 92.803 22.997 131.725 61.074l16.496-8.248C399.15999999999997 111.89299999999997 346.835 86.83999999999997 291.84 86.83999999999997zM131.01799999999997 167.49199999999996C89.96999999999997 215.86199999999997 63.05499999999998 282.354 61.034999999999975 356.84h14.022c2.225-70.647 30.325-133.29 69.992-178.906 0.695-0.8 1.403-1.583 2.106-2.373l-16.138-8.068z m321.644 0l-16.107 8.055c0.692 0.778 1.39 1.548 2.076 2.336C478.29999999999995 223.48599999999996 506.4 286.13 508.62399999999997 356.84h14.022c-2.02-74.486-28.935-140.978-69.983-189.348zM163.88199999999998 298.64c-3.485-0.013-6.98 1.078-7.042 3.415V493.84c0 4 14 4 14 0V301.84c0-2.074-3.473-3.19-6.96-3.2z m255.917 0c-3.487 0.01-6.96 1.126-6.96 3.2v192c0 4 14 4 14 0V302.05499999999995c-0.06-2.337-3.557-3.428-7.04-3.416zM138.83999999999997 311.57c-15.623 2.393-25.644 11.16-33.133 24.64C96.86199999999997 352.13399999999996 92.83999999999997 374.84 92.83999999999997 397.84s4.022 45.707 12.867 61.63c7.49 13.48 17.51 22.247 33.133 24.64V311.57z m306 0v172.54c15.623-2.393 25.644-11.16 33.133-24.64C486.818 443.546 490.84 420.84 490.84 397.84s-4.022-45.707-12.867-61.63c-7.49-13.48-17.51-22.247-33.133-24.64zM60.839999999999975 374.84v46h14v-46H60.839999999999975z m448 0v46h14v-46h-14z" /></svg>