<svg xmlns="http://www.w3.org/2000/svg" width="100%" height="100%" viewBox="0 0 583.68 583.68"><path d="M451.94399999999996 53.839999999999975A88 84.324 0 0 0 529.8399999999999 135.51399999999998V53.839999999999975h-77.896zM163.83999999999997 172.83999999999997c-42.657 0-79.727 10.965-110 25.322v128.002c30.184-5.45 59.138-8.394 86.82-9.08 50.9-1.26 97.525 5.05 139.744 17.12 42.768-27.11 86.74-52.815 134.387-73.048C340.275 204.85799999999998 247.40299999999996 172.83999999999997 163.83999999999997 172.83999999999997z m366 71.98c-85.695 15.81-157.66 53.443-226.953 96.485 22.08 7.666 42.85 16.937 62.283 27.537 73.712 40.21 128.137 99.163 162.81 160.998H529.8399999999999V244.81999999999996z m-373.03 90.008c-5.196-0.034-10.44 0.016-15.738 0.15-27.682 0.703-56.767 3.78-87.232 9.5V529.8399999999999h453.242c-33.246-55.78-83.587-108.678-150.53-145.195-55.257-30.142-121.817-49.31-199.743-49.817z" /></svg>