<svg xmlns="http://www.w3.org/2000/svg" width="100%" height="100%" viewBox="0 0 583.68 583.68"><path d="M293.15599999999995 57.27999999999997C470.426 196.25399999999996 473.98999999999995 298.72999999999996 420.32 351.71l55.65 55.648c81.846-100.582 74.738-275.933-182.814-350.08z m-37.92 21.664c-16.713 4.847-34.67 7.066-50.61 6.75-13.684-0.27-25.71-1.44-34.936-6.41L56.96999999999997 192.003l55.15 55.156L267.78599999999994 91.49599999999998l-12.55-12.552z m-41.29 91.85l-43.84 43.84L477.84 522.363c3.005 3.007 6.436 3.516 12.582 1.646 6.146-1.87 13.72-6.735 19.943-12.957 6.223-6.223 11.087-13.8 12.957-19.945 1.87-6.146 1.363-9.577-1.642-12.582L213.94499999999996 170.79299999999998z m-8.665 179.735l-40.75 37.124 50.814 50.346c59.746 49.805 126.245 53.237 182.033 29.36l-75.273-75.274c-43.74 2.716-88.647-10.463-116.823-41.557z m-58.936 45.873c-5.525 1.065-8.977 2.957-11.315 5.25-1.957 1.922-3.25 4.556-4.25 7.564l55.19 52.844c5.467-1.007 9.262-2.795 11.278-4.687 1.997-1.872 3.096-3.863 3.096-7.53l-54-53.44z m-24.72 30.314L65.99999999999997 477.402c-16.737 27 14.694 61.2 51.094 44.66l51.53-50.28-47-45.063v-0.003z" /></svg>