<svg xmlns="http://www.w3.org/2000/svg" width="100%" height="100%" viewBox="0 0 583.68 583.68"><path d="M291.84 73.20899999999997c-38.48 0-76.932 1.13-106.869 3.42-14.969 1.145-27.78 2.566-37.65 4.36-4.936 0.898-9.12 1.87-12.711 3.099-3.592 1.228-6.791 2.059-9.97 6.296-34.116 45.49-48.02 106.6-49.636 142.51-13.347 56.622-13.338 99.418-0.422 141.89H154.83999999999997v-48h66v48h142v-48h66v48h80.258c12.893-42.395 12.925-85.114-0.35-141.583-1.193-47.666-15.476-97.173-49.709-142.817-3.178-4.237-6.377-5.068-9.968-6.296-3.592-1.229-7.776-2.2-12.711-3.098-9.871-1.795-22.682-3.216-37.65-4.361-29.938-2.29-68.39-3.42-106.87-3.42z m0 18c38.126 0 76.28 1.132 105.494 3.367 14.607 1.117 27.009 2.526 35.805 4.125 4.398 0.8 7.909 1.667 10.105 2.418 1.097 0.375 1.814 0.882 2.075 1.053 30.786 41.465 43.833 85.631 45.365 128.847C395.53999999999996 224.24299999999997 343.05899999999997 220.76099999999997 291.84 220.76099999999997c-51.188 0-103.638 3.479-198.668 10.247 2.213-32.012 15.777-89.018 45.129-128.805-0.12 0.062 0.095-0.16 0.738-1.018-0.25 0.334-0.49 0.681-0.738 1.018 0.156-0.081 0.892-0.66 2.135-1.084 2.196-0.751 5.707-1.618 10.105-2.418 8.796-1.6 21.198-3.008 35.805-4.125C215.55999999999997 92.33999999999997 253.71399999999997 91.20899999999997 291.84 91.20899999999997zM172.83999999999997 344.78499999999997v62h30v-62h-30z m208 0v62h30v-62h-30z m-310.248 48c-1.317 35.053-0.94 67.89 4.668 94.629 27.348 2.673 53.757 4.862 79.58 6.588v-21.217h-7c-11 0-20.948-5.22-28.361-12.627C112.06499999999997 452.75 106.83999999999997 442.81399999999996 106.83999999999997 431.828v-39.043H70.59199999999998z m54.248 0v39.043c0 4.97 2.775 11.013 7.361 15.596 4.587 4.582 10.64 7.36 15.64 7.36h7v-62H124.83999999999997z m96 0v62h7c5 0 11.103-2.8 15.705-7.303S250.83999999999997 437.09599999999995 250.83999999999997 432.822v-40.037h-30z m48 0v40.037c0 10.69-5.307 20.287-12.705 27.525-7.398 7.238-17.295 12.438-28.295 12.438h-7v24.633c47.71 1.722 94.288 1.72 142 0v-24.633h-7c-11 0-20.948-5.22-28.361-12.627-7.414-7.407-12.639-17.344-12.639-28.33v-39.043h-46z m64 0v39.043c0 4.97 2.775 11.013 7.361 15.596 4.587 4.582 10.64 7.36 15.64 7.36h7v-62h-30z m96 0v62h7c5 0 11.103-2.8 15.705-7.303S458.84 437.09599999999995 458.84 432.822v-40.037h-30z m48 0v40.037c0 10.69-5.307 20.287-12.705 27.525-7.398 7.238-17.295 12.438-28.295 12.438h-7v21.21c25.825-1.723 52.23-3.908 79.58-6.581 5.609-26.738 5.985-59.576 4.668-94.63H476.84z m-304 32v14h30v-14h-30z m208 0v14h30v-14h-30z m-208 32v49.63c10.897 5.396 20.048 5.362 30 0.173v-49.803h-30z m208 0v49.63c10.897 5.396 20.048 5.362 30 0.173v-49.803h-30z" /></svg>