<svg xmlns="http://www.w3.org/2000/svg" width="100%" height="100%" viewBox="0 0 583.68 583.68"><path d="M87.17999999999998 59.46999999999997l-6.68 16.72 80.04 32.01 6.6-16.72-79.96-32.01z m409.36 0.01l-80 32 6.6 16.72 80-32-6.6-16.72zM291.84 60.839999999999975c-29 0-50 14.08-64.7 34.29C212.43999999999997 115.34999999999998 204.83999999999997 141.83999999999997 204.83999999999997 163.83999999999997c0 13 7 27.8 14.5 39s14.9 18.6 14.9 18.6l1.5 1.5 9.3 27.9H263.84L230.53999999999996 133.90999999999997 291.84 154.33999999999997l61.3-20.43L319.84 250.83999999999997h18.8l9.3-27.9 1.5-1.5s7.4-7.4 14.9-18.6c7.5-11.2 14.5-26 14.5-39 0-22-7.6-48.49-22.3-68.71C341.84 74.91999999999997 320.84 60.839999999999975 291.84 60.839999999999975z m128 94v18h96v-18h-96z m-352 0.1v18h96v-18H67.83999999999997z m189.3 6.8l25.5 89.1h18.4l25.5-89.1-34.7 11.6-34.7-11.6z m166 57.7l-6.6 16.8 80 32 6.6-16.8-80-32z m-262.6 0.1l-80.04 32 6.68 16.8 79.96-32-6.6-16.8zM252.83999999999997 268.84v14h78v-14h-78z m0 32v14h78v-14h-78z m-46.9 2.6c-27.1 0.5-52.6 5-66.9 11.1L65.63999999999997 519.94c71.1-14.1 143.9-26 217.2-0.9V332.84h-48v-28.3c-7.9-0.7-16-1.1-23.9-1.1h-5z m166.8 0c-7.9 0-16 0.4-23.9 1.1V332.84h-48v186.2c73.3-25.1 146.1-13.2 217.2 0.9l-73.4-205.4c-14.3-6.1-39.8-10.6-66.9-11.1h-5z" /></svg>