<svg xmlns="http://www.w3.org/2000/svg" width="100%" height="100%" viewBox="0 0 583.68 583.68"><path d="M211.74999999999997 164.33999999999997a47.37 47.37 0 1 1-47.41-47.32 47.37 47.37 0 0 1 47.41 47.32zM418.34 117.01999999999998a47.37 47.37 0 1 0 47.32 47.32 47.37 47.37 0 0 0-47.32-47.32z m-254 126.95a47.37 47.37 0 1 0 47.41 47.37 47.37 47.37 0 0 0-47.41-47.37z m253.91 0a47.37 47.37 0 1 0 47.41 47.37 47.37 47.37 0 0 0-47.32-47.37zM164.33999999999997 370.92999999999995a47.37 47.37 0 1 0 47.41 47.41 47.37 47.37 0 0 0-47.41-47.41z m253.91 0a47.37 47.37 0 1 0 47.41 47.41 47.37 47.37 0 0 0-47.32-47.41z m102 92.93a56.48 56.48 0 0 1-56.39 56.48h-344a56.48 56.48 0 0 1-56.52-56.48v-344A56.48 56.48 0 0 1 119.81999999999998 63.339999999999975h344a56.48 56.48 0 0 1 56.52 56.48z m-20-344a36.48 36.48 0 0 0-36.39-36.52h-344A36.48 36.48 0 0 0 83.33999999999997 119.81999999999998v344a36.48 36.48 0 0 0 36.48 36.52h344a36.48 36.48 0 0 0 36.52-36.48z" /></svg>