<svg xmlns="http://www.w3.org/2000/svg" width="100%" height="100%" viewBox="0 0 583.68 583.68"><path d="M187.83999999999997 274.34l19.7-60 19.3 21.6 7.4-72.4 50.8 51.4-18.6-43.5 65.5-11.9 22.7 23.8c21.4-17.4 32.1-31.6 40.1-59.39l39.5-6.82 4 30.61 91.1 84.8c-5.3 49.1-9.1 98.8-58.3 133.4L347.34 425.84 317.84 466.53999999999996c-59.5-1.5-97.8-25.2-128.9-56.6H107.51999999999998l-7.91-26 52.53-8.4-30.48-67.9H54.949999999999974l3.38-19.8 100.61-3.9-26.44-18.9c-0.93-4.3 22.84-18.7 21.54-22.2-11-28.2-49.42-13.5-99.66-5.3 6.51-34.3 32.09-81 65.01-113.06 30.65 15.26 47.05 36.86 68.95 55.96-9.4 36-5 57.8-0.5 93.9z" /></svg>