<svg xmlns="http://www.w3.org/2000/svg" width="100%" height="100%" viewBox="0 0 583.68 583.68"><path d="M85.83999999999997 131.83999999999997c-9.972 0-18 8.028-18 18v300c0 9.972 8.028 18 18 18h412c9.972 0 18-8.028 18-18V149.83999999999997c0-9.972-8.028-18-18-18H85.83999999999997z m5 23h402v18H90.83999999999997v-18z m0 32h210v258H90.83999999999997V186.83999999999997z m18 18v222h7.03c0.47-24.342 18.315-74.172 47.093-97.889C172.17099999999996 336.4 183.45499999999998 340.84 195.83999999999997 340.84c12.385 0 23.669-4.44 32.877-11.889C257.495 352.66799999999995 275.34 402.498 275.80999999999995 426.84H282.84V204.83999999999997H108.83999999999997z m222 14h146v18H330.84v-18z m-135 10c20.835 0 39 20.241 39 47s-18.165 47-39 47-39-20.241-39-47 18.165-47 39-47z m135 22h114v18H330.84v-18z m0 32h50v18h-50v-18z m80 0h66v18h-66v-18z m-16 96h98v18h-98v-18z m-32 32h130v18H362.84v-18z" /></svg>