<svg xmlns="http://www.w3.org/2000/svg" width="100%" height="100%" viewBox="0 0 583.68 583.68"><path d="M521.8399999999999 407.15599999999995V178.58999999999997a399.056 399.056 0 0 1-185.685 69.28 399.135 399.135 0 0 1 70.973-186.002H178.55999999999997A399.056 399.056 0 0 1 247.83999999999997 247.55399999999997 399.135 399.135 0 0 1 61.839999999999975 176.57999999999998V405.15a399.056 399.056 0 0 1 185.685-69.28 399.135 399.135 0 0 1-70.973 185.944H405.11999999999995A399.056 399.056 0 0 1 335.84 336.18199999999996a399.135 399.135 0 0 1 186 70.974z" /></svg>