<svg xmlns="http://www.w3.org/2000/svg" width="100%" height="100%" viewBox="0 0 583.68 583.68"><path d="M53.839999999999975 53.839999999999975v50.31l45.38 45.38C171.83999999999997 225.83999999999997 162.38 299.58 191.34999999999997 323.75a50.35 50.35 0 0 0 32.35 11.6 51.48 51.48 0 0 0 51.47-47.26 14 14 0 0 1 12.92-12.92 51.27 51.27 0 0 0 33.93-16.74c16.99-18.71 18.25-47.94 1.73-67.07-28.8-33.36-83.82-15.7-174.22-92.13L104.13999999999997 53.839999999999975H53.839999999999975z m298.16 165.96c0.1 1.91 0.13 3.82 0.07 5.75a68.72 68.72 0 0 1-17.73 44 67.89 67.89 0 0 1-42.8 21.99 68.11 68.11 0 0 1-67.83 60.44c-1.35 0-2.7-0.06-4-0.14 0.32 0.4 0.65 0.81 1 1.2 28.8 33.36 83.82 15.7 174.22 92.13L479.54999999999995 529.8399999999999H529.8399999999999v-50.314L445.16999999999996 394.84c-72.63-76.33-63.16-150-92.12-174.2-0.34-0.29-0.7-0.56-1.05-0.84z" /></svg>