<svg xmlns="http://www.w3.org/2000/svg" width="100%" height="100%" viewBox="0 0 583.68 583.68"><path d="M387.84 58.839999999999975v18h-78v197h197v-78h18v192h-18v-78H309.84v197h78v18H195.83999999999997v-18h78V309.84H76.83999999999997v78H58.839999999999975V195.83999999999997h18v78h197V76.83999999999997h-78V58.839999999999975z m41 41v55h55v18h-55v55h-18v-55h-55v-18h55V99.83999999999997z m-256 0v55h55v18h-55v55h-18v-55H99.83999999999997v-18h55V99.83999999999997z m256 256v55h55v18h-55v55h-18v-55h-55v-18h55v-55z m-256 0v55h55v18h-55v55h-18v-55H99.83999999999997v-18h55v-55z" /></svg>