<svg xmlns="http://www.w3.org/2000/svg" width="100%" height="100%" viewBox="0 0 583.68 583.68"><path d="M157.93999999999997 58.549999999999976C133.18999999999997 89.86999999999998 121.07999999999997 105.86999999999998 114.83999999999997 129.89999999999998c-6.45 24.84-7.04 61.04-7.67 132.54 4.69 6.2 12.56 11.1 21.45 13.1 8.92 2.1 18.12 1.1 25.02-2.4 30.9-64.4 46.2-97.2 51.3-122.4 5-24.35 1.1-44.04-7.4-83.08z m108.1 4.03c-2.1 0.1-4.3 0.29-6.4 0.75-6.7 1.43-12.5 4.83-16.1 8.86l12 18.62 19.1-4.11 3.2-21.88c-3.3-1.5-7.4-2.34-11.8-2.24z m120.7 9.43l-38.6 12.54c-5.1 39.63-7.2 59.59-0.2 83.39 7.3 24.7 25.5 55.9 61.8 117.4 7.2 3 16.5 3.1 25.2 0.3 8.7-2.8 16.1-8.4 20.2-15.1-6.8-71-10.5-107-19.1-131.2-8.3-23.39-21.8-38.29-49.3-67.33zM277.64 104.45999999999998l-17.6 3.78L292.84 260.74l17.6-3.7z m36.6 170.18l-17.6 3.7 3.1 14.4c2.8-1 5.7-1.9 8.6-2.5 2.9-0.7 5.9-1.1 9-1.3zM115.95999999999998 290.43999999999994l-3.28 14.2 17.51 4.1 3.29-14.2c-3-0.3-5.98-0.7-8.89-1.4-2.93-0.7-5.82-1.6-8.63-2.7zM448.84 299.34c-2.7 1.3-5.5 2.5-8.4 3.4-2.8 0.9-5.8 1.6-8.7 2.1l4.5 13.9 17.1-5.5zM319.44 306.84c-2.4 0.1-4.9 0.4-7.3 1-9 1.9-16.9 6.7-21.7 12.8-0.5 71.4-0.5 107.6 5.6 132.5 5.9 24.1 17.8 40.3 42.1 72l39.6-8.5c9.2-38.9 13.4-58.5 8.8-82.9-4.7-25.2-19.6-58.2-49.4-123.1-5-2.6-11.2-4-17.7-3.8zM108.60999999999997 322.23999999999995l-35.13 152 17.53 4 35.11-151.9z m350.33 8.2l-17.1 5.5 48.2 148.4 17.2-5.6zM68.65999999999997 491.64L56.439999999999976 509.94c3.47 4.1 9.26 7.6 15.89 9.1 6.61 1.6 13.34 1 18.26-1.1l-2.89-21.9z m444.78 4l-18.6 6-1 22.1c5.2 1.7 11.9 1.7 18.4-0.4 6.5-2.1 11.9-6 15-10.4z" /></svg>