<svg xmlns="http://www.w3.org/2000/svg" width="100%" height="100%" viewBox="0 0 583.68 583.68"><path d="M58.74999999999997 50.989999999999974v55.19C88.77999999999997 127.02999999999997 134.92999999999998 156.14 175.53999999999996 184.23999999999998c21.1 14.6 40.7 28.9 55.7 41.8 15.1 12.8 26.1 23 29.5 35.7l0.3 1v1c0.4 15.2 3.7 25.2 7.9 31.2s9.1 8.6 15.6 9.5c12.9 1.9 32.2-6 47.3-19.2 15-13.2 25-30.9 24.2-44.2-0.4-6.6-2.9-12.4-9.4-18.1-6.4-5.7-17.3-11.1-33.9-14.6-12-2.5-27.8-11.4-49.3-24.3-21.5-12.8-47.5-29.5-74.5-47.2-47.4-31.24-96.84-64.79-130.19-85.85zM227.73999999999998 53.839999999999975c17.6 11.41 48.1 31.99 79.9 57.23C356.53999999999996 149.83999999999997 407.23999999999995 200.23999999999998 416.53999999999996 238.03999999999996v0.1c2.4 10 3.5 36.8 2.8 69.2-0.7 32.3-2.7 70.9-5.2 108-3 45.2-6.6 87.9-8.9 114.5h18.1c2.3-26.8 5.8-68.8 8.8-113.3 2.4-37.2 4.5-76 5.2-108.9 0.7-32.8 0.4-58.8-3.4-73.8v-0.1C422.14 185.83999999999997 368.73999999999995 136.53999999999996 318.84 96.95999999999998 297.64 80.14999999999998 276.93999999999994 65.34999999999998 260.14 53.839999999999975zM53.839999999999975 178.53999999999996v24.5c48.95 44.6 118.5 101.7 163.9 134.3-10.6 58.8-8.6 132.7-7 192.5h18c-1.7-61.9-3.5-138.3 7.6-194.7l1.2-5.8-4.8-3.4C184.93999999999997 292.23999999999995 103.42999999999998 224.83999999999997 53.839999999999975 178.53999999999996z m317.3 33l8 79.6c8.5-4.9 13.8-10.8 17-17 4.3-8.6 4.8-18.4 2.4-28.2-3.9-15-15.2-28.6-27.4-34.4z m-18.5 87.5c-2.6 1.7-6.8 5.8-13.2 10.2-11.8 8.2-31.4 15.8-66.1 13.8-0.8 8.1 2.6 15.2 10.2 22.5 9.4 9.2 25.4 17.2 44.2 21.4l3 0.7 2 2.4c4.5 5.6 5.7 11.6 7.5 20.1 1.8 8.5 3.4 19.1 4.8 31.1 2.8 24.1 4.9 54 6.4 83.2 0.4 8.6 0.8 17.1 1.1 25.4h29c-1.2-53.3-0.6-113.2 5.2-176.4 0.1-12.3-0.5-24.3-4.4-33.7-3.9-9.4-10.4-16.4-25-21.5-1.9-0.7-3.5 0-4.7 0.8z m-76.6 63.9c0 3.2 0.1 6.4 0.3 9.6 0.7 13.6 3.3 25.7 7.2 30.8l1.9 2.5-0.4 124H302.84l2.1-127.3 2.3-2.5c5.7-6.2 8.2-11.5 10-17.3-15.9-4.3-30.2-10.9-41.2-19.8z" /></svg>