<svg xmlns="http://www.w3.org/2000/svg" width="100%" height="100%" viewBox="0 0 583.68 583.68"><path d="M291.84 51.839999999999975C200.64 51.839999999999975 24.849999999999973 227.03999999999996 91.84999999999997 371.84c32.8 67.2 64.59 89.6 96.99 144h23c-23.7-72.7-108.09-117.2-98.99-190.1C123.24999999999997 243.23999999999998 211.83999999999997 163.83999999999997 291.84 147.83999999999997c80 16 168.6 95.4 179 177.9 9.1 72.9-75.3 117.4-99 190.1h23c32.4-54.4 64.2-76.8 97-144C558.8399999999999 227.03999999999996 383.03999999999996 51.839999999999975 291.84 51.839999999999975z m120 188.4l-81.1 60.8 70.9-10.1z m-239.8 0.1l10.1 50.6 70.8 10.1zM291.84 302.53999999999996c-39.2 26.1-49.5 30.7-98.6 43.1L291.84 528.8399999999999l98.6-183.2c-49.1-12.4-59.4-17-98.6-43.1z m-23.5 98.5l16 48-17 5.6-16-48z m47 0l17 5.6-16 48-17-5.6z" /></svg>