<svg xmlns="http://www.w3.org/2000/svg" width="100%" height="100%" viewBox="0 0 583.68 583.68"><path d="M291.84 107.13999999999997L50.559999999999974 451.84H533.14z m0 31.4l21 30-21 30-21-30z m-32 45.7l21 30-21 30-21-30z m64 0l21 30-21 30-21-30z m-86.7 32.4l-9.3 13.4 21 30-21 29.9-21-30zM355.84 229.93999999999997l21 30-21 30-21-30z m-64 0.1l21 29.9-21 30-21-30z m-88.6 35l-7.4 10.7 21 30-21 29.9-21-30zM387.84 275.64l21 30-21 30-21-30z m-128 0.1l21 30-21 29.9-21-29.9z m64 0l21 30-21 29.9-21-29.9z m-154.3 37.6l-5.7 8.1 21 30-21 29.9-21-30z m245.9 1.8l25.4 36.2-21 30-21-29.9 21-30zM227.83999999999997 321.44l21 30-21 29.9-21-29.9z m64 0l21 30-21 29.9-21-29.9z m64 0l21 30-21 29.9-21-29.9zM134.34999999999997 363.53999999999996l-2.52 3.6 21.01 30L127.12999999999998 433.84h-42z m315.19 0.4l49 69.9h-42L430.84 397.14l21-30zM195.83999999999997 367.14l21 30-21 29.9-21-29.9z m64 0l21 30-21 29.9-21-29.9z m64 0l21 30-21 29.9-21-29.9z m64 0l21 30-21 29.9-21-29.9z m-224 45.8l14.6 20.9h-29.2z m64 0l14.6 20.9h-29.2z m64 0l14.6 20.9h-29.2z m64 0l14.6 20.9h-29.2z m64 0l14.6 20.9h-29.2z" /></svg>