<svg xmlns="http://www.w3.org/2000/svg" width="100%" height="100%" viewBox="-35.84 -35.84 583.68 583.68"><path d="M440.783 22.424c-2.382.04-4.63.42-6.646 1.178l-148.725 93.875-125.28 165.15a557.495 557.495 0 011.65 13.713L145.435 302 52.56 424.432a38.188 26.876 37.184 0130.288 9.912 38.188 26.876 37.184 0118.03 28.566l219.278-289.056-1.943-31.5 12.213 23.632 140.47-88.664c7.383-9.426 8.96-18.574 7.038-26.62l-15.998 5.54L472.48 39.27c-2.533-3.414-5.665-6.433-9.13-8.93-7.054-5.082-15.42-8.035-22.567-7.916zM52.705 438.676a30.876 21.73 37.184 00-1.857.023 30.876 21.73 37.184 00-14.244 6.763 30.876 21.73 37.184 0011.464 35.974 30.876 21.73 37.184 0037.735 1.348 30.876 21.73 37.184 00-11.47-35.973 30.876 21.73 37.184 00-21.628-8.136zm1.762 15.146a14.803 10.418 37.184 01.004 0 14.803 10.418 37.184 0111.26 3.89 14.803 10.418 37.184 015.497 17.247 14.803 10.418 37.184 01-18.09-.647 14.803 10.418 37.184 01-5.498-17.247 14.803 10.418 37.184 016.827-3.244z"/></svg>