<svg xmlns="http://www.w3.org/2000/svg" width="100%" height="100%" viewBox="0 0 583.68 583.68"><path d="M152.43999999999997 140.83999999999997c40 45.9 60.4 98.4 60.4 151 0 52.6-20.4 105.1-60.4 151H227.83999999999997c34.1 0 81.9-34 119.3-71.4 18.7-18.6 35.1-37.9 46.6-53.3 5.8-7.6 10.4-14.4 13.4-19.4 1.4-2.5 2.5-4.7 3.2-6.1 0.1-0.4 0.2-0.5 0.2-0.8 0-0.3-0.1-0.5-0.2-0.9-0.6-1.4-1.7-3.5-3.2-6-3-5.1-7.5-11.8-13.2-19.5-11.3-15.4-27.5-34.6-46.1-53.2C310.64 174.83999999999997 262.93999999999994 140.83999999999997 227.83999999999997 140.83999999999997h-75.4zM51.839999999999975 186.83999999999997v18h122.2c-3-6.1-6.3-12.1-9.9-18H51.839999999999975z m400 82c-12.8 0-23 10.2-23 23s10.2 23 23 23 23-10.2 23-23-10.2-23-23-23z m40 14c0.6 2.9 1 5.9 1 9 0 3.1-0.4 6.1-1 9h40v-18h-40zM51.839999999999975 378.84v18h112.3c3.6-5.9 6.9-11.9 9.9-18H51.839999999999975z" /></svg>