<svg xmlns="http://www.w3.org/2000/svg" width="100%" height="100%" viewBox="0 0 583.68 583.68"><path d="M225.23999999999998 79.19999999999997l-20.3 10.18c0 32.03 0.8 87.86 13.9 130.96 58.3 14.2 87.7 14.2 146 0 13.3-43 13.9-86.54 14-130.96l-20.4-10.18c-4.4 5.74-11.7 15.04-21.8 26.57-7.2 8.16-14.8 16.36-22.1 22.8-3.6 3.22-7.1 6-10.6 8.17-3.6 2.2-7.1 4.1-12.1 4.1s-8.5-1.9-12.1-4.1c-3.5-2.17-7-4.95-10.6-8.17-7.3-6.44-14.9-14.64-22.1-22.8-10.1-11.53-17.4-20.83-21.8-26.57z m-8.6 159.04L93.13999999999997 485.34c0.28 1.1 0.8 2.3 2.16 3.8 2 2.3 5.58 5.1 10.61 7.7 10.08 5.4 25.72 10.3 44.73 14.2 38 7.8 89.7 11.8 141.2 11.8 51.5 0 103.2-4 141.2-11.8 19-3.9 34.7-8.8 44.7-14.2 5.1-2.6 8.6-5.4 10.6-7.7 1.4-1.5 1.9-2.7 2.2-3.8L367.03999999999996 238.23999999999998c-58 13.9-92.4 13.9-150.4 0z" /></svg>