<svg xmlns="http://www.w3.org/2000/svg" width="100%" height="100%" viewBox="0 0 583.68 583.68"><path d="M291.715 65.24599999999998A9 9 0 0 0 282.84 74.36999999999998v118.314l-15.188 18.97C268.442 217.25599999999997 268.84 222.70999999999998 268.84 227.83999999999997v11.156l23-28.75 23 28.75V227.83999999999997c0-5.13 0.398-10.583 1.188-16.188L300.84 192.68499999999997V74.36999999999998a9 9 0 0 0-9.125-9.124zM211.83999999999997 156.83999999999997c-4.204 0-14.86 3.97-26.688 12.063-11.828 8.094-25.28 19.814-38.125 33.468-25.688 27.31-48.756 62.726-54.343 91.19-7.464 38.02-11.432 81.626-11.532 119.342-0.1 37.717 4.43 70.268 10.75 82.907 0.458 0.913 2.002 2.488 6.47 3.717 4.466 1.23 11.21 1.775 19.187 1.313 15.95-0.925 36.805-5.69 57.06-13.406 20.257-7.717 40-18.395 54.126-30.438C242.87299999999996 444.953 250.83999999999997 432.09 250.83999999999997 419.84V227.83999999999997c0-13.92-4.043-33.063-11.375-47.625C232.13299999999998 165.65299999999996 222.67199999999997 156.83999999999997 211.83999999999997 156.83999999999997z m160 0c-10.832 0-20.293 8.813-27.625 23.375C336.883 194.777 332.84 213.92 332.84 227.83999999999997v192c0 12.25 7.967 25.113 22.094 37.156 14.127 12.043 33.87 22.72 54.125 30.438 20.255 7.716 41.11 12.48 57.06 13.406 7.977 0.462 14.722-0.084 19.19-1.313 4.466-1.228 6.01-2.804 6.467-3.718 6.32-12.64 10.85-45.19 10.75-82.908-0.1-37.716-4.067-81.32-11.53-119.343-5.588-28.464-28.656-63.88-54.344-91.19-12.845-13.653-26.297-25.374-38.125-33.468C386.698 160.80999999999997 376.044 156.83999999999997 371.84 156.83999999999997z" /></svg>