<svg xmlns="http://www.w3.org/2000/svg" width="100%" height="100%" viewBox="0 0 583.68 583.68"><path d="M291.84 58.839999999999975c-75.556 0-137 61.444-137 137v0.008c0.038 42.262 19.614 82.002 52.756 107.857L152.313 524.8399999999999h279.054l-55.35-221.402c33.076-25.838 52.76-65.38 52.823-107.584V195.83999999999997c0-75.556-61.444-137-137-137z m0 18c65.824 0 118.993 53.164 119 118.986-0.06 38.516-18.74 74.6-50.154 96.88l-5.016 3.56L408.313 506.84H175.36699999999996l52.625-210.504-5.013-3.558C191.55199999999996 270.47999999999996 172.87599999999998 234.36999999999998 172.83999999999997 195.83999999999997v-0.008C172.84399999999997 130.00799999999998 226.01399999999998 76.83999999999997 291.84 76.83999999999997z m14.508 44.69c-1.983-0.01-3.966-0.003-5.95 0.03-30.615 0.485-61.19 6.227-91.69 16.77-3.66 5.217-6.824 10.77-9.378 16.608-1.183 2.468-2.232 4.98-3.166 7.523 30.858-12.783 61.51-20.36 91.987-22.376-25.746 5.47-45.19 28.43-45.19 55.756 0 31.374 25.627 57 57 57 31.375 0 57-25.626 57-57 0-28.278-20.82-51.876-47.9-56.26 24.755 0.443 49.475 4.616 74.22 12.733-4.17-8.416-9.554-16.247-15.872-23.258-20.307-4.896-40.67-7.39-61.06-7.524zM299.96 156.83999999999997c21.647 0 39 17.354 39 39s-17.353 39-39 39c-21.645 0-39-17.354-39-39 0-4.494 0.76-8.8 2.14-12.807 0.83 0.772 1.705 1.465 2.597 2.037 4.008 2.572 8.673 3.77 13.676 3.77s9.67-1.198 13.676-3.77C297.05499999999995 182.49999999999997 300.84 177.83999999999997 300.84 171.83999999999997s-3.784-10.66-7.79-13.23c-0.484-0.31-0.978-0.597-1.48-0.868 2.702-0.585 5.507-0.902 8.39-0.902z m-102.915 72.994c3.308 9.103 7.833 17.772 13.428 25.645 36.963 15.02 72.75 24.08 107.156 25.694 10.122 0.475 20.12 0.278 29.972-0.613 8.763-5.944 16.48-13.31 22.963-21.65-16.736 3.786-34.09 5.127-52.092 4.284-37.77-1.77-78.5-13.594-121.428-33.36z" /></svg>