<svg xmlns="http://www.w3.org/2000/svg" width="100%" height="100%" viewBox="0 0 583.68 583.68"><path d="M171.83999999999997 76.77799999999998l-88 44V219.83999999999997h176V120.77699999999997l-88-44zM515.8399999999999 83.83999999999997l-240 80v32l240 64V83.83999999999997zM99.83999999999997 131.83999999999997h31.406l0.313 64H99.83999999999997V131.83999999999997z m47.406 0h48l0.313 64h-48l-0.314-64z m64 0H243.83999999999997v64h-32.28l-0.314-64zM115.15199999999997 236.83999999999997L54.933999999999976 522.8399999999999h233.812l-0.094-0.438 0.125 0.094c7.327-10.582 26.22-22.905 46.032-28.22 10.19 18.728 29.766 30.564 53.03 30.564h4.125l2.688-3.125c11.347-13.123 19.005-24.272 35.843-27.906C440.78 513.5319999999999 462.10299999999995 524.8399999999999 483.84 524.8399999999999h5.25l2.594-4.563c8.78-15.503 11.158-17.993 28.844-28.75l-9.375-15.375c-16.44 10-24.038 17.37-32.063 30.344-15.508-1.633-29.613-11.073-34.75-25.656l-2.344-6.625-7 0.656c-26.106 2.45-39.755 18.452-51.062 31.72-17.555-1.233-29.83-10.616-35.688-25.97l-2.656-6.967-7.375 1.343c-20.77 3.78-40.482 13.32-54.094 25.813L228.52799999999996 236.83999999999997H115.15299999999998zM122.83999999999997 291.84h18v48H122.83999999999997v-48z m80 128h18v48h-18v-48z" /></svg>