<svg xmlns="http://www.w3.org/2000/svg" width="100%" height="100%" viewBox="0 0 583.68 583.68"><path d="M292.43399999999997 58.619999999999976c-30.506 0.17-59.178 22.692-80.125 62.97-0.06 0.11-0.13 0.2-0.19 0.313L81.40299999999998 350.65299999999996l-0.218 0.375C56.851999999999975 389.306 51.71999999999998 425.392 66.80999999999997 451.90299999999996c15.08 26.496 48.627 40.125 93.5 37.906h265.124c44.872 2.218 78.418-11.41 93.5-37.908 15.092-26.516 9.97-62.618-14.375-100.906l-0.22-0.344L372.215 121.18499999999997c-0.075-0.147-0.175-0.26-0.25-0.406-20.513-40.036-49.052-62.324-79.53-62.157z m-0.28 18.845c13.573-0.132 26.512 6.475 38.155 17.78 11.558 11.227 22.392 27.263 33.092 48.19L480.09 346.058l0.22 0.342c12.067 18.934 20.57 36.022 24.905 51.563 4.362 15.64 4.54 30.2-1.5 42.438-6.04 12.238-17.97 20.85-33.75 25.687-15.675 4.806-35.56 6.383-60.406 5.125H175.74499999999998c-22.9 1.157-41.964-0.16-57.406-4.5-15.56-4.373-27.874-12.147-34.78-23.906-6.91-11.76-7.756-26.4-3.845-42.408 3.886-15.904 12.366-33.698 25.28-53.968l115.47-201.938c0.063-0.12 0.125-0.222 0.188-0.344 10.85-20.89 21.77-36.997 33.375-48.343 11.673-11.413 24.55-18.213 38.125-18.345z m0.186 18.688c-7.503 0.072-15.765 3.758-25.25 13.03-9.485 9.274-19.69 23.944-30.03 43.907l-0.095 0.188-0.094 0.156-70.718 123.687 61.625 0.19-31.25-18.032 9.344-16.188 51.064 29.5c1.282-1.427 2.68-2.77 4.125-4.03l-29.532-51.126 16.187-9.344 29.563 51.188c1.785-0.586 3.63-1.04 5.5-1.407v-59.186h18.687v59.375c1.824 0.393 3.603 0.896 5.344 1.5l29.717-51.47 16.157 9.344-29.813 51.625c1.34 1.206 2.62 2.49 3.814 3.843l51.687-29.813 9.345 16.188-51.688 29.843c0.566 1.702 1.04 3.44 1.407 5.22h59.656v18.688h-59.656c-0.367 1.79-0.84 3.538-1.406 5.25l51.687 29.812-9.344 16.156-51.624-29.78c-1.2 1.364-2.495 2.656-3.844 3.874l29.782 51.594-16.156 9.344L306.84 347.86999999999995c-1.75 0.608-3.54 1.105-5.375 1.5v59.283h-18.688v-59.094c-1.88-0.375-3.74-0.874-5.53-1.47l-29.532 51.188-16.188-9.344 29.563-51.188c-1.43-1.27-2.764-2.63-4.03-4.062l-51.19 29.562-9.343-16.156L226.83999999999997 330.59H135.58999999999997l-14.375 25.125-0.125 0.22-0.125 0.186C108.60199999999998 375.46999999999997 101.03699999999998 391.88399999999996 97.86999999999998 404.84c-3.164 12.957-2.05 21.92 1.814 28.5 3.865 6.58 11.153 11.875 23.718 15.406 12.567 3.532 30.025 4.95 51.876 3.813l0.25-0.033H409.808l0.25 0.032c23.734 1.233 41.893-0.468 54.436-4.314 12.544-3.845 19.08-9.322 22.438-16.125 3.358-6.802 3.88-16.225 0.28-29.124-3.597-12.898-11.31-28.78-22.874-46.875l-0.094-0.186-0.125-0.188-116.936-202.97-0.094-0.217-0.125-0.22c-10.195-20.01-20.283-34.584-29.656-43.688-9.375-9.103-17.467-12.572-24.97-12.5z m-0.656 179.53c-10.807 0-20.39 6.403-25 15.376l-2.594 5.093-5.75-0.032-102.438-0.342-9.25 16.125H264.55999999999995l2.655 4.937c4.736 8.86 13.8 14.906 24.47 14.906 15.47 0 28.03-12.56 28.03-28.03 0-15.473-12.56-28.032-28.03-28.032z" /></svg>