<svg xmlns="http://www.w3.org/2000/svg" width="100%" height="100%" viewBox="0 0 583.68 583.68"><path d="M291.84 81.83999999999997c-27.713 84-55.438 84-55.438 140 0 0 27.725 28 55.438 28 27.712 0 55.438-28 55.438-28 0-56-27.726-56-55.438-140z m3.25 168.063A112 110.852 90 0 0 180.99599999999998 361.84a112 110.852 90 0 0 221.688 0A112 110.852 90 0 0 295.09 249.902zM144.11999999999998 383.34c-48 28-34.137 52.25-92.28 118.5 85.856-17.75 99.72 6.5 147.72-21.5 0 0 10.137-38.25-3.72-62.5-13.856-24.25-51.72-34.5-51.72-34.5z m295.44 0S401.69599999999997 393.59 387.84 417.84c-13.856 24.25-3.72 62.5-3.72 62.5 48 28 61.863 3.75 147.72 21.5-58.144-66.25-44.28-90.5-92.28-118.5z" /></svg>