<svg xmlns="http://www.w3.org/2000/svg" width="100%" height="100%" viewBox="0 0 583.68 583.68"><path d="M68.96499999999997 55.245999999999974L171.33999999999997 164.05999999999997l81-23.157 18.72-5.344-7.564 17.936-46.125 109.78 134.282-70 26.157-13.655L364.27599999999995 205.83999999999997 292.34 345.09l91.25-57.125 22.97-14.375-9.22 25.47-34.625 95.624 71-36.375 21.188-10.845L446.746 369.84l-33.937 93.063 45.124-6.688 4.53-0.656 3.313 3.155 64.313 61.47-30.5-80.5 23.313-46.908-72.5 39.532 51.062-141.158-91.188 47.47 72.344-142.813-128.217 82.81L457.715 105.90299999999998 274.87 204.52999999999997l30.44-99.563-103.845 25.25-132.5-74.97zM53.994999999999976 66.61999999999998l77.876 108.25-31.124 75.532 94.125-46.78-98.905 166.812 190.25-99.656-101.03 185.406 140.25-79.063-46.94 102.22 106.5-53-45.655 92.28 86.5-14.467 93.47 31.562-63.158-60.344-56.125 8.314-15.53 2.312 5.374-14.75 31.158-85.437-70.907 36.31-21.124 10.814 8.094-22.313 33.47-92.436-97.22 60.875-28.938 18.092L260.05999999999995 366.84l74.06-143.344-131.06 68.313-22.97 12 10.03-23.908 48.626-115.687-67.75 19.375-5.5 1.563-3.875-4.157L53.99699999999997 66.61999999999998z" /></svg>