<svg xmlns="http://www.w3.org/2000/svg" width="100%" height="100%" viewBox="0 0 583.68 583.68"><path d="M292.36999999999995 54.933999999999976c-28.53 0-51.842 23.313-51.842 51.843 0 13.565 5.28 25.95 13.875 35.22l-110.532 78.53h296.814l-110.594-78.25c8.755-9.297 14.156-21.8 14.156-35.5 0-28.53-23.344-51.843-51.875-51.843z m0 18.687c18.432 0 33.19 14.727 33.19 33.157 0 9.792-4.177 18.538-10.845 24.594l-22.72-16.06-22.25 15.81c-6.497-6.044-10.53-14.687-10.53-24.343 0-18.43 14.726-33.156 33.156-33.156zM132.27999999999997 239.83999999999997l3.343 11.875 65.376 232.75 1.906 6.813h178.876l1.937-6.813 65.375-232.75L452.43399999999997 239.83999999999997H132.277z m24.656 18.688h270.812L367.61999999999995 472.59H217.08999999999997l-60.156-214.063z m146.187 16.687c29.012 47.73-76.807 70.517-60.155 133.75 11.2 25 29.146 41.394 50.22 42.03 48.84 0 73.57-53.528 60.75-99.842-4.847 24.07-24.934 34.845-34.876 22.375-24.115-30.248 36.436-56.768-15.94-98.313zM163.08999999999997 509.56v18.686h258.594V509.56H163.08999999999997z" /></svg>