<svg xmlns="http://www.w3.org/2000/svg" width="100%" height="100%" viewBox="0 0 583.68 583.68"><path d="M56.559999999999974 55.17999999999998v39.72L187.43999999999997 168.73999999999998l94.9-45.12L186.83999999999997 55.17999999999998H56.559999999999974z m196.98 0.1L348.84 112.61999999999998C262.34 153.83999999999997 170.93999999999997 197.23999999999998 93.36999999999998 234.14l161.57 86.1 59.6-39.2-39.4-34.9c82.3-40.6 168.3-83.5 241.8-119.93l-93.6-70.93H253.53999999999996zM397.73999999999995 206.33999999999997l-76.5 37.9 44.9 25.3c-54.2 35.6-111.8 73.6-160.6 105.7l325.2 154.8L343.34 382.84c57.6-32.3 117.5-65.9 168.8-94.6l-114.4-81.9z m13.2 160.1l-33.9 18.9 139.3 74.3c-35.1-31.1-70.3-62.2-105.4-93.2z" /></svg>