<svg xmlns="http://www.w3.org/2000/svg" width="100%" height="100%" viewBox="0 0 583.68 583.68"><path d="M78.49199999999998 172.55599999999998v32.494a24.107 24.107 0 0 0 8.168 18.1h270.5v-50.406a7.302 7.302 0 0 0-7.146-5.978h-81.512a19.33 19.33 0 0 0-18.172-12.768h-58.948c6.208 25.003-12.71 49.193-38.472 49.193S108.22999999999998 178.99999999999997 114.43999999999997 153.99999999999997H96.97599999999997c-10.223 0.035-18.49 8.335-18.485 18.558z m409.04 1.554l2.65-3.38 7.896-11.474c3.297-4.768 8.94-4.768 12.236 0l7.615 14.802h8.835v29.344H373.84999999999997V174.10999999999999h113.703zM74.91399999999997 431.904c18.09 15.597 51.33 13.933 71.643 1.366 21.22-13.127 4.11-31.993 32.13-67.606 8.595-10.932 31.41-42.446 51.47-71.06 6.174-8.814 18.035-3.522 43.602 6.607 6.363 1.39 14.48 1.79 18.578 2.132 19.016 0 42.086-17.687 44.218-32.423 2.173-15.016-6.757-19.388 2.828-21.993 3.328-0.905 9.26-5.045 9.67-9.067h-41.027c8.512 4.59 14.145 12.518 14.145 21.49 0 14.186-13.99 25.68-31.295 25.68-17.306 0-31.294-11.474-31.294-25.68 0-8.993 5.633-16.9 14.145-21.49H113.59399999999998c23.19 20.206 11.09 43.812 2.806 55.412l-52.158 73.24c-14.555 20.452-5.557 49.4 10.672 63.392z m21.14-38.28c0-11.868 14.347-17.81 22.74-9.418 8.39 8.39 2.448 22.74-9.42 22.74-7.357 0-13.32-5.964-13.32-13.32z m188.2-117.13c-9.727-7.012-7.78-25.204-5.018-36.613h12.8c-7.575 8.55-11.452 27.26-7.783 36.615zM175.84799999999998 163.47999999999996c0 20.447-24.72 30.684-39.177 16.227-14.456-14.456-4.22-39.176 16.227-39.176 12.674 0 22.95 10.276 22.95 22.95z" /></svg>