<svg xmlns="http://www.w3.org/2000/svg" width="100%" height="100%" viewBox="0 0 583.68 583.68"><path d="M291.84 56.339999999999975c-45.5 0-74.137 18.276-92.676 44.23C180.62399999999997 126.52499999999998 172.83999999999997 160.83999999999997 172.83999999999997 191.33999999999997v151h238v-151c0-30.5-7.785-64.815-26.324-90.77C365.976 74.61599999999999 337.34 56.339999999999975 291.84 56.339999999999975z m8.756 11.885c1.285 0 2.554 0.018 3.812 0.047A235.5 184 90 0 0 181.74999999999997 196.176c1.113-28.645 9.045-59.746 26.17-83.72 18.54-25.955 47.176-44.23 92.676-44.23zM140.83999999999997 360.34v46h302v-46H140.83999999999997z m78 64v39h-7v32h7v32h18v-32h7v-32h-7v-39h-18z m128 0v39h-7v32h7v32h18v-32h7v-32h-7v-39h-18z" /></svg>