<svg xmlns="http://www.w3.org/2000/svg" width="100%" height="100%" viewBox="0 0 583.68 583.68"><path d="M232.83999999999997 76.83999999999997c-40.8 0-78.1 23.07-105.76 61.8-4.37 6.1-8.48 12.6-12.31 19.5 1.03 2 2.05 4 3.06 6.1 9.95 20.9 20.01 46 11.35 67-3.5 8.4-10.59 13.7-17.91 17-7.31 3.2-15.18 4.6-22.4 4.6-1.46 0-2.96-0.1-4.46-0.2-1.66 12.7-2.53 25.8-2.53 39.2 0 60.1 17.49 114.4 45.2 153.2C154.73999999999998 483.73999999999995 192.03999999999996 506.84 232.83999999999997 506.84c40.8 0 78.1-23.1 105.8-61.8 10.1-14.2 18.8-30.4 25.8-48.2H232.83999999999997v-18h272c20 0 20-46 0-46H232.83999999999997v-18h150.1c0.6-7.5 0.9-15.2 0.9-23 0-60.1-17.5-114.4-45.2-153.2C310.94 99.90999999999997 273.64 76.83999999999997 232.83999999999997 76.83999999999997zM88.87999999999997 148.64c-3.76 6.2-8.38 14.3-12.71 23.4-9.25 19.3-15.17 42.2-10.97 52.4 1.08 2.6 4 5.3 8.56 7.3 4.56 2 10.41 3.1 15.12 3.1 4.71 0 10.56-1.1 15.12-3.1 4.57-2 7.48-4.7 8.57-7.3 4.19-10.2-1.73-33.1-10.97-52.4-4.34-9.1-8.96-17.2-12.72-23.4zM168.83999999999997 250.83999999999997c13.7 0 25 11.3 25 25s-11.3 25-25 25-25-11.3-25-25 11.3-25 25-25z m128 0c13.7 0 25 11.3 25 25s-11.3 25-25 25-25-11.3-25-25 11.3-25 25-25z m-64 168c10.7 0 20.5 3.2 28 8.8 7.6 5.7 13 14.3 13 24.2 0 9.9-5.4 18.5-13 24.2-7.5 5.6-17.3 8.8-28 8.8s-20.5-3.2-28-8.8c-7.6-5.7-13-14.3-13-24.2 0-9.9 5.4-18.5 13-24.2 7.5-5.6 17.3-8.8 28-8.8z" /></svg>