<svg xmlns="http://www.w3.org/2000/svg" width="100%" height="100%" viewBox="-35.84 -35.84 583.68 583.68"><path d="M41 19v228h25.5c6.96 61.3 40.5 114.1 88.4 145.4l12.1 61.3-95.35-46.4a9.798 9.145 26.09 00-4.66-10.5 9.798 9.145 26.09 00-13.18 2.9 9.798 9.145 26.09 003.67 12.8 9.798 9.145 26.09 0010.55-.1L144.5 496h216.6l33.4-22.3a8.636 11.2 54.07 00.3 1.9 8.636 11.2 54.07 0012.8 3.6 8.636 11.2 54.07 007.2-13 8.636 11.2 54.07 00-3.3-3.9l36.5-24.5-89.6 26.2 32.4-57.5-76.5 43.6 6.2-39.1c66.9-25.1 116.3-88.1 125-164H471V19h-30v155.4C420.1 88.03 345.3 23.87 256 23.87S91.93 87.95 71 174.2V19H41zm215 20.54c96.6 0 175.2 81.96 175.2 183.76 0 76.6-44.5 142-107.8 169.7l4.5-28.1L272 464c.1-47.1 1.5-159.3 34.6-204.7 40.7-16.6 68.4-52.4 68.4-93.3 0-56.3-52.6-103-119-103s-119 46.7-119 103c0 40.9 27.7 76.7 68.4 93.3 33.1 45.4 34.5 157.6 34.6 204.7l-51.8-128 .7 52.9-52.5-90 14.1 71.2c-42.3-33.6-69.66-86.7-69.66-146.8C80.84 121.5 159.4 39.54 256 39.54zM170.7 306.3a11.2 8.634 63.66 00-.9.1 11.2 8.634 63.66 00-5.7 11.9 11.2 8.634 63.66 0011.6 9.4 11.2 8.634 63.66 005.8-12 11.2 8.634 63.66 00-10.8-9.4zm181 30.9a8.998 12.75 27.2 00-10.5 7.9 8.998 12.75 27.2 002.2 15.5 8.998 12.75 27.2 0013.8-7.3 8.998 12.75 27.2 00-2.2-15.4 8.998 12.75 27.2 00-3.3-.7zM34.96 348.5a11.06 5.999 47.86 00-3.04 1 11.06 5.999 47.86 002.97 12.2 11.06 5.999 47.86 0011.87 4.2 11.06 5.999 47.86 00-2.97-12.3 11.06 5.999 47.86 00-8.83-5.1zm363.14 26.3a6.561 14.62 40.07 00-12 7.8 6.561 14.62 40.07 00-4.4 15.4 6.561 14.62 40.07 0014.5-7 6.561 14.62 40.07 004.4-15.4 6.561 14.62 40.07 00-2.5-.8zm81.2 59.7a7.525 16.82 50.66 00-15.5 7.8 7.525 16.82 50.66 00-5.7 15.7 7.525 16.82 50.66 0018.7-7.1 7.525 16.82 50.66 005.7-15.7 7.525 16.82 50.66 00-3.2-.7zm-404.79 18a13.68 8.998 27.81 00-7.87 3.8 13.68 8.998 27.81 007.9 14.3 13.68 8.998 27.81 0016.3-1.5 13.68 8.998 27.81 00-7.9-14.4 13.68 8.998 27.81 00-8.43-2.2z"/></svg>