<svg xmlns="http://www.w3.org/2000/svg" width="100%" height="100%" viewBox="0 0 583.68 583.68"><path d="M303.14 106.77999999999997C238.53999999999996 161.53999999999996 191.83999999999997 201.14 159.03999999999996 259.14l-15.6-8.8c3.4-6.1 7-12 10.7-17.7-21.47 1.2-42.56 3.5-58.36 7.6-20.2 11.6-31.89 29.1-42.36 49.6v213.9c63.72-19.4 125.92-44 181.32-53.9 19.7-8.5 39.7-14.7 55.6-24.6 14.4-18.6 21.6-43.1 24.7-61.8-1.9-0.7-5.2-1.3-9.2-1.2-7.8 0.3-18 3.2-26.8 10.2-7.6 5.1-14.4 18.3-22.8 21.1-30.1 6.7-57.7 9.9-85 5-11.1-30.2-13.9-68 0-94.3 54.2-38.7 124.1-137.2 168.7-195.78-6.5-20.28-28.6-8.48-36.8-1.68z m-84.9-0.4C178.03999999999996 142.23999999999998 155.83999999999997 176.93999999999997 126.05999999999997 216.73999999999998c13.38-1.5 27.38-2.4 41.08-2.8 25.2-28.7 44-52.8 66.9-84.54 0-11.53-6.2-19.04-15.8-23.02z m116.2 70.26L300.84 189.03999999999996c-8.9 11.5-17.9 22.7-27.1 34.1 4.6 1.6 9.4 3.1 13.3 4.5 19.9-9.4 39.4-19.5 59.3-28.8 6.7-2.3 9.9-9.9 8.8-15.2-3.1-9.1-13-8.2-20.7-7z m-72.9 61.3c-12.6 15.1-25.9 30.6-40.6 47 19.8 2.3 33.5 0.7 51.8-0.9-0.1 12.1-2.1 25.2-0.7 36.3 0.8 6.3 2.9 11.7 8.1 19.3 8.6 4.8 17.9 3.8 26.7 1.2 2.1-15.4 4.6-31.9 4.6-46.9 0-16.8-3.1-31-11.3-40-2.4-2.5-9.5-6-19.2-9.4-5.8-2-12.5-4.2-19.4-6.6zM387.84 284.84c-17.2 0-31 13.8-31 31s13.8 31 31 31 31-13.8 31-31-13.8-31-31-31z" /></svg>