<svg xmlns="http://www.w3.org/2000/svg" width="100%" height="100%" viewBox="0 0 583.68 583.68"><path d="M291.84 116.83999999999997c-7.7 0-15.5 0.33-23 0.95V154.83999999999997h46V117.78999999999998c-7.5-0.62-15.3-0.95-23-0.95z m-41 3.07c-4.8 0.76-9.5 1.65-13.9 2.69-14.7 3.46-26.3 8.71-32.8 14.04l-22.4 140.3L250.83999999999997 376.84V172.83999999999997h-23v-18h23V119.90999999999997z m82 0V154.83999999999997h23v18h-23v238.4c30.6 2.8 54.5 19.5 73.7 40.5 11 12.2 20.6 25.8 29.6 39.4l-56.6-354.5c-6.5-5.33-18.1-10.58-32.8-14.04-4.4-1.04-9.1-1.93-13.9-2.69zM75.17999999999998 126.62999999999998L60.49999999999997 137.03999999999996l20.89 29.6 15.14-9.9-21.35-30.11z m54.81 29.71l-56.04 36.7L118.39999999999998 218.83999999999997l17.54-11.5-5.95-51zM268.84 172.83999999999997v46h46v-46h-46z m-124.8 50.8l-15.3 10 48.9 69.2-30.1 188.3c9-13.6 18.6-27.2 29.6-39.4 19.2-21 43.1-37.7 73.7-40.5v-2.8l-73.2-105.7 4.1-26-37.7-53.1zM268.84 236.83999999999997v46h46v-46h-46z m0 64v46h46v-46h-46z m0 64v38l5.5 8H314.84v-46h-46z m206 23v23h-33.2l2.9 18H474.84v23h18v-64h-18z m-215 41c-29 0-50.3 14.1-69.3 35.1-15.5 17-28.9 38.4-42.1 58.9h286.8c-13.2-20.5-26.6-41.9-42.1-58.9-19-21-40.3-35.1-69.3-35.1h-37l12.4 17.9-14.8 10.2-19.5-28.1H259.84z" /></svg>