<svg xmlns="http://www.w3.org/2000/svg" width="100%" height="100%" viewBox="0 0 583.68 583.68"><path d="M323.426 51.13699999999997l3.504 110.963 31.537-110.963h-35.04z m-95.78 0.238l-1.75 236.047-170.533-43.33L166.32599999999996 413.53l-88.77-5.174 114.432 112.357-44.466-75.867L222.73599999999996 452.84l-51.748-109.94 110.114 79.956-12.635-185.23 0.002 0.003 75.212 170.57 75.816-89.95-6.62 154.582 60.173-39.978-20.388 79.486 75.756-142.787-75.924 1.94L523.16 191.70999999999998l-131.402 73.08-12.264-139.69-65.41 140.336-86.435-214.06h-0.003zM81.34299999999998 79.93499999999997L75.19499999999996 111.77999999999997 190.12499999999997 253.83999999999997h0.002l-77.6-166.836-31.185-7.07z m422.27 24.776l-31.184 7.07-43.738 107.37 81.068-82.59-6.147-31.85zM315.048 439.45c-40.176 0-72.708 32.537-72.708 72.71 0 5.725 0.636 10.706 1.887 16.05 7.25-32.545 36.097-56.655 70.82-56.655 34.82 0 63.673 23.97 70.82 56.656 1.218-5.277 1.888-10.404 1.888-16.05 0-40.175-32.536-72.71-72.71-72.71z" /></svg>