<svg xmlns="http://www.w3.org/2000/svg" width="100%" height="100%" viewBox="0 0 583.68 583.68"><path d="M274.84 298.84h43v213h-43zM482.84 71.83999999999997v211H96.83999999999997V71.83999999999997zM334.84 233.17v-25.14l46-23.35-7.24-14.27L343.28 185.83999999999997A59.58 59.58 0 1 0 230.83999999999997 158.26a61.11 61.11 0 0 0 9.45 31.91l-32.75-14.9-6.63 14.57L245.83999999999997 210.26999999999998v25l-38.74 19.66 7.24 14.27L264.28999999999996 243.83999999999997h55.37l52.76 24 6.63-14.56z m-13.45-44l-2.55 2.31V227.83999999999997h-57v-36.36l-2.17-2.34a43.88 43.88 0 0 1 0.17-61.76 43.59 43.59 0 1 1 61.54 61.75z m-46.76-1.23a11.12 11.12 0 1 0-11.12-11.12 11.12 11.12 0 0 0 11.12 11.08z m26 16.94l-9.93-17.15L280.84 204.83999999999997z m16.95-28.06a11.12 11.12 0 1 0-11.12 11.12 11.12 11.12 0 0 0 11.14-11.16zM191.01999999999998 420.59c-24.85 0-45 3.81-45 8.5 0 4.69 20.15 8.5 45 8.5s45-3.81 45-8.5c0-4.69-20.18-8.5-45-8.5zM482.39 367.84c-16.29 0-29.5 2.19-29.5 4.89 0 2.7 13.21 4.89 29.5 4.89s29.5-2.19 29.5-4.89c0-2.7-13.21-4.89-29.5-4.89z m-390.1-36.75c-11.32 0-20.5 1.34-20.5 3s9.18 3 20.5 3 20.5-1.34 20.5-3-9.18-3-20.5-3z m280.22-0.42c-11.32 0-20.5 1.43-20.5 3.2 0 1.77 9.18 3.2 20.5 3.2s20.5-1.43 20.5-3.2c0-1.77-9.17-3.2-20.5-3.2z m62.69 122.41c-39.76 0-72 7.81-72 17.45s32.24 17.45 72 17.45 72-7.81 72-17.45-32.23-17.45-72-17.45z" /></svg>