<svg xmlns="http://www.w3.org/2000/svg" width="100%" height="100%" viewBox="0 0 583.68 583.68"><path d="M339.84 60.839999999999975c-9.496 0-17.002 7.504-17.002 17S330.344 94.84199999999998 339.84 94.84199999999998c9.496 0 17.002-7.506 17.002-17.002 0-9.496-7.506-17-17.002-17z m-9 50.809V236.83999999999997h-95.377l-13.314 79.885L291.84 330.662l69.691-13.937L348.84 240.57799999999997V111.64799999999998A34.63 34.63 0 0 1 339.84 112.83999999999997a34.63 34.63 0 0 1-9-1.191zM264.03999999999996 172.83999999999997l-38.557 46H312.84v-46zM90.83999999999997 215.24199999999996v139.405l-14.621 13.209 22.738 23.492 164.969-5.906-3.014-29.946-15.199-15.705-35.639-7.127-8.543-1.709 4.266-25.597-42.064-16.569L108.83999999999997 338.383v-123.14z m128.07 11.438l-23.379 27.892 17.844 5.323zM364.96299999999997 227.83999999999997l5.342 32.055 17.844-5.323c-5.456-6.278-8.806-10.732-23.186-26.732z m54.984 60.95l-42.064 16.568 4.266 25.597-44.182 8.836-15.2 15.705-3.013 29.946 164.969 5.906 22.738-23.492z m-265.744 28.687l48 48-12.726 12.726-48-48z m275.274 0l12.726 12.726-48 48-12.726-12.726z m-240.453 88.119l-20.323 0.396-24.914 49.83L131.83999999999997 451.84l-32 32 48 16 32-32-18.805-6.268z m205.906 0.547l27.715 55.43L403.84 467.84l32 32 48-16-32-32-11.947 3.982-24.473-48.945z" /></svg>