<svg xmlns="http://www.w3.org/2000/svg" width="100%" height="100%" viewBox="0 0 583.68 583.68"><path d="M283.63 54.57399999999998C173.807 53.43599999999998 55.71399999999997 132.77999999999997 55.56999999999998 280.37l21.403-51.395c-9.485 72.28-7.75 147.236 38.79 202.502L74.03999999999998 413.195c39.24 69.774 126.333 90.976 200.855 92.51C159.95 465.73999999999995 103.70999999999998 378.11699999999996 99.75199999999998 282.332c-6.722-211.78 260.658-217.694 340.78-75.77-3.417-19.492-8.623-38.426-15.618-56.11 77.406 89.155 59.293 214.875-21.29 253.036-24.25 3.95-48.93 12.06-60.954 19-58.548 33.802-6.27 126.536 53.225 92.188 9.44-5.45 23.404-17.303 36.494-31.352 64.36-59.52 98.1-118.24 93.108-188.94-6.52 29.1-19.175 57.904-35.623 84.683 63.158-146.822 7.956-263.89-144.838-301.354 12.097 5.835 23.503 13.63 33.873 23.36-57.415-23.752-131.123-22.62-186.884 3.505 28.066-26.2 64.776-43.73 102.2-49.642-3.52-0.205-7.054-0.325-10.597-0.362z m-19.74 160.202l-19.843 100.566c-2.958 3.81-5.64 6.852-9.033 9.94l-25.688-49.096-22.705 11.93 31.37 60.945c4.48 11.474 10.02 20.68 15.162 28.524 28.063 42.803 64.547 35.252 95.303 9.555l87.28-48.452-12.71-22.498-66.136 36.94c-1.517-3.154-3.266-6.552-5.056-9.51l67.818-64.96-17.54-18.695-66.47 63.762c-2.356-2.318-4.238-4.527-6.765-6.54l45.084-78.085-22.733-13.127-45.864 78.297c-3.79-1.31-7.72-2.2-11.595-2.745l15.656-81.896-25.533-4.854z" /></svg>