<svg xmlns="http://www.w3.org/2000/svg" width="100%" height="100%" viewBox="0 0 583.68 583.68"><path d="M111.21099999999997 64.21699999999997L62.866999999999976 88.38899999999998C78.46299999999997 135.16299999999995 97.29099999999997 191.44599999999997 116.27999999999997 242.71499999999997c19.925 53.796 40.201 101.86 55.05 124.133l1.243 1.865L187.98499999999999 522.8399999999999h91.267C262.818 517.49 250.83999999999997 501.98999999999995 250.83999999999997 483.84c0-4.871 0.865-9.551 2.445-13.896-1.628-3.134-3.22-6.442-4.812-9.913-7.642-16.655-14.483-37.267-20.32-58.84-10.19-37.656-17.3-77.733-18.946-104.525-9-14.793-17.445-31.369-25.547-49.025-26.904-58.636-49.91-129.09-72.449-183.424z m361.258 0c-22.54 54.335-45.545 124.788-72.45 183.424-8.1 17.656-16.546 34.232-25.546 49.025-1.645 26.792-8.756 66.87-18.945 104.526-5.838 21.572-12.679 42.184-20.32 58.84-1.593 3.47-3.185 6.778-4.813 9.912A40.593 40.593 0 0 1 332.84 483.84c0 18.15-11.978 33.65-28.412 39h91.267l15.413-154.127 1.244-1.865c14.848-22.272 35.124-70.337 55.049-124.133 18.988-51.269 37.816-107.552 53.412-154.326l-48.344-24.172zM291.84 140.83999999999997c-18.687 0-36.025 10.529-49.244 29.035C229.37699999999998 188.38099999999997 220.83999999999997 214.64999999999998 220.83999999999997 243.83999999999997c0 29.19 8.537 55.459 21.756 73.965S273.15299999999996 346.84 291.84 346.84s36.025-10.529 49.244-29.035C354.303 299.299 362.84 273.03 362.84 243.83999999999997c0-29.19-8.537-55.459-21.756-73.965S310.527 140.83999999999997 291.84 140.83999999999997z m-59.787 192.8c3.19 19.66 7.752 41.702 13.475 62.848 5.662 20.928 12.321 40.816 19.304 56.036 0.062 0.134 0.126 0.26 0.188 0.394a41.119 41.119 0 0 1 13.547-7.844c-6.666-14.749-12.609-33.366-17.422-51.416-4.294-16.1-7.53-30.494-9.094-41.494-7.36-4.977-14.082-11.254-19.998-18.523z m119.574 0c-5.916 7.27-12.639 13.547-19.998 18.524-1.565 11-4.8 25.393-9.094 41.494-4.813 18.05-10.756 36.667-17.422 51.416a41.12 41.12 0 0 1 13.547 7.844c0.062-0.134 0.126-0.26 0.188-0.394 6.983-15.22 13.642-35.108 19.305-56.036 5.722-21.146 10.284-43.189 13.474-62.847z m-79.375 28.259c1.624 8.15 3.737 17.575 6.283 27.123 3.799 14.245 8.528 29.19 13.305 41.347 4.777-12.157 9.506-27.102 13.305-41.347 2.546-9.548 4.66-18.972 6.283-27.123-6.28 1.91-12.833 2.941-19.588 2.941-6.755 0-13.307-1.031-19.588-2.941zM291.84 460.84c-12.81 0-23 10.19-23 23s10.19 23 23 23 23-10.19 23-23-10.19-23-23-23z" /></svg>