<svg xmlns="http://www.w3.org/2000/svg" width="100%" height="100%" viewBox="0 0 583.68 583.68"><path d="M96.24599999999998 192.52799999999996L59.839999999999975 295.59 239.77799999999996 359.84c-0.238-8.905 1.562-18.017 5.625-26.594 7.02-14.822 19.54-25.345 33.906-30.187l-24.44-53.908-19.124 54.125-33-72.718-19.094 54.093-33-72.72-19.968 56.532-34.438-75.938z m399.781 0l-34.468 75.937-19.97-56.53-33 72.718-19.094-54.094-33 72.718-19.125-54.125-31.936 70.468c-2.292-0.53-4.602-0.85-6.906-0.936-0.462-0.018-0.915-0.03-1.375-0.03-14.28-0.007-28.097 8.283-34.875 22.592-9.33 19.695-1.36 42.64 17.5 51.656 18.86 9.017 41.483 0.758 50.812-18.937 1.127-2.38 1.99-4.805 2.625-7.25l199.22-71.125-36.408-103.063zM235.61999999999998 213.86999999999998v18.69h120.595v-18.69H235.61999999999998z m50.126 35.345v52.906h18.688v-52.905h-18.688z m10.25 90.563c9.678 0 17.53 7.824 17.53 17.5 0.002 9.675-7.854 17.53-17.53 17.53-9.676 0-17.53-7.853-17.53-17.53 0-9.678 7.852-17.5 17.53-17.5zM135.36999999999998 372.80699999999996c-50.15 13.628-82.56 33.83-82.56 56.22 0 41.017 106.544 74.343 237.718 74.343 131.173 0 237.687-33.327 237.687-74.342 0-22.313-32.124-42.595-81.97-56.22 17.232 8.878 27.533 19.275 27.533 30.47 0 32.127-82.313 58.53-183.25 58.53-100.938 0-182.657-26.403-182.657-58.53 0-11.257 10.095-21.56 27.5-30.47z" /></svg>