<svg xmlns="http://www.w3.org/2000/svg" width="100%" height="100%" viewBox="0 0 583.68 583.68"><path d="M237.14 56.50999999999998l20.2 27.27 84.3 54.26 12.7-20.14-84.4-54.37-32.8-7.02z m109.3 0.12l-32.7 7-5.2 3.34 20.5 13.17 17.4-23.51zM253.33999999999997 102.53999999999998l-24 15.44 12.7 20.16 33.3-21.43-22-14.17z m127.3 7.41l-34.9 55.59 17.8 11.5 34.9-55.57-17.8-11.52z m-177.6 0.1l-17.8 11.52 34.9 55.57 17.8-11.5-34.9-55.59z m199.5 38.89L389.84 169.14l29.5 19 12.7-20.2-29.5-19z m-221.4 0.1l-29.5 19 12.7 20.2 29.5-19-12.7-20.2zM74.32999999999998 220.83999999999997l-10 30H215.33999999999997l-10-30H74.32999999999998z m304.01 0l-10 30h151l-10-30h-131zM76.83999999999997 268.84v30h126v-30H76.83999999999997z m304 0v30h126v-30H380.84zM60.839999999999975 316.84v206h175.1L250.83999999999997 403.44c0.3-21.7 20.6-32.6 41-32.6s40.7 10.9 41 32.6L347.73999999999995 522.8399999999999H522.8399999999999V316.84H60.839999999999975z m272 86.6l-0.1-0.7 0.1 1.1v-0.4z m-82 0v0.4l0.1-1.1-0.1 0.7z m-103-61.4l6.8 7.9c9.9 11.6 19.4 17 26.3 19.7 6.8 2.6 10.2 2.5 10.2 2.5h9v9c0 13.8-5.7 35.1-14.2 55-4.3 10-9.3 19.3-15.1 26.8-5.9 7.4-13.1 13.9-23 13.9s-17.12-6.5-22.98-13.9c-5.87-7.5-10.82-16.8-15.08-26.8-8.52-19.9-14.24-41.2-14.24-55v-9h9s3.39 0.1 10.24-2.5c6.86-2.7 16.34-8.1 26.26-19.7l6.8-7.9z m288 0l6.8 7.9c9.9 11.6 19.4 17 26.3 19.7 6.8 2.6 10.2 2.5 10.2 2.5h9v9c0 13.8-5.7 35.1-14.2 55-4.3 10-9.3 19.3-15.1 26.8-5.9 7.4-13.1 13.9-23 13.9s-17.1-6.5-23-13.9c-5.8-7.5-10.8-16.8-15.1-26.8-8.5-19.9-14.2-41.2-14.2-55v-9h9s3.4 0.1 10.2-2.5c6.9-2.7 16.4-8.1 26.3-19.7l6.8-7.9z m-288 26.7c-9.6 9.2-18.95 14.7-26.52 17.6-2.51 1-4.84 1.7-6.96 2.2 1.67 10.4 5.99 26.6 11.96 40.5 3.86 9.1 8.37 17.3 12.62 22.7 4.3 5.5 8 7.1 8.9 7.1 0.9 0 4.6-1.6 8.9-7.1 4.2-5.4 8.8-13.6 12.6-22.7 6-13.9 10.3-30.1 12-40.5-2.1-0.5-4.5-1.2-7-2.2-7.5-2.9-16.9-8.4-26.5-17.6z m288 0c-9.6 9.2-19 14.7-26.5 17.6-2.5 1-4.9 1.7-7 2.2 1.7 10.4 6 26.6 12 40.5 3.8 9.1 8.4 17.3 12.6 22.7 4.3 5.5 8 7.1 8.9 7.1 0.9 0 4.6-1.6 8.9-7.1 4.2-5.4 8.8-13.6 12.6-22.7 6-13.9 10.3-30.1 12-40.5-2.1-0.5-4.5-1.2-7-2.2-7.5-2.9-16.9-8.4-26.5-17.6z" /></svg>