<svg xmlns="http://www.w3.org/2000/svg" width="100%" height="100%" viewBox="0 0 583.68 583.68"><path d="M291.84 56.839999999999975c-66.72 0-121 54.28-121 121s54.28 121 121 121 121-54.28 121-121S358.56 56.839999999999975 291.84 56.839999999999975z m0 18c56.992 0 103 46.008 103 103s-46.008 103-103 103-103-46.008-103-103S234.84799999999998 74.83999999999997 291.84 74.83999999999997z m0 11.75l-69.4 52.05 10.8 14.4L291.84 109.08999999999997l58.6 43.95 10.8-14.4L291.84 86.58999999999997z m0 48l-69.4 52.05 10.8 14.4 58.6-43.95 58.6 43.95 10.8-14.4L291.84 134.58999999999997z m0 48l-69.4 52.05 10.8 14.4 58.6-43.95 58.6 43.95 10.8-14.4-69.4-52.05zM89.40199999999997 220.83999999999997l-7 14h66.876l-7-14H89.40199999999997z m352 0l-7 14h66.875l-7-14h-52.875zM76.83999999999997 252.83999999999997v46h78v-46H76.83999999999997z m352 0v46h78v-46h-78zM99.83999999999997 266.84h32v18H99.83999999999997v-18z m352 0h32v18h-32v-18zM74.32599999999996 316.84l-10 30h455.028l-10-30H74.32599999999996zM60.839999999999975 364.84v158h199v-87h64v87h199V364.84H60.839999999999975z m55 14h32v18H115.83999999999997v-18z m80 0h32v18h-32v-18z m80 0h32v18h-32v-18z m80 0h32v18h-32v-18z m80 0h32v18h-32v-18z" /></svg>