<svg xmlns="http://www.w3.org/2000/svg" width="100%" height="100%" viewBox="0 0 583.68 583.68"><path d="M179.83999999999997 62.269999999999975L112.82999999999997 100.93999999999997v77.4l20.09 11.6 39.32-62.87 15.2 9.57-38.9 62.3 31.3 18.1 67-38.7V166.83999999999997h90v11.5l67 38.7 31.3-18.1-38.9-62.3 15.2-9.57 39.3 62.87 20.1-11.6V100.96999999999997l-67-38.7-67 38.67V112.83999999999997h-90V100.96999999999997zM246.83999999999997 130.83999999999997h90v18h-90z m22 90v68.3l14 21V515.8399999999999h18V310.14l14-21V220.83999999999997z m-17.6 74.2L153.83999999999997 368.14 187.03999999999996 517.8399999999999l17.6-4L173.83999999999997 375.53999999999996l87.3-65.5z m81.2 0l-9.9 15 87.3 65.5L379.03999999999996 513.8399999999999l17.6 4L429.84 368.14z" /></svg>