<svg xmlns="http://www.w3.org/2000/svg" width="100%" height="100%" viewBox="0 0 583.68 583.68"><path d="M291.85799999999995 58.802999999999976l-61.72 61.723c19.433-6.937 40.36-10.725 62.175-10.725 21.288 0 41.733 3.61 60.767 10.23l-61.222-61.227zM125.30999999999997 128.20299999999997v86.996c18.093-37.91 48.707-68.695 86.495-86.997H125.30999999999997z m247.51 0c37.723 18.27 68.3 48.98 86.403 86.8v-86.8H372.82z m-80.537 4.11C202.69499999999996 132.313 129.83999999999997 205.17299999999997 129.83999999999997 294.768c0 89.593 72.855 162.453 162.443 162.453 89.59 0 162.444-72.86 162.444-162.452 0-89.594-72.855-162.455-162.444-162.455z m0 21.062c56.318 0 104.84 32.766 127.588 80.315-26.38-29.476-71.3-49.262-122.634-50.473 4.36 7.187 8.307 14.898 11.797 23.047-11.635 7.206-19.388 20.083-19.388 34.775 0 21.123 16.023 38.503 36.578 40.654 0.245 4.43 0.377 8.905 0.377 13.42 0 42.575-11.1 81.19-29.35 111.185 51.34-1.216 96.266-21.01 122.64-50.497-22.74 47.57-71.272 80.357-127.607 80.357-56.247 0-104.718-32.683-127.504-80.134 26.407 29.37 71.254 49.07 122.482 50.273-18.323-29.996-29.33-68.48-29.33-111.187 0-42.716 11.012-81.802 29.342-111.896-51.22 1.2-96.063 20.89-122.475 50.252 22.793-47.43 71.253-80.095 127.483-80.095zM118.08599999999997 232.58799999999997l-62.17 62.172 62.166 62.172c-6.933-19.43-10.72-40.356-10.72-62.168 0-21.815 3.79-42.743 10.724-62.176z m348.502 0.14c6.903 19.394 10.674 40.273 10.674 62.036 0 21.76-3.77 42.636-10.67 62.027l62.025-62.03-62.03-62.03zM125.30999999999997 374.33v86.99h86.483c-37.782-18.302-68.392-49.084-86.482-86.99z m333.913 0.198c-18.102 37.815-48.674 68.52-86.39 86.793h86.39v-86.794zM230.14999999999998 469.00399999999996l61.708 61.715 61.212-61.22c-19.03 6.618-39.472 10.227-60.757 10.227-21.81 0-42.735-3.79-62.164-10.723z" /></svg>