<svg xmlns="http://www.w3.org/2000/svg" width="100%" height="100%" viewBox="0 0 583.68 583.68"><path d="M289.62699999999995 60.51199999999997c-19.46 0.194-39.213 2.816-58.88 8.086C104.87199999999997 102.32599999999998 30.175999999999974 231.70799999999997 63.90299999999998 357.58 90.13999999999997 455.49199999999996 174.25399999999996 522.4259999999999 269.56999999999994 531.463c-2.958-41.58-1.013-83.51 3.913-125.894l18.564 2.155c-4.923 42.36-6.768 83.89-3.67 124.77 21.273 0.298 42.942-2.294 64.508-8.073 125.873-33.728 200.57-163.107 166.842-288.98-28.458-106.206-125.012-175.98-230.1-174.93z m16.275 20.44c14.34 29.823 20.8 57.25 20.018 78.46l-28.49 33.598-24.106-39.1c2.935-20.556 14.04-45.806 32.578-72.96z m-70.878 64.343c6.723 4.115 12.998 8.327 18.853 12.602l-0.035 0.02 33.687 54.646-3.012 38.916-42.422-44.933c-4.54-17.19-7.108-37.92-7.072-61.252z m132.892 10.047c-3.324 22.093-8.647 41.478-15.303 57.404l-49.336 38.545 3.088-39.923 37.993-44.8c7.29-3.923 15.14-7.683 23.558-11.225z m-146.58 68.082c6.227 2.28 12.15 4.674 17.752 7.16L282.56999999999994 276.64l-3.173 41.01-37.19-20.933c-10.98-15.844-18.874-40.415-20.87-73.293z m152.74 11.465c-6.607 29.925-17.328 51.98-29.798 66.18l-46.223 17.692 3.27-42.23 44.452-34.73c8.73-2.622 18.176-4.946 28.3-6.913zM214.93599999999998 311.23999999999995c6.876 0.675 13.44 1.575 19.703 2.66l43.167 24.297-3.887 50.236c-21.094-5.566-43.688-30.975-58.984-77.194z m139.238 9.957c3.844-0.022 7.784 0.04 11.812 0.185-22.9 46.967-50.93 69.05-73.464 68.892l3.937-50.894 46.718-17.883c3.573-0.178 7.237-0.28 10.996-0.3z" /></svg>