<svg xmlns="http://www.w3.org/2000/svg" width="100%" height="100%" viewBox="0 0 583.68 583.68"><path d="M492.86999999999995 248.87699999999998L452.354 136.07999999999998C460.84 113.07199999999997 469.10999999999996 103.91499999999998 473.36699999999996 100.47299999999997c3.162-2.563 5.922-3.534 8.185-2.904 4.134 1.168 8.775 7.7 12.278 17.456 11.266 31.347 10.377 87.094-0.96 133.85z m-324.287-17.9l312.804 34.84-43.82-122.1L181.39799999999997 115.17999999999998c2.593 36.102-1.913 79.913-12.817 115.796zM164.81999999999996 113.33999999999997l-45.06-5.02 37.03 103.123c7.773-32.06 10.625-68.357 8.03-98.102zM137.29999999999995 63.02999999999997c-3.793 3.1-10.77 10.666-18.25 28.566L438.07 127.13999999999997c5.333-13.695 11.37-24.702 17.88-32.495L144.63599999999997 59.96999999999997c-2.573-0.29-5.415 1.51-7.338 3.06z m280.63 283.338l0.61 169.352 66.352-53.63-0.61-169.35zM402.003 523.74L82.45999999999998 488.14599999999996 81.83999999999997 314.236l319.553 35.594zM252.56599999999997 373.488a9.777 9.777 0 0 0 5.168-9.405c-0.248-6.367-5.364-12.092-11.43-12.857h-0.125c-6.14-0.693-10.904 3.927-10.646 10.335a13.973 13.973 0 0 0 5.767 10.543l-2.17 25.073 17.57 2.005z m219.28-91.983l-307.46-34.25v59.54l242.712 27.037zM94.14999999999998 298.96999999999997l54.34 6.058v-49.98z" /></svg>