<svg xmlns="http://www.w3.org/2000/svg" width="100%" height="100%" viewBox="0 0 583.68 583.68"><path d="M185.35799999999998 114.21999999999997c-6.55 0.117-12.45 1.736-17.35 4.91-7.465 4.84-11.765 12.904-13.063 21.34-2.595 16.874 4.747 36.355 19.862 52.31C189.92 208.73299999999998 213.48299999999998 220.83999999999997 243.83999999999997 220.83999999999997h2.438l-9.118-18.234c-22.194-1.554-38.46-10.777-49.287-22.205-11.885-12.545-16.543-28.064-15.138-37.19 0.702-4.564 2.402-7.25 5.062-8.974 2.66-1.724 7.113-2.875 14.756-1.326 13.078 2.65 34.233 13.948 62.205 39.284L256.11 170.83999999999997h23.408c-35.31-34.8-62.215-51.278-83.39-55.57-2.715-0.55-5.363-0.887-7.925-1.006-0.96-0.045-1.91-0.06-2.845-0.043z m212.964 0c-0.935-0.016-1.885 0-2.845 0.044-2.562 0.12-5.21 0.455-7.924 1.006-21.176 4.292-48.082 20.77-83.39 55.57h23.406l1.352 1.354c27.972-25.336 49.127-36.633 62.205-39.284 7.643-1.55 12.096-0.398 14.756 1.326 2.66 1.725 4.36 4.41 5.062 8.973 1.405 9.126-3.253 24.645-15.138 37.19-10.827 11.43-27.093 20.652-49.287 22.206L337.402 220.83999999999997H339.84c30.357 0 53.92-12.106 69.033-28.06 15.115-15.955 22.457-35.436 19.862-52.31-1.298-8.436-5.598-16.5-13.063-21.34-4.9-3.174-10.8-4.793-17.35-4.91zM263.56999999999994 188.83999999999997l-8.78 8.777L265.404 218.83999999999997h52.875l10.61-21.223-8.777-8.777h-56.54zM108.83999999999997 236.83999999999997v46h142v-46H108.83999999999997z m160 0v270h46V236.83999999999997h-46z m64 0v46h142v-46H332.84z m-192 64v206h110V300.84H140.83999999999997z m192 0v206h110V300.84H332.84z" /></svg>