<svg xmlns="http://www.w3.org/2000/svg" width="100%" height="100%" viewBox="0 0 583.68 583.68"><path d="M447.58799999999997 68.54999999999998v18h17.38v-18h-17.38zM354.262 79.22999999999998l-0.236 17.998 37.9 0.496 0.236-17.998-37.9-0.496zM126.26599999999998 91.89699999999998c-11.4 0-29.341 1.019-36.014 4.861-6.673 3.842-9.066 7.926-9.066 11.072 0 3.146 8.188 13.902 14.861 17.744 6.529 3.76 16.45 6.487 27.553 6.604 2.346-3.682 5.705-6.728 9.398-8.98 9.823-4.72 18.875-6.877 28.274-6.368 0.28-0.816 0.416-1.598 0.416-2.328 0-3.146-2.394-7.23-9.067-11.072-6.673-3.842-14.955-11.533-26.355-11.533z m138.248 15.142l-0.362 18 24.833 0.496 0.359-17.998-24.83-0.498zM158.04499999999996 134.73999999999998c-6.469 0-12.202 1.71-15.676 3.828-3.473 2.118-4.119 3.87-4.119 4.73 0 0.86 0.646 2.614 4.12 4.732 3.473 2.119 9.206 3.827 15.675 3.827 6.469 0 12.204-1.708 15.678-3.827 3.473-2.118 4.119-3.872 4.119-4.732 0-0.86-0.646-2.612-4.12-4.73-3.473-2.119-9.208-3.829-15.677-3.829z m152.31 20.728l-0.665 17.988 13.408 0.496 0.666-17.99-13.408-0.494z m145.854 19.115l-0.36 17.998 24.833 0.496 0.36-17.996-24.833-0.498z m-222.283 21.852l-0.217 17.996 41.166 0.498 0.219-17.998-41.168-0.496z m157.723 29.799l-0.36 17.996 24.832 0.496 0.36-17.996-24.832-0.496z m-284.098 0.75l-25.824 0.992 0.691 17.986 25.824-0.992-0.691-17.986z m71.543 7.195l-0.36 17.996 24.83 0.496 0.362-17.996-24.832-0.496z m278.414 40.72l-0.229 18 38.989 0.497 0.23-17.998-38.99-0.498z m-250.604 0.997l-0.359 17.996 24.832 0.496 0.36-17.996-24.833-0.496z m193.008 16.634v18h19.367v-18h-19.367z m-86.73 7.204l-0.346 17.322-26.154-0.219V301.46999999999997h-14.899v15.246l-11.888-0.1-0.149 18 59.682 0.496 0.142-17.248 18.084 0.362 0.36-17.996-24.832-0.496z m-168.68 44.447l-0.285 17.998 31.365 0.496 0.285-18-31.365-0.494z m-2.006 51.896l-0.21 17.998 42.255 0.496 0.211-17.998-42.256-0.496z m331.95 3.973l-0.237 17.998 37.9 0.498 0.237-18-37.9-0.496z m-388.717 5.96l-0.36 17.997 24.83 0.496 0.362-17.996-24.832-0.496z m175.804 5.96l-0.359 17.996 24.83 0.496 0.361-17.996-24.832-0.496z m177.72 18.43c-9.345 0.074-26.338 6.446-35.243 8.128-12.398 2.482-31.904 11.792-31.258 28.196 2.831 13.349 32.7 22.318 45.01 21.869 25.967-5.83 57.524-34.77 25.795-57.516-1.106-0.487-2.575-0.691-4.305-0.677z m-195.599 11.367l-0.359 17.998 24.832 0.496 0.36-17.996-24.833-0.498z m236.454 36.008l-0.528 17.992 33.819 0.994 0.527-17.992-33.818-0.994z m-409.555 18.38l-0.799 17.983 22.348 0.992 0.799-17.982-22.348-0.993z" /></svg>