<svg xmlns="http://www.w3.org/2000/svg" width="100%" height="100%" viewBox="0 0 583.68 583.68"><path d="M141.73999999999998 54.839999999999975l25.7 58.8c0.7 0.1 1.9 0.26 3.9 0 4.7-0.57 11.8-2.8 18.5-5.87 6.6-3.07 13-7.02 16.8-10.3 1.5-1.33 2.2-2.27 2.7-2.96L192.03999999999996 54.839999999999975h-50.3z m75.3 57.39c-5.6 4.5-12.4 8.53-19.7 11.88-7.4 3.39-15 6.05-22.2 7.16l16.3 37.47 25.8 1.3 16.4-19.7-16.6-38.11z m110.1 18.32c-19.5-0.35-46.8 5.79-75.6 15.59l3.1 7.2-26.5 31.7-2.9 3.4-45.8-2.3-3.3-7.5c-44.48 23.5-78.61 50.6-74.43 69C138.64 372.84 204.14 484.34 261.84 532.54l11.5-13.8c-51-42.7-115.5-149.4-152.01-268.6L163.33999999999997 231.83999999999997c37.4 121.2 101 228.2 157.2 275.1l11.5-13.8C280.93999999999994 450.44 216.43999999999997 343.84 179.83999999999997 224.64l42.1-18.4c37.4 121.2 101 228.2 157.3 275.1l11.4-13.8c-51-42.7-115.6-149.3-152.1-268.5l42.1-18.4C318.03999999999996 301.84 381.64 408.84 437.84 455.73999999999995l11.5-13.8c-51-42.7-115.6-149.3-152.1-268.5l42.1-18.4c37.4 121.1 101 228.3 157.2 275.1l11.4-13.8C455.84 372.73999999999995 389.64 262.43999999999994 353.53999999999996 140.23999999999998c-4.3-6.49-13.7-9.47-26.4-9.69z" /></svg>