<svg xmlns="http://www.w3.org/2000/svg" width="100%" height="100%" viewBox="0 0 583.68 583.68"><path d="M294.395 60.119999999999976c-85.44 0-154.703 57.376-154.703 128.154 0 26.275 9.552 50.7 25.927 71.03L131.505 293.41999999999996l52.828 52.826 30.447-30.447v93.46h40.177V351.34999999999997h18.694v57.906h41.49V351.34999999999997h18.69v57.906h40.178V315.63l30.627 30.626 52.826-52.826-34.218-34.22c16.33-20.312 25.854-44.7 25.854-70.936 0-70.778-69.26-128.153-154.7-128.153z m-78.125 98.4c25.714 0 46.56 20.846 46.56 46.558 0 25.715-20.846 46.56-46.56 46.56-25.715 0-46.56-20.845-46.56-46.56 0-25.712 20.845-46.558 46.56-46.558z m156.2 0c25.715 0 46.56 20.846 46.56 46.558 0 25.715-20.845 46.56-46.56 46.56-25.714 0-46.56-20.845-46.56-46.56 0-25.712 20.846-46.558 46.56-46.558z m-78.075 72.275l30.845 82.17h-61.693l30.848-82.17z m-79.614 197.15v104.194H374.01V427.943H333.83v66.134H315.14v-66.134h-41.49v66.134h-18.693v-66.134H214.77999999999997z" /></svg>