<svg xmlns="http://www.w3.org/2000/svg" width="100%" height="100%" viewBox="0 0 583.68 583.68"><path d="M419.84 85.83999999999997c-14.688 0-29.365 6.747-31.676 20.23 10.285-3.726 21.404-5.66 32.533-5.693 10.456-0.03 20.915 1.62 30.696 5.01C448.71299999999997 92.35699999999997 434.28 85.83999999999997 419.84 85.83999999999997z m0.89 32.697c-10.248 0.03-20.532 1.925-29.447 5.617-6.347 2.63-13.647 6.577-18.795 11.012C367.34 139.60199999999998 364.84 143.89 364.84 147.83999999999997v52.236l110-43.334V147.83999999999997c0-3.913-2.39-8.276-7.207-12.72-4.818-4.44-11.67-8.425-17.688-11.012-8.762-3.768-18.97-5.6-29.216-5.57zM529.8399999999999 154.42199999999997L119.73499999999997 315.97999999999996c-5.35 2.733-13.294 10.738-20.874 21.96-7.634 11.304-15.202 25.66-21.79 40.543-10.3 23.274-18.013 48.48-20.917 64.373 22.138-3.977 44.664-8.047 67.347-12.112l5.723-37.95c30.852-8.914 111.01-29.017 154.287-40.42l0.28-0.56 0.634 0.317C381.407 326.59999999999997 445.59 314.017 529.8399999999999 304.155V154.42199999999997z m0 167.834c-25.687 3.027-49.473 6.31-72.91 10.152l-35.108 52.364c38.81-4.09 75.245-6.675 108.018-7.112v-55.404z m-97.424 14.397c-41.764 7.628-84.273 17.402-136.435 31.033l-18.333 36.67c41.485-6.58 82.124-12.432 120.756-16.973l34.013-50.73zM272.78 373.83c-36.766 9.856-78.698 21.625-127.913 35.66l-2.672 17.922c37.804-6.734 75.923-13.384 113.56-19.53l17.026-34.052z m65.583 39.733a3495.754 3495.754 0 0 0-24.73 3.623L316.84 453.84h18l3.523-40.277z m-95.9 14.882a6526.23 6526.23 0 0 0-24.88 4.184L220.83999999999997 469.84h18l3.623-41.395z m-96.05 16.54c-8.267 1.467-16.535 2.932-24.762 4.402L124.83999999999997 485.84h18l3.574-40.854z" /></svg>