<svg xmlns="http://www.w3.org/2000/svg" width="100%" height="100%" viewBox="0 0 583.68 583.68"><path d="M291.84 51.839999999999975A240 240 0 0 0 51.839999999999975 291.84a240 240 0 0 0 240 240 240 240 0 0 0 240-240A240 240 0 0 0 291.84 51.839999999999975z m-9 14.73v86.342c-35.304 2.47-124.423 31.35-127.033 129.928H73.44499999999996C75.83299999999997 117.66999999999997 225.35299999999998 70.13199999999998 282.84 66.56999999999998z m18 0.874c0.596 0.158 1.148 0.33 1.62 0.52 78.82 31.677 84.33 217.118 77.042 268.052l-36.498-22.813c3.486-34.36-0.902-132.647-42.164-156.877V67.44399999999997zM77.09799999999998 300.84h85.996c19.485 15.47 77.33 34.583 166.902 25.46l37.7 23.563C199.22999999999996 368.86999999999995 97.09199999999998 327.265 77.09999999999997 300.84z" /></svg>