<svg xmlns="http://www.w3.org/2000/svg" width="100%" height="100%" viewBox="0 0 583.68 583.68"><path d="M106.23199999999997 435.63l29.973 33.63 29.973-33.63V168.43999999999997H106.27399999999997V435.63z m29.973-24.75a13.662 13.662 0 1 1-13.662 13.663 13.662 13.662 0 0 1 13.652-13.673zM417.48999999999995 168.43999999999997V435.63l29.974 33.63 29.973-33.63V168.43999999999997h-59.904z m29.974 269.757a13.662 13.662 0 1 1 13.663-13.662 13.662 13.662 0 0 1-13.663 13.662zM339.67999999999995 181.765V467.17999999999995l29.972 33.63 29.973-33.63V168.438H352.89a77.875 77.875 0 0 1-13.21 13.347z m29.972 260.634a13.662 13.662 0 1 1-13.662 13.66 13.662 13.662 0 0 1 13.61-13.64z m-107.796-250v295.81L291.83 521.8399999999999l29.973-33.63V192.39999999999998a77.224 77.224 0 0 1-59.947 0z m43.636 284.722a13.662 13.662 0 1 1-13.663-13.662 13.662 13.662 0 0 1 13.662 13.662zM230.76999999999998 168.438h-46.726V467.17999999999995l29.973 33.63 29.973-33.63V181.78499999999997a77.886 77.886 0 0 1-13.22-13.347z m-16.71 301.306a13.662 13.662 0 1 1 13.662-13.662 13.662 13.662 0 0 1-13.663 13.662zM369.073 121.20799999999997a76.824 76.824 0 0 0-5.128-27.63h113.502v56.983H363.294a76.803 76.803 0 0 0 5.78-29.352zM106.23199999999997 93.57799999999997h113.502a77.024 77.024 0 0 0 0.684 56.983H106.23199999999997V93.57999999999998z m185.597 86.998a59.368 59.368 0 1 1 59.368-59.368 59.368 59.368 0 0 1-59.37 59.368z" /></svg>