<svg xmlns="http://www.w3.org/2000/svg" width="100%" height="100%" viewBox="0 0 583.68 583.68"><path d="M300.774 57.84399999999998l-5.92 29.412 29.412 5.92 1.383-6.863a9 9 0 0 1 8.699-7.35 9 9 0 0 1 8.943 10.9l-1.38 6.864 29.411 5.918 5.92-29.412-76.468-15.39z m-25.155 43.9L266.543 146.83999999999997l13.725 2.764 4.539-22.55a9 9 0 0 1 8.699-7.347c5.796-0.095 10.169 5.233 8.945 10.899l-4.539 22.548 13.727 2.762 4.539-22.549a9 9 0 0 1 8.7-7.347c5.796-0.096 10.17 5.234 8.944 10.9l-4.539 22.547 13.727 2.762 4.539-22.547a9 9 0 0 1 8.7-7.348c5.794-0.094 10.166 5.234 8.943 10.899l-4.538 22.548 13.727 2.762 9.076-45.096L275.62 101.74399999999997z m-12.627 62.742l-9.076 45.096 13.725 2.764 4.539-22.549a9 9 0 0 1 8.7-7.348c5.794-0.094 10.166 5.234 8.942 10.899l-4.537 22.549 13.727 2.761 4.537-22.548a9 9 0 0 1 8.7-7.348c5.795-0.096 10.168 5.233 8.945 10.898l-4.538 22.55 13.727 2.76 4.537-22.546a9 9 0 0 1 8.7-7.348c5.795-0.095 10.168 5.233 8.945 10.899l-4.538 22.549 13.727 2.761 9.076-45.095c-42.153-8.353-68.636-13.815-107.838-21.704z m-12.629 62.743l-9.076 45.095 13.727 2.762 4.537-22.547a9 9 0 0 1 8.7-7.35c5.796-0.095 10.17 5.234 8.944 10.901l-4.537 22.549 13.727 2.762 4.537-22.55a9 9 0 0 1 8.7-7.347c5.795-0.095 10.168 5.233 8.945 10.899l-4.538 22.548 13.727 2.762 4.537-22.547a9 9 0 0 1 8.7-7.347c5.795-0.096 10.168 5.232 8.945 10.898l-4.537 22.549 13.724 2.762 9.076-45.096c-36.53-7.244-72.7-14.626-107.838-21.703z m-12.627 62.74l-9.076 45.096 13.727 2.763 4.537-22.549a9 9 0 0 1 8.7-7.347c5.796-0.096 10.17 5.234 8.945 10.9l-4.54 22.547 13.727 2.764 4.54-22.55a9 9 0 0 1 8.698-7.347c5.796-0.095 10.17 5.233 8.946 10.899l-4.54 22.549 13.727 2.761 4.54-22.547a9 9 0 0 1 8.698-7.35c5.797-0.095 10.17 5.235 8.946 10.901l-4.54 22.549 13.727 2.762 9.076-45.096c-36.344-7.205-74.38-14.962-107.838-21.705zM225.10999999999999 352.71l-9.077 45.096 13.725 2.763 4.539-22.548a9 9 0 0 1 8.7-7.348c5.795-0.095 10.168 5.233 8.945 10.898l-4.54 22.55 13.727 2.763 4.54-22.549a9 9 0 0 1 8.698-7.348c5.796-0.095 10.17 5.233 8.946 10.899l-4.54 22.549 13.727 2.761 4.54-22.548a9 9 0 0 1 8.698-7.348c5.797-0.096 10.17 5.234 8.946 10.9l-4.54 22.55 13.725 2.76 9.076-45.095c-36.669-7.268-75.812-15.256-107.835-21.705z m-12.63 62.742l-9.076 45.096 13.727 2.764 4.54-22.55a9 9 0 0 1 8.698-7.347c5.796-0.095 10.17 5.233 8.946 10.899l-4.54 22.548 13.727 2.764 4.54-22.549a9 9 0 0 1 8.698-7.347c5.796-0.096 10.17 5.232 8.946 10.898l-4.54 22.549 13.727 2.762 4.54-22.55a9 9 0 0 1 8.698-7.347c5.797-0.096 10.17 5.234 8.946 10.9l-4.54 22.55 13.725 2.761 9.077-45.096c-36.342-7.209-70.194-14.127-107.838-21.705z m-12.626 62.742L193.28399999999996 510.84H57.839999999999975v18h178.28l0.251 0.05 0.012-0.05H525.8399999999999v-18H305.21l2.482-10.941c-36.672-7.27-75.822-15.258-107.838-21.704z m17.888 17.963c5.795-0.094 10.167 5.234 8.944 10.899l-0.801 3.783h-18.318l1.476-7.334a9 9 0 0 1 8.7-7.348z m31.37 6.313c4.918-0.081 8.798 3.746 9.117 8.369h-18.032l0.217-1.02a9 9 0 0 1 8.697-7.35z" /></svg>