<svg xmlns="http://www.w3.org/2000/svg" width="100%" height="100%" viewBox="0 0 583.68 583.68"><path d="M282.84 75.83999999999997l-74.6 161.6 74.6 24.9V75.83999999999997z m18 0v186.5l74.6-24.9L300.84 75.83999999999997z m-86.7 105.8l-136.02 17 112.02 35 24-52z m155.4 0l24 52 112.1-35-136.1-17zM61.31999999999998 212.23999999999998L165.83999999999997 342.94l104.6-65.4-209.12-65.3z m461.02 0l-209.1 65.3L417.84 342.94l104.5-130.7zM291.84 285.43999999999994L195.23999999999998 345.84h193.2L291.84 285.43999999999994zM163.83999999999997 393.84c-16 0-32.14 9-45.68 17.3-13.53 8.4-23.93 16.7-23.93 16.7l11.22 14s9.65-7.7 22.14-15.3C140.03999999999996 418.84 155.93999999999997 411.84 163.83999999999997 411.84c7.9 0 16.4 6 26.4 14s21.6 18 37.6 18 27.6-10 37.6-18 18.5-14 26.4-14c7.9 0 16.4 6 26.4 14s21.6 18 37.6 18 27.6-10 37.6-18 18.5-14 26.4-14c7.9 0 23.8 7 36.2 14.7 12.5 7.6 22.2 15.3 22.2 15.3l11.2-14s-10.4-8.3-23.9-16.7C451.94 402.84 435.84 393.84 419.84 393.84c-16 0-27.6 10-37.6 18s-18.5 14-26.4 14c-7.9 0-16.4-6-26.4-14S307.84 393.84 291.84 393.84s-27.6 10-37.6 18-18.5 14-26.4 14c-7.9 0-16.4-6-26.4-14S179.83999999999997 393.84 163.83999999999997 393.84z m0 64c-16 0-32.14 9-45.68 17.3-13.53 8.4-23.93 16.7-23.93 16.7l11.22 14s9.65-7.7 22.14-15.3C140.03999999999996 482.84 155.93999999999997 475.84 163.83999999999997 475.84c7.9 0 16.4 6 26.4 14s21.6 18 37.6 18 27.6-10 37.6-18 18.5-14 26.4-14c7.9 0 16.4 6 26.4 14s21.6 18 37.6 18 27.6-10 37.6-18 18.5-14 26.4-14c7.9 0 23.8 7 36.2 14.7 12.5 7.6 22.2 15.3 22.2 15.3l11.2-14s-10.4-8.3-23.9-16.7C451.94 466.84 435.84 457.84 419.84 457.84c-16 0-27.6 10-37.6 18s-18.5 14-26.4 14c-7.9 0-16.4-6-26.4-14S307.84 457.84 291.84 457.84s-27.6 10-37.6 18-18.5 14-26.4 14c-7.9 0-16.4-6-26.4-14S179.83999999999997 457.84 163.83999999999997 457.84z" /></svg>