<svg xmlns="http://www.w3.org/2000/svg" width="100%" height="100%" viewBox="0 0 583.68 583.68"><path d="M291.84 141.83999999999997c-33.81 0-61.887 22.69-71.25 53.438C210.37199999999999 190.05999999999997 199.09799999999998 186.83999999999997 186.83999999999997 186.83999999999997c-41.42 0-75 33.58-75 75 0 1.784 0.346 3.405 0.468 5.157C77.12399999999997 279.227 51.839999999999975 312.48999999999995 51.839999999999975 351.84c0 49.706 40.294 90 90 90h300c49.706 0 90-40.294 90-90 0-39.35-25.284-72.614-60.468-84.843 0.123-1.752 0.468-3.374 0.468-5.157 0-41.42-33.58-75-75-75-12.258 0-23.532 3.222-33.75 8.437C353.727 164.52999999999997 325.65 141.83999999999997 291.84 141.83999999999997z m-60 90l60 60 60-60 30 30-60 60 60 60-30 30-60-60-60 60-30-30 60-60-60-60z" /></svg>