<svg xmlns="http://www.w3.org/2000/svg" width="100%" height="100%" viewBox="0 0 583.68 583.68"><path d="M325.23999999999995 53.839999999999975c-1.2 1.9-1.9 3.91-2.3 5.99-1.4 8.93 4.9 18.7 17.5 26.87-40.4 19.75-61.8 52.14-52.5 79.74 7.7 22.9 35.3 38.4 71.8 40.3-3.1 28.7 14.9 50.2 41 48.8 9.2-0.5 18.6-3.9 27.2-9.7 11.7 13.7 25.5 21 39.9 21 15.9 0 31.3-9.1 43.8-25.8 5.9 1.4 12 2.1 18.2 1.9V53.839999999999975H325.23999999999995z m132.7 230.2L445.34 528.8399999999999h45l-12.6-244.8c-3.2 0.5-6.5 0.8-9.9 0.8-3.4 0-6.7-0.3-9.9-0.8zM76.83999999999997 318.84v62h302v-62H76.83999999999997z m60 80v18h18v-18h-18z m164 0v18h18v-18h-18zM60.839999999999975 434.84v30h334v-30H60.839999999999975z m32 48v46h30v-46H92.83999999999997z m240 0v46h30v-46h-30z" /></svg>