<svg xmlns="http://www.w3.org/2000/svg" width="100%" height="100%" viewBox="0 0 583.68 583.68"><path d="M76.43799999999997 56.15599999999998c-11.602 0-21.008 9.406-21.008 21.008 0 11.602 9.406 21.006 21.008 21.006 1.788 0 3.524-0.226 5.18-0.646l54.972 54.97-46.223 46.223 46.924 65.783 15.216-10.85-28.316-39.7 18.29-18.29 186.083 272.387 2.203 1.084c53.664 26.42 111.6 49.15 183.537 58.05l11.496 1.424-1.044-11.54c-6.375-70.503-30.856-128.572-58.082-183.845l-1.088-2.21L192.92 145.21999999999997l18.432-18.433 39.586 28.395 10.892-15.186-65.652-47.09-46.373 46.373-53.992-53.993c1.05-2.5 1.63-5.242 1.63-8.123 0-11.602-9.404-21.008-21.005-21.008zM179.46999999999997 158.66799999999998l271.49 184.988c0.395 0.807 0.78 1.617 1.175 2.424l-9.844 28.38-259.538-191.436L373.90599999999995 442.64l-33.15 10.13-184.83-270.557 23.545-23.545z m127.327 147.45L453.96999999999997 415.14l11.85-49.017 37.204 135.32-135.317-37.205 49.014-11.856-109.923-146.26z" /></svg>