<svg xmlns="http://www.w3.org/2000/svg" width="100%" height="100%" viewBox="0 0 583.68 583.68"><path d="M278.34 57.339999999999975c-25.192 3.245-47.28 32.016-47.28 68.78 0 20.28 7.038 38.25 17.5 50.75l10.25 12.25-15.69 2.94c-6.058 1.128-11.42 3.163-16.25 6.093l50.907 29.343 0.22 0.125c10.092 5.547 17.387 12.847 21.687 20.72 4.332 7.932 5.865 16.78 2.562 24.75-3.302 7.97-12.133 13.29-21.687 13.344-9.457 0.054-20.02-3.703-32.345-11.5-0.13-0.082-0.245-0.136-0.375-0.22l-52.313-30.06c-1.536 4.65-2.918 9.51-4.156 14.56-8.238 33.626-9.925 74.615-10.155 110.407H225.33999999999997l0.625 8.626 11.28 149.78 96.69 0.002L343.86999999999995 378.34l0.564-8.72h42c-0.013-36.18-0.378-77.737-7.844-111.624-4.05-18.384-10.197-34.295-18.813-45.75-8.615-11.454-19.257-18.706-34.593-21.062l-16-2.438L319.34 176.08999999999997c10.008-12.437 16.72-30.183 16.72-49.97-0.002-39.2-24.78-68.718-52.5-68.718-2.913 0-4.762-0.12-5.22-0.062zM56.65199999999997 121.61999999999998v21.626l200.875 115.5 0.188 0.094 0.188 0.125c10.573 6.74 18.416 8.805 22.53 8.78 4.115-0.022 4.113-0.724 4.563-1.81 0.45-1.09 0.63-4.324-1.72-8.626-2.348-4.304-7.01-9.363-14.436-13.407l-0.094-0.032-0.094-0.06-212-122.19z m396.97 187.626l-15.626 28.22-33.656-19.063c0.355 8.144 0.576 16.234 0.688 24.187l22.906 13.03-15.47 27.94 114.97 15.124-73.813-89.438z" /></svg>