<svg xmlns="http://www.w3.org/2000/svg" width="100%" height="100%" viewBox="0 0 583.68 583.68"><path d="M497.803 57.839999999999975C378.57 135.82399999999996 230.22499999999997 171.22699999999998 53.839999999999975 166.55899999999997v18.004C243.57999999999998 189.48299999999998 403.32 148.56399999999996 529.623 57.839999999999975h-31.82z m25.865 35.443L439.53999999999996 139.52599999999998l88.307 61.007-4.178-107.25z m-109.508 57.48l-92.037 27.298 73.315 78.388 18.722-105.685z m-128.498 35.491l-94.967 14.057 61.54 87.937 33.427-101.994zM152.32 202.61999999999998l-95.956 2.918 50.895 94.496 45.06-97.414zM53.839999999999975 315.301v18.662c231.522 63.276 368.876 81.316 476 84.926V400.89c-106.436-3.598-242.956-21.615-476-85.59z m43.379 51.244l24.053 104.602 69.25-82.002-93.303-22.6z m151.05 37.49l29.944 103.069 64.488-85.797-94.431-17.272z m153.087 24.446l40.615 99.351 55.111-92.101-95.726-7.25z" /></svg>