<svg xmlns="http://www.w3.org/2000/svg" width="100%" height="100%" viewBox="0 0 583.68 583.68"><path d="M54.745999999999974 53.89999999999998v369.23C148.23999999999998 288.45799999999997 305.27 193.65999999999997 466.21 169.59999999999997L264.26 53.89999999999998H54.745999999999974zM361.56 215.16699999999997C236.21999999999997 259.788 122.24499999999998 346.892 53.99699999999997 458.40799999999996v33.602c113.074-111.488 277-176.38 434.373-175.25L361.56 215.16599999999997z m25.56 128.682c-125.218 21.642-246.974 83.6-333.124 174.812v10.297h58.916c113.9-65.58 251.166-95.325 379.492-80.814L387.11999999999995 343.84799999999996z m-2.253 120.96c-80.122 5.884-160.432 27.957-232.61 64.15h266.42l-33.81-64.15z" /></svg>