<svg xmlns="http://www.w3.org/2000/svg" width="100%" height="100%" viewBox="0 0 583.68 583.68"><path d="M528.31 57.77799999999998c-82.74-0.256-167.442 12.5-242.814 45.093 5.205 13.166 9.578 28.48 13.188 45.532C278.39 133.10999999999996 253.00699999999998 128.22499999999997 230.55999999999997 131.33999999999997c-46.22 28.432-87.13 66.305-119.44 115.594 25.193 7.756 51.57 22.81 72.845 43.844-31.87-7.045-68.907-5.895-99.188 3-13.743 28.688-25.008 60.48-33.343 95.687 128.71-30.668 130.522 3.514 50.75 140.438 16.877 12.614 42.182 13.77 61.906-1.563C169.83999999999997 303.77599999999995 267.27 362.08599999999996 290.02799999999996 390.402c14.288-40.59 34.77-82.54 62.906-126.468-17.29-14.667-39.21-24.838-63.813-32.375 25.364-5.256 50.91-10.928 74.126-11.22 6.482-0.082 12.78 0.272 18.844 1.156 17.57-24.007 37.408-48.612 59.75-73.97-12.538-6.31-25.476-11.454-38.125-14.967 17.132-5.76 35.274-8.34 52.844-8.157 2.01 0.02 4.004 0.095 6 0.187 20.07-21.708 41.927-43.976 65.75-66.813zM462.56 83.11999999999998C331.63 148.51399999999998 235.93399999999997 246.04599999999996 180.77599999999998 369.36999999999995 208.17999999999998 220.24999999999997 322.888 120.40999999999997 462.56 83.11999999999998z" /></svg>