<svg xmlns="http://www.w3.org/2000/svg" width="100%" height="100%" viewBox="0 0 583.68 583.68"><path d="M530.903 52.90299999999998L359.215 100.21399999999997 54.869999999999976 404.56v56.155l297.47-297.47c22.103-22.1 44.235-31.255 61.656-30.53 38.327 1.594 54.864 49.01 5.844 98.03L121.15199999999997 528.8399999999999h54.72L481.84 222.86999999999998l49.063-169.968zM396.61999999999995 161.83999999999997l-18.686 0.313 0.375 22.968-22.97-0.374-0.313 18.688 23.594 0.406 0.408 23.594 18.687-0.313-0.375-22.968 22.97 0.375 0.31-18.687-23.592-0.406L396.61999999999995 161.83999999999997z m-69.092 61.5l-18.22 4.125 7.188 31.906 1.313 5.876 5.874 1.22 31.22 6.593 3.873-18.282-13.593-2.875 12.53-12.5-13.218-13.22-13.312 13.313-3.656-16.156z m-49.72 38.25l-2.25 28.156-27.468 1.813 1.25 18.655 30.844-2.03 17.937 17.936 13.22-13.217-17.5-17.5 2.594-32.313-18.625-1.5z m-43.437 55.625l-18.28 3.875 7.22 34.125-34.845-6.875L184.83999999999997 366.68399999999997l48.72 9.594 13.874 2.718-2.938-13.844-10.125-47.937z m-57 76.094l-16.78 16.78L132.902 403.84l-4.093 18.25 26.06 5.875 5.345 25.344 18.313-3.845-5.375-25.53 17.437-17.408-13.22-13.218z m-57.155 44.936l-18.688 0.313 0.376 22.967-22.938-0.375L78.65199999999997 479.84l23.563 0.375 0.406 23.594 18.69-0.314-1.095-65.25z m-53.844 66.03l-11.5 11.533V528.8399999999999h13.407l11.313-11.344-13.22-13.22z" /></svg>