<svg xmlns="http://www.w3.org/2000/svg" width="100%" height="100%" viewBox="0 0 583.68 583.68"><path d="M285.77799999999996 54.369999999999976c-2.33-0.006-4.65 0.036-7 0.157v-0.03c-18.72 0.97-37.354 4.835-53.782 11.5-5.895 9.737-7.003 18.63-3.22 31.655 2.543 8.748 7.697 19.177 15.69 31.594 9.697-6.747 25.94-10.26 42.468-10.5 17.92-0.258 36.14 3.24 46.53 10.594 7.038-11.94 11.675-22.136 14.063-30.844C344.65299999999996 83.45999999999998 343.02 73.22599999999997 335.84 61.839999999999975l0.47-0.28c-13.496-4.296-28.377-6.64-43.533-7.032-2.342-0.094-4.67-0.15-7-0.157zM359.84 71.99699999999997c2.096 9.886 1.745 20.437-1.28 31.47-4.985 18.167-16.32 38.006-34 62.655l-32.283 47.564-76.843 114.187-0.313-0.217-67.155 98.875 24.53-1.157-16.936 47.876 45.53-26.28-29.78 65.437 36.218-22.782 7 37.376 52.28-110.094-0.405-0.187L331.34 280.527l4.313-9 47.062-98.437C406.02799999999996 124.00199999999998 390.77 90.55299999999997 359.84 71.99599999999998zM201.55999999999997 78.61999999999998c-30.64 21.468-44.758 56.84-18.564 104.97L230.83999999999997 271.52799999999996l42.72-63.47-38-47.25c-2.668-3.34-4.54-6.492-5.69-9.437C216.73999999999998 132.97999999999996 208.06999999999996 117.41999999999997 203.83999999999997 102.86999999999998c-2.433-8.37-3.142-16.496-2.28-24.25z m142.75 218.126l-46.595 97.72 71.594 131.937 4.842-36.157 37.907 7.406-25.47-47.375 58.875 24.782-32.656-57.408 23.655-5.718-92.156-115.188z" /></svg>