<svg xmlns="http://www.w3.org/2000/svg" width="100%" height="100%" viewBox="0 0 583.68 583.68"><path d="M479.938 54.99999999999997l-75.114 117.7-60.69-29.085L322.34 199.95999999999998c-11.048-3.82-22.37-5.51-33.496-5.257-12.552 0.285-24.847 3.042-36.21 7.955l-20.16-7.437 34.79-70.763L54.70199999999997 102.21999999999997l117.697 75.116-29.087 60.686 56.36 21.804c-8.05 23.45-6.478 48.13 2.763 69.5l-7.516 20.37-70.758-34.79-22.24 212.56 75.113-117.698 60.688 29.088 21.887-56.58c23.334 8.013 47.888 6.495 69.185-2.625l20.596 7.598-34.792 70.76 212.562 22.24-117.697-75.115 29.082-60.688-56.557-21.88c8.102-23.41 6.6-48.063-2.56-69.434l7.512-20.358 70.757 34.79 22.24-212.562zM289.16599999999994 213.32199999999997c3.33-0.07 6.683 0.098 10.04 0.467-27.333 6.483-47.673 31.032-47.673 60.35 0 34.263 27.777 62.04 62.04 62.04 22.998 0 43.055-12.522 53.77-31.11-0.914 4.94-2.313 9.866-4.24 14.717-15.896 39.996-60.943 59.42-100.94 43.524-39.994-15.894-59.42-60.94-43.524-100.937 11.92-29.994 40.24-48.418 70.526-49.05z" /></svg>