<svg xmlns="http://www.w3.org/2000/svg" width="100%" height="100%" viewBox="0 0 583.68 583.68"><path d="M263.53999999999996 60.839999999999975l-57.9 57.96L219.23999999999998 186.83999999999997h145.2l13.6-68.04-32.8-32.84L318.34 99.83999999999997l16.3-24.53L320.14 60.839999999999975h-56.6zM230.83999999999997 124.27999999999997L275.84 146.83999999999997l-4 17h-41V124.27999999999997z m122 0V163.83999999999997h-41l-4-17 32-16.05 13-6.51zM189.83999999999997 144.93999999999997l-22 11 10.6 17.1-24.1-10.4L108.83999999999997 185.43999999999997v16l91.8-13.1-10.8-43.4z m204 0l-10.8 43.4 91.8 13.1v-16l-81-40.5z m-152.4 60.1l-63.3 4.7-6.6 1-9.2 62.3 50.2 25.1 44.5-14.8 5.6 17-51.5 17.2-44.4-22.2 20.4 84.5 95.7 13.6V232.64l-41.4-27.6z m100.8 0L300.84 232.64v160.8l95.7-13.6 20.4-84.5-23.8 11.9-19.6 38.6-18.8-34.2-33.7-11.3 5.6-17 44.5 14.8 50.2-25.1-9.2-62.3-6.6-1-63.3-4.7z m-189.6 8.4l-61.32 8.7-30.04 40.1 3.64 25.5 25.38 10.4L68.92999999999998 315.84l6.47 45.3L138.83999999999997 348.53999999999996v-57.4l13.8-77.7z m278.4 0l13.8 77.6v57.4l52 10.4 13.7-13.7 11.9-82.9-30.1-40.1-28-4-4.2 17.9-9.9-19.9-19.2-2.7zM139.93999999999997 366.64L78.61999999999998 378.84l28 126 47.42-11.8-14.1-126.4z m303.8 0l-14.1 126.4 22.6 5.6 7.9-25.8 17.8 28.1L505.03999999999996 378.84l-61.3-12.2z m-256 31.4L173.93999999999997 522.8399999999999h80.3l37.6-75.1 37.6 75.1h30.8l11.6-23 11.5 23h26.4l-13.8-124.8L291.84 412.94l-41.9-6-6.1 34.4-15.3-37.5-40.8-5.8z" /></svg>