<svg xmlns="http://www.w3.org/2000/svg" width="100%" height="100%" viewBox="0 0 583.68 583.68"><path d="M529.8399999999999 108.85999999999997C476.34 138.83999999999997 383.94 154.83999999999997 291.84 154.83999999999997S107.43999999999997 138.83999999999997 53.839999999999975 108.87999999999998V129.23999999999998c10.68 5.34 22.34 10.2 34.81 14.5L61.659999999999975 276.93999999999994c-2.68-1.9-5.29-4-7.82-6.1v22.7C113.19999999999997 336.44 202.53999999999996 356.84 291.84 356.84c89.2 0 178.6-20.4 238-63.3v-22.8c-2.5 2.1-5.1 4.2-7.8 6.2l-27-133.2c12.5-4.3 24.1-9.15 34.8-14.49zM111.86999999999998 151.03999999999996c12.89 3.6 26.47 6.7 40.47 9.4L132.17999999999998 271.64z m359.97 0l-20.3 120.6-20.2-111.2c14-2.7 27.6-5.8 40.5-9.4z m-296.1 13.5c13.7 2 27.7 3.7 41.9 5l-21.4 117.9z m232.2 0l-20.5 122.9-21.4-117.9c14.2-1.3 28.2-3 41.9-5z m-169.6 6.6c14.1 0.9 28.4 1.4 42.7 1.6L259.84 289.53999999999996z m107 0L323.84 289.53999999999996l-21.2-116.8c14.3-0.2 28.6-0.7 42.7-1.6zM99.02999999999997 183.23999999999998l21.14 125.5c-15.27-6-29.49-13-42.34-20.9z m385.61 0L505.84 287.84c-12.8 7.9-27 14.8-42.3 20.9z m-321.2 17l21.3 127.7c-14.7-3.1-28.9-6.8-42.4-11.2z m256.8 0l21.1 116.5c-13.5 4.4-27.7 8.1-42.4 11.2zM227.83999999999997 214.14l22.3 123.1c-14.7-1.1-29.4-2.9-43.7-5.2z m64 0l22.5 124.2c-7.5 0.3-15 0.5-22.5 0.5s-15-0.2-22.5-0.5z m64 0l21.4 117.9c-14.3 2.3-29 4-43.7 5.2zM99.83999999999997 426.84c-14.1 0-30.44 4.4-46 9.8V455.84c16.71-6 34.61-11 46-11 14.02 0 28.33 7 43.9 15 15.6 8 32.4 17 52.1 17 19.7 0 36.5-9 52.1-17 15.6-8 29.9-15 43.9-15s28.3 7 43.9 15c15.6 8 32.4 17 52.1 17 19.7 0 36.5-9 52.1-17 15.6-8 29.9-15 43.9-15 11.4 0 29.3 5 46 11v-19.2c-15.6-5.4-31.9-9.8-46-9.8-19.7 0-36.5 9-52.1 17-15.6 8-29.9 15-43.9 15s-28.3-7-43.9-15c-15.6-8-32.4-17-52.1-17-19.7 0-36.5 9-52.1 17-15.6 8-29.9 15-43.9 15s-28.3-7-43.9-15c-15.5-8-32.39-17-52.1-17z m0 42c-14.1 0-30.45 4.4-46 9.8V497.84c16.71-6 34.61-11 45.99-11 14 0 28.32 7 43.91 15 15.6 8 32.4 17 52.1 17 19.7 0 36.5-9 52.1-17 15.6-8 29.9-15 43.9-15s28.3 7 43.9 15c15.6 8 32.4 17 52.1 17 19.7 0 36.5-9 52.1-17 15.6-8 29.9-15 43.9-15 11.4 0 29.3 5 46 11v-19.2c-15.6-5.4-31.9-9.8-46-9.8-19.7 0-36.5 9-52.1 17-15.6 8-29.9 15-43.9 15s-28.3-7-43.9-15c-15.6-8-32.4-17-52.1-17-19.7 0-36.5 9-52.1 17-15.6 8-29.9 15-43.9 15s-28.3-7-43.9-15c-15.6-8-32.41-17-52.11-17z" /></svg>