<svg xmlns="http://www.w3.org/2000/svg" width="100%" height="100%" viewBox="0 0 583.68 583.68"><path d="M259.62 54.40299999999998c-13.577 0.267-26.252 13.425-16.81 33.062 17.045 35.465 29.126 53.574 45.936 81.906 0.43-31.648-0.522-56.963-6.25-92.436v-0.032c-2.586-16.03-12.967-22.695-22.875-22.5z m199.876 3.812c-1.272-0.007-2.56 0.026-3.906 0.125-57.393 4.222-115.434 43.967-128.78 88.594 23.13-27.564 75.967-45.43 133.186-41.72 42.626 2.766 38.924-46.78-0.5-47zM136.11999999999998 116.55999999999997c-7.754 0.096-15.632 0.908-23.5 2.468-57.75 11.446-46.283 90.25 9.19 67.062 63.716-26.63 102.673-15.477 131.78 20.688 1.942-46.08-54.322-91.015-117.47-90.22zM404.06 135.83999999999997c-3.29 0.052-6.453 0.287-9.44 0.75-41.463 6.433-62 23.806-67.374 76.125 35.677-42.483 73.564-36.43 127.656 34.53 47.092 61.784 110.826-19.008 53.594-69.124-28.248-24.736-72.65-42.786-104.437-42.28zM179.11999999999998 243.49599999999998c-26.534-0.027-49.802 1.334-80.843 6.344C60.28299999999997 255.96999999999997 74.86999999999998 305.856 108.83999999999997 289.52799999999996c35.465-17.046 53.578-29.124 81.906-45.938-3.956-0.054-7.834-0.09-11.625-0.094z m81.282 17.188C195.00499999999997 270.092 134.21599999999998 309.17999999999995 71.93499999999997 383.59c-50.007 59.747 32.842 116.914 70.75 46.97 43.54-80.347 77.52-124.72 117.72-169.876zM354.465 263.84c34.243 46.835 48.228 65.114 59.22 150.72 9.567 74.527 102.045 37.72 78.342-31.94-29.52-86.757-74.398-104.678-137.562-118.78z m-43.47 68.594c-27.59 59.063-36.883 87.625-45.75 139.875-12.43 73.245 83.39 75.698 81.064-0.19-1.33-43.354-17.064-91.402-35.314-139.686z m-56.592 12.344c-27.555 39.625-44.235 69.134-65.813 110.312-20.713 39.53 35.78 60.664 44.22 17.78 8.812-44.765 17.524-90.11 21.593-128.092z" /></svg>