<svg xmlns="http://www.w3.org/2000/svg" width="100%" height="100%" viewBox="0 0 583.68 583.68"><path d="M137.83999999999997 56.41999999999997c-0.8 0-1.5 0.18-2.3 0.5-1.62 0.66-2.55 1.51-3.62 3.58-1.08 2.08-1.97 5.41-2.3 9.63-0.67 8.43 0.85 20.08 3.39 31.48C138.14 124.39999999999998 146.83999999999997 146.14 146.83999999999997 146.14l33.8 83.7 12.7-29.9 30 12.7-33.8-83.67s-8.9-21.76-21.1-41.68c-6.1-9.96-13.1-19.39-19.4-24.99-3.2-2.8-6.2-4.58-8.4-5.32-1.1-0.38-2-0.56-2.8-0.56z m153.8 0.1c-0.8 0-1.7 0.18-2.8 0.56-2.2 0.74-5.2 2.52-8.3 5.32-6.4 5.6-13.4 15.02-19.5 24.98-12.2 19.92-21.1 41.67-21.1 41.67l-15.5 38.44 22.3 55.2 2.5 6.2 33.5-82.6s8.7-21.74 13.8-44.55c2.5-11.4 4-23.06 3.4-31.49-0.4-4.22-1.3-7.56-2.3-9.64-1.1-2.08-2-2.93-3.7-3.59-0.8-0.32-1.5-0.5-2.3-0.5z m97.1 159.77v46h26v-46z m86 0v46h26v-46z m-271.8 7.3l-12.8 30 8.5 20.9 12.7-30 30 12.7-8.4-20.9z m18 44.5l-12.7 29.9 7.2 17.9 42.7-17.3-7.2-17.8z m-40.7 8.8l-8.9 21.8 21.2 8.6z m212.5 3.4v206h-23v18h23v23h18v-23h23v-18h-23v-206z m86 0v206h-23v18h23v23h18v-23h23v-18h-23v-206z m-213.9 35l-42.6 17.3 11.2 27.8 42.7-17.3-5.2-12.9z m-100.1 0.1l-11.3 27.8 42.6 17.3 9-22.2-2.4-6-0.7-1.8z m118.1 44.4l-42.6 17.2 59.2 146.6 42.6-17.3z m-136.2 0.05L87.42999999999998 506.23999999999995l42.64 17.3 59.27-146.4z" /></svg>