<svg xmlns="http://www.w3.org/2000/svg" width="100%" height="100%" viewBox="0 0 583.68 583.68"><path d="M136.27999999999997 47.616999999999976V99.13999999999997l68.027 68.024v-51.52L136.27999999999997 47.61599999999997zM72.63999999999997 61.92699999999998l-10.538 10.26L189.47999999999996 199.40499999999997c2.86-4.157 5.824-8.042 8.887-11.75L72.63999999999997 61.92699999999998z m-24.71 74.044l68.025 68.024h51.676L99.52299999999997 135.96999999999997H47.92999999999998zM291.84599999999995 159.93999999999997c-24.66 0.192-51.354 10.48-75.348 34.718-34.8 35.155-56.222 127.215-18.105 159.436-7.546-35.653-5.986-77.632 26.35-119.467l0.035 0.033c0.61-0.843 1.23-1.655 1.853-2.46 1.778-2.217 3.668-4.433 5.624-6.647 0.645-0.697 1.29-1.393 1.945-2.065l-0.063-0.063c1.287-1.413 2.606-2.825 3.97-4.236 43.752-45.324 119.946-3.634 89.938 65.992h0.29c-2.88 6.677-6.74 13.608-11.702 20.742l-69.31-69.31c-3.294 3.37-6.317 7.044-9.17 11.406l70.322 70.234c-8.92 15.136-13.956 30.713-15.79 45.766h-0.263c-2.245 18.27 0.347 35.66 6.412 50.576 4.115 10.427 9.893 19.66 16.947 27.103l0.156-0.27c5.984 6.286 12.834 11.354 20.29 14.866 66.005 31.093 128.726 54.608 196.23 76.507l-0.17-0.443 0.546 0.222-7.408-18.144C494.11999999999995 432.76 462.90999999999997 354.39 439.012 271.15599999999995l-0.002 0.006c0.26 43.795-9.063 78.84-23.848 106.828l30.157 30.41c3.617-5.407 6.83-11.114 9.633-17.115l43.762 107.176L390.73999999999995 454.378c6.27-2.965 12.17-6.26 17.705-9.865l-29.255-29.268c-23.927 6.417-50.26-12.102-52.73-42.904-0.008-0.123-0.02-0.244-0.03-0.367-0.06-0.83-0.097-1.67-0.123-2.516-0.006-0.21-0.02-0.417-0.024-0.63-0.02-1.007-0.02-2.024 0.012-3.055 0.257-8.665 1.45-17.172 3.838-25.893l87 86.89 6.375 6.38c3.645-3.183 7.075-6.54 10.29-10.064l-28.528-28.53-69.84-69.84c4.99-11.8 12.255-24.317 22.402-38.37 19.266-26.68 21.558-53.408 13.063-75.332-0.214-0.565-0.44-1.123-0.668-1.682l-0.012-0.027c-11.07-27.104-38.573-46.637-70.787-49.108-2.502-0.19-5.03-0.28-7.582-0.26z" /></svg>