<svg xmlns="http://www.w3.org/2000/svg" width="100%" height="100%" viewBox="0 0 583.68 583.68"><path d="M318.66999999999996 54.71699999999997c21.567 6.146 36.328 15.205 40.572 28.77-1.367 0.74-2.725 1.518-4.066 2.363-25.655 5.807-53.084 18.634-81.047 34.363 20.225-4.69 36.705-4.42 47.544 3.324-5.712 10.3-10.797 22.294-15.123 36.06-21.343 67.922-125.678-80.577-189.065-5.255C77.30999999999997 202.07999999999998 128.54199999999997 248.182 62.339999999999975 330.13c35.583-4.14 45.11-9.47 62.416-36.21 10.44-16.13 28.52-22.1 44.668-21.45-12.718 11.206-25.786 30.354-38.21 59.895 19.832-18.528 44.927-38.68 71.603-40.005 0.912 6.354-2.408 13.74-12.008 21.418C129.04999999999995 363.167 51.41999999999997 400.025 55.66999999999997 512.344c5.558-11.267 11.646-20.31 17.574-28.617 5.98 29.582 28.2 53.8 92.99 40.482-46.928-6.407-76.268-59.586-45.355-82.528 62.716-46.544 128.82 1.436 269.9-75.342 2.475-1.346 4.86-2.49 7.164-3.46-2.246 19.6-12.367 39.84-22.362 57.14 14.26-10.38 25.415-20.147 33.928-29.262 2.14 26.14-11.748 54.65-25.393 78.268 43.26-31.49 61.19-57.976 63.207-78.422 9.334 36.678-1.895 95.547-25.03 123.492 77.553-39.433 106.608-77.127 109.76-190.664 1.662-59.824-66.23-60.536-56.435-101.344 11.945-49.756 6.768-84.69-7.565-107.947-19.6-49.73-79.99-59.74-149.385-59.423zM125.63999999999997 83.52399999999997C90.52999999999997 83.37399999999997 81.07299999999998 118.89599999999997 91.56399999999996 152.83999999999997c17.146-51.504 70.414-44.24 111.17-34.367-33.282-25.005-58.707-34.87-77.096-34.95z m254.595 30.742c18.643 21.37 29.373 43.02 10.105 65.732-26.562-16.677-26.985-39.252-10.105-65.732z m74.494 48.6c3.655-0.013 7.78 0.35 12.473 1.09-1.706 30.506-14.4 33-46.634 32.154 8.335-22.146 14.416-33.176 34.16-33.245z m-84.677 40.316c9.652 0.1 20.258 2.84 30.598 8.918 44.65 26.246 21.934 73.314-4.1 74.78-15.174 0.855 1.443-23.842-16.17-38.476-15.258-12.678-38.596 12.53-45.204-5.78-8.218-22.693 10.21-39.696 34.877-39.442z m60.18 246.168c-24.195 27.825-58.89 60.1-99.444 31.41 16.625 45.643 68.87 70.465 99.443-31.41z" /></svg>