<svg xmlns="http://www.w3.org/2000/svg" width="100%" height="100%" viewBox="0 0 583.68 583.68"><path d="M292.14 55.78999999999998c-41 0-74.1 32.7-74.1 73.27 0 22.98 8 33.78 16.8 47.78 5.9 9.3 12 20.1 15.5 35.6h83c3.5-15.9 9.6-26.8 15.5-36.2 8.9-14.1 16.8-24.7 16.8-47.18 0-40.57-32.8-73.27-73.5-73.27z m-142.1 7.7L116.83999999999997 71.23999999999998l81.2 40.25-48-48z m283.6 0l-48 48L466.84 71.23999999999998l-33.2-7.75zM246.33999999999997 115.03999999999998l45.5 22.7 45.5-22.7-20.8 83-17.4-4.4 11.2-45-18.5 9.3-18.5-9.3 11.2 45-17.4 4.4-20.8-83zM99.83999999999997 131.86999999999998v32.07l96-16.1-96-15.97z m384 0L387.84 147.83999999999997l96 16V131.86999999999998zM370.03999999999996 180.14l39.9 63.3 24.1-15.3-64-48z m-156.4 0.1l-64 48 24.1 15.3 39.9-63.3zM251.83999999999997 226.83999999999997v16h80v-16h-80z m34.4 28.3c-13.7 0-26.9 0.5-35.7 1-68.2 10.7-82.9 105.4-66.7 191.6h23.6l-1-105.4 18.6-0.2c-1.4 63.7 1.6 126.6 5.5 189.7h51.4V426.14h18.7V531.8399999999999h50.4c4.5-65 5.9-131.5 6.5-189.7l18.7 0.2-1.1 105.4h24.6c18.3-88.5-4.8-178.9-67.1-190.6-9.4-1.4-24.9-2-40.6-2h-5.8z" /></svg>