<svg xmlns="http://www.w3.org/2000/svg" width="100%" height="100%" viewBox="0 0 583.68 583.68"><path d="M130.21099999999996 123.55999999999997l-14.676 26.54-40.927-24.873L55.909999999999975 155.98999999999998l42.192 25.641-14.575 26.357 15.752 8.71 46.684-84.426zM147.83999999999997 163.83999999999997c-12.406 17.74-28.85 57.069-31.646 80.46-1.51 12.633 0.156 22.758 2.863 26.73 1.353 1.985 2.479 2.81 4.902 3.314 2.424 0.504 6.516 0.344 12.47-1.736l12.307-4.301-0.341 13.033c-0.303 11.499 4.752 25.295 12.767 38.895 2.02-17.074 8.016-34.148 14.38-51.221-3.64 27.491-2.424 52.21 2.58 74.762 5.335 6.22 11.051 12.027 16.863 17.103 12.204 10.66 24.815 18.15 32.767 20.356 3.976 1.103 6.375 0.725 6.908 0.488 0.533-0.237 0.76 0.118 1.239-2.805 1.542-9.415 0.807-30.268 1.867-55.385 1.003-23.768 5.305-54.726 14.319-83.528C233.07299999999998 216.98099999999997 195.99599999999998 171.99099999999999 147.83999999999997 163.83999999999997z m118.8 88.178c-5.788 19.743-8.61 39.331-10.005 57.353l9.666 17.95-10.805 4.714c-0.187 7.113-0.234 13.586-0.285 19.766l19.652-8.576 0.092 0.17 33.059-14.541-0.043-0.08 93.627-40.862-7.201-16.498-94.989 41.457z m178.991 48.681c-44.479 57.958-86.364 118.263-184.195 170.905 1.367 1.082 2.706 2.157 4.013 3.199C275.48699999999997 482.803 283.93999999999994 488.84 291.84 488.84c7.9 0 16.353-6.037 26.39-14.037 10.038-8 21.66-17.963 37.61-17.963s27.572 9.963 37.61 17.963C403.486 482.803 411.94 488.84 419.84 488.84c1.082 0 2.174-0.124 3.28-0.34a748.512 748.512 0 0 0 4.878-22.088l-18.887-31.648 18.26-13.344-16.855-15.451 29.488-17.693c3.11-29.2 4.82-58.325 5.627-87.577z m17.697 9.9c-1.878 54.857-7.063 109.735-19.025 165.718 0.642-0.505 1.273-0.992 1.928-1.514 8.532-6.8 18.212-15.017 30.72-17.328l7.094-4.451c0.06-4.398 0.102-8.788 0.115-13.163l-13.947-2.99s6.643-16.46 13.211-32.105c-1.693-33.026-6.783-64.837-20.096-94.166z m-146.754 34.153l-33.058 14.541 30.902 57.39a407.377 407.377 0 0 0 28.238-23.491zM175.17799999999997 367.09l-15.188 6.629 7.2 16.498 22.902-9.996a189.539 189.539 0 0 1-6.947-5.783 212.624 212.624 0 0 1-7.967-7.348z m-44.631 49.92c-2.589 0.006-5.186 0.17-7.824 0.549-3.313 0.677-6.773 1.252-9.541 3.2 1.69 2.914 4.871 5.5 7.146 7.085 6.59 4.538 17.22 9.18 29.512 12.04 12.292 2.863 23.877 3.394 31.793 2.233 3.313-0.677 6.771-1.253 9.539-3.2-1.694-2.913-4.87-5.5-7.144-7.085-6.59-4.538-17.218-9.177-29.51-12.039-8.513-1.382-16.205-2.8-23.971-2.783z m60.625 21.906c0.13 0.305 0.063 0.281 0.121 0.03 0.059-0.252 0.128-0.244-0.121-0.03z m-86.457-0.457c-2.918 6.024-5.2 12.191-6.947 18.436A43.474 43.474 0 0 1 99.83999999999997 456.84c15.95 0 27.572 9.963 37.61 17.963C147.486 482.803 155.93999999999997 488.84 163.83999999999997 488.84c6.132 0 12.607-3.657 19.887-9.025 1.978-6.92 3.63-13.802 4.754-20.66a60.452 60.452 0 0 1-4.235 0.77c-10.999 1.614-24.335 0.786-38.488-2.509-14.153-3.295-26.483-8.443-35.639-14.748a55.04 55.04 0 0 1-5.404-4.209zM99.83999999999997 474.84c-13.413 0-26.972 6.374-39 13.35v21.064c0.916-0.582 1.815-1.16 2.768-1.746C76.10399999999998 499.828 91.93899999999996 492.84 99.83999999999997 492.84c7.9 0 16.353 6.037 26.39 14.037 10.038 8 21.66 17.963 37.61 17.963s27.572-9.963 37.61-17.963C211.48599999999996 498.87699999999995 219.93999999999997 492.84 227.83999999999997 492.84c7.9 0 16.353 6.037 26.39 14.037 10.038 8 21.66 17.963 37.61 17.963s27.572-9.963 37.61-17.963C339.486 498.87699999999995 347.94 492.84 355.84 492.84c7.9 0 16.354 6.037 26.39 14.037 10.038 8 21.66 17.963 37.61 17.963s27.572-9.963 37.61-17.963C467.486 498.87699999999995 475.94 492.84 483.84 492.84c7.9 0 23.736 6.989 36.232 14.668 0.953 0.585 1.852 1.164 2.768 1.746V488.19c-12.028-6.976-25.587-13.35-39-13.35-15.95 0-27.572 9.963-37.61 17.963C436.19399999999996 500.803 427.73999999999995 506.84 419.84 506.84c-7.9 0-16.353-6.037-26.39-14.037-10.038-8-21.66-17.963-37.61-17.963s-27.572 9.963-37.61 17.963C308.19399999999996 500.803 299.73999999999995 506.84 291.84 506.84c-7.9 0-16.353-6.037-26.39-14.037-10.038-8-21.66-17.963-37.61-17.963s-27.572 9.963-37.61 17.963C180.194 500.803 171.73999999999998 506.84 163.83999999999997 506.84c-7.9 0-16.353-6.037-26.39-14.037C127.41099999999997 484.803 115.78999999999998 474.84 99.83999999999997 474.84z" /></svg>