<svg xmlns="http://www.w3.org/2000/svg" width="100%" height="100%" viewBox="0 0 583.68 583.68"><path d="M291.996 57.964999999999975L96.11999999999998 118.27799999999998c0.432 108.262 10.918 200.47 40.25 270.437 13.326 31.78 30.345 59.02 52.126 81.47 4.056-11.198 8.352-22.57 12.813-34.064-16.453-18.292-29.438-40.056-39.345-64.75-23.25-57.95-30.656-131.856-30.656-217.717l-0.095-7.188 6.563-1.72L282.15299999999996 98.30999999999997c5.877-12.546 11.896-25.14 18.125-37.814l-8.282-2.53z m52.656 16.188l-17.875 33.124 23.313 7.5c5.9-11.474 11.73-22.754 17.375-33.593l-22.813-7.032zM412.34 94.99599999999998c-6.004 11.338-12.02 22.668-18.03 34l25.25 8.125c6.615-11.223 13.333-22.462 20.186-33.686L412.34 94.99599999999998z m71.156 21.907l-33.844 51.5c-0.736 79.713-7.717 148.21-29.25 202.687-22.848 57.806-63.124 99.61-127.312 118.625l-2.656 0.813-2.656-0.813c-32.193-9.537-58.434-25.294-79.5-46.25-6.443 9.027-12.975 17.983-19.625 26.844 26.645 27.41 60.394 47.68 103.28 60.25 80.56-23.573 128.42-71.69 157.5-142.095 28.78-69.676 38.15-161.577 38.532-270.188l-4.47-1.374z m-212 4.437L150.08999999999997 160.40299999999996c0.405 81.79 8.107 151.38 29.22 204 0.454 1.135 0.907 2.255 1.374 3.375 24.524-86.216 54.174-165.683 90.812-246.438z m46.25 2.625L183.08999999999997 373.34c7.214 16.193 15.74 30.653 25.875 43.344 38.187-95.228 87.792-197.513 132.5-285.094l-23.72-7.625z m67.688 21.78C333.75 242.90999999999997 280.91999999999996 339.166 219.05999999999997 428.186c18.644 19.297 42.002 33.62 71.374 42.75 57.576-17.84 91.637-53.702 112.594-106.72 17.472-44.204 25.07-100.542 27.25-166.344L271.43399999999997 439.685c36.84-95.574 83.337-190.838 138.47-286.063l-24.47-7.874z" /></svg>