<svg xmlns="http://www.w3.org/2000/svg" width="100%" height="100%" viewBox="0 0 583.68 583.68"><path d="M164.75199999999998 57.40299999999998c-0.507 0.012-1.01 0.043-1.504 0.11C133.59299999999996 61.364999999999974 110.43999999999997 93.59999999999997 110.43999999999997 132.50199999999998c0 21.547 7.39 40.787 18.767 54.5-61.678 11.593-66.342 115.44-66.342 188.347h42.772l11.348 152.158h108.68L235.7 375.34999999999997h40.593c0-73.108 1.47-178.783-65.904-189.22 10.89-13.647 17.893-32.613 17.893-53.628 0-41.496-26.445-74.99-58.923-74.99-1.523 0-3.087-0.146-4.608-0.11z m239.828 0c-0.507 0.012-1.01 0.043-1.504 0.11-29.655 3.853-52.808 36.087-52.808 74.99 0 21.547 7.39 40.787 18.767 54.5-61.678 11.593-66.34 115.44-66.34 188.347h30.323l-10.17-11.422c-0.31-51.837 1.858-95.18 24.008-135.484l-1.543 146.906h0.152l11.348 152.158h86.013l-66.03-12.006c-11.876-104.37-18.402-205.544-4.09-308.36 0 0 9.455-6.07 24.03-13.396-14.157-12.08-23.552-33.24-23.552-57.345 0-37.564 22.797-68.013 50.918-68.013 8.887 0 17.24 3.046 24.51 8.392-10.45-11.98-24.28-19.268-39.424-19.268-1.523 0-3.087-0.146-4.608-0.11z m69.192 171.308l1.685 147.214 22.324-0.262c0.31-51.836-1.86-106.647-24.008-146.95z m1.685 147.214h-0.002l0.002 0.006v-0.006z" /></svg>