<svg xmlns="http://www.w3.org/2000/svg" width="100%" height="100%" viewBox="0 0 583.68 583.68"><path d="M315.65599999999995 121.76999999999998L305.14 136.30499999999998l28.06 27.111 8.694-16.3z m-21.175 29.267l-42.282 58.436 37.246 35.984 34.946-65.525zM189.295 173.73999999999998l-46.816 29.192L342.29999999999995 395.98999999999995c4.08-1.929 8.605-3.15 13.539-3.15 3.881 0 7.508 0.76 10.867 2.02l-1.55-1.499 12.503-12.945L390.522 392.84l-10.268 10.63c4.31 3.924 8.02 8.35 11.486 12.745l11.077-11.465 12.859 12.426-12.508 12.945c3.62 4.436 8.724 9.265 13.916 10.43l10.908-11.293 5.016 4.846c3.702-3.574 7.58-8.457 11.63-13.664z m-98.623 4.168c-4.078 8.773-3.407 19.566-0.8 32.7 3.406 17.167 10.435 36.207 10.222 54.75-0.075 6.474-1.264 12.54-2.803 18.23l116.563 112.615C218.04799999999997 394.15 222.72499999999997 392.84 227.83999999999997 392.84c9.367 0 17.28 4.373 23.41 9.713 6.13 5.34 11.027 11.762 15.694 17.762 4.666 6 9.103 11.577 13.306 15.238 4.203 3.66 7.623 5.287 11.59 5.287 3.967 0 7.387-1.627 11.59-5.287s8.64-9.238 13.306-15.238c3.429-4.408 6.985-9.042 11.06-13.309z m106.947 28.569l12.862 12.425-12.508 12.946-12.862-12.426z m208.06 2.263l-10.517 14.536 28.059 27.109 8.693-16.299zM223.33999999999997 231.32599999999996l12.86 12.424-12.504 12.945-12.86-12.423z m161.165 6.682l-42.283 58.436 37.246 35.982 34.945-65.524zM249.05999999999997 256.174l12.861 12.424-12.504 12.945-12.861-12.424z m25.722 24.85l12.86 12.423-12.508 12.946-12.86-12.424z m221.084 15.191l-10.517 14.537 28.06 27.11 8.694-16.301zM91.39999999999998 302.924a66.9 66.9 0 0 0-0.627 2.52c-2.532 11.232-2.865 18.802 7.882 29.185l89.479 86.453c0.203-0.26 0.4-0.506 0.603-0.767 3.338-4.292 6.802-8.794 10.743-12.967z m209.103 2.947l12.86 12.424-12.508 12.945-12.86-12.423z m174.188 19.612l-42.145 58.246 23.654 22.855a68.962 68.962 0 0 1 4.23-4.031C466.56 397.21299999999997 474.474 392.84 483.84 392.84c0.082 0 0.162 0.005 0.244 0.006l20.516-38.469z m-148.467 5.236l12.86 12.426-12.509 12.945-12.859-12.426z m25.72 24.85l12.86 12.423-12.508 12.946-12.86-12.424zM99.83999999999997 410.84c-19.807 5.72-33.274 18.147-46 31.898v30.579l0.01-0.006C67.36499999999998 464.46 83.53999999999998 454.84 99.83999999999997 454.84s27.881 10.654 37.842 19.154C147.642 482.49399999999997 155.98399999999998 488.84 163.83999999999997 488.84c7.856 0 16.197-6.346 26.158-14.846C199.95999999999998 465.49399999999997 211.53999999999996 454.84 227.83999999999997 454.84c16.3 0 27.881 10.654 37.842 19.154C275.64199999999994 482.49399999999997 283.984 488.84 291.84 488.84c7.856 0 16.197-6.346 26.158-14.846C327.96 465.49399999999997 339.53999999999996 454.84 355.84 454.84c16.3 0 27.881 10.654 37.842 19.154C403.642 482.49399999999997 411.984 488.84 419.84 488.84c7.856 0 16.197-6.346 26.158-14.846C455.96 465.49399999999997 467.53999999999996 454.84 483.84 454.84c16.3 0 32.475 9.62 45.99 18.47l0.01 0.007v-30.578c-9.969-10.693-33.06-31.31-46-31.899-3.967 0-7.387 1.627-11.59 5.287C455.61999999999995 432.126 443.265 458.431 419.84 458.84c-27.151-1.916-36.8-28.488-52.41-42.713-4.203-3.66-7.623-5.287-11.59-5.287-3.967 0-7.387 1.627-11.59 5.287C327.61999999999995 432.126 315.265 458.431 291.84 458.84c-27.151-1.916-36.8-28.488-52.41-42.713-4.203-3.66-7.623-5.287-11.59-5.287-3.967 0-7.387 1.627-11.59 5.287C199.61999999999998 432.126 187.265 458.431 163.83999999999997 458.84c-27.151-1.916-36.8-28.488-52.41-42.713C107.22699999999998 412.467 103.80699999999997 410.84 99.83999999999997 410.84z m0 62c-18.195 3.791-32.267 12.364-46 22.385V529.8399999999999h476v-34.615c-11.752-8.054-32.671-21.938-46-22.385-24.766 6.02-41.304 33.45-64 34-23.532 2.01-46.008-36.297-64-34-25.282 3.227-41.304 33.45-64 34-23.532 2.01-46.008-36.297-64-34-25.282 3.227-41.304 33.45-64 34-23.532 2.01-45.87-33.455-64-34z" /></svg>