<svg xmlns="http://www.w3.org/2000/svg" width="100%" height="100%" viewBox="0 0 583.68 583.68"><path d="M132.21499999999997 55.933999999999976l30.813 40.75 130.28 130.28L411.15299999999996 109.12199999999997l40.22-53.186-159.594 108.094L132.21499999999997 55.933999999999976zM488.06 95.36999999999998l-113.564 76.845-74.562 74.563-6.594 6.625-6.625-6.625L212.777 172.83999999999997 98.43399999999997 95.46499999999997l80.844 119.47 69.656 69.655 6.594 6.594-6.594 6.625-74.813 74.81L97.40299999999998 486.03l120.75-81.688 68.657-68.656 6.593-6.625 6.625 6.624 69.562 69.562 119.53 80.906-77.374-114.343-73.937-73.94-6.595-6.592 6.594-6.625 68.56-68.563 81.69-120.72z m-430 34.69l108.124 159.593L58.059999999999974 449.215l53.468-40.438L229.08999999999997 291.215 98.65199999999997 160.777 58.059999999999974 130.05999999999997z m470.624 3.155l-53.22 40.22-117.812 117.843 130.47 130.468 40.53 30.656L420.56 292.81 528.683 133.21399999999997z m-235.28 222.28l-117.69 117.69-40.343 53.342 159.595-108.093 159.563 108.094L423.84 485.93399999999997 293.402 355.496z" /></svg>