<svg xmlns="http://www.w3.org/2000/svg" width="100%" height="100%" viewBox="0 0 583.68 583.68"><path d="M368.94 98.01999999999998L60.24999999999997 153.14l-0.11 30.6 314.1-56.18zM266.84 165.03999999999996l-30 5.4V330.84h30zM106.83999999999997 193.64l-30 5.4V330.84h30zM348.34 221.83999999999997c-8.6 6.1-7 24.1 3.5 40.1-21.6 7.5-45.6 17.2-67 25.6V330.84h16v90.9c41.3-20.8 74.4-52.7 106.8-89 4.6 22.8 33.9 25.9 51.1 28.7 0 0 0.9 13.3 7 18.6 9.2 7.8 24.1 13.4 34.6 7.4 9.7-5.6 9.2-25.7 9.1-29.3-0.2-7.5-7.3-13.1-13.9-16-18-35-57.4-90.7-90.8-93.1-4.6-0.3-11.2 0.7-19 2.5-13.7-9.2-32.1-23.7-37.4-29.7zM218.83999999999997 308.34c-39.6 2.4-69.5 2.6-94 3V330.84h94zM60.839999999999975 348.84v46h222v-46H60.839999999999975z m0 64v46h222v-46z m0 64v46h222v-46z" /></svg>