<svg xmlns="http://www.w3.org/2000/svg" width="100%" height="100%" viewBox="0 0 583.68 583.68"><path d="M53.91999999999997 58.839999999999975l0.1 18H529.8399999999999V58.839999999999975H53.91999999999997zM290.14 90.76999999999998L168.83999999999997 97.43999999999997l30.1 68.5 98.1-3.6-6.9-71.57z m115.9 0.28l-92.9 0.53 3 71.96 96.8-0.9-6.9-71.59zM54.06999999999998 92.26999999999998l0.35 74.67 72.27-2.4 24.35-72.27H54.06999999999998zM428.84 100.07999999999997l-0.5 47.16 15.7 21.5 85.8-6.3V100.76999999999998l-101-0.69zM156.64 120.51999999999998l-17.6 49.82 41.1-1-8.2-34.02-15.3-14.8z m354.7 56.02l-4 75.5 22.5-0.6v-74.9h-18.5z m-25.7 3.5l-97.3 10.7L381.84 254.83999999999997l110.7-3.2-6.9-71.6z m-243.8 0.7l-4 75.5 126.1-3.9 7-71.1-129.1-0.5z m-145.33 2.7l-3.9 75.5 126.13-3.9-6.9-71.6H96.50999999999998z m-42 1.5l0.33 72.4 24.77-0.8-6.9-71.6h-18.2z m278.93 84.3L311.84 313.03999999999996l2.1 42 128.7-1.9-7.6-79.7-101.6-4.2z m-40.2 1.4l-127.2 6 8 69.5 124.7 6.6-5.5-82.1z m236.6 3.1l-66.5 2.9-7.5 75.8 74-5.2v-73.5z m-474.89 7l0.31 65.8 100.78-3.1-6.9-62.7H54.949999999999974z m470.29 81.2l-115.9 10.5-3.3 65 121.5-3.5-2.3-72z m-422.36 4.1l-47.52 2 0.34 72.9 51.1-1.3-3.92-73.6z m17.84 0l3.98 68.5 138.64 9.6-3-78.1H120.71999999999997z m161.22 4.3l-5.5 69 107.5 5.4-1-73.5-101-0.9z m185.4 81.1l-4 75.5 66.5-0.6v-73.8l-62.5-1.1z m-9.8 1.2l-39 3.6 27.4 28 11.6-31.6z m-399.46 1.8l-2.13 40.6 0.16 34.8H181.23999999999998v-68.9l-46.56-2.5-18.4 14L104.39999999999998 456.84l-46.32-2.4z m247.96 0.3l-111.3 1.5 3.5 72.5 114.7-2.4-6.9-71.6z m101.2 4.3l-72.2 5.9-8.9 62.1 125.6 0.6-6.2-27-38.3-41.6z" /></svg>