<svg xmlns="http://www.w3.org/2000/svg" width="100%" height="100%" viewBox="0 0 583.68 583.68"><path d="M266.246 50.495999999999974c-11.74 0.595-21.094 10.332-21.094 22.22 0 12.27 9.948 22.187 22.22 22.187 12.27 0 22.218-9.917 22.218-22.188 0-12.27-9.948-22.22-22.22-22.22-0.382 0-0.745-0.018-1.124 0z m119.5 75.5c-14.066 0-25.47 11.402-25.47 25.47 0.002 14.066 11.404 25.468 25.47 25.468 14.067 0 25.47-11.402 25.47-25.47 0-14.066-11.403-25.468-25.47-25.468zM267.43399999999997 140.08999999999997c9.608 135.475-16.43 339.177-104.03 143.063 43.005 161.424-1.16 193.905-82.158 134.375C128.73199999999997 464.068 132.43999999999997 481.84 129.27799999999996 525.903h87.53c6.024-134.79 170.218-112.52 160.97 0h61.593c-2.084-64.2 19.595-109.802 79.72-169.063-61.48 49.15-138.108 86.467-125.438-41.188-48.405 139.543-115.11-25.45-126.218-175.562zM426.34 199.15299999999996c-19.997 0-36.22 16.22-36.22 36.218 0 19.998 16.223 36.22 36.22 36.22s36.188-16.222 36.188-36.22c0-19.996-16.19-36.218-36.188-36.218zM85.11999999999998 340.74499999999995c-14.065 0-25.468 11.402-25.468 25.47 0 14.066 11.403 25.468 25.47 25.468 14.066 0 25.468-11.402 25.468-25.47 0-14.066-11.402-25.468-25.47-25.468z" /></svg>