<svg xmlns="http://www.w3.org/2000/svg" width="100%" height="100%" viewBox="0 0 583.68 583.68"><path d="M291.84 51.839999999999975c-7.395 0-15.073 25.16-22.5 56.971a184.615 184.615 0 0 0-90.865 37.79C150.7 129.33499999999998 127.31199999999997 116.84599999999998 122.07999999999997 122.07999999999997c-5.225 5.227 7.288 28.52 24.52 56.25a184.615 184.615 0 0 0-37.933 91.01C76.91999999999997 276.75699999999995 51.839999999999975 284.455 51.839999999999975 291.84c0 7.395 25.16 15.073 56.971 22.5a184.615 184.615 0 0 0 37.79 90.865c-17.266 27.776-29.753 51.162-24.52 56.394 5.228 5.226 28.52-7.287 56.25-24.52a184.615 184.615 0 0 0 91.01 37.934c7.418 31.75 15.116 56.828 22.5 56.828 7.395 0 15.073-25.16 22.5-56.972a184.615 184.615 0 0 0 90.865-37.788c27.776 17.263 51.162 29.752 56.394 24.52 5.226-5.227-7.287-28.52-24.52-56.25a184.615 184.615 0 0 0 37.932-91.01C506.763 306.923 531.8399999999999 299.22499999999997 531.8399999999999 291.84c0-7.395-25.16-15.074-56.971-22.5a184.615 184.615 0 0 0-37.79-90.866c17.265-27.775 29.753-51.162 24.52-56.394-5.228-5.226-28.52 7.287-56.25 24.52a184.615 184.615 0 0 0-91.01-37.933C306.92199999999997 76.91999999999997 299.22499999999997 51.839999999999975 291.84 51.839999999999975z m3.172 129.23A110.77 110.77 0 0 1 402.60999999999996 291.84a110.77 110.77 0 0 1-221.54 0 110.77 110.77 0 0 1 113.944-110.77z" /></svg>