<svg xmlns="http://www.w3.org/2000/svg" width="100%" height="100%" viewBox="0 0 583.68 583.68"><path d="M292.02 56.839999999999975c-23.242 0-46.577 3.01-63.186 8.54-8.304 2.763-14.868 6.196-18.808 9.558-3.94 3.36-5.167 5.956-5.186 8.96L204.783 92.83999999999997H76.83999999999997v14h430V92.83999999999997H378.80699999999996l0.033-9.033c0.01-3.002-1.17-5.55-5.057-8.895-3.887-3.344-10.407-6.773-18.677-9.535C338.56399999999996 59.85399999999997 315.26 56.839999999999975 292.02 56.839999999999975zM74.11699999999998 124.83999999999997l-10.443 94h80.9l20.243-86.36L158.64999999999998 218.83999999999997h81.07l17.114-86.68-3.096 86.68h75.75l-4.634-86.518L343.534 218.83999999999997h81.497l-6.167-86.36L439.106 218.83999999999997h80.9l-10.443-94H74.11699999999998zM61.67399999999998 236.83999999999997l-0.51 4.588C75.66199999999998 262.28499999999997 88.80799999999998 270.84 99.83999999999997 270.84c11.32 0 24.852-8.89 39.8-30.96l0.714-3.04h-78.68z m95.687 0l-0.32 4.498C171.59299999999996 262.335 184.77499999999998 270.84 195.83999999999997 270.84c11.293 0 24.788-8.85 39.693-30.803l0.63-3.197h-78.802z m95.736 0l-0.156 4.352C267.53 262.29499999999996 280.74799999999993 270.84 291.84 270.84c11.08 0 24.28-8.525 38.85-29.576l-0.237-4.424h-77.357z m94.324 0l0.674 3.12c15 22.192 28.503 31.044 39.773 31.013 11.03-0.03 24.212-8.62 38.772-29.637l-0.32-4.496h-78.9z m95.906 0l0.713 3.04C458.98699999999997 261.95 472.52 270.84 483.84 270.84c11.032 0 24.178-8.555 38.676-29.412l-0.51-4.588h-78.68zM147.83999999999997 259.15C133.15299999999996 277.95 117.33199999999998 288.84 99.83999999999997 288.84c-13.972 0-26.884-6.906-39-19.264V522.8399999999999h318V314.84h114v208h30V269.57599999999996C510.724 281.93399999999997 497.81199999999995 288.84 483.84 288.84c-17.49 0-33.31-10.888-47.996-29.684-14.664 18.808-30.432 29.77-47.926 29.817-17.508 0.048-33.352-10.87-48.092-29.807C325.143 277.956 309.32599999999996 288.84 291.84 288.84c-17.492 0-33.313-10.89-48-29.69-14.687 18.8-30.508 29.69-48 29.69s-33.313-10.89-48-29.69zM90.83999999999997 314.84h258v178H90.83999999999997V314.84z m18 18v142h222V332.84H108.83999999999997z m288 0v71.064l78 0.573V332.84h-78zM123.83999999999997 347.84h128c-108.235 8-116.31 24-128 113.11V347.84z m273 74.066v13.998l78 0.573v-14.002l-78-0.57z m0 32V522.8399999999999h78v-68.365l-78-0.57z" /></svg>