<svg xmlns="http://www.w3.org/2000/svg" width="100%" height="100%" viewBox="0 0 583.68 583.68"><path d="M350.84 179.83999999999997v21.75L327.84 195.83999999999997l-16 80H199.83999999999997c-49.154 16.385-81.254 27.1-102.578 34.846L87.83999999999997 291.84l-16-16v44.918C55.88699999999997 328.15 55.839999999999975 332.15599999999995 55.839999999999975 339.84c0 7.712 0.05 11.717 16 19.162V403.84l16-16 9.352-18.703c21.094 7.734 52.752 18.418 101.072 34.703H407.84c160-16 160-128 0-128h-16v-64l-23-5.75V179.83999999999997h-18zM183.83999999999997 298.84h256v18H183.83999999999997v-18z" /></svg>