<svg xmlns="http://www.w3.org/2000/svg" width="100%" height="100%" viewBox="0 0 583.68 583.68"><path d="M372.52799999999996 55.119999999999976l-69.594 40.19h-0.03c-10.144 5.872-16.94 21.494-17.283 43.03-0.055 3.52 0.09 7.167 0.376 10.906l163-94.125h-76.47zM67.15299999999998 63.99699999999997c35.74 29.83 71.094 60.96 104.78 93.844-26.695-11.76-55.13-21.43-85.343-28.72 35.576 32.083 70.467 65.893 102.47 102.25-22.847-11.376-47.76-20.615-74.845-27.343 84.1 84.957 160.533 184.743 164.25 323.063H528.2149999999999v-64.594c-27.172-59.788-61.547-116.962-103.125-168.78l-5.375 3.093c-21.887 12.636-48.78 5.618-72.438-10-23.657-15.62-45.577-40.4-60.25-68.532-11.64-22.323-18.297-46.47-19.78-68.72C208.32299999999998 111.14599999999997 141.65999999999997 81.59299999999998 67.14999999999998 63.99699999999997z m463.53 0.094L298.27799999999996 198.27799999999996c1.632 3.834 3.402 7.65 5.344 11.375 2.527 4.84 5.314 9.577 8.314 14.187l218.75-126.313V64.08999999999997z m0 55L322.99699999999996 239.02799999999996c10.542 13.03 22.544 24.232 34.594 32.187 20.43 13.487 39.433 17.113 52.78 9.406h0.033l120.28-69.155V119.08999999999997zM127.02799999999998 298.965c-10.555-0.048-18.914 2.914-24.468 8.47-8.888 8.886-11.19 24.946-5.032 45.717 6.156 20.772 20.72 44.94 42.187 66.407 21.466 21.464 45.635 36.03 66.406 42.186 20.773 6.157 36.833 3.856 45.72-5.03 0.51-0.51 1.003-1.04 1.47-1.595-10.497-45.277-29.17-86.01-52.845-123.436-17.523-14.44-35.9-24.454-52.188-29.28-7.79-2.31-14.916-3.41-21.25-3.44z m-51.53 28.906L55.869999999999976 347.49699999999996v47.625l27.032-27c-1.245-3.244-2.364-6.458-3.312-9.655-3.11-10.488-4.6-20.897-4.094-30.594z m33 84.533L55.869999999999976 465.02799999999996v46.375l74.657-74.657c-1.36-1.294-2.69-2.626-4.03-3.97-6.592-6.59-12.59-13.424-18-20.373z m36.156 36.656L64.36999999999998 529.3399999999999h112.595l45.656-45.656c-7.08-0.46-14.43-1.843-21.81-4.03-18.405-5.456-37.766-15.88-56.157-30.595z" /></svg>