<svg xmlns="http://www.w3.org/2000/svg" width="100%" height="100%" viewBox="0 0 583.68 583.68"><path d="M195.83999999999997 67.83999999999997c-16 0-32 16-32 32v384c0 16 16 32 32 32h192c16 0 32-16 32-32V99.83999999999997c0-16-16-32-32-32H195.83999999999997z m21.68 23h96v18h-96V90.83999999999997zM339.84 90.83999999999997h32v18h-32V90.83999999999997zM189.83999999999997 131.83999999999997h204v320H189.83999999999997V131.83999999999997z m70 342h63.984c16 0 16 16 16 16v6H243.83999999999997v-6s0-16 16-16z" /></svg>