<svg xmlns="http://www.w3.org/2000/svg" width="100%" height="100%" viewBox="0 0 583.68 583.68"><path d="M389.34 51.839999999999975c-15 0-15 15-15 30v60a15 15 0 0 0-15 15v30a15 15 0 0 0 15 15v210c0 33.137-26.863 60-60 60s-60-26.863-60-60c0 0 15-15 15-30s45-30 45-45-15-15-15-15-8.565 8.59-20.72 18.25A15 15 0 0 0 254.33999999999997 351.84a15 15 0 0 0 0.72 4.53C244.57299999999998 362.426 233.72499999999997 366.84 224.33999999999997 366.84c-9.375 0-20.214-4.395-30.688-10.438A15 15 0 0 0 194.33999999999997 351.84a15 15 0 0 0-24.28-11.78C157.91199999999998 330.402 149.33999999999997 321.84 149.33999999999997 321.84s-15 0-15 15 45 30 45 45 15 30 15 30c0 66.274 53.726 120 120 120s120-53.726 120-120V201.83999999999997a15 15 0 0 0 15-15v-30a15 15 0 0 0-15-15V81.83999999999997c0-15 0-30-15-30h-30z" /></svg>