<svg xmlns="http://www.w3.org/2000/svg" width="100%" height="100%" viewBox="0 0 583.68 583.68"><path d="M282.84 108.93799999999997c-54.26 1.974-69.31 21.918-90.365 44.886-21.25 23.18-48.362 48.605-115.635 50.71v78.208h16v98H76.83999999999997v94h206V108.93799999999997z m18 0v365.804h206v-94h-16v-98h16v-78.207c-67.273-2.106-94.386-27.53-115.635-50.71C370.15 130.85399999999998 355.09999999999997 110.90999999999997 300.84 108.93699999999997z m-87 45.804h54v18h-54v-18z m102 0h54v18h-54v-18z m-136 32h88v18h-88v-18z m136 0h88v18h-88v-18z m-216 32h168v18H99.83999999999997v-18z m216 0h168v18H315.84v-18z m-216 32h168v18H99.83999999999997v-18z m216 0h168v18H315.84v-18z m-208 32h160v18H107.83999999999997v-18z m208 0h160v18H315.84v-18z m-255 18v62h14v-62H60.839999999999975z m448 0v62h14v-62h-14z m-401 14h160v18H107.83999999999997v-18z m208 0h160v18H315.84v-18z m-208 32h160v18H107.83999999999997v-18z m208 0h160v18H315.84v-18z m-208 32h160v18H99.83999999999997l8-18z m208 0h160l8 18H315.84v-18z m-216 32h168v18H99.83999999999997v-18z m216 0h168v18H315.84v-18z m-216 32h168v18H99.83999999999997v-18z m216 0h168v18H315.84v-18z" /></svg>