<svg xmlns="http://www.w3.org/2000/svg" width="100%" height="100%" viewBox="0 0 583.68 583.68"><path d="M282.15299999999996 60.40299999999998l-66.125 133.78L258.09 251.83999999999997c9.095-7.82 17.132-17.24 24.063-28.5V60.40199999999997z m18.687 0.625v162.406c6.37 11.466 14.176 21.062 23.375 29L366.84 194.08999999999997 300.84 61.02699999999997zM200.027 203.93399999999997L56.684999999999974 224.80999999999997l156.53 51.093c10.752-3.268 20.687-7.577 29.782-13.094l-42.97-58.876z m182.782 0L339.433 263.34c9.343 5.507 19.765 9.777 31.28 12.97l157.876-51.19-145.78-21.186z m-91.533 33.844c-17.96 25.962-42.385 42.9-71.25 52.218 22.825 23.285 29.075 53.562 26.782 85.656 30.114-12.898 60.604-9.374 89.874 1.438-2.023-31.53 4.755-61.705 27.156-86.656-30.68-9.16-55.663-26.35-72.563-52.656zM49.089999999999975 241.99499999999998l106.72 104 68.936-22.344c-5.1-11.618-13.2-22.024-25.22-31.125l-3.374-2.53-147.062-48z m482.156 1.906L385.02599999999995 291.34l-0.967 0.844c-11.146 9.762-18.935 20.302-24.095 31.625l67.375 21.967 103.906-101.875z m-301.062 97.625l-68.72 22.282-25.718 146.75 28.813-39.47 66.31-90.813c1.518-13.88 1.532-26.83-0.686-38.75z m123.906 0c-2.725 12.42-3.01 25.66-1.594 39.72l93.563 128.25-24.658-146.032-67.312-21.938z m-71.938 41.22c-12.81 0.772-25.57 4.355-38.468 11.656l-64.03 87.718-26.908 36.845 129.406-67.813v-68.406z m18.688 0.75v67.717l129.625 68.595-91.25-125.095c-13.052-5.493-25.79-9.5-38.375-11.22z" /></svg>