<svg xmlns="http://www.w3.org/2000/svg" width="100%" height="100%" viewBox="0 0 583.68 583.68"><path d="M307.52799999999996 53.915999999999976c30.998 22.56 59.474 47.18 85.85 74.17-55.465-17.182-111.375-24.518-166.444-24.53 131.154 56.898 232.282 146.106 301.353 302.522v-65.394c-43.575-82.686-107.69-155.17-176.906-190.42C424.42499999999995 171.25999999999996 482.616 215.67 525.8399999999999 258.87399999999997 477.015 131.96699999999998 411.256 74.53299999999997 307.52799999999996 53.91499999999998zM102.53199999999997 56.833999999999975C87.92999999999998 169.06999999999996 91.40999999999997 284.29999999999995 124.72699999999998 396.15c-33.756-40.1-58.85-84.33-71.25-130.236 1.203 129.388 75.925 229.466 194.035 261.7-54.595-68.506-108.85-165.455-111.063-290.587 28.372 118.453 129.845 227.278 256.544 294.03H516.02C284.37 422.52 165.09299999999996 262.924 102.53299999999997 56.833999999999975z m19.805 15.313l156.135 180.22c-32.287-17.453-65.367-34.38-98.07-51.318 85.847 129.425 186.64 243.742 347.11 295.397-64.525-60.37-95.74-102.014-127.757-150.318-48.695-14.554-101.03-37.668-144.51-76.456 44.58 26.788 123.108 42.688 185.977 48.342-79.726-127.645-192.9-186.57-318.885-245.87z" /></svg>