<svg xmlns="http://www.w3.org/2000/svg" width="100%" height="100%" viewBox="0 0 583.68 583.68"><path d="M88.58999999999997 54.60999999999997C254.93999999999997 126.81999999999998 386.64 212.53999999999996 462.44 309.34 398.94 390.53999999999996 297.94 464.64 170.93999999999997 529.8399999999999h40c79.3-43.1 147.9-89.9 202.6-140.5-39.1 50.4-88.1 97.4-144.9 140.5h30.4c80.1-63.9 144.3-136.2 185.4-216.3l2.2-4.2-2.2-4.3C435.23999999999995 209.33999999999997 351.73999999999995 125.72999999999998 246.83999999999997 54.60999999999997h-33.9C293.44 106.20999999999998 361.73999999999995 164.64 412.84 229.23999999999998 341.53999999999996 164.33999999999997 246.33999999999997 106.24999999999997 134.34999999999997 54.60999999999997H88.58999999999997z m286.85 0C455.34 122.85999999999997 500.34 204.33999999999997 508.03999999999996 286.64c7.7 83.6-22.8 168.6-96.8 243.2h25.8c20.8-22.7 37.9-46.5 51.5-70.9-7.6 24.5-17.1 48.2-28.8 70.9h20.9c72.3-148.7 61.7-336.5-17.8-475.23h-21.6c20 33.13 35.9 69.56 47.3 107.83-20.6-38.1-49.1-74.46-85-107.83h-28.1zM55.129999999999974 136.23999999999998v18.7c98.91 0.5 192.11 33.8 275.81 93.3-83.7-43.1-177-67.4-275.81-67.8v18.7c126.31 0.5 243.11 41.3 341.91 111.2C297.84 381.23999999999995 182.03999999999996 424.84 55.129999999999974 425.44v18.6c97.11-0.4 187.91-25.2 269.81-67.6-82.1 58.6-172.8 92.6-269.81 93.2v18.7c138.51-0.8 264.11-66.9 369.61-172.2l6.7-6.6-6.7-6.7c-104-106.4-248.8-163.9-369.61-166.6zM236.64 272.14v80.3c48.2 0 92-15.6 129-40.8-36.9-25-81.1-39.5-129-39.5z m-164.17 0.5V351.84h22.33v-79.2z m41.02 0V351.84H215.14v-79.2z" /></svg>