<svg xmlns="http://www.w3.org/2000/svg" width="100%" height="100%" viewBox="0 0 583.68 583.68"><path d="M204.86699999999996 75.93599999999998C128.97999999999996 96.66299999999998 84.32999999999998 174.75599999999997 106.44499999999998 253.85999999999999c1.862-60.04 52.693-111.227 115.96-112.48l-17.536-65.444h-0.003z m192.815 7.58l-181.95 315.15C120.33999999999997 365.856 65.07399999999998 265.186 87.21799999999998 170.95999999999998c-67.885 114.69-33.277 255.173 73.343 323.26l-0.084 0.145 3.934 2.272c1.443 0.883 2.89 1.762 4.358 2.62l0.045-0.08 7.847 4.532 181.528-314.413c98.517 30.923 156.16 133.487 133.623 229.383 69.6-117.59 31.477-262.31-81.553-328.295l-0.172 0.297-12.408-7.166z m72.652 256.68c-1.86 60.038-52.694 111.226-115.96 112.478l17.536 65.443c75.89-20.722 120.538-98.818 98.424-177.92z" /></svg>