<svg xmlns="http://www.w3.org/2000/svg" width="100%" height="100%" viewBox="0 0 583.68 583.68"><path d="M182.16599999999997 41.989999999999974l87.813 128.725-60.87-39.916 34.925 62.864L74.39999999999998 83.89999999999998h-0.003c40.207 71.33 82.046 134.913 129.23 191.764L339.78 139.51c-45.164-37.052-96.674-69.324-157.614-97.52z m347.145 9.496L408.823 97.55299999999997l-214.59 214.09 13.213 13.215L419.207 113.58999999999997l78.078-29.85-29.402 78.56-211.746 211.25 13.213 13.214 214.61-214.106 45.35-121.172zM443.017 124.96999999999997l-259.95 259.95c-11.956-17.32-11.687-40.444 0.25-57.764l-31.26-31.255c-28.637 34.832-28.588 85.102 0.167 119.864L88.17599999999997 479.81c-2.528-0.95-5.184-1.43-7.842-1.43-5.74 0-11.476 2.216-15.908 6.647-8.864 8.865-8.866 22.953 0 31.82 8.864 8.863 22.954 8.863 31.818 0 6.512-6.513 8.234-15.844 5.178-23.853l64.057-64.056c34.788 28.437 85.12 28.65 119.817 0.203l-31.262-31.26c-17.28 11.84-40.352 11.907-57.68 0.18l259.876-259.874-13.214-13.215z m-2.196 117.01L304.02599999999995 378.777c55.29 48.057 118.235 90.138 192.464 127.216L434.623 387.25l102.78 68.85-117.75-164.645 86.816 42.908c-20.895-33.04-42.523-63.772-65.65-92.382z" /></svg>