<svg xmlns="http://www.w3.org/2000/svg" width="100%" height="100%" viewBox="0 0 583.68 583.68"><path d="M62.72299999999997 57.67399999999998C138.65999999999997 111.28999999999998 213.12299999999996 201.29999999999998 235.36999999999998 293.89 196.21999999999997 211.09199999999998 121.11699999999998 130.7 58.89999999999998 104.07999999999997v35.356c199.378 131.08 141.663 248.82 332.307 393.043h57.326C386.48999999999995 493.34 329.90999999999997 439.88599999999997 293.106 360.21999999999997l-0.012-0.015v-0.01l0.012 0.024c60.613 77.353 142.26 138.53 237.125 172.26h0.557V398.157c-105.79-32.628-179.012-83.115-223.68-138.996 55.382 48.512 146.278 89.87 223.68 102.787V311.14C437.347 302.84 338.21999999999997 252.71999999999997 269.72999999999996 189.65999999999997c-41.93-38.608-76.697-89.898-141.33-131.988H62.72199999999998zM415.59 160.76999999999998c-13.29 0-24.064 10.772-24.064 24.062 0 13.29 10.774 24.065 24.064 24.065 13.29 0 24.063-10.775 24.063-24.065 0-13.29-10.773-24.062-24.063-24.062zM64.71499999999997 194.85799999999998c57.203 45.017 125.82 141.277 113.432 200.084-2.225-0.825-4.62-1.297-7.13-1.297-11.35 0-20.55 9.2-20.55 20.55 0 11.348 9.2 20.55 20.55 20.55 8.03 0 14.966-4.618 18.346-11.333 6.737-9.864 8.02-29.06 6.88-48.65-4.168-71.813-54.245-147.98-131.528-179.904z m420.65 6.11c-17.79 0-32.63 12.623-36.05 29.4-29.74 7.17-71.18-0.14-102.946-15.383 41.363 34.55 87.107 53.456 131.75 58.85 2.342 0.47 4.765 0.72 7.245 0.72 20.322 0 36.793-16.475 36.793-36.795s-16.47-36.793-36.793-36.793zM206.25799999999998 323.80199999999996c11.662 34.126 16.555 79.606 9.85 114.375-8.134 5.784-13.446 15.28-13.446 26.02 0 17.625 14.288 31.913 31.914 31.913s31.914-14.287 31.914-31.913c0-6.315-1.84-12.195-5.005-17.15l-55.227-123.244z" /></svg>