<svg xmlns="http://www.w3.org/2000/svg" width="100%" height="100%" viewBox="0 0 583.68 583.68"><path d="M332.465 61.245999999999974c-63.794 0.388-135.81 14.683-206.03 32.844-3.472 34.08 2.226 68.906 14.03 104.25C217.015 111.77599999999998 429.48999999999995 80.66499999999998 522.56 163.83999999999997 491.85999999999996 86.30599999999998 419.88599999999997 60.71399999999997 332.464 61.245999999999974zM101.49499999999998 97.27799999999998L63.745999999999974 106.83999999999997c5.643 78.022 28.546 132.393 60.44 174.47-16.54 10.348-40.693 19.673-68.782 26.843 5.664 6.597 14.25 16.18 30.53 18.53 24.846-4.33 39.912-14.982 53.75-26.593 76.24 85.145 190.22 118.955 253.126 224.22l49.436-0.126C326.83599999999996 311.15599999999995 116.84999999999998 400.64399999999995 101.49599999999998 97.27799999999998z" /></svg>