<svg xmlns="http://www.w3.org/2000/svg" width="100%" height="100%" viewBox="0 0 583.68 583.68"><path d="M67.76999999999998 53.339999999999975c14.09 36.4 23.83 78.53 28.84 122.8C138.43999999999997 162.53999999999996 175.83999999999997 144.43999999999997 213.53999999999996 120.83999999999997c1.5-22.21 4-44.45 7.6-66.72z m171.47 0.87c-3 18.12-5.2 36.25-6.7 54.37 8.1-5.47 16.4-11.22 24.7-17.22 2.2-14.63 4.9-27.27 7.8-37.02z m19.9 57.78C204.33999999999997 150.53999999999996 152.03999999999996 178.33999999999997 90.30999999999997 196.83999999999997c-2.32 10-4.96 19.8-4.01 29.4C145.33999999999997 208.83999999999997 195.03999999999996 180.73999999999998 250.83999999999997 140.33999999999997c6-9.05 8.3-18.4 8.3-28.35z m-8.2 50.45c-7 4.9-14 9.7-20.9 14.2 0.2 15.7 0.7 31.4 1.7 47.1 6.7-5.3 13.1-10.8 19.3-16.6-0.6-15.2-0.6-30.2-0.1-44.7z m-38.7 25.7c-36.2 22.5-72 40.1-111.75 52.7 0.14 16.2-0.36 32.5-1.49 48.6 47.14-14.2 84.34-31.6 115.54-53.1-1.2-16-2-32.1-2.3-48.2z m48.9 34c-42.5 38.7-95.5 67.5-169.98 88.3-5.68 9.4-8.78 19.3-8.04 29.4 60.82-25 122.42-42.3 173.02-86.9 3.7-11.6 5.6-21.3 5-30.8z m-3.4 53c-6.4 5.1-13 9.9-19.8 14.4 3 23.4 6.7 46.9 11 70.3 9.6-7 18-14.8 25.2-23.5-7.3-18.6-12.6-39.4-16.4-61.2z m-36.5 24.8c-42.4 24.6-87.81 38.7-130.87 56.4-5.06 17.2-3.29 28.5 1.53 45.1 57.64-1.1 105.34-11.4 140.74-31.2-4.3-23.4-8.2-46.8-11.4-70.3z m68.9 45c-37.9 48.4-105.4 71.8-192.04 74.3 3.19 8 6.9 16.1 10.9 24C182.83999999999997 433.03999999999996 274.64 422.03999999999996 322.53999999999996 367.84c-7.7-11.2-20.6-18.4-32.4-22.9z m42.4 38.8c-10.8 11.7-23.5 21.6-37.6 29.8-17.4 27-39.6 51.4-63.8 74.8l49.1 0.4c33-32.5 54.5-57.3 69.5-90.5-4.9-6.1-10.4-11.1-17.2-14.5zM74.57999999999998 406.23999999999995c-8.8 23.5-15.25 59-4.74 80.7l43.7 0.4c-15.34-23.7-30.81-52.5-38.96-81.1z m287.56 8c-13.9 27.3-32.2 49.7-56.7 74.8l66.5 0.6c13.2-14.8 34.5-31.5 38.9-50.3z m-101.1 15.5c-46 17.4-97.5 25.1-142.86 30.4 5.6 9.8 11.44 19.1 17.09 27.4l70.07 0.6c20.3-19 39.4-38.2 55.7-58.4zM429.94 445.84c-10.9 17.1-19.6 30.6-33 44l36 0.3c7.2-13.8 13-26.6 12.7-37.7-3.8-4-9.3-6.4-15.7-6.6z m33.5 14.4c-1.2 10.6-5.4 20.6-10.1 30.1l65.7 0.6c-14.3-22.5-35.8-32.4-55.6-30.7zM66.51999999999998 504.84c-9.13 10.2-3.51 13.2 5.81 18.5H515.54c6.3-3.6 10.5-8.1 8.5-14.5z" /></svg>