<svg xmlns="http://www.w3.org/2000/svg" width="100%" height="100%" viewBox="0 0 583.68 583.68"><path d="M291.84 51.839999999999975c-30 0-50 20-50 40 0 20.478 10.487 33.113 22.063 52.625-20.646 3.89-39.81 11.992-56.532 23.406-5.608-21.973-7.116-38.335-21.593-52.81-14.14-14.143-42.443-14.152-63.656 7.06-21.212 21.214-21.204 49.515-7.06 63.657 14.476 14.478 30.837 15.985 52.81 21.594-11.413 16.724-19.516 35.887-23.405 56.532C124.95299999999997 252.32799999999997 112.31799999999997 241.83999999999997 91.83999999999997 241.83999999999997c-20 0-40 20-40 50s20 50 40 50c20.478 0 33.113-10.487 52.625-22.063 3.89 20.646 11.992 39.81 23.406 56.532-21.973 5.608-38.335 7.116-52.81 21.592-14.143 14.142-14.152 42.444 7.06 63.657 21.214 21.212 49.515 21.204 63.657 7.06 14.478-14.476 15.985-30.837 21.594-52.81 16.724 11.413 35.887 19.516 56.532 23.405C252.32799999999997 458.727 241.83999999999997 471.36199999999997 241.83999999999997 491.84c0 20 20 40 50 40s50-20 50-40c0-20.478-10.487-33.113-22.063-52.625 20.646-3.89 39.81-11.992 56.532-23.406 5.608 21.973 7.116 38.335 21.592 52.81 14.142 14.143 42.444 14.152 63.657-7.06 21.212-21.214 21.204-49.515 7.06-63.658-14.476-14.477-30.837-15.984-52.81-21.593 11.413-16.724 19.516-35.887 23.405-56.533C458.727 331.352 471.36199999999997 341.84 491.84 341.84c20 0 40-20 40-50s-20-50-40-50c-20.478 0-33.113 10.487-52.625 22.063-3.89-20.646-11.992-39.81-23.406-56.532 21.973-5.608 38.335-7.116 52.81-21.593 14.143-14.14 14.152-42.443-7.06-63.656-21.214-21.212-49.515-21.204-63.658-7.06-14.477 14.476-15.984 30.837-21.593 52.81-16.724-11.413-35.887-19.516-56.533-23.405C331.352 124.95299999999997 341.84 112.31799999999997 341.84 91.83999999999997c0-20-20-40-50-40z m0 180c16.568 0 31.58 6.705 42.438 17.563C345.13399999999996 260.26 351.84 275.27299999999997 351.84 291.84c0 16.568-6.705 31.58-17.563 42.438C323.41999999999996 345.13399999999996 308.407 351.84 291.84 351.84c-16.568 0-31.58-6.705-42.438-17.563C238.54599999999996 323.41999999999996 231.83999999999997 308.407 231.83999999999997 291.84c0-16.568 6.705-31.58 17.563-42.438C260.26 238.54599999999996 275.27299999999997 231.83999999999997 291.84 231.83999999999997z" /></svg>