<svg xmlns="http://www.w3.org/2000/svg" width="100%" height="100%" viewBox="0 0 583.68 583.68"><path d="M282.84 62.839999999999975v80h18V62.839999999999975h-18z m-63.992 53.602l-16.631 6.886 15.309 36.955 16.628-6.886-15.306-36.955z m145.984 0l-15.306 36.955 16.628 6.886 15.309-36.955-16.63-6.886zM113.63499999999998 127.90799999999997l-12.727 12.727 56.569 56.568 12.726-12.726-56.568-56.569z m356.41 0l-56.568 56.569 12.726 12.726 56.569-56.568-12.727-12.727zM291.84 181.83399999999997a118.919 118.919 0 0 0-59.5 15.95c-34.215 19.754-56.177 55.048-59.129 94.056H410.46999999999997c-2.952-39.008-24.914-74.302-59.129-94.057a118.919 118.919 0 0 0-59.5-15.949zM102.32799999999997 231.21699999999998l-6.886 16.63 36.955 15.307 6.886-16.628-36.955-15.31z m379.024 0l-36.955 15.309 6.886 16.628 36.955-15.306-6.886-16.631zM59.839999999999975 309.84v18h464v-18H59.839999999999975z m200 62v64h-32l64 80 64-80h-32v-64h-64z" /></svg>