<svg xmlns="http://www.w3.org/2000/svg" width="100%" height="100%" viewBox="0 0 583.68 583.68"><path d="M512.8599999999999 319.36999999999995l-23.338 168.596-120.823-64.287 19.638-88.924z m-4.953-28.205l-82.372-132.09-82.893 89.128 42.711 72.504zM401.46299999999997 145.84999999999997l-140.96-50.136-4.137 115.327 75.487 26.853z m-158.758 65.346l-16.654-107.38L108.74299999999998 167.74999999999997l75.975 73.551z m-67.171 43.635l-76.87-54.12L61.839999999999975 316.875l94.478-4.857zM79.50599999999997 357.553l65.223 85.991 45.154-71.366-31.928-42.6z m127.649 24.632l-13.204 71.352 93.372-11.528-35.625-65.002z m57.931-16.63l51.942 32.37 8.63-85.684-54.99 14.104z m0.152-51.805l41.678-25.176-54.839-37.302-14.706 48.982z" /></svg>