<svg xmlns="http://www.w3.org/2000/svg" width="100%" height="100%" viewBox="0 0 583.68 583.68"><path d="M72.47299999999998 54.91999999999997L51.345999999999975 76.04699999999997 135.34999999999997 160.04999999999995l21.127-21.126L72.47299999999998 54.91999999999997zM240.47999999999996 81.34999999999997L77.87399999999997 243.95499999999998l24.87 24.87c19.88-29.31 42.286-56.78 66.806-82.09l258.89 258.89 13.214-13.215-258.9-258.9c25.565-24.827 53.23-47.375 82.594-67.29l-24.87-24.87z m-17.068 80.12c-4.37 3.738-8.69 7.543-12.955 11.41l262.6 262.605 27.838 69.77-69.772-27.835L168.56999999999996 214.86499999999998c-3.858 4.27-7.655 8.596-11.388 12.98l15.908 15.907c-11.892 19.5-16.246 39.67-14.814 58.34-3.69 59.48 66.362 99.08 130.736 57.582l69.14 69.14c-23.845 8.237-51.302 13.04-82.884 12.856l-0.008 0.012c87.233 25.69 168.06 59.824 253.518 93.443-0.018-0.07-0.038-0.145-0.055-0.217l3.037 1.21-7.477-18.737c-14.61-55.61-36.398-119.265-54.95-178.485-9.992-31.56-67.812-54.614-110.876-42.38l-89.86-89.86c29.51-11.725 58.15-10.98 83.57-5.598-20.15-23.84-63.71-24.393-102.114-12.947l-26.64-26.64z m-23.54 109.063l65.708 65.71c-45.45 8.77-74.317-29.476-65.71-65.71z m190.753 58.15c28.89 1.334 42.642 19.908 40.094 40.094l-40.095-40.093z" /></svg>