<svg xmlns="http://www.w3.org/2000/svg" width="100%" height="100%" viewBox="0 0 583.68 583.68"><path d="M291.84 60.839999999999975c65.828 0 119 53.172 119 119 0 17.118-3.603 33.376-10.082 48.07-4.014 2.842-8.05 5.713-12.107 8.576C354.786 260.39099999999996 319.34 282.84 291.84 282.84s-62.946-22.45-96.81-46.354c-4.058-2.863-8.094-5.734-12.108-8.576C176.44299999999998 213.21599999999998 172.83999999999997 196.95799999999997 172.83999999999997 179.83999999999997c0-65.828 53.172-119 119-119z m187.365 144.578c0.927 2.362 1.76 5.694 1.889 9.945 0.21 6.952-1.11 15.58-3.793 23.631-2.684 8.052-6.753 15.523-11.334 20.502C461.38599999999997 264.476 456.84 266.84 451.84 266.84h-5.563l-2.488 4.975c-8 16-11.726 23.076-16.312 27.662-4.586 4.586-11.662 8.312-27.662 16.312l-16.1 8.051 16.1 8.05s7.393 3.725 14.625 9.15c2.43 1.822 4.649 3.817 6.632 5.8h-54.96l32.001 32H185.56699999999998l32.002-32h-54.961c1.983-1.983 4.201-3.978 6.632-5.8 7.232-5.425 14.625-9.15 14.625-9.15l16.1-8.05-16.1-8.05c-16-8-23.076-11.727-27.662-16.313-4.586-4.586-8.312-11.662-16.312-27.662L137.402 266.84H131.83999999999997c-5 0-9.546-2.364-14.127-7.344-4.581-4.98-8.65-12.45-11.334-20.502-2.684-8.051-4.004-16.679-3.793-23.63 0.129-4.253 0.962-7.584 1.889-9.946 8.603 1.304 19.639 5.853 32.04 13.172 14.682 8.664 31.068 20.556 48.136 32.604C218.78599999999997 275.289 255.33999999999997 300.84 291.84 300.84s73.054-25.55 107.19-49.646c17.067-12.048 33.453-23.94 48.134-32.604 12.402-7.32 23.438-11.868 32.041-13.172zM353.65599999999995 315.10999999999996c-64 16-59.632 16-123.632 0l-4.368 17.46c64 16 68.368 16 132.368 0zM426.84 392.84v16H156.83999999999997v-16z m-16 34v16H172.83999999999997v-16z m80 34v62h-70.453c-127.153-15.893-129.941-15.893-257.094 0H92.83999999999997v-62z" /></svg>