<svg xmlns="http://www.w3.org/2000/svg" width="100%" height="100%" viewBox="0 0 583.68 583.68"><path d="M300.84 69.83999999999997l47.898 35.924 61.563 123.123-8.057 32.23-24.943-4.158 3.16-10.533 2.842-9.473L291.84 218.66299999999998l-91.463 18.29 6.002 20.006-24.943 4.156-8.057-32.228L234.93999999999997 105.76599999999998 282.84 69.83999999999997v56h-39l-16 32 64 38 64-38-16-32h-39z m188.313 169.258l30.3 10.101-13.478 29.205-30.016-5.001z m-394.626 0l13.194 34.304-30.016 5.002-13.478-29.205zM291.84 241.15999999999997l53.8 58.692L317.14599999999996 394.84h-50.61L238.03999999999996 299.852z m25.254 0.909l43.283 8.658-8.715 29.052z m-50.508 0.002l-34.568 37.709-8.715-29.053z m105.5 32.267L518.3399999999999 298.71299999999997 465.63899999999995 404.11999999999995 365.82 295.22499999999997z m-160.492 0l6.266 20.887L118.03999999999998 404.11899999999997 65.33999999999997 298.71299999999997z m148.205 40.96l72.201 78.765-84.556-37.582z m-135.918 0l12.355 41.183-84.556 37.582z m118.348 58.564l28.646 12.732L348.813 474.84H300.84v-62h29.695z m-100.778 0L253.14499999999998 412.84H282.84v62h-47.973l-22.062-88.246zM423.44 409.955l18.105 8.047-9.984 21.635-16.387-8.193z m-263.2 0l8.266 21.489-16.387 8.193-9.984-21.635zM346.84 492.84v30h-30v-30z m-80 0v30h-30v-30z" /></svg>