<svg xmlns="http://www.w3.org/2000/svg" width="100%" height="100%" viewBox="0 0 583.68 583.68"><path d="M295.578 56.21999999999997c-40.36-0.244-81.305 9.895-118.744 31.51C64.40599999999998 152.64 25.809999999999974 296.67699999999996 90.71999999999997 409.10499999999996c64.91 112.427 208.947 151.024 321.376 86.113 77.686-44.852 120.106-127.485 117.498-211.363-3.575 65.865-35.942 128.62-91.082 169.41-10.81 9.596-22.748 18.254-35.762 25.767C299.068 538.893 166.76599999999996 503.44 106.90599999999998 399.76 47.04599999999998 296.078 82.49999999999997 163.77599999999998 186.17999999999998 103.91599999999997 221.81999999999996 83.33999999999997 260.84 74.02299999999997 299.14 74.86999999999998 372.26 76.48999999999998 442.73999999999995 115.14999999999998 482.02299999999997 183.18999999999997c0.648 1.122 1.277 2.25 1.9 3.38 0.803 2.184 1.258 4.534 1.258 6.997 0 11.29-9.152 20.44-20.442 20.44-6.85 0-12.894-3.38-16.6-8.556-0.763-1.432-1.547-2.858-2.355-4.276-0.014-0.035-0.03-0.068-0.045-0.104l-0.01 0.004c-0.15-0.263-0.293-0.53-0.445-0.793-31.91-55.27-89.762-86.377-149.363-86.835-1.923-0.014-3.848 0.002-5.773 0.05-28.007 0.718-56.228 8.227-82.162 23.2-82.99 47.914-111.498 154.31-63.584 237.3 2.93 5.072 6.08 9.936 9.426 14.597L131.48999999999998 401.488l9.344 16.184 24.848-14.348c53.686 59.734 143.727 75.99 216.017 34.254 51.455-29.707 81.957-81.898 86.294-137.05-12.315 44.767-41.423 85.652-83.564 113.128-3.87 2.732-7.892 5.32-12.076 7.737C308.85999999999996 458.04999999999995 230.43999999999997 444.79999999999995 182.24999999999997 393.76l45.278-26.143 19.99 34.625 16.185-9.343-16.707-28.937c24.072-21.104 54.165-23.015 62.973-5.96 93.825-32.597 231.378-110.21 190.755-180.57l-0.4 0.173c-0.692-1.26-1.396-2.514-2.118-3.764-42.597-73.78-119.27-115.764-198.724-117.565-1.3-0.03-2.603-0.048-3.905-0.056z m0.283 75.823c53.167 0.368 104.69 28.135 133.238 77.582 0.19 0.33 0.37 0.66 0.556 0.99-48.784 49.337-134.526 98.727-200.175 123.002l-15.1-26.148-16.183 9.343 19.987 34.62-48.08 27.76c-3.397-4.618-6.584-9.462-9.518-14.544-42.864-74.244-17.5-168.905 56.744-211.77 23.2-13.394 48.396-20.127 73.38-20.786 1.72-0.045 3.436-0.063 5.15-0.05z" /></svg>