<svg xmlns="http://www.w3.org/2000/svg" width="100%" height="100%" viewBox="0 0 583.68 583.68"><path d="M370.53999999999996 56.88999999999997L336.03999999999996 190.53999999999996l30.5 12.5L398.84 190.83999999999997zM256.03999999999996 108.24999999999997L215.93999999999997 214.93999999999997l34.3 33.3 33.5-31zM91.40999999999997 137.43999999999997L83.73999999999998 260.24l36.52 23.7 25.38-38.7z m413.63 10.5l-41.8 65.8 19.8 34.5 27.3-7z m-171.4 61l-6.3 145 66.3-1.5 6.4-142.8-33.7 12.8zM212.83999999999997 237.03999999999996l-5 119.6 73.8-1.7 3.3-114.3-35.1 32.4z m244.3 2.2l-19.9 112.2 53.8-1.3 17.8-89.9-34.6 8.8z m-305.8 30.1l-25.87 39.4-41.04-26.7 10.08 77.2 71.93-1.6z m362.9 98.3L69.63999999999997 377.84l-3.78 44.2L517.8399999999999 419.94l-1.1-15.9-32.5-10.4s18.7-3.4 31.4-5.6z m-40.7 70.6l-51.7 0.2-3.2 18.1 51.6-1.6z m-83.7 0.3l-66.1 0.3-0.9 20.9 66.2-2.2z m-110.5 0.5l-75 0.3-1 24.3 75.4-2.5z m-98.9 0.4l-75.43 0.3 3.51 27 76.12-2.5z m345.3 31.6L57.909999999999975 486.34l0.24 25.9 29 14.6 432.49-1.4z" /></svg>