<svg xmlns="http://www.w3.org/2000/svg" width="100%" height="100%" viewBox="0 0 583.68 583.68"><path d="M193.37999999999997 51.619999999999976c-2.838 0.003-5.676 0.125-8.5 0.365-22.6 1.92-44.724 11.21-61.347 26.587-16.32 15.096-27.204 36.473-26.69 61.45 3.875-0.13 9.014-0.284 14.847-0.397 1.073-0.02 2.088-0.027 3.146-0.043-0.402-19.627 7.798-35.656 20.92-47.795 13.38-12.377 32-20.283 50.647-21.867 18.517-1.573 36.767 2.965 50.646 14.524 5.373-3.043 11.074-4.81 16.602-5.51 1.072-0.136 2.135-0.228 3.192-0.297-2.48-2.79-5.112-5.37-7.89-7.715-15.842-13.365-35.714-19.31-55.575-19.3z m68.077 44.282c-2.986 0.057-5.93 0.6-8.842 1.477-1.104 0.257-2.187 0.577-3.25 0.972 0.026 0.04 0.05 0.082 0.075 0.12-3.47 1.38-6.817 3.335-9.692 6.35-3.5 3.673-6.077 9.9-4.693 15.998l0.094 0.413 0.045 0.144c11.863-10.083 27.67-14.763 42.444-14.64 0.3 0.002 0.596 0.024 0.895 0.03l-0.068-0.868-0.592-1.374c-2.704-6.274-8.677-8.048-13.11-8.49-1.107-0.11-2.21-0.154-3.308-0.133zM313.5 117.13999999999997c-6.248 0.09-12.4 0.574-18.474 1.378l-0.582 0.54 4.716 17.102c4.68-0.57 9.39-0.928 14.133-1.015 1.6-0.03 3.207-0.03 4.817 0 36.413 0.658 76.09 16.07 122.072 59.433l15.937-9.623c-49.936-48.12-95.313-67.04-137.684-67.806-1.652-0.03-3.297-0.035-4.936-0.01z m-52.29 10.595c-6.7 2.283-12.923 5.844-17.354 10.447l2.01 10.578c4.8-7.386 9.9-14.41 15.345-21.025z m18.597 5.953c-4.65 5.218-9.075 10.81-13.297 16.738 5.564-1.297 11.307-1.985 17.088-2.13-0.102-0.656-0.203-1.312-0.3-1.958l-3.49-12.65zM226.03999999999996 140.83999999999997c-10.62 5.178-21.06 10.89-31.368 16.828l14.736 8.645-0.23-0.047c0.64 0.353 1.372 0.707 1.754 1.027 0.528 0.443 0.905 0.83 1.213 1.19 5.797-3.22 11.592-6.312 17.392-9.227L226.03999999999996 140.83999999999997zM116.53199999999997 157.59599999999998c-1.61 0.018-2.815-0.007-4.496 0.025-8.207 0.16-14.15 0.39-16.605 0.478-2.228 1.913-6.242 5.488-11.158 11.178-6.63 7.67-12.168 17.598-12.092 23.324 0.095 7.15 3.73 19.28 9.736 30.228 6.007 10.948 14.408 20.872 21.87 25.426 0.002 0 2.58 0.932 6.513 1.07 3.934 0.138 9.176-0.22 15.04-1.04 11.728-1.64 25.992-5.075 39.117-9.215 8.666-2.735 16.262-5.755 22.9-8.71-17.423-3.064-34.79-11.906-48.413-23.3-9.947-8.318-17.986-18.11-21.704-29.304-2.12-6.388-2.42-13.417-0.707-20.16z m170.13 8.596c-13.804-0.118-26.667 3.534-35.956 11.37 0.29 1.234 0.584 2.44 0.873 3.696 7.614 33.128 13.767 73.212 9.864 97.246-5.603 34.496-31.537 84.64-56.23 125.106-14.89 24.398-29.136 45.285-38.177 58.144 10.07-0.018 20.817 2.73 31.086 7.26 11.084 4.89 21.573 11.887 29.23 20.914 1.466 1.73 2.83 3.565 4.06 5.488 1.36-3.347 2.576-6.353 4.36-10.703 5.542-13.528 13.064-31.452 21.98-50.63 17.835-38.352 41.727-81.852 64.653-103.98 25.013-24.14 74.933-49.443 118.108-67.835 6.416-2.733 12.653-5.304 18.676-7.735-4.533-14.565-13.66-26.322-24.893-37.757-0.622 0.35-1.232 0.7-1.86 1.052-35.47 19.846-79.24 38.213-106.96 35.963-3.385-0.274-8.838-3.985-12.028-8.44-11.913-16.64-21.224-49.812-26.786-79.158zM180.31999999999996 170.11999999999998c-0.125 0.142-0.195 0.26-0.324 0.406-3.408 3.85-7.99 8.477-12.875 13.076-4.585 4.317-9.376 8.534-13.716 11.965 14.612 11.06 34.845 18.494 49.54 17.9 0.08-3.49-0.12-7.653-0.57-11.81-0.688-6.327-1.887-12.74-3.016-17.247-0.44-1.752-0.807-2.837-1.13-3.79l-17.908-10.5z m322.356 5.2c-2.163 0.02-4.4 0.502-6.305 1.614l-0.428 0.252-0.4 0.297s-2.87 2.124-7.9 5.642c14.61 14.434 22.734 32.15 28.22 50.262l4.314-1.457-0.045 0.012c3.98-1.237 7.185-4.906 8.28-7.91 1.197-3.282 1.194-6.115 0.98-8.954-0.425-5.676-2.144-11.535-4.497-17.277-2.354-5.742-5.26-11.186-9.092-15.605-1.915-2.21-4.043-4.27-7.263-5.73-1.61-0.73-3.7-1.168-5.86-1.146z m-37.348 25.102l-13.875 8.377c5.383 5.814 10.47 12.035 14.83 18.9 1.41-8.554 1.554-17.292-0.955-27.278z m19.405 7.455c1.144 12.08-0.52 22.994-2.93 33.05l15.717-5.33c-3.235-10.06-7.23-19.383-12.787-27.72zM166.78999999999996 479.75399999999996c-0.444 0-0.878 0.012-1.3 0.03-6.752 0.316-9.117 1.857-10.17 4.693l-2.212 5.965c0.133 4.11 1.153 8.13 2.834 11.68 3.7 7.818 10.09 14.155 17.732 18.603 7.642 4.448 16.732 7.043 26.115 5.9 7.178-0.874 14.383-4.265 20.183-10.12 0.164-4.882-1.947-9.743-6.35-14.935-5.278-6.223-13.748-12.11-22.765-16.087-8.454-3.73-17.418-5.75-24.07-5.73z" /></svg>