<svg xmlns="http://www.w3.org/2000/svg" width="100%" height="100%" viewBox="0 0 583.68 583.68"><path d="M334.44 75.26999999999998c-1.8 0-3.6 0-5.3 0.1-9.4 0.2-18.1 0.91-25.8 1.76-17.1 1.9-27.2 15.5-29 27.65-0.8 6.08 0.5 11.25 3.3 14.66s7.3 6.03 16.6 5.73c41.1-1.43 75.1 3.02 113.5 19.97 8.7 3.8 13.5 3.1 16.3 1.5 2.8-1.5 5.1-4.9 6.1-10.5 1.8-11.34-3.6-29.27-16.5-39.27-21.9-17.03-52.4-21.58-79.2-21.6zM226.73999999999998 92.72999999999998c-3.3-0.1-6.7 0.54-10.2 2.01-39.3 16.86-71.8 38.08-94.03 66.6-10.99 14.2-9.18 31.1-2.87 40.2 3.15 4.6 6.92 6.9 10.76 7.2 3.83 0.2 8.84-1.2 15.34-8.2 23.3-25.4 49.8-53.8 94.8-68.57 8.8-2.86 11.6-6.65 12.7-10.55 1.2-3.91 0.3-9.17-2.9-14.37-4.7-7.79-13.7-14.12-23.6-14.32zM460.84 153.53999999999996c-2.4 0-4.6 0.3-6.6 0.8-5.4 1.4-8.7 3.9-10.3 7.1-1.6 3.1-2.2 7.7 1.2 15.6h0.1c14.6 33.7 29.8 62 34.4 100.5v0.1c1 8.1 4 11.7 7.9 14 4 2.2 9.7 2.9 15.8 1.5 12.1-2.8 23-12.7 22-25.8-2.9-37.3-6.9-69.5-32.8-99.4-8-9.3-19.5-13.8-29.3-14.3-0.8 0-1.6-0.1-2.4-0.1zM103.62999999999998 222.73999999999998c-11.92 0.1-25.33 5.9-30.2 16.9-16.13 36.4-15.75 71.6-13.42 108.4 1.02 16.2 12.91 24.4 24.72 25.3 5.91 0.5 11.41-1 15.35-4.2 3.94-3.2 6.88-8 7.23-16.8 1.44-36.6-6.24-70.4 13.3-109.6 3.8-7.6 2.87-10.8 1-13.5-1.88-2.7-6.54-5.4-12.99-6.2-1.21-0.2-2.45-0.3-3.72-0.3z m383.01 89.3c-3.3 0.2-8.2 2.2-14.2 9.3h-0.1c-11.4 13.5-19.8 28.1-30.6 42.1-10.7 14.1-24.2 27.4-44.9 36.6h-0.1c-7.9 3.6-10.4 7.5-11.2 11.2-0.8 3.7 0.3 8.3 3.5 12.7 6.4 8.9 19.5 15 32.2 8.6h0.1v-0.1c35.6-17.7 62.3-39.5 77.5-75 7-16.4 3.5-33-2.7-40.4-3.1-3.7-6.1-5.1-9.5-5zM75.32999999999998 389.94C70.93999999999997 399.44 65.31999999999998 409.84 58.28999999999998 419.84c18.89-6.7 14.92-9.5 57.03-8.8-9.3-6.8-14.49-13.7-17.7-21-4.68 1.3-9.57 1.7-14.37 1.3-2.65-0.2-5.31-0.7-7.92-1.4z m280.91 32.2c-2.4 0-5.6 0.6-9.7 2.2-40.6 15.4-80.5 33.1-126.7 30-9.4-0.6-13.9 1.9-16.4 5.1-2.6 3.1-3.7 8-2.6 13.9 2.4 12 14 26.1 34.4 27.7 36 2.9 78.7-3.1 108.6-26.9 16.6-13.3 23.2-31.3 22.3-41.7-0.5-5.1-2.2-7.7-4.6-9.1-1.2-0.7-2.9-1.2-5.3-1.2z m-191 27.9c-21.2 23.8-16 37.5-5.3 58.4 9.6-6.6 19.5-12.1 28.9-16.8-2.7-4.7-4.6-9.7-5.6-14.7-0.9-4.6-1.1-9.4-0.3-14-5.9-2.9-11.7-7-17.7-12.9z" /></svg>