<svg xmlns="http://www.w3.org/2000/svg" width="100%" height="100%" viewBox="0 0 583.68 583.68"><path d="M296.31 135.55999999999997c-91.048 0-192.525 75.168-240.97 34.186L89.43399999999997 247.83999999999997c66.497-49.548 134.417-74.814 203.22-74.813 68.086 0.002 136.5 24.718 204.81 73.188l37.97-86.72C449.594 205.72999999999996 389.008 135.55999999999997 296.31 135.55999999999997z m-0.908 61.78c-40.49 0-73.093 32.603-73.093 73.094 0 40.49 32.602 73.094 73.093 73.094 40.49 0 73.093-32.603 73.093-73.094 0-40.49-32.603-73.094-73.094-73.094z m-59.406 0.47c-48.482 10.503-96.806 34.607-145.25 72.624 47.25 34.594 94 57.436 140.53 68.47-18.292-17.147-29.75-41.508-29.75-68.47 0-29.213 13.447-55.388 34.47-72.625z m120.75 1.655c19.904 17.233 32.53 42.668 32.53 70.97 0.002 27.2-11.672 51.737-30.248 68.905 46.285-10.716 92.886-33.366 140.125-68.656-48.152-36.303-95.56-59.94-142.407-71.22zM295.402 238.33999999999997c18.207 0 32.97 14.73 32.97 32.938 0 18.206-14.763 32.968-32.97 32.968-18.206 0-32.968-14.762-32.968-32.97 0-18.205 14.762-32.936 32.97-32.936zM89.33999999999997 292.43399999999997l-34 77.875c48.445-40.983 208.337-10.156 240.97 137.405C330.13599999999997 365.42999999999995 449.592 334.327 535.433 380.56L497.84 294.74499999999995c-56.18 39.47-112.568 62.356-169.03 68.72l-33.94 58.75-34.124-59.063c-57.467-7.005-114.595-30.95-171.406-70.72z" /></svg>