<svg xmlns="http://www.w3.org/2000/svg" width="100%" height="100%" viewBox="0 0 583.68 583.68"><path d="M469.717 55.69499999999998l-78.62 158.668 47.82 53.934-15.673 260.824h38.79l15.697-261.233 51.04-45.25-59.053-166.942z m-130.48 20.598L251.91299999999998 188.39l28.397 49.186-28.616 106.387-0.102-0.176-9.545 35.62 0.076 0.134-40.234 149.58h32.68l29.676-111.186 0.026 0.045 9.527-35.556-0.054-0.09 36.656-137.344 48.415-27.95L339.23999999999995 76.29199999999997h-0.002zM147.47199999999998 189.04999999999998l14.48 116.54 44.42 11.904L228.83999999999997 356.488l9.555-35.66-9.256-16.1 12.022-44.87-93.69-70.81z m-49.357 74.31l-42.68 79.31 23.57 28.455L66.62599999999998 529.1199999999999h18.746L97.66999999999997 372.09999999999997l27.608-22.865-27.163-85.875h-0.002z m257.06 10.878l-22.354 87.248 29.686 21.932L380.88 529.1199999999999h18.84l-18.823-149.235 21.293-28.824-47.016-76.822z m175.103 28.614l-40.108 226.27h18.98l21.128-119.188V302.852z m-339.903 38.886l-55.35 71.05 18.618 32.247-20.41 84.086h19.233l19.51-80.385 30.81-17.788-12.408-89.21h-0.002z m96.623 63.645l-9.517 35.516 50.837 88.22h29.8l-71.12-123.737z" /></svg>