<svg xmlns="http://www.w3.org/2000/svg" width="100%" height="100%" viewBox="0 0 583.68 583.68"><path d="M275.965 59.40299999999998c-14.745 0.33-28.994 8.14-36.906 21.843-3.423 5.926-6.234 17.854-8.532 31.907-36.383 8.417-75.868 48.232-93.375 94.406 29.49 11.05 58.933 14.183 84.312 11.436-59.315 98.734-49.44 208.705 47.72 208.72 9.06 0 17.345-0.91 24.874-2.688 57.812 24.78 100.79 13.996 122.81-13.438 22.414-27.923 22.947-69.86 3.314-102.438-17.974-29.824-26.618-53.295-26.03-69.968 0.585-16.674 8.498-28.14 29.873-38.875l-8.375-16.69c-25.082 12.596-39.368 31.652-40.187 54.907-0.82 23.256 9.914 49.13 28.688 80.282 15.827 26.262 14.738 60.395-1.875 81.092-14.44 17.992-40.735 28.253-83.344 14.563 53.146-35.285 41.39-134.655-19.906-220.188 8.096 2.605 14.99 4.22 19.625 4.22 24.115-0.003 43.687-19.543 43.687-43.657 0-23.737-18.97-43.027-42.563-43.625 3.36-17.73-4.552-36.437-21.062-45.97-7.178-4.143-15.026-6.016-22.75-5.843zM135.43499999999997 396.05899999999997C85.27999999999997 409.685 52.869999999999976 429.854 52.869999999999976 452.24499999999995c0 41.018 106.547 74.375 237.72 74.375s237.688-33.356 237.688-74.374c0-22.31-32.125-42.56-81.97-56.187C463.53999999999996 404.93699999999995 473.84 415.29999999999995 473.84 426.49499999999995c0 32.13-82.313 58.563-183.25 58.563S107.93399999999997 458.623 107.93399999999997 426.49499999999995c0-11.254 10.093-21.528 27.5-30.437z" /></svg>