<svg xmlns="http://www.w3.org/2000/svg" width="100%" height="100%" viewBox="0 0 583.68 583.68"><path d="M61.28999999999998 98.88299999999998l-4.364 17.463 8.73 2.18L126.27999999999997 133.68599999999998l29.402 44.1 62.44 187.32-36.845 73.693h17.827c-2.086 4.238-3.264 8.99-3.264 14 0 17.567 14.433 32 32 32s32-14.433 32-32c0-5.01-1.178-9.762-3.264-14h102.528c-2.086 4.238-3.264 8.99-3.264 14 0 17.567 14.433 32 32 32s32-14.433 32-32c0-5.01-1.178-9.762-3.264-14H428.84v-18H210.402l23-46h192.924l70-210h-327.67L137.39999999999998 117.90999999999997 70.02299999999997 101.06699999999998l-8.733-2.184z m115.038 83.914H266.84v46h-75.178l-15.334-46z m108.512 0h78v46h-78v-46z m96 0h90.512l-15.334 46H380.84v-46z m-183.18 64H266.84v46h-53.846l-15.334-46z m87.18 0h78v46h-78v-46z m96 0h69.18l-15.334 46H380.84v-46z m-161.846 64H266.84v46h-32.514l-15.332-46z m65.846 0h78v46h-78v-46z m96 0h47.846l-15.332 46H380.84v-46z m-153 128c7.84 0 14 6.16 14 14s-6.16 14-14 14-14-6.16-14-14 6.16-14 14-14z m160 0c7.84 0 14 6.16 14 14s-6.16 14-14 14-14-6.16-14-14 6.16-14 14-14z" /></svg>