<svg xmlns="http://www.w3.org/2000/svg" width="100%" height="100%" viewBox="0 0 583.68 583.68"><path d="M76.83999999999997 63.53999999999998v46h430v-46z m32 64v112.5l62 20.7V127.53999999999998z m80 0v139.2l79.3 26.4c-10.4 7.5-17.3 19.7-17.3 33.4 0 21 16.1 38.5 36.5 40.7l-22.3 43.7-58.2 9.3 41.6 41.7-9.1 58.2 52.5-26.7 52.5 26.7-9.1-58.2 41.6-41.7-58.2-9.3-22.3-43.7c20.4-2.2 36.5-19.7 36.5-40.7 0-13.7-6.9-25.9-17.3-33.4l79.3-26.4V127.53999999999998h-94v159c-2.9-0.6-5.9-1-9-1-3.1 0-6.1 0.4-9 1v-159z m224 0v133.2l62-20.7V127.53999999999998z m-121 176c12.8 0 23 10.2 23 23s-10.2 23-23 23-23-10.2-23-23 10.2-23 23-23z" /></svg>