<svg xmlns="http://www.w3.org/2000/svg" width="100%" height="100%" viewBox="0 0 583.68 583.68"><path d="M304.84 60.379999999999974c-3.1 0.11-5.7 0-7.6 0.21-2.8 0.25-4.7 0.45-7.2 2.23l-1 69.32c3 1.18 6.4 2.3 9.7 2.51 4.1 0.3 6.8-0.21 9.2-2.41z m-103.4 37.9c0.1 5.95 0.3 11.01 1.5 14.14 2.3 5.22 7 9.88 26 13.92l22.5 4.78-19.5 11.82c-16.5 10.1-35.2 19.4-51.5 26.5 6.2 0.7 12.3 1.4 18.2 1.4 17.8-0.1 34.6-3.9 55.3-18.1L269.84 141.83999999999997l0.4-24.35c-25.5-5.62-46.5-11.68-68.8-19.21z m181.2 6.49c-19.5 6.69-34.4 10.97-56.4 14.16l0.9 18.81-1.7 2.5c-6.8 10-18.4 13.3-27.9 12.7-9.5-0.6-17.6-3.9-23.4-7.6l-3.2-2.1-2.2 18c-1.9 17.1-2.1 28.3-5.2 42.4 14.6-10.4 24.4-18.9 36.5-37.3l7.2-10.7 8.1 10c10.9 13 28.8 22.9 48.5 29-5.7-6.5-10.9-14.5-12-25l-1.4-14.1 13.9 4.6c20.6 6.6 26.9 6.1 33.9 3.7 2.9-0.9 6.7-2.6 10.6-4.5l-80.7-27.61 27.3-8.15c14.2-4.24 20.9-9.1 24.6-13.94 1-1.5 1.9-3.14 2.6-4.87zM441.34 167.83999999999997l-1.8 0.4c-17.4 4.2-24.3 9.5-35 13.1-7.4 2.3-15.6 2.8-26.7 0.9 0.4 0.6 1 1.2 1.5 1.8 5 5.5 12.2 11.6 18.8 20.2l13.2 17.2-21.9-2.6c-29.1-3.5-59.4-13.9-80.3-32.9-16.3 21.4-31.5 30.4-57.2 48.6l-25.8 18.4 11.3-29.1c8.4-21.1 9.3-31.3 10.7-46.3-17.3 8.4-33.7 11.5-49.5 11.6-18.7 0-36.5-3.7-55.2-6.4-0.4 0-0.8 0.1-1.2 0.2-59.84 46.2-68.94 115.5-68.87 150.3 0.17 94.2 26.73 186.7 222.47 190C444.73999999999995 525.8399999999999 511.23999999999995 423.84 510.34 329.03999999999996c-0.8-60.6-12.3-124.4-69-161.2z m-258.4 34.3c13.2-0.2 26.4 4.4 28.3 12.4-92.08 41.9-91.59 97.8-105.21 156.8-11.1-56.8-7.31-122.5 55.21-163.6 5.6-3.8 13.8-5.5 21.7-5.6z" /></svg>