<svg xmlns="http://www.w3.org/2000/svg" width="100%" height="100%" viewBox="0 0 583.68 583.68"><path d="M439.15299999999996 77.46499999999997c-1.107 0-2.24 0.017-3.344 0.063-30.174 1.248-56.498 23.386-71.72 55.906-29.436-20.315-63.812-25.884-91.313-12.125-22.492 11.25-38.903 33.383-42.687 60.843 10.962-4.476 21.618-7.177 31.75-8.438 4.333-11.497 12.952-19.848 24-25.375 20.797-10.404 49.765-8.923 72.656 13.97l18.625 18.624 6.533-25.156c8.723-32.558 30.745-47.522 53.093-48.438 22.346-0.927 45.982 11.665 54.97 43.78 12.795 45.728-29.2 82.442-57.907 123.126h-95.19c-23.612-9.383-45.98-18.687-60.967-34.25-7.368-2.142-14.748-2.2-22.594 0.22-3.735 1.15-7.638 2.92-11.69 5.436 16.42 28.053 44.66 45.767 74.845 61.063 0.43 0.218 0.85 0.44 1.28 0.656 3.358 1.692 6.738 3.357 10.126 5 0.89 0.434 1.763 0.882 2.658 1.314 2.396 1.155 4.79 2.293 7.187 3.437 14.53 6.938 28.997 13.736 42.313 21.25 17.27 9.75 36.245 28.402 50 48.814 4.14-23.795 6.27-45.762 19.875-66.5 35.98-54.857 86.962-108.22 68.03-178.875-11.262-42.03-46.238-64.318-80.53-64.345z m-298.75 77.656c-34.293 0.028-69.27 22.317-80.532 64.345C40.939999999999976 290.12 91.89299999999997 343.48299999999995 127.86999999999998 398.34c13.605 20.74 15.737 42.706 19.876 66.5 13.755-20.412 32.728-39.065 50-48.813 44.413-25.066 101.483-42.217 131.875-82.875-17.71-8.498-33.892-16.466-55.405-30.156H108.46499999999997c-16.633-23.38-28.21-47.227-20.656-74.22 8.705-31.11 31.163-43.916 52.874-43.842 0.7 0.002 1.395 0.033 2.094 0.062 22.347 0.916 44.4 15.88 53.124 48.438l6.5 25.156 18.657-18.625c22.89-22.892 51.858-24.404 72.655-14 8.082 4.043 14.844 9.614 19.594 16.813 12.327 6.815 23.973 11.22 35.967 15.687-4.12-26.854-20.396-48.43-42.53-59.5-27.5-13.76-61.846-8.22-91.282 12.094-15.222-32.52-41.577-54.628-71.75-55.876-1.104-0.046-2.206-0.064-3.313-0.063z m292.843 264.626c-6.496 53.84-30.488 46.8-30.97 80.72-0.208 15.372 14.203 28.062 32.064 28.062 17.86 0 32.594-12.684 32.594-28.063 0-34.092-26.52-27.088-33.688-80.72z" /></svg>