<svg xmlns="http://www.w3.org/2000/svg" width="100%" height="100%" viewBox="0 0 583.68 583.68"><path d="M205.18399999999997 71.68399999999997A9.5 9.5 0 0 0 195.83999999999997 81.30999999999997v117.343H81.33999999999997a9.5 9.5 0 1 0 0 19H195.83999999999997v151H81.33999999999997a9.5 9.5 0 1 0 0 19H195.83999999999997V502.34a9.5 9.5 0 1 0 19 0V387.652h151V502.34a9.5 9.5 0 1 0 19 0V387.652h117.406a9.5 9.5 0 1 0 0-19H384.84v-151h115.563a9.5 9.5 0 1 0 0-19H384.84V81.30999999999997a9.5 9.5 0 0 0-9.656-9.626A9.5 9.5 0 0 0 365.84 81.30999999999997v117.343H214.83999999999997V81.30999999999997a9.5 9.5 0 0 0-9.656-9.626zM121.83999999999997 71.80999999999997c-13.07 0-25.77 4.94-35.156 13.843C77.29799999999997 94.55499999999998 71.83999999999997 106.89999999999998 71.83999999999997 119.71399999999997c0 12.814 5.458 25.16 14.844 34.063C96.06999999999996 162.67999999999998 108.76999999999998 167.64999999999998 121.83999999999997 167.64999999999998c13.07 0 25.77-4.97 35.156-13.875C166.38199999999998 144.87399999999997 171.83999999999997 132.52999999999997 171.83999999999997 119.71599999999998c0-12.814-5.458-25.16-14.844-34.063C147.60999999999996 76.74999999999997 134.90999999999997 71.80999999999997 121.83999999999997 71.80999999999997z m170 0c-13.07 0-25.77 4.94-35.156 13.843C247.29799999999997 94.55499999999998 241.83999999999997 106.89999999999998 241.83999999999997 119.71399999999997c0 12.814 5.458 25.16 14.844 34.063C266.06999999999994 162.67999999999998 278.77 167.64999999999998 291.84 167.64999999999998c13.07 0 25.77-4.97 35.156-13.875C336.38199999999995 144.87399999999997 341.84 132.52999999999997 341.84 119.71599999999998c0-12.814-5.458-25.16-14.844-34.063C317.60999999999996 76.74999999999997 304.90999999999997 71.80999999999997 291.84 71.80999999999997z m138.844 9.218A9.5 9.5 0 0 0 424.09 97.33999999999997l22.375 22.375L424.84 141.33999999999997a9.502 9.502 0 1 0 13.438 13.438l21.625-21.626 22.375 22.407a9.502 9.502 0 1 0 13.437-13.44L473.34 119.71599999999998l21.625-21.625a9.5 9.5 0 0 0-6.906-16.313 9.5 9.5 0 0 0-6.533 2.876l-21.625 21.624-22.375-22.374a9.5 9.5 0 0 0-6.843-2.876zM121.83999999999997 90.80799999999998c8.137 0 16.485 3.337 22.094 8.657 5.608 5.32 8.937 12.95 8.937 20.25 0 7.3-3.328 14.96-8.936 20.28-5.61 5.32-13.957 8.626-22.094 8.626s-16.485-3.304-22.094-8.624c-5.608-5.32-8.937-12.98-8.937-20.28 0-7.302 3.328-14.93 8.936-20.25 5.61-5.32 13.957-8.657 22.094-8.657z m170 0c8.137 0 16.485 3.337 22.094 8.657 5.608 5.32 8.937 12.95 8.937 20.25 0 7.3-3.328 14.96-8.936 20.28-5.61 5.32-13.957 8.626-22.094 8.626s-16.485-3.304-22.094-8.624c-5.608-5.32-8.937-12.98-8.937-20.28 0-7.302 3.328-14.93 8.936-20.25 5.61-5.32 13.957-8.657 22.094-8.657z m-77 126.844h151v151H214.83999999999997v-151z m245.063 26.282c-13.07 0-25.77 4.94-35.157 13.844-9.386 8.903-14.844 21.248-14.844 34.062 0 12.814 5.458 25.16 14.844 34.063 9.386 8.903 22.087 13.875 35.156 13.875 13.07 0 25.77-4.972 35.157-13.875 9.385-8.904 14.842-21.25 14.842-34.063 0-12.814-5.457-25.16-14.843-34.063-9.387-8.903-22.088-13.843-35.158-13.843z m-197.25 9.22a9.5 9.5 0 0 0-6.625 16.31L278.40299999999996 291.84l-21.625 21.625a9.502 9.502 0 1 0 13.437 13.438L291.84 305.27799999999996l22.375 22.375a9.502 9.502 0 1 0 13.438-13.438L305.27799999999996 291.84l21.625-21.625a9.5 9.5 0 0 0-6.907-16.313 9.5 9.5 0 0 0-6.53 2.875L291.84 278.40299999999996l-22.375-22.375a9.5 9.5 0 0 0-6.813-2.875z m197.25 9.78c8.136 0 16.485 3.305 22.093 8.625 5.61 5.32 8.938 12.98 8.938 20.28 0 7.3-3.33 14.93-8.938 20.25-5.608 5.32-13.957 8.656-22.094 8.656-8.136 0-16.485-3.336-22.093-8.656-5.61-5.32-8.94-12.95-8.94-20.25 0-7.3 3.33-14.96 8.94-20.28 5.607-5.32 13.956-8.626 22.092-8.626zM291.84 415.996c-13.07 0-25.77 4.94-35.156 13.844-9.386 8.903-14.844 21.25-14.844 34.063 0 12.813 5.458 25.19 14.844 34.093C266.06999999999994 506.9 278.77 511.86999999999995 291.84 511.86999999999995c13.07 0 25.77-4.97 35.156-13.874 9.386-8.903 14.844-21.28 14.844-34.094 0-12.813-5.458-25.16-14.844-34.062-9.386-8.903-22.087-13.844-35.156-13.844z m-199.188 9.22a9.5 9.5 0 0 0-6.624 16.312l22.374 22.406L86.77999999999997 485.56a9.502 9.502 0 1 0 13.437 13.436L121.83999999999997 477.36999999999995l22.375 22.376a9.502 9.502 0 1 0 13.438-13.437l-22.376-22.376 21.626-21.625a9.5 9.5 0 0 0-6.907-16.314 9.5 9.5 0 0 0-6.53 2.875L121.83999999999997 450.49699999999996 99.46499999999997 428.09a9.5 9.5 0 0 0-6.813-2.875zM291.84 435.027c8.137 0 16.485 3.304 22.094 8.625 5.608 5.32 8.937 12.948 8.937 20.25 0 7.3-3.328 14.96-8.936 20.28-5.61 5.32-13.957 8.626-22.094 8.626s-16.485-3.306-22.094-8.626c-5.608-5.32-8.937-12.98-8.937-20.28 0-7.303 3.328-14.93 8.936-20.252 5.61-5.32 13.957-8.625 22.094-8.625z" /></svg>