<svg xmlns="http://www.w3.org/2000/svg" width="100%" height="100%" viewBox="0 0 583.68 583.68"><path d="M291.84 57.839999999999975C227.83999999999997 105.83999999999997 163.83999999999997 125.83999999999997 67.83999999999997 157.83999999999997c0 112 80 272 224 368 144-96 224-250 224-362-96-32-160-58-224-106z m0 97c75.6 0 137 61.4 137 137s-61.4 137-137 137-137-61.4-137-137 61.4-137 137-137z m-9 18.3c-42.9 3.2-79.3 29.1-97.6 65.6l97.9 39.9a17.12 15.999999999999998 90 0 1 8.7-2.8 17.12 15.999999999999998 90 0 1 2.9 0.3l38.7-38.7 12.8 12.8-38.8 38.8a17.12 15.999999999999998 90 0 1 0.4 3.9 17.12 15.999999999999998 90 0 1-16 17.1 17.12 15.999999999999998 90 0 1-15.9-15l-97.4-39.7c-2.8 8.8-4.7 18-5.4 27.5H195.83999999999997v18h-22.7c4.4 58.6 51.1 105.3 109.7 109.7V387.84h18v22.7c58.6-4.4 105.3-51.1 109.7-109.7H387.84v-18h22.7c-4.4-58.6-51.1-105.3-109.7-109.7V195.83999999999997h-18v-22.7z" /></svg>