<svg xmlns="http://www.w3.org/2000/svg" width="100%" height="100%" viewBox="0 0 583.68 583.68"><path d="M205.64 51.839999999999975l38.2 89.2L282.03999999999996 51.839999999999975h-76.4zM61.41999999999997 65.13999999999997L54.549999999999976 165.83999999999997l41.6 6.3L126.16999999999997 142.83999999999997 61.41999999999997 65.13999999999997zM198.14 80.16999999999997C182.73999999999998 87.00999999999998 169.83999999999997 95.90999999999997 169.83999999999997 104.82999999999997c0 5.83 0.5 13.51 1.5 22.29 2.2-11.46 12.4-20.24 24.5-20.24 6.3 0 12.1 2.39 16.5 6.29l-14.2-33z m91.4 0l-14.2 33c4.4-3.9 10.2-6.29 16.5-6.29 12.1 0 22.3 8.78 24.5 20.24 1-8.78 1.5-16.46 1.5-22.29 0-8.92-12.9-17.82-28.3-24.66z m178.5 10.39C312.64 132.99999999999997 266.53999999999996 422.44 362.23999999999995 525.94c132.6-48 224.4-326.4 105.8-435.38zM195.83999999999997 124.87999999999998c-4 0-7 3.02-7 6.99 0 3.96 3 6.97 7 6.97s7-3.01 7-6.97c0-3.97-3-6.99-7-6.99z m96 0c-4 0-7 3.02-7 6.99 0 3.96 3 6.97 7 6.97s7-3.01 7-6.97c0-3.97-3-6.99-7-6.99z m-80.4 7l8.9 0.02v-0.02h-8.9z m96 0l8.3 0.02v-0.02h-8.3zM220.83999999999997 132.95c-0.6 13.19-11.7 23.89-25 23.89-9.7 0-18.1-5.6-22.3-13.8 2.8 17.2 7.4 36.5 14.1 54l18.1-36.1 38.1 57.2 38.1-57.2 18.1 36.1c6.7-17.5 11.3-36.8 14.1-54-4.2 8.2-12.6 13.8-22.3 13.8-13.3 0-24.4-10.7-25-23.89l-23 53.69-23-53.69z m220.1 31.19l17.4 4.2-59.8 246.1-17.4-4.2 59.8-246.1zM110.49999999999997 187.23999999999998L93.37999999999997 192.83999999999997 203.33999999999997 531.74l17.2-5.6L110.49999999999997 187.23999999999998z m97.44 9.5l-10.6 21.4c11.2 20.2 26.4 34.7 46.5 34.7s35.3-14.5 46.5-34.7l-10.6-21.4-35.9 53.8-35.9-53.8z m168.3 8.4l9 62.3-17.8 2.6-9-62.3 17.8-2.6z m120.8 29.4l14.6 10.4-36.6 51.2-14.6-10.4 36.6-51.2z m-143.8 65.2l9.1 62.3-17.8 2.6-9.1-62.3 17.8-2.6z m120.8 29.4l14.6 10.4-36.6 51.2-14.6-10.4 36.6-51.2z" /></svg>