<svg xmlns="http://www.w3.org/2000/svg" width="100%" height="100%" viewBox="0 0 583.68 583.68"><path d="M87.82399999999998 86.32599999999996l-7.968 16.14 11.396 5.626H90.83999999999997V273.68999999999994l0.977-1.93 7.957-15.647 8.06 15.594c0.342 0.66 0.667 1.317 1.006 1.977V116.77399999999997l216.248 106.742c-0.157 1.276-0.248 2.575-0.248 3.896 0 17.228 13.773 31 31 31 8.558 0 16.26-3.4 21.85-8.93l83.277 41.106-26.832 32.133L490.34799999999996 451.84H515.8399999999999V339.84l-35.002-41.918 6.986-14.152-101.597-50.15c0.4-2.003 0.613-4.078 0.613-6.208 0-17.227-13.773-31.002-31-31.002-9.404 0-17.772 4.11-23.44 10.64L87.82499999999997 86.32699999999997zM318.61999999999995 259.17999999999995L285.56999999999994 314.84H259.84v18h15.04L168.22599999999997 512.4549999999999l-100.375-0.11-0.02 18 122.53 0.134 4.376 0.005L515.8299999999999 530.8399999999999l0.02-18-18.576-0.02L388.83 263.562c-8.722 7.97-20.312 12.847-32.99 12.847-3.074 0-6.08-0.3-9-0.847V314.84h-24.05l23.392-39.396c-10.927-2.207-20.56-8.08-27.56-16.264zM364.84 288.633L376.24199999999996 314.84H364.84v-26.207z m-265.016 7.172C89.24999999999997 316.69 78.05199999999998 337.65 63.13999999999997 356.207c13.75 18.88 26.382 26.917 36.938 26.996 10.568 0.08 22.95-7.66 36.49-26.86-15.842-19.27-26.55-40.147-36.744-60.538zM312.09999999999997 332.84H346.84v179.813l-141.422-0.157L312.09999999999997 332.84z m52.74 0h19.232L419.84 415.04999999999995V451.84h16.006l26.514 60.94-97.52-0.106V332.84z" /></svg>