<svg xmlns="http://www.w3.org/2000/svg" width="100%" height="100%" viewBox="0 0 583.68 583.68"><path d="M508.84 100.28999999999998c0.4 7.06 0.2 14.02-0.5 20.83 3.6 3.88 4.7 9.15 3.4 15.42-1.2 5.6-4.7 11.7-10.4 16.4-3 8.8-6.9 17.2-11.3 24.9 21.3-5.2 35.6-20.7 39.3-37.4 2.5-11.45-0.1-24.01-8.9-32.67-3.2-3.14-7.1-5.65-11.6-7.48z m-210 0.81c-3.7 1.73-6.9 3.95-9.6 6.63-8.8 8.66-11.4 21.23-8.9 32.71 3.8 17 18.5 32.6 40.3 37.7-4.6-7.8-8.6-16.1-11.8-24.8-6-4.8-9.6-11-10.9-16.8-1.2-5.81-0.4-10.76 2.6-14.54-1-6.89-1.6-13.88-1.7-20.9zM317.23999999999995 108.83999999999997c2 26.79 12.6 53.4 27.8 73.6C361.84 204.93999999999997 383.84 218.83999999999997 403.84 218.83999999999997c20.3 0 43.2-13 60.3-34.7 15.7-19.7 26.3-46.4 26.8-75.3H317.23999999999995z m71.9 126.3c-4.2 7.2-6.9 15.8-7.9 21.4l22.6 22.6 22.6-22.6c-1-5.6-3.7-14.1-7.8-21.3-4.9 1.1-9.8 1.6-14.8 1.6s-9.9-0.6-14.7-1.7z m-187.8 3.8c-2.5 10.2 0.5 20.2 6.3 30.4 7.2 12.6 18.6 24.1 26.6 32.1l2.6 2.7v3.7c0 8 0 15.7-0.1 23h46.2c-0.1-7.3-0.1-15-0.1-23v-3.7l2.6-2.7c8-8 19.4-19.5 26.6-32.1 5.8-10.2 8.8-20.2 6.3-30.4-42.1 12.7-74.9 12.7-117 0z m196 59.1L382.64 378.84h42.4l-14.7-80.8-6.5 6.5-6.5-6.5zM78.59999999999997 316.84c1.51 5.2 3.86 11.2 6.96 16.4 2.63 4.4 5.69 8.2 8.42 10.5C96.71999999999997 346.14 98.83999999999997 346.84 99.83999999999997 346.84h11.53l-16 64h56.97l-16-64H147.83999999999997c1 0 3.1-0.7 5.9-3.1 2.7-2.3 5.7-6.1 8.4-10.5 3.1-5.2 5.4-11.2 6.9-16.4H78.59999999999997z m157.74 32c-0.2 4.8-0.5 9.4-0.8 14h48.6c-0.3-4.6-0.6-9.2-0.8-14h-47z m-3 32c-1.6 10.4-4.1 20.3-7.8 30h68.6c-3.7-9.7-6.2-19.6-7.8-30h-53zM364.84 396.84v14h78v-14h-78zM51.839999999999975 426.84v18h480v-18H51.839999999999975z m55 35v48h18v-48H106.83999999999997z m352 0v48h18v-48h-18z" /></svg>