<svg xmlns="http://www.w3.org/2000/svg" width="100%" height="100%" viewBox="0 0 583.68 583.68"><path d="M140.36999999999998 64.55999999999997c-0.676 0-1.356 0.012-2.03 0.03-16.186 0.435-31.577 6.108-44.375 15.25-34.13 24.378-50.547 75.233-18.563 118.72 25.234 34.303 14.237 79.597-11.874 104.905l13.03 13.406c32.24-31.247 45.253-86.76 13.907-129.374C64.25499999999997 151.86199999999997 78.09299999999998 114.16399999999997 104.83999999999997 95.05999999999997c13.374-9.554 29.767-14.01 46.28-10.75 15.853 3.126 32.335 13.31 46.907 35l-59.875 34.655 24.344 42.28c-49.898 63.943-58.988 154.445-16 229.126 56.487 98.133 181.517 131.802 279.281 75.19 97.765-56.614 131.237-182.057 74.75-280.19-42.912-74.55-125.41-111.868-205.437-100.686l-24.438-42.438-56.437 32.657c-16.916-25.592-38.054-39.714-59.47-43.938-4.813-0.95-9.63-1.405-14.374-1.406z m170.126 81.124c79.9 0 144.813 64.347 144.813 144.25 0 79.9-64.913 144.844-144.814 144.844-79.9 0-144.25-64.945-144.25-144.844 0-79.9 64.35-144.25 144.25-144.25z m-9.094 25.187v88.19c-13.248 4.192-23.156 16.79-23.156 31.218 0 17.726 14.962 32.125 32.688 32.125 16.82 0 30.63-12.968 32-29.438l76.53-54.875-10.905-15.188-70.283 50.407c-4.103-6.774-10.542-11.993-18.187-14.345V170.86999999999998h-18.688z m-42.187 11.314l-16.188 9.344 14.344 24.843 16.19-9.374-14.345-24.812z m103.063 0l-14.344 24.812 16.187 9.375 14.345-24.843-16.188-9.343z m-150.125 40.22l-9.344 16.186 24.81 14.344 9.345-16.188-24.813-14.344z m98.78 53.874c7.628 0 13.438 6.375 13.438 14 0 7.626-5.81 13.437-13.436 13.437-7.627 0-14-5.81-14-13.438 0-7.626 6.372-14 14-14z m-119.437 4.5v18.687h28.656v-18.688h-28.656z m209.813 0v18.687h28.686v-18.688H401.31zM227.61999999999998 327.34l-24.81 14.313L212.152 357.84l24.812-14.344-9.344-16.156z m166.25 0l-9.342 16.156L409.34 357.84l9.344-16.188L393.86999999999995 327.34z m-136.5 36.563l-14.343 24.812 16.188 9.344 14.344-24.814-16.19-9.344z m106.75 0l-16.186 9.343 14.344 24.813 16.187-9.345-14.344-24.813z m-62.717 16.812v28.656h18.687v-28.655h-18.688z" /></svg>