<svg xmlns="http://www.w3.org/2000/svg" width="100%" height="100%" viewBox="0 0 583.68 583.68"><path d="M131.83999999999997 67.83999999999997c-44 0-63 27.5-63 55s19 55 63 55h0.12C116.58999999999997 164.43999999999997 106.83999999999997 144.73999999999998 106.83999999999997 122.83999999999997c0-21.91 9.75-41.6 25.12-55z m48 0c-30.5 0-55 24.52-55 55 0 30.5 24.5 55 55 55s55-24.5 55-55c0-7.4-1.5-14.45-4.1-20.89L180.83999999999997 168.53999999999996l-39.4-39.3 12.8-12.76L178.83999999999997 141.14l41.6-55.46C210.43999999999997 74.69999999999997 195.93999999999997 67.83999999999997 179.83999999999997 67.83999999999997z m47.9 0C243.03999999999996 81.23999999999998 252.83999999999997 100.92999999999998 252.83999999999997 122.83999999999997c0 21.9-9.8 41.6-25.1 55H451.84c44 0 63-27.5 63-55s-19-55-63-55zM131.83999999999997 227.83999999999997c-44 0-63 27.5-63 55s19 55 63 55h0.12C116.58999999999997 324.44 106.83999999999997 304.73999999999995 106.83999999999997 282.84s9.75-41.6 25.12-55z m48 0c-30.5 0-55 24.5-55 55s24.5 55 55 55 55-24.5 55-55c0-7.4-1.5-14.5-4.1-20.9L180.83999999999997 328.53999999999996l-39.4-39.3 12.8-12.8 24.6 24.7 41.6-55.5c-10-10.9-24.5-17.8-40.6-17.8z m47.9 0c15.3 13.4 25.1 33.1 25.1 55s-9.8 41.6-25.1 55H451.84c44 0 63-27.5 63-55s-19-55-63-55zM131.83999999999997 369.84c-52 0-81 36.5-81 73s29 73 81 73h272c-18.3 0-35-6.8-47.9-18H131.83999999999997c-44 0-63-27.5-63-55s19-55 63-55h224.1c12.9-11.2 29.6-18 47.9-18z m272 0c18.3 0 35 6.8 47.9 18h0.1c44 0 63 27.5 63 55s-19 55-63 55h-0.1c-12.9 11.2-29.6 18-47.9 18h48c52 0 81-36.5 81-73s-29-73-81-73z m0 18c-30.5 0-55 24.5-55 55s24.5 55 55 55 55-24.5 55-55-24.5-55-55-55z m-25.6 16.6l25.6 25.6 25.6-25.6 12.8 12.8-25.6 25.6 25.6 25.6-12.8 12.8-25.6-25.6-25.6 25.6-12.8-12.8 25.6-25.6-25.6-25.6z" /></svg>