<svg xmlns="http://www.w3.org/2000/svg" width="100%" height="100%" viewBox="0 0 583.68 583.68"><path d="M164.68399999999997 52.15299999999998c-1.26 0.01-2.52 0.042-3.75 0.093-19.69 0.814-35.63 6.786-46.625 17.782-21.992 21.99-23.814 63.782-4.72 115.687s58.568 112.162 113.688 167.28c55.12 55.12 115.376 94.595 167.28 113.69 51.906 19.092 93.73 17.27 115.72-4.72 21.99-21.99 23.78-63.782 4.687-115.688-19.094-51.905-58.54-112.195-113.656-167.312C342.19 123.84799999999997 281.9 84.40299999999998 229.99499999999998 65.30999999999997c-24.33-8.952-46.42-13.317-65.312-13.157z m34.97 52.156c45.347-0.48 113.94 35.972 175.155 97.186 76.95 76.95 114.752 165.567 89.28 205-16.348-55.695-56.743-120.148-115.438-178.844C289.96999999999997 168.96699999999998 225.53199999999998 128.56799999999998 169.83999999999997 112.21599999999998c8.06-5.202 18.167-7.784 29.813-7.906zM78.55799999999998 105.86999999999998L67.61999999999998 116.80999999999997c-10.986 10.987-16.853 26.35-17.686 46.06-0.834 19.712 3.62 43.48 13.219 69.376C82.34799999999998 284.042 121.89999999999998 344.212 176.99599999999998 399.31c55.097 55.096 115.267 94.646 167.063 113.842 25.896 9.6 49.663 14.052 69.374 13.22 19.71-0.834 35.076-6.702 46.062-17.688l10.97-10.97c-25.293 3.142-55.017-1.975-86.345-13.5-55.3-20.342-117.292-61.23-174.06-118-56.77-56.768-97.658-118.728-118-174.03-11.516-31.302-16.626-61.026-13.5-86.313z m77.218 21.876c52.77 13.2 119.523 52.99 179.656 113.125 60.133 60.136 99.926 126.892 113.125 179.657-41.025 21.154-126.707-16.642-201.408-91.343-74.715-74.716-112.55-160.424-91.375-201.438z" /></svg>