<svg xmlns="http://www.w3.org/2000/svg" width="100%" height="100%" viewBox="0 0 583.68 583.68"><path d="M291.84 51.839999999999975C159.28999999999996 51.839999999999975 51.839999999999975 159.28999999999996 51.839999999999975 291.84s107.45 240 240 240 240-107.45 240-240S424.39 51.839999999999975 291.84 51.839999999999975z m0 60c99.41 0 180 80.59 180 180s-80.59 180-180 180S111.83999999999997 391.25 111.83999999999997 291.84 192.42999999999998 111.83999999999997 291.84 111.83999999999997z m-15 30a15 15 0 0 0-15 15v30a15 15 0 0 0 15 15h30a15 15 0 0 0 15-15v-30a15 15 0 0 0-15-15h-30z m16.75 90.03A60 60 0 0 0 231.83999999999997 291.84a60 60 0 0 0 120 0 60 60 0 0 0-58.25-59.97zM156.83999999999997 261.84a15 15 0 0 0-15 15v30a15 15 0 0 0 15 15h30a15 15 0 0 0 15-15v-30a15 15 0 0 0-15-15h-30z m240 0a15 15 0 0 0-15 15v30a15 15 0 0 0 15 15h30a15 15 0 0 0 15-15v-30a15 15 0 0 0-15-15h-30zM276.84 381.84a15 15 0 0 0-15 15v30a15 15 0 0 0 15 15h30a15 15 0 0 0 15-15v-30a15 15 0 0 0-15-15h-30z" /></svg>