<svg xmlns="http://www.w3.org/2000/svg" width="100%" height="100%" viewBox="0 0 583.68 583.68"><path d="M267.217 60.839999999999975l-6 30H275.84v18h-18.223l-4.347 21.736L265.402 154.83999999999997H282.84V131.83999999999997h18v23h17.438l12.132-24.264L326.063 108.83999999999997H307.84V90.83999999999997h14.623l-6-30h-49.246zM140.15999999999997 107.32599999999998l-13.459 39.092H186.83999999999997V122.39099999999998l-46.68-15.065z m303.36 0L396.84 122.39099999999998v24.027h60.139l-13.46-39.092zM205.89499999999998 140.83999999999997l14.54 130.87L247.56799999999998 298.84h88.546l27.131-27.13L377.78499999999997 140.83999999999997h-32.382l-16 32h-75.125l-16-32h-32.383z m-69.334 14.027l-10.994 29.035 41.06 9.54 10.992-29.036-41.058-9.539z m269.504 9.55l10.988 29.025 41.06-9.54-7.378-19.486h-44.67zM136.14 204.83599999999998l8.933 59.187 29.666-4.479-7.156-47.404-31.443-7.305z m311.398 0l-31.443 7.304-7.156 47.404 29.666 4.479 8.933-59.188zM227.83999999999997 218.83999999999997h128v18H227.83999999999997v-18z m-54.092 59.057l-24.369 3.68c1.584 7.409 4.132 13.435 7.977 19.396 3.659 5.672 9.14 11.725 15.767 18.353-1.142-13.144-1.698-27.58 0.625-41.43z m236.184 0c2.323 13.85 1.767 28.285 0.625 41.43 6.626-6.63 12.108-12.682 15.767-18.354 3.845-5.96 6.393-11.987 7.977-19.397l-24.37-3.68zM252.83999999999997 316.84v51.273L279.567 394.84h24.546L330.84 368.113V316.84h-78zM135.60799999999998 348.84L124.83999999999997 359.787V362.84h62v-3.273L176.11299999999997 348.84H135.60799999999998z m272 0L396.84 359.787V362.84h62v-3.273L448.113 348.84h-40.505zM124.83999999999997 380.84v14h62v-14H124.83999999999997z m272 0v14h62v-14h-62z m-153 3.727l-7 7V440.84l27.117-36.156L243.83999999999997 384.56699999999995z m96 0l-20.117 20.117L346.84 440.84v-49.273l-7-7zM204.83999999999997 396.84v62h14v-62h-14z m160 0v62h14v-62h-14zM124.83999999999997 412.84v14h62v-14H124.83999999999997z m272 0v14h62v-14h-62zM124.83999999999997 444.84v14h62v-14H124.83999999999997z m272 0v14h62v-14h-62zM124.83999999999997 476.84v14h62v-14H124.83999999999997z m272 0v14h62v-14h-62zM124.83999999999997 508.84v14h62v-14H124.83999999999997z m272 0v14h62v-14h-62z" /></svg>