<svg xmlns="http://www.w3.org/2000/svg" width="100%" height="100%" viewBox="0 0 583.68 583.68"><path d="M156.21499999999997 58.309999999999974c88.55 42.68 157.7 88.838 211.438 154.78C283.67999999999995 138.73399999999998 170.27799999999996 95.79499999999997 57.809999999999974 64.36999999999998v95.095c66.055 28.358 165.725 98.252 191.25 144.75-51.636-51.886-122.18-81.19-191.25-102.406v87.53c75.425 22.986 148.444 61.787 191.905 148.063 19.75 55.943 73.15 96.125 135.78 96.125 79.39 0 143.94-64.55 143.94-143.938 0-45.592-21.307-86.29-54.47-112.688-7.824-10.445-15.605-20.434-23.344-30.03 5.687-5.654 9.22-13.475 9.22-22.126 0-17.24-13.98-31.22-31.22-31.22-6.977 0-13.425 2.32-18.624 6.19-64.35-69.56-125.732-112.213-184.5-141.407h-70.28zM405.81 103.96399999999997c-11.588 0-21 9.382-21 20.97 0 11.586 9.412 21 21 21 11.586 0 20.967-9.414 20.967-21 0-11.59-9.38-20.97-20.968-20.97z m97.217 125.47c-10.173 0-18.406 8.262-18.406 18.436 0 10.175 8.234 18.407 18.408 18.407 10.173 0 18.437-8.232 18.437-18.406s-8.264-18.436-18.438-18.436zM371.40299999999996 265.12l4.688 24.782-51.375 13 61.5 79.625-8.656-60.78 49.905-3.626 3.406-45.31c32.242 12.5 57.96 37.922 70.845 69.968l-5.5 19.468-49.188-15.187L510.215 400.84c-1.43 16.137-5.897 31.376-12.844 45.156l-32.217-14.5-82.75 58.53 66.656-25.248 25 13.437C451.40999999999997 500.84799999999996 420.123 514.8399999999999 385.49499999999995 514.8399999999999c-61.742 0-112.934-44.45-123.344-103.156l45.625 39.812 23.532-30.72 26.624 33.783 93.625-58.345-39.908-42.97 0.5 41.44-47.062 16.905-43.5-54.78-9.72 37.374-44.874-45.313c15.4-44.967 55.627-78.307 104.406-83.75z" /></svg>