<svg xmlns="http://www.w3.org/2000/svg" width="100%" height="100%" viewBox="0 0 583.68 583.68"><path d="M57.42399999999998 53.839999999999975L206.85999999999999 203.27599999999998v3.584h-44.69L53.839999999999975 97.67599999999997v25.557l82.975 83.627H53.839999999999975v32h185.02V53.839999999999975h-32v85.436L121.42399999999998 53.839999999999975z m286.057 0v185.02H529.8399999999999v-32h-86.775L529.8399999999999 120.08399999999997v-64L379.065 206.85999999999999h-3.584v-44.69L484.66499999999996 53.839999999999975h-25.556l-83.627 82.975V53.839999999999975zM53.839999999999975 345.133v32h85.436L53.839999999999975 462.57v64l149.436-149.437h3.584v44.69L97.99199999999998 529.8399999999999h25.555l83.313-82.662V529.8399999999999h32V345.133z m289.64 0V529.8399999999999h32v-85.123L460.60499999999996 529.8399999999999h64L375.47999999999996 380.717v-3.584h44.69L529.8399999999999 487.666V462.10999999999996l-84.314-84.977H529.8399999999999v-32z" /></svg>