<svg xmlns="http://www.w3.org/2000/svg" width="100%" height="100%" viewBox="0 0 583.68 583.68"><path d="M211.94799999999998 131.23999999999998c0-7.73-0.975-15.69-4.336-22.874-2.69-4.525-6.29-4.78-9.157-3.12-3.684 2.13-8.016 8.446-8.016 20.61 0.63 82.52-1.568 171.5-2.794 253.63H106.57999999999997V131.23499999999996c0-22.24-9.21-41.34-37.85-41.452l-8.758-0.04C78.09399999999997 69.09999999999997 96.13499999999998 60.22599999999997 125.27499999999998 60.22599999999997c18.78 0 36.332 7.443 48.47 20.104l1.965-1.78 2.314-1.983c17.45-13.458 37.45-16.335 52.62-16.335 18.747 0 36.268 7.415 48.402 20.04l1.897-1.718 2.305-1.982c17.46-13.458 37.452-16.336 52.624-16.336 34.38 0 64.434 24.884 65.096 60.787 0.372 19.93 0.336 46.43 0.094 75.296 7.926-22.432 23.416-50.88 51.044-50.88 22.807 0 68.417 1.143 68.417 140.26 0 100.9-52.43 158.528-88.714 186.742 4.672 1.804 9.595 2.547 14.594 2.547 25.09 0 45.615-20.526 45.615-20.526v28.514s-8.554 27.936-71.27 27.936c-18.69 0-33.924-3.012-46.37-8.334-38.643 12.317-85.332 19.165-85.332 19.165v-30.792s23.99-1.208 53.3-13.695c-19.102-25.98-23.054-63.213-24.934-97.764l-0.228-8.275V131.23999999999998c0-7.73-0.98-15.69-4.337-22.874-2.596-4.373-6.025-4.695-8.697-3.366-3.428 1.706-7.697 7.1-8.382 17.898 0.98 75.646-1.655 183.16-2.747 256.596h-81.066V131.23999999999998z m188.08 144.462l-0.03 2.054-0.144 8.463c-0.613 36.676-1.27 70.48-1.607 93.27 0 22.467 1.978 39.966 5.41 53.482 24.867-28.925 43.893-72.226 43.893-137.014 0-184.137-46.103-65.27-47.522-20.256z" /></svg>