<svg xmlns="http://www.w3.org/2000/svg" width="100%" height="100%" viewBox="0 0 583.68 583.68"><path d="M291.84 54.839999999999975c-47.103 0.059-104.37 1.514-134.777 35.078-19.272 22.051-22.113 59.34-22.141 91.55-0.013 15.25 0.89 29.319 1.84 40.03 3.42 2.125 6.765 3.998 10.168 5.508 1.906-6.213 4.188-12.19 6.889-17.853a411.19 411.19 0 0 1-0.897-27.668c0.004-4.162 0.11-8.397 0.309-12.645H163.83999999999997v-18h-9.143c0.568-4.797 1.279-9.49 2.141-14H179.83999999999997V118.83999999999997h-18.324c2.45-7.015 5.462-12.914 9.101-17.078 30.825-28.62 70.834-28.757 108.229-28.904L291.84 111.83999999999997l12.994-38.982c36.423 0.166 84.794 3.054 108.229 28.904 3.639 4.164 6.652 10.063 9.101 17.078H403.84v18h23.002c0.862 4.51 1.573 9.203 2.14 14H419.84v18h10.61c0.197 4.248 0.304 8.483 0.308 12.645a411.356 411.356 0 0 1-0.897 27.667c2.701 5.664 4.983 11.64 6.89 17.854 3.402-1.51 6.748-3.383 10.167-5.508 0.95-10.711 1.853-24.78 1.84-40.03-0.028-32.21-2.869-69.499-22.14-91.55C388.205 53.26499999999997 339.20099999999996 54.824999999999974 291.84 54.839999999999975z m-91.682 128.897C168.81399999999996 200.87499999999997 156.83999999999997 241.38499999999996 156.83999999999997 287.84v48c2.884 29.924 30.052 42.574 48 60.271V479.84c0 4.935 2.352 9.45 7.75 14.36 20.432 15.936 53.229 24.47 79.21 24.64h0.04c28.357-3.426 58.33-5.59 79.395-24.613C376.52299999999997 489.34499999999997 378.84 484.84 378.84 479.84v-83.729c18.205-18.5 47.537-34.698 48-60.271v-48c0-46.455-11.974-86.965-43.318-104.104-11.741-6.42-25.102-6.616-40.256-2.98-19.464 5.613-35.334 13.104-51.426 21.147-17.188-7.926-35.068-17.077-51.426-21.147-13.699-3.296-28.23-3.457-40.256 2.98z m-106.84 34.318c1.809 22.782 8.967 56.005 18.95 82.625 5.798 15.461 12.661 28.809 18.986 36.398 3.162 3.795 6.131 6.012 6.967 5.13 0.835-0.883 0.619-3.576 0.619-6.368v-48c0-14.72 1.138-29.342 3.768-43.207-9.004-3.482-16.74-8.624-23.76-13.305-8.927-5.95-16.756-11.044-25.53-13.273z m397.043 0c-8.773 2.23-16.602 7.322-25.529 13.273-7.02 4.68-14.756 9.823-23.76 13.305C443.702 258.49799999999993 444.84 273.121 444.84 287.84v48c0 2.792-0.216 5.485 0.62 6.367 0.835 0.883 3.804-1.334 6.966-5.129 6.325-7.59 13.188-20.937 18.986-36.398 9.983-26.62 17.141-59.842 18.95-82.625zM211.83999999999997 243.10999999999999l70.363 70.366-10.32 10.32C274.35699999999997 328.231 275.84 332.405 275.84 335.84h-96c0-16 16-48 48-48 1.182 0 2.46 0.194 3.797 0.523L211.83999999999997 268.567l-25.637 25.636-12.726-12.726zM227.83999999999997 335.84c8.837 0 16-7.163 16-16s-7.163-16-16-16-16 7.163-16 16 7.163 16 16 16z m144-92.729l38.363 38.366-12.726 12.726L371.84 268.567l-19.797 19.796c1.337-0.33 2.615-0.523 3.797-0.523 32 0 48 32 48 48h-96c0-3.435 1.483-7.609 3.957-12.043l-10.32-10.32zM355.84 335.84c8.837 0 16-7.163 16-16s-7.163-16-16-16-16 7.163-16 16 7.163 16 16 16z m-203.393 36.496c-28.117 11.146-58.94 25.26-93.828 42.373 39.48 16.026 70 37.572 90.092 61.317 14.463 17.092 23.58 35.612 26.248 53.814h70.611c-16.114-4.813-33.438-11.931-45.091-22.324C192.65999999999997 500.40599999999995 186.83999999999997 490.905 186.83999999999997 479.84v-76.002c-12.82-11.535-24.674-19.302-34.393-31.502z m278.786 0c-9.543 12.279-23.267 21.558-34.393 31.502V479.84c0 11-5.683 20.495-13.395 27.613-14.023 11.575-28.946 17.825-44.95 22.387h70.226c2.667-18.202 11.785-36.722 26.248-53.814 20.092-23.745 50.613-45.29 90.092-61.317-34.889-17.114-65.71-31.227-93.828-42.373z m-165.784 4.467c7.613 4.7 16.541 13.529 26.391 14.037 10.283-2.687 17.928-7.524 26.39-14.037l11.22 14.074C318.837 398.548 303.78999999999996 408.618 291.84 408.84c-14.83-1.544-26.226-9.059-37.61-17.963z m-31.293 48.625L247.76999999999998 438.84h88.433l13.25-13.342 12.774 12.684L343.695 456.84H336.84l-13 39-13-39h-38l-13 39-13-39h-6.447l-18.87-18.588z" /></svg>