<svg xmlns="http://www.w3.org/2000/svg" width="100%" height="100%" viewBox="0 0 583.68 583.68"><path d="M282.84 76.83999999999997v18h18V76.83999999999997zM132.40999999999997 112.83999999999997c-0.22 0.22-0.77 0.85-1.35 2.15C129.82 117.79999999999997 128.83999999999997 122.83999999999997 128.83999999999997 127.83999999999997s0.98 10 2.22 12.8c0.58 1.3 1.13 2 1.35 2.2H451.23999999999995c0.2-0.2 0.8-0.9 1.4-2.2C453.84 137.83999999999997 454.84 132.83999999999997 454.84 127.83999999999997c0-5-1-10.04-2.2-12.85-0.6-1.3-1.2-1.93-1.4-2.15zM268.84 160.83999999999997v30h46v-30z m-64 48v30h174v-30z m32 48v190h110V256.84zM60.839999999999975 288.84v92h158v-92z m304 0v92h158v-92z m-73 7s38.6 55.3 31 84c-3.3 12.8-16.5 28-31 28-14.6 0-27.7-15.2-31-28-7.6-28.7 31-84 31-84zM60.839999999999975 398.84v16h158v-16z m304 0v16h158v-16z m-108.5 66l11.2 33.7c6 5.2 15 8.3 24.3 8.3s18.3-3.1 24.3-8.3l11.2-33.7z" /></svg>