<svg xmlns="http://www.w3.org/2000/svg" width="100%" height="100%" viewBox="0 0 583.68 583.68"><path d="M73.56699999999998 60.839999999999975l78 78h280.546l78-78H73.56699999999998zM60.839999999999975 73.56699999999998v436.546l78-78V151.56699999999998l-78-78z m462 0l-78 78v280.546l78 78V73.56699999999998zM115.79699999999997 75.83999999999997a8 8 0 0 1 8 8 8 8 0 0 1-8 8 8 8 0 0 1-8-8 8 8 0 0 1 8-8zM467.84 76.63299999999998a8 8 0 0 1 8 8 8 8 0 0 1-8 8 8 8 0 0 1-8-8 8 8 0 0 1 8-8zM147.83999999999997 107.83999999999997a8 8 0 0 1 8 8 8 8 0 0 1-8 8 8 8 0 0 1-8-8 8 8 0 0 1 8-8z m287.45 0a8 8 0 0 1 8 8 8 8 0 0 1-8 8 8 8 0 0 1-8-8 8 8 0 0 1 8-8z m63.42 0a8 8 0 0 1 8 8 8 8 0 0 1-8 8 8 8 0 0 1-8-8 8 8 0 0 1 8-8zM83.83999999999997 108.88699999999997a8 8 0 0 1 8 8 8 8 0 0 1-8 8 8 8 0 0 1-8-8 8 8 0 0 1 8-8zM115.23499999999997 139.83999999999997a8 8 0 0 1 8 8 8 8 0 0 1-8 8 8 8 0 0 1-8-8 8 8 0 0 1 8-8z m352.605 0.2a8 8 0 0 1 8 8 8 8 0 0 1-8 8 8 8 0 0 1-8-8 8 8 0 0 1 8-8zM156.83999999999997 156.83999999999997v193.273l53.7-53.7L209.90499999999997 156.83999999999997H156.83999999999997z m71.064 0l0.555 121.654 54.38-54.38V156.83999999999997h-54.936zM300.84 156.83999999999997v49.273L350.113 156.83999999999997H300.84z m74.727 0L156.83999999999997 375.56699999999995V426.84h51.273L426.84 208.11299999999997V156.83999999999997h-51.273zM426.84 233.56699999999998l-53.023 53.023V426.84H426.84V233.56699999999998z m-71.023 71.023L300.84 359.56699999999995V426.84h54.977V304.59zM282.84 377.56699999999995L233.56699999999998 426.84H282.84v-49.273zM113.80999999999997 427.84a8 8 0 0 1 8 8 8 8 0 0 1-8 8 8 8 0 0 1-8-8 8 8 0 0 1 8-8z m354.03 0.658a8 8 0 0 1 8 8 8 8 0 0 1-8 8 8 8 0 0 1-8-8 8 8 0 0 1 8-8zM151.56699999999998 444.84l-78 78h436.546l-78-78H151.56699999999998zM83.83999999999997 459.592a8 8 0 0 1 8 8 8 8 0 0 1-8 8 8 8 0 0 1-8-8 8 8 0 0 1 8-8z m64 0.8a8 8 0 0 1 8 8 8 8 0 0 1-8 8 8 8 0 0 1-8-8 8 8 0 0 1 8-8z m288 0.712a8 8 0 0 1 8 8 8 8 0 0 1-8 8 8 8 0 0 1-8-8 8 8 0 0 1 8-8z m64 4.74a8 8 0 0 1 8 8 8 8 0 0 1-8 8 8 8 0 0 1-8-8 8 8 0 0 1 8-8zM467.84 491.84a8 8 0 0 1 8 8 8 8 0 0 1-8 8 8 8 0 0 1-8-8 8 8 0 0 1 8-8z m-352 2.56a8 8 0 0 1 8 8 8 8 0 0 1-8 8 8 8 0 0 1-8-8 8 8 0 0 1 8-8z" /></svg>