<svg xmlns="http://www.w3.org/2000/svg" width="100%" height="100%" viewBox="0 0 583.68 583.68"><path d="M195.83999999999997 60.839999999999975c-14.5 0-38 3.89-56.7 11.36-9.29 3.73-17.41 8.37-22.69 13.25A29.895 29.895 0 0 0 111.82999999999997 90.83999999999997H279.84c-1.2-1.77-2.6-3.55-4.6-5.39-5.3-4.88-13.4-9.52-22.7-13.25C233.83999999999997 64.72999999999998 210.33999999999997 60.839999999999975 195.83999999999997 60.839999999999975zM124.83999999999997 108.83999999999997v129.9l71 42.6 71-42.6V108.83999999999997H124.83999999999997z m167 78v18h23v14h-30v18h51.3l29.3 29.4 12.8-12.8-34.7-34.6H332.84v-14h23v-18h-64zM120.48999999999998 257.14L74.95999999999998 530.3399999999999l17.76 3L110.13999999999997 428.84h171.4l17.4 104.5 17.8-3-45.5-273.2-16.7 10 13.7 81.8-72.4 26.4-72.38-26.3 13.68-81.9-16.65-10z m263.15 22.4s-10.2 49.6 5.2 59.7c9.8 6.4 28.8-2.9 31-15.4 3.8-19.6-36.2-44.3-36.2-44.3zM412.84 364.84s-13.4 29.1-5.8 38.5c4.9 5.9 17.4 3.7 20.6-3.6C432.84 388.14 412.84 364.84 412.84 364.84z m-292.41 2.3l48.91 17.8-55.22 20.1 6.31-37.9z m150.81 0l6.3 37.9-55.2-20.1 48.9-17.8z m179 7.5s1.4 32.1 12.4 36.9c7.2 3 17.2-4.7 16.8-12.7-0.8-12.6-29.2-24.2-29.2-24.2zM195.83999999999997 394.53999999999996l44.8 16.3h-89.6l44.8-16.3z m251.7 40.5s-3.4 21.5 3.4 26.2c4.3 2.9 12.1-1 12.8-6.3 1.3-8.6-16.2-19.9-16.2-19.9z" /></svg>