<svg xmlns="http://www.w3.org/2000/svg" width="100%" height="100%" viewBox="0 0 583.68 583.68"><path d="M248.84599999999998 54.14299999999997c-21.637-0.01-42.777 4.028-62.66 11.787v-0.002C70.04399999999998 111.24999999999997-2.5240000000000222 283.44499999999994 122.71999999999997 515.478 34.214999999999975 221.33299999999997 228.06999999999996 150.64599999999996 371.423 342.32l-29.55 21.86c60.543 45.71 107.035 83.703 163.136 156.812 30.35-98.22 35.076-175.94 7.385-283.75l-32.032 24.037C426.25 116.56999999999998 333.72999999999996 54.186999999999976 248.84699999999998 54.14399999999998zM239.08999999999997 114.22999999999998c54.92-0.455 114.01 35.336 160.82 112.112l22.928-13.592c25.364 48.176 30.742 96.352 31.47 144.528-28.858-41.125-62.888-75.81-104.222-101.403l27.565-16.34C277.60799999999995 130.02499999999998 146.16599999999997 92.23699999999997 79.54999999999998 305.268 97.38799999999998 182.52599999999998 164.378 114.84999999999998 239.08999999999997 114.22999999999998z" /></svg>