<svg xmlns="http://www.w3.org/2000/svg" width="100%" height="100%" viewBox="0 0 583.68 583.68"><path d="M251.18399999999997 58.65299999999998L240.86999999999998 73.74599999999998l71.782 46.375 8.938-12.81c-15.62-23.633-44.153-40.97-70.406-48.657z m-38.47 18.843c-28.32 35.34-79.16 105.16-105.718 145.313 61.96 26.364 113.013 69.562 133.22 119.593 5.064 12.54 8.125 25.566 8.78 38.75 36.873-9.75 80.34-36.93 117.25-70.5 30.105-27.38 55.912-59.115 71.406-87.75L212.71499999999997 77.49499999999998z m240.657 155.53c-16.836 31.038-43.713 63.084-74.717 91.283-40.21 36.57-87.238 66.474-130.47 76.03-1.09 8.278-3.153 16.543-6.343 24.72-8.91 22.832-26.23 44.633-52.656 64.592 64.678 10.955 135.135-13.105 195.844-53.687 64.21-42.923 116.84-104.112 139.28-157.063l-70.937-45.875zM120.65399999999997 249.62199999999999L52.339999999999975 349.56v143.717l135.875-194.812c-18.23-18.513-41.412-35.295-67.563-48.844z" /></svg>