<svg xmlns="http://www.w3.org/2000/svg" width="100%" height="100%" viewBox="0 0 583.68 583.68"><path d="M115.83999999999997 68.83999999999997c-12.62 0-21.38 6.47-28.26 18.09C80.69999999999997 98.53999999999998 76.83999999999997 115.16999999999997 76.83999999999997 131.83999999999997c0 16.7 3.86 33.3 10.74 44.9C94.45999999999998 188.33999999999997 103.21999999999997 194.83999999999997 115.83999999999997 194.83999999999997h39V68.83999999999997z m57 0v126h174V68.83999999999997z m192 0v126h39c12.6 0 21.4-6.5 28.3-18.1 6.8-11.6 10.7-28.2 10.7-44.9 0-16.67-3.9-33.3-10.7-44.91C425.23999999999995 75.30999999999997 416.44 68.83999999999997 403.84 68.83999999999997zM154.83999999999997 212.83999999999997v32H76.83999999999997v94h366v-94h-78v-32h-18v32H172.83999999999997v-32z m306 48v30h46v-30z m-337.54 4.2l17.04 5.6-15.96 48-17.08-5.6z m48.04 0l17 5.6-16 48-17-5.6z m48 0l17 5.6-16 48-17-5.6zM120.78999999999998 356.84L100.83999999999997 476.53999999999996c12.89-22.1 26.47-44 42.9-64 18-21.8 39.6-41.3 67.1-55.7z m123.15 5.1c-37.8 13.2-64.3 35.2-86.3 62-22.2 27-39.57 59.1-58.07 90.9H179.83999999999997c5 0 10.7-2.4 17.6-9.4 6.8-6.8 14.3-17.8 21.9-32.7zM282.84 363.84v23h-26l-4 18h30v23h18v-64z" /></svg>