<svg xmlns="http://www.w3.org/2000/svg" width="100%" height="100%" viewBox="0 0 583.68 583.68"><path d="M169.82999999999998 63.839999999999975v23.512h52.02V63.839999999999975h-52.02z m0 41.51v90.705c-26.01 17.34-43.347 39.014-43.347 56.353v260.735S126.47999999999998 529.8399999999999 143.82 529.8399999999999h103.967c17.411 0 17.41-17.34 17.41-17.34V252.408c0-17.34-17.338-39.014-43.347-56.353V105.34999999999998h-52.02zM142.83999999999997 287.84h106v162H142.83999999999997V287.84z m194.514 3l-2.051 6.154c-8.474 25.423-12.793 58.44-6.233 86.87 3.28 14.215 9.429 27.45 19.846 37.273 8.61 8.118 20.105 13.533 33.924 15.172v74.64C363.441 515.136 337.84 529.8399999999999 337.84 529.8399999999999h108s-25.601-14.705-45-18.89v-74.641c13.82-1.639 25.314-7.054 33.924-15.172 10.417-9.822 16.565-23.058 19.846-37.274 6.56-28.43 2.241-61.446-6.233-86.869l-2.05-6.154H337.35299999999995zM160.83999999999997 305.84v126h70V305.84h-70z m189.703 3h82.594c2.639 9.261 4.629 19.565 5.68 30h-93.954c1.051-10.435 3.041-20.739 5.68-30z m-6.486 48h95.566c-0.116 8.04-0.907 15.846-2.553 22.977-2.72 11.784-7.571 21.548-14.654 28.226C415.334 414.72099999999995 405.96599999999995 418.84 391.84 418.84c-14.125 0-23.494-4.12-30.576-10.797-7.083-6.678-11.935-16.442-14.654-28.226-1.646-7.131-2.437-14.938-2.553-22.977z" /></svg>