<svg xmlns="http://www.w3.org/2000/svg" width="100%" height="100%" viewBox="0 0 583.68 583.68"><path d="M291.84 58.839999999999975C163.26399999999998 58.839999999999975 58.839999999999975 163.26399999999998 58.839999999999975 291.84s104.424 233 233 233 233-104.424 233-233S420.416 58.839999999999975 291.84 58.839999999999975z m-6.094 18.09C163.87599999999998 83.64699999999998 165.90599999999998 291.84 291.84 291.84c125.215 0 127.935 205.872 8.168 214.83-2.71 0.1-5.432 0.17-8.168 0.17-118.848 0-215-96.152-215-215 0-116.81 92.883-211.69 208.906-214.91zM291.84 138.83999999999997c22.537 0 41 18.463 41 41s-18.463 41-41 41-41-18.463-41-41 18.463-41 41-41z m0 224c-22.537 0-41 18.463-41 41s18.463 41 41 41 41-18.463 41-41-18.463-41-41-41z" /></svg>