<svg xmlns="http://www.w3.org/2000/svg" width="100%" height="100%" viewBox="0 0 583.68 583.68"><path d="M142.86299999999997 53.089999999999975L128.54999999999995 81.57799999999997l16.086 8.08 14.312-28.486z m328.497 4.557l-16.688 6.748 11.95 29.556 16.687-6.746z m-289.79 12.6l-15.335 27.948 15.779 8.66 15.338-27.949z m255.032 1.67l-16.084 8.081 14.312 28.487 16.084-8.08z m-34.914 17.9l-15.032 9.9 17.534 26.625 15.033-9.9zM214.59399999999997 91.60999999999999l-18.275 26.122 14.748 10.318 18.275-26.121z m155.29 18.243L355.7 120.93199999999997l19.623 25.127 14.186-11.08z m-124.47 5.42l-21.847 23.216 13.107 12.336 21.85-23.215z m96.342 18.888l-12.066 13.356 23.656 21.373 12.066-13.356z m-68.059 10.137l-25.48 19.158 10.816 14.387 25.483-19.158z m41.184 21.424l-8.129 16.06 28.445 14.397 8.13-16.059zM291.84 200.83999999999997c-16.4 0-34.344 10.07-57.637 33.363-2.94 2.94-3.524 4.645-3.629 6.416-0.104 1.772 0.528 4.498 2.983 8.59 4.516 7.526 15.2 18.68 29.283 32.826V234.83999999999997h58v47.195c14.083-14.146 24.767-25.3 29.283-32.826 2.455-4.092 3.087-6.818 2.983-8.59-0.105-1.771-0.69-3.476-3.63-6.416C326.185 210.90999999999997 308.23999999999995 200.83999999999997 291.84 200.83999999999997z m-11 52v86.275c1.705 12.707 7.374 15.725 11 15.725 3.626 0 9.295-3.018 11-15.725V252.83999999999997z m-18 75.738l-25.924 155.547c0.089 1.188 1.12 4.786 3.912 8.973 2.915 4.372 7.378 9.332 12.774 13.828C264.39199999999994 515.9179999999999 278.84 522.8399999999999 291.84 522.8399999999999s27.447-6.922 38.238-15.914c5.396-4.496 9.859-9.456 12.774-13.828 2.791-4.187 3.823-7.785 3.912-8.973L320.84 328.58799999999997c1.957 20.065-12.043 43.674-29 44.252-18.338-0.45-29-22.772-29-44.262zM291.84 447.84c17.673 0 32 10.745 32 24s-14.327 24-32 24c-17.673 0-32-10.745-32-24s14.327-24 32-24z" /></svg>