<svg xmlns="http://www.w3.org/2000/svg" width="100%" height="100%" viewBox="0 0 583.68 583.68"><path d="M240.14 154.23999999999998L188.33999999999997 223.83999999999997l-51.3-69.1L56.82999999999997 255.83999999999997l21.94 17.4 57.47-72.5 52.1 69.9 51.8-69.4 51.6 69.5 51.7-69.6 51.8 69.6 52-70 57.6 72.5 22-17.4-80.4-101.1-51.2 69-51.8-69.4-51.7 69.4-51.6-69.5z m0 156.4l-51.8 69.3-51.3-68.8-80.17 100.8 21.92 17.4 57.55-72.4 52 69.8 51.8-69.3 51.6 69.3 51.7-69.3 51.8 69.3 52-69.8 57.7 72.4 21.8-17.4-80.3-100.8-51.2 68.8-51.8-69.3-51.7 69.3-51.6-69.3z" /></svg>