<svg xmlns="http://www.w3.org/2000/svg" width="100%" height="100%" viewBox="0 0 448 512"><path fill="currentColor" d="M400 64c26.5 0 48 21.5 48 48v352c0 26.5-21.5 48-48 48h-352c-26.5 0-48-21.5-48-48v-352c0-26.5 21.5-48 48-48h48v-52c0-6.6 5.4-12 12-12h40c6.6 0 12 5.4 12 12v52h128v-52c0-6.6 5.4-12 12-12h40c6.6 0 12 5.4 12 12v52h48zM394 464c3.3 0 6-2.7 6-6v-298h-352v298c0 3.3 2.7 6 6 6h340zM341.2 263.4l-142.4 141.1c-4.7 4.7-12.3 4.6-16.9 0l-75.1-75.7c-4.7-4.7-4.6-12.3 0-17l22.8-22.6c4.7-4.7 12.3-4.6 16.9 0.1l44.1 44.5 111.1-110.2c4.7-4.7 12.3-4.6 17 0.1l22.5 22.7c4.7 4.7 4.6 12.3 0 16.9z" /></svg>