<svg xmlns="http://www.w3.org/2000/svg" width="100%" height="100%" viewBox="0 0 599.04 599.04"><path fill="currentColor" d="M477.4 141.4c9 9 14.1 21.3 14.1 34v332.1c0 26.5-21.5 48-48 48h-288c-26.5 0-48-21.5-48-48v-416c0-26.5 21.5-48 48-48.1h204.1c12.7 0 24.9 5.1 33.9 14.1zM439.6 171.5l-76.1-76.1v76.1h76.1zM155.5 507.5h288v-288h-104c-13.3 0-24-10.7-24-24v-104h-160v416zM405.7 363.8c10.5 10.5 8 38.7-17.5 38.7-14.8 0-36.9-6.8-55.8-17-21.6 3.6-46 12.7-68.4 20.1-50.1 86.4-79.4 47-76.1 31.2 4-20 31-35.9 51-46.2 10.5-18.4 25.4-50.5 35.4-74.4-7.4-28.6-11.4-51-7-67.1 4.8-17.7 38.4-20.3 42.6 5.9 4.7 15.4-1.5 39.9-5.4 56 8.1 21.3 19.6 35.8 36.8 46.3 17.4-2.2 52.2-5.5 64.4 6.5zM207.6 441.6c0 0.7 11.4-4.7 30.4-35-5.9 5.5-25.3 21.3-30.4 35zM289.2 251c-2.5 0-2.6 26.9 1.8 40.8 4.9-8.7 5.6-40.8-1.8-40.8zM264.8 387.6c15.9-6.1 34-14.9 54.8-19.2-11.2-8.3-21.8-20.4-30.1-35.5-6.7 17.7-15 37.8-24.7 54.7zM396.4 382.6c3.6-2.4-2.2-10.4-37.3-7.8 32.3 13.8 37.3 7.8 37.3 7.8z" /></svg>