<svg xmlns="http://www.w3.org/2000/svg" width="100%" height="100%" viewBox="0 0 599.04 599.04"><path fill="currentColor" d="M235.8 203.5h32v32h-32v-32zM299.8 107.5v32h-32v-32h32zM235.8 139.5h32v32h-32v-32zM299.8 171.5v32h-32v-32h32zM477.4 141.4c9 9 14.1 21.3 14.1 34v332.1c0 26.5-21.5 48-48 48h-288c-26.5 0-48-21.5-48-48v-416c0-26.5 21.5-48 48-48.1h204.1c12.7 0 24.9 5.1 33.9 14.1zM363.5 95.4v76.1h76.1zM443.5 507.5v-288h-104c-13.3 0-24-10.7-24-24v-104h-48.3v16h-32v-16h-79.7v416h288zM301.7 309.2l17.3 87.7c6.4 32.4-18.4 62.6-51.5 62.6-33.2 0-58-30.4-51.4-62.9l19.7-97.1v-32h32v32h22.1c5.8 0 10.7 4.1 11.8 9.7zM267.8 433.6c17.9 0 32.4-12.1 32.4-27 0-14.9-14.5-27-32.4-27-17.9 0-32.4 12.1-32.4 27 0 14.9 14.5 27 32.4 27zM299.8 235.5v32h-32v-32h32z" /></svg>