<svg xmlns="http://www.w3.org/2000/svg" width="100%" height="100%" viewBox="0 0 599.04 599.04"><path fill="currentColor" d="M299.5 51.5c137 0 248 111 248 248s-111 248-248 248-248-111-248-248 111-248 248-248zM299.5 499.5c110.3 0 200-89.7 200-200s-89.7-200-200-200-200 89.7-200 200 89.7 200 200 200zM251.5 251.5c0 17.7-14.3 32-32 32s-32-14.3-32-32 14.3-32 32-32 32 14.3 32 32zM379.5 219.5c17.7 0 32 14.3 32 32s-14.3 32-32 32-32-14.3-32-32 14.3-32 32-32zM299.5 331.5c35.6 0 88.8 21.3 95.8 61.2 2 11.8-9.1 21.6-20.5 18.1-31.2-9.6-59.4-15.3-75.3-15.3s-44.1 5.7-75.3 15.3c-11.5 3.4-22.5-6.3-20.5-18.1 7-39.9 60.2-61.2 95.8-61.2z" /></svg>