<svg xmlns="http://www.w3.org/2000/svg" width="100%" height="100%" viewBox="0 0 673.92 673.92"><path fill="currentColor" d="M513 81c4.1 0 7.8 2 10.1 5.4l99.9 147.2c2.9 4.4 2.6 10.1-0.7 14.2l-276 340.8c-4.8 5.9-13.8 5.9-18.6 0l-276-340.8c-3.3-4-3.6-9.8-0.7-14.2l100-147.2c2.2-3.4 6-5.4 10-5.4h352zM493.7 129h-56.8l51.7 96h68.4zM291.6 129l-51.6 96h194l-51.7-96h-90.7zM180.3 129l-63.3 96h68.4l51.7-96h-56.8zM137.3 273l119.7 160-68.3-160h-51.4zM240.2 273l96.8 243.3 96.8-243.3h-193.6zM417 433l119.6-160h-51.4z" /></svg>