<svg xmlns="http://www.w3.org/2000/svg" width="100%" height="100%" viewBox="0 0 599.04 599.04"><path fill="currentColor" d="M299.5 51.5c137 0 248 111 248 248s-111 248-248 248-248-111-248-248 111-248 248-248zM440.9 440.9c37.8-37.8 58.6-88 58.6-141.4s-20.8-103.6-58.6-141.4c-37.8-37.8-88-58.6-141.4-58.6s-103.6 20.8-141.4 58.6c-37.8 37.8-58.6 88-58.6 141.4s20.8 103.6 58.6 141.4c37.8 37.8 88 58.6 141.4 58.6s103.6-20.8 141.4-58.6zM379.5 207.5c25.7 0 55.9 16.9 59.7 42.1 1.8 11.1-11.3 18.2-19.8 10.8l-9.5-8.5c-14.8-13.2-46.2-13.2-61 0l-9.5 8.5c-8.3 7.4-21.5 0.4-19.8-10.8 4-25.2 34.2-42.1 59.9-42.1zM219.5 267.5c-17.7 0-32-14.3-32-32s14.3-32 32-32 32 14.3 32 32-14.3 32-32 32zM413.9 331.5c8.2 0 14.5 7 13.5 15-7.5 59.2-58.9 105-121.1 105h-13.6c-62.2 0-113.6-45.8-121.1-105-1-8 5.3-15 13.5-15h228.8z" /></svg>