<svg xmlns="http://www.w3.org/2000/svg" width="100%" height="100%" viewBox="0 0 599.04 599.04"><path fill="currentColor" d="M299.5 547.5c-137 0-248-111-248-248s111-248 248-248 248 111 248 248-111 248-248 248zM196.1 470.8c63.2 38.3 143.6 38.3 206.8 0l-53.4-53.4c-31.8 13.5-68.2 13.5-100 0zM379.5 299.5c0-44.1-35.9-80-80-80s-80 35.9-80 80 35.9 80 80 80 80-35.9 80-80zM470.8 402.9c38.3-63.2 38.3-143.6 0-206.8l-53.4 53.4c13.5 31.8 13.5 68.2 0 100zM402.9 128.2c-63.2-38.3-143.6-38.3-206.8 0l53.4 53.5c31.8-13.5 68.2-13.5 100 0zM128.2 196.1c-38.3 63.2-38.3 143.6 0 206.8l53.5-53.4c-13.5-31.8-13.5-68.2 0-100z" /></svg>