<svg xmlns="http://www.w3.org/2000/svg" width="100%" height="100%" viewBox="0 0 599.04 599.04"><path fill="currentColor" d="M299.5 51.5c137 0 248 111 248 248s-111 248-248 248-248-111-248-248 111-248 248-248zM299.5 499.5c110.3 0 200-89.7 200-200s-89.7-200-200-200-200 89.7-200 200 89.7 200 200 200zM387.5 195.5c39.8 0 72 32.2 72 72s-32.2 72-72 72-72-32.2-72-72 32.2-72 72-72zM387.5 307.5c22.1 0 40-17.9 40-40 0-13.6-7.3-25.1-17.7-32.3 1 2.6 1.7 5.4 1.7 8.3 0 13.3-10.7 24-24 24s-24-10.7-24-24c0-3 0.7-5.7 1.7-8.3-10.4 7.2-17.7 18.7-17.7 32.3 0 22.1 17.9 40 40 40zM283.5 267.5c0 39.8-32.2 72-72 72s-72-32.2-72-72 32.2-72 72-72 72 32.2 72 72zM171.5 267.5c0 22.1 17.9 40 40 40s40-17.9 40-40c0-13.6-7.3-25.1-17.7-32.3 1 2.6 1.7 5.4 1.7 8.3 0 13.3-10.7 24-24 24s-24-10.7-24-24c0-3 0.7-5.7 1.7-8.3-10.4 7.2-17.7 18.7-17.7 32.3zM363.5 395.5c13.2 0 24 10.8 24 24s-10.8 24-24 24h-128c-13.2 0-24-10.8-24-24s10.8-24 24-24h128z" /></svg>