<svg xmlns="http://www.w3.org/2000/svg" width="100%" height="100%" viewBox="0 0 599.04 599.04"><path fill="currentColor" d="M299.5 51.5c137 0 248 111 248 248s-111 248-248 248-248-111-248-248 111-248 248-248zM299.5 499.5c110.5 0 200-89.5 200-200 0-110.5-89.5-200-200-200-110.5 0-200 89.5-200 200 0 110.5 89.5 200 200 200zM410 417.7c4.4 8-1.4 17.8-10.5 17.8h-42.9c0 0 0 0 0 0-4.6 0-8.6-2.6-10.6-6.3l-47.5-89.3h-31.9v83.6c0 6.6-5.4 12-12 12h-38.6c-6.6 0-12-5.4-12-12v-248.3c0-6.6 5.4-12 12-12h78.7c71.3 0 101.5 32.7 101.5 85.3 0 31.6-15.2 59.3-39.5 73.1 3 4.6 0.2-0.2 53.3 96.1zM300.5 283.4c20.9 0 32.4-11.5 32.4-32.4 0-19.6-6.5-31.7-38.9-31.7h-27.4v64.1h33.9z" /></svg>