<svg xmlns="http://www.w3.org/2000/svg" width="100%" height="100%" viewBox="0 0 599.04 599.04"><path fill="currentColor" d="M299.5 51.5c137 0 248 111 248 248s-111 248-248 248-248-111-248-248 111-248 248-248zM299.5 499.5c110.3 0 200-89.7 200-200s-89.7-200-200-200-200 89.7-200 200 89.7 200 200 200zM417.3 353.1c10.2 8.5 11.6 23.6 3.1 33.8-30 36-74.1 56.6-120.9 56.6s-90.9-20.6-120.9-56.6c-8.4-10.2-7.1-25.3 3.1-33.8 10.1-8.4 25.3-7.1 33.8 3.1 20.8 25.1 51.5 39.4 84 39.4s63.2-14.4 84-39.4c8.5-10.2 23.6-11.6 33.8-3.1zM219.5 283.5c-17.7 0-32-14.3-32-32s14.3-32 32-32 32 14.3 32 32-14.3 32-32 32zM379.5 223.5c25.7 0 55.9 16.9 59.7 42.1 1.8 11.1-11.3 18.2-19.8 10.8l-9.5-8.5c-14.8-13.2-46.2-13.2-61 0l-9.5 8.5c-8.3 7.4-21.5 0.4-19.8-10.8 4-25.2 34.2-42.1 59.9-42.1z" /></svg>