<svg xmlns="http://www.w3.org/2000/svg" width="100%" height="100%" viewBox="0 0 588.8 588.8"><path fill="currentColor" d="M61.96299999999998 113.67999999999998C56.10999999999998 217.92699999999996 120.93999999999998 246.08499999999998 220.27499999999998 237.08799999999997 196.855 173.86999999999998 150.25699999999998 128.08599999999998 61.96299999999998 113.67999999999998z m474.625 0c-88.295 14.405-134.894 60.19-158.313 123.407 99.334 8.997 164.164-19.16 158.313-123.406zM93.42999999999998 321.92999999999995c20.276 35.905 40.59 66.526 60.908 91.876 96.78 28.22 194.46 26.484 293.406-1.312 19.378-25.143 38.59-55.332 57.594-90.563-121.66 108.32-286.123 103.457-411.907 0zM427.80699999999996 436.59c-84.598 20.145-168.747 21.634-252.22 1.812 85.106 90.85 170.073 89.535 252.22-1.813z" /></svg>