<svg xmlns="http://www.w3.org/2000/svg" width="100%" height="100%" viewBox="0 0 588.8 588.8"><path fill="currentColor" d="M491.4 99.55999999999997C420.7 110.64999999999998 321.09999999999997 143.29999999999998 245.7 198.39999999999998c0.4 0.2 0.8 0.5 1.2 0.7 4.8 3.1 8.8 7.3 11.5 12.4 66-47.5 153.2-78.35 219-91.15V440.2h18V112.24999999999997c-0.3-5.2-3.1-12.04-4-12.69z m-344.9 5.69c-18.66 0-35.13 18.4-35.13 42.85 0 24.5 16.47 42.9 35.13 42.9 18.7 0 35.1-18.4 35.1-42.9 0-24.45-16.4-42.85-35.1-42.85zM118.12999999999998 199.59999999999997c-16.65 42.2-23.61 86.3-28.4 126.9 24.46-0.9 48.24-2.4 70.97-4.5-1.8-14.3-2.9-28.5-3.5-42.7-8-5.9-16.2-12.8-24.39-20.1l11.99-13.4c10.9 9.7 21.5 18.4 30.9 24.5 9.3 6.2 17.6 9.5 21.9 9.8h0.1c-0.5 0 2.1-0.4 5.7-2.8 3.5-2.5 8-6.5 12.6-11.5 9.2-9.9 19.2-23.9 26.7-37.8 1.3-2.4 1.3-4.4 0.3-6.9-0.9-2.5-3.1-5.2-5.9-6.9-2.7-1.8-5.8-2.6-8.4-2.3-2.6 0.3-5.1 1.3-7.9 5.1l-26.8 35.9-42-44.3c-1.8 0.3-3.6 0.4-5.5 0.4-10.56 0-20.24-3.5-28.37-9.4zM311.7 316.9c-63.1 14.3-154.2 27.4-254.3 28.1v94.2h138.7c53.8-27.5 96.3-79.7 115.6-122.3zM102.39999999999998 455.2c-13.18 0-29.27 4.3-42.85 8.4-1.08 0.3-2.11 0.6-3.15 1V483.4c2.59-0.8 5.39-1.7 8.36-2.6 12.92-3.9 28.83-7.6 37.64-7.6 8.81 0 18.29 3.4 28.79 7.4 10.51 4 22.01 8.6 35.21 8.6s24.7-4.6 35.2-8.6c10.5-4 20-7.4 28.8-7.4s18.3 3.4 28.8 7.4 22 8.6 35.2 8.6c13.2 0 24.7-4.6 35.2-8.6 10.5-4 20-7.4 28.8-7.4s18.3 3.4 28.8 7.4 22 8.6 35.2 8.6c13.2 0 24.7-4.6 35.2-8.6 10.5-4 20-7.4 28.8-7.4s24.7 3.7 37.6 7.6c3 0.9 5.8 1.8 8.4 2.6v-18.8c-1-0.4-2-0.7-3.1-1-13.6-4.1-29.7-8.4-42.9-8.4s-24.7 4.6-35.2 8.6c-10.5 4-20 7.4-28.8 7.4s-18.3-3.4-28.8-7.4-22-8.6-35.2-8.6c-13.2 0-24.7 4.6-35.2 8.6-10.5 4-20 7.4-28.8 7.4s-18.3-3.4-28.8-7.4-22-8.6-35.2-8.6c-13.2 0-24.7 4.6-35.2 8.6-10.5 4-20 7.4-28.8 7.4s-18.3-3.4-28.8-7.4-22.02-8.6-35.2-8.6z" /></svg>