<svg xmlns="http://www.w3.org/2000/svg" width="100%" height="100%" viewBox="0 0 588.8 588.8"><path fill="currentColor" d="M57.42999999999998 58.27499999999998v19L114.05699999999997 133.89999999999998l-48.47 28.125 86.658 12.47-46.938 27.25 88.063 12.686-47.69 27.69 89.5 12.905 3.407 3.406-48.468 28.095 88.124 12.688-47.75 27.718 89.47 12.876 0.06 0.063 0.032-0.032 23.125 3.312-28.718 28.72c31.304 19.57 71.2 39.18 100.594 46.874-7.61-31.554-26.336-68.222-46.906-100.563l-15.614 15.208c-16.25-17.246-0.464-0.61-19.855-20.863l-14.843-103.22-27.718 47.75-12.69-88.124-30.436 52.5-13.97-96.936-27.718 47.75L192.61999999999998 84.11999999999998l-32.44 55.905-81.75-81.75zM428.87 223.86999999999998l-8.064 36.81c35.057 67.22 63.472 144.408 63.47 215.47v9.344h-9.345c-62.652 0-144.955-28.477-211.78-61.906l-43.5 9.53c89.616 51.746 220.718 102.597 311.813 102.594 0.005-102.37-48.425-218.022-102.594-311.843z m-14.44 65.905l-11.155 50.906c16.02 29.348 28.89 60.25 32.906 88.72l1.75 12.313-12.31-1.75c-25.628-3.615-57.698-16.82-87.658-32.75l-44.875 9.812c57.178 26.034 122.48 46.993 172.22 49.47-2.193-56.77-23.28-119.44-50.876-176.72z" /></svg>