<svg xmlns="http://www.w3.org/2000/svg" width="100%" height="100%" viewBox="0 0 588.8 588.8"><path fill="currentColor" d="M77.95699999999998 57.39999999999998L361.84 311.4h149.003L226.95999999999998 57.39999999999998H77.95799999999997zM63.39999999999998 68.52999999999997v25.847L349.4 350.27V324.424L63.39999999999998 68.52999999999997z m64 107.263v34.584L413.4 466.27v-84.843l-64-13.002L127.39999999999998 175.79299999999998zM115.95499999999998 224.28999999999996l-42.9 10.723 287.79 257.498 42.9-10.723L115.95599999999997 224.28999999999996zM63.39999999999998 250.52999999999997v23.847L349.4 530.27v-23.847L63.39999999999998 250.52999999999997zM367.4 329.4v21.973l64 16v126.054l-64 16V531.4h158v-21.973l-64-16V367.373l64-16V329.4H367.4z m112 135.865v14.108l21.88 5.47L479.4 465.265z" /></svg>