<svg xmlns="http://www.w3.org/2000/svg" width="100%" height="100%" viewBox="0 0 588.8 588.8"><path fill="currentColor" d="M212.02499999999998 54.119999999999976l16.156 53.81-94.374-48.905L196.86999999999998 136.64999999999998 83.58699999999997 155.80599999999998l113.28 19.625-59.718 75.19 65.03-33.407-1.78 58.843 19.844-37.344v-64.218l0.75-1.75 31.906-74.75-40.875-43.875z m146.25 0L321.37 93.74299999999998l33.342 79.03 0.75 1.75V244.24599999999998l15.5 29.187-1.625-54.436 65.532 34.062-63.064-77.625 113.28-19.624-113.28-19.156 63.063-77.625-92.44 47.906 15.845-52.81zM287.67999999999995 61.95999999999998l-49.186 114.5v153.5L273.42999999999995 364.9c2.916-65.435 7.976-128.936 15.25-187.72 7.606 61.433 12.744 128.775 15.532 198l32.625-32.624V176.462l-49.156-114.5zM71.52599999999998 245.24499999999998l37.344 94.062 193.905 193.938h30.813c-66.34-68.503-128.483-139.002-180.625-205.875 74.705 58.246 155.104 130.333 231.312 205.874h31.063L165.21299999999997 283.08799999999997l-93.688-37.844z m444.844 0l-93.626 37.812L307.15 398.65l18.156 18.125c36.278-32.102 72.315-62.265 107.125-89.406-27.302 35.015-57.36 71.02-89.31 107.217L363.46 454.9l115.532-115.53 37.375-94.126zM224.45999999999998 481.33799999999997l-51.906 51.906h28.594c12.596-12.486 25.314-24.875 38.094-37.125l-14.78-14.783z m39.375 39.406c-3.995 4.173-8.003 8.34-12.03 12.5h24.53l-12.5-12.5z" /></svg>