<svg xmlns="http://www.w3.org/2000/svg" width="100%" height="100%" viewBox="0 0 588.8 588.8"><path fill="currentColor" d="M294.4 54.39999999999998c-39.764 0-72 32.236-72 72s32.236 72 72 72 72-32.236 72-72-32.236-72-72-72z m0 48c13.255 0 24 10.745 24 24s-10.745 24-24 24-24-10.745-24-24 10.745-24 24-24z m-147.03 36c-24.314 0.545-47.766 13.4-60.814 36-19.882 34.437-8.093 78.462 26.344 98.344 34.437 19.882 78.493 8.093 98.375-26.344 19.882-34.437 8.062-78.462-26.375-98.344-11.838-6.834-24.796-9.94-37.53-9.656z m290.592 0c-11.606 0.3-23.3 3.443-34.062 9.656-34.437 19.882-46.257 63.907-26.375 98.344 19.882 34.437 63.938 46.226 98.375 26.344 34.437-19.882 46.226-63.907 26.344-98.344-13.67-23.675-38.748-36.663-64.28-36zM148.39999999999998 186.39999999999998c4.245-0.095 8.554 0.94 12.5 3.22 11.48 6.626 15.41 21.3 8.78 32.78-6.626 11.48-21.3 15.41-32.78 8.78-11.48-6.626-15.41-21.3-8.78-32.78 4.348-7.533 12.176-11.818 20.28-12z m290.844 0c8.51-0.22 16.88 4.108 21.437 12 6.63 11.48 2.7 26.154-8.78 32.78-11.48 6.63-26.154 2.7-32.78-8.78-6.63-11.48-2.7-26.154 8.78-32.78 3.587-2.072 7.475-3.12 11.344-3.22z m-143.438 60.03A48 48 0 0 0 246.39999999999998 294.4a48 48 0 0 0 96 0 48 48 0 0 0-46.594-47.97zM146.962 306.4c-11.606 0.3-23.3 3.443-34.062 9.656C78.46299999999998 335.938 66.67399999999998 379.96299999999997 86.55599999999998 414.4c19.882 34.437 63.907 46.226 98.344 26.344 34.437-19.882 46.257-63.907 26.375-98.344-13.67-23.675-38.78-36.663-64.313-36z m291.375 0c-24.312 0.545-47.764 13.4-60.812 36-19.882 34.437-8.062 78.462 26.375 98.344 34.437 19.882 78.462 8.093 98.344-26.344 19.882-34.437 8.093-78.462-26.344-98.344-11.838-6.834-24.827-9.94-37.563-9.656z m-290.062 48c8.51-0.22 16.85 4.108 21.406 12 6.63 11.48 2.7 26.154-8.78 32.78-11.48 6.63-26.154 2.7-32.78-8.78-6.63-11.48-2.7-26.154 8.78-32.78 3.587-2.072 7.506-3.12 11.375-3.22z m291.094 0c4.244-0.095 8.584 0.94 12.53 3.22 11.48 6.626 15.41 21.3 8.78 32.78-6.626 11.48-21.3 15.41-32.78 8.78-11.48-6.626-15.41-21.3-8.78-32.78 4.348-7.533 12.145-11.818 20.25-12zM294.4 390.4c-39.764 0-72 32.236-72 72s32.236 72 72 72 72-32.236 72-72-32.236-72-72-72z m0 48c13.255 0 24 10.745 24 24s-10.745 24-24 24-24-10.745-24-24 10.745-24 24-24z" /></svg>