<svg xmlns="http://www.w3.org/2000/svg" width="100%" height="100%" viewBox="0 0 588.8 588.8"><path fill="currentColor" d="M136.55599999999998 61.055999999999976V476.92999999999995H118.11999999999998l30.53 58.064 30.53-58.063h-17.218v-63.467H190.89999999999998v-36.344h-28.938V307.46H190.89999999999998V271.15h-28.938v-69.625H190.89999999999998V165.17999999999998h-28.938V97.24499999999998H190.89999999999998V61.055999999999976H136.55599999999998z m73.03 0V476.92999999999995h-15.624l30.532 58.064 30.53-58.063h-17.718v-63.467h26.625v-36.344h-26.624V307.46h26.625V271.15h-26.624v-69.625h26.625V165.17999999999998h-26.624V97.24499999999998h26.625V61.055999999999976h-54.343z m73.033 0V476.92999999999995H268.4l30.53 58.064 30.533-58.063H310.9v-63.467h29.594v-36.344H310.9V307.46h29.594V271.15H310.9v-69.625h29.594V165.17999999999998H310.9V97.24499999999998h29.594V61.055999999999976H282.62z m76.56 0V476.92999999999995h-15.56l30.53 58.064 30.563-58.063h-17.907v-63.467h27.25v-36.344h-27.25V307.46h27.25V271.15h-27.25v-69.625h27.25V165.17999999999998h-27.25V97.24499999999998h27.25V61.055999999999976H359.17999999999995z m73.564 0V476.92999999999995h-14.688l30.563 58.064 30.53-58.063H460.4V61.056999999999974h-27.655z" /></svg>