<svg xmlns="http://www.w3.org/2000/svg" width="100%" height="100%" viewBox="0 0 588.8 588.8"><path fill="currentColor" d="M533.545 53.85099999999998l-178.215 0.205s7.918 25.215 15.652 35.63c13.155 17.712 67.295 2.752 59.79 35.714h55.4c6.995-6.98 14.212-15.862 15.064-23.44 1.035-9.207-15.175-16.126-12.29-24.931 5.22-15.92 44.599-23.178 44.599-23.178zM294.4 66.71099999999998L68.85499999999998 277.21999999999997l32.666 21.777L294.4 122.18999999999998l192.879 176.807 32.666-21.778L294.4 66.70999999999998zM431.4 143.39999999999998v26.555l46 42.933V143.39999999999998h-46z m-137 3.209L247.718 189.39999999999998h93.364L294.4 146.60899999999998zM228.08199999999997 207.39999999999998l-32.727 30H317.4v-30h-89.318zM335.4 207.39999999999998v30h58.045l-32.727-30H335.4z m-159.682 48l-34.564 31.684 64.246-0.288V255.39999999999998h-29.682zM223.39999999999998 255.39999999999998v31.316l222.76-0.994L413.082 255.39999999999998H223.39999999999998z m242.303 48.236L121.41999999999997 305.173l-18.141 16.63-0.932-0.622A31.64 31.64 0 0 1 99.13699999999997 333.4H489.66299999999995a31.64 31.64 0 0 1-3.211-12.219l-0.932 0.621-19.818-18.166zM70.39999999999998 305.4c-7.839 0-14 6.161-14 14s6.161 14 14 14 14-6.161 14-14-6.161-14-14-14z m448 0c-7.839 0-14 6.161-14 14s6.161 14 14 14 14-6.161 14-14-6.161-14-14-14zM98.05599999999998 351.4a31.659 31.659 0 0 1 1.08 30H141.39999999999998v-30H98.05599999999998zM159.39999999999998 351.4v78h46v-78h-46z m64 0v78h46v-78h-46z m64 0v30h30v-30h-30z m48 0v174h94V351.4h-94z m112 0v30h42.264a31.659 31.659 0 0 1 1.08-30H447.4z m-377 2c-7.839 0-14 6.161-14 14s6.161 14 14 14 14-6.161 14-14-6.161-14-14-14z m448 0c-7.839 0-14 6.161-14 14s6.161 14 14 14 14-6.161 14-14-6.161-14-14-14zM98.05599999999998 399.4a31.659 31.659 0 0 1 1.08 30H141.39999999999998v-30H98.05599999999998zM287.4 399.4v30h30v-30h-30z m160 0v30h42.264a31.659 31.659 0 0 1 1.08-30H447.4z m-377 2c-7.839 0-14 6.161-14 14s6.161 14 14 14 14-6.161 14-14-6.161-14-14-14z m448 0c-7.839 0-14 6.161-14 14s6.161 14 14 14 14-6.161 14-14-6.161-14-14-14z m-128 28h22v18h-22v-18zM98.05599999999998 447.4a31.659 31.659 0 0 1 1.08 30H317.4v-30H98.05599999999998zM447.4 447.4v30h42.264a31.659 31.659 0 0 1 1.08-30H447.4z m-377 2c-7.839 0-14 6.161-14 14s6.161 14 14 14 14-6.161 14-14-6.161-14-14-14z m448 0c-7.839 0-14 6.161-14 14s6.161 14 14 14 14-6.161 14-14-6.161-14-14-14zM70.39999999999998 495.4c-7.839 0-14 6.161-14 14s6.161 14 14 14 14-6.161 14-14-6.161-14-14-14z m28.736 0a31.659 31.659 0 0 1-1.08 30H125.39999999999998v-30H99.13599999999997zM143.39999999999998 495.4v30h174v-30H143.39999999999998z m304 0v30h43.344a31.659 31.659 0 0 1-1.08-30H447.4z m71 0c-7.839 0-14 6.161-14 14s6.161 14 14 14 14-6.161 14-14-6.161-14-14-14z" /></svg>