<svg xmlns="http://www.w3.org/2000/svg" width="100%" height="100%" viewBox="0 0 588.8 588.8"><path fill="currentColor" d="M294.4 61.77999999999997L128.24399999999997 128.24499999999998l-64.9 162.254 14.85 5.943c20.312-50.766 40.62-101.535 60.93-152.304l1.432-3.58L294.4 79.01599999999998l153.844 61.54 1.43 3.58 60.93 152.305 14.853-5.942-64.9-162.254C405.16999999999996 106.08999999999997 349.786 83.93399999999997 294.4 61.77999999999997z m0 36.624l-139.996 55.998L111.19999999999997 262.4h0.2v263h78V367.4h-39v-18h297v176h30V262.4h0.2c-14.402-36-28.802-72-43.204-107.998L294.4 98.40399999999997zM189.39999999999998 173.39999999999998h210v114H189.39999999999998V173.39999999999998z m23.563 18L237.39999999999998 240.27299999999997V191.39999999999998h-24.438zM351.4 191.39999999999998v48.873L375.83799999999997 191.39999999999998H351.4z m-144 29.127V269.4h24.438L207.39999999999998 220.527z m174 0L356.962 269.4H381.4v-48.873z m-98.73 18.69c-1.207-0.02-2.31 0.02-3.288 0.128-2.823 0.31-10.76 3.708-16.86 7.3-2.796 1.645-5.23 3.22-7.122 4.484V269.4h78v-16.97c-4.193-1.675-10.334-4.02-17.578-6.368-11.206-3.63-24.71-6.71-33.152-6.846zM198.39999999999998 301.4h192v18H198.39999999999998v-18z m15.16 66L246.39999999999998 427.60499999999996 279.24 367.4h-65.68z m144 0L390.4 427.60499999999996 423.23999999999995 367.4h-65.68zM207.39999999999998 393.695v105.41L236.14799999999997 446.4 207.39999999999998 393.695z m78 0L256.652 446.4 285.4 499.10499999999996v-105.41z m66 0v105.41L380.14799999999997 446.4 351.4 393.695z m78 0L400.652 446.4 429.4 499.10499999999996v-105.41z m-183 71.5L213.55999999999997 525.4h65.68L246.39999999999998 465.195z m144 0L357.56 525.4h65.68L390.4 465.195z" /></svg>