<svg xmlns="http://www.w3.org/2000/svg" width="100%" height="100%" viewBox="0 0 588.8 588.8"><path fill="currentColor" d="M112.89999999999998 74.39999999999998A38.5 38.5 0 0 0 74.39999999999998 112.89999999999998v363A38.5 38.5 0 0 0 112.89999999999998 514.4h363a38.5 38.5 0 0 0 38.5-38.5v-363A38.5 38.5 0 0 0 475.9 74.39999999999998h-363z m316.97 36.03A50 50 0 0 1 478.4 160.39999999999998a50 50 0 0 1-100 0 50 50 0 0 1 51.47-49.97zM294.4 244.39999999999998a50 50 0 0 1 0 100 50 50 0 0 1 0-100zM161.86999999999998 378.42999999999995A50 50 0 0 1 210.39999999999998 428.4a50 50 0 0 1-100 0 50 50 0 0 1 51.47-49.97z" /></svg>