<svg xmlns="http://www.w3.org/2000/svg" width="100%" height="100%" viewBox="0 0 588.8 588.8"><path fill="currentColor" d="M125.39999999999998 70.39999999999998v71h18V70.39999999999998H125.39999999999998z m160 0v345h18V70.39999999999998h-18z m160 0v167h18V70.39999999999998h-18zM88.39999999999998 159.39999999999998c-5.14 0-9 3.9-9 9v28c0 5.1 3.86 9 9 9h92c5.1 0 9-3.9 9-9v-28c0-5.1-3.9-9-9-9H88.39999999999998z m37 64v295h18V223.39999999999998H125.39999999999998z m283 32c-5.1 0-9 3.9-9 9v28c0 5.1 3.9 9 9 9h92c5.1 0 9-3.9 9-9v-28c0-5.1-3.9-9-9-9h-92z m37 64v199h18V319.4h-18zM248.39999999999998 433.4c-5.1 0-9 3.9-9 9v28c0 5.1 3.9 9 9 9h92c5.1 0 9-3.9 9-9v-28c0-5.1-3.9-9-9-9h-92z m37 64v21h18v-21h-18z" /></svg>