<svg xmlns="http://www.w3.org/2000/svg" width="100%" height="100%" viewBox="0 0 588.8 588.8"><path fill="currentColor" d="M365.59999999999997 58.549999999999976l17.6 3.7c-2.4 11.35-7.4 23.1-14.6 34.5a96 72.02 0 0 0-15.1-11.07c6.1-9.48 10.4-18.82 12.1-27.13z m-142.4 0c1.7 8.33 6 17.68 12.1 27.19a96 72.02 0 0 0-15.1 11.02c-7.2-11.4-12.2-23.16-14.6-34.51zM294.4 93.39999999999998c19 0 36.2 9 49 17.51 12.8 8.51 21.4 17.13 21.4 17.13l-12.8 12.76s-7.4-7.42-18.6-14.91C322.2 118.39999999999998 307.4 111.39999999999998 294.4 111.39999999999998s-27.8 7-39 14.49-18.6 14.91-18.6 14.91l-12.8-12.76s8.6-8.62 21.4-17.13C258.2 102.39999999999998 275.4 93.39999999999998 294.4 93.39999999999998z m217 40.83c0.5 24.17-12.2 43.17-28.9 57.07-4.5 3.7-9.3 7.1-14.2 10.2-2.9-5.3-5.9-10.5-9.2-15.5 4.2-2.7 8.2-5.6 11.9-8.6 14.1-11.7 22.8-24.9 22.4-42.83z m-433.97 0l18 0.34c-0.3 17.93 8.3 31.13 22.5 42.83 3.6 3 7.6 5.9 11.8 8.6-3.2 5-6.3 10.2-9.2 15.5-4.9-3.1-9.6-6.5-14.1-10.2-16.8-13.9-29.5-32.9-29-57.07z m312.87 6.67C442.5 175.79999999999998 477.4 238.49999999999997 477.4 310.4c0 47.5-15.2 90.9-40.5 125a40 40 0 0 0-38.5-29 40 40 0 0 0-40 40 40 40 0 0 0 25.9 37.4c-11.1 6.8-22.9 12.4-35.3 16.6-23.4-29.3-35.8-68.3-45.6-106V214.09999999999997a96 72.02 0 0 0 87-71.7 96 72.02 0 0 0-0.1-1.5z m-191.8 0a96 72.02 0 0 0-0.1 1.5 96 72.02 0 0 0 87 71.6V394.4c-9.8 37.7-22.2 76.7-45.6 106-12.4-4.2-24.2-9.8-35.3-16.6A40 40 0 0 0 230.39999999999998 446.4a40 40 0 0 0-40-40 40 40 0 0 0-38.4 29.1C126.62999999999998 401.4 111.42999999999998 357.9 111.42999999999998 310.4c0-71.9 34.87-134.6 87.07-169.5zM358.4 218.39999999999998a16 16 0 0 0-16 16 16 16 0 0 0 16 16 16 16 0 0 0 16-16 16 16 0 0 0-16-16z m-128 0a16 16 0 0 0-16 16 16 16 0 0 0 16 16 16 16 0 0 0 16-16 16 16 0 0 0-16-16z m200 28a24 24 0 0 0-24 24 24 24 0 0 0 24 24 24 24 0 0 0 24-24 24 24 0 0 0-24-24z m-272 0a24 24 0 0 0-23.97 24A24 24 0 0 0 158.39999999999998 294.4a24 24 0 0 0 24-24 24 24 0 0 0-24-24z m365.6 39.3l4.9 17.4-33.5 9.6V310.4c0-5.5-0.2-11-0.5-16.4z m-459.07 0l29.1 8.3c-0.4 5.4-0.6 10.9-0.6 16.4v2.3l-33.5-9.6zM350.4 310.4a32 32 0 0 0-32 32 32 32 0 0 0 32 32 32 32 0 0 0 32-32 32 32 0 0 0-32-32z m-112 0a32 32 0 0 0-32 32 32 32 0 0 0 32 32 32 32 0 0 0 32-32 32 32 0 0 0-32-32z m216.4 130.8c0.6 0.7 1.1 1.4 1.7 2.1 16.5 19.1 35.8 31.6 62.8 34.1l-1.7 18c-31.5-3.1-55.5-18.4-74.1-39.6 4-4.7 7.7-9.6 11.3-14.6z m-320.67 0c3.5 5 7.17 9.9 11.17 14.6-18.57 21.2-42.57 36.5-73.97 39.6l-1.8-18c27-2.5 46.3-15 62.8-34.1z" /></svg>