<svg xmlns="http://www.w3.org/2000/svg" width="100%" height="100%" viewBox="0 0 588.8 588.8"><path fill="currentColor" d="M271.4 79.39999999999998v30h46V79.39999999999998h-46z m-9 48c-29.8 0-77.4 11.7-116.3 29.2-19.46 8.8-36.82 19-48.81 29.4-7.86 6.8-12.84 13.4-15.52 19.4H507c-2.6-6-7.6-12.6-15.5-19.4-12-10.4-29.3-20.6-48.8-29.4C403.79999999999995 139.09999999999997 356.2 127.39999999999998 326.4 127.39999999999998h-64zM111.19999999999997 240.99999999999997l-48 64 14.4 10.8 48-64-14.4-10.8z m299.7 0l-14.4 10.8 48 64 14.4-10.8-48-64z m66.7 0l-14.4 10.8 48 64 14.4-10.8-48-64zM169.09999999999997 242.39999999999998l-32.05 64 16.15 8 32-64-16.1-8z m57.9 1.8l-16 64 17.4 4.4 16-64-17.4-4.4z m134.8 0l-17.4 4.4 16 64 17.4-4.4-16-64zM285.4 246.39999999999998v64h18v-64h-18zM134.39999999999998 358.4c-28 0-56 53.3-56 106.6 0 26.7 28 53.3 56 53.3s56-26.6 56-53.3c0-53.3-28-106.6-56-106.6z m320 0c-28 0-56 53.3-56 106.6 0 26.7 28 53.3 56 53.3s56-26.6 56-53.3c0-53.3-28-106.6-56-106.6z m-160 0.1c-28 0-56 53.3-56 106.6 0 26.7 28 53.3 56 53.3s56-26.6 56-53.3c0-53.3-28-106.6-56-106.6z" /></svg>