<svg xmlns="http://www.w3.org/2000/svg" width="100%" height="100%" viewBox="0 0 588.8 588.8"><path fill="currentColor" d="M224.83799999999997 58.95999999999998l-13.184 26.365c6.8-0.26 13.626-0.488 20.47-0.686l3.84-7.68h116.874l3.77 7.54c6.838 0.187 13.658 0.408 20.456 0.66l-13.102-26.2H224.837z m69.56 42.742c-45.757 0.056-91.452 1.566-135.38 4.363-3.24 50.58-8.4 100.987-0.786 145.824 89.297 12.395 180.102 12.985 272.764-0.054 7.055-30.988 5.117-84.68-1.04-145.89-43.974-2.893-89.73-4.3-135.558-4.244z m153.783 5.54c6.42 64.12 9.113 119.825-1.135 155.22l-1.61 5.56-5.726 0.842c-98.8 14.528-195.613 13.81-290.605 0.002l-6.285-0.914-1.246-6.23c-9.89-49.49-4.085-102.785-0.664-154.42-4.89 0.354-9.765 0.72-14.602 1.107-8.596 58.568-9.39 116.957-0.05 175.292 110.24 12.088 222.275 12.205 336.203-0.01 8.502-57.83 8.29-116.25-0.017-175.313-4.725-0.4-9.485-0.776-14.262-1.14zM294.366 130.7c32.526-0.025 65.067 2.746 97.574 8.39l7.46 1.295v7.572c0 15.554 1.683 35.105-12.69 50.25-9.912 10.444-25.655 17.337-51.31 20.585v18.164h-82v-18.452c-23.992-3.37-39.352-10.175-49.363-20.185C189.20699999999997 183.49299999999997 189.39999999999998 163.95999999999998 189.39999999999998 147.95999999999998v-7.594l7.484-1.278c32.444-5.54 64.955-8.362 97.48-8.386z m0.012 17.994c-28.96 0.022-57.913 2.444-86.858 6.996 0.265 12.28 1.635 22.296 9.243 29.904 5.914 5.914 16.952 11.416 36.637 14.582v-29.22h82v29.51c21.367-3.115 32.66-8.755 38.254-14.65 7.033-7.41 7.696-17.502 7.73-30.124-29-4.63-58.006-7.02-87.007-6.998zM271.4 188.95999999999998v30h46v-30h-46z m209.674 92.42c-0.503 3.625-1.042 7.25-1.61 10.87 0.214 2.352 0.42 4.706 0.63 7.06L509.4 328.613v-22.24l-28.326-24.995z m-373.485 0.12L79.39999999999998 306.373v22.24l29.318-29.318c0.205-2.327 0.406-4.655 0.616-6.982-0.618-3.605-1.202-7.21-1.745-10.813z m354.634 20.397c-10.29 1.09-20.564 2.076-30.824 2.967v74.095h16v66h-16v80.615c10.318-0.633 20.63-1.313 30.928-2.082 9.445-74.01 6.478-147.698-0.104-221.596z m-335.576 0.03C120.12499999999997 376.48999999999995 116.97999999999998 450.5 126.45999999999998 523.5c10.324 0.79 20.638 1.504 30.94 2.145V444.96h-16v-66h16v-74.024c-10.266-0.902-20.517-1.903-30.752-3.01z m286.752 4.4c-10.014 0.76-20.014 1.424-30 1.992v70.64h30v-72.632z m-238 0.085v72.547h30v-70.55c-10.015-0.568-20.014-1.237-30-1.997z m190 2.825c-47.65 2.173-94.984 2.19-142 0.078v19.314c23.95-5.165 47.8-7.652 71.516-7.59 23.638 0.06 47.145 2.654 70.484 7.626v-19.43zM106.44999999999997 327.02L79.39999999999998 354.07v56.89h23.06c0.376-27.987 1.88-55.975 3.99-83.94z m375.948 0.047c2.12 27.872 3.61 55.83 3.957 83.892H509.4v-56.89l-27.002-27.003z m-187.52 11.95c-23.68-0.063-47.487 2.577-71.478 8.052v31.89h16v18.443c17.033 5.346 31.73 8.493 46 9.426v-2.87h18v2.868c14.27-0.932 28.967-4.08 46-9.425V378.96h16v-31.866c-23.42-5.267-46.907-8.016-70.523-8.078zM159.39999999999998 396.95799999999997v30h22v-23h18v23h22v-30h-62z m208 0v30h22v-23h18v23h22v-30h-62zM239.39999999999998 416.2v28.76h-16v15.857c48.528 10.865 95.713 10.664 142 0.045V444.96h-16V416.2c-16.332 4.747-31.283 7.52-46 8.326v11.433h-18v-11.434c-14.717-0.806-29.668-3.58-46-8.326zM79.39999999999998 428.96v14h23.14c-0.09-4.667-0.143-9.334-0.163-14H79.39999999999998z m407.012 0c-0.027 4.663-0.083 9.33-0.18 14H509.4v-14h-22.988zM175.39999999999998 444.96v19.798c6.137 7.214 11.222 9.77 14.934 9.844 3.734 0.075 8.697-2.122 15.066-9.79V444.96h-6v7h-18v-7h-6z m208 0v19.798c6.137 7.214 11.222 9.77 14.934 9.844 3.734 0.075 8.697-2.122 15.066-9.79V444.96h-6v7h-18v-7h-6z m-304 16v35.154c5.596 5.51 8.677 8.25 11.846 9.306 2.454 0.818 7.713 1.15 15.045 1.317-1.544-15.25-2.586-30.51-3.204-45.778H79.39999999999998z m406.27 0c-0.628 15.224-1.674 30.483-3.21 45.78 7.358-0.168 12.635-0.5 15.094-1.32 3.17-1.056 6.25-3.795 11.846-9.306V460.96h-23.73zM223.39999999999998 479.24199999999996v49.498c47.55 1.51 94.877 1.446 142-0.074V479.29999999999995c-46.316 10.03-93.74 10.185-142-0.057z m-48 9.123v38.318c10.01 0.54 20.01 1.008 30 1.408v-39.678c-4.86 2.786-10.01 4.293-15.43 4.184-5.192-0.104-10.036-1.624-14.57-4.232z m208 0v39.654c10.01-0.403 20.01-0.878 30-1.412v-38.194c-4.86 2.786-10.01 4.293-15.43 4.184-5.192-0.104-10.036-1.624-14.57-4.232z" /></svg>