<svg xmlns="http://www.w3.org/2000/svg" width="100%" height="100%" viewBox="0 0 588.8 588.8"><path fill="currentColor" d="M60.80799999999998 56.78999999999998v60.587S236.58999999999997 274.56499999999994 355.904 372.435c-9.2 3.815-19.898 5.503-31.102 5.277 52.274 39.08 103.82 79.553 163.178 105.01-28.328-60.655-63.28-112.895-103.516-167.015 1.993 14.567 0.067 26.324-4.67 35.523-76.207-91.106-195.03-202.617-296.402-294.44H60.80799999999998z m121.678 0C289.65 142.85999999999996 395.914 227.902 467.488 323.09999999999997c-5.74 10.573-18.106 14.794-31.537 11.68l101.62 115.052c-7.606-173.11-135.933-294.98-266.897-393.043h-88.187zM61.00999999999998 209.79999999999998v0.004-0.004z m0 0.004v93.44C193.30499999999998 418.74699999999996 326.507 513.65 463.4 536.8499999999999L346.59299999999996 428.22499999999997c0.88 12.204-1.625 22.48-10.51 22.778-98.07-71.302-191.387-152.64-275.072-241.198z" /></svg>