<svg xmlns="http://www.w3.org/2000/svg" width="100%" height="100%" viewBox="0 0 588.8 588.8"><path fill="currentColor" d="M230.85899999999998 92.89599999999999C173.38599999999997 104.05199999999998 127.08699999999997 132.82899999999998 85.36499999999998 168.14799999999997c44.068-4.467 98.006-7.504 139.176-9.125 24.06 6.836 50.74 12.885 69.859 12.885 19.118 0 45.8-6.049 69.86-12.885 41.169 1.62 95.107 4.658 139.175 9.125-40.822-32.197-91.774-71.06-145.494-75.252C333.22299999999996 96.54999999999998 312.436 111.39499999999998 294.4 125.26999999999998c-15.453-11.352-45.084-32.691-63.541-32.375z m1.943 85.683c-10.738 2.975-21.867 14.782-25.91 26.307-14.68 41.848 0.074 90.264 16.045 138.176 14.478 43.434 43.444 63.094 71.463 63.094 28.02 0 56.985-19.66 71.463-63.094 15.97-47.912 30.724-96.328 16.045-138.176-4.043-11.525-15.172-23.332-25.91-26.307-20.011-1.844-35.531 12.244-53.133 15.555L294.4 355.90799999999996l-8.465-161.774c-16.096-2.716-39.797-18.767-53.133-15.555zM77.89399999999998 190.45999999999998c28.202 34.32 68.937 69.949 107.43 83.407-1.908-28.008-3.311-54.863 5.363-76.983-32.671-1.463-78.044-3.6-112.793-6.424z m433.012 0c-34.75 2.825-80.122 4.961-112.793 6.424 8.268 24.764 8.744 55.255 5.363 76.983 44.215-19.913 79.145-47.797 107.43-83.407zM214.39999999999998 385.90799999999996s-33.004 17.415-37.855 33.568c-2.17 7.224-0.677 18.086 5.855 21.857 6.532 3.772 16.684-0.366 21.855-5.857C215.81799999999998 423.198 214.39999999999998 385.90799999999996 214.39999999999998 385.90799999999996z m160 0s-1.418 37.29 10.145 49.568c5.17 5.49 15.323 9.629 21.855 5.857 6.532-3.77 8.025-14.633 5.855-21.857-4.85-16.153-37.855-33.568-37.855-33.568z m-80 46s-19.875 31.585-16 48c1.733 7.34 8.458 16 16 16s14.267-8.66 16-16c3.875-16.415-16-48-16-48z" /></svg>