<svg xmlns="http://www.w3.org/2000/svg" width="100%" height="100%" viewBox="0 0 588.8 588.8"><path fill="currentColor" d="M57.17999999999998 57.89999999999998v79.656c44.684 5.582 81.517 24.966 116.657 47.156l-24.75 20.063L250.86999999999998 256.67999999999995 222.92999999999998 144.89999999999998l-25.905 21c-20.225-40.01-42.778-77.73-72.75-108H57.17999999999998z m277.376 0c-15.624 28.765-29.207 58.126-41.78 88.156l-30.19-6.406 25.94 112.25 67.06-92.5-29.592-6.28c33.29-34.747 67.597-67.793 108.062-95.22h-99.5z m197.5 93.844c-37.988 2.482-72.04 19.677-105.03 40.906l-12.47-32.53-80.062 82.843 114.094 5.937-13.25-34.563c32.24-0.934 64.478 1.827 96.718 21.375v-83.968z m-194.03 128.03c-5.28 0.12-10.21 2.416-16.938 9.595l-6.563 6.968-6.813-6.72c-7.387-7.28-13.216-9.29-19.125-9.03-5.908 0.26-12.855 3.367-20.625 9.656l-6.218 5.03-5.906-5.374c-8.9-8.052-16.485-10.438-23.75-10.063-5.288 0.274-10.775 2.266-16.25 5.75l40.968 73.688c15.454 9.452 47.033 13.007 68.75 2.063l39.594-73.344c-7.51-3.062-14.26-6.202-20.094-7.406-2.112-0.437-4.072-0.756-5.97-0.813-0.354-0.01-0.71-0.008-1.06 0z m-89.97 96.19c-18.035 12.742-32.516 34.718-38.125 66.905-5.435 31.196 3.128 52.265 18.282 66.624 15.155 14.36 37.902 21.737 61 21.437 23.1-0.3 46.136-8.31 61.625-22.936 15.49-14.627 24.25-35.426 19.282-65.188-5.137-30.757-18.4-52.148-35.19-65.094-28.482 15.056-64.094 11.856-86.874-1.75z" /></svg>