<svg xmlns="http://www.w3.org/2000/svg" width="100%" height="100%" viewBox="0 0 588.8 588.8"><path fill="currentColor" d="M293.37 73.14999999999998c-30.48-0.167-59.02 22.12-79.532 62.156-0.075 0.146-0.176 0.26-0.25 0.406L81.46299999999998 365.183l-0.22 0.343C56.89999999999998 403.813 51.77699999999998 439.91499999999996 66.86999999999998 466.42999999999995c15.08 26.498 48.627 40.126 93.5 37.908H425.46299999999997c44.887 2.227 78.445-11.404 93.53-37.907 15.09-26.51 9.956-62.595-14.375-100.874l-0.22-0.375L373.67999999999995 136.46399999999997c-0.06-0.12-0.124-0.225-0.186-0.344-20.948-40.263-49.626-62.803-80.125-62.97z m0.06 18.844c13.576 0.13 26.453 6.93 38.126 18.343 11.606 11.347 22.554 27.453 33.406 48.344 0.063 0.122 0.125 0.224 0.188 0.345l115.22 201.563c0.033 0.053 0.058 0.102 0.092 0.156l0.125 0.22c12.92 20.274 21.395 38.06 25.282 53.967 3.91 16.01 3.063 30.648-3.845 42.408-6.908 11.76-19.222 19.533-34.78 23.906-15.444 4.34-34.508 5.656-57.408 4.5H176.02499999999998c-24.845 1.258-44.73-0.32-60.405-5.125-15.78-4.84-27.68-13.45-33.72-25.69-6.04-12.237-5.862-26.797-1.5-42.436 4.333-15.535 12.815-32.608 24.875-51.53l0.22-0.377L221.962 158.39999999999998c0.08-0.157 0.17-0.28 0.25-0.438C232.90999999999997 137.04399999999998 243.71999999999997 120.99999999999997 255.27499999999998 109.77599999999998c11.642-11.307 24.58-17.913 38.156-17.78z m47.657 62.093l-28.53 224.032h-41.844L242.83799999999997 158.89999999999998c-1.404 2.556-2.81 5.205-4.22 7.97l-0.093 0.218-0.125 0.218-116.938 202.97-0.093 0.187-0.126 0.187C109.67999999999998 388.746 101.99799999999998 404.626 98.39999999999998 417.525c-3.598 12.9-3.108 22.322 0.25 29.125 3.358 6.803 9.925 12.28 22.47 16.125 12.542 3.845 30.67 5.547 54.405 4.313l0.25-0.032h234.313l0.25 0.03c21.85 1.138 39.308-0.28 51.875-3.81 12.566-3.533 19.822-8.827 23.687-15.407 3.865-6.58 4.978-15.545 1.813-28.5-3.166-12.958-10.732-29.374-23.094-48.72l-0.126-0.188-0.125-0.218-115.658-202.28-0.093-0.158-0.064-0.187c-2.5-4.828-4.99-9.326-7.47-13.532zM269.67999999999995 400.275h43.907v43.906H269.67999999999995v-43.905z" /></svg>