<svg xmlns="http://www.w3.org/2000/svg" width="100%" height="100%" viewBox="0 0 588.8 588.8"><path fill="currentColor" d="M294.4 54.39999999999998C161.89999999999998 54.39999999999998 54.39999999999998 161.89999999999998 54.39999999999998 294.4c0 132.6 107.5 240 240 240 132.6 0 240-107.4 240-240S427 54.39999999999998 294.4 54.39999999999998z m0 60c99.4 0 180 80.6 180 180s-80.6 180-180 180S114.39999999999998 393.79999999999995 114.39999999999998 294.4 194.99999999999997 114.39999999999998 294.4 114.39999999999998z m91.3 64.2c-6.5 0-12.5 2.4-16.8 8.2-52 70.1-69 96.5-106 169.8-8.4-11.1-65.6-72.4-93.9-94.1-14.2-10.9-41.3 27.2-31.6 37.1C180.99999999999997 344.5 258.5 444.4 271.09999999999997 443.4c21.4-1.7 75.1-136.8 148.8-233.7 8-10.4-15-31.3-34.2-31.1z" /></svg>