<svg xmlns="http://www.w3.org/2000/svg" width="100%" height="100%" viewBox="0 0 588.8 588.8"><path fill="currentColor" d="M200.86999999999998 55.87999999999998c32.96 78.956 43.31 192.888 35.184 285.137-0.338 2.716-0.703 5.427-1.086 8.133-0.104-0.29-0.202-0.582-0.31-0.87h-0.002c-10.73 62.467-55.732 130.073-108.043 183.386h55.482l0.02-0.03H203.39999999999998l-0.03 0.03h55.483c39.526-57.087 70.653-135.464 52.563-183.385h-0.002c-4.65 27.07-15.744 55.103-31.07 82.52 19.13-89.548 11.015-187.79-24.67-273.474-13.91-42.507-32.336-79.6-54.805-101.446z m234.39 89.87l-38.987 10.445 4.836 18.053 12.63-3.385 30.922 115.408-12.627 3.384 4.838 18.053 38.986-10.446-4.84-18.05-14.436 3.868c7.45-22.408 8.274-43.95 2.982-63.7-5.11-19.073-16.002-36.736-32.643-52.046l13.174-3.532-4.836-18.05zM55.35399999999998 173.47599999999997l39.432 67.553 96.215 54.99 6.554-41.67 16.08 7.212 5.303-29.805-89.11-51.576-74.474-6.704z m475.442 20.55l-54.93 14.634c0.632 1.946 1.224 3.905 1.754 5.883 1.61 6.007 2.728 12.136 3.376 18.353l49.8-13.267v-25.605z m-127.327 10.71L298.79999999999995 232.30999999999997c4.902 22.988 8.122 46.343 9.647 69.774l113.123-29.79-18.102-67.558z m-191.08 102.87l-46.054 44.01 30.705 12.28 15.348-56.29z m105.797 4.46L334 348.13l15.64 0.354 0.028-15.777-31.483-20.64z m47.55 39.137l27.6 40.2 29.366-10.774-24.126-18.324-32.84-11.103zM156.14 375.935l-48.623 3.795-5.35 30.822 27.93-11.734 26.043-22.883z m198.905 1.072l0.205 35.186 21.382 15.795 12.467-12.826-34.055-38.155z m-156.323 6.938l-42.77 28.04 0.038 21.435 21.25-0.487 21.482-48.988zM126.47399999999998 446.01L102.61999999999998 462.17999999999995l5.97 20.398 26.855-5.18-8.97-31.39z" /></svg>