<svg xmlns="http://www.w3.org/2000/svg" width="100%" height="100%" viewBox="0 0 588.8 588.8"><path fill="currentColor" d="M128.92999999999998 61.39999999999998c-18.345 0-36.688 7.002-50.686 21-27.996 27.996-27.994 73.38 0 101.375 21.776 21.776 54.08 26.603 80.53 14.5l53.69 53.688c-21.425 19.696-44 38.257-67.44 55.937l30.126 30.125c18.734-22.545 37.953-44.474 57.844-65.53l169.594 169.593c-51.845 40.444-120.866 53.838-192.813 42.562L211.39999999999998 463.306 110.86999999999998 442.87l95.405 88.405 1.97-26c86.593 36.97 177.603 34.61 241.343-11.75l63.062 21.313-21.47-63.594c44.61-63.62 46.408-153.412 9.908-238.875l26.03-1.97-88.406-95.375 20.438 100.53 21.344-1.624c11.278 71.983-2.168 141.017-42.656 192.876l-169.782-169.75c21.075-20.34 42.93-39.665 65.78-57.72l-30.123-30.124c-17.015 24.154-35.673 46.66-55.688 67.813l-53.97-53.97C206.23399999999998 136.58299999999997 201.432 104.21399999999997 179.61999999999998 82.39999999999998c-14-13.998-32.343-21-50.69-21z m0 27.03c11.434 0.002 22.872 4.34 31.595 13.064 17.447 17.447 17.446 45.742 0 63.187-17.446 17.447-45.71 17.447-63.156 0-17.447-17.444-17.448-45.74 0-63.186C106.08999999999997 92.76999999999998 117.49699999999997 88.42999999999998 128.92999999999998 88.42999999999998z" /></svg>