<svg xmlns="http://www.w3.org/2000/svg" width="100%" height="100%" viewBox="0 0 588.8 588.8"><path fill="currentColor" d="M301.013 57.092999999999975c14.346 3.397 28.44 8.496 41.955 15.407C425.69 114.79599999999998 464.78999999999996 210.12399999999997 444.382 297.308c5.637-1.678 11.7-2.258 17.91-1.496 5.757 0.706 11.11 2.502 15.895 5.14 3.493-20.665 5.6-40.235 5.604-57.333v-0.048c0.01-98.058-79.632-179.733-182.777-186.48zM258.586 70.68999999999997c-35.435-0.275-70.502 10.305-99.43 30.392C126.02999999999997 127.63399999999997 102.26399999999998 164.2 93.10599999999998 205.55999999999997c-9.962 63.56 19.737 130.7 79.794 161.07 17.298 8.745 35.857 13.585 54.477 14.825-0.484-10.38-1.614-20.586-3.534-30.407-11.817-1.572-23.504-5.01-34.568-10.44-60.26-29.57-82.477-104.75-53.227-163.696 22.977-46.303 70.613-72.02 119.342-71.998 20.575 0.01 41.344 4.607 60.535 14.18 71.852 35.85 98.25 125.977 62.756 196.452-3.01 5.977-6.372 11.657-10.04 17.043-8.4 19.265-28.72 31.58-50.662 28.89-26.746-3.28-45.765-27.597-42.484-54.314 3.19-25.98 26.298-44.662 52.16-42.657 7.325-35.263-8.658-73.613-42.38-89.82-34.648-16.655-78.86-3.388-95.536 31.657-14.29 30.037-2.71 68.293 27.752 82.553l0.195-0.145c44.044 59.514 29.42 150.498 13.96 210.145l-0.31-0.08-0.257 2.603c11.15 4.674 22.272 9.042 33.426 12.91l15.298-53.843 17.977 5.107-15.468 54.436c12.238 3.578 24.554 6.44 37.035 8.297l13.2-53.82 18.152 4.452-12.597 51.356c10.234 0.65 20.602 0.567 31.147-0.387l10.94-51.405 18.28 3.89-9.523 44.743c7.942-1.534 15.995-3.584 24.178-6.213 2.24-5.614 17.78-44.766 34.64-98.617 3.908-12.483 7.796-25.598 11.508-38.963-2.528 0.13-5.1 0.06-7.7-0.26-24.13-2.96-41.29-24.897-38.33-49.002 0.686-5.585 2.402-10.79 4.92-15.463 33.78-85.14-0.844-187.14-83.7-229.506-23.993-12.267-50.032-18.242-75.877-18.443z m-3.124 52.937c-41.987-0.015-83.065 22.066-102.677 61.59-24.756 49.886-5.873 113.793 44.72 138.62 6.808 3.34 13.908 5.753 21.127 7.32-3.334-9.88-7.716-19.135-13.318-27.5-37.09-20.268-50.38-67.642-32.447-105.335v-0.002c15.005-31.536 46.876-49.117 79.668-49.475 13.845-0.15 27.856 2.768 40.83 9.004h0.002c42.324 20.343 61.96 68.003 52.33 111.634l0.027 0.014c-3.273 11.283-8.337 20.948-17.46 27.984-9.914 0.353-17.66 8.296-17.66 18.307 0 10.24 8.1 18.34 18.34 18.34 5.443 0 10.266-2.3 13.604-5.982 11.28-8.043 20.752-21.604 25.588-35.62l0.06 0.116c20.934-58.806-3.163-128.17-60.61-156.832-16.506-8.234-34.395-12.18-52.123-12.185z m136.78 216.636l6.736 109.592-24.89-31.152-45.4 14.88 63.554-93.32z" /></svg>