<svg xmlns="http://www.w3.org/2000/svg" width="100%" height="100%" viewBox="0 0 588.8 588.8"><path fill="currentColor" d="M294.4 66.67999999999998L79.39999999999998 266.29999999999995v27.5L294.4 94.11999999999998 509.4 293.79999999999995v-27.5L294.4 66.67999999999998z m0 52L166.49999999999997 237.39999999999998h255.8L294.4 118.67999999999998zM157.39999999999998 245.89999999999998l-78 72.4V525.4h103V406.4h82v119h245V318.29999999999995l-78-72.4V383.4H157.39999999999998V245.89999999999998z m34.7 9.5c1.3 0.9 2.6 1.9 4 2.9 11.4 8.2 25.3 17.6 39.2 26.5 13.8 8.9 27.7 17.4 38.9 23.4 5.6 3.1 10.5 5.5 14.3 7.1 2.8 1.2 5.2 1.8 5.9 2 0.7-0.2 3.1-0.8 5.9-2 3.8-1.6 8.7-4 14.3-7.1 11.2-6 25.1-14.5 38.9-23.4 13.9-8.9 27.8-18.3 39.2-26.5 1.4-1 2.7-2 4-2.9H192.09999999999997zM294.4 317.29999999999995c-0.2 0.1-0.3 0.1 0 0.1s0.2 0 0-0.1z m-119-51.8v92.1l68.8-45.9c-6.1-3.7-12.4-7.6-18.7-11.7-14.1-9.1-28.2-18.7-39.8-27-3.7-2.7-7.2-5.2-10.3-7.5z m238 0c-3.1 2.3-6.6 4.8-10.3 7.5-11.6 8.3-25.7 17.9-39.8 27-6.3 4.1-12.6 8-18.7 11.7l68.8 45.9v-92.1z m-151.9 56.3L196.2 365.4h196.4l-65.3-43.6c-1.4 0.8-2.8 1.6-4.1 2.3-5.9 3.2-11.2 5.8-15.8 7.8-4.7 2-8 3.5-13 3.5s-8.3-1.5-13-3.5c-4.6-2-9.9-4.6-15.8-7.8-1.3-0.7-2.7-1.5-4.1-2.3zM326.4 406.4h96v64h-96v-64z" /></svg>