<svg xmlns="http://www.w3.org/2000/svg" width="100%" height="100%" viewBox="0 0 588.8 588.8"><path fill="currentColor" d="M294.4 63.39999999999998c-38.346 0-71 38.034-71 87s32.654 87 71 87 71-38.034 71-87-32.654-87-71-87z m-9 23h18v7.723c24.195 3.873 43.404 23.082 47.277 47.277H358.4v18h-7.723c-3.873 24.195-23.082 43.404-47.277 47.277V214.39999999999998h-18v-7.723c-24.195-3.873-43.404-23.082-47.277-47.277H230.39999999999998v-18h7.723c3.873-24.195 23.082-43.404 47.277-47.277V86.39999999999998z m0 26.04C271.02799999999996 115.79999999999998 259.798 127.02999999999997 256.43999999999994 141.39999999999998H285.4V112.43999999999998z m18 0V141.39999999999998h28.96C329 127.02799999999998 317.77 115.79799999999997 303.4 112.43999999999998zM256.43999999999994 159.39999999999998c3.358 14.372 14.588 25.602 28.96 28.96V159.39999999999998h-28.96z m46.96 0v28.96c14.372-3.358 25.602-14.588 28.96-28.96H303.4z m33.6 83.273C324.42499999999995 250.76799999999997 309.94599999999997 255.39999999999998 294.4 255.39999999999998c-15.517 0-29.97-4.615-42.527-12.682-44.338 7.713-72.368 29.064-91.49 65.834C136.498 354.48999999999995 127.99199999999998 426.632 127.49999999999997 525.4H173.39999999999998V374.4h18v151h206V374.4h18v151h45.94c-0.29-91.378-5.084-163.5-27.112-211.23-11.38-24.657-26.968-42.898-49.24-55.426-13.287-7.474-29.124-12.897-47.988-16.07zM285.4 262.4h18v9.82c18.095 2.283 34.883 11.78 47.824 24.82 15.09 15.205 25.32 35.535 25.32 56.788V381.4h9.284v18h-9.285v27.572c0 21.286-10.364 41.52-25.493 56.65-12.978 12.977-29.716 22.443-47.65 24.874V518.4h-18v-9.904c-17.934-2.43-34.672-11.897-47.65-24.875-15.13-15.128-25.493-35.362-25.493-56.648V399.4h-9.285v-18h9.285V353.786c0.103-21.11 10.452-41.294 25.543-56.458 12.95-13.01 29.654-22.562 47.6-25.014V262.4z m18 28.04v28.077c9.014 2.324 16.945 8.083 23.074 15.29 8.126 9.552 13.496 22.05 13.496 35.26V381.4h18.573v-27.572c0-15.32-7.855-31.775-20.094-44.108-9.906-9.98-22.44-17.043-35.05-19.28z m-18 0.138c-12.454 2.395-24.942 9.5-34.84 19.445-12.293 12.352-20.23 28.74-20.303 43.85V381.4h18.573v-12.372c0.055-13.134 5.496-25.54 13.613-35.058 6.133-7.19 14.007-12.964 22.957-15.36v-28.032z m18 47.23V381.4h18.57v-12.334c0-8.124-3.668-17.085-9.207-23.596-2.858-3.36-6.105-5.948-9.363-7.662z m-18 0.194c-3.216 1.747-6.432 4.333-9.262 7.65-5.574 6.535-9.275 15.46-9.308 23.453V381.4H285.4v-43.398zM230.25699999999998 399.4v27.572c0 15.286 7.92 31.622 20.22 43.922 9.91 9.908 22.436 16.966 34.923 19.34v-28.027c-8.938-2.378-16.827-8.11-22.977-15.284-8.143-9.5-13.593-21.95-13.593-35.19V399.4h-18.573z m36.573 0v12.334c0 8.095 3.69 16.977 9.26 23.477 2.84 3.312 6.074 5.89 9.31 7.626V399.4h-18.57z m36.57 0v43.436c3.236-1.737 6.47-4.314 9.31-7.625 5.57-6.5 9.26-15.38 9.26-23.476V399.4H303.4z m36.57 0v12.334c0 13.238-5.45 25.69-13.593 35.19-6.15 7.174-14.04 12.905-22.977 15.283v28.027c12.487-2.374 25.014-9.432 34.922-19.34 12.3-12.3 20.22-28.636 20.22-43.922V399.4H339.96999999999997z" /></svg>