<svg xmlns="http://www.w3.org/2000/svg" width="100%" height="100%" viewBox="0 0 588.8 588.8"><path fill="currentColor" d="M354.67999999999995 57.46299999999998L249.58999999999997 85.64999999999998l36.625 67.78-61.25 16.44L222.39999999999998 92.92999999999998 118.83699999999997 120.71299999999998 90.86999999999998 225.11999999999998l77 2.186L151.39999999999998 288.74399999999997l-67.875-36.22L55.619999999999976 356.59l75.843 75.843 40.593-65.56 45.25 45.25-65.562 40.624 76.53 76.53 103.782-27.812-36.5-68.03 61.53-16.47 2.377 77.157 104.687-28.064 27.97-104.437-77.158-2.376L431.4 297.87l68.03 36.5 27.908-104.22-77-77.03-40.47 65.718-44.624-44.657 65.406-40.75-75.97-75.968zM291.59 163.39999999999998l11.53 21.344-22.874 69.72-54.094-49.095-0.813-24.19 66.25-17.78z m64.062 16.75l48.28 48.313-13 21.125-71.81 15.062 15.467-71.375 21.063-13.125z m-176.438 47.47l23.75 0.686 48.938 54.656-69.563 22.282L161.39999999999998 294.056l17.813-66.437z m221.094 53.56l21.125 11.345-17.78 66.375-23.97-0.75-48.5-53.938 69.126-23.03z m-139.25 41.5l-14.625 71.376-19.53 12.094-48.875-48.906 12.094-19.5 70.936-15.063z m40.438 11.064l54.5 48.344 0.72 23.53-66.533 17.844-11.124-20.75 22.438-68.968z" /></svg>