<svg xmlns="http://www.w3.org/2000/svg" width="100%" height="100%" viewBox="0 0 588.8 588.8"><path fill="currentColor" d="M333.2 64.96999999999997L276.4 98.76999999999998l7.8 13.17L319.4 90.98999999999998 309.2 156.39999999999998l6.3 10.6L374.4 131.92999999999998l-7.8-13.17-37.3 22.14L339.4 75.51999999999998l-6.2-10.55zM185.49999999999997 98.94999999999997A224 224 0 0 0 70.39999999999998 294.4a224 224 0 0 0 224 224 224 224 0 0 0 214.9-161.2A208 208 0 0 1 358.4 422.4a208 208 0 0 1-208-208 208 208 0 0 1 35.1-115.45z m244.5 52.05l-6.9 16.5 44.1 18.4-68.3 35.9-5.5 13.2 73.7 30.8 6.9-16.5-46.7-19.5 68.3-35.9 5.5-13.2-71.1-29.7z m-115 64l-97.8 35 8.1 22.7 60.6-21.7-35.4 97.9 6.5 18.1L358.4 330.79999999999995l-8.1-22.7-64.2 23 35.4-97.9-6.5-18.2z" /></svg>