<svg xmlns="http://www.w3.org/2000/svg" width="100%" height="100%" viewBox="0 0 588.8 588.8"><path fill="currentColor" d="M373.09999999999997 59.449999999999974L338.59999999999997 193.09999999999997l30.5 12.5L401.4 193.39999999999998zM258.59999999999997 110.80999999999997L218.49999999999997 217.49999999999997l34.3 33.3 33.5-31zM93.96999999999997 139.99999999999997L86.29999999999998 262.79999999999995l36.52 23.7 25.38-38.7z m413.63 10.5l-41.8 65.8 19.8 34.5 27.3-7z m-171.4 61l-6.3 145 66.3-1.5 6.4-142.8-33.7 12.8zM215.39999999999998 239.59999999999997l-5 119.6 73.8-1.7 3.3-114.3-35.1 32.4z m244.3 2.2l-19.9 112.2 53.8-1.3 17.8-89.9-34.6 8.8z m-305.8 30.1l-25.87 39.4-41.04-26.7 10.08 77.2 71.93-1.6z m362.9 98.3L72.19999999999997 380.4l-3.78 44.2L520.4 422.5l-1.1-15.9-32.5-10.4s18.7-3.4 31.4-5.6z m-40.7 70.6l-51.7 0.2-3.2 18.1 51.6-1.6z m-83.7 0.3l-66.1 0.3-0.9 20.9 66.2-2.2z m-110.5 0.5l-75 0.3-1 24.3 75.4-2.5z m-98.9 0.4l-75.43 0.3 3.51 27 76.12-2.5z m345.3 31.6L60.46999999999998 488.9l0.24 25.9 29 14.6 432.49-1.4z" /></svg>