<svg xmlns="http://www.w3.org/2000/svg" width="100%" height="100%" viewBox="0 0 588.8 588.8"><path fill="currentColor" d="M147.05599999999998 73.46299999999998c-15.053 0.138-33.413 5.378-46.97 15.812-10.75 8.276-18.777 19.27-21.186 34.438 0.21-0.126 0.414-0.252 0.625-0.376-0.843 2.816-1.313 5.786-1.313 8.876 0 17.087 13.85 30.937 30.938 30.937 14.293 0 26.324-9.705 29.875-22.875 0.028-0.115 0.067-0.23 0.094-0.344 0.48-2.082 0.768-4.042 0.905-5.843 0.025-0.327 0.017-0.65 0.03-0.968 0.005-0.126 0.03-0.25 0.032-0.376 0.007-0.182-0.002-0.353 0-0.53 0-1.526-0.098-3.036-0.312-4.5-1.367-8.018-6.778-12.156-12.594-13.72-8.527-2.293-19.055 0.637-23.75 18.156l-0.468-0.125C100.43999999999997 112.51999999999998 110.61299999999997 102.28499999999997 122.33999999999997 99.17999999999998c2.476-0.654 5.053-1.005 7.656-0.968 9.072 0.13 18.445 4.88 24.562 17.126 0.087 0.173 0.165 0.355 0.25 0.53 5.208 15.233 2.11 43.32-3.344 57.626-7.288 18.753-22.376 40.504-47.687 65.5C45.38999999999998 296.652 42.39999999999998 368.224 78.36999999999998 427.214 114.33599999999998 486.2 190.52999999999997 531.96 292.837 531.96c102.306 0 178.47-45.76 214.437-104.75 35.882-58.848 32.982-130.225-25-187.812l-0.406-0.406h-0.033c-25.31-24.996-40.367-46.747-47.656-65.5-5.23-16.453-9.09-42.988-2.655-57.625 0.058-0.128 0.128-0.25 0.188-0.376 0.025-0.05 0.037-0.106 0.062-0.156 6.117-12.246 15.49-16.996 24.563-17.126 2.602-0.037 5.18 0.314 7.656 0.97 11.724 3.102 21.87 13.337 19.344 32.843l-0.438 0.125c-4.694-17.52-15.222-20.45-23.75-18.156-4.41 1.185-8.603 3.85-10.97 8.562-0.012 0.04-0.017 0.085-0.03 0.125-0.975 3.007-1.5 6.203-1.5 9.532 0 17.088 13.85 30.938 30.938 30.938 17.087 0 30.937-13.85 30.937-30.938 0-4.355-0.907-8.49-2.53-12.25-3.058-13.244-10.598-23.112-20.44-30.687-14.458-11.13-34.39-16.363-49.936-15.78-13.378 0.5-24.85 4.108-33.22 10.53-3.412 2.617-6.383 5.702-8.844 9.375-69.455 35.508-138.89 38.75-208.344-7.75-0.642-0.557-1.29-1.105-1.968-1.625-8.37-6.422-19.843-10.03-33.22-10.53-0.97-0.037-1.964-0.042-2.968-0.032z m52.78 53.124c6.338 2.648 12.666 4.987 19 7.032v313.06c-30.732-8.258-57.886-22.005-77.374-41.31-17.1-16.94-28.077-38.626-28.906-63.595-0.828-24.97 8.274-52.702 28.97-82.625 41.323-59.752 57.163-103.6 58.31-132.563z m186.033 1.407c1.6 28.97 17.593 72.37 58.25 131.156 20.693 29.923 29.796 57.656 28.967 82.625-0.828 24.97-11.807 46.654-28.906 63.594-19.023 18.846-45.374 32.4-75.217 40.717V133.24399999999997c5.636-1.606 11.27-3.35 16.906-5.25z m-35.595 10v312.53c-8.21 1.63-16.606 2.878-25.125 3.782V142.49399999999997c8.376-1.122 16.75-2.63 25.125-4.5z m-112.75 0.78c8.45 1.97 16.894 3.442 25.344 4.44v311.342c-8.59-0.84-17.057-2.05-25.345-3.625V138.77599999999998z m68.938 5.564v311.375c-4.54 0.198-9.088 0.312-13.657 0.312-3.76 0-7.506-0.053-11.25-0.188V144.67999999999998c8.293 0.314 16.614 0.18 24.906-0.343z" /></svg>