<svg xmlns="http://www.w3.org/2000/svg" width="100%" height="100%" viewBox="0 0 588.8 588.8"><path fill="currentColor" d="M345.12 61.08799999999998c-87.212 0.763-181.58 53.14-238.19 140.406-0.944 1.46-1.677 3.068-2.593 4.53 0.455-0.397 0.86-0.917 1.313-1.31-40.253 56.984-35.183 136.503 15.813 187.5 54.553 54.552 141.745 56.65 199.093 6.78-4.676 6.576-9.916 13.137-15.812 19.03-57 57-149.53 57-206.53 0-17.814-17.81-30.103-38.73-36.783-61.312 2.928 65.605 34.97 122.74 93.907 151.97 103.593 51.374 250.2-2.8 326.875-121C549.304 284.256 540.87 165.77399999999997 468.33799999999997 103.39999999999998c-10.36-8.91-22.206-16.483-35.156-22.906-25.897-12.844-54.454-19.11-83.905-19.407-1.38-0.013-2.772-0.012-4.156 0z m1.06 62.406c47.14-0.705 82.63 23.414 90.376 58.906v0.03c1.417 6.492 1.806 13.565 1.344 21.032-3.682 59.742-68.786 126.655-145.438 149.563-0.945 0.282-1.872 0.422-2.812 0.688l0.938-0.47c-37.843 12.718-74.086-0.708-84.438-33.624-7.03-22.36-0.468-48.544 15.25-70.408-1.695 7.2-0.05 13.91 5.344 18.375 10.643 8.816 31.83 5.575 47.312-7.25 15.483-12.824 19.394-30.37 8.75-39.187-6.294-5.214-16.287-6.21-26.594-3.5 0.178-0.103 0.353-0.21 0.532-0.313-0.755 0.257-1.52 0.54-2.28 0.813-0.344 0.123-0.69 0.217-1.033 0.344-2.682 0.876-5.37 1.984-8 3.344-0.656 0.307-1.315 0.61-1.968 0.937-42.374 21.24-83.226 68.335-71.656 105.125 3.616 11.497 10.213 20.614 19.094 27.094-30.253-10.44-48.35-34.526-46.563-68.53 3.682-70.837 83.193-133.31 159.844-156.22 14.673-4.385 28.802-6.553 42-6.75z" /></svg>