<svg xmlns="http://www.w3.org/2000/svg" width="100%" height="100%" viewBox="0 0 588.8 588.8"><path fill="currentColor" d="M156.88599999999997 63.39999999999998l-26 78h29.028l26-78zM294.4 63.39999999999998c-10.926 0-25.17 4.748-36.14 12.404-10.97 7.656-18.208 17.732-18.883 27.235-0.8 11.25 6.06 25.301 17.205 36.216C267.727 150.171 282.686 157.39999999999998 294.4 157.39999999999998c11.714 0 26.673-7.23 37.818-18.145s18.005-24.966 17.205-36.216c-0.675-9.503-7.912-19.579-18.882-27.235C319.57 68.14799999999998 305.32599999999996 63.39999999999998 294.4 63.39999999999998z m108.486 0l26 78h29.028l-26-78zM86.39999999999998 79.39999999999998c0.5 0-1.724 0.573-4.688 4.326-2.963 3.754-6.244 9.694-9.04 16.219-3.649 8.512-6.348 18.184-7.877 25.455h52.453l15.334-46z m113.152 0L184.21999999999997 125.39999999999998h41.239c-3.062-7.525-4.614-15.498-4.036-23.639 0.585-8.231 3.555-15.718 8.01-22.361z m159.815 0c4.455 6.643 7.425 14.13 8.01 22.361 0.578 8.141-0.974 16.114-4.036 23.639h41.239l-15.332-46z m96.853 0l15.332 46h52.453c-1.53-7.271-4.228-16.943-7.876-25.455-2.797-6.525-6.078-12.465-9.041-16.219C504.12399999999997 79.97299999999998 501.9 79.39999999999998 502.4 79.39999999999998zM84.86499999999998 143.39999999999998C63.63899999999998 242.694 63.42999999999998 399.924 63.43299999999998 525.4h159.883a3096.51 3096.51 0 0 0 9.82-40.824c-15.585 2.554-31.613 6.054-48.425 10.521L173.39999999999998 498.10299999999995V486.4c0-117.577-13.686-235.189-40.635-327H105.91399999999997l5.334-16z m93.355 0l-5.334 16h-21.43c25.844 90.393 38.94 202.608 39.766 315.66 72.384-17.715 133.99-17.605 206.354 0.014C398.4 362.017 411.49899999999997 249.79599999999996 437.34299999999996 159.39999999999998h-21.43l-5.333-16h-57.928a92.688 92.688 0 0 1-7.84 8.715C330.965 165.676 312.856 175.39999999999998 294.4 175.39999999999998s-36.565-9.724-50.412-23.285a92.688 92.688 0 0 1-7.84-8.715z m299.332 0l5.334 16h-26.851C429.08599999999996 251.21099999999998 415.4 368.823 415.4 486.4v11.684l-11.297-2.983c-16.814-4.439-32.844-7.93-48.43-10.484 3.24 13.88 6.52 27.504 9.811 40.783h159.883c0.003-125.476-0.206-282.706-21.432-382z" /></svg>