<svg xmlns="http://www.w3.org/2000/svg" width="100%" height="100%" viewBox="0 0 588.8 588.8"><path fill="currentColor" d="M91.14999999999998 57.16999999999997C257.5 129.38 389.2 215.09999999999997 465 311.9 401.5 393.09999999999997 300.5 467.2 173.49999999999997 532.4h40c79.3-43.1 147.9-89.9 202.6-140.5-39.1 50.4-88.1 97.4-144.9 140.5h30.4c80.1-63.9 144.3-136.2 185.4-216.3l2.2-4.2-2.2-4.3C437.79999999999995 211.89999999999998 354.29999999999995 128.28999999999996 249.39999999999998 57.16999999999997h-33.9C296 108.76999999999998 364.29999999999995 167.2 415.4 231.79999999999998 344.09999999999997 166.89999999999998 248.89999999999998 108.80999999999997 136.90999999999997 57.16999999999997H91.14999999999998z m286.85 0C457.9 125.41999999999997 502.9 206.89999999999998 510.59999999999997 289.2c7.7 83.6-22.8 168.6-96.8 243.2h25.8c20.8-22.7 37.9-46.5 51.5-70.9-7.6 24.5-17.1 48.2-28.8 70.9h20.9c72.3-148.7 61.7-336.5-17.8-475.23h-21.6c20 33.13 35.9 69.56 47.3 107.83-20.6-38.1-49.1-74.46-85-107.83h-28.1zM57.689999999999976 138.79999999999998v18.7c98.91 0.5 192.11 33.8 275.81 93.3-83.7-43.1-177-67.4-275.81-67.8v18.7c126.31 0.5 243.11 41.3 341.91 111.2C300.4 383.79999999999995 184.59999999999997 427.4 57.689999999999976 428v18.6c97.11-0.4 187.91-25.2 269.81-67.6-82.1 58.6-172.8 92.6-269.81 93.2v18.7c138.51-0.8 264.11-66.9 369.61-172.2l6.7-6.6-6.7-6.7c-104-106.4-248.8-163.9-369.61-166.6zM239.2 274.7v80.3c48.2 0 92-15.6 129-40.8-36.9-25-81.1-39.5-129-39.5z m-164.17 0.5V354.4h22.33v-79.2z m41.02 0V354.4H217.7v-79.2z" /></svg>