<svg xmlns="http://www.w3.org/2000/svg" width="100%" height="100%" viewBox="0 0 588.8 588.8"><path fill="currentColor" d="M150.39999999999998 102.39999999999998c17.48 40.785 28.587 87.938 33.336 136.818C148.90999999999997 233.29599999999996 107.55799999999998 225.03199999999998 54.39999999999998 214.39999999999998v160c53.158-10.632 94.51-18.896 129.336-24.818C178.986 398.462 167.87999999999997 445.61499999999995 150.39999999999998 486.4h128c-18.493-43.15-29.852-93.428-34.096-145.338 34.994-3.54 65.198-3.54 100.192 0C340.25199999999995 392.972 328.893 443.25 310.4 486.4h128c-17.48-40.785-28.587-87.938-33.336-136.818C439.89 355.50399999999996 481.24199999999996 363.768 534.4 374.4V214.39999999999998c-53.158 10.632-94.51 18.896-129.336 24.818C409.81399999999996 190.33799999999997 420.91999999999996 143.18499999999997 438.4 102.39999999999998H310.4c18.493 43.15 29.852 93.428 34.096 145.338-34.994 3.54-65.198 3.54-100.192 0C248.54799999999997 195.82799999999997 259.907 145.54999999999998 278.4 102.39999999999998H150.39999999999998z" /></svg>