<svg xmlns="http://www.w3.org/2000/svg" width="100%" height="100%" viewBox="0 0 588.8 588.8"><path fill="currentColor" d="M251.23 74.02299999999997c-12.82 10.724-20.543 21.83-24.217 32.926 3.66 2.266 7.202 4.716 10.61 7.356 18.394 14.256 32.84 33.77 42.568 57.57 0.972-0.22 1.963-0.41 2.964-0.585-2.212-21.11 3.236-40.853 14.096-57.337 1.524-2.314 3.15-4.565 4.863-6.758-11.44-14.252-29.128-26.33-50.883-33.172z m125.287 6.354c-26.847 8.092-50.514 23.9-63.662 43.857-9.01 13.676-13.484 29.048-11.176 46.25 4.738 0.386 9.173 1.22 13.27 2.428 12.39-24.598 34.287-41.71 59.39-52.16 5.786-2.41 11.758-4.485 17.843-6.29-1.09-10.29-5.892-21.675-15.666-34.085zM154.52299999999997 105.73399999999998c-0.91-0.007-1.826-0.006-2.746 0.004-1.5 0.016-3.07 0.174-4.594 0.234-0.117 11.4 1.592 21.513 4.848 30.502 38.23 2.13 75.456 18.376 105.675 46.004 1.578-1.3 3.28-2.518 5.09-3.642-8.563-21-21.034-37.68-36.62-49.758-19.26-14.926-43.407-23.125-71.652-23.344zM461.21 123.87999999999998c-27.095 0.03-55.827 4.193-79.69 14.125-22.266 9.27-40.026 22.904-49.92 43.176 3.183 2.446 5.876 5.22 8.032 8.238 27.672-18.518 58.118-30.99 88.71-35.586 10.19-1.532 20.412-2.172 30.538-1.852 2.562 0.08 5.117 0.23 7.665 0.434 5.175-8.07 8.955-17.33 11.046-27.987-5.368-0.328-10.815-0.552-16.38-0.547zM143.09999999999997 154.56799999999998c-22.183 0.178-44.555 5.983-65.792 17.78 9.143 9.83 19.125 18.12 29.762 24.94 14.156-5.566 29.43-8.977 45.142-10.386 5.212-0.467 10.478-0.723 15.782-0.77 25.76-0.224 52.377 4.47 77.63 13.495 0.237-0.727 0.51-1.442 0.797-2.153-28.37-26.775-63.216-41.948-98.885-42.867-1.477-0.038-2.955-0.05-4.434-0.04z m311.804 15.984c-7.835-0.04-15.78 0.557-23.783 1.76-27.66 4.157-55.845 15.743-81.618 33.08 24.37-5.826 48.43-8.58 71.13-7.785 11.106 0.388 21.887 1.623 32.22 3.76 15.675 3.242 30.358 8.704 43.413 16.46 11.013-6.62 20.737-15.16 28.772-25.755-20.2-13.863-42.91-20.774-66.782-21.463-1.114-0.033-2.232-0.052-3.35-0.058zM295.53 188.91799999999998c-22.345 0-32.115 11.656-32.796 19.69-0.34 4.015 0.887 7.646 5.518 11.255 4.63 3.61 13.214 6.853 26.773 6.853 12.317 0 20.56-3.133 25.43-6.884 4.87-3.752 6.607-7.93 6.588-11.97-0.04-8.076-7.755-18.944-31.514-18.944z m-127.386 15.914c-4.81 0.036-9.572 0.263-14.262 0.683-33.576 3.012-63.03 15.752-82.605 39.364 17.717 7.944 35.93 13.317 54.13 15.97 11.21-11.392 24.728-20.34 39.485-26.915 23.284-10.375 49.654-15.345 75.932-16.09-23.713-8.652-48.803-13.192-72.68-13.013z m246.81 11.388c-19.757-0.16-40.94 2.546-62.544 7.815 23.82 3.452 48.044 10.302 68.724 21.763 15.92 8.824 29.708 20.93 38.948 36.178 21.276 0.118 42.66-3.086 62.81-9.41-14.576-29.192-40.39-45.983-73.826-52.898-9.192-1.902-18.933-3.005-29.082-3.344-1.666-0.056-3.342-0.09-5.03-0.104z m-169.427 20.268c-25.65 0.306-51.39 4.876-73.027 14.517-27.956 12.457-48.87 32.61-56.768 63.96 21.466 1.763 43.832 0.622 64.572-3.913 1.705-12.368 6.455-23.946 13.725-34.168 12.202-17.157 30.626-30.815 52.446-40.396-0.316 0.002-0.632-0.004-0.95 0z m91.437 4.652c20.04 12.812 36.38 29.854 45.06 49.475 4.064 9.19 6.334 19.062 6.25 29.096 20.956 6.728 44.18 10.073 65.216 10.665 2.086-33.004-14.98-53.578-41.416-68.23-21.428-11.875-48.99-18.513-75.11-21.005z m-33.76 3.764c-17.39 19.093-19.03 41.607-10.767 63.982 8.28 22.426 27.31 43.556 50.207 55.633 13.745-10.66 21.566-21.53 24.875-31.948 3.663-11.537 2.477-22.944-2.59-34.397-9.5-21.48-33.72-41.952-61.727-53.27z m-23.335 0.053c-30.815 7.842-56.89 23.47-70.61 42.76-14.353 20.18-16.877 43.598 1.372 71.857 26.172-8.027 50.603-22.318 65.99-39.89-0.6-1.433-1.18-2.873-1.716-4.325-8.413-22.785-8.062-48.412 4.963-70.403z m17.874 107.927c5.694 38.748-4.567 80.96-25.375 120.893 5.392 7.847 10.07 17.2 13.932 28.287 3.788-15.917 9.673-28.874 17.184-39.434 4.933-6.935 10.515-12.77 16.494-17.744 6.97-21.758 10.256-43.97 9.47-66.148-11.907-6.877-22.667-15.703-31.706-25.854z m-72.496 25.49c-8.437 19.543-15.834 38.15-19.994 55.083 5.614 1.292 11.38 2.758 17.19 4.62 12.478 4.003 25.248 10.06 36.52 20.286 7.346-15.275 12.976-30.73 16.618-45.955-4.204-2.083-8.448-4.198-12.737-6.46-13.07-6.898-26.355-15.24-37.597-27.573z m167.007 0.887c-14.568 11.836-30.004 19.29-44.974 25.847-0.833 8.358-2.174 16.687-4 24.96 2.764-1.35 5.542-2.61 8.32-3.776 15.086-6.33 30.286-10.436 43.484-15-0.236-10.133-1.33-20.85-2.83-32.03z m42.967 32.417c-8.044 6.504-17.504 11.094-27.226 14.815-16.096 6.16-33.432 10.43-49.164 17.03-15.733 6.602-29.654 15.23-40.118 29.942-9.41 13.232-16.26 31.88-18.03 59.622 68.802 0.31 104.793-16.823 122.09-40.94 15.153-21.125 17.282-49.698 12.448-80.47z m-285.867 23.5c-0.722 28.213 4.302 52.75 19.178 69.725 17.094 19.505 48.977 31.41 106.346 27.035-4.808-25.246-12.665-41.697-21.85-52.814-10.345-12.518-22.577-18.85-36.296-23.248-13.72-4.4-28.75-6.516-43.334-10.575-8.268-2.3-16.524-5.418-24.045-10.123z" /></svg>