<svg xmlns="http://www.w3.org/2000/svg" width="100%" height="100%" viewBox="0 0 588.8 588.8"><path fill="currentColor" d="M131.05599999999998 57.58799999999998v41.5h331.72v-41.5H131.05499999999998zM157.89999999999998 117.77399999999997V471.92999999999995h22.28V117.77599999999998H157.89999999999998z m46.594 0c3.212 43.324 13.312 82.022 27.78 110.906 17.685 35.304 40.845 54.75 64.064 54.75 23.218 0 46.346-19.446 64.03-54.75 14.47-28.883 24.57-67.58 27.782-110.905H204.49399999999997z m209.156 0V471.92999999999995h22.28V117.77599999999998h-22.28z m-117.313 185.22c-23.218 0-46.378 19.415-64.062 54.717-14.835 29.614-25.098 69.562-28.03 114.22H388.4c-2.933-44.658-13.197-84.606-28.03-114.22-17.686-35.302-40.814-54.718-64.033-54.718zM131.05699999999996 490.618v41.467h331.718V490.62H131.05499999999998z" /></svg>