<svg xmlns="http://www.w3.org/2000/svg" width="100%" height="100%" viewBox="0 0 588.8 588.8"><path fill="currentColor" d="M346.123 78.02299999999997c-25.627-0.292-48.63 17.365-54.246 43.44-6.418 29.8 12.39 58.93 42.19 65.347 29.798 6.417 58.927-12.39 65.345-42.19 6.417-29.798-12.39-58.928-42.188-65.345-3.725-0.802-7.44-1.21-11.1-1.252z m-37.543 117.88L275.52299999999997 349.4h47.055l30.97-143.81c-7.584 0.836-15.418 0.507-23.27-1.184-7.854-1.69-15.13-4.617-21.698-8.502zM236.88599999999997 367.4l-10 30h135.028l-10-30H236.88599999999997zM111.39999999999998 415.4v30h30v-30H111.39999999999998z m93.486 0l-10 30h199.028l-10-30H204.88599999999997zM447.4 415.4v30h30v-30h-30zM95.39999999999998 463.4v62h398v-62H95.39999999999998z" /></svg>