<svg xmlns="http://www.w3.org/2000/svg" width="100%" height="100%" viewBox="0 0 588.8 588.8"><path fill="currentColor" d="M294.4 129.48799999999997c-111.453 0-202.122 88.575-202.122 197.456C92.27799999999998 435.82599999999996 182.94799999999998 524.4 294.4 524.4c111.453 0 202.122-88.574 202.122-197.456 0-108.881-90.67-197.455-202.122-197.455z m0 375.866c-100.942 0-183.076-80.039-183.076-178.41 0-98.37 82.134-178.41 183.076-178.41s183.076 80.04 183.076 178.41c0 98.371-82.134 178.41-183.076 178.41z m-0.571-178.41l128.558 99.55A165.602 165.602 0 0 1 294.4 486.308c-90.467 0-164.03-71.493-164.03-159.365 0-87.681 73.266-159.055 163.447-159.352v159.352zM294.4 110.44299999999998a224.727 224.727 0 0 0-66.66 10.07V94.75399999999998A30.354 30.354 0 0 1 258.09399999999994 64.39999999999998h72.695a30.354 30.354 0 0 1 30.27 30.354v25.76A224.727 224.727 0 0 0 294.4 110.44199999999998z m128.939 40.71l20.117-19.748c8.797-8.642 21.272-10.463 27.878-4.083l20.403 19.748c6.594 6.38 4.761 18.558-3.988 27.2l-19.438 19.045a221.06 221.06 0 0 0-44.96-42.162zM120.83499999999998 192.90999999999997l-19.391-19.046c-8.797-8.642-10.713-20.724-4.202-26.985L117.27499999999998 127.49999999999997c6.476-6.26 18.856-4.344 27.652 4.298l20.046 19.688a221.06 221.06 0 0 0-44.138 41.425z" /></svg>