<svg xmlns="http://www.w3.org/2000/svg" width="100%" height="100%" viewBox="0 0 588.8 588.8"><path fill="currentColor" d="M294.378 131.503C264.78 179.17999999999998 199.783 257.05999999999995 144.39999999999998 296v52.892c53.113-38.92 105.113-92.537 140.56-145.71l9.44-14.158 9.44 14.16c35.333 53 87.963 106.296 140.56 145.47v-52.593c-56.39-38.937-120.654-116.944-150.022-164.557z m0 108.403C264.78 287.58299999999997 199.78399999999996 365.46599999999995 144.39999999999998 404.40999999999997v52.887c53.113-38.92 105.113-92.537 140.56-145.71L294.4 297.42999999999995l9.44 14.158c35.333 53 87.963 106.298 140.56 145.473v-52.594c-56.39-38.937-120.654-116.947-150.022-164.56z" /></svg>