<svg xmlns="http://www.w3.org/2000/svg" width="100%" height="100%" viewBox="0 0 588.8 588.8"><path fill="currentColor" d="M349.79999999999995 71.21999999999997C318.29999999999995 91.97999999999998 297.4 127.68999999999998 297.4 168.2c0 39.9 20.3 75.2 51.1 96.1l8.1-16.2c-25-17.8-41.2-46.9-41.2-79.9 0-33.59 16.8-63.17 42.5-80.82l-8.1-16.16z m127.2 0l-8.1 16.16C494.59999999999997 105.02999999999997 511.4 134.60999999999996 511.4 168.2c0 33-16.2 62.1-41.2 79.9l8.1 16.2c30.8-20.9 51.1-56.2 51.1-96.1 0-40.51-20.9-76.22-52.4-96.98z m-110 34.35C347.79999999999995 119.80999999999997 335.4 142.59999999999997 335.4 168.2c0 25 11.9 47.3 30.3 61.6l8.2-16.4c-12.6-11-20.5-27.1-20.5-45.2 0-18.7 8.5-35.3 21.8-46.29l-8.2-16.34z m92.8 0l-8.2 16.34C464.9 132.89999999999998 473.4 149.49999999999997 473.4 168.2c0 18.1-7.9 34.2-20.5 45.2l8.2 16.4c18.4-14.3 30.3-36.6 30.3-61.6 0-25.6-12.4-48.39-31.6-62.63z m-75.3 35.03c-6.9 7.2-11.2 16.9-11.2 27.6 0 10.1 3.8 19.3 10 26.4l9.4-18.7c-0.9-2.4-1.4-5-1.4-7.7 0-3.5 0.8-6.7 2.2-9.6l-9-18z m57.8 0l-9 18c1.4 2.9 2.2 6.1 2.2 9.6 0 2.7-0.5 5.3-1.4 7.7l9.4 18.7c6.2-7.1 10-16.3 10-26.4 0-10.7-4.3-20.4-11.2-27.6zM404.4 182.39999999999998v183h18V182.39999999999998h-18zM63.39999999999998 383.4v110h462V383.4H63.39999999999998z m55 39a16 16 0 0 1 16 16 16 16 0 0 1-16 16 16 16 0 0 1-16-16 16 16 0 0 1 16-16z m48 0a16 16 0 0 1 16 16 16 16 0 0 1-16 16 16 16 0 0 1-16-16 16 16 0 0 1 16-16z m48 0a16 16 0 0 1 16 16 16 16 0 0 1-16 16 16 16 0 0 1-16-16 16 16 0 0 1 16-16zM111.39999999999998 511.4v16h46v-16H111.39999999999998z m320 0v16h46v-16h-46z" /></svg>