<svg xmlns="http://www.w3.org/2000/svg" width="100%" height="100%" viewBox="0 0 588.8 588.8"><path fill="currentColor" d="M64.52499999999998 58.369999999999976C124.32999999999998 80.14199999999997 163.84999999999997 115.20999999999998 192.24499999999998 163.67999999999998c20.807 35.52 35.428 78.442 46.624 128.282 0.646 5.295 1.186 10.563 1.686 15.813-48.006-64.42-118.568-102.565-181.594-103.75v0.22c58.233 16.936 103.123 50.71 135.188 92.968-29.434-17.817-63.758-23.935-115.03-25.063 88.53 26.684 116.565 46.203 136.936 91.906-50.52-9.608-100.656 16.807-107.28 70 17.742-29.653 41.175-46.612 65.093-48.28 25.746-1.8 32.124 14.687 15.436 37.562l-6.687 8.125c-0.162 0.176-0.307 0.354-0.47 0.53l0.063-0.03-1.563 1.906-75.938 51.5-0.968 0.686-0.78 0.875-41.064 46.44h24.938l29.374-33.19 76.032-51.56 1.094-0.75 0.875-1.033L243.89999999999998 386.37l29.72 15.967 2.968 1.594 3.312-0.686 34.656-7.03 1.375-0.283 1.22-0.655 16.375-8.906h2.25l53.75 57.124 0.5 0.53 0.53 0.438 113.408 88.907h30.03v-0.19L404.18199999999996 431.37c-15.184-25.04-5.886-49.94 17.44-54.845 35.786-7.526 64.944-6.61 105.436 11.094-44.382-35.54-97.07-46.683-146.375-30.345 27.234-63.822 87.474-107.53 153.314-132.22v-0.718c-68.792 7.528-131.456 37.83-177.844 84.875 11.63-57.224 27.12-105.994 50.28-145.53 28.366-48.42 67.863-83.47 127.564-105.25v-0.063h-45.406c-42.903 23.262-74.69 55.603-98.282 95.874-12.098 20.65-22.08 43.34-30.53 67.97C370.587 154.50599999999997 392.10499999999996 91.41799999999998 432.4 58.36799999999998h-79.03c-28.243 100.098-41.47 200.18-52.314 300.28-0.684-100.097-0.42-200.185 12-300.28H222.14999999999998c23.25 68.337 31.688 136.213 34.094 207.218-12.94-81.71-35.23-150.175-70.313-207.22h-40.28c20.476 19.316 38.15 47.228 52.594 79.844-22.34-32.882-51.07-59.753-88.094-79.843H64.52499999999998z" /></svg>