<svg xmlns="http://www.w3.org/2000/svg" width="100%" height="100%" viewBox="0 0 588.8 588.8"><path fill="currentColor" d="M406.87 134.40999999999997c-37.258-0.033-76.09 1.16-112.824 3.187-44.785 2.47-86.588 6.255-118.453 10.402-33.012 45.66-58.063 88.796-65.557 118.763-3.88 15.517-2.91 26.62 1.53 33.33 4.442 6.71 13.352 11.544 31.58 12.013 38.55 0.993 111.067-24.892 177.7-62.35 59.595-33.5 115.216-76.585 141.542-114.216-17.75-0.74-36.376-1.114-55.518-1.13z m76.285 2.196c-26.887 45.528-87.973 92.014-153.488 128.842C261.38699999999994 303.83 189.26999999999998 331.29999999999995 142.683 330.09999999999997c-21.494-0.553-37.59-7.18-46.125-20.074-8.534-12.894-8.506-29.543-3.983-47.63 7.84-31.353 29.653-69.698 58.34-110.782-7.797 1.302-14.508 2.612-19.893 3.903-30.266 39.084-48.864 71.717-58.134 97.867-9.472 26.72-9.26 46.303-3.46 60.13 5.796 13.828 17.3 23.064 34.327 28.596 16.945 5.506 39.115 6.772 63.687 3.752 116.3-25.85 197.457-73.105 250.955-117.79 26.788-22.375 46.634-44.117 60.41-62.15 8.573-11.224 14.548-20.87 18.585-28.347-4.643-0.358-9.413-0.673-14.237-0.97zM366.263 146.82999999999998c2.46-0.037 26.5 15.642 28.945 24.73 0.76 2.82-4.772 13.078-10.61 10.718-13.923-5.627-20.837-32.943-18.505-35.392 0.033-0.035 0.09-0.054 0.17-0.055z m-44.887 7.202c1.936-0.767 26.606 28.7 25.068 40.233-0.462 3.467-12.88 12.426-19.232 7.234-15.152-12.383-10.11-45.774-5.836-47.468z m186.066 2.324c-3.887 6.184-8.63 13.03-14.332 20.495-14.6 19.112-35.342 41.79-63.174 65.036-55.663 46.494-139.71 95.216-259.09 121.664l-0.413 0.092-0.422 0.052c-26.587 3.31-51.25 2.22-71.818-4.465-1.817-0.59-3.593-1.247-5.347-1.934 4.72 6.51 9.666 12.87 14.947 19.027l6.414 0.7s17.492 1.912 39.102 2.595c21.61 0.683 47.583-0.176 62-4.496 10.873-3.258 20.896-11.22 31.763-20.182 10.868-8.963 22.57-18.926 37.96-23.642 12.978-3.978 25.618-2.138 36.838-0.908 11.22 1.23 20.902 1.86 28.63-1.116 27.108-10.44 63.867-40.88 92.75-68.666 28.885-27.784 50.388-52.72 50.388-52.72l3.77-4.375c7.334-18.944 12.98-35.012 13.78-37.297-1.212-3.29-2.454-6.573-3.744-9.86z m-299.03 0.866c1.696 0.033 2.86 0.29 3.284 0.757 1.226 1.36-20.59 30.342-31.982 32.51-3.425 0.65-15.137-6.865-11.805-13.616 6.705-13.585 31.34-19.834 40.5-19.652z m66.273 9.36c3.003 1.28 5.088 33.156-6.41 46.397-4.82 5.552-13.355-2.078-13.528-5.393-0.574-11.025 18.577-41.586 19.938-41.006z m-38.68 2.91c0.325-0.012 0.58 0.028 0.756 0.124 1.27 0.7-7.563 28.066-15.533 32.645-2.396 1.377-13.112-1.212-12.365-7.132 1.67-13.238 22.265-25.435 27.143-25.635z m283.926 25.642c-7.37 19.928-18.22 47.66-27.638 65.084-14.927 27.616-30.982 56.845-55.205 79.562-18.01 16.892-40.096 28.675-62.217 37.465-17.536 6.968-34.834 5.994-47.87 10.537-7.17 2.5-15.877 10.933-25.573 21.287-9.697 10.353-20.54 22.33-35.166 29.792-11.15 5.69-24.748 7.68-38.69 7.846 13.48 3.14 28.213 5.623 44.417 7.332 0.093-0.034 9.77-3.616 21.62-8.684 11.91-5.09 26.07-11.856 33.46-16.992 6.478-4.5 12.204-11.614 18.567-19.38 6.363-7.767 13.436-16.254 23.785-21.973 19.882-10.988 41.663-9.71 58.444-14.193 11.183-2.987 20.21-3.2 24.014-6.382 6.98-5.837 10.426-17.18 14.07-30.604 3.644-13.422 7.636-29.156 21.375-38.927 6.474-4.604 12.825-4.546 18.266-4.773 1.36-0.057 2.662-0.076 3.852-0.07 0.388 0.002 0.707 0.013 1.07 0.02 11.538-31.327 14.215-56.02 12.407-77.43-0.572-6.76-1.608-13.23-2.99-19.516z m-329.788 7.668c0.77 0.01 1.305 0.13 1.54 0.36 0.854 0.826-12.014 20.554-19.298 22.456-2.19 0.572-10.104-3.784-8.24-8.303 3.89-9.43 20.615-14.593 25.998-14.513z m108.668 4.59c3.25 0.106 18.923 13.65 18.173 24.92-0.324 4.878-9.348 5.28-11.06 3.798-5.694-4.93-8.52-28.32-7.39-28.683 0.08-0.025 0.172-0.037 0.277-0.034z m-62.213 3.185c0.06-0.015 0.107-0.012 0.138 0.008 2.238 1.368 2.52 23.227-6.79 30.234-3.904 2.938-10.1-3.64-10.094-5.907 0.015-7.3 14.895-23.87 16.747-24.336z m238.277 43.984c-5.864 6.003-12.288 12.424-19.147 19.02-29.546 28.422-66.15 59.934-98.76 72.493-12.84 4.944-25.656 3.46-37.06 2.21-11.403-1.25-21.513-2.254-29.603 0.226-10.87 3.33-20.9 11.343-31.78 20.317-10.88 8.974-22.615 18.912-38.048 23.537-19.014 5.698-45.372 5.95-67.737 5.244-9.818-0.31-18.697-0.864-25.706-1.39 3.16 2.875 6.44 5.682 9.858 8.408 6.895 5.5 14.363 10.7 22.517 15.54 5.198 1.216 20.1 4.506 38.1 6.614 22.188 2.6 48.33 2.293 60.57-3.95 10.72-5.47 20.475-15.673 30.208-26.065 9.733-10.393 19.288-21.274 32.79-25.98 17.582-6.127 34.547-5.26 47.144-10.267 20.79-8.26 40.87-19.16 56.55-33.867 20.7-19.412 35.725-45.58 50.102-72.09z m28.162 55.92c-3.02 0.497-5.553 1.285-5.28 1.09-7.28 5.178-10.838 15.723-14.437 28.978-0.423 1.557-0.847 3.153-1.282 4.765 4.742-5.842 8.917-11.45 12.354-16.646 3.184-6.29 6.057-12.346 8.644-18.188z m-63.65 78.56c-2.585 0.34-4.937 0.65-6.877 1.168-20.564 5.492-40.432 4.846-54.384 12.557-6.653 3.676-12.386 10.08-18.568 17.627-6.183 7.546-12.74 16.168-22.217 22.753-5.612 3.9-12.695 7.71-20.023 11.247 30.108-4.878 62.478-20.803 91.664-41.387 10.65-7.51 20.854-15.632 30.406-23.965z" /></svg>