<svg xmlns="http://www.w3.org/2000/svg" width="100%" height="100%" viewBox="0 0 588.8 588.8"><path fill="currentColor" d="M102.66399999999997 83.10399999999998c-88.765 25.213-39.73 158.676-2.108 161.887-8.506 42.218-13.32 84.645-12.642 127.824 0.355 22.67 51.374 58.424 105.35 86.035C224.87999999999997 505.18699999999995 277.38 505.27599999999995 294.4 505.69599999999997c17.02-0.42 69.52-0.51 101.137-46.846 53.975-27.61 104.994-63.364 105.35-86.035 0.677-43.179-4.137-85.606-12.643-127.824 37.623-3.211 86.657-136.674-2.108-161.887-28.433 1.462-55.606 16.152-82.172 37.223C356.03999999999996 100.63299999999998 331.56399999999996 99.69599999999997 294.4 99.69599999999997c-37.163 0-61.639 0.937-109.564 20.63-26.566-21.07-53.739-35.76-82.172-37.222z m4.927 49.928c6.057-0.096 17.237 5.625 26.809 14.664 3.362 3.175-22.916 51.05-26.818 50.158-4.59-1.05-14.985-48.285-3.725-63.318 0.745-0.994 2.039-1.477 3.734-1.504z m373.618 0c1.695 0.027 2.99 0.51 3.734 1.504 11.26 15.033 0.865 62.268-3.725 63.318-3.902 0.893-30.18-46.983-26.818-50.158 9.572-9.04 20.752-14.76 26.809-14.664z m-260.85 82.088c17.457-0.304 30.686 24.445 42.041 44.576-53.57 15.878-82.575-17.11-57.752-37.777 5.603-4.665 10.823-6.714 15.711-6.8z m148.082 0c4.888 0.085 10.108 2.134 15.711 6.799 24.823 20.667-4.181 53.655-57.752 37.777 11.355-20.13 24.584-44.88 42.041-44.576zM294.4 289.948c17.32 0.223 36.826 9.567 30.197 36.517-1.444 5.872-12.516 8.617-21.197 9.7v8.972c99.884 41.126 79.565 138.559-9 138.559s-108.884-97.433-9-138.559v-8.972c-8.68-1.083-19.753-3.828-21.197-9.7-6.629-26.95 12.877-36.294 30.197-36.517z" /></svg>