<svg xmlns="http://www.w3.org/2000/svg" width="100%" height="100%" viewBox="0 0 588.8 588.8"><path fill="currentColor" d="M300.9 71.39999999999998l-10 30h87l-10-30h-67zM198.39999999999998 77.39999999999998c-26 0-45.2 9.12-56.9 23.24C129.71999999999997 114.74999999999997 125.39999999999998 132.89999999999998 125.39999999999998 150.39999999999998v263h18V150.39999999999998c0-14.5 3.7-28.35 11.9-38.24C163.59999999999997 102.27999999999997 176.39999999999998 95.39999999999998 198.39999999999998 95.39999999999998h75.5l6-18H198.39999999999998z m79.3 42l-43.7 42.5 41.9-19.1-34.5 86.9 62.6-58.3-1.1 91.7 31.8-101.2 70.5 117.6-31.3-130.9 61.5 36.1L387.9 119.39999999999998H277.7zM110.94999999999997 431.4l-5.08 100h57.03l-5.1-100H110.94999999999997z" /></svg>