<svg xmlns="http://www.w3.org/2000/svg" width="100%" height="100%" viewBox="0 0 588.8 588.8"><path fill="currentColor" d="M294.17999999999995 59.39999999999998C166.498 59.39999999999998 61.869999999999976 164.02799999999996 61.869999999999976 291.71299999999997c0 127.685 104.627 230.78 232.31 230.78 127.685 0 230.782-103.095 230.782-230.78S421.866 59.39999999999998 294.182 59.39999999999998z m-1.06 82l117.374 117.97-23.938 25.093-65.406-37.938v172.47c79.295-13.13 139.78-81.987 139.78-165 0-39.265-13.54-75.368-36.186-103.907 37.702 35.365 61.22 85.81 61.22 141.625-0.002 106.395-85.385 191.78-191.783 191.78-106.398 0-193.31-85.385-193.31-191.78 0-55.123 23.342-105.018 60.624-140.313-22.028 28.33-35.156 63.928-35.156 102.594 0 82.46 59.645 150.973 138.156 164.75v-168.72l-62.5 35.626-25.094-26.28L293.12 141.39999999999998z" /></svg>