<svg xmlns="http://www.w3.org/2000/svg" width="100%" height="100%" viewBox="0 0 588.8 588.8"><path fill="currentColor" d="M112.64699999999998 206.254C-52.20200000000003 413.07099999999997 258.272 380.707 258.272 380.707 177.361 327.614 112.64699999999998 206.254 112.64699999999998 206.254z m5.027 140.538c-8.384-13.955-4.365-37.814 11.23-68.749 3.447 4.516 7.256 9.333 11.335 14.406l19.178 62.17 7.346-31.115a561.216 561.216 0 0 0 50.158 49.33c-51.874 1.67-88.197-7.677-99.247-26.027z m358.494-140.538s-64.729 121.36-145.625 174.453c-0.015 0 310.459 32.364 145.61-174.453z m-5.028 140.538c-11.049 18.38-47.372 27.713-99.246 26.072a561.276 561.276 0 0 0 50.158-49.33l7.33 31.085 19.179-62.215a733.836 733.836 0 0 0 11.335-14.406c15.595 30.995 19.66 54.84 11.23 68.809z" /></svg>