<svg xmlns="http://www.w3.org/2000/svg" width="100%" height="100%" viewBox="0 0 588.8 588.8"><path fill="currentColor" d="M464.64 68.39999999999998c-13.635 0.02-38.617 9.837-47.707 20H106.63999999999997c-32 0-32 64 0 64h310.301c9.088 10.16 34.067 19.978 47.7 20 17.123-0.025 32.937-13.17 41.5-28h-39.5l-22-24 22-24h39.519c-8.565-14.835-24.39-27.982-41.52-28z m-342 36c8.837 0 16 7.163 16 16s-7.163 16-16 16c-8.836 0-16-7.163-16-16s7.164-16 16-16z m75.77 117c-8 0-13.83 4.038-20.166 8.813-6.336 4.774-12.98 10.944-20.041 17.67-13.752 13.096-29.103 28.29-43.608 38.218l45.407 1.135c11.17-20.948 18.277-40.386 38.408-47.836h71v50.572l18 0.45V239.39999999999998h23c11.5 0 30.948 10.484 50.377 26.027 10.483 8.387 21.064 18.01 31.117 27.608l49.611 1.24 49.729-58.018-13.668-11.714-59.237 69.109c-13.952-13.825-29.952-29.196-46.306-42.28C351.46 234.91699999999997 330.90999999999997 221.39999999999998 310.40999999999997 221.39999999999998h-112zM86.38599999999997 303.404c-4.995 0.008-11.034 2.78-15.613 7.36C66.18699999999998 315.34799999999996 63.40999999999998 321.4 63.40999999999998 326.4c0 13 7.276 32.26 16.633 47.23 4.355 6.97 9.123 13.056 13.38 17.313-0.001-0.182-0.013-0.36-0.013-0.543 0-31.374 25.626-57 57-57 31.373 0 57 25.626 57 57 0 2.37-0.163 4.704-0.447 7h190.894a56.952 56.952 0 0 1-0.447-7c0-31.374 25.626-57 57-57 31.373 0 57 25.626 57 57 0 2.37-0.163 4.704-0.447 7h9.392l5.035-45.326c-0.106-12.823-6.276-21.985-14.603-28.647-8.4-6.72-19.377-10.027-24.377-10.027h-0.114l-399.91-9.996zM150.40999999999997 351.4c-21.646 0-39 17.354-39 39s17.354 39 39 39c21.645 0 39-17.354 39-39s-17.355-39-39-39z m304 0c-21.646 0-39 17.354-39 39s17.354 39 39 39c21.645 0 39-17.354 39-39s-17.355-39-39-39z m-215 64v14h110v-14h-110z m48 32v46h14v-46h-14z m-35.438 64l-7 14h98.875l-7-14h-84.875z" /></svg>