<svg xmlns="http://www.w3.org/2000/svg" width="100%" height="100%" viewBox="0 0 588.8 588.8"><path fill="currentColor" d="M118.39999999999998 71.39999999999998c-12.62 0-21.38 6.47-28.26 18.09C83.25999999999998 101.09999999999998 79.39999999999998 117.72999999999998 79.39999999999998 134.39999999999998c0 16.7 3.86 33.3 10.74 44.9C97.01999999999998 190.89999999999998 105.77999999999997 197.39999999999998 118.39999999999998 197.39999999999998h39V71.39999999999998z m57 0v126h174V71.39999999999998z m192 0v126h39c12.6 0 21.4-6.5 28.3-18.1 6.8-11.6 10.7-28.2 10.7-44.9 0-16.67-3.9-33.3-10.7-44.91C427.79999999999995 77.86999999999998 419 71.39999999999998 406.4 71.39999999999998zM157.39999999999998 215.39999999999998v32H79.39999999999998v94h366v-94h-78v-32h-18v32H175.39999999999998v-32z m306 48v30h46v-30z m-337.54 4.2l17.04 5.6-15.96 48-17.08-5.6z m48.04 0l17 5.6-16 48-17-5.6z m48 0l17 5.6-16 48-17-5.6zM123.34999999999998 359.4L103.39999999999998 479.09999999999997c12.89-22.1 26.47-44 42.9-64 18-21.8 39.6-41.3 67.1-55.7z m123.15 5.1c-37.8 13.2-64.3 35.2-86.3 62-22.2 27-39.57 59.1-58.07 90.9H182.39999999999998c5 0 10.7-2.4 17.6-9.4 6.8-6.8 14.3-17.8 21.9-32.7zM285.4 366.4v23h-26l-4 18h30v23h18v-64z" /></svg>