<svg xmlns="http://www.w3.org/2000/svg" width="100%" height="100%" viewBox="0 0 588.8 588.8"><path fill="currentColor" d="M231.49999999999997 64.23999999999998L158.89999999999998 204.59999999999997l21.4 11 14.9-28.9a23.999999999999996 47.99999999999999 27.319999999999993 0 1 7.1-46.4 23.999999999999996 47.99999999999999 27.319999999999993 0 1 36.8-32.98 23.999999999999996 47.99999999999999 27.319999999999993 0 1 6.5 1.39 23.999999999999996 47.99999999999999 27.319999999999993 0 1-0.7 53.69 23.999999999999996 47.99999999999999 27.319999999999993 0 1-33.7 32.6l-15 28.9 31.7 16.4 14.9-28.9a23.999999999999996 47.99999999999999 27.319999999999993 0 1 7.1-46.5 23.999999999999996 47.99999999999999 27.319999999999993 0 1 36.9-32.98 23.999999999999996 47.99999999999999 27.319999999999993 0 1 6.5 1.39 23.999999999999996 47.99999999999999 27.319999999999993 0 1-0.7 53.69 23.999999999999996 47.99999999999999 27.319999999999993 0 1-33.8 32.6l-14.9 28.9 31.7 16.4 14.8-28.9a23.999999999999996 47.99999999999999 27.319999999999993 0 1 7.1-46.5 23.999999999999996 47.99999999999999 27.319999999999993 0 1 36.9-33 23.999999999999996 47.99999999999999 27.319999999999993 0 1 6.5 1.4 23.999999999999996 47.99999999999999 27.319999999999993 0 1-0.7 53.7 23.999999999999996 47.99999999999999 27.319999999999993 0 1-33.8 32.6l-14.9 28.9 31.7 16.3 14.9-28.9a23.999999999999996 47.99999999999999 27.319999999999993 0 1 7.1-46.4 23.999999999999996 47.99999999999999 27.319999999999993 0 1 36.8-33 23.999999999999996 47.99999999999999 27.319999999999993 0 1 6.5 1.4 23.999999999999996 47.99999999999999 27.319999999999993 0 1-0.7 53.7 23.999999999999996 47.99999999999999 27.319999999999993 0 1-33.7 32.6l-15 28.9 31.7 16.3 14.9-28.9a23.999999999999996 47.99999999999999 27.319999999999993 0 1 7.1-46.4 23.999999999999996 47.99999999999999 27.319999999999993 0 1 36.8-33 23.999999999999996 47.99999999999999 27.319999999999993 0 1 6.5 1.4 23.999999999999996 47.99999999999999 27.319999999999993 0 1-0.7 53.7 23.999999999999996 47.99999999999999 27.319999999999993 0 1-33.7 32.6l-15 28.9 31.8 16.4 14.8-28.9a23.999999999999996 47.99999999999999 27.319999999999993 0 1 7.1-46.5 23.999999999999996 47.99999999999999 27.319999999999993 0 1 36.8-33 23.999999999999996 47.99999999999999 27.319999999999993 0 1 6.6 1.4 23.999999999999996 47.99999999999999 27.319999999999993 0 1-0.8 53.7 23.999999999999996 47.99999999999999 27.319999999999993 0 1-33.6 32.6l-15 28.9 21.3 11 72.5-140.3L231.49999999999997 64.23999999999998zM150.7 220.59999999999997L56.39999999999998 403.09999999999997V532.4h145c-6.7-1.8-13.4-4.3-19.8-7.6-47.58-24.6-66.26-83.2-41.7-130.7 17.2-33.5 51.4-52.7 86.6-52.5 14.9 0 30 3.5 44.1 10.8 47.5 24.5 66.2 83.2 41.7 130.7-13.2 25.4-36.1 42.6-61.8 49.3h115.1l81.9-158.5-296.8-153.3z m73.8 138.9c-28.1 0.6-54.9 16.1-68.6 42.8-20.07 38.8-4.9 86.4 33.9 106.5 38.8 20 86.4 4.9 106.5-34 20-38.8 4.9-86.4-34-106.4-11.3-5.9-23.5-8.7-35.4-8.9h-2.4z m13.9 23c25.9 23.7 33.3 72.4 13.3 98.8-10.2 13.7-34.6 13.8-50.5 7.6-14.5-5.7-31.5-21.3-29.1-36.7 3.3-21.3 40.2-23.7 47.3-13 0 0-21.8 1.9-20.4 9.3 1.4 8.5 18.9 7.4 25.7 2.3 18.6-14 18-36.8 13.7-68.3z" /></svg>