<svg xmlns="http://www.w3.org/2000/svg" width="100%" height="100%" viewBox="0 0 588.8 588.8"><path fill="currentColor" d="M293.83799999999997 58.33799999999998c-12.487-0.094-24.863 14.058-28.188 39.968-2.188 17.047 4.64 28.972 14.25 35.125-3.243-4.602-5.02-10.922-4.03-18.81 2.216-17.69 10.448-27.712 18.75-27.814 7.796-0.096 15.655 8.56 18.655 27.813 1.305 8.378 0.14 14.725-2.438 19.218 8.516-5.808 13.958-17.446 11-35.532-4.45-27.22-16.27-39.88-28-39.968z m-115.625 8.03c-0.406-0.006-0.814 0.01-1.22 0.032-11.437 0.61-22.756 12.442-27.155 37.75-2.942 16.92 2.337 27.784 10.718 33.25-1.762-4.28-2.41-9.893-1.312-16.938 2.903-18.63 10.36-27.357 17.906-27.812 8.55-0.516 17.215 9.587 19.5 27.813 0.718 5.73-0.048 10.632-1.75 14.656 8.2-6.214 13.617-16.725 11.625-30.97-3.35-23.948-15.755-37.58-28.313-37.78zM412.36899999999997 73.89999999999998c-0.394-0.008-0.796 0.01-1.19 0.03-11.086 0.64-22.046 13.565-26.31 41.314-3.005 19.538 2.644 31.72 11.342 37.437-3.43-4.524-5.188-11.484-3.687-21.124 3-19.252 10.86-27.908 18.656-27.812 8.302 0.102 16.534 10.123 18.75 27.812 1.14 9.08-1.385 16.09-5.592 20.78 10.213-6.17 17.76-18.926 15.5-37.092-3.252-26.15-15.295-41.095-27.47-41.344zM295.243 122.36999999999998l-7.906 29c-4.147-0.583-8.29-1.915-12.438-4.25v110.56h38.813V147.11999999999998c-3.604 1.357-7.21 2.523-10.813 3.343l-7.656-28.094z m-117.22 7.155l-8 29.313c-3.63-0.79-7.272-1.978-10.905-3.532V257.67999999999995h38.81V155.30699999999996c-3.927 2.038-7.852 3.35-11.78 4.03l-8.125-29.81zM411.37 141.14999999999998l-7.783 28.5c-3.917-1.002-7.83-2.402-11.75-3.844v91.875h38.813v-91.874c-3.743 2.632-7.476 4.146-11.22 4.844l-8.06-29.5zM159.11999999999998 276.37v0.03h-12.407c0 15.576 7.953 25.735 18.312 30.47v28.75c0 35.492 29.227 64.717 64.72 64.717h52.03v92.438c-22.13 3.525-41 15.434-41 35.688H351.12c0-20.314-18.847-32.19-40.97-35.688v-92.438h51.906c35.494 0 63.844-29.53 63.844-64.718v-28.5c10.6-4.616 18.813-14.846 18.813-30.72H430.65v-0.03h-38.813v0.03h-12.562c0 15.545 7.922 25.692 18.25 30.438v28.78c0 20.18-15.59 36.344-35.47 36.344H310.15v-64.968c10.464-4.672 18.53-14.86 18.53-30.594h-14.967v-0.03H274.9v0.03h-11.656c0 15.684 8.067 25.872 18.53 30.563v65h-52.03c-19.88 0-36.344-16.465-36.344-36.344v-28.533c10.57-4.627 18.75-14.845 18.75-30.687h-14.22v-0.03h-38.81z" /></svg>