<svg xmlns="http://www.w3.org/2000/svg" width="100%" height="100%" viewBox="0 0 588.8 588.8"><path fill="currentColor" d="M467.948 69.23599999999998c-0.307-0.003-0.6 0.005-0.875 0.024-2.212 0.147-3.34 0.653-4.576 1.89l-27.58 27.58 55.156 55.154 27.578-27.58c1.238-1.236 1.744-2.363 1.89-4.575 0.15-2.21-0.37-5.433-1.805-9.163-2.87-7.46-9.277-16.667-17.055-24.445-7.778-7.778-16.985-14.185-24.445-17.055-3.264-1.255-6.138-1.81-8.287-1.83z m-45.758 42.22l-9.9 9.9 9.9 9.9 12.727 12.727 9.9 9.9 12.727 12.728 9.9 9.9 9.9-9.9-55.155-55.155z m-22.627 22.626L111.06499999999998 422.58599999999996l9.898 9.897 288.5-288.5-9.9-9.9z m22.627 22.63L133.69 445.20799999999997l9.9 9.902 288.5-288.5-9.9-9.9z m22.63 22.626l-288.502 288.5 9.897 9.9 288.503-288.5-9.9-9.9zM101.62299999999998 438.59799999999996l-12.12 30.306 30.393 30.394 30.305-12.12-6.61-6.612L130.85999999999996 467.84l-9.9-9.9-12.73-12.728-6.61-6.612z m-19.395 48.488l-12.993 32.478 32.478-12.992-19.486-19.485z" /></svg>