<svg xmlns="http://www.w3.org/2000/svg" width="100%" height="100%" viewBox="0 0 588.8 588.8"><path fill="currentColor" d="M63.39999999999998 95.39999999999998v398h462V95.39999999999998H63.39999999999998z m30 30h306v338H93.39999999999998V125.39999999999998z m78.94 18l10.042 27.62L111.39999999999998 160.88v18.182l77.957 11.14 36.223 99.612 24.806-37.12L210.64399999999998 143.39999999999998H172.33999999999997zM316.4 143.39999999999998v18h64v-18h-64z m0 32v18h64v-18h-64z m106 39h82v48h-82v-48z m18 18v12h46v-12h-46z m-59 28.666l-115.803 22.107 7.26 16.936L381.4 279.39v-18.324zM422.4 278.4h82v48h-82v-48z m-174.178 9.928l-57.314 85.77 48.18-11.243 49.18 18.893-40.046-93.42zM440.4 296.4v12h46v-12h-46z m23.646 53c22.538 0 41 18.463 41 41s-18.462 41-41 41c-22.537 0-41-18.463-41-41s18.463-41 41-41z m0 18c-12.81 0-23 10.19-23 23s10.19 23 23 23 23-10.19 23-23-10.19-23-23-23z m-226.25 14.24l-17.777 4.15L214.59999999999997 445.4h36.146l5.164-56.8-18.115-6.96z" /></svg>