<svg xmlns="http://www.w3.org/2000/svg" width="100%" height="100%" viewBox="0 0 588.8 588.8"><path fill="currentColor" d="M75.47999999999998 67.39999999999998c-8.55 0-15.284 6.734-15.284 15.284S66.92999999999998 97.96999999999997 75.47999999999998 97.96999999999997s15.285-6.735 15.285-15.285S84.02999999999997 67.39999999999998 75.47999999999998 67.39999999999998z m31.745 26.3C102.62599999999998 106.80999999999997 90.08999999999997 116.30999999999997 75.47999999999998 116.30999999999997c-5.008 0-9.77-1.123-14.056-3.119l37.413 49.886 19.324-8.453z m16.708 78.418l-16.435 7.19 111.193 283.177 16.108-8.056z m213.04 198.173v14.265h79.479v-14.265z m0 32.607v46.872h79.479v-46.872z m-149.69 32.606l-4.56 11.398a58.622 58.622 0 0 1 15.041 12.014l-8.78-23.412z m60.01 0l5.35 14.266h65.99v-14.266z m-92.713 22.417a39.601 39.601 0 0 0-39.74 39.74A39.601 39.601 0 0 0 154.57999999999998 537.4a39.601 39.601 0 0 0 39.74-39.74 39.601 39.601 0 0 0-39.74-39.739z m100.877 10.19v30.569h242.512v-30.57z m-18.342 5.668l-25.537 12.77a57.869 57.869 0 0 1 1.083 11.112c0 0.341-0.02 0.678-0.026 1.019h24.48v-24.901z m14.84 43.242l-7.134 14.265h263.783l-7.133-14.265z" /></svg>