<svg xmlns="http://www.w3.org/2000/svg" width="100%" height="100%" viewBox="0 0 588.8 588.8"><path fill="currentColor" d="M51.42999999999998 52.555999999999976V98.86999999999998l119.782 144c10.884-12.14 22.31-24.247 34.282-36.22 11.13-11.13 22.32-21.773 33.53-31.938L92.46499999999997 52.555999999999976H51.42999999999998z m432.533 5.97c-2.307 0.043-4.7 0.183-7.188 0.405-19.907 1.777-44.893 9.52-72.656 22.782-45.372 21.676-98.133 57.952-150.564 105.126l-0.03-0.032c-0.96 0.864-1.918 1.754-2.876 2.625-1.927 1.75-3.856 3.504-5.78 5.282-0.034 0.03-0.063 0.064-0.095 0.094-2.795 2.583-5.585 5.17-8.375 7.813-0.107 0.1-0.205 0.21-0.313 0.31-2.9 2.75-5.796 5.562-8.687 8.376-2.902 2.825-5.797 5.674-8.688 8.563-0.078 0.077-0.17 0.14-0.25 0.218l-0.812 0.812C154.56399999999996 284.14599999999996 106.41499999999998 350.53999999999996 79.89999999999998 405.92999999999995c-13.316 27.82-21.125 52.866-22.938 72.814-1.812 19.948 2.15 34.025 10.97 42.844 8.818 8.818 22.895 12.78 42.843 10.968 19.948-1.812 44.995-9.59 72.813-22.906 36.475-17.46 77.708-44.312 119.687-78.625l-13-15.625c-76.125 63.634-142.623 97.127-161.97 77.78-21.25-21.25 21.226-99.45 97.407-184.75l0.344 0.408c12.673-14.077 26.176-28.306 40.438-42.563 12.84-12.838 25.715-25.043 38.47-36.594l-0.408-0.343c86.176-77.464 165.56-120.875 187-99.437 19.556 19.554-14.89 87.342-79.875 164.5l15.658 13.03c35.244-42.798 62.73-84.904 80.468-122.03 13.264-27.763 21.037-52.75 22.813-72.656 1.775-19.907-2.235-33.953-11.064-42.78-7.725-7.726-19.446-11.746-35.594-11.44zM319.42999999999995 241.74299999999997c-13.175 11.87-26.468 24.473-39.75 37.75-14.714 14.71-28.594 29.393-41.56 43.875l66.436 79.874c-0.017 0.014-0.045 0.016-0.062 0.03l13.125 15.75 0.03-0.03 46.03 55.344c-25.77 6.714-52.722 5.31-77.03-7.657 4.94 6.544 9.707 13.083 15.72 19.095 58.928 58.93 146.78 66.75 196.092 17.438 49.314-49.314 41.523-137.165-17.406-196.094-3.683-3.685-6.796-7.407-10.687-10.69-2.463-2.075-5.342-3.71-7.876-5.624 14.742 25.24 16.597 52.502 9.625 78.22L319.42999999999995 241.74299999999997z" /></svg>