<svg xmlns="http://www.w3.org/2000/svg" width="100%" height="100%" viewBox="0 0 588.8 588.8"><path fill="currentColor" d="M171.21299999999997 66.02499999999998l29.593 134.125c4.547 3.588 9.68 4.188 18.063 1.97l5.186-1.376 3.813 3.812 84.218 84.188 3.78 3.78-1.343 5.19c-2.42 9.36-1.483 15.047 3.375 19.905l13.53 13.53 97.533-97.563-13.532-13.53c-3.538-3.54-9.39-4.415-19.655-1.438l-5.313 1.53-3.906-3.906-86.187-86.188-1.626-3.28-1.094-3.314V102.77599999999998c-0.013-0.02-0.018-0.044-0.03-0.063L171.20999999999998 66.02599999999998zM348.99199999999996 123.89999999999998l-14.156 14.188 43.782 43.78 14.186-14.155L348.99399999999997 123.89999999999998z m120.25 95.844l-159.968 159.97 37.063 37.123 160-160-37.094-37.093zM234.89999999999998 237.99399999999997l-175 175v87.594l218.813-218.782-43.813-43.812z" /></svg>