<svg xmlns="http://www.w3.org/2000/svg" width="100%" height="100%" viewBox="0 0 588.8 588.8"><path fill="currentColor" d="M167.68399999999997 194.47199999999998a70.653 70.653 0 0 0-6.262-2.29c-1.569-0.476-3.18-0.932-4.853-1.302a62.484 62.484 0 0 0-5.097-0.912 47.967 47.967 0 0 0-5.139-0.381h-2.511c-0.826 0-1.642 0.095-2.437 0.17a35.612 35.612 0 0 0-4.514 0.741 30.844 30.844 0 0 0-3.867 1.145c-1.176 0.392-2.194 0.9-3.094 1.292-0.9 0.392-1.632 0.858-2.236 1.208l-1.844 1.176 2.12-0.445c0.678-0.116 1.504-0.212 2.426-0.339 0.922-0.127 1.981-0.159 3.179-0.116a27.38 27.38 0 0 1 3.613 0.254 30.643 30.643 0 0 1 3.9 0.773c0.656 0.18 1.324 0.35 1.991 0.594 0.668 0.243 1.325 0.455 1.992 0.73a39.957 39.957 0 0 1 3.889 1.802c1.26 0.689 2.5 1.41 3.666 2.193 1.165 0.785 2.12 1.452 3.073 2.194a35.305 35.305 0 0 1 12.005-8.487z m287.25 39.543a7.417 7.417 0 0 1-7.417 7.417H343.181v-16.953h111.753zM137.89999999999998 245.765c-40.783 27.03-77.211 113.057-73.195 170.497h98.54s-17.907-71.384 6.675-94.885c0.382-0.36 0.784-0.7 1.198-1.06 10.966-19.485 11.178-37.562 0.37-52.629-9.61-13.425-24.804-20.418-33.588-21.922z m-13.033 137.49a12.715 12.715 0 1 1-12.715-12.714 12.715 12.715 0 0 1 12.715 12.715z m395.857-210.579a2.808 2.808 0 0 1 3.677 2.68v32.17H343.21299999999997V182.17h148.096zM162.587 237.30999999999997h-0.159a74.562 74.562 0 0 1 22.834 20.492c14.325 19.942 12.778 40.423 7.089 56.582 5.382 0.222 10.066 1.695 12.227 4.418a55.744 55.744 0 0 0 43.866 21.35c23.237 0 45.212-14.643 48.487-41.503a23.618 23.618 0 0 0 18.15-16.582l11.157-38.315V174.87999999999997H196.313v7.237h-11.051v25.843c-27.549 0.053-22.717 29.35-22.717 29.35z m130.338-38.515a8.477 8.477 0 0 1-8.476 8.476h-55.564a8.477 8.477 0 0 1 0-16.953h55.564a8.477 8.477 0 0 1 8.476 8.477z m0 24.37a8.477 8.477 0 0 1-8.476 8.476h-55.564a8.477 8.477 0 0 1 0-16.953h55.564a8.477 8.477 0 0 1 8.476 8.477z m-8.476 32.317h-55.564a8.477 8.477 0 1 1 0-16.953h55.564a8.477 8.477 0 0 1 0 16.953z m-71.076 43.442c0-14.124 8.476-15.321 20.767-14.95 0.265 1.282 0.562 2.606 0.922 3.963 0.434 1.578 0.9 3.178 1.483 4.8 0.583 1.62 1.23 3.178 1.94 4.8a48.062 48.062 0 0 0 2.415 4.556c0.424 0.73 0.88 1.43 1.356 2.119 0.477 0.688 0.954 1.335 1.442 1.97a35.57 35.57 0 0 0 3.03 3.434 30.78 30.78 0 0 0 3.03 2.67c0.954 0.784 1.929 1.377 2.734 1.928 0.805 0.551 1.6 0.932 2.214 1.25l1.982 0.943-1.505-1.557c-0.455-0.509-0.985-1.155-1.578-1.876a17.971 17.971 0 0 1-1.76-2.585 27.348 27.348 0 0 1-1.705-3.179 30.632 30.632 0 0 1-1.42-3.719c-0.201-0.657-0.403-1.314-0.551-2.002-0.148-0.69-0.329-1.367-0.445-2.12a39.935 39.935 0 0 1-0.54-4.238 43.98 43.98 0 0 1-0.096-4.238c0.042-1.378 0.127-2.787 0.254-4.122 0.085-0.795 0.18-1.557 0.287-2.31h1.165c19.56 0 35.411-4.8 35.411 14.474a35.416 35.416 0 0 1-70.833-0.021z" /></svg>