<svg xmlns="http://www.w3.org/2000/svg" width="100%" height="100%" viewBox="0 0 588.8 588.8"><path fill="currentColor" d="M422.4 88.39999999999998c-14.688 0-29.365 6.747-31.676 20.23 10.285-3.726 21.404-5.66 32.533-5.693 10.456-0.03 20.915 1.62 30.696 5.01C451.27299999999997 94.91699999999997 436.84 88.39999999999998 422.4 88.39999999999998z m0.89 32.697c-10.248 0.03-20.532 1.925-29.447 5.617-6.347 2.63-13.647 6.577-18.795 11.012C369.9 142.16199999999998 367.4 146.45 367.4 150.39999999999998v52.236l110-43.334V150.39999999999998c0-3.913-2.39-8.276-7.207-12.72-4.818-4.44-11.67-8.425-17.688-11.012-8.762-3.768-18.97-5.6-29.216-5.57zM532.4 156.98199999999997L122.29499999999997 318.53999999999996c-5.35 2.733-13.294 10.738-20.874 21.96-7.634 11.304-15.202 25.66-21.79 40.543-10.3 23.274-18.013 48.48-20.917 64.373 22.138-3.977 44.664-8.047 67.347-12.112l5.723-37.95c30.852-8.914 111.01-29.017 154.287-40.42l0.28-0.56 0.634 0.317C383.967 329.15999999999997 448.15 316.577 532.4 306.715V156.98199999999997z m0 167.834c-25.687 3.027-49.473 6.31-72.91 10.152l-35.108 52.364c38.81-4.09 75.245-6.675 108.018-7.112v-55.404z m-97.424 14.397c-41.764 7.628-84.273 17.402-136.435 31.033l-18.333 36.67c41.485-6.58 82.124-12.432 120.756-16.973l34.013-50.73zM275.34 376.39c-36.766 9.856-78.698 21.625-127.913 35.66l-2.672 17.922c37.804-6.734 75.923-13.384 113.56-19.53l17.026-34.052z m65.583 39.733a3495.754 3495.754 0 0 0-24.73 3.623L319.4 456.4h18l3.523-40.277z m-95.9 14.882a6526.23 6526.23 0 0 0-24.88 4.184L223.39999999999998 472.4h18l3.623-41.395z m-96.05 16.54c-8.267 1.467-16.535 2.932-24.762 4.402L127.39999999999998 488.4h18l3.574-40.854z" /></svg>