<svg xmlns="http://www.w3.org/2000/svg" width="100%" height="100%" viewBox="0 0 588.8 588.8"><path fill="currentColor" d="M96.50999999999998 58.55199999999998c20.53 18.986 40.747 38.58 60.482 58.592-0.085 0.062-0.168 0.127-0.252 0.19 13.45 13.612 26.668 27.42 39.617 41.367l0.213-0.142c4.3 4.643 8.576 9.3 12.812 13.97l-0.195 0.126c12.993 14.29 25.67 28.708 37.986 43.19l0.106-0.104c27.063 31.912 52.34 64.147 75.237 96.072 2.08 2.902 4.143 5.8 6.184 8.695l0.723 1.026c1.75 2.486 3.48 4.97 5.2 7.45 0.463 0.67 0.93 1.338 1.392 2.007 1.43 2.076 2.845 4.15 4.254 6.22 0.68 1.003 1.37 2.007 2.048 3.008 1.403 2.076 2.786 4.148 4.166 6.22 0.54 0.808 1.09 1.62 1.627 2.43 0-0.002 0 0 0 0l-0.003-0.003c-2.97-1.966-5.948-3.96-8.928-5.97-0.582-0.394-1.165-0.794-1.747-1.188-2.45-1.66-4.9-3.33-7.353-5.02-0.606-0.417-1.213-0.84-1.82-1.26-2.384-1.648-4.77-3.31-7.16-4.986l-2.05-1.442c-2.514-1.773-5.03-3.56-7.548-5.362l-1.032-0.74c-2.94-2.11-5.883-4.238-8.828-6.387-28.878-21.073-57.928-44.03-86.693-68.44l0.055-0.057c-14.42-12.256-28.77-24.868-42.99-37.795l-0.062 0.1c-4.677-4.246-9.342-8.522-13.99-12.832l0.08-0.117c-13.968-12.973-27.795-26.218-41.418-39.697l-0.096 0.127C97.58999999999997 139.082 79.03599999999997 119.93299999999998 61.02599999999998 100.48599999999998c14.89 23.17 30.88 46.1 47.81 68.67C63.35999999999998 241.94199999999998 72.26099999999997 339.01 135.54199999999997 402.28999999999996c57.81 57.81 143.806 70.223 213.735 37.266-16.82-13.53-33.103-27.866-48.74-42.906-43.354 10.697-91.117-0.853-124.934-34.67-38.908-38.91-48.344-96.285-28.325-144.162 4.546 5.473 9.143 10.917 13.793 16.33-12.57 39.06-3.322 83.547 27.748 114.617 26.16 26.16 61.83 36.84 95.764 32.063-30.955-31.627-59.076-66.004-83.49-102.184 97.134 103.204 211.78 192 327.656 250.217C470.81 413.926 382.45799999999997 299.70799999999997 279.87 202.70799999999997c35.714 23.993 69.634 51.706 100.897 82.21 4.888-34.028-5.787-69.84-32.027-96.08-22.12-22.123-51.042-33.183-79.963-33.183-11.797 0-23.594 1.842-34.93 5.523-5.398-4.646-10.83-9.24-16.287-13.783 16.332-6.867 33.773-10.31 51.217-10.31 33.743 0 67.487 12.847 93.178 38.54 33.88 33.88 45.414 81.762 34.615 125.182 15.026 15.575 29.362 31.8 42.904 48.555 32.952-69.93 20.536-155.932-37.27-213.74-36.82-36.82-85.077-55.232-133.333-55.232-34.703 0-69.406 9.522-99.855 28.565-23.82-17.92-48.043-34.778-72.506-50.4z" /></svg>