<svg xmlns="http://www.w3.org/2000/svg" width="100%" height="100%" viewBox="0 0 588.8 588.8"><path fill="currentColor" d="M97.57999999999998 73.15999999999997v39.65H495.42999999999995V73.15999999999997z m67.5 51.391v73.396h39.994l-0.084-0.042 9.853-6.86 3.569-21.466 9.66 7.119 21.807-3.285-3.883 11.261 6.767 13.274h173.635V124.54999999999998z m-42.87 1.62v176.01h32V126.16999999999997z m313.89 0v176.01h32V126.16999999999997zM314.106 136.79699999999997l-1.055 7.39 8.748 9.638-7.693 2.17-6.674 9.935-1.383 2.06-3.7-6.05-13.727-2.225 5.408-5.908-0.428-13.37 7.043 2.4zM165.07999999999998 251.87999999999997v50.385h261.318V251.87999999999997z m186.41 4.4l16.308 8.05 9.284-3.086-2.358 17.553 6.08 7.808-17.765 2.797-5.528 7.914-8.623-15.824-9.494-2.918 2.135-2.16 10.3-10.418zM117.50499999999998 320.332l-0.904 18.49H473.23999999999995l-0.904-18.49z m-1.783 36.49l-7.76 158.818H481.88l-7.76-158.818z" /></svg>