<svg xmlns="http://www.w3.org/2000/svg" width="100%" height="100%" viewBox="0 0 588.8 588.8"><path fill="currentColor" d="M145.89999999999998 56.39999999999998c40.728 58.21-63.708 25.914-88.03 2.47 1.058 40.082 100.03 99.633 147.374 72.124C234.30399999999997 114.10999999999997 175.384 61.33599999999998 145.89999999999998 56.39999999999998z m97.75 57.28l0.875 1.47c120.364 99-4.023 175.247-64.97 48.78 15.823 82.506-78.425 44.2-89.655-30.655C25.229999999999976 268.86299999999994 211.11499999999998 269.693 216.83799999999997 362.4c3.23 52.3-77.82 19.908-113.875-48.844C346.89 835.49 852.424 301.03999999999996 243.64999999999998 113.67999999999998z m134.97 136.376c44.577 0 85.52 18.708 109.56 52.5 43.656 75.614-63.777 27.4-70.717-8.844-21.45 58.675 101.883 114.72 16 170.375 25.962-34.188 2.345-113.552-87.875-109.125 116.512 72.473 42.326 206.9-19.688 93.157 1.306 35.083 11.99 54.83 27.156 64.436-60.89-11.955-107.03-65.528-107.03-129.906 0-39.06 16.94-74.22 43.874-98.5 1.674 61.897 83.61 37.656 115.97 62.344-11.544-60.34-56.022-59.933-82.72-84.28 16.883-7.803 35.67-12.158 55.47-12.158zM273.12 347.4c-1.386 0.015-2.724 0.112-4.064 0.25 26.032 6.737 74.684 83.827 33.875 61.75 3.41 14.6 43.038 41.75 57.5 21.156 18.816-26.79-44.374-83.634-87.31-83.156z" /></svg>