<svg xmlns="http://www.w3.org/2000/svg" width="100%" height="100%" viewBox="0 0 588.8 588.8"><path fill="currentColor" d="M365.42699999999996 104.21599999999998L268.18999999999994 166.62999999999997l9.856 5.397 86.51-55.53 146.735 83.116-84.165 54.023 4.1 2.244v6.848l65.923-42.316 13.836 7.838-79.76 51.195v11.723l64.633-41.487 15.127 8.57-79.76 51.195v11.723l64.633-41.487 15.127 8.57-79.76 51.195v11.723l100.033-64.21-24.828-14.062 24.827-15.937-24.828-14.064 24.827-15.937-23.537-13.333 23.842-15.305-166.135-94.106z m31.067 44.74c-21.038 10.556-49.06 12.342-68.79 4.383l-38.57 24.757 126.903 69.47 36.582-23.48c-14.41-11.376-13.21-28.35 2.942-41.67l-59.068-33.46zM265.904 185.89999999999998l-70.688 46.094 135.61 78.066 1.33-0.85c2.5-1.61 6.03-3.89 10.242-6.613 8.42-5.443 19.563-12.66 30.674-19.86 16.002-10.37 24.248-15.72 31.916-20.694L265.904 185.89999999999998z m115.467 1.17a8.583000000000002 14.437 82.068 0 1 0.003 0 8.583000000000002 14.437 82.068 0 1 8.32 1.945 8.583000000000002 14.437 82.068 0 1-0.87 12.282 8.583000000000002 14.437 82.068 0 1-20.273 1.29 8.583000000000002 14.437 82.068 0 1 0.87-12.28 8.583000000000002 14.437 82.068 0 1 11.95-3.237z m-218.423 47.115L57.54299999999998 301.84l23.537 13.333-23.842 15.305 24.828 14.063-24.828 15.938 24.828 14.063-24.828 15.938 166.135 94.106L323.67699999999996 420.2V408.47999999999996l-99.433 63.824L77.50999999999998 389.18699999999995l14.255-9.15 131.608 74.547L323.67699999999996 390.2V378.47999999999996l-99.433 63.824L77.50999999999998 359.18699999999995l14.255-9.15 131.608 74.547L323.67699999999996 360.2V348.47999999999996l-99.433 63.824L77.50999999999998 329.18699999999995l13.27-8.52 132.9 75.28 99.997-64.188v-5.05l-5.48-3.154-93.65 60.11-146.73-83.116 94.76-60.824-9.63-5.543z m20.46 11.78l-46.92 30.115c14.41 11.374 13.21 28.348-2.942 41.67l59.068 33.46c21.037-10.557 49.057-12.342 68.787-4.384l45.965-29.504-123.96-71.358z m229.817 32.19c-8.044 5.217-15.138 9.822-30.363 19.688-11.112 7.203-22.258 14.42-30.69 19.873-4.217 2.725-7.755 5.01-10.278 6.632-0.09 0.06-0.127 0.08-0.215 0.137v85.924l71.547-48.088v-84.166z m-200.99 17.48a8.583000000000002 14.437 82.068 0 1 8.32 1.947 8.583000000000002 14.437 82.068 0 1-0.87 12.28 8.583000000000002 14.437 82.068 0 1-20.27 1.29 8.583000000000002 14.437 82.068 0 1 0.87-12.28 8.583000000000002 14.437 82.068 0 1 11.95-3.236z" /></svg>