<svg xmlns="http://www.w3.org/2000/svg" width="100%" height="100%" viewBox="0 0 588.8 588.8"><path fill="currentColor" d="M126.68999999999998 59.88999999999997l-24.05 0.85-3.8 63.18c8.32-3.76 16.95-5.51 24.88-6.24 0.85-19.23 1.83-38.49 2.97-57.79z m369.41 5.58l-22.4 4.15 1.2 79.78 21.4-6.7c-0.2-25.71-0.3-51.45-0.2-77.23zM70.27999999999997 81.78999999999998l-5.26 17.37c5.78 0.11 11.51 0.23 17.26 0.35l1.06-17.51c-1.95 0-12.52-0.2-13.06-0.21zM143.39999999999998 82.95999999999998c-0.4 5.96-0.7 11.91-1 17.86 2.1 0 4.1 0.1 6.1 0.14l6.1-17.82c-6.2-0.1-5.5-0.1-11.2-0.18z m30.1 0.47l-6.2 18.01c89 2.29 175.5 5.36 259.3 9.26l-1.4-23.64c-39.5-0.48-84.5-1.1-131.4-1.79-44.5-0.65-83.7-1.27-120.3-1.84z m269.8 3.86l1.4 24.26c3.9 0.19 7.7 0.38 11.6 0.58l-0.3-24.69H453.4c-3 0-7-0.1-10.1-0.13z m70.7 0.62c0 9.08 0 18.16 0.1 27.23 4.6 0.25 9.2 0.49 13.8 0.74-0.5-4.52-0.7-6.6-1.6-13.01-0.9-5.7-2-11.31-2.9-14.96h-1.1z m-57.5 33.82c-7.8 8.19-15.5 16.37-23.3 24.57 2.4 4.8 5.2 10.8 7.9 17 2.2 5.1 4.4 10.3 6.2 15.2l9.8-9.4zM122.98999999999998 135.89999999999998c-8.85 1.1-17.94 3.9-25.45 9.7L82.05999999999997 403.2c10.51 10.6 25.46 19.8 37.88 24-0.89-96.6-0.75-193.5 3.05-291.3z m297.01 24.4C328.4 256.79999999999995 234.59999999999997 352.9 138.10999999999996 448.79999999999995c0 2 0 4 0.1 6l19.69-0.5 275.1-262.2c-0.3-1-0.6-2-1-3.1-1.9-5.4-4.6-12.1-7.4-18.6-1.5-3.5-3.1-7-4.6-10.1z m76.5 1.2l-21.4 6.8 0.2 11 21.3-4.1c0-4.6-0.1-9.1-0.1-13.7z m0.4 31.9l-21.3 4.1 3.6 247.9 29.1-0.8c-6.5-82.9-9.9-166.7-11.4-251.2zM80.65999999999997 426.5l-1.8 30 41.36-1.2c0-3.1-0.1-6.3-0.11-9.4-13.46-2.9-27.43-9.9-39.45-19.4z m449.34 35.6l-28 0.8 0.3 15.4 26.7-0.9z m-46 1.3l-30.6 0.8 4.5 15.6 26.4-0.9z m-49.2 1.3l-264.7 7.2c0.8 6.3-0.1 12.3-1.5 17.8l270.6-9.2zM151.89999999999998 472.4l-86.61 2.4-6.49 18.7 90.5-3.1c2.1-7 3.4-13.3 2.6-18z m360.8 23.5l-32.7 1.2 0.3 22.4 34.5-2.4c-0.7-7-1.4-14.1-2.1-21.2zM120.85999999999997 509.29999999999995l-45.27 1.6-1.05 17.4 46.57 0.6c-0.1-6.5-0.17-13.1-0.25-19.6z" /></svg>