<svg xmlns="http://www.w3.org/2000/svg" width="100%" height="100%" viewBox="0 0 588.8 588.8"><path fill="currentColor" d="M266.87 86.30599999999998v42.908H57.92999999999998V147.89999999999998h208.94v21.875H57.92999999999998v18.688h208.94V381.42999999999995c-16.86-14.274-43.56-23.457-73.626-23.405-50.982 0.088-92.313 26.714-92.313 59.5s41.332 59.307 92.314 59.22c26.19-0.047 49.822-7.113 66.625-18.408h277.467V439.65H278.74399999999997c4.22-6.653 6.627-13.906 6.812-21.5 0.006-0.25 0.03-0.5 0.03-0.75h251.75l0.002-18.688H285.55499999999995V220.64999999999998c24.89 40.517 45.422 63.12 64.5 74.656 23.127 13.983 44.285 9.79 60.688 3.28 16.403-6.508 29.112-13.624 42.406-11.655 13.294 1.97 30.884 13.118 55.594 50.595l16.5 25c-11.733-45.096-41.555-105.8-75.72-121.28 27.93-4.62 53.664 11.71 76.376 29.718l-1.53-2.313c-13.05-20.11-24.207-33.715-34.658-42.75-10.45-9.035-20.606-13.596-30.343-14.125-19.477-1.058-32.544 12.03-44.595 18.656-6.025 3.314-11.596 5.395-17.813 5.44-6.216 0.043-13.607-1.854-23.562-8.47-19.91-13.232-48.717-45.747-89.188-112.5L266.87 86.30599999999998z" /></svg>