<svg xmlns="http://www.w3.org/2000/svg" width="100%" height="100%" viewBox="0 0 588.8 588.8"><path fill="currentColor" d="M284.19499999999994 57.51999999999998l-52.363 153.513 26.67 61.937 38.884-52.37 53.217 67.493 11.682-40.486-78.09-190.086zM139.57199999999997 232.08999999999997l-29.06 80.222 24.54-12.715 24.803 14.33 11.64-48.013-31.923-33.825z m83.267 5.308l-20.776 60.904-15.27-16.177-14.662 60.48-37.568-21.707-33.44 17.324L57.439999999999976 458.82l84.884 30.937 73.418-22.437 73.935 19.47 71.66-21.536 91.973 25.226 77.28-31.66-48.44-89.006-39.045 26.664-38.892-27.576-27.153 42.79-15.78-10.013 39.032-61.51-26.6-64.752-15.246 52.83-60.634-76.9-43.664 58.81-31.33-72.76z m223.06 65.81L414.23999999999995 353.09999999999997l29.066 20.61 29.865-20.394-27.27-50.11z" /></svg>