<svg xmlns="http://www.w3.org/2000/svg" width="100%" height="100%" viewBox="0 0 588.8 588.8"><path fill="currentColor" d="M243.13199999999998 76.43099999999998L102.39999999999998 102.39999999999998l43.873 21.793C99.18499999999997 165.46499999999997 69.39999999999998 226.02299999999997 69.39999999999998 293.4c0 124.05 100.95 225 225 225s225-100.95 225-225c0-67.377-29.785-127.935-76.873-169.207L486.4 102.39999999999998 345.66799999999995 76.43099999999998 409.332 204.59999999999997l9.834-53.299C458.57 185.90299999999996 483.4 236.67999999999998 483.4 293.4c0 104.595-84.405 189-189 189S105.39999999999998 397.995 105.39999999999998 293.4c0-56.721 24.83-107.497 64.234-142.1l9.834 53.3z m73.994 81.127c-8.391 0-15 6.61-15 15 0 8.391 6.609 15 15 15 8.39 0 15-6.609 15-15 0-8.39-6.61-15-15-15z m-75.369 68.498c-8.39 0-15 6.61-15 15 0 8.391 6.61 15 15 15 8.391 0 15-6.609 15-15 0-8.39-6.609-15-15-15z m129.14-15.232c-8.39 0-15 6.61-15 15 0 8.391 6.61 15 15 15 8.392 0 15-6.609 15-15 0-8.39-6.608-15-15-15z m-205.29 35.611c-8.39 0-15 6.61-15 15 0 8.391 6.61 15 15 15s15-6.609 15-15c0-8.39-6.61-15-15-15z m123.602 23.988c-8.391 0-15 6.61-15 15 0 8.391 6.609 15 15 15 8.39 0 15-6.609 15-15 0-8.39-6.61-15-15-15z m51.687 6.817c-8.39 0-15 6.609-15 15 0 8.39 6.61 15 15 15 8.391 0 15-6.61 15-15 0-8.391-6.609-15-15-15z m72.455 11.834c-8.39 0-15 6.609-15 15 0 8.39 6.61 15 15 15 8.391 0 15-6.61 15-15 0-8.391-6.609-15-15-15z m-197.097 20.273c-8.391 0-15 6.61-15 15 0 8.391 6.609 15 15 15 8.39 0 15-6.609 15-15 0-8.39-6.61-15-15-15z m75.447 29.637c-8.391 0-15 6.61-15 15s6.609 15 15 15c8.39 0 15-6.61 15-15s-6.61-15-15-15z m96.442 15.343c-8.39 0-15 6.609-15 15 0 8.39 6.61 15 15 15 8.391 0 15-6.61 15-15 0-8.391-6.609-15-15-15z m-186.355 33.08c-8.39 0-15 6.609-15 15 0 8.39 6.61 15 15 15 8.391 0 15-6.61 15-15 0-8.391-6.609-15-15-15z m109.116 24.382c-8.391 0-15 6.609-15 15 0 8.39 6.609 15 15 15 8.39 0 15-6.61 15-15 0-8.391-6.61-15-15-15z" /></svg>