<svg xmlns="http://www.w3.org/2000/svg" width="100%" height="100%" viewBox="0 0 588.8 588.8"><path fill="currentColor" d="M151.29999999999998 58.449999999999974V88.89999999999998c15-6.4 31.5-9.95 48.8-9.95 17.4 0 33.9 3.56 48.9 9.99V58.449999999999974z m48.8 38.5c-59 0-106.74 47.65-106.74 106.65 0 59 47.74 106.7 106.74 106.7 59 0 106.7-47.7 106.7-106.7S259.09999999999997 96.94999999999997 200.09999999999997 96.94999999999997z m10.6 27.41l17.4 4.38-18 72.06 35 35-12.8 12.8-42.2-42.2zM56.549999999999976 198.29999999999998v18H75.99999999999997c-0.42-4.2-0.64-8.4-0.64-12.7 0-1.8 0-3.5 0.12-5.3z m295.05 41.6l-8.9 35.8c17.7-9.8 38.1-15.3 59.8-15.3 19.3 0 37.6 4.4 54 12.3l-4.1-32.8z m50.9 38.5c-59 0-106.7 47.7-106.7 106.7s47.7 106.7 106.7 106.7 106.7-47.7 106.7-106.7S461.5 278.4 402.5 278.4z m118.8 20.7l-17.4 13.5c3.5 4.9 6.7 10.1 9.5 15.4l18.9-14.7z m-118.8 7.4c43.3 0 78.6 35.3 78.6 78.6s-35.3 78.6-78.6 78.6-78.6-35.3-78.6-78.6 35.3-78.6 78.6-78.6z m-153.5 11.8c-15 6.4-31.5 10-48.9 10-17.3 0-33.8-3.5-48.8-9.9v30.5h97.7z m153.5 6.2c-33.6 0-60.6 27-60.6 60.6s27 60.6 60.6 60.6 60.6-27 60.6-60.6c0-25.3-15.3-46.8-37.2-55.9L412.5 382.4l17.3 17.8-12.8 12.7-24.5-25 16-63c-2-0.2-4-0.4-6-0.4z m-59.8 170l8.9 35.8H452.4l4.1-32.8c-16.4 7.9-34.7 12.3-54 12.3-21.7 0-42.1-5.5-59.8-15.3z" /></svg>