<svg xmlns="http://www.w3.org/2000/svg" width="100%" height="100%" viewBox="0 0 588.8 588.8"><path fill="currentColor" d="M348.29999999999995 61.439999999999976l-35.2 38.05 34.5 72.21 1.4 3.2-0.9 3.3c-4.7 16-6.6 34.9-4.6 51.9 1.6 13 5.4 24.7 11.5 33.3l160-173.15c-9.1-5.45-21-8.3-34.1-8.84-17.1-0.68-35.8 2.75-51.4 8.67l-3.2 1.19-78-29.83zM304.09999999999997 122.49999999999997L114.75999999999998 217.89999999999998c6.18 2.8 11.68 6.9 16.17 11.9l180.87-91.1-7.7-16.2zM480.2 154.39999999999998l-63.9 69.3c19.1 12 44.7 9 60.6-8.2 15.9-17.1 16.8-42.9 3.3-61.1z m-160.6 0.6l-179.3 90.3c2 5.3 3.1 11.1 3.1 17.1v1.5l183.9-92.7-7.7-16.2zM94.39999999999998 231.39999999999998c-17.23 0-31 13.8-31 31s13.77 31 31 31 31-13.8 31-31-13.77-31-31-31z m45.5 49.1c-2.41 6-6 11.5-10.49 16.1L236.59999999999997 445.4h22.1L139.89999999999998 280.5z m-25.24 26.5c-5.82 2.6-12.25 4.2-19 4.4l96.54 134H214.39999999999998L114.65999999999998 307zM351.4 427.4v18h18v-18h-18z m-180.7 36l-49.57 62H467.7l-49.6-62H170.7z" /></svg>