<svg xmlns="http://www.w3.org/2000/svg" width="100%" height="100%" viewBox="0 0 588.8 588.8"><path fill="currentColor" d="M359.37699999999995 57.10299999999998c-0.496-0.01-0.984-0.007-1.463 0.008-1.358 0.09-2.045 0.27-3.057 0.4L258.78 208.19599999999997c1.53 6.565 3.088 13.04 4.778 19.226l-18.027 4.926c-9.073-33.212-15.026-70.992-26.538-94.735-5.757-11.872-12.47-19.702-20.625-23.246-6.714-2.92-15.483-3.28-27.63 0.6 17.258 50.103 24.184 102.383 33.495 143.826 4.933 21.958 10.617 40.805 18.21 54.317 7.59 13.51 16.324 21.482 29.108 24.625l-4.463 18.148c-18.367-4.515-31.723-17.217-40.94-33.62-4.192-7.46-7.682-15.74-10.726-24.673-30.794 33.74-75.13 70.583-137.602 98.473v135.72h140.437c22.443-42.52 44.626-79.104 66.23-105.74 22.48-27.712 44.393-46.065 68.247-46.47l-0.19 0.006 2.985-0.112-28.434-81.853 21.164-7.057-33.67-79.035 68.99 92.844-27.9 7.52 31.3 66.41 149.417-5.558c4.266-5.493 7.614-14.578 8.1-23.91 0.467-8.97-1.767-17.213-5.073-22.166l-119.5 3.42c0.137-8.21-0.404-16.456-1.55-24.627l130.184-45.302c2.502-6.403 2.67-15.49-0.002-24.108-2.58-8.326-7.588-15.26-12.38-18.79l-130.13 43.943c-3.504-8.287-7.594-16.232-12.177-23.694l108.244-77.542c0.024-6.105-2.634-14.563-7.788-21.476-5.365-7.196-12.655-12.406-19.1-14.172l-109.396 79.31c-6.44-5.683-13.267-10.506-20.36-14.316L396.64 77.62999999999997c-2.26-4.454-6.892-9.397-13.256-13.218-7.39-4.438-16.575-7.177-24.007-7.31z m-8.975 336.23c-3.66 51.045-31.82 66.58-31.82 95.014 0 14.116 15.503 26.684 31.82 26.684 15.958 0 32.457-12.494 32.457-27.357 0-29.613-27.877-43.213-32.458-94.34z" /></svg>