<svg xmlns="http://www.w3.org/2000/svg" width="100%" height="100%" viewBox="0 0 588.8 588.8"><path fill="currentColor" d="M268.525 56.555999999999976V285.4h49.313V56.555999999999976h-49.313zM117.21199999999997 59.83799999999998l-16 136.906c48.707 30.112 97.637 47.843 148.625 53.094V71.52499999999998c-44.244-1.822-88.46-5.89-132.625-11.688z m349.438 0.28c-43.398 6.814-86.784 10.647-130.125 11.97v175c46.732-7.458 95.816-24.375 148.438-50.844L466.65 60.119999999999976z m-1.938 166.532c-44.474 19.847-87.06 32.836-128.187 38.97V285.4h37.031v143.188h-37.031v8.718c0 34.41-20.516 56.084-43.25 56.28-22.734 0.2-43.438-21.34-43.438-56.28v-8.72l-27.656 0.002h-9.343V285.4h37.001v-17.188c-43.774-4.164-86.14-16.857-127.687-38.062 5.04 92.69 3.66 185.37-5.063 278.063 117.402 32.047 234.788 31.002 352.188 0-6.853-93.858-9.223-187.706-4.563-281.563z m-233.187 77.438V409.9H354.87V304.087H231.52399999999997z m20.47 18.156H334.4v67.5H251.99399999999997v-67.5z m18.686 18.687v30.126h45.032V340.92999999999995h-45.03z m-2.155 87.658v8.718c0 28.23 13.32 37.692 24.594 37.594 11.27-0.098 24.718-10.018 24.718-37.594v-8.72l-49.313 0.002z" /></svg>