<svg xmlns="http://www.w3.org/2000/svg" width="100%" height="100%" viewBox="0 0 588.8 588.8"><path fill="currentColor" d="M182.39999999999998 111.39999999999998c-7.5 0-17.6 6.44-28 20.59C143.99999999999997 146.09999999999997 133.66999999999996 166.99999999999997 124.86999999999998 191.39999999999998c-16.66 46.3-28.04 105.4-29.24 158h45.87c0.8-54.6 8.6-115.1 22.2-163.4 7.2-25.6 15.8-47.71 26.4-64.2 1-1.51 2-2.96 3-4.39-0.7-0.85-1.3-1.61-1.9-2.24-2.8-2.75-5-3.77-8.8-3.77z m48 0c-7.5 0-16.2 6.08-25.2 20.1-8.9 14-17.3 34.9-24.1 59.3-13 46.3-20.7 105.6-21.5 158.6H221.39999999999998c0.4-54.2 4.5-114.5 14.2-162.8 4.1-20.4 9-38.6 15.5-53.55-0.4-0.95-0.8-1.87-1.2-2.76-3-6.87-6.4-11.86-9.7-14.81-3.3-2.95-6-4.08-9.8-4.08z m64 0c-7.5 0-14.8 5.66-22.3 19.53-7.5 13.87-14 34.77-18.9 59.27-9.3 46.4-13.2 105.8-13.6 159.2h109.6c-0.4-53.4-4.3-112.8-13.6-159.2-4.9-24.5-11.4-45.4-18.9-59.27C309.2 117.05999999999997 301.9 111.39999999999998 294.4 111.39999999999998z m64 0c-3.8 0-6.5 1.13-9.8 4.08-3.3 2.95-6.7 7.94-9.7 14.81-0.4 0.89-0.8 1.81-1.2 2.76 6.5 14.95 11.4 33.15 15.5 53.55 9.7 48.3 13.8 108.6 14.2 162.8h61.8c-0.8-53-8.5-112.3-21.5-158.6-6.8-24.4-15.2-45.3-24.1-59.3-9-14.02-17.7-20.1-25.2-20.1z m48 0c-3.7 0-6 1.02-8.8 3.77-0.6 0.63-1.2 1.39-1.9 2.24 1 1.43 2 2.88 3 4.39 10.6 16.49 19.2 38.6 26.4 64.2 13.6 48.3 21.4 108.8 22.2 163.4h45.9c-1.2-52.6-12.6-111.7-29.3-158-8.8-24.4-19.1-45.3-29.5-59.41C424 117.83999999999997 413.9 111.39999999999998 406.4 111.39999999999998zM226.09999999999997 126.75999999999998c3.8 0.05 4.8 5.73 1.8 11.64-14.1 25.2-31.2 70.5-41.4 98.1-0.7-27.2 18-85.3 34.1-106.89 2.2-2.03 4.1-2.87 5.5-2.85z m-55.9 0.65c3.1 0.1 5.6 4.05 4.2 7.82-23.8 28.77-32.1 57.67-43.91 86.47 4.13-37.8 18.11-64.8 35.41-91.65 1.3-1.93 2.9-2.68 4.3-2.64z m192.8 1.58c1.5 0 3.1 0.08 4.8 0.24-11.3 7.99-14.4 12.87-16.3 20.47-3.6-13.42-2.6-20.72 11.5-20.71zM292.4 130.70999999999998c3.3 0.06 5.4 3.71 4.2 7.79-16.2 38.8-32 78.7-37 121.1-4.5-30.1 1.6-88.2 26-124.43 2.4-3.24 4.9-4.5 6.8-4.46zM79.93999999999997 367.4c2.35 21.3 13.22 32.9 26.26 46h376.4c13-13.1 23.9-24.7 26.3-46H79.93999999999997zM262.4 431.4v51l-80 48h224l-80-48v-51h-64z" /></svg>