<svg xmlns="http://www.w3.org/2000/svg" width="100%" height="100%" viewBox="0 0 588.8 588.8"><path fill="currentColor" d="M252.42 57.51499999999997l-0.02 0.06c38.033 14.387 73.867 34.09 106.393 58.446L406.41999999999996 196.79999999999998C330.654 110.46299999999998 220.11999999999998 59.077999999999975 103.05999999999997 59.00399999999998c-14.96-0.01-30.027 0.834-45.14 2.535v18.8c108.174-12.774 213.91 21.292 293.527 88.554l42.314 97.416C329.287 170.88599999999997 220.825 112.28499999999998 104.79499999999997 111.60999999999997c-2.45-0.013-4.9-0.002-7.357 0.036-13.106 0.2-26.297 1.157-39.522 2.87v18.85c98.998-13.552 196.12 18.532 267.11 82.264l30.708 87.82C301.81199999999995 217.86999999999998 207.25199999999998 164.79399999999998 105.74799999999998 163.76c-15.818-0.162-31.804 0.958-47.83 3.398v18.914c93.33-15.18 185.38 18.05 247.677 83.27l20.694 83.917C284.955 268.81999999999994 199.06999999999996 215.11599999999999 106.09999999999998 213.82299999999998c-1.256-0.018-2.514-0.025-3.774-0.024-14.688 0.02-29.54 1.36-44.408 4.084v19.036c89.513-17.794 178.655 19.16 230.357 89.468l4.62 73.348c-28.973-83.013-107.888-136.692-193.257-135.87-13.8 0.132-27.768 1.693-41.72 4.78v19.188c77.22-18.904 155.333 13.983 197.095 77.14l5.873 57.49c23.33-6.283 47.534-13.218 68.727-20.873 19.194-6.93 35.884-14.525 46.596-22.038 5.354-3.756 9.142-7.478 11.174-10.574 2.033-3.096 2.47-5.184 2.098-7.59l-1.252-8.123 137.074-39.556C485.29699999999997 198.31999999999996 402.07 108.36399999999998 299.054 57.51399999999998H252.42z m278.86 273.922l-40.196 11.6c1.63 18.66-4.666 36.567-16.397 52.043-14.18 18.707-35.934 34.627-62.363 48.257-45.23 23.33-104.45 39.877-164.397 47.97l4.38 16.35c68.63-7.66 143.34-22.038 198.17-48.538 30.517-14.75 54.633-33.123 68.722-55.33 12.74-20.084 17.775-43.384 12.08-72.353z m-58.513 16.885l-65.027 18.765c-0.736 4.345-2.345 8.51-4.733 12.147-3.925 5.98-9.462 10.986-16.068 15.62-13.213 9.266-30.996 17.098-50.978 24.316-31.927 11.53-68.41 20.998-99.558 29.134l6.644 24.79c59.027-7.79 117.64-24.153 160.71-46.366 24.828-12.805 44.388-27.573 56.037-42.94 8.804-11.614 13.283-23.135 12.972-35.466z m-261.754 77.43l-33.033 8.85 8.197 30.59c10.812 3.95 18.623 14.38 18.623 26.485 0 6.87-2.52 13.2-6.673 18.114l4.716 17.6 33.034-8.85-24.864-92.788zM176.61999999999998 482.19c-1.49 0-2.88 0.33-4.12 0.91l-75.6 20.255c2.926 4.706 4.625 10.24 4.625 16.14 0 0.67-0.03 1.33-0.072 1.987l75.96-20.352c4.96-0.386 8.698-4.37 8.698-9.453 0-5.35-4.138-9.488-9.49-9.488zM70.72699999999998 507.385c-6.798 0-12.11 5.312-12.11 12.11 0 6.798 5.312 12.11 12.11 12.11 6.798 0 12.111-5.312 12.111-12.11 0-6.798-5.313-12.11-12.11-12.11z" /></svg>