<svg xmlns="http://www.w3.org/2000/svg" width="100%" height="100%" viewBox="0 0 588.8 588.8"><path fill="currentColor" d="M294.4 69.60299999999998c-96 0.797-117.377 76.692-79.434 135.133-6.397 6.534-10.344 15.886-0.566 25.664 16 16 32 16 39.852 32.42h80.296C342.4 246.39999999999998 358.4 246.39999999999998 374.4 230.39999999999998c9.778-9.778 5.831-19.13-0.566-25.664C411.777 146.296 390.4 70.39999999999998 294.4 69.60299999999998z m-42.146 101.049c0.426-0.003 0.862 0.007 1.306 0.03 28.404 1.442 40.84 59.718-10.83 51.095-10.412-1.738-17.355-50.963 9.524-51.125z m84.292 0c26.88 0.162 19.936 49.387 9.524 51.125C294.4 230.39999999999998 306.83599999999996 172.12399999999997 335.23999999999995 170.67999999999998c0.444-0.022 0.88-0.032 1.306-0.03zM70.39999999999998 182.39999999999998c7.406 88.586 64.475 175.544 156.623 236.797 17.959-7.251 35.767-15.322 50.424-23.877C218.65399999999997 358.137 143.33899999999997 293.865 70.39999999999998 182.39999999999998z m448 0C397.59999999999997 367.005 270.263 422.197 222.30799999999996 439.197c3.177 5.374 5.997 10.98 8.711 16.432 3.878 7.789 7.581 15.251 11.184 20.986A517.457 517.457 0 0 0 294.4 456.373l0.168 0.076a884.617 884.617 0 0 0 9.652-4.65C429.888 391.66299999999995 509.556 288.18999999999994 518.4 182.39999999999998z m-224 27.725l20.074 40.15L294.4 237.72799999999998l-20.074 12.547L294.4 210.12499999999997z m-65.604 57.11l15.76 51.042s31.268 24.92 49.844 24.92 49.844-24.92 49.844-24.92l15.76-51.041-27.086 19.236-8.063 16.248S305.75 317.947 294.4 317.947c-11.35 0-30.455-15.227-30.455-15.227l-8.063-16.248-27.086-19.236z m-59.984 152.976c-0.783-0.02-1.574-0.011-2.375 0.027l0.856 17.978c6.36-0.302 10.814 2.416 16.11 8.64 5.298 6.222 10.32 15.707 15.24 25.589 4.918 9.882 9.707 20.12 16.122 28.45 6.415 8.327 16.202 15.446 27.969 13.89l-2.36-17.844c-4.094 0.541-6.78-1.099-11.349-7.031-4.57-5.933-9.275-15.46-14.268-25.489-4.992-10.029-10.297-20.604-17.644-29.234-6.888-8.09-16.556-14.686-28.3-14.976z m251.176 0c-11.745 0.29-21.413 6.885-28.3 14.976-7.348 8.63-12.653 19.205-17.645 29.234-4.993 10.03-9.698 19.556-14.268 25.489-4.57 5.932-7.255 7.572-11.35 7.031l-2.359 17.844c11.767 1.556 21.554-5.563 27.969-13.89 6.415-8.33 11.204-18.568 16.123-28.45 4.919-9.882 9.94-19.367 15.238-25.59 5.297-6.223 9.75-8.941 16.111-8.639l0.856-17.978a32.853 32.853 0 0 0-2.375-0.027z m-55.928 18.107c-13.97 10.003-30.13 18.92-47.424 27.478a524.868 524.868 0 0 0 29.961 10.819c3.603-5.735 7.306-13.197 11.184-20.986 2.714-5.453 5.534-11.058 8.71-16.432-0.77-0.273-1.62-0.586-2.43-0.879z m-191.808 23.371l-27.67 10.352 7.904 31.771 36.424-11.707c-1.418-2.814-2.81-5.649-4.207-8.457-4.048-8.131-8.169-15.961-12.451-21.959z m244.296 0c-4.282 5.998-8.403 13.828-12.45 21.959-1.399 2.808-2.79 5.643-4.208 8.457l36.424 11.707 7.904-31.771-27.67-10.352zM116.67099999999998 473.83799999999997a9.632 9.632 0 0 0-1.32 0.12 6.824 6.824 0 0 0-1.217 0.313c-11.544 4.201-25.105 18.04-21.648 29.828 3.07 10.472 19.675 13.359 30.492 11.916 3.828-0.51 8.415-3.761 12.234-7.086l-8.124-32.648c-3.238-1.285-7.214-2.528-10.417-2.443z m355.458 0c-3.203-0.085-7.179 1.158-10.416 2.443l-8.125 32.648c3.819 3.325 8.406 6.576 12.234 7.086 10.817 1.443 27.422-1.444 30.492-11.916 3.457-11.788-10.104-25.627-21.648-29.828a6.824 6.824 0 0 0-1.217-0.312 9.632 9.632 0 0 0-1.32-0.122z" /></svg>