<svg xmlns="http://www.w3.org/2000/svg" width="100%" height="100%" viewBox="0 0 588.8 588.8"><path fill="currentColor" d="M285.7347 62.48439999999998l-41.8596 8.225v138.0625l-39.8029-5.2875v-124.8438l-144.6721 28.4937 6.7568 95.175 219.5779 41.4188v-181.2437z m17.3312 0v181.2437l219.5783-41.4188 6.7558-95.175-144.6716-28.4937v124.8438l-39.95 5.2875v-138.0625l-41.7125-8.225z m-235.5875 157.5969l3.9658 55.5188 165.0875 45.825v96.6437l-160.0942-70.2062 5.2875 73.8781 204.0096 104.4281v-264.9625l-218.2563-41.125z m454.1374 0l-218.5499 41.2719v264.9625l204.3033-104.5751 5.1404-73.7313-159.8 70.0594v-96.6437l164.9404-45.825 3.9658-55.5188z" /></svg>