<svg xmlns="http://www.w3.org/2000/svg" width="100%" height="100%" viewBox="0 0 588.8 588.8"><path fill="currentColor" d="M248.74399999999997 76.08799999999998C182.384 82.52999999999997 118.26999999999998 98.58099999999997 63.805999999999976 120.67999999999998c34.89 96.964 53.863 196.424 58.625 298.283 11.597-16.34 22.7-32.904 33.282-49.75-11.147-47.785-18.01-95.617-22.75-147.282-0.032-0.205-0.03-0.387-0.062-0.593-2.006-13.367 0.3-24.896 5.938-33.406 5.722-8.64 14.723-13.84 24.093-14.874 16.566-1.828 33.768 9.877 39 30.625 11.84-0.146 24.04 0.525 36.72 2.25 10.272-25.918 19.5-52.398 27.625-79.468-4.062-17.09-9.867-33.89-17.53-50.374z m33.062 63.25C250.33599999999998 241.27399999999997 203.59999999999997 335.07 143.212 421.806c20.268-6.85 40.233-14.247 59.907-22.25 20.403-47.25 44.55-91.493 73.093-137.687 0.103-0.197 0.24-0.34 0.343-0.532 6.43-11.87 15.17-19.72 24.78-23.125 9.77-3.462 20.08-2.185 28.19 2.625 14.333 8.503 21.04 28.18 12.75 47.906 9.522 6.987 18.858 14.834 27.937 23.812 20.263-13.157 40.12-27.132 59.593-41.937l7.094-5.407 2.28 2.718c7.482-16.733 13.267-34.34 17.22-52.905-56.9-34.774-117.79-60.575-174.594-75.688z m152 151.593c-98.643 73.604-207.298 126.464-325 161.376 2.707 25.087 9.24 40.237 30.03 54.406 70.145-52.36 138.253-87.52 218.283-120.125 0.19-0.078 0.37-0.17 0.56-0.25v0.032c12.2-5.808 23.878-7.014 33.658-4.095 9.93 2.964 17.533 10.085 21.25 18.75 6.57 15.317 0.383 35.172-17.938 46.22 6.7 21.078 11.115 44.2 11.75 70.56 46.653-10.584 88.176-30.81 123.906-62.842-25.487-61.64-59.505-118.334-96.5-164.032z" /></svg>