<svg xmlns="http://www.w3.org/2000/svg" width="100%" height="100%" viewBox="0 0 588.8 588.8"><path fill="currentColor" d="M255.79999999999998 65.82999999999998c-27.9 0.47-53.1 17.11-64.5 42.84l136.5 41.23c6-35.79-15.5-70.49-50.1-81.02-6.2-1.88-12.7-2.91-19.2-3.05h-2.7z m-69.7 60.08c-6.1 35.89 15.4 70.69 50.1 81.19 34.8 10.5 71.9-6.7 86.5-40z m265.5 44.29c-25.3 0.1-52.2 12.3-72.5 41L254.29999999999998 388.09999999999997c-33.5 47.4-18.9 97 14.1 120.4 33.1 23.5 84.6 20.8 118.1-26.6l124.7-176.8c33.5-47.5 18.9-97-14.1-120.5-12.4-8.8-27.3-13.9-43-14.4z m-1.8 17.3c1.3 0 2.6 0 3.8 0.1 12.1 0.5 23.5 4.8 33.1 11.7 25.7 18.2 38.6 54.5 9.7 95.4l-64.5 91.5c-35.8-9.6-81.8-42.3-102.7-73l64.7-91.6c16.9-23.9 37-33.7 55.9-34.1zM129.64999999999998 263.7c-9.62 0.1-19.11 2.1-27.93 6-33.11 14.5-50.34 51.5-40.24 86.3l130.72-57.1c-13.1-22.1-36.9-35.5-62.55-35.2z m69.65 51.6L68.59999999999998 372.5c18.45 31.4 57.3 44 90.6 29.5 33.2-14.6 50.4-51.8 40.1-86.7z" /></svg>