<svg xmlns="http://www.w3.org/2000/svg" width="100%" height="100%" viewBox="0 0 588.8 588.8"><path fill="currentColor" d="M207.39999999999998 95.39999999999998v430h78V95.39999999999998h-78zM63.39999999999998 143.39999999999998v190h46V143.39999999999998H63.39999999999998z m158 23h18v320h-18V166.39999999999998z m128.725 7.69l-45.276 8.124 61.825 344.497 45.276-8.124-61.825-344.497zM127.39999999999998 191.39999999999998v270h62V191.39999999999998H127.39999999999998z m281.502 28.68l-27.594 11.773 5.494 12.877 27.594-11.773-5.494-12.877z m12.56 29.433l-27.597 11.772 5.494 12.877 27.593-11.772-5.492-12.877z m12.555 29.434l-27.594 11.77 99.674 233.628 27.594-11.773-99.673-233.625zM63.39999999999998 351.4v30h46v-30H63.39999999999998z m190 7h18v128h-18V358.4zM63.39999999999998 399.4v126h46V399.4H63.39999999999998z m64 80v46h62v-46H127.39999999999998z" /></svg>