<svg xmlns="http://www.w3.org/2000/svg" width="100%" height="100%" viewBox="0 0 588.8 588.8"><path fill="currentColor" d="M337.45 57.57399999999998c-1.69 0.003-3.38 0.038-5.064 0.103-58.35 2.28-110.84 41.947-126.736 101.272l-15.37 57.356 44.378 11.89 14.597-54.476c13.028-48.618 62.988-77.523 111.518-64.52 48.53 13.004 77.047 64.12 64.316 111.634l-14.598 54.478 44.38 11.89 15.368-57.355c19.06-71.135-23.9-147.997-96.897-167.556-11.998-3.214-24.046-4.738-35.892-4.716zM163.60999999999996 228.50699999999998L105.76599999999998 444.38l311.108 83.362 57.843-215.873-311.105-83.363z m123.257 59.026l87.955 51.064-13.57 51.98-63.05-42.04-11.888 96.78-1.154-0.14c-0.02 0.27-0.034 0.544-0.067 0.81-0.772 6.284-4.553 10.746-12.172 13.825-7.617 3.08-18.856 3.833-31.178 0.53-12.323-3.3-23.08-9.927-30.12-17.444-7.038-7.517-10.04-15.49-9.27-21.775 0.773-6.285 4.554-10.748 12.173-13.827 3.81-1.54 8.524-2.497 13.826-2.658 5.303-0.16 11.194 0.476 17.355 2.127 9.618 2.577 18.273 7.184 24.96 12.655l16.202-131.887z" /></svg>