<svg xmlns="http://www.w3.org/2000/svg" width="100%" height="100%" viewBox="0 0 588.8 588.8"><path fill="currentColor" d="M313.9 134.39999999999998l-96 96h-96v128h96l96 96V134.39999999999998z m51.46 27.668l-4.66 17.387c52.066 13.95 88.2 61.04 88.2 114.945 0 53.904-36.134 100.994-88.2 114.945l4.66 17.387C425.21 410.695 466.9 356.36199999999997 466.9 294.4c0-61.963-41.69-116.295-101.54-132.332z m-12.425 46.365l-4.658 17.387C379.35999999999996 234.14799999999997 400.9 262.222 400.9 294.4s-21.54 60.252-52.623 68.58l4.658 17.387C391.80199999999996 369.952 418.9 334.637 418.9 294.4c0-40.238-27.098-75.552-65.965-85.967z m-12.424 46.363l-4.657 17.387C345.95 274.89 352.9 283.947 352.9 294.4s-6.95 19.51-17.047 22.217l4.658 17.387c17.884-4.792 30.39-21.09 30.39-39.604 0-18.513-12.506-34.812-30.39-39.604z" /></svg>