<svg xmlns="http://www.w3.org/2000/svg" width="100%" height="100%" viewBox="0 0 588.8 588.8"><path fill="currentColor" d="M310.9 57.305999999999976c-12.775 0.17-26.23 2.553-40.344 7.594-30.165 55.31-68.313 120.904-125.72 178.5-21.19 21.26-39.23 44.94-52.28 68.313 1.294 6.312 4.984 11.65 10.72 17.406 10.992 11.032 30.86 21.618 54.593 33.25 46.313 22.695 107.284 50.39 146.374 108.467l195.625 0.032c-20.198-70.834-100.276-101.12-159.064-83.94-0.073 0.03-0.145 0.066-0.22 0.095-1.61 0.633-3.27 1.138-4.967 1.563-0.024 0.005-0.04 0.025-0.064 0.03-8.86 2.204-18.82 1.68-29.125-0.406-24.79-5.02-52.76-19.695-61.342-45.687-28.615-86.673 16.65-179.742 78.156-223.28 23.064-16.328 49.06-25.848 74.47-24.47 0.144 0.008 0.29 0.023 0.436 0.03-24.19-22.74-53.33-37.95-87.25-37.5z m81.75 56c-19.213 0.01-39.414 7.59-58.625 21.188-54.644 38.682-96.652 125.024-71.188 202.156 5.127 15.53 27.25 29.162 47.282 33.22 10.015 2.027 19.218 1.518 23.717-0.283 2.25-0.9 3.173-1.84 3.594-2.562 0.422-0.72 0.81-1.663 0.25-4.375-9.08-44.167-2.743-84.61 22.533-114.47 23.586-27.863 62.753-45.462 117.406-50.686-15.014-47.145-37.47-71.226-61.314-80.03-6.407-2.368-13.032-3.706-19.812-4.064-1.272-0.067-2.563-0.094-3.844-0.094zM82.17999999999998 332.62c-5.405 12.554-9.136 24.756-10.905 36.186 7.178 27.76 51.898 55.43 91.094 61.344 1.703-5.973 5.832-11.475 10.28-14.25 51.01 28.844 86.18 60.704 102 101h229.594c0.697-9.613 0.44-18.712-0.625-27.344l-204.314-0.03h-5.125l-2.75-4.345c-35.405-55.575-93.93-82.58-141.78-106.03-23.925-11.724-45.17-22.336-59.625-36.844-2.978-2.99-5.618-6.225-7.844-9.687z" /></svg>