<svg xmlns="http://www.w3.org/2000/svg" width="100%" height="100%" viewBox="0 0 588.8 588.8"><path fill="currentColor" d="M236.89999999999998 63.39999999999998l-29.4 88.1c0.3 2.5 1.6 4.9 5 7.8 3.9 3.4 10.5 6.8 18.7 9.6 16.6 5.5 40 8.5 63.2 8.5 23.2 0 46.6-3 63.2-8.5 8.2-2.8 14.8-6.2 18.7-9.6 3.4-2.9 4.7-5.3 5-7.8L351.9 63.39999999999998h-115zM77.42999999999998 79.39999999999998l-11.5 46H197.2l15.4-46H77.42999999999998z m298.77 0l15.4 46h131.3L511.4 79.39999999999998H376.2zM253.39999999999998 93.39999999999998h82v52h-82V93.39999999999998z m18 18v16h46V111.39999999999998h-46zM108.30999999999997 143.39999999999998c-5.4 12.2-10.48 29.1-15.13 48.5 50.82 3.4 89.62 5.8 122.92 7.4l1.9-16.2c-6.6-2.7-12.4-6-17.2-10.1-6.6-5.7-11.4-13.6-11.4-22.6v-1.5l1.8-5.5H108.30999999999997z m289.29 0l1.8 5.5v1.5c0 9-4.8 16.9-11.4 22.6-4.8 4.1-10.6 7.3-17.1 10.1l1.9 16.2c33.2-1.6 72-4 122.8-7.4-4.6-19.4-9.7-36.3-15.1-48.5h-82.9z m-162.6 45.3l-27.2 230.8L294.4 520.5999999999999l86.6-101.1-27.2-230.8c-17.6 4.5-38.4 6.7-59.4 6.7s-41.8-2.2-59.4-6.7zM89.18999999999997 209.79999999999998c-3.01 14.3-5.78 29.6-8.3 45.3 53 3.5 93.41 6.2 127.71 7.9l5.4-45.7c-33.8-1.6-73.2-4.1-124.81-7.5z m410.41 0c-51.5 3.4-90.9 5.9-124.7 7.5l5.4 45.7c34.3-1.7 74.6-4.4 127.6-7.9-2.5-15.7-5.3-31-8.3-45.3zM78.15999999999997 273c-1 6.9-1.94 13.7-2.83 20.6-1.08 8.4-2.08 16.7-3.02 25 53.35 3.6 94.19 6.2 128.79 8l5.4-45.7c-34.6-1.7-75.25-4.4-128.34-7.9z m432.54 0c-53.1 3.5-93.7 6.2-128.3 7.9l5.3 45.7c34.6-1.8 75.5-4.4 128.8-8-0.9-8.3-1.9-16.6-3-25-0.9-6.9-1.8-13.7-2.8-20.6zM70.36999999999998 336.5c-1.68 16.2-3.04 31.7-4.11 45.6 52.58 3.5 92.94 6.2 127.34 8l5.4-45.6c-34.7-1.8-75.52-4.5-128.63-8z m448.03 0c-53.1 3.5-93.9 6.2-128.5 8l5.3 45.6c34.4-1.8 74.7-4.5 127.3-8-1-13.9-2.4-29.4-4.1-45.6zM64.99999999999997 400.09999999999997C63.939999999999976 416.59999999999997 63.39999999999998 430 63.39999999999998 438.4c0-0.1 0.14 1.3 3.89 3.9 3.75 2.7 10.25 5.7 18.53 8.6 16.56 5.7 40.24 10.7 65.98 14.6 26.2 4 54.6 7 80.3 9l-42.6-49.6 2-16.8c-34.3-1.9-74.5-4.5-126.5-8z m458.8 0c-52 3.5-92.2 6.1-126.5 8l2 16.8-42.6 49.6c25.7-2 54.1-5 80.3-9 25.7-3.9 49.4-8.9 66-14.6 8.3-2.9 14.8-5.9 18.5-8.6 3.8-2.6 3.9-4 3.9-3.9 0-8.4-0.5-21.8-1.6-38.3z" /></svg>