<svg xmlns="http://www.w3.org/2000/svg" width="100%" height="100%" viewBox="0 0 588.8 588.8"><path fill="currentColor" d="M319.693 132.683a9 9 0 0 1-0.23 0.203c-0.027 0.023-0.048 0.046-0.073 0.07 0.113-0.103 0.143-0.126 0.303-0.273z m0.754 0.62c-0.922-0.026-1.59 0.26-1.79 0.333-18.276 16.014-26.02 33.42-43.35 51.993-17.25 18.485-43.688 36.204-96.677 51.225l-31.087 42.13a9 9 0 0 1-7.163 3.657l-50.75 0.45-14.69-8.344-2.622 119.744 14.603-8.426h57.28a9 9 0 0 1 6.934 3.264c13.526 16.35 20.025 32.04 37.946 39.838l200.556 61.878c12.478-0.538 22.443-2.015 28.625-5.568 5.266-3.025 8.892-7.468 10.952-16.584-5.457-2.305-23.53-9.945-47.185-19.853-13.495-5.652-27.03-11.294-37.236-15.494-5.103-2.1-9.382-3.842-12.37-5.027-1.492-0.593-2.672-1.05-3.397-1.317-0.208-0.077-0.253-0.09-0.367-0.13-0.157 0.023-0.3 0.105-1.897-0.677-0.994-0.486-4.692-10.586-4.692-10.588 0 0 5.642-6.027 6.47-6.234 2.54-0.635 2.98-0.25 3.483-0.18 0.2 0.028 0.253 0.05 0.388 0.074 0.13 0.016 0.294 0.036 0.637 0.073 0.89 0.095 2.327 0.236 4.183 0.41 3.713 0.345 9.13 0.827 15.67 1.397 13.082 1.14 30.68 2.633 48.37 4.112 17.69 1.477 35.475 2.942 48.945 4.03 6.734 0.544 12.392 0.992 16.406 1.3 2.006 0.155 3.606 0.275 4.702 0.352 0.445 0.03 0.74 0.05 1 0.065 7.954-0.59 12.096-2.93 14.38-5.373 2.315-2.48 3.274-5.563 3.075-9.477-0.392-7.7-6.855-16.7-13.162-18.697l-125.047-16.39a9 9 0 0 1 0.357-17.886s34.4-3.114 69.246-6.35c17.425-1.62 34.963-3.27 48.35-4.575 6.695-0.654 12.355-1.22 16.42-1.652 2.03-0.215 3.67-0.397 4.798-0.533 0.516-0.062 1.142-0.195 1.516-0.27 10.906-3.095 16.196-7.17 18.164-10.054 2.01-2.944 1.993-5.088 0.517-8.644-2.946-7.1-15.285-15.783-23.27-16.322l-140.36-3.662a9 9 0 0 1-1.555-17.817s30.514-6.195 61.904-12.542c15.695-3.174 31.608-6.386 44.04-8.88 12.434-2.496 20.85-4.184 23.35-4.617 9.49-1.643 13.86-5.275 16.143-9.164 2.282-3.888 2.655-8.88 0.996-14.175-2.902-9.267-11.46-17.814-23.172-18.067-1.672-0.036-3.41 0.098-5.204 0.422a9 9 0 0 1-0.19 0.03l-148.954 23.665c-7.51 10.38-14.5 15.897-23.953 22.977-2.022 57.078-12.448 85.543-27.33 100.578-15.283 15.436-34.4 14.424-40.335 15.908l-4.368-17.46c12.134-3.035 21.968-1.066 31.91-11.11 9.943-10.044 20.786-34.636 22.338-92.803a9 9 0 0 1 3.606-6.965c12.425-9.295 17.212-12.277 25.073-23.886l35.527-78.43c-1.064-7.994-5.013-11.687-9.64-13.893-2.5-1.192-5.197-1.74-7.043-1.79z" /></svg>