<svg xmlns="http://www.w3.org/2000/svg" width="100%" height="100%" viewBox="0 0 588.8 588.8"><path fill="currentColor" d="M200.72199999999998 56.342999999999975l-28.316 105.682 18.053 4.838 4.194-15.654 169.764 45.487 11.28-42.088-169.872-45.105 4.838-18.052 169.87 45.103 4.038-15.066L214.80399999999997 75.99999999999997l3.97-14.82-18.052-4.837zM399.736 137.09999999999997l-14.453 53.943c53.99 13.97 102.986 20.59 150.95 10.964-37.1-32.648-82.453-50.034-136.497-64.906zM167.07599999999996 183.39999999999998l-41.82 101.104 17.27 7.142 6.216-15.023L311.15 343.79999999999995l16.36-39.556-162.43-67.12 7.142-17.27 162.432 67.118 6.254-15.12-162.406-67.18 5.843-14.13-17.27-7.142z m186.818 105.95l-21.344 51.605c51.717 20.872 99.435 33.81 148.24 30.502-32.538-37.196-75.244-60.332-126.896-82.106zM115.50699999999998 304.467l-54.705 94.752 16.186 9.346 8.133-14.086 152.23 87.893 20.472-35.452L105.38799999999998 359.37l9.344-16.183 152.434 87.545 9.117-15.79L124.04999999999998 327.04699999999997l7.643-13.238-16.186-9.344zM286.86 433.99399999999997l-27.92 48.363c48.526 27.46 94.13 46.532 142.942 49.647-27.38-41.132-66.678-69.662-115.02-98.01z" /></svg>