<svg xmlns="http://www.w3.org/2000/svg" width="100%" height="100%" viewBox="0 0 588.8 588.8"><path fill="currentColor" d="M445.4 63.37999999999998v14.04h16V63.39999999999998zM127.38999999999997 63.39999999999998v14.03H143.39999999999998V63.39999999999998zM525.4 95.39999999999998H383.29999999999995v15.96H525.4z m-320 0H63.39999999999998v15.98h142z m256 33.93h-16.1v27.97l13.7 0.1h2.4z m-318 0.1H127.36999999999998v28.07H143.39999999999998z m272 45.87l-0.1 32.1h-78.5l-16-32h-52.8l-16 32.1-78.6-0.1v-32H93.42999999999998l-12.04 48L237.39999999999998 252.79999999999998V246.39999999999998c0.1-31.4 25.7-56.9 57.1-57 31.3 0 57 25.6 56.9 57 0 4.1 0.1 6.4 0.1 6.4L507.4 223.49999999999997 495.4 175.39999999999998zM294.5 207.39999999999998c-21.6 0-39 17.4-39.1 39.1 0.1 21.5 17.5 38.9 39.1 38.9s39-17.4 38.9-39c0.1-21.5-17.3-39-38.9-39z m-0.2 14c13.8 0 25 11.3 25.1 25 0 13.7-11.3 25.1-25 25-13.7 0-25.1-11.3-25-24.9 0-13.8 11.3-25 24.9-25.1z m-54.7 40.5L253.39999999999998 317.4h82l13.9-55.4c-6.8 23.9-28.8 41.4-54.8 41.4-26.1 0-48.1-17.6-54.9-41.5z m-35.8 4.2L98.74999999999997 359.5l83.85 107.7c5-5 11.3-8.8 18.2-11.1L138.59999999999997 356.4l87.9-73-3.4-13.4z m181.3 0.2l-19.4 3.8-3.3 13.4 87.8 73-62.2 99.6c7 2.3 13.2 6.2 18.3 11.3l83.8-107.8zM214.39999999999998 472c-15 0-26.9 11.9-26.9 26.7 0 14.9 11.9 26.7 27 26.8 14.9-0.1 26.9-12 26.9-26.8-0.1-14.8-11.9-26.7-27-26.7z m159.9 0c-14.9 0.1-27 11.9-26.9 26.8 0 14.7 11.9 26.6 27 26.6 15 0 27-11.8 26.9-26.7 0.1-14.8-11.9-26.7-27-26.7z" /></svg>