<svg xmlns="http://www.w3.org/2000/svg" width="100%" height="100%" viewBox="0 0 588.8 588.8"><path fill="currentColor" d="M498.29999999999995 61.87999999999998C365.4 81.88999999999999 228.09999999999997 90.53999999999998 83.99999999999997 81.06999999999998 93.52999999999997 229.49999999999997 102.19999999999997 378.2 100.34999999999998 528.5999999999999c129.65-8.9 259.25-18 393.15-4.1-5.7-154.5-13.9-309 4.8-462.62zM289.5 119.78999999999998c46.4 0.22 93 19.81 126.7 57.71 61.6 69.1 57.7 178.5-9.6 238.4-3.2 2.9-6.5 5.5-9.8 8.1-14.6 26-14.2 57.1-39 61.7-12.9 2.4-26-10.2-37.2-22.7-4.8 8.6-9.7 14.6-15.8 14.4-5.7-0.2-9.1-10.1-11.4-21.5-44.5-1.8-88.6-21.3-120.8-57.5-61.61-69.1-57.77-178.5 9.6-238.5 30.5-27.15 68.8-40.3 107.3-40.11z m4.3 36.31c-6.8 0.1-13.6 0.7-20.4 1.9-1.8 9.6-4.3 18.5-9 18.7-4.9 0.2-8.7-5.2-12.5-12.5-13.6 5.2-26.5 13.1-38.3 23.6-52.3 46.6-63.3 127.4-14.1 182.6 49.1 55.2 130.8 61.2 183.1 14.6 52.3-46.5 55.9-128.4 6.7-183.6-26.9-30.2-61.2-45.3-95.5-45.3z m8.5 44.2c17.9 0.2 35.3 6.1 49.3 18.4 34.3 30.3 33.8 88.2 3 123-30.8 34.9-84.1 39.6-118.4 9.2-34.3-30.3-36.2-83.8-5.3-118.6 18.3-20.7 45.3-32.3 71.4-32z m-10.4 37.7c-14.1-0.1-28.2 5.2-38 16.2-18.5 20.9-12.9 52.8 6.2 69.7 19.1 16.9 53.5 14.8 72-6.1 18.4-20.8 12.4-50.8-6.7-67.7-9-8-21.2-12.1-33.5-12.1z m-2.6 33.6a21.02 19.18 0 0 1 21 19.2 21.02 19.18 0 0 1-21 19.2 21.02 19.18 0 0 1-21-19.2 21.02 19.18 0 0 1 21-19.2z" /></svg>