<svg xmlns="http://www.w3.org/2000/svg" width="100%" height="100%" viewBox="0 0 588.8 588.8"><path fill="currentColor" d="M78.39999999999998 62.39999999999998v464h80v-32H118.39999999999998v-16h40v-48H118.39999999999998v-16h40v-48H118.39999999999998v-16h40v-48H118.39999999999998v-16h40v-48H118.39999999999998v-16h40v-48H118.39999999999998v-16h40V110.39999999999998H118.39999999999998V94.39999999999998h40V62.39999999999998H78.39999999999998z m152 368c-15.503 0-31.65 8.898-45.133 17.184A256.9 256.9 0 0 0 174.39999999999998 454.66799999999995v19.693c3.741-2.82 10.696-7.891 19.244-13.145C206.2 453.50199999999995 222.05199999999996 446.4 230.39999999999998 446.4c8.348 0 16.977 6.256 27.014 14.256C267.45 468.65599999999995 278.897 478.4 294.4 478.4c15.503 0 26.95-9.744 36.986-17.744C341.423 452.65599999999995 350.05199999999996 446.4 358.4 446.4c8.348 0 16.977 6.256 27.014 14.256C395.45 468.65599999999995 406.897 478.4 422.4 478.4c15.503 0 26.95-9.744 36.986-17.744C469.423 452.65599999999995 478.05199999999996 446.4 486.4 446.4c8.348 0 24.201 7.102 36.756 14.816a243.821 243.821 0 0 1 11.244 7.37v-19.194c-0.95-0.603-1.88-1.202-2.867-1.808C518.05 439.298 501.90299999999996 430.4 486.4 430.4c-15.503 0-26.95 9.744-36.986 17.744C439.37699999999995 456.144 430.748 462.4 422.4 462.4c-8.348 0-16.977-6.256-27.014-14.256C385.34999999999997 440.144 373.90299999999996 430.4 358.4 430.4c-15.503 0-26.95 9.744-36.986 17.744C311.37699999999995 456.144 302.748 462.4 294.4 462.4c-8.348 0-16.977-6.256-27.014-14.256C257.34999999999997 440.144 245.90299999999996 430.4 230.39999999999998 430.4z m0 48c-15.503 0-31.65 8.898-45.133 17.184A256.9 256.9 0 0 0 174.39999999999998 502.66799999999995v19.693c3.741-2.82 10.696-7.891 19.244-13.145C206.2 501.50199999999995 222.05199999999996 494.4 230.39999999999998 494.4c8.348 0 16.977 6.256 27.014 14.256C267.45 516.656 278.897 526.4 294.4 526.4c15.503 0 26.95-9.744 36.986-17.744C341.423 500.65599999999995 350.05199999999996 494.4 358.4 494.4c8.348 0 16.977 6.256 27.014 14.256C395.45 516.656 406.897 526.4 422.4 526.4c15.503 0 26.95-9.744 36.986-17.744C469.423 500.65599999999995 478.05199999999996 494.4 486.4 494.4c8.348 0 24.201 7.102 36.756 14.816a243.821 243.821 0 0 1 11.244 7.37v-19.194c-0.95-0.603-1.88-1.202-2.867-1.808C518.05 487.298 501.90299999999996 478.4 486.4 478.4c-15.503 0-26.95 9.744-36.986 17.744C439.37699999999995 504.144 430.748 510.4 422.4 510.4c-8.348 0-16.977-6.256-27.014-14.256C385.34999999999997 488.144 373.90299999999996 478.4 358.4 478.4c-15.503 0-26.95 9.744-36.986 17.744C311.37699999999995 504.144 302.748 510.4 294.4 510.4c-8.348 0-16.977-6.256-27.014-14.256C257.34999999999997 488.144 245.90299999999996 478.4 230.39999999999998 478.4z" /></svg>