<svg xmlns="http://www.w3.org/2000/svg" width="100%" height="100%" viewBox="0 0 588.8 588.8"><path fill="currentColor" d="M93.90499999999997 473.572h91.88v-16.518h-91.88z m265.317-173.437v-49.326l16.518-0.795v66.639H257.018c2.158-5.162 4.316-11.356 6.442-16.518zM504.78499999999997 115.22799999999998l14.949 9.405h-14.949z m-387.136 0.114h15.486v9.291H117.64899999999997z m179.982 138.45c0.207 9.374 2.468 21.442 10.592 32.458-9.952-2.065-22.712-14.03-30.61-22.444 1.353-3.407 2.602-6.504 3.697-9.219z m-134.558-63.088v-49.553h16.518v49.553z m66.071 0v-49.553h16.518v49.553z m-120.786 0v-49.553h38.198v49.553z m87.75 0v-49.553h16.519v49.553zM134.89 255.88799999999998c0.413-12.389-14.608-33.335-30.899-33.335-20.977 0-11.593-8.104-1.331-15.33H524.4V226.29999999999998l-254.312 12.285c-4.976 11.625-22.712 56.976-36.39 92.149l4.779 10.324-9.477 1.858c-3.49 9.033-11.5 29.69-14.856 38.414l3.645 9.797-8.26 2.953c-12.388 32.313-17.55 46.456-17.55 46.456H91.83999999999997S64.39999999999998 431.616 64.39999999999998 423.616c-0.124-43.99 69.292-131.74 70.49-167.728zM262.17999999999995 141.14999999999998H524.4v49.553H262.17999999999995z" /></svg>