<svg xmlns="http://www.w3.org/2000/svg" width="100%" height="100%" viewBox="0 0 588.8 588.8"><path fill="currentColor" d="M410.88 69.61499999999998c-77.65 0-116.48 65.73-116.48 65.73s-38.83-65.72-116.48-65.72c-37.14 0-107.77 33.72-107.77 125.13 0 161.24 224.25 324.43 224.25 324.43s224.25-163.19 224.25-324.43c0-91.42-70.63-125.13-107.77-125.14zM198.39999999999998 167.39999999999998h192v18H198.39999999999998v-18z m23 31h18v176h-18V198.39999999999998z m33 0h80s-8 80-40 80-40-80-40-80z m95 0h18v176h-18V198.39999999999998z m-55 96c32 0 40 80 40 80h-80s8-80 40-80z m-96 93h192v18H198.39999999999998v-18z" /></svg>