<svg xmlns="http://www.w3.org/2000/svg" width="100%" height="100%" viewBox="0 0 588.8 588.8"><path fill="currentColor" d="M178.02499999999998 61.96299999999998c-1.58 0.008-3.147 0.052-4.72 0.125l171.75 258.093h146.25c15.35-16.906 27.875-35.263 35.69-56.56h-96.876c-7.317 18.17-25.136 31.093-45.845 31.093-27.173 0-49.375-22.233-49.375-49.407 0-11.436 3.95-21.978 10.53-30.375l-49.155-77.655c-0.03 0.053-0.063 0.103-0.094 0.156-1.183-2.05-2.395-4.036-3.624-6-30.106-48.086-73.28-69.694-114.53-69.468z m228.656 2.656c-35.864 0.328-72.648 18.056-100.78 57.655h204.125C485.54699999999997 85.53299999999999 446.693 64.24999999999997 406.67999999999995 64.61999999999998z m-253.967 0.25c-11.495 2.624-22.58 7.007-32.876 13 10.672 9.08 17.47 22.6 17.47 37.624 0 12.72-4.873 24.35-12.844 33.125l43.187 67.31h85.594L152.71399999999997 64.86999999999998zM87.89999999999998 84.77399999999997c-17.074 0-30.72 13.645-30.72 30.72 0 17.073 13.646 30.686 30.72 30.686 17.074 0 30.72-13.612 30.72-30.686 0-17.074-13.646-30.72-30.72-30.72z m232.844 56.188l38.97 61.53c7.24-4.184 15.635-6.593 24.56-6.593 27.05 0 49.203 22.03 49.407 49.03h98.75c2.575-11.807 3.757-24.49 3.345-38.25-0.735-24.555-6.237-46.66-15.22-65.718h-199.81z m-259.47 16.062c-4.02 15.02-5.985 31.62-5.436 49.656 0.095 3.143 0.293 6.215 0.562 9.25h89.063l-35.97-56.06c-6.533 3.197-13.86 5-21.593 5-9.79 0-18.926-2.887-26.625-7.845z m323 57.563c-17.073 0-30.687 13.644-30.687 30.718 0 17.074 13.614 30.72 30.688 30.72 17.074 0 30.72-13.646 30.72-30.72 0-17.074-13.646-30.72-30.72-30.72z m-325.03 20.03c3.693 16.938 10.187 32.203 18.75 46.345H234.962l2.75 4.343L315.37 407.92999999999995l9.092 14.345H250.61999999999998c-1.403 6.96-4.274 13.418-8.282 19 22.164 24.562 41.335 52.573 53.843 86.75 35.156-90.944 118.132-134.872 176.564-189.156h-137.72l-2.78-4.19-66.594-100.06H59.24399999999998zM90.89999999999998 299.65c21.193 27.23 49.796 50.764 79.313 75.313 8.633-7.354 19.808-11.813 31.968-11.813 24.116 0 44.348 17.504 48.595 40.438h39.72L224.67999999999998 299.65H90.89999999999998z m111.28 82.188c-17.073 0-30.718 13.644-30.718 30.718 0 17.074 13.645 30.72 30.72 30.72 17.073 0 30.687-13.646 30.687-30.72 0-17.074-13.615-30.72-30.69-30.72z" /></svg>