<svg xmlns="http://www.w3.org/2000/svg" width="100%" height="100%" viewBox="0 0 588.8 588.8"><path fill="currentColor" d="M304.433 70.81999999999998l-85.238 85.238v19.799L324.23199999999997 70.81999999999998h-19.799z m41.528 3.728L222.92299999999997 197.58599999999998l168.291 168.29L514.252 242.83999999999997 345.96 74.54999999999998z m172.02 190.02L412.94199999999995 369.60499999999996h19.799l85.238-85.238v-19.799z m-239.903 13.627l-9.9 9.9 32.527 32.528 9.9-9.9-32.527-32.528z m-22.627 22.627l-23.528 23.527h47.055l-23.527-23.527z m-41.528 41.527l-27.255 27.256h65.054l27.256-27.256h-65.055z m-45.255 45.256l-27.254 27.254h65.054l27.254-27.254h-65.054z m-27.254 45.254l23.527 23.527 23.527-23.527h-47.054z m-21.729 3.728l-9.898 9.899 32.527 32.527 9.898-9.898-32.527-32.527z m-38.767 18.899l-7.504 22.512 37.388 37.388 22.512-7.504v-12.414L93.32999999999998 455.486H80.91799999999998z" /></svg>