<svg xmlns="http://www.w3.org/2000/svg" width="100%" height="100%" viewBox="0 0 588.8 588.8"><path fill="currentColor" d="M57.89999999999998 50.67999999999998c88.718 14.188 164.126 68.854 216.78 159.314C230.13799999999998 165.457 184.52299999999997 126.73999999999998 133.02599999999998 100.14999999999998c32.85 23.08 62.377 54.866 90.844 94.656C172.63699999999997 143.58299999999997 120.35599999999998 101.15599999999998 56.586999999999975 79.67999999999998v35.314c60.134 16.64 118.398 62.562 163.968 129.312l-0.125 0.063 22.19 38.405 157.936-91.188-22.187-38.406-0.064 0.032c-38.38-69.37-83.042-95.124-106.72-102.53H228.86999999999998c62.75 22.53 105.37 69.704 133.78 142.28-50.118-70.19-122.52-123.542-202.656-142.28H57.89999999999998z m153.97 40.47c52.194 21.552 97.93 66.563 110.843 121.594L211.86999999999998 91.14999999999998zM386.9 221.05599999999998l-111.97 64.656L359.65 432.4l111.97-64.656-84.72-146.688z m72.97 33.563l-24 13.843 19.78 34.28 24-13.874-19.78-34.25z m-168.345 97.186L121.86999999999998 449.74399999999997l19.81 34.312 169.626-97.97-19.78-34.28zM503.92999999999995 370.62l-157.936 91.186 22.22 38.47 157.936-91.188-22.22-38.47zM101.11999999999998 451.21l-35.94 20.75 28.907 50.063 35.938-20.75-28.906-50.063z" /></svg>