<svg xmlns="http://www.w3.org/2000/svg" width="100%" height="100%" viewBox="0 0 588.8 588.8"><path fill="currentColor" d="M188.89999999999998 179.39999999999998a9.5 9.5 0 0 0-9.5 9.5v96a9.5 9.5 0 0 0 9.5 9.5 9.5 9.5 0 0 0-9.5 9.5v96a9.5 9.5 0 0 0 9.5 9.5h96a9.5 9.5 0 0 0 9.5-9.5 9.5 9.5 0 0 0 9.5 9.5h96a9.5 9.5 0 0 0 9.5-9.5v-96a9.5 9.5 0 0 0-9.5-9.5 9.5 9.5 0 0 0 9.5-9.5v-96a9.5 9.5 0 0 0-9.5-9.5h-96a9.5 9.5 0 0 0-9.5 9.5 9.5 9.5 0 0 0-9.5-9.5h-96z m9.5 19h77v77h-77v-77z m115 0h77v77h-77v-77z m-19 86.5a9.5 9.5 0 0 0 9.5 9.5 9.5 9.5 0 0 0-9.5 9.5 9.5 9.5 0 0 0-9.5-9.5 9.5 9.5 0 0 0 9.5-9.5zM198.39999999999998 313.4h77v77h-77v-77z m115 0h77v77h-77v-77z" /></svg>