<svg xmlns="http://www.w3.org/2000/svg" width="100%" height="100%" viewBox="0 0 588.8 588.8"><path fill="currentColor" d="M294.4 144.39999999999998c-33.81 0-61.887 22.69-71.25 53.438C212.932 192.61999999999998 201.658 189.39999999999998 189.39999999999998 189.39999999999998c-41.42 0-75 33.58-75 75 0 1.784 0.346 3.405 0.468 5.157C79.68399999999997 281.787 54.39999999999998 315.04999999999995 54.39999999999998 354.4c0 49.706 40.294 90 90 90h300c49.706 0 90-40.294 90-90 0-39.35-25.284-72.614-60.468-84.843 0.123-1.752 0.468-3.374 0.468-5.157 0-41.42-33.58-75-75-75-12.258 0-23.532 3.222-33.75 8.437C356.287 167.08999999999997 328.21 144.39999999999998 294.4 144.39999999999998z m-60 90l60 60 60-60 30 30-60 60 60 60-30 30-60-60-60 60-30-30 60-60-60-60z" /></svg>