<svg xmlns="http://www.w3.org/2000/svg" width="100%" height="100%" viewBox="0 0 588.8 588.8"><path fill="currentColor" d="M251.7 129.64l-67.2 24.26v65.7l67.2-24.2z m250.4 8.7L317.79999999999995 193.2h-1.3c0 1 0 3.3 1.2 6.3 1.2 3.4 3.5 7.1 6 9.5 2.1 2.1 3.9 2.8 5.2 3.1L509.09999999999997 158.39999999999998z m-232 16.86v53l-48.2 17.4-11.4 24.7h178.3l-8.1-33.8-49.6 14.7h-1.4c-7.9 0-14.5-3.9-19.3-8.6-4.8-4.7-8.4-10.5-10.6-16.6-2.3-6-3.5-12.4-1.3-19.1 1.9-6.2 8.6-11.6 15.9-12.5l52.4-15.6-1-3.6z m-136.33 114l-10.71 38h92.64l-5.4 57.1h168l-5.3-57.1h83.8l-10.6-38z m-46.56 56.9l-25.83 76.2H187.7l7.1-76.2z m306.69 0l7.1 76.2H527.4l-26-76.2z m-184.3 57.1l3 38.1h162.3l2.9-38.1zM99.39999999999998 421.2l10.79 38h86.31l-3-38z m294.6 0l-2.9 38h86.2l10.7-38z" /></svg>