<svg xmlns="http://www.w3.org/2000/svg" width="100%" height="100%" viewBox="0 0 588.8 588.8"><path fill="currentColor" d="M294.4 109.69999999999997L53.119999999999976 454.4H535.7z m0 31.4l21 30-21 30-21-30z m-32 45.7l21 30-21 30-21-30z m64 0l21 30-21 30-21-30z m-86.7 32.4l-9.3 13.4 21 30-21 29.9-21-30zM358.4 232.49999999999997l21 30-21 30-21-30z m-64 0.1l21 29.9-21 30-21-30z m-88.6 35l-7.4 10.7 21 30-21 29.9-21-30zM390.4 278.2l21 30-21 30-21-30z m-128 0.1l21 30-21 29.9-21-29.9z m64 0l21 30-21 29.9-21-29.9z m-154.3 37.6l-5.7 8.1 21 30-21 29.9-21-30z m245.9 1.8l25.4 36.2-21 30-21-29.9 21-30zM230.39999999999998 324l21 30-21 29.9-21-29.9z m64 0l21 30-21 29.9-21-29.9z m64 0l21 30-21 29.9-21-29.9zM136.90999999999997 366.09999999999997l-2.52 3.6 21.01 30L129.69 436.4h-42z m315.19 0.4l49 69.9h-42L433.4 399.7l21-30zM198.39999999999998 369.7l21 30-21 29.9-21-29.9z m64 0l21 30-21 29.9-21-29.9z m64 0l21 30-21 29.9-21-29.9z m64 0l21 30-21 29.9-21-29.9z m-224 45.8l14.6 20.9h-29.2z m64 0l14.6 20.9h-29.2z m64 0l14.6 20.9h-29.2z m64 0l14.6 20.9h-29.2z m64 0l14.6 20.9h-29.2z" /></svg>