<svg xmlns="http://www.w3.org/2000/svg" width="100%" height="100%" viewBox="0 0 588.8 588.8"><path fill="currentColor" d="M263.4 63.39999999999998v30h62V63.39999999999998h-62z m8 48v28.6l-5 2.5c-17 8.5-40.6 16.3-59.4 27.6-9.6 5.8-17.6 12-23.2 19.3h221.2c-5.6-7.3-13.6-13.5-23.2-19.3-18.8-11.3-42.4-19.1-59.4-27.6l-5-2.5V111.39999999999998h-46z m-112 96v16h270v-16H159.39999999999998z m16 34v28h238v-28H175.39999999999998z m-16 46v30h270v-30H159.39999999999998z m16 48v94h238v-94H175.39999999999998z m0 112v39c0 1 1.1 4.9 4 9.3 2.9 4.3 7.4 9.3 12.8 13.8 10.8 9 25.2 15.9 38.2 15.9h128c13 0 27.4-6.9 38.2-15.9 5.4-4.5 9.9-9.5 12.8-13.8 2.9-4.4 4-8.3 4-9.3v-39H175.39999999999998z" /></svg>