<svg xmlns="http://www.w3.org/2000/svg" width="100%" height="100%" viewBox="0 0 588.8 588.8"><path fill="currentColor" d="M130.42999999999998 68.34999999999998c-8.9 0-15.3 4.7-19 10.54-3.3 5.26-4.62 11.36-4.91 16.76-10.04 5-21.16 10-30.14 15.1-6.92 4.3-17.07 10.2-17.25 18.4 0.8 6.3 9.28 8.6 13.9 10.05 5.13 1.5 10.83 2.6 15.75 3.1-4.92 8.5-11.48 16.3-17.25 23.8-6.63 8.6-12.4 16.9-12.4 26.1 0.1 3.9 0.6 7.7 4.92 8.1 12.95 0.3 26.7 0.1 39.98 0.1 5.9 0.5 8.7-2.1 11-6.8 3.3-6.9 8.2-16.9 15.4-24.5 6.95 7.6 11.47 15.5 15.57 24.4v0.1c2.4 5.3 5.7 6.8 10.8 6.8l40.1-0.1c4.3-0.5 4.8-4.4 4.8-8.1 0-9.2-5.7-17.5-12.4-26.1-5.7-7.5-12.3-15.3-17.2-23.8 4.9-0.5 10.6-1.6 15.7-3.1 4.8-1.85 13.8-4.15 13.9-10.05-1.2-9.4-10.5-14.5-17.2-18.4-9-5.1-20.1-10.1-30.2-15.1-0.2-5.4-1.6-11.5-4.9-16.76-3.7-5.84-10.1-10.54-18.97-10.54z m164.07 0c-8.9 0-15.3 4.7-19 10.54-3.3 5.26-4.6 11.36-4.9 16.76-10 5-21.2 10-30.1 15.1-7 4.3-17.1 10.2-17.3 18.4 0.8 6.3 9.3 8.6 13.9 10.05 5.1 1.5 10.8 2.6 15.8 3.1-5 8.5-11.5 16.3-17.3 23.8-6.6 8.6-12.4 16.9-12.4 26.1 0.1 3.9 0.6 7.7 4.9 8.1 13 0.3 26.7 0.1 40 0.1 5.9 0.5 8.7-2.1 11-6.8 3.3-6.9 8.2-16.9 15.4-24.5 6.9 7.6 11.4 15.5 15.5 24.4v0.1c2.4 5.3 5.7 6.8 10.8 6.8l40.1-0.1c4.3-0.5 4.8-4.4 4.8-8.1 0-9.2-5.7-17.5-12.4-26.1-5.7-7.5-12.3-15.3-17.2-23.8 4.9-0.5 10.6-1.6 15.7-3.1 4.8-1.85 13.8-4.15 13.9-10.05-1.2-9.4-10.5-14.5-17.2-18.4-9-5.1-20.1-10.1-30.2-15.1-0.2-5.4-1.6-11.5-4.9-16.76-3.7-5.84-10.1-10.54-18.9-10.54z m164 0c-8.9 0-15.3 4.7-19 10.54-3.3 5.26-4.6 11.36-4.9 16.76-10 5-21.2 10-30.1 15.1-7 4.3-17.1 10.2-17.3 18.4 0.8 6.3 9.3 8.6 13.8 10.05 5.2 1.5 10.9 2.6 15.9 3.1-5 8.5-11.5 16.3-17.4 23.8-6.6 8.6-12.3 16.9-12.3 26.1 0.1 3.9 0.6 7.7 4.8 8.1 13 0.3 26.7 0.1 40 0.1 5.9 0.5 8.7-2.1 11-6.8 3.4-6.9 8.2-16.9 15.4-24.5 6.9 7.6 11.4 15.5 15.5 24.4v0.1c2.4 5.3 5.7 6.8 10.8 6.8l40.2-0.1c4.3-0.5 4.8-4.4 4.8-8.1 0-9.2-5.7-17.5-12.4-26.1-5.7-7.5-12.3-15.3-17.2-23.8 4.9-0.5 10.6-1.6 15.7-3.1 4.8-1.85 13.8-4.15 13.9-10.05-1.2-9.4-10.5-14.5-17.2-18.4-9-5.1-20.1-10.1-30.2-15.1-0.2-5.4-1.6-11.5-4.9-16.76-3.7-5.84-10.1-10.54-18.9-10.54zM130.42999999999998 228.39999999999998c-8.9 0-15.3 4.7-19 10.6-3.3 5.2-4.6 11.3-4.9 16.7-10 5-21.2 10-30.1 15.1-7 4.3-17.1 10.2-17.3 18.4 0.8 6.3 9.3 8.6 13.9 10 5.1 1.5 10.8 2.6 15.7 3.1-4.9 8.5-11.4 16.3-17.2 23.8-6.6 8.6-12.4 16.9-12.4 26.1 0.1 3.9 0.6 7.7 4.9 8.1 13 0.3 26.7 0.1 40 0.1 5.9 0.5 8.7-2.1 11-6.8 3.3-6.9 8.2-16.9 15.4-24.5 6.95 7.6 11.47 15.5 15.57 24.4v0.1c2.4 5.3 5.7 6.8 10.8 6.8l40.1-0.1c4.3-0.5 4.8-4.4 4.8-8.1 0-9.2-5.7-17.5-12.4-26.1-5.7-7.5-12.3-15.3-17.2-23.8 4.9-0.5 10.6-1.6 15.7-3.1 4.8-1.8 13.8-4.1 13.9-10-1.2-9.4-10.5-14.5-17.2-18.4-9-5.1-20.1-10.1-30.2-15.1-0.2-5.4-1.6-11.5-4.9-16.7-3.7-5.9-10.1-10.6-18.97-10.6z m164.07 0c-8.9 0-15.3 4.7-19 10.6-3.3 5.2-4.6 11.3-4.9 16.7-10 5-21.2 10-30.1 15.1-7 4.3-17.1 10.2-17.3 18.4 0.8 6.3 9.3 8.6 13.9 10 5.1 1.5 10.8 2.6 15.8 3.1-5 8.5-11.5 16.3-17.3 23.8-6.6 8.6-12.4 16.9-12.4 26.1 0.1 3.9 0.6 7.7 4.9 8.1 13 0.3 26.7 0.1 40 0.1 5.9 0.5 8.7-2.1 11-6.8 3.3-6.9 8.2-16.9 15.4-24.5 6.9 7.6 11.4 15.5 15.5 24.4v0.1c2.4 5.3 5.7 6.8 10.8 6.8l40.1-0.1c4.3-0.5 4.8-4.4 4.8-8.1 0-9.2-5.7-17.5-12.4-26.1-5.7-7.5-12.3-15.3-17.2-23.8 4.9-0.5 10.6-1.6 15.7-3.1 4.8-1.8 13.8-4.1 13.9-10-1.2-9.4-10.5-14.5-17.2-18.4-9-5.1-20.1-10.1-30.2-15.1-0.2-5.4-1.6-11.5-4.9-16.7-3.7-5.9-10.1-10.6-18.9-10.6z m164 0c-8.9 0-15.3 4.7-19 10.6-3.3 5.2-4.6 11.3-4.9 16.7-10 5-21.2 10-30.1 15.1-7 4.3-17.1 10.2-17.3 18.4 0.8 6.3 9.3 8.6 13.8 10 5.2 1.5 10.9 2.6 15.9 3.1-5 8.5-11.5 16.3-17.4 23.8-6.6 8.6-12.3 16.9-12.3 26.1 0.1 3.9 0.6 7.7 4.8 8.1 13 0.3 26.7 0.1 40 0.1 5.9 0.5 8.7-2.1 11-6.8 3.4-6.9 8.2-16.9 15.4-24.5 6.9 7.6 11.4 15.5 15.5 24.4v0.1c2.4 5.3 5.7 6.8 10.8 6.8l40.2-0.1c4.3-0.5 4.8-4.4 4.8-8.1 0-9.2-5.7-17.5-12.4-26.1-5.7-7.5-12.3-15.3-17.2-23.8 4.9-0.5 10.6-1.6 15.7-3.1 4.8-1.8 13.8-4.1 13.9-10-1.2-9.4-10.5-14.5-17.2-18.4-9-5.1-20.1-10.1-30.2-15.1-0.2-5.4-1.6-11.5-4.9-16.7-3.7-5.9-10.1-10.6-18.9-10.6zM130.42999999999998 388.4c-8.9 0-15.3 4.7-19 10.6-3.3 5.2-4.6 11.3-4.9 16.7-10 5-21.2 10-30.1 15.1-7 4.3-17.1 10.2-17.3 18.4 0.8 6.3 9.3 8.6 13.9 10 5.1 1.5 10.8 2.6 15.7 3.1-4.9 8.5-11.4 16.3-17.2 23.8-6.6 8.6-12.4 16.9-12.4 26.1 0.1 3.9 0.6 7.7 4.9 8.1 13 0.3 26.7 0.1 40 0.1 5.9 0.5 8.7-2.1 11-6.8 3.3-6.9 8.2-16.9 15.4-24.5 6.95 7.6 11.47 15.5 15.57 24.4v0.1c2.4 5.3 5.7 6.8 10.8 6.8l40.1-0.1c4.3-0.5 4.8-4.4 4.8-8.1 0-9.2-5.7-17.5-12.4-26.1-5.7-7.5-12.3-15.3-17.2-23.8 4.9-0.5 10.6-1.6 15.7-3.1 4.8-1.8 13.8-4.1 13.9-10-1.2-9.4-10.5-14.5-17.2-18.4-9-5.1-20.1-10.1-30.2-15.1-0.2-5.4-1.6-11.5-4.9-16.7-3.7-5.9-10.1-10.6-18.97-10.6z m164.07 0c-8.9 0-15.3 4.7-19 10.6-3.3 5.2-4.6 11.3-4.9 16.7-10 5-21.2 10-30.1 15.1-7 4.3-17.1 10.2-17.3 18.4 0.8 6.3 9.3 8.6 13.9 10 5.1 1.5 10.8 2.6 15.8 3.1-5 8.5-11.5 16.3-17.3 23.8-6.6 8.6-12.4 16.9-12.4 26.1 0.1 3.9 0.6 7.7 4.9 8.1 13 0.3 26.7 0.1 40 0.1 5.9 0.5 8.7-2.1 11-6.8 3.3-6.9 8.2-16.9 15.4-24.5 6.9 7.6 11.4 15.5 15.5 24.4v0.1c2.4 5.3 5.7 6.8 10.8 6.8l40.1-0.1c4.3-0.5 4.8-4.4 4.8-8.1 0-9.2-5.7-17.5-12.4-26.1-5.7-7.5-12.3-15.3-17.2-23.8 4.9-0.5 10.6-1.6 15.7-3.1 4.8-1.8 13.8-4.1 13.9-10-1.2-9.4-10.5-14.5-17.2-18.4-9-5.1-20.1-10.1-30.2-15.1-0.2-5.4-1.6-11.5-4.9-16.7-3.7-5.9-10.1-10.6-18.9-10.6z m164 0c-8.9 0-15.3 4.7-19 10.6-3.3 5.2-4.6 11.3-4.9 16.7-10 5-21.2 10-30.1 15.1-7 4.3-17.1 10.2-17.3 18.4 0.8 6.3 9.3 8.6 13.8 10 5.2 1.5 10.9 2.6 15.9 3.1-5 8.5-11.5 16.3-17.4 23.8-6.6 8.6-12.3 16.9-12.3 26.1 0.1 3.9 0.6 7.7 4.8 8.1 13 0.3 26.7 0.1 40 0.1 5.9 0.5 8.7-2.1 11-6.8 3.4-6.9 8.2-16.9 15.4-24.5 6.9 7.6 11.4 15.5 15.5 24.4v0.1c2.4 5.3 5.7 6.8 10.8 6.8l40.2-0.1c4.3-0.5 4.8-4.4 4.8-8.1 0-9.2-5.7-17.5-12.4-26.1-5.7-7.5-12.3-15.3-17.2-23.8 4.9-0.5 10.6-1.6 15.7-3.1 4.8-1.8 13.8-4.1 13.9-10-1.2-9.4-10.5-14.5-17.2-18.4-9-5.1-20.1-10.1-30.2-15.1-0.2-5.4-1.6-11.5-4.9-16.7-3.7-5.9-10.1-10.6-18.9-10.6z" /></svg>