<svg xmlns="http://www.w3.org/2000/svg" width="100%" height="100%" viewBox="0 0 588.8 588.8"><path fill="currentColor" d="M92.90999999999997 58.20999999999998c-6.54 32.78-19.9 70.58-34.1 104.99v46.7C79.11999999999998 165.79999999999998 102.71999999999997 107.85999999999997 111.95999999999998 58.20999999999998z m74.49 0c22.6 35.58 18.2 82.49-2 137.49-2.7 7.4-5.7 14.9-8.9 22.5 12.5-14.4 24.5-29.5 35.8-45.1 11.7-42.17 13.1-81.58-3.5-114.89z m110.6 2.33l-4.8 12.61C231.79999999999998 179.79999999999998 151.7 257.2 58.809999999999974 330.4v23.7C153.7 280.5 238.89999999999998 201.89999999999998 285.2 92.69999999999997c23.2 23.64 33.8 46.7 35.7 69.9 2.1 26.2-6.9 53.4-24.6 81.8-9.5 15.3-21.4 30.8-35.2 46.5 13.8-6.5 27.3-13.4 40.5-20.7 3.7-5.3 7.3-10.6 10.6-15.9 18.9-30.5 29.9-61.7 27.3-93.2-2.6-31.49-18.9-62.4-51.4-91.53-3.4-3.01-6.7-6.01-10.1-9.03zM427.4 200.39999999999998l-9.5 9.4c-86.4 84.5-239.1 139.5-359.09 171.9v19.3C176.49999999999997 369.7 327.29999999999995 317.29999999999995 420.9 232.39999999999998c11.7 31 12.1 56.5 4.5 78.6-7 20.2-21.1 38-40.9 54.1 14.3-5.1 28.2-10.5 41.6-16.2 7.2-9.8 13-20.4 16.9-31.8 10.4-29.9 7.9-64.7-10.1-104.5-1.8-4.1-3.6-8.1-5.5-12.2z m94.5 121.5l-11 7.3c-41.3 24.8-82.7 40.1-120.3 53.6-107.7 35.2-242.6 57.9-331.79 65.4v60.3C168.89999999999998 500.79999999999995 480.7 491.9 511.4 363.9c3 27.1-1.6 48.6-11.9 66.6-13.3 23.1-36.6 40.8-67.7 54.6-61.9 27.4-153.5 38.4-245.8 48.2h143.7c40.6-7.4 78.1-17.1 109.7-31.2 33.4-14.8 60.4-34.6 76.3-62.3 15.9-27.7 19.9-62.7 9.4-105.1-1.1-4.2-2.2-8.5-3.2-12.8z" /></svg>