<svg xmlns="http://www.w3.org/2000/svg" width="100%" height="100%" viewBox="0 0 588.8 588.8"><path fill="currentColor" d="M149.21399999999997 57.98399999999998C125.28599999999997 57.49999999999998 104.82999999999998 80.57999999999998 112.97399999999998 110.97199999999998 71.69999999999997 99.91399999999999 39.91999999999998 145.26399999999998 72.20399999999998 175.55199999999996c27.285 25.595 75.65 12.207 105.592 13.594l35.608 35.61-20.8 20.798c-5.792-2.507-11.9-3.718-17.956-3.72-1.102 0-2.2 0.038-3.297 0.117-14.61 1.05-28.493 9.07-36.325 22.636-12.533 21.7-5.02 49.73 16.682 62.26l9.343-16.186c-12.953-7.48-17.322-23.778-9.84-36.73 7.204-12.477 22.578-16.98 35.274-10.622l0.79 0.79 165.18 165.185c22 22 51.77 20.233 71.514 6.043l89.446 89.447 13.215-13.213-89.543-89.545c5.476-7.808 8.98-17.067 9.432-27.056 0.633-13.987-5.028-29.007-17.884-41.863l-166.363-166.37 0.516-0.298c-7.48-12.954-3.115-29.253 9.84-36.73 12.957-7.48 29.25-3.115 36.73 9.84l16.185-9.345c-7.83-13.564-21.715-21.583-36.325-22.63-1.095-0.08-2.195-0.12-3.297-0.118-7.712 0.003-15.515 1.955-22.636 6.066-20.796 12.005-28.546 38.234-18.14 59.498l-18.528 18.53-34.986-34.986c-1.04-30.028 11.983-81.578-14.238-106.203-8.923-8.378-18.818-12.176-28.182-12.366z m107.64 149.752L414.23699999999997 365.13l-49.754 49.754-157.39-157.39 49.76-49.758z m0.837 26.373l-13.214 13.214L374.984 377.83l13.215-13.215L257.68999999999994 234.10999999999999z" /></svg>