<svg xmlns="http://www.w3.org/2000/svg" width="100%" height="100%" viewBox="0 0 588.8 588.8"><path fill="currentColor" d="M56.479999999999976 61.39999999999998l0.1 18H532.4V61.39999999999998H56.479999999999976zM292.7 93.32999999999998L171.39999999999998 99.99999999999997l30.1 68.5 98.1-3.6-6.9-71.57z m115.9 0.28l-92.9 0.53 3 71.96 96.8-0.9-6.9-71.59zM56.62999999999998 94.82999999999998l0.35 74.67 72.27-2.4 24.35-72.27H56.62999999999998zM431.4 102.63999999999997l-0.5 47.16 15.7 21.5 85.8-6.3V103.32999999999998l-101-0.69zM159.2 123.07999999999998l-17.6 49.82 41.1-1-8.2-34.02-15.3-14.8z m354.7 56.02l-4 75.5 22.5-0.6v-74.9h-18.5z m-25.7 3.5l-97.3 10.7L384.4 257.4l110.7-3.2-6.9-71.6z m-243.8 0.7l-4 75.5 126.1-3.9 7-71.1-129.1-0.5z m-145.33 2.7l-3.9 75.5 126.13-3.9-6.9-71.6H99.06999999999998z m-42 1.5l0.33 72.4 24.77-0.8-6.9-71.6h-18.2z m278.93 84.3L314.4 315.59999999999997l2.1 42 128.7-1.9-7.6-79.7-101.6-4.2z m-40.2 1.4l-127.2 6 8 69.5 124.7 6.6-5.5-82.1z m236.6 3.1l-66.5 2.9-7.5 75.8 74-5.2v-73.5z m-474.89 7l0.31 65.8 100.78-3.1-6.9-62.7H57.50999999999998z m470.29 81.2l-115.9 10.5-3.3 65 121.5-3.5-2.3-72z m-422.36 4.1l-47.52 2 0.34 72.9 51.1-1.3-3.92-73.6z m17.84 0l3.98 68.5 138.64 9.6-3-78.1H123.27999999999997z m161.22 4.3l-5.5 69 107.5 5.4-1-73.5-101-0.9z m185.4 81.1l-4 75.5 66.5-0.6v-73.8l-62.5-1.1z m-9.8 1.2l-39 3.6 27.4 28 11.6-31.6z m-399.46 1.8l-2.13 40.6 0.16 34.8H183.79999999999998v-68.9l-46.56-2.5-18.4 14L106.95999999999998 459.4l-46.32-2.4z m247.96 0.3l-111.3 1.5 3.5 72.5 114.7-2.4-6.9-71.6z m101.2 4.3l-72.2 5.9-8.9 62.1 125.6 0.6-6.2-27-38.3-41.6z" /></svg>