<svg xmlns="http://www.w3.org/2000/svg" width="100%" height="100%" viewBox="0 0 588.8 588.8"><path fill="currentColor" d="M89.05599999999998 60.52499999999998c24.862 31.888 280 358.568 341.063 411.72 76.902 66.936 132.718-3.814 73-73-52.197-60.47-369.484-308.088-408.814-338.72h-5.25z m188.656 0c45.33 61.388 132.53 178.237 165.25 206.72 53.745 46.78 93.142-3.023 51.407-51.376C467.79999999999995 185.08999999999997 365.30199999999996 107.67299999999997 301.65 60.52399999999997h-23.938z m131.375 0C423.51 76.60299999999998 436.23999999999995 90.19299999999998 442.4 95.55499999999998c41.042 35.724 71.142 1.755 46.125-35.03h-79.438zM55.77499999999998 170.89999999999998v54.313c42.702 54.933 87.407 110.516 108.03 128.468 53.748 46.783 93.143-2.456 51.407-50.81-21.41-24.807-95.776-83.243-159.437-131.97z m0 165.844V393.4c45.978 54.937 90.37 107.056 106.28 120.906 47.652 41.476 81.973-2.693 44.97-45.562-16.444-19.05-84.786-76.927-151.25-132z" /></svg>