<svg xmlns="http://www.w3.org/2000/svg" width="100%" height="100%" viewBox="0 0 599.04 599.04"><path d="M51.51999999999998 299.52C51.51999999999998 162.51999999999998 162.51999999999998 51.51999999999998 299.52 51.51999999999998s248 111 248 248-111 248-248 248S51.51999999999998 436.52 51.51999999999998 299.52z m143.6 28.9l72.4-75.5V435.52c0 13.3 10.7 24 24 24h16c13.3 0 24-10.7 24-24V252.92l72.4 75.5c9.3 9.7 24.8 9.9 34.3 0.4l10.9-11c9.4-9.4 9.4-24.6 0-33.9L316.52 151.21999999999997c-9.4-9.4-24.6-9.4-33.9 0L149.82 283.91999999999996c-9.4 9.4-9.4 24.6 0 33.9l10.9 11c9.6 9.5 25.1 9.3 34.4-0.4z" /></svg>