<svg xmlns="http://www.w3.org/2000/svg" width="100%" height="100%" viewBox="0 0 599.04 599.04"><path d="M499.41999999999996 299.32L486.52 456.62c-3.3 40.7-63.9 35.1-60.6-4.9l10-122.5-41.1 2.3c10.1 20.7 15.8 43.9 15.8 68.5 0 41.2-16.1 78.7-42.3 106.5l-39.3-39.3c57.9-63.7 13.1-167.2-74-167.2-25.9 0-49.5 9.9-67.2 26L148.51999999999998 286.71999999999997c22-20.7 50.1-35.1 81.4-40.2l75.3-85.7-42.6-24.8-51.6 46c-30 26.8-70.6-18.5-40.5-45.4l68-60.7c9.8-8.8 24.1-10.2 35.5-3.6 0 0 139.3 80.9 139.5 81.1 16.2 10.1 20.7 36 6.1 52.6L361.21999999999997 272.52l106.1-5.9c18.5-1.1 33.6 14.4 32.1 32.7z m-64.9-154c28.1 0 50.9-22.8 50.9-50.9C485.41999999999996 66.31999999999998 462.62 43.51999999999998 434.52 43.51999999999998c-28.1 0-50.9 22.8-50.9 50.9 0 28.1 22.8 50.9 50.9 50.9zM255.11999999999998 500.02c-80.6 0-127.4-90.6-82.7-156.1l-39.7-39.7C111.91999999999999 330.52 99.51999999999998 363.82 99.51999999999998 399.91999999999996c0 130.7 150.7 201.4 251.4 122.5l-39.7-39.7c-16 10.9-35.3 17.3-56.1 17.3z" /></svg>