<svg xmlns="http://www.w3.org/2000/svg" width="100%" height="100%" viewBox="0 0 599.04 599.04"><path d="M75.51999999999998 491.52c0 17.7 14.3 32 32 32h384c17.7 0 32-14.3 32-32V203.51999999999998H75.51999999999998v288z m160-212c0-6.6 5.4-12 12-12h104c6.6 0 12 5.4 12 12v8c0 6.6-5.4 12-12 12H247.51999999999998c-6.6 0-12-5.4-12-12v-8zM523.52 75.51999999999998H75.51999999999998C57.81999999999998 75.51999999999998 43.51999999999998 89.81999999999998 43.51999999999998 107.51999999999998v48c0 8.8 7.2 16 16 16h480c8.8 0 16-7.2 16-16V107.51999999999998c0-17.7-14.3-32-32-32z" /></svg>