<svg xmlns="http://www.w3.org/2000/svg" width="100%" height="100%" viewBox="0 0 599.04 599.04"><path d="M299.52 51.51999999999998C162.46099999999998 51.51999999999998 51.51999999999998 162.43899999999996 51.51999999999998 299.52c0 137.059 110.919 248 248 248 48.154 0 95.342-14.14 135.408-40.223 12.005-7.815 14.625-24.288 5.552-35.372l-10.177-12.433c-7.671-9.371-21.179-11.667-31.373-5.129C369.44 473.277 334.834 483.52 299.52 483.52c-101.458 0-184-82.542-184-184S198.06199999999998 115.51999999999998 299.52 115.51999999999998c100.139 0 184 57.619 184 160 0 38.786-21.093 79.742-58.17 83.693-17.349-0.454-16.91-12.857-13.476-30.024l23.433-121.11C438.173 193.26999999999998 426.828 179.51999999999998 411.745 179.51999999999998h-44.981a13.518 13.518 0 0 0-13.432 11.993l-0.01 0.092c-14.697-17.901-40.448-21.775-59.971-21.775-74.58 0-137.831 62.234-137.831 151.46 0 65.303 36.785 105.87 96 105.87 26.984 0 57.369-15.637 74.991-38.333 9.522 34.104 40.613 34.103 70.71 34.103C506.12899999999996 422.93 547.52 351.318 547.52 275.52 547.52 139.173 437.543 51.51999999999998 299.52 51.51999999999998z m-21.68 304.43c-22.249 0-36.07-15.623-36.07-40.771 0-44.993 30.779-72.729 58.63-72.729 22.292 0 35.601 15.241 35.601 40.77 0 45.061-33.875 72.73-58.161 72.73z" /></svg>