<svg xmlns="http://www.w3.org/2000/svg" width="100%" height="100%" viewBox="0 0 599.04 599.04"><path d="M299.52 547.52C162.51999999999998 547.52 51.51999999999998 436.52 51.51999999999998 299.52S162.51999999999998 51.51999999999998 299.52 51.51999999999998s248 111 248 248-111 248-248 248z m28.9-143.6L252.92 331.52H435.52c13.3 0 24-10.7 24-24v-16c0-13.3-10.7-24-24-24H252.92l75.5-72.4c9.7-9.3 9.9-24.8 0.4-34.3l-11-10.9c-9.4-9.4-24.6-9.4-33.9 0L151.21999999999997 282.52c-9.4 9.4-9.4 24.6 0 33.9l132.7 132.7c9.4 9.4 24.6 9.4 33.9 0l11-10.9c9.5-9.5 9.3-25-0.4-34.3z" /></svg>