<svg xmlns="http://www.w3.org/2000/svg" width="100%" height="100%" viewBox="0 0 599.04 599.04"><path d="M201.04 315.52h36.96L219.51999999999998 262.29999999999995 201.04 315.52zM395.52 299.52c-13.23 0-24 10.77-24 24s10.77 24 24 24 24-10.77 24-24-10.77-24-24-24zM507.52 107.51999999999998H91.51999999999998C65.01999999999998 107.51999999999998 43.51999999999998 129.01999999999998 43.51999999999998 155.51999999999998v288c0 26.5 21.5 48 48 48h416c26.5 0 48-21.5 48-48V155.51999999999998c0-26.5-21.5-48-48-48zM294.1 395.52h-16.94c-6.81 0-12.88-4.32-15.12-10.75L254.67 363.52h-70.29l-7.38 21.25A16 16 0 0 1 161.88 395.52h-16.94c-11.01 0-18.73-10.85-15.12-21.25L183.51999999999998 219.64A23.995 23.995 0 0 1 206.18999999999997 203.51999999999998h26.66A23.99 23.99 0 0 1 255.51999999999998 219.64999999999998l53.69 154.62c3.61 10.4-4.11 21.25-15.11 21.25zM467.52 379.52c0 8.84-7.16 16-16 16h-16c-4.85 0-9.04-2.27-11.98-5.68-8.62 3.66-18.09 5.68-28.02 5.68-39.7 0-72-32.3-72-72s32.3-72 72-72c8.46 0 16.46 1.73 24 4.42V219.51999999999998c0-8.84 7.16-16 16-16h16c8.84 0 16 7.16 16 16v160z" /></svg>