<svg xmlns="http://www.w3.org/2000/svg" width="100%" height="100%" viewBox="0 0 599.04 599.04"><path d="M299.52 51.51999999999998c137 0 248 111 248 248S436.52 547.52 299.52 547.52 51.51999999999998 436.52 51.51999999999998 299.52 162.51999999999998 51.51999999999998 299.52 51.51999999999998zM183.51999999999998 343.52h116v70.9c0 10.7 13 16.1 20.5 8.5l114.3-114.9c4.7-4.7 4.7-12.2 0-16.9l-114.3-115c-7.6-7.6-20.5-2.2-20.5 8.5V255.51999999999998H183.51999999999998c-6.6 0-12 5.4-12 12v64c0 6.6 5.4 12 12 12z" /></svg>