<svg xmlns="http://www.w3.org/2000/svg" width="100%" height="100%" viewBox="0 0 599.04 599.04"><path d="M203.21999999999997 280.91999999999996C151.92 351.82 86.61999999999998 391.71999999999997 57.51999999999998 370.12 28.319999999999983 348.41999999999996 46.31999999999998 273.52 97.71999999999998 202.61999999999998c51.3-70.9 116.6-110.8 145.7-89.2 29.1 21.6 11.1 96.6-40.2 167.5z m351.2-57.3C480.62 347.02 362.52 411.32 289.91999999999996 367.21999999999997c-25-15.2-41.3-41.2-49-73.8-33.6 64.8-92.8 113.8-164.1 133.2 49.8 59.3 124.1 96.9 207 96.9 150 0 271.6-123.1 271.6-274.9 0.1-8.5-0.3-16.8-1-25z" /></svg>