<svg xmlns="http://www.w3.org/2000/svg" width="100%" height="100%" viewBox="0 0 748.8 748.8"><path d="M688.22 576.5l-90.62-70.05c0.19-1.38 0.8-2.66 0.8-4.06 0.05-7.55-2.61-15.27-8.61-21.71-19.32-20.76-55.47-51.99-55.47-154.29 0-77.7-54.48-139.9-127.94-155.16V150.39999999999998c0-17.67-14.32-32-31.98-32s-31.98 14.33-31.98 32v20.84c-40.33 8.38-74.66 31.07-97.59 62.57L99.86999999999998 121.76999999999998C92.88999999999999 116.34999999999998 82.82999999999998 117.59999999999998 77.40999999999998 124.57999999999998L57.769999999999975 149.84999999999997C52.34999999999998 156.82 53.59999999999998 166.86999999999998 60.57999999999998 172.29999999999998l588.35 454.73c6.98 5.43 17.03 4.17 22.46-2.81l19.64-25.27c5.42-6.97 4.17-17.02-2.81-22.45zM211.62999999999997 369.93999999999994c-8.61 67.96-36.41 93.33-52.62 110.75-6 6.45-8.66 14.16-8.61 21.71 0.11 16.4 12.98 32 32.1 32h241.92L211.62999999999997 369.93999999999994zM374.4 630.4c35.32 0 63.97-28.65 63.97-64H310.42999999999995c0 35.35 28.65 64 63.97 64z" /></svg>