<svg xmlns="http://www.w3.org/2000/svg" width="100%" height="100%" viewBox="0 0 748.8 748.8"><path d="M480.09999999999997 374.4c-16.9 0-32.8-9-41.4-23.4L374.4 244.39999999999998l-64.2 106.6c-8.7 14.5-24.6 23.5-41.5 23.5-4.5 0-9-0.6-13.3-1.9L118.39999999999998 333.4v178c0 14.7 10 27.5 24.2 31l216.2 54.1c10.2 2.5 20.9 2.5 31 0L606.1999999999999 542.4c14.2-3.6 24.2-16.4 24.2-31V333.4l-137 39.1c-4.3 1.3-8.8 1.9-13.3 1.9z m212.6-112.2L641.1999999999999 159.39999999999998c-3.1-6.2-9.8-9.8-16.7-8.9L374.4 182.39999999999998l91.7 152.1c3.8 6.3 11.4 9.3 18.5 7.3l197.9-56.5c9.9-2.9 14.7-13.9 10.2-23.1zM107.59999999999998 159.39999999999998L56.09999999999998 262.2c-4.6 9.2 0.3 20.2 10.1 23l197.9 56.5c7.1 2 14.7-1 18.5-7.3L374.4 182.39999999999998 124.19999999999997 150.49999999999997c-6.9-0.8-13.5 2.7-16.6 8.9z" /></svg>