<svg xmlns="http://www.w3.org/2000/svg" width="100%" height="100%" viewBox="0 0 673.92 673.92"><path d="M256.96 80.95999999999998c-29.9 0-54.7 20.5-61.8 48.2-0.8 0-1.4-0.2-2.2-0.2-35.3 0-64 28.7-64 64 0 4.8 0.6 9.5 1.7 14C101.45999999999998 218.95999999999998 80.95999999999998 247.55999999999997 80.95999999999998 280.96c0 12.6 3.2 24.3 8.3 34.9C65.25999999999998 329.65999999999997 48.95999999999998 355.26 48.95999999999998 384.96c0 33.3 20.4 61.9 49.4 73.9-0.9 4.6-1.4 9.3-1.4 14.1 0 39.8 32.2 72 72 72 4.1 0 8.1-0.5 12-1.2 9.6 28.5 36.2 49.2 68 49.2 39.8 0 72-32.2 72-72V144.95999999999998c0-35.3-28.7-64-64-64z m368 304c0-29.7-16.3-55.3-40.3-69.1 5.2-10.6 8.3-22.3 8.3-34.9 0-33.4-20.5-62-49.7-74 1-4.5 1.7-9.2 1.7-14 0-35.3-28.7-64-64-64-0.8 0-1.5 0.2-2.2 0.2C471.65999999999997 101.45999999999998 446.85999999999996 80.95999999999998 416.96 80.95999999999998c-35.3 0-64 28.6-64 64v376c0 39.8 32.2 72 72 72 31.8 0 58.4-20.7 68-49.2 3.9 0.7 7.9 1.2 12 1.2 39.8 0 72-32.2 72-72 0-4.8-0.5-9.5-1.4-14.1 29-12 49.4-40.6 49.4-73.9z" /></svg>