<svg xmlns="http://www.w3.org/2000/svg" width="100%" height="100%" viewBox="0 0 599.04 599.04"><path d="M441.01 281.52a122 122 0 0 0 27-65.21C475.39 140.01 415.52 75.51999999999998 340.93999999999994 75.51999999999998H141.51999999999998a16 16 0 0 0-16 16v48a16 16 0 0 0 16 16h31.87v288H141.51999999999998a16 16 0 0 0-16 16v48a16 16 0 0 0 16 16h209.32c70.8 0 134.14-51.75 141-122.4 4.74-48.45-16.39-92.06-50.83-119.6zM253.17999999999998 155.51999999999998h87.76a48 48 0 0 1 0 96h-87.76z m87.76 288h-87.76V331.52h87.76a56 56 0 0 1 0 112z" /></svg>