<svg xmlns="http://www.w3.org/2000/svg" width="100%" height="100%" viewBox="0 0 599.04 599.04"><path d="M209.51999999999998 160.42c0 23.4-16.4 49.1-72.5 49.1H66.91999999999999l21-88.8h67.8c42.1 0 53.8 23.3 53.8 39.7z m126.2-39.7h-67.8L249.21999999999997 209.51999999999998h70.1c53.8 0 70.1-25.7 70.1-49.1 0.1-16.4-11.6-39.7-53.7-39.7zM132.32 251.61999999999998H64.51999999999998L43.51999999999998 340.41999999999996h70.1c56.1 0 72.5-23.4 72.5-49.1 0-16.3-11.7-39.7-53.8-39.7z m180.1 0h-67.8l-18.7 88.8h70.1c53.8 0 70.1-23.4 70.1-49.1 0-16.3-11.7-39.7-53.7-39.7z m189.3-53.8h-67.8l-18.7 88.8h70.1c53.8 0 70.1-23.4 70.1-49.1 0.1-16.3-11.6-39.7-53.7-39.7z m-28 137.9h-67.8L387.21999999999997 424.52h70.1c56.1 0 70.1-23.4 70.1-49.1 0-16.3-11.6-39.7-53.7-39.7zM284.32 389.52H216.51999999999998l-18.7 88.8h70.1c56.1 0 70.1-25.7 70.1-49.1 0.1-16.3-11.6-39.7-53.7-39.7z" /></svg>