<svg xmlns="http://www.w3.org/2000/svg" width="100%" height="100%" viewBox="0 0 673.92 673.92"><path d="M336.96 112.95999999999998C182.23 112.95999999999998 56.74999999999998 213.27999999999997 56.74999999999998 336.96S182.23 560.96 336.96 560.96s280.21-100.32 280.21-224S491.69 112.95999999999998 336.96 112.95999999999998z m-85.39 357.19L113.05999999999997 471.51l77.25-290.74h133.44c63.15 0 84.93 28.65 78 72.84a60.24 60.24 0 0 1-1.5 6.85 77.39 77.39 0 0 0-17.21-1.93c-42.35 0-76.69 33.88-76.69 75.65 0 37.14 27.14 68 62.93 74.45-18.24 37.16-56.16 60.92-117.71 61.52zM406.96 288.07h32l-22.16 90.31h-35.41l-11.19-35.63-7.83 35.63h-37.83l26.63-90.31h31.34l15 36.75z m145.86 182.08H355.75L371.59 408.96a78.8 78.8 0 0 0 11.47 0.83c42.34 0 76.69-33.87 76.69-75.65 0-32.65-21-60.46-50.38-71.06l21.33-82.35h92.5l-53.05 205.36h103.87zM260.65999999999997 350.34999999999997H235.95999999999998l-13.8 56.47h24.7c16.14 0 32.11-3.18 37.94-26.65 5.56-22.31-7.99-29.82-24.14-29.82zM281.96 250.95999999999998h-21.34L248.95999999999998 298.66999999999996h21.37c18 0 35.38-14.64 39.21-30.14C314.19 249.67 300.03 250.95999999999998 281.96 250.95999999999998z" /></svg>