<svg xmlns="http://www.w3.org/2000/svg" width="100%" height="100%" viewBox="0 0 748.8 748.8"><path d="M454.4 214.39999999999998a48 48 0 1 0-48-48 48 48 0 0 0 48 48z m-4 121a31.9 31.9 0 0 0 20 7h64a32 32 0 0 0 0-64h-52.78L410.4 221.39999999999998a31.94 31.94 0 0 0-40.81 0.68l-112 96a32 32 0 0 0 3.08 50.92L342.4 423.52V534.4a32 32 0 0 0 64 0V406.4a32 32 0 0 0-14.25-26.62l-41.36-27.57 58.25-49.92z m116 39a128 128 0 1 0 128 128 128 128 0 0 0-128-128z m0 192a64 64 0 1 1 64-64 64 64 0 0 1-64 64zM182.39999999999998 374.4a128 128 0 1 0 128 128 128 128 0 0 0-128-128z m0 192a64 64 0 1 1 64-64 64 64 0 0 1-64 64z" /></svg>