<svg xmlns="http://www.w3.org/2000/svg" width="100%" height="100%" viewBox="0 0 673.92 673.92"><path d="M267.88 417.34999999999997c34.89-34.89 44.2-59.7 54.05-86 10.61-28.29 21.59-57.54 61.37-97.34s69.05-50.77 97.35-61.38c23.88-9 46.64-17.68 76.79-45.37L519.77 89.86999999999998a31 31 0 0 0-40.18-2.83c-13.64 10.1-25.15 14.39-41 20.3C295.96 160.47999999999996 258.21999999999997 272.25 249.60999999999999 295.05999999999995c-29.75 78.83-89.55 94.68-98.72 98.09-24.86 9.26-54.73 20.38-91.07 50.36C45.95999999999998 454.96 45.32999999999998 475.96 58.02999999999998 488.57l35.76 35.51C128.95999999999998 491.47999999999996 155.95999999999998 481.10999999999996 181.95999999999998 471.34999999999997c26.27-9.84 51.06-19.12 85.92-54z m348-232l-35.75-35.51c-35.19 32.63-62.18 43-88.25 52.79-26.26 9.85-51.06 19.16-85.95 54s-44.19 59.69-54 86C341.28999999999996 370.96 330.29999999999995 400.18 290.51 439.96s-69 50.73-97.3 61.32c-23.86 9-46.61 17.66-76.72 45.33l37.68 37.43a31 31 0 0 0 40.18 2.82c13.6-10.06 25.09-14.34 40.94-20.24 142.2-53 180-164.1 188.94-187.69C453.96 300.14 513.76 284.26 522.96 280.82c24.87-9.27 54.74-20.4 91.11-50.41 13.89-11.4 14.52-32.45 1.82-45.05z" /></svg>