<svg xmlns="http://www.w3.org/2000/svg" width="100%" height="100%" viewBox="-75.52 -43.52 599.04 599.04"><path d="M240 416h-32a16 16 0 00-16 16v32a16 16 0 0016 16h32a16 16 0 0016-16v-32a16 16 0 00-16-16zm-96 0h-32a16 16 0 00-16 16v32a16 16 0 0016 16h32a16 16 0 0016-16v-32a16 16 0 00-16-16zm192 0h-32a16 16 0 00-16 16v32a16 16 0 0016 16h32a16 16 0 0016-16v-32a16 16 0 00-16-16zm96-192h-32a16 16 0 00-16 16v32a16 16 0 0016 16h32a16 16 0 0016-16v-32a16 16 0 00-16-16zm0 96h-32a16 16 0 00-16 16v32a16 16 0 0016 16h32a16 16 0 0016-16v-32a16 16 0 00-16-16zm0 96h-32a16 16 0 00-16 16v32a16 16 0 0016 16h32a16 16 0 0016-16v-32a16 16 0 00-16-16zm0-288h-32a16 16 0 00-16 16v32a16 16 0 0016 16h32a16 16 0 0016-16v-32a16 16 0 00-16-16zm0-96H32A32 32 0 000 64v400a16 16 0 0016 16h32a16 16 0 0016-16V96h368a16 16 0 0016-16V48a16 16 0 00-16-16z"/></svg>