<svg xmlns="http://www.w3.org/2000/svg" width="100%" height="100%" viewBox="0 0 599.04 599.04"><path d="M395.52 139.51999999999998c0-53.02-42.98-96-96-96s-96 42.98-96 96 42.98 96 96 96 96-42.98 96-96zM277.11 284.62c-59.33-36.32-155.43-46.3-203.79-49.05C57.06999999999998 234.64999999999998 43.51999999999998 247.02999999999997 43.51999999999998 262.65999999999997v222.8c0 14.33 11.59 26.28 26.49 27.05 43.66 2.29 131.99 10.68 193.04 41.43 9.37 4.72 20.48-1.71 20.48-11.87V296.08c-0.01-4.67-2.32-8.95-6.42-11.46z m248.61-49.05c-48.35 2.74-144.46 12.73-203.78 49.05-4.1 2.51-6.41 6.96-6.41 11.63v245.79c0 10.19 11.14 16.63 20.54 11.9 61.04-30.72 149.32-39.11 192.97-41.4 14.9-0.78 26.49-12.73 26.49-27.06V262.65999999999997c-0.01-15.63-13.56-28.01-29.81-27.09z" /></svg>