<svg xmlns="http://www.w3.org/2000/svg" width="100%" height="100%" viewBox="0 0 599.04 599.04"><path d="M378.02 555.52c23.18 0 44.43-12.58 56-32.66C450.21 494.78 459.52 462.27 459.52 427.52c0-36.12-10.08-69.81-27.44-98.62L475.52 285.46l9.38 9.38c6.25 6.25 16.38 6.25 22.63 0l11.3-11.32c6.25-6.25 6.25-16.38 0-22.63l-52.69-52.69c-6.25-6.25-16.38-6.25-22.63 0l-11.31 11.31c-6.25 6.25-6.25 16.38 0 22.63l9.38 9.38-39.41 39.41c-11.56-11.37-24.53-21.33-38.65-29.51V107.25999999999999l15.97-0.02c8.82-0.01 15.97-7.16 15.98-15.98l0.04-31.72C395.52 50.68999999999998 388.34 43.509999999999984 379.49 43.51999999999998L155.54999999999998 43.77999999999998c-8.82 0.01-15.97 7.16-15.98 15.98l-0.04 31.73c-0.01 8.85 7.17 16.02 16.02 16.01L171.51999999999998 107.47999999999999v153.93C114.18999999999998 294.62 75.51999999999998 356.49 75.51999999999998 427.52c0 34.75 9.31 67.27 25.5 95.34C112.59999999999998 542.94 133.84999999999997 555.52 157.01999999999998 555.52h221zM195.57999999999998 302.95L219.51999999999998 289.08V107.42999999999998l96-0.11v181.76l23.94 13.87c24.81 14.37 44.12 35.73 56.56 60.57h-257c12.45-24.84 31.75-46.2 56.56-60.57z" /></svg>