<svg xmlns="http://www.w3.org/2000/svg" width="100%" height="100%" viewBox="0 0 599.04 599.04"><path d="M531.52 171.51999999999998h-8V123.51999999999998c0-44.8-99.2-80-224-80S75.51999999999998 78.71999999999998 75.51999999999998 123.51999999999998v48h-8c-13.25 0-24 10.74-24 24v80c0 13.25 10.75 24 24 24h8v160c0 17.67 14.33 32 32 32v32c0 17.67 14.33 32 32 32h32c17.67 0 32-14.33 32-32v-32h192v32c0 17.67 14.33 32 32 32h32c17.67 0 32-14.33 32-32v-32h6.4c16 0 25.6-12.8 25.6-25.6V299.52h8c13.25 0 24-10.75 24-24v-80c0-13.26-10.75-24-24-24zM203.51999999999998 115.51999999999998c0-4.42 3.58-8 8-8h176c4.42 0 8 3.58 8 8v16c0 4.42-3.58 8-8 8H211.51999999999998c-4.42 0-8-3.58-8-8V115.51999999999998z m-48 328c-17.67 0-32-14.33-32-32s14.33-32 32-32 32 14.33 32 32-14.33 32-32 32z m128-112H171.51999999999998c-17.67 0-32-14.33-32-32v-96c0-17.67 14.33-32 32-32h112v160z m32 0V171.51999999999998h112c17.67 0 32 14.33 32 32v96c0 17.67-14.33 32-32 32H315.52z m128 112c-17.67 0-32-14.33-32-32s14.33-32 32-32 32 14.33 32 32-14.33 32-32 32z" /></svg>