<svg xmlns="http://www.w3.org/2000/svg" width="100%" height="100%" viewBox="0 0 748.8 748.8"><path d="M230.39999999999998 374.4c44.11 0 80-35.89 80-80s-35.89-80-80-80-80 35.89-80 80 35.89 80 80 80z m352-128H358.4c-8.84 0-16 7.16-16 16v144H118.39999999999998V198.39999999999998c0-8.84-7.16-16-16-16H70.39999999999998C61.559999999999974 182.39999999999998 54.39999999999998 189.55999999999997 54.39999999999998 198.39999999999998v352c0 8.84 7.16 16 16 16h32c8.84 0 16-7.16 16-16v-48h512v48c0 8.84 7.16 16 16 16h32c8.84 0 16-7.16 16-16V358.4c0-61.86-50.14-112-112-112z" /></svg>