<svg xmlns="http://www.w3.org/2000/svg" width="100%" height="100%" viewBox="0 0 748.8 748.8"><path d="M566.909 310.40099999999995c-16.373-0.064-32.03 2.955-46.436 8.495l-77.68-125.153A24 24 0 0 0 422.40099999999995 182.39999999999998h-64c-8.837 0-16 7.163-16 16v16c0 8.837 7.163 16 16 16h50.649l14.896 24H310.402v-16c0-8.837-7.163-16-16-16h-87.459c-13.441 0-24.777 10.999-24.536 24.437 0.232 13.044 10.876 23.563 23.995 23.563h48.726l-29.417 47.52c-13.433-4.83-27.904-7.483-42.992-7.52C112.49399999999997 310.23 54.811999999999976 367.412 54.40199999999998 437.63599999999997 53.98699999999998 508.679 111.45499999999998 566.4 182.402 566.4c59.642 0 109.758-40.793 123.967-96h52.033a24 24 0 0 0 20.406-11.367L464.77 320.16999999999996l14.938 24.067c-25.455 23.448-41.385 57.081-41.307 94.437 0.145 68.833 57.899 127.051 126.729 127.719 70.606 0.685 128.181-55.803 129.255-125.996 1.086-70.941-56.526-129.72-127.476-129.996zM241.14999999999998 384.17199999999997c9.727 10.529 16.673 23.661 19.642 38.228h-43.306l23.664-38.228zM182.402 518.4c-44.112 0-80-35.888-80-80s35.888-80 80-80c5.869 0 11.586 0.653 17.099 1.859l-45.505 73.509C144.11499999999998 449.727 155.61299999999997 470.4 174.402 470.4h81.3c-12.37 28.225-40.562 48-73.3 48z m162.63-96h-35.624c-3.96-31.756-19.556-59.894-42.383-80.026L291.77099999999996 302.4h127.547l-74.286 120z m217.057 95.886c-41.036-2.165-74.049-35.692-75.627-76.755-0.812-21.121 6.633-40.518 19.335-55.263l44.433 71.586c4.66 7.508 14.524 9.816 22.032 5.156l13.594-8.437c7.508-4.66 9.817-14.524 5.156-22.032l-44.468-71.643a79.901 79.901 0 0 1 19.858-2.497c44.112 0 80 35.888 80 80-0.001 45.54-38.252 82.316-84.313 79.885z" /></svg>