<svg xmlns="http://www.w3.org/2000/svg" width="100%" height="100%" viewBox="0 0 673.92 673.92"><path d="M288.65999999999997 160.85999999999999c-96.9 0-175.8 78.6-175.8 175.8 0 96.9 78.9 175.8 175.8 175.8 97.2 0 175.8-78.9 175.8-175.8 0-97.2-78.6-175.8-175.8-175.8z m-39.9 279.6c-41.7-15.9-71.4-56.4-71.4-103.8s29.7-87.9 71.4-104.1v207.9z m79.8 0.3V232.55999999999997c41.7 16.2 71.4 56.7 71.4 104.1s-29.7 87.9-71.4 104.1zM576.96 112.95999999999998H96.95999999999998C70.45999999999998 112.95999999999998 48.95999999999998 134.45999999999998 48.95999999999998 160.95999999999998v352c0 26.5 21.5 48 48 48h480c26.5 0 48-21.5 48-48V160.95999999999998c0-26.5-21.5-48-48-48zM378.65999999999997 528.96h-90.3c-106.2 0-193.8-85.5-193.8-190.2C94.55999999999997 224.15999999999997 182.15999999999997 144.95999999999998 288.36 144.95999999999998h90.3c105 0 200.7 79.2 200.7 193.8 0 104.7-95.7 190.2-200.7 190.2z" /></svg>