<svg xmlns="http://www.w3.org/2000/svg" width="100%" height="100%" viewBox="0 0 748.8 748.8"><path d="M262.4 470.4c-2.39 0-4.78 0.35-7.06 1.09C242.37999999999997 475.7 228.74999999999997 478.4 214.39999999999998 478.4c-14.35 0-27.98-2.7-40.95-6.91-2.28-0.74-4.66-1.09-7.05-1.09C104.33999999999997 470.4 54.06999999999998 520.88 54.39999999999998 583.02 54.53999999999998 609.28 76.12999999999998 630.4 102.39999999999998 630.4h224c26.27 0 47.86-21.12 48-47.38 0.33-62.14-49.94-112.62-112-112.62z m-48-32c53.02 0 96-42.98 96-96s-42.98-96-96-96-96 42.98-96 96 42.98 96 96 96zM646.4 118.39999999999998H262.4c-26.47 0-48 22.25-48 49.59V214.39999999999998c23.42 0 45.1 6.78 64 17.8V182.39999999999998h352v288h-64v-64H438.4v64h-76.24c19.1 16.69 33.12 38.73 39.69 64H646.4c26.47 0 48-22.25 48-49.59V167.98999999999998C694.4 140.64999999999998 672.87 118.39999999999998 646.4 118.39999999999998z" /></svg>