<svg xmlns="http://www.w3.org/2000/svg" width="100%" height="100%" viewBox="0 0 720.7199999999999 720.7199999999999"><path d="M200.95999999999995 408.35999999999996c8.2 68.5 67.4 115.5 146 111.3 51.2 43.3 136.8 45.8 186.4-5.6 69.2 1.1 118.5-44.6 131.5-99.5 14.8-62.5-18.2-132.5-92.1-155.1-33-88.1-131.4-101.5-186.5-85-57.3 17.3-84.3 53.2-99.3 109.7-7.8 2.7-26.5 8.9-45 24.1 11.7 0 15.2 8.9 15.2 19.5v20.4c0 10.7-8.7 19.5-19.5 19.5h-20.2c-10.7 0-19.5-6-19.5-16.7V344.35999999999996H151.15999999999997C147.35999999999996 344.35999999999996 140.35999999999996 348.65999999999997 140.35999999999996 356.26v40.4c0 6.4 5.3 11.8 11.7 11.8h48.9z m227.4 8c-10.7 46.3 21.7 72.4 55.3 86.8C376.46 536.96 312.05999999999995 452.35999999999996 348.35999999999996 392.35999999999996c-33.2 21.6-33.7 71.2-29.2 92.9-17.9-12.4-53.8-32.4-57.4-79.8-3-39.9 21.5-75.7 57-93.9C349.35999999999996 295.76 422.25999999999993 303.05999999999995 452.35999999999996 352.35999999999996c-14.1-48-53.8-70.1-101.8-74.8 30.9-30.7 64.4-50.3 114.2-43.7 69.8 9.3 133.2 82.8 67.7 150.5 35-16.3 48.7-54.4 47.5-76.9l10.5 19.6c11.8 22 15.2 47.6 9.4 72-9.2 39-40.6 68.8-79.7 76.5-32.1 6.3-83.1-5.1-91.8-59.2zM180.35999999999996 312.35999999999996H140.55999999999995c-8.9 0-16.2-7.3-16.2-16.2v-39.6c0-8.9 7.3-16.2 16.2-16.2H180.35999999999996c8.9 0 16.2 7.3 16.2 16.2v39.6c0 8.9-7.3 16.2-16.2 16.2zM62.45999999999996 272.35999999999996C56.85999999999996 272.35999999999996 52.35999999999996 267.85999999999996 52.35999999999996 262.26v-27.8c0-5.6 4.5-10.1 10.1-10.1h27.7c5.5 0 10.1 4.5 10.1 10.1v27.8c0 5.6-4.5 10.1-10.1 10.1H62.45999999999996zM220.35999999999996 247.05999999999995v-21.4c0-5.1 4.2-9.3 9.3-9.3h21.4c5.1 0 9.3 4.2 9.3 9.3v21.4c0 5.1-4.2 9.3-9.3 9.3h-21.4c-5.1 0-9.3-4.2-9.3-9.3zM108.35999999999996 339.85999999999996v25c0 6.3-5.1 11.5-11.4 11.5H71.75999999999996C65.45999999999995 376.35999999999996 60.35999999999996 371.15999999999997 60.35999999999996 364.85999999999996v-25c0-6.3 5.1-11.5 11.4-11.5h25.1c6.4 0 11.5 5.2 11.5 11.5z" /></svg>