<svg xmlns="http://www.w3.org/2000/svg" width="100%" height="100%" viewBox="0 0 599.04 599.04"><path d="M299.41999999999996 43.719999999999985h-64v64h64zM43.51999999999998 107.68999999999998v64h64v-64zM171.51999999999998 43.719999999999985H107.51999999999998v64h64z m64 255.9v64h64v-64zM43.51999999999998 235.64v64h64v-64zM427.37 43.719999999999985h-64v64h64z m128 0h-64v64h64zM171.51999999999998 299.62H107.51999999999998v64h64zM555.3199999999999 491.52v-64h-64v64z m0-128v-64h-64v64zM427.37 555.52h64v-64h-64z m128-319.88v-64h-64v64zM171.51999999999998 555.52h64v-64h-64zM43.51999999999998 555.52h64v-64H43.51999999999998z m255.9 0h64v-64h-64zM43.51999999999998 363.59v64h64v-64z m319.88-191.92v-64h-64v64z m-64 128h64v-64h-64z m-64 128v64h64v-64z m128-64h64v-64h-64z m0-127.95h64v-64h-64z m0 191.93v64h64v-64zM107.51999999999998 427.57v64h64v-64z m128-255.9v-64h-64v64z m191.92 255.9h64v-64h-64z m-128-191.93v-64h-64v64z m128-127.95v64h64v-64z m-128 255.9v64h64v-64z m-64-127.95H171.51999999999998v64h64z m191.92 64h64v-64h-64zM171.51999999999998 171.67H107.51999999999998v64h64z m0 191.92v64h64v-64z" /></svg>