<svg xmlns="http://www.w3.org/2000/svg" width="100%" height="100%" viewBox="0 0 599.04 599.04"><path d="M299.12 51.51999999999998C440.91999999999996 51.51999999999998 547.52 161.61999999999998 547.52 299.52c0 147.1-118.5 248-248.4 248C165.11999999999998 547.52 51.51999999999998 438.02 51.51999999999998 299.52 51.51999999999998 166.61999999999998 156.21999999999997 51.51999999999998 299.12 51.51999999999998z m0.8 44.7C181.71999999999997 96.21999999999998 96.21999999999998 194.11999999999998 96.21999999999998 299.52c0 109.8 91.2 202.8 203.7 202.8 103.2 0 202.8-81.1 202.8-202.8 0.1-113.8-90.2-203.3-202.8-203.3z m94 144.3v42.5H213.61999999999998V240.51999999999998h180.3z m0 79.8v42.5H213.61999999999998v-42.5h180.3z" /></svg>