<svg xmlns="http://www.w3.org/2000/svg" width="100%" height="100%" viewBox="0 0 599.04 599.04"><path d="M395.52 491.52v40c0 13.255-10.745 24-24 24H99.51999999999998c-13.255 0-24-10.745-24-24V163.51999999999998c0-13.255 10.745-24 24-24h72v296c0 30.879 25.121 56 56 56h168z m0-344V43.51999999999998H227.51999999999998c-13.255 0-24 10.745-24 24v368c0 13.255 10.745 24 24 24h272c13.255 0 24-10.745 24-24V171.51999999999998H419.52c-13.2 0-24-10.8-24-24z m120.971-31.029L450.549 50.54899999999998A24 24 0 0 0 433.579 43.51999999999998H427.52v96h96v-6.059a24 24 0 0 0-7.029-16.97z" /></svg>