<svg xmlns="http://www.w3.org/2000/svg" width="100%" height="100%" viewBox="0 0 599.04 599.04"><path d="M443.52 107.51999999999998h-80c0-35.3-28.7-64-64-64s-64 28.7-64 64H155.51999999999998C129.01999999999998 107.51999999999998 107.51999999999998 129.01999999999998 107.51999999999998 155.51999999999998v352c0 26.5 21.5 48 48 48h288c26.5 0 48-21.5 48-48V155.51999999999998c0-26.5-21.5-48-48-48zM203.51999999999998 467.52c-13.3 0-24-10.7-24-24s10.7-24 24-24 24 10.7 24 24-10.7 24-24 24z m0-96c-13.3 0-24-10.7-24-24s10.7-24 24-24 24 10.7 24 24-10.7 24-24 24z m0-96c-13.3 0-24-10.7-24-24s10.7-24 24-24 24 10.7 24 24-10.7 24-24 24z m96-192c13.3 0 24 10.7 24 24s-10.7 24-24 24-24-10.7-24-24 10.7-24 24-24z m128 368c0 4.4-3.6 8-8 8H275.52c-4.4 0-8-3.6-8-8v-16c0-4.4 3.6-8 8-8h144c4.4 0 8 3.6 8 8v16z m0-96c0 4.4-3.6 8-8 8H275.52c-4.4 0-8-3.6-8-8v-16c0-4.4 3.6-8 8-8h144c4.4 0 8 3.6 8 8v16z m0-96c0 4.4-3.6 8-8 8H275.52c-4.4 0-8-3.6-8-8v-16c0-4.4 3.6-8 8-8h144c4.4 0 8 3.6 8 8v16z" /></svg>