<svg xmlns="http://www.w3.org/2000/svg" width="100%" height="100%" viewBox="0 0 599.04 599.04"><path d="M80.20599999999999 470.834L179.51999999999998 371.52l-32.922-31.029C131.47799999999998 325.371 142.18599999999998 299.52 163.56799999999998 299.52h112C288.823 299.52 299.52 310.265 299.52 323.52v112c0 21.382-25.803 32.09-40.922 16.971L227.51999999999998 419.52l-99.314 99.314c-6.248 6.248-16.379 6.248-22.627 0L80.20599999999999 493.46099999999996c-6.248-6.248-6.248-16.379 0-22.627zM518.8340000000001 128.206L419.52 227.51999999999998l32.922 31.029c15.12 15.12 4.412 40.971-16.97 40.971h-112C310.217 299.52 299.52 288.775 299.52 275.52V163.51999999999998c0-21.382 25.803-32.09 40.922-16.971L371.52 179.51999999999998l99.314-99.314c6.248-6.248 16.379-6.248 22.627 0l25.373 25.373c6.248 6.248 6.248 16.379 0 22.627z" /></svg>