<svg xmlns="http://www.w3.org/2000/svg" width="100%" height="100%" viewBox="0 0 748.8 748.8"><path d="M462.306 438.313l-230.8-2.928a4.58 4.58 0 0 1-3.632-1.926 4.648 4.648 0 0 1-0.494-4.147 6.143 6.143 0 0 1 5.361-4.076L465.681 422.29999999999995c27.631-1.26 57.546-23.574 68.022-50.784l13.286-34.542a7.944 7.944 0 0 0 0.524-2.936 7.735 7.735 0 0 0-0.164-1.631A151.91 151.91 0 0 0 255.65699999999998 316.79999999999995 68.12 68.12 0 0 0 148.59999999999997 387.98999999999995C96.32399999999998 389.506 54.39999999999998 432.128 54.39999999999998 484.52a96.054 96.054 0 0 0 1.029 13.958 4.508 4.508 0 0 0 4.445 3.871l426.1 0.051c0.043 0 0.08-0.019 0.122-0.02a5.606 5.606 0 0 0 5.271-4l3.273-11.265c3.9-13.4 2.448-25.8-4.1-34.9C484.524 443.823 474.48999999999995 438.887 462.306 438.313ZM568.256 339.5c-2.141 0-4.271 0.062-6.391 0.164a3.771 3.771 0 0 0-3.324 2.653l-9.077 31.193c-3.9 13.4-2.449 25.786 4.1 34.89 6.02 8.4 16.054 13.323 28.238 13.9l49.2 2.939a4.491 4.491 0 0 1 3.51 1.894 4.64 4.64 0 0 1 0.514 4.169 6.153 6.153 0 0 1-5.351 4.075l-51.125 2.939c-27.754 1.27-57.669 23.574-68.145 50.784l-3.695 9.606a2.716 2.716 0 0 0 2.427 3.68c0.046 0 0.088 0.017 0.136 0.017h175.91a4.69 4.69 0 0 0 4.539-3.37 124.807 124.807 0 0 0 4.682-34C694.4 395.7 637.924 339.5 568.256 339.5Z" /></svg>