<svg xmlns="http://www.w3.org/2000/svg" width="100%" height="100%" viewBox="0 0 599.04 599.04"><path d="M299.12 51.51999999999998C440.91999999999996 51.51999999999998 547.52 161.61999999999998 547.52 299.52c0 147.1-118.5 248-248.4 248C165.11999999999998 547.52 51.51999999999998 438.02 51.51999999999998 299.52 51.51999999999998 166.61999999999998 156.21999999999997 51.51999999999998 299.12 51.51999999999998z m0.8 44.7C181.71999999999997 96.21999999999998 96.21999999999998 194.11999999999998 96.21999999999998 299.52c0 109.8 91.2 202.8 203.7 202.8 103.2 0 202.8-81.1 202.8-202.8 0.1-113.8-90.2-203.3-202.8-203.3z m161.7 207.7l4.9 2.2v70c-7.2 3.6-63.4 27.5-67.3 28.8-6.5-1.8-113.7-46.8-137.3-56.2l-64.2 26.6-63.3-27.5v-63.8l59.3-24.8c-0.7-0.7-0.4 5-0.4-70.4l67.3-29.7L412.52 222.01999999999998v61.6l49.1 20.3z m-70.4 81.5v-43.8h-0.4v-1.8l-113.8-46.5V338.52l113.8 46.9v-0.4l0.4 0.4z m7.5-57.6l39.9-16.4-36.8-15.5-39 16.4 35.9 15.5z m52.3 38.1v-43L406.71999999999997 341.52v43.4l44.3-19z" /></svg>