<svg xmlns="http://www.w3.org/2000/svg" width="100%" height="100%" viewBox="0 0 599.04 599.04"><path d="M87.51999999999998 235.51999999999998h424c6.6 0 12 5.4 12 12v260c0 26.5-21.5 48-48 48H123.51999999999998c-26.5 0-48-21.5-48-48V247.51999999999998c0-6.6 5.4-12 12-12z m436-44v-36c0-26.5-21.5-48-48-48h-48V55.51999999999998c0-6.6-5.4-12-12-12h-40c-6.6 0-12 5.4-12 12v52H235.51999999999998V55.51999999999998c0-6.6-5.4-12-12-12h-40c-6.6 0-12 5.4-12 12v52H123.51999999999998C97.01999999999998 107.51999999999998 75.51999999999998 129.01999999999998 75.51999999999998 155.51999999999998v36c0 6.6 5.4 12 12 12h424c6.6 0 12-5.4 12-12z" /></svg>