<svg xmlns="http://www.w3.org/2000/svg" width="100%" height="100%" viewBox="0 0 599.04 599.04"><path d="M299.12 51.51999999999998C440.91999999999996 51.51999999999998 547.52 161.61999999999998 547.52 299.52c0 147.1-118.5 248-248.4 248C165.11999999999998 547.52 51.51999999999998 438.02 51.51999999999998 299.52 51.51999999999998 166.61999999999998 156.21999999999997 51.51999999999998 299.12 51.51999999999998z m0.8 44.7C181.71999999999997 96.21999999999998 96.21999999999998 194.11999999999998 96.21999999999998 299.52c0 109.8 91.2 202.8 203.7 202.8 103.2 0 202.8-81.1 202.8-202.8 0.1-113.8-90.2-203.3-202.8-203.3z m3.6 53.2c2.8-0.3 11.5 1 11.5 11.5l6.6 107.2 4.9-59.3c0-6 4.7-10.6 10.6-10.6 5.9 0 10.6 4.7 10.6 10.6 0 2.5-0.5-5.7 5.7 81.5l5.8-64.2c0.3-2.9 2.9-9.3 10.2-9.3 3.8 0 9.9 2.3 10.6 8.9l11.5 96.5 5.3-12.8c1.8-4.4 5.2-6.6 10.2-6.6h58v21.3h-50.9l-18.2 44.3c-3.9 9.9-19.5 9.1-20.8-3.1l-4-31.9-7.5 92.6c-0.3 3-3 9.3-10.2 9.3-3 0-9.8-2.1-10.6-9.3 0-1.9 0.6 5.8-6.2-77.9l-5.3 72.2c-1.1 4.8-4.8 9.3-10.6 9.3-2.9 0-9.8-2-10.6-9.3 0-1.9 0.5 6.7-5.8-87.7l-5.8 94.8c0 6.3-3.6 12.4-10.6 12.4-5.2 0-10.6-4.1-10.6-12l-5.8-87.7c-5.8 92.5-5.3 84-5.3 85.9-1.1 4.8-4.8 9.3-10.6 9.3-3 0-9.8-2.1-10.6-9.3 0-0.7-0.4-1.1-0.4-2.6l-6.2-88.6L233.51999999999998 391.52c-0.7 6.5-6.7 9.3-10.6 9.3-5.8 0-9.6-4.1-10.6-8.9L201.21999999999997 315.52c-2 4-3.5 8.4-11.1 8.4H138.71999999999997v-21.3H183.51999999999998l13.7-27.9c4.4-9.9 18.2-7.2 19.9 2.7l3.1 20.4 8.4-97.9c0-6 4.8-10.6 10.6-10.6 0.5 0 10.6-0.2 10.6 12.4l4.9 69.1 6.6-92.6c0-10.1 9.5-10.6 10.2-10.6 0.6 0 10.6 0.7 10.6 10.6l5.3 80.6 6.2-97.9c0.1-1.1-0.6-10.3 9.9-11.5z" /></svg>