<svg xmlns="http://www.w3.org/2000/svg" width="100%" height="100%" viewBox="0 0 673.92 673.92"><path d="M553.6769999999999 400.96H260.532l6.545 32h268.418c15.401 0 26.816 14.301 23.403 29.319l-5.517 24.276C572.0719999999999 495.628 584.96 514.788 584.96 536.96c0 31.202-25.519 56.444-56.824 55.994-29.823-0.429-54.35-24.631-55.155-54.447-0.44-16.287 6.085-31.049 16.803-41.548H280.13599999999997C290.513 507.125 296.96 521.2860000000001 296.96 536.96c0 31.813-26.528 57.431-58.67 55.938-28.54-1.325-51.751-24.385-53.251-52.917-1.158-22.034 10.436-41.455 28.051-51.586L142.84299999999996 144.95999999999998H72.95999999999998C59.70499999999998 144.95999999999998 48.95999999999998 134.21499999999997 48.95999999999998 120.95999999999998V104.95999999999998C48.95999999999998 91.70499999999998 59.70499999999998 80.95999999999998 72.95999999999998 80.95999999999998h102.529c11.401 0 21.228 8.021 23.513 19.19L208.16799999999998 144.95999999999998H600.95c15.401 0 26.816 14.301 23.403 29.319l-47.273 208C574.597 393.20599999999996 564.883 400.96 553.6769999999999 400.96zM456.96 248.95999999999998h-48v-40c0-8.837-7.163-16-16-16h-16c-8.837 0-16 7.163-16 16v40h-48c-8.837 0-16 7.163-16 16v16c0 8.837 7.163 16 16 16h48v40c0 8.837 7.163 16 16 16h16c8.837 0 16-7.163 16-16v-40h48c8.837 0 16-7.163 16-16v-16c0-8.837-7.163-16-16-16z" /></svg>