<svg xmlns="http://www.w3.org/2000/svg" width="100%" height="100%" viewBox="0 0 599.04 599.04"><path d="M475.52 43.51999999999998H123.51999999999998C97.91999999999999 43.51999999999998 75.51999999999998 65.91999999999999 75.51999999999998 91.51999999999998v416c0 25.6 22.4 48 48 48h352c25.6 0 48-22.4 48-48V91.51999999999998c0-25.6-22.4-48-48-48zM203.51999999999998 478.71999999999997c0 6.4-6.4 12.8-12.8 12.8H152.32c-6.4 0-12.8-6.4-12.8-12.8v-38.4c0-6.4 6.4-12.8 12.8-12.8h38.4c6.4 0 12.8 6.4 12.8 12.8v38.4z m0-128c0 6.4-6.4 12.8-12.8 12.8H152.32c-6.4 0-12.8-6.4-12.8-12.8v-38.4c0-6.4 6.4-12.8 12.8-12.8h38.4c6.4 0 12.8 6.4 12.8 12.8v38.4z m128 128c0 6.4-6.4 12.8-12.8 12.8h-38.4c-6.4 0-12.8-6.4-12.8-12.8v-38.4c0-6.4 6.4-12.8 12.8-12.8h38.4c6.4 0 12.8 6.4 12.8 12.8v38.4z m0-128c0 6.4-6.4 12.8-12.8 12.8h-38.4c-6.4 0-12.8-6.4-12.8-12.8v-38.4c0-6.4 6.4-12.8 12.8-12.8h38.4c6.4 0 12.8 6.4 12.8 12.8v38.4z m128 128c0 6.4-6.4 12.8-12.8 12.8h-38.4c-6.4 0-12.8-6.4-12.8-12.8V312.32c0-6.4 6.4-12.8 12.8-12.8h38.4c6.4 0 12.8 6.4 12.8 12.8v166.4z m0-256c0 6.4-6.4 12.8-12.8 12.8H152.32c-6.4 0-12.8-6.4-12.8-12.8V120.31999999999998C139.51999999999998 113.91999999999999 145.92 107.51999999999998 152.32 107.51999999999998h294.4c6.4 0 12.8 6.4 12.8 12.8v102.4z" /></svg>