<svg xmlns="http://www.w3.org/2000/svg" width="100%" height="100%" viewBox="0 0 599.04 599.04"><path d="M365.12 141.01999999999998l31.6 31.7-76.3 76.5V141.01999999999998z m-162.4 31.7l76.3 76.5V141.01999999999998h-44.7z m41.5-41.6h44.7v127.9l10.8 10.8 10.8-10.8V131.11999999999998h44.7L299.71999999999997 75.51999999999998z m26.2 168.1l-10.8-10.8H131.01999999999998v-44.8L75.51999999999998 299.21999999999997l55.5 55.6v-44.8h128.6l10.8-10.8z m79.3-20.7h107.9v-44.8l-31.6-31.7z m173.3 20.7L467.52 243.61999999999998v44.8H339.82l-10.8 10.8 10.8 10.8H467.52v44.8l55.5-55.6zM140.92 219.71999999999997l32.5-31.7 90.3 90.5h15.3v-15.3l-90.3-90.5 31.6-31.7H140.92z m316.7-78.7h-78.5l31.6 31.7-90.3 90.5V278.52h15.3l90.3-90.5 31.6 31.7zM279.02 457.41999999999996V349.32l-76.3 76.5 31.6 31.7h44.7zM140.92 278.52h108.8l-76.3-76.5-32.5 31.7z m316.7 100.2l-31.6 31.7-90.3-90.5h-15.3v15.3l90.3 90.5-31.6 31.7h78.5z m0-58.8H349.71999999999997l76.3 76.5 31.6-31.7z m-60.9 105.8l-76.3-76.5v108.1h44.7zM173.42 396.41999999999996l76.3-76.5H140.92v44.8z m181.8 70.9H310.52V339.41999999999996l-10.8-10.8-10.8 10.8v127.9h-44.7l55.5 55.6z m-166.5-41.6l90.3-90.5v-15.3h-15.3l-90.3 90.5-32.5-31.7v78.7h79.4z" /></svg>