<svg xmlns="http://www.w3.org/2000/svg" width="100%" height="100%" viewBox="0 0 599.04 599.04"><path d="M555.52 187.51999999999998v288c0 26.5-21.5 48-48 48H91.51999999999998c-26.5 0-48-21.5-48-48V187.51999999999998c0-26.5 21.5-48 48-48h88l12.3-32.9c7-18.7 24.9-31.1 44.9-31.1h125.5c20 0 37.9 12.4 44.9 31.1L419.52 139.51999999999998h88c26.5 0 48 21.5 48 48zM419.52 331.52c0-66.2-53.8-120-120-120s-120 53.8-120 120 53.8 120 120 120 120-53.8 120-120z m-32 0c0 48.5-39.5 88-88 88s-88-39.5-88-88 39.5-88 88-88 88 39.5 88 88z" /></svg>