<svg xmlns="http://www.w3.org/2000/svg" width="100%" height="100%" viewBox="0 0 599.04 599.04"><path d="M75.51999999999998 507.52c0 26.5 21.5 48 48 48h352c26.5 0 48-21.5 48-48V235.51999999999998H75.51999999999998v272z m320-196c0-6.6 5.4-12 12-12h40c6.6 0 12 5.4 12 12v40c0 6.6-5.4 12-12 12h-40c-6.6 0-12-5.4-12-12v-40z m0 128c0-6.6 5.4-12 12-12h40c6.6 0 12 5.4 12 12v40c0 6.6-5.4 12-12 12h-40c-6.6 0-12-5.4-12-12v-40zM267.52 311.52c0-6.6 5.4-12 12-12h40c6.6 0 12 5.4 12 12v40c0 6.6-5.4 12-12 12h-40c-6.6 0-12-5.4-12-12v-40z m0 128c0-6.6 5.4-12 12-12h40c6.6 0 12 5.4 12 12v40c0 6.6-5.4 12-12 12h-40c-6.6 0-12-5.4-12-12v-40zM139.51999999999998 311.52c0-6.6 5.4-12 12-12h40c6.6 0 12 5.4 12 12v40c0 6.6-5.4 12-12 12H151.51999999999998c-6.6 0-12-5.4-12-12v-40z m0 128c0-6.6 5.4-12 12-12h40c6.6 0 12 5.4 12 12v40c0 6.6-5.4 12-12 12H151.51999999999998c-6.6 0-12-5.4-12-12v-40zM475.52 107.51999999999998h-48V59.51999999999998c0-8.8-7.2-16-16-16h-32c-8.8 0-16 7.2-16 16v48H235.51999999999998V59.51999999999998c0-8.8-7.2-16-16-16h-32c-8.8 0-16 7.2-16 16v48H123.51999999999998C97.01999999999998 107.51999999999998 75.51999999999998 129.01999999999998 75.51999999999998 155.51999999999998v48h448v-48c0-26.5-21.5-48-48-48z" /></svg>