<svg xmlns="http://www.w3.org/2000/svg" width="100%" height="100%" viewBox="0 0 599.04 599.04"><path d="M147.51999999999998 331.4c0 51.64 22.14 73.83 56 84.6V459.52h192v-43.52c33.86-10.77 56-33 56-84.6 0-30.61-10.73-67.1-26.69-102.56L324.52 329.16999999999996a8 8 0 0 1-11.31 0l-11.31-11.31a8 8 0 0 1 0-11.31L409.78999999999996 198.61999999999998c-20.8-37.91-46.47-72.1-70.87-92.59C352.91999999999996 102.60999999999999 363.52 90.56999999999998 363.52 75.51999999999998a32 32 0 0 0-32-32h-64a32 32 0 0 0-32 32c0 15 10.6 27.09 24.6 30.51C207.32999999999998 150.32 147.51999999999998 258.02 147.51999999999998 331.4zM443.52 491.52H155.51999999999998a16 16 0 0 0-16 16v32a16 16 0 0 0 16 16h288a16 16 0 0 0 16-16v-32a16 16 0 0 0-16-16z" /></svg>