<svg xmlns="http://www.w3.org/2000/svg" width="100%" height="100%" viewBox="0 0 599.04 599.04"><path d="M301.41999999999996 75.51999999999998C178.82 75.51999999999998 75.51999999999998 174.01999999999998 75.51999999999998 295.62 75.51999999999998 299.52 75.61999999999998 523.52 75.61999999999998 523.52l225.8-0.2c122.7 0 222.1-102.3 222.1-223.9C523.52 177.82 424.12 75.51999999999998 301.41999999999996 75.51999999999998zM299.52 427.52c-19.4 0-37.9-4.3-54.4-12.1L164.01999999999998 435.52l22.9-75c-9.8-18.1-15.4-38.9-15.4-61 0-70.7 57.3-128 128-128s128 57.3 128 128-57.3 128-128 128z" /></svg>