<svg xmlns="http://www.w3.org/2000/svg" width="100%" height="100%" viewBox="0 0 599.04 599.04"><path d="M425.71999999999997 179.51999999999998h51.7v239.6h-51.7v-20.7c-19.8 24.8-52.8 24.1-73.8 14.7-26.2-11.7-44.3-38.1-44.3-71.8 0-29.8 14.8-57.9 43.3-70.8 20.2-9.1 52.7-10.6 74.8 12.9V179.51999999999998z m-64.7 161.8c0 18.2 13.6 33.5 33.2 33.5 19.8 0 33.2-16.4 33.2-32.9 0-17.1-13.7-33.2-33.2-33.2-19.6 0-33.2 16.4-33.2 32.6zM232.01999999999998 179.51999999999998h51.7v239.6h-51.7v-20.7c-19.8 24.8-52.8 24.1-73.8 14.7-26.2-11.7-44.3-38.1-44.3-71.8 0-29.8 14.8-57.9 43.3-70.8 20.2-9.1 52.7-10.6 74.8 12.9V179.51999999999998z m-64.7 161.8c0 18.2 13.6 33.5 33.2 33.5 19.8 0 33.2-16.4 33.2-32.9 0-17.1-13.7-33.2-33.2-33.2-19.7 0-33.2 16.4-33.2 32.6zM491.52 139.51999999999998c17.5 0 32 14.4 32 32v256c0 17.5-14.4 32-32 32H107.51999999999998c-17.5 0-32-14.4-32-32V171.51999999999998c0-17.5 14.4-32 32-32h384m0-32H107.51999999999998C72.31999999999998 107.51999999999998 43.51999999999998 136.32 43.51999999999998 171.51999999999998v256c0 35.2 28.8 64 64 64h384c35.2 0 64-28.8 64-64V171.51999999999998c0-35.2-28.8-64-64-64z" /></svg>