<svg xmlns="http://www.w3.org/2000/svg" width="100%" height="100%" viewBox="0 0 673.92 673.92"><path d="M343.15999999999997 358.65999999999997c18 5 34.7 13.4 49.5 24.7l161.5-53.8c8.4-2.8 12.9-11.9 10.1-20.2L503.85999999999996 128.15999999999997c-2.8-8.4-11.9-12.9-20.2-10.1l-61.1 20.4 33.1 99.4L394.96 257.96l-33.1-99.4-61.6 20.5c-8.4 2.8-12.9 11.9-10.1 20.2l53 159.4z m281 48.7L613.96 376.96c-2.8-8.4-11.9-12.9-20.2-10.1l-213.5 71.2c-17.2-22-43.6-36.4-73.5-37L207.35999999999999 102.85999999999999C202.95999999999998 89.75999999999998 190.76 80.95999999999998 176.95999999999998 80.95999999999998H64.95999999999998C56.15999999999998 80.95999999999998 48.95999999999998 88.15999999999998 48.95999999999998 96.95999999999998v32c0 8.8 7.2 16 16 16h88.9l92.2 276.7c-26.1 20.4-41.7 53.6-36 90.5 6.1 39.4 37.9 72.3 77.3 79.2 60.2 10.7 112.3-34.8 113.4-92.6l213.3-71.2c8.3-2.8 12.9-11.8 10.1-20.2zM304.96 544.96c-26.5 0-48-21.5-48-48s21.5-48 48-48 48 21.5 48 48-21.5 48-48 48z" /></svg>