<svg xmlns="http://www.w3.org/2000/svg" width="100%" height="100%" viewBox="0 0 599.04 599.04"><path d="M130.51999999999998 525.3199999999999h73.7v-73.6H130.51999999999998zM68.91999999999999 390.12v61.6H130.51999999999998v-61.6z m466.2-169.7c-23-74.2-82.4-133.3-156.6-156.6C208.42 10.719999999999985 51.51999999999998 137.21999999999997 51.51999999999998 299.41999999999996h95.8c0-101.8 101-180.5 208.1-141.7 39.7 14.3 71.5 46.1 85.8 85.7 39.1 107-39.7 207.8-141.4 208v0.3h-0.3V547.52c162.6 0 288.8-156.8 235.6-327.1z m-235.3 231v-95.3h-95.6v95.6H299.52v-0.3z" /></svg>