<svg xmlns="http://www.w3.org/2000/svg" width="100%" height="100%" viewBox="0 0 599.04 599.04"><path d="M459.52 395.52c-0.35 0-0.67 0.1-1.02 0.1l-39.2-65.32c5.07-9.17 8.22-19.56 8.22-30.78s-3.14-21.61-8.22-30.78l39.2-65.32c0.35 0.01 0.67 0.1 1.02 0.1 35.35 0 64-28.65 64-64s-28.65-64-64-64c-23.63 0-44.04 12.95-55.12 32H194.64C183.56 88.46999999999998 163.14999999999998 75.51999999999998 139.51999999999998 75.51999999999998 104.16999999999999 75.51999999999998 75.51999999999998 104.16999999999999 75.51999999999998 139.51999999999998c0 23.63 12.95 44.04 32 55.12v209.75C88.46999999999998 415.47999999999996 75.51999999999998 435.89 75.51999999999998 459.52c0 35.35 28.65 64 64 64 23.63 0 44.04-12.95 55.12-32h209.75c11.09 19.05 31.49 32 55.12 32 35.35 0 64-28.65 64-64 0.01-35.35-28.64-64-63.99-64z m-288 8.88V194.64A63.825 63.825 0 0 0 194.64 171.51999999999998h208.36l-38.46 64.1c-0.35-0.01-0.67-0.1-1.02-0.1-35.35 0-64 28.65-64 64s28.65 64 64 64c0.35 0 0.67-0.1 1.02-0.1l38.46 64.1H194.64A63.748 63.748 0 0 0 171.51999999999998 404.4zM347.52 299.52c0-8.82 7.18-16 16-16s16 7.18 16 16-7.18 16-16 16-16-7.18-16-16zM475.52 139.51999999999998c0 8.82-7.18 16-16 16s-16-7.18-16-16 7.18-16 16-16 16 7.18 16 16zM139.51999999999998 123.51999999999998c8.82 0 16 7.18 16 16s-7.18 16-16 16-16-7.18-16-16 7.18-16 16-16zM123.51999999999998 459.52c0-8.82 7.18-16 16-16s16 7.18 16 16-7.18 16-16 16-16-7.18-16-16z m336 16c-8.82 0-16-7.18-16-16s7.18-16 16-16 16 7.18 16 16-7.18 16-16 16z" /></svg>