<svg xmlns="http://www.w3.org/2000/svg" width="100%" height="100%" viewBox="0 0 673.92 673.92"><path d="M347.02 304.96L496.96 358.51V576.96a16 16 0 0 1-16 16H416.96a16 16 0 0 1-16-16V464.96H240.95999999999998V576.96a16 16 0 0 1-16 16H160.95999999999998a16 16 0 0 1-16-16V363.04999999999995C107.79999999999998 349.79999999999995 80.95999999999998 314.62 80.95999999999998 272.96a32 32 0 0 1 64 0 32.06 32.06 0 0 0 32 32ZM592.96 192.95999999999998v32a64 64 0 0 1-64 64H496.96v35.58L368.96 278.83V128.95999999999998c0-14.25 17.22-21.39 27.31-11.31L423.54999999999995 144.95999999999998h53.63c10.91 0 23.75 7.92 28.62 17.69L512.96 176.95999999999998h64A16 16 0 0 1 592.96 192.95999999999998Zm-112 0a16 16 0 1 0-16 16A16 16 0 0 0 480.96 192.95999999999998Z" /></svg>