<svg xmlns="http://www.w3.org/2000/svg" width="100%" height="100%" viewBox="0 0 599.04 599.04"><path d="M450.226 457.28499999999997c-1.314-6.63-7.835-10.872-14.424-9.369-10.692 2.439-27.422 5.413-45.426 5.413-56.763 0-101.929-34.79-121.461-85.449h113.689a12 12 0 0 0 11.708-9.369l6.373-28.36c1.686-7.502-4.019-14.631-11.708-14.631H254.73999999999998c-1.21-14.328-1.414-28.287 0.137-42.245H401.46999999999997a12 12 0 0 0 11.723-9.434l6.512-29.755c1.638-7.484-4.061-14.566-11.723-14.566H269.70399999999995c20.633-44.991 62.69-75.03 117.619-75.03 14.486 0 28.564 2.25 37.851 4.145 6.216 1.268 12.347-2.498 14.002-8.623l11.991-44.368c1.822-6.741-2.465-13.616-9.326-14.917C429.73699999999997 78.43199999999999 410.22999999999996 75.51999999999998 389.155 75.51999999999998 291.971 75.51999999999998 213.54999999999998 135.772 184.59499999999997 219.51999999999998H151.51999999999998c-6.627 0-12 5.373-12 12v29.755c0 6.627 5.373 12 12 12h21.569c-1.009 13.607-1.181 29.287-0.181 42.245H151.51999999999998c-6.627 0-12 5.373-12 12v28.36c0 6.627 5.373 12 12 12h30.114C206.659 458.212 284.784 523.52 389.155 523.52c26.301 0 48.562-4.544 61.101-7.788 6.167-1.595 10.027-7.708 8.788-13.957l-8.818-44.49z" /></svg>