<svg xmlns="http://www.w3.org/2000/svg" width="100%" height="100%" viewBox="0 0 599.04 599.04"><path d="M547.52 299.52c0 136.997-111.043 248-248 248S51.51999999999998 436.517 51.51999999999998 299.52C51.51999999999998 162.60299999999998 162.563 51.51999999999998 299.52 51.51999999999998s248 111.083 248 248z m-248 50c-25.405 0-46 20.595-46 46s20.595 46 46 46 46-20.595 46-46-20.595-46-46-46z m-43.673-165.346l7.418 136c0.347 6.364 5.609 11.346 11.982 11.346h48.546c6.373 0 11.635-4.982 11.982-11.346l7.418-136c0.375-6.874-5.098-12.654-11.982-12.654h-63.383c-6.884 0-12.356 5.78-11.981 12.654z" /></svg>