<svg xmlns="http://www.w3.org/2000/svg" width="100%" height="100%" viewBox="0 0 599.04 599.04"><path d="M491.52 391.52c-1.75 10.75-13.75 110-15.5 132-117.879-4.299-219.895-4.743-368.5 0v-25.5c45.457-8.948 60.627-8.019 61-35.25 1.793-72.322 3.524-244.143 0-322-1.029-28.46-12.13-26.765-61-36v-25.5c73.886 2.358 255.933 8.551 362.999-3.75-3.5 38.25-7.75 126.5-7.75 126.5H439.52C428.467 159.185 420.76099999999997 111.51999999999998 384.77 111.51999999999998h-137c-10.25 0-10.75 3.5-10.75 9.75V285.02c58 0.5 88.5-2.5 88.5-2.5 29.77-0.951 27.56-8.502 40.75-65.251h25.75c-4.407 101.351-3.91 61.829-1.75 160.25H364.52c-9.155-40.086-9.065-61.045-39.501-61.5 0 0-21.5-2-88-2v139c0 26 14.25 38.25 44.25 38.25H370.52c63.636 0 66.564-24.996 98.751-99.75H491.52z" /></svg>