<svg xmlns="http://www.w3.org/2000/svg" width="100%" height="100%" viewBox="0 0 748.8 748.8"><path d="M141.59999999999997 171.89999999999998H54.39999999999998v405h100.4c-49.7-52.6-78.8-125.3-78.7-212.1-0.1-76.7 24-142.7 65.5-192.9z m238.2 9.7c-45.9 0.1-85.1 33.5-89.2 83.2h169.9c-1.1-49.7-34.5-83.1-80.7-83.2z m230.7-9.6h0.3l-0.1-0.1z m0.3 0c31.4 42.7 48.7 97.5 46.2 162.7 0.5 6 0.5 11.7 0 24.1H284.59999999999997c-0.2 109.7 38.9 194.9 138.6 195.3 68.5-0.3 118-51 151.9-106.1l96.4 48.2c-17.4 30.9-36.5 57.8-57.9 80.8H694.4v-405z" /></svg>