<svg xmlns="http://www.w3.org/2000/svg" width="100%" height="100%" viewBox="0 0 599.04 599.04"><path d="M475.52 75.51999999999998H123.51999999999998C97.00999999999998 75.51999999999998 75.51999999999998 97.00999999999999 75.51999999999998 123.51999999999998v352c0 26.51 21.49 48 48 48h352c26.51 0 48-21.49 48-48V123.51999999999998c0-26.51-21.49-48-48-48zM253.63699999999997 305.62399999999997C162.94899999999998 239.807 163.873 239.641 139.51999999999998 220.68699999999998V195.51999999999998c0-13.255 10.745-24 24-24h272c13.255 0 24 10.745 24 24v25.167c-24.371 18.969-23.434 19.124-114.117 84.938-10.5 7.655-31.392 26.12-45.883 25.894-14.503 0.218-35.367-18.227-45.883-25.895zM459.52 261.29499999999996V403.52c0 13.255-10.745 24-24 24H163.51999999999998c-13.255 0-24-10.745-24-24V261.29499999999996c13.958 10.794 33.329 25.236 95.303 70.214 14.162 10.341 37.975 32.145 64.694 32.01 26.887 0.134 51.037-22.041 64.72-32.025 61.958-44.965 81.325-59.406 95.283-70.199z" /></svg>