<svg xmlns="http://www.w3.org/2000/svg" width="100%" height="100%" viewBox="0 0 673.92 673.92"><path d="M621.654 373.053L549.23 497.20799999999997A63.997 63.997 0 0 1 493.94899999999996 528.96H93.98499999999999c-18.523 0-30.064-20.093-20.731-36.093l72.424-124.155A64 64 0 0 1 200.95999999999998 336.96h399.964c18.523 0 30.064 20.093 20.73 36.093zM200.95999999999998 304.96h328v-48c0-26.51-21.49-48-48-48H320.96l-64-64H96.95999999999998C70.44999999999997 144.95999999999998 48.95999999999998 166.45 48.95999999999998 192.95999999999998v278.046l69.077-118.418C135.17399999999998 323.21 166.94899999999998 304.96 200.95999999999998 304.96z" /></svg>