<svg xmlns="http://www.w3.org/2000/svg" width="100%" height="100%" viewBox="0 0 599.04 599.04"><path d="M491.52 165.46099999999998V171.51999999999998H363.52V43.51999999999998h6.059c6.365 0 12.47 2.529 16.971 7.029l97.941 97.941A24.005 24.005 0 0 1 491.52 165.46099999999998zM355.52 203.51999999999998c-13.2 0-24-10.8-24-24V43.51999999999998H131.51999999999998C118.26499999999999 43.51999999999998 107.51999999999998 54.26499999999998 107.51999999999998 67.51999999999998v464c0 13.255 10.745 24 24 24h336c13.255 0 24-10.745 24-24V203.51999999999998H355.52zM230.726 444.025a5.4 5.4 0 0 1-7.633 0.246l-64.866-60.812a5.4 5.4 0 0 1 0-7.879l64.866-60.812a5.4 5.4 0 0 1 7.633 0.246l19.579 20.885a5.4 5.4 0 0 1-0.372 7.747L209.17 379.52l40.763 35.874a5.4 5.4 0 0 1 0.372 7.747l-19.579 20.884z m51.295 50.479l-27.453-7.97a5.402 5.402 0 0 1-3.681-6.692l61.44-211.626a5.402 5.402 0 0 1 6.692-3.681l27.452 7.97a5.4 5.4 0 0 1 3.68 6.692l-61.44 211.626a5.397 5.397 0 0 1-6.69 3.681z m160.792-111.045l-64.866 60.812a5.4 5.4 0 0 1-7.633-0.246l-19.58-20.885a5.4 5.4 0 0 1 0.372-7.747L391.87 379.52l-40.763-35.874a5.4 5.4 0 0 1-0.372-7.747l19.58-20.885a5.4 5.4 0 0 1 7.633-0.246l64.866 60.812a5.4 5.4 0 0 1-0.001 7.879z" /></svg>