<svg xmlns="http://www.w3.org/2000/svg" width="100%" height="100%" viewBox="0 0 673.92 673.92"><path d="M560.96 400.96s-64 92.65-64 128c0 35.35 28.66 64 64 64s64-28.65 64-64-64-128-64-128z m-9.37-102.94L343.9 90.32999999999998C337.65 84.07999999999998 329.46 80.95999999999998 321.27 80.95999999999998s-16.38 3.12-22.62 9.37l-81.58 81.58L130.89 85.71999999999998c-6.25-6.25-16.38-6.25-22.62 0L85.64999999999998 108.33999999999997c-6.24 6.25-6.24 16.38 0 22.62l86.19 86.18-94.76 94.76c-37.49 37.48-37.49 98.26 0 135.75l117.19 117.19c18.74 18.74 43.31 28.12 67.87 28.12 24.57 0 49.13-9.37 67.87-28.12l221.57-221.57c12.5-12.5 12.5-32.75 0.01-45.25z m-116.22 70.97H114.88999999999999c1.36-3.84 3.57-7.98 7.43-11.83l13.15-13.15 81.61-81.61 58.6 58.6c12.49 12.49 32.75 12.49 45.24 0s12.49-32.75 0-45.24l-58.6-58.6 58.95-58.95 162.44 162.44-48.34 48.34z" /></svg>