<svg xmlns="http://www.w3.org/2000/svg" width="100%" height="100%" viewBox="0 0 599.04 599.04"><path d="M299.52 51.51999999999998C162.51999999999998 51.51999999999998 51.51999999999998 162.51999999999998 51.51999999999998 299.52s111 248 248 248 248-111 248-248S436.52 51.51999999999998 299.52 51.51999999999998zM187.51999999999998 251.51999999999998c0-17.7 14.3-32 32-32s32 14.3 32 32-14.3 32-32 32-32-14.3-32-32z m187.3 183.3c-31.2-9.6-59.4-15.3-75.3-15.3s-44.1 5.7-75.3 15.3c-11.5 3.5-22.5-6.3-20.5-18.1 7-40 60.1-61.2 95.8-61.2s88.8 21.3 95.8 61.2c2 11.9-9.1 21.6-20.5 18.1zM379.52 283.52c-17.7 0-32-14.3-32-32s14.3-32 32-32 32 14.3 32 32-14.3 32-32 32z" /></svg>