<svg xmlns="http://www.w3.org/2000/svg" width="100%" height="100%" viewBox="0 0 599.04 599.04"><path d="M75.51999999999998 75.51999999999998v448h448V75.51999999999998z m187 140.9c-18.4 0-19 9.9-19 27.4v23.3c0 2.4-3.5 4.4-0.6 4.4h67.4l-11.1 37.3H243.51999999999998v112.9c0 5.8-2 6.7 3.2 7.3l43.5 4.1v25.1H159.51999999999998V432.52l21.3-2c5.2-0.6 6.7-2.3 6.7-7.9V311.21999999999997c0-2.3-2.9-2.3-5.8-2.3H159.51999999999998V271.52h28v-21c0-49.6 26.5-70 77.3-70 34.1 0 64.7 8.2 64.7 52.8l-50.7 6.1c0.3-18.7-4.4-23-16.3-23z m74.3 241.8v-25.1l20.4-2.6c5.2-0.6 7.6-1.7 7.6-7.3V315.32c0-4.1-2.9-6.7-6.7-7.9l-24.2-6.4 6.7-29.5h80.2v151.7c0 5.8-2.6 6.4 2.9 7.3l15.7 2.6v25.1z m80.8-255.5l9 33.2-7.3 7.3-31.2-16.6-31.2 16.6-7.3-7.3 9-33.2-21.8-24.2 3.5-9.6h27.7l15.5-28h9.3l15.5 28h27.7l3.5 9.6z" /></svg>