<svg xmlns="http://www.w3.org/2000/svg" width="100%" height="100%" viewBox="0 0 673.92 673.92"><path d="M267.13 505.09999999999997c-2.95-5.92-8.09-6.52-10.17-6.52s-7.22 0.59-10.02 6.19l-7.67 15.34c-6.37 12.78-25.03 11.37-29.48-2.09L192.95999999999998 467.54999999999995l-10.61 31.88c-5.89 17.66-22.38 29.53-41 29.53H128.95999999999998c-8.84 0-16-7.16-16-16s7.16-16 16-16h12.39c4.83 0 9.11-3.08 10.64-7.66l18.19-54.64c3.3-9.81 12.44-16.41 22.78-16.41s19.48 6.59 22.77 16.41l13.88 41.64c19.75-16.19 54.06-9.7 66 14.16 1.89 3.78 5.49 5.95 9.36 6.26v-82.12l128-127.09V240.95999999999998H296.96c-13.2 0-24-10.8-24-24V80.95999999999998H72.95999999999998C59.65999999999998 80.95999999999998 48.95999999999998 91.65999999999998 48.95999999999998 104.95999999999998v464c0 13.3 10.7 24 24 24h336c13.3 0 24-10.7 24-24v-40l-128-0.11c-16.12-0.31-30.58-9.28-37.83-23.75zM432.96 202.85999999999999c0-6.3-2.5-12.4-7-16.9L328.06 87.95999999999998c-4.5-4.5-10.6-7-17-7H304.96v128h128v-6.1z m-96 225.06V496.96h68.99l161.68-162.78-67.88-67.88L336.96 427.91999999999996z m280.54-179.63l-31.87-31.87c-9.94-9.94-26.07-9.94-36.01 0l-27.25 27.25 67.88 67.88 27.25-27.25c9.95-9.94 9.95-26.07 0-36.01z" /></svg>