<svg xmlns="http://www.w3.org/2000/svg" width="100%" height="100%" viewBox="0 0 599.04 599.04"><path d="M299.52 43.51999999999998c35.346 0 64 28.654 64 64s-28.654 64-64 64c-35.346 0-64-28.654-64-64S264.174 43.51999999999998 299.52 43.51999999999998m119.283 354.179l-48-192A24 24 0 0 0 347.52 187.51999999999998h-11.36c-22.711 10.443-49.59 10.894-73.28 0H251.51999999999998a24 24 0 0 0-23.283 18.179l-48 192C176.45499999999998 412.825 187.903 427.52 203.51999999999998 427.52h56v104c0 13.255 10.745 24 24 24h32c13.255 0 24-10.745 24-24V427.52h56c15.591 0 27.071-14.671 23.283-29.821z" /></svg>