<svg xmlns="http://www.w3.org/2000/svg" width="100%" height="100%" viewBox="0 0 599.04 599.04"><path d="M251.51999999999998 280.91999999999996h-22.2c-2.1 0-3.7 1.6-3.7 3.7v51.7c0 2.1 1.6 3.7 3.7 3.7H251.51999999999998c2.1 0 3.7-1.6 3.7-3.7v-51.7c0-2.1-1.6-3.7-3.7-3.7z m118.2 0H347.52c-2.1 0-3.7 1.6-3.7 3.7v51.7c0 2.1 1.6 3.7 3.7 3.7h22.2c2.1 0 3.7-1.6 3.7-3.7v-51.7c-0.1-2.1-1.7-3.7-3.7-3.7z m132-125.1c-2.3-3.2-4.6-6.4-7.1-9.5-9.8-12.5-20.8-24-32.8-34.4-4.5-3.9-9.1-7.6-13.9-11.2-1.6-1.2-3.2-2.3-4.8-3.5C415.52 77.61999999999998 383.82 63.51999999999998 349.52 56.51999999999998c-16.2-3.3-32.9-5-50-5s-33.9 1.7-50 5c-34.3 7.1-66 21.2-93.3 40.8-1.6 1.1-3.2 2.3-4.8 3.5-4.8 3.6-9.4 7.3-13.9 11.2-3 2.6-5.9 5.3-8.8 8s-5.7 5.5-8.4 8.4c-5.5 5.7-10.7 11.8-15.6 18-2.4 3.1-4.8 6.3-7.1 9.5C68.71999999999998 196.51999999999998 51.81999999999998 246.01999999999998 51.81999999999998 299.52c0 2 0.1 4 0.1 6 0.1 0.7 0.1 1.3 0.1 2 0.1 1.3 0.1 2.7 0.2 4 0 0.8 0.1 1.5 0.1 2.3 0 1.3 0.1 2.5 0.2 3.7 0.1 0.8 0.1 1.6 0.2 2.4 0.1 1.1 0.2 2.3 0.3 3.5 0 0.8 0.1 1.6 0.2 2.4 0.1 1.2 0.3 2.4 0.4 3.6 0.1 0.8 0.2 1.5 0.3 2.3 0.1 1.3 0.3 2.6 0.5 3.9 0.1 0.6 0.2 1.3 0.3 1.9l0.9 5.7c0.1 0.6 0.2 1.1 0.3 1.7 0.3 1.3 0.5 2.7 0.8 4 0.2 0.8 0.3 1.6 0.5 2.4 0.2 1 0.5 2.1 0.7 3.2 0.2 0.9 0.4 1.7 0.6 2.6 0.2 1 0.4 2 0.7 3 0.2 0.9 0.5 1.8 0.7 2.7 0.3 1 0.5 1.9 0.8 2.9 0.3 0.9 0.5 1.8 0.8 2.7 0.2 0.9 0.5 1.9 0.8 2.8s0.5 1.8 0.8 2.7c0.3 1 0.6 1.9 0.9 2.8 0.6 1.6 1.1 3.3 1.7 4.9 0.4 1 0.7 1.9 1 2.8 0.3 1 0.7 2 1.1 3 0.3 0.8 0.6 1.5 0.9 2.3l1.2 3c0.3 0.7 0.6 1.5 0.9 2.2 0.4 1 0.9 2 1.3 3l0.9 2.1c0.5 1 0.9 2 1.4 3 0.3 0.7 0.6 1.3 0.9 2 0.5 1 1 2.1 1.5 3.1 0.2 0.6 0.5 1.1 0.8 1.7 0.6 1.1 1.1 2.2 1.7 3.3 0.1 0.2 0.2 0.3 0.3 0.5 2.2 4.1 4.4 8.2 6.8 12.2 0.2 0.4 0.5 0.8 0.7 1.2 0.7 1.1 1.3 2.2 2 3.3 0.3 0.5 0.6 0.9 0.9 1.4 0.6 1.1 1.3 2.1 2 3.2 0.3 0.5 0.6 0.9 0.9 1.4 0.7 1.1 1.4 2.1 2.1 3.2 0.2 0.4 0.5 0.8 0.8 1.2 0.7 1.1 1.5 2.2 2.3 3.3 0.2 0.2 0.3 0.5 0.5 0.7 37.5 51.7 94.4 88.5 160 99.4 0.9 0.1 1.7 0.3 2.6 0.4 1 0.2 2.1 0.4 3.1 0.5s1.9 0.3 2.8 0.4c1 0.2 2 0.3 3 0.4 0.9 0.1 1.9 0.2 2.9 0.3s1.9 0.2 2.9 0.3 2.1 0.2 3.1 0.3c0.9 0.1 1.8 0.1 2.7 0.2 1.1 0.1 2.3 0.1 3.4 0.2 0.8 0 1.7 0.1 2.5 0.1 1.3 0 2.6 0.1 3.9 0.1 0.7 0.1 1.4 0.1 2.1 0.1 2 0.1 4 0.1 6 0.1s4-0.1 6-0.1c0.7 0 1.4-0.1 2.1-0.1 1.3 0 2.6 0 3.9-0.1 0.8 0 1.7-0.1 2.5-0.1 1.1-0.1 2.3-0.1 3.4-0.2 0.9 0 1.8-0.1 2.7-0.2 1-0.1 2.1-0.2 3.1-0.3s1.9-0.2 2.9-0.3c0.9-0.1 1.9-0.2 2.9-0.3s2-0.3 3-0.4 1.9-0.3 2.8-0.4c1-0.2 2.1-0.3 3.1-0.5 0.9-0.1 1.7-0.3 2.6-0.4 65.6-11 122.5-47.7 160.1-102.4 0.2-0.2 0.3-0.5 0.5-0.7 0.8-1.1 1.5-2.2 2.3-3.3 0.2-0.4 0.5-0.8 0.8-1.2 0.7-1.1 1.4-2.1 2.1-3.2 0.3-0.5 0.6-0.9 0.9-1.4 0.6-1.1 1.3-2.1 2-3.2 0.3-0.5 0.6-0.9 0.9-1.4 0.7-1.1 1.3-2.2 2-3.3 0.2-0.4 0.5-0.8 0.7-1.2 2.4-4 4.6-8.1 6.8-12.2 0.1-0.2 0.2-0.3 0.3-0.5 0.6-1.1 1.1-2.2 1.7-3.3 0.2-0.6 0.5-1.1 0.8-1.7 0.5-1 1-2.1 1.5-3.1 0.3-0.7 0.6-1.3 0.9-2 0.5-1 1-2 1.4-3l0.9-2.1c0.5-1 0.9-2 1.3-3 0.3-0.7 0.6-1.5 0.9-2.2l1.2-3c0.3-0.8 0.6-1.5 0.9-2.3 0.4-1 0.7-2 1.1-3s0.7-1.9 1-2.8c0.6-1.6 1.2-3.3 1.7-4.9 0.3-1 0.6-1.9 0.9-2.8s0.5-1.8 0.8-2.7c0.2-0.9 0.5-1.9 0.8-2.8s0.6-1.8 0.8-2.7c0.3-1 0.5-1.9 0.8-2.9 0.2-0.9 0.5-1.8 0.7-2.7 0.2-1 0.5-2 0.7-3 0.2-0.9 0.4-1.7 0.6-2.6 0.2-1 0.5-2.1 0.7-3.2 0.2-0.8 0.3-1.6 0.5-2.4 0.3-1.3 0.6-2.7 0.8-4 0.1-0.6 0.2-1.1 0.3-1.7l0.9-5.7c0.1-0.6 0.2-1.3 0.3-1.9 0.1-1.3 0.3-2.6 0.5-3.9 0.1-0.8 0.2-1.5 0.3-2.3 0.1-1.2 0.3-2.4 0.4-3.6 0-0.8 0.1-1.6 0.2-2.4 0.1-1.1 0.2-2.3 0.3-3.5 0.1-0.8 0.1-1.6 0.2-2.4 0.1 1.7 0.1 0.5 0.2-0.7 0-0.8 0.1-1.5 0.1-2.3 0.1-1.3 0.2-2.7 0.2-4 0.1-0.7 0.1-1.3 0.1-2 0.1-2 0.1-4 0.1-6 0-53.5-16.9-103-45.8-143.7zM491.52 415.02c-9.4 15.5-20.6 29.9-33.6 42.9-20.6 20.6-44.5 36.7-71.2 48-13.9 5.8-28.2 10.3-42.9 13.2v-75.8c0-58.6-88.6-58.6-88.6 0v75.8c-14.7-2.9-29-7.3-42.9-13.2-26.7-11.3-50.6-27.4-71.2-48-13-13-24.2-27.4-33.6-42.9v-71.3c0-2.1 1.6-3.7 3.7-3.7h22.1c2.1 0 3.7 1.6 3.7 3.7V369.52h29.6V225.51999999999998c0-2.1 1.6-3.7 3.7-3.7h22.1c2.1 0 3.7 1.6 3.7 3.7v25.9h29.5V225.51999999999998c0-2.1 1.6-3.7 3.7-3.7H251.51999999999998c2.1 0 3.7 1.6 3.7 3.7v25.9h29.5V225.51999999999998c0-4.8 6.5-3.7 9.5-3.7V131.61999999999998c-4.4-2-7.4-6.7-7.4-11.5 0-16.8 25.4-16.8 25.4 0 0 4.8-3 9.4-7.4 11.5V135.51999999999998c6.3-1.4 12.7-2.3 19.2-2.3 9.4 0 18.4 3.5 26.3 3.5 7.2 0 15.2-3.5 19.4-3.5 2.1 0 3.7 1.6 3.7 3.7v48.4c0 5.6-18.7 6.5-22.4 6.5-8.6 0-16.6-3.5-25.4-3.5-7 0-14.1 1.2-20.8 2.8v30.7c3 0 9.5-1.1 9.5 3.7v25.9h29.5V225.51999999999998c0-2.1 1.6-3.7 3.7-3.7h22.2c2.1 0 3.7 1.6 3.7 3.7v25.9h29.5V225.51999999999998c0-2.1 1.6-3.7 3.7-3.7h22.1c2.1 0 3.7 1.6 3.7 3.7v144h29.5v-25.8c0-2.1 1.6-3.7 3.7-3.7h22.2c2.1 0 3.7 1.6 3.7 3.7z" /></svg>