<svg xmlns="http://www.w3.org/2000/svg" width="100%" height="100%" viewBox="0 0 599.04 599.04"><path d="M484.52 148.51999999999998L386.62 50.51999999999998c-4.5-4.5-10.6-7-17-7H363.52v128h128v-6.1c0-6.3-2.5-12.4-7-16.9z m-153 31V43.51999999999998H131.51999999999998C118.21999999999998 43.51999999999998 107.51999999999998 54.219999999999985 107.51999999999998 67.51999999999998v464c0 13.3 10.7 24 24 24h336c13.3 0 24-10.7 24-24V203.51999999999998H355.52c-13.2 0-24-10.8-24-24z m64 160v48c0 4.4-3.6 8-8 8h-56v56c0 4.4-3.6 8-8 8h-48c-4.4 0-8-3.6-8-8v-56h-56c-4.4 0-8-3.6-8-8v-48c0-4.4 3.6-8 8-8h56v-56c0-4.4 3.6-8 8-8h48c4.4 0 8 3.6 8 8v56h56c4.4 0 8 3.6 8 8z" /></svg>