<svg xmlns="http://www.w3.org/2000/svg" width="100%" height="100%" viewBox="0 0 599.04 599.04"><path d="M531.52 107.51999999999998h-8v20c0 6.6-5.4 12-12 12h-40c-6.6 0-12-5.4-12-12V107.51999999999998H139.51999999999998v20c0 6.6-5.4 12-12 12H87.51999999999998c-6.6 0-12-5.4-12-12V107.51999999999998h-8C54.219999999999985 107.51999999999998 43.51999999999998 118.21999999999998 43.51999999999998 131.51999999999998v336c0 13.3 10.7 24 24 24h8v-20c0-6.6 5.4-12 12-12h40c6.6 0 12 5.4 12 12v20h320v-20c0-6.6 5.4-12 12-12h40c6.6 0 12 5.4 12 12v20h8c13.3 0 24-10.7 24-24V131.51999999999998c0-13.3-10.7-24-24-24zM139.51999999999998 415.52c0 6.6-5.4 12-12 12H87.51999999999998c-6.6 0-12-5.4-12-12v-40c0-6.6 5.4-12 12-12h40c6.6 0 12 5.4 12 12v40z m0-96c0 6.6-5.4 12-12 12H87.51999999999998c-6.6 0-12-5.4-12-12v-40c0-6.6 5.4-12 12-12h40c6.6 0 12 5.4 12 12v40z m0-96c0 6.6-5.4 12-12 12H87.51999999999998c-6.6 0-12-5.4-12-12v-40c0-6.6 5.4-12 12-12h40c6.6 0 12 5.4 12 12v40z m272 208c0 6.6-5.4 12-12 12H199.51999999999998c-6.6 0-12-5.4-12-12v-96c0-6.6 5.4-12 12-12h200c6.6 0 12 5.4 12 12v96z m0-168c0 6.6-5.4 12-12 12H199.51999999999998c-6.6 0-12-5.4-12-12v-96c0-6.6 5.4-12 12-12h200c6.6 0 12 5.4 12 12v96z m112 152c0 6.6-5.4 12-12 12h-40c-6.6 0-12-5.4-12-12v-40c0-6.6 5.4-12 12-12h40c6.6 0 12 5.4 12 12v40z m0-96c0 6.6-5.4 12-12 12h-40c-6.6 0-12-5.4-12-12v-40c0-6.6 5.4-12 12-12h40c6.6 0 12 5.4 12 12v40z m0-96c0 6.6-5.4 12-12 12h-40c-6.6 0-12-5.4-12-12v-40c0-6.6 5.4-12 12-12h40c6.6 0 12 5.4 12 12v40z" /></svg>