<svg xmlns="http://www.w3.org/2000/svg" width="100%" height="100%" viewBox="0 0 599.04 599.04"><path d="M491.52 165.46099999999998V171.51999999999998H363.52V43.51999999999998h6.059a24 24 0 0 1 16.97 7.029l97.941 97.941a24.002 24.002 0 0 1 7.03 16.971zM355.52 203.51999999999998c-13.2 0-24-10.8-24-24V43.51999999999998H131.51999999999998C118.26499999999999 43.51999999999998 107.51999999999998 54.26499999999998 107.51999999999998 67.51999999999998v464c0 13.255 10.745 24 24 24h336c13.255 0 24-10.745 24-24V203.51999999999998H355.52z m-135.455 16c26.51 0 48 21.49 48 48s-21.49 48-48 48-48-21.49-48-48 21.491-48 48-48z m208 240h-256l0.485-48.485L212.065 371.52c4.686-4.686 11.799-4.201 16.485 0.485L268.06499999999994 411.52 371.58 308.005c4.686-4.686 12.284-4.686 16.971 0L428.065 347.52v112z" /></svg>