<svg xmlns="http://www.w3.org/2000/svg" width="100%" height="100%" viewBox="0 0 673.92 673.92"><path d="M432.96 202.85999999999999c0-6.3-2.5-12.4-7-16.9L328.06 87.95999999999998c-4.5-4.5-10.6-7-17-7H304.96v128h128zM619.96 388.96l-95.7-96.4c-10.1-10.1-27.4-3-27.4 11.3V368.96h-64v64h64v65.2c0 14.3 17.3 21.4 27.4 11.3L619.96 412.96c6.6-6.6 6.6-17.4 0-24z m-379 28v-32c0-8.8 7.2-16 16-16h176V240.95999999999998H296.96c-13.2 0-24-10.8-24-24V80.95999999999998H72.95999999999998C59.65999999999998 80.95999999999998 48.95999999999998 91.65999999999998 48.95999999999998 104.95999999999998v464c0 13.3 10.7 24 24 24h336c13.3 0 24-10.7 24-24V432.96H256.96c-8.8 0-16-7.2-16-16z" /></svg>