<svg xmlns="http://www.w3.org/2000/svg" width="100%" height="100%" viewBox="0 0 599.04 599.04"><path d="M484.52 148.51999999999998L386.62 50.51999999999998c-4.5-4.5-10.6-7-17-7H363.52v128h128v-6.1c0-6.3-2.5-12.4-7-16.9zM235.92 379.52c-17.9 0-32.4 12.1-32.4 27 0 15 14.6 27 32.5 27s32.4-12.1 32.4-27-14.6-27-32.5-27zM331.52 179.51999999999998V43.51999999999998h-63.6v32h-32V43.51999999999998H131.51999999999998C118.21999999999998 43.51999999999998 107.51999999999998 54.219999999999985 107.51999999999998 67.51999999999998v464c0 13.3 10.7 24 24 24h336c13.3 0 24-10.7 24-24V203.51999999999998H355.52c-13.2 0-24-10.8-24-24zM203.42 75.51999999999998h32v32h-32z m32.3 384c-33.2 0-58-30.4-51.4-62.9L203.92 299.52v-32h32v-32h-32v-32h32v-32h-32V139.51999999999998h32V107.51999999999998h32v32h-32v32h32v32h-32v32h32v32h-32v32h22.1c5.7 0 10.7 4.1 11.8 9.7l17.3 87.7c6.4 32.4-18.4 62.6-51.4 62.6z" /></svg>