<svg xmlns="http://www.w3.org/2000/svg" width="100%" height="100%" viewBox="0 0 748.8 748.8"><path d="M295 312.5c1.9-30.8 17.3-61.2 44-79.8C333.79999999999995 221.89999999999998 323.09999999999997 214.39999999999998 310.4 214.39999999999998h-29.4l30.7-22c7.2-5.1 8.9-15.1 3.7-22.3l-9.3-13c-5.1-7.2-15.1-8.9-22.3-3.7l-32 22.9 11.5-30.6c3.1-8.3-1.1-17.5-9.4-20.6l-15-5.6c-8.3-3.1-17.5 1.1-20.6 9.4l-19.9 53-19.9-53.1C175.39999999999998 120.49999999999997 166.2 116.29999999999998 157.89999999999998 119.39999999999998l-15 5.6C134.59999999999997 128.09999999999997 130.39999999999998 137.39999999999998 133.59999999999997 145.59999999999997l11.5 30.6L112.99999999999997 153.39999999999998c-7.2-5.1-17.2-3.5-22.3 3.7l-9.3 13c-5.1 7.2-3.5 17.2 3.7 22.3l30.7 22H86.39999999999998c-17.7 0-32 14.3-32 32v352c0 17.7 14.3 32 32 32h168.9c-5.5-9.5-8.9-20.3-8.9-32V374.4c0-29.9 20.8-55 48.6-61.9zM278.4 598.4c0 17.7 14.3 32 32 32h160V502.4H278.4v96z m224 32h160c17.7 0 32-14.3 32-32v-96H502.4v128z m160-288h-20.4c2.6-7.6 4.4-15.5 4.4-23.8 0-35.5-27-72.2-72.1-72.2-48.1 0-75.9 47.7-87.9 75.3-12.1-27.6-39.9-75.3-87.9-75.3-45.1 0-72.1 36.7-72.1 72.2 0 8.3 1.7 16.2 4.4 23.8H310.4c-17.7 0-32 14.3-32 32v96h192V342.4h15.3l0.7-0.2 0.7 0.2H502.4v128h192v-96c0-17.7-14.3-32-32-32z m-272 0c-2.7-1.4-5.1-3-7.2-4.8-7.3-6.4-8.8-13.8-8.8-19 0-9.7 6.4-24.2 24.1-24.2 18.7 0 35.6 27.4 44.5 48H390.4z m199.2-4.8c-2.1 1.8-4.5 3.4-7.2 4.8h-52.6c8.8-20.3 25.8-48 44.5-48 17.7 0 24.1 14.5 24.1 24.2 0 5.2-1.5 12.6-8.8 19z" /></svg>