<svg xmlns="http://www.w3.org/2000/svg" width="100%" height="100%" viewBox="0 0 599.04 599.04"><path d="M299.52 51.51999999999998C162.51999999999998 51.51999999999998 51.51999999999998 162.51999999999998 51.51999999999998 299.52s111 248 248 248 248-111 248-248S436.52 51.51999999999998 299.52 51.51999999999998z m80 168c17.7 0 32 14.3 32 32s-14.3 32-32 32-32-14.3-32-32 14.3-32 32-32z m-160 0c17.7 0 32 14.3 32 32s-14.3 32-32 32-32-14.3-32-32 14.3-32 32-32z m80 256c-60.6 0-134.5-38.3-143.8-93.3-2-11.8 9.3-21.6 20.7-17.9C206.61999999999998 374.02 251.51999999999998 379.52 299.52 379.52s92.9-5.5 123.1-15.2c11.3-3.7 22.6 6.1 20.7 17.9-9.3 55-83.2 93.3-143.8 93.3z" /></svg>