<svg xmlns="http://www.w3.org/2000/svg" width="100%" height="100%" viewBox="0 0 599.04 599.04"><path d="M299.52 51.51999999999998C162.51999999999998 51.51999999999998 51.51999999999998 162.51999999999998 51.51999999999998 299.52s111 248 248 248 248-111 248-248S436.52 51.51999999999998 299.52 51.51999999999998zM195.51999999999998 443.52h-8c-17.7 0-32-14.3-32-32v-8h40v40z m0-56h-40v-8c0-17.7 14.3-32 32-32h8v40z m-8-136c0-17.7 14.3-32 32-32s32 14.3 32 32-14.3 32-32 32-32-14.3-32-32z m72 192h-48v-40h48v40z m0-56h-48v-40h48v40z m64 56h-48v-40h48v40z m0-56h-48v-40h48v40z m64 56h-48v-40h48v40z m0-56h-48v-40h48v40z m-8-104c-17.7 0-32-14.3-32-32s14.3-32 32-32 32 14.3 32 32-14.3 32-32 32z m64 128c0 17.7-14.3 32-32 32h-8v-40h40v8z m0-24h-40v-40h8c17.7 0 32 14.3 32 32v8z" /></svg>