<svg xmlns="http://www.w3.org/2000/svg" width="100%" height="100%" viewBox="0 0 599.04 599.04"><path d="M548.491 242.88199999999998l-22.627-22.627c-9.373-9.373-24.569-9.373-33.941 0l-5.657 5.657L373.128 112.77499999999998l5.657-5.657c9.373-9.373 9.373-24.569 0-33.941L356.15799999999996 50.54899999999998c-9.373-9.373-24.569-9.373-33.941 0L197.766 174.99999999999997c-9.373 9.373-9.373 24.569 0 33.941l22.627 22.627c9.373 9.373 24.569 9.373 33.941 0l5.657-5.657 39.598 39.598-81.04 81.04-5.657-5.657c-12.497-12.497-32.758-12.497-45.255 0L52.89299999999998 455.638c-12.497 12.497-12.497 32.758 0 45.255l45.255 45.255c12.497 12.497 32.758 12.497 45.255 0l114.745-114.745c12.497-12.497 12.497-32.758 0-45.255l-5.657-5.657 81.04-81.04 39.598 39.598-5.657 5.657c-9.373 9.373-9.373 24.569 0 33.941l22.627 22.627c9.373 9.373 24.569 9.373 33.941 0l124.451-124.451c9.372-9.372 9.372-24.568 0-33.941z" /></svg>