<svg xmlns="http://www.w3.org/2000/svg" width="100%" height="100%" viewBox="0 0 599.04 599.04"><path d="M388.02 203.51999999999998C373.52 114.21999999999998 339.32 51.51999999999998 299.52 51.51999999999998s-74 62.7-88.5 152h177zM203.51999999999998 299.52c0 22.2 1.2 43.5 3.3 64h185.3c2.1-20.5 3.3-41.8 3.3-64s-1.2-43.5-3.3-64H206.82c-2.1 20.5-3.3 41.8-3.3 64z m324.7-96c-28.6-67.9-86.5-120.4-158-141.6 24.4 33.8 41.2 84.7 50 141.6h108zM228.71999999999997 61.91999999999998C157.32 83.11999999999998 99.31999999999998 135.61999999999998 70.81999999999998 203.51999999999998h108c8.7-56.9 25.5-107.8 49.9-141.6zM538.92 235.51999999999998H424.21999999999997c2.1 21 3.3 42.5 3.3 64s-1.2 43-3.3 64h114.6c5.5-20.5 8.6-41.8 8.6-64s-3.1-43.5-8.5-64zM171.51999999999998 299.52c0-21.5 1.2-43 3.3-64H60.11999999999998C54.719999999999985 256.02 51.51999999999998 277.32 51.51999999999998 299.52s3.2 43.5 8.6 64h114.6c-2-21-3.2-42.5-3.2-64z m39.5 96c14.5 89.3 48.7 152 88.5 152s74-62.7 88.5-152h-177z m159.3 141.6c71.4-21.2 129.4-73.7 158-141.6h-108c-8.8 56.9-25.6 107.8-50 141.6zM70.81999999999998 395.52c28.6 67.9 86.5 120.4 158 141.6-24.4-33.8-41.2-84.7-50-141.6h-108z" /></svg>