<svg xmlns="http://www.w3.org/2000/svg" width="100%" height="100%" viewBox="0 0 599.04 599.04"><path d="M235.51999999999998 251.51999999999998c0-17.67-14.33-32-32-32h-16c-35.35 0-64 28.65-64 64v48c0 35.35 28.65 64 64 64h16c17.67 0 32-14.33 32-32V251.51999999999998z m176 144c35.35 0 64-28.65 64-64v-48c0-35.35-28.65-64-64-64h-16c-17.67 0-32 14.33-32 32v112c0 17.67 14.33 32 32 32h16zM299.52 43.51999999999998C156.7 43.51999999999998 48.09999999999998 162.34999999999997 43.51999999999998 299.52v16c0 8.84 7.16 16 16 16h16c8.84 0 16-7.16 16-16v-16c0-114.69 93.31-208 208-208s208 93.31 208 208h-0.12c0.08 2.43 0.12 165.72 0.12 165.72 0 23.35-18.93 42.28-42.28 42.28H363.52c0-26.51-21.49-48-48-48h-32c-26.51 0-48 21.49-48 48s21.49 48 48 48h181.72c49.86 0 90.28-40.42 90.28-90.28V299.52C550.94 162.34999999999997 442.34 43.51999999999998 299.52 43.51999999999998z" /></svg>