<svg xmlns="http://www.w3.org/2000/svg" width="100%" height="100%" viewBox="0 0 599.04 599.04"><path d="M363.71999999999997 287.32l-49.7 99.4c-6 12.1-23.4 11.7-28.9-0.6l-56.9-126.3-30 71.7H104.11999999999998l182.5 186.5c7.1 7.3 18.6 7.3 25.7 0L494.91999999999996 331.52H385.82l-22.1-44.2zM517.22 117.41999999999999l-2.4-2.5c-51.5-52.6-135.8-52.6-187.4 0L299.52 143.51999999999998l-27.9-28.5c-51.5-52.7-135.9-52.7-187.4 0l-2.4 2.4C33.11999999999998 167.21999999999997 31.019999999999982 246.51999999999998 74.51999999999998 299.52h102.4l35.9-86.2c5.4-12.9 23.6-13.2 29.4-0.4l58.2 129.3 49-97.9c5.9-11.8 22.7-11.8 28.6 0l27.6 55.2H524.52c43.5-53 41.4-132.3-7.3-182.1z" /></svg>