<svg xmlns="http://www.w3.org/2000/svg" width="100%" height="100%" viewBox="0 0 599.04 599.04"><path d="M310.91999999999996 255.11999999999998c-25.1 23.7-40.8 57.3-40.8 94.6 0 29.3 9.7 56.3 26 78L246.61999999999998 477.52c-4.4-1.6-9.1-2.5-14-2.5-10.8 0-20.9 4.2-28.5 11.8-7.6 7.6-11.8 17.8-11.8 28.6s4.2 20.9 11.8 28.5c7.6 7.6 17.8 11.6 28.5 11.6 10.8 0 20.9-3.9 28.6-11.6 7.6-7.6 11.8-17.8 11.8-28.5 0-4.2-0.6-8.2-1.9-12.1l50-50.2c22 16.9 49.4 26.9 79.3 26.9 71.9 0 130-58.3 130-130.2 0-65.2-47.7-119.2-110.2-128.7V159.51999999999998c17.5-7.4 28.2-23.8 28.2-42.9 0-26.1-20.9-47.9-47-47.9S354.71999999999997 90.51999999999998 354.71999999999997 116.61999999999998c0 19.1 10.7 35.5 28.2 42.9v61.2c-15.2 2.1-29.6 6.7-42.7 13.6-27.6-20.9-117.5-85.7-168.9-124.8 1.2-4.4 2-9 2-13.8C173.32 66.91999999999999 149.82 43.51999999999998 120.91999999999999 43.51999999999998 92.11999999999998 43.51999999999998 68.71999999999998 66.91999999999999 68.71999999999998 95.71999999999998c0 28.9 23.4 52.3 52.2 52.3 9.8 0 18.9-2.9 26.8-7.6l163.2 114.7z m89.5 163.6c-38.1 0-69-30.9-69-69s30.9-69 69-69 69 30.9 69 69-30.9 69-69 69z" /></svg>