<svg xmlns="http://www.w3.org/2000/svg" width="100%" height="100%" viewBox="0 0 636.48 636.48"><path d="M46.24000000000001 542.22L146.16000000000003 574.24l35.45-35.45-67.04-67.04L46.24000000000001 542.22z m124.61-240.01a36.592 36.592 0 0 0-10.79 38.1l13.05 42.83-50.93 50.94 96.23 96.23 50.86-50.86 42.74 13.08c13.73 4.2 28.65-0.01 38.15-10.78l35.55-41.64-173.34-173.34-41.52 35.44z m403.31-160.7l-63.2-63.2c-20.49-20.49-53.38-21.52-75.12-2.35L236.79000000000002 245.92000000000002l169.77 169.78L576.51 216.64000000000001c19.18-21.74 18.15-54.63-2.35-75.13z" /></svg>