<svg xmlns="http://www.w3.org/2000/svg" width="100%" height="100%" viewBox="0 0 673.92 673.92"><path d="M320.02 225.26l54.27 14.3a8.59 8.59 0 0 1 6.63 8.1c0 4.6-4.09 8.4-9.12 8.4h-35.6a30 30 0 0 1-11.19-2.2c-5.24-2.2-11.28-1.7-15.3 2l-19 17.5a11.68 11.68 0 0 0-2.25 2.66 11.42 11.42 0 0 0 3.88 15.74 83.77 83.77 0 0 0 34.51 11.5V320.96c0 8.8 7.83 16 17.37 16h17.37c9.55 0 17.38-7.2 17.38-16V303.36c32.93-3.6 57.84-31 53.5-63-3.15-23-22.46-41.3-46.56-47.7L331.64 178.35999999999999a8.59 8.59 0 0 1-6.63-8.1c0-4.6 4.09-8.4 9.12-8.4h35.6A30 30 0 0 1 380.96 164.05999999999997c5.23 2.2 11.28 1.7 15.3-2l19-17.5A11.31 11.31 0 0 0 417.43 141.95999999999998a11.43 11.43 0 0 0-3.84-15.78 83.82 83.82 0 0 0-34.52-11.5V96.95999999999998c0-8.8-7.82-16-17.37-16H344.33C334.78 80.95999999999998 326.96 88.15999999999998 326.96 96.95999999999998V114.55999999999997c-32.89 3.6-57.85 31-53.51 63C276.59 200.55999999999997 295.96 218.85999999999999 320.02 225.26ZM614.23 409.06c-11.8-10.7-30.2-10-42.6 0L479.22999999999996 482.96a63.64 63.64 0 0 1-40 14H320.96a16 16 0 0 1 0-32h78.29c15.9 0 30.71-10.9 33.25-26.6a31.2 31.2 0 0 0 0.46-5.46A32 32 0 0 0 400.96 400.96H240.95999999999998a117.66 117.66 0 0 0-74.1 26.29L120.35999999999999 464.96H64.95999999999998A16 16 0 0 0 48.95999999999998 480.96v96a16 16 0 0 0 16 16H421.72999999999996a64 64 0 0 0 40-14L612.96 457.96a32 32 0 0 0 1.28-48.9Z" /></svg>