<svg xmlns="http://www.w3.org/2000/svg" width="100%" height="100%" viewBox="0 0 599.04 599.04"><path d="M457.72999999999996 221.17c1.02 8.21 7.75 14.35 15.75 14.35h16.12c9.51 0 17.08-8.57 16-18.35-4.34-39.11-22.4-74.53-50.13-97.16-17.37-14.17-28.82-36.75-31.98-62.15C422.47999999999996 49.65999999999998 415.74 43.51999999999998 407.75 43.51999999999998h-16.12c-9.51 0-17.09 8.57-16 18.35 4.34 39.11 22.4 74.53 50.13 97.16 17.36 14.17 28.82 36.75 31.97 62.14z m-108 0c1.02 8.21 7.75 14.35 15.75 14.35h16.12c9.51 0 17.08-8.57 16-18.35-4.34-39.11-22.4-74.53-50.13-97.16-17.37-14.17-28.82-36.75-31.98-62.15C314.47999999999996 49.65999999999998 307.74 43.51999999999998 299.75 43.51999999999998h-16.12c-9.51 0-17.09 8.57-16 18.35 4.34 39.11 22.4 74.53 50.13 97.16 17.36 14.17 28.82 36.75 31.97 62.14zM523.52 299.52H299.52l-110.93-83.2a63.99 63.99 0 0 0-38.4-12.8H107.51999999999998c-35.35 0-64 28.65-64 64v224c0 35.35 28.65 64 64 64h384c35.35 0 64-28.65 64-64V331.52c0-17.67-14.33-32-32-32zM171.51999999999998 483.52c0 4.42-3.58 8-8 8h-16c-4.42 0-8-3.58-8-8V371.52c0-4.42 3.58-8 8-8h16c4.42 0 8 3.58 8 8v112z m96 0c0 4.42-3.58 8-8 8h-16c-4.42 0-8-3.58-8-8V371.52c0-4.42 3.58-8 8-8h16c4.42 0 8 3.58 8 8v112z m96 0c0 4.42-3.58 8-8 8h-16c-4.42 0-8-3.58-8-8V371.52c0-4.42 3.58-8 8-8h16c4.42 0 8 3.58 8 8v112z m96 0c0 4.42-3.58 8-8 8h-16c-4.42 0-8-3.58-8-8V371.52c0-4.42 3.58-8 8-8h16c4.42 0 8 3.58 8 8v112zM107.51999999999998 171.51999999999998c35.35 0 64-28.65 64-64S142.86999999999998 43.51999999999998 107.51999999999998 43.51999999999998 43.51999999999998 72.16999999999999 43.51999999999998 107.51999999999998s28.65 64 64 64z" /></svg>