<svg xmlns="http://www.w3.org/2000/svg" width="100%" height="100%" viewBox="0 0 599.04 599.04"><path d="M507.52 299.52H91.51999999999998a48 48 0 0 0 0 96h416a48 48 0 0 0 0-96z m16 128H75.51999999999998a16 16 0 0 0-16 16v16a64 64 0 0 0 64 64h352a64 64 0 0 0 64-64v-16a16 16 0 0 0-16-16zM102.15999999999998 267.52h394.72c34.57 0 54.62-43.9 34.82-75.88C491.52 126.71999999999998 403.07 75.61999999999998 299.52 75.51999999999998c-103.54 0.1-192 51.2-232.18 116.11C47.51999999999998 223.60999999999999 67.58999999999997 267.52 102.15999999999998 267.52zM427.52 155.51999999999998a16 16 0 1 1-16 16 16 16 0 0 1 16-16zM299.52 123.51999999999998a16 16 0 1 1-16 16 16 16 0 0 1 16-16z m-128 32a16 16 0 1 1-16 16 16 16 0 0 1 16-16z" /></svg>