<svg xmlns="http://www.w3.org/2000/svg" width="100%" height="100%" viewBox="0 0 748.8 748.8"><path d="M286.4 278.4c-4.42 0-8 3.58-8 8v120h32V286.4c0-4.42-3.58-8-8-8h-16z m-64 0c-4.42 0-8 3.58-8 8v120h32V286.4c0-4.42-3.58-8-8-8h-16z m224 0c-4.42 0-8 3.58-8 8v120h32V286.4c0-4.42-3.58-8-8-8h-16z m64 0c-4.42 0-8 3.58-8 8v120h32V286.4c0-4.42-3.58-8-8-8h-16z m88 8c0-4.42-3.58-8-8-8h-16c-4.42 0-8 3.58-8 8v120h32V286.4z m-440-8c-4.42 0-8 3.58-8 8v120h32V286.4c0-4.42-3.58-8-8-8h-16z m520 0h-32c-8.84 0-16 7.16-16 16v112c0 17.67-14.33 32-32 32H406.4V246.39999999999998c0-8.84-7.16-16-16-16h-32c-8.84 0-16 7.16-16 16v192H150.39999999999998c-17.67 0-32-14.33-32-32V294.4c0-8.84-7.16-16-16-16H70.39999999999998c-8.84 0-16 7.16-16 16v112c0 53.02 42.98 96 96 96h192v64H166.39999999999998c-8.84 0-16 7.16-16 16v32c0 8.84 7.16 16 16 16h416c8.84 0 16-7.16 16-16v-32c0-8.84-7.16-16-16-16H406.4v-64h192c53.02 0 96-42.98 96-96V294.4c0-8.84-7.16-16-16-16z m-16-32c13.25 0 24-11.94 24-26.67S662.4 166.39999999999998 662.4 166.39999999999998s-24 38.61-24 53.33S649.15 246.39999999999998 662.4 246.39999999999998z m-576 0c13.25 0 24-11.94 24-26.67S86.39999999999998 166.39999999999998 86.39999999999998 166.39999999999998 62.39999999999998 205.01 62.39999999999998 219.72999999999996 73.14999999999998 246.39999999999998 86.39999999999998 246.39999999999998z m288-48c13.25 0 24-11.94 24-26.67S374.4 118.39999999999998 374.4 118.39999999999998s-24 38.61-24 53.33S361.15 198.39999999999998 374.4 198.39999999999998z m-208 48c13.25 0 24-11.94 24-26.67S166.39999999999998 166.39999999999998 166.39999999999998 166.39999999999998s-24 38.61-24 53.33S153.14999999999998 246.39999999999998 166.39999999999998 246.39999999999998z m64 0c13.25 0 24-11.94 24-26.67S230.39999999999998 166.39999999999998 230.39999999999998 166.39999999999998s-24 38.61-24 53.33S217.14999999999998 246.39999999999998 230.39999999999998 246.39999999999998z m64 0c13.25 0 24-11.94 24-26.67S294.4 166.39999999999998 294.4 166.39999999999998s-24 38.61-24 53.33S281.15 246.39999999999998 294.4 246.39999999999998z m160 0c13.25 0 24-11.94 24-26.67S454.4 166.39999999999998 454.4 166.39999999999998s-24 38.61-24 53.33S441.15 246.39999999999998 454.4 246.39999999999998z m64 0c13.25 0 24-11.94 24-26.67S518.4 166.39999999999998 518.4 166.39999999999998s-24 38.61-24 53.33S505.15 246.39999999999998 518.4 246.39999999999998z m64 0c13.25 0 24-11.94 24-26.67S582.4 166.39999999999998 582.4 166.39999999999998s-24 38.61-24 53.33S569.15 246.39999999999998 582.4 246.39999999999998z" /></svg>