<svg xmlns="http://www.w3.org/2000/svg" width="100%" height="100%" viewBox="0 0 599.04 599.04"><path d="M475.52 283.52c8.84 0 16-7.16 16-16v-32c0-8.84-7.16-16-16-16h-41.86c13.41-28.63 13.74-63.33-4.13-94.05C410.85999999999996 93.35999999999999 374.62 75.51999999999998 337.48 75.51999999999998h-78.82c-24.32 0-47.86 8.53-66.54 24.09L180.34999999999997 109.41999999999999c-10.18 8.49-11.56 23.62-3.07 33.8l20.49 24.59c8.49 10.19 23.62 11.56 33.81 3.07l11.73-9.78c4.32-3.6 9.77-5.57 15.39-5.57h83.62c11.69 0 21.2 9.52 21.2 21.2 0 5.91-2.48 11.58-6.81 15.58L327.21999999999997 219.51999999999998H123.51999999999998c-8.84 0-16 7.16-16 16v32c0 8.84 7.16 16 16 16h134.37l-34.67 32H123.51999999999998c-8.84 0-16 7.16-16 16v32c0 8.84 7.16 16 16 16h41.86c-13.41 28.63-13.74 63.33 4.13 94.05C188.17999999999998 505.66999999999996 224.42 523.52 261.55999999999995 523.52h78.82c24.32 0 47.86-8.53 66.54-24.09l11.77-9.81c10.18-8.49 11.56-23.62 3.07-33.8l-20.49-24.59c-8.49-10.19-23.62-11.56-33.81-3.07l-11.75 9.8a23.992 23.992 0 0 1-15.36 5.56H256.71999999999997c-11.69 0-21.2-9.52-21.2-21.2 0-5.91 2.48-11.58 6.81-15.58L271.82 379.52H475.52c8.84 0 16-7.16 16-16v-32c0-8.84-7.16-16-16-16H341.15l34.67-32H475.52z" /></svg>