<svg xmlns="http://www.w3.org/2000/svg" width="100%" height="100%" viewBox="0 0 673.92 673.92"><path d="M336.96 195.91999999999996L118.42999999999998 388.66999999999996c-1.62 1.46-3.69 2.14-5.47 3.35V576.96c0 8.84 7.16 16 16 16h149.23L240.95999999999998 520.15l104.11-64-60.16-119.22L432.96 473.71l-104.11 64L368.77 592.96H544.96c8.84 0 16-7.16 16-16V392.06c-1.7-1.16-3.72-1.82-5.26-3.2L336.96 195.91999999999996z m282.69 121.32L560.96 265.40999999999997V128.95999999999998c0-8.84-7.16-16-16-16h-64c-8.84 0-16 7.16-16 16v51.69L363.71 91.26999999999998C356.08 84.40999999999998 346.52 80.96999999999998 336.96 80.95999999999998s-19.1 3.41-26.7 10.27L54.26999999999998 317.24c-6.57 5.91-7.12 16.02-1.21 22.6l21.4 23.82c5.9 6.57 16.02 7.12 22.6 1.21L326.38 162.58999999999997c6.05-5.33 15.12-5.33 21.17 0L576.8699999999999 364.85999999999996c6.57 5.9 16.69 5.36 22.6-1.21l21.4-23.82c5.9-6.57 5.36-16.69-1.22-22.59z" /></svg>