<svg xmlns="http://www.w3.org/2000/svg" width="100%" height="100%" viewBox="0 0 673.92 673.92"><path d="M544.96 304.96a48 48 0 1 0-48-48A48 48 0 0 0 544.96 304.96ZM360.43 259.40999999999997A56.77 56.77 0 0 1 376.96 256.96a56 56 0 0 1 19 3.49l15.35-48.61A24 24 0 0 0 390.96 180.7c-11.53-1.35-22.21 6.44-25.71 17.51l-20.9 66.17ZM142.60999999999999 467.28999999999996c0.8-0.19 1.54-0.54 2.35-0.71V440.89a156 156 0 0 1 107.06-148l73.7-22.76L359.88 162.01a24 24 0 0 0-20.33-31.11c-11.53-1.34-22.22 6.45-25.72 17.52L280.38 254.83999999999997a8 8 0 0 1-15.26-4.83L308.48999999999995 112.21999999999998A24 24 0 0 0 288.15999999999997 81.10999999999999C276.63 79.76999999999998 265.96 87.55999999999997 262.45 98.61999999999998L214.51999999999998 250.32999999999998a8 8 0 1 1-15.26-4.82l38.56-122a24 24 0 0 0-20.33-31.11C205.95999999999998 90.95999999999998 195.27999999999997 98.78999999999998 191.77999999999997 109.85999999999999l-60 189.85L129.71999999999997 249.65999999999997A24 24 0 0 0 105.85999999999999 225.51c-13.23-0.05-24.72 10.54-24.9 23.86V362.09999999999997A123.69 123.69 0 0 0 142.60999999999999 467.28999999999996ZM568.06 416.96H408.96a8 8 0 0 1 0-16H536.96a24 24 0 0 0 23.54-28.76C558.31 360.79999999999995 547.67 352.96 536.06 352.96H336.96l47.09-17.06a24 24 0 0 0-14.18-45.88L262.15 323.27A123.88 123.88 0 0 0 176.95999999999998 440.96v25.65a79.78 79.78 0 0 1 58 108.63A118.9 118.9 0 0 0 296.96 592.96H504.96a24 24 0 0 0 23.54-28.76C526.31 552.8 515.67 544.96 504.06 544.96H408.96a8 8 0 0 1 0-16H536.96a24 24 0 0 0 23.54-28.76C558.31 488.79999999999995 547.67 480.96 536.06 480.96H408.96a8 8 0 0 1 0-16H568.96a24 24 0 0 0 23.54-28.76C590.31 424.79999999999995 579.6700000000001 416.96 568.06 416.96ZM464.96 144.95999999999998a32 32 0 1 0-32-32A32 32 0 0 0 464.96 144.95999999999998ZM160.95999999999998 496.96a48 48 0 1 0 48 48A48 48 0 0 0 160.95999999999998 496.96Z" /></svg>