<svg xmlns="http://www.w3.org/2000/svg" width="100%" height="100%" viewBox="0 0 599.04 599.04"><path d="M203.51999999999998 331.52h-16c-35.35 0-64 28.7-64 64.12v63.76c0 35.41 28.65 64.12 64 64.12h16c17.67 0 32-14.36 32-32.06V363.58c0-17.71-14.33-32.06-32-32.06z m208 0h-16c-17.67 0-32 14.35-32 32.06v127.88c0 17.7 14.33 32.06 32 32.06h16c35.35 0 64-28.71 64-64.12v-63.76c0-35.41-28.65-64.12-64-64.12zM299.52 75.51999999999998C156.42999999999998 75.51999999999998 48.08999999999998 194.64999999999998 43.51999999999998 331.52v112c0 8.84 7.16 16 16 16h16c8.84 0 16-7.16 16-16V331.52c0-114.67 93.33-207.8 208-207.82 114.67 0.02 208 93.15 208 207.82v112c0 8.84 7.16 16 16 16h16c8.84 0 16-7.16 16-16V331.52C550.95 194.64999999999998 442.60999999999996 75.51999999999998 299.52 75.51999999999998z" /></svg>