<svg xmlns="http://www.w3.org/2000/svg" width="100%" height="100%" viewBox="0 0 673.92 673.92"><path d="M576.96 144.95999999999998H432.96v96H240.95999999999998V144.95999999999998H96.95999999999998C70.45999999999998 144.95999999999998 48.95999999999998 166.45999999999998 48.95999999999998 192.95999999999998v352c0 26.5 21.5 48 48 48h480c26.5 0 48-21.5 48-48V192.95999999999998c0-26.5-21.5-48-48-48zM336.96 304.96c35.3 0 64 28.7 64 64s-28.7 64-64 64-64-28.7-64-64 28.7-64 64-64z m93.3 224H243.65999999999997c-10.4 0-18.8-10-15.6-19.8 8.3-25.6 32.4-44.2 60.9-44.2h8.2c12.3 5.1 25.7 8 39.8 8s27.6-2.9 39.8-8h8.2c28.4 0 52.5 18.5 60.9 44.2 3.2 9.8-5.2 19.8-15.6 19.8zM400.96 112.95999999999998c0-17.7-14.3-32-32-32h-64c-17.7 0-32 14.3-32 32v96h128V112.95999999999998z" /></svg>