<svg xmlns="http://www.w3.org/2000/svg" width="100%" height="100%" viewBox="0 0 599.04 599.04"><path d="M513.92625 421.11375c-3.20313 12.8125-3.20313 57.60937 0 73.60937Q523.5122 504.30906999999996 523.52 513.92625v16c0 16-12.79688 25.59375-25.59375 25.59375H171.51999999999998c-54.40625 0-96-41.59375-96-96V139.51999999999998C75.51999999999998 85.11374999999998 117.11374999999998 43.51999999999998 171.51999999999998 43.51999999999998H497.92625C513.92625 43.51999999999998 523.52 53.11374999999998 523.52 69.11374999999998v332.8125Q523.52 416.31687999999997 513.92625 421.11375ZM456.31687999999997 427.52H171.51999999999998c-16 0-32 12.79688-32 32s12.79688 32 32 32H456.31687999999997ZM203.53562 219.53562c0 0.51563 0.14063 0.98438 0.14063 1.5l37.10937 32.46876A7.99954 7.99954 0 0 1 235.51999999999998 267.52h-0.01562a9.17678 9.17678 0 0 1-5.25-1.98438L206.66062 244.89499999999998C218.20749999999998 294.47312 262.42625 331.52 315.52 331.52s97.3125-37.04688 108.875-86.625l-23.59375 20.64062a8.02516 8.02516 0 0 1-5.26563 1.96876H395.52a9.14641 9.14641 0 0 1-6.01562-2.71876A9.26508 9.26508 0 0 1 387.52 259.52a9.097 9.097 0 0 1 2.73438-6.01562l37.10937-32.46876c0.01563-0.53124 0.15625-1 0.15625-1.51562 0-11.04688-2.09375-21.51562-5.06251-31.59375l-21.26562 21.25a8.00467 8.00467 0 0 1-11.32812-11.3125l26.42187-26.40625a111.81517 111.81517 0 0 0-46.35937-49.26562 63.02336 63.02336 0 0 1-14.0625 82.64062A55.83846 55.83846 0 0 1 327.145 298.25437999999997l-1.42188-34.28126 12.67188 8.625a3.967 3.967 0 0 0 2.25 0.6875 3.98059 3.98059 0 0 0 3.43749-6.03124l-8.53124-14.3125 17.90625-3.71876a4.00647 4.00647 0 0 0 0-7.84374l-17.90625-3.71876 8.53124-14.3125a3.98059 3.98059 0 0 0-3.43749-6.03124 4.726 4.726 0 0 0-2.25 0.67187L324.2075 227.64499999999998 319.52 115.34811999999998a4.00386 4.00386 0 0 0-8 0l-4.625 110.8125-12-8.15624a4.003 4.003 0 0 0-5.68751 5.35937l8.53126 14.3125L279.8325 241.39499999999998a3.99686 3.99686 0 0 0 0 7.82812l17.90625 3.73438-8.53126 14.29688a4.72469 4.72469 0 0 0-0.56249 2.04687 4.59547 4.59547 0 0 0 1.25 2.90625 4.01059 4.01059 0 0 0 2.75 1.09375 4.09016 4.09016 0 0 0 2.25-0.6875l10.35937-7.04687L303.895 298.28562a55.86414 55.86414 0 0 1-28.71875-93.45312 63.01119 63.01119 0 0 1-14.04688-82.65625 111.93158 111.93158 0 0 0-46.375 49.26563l26.42187 26.42187a7.99917 7.99917 0 0 1-11.3125 11.3125l-21.26563-21.26563C205.61374999999998 198.00437999999997 203.51999999999998 208.47312 203.53562 219.53562Z" /></svg>