<svg xmlns="http://www.w3.org/2000/svg" width="100%" height="100%" viewBox="0 0 599.04 599.04"><path d="M532.558 66.48299999999998C509.464 43.38999999999998 478.168 37.58999999999998 457.467 49.64899999999998c-58.906 34.312-181.25-53.077-321.073 86.746S83.96099999999998 398.561 49.64899999999998 457.465c-12.059 20.702-6.26 51.999 16.833 75.093 23.095 23.095 54.392 28.891 75.095 16.832 58.901-34.31 181.246 53.079 321.068-86.743S515.0799999999999 200.48 549.391 141.57599999999996c12.059-20.702 6.261-51.999-16.833-75.093zM287.40099999999995 139.04199999999997c-58.189 14.547-133.808 90.155-148.358 148.358-1.817 7.27-8.342 12.124-15.511 12.124-1.284 0-2.59-0.156-3.893-0.481-8.572-2.144-13.784-10.83-11.642-19.403C125.42099999999998 209.94699999999997 209.83599999999998 125.44999999999999 279.639 107.99799999999998c8.575-2.143 17.261 3.069 19.403 11.642s-3.069 17.259-11.641 19.402z" /></svg>