<svg xmlns="http://www.w3.org/2000/svg" width="100%" height="100%" viewBox="0 0 599.04 599.04"><path d="M130.49999999999997 257.71999999999997l301.41 119.87c18.39 6.03 38.71-2.54 45.38-19.15l12.09-30.08c6.68-16.61-2.82-34.97-21.21-41l-175.44-68.05 175.56-68.09c18.29-6 27.74-24.27 21.1-40.79l-12.03-29.92c-6.64-16.53-26.86-25.06-45.15-19.06L130.49999999999997 181.40999999999997C116.72999999999999 185.92999999999998 107.51999999999998 198.01999999999998 107.51999999999998 211.58999999999997v15.96c0 13.56 9.21 25.65 22.98 30.17zM499.52 443.52H99.51999999999998c-13.25 0-24 10.74-24 24v48c0 13.25 10.75 24 24 24h400c13.25 0 24-10.75 24-24v-48c0-13.26-10.75-24-24-24z" /></svg>