<svg xmlns="http://www.w3.org/2000/svg" width="100%" height="100%" viewBox="0 0 673.92 673.92"><path d="M435.49899999999997 192.445l15.096 248.955-10.979-0.275c-36.232-0.824-71.64 8.783-102.657 27.997-31.016-19.214-66.424-27.997-102.657-27.997-45.564 0-82.07 10.705-123.516 27.723L142.077 210.55999999999997c28.546-11.803 61.484-18.115 92.226-18.115 41.173 0 73.836 13.175 102.657 42.544 27.723-28.271 59.013-41.721 98.539-42.544zM618.03 528.96c-25.526 0-47.485-5.215-70.542-15.645-34.31-15.645-69.993-24.978-107.871-24.978-38.977 0-74.934 12.901-102.657 40.623-27.723-27.723-63.68-40.623-102.657-40.623-37.878 0-73.561 9.333-107.871 24.978C104.19899999999998 523.1959999999999 81.69099999999997 528.96 57.26299999999998 528.96H55.88999999999998L98.43499999999997 179.81899999999996C137.68599999999998 157.58599999999998 185.44599999999997 144.95999999999998 230.73499999999999 144.95999999999998 267.78999999999996 144.95999999999998 305.94399999999996 152.64499999999998 336.96 174.05499999999998 367.976 152.64499999999998 406.13 144.95999999999998 443.185 144.95999999999998c45.289 0 93.049 12.626 132.3 34.859L618.03 528.96z m-43.368-44.741l-34.036-280.246c-30.742-13.999-67.248-21.41-101.009-21.41-38.428 0-74.385 12.077-102.657 38.702-28.272-26.625-64.228-38.702-102.657-38.702-33.761 0-70.267 7.411-101.009 21.41L99.25799999999998 484.219c47.211-19.487 82.894-33.486 135.045-33.486 37.604 0 70.817 9.606 102.657 29.644 31.84-20.038 65.052-29.644 102.657-29.644 52.151 0 87.834 13.999 135.045 33.486z" /></svg>