<svg xmlns="http://www.w3.org/2000/svg" width="100%" height="100%" viewBox="0 0 599.04 599.04"><path d="M55.92999999999998 191.54l232.94 105.67c6.8 3.09 14.49 3.09 21.29 0l232.94-105.67c16.55-7.51 16.55-32.52 0-40.03L310.16999999999996 45.829999999999984a25.607 25.607 0 0 0-21.29 0L55.92999999999998 151.5c-16.55 7.51-16.55 32.53 0 40.04z m487.18 88.28l-58.09-26.33-161.64 73.27c-7.56 3.43-15.59 5.17-23.86 5.17s-16.29-1.74-23.86-5.17L114.02999999999999 253.48999999999998l-58.1 26.33c-16.55 7.5-16.55 32.5 0 40l232.94 105.59c6.8 3.08 14.49 3.08 21.29 0L543.1099999999999 319.82c16.55-7.5 16.55-32.5 0-40z m0 127.8l-57.87-26.23-161.86 73.37c-7.56 3.43-15.59 5.17-23.86 5.17s-16.29-1.74-23.86-5.17L113.80999999999999 381.39 55.92999999999998 407.62c-16.55 7.5-16.55 32.5 0 40l232.94 105.59c6.8 3.08 14.49 3.08 21.29 0L543.1099999999999 447.62c16.55-7.5 16.55-32.5 0-40z" /></svg>