<svg xmlns="http://www.w3.org/2000/svg" width="100%" height="100%" viewBox="0 0 673.92 673.92"><path d="M618.3040000000001 312.591C561.9200000000001 216.909 456.77 152.95999999999998 336.96 152.95999999999998c-28.468 0-56.102 3.619-82.451 10.409L201.73799999999997 91.19999999999997c-7.601-10.858-22.564-13.5-33.423-5.9l-13.114 9.178c-10.86 7.601-13.502 22.566-5.9 33.426l43.131 58.395C138.409 212.68999999999997 89.18799999999999 255.64299999999997 55.64199999999998 312.54099999999994c-0.01 0.017-0.023 0.033-0.034 0.05-8.765 14.875-8.964 33.528 0 48.739 38.5 65.332 99.742 115.862 172.859 141.349L104.27599999999998 325.26199999999994A272.194 272.194 0 0 1 132.57 289.34999999999997l119.4 170.58h0.01l40.63 58.04a330.055 330.055 0 0 0 78.94 1.17l-189.98-271.4a277.628 277.628 0 0 1 38.777-21.563l251.836 356.544c7.601 10.858 22.564 13.499 33.423 5.9l13.114-9.178c10.86-7.601 13.502-22.567 5.9-33.426l-43.12-58.377-0.007-0.009c57.161-27.978 104.835-72.04 136.81-126.301a47.938 47.938 0 0 0 0.001-48.739zM438.986 426.9l-19.066-27.23c24.682-32.567 27.711-76.353 8.8-111.68v0.03c0 23.65-19.17 42.82-42.82 42.82-23.828 0-42.82-19.349-42.82-42.82 0-23.65 19.17-42.82 42.82-42.82h0.03c-24.75-13.249-53.522-15.643-79.51-7.68l-19.068-27.237C302.71799999999996 204.26599999999996 319.448 200.95999999999998 336.96 200.95999999999998c75.162 0 136 60.826 136 136 0 34.504-12.833 65.975-33.974 89.94z" /></svg>