<svg xmlns="http://www.w3.org/2000/svg" width="100%" height="100%" viewBox="0 0 599.04 599.04"><path d="M347.62 247.71999999999997v71.1c0 1.8-1.4 3.2-3.2 3.2h-11.4c-1.1 0-2.1-0.6-2.6-1.3l-32.6-44v42.2c0 1.8-1.4 3.2-3.2 3.2h-11.4c-1.8 0-3.2-1.4-3.2-3.2v-71.1c0-1.8 1.4-3.2 3.2-3.2H294.52c1 0 2.1 0.5 2.6 1.4l32.6 44v-42.2c0-1.8 1.4-3.2 3.2-3.2h11.4c1.8-0.1 3.3 1.4 3.3 3.1z m-82-3.2h-11.4c-1.8 0-3.2 1.4-3.2 3.2v71.1c0 1.8 1.4 3.2 3.2 3.2h11.4c1.8 0 3.2-1.4 3.2-3.2v-71.1c0-1.7-1.4-3.2-3.2-3.2z m-27.5 59.6h-31.1v-56.4c0-1.8-1.4-3.2-3.2-3.2h-11.4c-1.8 0-3.2 1.4-3.2 3.2v71.1c0 0.9 0.3 1.6 0.9 2.2 0.6 0.5 1.3 0.9 2.2 0.9h45.7c1.8 0 3.2-1.4 3.2-3.2v-11.4c0-1.7-1.4-3.2-3.1-3.2zM407.62 244.51999999999998h-45.7c-1.7 0-3.2 1.4-3.2 3.2v71.1c0 1.7 1.4 3.2 3.2 3.2h45.7c1.8 0 3.2-1.4 3.2-3.2v-11.4c0-1.8-1.4-3.2-3.2-3.2H376.52v-12h31.1c1.8 0 3.2-1.4 3.2-3.2V277.52c0-1.8-1.4-3.2-3.2-3.2H376.52v-12h31.1c1.8 0 3.2-1.4 3.2-3.2v-11.4c-0.1-1.7-1.5-3.2-3.2-3.2zM523.52 157.21999999999997V442.52c-0.1 44.8-36.8 81.1-81.7 81H156.51999999999998c-44.8-0.1-81.1-36.9-81-81.7V156.51999999999998c0.1-44.8 36.9-81.1 81.7-81H442.52c44.8 0.1 81.1 36.8 81 81.7z m-61.6 122.6c0-73-73.2-132.4-163.1-132.4-89.9 0-163.1 59.4-163.1 132.4 0 65.4 58 120.2 136.4 130.6 19.1 4.1 16.9 11.1 12.6 36.8-0.7 4.1-3.3 16.1 14.1 8.8 17.4-7.3 93.9-55.3 128.2-94.7 23.6-26 34.9-52.3 34.9-81.5z" /></svg>