<svg xmlns="http://www.w3.org/2000/svg" width="100%" height="100%" viewBox="0 0 748.8 748.8"><path d="M678.4 534.4H435.94c-0.74 19.81-14.71 32-32.74 32H342.4c-18.69 0-33.02-17.47-32.77-32H70.39999999999998c-8.8 0-16 7.2-16 16v16c0 35.2 28.8 64 64 64h512c35.2 0 64-28.8 64-64v-16c0-8.8-7.2-16-16-16zM630.4 166.39999999999998c0-26.4-21.6-48-48-48H166.39999999999998C139.99999999999997 118.39999999999998 118.39999999999998 139.99999999999997 118.39999999999998 166.39999999999998v336h512V166.39999999999998z m-64 272H182.39999999999998V182.39999999999998h384v256z" /></svg>