<svg xmlns="http://www.w3.org/2000/svg" width="100%" height="100%" viewBox="0 0 673.92 673.92"><path d="M595.1600000000001 90.65999999999998c-5.6-12.5-21.6-13-28.3-1.2C535.8599999999999 143.35999999999999 480.35999999999996 176.95999999999998 416.96 176.95999999999998h-80C230.95999999999998 176.95999999999998 144.95999999999998 262.96 144.95999999999998 368.96c0 7 0.8 13.7 1.5 20.5C210.26 343.76 302.36 304.96 432.96 304.96c8.8 0 16 7.2 16 16s-7.2 16-16 16C181.55999999999997 336.96 74.95999999999998 491.06 51.35999999999998 548.96c-6.6 16.3 1.2 34.9 17.5 41.6 16.4 6.8 35-1.1 41.8-17.3 1.5-3.6 20.9-47.9 71.9-90.6 32.4 43.9 94 85.8 174.9 77.2C514.46 548.46 624.96 407.65999999999997 624.96 235.26c0-50.2-10.8-102.2-29.8-144.6z" /></svg>