<svg xmlns="http://www.w3.org/2000/svg" width="100%" height="100%" viewBox="0 0 673.92 673.92"><path d="M472.46 80.95999999999998C388.46 81.25999999999998 320.96 150.45999999999998 320.96 234.45999999999998V304.96H96.95999999999998c-26.5 0-48 21.5-48 48v192c0 26.5 21.5 48 48 48h352c26.5 0 48-21.5 48-48V352.96c0-26.5-21.5-48-48-48h-48v-71.1c0-39.6 31.7-72.5 71.3-72.9 40-0.4 72.7 32.1 72.7 72v80c0 13.3 10.7 24 24 24h32c13.3 0 24-10.7 24-24v-80C624.96 148.95999999999998 556.46 80.65999999999998 472.46 80.95999999999998z" /></svg>