<svg xmlns="http://www.w3.org/2000/svg" width="100%" height="100%" viewBox="0 0 599.04 599.04"><path d="M443.52 251.51999999999998c0-44.2-19.9-83.7-51.2-110.1 2.5-1.8 4.9-3.8 7.2-5.8 24.7-21.2 39.8-48.8 43.2-78.8 0.9-7.1-4.7-13.3-11.9-13.3h-40.5C384.52 43.51999999999998 379.62 47.61999999999998 378.52 53.31999999999998c-2.4 12.5-9.6 24.3-20.7 33.8C342.52 100.31999999999998 321.82 107.51999999999998 299.52 107.51999999999998s-43-7.2-58.4-20.4C230.01999999999998 77.61999999999998 222.92 65.81999999999998 220.42 53.31999999999998 219.32 47.61999999999998 214.42 43.51999999999998 208.71999999999997 43.51999999999998H168.21999999999997C161.01999999999998 43.51999999999998 155.42 49.719999999999985 156.32 56.81999999999998 159.71999999999997 86.91999999999999 174.71999999999997 114.51999999999998 199.51999999999998 135.71999999999997c2.3 2 4.7 3.9 7.2 5.8C175.42 167.82 155.51999999999998 207.32 155.51999999999998 251.51999999999998c0 68.5 47.9 125.9 112 140.4V443.52H231.51999999999998c-6.6 0-12 5.4-12 12v40c0 6.6 5.4 12 12 12h36v36c0 6.6 5.4 12 12 12h40c6.6 0 12-5.4 12-12v-36h36c6.6 0 12-5.4 12-12v-40c0-6.6-5.4-12-12-12h-36v-51.6c64.1-14.5 112-71.9 112-140.4z m-224 0c0-44.1 35.9-80 80-80s80 35.9 80 80-35.9 80-80 80-80-35.9-80-80z" /></svg>