<svg xmlns="http://www.w3.org/2000/svg" width="100%" height="100%" viewBox="0 0 599.04 599.04"><path d="M267.52 360.46v156.69l22.02 33.02c4.75 7.12 15.22 7.12 19.97 0L331.52 517.15V360.46c-10.39 1.92-21.06 3.06-32 3.06s-21.61-1.14-32-3.06zM299.52 43.51999999999998C219.98999999999998 43.51999999999998 155.51999999999998 107.98999999999998 155.51999999999998 187.51999999999998s64.47 144 144 144 144-64.47 144-144S379.04999999999995 43.51999999999998 299.52 43.51999999999998z m0 76c-37.5 0-68 30.5-68 68 0 6.62-5.38 12-12 12s-12-5.38-12-12c0-50.73 41.28-92 92-92 6.62 0 12 5.38 12 12s-5.38 12-12 12z" /></svg>