<svg xmlns="http://www.w3.org/2000/svg" width="100%" height="100%" viewBox="0 0 748.8 748.8"><path d="M694.4 249.33999999999997V214.39999999999998c0-17.67-14.33-32-32-32H86.39999999999998C68.72999999999998 182.39999999999998 54.39999999999998 196.72999999999996 54.39999999999998 214.39999999999998v34.94c18.6 6.61 32 24.19 32 45.06s-13.4 38.45-32 45.06V438.4h640v-98.94c-18.6-6.61-32-24.19-32-45.06s13.4-38.45 32-45.06zM278.4 374.4h-64V246.39999999999998h64v128z m128 0h-64V246.39999999999998h64v128z m128 0h-64V246.39999999999998h64v128zM54.39999999999998 566.4h64v-26.67c0-8.84 7.16-16 16-16s16 7.16 16 16V566.4h128v-26.67c0-8.84 7.16-16 16-16s16 7.16 16 16V566.4h128v-26.67c0-8.84 7.16-16 16-16s16 7.16 16 16V566.4h128v-26.67c0-8.84 7.16-16 16-16s16 7.16 16 16V566.4h64v-96H54.39999999999998v96z" /></svg>