<svg xmlns="http://www.w3.org/2000/svg" width="100%" height="100%" viewBox="0 0 599.04 599.04"><path d="M170.61999999999998 190.01999999999998c1.3 7.7 8 13.5 16 13.5h16.5c9.8 0 17.6-8.5 16.3-18-3.8-28.2-16.4-54.2-36.6-74.7-14.4-14.7-23.6-33.3-26.4-53.5C155.32 49.41999999999998 148.51999999999998 43.51999999999998 140.32 43.51999999999998H123.91999999999999C114.11999999999998 43.51999999999998 106.51999999999998 52.01999999999998 107.61999999999998 61.51999999999998c3.9 31.9 18 61.3 40.6 84.4 12 12.2 19.7 27.5 22.4 44.1z m112 0c1.3 7.7 8 13.5 16 13.5h16.5c9.8 0 17.6-8.5 16.3-18-3.8-28.2-16.4-54.2-36.6-74.7-14.4-14.7-23.6-33.3-26.4-53.5C267.32 49.41999999999998 260.52 43.51999999999998 252.32 43.51999999999998h-16.4c-9.8 0-17.5 8.5-16.3 18 3.9 31.9 18 61.3 40.6 84.4 12 12.2 19.7 27.5 22.4 44.1zM443.52 235.51999999999998H75.51999999999998c-17.7 0-32 14.3-32 32v192c0 53 43 96 96 96h192c53 0 96-43 96-96h16c61.8 0 112-50.2 112-112s-50.2-112-112-112z m0 160h-16v-96h16c26.5 0 48 21.5 48 48s-21.5 48-48 48z" /></svg>