<svg xmlns="http://www.w3.org/2000/svg" width="100%" height="100%" viewBox="0 0 599.04 599.04"><path d="M75.51999999999998 75.51999999999998v448h448V75.51999999999998H75.51999999999998z m372.2 106.1l-24 23c-2.1 1.6-3.1 4.2-2.7 6.7v169.3c-0.4 2.6 0.6 5.2 2.7 6.7l23.5 23v5.1h-118V410.52l24.3-23.6c2.4-2.4 2.4-3.1 2.4-6.7V243.32l-67.6 171.6h-9.1L200.51999999999998 243.32v115c-0.7 4.8 1 9.7 4.4 13.2l31.6 38.3v5.1H146.71999999999997v-5.1l31.6-38.3c3.4-3.5 4.9-8.4 4.1-13.2v-133c0.4-3.7-1-7.3-3.8-9.8L150.51999999999998 181.61999999999998V176.51999999999998h87.3l67.4 148L364.52 176.61999999999998h83.2v5z" /></svg>