<svg xmlns="http://www.w3.org/2000/svg" width="100%" height="100%" viewBox="0 0 748.8 748.8"><path d="M662.4 150.39999999999998H86.39999999999998C68.72999999999998 150.39999999999998 54.39999999999998 164.72999999999996 54.39999999999998 182.39999999999998v384c0 17.67 14.33 32 32 32h576c17.67 0 32-14.33 32-32V182.39999999999998c0-17.67-14.33-32-32-32zM230.39999999999998 446.28V462.4c0 4.42-3.58 8-8 8h-16c-4.42 0-8-3.58-8-8v-16.29c-11.29-0.58-22.27-4.52-31.37-11.35-3.9-2.93-4.1-8.77-0.57-12.14l11.75-11.21c2.77-2.64 6.89-2.76 10.13-0.73 3.87 2.42 8.26 3.72 12.82 3.72h28.11c6.5 0 11.8-5.92 11.8-13.19 0-5.95-3.61-11.19-8.77-12.73l-45-13.5c-18.59-5.58-31.58-23.42-31.58-43.39 0-24.52 19.05-44.44 42.67-45.07V270.4c0-4.42 3.58-8 8-8h16c4.42 0 8 3.58 8 8v16.29c11.29 0.58 22.27 4.51 31.37 11.35 3.9 2.93 4.1 8.77 0.57 12.14l-11.75 11.21c-2.77 2.64-6.89 2.76-10.13 0.73-3.87-2.43-8.26-3.72-12.82-3.72h-28.11c-6.5 0-11.8 5.92-11.8 13.19 0 5.95 3.61 11.19 8.77 12.73l45 13.5c18.59 5.58 31.58 23.42 31.58 43.39 0 24.53-19.05 44.44-42.67 45.07zM470.4 430.4c0 4.42-3.58 8-8 8H350.4c-4.42 0-8-3.58-8-8v-16c0-4.42 3.58-8 8-8h112c4.42 0 8 3.58 8 8v16z m160 0c0 4.42-3.58 8-8 8h-80c-4.42 0-8-3.58-8-8v-16c0-4.42 3.58-8 8-8h80c4.42 0 8 3.58 8 8v16z m0-96c0 4.42-3.58 8-8 8H350.4c-4.42 0-8-3.58-8-8v-16c0-4.42 3.58-8 8-8h272c4.42 0 8 3.58 8 8v16z" /></svg>