<svg xmlns="http://www.w3.org/2000/svg" width="100%" height="100%" viewBox="0 0 599.04 599.04"><path d="M411.52 43.51999999999998H187.51999999999998C161.01999999999998 43.51999999999998 139.51999999999998 65.01999999999998 139.51999999999998 91.51999999999998v416c0 26.5 21.5 48 48 48h224c26.5 0 48-21.5 48-48V91.51999999999998c0-26.5-21.5-48-48-48zM299.52 523.52c-17.7 0-32-14.3-32-32s14.3-32 32-32 32 14.3 32 32-14.3 32-32 32z m112-108c0 6.6-5.4 12-12 12H199.51999999999998c-6.6 0-12-5.4-12-12V103.51999999999998c0-6.6 5.4-12 12-12h200c6.6 0 12 5.4 12 12v312z" /></svg>