<svg xmlns="http://www.w3.org/2000/svg" width="100%" height="100%" viewBox="0 0 599.04 599.04"><path d="M266.02 253.11999999999998v66.2l33.5 33.5 33.3-33.3v-66.4l-33.4-33.4zM299.52 51.51999999999998C162.51999999999998 51.51999999999998 51.51999999999998 162.51999999999998 51.51999999999998 299.52s111 248 248 248 248-111 248-248S436.52 51.51999999999998 299.52 51.51999999999998z m145.1 414.4L418.52 485.12l-26-19.2v-65.5l-33.4-33.4-33.4 33.4v65.5L299.52 485.12l-26.1-19.2v-65.5l-33.4-33.4-33.5 33.4v65.5l-26.1 19.2-26.1-19.2v-87l59.5-59.5V231.51999999999998l59.5-59.5V96.41999999999999l26.1-19.2L325.52 96.41999999999999v75.6l59.5 59.5v87.6l59.7 59.7v87.1z" /></svg>