<svg xmlns="http://www.w3.org/2000/svg" width="100%" height="100%" viewBox="0 0 748.8 748.8"><path d="M198.39999999999998 246.39999999999998h-32c-8.84 0-16 7.16-16 16v144h64V262.4c0-8.84-7.16-16-16-16z m96 0h-32c-8.84 0-16 7.16-16 16v144h64V262.4c0-8.84-7.16-16-16-16z m192 0h-32c-8.84 0-16 7.16-16 16v144h64V262.4c0-8.84-7.16-16-16-16z m96 0h-32c-8.84 0-16 7.16-16 16v144h64V262.4c0-8.84-7.16-16-16-16z m80-32c17.67 0 32-14.33 32-32S662.4 118.39999999999998 662.4 118.39999999999998s-32 46.33-32 64 14.33 32 32 32z m-96 0c17.67 0 32-14.33 32-32S566.4 118.39999999999998 566.4 118.39999999999998s-32 46.33-32 64 14.33 32 32 32z m-96 0c17.67 0 32-14.33 32-32S470.4 118.39999999999998 470.4 118.39999999999998s-32 46.33-32 64 14.33 32 32 32z m-96 0c17.67 0 32-14.33 32-32S374.4 118.39999999999998 374.4 118.39999999999998s-32 46.33-32 64 14.33 32 32 32z m-96 0c17.67 0 32-14.33 32-32S278.4 118.39999999999998 278.4 118.39999999999998s-32 46.33-32 64 14.33 32 32 32z m-96 0c17.67 0 32-14.33 32-32S182.39999999999998 118.39999999999998 182.39999999999998 118.39999999999998 150.39999999999998 164.72999999999996 150.39999999999998 182.39999999999998s14.33 32 32 32z m-96 0c17.67 0 32-14.33 32-32S86.39999999999998 118.39999999999998 86.39999999999998 118.39999999999998 54.39999999999998 164.72999999999996 54.39999999999998 182.39999999999998s14.33 32 32 32z m544 192c0 17.67-14.33 32-32 32H406.4V262.4c0-8.84-7.16-16-16-16h-32c-8.84 0-16 7.16-16 16v176H150.39999999999998c-17.67 0-32-14.33-32-32V262.4c0-8.84-7.16-16-16-16H70.39999999999998c-8.84 0-16 7.16-16 16v144c0 53.02 42.98 96 96 96h192v64H166.39999999999998c-8.84 0-16 7.16-16 16v32c0 8.84 7.16 16 16 16h416c8.84 0 16-7.16 16-16v-32c0-8.84-7.16-16-16-16H406.4v-64h192c53.02 0 96-42.98 96-96V262.4c0-8.84-7.16-16-16-16h-32c-8.84 0-16 7.16-16 16v144z" /></svg>