<svg xmlns="http://www.w3.org/2000/svg" width="100%" height="100%" viewBox="0 0 599.04 599.04"><path d="M139.51999999999998 523.52h320V171.51999999999998h-32V123.51999999999998c0-26.51-21.49-48-48-48H219.51999999999998c-26.51 0-48 21.49-48 48v48H139.51999999999998v352z m96-384h128v32H235.51999999999998V139.51999999999998z m320 80v256c0 26.51-21.49 48-48 48h-16V171.51999999999998h16c26.51 0 48 21.49 48 48zM107.51999999999998 523.52H91.51999999999998c-26.51 0-48-21.49-48-48V219.51999999999998c0-26.51 21.49-48 48-48h16v352z m288-208v32c0 8.837-7.163 16-16 16h-48v48c0 8.837-7.163 16-16 16h-32c-8.837 0-16-7.163-16-16v-48h-48c-8.837 0-16-7.163-16-16v-32c0-8.837 7.163-16 16-16h48v-48c0-8.837 7.163-16 16-16h32c8.837 0 16 7.163 16 16v48h48c8.837 0 16 7.163 16 16z" /></svg>