<svg xmlns="http://www.w3.org/2000/svg" width="100%" height="100%" viewBox="0 0 599.04 599.04"><path d="M187.51999999999998 51.61999999999998S320.91999999999996 43.41999999999998 308.52 156.01999999999998c0 0 19.1-74.9 103-40.6 0 0-17.7 74-88 56 0 0 14.6-54.6 66.1-56.6 0 0-39.9-10.3-82.1 48.8 0 0-19.8-94.5-93.6-99.7 0 0 75.2 19.4 77.6 107.5 0 0.1-106.4 7-104-119.8z m312 315.6c0 48.5-9.7 95.3-32 132.3-42.2 30.9-105 48-168 48-62.9 0-125.8-17.1-168-48C109.21999999999998 462.52 99.51999999999998 415.71999999999997 99.51999999999998 367.21999999999997 99.51999999999998 318.82 117.21999999999998 272.52 139.51999999999998 235.51999999999998c42.2-30.9 97.1-48.6 160-48.6 63 0 117.8 17.6 160 48.6 22.3 37 40 83.3 40 131.7zM219.51999999999998 471.52c0-15.5-12.5-28-28-28s-28 12.5-28 28 12.5 28 28 28 28-12.5 28-28z m0-66.2c0-15.5-12.5-28-28-28s-28 12.5-28 28 12.5 28 28 28 28-12.5 28-28z m0-66.2c0-15.5-12.5-28-28-28s-28 12.5-28 28 12.5 28 28 28 28-12.5 28-28zM291.52 471.52c0-15.5-12.5-28-28-28s-28 12.5-28 28 12.5 28 28 28 28-12.5 28-28z m0-66.2c0-15.5-12.5-28-28-28s-28 12.5-28 28 12.5 28 28 28 28-12.5 28-28z m0-66.2c0-15.5-12.5-28-28-28s-28 12.5-28 28 12.5 28 28 28 28-12.5 28-28zM363.52 471.52c0-15.5-12.5-28-28-28s-28 12.5-28 28 12.5 28 28 28 28-12.5 28-28z m0-66.2c0-15.5-12.5-28-28-28s-28 12.5-28 28 12.5 28 28 28 28-12.5 28-28z m0-66.2c0-15.5-12.5-28-28-28s-28 12.5-28 28 12.5 28 28 28 28-12.5 28-28zM435.52 471.52c0-15.5-12.5-28-28-28s-28 12.5-28 28 12.5 28 28 28 28-12.5 28-28z m0-66.2c0-15.5-12.5-28-28-28s-28 12.5-28 28 12.5 28 28 28 28-12.5 28-28z m0-66.2c0-15.5-12.5-28-28-28s-28 12.5-28 28 12.5 28 28 28 28-12.5 28-28z m24-39.6c-4.8-22.3-7.4-36.9-16-56-38.8-19.9-90.5-32-144-32S194.32 223.61999999999998 155.51999999999998 243.51999999999998c-8.8 19.5-11.2 33.9-16 56 42.2-7.9 98.7-14.8 160-14.8s117.8 6.9 160 14.8z" /></svg>