<svg xmlns="http://www.w3.org/2000/svg" width="100%" height="100%" viewBox="0 0 599.04 599.04"><path d="M491.52 235.51999999999998V120.76999999999998c0-8.49-3.37-16.62-9.37-22.63L436.89 52.88999999999998c-6-6-14.14-9.37-22.63-9.37H139.51999999999998C121.84999999999998 43.51999999999998 107.51999999999998 57.84999999999998 107.51999999999998 75.51999999999998v160c-35.35 0-64 28.65-64 64v112c0 8.84 7.16 16 16 16h48v96c0 17.67 14.33 32 32 32h320c17.67 0 32-14.33 32-32v-96h48c8.84 0 16-7.16 16-16V299.52c0-35.35-28.65-64-64-64z m-64 256H171.51999999999998v-96h256v96z m0-224H171.51999999999998V107.51999999999998h192v48c0 8.84 7.16 16 16 16h48v96z m48 72c-13.25 0-24-10.75-24-24 0-13.26 10.75-24 24-24s24 10.74 24 24c0 13.25-10.75 24-24 24z" /></svg>