<svg xmlns="http://www.w3.org/2000/svg" width="100%" height="100%" viewBox="0 0 599.04 599.04"><path d="M343.15 203.51999999999998H191.89a64 64 0 0 0-63.74 58.21L107.78999999999998 485.72999999999996A64 64 0 0 0 171.51999999999998 555.52H363.52a64 64 0 0 0 63.74-69.79l-20.36-224A64 64 0 0 0 343.15 203.51999999999998ZM267.52 459.52c-33.12 0-60-26.33-60-58.75 0-25 35.7-75.47 52-97.27A10 10 0 0 1 275.52 303.52c16.33 21.8 52 72.27 52 97.27C327.52 433.19 300.64 459.52 267.52 459.52ZM486.83 137.57999999999998L443.52 94.25999999999999A64 64 0 0 0 398.27 75.51999999999998H331.52A32 32 0 0 0 299.52 43.51999999999998H235.51999999999998A32 32 0 0 0 203.51999999999998 75.51999999999998v96H331.52V139.51999999999998h66.75l43.31 43.31a16 16 0 0 0 22.63 0l22.62-22.62A16 16 0 0 0 486.83 137.57999999999998Z" /></svg>