<svg xmlns="http://www.w3.org/2000/svg" width="100%" height="100%" viewBox="0 0 748.8 748.8"><path d="M662.4 118.39999999999998H214.39999999999998a32 32 0 0 0-32 32v96h160V182.39999999999998h192v320h128a32 32 0 0 0 32-32V150.39999999999998a32 32 0 0 0-32-32zM286.4 221.39999999999998a9 9 0 0 1-9 9h-30a9 9 0 0 1-9-9V191.39999999999998a9 9 0 0 1 9-9h30a9 9 0 0 1 9 9z m352 208a9 9 0 0 1-9 9h-30a9 9 0 0 1-9-9v-30a9 9 0 0 1 9-9h30a9 9 0 0 1 9 9z m0-104a9 9 0 0 1-9 9h-30a9 9 0 0 1-9-9v-30a9 9 0 0 1 9-9h30a9 9 0 0 1 9 9z m0-104a9 9 0 0 1-9 9h-30a9 9 0 0 1-9-9V191.39999999999998a9 9 0 0 1 9-9h30a9 9 0 0 1 9 9z m-168 57H86.39999999999998a32 32 0 0 0-32 32v288a32 32 0 0 0 32 32h384a32 32 0 0 0 32-32V310.4a32 32 0 0 0-32-32zM150.39999999999998 342.4a32 32 0 1 1-32 32 32 32 0 0 1 32-32z m288 224H118.39999999999998v-32l64-64 32 32 128-128 96 96z" /></svg>