<svg xmlns="http://www.w3.org/2000/svg" width="100%" height="100%" viewBox="0 0 599.04 599.04"><path d="M494.88 412.65999999999997C512.1800000000001 399.51 523.52 378.93 523.52 355.52c0-39.77-32.24-72-72-72h-14.07c13.42-11.73 22.07-28.78 22.07-48 0-35.35-28.65-64-64-64h-5.88c3.57-10.05 5.88-20.72 5.88-32 0-53.02-42.98-96-96-96-5.17 0-10.15 0.74-15.11 1.52C293.83 58.15999999999998 299.52 74.13999999999999 299.52 91.51999999999998c0 44.18-35.82 80-80 80h-16c-35.35 0-64 28.65-64 64 0 19.22 8.65 36.27 22.07 48H147.51999999999998c-39.76 0-72 32.23-72 72 0 23.41 11.34 43.99 28.64 57.14C69.82999999999998 418.14 43.51999999999998 447.64 43.51999999999998 483.52c0 39.76 32.24 72 72 72h368c39.76 0 72-32.24 72-72 0-35.88-26.31-65.38-60.64-70.86z" /></svg>