<svg xmlns="http://www.w3.org/2000/svg" width="100%" height="100%" viewBox="0 0 599.04 599.04"><path d="M299.52 51.51999999999998C162.54999999999998 51.51999999999998 51.51999999999998 162.54999999999998 51.51999999999998 299.52s111.03 248 248 248 248-111.03 248-248S436.49 51.51999999999998 299.52 51.51999999999998z m184 248c0 31.93-8.2 61.97-22.57 88.17L331.52 284.15V118.48999999999998c86.23 15.21 152 90.5 152 181.03zM267.52 480.54999999999995c-33.86-5.97-64.49-21.2-89.29-43.02L267.52 366.09v114.46z m64-114.46L420.81 437.52c-24.8 21.82-55.43 37.05-89.29 43.02V366.09z m-64-247.6v165.66L138.08999999999997 387.69C123.71999999999998 361.49 115.51999999999998 331.45 115.51999999999998 299.52c0-90.53 65.77-165.82 152-181.03z" /></svg>