<svg xmlns="http://www.w3.org/2000/svg" width="100%" height="100%" viewBox="0 0 599.04 599.04"><path d="M374.19 306.64V216.92l-52.75-24.22C262.96 262.28 241.1 443.52 99.51999999999998 443.52a56 56 0 0 0 0 112c212.64 0 370.65-122.87 419.18-210.34l-37.05-38.54z m131.09-128.37C537.44 118.42999999999998 520.7 69.99999999999999 502.14 46.51999999999998a8 8 0 0 0-11.93-0.59l-22.9 23a8.06 8.06 0 0 0-0.89 10.23c6.86 10.36 17.05 35.1-1.4 72.32A142.85 142.85 0 0 0 407.85999999999996 139.51999999999998c-28 0-54 8.54-76.34 22.59l74.67 34.29v78.24h89.09L549.96 331.52c3.26-12.62 5.56-25.63 5.56-39.31a154 154 0 0 0-50.24-113.94z" /></svg>