<svg xmlns="http://www.w3.org/2000/svg" width="100%" height="100%" viewBox="0 0 599.04 599.04"><path d="M523.52 475.52V123.51999999999998c0-26.5-21.5-48-48-48H123.51999999999998C97.01999999999998 75.51999999999998 75.51999999999998 97.01999999999998 75.51999999999998 123.51999999999998v352c0 26.5 21.5 48 48 48h352c26.5 0 48-21.5 48-48zM187.51999999999998 235.51999999999998c-8.84 0-16-7.16-16-16v-32c0-8.84 7.16-16 16-16h128c8.84 0 16 7.16 16 16v32c0 8.84-7.16 16-16 16H187.51999999999998z m0 96c-8.84 0-16-7.16-16-16v-32c0-8.84 7.16-16 16-16h224c8.84 0 16 7.16 16 16v32c0 8.84-7.16 16-16 16H187.51999999999998z m0 96c-8.84 0-16-7.16-16-16v-32c0-8.84 7.16-16 16-16h64c8.84 0 16 7.16 16 16v32c0 8.84-7.16 16-16 16h-64z" /></svg>