<svg xmlns="http://www.w3.org/2000/svg" width="100%" height="100%" viewBox="0 0 748.8 748.8"><path d="M86.39999999999998 342.4H118.39999999999998V534.4H86.39999999999998A31.96166 31.96166 0 0 1 54.39999999999998 502.4V374.4A31.96166 31.96166 0 0 1 86.39999999999998 342.4Zm512-48V566.4a64.06328 64.06328 0 0 1-64 64H214.39999999999998a64.06328 64.06328 0 0 1-64-64V294.4a79.974 79.974 0 0 1 80-80H342.4V150.39999999999998a32 32 0 0 1 64 0V214.39999999999998H518.4A79.974 79.974 0 0 1 598.4 294.4ZM318.4 374.4a40 40 0 1 0-40 40A39.997 39.997 0 0 0 318.4 374.4Zm-8 128H246.39999999999998v32h64Zm96 0H342.4v32h64ZM510.4 374.4a40 40 0 1 0-40 40A39.997 39.997 0 0 0 510.4 374.4Zm-8 128H438.4v32h64ZM694.4 374.4V502.4a31.96166 31.96166 0 0 1-32 32H630.4V342.4h32A31.96166 31.96166 0 0 1 694.4 374.4Z" /></svg>