<svg xmlns="http://www.w3.org/2000/svg" width="100%" height="100%" viewBox="0 0 599.04 599.04"><path d="M299.52 51.51999999999998C162.51999999999998 51.51999999999998 51.51999999999998 162.51999999999998 51.51999999999998 299.52s111 248 248 248 248-111 248-248S436.52 51.51999999999998 299.52 51.51999999999998z m144 386.4V323.52c0-13.2-10.8-24-24-24s-24 10.8-24 24v151.4C367.02 490.52 334.32 499.52 299.52 499.52s-67.5-9-96-24.6V323.52c0-13.2-10.8-24-24-24s-24 10.8-24 24v114.4c-34.6-36-56-84.7-56-138.4 0-110.3 89.7-200 200-200s200 89.7 200 200c0 53.7-21.4 102.5-56 138.4zM257.32 278.02c4.4-2.4 6.9-7.4 6.1-12.4-4-25.2-34.2-42.1-59.8-42.1s-55.9 16.9-59.8 42.1c-0.8 5 1.7 10 6.1 12.4 4.4 2.4 9.9 1.8 13.7-1.6l9.5-8.5c14.8-13.2 46.2-13.2 61 0l9.5 8.5c2.5 2.3 7.9 4.8 13.7 1.6zM395.52 223.51999999999998c-25.7 0-55.9 16.9-59.8 42.1-0.8 5 1.7 10 6.1 12.4 4.5 2.4 9.9 1.8 13.7-1.6l9.5-8.5c14.8-13.2 46.2-13.2 61 0l9.5 8.5c2.5 2.2 8 4.7 13.7 1.6 4.4-2.4 6.9-7.4 6.1-12.4-3.9-25.2-34.1-42.1-59.8-42.1z m-96 92c-30.9 0-56 28.7-56 64s25.1 64 56 64 56-28.7 56-64-25.1-64-56-64z" /></svg>