<svg xmlns="http://www.w3.org/2000/svg" width="100%" height="100%" viewBox="0 0 599.04 599.04"><path d="M452.38399999999996 122.57199999999999c-22.401-33.898-66.108-42.273-98.813-23.588-29.474-31.469-79.145-31.093-108.334-0.022-47.16-27.02-108.71 5.055-110.671 60.806C88.36599999999999 148.92699999999996 43.51999999999998 183.521 43.51999999999998 230.94899999999998v56.953c0 32.741 14.28 63.954 39.18 85.634l97.71 85.081c4.252 3.702 3.11 5.573 3.11 32.903 0 17.673 14.327 32 32 32h252c17.673 0 32-14.327 32-32 0-23.513-1.015-30.745 3.982-42.37l42.835-99.656c6.094-14.177 9.183-29.172 9.183-44.568V190.48299999999998c0-52.839-54.314-88.662-103.136-67.911zM507.52 304.926a64.505 64.505 0 0 1-5.282 25.613l-42.835 99.655c-5.23 12.171-7.883 25.04-7.883 38.25V475.52H231.51999999999998v-10.286c0-16.37-7.14-31.977-19.59-42.817l-97.71-85.08C99.79399999999998 324.775 91.51999999999998 306.756 91.51999999999998 287.90099999999995v-56.953c0-33.208 52-33.537 52 0.677v41.228a16 16 0 0 0 5.493 12.067l7 6.095A16 16 0 0 0 182.51999999999998 278.94899999999996V162.37699999999998c0-33.097 52-33.725 52 0.677v26.751c0 8.836 7.164 16 16 16h7c8.836 0 16-7.164 16-16v-41.143c0-33.134 52-33.675 52 0.677v40.466c0 8.836 7.163 16 16 16h7c8.837 0 16-7.164 16-16v-27.429c0-33.03 52-33.78 52 0.677v26.751c0 8.836 7.163 16 16 16h7c8.837 0 16-7.164 16-16 0-33.146 52-33.613 52 0.677v114.445z" /></svg>