<svg xmlns="http://www.w3.org/2000/svg" width="100%" height="100%" viewBox="0 0 599.04 599.04"><path d="M235.82 203.51999999999998v32h32v-32z m64-96h-32v32h32z m-64 32v32h32V139.51999999999998z m64 32h-32v32h32z m177.6-30.1L393.52 57.51999999999998C384.52 48.51999999999998 372.32 43.41999999999998 359.62 43.41999999999998H155.51999999999998C129.01999999999998 43.51999999999998 107.51999999999998 65.01999999999998 107.51999999999998 91.51999999999998v416c0 26.5 21.5 48 48 48h288c26.5 0 48-21.5 48-48V175.42c0-12.7-5.1-25-14.1-34zM363.52 95.41999999999999l76.1 76.1H363.52zM443.52 507.52H155.51999999999998V91.51999999999998h79.7v16h32V91.51999999999998H315.52v104c0 13.3 10.7 24 24 24h104zM301.71999999999997 309.21999999999997c-1.1-5.6-6-9.7-11.8-9.7h-22.1v-32h-32v32l-19.7 97.1C209.51999999999998 429.12 234.32 459.52 267.52 459.52c33.1 0 57.9-30.2 51.5-62.6z m-33.9 124.4c-17.9 0-32.4-12.1-32.4-27s14.5-27 32.4-27 32.4 12.1 32.4 27-14.5 27-32.4 27z m32-198.1h-32v32h32z" /></svg>