<svg xmlns="http://www.w3.org/2000/svg" width="100%" height="100%" viewBox="0 0 599.04 599.04"><path d="M365.19 318.40999999999997a65.57 65.57 0 1 1-65.56-65.56 65.64 65.64 0 0 1 65.56 65.56z m139.55-5.05h-0.13a204.69 204.69 0 0 0-74.32-153l-45.38 26.2a157.07 157.07 0 0 1 71.81 131.84C456.71999999999997 405.02 386.25 475.52 299.63 475.52S142.51999999999998 405.02 142.51999999999998 318.4c0-81.88 63-149.27 143-156.43v39.12l108.77-62.79L285.52 75.51999999999998v38.32c-106.7 7.25-191 96-191 204.57 0 111.59 89.12 202.29 200.06 205v0.11h210.16V313.35999999999996z" /></svg>