<svg xmlns="http://www.w3.org/2000/svg" width="100%" height="100%" viewBox="0 0 599.04 599.04"><path d="M538.106 208.03599999999997c-4.697-3.883-111.723-89.95-135.251-108.657C380.751 81.71099999999998 342.957 43.51999999999998 299.52 43.51999999999998c-43.205 0-80.636 37.717-103.335 55.859-24.463 19.45-131.07 105.195-135.15 108.549A48.004 48.004 0 0 0 43.51999999999998 245.005V507.52c0 26.51 21.49 48 48 48h416c26.51 0 48-21.49 48-48V245.02899999999997a48 48 0 0 0-17.414-36.993zM507.52 501.52a6 6 0 0 1-6 6H97.51999999999998a6 6 0 0 1-6-6V247.867c0-1.813 0.816-3.526 2.226-4.665 15.87-12.814 108.793-87.554 132.364-106.293C244.27499999999998 122.39999999999998 275.918 91.51999999999998 299.52 91.51999999999998c23.693 0 55.857 31.369 73.41 45.389 23.573 18.741 116.503 93.493 132.366 106.316a5.99 5.99 0 0 1 2.224 4.663V501.52z m-31.991-187.704c4.249 5.159 3.465 12.795-1.745 16.981-28.975 23.283-59.274 47.597-70.929 56.863C380.156 405.803 342.72499999999997 443.52 299.52 443.52c-43.452 0-81.287-38.237-103.335-55.86-11.279-8.967-41.744-33.413-70.927-56.865-5.21-4.187-5.993-11.822-1.745-16.981l15.258-18.528c4.178-5.073 11.657-5.843 16.779-1.726 28.618 23.001 58.566 47.035 70.56 56.571C243.66299999999998 364.15099999999995 275.827 395.52 299.52 395.52c23.602 0 55.246-30.88 73.41-45.389 11.994-9.535 41.944-33.57 70.563-56.568 5.122-4.116 12.601-3.346 16.778 1.727l15.258 18.526z" /></svg>