<svg xmlns="http://www.w3.org/2000/svg" width="100%" height="100%" viewBox="0 0 673.92 673.92"><path d="M616.363 316.602L511.28299999999996 165.54899999999998A48 48 0 0 0 471.87899999999996 144.95999999999998H202.04099999999997a48 48 0 0 0-39.404 20.589L57.55699999999998 316.602A48.001 48.001 0 0 0 48.95999999999998 344.01399999999995V480.96c0 26.51 21.49 48 48 48h480c26.51 0 48-21.49 48-48V344.01399999999995c0-9.801-3-19.366-8.597-27.412zM202.04099999999997 192.95999999999998h269.838l77.913 112H124.12799999999999l77.913-112zM576.96 480.96H96.95999999999998V352.96h480v128z m-32-64c0 17.673-14.327 32-32 32s-32-14.327-32-32 14.327-32 32-32 32 14.327 32 32z m-96 0c0 17.673-14.327 32-32 32s-32-14.327-32-32 14.327-32 32-32 32 14.327 32 32z" /></svg>