<svg xmlns="http://www.w3.org/2000/svg" width="100%" height="100%" viewBox="0 0 599.04 599.04"><path d="M51.51999999999998 299.52c0 137 111 248 248 248s248-111 248-248S436.52 51.51999999999998 299.52 51.51999999999998 51.51999999999998 162.51999999999998 51.51999999999998 299.52z m448 0c0 110.5-89.5 200-200 200S99.51999999999998 410.02 99.51999999999998 299.52 189.01999999999998 99.51999999999998 299.52 99.51999999999998s200 89.5 200 200z m-72-20v40c0 6.6-5.4 12-12 12H299.52v67c0 10.7-12.9 16-20.5 8.5l-99-99c-4.7-4.7-4.7-12.3 0-17l99-99c7.6-7.6 20.5-2.2 20.5 8.5v67h116c6.6 0 12 5.4 12 12z" /></svg>