<svg xmlns="http://www.w3.org/2000/svg" width="100%" height="100%" viewBox="0 0 673.92 673.92"><path d="M333.006 305.76a34.114 34.114 0 1 0 34.317 34.113A34.217 34.217 0 0 0 333.006 305.76Zm-110.45 0a34.114 34.114 0 1 0 34.317 34.113A34.217 34.217 0 0 0 222.55999999999997 305.76Zm220.923 0a34.114 34.114 0 1 0 34.317 34.113A34.215 34.215 0 0 0 443.479 305.76Zm153.807-55.319c-15.535-24.172-37.31-45.57-64.681-63.618-52.886-34.817-122.374-54-195.666-54a405.975 405.975 0 0 0-72.032 6.357 238.524 238.524 0 0 0-49.51-36.588C148.64399999999998 69.25999999999998 89.81899999999999 81.67099999999998 60.09499999999998 92.38099999999997A14.291 14.291 0 0 0 54.53999999999998 115.74199999999998C75.50199999999998 137.41799999999998 110.18199999999999 180.26 101.65999999999998 219.212c-33.142 33.9-51.112 74.776-51.112 117.337 0 43.372 17.97 84.248 51.112 118.148 8.526 38.956-26.154 81.816-47.116 103.491a14.284 14.284 0 0 0 5.555 23.34c29.724 10.709 88.549 23.147 155.324-10.2a238.679 238.679 0 0 0 49.51-36.589A405.972 405.972 0 0 0 336.96 541.0999999999999c73.313 0 142.8-19.159 195.667-53.975 27.371-18.049 49.145-39.426 64.679-63.619 17.309-26.923 26.07-55.916 26.07-86.125C623.354 306.36 614.594 277.39 597.2860000000001 250.445ZM333.947 490.85999999999996a345.65 345.65 0 0 1-89.446-11.5l-20.129 19.393a184.366 184.366 0 0 1-37.138 27.585 145.767 145.767 0 0 1-52.522 14.87c0.983-1.771 1.881-3.563 2.842-5.356q30.258-55.68 16.325-100.078c-32.992-25.962-52.778-59.2-52.778-95.4 0-83.1 104.254-150.469 232.846-150.469s232.867 67.373 232.867 150.469C566.8140000000001 423.48499999999996 462.56 490.85999999999996 333.947 490.85999999999996Z" /></svg>