<svg xmlns="http://www.w3.org/2000/svg" width="100%" height="100%" viewBox="0 0 599.04 599.04"><path d="M219.51999999999998 195.51999999999998c-23.8 0-52.7 29.3-56 71.4-0.3 3.7 2 7.2 5.6 8.3 3.5 1 7.5-0.5 9.3-3.7l9.5-17c7.7-13.7 19.2-21.6 31.5-21.6s23.8 7.9 31.5 21.6l9.5 17c2.1 3.7 6.2 4.7 9.3 3.7 3.6-1.1 5.9-4.5 5.6-8.3-3.1-42.1-32-71.4-55.8-71.4zM299.52 51.51999999999998C162.51999999999998 51.51999999999998 51.51999999999998 162.51999999999998 51.51999999999998 299.52s111 248 248 248 248-111 248-248S436.52 51.51999999999998 299.52 51.51999999999998z m0 448c-110.3 0-200-89.7-200-200S189.21999999999997 99.51999999999998 299.52 99.51999999999998s200 89.7 200 200-89.7 200-200 200z m56-148c0-19.2-28.8-41.5-71.5-44-3.8-0.4-7.4 2.4-8.2 6.2-0.9 3.8 1.1 7.7 4.7 9.2l16.9 7.2c13 5.5 20.8 13.5 20.8 21.5s-7.8 16-20.7 21.5l-17 7.2c-5.7 2.4-6 12.2 0 14.8l16.9 7.2c13 5.5 20.8 13.5 20.8 21.5s-7.8 16-20.7 21.5l-17 7.2c-3.6 1.5-5.6 5.4-4.7 9.2 0.8 3.6 4.1 6.2 7.8 6.2h0.5c42.8-2.5 71.5-24.8 71.5-44 0-13-13.4-27.3-35.2-36C342.12 378.82 355.52 364.52 355.52 351.52z m24-156c-23.8 0-52.7 29.3-56 71.4-0.3 3.7 2 7.2 5.6 8.3 3.5 1 7.5-0.5 9.3-3.7l9.5-17c7.7-13.7 19.2-21.6 31.5-21.6s23.8 7.9 31.5 21.6l9.5 17c2.1 3.7 6.2 4.7 9.3 3.7 3.6-1.1 5.9-4.5 5.6-8.3-3.1-42.1-32-71.4-55.8-71.4z" /></svg>