<svg xmlns="http://www.w3.org/2000/svg" width="100%" height="100%" viewBox="0 0 599.04 599.04"><path d="M299.52 51.51999999999998C162.51999999999998 51.51999999999998 51.51999999999998 162.51999999999998 51.51999999999998 299.52s111 248 248 248 248-111 248-248S436.52 51.51999999999998 299.52 51.51999999999998z m157.4 419.5h-90l-112-131.3c-17.9-20.4-3.9-56.1 26.6-56.1h75.3l-84.6-99.3-84.3 98.9h-90L245.01999999999998 110.71999999999998c14.4-18.4 41.3-17.3 54.5 0l157.7 185.1c19 22.8 2 57.2-27.6 56.1-0.6 0-74.2 0.2-74.2 0.2l101.5 118.9z" /></svg>