<svg xmlns="http://www.w3.org/2000/svg" width="100%" height="100%" viewBox="0 0 599.04 599.04"><path d="M428.71999999999997 75.51999999999998H170.32C117.91999999999999 75.51999999999998 75.51999999999998 117.91999999999999 75.51999999999998 170.32v258.4C75.51999999999998 481.12 117.91999999999999 523.52 170.32 523.52h258.4c52.4 0 94.8-42.4 94.8-94.8V170.32c0-52.4-42.4-94.8-94.8-94.8zM220.42 244.42v56.3c0 27-21.9 48.9-48.9 48.9V195.42c0-13.2 10.7-23.9 23.9-23.9h154.2c0 27-21.9 48.9-48.9 48.9h-56.3c-12.3-0.6-24.6 11.6-24 24z m176.3 72h-56.3c-12.3-0.6-24.6 11.6-24 24v56.3c0 27-21.9 48.9-48.9 48.9V291.41999999999996c0-13.2 10.7-23.9 23.9-23.9h154.2c0 27-21.9 48.9-48.9 48.9z" /></svg>