<svg xmlns="http://www.w3.org/2000/svg" width="100%" height="100%" viewBox="0 0 599.04 599.04"><path d="M257.52 212.61999999999998c0 110.4-61 205.4-147.6 247.4C73.51999999999998 416.71999999999997 51.51999999999998 361.21999999999997 51.51999999999998 300.12 51.51999999999998 177.42 140.61999999999998 75.71999999999998 257.52 56.01999999999998v156.6zM298.52 547.52c-42.9 0-83.3-11-118.5-30.4C237.21999999999997 481.02 283.41999999999996 426.41999999999996 298.52 362.52c15.5 63.9 61.7 118.5 118.8 154.7C382.21999999999997 536.52 341.82 547.52 298.52 547.52z m190.6-87.5C402.52 418.02 341.52 323.12 341.52 212.61999999999998V56.01999999999998c116.9 19.7 206 121.4 206 244.1 0 61.1-22 116.6-58.4 159.9z" /></svg>