<svg xmlns="http://www.w3.org/2000/svg" width="100%" height="100%" viewBox="0 0 599.04 599.04"><path d="M507.52 43.51999999999998H187.51999999999998c-26.51 0-48 21.49-48 48v48H91.51999999999998c-26.51 0-48 21.49-48 48v320c0 26.51 21.49 48 48 48h320c26.51 0 48-21.49 48-48v-48h48c26.51 0 48-21.49 48-48V91.51999999999998c0-26.51-21.49-48-48-48zM405.52 507.52H97.51999999999998a6 6 0 0 1-6-6V193.51999999999998a6 6 0 0 1 6-6h42v224c0 26.51 21.49 48 48 48h224v42a6 6 0 0 1-6 6z m96-96H193.51999999999998a6 6 0 0 1-6-6V97.51999999999998a6 6 0 0 1 6-6h308a6 6 0 0 1 6 6v308a6 6 0 0 1-6 6z" /></svg>