<svg xmlns="http://www.w3.org/2000/svg" width="100%" height="100%" viewBox="0 0 599.04 599.04"><path d="M299.52 51.51999999999998C162.51999999999998 51.51999999999998 51.51999999999998 162.51999999999998 51.51999999999998 299.52s111 248 248 248 248-111 248-248S436.52 51.51999999999998 299.52 51.51999999999998z m141.4 389.4c-37.8 37.8-88 58.6-141.4 58.6s-103.6-20.8-141.4-58.6S99.51999999999998 352.91999999999996 99.51999999999998 299.52s20.8-103.6 58.6-141.4S246.11999999999998 99.51999999999998 299.52 99.51999999999998s103.6 20.8 141.4 58.6S499.52 246.11999999999998 499.52 299.52s-20.8 103.6-58.6 141.4zM395.12 239.51999999999998l33.6-40.3c8.6-10.3-3.8-24.8-15.4-18l-80 48c-7.8 4.7-7.8 15.9 0 20.6l80 48c11.5 6.8 24-7.6 15.4-18L395.12 239.51999999999998z m-209.4 58.3l80-48c7.8-4.7 7.8-15.9 0-20.6l-80-48c-11.6-6.9-24 7.7-15.4 18l33.6 40.3-33.6 40.3c-8.7 10.4 3.8 24.8 15.4 18zM413.91999999999996 331.52H185.11999999999998c-8.2 0-14.5 7-13.5 15 7.5 59.2 58.9 105 121.1 105h13.6c62.2 0 113.6-45.8 121.1-105 1-8-5.3-15-13.5-15z" /></svg>