<svg xmlns="http://www.w3.org/2000/svg" width="100%" height="100%" viewBox="0 0 599.04 599.04"><path d="M477.46099999999996 141.46099999999998l-83.882-83.882A48 48 0 0 0 359.638 43.51999999999998H155.51999999999998C129.01 43.51999999999998 107.51999999999998 65.00999999999998 107.51999999999998 91.51999999999998v416c0 26.51 21.49 48 48 48h288c26.51 0 48-21.49 48-48V175.402a48 48 0 0 0-14.059-33.941zM439.638 171.51999999999998H363.52V95.40199999999999L439.638 171.51999999999998zM155.51999999999998 507.52V91.51999999999998h160v104c0 13.255 10.745 24 24 24h104v288H155.51999999999998z m228.687-211.303L331.52 348.894V311.52c0-11.046-8.954-20-20-20H207.51999999999998c-11.046 0-20 8.954-20 20v104c0 11.046 8.954 20 20 20h104c11.046 0 20-8.954 20-20v-37.374l52.687 52.674C394.224 440.83799999999997 411.52 433.79999999999995 411.52 419.506V307.531c0-14.311-17.309-21.319-27.313-11.314z" /></svg>