<svg xmlns="http://www.w3.org/2000/svg" width="100%" height="100%" viewBox="0 0 599.04 599.04"><path d="M181.11999999999998 126.71999999999998v86.177a115.52 115.52 0 0 0-22.4-2.176c-47.914 0-83.2 35.072-83.2 92 0 45.314 48.537 57.002 78.784 75.707 12.413 7.735 23.317 16.994 33.253 25.851l0.146 0.131 0.148 0.129C205.32699999999997 419.858 211.51999999999998 427.756 211.51999999999998 434.71999999999997v2.679c-4.952 5.747-8 13.536-8 22.12v64c0 17.673 12.894 32 28.8 32h230.4c15.906 0 28.8-14.327 28.8-32v-64c0-8.584-3.048-16.373-8-22.12V434.71999999999997c0-28.688 40-67.137 40-127.2v-21.299c0-62.542-38.658-98.8-91.145-99.94-17.813-12.482-40.785-18.491-62.791-15.985A93.148 93.148 0 0 0 347.52 162.36699999999996V126.71999999999998C347.52 81.28499999999998 309.936 43.51999999999998 264.32 43.51999999999998c-45.099 0-83.2 38.101-83.2 83.2z m118.4 0v91.026c14.669-12.837 42.825-14.415 61.05 4.95 19.646-11.227 45.624-1.687 53.625 12.925 39.128-6.524 61.325 10.076 61.325 50.6V307.52c0 45.491-35.913 77.21-39.676 120H259.091c-2.964-25.239-21.222-42.966-39.596-59.075-12.65-11.275-25.3-21.725-39.875-30.799C156.23199999999997 323.16499999999996 123.51999999999998 311.514 123.51999999999998 302.71999999999997c0-23.375 8.8-44 35.2-44 35.2 0 53.075 26.4 70.4 26.4V126.71999999999998c0-18.425 16.5-35.2 35.2-35.2 18.975 0 35.2 16.225 35.2 35.2zM427.52 467.52c13.255 0 24 10.745 24 24s-10.745 24-24 24-24-10.745-24-24 10.745-24 24-24z" /></svg>