<svg xmlns="http://www.w3.org/2000/svg" width="100%" height="100%" viewBox="0 0 748.8 748.8"><path d="M374.4 262.4c-53.02 0-96 50.14-96 112 0 61.85 42.98 112 96 112 53 0 96-50.13 96-112 0-61.86-42.98-112-96-112z m40 168c0 4.42-3.58 8-8 8h-64c-4.42 0-8-3.58-8-8v-16c0-4.42 3.58-8 8-8h16v-55.44l-0.47 0.31a7.992 7.992 0 0 1-11.09-2.22l-8.88-13.31a7.992 7.992 0 0 1 2.22-11.09l15.33-10.22a23.99 23.99 0 0 1 13.31-4.03H382.4c4.42 0 8 3.58 8 8v88h16c4.42 0 8 3.58 8 8v16zM662.4 182.39999999999998H86.39999999999998C68.72999999999998 182.39999999999998 54.39999999999998 196.72999999999996 54.39999999999998 214.39999999999998v320c0 17.67 14.33 32 32 32h576c17.67 0 32-14.33 32-32V214.39999999999998c0-17.67-14.33-32-32-32z m-16 272c-35.35 0-64 28.65-64 64H166.39999999999998c0-35.35-28.65-64-64-64V294.4c35.35 0 64-28.65 64-64h416c0 35.35 28.65 64 64 64v160z" /></svg>