<svg xmlns="http://www.w3.org/2000/svg" width="100%" height="100%" viewBox="0 0 599.04 599.04"><path d="M299.52 75.51999999999998C158.11999999999998 75.51999999999998 43.51999999999998 168.61999999999998 43.51999999999998 283.52c0 47.6 19.9 91.2 52.9 126.3C81.51999999999998 449.21999999999997 50.51999999999998 482.62 50.01999999999998 483.02c-6.6 7-8.4 17.2-4.6 26S57.91999999999998 523.52 67.51999999999998 523.52c61.5 0 110-25.7 139.1-46.3C235.51999999999998 486.32 266.71999999999997 491.52 299.52 491.52c141.4 0 256-93.1 256-208S440.91999999999996 75.51999999999998 299.52 75.51999999999998z m0 368c-26.7 0-53.1-4.1-78.4-12.1l-22.7-7.2-19.5 13.8c-14.3 10.1-33.9 21.4-57.5 29 7.3-12.1 14.4-25.7 19.9-40.2l10.6-28.1-20.6-21.8C113.21999999999998 357.62 91.51999999999998 325.71999999999997 91.51999999999998 283.52c0-88.2 93.3-160 208-160s208 71.8 208 160-93.3 160-208 160z" /></svg>