<svg xmlns="http://www.w3.org/2000/svg" width="100%" height="100%" viewBox="0 0 599.04 599.04"><path d="M299.52 51.51999999999998C162.51999999999998 51.51999999999998 51.51999999999998 162.51999999999998 51.51999999999998 299.52s111 248 248 248 248-111 248-248S436.52 51.51999999999998 299.52 51.51999999999998z m0 448c-110.3 0-200-89.7-200-200S189.21999999999997 99.51999999999998 299.52 99.51999999999998s200 89.7 200 200-89.7 200-200 200z m105.6-151.4c-25.9 8.3-64.4 13.1-105.6 13.1s-79.6-4.8-105.6-13.1c-9.8-3.1-19.4 5.3-17.7 15.3 7.9 47.1 71.3 80 123.3 80s115.3-32.9 123.3-80c1.6-9.8-7.7-18.4-17.7-15.3z m-235.9-72.9c3.5 1.1 7.4-0.5 9.3-3.7l9.5-17c7.7-13.7 19.2-21.6 31.5-21.6s23.8 7.9 31.5 21.6l9.5 17c2.1 3.7 6.2 4.7 9.3 3.7 3.6-1.1 6-4.5 5.7-8.3-3.3-42.1-32.2-71.4-56-71.4s-52.7 29.3-56 71.4c-0.3 3.7 2.1 7.2 5.7 8.3z m160 0c3.5 1.1 7.4-0.5 9.3-3.7l9.5-17c7.7-13.7 19.2-21.6 31.5-21.6s23.8 7.9 31.5 21.6l9.5 17c2.1 3.7 6.2 4.7 9.3 3.7 3.6-1.1 6-4.5 5.7-8.3-3.3-42.1-32.2-71.4-56-71.4s-52.7 29.3-56 71.4c-0.3 3.7 2.1 7.2 5.7 8.3z" /></svg>