<svg xmlns="http://www.w3.org/2000/svg" width="100%" height="100%" viewBox="0 0 599.04 599.04"><path d="M507.52 75.51999999999998H91.51999999999998C65.01999999999998 75.51999999999998 43.51999999999998 97.01999999999998 43.51999999999998 123.51999999999998v352c0 26.5 21.5 48 48 48h416c26.5 0 48-21.5 48-48V123.51999999999998c0-26.5-21.5-48-48-48z m0 394c0 3.3-2.7 6-6 6H97.51999999999998c-3.3 0-6-2.7-6-6V129.51999999999998c0-3.3 2.7-6 6-6h404c3.3 0 6 2.7 6 6v340zM400.02 238.11999999999998L338.62 299.52l61.4 61.4c4.6 4.6 4.6 12.1 0 16.8l-22.3 22.3c-4.6 4.6-12.1 4.6-16.8 0L299.52 338.62l-61.4 61.4c-4.6 4.6-12.1 4.6-16.8 0l-22.3-22.3c-4.6-4.6-4.6-12.1 0-16.8l61.4-61.4-61.4-61.4c-4.6-4.6-4.6-12.1 0-16.8l22.3-22.3c4.6-4.6 12.1-4.6 16.8 0l61.4 61.4 61.4-61.4c4.6-4.6 12.1-4.6 16.8 0l22.3 22.3c4.7 4.6 4.7 12.1 0 16.8z" /></svg>