<svg xmlns="http://www.w3.org/2000/svg" width="100%" height="100%" viewBox="0 0 673.92 673.92"><path d="M299.55999999999995 292.7l5.8-4.1 5.8 4.1-2.1-6.8 5.7-4.3-7.1-0.1-2.3-6.8-2.3 6.8-7.2 0.1 5.7 4.3z m63.7 0l5.8-4.1 5.8 4.1-2.1-6.8 5.7-4.3-7.2-0.1-2.3-6.8-2.3 6.8-7.2 0.1 5.7 4.3z m-91.3 50.5h-3.4c-4.8 0-3.8 4-3.8 12.1 0 4.7-2.3 6.1-5.8 6.1s-5.8-1.4-5.8-6.1v-36.6c0-4.7 2.3-6.1 5.8-6.1s5.8 1.4 5.8 6.1c0 7.2-0.7 10.5 3.8 10.5h3.4c4.7-0.1 3.8-3.9 3.8-12.3 0-9.9-6.7-14.1-16.8-14.1h-0.2c-10.1 0-16.8 4.2-16.8 14.1V356.96c0 10.4 6.7 14.1 16.8 14.1h0.2c10.1 0 16.8-3.8 16.8-14.1 0-9.86 1.1-13.76-3.8-13.76z m-80.7 17.4h-14.7v-19.3H187.95999999999998c2.5 0 3.8-1.3 3.8-3.8v-2.1c0-2.5-1.3-3.8-3.8-3.8h-11.4v-18.3H190.95999999999998c2.5 0 3.8-1.3 3.8-3.8v-2.1c0-2.5-1.3-3.8-3.8-3.8h-21.7c-2.4-0.1-3.7 1.3-3.7 3.8v59.1c0 2.5 1.3 3.8 3.8 3.8h21.9c2.5 0 3.8-1.3 3.8-3.8v-2.1c0-2.5-1.3-3.8-3.8-3.8z m-42-18.5c4.6-2 7.3-6 7.3-12.4v-11.9c0-10.1-6.7-14.1-16.8-14.1H126.35999999999999c-2.5 0-3.8 1.3-3.8 3.8v59.1c0 2.5 1.3 3.8 3.8 3.8h3.4c2.5 0 3.8-1.3 3.8-3.8v-22.9h5.6l7.4 23.5a4.1 4.1 0 0 0 4.3 3.2h3.3c2.8 0 4-1.8 3.2-4.4z m-3.8-14c0 4.8-2.5 6.1-6.1 6.1h-5.8v-20.9h5.8c3.6 0 6.1 1.3 6.1 6.1zM224.95999999999998 306.96a3.82 3.82 0 0 0-4.2-3.4h-6.9a3.68 3.68 0 0 0-4 3.4l-11 59.2c-0.5 2.7 0.9 4.1 3.4 4.1h3a3.74 3.74 0 0 0 4.1-3.5l1.8-11.3h12.2l1.8 11.3a3.74 3.74 0 0 0 4.1 3.5h3.5c2.6 0 3.9-1.4 3.4-4.1z m-12.3 39.3l4.7-29.7 4.7 29.7z m89.3 20.2v-53.2h7.5c2.5 0 3.8-1.3 3.8-3.8v-2.1c0-2.5-1.3-3.8-3.8-3.8h-25.8c-2.5 0-3.8 1.3-3.8 3.8v2.1c0 2.5 1.3 3.8 3.8 3.8h7.3v53.2c0 2.5 1.3 3.8 3.8 3.8h3.4c2.5 0.04 3.8-1.3 3.8-3.76z m248-0.8h-19.4V338.96h16.1a1.89 1.89 0 0 0 2-2v-0.8a1.89 1.89 0 0 0-2-2h-16.1v-25.8h19.1a1.89 1.89 0 0 0 2-2v-0.8a1.77 1.77 0 0 0-2-1.9h-22.2a1.62 1.62 0 0 0-2 1.8v63a1.81 1.81 0 0 0 2 1.9H549.96a1.81 1.81 0 0 0 2-1.9v-0.8a1.84 1.84 0 0 0-2-1.96z m-93.1-62.9h-0.8c-10.1 0-15.3 4.7-15.3 14.1V356.96c0 9.3 5.2 14.1 15.3 14.1h0.8c10.1 0 15.3-4.8 15.3-14.1v-40.1c0-9.36-5.2-14.06-15.3-14.06z m10.2 52.4c-0.1 8-3 11.1-10.5 11.1s-10.5-3.1-10.5-11.1v-36.6c0-7.9 3-11.1 10.5-11.1s10.5 3.2 10.5 11.1z m-46.5-14.5c6.1-1.6 9.2-6.1 9.2-13.3v-9.7c0-9.4-5.2-14.1-15.3-14.1h-13.7a1.81 1.81 0 0 0-2 1.9v63a1.81 1.81 0 0 0 2 1.9h1.2a1.74 1.74 0 0 0 1.9-1.9v-26.9h11.6l10.4 27.2a2.32 2.32 0 0 0 2.3 1.5h1.5c1.4 0 2-1 1.5-2.3z m-6.4-3.9H403.96v-28.5h10.2c7.5 0 10.5 3.1 10.5 11.1v6.4c0 7.84-3 11.04-10.5 11.04z m85.9-33.1h-13.7a1.62 1.62 0 0 0-2 1.8v63a1.81 1.81 0 0 0 2 1.9h1.2a1.74 1.74 0 0 0 1.9-1.9v-26.1h10.6c10.1 0 15.3-4.8 15.3-14.1v-10.5c0-9.4-5.2-14.1-15.3-14.1z m10.2 22.8c0 7.9-3 11.1-10.5 11.1h-10.2v-29.2h10.2c7.5-0.1 10.5 3.1 10.5 11zM308.46 388.96l-2.3-6.8-2.3 6.8-7.1 0.1 5.7 4.3-2.1 6.8 5.8-4.1 5.8 4.1-2.1-6.8 5.7-4.3z m227.6-136.1a364.42 364.42 0 0 0-35.6-11.3c19.6-78 11.6-134.7-22.3-153.9C443.65999999999997 68.29999999999998 392.26 91.95999999999998 339.96 142.89999999999998q5.1 4.95 10.2 10.2c82.5-80 119.6-53.5 120.9-52.8 22.4 12.7 36 55.8 15.5 137.8a587.83 587.83 0 0 0-84.6-13C330.06 124.59999999999998 261.36 82.95999999999998 219.76 82.95999999999998 188.95999999999998 82.95999999999998 175.95999999999998 103.95999999999998 172.15999999999997 110.69999999999997c-18.1 32-13.3 84.2 0.1 133.8-70.5 20.3-120.7 54.1-120.3 95 0.5 59.6 103.2 87.8 122.1 92.8-20.5 81.9-10.1 135.6 22.3 153.9 28 15.8 75.1 6 138.2-55.2q-5.1-4.95-10.2-10.2c-82.5 80-119.7 53.5-120.9 52.8-22.3-12.6-36-55.6-15.5-137.9 12.4 2.9 41.8 9.5 84.6 13 71.9 100.4 140.6 142 182.1 142 30.8 0 43.8-21 47.6-27.7 18-31.9 13.3-84.1-0.1-133.8 152.3-43.8 156.2-130.2 33.9-176.3zM184.85999999999999 117.79999999999998c2.9-5.1 11.9-20.3 34.9-20.3 36.8 0 98.8 39.6 163.3 126.2a714 714 0 0 0-93.9 0.9 547.76 547.76 0 0 1 42.2-52.4Q326.26 166.95999999999998 321.15999999999997 161.95999999999998a598.25 598.25 0 0 0-50.7 64.2 569.69 569.69 0 0 0-84.4 14.6c-0.2-1.4-24.3-82.2-1.2-123z m304.8 438.3c-2.9 5.1-11.8 20.3-34.9 20.3-36.7 0-98.7-39.4-163.3-126.2a695.38 695.38 0 0 0 93.9-0.9 547.76 547.76 0 0 1-42.2 52.4q5.1 5.25 10.2 10.2a588.47 588.47 0 0 0 50.7-64.2c47.3-4.7 80.3-13.5 84.4-14.6 22.7 84.4 4.5 117 1.2 123z m9.1-138.6c-3.6-11.9-7.7-24.1-12.4-36.4a12.67 12.67 0 0 1-10.7-5.7l-0.1 0.1a19.61 19.61 0 0 1-5.4 3.6c5.7 14.3 10.6 28.4 14.7 42.2a535.3 535.3 0 0 1-72 13c3.5-5.3 17.2-26.2 32.2-54.2a24.6 24.6 0 0 1-6-3.2c-1.1 1.2-3.6 4.2-10.9 4.2-6.2 11.2-17.4 30.9-33.9 55.2a711.91 711.91 0 0 1-112.4 1c-7.9-11.2-21.5-31.1-36.8-57.8a21 21 0 0 1-3-1.5c-1.9 1.6-3.9 3.2-12.6 3.2 6.3 11.2 17.5 30.7 33.8 54.6a548.81 548.81 0 0 1-72.2-11.7q5.85-21 14.1-42.9c-3.2 0-5.4 0.2-8.4-1a17.58 17.58 0 0 1-6.9 1c-4.9 13.4-9.1 26.5-12.7 39.4C17.25999999999998 377.96 36.85999999999998 296.96 175.65999999999997 256.59999999999997c3.6 11.9 7.7 24.1 12.4 36.4 10.4 0 12.9 3.4 14.4 5.3a12 12 0 0 1 2.3-2.2c-5.8-14.7-10.9-29.2-15.2-43.3 7-1.8 32.4-8.4 72-13-15.9 24.3-26.7 43.9-32.8 55.3a14.22 14.22 0 0 1 6.4 8 23.42 23.42 0 0 1 10.2-8.4c6.5-11.7 17.9-31.9 34.8-56.9a711.72 711.72 0 0 1 112.4-1c31.5 44.6 28.9 48.1 42.5 64.5a21.42 21.42 0 0 1 10.4-7.4c-6.4-11.4-17.6-31-34.3-55.5 40.4 4.1 65 10 72.2 11.7-4 14.4-8.9 29.2-14.6 44.2a20.74 20.74 0 0 1 6.8 4.3l0.1 0.1a12.72 12.72 0 0 1 8.9-5.6c4.9-13.4 9.2-26.6 12.8-39.5a359.71 359.71 0 0 1 34.5 11c106.1 39.9 74 87.9 72.6 90.4-19.8 35.1-80.1 55.2-105.7 62.5z m-114.4-114h-1.2a1.74 1.74 0 0 0-1.9 1.9v49.8c0 7.9-2.6 11.1-10.1 11.1s-10.1-3.1-10.1-11.1v-49.8a1.69 1.69 0 0 0-1.9-1.9H357.96a1.81 1.81 0 0 0-2 1.9v51.5c0 9.6 5 14.1 15.1 14.1h0.4c10.1 0 15.1-4.6 15.1-14.1v-51.5a2 2 0 0 0-2.2-1.9zM370.65999999999997 388.96l-2.3-6.8-2.3 6.8-7.1 0.1 5.7 4.3-2.1 6.8 5.8-4.1 5.8 4.1-2.1-6.8 5.7-4.3z m-31.1 7.4l-2.3-6.8-2.3 6.8-7.1 0.1 5.7 4.3-2.1 6.8 5.8-4.1 5.8 4.1-2.1-6.8 5.7-4.3z m5.1-30.8h-19.4v-26.7h16.1a1.89 1.89 0 0 0 2-2v-0.8a1.89 1.89 0 0 0-2-2h-16.1v-25.8h19.1a1.89 1.89 0 0 0 2-2v-0.8a1.77 1.77 0 0 0-2-1.9h-22.2a1.81 1.81 0 0 0-2 1.9v63a1.81 1.81 0 0 0 2 1.9h22.5a1.77 1.77 0 0 0 2-1.9v-0.8a1.83 1.83 0 0 0-2-2.06z m-7.4-99.4L334.96 272.96l-7.1 0.1 5.7 4.3-2.1 6.8 5.8-4.1 5.8 4.1-2.1-6.8 5.7-4.3-7.1-0.1z" /></svg>