<svg xmlns="http://www.w3.org/2000/svg" width="100%" height="100%" viewBox="0 0 599.04 599.04"><path d="M483.52 50.01999999999998L67.51999999999998 289.91999999999996c-34.4 19.9-31.1 70.8 5.7 85.9L187.51999999999998 423.12V507.52c0 46.4 59.2 65.5 86.6 28.6l43.8-59.1 111.9 46.2c5.9 2.4 12.1 3.6 18.3 3.6 8.2 0 16.3-2.1 23.6-6.2 12.8-7.2 21.6-20 23.9-34.5l59.4-387.2c6.1-40.1-36.9-68.8-71.5-48.9zM235.51999999999998 507.52v-64.6l36.6 15.1L235.51999999999998 507.52z m212.6-28.7l-153.8-63.5L434.52 213.01999999999998c10.7-15.5-9.5-33.5-23.7-21.2L199.32 376.12 91.51999999999998 331.52 507.52 91.51999999999998l-59.4 387.3z" /></svg>