<svg xmlns="http://www.w3.org/2000/svg" width="100%" height="100%" viewBox="0 0 599.04 599.04"><path d="M203.51999999999998 191.51999999999998v-40c0-6.6 5.4-12 12-12h40c6.6 0 12 5.4 12 12v40c0 6.6-5.4 12-12 12h-40c-6.6 0-12-5.4-12-12z m140 12h40c6.6 0 12-5.4 12-12v-40c0-6.6-5.4-12-12-12h-40c-6.6 0-12 5.4-12 12v40c0 6.6 5.4 12 12 12z m-128 96h40c6.6 0 12-5.4 12-12v-40c0-6.6-5.4-12-12-12h-40c-6.6 0-12 5.4-12 12v40c0 6.6 5.4 12 12 12z m128 0h40c6.6 0 12-5.4 12-12v-40c0-6.6-5.4-12-12-12h-40c-6.6 0-12 5.4-12 12v40c0 6.6 5.4 12 12 12z m-76 84v-40c0-6.6-5.4-12-12-12h-40c-6.6 0-12 5.4-12 12v40c0 6.6 5.4 12 12 12h40c6.6 0 12-5.4 12-12z m76 12h40c6.6 0 12-5.4 12-12v-40c0-6.6-5.4-12-12-12h-40c-6.6 0-12 5.4-12 12v40c0 6.6 5.4 12 12 12z m180 124v36H75.51999999999998v-36c0-6.6 5.4-12 12-12h19.5V67.51999999999998c0-13.3 10.7-24 24-24h337c13.3 0 24 10.7 24 24v440H511.52c6.6 0 12 5.4 12 12zM155.01999999999998 506.52H267.52v-67c0-6.6 5.4-12 12-12h40c6.6 0 12 5.4 12 12v67h112.5V92.51999999999998L155.51999999999998 91.51999999999998l-0.5 415z" /></svg>