<svg xmlns="http://www.w3.org/2000/svg" width="100%" height="100%" viewBox="0 0 599.04 599.04"><path d="M389.12 347.52c-28.7 0-42.5 16-89.6 16-47.1 0-60.8-16-89.6-16C135.71999999999997 347.52 75.51999999999998 407.71999999999997 75.51999999999998 481.91999999999996V507.52c0 26.5 21.5 48 48 48h352c26.5 0 48-21.5 48-48v-25.6c0-74.2-60.2-134.4-134.4-134.4zM475.52 507.52H123.51999999999998v-25.6c0-47.6 38.8-86.4 86.4-86.4 14.6 0 38.3 16 89.6 16 51.7 0 74.9-16 89.6-16 47.6 0 86.4 38.8 86.4 86.4V507.52zM299.52 331.52c79.5 0 144-64.5 144-144S379.02 43.51999999999998 299.52 43.51999999999998 155.51999999999998 108.01999999999998 155.51999999999998 187.51999999999998s64.5 144 144 144z m0-240c52.9 0 96 43.1 96 96s-43.1 96-96 96-96-43.1-96-96 43.1-96 96-96z" /></svg>