<svg xmlns="http://www.w3.org/2000/svg" width="100%" height="100%" viewBox="0 0 673.92 673.92"><path d="M336.96 224.95999999999998a110.94 110.94 0 0 0-31.24 5 55.4 55.4 0 0 1 7.24 27 56 56 0 0 1-56 56 55.4 55.4 0 0 1-27-7.24A111.71 111.71 0 1 0 336.96 224.95999999999998z m284.52 97.4C567.25 216.54999999999998 459.89 144.95999999999998 336.96 144.95999999999998S106.63999999999999 216.59999999999997 52.439999999999976 322.37a32.35 32.35 0 0 0 0 29.19C106.66999999999999 457.37 214.02999999999997 528.96 336.96 528.96s230.32-71.64 284.52-177.41a32.35 32.35 0 0 0 0-29.19zM336.96 480.96c-98.65 0-189.09-55-237.93-144C147.86999999999998 247.95999999999998 238.29999999999998 192.95999999999998 336.96 192.95999999999998s189.09 55 237.93 144C526.06 425.96 435.62 480.96 336.96 480.96z" /></svg>