<svg xmlns="http://www.w3.org/2000/svg" width="100%" height="100%" viewBox="0 0 599.04 599.04"><path d="M299.52 51.51999999999998C162.51999999999998 51.51999999999998 51.51999999999998 162.51999999999998 51.51999999999998 299.52s111 248 248 248 248-111 248-248S436.52 51.51999999999998 299.52 51.51999999999998z m0 448c-110.3 0-200-89.7-200-200S189.21999999999997 99.51999999999998 299.52 99.51999999999998s200 89.7 200 200-89.7 200-200 200z m-33.8-217.9c7.8-7.8 7.8-20.5 0-28.3L247.82 235.51999999999998l17.9-17.9c7.8-7.8 7.8-20.5 0-28.3-7.8-7.8-20.5-7.8-28.3 0L219.51999999999998 207.21999999999997l-17.8-17.8c-7.8-7.8-20.5-7.8-28.3 0-7.8 7.8-7.8 20.5 0 28.3l17.9 17.9-17.9 17.9c-7.8 7.8-7.8 20.5 0 28.3 7.8 7.8 20.5 7.8 28.3 0l17.8-17.8 17.8 17.8c7.9 7.7 20.5 7.7 28.4-0.2z m160-92.2c-7.8-7.8-20.5-7.8-28.3 0L379.52 207.21999999999997l-17.8-17.8c-7.8-7.8-20.5-7.8-28.3 0-7.8 7.8-7.8 20.5 0 28.3l17.9 17.9-17.9 17.9c-7.8 7.8-7.8 20.5 0 28.3 7.8 7.8 20.5 7.8 28.3 0l17.8-17.8 17.8 17.8c7.8 7.8 20.5 7.8 28.3 0 7.8-7.8 7.8-20.5 0-28.3l-17.8-18 17.9-17.9c7.7-7.8 7.7-20.4 0-28.2zM299.52 315.52c-35.3 0-64 28.7-64 64s28.7 64 64 64 64-28.7 64-64-28.7-64-64-64z" /></svg>