<svg xmlns="http://www.w3.org/2000/svg" width="100%" height="100%" viewBox="0 0 599.04 599.04"><path d="M203.51999999999998 287.52v-40c0-6.627 5.373-12 12-12h40c6.627 0 12 5.373 12 12v40c0 6.627-5.373 12-12 12h-40c-6.627 0-12-5.373-12-12z m140 12h40c6.627 0 12-5.373 12-12v-40c0-6.627-5.373-12-12-12h-40c-6.627 0-12 5.373-12 12v40c0 6.627 5.373 12 12 12z m-76 84v-40c0-6.627-5.373-12-12-12h-40c-6.627 0-12 5.373-12 12v40c0 6.627 5.373 12 12 12h40c6.627 0 12-5.373 12-12z m76 12h40c6.627 0 12-5.373 12-12v-40c0-6.627-5.373-12-12-12h-40c-6.627 0-12 5.373-12 12v40c0 6.627 5.373 12 12 12z m180 124v36H75.51999999999998v-36c0-6.627 5.373-12 12-12h19.5V128.55499999999998C107.01999999999998 116.93799999999999 117.76499999999999 107.51999999999998 131.01999999999998 107.51999999999998H219.51999999999998V67.51999999999998c0-13.255 10.745-24 24-24h112c13.255 0 24 10.745 24 24v40h88.5c13.255 0 24 9.418 24 21.035V507.52H511.52c6.627 0 12 5.373 12 12zM155.01999999999998 506.52H267.52v-67c0-6.627 5.373-12 12-12h40c6.627 0 12 5.373 12 12v67h112.5V155.51999999999998H379.52v24c0 13.255-10.745 24-24 24H243.51999999999998c-13.255 0-24-10.745-24-24v-24H155.01999999999998v351zM341.52 107.51999999999998h-26V81.51999999999998a6 6 0 0 0-6-6h-20a6 6 0 0 0-6 6v26h-26a6 6 0 0 0-6 6v20a6 6 0 0 0 6 6h26v26a6 6 0 0 0 6 6h20a6 6 0 0 0 6-6V139.51999999999998h26a6 6 0 0 0 6-6V113.51999999999998a6 6 0 0 0-6-6z" /></svg>