<svg xmlns="http://www.w3.org/2000/svg" width="100%" height="100%" viewBox="0 0 673.92 673.92"><path d="M622.1500000000001 483.63l-139.79-320C477.39 152.25 466.56 144.95999999999998 454.64 144.95999999999998h-97.59l2.45 23.16c0.5 4.72-3.21 8.84-7.96 8.84h-29.16c-4.75 0-8.46-4.12-7.96-8.84L316.87 144.95999999999998h-97.59c-11.93 0-22.76 7.29-27.73 18.67L51.75999999999998 483.63C42.50999999999998 504.82 57.26999999999998 528.96 79.49999999999997 528.96h196.84l10.31-97.68c0.86-8.14 7.72-14.32 15.91-14.32h68.8c8.19 0 15.05 6.18 15.91 14.32L397.58 528.96h196.84c22.23 0 36.99-24.14 27.73-45.33zM309.35999999999996 216.11999999999998a8 8 0 0 1 7.96-7.16h39.29c4.09 0 7.53 3.09 7.96 7.16l4.6 43.58c0.75 7.09-4.81 13.26-11.93 13.26h-40.54c-7.13 0-12.68-6.17-11.93-13.26l4.59-43.58zM364.59999999999997 384.96h-55.29c-9.5 0-16.91-8.23-15.91-17.68l5.07-48c0.86-8.14 7.72-14.32 15.91-14.32h45.15c8.19 0 15.05 6.18 15.91 14.32l5.07 48c1 9.45-6.41 17.68-15.91 17.68z" /></svg>