<svg xmlns="http://www.w3.org/2000/svg" width="100%" height="100%" viewBox="0 0 599.04 599.04"><path d="M491.52 203.51999999999998c29.5 0 53.3-26.3 53.3-58.7 0-25-31.7-75.5-46.2-97.3-3.6-5.3-10.7-5.3-14.2 0-14.5 21.8-46.2 72.3-46.2 97.3 0 32.4 23.8 58.7 53.3 58.7zM299.52 443.52c51.9 0 115.3-32.9 123.3-80 1.7-9.9-7.7-18.5-17.7-15.3-25.9 8.3-64.4 13.1-105.6 13.1s-79.6-4.8-105.6-13.1c-9.8-3.1-19.4 5.3-17.7 15.3 8 47.1 71.4 80 123.3 80z m130.3-168.3c3.6-1.1 6-4.5 5.7-8.3-3.3-42.1-32.2-71.4-56-71.4s-52.7 29.3-56 71.4c-0.3 3.7 2.1 7.2 5.7 8.3 3.5 1.1 7.4-0.5 9.3-3.7l9.5-17c7.7-13.7 19.2-21.6 31.5-21.6s23.8 7.9 31.5 21.6l9.5 17c2.1 3.6 6.2 4.6 9.3 3.7z m105.3-52.9c-24.6 15.7-46 12.9-46.4 12.9 6.9 20.2 10.8 41.8 10.8 64.3 0 110.3-89.7 200-200 200S99.51999999999998 409.82 99.51999999999998 299.52 189.21999999999997 99.51999999999998 299.52 99.51999999999998c39.8 0 76.8 11.8 108 31.9 1.7-9.5 6.3-24.1 17.2-45.7C387.91999999999996 64.11999999999998 345.21999999999997 51.51999999999998 299.52 51.51999999999998 162.51999999999998 51.51999999999998 51.51999999999998 162.51999999999998 51.51999999999998 299.52s111 248 248 248 248-111 248-248c0-27-4.4-52.9-12.4-77.2zM219.51999999999998 232.92c12.3 0 23.8 7.9 31.5 21.6l9.5 17c2.1 3.7 6.2 4.7 9.3 3.7 3.6-1.1 6-4.5 5.7-8.3-3.3-42.1-32.2-71.4-56-71.4s-52.7 29.3-56 71.4c-0.3 3.7 2.1 7.2 5.7 8.3 3.5 1.1 7.4-0.5 9.3-3.7l9.5-17c7.7-13.8 19.2-21.6 31.5-21.6z" /></svg>