<svg xmlns="http://www.w3.org/2000/svg" width="100%" height="100%" viewBox="0 0 673.92 673.92"><path d="M576.96 112.95999999999998H96.95999999999998C70.45999999999998 112.95999999999998 48.95999999999998 134.45999999999998 48.95999999999998 160.95999999999998v352c0 26.5 21.5 48 48 48h480c26.5 0 48-21.5 48-48V160.95999999999998c0-26.5-21.5-48-48-48z m0 400H96.95999999999998V160.95999999999998h480v352zM256.96 336.96c35.3 0 64-28.7 64-64s-28.7-64-64-64-64 28.7-64 64 28.7 64 64 64z m-89.6 128h179.2c12.4 0 22.4-8.6 22.4-19.2v-19.2c0-31.8-30.1-57.6-67.2-57.6-10.8 0-18.7 8-44.8 8-26.9 0-33.4-8-44.8-8-37.1 0-67.2 25.8-67.2 57.6v19.2c0 10.6 10 19.2 22.4 19.2zM408.96 400.96h112c4.4 0 8-3.6 8-8v-16c0-4.4-3.6-8-8-8H408.96c-4.4 0-8 3.6-8 8v16c0 4.4 3.6 8 8 8z m0-64h112c4.4 0 8-3.6 8-8v-16c0-4.4-3.6-8-8-8H408.96c-4.4 0-8 3.6-8 8v16c0 4.4 3.6 8 8 8z m0-64h112c4.4 0 8-3.6 8-8v-16c0-4.4-3.6-8-8-8H408.96c-4.4 0-8 3.6-8 8v16c0 4.4 3.6 8 8 8z" /></svg>