<svg xmlns="http://www.w3.org/2000/svg" width="100%" height="100%" viewBox="0 0 599.04 599.04"><path d="M477.41999999999996 141.42L393.52 57.51999999999998C384.52 48.51999999999998 372.32 43.41999999999998 359.62 43.41999999999998H155.51999999999998C129.01999999999998 43.51999999999998 107.51999999999998 65.01999999999998 107.51999999999998 91.51999999999998v416c0 26.5 21.5 48 48 48h288c26.5 0 48-21.5 48-48V175.42c0-12.7-5.1-25-14.1-34zM439.62 171.51999999999998H363.52V95.41999999999999l76.1 76.1zM155.51999999999998 507.52V91.51999999999998h160v104c0 13.3 10.7 24 24 24h104v288H155.51999999999998z m250.2-143.7c-12.2-12-47-8.7-64.4-6.5-17.2-10.5-28.7-25-36.8-46.3 3.9-16.1 10.1-40.6 5.4-56-4.2-26.2-37.8-23.6-42.6-5.9-4.4 16.1-0.4 38.5 7 67.1-10 23.9-24.9 56-35.4 74.4-20 10.3-47 26.2-51 46.2-3.3 15.8 26 55.2 76.1-31.2 22.4-7.4 46.8-16.5 68.4-20.1 18.9 10.2 41 17 55.8 17 25.5 0 28-28.2 17.5-38.7z m-198.1 77.8c5.1-13.7 24.5-29.5 30.4-35-19 30.3-30.4 35.7-30.4 35z m81.6-190.6c7.4 0 6.7 32.1 1.8 40.8-4.4-13.9-4.3-40.8-1.8-40.8z m-24.4 136.6c9.7-16.9 18-37 24.7-54.7 8.3 15.1 18.9 27.2 30.1 35.5-20.8 4.3-38.9 13.1-54.8 19.2z m131.6-5s-5 6-37.3-7.8c35.1-2.6 40.9 5.4 37.3 7.8z" /></svg>