<svg xmlns="http://www.w3.org/2000/svg" width="100%" height="100%" viewBox="0 0 673.92 673.92"><path d="M577.26 127.45999999999998H437.46c-48.1 0-89.9 33.3-100.4 80.3-10.6-47-52.3-80.3-100.4-80.3H96.95999999999998c-26.5 0-48 21.5-48 48v245.8c0 26.5 21.5 48 48 48h89.7c102.2 0 132.7 24.4 147.3 75 0.7 2.8 5.2 2.8 6 0 14.7-50.6 45.2-75 147.3-75H576.96c26.5 0 48-21.5 48-48V175.55999999999997c0-26.4-21.3-47.9-47.7-48.1zM290.96 392.85999999999996c0 1.9-1.5 3.5-3.5 3.5H127.15999999999998c-1.9 0-3.5-1.5-3.5-3.5V369.96c0-1.9 1.5-3.5 3.5-3.5h160.4c1.9 0 3.5 1.5 3.5 3.5v22.9z m0-60.9c0 1.9-1.5 3.5-3.5 3.5H127.15999999999998c-1.9 0-3.5-1.5-3.5-3.5v-22.9c0-1.9 1.5-3.5 3.5-3.5h160.4c1.9 0 3.5 1.5 3.5 3.5V331.96z m0-60.9c0 1.9-1.5 3.5-3.5 3.5H127.15999999999998c-1.9 0-3.5-1.5-3.5-3.5v-22.9c0-1.9 1.5-3.5 3.5-3.5h160.4c1.9 0 3.5 1.5 3.5 3.5v22.9z m259.3 121.7c0 1.9-1.5 3.5-3.5 3.5H386.46c-1.9 0-3.5-1.5-3.5-3.5v-22.9c0-1.9 1.5-3.5 3.5-3.5h160.4c1.9 0 3.5 1.5 3.5 3.5v22.9z m0-60.9c0 1.9-1.5 3.5-3.5 3.5H386.46c-1.9 0-3.5-1.5-3.5-3.5V308.96c0-1.9 1.5-3.5 3.5-3.5h160.4c1.9 0 3.5 1.5 3.5 3.5v22.9z m0-60.9c0 1.9-1.5 3.5-3.5 3.5H386.46c-1.9 0-3.5-1.5-3.5-3.5v-22.8c0-1.9 1.5-3.5 3.5-3.5h160.4c1.9 0 3.5 1.5 3.5 3.5V270.96z" /></svg>