<svg xmlns="http://www.w3.org/2000/svg" width="100%" height="100%" viewBox="0 0 599.04 599.04"><path d="M299.52 51.51999999999998C162.553 51.51999999999998 51.51999999999998 162.553 51.51999999999998 299.52s111.033 248 248 248 248-111.033 248-248S436.48699999999997 51.51999999999998 299.52 51.51999999999998z m0 448c-110.532 0-200-89.451-200-200 0-110.531 89.451-200 200-200 110.532 0 200 89.451 200 200 0 110.532-89.451 200-200 200z m110.442-81.791c-53.046-96.284-50.25-91.468-53.271-96.085 24.267-13.879 39.482-41.563 39.482-73.176 0-52.503-30.247-85.252-101.498-85.252h-78.667c-6.617 0-12 5.383-12 12V423.52c0 6.617 5.383 12 12 12h38.568c6.617 0 12-5.383 12-12v-83.663h31.958l47.515 89.303a11.98 11.98 0 0 0 10.593 6.36h42.81c9.14 0 14.914-9.799 10.51-17.791zM300.453 283.426h-33.875v-64.14h27.377c32.417 0 38.929 12.133 38.929 31.709-0.001 20.913-11.518 32.431-32.431 32.431z" /></svg>