<svg xmlns="http://www.w3.org/2000/svg" width="100%" height="100%" viewBox="0 0 599.04 599.04"><path d="M548.64019 62.61374999999998c-1.18945-5.53125-6.65819-11-12.207-12.1875C504.236 43.51999999999998 479.027 43.51999999999998 453.92746999999997 43.51999999999998 350.69523 43.51999999999998 288.78909 98.72311999999998 242.57237999999998 171.51999999999998H138.35771999999997c-16.34763 0.01562-35.55658 11.875-42.88664 26.48438L46.03561999999998 296.81687999999997A28.4 28.4 0 0 0 43.51999999999998 307.52a24.00867 24.00867 0 0 0 24.00582 24H171.33617999999998l-22.47457 22.46875c-11.36521 11.36133-12.99607 32.25781 0 45.25L199.76582 450.145c11.15623 11.1875 32.15619 13.15625 45.27726 0l22.47457-22.46875V531.52a24.00867 24.00867 0 0 0 24.00581 24 28.55934 28.55934 0 0 0 10.707-2.51562l98.72834-49.39063c14.62888-7.29687 26.50776-26.5 26.50776-42.85937V356.31687999999997c72.59753-46.3125 128.03493-108.40626 128.03493-211.09376C555.5952599999999 120.01999999999998 555.5952599999999 94.81687999999998 548.64019 62.61374999999998ZM427.56032999999996 211.51999999999998A40 40 0 1 1 467.57 171.51999999999998 40.02322 40.02322 0 0 1 427.56032999999996 211.51999999999998Z" /></svg>