<svg xmlns="http://www.w3.org/2000/svg" width="100%" height="100%" viewBox="0 0 599.04 599.04"><path d="M501.91999999999996 107.81999999999998C444.12 59.219999999999985 354.82 66.51999999999998 299.52 122.81999999999998 244.21999999999997 66.51999999999998 154.92 59.11999999999998 97.11999999999998 107.81999999999998 21.91999999999998 171.11999999999998 32.91999999999998 274.32 86.51999999999998 329.02l175.4 178.7c10 10.2 23.4 15.9 37.6 15.9 14.3 0 27.6-5.6 37.6-15.8L512.52 329.12c53.5-54.7 64.7-157.9-10.6-221.3z m-23.6 187.5L302.91999999999996 474.02c-2.4 2.4-4.4 2.4-6.8 0L120.71999999999998 295.32c-36.5-37.2-43.9-107.6 7.3-150.7 38.9-32.7 98.9-27.8 136.5 10.5l35 35.7 35-35.7c37.8-38.5 97.8-43.2 136.5-10.6 51.1 43.1 43.5 113.9 7.3 150.8z" /></svg>