<svg xmlns="http://www.w3.org/2000/svg" width="100%" height="100%" viewBox="0 0 599.04 599.04"><path d="M459.52 491.52h-84c-6.6 0-12-5.4-12-12v-40c0-6.6 5.4-12 12-12h84c17.7 0 32-14.3 32-32V203.51999999999998c0-17.7-14.3-32-32-32h-84c-6.6 0-12-5.4-12-12V119.51999999999998c0-6.6 5.4-12 12-12h84c53 0 96 43 96 96v192c0 53-43 96-96 96z m-47-201L244.51999999999998 122.51999999999998c-15-15-41-4.5-41 17v96H67.51999999999998c-13.3 0-24 10.7-24 24v96c0 13.3 10.7 24 24 24h136v96c0 21.5 26 32 41 17l168-168c9.3-9.4 9.3-24.6 0-34z" /></svg>