<svg xmlns="http://www.w3.org/2000/svg" width="100%" height="100%" viewBox="0 0 673.92 673.92"><path d="M620.27 332.27l-22.62-22.62c-6.25-6.25-16.38-6.25-22.63 0L528.96 355.71l-46.06-46.06c-6.25-6.25-16.38-6.25-22.63 0l-22.62 22.62c-6.25 6.25-6.25 16.38 0 22.63L483.71 400.96l-46.06 46.06c-6.25 6.25-6.25 16.38 0 22.63l22.62 22.62c6.25 6.25 16.38 6.25 22.63 0L528.96 446.21l46.06 46.06c6.25 6.25 16.38 6.25 22.63 0l22.62-22.62c6.25-6.25 6.25-16.38 0-22.63L574.21 400.96l46.06-46.06c6.25-6.25 6.25-16.38 0-22.63zM600.96 80.95999999999998H356.60999999999996c-14.54 0-27.26 9.8-30.95 23.87l-84.79 322.8-58.41-106.1A32.008 32.008 0 0 0 154.42999999999998 304.96H72.95999999999998c-13.25 0-24 10.74-24 24v48c0 13.25 10.75 24 24 24h43.62l88.88 163.73C217.95 584.46 235.26 592.96 253.89999999999998 592.96c17.27 0 44.44-9 54.28-41.48L405.98999999999995 176.95999999999998H600.96c13.25 0 24-10.75 24-24V104.95999999999998c0-13.26-10.75-24-24-24z" /></svg>