<svg xmlns="http://www.w3.org/2000/svg" width="100%" height="100%" viewBox="0 0 673.92 673.92"><path d="M624.96 296.96v16c0 13.255-10.745 24-24 24h-8l-26.113 182.788C563.469 543.395 543.217 560.96 519.3299999999999 560.96H154.58999999999997c-23.887 0-44.139-17.565-47.518-41.212L80.95999999999998 336.96h-8c-13.255 0-24-10.745-24-24v-16c0-13.255 10.745-24 24-24h67.341l106.78-146.821c10.395-14.292 30.407-17.453 44.701-7.058 14.293 10.395 17.453 30.408 7.058 44.701L219.43699999999998 272.96h235.046L375.08 163.78099999999998c-10.395-14.292-7.234-34.306 7.059-44.701 14.291-10.395 34.306-7.235 44.701 7.058L533.6189999999999 272.96H600.96c13.255 0 24 10.745 24 24zM360.96 472.96V360.96c0-13.255-10.745-24-24-24s-24 10.745-24 24v112c0 13.255 10.745 24 24 24s24-10.745 24-24z m112 0V360.96c0-13.255-10.745-24-24-24s-24 10.745-24 24v112c0 13.255 10.745 24 24 24s24-10.745 24-24z m-224 0V360.96c0-13.255-10.745-24-24-24s-24 10.745-24 24v112c0 13.255 10.745 24 24 24s24-10.745 24-24z" /></svg>