<svg xmlns="http://www.w3.org/2000/svg" width="100%" height="100%" viewBox="0 0 599.04 599.04"><path d="M473.2 299.52l53.21-89.39C540.8199999999999 185.92 523 155.51999999999998 494.4 155.51999999999998H387.47999999999996l-55.95-93.98C324.38 49.52999999999998 311.95 43.51999999999998 299.52 43.51999999999998s-24.86 6.01-32.01 18.02L211.55999999999997 155.51999999999998H104.62999999999998c-28.6 0-46.42 30.4-32.01 54.61L125.83999999999997 299.52 72.61999999999998 388.90999999999997C58.20999999999998 413.12 76.02999999999999 443.52 104.62999999999998 443.52h106.93l55.95 93.98C274.65999999999997 549.51 287.09 555.52 299.52 555.52s24.86-6.01 32.01-18.02L387.47999999999996 443.52h106.93c28.6 0 46.42-30.4 32.01-54.61L473.2 299.52z m-12.78-88l-19.8 33.26L420.82 211.51999999999998h39.6z m-52.39 88l-52.39 88H243.39999999999998l-52.39-88 52.38-88h112.25l52.39 88zM299.52 117.23999999999998L322.30999999999995 155.51999999999998h-45.57L299.52 117.23999999999998zM138.61999999999998 211.51999999999998h39.6l-19.8 33.26L138.61999999999998 211.51999999999998z m0 176l19.8-33.26L178.21999999999997 387.52H138.61999999999998zM299.52 481.79999999999995L276.73 443.52h45.57L299.52 481.79999999999995zM420.81 387.52l19.8-33.26L460.41999999999996 387.52h-39.61z" /></svg>