<svg xmlns="http://www.w3.org/2000/svg" width="100%" height="100%" viewBox="0 0 599.04 599.04"><path d="M411.41999999999996 373.28c-4.62 5.3-9.78 10.1-15.9 13.65v22.94c66.52 9.34 112 28.05 112 49.65 0 30.93-93.12 56-208 56S91.51999999999998 490.45 91.51999999999998 459.52c0-21.6 45.48-40.3 112-49.65v-22.94c-6.12-3.55-11.28-8.35-15.9-13.65C102.38999999999999 388.85999999999996 43.51999999999998 421.57 43.51999999999998 459.52c0 53.02 114.62 96 256 96s256-42.98 256-96c0-37.95-58.87-70.66-144.1-86.24zM299.52 171.51999999999998c35.35 0 64-28.65 64-64S334.87 43.51999999999998 299.52 43.51999999999998s-64 28.65-64 64 28.65 64 64 64z m-64 192v96c0 17.67 14.33 32 32 32h64c17.67 0 32-14.33 32-32v-96c17.67 0 32-14.33 32-32v-96c0-26.51-21.49-48-48-48h-11.8c-11.07 5.03-23.26 8-36.2 8s-25.13-2.97-36.2-8H251.51999999999998c-26.51 0-48 21.49-48 48v96c0 17.67 14.33 32 32 32z" /></svg>