<svg xmlns="http://www.w3.org/2000/svg" width="100%" height="100%" viewBox="0 0 599.04 599.04"><path d="M484.16999999999996 56.08999999999998l4 82.77A247.16 247.16 0 0 0 299.35 51.51999999999998C178.24999999999997 51.51999999999998 77.42999999999998 138.44 55.80999999999998 253.33999999999997A12 12 0 0 0 67.60999999999999 267.52h49.05a12 12 0 0 0 11.67-9.26 175.91 175.91 0 0 1 317-56.94l-101.46-4.86a12 12 0 0 0-12.57 12v47.41a12 12 0 0 0 12 12H543.52a12 12 0 0 0 12-12V55.51999999999998a12 12 0 0 0-12-12h-47.37a12 12 0 0 0-11.98 12.57zM299.35 475.52a175.61 175.61 0 0 1-146-77.8l101.8 4.87a12 12 0 0 0 12.57-12v-47.4a12 12 0 0 0-12-12H55.51999999999998a12 12 0 0 0-12 12V543.52a12 12 0 0 0 12 12h47.35a12 12 0 0 0 12-12.6l-4.15-82.57A247.17 247.17 0 0 0 299.35 547.52c121.11 0 221.93-86.92 243.55-201.82a12 12 0 0 0-11.8-14.18h-49.05a12 12 0 0 0-11.67 9.26A175.86 175.86 0 0 1 299.35 475.52z" /></svg>