<svg xmlns="http://www.w3.org/2000/svg" width="100%" height="100%" viewBox="0 0 748.8 748.8"><path d="M667.1 469.09999999999997l-9.3-7.4c-6.9-5.5-17-4.4-22.5 2.5l-10 12.5c-5.5 6.9-4.4 17 2.5 22.5l9.3 7.4c5.9 4.7 9.2 11.7 9.2 19.2 0 13.6-11 24.6-24.6 24.6H102.39999999999998c-8.8 0-16 7.2-16 16v16c0 8.8 7.2 16 16 16h516c39 0 73.7-29.3 75.9-68.3 1.4-23.8-8.7-46.3-27.2-61zM86.39999999999998 342.4c0 59.6 40.9 109.2 96 123.5V518.4h64v-48h192v48h64v-48c53 0 96-43 96-96v-96c17.7 0 32-14.3 32-32s-14.3-32-32-32h-96v64c0 35.3-28.7 64-64 64h-20.7c-65.8 0-125.9-37.2-155.3-96-29.4-58.8-89.6-96-155.3-96H86.39999999999998C68.69999999999997 150.39999999999998 54.39999999999998 164.7 54.39999999999998 182.39999999999998s14.3 32 32 32v128z" /></svg>