<svg xmlns="http://www.w3.org/2000/svg" width="100%" height="100%" viewBox="0 0 599.04 599.04"><path d="M51.51999999999998 299.52c0 137 111 248 248 248s248-111 248-248S436.52 51.51999999999998 299.52 51.51999999999998 51.51999999999998 162.51999999999998 51.51999999999998 299.52z m200-48c0 17.7-14.3 32-32 32s-32-14.3-32-32 14.3-32 32-32 32 14.3 32 32z m158.5 16.5c-14.8-13.2-46.2-13.2-61 0L339.52 276.52c-8.3 7.4-21.6 0.4-19.8-10.8 4-25.2 34.2-42.1 59.9-42.1S435.52 240.51999999999998 439.52 265.71999999999997c1.7 11.1-11.4 18.3-19.8 10.8l-9.7-8.5zM209.32 369.32C231.71999999999997 396.21999999999997 264.52 411.52 299.52 411.52s67.8-15.4 90.2-42.2c13.6-16.2 38.1 4.2 24.6 20.5C385.82 423.91999999999996 344.02 443.52 299.52 443.52s-86.3-19.6-114.8-53.8c-13.5-16.3 11.2-36.7 24.6-20.4z" /></svg>