<svg xmlns="http://www.w3.org/2000/svg" width="100%" height="100%" viewBox="0 0 599.04 599.04"><path d="M251.51999999999998 395.52h-48V91.51999999999998a16 16 0 0 0-16-16H155.51999999999998a16 16 0 0 0-16 16v304H91.51999999999998c-14.19 0-21.36 17.24-11.29 27.31l80 96a16 16 0 0 0 22.62 0l80-96C272.87 412.78 265.74 395.52 251.51999999999998 395.52z m240-64H363.52a16 16 0 0 0-16 16v32a16 16 0 0 0 16 16h56l-61.26 70.45A32 32 0 0 0 347.52 489.89V507.52a16 16 0 0 0 16 16h128a16 16 0 0 0 16-16v-32a16 16 0 0 0-16-16h-56l61.26-70.45A32 32 0 0 0 507.52 365.15V347.52a16 16 0 0 0-16-16z m31.06-85.38l-59.27-160A16 16 0 0 0 448.24 75.51999999999998h-41.44a16 16 0 0 0-15.07 10.62l-59.27 160A16 16 0 0 0 347.52 267.52h24.83a16 16 0 0 0 15.23-11.08l4.42-12.92h71l4.41 12.92A16 16 0 0 0 482.68 267.52H507.52a16 16 0 0 0 15.06-21.38zM411.13 187.51999999999998L427.52 139.51999999999998l16.39 48z" /></svg>