<svg xmlns="http://www.w3.org/2000/svg" width="100%" height="100%" viewBox="0 0 599.04 599.04"><path d="M548.52 486.21999999999997L448.82 386.52c-4.5-4.5-10.6-7-17-7H415.52c27.6-35.3 44-79.7 44-128C459.52 136.61999999999998 366.41999999999996 43.51999999999998 251.51999999999998 43.51999999999998S43.51999999999998 136.61999999999998 43.51999999999998 251.51999999999998s93.1 208 208 208c48.3 0 92.7-16.4 128-44v16.3c0 6.4 2.5 12.5 7 17l99.7 99.7c9.4 9.4 24.6 9.4 33.9 0l28.3-28.3c9.4-9.4 9.4-24.6 0.1-34zM251.51999999999998 379.52c-70.7 0-128-57.2-128-128 0-70.7 57.2-128 128-128 70.7 0 128 57.2 128 128 0 70.7-57.2 128-128 128z" /></svg>