<svg xmlns="http://www.w3.org/2000/svg" width="100%" height="100%" viewBox="0 0 748.8 748.8"><path d="M678.4 486.4H134.39999999999998c-8.8 0-16 7.2-16 16v16c0 8.8 7.2 16 16 16h544c8.8 0 16-7.2 16-16v-16c0-8.8-7.2-16-16-16z m-480 96H70.39999999999998c-8.8 0-16 7.2-16 16v16c0 8.8 7.2 16 16 16h128c8.8 0 16-7.2 16-16v-16c0-8.8-7.2-16-16-16z m416 0H278.4c-8.8 0-16 7.2-16 16v16c0 8.8 7.2 16 16 16h336c8.8 0 16-7.2 16-16v-16c0-8.8-7.2-16-16-16zM198.39999999999998 406.4h156.1c22.5 19.7 51.6 32 83.9 32s61.3-12.3 83.9-32H582.4c61.9 0 112-50.1 112-112S644.3 182.39999999999998 582.4 182.39999999999998c-18 0-34.7 4.6-49.7 12.1C508.4 149.39999999999998 461.2 118.39999999999998 406.4 118.39999999999998c-41 0-77.8 17.3-104 44.8C276.2 135.7 239.39999999999998 118.39999999999998 198.39999999999998 118.39999999999998 118.89999999999998 118.39999999999998 54.39999999999998 182.89999999999998 54.39999999999998 262.4s64.5 144 144 144z" /></svg>