<svg xmlns="http://www.w3.org/2000/svg" width="100%" height="100%" viewBox="0 0 748.8 748.8"><path d="M246.39999999999998 278.4h32V150.39999999999998h-32c-35.35 0-64 28.65-64 64s28.65 64 64 64zM54.39999999999998 534.4c0 35.35 28.65 64 64 64h32V470.4H118.39999999999998c-35.35 0-64 28.65-64 64z m337.46-128c-34.91 0-76.16 13.12-104.73 32-24.79 16.38-44.52 32-104.73 32v128l57.53 15.97c26.21 7.28 53.01 13.12 80.31 15.05 32.69 2.31 65.6 0.67 97.58-6.2C527.3 599.7 566.4 547.62 566.4 502.4c0-64-84.18-96-174.54-96zM545.8199999999999 125.58999999999997C513.8399999999999 118.71999999999997 480.92999999999995 117.06999999999998 448.23999999999995 119.38999999999997c-27.3 1.93-54.1 7.77-80.31 15.04L310.4 150.39999999999998v128c60.2 0 79.94 15.62 104.73 32 28.57 18.88 69.82 32 104.73 32C610.22 342.4 694.4 310.4 694.4 246.39999999999998c0-45.22-39.1-97.3-148.58-120.81z" /></svg>