<svg xmlns="http://www.w3.org/2000/svg" width="100%" height="100%" viewBox="0 0 599.04 599.04"><path d="M251.51999999999998 395.52h-48V91.51999999999998a16 16 0 0 0-16-16H155.51999999999998a16 16 0 0 0-16 16v304H91.51999999999998c-14.19 0-21.36 17.24-11.29 27.31l80 96a16 16 0 0 0 22.62 0l80-96C272.87 412.78 265.74 395.52 251.51999999999998 395.52z m224 64h-16V347.52a16 16 0 0 0-16-16h-48a16 16 0 0 0-14.29 8.83l-16 32A16 16 0 0 0 379.52 395.52h16v64h-16a16 16 0 0 0-16 16v32a16 16 0 0 0 16 16h96a16 16 0 0 0 16-16v-32a16 16 0 0 0-16-16zM405.69 78.42999999999998a79 79 0 0 0-55 54.17c-14.27 51.05 21.19 97.77 68.83 102.53a84.07 84.07 0 0 1-20.85 12.91c-7.57 3.4-10.8 12.47-8.18 20.34l9.9 20c2.87 8.63 12.53 13.49 20.9 9.91 58-24.77 86.25-61.61 86.25-132V155.51999999999998c-0.02-51.21-48.4-91.34-101.85-77.09zM427.52 175.51999999999998a20 20 0 1 1 20-20 20 20 0 0 1-20 20z" /></svg>