<svg xmlns="http://www.w3.org/2000/svg" width="100%" height="100%" viewBox="0 0 599.04 599.04"><path d="M531.51 377.95L395.58 299.52l135.93-78.43c7.66-4.42 10.28-14.2 5.86-21.86l-32.02-55.43c-4.42-7.65-14.21-10.28-21.87-5.86l-135.93 78.43V59.51999999999998c0-8.84-7.17-16-16.01-16h-64.04c-8.84 0-16.01 7.16-16.01 16v156.86L115.55999999999997 137.95c-7.66-4.42-17.45-1.79-21.87 5.86L61.66999999999998 199.23c-4.42 7.65-1.8 17.44 5.86 21.86L203.45999999999998 299.52 67.52999999999999 377.95c-7.66 4.42-10.28 14.21-5.86 21.86l32.02 55.43c4.42 7.65 14.21 10.27 21.87 5.86l135.93-78.43V539.52c0 8.84 7.17 16 16.01 16h64.04c8.84 0 16.01-7.16 16.01-16V382.65999999999997l135.93 78.43c7.66 4.42 17.45 1.8 21.87-5.86l32.02-55.43c4.42-7.65 1.8-17.43-5.86-21.85z" /></svg>