<svg xmlns="http://www.w3.org/2000/svg" width="100%" height="100%" viewBox="0 0 599.04 599.04"><path d="M539.52 107.51999999999998H171.51999999999998V59.51999999999998c0-8.8-7.2-16-16-16H123.51999999999998c-8.8 0-16 7.2-16 16v48H59.51999999999998C50.719999999999985 107.51999999999998 43.51999999999998 114.71999999999998 43.51999999999998 123.51999999999998v32c0 8.8 7.2 16 16 16h48v368c0 8.8 7.2 16 16 16h32c8.8 0 16-7.2 16-16V171.51999999999998h368c8.8 0 16-7.2 16-16V123.51999999999998c0-8.8-7.2-16-16-16zM203.51999999999998 427.52h320V203.51999999999998H203.51999999999998v224z" /></svg>