<svg xmlns="http://www.w3.org/2000/svg" width="100%" height="100%" viewBox="0 0 599.04 599.04"><path d="M348.96954 506.10999999999996c7.39157 7.29792 6.18829 20.09661-3.00038 25.00356-77.713 41.80281-176.72559 29.9105-242.34331-35.7082C38.02375999999998 429.80226999999996 26.115999999999982 330.882 67.93380999999998 253.07399999999998c4.89125-9.095 17.68975-10.29834 25.00318-3.00043L209.74872 366.88707999999997l27.39411-27.39452c-0.68759-2.60974-1.594-5.00071-1.594-7.81361a32.00407 32.00407 0 1 1 32.00407 32.00455c-2.79723 0-5.20378-0.89075-7.79786-1.594l-27.40974 27.41015ZM555.4957999999999 346.58732a16.10336 16.10336 0 0 1-16.002 17.00242H507.38031a15.96956 15.96956 0 0 1-15.89265-15.00213C483.98670999999996 219.0692 379.97348 114.05426999999999 250.55077999999997 107.05327999999997a15.84486 15.84486 0 0 1-15.00191-15.90852V59.54651999999999A16.09389 16.09389 0 0 1 252.551 43.544249999999984C415.77491 52.13921999999998 546.9947199999999 183.361 555.4957999999999 346.58732Zm-96.01221-0.29692a16.21093 16.21093 0 0 1-16.11142 17.29934H411.16499999999996a16.06862 16.06862 0 0 1-15.89265-14.70522c-6.90712-77.01094-68.118-138.91037-144.92467-145.22376a15.94 15.94 0 0 1-14.79876-15.89289V155.65393a16.134 16.134 0 0 1 17.29908-16.096C362.97132 148.0591 451.07626999999997 236.16537999999997 459.48359 346.2904Z" /></svg>