<svg xmlns="http://www.w3.org/2000/svg" width="100%" height="100%" viewBox="0 0 599.04 599.04"><path d="M171.51999999999998 299.52A128 128 0 1 0 299.52 427.52 128 128 0 0 0 171.51999999999998 299.52Zm379-54.86L443.59 61.80999999999998a37.26 37.26 0 0 0-64.14 0L272.52 244.65999999999997C258.28 269.03999999999996 276.1 299.52 304.60999999999996 299.52H518.4300000000001C546.94 299.52 564.76 269.03999999999996 550.52 244.65999999999997ZM523.52 331.52H363.52a32 32 0 0 0-32 32V523.52a32 32 0 0 0 32 32H523.52a32 32 0 0 0 32-32V363.52A32 32 0 0 0 523.52 331.52Z" /></svg>