<svg xmlns="http://www.w3.org/2000/svg" width="100%" height="100%" viewBox="0 0 748.8 748.8"><path d="M678.4 470.4h-16V362.29999999999995c0-12.7-5.1-24.9-14.1-33.9L548.4 228.49999999999997c-9-9-21.2-14.1-33.9-14.1H470.4V166.39999999999998c0-26.5-21.5-48-48-48H166.39999999999998C139.89999999999998 118.39999999999998 118.39999999999998 139.89999999999998 118.39999999999998 166.39999999999998v48H62.39999999999998c-4.4 0-8 3.6-8 8v16c0 4.4 3.6 8 8 8h272c4.4 0 8 3.6 8 8v16c0 4.4-3.6 8-8 8H94.39999999999998c-4.4 0-8 3.6-8 8v16c0 4.4 3.6 8 8 8h208c4.4 0 8 3.6 8 8v16c0 4.4-3.6 8-8 8H62.39999999999998c-4.4 0-8 3.6-8 8v16c0 4.4 3.6 8 8 8h208c4.4 0 8 3.6 8 8v16c0 4.4-3.6 8-8 8H118.39999999999998v128c0 53 43 96 96 96s96-43 96-96h128c0 53 43 96 96 96s96-43 96-96h48c8.8 0 16-7.2 16-16v-32c0-8.8-7.2-16-16-16zM214.39999999999998 582.4c-26.5 0-48-21.5-48-48s21.5-48 48-48 48 21.5 48 48-21.5 48-48 48z m320 0c-26.5 0-48-21.5-48-48s21.5-48 48-48 48 21.5 48 48-21.5 48-48 48z m80-208H470.4V262.4h44.1l99.9 99.9V374.4z" /></svg>