<svg xmlns="http://www.w3.org/2000/svg" width="100%" height="100%" viewBox="0 0 599.04 599.04"><path d="M462.21999999999997 336.02l2.7 2.7-170-167.3c-3.5-3.5-9.7-3.7-13.8-0.5L223.82 214.51999999999998c-4.2 3.2-4.6 8.7-1.1 12.2l68.1 64.3c3.6 3.5 9.9 3.7 14 0.5l0.1-0.1c4.1-3.2 10.4-3 14 0.5l84 81.3c3.6 3.5 3.2 9-0.9 12.2l-93.2 74c-4.2 3.3-10.5 3.1-14.2-0.4L142.71999999999997 311.52c-3.5-3.5-9.7-3.7-13.9-0.5L83.01999999999998 345.91999999999996c-4.2 3.2-4.7 8.7-1.2 12.2L290.52 554.22s7.4 6.8 17.3-0.8l198-163.9c4-3.2 4.4-8.7 0.7-12.2z m54.5-83.4L306.21999999999997 46.01999999999998c-1.5-1.2-8-5.5-16.3 1.1L83.11999999999998 209.21999999999997c-4.2 3.2-4.8 8.7-1.2 12.2l42.3 41.7 171.7 165.1c3.7 3.5 10.1 3.7 14.3 0.4l50.2-38.8-0.3-0.3 7.7-6c4.2-3.2 4.6-8.7 0.9-12.2l-57.1-54.4c-3.6-3.5-10-3.7-14.2-0.5l-0.1 0.1c-4.2 3.2-10.5 3.1-14.2-0.4L188.51999999999998 224.32c-3.6-3.5-3.1-8.9 1.1-12.2l92.2-71.5c4.1-3.2 10.3-3 13.9 0.5l160.4 159c3.7 3.5 10 3.7 14.1 0.5l45.8-35.8c4.1-3.2 4.4-8.7 0.7-12.2z" /></svg>