<svg xmlns="http://www.w3.org/2000/svg" width="100%" height="100%" viewBox="0 0 599.04 599.04"><path d="M475.52 91.51999999999998c8.8 0 16-7.2 16-16V59.51999999999998c0-8.8-7.2-16-16-16H123.51999999999998C114.71999999999998 43.51999999999998 107.51999999999998 50.719999999999985 107.51999999999998 59.51999999999998v16c0 8.8 7.2 16 16 16h16v156.7C119.31999999999998 258.32 107.51999999999998 270.41999999999996 107.51999999999998 283.52c0 67.2 34.6 126.2 86.8 160.5l-21.4 70.2C166.61999999999998 534.72 182.01999999999998 555.52 203.51999999999998 555.52h192c21.5 0 36.9-20.8 30.6-41.3l-21.4-70.2C456.91999999999996 409.71999999999997 491.52 350.71999999999997 491.52 283.52c0-13.1-11.8-25.2-32-35.3V91.51999999999998h16zM187.51999999999998 115.51999999999998c0-4.4 3.6-8 8-8h48c4.4 0 8 3.6 8 8v16c0 4.4-3.6 8-8 8H195.51999999999998c-4.4 0-8-3.6-8-8V115.51999999999998z m112 200c-77.1 0-139.6-14.3-139.6-32s62.5-32 139.6-32 139.6 14.3 139.6 32-62.5 32-139.6 32z" /></svg>