<svg xmlns="http://www.w3.org/2000/svg" width="100%" height="100%" viewBox="0 0 599.04 599.04"><path d="M287.71999999999997 390.31c2.4-12.3-12-30-32.4-48.7-20.9-19.2-48.2-39.1-63.4-46.6-21.7-12-41.7-1.8-46.3 22.7-5 26.2 0 51.4 14.5 73.9 10.2 15.5 25.4 22.7 43.4 24 11.6 0.6 52.5 2.2 61.7-1 11.9-4.3 20.1-11.8 22.5-24.3z m205 20.8a5.22 5.22 0 0 0-8.3 2.4c-8 25.4-44.7 112.5-172.1 121.5-149.7 10.5 80.3 43.6 145.4-6.4 22.7-17.4 47.6-35 46.6-85.4-0.4-10.1-4.9-26.69-11.6-32.1z m62-122.4c-0.3-18.9-8.6-33.4-26-42.2-2.9-1.3-5-2.7-5.9-6.4A222.64 222.64 0 0 0 482.41999999999996 146.51999999999998c-1.1-1.5-3.5-3.2-2.2-5 8.5-11.5-0.3-18-7-24.4Q364.91999999999996 12.409999999999982 220.92 56.609999999999985c-40.1 12.3-73.9 35.6-102 67.4-4 4.3-6.7 9.1-3 14.5 3 4 1.3 6.2-1 9.3C95.11999999999998 175.51999999999998 81.71999999999998 206.10999999999999 75.61999999999998 239.51999999999998c-0.7 4.3-2.9 6-6.4 7.8-14.2 7-22.5 18.5-24.9 34L43.51999999999998 307.81v20.9c0 30.8 21 50.4 51.8 49 7.7-0.3 11.7-4.3 12-11.5 2-77.5-2.4-95.4 3.7-125.8C135.61999999999998 115.90999999999998 277.82 48.51999999999998 388.82 108.90999999999998 454.91999999999996 145.51999999999998 489.21999999999997 202.51999999999998 491.12 278.30999999999995c0.8 28.2 0 56.5 0 84.6 0 7 2.2 12.5 9.4 14.2 24.1 5 49.2-12 53.2-36.7 2.9-17.1 1-34.5 1-51.7z m-159.6 131.5c36.5 2.8 59.3-28.5 58.4-60.5-2.1-45.2-66.2-16.5-87.8-8-73.2 28.1-45 54.9-22.2 60.8z" /></svg>