<svg xmlns="http://www.w3.org/2000/svg" width="100%" height="100%" viewBox="0 0 599.04 599.04"><path d="M479.52 203.51999999999998H119.51999999999998c-6.6 0-12 5.4-12 12v56c0 6.6 5.4 12 12 12h140v228c0 6.6 5.4 12 12 12h56c6.6 0 12-5.4 12-12V283.52h140c6.6 0 12-5.4 12-12v-56c0-6.6-5.4-12-12-12z m0-128H119.51999999999998C112.91999999999999 75.51999999999998 107.51999999999998 80.91999999999999 107.51999999999998 87.51999999999998v56c0 6.6 5.4 12 12 12h360c6.6 0 12-5.4 12-12V87.51999999999998c0-6.6-5.4-12-12-12z" /></svg>