<svg xmlns="http://www.w3.org/2000/svg" width="100%" height="100%" viewBox="0 0 599.04 599.04"><path d="M363.52 427.52c0 35.346-28.654 64-64 64s-64-28.654-64-64c0-23.685 12.876-44.349 32-55.417V267.52c0-17.673 14.327-32 32-32s32 14.327 32 32v104.583c19.124 11.068 32 31.732 32 55.417z m32-84.653c19.912 22.563 32 52.194 32 84.653 0 70.696-57.303 128-128 128-0.299 0-0.609-0.001-0.909-0.003C228.30899999999997 555.029 171.16299999999998 497.156 171.522 426.853 171.68599999999998 394.655 183.74499999999998 365.275 203.51999999999998 342.86699999999996V139.51999999999998c0-53.019 42.981-96 96-96s96 42.981 96 96v203.347zM379.52 427.52c0-34.339-19.37-52.19-32-66.502V139.51999999999998c0-26.467-21.533-48-48-48S251.51999999999998 113.05299999999998 251.51999999999998 139.51999999999998v221.498c-12.732 14.428-31.825 32.1-31.999 66.08-0.224 43.876 35.563 80.116 79.423 80.42L299.52 507.52c44.112 0 80-35.888 80-80z" /></svg>