<svg xmlns="http://www.w3.org/2000/svg" width="100%" height="100%" viewBox="0 0 599.04 599.04"><path d="M299.52 51.51999999999998C162.51999999999998 51.51999999999998 51.51999999999998 162.51999999999998 51.51999999999998 299.52s111 248 248 248 248-111 248-248S436.52 51.51999999999998 299.52 51.51999999999998z m121.6 313.1c4.7 4.7 4.7 12.3 0 17L381.52 421.12c-4.7 4.7-12.3 4.7-17 0L299.52 355.52l-65.1 65.6c-4.7 4.7-12.3 4.7-17 0L177.92 381.52c-4.7-4.7-4.7-12.3 0-17l65.6-65-65.6-65.1c-4.7-4.7-4.7-12.3 0-17l39.6-39.6c4.7-4.7 12.3-4.7 17 0l65 65.7 65.1-65.6c4.7-4.7 12.3-4.7 17 0l39.6 39.6c4.7 4.7 4.7 12.3 0 17L355.52 299.52l65.6 65.1z" /></svg>