<svg xmlns="http://www.w3.org/2000/svg" width="100%" height="100%" viewBox="0 0 673.92 673.92"><path d="M352.96 112.95999999999998H64.95999999999998A16 16 0 0 0 48.95999999999998 128.95999999999998v96a16 16 0 0 0 16 16h32a16 16 0 0 0 16-16v-32h56v304H128.95999999999998a16 16 0 0 0-16 16v32a16 16 0 0 0 16 16h160a16 16 0 0 0 16-16v-32a16 16 0 0 0-16-16h-40V192.95999999999998h56v32a16 16 0 0 0 16 16h32a16 16 0 0 0 16-16V128.95999999999998a16 16 0 0 0-16-16z m256 336h-48V224.95999999999998h48c14.31 0 21.33-17.31 11.31-27.31l-80-80a16 16 0 0 0-22.62 0l-80 80C428.32 206.95999999999998 433.32 224.95999999999998 448.96 224.95999999999998h48v224h-48c-14.31 0-21.32 17.31-11.31 27.31l80 80a16 16 0 0 0 22.62 0l80-80C629.5999999999999 466.96 624.5999999999999 448.96 608.96 448.96z" /></svg>