<svg xmlns="http://www.w3.org/2000/svg" width="100%" height="100%" viewBox="0 0 599.04 599.04"><path d="M491.52 235.51999999999998h-64v-37.88c37.2-13.22 64-48.38 64-90.12h-64V75.51999999999998c0-17.67-14.33-32-32-32H203.51999999999998C185.84999999999997 43.51999999999998 171.51999999999998 57.84999999999998 171.51999999999998 75.51999999999998v32H107.51999999999998c0 41.74 26.8 76.9 64 90.12V235.51999999999998H107.51999999999998c0 41.74 26.8 76.9 64 90.12V363.52H107.51999999999998c0 42.84 28.25 78.69 66.99 91.05C186.94 512.24 238.11999999999998 555.52 299.52 555.52s112.58-43.28 125.01-100.95C463.27 442.21 491.52 406.35999999999996 491.52 363.52h-64v-37.88c37.2-13.22 64-48.38 64-90.12zM299.52 459.52c-26.51 0-48-21.49-48-48s21.49-48 48-48 48 21.49 48 48-21.49 48-48 48z m0-128c-26.51 0-48-21.49-48-48s21.49-48 48-48 48 21.49 48 48-21.49 48-48 48z m0-128c-26.51 0-48-21.49-48-48s21.49-48 48-48 48 21.49 48 48-21.49 48-48 48z" /></svg>