<svg xmlns="http://www.w3.org/2000/svg" width="100%" height="100%" viewBox="0 0 748.8 748.8"><path d="M312.381 391.371L118.03799999999998 585.7139999999999c-9.373 9.373-24.569 9.373-33.941 0L61.428999999999974 563.047c-9.357-9.357-9.375-24.522-0.04-33.901L215.41099999999997 374.4 61.38999999999998 219.65499999999997c-9.335-9.379-9.317-24.544 0.04-33.901l22.667-22.667c9.373-9.373 24.569-9.373 33.941 0L312.381 357.42999999999995c9.373 9.372 9.373 24.568 0 33.941zM694.4 574.4v-32c0-13.255-10.745-24-24-24H366.4c-13.255 0-24 10.745-24 24v32c0 13.255 10.745 24 24 24h304c13.255 0 24-10.745 24-24z" /></svg>