<svg xmlns="http://www.w3.org/2000/svg" width="100%" height="100%" viewBox="0 0 599.04 599.04"><path d="M299.52 331.52c79.5 0 144-64.5 144-144S379.02 43.51999999999998 299.52 43.51999999999998 155.51999999999998 108.01999999999998 155.51999999999998 187.51999999999998s64.5 144 144 144z m128 32h-55.1c-22.2 10.2-46.9 16-72.9 16s-50.6-5.8-72.9-16H171.51999999999998C100.81999999999998 363.52 43.51999999999998 420.82 43.51999999999998 491.52v16c0 26.5 21.5 48 48 48h416c26.5 0 48-21.5 48-48v-16c0-70.7-57.3-128-128-128z" /></svg>