<svg xmlns="http://www.w3.org/2000/svg" width="100%" height="100%" viewBox="0 0 748.8 748.8"><path d="M278.4 374.4c70.7 0 128-57.3 128-128S349.09999999999997 118.39999999999998 278.4 118.39999999999998 150.39999999999998 175.7 150.39999999999998 246.39999999999998s57.3 128 128 128z m89.6 32h-16.7c-22.2 10.2-46.9 16-72.9 16s-50.6-5.8-72.9-16h-16.7C114.59999999999998 406.4 54.39999999999998 466.59999999999997 54.39999999999998 540.8V582.4c0 26.5 21.5 48 48 48h274.9c-2.4-6.8-3.4-14-2.6-21.3l6.8-60.9 1.2-11.1 7.9-7.9 77.3-77.3c-24.5-27.7-60-45.5-99.9-45.5z m45.3 145.3l-6.8 61c-1.1 10.2 7.5 18.8 17.6 17.6l60.9-6.8 137.9-137.9-71.7-71.7-137.9 137.8zM687.4 387.29999999999995L649.5 349.4c-9.3-9.3-24.5-9.3-33.8 0l-37.8 37.8-4.1 4.1 71.8 71.7 41.8-41.8c9.3-9.4 9.3-24.5 0-33.9z" /></svg>