<svg xmlns="http://www.w3.org/2000/svg" width="100%" height="100%" viewBox="0 0 599.04 599.04"><path d="M475.52 299.52H227.51999999999998V196.42c0-39.6 31.7-72.5 71.3-72.9 40-0.4 72.7 32.1 72.7 72v16c0 13.3 10.7 24 24 24h32c13.3 0 24-10.7 24-24v-16C451.52 111.51999999999998 383.02 43.219999999999985 299.02 43.51999999999998 215.01999999999998 43.81999999999998 147.51999999999998 113.01999999999998 147.51999999999998 197.01999999999998V299.52H123.51999999999998c-26.5 0-48 21.5-48 48v160c0 26.5 21.5 48 48 48h352c26.5 0 48-21.5 48-48V347.52c0-26.5-21.5-48-48-48z" /></svg>