<svg xmlns="http://www.w3.org/2000/svg" width="100%" height="100%" viewBox="0 0 599.04 599.04"><path d="M299.52 523.52c39.5 0 76.2-11.8 106.8-32.2H192.82C223.32 511.71999999999997 260.02 523.52 299.52 523.52z m-89.1-193.1v-12.4H107.51999999999998v12.4c0 2.5 0 5 0.1 7.4h103.1c-0.2-2.4-0.3-4.9-0.3-7.4z m20.5 57H116.01999999999998c2.6 8.5 5.8 16.8 9.6 24.8h138.3c-12.9-5.7-24.1-14.2-33-24.8z m-17.7-34.7H108.81999999999998c0.9 7.6 2.2 15 3.9 22.3h109.7c-4-6.9-7.2-14.4-9.2-22.3z m-2.8-69.3H107.51999999999998v17.3h102.9z m0-173.2H107.51999999999998v4.9h102.9z m0-34.7H107.51999999999998v2.5h102.9z m0 69.3H107.51999999999998v7.4h102.9z m0 104H107.51999999999998v14.8h102.9z m0-69.3H107.51999999999998v9.9h102.9z m0 34.6H107.51999999999998V226.51999999999998h102.9z m166.2 160.9h109.7c1.8-7.3 3.1-14.7 3.9-22.3H385.82c-2.1 7.9-5.2 15.4-9.2 22.3z m12-185.7H491.52V179.51999999999998H388.62z m0 37.2H491.52v-12.4H388.62z m0-74.3H491.52v-7.4H388.62z m0-76.7v2.5H491.52V75.51999999999998z m-203 410.9h227.7c11.8-8.7 22.7-18.6 32.2-29.7H152.42c9.6 11 21.4 21 33.2 29.7z m203-371.3H491.52v-4.9H388.62z m0 148.5H491.52v-14.8H388.62zM146.32 449.21999999999997h305.3c6.7-8.5 12.6-17.6 17.8-27.2H130.51999999999998c5.2 9.6 9.2 18.7 15.8 27.2z m188.8-37.1H474.52c3.7-8 5.8-16.2 8.5-24.8h-115c-8.8 10.7-20.1 19.2-32.9 24.8z m53.5-81.7c0 2.5-0.1 5-0.4 7.4h103.1c0.1-2.5 0.2-4.9 0.2-7.4v-12.4H388.62z m0-29.7H491.52v-17.3H388.62z" /></svg>