<svg xmlns="http://www.w3.org/2000/svg" width="100%" height="100%" viewBox="0 0 748.8 748.8"><path d="M169.77999999999997 255.29999999999998l102.11 37.18c35.19-81.54 86.21-144.29 139-173.7-95.88-4.89-188.78 36.96-248.53 111.8-6.69 8.4-2.66 21.05 7.42 24.72z m132.25 48.16l238.48 86.83c35.76-121.38 18.7-231.66-42.63-253.98-7.4-2.7-15.13-4-23.09-4-58.02 0.01-128.27 69.17-172.76 171.15zM575.88 178.89999999999998c6.22 16.3 10.83 34.6 13.2 55.19 5.74 49.89-1.42 108.23-18.95 166.98l102.62 37.36c10.09 3.67 21.31-3.43 21.57-14.17 2.32-95.69-41.91-187.44-118.44-245.36zM614.4 566.38H375.46L440.4 387.9l-60.14-21.9-72.9 200.37H70.39999999999998c-8.84 0-16 7.16-16 16.01v32.01C54.39999999999998 623.23 61.559999999999974 630.4 70.39999999999998 630.4h544c8.84 0 16-7.17 16-16.01v-32.01c0-8.84-7.16-16-16-16z" /></svg>