<svg xmlns="http://www.w3.org/2000/svg" width="100%" height="100%" viewBox="0 0 599.04 599.04"><path d="M299.52 299.52c70.7 0 128-57.3 128-128S370.21999999999997 43.51999999999998 299.52 43.51999999999998 171.51999999999998 100.81999999999998 171.51999999999998 171.51999999999998s57.3 128 128 128z m89.6 32h-16.7c-22.2 10.2-46.9 16-72.9 16s-50.6-5.8-72.9-16h-16.7C135.71999999999997 331.52 75.51999999999998 391.71999999999997 75.51999999999998 465.91999999999996V507.52c0 26.5 21.5 48 48 48h352c26.5 0 48-21.5 48-48v-41.6c0-74.2-60.2-134.4-134.4-134.4z" /></svg>