<svg xmlns="http://www.w3.org/2000/svg" width="100%" height="100%" viewBox="0 0 599.04 599.04"><path d="M299.52 299.52c70.7 0 128-57.3 128-128S370.21999999999997 43.51999999999998 299.52 43.51999999999998 171.51999999999998 100.81999999999998 171.51999999999998 171.51999999999998s57.3 128 128 128z m95.8 32.6L347.52 523.52l-32-136 32-56h-96l32 56-32 136-47.8-191.4C132.42 335.52 75.51999999999998 393.82 75.51999999999998 465.91999999999996V507.52c0 26.5 21.5 48 48 48h352c26.5 0 48-21.5 48-48v-41.6c0-72.1-56.9-130.4-128.2-133.8z" /></svg>