<svg xmlns="http://www.w3.org/2000/svg" width="100%" height="100%" viewBox="0 0 748.8 748.8"><path d="M159.29999999999998 470.4c-34.1 0-46.4-30.4-46.4-30.4L56.99999999999998 328.5S46.59999999999998 310.4 67.39999999999998 310.4h32.8c10.4 0 13.2 8.7 18.8 18.1l36.7 74.5s5.2 13.1 21.1 13.1 21.1-13.1 21.1-13.1l36.7-74.5c5.6-9.5 8.4-18.1 18.8-18.1h32.8c20.8 0 10.4 18.1 10.4 18.1l-55.8 111.5S228.59999999999997 470.4 194.39999999999998 470.4h-35.1z m395 0c-34.1 0-46.4-30.4-46.4-30.4l-55.9-111.5S441.59999999999997 310.4 462.4 310.4h32.8c10.4 0 13.2 8.7 18.8 18.1l36.7 74.5s5.2 13.1 21.1 13.1 21.1-13.1 21.1-13.1l36.8-74.5c5.6-9.5 8.4-18.1 18.8-18.1H681.4c20.8 0 10.4 18.1 10.4 18.1l-55.9 111.5S623.6999999999999 470.4 589.5 470.4h-35.2zM392 310.4c34.1 0 46.4 30.4 46.4 30.4l55.9 111.5s10.4 18.1-10.4 18.1h-32.8c-10.4 0-13.2-8.7-18.8-18.1l-36.7-74.5s-5.2-13.1-21.1-13.1c-15.9 0-21.1 13.1-21.1 13.1l-36.7 74.5c-5.6 9.4-8.4 18.1-18.8 18.1h-32.9c-20.8 0-10.4-18.1-10.4-18.1l55.9-111.5s12.2-30.4 46.4-30.4h35.1z" /></svg>