<svg xmlns="http://www.w3.org/2000/svg" width="100%" height="100%" viewBox="0 0 748.8 748.8"><path d="M687.28 519.1099999999999L598.4 470.4v-64l55.16-17.69c11.79-5.9 11.79-22.72 0-28.62L534.4 310.4v-64l27.31-16.3c7.72-7.72 5.61-20.74-4.16-25.62L374.4 118.39999999999998 191.24999999999997 204.46999999999997c-9.77 4.88-11.88 17.9-4.16 25.62L214.39999999999998 246.39999999999998v64L95.23999999999998 360.09c-11.79 5.9-11.79 22.72 0 28.62L150.39999999999998 406.4v64L61.519999999999975 519.1099999999999c-5.42 3.62-7.7 9.63-7 15.29 0.62 5.01 3.57 9.75 8.72 12.33L118.39999999999998 566.4v48c0 8.84 7.16 16 16 16h32c8.84 0 16-7.16 16-16v-48h160v48c0 8.84 7.16 16 16 16h32c8.84 0 16-7.16 16-16v-48h160v48c0 8.84 7.16 16 16 16h32c8.84 0 16-7.16 16-16v-48l55.15-19.67c5.16-2.58 8.1-7.32 8.72-12.33 0.71-5.67-1.57-11.68-6.99-15.29zM278.4 246.39999999999998h192v64H278.4v-64z m-64 224v-64h320v64H214.39999999999998z" /></svg>