<svg xmlns="http://www.w3.org/2000/svg" width="100%" height="100%" viewBox="0 0 748.8 748.8"><path d="M126.39999999999998 182.39999999999998h24v240c0 44.1 35.9 80 80 80s80-35.9 80-80V182.39999999999998h24c4.4 0 8-3.6 8-8V126.39999999999998c0-4.4-3.6-8-8-8H126.39999999999998c-4.4 0-8 3.6-8 8v48c0 4.4 3.6 8 8 8z m72 0h64v96h-64V182.39999999999998z m480 384H70.39999999999998c-8.8 0-16 7.2-16 16v32c0 8.8 7.2 16 16 16h608c8.8 0 16-7.2 16-16v-32c0-8.8-7.2-16-16-16zM414.4 182.39999999999998h24v240c0 44.1 35.9 80 80 80s80-35.9 80-80V182.39999999999998h24c4.4 0 8-3.6 8-8V126.39999999999998c0-4.4-3.6-8-8-8H414.4c-4.4 0-8 3.6-8 8v48c0 4.4 3.6 8 8 8z m72 0h64v96h-64V182.39999999999998z" /></svg>