<svg xmlns="http://www.w3.org/2000/svg" width="100%" height="100%" viewBox="0 0 599.04 599.04"><path d="M555.52 171.51999999999998V75.51999999999998c0-17.67-14.33-32-32-32h-96c-17.67 0-32 14.33-32 32H203.51999999999998c0-17.67-14.33-32-32-32H75.51999999999998C57.84999999999998 43.51999999999998 43.51999999999998 57.84999999999998 43.51999999999998 75.51999999999998v96c0 17.67 14.33 32 32 32v192c-17.67 0-32 14.33-32 32v96c0 17.67 14.33 32 32 32h96c17.67 0 32-14.33 32-32h192c0 17.67 14.33 32 32 32h96c17.67 0 32-14.33 32-32v-96c0-17.67-14.33-32-32-32V203.51999999999998c17.67 0 32-14.33 32-32z m-96-64h32v32h-32V107.51999999999998zM107.51999999999998 107.51999999999998h32v32H107.51999999999998V107.51999999999998z m32 384H107.51999999999998v-32h32v32z m352 0h-32v-32h32v32z m-32-96h-32c-17.67 0-32 14.33-32 32v32H203.51999999999998v-32c0-17.67-14.33-32-32-32H139.51999999999998V203.51999999999998h32c17.67 0 32-14.33 32-32V139.51999999999998h192v32c0 17.67 14.33 32 32 32h32v192z" /></svg>