<svg xmlns="http://www.w3.org/2000/svg" width="100%" height="100%" viewBox="0 0 599.04 599.04"><path d="M512.7719999999999 283.397L459.52 203.51999999999998V75.51999999999998A32 32 0 0 0 427.52 43.51999999999998H395.52a24.021 24.021 0 0 0-13.312 4.031l-25 16.672a103.794 103.794 0 0 1-115.376 0l-25-16.672A24.021 24.021 0 0 0 203.51999999999998 43.51999999999998H171.51999999999998A32 32 0 0 0 139.51999999999998 75.51999999999998V203.51999999999998L86.26799999999999 283.397A64 64 0 0 0 75.51999999999998 318.897V523.52a32 32 0 0 0 32 32H267.52V331.52a31.987 31.987 0 0 1 1.643-10.119L282.655 280.91999999999996 225.70799999999997 110.08399999999997A151.518 151.518 0 0 0 299.52 129.75399999999996a151.55 151.55 0 0 0 73.812-19.672L299.52 331.52V555.52H491.52a32 32 0 0 0 32-32V318.897A64 64 0 0 0 512.7719999999999 283.397ZM206.832 414.832l-48 48a16 16 0 0 1-22.624-22.624l48-48a16 16 0 0 1 22.624 22.624Zm256 48a15.992 15.992 0 0 1-22.624 0l-48-48a16 16 0 0 1 22.624-22.624l48 48A15.993 15.993 0 0 1 462.832 462.832Z" /></svg>