<svg xmlns="http://www.w3.org/2000/svg" width="100%" height="100%" viewBox="0 0 748.8 748.8"><path d="M232.81399999999996 458.106H195.49999999999997L166.56599999999997 341.875h-0.478L137.628 458.106H99.59999999999998L54.39999999999998 287.346H91.94799999999998L118.97399999999998 403.577h0.478L149.10699999999997 287.346h35.157l29.178 117.667h0.479L241.89999999999998 287.346h36.831zM325.79999999999995 331.11299999999994c38.984 0 64.1 25.828 64.1 65.291 0 39.222-25.111 65.05-64.1 65.05-38.743 0-63.855-25.828-63.855-65.05C261.947 356.941 287.05899999999997 331.11299999999994 325.79999999999995 331.11299999999994z m0 104.753c23.2 0 30.133-19.852 30.133-39.462 0-19.852-6.934-39.7-30.133-39.7-27.7 0-29.894 19.85-29.894 39.7C295.908 416.01399999999995 302.84299999999996 435.866 325.79999999999995 435.866zM489.484 442.322h-0.478c-7.893 13.392-21.765 19.132-37.548 19.132-37.31 0-55.485-32.045-55.485-66.246 0-33.243 18.415-64.095 54.767-64.095 14.589 0 28.938 6.218 36.831 18.416h0.24V287.346h33.96v170.76H489.484zM459.828 356.7c-22.24 0-29.894 19.134-29.894 39.463 0 19.371 8.848 39.7 29.894 39.7 22.482 0 29.178-19.613 29.178-39.94C489.006 375.83599999999996 481.832 356.7 459.828 356.7zM647.36 458.106H615.073V440.887h-0.718c-8.609 13.87-23.436 20.567-37.786 20.567-36.113 0-45.2-20.328-45.2-50.941V334.461h33.959V404.29999999999995c0 20.329 5.979 30.372 21.765 30.372 18.415 0 26.306-10.283 26.306-35.393V334.461H647.36zM656.853 421.27599999999995H694.4v36.83H656.853z" /></svg>