<svg xmlns="http://www.w3.org/2000/svg" width="100%" height="100%" viewBox="0 0 599.04 599.04"><path d="M555.52 299.52c0 141.2-114.7 256-256 256C158.32 555.52 43.51999999999998 440.82 43.51999999999998 299.52S158.21999999999997 43.51999999999998 299.52 43.51999999999998s256 114.7 256 256z m-32 0c0-123.2-100.3-224-224-224C176.01999999999998 75.51999999999998 75.51999999999998 176.01999999999998 75.51999999999998 299.52s100.5 224 224 224 224-100.5 224-224zM204.42 168.11999999999998l86.9 37.1-37.1 86.9-86.9-37.1 37.1-86.9z m110 169.1l46.6 94h-14.6l-50-100-48.9 100h-14l51.1-106.9-22.3-9.4 6-14 68.6 29.1-6 14.3-16.5-7.1z m-11.8-116.3l68.6 29.4-29.4 68.3L273.52 289.52l29.1-68.6z m80.3 42.9l54.6 23.1-23.4 54.3-54.3-23.1 23.1-54.3z" /></svg>