<svg xmlns="http://www.w3.org/2000/svg" width="100%" height="100%" viewBox="0 0 599.04 599.04"><path d="M371.52 507.52h-40V390.33c68.47-15.89 118.05-79.91 111.4-154.16l-15.95-178.1C426.22999999999996 49.829999999999984 419.41999999999996 43.51999999999998 411.26 43.51999999999998H187.77999999999997c-8.15 0-14.97 6.31-15.7 14.55L156.11999999999998 236.17999999999998C149.46999999999997 310.43 199.04999999999998 374.45 267.52 390.34V507.52H227.51999999999998c-22.09 0-40 17.91-40 40 0 4.42 3.58 8 8 8h208c4.42 0 8-3.58 8-8 0-22.09-17.91-40-40-40z" /></svg>