<svg xmlns="http://www.w3.org/2000/svg" width="100%" height="100%" viewBox="0 0 599.04 599.04"><path d="M270.21999999999997 253.51999999999998c-1.8 3.3-25.2 44.4-70.1 123.5-4.9 8.3-10.8 12.5-17.7 12.5H117.31999999999998c-7.7 0-12.1-7.5-8.5-14.4l69-121.3c0.2 0 0.2-0.1 0-0.3l-43.9-75.6c-4.3-7.8 0.3-14.1 8.5-14.1H207.51999999999998c7.3 0 13.3 4.1 18 12.2l44.7 77.5zM490.12 89.61999999999998l-144 253v0.3L437.71999999999997 509.52c3.9 7.1 0.2 14.1-8.5 14.1h-65.2c-7.6 0-13.6-4-18-12.2l-92.4-168.5c3.3-5.8 51.5-90.8 144.8-255.2 4.6-8.1 10.4-12.2 17.5-12.2h65.7c8 0 12.3 6.7 8.5 14.1z" /></svg>