<svg xmlns="http://www.w3.org/2000/svg" width="100%" height="100%" viewBox="0 0 599.04 599.04"><path d="M299.52 51.51999999999998C162.54999999999998 51.51999999999998 51.51999999999998 162.54999999999998 51.51999999999998 299.52s111.03 248 248 248 248-111.03 248-248S436.49 51.51999999999998 299.52 51.51999999999998z m0 376c-17.67 0-32-14.33-32-32s14.33-32 32-32 32 14.33 32 32-14.33 32-32 32z m0-128c-53.02 0-96 42.98-96 96s42.98 96 96 96c-106.04 0-192-85.96-192-192S193.48 107.51999999999998 299.52 107.51999999999998c53.02 0 96 42.98 96 96s-42.98 96-96 96z m0-128c-17.67 0-32 14.33-32 32s14.33 32 32 32 32-14.33 32-32-14.33-32-32-32z" /></svg>