<svg xmlns="http://www.w3.org/2000/svg" width="100%" height="100%" viewBox="0 0 599.04 599.04"><path d="M465.29999999999995 195.68999999999997A23.06 23.06 0 0 0 444.41999999999996 155.51999999999998c-0.83 0.43-1.71 0.9-2.63 1.4-15.25 8.4-118.33 80.62-106.69 88.77s82.04-23.61 130.2-50z m0 217.17c-48.16-26.38-118.64-58.1-130.2-50s91.42 80.35 106.69 88.74c0.92 0.51 1.8 1 2.63 1.41a23.07 23.07 0 0 0 20.88-40.15zM507.72999999999996 280.52c-0.95 0-1.95-0.06-3-0.06-17.4 0-142.52 13.76-136.24 26.51s83.3 18.74 138.21 18.76a23 23 0 0 0 1-45.21zM74.51999999999998 140.17a24.88 24.88 0 0 1 46.14-18.4l81 205.06h1.21l77-203.53a23.52 23.52 0 0 1 44.45 15.27L214.71999999999997 411.96C196.17 459.18 177.6 491.52 121.42999999999998 491.52a139.67 139.67 0 0 1-23.81-1.95 21.31 21.31 0 0 1 6.9-41.77c0.66 0.06 10.91 0.66 13.86 0.66 30.47 0 43.74-18.94 58.07-59.41z" /></svg>