<svg xmlns="http://www.w3.org/2000/svg" width="100%" height="100%" viewBox="0 0 32 32"><path d="M26.2 12.832c-3.325 0-5.29 3.152-5.415 3.152s-2.078-3.152-5.43-3.152c-3.347 0-4.304 3.152-4.406 3.152-.101 0-.87-2.586-3.765-2.586-2.344 0-2.672 1.079-2.872 1.079 0 0 .176-1.157.528-3.215h5.781V9h-7.82l-1.32 7.574h2.53s.579-1.066 2.114-1.066 2.469 1.18 2.469 2.512c0 1.328-1.031 2.785-2.469 2.785-1.434 0-2.266-1.23-2.266-2.082H1.04c0 .754.606 4.277 5.086 4.277 3.652 0 4.824-2.723 4.824-3.047 0 .274 1.41 3.047 4.41 3.047 3.477 0 5.227-3.047 5.426-3.047.203 0 2.27 3.047 5.418 3.047 3.149 0 4.762-2.773 4.762-5.11-.004-2.335-1.438-5.058-4.766-5.058zm-7.095 5.105h-.003c-.02.028-1.946 2.364-3.73 2.364-1.794 0-2.126-1.785-2.126-2.363 0-.579.332-2.364 2.125-2.364 1.785 0 3.711 2.336 3.73 2.364zm9.243 0c0 .579-.332 2.368-2.125 2.368-1.782 0-3.707-2.336-3.73-2.364v-.003c.023-.028 1.948-2.364 3.73-2.364 1.793 0 2.125 1.79 2.125 2.364z"/></svg>