<svg xmlns="http://www.w3.org/2000/svg" width="100%" height="100%" viewBox="0 0 32 32"><path d="M10.613 4.002c-2.318 0-4.465 1.794-4.888 4.086L3.072 22.55c-.217 1.173.052 2.287.76 3.137C4.536 26.534 5.576 27 6.76 27h14.625c2.318 0 4.463-1.795 4.886-4.088l2.659-14.46c.213-1.178-.06-2.293-.77-3.143-.704-.843-1.743-1.307-2.924-1.307H10.613zm0 1.998h14.623c.578 0 1.072.21 1.391.592.323.386.443.919.338 1.5L24.307 22.55C24.062 23.879 22.723 25 21.385 25H6.76c-.58 0-1.073-.21-1.389-.592-.32-.385-.439-.916-.332-1.496L7.691 8.45C7.937 7.121 9.274 6 10.613 6zm.803 1.975l-.42.224-.887 1.364 3.245 4.707.966 1.396a49.401 49.401 0 00-1.547 1.646l-2.736-1.466-.74.724 2.473 2.27 1.914 2.877.843-.6-1.04-3.027c.59-.358 1.273-.805 1.966-1.277L20.896 22l1.508-.637.297-.37-4.474-5.634-.213-.343c.934-.67 1.58-1.146 1.666-1.207.373-.311.298-.982-.127-1.477-.434-.51-1.086-.678-1.45-.371 0 0-.678.64-1.593 1.527l-.23-.213-4.864-5.3z"/></svg>