<svg xmlns="http://www.w3.org/2000/svg" width="100%" height="100%" viewBox="0 0 32 32"><path d="M16.188 4C8.823 3.89 2.914 10.484 4.155 18.031 5 23.152 9.203 27.18 14.344 27.875c3.465.469 6.703-.531 9.156-2.5l-1.25-1.563c-2.047 1.641-4.738 2.489-7.656 2.094-4.254-.574-7.742-3.953-8.438-8.187C5.11 11.348 9.992 5.91 16.156 6c5.254.078 9.684 4.434 9.844 9.688.004.113 0 .222 0 .343A3.984 3.984 0 0122 20c-1.117 0-2-.883-2-2v-8h-2v.781A4.43 4.43 0 0015.5 10a4.516 4.516 0 00-4.5 4.5v3c0 2.473 2.027 4.5 4.5 4.5 1.348 0 2.547-.613 3.375-1.563C19.609 21.372 20.73 22 22 22c3.285 0 5.988-2.68 6-5.969 0-.133.004-.261 0-.406C27.809 9.289 22.523 4.094 16.187 4zm-.688 8c1.39 0 2.5 1.11 2.5 2.5v3c0 1.39-1.11 2.5-2.5 2.5S13 18.89 13 17.5v-3c0-1.39 1.11-2.5 2.5-2.5z"/></svg>