<svg xmlns="http://www.w3.org/2000/svg" width="100%" height="100%" viewBox="0 0 32 32"><path d="M7.248 3c-.188 0-.276.057-.24.27.115.67-.042.04.334 2.298 3.307 0 3.745.047 5.31.026.642-.01 1.93.179 1.967 1.123.021.579-.057.572-1.701 4.435-2.807 6.59-2.646 6.108-3.512 8.174-.088.208-.185.264-.394.264-.443-.01-.888-.014-1.326.006-.1.005-.272.09-.288.162-.077.405-.113.813-.164 1.242H13v-1.38c-.36 0-1.552.02-1.646-.147.276-.624.542-1.24.818-1.864.85.203 1.78.396 2.6.594.176.046.24.153.24.346-.005 2.178.004 4.36.01 6.539 0 .518-.288.97-.778 1.174-.339.137-.288.172-6.45.12-.275 0-.37.104-.396.347-.078.655-.15 1.313-.26 1.968-.041.254.068.29.276.29 9.557.03-1.603 0 17.584 0-.13-.762-.23-1.491-.344-2.217-.062-.392-.067-.387-.5-.387-5.206.01-6.03-.123-6.078-.133-.642-.086-1.075-.534-1.096-1.174-.005-.08-.01-3.634-.052-6.553-.005-.239.083-.324.308-.38.652-.152 1.5-.31 2.147-.493.224-.066.354-.01.437.178.235.523.46 1.045.69 1.568.083.188.004.223-.178.223-.522-.01-.788-.004-1.33-.004v1.371h5.797c-.073-.482-.141-.92-.21-1.396-.364 0-.72.02-1.064-.004-1.179-.081-.955-.225-4.382-8.053-.46-1.02-1.456-3.151-1.905-4.527-.229-.711.288-1.289.987-1.35.97-.086 1.955-.08 2.931-.101 1.075-.02 2.15-.02 3.225-.026.162 0 .21-.071.224-.218.063-.497.141-.99.21-1.483l.124-.816L7.248 3zm8.576 5.838c.391.122.412-.041.49 0 .485 1.142.944 3.051 1.409 4.203.344.848.679 1.701 1.029 2.584-.065.04-.133.075-.203.107-.683.198-1.379.381-2.057.594-.312.106-.65.106-.96 0-.695-.213-1.388-.416-2.08-.635a2.412 2.412 0 01-.304-.146l2.676-6.707z"/></svg>