<svg xmlns="http://www.w3.org/2000/svg" width="100%" height="100%" viewBox="0 0 32 32"><path d="M13.594 4.406C10.894 5.305 9 7.7 9 10.5c0 1 .29 2.008.688 2.906-1 0-1.977.281-2.876.781-2.398 1.399-3.601 4.227-3 7.126l2-.407c-.398-2 .399-4 2-5 2.102-1.199 4.977-.304 6.375 2.094.7 1.2.926 2.512.626 3.813-.301 1.199-1 2.18-2 2.78-1.602.9-3.813.618-5.313-.78l-1.313 1.5c1.301 1.199 3.024 1.78 4.625 1.78 1.102 0 2.094-.28 3.094-.78.899-.5 1.594-1.227 2.094-2.125.5.898 1.195 1.625 2.094 2.125.898.5 1.992.78 3.093.78 1.602 0 3.325-.581 4.625-1.78l-1.312-1.5c-1.5 1.398-3.71 1.68-5.313.78-1-.6-1.699-1.581-2-2.78-.3-1.301-.074-2.614.625-3.813 1.399-2.398 4.176-3.293 6.375-2.094 1.602.899 2.399 2.899 2 5l2 .407c.5-2.899-.695-5.727-3.093-7.125-.899-.5-1.907-.782-2.907-.782.5-.898.72-1.804.72-2.906 0-2.8-1.919-5.195-4.72-6.094l-.593 1.907c2 .601 3.312 2.289 3.312 4.187 0 2.5-2.199 4.5-5 4.5-2.8 0-5-2-5-4.5 0-1.898 1.281-3.586 3.281-4.188zM16 10c-1.102 0-2.102.188-3 .688.102.699.398 1.32 1 1.718.602-.3 1.305-.406 1.906-.406.602 0 1.305.105 1.906.406.602-.398 1-1.02 1-1.719-.699-.5-1.71-.687-2.812-.687zm0 6c.602 0 1 .398 1 1s-.398 1-1 1-1-.398-1-1 .398-1 1-1zm-6.031 1.313A1.883 1.883 0 009 17.5a7.167 7.167 0 003 5.188c.5-.301.805-.774.906-1.375v-.407c-1-.8-1.707-1.914-1.906-3.312-.352-.149-.695-.258-1.031-.282zm12.125.093c-.399 0-.793.082-1.094.282A5.034 5.034 0 0119 21v.406c.102.602.508 1.106.906 1.407 1.801-1.2 2.895-3.118 3.094-5.22-.3-.1-.605-.187-.906-.187z"/></svg>