<svg xmlns="http://www.w3.org/2000/svg" width="100%" height="100%" viewBox="0 0 32 32"><path d="M19.469 4a2.088 2.088 0 00-.469.031 2.012 2.012 0 00-1.469 1.094l-.5.938v.03c-.258.536-.234 1.157 0 1.688L15.97 8.844a10.922 10.922 0 00-2.875 5.094l-.719 2.843L11.125 18l.719.719-4.531 4.562-.875.125L5 24.844 7.156 27l1.438-1.438.125-.875 4.562-4.53.719.718 1.219-1.25 2.844-.719a10.922 10.922 0 005.093-2.875l1.063-1.062c.531.222 1.148.23 1.687-.031h.032l.937-.47c1.207-.6 1.484-2.265.531-3.218l-.031-.063-6.438-6.406-.187-.187A2.007 2.007 0 0019.469 4zm-.157 2c.004.004.024-.008.032 0L26 12.656c.008.008-.004.028 0 .031l-.969.47c-.008.003-.023.007-.031 0L18.844 7c-.008-.008-.004-.02 0-.031zm-1 3.313l4.375 4.374-.937.907c-.18.18-.371.336-.563.5l-4.28-4.281c.163-.192.32-.383.5-.563zm-2.53 3.218l3.687 3.688c-.61.312-1.239.582-1.907.75l-1.468.375.625-.625-1.438-1.438-.625.625.375-1.469c.168-.667.438-1.296.75-1.906z"/></svg>