<svg xmlns="http://www.w3.org/2000/svg" width="100%" height="100%" viewBox="0 0 32 32"><path d="M5 6C3.355 6 2 7.355 2 9v14c0 1.645 1.355 3 3 3h22c1.645 0 3-1.355 3-3V9c0-1.645-1.355-3-3-3H5zm0 2h22c.566 0 1 .434 1 1v14c0 .566-.434 1-1 1H5c-.566 0-1-.434-1-1V9c0-.566.434-1 1-1zm5.998 3c-.465 0-.996.265-1.34.652-.266.321-.555.831-.455 1.34.477.056.998-.243 1.297-.63.332-.355.52-.853.498-1.362zM13 13v6h.932v-2.055h1.297c1.175 0 2.005-.808 2.005-1.972 0-1.175-.82-1.973-1.984-1.973H13zm-5.162.523c-1.04 0-1.838.91-1.838 2.215C6 17.438 7.194 19 7.94 19c.45 0 .614-.303 1.212-.303.551 0 .725.303 1.194.303.89 0 1.626-1.81 1.654-1.92-.147-.074-1.003-.477-1.002-1.451 0-.946.781-1.37.818-1.389-.432-.643-1.112-.717-1.369-.717-.597 0-1.119.323-1.404.323-.294 0-.727-.323-1.205-.323zm6.094.264h1.074c.809 0 1.275.432 1.275 1.186s-.466 1.197-1.275 1.197h-1.074v-2.383zm5.498.744c-.986 0-1.719.566-1.74 1.342h.841c.067-.366.41-.61.875-.61.576 0 .889.267.889.755v.332l-1.164.078c-1.075.067-1.664.51-1.664 1.275 0 .776.599 1.297 1.463 1.297.587 0 1.132-.3 1.375-.766h.021v.721h.865v-2.992c0-.865-.697-1.432-1.761-1.432zm2.144.057l1.574 4.379-.078.265c-.144.444-.377.622-.787.622-.077 0-.22-.012-.275-.012v.72c.056.011.286.022.353.022.91 0 1.342-.354 1.72-1.396l1.628-4.6h-.943l-1.096 3.547h-.024l-1.095-3.547h-.977zm-1.28 2.392v.334h-.001c0 .565-.476.963-1.107.963-.5 0-.809-.231-.809-.597 0-.377.299-.6.887-.633l1.03-.067z"/></svg>