<svg xmlns="http://www.w3.org/2000/svg" width="100%" height="100%" viewBox="0 0 32 32"><path d="M16 4C9.371 4 4 9.371 4 16s5.371 12 12 12 12-5.371 12-12c0-.484-.035-.96-.094-1.434A2.476 2.476 0 0126.5 15a2.497 2.497 0 01-2.34-1.64A4.007 4.007 0 0122 14c-2.21 0-4-1.79-4-4 0-.734.21-1.414.559-2.008A.302.302 0 0118.5 8 2.497 2.497 0 0116 5.5c0-.559.188-1.066.496-1.48C16.332 4.012 16.168 4 16 4zm7.5 0a1.5 1.5 0 100 3 1.5 1.5 0 000-3zm-9.45 2.188a4.53 4.53 0 001.997 3.085A5.627 5.627 0 0016 10c0 3.309 2.691 6 6 6 .496 0 .992-.063 1.469-.188a4.517 4.517 0 002.484 1.157C25.465 22.03 21.188 26 16 26c-5.516 0-10-4.484-10-10 0-4.848 3.469-8.902 8.05-9.813zM22 9c-.55 0-1 .45-1 1s.45 1 1 1 1-.45 1-1-.45-1-1-1zm-8 1c-.55 0-1 .45-1 1s.45 1 1 1 1-.45 1-1-.45-1-1-1zm13 0c-.55 0-1 .45-1 1s.45 1 1 1 1-.45 1-1-.45-1-1-1zm-16 3a1.999 1.999 0 100 4 1.999 1.999 0 100-4zm5 2c-.55 0-1 .45-1 1s.45 1 1 1 1-.45 1-1-.45-1-1-1zm-3.5 4a1.5 1.5 0 100 3 1.5 1.5 0 000-3zm7 1a1.5 1.5 0 100 3 1.5 1.5 0 000-3z"/></svg>