<svg xmlns="http://www.w3.org/2000/svg" width="100%" height="100%" viewBox="0 0 32 32"><path d="M21 4c-1.793 0-3.418.336-4.688.969C15.043 5.602 14 6.633 14 8v4c0 .129.043.254.063.375A12.18 12.18 0 0011 12c-1.793 0-3.418.336-4.688.969C5.043 13.602 4 14.633 4 16v8c0 1.367 1.043 2.398 2.313 3.031C7.582 27.664 9.207 28 11 28c1.793 0 3.418-.336 4.688-.969C16.956 26.398 18 25.367 18 24v-.406A11.72 11.72 0 0021 24c1.793 0 3.418-.336 4.688-.969C26.956 22.398 28 21.367 28 20V8c0-1.367-1.043-2.398-2.313-3.031C24.419 4.336 22.794 4 21 4zm0 2c1.523 0 2.879.328 3.781.781C25.684 7.234 26 7.711 26 8c0 .29-.316.766-1.219 1.219C23.88 9.672 22.523 10 21 10c-1.523 0-2.879-.328-3.781-.781C16.316 8.766 16 8.289 16 8c0-.29.316-.766 1.219-1.219C18.12 6.328 19.477 6 21 6zm-5 4.844c.105.058.203.133.313.187 1.269.633 2.894.969 4.687.969 1.793 0 3.418-.336 4.688-.969.109-.054.207-.129.312-.187V12c0 .29-.316.766-1.219 1.219-.902.453-2.258.781-3.781.781-1.523 0-2.879-.328-3.781-.781C16.316 12.766 16 12.289 16 12zM11 14c1.523 0 2.879.328 3.781.781.903.453 1.219.93 1.219 1.219 0 .29-.316.766-1.219 1.219-.902.453-2.258.781-3.781.781-1.523 0-2.879-.328-3.781-.781C6.316 16.766 6 16.289 6 16c0-.29.316-.766 1.219-1.219C8.12 14.328 9.477 14 11 14zm15 .844V16c0 .29-.316.766-1.219 1.219-.902.453-2.258.781-3.781.781a9.5 9.5 0 01-3-.469V16c0-.129-.043-.254-.063-.375.93.242 1.961.375 3.063.375 1.793 0 3.418-.336 4.688-.969.109-.054.207-.129.312-.187zm-20 4c.105.058.203.133.313.187C7.582 19.664 9.207 20 11 20c1.793 0 3.418-.336 4.688-.969.109-.054.207-.129.312-.187V20c0 .29-.316.766-1.219 1.219-.902.453-2.258.781-3.781.781-1.523 0-2.879-.328-3.781-.781C6.316 20.766 6 20.289 6 20zm20 0V20c0 .29-.316.766-1.219 1.219-.902.453-2.258.781-3.781.781-1.137 0-2.164-.16-3-.438v-1.937c.918.242 1.918.375 3 .375 1.793 0 3.418-.336 4.688-.969.109-.054.207-.129.312-.187zm-20 4c.105.058.203.133.313.187C7.582 23.664 9.207 24 11 24c1.793 0 3.418-.336 4.688-.969.109-.054.207-.129.312-.187V24c0 .29-.316.766-1.219 1.219-.902.453-2.258.781-3.781.781-1.523 0-2.879-.328-3.781-.781C6.316 24.766 6 24.289 6 24z"/></svg>