<svg xmlns="http://www.w3.org/2000/svg" width="100%" height="100%" viewBox="0 0 32 32"><path d="M16.014 3.363c-.537.296-9.72 5.535-10.868 6.182a.244.244 0 00-.144.242c.002 1.341.002 12.451.002 12.494a.163.163 0 00.092.16c.007.004 6.865 3.944 10.781 6.198h.148c.546-.311 9.752-5.559 10.807-6.15a.289.289 0 00.166-.286c-.004-4.12-.004-8.24 0-12.36 0-.152-.034-.265-.182-.323-.027-.011-10.704-6.15-10.716-6.157h-.086zm.341.91l9.676 5.557a1428.9 1428.9 0 01-5.084 1.914c-.036.013-.049.031-.033.07.037.091.073.184.104.278.017.053.04.064.093.043.122-.048 5.136-1.934 5.221-1.96v11.376c-.003-.003-3.457-5.993-3.818-6.617-.053-.091-.056-.092-.155-.073-.35.07-.218.038-.33.07 1.333 2.313 2.67 4.63 4.01 6.952h-9.217c-.06 0-.094-.005-.092-.08l-.043-1.324c.002-.056-.02-.074-.074-.067a3.553 3.553 0 01-1.164.016c-.054-.01-.068.013-.068.062v.545c0 .036-.007.063-.05.057-.849-.124-.678.009-2.038-1.631-.134-.158-.253-.326-.38-.486a.072.072 0 010-.11c.418-.506.782-.89.74-1.61a1.203 1.203 0 00-.62-1.007c-.492-.293-1.103-.238-2.765-.238-.186 0-.23.189-.088.238.057.019.172.015.232.027.248.048.266.134.266.668.004 3.476.009 3.246-.055 3.92-.025.26-.166.181-.328.219a.123.123 0 00-.1.088c-.017.064.02.13.084.146.102.03 1.584.025 1.662.006.166-.042.13-.23-.025-.244-.371-.03-.453-.02-.479-.236-.041-.365-.034-.318-.048-1.612-.001-.09.002-.09.088-.09.657 0 .713-.034.826.118.357.483.716.964 1.08 1.441.357.468.687.624 1.055.627 1.022.01.906-.017.906.049v.438c-.001.07-.013.082-.084.082H6.055c-.092 0-.103.012-.063-.057 1.534-2.663 1.297-2.253 3.33-5.774.034-.059.03-.066-.039-.07-.302-.02-.369-.063-.449.076-.003.004-3.123 5.409-3.166 5.479V10.174c.13.036 1.317.494 1.322.494.115.043.147.042.528-.254L5.994 9.84c-.002-.006-.006-.012-.006-.018l9.584-5.459.012.008-.004.002c-1.413 2.444-2.83 4.896-4.254 7.356.167 0 .312.004.457-.004.09-.006 3.766-6.499 4.215-7.223.42.714 4 6.935 4.049 7.018.066.115.11.149.582.193l.014-.016-4.288-7.424zm-.427 3.356a.78.78 0 00-.71.8c.008.313.162.542.438.686.054.023.087.08.08.139-.02.344-.014.102-.049 1.459-.002.087-.004.09-.09.09-1.506-.011-1.561.008-1.837-.096-.098-.037-.15-.01-.17.094-.056.297-.11.592-.162.888-.01.054.074.294.193-.011.171-.438.39-.394 1.986-.42.036 0 .069.003.067.056-.035.703-.179 5.713-.184 5.99a.12.12 0 01-.097.132c-.574.183-1.213.845-.983 1.796.29 1.201 1.55 1.155 1.686 1.149 1.453-.067 1.66-1.252 1.59-1.834a1.223 1.223 0 00-.614-.953 3.983 3.983 0 00-.43-.2c-.033-.015-.06-.032-.06-.076l-.184-6.027c0-.035.014-.047.05-.047 2.237.115 1.684.116 1.93.594.036.069.085.076.13.008s.04-1.003.04-1.008c-.002-.085-.043-.11-.126-.096-.09.021-.182.034-.274.041l.002.004c-.567.014-1.696.02-1.7.02-.04 0-.061-.011-.061-.055-.054-1.696-.05-1.455-.05-1.484a.213.213 0 01.11-.213c.407-.26.46-.839.121-1.194a.76.76 0 00-.642-.232zm.072.414c.496.001.473.74-.004.734-.477-.006-.481-.732.004-.732v-.002zm-6.998 2.219c-.212.011-.437.04-.682.095-1.472.334-2.12 1.694-1.984 2.971.328 3.166 4.531 2.53 4.607 2.076.001-.01.08-.409.17-.945a.145.145 0 00.002-.05.134.134 0 00-.15-.116c-.288.013.118.91-1.227 1.01-1.83.135-2.685-1.331-2.67-2.512.038-2.868 3.53-2.36 3.686-1.254.019.14-.005.443.195.36a.13.13 0 00.08-.116c.004-.04.053-.895.063-1.142.006-.137-.044-.183-.18-.198-.733-.083-1.273-.213-1.91-.18zm13.314 1.55a.09.09 0 00-.058.038c-.067.07-.013-.026-.91 2.054-.065.153-.13.302-.203.45a.307.307 0 01-.291.17c-.116.002-.107.158.037.158h1.3c.191 0 .115-.156-.033-.184-.214-.042-.664.052-.601-.107.07-.183.144-.364.222-.543a.11.11 0 01.08-.051c.24-.013.481-.016.721-.004a.096.096 0 01.1.07c.066.168.132.338.203.504.092.215-.108.246.017.276a.91.91 0 00.18.037c.143.004-.534-.008 2.504.013.27.002.202-.157.262-.51l-.004-.001c.02-.115-.104-.276-.186.01-.053.19-.135.188-.789.167a.153.153 0 01-.16-.12c-.023-.115-.017-1.954-.014-2.034v-.02a.126.126 0 01.131-.12c.323-.035.176-.17.06-.17-1.114-.005-1.06-.003-1.07.007-.122.12-.009.15.004.15.158.027.274-.008.274.212 0 2.094.002 1.945-.002 2.037-.007.157-.027.217-.205.21-.031 0-.216.034-.315-.099-.258-.356-1.02-2.397-1.166-2.562a.088.088 0 00-.021-.022.087.087 0 00-.067-.015zm-2.492.032c-.42-.003-.912.084-1.258.431-.486.487-.697 1.687.34 2.239.656.349 1.535.176 1.614.166.324-.042.294-.624.294-.63-.043-.144-.093-.118-.154-.054-.05.053-.048.284-.34.375-.339.106-1.135.081-1.425-.68-.28-.729.044-1.874 1.341-1.492.223.066.354.214.373.451.01.118.133.124.166.014.01-.034.012-.216.028-.478.009-.143-.026-.2-.147-.23h-.002c-.06-.016-.409-.109-.83-.112zm-4.773.056l-.942.004c-.163.054-.161.15.034.166.142.012.16.057.16.336-.01 2.236-.009 1.835-.024 2.004a.109.109 0 01-.11.106c-.183.018-.356-.02-.487-.157-.512-.536-.807-.913-.854-.97.106-.114.206-.221.305-.332.434-.494.04-1.065-.393-1.118-.366-.045-.898-.04-1.482-.035-.1.001-.291.13.055.166.137.014.164.075.164.244-.001.103-.014.71-.01 1.98.002.349-.172.119-.29.304a.126.126 0 00.132.088h.96c.187-.003.187-.18-.044-.174-.197.006-.155-.058-.198-.871-.005-.098.326-.09.405.017.53.722.668 1.028 1.195 1.028.512-.003 1.023.002 1.535-.002.191-.002.123-.168 0-.168-.239.004-.247-.067-.252-.108-.017-.128-.032.056-.02-2.113.004-.18.02-.216.198-.229.004 0 .012.002.012 0 .173-.14-.033-.166-.05-.166zm1.826.004c-.087.002-.147.094-.02.155.072.034.233-.042.233.209-.008 2.327.054 2.248-.168 2.248-.167 0-.19.166 0 .166.39.003.746.004 1.066.004.128-.001.133-.165.004-.17-.155-.006-.294.025-.297-.176h-.002c-.037-2.082.002-2.152.002-2.162.014-.136.156-.097.205-.123.113-.06.07-.11.022-.14-.048-.03-.981-.01-1.045-.01zm-4.736.28c.179-.038.549.037.611.453.018.116.07.729-.602.66-.087-.01-.105-.038-.105-.127-.003-.242 0-.696-.002-.918 0-.03.038-.056.098-.068zm10.084.52l.3.78h-.609l.309-.78zM11.74 16.376c.185.004.382.038.432.053.747.218.911 1.204.615 1.918-.229.546-.696.417-1.266.359-.118-.01-.134-.028-.134-.146 0-1.482 0-1.66-.002-2.055-.002-.106.17-.133.355-.129zm10.742.785c-.448.051-.063.023-1.836.031-.188.001-.18.168.03.168l.004.004c.19 0 .311-.242.191 2.533-.008.153-.149.118-.203.127-.12.022-.146.145-.012.17.033.006-.095.012 1.739.016.222 0 .228-.101.228-.12.019-.158.04-.318.063-.476.016-.116-.118-.144-.159-.027-.1.282.01.305-.81.281-.23-.007-.192-.198-.192-.803 0-.422-.124-.339.637-.295.183.011.126.163.184.262.034.06.1.049.127-.015.02-.051.056-.553.056-.563.011-.175-.127-.096-.15-.088-.266.092-.621.064-.775.076-.08.006-.08.007-.08-.074v-.795c0-.075.002-.079.08-.076.666.031.754-.01.773.252.01.136.156.115.168.008.017-.167.036-.335.049-.502.006-.081-.029-.103-.112-.094zm-3.224.03c-.253-.002-1.069 0-1.14.001-.117 0-.14.14-.018.159.142.022.268-.003.28.183.012.156.032 1.577-.017 2.36-.009.158-.155.114-.254.138-.08.02-.073.155.022.166l1.885.01c.059 0 .272.06.255-.611 0-.012-.044-.164-.134-.053-.19.232.156.372-.93.312-.113-.006-.165-.066-.17-.18-.029-.611-.02-1.947-.02-2.046 0-.291.12-.254.249-.27.173-.02.154-.17-.008-.17zm-3.787.484c.014.099-.051 1.846-.055 1.945-.018.413 1.261.62 1.244.129 0-.023-.053-1.827-.053-1.932v-.002l.018-.005c.606.47.51 1.542.268 1.925a.885.885 0 01-1.106.35c-1.03-.424-1.012-2.043-.316-2.41zm1.347 4.635c9.517.004 8.954-.008 8.961.013-.76.441-8.905 5.072-9.744 5.555a.145.145 0 01-.162 0h-.004c-.872-.503-9.547-5.487-9.674-5.567h9.032c.099 0 .1.002.1.098a84.53 84.53 0 01-.075 2.37c-.009.182.024.365.098.532.212.508.414 1.022.62 1.532.05.113.064.089.1.004.685-1.616.64-1.502.666-1.592.04-.124.062-.252.067-.381.002-.29-.06-2.481-.06-2.486-.003-.06.015-.078.075-.078z"/></svg>