<svg xmlns="http://www.w3.org/2000/svg" width="100%" height="100%" viewBox="0 0 32 32"><path d="M16 4c-3.227 0-6.027 2.258-6.781 5.344a5.115 5.115 0 00-2.813 2.687C2.91 11.772 0 14.555 0 18c0 3.309 2.691 6 6 6h3v-2H6c-2.207 0-4-1.793-4-4s1.793-4 4-4c.277 0 .559.023.875.094l1 .219.188-.97c.245-1.104 1.144-1.983 2.25-2.25l.656-.155.094-.657C11.422 7.847 13.543 6 16 6a4.989 4.989 0 014.469 2.75l.375.781.843-.281C22.155 9.086 22.582 9 23 9c2.207 0 4 1.793 4 4 0 .039.004.09 0 .125-.008.066-.023.117-.031.188l-.063.718.657.281A4.003 4.003 0 0126 22h-2v2h2c3.309 0 6-2.691 6-6a5.977 5.977 0 00-3-5.188C28.895 9.595 26.242 7 23 7a5.6 5.6 0 00-1.188.125A6.94 6.94 0 0016 4zm5 9c-.637 0-1.152.515-1.152 1.152 0 .043.02.08.023.121a1.141 1.141 0 00-1.533.065 1.141 1.141 0 00-.065 1.533c-.042-.005-.078-.023-.12-.023a1.152 1.152 0 100 2.304c.042 0 .078-.02.12-.023a1.141 1.141 0 00.065 1.533c.422.422 1.08.433 1.533.065-.005.042-.023.078-.023.12a1.152 1.152 0 102.304 0c0-.042-.02-.078-.023-.12a1.141 1.141 0 001.533-.065c.422-.422.433-1.08.065-1.533.042.005.078.023.12.023a1.152 1.152 0 100-2.304c-.042 0-.078.02-.12.023a1.141 1.141 0 00-.065-1.533 1.141 1.141 0 00-1.533-.065c.005-.042.023-.078.023-.12A1.152 1.152 0 0021 13zm-9 2a1 1 0 00-1 1 1 1 0 000 2 1 1 0 001 1 1 1 0 001-1 1 1 0 000-2 1 1 0 00-1-1zm3 6c-.637 0-1.152.515-1.152 1.152 0 .043.02.08.023.121a1.141 1.141 0 00-1.533.065 1.141 1.141 0 00-.065 1.533c-.042-.005-.078-.023-.12-.023a1.152 1.152 0 100 2.304c.042 0 .078-.02.12-.023a1.141 1.141 0 00.065 1.533c.422.422 1.08.433 1.533.065-.005.042-.023.078-.023.12a1.152 1.152 0 102.304 0c0-.042-.02-.078-.023-.12a1.141 1.141 0 001.533-.065c.422-.422.433-1.08.065-1.533.042.005.078.023.12.023a1.152 1.152 0 100-2.304c-.042 0-.078.02-.12.023a1.141 1.141 0 00-.065-1.533 1.141 1.141 0 00-1.533-.065c.005-.042.023-.078.023-.12A1.152 1.152 0 0015 21z"/></svg>