<svg xmlns="http://www.w3.org/2000/svg" width="100%" height="100%" viewBox="0 0 32 32"><path d="M16 9c-2.2 0-4 1.8-4 4 0 1.2.559 2.266 1.406 3h-1.5c-.55.027-.98.496-.953 1.047.027.55.496.98 1.047.953h.5l-1.406 3.563L10.375 23H8.906a1.003 1.003 0 00-.926.855c-.066.465.204.918.645 1.082l-1.344 1.344-.281.313V29h18v-2.406l-.281-.313-1.344-1.343c.457-.172.727-.649.633-1.13A.998.998 0 0023 23h-1.375l-.719-1.438L19.5 18h.5c.36.004.695-.184.879-.496a1.01 1.01 0 000-1.008c-.184-.312-.52-.5-.879-.496h-1.406C19.44 15.266 20 14.2 20 13c0-2.2-1.8-4-4-4zm0 2c1.117 0 2 .883 2 2s-.883 2-2 2-2-.883-2-2 .883-2 2-2zm-1.313 7h2.626l1.75 4.375.03.031v.032l.282.562h-6.75l.281-.563v-.03l.031-.032zm-3.25 7h9.126l2 2H9.438z"/></svg>