<svg xmlns="http://www.w3.org/2000/svg" width="100%" height="100%" viewBox="0 0 32 32"><path d="M18.594 1.656L17.656 2l-5.531 2.031-.938.344.344.938 1.688 4.562.344.938.937-.344 5.531-2.031.938-.344-.344-.938-1.688-4.562zM8.594 3l-.938.344L5 4.313l.656 1.875 1.75-.625 6.657 17.78.343.938.938-.343 10.625-4-.688-1.875-9.687 3.656L8.938 3.937zm8.812 1.219l1 2.687L14.75 8.25l-1-2.688zm4.375 5.687l-.937.344-5.532 2.031-.937.344.344.938 1.687 4.562.344.938.938-.344 5.53-2.032.938-.343-.343-.969-1.688-4.531zm-1.187 2.563l1 2.687-3.657 1.344-1-2.688zM11 21c-1.645 0-3 1.355-3 3s1.355 3 3 3 3-1.355 3-3-1.355-3-3-3zm0 6H5v2h22v-2zm0-4c.563 0 1 .438 1 1 0 .563-.438 1-1 1-.563 0-1-.438-1-1 0-.563.438-1 1-1z"/></svg>