<svg xmlns="http://www.w3.org/2000/svg" width="100%" height="100%" viewBox="0 0 32 32"><path d="M3.719 2.281L2.28 3.72 8.5 9.906 19.594 21l1.906 1.938 6.781 6.78 1.438-1.437-6.219-6.218c4.234-2.098 7.074-5.211 7.25-5.407l.594-.656-.594-.656C30.48 15.043 24.086 8 16 8c-1.957 0-3.805.43-5.5 1.063zM16 10c2.152 0 4.188.605 6 1.438A6.925 6.925 0 0123 15a6.966 6.966 0 01-1.844 4.719l-2.843-2.844c.417-.512.687-1.16.687-1.875a3 3 0 00-3-3c-.715 0-1.363.27-1.875.688l-2.031-2.032C13.336 10.273 14.637 10 16 10zm-9.313.906c-3.207 1.973-5.289 4.27-5.437 4.438L.656 16l.594.656c.258.29 6.18 6.77 13.813 7.282.308.03.62.062.937.062.316 0 .629-.031.938-.063a15.13 15.13 0 002.406-.343l-1.782-1.782A6.897 6.897 0 0116 22c-3.86 0-7-3.14-7-7 0-.531.07-1.05.188-1.563zm.563 2.031A8.922 8.922 0 007 15a8.88 8.88 0 001.344 4.719A25.837 25.837 0 013.406 16a26.112 26.112 0 013.844-3.063zm17.5 0A26.328 26.328 0 0128.594 16c-.899.867-2.676 2.438-4.969 3.75A8.98 8.98 0 0025 15c0-.7-.09-1.39-.25-2.063z"/></svg>