<svg xmlns="http://www.w3.org/2000/svg" width="100%" height="100%" viewBox="0 0 32 32"><path d="M6 3v26h20V3zm2 2h16v22H8zm7.406 5.344a1.443 1.443 0 00-.906.312c-.254.215-.367.48-.438.75-.136.54-.097 1.098.032 1.719.152.727.586 1.602.937 2.438-.18.761-.226 1.437-.5 2.218-.234.672-.535 1.059-.812 1.657-.63.238-1.38.378-1.875.687-.535.332-1.004.7-1.281 1.219-.278.52-.247 1.254.124 1.781.184.277.426.496.75.625.325.129.676.133.97.031.59-.203 1.007-.656 1.405-1.187.372-.492.633-1.328.97-2 .503-.168.866-.38 1.405-.5.563-.125.942-.067 1.47-.125.226.258.417.672.655.875.477.414 1 .742 1.625.781.625.04 1.25-.352 1.594-.938h.032v-.03c.152-.266.257-.555.25-.876a1.396 1.396 0 00-.375-.875c-.41-.437-.934-.55-1.5-.625-.438-.058-1.047.098-1.563.125-.453-.597-.902-1.047-1.313-1.812-.222-.414-.28-.766-.468-1.188.144-.68.43-1.437.468-2.031.047-.719.02-1.34-.187-1.906a1.828 1.828 0 00-.531-.781 1.494 1.494 0 00-.907-.344h-.03zm.656 7.406c.18.316.403.516.594.813-.281.05-.496 0-.781.062-.047.012-.078.05-.125.063.059-.157.133-.25.188-.407.062-.183.066-.347.124-.531zm3.688 2.031c.336.043.457.106.5.125-.008.016.012.012 0 .032-.125.207-.137.19-.219.187-.066-.004-.32-.14-.562-.313.07.004.218-.039.281-.03zm-7 1.563c-.055.082-.102.273-.156.343-.305.407-.586.594-.656.625-.012-.015.019 0 0-.03h-.032c-.101-.145-.074-.087 0-.22.074-.132.309-.402.719-.656.031-.02.094-.043.125-.062z"/></svg>