<svg xmlns="http://www.w3.org/2000/svg" width="100%" height="100%" viewBox="0 0 32 32"><path d="M5 4v2.344l.219.281L13 16.344V28.03l1.594-1.25 1.562-1.187C16.906 29.234 20.145 32 24 32c4.406 0 8-3.594 8-8 0-4.406-3.594-8-8-8-1.887 0-3.629.68-5 1.781v-1.437l7.781-9.721.219-.28V4H5zm2.281 2H24.72l-7.188 9H14.47L7.28 6zM15 17h2v3.125a8.031 8.031 0 00-.969 3.063L15 24v-7zm9 1c3.324 0 6 2.676 6 6s-2.676 6-6 6-6-2.676-6-6 2.676-6 6-6zm-1 1v1.063c-1.125.188-2 1.142-2 2.314 0 .754.418 1.443 1.094 1.78L25 25.624a.356.356 0 01-.375.375h-1.25a.356.356 0 01-.375-.375V25h-2v.625c0 1.172.875 2.125 2 2.313V29h2v-1.063c1.125-.188 2-1.142 2-2.314 0-.754-.418-1.44-1.094-1.78L23 22.376c0-.223.152-.375.375-.375h1.25c.223 0 .375.152.375.375V23h2v-.625c0-1.172-.875-2.125-2-2.313V19h-2z"/></svg>