<svg xmlns="http://www.w3.org/2000/svg" width="100%" height="100%" viewBox="0 0 32 32"><path d="M26.816 12.625c-.05.563-.316 1.172-.316 1.172-.031-1.262-.219-2.387-.566-3.375a7.623 7.623 0 00-1.11-2.098c.215.844.324 1.5.328 1.977-.418-1.477-2.43-5.125-9.207-4.352 1.016 0 1.989.168 2.907.465-.149-.008-.293-.02-.446-.023 1.453.41 2.383 1.074 2.508 1.382-.535-.097-1.016-.062-1.441.106 3.047 1.2 4.496 2.629 4.328 4.281a1.587 1.587 0 00-.899-.687c.47 1.812.516 3.308.137 4.492-.258-.79-.496-1.258-.71-1.426.296 2.43-.102 4.227-1.196 5.399.207-.715.289-1.301.242-1.762-1.184 1.879-2.895 2.98-4.383 2.98-2.09 0-3.441-1.058-4.125-1.742.164.012.328.02.488.02 2.567 0 3.332-1.508 4.04-1.508.093 0 .183.023.27.062.257-.035.39-.156.39-.328 0-.387-.828-1.055-1.715-1.055-1.035 0-1.262.704-2.317.704-1.32 0-2.496-1.813-2.496-1.813 0-.476.23-.785.637-.848-.113-.011.98.141 1.57.313.098-.563-.03-1.164-.386-1.77 0-.004.843-.793 1.464-1.125a.612.612 0 00.333-.449c.05-.027.101-.117.101-.207 0-.086-.059-.164-.172-.234-1.797.148-1.93-.875-2.613-1.27.2-1.285 1.11-2.043 1.695-2.437-1.09.136-2.074.62-2.949 1.46-.469-.398-2.582-.542-3.105-.28-.332-.422-.57-1.083-.707-1.981-.793.773-1.176 2.164-1.153 4.168C6.2 10.895 5 12.406 5 13.484c0 .118.012.274.035.352l.645-.524a7.016 7.016 0 00-.516 2.676c0 4.461 3.914 10.168 10.832 10.168C24.473 26.156 27 19.141 27 14.117c0-.594-.059-1.101-.184-1.492z"/></svg>