<svg xmlns="http://www.w3.org/2000/svg" width="100%" height="100%" viewBox="0 0 32 32"><path d="M16 6a2.999 2.999 0 00-2.531 1.406A2.949 2.949 0 0012 7c-1.645 0-3 1.355-3 3v3.656l-.125.156c-.074.086-.145.165-.219.25a21.3 21.3 0 00-1.437 1.876l-.313.406a4.338 4.338 0 00-.812 1.843c-.016.075-.051.145-.063.22a4.425 4.425 0 001.063 3.53l2.375 2.688A6.982 6.982 0 0014.719 27H20c3.855 0 7-3.145 7-7v-9c0-1.645-1.355-3-3-3-.535 0-1.031.156-1.469.406A2.999 2.999 0 0020 7c-.535 0-1.031.156-1.469.406A2.999 2.999 0 0016 6zm0 2c.566 0 1 .434 1 1v2.188A2.95 2.95 0 0016 11h-1V9c0-.566.434-1 1-1zm-4 1c.566 0 1 .434 1 1v1h-1.406l-.281.281s-.227.23-.313.313V10c0-.566.434-1 1-1zm8 0c.566 0 1 .434 1 1v3c0 .566-.434 1-1 1-.566 0-1-.434-1-1v-3c0-.566.434-1 1-1zm4 1c.566 0 1 .434 1 1v2c0 .566-.434 1-1 1-.566 0-1-.434-1-1v-2c0-.566.434-1 1-1zm-11.563 3H16c.563 0 1 .438 1 1 0 .563-.438 1-1 1h-3.125l-.281.375-2.344 2.969 1.563 1.25 1.843-2.313c.36.168.77.418 1.219.782C15.941 18.93 17 20.348 17 23h2c0-2.867-1.145-4.844-2.406-6.063a3.031 3.031 0 001.937-1.343c.438.25.934.406 1.469.406.766 0 1.469-.3 2-.781.531.48 1.234.781 2 .781a2.95 2.95 0 001-.188V20c0 2.773-2.227 5-5 5h-5.281a4.97 4.97 0 01-3.75-1.688l-2.375-2.718A2.33 2.33 0 018 18.906c0-.008.027-.074.031-.093.004-.032-.004-.063 0-.094.047-.219.2-.64.531-1.188.043-.07.11-.148.157-.218l1.469-1.938c1.105-1.293 2.027-2.164 2.25-2.375z"/></svg>