<svg xmlns="http://www.w3.org/2000/svg" width="100%" height="100%" viewBox="0 0 32 32"><path d="M16 4c-.16 0-.313.023-.469.031C10.832 4.261 7 7.848 7 12.344c0 2.949 1.79 5.539 3.469 7.406a23.497 23.497 0 003.344 3.063l.28.187h3.813l.282-.188s1.664-1.195 3.343-3.062C23.211 17.883 25 15.293 25 12.344c0-4.508-3.848-8.098-8.563-8.313A3.295 3.295 0 0016 4zm0 2c.273 0 1.113.313 1.781 1.156C18.45 8 19 9.328 19 11.22c0 4.316-2.273 9.011-2.656 9.781h-.688C15.273 20.227 13 15.516 13 11.219c0-1.82.574-3.164 1.25-4.031C14.926 6.32 15.758 6 16 6zm-4.094 1.219c-.539 1.09-.906 2.422-.906 4 0 2.883.863 5.832 1.688 8-.247-.25-.481-.516-.75-.813C10.418 16.715 9 14.45 9 12.344c0-2.102 1.145-3.969 2.906-5.125zm8.25.031C21.886 8.41 23 10.262 23 12.344c0 2.105-1.418 4.37-2.938 6.062-.261.293-.507.54-.75.782.817-2.16 1.688-5.098 1.688-7.97 0-1.57-.332-2.89-.844-3.968zM14 25v3h4v-3z"/></svg>