<svg xmlns="http://www.w3.org/2000/svg" width="100%" height="100%" viewBox="0 0 32 32"><path d="M23 4c-2.043 0-3.305 1.207-4 2.156V5C3.184 5 3 27.77 3 28h4s-.016-4.875 1.531-9.688c.774-2.406 1.95-4.785 3.625-6.5C13.832 10.098 15.973 9 19 9h.625l.281-.563S20.793 6.954 22 6.313V9.25l4.094 8.188.093.156.125.125c.403.379.555.738.625.968.055.168.032.165.032.188-.028.098-.07.309-.25.594-.219.347-.414.531-.719.531s-.5-.184-.719-.531c-.218-.348-.312-.719-.312-.719l-.219-.844-.875.094s-.832.098-1.75-.156-1.785-.703-2.156-2.094l-.344-1.281-1.125.656c-1.293.758-2.043 1.914-2.188 3.094-.144 1.18.204 2.316.625 3.437C17.777 23.898 19 26.184 19 28h2c0-2.621-1.465-5.055-2.219-7.063-.375-1.003-.547-1.851-.468-2.468a1.8 1.8 0 01.468-1c.762 1.191 1.805 2.035 2.813 2.312.93.258 1.308.176 1.75.157.09.234.062.292.25.593C24 21.184 24.804 22 26 22c1.195 0 2-.816 2.406-1.469.407-.652.563-1.281.563-1.281l.031-.094v-.093s.008-.481-.156-1c-.137-.438-.496-.97-.969-1.5h.031L24 8.75V4zm-4.531 3.031c-.004.008-.028.024-.032.032-.406.019-.8.039-1.187.093-.313.043-.61.121-.906.188a9.54 9.54 0 01.906-.188c.39-.066.8-.105 1.219-.125zM22 12c-.55 0-1 .45-1 1s.45 1 1 1 1-.45 1-1-.45-1-1-1z"/></svg>