<svg xmlns="http://www.w3.org/2000/svg" width="100%" height="100%" viewBox="0 0 32 32"><path d="M14.5 3A3.5 3.5 0 0011 6.5c0 3.5 6 6.5 6 6.5s6-3 6-6.5A3.5 3.5 0 0019.5 3c-.981 0-1.865.407-2.5 1.057A3.485 3.485 0 0014.5 3zm0 2c.404 0 .784.16 1.07.453l.534.547h1.792l.534-.547A1.485 1.485 0 0119.5 5c.827 0 1.5.673 1.5 1.5 0 1.261-2.106 3.076-4 4.215-1.895-1.14-4-2.954-4-4.215 0-.827.673-1.5 1.5-1.5zm4.719 8.979l-1.637 1.148 2.61 3.723-3.602 2.494-2.543-1.317 2.7-1.359.01-.008.01-.006a2.506 2.506 0 001.135-2.845v-.002A2.515 2.515 0 0014.81 14.1h-.002l-7.112 1.982-4.707 3.234 1.895 7.721 5.045-1.822 7.146 3.7 11.87-8.218-1.137-1.644-10.881 7.533-6.854-3.55L6.295 24.4l-1.033-4.216 3.293-2.266 6.802-1.897h.004a.485.485 0 01.62.342.492.492 0 01-.225.565l-4.358 2.193-1.75.879 7.092 3.674 6.244-4.324-3.765-5.371z"/></svg>