<svg xmlns="http://www.w3.org/2000/svg" width="100%" height="100%" viewBox="0 0 32 32"><path d="M11 5c-3.3 0-6 2.7-6 6v.25l-1.125 1.5c.355.266.727.441 1.125.563v2.468c-.61.551-1 1.34-1 2.219 0 .879.39 1.668 1 2.219V23c0 1.094.906 2 2 2h18c1.094 0 2-.906 2-2v-2.781c.61-.551 1-1.34 1-2.219 0-.879-.39-1.668-1-2.219v-2.469c.398-.12.77-.296 1.125-.562L27 11.219V11c0-3.3-2.7-6-6-6zm0 2h1c0 .55.45 1 1 1s1-.45 1-1h7c2.219 0 4 1.781 4 4v.5a2.15 2.15 0 01-.719-.375l-.531-.375-.594.344-.75.437c-.699.418-1.55.418-2.25 0l-.75-.437-.468-.281-.5.218-1.438.75a2.21 2.21 0 01-1.969 0l-1.469-.75-.5-.219-.468.282-.75.437c-.7.418-1.551.418-2.25 0l-.75-.437-.594-.344-.531.375A2.187 2.187 0 017 11.5V11c0-2.219 1.781-4 4-4zm0 1c-.55 0-1 .45-1 1s.45 1 1 1 1-.45 1-1-.45-1-1-1zm4 0c-.55 0-1 .45-1 1s.45 1 1 1 1-.45 1-1-.45-1-1-1zm-6.844 5l.406.25a4.189 4.189 0 004.313 0l.281-.188.969.5c1.18.59 2.57.59 3.75 0l.969-.5.281.188a4.189 4.189 0 004.313 0l.406-.25c.375.18.758.293 1.156.375V15H7v-1.625A4.938 4.938 0 008.156 13zM7 17h18c.566 0 1 .434 1 1 0 .566-.434 1-1 1H7c-.566 0-1-.434-1-1 0-.566.434-1 1-1zm0 4h18v2H7z"/></svg>