<svg xmlns="http://www.w3.org/2000/svg" width="100%" height="100%" viewBox="0 0 32 32"><path d="M7.91 5l-.096.893a2.196 2.196 0 01-1.918 1.914L5 7.898V24.19l.87.116c1.023.134 1.79.862 1.95 1.855l.137.84H24.27l.074-.918a2.023 2.023 0 011.767-1.814l.889-.1V7.949l-.84-.135c-.989-.16-1.753-.95-1.857-1.92L24.207 5H7.91zm1.694 2h12.91A4.222 4.222 0 0025 9.563v12.925A4.108 4.108 0 0022.543 25H9.57A4.215 4.215 0 007 22.525V9.6A4.19 4.19 0 009.604 7zm.671 3c-.193 0-.378.387-.037.475.633.166 1.106.411 1.106 1.306v4.078c0 3.361-.009 4.63-.307 5.15-.317.416-.444.418-.838.555-.224 0-.305.436 0 .436 1.403 0 .726-.08 2.13-.08 1.382 0 .81.08 2.167.08.232 0 .19-.33 0-.395-.88-.306-.883-.414-.95-.515-.401-.628-.228-3.404-.228-4.613 0-.214.248-.516.534-.516h4.296c.286 0 .534.302.534.516 0 1.209.173 3.984-.229 4.613-.066.105-.068.21-.95.515-.188.065-.227.395 0 .395 1.357 0 .785-.08 2.169-.08 1.403 0 .726.08 2.129.08.302 0 .224-.436 0-.436-.398-.137-.521-.143-.838-.554-.301-.52-.307-1.79-.307-5.15V11.78c0-.89.472-1.141 1.106-1.306.344-.088.15-.475-.04-.475-1.41 0-.795.08-2.206.08-1.263 0-.637-.08-1.9-.08-.128 0-.33.335-.04.436.19.065 1.069.149 1.069 1.584 0 1.837.006 2.186-.04 2.71 0 .053-.09.516-.496.516h-4.218c-.406 0-.496-.464-.496-.516-.047-.523-.04-.873-.04-2.71 0-1.435.88-1.52 1.069-1.584.29-.101.089-.436-.04-.436-1.262 0-.638.08-1.902.08-1.41 0-.796-.08-2.207-.08z"/></svg>