<svg xmlns="http://www.w3.org/2000/svg" width="100%" height="100%" viewBox="0 0 32 32"><path d="M23.25 4c-1.262 0-2.344.457-3.125 1.125-.781.668-1.297 1.535-1.656 2.344-.563 1.265-.598 2.023-.657 2.5-.457.191-1.636.656-2.812.656-1.531 0-2.61-.625-4.625-.625-1.246 0-2.367.46-3.156 1.281a4.552 4.552 0 00-.219.25 4.215 4.215 0 00-1.125-.156c-.707 0-1.336.352-1.813.813-.476.46-.828 1.035-1.125 1.718C2.345 15.273 2 17.043 2 19h2c0-1.723.305-3.258.75-4.281.223-.512.477-.887.688-1.094.21-.207.351-.25.437-.25.137 0 .188.02.281.031-.078.364-.156.735-.156 1.125 0 2.387 1.441 3.832 1.969 4.313-.004.379-.043 1.558-.782 2.562l-.187.25V28h2v-5.875c1.047-1.781 1-3.719 1-3.719L9.969 18l-.313-.281S8 16.172 8 14.53c0-.855.266-1.469.656-1.875.39-.406.926-.656 1.719-.656 1.54 0 2.617.625 4.625.625 2.113 0 4.063-1 4.063-1l.5-.25.062-.563s.102-1.28.656-2.53c.278-.626.684-1.223 1.157-1.626.417-.36.898-.61 1.562-.656v1c1.508 0 2.094 1.406 2.094 1.406l.062.156.125.157L27 10.406l-.188.219c-.44-.117-.94-.242-1.156-.313l-.343-.124-.344.124c-.02.008-.594.145-1.032.063-.437-.082-.761-.191-1-.844l-1.875.688c.153.418.368.77.625 1.062-.09.465-.082.918-.03 1.344.109.95.343 1.852.343 2.594 0 1.293-1.594 2.625-1.594 2.625l-.406.312V28h2v-8.906c.563-.434 2-1.676 2-3.875 0-1.106-.262-2.086-.344-2.813-.004-.023.004-.039 0-.062.63.101 1.059-.016 1.5-.125.594.183 1.719.5 1.719.5l.594.156.406-.469.656-.719c.676-.75.653-1.91-.062-2.624l-1.75-1.782-.032.032c-.156-.31-.66-1.231-1.687-1.813V4zM12 17v1c0 2.457-1.625 3.719-1.625 3.719L10 22v6h2v-5.156c.418-.395 1.254-1.352 1.719-3.219.707.316 1.816.535 3.281.625V28h2v-9.656h-1c-2.031 0-3.094-.317-3.594-.563A1.386 1.386 0 0114 17.5l-.219-.5z"/></svg>