<svg xmlns="http://www.w3.org/2000/svg" width="100%" height="100%" viewBox="0 0 32 32"><path d="M16.16 4.004c-.217-.012-.437 0-.656.035C14.077 4.271 13 5.591 13 7.107V9H9.137c-3.778 0-6.872 3.13-7.114 7.07L2 16l-1 5 1.307-1.307c.19 1.235.447 2.533.722 3.55L4.22 28H9v-3.447c.739.249 1.627.447 2.5.447.39 0 1.418-.039 2.5-.393V28h4.781l1.162-4.67c.033-.095.757-2.206 1.008-6.33H26c2.206 0 4-1.794 4-4v-2.178c0-2.25-1.582-3.82-3.846-3.82-1.29 0-2.273.339-2.92.666C22.53 6.93 21.204 6 19 6h-.172a2.992 2.992 0 00-.887-1.285 2.999 2.999 0 00-1.78-.711zm-.336 2.01A1.004 1.004 0 0117 7v1h2c2.298 0 3.08 1.4 3.105 1.447l.58 1.131.971-.824c.036-.031.905-.752 2.498-.752 1.156 0 1.846.68 1.846 1.82V13c0 1.103-.897 2-2 2h-6.96l-.038.96c-.174 4.422-.94 6.69-.973 6.798L17.22 26H16v-5l-1.6 1.2c-1.015.761-2.594.8-2.9.8-1.312 0-2.672-.64-2.898-.8L7 20.997V26H5.781l-.816-3.26C4.46 20.872 4 17.927 4 16.563 4 13.495 6.305 11 9.137 11H15V7.107c0-.538.361-1.017.824-1.093zM20 9a1 1 0 000 2 1 1 0 000-2z"/></svg>