<svg xmlns="http://www.w3.org/2000/svg" width="100%" height="100%" viewBox="0 0 32 32"><path d="M14 6c-.898 0-1.563.5-2.156 1.156-.59.649-1.07 1.532-1.313 2.594-.004.012.004.02 0 .031-.261 1-.633 2.727-.937 4.219C8.894 13.395 8 13 7 13c-2.21 0-4 1.79-4 4 0 2.105.543 4.477 2.531 6.219C7.52 24.96 10.766 26 16 26c5.238 0 8.516-1.059 10.5-2.813C28.484 21.434 29 19.06 29 17c0-2.21-1.79-4-4-4a3.98 3.98 0 00-2.594.969l-.031-.031c0-.004-.031.003-.031 0-.356-1.649-.64-3.036-.875-4.157-.239-1.125-.742-2.035-1.344-2.687C19.523 6.44 18.859 6 18 6c-.816 0-1.352.418-1.719.688-.129.093-.199.16-.281.218-.082-.058-.152-.125-.281-.218C15.352 6.418 14.816 6 14 6zm0 2c-.016 0 .223.082.531.313.156.113.317.238.531.374.215.137.481.313.938.313.457 0 .723-.176.938-.313.214-.136.375-.261.53-.374.31-.231.548-.313.532-.313-.059 0 .309.094.656.469.348.375.711.976.875 1.75.278 1.312.68 3.18 1.032 4.812-.051.035-.094.059-.157.094C19.73 15.52 18.418 16 16 16c-2.418 0-3.73-.48-4.406-.875-.078-.043-.125-.082-.188-.125.344-1.66.774-3.656 1.063-4.75v-.031c.16-.723.52-1.324.875-1.719S14.102 8 14 8zm-7 7c1.16 0 1.957.77 2 1.906v.032a1.02 1.02 0 00.031.562.88.88 0 00.031.094c.196 1.949 1.293 3.254 2.626 3.812C13.152 22.023 14.75 22 16 22c1.277 0 2.895-.016 4.344-.656 1.347-.598 2.472-1.946 2.625-3.907A.977.977 0 0023 17v-.031a.668.668 0 000-.125c.066-1.106.863-1.844 2-1.844 1.191 0 2 .809 2 2 0 1.742-.379 3.395-1.844 4.688C23.691 22.98 20.961 24 16 24c-4.965 0-7.695-1-9.156-2.281C5.383 20.437 5 18.797 5 17c0-1.191.809-2 2-2zm4 2.063c1.059.515 2.617.937 5 .937s3.941-.422 5-.938c-.016 1.543-.559 2.036-1.469 2.438-.926.41-2.308.5-3.531.5-1.25 0-2.652-.023-3.563-.406-.898-.38-1.425-.875-1.437-2.532z"/></svg>