<svg xmlns="http://www.w3.org/2000/svg" width="100%" height="100%" viewBox="0 0 32 32"><path d="M12.406 2a2.815 2.815 0 00-.594.063c-1.34.304-2.28 1.496-2.343 2.812a2.956 2.956 0 00-1.125.031C6.738 5.27 5.699 6.895 6.063 8.5L8 16.906v.844l-.875-.875a3.023 3.023 0 00-4.25 0 3.023 3.023 0 000 4.25l6.781 6.781C10.832 29.078 12.457 30 14.375 30H19c3.855 0 7-3.145 7-7v-7l.938-4.719c.316-1.613-.762-3.215-2.375-3.531a2.98 2.98 0 00-1-.031l.218-1.125c.317-1.614-.761-3.215-2.375-3.532-1.613-.316-3.183.762-3.5 2.376l-1 4.75-1.531-5.844c-.004-.008.004-.024 0-.032h-.031c-.336-1.378-1.57-2.335-2.938-2.312zm-.156 2.031a.973.973 0 011.188.75v.032l2.5 9.593.187.75h1.781l.188-.812 1.75-8.5v-.032a.992.992 0 011.187-.78c.555.109.89.632.782 1.187L20 15.344l1.969.375L23 10.53h.031c.11-.554.602-.922 1.157-.812.554.11.89.633.78 1.187l-.937 4.906-.031.094V23c0 2.773-2.227 5-5 5h-4.625c-1.273 0-2.367-.621-3.281-1.531l-6.813-6.75a1.014 1.014 0 010-1.438 1.014 1.014 0 011.438 0l2.562 2.594L10 22.594V16.78l-.031-.093L8.03 8.063c-.125-.551.2-1.094.75-1.22.551-.124 1.063.231 1.188.782l1.781 7.938 1.969-.438-1.781-7.969c-.004-.011.003-.02 0-.031L11.5 5.219a.973.973 0 01.75-1.188z"/></svg>