<svg xmlns="http://www.w3.org/2000/svg" width="100%" height="100%" viewBox="0 0 32 32"><path d="M5 5v22h22V5H5zm2 2h18v18H7V7zm5.902 3c-.568.004-1.134.383-1.136 1.133 0 .64.52 1.15 1.156 1.15.179-.005 1.15-.17 1.133-1.168-.013-.748-.584-1.119-1.153-1.115zm6.702 3.203c-.85.071-1.777.659-2.424 1.865l.379-1.724h-2.932l-.412 1.515h1.375l-.844 3.385c-.703 1.564-2.445 1.88-2.445.988.013-.48-.032-.19 1.4-5.888h-3.256l-.412 1.517h1.356c-.942 3.84-.977 3.827-.98 4.436 0 2.075 2.688 2.39 4.03.183l-.345 1.385h1.922l1.1-4.402c.626-2.544 3.153-2.006 2.552-.03-.388 1.39-1.732 4.544 1.064 4.544 1.014 0 1.821-.653 2.268-2.217l-.762-.285c-.609 1.683-1.355 1.38-1.355.718.013-.345.03-.328.635-2.506.695-2.285-.5-3.602-1.914-3.484z"/></svg>