<svg xmlns="http://www.w3.org/2000/svg" width="100%" height="100%" viewBox="0 0 32 32"><path d="M16 5c-3.252 0-7.688.05-8.588.13-1.01.607-3.01 2.901-3.03 3.497v1C4.383 10.89 5.567 12 6.638 12 7.92 12 8.99 10.93 8.99 9.668 8.99 10.93 10.03 12 11.312 12c1.293 0 2.293-1.069 2.293-2.332 0 1.262 1.09 2.332 2.383 2.332h.022c1.293 0 2.383-1.069 2.383-2.332 0 1.262 1.01 2.332 2.293 2.332 1.283 0 2.324-1.069 2.324-2.332 0 1.262 1.07 2.332 2.353 2.332 1.071 0 2.252-1.11 2.252-2.373v-1c-.02-.596-2.02-2.89-3.03-3.496C21.445 5.02 19.253 5 16 5zm-2.45 6.742c-1.052 1.81-3.698 1.832-4.73.012-.63 1.092-2.056 1.514-2.666 1.307-.178 1.899-.3 11.648.992 13.283 3.797.885 14.019.866 17.708 0 1.495-1.524 1.16-11.522.992-13.283-.61.207-2.037-.215-2.657-1.307-1.043 1.82-3.688 1.798-4.74-.012-.325.59-1.082 1.367-2.449 1.367a2.73 2.73 0 01-2.45-1.367zM11.42 14c.8 0 1.53 0 2.41.98 1.45-.15 2.89-.15 4.34 0 .89-.97 1.61-.97 2.41-.97 2.58 0 3.2 3.81 4.13 7.09.84 3.05-.28 3.13-1.67 3.13-2.07-.08-3.22-1.58-3.22-3.09-1.93.32-5.01.44-7.64 0 0 1.51-1.15 3.01-3.22 3.09-1.39 0-2.51-.08-1.67-3.13.93-3.3 1.55-7.09 4.13-7.09V14zM16 16.877s-1.694 1.562-2 2.107l1.107-.04v.966c0 .058.819.008.893.008.447.017.893.033.893-.008v-.967l1.107.041c-.306-.546-2-2.107-2-2.107z"/></svg>