<svg xmlns="http://www.w3.org/2000/svg" width="100%" height="100%" viewBox="0 0 32 32"><path d="M25.992 14.348a8.492 8.492 0 00-16.266-3.273A4.092 4.092 0 009 11c-2.14 0-3.871 1.684-3.98 3.797A6 6 0 002 20c0 3.313 2.688 6 6 6h16a5.995 5.995 0 001.992-11.652zM20.891 23c-1.914 0-3.746-1.645-5.516-3.234C13.863 18.406 12.301 17 11.109 17 9.926 17 9 17.879 9 19c0 1.086.969 2 2.11 2 .988 0 1.878-.41 2.73-1.258l1.41 1.414C14.023 22.383 12.633 23 11.11 23 8.843 23 7 21.207 7 19s1.844-4 4.11-4c1.956 0 3.812 1.664 5.6 3.277C18.2 19.613 19.743 21 20.888 21 22.055 21 23 20.102 23 19c0-1.121-.926-2-2.11-2-1.355 0-2.562.902-2.878 1.219l-1.414-1.41c.07-.075 1.828-1.809 4.293-1.809C23.156 15 25 16.793 25 19s-1.844 4-4.11 4z"/></svg>