<svg xmlns="http://www.w3.org/2000/svg" width="100%" height="100%" viewBox="0 0 32 32"><path d="M16 5c-.214 0-.428.035-.633.104L5.025 8.55A1.497 1.497 0 004 9.973V22.89a1.5 1.5 0 001.137 1.455l10.379 2.593a1.984 1.984 0 00.968 0l10.38-2.593A1.499 1.499 0 0028 22.89V9.973c0-.646-.412-1.218-1.025-1.422L16.633 5.104A1.984 1.984 0 0016 5zm0 2l10 3.332v2.545l-9.2-2.758a2.765 2.765 0 00-1.6 0L6 12.877v-2.545L16 7zm0 4.633c.161 0 .324.022.482.068L26 14.56V22.5L16 25 6 22.5v-7.941l9.525-2.858c.154-.046.314-.068.475-.068zm-.78 1.373a.273.273 0 00-.128.004l-3.332.908a.28.28 0 00-.201.268v.582c0 .184.174.31.35.267l3.333-.908c.117-.033.2-.15.2-.275v-.575a.277.277 0 00-.221-.271zm1.561 0a.278.278 0 00-.222.271v.577c0 .133.084.242.2.275l3.333.906c.175.05.35-.082.35-.265v-.584a.276.276 0 00-.2-.266l-3.334-.908a.263.263 0 00-.127-.006zm-6.56 1.365a.271.271 0 00-.13.006l-2.775.758a.276.276 0 00-.207.267v.575c0 .184.175.317.35.267l2.783-.758a.278.278 0 00.2-.267v-.574a.279.279 0 00-.221-.274zm11.56 0a.28.28 0 00-.222.274v.574c0 .125.084.234.2.267l2.784.758c.175.05.35-.084.35-.267v-.575a.279.279 0 00-.21-.267l-2.775-.758a.263.263 0 00-.127-.006z"/></svg>