<svg xmlns="http://www.w3.org/2000/svg" width="100%" height="100%" viewBox="0 0 32 32"><path d="M16 3C8.832 3 3 8.832 3 16s5.832 13 13 13 13-5.832 13-13S23.168 3 16 3zm0 2c6.065 0 11 4.935 11 11s-4.935 11-11 11S5 22.065 5 16 9.935 5 16 5zm-5 7c-2.094 0-3.61 1.207-3.61 1.207l1.22 1.586S9.692 14 11.001 14s2.39.793 2.39.793l1.22-1.586C14.608 13.207 13.093 12 11 12zm10 0c-2.094 0-3.61 1.207-3.61 1.207l1.22 1.586S19.692 14 21.001 14s2.39.793 2.39.793l1.22-1.586C24.608 13.207 23.093 12 21 12zM9 19s1.605 5 7 5 7-5 7-5H9z"/></svg>