<svg xmlns="http://www.w3.org/2000/svg" width="100%" height="100%" viewBox="0 0 32 32"><path d="M25.031 4L24 4.469c-3.18 1.402-7.773 1.93-11.688 3.312-1.957.692-3.769 1.614-5.124 3.094C5.832 12.355 5 14.395 5 17c0 2.695 1.586 4.543 3.063 5.594a9.98 9.98 0 001.75 1c-.618 1.144-1.075 2.176-1.376 3.062-.546 1.598-.632 2.848-.593 3.75.039.903.156 1.52.156 1.5l2 .188c.063-.723-.125-1.102-.156-1.782-.031-.68.027-1.613.5-3 .945-2.769 3.566-7.328 10.375-14.625l-1.438-1.374c-4.082 4.374-6.718 7.785-8.437 10.53a7.727 7.727 0 01-1.625-.874C8.059 20.145 7 18.937 7 17c0-2.203.629-3.656 1.656-4.781 1.028-1.125 2.524-1.93 4.313-2.563 3.238-1.144 7.246-1.722 10.687-3C23.976 7.871 25 12.031 25 18.531c0 3.688-.863 5.801-1.875 6.969-1.012 1.168-2.23 1.5-3.313 1.5-1.078 0-2.242-.55-3.25-1.25-1.007-.7-1.703-1.43-2.406-1.875l-1.062 1.688c.18.113 1.176 1.035 2.344 1.843 1.167.809 2.648 1.594 4.374 1.594 1.54 0 3.422-.543 4.844-2.188C26.078 25.169 27 22.527 27 18.532c0-7.821-1.656-13.438-1.656-13.438z"/></svg>