<svg xmlns="http://www.w3.org/2000/svg" width="100%" height="100%" viewBox="0 0 32 32"><path d="M19.646 2l-.251.123c-.244.121-.263.126-.834.148l-.588.022-.239.13c-.222.123-.247.128-.384.09a1.302 1.302 0 01-.274-.118.99.99 0 00-.328-.104 1.654 1.654 0 01-.318-.074c-.101-.042-.148-.04-.348.021a1.57 1.57 0 01-.326.073c-.14.019-.28.05-.414.091-.175.051-.355.083-.403.07-.12-.03-.394.1-.482.227-.16.274-.457.725-.33 1.049.186.246.858.06.842.477-.117.49-.303.96-.473 1.433l-.619-.138c.409-1.38.346-.854-.772-1.586.03-.13.073-.254.131-.373.153-.223.295-.46.295-.493a.354.354 0 01.074-.127c.09-.115.1-.38.016-.464-.084-.085-.172-.094-.639-.084-.379.006-.44.017-.62.109-.116.059-.365.256-.58.46l-.378.358.012.711.012.711.133.274c.132.273.276.425.617.656.052.032.1.067.146.107.011.013.123.106.252.207.128.101.285.223.348.278.216.187.461.331.728.43.487.172.617.343.707.95.047.314.185.763.27.872.024.029.086.265.225.875.022.1.046.24.054.31.008.071.031.202.051.293.058.323.095.65.11.977 0 .134-.015.161-.124.228a.502.502 0 01-.181.076c-.08 0-.227-.298-.3-.607-.108-.484-.263-.688-.546-.732-.237-.037-.645-.336-1.256-.922a1.015 1.015 0 00-.258-.157c-.408-.17-.65-.337-.832-.576-.113-.148-.123-.183-.123-.402.007-.204.028-.408.057-.61.07-.48.067-.751-.006-1.013-.094-.328-.342-.464-.516-.274-.157.171-.453.986-.58 1.598-.057.276-.12.432-.242.588a.229.229 0 00-.049.213c.027.142.255.653.328.736.053.071.101.147.143.225l.092.164-.074.254c-.122.418-.123.393.03.525.078.065.417.395.753.723.702.692.82.76 1.304.795.3.022.422.066.467.168.013.03.028.328.033.66.023 1.396.02 1.376.34 1.818l.18.25.049.477c.06.574.06 2.37 0 3.228l-.041.598.107.152c.058.084.377.426.705.758.457.46.63.661.725.84l.123.234-.023.916c-.013.504-.042.974-.063 1.045-.021.071-.063.508-.094.971-.052.789-.097 1.39-.142 1.902a66.15 66.15 0 00-.057.696c-.058.784-.144 1.619-.182 1.783-.064.282-.048.333.157.545.244.25.648.557.683.517.061-.07.113-.675.133-1.566a59.33 59.33 0 01.033-1.152c.008-.176.038-1.064.11-3.348.01-.342.028-.768.039-.947.02-.331-.01-.579-.131-1.102a4.71 4.71 0 01-.094-.566 2.132 2.132 0 00-.113-.492c-.05-.12-.08-.226-.07-.235.008-.009 0-.046-.02-.082-.057-.107-.105-.701-.11-1.351-.003-.65-.053-.92-.24-1.29-.094-.185-.578-.882-.754-1.084l-.109-.123.02-.668c.022-.705.067-1.039.164-1.203.08-.138.154-.113.248.084.088.185.175.281.558.62.285.25.407.41.407.54a.756.756 0 01-.092.252c-.138.266-.125.553.054 1.149.08.263.154.557.168.652.012.091.04.178.08.26.05.079.057.084.112.03a.542.542 0 00.086-.233 17.15 17.15 0 01.146-.9c.064-.279.05-.57-.039-.84-.044-.136-.094-.257-.113-.268-.046-.029-.044-.25.008-.424s.233-.354.691-.687c.193-.14.397-.324.453-.405.057-.08.117-.146.133-.146.116 0 .105.5-.02.842a6.01 6.01 0 00-.242.822c-.039.194-.128.596-.252 1.135-.115.507-.303 1.013-.47 1.271-.09.138-.103.19-.114.53-.01.339.07 1.142.178 1.853.023.231.03.463.02.695-.012.415-.006.498.054.625.12.254.144.455.15 1.356.005.483.02.992.038 1.133.035.288.047 1.757.014 1.812-.022.036-.145.83-.18 1.168-.022.221-.046.705-.076 1.574-.016.477.021 1.16.076 1.34.05.04.691-.459.836-.668l.1-.144v-1.041c0-.642-.018-1.12-.044-1.244a4.102 4.102 0 01-.058-.405 3.279 3.279 0 00-.06-.383c-.049-.213-.059-.97-.034-2.414.02-1.106.012-1.156-.24-2.03a2.264 2.264 0 01-.063-.485l-.004-.285.22-.192c.63-.555.79-.882.603-1.248-.12-.239-.152-.598-.11-1.265.02-.331.054-.728.075-.88.02-.15.044-.367.054-.476.055-.627.18-1.133.278-1.133.058 0 .218-.411.255-.656.06-.388.033-1.183-.044-1.27a.507.507 0 01-.086-.158 2.18 2.18 0 00-.114-.263.8.8 0 01-.088-.399c0-.265.068-.42.235-.547.064-.05.293-.25.502-.445l.383-.356.125-.394c.126-.397.36-.94.478-1.11.035-.048.143-.246.24-.437.213-.42.45-.726.916-1.182l.354-.343-.045-.135c-.024-.075-.048-.343-.05-.596l-.007-.46-.244-.223-.242-.225.033-.404c.02-.221.053-.576.078-.787.077-.654.007-.823-.25-.594-.149.132-.25.339-.304.629a1.12 1.12 0 01-.159.4 1.008 1.008 0 00-.156.424c-.156.934-.314 1.34-.703 1.82a2.184 2.184 0 01-.832.639 9.617 9.617 0 00-.512.268 18.38 18.38 0 01-.547.298c-.55.282-.635.387-.754.934-.132.606-.148.65-.257.662-.077.01-.108-.012-.176-.127-.068-.115-.08-.19-.08-.457a1.813 1.813 0 01.056-.486c.08-.234.07-.34-.039-.485a.521.521 0 01-.074-.523c.072-.148.072-.37 0-.578a1.992 1.992 0 01-.078-.322c-.019-.137-.01-.176.063-.252a.32.32 0 01.117-.09.413.413 0 00.13-.092c.055-.055.248-.2.43-.328.134-.09.262-.19.383-.295a.373.373 0 01.135-.094.312.312 0 00.135-.158.753.753 0 01.24-.262.996.996 0 00.224-.205c.03-.055.078-.068.248-.068.214 0 .384-.053.887-.283.41-.188.507-.301.78-.93a.782.782 0 00.058-.164c0-.078.266-.432.385-.512.132-.088.148-.142.13-.379a.77.77 0 00-.072-.219 1.932 1.932 0 01-.115-.322c-.044-.169-.042-.216.006-.35.055-.152.055-.155-.074-.402-.093-.179-.17-.273-.266-.328L19.646 2zM16.59 29.992c-.001 0-.011.006-.012.004h.012v-.004zm5.193-20.851c-1.153 1.186-1.508 2.098-1.672 2.943a211.159 211.159 0 013.518 3.719c1.957 2.816.552 5.257-2.547 4.88v.003c1.454 1.612 5.995.488 5.76-3.375-.025-.424-.18-4.697-5.059-8.17zm-12.23 1.752v.003c-4.544 3.793-4.686 8.077-3.336 10.262 1.13 1.834 4.62 1.869 5.396.27-3.76.786-5.127-1.928-3.431-4.772.42-.71 1.807-1.898 4.195-3.875-.234-.533-.555-.687-1.266-.922-.582-.192-.406-.267-1.558-.966zm4.213 9.425c-.034.034-.026 1.207.011 1.547.02.182.04.363.04.403.003.094.132.89.187 1.152.023.11.055.343.072.517.008.12.026.24.055.356.043.195.075.392.096.59.02.198.051.395.093.59.001.004.005.006.006.007.014.013.034.014.047 0 .039-.039.104-.798.147-1.75.018-.402.04-.814.05-.914.01-.1.027-.388.037-.64.01-.252.03-.616.043-.81l.026-.354-.29-.287c-.256-.255-.565-.462-.62-.407zm4.455.354c-.042.005-.11.05-.227.135-.234.17-.289.267-.289.498 0 .199.128 1.107.164 1.166.067.11.137.79.145 1.441.005.402.027.825.049.934.075.378.125 1.115.125 1.884 0 .422.007.781.017.797h.008c.035.058.148-.09.187-.242.074-.303.119-1.197.11-2.258-.01-.877 0-1.167.054-1.554.088-.635.09-.653.094-.97.004-.298-.006-.362-.22-1.189l-.143-.546c-.017-.067-.033-.101-.074-.096z"/></svg>