<svg xmlns="http://www.w3.org/2000/svg" width="100%" height="100%" viewBox="0 0 32 32"><path d="M9.658 7.201c-3.612-.04-5.454 3.632-4.33 6.48.604 3.167.02 4.846-2.127 4.895-1.05-.114-1.834.322-2.627 1.115-.986.976-.955 4.697 2.112 5.084 2.334.292 3.96-2.253 3.033-4.35-2.344-5.137 9.354-5.256 7.402-.405-.005.005-.01.01-.016.02-1.328 2.12.339 4.827 2.915 4.718 2.58.104 4.23-2.608 2.912-4.719a.066.066 0 00-.014-.02c-1.952-4.85 9.745-4.731 7.402.407a3.234 3.234 0 00-.283 1.635c.243 2.646 3.405 3.672 5.2 1.744.882-.734 1.143-3.25 0-4.375a2.918 2.918 0 00-2.397-.854c-2.145-.05-2.773-1.728-2.168-4.894 1.13-2.85-.737-6.516-4.33-6.48-3.835.034-3.884 4.062-6.322 4.062-2.383 0-2.552-4.028-6.362-4.063zm6.348 5.059h.03a3.11 3.11 0 013.11 3.111c0 1.24-.95 3.111-3.11 3.111h-.03c-2.15 0-3.113-1.857-3.113-3.11a3.115 3.115 0 013.113-3.112z"/></svg>