<svg xmlns="http://www.w3.org/2000/svg" width="100%" height="100%" viewBox="0 0 32 32"><path d="M22.406 3c-.847.04-1.726.656-2.125 1.625v.031h-.031c-.422 1.121-1.016 2.293-1.688 3.438A31.999 31.999 0 0016 8c-3.137 0-5.98.438-8.125 1.219-1.07.39-1.965.87-2.656 1.469-.61.523-1.051 1.214-1.157 2-.03.082-.05.164-.062.25-.004.05-.004.105 0 .156 0 .285 0 .66.031 1.125.004.031-.004.062 0 .094.016.226.063.457.094.718.031.246.055.485.094.719.207 1.352.613 2.957 1.437 4.531a10.385 10.385 0 002.469 3.125c.031.032.152.184.156.188 1.016 1.015 3.028 2.09 6.25 2.343.145.012.29.024.438.032a17.433 17.433 0 002.5-.032c.074-.007.144-.023.218-.03.32-.036.614-.075.907-.126.05-.008.105-.023.156-.031.055-.012.102-.02.156-.031a11.663 11.663 0 003.125-1.094c.16-.086.317-.16.469-.25.438-.25.797-.469 1.063-.656.433-.309 1.492-1.184 2.53-2.938.915-1.547 1.735-3.75 1.876-6.562.031-.48.031-.867.031-1.156V13v-.031-.063c0-.031-.027-.062-.031-.094v-.093c-.117-.996-.813-1.805-1.688-2.406-.625-.43-1.39-.79-2.25-1.094.313-.383.621-.766.969-1.125L25.094 8l-.032-.031c.739-.668 1.067-1.657.844-2.438-.234-.82-.8-1.398-1.375-1.812-.57-.414-1.277-.758-2.125-.719zm.094 2c.164-.008.555.11.875.344.32.23.578.554.625.718.047.165.117.172-.25.47l-.063.03-.03.032c-3.075 3.14-4.856 6.86-5.376 9.312-.73.059-1.5.094-2.281.094-.309 0-.605-.02-.906-.031 2.504-2.465 5.515-6.547 7.031-10.594.184-.445.21-.367.375-.375zM16 10c.45 0 .883.012 1.313.031-1.75 2.547-3.711 4.739-4.97 5.719-1.448-.2-2.753-.5-3.78-.875-.918-.336-1.61-.703-2.032-1.063C6.11 13.454 6 13.18 6 13v-.094c.031-.176.172-.41.531-.719.422-.359 1.114-.726 2.032-1.062C10.398 10.457 13.063 10 16 10zm6.781.938c1 .308 1.832.66 2.375 1.03.664.458.844.813.844 1.032v.063c-.02.18-.152.421-.531.75-.422.359-1.114.726-2.032 1.062-.832.3-1.851.559-2.968.75.398-1.246 1.187-2.957 2.312-4.688zm2.907 5.124c-.09.458-.165.922-.313 1.407-.035.105-.059.21-.094.312-.023.074-.066.145-.093.219-.254.664-.547 1.25-.844 1.75-.875 1.48-1.907 2.32-1.938 2.344-.71.504-1.87 1.3-3.875 1.687l-.343.063A13.63 13.63 0 0116 24c-.32 0-.613-.016-.906-.031-.13-.008-.25-.02-.375-.032-.453-.039-.86-.085-1.25-.156-.309-.058-.594-.11-.875-.187-.192-.051-.36-.102-.531-.157a8.137 8.137 0 01-2-.968c-.122-.09-.235-.172-.313-.25l-.031-.032c-.168-.167-.39-.343-.75-.75a11.39 11.39 0 01-1.25-1.75 12.126 12.126 0 01-1.313-3.156 9.785 9.785 0 01-.093-.437c.464.265.992.48 1.562.687C10.02 17.563 12.863 18 16 18c3.137 0 5.98-.438 8.125-1.219.578-.21 1.094-.453 1.563-.718z"/></svg>