<svg xmlns="http://www.w3.org/2000/svg" width="100%" height="100%" viewBox="0 0 32 32"><path d="M15.994 3c-.365 0-.73.09-1.045.27L5.04 8.99C4.4 9.36 4 10.06 4 10.8v10.38c0 .75.4 1.44 1.04 1.81l2.6 1.5c1.26.62 1.71.62 2.28.62 1.87 0 2.94-1.13 2.94-3.09V11.31a.29.29 0 00-.29-.29h-1.25a.286.286 0 00-.29.29v10.7c0 .88-.91 1.74-2.38 1.01l-2.72-1.57a.303.303 0 01-.16-.27V10.81c0-.12.06-.22.16-.28l9.91-5.72a.29.29 0 01.31 0l9.91 5.72c.1.06.16.16.16.27v10.38c0 .11-.06.22-.15.27l-9.92 5.73a.34.34 0 01-.31 0l-2.55-1.51a.23.23 0 00-.24-.02c-.71.4-.84.45-1.5.68-.16.05-.41.15.09.43l3.31 1.96c.32.18.68.28 1.04.28.37 0 .73-.1 1.05-.28l9.92-5.73c.64-.37 1.04-1.06 1.04-1.81V10.81c0-.75-.4-1.44-1.04-1.81l-9.92-5.73c-.316-.18-.68-.27-1.046-.27zm2.666 8.006c-2.83 0-4.52 1.2-4.52 3.2 0 2.17 1.68 2.768 4.4 3.038 3.25.32 3.5.802 3.5 1.442 0 1.1-.89 1.57-2.98 1.57-2.63 0-3.21-.661-3.4-1.961a.28.28 0 00-.28-.24h-1.29a.28.28 0 00-.28.28c0 1.67.91 3.66 5.25 3.66 3.14 0 4.94-1.24 4.94-3.4 0-2.14-1.45-2.71-4.49-3.12-3.09-.4-3.4-.61-3.4-1.33 0-.6.27-1.39 2.55-1.39 2.03 0 2.79.44 3.1 1.81.03.13.14.23.28.23h1.29c.08 0 .15-.04.21-.1a.27.27 0 00.07-.22c-.2-2.36-1.77-3.47-4.95-3.47z"/></svg>