<svg xmlns="http://www.w3.org/2000/svg" width="100%" height="100%" viewBox="0 0 32 32"><path d="M16 4c-3.305 0-6.248 1.541-8.17 3.938a16.555 16.555 0 00-1.58-.512L5.006 7.11l-.002 3.9C3.794 11.929 3 13.368 3 15c0 1.654.814 3.11 2.05 4.023C5.57 24.61 10.275 29 15.995 29c5.718 0 10.427-4.389 10.947-9.973C28.181 18.114 29 16.657 29 15c0-1.632-.793-3.07-2.002-3.986L27 7.109l-1.24.317c-.053.013-.672.173-1.59.515C22.248 5.544 19.306 4 16 4zm0 2a9.178 9.178 0 016.484 2.654c-.558.264-1.152.573-1.757.936-2.91-1.566-6.536-1.566-9.446 0a20.19 20.19 0 00-1.763-.938A9.178 9.178 0 0116 6zM7 9.766c.957.35 2.348.943 3.72 1.83l.534.343.539-.334c2.545-1.584 5.88-1.584 8.426 0l.539.334.531-.343c1.37-.886 2.753-1.477 3.711-1.828V18c0 4.963-4.043 9-9.006 9s-9-4.036-9-8.998L7 9.766zm3.44 8.24c-.436-.004-.914 0-1.44.004.04.45-.01 1.75 1.39 2.56.23.13.81.32 1.36.35 1.34.06 3.25.08 3.25.08-.574-2.627-1.514-2.97-4.56-2.994zm11.117 0c-3.053.024-3.992.367-4.557 2.994 0 0 1.91-.02 3.25-.08.55-.03 1.13-.22 1.36-.35 1.4-.82 1.35-2.12 1.39-2.56-.527-.004-1.007-.008-1.443-.004zM13.359 22c.74.78 1.641 1.38 2.641 1.75 1-.37 1.89-.97 2.64-1.75h-5.28zm.65 2.436s-.15.08-.34.35c-.14.22-.189.509-.189.509 1.53.94 3.52.94 5.04 0 0 0-.01-.21-.17-.47-.17-.28-.36-.39-.36-.39-1.3.39-2.74.37-3.98 0z"/></svg>