<svg xmlns="http://www.w3.org/2000/svg" width="100%" height="100%" viewBox="0 0 32 32"><path d="M14.5 5c-3.711 0-7.057 1.584-8.594 4.002A3.003 3.003 0 003 12c0 .899.407 2.021 1 2.818V27h2V14.068l-.268-.287C5.3 13.314 5 12.47 5 12a1 1 0 011-1c.065 0 .141.011.23.031l.784.188.347-.729C8.347 8.435 11.283 7 14.5 7h3c3.217 0 6.153 1.435 7.139 3.49l.347.729.784-.188c.089-.02.165-.031.23-.031a1 1 0 011 1c0 .469-.3 1.314-.732 1.781l-.268.287V27h2V14.818c.593-.797 1-1.919 1-2.818a3.003 3.003 0 00-2.906-2.998C24.557 6.584 21.21 5 17.5 5h-3zM10 12a1 1.5 0 000 3 1 1.5 0 000-3zm12 0a1 1.5 0 000 3 1 1.5 0 000-3zm-6 1.018c-.915 0-1.83.323-2.629.968-3.557 2.878-3.64 2.95-3.887 3.157l-.107.09C8.489 17.974 8 18.958 8 20c0 2.206 1.794 4 4 4 1.498 0 2.914-.36 4-1.006C17.086 23.64 18.502 24 20 24c2.206 0 4-1.794 4-4 0-1.041-.489-2.024-1.377-2.768l-.107-.09c-.246-.206-.33-.279-3.887-3.158-.798-.644-1.714-.966-2.629-.966zm0 1.986c.463 0 .927.179 1.371.537 3.527 2.854 3.613 2.926 3.856 3.13l.113.097c.3.252.66.669.66 1.232 0 1.103-.897 2-2 2-1.339 0-2.6-.371-3.371-.994l-.596-.48c.075-.87.353-1.526.967-1.526 1.105 0 2-.202 2-.727C19 17.57 17.657 17 16 17s-3 .57-3 1.273c0 .525.895.727 2 .727.614 0 .892.656.967 1.525l-.596.48C14.6 21.63 13.34 22 12 22c-1.103 0-2-.897-2-2 0-.562.36-.98.662-1.232l.113-.096c.244-.205.328-.276 3.854-3.129.445-.36.908-.54 1.371-.54z"/></svg>