<svg xmlns="http://www.w3.org/2000/svg" width="100%" height="100%" viewBox="0 0 32 32"><path d="M30.188 1.438C29.18 3.093 27.48 7.57 19.75 9.717V8.626c-.969.11-1.316-1.102-1.656-1.25-.77.79-1.227 1.516-2.063 2.063-1.008.66-2.164.886-2.406 1.78.29-.109 1.25-.624 3.844-.624 1.656 0 1.636.18 2.531 1.281.305-.082.344-.238.438-.438-.473-.847-.711-.902-.657-1.25 2.664-.222 9.196-2.28 10.407-8.75zM17.03 11.03c-1.898 0-2.445.215-2.5.281-.117.438.418 1.399-.594 2.626.34.093.68.183 1.032.28a1.111 1.111 0 00-.156.563c0 1.074 2.28.098 2.28 1.844 0 .563-1.527 3.125-3 3.125-1.398-1.203-2.937-2.77-2.75-3.469.817-.191 2.634-.554 2.845-.625.25-.086.535-.375.437-.719-.098-.343-.418-.582-1.156-.374-.192.054-2.125.468-2.125.468-.59-1.215-.934-.594-1.406-.5-.688.137-1.403.305-1 1.031-.223.055-7.114 1.57-7.22 1.594-.198.043-.823.274-.687.782.133.48.52.48.625.468.41-.05 7.715-1.699 7.844-1.718.125.355.652.488 1.281 1.406.18.258 2.535 3.625 3.156 3.625 2.286 0 4.5-2.625 4.5-2.625-.042.894-1.843 2.406-1.843 2.406 0 .406.074 1.938.093 2.156.055 0 .555.157 1.907.157 1.351 0 2.25-.344 2.25-.344s.5-1.856.5-3.032c0-2.898-.793-3.066-2.063-4.187 0 0 .164-.11.375-.094 4.535.297 2.684 8.762 5.813 12.25.097-.031 4.375-1.738 5.531-2.5-5.57-4.508-5.695-10.441-11.875-10.437 0-1.469 1.5.281 1.813-1.906-.258.124-.489.23-.72.343-.984-2.52-.741-2.875-3.187-2.875zm-4.125 2.875c-.242.004-.453.074-.687.125-.102.024-.196.063-.313.094.055.094.278.504.313.563.48-.102.945-.208 1.437-.313-.195-.09-.566-.473-.75-.469zm.813 2c-.246.063-.477.13-.719.188.04.074 1.133 2.867 1.281 3.25.38-.246.758-.48 1.125-.719-.219-.313-1.636-2.668-1.687-2.719zm7.094 8.031c-.36.02-3.11.36-3.313.438l.125.75c.371-.055 2.77-.527 3.344-.719-.024-.09-.012-.367-.157-.468zm-4.125.188c-.098.34-.043 1.18 0 1.406.097-.02.472-.11.593-.156-.05-.414-.101-.832-.156-1.25zm4.437.781c-2.629.114-4.316.973-4.438 1.094-.039.191.34 2.145.344 2.406 3.567.508 5.555-.488 5.657-.531-.13-.414-1.446-2.973-1.563-2.969z"/></svg>