<svg xmlns="http://www.w3.org/2000/svg" width="100%" height="100%" viewBox="0 0 32 32"><path d="M16.14 3C9.949 3 5 7.937 5 13.904c0 3.293 2.111 6.88 4.44 9.793 1.164 1.457 2.396 2.729 3.52 3.664.563.468 1.096.854 1.606 1.139.51.285.981.5 1.575.5.602 0 1.026-.23 1.505-.516.48-.286.988-.668 1.528-1.134 1.08-.934 2.283-2.204 3.428-3.659C24.89 20.782 27 17.197 27 13.904 27 7.937 22.079 3 16.14 3zm0 2C20.968 5 25 9.04 25 13.904c0 2.365-1.827 5.827-3.97 8.551-1.073 1.362-2.21 2.555-3.165 3.38-.477.414-.91.735-1.242.933-.331.197-.588.232-.482.232.026 0-.243-.048-.598-.246a9.16 9.16 0 01-1.305-.93c-.99-.823-2.148-2.014-3.236-3.375C8.827 19.73 7 16.27 7 13.904 7 9.04 11.005 5 16.14 5zM16 10c-.061 0-.118.015-.178.018.108.309.178.636.178.982a3 3 0 01-3 3c-.346 0-.673-.07-.982-.178-.003.06-.018.117-.018.178a4 4 0 104-4z" clip-rule="evenodd"/></svg>