<svg xmlns="http://www.w3.org/2000/svg" width="100%" height="100%" viewBox="0 0 32 32"><path d="M16.094 4C11.017 4 6 7.383 6 12.861c0 3.483 1.958 5.463 3.146 5.463.49 0 .774-1.366.774-1.752 0-.46-1.174-1.44-1.174-3.355 0-3.978 3.028-6.797 6.947-6.797 3.37 0 5.864 1.914 5.864 5.432 0 2.627-1.055 7.554-4.47 7.554-1.231 0-2.284-.89-2.284-2.166 0-1.87 1.197-3.681 1.197-5.611 0-3.276-4.537-2.682-4.537 1.277 0 .831.104 1.751.475 2.508C11.255 18.354 10 23.037 10 26.066c0 .935.134 1.855.223 2.791.168.188.084.169.341.075 2.494-3.414 2.263-4.388 3.391-8.856.61 1.158 2.183 1.781 3.43 1.781 5.255 0 7.615-5.12 7.615-9.738C25 7.206 20.755 4 16.094 4z"/></svg>