<svg xmlns="http://www.w3.org/2000/svg" width="100%" height="100%" viewBox="0 0 32 32"><path d="M5 5v22h22V5H5zm2 2h18v18H13.514c.252-.506.478-1.029.601-1.504.134-.514.885-2.756.885-2.756.357.683 1.403 1.26 2.514 1.26C20.822 22 23 19.107 23 15.33 23 11.71 20.044 9 16.24 9 11.508 9 9 12.175 9 15.635c0 1.607.857 3.607 2.223 4.246.21.098.318.052.367-.149.036-.152.222-.896.303-1.24a.324.324 0 00-.077-.312c-.45-.55-.816-1.558-.816-2.5 0-2.42 1.83-4.76 4.951-4.76 2.692 0 4.58 1.836 4.58 4.46 0 2.965-1.295 4.872-3.246 4.872-1.076 0-2.08-.742-1.826-1.836.308-1.304.906-2.71.906-3.652 0-2.366-3.367-2.04-3.367 1.117 0 .969.322 1.629.322 1.629-1.062 4.738-1.364 5.772-1.271 7.49H7V7z"/></svg>