<svg xmlns="http://www.w3.org/2000/svg" width="100%" height="100%" viewBox="0 0 32 32"><path d="M8 5C6.346 5 5 6.346 5 8s1.346 3 3 3 3-1.346 3-3-1.346-3-3-3zm16 0c-1.654 0-3 1.346-3 3s1.346 3 3 3 3-1.346 3-3-1.346-3-3-3zM8 7a1 1 0 110 2 1 1 0 010-2zm16 0a1 1 0 110 2 1 1 0 010-2zM6.848 12a.999.999 0 00-.95.684l-1.771 5.314a2.006 2.006 0 00.717 2.248L8 22.5V28h2v-5.5c0-.627-.3-1.226-.818-1.613l-3.159-2.254 1.426-4.274c.34.895.906 2.342.906 2.342a3.014 3.014 0 001.24 1.485L12 20h8l2.406-1.814a3.014 3.014 0 001.239-1.48s.558-1.428.91-2.352l1.44 4.265-3.192 2.28A2.01 2.01 0 0022 22.5V28h2l-.018-5.486 3.196-2.282c.69-.518.968-1.416.695-2.232l-1.771-5.316a.998.998 0 00-.95-.684h-.648c-.452 0-1.267.158-1.656 1.21-.254.697-1.065 2.765-1.067 2.77a1.01 1.01 0 01-.433.508.887.887 0 00-.102.067L20 17.492V12h-8v5.492l-1.246-.937a1.362 1.362 0 00-.102-.067 1.006 1.006 0 01-.433-.511s-.81-2.072-1.067-2.77C8.765 12.156 7.948 12 7.496 12h-.648zM14 14h4v4h-4v-4zm-9.742 7.057l-.203 2.048c-.022.221-.08.434-.172.635L1.933 28h2.2L5.7 24.572c.184-.4.299-.827.344-1.27l.09-.906-1.873-1.335-.004-.004zm23.484 0l-1.877 1.34.09.908c.045.44.16.865.344 1.267L27.867 28h2.2l-1.95-4.26a2.028 2.028 0 01-.172-.635l-.203-2.048z"/></svg>