<svg xmlns="http://www.w3.org/2000/svg" width="100%" height="100%" viewBox="0 0 32 32"><path d="M21.125 4l-1.656.625c-1.864.703-3.074 1.43-3.875 2.188-.801.757-1.18 1.59-1.375 2.218-.196.63-.274.996-.406 1.188-.118.168-.32.37-.97.562-.011-.008-.09-.058-.093-.062h-.031a4.282 4.282 0 00-1.625-.625c-1.664-.281-3.406.445-4.375 2l-.032.031a5.763 5.763 0 00-.75 3.625c.051.406.153.82.313 1.219a4.528 4.528 0 00-3.625 2.25h-.031c-1.219 2.152-.477 4.93 1.687 6.156h.032v.031c.113.055 1.445.758 3.437 1.375C9.742 27.398 12.531 28 16 28c3.469 0 6.254-.578 8.25-1.188 1.973-.605 3.082-1.199 3.469-1.437l.031-.031c2.133-1.239 2.852-3.965 1.625-6.063h.031a4.359 4.359 0 00-2.5-2.031c0-.004-.031.004-.031 0a4.416 4.416 0 00-2.094-2.688c.137-.437.219-.945.219-1.562 0-1.16-.414-2.137-.969-2.844-.554-.707-1.222-1.18-1.781-1.625-.559-.445-1.008-.855-1.25-1.25-.242-.394-.363-.77-.219-1.531zm-2.25 3.188c.094.417.234.824.438 1.156.472.77 1.105 1.258 1.687 1.719.582.46 1.125.902 1.469 1.343.343.442.531.864.531 1.594 0 .48-.055.773-.125 1-2.727-.398-5.113-1.086-6.875-1.75-.352-.133-.66-.273-.969-.406.168-.149.317-.324.438-.5.449-.653.511-1.285.656-1.75.145-.465.309-.836.844-1.344.32-.305 1.21-.7 1.906-1.063zm-8.563 4.78c.442-.003.895.134 1.313.407.55.383 1.73.984 3.688 1.719a35.055 35.055 0 007.718 1.937h.032c.695.086 1.269.496 1.625 1.094-.356.066-.723.16-1.063.313-.05.023-.105.007-.156.03-.04.012-.047.024-.063.032-.031.016-.062.016-.093.031-.028.012-.06.047-.094.063-.086.039-.211.09-.375.156-.324.137-.809.313-1.438.5-1.258.371-3.086.75-5.406.75-1.723 0-3.195-.195-4.344-.438-.36-.085-.707-.18-1.031-.28-.652-.208-1.258-.505-1.25-.5-.969-.653-1.363-1.438-1.469-2.282-.105-.844.13-1.742.5-2.375.469-.754 1.172-1.148 1.906-1.156zm-4.03 6.97c.476-.036.976.082 1.437.343.008.004.023.028.031.032.055.03.125.062.188.093.125.067.269.133.468.219.399.172.95.36 1.656.563.25.07.555.148.844.218.106.028.203.067.313.094.011.004.02-.004.031 0 .398.102.793.191 1.188.25v-.031A21.86 21.86 0 0016 21c2.535 0 4.559-.426 5.969-.844.707-.21 1.273-.433 1.656-.593.14-.06.219-.114.313-.157h.093l.032-.031.187-.094c1.242-.664 2.734-.27 3.438.969v.031c.683 1.168.289 2.68-.938 3.375h-.031v.032c-.078.046-1.203.66-3.032 1.218C21.86 25.465 19.25 26 16 26s-5.855-.527-7.688-1.094c-1.808-.562-2.714-1.074-3.062-1.25-.016-.008-.02-.023-.031-.031-1.196-.707-1.567-2.184-.875-3.406.347-.582.867-1.016 1.468-1.188.153-.043.31-.082.47-.093z"/></svg>