<svg xmlns="http://www.w3.org/2000/svg" width="100%" height="100%" viewBox="0 0 32 32"><path d="M15.945 5c-2.752.015-5.5 1.09-7.6 3.22-2.872 2.923-1.569 1.598-5.402 5.46a3.323 3.323 0 000 4.64c3.946 3.976 2.62 2.635 5.498 5.557l.006-.006a10.72 10.72 0 0015.23-.092c2.88-2.916 1.576-1.599 5.38-5.46a3.32 3.32 0 000-4.64L23.58 8.122l-.006.008A10.726 10.726 0 0015.945 5zm.065 2.016a8.986 8.986 0 016.357 15.344c-3.514 3.507-9.197 3.502-12.71-.006a8.974 8.974 0 010-12.706 8.943 8.943 0 016.353-2.632zM17.64 10c-.086-.037-1.29 1.31-1.29 1.31l-.819-.011s-1.277-1.335-1.365-1.297l-1.246.518c-.087.03.012 1.8.012 1.8l-.569.569s-1.82-.056-1.851.025l-.506 1.234c-.037.087 1.31 1.311 1.31 1.311l.006.805s-1.353 1.235-1.316 1.322l.592 1.246c.037.087 1.84.031 1.84.031l.585.58s-.01 1.983.077 2.014l1.254.518c.087.037 1.29-1.465 1.29-1.465l.817.011s1.277 1.485 1.36 1.454l1.247-.47c.087-.036-.011-2.001-.011-2.001l.566-.568s1.823.055 1.854-.032l.503-1.234c.044-.067-1.302-1.29-1.302-1.29l-.006-.81s1.353-1.235 1.316-1.322L21.395 13c-.037-.087-1.84-.031-1.84-.031l-.586-.58s.013-1.777-.074-1.815L17.64 10zm-1.814 3.879c1.146-.053 2.126.828 2.172 1.953.046 1.132-.846 2.092-1.992 2.145-1.145.053-2.127-.827-2.174-1.96-.047-1.131.848-2.092 1.994-2.138z"/></svg>