<svg xmlns="http://www.w3.org/2000/svg" width="100%" height="100%" viewBox="0 0 32 32"><path d="M5 5v22h22V5H5zm2 2h18v18H7V7zm10.73 10.01c-.87 0-1.54.25-2.01.75C15.24 18.25 15 19 15 20c0 .94.21 1.67.64 2.2.42.53 1.09.8 2.01.8.44 0 .85-.06 1.24-.19.39-.12.7-.28.93-.46l-.49-.96a2.41 2.41 0 01-1.4.43c-.5 0-.86-.12-1.08-.36-.23-.24-.35-.6-.37-1.08h3.41c.03-.2.06-.38.08-.57.02-.18.03-.35.03-.51 0-.44-.07-.8-.19-1.1-.13-.29-.3-.53-.51-.7-.22-.18-.46-.3-.73-.38-.27-.07-.55-.11-.84-.11zm-4.07.03c-.3 0-.56.07-.78.23-.22.15-.39.36-.52.64h-.04l-.18-.75H11v5.68h1.48v-3.67c.06-.22.18-.4.35-.54.18-.13.4-.2.66-.2.19 0 .4.04.64.12l.2-1.39c-.25-.08-.48-.12-.67-.12zm8.41.08c-.28 0-.49.08-.66.23-.17.16-.25.37-.25.63 0 .27.08.48.25.64.17.16.38.24.66.24s.51-.08.68-.24c.17-.16.25-.37.25-.64 0-.26-.08-.47-.25-.63-.17-.15-.39-.23-.68-.23zm-4.37 1.07c.34 0 .58.11.73.33.16.22.22.53.19.94h-2.11c.04-.38.15-.69.33-.92.19-.23.47-.35.86-.35zm4.37 3.04c-.28 0-.49.07-.66.23-.17.15-.25.36-.25.63s.08.48.25.64c.17.16.38.23.66.23s.51-.07.68-.23c.17-.16.25-.38.25-.64 0-.27-.08-.48-.25-.63-.17-.16-.39-.23-.68-.23z"/></svg>