<svg xmlns="http://www.w3.org/2000/svg" width="100%" height="100%" viewBox="0 0 32 32"><path d="M21.107 4.338c-1.433.04-3.197 1.081-4.984 2.822.155.15.31.305.465.465 3.759-3.645 5.45-2.438 5.51-2.406 1.02.579 1.639 2.543.705 6.279a26.697 26.697 0 00-3.856-.592c-3.276-4.579-6.405-6.476-8.3-6.476-1.404 0-1.997.956-2.17 1.263-.825 1.458-.606 3.836.005 6.096-3.212.925-5.499 2.466-5.48 4.33.023 2.716 4.701 4.002 5.562 4.229-.934 3.732-.46 6.178 1.016 7.011 1.276.72 3.422.273 6.297-2.515-.155-.15-.31-.305-.465-.465-3.759 3.645-5.455 2.438-5.51 2.406-1.016-.574-1.639-2.533-.705-6.283a25.76 25.76 0 003.856.592c3.276 4.575 6.406 6.47 8.297 6.47 1.403 0 1.995-.956 2.168-1.261.82-1.454.607-3.833-.004-6.098 6.94-1.996 7.117-5.933 1.545-8.033v-.002a16.804 16.804 0 00-1.623-.516c.893-3.554.529-6.137-1.016-7.011a2.496 2.496 0 00-1.313-.305zm-10.46.754c1.676 0 4.502 1.804 7.44 5.75a32.505 32.505 0 00-4.278.04 24.914 24.914 0 011.921-2.388c-.155-.159-.31-.315-.464-.467a27.224 27.224 0 00-2.31 2.924 25.97 25.97 0 00-3.847.666c-.009-.064-1.106-3.744-.054-5.603l.002.002c.132-.232.541-.924 1.59-.924zm5.308 6.267a32.64 32.64 0 012.563.079c1.435 2.031 1.315 2.192 1.935 2.939a.973.973 0 01.475-.338 33.328 33.328 0 00-1.563-2.53c1.841.188 2.961.457 3.29.534a23.29 23.29 0 01-.665 2.014c.115.044.22.112.31.197l.005.004a.575.575 0 01.406-.254c.223-.611.42-1.213.584-1.8.532.14 1.055.306 1.57.5 4.834 1.817 3.373 4.004 3.309 4.118-.902 1.6-3.65 2.517-4.817 2.85a24.82 24.82 0 00-.564-1.658.578.578 0 01-.488-.26l-.004.004a.89.89 0 01-.246.164c.26.652.483 1.295.67 1.924-1.08.272-2.176.47-3.282.591.16-.24.784-1.194 1.467-2.47a1.144 1.144 0 01-.273-.147c-.05.055-.163.192-.496.192a32.1 32.1 0 01-1.545 2.515 32.55 32.55 0 01-5.121.045 32.77 32.77 0 01-1.678-2.633 1.026 1.026 0 01-.137-.068c-.087.073-.178.147-.574.147.287.51.798 1.399 1.541 2.488a24.93 24.93 0 01-3.291-.533c.178-.638.393-1.29.643-1.955-.146 0-.246.008-.383-.047a.805.805 0 01-.315.047 24.175 24.175 0 00-.58 1.794C1.415 17.87 2.31 14.18 8.635 12.34c.164.542.35 1.097.564 1.658.474 0 .588.154.656.24a.524.524 0 01.106-.1c-.264-.67-.497-1.329-.693-1.972.319-.082 1.476-.383 3.28-.592-.723 1.107-1.217 2-1.495 2.52a.652.652 0 01.293.365c.115-.17.276-.302.465-.383a33.68 33.68 0 011.585-2.594 32.45 32.45 0 012.56-.123zM16 12.775l-.105.31-.325.007.26.195-.096.31.266-.187.264.188-.096-.31.26-.196-.324-.006-.104-.31zm-1.455.39l-.106.31-.328.004.26.197-.09.308.266-.185.264.185-.096-.308.26-.197-.325-.004-.105-.31zm2.898 0l-.105.31-.328.004.26.197-.086.308.263-.185.266.185-.098-.308.262-.197-.328-.004-.106-.31zm3.97 1.278c-.46 0-.696.215-.696.643v1.826c0 .424.235.643.695.643h.037c.46 0 .697-.22.697-.643v-1.826c0-.426-.237-.64-.697-.64v-.003h-.037zm-8.99.002c-.46 0-.765.192-.765.643v1.824c0 .474.306.643.766.643h.008c.46 0 .765-.174.765-.643.001-.449.05-.627-.174-.627h-.154c-.219 0-.174.184-.174.553 0 .214-.104.277-.263.277-.16 0-.264-.063-.264-.277V15.17c0-.214.105-.277.264-.277.159 0 .263.063.263.277 0 .328-.03.478.174.478h.154c.214-.005.174-.178.174-.56 0-.451-.305-.643-.765-.643h-.008zm4.518.032a.083.083 0 00-.09.074v2.359c0 .437.228.643.688.643h.018c.46 0 .687-.21.687-.643v-2.348a.09.09 0 00-.094-.085l-.004.002h-.054a.08.08 0 00-.088.07v2.283c0 .36-.117.508-.46.508-.341 0-.46-.143-.46-.508v-2.268a.079.079 0 00-.088-.087h-.055zm-6.562.003a.17.17 0 00-.184.153v.002l-.5 2.697c-.023.123.04.188.155.188h.136a.172.172 0 00.188-.155v-.006l.082-.515h.556l.083.515a.17.17 0 00.18.16l.005-.001h.16c.118 0 .178-.065.155-.188l-.512-2.695a.174.174 0 00-.192-.155h-.312zm3.178 0c-.114 0-.172.058-.172.172v.096c0 .114.058.174.172.174h.334v2.424c0 .114.057.174.171.174h.157c.114.002.172-.06.172-.172V14.922h.341c.114 0 .174-.06.174-.174v-.096c0-.114-.06-.172-.174-.172h-1.175zm1.754 0a.081.081 0 00-.09.073v2.884a.082.082 0 00.078.086h1.037a.081.081 0 00.092-.068.052.052 0 000-.017v-.036a.083.083 0 00-.092-.093v-.004h-.883v-1.217h.735a.084.084 0 00.09-.08v-.047a.086.086 0 00-.08-.092h-.745v-1.176h.87a.086.086 0 00.091-.08v-.047a.08.08 0 00-.074-.086H15.31zm3.582 0a.083.083 0 00-.09.075v2.882a.084.084 0 00.078.088h.066a.082.082 0 00.088-.072v-1.24h.53l.472 1.238c.016.043.06.072.106.069h.068c.064 0 .091-.047.068-.106l-.484-1.242c.278-.073.42-.28.42-.608v-.441c0-.428-.237-.643-.697-.643h-.625zm-10.547.002c-.11-.005-.17.058-.17.172v2.694c0 .114.06.173.174.173h.998c.114 0 .172-.06.172-.173v-.096c0-.113-.058-.174-.172-.174h-.67V16.2h.517c.114 0 .174-.058.174-.172v-.095c0-.114-.06-.174-.174-.174h-.517v-.834h.654c.114 0 .174-.058.174-.172v-.098c0-.114-.06-.172-.174-.172h-.986zm14.449.002a.076.076 0 00-.094.084v2.871a.082.082 0 00.078.086h.069a.08.08 0 00.088-.07v-1.203h.482c.46 0 .697-.22.697-.643v-.478c0-.432-.237-.647-.697-.647h-.623zm1.87 0a.074.074 0 00-.09.055.094.094 0 00-.003.03v2.87a.082.082 0 00.078.086h1.039a.081.081 0 00.09-.072v-.049a.085.085 0 00-.078-.09h-.012v-.003h-.882v-1.217h.734a.088.088 0 00.092-.082V15.967a.088.088 0 00-.082-.092h-.744v-1.176h.87a.086.086 0 00.09-.082V14.572a.082.082 0 00-.074-.088h-1.029zm-18.274.002c-.114 0-.174.06-.174.174v2.694c0 .114.06.171.174.171h.154c.114 0 .174-.057.174-.171V16.31h.254l.338 1.07c.02.09.102.153.195.146h.15c.128 0 .183-.083.147-.2l-.37-1.09c.21-.092.335-.273.335-.565v-.543c0-.46-.306-.643-.766-.643h-.611zm15.045.17c.34 0 .478.146.478.506v1.668c-.005.365-.137.508-.478.508-.341 0-.479-.143-.479-.508v-1.668c0-.36.138-.506.479-.506zm-2.397.037h.465c.342 0 .478.141.478.506v.293c0 .357-.137.502-.478.502v-.002h-.465v-1.299zm3.9.006h.465c.342-.005.479.142.479.502v.322c0 .36-.138.506-.479.506h-.465V14.7zm-16.22.225h.263c.164 0 .278.058.278.277v.397c0 .219-.114.279-.278.279H6.72v-.953zm3.816.148l.215 1.354h-.428l.213-1.354zm4.047 2.99l-.105.31-.325.005.26.195-.096.31.264-.187.266.188-.098-.31.262-.196-.322-.006-.106-.308zm2.836 0l-.105.31-.325.005.26.195-.096.31.264-.187.264.188-.096-.31.26-.196-.323-.006-.103-.308zM16 18.398l-.105.311-.325.006.26.195-.096.31.266-.189.264.188-.096-.31.26-.196-.323-.004-.105-.31zm6.89 1.987c1.034 3.844.203 5.328.053 5.601-.132.232-.537.926-1.59.926-1.671 0-4.497-1.795-7.44-5.75 1.424.083 2.854.07 4.278-.04a24.914 24.914 0 01-1.921 2.388c.155.159.31.314.464.465.837-.92 1.61-1.9 2.31-2.926 2.156-.214 3.66-.614 3.847-.664z"/></svg>