<svg xmlns="http://www.w3.org/2000/svg" width="100%" height="100%" viewBox="0 0 32 32"><path d="M26 7l-.3-.3c-1.7-1.9-4.2-2.5-4.2-2.5-3-.9-7.7 1.1-11.898 5.198C6.102 12.7 4 16.7 4 19.7c0 .403.102.801.102 1.2.199 2 1.5 4.101 2.597 5.101 1.403 1.398 3.2 2.102 5.2 2.102 3.3 0 7.203-1.903 10.8-5.301C28.301 17.3 29.7 10.8 26 7zM10 21.7c0-1.302 1.398-4 4.398-7 2.903-2.9 5.903-3.7 7.301-4-.699 1.902-2.199 4.198-4.398 6.402-2.102 2-4.5 3.597-6.602 4.398-.199.102-.5.102-.699.2zm1-10.9c3.3-3.3 6.8-4.902 9-4.902.7 0 1.3.204 1.7.602.402.398.6 1.2.5 2.102-1.2.097-5.302.796-9.2 4.699-2.5 2.5-5.102 6.097-4.898 8.597-.602 0-1.204-.199-1.5-.5-.204-.199-.403-.5-.5-.898 0 0-.102-.5-.102-.8.102-2.5 2-6 5-8.9zm10.3 10.5c-4.8 4.802-10.3 6.098-13.198 3.302a4.293 4.293 0 01-.602-.704c.2.102.5.102.8.102.9 0 2-.2 3.098-.602 2.403-.898 5-2.597 7.301-4.898 3.5-3.5 5.5-7.5 5.5-10.398l.102.097.3.2c2.797 2.902 1.399 8.3-3.3 12.902z"/></svg>