<svg xmlns="http://www.w3.org/2000/svg" width="100%" height="100%" viewBox="0 0 32 32"><path d="M16 4C8.75 4 4 10.043 4 15.973 4 22.605 9.383 28 16 28s12-5.395 12-12.027C28 10.043 23.254 4 16 4zm0 22c-5.523 0-10-4.488-10-10.027 0-4.793 3.355-8.801 7.84-9.793-3.277 1.863-4.203 4.496-4.492 6.308-.371 2.332.62 4.832 2.507 5.149.149.023.286.035.422.035 1.657 0 2.52-1.727 2.645-2.703.152-1.18-.348-2.422-1.024-3.285-.363-.465-.886-1.09-1.636-1.645l1.133-1.238c.527.344.94.93 1.144 1.37 0 0 .016-.444-.078-.788a4.272 4.272 0 00-.375-.95 3.667 3.667 0 00-.145-.23L16 5.945 18.063 8.2c-.047.067-.094.14-.149.23-.086.157-.254.5-.375.954-.094.344-.078.789-.078.789.203-.442.617-1.031 1.148-1.371l1.13 1.234c-.75.555-1.274 1.18-1.637 1.645-.68.867-1.176 2.105-1.024 3.289.125.976.988 2.699 2.645 2.699.132 0 .273-.012.422-.035 1.886-.317 2.875-2.813 2.503-5.145-.285-1.812-1.21-4.445-4.484-6.308 4.484.992 7.836 5 7.836 9.793C26 21.512 21.523 26 16 26zm-3.676-13.086c.438.559.684 1.277.614 1.797-.04.316-.372.96-.66.96a.379.379 0 01-.09-.01c-.508-.083-1.094-1.4-.864-2.86.043-.278.102-.543.172-.805.336.309.602.633.828.918zm8.18-.918c.07.262.129.527.172.805.23 1.46-.356 2.777-.863 2.86a.379.379 0 01-.09.01c-.29 0-.621-.644-.66-.96-.07-.52.175-1.242.613-1.797.226-.289.492-.61.828-.918z"/></svg>