<svg xmlns="http://www.w3.org/2000/svg" width="100%" height="100%" viewBox="0 0 32 32"><path d="M12.2 9C5.54 9.02.15 11.6.15 14.78c.01 1.9 1.87 3.58 4.85 4.62-1.6-1.07-2.48-2.41-2.48-3.86-.01-3.48 5.38-6.31 12.04-6.32.4 0 .78.01 1.16.02C14.6 9.08 13.42 9 12.2 9zM27 12.63c1.59 1.06 2.48 2.4 2.48 3.86 0 3.47-5.39 6.29-12.05 6.29-.39 0-.78-.01-1.16-.03 1.11.16 2.29.25 3.52.25 6.66 0 12.06-2.58 12.06-5.75 0-1.9-1.88-3.58-4.85-4.62zM7.846 14.003c-.745 0-1.282.463-1.282 1.09 0 1.19 1.807 1.144 1.807 1.789 0 .3-.262.455-.553.455-.536 0-.935-.455-.935-.455l-.39.488s.47.602 1.316.602c.799 0 1.271-.519 1.271-1.137 0-1.253-1.807-1.125-1.807-1.78 0-.244.245-.41.563-.41.254 0 .51.119.51.292v.181h.634v-.353c0-.545-.688-.762-1.134-.762zm14.672.053v.61h.353v2.87c0 .263.108.371.371.371h1.737c.263 0 .37-.108.37-.37v-.583h-.644v.227c0 .082-.044.117-.117.117h-.881c-.082 0-.117-.044-.117-.117v-.909h1.244v-.6H23.59v-1.009h.861c.073 0 .12.046.12.12v.226h.634v-.58c0-.254-.107-.373-.361-.373h-2.326zm-2.844.008v.6h.236c.073 0 .117.045.117.118v2.752h-.007c0 .263.108.373.37.373h1.69c.263 0 .373-.11.373-.373v-.58h-.644v.227c0 .082-.047.117-.12.117h-.835c-.082 0-.118-.044-.118-.117v-2.754c0-.254-.11-.364-.373-.364h-.69zm-10.067.001v2.471c0 .854.61 1.436 1.518 1.436s1.508-.582 1.508-1.436v-2.47h-.71v2.443c0 .509-.317.799-.798.799-.481 0-.799-.29-.799-.79v-2.453h-.719zm3.516 0v.6h.346v3.242h.709V16.58h.699c.718 0 1.227-.517 1.227-1.271 0-.745-.509-1.245-1.227-1.245h-1.754zm3.272 0v.6h.353v3.242h.709V16.58h.7c.717 0 1.216-.517 1.216-1.271 0-.745-.499-1.245-1.217-1.245h-1.761zm9.011 0v.055h.117v.264h.075v-.264h.117v-.055h-.309zm.371 0v.319h.075v-.254l.1.254h.054l.11-.254v.254h.064v-.319h-.102l-.1.227-.091-.227h-.11zm-11.6.598h.583c.39 0 .617.256.617.647 0 .4-.228.662-.627.662h-.572v-1.309zm3.27 0h.582c.391 0 .617.256.617.647 0 .4-.226.662-.626.662h-.573v-1.309z"/></svg>