<svg xmlns="http://www.w3.org/2000/svg" width="100%" height="100%" viewBox="0 0 32 32"><path d="M16 3C8.832 3 3 8.832 3 16s5.832 13 13 13 13-5.832 13-13S23.168 3 16 3zm0 2c6.065 0 11 4.935 11 11s-4.935 11-11 11S5 22.065 5 16 9.935 5 16 5zm4.271 5.076c-.073.002-2.513-.134-3.945 4.065-.388-.32-2.226-2.51-4.26-.995-.73.546-1.212 1.848-.115 3.07.653.7 1.03.977.858 1.536-.353 1.148-2.141.622-1.965.053.052-.17.135-.173.242-.504.298-.976-1.045-1.454-1.334-.524-.166.542.091 1.522 1.478 1.95 1.624.499 2.999-.387 3.194-1.54.124-.722-.203-1.258-.801-1.949l-.486-.539c-.295-.297-.397-.798-.092-1.183.257-.326.624-.464 1.225-.301.877.238 1.267.847 1.92 1.338-.048.154-.386 1.245-.702 3.158-.466 2.446-.823 3.789-1.748 4.559-.186.135-.452.333-.853.347-.075.003-.544-.108-.078-.482.587-.321.268-1.34-.575-1.31-.38.011-.957.368-.935 1.023.022.676.651 1.183 1.601 1.15.508-.017 1.641-.223 2.758-1.55 1.535-1.8 1.827-3.938 2.242-6.231 1.991.236 2.977-.687 2.99-1.375.022-.936-1.08-.903-1.234-.203-.074.34.519.646.057.945-.327.212-.914.361-1.74.24.397-2.19.736-4.336 2.27-4.386.104-.007.486.005.495.257.005.208-.262.373-.252.727.015.402.32.664.762.648.591-.02.76-.594.75-.89-.025-.696-.758-1.135-1.727-1.104z"/></svg>