<svg xmlns="http://www.w3.org/2000/svg" width="100%" height="100%" viewBox="0 0 32 32"><path d="M23.398 14.023c-.34.02-.562-.09-.59-.109l-1.687 1.078c.371.582 1.137.977 1.996 1.028.067.003.133.003.2.003 1.128 0 2.238-.57 3.078-1.585 1.433-1.743 2.44-3.59 2.484-3.668l.453-.84-.816-.492c-4.532-2.723-7.121-1.43-8.024-.747a3.72 3.72 0 00-1.402 3.739c-.93.593-1.856 1.343-2.594 2.258-.426-.997-1.09-1.891-1.863-2.68.07-.184.117-.363.148-.496.016-.07.031-.137.051-.196.512-1.714-.191-3.714-1.75-4.972-1.11-.895-4.262-2.66-9.562.261l-.684.375.195.75c.04.153.985 3.715 2.864 5.801.812.903 1.832 1.41 2.953 1.465.07.004.14.004.207.004 1.258 0 2.336-.559 2.773-.957l-1.344-1.48c-.015.011-1.695 1.19-3.101-.372-1.09-1.207-1.832-3.144-2.184-4.207 3.785-1.824 5.88-.687 6.625-.086.875.707 1.309 1.75 1.13 2.657C10.8 8.96 8.558 8.07 8.378 8.004l-.723 1.863C9.7 10.657 15 13.484 15 17v3.145a3.99 3.99 0 00-1.98 1.199A3.478 3.478 0 0011.5 21c-1.43 0-2.66.86-3.203 2.094A3.419 3.419 0 007.5 23C5.57 23 4 24.57 4 26.5v.5h2v-.5A1.5 1.5 0 017.5 25c.402 0 .71.168.898.309L10 24.512v-.016A1.505 1.505 0 0111.5 23c.402 0 .781.16 1.066.45l1.621-.282A2.005 2.005 0 0116 22a1.99 1.99 0 011.75 1.063l1.578.242c.2-.196.465-.305.742-.305.586 0 1.067.48 1.067 1.066 0 .118-.024.235-.07.364l1.605 1.09c.265-.239.71-.52 1.328-.52 1.102 0 2 .898 2 2h2c0-2.207-1.793-4-4-4-.344 0-.684.047-1.008.133a3.074 3.074 0 00-4.113-1.895A3.988 3.988 0 0017 20.145V19h.004v-.328c0-4.152 6.531-6.14 6.598-6.16l-.563-1.918c-.102.027-.918.277-1.992.77.078-.415.293-.802.656-1.075 1.059-.805 2.856-.652 4.914.387a22.62 22.62 0 01-1.765 2.492c-.551.668-1.094.836-1.454.855zm-9.914-3.203l.012.157c-.05-.04-.105-.079-.156-.122.047-.011.09-.03.144-.035z"/></svg>