<svg xmlns="http://www.w3.org/2000/svg" width="100%" height="100%" viewBox="0 0 32 32"><path d="M7 3v5.469l.375.312L11.406 12H8.344l-3.75-2.813-1.188 1.626L7.656 14h3.563l-3.594 3H3v2h5.375l.25-.219 1.406-1.156c-.008.125-.031.246-.031.375 0 .176.016.352.031.531l-3.75 3.75-.281.313V29h2v-5.563l2.563-2.562c.273.754.62 1.5 1.062 2.188C12.633 24.628 14.109 26 16 26c1.89 0 3.367-1.371 4.375-2.938a10.98 10.98 0 001.063-2.187L24 23.438V29h2v-6.406l-.281-.313-3.75-3.75c.015-.18.031-.355.031-.531 0-.121-.023-.227-.031-.344l1.406 1.125.281.219H29v-2h-4.656l-3.75-3h3.75l4.25-3.188-1.188-1.624L23.656 12h-3.062l4.031-3.219L25 8.47V3h-2v4.531l-3.125 2.5c-.156-.62-.469-1.156-.875-1.625V5h-2v2.156C16.68 7.074 16.344 7 16 7s-.68.074-1 .156V5h-2v3.406c-.406.469-.719 1.004-.875 1.625L9 7.531V3zm9 6c1.117 0 2 .883 2 2s-.883 2-2 2-2-.883-2-2 .883-2 2-2zm0 6c1.23 0 2.266.297 2.938.781C19.608 16.266 20 16.891 20 18c0 1.11-.512 2.754-1.313 4-.8 1.246-1.82 2-2.687 2-.867 0-1.887-.754-2.688-2-.8-1.246-1.312-2.89-1.312-4 0-1.11.39-1.734 1.063-2.219C13.733 15.297 14.77 15 16 15z"/></svg>