<svg xmlns="http://www.w3.org/2000/svg" width="100%" height="100%" viewBox="0 0 32 32"><path d="M16 3C8.832 3 3 8.832 3 16s5.832 13 13 13 13-5.832 13-13S23.168 3 16 3zm0 2c6.065 0 11 4.935 11 11 0 3.408-1.56 6.457-4 8.477V16a1 1 0 10-2 0v9.785A10.917 10.917 0 0116 27c-1.801 0-3.498-.444-5-1.215V16a1 1 0 10-2 0v8.477c-2.44-2.02-4-5.07-4-8.477C5 9.935 9.935 5 16 5zm-4 5c-1.24 0-2.18.69-2.81 1.28-.64.59-1.03 1.16-1.03 1.16l1.68 1.12s.25-.43.69-.84c.44-.41 1.02-.72 1.47-.72h3v-2h-3zm5 0v2h3c.45 0 1.03.31 1.47.72.44.41.69.84.69.84l1.68-1.12s-.39-.57-1.03-1.16C22.18 10.69 21.24 10 20 10h-3zm-1 6c-1.654 0-3 1.57-3 3.5s1.346 3.5 3 3.5 3-1.57 3-3.5-1.346-3.5-3-3.5zm0 2c.532 0 1 .701 1 1.5s-.468 1.5-1 1.5-1-.701-1-1.5.468-1.5 1-1.5z"/></svg>