<svg xmlns="http://www.w3.org/2000/svg" width="100%" height="100%" viewBox="0 0 32 32"><path d="M10.719 6a2.02 2.02 0 00-1.906 1.375L7.28 12H0v8.219a1.99 1.99 0 001.5 1.937l2.594.657A4 4 0 008 26c1.852 0 3.398-1.281 3.844-3h9.312c.446 1.719 1.992 3 3.844 3 1.852 0 3.398-1.281 3.844-3H30c1.094 0 2-.906 2-2v-3.75a4.007 4.007 0 00-2.906-3.844l-4.532-1.281-3.906-4.688A3.985 3.985 0 0017.594 6zm0 2H14v4H9.375zM16 8h1.594c.593 0 1.152.262 1.531.719L21.875 12H16zM2 14h21.844l4.718 1.344A1.959 1.959 0 0130 17.25V21h-1.156c-.446-1.719-1.992-3-3.844-3-1.852 0-3.398 1.281-3.844 3h-9.312c-.446-1.719-1.992-3-3.844-3-1.773 0-3.262 1.172-3.781 2.781L2 20.22zm6 6c1.117 0 2 .883 2 2s-.883 2-2 2-2-.883-2-2 .883-2 2-2zm17 0c1.117 0 2 .883 2 2s-.883 2-2 2-2-.883-2-2 .883-2 2-2z"/></svg>