<svg xmlns="http://www.w3.org/2000/svg" width="100%" height="100%" viewBox="0 0 32 32"><path d="M15.84 2.998c-.486.003-.97.116-1.365.338L5.39 8.44C4.585 8.893 4 9.883 4 10.795v10.35c0 .906.582 1.895 1.383 2.351l9.09 5.164a2.83 2.83 0 001.384.342c.48 0 .96-.108 1.354-.324l9.393-5.184c.809-.453 1.396-1.44 1.396-2.35v-10.35c0-.917-.591-1.906-1.404-2.349l-9.389-5.127a2.855 2.855 0 00-1.367-.32zM15.86 5a.87.87 0 01.39.074l9.389 5.13c.165.09.361.41.361.59v10.35c0 .167-.187.5-.367.6l-9.39 5.182c-.184.1-.6.1-.782-.004l-9.09-5.164c-.185-.104-.371-.445-.371-.613v-10.35c0-.184.2-.514.37-.61l9.083-5.105c.094-.054.251-.08.406-.08zm5.32 8.137c-3.706 0-3.844 5.726 0 5.726 3.762 0 3.758-5.726 0-5.726zm-10.59.101c-.863 0-1.727.008-2.59.008v5.492h1.035v-1.617h1.555c2.69 0 2.683-3.883 0-3.883zm2.72 0v5.5h1.038v-1.836h.996l1.6 1.836h1.232v-.07l-1.664-1.875c2.003-.407 1.884-3.532-.588-3.547-.871 0-1.742-.008-2.613-.008zm7.87.84c2.388 0 2.425 3.836 0 3.836s-2.405-3.836 0-3.836zm-12.178.045h1.75c1.147 0 1.143 2.104 0 2.104h-1.75v-2.104zm5.346.088h1.576c1.264 0 1.259 1.758 0 1.758h-1.576V14.21z"/></svg>