<svg xmlns="http://www.w3.org/2000/svg" width="100%" height="100%" viewBox="0 0 32 32"><path d="M10 5c-4.962 0-9 4.037-9 9v1c0 .77.302 1.467.783 2A2.976 2.976 0 001 19v1c0 3.859 3.14 7 7 7h16c3.86 0 7-3.141 7-7v-1c0-.77-.302-1.467-.783-2 .481-.533.783-1.23.783-2v-1c0-4.963-4.038-9-9-9H10zm0 2h12c2.799 0 5.213 1.654 6.332 4.033-.11-.012-.219-.033-.332-.033-.61 0-1.17.18-1.64.49A3.49 3.49 0 0023.5 10c-.76 0-1.46.25-2.03.66A3.514 3.514 0 0018.5 9c-.98 0-1.86.41-2.5 1.06A3.498 3.498 0 0013.5 9c-1.25 0-2.35.67-2.97 1.66-.57-.41-1.27-.66-2.03-.66-1.18 0-2.23.59-2.86 1.49C5.17 11.18 4.61 11 4 11c-.113 0-.222.02-.332.033C4.788 8.654 7.201 7 10 7zm3.5 4c.83 0 1.5.67 1.5 1.5V15c0 .55-.45 1-1 1h-1c-.55 0-1-.45-1-1v-2.5c0-.83.67-1.5 1.5-1.5zm5 0c.83 0 1.5.67 1.5 1.5V15c0 .55-.45 1-1 1h-1c-.55 0-1-.45-1-1v-2.5c0-.83.67-1.5 1.5-1.5zm-10 1c.83 0 1.5.67 1.5 1.5V15c0 .55-.45 1-1 1H8c-.55 0-1-.45-1-1v-1.5c0-.83.67-1.5 1.5-1.5zm15 0c.83 0 1.5.67 1.5 1.5V15c0 .55-.45 1-1 1h-1c-.55 0-1-.45-1-1v-1.5c0-.83.67-1.5 1.5-1.5zM4 13c.55 0 1 .45 1 1v1c0 .55-.45 1-1 1s-1-.45-1-1v-1c0-.55.45-1 1-1zm24 0c.55 0 1 .45 1 1v1c0 .55-.45 1-1 1s-1-.45-1-1v-1c0-.55.45-1 1-1zM4 18c.55 0 1 .45 1 1s-.45 1-1 1-1-.45-1-1 .45-1 1-1zm4 0h1c.55 0 1 .45 1 1v1c0 .55-.45 1-1 1-1.1 0-2-.9-2-2 0-.55.45-1 1-1zm5 0h1c.55 0 1 .45 1 1v1c0 .55-.45 1-1 1h-1c-.55 0-1-.45-1-1v-1c0-.55.45-1 1-1zm5 0h1c.55 0 1 .45 1 1v1c0 .55-.45 1-1 1h-1c-.55 0-1-.45-1-1v-1c0-.55.45-1 1-1zm5 0h1c.55 0 1 .45 1 1 0 1.1-.9 2-2 2-.55 0-1-.45-1-1v-1c0-.55.45-1 1-1zm5 0c.55 0 1 .45 1 1s-.45 1-1 1-1-.45-1-1 .45-1 1-1zM5.8 21.38C6.54 22.36 7.69 23 9 23c.77 0 1.47-.3 2-.78.53.48 1.23.78 2 .78h1c.77 0 1.47-.3 2-.78.53.48 1.23.78 2 .78h1c.77 0 1.47-.3 2-.78.53.48 1.23.78 2 .78 1.31 0 2.46-.64 3.2-1.62.5.39 1.12.62 1.8.62.208 0 .413-.022.61-.063A5.007 5.007 0 0124 25H8a5.007 5.007 0 01-4.61-3.063c.197.041.402.063.61.063.68 0 1.3-.23 1.8-.62z"/></svg>