<svg xmlns="http://www.w3.org/2000/svg" width="100%" height="100%" viewBox="0 0 32 32"><path d="M7 4C5.355 4 4 5.355 4 7s1.355 3 3 3 3-1.355 3-3-1.355-3-3-3zm11.938.906A9.365 9.365 0 0018 4.97c-2.469.289-4.773 1.554-6.531 3.312-1.235 1.23-2.258 3-2.594 6.281a.88.88 0 00-.031.094v.031c-.024.051-.047.102-.063.157-.004.023.004.035 0 .062v.125c.004.063.016.125.031.188.016.062.036.129.063.187.05.899.176 1.817.5 2.688h-.031c.015.086.117.515.125.937.004.317-.11.606-.125.688-.61.605-1.34 1.238-2.031 1.781-.692.543-1.29 1.012-1.72 1.438h-.03A2.33 2.33 0 004.968 25c.152.7.554 1.305 1.093 1.844.536.535 1.145.933 1.844 1.093.7.16 1.547-.046 2.094-.593.438-.438.86-1.055 1.406-1.75.547-.696 1.168-1.45 1.781-2.063-.07.07.235-.093.626-.093.316 0 .578.03.78.062.052.008.157.027.188.031.871.324 1.79.446 2.688.5.011 0 .02.032.031.032.07.019.145.027.219.03a.879.879 0 00.093.032H18c.063-.004.125-.016.188-.031.039-.004.054-.028.093-.032h.032c3.011-.25 5.03-1.34 6.312-2.625 1.758-1.757 3.023-4.062 3.313-6.53.289-2.47-.481-5.106-2.657-7.282-1.902-1.902-4.156-2.734-6.343-2.719zM7 6c.563 0 1 .438 1 1 0 .563-.438 1-1 1-.563 0-1-.438-1-1 0-.563.438-1 1-1zm11.938.906c1.687-.031 3.378.567 4.937 2.125 1.785 1.781 2.29 3.73 2.063 5.656-.227 1.926-1.239 3.864-2.72 5.344-.995.996-2.44 1.774-4.968 2l-7.375-7.375c.293-2.82.988-3.894 2.031-4.937 1.48-1.48 3.383-2.524 5.313-2.75.242-.028.476-.059.718-.063zM11.343 18l3.562 3.531a6.287 6.287 0 00-1.094-.093c-.609.003-1.382.039-2.03.687a25.044 25.044 0 00-1.938 2.219c-.559.71-1.055 1.367-1.281 1.593-.118.118-.06.098-.22.063s-.484-.234-.843-.594c-.352-.351-.527-.676-.563-.843-.035-.168-.07-.122.032-.22.21-.21.847-.718 1.562-1.28.715-.563 1.531-1.22 2.25-1.938.692-.691.7-1.492.688-2.125-.008-.48-.082-.762-.125-1z"/></svg>