<svg xmlns="http://www.w3.org/2000/svg" width="100%" height="100%" viewBox="0 0 32 32"><path d="M16 5a6.95 6.95 0 00-6.33 4H9.6l-.149.523a6.944 6.944 0 00-.178.54c-.006.02-.015.038-.021.058L5.6 7.2 4.4 8.801 7.1 11H4v2h5.066c.042.319.108.63.204.928.052.187.114.369.181.549L9.6 15h.07a6.926 6.926 0 002.4 2.813C8.51 19.346 6 22.892 6 27h2c0-4.4 3.6-8 8-8s8 3.6 8 8h2c0-4.107-2.51-7.655-6.07-9.19a6.93 6.93 0 002.4-2.81h.07l.03-.209c.366-.853.57-1.795.57-2.791 0-3.9-3.1-7-7-7zm0 2a4.95 4.95 0 014.002 2h-8.004A4.95 4.95 0 0116 7zm-4.9 4h9.8c.01.031.01.07.018.104.05.29.082.589.082.896 0 .307-.031.606-.082.896-.008.033-.007.073-.018.104h-9.8c-.01-.031-.01-.07-.018-.104-.05-.29-.082-.589-.082-.896 0-.307.031-.606.082-.896.008-.033.007-.073.018-.104zm.898 4h8.004A4.95 4.95 0 0116 17a4.95 4.95 0 01-4.002-2z"/></svg>