<svg xmlns="http://www.w3.org/2000/svg" width="100%" height="100%" viewBox="0 0 32 32"><path d="M16 3C8.832 3 3 8.832 3 16s5.832 13 13 13 13-5.832 13-13S23.168 3 16 3zm0 2c6.087 0 11 4.913 11 11s-4.913 11-11 11S5 22.087 5 16 9.913 5 16 5zm6.182 6l-1.446.207a.239.239 0 00-.2.24.23.23 0 000 .037l.08.422c.076.425.157.964.236 1.615.078.671.12 1.347.125 2.022.013 1.29-.147 2.23-.42 2.852-.274.62-.896 1.214-1.56 1.353-.905.191-1.828.273-2.75.246h-.493a11.617 11.617 0 01-2.752-.246c-.667-.136-1.277-.717-1.553-1.338-.269-.62-.47-1.575-.46-2.867.004-.676.046-1.35.126-2.022.077-.653.156-1.19.233-1.615l.082-.422a.23.23 0 000-.037.245.245 0 00-.201-.24l-1.416-.205h-.034a.243.243 0 00-.234.185c-.026.098-.04.173-.088.407-.088.45-.17.891-.26 1.533-.095.698-.15 1.4-.172 2.103-.034.49-.034.983 0 1.473.037 1.3.261 2.336.672 3.115.412.777 1.108 1.336 2.09 1.678.982.342 2.35.509 4.104.502h.22c1.755.007 3.124-.16 4.104-.502.98-.34 1.677-.9 2.088-1.678.41-.777.636-1.815.672-3.115.033-.49.034-.983 0-1.473a19.748 19.748 0 00-.172-2.103 30.986 30.986 0 00-.26-1.535c-.049-.234-.062-.306-.088-.405a.239.239 0 00-.234-.187h-.04z"/></svg>