<svg xmlns="http://www.w3.org/2000/svg" width="100%" height="100%" viewBox="0 0 32 32"><path d="M16 3l-3 5h2v12.063c-.781-.329-1.59-.454-2.344-.563-.875-.125-1.672-.25-2.094-.469C10.142 18.813 10 18.707 10 18v-2.281c.598-.348 1-.98 1-1.719a1.999 1.999 0 10-4 0c0 .738.402 1.371 1 1.719V18c0 1.293.734 2.313 1.625 2.781.89.469 1.844.594 2.719.719.875.125 1.672.25 2.094.469.421.218.562.324.562 1.031v.187c-1.16.415-2 1.512-2 2.813a3 3 0 006 0c0-1.3-.84-2.398-2-2.813A.753.753 0 0017 23v-1.844c.004-.05.004-.105 0-.156 0-.668.191-.863.75-1.188.559-.324 1.5-.593 2.5-.843s2.059-.48 3-1.032C24.191 17.387 25 16.332 25 15v-2h1V9h-4v4h1v2c0 .668-.191.863-.75 1.188-.559.324-1.5.593-2.5.843-.914.227-1.875.453-2.75.907V8h2z"/></svg>