<svg xmlns="http://www.w3.org/2000/svg" width="100%" height="100%" viewBox="0 0 32 32"><path d="M27.988 10.41c-.105 2.344-1.738 5.547-4.894 9.617-3.266 4.246-6.024 6.371-8.282 6.371-1.402 0-2.585-1.293-3.55-3.878-.649-2.375-1.293-4.747-1.938-7.118-.719-2.59-1.488-3.882-2.312-3.882-.18 0-.809.378-1.883 1.132L4 11.195a353.385 353.385 0 003.504-3.129C9.082 6.7 10.27 5.98 11.059 5.906c1.867-.18 3.02 1.098 3.449 3.836.465 2.957.789 4.793.969 5.512.539 2.453 1.132 3.676 1.78 3.676.5 0 1.255-.793 2.263-2.383 1.003-1.594 1.543-2.8 1.617-3.633.14-1.371-.399-2.059-1.617-2.059-.575 0-1.168.13-1.778.391 1.18-3.867 3.434-5.75 6.762-5.64 2.465.07 3.625 1.671 3.484 4.804z"/></svg>