<svg xmlns="http://www.w3.org/2000/svg" width="100%" height="100%" viewBox="0 0 32 32"><path d="M17.7 4c-5 0-10.1 3.3-11.1 8.3-.6 3 .2 5.8-2.3 5.8-1.1 0-1.8 1.3-1.1 2.2 1.4 1.9 3.3 3 5.2 3.7l.616.246A2.5 2.5 0 0011.5 27a2.5 2.5 0 002.445-2h4.108a2.5 2.5 0 002.447 2 2.5 2.5 0 002.371-3.291c4.19-2.13 6.518-6.371 5.729-10.908C28 7.7 23 4 17.7 4zm0 2c4.5 0 8.5 3.1 9.2 7.3.6 3.6-1.3 7.1-4.8 8.8l-.454.181A2.5 2.5 0 0020.5 22a2.5 2.5 0 00-1.998 1H13.9c-.122 0-.28-.016-.42-.021A2.5 2.5 0 0011.5 22a2.5 2.5 0 00-1.367.41l-.033-.01-.9-.3c-1.4-.5-2.6-1.2-3.6-2.2 2.4-.7 2.6-3.5 2.7-5.1.1-.7.1-1.4.2-2.1.9-4.2 5.3-6.7 9.2-6.7zm-3.2 5a1.5 1.5 0 000 3 1.5 1.5 0 000-3zm6 0a1.5 1.5 0 000 3 1.5 1.5 0 000-3zm-6.895 3.979A.436.436 0 0013.4 15c-.3.1-.5.3-.4.6.5 2.3 2.7 3.4 4.5 3.4 1.8 0 4-1.1 4.5-3.4 0-.3-.1-.5-.4-.6-.3 0-.5.1-.6.4-.4 1.8-2.1 2.6-3.5 2.6s-3.1-.8-3.5-2.6c-.075-.225-.207-.393-.395-.421z"/></svg>