<svg xmlns="http://www.w3.org/2000/svg" width="100%" height="100%" viewBox="0 0 32 32"><path d="M21.938 6.281a6.314 6.314 0 00-1.625.125.93.93 0 00-.72 1.094.93.93 0 001.095.719c1.527-.324 3.19.136 4.312 1.375a4.552 4.552 0 01.938 4.437c-.157.485.109 1 .593 1.156.48.157 1-.113 1.157-.593.671-2.09.265-4.473-1.313-6.219a6.395 6.395 0 00-4.438-2.094zm-8.282 2.75c-1.676.18-4.015 1.485-6.094 3.563C5.301 14.859 4 17.27 4 19.344c0 3.968 5.082 6.375 10.063 6.375 6.527 0 10.874-3.801 10.874-6.813 0-1.82-1.527-2.855-2.906-3.281-.34-.102-.582-.148-.406-.594.383-.965.445-1.812.031-2.406-.777-1.113-2.933-1.055-5.375-.031 0 0-.758.36-.562-.25.375-1.207.304-2.227-.281-2.813-.415-.414-1.02-.582-1.782-.5zm8.125.5a3.091 3.091 0 00-.781.063.827.827 0 00-.625.969.781.781 0 00.938.593 1.568 1.568 0 011.468.469c.375.414.473.973.313 1.469a.794.794 0 00.5 1 .793.793 0 001-.5 3.102 3.102 0 00-.657-3.031 3.1 3.1 0 00-2.156-1.032zm-7.187 5.281c3.32.118 5.992 1.782 6.219 4.063.257 2.61-2.747 5.047-6.72 5.438-3.972.39-7.429-1.422-7.687-4.032-.258-2.61 2.778-5.047 6.75-5.437.496-.051.965-.047 1.438-.031zM13.03 16.75c-1.437.137-2.789.969-3.406 2.219-.836 1.699-.035 3.601 1.875 4.218 1.98.637 4.313-.351 5.125-2.187.8-1.793-.2-3.621-2.156-4.125a4.162 4.162 0 00-1.438-.125zm.906 2.188a.36.36 0 01.157.03c.242.09.351.356.219.595-.141.238-.446.347-.688.25-.238-.098-.32-.36-.188-.594a.613.613 0 01.5-.282zm-1.843.562c.168.004.347.027.5.094.62.265.816.976.437 1.593-.383.614-1.191.907-1.812.625-.61-.277-.79-.996-.406-1.593.285-.446.78-.727 1.28-.719z"/></svg>