<svg xmlns="http://www.w3.org/2000/svg" width="100%" height="100%" viewBox="0 0 599.04 599.04"><path fill="currentColor" d="M486.5 364.9c11.8 12.1 1.7 30.6-16.7 30.6h-138.3v32h112c8.8 0 16 7.2 16 16v96c0 8.8-7.2 16-16 16h-288c-8.8 0-16-7.2-16-16v-96c0-8.8 7.2-16 16-16h112v-32h-138.3c-18.4 0-28.4-18.4-16.6-30.6l94.2-97.4h-49.2c-15.3 0-23.7-16.6-13.9-27.5l113.4-126.5c-3.4-6.6-5.5-14-5.6-22 0-26.5 21.5-48 48-48s48 21.5 48 48c0 8-2.1 15.3-5.5 22l113.3 126.5c9.8 10.9 1.4 27.5-13.9 27.5h-49.2zM299.5 75.5c-8.8 0-16 7.2-16 16 0 8.8 7.2 16 16 16s16-7.2 16-16c0-8.8-7.2-16-16-16zM411.5 475.5h-224v32h224v-32z" /></svg>