<svg xmlns="http://www.w3.org/2000/svg" width="100%" height="100%" viewBox="0 0 599.04 599.04"><path fill="currentColor" d="M299.2 282.5l136-136c9.4-9.4 24.6-9.4 33.9 0l22.6 22.6c9.4 9.4 9.4 24.6 0 33.9l-96.3 96.5 96.4 96.4c9.4 9.4 9.4 24.6 0 33.9l-22.6 22.7c-9.4 9.4-24.6 9.4-33.9 0l-136-136c-9.5-9.4-9.5-24.6-0.1-34zM107.2 316.5c-9.4-9.4-9.4-24.6 0.1-34l136-136c9.3-9.4 24.5-9.4 33.9 0l22.6 22.7c9.4 9.3 9.4 24.5 0 33.9l-96.4 96.4 96.3 96.5c9.4 9.3 9.4 24.5 0 33.9l-22.6 22.6c-9.3 9.4-24.5 9.4-33.9 0z" /></svg>