<svg xmlns="http://www.w3.org/2000/svg" width="100%" height="100%" viewBox="0 0 448 512"><path fill="currentColor" d="M432 416c8.8 0 16 7.2 16 16v32c0 8.8-7.2 16-16 16h-416c-8.8 0-16-7.2-16-16v-32c0-8.8 7.2-16 16-16h416zM432 288c8.8 0 16 7.2 16 16v32c0 8.8-7.2 16-16 16h-416c-8.8 0-16-7.2-16-16v-32c0-8.8 7.2-16 16-16h416zM432 160c8.8 0 16 7.2 16 16v32c0 8.8-7.2 16-16 16h-416c-8.8 0-16-7.2-16-16v-32c0-8.8 7.2-16 16-16h416zM432 32c8.8 0 16 7.2 16 16v32c0 8.8-7.2 16-16 16h-416c-8.8 0-16-7.2-16-16v-32c0-8.8 7.2-16 16-16h416z" /></svg>