<svg xmlns="http://www.w3.org/2000/svg" width="100%" height="100%" viewBox="0 0 673.92 673.92"><path fill="currentColor" d="M441 145c-4.4 0-8 3.6-8 8v16c0 4.4 3.6 8 8 8h157.8l-17.5 64h-140.3c-4.4 0-8 3.6-8 8v16c0 4.4 3.6 8 8 8h131.6l-17.5 64h-114.1c-4.4 0-8 3.6-8 8v16c0 4.4 3.6 8 8 8h105.4l-17.4 64h-288v-352h384l-17.5 64h-166.5zM207.8 416c3 7.4 0.2 15.9-6.7 20l-39.4 24.2c-12.5 7.7-31.8 6-41.7-4.8-94.1-102.9-94.7-258.9-2.1-362.5 11.1-12.5 29.6-15.8 43.9-7l39.3 24.1c6.9 4.2 9.7 12.7 6.7 20.1l-25.8 63.2c-2.8 6.8-9.8 11-17.3 10.3l-45-4.4c-17.7 47.9-17.3 100.8 0 147.7l45-4.4c7.4-0.7 14.5 3.5 17.3 10.2zM529 465c35.3 0 64 28.7 64 64v32c0 17.7-14.3 32-32 32h-352c-17.7 0-32-14.3-32-32v-32c0-35.3 28.7-64 64-64h288zM385 561c17.7 0 32-14.3 32-32s-14.3-32-32-32-32 14.3-32 32 14.3 32 32 32z" /></svg>