<svg xmlns="http://www.w3.org/2000/svg" width="100%" height="100%" viewBox="0 0 748.8 748.8"><path fill="currentColor" d="M54.4 278.4c0-35.3 28.7-64 64-64h96v320h-96c-35.3 0-64-28.7-64-64v-192zM630.4 214.4c35.3 0 64 28.7 64 64v192c0 35.3-28.7 64-64 64h-96v-320h96zM246.4 534.4v-320h256v320h-256zM422.4 302.4c-13.3 0-24 10.7-24 24s10.7 24 24 24 24-10.7 24-24-10.7-24-24-24zM422.4 398.4c-13.3 0-24 10.7-24 24s10.7 24 24 24 24-10.7 24-24-10.7-24-24-24zM326.4 302.4c-13.3 0-24 10.7-24 24s10.7 24 24 24 24-10.7 24-24-10.7-24-24-24zM326.4 398.4c-13.3 0-24 10.7-24 24s10.7 24 24 24 24-10.7 24-24-10.7-24-24-24z" /></svg>