<svg xmlns="http://www.w3.org/2000/svg" width="100%" height="100%" viewBox="0 0 599.04 599.04"><path fill="currentColor" d="M43.5 491.5v-384h18v384h-18zM70.4 491.2v-383.7h9.1v383.7h-9.1zM97.5 491.2v-383.7h8.9v383.7h-8.9zM142.4 491.2v-383.7h8.8v383.7h-8.8zM178.4 491.2v-383.7h17.7v383.7h-17.7zM223.2 491.2v-383.7h8.9v383.7h-8.9zM241.2 491.2v-383.7h8.9v383.7h-8.9zM259.2 491.2v-383.7h8.9v383.7h-8.9zM294.9 491.2v-383.7h18v383.7h-18zM339.8 491.2v-383.7h18v383.7h-18zM375.8 491.2v-383.7h18v383.7h-18zM411.8 491.2v-383.7h18v383.7h-18zM438.7 491.2v-383.7h18v383.7h-18zM483.8 491.2v-383.7h26.9v383.7h-26.9zM519.5 491.2v-383.7h9.2v383.7h-9.2zM537.5 491.5v-384h18v384h-18z" /></svg>