<svg xmlns="http://www.w3.org/2000/svg" width="100%" height="100%" viewBox="0 0 748.8 748.8"><path fill="currentColor" d="M262.4 438.4c-8.8 0-16-7.2-16-16v-256c0-8.8 7.2-16 16-16h144v128l48-32 48 32v-128h144c8.8 0 16 7.2 16 16v256c0 8.8-7.2 16-16 16h-384zM678.4 502.4c8.8 0 16 7.2 16 16v32c0 8.8-7.2 16-16 16h-82.8c1.7 5 2.9 10.4 2.9 16 0 26.5-21.5 48-48 48s-48-21.5-48-48c0-5.6 1.1-11 2.9-16h-197.9c1.7 5 2.9 10.4 2.9 16 0 26.5-21.5 48-48 48s-48-21.5-48-48c0-5.6 1.1-11 2.9-16h-82.9c-8.8 0-16-7.2-16-16v-368h-48c-8.8 0-16-7.2-16-16v-32c0-8.8 7.2-16 16-16h96c8.8 0 16 7.2 16 16v368h496z" /></svg>