<svg xmlns="http://www.w3.org/2000/svg" width="100%" height="100%" viewBox="0 0 599.04 599.04"><path fill="currentColor" d="M547.5 299.5c0 137-111 248-248 248s-248-111-248-248 111-248 248-248 248 111 248 248zM499.5 299.5l0-0.3-26 22.8-62.7-58.5 16.4-84.4 34.3 3.1c-24.9-34.2-60-60.1-100.7-73.1l13.7 31.9-75 41.5-74.9-41.5 13.6-31.9c-40.6 13-75.8 38.9-100.7 73.1l34.6-3.1 16.2 84.4-62.7 58.5-26.1-22.8 0 0.3c0 43 13.5 84 38.5 118l7.7-33.9 85.1 10.5 36.3 77.8-29.9 17.8c40.2 13.1 84.3 13.1 124.6 0l-29.9-17.8 36.3-77.8 85.1-10.5 7.7 33.9c25-34 38.5-75 38.5-118zM251.4 369.1l-29.9-91.3 78-56.5 78 56.5-29.6 91.3h-96.5z" /></svg>