<svg xmlns="http://www.w3.org/2000/svg" width="100%" height="100%" viewBox="0 0 384 512"><path fill="currentColor" d="M384 121.9v6.1h-128v-128h6.1c6.4 0 12.5 2.5 16.9 7l98 98c4.3 4.3 7 10.3 7 16.9zM248 160h136v328c0 13.3-10.7 24-24 24h-336c-13.3 0-24-10.7-24-24v-464c0-13.3 10.7-24 24-24h200v136c0 13.2 10.8 24 24 24zM123.2 400.5l19.6-20.9c0.9-1 1.5-2.3 1.4-3.7 0-1.6-0.7-3.1-1.8-4l-40.7-35.9 40.7-35.9c1.1-1 1.8-2.4 1.8-4 0-1.4-0.6-2.7-1.4-3.7l-19.6-20.9c-1-1.1-2.4-1.7-3.9-1.7-1.4 0-2.7 0.6-3.7 1.4l-64.9 60.9c-1.1 1-1.7 2.4-1.7 3.9 0 1.6 0.7 3 1.7 3.9l64.9 60.9c1 0.9 2.3 1.5 3.7 1.4 1.6 0 3-0.7 3.9-1.7zM174.5 451c0.5 0.1 1 0.2 1.5 0.2 2.5 0 4.5-1.6 5.2-3.9l61.4-211.6c0.1-0.5 0.2-1 0.2-1.5 0-2.5-1.6-4.5-3.8-5.2l-27.5-8c-0.5-0.1-1-0.2-1.5-0.2-2.5 0-4.5 1.6-5.2 3.9l-61.4 211.6c-0.1 0.5-0.2 1-0.2 1.5 0 2.5 1.6 4.5 3.8 5.2zM335.3 339.9c1.1-1 1.7-2.4 1.7-3.9 0-1.6-0.7-3-1.7-3.9l-64.9-60.9c-1-0.9-2.3-1.5-3.7-1.4-1.6 0-3 0.7-3.9 1.7l-19.6 20.9c-0.9 1-1.5 2.3-1.4 3.7 0 1.6 0.7 3.1 1.8 4l40.7 35.9-40.7 35.9c-1.1 1-1.8 2.4-1.8 4 0 1.4 0.6 2.7 1.4 3.7l19.6 20.9c1 1.1 2.4 1.7 3.9 1.7 1.4 0 2.7-0.6 3.7-1.4z" /></svg>