<svg xmlns="http://www.w3.org/2000/svg" width="100%" height="100%" viewBox="0 0 384 512"><path fill="currentColor" d="M384 121.9v6.1h-128v-128h6.1c6.6 0 12.6 2.7 16.9 7l98 98c4.3 4.3 7 10.3 7 16.9zM248 160h136v328c0 13.3-10.7 24-24 24h-336c-13.3 0-24-10.7-24-24v-464c0-13.3 10.7-24 24-24h200v136c0 13.2 10.8 24 24 24zM112.5 176c-26.5 0-48 21.5-48 48s21.5 48 48 48 48-21.5 48-48-21.5-48-48-48zM320.5 416v-112l-39.5-39.5c-4.7-4.7-12.3-4.7-16.9 0l-103.6 103.5-39.5-39.5c-4.7-4.7-11.8-5.2-16.5-0.5l-39.5 39.5-0.5 48.5h256z" /></svg>