<svg xmlns="http://www.w3.org/2000/svg" width="100%" height="100%" viewBox="0 0 599.04 599.04"><path fill="currentColor" d="M331.5 179.5c0 13.2 10.8 24 24 24h136v328c0 13.3-10.7 24-24 24h-336c-13.3 0-24-10.7-24-24v-464c0-13.3 10.7-24 24-24h200v136zM395.5 415.5v-8c0-6.6-5.4-12-12-12h-168c-6.6 0-12 5.4-12 12v8c0 6.6 5.4 12 12 12h168c6.6 0 12-5.4 12-12zM395.5 351.5v-8c0-6.6-5.4-12-12-12h-168c-6.6 0-12 5.4-12 12v8c0 6.6 5.4 12 12 12h168c6.6 0 12-5.4 12-12zM395.5 279.5c0-6.6-5.4-12-12-12h-168c-6.6 0-12 5.4-12 12v8c0 6.6 5.4 12 12 12h168c6.6 0 12-5.4 12-12v-8zM491.5 165.4v6.1h-128v-128h6.1c6.4 0 12.5 2.5 17 7l97.9 98c4.5 4.5 7 10.6 7 16.9z" /></svg>