<svg xmlns="http://www.w3.org/2000/svg" width="100%" height="100%" viewBox="0 0 599.04 599.04"><path fill="currentColor" d="M299.5 51.5c137 0 248 111 248 248s-111 248-248 248-248-111-248-248 111-248 248-248zM363.2 180.2c-12.4 18.4-15.2 36.9-15.7 55.3 0.6 18.4 3.3 36.9 15.7 55.3 8 11.7 25.1 11.4 32.7 0 12.4-18.4 15.2-36.9 15.7-55.3-0.6-18.4-3.3-36.9-15.7-55.3-8-11.7-25.1-11.4-32.7 0zM203.2 180.2c-12.4 18.4-15.2 36.9-15.7 55.3 0.6 18.4 3.3 36.9 15.7 55.3 8 11.7 25.1 11.4 32.7 0 12.4-18.4 15.2-36.9 15.7-55.3-0.6-18.4-3.3-36.9-15.7-55.3-8-11.7-25.1-11.4-32.7 0zM299.5 475.5c60.6 0 134.5-38.3 143.8-93.3 1.9-11.8-9.3-21.6-20.7-17.9-30.2 9.7-75.1 15.2-123.1 15.2s-92.9-5.5-123.1-15.2c-11.4-3.7-22.7 6.1-20.7 17.9 9.3 55 83.2 93.3 143.8 93.3z" /></svg>