<svg xmlns="http://www.w3.org/2000/svg" width="100%" height="100%" viewBox="0 0 448 512"><path fill="currentColor" d="M96 288c17.7 0 32 14.3 32 32v64c0 17.7-14.3 32-32 32h-64c-17.7 0-32-14.3-32-32v-64c0-17.7 14.3-32 32-32h64zM256 288c17.7 0 32 14.3 32 32v64c0 17.7-14.3 32-32 32h-64c-17.7 0-32-14.3-32-32v-64c0-17.7 14.3-32 32-32h64zM416 288c17.7 0 32 14.3 32 32v64c0 17.7-14.3 32-32 32h-64c-17.7 0-32-14.3-32-32v-64c0-17.7 14.3-32 32-32h64zM96 96c17.7 0 32 14.3 32 32v64c0 17.7-14.3 32-32 32h-64c-17.7 0-32-14.3-32-32v-64c0-17.7 14.3-32 32-32h64zM256 96c17.7 0 32 14.3 32 32v64c0 17.7-14.3 32-32 32h-64c-17.7 0-32-14.3-32-32v-64c0-17.7 14.3-32 32-32h64zM416 96c17.7 0 32 14.3 32 32v64c0 17.7-14.3 32-32 32h-64c-17.7 0-32-14.3-32-32v-64c0-17.7 14.3-32 32-32h64z" /></svg>