<svg xmlns="http://www.w3.org/2000/svg" width="100%" height="100%" viewBox="0 0 673.92 673.92"><path fill="currentColor" d="M609 145h-16v384h16c8.8 0 16 7.2 16 16v32c0 8.8-7.2 16-16 16h-240v-80c0-8.8-7.2-16-16-16h-32c-8.8 0-16 7.2-16 16v80h-240c-8.8 0-16-7.2-16-16v-32c0-8.8 7.2-16 16-16h15.9v-384h-15.9c-8.8 0-16-7.2-16-16v-32c0-8.8 7.2-16 16-16h544c8.8 0 16 7.2 16 16v32c0 8.8-7.2 16-16 16zM305 189.8v38.4c0 6.4 6.4 12.8 12.8 12.8h38.4c6.4 0 12.8-6.4 12.8-12.8v-38.4c0-6.4-6.4-12.8-12.8-12.8h-38.4c-6.4 0-12.8 6.4-12.8 12.8zM305 285.8v38.4c0 6.4 6.4 12.8 12.8 12.8h38.4c6.4 0 12.8-6.4 12.8-12.8v-38.4c0-6.4-6.4-12.8-12.8-12.8h-38.4c-6.4 0-12.8 6.4-12.8 12.8zM177 189.8v38.4c0 6.4 6.4 12.8 12.8 12.8h38.4c6.4 0 12.8-6.4 12.8-12.8v-38.4c0-6.4-6.4-12.8-12.8-12.8h-38.4c-6.4 0-12.8 6.4-12.8 12.8zM228.2 337c6.4 0 12.8-6.4 12.8-12.8v-38.4c0-6.4-6.4-12.8-12.8-12.8h-38.4c-6.4 0-12.8 6.4-12.8 12.8v38.4c0 6.4 6.4 12.8 12.8 12.8h38.4zM241 465h192c0-53-43-96-96-96s-96 43-96 96zM497 324.2v-38.4c0-6.4-6.4-12.8-12.8-12.8h-38.4c-6.4 0-12.8 6.4-12.8 12.8v38.4c0 6.4 6.4 12.8 12.8 12.8h38.4c6.4 0 12.8-6.4 12.8-12.8zM497 228.2v-38.4c0-6.4-6.4-12.8-12.8-12.8h-38.4c-6.4 0-12.8 6.4-12.8 12.8v38.4c0 6.4 6.4 12.8 12.8 12.8h38.4c6.4 0 12.8-6.4 12.8-12.8z" /></svg>