<svg xmlns="http://www.w3.org/2000/svg" width="100%" height="100%" viewBox="0 0 599.04 599.04"><path fill="currentColor" d="M523.5 535.5v20h-448v-20c0-6.6 5.4-12 12-12h20v-360c0-13.3 10.7-24 24-24h88v-72c0-13.3 10.7-24 24-24h112c13.3 0 24 10.7 24 24v72h88c13.3 0 24 10.7 24 24v360h20c6.6 0 12 5.4 12 12zM383.5 235.5h-40c-6.6 0-12 5.4-12 12v40c0 6.6 5.4 12 12 12h40c6.6 0 12-5.4 12-12v-40c0-6.6-5.4-12-12-12zM215.5 299.5h40c6.6 0 12-5.4 12-12v-40c0-6.6-5.4-12-12-12h-40c-6.6 0-12 5.4-12 12v40c0 6.6 5.4 12 12 12zM319.5 427.5h-40c-6.6 0-12 5.4-12 12v84h64v-84c0-6.6-5.4-12-12-12zM383.5 331.5h-40c-6.6 0-12 5.4-12 12v40c0 6.6 5.4 12 12 12h40c6.6 0 12-5.4 12-12v-40c0-6.6-5.4-12-12-12zM267.5 343.5c0-6.6-5.4-12-12-12h-40c-6.6 0-12 5.4-12 12v40c0 6.6 5.4 12 12 12h40c6.6 0 12-5.4 12-12v-40zM257.5 139.5h26v26c0 3.3 2.7 6 6 6h20c3.3 0 6-2.7 6-6v-26h26c3.3 0 6-2.7 6-6v-20c0-3.3-2.7-6-6-6h-26v-26c0-3.3-2.7-6-6-6h-20c-3.3 0-6 2.7-6 6v26h-26c-3.3 0-6 2.7-6 6v20c0 3.3 2.7 6 6 6z" /></svg>