<svg xmlns="http://www.w3.org/2000/svg" width="100%" height="100%" viewBox="0 0 599.04 599.04"><path fill="currentColor" d="M467.5 43.5c13.3 0 24 10.7 24 24v16c0 13.3-10.7 24-24 24 0 91-51 167.7-120.8 192 69.8 24.3 120.8 101 120.8 192 13.3 0 24 10.7 24 24v16c0 13.3-10.7 24-24 24h-336c-13.3 0-24-10.7-24-24v-16c0-13.3 10.7-24 24-24 0-91 51-167.7 120.9-192-69.8-24.3-120.8-101-120.9-192-13.3 0-24-10.7-24-24v-16c0-13.3 10.7-24 24-24h336zM403.5 491.5c0-77.5-46.2-144-104-144-57.8 0-104 66.5-104 144h208z" /></svg>