<svg xmlns="http://www.w3.org/2000/svg" width="100%" height="100%" viewBox="0 0 673.92 673.92"><path fill="currentColor" d="M545 305c-26.5 0-48-21.5-48-48s21.5-48 48-48 48 21.5 48 48-21.5 48-48 48zM360.4 259.4l-16.1 5 21-66.2c3.5-11.1 14.2-18.9 25.7-17.5 12.1 1.3 21.5 11.5 21.4 23.9 0 2.5-0.4 5-1.1 7.2l-15.3 48.7c-5.9-2.2-12.3-3.4-19-3.5 0 0 0 0-0.1 0-5.7 0-11.3 0.9-16.5 2.4zM142.6 467.3c-36.4-21.1-61-60.2-61.6-105.2v-112.7c0.2-13.3 11.7-23.9 24.9-23.9 13.2 0.1 23.9 10.8 23.8 24 0 0.1 0 0.1 0 0.2l2.1 50 60-189.8c3.5-11.1 14.2-18.9 25.7-17.5 12 1.3 21.4 11.5 21.4 23.9 0 2.5-0.4 5-1.1 7.2l-38.5 122c-0.2 0.8-0.4 1.6-0.4 2.4 0 4.4 3.6 8 8 8 3.6 0 6.6-2.4 7.6-5.6l48-151.7c3.5-11.1 14.2-18.9 25.7-17.5 12 1.3 21.4 11.5 21.4 23.9 0 2.5-0.4 5-1.1 7.2l-43.4 137.8c-0.2 0.8-0.4 1.6-0.4 2.4 0 4.4 3.6 8 8 8 3.6 0 6.6-2.4 7.7-5.6l33.4-106.4c3.5-11.1 14.2-18.9 25.7-17.5 12 1.3 21.4 11.5 21.5 23.9 0 2.5-0.4 5-1.1 7.2l-34.2 108.1-73.7 22.8c-62.1 20.5-107 79-107 148v25.7c-0.8 0.2-1.5 0.5-2.4 0.7zM568.1 417c11.6 0 22.3 7.8 24.4 19.2 0.3 1.5 0.5 3.1 0.5 4.8 0 13.2-10.8 24-24 24h0-160c-4.4 0-8 3.6-8 8s3.6 8 8 8h127.1c11.6 0 22.3 7.8 24.4 19.2 0.3 1.5 0.5 3.1 0.5 4.8 0 13.2-10.8 24-24 24h0-128c-4.4 0-8 3.6-8 8s3.6 8 8 8h95.1c11.6 0 22.3 7.8 24.4 19.2 0.3 1.5 0.5 3.1 0.5 4.8 0 13.2-10.8 24-24 24h0-208c-22.7-0.1-44-6.6-62-17.8 3.9-9.4 6-19.7 5.9-30.4 0-38.6-27.5-70.9-63.9-78.2v-25.6c0-54.9 35.7-101.4 85.2-117.7l107.7-33.3c2.2-0.7 4.6-1.1 7.1-1.1 13.3 0 24 10.8 24 24.1 0 10.8-7.1 19.9-16.9 22.9l-47.1 17.1h199.1c11.6 0 22.3 7.8 24.4 19.2 0.3 1.5 0.5 3.1 0.5 4.8 0 13.2-10.8 24-24 24h0-128c-4.4 0-8 3.6-8 8s3.6 8 8 8h159.1zM465 145c-17.7 0-32-14.3-32-32s14.3-32 32-32 32 14.3 32 32-14.3 32-32 32zM161 497c26.5 0 48 21.5 48 48s-21.5 48-48 48-48-21.5-48-48 21.5-48 48-48z" /></svg>