<svg xmlns="http://www.w3.org/2000/svg" width="100%" height="100%" viewBox="0 0 673.92 673.92"><path fill="currentColor" d="M584.9 433c-42.6 94.2-137.6 160-248 160-4.3 0-8.5-0.1-12.8-0.3-104-4.8-193.9-69.5-235.1-159.7h39.9l-58.6-58.6c-2.7-12.8-4.4-26-5.1-39.5-0.1-3.5-0.2-7.1-0.2-10.6 0-6.7 0.2-12.8 0.7-19.3h47.2l-41.4-41.4c14.8-66.6 54-124 108-162.1 2.6-1.9 5.8-3 9.3-3 5.6 0 10.6 2.9 13.5 7.3 1.8 2.6 2.8 5.7 2.8 9 0 2.1-0.4 4.2-1.2 6.1-6.3 15.8-9.8 33.2-9.9 51.2 0 45.1 21 86.6 57.8 113.8 4.1 3 6.7 7.8 6.7 13.1 0 4.9-2.1 9.2-5.5 12.2-26.5 24-41.2 56.5-41.2 91.6 0 60 43 110.3 99.9 121.9l2.5-65.2-27.2 18.5c-1.3 0.8-2.8 1.3-4.5 1.3-2.1 0-4-0.8-5.5-2.1-1.6-1.5-2.5-3.5-2.5-5.8 0-1.5 0.4-2.9 1.1-4.1l20.2-33.8-42.1-8.7c-3.6-0.7-6.4-4-6.4-7.9s2.7-7.1 6.4-7.8l42.1-8.7-20.2-33.7c-0.7-1.2-1.1-2.6-1.1-4.2 0-4.4 3.6-8 8-7.9 1.7 0 3.2 0.5 4.5 1.3l30.4 20.7 11.5-288c0.2-4.3 3.7-7.7 8-7.6 0 0 0 0 0 0h0.1c4.3 0 7.8 3.4 7.9 7.7l11.5 287.9 30.4-20.7c1.3-0.9 2.8-1.4 4.5-1.3 2.1 0 4.1 0.8 5.5 2.1 1.5 1.5 2.5 3.5 2.6 5.8 0 1.5-0.4 2.9-1.2 4.1l-20.1 33.8 42.1 8.7c3.6 0.8 6.4 4 6.3 7.9s-2.7 7.1-6.3 7.8l-42.1 8.7 20.1 33.7c0.7 1.2 1.2 2.6 1.1 4.2 0 2.3-0.9 4.3-2.4 5.8-1.5 1.3-3.4 2.1-5.6 2.1-1.7 0-3.2-0.5-4.5-1.3l-27.1-18.5 2.5 65.3c48.5-9.4 87.6-48.2 97.3-96.5 1.7-8.1 2.6-16.5 2.5-25.1 0-36.6-15.9-69.3-41.1-91.9-3.4-3-5.5-7.4-5.5-12.3 0-5.4 2.6-10.2 6.7-13.2 36.7-27.2 57.7-68.6 57.7-113.7v-0.1c0-18.1-3.5-35.4-9.9-51.2-0.8-1.9-1.2-3.9-1.1-6.1 0-3.3 1-6.5 2.8-9 2.9-4.4 7.9-7.2 13.5-7.2 3.4 0 6.6 1.1 9.2 2.9 53.9 38.2 93.1 95.7 107.9 162.3l-41.2 41.3h46.9c0.4 5.8 1 11.5 1.1 17.2 0 17.8-1.8 35-5.2 51.9l-58.9 58.9h40z" /></svg>