<svg xmlns="http://www.w3.org/2000/svg" width="100%" height="100%" viewBox="0 0 512 512"><path fill="currentColor" d="M80 368c8.8 0 16 7.2 16 16v64c0 8.8-7.2 16-16 16h-64c-8.8 0-16-7.2-16-16v-64c0-8.8 7.2-16 16-16h64zM80 48c8.8 0 16 7.2 16 16v64c0 8.8-7.2 16-16 16h-64c-8.8 0-16-7.2-16-16v-64c0-8.8 7.2-16 16-16h64zM80 208c8.8 0 16 7.2 16 16v64c0 8.8-7.2 16-16 16h-64c-8.8 0-16-7.2-16-16v-64c0-8.8 7.2-16 16-16h64zM496 384c8.8 0 16 7.2 16 16v32c0 8.8-7.2 16-16 16h-320c-8.8 0-16-7.2-16-16v-32c0-8.8 7.2-16 16-16h320zM496 64c8.8 0 16 7.2 16 16v32c0 8.8-7.2 16-16 16h-320c-8.8 0-16-7.2-16-16v-32c0-8.8 7.2-16 16-16h320zM496 224c8.8 0 16 7.2 16 16v32c0 8.8-7.2 16-16 16h-320c-8.8 0-16-7.2-16-16v-32c0-8.8 7.2-16 16-16h320z" /></svg>