<svg xmlns="http://www.w3.org/2000/svg" width="100%" height="100%" viewBox="0 0 599.04 599.04"><path fill="currentColor" d="M507.5 523.5h-416c-26.5 0-48-21.5-48-48v-352c0-26.5 21.5-48 48-48h416c26.5 0 48 21.5 48 48v352c0 26.5-21.5 48-48 48zM171.5 163.5c-22.1 0-40 17.9-40 40s17.9 40 40 40 40-17.9 40-40-17.9-40-40-40zM171.5 259.5c-22.1 0-40 17.9-40 40s17.9 40 40 40 40-17.9 40-40-17.9-40-40-40zM171.5 355.5c-22.1 0-40 17.9-40 40s17.9 40 40 40 40-17.9 40-40-17.9-40-40-40zM459.5 219.5v-32c0-6.6-5.4-12-12-12h-200c-6.6 0-12 5.4-12 12v32c0 6.6 5.4 12 12 12h200c6.6 0 12-5.4 12-12zM459.5 315.5v-32c0-6.6-5.4-12-12-12h-200c-6.6 0-12 5.4-12 12v32c0 6.6 5.4 12 12 12h200c6.6 0 12-5.4 12-12zM459.5 411.5v-32c0-6.6-5.4-12-12-12h-200c-6.6 0-12 5.4-12 12v32c0 6.6 5.4 12 12 12h200c6.6 0 12-5.4 12-12z" /></svg>