<svg xmlns="http://www.w3.org/2000/svg" width="100%" height="100%" viewBox="0 0 384 512"><path fill="currentColor" d="M372 256c6.8 0 12.3 5.6 12 12.4-5.2 133.8-94.3 211.6-228.4 211.6h-79.6c-6.6 0-12-5.4-12-12v-193.4l-49.4 10.9c-7.5 1.7-14.6-4-14.6-11.7v-41c0-5.7 4-10.5 9.4-11.7l54.6-12.1v-30.4l-49.4 10.9c-7.5 1.7-14.6-4-14.6-11.7v-41c0-5.7 4-10.5 9.4-11.7l54.6-12.1v-69c0-6.6 5.4-12 12-12h56c6.6 0 12 5.4 12 12v51.2l129.4-28.7c7.5-1.7 14.6 4 14.6 11.7v41c0 5.7-4 10.5-9.4 11.7l-134.6 29.9v30.4l129.4-28.7c7.5-1.7 14.6 4 14.6 11.7v41c0 5.7-4 10.5-9.4 11.7l-134.6 29.9v159.2c86.2 0 168-48 168-148.8 0-6.3 5.6-11.2 12-11.2h48z" /></svg>