<svg xmlns="http://www.w3.org/2000/svg" width="100%" height="100%" viewBox="0 0 748.8 748.8"><path fill="currentColor" d="M694.4 249.3c-18.6 6.6-32 24.2-32 45.1s13.4 38.5 32 45.1v98.9h-640v-98.9c18.6-6.6 32-24.2 32-45.1s-13.4-38.5-32-45.1v-34.9c0-17.7 14.3-32 32-32h576c17.7 0 32 14.3 32 32v34.9zM278.4 374.4v-128h-64v128h64zM406.4 374.4v-128h-64v128h64zM534.4 374.4v-128h-64v128h64zM54.4 566.4v-96h640v96h-64v-26.7c0-8.8-7.2-16-16-16s-16 7.2-16 16v26.7h-128v-26.7c0-8.8-7.2-16-16-16s-16 7.2-16 16v26.7h-128v-26.7c0-8.8-7.2-16-16-16s-16 7.2-16 16v26.7h-128v-26.7c0-8.8-7.2-16-16-16s-16 7.2-16 16v26.7h-64z" /></svg>