<svg xmlns="http://www.w3.org/2000/svg" width="100%" height="100%" viewBox="0 0 599.04 599.04"><path fill="currentColor" d="M459.5 91.5v416c0 26.5-21.5 48-48 48h-224c-26.5 0-48-21.5-48-48v-416c0-26.5 21.5-48 48-48h224c26.5 0 48 21.5 48 48zM555.5 149.5v12c0 3.3-2.7 6-6 6h-18v6c0 3.3-2.7 6-6 6h-42v-48h42c3.3 0 6 2.7 6 6v6h18c3.3 0 6 2.7 6 6zM555.5 245.5v12c0 3.3-2.7 6-6 6h-18v6c0 3.3-2.7 6-6 6h-42v-48h42c3.3 0 6 2.7 6 6v6h18c3.3 0 6 2.7 6 6zM555.5 341.5v12c0 3.3-2.7 6-6 6h-18v6c0 3.3-2.7 6-6 6h-42v-48h42c3.3 0 6 2.7 6 6v6h18c3.3 0 6 2.7 6 6zM555.5 437.5v12c0 3.3-2.7 6-6 6h-18v6c0 3.3-2.7 6-6 6h-42v-48h42c3.3 0 6 2.7 6 6v6h18c3.3 0 6 2.7 6 6zM73.5 419.5h42v48h-42c-3.3 0-6-2.7-6-6v-6h-18c-3.3 0-6-2.7-6-6v-12c0-3.3 2.7-6 6-6h18v-6c0-3.3 2.7-6 6-6zM73.5 323.5h42v48h-42c-3.3 0-6-2.7-6-6v-6h-18c-3.3 0-6-2.7-6-6v-12c0-3.3 2.7-6 6-6h18v-6c0-3.3 2.7-6 6-6zM73.5 227.5h42v48h-42c-3.3 0-6-2.7-6-6v-6h-18c-3.3 0-6-2.7-6-6v-12c0-3.3 2.7-6 6-6h18v-6c0-3.3 2.7-6 6-6zM73.5 131.5h42v48h-42c-3.3 0-6-2.7-6-6v-6h-18c-3.3 0-6-2.7-6-6v-12c0-3.3 2.7-6 6-6h18v-6c0-3.3 2.7-6 6-6z" /></svg>