<svg xmlns="http://www.w3.org/2000/svg" width="100%" height="100%" viewBox="0 0 748.8 748.8"><path fill="currentColor" d="M694.4 382.4c0 8.8-7.2 16-16 16h-104v40h56c17.7 0 32 14.3 32 32v128c0 17.7-14.3 32-32 32h-160c-17.7 0-32-14.3-32-32v-128c0-17.7 14.3-32 32-32h56v-40h-304v40h56c17.7 0 32 14.3 32 32v128c0 17.7-14.3 32-32 32h-160c-17.7 0-32-14.3-32-32v-128c0-17.7 14.3-32 32-32h56v-40h-104c-8.8 0-16-7.2-16-16v-16c0-8.8 7.2-16 16-16h280v-40h-72c-17.7 0-32-14.3-32-32v-128c0-17.7 14.3-32 32-32h192c17.7 0 32 14.3 32 32v128c0 17.7-14.3 32-32 32h-72v40h280c8.8 0 16 7.2 16 16v16zM310.4 246.4h128v-64h-128v64zM246.4 566.4v-64h-96v64h96zM598.4 566.4v-64h-96v64h96z" /></svg>