<svg xmlns="http://www.w3.org/2000/svg" width="100%" height="100%" viewBox="0 0 599.04 599.04"><path fill="currentColor" d="M202.4 43.7c181.9 17.2 332 164.9 352.9 345.7 1.9 16.2-7.9 31.5-23.6 35.9l-57 15.8c-7.9-186.4-134.9-311.5-322.4-317l14.8-56.3c4.1-15.7 19.2-25.6 35.3-24.1zM143.9 155.7c176.1 2 294.9 119.3 299.2 294.1l-379 105.1c-1.4 0.4-2.8 0.6-4.4 0.6-8.9 0-16.2-7.3-16.2-16.2 0-1.4 0.2-2.8 0.6-4.1zM171.5 459.5c17.7 0 32-14.3 32-32s-14.3-32-32-32-32 14.3-32 32 14.3 32 32 32zM219.5 307.5c17.7 0 32-14.3 32-32s-14.3-32-32-32-32 14.3-32 32 14.3 32 32 32zM323.5 411.5c17.7 0 32-14.3 32-32s-14.3-32-32-32-32 14.3-32 32 14.3 32 32 32z" /></svg>