<svg xmlns="http://www.w3.org/2000/svg" width="100%" height="100%" viewBox="0 0 748.8 748.8"><path fill="currentColor" d="M438.4 438.4c17.7 0 32 14.3 32 32v128c0 17.7-14.3 32-32 32h-128c-17.7 0-32-14.3-32-32v-128c0-17.7 14.3-32 32-32h128zM246.4 150.4v32h224v64h-224v47.5l64.3 112.5h-0.3c-23.6 0-44 13-55.1 32l-73.2-128h-95.7c-17.7 0-32-14.3-32-32v-128c0-17.7 14.3-32 32-32h128c17.7 0 32 14.3 32 32zM662.4 118.4c17.7 0 32 14.3 32 32v128c0 17.7-14.3 32-32 32h-128c-17.7 0-32-14.3-32-32v-128c0-17.7 14.3-32 32-32h128z" /></svg>