<svg xmlns="http://www.w3.org/2000/svg" width="100%" height="100%" viewBox="0 0 599.04 599.04"><path fill="currentColor" d="M507.5 299.5c26.5 0 48 21.5 48 48v128c0 26.5-21.5 48-48 48h-128c-26.5 0-48-21.5-48-48v-240c0-88.4 71.6-160 160-160h8c13.3 0 24 10.7 24 24v48c0 13.3-10.7 24-24 24h-8c-35.3 0-64 28.7-64 64v64h80zM219.5 299.5c26.5 0 48 21.5 48 48v128c0 26.5-21.5 48-48 48h-128c-26.5 0-48-21.5-48-48v-240c0-88.4 71.6-160 160-160h8c13.3 0 24 10.7 24 24v48c0 13.3-10.7 24-24 24h-8c-35.3 0-64 28.7-64 64v64h80z" /></svg>