<svg xmlns="http://www.w3.org/2000/svg" width="100%" height="100%" viewBox="0 0 640 512"><path fill="currentColor" d="M70 196.5c5.3-6 14.7-6 20 0l38 43.1v272.4h-128v-226.1l0 0c0-6.8 2.5-12.9 6.7-17.6zM633.3 268.3c4.3 4.9 6.7 11.1 6.7 17.6v226.1h-128v-272.4l38-43.1c5.3-6 14.7-6 20 0zM340 7l128 102.4c7.6 6.1 12 15.3 12 25v377.6h-96v-96c0-38.9-34.7-69.7-74.8-63.1-31.5 5.1-53.3 34.7-53.2 66.5v92.6h-96v-377.6c0-10.1 4.7-19.1 12-25l128-102.4c11.7-9.3 28.3-9.3 40 0zM392.1 222.6l-19.2-30.6 19.2-30.6c2-3.1-0.3-7.2-4-7.2h-39l-25.1-40c-1.8-3-6.2-3-8 0l-25.1 40h-39c-3.7 0-6 4.1-4 7.3l19.2 30.5-19.2 30.6c-2 3.1 0.3 7.2 4 7.2h39l25.1 40c1.8 3 6.2 3 8 0l25.1-40h39c3.7 0 6-4.1 4-7.2z" /></svg>