<svg xmlns="http://www.w3.org/2000/svg" width="100%" height="100%" viewBox="0 0 599.04 599.04"><path fill="currentColor" d="M91.5 203.5c-14.2 0-21.3-17.3-11.3-27.3l80-96c2.9-2.9 6.9-4.7 11.3-4.7 4.4 0 8.4 1.8 11.3 4.7l80 96c10.1 10.1 2.9 27.3-11.3 27.3h-48v304c0 8.8-7.2 16-16 16h-32c-8.8 0-16-7.2-16-16v-304h-48zM363.5 267.5c-8.8 0-16-7.2-16-16v-17.6c0-9.5 4.1-18.1 10.8-23.9l61.2-70.5h-56c-8.8 0-16-7.2-16-16v-32c0-8.8 7.2-16 16-16h128c8.8 0 16 7.2 16 16v17.6c0 9.5-4.1 18.1-10.7 24l-61.3 70.4h56c8.8 0 16 7.2 16 16v32c0 8.8-7.2 16-16 16h-128zM522.6 502.1c0.6 1.7 0.9 3.5 0.9 5.4 0 8.8-7.2 16-16 16h-24.8c0 0 0 0-0.1 0-7.1 0-13.2-4.7-15.2-11.1l-4.4-12.9h-71l-4.4 12.9c-2.1 6.4-8.1 11.1-15.2 11.1h0-24.9c-8.8 0-16-7.2-16-16 0-1.9 0.3-3.7 1-5.4l59.2-160c2.2-6.2 8.1-10.6 15.1-10.6h41.4c6.9 0 12.9 4.4 15.1 10.6zM411.1 443.5h32.8l-16.4-48z" /></svg>