<svg xmlns="http://www.w3.org/2000/svg" width="100%" height="100%" viewBox="0 0 599.04 599.04"><path fill="currentColor" d="M267.5 75.5v96h-128v-96c0-17.7 14.3-32 32-32h64c17.7 0 32 14.3 32 32zM523.5 171.5c17.7 0 32 14.3 32 32s-14.3 32-32 32-32-14.3-32-32 14.3-32 32-32zM267.5 203.5c53 0 96 43 96 96v224c0 17.7-14.3 32-32 32h-256c-17.7 0-32-14.3-32-32v-224c0-53 43-96 96-96h128zM203.5 459.5c44.2 0 80-35.8 80-80s-35.8-80-80-80-80 35.8-80 80 35.8 80 80 80zM523.5 139.5c-17.7 0-32-14.3-32-32s14.3-32 32-32 32 14.3 32 32-14.3 32-32 32zM427.5 171.5c17.7 0 32 14.3 32 32s-14.3 32-32 32-32-14.3-32-32 14.3-32 32-32zM331.5 75.5c17.7 0 32 14.3 32 32s-14.3 32-32 32-32-14.3-32-32 14.3-32 32-32zM427.5 75.5c17.7 0 32 14.3 32 32s-14.3 32-32 32-32-14.3-32-32 14.3-32 32-32zM523.5 267.5c17.7 0 32 14.3 32 32s-14.3 32-32 32-32-14.3-32-32 14.3-32 32-32z" /></svg>