<svg xmlns="http://www.w3.org/2000/svg" width="100%" height="100%" viewBox="0 0 512 512"><path fill="currentColor" d="M472.3 195.9c48.5 16.6 53.8 73.8 8.9 96.8l-62 31.7c-17.8 9.1-29.3 25.2-30.6 43l-4.7 61.9c-3.4 44.8-65.1 66.8-104.4 37.2l-54.4-40.8c-15.6-11.7-37-16.1-57-11.8l-70 15.3c-50.7 11.1-94.1-32.6-73.5-73.8l28.5-57c8.2-16.4 6.4-35.2-4.7-50.2l-38.5-52.4c-27.9-38 7-86.9 59-82.9l71.9 5.7c20.7 1.6 40.9-5.6 54.2-19.4l46.1-47.6c33.4-34.5 98.4-21.2 110 22.6l16 60.4c4.6 17.4 18.9 31.7 38.1 38.3z" /></svg>