<svg xmlns="http://www.w3.org/2000/svg" width="100%" height="100%" viewBox="0 0 599.04 599.04"><path fill="currentColor" d="M505.5 285.2c28.6 6.4 50 31.8 50 62.3v48c0 23.6-13 44-32 55.1v40.9c0 17.7-14.3 32-32 32h-32c-17.7 0-32-14.3-32-32v-32h-256v32c0 17.7-14.3 32-32 32h-32c-17.7 0-32-14.3-32-32v-40.9c-19-11.1-32-31.5-32-55.1v-48c0-30.5 21.4-56 50-62.3l22-84.9c9.6-35.2 41.6-60.8 76.8-60.8h11.2v-32c0-17.7 14.3-32 32-32h128c17.7 0 32 14.3 32 32v32h11.2c35.2 0 67.2 25.6 76.8 60.8zM139.5 395.5c17.7 0 32-14.3 32-32s-14.3-32-32-32-32 14.3-32 32 14.3 32 32 32zM160.1 283.5h278.9l-17.4-67.1c-2-7.4-9.4-12.9-14.9-12.9h-214.4c-5.5 0-12.8 5.5-15 13.7zM459.5 395.5c17.7 0 32-14.3 32-32s-14.3-32-32-32-32 14.3-32 32 14.3 32 32 32z" /></svg>