<svg xmlns="http://www.w3.org/2000/svg" width="100%" height="100%" viewBox="0 0 599.04 599.04"><path fill="currentColor" d="M192.9 99.5v80c0 13.3-10.7 24-24 24h-101.4c-13.3 0-24-10.7-24-24v-80c0-13.3 10.7-24 24-24h101.4c13.3 0 24 10.7 24 24zM374.2 339.5c0 13.3-10.7 24-24 24h-101.3c-13.3 0-24-10.7-24-24v-80c0-13.3 10.7-24 24-24h101.3c13.3 0 24 10.7 24 24v80zM406.2 99.5c0-13.3 10.7-24 24-24h101.3c13.3 0 24 10.7 24 24v80c0 13.3-10.7 24-24 24h-101.3c-13.3 0-24-10.7-24-24v-80zM374.2 179.5c0 13.3-10.7 24-24 24h-101.3c-13.3 0-24-10.7-24-24v-80c0-13.3 10.7-24 24-24h101.3c13.3 0 24 10.7 24 24v80zM168.9 235.5c13.3 0 24 10.7 24 24v80c0 13.3-10.7 24-24 24h-101.4c-13.3 0-24-10.7-24-24v-80c0-13.3 10.7-24 24-24h101.4zM43.5 419.5c0-13.3 10.7-24 24-24h101.4c13.3 0 24 10.7 24 24v80c0 13.3-10.7 24-24 24h-101.4c-13.3 0-24-10.7-24-24v-80zM430.2 363.5c-13.3 0-24-10.7-24-24v-80c0-13.3 10.7-24 24-24h101.3c13.3 0 24 10.7 24 24v80c0 13.3-10.7 24-24 24h-101.3zM430.2 523.5c-13.3 0-24-10.7-24-24v-80c0-13.3 10.7-24 24-24h101.3c13.3 0 24 10.7 24 24v80c0 13.3-10.7 24-24 24h-101.3zM224.9 419.5c0-13.3 10.7-24 24-24h101.3c13.3 0 24 10.7 24 24v80c0 13.3-10.7 24-24 24h-101.3c-13.3 0-24-10.7-24-24v-80z" /></svg>