<svg xmlns="http://www.w3.org/2000/svg" width="100%" height="100%" viewBox="0 0 748.8 748.8"><path fill="currentColor" d="M187 330.7c-10.4 7.3-23.1 11.7-36.8 11.7-35.2 0-63.8-28.6-63.8-63.8v-0.2c0.1-7.8 1.6-15.3 4.2-22.2zM227.5 393c-40.2 21.9-68.9 62.1-75.2 109.4h-65.9c-17.7 0-32-14.3-32-32v-32c0-35.3 28.7-64 64-64h64c0 0 0.1 0 0.1 0 17.6 0 33.5 7.1 45 18.6zM598.4 342.4c-35.3 0-64-28.7-64-64 0-35.3 28.7-64 64-64s64 28.7 64 64-28.7 64-64 64zM555 473.5l133.2 103c3.8 2.9 6.2 7.5 6.2 12.6 0 3.7-1.3 7.1-3.4 9.8l-19.6 25.3c-2.9 3.8-7.5 6.2-12.6 6.2-3.7 0-7.1-1.3-9.9-3.4l-588.3-454.7c-3.8-2.9-6.2-7.5-6.2-12.6 0-3.7 1.3-7.1 3.4-9.8l19.6-25.3c2.9-3.8 7.5-6.2 12.6-6.2 3.7 0 7.1 1.3 9.9 3.4l163.9 126.7c6.9-55.3 53.5-98.1 110.6-98.1 0 0 0 0 0.1 0 61.8 0 111.9 50.2 111.9 111.9v0.1c0 47.3-29.5 86.9-71 103.2l55.1 42.6c37.7 6.5 69.1 31.5 84.5 65.3zM182.4 521.6c0-59.8 45.7-108.4 104-114.1l244.6 189c-4 1.2-8.2 1.8-12.6 1.9h-288c-26.5 0-48-21.5-48-48v-28.8zM630.4 374.4c35.3 0 64 28.7 64 64v32c0 17.7-14.3 32-32 32h-66c-6.2-47.3-34.9-87.5-75.1-109.4 11.5-11.5 27.5-18.6 45-18.6h0.1 64z" /></svg>