<svg xmlns="http://www.w3.org/2000/svg" width="100%" height="100%" viewBox="0 0 599.04 599.04"><path fill="currentColor" d="M339.5 427.5h-80c-13.3 0-24-10.7-24-24v-168h-87.7c-17.8 0-26.7-21.5-14.1-34.1l152.1-152.2c7.5-7.5 19.8-7.5 27.3 0l152.2 152.2c12.6 12.6 3.7 34.1-14.1 34.1h-87.7v168c0 13.3-10.7 24-24 24zM555.5 419.5v112c0 13.3-10.7 24-24 24h-464c-13.3 0-24-10.7-24-24v-112c0-13.3 10.7-24 24-24h136v8c0 30.9 25.1 56 56 56h80c30.9 0 56-25.1 56-56v-8h136c13.3 0 24 10.7 24 24zM431.5 507.5c0-11-9-20-20-20s-20 9-20 20 9 20 20 20 20-9 20-20zM495.5 507.5c0-11-9-20-20-20s-20 9-20 20 9 20 20 20 20-9 20-20z" /></svg>