<svg xmlns="http://www.w3.org/2000/svg" width="100%" height="100%" viewBox="0 0 748.8 748.8"><path fill="currentColor" d="M689.3 273.3c6.7 6.2 6.8 16.6 0.4 23l-34.3 33.9c-6.1 6.1-16 6.2-22.4 0.4-145.9-133.7-371.3-133.7-517.2 0-6.4 5.8-16.3 5.7-22.4-0.4l-34.3-33.9c-6.4-6.4-6.3-16.8 0.4-23 177.1-163.8 452.6-163.9 629.8 0zM374.4 470.4c35.3 0 64 28.7 64 64s-28.7 64-64 64-64-28.7-64-64 28.7-64 64-64zM577.1 386.8c6.9 6.1 7.1 16.7 0.5 23.2l-34.4 33.9c-6 5.9-15.7 6.3-22.1 0.8-83.8-72.4-209.5-72.6-293.4 0-6.4 5.5-16 5.1-22.1-0.8l-34.4-33.9c-6.5-6.5-6.3-17 0.5-23.2 115.1-101.8 290.1-101.9 405.4 0z" /></svg>