<svg xmlns="http://www.w3.org/2000/svg" width="100%" height="100%" viewBox="0 -80 640 640"><path fill="#005bae" fill-rule="evenodd" d="M0 0h640v53.3H0z"/><path fill="#fff" fill-rule="evenodd" d="M0 53.3h640v53.4H0z"/><path fill="#005bae" fill-rule="evenodd" d="M0 106.7h640V160H0z"/><path fill="#fff" fill-rule="evenodd" d="M0 160h640v53.3H0z"/><path fill="#005bae" d="M0 0h266.7v266.7H0z"/><path fill="#005bae" fill-rule="evenodd" d="M0 213.3h640v53.4H0z"/><path fill="#fff" fill-rule="evenodd" d="M0 266.7h640V320H0z"/><path fill="#005bae" fill-rule="evenodd" d="M0 320h640v53.3H0z"/><path fill="#fff" fill-rule="evenodd" d="M0 373.3h640v53.4H0z"/><g fill="#fff" fill-rule="evenodd" stroke-width="1.3"><path d="M106.667 0H160v266.666h-53.333z"/><path d="M0 106.667h266.666V160H0z"/></g><path fill="#005bae" d="M0 426.7h640V480H0z"/></svg>