<svg xmlns="http://www.w3.org/2000/svg" width="100%" height="100%" viewBox="-84.48 -84.48 680.96 680.96"><g font-size="12"><path fill="#fff" fill-rule="evenodd" d="M0-.11h511.998v512.04H0z"/><path fill="#09c" d="M511.998 437.428L73.386-.11H0v72.965L440.318 511.93h71.68v-74.502"/></g><g font-size="12"><path fill="#005bbf" d="M252.066 375.766c-68.267 0-66.105-64.339-66.105-64.339V212.47h132.323v98.957s2.276 64.34-66.218 64.34"/><path fill="none" stroke="#000" d="M296.6 401.2c-60 0-58.1-56.5-58.1-56.5v-86.9h116.3v86.9s2 56.5-58.2 56.5z" transform="matrix(1.13778 0 0 1.13875 -85.4 -81.1)"/><path fill="#d81126" d="M251.497 150.294s-14.109-6.833-27.42 3.188c0 0-24.008-3.416-25.828 19.587 0 .911-.228 2.62.227 3.188.455.456.91 1.367.91 2.05 0 .683.342 1.025.57 1.253 0 .341.454.797.568 1.936 0 1.252-.227 1.822 1.024 3.074 1.138 1.14 1.138 4.67 1.138 5.694 0 1.025.683 3.758 1.138 4.327.569.57 1.479 2.05 1.479 3.303 0 1.138.455 4.555.227 5.352-.227.91 1.366 1.936 2.731 2.391 1.365.456 18.204 5.922 42.78 5.466 24.577-.341 33.451-1.708 43.691-5.352 1.48-.57 1.82-1.936 1.707-2.619-.228-.683 0-2.96.341-3.53.455-.57 3.414-5.238 2.731-6.035-.569-.911-.569-2.733 0-3.417.569-.797 2.39-4.213 2.73-5.693.342-1.367.456-3.075 1.138-3.53.57-.456.797-2.164.91-2.506a4.551 4.555 0 011.366-1.822s1.138-5.807.455-8.654c-.796-2.847-5.12-15.146-22.528-12.527 0 0-12.97-9.907-32.085-5.124"/><path fill="none" stroke="#000" stroke-width="1.5" d="M296.1 203.2s-12.4-6-24.1 2.8c0 0-21.1-3-22.7 17.2 0 .8-.2 2.3.2 2.8.4.4.8 1.2.8 1.8 0 .6.3.9.5 1.1 0 .3.4.7.5 1.7 0 1.1-.2 1.6.9 2.7 1 1 1 4.1 1 5 0 .9.6 3.3 1 3.8.5.5 1.3 1.8 1.3 2.9 0 1 .4 4 .2 4.7-.2.8 1.2 1.7 2.4 2.1 1.2.4 16 5.2 37.6 4.8 21.6-.3 29.4-1.5 38.4-4.7 1.3-.5 1.6-1.7 1.5-2.3-.2-.6 0-2.6.3-3.1.4-.5 3-4.6 2.4-5.3-.5-.8-.5-2.4 0-3 .5-.7 2.1-3.7 2.4-5 .3-1.2.4-2.7 1-3.1.5-.4.7-1.9.8-2.2a4 4 0 011.2-1.6s1-5.1.4-7.6c-.7-2.5-4.5-13.3-19.8-11 0 0-11.4-8.7-28.2-4.5h0z" transform="matrix(1.13778 0 0 1.13875 -85.4 -81.1)"/><path fill="#bcac0b" d="M298.715 193.111c-53.476-16.967-94.891-.797-94.891-.797s.455 1.822.91 2.391 1.138 1.936 1.138 2.961v3.189c0 .797-.455 4.213 2.503 4.099 0 0 37.319-14.576 85.788.797 0 0 1.366-1.139 1.366-2.847a9.102 9.11 0 011.138-4.555c.568-.91 2.048-3.871 2.048-5.238"/><path fill="#c8b100" fill-opacity=".9" d="M249.107 282.503h-23.324s-2.276 20.839 15.701 27.216v1.822h3.755v2.505s-6.6 5.922-.797 12.754v2.05h.91v3.416h1.138v5.352s-.91 19.36-20.025 28.697v1.139h50.86v-1.14c-19.002-9.223-19.912-28.696-19.912-28.696v-5.352h1.138v-3.416h.91v-2.05c5.689-6.832-.91-12.754-.91-12.754v-2.505h3.868v-1.822c17.863-6.377 15.588-27.216 15.588-27.216h-28.9"/><path fill="none" stroke="#000" d="M294 319.3h-20.5s-2 18.3 13.8 23.9v1.6h3.3v2.2s-5.8 5.2-.7 11.2v1.8h.8v3h1v4.7s-.8 17-17.6 25.2v1h44.7v-1c-16.7-8.1-17.5-25.2-17.5-25.2V363h1v-3h.8v-1.8c5-6-.8-11.2-.8-11.2v-2.2h3.4v-1.6c15.7-5.6 13.7-23.9 13.7-23.9H294h0z" transform="matrix(1.13778 0 0 1.13875 -85.4 -81.1)"/><path fill="none" stroke="#000" stroke-width=".3" d="M286.6 342.9h19.7m-19 1.5h18.4m-15 2.5h11.5m-12.3 11.5H303m-12.4 1.4h11.6m-11.6 2.8h11.5m-18.5 23.2h25.5m-32.7 5.9h40m-41.5.9h43" transform="matrix(1.13778 0 0 1.13875 -85.4 -81.1)"/><path fill="#ccc" d="M252.066 281.364a14.848 14.86 0 100-29.721 14.791 14.804 0 000 29.607"/><path fill="none" stroke="#000" d="M296.6 318.3a13 13 0 100-26.1 13 13 0 000 26z" transform="matrix(1.13778 0 0 1.13875 -85.4 -81.1)"/><path fill="#ccc" d="M217.59 237.75h-9.215v-9.338h-8.192v9.338h-9.33v8.199h9.33v9.11h8.192v-9.11h9.102v-8.199"/><path fill="none" stroke="#000" d="M266.3 280h-8.1v-8.2H251v8.2h-8.2v7.2h8.2v8h7.2v-8h8V280" transform="matrix(1.13778 0 0 1.13875 -85.4 -81.1)"/><path fill="#ccc" d="M313.733 237.75h-9.216v-9.338h-8.192v9.338h-9.33v8.199h9.33v9.11h8.192v-9.11h9.216v-8.199"/><path fill="none" stroke="#000" d="M350.8 280h-8.1v-8.2h-7.2v8.2h-8.2v7.2h8.2v8h7.2v-8h8.1V280" transform="matrix(1.13778 0 0 1.13875 -85.4 -81.1)"/><path fill="#ccc" d="M265.036 226.02h-9.33v-9.11h-8.192v9.11h-9.102v8.2h9.102v9.338h8.192v-9.338h9.33v-8.2"/><path fill="none" stroke="#000" d="M308 269.7h-8.2v-8h-7.2v8h-8v7.2h8v8.2h7.2v-8.2h8.2v-7.2" transform="matrix(1.13778 0 0 1.13875 -85.4 -81.1)"/><path fill="#ccc" d="M217.59 277.834h-9.215v-9.338h-8.192v9.338h-9.33v8.199h9.33v9.11h8.192v-9.11h9.102v-8.199"/><path fill="none" stroke="#000" d="M266.3 315.2h-8.1V307H251v8.2h-8.2v7.2h8.2v8h7.2v-8h8v-7.2" transform="matrix(1.13778 0 0 1.13875 -85.4 -81.1)"/><path fill="#ccc" d="M313.733 277.834h-9.216v-9.338h-8.192v9.338h-9.33v8.199h9.33v9.11h8.192v-9.11h9.216v-8.199"/><path fill="none" stroke="#000" d="M350.8 315.2h-8.1V307h-7.2v8.2h-8.2v7.2h8.2v8h7.2v-8h8.1v-7.2" transform="matrix(1.13778 0 0 1.13875 -85.4 -81.1)"/><path fill="#ccc" d="M217.59 318.26h-9.215v-9.224h-8.192v9.224h-9.33v8.199h9.33v9.223h8.192v-9.11h9.102v-8.312"/><path fill="none" stroke="#000" d="M266.3 350.7h-8.1v-8.1H251v8.1h-8.2v7.2h8.2v8.1h7.2v-8h8v-7.3" transform="matrix(1.13778 0 0 1.13875 -85.4 -81.1)"/><path fill="#ccc" d="M313.733 318.26h-9.216v-9.224h-8.192v9.224h-9.33v8.199h9.33v9.223h8.192v-9.11h9.216v-8.312"/><path fill="none" stroke="#000" d="M350.8 350.7h-8.1v-8.1h-7.2v8.1h-8.2v7.2h8.2v8.1h7.2v-8h8.1v-7.3" transform="matrix(1.13778 0 0 1.13875 -85.4 -81.1)"/><path fill="#005bbf" d="M251.952 130.48a8.932 8.94 0 100-17.879 8.932 8.94 0 000 17.879"/><path fill="none" stroke="#000" d="M296.5 185.8a7.8 7.8 0 100-15.7 7.8 7.8 0 000 15.7z" transform="matrix(1.13778 0 0 1.13875 -85.4 -81.1)"/><path fill="#fc0" d="M260.258 120.003h-7.282V108.16h2.844v-2.277h-2.844v-2.847H250.7v2.733h-2.844v2.391h2.73v11.843h-6.826v1.594h16.498v-1.594"/><path fill="#bcac0b" stroke="#000" stroke-width=".5" d="M303.8 176.6h-6.4v-10.4h2.5v-2h-2.5v-2.5h-2v2.4h-2.5v2.1h2.4v10.4h-6v1.4h14.5v-1.4" transform="matrix(1.13778 0 0 1.13875 -85.4 -81.1)"/><path fill="#fc0" d="M216.34 141.07s6.598-.683 10.353.797c0 0-4.324 5.01-3.413 11.502.455 3.416 1.137 5.124 2.161 6.832.91 1.48 1.935 4.897 1.366 7.516h1.251s1.252-5.466-.796-8.427a11.378 11.387 0 01-1.138-11.729c2.162-4.327 5.234-6.035 5.234-6.035 3.413 1.366 10.923 0 12.97-1.48 2.162-1.481 3.186-3.645-.682-3.759-3.982-.227-10.581-.114-15.132 3.303 0 0-2.39-2.733-14.337-1.48-11.946 1.366-20.48 6.49-23.21 17.194-1.366 5.466 3.754 16.968 8.42 19.7 0 0-.114-1.821.34-3.188 0 0-7.964-8.996-5.688-17.309 2.503-8.199 12.06-13.665 22.3-13.437"/><path fill="#bcac0b" stroke="#000" stroke-width=".7" d="M265.2 195.1s5.8-.6 9.1.7c0 0-3.8 4.4-3 10.1.4 3 1 4.5 1.9 6 .8 1.3 1.7 4.3 1.2 6.6h1.1s1.1-4.8-.7-7.4a10 10 0 01-1-10.3c1.9-3.8 4.6-5.3 4.6-5.3 3 1.2 9.6 0 11.4-1.3 1.9-1.3 2.8-3.2-.6-3.3-3.5-.2-9.3-.1-13.3 2.9 0 0-2.1-2.4-12.6-1.3-10.5 1.2-18 5.7-20.4 15.1-1.2 4.8 3.3 14.9 7.4 17.3 0 0-.1-1.6.3-2.8 0 0-7-7.9-5-15.2 2.2-7.2 10.6-12 19.6-11.8z" transform="matrix(1.13778 0 0 1.13875 -85.4 -81.1)"/><path fill="#fff" d="M238.754 139.476c2.048-.228 3.754-.57 3.64-.797 0-.342-1.706-.342-3.754-.228-2.048.114-3.641.57-3.641.797 0 .342 1.707.342 3.755.228"/><path fill="none" stroke="#000" stroke-width=".7" d="M278.3 195.4s-2 2 0 0 6.4-3.2 8.9-2.7c2.4.6-.5.9-1.3 1-.8 0-2.4.3-4.8 0" transform="matrix(1.13778 0 0 1.13875 -85.4 -81.1)"/><path fill="#fc0" d="M287.45 141.867s-6.485-.797-10.353.684a16.612 16.626 0 011.365 18.22c-1.024 1.708-2.048 5.01-1.48 7.63h-1.137s-1.365-5.353.797-8.428a11.378 11.387 0 001.024-11.615 14.336 14.348 0 00-5.12-6.15c-3.528 1.481-11.037 0-13.085-1.48s-3.186-3.53.797-3.757c3.868-.228 10.58-.114 15.132 3.416 0 0 2.276-2.847 14.336-1.48 11.833 1.252 20.48 6.376 23.097 17.08 1.365 5.467-3.64 16.968-8.306 19.701 0 0 0-1.822-.341-3.188 0 0 7.964-8.883 5.575-17.196-2.39-8.312-11.947-13.665-22.3-13.437"/><path fill="#bcac0b" stroke="#000" stroke-width=".7" d="M327.7 195.8s-5.7-.7-9.1.6a14.6 14.6 0 011.2 16c-.9 1.5-1.8 4.4-1.3 6.7h-1s-1.2-4.7.7-7.4a10 10 0 00.9-10.2 12.6 12.6 0 00-4.5-5.4c-3.1 1.3-9.7 0-11.5-1.3-1.8-1.3-2.8-3.1.7-3.3 3.4-.2 9.3-.1 13.3 3 0 0 2-2.5 12.6-1.3 10.4 1.1 18 5.6 20.3 15 1.2 4.8-3.2 14.9-7.3 17.3 0 0 0-1.6-.3-2.8 0 0 7-7.8 4.9-15.1-2.1-7.3-10.5-12-19.6-11.8z" transform="matrix(1.13778 0 0 1.13875 -85.4 -81.1)"/><path fill="#fff" d="M265.036 140.16c-2.048-.115-3.64-.456-3.64-.798 0-.228 1.706-.342 3.754-.228 2.048.228 3.755.57 3.755.797 0 .342-1.707.456-3.869.228"/><path fill="none" stroke="#000" stroke-width=".7" d="M314.6 196s2.1 2 0 0c-2-1.9-6.4-3.2-8.8-2.6-2.5.5.4.8 1.2.9.9 0 2.5.4 4.9 0" transform="matrix(1.13778 0 0 1.13875 -85.4 -81.1)"/><path fill="#fc0" d="M245.808 134.465v25.394c-.228 2.506 3.072 6.036 5.461 7.06 0 0 5.689-1.821 6.03-7.06V133.1h-1.934v23.23c0 2.278-1.593 6.605-3.755 7.288 0 0-4.096-.683-4.323-7.288v-22.547l-1.48.683"/><path fill="#bcac0b" stroke="#000" stroke-width=".7" d="M291.1 189.3v22.3c-.2 2.2 2.7 5.3 4.8 6.2 0 0 5-1.6 5.3-6.2v-23.5h-1.7v20.4c0 2-1.4 5.8-3.3 6.4 0 0-3.6-.6-3.8-6.4v-19.8l-1.3.6" transform="matrix(1.13778 0 0 1.13875 -85.4 -81.1)"/><path fill="#fff" d="M189.715 169.197a3.072 3.075 0 100-6.035 3.072 3.075 0 000 6.035"/><path fill="none" stroke="#000" d="M241.8 219.8a2.7 2.7 0 100-5.3 2.7 2.7 0 000 5.3z" transform="matrix(1.13778 0 0 1.13875 -85.4 -81.1)"/><path fill="#fff" d="M187.781 162.25a3.072 3.075 0 100-6.035 3.072 3.075 0 000 6.036"/><path fill="none" stroke="#000" d="M240.1 213.7a2.7 2.7 0 100-5.3 2.7 2.7 0 000 5.3z" transform="matrix(1.13778 0 0 1.13875 -85.4 -81.1)"/><path fill="#fff" d="M188.805 153.824a3.072 3.075 0 100-6.035 3.072 3.075 0 000 6.035"/><path fill="none" stroke="#000" d="M241 206.3a2.7 2.7 0 100-5.3 2.7 2.7 0 000 5.3z" transform="matrix(1.13778 0 0 1.13875 -85.4 -81.1)"/><path fill="#fff" d="M193.47 146.764a3.072 3.075 0 100-6.036 3.072 3.075 0 000 6.036"/><path fill="none" stroke="#000" d="M245.1 200.1a2.7 2.7 0 100-5.3 2.7 2.7 0 000 5.3z" transform="matrix(1.13778 0 0 1.13875 -85.4 -81.1)"/><path fill="#fff" d="M199.045 141.64a3.072 3.075 0 100-6.036 3.072 3.075 0 000 6.035"/><path fill="none" stroke="#000" d="M250 195.6a2.7 2.7 0 100-5.3 2.7 2.7 0 000 5.3z" transform="matrix(1.13778 0 0 1.13875 -85.4 -81.1)"/><path fill="#fff" d="M206.327 138.793a3.072 3.075 0 100-6.036 3.072 3.075 0 000 6.036"/><path fill="none" stroke="#000" d="M256.4 193.1a2.7 2.7 0 100-5.3 2.7 2.7 0 000 5.3z" transform="matrix(1.13778 0 0 1.13875 -85.4 -81.1)"/><path fill="#fff" d="M213.836 137.54a3.072 3.075 0 100-6.15 3.072 3.075 0 000 6.036"/><path fill="none" stroke="#000" d="M263 192a2.7 2.7 0 100-5.4 2.7 2.7 0 000 5.3z" transform="matrix(1.13778 0 0 1.13875 -85.4 -81.1)"/><path fill="#fff" d="M221.004 137.084a3.072 3.075 0 100-6.149 3.072 3.075 0 000 6.15"/><path fill="none" stroke="#000" d="M269.3 191.6a2.7 2.7 0 100-5.4 2.7 2.7 0 000 5.4z" transform="matrix(1.13778 0 0 1.13875 -85.4 -81.1)"/><path fill="#fff" d="M227.49 137.54a3.072 3.075 0 100-6.035 3.072 3.075 0 000 6.149"/><path fill="none" stroke="#000" d="M275 192a2.7 2.7 0 100-5.3 2.7 2.7 0 000 5.4z" transform="matrix(1.13778 0 0 1.13875 -85.4 -81.1)"/><path fill="#fff" d="M245.694 135.262a3.072 3.075 0 100-6.035 3.072 3.075 0 000 6.035"/><path fill="none" stroke="#000" d="M291 190a2.7 2.7 0 100-5.3 2.7 2.7 0 000 5.3z" transform="matrix(1.13778 0 0 1.13875 -85.4 -81.1)"/><path fill="#fff" d="M251.61 136.857a3.072 3.075 0 100-6.036 3.072 3.075 0 000 6.036"/><path fill="none" stroke="#000" d="M296.2 191.4a2.7 2.7 0 100-5.3 2.7 2.7 0 000 5.3z" transform="matrix(1.13778 0 0 1.13875 -85.4 -81.1)"/><path fill="#fff" d="M251.61 159.404a3.072 3.075 0 100-6.15 3.072 3.075 0 000 6.15"/><path fill="none" stroke="#000" d="M296.2 211.2a2.7 2.7 0 100-5.4 2.7 2.7 0 000 5.4z" transform="matrix(1.13778 0 0 1.13875 -85.4 -81.1)"/><path fill="#fff" d="M314.302 171.133a3.072 3.075 0 100-6.035 3.072 3.075 0 000 6.035"/><path fill="none" stroke="#000" d="M351.3 221.5a2.7 2.7 0 100-5.3 2.7 2.7 0 000 5.3z" transform="matrix(1.13778 0 0 1.13875 -85.4 -81.1)"/><path fill="#fff" d="M315.895 163.731a3.072 3.075 0 100-6.149 3.072 3.075 0 000 6.035"/><path fill="none" stroke="#000" d="M352.7 215a2.7 2.7 0 100-5.4 2.7 2.7 0 000 5.3z" transform="matrix(1.13778 0 0 1.13875 -85.4 -81.1)"/><path fill="#fff" d="M314.643 155.76a3.072 3.075 0 100-6.035 3.072 3.075 0 000 6.035"/><path fill="none" stroke="#000" d="M351.6 208a2.7 2.7 0 100-5.3 2.7 2.7 0 000 5.3z" transform="matrix(1.13778 0 0 1.13875 -85.4 -81.1)"/><path fill="#fff" d="M311.344 148.358a3.072 3.075 0 100-6.15 3.072 3.075 0 000 6.15"/><path fill="none" stroke="#000" d="M348.7 201.5a2.7 2.7 0 100-5.4 2.7 2.7 0 000 5.4z" transform="matrix(1.13778 0 0 1.13875 -85.4 -81.1)"/><path fill="#fff" d="M305.769 143.234a3.072 3.075 0 100-6.15 3.072 3.075 0 000 6.036"/><path fill="none" stroke="#000" d="M343.8 197a2.7 2.7 0 100-5.4 2.7 2.7 0 000 5.3z" transform="matrix(1.13778 0 0 1.13875 -85.4 -81.1)"/><path fill="#fff" d="M299.056 139.817a3.072 3.075 0 100-6.035 3.072 3.075 0 000 6.035"/><path fill="none" stroke="#000" d="M337.9 194a2.7 2.7 0 100-5.3 2.7 2.7 0 000 5.3z" transform="matrix(1.13778 0 0 1.13875 -85.4 -81.1)"/><path fill="#fff" d="M291.319 138.11a3.072 3.075 0 100-6.036 3.072 3.075 0 000 6.035"/><path fill="none" stroke="#000" d="M331.1 192.5a2.7 2.7 0 100-5.3 2.7 2.7 0 000 5.3z" transform="matrix(1.13778 0 0 1.13875 -85.4 -81.1)"/><path fill="#fff" d="M284.379 137.54a3.072 3.075 0 100-6.035 3.072 3.075 0 000 6.035"/><path fill="none" stroke="#000" d="M325 192a2.7 2.7 0 100-5.3 2.7 2.7 0 000 5.3z" transform="matrix(1.13778 0 0 1.13875 -85.4 -81.1)"/><path fill="#fff" d="M278.007 136.743a3.072 3.075 0 100-6.15 3.072 3.075 0 000 6.15"/><path fill="none" stroke="#000" d="M319.4 191.3a2.7 2.7 0 100-5.4 2.7 2.7 0 000 5.4z" transform="matrix(1.13778 0 0 1.13875 -85.4 -81.1)"/><path fill="#fff" d="M282.103 161.454a3.072 3.075 0 100-6.036 3.072 3.075 0 000 6.15"/><path fill="none" stroke="#000" d="M323 213a2.7 2.7 0 100-5.3 2.7 2.7 0 000 5.4z" transform="matrix(1.13778 0 0 1.13875 -85.4 -81.1)"/><path fill="#fff" d="M283.696 155.76a3.072 3.075 0 100-6.15 3.072 3.075 0 000 6.036"/><path fill="none" stroke="#000" d="M324.4 208a2.7 2.7 0 100-5.4 2.7 2.7 0 000 5.3z" transform="matrix(1.13778 0 0 1.13875 -85.4 -81.1)"/><path fill="#fff" d="M258.21 136.287a3.072 3.075 0 100-6.149 3.072 3.075 0 000 6.15"/><path fill="none" stroke="#000" d="M302 190.9a2.7 2.7 0 100-5.4 2.7 2.7 0 000 5.4z" transform="matrix(1.13778 0 0 1.13875 -85.4 -81.1)"/><path fill="#fff" d="M243.418 135.376a3.072 3.075 0 100-6.035 3.072 3.075 0 000 6.035"/><path fill="none" stroke="#000" d="M289 190.1a2.7 2.7 0 100-5.3 2.7 2.7 0 000 5.3z" transform="matrix(1.13778 0 0 1.13875 -85.4 -81.1)"/><path fill="#fff" d="M239.778 135.262a3.072 3.075 0 100-6.035 3.072 3.075 0 000 6.035"/><path fill="none" stroke="#000" d="M285.8 190a2.7 2.7 0 100-5.3 2.7 2.7 0 000 5.3z" transform="matrix(1.13778 0 0 1.13875 -85.4 -81.1)"/><path fill="#fff" d="M220.435 161.568a3.072 3.075 0 100-6.036 3.072 3.075 0 000 6.036"/><path fill="none" stroke="#000" d="M268.8 213.1a2.7 2.7 0 100-5.3 2.7 2.7 0 000 5.3z" transform="matrix(1.13778 0 0 1.13875 -85.4 -81.1)"/><path fill="#fff" d="M219.525 154.394a3.072 3.075 0 100-6.15 3.072 3.075 0 000 6.15"/><path fill="none" stroke="#000" d="M268 206.8a2.7 2.7 0 100-5.4 2.7 2.7 0 000 5.4z" transform="matrix(1.13778 0 0 1.13875 -85.4 -81.1)"/><path fill="#fff" d="M221.8 147.333a3.072 3.075 0 100-6.035 3.072 3.075 0 000 6.035"/><path fill="none" stroke="#000" d="M270 200.6a2.7 2.7 0 100-5.3 2.7 2.7 0 000 5.3z" transform="matrix(1.13778 0 0 1.13875 -85.4 -81.1)"/><path fill="#fff" d="M235.113 135.946a3.072 3.075 0 100-6.036 3.072 3.075 0 000 6.036"/><path fill="none" stroke="#000" d="M281.7 190.6a2.7 2.7 0 100-5.3 2.7 2.7 0 000 5.3z" transform="matrix(1.13778 0 0 1.13875 -85.4 -81.1)"/><path fill="#fff" d="M229.993 137.995a3.072 3.075 0 100-6.035 3.072 3.075 0 000 6.035"/><path fill="none" stroke="#000" d="M277.2 192.4a2.7 2.7 0 100-5.3 2.7 2.7 0 000 5.3z" transform="matrix(1.13778 0 0 1.13875 -85.4 -81.1)"/><path fill="#fff" d="M225.214 142.095a3.072 3.075 0 100-6.035 3.072 3.075 0 000 6.035"/><path fill="none" stroke="#000" d="M273 196a2.7 2.7 0 100-5.3 2.7 2.7 0 000 5.3z" transform="matrix(1.13778 0 0 1.13875 -85.4 -81.1)"/><path fill="#fff" d="M251.61 140.273a3.072 3.075 0 100-6.035 3.072 3.075 0 000 6.035"/><path fill="none" stroke="#000" d="M296.2 194.4a2.7 2.7 0 100-5.3 2.7 2.7 0 000 5.3z" transform="matrix(1.13778 0 0 1.13875 -85.4 -81.1)"/><path fill="#fff" d="M251.61 146.08a3.072 3.075 0 100-6.149 3.072 3.075 0 000 6.15"/><path fill="none" stroke="#000" d="M296.2 199.5a2.7 2.7 0 100-5.4 2.7 2.7 0 000 5.4z" transform="matrix(1.13778 0 0 1.13875 -85.4 -81.1)"/><path fill="#fff" d="M251.61 152.23a3.072 3.075 0 100-6.15 3.072 3.075 0 000 6.15"/><path fill="none" stroke="#000" d="M296.2 204.9a2.7 2.7 0 100-5.4 2.7 2.7 0 000 5.4z" transform="matrix(1.13778 0 0 1.13875 -85.4 -81.1)"/><path fill="#fff" d="M262.078 135.49a3.072 3.075 0 100-6.149 3.072 3.075 0 000 6.15"/><path fill="none" stroke="#000" d="M305.4 190.2a2.7 2.7 0 100-5.4 2.7 2.7 0 000 5.4z" transform="matrix(1.13778 0 0 1.13875 -85.4 -81.1)"/><path fill="#fff" d="M266.174 134.58a3.072 3.075 0 100-6.036 3.072 3.075 0 000 6.035"/><path fill="none" stroke="#000" d="M309 189.4a2.7 2.7 0 100-5.3 2.7 2.7 0 000 5.3z" transform="matrix(1.13778 0 0 1.13875 -85.4 -81.1)"/><path fill="#fff" d="M270.953 135.262a3.072 3.075 0 100-6.035 3.072 3.075 0 000 6.15"/><path fill="none" stroke="#000" d="M313.2 190a2.7 2.7 0 100-5.3 2.7 2.7 0 000 5.4z" transform="matrix(1.13778 0 0 1.13875 -85.4 -81.1)"/><path fill="#fff" d="M282.672 148.244a3.072 3.075 0 100-6.035 3.072 3.075 0 000 6.035"/><path fill="none" stroke="#000" d="M323.5 201.4a2.7 2.7 0 100-5.3 2.7 2.7 0 000 5.3z" transform="matrix(1.13778 0 0 1.13875 -85.4 -81.1)"/><path fill="#fff" d="M275.618 138.11a3.072 3.075 0 100-6.15 3.072 3.075 0 000 6.15"/><path fill="none" stroke="#000" d="M317.3 192.5a2.7 2.7 0 100-5.4 2.7 2.7 0 000 5.4z" transform="matrix(1.13778 0 0 1.13875 -85.4 -81.1)"/><path fill="#fff" d="M279.941 142.209a3.072 3.075 0 100-6.036 3.072 3.075 0 000 6.036"/><path fill="none" stroke="#000" d="M321.1 196.1a2.7 2.7 0 100-5.3 2.7 2.7 0 000 5.3z" transform="matrix(1.13778 0 0 1.13875 -85.4 -81.1)"/><path fill="#fff" d="M251.383 187.645l-7.965 4.1 7.168 4.555 8.534-4.328-7.737-4.327"/><path fill="none" stroke="#000" stroke-width=".5" d="M296 236l-7 3.6 6.3 4 7.5-3.8-6.8-3.8" transform="matrix(1.13778 0 0 1.13875 -85.4 -81.1)"/><path fill="#fff" d="M233.861 188.556l-11.947 1.822s-.227 6.49.342 7.971l12.402-1.594s.568-6.035-.797-8.199"/><path fill="none" stroke="#000" stroke-width=".5" d="M280.6 236.8l-10.5 1.6s-.2 5.7.3 7l10.9-1.4s.5-5.3-.7-7.2z" transform="matrix(1.13778 0 0 1.13875 -85.4 -81.1)"/><path fill="#058e6e" fill-opacity=".9" d="M232.61 190.833s-7.282.684-9.103 1.367v4.327s4.893-.797 9.216-1.139l-.113-4.555"/><path fill="none" stroke="#000" stroke-width=".5" d="M279.5 238.8s-6.4.6-8 1.2v3.8s4.3-.7 8.1-1l-.1-4" transform="matrix(1.13778 0 0 1.13875 -85.4 -81.1)"/><path fill="#fff" d="M268.108 188.784l12.06 1.936s.114 6.49-.454 7.97l-12.288-1.593s-.57-6.036.682-8.2"/><path fill="none" stroke="#000" stroke-width=".5" d="M310.7 237l10.6 1.7s.1 5.7-.4 7l-10.8-1.4s-.5-5.3.6-7.2z" transform="matrix(1.13778 0 0 1.13875 -85.4 -81.1)"/><path fill="#058e6e" fill-opacity=".9" d="M269.587 191.175s7.168.683 8.989 1.367l-.114 4.327s-4.779-.797-9.102-1.139l.114-4.555"/><path fill="none" stroke="#000" stroke-width=".5" d="M312 239.1s6.3.6 7.9 1.2l-.1 3.8s-4.2-.7-8-1l.1-4" transform="matrix(1.13778 0 0 1.13875 -85.4 -81.1)"/><path fill="none" stroke="#000" stroke-width=".5" d="M254.2 241.8s37-13.7 84.2 1.2m-82.7 6.7s35.9-13.4 80 .6m-79.8-9l7.2 2.1-5 5.4" transform="matrix(1.13778 0 0 1.13875 -85.4 -81.1)"/><path fill="red" d="M205.872 201.082l4.778-3.985-5.347-1.025s.682.797.569 1.594v3.416"/><path fill="none" stroke="#000" stroke-width=".5" d="M256 247.8l4.2-3.5-4.7-.9s.6.7.5 1.4v3zM337.6 242.7l-7.7 1.4 5.2 6" transform="matrix(1.13778 0 0 1.13875 -85.4 -81.1)"/><path fill="red" d="M296.098 201.31l-3.3-3.416 4.779-.456s-1.366.797-1.366 1.594c0 .684.228 1.709 0 2.278"/><path fill="none" stroke="#000" stroke-width=".5" d="M335.3 248l-2.9-3 4.2-.4s-1.2.7-1.2 1.4c0 .6.2 1.5 0 2zM265.3 241.8c.6 0 1.2-.4 1.2-1 0-.4-.6-.9-1.2-.9-.7 0-1.2.5-1.2 1s.5 1 1.2 1zm20.6-2.3c.7 0 1.2-.4 1.2-1 0-.5-.5-.9-1.2-.9s-1.2.4-1.2 1c0 .5.5.9 1.2.9zm0 3.3c.7 0 1.2-.4 1.2-.9s-.5-1-1.2-1-1.2.5-1.2 1 .5 1 1.2 1zm20.3-3.1c.6 0 1.2-.5 1.2-1s-.6-1-1.2-1c-.7 0-1.2.5-1.2 1s.5 1 1.2 1zm20.1 3.7c.7 0 1.2-.5 1.2-1s-.5-1-1.2-1-1.2.5-1.2 1 .5 1 1.2 1zm-.3 2.6c.6 0 1.2-.4 1.2-1 0-.4-.6-.9-1.2-.9-.7 0-1.2.5-1.2 1s.5 1 1.2 1zm-19.8-3c.6 0 1.2-.4 1.2-1 0-.5-.6-.9-1.2-.9-.7 0-1.2.4-1.2 1 0 .5.5 1 1.2 1zm-40 3c.7 0 1.3-.4 1.3-1 0-.4-.6-.9-1.2-.9-.7 0-1.2.5-1.2 1s.5 1 1.2 1z" transform="matrix(1.13778 0 0 1.13875 -85.4 -81.1)"/><path fill="#fc0" d="M203.141 181.951s.114 8.2 5.461 7.06 4.779-7.857 5.12-8.199c.455-.341 1.024-.341 1.024-.341s.683 6.49 5.69 5.694c5.005-.798 4.778-8.769 4.209-10.135l1.138-.342s1.934 9.338 7.623 7.971c5.689-1.366 5.12-7.288 5.12-7.288h.455s1.252 6.377 5.917 5.922c4.55-.342 5.46-1.822 4.892-8.2l3.072-.569s-1.138 9.11 4.437 9.11c5.462-.341 5.69-4.668 6.03-5.466h.91s.228 6.491 4.893 6.491c4.551 0 5.462-5.466 5.462-7.63l4.55.228s-4.778 8.541 2.162 9.68c6.827 1.139 7.055-5.466 7.055-5.466h1.365s-.227 8.54 3.527 8.768c3.869.114 6.144-1.139 6.486-7.516l2.161.798s-1.82 10.248-8.988 8.426c-3.755-1.025-5.006-5.352-4.779-6.49 0 0-2.617 4.782-7.85 3.188-5.12-1.48-4.552-5.124-4.552-6.263 0 0-3.072 5.694-7.395 4.441-3.869-1.139-5.348-2.505-5.348-5.238 0 0-1.934 4.44-5.689 4.213-3.868-.114-5.689-2.505-5.916-4.555 0 0-.797 4.1-5.917 4.441-3.413.114-5.347-1.594-6.144-3.872 0 0-1.024 4.1-5.916 4.783-3.072.342-6.144-1.366-6.827-4.213 0 0-.796 5.58-5.689 6.263-5.006.797-6.144-2.62-6.144-2.62s-1.024 4.328-5.006 5.353c-3.982.911-6.599-.797-7.623-4.783-.91-3.985-.569-5.694-.569-5.694l1.593 2.05"/><path fill="#bcac0b" stroke="#000" stroke-width=".7" d="M253.6 231s.1 7.2 4.8 6.2 4.2-6.9 4.5-7.2c.4-.3.9-.3.9-.3s.6 5.7 5 5c4.4-.7 4.2-7.7 3.7-8.9l1-.3s1.7 8.2 6.7 7c5-1.2 4.5-6.4 4.5-6.4h.4s1.1 5.6 5.2 5.2c4-.3 4.8-1.6 4.3-7.2l2.7-.5s-1 8 3.9 8c4.8-.3 5-4.1 5.3-4.8h.8s.2 5.7 4.3 5.7c4 0 4.8-4.8 4.8-6.7l4 .2s-4.2 7.5 1.9 8.5c6 1 6.2-4.8 6.2-4.8h1.2s-.2 7.5 3.1 7.7c3.4.1 5.4-1 5.7-6.6l1.9.7s-1.6 9-7.9 7.4c-3.3-.9-4.4-4.7-4.2-5.7 0 0-2.3 4.2-6.9 2.8-4.5-1.3-4-4.5-4-5.5 0 0-2.7 5-6.5 3.9-3.4-1-4.7-2.2-4.7-4.6 0 0-1.7 3.9-5 3.7-3.4-.1-5-2.2-5.2-4 0 0-.7 3.6-5.2 3.9-3 .1-4.7-1.4-5.4-3.4 0 0-.9 3.6-5.2 4.2-2.7.3-5.4-1.2-6-3.7 0 0-.7 4.9-5 5.5-4.4.7-5.4-2.3-5.4-2.3s-.9 3.8-4.4 4.7c-3.5.8-5.8-.7-6.7-4.2-.8-3.5-.5-5-.5-5l1.4 1.8h0z" transform="matrix(1.13778 0 0 1.13875 -85.4 -81.1)"/><path fill="#fc0" d="M214.177 182.293a1.934 1.936 0 100-3.758 1.934 1.936 0 000 3.758"/><path fill="#bcac0b" stroke="#000" stroke-width=".7" d="M263.3 231.3a1.7 1.7 0 100-3.3 1.7 1.7 0 000 3.3z" transform="matrix(1.13778 0 0 1.13875 -85.4 -81.1)"/><path fill="#fc0" d="M238.981 178.307a1.934 1.936 0 100-3.758 1.934 1.936 0 000 3.758"/><path fill="#bcac0b" stroke="#000" stroke-width=".7" d="M285.1 227.8a1.7 1.7 0 100-3.3 1.7 1.7 0 000 3.3z" transform="matrix(1.13778 0 0 1.13875 -85.4 -81.1)"/><path fill="#fc0" d="M264.24 179.104a1.934 1.936 0 100-3.758 1.934 1.936 0 000 3.758"/><path fill="#bcac0b" stroke="#000" stroke-width=".7" d="M307.3 228.5a1.7 1.7 0 100-3.3 1.7 1.7 0 000 3.3z" transform="matrix(1.13778 0 0 1.13875 -85.4 -81.1)"/><path fill="#fc0" d="M289.157 183.09a1.934 1.936 0 100-3.758 1.934 1.936 0 000 3.758"/><path fill="#bcac0b" stroke="#000" stroke-width=".7" d="M329.2 232a1.7 1.7 0 100-3.3 1.7 1.7 0 000 3.3z" transform="matrix(1.13778 0 0 1.13875 -85.4 -81.1)"/><path fill="#fc0" d="M250.473 176.257h-1.707c-.455 1.709-4.096 2.733-4.096 2.733-.455-1.366.569-3.302.569-3.302-4.21-1.139-4.21-2.505-4.21-2.505.569-1.48 4.551-1.708 4.551-1.708-1.138-1.253-.91-3.417-.91-3.417 2.617.228 4.779 2.847 4.779 2.847s-2.617-1.366-2.276-5.921c0 0 1.365 0 2.276.91 0 0 0-5.01 2.048-5.579h.227c2.048.57 2.048 5.58 2.048 5.58.91-1.025 2.276-.911 2.276-.911.341 4.555-2.276 5.921-2.276 5.921s2.162-2.619 4.779-2.733c0 0 .114 2.05-.797 3.417 0 0 3.869.113 4.552 1.594 0 0 0 1.48-4.324 2.505 0 0 .91 1.936.569 3.416 0 0-3.755-1.138-4.096-2.847h-3.982"/><path fill="#bcac0b" stroke="#000" stroke-width=".7" d="M295.2 226h-1.5c-.4 1.5-3.6 2.4-3.6 2.4-.4-1.2.5-2.9.5-2.9-3.7-1-3.7-2.2-3.7-2.2.5-1.3 4-1.5 4-1.5-1-1.1-.8-3-.8-3 2.3.2 4.2 2.5 4.2 2.5s-2.3-1.2-2-5.2c0 0 1.2 0 2 .8 0 0 0-4.4 1.8-4.9h.2c1.8.5 1.8 4.9 1.8 4.9.8-.9 2-.8 2-.8.3 4-2 5.2-2 5.2s1.9-2.3 4.2-2.4c0 0 .1 1.8-.7 3 0 0 3.4.1 4 1.4 0 0 0 1.3-3.8 2.2 0 0 .8 1.7.5 3 0 0-3.3-1-3.6-2.5h-3.5 0z" transform="matrix(1.13778 0 0 1.13875 -85.4 -81.1)"/><path fill="#fff" d="M251.383 177.169a3.413 3.416 0 100-6.833 3.413 3.416 0 000 6.832"/><path fill="none" stroke="#000" stroke-width=".4" d="M296 226.8a3 3 0 100-6 3 3 0 000 6z" transform="matrix(1.13778 0 0 1.13875 -85.4 -81.1)"/><path fill="#fff" d="M251.383 175.688a1.934 1.936 0 100-3.872 1.934 1.936 0 000 3.872"/><path fill="none" stroke="#000" stroke-width=".3" d="M296 225.5a1.7 1.7 0 100-3.4 1.7 1.7 0 000 3.4z" transform="matrix(1.13778 0 0 1.13875 -85.4 -81.1)"/><path fill="#fc0" d="M277.666 178.535l1.706.342c0 1.708 3.414 3.53 3.414 3.53.682-1.139.113-3.303.113-3.303 4.438-.114 4.665-1.594 4.665-1.594-.227-1.594-3.982-2.619-3.982-2.619 1.138-1.025 1.48-3.075 1.48-3.075-2.618-.455-5.235 1.595-5.235 1.595s2.845-.684 3.414-5.239c0 0-1.252-.341-2.276.342 0 0 1.024-4.783-.91-5.694l-.228-.114c-2.161 0-3.185 4.897-3.185 4.897-.683-1.139-2.048-1.253-2.048-1.253-1.252 4.328 1.024 6.15 1.024 6.15s-1.593-2.961-4.096-3.644c0 0-.57 2.05 0 3.416 0 0-3.755-.57-4.665.683 0 0-.342 1.48 3.527 3.416 0 0-1.252 1.708-1.138 3.189 0 0 3.755-.342 4.551-1.936l1.707.342 2.275.455"/><path fill="#bcac0b" stroke="#000" stroke-width=".7" d="M319.1 228l1.5.3c0 1.5 3 3.1 3 3.1.6-1 .1-2.9.1-2.9 3.9-.1 4.1-1.4 4.1-1.4-.2-1.4-3.5-2.3-3.5-2.3 1-.9 1.3-2.7 1.3-2.7-2.3-.4-4.6 1.4-4.6 1.4s2.5-.6 3-4.6c0 0-1.1-.3-2 .3 0 0 .9-4.2-.8-5l-.2-.1c-1.9 0-2.8 4.3-2.8 4.3-.6-1-1.8-1.1-1.8-1.1-1.1 3.8.9 5.4.9 5.4s-1.4-2.6-3.6-3.2c0 0-.5 1.8 0 3 0 0-3.3-.5-4.1.6 0 0-.3 1.3 3.1 3 0 0-1.1 1.5-1 2.8 0 0 3.3-.3 4-1.7l1.5.3 2 .4" transform="matrix(1.13778 0 0 1.13875 -85.4 -81.1)"/><path fill="#fff" d="M276.414 179.218a3.505 3.508 0 111.593-6.832 3.493 3.496 0 01-1.48 6.832"/><path fill="none" stroke="#000" stroke-width=".4" d="M318 228.6a3 3 0 111.4-6 3 3 0 01-1.3 6z" transform="matrix(1.13778 0 0 1.13875 -85.4 -81.1)"/><path fill="#fff" d="M276.87 177.738a1.934 1.936 0 11.796-3.758 1.934 1.936 0 01-.797 3.758"/><path fill="none" stroke="#000" stroke-width=".3" d="M318.4 227.3a1.7 1.7 0 11.7-3.3 1.7 1.7 0 01-.7 3.3z" transform="matrix(1.13778 0 0 1.13875 -85.4 -81.1)"/><path fill="#fc0" d="M224.417 178.08l-1.706.227c-.228 1.822-3.755 3.416-3.755 3.416-.569-1.366 0-3.416 0-3.416-4.21-.455-4.437-1.936-4.437-1.936.455-1.48 4.323-2.277 4.323-2.277-1.137-1.139-1.251-3.189-1.251-3.189 2.503-.227 5.006 2.05 5.006 2.05s-2.73-.91-3.072-5.466c0 0 1.48-.342 2.39.456 0 0-.57-4.897 1.365-5.694h.227c2.162.228 2.73 5.124 2.73 5.124.797-1.025 2.277-1.139 2.277-1.139.796 4.555-1.593 6.15-1.593 6.15s1.82-2.847 4.323-3.417c0 0 .455 2.164-.341 3.53 0 0 3.868-.341 4.665 1.14 0 0 .227 1.366-3.869 2.96 0 0 1.138 1.822 1.024 3.189 0 0-3.754-.57-4.55-2.278l-1.594.342-2.275.227"/><path fill="#bcac0b" stroke="#000" stroke-width=".7" d="M272.3 227.6l-1.5.2c-.2 1.6-3.3 3-3.3 3-.5-1.2 0-3 0-3-3.7-.4-3.9-1.7-3.9-1.7.4-1.3 3.8-2 3.8-2-1-1-1.1-2.8-1.1-2.8 2.2-.2 4.4 1.8 4.4 1.8s-2.4-.8-2.7-4.8c0 0 1.3-.3 2.1.4 0 0-.5-4.3 1.2-5h.2c1.9.2 2.4 4.5 2.4 4.5.7-.9 2-1 2-1 .7 4-1.4 5.4-1.4 5.4s1.6-2.5 3.8-3c0 0 .4 1.9-.3 3.1 0 0 3.4-.3 4.1 1 0 0 .2 1.2-3.4 2.6 0 0 1 1.6.9 2.8 0 0-3.3-.5-4-2l-1.4.3-2 .2" transform="matrix(1.13778 0 0 1.13875 -85.4 -81.1)"/><path fill="#fff" d="M225.441 178.99a3.444 3.446 0 10-.91-6.832 3.444 3.446 0 00.91 6.832"/><path fill="none" stroke="#000" stroke-width=".4" d="M273.2 228.4a3 3 0 10-.8-6 3 3 0 00.8 6z" transform="matrix(1.13778 0 0 1.13875 -85.4 -81.1)"/><path fill="#fff" d="M225.214 177.396a1.934 1.936 0 10-.455-3.758 1.934 1.936 0 00.455 3.758"/><path fill="none" stroke="#000" stroke-width=".3" d="M273 227a1.7 1.7 0 10-.4-3.3 1.7 1.7 0 00.4 3.3z" transform="matrix(1.13778 0 0 1.13875 -85.4 -81.1)"/><path fill="#fc0" d="M301.673 185.481s-.91-2.277-2.845-1.48-1.706 1.139-3.413 1.139c0 0-.683-2.164.228-3.075 0 0-2.731-1.025-3.414-3.416 0 0 1.48-1.708 5.006-1.025 0 0-.113-1.708.342-2.505 0 0 3.754 1.138 3.754 3.302 0 0-1.137-4.1.91-7.06 0 0 1.707.683 1.594 2.619 0 0 .796-3.872 5.916-2.847 0 0-2.73 2.505-2.844 3.644-.228 1.139-2.504 3.075-2.617 3.758 0 .57-.228 1.708-.91 2.391-.683.684-.797 1.822-.797 2.278 0 .228 0 1.822-.91 2.277"/><path fill="#bcac0b" stroke="#000" stroke-width=".7" d="M340.2 234.1s-.8-2-2.5-1.3-1.5 1-3 1c0 0-.6-1.9.2-2.7 0 0-2.4-.9-3-3 0 0 1.3-1.5 4.4-.9 0 0-.1-1.5.3-2.2 0 0 3.3 1 3.3 2.9 0 0-1-3.6.8-6.2 0 0 1.5.6 1.4 2.3 0 0 .7-3.4 5.2-2.5 0 0-2.4 2.2-2.5 3.2-.2 1-2.2 2.7-2.3 3.3 0 .5-.2 1.5-.8 2.1-.6.6-.7 1.6-.7 2 0 .2 0 1.6-.8 2z" transform="matrix(1.13778 0 0 1.13875 -85.4 -81.1)"/><path fill="#fff" d="M298.828 180.926a3.413 3.416 0 015.462-2.05c0 .57-.342 1.481-.91 2.05-.683.684-.797 1.822-.797 2.278a3.413 3.416 0 01-.455 1.822h-.569a3.413 3.416 0 01-2.73-4.1"/><path fill="none" stroke="#000" stroke-width=".4" d="M337.7 230.1a3 3 0 014.8-1.8c0 .5-.3 1.3-.8 1.8-.6.6-.7 1.6-.7 2a3 3 0 01-.4 1.6h-.5a3 3 0 01-2.4-3.6z" transform="matrix(1.13778 0 0 1.13875 -85.4 -81.1)"/><path fill="#fff" d="M300.307 181.268a1.934 1.936 0 013.414-.797l-.342.455c-.682.684-.796 1.822-.796 2.278v.228h-.683c-1.137-.114-1.706-1.14-1.479-2.278"/><path fill="none" stroke="#000" stroke-width=".3" d="M339 230.4a1.7 1.7 0 013-.7l-.3.4c-.6.6-.7 1.6-.7 2v.2h-.6c-1-.1-1.5-1-1.3-2z" transform="matrix(1.13778 0 0 1.13875 -85.4 -81.1)"/><path fill="#fc0" d="M201.548 184.57s.91-2.277 2.845-1.366c1.82 1.025 1.592 1.252 3.413 1.252 0 0 .683-2.05 0-2.96 0 0 2.73-.797 3.413-3.189 0 0-1.365-1.822-4.892-1.366 0 0 .227-1.708-.228-2.506 0 0-3.754.911-3.868 2.961 0 0 1.365-3.985-.455-7.06 0 0-1.82.683-1.82 2.505 0 0-.57-3.872-5.69-3.074 0 0 2.617 2.619 2.617 3.757s2.276 3.189 2.276 3.872c0 .57.227 1.822.91 2.505.683.684.683 1.822.569 2.278 0 .228 0 1.822.91 2.277"/><path fill="#bcac0b" stroke="#000" stroke-width=".7" d="M252.2 233.3s.8-2 2.5-1.2c1.6.9 1.4 1.1 3 1.1 0 0 .6-1.8 0-2.6 0 0 2.4-.7 3-2.8 0 0-1.2-1.6-4.3-1.2 0 0 .2-1.5-.2-2.2 0 0-3.3.8-3.4 2.6 0 0 1.2-3.5-.4-6.2 0 0-1.6.6-1.6 2.2 0 0-.5-3.4-5-2.7 0 0 2.3 2.3 2.3 3.3s2 2.8 2 3.4c0 .5.2 1.6.8 2.2.6.6.6 1.6.5 2 0 .2 0 1.6.8 2z" transform="matrix(1.13778 0 0 1.13875 -85.4 -81.1)"/><path fill="#fff" d="M204.506 180.13a3.413 3.416 0 00-5.233-2.278c0 .57.227 1.48.796 2.05.683.683.683 1.821.569 2.277 0 .228 0 1.139.455 1.936h.455a3.413 3.416 0 002.958-3.986"/><path fill="none" stroke="#000" stroke-width=".4" d="M254.8 229.4a3 3 0 00-4.6-2c0 .5.2 1.3.7 1.8.6.6.6 1.6.5 2 0 .2 0 1 .4 1.7h.4a3 3 0 002.6-3.5z" transform="matrix(1.13778 0 0 1.13875 -85.4 -81.1)"/><path fill="#fff" d="M203.027 180.357a1.934 1.936 0 00-3.413-1.025l.455.57c.683.683.683 1.822.569 2.277v.228h.796c1.024 0 1.707-1.025 1.593-2.05"/><path fill="none" stroke="#000" stroke-width=".3" d="M253.5 229.6a1.7 1.7 0 00-3-.9l.4.5c.6.6.6 1.6.5 2v.2h.7c.9 0 1.5-.9 1.4-1.8z" transform="matrix(1.13778 0 0 1.13875 -85.4 -81.1)"/><path fill="none" stroke="#000" stroke-width="1.5" d="M257.2 251.6s33.8-13.2 76.4.3" transform="matrix(1.13778 0 0 1.13875 -85.4 -81.1)"/><path fill="none" stroke="#000" stroke-width=".5" d="M338.4 241.1c-47.1-15-84.7-.8-84.7-.8" transform="matrix(1.13778 0 0 1.13875 -85.4 -81.1)"/><path fill="red" d="M251.383 189.695l-4.324 2.163 3.869 2.392 4.55-2.278-4.095-2.277"/><path fill="none" stroke="#000" stroke-width=".5" d="M296 237.8l-3.8 1.9 3.4 2.1 4-2-3.6-2" transform="matrix(1.13778 0 0 1.13875 -85.4 -81.1)"/></g></svg>