<svg xmlns="http://www.w3.org/2000/svg" width="100%" height="100%" viewBox="-51.2 -51.2 614.4 614.4"><path fill="var(--ci-primary-color, currentColor)" d="M208 184h-32v88h-62.32l13.6-136H95.12l-16.8 168H176v72h32v-72h32v-32h-32v-88zM386.111 136l-52 104H304V136h-32v240h32V272h30.111l52 104h35.778l-60-120 60-120h-35.778z" class="ci-primary"/><path fill="var(--ci-primary-color, currentColor)" d="M464 16H48a32.036 32.036 0 00-32 32v416a32.036 32.036 0 0032 32h416a32.036 32.036 0 0032-32V48a32.036 32.036 0 00-32-32zm0 448H48V48h416l.02 416z" class="ci-primary"/></svg>