<svg xmlns="http://www.w3.org/2000/svg" width="100%" height="100%" viewBox="-3.2 -3.2 38.4 38.4"><path d="M8.456 21.519c-.406-.887-.431-1.144.462-1.444 1.6-.5.5.575 2.7 3.075h.019v-5.869c.075-3.137 2.75-5.762 6.106-5.762 3.369 0 6.106 2.719 6.106 6.05 0 3.962-3.8 7.075-8.031 5.831-.656-.262-.131-1.981.531-1.787 3.313 0 5.587-.631 5.587-4.025 0-3.813-4.819-5.6-7.306-2.787-1.469 1.65-1.1 2.631-1.1 9.85 3.169 1.938 7.394 1.375 10.025-1.256a8.185 8.185 0 002.406-5.813c0-2.2-.862-4.262-2.425-5.831-1.55-1.55-3.613-2.406-5.831-2.406s-4.3.863-5.844 2.406c-.019.019-1 1.031-1.325 1.494l-.031.038c-.206.294-.394.569-1.256.381-.431-.106-.894-.363-.894-.738V1.251c0-.313.244-.656.656-.656h15.081c.519 0 .519.725.519.944 0 .244 0 .944-.519.944h-13.95v8.306h.019c6.512-6.863 17.675-2.25 17.675 6.806 0 11.131-15.3 13.769-19.381 3.925zm3.957-16.3c-.031.262.287 1.531.912 1.288C21.125 3.538 26 9.032 26.413 9.032c.3 0 1.425-.956.894-1.425-5.825-5.563-14.656-3.563-14.894-2.387zm14.15 20.7c-6.875 6.869-18.688 3.8-20.75-6.512 0-.762-1.9-.462-1.806.206 1.5 10.837 15.375 16.056 23.85 7.581.431-.488-.787-1.775-1.294-1.275zM15.35 19.163c0 .25.269.456.344.531.188.188.381.275.531.275.237 0 .162.012 1.394-1.219 1.225 1.206 1.194 1.219 1.394 1.219.338 0 1.156-.65.669-1.137l-1.081-1.081 1.137-1.137c.394-.425-.631-1.363-1.012-.981l-1.119 1.119c-1.162-1.175-1.15-1.219-1.344-1.219-.313 0-1.125.731-.775 1.081l1.137 1.137c-1.131 1.119-1.275 1.2-1.275 1.413z"/></svg>