<svg xmlns="http://www.w3.org/2000/svg" width="100%" height="100%" viewBox="-3.2 -3.2 38.4 38.4"><path d="M0 .401v31.198h32V.401zm1.333 1.333h29.333v28.531H1.333zm9.766 16.334l-1.057 3.995c-.021.115-.063.135-.193.135H7.891c-.135 0-.156-.042-.135-.193l3.786-13.26c.068-.24.109-.453.13-1.115 0-.089.047-.13.115-.13h2.792c.089 0 .135.021.156.13l4.245 14.396c.026.109 0 .172-.109.172h-2.198c-.115 0-.177-.026-.198-.115l-1.104-4.016h-4.276zm3.719-2.167c-.375-1.474-1.255-4.703-1.583-6.266h-.026c-.281 1.557-.99 4.198-1.536 6.266zm6-7.411c0-.859.594-1.365 1.365-1.365.813 0 1.365.552 1.365 1.365 0 .88-.573 1.365-1.391 1.365-.797 0-1.344-.484-1.344-1.365zm.151 3.031c0-.104.042-.146.151-.146h2.094c.12 0 .161.042.161.156v10.526c0 .109-.021.151-.156.151h-2.063c-.135 0-.177-.063-.177-.172V11.52z"/></svg>