<svg xmlns="http://www.w3.org/2000/svg" width="100%" height="100%" viewBox="-3.2 -3.2 38.4 38.4"><path d="M15.995 24.354c-1.802-2.26-2.859-4.24-3.214-5.938-.349-1.37-.214-2.464.391-3.286.635-.948 1.578-1.406 2.823-1.406s2.193.458 2.828 1.417c.594.813.745 1.906.38 3.286-.391 1.729-1.448 3.708-3.214 5.938zm12.797 1.521c-.245 1.661-1.375 3.036-2.932 3.708-3 1.307-5.974-.776-8.516-3.604 4.203-5.266 4.984-9.365 3.177-12.016-1.057-1.521-2.578-2.26-4.526-2.26-3.922 0-6.078 3.318-5.229 7.172.49 2.089 1.802 4.458 3.885 7.109-1.307 1.443-2.547 2.474-3.641 3.109-.849.458-1.661.74-2.438.807-3.568.531-6.37-2.927-5.099-6.5.177-.464.531-1.307 1.13-2.615l.031-.073c1.953-4.234 4.323-9.047 7.042-14.385l.073-.177.771-1.484c.604-1.099.849-1.589 1.802-2.193.464-.276 1.026-.417 1.661-.417 1.271 0 2.26.74 2.688 1.339.208.318.458.745.776 1.271l.745 1.453.104.208c2.719 5.339 5.094 10.141 7.036 14.385l.031.036.714 1.625.422 1.021c.323.813.396 1.625.286 2.474zm1.625-3.182c-.245-.781-.672-1.698-1.198-2.792v-.042c-2.516-5.339-4.854-10.141-7.073-14.453L22 5.192c-1.583-3.245-2.714-5.193-6.005-5.193-3.25 0-4.63 2.26-6.042 5.198l-.109.214C7.62 9.718 5.287 14.526 2.776 19.864v.073l-.745 1.625c-.276.672-.422 1.021-.458 1.13-1.802 4.948 1.911 9.292 6.401 9.292.036 0 .177 0 .349-.031h.5c2.333-.286 4.734-1.771 7.172-4.422 2.438 2.651 4.849 4.135 7.177 4.422h.495c.177.031.318.031.354.031 4.49.005 8.198-4.344 6.396-9.292z"/></svg>