<svg xmlns="http://www.w3.org/2000/svg" width="100%" height="100%" viewBox="-51.2 -51.2 614.4 614.4"><path fill="var(--ci-primary-color, currentColor)" d="M256 80C141.125 80 48 173.125 48 288s93.125 208 208 208 208-93.125 208-208S370.875 80 256 80zm124.451 332.451A176 176 0 11432 288a174.849 174.849 0 01-51.549 124.451z" class="ci-primary"/><path fill="var(--ci-primary-color, currentColor)" d="M272 160h-32v135.69l86.005 68.804 19.99-24.988L272 280.31V160zM22.965 114.796l152-104 18.071 26.411-152 104zM318.967 37.206l18.07-26.41 152 104.002-18.071 26.41z" class="ci-primary"/></svg>