<svg xmlns="http://www.w3.org/2000/svg" width="100%" height="100%" viewBox="-3.2 -3.2 38.4 38.4"><path d="M21.953 13.271c.979-2.667 1.745-4.865 2.297-6.604.547-1.734.823-2.802.823-3.198 0-.422-.094-.755-.276-.984-.182-.234-.432-.354-.76-.354-.411 0-.839.339-1.25 1.021-.427.677-.896 1.776-1.417 3.286l-2.198 6.349 2.76.484zm-2.922 5.917a17.964 17.964 0 01-1.792-.203 10.132 10.132 0 01-1.625-.438c.24.464.448.932.63 1.401.182.464.333.917.453 1.385.349-.443.719-.844 1.109-1.203a9.532 9.532 0 011.219-.958zm-2.484-6.667l-2.375-6.854c-.62-1.75-1.094-2.88-1.432-3.427-.333-.536-.698-.802-1.094-.802-.307 0-.557.109-.75.349s-.281.547-.281.932c0 .667.25 1.839.755 3.521.51 1.667 1.281 3.854 2.307 6.573a.744.744 0 01.375-.349c.161-.063.375-.104.651-.104.083 0 .255.01.521.01.255.031.693.057 1.297.12zM14.391 23.13c.25 0 .479-.12.677-.344.203-.24.313-.479.313-.734 0-.281-.198-.932-.599-1.948a20.261 20.261 0 00-1.51-3c-.438-.734-.87-1.292-1.292-1.667-.432-.37-.833-.557-1.214-.557-.307 0-.646.188-1.021.583-.375.391-.563.75-.563 1.083 0 .344.188.88.552 1.573.365.703.859 1.453 1.469 2.24.651.865 1.255 1.531 1.828 2.01.573.484 1.026.724 1.359.724zm-6.594-.531c.208.255.495.615.859 1.094.964 1.333 1.859 2 2.682 2a1.2 1.2 0 00.75-.266c.219-.188.328-.359.328-.563 0-.224-.146-.583-.438-1.104-.297-.521-.698-1.094-1.214-1.734-.583-.745-1.073-1.292-1.464-1.641-.38-.349-.698-.521-.927-.521-.505 0-.99.281-1.411.828-.427.531-.641 1.198-.641 1.948 0 .599.156 1.266.464 2.01.307.734.734 1.479 1.307 2.229a8.897 8.897 0 003.229 2.667c1.276.609 2.703.917 4.25.917 2.854 0 5.255-1.063 7.177-3.198 1.932-2.135 2.891-4.802 2.891-8.016 0-.984-.068-1.771-.214-2.344s-.385-1-.719-1.266c-.599-.51-1.776-.948-3.505-1.349a24.08 24.08 0 00-5.443-.599c-.521 0-.906.094-1.12.266s-.318.479-.318.896c0 1 .557 1.724 1.677 2.172 1.12.453 2.922.677 5.417.677h.901a.61.61 0 01.49.234c.12.146.203.37.24.693-.25.224-.755.495-1.536.797-.786.297-1.375.604-1.786.891a7.846 7.846 0 00-2.12 2.297c-.531.88-.802 1.719-.802 2.51 0 .479.115 1.068.344 1.745.229.682.349 1.099.349 1.271v.146l-.042.198c-.641-.036-1.146-.417-1.521-1.13-.38-.708-.557-1.656-.557-2.844v-.198c-.12.099-.234.177-.349.219a.935.935 0 01-.359.068c-.13 0-.26-.01-.385-.026a2.773 2.773 0 01-.385-.099c.036.156.073.318.099.469.016.161.026.281.026.359 0 .542-.214 1.016-.641 1.401-.422.38-.932.573-1.516.573-.922 0-1.865-.453-2.818-1.349s-1.422-1.786-1.422-2.646c0-.156.016-.307.052-.427a.72.72 0 01.188-.323zm15.739-8.974c1.318.24 2.25.802 2.786 1.667.547.854.818 2.214.818 4.078 0 3.698-1.104 6.708-3.323 9.057-2.224 2.344-5.063 3.531-8.516 3.531-1.365 0-2.688-.255-3.969-.745a10.133 10.133 0 01-3.323-2.057c-1.052-.969-1.854-1.984-2.37-3.063-.536-1.083-.802-2.188-.802-3.307 0-1.266.266-2.24.802-2.922.531-.693 1.396-1.161 2.573-1.411-.229-.521-.391-.948-.479-1.307-.109-.359-.161-.625-.161-.813 0-.667.344-1.349 1.042-2.026.693-.693 1.344-1.042 1.958-1.042.25 0 .531.042.828.146.292.094.625.255 1 .469-1.083-3.135-1.911-5.599-2.417-7.333-.521-1.75-.771-2.932-.771-3.599 0-.911.224-1.641.693-2.177.479-.531 1.12-.797 1.917-.797 1.375 0 3.125 3.078 5.245 9.229.37 1.052.635 1.865.839 2.438l.677-1.938C20.703 3.64 22.521.599 24.052.599c.745 0 1.349.255 1.786.76.443.51.667 1.182.667 2.031 0 .641-.255 1.813-.745 3.531-.49 1.708-1.229 3.948-2.229 6.719z"/></svg>