<svg xmlns="http://www.w3.org/2000/svg" width="100%" height="100%" viewBox="-3.2 -3.2 38.4 38.4"><path d="M11.068 31.969c-.771-.057-1.787-.251-2.636-.496a12.13 12.13 0 01-3.927-2.015c-.489-.38-1.536-1.428-1.964-1.964-1.588-2-2.396-4.177-2.473-6.667a11.015 11.015 0 01.437-3.468c.088-.308.093-.339.073-.709-.021-.5.025-1 .135-1.484.084-.328.308-.812.453-.989l.088-.109-.009.577c-.016.833-.016.833.249.371a11.113 11.113 0 012.292-2.871c.26-.233.495-.448.516-.479.025-.027.119-.235.213-.464.276-.687.52-1.063.791-1.197.235-.12.443-.057.496.14a1.15 1.15 0 01-.011.287c-.016.073-.021.141-.016.213.005 0 .208-.104.453-.233.864-.459 1.484-.724 2.792-1.188.427-.151.833-.303.9-.328.365-.156.563-.677.532-1.385a1.854 1.854 0 00-.141-.672 3.968 3.968 0 00-.161-.423c-.068-.129-.057-.156.052-.124.313.088.683.391.917.739.135.209.364.699.364.792 0 .073.047.037.152-.115.405-.604.411-1.292.004-1.984-.151-.251-.572-.672-.859-.849-.369-.224-.593-.291-.989-.287-.303 0-.333-.004-.423-.077-.109-.095-.172-.292-.145-.459.036-.188.355-.797.579-1.093a6.99 6.99 0 011.219-1.177C12.24.918 13.765.397 15.536.235c.428-.041.443-.041.532-.136.083-.088.109-.099.292-.099.176 0 .228.016.427.131.208.12.229.124.317.088.068-.031.177-.036.375-.025.224.015.292.009.349-.032.104-.073.229-.063.417.032.088.047.348.124.583.176 1.093.24 1.969.579 2.803 1.084.151.088.276.167.281.167.015 0 0-.12-.043-.328l-.015-.095.203.12c.265.161.505.412.636.661.093.177.113.204.161.172a.193.193 0 01.151-.005c.068.027.12.1.265.391.099.199.188.371.199.381.015.015.115-.073.224-.199.233-.255.447-.396.733-.495.267-.088.428-.073.547.063.12.135.12.307-.004.573-.24.504-.349.968-.308 1.323l.021.181.145-.099c.131-.093.161-.104.407-.104.255 0 .531.079.531.151 0 .016-.068.109-.151.215-.245.296-.308.468-.303.833.005.333.021.411.235 1.156.084.276.172.629.203.791.016.105.043.204.084.297.052 0 .417-.301.636-.525a2.22 2.22 0 01.26-.24c.041 0 .12.249.156.5.041.292.011.579-.099.921-.063.209-.063.229-.016.328.084.172.093.36.036.595-.093.401-.265.681-.708 1.145l-.229.24-.036.317a5.838 5.838 0 01-.104.588 1.375 1.375 0 00-.047.287c.011.011.041 0 .067-.025.068-.057.287-.027.505.077.443.215 1.292.991 1.625 1.491l.183.265.287.072c1.177.297 2.099 1.157 2.604 2.433.161.4.271.911.349 1.577.025.209.083.391.239.787.115.287.224.599.245.693.057.255.025.588-.079.833a4.085 4.085 0 00-.151.427c-.12.432-.317.713-.651.927a1.498 1.498 0 01-.371.172c-.181.047-.796.333-.796.371 0 .009.041.025.099.041.292.057.677.333.776.557.016.047.093.167.172.26.281.375.349.719.249 1.26l-.057.281.084.104c.297.36.547.829.64 1.188.131.505.125.995-.009 1.74l-.057.312.109.156c.203.297.244.579.14.98-.26 1.005-1.021 1.749-2.083 2.031l-.209.052v.281c0 .213-.015.312-.067.423a.905.905 0 01-.428.427c-.296.129-.744-.011-.963-.308-.109-.151-.12-.151-.276-.151a1.188 1.188 0 01-.303-.052c-.328-.115-.484-.344-.489-.729l-.005-.224-.208-.125a3.122 3.122 0 01-.751-.609l-.203-.219.104.209c.448.885-.057 1.848-1.125 2.135-.219.063-.385.073-1.323.093-1.448.037-12.027.032-12.489-.004zm18.011-.537c.135-.115.187-.416.104-.577-.079-.152-.188-.199-.511-.224-.369-.027-.475-.084-.475-.24 0-.203.037-.213.855-.224.797-.011 1.036-.047 1.385-.224.308-.156.699-.64.735-.912l.016-.124-.219.063c-.833.233-1.959.276-2.781.104-.885-.188-1.704-.693-1.995-1.235l-.073-.136-.037.095a1.597 1.597 0 00-.041.448c-.005.328.005.364.099.557.193.405.609.801 1.12 1.057.267.135.276.14.256.239l-.052.323c-.052.281-.027.433.104.584a.68.68 0 00.541.229c.125 0 .203.02.255.063.276.213.563.271.715.135zm-6.672-.244c.62-.089.817-.095 1.151-.016.677.145 1.38.025 1.688-.292.203-.213.265-.547.14-.755-.156-.256-.563-.428-1.011-.428-.312 0-.473.048-1.015.276a4.556 4.556 0 01-.505.193c-.229.047-.355-.084-.355-.369 0-.313.088-.412.751-.88.567-.401.905-.865.989-1.349.036-.224-.005-.537-.084-.609a1.757 1.757 0 00-.391-.141c-1.109-.328-1.615-.749-2.099-1.744a7.774 7.774 0 01-.464-1.213 5.147 5.147 0 00-.203-.579c-.36-.797-1.24-1.511-2.245-1.839-.427-.136-.697-.188-1.38-.245-.249-.02-.5-.047-.749-.072l-.161-.027.224-.115c.276-.14.473-.203.771-.244.416-.063.703-.079 1.011-.043 1.228.141 2.156.772 2.807 1.917.245.427.417.864.588 1.468.199.704.376 1.057.715 1.412.547.584 1.276.844 2.353.844.24 0 .537-.016.656-.036a3.85 3.85 0 001.417-.485c.421-.249.817-.719.948-1.12.036-.119.083-.219.099-.219.021 0 .141.027.271.052.219.053.251.053.516 0 .421-.077.536-.067.64.048.167.171.371.203.604.093a.802.802 0 00.235-.203c.079-.105.095-.157.089-.276-.011-.141-.016-.147-.261-.308a1.36 1.36 0 01-.244-.177c0-.005.057-.057.129-.104.105-.068.167-.083.261-.077.135.009.135-.005.005-.261a1.134 1.134 0 00-.537-.531c-.448-.219-.957-.219-1.525 0-.344.135-.396.135-.631.031-.307-.135-.62-.181-1.041-.156-.527.031-.869-.025-1-.156l-.099-.099.416-.043c.656-.057.844-.115 1.423-.432.359-.197.572-.249 1.109-.281.771-.047 1.14-.177 1.343-.484.073-.109.115-.141.147-.12a.848.848 0 001.036-.651c.021-.109.016-.115-.317-.412a3.235 3.235 0 01-.339-.323c0-.011.052-.068.115-.12.188-.167.323-.14.708.141.068.052.073.052.073-.005 0-.125-.079-.333-.303-.813-.265-.561-.287-.624-.339-1.072-.161-1.376-.9-2.521-2.057-3.193a1.799 1.799 0 00-.281-.151.95.95 0 00-.124.208 1.42 1.42 0 01-.224.333c-.1.104-.141.131-.24.131-.14 0-.24-.073-.24-.177 0-.041.043-.167.095-.276.161-.349.208-.588.161-.86-.109-.64-.708-1.353-1.459-1.749-.292-.151-.323-.145-.344.041-.02.219.027.656.104.948.032.136.156.464.267.719.291.667.38.964.38 1.256a.946.946 0 01-.052.359 1.037 1.037 0 01-.376.427c-.109.057-.233.063-.208.005.167-.385.224-.572.24-.807.016-.333-.027-.489-.313-1.073-.285-.588-.364-.907-.348-1.391l.015-.339-.077.152a7.454 7.454 0 01-.333.547c-.407.629-.536.968-.536 1.391 0 .396.151.943.369 1.333.041.077.073.145.063.156a.865.865 0 01-.193-.151c-.177-.172-.432-.605-.432-.74 0-.093-.057-.073-.317.093-.489.313-.839.631-1.303 1.177-.677.803-1.593 1.401-2.719 1.771-.265.089-1.131.317-1.916.516-2.163.536-2.917.801-3.917 1.38-1.979 1.136-3.016 2.667-3.219 4.751-.073.749.031 1.88.245 2.692.036.12-.172-.151-.303-.401-.229-.443-.38-.995-.453-1.681-.068-.615.005-1.839.151-2.496l.021-.093-.479.021c-1.177.052-2.156.385-2.953 1.016a3.56 3.56 0 00-.344.296l-.079.099.021-.093c.036-.172.224-.541.38-.74.319-.427.964-.828 1.636-1.031.177-.052.719-.183 1.197-.292.489-.109.907-.203.937-.208.027-.011.12-.145.204-.303.083-.161.239-.405.344-.547.104-.145.181-.271.171-.276a6.22 6.22 0 00-.52.068 81.02 81.02 0 01-1.371.192c-.957.125-1.5.224-2 .371-1.547.448-2.443 1.312-2.905 2.812l-.12.391.063.183c.099.297.437.959.667 1.297.885 1.317 2.271 2.391 3.973 3.061.385.157.433.183.631.381.12.115.213.213.208.219-.025.025-1.005-.229-1.432-.371a8.967 8.967 0 01-2.817-1.531 3.606 3.606 0 00-.589-.375 7.102 7.102 0 01-1.869-1.381 3.793 3.793 0 01-.651-.895l-.136-.256.193.183c.427.391 1.047.792 1.348.875.073.021.068.005-.057-.213a8.12 8.12 0 01-.484-1.047 2.077 2.077 0 00-.375-.656c-.995-1.297-1.724-2.6-2.235-3.991l-.156-.432-.027.147c-.02.233-.031.473-.031.719l-.005.572.188.516c.192.527.885 2.396.943 2.552.02.047.025.089.02.089s-.12-.141-.249-.308c-.308-.385-.647-.896-.708-1.057l-.053-.125.021.109c.099.6.365 1.495.62 2.1.781 1.833 2.068 3.443 3.631 4.541 1.52 1.073 3.588 1.823 5.416 1.973.177.011 2.776.027 5.781.032 4.693 0 5.505-.005 5.797-.047zm2.244-8.891a3.7 3.7 0 01-1.011-.365c-.613-.359-1.052-.989-1.093-1.577-.016-.209-.016-.209.032-.1.276.704.812 1.272 1.547 1.647.339.167.525.239.921.339l.355.093-.292-.005c-.156 0-.364-.016-.459-.031zm3.51-3.198c-.323-.077-.683-.364-.781-.625a.988.988 0 01.027-.64l.052-.093.02.129c.063.319.287.595.609.735.1.047.344.109.548.145.307.053.504.111.619.183.011.005.021-.14.027-.317.005-.317.005-.328-.047-.251-.109.163-.265.287-.365.287-.124 0-.681-.203-.833-.301-.192-.125-.249-.251-.249-.511 0-.188-.016-.235-.073-.303l-.073-.072.152-.141c.255-.229.405-.287.76-.287.344 0 .489.052.729.256.344.292.459 1.011.255 1.604l-.072.219-.589.005c-.239.011-.479 0-.713-.021zm.386-1.135c.115-.057.183-.183.177-.328-.005-.095-.031-.141-.12-.224-.188-.172-.437-.12-.547.109-.145.301.188.604.489.448zm-2.714 11.452a2.775 2.775 0 01-.344-.796c-.104-.48-.011-1.24.204-1.604l.083-.147-.265.021a5.42 5.42 0 01-.423.021h-.156v.239c0 .469-.219 1.047-.563 1.475l-.176.224.328.025c.176.011.416.047.536.084.24.072.541.255.708.432.131.14.156.151.068.025zm4.391-1.119c.24-.095.437-.271.557-.5.115-.235.235-.849.26-1.303.011-.287.005-.427-.036-.625-.052-.249-.245-.692-.365-.839l-.061-.077-.157.115c-.343.244-.619.287-.973.129-.167-.072-.265-.093-.531-.104l-.324-.011-.104.183c-.307.547-.781.98-1.353 1.229l-.245.115-.021.172c-.088.697.376 1.183 1.401 1.443.536.14.713.156 1.276.151.423-.011.521-.02.677-.077zM4.473 23.339c.292-1.421 1.371-2.375 3.204-2.828.453-.115 1.208-.26 2.573-.511 1.796-.323 2.348-.495 3.009-.937l.401-.265-1.688-.011c-2.067-.011-2.337.016-3.145.281-.511.172-1.016.396-2.401 1.077-.656.324-1.203.584-1.208.579-.011-.016.5-.464.76-.667.855-.672 2.256-1.453 3.152-1.751 1.531-.515 2.708-.613 5.187-.437l1.188.089.464-.115c.452-.115.916-.204 1.791-.344.152-.021.297-.052.448-.084.005-.004-.015-.02-.052-.031a1.885 1.885 0 01-.484-.245 1.276 1.276 0 01-.199-.145c0-.005.412-.005.923 0 .916.011.921.011 1.244-.077 2-.543 3.647-2.016 4.521-4.063.183-.428.5-1.333.479-1.36-.009-.011-.119.041-.239.115a10.71 10.71 0 01-1.339.667 9.529 9.529 0 01-2.943.661l-.287.021-.229.213c-.797.755-2 1.468-3.099 1.849-.615.213-.995.296-2.969.672-.979.187-2.088.4-2.468.484-2.756.577-4.521 1.301-5.475 2.249a2.96 2.96 0 00-.687.975 2.19 2.19 0 01-.355.531 2.817 2.817 0 00-.563 1.073c-.12.495-.068 1.219.147 1.839.072.224.271.677.291.677.021-.063.037-.12.047-.183zM3.38 22.177l-.031-.484L3 21.172a34.957 34.957 0 01-.625-.984c-.249-.428-.839-1.552-1-1.937l-.068-.157.016.125c.037.245.199.901.317 1.26.256.797.683 1.677 1.147 2.376.208.312.604.839.62.823 0-.167-.011-.333-.027-.5zm-.011-1.865c-.104-.525-.057-1.244.115-1.667.068-.176.213-.473.235-.473.005 0 .057.125.115.281.099.281.24.552.281.552a.865.865 0 00.145-.213c.068-.115.213-.328.324-.48l.208-.271-.131-.077c-.407-.261-.776-.849-.937-1.491-.156-.635-.203-1.599-.12-2.391.027-.219.041-.4.032-.411-.021-.021-.464.531-.745.921a10.694 10.694 0 00-1.151 2.12l-.141.355.136.391a12.54 12.54 0 001.677 3.135 1.62 1.62 0 00-.043-.281zm1.959-2.5c-.093-.385-.135-.895-.135-1.801 0-.871.004-1 .072-1.375.095-.496.256-1.057.407-1.385.115-.24.432-.792.453-.772.005.005-.032.319-.084.688-.14 1.079-.172 1.473-.151 2.093.027.709.151 1.6.229 1.6.031 0 .041-.152.036-.667a7.63 7.63 0 01.323-2.344c.267-.932.828-2.156 1.344-2.928.041-.057.079-.119.109-.181 0-.011-.083-.005-.187.009C6.515 10.937 5.52 11.76 5.02 13l-.125.307.016-.219c.041-.624.167-1.5.249-1.791.011-.032-.021.015-.068.099-.364.683-.719 2.635-.719 4.005 0 1.005.183 1.729.543 2.213.171.224.447.359.411.197zm1.699-1.224c.28-.14.671-.249 2.359-.676a47.965 47.965 0 001.735-.464 5.448 5.448 0 002.088-1.26c.615-.595.823-.907 1.016-1.552.088-.297.088-.297.145-.224.251.328.245 1.109-.005 1.604-.036.063-.052.12-.036.12.068 0 .421-.261.568-.417.391-.416.568-.797.88-1.855.047-.167.099-.328.161-.489.027-.031.145.235.213.495.037.141.052.324.052.589a2.463 2.463 0 01-.285 1.172l-.115.224.171-.089c.412-.224 1.167-1.145 1.491-1.823a2.48 2.48 0 00.281-1.183c0-.567-.12-.943-.459-1.437-.448-.645-1.459-1.396-2.344-1.744-.136-.052-.224-.12-.375-.292-.115-.125-.188-.224-.172-.224.041 0 .631.156 1.025.276.943.281 1.677.692 2.251 1.255.656.652.968 1.339.964 2.115-.005.693-.251 1.319-.781 2.027a2.274 2.274 0 00-.188.265c0 .027.511-.203.833-.369.401-.215 1.052-.657 1.307-.881.344-.317.813-1.093 1.011-1.697.193-.583.224-1.245.084-1.792-.12-.479-.437-1.036-.833-1.463l-.167-.183h.161c.088 0 .172-.016.177-.031.041-.063-.052-.204-.199-.292-.244-.156-.348-.172-.807-.115-.511.068-1.328.068-1.724 0-.344-.052-.724-.172-.912-.281l-.125-.079 1.167-.015c.887-.011 1.224-.032 1.433-.068.296-.057.505-.141.572-.224.043-.047.032-.068-.077-.183-.36-.369-1.021-.828-1.693-1.167a8.101 8.101 0 00-3.719-.88c-.516 0-1.145.052-1.421.12l-.079.015.093-.099c.125-.135.548-.339.855-.416.547-.141 1.308-.188 2.041-.136 1.037.079 1.776.265 2.771.708.215.095.412.172.444.167.083-.004.181-.099.228-.213l.043-.099.099.219c.057.12.099.229.099.251 0 .077.063-.011.099-.147a.453.453 0 01.068-.161c.032-.02.12.167.224.489l.073.235.167-.167c.192-.192.197-.187.229.235l.015.276.147-.093c.083-.048.161-.079.172-.068.009.016.047.125.088.244.115.365.271.663.459.871.088.109.219.292.281.411.063.115.124.204.14.204.047-.021.271-.412.375-.672.032-.089.073-.172.125-.251.047 0 .073.36.057.756a2.38 2.38 0 000 .396c.057-.032.115-.068.167-.109a.757.757 0 01.177-.115c.068 0-.084 1-.193 1.291-.047.105.048.052.256-.156.115-.115.208-.187.208-.167 0 .084-.188.781-.255.953a4.2 4.2 0 01-.209.432c-.129.235-.233.48-.317.729l-.02.089.156-.105c.172-.119.249-.156 1.187-.52.828-.328 1.297-.552 1.485-.719.197-.177.312-.396.312-.615v-.167l-.093.125c-.177.244-.595.588-.98.817l-.129.073.099-.111c.427-.468.719-1.113.719-1.604 0-.176-.047-.432-.104-.567-.041-.1-.041-.1-.276.484-.276.672-.537 1.208-.708 1.468-.261.381-.647.724-.881.781-.077.021-.083.016-.057-.036.057-.104.131-.427.167-.713.016-.151.037-.896.048-1.651.02-1.349.041-1.709.124-2.068.043-.177.043-.183-.093-.547-.068-.177-.145-.36-.224-.537-.088-.176-.287-.453-.328-.453-.011 0-.093.163-.183.36l-.161.355-.016-.303c-.009-.24-.025-.317-.083-.396a2.201 2.201 0 00-.584-.511 6.982 6.982 0 00-.957-.484c-.079-.021-.079-.021-.057.151.015.095.031.209.041.251.021.073.016.073-.104.052a.968.968 0 01-.541-.312c-.084-.089-.157-.152-.167-.147.015.104.041.204.083.303.047.156.088.292.079.296-.021.021-.245-.061-.339-.129a1.557 1.557 0 01-.251-.333 1.791 1.791 0 00-.292-.38c-.208-.177-.301-.204-1.291-.303a1.983 1.983 0 01-.599-.145c-.053-.021-.048 0 .02.151.041.093.089.224.099.287l.021.115-.14-.032a2.121 2.121 0 01-.715-.287c-.208-.124-.224-.129-.599-.156-.437-.025-.875 0-1.307.089l-.24.057.24.025c.323.037.599.125.771.251.135.099.249.213.249.255 0 .011-.249.027-.563.036-.9.021-1.468.167-2.271.563-.4.204-1.5.912-1.771 1.147-.161.135-.453.52-.453.593 0 .041.063.073.235.12 1.292.369 2.104 1.312 2.26 2.625.12.947.1 1.531-.057 2.161-.244.968-.875 1.9-1.583 2.339-.26.161-.797.369-.959.369h-.093l.167-.183c.385-.421.667-.959.855-1.64.109-.38.119-.781.025-1.084-.063-.219-.083-.224-.145-.025a3.596 3.596 0 01-.339.719c-.068.099-.516.572-1.021 1.077-1.151 1.141-1.629 1.735-2.077 2.557a6.84 6.84 0 00-.724 2.183c-.063.527-.048 1.421.031 1.421.011 0 .125-.047.251-.109zm15.233-4.801c.828-.276 1.475-.579 2.016-.937a5.338 5.338 0 001.197-1.177c.287-.407.704-1.287.636-1.349-.036-.036-.599.177-.787.297-.203.129-.328.229-.932.749-.593.511-.713.595-1.016.74-.317.156-.511.172-.713.052a.568.568 0 01-.131-.088c0-.011.063-.052.131-.095.141-.088.407-.343.38-.369a2.365 2.365 0 00-.411.208c-1.084.62-1.652 1.136-1.745 1.589-.025.129.005.135.349.02.839-.271 1.828-.791 3.077-1.615.365-.239.543-.339.704-.385a.916.916 0 01.235-.047c.036.041-.365.5-.688.792-.808.724-1.547 1.208-2.396 1.583a3.011 3.011 0 00-.355.172c.021 0 .219-.063.448-.14zm1.188-5.052c.344-.511.448-.896.495-1.771.041-.828.131-1.319.355-1.959.052-.156.088-.281.077-.292-.031-.031-.353.391-.463.615-.324.651-.573 1.792-.693 3.145-.025.297-.047.553-.047.568 0 .057.135-.093.276-.307z"/></svg>