<svg xmlns="http://www.w3.org/2000/svg" width="100%" height="100%" viewBox="-3.2 -3.2 38.4 38.4"><path d="M31.76 16c-.077-4.251-3.588-7.636-7.839-7.563-.391 0-.801.032-1.203.068-3.359.495-5.599 2.907-6.839 4.76-1.265-1.853-3.52-4.265-6.853-4.76a13.361 13.361 0 00-1.199-.068C3.578 8.374.078 11.754-.001 16c.079 4.245 3.579 7.625 7.828 7.563.401 0 .797-.032 1.224-.084 3.36-.479 5.599-2.891 6.855-4.744 1.265 1.853 3.505 4.265 6.853 4.76.412.036.803.068 1.213.068 4.229.041 7.709-3.333 7.787-7.563zM8.64 20.803c-.265.052-.572.052-.837.052a5.027 5.027 0 01-5.136-4.881 5.038 5.038 0 015.145-4.88c.267 0 .563.027.839.052 3.161.469 5.095 3.563 5.751 4.828-.667 1.267-2.599 4.401-5.751 4.829zM17.333 16c.651-1.24 2.588-4.36 5.745-4.828.271-.052.561-.052.828-.052A5.011 5.011 0 0129.067 16a5.046 5.046 0 01-5.147 4.88 8.44 8.44 0 01-.828-.052c-3.145-.468-5.093-3.588-5.744-4.828zm-11.718.787h4.719V15.24H5.626v1.547zm18.838 0h1.588V15.24h-1.604v-1.589h-1.505v1.604h-1.599v1.532h1.599v1.573h1.537v-1.557zM32 9.412c0 .4-.292.681-.708.681a.677.677 0 01-.704-.667c0-.375.319-.692.704-.692.416 0 .708.292.708.677zm-1.213 0c0 .296.213.536.531.536.297 0 .511-.24.511-.536 0-.292-.213-.532-.511-.532-.317-.025-.531.213-.531.532zm.401.348h-.136v-.692l.265-.016c.12 0 .188.016.245.041.052.027.077.079.077.147 0 .077-.052.135-.145.145.068.027.093.084.12.177l.036.172h-.156c-.025-.027-.025-.095-.057-.172-.025-.068-.052-.093-.145-.093h-.063l-.032.291zm.025-.4h.079c.093 0 .135-.011.135-.095 0-.068-.041-.093-.135-.093h-.095v.188z"/></svg>