<svg xmlns="http://www.w3.org/2000/svg" width="100%" height="100%" viewBox="-3.2 -3.2 38.4 38.4"><path d="M26.333.401H5.666A5.66 5.66 0 00-.001 6.068v19.864a5.66 5.66 0 005.667 5.667h20.667A5.66 5.66 0 0032 25.932V6.068A5.66 5.66 0 0026.333.401zm4.318 25.011a4.825 4.825 0 01-4.823 4.853H6.172a4.846 4.846 0 01-4.839-4.839V6.573a4.846 4.846 0 014.839-4.839h19.64a4.84 4.84 0 014.839 4.839zM12.651 15l3.735 7.172c.068.109.027.213-.079.213h-2.323c-.145 0-.213-.036-.276-.172-.853-1.76-1.724-3.52-2.615-5.411h-.025a210.669 210.669 0 01-2.537 5.427c-.061.104-.129.145-.239.145H6.093c-.135 0-.145-.109-.077-.187l3.651-6.959-3.531-7.041c-.084-.109 0-.188.077-.188h2.292c.135 0 .188.027.24.145a272.653 272.653 0 012.495 5.349h.025c.776-1.76 1.631-3.588 2.453-5.333.068-.109.109-.177.24-.177h2.145c.109 0 .151.084.084.188zm4.39 2.172c0-3.104 2.063-5.532 5.344-5.532.281 0 .427 0 .693.027V8.136c0-.084.067-.136.135-.136h2.104c.109 0 .136.041.136.104v12.245c0 .359 0 .812.068 1.301 0 .084-.027.109-.109.152a7.967 7.967 0 01-3.412.771c-2.896.015-4.959-1.771-4.959-5.401zm6.038-3.412a2.054 2.054 0 00-.772-.135c-1.681 0-2.853 1.296-2.853 3.443 0 2.453 1.197 3.437 2.708 3.437.317 0 .667-.036.917-.145z"/></svg>