<svg xmlns="http://www.w3.org/2000/svg" width="100%" height="100%" viewBox="-3.2 -3.2 38.4 38.4"><path d="M5.849 11.047c-.376.448-.975.803-1.573.751-.079-.604.219-1.251.563-1.652.375-.457 1.031-.785 1.563-.812.063.631-.183 1.251-.552 1.713zm.547.87c-.869-.053-1.615.499-2.027.499-.421 0-1.052-.473-1.739-.457-.891.011-1.724.52-2.177 1.339-.943 1.629-.245 4.041.661 5.369.443.656.973 1.375 1.672 1.355.661-.027.927-.437 1.724-.437.807 0 1.036.437 1.74.421.723-.011 1.181-.656 1.624-1.312.505-.745.713-1.475.724-1.511-.011-.016-1.401-.552-1.411-2.167-.011-1.355 1.093-2 1.14-2.037-.62-.937-1.599-1.036-1.932-1.061zm5.016-1.834v9.855h1.515v-3.369h2.095c1.911 0 3.255-1.328 3.255-3.245 0-1.921-1.317-3.24-3.203-3.24zm1.515 1.292h1.745c1.312 0 2.063.708 2.063 1.953s-.751 1.959-2.073 1.959h-1.735zm8.109 8.636c.953 0 1.833-.484 2.235-1.256h.032v1.183h1.4v-4.907c0-1.416-1.124-2.337-2.859-2.337-1.604 0-2.792.932-2.833 2.208h1.359c.115-.609.667-1.005 1.433-1.005.927 0 1.443.437 1.443 1.24v.541l-1.885.115c-1.761.109-2.709.833-2.709 2.099 0 1.276.98 2.12 2.385 2.12zm.412-1.167c-.808 0-1.323-.391-1.323-.989 0-.62.495-.985 1.437-1.043l1.683-.104v.557c0 .923-.776 1.579-1.803 1.579zm5.125 3.776c1.473 0 2.167-.573 2.771-2.297L32 12.792h-1.536l-1.781 5.817h-.032l-1.781-5.817h-1.583l2.563 7.172-.136.437c-.235.735-.609 1.02-1.276 1.02-.12 0-.349-.015-.443-.025v1.183c.088.025.464.036.573.036z"/></svg>