<svg xmlns="http://www.w3.org/2000/svg" width="100%" height="100%" viewBox="-51.2 -51.2 614.4 614.4"><path fill="var(--ci-primary-color, currentColor)" d="M425.706 86.294A240 240 0 0086.294 425.706 240 240 0 00425.706 86.294zM256 464c-114.691 0-208-93.309-208-208S141.309 48 256 48s208 93.309 208 208-93.309 208-208 208z" class="ci-primary"/><path fill="var(--ci-primary-color, currentColor)" d="M256 152a104 104 0 10104 104 104.118 104.118 0 00-104-104zm0 176a72 72 0 1172-72 72.081 72.081 0 01-72 72z" class="ci-primary"/><path fill="var(--ci-primary-color, currentColor)" d="M240 240h32v32h-32zM256 112V80a174.144 174.144 0 00-79.968 19.178A177.573 177.573 0 00115.2 150.39l25.586 19.219A142.923 142.923 0 01256 112z" class="ci-primary"/></svg>