<svg xmlns="http://www.w3.org/2000/svg" width="100%" height="100%" viewBox="-51.2 -51.2 614.4 614.4"><path fill="var(--ci-primary-color, currentColor)" d="M88 160a64 64 0 10-64-64 64.072 64.072 0 0064 64zm0-96a32 32 0 11-32 32 32.036 32.036 0 0132-32zM256 32a64 64 0 1064 64 64.072 64.072 0 00-64-64zm0 96a32 32 0 1132-32 32.036 32.036 0 01-32 32zM424 160a64 64 0 10-64-64 64.072 64.072 0 0064 64zm0-96a32 32 0 11-32 32 32.036 32.036 0 0132-32zM88 192a64 64 0 1064 64 64.072 64.072 0 00-64-64zm0 96a32 32 0 1132-32 32.036 32.036 0 01-32 32zM256 192a64 64 0 1064 64 64.072 64.072 0 00-64-64zm0 96a32 32 0 1132-32 32.036 32.036 0 01-32 32zM424 192a64 64 0 1064 64 64.072 64.072 0 00-64-64zm0 96a32 32 0 1132-32 32.036 32.036 0 01-32 32zM424 352a64 64 0 1064 64 64.072 64.072 0 00-64-64zm0 96a32 32 0 1132-32 32.036 32.036 0 01-32 32zM56 408h32v32H56zM152 408h32v32h-32zM248 408h32v32h-32z" class="ci-primary"/></svg>