<svg xmlns="http://www.w3.org/2000/svg" width="100%" height="100%" viewBox="-3.2 -3.2 38.4 38.4"><path d="M9.016 13.38c0 .396.047.714.12.948.083.234.193.49.339.766a.451.451 0 01.078.245c0 .109-.068.214-.203.323l-.672.443a.489.489 0 01-.276.099c-.109 0-.214-.052-.318-.151a3.007 3.007 0 01-.385-.5 7.01 7.01 0 01-.328-.625c-.833.979-1.875 1.469-3.13 1.469-.896 0-1.609-.255-2.13-.766-.521-.516-.786-1.193-.786-2.047 0-.901.318-1.641.969-2.193s1.51-.828 2.609-.828c.359 0 .734.031 1.125.083.396.052.802.141 1.224.234v-.776c0-.807-.167-1.375-.5-1.703-.339-.328-.911-.49-1.734-.49-.37 0-.755.042-1.151.135a8.633 8.633 0 00-1.146.365c-.125.057-.25.099-.375.141a.81.81 0 01-.167.031c-.151 0-.224-.109-.224-.333v-.521c0-.167.021-.297.073-.37a.735.735 0 01.297-.224 5.955 5.955 0 011.339-.479 6.414 6.414 0 011.661-.203c1.271 0 2.193.286 2.792.865.583.573.88 1.443.88 2.615v3.448zM4.698 15c.349 0 .714-.063 1.094-.193a2.327 2.327 0 001.01-.677c.172-.203.302-.427.365-.682s.104-.568.104-.927v-.448a8.659 8.659 0 00-.979-.182 7.862 7.862 0 00-1-.063c-.714 0-1.234.141-1.583.427-.354.286-.521.693-.521 1.224 0 .5.125.87.391 1.125.255.266.63.396 1.12.396zm8.547 1.151c-.193 0-.323-.031-.406-.109-.083-.063-.161-.214-.224-.411l-2.5-8.229a1.765 1.765 0 01-.094-.427c0-.172.083-.266.25-.266h1.047c.203 0 .339.031.411.104.089.063.151.214.214.417l1.792 7.047 1.661-7.047c.052-.214.115-.354.198-.417a.721.721 0 01.427-.104h.849c.203 0 .344.031.427.104.083.063.161.214.203.417l1.682 7.13 1.839-7.13c.068-.214.141-.354.214-.417a.69.69 0 01.417-.104h.99c.172 0 .266.083.266.266 0 .052-.01.104-.021.172a1.756 1.756 0 01-.073.266l-2.568 8.224c-.063.214-.135.354-.224.417a.643.643 0 01-.401.104h-.917c-.203 0-.339-.031-.427-.104-.083-.073-.156-.214-.198-.427l-1.651-6.865-1.641 6.854c-.052.214-.115.354-.203.427-.083.073-.234.104-.427.104zm13.672.287c-.552 0-1.104-.068-1.635-.193s-.948-.266-1.224-.427c-.172-.094-.286-.198-.328-.297a.725.725 0 01-.068-.297v-.542c0-.224.089-.333.245-.333.063 0 .13.01.193.031.063.026.161.068.266.109.365.161.755.286 1.172.37.427.089.839.13 1.266.13.672 0 1.193-.12 1.552-.354.354-.214.568-.599.557-1.01a1.072 1.072 0 00-.286-.745c-.193-.198-.557-.38-1.078-.552l-1.542-.479c-.776-.245-1.354-.604-1.703-1.083a2.552 2.552 0 01-.536-1.547c0-.448.099-.839.292-1.182.193-.339.448-.635.766-.87a3.328 3.328 0 011.104-.552c.427-.13.875-.182 1.344-.182.234 0 .479.01.714.042.245.031.469.073.693.12.208.052.411.104.604.167s.344.13.448.193a.93.93 0 01.318.266.573.573 0 01.099.354v.5c0 .224-.089.339-.245.339a1.087 1.087 0 01-.406-.125 4.844 4.844 0 00-2.042-.417c-.609 0-1.089.094-1.417.297-.333.203-.5.51-.5.948 0 .297.104.552.318.755s.609.406 1.172.589l1.51.474c.766.245 1.323.589 1.651 1.026.328.432.49.932.49 1.49 0 .453-.099.87-.276 1.234a2.998 2.998 0 01-.776.938c-.333.266-.724.453-1.182.594a5.164 5.164 0 01-1.526.224zm2.015 5.171c-3.505 2.589-8.589 3.958-12.964 3.958-6.13 0-11.656-2.266-15.828-6.036-.328-.297-.031-.703.365-.464 4.51 2.615 10.078 4.203 15.833 4.203 3.885 0 8.151-.813 12.083-2.469.583-.271 1.083.38.51.807zm1.459-1.661c-.448-.573-2.964-.276-4.099-.135-.339.042-.396-.26-.083-.484 2-1.401 5.286-1 5.672-.531.38.484-.109 3.771-1.979 5.344-.286.245-.568.12-.438-.203.427-1.052 1.375-3.422.927-3.99z"/></svg>