<svg xmlns="http://www.w3.org/2000/svg" width="100%" height="100%" viewBox="-3.2 -3.2 38.4 38.4"><path d="M25.745 31.943h-4.797a1.68 1.68 0 01-1.75-1.057c-1.776-3.552-3.708-7.047-5.318-10.729A20.33 20.33 0 0115.062.865c.219-.375.693-.833 1.052-.833.365 0 .792.5.99.891 4.839 9.677 9.682 19.359 14.531 29.047.719 1.391.385 1.958-1.208 1.974zm-19.427 0H1.386c-1.385 0-1.693-.557-1.083-1.776 2.49-4.922 4.958-9.839 7.401-14.74.667-1.391 1.193-1.391 2.12-.24a16.301 16.301 0 013.349 14.896c-.458 1.76-.708 1.875-2.484 1.875z"/></svg>