<svg xmlns="http://www.w3.org/2000/svg" width="100%" height="100%" viewBox="-3.2 -3.2 38.4 38.4"><path d="M0 0v32h32V0zm1.333 1.369h29.333V30.63H1.333zm8.219 9.276H5.86c-.111 0-.157-.047-.131-.176l.26-1.849c.021-.109.068-.151.177-.151h9.235c.129 0 .177.041.197.171l.177 1.829c.021.129-.041.176-.156.176h-3.672v12.313c0 .109-.041.177-.177.177H9.729c-.131 0-.177-.048-.177-.177zM19.625 17l3.364-4.552c.089-.109.109-.156.219-.156h2.245c.131 0 .172.088.083.197-.525.683-2.943 3.672-3.733 4.641a.113.113 0 000 .129l4.265 5.699c.041.088.02.177-.109.177H23.36c-.131 0-.172-.048-.22-.136a209.865 209.865 0 01-3.515-4.901v4.88c0 .109-.027.157-.156.157h-2.068c-.151 0-.172-.048-.172-.177V8.598c0-.068.021-.129.151-.129h2.089c.088 0 .156.041.156.151z"/></svg>