<svg xmlns="http://www.w3.org/2000/svg" width="100%" height="100%" viewBox="-3.2 -3.2 38.4 38.4"><path d="M20.953 6.183l-2.969 1.979-3.057-4.583 2.969-1.985zm2.416 13.776l5.073 7.604-6.041 4.031-5.964-8.932 6.047-4.031zm-7.614 5.077l1.12 1.672-4.604 3.073-2-3 4.599-3.073zm10.13-8.676l1.292-.86 2 3-2.969 1.984-1.12-1.677 1.683-1.119zm-.797 2.447l-.885-1.328 1.683-1.119.885 1.328zM5.057 16.792l-1.005.672-3.063-4.589 4.604-3.068 2.147 3.215.911 1.369zm10.292-8.855l.916 1.375-6.047 4.032-.912-1.371-5.025-7.536L10.322.406zm4.318-.896l-1.683 1.12-.911-1.369-2.147-3.213 2.969-1.985 3.063 4.589zm-7.506 20.396l-.885-1.328 3.593-2.401.885 1.328zm12.927-8.63l-.885-1.328 1.683-1.119.885 1.328zM5.057 16.792l-.917-1.371 3.6-2.4.911 1.369zm12.927-8.631l-.911-1.369 1.676-1.12.917 1.369zm5.385 11.798l-6.047 4.031-.885-1.328 6.047-4.031zm-8.02-12.022l.916 1.375-6.047 4.032-.912-1.371zM3.344 6.844l1.14 1.708-1.713 1.141-1.14-1.709zm6.161 20.495l1.14 1.713-1.713 1.141-1.14-1.715zm-4.5 1.724L0 21.5 26.749 3.609 32 11.046z"/></svg>