<svg xmlns="http://www.w3.org/2000/svg" width="100%" height="100%" viewBox="-3.2 -3.2 38.4 38.4"><path d="M15.994 7.556l.569-.981a1.276 1.276 0 112.213 1.275l-5.469 9.469h3.956c1.281 0 2 1.506 1.444 2.55H7.113c-.706 0-1.275-.569-1.275-1.275s.569-1.275 1.275-1.275h3.25l4.162-7.213-1.3-2.256a1.278 1.278 0 012.213-1.275zm-4.919 13.625L9.85 23.306a1.276 1.276 0 11-2.213-1.275l.913-1.575c1.025-.319 1.863-.075 2.525.725zm10.556-3.856h3.319c.706 0 1.275.569 1.275 1.275s-.569 1.275-1.275 1.275h-1.844l1.244 2.156a1.278 1.278 0 01-2.213 1.275c-2.094-3.631-3.669-6.35-4.712-8.162-1.069-1.844-.306-3.694.45-4.319.837 1.438 2.087 3.606 3.756 6.5zM16 .5C7.437.5.5 7.438.5 16S7.438 31.5 16 31.5c8.563 0 15.5-6.938 15.5-15.5S24.562.5 16 .5zM29.5 16c0 7.419-6.006 13.5-13.5 13.5-7.419 0-13.5-6.006-13.5-13.5C2.5 8.581 8.506 2.5 16 2.5c7.419 0 13.5 6.006 13.5 13.5z"/></svg>