<svg xmlns="http://www.w3.org/2000/svg" width="100%" height="100%" viewBox="-3.2 -3.2 38.4 38.4"><path d="M28.953 18.193h-6.651a.862.862 0 00-.876.739 5.49 5.49 0 01-5.416 4.708l1.801 8.229A13.836 13.836 0 0029.822 19.14a.865.865 0 00-.869-.947zm-11.51-.214l9.599-8.229a.858.858 0 000-1.312L17.443.214a.865.865 0 00-1.432.647v16.452a.867.867 0 001.432.667zm-15.14 2.005A13.845 13.845 0 0016.016 32v-8.36a5.46 5.46 0 01-5.469-5.447zm-.126-1.927v.136h8.369a5.463 5.463 0 015.464-5.453l-1.797-8.224C7.39 5.401 2.26 11.177 2.177 18.057z"/></svg>