<svg xmlns="http://www.w3.org/2000/svg" width="100%" height="100%" viewBox="-51.2 -51.2 614.4 614.4"><path fill="var(--ci-primary-color, currentColor)" d="M40 240h432v32H40zM440 440h32v32h-32zM306.182 440h33.455v32h-33.455zM172.364 440h33.455v32h-33.455zM373.091 440h33.455v32h-33.455zM105.455 440h33.455v32h-33.455zM40 440h32v32H40zM40 306.183h32v33.454H40zM40 373.092h32v33.454H40zM40 172.364h32v33.454H40zM40 105.455h32v33.454H40zM40 40h32v32H40zM306.182 40h33.455v32h-33.455zM172.364 40h33.455v32h-33.455zM373.091 40h33.455v32h-33.455zM239.272 40h33.455v32h-33.455zM105.455 40h33.455v32h-33.455zM440 40h32v32h-32zM440 373.091h32v33.454h-32zM440 306.182h32v33.454h-32zM440 105.454h32v33.454h-32zM440 172.363h32v33.454h-32zM239.272 306.182h33.455v33.454h-33.455zM239.272 172.363h33.455v33.454h-33.455zM239.272 105.454h33.455v33.454h-33.455zM239.272 373.091h33.455v33.454h-33.455zM239.272 440h33.455v32h-33.455z" class="ci-primary"/></svg>