<svg xmlns="http://www.w3.org/2000/svg" width="100%" height="100%" viewBox="-51.2 -51.2 614.4 614.4"><path fill="var(--ci-primary-color, currentColor)" d="M410.866 181.063A32.1 32.1 0 00380.793 160h-39.239l-16-96H221.112l16 96h-39.558l-16-96H77.112l16 96H48v88H16v200h427.727L496 282.466V248h-60.793zM298.446 96l10.667 64h-39.559l-10.666-64zm-144 0l10.667 64h-39.559l-10.666-64zM80 192h300.793l20.363 56H80zm383.222 88l-42.949 136H48V280z" class="ci-primary"/><path fill="var(--ci-primary-color, currentColor)" d="M80 320h32v32H80zM144 320h32v32h-32zM208 320h32v32h-32zM272 320h32v32h-32zM336 320h32v32h-32z" class="ci-primary"/></svg>