<svg xmlns="http://www.w3.org/2000/svg" width="100%" height="100%" viewBox="-3.2 -3.2 38.4 38.4"><path d="M2.245 0v.473L3.89 1.869C5.859 3.473 6.114 3.792 6.114 5.24V32h11.531c6.048 0 12.109-2.172 12.109-9.131 0-4.109-2.9-7.281-6.916-7.729v-.093c3.301-.989 5.563-3.385 5.563-7 0-5.833-4.975-8.041-9.803-8.041L2.25.001zm9.567 4.885h4.704c3.177 0 4.161.437 5.124 1.349.729.697 1.063 1.651 1.068 2.76 0 1.036-.359 1.959-1.109 2.672-.943.901-2.235 1.349-4.588 1.349h-5.193V4.884zm0 13.011h5.469c4.604 0 6.781 1.177 6.781 4.52 0 4.204-4.079 4.704-7.011 4.704h-5.24z"/></svg>