<svg xmlns="http://www.w3.org/2000/svg" width="100%" height="100%" viewBox="-51.2 -51.2 614.4 614.4"><path fill="var(--ci-primary-color, currentColor)" d="M374.906 253.877l11.36-10.328-109.911-120.9h-68.492L163.585 151.4A60.364 60.364 0 00136 202.2V274h32v-71.8a28.477 28.477 0 0113.013-23.967L208 160.712v93.836l105.7 220.381h32.942L272.714 315.7V166.214l74.628 82.086 82.409 226.626h25.537zM214.7 96.861a34.081 34.081 0 10-10.871-24.949A33.96 33.96 0 00214.7 96.861z" class="ci-primary"/><path fill="var(--ci-primary-color, currentColor)" d="M132.796 474.929h34.465l57.514-143.785-18.793-39.181-73.186 182.966z" class="ci-primary"/></svg>