<svg xmlns="http://www.w3.org/2000/svg" width="100%" height="100%" viewBox="-51.2 -51.2 614.4 614.4"><path fill="var(--ci-primary-color, currentColor)" d="M412.717 89.012c-35.578-20.985-82.545-32.541-132.246-32.541h-40.942c-49.7 0-96.668 11.556-132.246 32.541C69.054 111.56 48 142.453 48 176v16h424v-16c0-33.547-21.054-64.44-59.283-86.988zM82.8 160c14.153-40.121 80.185-71.529 156.731-71.529h40.942c76.546 0 142.578 31.408 156.731 71.529zM48 304h424v32H48zM387.2 224.039c-24.785 0-37.77 6.125-49.227 11.529-10.034 4.733-17.96 8.471-35.576 8.471s-25.54-3.738-35.574-8.471c-11.456-5.4-24.441-11.529-49.225-11.529s-37.769 6.125-49.225 11.529c-10.033 4.733-17.957 8.471-35.572 8.471s-25.54-3.738-35.573-8.471c-11.456-5.4-24.441-11.529-49.225-11.529v32c17.615 0 25.54 3.738 35.573 8.471 11.456 5.4 24.441 11.529 49.225 11.529s37.768-6.125 49.224-11.529c10.033-4.733 17.958-8.471 35.573-8.471s25.54 3.738 35.573 8.471c11.457 5.4 24.441 11.529 49.226 11.529s37.77-6.125 49.227-11.529c10.034-4.733 17.959-8.471 35.576-8.471s25.542 3.738 35.576 8.471c11.457 5.4 24.442 11.529 49.227 11.529v-32c-17.617 0-25.542-3.738-35.576-8.471-11.46-5.404-24.445-11.529-49.227-11.529zM48 448a24.028 24.028 0 0024 24h376a24.028 24.028 0 0024-24v-80H48zm32-48h360v40H80z" class="ci-primary"/></svg>