<svg xmlns="http://www.w3.org/2000/svg" width="100%" height="100%" viewBox="-30.1 -80.1 361.2 361.2"><g fill="none" fill-rule="evenodd"><path fill="#EFB22D" fill-rule="nonzero" d="M.5.5h300v200H.5z"/><path fill="#E23D28" fill-rule="nonzero" d="M.5 200.5h300V.5z"/><path fill="#FFF" fill-rule="nonzero" stroke="#000" stroke-width=".167" d="M161.081 63.03c-1.663-.59-2.736.268-2.682 2.415.053 2.146 1.18 3.381 2.843 2.576l-.161-4.991z"/><path fill="#FFF" fill-rule="nonzero" stroke="#000" stroke-width=".167" d="M162.542 59.01c-1.385-1.093-2.676-.625-3.315 1.425-.639 2.05.032 3.581 1.865 3.353l1.45-4.778z"/><path fill="#FFF" fill-rule="nonzero" stroke="#000" stroke-width=".167" d="M164.846 55.12c-1.193-1.302-2.543-1.046-3.503.875-.958 1.921-.542 3.539 1.306 3.608l2.197-4.483zm-1.511 18.91c-2.039.751-2.254 3.542-.965 5.258 1.287 1.717 3.649 2.039 4.936 0l-3.971-5.258z"/><path fill="#FFF" fill-rule="nonzero" stroke="#000" stroke-width=".167" d="M160.974 68.127c-1.932-.644-3.672 1.951-3.971 4.293-.375 2.952-4.561 3.917-2.253 8.371.482-2.844 2.361-4.4 3.863-4.507 1.503-.107 3.757-.429 4.722-2.254l-2.361-5.903zm6.118 11.483c-2.254.537-2.577 3.542-.967 5.688 1.378 1.838 5.688 1.395 5.581-.429l-4.614-5.259zm6.384 18.084c.107-1.932-3.004-2.683-4.507-2.307-1.503.376-4.373-.054-5.044-1.663-.536 1.288.242 2.683 2.415 3.38 1.645.528 1.61 1.717 1.127 2.254 1.234.214 4.883.214 6.009-1.664z"/><path fill="#FFF" fill-rule="nonzero" stroke="#000" stroke-width=".167" d="M171.706 85.352c-2.2-.966-3.504.505-4.346 1.932-1.235 2.093-5.044-.59-6.332 2.2 1.744-.751 3.52.851 4.346 1.395 2.361 1.556 6.922 1.073 7.567-2.576l-1.235-2.951z"/><path fill="#FFF" fill-rule="nonzero" stroke="#000" stroke-width=".167" d="M172.993 87.928c-2.2 1.663-3.058 3.649-3.004 4.99.054 1.341 1.932 4.293 3.971 4.454 1.18-2.415 1.77-7.513-.967-9.444zm-9.121 10.356c0-.805 1.18-1.127 1.985-.858.805.268 2.039 1.073 1.61 1.932l-3.595-1.074zm-12.128-4.4c-.214-.966 1.342-2.629 3.435-1.717 2.091.912 2.361 2.683 1.501 3.381l-4.936-1.664z"/><path fill="#FFF" fill-rule="nonzero" stroke="#000" stroke-width=".167" d="M156.842 95.655c-.161-.536 1.346-1.608 3.918-.966 2.575.644 3.207 2.302 3.113 3.595l-7.031-2.629zm-5.366-1.771c1.341-1.02.833-2.951-.377-3.541-2.2-1.073-1.394-3.864-2.79-4.4-1.395-.537-2.736-1.503-2.79-2.468-.697 1.341-.268 2.576.699 3.434.965.858-.751 4.346.482 5.258l4.776 1.717zm-28.761-.751c-1.127-1.771-3.81-1.449-4.937-.215-1.127 1.234-.966 3.059.107 3.864l4.83-3.649zm6.439-2.63c-.429-2.361-3.273-2.629-4.829-2.039-1.556.59-2.63 2.951-1.61 4.668l6.439-2.629z"/><path fill="#FFF" fill-rule="nonzero" stroke="#000" stroke-width=".167" d="M133.447 90.181c1.02-1.985-.966-4.937-3.219-5.366-1.882-.358-4.105-.349-4.829-2.2-.456 1.61.751 2.63 2.146 3.542 1.395.912-.269 3.273 1.985 4.615l3.917-.591z"/><path fill="#FFF" fill-rule="nonzero" stroke="#000" stroke-width=".167" d="M133.232 90.25c-.47-1.422.483-3.314 2.411-3.182 1.928.133 3.027 1.534 2.176 3.285l-4.587-.103z"/><path fill="#FFF" fill-rule="nonzero" stroke="#000" stroke-width=".167" d="M137.525 90.357c-.265-1.474.943-3.213 2.834-2.812 1.89.402 2.781 1.943 1.694 3.558l-4.528-.746z"/><path fill="#FFF" fill-rule="nonzero" stroke="#000" stroke-width=".167" d="M141.786 91.035c-.192-1.486 1.103-3.163 2.971-2.667s2.681 2.08 1.514 3.639l-4.485-.972zm-32.379 24.581c-3.595 0-4.474.856-4.991 4.561-.643 4.615 5.635 5.152 4.991-4.561z"/><path fill="#FFF" fill-rule="nonzero" stroke="#000" stroke-width=".167" d="M111.017 110.787c-5.527-2.093-8.532 6.654-14.005 5.097 1.958 3.112 6.706.006 8.478.322 3.005.537 9.498-.59 5.527-5.419zm-3.595 11.966c-2.737-1.234-5.688 2.951-5.151 4.776.68 2.317 6.921.429 5.151-4.776zm-12.771 18.03c1.502.428 3.327 1.287 3.005 4.185-.322 2.897-5.795 8.8-10.732 9.122-4.937.322-6.707 6.278-10.946 4.614 3.971-.75 3.971-5.258 7.083-6.653-2.254-.805-3.434 4.293-6.332 4.293-2.897 0-4.293 4.614-7.834 4.292-3.541-.321-3.914 5.618-11 5.689-5.42.053-12.127 6.385-14.542 3.648 5.259-.751 7.381-3.665 10.517-6.869 5.044-5.15 10.732-2.843 12.664-7.404a13.188 13.188 0 01-7.619 2.254c-3.301-.068-6.922 5.258-10.625 2.897 2.146-.268 3.542-1.181 5.795-3.542 2.308-2.418 5.694-.855 8.371-3.326 4.186-3.864 7.781-.645 11.805-5.474-1.127-.536-3.542-.161-5.795 1.02-2.254 1.181-5.151-.806-7.727.59.322-3.165 6.332-1.354 10.088-3.542 4.239-2.468 7.754-1.745 11.108-1.449-4.668-.026-6.493-4.454-12.932-3.167-2.808.563-5.044-3.863-7.834-1.61.08-1.662 3.005-3.005 6.01-1.395 3.005 1.61 4.216-1.409 10.195 2.361 2.468 1.555 6.707-.967 9.391.697-.349-1.02-1.878-1.664-3.676-1.529 1.125-2.305 8.396-2.01 11.562.298z"/><path fill="#FFF" fill-rule="nonzero" stroke="#000" stroke-width=".167" d="M99.426 137.294c-2.361-1.824-5.634.376-7.888-.483 0 1.502.751 3.756 3.219 4.615.752-.536 4.133-3.487 4.669-4.132z"/><path fill="#FFF" fill-rule="nonzero" stroke="#000" stroke-width=".167" d="M103.129 132.09c-3.702-1.878-4.346 2.79-7.244 1.824.107 1.342 1.181 3.005 3.541 3.381l3.703-5.205z"/><path fill="#FFF" fill-rule="nonzero" stroke="#000" stroke-width=".167" d="M105.329 127.85c-5.473-2.146-6.171 3.112-9.39 2.093.751 1.825 5.366 2.79 7.727 2.146l1.663-4.239zm7.512-23.019c-1.449-2.039-4.507-.376-4.99 2.039-.483 2.415.697 5.795 2.737 5.044l2.253-7.083z"/><path fill="#FFF" fill-rule="nonzero" stroke="#000" stroke-width=".167" d="M116.544 98.391c-2.522-.59-5.42-.322-5.098 2.146-.966.429-1.234 3.595 1.395 4.293l3.703-6.439z"/><path fill="#FFF" fill-rule="nonzero" stroke="#000" stroke-width=".167" d="M118.207 96.728c-2.468-2.898-5.221-2.83-6.761-1.61-2.844 2.254-5.607.966-5.688 3.219 1.717-1.314 3.219.268 4.615-.215 1.395-.483 2.415 2.2 6.278 1.073l1.556-2.467zm-5.956 43.304c.376.697 2.683 1.02 3.81-.161 1.493-1.565-.161-5.903-2.522-6.225-2.361-.322-2.576 4.883-1.288 6.386z"/><path fill="#FFF" fill-rule="nonzero" stroke="#000" stroke-width=".167" d="M109.568 140.139c3.381 1.233 4.829-1.557 3.005-3.327-.483.59-2.254 2.736-3.005 3.327z"/><path fill="#FFF" fill-rule="nonzero" stroke="#000" stroke-width=".167" d="M96.905 144.753c-.644 1.932-3.971 2.254-7.727 8.264-3.756 6.009-7.352 3.487-8.264 7.62 4.508-3.649 8.047-1.225 10.732-4.829 4.078-5.474 7.437-4.688 9.015-8.371 2.254-5.258 12.127-5.151 12.663-13.415-3.327-.645-13.844 8.263-16.419 10.731zm84.674-81.133c4.293 1.395 4.4 6.976 9.336 8.8 4.938 1.825 5.421 6.225 9.444 5.152-3.756-1.02-3.487-5.366-7.404-6.439-4.594-1.258-6.332-8.263-9.982-9.337m18.299 30.961c.751 1.717.644 4.776-2.039 5.58 1.449.912 3.594.054 4.775-1.932-1.771 3.917-.59 7.459 2.2 8.156-1.341-2.737 1.664-4.024.699-5.795 1.771.751 3.327 3.166 3.272 4.668 2.308-2.576-1.717-6.01-.965-8.424l-7.942-2.253zm-27.796 27.581c-2.629-2.307-3.752.603-5.045-.402-1.207-.939-2.817-1.073-3.433-.134 2.254.08 1.153 1.824 5.526 2.254-4.374.295-3.568 5.178-6.493 4.937 3.113 2.951 4.722-2.629 7.244-1.717-.751.214 1.181 1.985-.161 4.346 2.174-.054 3.058-3.059 3.328-4.615l-.966-4.669zm-57.898 25.059c-.966-.804-3.756-1.181-4.829-.536-1.073.643-.698.804.59.912 1.288.107 2.951 2.19.161 2.307-1.288.053-.859 3.165-3.542 3.38 1.1 1.342 4.239.455 5.366-1.02-.215 1.207 1.395 2.307.751 3.756 1.985.216.832-4.023 3.971-3.81-1.288.161-.751 3.058 1.502 2.307-1.341.644-.644 2.2.858 1.825-.966.322-1.288 1.556.054 2.254 1.289-1.769-.16-8.101-4.882-11.375zm116.871-59.208a7.437 7.437 0 007.436-7.437 7.437 7.437 0 10-14.874 0 7.437 7.437 0 007.438 7.437z"/><path fill="#FFF" fill-rule="nonzero" stroke="#000" stroke-width=".167" d="M193.599 95.172c2.254-2.146 5.689-3.22 8.049-1.61 2.361 1.61 10.196 3.542 14.06.859 3.863-2.683 5.688-4.078 7.404-3.756 1.289 1.932 2.844 2.844 4.776 3.005.59.644 2.683 1.181 3.864 1.02 1.716.429 3.81-.107 5.472-1.932 2.577.375 4.99-1.556 5.903-4.454 2.736-.322 2.897-3.381 1.18-5.42-1.61-.322-.375-5.742-6.225-4.668 2.469 1.502.59 4.507 2.631 5.902-1.396 0-3.193.59-3.622 2.683.536-1.449-.081-2.415-.457-2.737.054-1.234-2.682-4.266-5.258-3.166 1.852.403.806 3.381 2.147 4.508-.967.054-1.986.537-2.577 1.395-.697-1.234-3.165-2.522-4.668-2.629 0-.429-.081-1.288-.268-1.717-.671-1.288-1.235-2.817-.966-4.776-1.288 1.395-2.361 3.327-3.004 4.722-2.039-1.395-7.083.644-9.445 1.18-2.361.537-10.303-.751-12.128-2.683-1.824-1.932-5.365-3.112-8.692-4.078-4.575-1.328-4.615-6.332-9.66-9.766-.107 6.225 9.338 25.971 11.484 28.118zm-52.587 47.435a7.19 7.19 0 100-14.38 7.19 7.19 0 000 14.38z"/><path fill="#FFF" fill-rule="nonzero" stroke="#000" stroke-width=".167" d="M123.842 137.08c1.449 1.878 3.917 1.771 4.937 1.61.858 2.253 3.595 2.2 4.776 3.433 1.18 1.235 5.204 1.128 6.385.429-1.072-.107-2.468-.75-3.809-1.878-1.619-1.36-.859-4.078-2.147-5.044.966-1.073 1.127-2.844.912-3.541 1.02-.591 1.771-1.556 1.878-2.039 1.771-.107 3.327-1.02 3.971-1.717.912.858 3.219-.268 4.454 1.18.268-3.541-3.112-5.42-5.367-4.239-.912-.483-3.327-.161-3.756.483-.751-.322-2.844.751-3.81 1.449 1.073-.59 1.234-2.361.805-3.005.912-.376 1.932-1.61 2.039-2.522 1.288.215 3.219-.644 4.077-.429-1.395-1.825-3.702-2.468-6.063-2.307-2.442.134-3.488 1.851-3.81 3.702-1.449.858-1.932 3.756-1.395 4.776-.832-.027-1.61.778-1.932 1.234-1.127-.483-2.737-.832-3.891-.832m.511-2.924c-.483-1.395.157-2.651.483-3.756.832-2.817.322-3.542-2.2-3.166-.214 1.341 1.073 5.742 1.717 6.922z"/><path fill="#FFF" fill-rule="nonzero" stroke="#000" stroke-width=".167" d="M120.756 118.138c.644.644 2.925.939 3.166-1.1.277-2.341-.671-3.247-2.71-2.334-.161.536-.349 2.737-.456 3.434z"/><path fill="#FFF" fill-rule="nonzero" stroke="#000" stroke-width=".167" d="M121.239 114.623c.858.349 2.71 1.046 3.73-.939.855-1.665-.268-2.951-2.039-2.844-.43.483-1.288 2.2-1.691 3.783z"/><path fill="#FFF" fill-rule="nonzero" stroke="#000" stroke-width=".167" d="M122.822 110.679c.215.644 2.415 2.79 4.025 1.234 1.61-1.556 1.61-3.864-.805-4.722-.644.108-2.576 2.361-3.22 3.488z"/><path fill="#FFF" fill-rule="nonzero" stroke="#000" stroke-width=".167" d="M126.042 107.191c.483 1.341 1.985 3.649 4.776 2.576 2.79-1.073 1.61-4.561.322-5.258-.752.053-3.811 1.448-5.098 2.682z"/><path fill="#FFF" fill-rule="nonzero" stroke="#000" stroke-width=".167" d="M131.139 104.509c-.215 1.181 0 4.4 3.81 4.346 3.81-.054 2.737-4.508 1.771-5.151-1.556 0-4.186.053-5.581.805z"/><path fill="#FFF" fill-rule="nonzero" stroke="#000" stroke-width=".167" d="M136.881 103.865c-.429.912-1.396 6.916 6.063 5.258.966-.214 3.488-5.741-6.063-5.258z"/><path fill="#FFF" fill-rule="nonzero" stroke="#000" stroke-width=".167" d="M140.958 104.401c-.75.751 1.181 6.815 6.225 5.795 5.045-1.019.806-6.761-6.225-5.795z"/><path fill="#FFF" fill-rule="nonzero" stroke="#000" stroke-width=".167" d="M145.251 105.313c-.804 1.664.404 6.6 6.628 6.6 5.64.001-.296-6.492-6.628-6.6z"/><path fill="#FFF" fill-rule="nonzero" stroke="#000" stroke-width=".167" d="M150.135 106.762c-.404.922-.899 6.156 6.439 6.6 5.312.322 4.025-7.19-6.439-6.6z"/><path fill="#FFF" fill-rule="nonzero" stroke="#000" stroke-width=".167" d="M158.022 108.962c-.911 1.61-1.878 5.634 6.171 5.956 5.157.207 1.986-5.848-6.171-5.956z"/><path fill="#FFF" fill-rule="nonzero" stroke="#000" stroke-width=".167" d="M164.73 110.196c-1.18 1.61-.311 4.768 2.682 5.366 3.757.751 4.293-2.79 1.718-4.507-2.576-1.717-4.4-.859-4.4-.859z"/><path fill="#FFF" fill-rule="nonzero" stroke="#000" stroke-width=".167" d="M168.379 110.948c-.858 1.503-.327 5.151 5.365 5.151 1.181 0 5.689-4.615-5.365-5.151zm-44.052 69.977a8.349 8.349 0 10-.003-16.695 8.349 8.349 0 00.003 16.695z"/><path fill="#FFF" fill-rule="nonzero" stroke="#000" stroke-width=".167" d="M185.55 59.542c-.645.644-1.985 2.576-2.254 3.327-2.79 8.371 4.658 14.624 9.015 23.61 3.435 7.083 3.006 18.244-2.361 25.327-1.836 2.423-1.288 3.112-3.649 5.58-.906.947-1.932 2.146-1.61 5.581 1.503-.537 3.649.858 4.078 2.039 1.074-.537 2.577-.322 3.113.322 1.824-.859 3.326-.429 4.936 1.288 1.396-.215 2.899 0 4.293 1.502.751-1.502 2.254-2.039 3.326-1.717-.107-1.932 1.825-3.327 3.542-2.576-.536-2.576 1.825-4.507 4.079-3.756 1.931-1.503 5.795-1.61 7.727.644-3.435-.966-3.326 2.683-6.225 2.361.751 2.146-1.181 3.381-3.111 4.078 1.233-.59 2.575-1.288 3.004-.536 1.074-.939 3.219-.59 3.757-.107 1.421-.456 2.79-.107 3.433 1.61 1.932 1.181 3.219 4.186 1.825 6.439-.429-2.361-2.039-2.254-2.683-3.219-1.503.537-3.006.537-3.435-.429-.858.859-3.756 1.61-5.043.322-.483 1.932-2.147 3.542-4.079 3.542.537 1.502-.965 4.079-2.146 5.366 1.825.965 1.287 3.113.858 4.4 2.79.429.429 2.897 5.258 4.507-2.36.751-6.975 0-7.619-2.897-2.361-.107-3.971-2.468-3.862-4.938-1.825-1.717-2.093-4.185.429-5.902-2.147.644-3.328-2.79-6.44-1.395-1.547.694-5.633-.483-5.579-1.932-.645 1.073-4.561.644-5.099-1.18-1.287.697-4.293-.483-4.239-2.254-1.664.751-3.917-.59-3.81-2.307-1.556-.215-1.716-1.61-1.61-2.79-1.396-.644-1.02-1.985-.483-3.595-.965-1.073-.536-2.576.215-3.971-1.074-1.073-.858-2.361-.538-3.863-5.151-.429-11.604-1.672-26.4-6.225-22.322-6.868-28.332 9.23-23.396 19.317 5.696 11.64-.644 14.167 1.288 22.86 2.039.429 3.112 2.146 3.005 3.971 1.207.053 2.066 1.179 1.636 3.326 1.02-.188 2.334.107 3.193.966.751-1.395 3.22-1.717 4.508-.107 2.79-.215 4.186 2.039 4.079 4.829 1.501 2.684.965 5.957-.645 8.049.161-1.126 0-2.736-.053-3.701-.1-1.776-2.577-2.147-2.308-3.596-1.288.107-2.522-.591-2.951-1.556-.751.643-1.825.858-2.737.536 1.449.645 2.576 3.219 2.146 4.936.751 1.289.59 3.65-.322 4.669-.429 2.092-2.039 2.843-4.132 1.931 1.18-.75 1.61-2.092 1.556-3.219-.751-.643-1.127-1.878-1.181-2.629-2.092.322-4.99-1.449-5.524-2.149a8.348 8.348 0 00-8.348 8.349c-.214-1.718-2.386-3.41-2.118-4.858-1.288-3.971.537-7.674 5.796-8.424-.644-1.503 1.61-3.06.751-4.776-1.097-2.193-3.112-5.044-6.117-8.371 1.824-3.113 1.288-7.297.215-9.874-1.541-3.699-3.005-2.79-8.478 3.219-8.92 9.795-20.82 7.083-31.337 13.522-2.795 1.711-5.58 2.361-2.576-.643 3.005-3.006 10.947-6.01 16.098-8.586 9.647-4.824 17.815-12.879 21.034-28.547 7.566-36.821 35.415-24.683 53.015-17.815 16.524 6.449 13.522-8.156 5.151-16.956-10.061-10.577-8.049-18.888-3.326-25.542 8.479-1.182 24.738 1.769 21.465 4.613z"/><path fill="#FFF" fill-rule="nonzero" stroke="#000" stroke-width=".167" d="M215.44 149.994a9.185 9.185 0 100-18.368 9.185 9.185 0 100 18.368z"/><path stroke="#000" stroke-width=".167" d="M180.399 59.971c-2.039 9.015-.322 13.093 2.683 17.064 6.21 8.207 11.161 26.937 4.078 39.171"/><path stroke="#000" stroke-linecap="round" stroke-width=".167" d="M191.13 105.635c.858-.322 2.468-1.341 2.844-3.112m-2.199-.805c.268-1.556 2.682-2.227 2.736-3.89m-2.683-2.173c-.161-1.61 2.415-3.059 2.039-4.668m-3.434-1.128c-.215-.912 2.146-2.629 1.503-4.078m-3.274-1.556c-.483-1.02 1.127-2.2.429-3.273m-3.005-1.234c-.161-.698.832-2.227.296-3.139m-2.871-2.173c.214-.269 1.074-.912.724-1.717m-2.495-2.174c.349-.188 1.395-.51 1.261-1.288"/><path stroke="#000" stroke-linecap="round" stroke-linejoin="round" stroke-width=".167" d="M128.027 171.69c-2.147-.751-4.829.322-5.366 2.147m1.61 1.663c.268-1.824 3.059-2.629 3.917-1.771-1.771-.965-2.629 2.468-1.073 2.576m14.433-43.25c-1.287.644-1.662 3.005 0 4.776m1.932-4.239c-.911.751-.858 3.005.483 3.542-1.126-.805 0-2.2.806-2.254.804-.053 1.34.912.375 1.878m73.728 2.146c-3.004-.804-5.42 2.683-2.683 5.796-.053-3.006 2.093-4.991 4.722-4.454m-1.207 2.079c-.739 0-1.154.578-1.154 1.14 0 .59.51 1.154 1.341 1.154.538 0 .967-.617.967-1.1m9.443-67.074c.483 1.824 3.006 2.576 4.99 2.146m.001-1.18c-1.555.054-2.843-1.395-2.736-2.63 0 .912 2.093 1.342 2.736.751"/><path stroke="#000" stroke-linecap="round" stroke-width=".167" d="M128.778 138.69c-.429-1.074 1.288-2.147 1.341-3.167.054-1.019 1.932-1.824 3.863.107m-.911-11.428c-.376.161-.698.376-1.02.483m4.722 5.366c-.456.027-1.395-.027-1.905-.376m.027 2.415c-.376.188-1.208.51-1.691.617M116.49 164.5c-.054.967.912 2.361 1.449 2.79m2.737-5.097c-.537.804-.858 2.2-.537 3.165m8.532.055c-.966-.645-.322-2.309-.429-3.381-.107-1.074 1.127-2.79 3.542-1.342m-12.128-1.394c.966-.161 1.985-.108 2.629.16m9.605-3.22c-.429.59-.536 1.235-.59 1.664m5.098-1.771c-.751 0-1.395.536-1.717 1.074m-8.693-28.548c.859.295 3.085 1.663 3.166 3.086m5.956-10.061c-2.629-.054-3.649-2.737-1.663-2.737m6.385 6.332c-1.02.429-.536 2.2.912 3.059m-7.19 13.789c-.51-.643.161-2.521 1.824-1.958m2.093 21.545c.107-1.636 2.173-2.603 3.006-.752m-10.626 5.42c-.134-1.797.778-2.387 1.583-2.494.805-.107 1.959.563 2.495 1.743m-20.068 2.092c.107-1.074 1.02-2.2 1.986-2.039m96.211-45.61c-.699.51-1.154 2.79 1.502 3.005m-5.581.751c0 .268.349.644.564.805m12.1 3.488c-.697-.536-2.496 1.637-.858 3.22m-16.206 14.809c-.403-1.529 1.02-1.932 2.361-1.61m-5.794-9.229c.804-.536 1.61-1.127 2.629-1.395m-3.058 7.297c0-1.288.643-2.36 1.233-2.682m3.487-12.128c-.107 1.556.537 3.059 1.021 3.864m11.752-3.756c-.779.242-1.477.536-1.771 1.181m.911 3.219c.377-.322.806-.698.993-.966m19.29-45.879c0 1.503-1.878 2.307-3.111 1.341m7.19-1.287c.831.644 3.702.027 3.031-1.636m-6.519 10.275c-.59-.107-1.61-.751-2.039-1.288m7.942-3.166c-.965.215-1.61 0-2.093-.215m-13.146 5.581c.536 0 1.824-.215 2.71-.671m-4.32-8.826c-.697-.08-1.208.054-1.61.322m12.422 2.307c-.187.671-.671 1.717-1.261 2.174"/><path stroke="#000" stroke-linecap="round" stroke-linejoin="round" stroke-width=".167" d="M224.453 89.162c1.342-.59 3.006 3.971 6.225 2.361m.268-4.722c-.429.59-.697 1.503-.751 2.307"/><path stroke="#000" stroke-width=".167" d="M166.769 79.825c.429-.054 1.181-.215 1.341-.751m-56.557 50.708c1.61.912 2.737 2.468 2.039 4.776m71.743-59.67c.483.322 2.309.322 3.328-.054m1.287 1.128c-.054.751.161 3.595-1.288 4.186m.536-.376c1.342.429 4.025.268 4.883-2.2m-1.877 2.092c.697 1.073.911 3.166-1.18 4.293m1.716-2.522c1.556.536 5.151.59 4.775-2.468m-1.233 2.468c1.074 1.502 5.796 3.273 5.045.161m-9.391 4.185c1.824.429 4.4-.805 3.327-4.024m5.151 1.61c.268 1.234 6.278 2.522 5.474-.268m-1.128 1.609c1.128 2.576 7.083 2.361 5.206-1.073m-.967 2.683c1.181 1.449 6.44.59 4.347-2.897m-.054 2.843c3.274 2.468 7.083-1.073 2.952-3.649m1.877 2.844c2.899 2.307 6.44-1.878 3.918-3.059m-26.831 2.094c.912.268 2.844.161 3.274-1.502m-.725 1.126c-.107 2.442 3.998 3.381 5.044.563m-1.368 1.53c.752 1.61 4.346 2.254 4.936-.054m-.59 1.073c.59 1.61 3.703 1.449 4.561-.214m-1.126 1.073c.965 2.093 4.936 2.093 5.849-.966m-.698 1.341c1.556.966 4.883.59 4.614-2.414m-.643 2.146c2.307 1.878 5.58.054 3.971-3.112m-.161 5.58c1.235-.215 1.878-2.683.59-3.327m-29.19 3.757c2.575-1.395 3.058-3.756 1.287-6.063m.913 3.701c1.61.966 4.668-.053 5.204-2.415m-3.004 2.684c.911 1.18 1.072 2.629-.108 3.971m.859-2.469c2.843-1.771 6.385 1.503 3.756 3.488m-.484-3.648c.645-.161 1.771-1.341 1.878-2.683m-.59 3.917c1.18-1.234 9.23 1.288 4.132 3.864m-.375-7.245c1.556.59 2.361 2.79 0 3.541m2.039 1.825c1.717-1.771 7.083-.644 5.151 1.61m-1.287-2.308c.966-3.273 6.707-1.234 4.829.107m-6.01-3.38c.161.644.214 2.254-.858 3.112m5.687-3.756c.214.536.161 1.556-.322 2.2m3.971-2.146c.322.59.858 1.717-.322 2.629m-45.61-27.312c.053 3.058 1.127 5.098 5.258 3.166m-3.971.483c-2.039 2.737.268 5.688 4.293 2.737m-10.57-1.396c2.79 3.005 7.781.805 4.561-3.757m3.38 6.333c-.537 2.951 1.878 3.542 3.863 2.2m-14.274-4.293c.508 2.967 3.542 5.312 6.493 3.488m-2.843.59c0 4.239 5.849 4.722 7.19.322m-2.093 2.683c1.878 3.864 5.956 2.308 7.298-.053m-11.43-6.118c.751 1.878 2.254 3.971 5.742 2.415m-16.473-3.327c.483 1.556 3.273 3.434 6.493 1.288m-4.507.697c-1.718 2.522 1.717 4.883 5.849 1.127m-3.811 1.985c.697 3.542 2.092 6.386 7.136 1.825m-2.522 1.825c1.825 2.254 4.615 3.649 7.244-.161"/><path stroke="#000" stroke-width=".167" d="M178.521 79.181c-.161 2.683.375 4.024 2.468 3.917 1.65-.085 3.219-1.395 4.132-2.79m-4.507 2.79c-.054 3.059 2.36 5.473 6.868 2.361m-4.99 1.235c-.858 2.307 1.716 6.064 6.761 4.132m-17.441-10.25c-.321 2.952 2.415 4.937 6.815 1.127m-4.667 2.147c.161 2.415 2.897 5.312 6.922 1.127m-4.99 1.931c-.322 4.132 3.488 5.312 6.707 2.146M170.15 83.85c.858.054 1.556-.698 1.985-1.234m-.161 4.239c.751.161 2.04-.537 2.469-1.395m-.59 6.277c.858.912 3.756.269 4.131-.966m-.912.913c1.61 3.756 5.901 3.595 7.672-.644m-.804 1.502c.804 2.2 2.844 3.595 6.171 2.844m-4.561-.59c-1.878 3.059.59 6.654 4.775 3.112m-3.755 1.449c-.214 1.932 1.557 4.132 3.971 4.4m-11.913-10.034c-.645 4.346 2.468 6.439 6.386 4.132m-10.947-2.039c1.02.805 2.844.912 4.561.268m2.093 2.522c-.967 3.649 2.79 6.278 6.009 2.2m-11.215-4.4c.054 1.878 1.879 3.917 5.045 3.327m8.854 3.756c-2.147 1.449-2.577 4.024.429 5.688m-5.689-6.439c.108 2.2 1.128 3.434 3.542 3.649m-6.707-4.776c-3.219 2.951-.054 6.386 3.756 3.488m-1.502.912c-1.074 3.38 2.952 5.42 5.097 1.985m-11.751-9.175c-1.18 3.327.322 5.527 3.058 5.312m-7.297-5.956c.161 1.985 1.878 2.683 3.81 2.254m-2.577-.161c-1.449 2.79.751 4.293 3.65 3.219m8.8 6.225c-.483 1.771-.216 3.059 2.414 3.649m-2.252-1.128c-3.167 1.449-3.435 4.508-.967 6.493m-1.584-9.899c-1.662 1.502-1.342 4.104.483 5.124M169.56 99.035c-1.825 1.798-.081 6.761 3.943 4.052m6.521 2.226c-2.469 2.039-1.342 5.742 2.736 4.722m-6.816-6.278c-1.287 3.649-.053 4.936 2.845 4.991"/><path stroke="#000" stroke-width=".167" d="M166.876 98.874c-2.2 1.663-1.61 4.024-.643 5.098.965 1.073 2.789.59 3.379-.805m-7.351-5.741c-2.468 3.166 0 6.922 3.489 5.795m9.712 3.595c-2.522.912-4.446 3.203-2.899 5.205.913 1.181 4.883 1.341 6.01-3.22m-7.672-4.936c-1.449 2.093-.966 4.078 1.717 5.098m-1.878-1.181c-1.557.859-2.576 1.878-2.2 3.756m-1.287-7.029c-.59 2.522.107 4.078 1.662 4.829m-1.717-1.825c-2.415-.161-3.648.858-2.844 3.22m.215-2.629c-2.361-.859-2.737-2.898-1.718-5.044m-.32 3.166c-2.577.107-3.703 1.395-3.703 3.166"/><path stroke="#000" stroke-width=".167" d="M159.042 96.191c-1.878.805-2.468 3.327-1.771 4.722.699 1.395 2.899 1.502 4.24.59m-7.728-7.297c-1.717 1.932.268 5.688 3.327 4.776m-7.727-6.278c-1.61 2.254.161 6.01 4.293 4.937m.214 10.463c-.429-2.683 2.361-4.454 5.796-.966m-1.664-5.42c-1.019.912-1.501 2.361-1.341 3.542m-11.698-13.845c-1.771 3.005.376 5.742 4.186 4.669m5.742 2.79c-2.522 2.522-1.664 5.044.214 6.493m-1.825-3.541c-3.81.054-4.024 4.454-.911 5.849m-1.986-10.249c-1.555 1.073-2.039 4.024.645 5.205m-.752 1.394c-1.61-.751-3.542.161-3.381 2.039m.965-1.985c-1.449-3.434-5.688-2.844-5.311.698m6.492-4.937c-.911.161-2.736.698-3.433 2.093m.268-5.956c-1.717 1.932-.376 4.239 1.02 4.722m-6.118-10.142c-.322 2.307.591 3.434 3.488 3.22m-2.468-.269c-1.128 2.79.375 4.025 3.272 3.864m-2.629-.43c-1.717 2.039-.536 4.239 1.126 5.151m-1.93-2.575c-3.058-.376-3.542 3.166-2.522 4.829"/><path stroke="#000" stroke-width=".167" d="M139.187 90.289c-1.877.805-2.951 3.166-1.931 4.615 1.02 1.449 3.059.966 4.185.215m-3.541.428c-1.556 2.361-.161 4.132 1.503 4.829"/><path stroke="#000" stroke-width=".167" d="M131.89 90.021c-1.234 1.288-.483 3.917 2.522 3.971 2.419.043 3.649-2.254 2.898-3.864m-3.327 3.863c-.966 2.147-.375 4.454 3.273 4.078m1.556 3.381c-2.254-1.02-5.258 0-3.971 2.683m-.321-6.493c-.912 1.288-.59 3.112.429 4.239m-.59-.805c-1.503.268-2.952 1.073-2.039 3.434m-.215-1.931c-1.932-.59-4.4.805-2.898 2.79m-.322-1.878c-1.663-.268-3.649 1.502-2.039 3.273m-.643-1.449c-1.503.376-3.273 2.093-1.717 3.435m9.282-11.859c-2.146.966-2.361 3.381-1.341 5.151m-.912-9.605c-3.22 1.234-3.166 5.527.375 6.868m-1.502-.965c-1.932 1.127-2.307 3.273-1.02 4.668m-2.361-12.181c-1.288.429-1.181 4.4 2.254 4.293m-5.795-2.951c-2.576 1.717.537 6.063 4.722 2.952m-2.308 1.072c-.376 1.771.107 3.702 2.952 3.917m-2.79-1.556c-2.039.751-2.415 4.937 1.288 5.258m-7.781-9.067c-2.629 2.415 2.146 4.507 3.917 1.02m-7.566 3.004c-1.288 1.556 3.219 5.634 5.205-1.181m.483-.107c.107 1.61 1.073 2.576 3.059 2.683m-.054 1.556c-3.166.483-4.186 4.454-.644 5.313m-5.205-5.849c-.107 1.502 1.449 2.737 3.22 2.468m1.609 3.273c-2.897.644-3.273 4.4-.698 4.185m-1.341 3.488c-2.415-.724-2.468-3.595-.322-4.668"/><path stroke="#000" stroke-width=".167" d="M119.549 112.075c-2.039 1.234-1.234 4.185-.161 4.615 1.073.429 1.932-.107 2.039-1.02m-.161 4.132c.215 1.395-4.964.858-2.307-3.488m-.027 3.729c-1.744 2.737 1.1 4.964 2.897 2.63m-2.656.67c-.698 2.2 1.958 3.783 3.675 2.066m-9.47-22.671c-.966 1.986 3.864 2.737 4.186-1.341m-5.528 4.292c-.966 3.863 6.332 3.059 4.454-1.932m.161 2.576c1.019.59 4.078.644 4.829-2.63m-2.199 2.737c.215 1.02 1.127 2.254 1.985 2.63m-5.473-1.61c-.322 2.093 1.771 3.81 4.186 3.649m-3.811-1.61c-1.181 1.61-1.556 4.722 2.146 4.937m-7.78-4.4c-.59 1.663 2.897 3.38 4.937.644m-6.01 3.594c-.296 1.261 2.844 2.952 4.615-2.415m-1.396 2.737c.751 1.341 3.273 2.415 4.829-.215m-2.521 1.611c-.644 1.878 1.127 3.649 3.273 3.112m-7.298-3.542c-.429 2.683 2.683 4.239 4.615 2.844m-6.654-1.663c-.912 3.434 3.488 4.722 5.151 2.146m-1.127 1.02c.161 1.932 3.166 3.595 5.527 1.985m-10.892-.375c-.215.858 3.381 1.717 3.917-1.288m-1.825 2.039c.859 2.2 3.756 2.737 5.42.054m-.966 1.073c.376 2.039 3.005 3.166 5.312 1.771m.966.804c-.59 2.737 2.254 4.937 4.025 3.434m-8.586-3.917c-.859 3.005 2.897 4.722 4.99 3.059m-9.497-4.561c-.214 2.79 1.985 4.453 4.508 3.219m-9.284-2.951c-.752 1.824 3.219 3.327 5.097 1.771m-7.565 3.22c1.02 1.181 4.561 0 4.883-2.629m-.966 1.931c1.288 1.503 4.346 2.307 5.581-.912m-1.074 1.663c-.054 2.307 4.078 3.971 5.42-.268m4.856.832c-.376 1.127.51 2.924 2.361 3.139m-5.768-3.837c-.268 1.288 1.61 3.085 3.595 2.361m.376.537c-.537 1.395-.081 3.407 1.797 3.381m-1.61-.779c-1.395 1.181-.805 3.273 1.208 3.354m-1.932-1.369c-1.985 1.341-1.288 4.292 1.341 4.133m-7.351-9.82c0 2.898 3.595 3.327 4.293.644m-1.395 1.717c-.537 1.717.858 3.38 3.058 2.898m-2.629 17.814c.483.699 2.468-.482 1.932-1.662-.537-1.181-2.64-.539-2.415.697m1.932-1.181c.268-2.361-2.522-2.736-3.22-.697m1.02-1.181c.698-1.181-1.663-2.79-2.629-1.074m.858-.696c.644-1.718-2.039-2.468-2.254-.912m-.59-2.255c.322-.858 3.327-.322 2.039 1.449m2.307 2.147c1.181-1.074-.805-3.273-2.039-2.468m9.981 5.741c-.939.107-1.905.724-1.208 2.71.484 1.378 2.549 1.449 2.844.617"/><path stroke="#000" stroke-width=".167" d="M125.693 152.936c-.912-.59-2.898.403-1.985 2.335.687 1.454 2.415.858 2.683.107m-5.823.322c.456.804 2.736.457 3.139-.429m-1.583-2.227c.483-.322 1.368.079 1.556.482m-1.717-13.71c-1.556 1.02-.59 4.132 1.824 3.327m-2.307-.804c-1.234.966-.107 3.971 2.2 2.845m-1.824-.001c-.858.858-.027 3.246 2.2 2.79m-2.522-1.609c-.483-.215-1.744-.054-2.281.75m.886-11.617c-1.18 1.127-.617 3.435 1.583 3.622m-2.012-1.261c-1.691.832-1.691 4.185 1.69 4.319m-1.825-.535c-.939.751-.483 3.648 1.932 3.272m-1.153-.107c-.349.349-.403 1.235-.107 1.61m-.966-2.71c-.858.026-1.985.645-2.281 1.529m-1.556-3.113c.322-.858 2.979-.804 3.166 1.718m.268-3.005c-.376.08-1.1.429-1.288 1.154m.134-9.015c-1.154 1.046-1.717 4.347 1.798 4.99m-4.132 1.825c0-.886 2.388-1.638 3.22-.322m-4.749-4.481c.349.671 2.012 1.583 3.032.832m-11.671-6.09c-.053 1.556 1.234 2.951 3.005 2.737 1.771-.215 2.146-1.771 1.61-2.79m-1.342 2.843c-1.181 1.449.268 3.488 1.61 2.897m-.269-3.917c.698-.268 3.005-.59 3.702.483m-11.16-.054c-.536.805 2.791 1.61 3.917.054m-1.127.805c-.108 1.073.429 2.897 3.166 2.147"/><path stroke="#000" stroke-width=".167" d="M108.763 136.597c.429-.912-1.61-2.414-3.166-.751-1.556 1.663.215 3.542 1.181 2.897m-5.151-5.741c-.805 1.395 2.307 3.944 4.078 1.583"/><path stroke="#000" stroke-width=".167" d="M99.56 135.416c-1.127 1.154.268 3.274 1.959 2.629 1.69-.644 1.529-2.415 1.127-2.87"/><path stroke="#000" stroke-width=".167" d="M97.388 137.563c-.912.831-.027 2.79 1.234 2.79s2.039-.992 1.797-2.253m2.093-.698c-.161 1.234 1.663 2.092 2.844.94m.053-2.255c.161-.268.027-.725-.241-.939m-9.739 4.078c-1.046.832 1.208 3.139 2.629 1.019m5.446-1.474c-.671.643.402 2.333 1.476 1.824m-5.151-.644c.161 1.153 2.415 2.011 3.837.242m-2.603.911c-.349.725.349 1.879 1.208 1.718m20.148 4.91c-.831 1.636 1.825 3.542 3.756 1.556m-1.824.886c-.402.885.081 2.119.805 2.575m-3.327-.724c.188-.805 1.341-1.557 2.388-1.18m-3.783-.941c.161-.724 1.127-1.449 1.852-1.26m61.332-32.223c-3.81.054-2.2 6.171 1.074 4.936m-2.307-.429c-.751 1.234.697 3.193 2.307 2.039m-.429.242c-1.128 1.878 2.897 4.749 4.507 1.798m-1.288 1.126c.053 1.771 5.204 2.898 4.454-.644m-.483 1.932c1.233 2.092 5.849 2.307 5.365-.805m-1.019 2.147c.966 1.395 5.474 2.254 5.313-.644m-23.611-17.01c.643 1.663 2.843 2.254 5.258 1.288m-6.654-.108c1.503.966-.697 5.366-3.004 3.595m3.004-.858c1.664.805 3.703.214 4.293-2.146m-1.019 1.824c.161 1.234 1.932 2.2 4.239 1.717m-8.371-.429c2.147 1.825-.966 5.581-2.361 3.864m3.167-2.469c1.02.751 3.649.322 3.917-1.663m-1.181 1.663c.215 1.288 1.235 1.771 2.683 1.825m-6.01-.054c1.072 1.502 3.756 1.932 4.936-.054m-1.18 1.127c-.107 1.449 1.503 2.629 3.167 2.307m-9.016.912c1.395.698 2.897-1.932 1.717-3.756m-.107 6.547c1.664.107 1.878-2.415.322-3.81m3.488 6.117c1.396-.322.965-3.38-2.415-3.649m6.654 5.903c1.342-.376.268-3.756-3.433-3.542m8.532 4.722c.911-1.395-2.093-3.756-4.561-2.522m7.081 4.454c1.664.483 2.79-3.917-2.468-3.219m5.527 3.219c1.45-.375 2.469-3.005-1.77-2.146m4.99 2.361c1.287.644 1.878-3.112-2.04-2.093m-19.585-9.605c1.61.912 4.132-.161 3.917-2.2m-.645 1.771c.537.966.322 2.844-.697 3.327m.859-1.074c1.074.429 2.522.054 3.381-1.663m-1.502 1.663c.321.751.429 2.254-.27 3.005m.538-1.717c1.181.644 2.575-.214 3.165-1.449m-.751 1.073c.858.537 1.61 3.059.161 4.078m.806-1.18c1.019.053 2.522.053 3.487-1.234m-.697.697c.913.268 1.985 1.771 1.61 3.112m.052-.482c1.021-.107 2.79-.805 3.273-2.039m-.483.805c.86.483 1.45 1.503 1.342 2.683m0-.859c1.02-.054 1.932-.59 2.2-1.717m-.268.751c.751.269 1.664 1.127 1.718 2.146m-.108-.643c.751-.107 1.287-.59 1.771-1.341m2.038-.108c.967.966-.321 4.186-2.307 3.595m-18.297-68.63c-1.986 1.18-7.621.805-4.83-3.864m5.366.698c-3.917 1.556-8.747-1.449-3.703-4.722m-1.341-1.074c-3.274 0-5.474 5.259-1.072 7.083m-11.645-4.883c-.858 1.663 2.2 3.488 4.293 1.825 1.621-1.289 1.502-4.776.536-6.117m-6.492 8.263c-1.074 3.541 6.815 3.756 5.58-1.878m-6.01 7.137c.268 2.683 7.567 1.824 5.204-3.595m.86-1.503c.59.805 2.2 2.2 4.936 1.932m-3.648-5.742c.242.966 1.878 1.717 3.971.993m-77.19 80.65c-1.851 1.315.993 3.381 2.039 1.1m-3.488-.079c-1.851 1.314.993 3.379 2.039 1.099m-3.568-.107c-1.852 1.315.992 3.381 2.039 1.1m-3.648-.188c-1.771.939.295 3.246 2.092 1.207m-3.837-.321c-1.771.938.295 3.246 2.093 1.207m6.896-3.971c-.027 1.368 2.576 1.932 3.514-.108m-1.878 1.369c-.805 1.02.671 2.281 1.476 1.824m-4.937-2.013c-.081 1.154 2.173 1.825 3.273.564m-2.039.645c-.725.939.698 2.2 1.61 1.824m-4.346-1.985c.08.912 1.368 1.958 2.763 1.368m-1.932-.135c-.537.483-.268 1.611.483 1.96m-3.273-2.041c-.215.832 1.207 2.309 2.656 1.342m-2.361-.375c-.858.671-.751 1.69.349 1.824m-2.415-1.931c-.107.563.617 1.475 1.53 1.368m-6.118-1.422c-.859.456 1.341 2.79 2.709.617m-4.828.348c-1.073.511 1.583 3.086 2.764.457m4.185-.564c-.832.188-1.368 1.396-.671 1.878m-2.039-1.449c-.107.483.912 1.288 1.744.993m-2.442-.777c-.805.51-.376 1.93.564 1.716m-3.434-.777c-.751.563-.242 1.69.805 1.422m.563-1.503c.027.295.698.752 1.261.564m-5.232-1.047c-.939.403-.885 2.764 2.281 1.476m-4.4-.537c-1.315.645-.886 2.415 1.985.725m.241.134c-.349.268-.724 1.449.59.992m-3.005-.429c-.536.483-.188 1.477.993 1.1m-3.756-.939c-.966.564 1.153 1.315 2.576-.188m-1.932.885c-.429.429-.429 1.69.698 1.235m-3.434-.725c-.644.483.456 1.128 2.468.242m-1.664.457c-.751.617-.671 1.395.429 1.153m-2.656-.805c-.832.751.376 1.261 1.825.643m-1.798.189c-1.422.643-.805 1.824.08 1.368m47.409 2.736c-.33.71.751 1.287 1.771 1.126.979-.154 1.916-.961 1.18-2.092m.054 1.395c.966.751 2.683-.107 2.683-1.235"/><path fill="#FFF" fill-rule="nonzero" stroke="#000" stroke-width=".167" d="M182.492 43.444c-4.293-2.146-13.2-6.117-15.722-2.898 2.307-.966 9.068.054 14.648 5.205l1.074-2.307z"/><path fill="#FFF" fill-rule="nonzero" stroke="#000" stroke-width=".167" d="M185.094 43.216c-4.964-5.782-7.887-4.488-11.457-6.479-3.353-1.871-8.693-2.254-9.728.722 4.898-2.386 9.396 1.283 12.158 1.727 3.795.609 5.936 3.542 7.046 4.892l1.981-.862zm18.7-.738c-2.576-5.903-8.085-4.361-10.518-6.868-3.54-3.649-12.501-7.029-16.204-4.508 8.156-.429 11.629 5.622 15.99 7.727 3.113 1.503 6.44 4.723 10.732 3.649z"/><path fill="#FFF" fill-rule="nonzero" stroke="#000" stroke-width=".167" d="M194.136 41.834c-4.4-5.473-11.162-10.303-14.273-8.478 4.078.215 5.365 3.059 8.264 4.883 2.897 1.825 1.609 4.454 6.009 3.595zm-20.928 9.659c-4.615-1.717-13.629-2.576-17.815 2.683 6.976 1.181 17.493.537 17.815-2.683z"/><path fill="#FFF" fill-rule="nonzero" stroke="#000" stroke-width=".167" d="M172.35 53.532c-4.615-2.146-8.219.852-12.557.429-8.262-.805-14.165-.322-14.917 3.649 4.722-4.239 12.664-.751 15.883-1.61 3.219-.859 15.132-.107 18.887 1.502-1.931-2.36-4.935-3.004-7.296-3.97zm14.487-12.288c-1.072-3.541-1.02-7.298 4.293-7.029-1.341-1.663-6.278-2.522-7.083 3.703-5.849-4.293-12.235-5.044-13.414-1.341 3.004-2.576 7.672-.698 13.253 5.634.483-.27 1.771-.806 2.951-.967z"/><path fill="#FFF" fill-rule="nonzero" stroke="#000" stroke-width=".167" d="M178.789 46.127c-3.327-2.146-7.835-5.634.054-7.029-3.381-1.825-8.318-1.02-7.781 5.205-9.015-3.649-15.489-2.417-16.85 1.181-1.503 3.971 4.079 6.171 5.044 3.649-1.019.429-4.507-.751-2.683-3.005 1.825-2.254 11.175-.562 20.07 4.078 2.468 1.287 10.946 1.072 2.146-4.079z"/><path fill="#FFF" fill-rule="nonzero" stroke="#000" stroke-width=".167" d="M176.428 52.03c-2.567-5.241-10.893-.483-12.571-5.559-2.293 7.437 11.84 3.321 12.571 5.559zm52.962 5.688c1.746.868 3.256-.496.585-1.566 1.747.867 3.271-.464.6-1.534 1.747.867 3.271-.464.6-1.534-.713.716-1.732 3.345-1.785 4.634zm.911-10.089c3.864-4.078-.321-5.473 4.4-9.659 3.864-3.424.738-5.707 4.401-8.371 1.181-.858 3.756-2.576 3.971-4.293 1.555 3.864-4.831 4.4-4.402 10.625.274 3.963-2.405 3.617-3.433 10.302-.214 1.396-1.179 4.509-4.937 1.396z"/><path fill="#FFF" fill-rule="nonzero" stroke="#000" stroke-width=".167" d="M232.019 49.454c2.146-4.615 4.61-4.526 5.795-6.332 2.254-3.434 7.029.59 11.054-2.468-.697 4.346-6.117 2.79-8.478 5.58-2.361 2.79-4.293 4.079-8.371 3.22z"/><path fill="#FFF" fill-rule="nonzero" stroke="#000" stroke-width=".167" d="M232.556 50.956c3.757-3.005 6.525-1 9.122-2.576 6.546-3.971 9.176.805 15.025-1.073-1.557 3.756-10.196.537-13.951 3.327-3.758 2.791-16.958 5.473-10.196.322zM221.61 72.367c-.054-1.717-1.664-3.917-3.918-4.186-2.253-.268-3.219-2.63-4.936-2.737-1.716-.107-2.844-3.542-5.205-3.488-2.361.054-3.327 3.112 2.2 5.903 5.527 2.79 11.643 6.01 11.859 4.508zm-6.977 1.448c-2.361.107-2.683 3.542-4.936 3.649 3.111 1.663 5.365-.751 6.975-2.898l-2.039-.751z"/><path fill="#FFF" fill-rule="nonzero" stroke="#000" stroke-width=".167" d="M216.565 74.245c-2.039 1.717-2.629 5.312.322 6.332-1.771-2.441 3.112-3.541 1.61-5.795l-1.932-.537z"/><path fill="#FFF" fill-rule="nonzero" stroke="#000" stroke-width=".167" d="M218.604 74.352c-1.61 3.112 2.522 3.488 1.449 5.849 2.361-.537 2.738-4.991.59-6.171l-2.039.322z"/><path fill="#FFF" fill-rule="nonzero" stroke="#000" stroke-width=".167" d="M202.828 67.698c3.864-.214 7.397 1.876 9.767 5.259 1.503 2.146 6.546 3.005 8.264 1.288 1.717-1.717.751-5.366-3.542-4.185-1.074-1.825-4.186-1.181-5.688-2.683-1.502-1.503-7.298-5.796-8.801.321z"/><path fill="#FFF" fill-rule="nonzero" stroke="#000" stroke-linecap="round" stroke-width=".167" d="M217.317 70.059c-1.02.215-1.342 1.985-.699 2.897m2.899-1.824c.322.537.107 1.288-.054 1.664m-10.517-4.937c1.985.107 2.361 1.556 4.507 2.093"/><path fill="#FFF" fill-rule="nonzero" stroke="#000" stroke-width=".167" d="M207.635 62.976c6.857 1.717 12.297 3.22 15.671 5.151 3.374 1.932 8.597 2.468 13.168 1.181 4.571-1.288 13.385-2.468 12.95 3.219 2.396-2.844-.653-5.903-6.747-6.439.11-2.79-2.876-5.312-5.023-3.649 1.986-.268 3.7 3.434-.217 4.937.761-2.79-2.014-5.312-4.897-4.078 1.85.537 3.721 3.639-.418 4.829-2.613.751-6.421-.215-9.25-1.932-2.83-1.716-18.719-7.941-15.237-3.219z"/><path fill="#FFF" fill-rule="nonzero" stroke="#000" stroke-width=".167" d="M224.936 60.186c-2.146.966-.751 3.219-4.078 4.507-3.328 1.288-5.635 4.239-4.883 6.761 2.254-4.937 6.225-4.722 7.619-6.654 1.396-1.931 3.435-4.775 1.342-4.614z"/><path fill="#FFF" fill-rule="nonzero" stroke="#000" stroke-width=".167" d="M225.526 60.508c-.107 3.917-3.19 2.49-1.986 7.995.376 1.717 1.074 4.507-.107 7.298 3.461-2.522 1.235-7.82 2.79-9.82.751-.966 1.717-2.468 2.093-3.756-.806 2.254-.751 6.439 1.449 7.512-1.771-4.186 4.776-7.62.268-12.449-.643 1.181-2.683 3.273-4.507 3.22zm-10.947-3.917c.538.805 1.074 2.844.59 3.971 1.074-.644 2.631-2.307 3.112-3.434 2.2.322 3.059 3.059.967 4.239 1.287 0 3.488 0 4.721-1.449-1.501-1.664-6.169-4.24-9.39-3.327z"/><path fill="#FFF" fill-rule="nonzero" stroke="#000" stroke-width=".167" d="M181.203 48.892c-.347-.316-.933-.617-1.985-.833-3.249-.666-1.571-3.595 1.194-3.569 5.901-6.439 9.215-1.475 16.406-3.514 2.517-.714 4.244-.503 5.615.091 3.22-2.146 6.996-1.547 9.733.976.304-.484.713-.853 1.286-1.012 2.521-.7 4.56 1.449 5.257 4.24 1.965-.364 4.21.609 5.686 1.95 2.045-1.05 3.453-1.097 3.971-.017 1.825-.859 4.189-1.397 5.369 1.501 1.18 2.898-2.79 2.039-3.435 8.156-.397 3.774-4.614 5.259-7.942 3.005-5.322-3.606-10.517-4.186-13.093 1.288-2.575 5.473-4.593 8.653-10.839 6.868-2.253-.644-5.151.215-6.975 2.683-1.825 2.468-4.615.161-7.942.429 4.185-.644 2.582-1.696 6.225-1.932 3.326-.215 2.468-3.327 4.614-3.756-8.371 2.146-8.049-.966-14.917 1.18 3.004-3.863 7.727-1.717 10.088-3.971-6.225-.107-9.008-4.174-11.806-2.468-4.4 2.683-2.469 10.321-13.951 9.659-5.581-.322-9.122.429-12.449 3.756 5.796-12.02 13.679-5.416 17.493-9.229 2.254-2.254 3.971-3.971 5.151-6.117.415-.755.978-1.187 1.681-1.354-9.549-3.007-3.773-7.688 5.565-8.01z"/><path fill="#FFF" fill-rule="nonzero" stroke="#000" stroke-linecap="round" stroke-width=".167" d="M228.364 47.203c.146.302.221.693.221 1.177 0 2.361-3.542 2.468-3.756 5.956-.112 1.825-.322 2.844-1.557 2.629-1.233-.215-2.307-2.146-1.127-4.4"/><path fill="#FFF" fill-rule="nonzero" stroke="#000" stroke-width=".167" d="M182.974 45.376c-.889-.624-1.778-.878-2.575-.886m22.015-3.441c2.841 1.23 4.228 4.182 8.355 4.326 3.974.14 6.44 5.903 13.093 2.146.181-.102.357-.197.528-.285m-12.223-5.194c-.593.943-.728 2.259-.565 3.414m-12.423 8.72c-5.043 0-6.332 2.576-6.332 5.044 0 2.468 2.361 5.688 6.547 5.688 4.185 0 6.439-2.576 6.439-5.366 0-2.791-2.576-5.366-6.654-5.366z"/><path fill="#FFF" fill-rule="nonzero" stroke="#000" stroke-width=".167" d="M200.092 64.801c-.107-1.395-2.629-1.181-2.522-2.254.107-1.073 1.396-1.503 1.396-3.005 0-1.503 2.253-1.61 3.004-.429.752 1.18 3.006 3.488 3.489 2.307m-3.49-2.307c-1.18 1.18-1.716 3.595-.161 5.473m1.771-3.649c-.375.805-.482 2.039-.053 2.79"/><path stroke="#000" stroke-width=".167" d="M223.621 56.993c3.945.322 4.616-4.024 1.664-4.293m-6.52-7.432c-1.368-1.743-4.507-2.334-4.561 1.368"/><path fill="#FFF" fill-rule="nonzero" stroke="#000" stroke-width=".167" d="M213.829 50.849c-1.341-3.327-4.776-3.81-6.601-2.146-1.518 1.384-1.556 4.991 1.718 5.742 1.126-1.342 3.326-3.113 4.883-3.596zm-1.476-2.093c-1.932-1.717-4.776 1.53-2.2 4.507"/><path fill="#000" fill-rule="nonzero" d="M218.765 45.268c-1.18-1.261-3.756-.268-3.032 2.281.564-1.18 1.771-2.173 3.032-2.281zm-7.294 6.875c.813-.59 1.651-1.075 2.358-1.294-.386-.955-.943-1.675-1.586-2.178-.614-.424-2.378 1.948-.772 3.472z"/><path stroke="#000" stroke-linecap="round" stroke-width=".167" d="M208.301 47.79c-1.932-1.288-3.703-1.18-4.293-.107-1.395-.054-2.548.966-2.603 3.005m2.98.859c-2.307-1.583-5.474-.992-5.258 2.549m-1.396 2.011c1.126-.912 2.736-1.556 3.971.054m13.254-3.541c-.429.59-.752 1.502-.054 2.897-.858-1.127-3.004-1.127-5.313 1.878m10.464-4.936c-2.79.322-2.736 2.146-.483 2.951m-19.372-9.766c-2.361-.483-4.078.912-.804 2.093m5.313-3.703c-3.328-.805-4.67.054-3.167.805m-6.439 12.556c-.107 1.181.536 2.737 2.468.966m-1.823 2.576c0 .322-.054.698-.269.966m-7.459-16.688c-2.039-.59-2.414-2.468-.053-2.307m-.644 6.653c-2.254-.751-2.254-2.951-.376-2.737m4.56 1.61c-2.629-.644-2.736-2.468-.75-2.2m1.073-3.38c-1.395-.107-3.542 1.449.054 2.361m3.864.751c-3.273-.483-3.219.859-1.289 1.717m3.757-4.829c-2.522-.483-3.381 1.02-1.664 1.664m-6.278 7.619c-.618-.509-1.127-2.951 1.824-2.227m4.293 1.476c-1.985-.537-3.863 1.395-2.039 2.522m4.668-4.83c-2.092-.376-3.863.215-2.736.966"/><path fill="#FFF" fill-rule="nonzero" stroke="#000" stroke-width=".167" d="M175.604 56.887c1.293-.307 3.183.326 6.082 1.689 1.825.859 7.299 2.683 10.732.859-3.542 1.288-6.224-4.078-8.907-3.434-2.683.644-7.593 1.636-9.658-.322 5.043.322 7.756-3.674 13.521-.215 1.611.966 3.65 1.61 5.474 1.503-4.721-5.688-10.946-2.039-11.59-6.654 2.845 3.059 9.793-.698 13.335 5.044m24.061-10.088c-1.179.218-2.236.911-2.921 2.28m-33.455 3.619c-.664-.826-.364-1.65-1.076-2.302"/></g></svg>