<svg xmlns="http://www.w3.org/2000/svg" width="100%" height="100%" viewBox="-3.2 -3.2 38.4 38.4"><path d="M17.406 28.349c-1.792.026-3.099-.547-3.182-2.115a14.456 14.456 0 01.005-1.589c.182-2.292 1.776-3.938 3.37-4.255 1.979-.391 3.276.505 3.276 3.078 0 1.74-.479 4.828-3.453 4.88h-.021zM15.896 0C7.094 0 0 7.063 0 16.297c0 4.792 2.563 9.417 6.161 12.198.698.531 1.521.49 2 .026.396-.38.359-1.313-.38-1.969-2.88-2.51-4.87-6.344-4.87-10.177 0-6.865 6.104-12.656 12.984-12.656 8.375 0 12.849 6.807 12.849 12.578 0 3.531-1.719 7.786-4.833 10.495.021 0 .656-1.255.656-3.708 0-4.177-2.635-6.448-5.708-6.448-2.214 0-3.552.797-4.453 1.536 0-1.698.063-4.87.063-4.87 0-2.099-.719-3.776-3.292-3.818-1.484-.016-2.578.661-3.255 2.198-.24.583-.161 1.224.339 1.5.401.24 1.078.063 1.396-.38.219-.276.339-.339.536-.318.323.042.344.542.344.88.016.255.255 3.87.115 13.151-.01 2.547 2.005 5.484 6.818 5.484 2.078 0 3.672-.578 5.99-1.896 3.531-2 8.542-6.427 8.542-13.932A16.122 16.122 0 0015.913-.001z"/></svg>