<svg xmlns="http://www.w3.org/2000/svg" width="100%" height="100%" viewBox="-51.2 -51.2 614.4 614.4"><path fill="var(--ci-primary-color, currentColor)" d="M416.941 27.429L185.407 219.3c-1.711-.078-3.421-.13-5.124-.13h-.025a113.878 113.878 0 00-108.472 78.655L18.3 461.387A26.873 26.873 0 0043.771 496.6a27.007 27.007 0 008.4-1.345l163.562-53.483A113.877 113.877 0 00294.388 333.3a114.3 114.3 0 00-.263-7.575L485.119 95.668a48.44 48.44 0 00-68.178-68.239zM205.786 411.355L51.873 461.684 102.2 307.771a81.946 81.946 0 0178.06-56.6c2.271 0 4.559.1 6.841.285l75 75a82.94 82.94 0 01.285 6.842 81.946 81.946 0 01-56.6 78.057zM460.5 75.227L277.382 295.791 216.6 235.009 437.359 52.067a16.44 16.44 0 0123.141 23.16z" class="ci-primary"/></svg>