<svg xmlns="http://www.w3.org/2000/svg" width="100%" height="100%" viewBox="-51.2 -51.2 614.4 614.4"><path fill="var(--ci-primary-color, currentColor)" d="M441.884 109.647A32.029 32.029 0 00415.669 96H48a32.036 32.036 0 00-32 32v248h41.082a67.982 67.982 0 00133.836 0h122.164a67.982 67.982 0 00133.836 0H496V194.521a23.886 23.886 0 00-4.338-13.763zM180 128h144v96H180zm-132 0h100v96H48zm76 272a36 36 0 1136-36 36.04 36.04 0 01-36 36zm256 0a36 36 0 1136-36 36.04 36.04 0 01-36 36zm84-56h-19.006a68 68 0 00-129.988 0H188.994a68 68 0 00-129.988 0H48v-88h416zm0-120H356v-96h59.669L464 197.043z" class="ci-primary"/></svg>