<svg xmlns="http://www.w3.org/2000/svg" width="100%" height="100%" viewBox="-3.2 -3.2 38.4 38.4"><path d="M31.943 15.016C31.438 6.672 24.536.063 16.083.011h-.187c-2.989.02-5.781.849-8.167 2.296a16.062 16.062 0 00-5.401 5.376A15.964 15.964 0 000 16.001c0 .333.016.667.031.995.167 2.672.98 5.161 2.297 7.317a16.119 16.119 0 005.369 5.381 16.108 16.108 0 008.172 2.291h.24c8.459-.057 15.328-6.651 15.855-14.984.015-.323.041-.661.041-.979 0-.324 0-.661-.027-.98l-.031-.031zm-15.938 5.839v5.104c.125 3.12-.76 3.64-1.828 3.687-.047 0-.089.005-.136.005-6.072-.859-10.875-5.672-11.713-11.76a14.26 14.26 0 01-.131-1.896c0-.64.048-1.271.131-1.891.833-6.077 5.625-10.891 11.699-11.76l.151.016c1.068.056 1.953.572 1.828 3.681v5.104c-.016 2.1 1.192 4.1 2.473 4.855-1.281.749-2.489 2.5-2.473 4.849z"/></svg>