<svg xmlns="http://www.w3.org/2000/svg" width="100%" height="100%" viewBox="-51.2 -51.2 614.4 614.4"><path fill="var(--ci-primary-color, currentColor)" d="M399.667 264.875v-3.813c0-79.4-64.6-144-144-144-2.2 0-4.391.057-6.569.156a116.689 116.689 0 10-136.783 130.226 145.275 145.275 0 00-.648 13.618v3.813a116.633 116.633 0 0020.62 231.425h246.759a116.633 116.633 0 0020.621-231.427zM48.75 132.688a84.677 84.677 0 01168.705-10.47 144.606 144.606 0 00-98.59 93.876 84.807 84.807 0 01-70.115-83.406zM379.046 464.3H132.287a84.619 84.619 0 01-3.9-169.148l15.277-.69v-33.4a112 112 0 11224 0v33.4l15.277.69a84.619 84.619 0 01-3.9 169.148z" class="ci-primary"/></svg>