<svg xmlns="http://www.w3.org/2000/svg" width="100%" height="100%" viewBox="-30 -105 360 360"><defs><clipPath id="a"><path d="M0 0h150v75H0zm0 0"/></clipPath><clipPath id="b"><path d="M0 0v37.5h200V100zm150 0H75v100H-50zm0 0"/></clipPath><clipPath id="c"><path d="M0 0h200v100H0zm0 0"/></clipPath><clipPath id="d"><path d="M0 0v37.5h200V100zm150 0H75v100H-50zm0 0"/></clipPath></defs><path fill="#012169" d="M0 0h300v150H0z"/><path fill="#012169" stroke="#fff" stroke-width="15" d="M0 0l150 75M0 75L150 0"/><g clip-path="url(#a)"><g clip-path="url(#b)"><path fill="#012169" d="M0 0l150 75M0 75L150 0"/></g></g><g clip-path="url(#c)"><g clip-path="url(#d)"><path fill="none" stroke="#c8102e" stroke-width="10" d="M0 0l150 75M0 75L150 0"/></g></g><path fill="#012169" stroke="#fff" stroke-width="25" d="M75 0v100M0 37.5h175"/><path fill="#012169" stroke="#c8102e" stroke-width="15" d="M75 0v100M0 37.5h175"/><path fill="#012169" d="M0 75h150V0h150v150H0zm0 0"/><path fill="#fff" d="M225 12.75l2.531 7.781h8.156l-6.593 4.782 2.531 7.78-6.625-4.78-6.625 4.78 2.531-7.78-6.594-4.782h8.157zm0 0M250.32 18.133l-.851 8.137 7.449 3.316-7.969 1.687-.851 8.137-4.11-7.062-7.996 1.675 5.477-6.082-4.078-7.046 7.453 3.316zm0 0M271.262 33.348l-4.09 7.086 5.457 6.062-7.965-1.703-4.09 7.09-.879-8.121-7.984-1.727 7.476-3.324-.859-8.102 5.457 6.063zm0 0M284.203 55.766l-6.617 4.808 2.52 7.758-6.586-4.793-6.618 4.813 2.5-7.778-6.593-4.824 8.183.004 2.508-7.75 2.52 7.758zm0 0M286.91 81.508l-8.004 1.703-.851 8.113-4.067-7.058-8.004 1.703 5.45-6.09-4.063-7.086 7.473 3.328 5.445-6.055-.855 8.11zm0 0M278.91 106.125l-8.004-1.7-4.078 7.063-.844-8.097-8.004-1.7 7.454-3.347-.829-8.13 5.473 6.083 7.438-3.317-4.079 7.063zm0 0M261.59 125.36l-6.621-4.805-6.598 4.793 2.524-7.743-6.622-4.808 8.168-.027 2.551-7.762 2.524 7.785 8.148-.008-6.601 4.793zm0 0M237.941 135.89l-4.093-7.085-7.977 1.695 5.457-6.047-4.094-7.086 7.473 3.301 5.484-6.055-.855 8.137 7.441 3.305-7.976 1.699zm0 0M212.059 135.89l-.86-8.136-7.976-1.7 7.441-3.304-.855-8.137 5.484 6.055 7.473-3.3-4.094 7.085 5.457 6.047-7.977-1.695zm0 0M188.41 125.36l2.528-7.782-6.602-4.793 8.148.008 2.524-7.785 2.55 7.762 8.169.027-6.622 4.808 2.524 7.743-6.598-4.793zm0 0M171.09 106.125l5.472-6.082-4.078-7.063 7.438 3.317 5.473-6.082-.829 8.129 7.454 3.347-8.004 1.7-.844 8.097-4.078-7.062zm0 0M163.09 81.508l7.476-3.332-.855-8.11 5.445 6.055 7.473-3.328-4.063 7.086 5.45 6.09-8.004-1.703-4.067 7.058-.851-8.113zm0 0M165.797 55.766l8.183-.004 2.52-7.758 2.508 7.75 8.183-.004-6.593 4.824 2.5 7.778-6.618-4.813-6.585 4.793 2.52-7.758zm0 0M178.738 33.348l7.477 3.324 5.457-6.063-.86 8.102 7.477 3.324-7.984 1.727-.88 8.12-4.09-7.089-7.964 1.703 5.457-6.062zm0 0M199.68 18.133l5.476 6.078 7.453-3.316-4.078 7.046 5.477 6.082-7.996-1.675-4.11 7.062-.851-8.137-7.969-1.687 7.45-3.316zm0 0"/></svg>