<svg xmlns="http://www.w3.org/2000/svg" width="100%" height="100%" viewBox="-51.2 -51.2 614.4 614.4"><path fill="var(--ci-primary-color, currentColor)" d="M124 136H36a20.023 20.023 0 00-20 20v320a20.023 20.023 0 0020 20h88a20.023 20.023 0 0020-20V156a20.023 20.023 0 00-20-20zm-12 328H48V168h64zM300 240h-88a20.023 20.023 0 00-20 20v216a20.023 20.023 0 0020 20h88a20.023 20.023 0 0020-20V260a20.023 20.023 0 00-20-20zm-12 224h-64V272h64zM476 16h-88a20.023 20.023 0 00-20 20v440a20.023 20.023 0 0020 20h88a20.023 20.023 0 0020-20V36a20.023 20.023 0 00-20-20zm-12 448h-64V48h64z" class="ci-primary"/></svg>