<svg xmlns="http://www.w3.org/2000/svg" width="100%" height="100%" viewBox="-51.2 -51.2 614.4 614.4"><path fill="var(--ci-primary-color, currentColor)" d="M448 242.025V152a48.055 48.055 0 00-48-48H112a48.055 48.055 0 00-48 48v90.025A64.115 64.115 0 0016 304v112a32.036 32.036 0 0032 32h16v48h32v-48h320v48h32v-48h16a32.036 32.036 0 0032-32V304a64.115 64.115 0 00-48-61.975zM112 416H48V304a32 32 0 0164 0zm256 0H144v-96h224zm2.025-128h-228.05A64.243 64.243 0 0096 242.025V152a16.019 16.019 0 0116-16h288a16.019 16.019 0 0116 16v90.025A64.243 64.243 0 00370.025 288zM464 416h-64V304a32 32 0 0164 0l.02 112z" class="ci-primary"/></svg>