<svg xmlns="http://www.w3.org/2000/svg" width="100%" height="100%" viewBox="-51.2 -51.2 614.4 614.4"><path fill="var(--ci-primary-color, currentColor)" d="M336 256a80 80 0 10-80 80 80.091 80.091 0 0080-80zm-128 0a48 48 0 1148 48 48.055 48.055 0 01-48-48zM160 397.988L245.307 496h21.386L352 397.988V368H160zM307.825 400L256 459.544 204.175 400zM245.307 16L160 114.012V144h192v-29.988L266.693 16zm-41.132 96L256 52.456 307.825 112zM16 245.307v21.386L114.013 352H144V160h-29.987zm96 62.519L52.455 256 112 204.174zM397.987 160H368v192h29.987L496 266.693v-21.386zM400 307.826V204.174L459.545 256z" class="ci-primary"/></svg>