<svg xmlns="http://www.w3.org/2000/svg" width="100%" height="100%" viewBox="-3.2 -3.2 38.4 38.4"><path d="M32 10.912l-.027-.12-.02-.063c-.016-.036-.027-.068-.041-.104 0-.021-.016-.041-.027-.063l-.047-.093-.036-.063-.063-.084-.057-.057-.084-.063-.063-.041-.077-.057-.057-.052-.021-.025L16.771.255a1.351 1.351 0 00-1.52 0L.527 10.068l-.079.068-.052.052-.068.077-.047.057-.068.084c-.025.02-.041.036-.041.057l-.068.083-.025.079c-.027.015-.027.052-.043.093l-.009.068c-.027.041-.027.077-.027.12v9.995c0 .063.005.12.016.181l.011.063a.761.761 0 00.025.115l.021.063c.015.037.02.073.036.104l.031.063c0 .016.016.057.037.084l.041.052c.021.015.041.052.063.077l.036.057.052.052c.016.016.016.043.043.043l.077.052.057.041.011.021 14.631 9.771c.219.161.5.219.76.219.255 0 .516-.084.755-.24l14.881-9.875.067-.079.047-.063.052-.077.043-.068.036-.093.021-.068.041-.104.021-.057.041-.109v-10c0-.063 0-.125-.027-.188l-.015-.057.057.005zm-15.984 8.369l-4.871-3.251 4.871-3.26 4.864 3.256zm-1.38-8.896l-5.964 3.984-4.817-3.219 10.781-7.187zm-8.443 5.642l-3.444 2.307v-4.599l3.444 2.301zm2.479 1.666l5.964 3.989v6.427L3.855 20.921l4.823-3.228zm8.713 3.99l5.969-3.975 4.817 3.224-10.787 7.188zm8.443-5.642l3.443-2.292v4.605l-3.443-2.308zm-2.473-1.656l-5.964-3.984V3.958l10.781 7.187-4.817 3.219z"/></svg>