<svg xmlns="http://www.w3.org/2000/svg" width="100%" height="100%" viewBox="-51.2 -51.2 614.4 614.4"><path fill="var(--ci-primary-color, currentColor)" d="M472 96h-88V40h-32v56H160V40h-32v56H40a24.028 24.028 0 00-24 24v336a24.028 24.028 0 0024 24h432a24.028 24.028 0 0024-24V120a24.028 24.028 0 00-24-24zm-8 352H48V128h80v40h32v-40h192v40h32v-40h80z" class="ci-primary"/><path fill="var(--ci-primary-color, currentColor)" d="M112 224h32v32h-32zM200 224h32v32h-32zM280 224h32v32h-32zM368 224h32v32h-32zM112 296h32v32h-32zM200 296h32v32h-32zM280 296h32v32h-32zM368 296h32v32h-32zM112 368h32v32h-32zM200 368h32v32h-32zM280 368h32v32h-32zM368 368h32v32h-32z" class="ci-primary"/></svg>