<svg xmlns="http://www.w3.org/2000/svg" width="100%" height="100%" viewBox="-3.2 -3.2 38.4 38.4"><path d="M15.975.5C24.837.5 31.5 7.381 31.5 16c0 9.194-7.406 15.5-15.525 15.5C7.6 31.5.5 24.656.5 16 .5 7.694 7.044.5 15.975.5zm.05 2.794C8.638 3.294 3.294 9.413 3.294 16c0 6.863 5.7 12.675 12.731 12.675 6.45 0 12.675-5.069 12.675-12.675.006-7.113-5.637-12.706-12.675-12.706zm.225 3.325c.175-.019.719.063.719.719l.413 6.7.306-3.706c0-.375.294-.663.663-.663s.662.294.662.663c0 .156-.031-.356.356 5.094l.363-4.012c.019-.181.181-.581.637-.581.238 0 .619.144.663.556l.719 6.031.331-.8c.113-.275.325-.412.637-.412h3.625v1.331h-3.181l-1.138 2.768c-.244.619-1.219.569-1.3-.194l-.25-1.994-.469 5.788c-.019.188-.188.581-.638.581-.188 0-.612-.131-.662-.581 0-.119.037.363-.387-4.869l-.331 4.512c-.069.3-.3.581-.663.581-.181 0-.613-.125-.662-.581 0-.119.031.419-.363-5.481l-.363 5.925c0 .394-.225.775-.663.775-.325 0-.662-.256-.662-.75l-.363-5.481c-.363 5.781-.331 5.25-.331 5.369-.069.3-.3.581-.662.581-.188 0-.613-.131-.663-.581 0-.044-.025-.069-.025-.163l-.388-5.537-.306 3.544c-.044.406-.419.581-.663.581-.362 0-.6-.256-.662-.556l-.694-4.775c-.125.25-.219.525-.694.525H5.948v-1.331h2.8l.856-1.744c.275-.619 1.137-.45 1.244.169l.194 1.275.525-6.119c0-.375.3-.662.662-.662.031 0 .663-.012.663.775l.306 4.319.413-5.788c0-.631.594-.662.637-.662.038 0 .663.044.663.662l.331 5.038.388-6.119c.006-.069-.038-.644.619-.719z"/></svg>