<svg xmlns="http://www.w3.org/2000/svg" width="100%" height="100%" viewBox="-3.2 -3.2 38.4 38.4"><path d="M15.339 16.287c-.161.349-.333.735-.516 1.145-.645 1.453-1.353 3.224-1.615 4.36a6.602 6.602 0 00-.151 1.463c0 .219.016.448.031.683a8.456 8.456 0 005.584.089 4.98 4.98 0 01-.557-.589c-1.141-1.453-1.771-3.577-2.776-7.151zM11.14 9.083A8.47 8.47 0 007.541 16a8.478 8.478 0 003.5 6.844c.521-2.161 1.823-4.141 3.776-8.109-.12-.319-.249-.667-.396-1.037-.541-1.353-1.323-2.927-2.02-3.64a5.665 5.665 0 00-1.261-.975zm12.229 16.62c-1.119-.14-2.047-.307-2.853-.593a10.186 10.186 0 01-9.876-.473 10.164 10.164 0 01-4.807-8.636c0-2.927 1.26-5.713 3.469-7.64a7.47 7.47 0 00-1.767-.215c-2.984.027-6.129 1.677-7.443 6.136-.12.645-.088 1.135-.088 1.719 0 8.839 7.161 16 16 16 5.411 0 10.188-2.688 13.083-6.803-1.561.391-3.072.579-4.359.584-.484 0-.937-.027-1.36-.079zm-3.005-3.099c.1.047.324.131.631.213A8.454 8.454 0 0024.464 16 8.474 8.474 0 0016 7.541c-.901 0-1.797.147-2.656.432 1.719 1.953 2.547 4.756 3.344 7.813v.005c.005.005.26.848.692 1.973.432 1.12 1.052 2.516 1.724 3.527.443.681.927 1.167 1.26 1.312zM16 0A15.96 15.96 0 003 6.683c1.511-.943 3.052-1.287 4.401-1.276 1.859.005 3.317.583 4.02.979.172.093.333.203.491.308a10.17 10.17 0 0114.254 9.307c0 2.719-1.088 5.323-3.027 7.235.459.052.948.083 1.448.077 1.772 0 3.688-.391 5.12-1.593.937-.792 1.724-1.948 2.156-3.677a15.48 15.48 0 00.136-2.041c0-8.839-7.161-16-16-16z"/></svg>