<svg xmlns="http://www.w3.org/2000/svg" width="100%" height="100%" viewBox="-3.2 -3.2 38.4 38.4"><path d="M16 0C7.161 0 0 7.161 0 16s7.161 16 16 16 16-7.161 16-16S24.839 0 16 0zM9.281 10.24c1.005 0 1.787.733 1.875 1.599.095.781-.229 1.464-1.093 1.875-.459.229-.641.229-.735.093-.047-.093 0-.181.093-.276.824-.681.824-1.233.729-2.009-.047-.505-.411-.824-.776-.824-1.604 0-3.885 3.563-3.568 6.172.141 1.005.735 2.193 2.011 2.193.412 0 .871-.136 1.281-.317.667-.355 1.068-.625 1.464-1.068-.099-1.183.937-2.729 2.468-2.729.688 0 1.235.276 1.281.781.089.683-.505.776-.687.776-.183 0-.505-.047-.505-.229-.041-.183.411-.093.369-.505-.047-.276-.323-.364-.593-.364-.964 0-1.511 1.328-1.375 2.145.047.369.228.735.599.735.271 0 .683-.412.817-1.005.093-.412.459-.688.781-.688.136 0 .224.047.271.229v.183c-.041.183-.183.735-.135.869 0 .095.047.229.228.229.12 0 .579-.24 1.037-.615.151-.787.333-1.729.333-1.807.047-.323.183-.641.823-.641.14 0 .229.047.276.229v.183l-.183.823c.595-.776 1.464-1.323 2.011-1.323.229 0 .412.135.412.364 0 .136 0 .365-.095.595-.181.5-.411 1.281-.547 1.963 0 .183.047.365.276.365s.912-.271 1.459-1.005l.011-.005c0-.089-.011-.177-.011-.265 0-.552.047-1.005.141-1.328.093-.365.547-.683.823-.683.135 0 .276.088.276.224 0 .047 0 .14-.047.183-.183.599-.324 1.145-.324 1.692 0 .323.048.776.141 1.052 0 .047.041.093.088.093.095 0 .735-.593 1.188-1.375-.412-.271-.641-.729-.641-1.276 0-.963.6-1.464 1.147-1.464.459 0 .823.319.823.959 0 .412-.136.871-.364 1.281h.135c.292.011.579-.109.776-.317a.399.399 0 01.183-.156c.448-.568 1.104-.989 1.88-.989.64 0 1.229.276 1.276.776.093.687-.505.823-.688.823-.181 0-.504-.047-.504-.229s.411-.093.369-.5c-.047-.276-.323-.369-.599-.369-.912 0-1.505 1.187-1.371 2.151.047.364.229.776.595.776.276 0 .687-.412.869-1.005.088-.364.459-.688.776-.688.14 0 .229.047.276.229 0 .095 0 .276-.183.871-.229.411-.229.64-.181.823.041.364.224.64.411.776a.959.959 0 01.089.135c0 .095-.048.188-.183.188-.047 0-.089 0-.136-.047-.687-.276-.963-.735-1.052-1.193-.276.323-.593.505-.963.505-.595 0-1.183-.547-1.276-1.235a2.074 2.074 0 01.099-.864c-.271.172-.563.271-.833.271h-.224c-.599.869-1.24 1.464-1.693 1.735a1.205 1.205 0 01-.505.14c-.088 0-.228-.047-.271-.14-.129-.203-.208-.521-.26-.885-.641.697-1.527 1.072-1.937 1.072-.459 0-.729-.276-.776-.733v-.5c.135-1.005.505-1.604.505-1.787a.105.105 0 00-.095-.093c-.317 0-1.369 1.099-1.552 1.833l-.14.593c-.089.411-.5.687-.776.687-.136 0-.229-.047-.271-.228v-.183l.057-.312c-.579.411-1.157.676-1.433.676-.411 0-.64-.229-.681-.552-.276.371-.595.552-1.005.552-.475 0-.932-.323-1.151-.791-.329.369-.699.739-1.136 1.02-.64.412-1.369.729-2.24.729-.776 0-1.463-.412-1.828-.776-.552-.505-.869-1.281-.916-2.011-.271-2.239 1.099-5.12 3.197-6.401.505-.276 1.011-.457 1.511-.457zm13.026 4.391c-.135 0-.228.229-.228.452 0 .371.181.781.411 1.011a2.31 2.31 0 00.141-.781c0-.452-.183-.681-.324-.681z"/></svg>