<svg xmlns="http://www.w3.org/2000/svg" width="100%" height="100%" viewBox="-3.2 -3.2 38.4 38.4"><path d="M23.349 8.714c-.005.005-.333.339-.521.542-.484.531-1.224 1.302-1.745 1.495h-.005c-.073-.021-.141-.047-.214-.068l.938-1.896-.01.016c-.031.057-.958 1.885-2.219 1.62l-.005.005c-.021-.005-.036 0-.052-.005.604-.771.839-1.484.839-1.484s-1.005 1.62-2.255 1.182a.106.106 0 01-.063-.063.184.184 0 010-.104c.01-.057.052-.125.089-.188.125-.234.344-.495.344-.495s-.208.203-.49.396l-.005.005c-.208.141-.458.276-.693.313a.803.803 0 01-.219 0c-.286-.052-.281-.333-.203-.609.083-.271.234-.531.234-.531s-.255.396-.531.781c-.214.297-.417.526-.552.63l-.161.005c-.083-.234.13-1.005.13-1.01a6.501 6.501 0 01-.417.594c-.13.172-.281.323-.453.448h-.036c-.109.01-.214.026-.318.042a.256.256 0 01-.083-.167c-.057-.359.161-1.01.167-1.016-.005.005-.125.344-.281.667v.005c-.042.094-.094.161-.146.24-.115.182-.234.323-.344.292-.172-.052-.271-.271-.328-.474-.063-.203-.078-.401-.078-.401s-.042.339-.156.651a1.139 1.139 0 01-.193.349c-.031.036-.078.052-.115.073-1.198.214-2.37.557-3.49 1.021-.297.109-.594.214-.901.344-1 .427-2.036.964-3.12 1.661a28.495 28.495 0 00-3.417 2.594 41.247 41.247 0 00-1.833 1.719c4.745-2.552 6.625-6.323 15.51-6.656 6.724-.255 9.865 2.849 10.906 2.891 2.604.109 4.339-1.865 4.896-2.594.146-.188.234-.318.24-.328-.01.016-.438.5-1.036.964l-.01.005c-.615.469-1.401.906-2.099.802h-.005c-.089-.016-.182-.01-.271-.047.99-.578 1.646-1.583 1.974-2.125.104-.167.313-.479.313-.479s-2.328 2.385-4.063 2.224c-.073-.005-.141.01-.208-.005.755-.594 1.313-1.391 1.703-2.063v-.005h.005a8.934 8.934 0 00.641-1.323c-.005.01-.432.661-1.021 1.38l-.01.016c-.589.719-1.333 1.495-1.953 1.734-.094.031-.188.083-.271.094 1.443-1.281 2.052-3.094 2.052-3.094s-1.464 2.125-2.703 2.516c-.073.021-.151.063-.229.073.76-.682 1.161-1.229 1.411-1.656.318-.536.375-.865.375-.865l-.005.005c-.12.151-.24.297-.365.443l-.021.021c-.339.401-.859.979-1.391 1.438l-.005.005c-.141.12-.281.229-.427.333-.042.026-.083.063-.12.089-.115.068-.24.13-.365.182-.031.01-.057.031-.089.042-.089-.063-.172-.125-.271-.182-.063.078-.13.156-.188.234h-.005c-.026-.005-.057-.005-.083-.021 1.146-1.245 1.922-2.823 1.922-2.823l-.01.005c-.01.01-1.589 2.146-2.302 2.276a4.675 4.675 0 00-.286-.135.683.683 0 01.057-.219c.161-.375.62-.953.62-.953l-.167.125c-.13.115-.266.219-.401.318-.078.057-.156.099-.229.146-.089.052-.172.104-.255.141a.888.888 0 01-.349.115c-.057 0-.109-.005-.146-.036.604-.37 1.635-2.172 1.646-2.182zm-6.391 2.885a24.519 24.519 0 00-1.214.01c-.385.016-.734.042-1.094.073a4.673 4.673 0 00-1.047.615.545.545 0 01-.016.474l1.182.859.031-.021-.484-1.688.833 1.49.083-.031-.026-1.646.531 1.552.63-1.536.026 1.693c.005.005.01.01.016.01l.948-1.339-.484 1.625.01.01 1.391-.922-1.01 1.401v.01l1.266-.453c.016-.026.042-.042.057-.068-.313-.385.042-.948.526-.839.156-.328.281-.672.359-1.026a17.72 17.72 0 00-2.51-.255zm-3.338.182h-.031c-.406.047-.807.104-1.188.167s-.75.135-1.099.214h-.016a4.72 4.72 0 00.703 1.443c.146-.318.328-.615.536-.885a.581.581 0 01.76-.74c.104-.078.224-.13.333-.198zm5.943.12a4.224 4.224 0 01-.214 1.104c.385.349.073.984-.438.906a4.343 4.343 0 01-.734.839l.88.047-1.323.313c-.036.026-.063.057-.099.078.755.12 1.464.438 2.052.922a5.294 5.294 0 00.672-2.589c0-.714-.318-1.234-.792-1.62zm-8.422.302c-.396.094-.776.198-1.135.307a1.971 1.971 0 00-.281 1.01 5.32 5.32 0 003.141 4.854l.005-.016a4.142 4.142 0 01-.776-1.052c-.854.12-1.219-1.052-.448-1.438a4.303 4.303 0 01.188-1.854 4.218 4.218 0 01-.693-1.813zm10.172.037c.188.547.302 1.12.302 1.724 0 3.25-2.938 5.891-6.563 5.891-3.62 0-6.557-2.641-6.557-5.891 0-.318.031-.625.083-.927a17.651 17.651 0 00-2.766 1.484c-.286.516-.427 1.057-.38 1.599.115 1.313 1.271 2.406 3.036 3.151l-.344-.089c-3.052-.865-5.474.667-8.125-.661.615.484 1.313.958 3.328.964.688 0 2.88-.109 3.286.25.401.349-1.365 2.016-1.365 2.016s2.99-2.531 3.276-1.667c.182.536-.854 1.969-.854 1.969s1.042-1.411 1.818-1.714c.531-.208.979-.182 1.365.354.25.349-1.214 2.068-1.214 2.068s1.969-1.917 2.318-1.818c.354.099 0 1.818 0 1.818s.729-1.74 1.115-1.87c.531-.177-1.214 4.042-1.214 4.042s2.13-3.901 2.526-3.99c.682-.151 1.135 2.724 1.135 2.724s-.333-2.516.026-2.677c2.26-1.021.958 4.344.958 4.344s1.479-3.641.573-4.448c2.396 1.589 2.104 4.448 2.104 4.448s.625-1.359-1.141-4.708c.958-.047 2.401 2.49 2.401 2.49s-1.568-2.776-.505-2.828c2.104-.099 2.318 3.688 2.318 3.688s.635-.531-1.057-4.24c1.078-.693 3.682 3.427 3.682 3.427s-2.401-4.021-2.016-4.292c.385-.266 1.797 1.281 1.797 1.281s-1.073-1.479-.792-1.63c.286-.151 3.151 2.943 3.151 2.943s-2.526-3.026-2.089-3.401c.438-.37 2.286 1.047 2.286 1.047s-2.844-1.865-2.286-2.156c.771-.401 2.979.958 2.979.958s-1.328-1.094-1.109-1.359c.219-.271 2.828 1.714 2.828 1.714S27.32 16.45 27.2 15.997c-.115-.453 1.818.151 1.818.151s-2.135-.99-2.167-1.276c-.036-.286 1.411.318 1.411.318s-1.984-1.63-2.474-.302c-.109.214-.25.401-.375.599.12-.359.177-.724.146-1.094a2.202 2.202 0 00-.073-.37c-.906-.49-2.266-1.245-4.177-1.781zm-7.771.604a.567.567 0 01-.677.219c-.073.099-.135.203-.198.307l1.703.625c.016-.016.026-.036.042-.057zm-.881.526c-.125.208-.24.422-.323.656.161.167.349.313.526.453l1.229-.036.005-.005zm5.584.724l-.807.615.073.005c.266-.177.51-.385.734-.62zm-6.047.385c0 .016-.005.031-.01.047a3.781 3.781 0 00-.063 1.281.754.754 0 01.599.63l1.25-.802c-.115-.042-.229-.078-.333-.125l-1.401-.104.849-.188a4.31 4.31 0 01-.891-.74zm1.057.281c.188.115.375.214.573.302l.156-.036c0-.021.005-.047.005-.073zm4.162.912l1.224 1.198-1.599-.62.938 1.438-1.432-1.109-.016.005.464 1.708-.797-1.516-.125 1.771-.542-1.766-.625 1.682.151-1.813-.021-.01-1.083 1.536.396-1.479a4.37 4.37 0 00-1.057 1.589c.125.135.26.26.401.385a5.31 5.31 0 005.802-2.255 4.578 4.578 0 00-1.677-.719zm-3.245.297l-1.438.516c0 .026.01.047.01.068a.77.77 0 01-.245.563c.135.292.302.563.5.818a4.26 4.26 0 01.427-.844l-.396.318zm4.844 3.719c-.25.063-.495.13-.75.182.255-.052.5-.12.75-.182zM17.563 20c-.151.026-.302.063-.453.083-.271.042-.521.057-.781.083.422-.042.833-.099 1.234-.167zm-1.803.229c-.146.01-.286.005-.432.016.151-.01.286-.005.432-.016z"/></svg>