<svg xmlns="http://www.w3.org/2000/svg" width="100%" height="100%" viewBox="-3.2 -3.2 38.4 38.4"><path d="M15.975.5C24.837.5 31.5 7.381 31.5 16c0 9.194-7.406 15.5-15.525 15.5C7.6 31.5.5 24.656.5 16 .5 7.694 7.044.5 15.975.5zm.05 2.794C8.638 3.294 3.294 9.413 3.294 16c0 6.863 5.7 12.675 12.731 12.675 6.45 0 12.675-5.069 12.675-12.675.006-7.113-5.637-12.706-12.675-12.706zM16 7.075c-5.119 0-6.406 4.831-6.406 8.925s1.288 8.925 6.406 8.925c5.119 0 6.406-4.831 6.406-8.925S21.118 7.075 16 7.075zm0 3.369c.206 0 .4.031.575.075.369.319.55.756.194 1.369l-3.406 6.262a16.353 16.353 0 01-.119-2.15c0-1.8.125-5.556 2.756-5.556zm2.55 2.887c.181.962.206 1.962.206 2.669 0 1.806-.125 5.556-2.756 5.556-.844 0-2.038-.481-1.256-1.65z"/></svg>