<svg xmlns="http://www.w3.org/2000/svg" width="100%" height="100%" viewBox="-3.2 -3.2 38.4 38.4"><path d="M31.771 26.307h-7.464c-.125 0-.224.078-.224.229v2.021c0 .125.078.224.229.224h7.458c.13 0 .229-.057.229-.219v-2.021c0-.135-.078-.219-.229-.219v-.021zM21.953 3.286c.021.047.036.089.063.161v25.052c0 .083-.031.13-.052.151a.23.23 0 01-.177.083H.204c-.052 0-.099 0-.13-.031a.247.247 0 01-.073-.177V3.421c0-.104.052-.177.13-.203h21.656c.052 0 .125.026.151.047v.021zM2.422 26.099c0 .099.052.182.13.203h16.859c.073-.021.125-.099.125-.203V5.87c0-.094-.052-.177-.13-.198H2.552c-.073.026-.125.099-.125.198zm6.901-11.167c.865 0 1.354.24 1.859.828.078.099.203.125.307.047l1.38-1.229c.099-.057.078-.219.026-.297-.849-1.021-2.073-1.656-3.651-1.656-2.12 0-3.724 1.057-4.344 2.938-.219.661-.318 1.505-.318 2.641 0 1.141.099 1.979.339 2.641.62 1.901 2.219 2.938 4.339 2.938 1.604 0 2.823-.641 3.661-1.62.063-.099.083-.219-.021-.302l-1.38-1.219c-.099-.063-.219-.063-.302.036-.516.599-1.057.917-1.938.917-.938 0-1.656-.458-1.958-1.38-.182-.516-.224-1.156-.224-1.974 0-.823.063-1.427.245-1.964.318-.875 1.021-1.344 1.979-1.344z"/></svg>