<svg xmlns="http://www.w3.org/2000/svg" width="100%" height="100%" viewBox="-3.2 -3.2 38.4 38.4"><path d="M28.911 12.672c0-.439-.306-.672-.867-.672h-.272v1.383h.261c.572 0 .878-.244.878-.711zm.422-9.116H2.666A2.668 2.668 0 00-.001 6.223v19.556a2.668 2.668 0 002.667 2.667h26.667A2.668 2.668 0 0032 25.779V6.223a2.668 2.668 0 00-2.667-2.667zm-2.45 7.716c1.256 0 2.939-.228 2.939 1.356 0 .7-.367 1.15-1.039 1.289l1.433 1.911h-1.089l-1.233-1.822h-.122v1.822h-.889zm-3.105.006h2.517v.778h-1.628v1.011h1.572v.767h-1.572v1.233h1.628v.767h-2.517zm-3.817 0l1.217 3.067 1.233-3.067h.972l-1.972 4.678h-.478l-1.944-4.678zm-3.106-.167a2.477 2.477 0 012.478 2.478 2.477 2.477 0 01-2.478 2.478 2.477 2.477 0 01-2.478-2.478 2.477 2.477 0 012.478-2.478zm-2.738.339v1.056c-1.117-1.117-2.6-.261-2.6 1.056 0 1.389 1.528 2.139 2.6 1.067v1.056c-1.65.795-3.517-.317-3.517-2.122 0-1.733 1.839-2.944 3.517-2.111zm-5.4 3.683c.633 0 1.245-.85-.183-1.355-.833-.306-1.122-.633-1.122-1.261 0-1.289 1.7-1.745 2.761-.794l-.467.6c-.578-.645-1.383-.344-1.383.139 0 .244.15.383.683.572 1.011.367 1.311.694 1.311 1.422 0 1.639-2.156 2.078-3.144.628l.572-.55c.206.394.55.6.972.6zm-5.639.7h-1.3v-4.556h1.3c1.45 0 2.45.944 2.45 2.283 0 1.028-.733 2.272-2.45 2.272zm3.75 0h-.889v-4.556h.889zm23.394 10a.839.839 0 01-.833.833H7.111c10.533-1.978 21.261-7.733 23.111-8.889zM4.117 12.422c-.289-.272-.645-.367-1.217-.367h-.233v3.011H2.9c.572 0 .944-.111 1.217-.355.317-.289.494-.711.494-1.15s-.178-.861-.494-1.139z"/></svg>