<svg xmlns="http://www.w3.org/2000/svg" width="100%" height="100%" viewBox="-3.2 -3.2 38.4 38.4"><path d="M29.86 8c-.224-.385-.532-.724-.871-.921L17.234.292c-.677-.391-1.787-.391-2.464 0L3.015 7.079C2.338 7.47 1.78 8.432 1.78 9.214v13.573c0 .391.14.828.364 1.213.219.385.532.724.871.917l11.749 6.791c.683.391 1.787.391 2.464 0l11.755-6.791c.339-.193.647-.532.871-.917s.359-.823.359-1.213V9.214c.005-.391-.135-.828-.353-1.213zM16 25.479c-5.229 0-9.479-4.249-9.479-9.479S10.77 6.521 16 6.521a9.513 9.513 0 018.208 4.733l-4.104 2.376A4.76 4.76 0 0016 11.259c-2.615 0-4.74 2.125-4.74 4.74s2.125 4.74 4.74 4.74a4.759 4.759 0 004.104-2.371l4.104 2.376A9.513 9.513 0 0116 25.477zm9.479-8.952h-1.052v1.052H23.37v-1.052h-1.052v-1.053h1.052v-1.052h1.057v1.052h1.052zm3.948 0h-1.052v1.052h-1.052v-1.052h-1.052v-1.053h1.052v-1.052h1.052v1.052h1.052z"/></svg>