<svg xmlns="http://www.w3.org/2000/svg" width="100%" height="100%" viewBox="-3.2 -3.2 38.4 38.4"><path d="M10.23 12.836L6.48 10.67a1.155 1.155 0 00-1.158.004l.004-.004-3.75 2.166a1.16 1.16 0 00-.576.998v4.33c0 .426.23.797.572.996l.004.004 3.75 2.164a1.155 1.155 0 001.16-.002l-.006.002 3.75-2.164c.348-.203.576-.574.578-1v-4.328a1.16 1.16 0 00-.572-.998zm-.191 5.328a.38.38 0 01-.191.332l-.002.002-3.75 2.164a.372.372 0 01-.386 0h.002l-3.75-2.164a.386.386 0 01-.191-.334v-4.328c0-.143.076-.266.189-.332l.002-.002 3.75-2.164a.374.374 0 01.386 0h-.002l3.75 2.164a.383.383 0 01.193.334z"/><path d="M8.117 17.254h-.275a.39.39 0 00-.188.049l.002-.002-1.66.912-1.92-1.107v-2.209l1.918-1.107 1.664.908a.387.387 0 00.184.047h.275a.193.193 0 00.193-.191v-.262a.194.194 0 00-.1-.168l-1.846-1.01a.766.766 0 00-.369-.094.762.762 0 00-.389.104l.004-.002-1.92 1.109a.777.777 0 00-.385.664v2.211a.77.77 0 00.383.664l.002.002 1.92 1.107a.774.774 0 00.758.006l-.004.002 1.844-1.012a.193.193 0 00.1-.17v-.26a.192.192 0 00-.191-.191zM17.225 13.73a1.443 1.443 0 00-1.441 1.441v1.662a1.442 1.442 0 102.884 0v-1.662c0-.795-.646-1.441-1.441-1.441zm.673 3.104a.674.674 0 11-1.346 0v-1.662a.672.672 0 011.346 0zM13.699 14.506a.673.673 0 01.756.58l.002.004a.093.093 0 00.094.082h.58a.097.097 0 00.098-.098c0-.002 0-.006-.002-.008a1.444 1.444 0 00-1.439-1.336c-.025 0-.049 0-.074.002h.004c-.775.037-1.369.707-1.369 1.482v1.578c0 .775.594 1.443 1.369 1.482l.07.002c.76 0 1.383-.586 1.439-1.332l.002-.006v-.008a.098.098 0 00-.096-.098h-.58-.002a.097.097 0 00-.094.084.675.675 0 01-.76.584h.004a.691.691 0 01-.586-.682v-1.623-.012c0-.342.252-.627.582-.68h.004zM21.666 16.381c.41-.188.689-.594.691-1.064v-.355c0-.646-.523-1.168-1.168-1.168h-1.631a.096.096 0 00-.096.096v4.23c0 .053.043.096.096.096h.576a.096.096 0 00.096-.096v-1.635h.637l.762 1.674a.095.095 0 00.088.057h.633a.096.096 0 00.096-.096.078.078 0 00-.01-.041l.002.002zm-.078-1.065a.401.401 0 01-.4.398h-.947V14.56h.947c.221 0 .398.18.398.398zM25.711 13.791h-2.5a.096.096 0 00-.096.096v4.232c0 .053.043.096.096.096h2.5a.096.096 0 00.096-.096v-.578a.096.096 0 00-.096-.096h-1.826v-1.154h1.25a.096.096 0 00.096-.096v-.576a.096.096 0 00-.096-.096h-1.25v-.963h1.826a.096.096 0 00.096-.096v-.576a.096.096 0 00-.096-.096zM29.365 13.791h-.576a.096.096 0 00-.096.096v2.207a.674.674 0 01-1.348 0v-2.207a.096.096 0 00-.096-.096h-.576a.096.096 0 00-.096.096v2.178l-.002.029a1.443 1.443 0 102.886 0c0-.01 0-.02-.002-.029v-2.178a.096.096 0 00-.096-.096zM30.326 13.791h.578c.053 0 .096.043.096.096v3.463a.096.096 0 01-.096.096h-.578a.096.096 0 01-.096-.096v-3.463c0-.053.043-.096.096-.096z"/></svg>