<svg xmlns="http://www.w3.org/2000/svg" width="100%" height="100%" viewBox="-3.2 -3.2 38.4 38.4"><path d="M19.974 10.995l7.25-7.349 2.073 2.104-7.25 7.349-2.078-2.104zm-2.938 7.515c-.688 0-1.344-.276-1.823-.771s-.745-1.156-.745-1.844c0-1.443 1.146-2.615 2.563-2.615 1.422 0 2.573 1.172 2.573 2.615 0 .688-.266 1.349-.75 1.844a2.549 2.549 0 01-1.818.771zm12.292 7.594l-2.073 2.104-7.25-7.354 2.078-2.099zm-12.213 1.099c1.417 0 2.818-.276 4.125-.818l3.542 3.594A15.572 15.572 0 0117.115 32C8.396 32 1.334 24.839 1.334 16S8.402 0 17.115 0c2.755 0 5.349.719 7.599 1.979l-3.479 3.536a10.756 10.756 0 00-4.12-.818c-6.104 0-11.052 5.042-11.052 11.255s4.948 11.25 11.052 11.25z"/></svg>