<svg xmlns="http://www.w3.org/2000/svg" width="100%" height="100%" viewBox="-51.2 -51.2 614.4 614.4"><path fill="var(--ci-primary-color, currentColor)" d="M472 16H160a24.027 24.027 0 00-24 24v312a24.027 24.027 0 0024 24h312a24.027 24.027 0 0024-24V40a24.027 24.027 0 00-24-24zm-8 328H168V48h296z" class="ci-primary"/><path fill="var(--ci-primary-color, currentColor)" d="M344 464H48V168h56v-32H40a24.027 24.027 0 00-24 24v312a24.027 24.027 0 0024 24h312a24.027 24.027 0 0024-24v-64h-32z" class="ci-primary"/></svg>