<svg xmlns="http://www.w3.org/2000/svg" width="100%" height="100%" viewBox="-3.2 -3.2 38.4 38.4"><path d="M4.735 8.547c0-1.599.973-3.041 2.505-3.735a4.677 4.677 0 014.681.521l3.36-3.136a9.676 9.676 0 00-10.989-.891 8.297 8.297 0 00-3.932 9.6 9.104 9.104 0 008.801 6.187h3.437v-4.4H9.161c-2.443-.027-4.427-1.881-4.427-4.163zm18.01 6.308h-3.439v4.4h3.439c2.443 0 4.427 1.865 4.427 4.131 0 2.297-1.984 4.136-4.427 4.136-2.439 0-4.428-1.828-4.428-4.109V8.532c0-2.104-.839-4.145-2.344-5.719l-3.359 3.161c.625.709.973 1.625.973 2.573v14.855c0 4.719 4.105 8.547 9.157 8.547 5.067 0 9.161-3.828 9.161-8.547s-4.095-8.547-9.161-8.547z"/></svg>