<svg xmlns="http://www.w3.org/2000/svg" width="100%" height="100%" viewBox="-3.2 -3.2 38.4 38.4"><path d="M30.088 12.073c.328-.636.6-1.5.313-2.38-.333-1.021-1.256-1.704-2.735-2.016l-9.407-2L8.66.541C8.556.484 7.624 0 6.597 0c-.76 0-1.416.265-1.896.76-.448.469-.719 1.115-.801 1.928-.089-.005-.177-.011-.265-.011-1.453 0-2.199.609-2.568 1.12C.488 4.588.42 5.656.848 6.973l3.531 10.824.339 9.38c.057 1.625.959 3.38 2.797 3.38.348 0 .713-.068 1.093-.197.437.739 1.224 1.64 2.484 1.64.885 0 1.767-.473 2.609-1.416l6.813-7.6 9.041-5.708c.197-.125 1.927-1.265 1.864-2.973-.025-.855-.484-1.6-1.333-2.229zM9.86 26.885l-3.105-9.511-.416-11.796 11.099 2.364 9.027 4.828-7.505 8.369zm17.312-16.869c.724.151.943.369.959.416.025.084-.027.261-.115.459l-2.167-1.156zM6.599 2.391c.36 0 .813.193.937.255l2.319 1.24-3.595-.765c.021-.427.109-.647.161-.699.016-.015.084-.031.177-.031zM3.12 6.235c-.26-.797-.125-1.032-.12-1.037.027-.031.219-.129.636-.129.109 0 .208.005.291.015l.147 4.068zm3.984 20.853l-.036-1.061.681 2.099c-.072.02-.156.036-.233.041-.199 0-.391-.667-.412-1.079zm4.817 1.896c-.552.62-.823.625-.828.625-.077 0-.244-.177-.4-.421l2.427-1.532zm16.366-13.729l-1.927 1.219 2.26-2.52c.328.229.416.396.416.437.005.177-.385.625-.749.864z"/></svg>