<svg xmlns="http://www.w3.org/2000/svg" width="100%" height="100%" viewBox="-3.2 -3.2 38.4 38.4"><path d="M27.912 7.289L17.588 1.328C17.133 1.06 16.586.903 16 .903s-1.133.158-1.604.433l.015-.008L4.087 7.289a3.19 3.19 0 00-1.588 2.75v11.922a3.187 3.187 0 001.574 2.742l.016.008 10.322 5.961a3.147 3.147 0 001.59.425c.584 0 1.131-.158 1.602-.433l-.014.008 10.322-5.961a3.19 3.19 0 001.588-2.75V10.039a3.184 3.184 0 00-1.573-2.742zm-.529 14.672c0 .389-.211.73-.526.914l-.004.002-10.324 5.961a1.058 1.058 0 01-1.065-.003l.005.002-10.324-5.961a1.058 1.058 0 01-.529-.916V10.038c0-.389.211-.73.526-.914l.004-.002L15.47 3.161a1.065 1.065 0 011.065.001l-.006-.002 10.324 5.961c.319.185.529.527.529.916z"/><path d="M22.094 19.451h-.758a1.04 1.04 0 00-.515.135l.006-.004-4.574 2.512-5.282-3.049v-6.082l5.282-3.051 4.576 2.504c.146.082.323.131.508.131h.758a.53.53 0 00.529-.531V11.3a.53.53 0 00-.271-.463l-.004-.002-5.078-2.777a2.12 2.12 0 00-2.085.029l.01-.006-5.281 3.049a2.133 2.133 0 00-1.059 1.834v6.082c0 .779.422 1.461 1.049 1.828l.009.006 5.281 3.049a2.128 2.128 0 002.088.019l-.012.006 5.08-2.787a.528.528 0 00.276-.465v-.716a.53.53 0 00-.529-.529z"/></svg>