<svg xmlns="http://www.w3.org/2000/svg" width="100%" height="100%" viewBox="-51.2 -51.2 614.4 614.4"><path fill="var(--ci-primary-color, currentColor)" d="M245.151 168a88 88 0 1088 88 88.1 88.1 0 00-88-88zm0 144a56 56 0 1156-56 56.063 56.063 0 01-56 56z" class="ci-primary"/><path fill="var(--ci-primary-color, currentColor)" d="M464.7 322.319l-31.77-26.153a193.081 193.081 0 000-80.332l31.77-26.153a19.941 19.941 0 004.606-25.439l-32.612-56.483a19.936 19.936 0 00-24.337-8.73l-38.561 14.447a192.038 192.038 0 00-69.54-40.192l-6.766-40.571A19.936 19.936 0 00277.762 16H212.54a19.937 19.937 0 00-19.728 16.712l-6.762 40.572a192.03 192.03 0 00-69.54 40.192L77.945 99.027a19.937 19.937 0 00-24.334 8.731L21 164.245a19.94 19.94 0 004.61 25.438l31.767 26.151a193.081 193.081 0 000 80.332l-31.77 26.153A19.942 19.942 0 0021 347.758l32.612 56.483a19.937 19.937 0 0024.337 8.73l38.562-14.447a192.03 192.03 0 0069.54 40.192l6.762 40.571A19.937 19.937 0 00212.54 496h65.222a19.936 19.936 0 0019.728-16.712l6.763-40.572a192.038 192.038 0 0069.54-40.192l38.564 14.449a19.938 19.938 0 0024.334-8.731l32.609-56.487a19.939 19.939 0 00-4.6-25.436zm-50.636 57.12l-48.109-18.024-7.285 7.334a159.955 159.955 0 01-72.625 41.973l-10 2.636L267.6 464h-44.89l-8.442-50.642-10-2.636a159.955 159.955 0 01-72.625-41.973l-7.285-7.334-48.117 18.024L53.8 340.562l39.629-32.624-2.7-9.973a160.9 160.9 0 010-83.93l2.7-9.972L53.8 171.439l22.446-38.878 48.109 18.024 7.285-7.334a159.955 159.955 0 0172.625-41.973l10-2.636L222.706 48H267.6l8.442 50.642 10 2.636a159.955 159.955 0 0172.625 41.973l7.285 7.334 48.109-18.024 22.447 38.877-39.629 32.625 2.7 9.972a160.9 160.9 0 010 83.93l-2.7 9.973 39.629 32.623z" class="ci-primary"/></svg>