<svg xmlns="http://www.w3.org/2000/svg" width="100%" height="100%" viewBox="-3.2 -3.2 38.4 38.4"><path d="M3.912 17.959A14.072 14.072 0 017.421 7.495a14.089 14.089 0 019.98-4.708A14.073 14.073 0 0127.702 6.73a14.045 14.045 0 014.297 10.161V16c0-8.839-7.161-16-16-16s-16 7.161-16 16 7.161 16 16 16h1.068c-7.385-.521-13.115-6.645-13.156-14.041zm21.687.708c-5.749.021-7.183-7.984-1.776-9.959a10.509 10.509 0 00-5.156-1.239A11.202 11.202 0 008.318 14.38a11.202 11.202 0 0014.636 14.636 11.204 11.204 0 006.911-10.349 8.396 8.396 0 00-.176-2.136 4.55 4.55 0 01-4.089 2.136z"/></svg>