<svg xmlns="http://www.w3.org/2000/svg" width="100%" height="100%" viewBox="-3.2 -3.2 38.4 38.4"><path d="M0 16v16h32V0H0zm17.593-8.251l1.557 4.688 3.005.005c1.651.011 3.885.027 4.969.052l1.963.036-3.957 2.871c-2.172 1.572-3.969 2.905-3.985 2.948-.015.047.647 2.172 1.475 4.719.823 2.557 1.495 4.651 1.484 4.656-.005.016-1.797-1.26-3.979-2.823-2.183-1.573-4-2.865-4.043-2.88-.041-.016-1.885 1.26-4.093 2.848-2.208 1.579-4.025 2.871-4.031 2.855-.005-.005.661-2.099 1.484-4.656.828-2.547 1.489-4.672 1.475-4.719-.016-.043-1.813-1.376-3.985-2.948L2.973 12.53l1.964-.036c1.079-.025 3.317-.041 4.969-.052l3.005-.005 1.557-4.688a918.61 918.61 0 011.561-4.687c.005 0 .704 2.109 1.563 4.687z"/></svg>