<svg xmlns="http://www.w3.org/2000/svg" width="100%" height="100%" viewBox="-3.2 -3.2 38.4 38.4"><path d="M18.061 11.1c0-.911-.783-1.022-1.522-1.022l-2.172-.016v3.85h.911v-1.394h1c1.022 0 .806.572.822 1.394h.922v-.75c0-.511-.083-.839-.611-1.022.411-.167.656-.594.65-1.039zm-1.633.628h-1.15v-.85h1.167c.283 0 .594.056.594.411 0 .367-.294.439-.611.439zM15.5 16.7h-2.928l-1.167 1.266-1.139-1.266H6.572l-.006 3.85H10.2l1.183-1.278 1.133 1.278h1.789l.006-1.294c1.05 0 2.739.255 2.739-1.294 0-.961-.683-1.261-1.55-1.261zm-5.767 3.039H7.478v-.767h2.016v-.783H7.478v-.694h2.317l.994 1.122zm3.656.455l-1.406-1.561 1.406-1.522zm2.1-1.722h-1.178v-.978h1.194c.311 0 .567.128.567.467 0 .355-.256.511-.583.511zm-1.756-7.594v-.811H10.65v3.85h3.083v-.794h-2.161v-.767h2.1v-.783h-2.1v-.694zM32 15.967h-.011zm-10.811 1.772c0-.911-.783-1.039-1.505-1.039h-2.189l-.005 3.85h.922l.006-1.405h.978c.611 0 .822.111.822.766l-.005.639h.922l.006-.766c0-.495-.1-.839-.611-1.022.428-.172.656-.6.661-1.022zm-1.622.622h-1.15v-.867h1.167c.283 0 .594.056.594.411 0 .383-.3.456-.611.456zm-9.6-4.444v-3.85H8.434L7.34 12.678l-1.206-2.611H4.629v3.65l-1.561-3.65H1.707l-1.65 3.85h.994l.356-.85h1.917l.355.85h1.878v-3.011l1.333 3.011h.811l1.333-3.011v3.011zm-8.234-1.65l.622-1.533.639 1.533zm26.523 8.827v-.25c-.6.311-.217.25-8.706.25 0-1.4.006-1.328 0-1.4-.094-.006-.178-.006-.522-.006 0 .995-.006.378-.006 1.406h-2.2c0-.672.005-.85.005-1.622-.556.333-1.266.355-1.905.344 0 .817-.006.461-.006 1.278h-2.717c-.283-.317-.15-.172-.856-.967-.178.194-.711.772-.894.967H5.893v-5.128h4.617c.278.311.156.172.861.956.178-.194.678-.745.872-.956h3.222c.545 0 1 .106 1.35.311v-.311c3.017 0 3.572-.078 4.206.283v-.283h4.345v.289c.633-.383 1.089-.289 3.605-.289v.278c.572-.328.922-.289 3.017-.278V6.222a2.668 2.668 0 00-2.667-2.667H2.654A2.668 2.668 0 00-.013 6.222v6.1L1.27 9.327h2.206c.239.561.089.206.5 1.172V9.327h2.556c.161.345.617 1.333.772 1.667.322-.755.561-1.328.7-1.667h5.722c0-.005.639 0 .644 0 2.428.011 2.978-.044 3.578.294v-.294h2.217v.517c.422-.339.994-.517 1.706-.517h1.533c0 .028.105.017.128.017h1.8c.233.544.145.333.489 1.145V9.344h2.406c.272.444-.056-.1.622 1.022V9.344h2.217v5.111h-2.311c-.3-.5-.078-.122-.734-1.217v1.217h-2.933c-.356-.822-.006-.017-.367-.85h-1.056c-.233.556-.122.289-.355.85h-1.489c-.683 0-1.239-.167-1.65-.494v.494h-3.694c-.017-.772-.006-1.378-.006-1.378-.1-.016-.189-.011-.544-.011v1.395H8.399v-.633c-.139.311-.15.328-.283.633H6.477c-.222-.495-.161-.356-.283-.633v.633H3.255c-.234-.561-.122-.294-.356-.85H1.832c-.233.556-.122.289-.355.85H-.001v11.317a2.668 2.668 0 002.667 2.667h26.672a2.668 2.668 0 002.667-2.667v-5.022c-.706.461-1.817.339-3.75.339zm2.016-3.583h1.672V16.7h-1.828c-.711 0-1.322.366-1.322 1.15 0 1.833 2.372.711 2.372 1.522 0 .283-.239.356-.467.356h-1.778l-.006.822h1.778c.467 0 .978-.1 1.25-.494v-1.433c-.583-.767-2.183-.072-2.183-.75 0-.322.256-.361.511-.361zm-3.167 2.211h-1.789l-.005.822H27.1c.822 0 1.456-.311 1.456-1.222 0-1.844-2.383-.622-2.383-1.461 0-.311.272-.355.511-.355h1.689v-.811h-1.844c-.711 0-1.306.367-1.306 1.15 0 1.833 2.372.694 2.372 1.522-.005.3-.261.355-.489.355zm-2.344-2.228V16.7h-3.067l-.006 3.85h3.067l.005-.794-2.144-.017v-.767h2.105v-.783h-2.1v-.694zm-3.128-6.005c-.016.011-.078.122-.078.422 0 .333.05.428.061.439.011.005.061.028.189.028l.406-.939c-.061 0-.117-.005-.172-.005-.311 0-.389.039-.406.056zm1.134-.583h-.006zm-.9-.845c-1.306 0-1.889.667-1.889 1.961 0 1.234.567 1.889 1.833 1.889h1.067l.355-.85h1.906l.367.85h1.872v-2.883l1.733 2.883h1.311v-3.833h-.939v2.672l-1.616-2.672h-1.406v3.633l-1.55-3.633h-1.378l-1.306 3.028h-.411c-.739 0-.894-.45-.894-1.105 0-1.322.872-1.111 1.839-1.094v-.844zm2.339.672l.622 1.533h-1.266zm-5.617-.666v3.85h.939v-3.85z"/></svg>