<svg xmlns="http://www.w3.org/2000/svg" width="100%" height="100%" viewBox="-3.2 -3.2 38.4 38.4"><path d="M23.953 19.469v-7.036h1.625v5.604h2.854v1.427h-4.479zm-13.047-4.386l3.974-3.057c.375.302.745.609 1.12.917l-3.771 2.854.818.714 3.766-2.958 1.125.922c-1.25.99-2.51 1.974-3.771 2.953l.813.714 3.776-3.057-.005-2.651h1.63v5.604h2.958v1.427h-4.484v-2.646c-1.328 1.016-2.651 2.036-3.974 3.052l-3.974-3.052c-.193.969-.87 1.813-1.75 2.255-.38.198-.797.323-1.219.37-.245.031-.49.021-.734.021H4.688v-7.031h2.901c.755.01 1.49.271 2.083.745a3.632 3.632 0 011.234 1.906zm-4.687-1.224v4.281H7.49a1.848 1.848 0 001.38-.698 2.327 2.327 0 00.245-2.521A2.003 2.003 0 007.813 13.9c-.224-.052-.453-.042-.677-.042zM15.76 0h.448c2.516.031 4.984.661 7.208 1.828a16.143 16.143 0 015.5 4.745 15.91 15.91 0 013.083 9.188v.479a15.974 15.974 0 01-4.313 10.714 15.98 15.98 0 01-11.443 5.047h-.484a15.942 15.942 0 01-5.526-1.073A16.12 16.12 0 01.764 20.897a16.062 16.062 0 01-.766-4.656v-.479c.052-3.036.974-6 2.656-8.526a16.215 16.215 0 016.281-5.563A15.775 15.775 0 0115.758.001zm-.203 1.641a14.291 14.291 0 00-8.573 3.167 14.342 14.342 0 00-4.427 6.099 14.488 14.488 0 00.255 10.823 14.418 14.418 0 004.729 5.896 14.218 14.218 0 006.38 2.594c1.943.281 3.943.167 5.839-.344a14.354 14.354 0 0010.344-11.125 14.5 14.5 0 00-.161-6.24 14.359 14.359 0 00-9.464-10.172 14.354 14.354 0 00-4.922-.698z"/></svg>