<svg xmlns="http://www.w3.org/2000/svg" width="100%" height="100%" viewBox="-51.2 -51.2 614.4 614.4"><circle cx="221.912" cy="66.088" r="34.088" fill="var(--ci-primary-color, currentColor)" class="ci-primary"/><path fill="var(--ci-primary-color, currentColor)" d="M460.12 360.478l-47.943 11.985L393 282.971A24.126 24.126 0 00369.533 264h-88.705l-6.462-56H384v-32H270.674l-4.134-35.826a24 24 0 00-26.593-21.091l-39.736 4.585L220.1 296h142.97l24.758 115.537 80.057-20.015z" class="ci-primary"/><path fill="var(--ci-primary-color, currentColor)" d="M224 448a120 120 0 01-45.248-231.135l-3.779-32.75C115.143 204.558 72 261.334 72 328c0 83.813 68.187 152 152 152a152.06 152.06 0 00130.044-73.378L344 360c-16 48-61.4 88-120 88z" class="ci-primary"/></svg>