<svg xmlns="http://www.w3.org/2000/svg" width="100%" height="100%" viewBox="-3.2 -3.2 38.4 38.4"><path d="M14.859 0h5.234v24.219c-2.682.51-4.656.714-6.797.714-6.385 0-9.714-2.885-9.714-8.427 0-5.333 3.531-8.797 9-8.797.849 0 1.495.068 2.276.271zm0 12.193a5.225 5.225 0 00-1.766-.276c-2.651 0-4.177 1.63-4.177 4.49 0 2.786 1.458 4.313 4.146 4.313.578 0 1.052-.031 1.797-.135v-8.396zm13.558-4.115v12.13c0 4.177-.302 6.188-1.219 7.917-.849 1.667-1.974 2.719-4.281 3.875l-4.859-2.313c2.307-1.089 3.432-2.036 4.146-3.5.745-1.495.984-3.229.984-7.781V8.078zM23.188.026h5.229v5.37h-5.229z"/></svg>