<svg xmlns="http://www.w3.org/2000/svg" width="100%" height="100%" viewBox="-51.2 -51.2 614.4 614.4"><path fill="var(--ci-primary-color, currentColor)" d="M227.313 363.313L312 278.627l84.687 84.686 22.626-22.626L334.627 256l84.686-84.687-22.626-22.626L312 233.373l-84.687-84.686-22.626 22.626L289.373 256l-84.686 84.687 22.626 22.626z" class="ci-primary"/><path fill="var(--ci-primary-color, currentColor)" d="M472 64H194.644a24.091 24.091 0 00-17.42 7.492L16 241.623v28.754l161.224 170.131a24.091 24.091 0 0017.42 7.492H472a24.028 24.028 0 0024-24V88a24.028 24.028 0 00-24-24zm-8 352H198.084L48 257.623v-3.246L198.084 96H464z" class="ci-primary"/></svg>