<svg xmlns="http://www.w3.org/2000/svg" width="100%" height="100%" viewBox="-3.2 -3.2 38.4 38.4"><path d="M26.964 0c1.875 0 3.385 1.516 3.474 3.302V32l-3.568-3.031-1.958-1.781-2.141-1.865.891 2.938H4.948c-1.87 0-3.385-1.417-3.385-3.302V3.308c0-1.786 1.516-3.302 3.391-3.302h22zm-8.157 7.578h-.042l-.271.266c2.766.802 4.104 2.052 4.104 2.052-1.781-.891-3.391-1.339-4.995-1.521-1.156-.177-2.318-.083-3.297 0h-.271c-.625 0-1.958.271-3.745.984-.62.271-.979.448-.979.448s1.333-1.339 4.281-2.052l-.182-.177s-2.229-.089-4.635 1.693c0 0-2.406 4.193-2.406 9.359 0 0 1.333 2.318 4.99 2.406 0 0 .536-.708 1.073-1.333-2.052-.625-2.854-1.875-2.854-1.875s.182.089.448.266h.078c.042 0 .063.021.083.042v.01c.021.021.042.036.078.036.443.182.88.359 1.24.536.625.266 1.422.536 2.401.714 1.24.182 2.661.266 4.281 0 .797-.182 1.599-.354 2.401-.714.516-.266 1.156-.531 1.859-.984 0 0-.797 1.25-2.938 1.875.438.62 1.057 1.333 1.057 1.333 3.661-.083 5.083-2.401 5.161-2.302 0-5.161-2.422-9.359-2.422-9.359-2.177-1.62-4.219-1.682-4.578-1.682l.073-.026zm.224 5.886c.938 0 1.693.797 1.693 1.776 0 .99-.76 1.786-1.693 1.786-.938 0-1.693-.797-1.693-1.776 0-.99.76-1.786 1.693-1.786zm-6.057 0c.932 0 1.688.797 1.688 1.776 0 .99-.76 1.786-1.693 1.786-.938 0-1.698-.797-1.698-1.776 0-.99.76-1.786 1.698-1.786z"/></svg>