<svg xmlns="http://www.w3.org/2000/svg" width="100%" height="100%" viewBox="-3.2 -3.2 38.4 38.4"><path d="M4.719 0C2.886 0 2.214.677 2.214 2.505v22.083c0 .209.011.401.027.579.047.401.047.792.421 1.229.036.052.412.328.412.328.203.099.343.172.572.265l11.115 4.656c.573.261.819.371 1.235.355h.005c.421.016.667-.093 1.24-.355l11.109-4.656c.235-.093.369-.167.577-.265 0 0 .376-.287.412-.328.375-.437.375-.828.421-1.229.016-.177.027-.369.027-.573V2.506c0-1.828-.677-2.505-2.505-2.505zm17.808 4.145h.905c1.511 0 2.251.735 2.251 2.267v2.505H23.85V6.51c0-.489-.224-.713-.699-.713h-.312c-.489 0-.713.224-.713.713v7.749c0 .489.224.713.713.713h.349c.468 0 .692-.224.692-.713v-2.771h1.833v2.86c0 1.525-.749 2.276-2.265 2.276h-.921c-1.521 0-2.267-.756-2.267-2.276V6.425c0-1.525.745-2.281 2.267-2.281zm-16.251.106h4.151v1.703H8.14v3.468h2.204v1.699H8.14v3.697h2.319v1.704H6.276zm5.088 0h2.928c1.515 0 2.265.755 2.265 2.28v3.261c0 1.525-.751 2.276-2.265 2.276h-1.057v4.453h-1.871zm6.037 0h1.864v12.271h-1.864zm-4.172 1.65v4.52H14c.469 0 .693-.228.693-.719V6.619c0-.489-.224-.719-.693-.719zM8.088 19.437h.276l.063.011h.1l.052.016h.052l.047.015.052.011.041.011.093.021.053.015.036.011.041.016.052.016.036.015.053.021.047.021.041.025.047.021.036.025.053.027.041.025.041.021.041.031.043.027.036.031.125.095-.032.041-.036.036-.032.037-.036.041-.025.036-.032.037-.036.036-.032.041-.025.036-.037.043-.031.036-.036.041-.032.037-.025.041-.037.036-.031.043-.036.036-.032.036-.036-.025-.041-.037-.043-.025-.077-.052-.047-.027-.043-.025-.047-.027-.036-.021-.041-.02-.084-.032-.052-.009-.041-.011-.047-.011-.053-.011-.052-.005h-.052l-.061-.011h-.1l-.052.005h-.052l-.052.016-.041.011-.047.016-.047.009-.043.021-.052.021-.072.052-.043.025-.036.032-.036.025-.037.032-.025.036-.043.036-.052.073-.025.041-.021.047-.025.037-.027.047-.016.047-.02.041-.016.052-.005.052-.015.048-.011.052v.052l-.005.052v.12l.005.052v.041l.005.052.009.047.016.041.005.053.016.041.015.036.021.052.027.052.02.037.052.083.032.041.025.037.043.031.025.036.036.032.084.063.036.02.041.027.048.021.052.02.036.021.104.031.047.005.052.016.052.005h.224l.063-.005h.047l.053-.021.052-.005.052-.015.041-.011.047-.021.041-.02.047-.021.032-.021.041-.025v-.464h-.735v-.744h1.661v1.667l-.036.025-.036.031-.037.027-.041.031-.041.021-.036.032-.084.052-.052.025-.083.052-.053.021-.041.02-.047.021-.104.041-.041.021-.095.031-.047.011-.047.016-.052.016-.041.009-.156.032-.048.005-.104.011-.057.005-.052.004-.057.005h-.26l-.052-.009h-.052l-.052-.011h-.047l-.052-.016-.152-.031-.041-.016-.047-.005-.052-.021-.095-.031-.093-.041-.052-.021-.036-.021-.052-.02-.037-.032-.052-.02-.031-.027-.041-.025-.084-.063-.041-.027-.032-.031-.041-.032-.068-.067-.036-.032-.031-.036-.037-.037-.025-.041-.032-.031-.025-.043-.032-.041-.025-.036-.027-.041-.025-.048-.021-.041-.021-.047-.02-.041-.041-.095-.016-.036-.021-.047-.011-.047-.009-.041-.011-.052-.016-.048-.011-.052-.005-.041-.009-.052-.011-.093-.011-.104v-.276l.011-.053v-.052l.016-.052v-.052l.015-.047.016-.052.021-.093.015-.052.016-.047.063-.141.02-.041.021-.047.027-.048.02-.041.027-.036.052-.084.031-.041.032-.036.025-.041.068-.068.031-.037.037-.036.031-.036.043-.032.072-.063.041-.031.043-.027.036-.031.041-.027.043-.02.047-.027.052-.025.036-.027.052-.02.047-.021.047-.025.043-.011.052-.016.041-.021.047-.009.047-.016.052-.011.043-.016.052-.011h.052l.047-.015h.052L8 19.444h.047zm15.985.011h.276l.063.011h.099l.052.015h.057l.052.016.093.021.052.011.047.009.053.016.047.016.041.011.047.015.052.016.041.021.052.02.048.021.047.027.036.02.047.027.047.02.043.027.047.031.036.027.084.063.041.025-.032.041-.025.043-.031.036-.032.041-.025.047-.027.043-.031.036-.032.041-.025.043-.032.041-.025.036-.032.041-.025.048-.032.041-.031.036-.032.041-.025.043-.041-.032-.048-.025-.036-.027-.041-.025-.047-.021-.043-.027-.047-.02-.036-.021-.052-.02-.037-.021-.041-.016-.093-.031-.104-.032-.156-.031-.052-.005-.095-.011h-.109l-.057.011-.052.011-.047.011-.041.02-.037.021-.041.036-.031.047-.021.048v.124l.027.057.02.032.032.031.052.027.041.025.047.021.052.02.068.016.036.016.043.011.052.011.041.015.047.011.057.016.052.016.057.015.057.011.047.016.057.015.052.011.047.011.157.047.041.016.052.016.047.02.052.027.104.041.047.027.084.052.077.057.048.031.036.036.036.043.037.036.025.036.037.052.025.037.021.052.02.031.016.052.016.043.011.047.02.104.005.052.005.047v.125l-.005.057-.011.104-.011.052-.015.047-.011.052-.016.052-.015.047-.021.037-.021.047-.025.041-.032.037-.052.083-.063.073-.036.025-.041.037-.032.031-.041.031-.041.021-.041.032-.048.025-.093.047-.052.021-.047.02-.052.016-.047.016-.043.011-.104.02-.036.011-.052.011h-.052l-.047.011h-.052l-.052.011h-.371l-.156-.016-.052-.011-.047-.005-.104-.02-.057-.011-.047-.011-.052-.016-.053-.011-.047-.015-.052-.016-.052-.021-.041-.015-.052-.016-.052-.021-.037-.02-.052-.016-.041-.027-.052-.02-.041-.027-.037-.025-.052-.027-.036-.02-.041-.032-.041-.025-.043-.032-.036-.031-.041-.032-.037-.025-.041-.037.032-.041.036-.036.031-.037.037-.041.025-.036.032-.041.036-.037.031-.036.037-.041.025-.037.037-.036.031-.041.032-.037.036-.041.025-.036.037-.037.036-.041.036.032.048.031.036.031.052.027.036.027.047.031.043.027.047.02.036.027.047.015.052.021.043.021.047.015.041.021.052.016.047.015.052.016.052.005.048.016.052.005h.057l.047.015h.281l.047-.009.052-.011.036-.005.043-.016.036-.02.047-.032.027-.036.02-.041.016-.048v-.12l-.021-.047-.025-.041-.032-.031-.047-.032-.036-.015-.047-.021-.052-.021-.057-.025-.037-.011-.041-.011-.052-.016-.036-.009-.052-.016-.052-.005-.053-.021-.052-.005-.057-.015-.047-.011-.052-.016-.052-.011-.052-.015-.047-.016-.052-.011-.041-.016-.095-.031-.052-.021-.052-.015-.104-.043-.047-.025-.052-.027-.036-.025-.048-.027-.036-.025-.047-.027-.068-.068-.036-.031-.063-.073-.027-.036-.02-.036-.032-.048-.015-.036-.048-.125-.009-.052-.011-.047v-.047l-.011-.052v-.213l.011-.104.011-.043.009-.047.016-.041.011-.052.021-.036.02-.053.021-.041.02-.052.027-.036.036-.041.027-.043.041-.036.031-.036.032-.043.047-.036.032-.027.041-.031.083-.052.047-.027.095-.047.041-.015.047-.016.052-.021.052-.015.037-.011.047-.011.041-.011.047-.011.052-.011.104-.009.048-.005zm-12.318.036h.943l.043.095.02.041.016.052.021.047.015.041.027.047.031.095.027.047.041.093.011.041.083.188.016.047.021.043.025.047.011.047.027.052.009.047.048.093.02.037.021.052.016.052.015.036.027.052.016.043.02.052.016.036.021.052.047.093.015.047.011.048.021.047.025.041.021.052.021.047.015.041.043.095.015.047.021.047.016.047.02.041.027.048.02.047.021.041.011.052.041.093.021.043.015.047.043.093.025.052.011.041.027.053.009.036.021.052.027.052.02.036.016.052.021.043.015.052.027.036.031.104.021.037.02.052.027.041.021.052.009.047.016.041.021.047.025.043h-1.041l-.025-.043-.016-.047-.021-.047-.02-.052-.011-.041-.043-.093-.015-.043-.041-.093-.016-.041-.021-.052-.031-.095-.021-.041h-1.448l-.02.047-.016.043-.021.052-.02.047-.011.041-.021.052-.02.041-.016.047-.021.043-.02.052-.016.036-.021.052-.015.052-.021.037-.016.052h-1.031l.015-.048.043-.093.015-.052.016-.041.027-.047.02-.047.021-.043.011-.047.02-.052.027-.041.02-.047.032-.095.047-.093.016-.047.02-.041.016-.048.063-.14.021-.052.015-.041.016-.047.027-.043.02-.052.016-.047.016-.041.02-.052.027-.037.016-.052.02-.041.016-.047.021-.052.025-.041.016-.052.02-.037.016-.052.021-.052.02-.036.021-.052.016-.043.02-.052.016-.036.027-.052.02-.052.021-.041.011-.047.02-.048.027-.047.02-.041.011-.052.021-.047.021-.043.041-.093.015-.041.043-.104.02-.037.021-.052.016-.041.015-.052.021-.047.027-.041.02-.052.016-.037.016-.052.02-.041.027-.047.016-.052.015-.043.021-.052.02-.036.027-.052.016-.052.015-.036.021-.052zm2.928.027h1.031l.032.041.052.084.025.047.027.036.025.047.027.041.025.048.027.041.025.036.027.047.025.043.037.041.015.041.032.047.025.043.032.036.021.047.025.041.032.043.015.041.037.047.077.125.021.041.031.041.027.041.025.048.079.124.025.048.027.041.031-.041.021-.053.031-.036.027-.047.025-.036.021-.052.036-.037.027-.047.021-.036.025-.043.032-.047.025-.036.027-.052.025-.036.032-.048.02-.036.027-.052.025-.031.027-.043.031-.052.027-.036.02-.047.032-.037.025-.052.027-.031.031-.041.027-.052.025-.037.027-.047.025-.036.027-.052.031-.037.021-.047.027-.036h1.047v3.719h-.98V21.04l-.025.037-.032.052-.025.031-.032.041-.02.052-.032.037-.025.036-.032.052-.052.073-.031.041-.027.052-.031.037-.027.036-.02.052-.032.036-.025.037-.032.052-.025.036-.032.041-.025.047-.021.037-.031.041-.027.047-.031.036-.032.043-.02.041-.027.047-.031.037-.032.041-.02.052-.037.031-.02.041-.032.053-.025.036H16.6l-.031-.047-.027-.043-.025-.047-.027-.036-.031-.047-.027-.041-.031-.043-.027-.041-.025-.047-.027-.036-.036-.048-.021-.041-.031-.047-.027-.036-.025-.047-.032-.043-.025-.052-.032-.036-.025-.047-.027-.043-.025-.047-.032-.036-.025-.047-.032-.041-.02-.043-.032-.041-.025-.047-.032-.036-.025-.048-.032-.041-.02-.047-.037-.036-.02-.048-.032-.041v2.193h-.963v-3.683zm4.624 0h2.933v.839h-1.959v.599h1.76v.792h-1.76v.635h1.984v.844h-2.953v-3.677zm-7.094 1.14l-.016.047-.015.043-.021.052-.021.047-.015.047-.043.093-.02.052-.016.043-.016.052-.02.036-.016.052-.021.052-.02.037-.016.052-.02.041-.016.052-.027.047-.011.041-.02.052-.021.048-.016.041-.02.052h.859l-.02-.052-.016-.047-.041-.095-.016-.047-.021-.041-.015-.052-.021-.047-.016-.047-.02-.043-.016-.047-.021-.052-.015-.041-.043-.093-.009-.048-.021-.047-.021-.052-.015-.036-.043-.104-.015-.047zm-1.53 6.964h10.681l-5.452 1.797z"/></svg>