<svg xmlns="http://www.w3.org/2000/svg" width="100%" height="100%" viewBox="-3.2 -3.2 38.4 38.4"><path d="M31.995 6.245c0-2.772-2.235-5.032-4.968-5.032H4.959c-2.74 0-4.964 2.26-4.964 5.041v10.048c0 .447.057.891.177 1.328.041.176.093.353.161.52a5.297 5.297 0 001.563 2.125c.683.697 1.563 1.459 2.62 2.276l.14.099.584.443.692.532c1.584 1.213 4.271 3.271 8.219 6.276.647.489 1.385.901 1.844.901s1.203-.412 1.844-.901c3.948-3.005 6.631-5.063 8.219-6.276l1.297-.989h-.005l.145-.115c1.068-.813 1.953-1.584 2.625-2.276a5.099 5.099 0 001.536-2.105 5.399 5.399 0 00.339-1.833V6.771zm-5.522 8.323a9.147 9.147 0 00-.375-.057c-.14 0-.301-.021-.443-.021a2.472 2.472 0 00-1.077.219 1.825 1.825 0 00-.719.584c-.183.26-.308.552-.387.859a4.86 4.86 0 00-.119 1.079v3.844h-6.704l-4.973-7.448-2.079 2.104v5.297H5.972V4.532h3.62v6.844l6.443-6.839h4.527l-6.437 6.516 6.885 9.724v-8.24h2.219v1.579h.025c.115-.26.261-.511.443-.735.193-.224.401-.411.647-.573.24-.14.5-.276.771-.359.271-.079.563-.12.855-.12.151 0 .317.041.504.084z"/></svg>