<svg xmlns="http://www.w3.org/2000/svg" width="100%" height="100%" viewBox="-51.2 -51.2 614.4 614.4"><path fill="var(--ci-primary-color, currentColor)" d="M402.034 206.447l-67.528 65.278-3.046-14.231-.044-.2a63.447 63.447 0 00-59.129-49.282l-.329-.014h-67.184l18.846-87.688A31.451 31.451 0 01252.549 96h47.637V64h-48l-.659.014A63.452 63.452 0 00192.4 113.3L172.044 208H88v32h77.166l-32.6 151.688A31.451 31.451 0 01103.637 416H56v32h48.329l.329-.014a63.452 63.452 0 0059.13-49.282L197.9 240h73.369a31.453 31.453 0 0128.925 24.3l7.2 33.639L193.531 408h46.042l75.711-73.187 5.07 23.693.043.2a63.449 63.449 0 0059.13 49.282L432 408v-32h-51.451a31.452 31.452 0 01-28.927-24.3l-9.222-43.1 105.676-102.153z" class="ci-primary"/></svg>