<svg xmlns="http://www.w3.org/2000/svg" width="100%" height="100%" viewBox="-51.2 -51.2 614.4 614.4"><path fill="var(--ci-primary-color, currentColor)" d="M296 40h32v32h-32zM368 40h32v32h-32zM296 440h32v32h-32zM368 440h32v32h-32zM440 40h32v32h-32zM440 105.454h32v33.454h-32zM440 172.363h32v33.454h-32zM440 373.091h32v33.454h-32zM440 239.272h32v33.454h-32zM440 306.182h32v33.454h-32zM440 440h32v32h-32zM40 456a16 16 0 0016 16h168v24h32V16h-32v24H56a16 16 0 00-16 16zM72 72h152v368H72z" class="ci-primary"/></svg>