<svg xmlns="http://www.w3.org/2000/svg" width="100%" height="100%" viewBox="-51.2 -51.2 614.4 614.4"><path fill="var(--ci-primary-color, currentColor)" d="M64 496h336v-32H64a16.019 16.019 0 01-16-16V120H16v328a48.055 48.055 0 0048 48zM464 368h32v32h-32z" class="ci-primary"/><path fill="var(--ci-primary-color, currentColor)" d="M173.091 368h29.091v32h-29.091zM405.818 368h29.091v32h-29.091zM231.272 368h29.091v32h-29.091zM289.455 368h29.091v32h-29.091zM347.637 368h29.091v32h-29.091zM112 368h32v32h-32zM112 135.272h32v29.091h-32zM112 77.091h32v29.091h-32zM112 309.818h32v29.091h-32zM112 251.637h32v29.091h-32zM112 193.455h32v29.091h-32zM112 16h32v32h-32zM289.454 16h29.091v32h-29.091zM231.272 16h29.091v32h-29.091zM405.818 16h29.091v32h-29.091zM173.091 16h29.091v32h-29.091zM347.637 16h29.091v32h-29.091zM464 16h32v32h-32zM464 309.818h32v29.091h-32zM464 77.091h32v29.091h-32zM464 193.454h32v29.091h-32zM464 135.272h32v29.091h-32zM464 251.637h32v29.091h-32z" class="ci-primary"/></svg>