<svg xmlns="http://www.w3.org/2000/svg" width="100%" height="100%" viewBox="-51.2 -51.2 614.4 614.4"><path fill="var(--ci-primary-color, currentColor)" d="M474.183 120H360V40h-32v80H200v32h17.92l6.154 48H112a80.091 80.091 0 00-80 80v16h280v-16a79.508 79.508 0 00-8-34.846 80.248 80.248 0 00-47.155-41.185L250.183 152h187.634l-35.9 280H32v32h398.08l40-312H496v-32zM277.258 264H66.742A48.083 48.083 0 01112 232h120a48.083 48.083 0 0145.258 32z" class="ci-primary"/><path fill="var(--ci-primary-color, currentColor)" d="M304 352h8v-32H32v32h272zM304 408h8v-32H32v32h272z" class="ci-primary"/></svg>