<svg xmlns="http://www.w3.org/2000/svg" width="100%" height="100%" viewBox="-51.2 -51.2 614.4 614.4"><path fill="var(--ci-primary-color, currentColor)" d="M256 16C123.452 16 16 123.452 16 256s107.452 240 240 240 240-107.452 240-240S388.548 16 256 16zm147.078 387.078a207.253 207.253 0 1144.589-66.125 207.332 207.332 0 01-44.589 66.125z" class="ci-primary"/><path fill="var(--ci-primary-color, currentColor)" d="M128 192h40v40h-40zM336 192h40v40h-40zM232 306.948a5.049 5.049 0 01.194-1.387L264 194.241V168h-32v21.759l-30.574 107.009A37.052 37.052 0 00237.052 344H296v-32h-58.948a5.057 5.057 0 01-5.052-5.052z" class="ci-primary"/></svg>