<svg xmlns="http://www.w3.org/2000/svg" width="100%" height="100%" viewBox="-3.2 -3.2 38.4 38.4"><path d="M31.907 3.921A47.937 47.937 0 002.255 3.12 2.957 2.957 0 00.094 6.787c.532 2.135 1.308 4.588 2.24 6.812.016.052.041.027.041-.025-.135-1.043.667-2.36 2.24-2.839a36.71 36.71 0 0123.188.307 2.188 2.188 0 002.796-1.416c.932-3 1.308-5.037 1.401-5.547.016-.095-.068-.131-.093-.157zm-23.043 6.6c-1.145.239-2.728.615-3.916 1.009-2.375.819-2.265 3.709-1 4.631.093-.536.667-1.265 1.307-1.511 2.371-.932 4.917-1.489 7.491-1.719-1.308-.531-2.584-1.292-3.865-2.411zm18.907 5.786a28.206 28.206 0 00-21.932-.869c-1.131.427-1.839 1.803-1.131 3.109a50.85 50.85 0 004.199 6.401c-.224-.776.172-2.213 1.692-2.683 4.204-1.292 8.615-.744 11.547.443.828.333 2 .131 2.657-.853a53.047 53.047 0 003.052-5.36c.041-.083 0-.145-.084-.188zm-6.812 10.36a13.164 13.164 0 01-3.333-2.401c-.453-.453-1.12-1.104-1.823-1.88-1.605 0-3.163.161-4.829.693-1.547.484-1.692 2.271-1.015 3.203 1.145 1.427 1.948 2.197 3.229 3.521a3.655 3.655 0 005.093.025c1-1 1.615-1.667 2.745-2.948.067-.068.041-.187-.068-.213z"/></svg>