<svg xmlns="http://www.w3.org/2000/svg" width="100%" height="100%" viewBox="-51.2 -51.2 614.4 614.4"><path fill="var(--ci-primary-color, currentColor)" d="M16 464h480v32H16zM455.688 152.164c-23.388-6.515-48.252-6.053-70.008 1.3l-.894.3-65.1 30.94-189.981-75.528a47.719 47.719 0 00-49.771 8.862L54.5 140.836a24 24 0 002.145 37.452l117.767 83.458-45.173 23.663-35.775-32.687a48.067 48.067 0 00-51.47-8.6l-19.455 8.435a24 24 0 00-11.642 33.3l72.821 136.827L480.3 227.21c23.746-11.177 26.641-29.045 21.419-42.059-5.788-14.428-22.568-26.451-46.031-32.987zm10.9 46.133l-.149.07-369.045 181.9-54.176-101.8 11.5-4.987a16.021 16.021 0 0117.157 2.867l52.336 47.819 111.329-58.318L83.322 157.974l17.971-16.108a15.908 15.908 0 0116.59-2.954l202.943 80.681 75.95-36.095c15.456-5.009 33.863-5.165 50.662-.413 13.834 3.914 21.182 9.6 23.672 12.582a24.211 24.211 0 01-4.52 2.633z" class="ci-primary"/></svg>