<svg xmlns="http://www.w3.org/2000/svg" width="100%" height="100%" viewBox="-51.2 -51.2 614.4 614.4"><path fill="var(--ci-primary-color, currentColor)" d="M148.492 332.884l122.084-126.386 23.015 22.232-122.083 126.387z" class="ci-primary"/><path fill="var(--ci-primary-color, currentColor)" d="M330.409 282.426A80 80 0 00217.22 169.341l-74.908 74.908A121.268 121.268 0 0156 280h-8v32h8a153.052 153.052 0 00108.94-45.125l74.907-74.907a48 48 0 0167.883 67.883l-68.209 69.395A136.994 136.994 0 00200 425.832V464h32v-38.168a105.179 105.179 0 0130.342-74.155z" class="ci-primary"/><path fill="var(--ci-primary-color, currentColor)" d="M397.139 328.853c-19.869 21.6-82.507 85-83.138 85.633l-.1.1a12.1 12.1 0 11-17.362-16.87l79.154-81.381a135.935 135.935 0 00-.081-192.253c-53.027-53.025-139.307-53.025-192.333 0l-61.4 63.3C89.791 216 78.35 216 48 216v32c36.545 0 55.876-1.578 95.628-37.139l.423-.378 61.938-63.852a104 104 0 01147 147.16L273.6 375.407a44.1 44.1 0 0063.207 61.528c3.185-3.223 63.734-64.51 83.885-86.42C455.612 312.546 480 260.521 480 224h-32c0 28.249-21.866 73.326-50.861 104.853z" class="ci-primary"/><path fill="var(--ci-primary-color, currentColor)" d="M425.12 77.5C389.951 43.5 345.8 24 304 24v32c33.582 0 69.622 16.221 98.88 44.5C431.133 127.815 448 162.019 448 192h32c0-39.055-20-80.79-54.88-114.5zM132.955 137.39C155.02 106.949 191.951 56 272 56V24c-96.376 0-140.988 61.545-164.955 94.61C90.759 141.078 71.446 152 48 152v32c33.476 0 62.853-16.117 84.955-46.61zM80 336H48v32h32a56.064 56.064 0 0156 56v40h32v-40a88.1 88.1 0 00-88-88z" class="ci-primary"/></svg>