<svg xmlns="http://www.w3.org/2000/svg" width="100%" height="100%" viewBox="-51.2 -51.2 614.4 614.4"><path fill="var(--ci-primary-color, currentColor)" d="M459.26 96L328 225.697V96h-34.55l-64.44 65.128 22.628 22.628L296 138.92v89.198l37.314 37.315L464 136.303v259.815l32 32V96h-36.74zM168 16H83.882L168 100.118V16zM136 304h32v32h-32zM136 376h32v32h-32zM216 304h32v32h-32zM216 376h32v32h-32zM296 376h32v32h-32z" class="ci-primary"/><path fill="var(--ci-primary-color, currentColor)" d="M38.627 16H16v480h480v-22.627zM48 464V70.627l88 88V248h32v-57.373L441.373 464z" class="ci-primary"/></svg>