<svg xmlns="http://www.w3.org/2000/svg" width="100%" height="100%" viewBox="-51.2 -51.2 614.4 614.4"><path fill="var(--ci-primary-color, currentColor)" d="M488.671 221.645a23.848 23.848 0 00-18.917-9.231h-66.2V160a23.138 23.138 0 00-23.112-23.111h-136.3L226.37 94.22A23.051 23.051 0 00205.037 80H39.111A23.138 23.138 0 0016 103.111v364.445h420.707l56.33-225.321a23.849 23.849 0 00-4.366-20.59zM48 435.556V112h151.111l23.7 56.889h148.745v43.525H137.587a23.965 23.965 0 00-23.287 18.179L63.063 435.556zm363.723 0H96.048l47.785-191.142h315.675z" class="ci-primary"/></svg>