<svg xmlns="http://www.w3.org/2000/svg" width="100%" height="100%" viewBox="-51.2 -51.2 614.4 614.4"><path fill="var(--ci-primary-color, currentColor)" d="M376 16H136a48.054 48.054 0 00-48 48v400a32.036 32.036 0 0032 32h272a32.036 32.036 0 0032-32V64a48.054 48.054 0 00-48-48zm16 448H120V240h272zm0-256H120V64a16.019 16.019 0 0116-16h240a16.019 16.019 0 0116 16z" class="ci-primary"/><path fill="var(--ci-primary-color, currentColor)" d="M144 280h32v96h-32zM144 104h32v64h-32z" class="ci-primary"/></svg>