<svg xmlns="http://www.w3.org/2000/svg" width="100%" height="100%" viewBox="-3.2 -3.2 38.4 38.4"><path d="M4.422 27.115C7.49 30.313 11.406 32 16.016 32c5.318 0 10.318-2.599 13.302-6.885C31.125 22.516 32 19.573 32 16.11c0-.646-.042-1.344-.083-2.036H14.125v6.146h8.917c-1.536 2.682-4.125 4.156-7.026 4.156-4.307 0-8.167-3.76-8.167-8.661 0-4.417 3.599-8.089 8.167-8.089 2.458 0 4.474.995 6.417 2.984h8.693C28.626 4.027 22.782.001 16.11.001c-4.427 0-8.292 1.563-11.37 4.547C1.667 7.532 0 11.428 0 15.673c-.01 4.557 1.479 8.359 4.422 11.443z"/></svg>