<svg xmlns="http://www.w3.org/2000/svg" width="100%" height="100%" viewBox="-51.2 -51.2 614.4 614.4"><path fill="var(--ci-primary-color, currentColor)" d="M368 168h-96v-64h176a24.027 24.027 0 0024-24V16h-32v56H264a24.027 24.027 0 00-24 24v72h-96A128.145 128.145 0 0016 296v100.953A91.15 91.15 0 00107.047 488h1.8a90.807 90.807 0 0069.953-32.76L231.5 392h48.628l52.666 68.465A91.046 91.046 0 00496 404.953V296a128.145 128.145 0 00-128-128zm96 236.953a59.047 59.047 0 01-105.849 36L295.878 360h-79.372l-62.294 74.754A58.893 58.893 0 01108.85 456h-1.8A59.113 59.113 0 0148 396.953V296a96.108 96.108 0 0196-96h224a96.108 96.108 0 0196 96z" class="ci-primary"/><path fill="var(--ci-primary-color, currentColor)" d="M360 248h32v32h-32zM360 328h32v32h-32zM320 288h32v32h-32zM400 288h32v32h-32zM152 248h-32v40H80v32h40v40h32v-40h40v-32h-40v-40z" class="ci-primary"/></svg>