<svg xmlns="http://www.w3.org/2000/svg" width="100%" height="100%" viewBox="-3.2 -3.2 38.4 38.4"><path d="M6.76 18.578a.823.823 0 00-.688.448c-.156.281-.521.323-.693.271-.281-.094-.641-.161-.99.089-.354.25-.729.063-.661-.396.068-.453.229-.859.667-1.109.953-.542.286-.922.807-1.474.526-.552.411-.719.391-1.469-1.766-.266-2.771-.776-3.885-2.172C.588 11.37.156 10.219.041 8.464c-.12-1.755-.016-2.891.74-4.344.76-1.453 1.557-2.151 2.938-2.88S6.453.339 7.703.36c1.255.021 2.089.109 2.792.516.708.406 1.354.911 1.766.911.323.021.635-.068.896-.255.057 1.359-1.167 1.479-2.26 1.505-1.094.031-1.766-.422-2.776-.255-1.005.172-2.656.63-3.458 2.026-.802 1.401-.833 1.896-.766 3.068s1.078 2.047 1.646 2.057c.573.01.698-.156 1.198-.479.5-.328 3.047-3.479 3.911-4.188.87-.708 1.729-.927 2.656-.938s1.161.021 1.906.328c.75.302 1.208.87 1.813 1.214.302-.182.5-.453.776-.661 1.016-.734 1.536-.938 2.74-.823.688.073 1.557.464 2.078.917.922.807 1.688 1.922 2.302 2.771.484.667 1.047 1.458 1.859 1.703.875.271 1.542-.87 1.641-1.505.057-.359.125-.672.125-1.068s-.036-.875-.151-1.286a4.717 4.717 0 00-.521-1.156c-.344-.557-.906-1.135-1.49-1.432-.328-.167-1.099-.469-1.589-.479-.599-.016-1.052.188-1.604.224-.667.047-1.859.193-2.38-.318-.333-.328-.375-.552-.432-.974.146.12.354.198.536.214.417.036.807-.302 1.146-.505.281-.161.672-.453 1.036-.599.938-.38 2.089-.37 3.078-.266.797.078 1.828.432 2.521.828.703.396 1.375 1.063 1.87 1.693.62.792.958 1.469 1.182 2.458.286 1.26.37 3.151.021 4.396-.276.979-1.182 2.484-1.958 3.219-.76.729-1.646 1.083-2.646 1.276.042.198.042.385.094.552.078.24.219.5.505.417.115-.031.182-.063.328.073.156.135.078.646-.354.88-.219.115-.443.141-.792.151a7.269 7.269 0 01-1.271-.063c-.375-.063-.599-.365-1.021-.411-.646-.073-1.141-.542-1.661-.875-.214-.135-.286-.135-.411-.208.068.203.156.417.203.62.042.193.026.38.047.536.026.161.068.281.094.411.104.094.135.234.313.276.172.047.443-.021.62-.047.182-.026.302-.12.438-.094.141.026.276.13.391.219.12.094.219.109.313.339.094.24.182.719.193 1.036.016.323-.021.609-.115.865s-.182.365-.438.62c-.255.25-.677.62-1.094.88.078.109.109.214.234.339.12.125.365.26.474.391.115.13.172.224.172.37a.773.773 0 01-.125.5c-.297.396-.641.469-1.068.656.073.443.13.76.026 1.208-.042.182-.135.594-.359.698s-.656.052-.932.099c-.271.042-.427.083-.641.125-.13.188-.318.396-.385.563-.068.172-.047.229.01.401.052.172.245.417.297.625.052.198.068.411.016.615s-.156.385-.307.531c-.172.177-.51.318-.677.458-.167.151-.339.167-.292.406.063.328.547.859.896.99.245.073.51.052.74-.052-.016.276-.26.469-.417.656.427-.125.844-.359 1.135-.672-.089.271-.396.708-.859 1.089-.458.38-.458.307-.688.458.417.083.807.063 1.13.005a2.402 2.402 0 01-1.823.198c-.349-.083-.667-.401-1.089-.62.042.161.073.349.25.51.182.156.443.245.729.375-.359-.036-.745-.047-1.099-.125-.266-.063-.443-.125-.635-.219s-.339-.234-.51-.354c.078.156.104.344.245.469.135.13.365.182.547.266-.188-.005-.375.042-.573-.01a1.544 1.544 0 01-.589-.281c-.214-.156-.417-.333-.594-.526s-.396-.443-.464-.62c-.063-.177.042-.297.063-.448-.12.078-.271.125-.365.24s-.177.219-.135.422c.042.203.229.453.365.677-.396-.323-.615-.448-.708-.833-.089-.365.135-.693.307-.969.089-.135.219-.266.297-.396-.182-.172-.38-.323-.531-.521s-.219-.469-.37-.656c-.156-.188-.37-.307-.547-.464.156.344.422.766.479 1.026.057.266-.068.432-.161.578-.094.141-.245.177-.391.26-.146.089-.37.021-.453.151-.089.13-.109.328-.031.458l.344.531a1.671 1.671 0 01-.438-.375c-.099-.13-.245-.25-.266-.422s-.031-.328.083-.484c.115-.156.427-.208.563-.328.141-.12.219-.198.208-.349-.005-.156-.156-.266-.286-.365-.401-.302-.906-.573-1.245-.932a1.237 1.237 0 01-.318-.505c-.042-.141 0-.25.094-.422s.417-.406.458-.589c.042-.188-.125-.229-.271-.297-.151-.063-.432.036-.568-.078s.042-.354-.115-.49c-.156-.13-.51-.057-.693-.198a.974.974 0 01-.318-.526 1.101 1.101 0 01-.031-.583c.042-.151.172-.177.25-.255.078-.073.146-.135.042-.255-.099-.115-.443.005-.635-.141-.198-.146-.078-.505-.219-.656-.135-.146-.38-.089-.516-.141-.125-.047-.177.12-.255-.146-.083-.26-.083-1.063-.193-1.359-.104-.297-.318-.021-.411-.313-.104-.297-.005-.766-.052-1.214l-.198-1.208c-.698.469-1.156.615-1.906.745-.063 1.833-.234 2.911.391 4.943.62 2.026 1.875 3.224 3.573 4.943-2.24-1.677-3.307-3.042-3.974-4.786-.672-1.75-.542-3.208-.479-4.885zm11.896-.739c.172.01.38.052.5.13.12.083.25.146.359.25.276.286.479.62.573 1.005.057.25.063.563.083.854-.083-.266-.135-.547-.255-.786-.188-.38-.5-.75-.896-.917a.447.447 0 00-.286-.036c.031.057.083.099.089.177 0 .078-.016.234-.151.297-.214.104-.453.031-.62-.115a.554.554 0 01-.135-.609c.104-.26.5-.26.74-.25zm-2.161-.365c.021-.443.177-.813.578-1.026.245-.141.521-.24.802-.286.276-.036.953-.01 1.359.177.307.135.521.359.797.521.271.161.464.271.724.453.401.281.635.583.911.766.135.089.318.078.5.13-.141.042-.318.089-.469.042a2.087 2.087 0 01-.583-.354 3.96 3.96 0 00-.661-.479c-.167-.094-.438-.208-.625-.328-.177-.12-.49-.375-.667-.464a2.163 2.163 0 00-.865-.167c-.344.01-.839.068-1.099.302-.26.245-.359.448-.302.755.099-.109.167-.255.26-.339.203-.177.438-.182.693-.151.286.036.432.203.526.474-.063-.042-.182-.146-.271-.182a.659.659 0 00-.583.057c-.24.135-.177.323-.208.531-.016.099-.052.177-.078.266a.565.565 0 01-.245-.13c.005.099-.01.188.01.297s.073.245.115.365c-.172-.167-.344-.323-.448-.536a1.392 1.392 0 01-.172-.693zm.291-3.198c.12-.182.156-.458.229-.688-.026.286.031.604-.109.813s-.391.172-.589.234c.156-.12.344-.177.469-.359zm-2.942 4.271c.156-.13.583-.026.901-.005l-.688.177c-.021.083-.01.167-.063.234s-.151.089-.229.141c.01-.208-.083-.417.078-.547zm2.245-8.87c.188.099.427.24.599.24.161.005.208-.104.307-.172.151.505.333 1.063.599 1.521.109.193.177.104.266.297.083.193.12.589.198.839.078.245.182.427.276.641-.229-.333-.531-.755-.667-1.031-.13-.276-.047-.297-.151-.557-.104-.266-.318-.672-.479-1.01-.115.016-.25.036-.339.01-.083-.031-.073-.125-.151-.182s-.208-.036-.318-.13c-.109-.094-.135-.292-.141-.464zm-1.026 2.5c.182-.016.401.031.568.021.167-.005.286-.052.432-.078-.026-.25 0-.714-.234-.885-.151-.104-.771-.026-.932.01-.375.078-.807.302-1.167.438.344-.24.641-.464 1.057-.583.25-.073.828-.172 1.083-.104.12.031.141.083.214.182.24.339.24.63.302 1.031.063.094.13.156.182.255.052.125.083.255.089.385-.063-.089-.021-.203-.198-.271-.177-.073-.448-.01-.688.016.172.13.26.25.266.51.01.313-.255.536-.531.557-.38.031-.578-.052-.729-.38-.068-.141-.021-.313-.026-.453-.458.031-.453.016-.786.297.182.266.297.417.599.578.167.089.359.177.568.214s.552.073.776.036a.82.82 0 00.505-.25c.161-.146.177-.365.24-.536a1.547 1.547 0 01-.094.495c-.188.359-.505.469-.891.469-.365 0-.818-.083-1.161-.224-.276-.115-.729-.432-.833-.714-.078-.188-.016-.422-.026-.635.38-.25.474-.188.922-.26.188-.036.318-.104.495-.12zm-2.204-1.703c.005-.156.026-.151.036-.224-.344-.094-.479.13-.682.547-.078.156 0 .25-.083.349-.078.104-.214.089-.344.188s-.26.286-.385.391c-.25.208-.594.333-.891.474.203-.146.594-.37.719-.583.068-.115.057-.328.161-.432.104-.099.141-.172.271-.198.135-.026.083-.182.125-.307.042-.12.13-.208.219-.333.094-.125.208-.307.391-.375.177-.068.464.005.599-.031.135-.042.057-.141.156-.203.099-.057.292-.031.427-.094.234-.115.349-.302.49-.505.021.438.016.75-.141 1.161-.177.458-.354.734-.854 1.016-.172.099-.344.13-.49.182.083-.115.203-.161.25-.339.047-.182.016-.536.026-.682zm8.079 2.12c-.24.021-.292-.016-.484.12l.307.484c-.005-.318.026-.38.177-.604zm-.62-.229c.328-.135.615-.25.974-.276.141-.01.365.01.51.021.125-.182.281-.323.339-.531.036-.141.021-.781-.052-.948-.193-.479-.385-.5-.656-.776-.198-.203-.203-.51-.266-.854-.021-.125-.083-.281-.109-.411a5.293 5.293 0 00-1.146-.063c.198-.188.391-.359.448-.646a1.3 1.3 0 00-.151-.891c-.161-.255-.422-.479-.661-.688-.234-.208-.578-.38-.802-.552.292-.099.594-.255.88-.313.745-.141 1.391.078 2.109.516.422.25.766.49 1.203.953.438.458.979 1.297 1.406 1.797.422.5.766.891 1.135 1.193.37.297.708.385 1.057.573l.552.583.443-.552.714.083.151-.802.651-.182-.104-1.083.474-.333-.359-.672.359-.74-.469-.839.182-.807-.542-.469-.073-.859-.76-.286-.302-.75-.854-.01-.417-.557-.578.042-.635-.073-.359-.26-.531.344-.635-.328-1.26.479.823-.719.854-.135.651-.167.885.286.776-.193.75.443.797-.042.391.698.786.089.427.776.495.271.135.995.443.422-.198.87.521.661-.484.703.521.443-.667.589.677.708-.818.266.531.755-.672.12.438.828-.75-.01.38.62-.828-.099.198.896-.625-.547-.208 1.083-.432-.776-.234.969-.526-.714.016 1.021-.589-.917c.12.521.099 1.089.438 1.578 1.063-.141 1.75-.411 2.563-1.188.734-.714 1.62-2.193 1.859-3.135.271-1.068.281-3.042.01-4.135-.255-1.047-.594-1.552-1.193-2.406-.573-.609-1.135-1.255-1.865-1.688C27.387.976 26.022.804 24.804.82a4.39 4.39 0 00-1.531.286c-.703.255-1.266.818-1.984 1.094-.234.089-.417.089-.604-.005.182.359.375.521.828.651.323.094 1.099.036 1.635-.016.573-.052.87-.224 1.651-.214.76.016 1.365.302 1.693.49.682.391 1.172.823 1.599 1.51.229.375.396.797.51 1.229s.161.917.172 1.344c.01.422-.026.802-.13 1.182-.24.891-.776 1.802-1.875 1.661-.672-.083-1.682-1.349-2.026-1.813-.688-.932-1.391-1.969-2.25-2.745a3.453 3.453 0 00-1.948-.865c-1.323-.12-1.719.13-2.714.953.203.063.401.099.609.193.458.208.88.479 1.25.823.385.359.557.589.573 1.104.01.344-.271.62-.531.865-.156.151-.37.292-.495.411-.172.156-.38.328-.167.573.078.094.219.167.333.255.188.135.104.646-.141.786a.817.817 0 01-.953-.083c.328-.042.536-.089.526-.359 0-.151-.198-.281-.396-.37-.464-.214-.818-.182-1.281-.516-.474-.339-.479-.526-.609-1.052-.224.021-.432.026-.74.125-.302.099-.635.339-.911.401-.693.146-.828.104-1.208.01-.667-.177-1.536.12-2.401.396-.141.047-.724 0-1.115.135A7.343 7.343 0 008.23 10.4c-.74.625-1.714 2.49-2.266 4.635-.057.651.13 1.089-.281 1.406-.411.323-.401 1.135-.542 1.365-.135.229-.297.125-.599.448-.297.323-.448.271-.443.875.26-.167.635-.365.969-.38.292-.01.292.375 1.047-.365.401-.401 1.172-.411 1.708-.589.536-.172 1.5-.536 2.469-1.615.964-1.078 1.427-2.219 1.615-3.859.026.286.078.615-.042 1.417-.13.807-.396 1.708.172 2.792l.349.672c-.208-.286-.62-.75-.745-1.083l-.281-.771c-.641 1-.786 1.182-1.672 1.896-.036.448-.047.911.099 1.339s-.083.917.026 1.198c.109.281.365.12.448.406.089.281-.042.844.089 1.12s.448.109.604.203c.151.089.203.208.286.328.083.115-.031.396.135.484s.427.016.604.099c.172.089.198.297.161.484-.047.188-.229.271-.313.464a.484.484 0 00.026.495c.099.177.318.271.531.359.219.089.526.036.75.161.224.12.427.365.542.542a.71.71 0 01.146.484 1.424 1.424 0 01-.182.578c-.099.177-.318.396.026.74.339.339.328.193.526.417-.026-.385-.182-.693-.068-.984.12-.292.464-.344.646-.469.188-.135.292-.313.432-.464 0 .198.021.411 0 .557-.047.302-.135.578.318.625.203.021.396-.109.609-.188-.109.198-.307.359-.339.599-.036.26.026.526.177.745.161.24.453.417.661.557.214.141.328.151.49.229.005.234-.042.484-.016.708s.099.422.229.604c.13.188.333.292.531.427-.109-.25-.323-.484-.323-.745.005-.266.083-.448.339-.682s.849-.432 1.13-.656a1.37 1.37 0 00.474-.583c.099-.219.073-.573.094-.771.094.276.104.365.135.651s-.167.693-.25.906c.302-.141.547-.391.677-.698.078.047.042.167.068.401.125-.125.266-.219.391-.333.125-.12.26-.219.323-.385.063-.161.036-.333-.01-.521-.047-.193-.255-.411-.37-.62-.115-.203.021-.406.01-.656-.224-.036-.417-.156-.682-.115-.255.036-.557.328-.828.333-.26 0-.417-.25-.635-.318s-.438-.057-.661-.094c.281-.266 1.365-.391 2.104-.51a12.967 12.967 0 011.958-.177c.297-.01.677.089.88.031.203-.063.161-.198.219-.354.172-.422.089-.802-.005-1.229-.589-.073-1.208-.156-1.807-.109-.583.042-1.276.323-1.88.339-.521.021-1.297-.099-1.745-.375-.552-.333-.979-1.052-1.13-1.286-.245-.375-.552-1.115-.745-1.448-.188-.339-.229-.432-.385-.573s-.37-.151-.557-.229c.214.021.448-.047.641.063.297.172.62.865.802 1.172.193-.651.151-.901.708-1.271-.448.505-.464.891-.573 1.484.375.609.896 1.589 1.573 1.859.25.099.672.161.938.193.828.104 1.625-.156 2.438-.359.589-.146 1.193-.089 1.917-.047.245.016.818-.13.943-.375a.462.462 0 00-.031-.443c-.094-.141-.344-.208-.474-.339-.135-.13-.208-.281-.318-.417a8.457 8.457 0 01-1.411.151c.292-.12.573-.188.88-.307.313-.13.615-.292.901-.474.245-.167.401-.26.583-.448.177-.193.406-.385.536-.615.135-.234.151-.495.161-.781.005-.286-.005-.688-.12-.922-.109-.229-.323-.297-.495-.349-.167-.057-.286.083-.464.099-.182.021-.344.13-.604.01a2.325 2.325 0 01-.823-.734c-.26-.365-.448-.964-.714-1.422-.453-.797-1.026-1.536-1.568-2.271-.047-.182-.115-.432-.141-.677-.036-.432-.042-.875.089-1.292.099-.323.25-.661.583-.792a.621.621 0 01.422-.026c.12.042.24.177.193.333-.052.172-.172.177-.25.266a.86.86 0 00-.245.438c.146-.005.349-.016.469.021.161.036.307.146.391.37-.193-.167-.286-.245-.521-.25-.109-.005-.245.036-.359.052-.047.146-.073.328-.135.443-.068.109-.188.083-.234.214a1.258 1.258 0 00-.026.521zm1.656-.198a.588.588 0 01.193.104c.094.073.219.141.292.307.063.172.078.354.057.536-.068-.021-.151-.01-.219-.068s-.104-.182-.193-.24c-.083-.057-.156-.042-.25-.057.052.13.068.266.047.401-.047.271-.208.411-.469.443-.109.016-.292-.021-.391-.042.047.104.125.193.172.297.219-.031.38-.031.5-.083.115-.057.245-.182.391-.229.151-.052.286-.052.453-.078-.13.109-.214.219-.344.333l.281.833c.203.125.396.193.651.349s.557.438.891.589c.333.151.531.234.875.297.349.068.625.349.964.396a7.81 7.81 0 001.245.031c.297-.031.688-.182.724-.51-.255.057-.635.005-.828-.469-.083-.208-.047-.594-.177-.839-.13-.25-.313-.328-.531-.635-.219-.302-.573-.786-.776-1.193-.198-.411-.25-.87-.417-1.24-.167-.365-.422-.656-.625-.943-.432-.615-.781-1.036-1.495-1.349-.344-.146-.734-.188-1.094-.281-.151.068-.359.135-.396.313a.714.714 0 00.161.563c.208.219.526.458.646.807.083.224.104.969.036 1.177-.073.214-.24.339-.375.479zm.068 1.776c-.068.057-.115.115-.224.161-.104.047-.25.057-.391.094.198.307.406.62.594.948.193.323.354.677.536 1.016-.01-.193 0-.401-.026-.583-.026-.177-.109-.339-.193-.615-.083-.271-.182-.646-.297-1.021zm-5.334-6.787c-.026.302.026.776.089 1.078.073.354.146.536.438.75.526.396.859.328 1.271.557.193.104.438.286.51.479.068.193-.047.401-.198.484.26.036.547-.255.427-.547-.063-.146-.339-.214-.427-.365a.56.56 0 01-.047-.448c.073-.266.609-.516.797-.724.292-.333.401-.604.24-1.026-.229-.594-1.125-1.073-1.656-1.307-.245-.109-.385-.115-.573-.172.391.229.802.411 1 .922.161.427.021.589.026.958.005.177.229.26.333.37.083.094.078.167.01.297a.339.339 0 00-.151-.266c-.146-.109-.313-.083-.391-.302-.12-.328.12-.646-.151-1.016-.198-.276-.469-.589-.833-.594-.161 0-.323.021-.479.078l-.245-.297h-.005c-.495-.453-.833-.828-1.531-1.141-.693-.307-1.036-.359-1.839-.339-.792.016-1.583.083-2.51.88-.922.797-3.307 3.849-3.885 4.234-.573.385-.703.521-1.422.521-.724 0-1.849-1.021-1.896-2.297-.042-1.276-.057-1.729.828-3.266s2.49-2.01 3.682-2.167c1.193-.161 1.911.255 2.792.26.88 0 1.75-.151 2.01-.849-.125.073-.297.156-.771.13-.474-.021-1.13-.573-1.87-.938-.74-.37-1.557-.411-2.615-.432-1.052-.021-2.37.063-3.672.766-1.307.698-2.193 1.448-2.953 2.828-.755 1.375-.87 2.5-.745 4.167.12 1.667.635 2.911 1.625 4.13S3.9 14.37 5.687 14.594l.375-1.656-.672.958.021-1.068-.609.75-.266-1.021-.49.818-.245-1.135-.714.573.224-.938-.943.104.432-.656-.859.01.5-.875-.76-.12.609-.797-.932-.271.771-.74-.766-.625.599-.464-.563-.745.599-.693-.224-.917.505-.438.151-1.047.568-.286.49-.813.901-.099.448-.734.906.047.854-.464.891.203 1.005-.302.75.172.974.146.943.75-1.443-.5-.724.344-.604-.365-.411.281-.734.073-.656-.036-.474.578-.979.01-.344.786-.87.302-.078.906-.625.484.208.854-.536.88.411.776-.406.708.542.349-.12 1.141.75.188.167.844.818-.083.505.578.63-.615c1.141-.573 1.615-.891 2.505-1.854 1.016-1.099 1.599-2.115 2.948-2.865.969-.542 1.76-.734 2.849-.542 1.021.172 1.365.786 2.12 1.432.083-.146.094-.182.229-.292-.042.193-.109.385-.125.568z"/></svg>