<svg xmlns="http://www.w3.org/2000/svg" width="100%" height="100%" viewBox="-3.2 -3.2 38.4 38.4"><path d="M16.052 30.063c-2.13 0-3.557-2.198-2.682-4.146l-3.599-2.396c-2.484 2.594-6.557-.682-4.557-3.667 2-2.979 6.578-.448 5.115 2.828l3.604 2.401c.109-.115.229-.219.354-.313L8.516 13.223c-3.443 1.068-5.422-3.797-2.214-5.438 3.214-1.635 5.99 2.818 3.109 4.979l5.771 11.547a3.49 3.49 0 01.313-.078v-5.505c-3.182-.609-3.182-5.167 0-5.776V7.764c-3.531-.682-2.984-5.896.615-5.828s3.953 5.297.396 5.849v5.151c3.323.51 3.323 5.302 0 5.813v5.464c.109.016.219.042.323.068l5.76-11.516c-2.87-2.161-.094-6.594 3.104-4.958s1.224 6.479-2.208 5.417l-5.745 11.49c.135.094.26.198.375.313l3.484-2.37c-1.568-3.245 2.943-5.927 5.047-3 2.099 2.927-1.885 6.344-4.458 3.818l-3.484 2.37c.943 1.953-.479 4.219-2.651 4.219zM16 32C7.161 32 0 24.839 0 16c0-4.245 1.688-8.313 4.688-11.313 6.245-6.25 16.38-6.25 22.625 0 6.25 6.245 6.25 16.38 0 22.625A15.907 15.907 0 0116 32zm0-30.995C7.719 1.005 1.005 7.719 1.005 16c0 3.974 1.583 7.792 4.396 10.599 5.833 5.88 15.323 5.911 21.198.078 5.88-5.833 5.911-15.328.078-21.203A14.893 14.893 0 0016 1.005z"/></svg>