<svg xmlns="http://www.w3.org/2000/svg" width="100%" height="100%" viewBox="-3.2 -3.2 38.4 38.4"><path d="M32 13.333l-4.177 9.333h-1.292l1.552-3.266-2.75-6.068h1.359l1.99 4.651h.026l1.927-4.651zm-17.354 2.886V20h-1.313v-9.333h3.474a3.29 3.29 0 012.25.807c.615.505.953 1.219.943 1.974a2.49 2.49 0 01-.943 1.979c-.604.531-1.354.792-2.25.792zm-.005-4.401v3.255h2.198a1.82 1.82 0 001.297-.479c.339-.302.526-.714.526-1.141 0-.432-.188-.844-.526-1.141a1.799 1.799 0 00-1.297-.495zm7.989 1.515c.833 0 1.495.234 1.979.698s.724 1.099.724 1.906v3.859H24.25v-.87h-.047c-.469.714-1.089 1.073-1.865 1.073-.667 0-1.219-.203-1.667-.615a1.994 1.994 0 01-.672-1.531c0-.646.234-1.161.708-1.547.469-.38 1.099-.573 1.885-.573.672 0 1.224.13 1.656.385v-.271a1.38 1.38 0 00-.464-1.042 1.582 1.582 0 00-1.094-.427c-.63 0-1.13.276-1.5.828l-.995-.646c.547-.818 1.359-1.229 2.432-1.229zm-1.463 4.547a.941.941 0 00.375.766c.25.203.563.313.88.307.474 0 .932-.198 1.271-.547.359-.333.563-.802.563-1.292-.354-.292-.844-.438-1.474-.438-.464 0-.844.115-1.151.344-.307.234-.464.516-.464.859zM5.443 10.667a5.294 5.294 0 013.641 1.391l-1.552 1.521a2.988 2.988 0 00-2.089-.797 3.247 3.247 0 00-3.057 2.198 3.12 3.12 0 000 2.042 3.247 3.247 0 003.057 2.198c.734 0 1.365-.182 1.854-.505A2.474 2.474 0 008.38 17.09H5.442v-2.052h5.13c.063.359.094.719.094 1.083 0 1.625-.594 3-1.62 3.927-.901.813-2.135 1.286-3.604 1.286a5.451 5.451 0 01-4.865-2.938 5.253 5.253 0 010-4.792 5.45 5.45 0 014.859-2.938z"/></svg>