<svg xmlns="http://www.w3.org/2000/svg" width="100%" height="100%" viewBox="-3.2 -3.2 38.4 38.4"><path d="M7.831 11.831c-.069.625.325 1.194.325 1.194.044-.469.137-.8.25-1.037.025.644.2 1.469.8 2.131.431.475 2.225 1.456 3.431.381.063.15.131.331.188.531.181.644-.169 1.581-.169 1.581s.944-1.069.869-2.031c.675-.031 1.338-.525 1.319-1.219 0 0-1.181.65-2.219-.55-.606-.7-2.556-2.625-5.194-1.988.269.063.556.15.844.256h-.006c-.262.125-.406.444-.438.75zm1.769-.112c1.219.688 2.337 1.606 2.806 2.313-.356.206-1.356.65-2.375-.106-.644-.475-.613-1.637-.431-2.206zm8.881 2.862c-.075.969.869 2.031.869 2.031s-.35-.938-.169-1.581c.056-.2.125-.375.188-.531 1.206 1.081 3 .094 3.425-.381.6-.662.769-1.487.8-2.131.113.238.212.569.25 1.037 0 0 .4-.569.325-1.194-.037-.313-.181-.625-.438-.738h-.006c.287-.113.575-.2.844-.256-2.644-.637-4.588 1.288-5.194 1.988-1.044 1.2-2.219.55-2.219.55-.012.681.65 1.181 1.325 1.206zm3.919-2.862c.188.569.213 1.731-.438 2.212-1.018.756-2.012.313-2.369.1.469-.712 1.587-1.625 2.806-2.313zM14 26.156h-1.837c-.344 0-.513.1-.594.181-.119.125-.138.294-.056.506.219.569.713 1.031.856 1.163.194.169.469.268.738.268a.93.93 0 00.688-.287 4.708 4.708 0 00.813-1.238c.038-.094.081-.281-.056-.425-.113-.113-.294-.169-.55-.169zm11.825-6.325c-.15 1.119-.813 2.113-1.537 2.731-.194-1.419-.232-3.469-.232-3.9 0-.919.594-1.531.763-1.631.156-.094.337-.188.518-.288 1.125-.6 2.525-1.35 2.525-2.731 0-1.012-.581-1.45-.963-1.738-.05-.037-.094-.069-.137-.106-.131-.106-.231-.188-.269-.275-.275-.613-.225-2.137-.106-2.35.038-.037 1.044-1.306.738-2.45a1.674 1.674 0 00-.881-1.063c-.331-.169-.744-.262-1.219-.281-.006-.125-.031-.244-.056-.369a1.67 1.67 0 01-.056-.506c.025-.294.05-.563.137-.706.525-.831 1.8-1.1 1.813-1.1l.769-.15-.506-.594c-.006-.012-1.081-1.094-2.894-1.094-.494 0-1 .081-1.506.244-1.513.487-2.681 1.906-3.088 2.456a8.217 8.217 0 00-.6-.169c-.263-.988.563-2.406.563-2.406s-.85-.188-2.107.95c-.162-.406-.506-1.281-.112-2.325-1.844.65-2.306 1.644-2.444 2.544-.475-.337-.419-1.444-.45-1.725-.469.056-1.825 1.369-1.762 3.019-.125.031-.244.069-.369.106-.406-.55-1.569-1.969-3.087-2.456-.494-.137-1-.219-1.494-.219-1.813 0-2.881 1.081-2.893 1.094l-.506.587.769.15c.012 0 1.287.269 1.813 1.1.087.138.113.413.137.706.012.175-.025.344-.056.506-.025.119-.05.244-.056.369-.481.019-.887.113-1.219.281-.45.231-.756.6-.881 1.063-.313 1.137.7 2.406.737 2.45.119.213.169 1.738-.106 2.35-.037.087-.137.169-.269.275-.044.031-.087.069-.137.107-.381.287-.962.731-.962 1.737 0 1.381 1.4 2.131 2.525 2.732.188.1.363.194.519.287.169.1.762.713.762 1.631 0 .431-.037 2.481-.231 3.9-.725-.619-1.387-1.619-1.538-2.738 0 0-1.825 1.413-1.287 4.425.325 1.844 1.45 2.881 2.938 3.419.55 1.194 1.837 2.857 4.206 3.1.9.738 2.15 1.219 3.975 1.219h.012c1.819 0 3.069-.481 3.975-1.219 2.369-.244 3.656-1.906 4.206-3.1 1.488-.544 2.606-1.575 2.938-3.419.512-3.025-1.319-4.431-1.319-4.431zM23.106 2.356c.35-.113.725-.169 1.106-.169.688 0 1.244.188 1.544.313-.194.087-.4.2-.607.331a3.51 3.51 0 00-.575-.05c-.656 0-1.281.194-1.794.556-.769.544-1.125 1.056-1.294 1.4a4.819 4.819 0 00-.444-.231c-.1-.05-.194-.094-.294-.138.381-.569 1.244-1.656 2.356-2.012zm1.313 1.138c-.05.063-.1.131-.144.2-.206.325-.244.725-.275 1.112-.031.4-.069.781-.275 1.063-.263.05-.506.106-.719.169a4.225 4.225 0 00-.656-.7c.087-.3.344-1.006.844-1.406.35-.268.762-.419 1.225-.438zM6.85 2.831a3.672 3.672 0 00-.607-.331 4.07 4.07 0 011.544-.313c.381 0 .75.056 1.106.169 1.113.363 1.975 1.45 2.356 2.006-.1.044-.2.087-.3.137-.156.075-.306.156-.444.231-.163-.337-.519-.856-1.294-1.4a3.109 3.109 0 00-1.8-.556 4.221 4.221 0 00-.563.056zm2.794 2.506c-.306.263-.519.5-.656.7a10.501 10.501 0 00-.719-.169c-.206-.275-.238-.656-.269-1.056-.031-.387-.069-.788-.275-1.113a2.419 2.419 0 00-.144-.2c.462.019.875.163 1.219.438.5.394.756 1.1.844 1.4zM7.631 16.244c-.169-.1-.35-.194-.525-.287-.931-.5-1.887-1.019-1.887-1.906 0-.694.269-.913.556-1.137l.031-.025c.044-.037.088-.075.138-.113-.056.45-.119.831-.169.931 0 0 .756-.938.982-2.769.087-.719-.069-2.144-.319-2.688.012.306 0 .613-.019.9-.025-.05-.05-.1-.081-.137-.2-.25-.737-1.094-.587-1.662.056-.219.194-.375.419-.488.238-.119.55-.181.944-.181.769 0 1.619.231 2.056.375 1.569.5 3.463 1.931 4.006 2.357a.097.097 0 00.025.018l.35.244-.219-.363c-.012-.019-1.194-1.962-3.325-2.906.125-.181.462-.506 1.35-.944 1.338-.656 2.906-.987 4.644-.987 1.744 0 3.306.331 4.644.987.887.431 1.225.763 1.35.944-2.125.944-3.306 2.887-3.319 2.906l-.219.363.35-.244s.013-.006.025-.018c.544-.425 2.438-1.863 4.006-2.357.438-.137 1.288-.375 2.056-.375.394 0 .706.063.944.181a.782.782 0 01.419.488c.156.569-.381 1.412-.588 1.662a.59.59 0 00-.081.137 8.613 8.613 0 01-.018-.9c-.25.55-.406 1.969-.319 2.688.225 1.831.981 2.769.981 2.769-.05-.1-.113-.481-.169-.931.044.038.094.075.137.113l.031.025c.288.231.556.444.556 1.137 0 .887-.963 1.406-1.888 1.906-.181.094-.356.194-.525.287-.544.313-1.125 1.044-1.194 2.138-.056.912.056 3.119.213 4.744-.775.3-1.669.4-2.481.425a7.426 7.426 0 01-.344-.819c-.044-.125-1.225-3.194-1.65-3.887.344 2.438 1.094 4.606 1.469 5.6a5.201 5.201 0 00-.731-.044h-7.313a6.2 6.2 0 00-.731.044c.375-.994 1.131-3.163 1.469-5.6-.425.7-1.606 3.769-1.65 3.887-.1.288-.219.563-.344.819-.813-.025-1.7-.125-2.481-.425.156-1.625.269-3.825.213-4.744-.056-1.088-.644-1.825-1.188-2.138zm-1.456 9.044c-.756-1.25-.544-3.381-.231-3.694.681 2.15 2.95 2.769 4.65 2.837-.169.263-.325.475-.438.625l-.087.088c-.45.488-.538 1.156-.256 1.988-1.419-.006-2.894-.613-3.637-1.844zm2.856 2.718c.375.069.762.119 1.163.15.219.5.462.994.768 1.444-.9-.369-1.525-1-1.931-1.594zM16 31.137c-3.788-.006-4.894-2.863-5.306-4.044-.232-.656-.213-1.137.056-1.444.181-.206.594-.45 1.538-.45h7.425c.944 0 1.363.244 1.538.45.262.3.281.788.056 1.444-.412 1.175-1.518 4.038-5.306 4.044zm5.038-1.537c.306-.45.55-.944.768-1.444.4-.031.788-.081 1.163-.15-.406.594-1.031 1.225-1.931 1.594zm4.787-4.312c-.75 1.231-2.225 1.831-3.631 1.856.281-.831.194-1.506-.256-1.988a1.242 1.242 0 00-.087-.094 10.39 10.39 0 01-.438-.625c1.7-.075 3.969-.688 4.65-2.837.313.313.525 2.444-.238 3.688zm-9.831-13.557h.013c.794-.006 1.7-1.113 1.7-1.113-.619.375-1.175.506-1.706.519-.531-.012-1.087-.144-1.706-.519 0 0 .906 1.1 1.7 1.113zM19.85 26.15h-1.838c-.262 0-.45.056-.556.169-.137.143-.094.325-.056.419.063.162.344.706.813 1.206.169.181.413.281.688.281s.544-.1.738-.263c.144-.125.637-.575.856-1.131.081-.206.063-.375-.056-.494-.081-.081-.25-.181-.587-.188z"/></svg>