<svg xmlns="http://www.w3.org/2000/svg" width="100%" height="100%" viewBox="-51.2 -51.2 614.4 614.4"><path fill="var(--ci-primary-color, currentColor)" d="M378.841 342.034C339.372 327.825 287.223 320 232 320a537.769 537.769 0 00-80 5.793V211.157l152-56v-38.131l-152-71.2V16h-32v400h32v-57.834A501.048 501.048 0 01232 352c51.621 0 99.921 7.153 136 20.143C403.43 384.9 416 399.43 416 408s-12.57 23.1-48 35.857C331.921 456.847 283.621 464 232 464s-99.921-7.153-136-20.143C60.57 431.1 48 416.57 48 408c0-7.89 10.669-20.832 40-32.788v-34.176c-.952.33-1.9.661-2.841 1C28 362.612 16 389.265 16 408s12 45.388 69.159 65.966C124.628 488.175 176.777 496 232 496s107.372-7.825 146.841-22.034C436 453.388 448 426.735 448 408s-12-45.388-69.159-65.966zM152 81.163l114.586 53.675L152 177.054z" class="ci-primary"/><circle cx="432" cy="280" r="32" fill="var(--ci-primary-color, currentColor)" class="ci-primary"/></svg>