<svg xmlns="http://www.w3.org/2000/svg" width="100%" height="100%" viewBox="-3.2 -3.2 38.4 38.4"><path d="M16.802 16.849l-1.5-.073c-1.26-.042-1.599-.109-1.599-.578 0-.182.135-.427.406-.563.219.047.448.073.677.073 3.219 0 4.839-1.563 4.839-3.974 0-.401-.099-.76-.302-.979h1.281V8.073h-3.802c-.63-.151-1.193-.266-1.953-.266-3.391 0-5.073 1.964-5.073 4.24 0 1.427.672 2.453 1.677 2.99-.776.313-1.359 1.161-1.359 2.052 0 .781.427 1.406 1.078 1.719-.854.448-1.62 1.536-1.62 2.583 0 2.214 1.802 3.302 4.854 3.302 3.828 0 6.26-2.141 6.26-4.547h-.026c0-2.229-1.438-3.214-3.839-3.297zm-1.953-6.375c1.193 0 1.792.641 1.792 1.589s-.667 1.521-1.766 1.521c-1.193 0-1.792-.594-1.792-1.563 0-.906.646-1.547 1.766-1.547zm2.677 10.073c0 .839-.813 1.484-2.427 1.484-1.255 0-2-.542-2-1.339 0-.469.302-.943.802-1.328.12.021.302 0 .443.021l1.797.042c1.063.042 1.443.516 1.443 1.12zm5.99-6.073c-1.318 0-2.432 1.115-2.432 2.458a2.445 2.445 0 002.432 2.432c1.349 0 2.464-1.083 2.464-2.432 0-1.344-1.12-2.458-2.464-2.458zM16 0C7.161 0 0 7.161 0 16s7.161 16 16 16 16-7.161 16-16S24.839 0 16 0zm0 29.781C8.391 29.781 2.219 23.609 2.219 16S8.391 2.219 16 2.219c7.609 0 13.781 6.172 13.781 13.781S23.609 29.781 16 29.781z"/></svg>