<svg xmlns="http://www.w3.org/2000/svg" width="100%" height="100%" viewBox="-3.2 -3.2 38.4 38.4"><path d="M26.031 21.302V.651h-2.745v3.875h-.083a7.235 7.235 0 00-1.125-1.74c-.479-.552-1.021-1.036-1.641-1.458s-1.281-.75-2.026-.984A8.045 8.045 0 0016.052 0c-1.615 0-3.068.302-4.328.896a9.11 9.11 0 00-3.182 2.438c-.854 1.031-1.51 2.234-1.958 3.615s-.677 2.839-.677 4.375c0 1.599.188 3.104.568 4.51.38 1.411.984 2.635 1.823 3.682a8.58 8.58 0 003.167 2.448c1.281.578 2.828.88 4.63.88 1.661 0 3.104-.422 4.349-1.26 1.245-.844 2.182-1.964 2.823-3.37h.083v3.047c0 2.724-.563 4.807-1.688 6.271-1.12 1.443-2.964 2.188-5.526 2.188-.76 0-1.505-.083-2.224-.245a6.955 6.955 0 01-1.984-.76c-.583-.359-1.104-.797-1.521-1.38-.422-.583-.703-1.281-.844-2.125H6.75c.094 1.182.422 2.203.984 3.068a7.414 7.414 0 002.135 2.125 9.723 9.723 0 002.896 1.198c1.083.26 2.188.401 3.328.401 1.844 0 3.385-.26 4.646-.74 1.266-.5 2.286-1.203 3.068-2.141.802-.948 1.365-2.068 1.724-3.411s.563-2.844.563-4.49zm-9.979-.739c-1.271 0-2.375-.255-3.302-.766a6.936 6.936 0 01-2.313-2c-.62-.828-1.063-1.776-1.359-2.854a12.187 12.187 0 01-.443-3.313c0-1.161.141-2.302.401-3.417.281-1.12.719-2.115 1.323-2.984.599-.87 1.38-1.578 2.302-2.115s2.047-.807 3.349-.807 2.401.281 3.328.828a6.992 6.992 0 012.24 2.177 9.583 9.583 0 011.266 3.01c.26 1.099.38 2.208.38 3.307 0 1.135-.161 2.24-.464 3.313-.297 1.078-.76 2.026-1.38 2.854s-1.365 1.495-2.266 2c-.901.51-1.943.766-3.146.766z"/></svg>