<svg xmlns="http://www.w3.org/2000/svg" width="100%" height="100%" viewBox="-51.2 -51.2 614.4 614.4"><path fill="var(--ci-primary-color, currentColor)" d="M256 16C123.452 16 16 123.452 16 256s107.452 240 240 240 240-107.452 240-240S388.548 16 256 16zm-80.953 431.667a208.26 208.26 0 01-110.714-272.62 200.793 200.793 0 013.2-7.145L120 215.126v63.235L197.1 360H236v49.047l-47.052 43.915q-7.022-2.394-13.901-5.295zm228.031-44.589A207.253 207.253 0 01256 464a210.4 210.4 0 01-29.722-2.107L268 422.953V328h-57.1L152 265.639v-64.765l-68.3-61.466a209.259 209.259 0 0191.343-75.075A207.793 207.793 0 01371.3 82.839l-45.564 58.582 15.49 38.725-10.485 10.485-78.618-15.723L208 208v88h176l50.345 67.126a208.127 208.127 0 01-31.267 39.952zM464 256a206.763 206.763 0 01-13.873 74.837L400 264H240v-40l19.877-14.908 81.382 16.277 37.515-37.515-16.51-41.275 34.2-43.977q3.361 3.084 6.61 6.32A207.253 207.253 0 01464 256z" class="ci-primary"/></svg>