<svg xmlns="http://www.w3.org/2000/svg" width="100%" height="100%" viewBox="-3.2 -3.2 38.4 38.4"><path d="M30.578 8.546a.625.625 0 00-.827-.357.619.619 0 00-.34.789c.589 1.568.913 3.27.913 5.043 0 7.276-5.422 13.281-12.443 14.2v-6.687a8.69 8.69 0 001.243-.335v5.622c5.768-1.4 10.049-6.6 10.049-12.8 0-4.962-2.746-9.286-6.8-11.53a.621.621 0 00-.605 1.086 11.926 11.926 0 016.157 10.443c0 5.043-3.13 9.357-7.557 11.103v-4.984c.768-.243 1.346-.957 1.346-1.811a1.89 1.89 0 00-.935-1.649c.449-4.297 2.405-3.168 2.405-4.535v-.795c0-2.054-4.751-8.746-6.973-8.903a2.563 2.563 0 00-.411 0c-2.227.162-6.978 6.849-6.978 8.903v.8c0 1.368 1.962.232 2.405 4.535-.573.33-.935.941-.935 1.649a1.91 1.91 0 001.341 1.811v4.984a11.924 11.924 0 01-7.557-11.103c0-4.492 2.487-8.405 6.157-10.443a.617.617 0 00.254-.816.62.62 0 00-.859-.27 13.167 13.167 0 00-6.8 11.53c0 6.2 4.281 11.395 10.049 12.8v-5.622c.411.135.816.249 1.243.335v6.686c-7.016-.919-12.443-6.924-12.443-14.2 0-1.773.324-3.476.913-5.043a.616.616 0 00-.34-.789.62.62 0 00-.827.357 15.57 15.57 0 00-.989 5.476c0 8.384 6.627 15.222 14.935 15.557v-7.887c.368.022.811.027 1.265 0v7.881c8.308-.33 14.935-7.167 14.935-15.551 0-1.93-.351-3.773-.989-5.481zm-10.8 8.508a1.28 1.28 0 11.001 2.56 1.28 1.28 0 01-.001-2.56zm-7.556 2.557a1.28 1.28 0 11-.001-2.563 1.28 1.28 0 01.001 2.563z"/></svg>