<svg xmlns="http://www.w3.org/2000/svg" width="100%" height="100%" viewBox="-3.2 -3.2 38.4 38.4"><path d="M23.714 15.214h-1.365c0-.13-.026-.255-.068-.38a.965.965 0 00-.615-.568 1.88 1.88 0 00-1.219.026c-.333.12-.594.385-.714.724a3.101 3.101 0 00-.052 1.896c.099.359.365.651.714.781a1.99 1.99 0 001.302.036.95.95 0 00.573-.516c.073-.167.109-.344.104-.526h1.375c-.01.156-.031.313-.063.469-.12.484-.464.896-.917 1.083a4.317 4.317 0 01-3 .141c-.635-.198-1.188-.656-1.406-1.281a3.272 3.272 0 01-.177-1.052c0-.516.094-1.016.339-1.432a2.24 2.24 0 011.125-.938c1-.375 2.109-.349 3.089.083.479.208.823.63.932 1.141.021.099.036.208.042.313zm-5.303 3.25h-1.453l-.427-1.057h-2.443s-.422 1.057-.427 1.057h-1.453l2.302-4.927c0 .005 1.599 0 1.599 0zm7.308 0h-1.302s.01-4.927 0-4.927h1.302v1.974h2.635v-1.974h1.307s.005 4.917 0 4.927h-1.307v-2.167c0 .005-2.635 0-2.635 0 .005.005 0 2.161 0 2.167zm-24.412 0H0s.005-4.927 0-4.927h1.307s-.005 1.984 0 1.974h2.63c0 .005-.005-1.974 0-1.974h1.307s.005 4.917 0 4.927H3.937v-2.167c0 .005-2.63 0-2.63 0 0 .005-.005 2.167 0 2.167zm10.042 0h-1.307v-4.089H8.047s.005-.833 0-.839c.005.005 5.297 0 5.297 0v.839h-1.995zm-5.068-4.928h1.302v4.927H6.281zm24.412 0H32v4.927h-1.307zm-15.38.839l-.906 2.24h1.813z"/></svg>