<svg xmlns="http://www.w3.org/2000/svg" width="100%" height="100%" viewBox="-51.2 -51.2 614.4 614.4"><path fill="var(--ci-primary-color, currentColor)" d="M460.579 101.868L409.06 16H264.892L41.573 263.245a24 24 0 002.007 34.148A90.41 90.41 0 00173.089 286.6l18.493-22.6H216v180a52 52 0 00104 0V332.162l126.423-35.119A24.071 24.071 0 00464 273.919v-159.7a24.006 24.006 0 00-3.421-12.351zM432 267.838l-144 40V444a20 20 0 01-40 0V232h-71.582l-28.1 34.34a58.439 58.439 0 01-77.181 11.91L279.108 48H390.94L432 116.433z" class="ci-primary"/></svg>