<svg xmlns="http://www.w3.org/2000/svg" width="100%" height="100%" viewBox="-3.2 -3.2 38.4 38.4"><path d="M26.312 25.407s.141-.095.36-.261C29.948 22.61 32 18.938 32 14.855c0-7.62-7.161-13.808-15.995-13.808S0 7.235 0 14.855c0 7.619 7.161 13.807 15.995 13.807 1.131 0 2.26-.099 3.369-.307l.349-.057c2.245 1.452 5.516 2.651 8.38 2.651.891 0 1.308-.729.74-1.469-.864-1.063-2.057-2.76-2.521-4.072zm-1.948-6.032c-.952 1.423-3.911 3.849-8.337 3.849h-.063c-4.437 0-7.391-2.437-8.339-3.849a1.575 1.575 0 01-.365-.765.658.658 0 01.6-.703c.009-.005.015-.005.025-.005a.833.833 0 01.437.151 12.185 12.185 0 007.672 2.74 11.76 11.76 0 007.683-2.745.614.614 0 01.416-.161c.355 0 .636.281.647.631a1.812 1.812 0 01-.36.859z"/></svg>