<svg xmlns="http://www.w3.org/2000/svg" width="100%" height="100%" viewBox="-51.2 -51.2 614.4 614.4"><path fill="var(--ci-primary-color, currentColor)" d="M448 216h-48v-32c0-79.4-64.6-144-144-144s-144 64.6-144 144v32H64a48.055 48.055 0 00-48 48v128a48.055 48.055 0 0048 48h48a32.036 32.036 0 0032-32V184a112 112 0 01224 0v224a32.036 32.036 0 0032 32h48a48.055 48.055 0 0048-48V264a48.055 48.055 0 00-48-48zM112 408H64a16.019 16.019 0 01-16-16V264a16.019 16.019 0 0116-16h48v56h.008l.012 104zm352-16a16.019 16.019 0 01-16 16h-48V248h48a16.019 16.019 0 0116 16z" class="ci-primary"/></svg>