<svg xmlns="http://www.w3.org/2000/svg" width="100%" height="100%" viewBox="-3.2 -3.2 38.4 38.4"><path d="M16 0c1.714 0 13 6.516 13.854 8 .859 1.484.859 14.516 0 16S17.713 32 16 32c-1.714 0-13-6.516-13.859-8-.854-1.484-.854-14.516 0-16C3 6.516 14.287 0 16 0zm3.063 9.068a.344.344 0 00-.349.344v5.167h-5.427v-5.37h.932a.34.34 0 00.339-.344.347.347 0 00-.161-.292l-2.099-2.01a.386.386 0 00-.302-.146.35.35 0 00-.276.141L9.48 8.574a.343.343 0 00.183.636h.938l.01 13.38c0 .193.146.344.339.344h1.99a.343.343 0 00.344-.344v-5.339h5.432v5.536h-.932a.343.343 0 00-.183.636l2.104 2.016c.057.083.188.146.302.146s.208-.063.276-.146l2.24-2.016a.343.343 0 00.161-.292.347.347 0 00-.344-.344h-.938l-.01-13.375a.34.34 0 00-.339-.349h-1.99z"/></svg>