<svg xmlns="http://www.w3.org/2000/svg" width="100%" height="100%" viewBox="-3.2 -3.2 38.4 38.4"><path d="M11.547 1.641c-.568.005-1.234.208-1.505.313-2.255.906-3.708 4.12-2.938 7.359a26.637 26.637 0 00-.901-.37 11.194 11.194 0 00-1.932-.552c-1.13-.208-2.401-.25-3.37.63-.927.839-1.286 2.495-.365 3.464 1 1.047 3.068.854 4.359.734.135-.016.745-.057 1.333-.141a12.587 12.587 0 00-.151 2.12c-4.974 1.76-4.573 13.464 6.786 14.932 14.396 1.854 15.464-9.083 12.094-12.188.12-.693.188-1.333.219-1.932.578.271 1.245.516 1.385.568 1.203.469 3.12 1.224 4.385.615 1.167-.557 1.312-2.078.682-3.052-.661-1.026-1.896-1.349-3.026-1.495a12.477 12.477 0 00-2.016-.078c-.068 0-.333.016-.661.036 1.771-2.438 1.865-5.583.427-7.307-.333-.396-1.63-1.641-2.203-.99-.37.521.302 1.547.25 2.323-.125 1.198-1.141 2.156-1.813 2.677-.958-.76-1.818-.995-1.818-.995l-.427-.078c-.859-.667-2.042-.755-2.042-.755.484-.583 2.083-.13 2.083-.13-1.417-1.417-3.083-.438-3.083-.438 0-.693-.505-1.109-.505-1.109-.531.406-.552.953-.552.953-1.349-1.411-2.828-1.057-2.828-1.057s1.307.411 1.557 1.438a3.234 3.234 0 00-.708-.063l-.464-.089a8.937 8.937 0 00-2.411.083c-.328-.792-.682-2-.255-3.042.318-.703 1.385-1.286 1.313-1.922-.083-.37-.464-.484-.901-.479zm2.708 4.281c.813.083 1.583.682 2.13 1.323.005-.396.063-.833.359-1.125.302.25.354.76.333 1.156.703-.458 1.641-.641 2.427-.271-.62-.083-1.318.078-1.651.667 1.021.057 2.172.344 2.797 1.224-.922-.516-2.188-1.167-3.224-.484.719.182 1.505.651 1.557 1.479a3.68 3.68 0 00-2.531-1.495c-.922.036-1.896.458-2.453 1.203-.141.234-.25.474-.234.016-.057-.896.984-1.208 1.682-1.328-.818-.401-1.75-.688-2.656-.5.682-.552 1.63-.573 2.443-.375a2.166 2.166 0 00-.974-1.495zM3.016 9.229c.234 0 .469.026.698.068.38.068 1.167.281 1.505.667.333.38 1.302 1.813-1 2.156-.75.083-1.948.214-2.521-.396-.521-.563-.302-1.547.234-2.052a1.517 1.517 0 011.083-.443zm7.692 1.334a1.58 1.58 0 01.349.026c3.536.573 1.521 6.411 1.521 6.411l-.391-.271c.271-.646.568-1.667.552-2.682-.021-1.422-.839-2.583-1.823-2.557-.99.016-1.776 1.188-1.75 2.625.005.375.063 1.047.161 1.401-.005-.021-.005-.177-.01-.198l-.906-.286s.016-4.427 2.292-4.464zm10.146 1.609c.208.005.427.031.661.083 2.589.615.885 4.76.885 4.76l-.807.135v.005c-.875.135-1.854.281-2.844.464-.031-.036.026.042 0 0l-1.151.193s.141-5.667 3.255-5.641zm-2.109 5.536l2.948-.422c.156-.224.245-.589.302-.885.271-1.401.208-2.708-.708-3.068a1.32 1.32 0 00-.443-.089c-.823-.016-1.724.719-2.177 1.839-.271.693-.521 2.177-.344 2.667.068.188.682.161.557.021zm-7.719-4.948c.302 0 .547.245.547.547a.546.546 0 01-.547.542c-.724 0-.724-1.089 0-1.089zm17.469.735c.219 0 .427.021.568.036.656.089 1.203.214 1.589.823.365.583.281 1.484-.385 1.818-.724.354-1.828-.094-2.521-.375-2.094-.948-.75-1.896-.318-2.12.271-.151.693-.188 1.063-.182zm-7.896.859c.729-.026.76 1.068.036 1.089-.729.026-.76-1.068-.036-1.089zm-13.13.99c1.932-.021 3.516 1.26 5.172 2.078 2.266 1.214 4.958 1.063 7.375.464 1.464-.448 3.318-.719 4.573.313 1.677 1.667 1.88 4.281 1.12 6.385-.932 2.719-3.604 4.443-6.323 5-3.401.599-7.052.479-10.266-.885-3.667-1.411-6.266-5.453-5.615-9.411.198-1.958 1.88-3.891 3.948-3.958zm2.359 2.333a.763.763 0 00-.219.031c-.557.167-.677.896-.266 1.641.411.734 1.198 1.198 1.76 1.031.557-.167.677-.901.266-1.641-.359-.646-1.01-1.078-1.536-1.068zm-3.401 1.255a1.384 1.384 0 00-.818.234c-.714.51-.734 1.896.099 3.052.828 1.156 2.198 1.656 2.906 1.146.714-.516.708-2.057-.12-3.214-.568-.797-1.385-1.203-2.068-1.219zm14.266.229a1.922 1.922 0 00-.813.193c-.76.365-1.271 1.12-1.141 1.682.13.568.854.729 1.615.37.76-.365 1.271-1.115 1.141-1.677-.078-.359-.396-.552-.802-.563zm-14.401.188c.844-.026 1.573.552 2 1.245.401.708.755 1.88-.005 2.464-1.167.276-2.214-.766-2.609-1.771-.328-.635-.281-1.88.625-1.932zm17.203 1.974h-.141c-.625.031-1.375.385-2.01 1.021-1.01 1.005-1.323 2.333-.703 2.948.62.62 1.948.302 2.948-.703 1.005-1.005 1.323-2.333.698-2.943a1.12 1.12 0 00-.802-.318zm.015.411c.234.016.469.125.589.328.313 1.042-.474 2.104-1.313 2.651-.568.406-1.615.823-2.016.016-.12-1.479 1.219-2.828 2.641-3h.099zM9.781 23.672a.173.173 0 00-.141.078c-.01.021-.255.417-.729.411a.168.168 0 00-.172.177c0 .083.073.156.156.172h.021c.146 0 .286-.026.422-.078.292.578 1.469 2.536 4.375 3 2.948.474 5.161-.984 5.734-1.401.13.104.286.177.453.214h.021a.166.166 0 00.182-.13.176.176 0 00-.135-.208c-.464-.104-.63-.547-.641-.568a.174.174 0 00-.219-.109.163.163 0 00-.109.214c.005.016.063.172.193.344-.578.401-2.693 1.677-5.453 1.292-2.573-.365-3.771-2.255-4.078-2.818.182-.146.276-.302.286-.313a.177.177 0 00-.068-.24.212.212 0 00-.099-.026z"/></svg>