<svg xmlns="http://www.w3.org/2000/svg" width="100%" height="100%" viewBox="-3.2 -3.2 38.4 38.4"><path d="M31.713 0c-.02 0-.041 0-.057.005h-7.807a.297.297 0 00-.131.031l-7.719 3.855L8.28.036a.307.307 0 00-.131-.031H.28a.288.288 0 00-.276.339v7.807c0 .047.011.089.031.131l3.86 7.713-3.86 7.724a.312.312 0 00-.031.136v7.785c-.011.032-.005.068 0 .105a.292.292 0 00.339.249H8.15a.31.31 0 00.131-.031L16 28.098l7.719 3.865c.041.02.088.031.131.031h7.839a.293.293 0 00.307-.344v-7.796a.312.312 0 00-.031-.136l-3.86-7.724 3.86-7.713a.294.294 0 00.031-.131V.354a.276.276 0 00-.005-.131.292.292 0 00-.276-.224zM2.697.593h5.381l5.385 2.688zm21.224 0h5.381L18.535 3.281zM.703.703l14.719 3.683L4.381 15.417l-.312-1.271zm30.589.01l-3.677 14.708L16.579 4.38zm.115 1.984v5.381l-2.693 5.38zm-30.814 0l2.459 9.833.235.933L.594 8.078zM16 4.64L27.36 16 16.005 27.355 4.64 16zm11.615 11.939l.12.463 3.563 14.256-14.719-3.683zm-23.23 0L15.416 27.61.708 31.282l.355-1.421zm24.328 1.952l2.693 5.391v5.371zm-25.426 0L.594 29.303v-5.381zm10.166 10.182l-5.375 2.693H2.693zm5.094 0l10.76 2.693h-5.385z"/></svg>