<svg xmlns="http://www.w3.org/2000/svg" width="100%" height="100%" viewBox="-3.2 -3.2 38.4 38.4"><path d="M28 0H4C1.792 0 0 1.792 0 4v24c0 2.208 1.792 4 4 4h24c2.208 0 4-1.792 4-4V4c0-2.208-1.792-4-4-4zm-7.734 5.865c0-.583.479-1.068 1.068-1.068s1.068.484 1.068 1.068v14.25a1.07 1.07 0 01-2.136 0zm-5.334-.542a1.069 1.069 0 012.136 0v15.474a1.069 1.069 0 01-2.136 0zm-5.333.542c0-.583.479-1.068 1.068-1.068s1.068.484 1.068 1.068v14.25a1.07 1.07 0 01-2.136 0zM4.266 8a1.07 1.07 0 012.136 0v9.594a1.07 1.07 0 01-2.136 0zm23.093 16.271c-.161.141-4.115 3.458-11.359 3.458S4.802 24.411 4.641 24.271a1.066 1.066 0 01-.115-1.505c.38-.448 1.052-.5 1.5-.12.063.052 3.589 2.948 9.974 2.948 6.464 0 9.938-2.917 9.969-2.943.448-.385 1.12-.333 1.505.115s.333 1.12-.115 1.505zm.375-6.677a1.07 1.07 0 01-2.136 0V8a1.07 1.07 0 012.136 0z"/></svg>