<svg xmlns="http://www.w3.org/2000/svg" width="100%" height="100%" viewBox="-3.2 -3.2 38.4 38.4"><path d="M20.459 16.677l3.161 4.172c.265.348.281.921.031 1.281l-.156.233a4.98 4.98 0 01-1.083 1.109l-.381.272c-.353.26-.932.26-1.276-.027l-4.181-3.156c-.339-.26-.907-.26-1.251 0l-4.183 3.156c-.343.287-.921.287-1.276.041l-.276-.176c-.359-.245-.853-.745-1.099-1.084l-.239-.339c-.251-.359-.24-.921.02-1.281l3.172-4.197c.26-.344.26-.901 0-1.261l-3.183-4.181c-.255-.349-.271-.923-.015-1.276l.265-.38a5.402 5.402 0 011.104-1.084l.235-.161c.359-.26.937-.24 1.281.021l4.181 3.161c.344.26.912.26 1.256 0l4.177-3.183c.343-.26.932-.303 1.307-.084l.437.261c.375.224.855.697 1.063 1.083l.161.276c.204.38.161.964-.099 1.323l-3.161 4.177c-.26.344-.26.907 0 1.261zM16 0C7.161 0 0 7.161 0 16s7.161 16 16 16 16-7.161 16-16S24.839 0 16 0z"/></svg>