<svg xmlns="http://www.w3.org/2000/svg" width="100%" height="100%" viewBox="-3.2 -3.2 38.4 38.4"><path d="M4.172 1.787C2.776 2.615.027 5.771 0 6.599v1.375c0 1.735 1.625 3.267 3.099 3.267 1.771 0 3.251-1.469 3.251-3.213 0 1.744 1.421 3.213 3.197 3.213 1.771 0 3.151-1.469 3.151-3.213 0 1.744 1.516 3.213 3.287 3.213h.032c1.776 0 3.291-1.469 3.291-3.213 0 1.744 1.381 3.213 3.152 3.213s3.197-1.469 3.197-3.213c0 1.744 1.475 3.213 3.245 3.213 1.479 0 3.104-1.532 3.104-3.267V6.599c-.032-.828-2.776-3.984-4.177-4.812-4.339-.156-7.344-.183-11.823-.183-4.484.005-10.593.073-11.828.183zm8.505 8.634a3.67 3.67 0 01-.625.797v.005a3.727 3.727 0 01-2.599 1.057 3.692 3.692 0 01-2.599-1.063 3.41 3.41 0 01-.6-.787c-.167.297-.4.552-.645.787A3.71 3.71 0 013.01 12.28h-.005a1.08 1.08 0 01-.349-.073 55.156 55.156 0 00-.224 3.937v.005c-.005.527-.005.953-.011 1.552.032 3.115-.307 10.089 1.376 11.803 2.604.604 7.396.88 12.197.885h.005c4.807-.005 9.593-.281 12.197-.885 1.683-1.713 1.344-8.688 1.376-11.803-.005-.599-.005-1.025-.011-1.552v-.005a52.356 52.356 0 00-.224-3.937 1.053 1.053 0 01-.349.073h-.005a3.71 3.71 0 01-2.599-1.063h.005c-.245-.235-.479-.489-.645-.787h-.005a3.411 3.411 0 01-.595.787 3.71 3.71 0 01-5.198 0 3.617 3.617 0 01-.615-.787l-.011-.016c-.172.308-.38.573-.615.803a3.71 3.71 0 01-2.599 1.063h-.005c-.031 0-.068 0-.104-.005-.036.005-.073.005-.109.005h-.005a3.685 3.685 0 01-2.593-1.063 3.418 3.418 0 01-.609-.787l-.011-.016zm-2.672 3.454c1.057.005 1.995 0 3.161 1.271.916-.093 1.875-.14 2.833-.14s1.917.047 2.833.14c1.167-1.271 2.104-1.271 3.161-1.271h.005c.5 0 2.5 0 3.891 3.912l1.495 5.369c1.109 3.995-.355 4.095-2.177 4.095-2.708-.1-4.208-2.068-4.208-4.037-1.5.251-3.251.371-5 .371s-3.5-.12-4.995-.371c0 1.969-1.5 3.937-4.208 4.037-1.828-.005-3.292-.1-2.183-4.095l1.495-5.369c1.396-3.912 3.396-3.912 3.896-3.912zM16 16.953c-.005 0-2.849 2.62-3.364 3.547l1.864-.073v1.625c0 .079.751.047 1.5.011.749.036 1.495.068 1.495-.011v-1.625l1.869.073C18.849 19.573 16 16.953 16 16.953z"/></svg>