<svg xmlns="http://www.w3.org/2000/svg" width="100%" height="100%" viewBox="-3.2 -3.2 38.4 38.4"><path d="M16 0c-4.349 0-4.891.021-6.593.093-1.709.084-2.865.349-3.885.745a7.847 7.847 0 00-2.833 1.849A7.757 7.757 0 00.84 5.52C.444 6.54.179 7.696.095 9.405c-.077 1.703-.093 2.244-.093 6.593s.021 4.891.093 6.593c.084 1.704.349 2.865.745 3.885a7.847 7.847 0 001.849 2.833 7.757 7.757 0 002.833 1.849c1.02.391 2.181.661 3.885.745 1.703.077 2.244.093 6.593.093s4.891-.021 6.593-.093c1.704-.084 2.865-.355 3.885-.745a7.847 7.847 0 002.833-1.849 7.716 7.716 0 001.849-2.833c.391-1.02.661-2.181.745-3.885.077-1.703.093-2.244.093-6.593s-.021-4.891-.093-6.593c-.084-1.704-.355-2.871-.745-3.885a7.847 7.847 0 00-1.849-2.833A7.716 7.716 0 0026.478.838c-1.02-.396-2.181-.661-3.885-.745C20.89.016 20.349 0 16 0zm0 2.88c4.271 0 4.781.021 6.469.093 1.557.073 2.405.333 2.968.553a4.989 4.989 0 011.844 1.197 4.931 4.931 0 011.192 1.839c.22.563.48 1.411.553 2.968.072 1.688.093 2.199.093 6.469s-.021 4.781-.099 6.469c-.084 1.557-.344 2.405-.563 2.968-.303.751-.641 1.276-1.199 1.844a5.048 5.048 0 01-1.844 1.192c-.556.22-1.416.48-2.979.553-1.697.072-2.197.093-6.479.093s-4.781-.021-6.48-.099c-1.557-.084-2.416-.344-2.979-.563-.76-.303-1.281-.641-1.839-1.199-.563-.563-.921-1.099-1.197-1.844-.224-.556-.48-1.416-.563-2.979-.057-1.677-.084-2.197-.084-6.459 0-4.26.027-4.781.084-6.479.083-1.563.339-2.421.563-2.979.276-.761.635-1.281 1.197-1.844.557-.557 1.079-.917 1.839-1.199.563-.219 1.401-.479 2.964-.557 1.697-.061 2.197-.083 6.473-.083zm0 4.907A8.21 8.21 0 007.787 16 8.21 8.21 0 0016 24.213 8.21 8.21 0 0024.213 16 8.21 8.21 0 0016 7.787zm0 13.546c-2.948 0-5.333-2.385-5.333-5.333s2.385-5.333 5.333-5.333c2.948 0 5.333 2.385 5.333 5.333S18.948 21.333 16 21.333zM26.464 7.459a1.923 1.923 0 01-1.923 1.921 1.919 1.919 0 110-3.838c1.057 0 1.923.86 1.923 1.917z"/></svg>