<svg xmlns="http://www.w3.org/2000/svg" width="100%" height="100%" viewBox="-3.2 -3.2 38.4 38.4"><path d="M29.667 15.76a4.155 4.155 0 00-3.104-4.015L30.547 0h-19.74l3.996 11.787a4.156 4.156 0 00-2.996 3.979c0 1.391.693 2.625 1.751 3.385a10.813 10.813 0 01-1.443 1.656 10.92 10.92 0 01-3.401 2.199c-1.115-.751-1.593-2.079-1.161-3.26 4.531-1.412 3.531-8.089-1.208-8.109a4.154 4.154 0 00-4.151 4.151c0 1.131.457 2.167 1.203 2.911-.068.125-.131.261-.199.396-.619 1.281-1.323 2.724-1.593 4.344-.536 3.245.344 5.849 2.469 7.323a6.778 6.778 0 003.927 1.24c2.432 0 4.907-1.224 7.297-2.412 1.708-.839 3.468-1.719 5.197-2.145.641-.156 1.308-.249 2.011-.355 1.427-.203 2.901-.416 4.224-1.187a5.966 5.966 0 002.911-4.12 6.144 6.144 0 00-.593-3.828c.401-.641.62-1.385.62-2.193zm-1.807 0a2.336 2.336 0 01-2.333 2.333c-2.209-.005-3.177-2.791-1.444-4.167l.005-.009c.079-.057.163-.115.24-.168 0 0 .016 0 .016-.009.036-.021.072-.047.109-.068.011 0 .016-.005.025-.005.037-.021.084-.036.131-.057s.093-.036.131-.057c.009 0 .015-.005.025-.005.037-.011.079-.031.115-.036.005 0 .027-.011.037-.011.047-.011.083-.021.129-.027h.005l.141-.031c.009 0 .025 0 .036-.011.036 0 .073-.011.115-.011h.041c.047 0 .093-.005.151-.005h.12c.037 0 .068 0 .104.005h.016c.073.011.151.021.224.043a2.347 2.347 0 011.86 2.296zM13.391 1.855h14.573l-3.344 9.864c-.141.027-.276.073-.417.12l-3.52-7.177-3.532 7.131a3.367 3.367 0 00-.437-.099zm6.625 13.098a4.117 4.117 0 00-1.251-2.224l1.917-3.869 1.937 3.952a4.151 4.151 0 00-1.161 2.141zm-4.641-1.464a.845.845 0 01.131-.025h.025c.037-.011.073-.011.109-.021h.037c.036 0 .068-.011.104-.011h.359c.037 0 .068.011.095.011.02 0 .025 0 .047.011.036.011.063.011.099.016.011 0 .021 0 .041.009l.125.027h.011c.036.011.079.021.115.041.005 0 .016.005.036.005.027.011.063.021.095.036.004 0 .015.011.025.011.036.021.073.032.109.047h.011a.425.425 0 01.12.068h.011c.036.016.072.041.109.063.009 0 .009.011.02.011.037.016.063.047.099.063l.011.011c.109.083.213.176.319.271l.004.005c.417.437.647 1.015.641 1.613-.099 3.011-4.568 3.011-4.667 0-.005-1.067.724-2 1.76-2.26zm-9.12-.068a2.336 2.336 0 010 4.672c-1.285 0-2.333-1.047-2.333-2.333s1.048-2.339 2.333-2.339zm21.552 8.038a4.114 4.114 0 01-2.009 2.844c-1.011.583-2.256.771-3.557.952a22.36 22.36 0 00-2.188.391c-1.927.475-3.781 1.396-5.579 2.287-2.296 1.141-4.463 2.213-6.473 2.213a4.873 4.873 0 01-2.875-.916c-2.037-1.407-1.937-4.047-1.693-5.495.219-1.355.839-2.62 1.432-3.833.043-.073.068-.141.105-.213.203.072.416.129.64.167-.355 1.963.645 3.995 2.593 4.995l.349.181.38-.135c1.62-.579 3.125-1.511 4.448-2.76a12.28 12.28 0 001.927-2.292 4.157 4.157 0 004.652-3.057h1.557a4.143 4.143 0 004.011 3.104c.771 0 1.484-.213 2.093-.573.24.693.317 1.417.187 2.141z"/></svg>