<svg xmlns="http://www.w3.org/2000/svg" width="100%" height="100%" viewBox="-3.2 -3.2 38.4 38.4"><path d="M5.958 0a3.745 3.745 0 00-3.786 3.708v24.573A3.732 3.732 0 005.958 32a3.737 3.737 0 003.802-3.708V3.709A3.776 3.776 0 005.958.001zm12.537 11.385a3.735 3.735 0 00-5.188-.88 3.577 3.577 0 00-.906 5.068l10.667 14.865a3.741 3.741 0 005.172.88 3.574 3.574 0 00.99-4.958l-.083-.12-10.641-14.854zm4.864-1.572a4.95 4.95 0 004.99-4.891 4.95 4.95 0 00-4.99-4.896 4.95 4.95 0 00-5 4.896 4.949 4.949 0 005 4.891z"/></svg>