<svg xmlns="http://www.w3.org/2000/svg" width="100%" height="100%" viewBox="-3.2 -3.2 38.4 38.4"><path d="M32 16c0 8.802-7.198 16-16 16S0 24.802 0 16 7.198 0 16 0s16 7.198 16 16zM16 2.401c-7.599 0-13.599 6-13.599 13.599s6 13.599 13.599 13.599 13.599-6 13.599-13.599S23.599 2.401 16 2.401zm7.469 7.198l-.271.266c.135-.13.401-.266.536-.266zm.265 0h.667V7.068h-7.333v2.531h1.198c.266 0 .401.135.401.401 0 .135 0 .266-.135.266l-5.063 5.068h-.135c-.135 0-.266-.135-.266-.266v-4.536c0-.531.401-.932.932-.932h1.068V7.069h-7.87V9.6h.938c.531 0 .932.401.932.932v11.203a.912.912 0 01-.932.932h-.938v2.667h7.87v-2.667H14a.912.912 0 01-.932-.932v-1.87c0-.13 0-.266.13-.396l2-2s.135-.135.271-.135c.13 0 .266 0 .266.135l2.797 4.396v.271c0 .266-.13.396-.396.396h-1.203v2.667h8.401v-2.667h-.932a.73.73 0 01-.667-.396v-.135l-4.932-7.333c0-.135-.135-.135-.135-.266 0-.135 0-.266.135-.266l4.266-4.271c.266-.266.401-.266.667-.266z"/></svg>