<svg xmlns="http://www.w3.org/2000/svg" width="100%" height="100%" viewBox="-51.2 -51.2 614.4 614.4"><path fill="var(--ci-primary-color, currentColor)" d="M320 24H16v304h176v168h304V192H320zM148.305 96L98.093 239.3H132l8.166-23.3H192v80H48V56h240v136h-66.668L187.7 96zm36.317 88h-33.244L168 136.562zM464 224v240H224V224z" class="ci-primary"/><path fill="var(--ci-primary-color, currentColor)" d="M317.432 368.48a136.761 136.761 0 0010.089 14.12q-17.4 9.384-39.521 9.4v32c24.141 0 45.71-6.408 64-18.824C370.29 417.592 391.859 424 416 424v-32q-22.075 0-39.52-9.407a136.574 136.574 0 0010.088-14.113A166.212 166.212 0 00406.662 320H424v-32h-56v-24h-32v24h-56v32h17.338a166.212 166.212 0 0020.094 48.48zM373.53 320a133.013 133.013 0 01-14.1 31.52 104.39 104.39 0 01-7.43 10.448 103.546 103.546 0 01-6.93-9.651A132.384 132.384 0 01330.466 320z" class="ci-primary"/></svg>