<svg xmlns="http://www.w3.org/2000/svg" width="100%" height="100%" viewBox="-3.2 -3.2 38.4 38.4"><path d="M28.443 5.76C22.078.515 12.604.843 6.63 6.744a10.085 10.085 0 000 14.396c4.026 3.979 10.552 3.979 14.573 0a4.314 4.314 0 000-6.167 4.446 4.446 0 00-6.245 0 1.486 1.486 0 01-2.083 0 1.446 1.446 0 010-2.057 7.418 7.418 0 0110.411 0 7.205 7.205 0 010 10.282c-5.172 5.115-13.563 5.115-18.74 0a12.974 12.974 0 01-3.88-9.24 12.967 12.967 0 013.859-9.25A16.263 16.263 0 0115.999 0c5 0 9.474 2.24 12.443 5.76zm-.953 21.511A16.233 16.233 0 0116 32a16.228 16.228 0 01-12.443-5.76c6.359 5.245 15.839 4.917 21.813-.984a10.085 10.085 0 000-14.396c-4.026-3.979-10.552-3.979-14.573 0a4.314 4.314 0 000 6.167 4.446 4.446 0 006.245 0 1.486 1.486 0 012.083 0 1.446 1.446 0 010 2.057 7.418 7.418 0 01-10.411 0 7.205 7.205 0 010-10.282c5.172-5.115 13.562-5.115 18.74 0a12.97 12.97 0 01.036 18.469z"/></svg>