<svg xmlns="http://www.w3.org/2000/svg" width="100%" height="100%" viewBox="-51.2 -51.2 614.4 614.4"><path fill="var(--ci-primary-color, currentColor)" d="M256 416h240v32H256zM256 309.333h240v32H256zM256 202.667h240v32H256zM328 96h168v32H328z" class="ci-primary"/><path fill="var(--ci-primary-color, currentColor)" d="M302 111L167.2 27.216V96h-5.965C121.783 96 84.91 114.755 57.4 148.81 30.7 181.866 16 225.616 16 272s14.7 90.134 41.4 123.19C84.91 429.245 121.783 448 161.231 448H216v-32h-54.769C98.8 416 48 351.4 48 272s50.8-144 113.231-144h5.969v69.228zM199.2 84.784l42.8 26.607-42.8 27.381z" class="ci-primary"/></svg>