<svg xmlns="http://www.w3.org/2000/svg" width="100%" height="100%" viewBox="-51.2 -51.2 614.4 614.4"><path fill="var(--ci-primary-color, currentColor)" d="M496 272v-32H272v-48h56a24.027 24.027 0 0024-24V40a24.027 24.027 0 00-24-24H184a24.027 24.027 0 00-24 24v128a24.027 24.027 0 0024 24h56v48H16v32h80v48H41.391a24.028 24.028 0 00-24 24v128a24.028 24.028 0 0024 24H184a24.027 24.027 0 0024-24V344a24.027 24.027 0 00-24-24h-56v-48h256v48h-56a24.027 24.027 0 00-24 24v128a24.027 24.027 0 0024 24h144a24.027 24.027 0 0024-24V344a24.027 24.027 0 00-24-24h-56v-48zM192 48h128v112H192zm-16 416H49.391V352H176zm288 0H336V352h128z" class="ci-primary"/></svg>