<svg xmlns="http://www.w3.org/2000/svg" width="100%" height="100%" viewBox="-51.2 -51.2 614.4 614.4"><path fill="var(--ci-primary-color, currentColor)" d="M466.278 47.947a85.883 85.883 0 00-115.124-5.72 196.7 196.7 0 00-65.642-11.176A251.264 251.264 0 0034.248 282.316a196.628 196.628 0 0011.176 65.643A85.872 85.872 0 00166.266 468.8a196.664 196.664 0 0065.644 11.177 251.266 251.266 0 00251.264-251.263A196.639 196.639 0 00472 163.065a85.982 85.982 0 00-5.722-115.118zM438.7 165.563a164.674 164.674 0 0112.471 63.151c0 120.9-98.361 219.264-219.264 219.264a164.7 164.7 0 01-63.151-12.471l-10.33-4.263-7.559 8.23c-.3.331-.607.661-.928.981a53.861 53.861 0 11-76.171-76.171c.32-.321.65-.625.981-.93l8.229-7.558-4.262-10.329a164.713 164.713 0 01-12.472-63.152c0-120.9 98.362-219.263 219.265-219.263a164.709 164.709 0 0163.15 12.47l10.324 4.261 7.56-8.222c.3-.326.6-.653.933-.986a53.862 53.862 0 0176.172 76.172c-.324.323-.659.631-.993.939l-8.214 7.559z" class="ci-primary"/><path fill="var(--ci-primary-color, currentColor)" d="M120.32 226.743l28.471 14.611A218.891 218.891 0 01269.44 135.047l-10.88-30.094a250.8 250.8 0 00-138.24 121.79z" class="ci-primary"/></svg>