<svg xmlns="http://www.w3.org/2000/svg" width="100%" height="100%" viewBox="-3.2 -3.2 38.4 38.4"><path d="M30.635 14.15c0-1.025.16-1.63.16-2.73 0-1.71-.63-2.26-2.025-2.26h-1.025v1.21h.315c.71 0 .865.235.865 1.105 0 .815-.08 1.63-.08 2.575 0 1.21.395 1.68 1.18 1.865v.08c-.79.185-1.18.655-1.18 1.865 0 .945.08 1.71.08 2.575 0 .895-.185 1.13-.865 1.13v.025h-.315v1.26h1.025c1.39 0 2.025-.55 2.025-2.26 0-1.13-.16-1.71-.16-2.73 0-.55.34-1.13 1.365-1.18v-1.365c-1.025-.035-1.365-.615-1.365-1.165zm-5.28 1.6c-.79-.315-1.525-.5-1.525-1.025 0-.395.315-.63.895-.63s1.105.235 1.68.655l1.05-1.39c-.655-.5-1.55-1.025-2.76-1.025-1.785 0-2.995 1.025-2.995 2.47 0 1.285 1.13 1.945 2.075 2.31.815.315 1.605.58 1.605 1.105 0 .395-.315.655-1.025.655-.655 0-1.315-.265-2.025-.815l-1.05 1.525c.79.655 1.995 1.105 2.995 1.105 2.1 0 3.23-1.105 3.23-2.55s-1.125-2.05-2.15-2.39zM7.41 18.72c-.185 0-.42-.16-.42-.655v-8.91H3.26c-1.42 0-2.05.55-2.05 2.26 0 1.13.16 1.76.16 2.73 0 .55-.34 1.13-1.365 1.18v1.365c1.025.025 1.365.605 1.365 1.155 0 .97-.16 1.55-.16 2.68 0 1.71.63 2.26 2.025 2.26H4.26v-1.21h-.315c-.655 0-.865-.265-.865-1.13s.08-1.605.08-2.575c0-1.21-.395-1.68-1.18-1.865v-.08c.79-.185 1.18-.655 1.18-1.865 0-.945-.08-1.71-.08-2.575s.185-1.105.865-1.105h.705v7.54c0 1.605.55 2.655 2.155 2.655.5 0 .895-.08 1.18-.185l-.265-1.71c-.155.04-.23.04-.31.04zm11.585-2.97c-.815-.315-1.55-.5-1.55-1.025 0-.395.315-.63.895-.63s1.105.235 1.68.655l1.05-1.39c-.655-.5-1.55-1.025-2.76-1.025-1.785 0-2.995 1.025-2.995 2.47 0 1.285 1.13 1.945 2.075 2.31.815.315 1.605.58 1.605 1.105 0 .395-.315.655-1.025.655-.655 0-1.315-.265-2.025-.815l-1.025 1.525c.79.655 1.995 1.105 2.995 1.105 2.1 0 3.23-1.105 3.23-2.55.005-1.445-1.125-2.05-2.15-2.39zm-7.75-3.44c-1.92 0-3.755 1.605-3.705 4.125 0 2.6 1.71 4.125 3.965 4.125.945 0 1.995-.34 2.81-.895l-.79-1.39c-.58.34-1.13.5-1.71.5-1.05 0-1.865-.5-2.075-1.71h4.76c.025-.185.08-.55.08-.97.03-2.13-1.13-3.785-3.335-3.785zm-1.5 3.31c.16-1.05.79-1.55 1.525-1.55.945 0 1.315.655 1.315 1.55z"/></svg>