<svg xmlns="http://www.w3.org/2000/svg" width="100%" height="100%" viewBox="-3.2 -3.2 38.4 38.4"><path d="M13.865 6.375v-.573l-.036-.615c0-.172-.068-.443-.188-.802a2.804 2.804 0 01-.172-.917.527.527 0 01.224-.443l.469-.375a1.26 1.26 0 01.813-.24c.214 0 .547.026 1.026.094.411 0 .719-.094.932-.266l.495-.344c.224-.188.344-.391.344-.615 0-.385-.208-.693-.635-.932a3.397 3.397 0 00-1.63-.349l-1.813.135c-.411 0-1.198.094-2.359.276-1.161.203-2.052.297-2.708.297-.266 0-.719-.057-1.359-.161A10.046 10.046 0 005.737.399l-1 .318c-.349.109-.505.266-.505.469l.078.401c.188.37.453.667.797.865l.365.188c.172.052.318.078.438.078.146 0 .375 0 .667-.036a1.3 1.3 0 01.667.172l.495.438c.24.271.401.536.505.776.109.24.161.464.161.667 0 .161-.026.401-.094.76a5.892 5.892 0 00-.078.823c0 .271.063.656.198 1.151.135.49.198.906.198 1.224-.036.505-.052 1-.052 1.495v1.495c0 .385.042.88.094 1.49.052.615.094 1.109.094 1.469l-.094 1.828-.042 2.943-.13 2.417c0 .333.052.745.172 1.276.12.536.172.948.172 1.271 0 .333-.036.729-.13 1.24a4.759 4.759 0 00-.094 1.76c.036.224.036.396 0 .531-.036.182-.12.354-.24.495l-.417.505a3.038 3.038 0 01-.891.745c-.323.177-.786.271-1.375.307-.599.026-1.026.146-1.292.375-.266.214-.401.385-.401.505 0 .76.708 1.135 2.135 1.135l.302-.042 2.563-.266c.427-.026.932-.042 1.495-.042h.531l1.599.042h4.271l1.172-.104a9.04 9.04 0 011-.068c.385 0 .917.094 1.599.292.682.188 1.255.255 1.734.188l.505-.135c.323-.078.615-.13.922-.13l.599.078c.359.042.667.068.906.068.12 0 .318-.042.625-.094.734-.146 1.255-.427 1.547-.839.214-.297.323-.563.323-.828a6.949 6.949 0 01-.135-1.802c.135-.292.307-.583.479-.88.146-.385.266-.906.323-1.557.052-.667.104-1.109.146-1.323a5.75 5.75 0 01.385-1.01c.203-.453.307-.839.307-1.161 0-.344-.078-.667-.229-.932-.13-.255-.333-.385-.573-.385-.146 0-.385.13-.703.396-.146.125-.266.333-.391.667a4.45 4.45 0 01-.24.656c-.359.531-.703 1.042-1.063 1.531a6.997 6.997 0 00-.443.828c-.307.625-.531 1.042-.719 1.281a6.12 6.12 0 01-.708.667 1.994 1.994 0 00-.427.453c-.13.188-.318.495-.547.906l-.76.401-.531.13c-.172.016-.411.094-.708.214-.307.109-.531.188-.667.214a3.45 3.45 0 01-.583.042c-.271 0-.667-.042-1.203-.135-.531-.078-.958-.13-1.276-.13l-.938.052c-1.063 0-1.865-.573-2.359-1.719a12.5 12.5 0 01-.641-6.229c.068-.479.109-.854.109-1.146v-3.068l.036-1.01c.042-.417.057-.708.057-.88a4.123 4.123 0 00-.229-1.417 2.293 2.293 0 01-.172-.745c0-.135.026-.349.078-.615a2.54 2.54 0 00.094-.615l-.036-1.318c-.042-.557-.057-1-.057-1.318 0-.375.068-.844.188-1.401.12-.563.172-1.016.172-1.359z"/></svg>