<svg xmlns="http://www.w3.org/2000/svg" width="100%" height="100%" viewBox="-3.2 -3.2 38.4 38.4"><path d="M3.093 0A3.093 3.093 0 000 3.093v25.813a3.093 3.093 0 003.093 3.093h25.813a3.093 3.093 0 003.093-3.093V3.093A3.093 3.093 0 0028.906 0zm12.276 5.307L12.344 17.85a4.056 4.056 0 00-.099.719c-.011.197.031.396.119.572a.926.926 0 00.448.401c.209.104.505.172.881.199l-.652 2.676c-1.031 0-1.844-.129-2.427-.4-.588-.271-1.011-.636-1.265-1.099a3.245 3.245 0 01-.371-1.6 9.035 9.035 0 01.251-1.927l2.765-11.563zm5.204 5.182c.812 0 1.509.125 2.099.371a3.862 3.862 0 011.448 1.015c.375.428.656.928.839 1.5.181.573.271 1.188.271 1.839 0 1.057-.172 2.027-.521 2.907a6.915 6.915 0 01-1.448 2.276 6.49 6.49 0 01-2.224 1.489c-.859.355-1.801.531-2.817.531-.489 0-.984-.041-1.479-.129l-.98 3.943h-3.224l3.615-15.063a17.858 17.858 0 011.989-.469c.803-.14 1.615-.213 2.433-.208zm-.417 2.724a6.07 6.07 0 00-1.307.131l-1.521 6.333c.245.063.547.088.912.088.567 0 1.083-.104 1.547-.317a3.463 3.463 0 001.187-.88 4.07 4.07 0 00.761-1.36 5.308 5.308 0 00.271-1.755c0-.625-.136-1.151-.412-1.589-.276-.432-.755-.651-1.437-.651z"/></svg>