<svg xmlns="http://www.w3.org/2000/svg" width="100%" height="100%" viewBox="-3.2 -3.2 38.4 38.4"><path d="M27.984 8.328l.052.005.104.021.053.02.052.027.052.031.047.041.047.037.047.063.063.057.041.063.057.056.099.163.043.077.036.099.084.199.036.099.036.12.084.24.036.119.041.141.037.135.083.281.037.136.041.14.036.163.041.156.037.177.02.161.043.176.036.183.025.177.037.197.02.199.016.197.041.204.043.395.104 1.095.02.239.016.453.027.24.015.24.043.479.02.26.041.511.043.521v.516l.02.281.016.276v.536l.021.281v.812l.02.557.021.833v1.693l.021.5.041.353.057.24.057.161.063.136.077.119.183.183.083.037.115.061.12.037.131.041.188.036.26.016.353-.021h.136v3.005l-.317.037-.756.036-.812-.036-.599-.095-.459-.115-.339-.119-.317-.161-.313-.199-.276-.244-.181-.177-.177-.204-.229-.353-.197-.423-.163-.453-.109-.536-.072-.609-.021-.677v-2.583l-.016-.557v-1.156l-.02-.537v-.38l-.021-.265v-.532l-.02-.255v-.26l-.011-.256-.021-.26-.021-.24v-.239l-.02-.235-.021-.245v-.239l-.041-.48-.016-.239-.02-.224-.021-.229-.021-.219-.02-.224-.021-.215-.016-.219-.02-.219-.027-.197-.015-.197-.021-.209-.021-.187-.02-.183-.057-.369-.027-.177-.016-.183-.041-.167-.036-.183-.037-.156-.041-.156-.041-.161-.041-.136-.043-.14-.031-.136-.063-.12-.036-.14-.041-.12-.027-.12-.083-.239-.037-.1-.041-.099-.036-.099-.043-.079-.041-.083-.036-.079-.057-.077-.041-.063-.048-.057-.041-.063-.057-.036-.036-.043-.057-.041-.041-.016-.057-.02-.068-.021-.057-.021-.041-.015h3.364zM.011 4.109l1.557.027 1.453.036 1.291.021 2.109.077.86.036.755.043.672.036.62.063 1.073.12.911.12.423.061.375.079.36.079.337.077.319.084.296.077.281.084.256.099.26.079.24.099.437.197.197.1.219.099.199.12.177.119.181.12.157.12.161.12.156.12.161.12.135.12.141.135.14.125.141.135.12.141.12.135.135.141.24.281.099.135.12.141.099.156.099.141.1.161.099.156.099.161.099.156.084.161.077.156.099.161.079.157.084.161.077.156.084.161.057.156.063.161.083.177.068.161.077.177.079.161.063.156.077.183.073.177.057.161.068.177.063.161.057.177.063.176.057.183.061.177.057.183.043.177.057.181.052.177.041.177.052.183.036.176.057.183.037.177.063.183.036.156.063.183v.015l.036.161.041.167.037.183.041.177.036.161.084.355.057.161.036.177.041.161.043.176.036.163.041.156.037.161.041.161.036.156.041.161.043.156.036.161.041.157.037.161.041.156.02.161.037.136.063.296.041.141.036.14.043.141.025.135.041.141.021.135.036.141.043.14.02.136.036.14.043.12.036.131.021.12.041.119.063.36.016.099.02.12.021.115.041.197.021.105.031.099.041.197.021.089.021.083.031.099.032.079.02.088.021.079.02.083.016.079.021.079.02.083.021.057.041.068.021.063.016.057.02.063.041.056.021.063.047.1.021.052.041.077.021.041.02.037.016.041.027.036.015.021.084.084.036.02.027.005.015.021h-9.328l-.067-.021-.073-.021-.156-.041-.084-.02h-.02l-.068-.032-.079-.02-.073-.043-.083-.036-.057-.041-.079-.037-.061-.041-.079-.036-.12-.12-.083-.063-.057-.063-.084-.057-.077-.077-.079-.073-.063-.084-.079-.072-.077-.057-.161-.161-.063-.079-.084-.011-.077-.077-.057-.089-.073-.088-.161-.199-.079-.099-.057-.099-.083-.12-.079-.099-.077-.12-.084-.099-.077-.12-.084-.12-.077-.12-.084-.12-.156-.239-.084-.12-.077-.136-.079-.119-.063-.141-.077-.14-.084-.141-.077-.135-.084-.141-.077-.14-.079-.136-.079-.14-.323-.552-.077-.163-.084-.161-.077-.156-.084-.161-.079-.156-.077-.161-.084-.156-.077-.161-.177-.037-.068-.167-.077-.167-.084-.161-.079-.167-.083-.167-.084-.172-.077-.156-.084-.156-.083-.161-.084-.156-.077-.163-.084-.197-.077-.183-.084-.156-.083-.161-.084-.177-.083-.161-.079-.177-.083-.161-.157-.353-.083-.183-.079-.177-.077-.183-.079-.156-.156-.355-.084-.181-.077-.177-.079-.183-.161-.353-.077-.204-.084-.156-.079-.183-.077-.156-.084-.161-.093-.156-.083-.183-.1-.156-.077-.156-.099-.161-.079-.161-.084-.157-.077-.161-.079-.156-.077-.183-.161-.323-.084-.156-.079-.156-.099-.161-.099-.156-.183-.308-.072-.156-.1-.151-.104-.157-.077-.151-.084-.14-.167-.276-.093-.141-.084-.135-.077-.141-.084-.12-.077-.14-.084-.141-.088-.119-.079-.12-.099-.12-.099-.115-.084-.12-.099-.12-.115-.156-.088-.099-.095-.104-.077-.1-.079-.135-.099-.099-.088-.079-.1-.093-.083-.089-.099-.104-.089-.083-.083-.079-.095-.077-.088-.068-.093-.063-.095-.057-.083-.084-.099-.057-.084-.061-.093-.057-.093-.043-.089-.036-.281-.125-.077-.025-.079-.011h.011z"/></svg>