<svg xmlns="http://www.w3.org/2000/svg" width="100%" height="100%" viewBox="-51.2 -51.2 614.4 614.4"><path fill="var(--ci-primary-color, currentColor)" d="M256 56h240v32H256zM256 162.667h240v32H256zM256 269.333h240v32H256zM328 376h168v32H328z" class="ci-primary"/><path fill="var(--ci-primary-color, currentColor)" d="M161.231 408h5.969v68.783L302 393l-134.8-86.228V376h-5.965C98.8 376 48 311.4 48 232S98.8 88 161.231 88H216V56h-54.769C121.783 56 84.91 74.755 57.4 108.81 30.7 141.866 16 185.616 16 232s14.7 90.134 41.4 123.19C84.91 389.245 121.783 408 161.231 408zm37.969-42.772l42.8 27.381-42.8 26.608z" class="ci-primary"/></svg>