<svg xmlns="http://www.w3.org/2000/svg" width="100%" height="100%" viewBox="-3.2 -3.2 38.4 38.4"><path d="M14.473 19.276s.209 1.229-.041 3.937C14.115 26.609 15.724 32 15.724 32s2.193-5.401 1.812-8.896c-.317-2.864.141-3.869.043-3.735-1.683 2.328-3.105-.093-3.105-.093zm4.111 2.917c.276 2.119-.032 3.28-.428 5.552-.197 1.145 4.095-3.453 5.74-6.199.276-.453-1.573 1.787-3.401.188-1.271-1.109-1.484-1.448-2.473-2.412-.328-.328.369 1.349.567 2.865zm-4.683-2.704c-.984.964-1.204 1.303-2.469 2.412-1.828 1.599-3.677-.641-3.401-.183 1.647 2.745 5.939 7.344 5.735 6.193-.396-2.272-.697-3.433-.427-5.552.197-1.516.901-3.193.568-2.871zm4.224-3.786c2.005.584 2.781 3.365 4.807 3.709.417.072.891.197 1.437.172 1.027-.048 2.328-.631 4.063-3.089.511-.729-1.276 4.683-5.749 4.751-3.281.047-3.667-3.215-5.855-3.313-.787-.031-.839-1.536-.839-1.536s.943-1.036 2.136-.693zm-4.25-.015c-2.005.577-2.781 3.364-4.807 3.708-.417.073-.891.197-1.437.172-1.027-.047-2.328-.631-4.063-3.089-.511-.729 1.276 4.683 5.749 4.751 3.281.047 3.667-3.213 5.855-3.312.787-.037.839-1.543.839-1.543s-.943-1.031-2.136-.687zm7.5-.027c2.021 1.532 1.417 3.213 2.552 2.735 3.813-1.62 3.147-9.917 2.833-8.912-1.733 5.656-5.52 5.975-9.167 3.371-.713-.505 2.647 1.948 3.781 2.807zm-6.984-2.806c-3.645 2.604-7.432 2.285-9.167-3.371-.307-1.005-.973 7.292 2.839 8.912 1.131.479.525-1.203 2.547-2.735 1.136-.859 4.495-3.312 3.781-2.807zm7.369.781c4.396-.183 5.209-7.396 4.865-6.516-1.552 3.953-7.432 2.464-7.995 4.959-.109.489 1 1.64 3.129 1.557zm-8.405-1.557c-.563-2.495-6.443-1.005-7.995-4.959-.344-.88.468 6.333 4.869 6.516 2.131.083 3.235-1.068 3.125-1.557zm5.005-1.1s2.389-1.285 4.437-1.843c1.911-.527 3.348-1.813 3.509-3.177.115-1.011-1.484-2.928-1.484-2.928s-1.12 3.109-2.588 4.667c-1.604 1.693-.995 1.464-3.875 3.281zM9.755 7.697C8.282 6.14 7.162 3.03 7.162 3.03S5.563 4.947 5.683 5.958c.156 1.364 1.593 2.651 3.505 3.177 2.047.557 4.443 1.843 4.443 1.843-2.885-1.817-2.276-1.588-3.876-3.281zm8.313 3.084c2.588-2.125 3.968-4.896 6.208-7.932.421-.573-1.891-1.953-2.807-2.043-.917-.093-1.683 3.272-1.772 5.245-.077 1.808-1.979 5.016-1.629 4.729zm-5.781-4.729c-.089-1.979-.855-5.339-1.771-5.249-.917.093-3.229 1.473-2.808 2.047 2.245 3.031 3.62 5.807 6.209 7.932.348.287-1.553-2.927-1.631-4.729zm6.041-2.135c.183-1.464.839-2.537 2.151-3.433-1.161-.385-2.124-.703-2.624-.291-.505.411-1.871 1.791-1.688 4.031.183 2.245.011 10.62.407 10.464.213-5.735 2.025-7.385 1.755-10.771zm-2.916 10.771c.395.151.224-8.224.405-10.464.188-2.24-1.181-3.62-1.687-4.031-.5-.412-1.464-.1-2.625.291 1.312.896 1.968 1.969 2.151 3.433-.276 3.385 1.541 5.031 1.756 10.765z"/></svg>