<svg xmlns="http://www.w3.org/2000/svg" width="100%" height="100%" viewBox="-3.2 -3.2 38.4 38.4"><path d="M14.839 9.563c-.661.557 3.927-.609 3.468 1.651-.443 2.177-4.828-.459-9.629-.235-2.125.1-4.073.709-5.313 2.224 1.297-1.479 3.865-1.124 3.199-.109-1.568 2.371-4.505.661-6.563 5.303.245-.536.912-1.593 3.792-2.036 2.115-.324 5.62-.021 6.739 1.728 1.229 1.928-5.015 1.709-1.557 2.1 4.792.541 8.396 4.411 13.084 4.411 6.068 0 9.896-3.093 9.943-8.192.083-9.229-12.136-11.089-17.161-6.844zm9.025 10.073c-1.593-.048-3.208-.683-4.484-1.308-3.156-1.541-4.453-2.073-4.453-2.145 0-.089 1.896.645 5.084-1.052 1.844-.98 1.911-1.833 3.853-2.005 2.308-.204 3.948 1.505 3.948 3.301 0 1.803-1.624 3.271-3.948 3.209z"/></svg>