<svg xmlns="http://www.w3.org/2000/svg" width="100%" height="100%" viewBox="-3.2 -3.2 38.4 38.4"><path d="M15.703 31.995c-4.635-.083-9-2.172-11.974-5.729a16.057 16.057 0 01-3.208-6.203 16.112 16.112 0 01-.156-7.474 15.944 15.944 0 012.292-5.422 16.091 16.091 0 015.411-5.063A15.92 15.92 0 0113.573.182a16.245 16.245 0 014.922.01 15.873 15.873 0 016.333 2.464 15.988 15.988 0 013.182 2.771 15.948 15.948 0 013.573 6.932c.536 2.286.557 4.74.052 7.052A16.008 16.008 0 0117.01 31.968c-.359.021-.719.031-1.078.036l-.229-.005zm-9.234-8.912a.63.63 0 00.307-.177.725.725 0 00.188-.307c.016-.057.016-.24.021-3.151.005-2.828.01-3.104.026-3.25.042-.401.104-.682.193-.964.135-.401.302-.688.542-.938.188-.193.349-.313.578-.422.214-.099.443-.167.672-.198a4.07 4.07 0 01.661-.016 2.412 2.412 0 011.745 1.078c.219.333.359.703.432 1.156l.026.141.005 3.25c.005 3.099.005 3.25.021 3.313a.74.74 0 00.182.302.655.655 0 00.266.172.572.572 0 00.224.026.62.62 0 00.49-.193.674.674 0 00.203-.401c.005-.057.01-1.031.01-3.208 0-2.057 0-3.167.01-3.24a2.782 2.782 0 01.698-1.63c.24-.276.615-.521.969-.646.281-.099.526-.135.839-.125.406.016.734.089 1.068.25.375.177.682.453.891.792.234.396.37.885.396 1.448.005.068.016.651.031 1.297.031 1.333.031 1.417.052 1.651.099 1.047.411 1.901.948 2.578.12.146.417.443.557.557.578.458 1.26.74 2.042.844.234.031.677.042.906.016 1.063-.109 2.042-.615 2.688-1.396.5-.599.807-1.318.938-2.182.063-.406.057-.193.063-3.344.005-3.224.01-2.964-.073-3.13a.644.644 0 00-.443-.333.755.755 0 00-.552.083.692.692 0 00-.297.401c-.01.042-.016.641-.021 2.964-.005 3.219 0 2.974-.073 3.344-.24 1.224-1.078 2.031-2.307 2.214a2.996 2.996 0 01-.682-.01c-.615-.094-1.12-.339-1.505-.74-.443-.464-.708-1.089-.802-1.911-.021-.203-.031-.516-.057-1.615-.021-1.141-.031-1.401-.063-1.656-.172-1.495-.906-2.641-2.063-3.224a3.731 3.731 0 00-1.495-.391c-.734-.047-1.516.161-2.229.589a3.993 3.993 0 00-1.083.943l-.052.068-.036-.052a2.789 2.789 0 00-.313-.349c-.609-.578-1.469-.964-2.375-1.068a5.315 5.315 0 00-.865 0c-.849.094-1.521.38-2.078.891-.641.578-1.063 1.469-1.219 2.568-.073.521-.073.578-.073 3.885l.005 2.911.031.083c.073.224.25.391.479.453.099.026.25.026.354 0zm15.989-11.817a.92.92 0 00.729-.672c.026-.13.031-.266.01-.401a.921.921 0 00-.609-.688.906.906 0 00-1.193.865c0 .073.005.146.016.193a.913.913 0 001.047.703zm-3.557-.183a.659.659 0 00.427-.354c.063-.125.078-.208.089-.458.016-.74.313-1.448.823-1.984a2.577 2.577 0 011.526-.781c.198-.031.583-.036.776-.01.411.057.776.193 1.099.401.323.214.63.536.844.885.271.443.432 1.016.438 1.505 0 .13.016.245.047.344a.673.673 0 001.25.089c.073-.146.083-.198.083-.464s-.016-.427-.057-.688c-.292-1.729-1.557-3.057-3.234-3.391a3.219 3.219 0 00-.833-.073 4.034 4.034 0 00-3.651 2.182 4.363 4.363 0 00-.49 1.906c-.016.354.047.557.224.724.172.167.411.229.641.167z"/></svg>