<svg xmlns="http://www.w3.org/2000/svg" width="100%" height="100%" viewBox="-3.2 -3.2 38.4 38.4"><path d="M11.807 9.776c.011 0 .005 0 0 0zM8.109 7.927c.011 0 .005 0 0 0zm22.12 2.854c-.667-1.604-2.021-3.333-3.079-3.885.865 1.692 1.365 3.396 1.552 4.661l.005.027c-1.739-4.329-4.681-6.073-7.088-9.871-.12-.192-.24-.385-.36-.588-.063-.104-.115-.208-.172-.319a2.774 2.774 0 01-.224-.609c0-.02-.015-.036-.036-.041h-.031l-.005.005c-.005 0-.011.005-.011.005s0-.005.005-.011c-3.417 2-4.828 5.505-5.193 7.729a8.308 8.308 0 00-3.041.776.396.396 0 00-.197.489.387.387 0 00.525.224 7.4 7.4 0 012.651-.687l.089-.011c.125-.005.255-.011.38-.011a7.702 7.702 0 012.203.307l.125.037c.12.036.235.077.355.12.083.031.172.063.255.099.068.025.136.057.203.083.105.048.209.1.313.152l.14.067c.104.053.204.109.303.167.063.037.125.073.187.115a7.824 7.824 0 012.683 2.776c-.817-.572-2.287-1.145-3.697-.895 5.52 2.76 4.036 12.265-3.615 11.905a6.64 6.64 0 01-2.448-.568 12.849 12.849 0 01-.26-.124c-1.876-.969-3.423-2.803-3.615-5.027 0 0 .708-2.64 5.072-2.64.475 0 1.824-1.319 1.849-1.699-.011-.125-2.683-1.187-3.724-2.213-.557-.547-.817-.812-1.052-1.011a3.745 3.745 0 00-.401-.301 7.116 7.116 0 01-.041-3.751c-1.579.719-2.803 1.855-3.693 2.855h-.009c-.609-.771-.563-3.313-.532-3.844-.005-.036-.453.229-.511.271-.536.385-1.041.813-1.5 1.287a13.468 13.468 0 00-1.437 1.719 12.951 12.951 0 00-2.057 4.645 18.16 18.16 0 00-.249 1.417 7.57 7.57 0 00-.052.359 9.734 9.734 0 00-.089.881L.7 15.9c-.009.172-.02.339-.031.511v.077c0 8.48 6.875 15.355 15.355 15.355 7.593 0 13.9-5.516 15.135-12.756.027-.197.047-.395.068-.593.307-2.631-.031-5.401-.995-7.713z"/></svg>