<svg xmlns="http://www.w3.org/2000/svg" width="100%" height="100%" viewBox="-3.2 -3.2 38.4 38.4"><path d="M0 .312l29.213 27.381s.552.771-.161 1.536-1.651.109-1.651.109zm8.677 2.745L31.36 23.906s.547.771-.167 1.536c-.715.765-1.647.109-1.647.109zm-6.093 5.87L25.26 29.782s.552.765-.161 1.531c-.713.771-1.645.109-1.645.109zm13.427-3.511L31.86 19.984s.385.537-.115 1.073-1.152.079-1.152.079zM4.588 15.729l15.849 14.568s.38.536-.12 1.072c-.5.537-1.145.079-1.145.079zm18.917-6.912l7.235 6.604s.187.256-.057.505c-.251.251-.573.037-.573.037zM8.24 22.973l7.229 6.611s.192.249-.053.499c-.249.256-.572.037-.572.037z"/></svg>