<svg xmlns="http://www.w3.org/2000/svg" width="100%" height="100%" viewBox="-51.2 -51.2 614.4 614.4"><path fill="var(--ci-primary-color, currentColor)" d="M416 180h-96v160h96a20.023 20.023 0 0020-20V200a20.023 20.023 0 00-20-20zm-12 128h-52v-96h52z" class="ci-primary"/><path fill="var(--ci-primary-color, currentColor)" d="M436.574 120H352V64H32v344a64.072 64.072 0 0064 64h192a64.072 64.072 0 0064-64v-8h84.574A59.493 59.493 0 00496 340.574V179.426A59.493 59.493 0 00436.574 120zM464 340.574A27.457 27.457 0 01436.574 368H320v40a32.036 32.036 0 01-32 32H96a32.036 32.036 0 01-32-32V96h256v56h116.574A27.457 27.457 0 01464 179.426z" class="ci-primary"/></svg>