<svg xmlns="http://www.w3.org/2000/svg" width="100%" height="100%" viewBox="-30 -90 360 360"><g fill="none" fill-rule="evenodd"><path fill="#003976" fill-rule="nonzero" d="M0 0h300v179.999H0z"/><path fill="#FFF" fill-rule="nonzero" d="M0 59.999h300v59.999H0z"/><path fill="#003976" fill-rule="nonzero" d="M168.751 100.562L150 68.589l-18.752 31.973z"/><path fill="#FFCF46" fill-rule="nonzero" d="M131.852 100.18L150 69.352l18.148 30.828z"/><path fill="#003976" fill-rule="nonzero" d="M132.456 99.799L150 70.114l17.544 29.685z"/><path fill="#FFF" fill-rule="nonzero" d="M166.941 99.418L150 70.876l-16.941 28.542z"/><path fill="#EF3E42" fill-rule="nonzero" d="M148.949 86.588c-.077 0-.143-.011-.231-.011-.088 0-.055-.033-.055-.209 0-.671.033-1.254.275-1.485.242-.231.538-.264.748-.264.209 0 .297-.209.044-.286-.253-.077-.407-.121-.715-.088-.011-.407.132-.825.615-.825.253 0 .407.022.803.022.396 0 .858.582.858 1.209 0 .77-.022 1.511-.022 1.748 0 .236-.132.297-.346.297-.215 0-.391-.006-.523-.006s-.22-.016-.22.225c0 .242-.033.484-.033.715 0 .231-.187.363-.506.198-.318-.163-.472-.416-.692-1.24z"/><path fill="#FFCF46" fill-rule="nonzero" d="M124.448 85.224l-.257 1.718.774.116.232-1.546.639.096-.232 1.545.918.138.258-1.717.564.085-.362 2.42-3.479-.521.363-2.421zm.969-2.01l.602.19.2-.642c.097-.31-.09-.596-.414-.697-.323-.101-.559.094-.644.367l-.2.642c-.001-.003.217.066.456.14l-.161.626-1.054-.329.438-1.404c.176-.563.75-.825 1.351-.638.537.167.983.717.799 1.309l-.247.789 1.209.378-.192.614-2.305-.719.162-.626zm3.277-3.39c.214-.434-.014-.687-.282-.819l-2.082-1.029.3-.607 2.074 1.025c.508.251.95.799.511 1.687-.437.885-1.142.872-1.651.62l-2.074-1.025.3-.607 2.082 1.029c.269.132.61.155.822-.274zm1.129-3.108l.4.288.539-.751c.133-.184.076-.415-.159-.585-.232-.167-.459-.145-.595.044l-.538.751.353.253-.41.563-1.165-.836.41-.563.327.234.502-.699c.186-.259 0-.483-.079-.539-.129-.092-.4-.121-.55.088l-.502.699.302.217-.41.563-.785-.563.788-1.096c.386-.538.972-.85 1.458-.501.218.156.371.427.404.719.294-.07.562-.074.912.178.35.251.707.787.196 1.498l-.9 1.254-.908-.652.41-.564zm.792-4.852l2.054 2.013 1.093-1.116.459.45-1.584 1.617-2.513-2.464zm2.687-2.506l2.22 2.73-.776.63-2.22-2.729zm3.784-1.164c-.114-.183-.461-.418-.924-.128s-.436.808-.067 1.397c.364.581.894.81 1.292.56.397-.248.41-.693.268-.92l.516-.323c.388.619.176 1.348-.509 1.776-.689.431-1.537.132-2.097-.763-.565-.902-.458-1.789.272-2.246.733-.459 1.472-.143 1.764.322l-.515.325zm9.088-2.792l.137 1.196.553-.063c.216-.025.82-.192.694-1.297-.116-1.014-.717-1.029-.933-1.004l-.577.066.126 1.102-.646.088c-.098-.857-.192-1.697-.19-1.697l1.303-.15c.428-.049 1.394-.035 1.568 1.485.107.944-.245 1.905-1.048 1.997l-1.428.163s-.104-.908-.204-1.799l.645-.087zm6.148-1.312l-1.735-.083-.037.782 1.56.075-.031.646-1.56-.075-.044.928 1.734.083-.027.571-2.444-.117.167-3.515 2.445.116zm5.099.342l.544 2.402.649-2.018.663.213-1.076 3.349-.636-.204-.609-2.546-.685 2.131-.668-.215 1.076-3.35zm4.015 1.521l-1.492 3.183-.905-.424 1.492-3.184zm2.699 2.898c.115-.183.176-.596-.286-.888-.462-.292-.916-.043-1.287.545-.366.58-.341 1.157.056 1.408.397.25.802.069.946-.157l.515.325c-.389.618-1.138.744-1.821.313-.687-.433-.786-1.328-.223-2.221.568-.9 1.413-1.189 2.141-.73.732.462.769 1.265.476 1.73l-.517-.325zm10.283 13.443c.283-.245.398-.562.284-.896-.172-.499-.726-.666-1.392-.438-.662.227-1.015.716-.834 1.217.149.42.507.609.951.493l-.223-.65.519-.178.411 1.199-1.693.581-.132-.384c.112-.039.264-.111.355-.184-.346-.086-.607-.334-.755-.697-.306-.755.212-1.659 1.198-1.997.987-.338 1.828-.014 2.126.856.236.686-.021 1.403-.632 1.614l-.183-.536zm-.964 3.681c.078.477.411.55.706.502l2.292-.375.109.668-2.283.374c-.56.092-1.237-.096-1.397-1.076-.159-.974.421-1.373.981-1.465l2.283-.374.109.669-2.292.375c-.294.048-.585.229-.508.702zm-45.176 17.231l.25.407.983-1.127-1.45.374c.002-.001.107.168.217.346l-.515.284-.296-.478-.727.188-.347-.559 3.58-.902.41.662-2.403 2.802-.347-.56.495-.562-.366-.591.516-.284zm1.449 4.232l1.565-2.268-1.988 1.802-.439-.484 2.607-2.363.683.753-1.595 2.255 2.403-1.362.683.752-2.607 2.363-.438-.484 1.988-1.801-2.411 1.335zm6.446 1.981l-1.368-1.069-.482.617 1.231.962-.398.509-1.231-.962-.571.731 1.368 1.07-.352.45-1.929-1.507 2.166-2.772 1.929 1.507zm1.291 1.943l.601.337c.19.106.443.031.585-.222.139-.25.046-.499-.178-.624l-.777-.435-.457.817.226.127-.252.581-.281-.158-.666 1.19-.612-.343 1.718-3.071 1.676.938c.422.236.431.816.186 1.253-.247.441-.746.54-.911.449.211.118.308.469.096.85l-.481.86-.591-.331.404-.722c.208-.372.089-.565-.215-.735l-.322-.18.251-.581zm3.811.196l-1.336 3.254-.925-.38 1.336-3.254zm2.845 2.196c.057-.208-.006-.621-.532-.766-.527-.145-.889.226-1.073.896-.182.662.01 1.207.462 1.331.452.125.788-.167.86-.425l.588.161c-.193.704-.873 1.042-1.652.828-.784-.215-1.139-1.042-.86-2.06.281-1.026 1.007-1.548 1.837-1.32.835.229 1.104.987.958 1.517l-.588-.162zm10.318.329c-.033-.213-.26-.565-.8-.48-.54.085-.719.571-.61 1.258.106.678.505 1.096.968 1.023.464-.073.65-.476.609-.741l.602-.095c.114.721-.368 1.308-1.165 1.434-.803.126-1.466-.482-1.63-1.525-.165-1.051.281-1.825 1.132-1.958.855-.134 1.411.446 1.497.989l-.603.095zm3.812-1.663l-1.653.529.239.746 1.488-.477.197.616-1.488.477.284.883 1.653-.53.175.544-2.33.748-1.075-3.35 2.33-.748zm1.484-1.254l2.075 1.326-.957-1.892.622-.314 1.588 3.14-.596.301-2.224-1.384 1.011 1.998-.626.316-1.589-3.139zm5.578.833l-1.723-2.368-.825.6-.347-.477 2.172-1.579.347.476-.83.603 1.723 2.37zm5.163-10.901l2.564 1.303.708-1.393.572.291-1.026 2.018-3.136-1.594zm-23.343 14.217l.475.05-.294-1.466-.587 1.377c0-.002.198.018.406.039l-.089.581-.56-.057-.294.691-.654-.067 1.469-3.387.775.079.755 3.613-.655-.067-.143-.735-.692-.071.088-.58zm23.425-10.236l.28-.386-1.417-.477.9 1.196c-.001-.002.115-.163.237-.333l.46.366-.328.457.452.599-.385.534-2.203-2.962.455-.632 3.508 1.148-.384.534-.709-.242-.405.565-.461-.367zm-3.442 2.894l.487-.488c.154-.154.15-.417-.056-.623-.203-.202-.468-.18-.648.002l-.629.63.663.662.183-.183.49.399-.228.228.965.964-.496.496-2.49-2.486 1.357-1.359c.342-.342.902-.194 1.257.161.358.357.317.864.184.998.171-.172.536-.17.844.138l.697.697-.479.479-.585-.584c-.302-.302-.52-.239-.766.007l-.261.261-.489-.399zm7.422-18.032l-.004.477 1.431-.435-1.428-.45c.003.001.002.199.001.408l-.587-.031.002-.563-.715-.225.002-.658 3.514 1.131-.003.779-3.522 1.104.002-.657.718-.215.002-.695.587.03zm-3.176-11.912l.23.419 1.036-1.079-1.466.305c.002-.002.099.172.2.355l-.527.259-.273-.492-.735.153-.319-.575 3.619-.73.378.681-2.535 2.684-.319-.575.521-.538a120.26 120.26 0 00-.338-.608l.528-.259zm-5.157-6.328l.355.32.625-1.358-1.285.768c.001-.002.149.131.305.27l-.413.418-.419-.375-.644.386-.49-.438 3.179-1.877.58.519-1.513 3.366-.491-.438.316-.679-.518-.463.413-.419zm-25.651-4.133l.442-.181-.952-1.154.133 1.491a19 19 0 01.377-.156l.197.553-.52.215.067.747-.608.251-.307-3.679.72-.297 2.374 2.827-.609.25-.474-.579-.642.264-.198-.552zm-15.595 23.287l-.003-.689c-.001-.218-.192-.4-.482-.399-.286.002-.457.206-.455.462l.004.89.937-.005a7.528 7.528 0 00-.001-.259l.629-.067.002.323 1.363-.007.004.701-3.519.018-.01-1.92c-.002-.483.498-.777.999-.779.505-.003.838.383.838.571-.001-.242.257-.5.693-.502l.985-.005.004.677-.827.004c-.427.002-.536.201-.534.549l.002.369-.629.068zm44.409-16.908l.43.538c.136.17.399.196.625.015.224-.179.231-.444.071-.645l-.556-.695-.731.584.161.203-.451.443-.202-.252-1.065.851-.438-.548 2.749-2.196 1.199 1.5c.302.379.092.918-.3 1.231-.396.316-.895.22-1.013.072.151.189.109.551-.231.823l-.77.615-.423-.529.646-.516c.333-.266.295-.49.078-.762l-.23-.288.451-.444z"/><circle cx="126.103" cy="96.647" r="1" fill="#FFCF46" fill-rule="nonzero"/><circle cx="173.896" cy="96.647" r="1" fill="#FFCF46" fill-rule="nonzero"/><path fill="#B3D2EF" fill-rule="nonzero" d="M142.402 83.677l-.684 1.151 5.453 1.072a5.29 5.29 0 01-.019-.359l-4.75-1.864zm1.759-2.966l-.574.971 4.001 1.841c.043-.089.089-.174.138-.257l-3.565-2.555zm-.816 1.377l-.563.948 4.425 1.707a4.47 4.47 0 01.07-.352l-3.932-2.303zm8.942 5.554l6.239 4.392c.585-.024 2.209-.095 2.54-.109l-8.605-4.619a3.936 3.936 0 01-.174.336zm-2.546 1.459l-.292 3.014c.169-.003.499-.006.557-.008v-2.99h-.005c-.089 0-.175-.005-.26-.016zm.425-7.28l.735-9.427-.901-1.518-.386.649.322 10.291.063-.003c.056.001.112.004.167.008zm11.554 8.802l-1.424-2.403-7.588-1.618c-.042.161-.09.316-.147.466l9.159 3.555zm-2.469-4.162l-.827-1.391-5.594.813a4.528 4.528 0 01-.064.457l6.485.121zm-1.267-2.133l-.621-1.048-4.542 1.678c.016.142.024.285.027.432l5.136-1.062zm-1.198-2.017l-.432-.728-3.701 2.555c.036.118.068.239.094.362l4.039-2.189zm-.819-1.383l-.547-.921-3.086 3.366c.062.112.118.228.17.349l3.463-2.794zm-.765-1.286l-.366-.616-2.889 3.776c.068.082.134.17.197.261l3.058-3.421zm-.681-1.149l-.366-.616-2.735 4.424c.078.057.153.119.225.185l2.876-3.993zm-.828-1.394l-.516-.871-2.148 5.833c.085.042.167.089.248.141l2.416-5.103zm-1.171-1.97l-.706-1.19-1.383 7.918c.075.015.149.034.222.057l1.867-6.785zm-3.847-2.021l-.745 1.254 1.519 7.521c.073-.018.147-.033.223-.044l-.997-8.731zm-1.386 2.334l-.549.926 2.222 5.697c.055-.028.111-.054.168-.077l-1.841-6.546zm-1.069 1.8l-.432.728 2.8 4.323c.049-.035.098-.07.148-.101l-2.516-4.95zm-.893 1.507l-.726 1.223 3.486 2.787c.054-.063.111-.123.169-.18l-2.929-3.83zm-4.711 7.784l-.924 1.671 7.637-1.464a4.847 4.847 0 01-.065-.251l-6.648.044zm-2.155 3.787l-1.042 1.756 10.091-4.835a4.458 4.458 0 01-.094-.236l-8.955 3.315zm4.189.495l.432.687 4.671-3.793a3.792 3.792 0 01-.096-.166l-5.007 3.272zm.824 1.308l.013.019c.394.003.968.012 1.065.012l3.553-3.961a3.27 3.27 0 01-.138-.169l-4.493 4.099zm3.365-1.509c.283-.031.72-.088.844-.101l.907-1.874a2.893 2.893 0 01-.236-.194l-1.515 2.169zm1.319.278c.115.247.377.76.415.821l.685-2.721a2.397 2.397 0 01-.272-.113l-.828 2.013zm2.543 1.204c.25-.006.65-.008.796-.011l-.884-3.053a2.235 2.235 0 01-.27.058l.358 3.006zm1.611-.023c.18-.003.717.001 1.007.004l-2.228-3.238c-.09.048-.184.09-.279.127l1.5 3.107zm1.627.007c.359.002 1.145-.006 1.378-.003l-3.712-3.595a2.372 2.372 0 01-.148.121l2.482 3.477zm1.943-.002c.422-.004 1.257-.01 1.494-.015l-5.285-4.119a3.29 3.29 0 01-.25.308l4.041 3.826z"/><path fill="#4E2F91" fill-rule="nonzero" d="M160.439 88.465a10.724 10.724 0 01.151 3.592l.217-.006a11.114 11.114 0 00-.052-3.054l-.316-.532zm-3.791-6.387a10.841 10.841 0 00-6.649-2.265c-2.503 0-4.808.844-6.647 2.264l-.32.539a10.633 10.633 0 016.967-2.587c2.663 0 5.098.976 6.969 2.589l-.32-.54zm-17.089 6.389l-.316.532a10.996 10.996 0 00-.023 3.259l.218.003a10.667 10.667 0 01-.113-1.557c-.001-.767.08-1.516.234-2.237z"/><path fill="#003976" fill-rule="nonzero" d="M160.756 88.998a11.032 11.032 0 01.052 3.053h.217a11.29 11.29 0 00.013-2.578l-.282-.475zm-4.388-7.393A11.05 11.05 0 00150 79.598c-2.369 0-4.564.742-6.367 2.006l-.28.472A10.843 10.843 0 01150 79.812c2.504 0 4.809.845 6.649 2.265l-.281-.472zm-17.125 7.394l-.281.475a11.085 11.085 0 00.04 2.786l.217-.002a10.926 10.926 0 01.024-3.259z"/><path fill="#009CDC" fill-rule="nonzero" d="M161.038 89.473a11.12 11.12 0 01-.013 2.579l.217.001a11.347 11.347 0 00.049-2.153l-.253-.427zm-4.927-8.3a11.276 11.276 0 00-6.112-1.79c-2.251 0-4.348.657-6.111 1.789l-.256.432a11.052 11.052 0 016.367-2.006c2.369 0 4.565.742 6.368 2.007l-.256-.432zm-17.15 8.301l-.253.426a11.456 11.456 0 00.077 2.362l.217-.002a11.268 11.268 0 01-.041-2.786z"/><path fill="#00AD8E" fill-rule="nonzero" d="M161.291 89.899a11.285 11.285 0 01-.049 2.153l.217-.001a11.759 11.759 0 00.071-1.753l-.239-.399zm-5.415-9.122a11.485 11.485 0 00-5.877-1.61 11.48 11.48 0 00-5.876 1.609l-.235.396a11.27 11.27 0 016.111-1.789c2.251 0 4.349.657 6.112 1.79l-.235-.396zM138.708 89.9l-.237.399a11.753 11.753 0 00.097 1.972l.216-.009a11.467 11.467 0 01-.076-2.362z"/><path fill="#FFF200" fill-rule="nonzero" d="M161.529 90.301a11.61 11.61 0 01-.072 1.756l.217-.005c.051-.443.077-.893.077-1.348l-.001-.031-.221-.372zm-5.875-9.899A11.693 11.693 0 00150 78.953a11.69 11.69 0 00-5.653 1.449l-.223.375A11.478 11.478 0 01150 79.168c2.147 0 4.155.589 5.877 1.61l-.223-.376zm-17.182 9.897l-.223.375-.001.029c0 .527.035 1.048.102 1.557l.219.011a11.589 11.589 0 01-.097-1.972z"/><path fill="#FAAB54" fill-rule="nonzero" d="M161.75 90.673l.001.031c0 .455-.026.905-.076 1.347l.216.001c.038-.337.062-.679.071-1.024l-.212-.355zm-6.308-10.627a11.91 11.91 0 00-5.443-1.309c-1.96 0-3.809.473-5.442 1.308l-.211.356a11.7 11.7 0 015.653-1.449c2.05 0 3.977.526 5.654 1.449l-.211-.355zm-17.193 10.629l-.211.354c.011.417.043.828.095 1.233l.217-.001a11.93 11.93 0 01-.102-1.557l.001-.029z"/><path fill="#ED1C2E" fill-rule="nonzero" d="M161.961 91.029c-.009.345-.033.686-.071 1.023l.217-.001c.025-.226.043-.454.056-.682l-.202-.34zm-6.72-11.323A12.134 12.134 0 00150 78.522c-1.877 0-3.653.426-5.24 1.183l-.202.34A11.919 11.919 0 01150 78.737c1.96 0 3.81.473 5.443 1.309l-.202-.34zm-17.404 11.662c.016.3.042.599.08.893l.217.001a11.919 11.919 0 01-.095-1.233l-.202.339z"/><path fill="#003976" fill-rule="nonzero" d="M143.883 92.8c.269.011 1.03.022 1.198.022.168 0 .358.187-.011.187s-.952.022-1.041.022l-.146-.231zm.404.571c.179 0 .515-.033.627-.022.112.011.168.099 0 .121-.168.022-.381.066-.537.077l-.09-.176zm4.804-.638c.168.033 1.131-.011 1.299-.011v.177c-.403.011-1.03.077-1.198.066l-.101-.232zm4.804-.187c.269 0 .75.022.907.022l-.011.143c-.291-.011-.717.043-.806.043l-.09-.208zm3.17.044c.291-.022.907.011 1.075.011l-.012.165c-.347.011-.772.022-.941.022l-.122-.198zm6.511 1.159c-.397.016-.962.067-1.102.094-.168.033-.235.22.056.176.231-.035.834-.062 1.163-.073l-.117-.197zm-27.24.148c.373.009 1.228.082 1.668.156l.448-.242a25.74 25.74 0 00-1.98-.143l-.136.229zm.379-.638l-.118.2c.591-.136 1.676-.087 2.259.056l.202-.187c-.436-.215-1.781-.165-2.343-.069zm.34-.575l-.214.361c.739-.164 2.063-.303 2.719-.146l.19-.177c-.721-.249-2.117-.1-2.695-.038zm3.404 6.041c-.14-.035.048-.139.233-.219.806-.352 1.837-.154 2.33-.055.484.097.427.205.287.25a59.74 59.74 0 001.601-.038c-.366-.012-.79-.095-1.552-.344-1.075-.352-2.508-.154-3.001 0-.403.126-.881.207-1.384.125.472.133.992.243 1.486.281zm22.013-6.836c-.803-.006-3.042.101-3.795.14-.851.044-4.658.066-5.599.044-.941-.022-5.533.088-6.876.088-1.282 0-7.497-.06-8.786-.085l-.192.324c.74-.01 4.246.046 5.416.025 1.254-.022 4.502.022 5.622 0s3.785-.11 4.301-.088c.515.022 4.255 0 4.95-.044.667-.042 3.15-.105 5.111-.148l-.152-.256zm.302.508a44.14 44.14 0 00-1.834.083c-.18.022-.369.187.056.154.344-.026 1.415-.024 1.905-.023l-.127-.214zm.264.445c-.516.003-1.537.049-1.684.078-.168.033-.28.253.034.187.256-.054 1.289-.072 1.762-.076l-.112-.189zm.296.498c-.471.019-1.266.109-1.42.118-.18.011-.347.187 0 .176.282-.008 1.148-.083 1.529-.111l-.109-.183zm2.198 3.705c-.448.027-1.049-.083-1.301-.178-.291-.11-.537-.154-.156.066.336.194 1.159.353 1.594.343l-.137-.231zm.32.54c-.498.012-1.54-.15-2.27-.498-.829-.396-1.902-.25-2.823-.132-1.724.22-2.598.11-4.009-.22-1.411-.33-3.315-.286-3.964-.022-.649.264-.515.352.179.22.695-.132 2.307-.33 3.696.044 1.389.374 2.71.44 3.561.374s1.546-.154 1.904-.132c.358.022.314.136 0 .176-2.576.33-3.651.418-5.129 0-1.479-.418-2.845-.264-3.831-.132-.985.132-1.971.066-2.889-.286-.919-.352-1.638-.468-2.195-.286-.201.066-.269.176.067.132.336-.044 1.276-.044 2.083.33.806.374 2.038.462 3.136.308 1.097-.154 2.441-.33 3.606.154 1.165.483 2.508.374 3.696.198 1.187-.176 1.993-.396 2.934-.154.83.213 1.955.272 2.424.223l-.176-.297z"/><path fill="#003976" fill-rule="nonzero" d="M166.167 98.115c-.53.092-1.89-.01-2.473-.149-.649-.154-1.703-.022-3.203.264-1.501.286-3.135-.198-3.987-.396-.851-.198-1.903-.22-2.665-.132-.761.088-1.971.242-3.696-.264-2.138-.627-3.27-.352-3.807-.198-.537.154-1.68.154-2.889-.176-1.209-.33-2.307-.242-3.046-.044-.739.198-1.859.352-2.889.044-.952-.285-2.172-.287-2.917-.234l-.148.251c.647-.111 2.143-.147 3.043.203 1.076.418 2.532.245 3.024.088 1.097-.352 1.814-.286 2.889.044.758.232 2.185.275 3.113.044 1.501-.374 2.352-.154 3.584.242 1.232.396 2.934.44 3.853.374.918-.066 1.702-.286 2.822.066s2.62.594 3.919.286 2.464-.352 3.069-.242c.573.104 1.608.248 2.515.113l-.111-.184z"/><path fill="#003976" fill-rule="nonzero" d="M166.418 98.537c-.394.053-1.304.075-2.163-.042-1.397-.192-2.424-.085-3.337.132-1.389.33-2.173.22-3.292-.044-1.12-.264-2.15-.33-3.404-.198s-3.113-.088-4.547-.462c-1.433-.374-2.598-.22-3.651.044-1.052.264-2.687-.022-3.203-.264-.515-.242-1.277-.264-2.307-.044-1.03.22-1.949.154-3.002-.132-.982-.267-2.277-.38-3.191-.233l-.103.173c.673-.076 2.356-.122 3.317.236 1.12.418 2.374.286 3.024.154.649-.132 1.772-.18 2.262.066 1.052.528 2.713.407 3.315.242 1.366-.374 2.374-.374 3.539-.022s3.292.572 4.614.396c.892-.119 2.24-.066 3.337.242a6.165 6.165 0 003.405.022c1.232-.33 2.575-.242 3.315-.132.704.104 1.267.189 2.191.063l-.119-.197z"/><path fill="#003976" fill-rule="nonzero" d="M166.724 99.053c-.431.038-1.823.052-2.425-.009-.65-.066-1.703-.22-2.867.11-1.165.33-2.822.286-3.74-.022-.918-.308-2.105-.418-3.203-.264-1.098.154-2.486.264-4.144-.22-1.657-.484-2.307-.572-4.053-.11-.74.195-4.301.154-5.309.198-1.008.044-2.262-.33-3.024-.638-.72-.291-2.599-.424-3.956-.271l-.157.264c1.273-.264 2.933-.03 3.576.337-.814-.196-2.77-.108-3.822.078l-.233.393c1.663-.364 4.138-.271 5.04-.075 1.008.22 2.665.396 3.74.132 1.037-.255 2.697.064 3.718.462h4.657c-.73-.446-1.589-.194-2.215-.132-.672.065-1.322-.089-1.635-.286-.313-.198 0-.176.538-.33 1.557-.446 2.776.081 3.68.748h3.663c.99-.669 1.867-.342 2.378-.154.129.047.411.103.776.154h3.861c.941-.374 2.173-.242 2.777-.154a7.74 7.74 0 002.499-.01l-.12-.201z"/><path fill="#00AD8E" fill-rule="nonzero" d="M164.055 94.557c-2.374-.038-3.381-1.438-4.258-2.901-.448.022-1.098.089-1.523.066-.067.22-.358.968-.538 1.54-.515-.33-1.052-1.43-1.366-2.045-.246 0-.761.022-1.165-.022-.157.33-.627 1.407-.828 1.847-.381-.396-1.299-1.737-1.635-2.265-.426-.022-1.052.066-1.545.066-.269.791-.806 1.957-1.479 2.638-.493-.483-1.433-2.243-1.747-2.991-.313 0-.941.132-1.299.132-.313.615-1.209 2.463-1.747 3.43-.896-.924-2.016-2.815-2.778-4.09l-1.075.088c-1.352 3.767-3.68 4.284-5.084 4.431l-1.062 1.789c.544.004 1.463.097 2.136.311.762.242 2.173.417 3.27.022 1.098-.396 2.262-.33 3.404-.11 1.142.22 3.069.352 4.748-.461 2.15 1.077 3.517.483 4.569.264 1.053-.22 2.508-.374 3.629-.022 1.477.464 3.378.464 4.771.088 1.684-.455 2.693.427 3.958.482l-1.356-2.287z"/><path fill="#FFE01B" fill-rule="nonzero" d="M141.073 90.051c.089 2.001 1.232 4.096 4.099 6.602.18.011.458.006.643 0-.761-.748-2.48-2.622-3.062-3.535a3.567 3.567 0 01-.045-.429c1.579 1.792 2.743 3.177 4.244 3.837.271-.049.642-.14.887-.231-2.493-1.286-3.854-3.177-5.691-6.333-.359.034-.818.056-1.075.089zm10.633.769c-.426 1.297-.935 2.529-1.674 3.167.123.143.313.297.448.428.313-.242.717-.715.817-.825.19.088.258.462-.247 1.319.65.44 1.747 1.048 2.531 1.289-.655.099-1.438.327-1.792.382-1.433-1.034-2.564-1.737-3.662-3.606-.157.703-.05 1.041.448 1.605.448.506 1.154 1.295 2.497 2.075-.802.023-1.643-.145-2.587-.623-.537-.902-1.612-2.925-1.814-5.409.384-.008.939-.124 1.299-.132.404.899 1.193 2.392 1.747 2.991.474-.478 1.112-1.534 1.479-2.638.134-.004.438-.017.51-.023zm3.889.399c-.135.648-.58 1.646-.893 2.185-.09-.099-.244-.253-.325-.363l.828-1.847c.102.009.317.031.39.025zm-.781 2.646c.123.067.347.231.437.275.258-.396.313-.715.246-1.308-.303.242-.336.792-.683 1.033zm2.922-.604c.123.11.269.209.381.286.224-.615.482-1.407.549-1.825a3.008 3.008 0 01-.392 0c-.227.64-.47 1.319-.538 1.539z"/><path d="M166.941 99.418L150 70.876l-16.941 28.542z"/></g></svg>