<svg xmlns="http://www.w3.org/2000/svg" width="100%" height="100%" viewBox="-3.2 -3.2 38.4 38.4"><path d="M29.771 10.469l-.953-.531C30.287 7.844 31.162 4.704 30.063 0c0 0-2.474 6.703-7.453 6.484l-5.823-3.24a1.585 1.585 0 00-.719-.203h-.135c-.25.01-.495.078-.714.203l-5.828 3.24C4.412 6.708 1.938 0 1.938 0 .839 4.703 1.714 7.844 3.183 9.938l-.953.531c-.484.26-.786.766-.786 1.318L1.47 31.24c0 .271.146.521.396.656.24.141.536.141.776 0l7.719-4.271a1.52 1.52 0 00.786-1.318v-9.089c0-.542.297-1.047.786-1.313l3.286-1.828c.24-.135.51-.208.786-.208.266 0 .542.068.781.208l3.286 1.828c.484.266.781.771.781 1.313v9.089c0 .542.302 1.036.786 1.318l7.719 4.271a.783.783 0 00.786 0 .745.745 0 00.385-.656l.026-19.453c0-.552-.302-1.057-.786-1.318z"/></svg>