<svg xmlns="http://www.w3.org/2000/svg" width="100%" height="100%" viewBox="-51.2 -51.2 614.4 614.4"><path fill="var(--ci-primary-color, currentColor)" d="M88 72v316a20 20 0 01-40 0V152H16v236a52.059 52.059 0 0052 52h376a52.059 52.059 0 0052-52V72zm376 316a20.023 20.023 0 01-20 20H116a51.722 51.722 0 004-20V104h344z" class="ci-primary"/><path fill="var(--ci-primary-color, currentColor)" d="M296 136H152v160h144zm-32 128h-80v-96h80zM328 136h104v32H328zM328 200h104v32H328zM328 264h104v32H328z" class="ci-primary"/></svg>