<svg xmlns="http://www.w3.org/2000/svg" width="100%" height="100%" viewBox="-77.5 -38 456 456"><g fill="none"><path fill="#003893" d="M.5 380V0l300 188.402H102.37L293.418 380z"/><path fill="#DC143C" d="M7.174 181.741h270.184L7.174 12.06v361.276h270.184L7.174 102.38z"/><path fill="#FFF" d="M20.907 118.111c11.681 29.805 45.242 44.471 74.962 32.757a57.903 57.903 0 0032.663-32.757c0 29.805-24.093 53.967-53.813 53.967-29.719 0-53.812-24.162-53.812-53.967"/><ellipse cx="74.72" cy="143.224" fill="#FFF" rx="25.041" ry="25.114"/><path fill="#FFF" d="M84.303 120.022l-2.798-11.005-6.785 9.093m17.707 7.356l1.614-11.241-9.738 5.797m13.552 13.592l5.781-9.766-11.209 1.619m7.335 17.757l9.068-6.804-10.974-2.806m-.001 19.221l10.974-2.806-9.068-6.804m-7.334 17.757l11.209 1.619-5.781-9.766m-32.718-32.813l2.798-11.005 6.785 9.093"/><path fill="#FFF" d="M57.013 125.466l-1.614-11.241 9.739 5.797m-13.554 13.592l-5.781-9.766 11.21 1.619"/><path fill="#FFF" d="M49.678 143.224l-9.068-6.804 10.974-2.806m0 19.221l-10.974-2.806 9.068-6.804m-3.868 84.097l2.98 24.213-24.143-2.989 14.652 19.475-22.399 9.518 22.399 9.518-14.652 19.475 24.143-2.989-2.98 24.212 19.419-14.694 9.491 22.463 9.491-22.463 19.419 14.694-2.98-24.212 24.144 2.989-14.654-19.475 22.4-9.518-22.4-9.518 14.654-19.475-24.144 2.989 2.98-24.213-19.419 14.695-9.491-22.463-9.491 22.463z"/></g></svg>