<svg xmlns="http://www.w3.org/2000/svg" width="100%" height="100%" viewBox="-3.2 -3.2 38.4 38.4"><path d="M30.359 16.005c0 7.911-6.443 14.354-14.359 14.354-7.911-.005-14.349-6.443-14.349-14.354 0-7.922 6.438-14.359 14.354-14.359 7.911 0 14.354 6.438 14.354 14.359zm.386-6.234a15.812 15.812 0 00-3.427-5.083 15.919 15.919 0 00-5.083-3.427 15.777 15.777 0 00-6.229-1.26A15.902 15.902 0 004.693 4.689a15.942 15.942 0 00-3.427 5.083 15.762 15.762 0 00-1.26 6.234c0 2.161.417 4.255 1.255 6.229a15.812 15.812 0 003.427 5.083A15.938 15.938 0 0016.001 32c2.156 0 4.255-.427 6.229-1.255a15.838 15.838 0 005.083-3.427c3.005-3 4.693-7.073 4.682-11.313 0-2.167-.411-4.255-1.25-6.234zM11.422 19.51v-7.161l3.432 3.578zM9.771 8.396v15.229l10.818-11.276v9.026a.828.828 0 001.656-.005V8.38l-6.24 6.359z"/></svg>