<svg xmlns="http://www.w3.org/2000/svg" width="100%" height="100%" viewBox="-3.2 -3.2 38.4 38.4"><path d="M19.339 23.255a15.57 15.57 0 004.801-1.989 2.42 2.42 0 00-2.577-4.094 10.504 10.504 0 01-11.125 0 2.42 2.42 0 00-3.333.749v.005a2.413 2.413 0 00.756 3.333l.004.005a15.421 15.421 0 004.792 1.985l-4.62 4.619a2.394 2.394 0 00-.036 3.381l.041.041c.459.473 1.079.708 1.699.708s1.239-.235 1.697-.708l4.563-4.537 4.536 4.543c.964.921 2.495.9 3.423-.063a2.418 2.418 0 000-3.36zM16 16.516a8.265 8.265 0 008.26-8.256C24.26 3.708 20.552 0 16 0S7.74 3.708 7.74 8.26A8.27 8.27 0 0016 16.521zm0-11.672a3.418 3.418 0 013.416 3.416A3.424 3.424 0 0116 11.683a3.43 3.43 0 01-3.421-3.423A3.433 3.433 0 0116 4.839z"/></svg>