<svg xmlns="http://www.w3.org/2000/svg" width="100%" height="100%" viewBox="-3.2 -3.2 38.4 38.4"><path d="M16 0C7.161 0 0 7.161 0 16s7.161 16 16 16 16-7.161 16-16S24.839 0 16 0zM9.823 5.839c.704 0 1.265.573 1.265 1.26 0 .688-.561 1.265-1.265 1.265a1.268 1.268 0 01-1.26-1.265c0-.697.563-1.26 1.26-1.26zm-.959 4.046h1.923v13.391H8.864zm4.751 0h5.197c4.948 0 7.125 3.541 7.125 6.703 0 3.439-2.687 6.699-7.099 6.699h-5.224zm1.921 1.74v9.927h3.063c4.365 0 5.365-3.312 5.365-4.964 0-2.687-1.713-4.963-5.464-4.963z"/></svg>