<svg xmlns="http://www.w3.org/2000/svg" width="100%" height="100%" viewBox="-51.2 -51.2 614.4 614.4"><path fill="var(--ci-primary-color, currentColor)" d="M400 168h-72v-56h32V16h-96v32H112V16H16v96h32v152H16v96h96v-32h72v72h-32v96h96v-32h152v32h96v-96h-32V232h32v-96h-96zM296 48h32v32h-32zm32 248v32h-32v-32zM48 48h32v32H48zm32 280H48v-32h32zm32-32v-32H80V112h32V80h152v32h32v152h-32v32zm104 168h-32v-32h32zm248 0h-32v-32h32zm-32-296h32v32h-32zm0 232h-32v32H248v-32h-32v-72h48v32h96v-96h-32v-64h72v32h32z" class="ci-primary"/></svg>