<svg xmlns="http://www.w3.org/2000/svg" width="100%" height="100%" viewBox="-3.2 -3.2 38.4 38.4"><path d="M3.563 31.959c-.469-.12-.713-.313-1.964-1.557C.115 28.918.022 28.771.027 28.001c0-.86-.267-.552 4.489-5.317 4.796-4.808 4.552-4.6 5.416-4.6.407 0 .505.021.828.188l.371.188 2.323-2.323-.292-.459c-.563-.885-1.099-2.172-1.339-3.24a10.201 10.201 0 011.975-8.588c3.317-4.156 9.276-5.084 13.676-2.115 2.417 1.625 3.991 4.129 4.439 7.083.093.625.093 2.104 0 2.767a10.086 10.086 0 01-2.939 5.869 8.981 8.981 0 01-2.593 1.869c-1.276.641-2.364.943-3.839 1.068-2.099.177-4.427-.407-6.208-1.547l-.459-.292-2.328 2.323.188.376c.167.323.187.421.187.823.005.864.209.62-4.567 5.396-3.683 3.676-4.251 4.219-4.532 4.348-.359.167-.916.229-1.26.141zm19.749-13.36a8.572 8.572 0 006.141-4.677c1.853-3.869.604-8.411-2.975-10.812-.848-.573-2.036-1.057-3.156-1.281-.771-.156-2.411-.14-3.219.032a8.733 8.733 0 00-3.265 1.421c-.593.416-1.573 1.396-1.984 1.979a8.516 8.516 0 00.505 10.543 8.536 8.536 0 005.203 2.848c.677.104 2.057.079 2.755-.047zm-4.984 9.833c-.979-.271-1.953-.563-2.927-.864-.032-.037 1.609-5.865 1.677-5.932.031-.037 5.656 1.536 5.885 1.645.083.036-.005.385-.704 2.801l-.844 2.985c-.036.115-.093.208-.129.208a257.75 257.75 0 01-2.959-.844zm3.885.704c0-.073 1.636-5.781 1.661-5.797.063-.047 5.765-1.641 5.787-1.615.027.025-1.599 5.781-1.64 5.812-.027.027-5.5 1.589-5.677 1.625-.073.016-.131 0-.131-.025zm-9.473-2.552c1.124-1.136 2.129-2.168 2.229-2.303.228-.292.541-.975.629-1.355.037-.156.073-.468.079-.692l.016-.412.239-.068c.141-.036.261-.057.271-.047.032.037-1.609 5.761-1.661 5.813-.025.02-.901.285-1.953.583l-1.895.541 2.047-2.057zm11.052-4.079a2.421 2.421 0 01-.079-.251l-.063-.208.209-.036c1.785-.303 3.703-1.141 5.213-2.281.213-.167.333-.229.353-.183.068.219.36 1.265.355 1.281-.047.041-5.975 1.708-5.989 1.683zM3.683 20.771c-.068-.052-1.573-5.151-1.688-5.719-.021-.115.193-.057 2.901.713 2.823.808 2.921.839 2.959.989.041.131.015.172-.167.297-.109.079-1.027.964-2.032 1.969a77.54 77.54 0 01-1.849 1.823c-.02 0-.077-.032-.124-.073zm1.093-5.839a409.337 409.337 0 01-2.891-.833c-.021-.016 1.683-5.911 1.713-5.948.032-.025 5.896 1.615 5.959 1.672.011.011-.36 1.355-.823 2.984-.771 2.693-.86 2.964-.964 2.959-.068 0-1.411-.38-3-.833zm3.943.719c.016-.041.287-.963.593-2.047l.557-1.964.079.428c.125.739.355 1.583.62 2.317.14.396.244.719.239.729a20.47 20.47 0 01-.957.281c-.521.145-.989.281-1.047.301-.079.021-.105.005-.084-.047zm-2.178-7.5c-1.583-.453-2.891-.848-2.905-.875-.057-.083-1.663-5.76-1.641-5.781.032-.036 5.745 1.604 5.803 1.661.063.068 1.703 5.839 1.661 5.833L6.547 8.15zm2.866-2.287l-.693-2.405-.104-.376 2.255-.645c1.245-.349 2.297-.656 2.349-.677.041-.02-.115.188-.349.448a11.634 11.634 0 00-2.609 4.765 5.44 5.44 0 00-.176.745c0 .396-.157-.031-.672-1.849z"/></svg>