<svg xmlns="http://www.w3.org/2000/svg" width="100%" height="100%" viewBox="-3.2 -3.2 38.4 38.4"><path d="M28.682 10.807a1.332 1.332 0 00-.948.354c-.849.802-.313 2.234.854 2.286a1.32 1.32 0 00.094-2.641zm.214 1.443c-.323 0-.583-.172-.583-.385 0-.219.26-.391.583-.391s.589.172.589.391c0 .214-.266.385-.589.385zm3.073 1.573c.01-.005.036-.026.031-.042-.073-.458-.755-2.672-1.271-3.208-.141-.146-.255-.286-.484-.422-1.865-1.083-6.281-1.74-6.49-1.771 0 0-.021-.005-.036.01-.01.01-.016.031-.016.031l-.016 1.021c-.453-.151-3.734-1.214-6.813-1.323-2.609-.089-6.406-.427-11.448 2.672l-.146.094c-2.37 1.474-4.005 3.297-4.859 5.411-.271.667-.63 2.172-.271 3.583a5.34 5.34 0 00.828 1.797c.875 1.26 2.339 2.094 3.922 2.234 2.234.198 3.922-.802 4.521-2.682.417-1.292 0-3.193-1.583-4.161-1.286-.792-2.672-.609-3.479-.078-.698.464-1.089 1.182-1.083 1.969.016 1.401 1.224 2.141 2.089 2.146.255 0 .505-.042.792-.135.104-.031.208-.078.302-.135l.031-.021.021-.01h-.005a.706.706 0 00.286-.781.7.7 0 00-.813-.5l-.052.01-.063.016-.099.036a1.824 1.824 0 01-.38.052c-.099-.005-.599-.156-.599-.703v-.005a.77.77 0 01.125-.417c.156-.245.578-.484 1.151-.432.755.063 1.297.453 1.656 1.177.333.677.25 1.516-.224 2.125-.469.604-1.302.865-2.411.745S3 21.345 2.489 20.355c-.521-.979-.547-2.146-.073-3.036 1.13-2.135 3.271-2.115 4.443-1.911 1.734.302 3.714 1.901 4.411 3.75.115.297.172.531.224.745l.073.318 1.964.958c.042.021.057.026.073.016.021-.016.01-.057.01-.057-.016-.047-.042-.083-.089-.635-.036-.484-.115-1.818.557-2.479.26-.26.656-.49.974-.563 1.286-.313 2.792-.099 4.214 1.552.74.854 1.099 1.24 1.281 1.411 0 0 .042.042.063.057.026.021.042.036.073.057.063.031 2.453 1.135 2.453 1.135s.026.01.047-.016c.021-.026 0-.047 0-.047-.016-.021-1.516-1.958-1.25-3.557.214-1.271 1.224-1.151 2.625-.995.458.052.979.115 1.516.125 1.505.01 3.125-.271 4.12-.708.646-.276 1.057-.464 1.318-.698.094-.078.141-.203.193-.339l.036-.089c.042-.109.099-.339.125-.464.016-.057.026-.109-.021-.146-.042-.031-.135.026-.135.026-.443.266-1.536.766-2.563.786-1.271.026-3.849-1.292-4.115-1.427-.177-.427-.354-.854-.536-1.276 1.844 1.214 3.37 1.885 4.542 1.99 1.302.115 2.323-.594 2.76-.891.057-.036.115-.083.167-.125zm-5.229-1.745a1.89 1.89 0 011.958-1.823 1.89 1.89 0 011.224 3.271 1.87 1.87 0 01-1.359.51 1.902 1.902 0 01-1.823-1.958z"/></svg>