<svg xmlns="http://www.w3.org/2000/svg" width="100%" height="100%" viewBox="-3.2 -3.2 38.4 38.4"><path d="M16 32C7.188 32.027.021 24.896 0 16.083V16C0 7.136 7.136 0 16 0s16 7.136 16 16-7.136 16-16 16zm0-6.333l1.197-1.197L16 19.865l-1.197 4.605zm-1.531-.068l-.605 2.265 1.401-1.4zm3.062 0l-.796.803 1.401 1.401zm1.136 4.136L16 27.068l-2.667 2.667c.864.135 1.735.265 2.667.265s1.803-.068 2.667-.265zM16 2C8.265 2 2 8.265 2 16a13.923 13.923 0 009.401 13.197l3-11.129a2.6 2.6 0 01-1.068-2.136c0-1.468 1.197-2.667 2.667-2.667s2.667 1.199 2.667 2.667c0 .865-.401 1.599-1.068 2.136l3 11.129A13.924 13.924 0 0030 16c0-7.735-6.265-14-14-14zm9.136 20.932a1.034 1.034 0 01-1.401.204.913.913 0 01-.261-1.256c.021-.031.043-.057.063-.083 0 0 1.797-2.396 1.797-5.797s-1.797-5.803-1.797-5.803a.903.903 0 01.12-1.276c.027-.02.052-.041.079-.057a1.037 1.037 0 011.401.199c.129.135 2.197 2.869 2.197 6.932 0 4.068-2.068 6.808-2.197 6.937zm-4.871-2.599c-.401-.401-.333-1.136.068-1.531 0 0 1-1.068 1-2.803s-1-2.735-1-2.803c-.401-.4-.401-1.067-.068-1.531a.92.92 0 011.401-.068c.068.068 1.667 1.735 1.667 4.401s-1.599 4.333-1.667 4.401c-.401.401-1 .333-1.401-.068zm-8.53 0c-.401.401-1 .469-1.401.068-.068-.136-1.667-1.735-1.667-4.401s1.599-4.265 1.667-4.401c.401-.401 1.068-.401 1.401.068.401.401.333 1.136-.068 1.531 0 .068-1 1.068-1 2.803s1 2.803 1 2.803c.401.395.469 1.061.068 1.531zm-3.47 2.803a1.034 1.034 0 01-1.401-.204c-.129-.129-2.197-2.864-2.197-6.932s2.068-6.803 2.197-6.932a1.034 1.034 0 011.401-.204.913.913 0 01.261 1.256c-.021.025-.043.057-.057.077 0 0-1.803 2.401-1.803 5.803s1.803 5.803 1.803 5.803c.333.395.197 1-.204 1.333z"/></svg>