<svg xmlns="http://www.w3.org/2000/svg" width="100%" height="100%" viewBox="-3.2 -3.2 38.4 38.4"><path d="M-.136 16.708C.016 7.943 6.151 1.703 13.661.693 22.62-.506 30.156 5.588 31.604 13.672c1.375 7.667-2.839 14.844-9.787 17.688-.599.244-.927.109-1.156-.5l-3.453-8.969c-.197-.527-.063-.855.453-1.088 1.563-.709 2.536-1.896 2.797-3.6a4.615 4.615 0 00-4.161-5.307 4.615 4.615 0 00-5 3.853c-.339 2.131.713 4.115 2.697 5.016.62.281.745.557.505 1.188l-3.469 9.031c-.167.443-.531.6-1 .417a15.964 15.964 0 01-8.437-7.677c-1.609-3.177-1.624-5.661-1.729-7.021zm1.349-.124c.027.427.041.921.084 1.427.405 4.64 3.197 9.26 8.452 11.817.209.093.287.052.365-.145.959-2.527 1.927-5.052 2.901-7.579.083-.208.041-.307-.152-.427-2.041-1.287-3.057-3.131-2.943-5.552.063-1.391.6-2.615 1.537-3.636 1.932-2.109 4.968-2.568 7.453-1.135a5.931 5.931 0 012.916 5.839c-.235 1.968-1.244 3.479-2.953 4.5-.172.104-.224.187-.145.389.979 2.532 1.953 5.063 2.916 7.595.079.203.157.244.36.145 2.297-1.068 4.208-2.599 5.688-4.64 2.244-3.115 3.171-6.579 2.728-10.391C29.54 7.207 22.717.926 13.931 2.01 7.087 2.849 1.327 8.625 1.212 16.583z"/></svg>