<svg xmlns="http://www.w3.org/2000/svg" width="100%" height="100%" viewBox="-51.2 -51.2 614.4 614.4"><path fill="var(--ci-primary-color, currentColor)" d="M491.693 256.705l-54.957-49.461 16.407-13.406a80.491 80.491 0 0018.363-21.522c18.148-31.441 12.867-70.042-13.144-96.052s-64.612-31.291-96.051-13.142a80.513 80.513 0 00-21.52 18.362l-13.408 16.407-49.461-54.956-.579-.611a24.028 24.028 0 00-33.941 0l-65.6 65.605 1.19 23.7 33.108 27.056a48.6 48.6 0 0111.079 12.889c10.807 18.722 7.57 41.8-8.056 57.426s-38.7 18.862-57.426 8.058a48.66 48.66 0 01-12.9-11.086l-27.047-33.1-23.7-1.189-71.26 71.26a24 24 0 000 33.942l175.357 175.359a80 80 0 00113.138 0L492.3 291.225a24.029 24.029 0 000-33.94zM288.657 449.617a48 48 0 01-67.883 0L51.069 279.911l53.1-53.095 15.91 19.473.1.119a80.487 80.487 0 0021.521 18.363c31.441 18.149 70.041 12.867 96.052-13.144s31.291-64.61 13.143-96.05a80.482 80.482 0 00-18.363-21.521l-19.591-16.01 47.124-47.124 56.018 62.241 24.282-.579 25.062-30.67a48.611 48.611 0 0112.888-11.078c18.722-10.807 41.8-7.569 57.426 8.056s18.864 38.7 8.057 57.426a48.591 48.591 0 01-11.079 12.889l-30.67 25.061-.58 24.282 62.243 56.018z" class="ci-primary"/></svg>