<svg xmlns="http://www.w3.org/2000/svg" width="100%" height="100%" viewBox="-30.1 -105.1 361.2 361.2"><g fill="none"><path fill="#0038A8" d="M.5.5h300v150H.5z"/><path fill="#CE1126" d="M.5 75.5h300v75H.5z"/><path fill="#FFF" d="M130.404 75.5L.5 150.5V.5"/><circle cx="47.167" cy="75.5" r="15" fill="#FCD116"/><path fill="#FCD116" d="M15.5 75.5l1.948 1.948L47.167 75.5l-29.719-1.948z"/><path fill="#FCD116" d="M18.834 79.23l1.59 1.589 26.744-5.32z"/><path fill="#FCD116" d="M18.834 71.77l1.59-1.59 26.744 5.32z"/><path fill="#FCD116" d="M24.775 53.108v2.755L47.167 75.5 27.53 53.108zm-.281 4.995v2.248L47.167 75.5zm5.276-5.275h2.248L47.167 75.5zm17.397-8.995l-1.948 1.948L47.167 75.5l1.948-29.719z"/><path fill="#FCD116" d="M43.437 47.166l-1.59 1.59 5.32 26.744zm7.46 0l1.59 1.59-5.32 26.744zm18.662 5.942h-2.755L47.167 75.5l22.392-19.637zm-4.995-.28h-2.248L47.167 75.5zm5.275 5.275v2.248L47.167 75.5zM78.834 75.5l-1.948-1.948L47.167 75.5l29.719 1.948z"/><path fill="#FCD116" d="M75.5 71.77l-1.59-1.59-26.744 5.32z"/><path fill="#FCD116" d="M75.5 79.23l-1.59 1.589-26.744-5.32zm-5.941 18.662v-2.755L47.167 75.5l19.637 22.392zm.28-4.995v-2.248L47.167 75.5zm-5.275 5.275h-2.248L47.167 75.5z"/><path fill="#FCD116" d="M47.167 107.166l1.948-1.948-1.948-29.719-1.948 29.719zm3.73-3.333l1.59-1.59-5.32-26.744zm-7.46 0l-1.59-1.59 5.32-26.744z"/><path fill="#FCD116" d="M24.775 97.892h2.755L47.167 75.5 24.775 95.137z"/><path fill="#FCD116" d="M29.77 98.172h2.248l15.149-22.673z"/><path fill="#FCD116" d="M24.494 92.897v-2.248L47.167 75.5zM4.016 22.44l5.92.744 1.36 5.811 2.538-5.401 5.946.502-4.353-4.082 2.316-5.5-5.228 2.878L8 13.49l1.122 5.861zm0 106.12l5.106 3.088L8 137.51l4.515-3.903 5.228 2.878-2.316-5.499 4.353-4.083-5.946.503-2.538-5.401-1.36 5.811zm96.313-57.958l3.408 4.898-3.408 4.898 5.712-1.728 3.605 4.755.121-5.966 5.637-1.959-5.637-1.96-.121-5.966-3.605 4.756z"/></g></svg>