<svg xmlns="http://www.w3.org/2000/svg" width="100%" height="100%" viewBox="-3.2 -3.2 38.4 38.4"><path d="M20.484 12.584h-4.197c-1.292 0-1.927.801-1.927 1.837v3.157c0 .645-.308 1.109-.948 1.109H9.74a.046.046 0 00-.047.047v.625c0 .025.009.041.041.041h4.145c1.292 0 1.932-.797 1.932-1.833v-3.156c0-.647.303-1.109.948-1.109h3.709c.025 0 .052-.016.052-.043v-.635c0-.027-.027-.047-.052-.047zm-12.353 0H.052c-.031 0-.052.02-.052.047v.635c0 .027.021.047.052.047H7.64c.641 0 .948.464.948 1.109 0 .647-.301 1.105-.948 1.105H1.636C.703 15.527 0 16.312 0 17.35v2.015c0 .032.027.052.052.052h1.375c.027 0 .052-.02.052-.052V17.35c0-.641.376-1.095.907-1.095h5.751c1.291 0 1.921-.791 1.921-1.833 0-1.036-.631-1.837-1.921-1.837zm23.27 3.333a.057.057 0 010-.079c.401-.333.599-.833.599-1.417 0-1.036-.631-1.837-1.927-1.837h-8.079c-.025 0-.047.025-.047.052v.629c0 .032.025.057.052.057h7.599c.641 0 .953.464.953 1.104 0 .641-.301 1.109-.948 1.109h-7.599c-.027 0-.047.027-.047.052v.641c0 .025.02.041.047.041h7.599c.844.011.948.828.948 1.245v.077c0 .647-.307 1.109-.948 1.109h-7.599a.046.046 0 00-.047.047v.636c0 .027.02.047.047.047h8.068c1.296 0 1.927-.859 1.927-1.839v-.072c0-.631-.197-1.224-.599-1.589z"/></svg>