<svg xmlns="http://www.w3.org/2000/svg" width="100%" height="100%" viewBox="-3.2 -3.2 38.4 38.4"><path d="M11.979 3.464V26.86l5.219 1.681V8.917c0-.923.407-1.537 1.063-1.324.844.245 1.011 1.089 1.011 2.011v7.833c3.256 1.589 5.817-.005 5.817-4.203 0-4.317-1.5-6.235-5.916-7.771-1.745-.6-4.975-1.584-7.188-2zm6.209 21.656l8.396-3.037c.952-.343 1.099-.832.328-1.088-.781-.255-2.183-.188-3.147.161l-5.604 2v-3.183l.317-.109s1.604-.561 3.885-.823c2.261-.239 5.048.041 7.251.88 2.464.803 2.724 1.964 2.099 2.767-.62.796-2.161 1.38-2.161 1.38l-11.391 4.14v-3.063zm-15.776-.317c-2.537-.729-2.953-2.224-1.803-3.1 1.068-.776 2.875-1.4 2.875-1.4l7.489-2.683v3.083l-5.364 1.964c-.943.36-1.099.844-.317 1.099.781.261 2.181.204 3.12-.156l2.583-.943v2.765c-.156.037-.339.057-.521.099-2.583.439-5.323.261-8.047-.64z"/></svg>