<svg xmlns="http://www.w3.org/2000/svg" width="100%" height="100%" viewBox="-3.2 -3.2 38.4 38.4"><path d="M16 0C8.307 0 2.099 5.984 2.099 13.964c0 8.005 6.208 13.968 13.901 13.968a14.14 14.14 0 003.781-.516l1.511 3.896c.156.423.468.688 1.025.688h2.401c.579 0 1-.38.735-1.109l-1.959-5.093c3.849-2.428 6.407-6.719 6.407-11.855C29.901 5.984 23.693 0 16 0zm6.047 22.083l-1.755-4.561c-.156-.376-.469-.729-1.136-.729h-2.287c-.577 0-1.025.375-.76 1.109l2.312 5.984a9.647 9.647 0 01-2.421.287c-5.625 0-9.631-4.427-9.631-10.208S10.374 3.761 16 3.761c5.625 0 9.631 4.423 9.631 10.204 0 3.38-1.36 6.271-3.584 8.119z"/></svg>