<svg xmlns="http://www.w3.org/2000/svg" width="100%" height="100%" viewBox="-3.2 -3.2 38.4 38.4"><path d="M16.24.005A15.981 15.981 0 004.688 4.688c-6.245 6.249-6.245 16.38 0 22.629 6.249 6.245 16.38 6.245 22.624 0 6.251-6.249 6.251-16.38 0-22.629A15.981 15.981 0 0016.24.005zm-5.88 7.99c.749.167 1.4.287 2.219.287 1.228 0 2.484-.287 3.713-.287 2.385 0 4.599 1.084 4.599 3.735 0 2.052-1.229 3.353-3.131 3.907l3.713 5.473h1.735v1.349h-2.645l-4.391-6.584h-2.344v5.235h2.292v1.349h-5.76V21.11h1.979V9.511l-1.979-.245V7.99zm5.952 1.349c-.791 0-1.615.068-2.484.167v5.068l1.255.025c3.063.041 4.245-1.135 4.245-2.703 0-1.833-1.328-2.557-3.016-2.557z"/></svg>