<svg xmlns="http://www.w3.org/2000/svg" width="100%" height="100%" viewBox="-3.2 -3.2 38.4 38.4"><path d="M31.99 19.12c-.01.307-.417.646-1.245 1.078-1.708.891-10.552 4.531-12.438 5.51-1.885.984-2.927.974-4.417.26-1.49-.708-10.901-4.516-12.599-5.323-.844-.406-1.276-.745-1.292-1.068v3.234c0 .323.448.661 1.292 1.068 1.698.813 11.115 4.615 12.599 5.323 1.49.714 2.531.724 4.417-.26 1.885-.979 10.729-4.62 12.438-5.51.87-.448 1.255-.802 1.255-1.12v-3.188c0-.005-.005-.005-.01-.005zm0-5.271c-.016.302-.417.641-1.245 1.078-1.708.885-10.552 4.526-12.438 5.505-1.885.984-2.927.974-4.417.266-1.49-.714-10.901-4.516-12.599-5.328-.844-.401-1.276-.745-1.292-1.068v3.234c0 .323.448.667 1.292 1.068 1.698.813 11.109 4.615 12.599 5.328 1.49.708 2.531.719 4.417-.26 1.885-.984 10.729-4.62 12.438-5.51.87-.453 1.255-.807 1.255-1.125v-3.188h-.01zm0-5.474c.016-.323-.406-.609-1.266-.922-1.661-.609-10.458-4.109-12.141-4.729-1.682-.615-2.37-.589-4.349.12-1.979.714-11.339 4.385-13.005 5.036-.833.328-1.24.63-1.224.953v3.234c0 .323.443.661 1.292 1.068 1.693.813 11.109 4.615 12.599 5.328 1.484.708 2.531.719 4.417-.266 1.88-.979 10.729-4.62 12.438-5.505.865-.453 1.25-.807 1.25-1.125V8.374zm-20.532 3.063l7.417-1.135-2.24 3.281zm16.401-2.959L23 10.401l-4.385-1.734 4.854-1.917zM14.984 5.302l-.719-1.323 2.24.875 2.109-.688-.573 1.365 2.151.807-2.771.286-.625 1.495-1-1.667-3.203-.286zm-5.526 1.87c2.193 0 3.964.688 3.964 1.531 0 .849-1.776 1.536-3.964 1.536s-3.964-.688-3.964-1.536c0-.844 1.776-1.531 3.964-1.531z"/></svg>