<svg xmlns="http://www.w3.org/2000/svg" width="100%" height="100%" viewBox="-3.2 -3.2 38.4 38.4"><path d="M22.177 22.005c1.161-.099 2.057-1.12 2-2.339-.063-1.219-1.063-2.197-2.276-2.197h-.084a2.28 2.28 0 00-2.197 2.359c.041.641.301 1.156.661 1.536-1.401 2.719-3.495 4.715-6.677 6.396-2.135 1.115-4.391 1.537-6.588 1.235-1.839-.255-3.276-1.077-4.156-2.396-1.319-2-1.439-4.151-.339-6.312.801-1.557 2-2.699 2.796-3.256a13.582 13.582 0 01-.557-2.057c-5.916 4.235-5.312 10.032-3.515 12.767 1.339 2 4.072 3.276 7.067 3.276.803 0 1.641-.057 2.459-.261 5.199-1 9.131-4.115 11.385-8.708zm7.13-4.994c-3.093-3.636-7.651-5.636-12.843-5.636h-.683c-.333-.735-1.115-1.197-1.995-1.197h-.057c-1.26 0-2.24 1.083-2.199 2.339.043 1.197 1.057 2.197 2.276 2.197h.1a2.261 2.261 0 002-1.401h.739c3.079 0 5.991.901 8.652 2.657 2.031 1.337 3.495 3.099 4.312 5.197.719 1.713.677 3.396-.063 4.797-1.135 2.192-3.057 3.353-5.588 3.353-1.599 0-3.156-.5-3.959-.859-.479.396-1.281 1.057-1.86 1.459 1.761.796 3.537 1.255 5.256 1.255 3.896 0 6.792-2.193 7.891-4.312 1.197-2.396 1.099-6.433-1.959-9.891zM8.651 22.724a2.304 2.304 0 002.281 2.197h.079a2.253 2.253 0 002.197-2.359c0-1.199-1.036-2.199-2.255-2.199h-.084c-.077 0-.197 0-.301.043-1.656-2.797-2.355-5.797-2.095-9.032.157-2.437.959-4.552 2.396-6.312 1.199-1.495 3.453-2.24 4.995-2.276 4.313-.084 6.115 5.296 6.251 7.432l2 .599C23.651 4.265 19.579.828 15.683.828c-3.656 0-7.032 2.656-8.391 6.552-1.855 5.199-.636 10.188 1.64 14.188-.197.255-.317.719-.281 1.156z"/></svg>