<svg xmlns="http://www.w3.org/2000/svg" width="100%" height="100%" viewBox="-51.2 -51.2 614.4 614.4"><path fill="var(--ci-primary-color, currentColor)" d="M353.415 200l-30.981-57.855-60.717-20.239-.14.432L167.21 149.3A32.133 32.133 0 00144 180.068V264h32v-83.931l73.6-21.028-32.512 99.633-.155-.056-29.464 82.5a16.088 16.088 0 01-20.127 9.8l-66.282-22.097-10.12 30.358 66.282 22.093a48 48 0 0060.378-29.391l24.232-67.849 17.173 5.6 48.3 48.3A15.9 15.9 0 01312 349.255V456h32V349.255a47.694 47.694 0 00-14.059-33.942l-48.265-48.264 26.783-82.077 19.269 34.683A24.011 24.011 0 00348.707 232H432v-32zM286.828 109.707a36 36 0 10-12.916-27.619 35.851 35.851 0 0012.916 27.619z" class="ci-primary"/></svg>