<svg xmlns="http://www.w3.org/2000/svg" width="100%" height="100%" viewBox="-51.2 -51.2 614.4 614.4"><path fill="var(--ci-primary-color, currentColor)" d="M425.706 142.294A240 240 0 0016 312v88h144v-32H48v-56c0-114.691 93.309-208 208-208s208 93.309 208 208v56H352v32h144v-88a238.432 238.432 0 00-70.294-169.706z" class="ci-primary"/><path fill="var(--ci-primary-color, currentColor)" d="M80 264h32v32H80zM240 128h32v32h-32zM136 168h32v32h-32zM400 264h32v32h-32zM297.222 335.1l69.2-144.173-28.85-13.848-69.183 144.135a64.141 64.141 0 1028.833 13.886zM256 416a32 32 0 1132-32 32.036 32.036 0 01-32 32z" class="ci-primary"/></svg>