<svg xmlns="http://www.w3.org/2000/svg" width="100%" height="100%" viewBox="-3.2 -3.2 38.4 38.4"><path d="M23.74 5.135s.453 1.922-.995 2.188c-1.005.177-2.63-.823-3.448-1.818-1.01-1.229-.88-2.198-.099-3.052 1.177-1.307 3.198-.802 3.198-.802s-3.698-3.24-7.547-.583c-3.427 2.359-2.443 5.573.651 8.38 2.786 2.536.563 5.318-2.25 4.958-1.922-.245-2.708-1.792-2.25-2.74.401-.813 1.781-1.313 1.781-1.313s-1.589-.641-3.453.063c-1.682.63-3.063 2.016-2.953 5.495v16.104s1.734-2.135 3.776-4.313c2.281-2.453 3.323-4.109 5.667-3.917 4.438.276 7.646-1.698 9.828-4.859 4.188-6.083.906-12.88-1.906-13.792z"/></svg>