<svg xmlns="http://www.w3.org/2000/svg" width="100%" height="100%" viewBox="-51.2 -51.2 614.4 614.4"><path fill="var(--ci-primary-color, currentColor)" d="M16 240v120h344V240H16zm312 88H48v-56h280zM384 240h32v120h-32zM440 240h32v120h-32zM385.428 173.3a31.982 31.982 0 012.32-38.418 63.745 63.745 0 003.479-78.69L385.377 48H348.8l-1.82 1.3 18.207 25.49a31.807 31.807 0 01-1.736 39.265 64.1 64.1 0 00-4.649 76.993L364.77 200h38.46zM457.428 173.3a31.982 31.982 0 012.32-38.418 63.745 63.745 0 003.479-78.69L457.377 48H420.8l-1.82 1.3 18.207 25.49a31.807 31.807 0 01-1.736 39.265 64.1 64.1 0 00-4.649 76.993L436.77 200h38.46z" class="ci-primary"/></svg>