<svg xmlns="http://www.w3.org/2000/svg" width="100%" height="100%" viewBox="-3.2 -3.2 38.4 38.4"><path d="M17.317 16.479l-3.749-3.509v5.905h1.115v-3.276l3.749 3.511v-5.901h-1.115zM8.62 12.885A3.072 3.072 0 005.505 16c0 1.677 1.437 3.115 3.115 3.115A3.07 3.07 0 0011.729 16a3.07 3.07 0 00-3.109-3.115zm0 5.11A1.976 1.976 0 016.625 16c0-1.12.875-1.995 1.995-1.995 1.115 0 1.995.875 1.995 1.995s-.88 1.995-1.995 1.995zM3.593 16c-.323-.24-.724-.401-1.281-.557-1.115-.323-1.115-.64-1.115-.797 0-.323.396-.64.959-.64.48 0 .875.24 1.037.317l.077.084.88-.641-.083-.077s-.713-.803-1.912-.803c-.563 0-1.12.161-1.516.479-.4.324-.64.797-.64 1.281 0 .48.24.953.64 1.276.319.24.715.396 1.277.557 1.113.319 1.113.641 1.113.797 0 .317-.395.641-.957.641-.48 0-.876-.24-1.037-.324l-.077-.077-.88.64.083.079s.713.796 1.912.796c.563 0 1.12-.161 1.515-.479.401-.317.641-.797.641-1.276s-.24-.875-.641-1.276zm19.787-3.115A3.07 3.07 0 0020.271 16a3.116 3.116 0 003.109 3.115A3.074 3.074 0 0026.495 16a3.124 3.124 0 00-3.115-3.115zm0 5.11A1.979 1.979 0 0121.385 16c0-1.12.88-1.995 1.995-1.995 1.12 0 1.995.875 1.995 1.995s-.959 1.995-1.995 1.995zm5.027-2.074c.323.24.724.396 1.281.557 1.115.319 1.115.641 1.115.797 0 .317-.396.641-.959.641-.48 0-.875-.24-1.037-.324h-.077l-.88.641.083.077s.713.803 1.912.803c.563 0 1.12-.161 1.516-.479.4-.324.64-.797.64-1.281 0-.48-.24-.953-.64-1.276-.319-.24-.715-.396-1.277-.557-1.113-.319-1.113-.641-1.113-.797 0-.317.395-.641.957-.641.48 0 .876.24 1.037.324l.077.077.88-.64-.083-.079s-.713-.796-1.912-.796c-.563 0-1.12.161-1.515.479a1.657 1.657 0 00-.641 1.276c-.077.479.156.875.641 1.197z"/></svg>