<svg xmlns="http://www.w3.org/2000/svg" width="100%" height="100%" viewBox="-3.2 -3.2 38.4 38.4"><path d="M30.906 1.089c-10.198-1.453-19.698-1.453-29.839 0-1.422 10.083-1.422 19.479 0 29.505C6.015 31.323 10.958 32 16.005 32c5 0 9.948-.682 14.896-1.354 1.464-10.083 1.464-19.479 0-29.557zM15.521 25.51c-2.74 0-5.635-.922-6.906-1.599l1.073-4.167c1.422.938 3.578 1.859 5.932 1.859 1.859 0 2.984-.583 2.984-1.74 0-.823-.578-1.302-2.099-1.682l-3.042-.839c-3.219-.88-4.74-2.526-4.74-5.141 0-3.156 2.438-5.677 7.49-5.677 2.656 0 5.297.729 6.76 1.458l-1.266 3.969c-1.474-.823-3.724-1.5-5.635-1.5-1.823 0-2.599.578-2.599 1.453 0 .828.536 1.161 1.719 1.458l3.318.979c3.422.979 4.943 2.62 4.943 5.177-.099 3.604-3.281 6.021-7.943 6.021z"/></svg>