<svg xmlns="http://www.w3.org/2000/svg" width="100%" height="100%" viewBox="-51.2 -51.2 614.4 614.4"><path fill="var(--ci-primary-color, currentColor)" d="M445.646 241.836V68a8 8 0 00-8-8 59.894 59.894 0 00-59.9 59.894v41.929l-8.639 8.64-69.928-69.929a22.751 22.751 0 00-26.446-4.134l-56.2-56.2a28 28 0 00-39.6 0 28 28 0 00-2.711 36.453v.434l-19.916-19.915a28 28 0 00-39.6 39.6l22.628 22.628a28 28 0 00-39.6 39.6l28.284 28.283a28 28 0 00-39.6 0 28 28 0 000 39.6l14.142 14.142 2.553 2.553a42.93 42.93 0 00-28.278 40.3v2.022a42.751 42.751 0 001.524 11.348A42.927 42.927 0 0040 339.619v2.031a42.927 42.927 0 0036.365 42.367 42.751 42.751 0 00-1.524 11.348v2.035a42.906 42.906 0 0042.859 42.854h14.28a42.777 42.777 0 00-1.392 10.857v2.032A42.905 42.905 0 00173.444 496h149.107l139.672-31.038V256.906zm-15.423 197.456L319.037 464H174.46a11.886 11.886 0 01-11.872-11.854v-.038a11.886 11.886 0 0111.872-11.854h90.588v-32H118.714a11.873 11.873 0 110-23.746h146.334v-32H83.873a11.873 11.873 0 010-23.746h181.175v-32H117.7a10.87 10.87 0 01-10.859-10.862v-2.031a10.869 10.869 0 0110.859-10.853h216.523v-48.751l-46.152-46.151a37.778 37.778 0 01-4.489-47.926l82.944 82.943.269.27 63.428 57.661z" class="ci-primary"/></svg>