<svg xmlns="http://www.w3.org/2000/svg" width="100%" height="100%" viewBox="-3.2 -3.2 38.4 38.4"><path d="M19.672 9.625a2.72 2.72 0 00-2.734 2.734c0 .604.193 1.182.552 1.651l3.505 4.885c.411.714.161 1.656-.552 2.094-.719.417-1.656.167-2.099-.552a1.543 1.543 0 01.5-2.068l.052-.026c.276-.193.359-.552.167-.828a.614.614 0 00-.495-.276.506.506 0 00-.276.083l-.057.026c-1.266.802-1.682 2.484-.88 3.75.797 1.271 2.479 1.688 3.75.885 1.266-.802 1.682-2.479.88-3.75-.052-.083-.109-.141-.135-.224l-3.505-4.911a1.435 1.435 0 01-.193-.771c0-.854.688-1.516 1.516-1.516s1.521.688 1.521 1.516c0 .526-.276.995-.719 1.297-.031 0-.031.026-.057.026-.276.198-.359.552-.161.828.109.167.302.25.495.276a.514.514 0 00.276-.078l.052-.031c1.271-.797 1.688-2.484.885-3.75a2.697 2.697 0 00-2.286-1.271zm0 10.792a.774.774 0 00.771-.776c0-1.026-1.547-1.026-1.547 0 0 .443.359.776.776.776zm0-8.834a.775.775 0 00-.776.776c0 1.026 1.547 1.026 1.547 0-.026-.443-.359-.776-.771-.776zM16 0C7.172 0 0 7.172 0 16s7.172 16 16 16 16-7.172 16-16S24.828 0 16 0zm-3.641 23.141a3.482 3.482 0 01-3.505-3.469 3.493 3.493 0 012.125-3.229l-1.464-2.042c-1.13-1.573-.771-3.755.776-4.859 1.542-1.104 3.75-.771 4.854.776 1.104 1.542.771 3.75-.776 4.854a3.206 3.206 0 01-.688.385l1.516 2.156a3.458 3.458 0 01-.938 4.823 3.272 3.272 0 01-1.901.604zm10.209-5.433a3.471 3.471 0 01-.938 4.828 3.47 3.47 0 01-4.828-.938 3.463 3.463 0 01.938-4.828c.193-.141.385-.219.578-.333l-1.49-2.036a3.516 3.516 0 01.771-4.885 3.512 3.512 0 014.885.776 3.51 3.51 0 01-.771 4.88 3.241 3.241 0 01-.693.385zm-11.563-4.604a1.5 1.5 0 01-.193-.776c0-.854.693-1.516 1.516-1.516.859 0 1.521.693 1.521 1.516 0 .526-.276 1.026-.719 1.302l-.052.026c-.276.193-.359.552-.167.828.109.167.302.25.495.276a.52.52 0 00.276-.083l.057-.026a2.741 2.741 0 00.906-3.755 2.741 2.741 0 00-3.75-.911 2.767 2.767 0 00-.911 3.755c.057.083.115.167.167.219l3.505 4.885c.135.219.193.495.193.771 0 .854-.661 1.516-1.521 1.547a1.541 1.541 0 01-1.542-1.521c0-.521.276-1.021.719-1.297l.057-.026c.276-.193.354-.552.161-.828a.614.614 0 00-.495-.276.52.52 0 00-.276.083l-.057.026c-1.271.802-1.682 2.484-.88 3.755.797 1.266 2.479 1.682 3.75.88a2.739 2.739 0 00.745-3.974zm1.354 7.313a.774.774 0 00.771-.776c-.042-.99-1.505-.99-1.547 0 0 .443.333.776.776.776zm0-8.834a.775.775 0 00-.776.745c0 .417.333.776.745.776.417 0 .776-.333.776-.745a.751.751 0 00-.745-.776z"/></svg>