<svg xmlns="http://www.w3.org/2000/svg" width="100%" height="100%" viewBox="-51.2 -51.2 614.4 614.4"><path fill="var(--ci-primary-color, currentColor)" d="M242.918 16.173h-42.361v88H152A136.268 136.268 0 0028.025 184.2 114.159 114.159 0 0016 235.506v260.667h52.146l49.606-177.756a85.4 85.4 0 0181.993-62.244h.812v88h41.78l164.29-164.29zM232.557 308.7v-84.527h-32.812A117.5 117.5 0 0086.93 309.815L48 449.315V235.506a82.454 82.454 0 018.785-37.276l.292-.614A104.217 104.217 0 01152 136.173h80.557V51.067l128.816 128.816z" class="ci-primary"/><path fill="var(--ci-primary-color, currentColor)" d="M330.918 15.509h-43.409l164.373 164.374-163.626 163.626h42.081l164.29-164.29-163.709-163.71z" class="ci-primary"/></svg>