<svg xmlns="http://www.w3.org/2000/svg" width="100%" height="100%" viewBox="-3.2 -3.2 38.4 38.4"><path d="M22.401 30.317L23.718 32c2.084-.901 3.901-2.161 5.401-3.803l-1.26-1.755a13.71 13.71 0 01-5.439 3.875zM16 29.599c-7.697 0-13.937-6.161-13.937-13.801 0-7.6 6.24-13.756 13.937-13.756s13.943 6.199 13.943 13.797c0 3.401-1.26 6.521-3.344 8.921l1.261 1.683C30.401 23.64 32 19.918 32 15.839 32 7.063 24.839 0 16 0S0 7.083 0 15.803c0 8.76 7.161 15.837 16 15.837 2.281 0 4.437-.463 6.401-1.323L21.12 28.64c-1.599.6-3.317.959-5.12.959zm8-12.739c-3-2.48-7.12-2.797-10.401-4.74-1-.641-.197-1.86.803-1.901 3.599-.599 7.161.844 10.52 2l.199-3.536c-4.199-1.521-8.76-2.5-13.199-1.803-1.604.401-3.203.901-4.337 2.079-1.563 1.604-1.281 4.479.515 5.76 2.984 2.344 6.901 2.683 10.161 4.479 1.281.521.74 2.24-.52 2.365-3.901.74-7.74-.964-11.1-2.803-.041 1.36-.077 2.677-.077 4 4.255 1.88 9 2.761 13.599 2.037C21.72 24.5 23.319 24 24.46 22.86c1.64-1.6 1.484-4.683-.437-6z"/></svg>