<svg xmlns="http://www.w3.org/2000/svg" width="100%" height="100%" viewBox="-51.2 -51.2 614.4 614.4"><path fill="var(--ci-primary-color, currentColor)" d="M479.6 399.716l-81.084-81.084-62.368-25.767A175.014 175.014 0 00368 192c0-97.047-78.953-176-176-176S16 94.953 16 192s78.953 176 176 176a175.034 175.034 0 00101.619-32.377l25.7 62.2 81.081 81.088a56 56 0 1079.2-79.195zM48 192c0-79.4 64.6-144 144-144s144 64.6 144 144-64.6 144-144 144S48 271.4 48 192zm408.971 264.284a24.028 24.028 0 01-33.942 0l-76.572-76.572-23.894-57.835 57.837 23.894 76.573 76.572a24.028 24.028 0 01-.002 33.941z" class="ci-primary"/></svg>