<svg xmlns="http://www.w3.org/2000/svg" width="100%" height="100%" viewBox="-51.2 -51.2 614.4 614.4"><path fill="var(--ci-primary-color, currentColor)" d="M151.196 16v417.568l-51.883-51.881-22.626 22.626 90.509 90.51 90.51-90.51-22.627-22.627-51.883 51.882V16h-32zM432 200h-40V56h-32v32h-32v32h32v80h-40v32h112v-32zM355.2 432H336v32h19.2a76.887 76.887 0 0076.8-76.8v-51.6a55.663 55.663 0 00-55.6-55.6H372a55.663 55.663 0 00-55.6 55.6v4.4a55.663 55.663 0 0055.6 55.6h4.4a55.262 55.262 0 0023.474-5.215A44.849 44.849 0 01355.2 432zm21.2-68.4H372a23.627 23.627 0 01-23.6-23.6v-4.4A23.627 23.627 0 01372 312h4.4a23.627 23.627 0 0123.6 23.6v4.4a23.627 23.627 0 01-23.6 23.6z" class="ci-primary"/></svg>