<svg xmlns="http://www.w3.org/2000/svg" width="100%" height="100%" viewBox="-51.2 -51.2 614.4 614.4"><path fill="var(--ci-primary-color, currentColor)" d="M382.988 237.57a251.854 251.854 0 00-102.8-180.91L251.657 36l-26.735 20.79a250.836 250.836 0 00-96.279 180.71A176.226 176.226 0 0096 234.451H16V300c0 97.047 78.953 176 176 176h128c97.047 0 176-78.953 176-176v-65.549h-80a176.161 176.161 0 00-33.012 3.119zM244.568 82.05l7.775-6.05 9.08 6.575a219.732 219.732 0 0190.163 164.079A177.028 177.028 0 00256 337.171a177.022 177.022 0 00-95.824-90.6A217.523 217.523 0 01244.568 82.05zM240 444h-48c-79.4 0-144-64.6-144-144v-33.549h48c79.4 0 144 64.6 144 144zm224-144c0 79.4-64.6 144-144 144h-48v-33.549c0-79.4 64.6-144 144-144h48z" class="ci-primary"/></svg>