<svg xmlns="http://www.w3.org/2000/svg" width="100%" height="100%" viewBox="-51.2 -51.2 614.4 614.4"><path fill="var(--ci-primary-color, currentColor)" d="M473.605 88.081c-1.352-.137-135.958-14.259-199.218-68.251L269.9 16h-27.8l-4.488 3.83C174.464 73.727 39.744 87.944 38.4 88.081L24 89.532V104c0 89.133 14.643 165.443 43.523 226.813 38.105 80.973 100.1 133.669 184.267 156.623l4.21 1.148 4.21-1.148c84.165-22.954 146.162-75.65 184.267-156.623C473.357 269.443 488 193.133 488 104V89.532zm-17.735 30.032q-.237 12.789-.948 25.887H272V57.915c59.921 39.567 149.024 55.322 183.87 60.198zM272 320h142.266a288.233 288.233 0 01-23.366 40H272zm0-32v-40h167.9a402.662 402.662 0 01-13.236 42.884V288zm0-72v-40h180.378c-1.4 13.307-3.256 26.682-5.639 40zM56.13 118.113c34.846-4.876 123.949-20.631 183.87-60.2v392.311C94.012 398.389 58.492 245.387 56.13 118.113zM272 450.224V392h92.347c-24.298 24.7-54.639 44.836-92.347 58.224z" class="ci-primary"/></svg>