<svg xmlns="http://www.w3.org/2000/svg" width="100%" height="100%" viewBox="-3.2 -3.2 38.4 38.4"><path d="M5.234 3.464c.354.057-.526 2.37-.036 5.01.427 2.266 5.75 11.036 5.531 14.042-.172 1.891-4.542 6.318-5.005 6.026-.5-.141 1.328-3.151.651-5.661C5.589 19.959.896 12.402.901 9.063c0-2.443 4.016-5.76 4.333-5.599zM15.255.005c.448.078-.677 3.031-.047 6.391.542 2.891 7.333 14.073 7.057 17.906-.224 2.411-5.797 8.057-6.385 7.682-.641-.177 1.693-4.01.828-7.208-1.005-3.729-6.984-13.37-6.979-17.625 0-3.115 5.12-7.344 5.526-7.146zm10.339 3.459c.359.057-.526 2.37-.031 5.01.422 2.266 5.75 11.036 5.531 14.042-.167 1.891-4.547 6.318-5.005 6.026-.505-.141 1.328-3.146.651-5.661-.792-2.922-5.484-10.479-5.474-13.813 0-2.443 4.016-5.76 4.328-5.604z"/></svg>