<svg xmlns="http://www.w3.org/2000/svg" width="100%" height="100%" viewBox="-3.2 -3.2 38.4 38.4"><path d="M22.948 8.927c-.047-.364 0-.791 0-.791v-.011a2.073 2.073 0 012.031-1.672H25a2.08 2.08 0 012.079 2.073A2.08 2.08 0 0125 10.603c-.005 0-.011-.005-.011-.005h-.011a2.068 2.068 0 01-2.031-1.672zM32 2.052v27.896C32 31.083 31.14 32 30.079 32H1.927C.864 32 0 31.083 0 29.948V2.052C0 .921.864 0 1.927 0h28.152C31.14 0 32 .921 32 2.052zm-3.073 21.344a3.945 3.945 0 00-3.948-3.948 3.945 3.945 0 00-3.791 2.844h-2.344l-3.656-6.297.005-.005 3.645-6.276h2.333a3.95 3.95 0 004.896 2.688 3.95 3.95 0 10-4.896-4.896h-3.552l-.036-.021-4.303 7.401-.036.057h-2.552a3.957 3.957 0 00-4.901-2.688 3.952 3.952 0 002.208 7.589 3.973 3.973 0 002.693-2.693h2.613l4.277 7.36.02-.011h3.584a3.944 3.944 0 003.791 2.844 3.945 3.945 0 003.948-3.948zm-3.906-2.156a2.07 2.07 0 00-2.037 1.672c-.005.036-.005.072-.011.109-.004.025-.02.041-.025.061-.052.401 0 .803 0 .803a2.078 2.078 0 002.453 1.615c.76-.156 1.339-.735 1.552-1.453a2.07 2.07 0 00-1.932-2.807zM6.932 13.891c-1.14 0-2.072.927-2.072 2.073V16a2.064 2.064 0 003.785 1.136c.229-.333.365-.735.365-1.167a2.077 2.077 0 00-2.079-2.079z"/></svg>