<svg xmlns="http://www.w3.org/2000/svg" width="100%" height="100%" viewBox="-3.2 -3.2 38.4 38.4"><path d="M10.615 23.416a.578.578 0 00-.615.272 3.305 3.305 0 01-3.579 1.859 3.28 3.28 0 011.865-3.573.58.58 0 00-.224-1.067 6.05 6.05 0 00-5.667 1.957 10.08 10.08 0 00-1.729 7.953.589.589 0 00.479.48c.661.109 1.333.161 2.011.161a8.667 8.667 0 006.573-2.5 6.124 6.124 0 001.344-5.079.577.577 0 00-.459-.5zM31.703.271c-.229-.224-.692-.12-.692-.12A23.515 23.515 0 0028.454 0a20.766 20.766 0 00-14.808 5.995c-.484.484-.937.989-1.359 1.521a7.713 7.713 0 00-5.943-.219C3.297 8.609 1.516 12.344.036 16.193a.577.577 0 00.333.744.573.573 0 00.568-.083 7.612 7.612 0 017.256-1l-.724 2.619a.577.577 0 00.244.641 25.346 25.346 0 015.151 5.14.583.583 0 00.647.251l2.615-.719a7.504 7.504 0 01-.995 7.276.577.577 0 00.093.812c.161.131.38.161.568.089 3.844-1.48 7.583-3.261 8.891-6.297a7.702 7.702 0 00-.219-5.937 19.899 19.899 0 001.509-1.38A21.014 21.014 0 0031.833.978s.099-.468-.131-.697zm-3.25.89c.749 0 1.5.036 2.249.115.104 1.031.136 2.068.095 3.099a3.645 3.645 0 01-2.167-1.031 3.603 3.603 0 01-1.037-2.161c.281-.016.563-.027.849-.027zM14.464 6.817a19.391 19.391 0 0111.973-5.563 4.808 4.808 0 001 2.475l-3.599 3.593a4.696 4.696 0 00-6.593 6.595l-4.199 4.197a25.415 25.415 0 00-3.5-2.844 19.243 19.243 0 014.917-8.453zm10.031 4.21a3.544 3.544 0 01-3.541 3.547 3.537 3.537 0 01-3.547-3.543 3.544 3.544 0 013.541-3.547h.005a3.549 3.549 0 013.541 3.543zm-22.746 4c1.256-3.005 2.787-5.693 5.043-6.663a6.42 6.42 0 014.744.12 20.598 20.598 0 00-3.02 6.224 8.13 8.13 0 00-6.767.313zm11.855 8.254a28.518 28.518 0 00-4.907-4.907l.527-1.911a24.918 24.918 0 016.297 6.291zm10.016 1.896c-.975 2.265-3.651 3.796-6.656 5.052a8.106 8.106 0 00.301-6.765 20.599 20.599 0 006.24-3.037 6.391 6.391 0 01.109 4.756zm-6.917-2.745a25.477 25.477 0 00-2.833-3.505l4.199-4.197a4.691 4.691 0 006.593-.787 4.686 4.686 0 000-5.807l3.599-3.6a4.82 4.82 0 002.464 1 19.42 19.42 0 01-5.552 11.975 19.264 19.264 0 01-8.459 4.911z"/></svg>