<svg xmlns="http://www.w3.org/2000/svg" width="100%" height="100%" viewBox="-3.2 -3.2 38.4 38.4"><path d="M31.552 28.76c.599-.995.599-1.995 0-2.989L18.588 3.24c-.593-.995-1.593-1.396-2.588-1.396s-1.995.599-2.588 1.396l-4.193 7.38 1 .593a19.767 19.767 0 017.579 7.579c1.593 2.792 2.588 5.781 2.791 8.973h-2.995c-.197-2.593-.995-5.187-2.391-7.577-1.396-2.792-3.588-4.985-6.38-6.584l-1-.593-3.984 6.781.995.593c2.593 1.593 4.385 4.188 4.787 7.183H3.042c-.197 0-.401-.204-.401-.204s-.197-.197 0-.395l1.797-3.193c-.599-.593-1.396-.995-2.192-1.192L.449 25.771c-.599 1-.599 1.995 0 2.995.599.995 1.396 1.391 2.588 1.391h9.172v-1.192c0-2.193-.593-4.188-1.593-6.183-.797-1.593-1.995-2.792-3.385-3.787l1.396-2.593c1.791 1.396 3.391 2.989 4.583 4.984 1.396 2.391 1.995 4.984 1.995 7.579v1.192h7.776v-1.192c0-3.991-1-7.98-3.192-11.568-1.593-3.193-4.188-5.781-7.177-7.776l2.989-5.183c.204-.197.401-.197.401-.197.197 0 .197 0 .401.197l12.959 22.527c.197.197 0 .4 0 .4s-.199.199-.401.199h-2.989v2.396h2.989c1.197.197 1.995-.204 2.593-1.199z"/></svg>