<svg xmlns="http://www.w3.org/2000/svg" width="100%" height="100%" viewBox="-3.2 -3.2 38.4 38.4"><path d="M3.907 20.636l8.525.004-4.776 9.011A16.022 16.022 0 010 16C0 7.177 7.177 0 16 0c2.349 0 4.584.511 6.588 1.416L7.24 16.771h13.667L10.855 26.927l4.151-7.839H5.063C4.604 17.552 4.636 16 4.636 16 4.645 9.713 9.745 4.631 16.027 4.636c.124 0 .249.004.375.004l1.459-1.463a12.616 12.616 0 00-1.833-.131c-7.141 0-12.975 5.808-12.975 12.953 0 0-.079 2.292.855 4.636zM24.339 2.355A15.998 15.998 0 0132 16c0 8.823-7.177 16-16 16a15.81 15.81 0 01-6.588-1.421L24.645 15.23H10.937L21.145 5.074l-4.151 7.839h9.948c.421 1.437.421 3.088.421 3.088-.009 6.287-5.109 11.369-11.395 11.364-.141 0-.276-.004-.417-.009l-1.448 1.463c7.089 1.037 13.677-3.869 14.713-10.957a12.84 12.84 0 00-.729-6.5h-8.52z"/></svg>