<svg xmlns="http://www.w3.org/2000/svg" width="100%" height="100%" viewBox="-3.2 -3.2 38.4 38.4"><path d="M30.208 11.625c-2.405-2.401-6.301-2.401-8.755 0l-9.803 9.801a1.57 1.57 0 000 2.199 1.576 1.576 0 002.204 0l9.801-9.803a3.082 3.082 0 014.349 0 3.079 3.079 0 010 4.355l-9.651 9.651a3.078 3.078 0 004.348 0l7.453-7.453c2.448-2.448 2.448-6.348.052-8.749zm-3.301 3.25a1.57 1.57 0 00-2.199 0l-9.807 9.855a3.082 3.082 0 01-4.349 0 1.558 1.558 0 00-2.197 0 1.557 1.557 0 000 2.197c2.4 2.401 6.296 2.401 8.749 0l9.803-9.801c.599-.652.599-1.652 0-2.251zm-3.251-9.802c-2.401-2.401-6.301-2.401-8.755 0l-9.803 9.801a1.57 1.57 0 000 2.199 1.567 1.567 0 002.204 0l9.859-9.803a3.096 3.096 0 014.36 0c.604.604 1.604.604 2.197 0 .563-.645.563-1.593-.036-2.197zm-3.301 3.25a1.57 1.57 0 00-2.199 0l-9.801 9.855a3.09 3.09 0 01-4.355 0 3.09 3.09 0 010-4.355l9.651-9.651a3.078 3.078 0 00-4.348 0l-7.5 7.453c-2.401 2.401-2.401 6.301 0 8.749 2.4 2.401 6.296 2.401 8.749 0l9.803-9.801c.599-.652.599-1.652 0-2.251z"/></svg>