<svg xmlns="http://www.w3.org/2000/svg" width="100%" height="100%" viewBox="-3.2 -3.2 38.4 38.4"><path d="M0 8.083v15.835h16.172L32 8.083zm4.355 2.948h.005c1.151 0 2.552.324 3.567.844l-1.093 1.907c-1.115-.541-1.672-.588-2.307-.625-.943-.052-1.417.287-1.428.651-.005.444.896.844 1.745 1.12 1.281.407 2.916.953 3.167 2.532l2.349-6.208h2.728l2.751 7.432-.011-7.432h3.161c3.011 0 4.427 1.02 4.427 3.359 0 2.099-1.452 3.355-3.916 3.355h-1.016l-.015 2.791-4.781-.005-.333-1.213a5.152 5.152 0 01-1.641.256 5.305 5.305 0 01-1.687-.265l-.475 1.223-2.667.005.12-.615a2.118 2.118 0 01-.12.1c-.708.572-1.609.839-2.713.859h-.287a6.735 6.735 0 01-3.437-.896l.973-1.932c1.052.625 1.715.76 2.605.745.463-.011.796-.095 1.015-.319a.73.73 0 00.209-.495c.009-.5-.709-.733-1.579-1.005-.708-.219-1.516-.52-2.141-.984-.744-.541-1.104-1.229-1.083-2.197a2.645 2.645 0 01.755-1.833c.693-.719 1.808-1.152 3.152-1.152zm14.124 2.224v2.543h.699c.921 0 1.661-.308 1.661-1.287 0-.948-.74-1.256-1.661-1.256zm-6.782 1.026l-.995 3.145a2.8 2.8 0 001.005.177c.36 0 .699-.063.989-.167l-.979-3.161z"/></svg>