<svg xmlns="http://www.w3.org/2000/svg" width="100%" height="100%" viewBox="-3.2 -3.2 38.4 38.4"><path d="M15.917.021a16.199 16.199 0 00-3.969.505C5.708 2.078.755 7.729.12 14.139-.667 20.202 2.401 26.52 7.645 29.65c5.152 3.224 12.125 3.095 17.167-.296 4.532-2.943 7.349-8.303 7.183-13.715-.077-5.353-3.083-10.557-7.683-13.307C21.807.785 18.86.009 15.917.02zm-.089 2.26c6.593-.011 13.052 5.088 13.713 11.901 1.261 7.547-5.005 15.219-12.651 15.443-7.271.724-14.303-5.443-14.511-12.745-.541-5.911 3.36-11.781 8.932-13.735a12.102 12.102 0 014.516-.859zm6.792 4.303c-3.584 2.78-7.016 5.744-10.521 8.609 1.604.02 3.219.02 4.828.009 1.88-2.885 3.813-5.733 5.693-8.619zm-7.552 10.203c-1.88 2.891-3.817 5.744-5.699 8.635 3.595-2.776 7.011-5.76 10.537-8.609a390.79 390.79 0 00-4.839-.025z"/></svg>