<svg xmlns="http://www.w3.org/2000/svg" width="100%" height="100%" viewBox="-3.2 -3.2 38.4 38.4"><path d="M27.573 4.229a9.733 9.733 0 00-13.068-2.802L7.041 6.172a8.483 8.483 0 00-3.854 5.734 8.886 8.886 0 00.891 5.776 8.246 8.246 0 00-1.266 3.198 9.128 9.128 0 001.547 6.88 9.78 9.78 0 0013.068 2.828l7.469-4.75a8.503 8.503 0 003.839-5.734 8.859 8.859 0 00-.896-5.755 9.043 9.043 0 00-.266-10.12zM13.76 28.172a5.91 5.91 0 01-6.349-2.359c-.865-1.198-1.182-2.677-.932-4.146l.146-.708.135-.438.401.266a9.317 9.317 0 002.917 1.469l.271.094-.031.266c-.026.37.083.786.297 1.104.438.63 1.198.932 1.932.734.161-.052.318-.104.453-.188l7.438-4.745c.375-.24.615-.599.708-1.026a1.708 1.708 0 00-.266-1.255 1.82 1.82 0 00-1.932-.708c-.161.057-.333.12-.469.203l-2.813 1.786a5.902 5.902 0 01-7.865-1.708 5.463 5.463 0 01-.938-4.146 5.162 5.162 0 012.365-3.469l7.422-4.745a6.142 6.142 0 011.521-.667 5.924 5.924 0 016.349 2.349 5.504 5.504 0 01.76 4.849l-.135.443-.385-.266a9.88 9.88 0 00-2.932-1.469l-.266-.078.026-.266a1.832 1.832 0 00-.297-1.12 1.785 1.785 0 00-1.932-.708 2.036 2.036 0 00-.453.188l-7.453 4.786c-.375.25-.615.599-.693 1.036-.078.427.026.896.266 1.24.427.63 1.203.896 1.922.708a1.86 1.86 0 00.464-.188l2.844-1.813a5.291 5.291 0 011.516-.677 5.893 5.893 0 016.349 2.359 5.496 5.496 0 01.958 4.13 5.124 5.124 0 01-2.333 3.469l-7.438 4.734a6.457 6.457 0 01-1.547.677z"/></svg>