<svg xmlns="http://www.w3.org/2000/svg" width="100%" height="100%" viewBox="-3.2 -3.2 38.4 38.4"><path d="M13.339 7.219a5.617 5.617 0 014.063-1.74c2.078 0 3.938 1.203 4.917 2.943.844-.401 1.802-.604 2.802-.604 3.802 0 6.88 3.12 6.88 6.964 0 3.839-3.083 6.958-6.901 6.958a7.32 7.32 0 01-1.359-.141 4.998 4.998 0 01-4.401 2.604 5.317 5.317 0 01-2.198-.5 5.762 5.762 0 01-5.302 3.495 5.74 5.74 0 01-5.401-3.755 5.115 5.115 0 01-1.099.099c-2.938 0-5.339-2.401-5.339-5.401 0-2 1.078-3.74 2.677-4.677A6.066 6.066 0 012.157 11c0-3.438 2.802-6.198 6.203-6.198 2.042 0 3.797.938 4.958 2.401z"/></svg>