<svg xmlns="http://www.w3.org/2000/svg" width="100%" height="100%" viewBox="-51.2 -51.2 614.4 614.4"><path fill="var(--ci-primary-color, currentColor)" d="M127.475 104H51.428a24.086 24.086 0 00-23.511 19.176l-1.5 7.31a503.561 503.561 0 001.477 210.663A24.143 24.143 0 0051.334 360h76.141a24.028 24.028 0 0024-24V128a24.027 24.027 0 00-24-24zm-8 224H57.811a471.525 471.525 0 01-.046-191.082l.188-.918h61.522zM492.835 218.474L421.583 93.246a24.247 24.247 0 00-21.036-12.236h-131.6a24.212 24.212 0 00-12.246 3.327l-72.012 42.244v37.1l86.376-50.671h124.947L464 232.5v9.271L444.3 294.3H316l-16 16v48.979l1.418 6.585 10.991 24.341A56.141 56.141 0 01290.7 461.09L207.981 280H184v24l81.007 177.854a24.313 24.313 0 0022.1 14.126 23.923 23.923 0 009.663-2.034 88.117 88.117 0 0044.8-116.911l-9.57-21.2V326.3h117.7a24.314 24.314 0 0022.661-15.7l22.09-58.906a24.13 24.13 0 001.542-8.5V230.44a24.256 24.256 0 00-3.158-11.966z" class="ci-primary"/></svg>