<svg xmlns="http://www.w3.org/2000/svg" width="100%" height="100%" viewBox="-3.2 -3.2 38.4 38.4"><path d="M10.229 2.079c.375-.177.719-.448 1.077-.683.339-.219.72-.584 1.193-.437.136.391-.219.667-.443.88-.719.683-1.536 1.301-2.292 1.943a334.49 334.49 0 01-7.765 6.349c-.26.213-.536.411-.817.593-.245.156-.604.479-.943.219.093-.448.405-.755.681-1.036.281-.287.552-.595.839-.88-.333-.568-.629-1.095-.885-1.699C.63 6.729.369 6.031.369 5.255c-.005-1.479.844-2.724 1.787-3.572C3.12.812 4.407.088 5.907.011c2.115-.115 3.339.937 4.323 2.068zm6.683 24.104v.26c-.376.016-.715-.011-1.063-.021v-.265c.369-.011.713.011 1.063.027zm-2.12 0v.26c-.38-.016-.699.031-1.057.027v-.267c.348-.02.703-.031 1.057-.02zm4.235.062c-.011.093.015.213-.021.265-.339-.027-.693-.032-1.041-.041v-.267c.369.005.724.011 1.063.043zm-6.35 0v.265c-.371.005-.688.052-1.063.041v-.26c.375 0 .688-.047 1.063-.047zm7.406.047c.339.047.724.036 1.057.083.016.115-.02.172-.02.271-.339-.047-.724-.041-1.057-.093.016-.083.025-.172.02-.26zm-9.526.088v.265c-.344.027-.688.063-1.036.089-.032-.068-.027-.172-.021-.265.355-.032.693-.073 1.057-.089zm11.64.089c.36.031.72.061 1.057.109-.025.077-.004.197-.041.265-.333-.047-.692-.073-1.036-.109-.016-.115.02-.172.02-.265zm-13.76.11c-.005.104.041.151.027.265-.344.025-.761.109-1.057.109.015-.104-.027-.151-.027-.245.339-.057.708-.088 1.057-.129zm16.918.265c.015.109-.037.151-.027.26-.339-.057-.719-.083-1.057-.151.016-.079.032-.147.021-.245.307.011.729.084 1.063.136zm-19.052 0c.077.025.041.177.067.26l-1.036.156a.754.754 0 01-.047-.265c.339-.047.687-.093 1.016-.151zm21.145.307a.9.9 0 01-.047.287c-.328-.073-.693-.109-1.037-.177.005-.088.021-.177.048-.26.348.041.671.12 1.036.151zm-23.219.026a.75.75 0 01.047.26c-.355.052-.672.141-1.036.177-.005-.099-.047-.161-.047-.265.369-.037.687-.12 1.036-.172zm24.276.172c.344.072.677.145 1.036.197-.005.099-.041.161-.041.265-.375-.031-.661-.151-1.036-.176-.027-.057.02-.204.041-.287zm1.719-5.046c.208.119.631.129.797.328.129.151.187.645.239.989.271 1.729.385 3.744.443 5.625.011.353.021.781.021 1.187 0 .401.083.943 0 1.213-.052.199-.317.261-.484.355a77.376 77.376 0 00-.084-3.792c-.167-.135-.593-.063-.62-.219-.057-.339.355-.12.595-.088-.057-1.699-.235-3.281-.437-4.828-.199-.1-.448-.141-.667-.219-.333.343-.844 1.249-1.631 1.077-.292-.063-.484-.459-.615-.729a3.988 3.988 0 01-.355-.989c-6.509-1.249-15.453-1.353-22.005-.068-.203.876-.572 2.74-1.785 2.027a2.652 2.652 0 01-1.079-1.317 12.86 12.86 0 01-.729.176c-.255 1.443-.385 3.021-.464 4.652.224.011.557-.161.792-.136.005.089.041.151.047.24-.224.14-.583.14-.859.224a59.61 59.61 0 00-.089 3.968c-.109.027-.364-.167-.463-.285.083-3.068.239-6.068.484-8.975.375-.12.755-.229 1.125-.355-.052-.509-.156-1.104.068-1.452.187-.297.708-.469 1.077-.573 1.323-.375 2.641-.068 3.505.547.188.136.333.317.532.401.031-.12-.125-.204-.199-.265-.755-.683-2-1.276-3.484-1.016-.464-1.453-1.052-2.855-1.057-4.719-.005-2.068.749-3.865 1.604-5.271.88-1.437 2.057-2.604 3.333-3.527a15.344 15.344 0 0110.781-2.735c4.016.496 6.677 2.385 8.599 5.141.921 1.317 1.667 2.896 2.161 4.697.5 1.803.505 4.131-.068 6.037-1.843-.376-3.515.203-4.167 1.369-.005.021-.02.021-.02.041.667-.901 2.312-1.557 3.968-1.145.437.109.995.265 1.209.573.301.427.167 1.323-.021 1.833zm-8.599-9.792c.072.511.301 1.041.593 1.255.5.365.803.005.844-.505.041-.672-.235-1.463-.579-1.765-.14-.12-.396-.192-.547-.151-.344.083-.38.703-.312 1.167zm-11.532 1.453c-.041.744.213 1.703.709 1.963.572.303.843-.124.88-.661.057-.833-.365-2.281-1.147-2.135-.333.063-.416.448-.443.833zm9.11 3.443c-.353.077-.843-.079-1.233-.156a24.598 24.598 0 00-1.215-.22c-.76-.119-1.791-.281-2.536.131-.26.145-.588.469-.62.885-.036.609.459 1.052.817 1.323.433.319.887.532 1.453.704 1.224.369 3.057.468 4.104.02.98-.421 2.272-1.416 2.292-2.733.016-.787-.364-1.491-1.145-1.387-.865.109-1.177 1.267-1.923 1.433z"/></svg>