<svg xmlns="http://www.w3.org/2000/svg" width="100%" height="100%" viewBox="-51.2 -51.2 614.4 614.4"><path fill="var(--ci-primary-color, currentColor)" d="M231.359 147l-80.921 205h45.155l15.593-39.5h89.628l15.593 39.5h45.155l-80.921-205zm-3.594 123.5L256 198.967l28.235 71.533z" class="ci-primary"/><path fill="var(--ci-primary-color, currentColor)" d="M384 56H128V16H16v112h40v256H16v112h112v-40h256v40h112V384h-40V128h40V16H384zM48 96V48h48v48zm48 368H48v-48h48zm288-40H128v-40H88V128h40V88h256v40h40v256h-40zm80-8v48h-48v-48zM416 48h48v48h-48z" class="ci-primary"/></svg>