<svg xmlns="http://www.w3.org/2000/svg" width="100%" height="100%" viewBox="-3.2 -3.2 38.4 38.4"><path d="M28.527 20.047a57.21 57.21 0 00-1.068-3.02l-1.443-3.595c.005-.041.02-.744.02-1.115C26.036 6.177 23.136 0 16 0S5.964 6.177 5.964 12.323c0 .365.02 1.073.02 1.115l-1.443 3.593c-.385.996-.739 2-1.068 3.016-1.359 4.38-.921 6.193-.583 6.235.719.083 2.803-3.297 2.803-3.297 0 1.959 1.009 4.516 3.192 6.36-.812.249-1.817.64-2.459 1.115-.577.427-.505.859-.4 1.036.457.771 7.843.489 9.973.251 2.136.239 9.521.52 9.979-.251.104-.177.177-.609-.4-1.036-.647-.475-1.647-.865-2.464-1.115 2.183-1.849 3.192-4.407 3.192-6.365 0 0 2.084 3.385 2.803 3.297.339-.036.776-1.855-.583-6.229zM16.88 6.464c.052-1.407.88-2.505 1.849-2.464.968.041 1.708 1.213 1.656 2.62-.052 1.401-.88 2.505-1.849 2.459-.963-.043-1.708-1.215-1.656-2.615zM13.271 4c.969-.041 1.797 1.057 1.849 2.464.052 1.4-.693 2.572-1.656 2.615-.969.047-1.797-1.057-1.849-2.459-.052-1.407.688-2.579 1.656-2.62zm-3.375 7.057c.255-.573 2.859-1.208 6.088-1.208h.032c3.224 0 5.833.635 6.088 1.208a.147.147 0 01.021.083.2.2 0 01-.037.111c-.219.317-3.109 1.889-6.067 1.889h-.037c-2.963 0-5.853-1.572-6.072-1.889a.18.18 0 01-.016-.193zm13.896 11.495c-.297 4.907-3.204 7.984-7.699 8.032h-.181c-4.496-.048-7.407-3.125-7.699-8.032-.109-1.797 0-3.323.193-4.573.427.089.853.167 1.281.235v4.677s2.208.448 4.421.136V18.73c.651.036 1.281.052 1.875.041h.032c2.239.032 4.953-.271 7.577-.792.199 1.251.303 2.776.199 4.573zM13.973 7.74c.417-.057.724-.547.677-1.1-.047-.557-.416-.963-.839-.905-.416.052-.724.547-.676 1.099.047.552.416.959.837.907zm5.334-.865c.105.047.292.057.387-.192.047-.131.031-.224-.016-.287-.032-.047-.177-.156-.495-.235-1.204-.297-1.787.511-1.871.661-.057.099-.015.24.073.308.088.067.188.047.24-.011.771-.839 1.615-.276 1.681-.245z"/></svg>