<svg xmlns="http://www.w3.org/2000/svg" width="100%" height="100%" viewBox="-51.2 -51.2 614.4 614.4"><path fill="var(--ci-primary-color, currentColor)" d="M230.2 356.821l14.425-30.654a573.693 573.693 0 01-40.421-44.777q15.881-21.418 29.594-43.958A543.369 543.369 0 00292.212 104H344V72H200V16h-32v56H16v32h59.77a545.123 545.123 0 0071.448 153.959 562.586 562.586 0 0020.566-27.031A512.677 512.677 0 01109.13 104h149.737c-29.727 97.53-84.546 169.208-126.64 213.119-48.993 51.107-91.952 76.86-92.38 77.114l1.621 2.738L48 408l8.14 13.774c1.873-1.106 46.474-27.729 98.389-81.68q15.38-15.982 29.44-32.931a608.138 608.138 0 0046.231 49.658zM333.722 200L328 212.516 209.379 472h35.185l36.571-80h141.73l36.571 80h35.185L370.278 200zM328 360h-32.236L328 289.484l24-52.5L408.236 360z" class="ci-primary"/></svg>