<svg xmlns="http://www.w3.org/2000/svg" width="100%" height="100%" viewBox="-3.2 -3.2 38.4 38.4"><path d="M28 0H4C1.803 0 0 1.803 0 4v5.145l5.464 3.172c.411.24.927.235 1.339 0 .348-.197 10.692-6.145 10.848-6.235.371-.213.771-.14.995-.009.219.124.813.463 1.12.635.313.183.297.672.021.833L6.839 14.994c-.464.265-.921.271-1.401 0a860.793 860.793 0 01-5.437-3.151v2.692l5.464 3.172c.411.24.927.24 1.339 0 .348-.192 10.692-6.145 10.848-6.235.371-.213.771-.14.995-.009.219.129.813.463 1.12.64.313.177.297.667.021.828S7.403 20.056 6.84 20.384c-.464.265-.921.271-1.401 0a860.793 860.793 0 01-5.437-3.151v2.692l5.464 3.172c.411.245.927.24 1.339 0 .348-.192 10.692-6.14 10.848-6.235.371-.213.771-.14.995-.009.219.129.813.463 1.12.64.313.177.297.667.021.828L6.841 25.774c-.464.265-.921.271-1.401.005-.801-.459-4.109-2.38-5.437-3.156v5.375c0 2.197 1.803 4 4 4h24c2.197 0 4-1.803 4-4v-24c0-2.197-1.803-4-4-4z"/></svg>