<svg xmlns="http://www.w3.org/2000/svg" width="100%" height="100%" viewBox="-51.2 -51.2 614.4 614.4"><path fill="var(--ci-primary-color, currentColor)" d="M126.638 202.672H51.986a24.692 24.692 0 00-24.242 19.434 487.088 487.088 0 00-1.466 206.535l1.5 7.189a24.94 24.94 0 0024.318 19.78h74.547a24.866 24.866 0 0024.837-24.838V227.509a24.865 24.865 0 00-24.842-24.837zm-7.163 220.938H57.916l-.309-1.487a455.085 455.085 0 01.158-187.451h61.71zM494.459 277.284l-22.09-58.906a24.315 24.315 0 00-22.662-15.706H332v-29.535l9.573-21.2a88.117 88.117 0 00-44.801-116.912 24.3 24.3 0 00-31.767 12.1l-80.312 175.812V248h23.731L290.7 67.882a56.141 56.141 0 0121.711 70.885l-10.991 24.341-1.42 6.584v48.98l16 16h128.3L464 287.2v9.272l-67.988 119.49H271.07l-86.377-50.67v37.1l72.007 42.241a24.222 24.222 0 0012.25 3.329h131.6a24.246 24.246 0 0021.035-12.234l71.25-125.228A24.26 24.26 0 00496 298.531v-12.748a24.144 24.144 0 00-1.541-8.499z" class="ci-primary"/></svg>