<svg xmlns="http://www.w3.org/2000/svg" width="100%" height="100%" viewBox="-51.2 -51.2 614.4 614.4"><path fill="var(--ci-primary-color, currentColor)" d="M441.885 141.649A32.028 32.028 0 00415.669 128H336V80a32.036 32.036 0 00-32-32H48a32.036 32.036 0 00-32 32v328h53.082a67.982 67.982 0 00133.836 0h106.164a67.982 67.982 0 00133.836 0H496V226.522a23.882 23.882 0 00-4.338-13.763zM47.98 80H304v176H48zM136 432a36 36 0 1136-36 36.04 36.04 0 01-36 36zm240 0a36 36 0 1136-36 36.04 36.04 0 01-36 36zm88-56h-23.006a68 68 0 00-129.988 0H200.994a68 68 0 00-129.988 0H48v-88h416zm0-120H336v-96h79.669L464 229.044z" class="ci-primary"/></svg>