<svg xmlns="http://www.w3.org/2000/svg" width="100%" height="100%" viewBox="-51.2 -51.2 614.4 614.4"><path fill="var(--ci-primary-color, currentColor)" d="M511.974 271.891a47.744 47.744 0 00-14.706-33.008L311.57 57.98a29.9 29.9 0 00-21.2-8.731h-33.142l217.754 212.6.092.088a15.907 15.907 0 01.741 22.337l-156.4 173.355 21.953 21.356L499.447 305.85a47.748 47.748 0 0012.527-33.959z" class="ci-primary"/><path fill="var(--ci-primary-color, currentColor)" d="M426.9 283.161a23.924 23.924 0 00-5.231-24.742c-.106-.111-.2-.231-.306-.34L224.307 57.716l-.094-.094a31.791 31.791 0 00-22.628-9.373H60.194A44.244 44.244 0 0016 92.443v141.1a32.121 32.121 0 0010.045 23.28l210.32 200.2.077.073a23.817 23.817 0 0016.409 6.508q.447 0 .9-.017a24.111 24.111 0 006.741-1.217 23.854 23.854 0 0010.047-6.517l151.444-164.621a24.033 24.033 0 004.917-8.071zM252.5 428.2L48.077 233.612 48 233.54V92.443a12.208 12.208 0 0112.194-12.194h141.39l191.7 194.918z" class="ci-primary"/><path fill="var(--ci-primary-color, currentColor)" d="M140 112a52 52 0 1052 52 52.059 52.059 0 00-52-52zm0 72a20 20 0 1120-20 20.023 20.023 0 01-20 20z" class="ci-primary"/></svg>