<svg xmlns="http://www.w3.org/2000/svg" width="100%" height="100%" viewBox="-51.2 -51.2 614.4 614.4"><path fill="var(--ci-primary-color, currentColor)" d="M469.613 46.229A77.38 77.38 0 00408 16h-12.381l-56 216H40v32c0 46.482 18.616 88.125 52.417 117.257C124.4 408.82 168.288 424 216 424h38.124l-8 72H448V250.04l35.411-136.585a77.379 77.379 0 00-13.798-67.226zM416 464H281.876l8-72H216c-84.785 0-144-52.636-144-128h344zm36.435-358.576L419.619 232h-46.942l47.3-182.436a45.952 45.952 0 0132.46 55.86z" class="ci-primary"/></svg>