<svg xmlns="http://www.w3.org/2000/svg" width="100%" height="100%" viewBox="-51.2 -51.2 614.4 614.4"><path fill="var(--ci-primary-color, currentColor)" d="M216 16a112.127 112.127 0 00-112 112v79.68a80.239 80.239 0 009.768 38.308l27.455 50.334L68.4 343.656A79.727 79.727 0 0032 410.732V496h280v-32H64v-53.268a47.838 47.838 0 0121.84-40.246l97.66-63.479-41.64-76.341A48.149 48.149 0 01136 207.68V128a80 80 0 01160 0v79.68a48.143 48.143 0 01-5.861 22.985L248.5 307.007l63.5 41.276v-38.166l-21.223-13.8 27.454-50.334A80.226 80.226 0 00328 207.68V128A112.127 112.127 0 00216 16zM483.314 355.314l-22.628-22.628L412 381.372l-48.686-48.686-22.628 22.628L389.372 404l-48.686 48.686 22.628 22.628L412 426.628l48.686 48.686 22.628-22.628L434.628 404l48.686-48.686z" class="ci-primary"/></svg>