<svg xmlns="http://www.w3.org/2000/svg" width="100%" height="100%" viewBox="-3.2 -3.2 38.4 38.4"><path d="M14.667 17.735L6.902 28.579a1.87 1.87 0 01-1.745.76c-.771-.093-1.833-.385-2.927-1.172S.522 26.464.189 25.766a1.875 1.875 0 01.161-1.901l7.765-10.843a4.044 4.044 0 011.416-1.235l1.527-.808c.307-.161.583-.38.812-.635.74-.844 2.729-3.047 6.261-6.609l.063-.287a.165.165 0 01.124-.131l.199-.052a.17.17 0 00.129-.187l-.015-.24a.167.167 0 01.167-.188c.233-.011.687.057 1.333.521.64.464.853.875.921 1.099a.171.171 0 01-.125.219l-.233.057a.187.187 0 00-.136.193l.016.197a.165.165 0 01-.084.161l-.249.152c-2.235 4.495-3.683 7.088-4.245 8.061a2.825 2.825 0 00-.339.975l-.276 1.708a4.103 4.103 0 01-.713 1.74zm16.984 6.129l-7.765-10.843a4.058 4.058 0 00-1.416-1.24l-1.527-.808a2.834 2.834 0 01-.812-.635 40.013 40.013 0 00-.781-.869c-.057-.057-.152-.048-.188.02a127.91 127.91 0 01-2.328 4.297 1.932 1.932 0 00-.229.645 4.738 4.738 0 000 1.475l.016.083c.099.631.344 1.224.713 1.74l7.765 10.844a1.842 1.842 0 001.724.765 6.335 6.335 0 002.948-1.172 6.383 6.383 0 002.041-2.407 1.865 1.865 0 00-.161-1.896zM11.073 4.489l.233.057a.181.181 0 01.136.188l-.016.197a.18.18 0 00.084.167l.249.152c.412.828.797 1.588 1.157 2.291.036.068.119.084.171.027.584-.625 1.287-1.365 2.115-2.224a.186.186 0 00.005-.256c-.421-.427-.859-.875-1.339-1.359l-.063-.281a.165.165 0 00-.124-.131l-.199-.052a.17.17 0 01-.129-.187l.015-.24a.169.169 0 00-.161-.188c-.235-.011-.692.057-1.339.521-.64.464-.848.875-.921 1.099a.173.173 0 00.131.219z"/></svg>