<svg xmlns="http://www.w3.org/2000/svg" width="100%" height="100%" viewBox="-3.2 -3.2 38.4 38.4"><path d="M32.075 16a.42.42 0 01-.225.375l-4.455 2.675a.442.442 0 01-.45.015.45.45 0 01-.225-.39v-1.78H14.785c1.265 1.98 2.025 5.345 3.48 5.345H19.6V20.9a.44.44 0 01.445-.445H24.5a.44.44 0 01.445.445v4.455a.44.44 0 01-.445.445h-4.455a.44.44 0 01-.445-.445V24.02h-1.335c-3.77 0-4.055-7.125-6.235-7.125H7.015c-.405 1.53-1.795 2.675-3.45 2.675C1.6 19.565 0 17.965 0 16s1.6-3.565 3.565-3.565c1.655 0 3.05 1.14 3.45 2.675 1.955 0 2.195.475 3.73-3.02 2.005-4.455 2.905-4.105 5.445-4.105a2.675 2.675 0 110 1.79H14.7c-1.455 0-2.215 3.37-3.48 5.345h15.505v-1.78c0-.165.085-.305.225-.39s.32-.07.445.015l4.455 2.675c.14.055.225.205.225.36z"/></svg>