<svg xmlns="http://www.w3.org/2000/svg" width="100%" height="100%" viewBox="-51.2 -51.2 614.4 614.4"><path fill="var(--ci-primary-color, currentColor)" d="M410.7 286.969c.428-.853.848-1.712 1.252-2.564L456 191.915v-22.891l-3.063-4.209c-.579-.794-58.045-79.741-77.516-105.7-21.563-28.752-42.328-41.573-67.329-41.573-19.5 0-39.3 9.269-58.825 27.549A169.483 169.483 0 00236 59.063a169.483 169.483 0 00-13.267-13.973c-19.528-18.28-39.32-27.549-58.825-27.549-25 0-45.766 12.821-67.329 41.573-19.471 25.96-76.937 104.907-77.516 105.7L16 169.024v22.891l44.037 92.477q.617 1.3 1.262 2.583a134.918 134.918 0 0050.722 54.836 138.545 138.545 0 0071.9 20.065h104.156a138.545 138.545 0 0071.9-20.065 134.924 134.924 0 0050.723-54.842zm-226.777 42.907c-39.666 0-76.572-22.473-94.02-57.247a98.988 98.988 0 01-.968-1.982L48 184.685v-5.246c12.2-16.749 57.436-78.8 74.179-101.126 19.015-25.354 31.765-28.772 41.729-28.772 23.113 0 47.41 28.439 54.806 39.374L223.468 96h25.064l4.754-7.085c6.854-10.215 31.634-39.374 54.806-39.374 9.964 0 22.714 3.418 41.729 28.773C366.563 100.637 411.8 162.69 424 179.439v5.246l-40.941 85.976c-.314.66-.635 1.317-.959 1.962-17.451 34.78-54.357 57.253-94.023 57.253z" class="ci-primary"/><path fill="var(--ci-primary-color, currentColor)" d="M304.429 112.851l-10.073 11.394c-.233.265-24.313 26.43-58.356 26.43-34.158 0-58.166-26.219-58.356-26.43l-10.073-11.394-83.641 66.688 44.393 89.547 11.457-1.637a680.122 680.122 0 01192.44 0l11.457 1.637 44.393-89.547zm20.815 121.373a711.9 711.9 0 00-178.488 0l-22.686-45.763 40.842-32.561c13.575 11.028 38.644 26.778 71.088 26.778s57.513-15.75 71.088-26.778l40.842 32.564zM342.77 383.422v32a110.961 110.961 0 00107-82.1l-30.92-8.285a78.9 78.9 0 01-76.08 58.385z" class="ci-primary"/><path fill="var(--ci-primary-color, currentColor)" d="M480.679 341.605c-16.325 60.868-71.962 105.817-137.909 105.817v32c80.729 0 148.837-55.024 168.82-129.534z" class="ci-primary"/></svg>