<svg xmlns="http://www.w3.org/2000/svg" width="100%" height="100%" viewBox="-3.2 -3.2 38.4 38.4"><path d="M30.027 15.896c-.824.192-1.62.276-2.344.276-4.037 0-7.147-2.823-7.147-7.724 0-2.407.943-3.645 2.261-3.645 1.26 0 2.083 1.124 2.083 3.405 0 1.297-.344 2.719-.599 3.563 0 0 1.24 2.183 4.64 1.5.719-1.604 1.12-3.683 1.12-5.505 0-4.905-2.5-7.765-7.083-7.765-4.724-.021-7.485 3.599-7.485 8.385 0 4.735 2.209 8.797 5.86 10.645-1.536 3.068-3.484 5.772-5.527 7.808-3.687-4.469-7.025-10.427-8.4-22.052H1.958c2.515 19.364 10.02 25.531 12.005 26.708 1.119.677 2.083.641 3.115.068 1.619-.917 6.463-5.756 9.14-11.417a18.236 18.236 0 003.823-.437v-3.823z"/></svg>