<svg xmlns="http://www.w3.org/2000/svg" width="100%" height="100%" viewBox="-51.2 -51.2 614.4 614.4"><path fill="var(--ci-primary-color, currentColor)" d="M145.373 120H16v272h129.373l104 104H288V16h-38.627zM128 360H48V152h80zm128 97.373l-96-96V150.627l96-96zM408 256a88.1 88.1 0 00-88-88v32a56 56 0 010 112v32a88.1 88.1 0 0088-88z" class="ci-primary"/><path fill="var(--ci-primary-color, currentColor)" d="M320 57.445v32.277C401.307 101.4 464 171.512 464 256s-62.693 154.6-144 166.278v32.277C419.005 442.66 496 358.158 496 256S419.005 69.34 320 57.445z" class="ci-primary"/></svg>