<svg xmlns="http://www.w3.org/2000/svg" width="100%" height="100%" viewBox="-3.2 -3.2 38.4 38.4"><path d="M27.2 2H4.8A2.803 2.803 0 002 4.8v22.4C2 28.744 3.256 30 4.8 30h22.4c1.544 0 2.8-1.256 2.8-2.8V4.8C30 3.256 28.744 2 27.2 2zm-1.637 9.3c-.087 1.969-1.462 4.669-4.125 8.087-2.75 3.575-5.081 5.363-6.981 5.363-1.181 0-2.175-1.087-2.994-3.269-1.594-5.831-2.275-9.25-3.587-9.25-.15 0-.681.319-1.587.95l-.95-1.225c2.331-2.05 4.556-4.325 5.95-4.45 1.575-.15 2.544.925 2.906 3.231 1.294 8.2 1.869 9.438 4.225 5.725.844-1.337 1.3-2.356 1.363-3.056.219-2.075-1.619-1.931-2.863-1.4.994-3.256 2.894-4.838 5.7-4.75 2.081.056 3.063 1.406 2.944 4.044z"/></svg>