<svg xmlns="http://www.w3.org/2000/svg" width="100%" height="100%" viewBox="-3.2 -3.2 38.4 38.4"><path d="M23.645 9.651c0-.333 0-.635.199-.833.265-.233.531-.203.801-.203h1.901c1.021 0 2.5.265 3.5 1.172 1 .932 1.219 2.265 1.219 3.468v3.005c0 .797.021 1.371-.375 2.104-.5.933-1.541 1.199-1.541 1.333 0 .136 1.12.339 1.62 1.339.4.803.359 1.303.359 2.1v4.14c0 .823 0 1.86-1.197 3.26-1.141 1.261-2.719 1.443-3.521 1.443-.599 0-1.036.021-1.64 0-.396-.041-1 .021-1.141-.181-.197-.303-.255-.24-.255-1.141V9.641zm-7.281 21.797c0 .536-.129.536-1.135.536-.765 0-1 0-1-.468V9.64c0-.333.031-.697.235-.9.265-.235.5-.136.765-.136h1.907c1.067 0 2.504.265 3.504 1.167 1 .932 1.235 2.308 1.235 3.475v3.015c0 .797.032 1.371-.369 2.104-.5.933-1.568 1.199-1.568 1.333 0 .136 1.099.339 1.599 1.339.401.797.371 1.297.371 2.1v8.301c0 .521-.24.521-1.141.521-.776 0-1 .02-1-.48V23c0-1.369-.896-2.203-1.635-2.203-1.584 0-1.781-.032-1.781.5v10.119zm-5.104.5c-.9 0-1 0-1-.469V9.151c0-.437.199-.5 1-.5.896 0 1.136.032 1.136.532v22.233c0 .501-.063.543-1.125.543zm14.885-2.167c.261.036.303.036.604.036.36 0 1.199-.099 1.797-.719.661-.719.704-1.197.704-1.755v-4.281c0-1.541-.901-2.199-1.901-2.199-1.443 0-1.543.1-1.543.896v7.021c0 .38.021 1 .319 1.041zM4.812 25.036c.568-5.739 1.068-10.615 1.6-15.859.067-.563.333-.532.937-.532.932 0 1.265.068 1.235.437-1 8.22-1.772 14.297-2.772 22.417-.063.479-.416.5-1.099.5-.859 0-1.26 0-1.339-.563C2.473 23.916 1.65 17.239.677 9.04c-.027-.401.135-.401 1.077-.401.98 0 1.177.1 1.199.543.541 5.839.943 10.38 1.443 15.937 0 .099.036.317.197.317.199 0 .24-.219.24-.359zm12.423-14.219c-.303 0-.604 0-.74.235-.099.199-.099.369-.099.568v6.244c0 .365-.068.735.197.933.199.161.433.12.6.12.369 0 1.239-.1 1.843-.74.661-.745.661-1.303.661-1.781V13.26c0-.771-.129-1.339-.697-1.937-.364-.333-.568-.5-1.765-.5zm9.64 0c-.468 0-.833 0-.968.235-.095.199-.095.369-.095.568v6.244c0 .365-.036.667.199.901.197.199.333.167.599.167.469 0 1.235-.099 1.839-.735.667-.739.667-1.239.667-1.781V13.26c0-.771-.136-1.339-.703-1.937-.365-.333-.6-.5-1.537-.5zM14.521 2.683h-2.105V.527c0-.496-.228-.527-1.113-.527-.781 0-.98.068-.98.489v2.193H8.271c-.489 0-.525.229-.525 1.109 0 .787.067.979.489.979h2.083v2.068c0 .459.104.459.98.459 1.052 0 1.115-.032 1.115-.527V4.775h2.172c.457 0 .457-.099.457-.979 0-1.048-.031-1.115-.52-1.115z"/></svg>