<svg xmlns="http://www.w3.org/2000/svg" width="100%" height="100%" viewBox="-3.2 -3.2 38.4 38.4"><path d="M20.984 14.266c-.703-2.036.188-5.333.188-5.333s-3.036 1.75-5.266 1.734c-2.224-.016-5.068-1.734-5.068-1.734s.75 3.281.094 5.385c-.641 2.109-3.292 4.453-3.292 4.453s3.438.307 5.13 1.469c1.698 1.161 3.229 4.615 3.229 4.615s1.042-3.135 3.094-4.547c2.052-1.427 5.281-1.536 5.281-1.536s-2.667-2.453-3.391-4.49zm-2.666 4.922c-1.453 1.078-2.333 2.917-2.333 2.917s-1.01-1.906-2.396-2.958c-1.401-1.052-3.427-1.292-3.427-1.292a6.749 6.749 0 002.036-3.161c.615-2.052.24-3.641.24-3.641s1.229.932 3.495.932 3.719-.932 3.719-.932-.505 2.109.094 3.599c.589 1.521 2.094 3.214 2.094 3.214s-2.078.229-3.521 1.323zm-.011-6.386s-1.266.505-2.359.49c-1.094 0-2.266-.49-2.266-.49.063.771 0 1.531-.229 2.266-.359 1.146-1.214 2.187-1.214 2.187a5.637 5.637 0 013.76 2.677s.599-1.13 1.573-1.771a7.731 7.731 0 012.172-.932s-.984-1.042-1.359-2.094c-.37-1.042-.078-2.333-.078-2.333zM26.802 16l4.411-4.932-6.469-1.427.667-6.589-6.078 2.667L16 0l-3.333 5.719-6.068-2.667.656 6.599-6.469 1.401L5.187 16 .802 20.932l6.464 1.427-.667 6.589 6.068-2.667L16 32l3.333-5.719 6.078 2.667-.667-6.589 6.469-1.411L26.812 16zm-7.031 5.266C18.667 22.079 16 27.745 16 27.745s-2-5.146-4-6.479c-1.974-1.333-7.172-1.625-7.172-1.625s3.984-3.161 4.76-5.958c.786-2.802-.495-7.161-.495-7.161s3.865 2.797 6.771 2.797c2.896 0 7.016-2.797 7.016-2.797s-1.094 6-.708 7.281c.401 1.276 4.974 5.839 4.974 5.839s-6.266.828-7.385 1.625z"/></svg>