<svg xmlns="http://www.w3.org/2000/svg" width="100%" height="100%" viewBox="-3.2 -3.2 38.4 38.4"><path d="M16 32C7.125 32 0 24.776 0 16 0 7.125 7.125 0 16 0s16 7.125 16 16c0 8.776-7.125 16-16 16zm0-29.312c-7.328 0-13.318 5.984-13.318 13.313S8.672 29.319 16 29.319c7.328 0 13.318-5.99 13.318-13.318S23.328 2.688 16 2.688zm7.849 14.859H12.286a.927.927 0 01-.932-.917v-1.349c0-.521.411-.932.932-.932h11.661c.516 0 .927.417.927.932v1.339c-.099.516-.516.927-1.026.927zm-2.995-5.162H9.187a.925.925 0 01-.932-.917v-1.349c0-.417.417-.828.932-.828h11.661c.417 0 .828.417.828.828v1.339c0 .516-.411.927-.823.927zm-11.666 7.23h11.667c.516 0 .927.411.927.927v1.339a.928.928 0 01-.922.932H9.188c-.516-.104-.927-.516-.927-1.031v-1.344c-.005-.411.411-.823.927-.823z"/></svg>