<svg xmlns="http://www.w3.org/2000/svg" width="100%" height="100%" viewBox="-3.2 -3.2 38.4 38.4"><path d="M31.385 16.995c-.807-1.839-2.344-3.297-4.12-4.198-3.141-1.589-7.042-1.583-10.172.042-2.177 1.115-3.99 3.115-4.505 5.547-.427 1.792-.047 3.719.906 5.281 1.417 2.349 3.974 3.849 6.63 4.328 1.922.391 3.911.161 5.781-.375 1.125.432 2.125 1.135 3.214 1.661a66.909 66.909 0 00-.906-2.807c1.224-.865 2.328-1.948 2.995-3.302.99-1.885 1.052-4.229.177-6.177zM18.156 4.375c-3.328-1.87-7.469-2.151-11.047-.859-2.354.849-4.479 2.422-5.797 4.563C.119 10.011-.329 12.423.249 14.631c.573 2.453 2.281 4.51 4.349 5.885a106.295 106.295 0 00-1.141 3.406c1.297-.677 2.599-1.391 3.901-2.078 1.557.5 3.219.745 4.88.688-.443-1.255-.542-2.62-.339-3.932.297-1.828 1.297-3.5 2.656-4.74 2.302-2.156 5.563-3.063 8.661-2.844-.583-2.844-2.583-5.25-5.099-6.641zm2.313 13.318c-.281.87-1.542 1.13-2.156.469-.672-.609-.411-1.891.474-2.161.979-.411 2.109.714 1.682 1.693zm6.39.125c-.339.781-1.521.964-2.099.359-.281-.255-.359-.641-.458-.974.135-.609.557-1.245 1.24-1.271.938-.13 1.781 1.031 1.297 1.885zm-9.541-8.604c.01 1.281-1.698 2.078-2.656 1.208-1-.714-.714-2.448.453-2.807 1.047-.417 2.286.458 2.203 1.583zm-8.078.322c-.229 1.115-1.719 1.651-2.594.906-1.01-.714-.729-2.484.458-2.844 1.167-.448 2.49.734 2.135 1.938z"/></svg>