<svg xmlns="http://www.w3.org/2000/svg" width="100%" height="100%" viewBox="-3.2 -3.2 38.4 38.4"><path d="M31.328 8.271a4.006 4.006 0 00-2.787-2.781c-2.495-.667-12.525-.667-12.525-.667S6.005 4.807 3.484 5.49A4.005 4.005 0 00.703 8.271a41.574 41.574 0 00-.697 7.745 42.136 42.136 0 00.697 7.708 4.022 4.022 0 002.781 2.787c2.495.667 12.532.667 12.532.667s10.005 0 12.525-.667a4.023 4.023 0 002.787-2.787c.459-2.541.683-5.125.667-7.708.016-2.6-.203-5.188-.667-7.745zM12.812 20.803v-9.595l8.349 4.808z"/></svg>