<svg xmlns="http://www.w3.org/2000/svg" width="100%" height="100%" viewBox="-3.2 -3.2 38.4 38.4"><path d="M28.146 24.302c-.188 1.292-2.823 4.646-4.036 5.13-.417.161-.813.125-1.135-.12-.203-.161-.417-.49-3.26-5.104l-.844-1.375c-.328-.495-.266-1.146.141-1.641.396-.479.974-.656 1.479-.464.026.016 2.13.703 2.13.703 4.781 1.573 4.938 1.635 5.141 1.786.302.25.443.635.38 1.083zm-9.583-7.021c-.344-.516-.333-1.125.016-1.542l1.328-1.813c2.917-3.979 3.083-4.188 3.281-4.328.339-.229.76-.24 1.161-.042 1.156.563 3.495 4.036 3.635 5.37v.047c.042.453-.141.823-.458 1.047-.219.141-.422.219-5.859 1.542-.859.219-1.339.339-1.62.438l.036-.042c-.536.161-1.135-.099-1.479-.635zm-3.344-2.062c-.255.078-1.047.323-2.021-1.25 0 0-6.578-10.349-6.729-10.667-.094-.359.016-.766.339-1.094.979-1.016 6.286-2.5 7.677-2.161.453.12.766.401.875.807.083.448.729 10.047.823 12.198.089 1.839-.703 2.089-.964 2.167zm.87 10.521c-.016 5.031-.026 5.203-.109 5.443-.135.37-.458.625-.906.703-1.281.219-5.286-1.26-6.125-2.25-.161-.219-.26-.438-.281-.661a.85.85 0 01.063-.458c.099-.26.24-.464 3.839-4.682l1.057-1.255c.365-.464 1-.604 1.599-.365.583.219.943.719.901 1.26v2.24zM5.177 22.521c-.391-.01-.745-.25-.953-.641-.146-.286-.25-.755-.318-1.333-.182-1.734.042-4.354.563-5.182.24-.38.599-.583.99-.568.26 0 .495.078 5.641 2.198l1.505.599c.542.203.875.76.844 1.401-.042.62-.401 1.099-.927 1.24l-2.141.682c-4.786 1.542-4.948 1.578-5.198 1.557zm19.969 9.474h-.005l-.005.005z"/></svg>