<svg xmlns="http://www.w3.org/2000/svg" width="100%" height="100%" viewBox="-3.2 -3.2 38.4 38.4"><path d="M16 0C7.167 0 0 7.167 0 16s7.167 16 16 16 16-7.167 16-16S24.833 0 16 0zm1.026 5.474c.24 0 .484.068.698.208.167.109.38.245 1.005 1.536.417-.115.625-.052.734-.021.276.073.49.25.62.5.635 1.219.724 3.401.443 4.807-.318 1.641-1.005 2.703-1.505 3.432.432.438 1.036 1.198 1.49 2.432a6.638 6.638 0 01.365 2.688c.276-.13.542-.276.802-.438.792-.49 1.979-1.224 3.401-1.245.953-.01 1.693.594 1.807 1.474a1.643 1.643 0 01-1.26 1.813c-.865.214-1.266.375-2.427 1.125-1.646 1.063-3.385 1.656-4.016 1.854-.276.224-.599.38-.943.458-.979.24-4.354.422-4.62.422h-.063c-1.042 0-1.62-.323-1.932-.656-.875.438-2.01.255-2.828-.177a1.443 1.443 0 01-.776-1.542 2.03 2.03 0 01-.203-.26c-.214-.333-.703-1.245-.604-2.594.073-.964.74-1.823 1.172-2.276a7.35 7.35 0 01.547-3.01c.406-.969 1.177-1.797 1.76-2.318-.427-.714-.859-1.823-.443-2.943.302-.807.552-1.25 1.094-1.443h-.005c.266-.099.521-.203.646-.344a4.571 4.571 0 013.068-1.474c.047-.12.104-.245.167-.375.411-.875.849-1.37 1.365-1.557.141-.052.286-.078.438-.078zm.005.932c-.677.021-1.333 2.026-1.333 2.026s-1.693-.271-3.021 1.161c-.266.292-.625.443-.995.589-.104.036-.234.026-.557.896-.495 1.318.833 2.792.833 2.792s-1.583 1.115-2.167 2.505c-.651 1.526-.453 3.016-.453 3.016s-1.125.974-1.198 1.984c-.068.88.188 1.599.458 2.021.302.453.682.234.682.234s-.75.87-.052 1.24c.635.333 1.708.526 2.281-.052.411-.411.495-1.333.646-1.708.036-.089.161.146.281.266.13.125.349.26.349.26s-1.005.432-.594 1.422c.135.328.625.536 1.422.531.297-.01 3.552-.188 4.417-.396.5-.12.677-.38.677-.38s2.089-.573 3.995-1.807c1.224-.797 1.724-1.016 2.714-1.25.818-.193.76-1.464-.323-1.443-1.12.01-2.099.589-2.927 1.099-1.552.958-2.323.896-2.323.896l-.026-.042c-.104-.172.495-1.724-.177-3.573-.729-2.016-1.885-2.505-1.792-2.661.396-.667 1.385-1.729 1.781-3.708.234-1.198.172-3.167-.359-4.198-.099-.193-.979.323-.979.323s-.818-1.828-1.047-1.979a.379.379 0 00-.214-.063z"/></svg>