<svg xmlns="http://www.w3.org/2000/svg" width="100%" height="100%" viewBox="-3.2 -3.2 38.4 38.4"><path d="M27.803 8.651a1.631 1.631 0 00.359-2.161 1.647 1.647 0 00-1.839-.687l-.187.099c-1.084.599-8.407 5.719-7.584 6.296.823.573 5.817-1.676 9.229-3.552zm-.022 15.406c-3.432-1.875-8.427-4.125-9.251-3.552-.823.577 6.48 5.703 7.563 6.297l.188.099a1.604 1.604 0 001.823-.688c.464-.708.281-1.64-.364-2.156zm2.968-9.385c-.077-.021-.14-.021-.219-.021-1.244 0-10.115.964-9.671 1.865.443.885 5.895 1.323 9.791 1.323a1.643 1.643 0 001.344-1.724c-.063-.745-.583-1.344-1.287-1.484zM7.235 22.355c-1 2.869-1.943 4.213-4.109 4.213-.204 0-.948-.037-.985-.063A1.493 1.493 0 00.616 27.63c-.219.785.24 1.604 1.041 1.848.563.1 1.167.12 1.688.12 3.973 0 5.296-2.287 6.599-5.635l7.828-19.385a1.672 1.672 0 00-1.083-2.089c-.865-.281-1.767.183-2.089 1.005L9.141 17.937h-.077L3.324 3.396c-.359-.803-1.323-1.203-2.187-.885A1.75 1.75 0 00.089 4.698l7.235 17.663z"/></svg>