<svg xmlns="http://www.w3.org/2000/svg" width="100%" height="100%" viewBox="-3.2 -3.2 38.4 38.4"><path d="M20 16.005a9.563 9.563 0 01-.615 3.38 9.56 9.56 0 01-3.38.615h-.011a9.563 9.563 0 01-3.38-.615 9.58 9.58 0 01-.615-3.38v-.011c0-1.192.219-2.328.615-3.38a9.563 9.563 0 013.38-.615h.011c1.192 0 2.333.219 3.38.615a9.563 9.563 0 01.615 3.38zm11.781-2.672h-9.344l6.599-6.604a15.961 15.961 0 00-1.724-2.041 15.937 15.937 0 00-2.041-1.729l-6.604 6.599V.219A17.061 17.061 0 0016.006 0h-.016c-.907 0-1.792.083-2.656.219v9.344L6.735 2.964a14.863 14.863 0 00-2.047 1.724 15.467 15.467 0 00-1.729 2.041l6.599 6.604H.219S0 15.088 0 15.994v.011c0 .907.083 1.797.219 2.661h9.344l-6.599 6.599a15.79 15.79 0 003.765 3.776l6.604-6.599v9.339c.864.14 1.749.219 2.656.219h.021c.907 0 1.792-.079 2.656-.219v-9.339l6.599 6.599c.735-.5 1.417-1.083 2.041-1.719h.005a14.729 14.729 0 001.729-2.041l-6.599-6.599h9.339c.14-.86.219-1.74.219-2.641V16c0-.907-.079-1.792-.219-2.651z"/></svg>