<svg xmlns="http://www.w3.org/2000/svg" width="100%" height="100%" viewBox="-2.72 -2.72 37.44 37.44"><path fill="#F0C13E" d="M16.291 15.982s8.926-3.183 14.85-8.828c.357-.34.943-.001.828.479C29.89 16.304 22.5 21.438 22.5 21.438l-6.209-5.456z"/><path fill="#845331" d="M29.167 14.167c.504-.805.978-1.669 1.407-2.593L28.43 9.43a40.201 40.201 0 01-2.357 1.643l3.094 3.094z"/><path fill="#FFD04D" d="M11.5 17H16v5h-4.5z"/><path fill="#F7C845" d="M16 17h4.5v5H16z"/><path fill="#96643B" d="M11.5 14v3l4.5 1v-4z"/><path fill="#8D5B36" d="M16 14v4l4.5-1v-3z"/><path fill="#9E6E43" d="M10.5 11s-2.629 0-3.785 2.461a.51.51 0 00.288.706L9.5 15H16v-4h-5.5z"/><path fill="#96643B" d="M21.5 11s2.629 0 3.785 2.461a.51.51 0 01-.288.706L22.5 15H16v-4h5.5z"/><path fill="#FFD04D" d="M9.5 15l-1 4 3-2v-2z"/><path fill="#F7C845" d="M22.463 15l1 4-3-2v-2z"/><path fill="#FFD04D" d="M11.5 20s-3 0-4 4l2 4s1-4 3-4l-1-4z"/><path fill="#F7C845" d="M20.5 20s3 0 4 4l-2 4s-1-4-3-4l1-4z"/><path fill="#FFD96C" d="M13.5 2L10.224.362A.5.5 0 009.5.809V5l-.694 2.774a4.333 4.333 0 00.106 2.463l.014.042a4.476 4.476 0 002.233 2.55l1.959.979c.302.151.539.408.664.722a2.338 2.338 0 002.17 1.47H16V2h-2.5z"/><path fill="#FFD04D" d="M23.194 7.774L22.5 5V.809a.5.5 0 00-.724-.447L18.5 2H16v14h.23c.845 0 1.605-.515 1.919-1.299a1.86 1.86 0 01.896-.973l1.795-.897a4.48 4.48 0 002.233-2.55l.014-.042c.273-.795.31-1.651.107-2.465z"/><path fill="#E8BA67" d="M9.705.41A.49.49 0 009.5.809V5l2-1L9.705.41z"/><path fill="#DDAA5F" d="M22.5 5V.809a.49.49 0 00-.205-.399L20.5 4l2 1z"/><path fill="#FFD96C" d="M2.563 22.937a1.326 1.326 0 011.874 0L5.5 24l-.741-2.223a1.325 1.325 0 012.487-.911l2.538 6.346a10.01 10.01 0 01.715 3.714V31a1 1 0 01-2 0v-.54c0-.292-.128-.569-.349-.759l-5.564-4.769a1.326 1.326 0 01-.074-1.944l.051-.051z"/><path fill="#FFD04D" d="M29.437 22.937a1.326 1.326 0 00-1.874 0L26.5 24l.741-2.223a1.325 1.325 0 00-2.487-.911l-2.538 6.346a10.01 10.01 0 00-.715 3.714V31a1 1 0 002 0v-.54c0-.292.128-.569.349-.759l5.564-4.769c.586-.502.62-1.397.075-1.943l-.052-.052z"/><path fill="#373F3F" d="M14.75 12.003a.251.251 0 01-.224-.139c-.673-1.347-2.26-1.361-2.276-1.361a.25.25 0 110-.5c.083 0 1.915.02 2.724 1.639a.25.25 0 01-.224.361z"/><path fill="#2B3332" d="M17.25 12.003a.25.25 0 01-.224-.361c.809-1.619 2.641-1.639 2.724-1.639a.25.25 0 11.001.5c-.065 0-1.607.021-2.277 1.361a.251.251 0 01-.224.139z"/><path fill="#FFD96C" d="M16 20.791a2.857 2.857 0 00-.579-.654L11.5 17l-3 2c0 .552.448 1 1 1s1 .448 1 1v.394c0 .395.117.781.336 1.109l1.174 1.762a1 1 0 001.279.34l2.658-1.329c.02-.01.034-.026.053-.036v-2.449z"/><path fill="#FFD04D" d="M20.5 17l-3.921 3.137a2.878 2.878 0 00-.579.654v2.449c.019.011.033.027.053.036l2.658 1.329c.451.226 1 .08 1.279-.34l1.174-1.762c.219-.329.336-.715.336-1.109V21c0-.552.448-1 1-1s1-.448 1-1l-3-2z"/></svg>