<svg xmlns="http://www.w3.org/2000/svg" width="100%" height="100%" viewBox="-2.72 -2.72 37.44 37.44"><path fill="#65A9DC" d="M7.929 28.429c-1.481.697-2.267 1.716-1.786 2.786.643 1.429 5.071.571 5.786-.929.443-.93.378-1.69-.286-2.071-.695-.4-2.5-.358-3.714.214z"/><path fill="#2B3332" d="M18.271 31l-.062-.002a.75.75 0 01-.598-.39l-4.437-8.435a.5.5 0 11.884-.466l4.247 8.074 3.545-4.822 7.663 4.628-2.84-8.811a.5.5 0 01.952-.306l3.045 9.447a.743.743 0 01-.249.818.745.745 0 01-.853.053l-7.453-4.501-3.244 4.413a.756.756 0 01-.6.3zm11.448-.777h.01-.01z"/><circle cx="27.296" cy="22.644" r="3.604" fill="#4896C8"/><path fill="#65A9DC" d="M5.045 14.981A4.983 4.983 0 013 15.404c-.917 0-3-.625-3 1.5 0 1.75 1.958 1.875 3 1.5.538-.194 1.302-.719 2.047-1.301l-.002-2.122z"/><path fill="#5CA3D5" d="M26.955 14.981a4.98 4.98 0 002.045.424c.917 0 3-.625 3 1.5 0 1.75-1.958 1.875-3 1.5-.538-.194-1.302-.719-2.047-1.301l.002-2.123z"/><path fill="#65A9DC" d="M14.274 11.022c-.523-1.254-2.512-6.662-2.904-7.524-.211-.463-.679-2.456-3.814-2.456-3.031 0-7.472 1.933-7.472 4.337 0 1.933 6.897.627 6.897.627l4.785 7.524 2.508-2.508z"/><path fill="#E55D53" d="M12.417 8.975c-.532-1.29-1.625-4.1-1.897-4.654-.603.637-1.937 1.346-2.603 1.588.243.419 2.447 3.895 2.447 3.895s1.055-.598 2.053-.829z"/><path fill="#5CA3D5" d="M17.725 10.769c.498-1.195 2.07-5.924 2.717-6.571.647-.647 9.264-5.974 11.326-3.584 1.512 1.752-4.821 5.54-6.251 6.438a2.36 2.36 0 00-.538.464l-4.865 5.644-2.389-2.391z"/><path fill="#D64F45" d="M19.836 8.733c.265-.886 1.336-3.571 1.758-3.992.421-.421 6.44-3.737 7.155-2.513.596 1.022-3.742 3.722-4.131 4.046s-2.705 3.341-2.705 3.341-1.063-.605-2.077-.882z"/><path fill="#65A9DC" d="M4 19.001c0 6.502 5.498 10 12 10V5.149c-7.561 0-12 9.188-12 13.852z"/><path fill="#65A9DC" d="M4 19.001c0 6.502 5.498 10 12 10V5.149c-7.561 0-12 9.188-12 13.852z"/><path fill="#5CA3D5" d="M28 19.001c0 6.502-5.498 10-12 10V5.149c7.561 0 12 9.188 12 13.852z"/><path fill="#5CA3D5" d="M24.071 28.429c1.481.697 2.267 1.716 1.786 2.786-.643 1.429-5.071.571-5.786-.929-.443-.93-.378-1.69.286-2.071.695-.4 2.5-.358 3.714.214z"/><path fill="#CE8683" d="M16 14.763c-.506 0-1.169.133-1.479.733.149.289.355.529.595.704.022.016.044.029.067.044.096.063.197.112.303.152.033.012.065.027.099.037.133.04.271.067.415.067v-1.737z"/><ellipse cx="10.367" cy="19.875" fill="#F7F7F7" rx="1.875" ry="2"/><ellipse cx="6.417" cy="17.063" fill="#F7F7F7" rx=".875" ry="1"/><path fill="#F7F7F7" d="M14.625 19.771c0 .81.616 1.467 1.375 1.467v-2.933c-.759-.001-1.375.656-1.375 1.466z"/><path fill="#EDEEEE" d="M25.583 21.083c-.927.695-1.668 2.616-3.917 2.792C19 24.083 18.708 22.65 16 22.65c-2.896 0-3 1.451-5.667 1.243-2.248-.176-2.99-2.097-3.917-2.792-.833-.625-1.583-.667-2.263-.261.753 5.272 5.98 8.178 11.846 8.178s10.937-2.83 11.846-8.196c-.678-.405-1.428-.364-2.262.261z"/><path fill="#F7F7F7" d="M16 22.65c-2.896 0-3 1.451-5.667 1.243-2.248-.176-2.99-2.097-3.917-2.792-.833-.625-1.583-.667-2.263-.261.753 5.272 5.98 8.178 11.846 8.178V22.65z"/><ellipse cx="21.633" cy="19.875" fill="#EDEEEE" rx="1.875" ry="2"/><ellipse cx="25.583" cy="17.062" fill="#EDEEEE" rx=".875" ry="1"/><path fill="#EDEEEE" d="M16 18.304v2.933c.759 0 1.375-.657 1.375-1.467 0-.809-.616-1.466-1.375-1.466z"/><path fill="#E55D53" d="M16 13.502v3.218c-1.188 0-2.198-1.625-2.249-2.551-.006-.102.079-.172.175-.207.383-.14 1.007-.454 2.074-.46z"/><path fill="#D64F45" d="M18.075 13.962c.096.035.181.105.175.207-.051.926-1.062 2.551-2.249 2.551v-3.218c1.067.006 1.691.32 2.074.46z"/><ellipse cx="12.477" cy="11.147" fill="#373F3F" rx="1.665" ry="1.499" transform="rotate(-65.6 12.477 11.147)"/><circle cx="12.739" cy="10.571" r=".833" fill="#FFF"/><ellipse cx="19.523" cy="11.147" fill="#2B3332" rx="1.499" ry="1.665" transform="rotate(-24.398 19.524 11.147)"/><circle cx="19.261" cy="10.571" r=".833" fill="#F7F7F7"/></svg>