<svg xmlns="http://www.w3.org/2000/svg" width="100%" height="100%" viewBox="-2.72 -2.72 37.44 37.44"><path fill="#F7D684" d="M18.875 20l-7-7s-2-13 10-13c10.647 0 10.273 11.808 10.053 14.471a.25.25 0 01-.426.156L28.875 12v2.396a.25.25 0 01-.427.177L25.875 12s1 8-7 8z"/><path fill="#F79654" d="M23.058 25c0-3-1-6-1-6l-1 .5.803 1.205a.25.25 0 01-.147.381l-1.656.414.741 1.111a.25.25 0 01-.209.389h-1.533v1.653a.25.25 0 01-.329.237l-.661-.22c.103 3.97 1.101 6.037 1.644 6.873a1 1 0 00.841.457h3.505a1 1 0 001-1c.001-2-1.999-3-1.999-6z"/><path fill="#FCA15E" d="M13.387 24.89a.25.25 0 01-.329-.237V23h-1.533a.25.25 0 01-.208-.389l.741-1.111-1.656-.414a.25.25 0 01-.147-.381l.803-1.205-1-.5s-1 3-1 6-2 4-2 6a1 1 0 001 1h3.505a.998.998 0 00.841-.457c.543-.835 1.541-2.903 1.644-6.873l-.661.22z"/><path fill="#FDEBBB" d="M16.058 14h-6l.5 1.5-1.188.792a.25.25 0 000 .416l1.188.792-1.142.761a.25.25 0 00.027.432l1.615.807-.803 1.205a.25.25 0 00.147.381l1.656.414-.741 1.111a.25.25 0 00.208.389h1.533v1.653a.25.25 0 00.329.237l1.171-.39 1.146 1.146a.498.498 0 00.354.146V14z"/><path fill="#FAE09F" d="M16.411 25.646l1.146-1.146 1.171.39a.25.25 0 00.329-.237V23h1.533a.25.25 0 00.208-.389l-.74-1.111 1.656-.414a.25.25 0 00.147-.381l-.803-1.205 1.615-.807a.25.25 0 00.027-.432l-1.142-.761 1.188-.792a.25.25 0 000-.416l-1.188-.792.5-1.5h-6v11.793a.495.495 0 00.353-.147z"/><path fill="#2B3332" d="M22.058 19l-1 .5.803 1.205a.25.25 0 01-.147.381l-.062.015 1.093.698A22.568 22.568 0 0022.058 19z"/><path fill="#FFF3D9" d="M16.058.167a.248.248 0 00-.2.1L14.558 2l-1.638-.819a.25.25 0 00-.362.224V3l-1.111-.741a.25.25 0 00-.389.208V4l-1.432-.358a.25.25 0 00-.278.367l.959 1.679-1 2-1.788.347a.25.25 0 00-.129.422l.668.668-.785.784a.25.25 0 00.038.385l1.246.831-.757 1.514a.25.25 0 00.284.354l1.473-.368v2.033c0 .2.223.319.389.208l1.111-.741.393 1.572a.25.25 0 00.419.116l.688-.688.845 1.69a.25.25 0 00.4.065l.755-.755 1.3 1.733c.05.067.125.1.2.1V.167z"/><path fill="#FDEBBB" d="M16.258 17.858l1.3-1.733.755.755a.25.25 0 00.4-.065l.845-1.69.688.688a.25.25 0 00.419-.116l.393-1.572 1.111.741a.25.25 0 00.389-.208v-2.033l1.473.368a.25.25 0 00.284-.354l-.757-1.514 1.246-.831a.25.25 0 00.038-.385l-.784-.784.668-.668a.25.25 0 00-.129-.422l-1.788-.348-1-2 .959-1.679a.25.25 0 00-.278-.367L21.058 4V2.467a.25.25 0 00-.389-.208L19.558 3V1.405a.25.25 0 00-.362-.224L17.558 2l-1.3-1.733a.248.248 0 00-.2-.1v17.792a.251.251 0 00.2-.101z"/><path fill="#2B3332" d="M23.058 25c0-.197-.005-.394-.013-.59L21.058 26l-2.002-1.334a.25.25 0 01-.328.225l-.661-.22c.025.926.101 1.744.206 2.474L21.058 29l2.384-1.907A5.727 5.727 0 0123.058 25z"/><path fill="#EF8C48" d="M18.068 24.67l.661.22-1.171-.39-.477.477c.051 2.496.205 3.91.631 4.566a1 1 0 00.841.457h.411c-.428-1.158-.833-2.881-.896-5.33z"/><path fill="#F79654" d="M14.558 24.5l-.51.17c-.063 2.449-.467 4.173-.895 5.33h.41a.998.998 0 00.841-.457c.426-.656.58-2.07.631-4.566l-.477-.477z"/><path fill="#373F3F" d="M13.387 24.89a.25.25 0 01-.328-.225L11.058 26 9.07 24.41c-.008.196-.012.393-.012.59 0 .834-.161 1.504-.384 2.093L11.058 29l2.784-1.856c.105-.729.18-1.547.206-2.474l-.661.22zm-2.985-3.804a.25.25 0 01-.147-.381l.803-1.205-1-.5s-.393 1.18-.686 2.8l1.093-.698-.063-.016z"/><path fill="#FCA15E" d="M13.058 7c-.552 0-1.053.224-1.415.586-.047-.598-.216-1.338-.723-1.845-.675-.675-1.77-.755-2.381-.739a.49.49 0 00-.48.48c-.015.61.064 1.705.74 2.381.65.65 1.678.746 2.299.739A2 2 0 0013.058 11c1.105 0 3-2 3-2s-1.896-2-3-2z"/><path fill="#F79654" d="M23.576 5.002c-.61-.015-1.705.064-2.381.739-.507.507-.676 1.248-.723 1.845A1.994 1.994 0 0019.058 7c-1.105 0-3 2-3 2s1.895 2 3 2a2 2 0 001.96-2.399c.621.007 1.649-.089 2.299-.739.676-.676.755-1.771.74-2.381a.491.491 0 00-.481-.479z"/><path fill="#FDEBBB" d="M16.058 9c-.729 0-1.412.646-2 .901-1.195.519-2 .488-2 1.599 0 1.657 1.791 2.5 4 2.5V9z"/><path fill="#FAE09F" d="M20.058 11.5c0-1.11-.804-1.079-1.999-1.598C17.47 9.646 16.787 9 16.058 9v5c2.209 0 4-.843 4-2.5z"/><path fill="#FFF" d="M15.058 8.498v-.426c-.627-.523-1.421-1.072-2-1.072l-.003.003c-.33.33-.463.784-.396 1.213.072.464.515.781.985.782l.914.001c.275 0 .5-.224.5-.501z"/><path fill="#373F3F" d="M14.558 7.68c-.331-.241-.679-.451-1-.572v1.391a.5.5 0 101 0V7.68z"/><path fill="#F7F7F7" d="M17.058 8.498v-.426c.626-.523 1.421-1.072 2-1.072l.003.003c.33.33.463.784.396 1.213-.072.464-.515.781-.985.782l-.914.001a.5.5 0 01-.5-.501z"/><path fill="#2B3332" d="M17.558 7.68c.331-.241.679-.451 1-.572v1.391a.5.5 0 11-1 0V7.68z"/><path fill="#FAE09F" d="M16.058 14v-2c-1.194 0-2.669.324-3.809.322.499 1.107 2.006 1.678 3.809 1.678z"/><path fill="#F7D684" d="M19.867 12.322c-1.141.002-2.615-.322-3.809-.322v2c1.803 0 3.309-.571 3.809-1.678z"/><path fill="#FAE09F" d="M23.323 5.495c-2.241 0-2.4 1.728-2.381 2.371a.25.25 0 00.258.24c2.258-.024 2.403-1.739 2.379-2.373a.252.252 0 00-.256-.238z"/><path fill="#FDEBBB" d="M8.792 5.495a.252.252 0 00-.256.238c-.024.634.121 2.348 2.379 2.373a.25.25 0 00.258-.24c.019-.643-.14-2.371-2.381-2.371z"/><path fill="#373F3F" d="M16.058 10c-.552 0-1-.052-1 .5 0 .341.382.738.674.991.094.081.21.122.326.122V10z"/><path fill="#2B3332" d="M16.384 11.491c.292-.253.674-.65.674-.991 0-.552-.448-.5-1-.5v1.613c.116 0 .232-.04.326-.122z"/></svg>