<svg xmlns="http://www.w3.org/2000/svg" width="100%" height="100%" viewBox="-2.72 -2.72 37.44 37.44"><path fill="#5A5353" d="M24 27c0-4.418-3.582-11-8-11s-8 6.582-8 11 3.582 5 8 5 8-.582 8-5z"/><path fill="#635C5C" d="M16 16c-4.418 0-8 6.582-8 11s3.582 5 8 5V16z"/><path fill="#F5DEB9" d="M24 27c0-4.418-3.582-11-8-11s-8 6.582-8 11 16 4.418 16 0z"/><path fill="#FCE8CC" d="M8 27c0 2.209 4 3.314 8 3.314V16c-4.418 0-8 6.582-8 11z"/><path fill="#F5DEB9" d="M8 27c0-9 5-10 5-19h6c0 9 5 10 5 19H8z"/><path fill="#FCE8CC" d="M16 27H8c0-9 5-10 5-19h3v19z"/><path fill="#EFD4A7" d="M16 10.131c-1.107 0-2.163.088-3.142.245-.329 2.872-1.223 4.841-2.164 6.734 1.493.47 3.313.759 5.307.759s3.814-.289 5.307-.759c-.942-1.892-1.835-3.861-2.164-6.734A19.948 19.948 0 0016 10.131z"/><path fill="#F5DEB9" d="M16 10.131c-1.107 0-2.163.088-3.142.245-.329 2.872-1.223 4.841-2.164 6.734 1.493.47 3.313.759 5.307.759v-7.738z"/><ellipse cx="16" cy="22.5" fill="#FF7898" rx="3" ry="2.5"/><circle cx="16" cy="22" r="1" fill="#5A5353"/><path fill="#635C5C" d="M16 21a1 1 0 000 2v-2z"/><path fill="#D84459" d="M27.996 13c.564 0 1.03-.469 1.003-1.032C28.638 4.572 23.65 0 16 0S3.362 4.572 3.001 11.968C2.974 12.531 3.44 13 4.004 13h23.992z"/><path fill="#FCE8CC" d="M16 0C8.211 0 3.327 4.534 3.001 11.968A1 1 0 004.004 13H16V0z"/><path fill="#5A5353" d="M16 4c3.341 0 6.414-.581 8.291-1.562-.313-.229-.64-.442-.98-.641C21.547 2.557 18.892 3 16 3c-2.893 0-5.548-.444-7.308-1.204-.34.198-.667.412-.98.64C9.585 3.418 12.657 4 16 4z"/><path fill="#635C5C" d="M16 3c-2.893 0-5.602-.466-7.362-1.226-.34.198-.674.41-.987.639C9.523 3.395 12.657 4 16 4V3z"/><path fill="#5A5353" d="M28.999 12H3.001c-.027.563.439 1 1.003 1h23.992c.564 0 1.03-.437 1.003-1z"/><path fill="#635C5C" d="M16 12H3.001c-.027.563.439 1 1.003 1H16v-1z"/><path fill="#EDEEEE" d="M20 17.616c0 1.105-.672 2-1.5 2s-1.5-.895-1.5-2c0-.356 0-.617.008-.805.004-.092.102-.144.184-.102.857.436 1.787.42 2.615 0 .082-.042.18.01.184.102.009.189.009.45.009.805z"/><path fill="#2B3332" d="M18.083 16.98a1.722 1.722 0 00-.083.52c0 .552.224 1 .5 1s.5-.448.5-1c0-.195-.035-.367-.084-.521a2.77 2.77 0 01-.833.001z"/><path fill="#FFF" d="M15 17.616c0 1.105-.672 2-1.5 2s-1.5-.895-1.5-2c0-.356 0-.617.008-.805.004-.092.102-.144.184-.102.857.436 1.787.42 2.615 0 .082-.042.18.01.184.102.009.189.009.45.009.805z"/><path fill="#373F3F" d="M13.083 16.98a1.722 1.722 0 00-.083.52c0 .552.224 1 .5 1s.5-.448.5-1c0-.195-.035-.367-.084-.521a2.77 2.77 0 01-.833.001z"/><ellipse cx="26" cy="24" fill="#EFD4A7" rx="4.5" ry="5.5"/><path fill="#D84459" d="M21.5 24c0-3.038 2.015-5.5 4.5-5.5s4.5 2.462 4.5 5.5h-9z"/><path fill="#5A5353" d="M26 30c-2.757 0-5-2.691-5-6s2.243-6 5-6 5 2.691 5 6-2.243 6-5 6zm0-11c-2.206 0-4 2.243-4 5s1.794 5 4 5 4-2.243 4-5-1.794-5-4-5z"/><ellipse cx="26" cy="24" fill="#F5DEB9" rx="1.5" ry="2.5"/><path fill="#5A5353" d="M26 27c-1.122 0-2-1.317-2-3s.878-3 2-3 2 1.317 2 3-.878 3-2 3zm0-5c-.472 0-1 .855-1 2s.528 2 1 2 1-.855 1-2-.528-2-1-2z"/><path fill="#5A5353" d="M22 24h3v1h-3zm5.5-.5h3v1h-3z"/><ellipse cx="26" cy="24" fill="#EFD4A7" rx="4.5" ry="5.5"/><path fill="#D84459" d="M21.5 24c0-3.038 2.015-5.5 4.5-5.5s4.5 2.462 4.5 5.5h-9z"/><path fill="#5A5353" d="M26 30c-2.757 0-5-2.691-5-6s2.243-6 5-6 5 2.691 5 6-2.243 6-5 6zm0-11c-2.206 0-4 2.243-4 5s1.794 5 4 5 4-2.243 4-5-1.794-5-4-5z"/><ellipse cx="26" cy="24" fill="#F5DEB9" rx="1.5" ry="2.5"/><path fill="#5A5353" d="M26 27c-1.122 0-2-1.317-2-3s.878-3 2-3 2 1.317 2 3-.878 3-2 3zm0-5c-.472 0-1 .855-1 2s.528 2 1 2 1-.855 1-2-.528-2-1-2z"/><path fill="#5A5353" d="M27.5 24h3v1h-3zm-6 0h3v1h-3z"/><ellipse cx="6" cy="24" fill="#F5DEB9" rx="4.5" ry="5.5"/><path fill="#E85160" d="M1.5 24c0-3.038 2.015-5.5 4.5-5.5s4.5 2.462 4.5 5.5h-9z"/><path fill="#635C5C" d="M6 30c-2.757 0-5-2.691-5-6s2.243-6 5-6 5 2.691 5 6-2.243 6-5 6zm0-11c-2.206 0-4 2.243-4 5s1.794 5 4 5 4-2.243 4-5-1.794-5-4-5z"/><ellipse cx="6" cy="24" fill="#FCE8CC" rx="1.5" ry="2.5"/><path fill="#635C5C" d="M6 27c-1.122 0-2-1.317-2-3s.878-3 2-3 2 1.317 2 3-.878 3-2 3zm0-5c-.472 0-1 .855-1 2s.528 2 1 2 1-.855 1-2-.528-2-1-2z"/><path fill="#635C5C" d="M7.5 24h3v1h-3zm-6 0h3v1h-3z"/></svg>