<svg xmlns="http://www.w3.org/2000/svg" width="100%" height="100%" viewBox="-2.72 -2.72 37.44 37.44"><path fill="#fff" d="M8.305 13.075v3.884h5.457v-3.884zm2.753 1.338l.244-.106-.304.04.304-.04z"/><path fill="#f4edf9" d="M5.888 16.488l-.058-.001V16l.057-.002z"/><path fill="#e2959e" d="M15.368 2.665c-.33.147-.64.342-.958.515a36.885 36.885 0 00-2.39 3.612c-.683 1.145-1.347 2.3-1.943 3.494l.073.007a12.953 12.953 0 013.18-1.242 14.414 14.414 0 012.411-.376V2.526c-.124.046-.25.084-.373.14z"/><path fill="#c47bcc" d="M21.76 22.263l.001-.002h-.004l.003.002z"/><path fill="#de8490" d="M22.293 10.06c-.008-.066.032-.138.137-.238a14.212 14.212 0 003.039-4.096 2.703 2.703 0 00-.632-1.32 4.967 4.967 0 00-3.298-1.843 9.542 9.542 0 00-3.13-.01.348.348 0 01-.206-.034 3.085 3.085 0 00-2.462.007v6.15a16.193 16.193 0 012.13-.018 8.54 8.54 0 013.384.85 2.457 2.457 0 011.038.553z"/><path fill="#e2959e" d="M24.367 14.348a4.812 4.812 0 00-1.904-4.07c-.102-.085-.162-.148-.17-.217a2.457 2.457 0 00-1.038-.553.963.963 0 01.448.428 7.07 7.07 0 01.891 3.15 4.218 4.218 0 01-1.13 3.048.32.32 0 00-.035.48 6.256 6.256 0 011.046 3.154 4.012 4.012 0 01-.579 2.26c-.046.076-.09.155-.135.233l.063.01a3.927 3.927 0 001.91-2.37 5.526 5.526 0 00-.181-3.278.357.357 0 01.084-.424 2.809 2.809 0 00.73-1.851zM11.25 22.24c-.15-.057-.342-.187-.319.146a17.81 17.81 0 00.796 3.291 7.796 7.796 0 00.857 1.868 4.87 4.87 0 002.377.498 2.178 2.178 0 00.597-.087.79.79 0 01.183-.041v-4.65a15.962 15.962 0 01-4.49-1.024z"/><path fill="#c47bcc" d="M21.757 22.261l.002.002h.001l-.003-.002z"/><path fill="#de8490" d="M16.363 28.099a6.701 6.701 0 004.105 1.149 4.858 4.858 0 002.85-1.213 9.318 9.318 0 001.538-1.822c-.039-.103-.072-.209-.117-.308a10.098 10.098 0 00-2.916-3.587l-.063-.055a5.592 5.592 0 01-2.116.781 13.25 13.25 0 01-3.771.235c-.044-.003-.088-.01-.132-.014v4.65a.927.927 0 01.622.184z"/><path fill="#fde2e6" d="M15.558 27.956a2.178 2.178 0 01-.597.087 4.87 4.87 0 01-2.377-.498 7.151 7.151 0 001.777 2.158 1.813 1.813 0 001.318.521c.027-.012.037-.037.062-.05v-2.26a.79.79 0 00-.183.042z"/><path fill="#fcd8de" d="M16.343 29.342c.018-.079.016-.19.088-.214.1-.035.147.084.206.144a10.933 10.933 0 002.366 1.87 5.281 5.281 0 003.648.783 3.144 3.144 0 002.099-1.254 3.96 3.96 0 00.575-2.813 4.694 4.694 0 00-.469-1.645 9.318 9.318 0 01-1.538 1.822 4.858 4.858 0 01-2.85 1.213 6.701 6.701 0 01-4.105-1.15.927.927 0 00-.622-.183v2.258a1.202 1.202 0 00.602-.83z"/><path fill="#fde2e6" d="M15.682 1.595c-.413.538-.899 1.017-1.272 1.585.318-.173.627-.368.958-.515.123-.055.249-.093.373-.139v-.985l-.06.054z"/><path fill="#fcd8de" d="M18.203 2.52a.348.348 0 00.206.033 9.539 9.539 0 013.13.01 4.966 4.966 0 013.298 1.843 2.702 2.702 0 01.632 1.32 6.203 6.203 0 00.661-3.36 2.572 2.572 0 00-.657-1.47 3.28 3.28 0 00-2.94-.858 7.274 7.274 0 00-3.603 1.618c-.06.045-.102.163-.185.114-.063-.038.014-.128.029-.194.215-.991-.516-1.32-1.147-1.256a1.77 1.77 0 00-.757.293 8.611 8.611 0 00-1.129.928v.985a3.086 3.086 0 012.462-.007z"/><path fill="#ddc4ed" d="M21.823 22.318v-.048l-.066-.01z"/><path fill="#fbcfd6" d="M14.499 11.639a2.277 2.277 0 011.18-.2c.022 0 .04.007.062.008V8.676a14.42 14.42 0 00-2.41.375 12.953 12.953 0 00-3.181 1.242l-.13.114a.299.299 0 00-.088.023 9.473 9.473 0 00-3.105 3.042 5.809 5.809 0 00-.94 2.527v.49a6.635 6.635 0 00.312 1.218c.051-.008.1-.009.126.049a1.266 1.266 0 001.659-.195.167.167 0 01.235-.027.889.889 0 00.87-.036c.054-.03.112-.131.176-.045.062.085-.027.149-.087.197a.801.801 0 01-.76.195.543.543 0 00-.52.094 1.697 1.697 0 01-1.516.115 4.697 4.697 0 001.062 1.71 8.552 8.552 0 002.992 2.129c.228.1.474.184.495.493-.023-.333.17-.203.32-.145a15.964 15.964 0 004.49 1.024v-5.44a2.96 2.96 0 01-1.899.963c-.153.027-.374.156-.456.036-.088-.13.098-.302.168-.452a11.636 11.636 0 001.132-3.592 5.706 5.706 0 00-.263-2.149 1.803 1.803 0 00-.137-.43c-.167-.29-.039-.44.213-.562zm-1.814 3.33c-.008.014-.07-.003-.108-.005.003.365-.28.539-.504.752l-.213.167a1.167 1.167 0 01-.92.375c-.21.277-1.035.195-1.367-.074-.1-.08-.287-.102-.224-.304-.215-.127-.152-.36-.157-.531a1.631 1.631 0 011.655-1.913 7.11 7.11 0 011.537.048 1.128 1.128 0 00.636-.155c.087-.043.178-.094.166.075a3.563 3.563 0 01-.501 1.565z"/><path fill="#fac4d1" d="M21.464 16.134a4.218 4.218 0 001.13-3.047 7.07 7.07 0 00-.891-3.15.963.963 0 00-.448-.43 8.54 8.54 0 00-3.385-.85 16.193 16.193 0 00-2.129.019v2.771a1.832 1.832 0 011.664 2.503 2.66 2.66 0 01-1.107 1.508.278.278 0 00-.143.34 2.23 2.23 0 01-.414 2.027v5.44c.044.003.088.011.132.014a13.25 13.25 0 003.77-.235 5.592 5.592 0 002.117-.781l.136-.236a4.012 4.012 0 00.579-2.259 6.256 6.256 0 00-1.046-3.155.32.32 0 01.035-.479z"/><path fill="#d4a5de" d="M10.15 10.293l-.13.114.057-.121z"/><path fill="#211915" d="M6.325 17.755a1.265 1.265 0 001.659-.194.167.167 0 01.235-.027.889.889 0 00.87-.036c.054-.03.112-.131.176-.045.062.085-.027.149-.087.197a.8.8 0 01-.76.195.543.543 0 00-.52.094 1.697 1.697 0 01-1.516.115.456.456 0 01-.138-.29z"/><path fill="#68616d" d="M6.325 17.755l-.081.01c-.038-.002-.046-.026-.045-.058.051-.008.1-.01.126.048z"/><path fill="#e8aab1" d="M15.679 11.44a2.28 2.28 0 00-1.18.199c-.252.123-.38.272-.213.561a1.805 1.805 0 01.137.431 5.705 5.705 0 01.263 2.15 11.638 11.638 0 01-1.132 3.591c-.07.15-.256.322-.168.452.082.12.303-.01.456-.036a2.96 2.96 0 001.9-.963v-6.378c-.022 0-.041-.007-.063-.007z"/><path fill="#e59fa8" d="M16.155 15.798a.277.277 0 01.143-.34 2.66 2.66 0 001.107-1.508 1.832 1.832 0 00-1.664-2.503v6.378a2.23 2.23 0 00.414-2.027z"/><path fill="#f0c13e" d="M12.577 14.964v.003l.001.001-.001-.004z"/><path fill="#2f2f2e" d="M11.86 15.883c-.563.132-.853-.081-.852-.626.35.04.424-.044.328-.38a.447.447 0 01.58.024.535.535 0 01.225.553 2.205 2.205 0 01-.068.262l-.213.167z"/><path fill="#263460" d="M13.02 13.33a1.13 1.13 0 01-.636.154 7.118 7.118 0 00-1.537-.048 1.631 1.631 0 00-1.655 1.913c.005.171-.058.404.157.531a2.006 2.006 0 011.649-1.532l.304-.04a1.134 1.134 0 011.219.585l.057.075v-.004c.037.002.099.02.107.005a3.564 3.564 0 00.5-1.565c.013-.17-.078-.118-.165-.075z"/><path fill="#fff" d="M10.998 14.348l.06.065.244-.106z"/><path fill="#f0c13e" d="M12.52 14.893a1.134 1.134 0 00-1.218-.586.418.418 0 01-.244.106 1.048 1.048 0 00-.117 1.845 1.167 1.167 0 00.92-.375c-.564.132-.854-.081-.853-.626-.056-.13-.133-.261-.002-.388.109-.104.221-.06.33.008a.447.447 0 01.58.024.535.535 0 01.225.553 2.204 2.204 0 01-.068.262c.224-.212.504-.386.504-.75z"/><path fill="#f0c13e" d="M11.058 14.413a.417.417 0 00.244-.106z"/><path fill="#c0c17e" d="M12.578 14.968l-.057-.075z"/><path fill="#edece4" d="M11.336 14.877c.096.336.023.42-.328.38-.056-.13-.133-.261-.002-.388.109-.104.221-.06.33.008z"/></svg>