<svg xmlns="http://www.w3.org/2000/svg" width="100%" height="100%" viewBox="-2.72 -2.72 37.44 37.44"><path fill="#6CD275" d="M23.859 30.394C24.471 29.483 26 28.097 26 26c0-5-4-5-4-5h-4s-.365 11 1 11h5.392a.5.5 0 00.454-.713c-.2-.42-.575-.702-.987-.893z"/><path fill="#78DF7C" d="M8.097 30.394c-.613-.911-2.141-2.297-2.141-4.394 0-5 4-5 4-5h4s.365 11-1 11H7.563a.5.5 0 01-.454-.713c.201-.42.575-.702.988-.893zM24 21c0-4.971-3.029-9-8-9v18c4.971 0 8-4.029 8-9z"/><path fill="#84ED82" d="M16 22.75V12c-4.971 0-8 4.029-8 9 0 2.266.636 4.331 1.792 5.913C13.794 25.385 16 22.75 16 22.75z"/><path fill="#FFE28A" d="M15.171 22.177c-.98 1.494-2.809 3.756-5.379 4.737C11.172 28.801 13.296 30 16 30v-8.27a.983.983 0 00-.829.447z"/><path fill="#FFD96C" d="M22.208 26.913c-2.57-.981-4.399-3.243-5.379-4.737A.984.984 0 0016 21.73V30c2.704 0 4.828-1.199 6.208-3.087z"/><path fill="#84ED82" d="M9 9.167a7 7 0 007 7v-14a7 7 0 00-7 7z"/><path fill="#78DF7C" d="M23 9.167a7 7 0 00-7-7v14a7 7 0 007-7z"/><path fill="#84ED82" d="M21.635 14.377s.655.274 1.379.655c1.25.656 3.406 2.969 2.844 6l-.875 3.031c-.244 1.098-1.471 1.773-2.562 1.5l-.242-.06c-1.001-.25-2.048-1.251-1.893-2.271l1.349-8.855z"/><path fill="#8FF888" d="M10.365 14.345s-.655.274-1.379.655c-1.25.656-3.406 2.969-2.844 6l.875 3.031c.244 1.098 1.471 1.773 2.562 1.5l.242-.06c1.001-.25 2.048-1.251 1.893-2.271l-1.349-8.855z"/><path fill="#FFE28A" d="M22.118 14c0-2.094-2.739-3.792-6.118-3.792v7.583c3.379.001 6.118-1.697 6.118-3.791z"/><path fill="#84ED82" d="M23 13.167c0-2.094-3.134-3.792-7-3.792V14c3.309 0 5.346 1.17 5.68 1.377.827-.623 1.32-1.385 1.32-2.21z"/><path fill="#8FF888" d="M9 13.167c0-2.094 3.134-3.792 7-3.792V14c-3.309 0-5.346 1.17-5.68 1.377-.827-.623-1.32-1.385-1.32-2.21z"/><path fill="#F7F7F7" d="M21.025 13.808a3.926 3.926 0 01-.5 1.011c.626.248 1.038.49 1.169.571a.254.254 0 00.034-.053l-.422-1.522c-.039-.14-.238-.146-.281-.007zm-.085-6.817s.949 1.127.815 2.98c-.016.216-.138.41-.344.476-.399.129-1.48.352-2.474.053l2.003-3.509z"/><ellipse cx="23" cy="10.5" fill="#FFE28A" rx="1" ry="1.5"/><path fill="#2B3332" d="M20.635 7.912l-.887 1.834c.049.379.169.699.331.9.317-.004.607-.04.848-.084.179-.274.296-.701.296-1.187.001-.717-.251-1.315-.588-1.463z"/><path fill="#F7F7F7" d="M20.474 8.376c-.027 0-.05.016-.075.025l-.298.617c.006.337.169.608.373.608.207 0 .375-.28.375-.625s-.168-.625-.375-.625z"/><path fill="#E3DBF4" d="M18.214 10.399l1.245-8.524C18.542 0 16 0 16 0v9.814a4.42 4.42 0 012.214.585z"/><path fill="#D4C9EF" d="M19.383 10.502l2.891-5.98c0-2.647-2.816-2.647-2.816-2.647l-1.245 8.524c.143.083.278.174.405.273.256.198.625.12.765-.17z"/><path fill="#FFEAA7" d="M9.882 14c0-2.094 2.739-3.792 6.118-3.792v7.583c-3.379.001-6.118-1.697-6.118-3.791z"/><path fill="#8FF888" d="M9 13.167c0-2.094 3.134-3.792 7-3.792V14c-3.309 0-5.346 1.17-5.68 1.377-.827-.623-1.32-1.385-1.32-2.21z"/><path fill="#FFF" d="M10.975 13.808c.114.372.303.716.5 1.011a7.816 7.816 0 00-1.171.567c-.017-.013-.025-.033-.037-.047l.427-1.524c.039-.14.238-.146.281-.007z"/><ellipse cx="9" cy="10.5" fill="#FFEAA7" rx="1" ry="1.5"/><path fill="#FFF" d="M11.043 6.991s-.949 1.127-.815 2.98c.016.216.138.41.344.476.399.129 1.48.352 2.474.053l-2.003-3.509z"/><path fill="#373F3F" d="M11.348 7.912l.887 1.834c-.049.379-.169.699-.331.9a5.106 5.106 0 01-.848-.084c-.179-.274-.296-.701-.296-1.187-.001-.717.251-1.315.588-1.463z"/><path fill="#FFF" d="M11.509 8.376c.027 0 .05.016.075.025l.298.617c-.006.337-.169.608-.373.608-.207 0-.375-.28-.375-.625s.168-.625.375-.625z"/><path fill="#F1EDFA" d="M16 9.814V0s-2.542 0-3.458 1.875l1.245 8.524A4.414 4.414 0 0116 9.814z"/><path fill="#E3DBF4" d="M13.786 10.399l-1.245-8.524s-2.816 0-2.816 2.647l2.891 5.98c.14.29.51.368.765.17.127-.099.262-.19.405-.273z"/></svg>