<svg xmlns="http://www.w3.org/2000/svg" width="100%" height="100%" viewBox="-2.72 -2.72 37.44 37.44"><path fill="#C8CCCB" d="M16 9.002L8.45 1.45a4.95 4.95 0 10-7 7l2.5 2.5v2.515a6 6 0 0010.242 4.243L16 15.899V9.002z"/><path fill="#B9BFBE" d="M16 9.002l7.55-7.553a4.95 4.95 0 117 7l-2.5 2.5v2.515a6 6 0 01-10.242 4.243L16 15.899V9.002z"/><path fill="#F7F7F7" d="M8.253 28.52L6.097 15.582A.5.5 0 016.59 15h3.82a.5.5 0 01.493.582L8.747 28.52c-.047.279-.447.279-.494 0z"/><path fill="#EDEEEE" d="M23.253 28.52l-2.156-12.938A.5.5 0 0121.59 15h3.82a.5.5 0 01.493.582L23.747 28.52c-.047.279-.447.279-.494 0z"/><path fill="#373F3F" d="M13 13c0-.057.014-.111.017-.167l-4.373-1.312A.5.5 0 008 12v3h1v-2.328l4.159 1.248A2.918 2.918 0 0113 13z"/><path fill="#2B3332" d="M23.798 11.599a.5.5 0 00-.442-.078l-4.373 1.312c.003.056.017.11.017.167 0 .324-.063.629-.159.92L23 12.672V15h1v-3a.5.5 0 00-.202-.401z"/><path fill="#B1E346" d="M18.221 15H16v10.822h.631c.579 0 1.166-.097 1.678-.368C20.093 24.509 21 22.425 21 20c0-2.343-1.113-4.012-2.779-5z"/><path fill="#BEE758" d="M16 15h-2.221C12.113 15.988 11 17.657 11 20c0 2.425.907 4.509 2.691 5.454.512.271 1.099.368 1.678.368H16V15z"/><path fill="#B1E346" d="M16 10a3 3 0 00-3 3c0 .772.3 1.468.779 2H16v-5z"/><path fill="#AADB3D" d="M16 10v5h2.221A2.978 2.978 0 0019 13a3 3 0 00-3-3z"/><path fill="#373F3F" d="M16 17h-4.24c-.348.575-.576 1.253-.688 2H16v-2z"/><path fill="#2B3332" d="M16 17h4.24c.348.575.576 1.253.688 2H16v-2z"/><path fill="#373F3F" d="M16 21h-4.946a7.26 7.26 0 00.497 2H16v-2z"/><path fill="#2B3332" d="M15.999 21h4.946a7.26 7.26 0 01-.497 2h-4.449v-2z"/><path fill="#BEE758" d="M16 5.66a4 4 0 00-4 4c0 1.74 2.482 3.221 3.536 3.771.147.076.305.115.464.115V5.66z"/><path fill="#B1E346" d="M16.464 13.431C17.518 12.881 20 11.4 20 9.66a4 4 0 00-4-4v7.886c.159-.001.318-.039.464-.115z"/><ellipse cx="13" cy="10" fill="#4CAEBC" rx="1.5" ry="2" transform="rotate(-10.003 13.003 10.004)"/><ellipse cx="19" cy="10" fill="#47A1B4" rx="2" ry="1.5" transform="rotate(-80.003 19 10)"/><circle cx="12.5" cy="9.5" r=".5" fill="#FFF"/><circle cx="19.5" cy="9.5" r=".5" fill="#F7F7F7"/><path fill="#AADB3D" d="M16.631 25.822H16v5.397a.246.246 0 00.243-.189l1.328-5.311c-.308.07-.624.103-.94.103z"/><path fill="#B1E346" d="M14.43 25.719l1.328 5.311a.245.245 0 00.243.189v-5.397h-.631a4.23 4.23 0 01-.94-.103z"/><path fill="#373F3F" d="M13.777 6.335c.279-.187.588-.325.91-.437l-.711-2.217a.499.499 0 00-.753-.263L10.639 5.14a.5.5 0 10.554.832l2.033-1.355.551 1.718z"/><path fill="#2B3332" d="M21.361 5.14l-2.584-1.723a.499.499 0 00-.753.263l-.711 2.217c.322.112.632.251.91.437l.551-1.719 2.033 1.355a.5.5 0 00.554-.83z"/></svg>