<svg xmlns="http://www.w3.org/2000/svg" width="100%" height="100%" viewBox="-2.72 -2.72 37.44 37.44"><path fill="#FFE28A" d="M18 23.115s6 3.584 8.583-5.291l1.417.352s-1.057 12.746-13.583 9.538L18 23.115z"/><path fill="#EB6B48" d="M16 25.738V29c.271 0 .542-.031.81-.093a5.776 5.776 0 001.446-.548c-.014.174.008.354.085.518l.886 1.904 1.562-.75-.469-1.188s1.406.156 2.438-2.219c.418-.962.049-2.147-.529-3.219-1.572 1.435-3.779 2.333-6.229 2.333z"/><path fill="#F57552" d="M9.219 26.625c1.031 2.375 2.438 2.219 2.438 2.219l-.469 1.188 1.563.75.886-1.904a1.04 1.04 0 00.085-.532 5.772 5.772 0 001.47.561c.266.062.537.093.808.093v-3.262c-2.458 0-4.671-.904-6.244-2.347-.583 1.076-.957 2.267-.537 3.234z"/><path fill="#FF805D" d="M11.128 21.379c-.43.524-.953 1.239-1.372 2.012 1.573 1.443 3.786 2.347 6.244 2.347V16h-1.113s-3.103 1.187-3.759 5.379z"/><path fill="#F57552" d="M20.877 21.413C20.233 17.194 17.113 16 17.113 16H16v9.738c2.45 0 4.657-.897 6.228-2.332a13.074 13.074 0 00-1.351-1.993z"/><path fill="#EB6B48" d="M18.109 17.402l3.182 2.226-1.277 1.034z"/><path fill="#F57552" d="M13.891 17.402l-3.182 2.226 1.277 1.034z"/><path fill="#FF805D" d="M16.015-.031c-4.304 0-7.963 1.556-9.787 4.163-1.476 2.109-1.839 5.427.259 7.286.646.572 1.417 1.009 2.226 1.342 2.277.937 4.831 1.322 7.302 1.24l.002-.001V-.031h-.002z"/><path fill="#F57552" d="M25.547 11.418c2.098-1.858 1.735-5.176.259-7.286-1.823-2.604-5.477-4.159-9.775-4.163h-.013v14.03c2.472.082 5.027-.302 7.304-1.24.808-.332 1.579-.769 2.225-1.341z"/><path fill="#FFE28A" d="M16 2.792c2.792 0 5.094.611 6.718 1.572-2.225.795-4.877 2.045-6.718 3.886V2.792z"/><path fill="#FFD04D" d="M16 8.25c.001 0 3.034 1.135 6.028 3.705C19.375 12.917 16 13 16 13V8.25z"/><path fill="#FFEAA7" d="M16 2.792c-2.792 0-5.094.611-6.718 1.572 2.225.795 4.877 2.045 6.718 3.886V2.792z"/><path fill="#FFD04D" d="M16 8.25c-.001 0-3.034 1.135-6.028 3.705C12.625 12.917 16 13 16 13V8.25z"/><path fill="#FFE28A" d="M7.105 9.877c.487.956 1.595 1.617 2.867 2.078C12.965 9.385 15.999 8.25 16 8.25H6.68c.014.534.146 1.08.425 1.627zM6.68 8.25H16c-1.841-1.841-4.493-3.091-6.718-3.885C7.585 5.368 6.64 6.757 6.68 8.25z"/><path fill="#FFD04D" d="M24.899 9.877c-.487.956-1.595 1.617-2.867 2.078-2.993-2.57-6.026-3.705-6.028-3.705h9.32a3.767 3.767 0 01-.425 1.627z"/><path fill="#FFE28A" d="M25.324 8.25h-9.32c1.841-1.841 4.493-3.091 6.718-3.885 1.697 1.003 2.642 2.392 2.602 3.885z"/><path fill="#FFD04D" d="M10.709 19.628s-1.881.267-2.464 1.803c-.498 1.311-.138 2.234.464 3.091l2-4.894z"/><path fill="#FFE28A" d="M18 17.55h-2v-3.9h2zm-4-3.9h2v3.901h-2z"/><path fill="#FFE28A" d="M12.672 16.969c-.866.618-1.397 1.459-1.635 1.898-.08.148.015.281.181.253.493-.082 1.46-.312 2.326-.93 1.224-.874 1.892-1.727 1.651-2.064s-1.299-.031-2.523.843z"/><path fill="#FFE28A" d="M13.527 18.019c-.503.937-.543 1.961-.523 2.481.007.175.179.268.329.176.444-.27 1.277-.869 1.78-1.806.712-1.325.934-2.59.496-2.825-.438-.235-1.37.649-2.082 1.974z"/><path fill="#FFF5D8" d="M11.237 7.759A7.9 7.9 0 0011 9.752c0 .757.214 1.428.548 2.02 1.176.616 4.06 2.717 4.452 2.717V5h-1.141c-1.692 0-3.195 1.122-3.622 2.759z"/><path fill="#FFEAA7" d="M11.548 11.772c.898 1.593 2.688 2.601 3.705 3.067.234.107.491.161.747.161v-.75c-1 0-1.784-2.054-2.142-2.161-.878-.264-2.31-.317-2.31-.317zm9.215-4.013C20.336 6.122 18.833 5 17.141 5H16v9.488c.392 0 3.276-2.101 4.452-2.717A4.057 4.057 0 0021 9.752a7.9 7.9 0 00-.237-1.993z"/><path fill="#FFE28A" d="M16 14.25V15c.256 0 .513-.054.747-.161 1.017-.466 2.807-1.474 3.705-3.067 0 0-1.432.054-2.31.317C17.784 12.196 17 14.25 16 14.25z"/><path fill="#FFD04D" d="M19.332 16.969c.866.618 1.397 1.459 1.635 1.898.08.148-.015.281-.181.253-.493-.082-1.46-.312-2.326-.93-1.224-.874-1.892-1.727-1.651-2.064.241-.337 1.299-.031 2.523.843z"/><path fill="#FFE28A" d="M18.478 18.019c.503.937.543 1.961.523 2.481-.007.175-.179.268-.329.176-.444-.27-1.277-.869-1.78-1.806-.712-1.325-.934-2.59-.496-2.825.438-.235 1.37.649 2.082 1.974z"/><path fill="#FFD04D" d="M10.709 19.628s-2.929 1.565-2 4.894c0 0 2.421-.763 3.275-3.529a.643.643 0 00-.273-.717l-1.002-.648z"/><circle cx="26.25" cy="17.75" r="1.25" fill="#F57552"/><circle cx="28.75" cy="18.628" r="1.25" fill="#F57552"/><circle cx="27.75" cy="17.5" r="1.5" fill="#FF805D"/><path fill="#FFEAA7" d="M16 15.943c-.552 0-1 1.014-1 2.518 0 1.064.5 1.985.793 2.433a.235.235 0 00.222.105v-5.054c-.006.001-.01-.002-.015-.002z"/><path fill="#FFE28A" d="M17 18.461c0-1.491-.44-2.497-.986-2.515V21a.243.243 0 00.193-.105c.293-.45.793-1.371.793-2.434z"/><path fill="#F7C845" d="M21.291 19.628s1.881.267 2.464 1.803c.498 1.311.138 2.234-.464 3.091l-2-4.894z"/><path fill="#FFD04D" d="M21.291 19.628s2.929 1.565 2 4.894c0 0-2.421-.763-3.275-3.529a.643.643 0 01.273-.717l1.002-.648z"/><path fill="#2B3332" d="M18.426 8.749c-.122-.145-.264-.249-.426-.249-.162 0-.304.104-.426.249-.191.227-.324.58-.324 1.001 0 .69.336 1.25.75 1.25s.75-.56.75-1.25c0-.42-.133-.774-.324-1.001z"/><circle cx="18" cy="9" r=".25" fill="#F7F7F7"/><path fill="#373F3F" d="M14.426 8.749c-.122-.145-.264-.249-.426-.249-.162 0-.304.104-.426.249-.191.227-.324.58-.324 1.001 0 .69.336 1.25.75 1.25s.75-.56.75-1.25c0-.42-.133-.774-.324-1.001z"/><circle cx="14" cy="9" r=".25" fill="#FFF"/><path fill="#F7C845" d="M13.419 29.768s-2.874-1.627-5.081-.143C6.383 30.939 6 32 6 32h1.089l6.33-2.232z"/><path fill="#FFD04D" d="M13.939 32s.617-2.746-2.078-2.746S7.089 32 7.089 32h6.85z"/><path fill="#F0C13E" d="M18.581 29.768s2.874-1.627 5.081-.143C25.617 30.939 26 32 26 32h-1.089l-6.33-2.232z"/><path fill="#F7C845" d="M18.061 32s-.617-2.746 2.078-2.746S24.911 32 24.911 32h-6.85zm7.23-28.832c-.39.517-.991.199-1.652-.3-.662-.499-1.133-.989-.743-1.506s1.242-.531 1.903-.033c.661.499.882 1.322.492 1.839z"/><path fill="#FFD04D" d="M6.712 3.168c.39.517.991.199 1.652-.3.662-.499 1.133-.989.743-1.506C8.718.845 7.866.83 7.205 1.329s-.882 1.322-.493 1.839z"/></svg>