<svg xmlns="http://www.w3.org/2000/svg" width="100%" height="100%" viewBox="-2.72 -2.72 37.44 37.44"><path fill="#FFD96C" d="M6.879 22.524a3.75 3.75 0 11-4.257-6.175c1.705-1.176 5.275-1.598 6.451.107s-.489 4.893-2.194 6.068z"/><path fill="#FFD04D" d="M24.972 22.446a3.75 3.75 0 004.556-5.958c-1.645-1.258-5.19-1.855-6.448-.21-1.259 1.645.247 4.91 1.892 6.168zM15.958 2.002a6.134 6.134 0 00-4.09 1.574l4.09 4.09V2.002z"/><path fill="#F7C845" d="M15.958 7.667l4.129-4.129A6.134 6.134 0 0016 2l-.042.002v5.665z"/><path fill="#67B4DF" d="M15.958 7.063v-.001z"/><path fill="#F7C845" d="M15.958 7.667l-4.09-4.09C10.719 4.616 10 6.081 10 7.708c0 1.607.7 3.056 1.823 4.093l4.135-4.134z"/><path fill="#F0C13E" d="M22 7.708c0-1.648-.739-3.129-1.913-4.171l-4.129 4.129 4.174 4.174C21.281 10.8 22 9.336 22 7.708z"/><path fill="#BCC7C6" d="M16 24.891c-4.971 0-9.75-2.958-8.167-9.25.628-2.495 2.208-3.458 2.627-6.678.29-2.232 3.006-3.988 5.539-3.988v19.916zm0 0c4.971 0 9.75-2.958 8.167-9.25-.628-2.495-2.208-3.458-2.627-6.678-.291-2.232-3.007-3.988-5.54-3.988v19.916z"/><path fill="#E3E5E5" d="M16 24.792c-4.971 0-9.75-2.958-8.167-9.25.628-2.495 2.208-3.458 2.627-6.678.29-2.232 3.006-3.988 5.539-3.988v19.916z"/><path fill="#DADDDC" d="M16 24.792c4.971 0 9.75-2.958 8.167-9.25-.628-2.495-2.208-3.458-2.627-6.678-.291-2.233-3.007-3.989-5.54-3.989v19.917z"/><path fill="#FFD96C" d="M16 26.521c-4.971 0-9.75-2.958-8.167-9.25.628-2.495 3.206-3.488 3.625-6.708.291-2.233 2.009-3.959 4.542-3.959v19.917z"/><path fill="#FFD04D" d="M16 26.521c4.971 0 9.75-2.958 8.167-9.25-.628-2.495-3.206-3.488-3.625-6.708C20.251 8.33 18.533 6.604 16 6.604v19.917z"/><ellipse cx="16" cy="19.5" fill="#E3E5E5" rx="9" ry="9.5"/><path fill="#EDEEEE" d="M16 29c-4.971 0-9-4.253-9-9.5s4.029-9.5 9-9.5v19z"/><path fill="#E3E5E5" d="M16 29c-4.971 0-9-4.253-9-9.5 1.5 1 4.833 3.583 9 3.417V29z"/><path fill="#DADDDC" d="M16 29c4.971 0 9-4.253 9-9.5-1.5 1-4.833 3.583-9 3.417V29z"/><ellipse cx="16" cy="21.375" fill="#FFD96C" rx="5.5" ry="4.375"/><path fill="#FFE28A" d="M16 17c-3.038 0-5.5 1.959-5.5 4.375s2.462 4.375 5.5 4.375V17z"/><path fill="#FFD96C" d="M16 22.875c-3.029 0-4.232-.498-5.485-1.245 0 .336.054.662.146.976l-5.016 4.118a.205.205 0 00.133.364l2.847-.04.041 2.969a.205.205 0 00.364.127l4.01-5.077c.855.433 1.87.687 2.961.687v-2.879z"/><path fill="#FFD04D" d="M26.355 26.724l-5.016-4.118c.092-.314.146-.64.146-.976-1.253.747-2.456 1.245-5.485 1.245v2.882a6.558 6.558 0 002.961-.687l4.01 5.073a.205.205 0 00.364-.127l.041-2.969 2.847.04a.205.205 0 00.132-.363z"/><ellipse cx="21.5" cy="16.875" fill="#373F3F" rx=".5" ry=".875"/><ellipse cx="10.5" cy="16.875" fill="#373F3F" rx=".5" ry=".875"/><path fill="#FFE28A" d="M14.167 17.875a.247.247 0 01-.194-.093c-1.423-1.756-1.129-9.785-1.056-11.377.007-.138.133-.232.262-.238a.251.251 0 01.238.262c-.199 4.31-.071 9.786.944 11.039a.25.25 0 01-.194.407z"/><path fill="#FFD96C" d="M18.091 17.875a.25.25 0 01-.194-.408c1.016-1.253 1.144-6.729.944-11.039a.252.252 0 01.238-.262c.137.003.255.101.262.238.073 1.592.367 9.621-1.056 11.377a.246.246 0 01-.194.094z"/></svg>