<svg xmlns="http://www.w3.org/2000/svg" width="100%" height="100%" viewBox="-2.72 -2.72 37.44 37.44"><path fill="#B9FCB5" d="M10 8.984a6 6 0 006 6v-12a6 6 0 00-6 6z"/><path fill="#A3FA9E" d="M16 2.984v12a6 6 0 100-12z"/><path fill="#E55D53" d="M10.021 4.484c-.128-.358-.566-1.134-.832-1.594a.495.495 0 00-.618-.21c-.611.256-1.735.844-2.092 1.804-.352.949-.237 1.73-.114 2.16a.495.495 0 00.486.357l1.607-.017 1.563-2.5z"/><path fill="#E55D53" d="M7.826 12.267c.172.09.36-.067.346-.26-.103-1.423.557-3.024 1.765-4.043.766-.646.604-.542.667-1.479C8.938 6.484 6 6.797 5.979 8.983c-.009.918.454 2.552 1.847 3.284zm2.195-7.283C8.396 3.359 10.875 0 13.109 0c1.54 0 2.37 1.568 1.62 2.776-1.303 2.099-3.151 2.208-3.151 2.208h-1.557z"/><path fill="#4EAC5D" d="M16.063 17c2.375.875 3.091 1.938 4.903 4.125 1.926 2.325 1.201 7.035-1.287 9.814a.25.25 0 01-.355.022c-1.107-1-3.231-3.129-5.317-5.795-.749-.958 2.056-8.166 2.056-8.166z"/><path fill="#54B668" d="M15.945 17c-2.375.875-3.091 1.938-4.903 4.125-1.926 2.325-1.201 7.035 1.287 9.814a.25.25 0 00.355.022c1.107-1 3.231-3.129 5.317-5.795.749-.958-2.056-8.166-2.056-8.166z"/><path fill="#4EAC5D" d="M16.063 17c2.375.875 4.657 1.75 6.47 3.938 1.925 2.323 4.52 6.73 2.189 9.496a.25.25 0 01-.357.027 76.56 76.56 0 01-5.439-5.295C16.038 22.058 16.063 17 16.063 17z"/><path fill="#FFE28A" d="M16 17c5.788.312 7.883.812 9.758 3.188 1.703 2.157 2.206 7.195 5.105 8.947.224.135.123.475-.138.465-4.212-.175-6.652-1.246-9.38-3.974C18.345 22.625 16 17 16 17z"/><path fill="#60C46F" d="M16 17c2.597.667 4.649 1.75 6.462 3.938 1.897 2.29 1.972 8.401-1.096 10.468-.154.104-.359-.008-.379-.193-.116-1.082-.766-3.391-2.963-5.588C16.665 24.265 16 22.563 16 20.51V17z"/><path fill="#FFE28A" d="M20.5 24.331c0 3.164-1.857 4.413-4.3 7.573A.252.252 0 0116 32V17.164c2.375.875 4.5 4.042 4.5 7.167z"/><path fill="#54B668" d="M15.945 17c-2.375.875-4.657 1.75-6.47 3.938-1.925 2.323-4.52 6.73-2.189 9.496a.25.25 0 00.357.027 76.56 76.56 0 005.439-5.295C15.97 22.058 15.945 17 15.945 17z"/><path fill="#FFEAA7" d="M16 17c-5.788.312-7.875.813-9.75 3.188-1.703 2.157-2.206 7.195-5.105 8.947-.224.135-.123.475.138.465 4.212-.175 6.652-1.246 9.38-3.974C13.663 22.625 16 17 16 17z"/><path fill="#6CD275" d="M16 17c-2.597.667-4.649 1.75-6.462 3.938-1.897 2.29-1.972 8.401 1.096 10.468.154.104.359-.008.379-.193.116-1.082.766-3.391 2.963-5.588C15.335 24.265 16 22.563 16 20.51V17z"/><path fill="#FFEAA7" d="M11.5 24.331c0 3.164 1.857 4.413 4.3 7.573.05.064.125.096.2.096V17.164c-2.375.875-4.5 4.042-4.5 7.167z"/><path fill="#78DF7C" d="M16 14c.833 0 1.708 1 2.958 1s4.08-.796 5.51-.469c1.229.281.469 3.969-1.406 3.969-2.012 0-3.219-1.25-4.094-1.281C18.094 17.188 16 17 16 17v-3z"/><path fill="#84ED82" d="M16.005 14c-.833 0-1.708 1-2.958 1s-4.08-.796-5.51-.469c-1.23.281-.47 3.969 1.405 3.969 2.012 0 3.219-1.25 4.094-1.281S16.005 17 16.005 17v-3z"/><ellipse cx="10.307" cy="5.453" fill="#FFEAA7" rx="2.125" ry="1.75" transform="rotate(-45.001 10.307 5.453)"/><ellipse cx="9.844" cy="4.979" fill="#4F4032" rx="1.525" ry=".663" transform="rotate(-45.001 9.844 4.98)"/><path fill="#E55D53" d="M16.006 2.978c0 .798-.525 3.136-1.256 3.772-.844.734-3.018.924-3.25-.266-.04-.255-.176-1.306.422-1.906.795-.799 2.234-1.587 4.084-1.6z"/><path fill="#E55D53" d="M9.398 11.317a.152.152 0 00.225.034c.839-.717 3.04-1.765 2.862-3.367-.094-.843-.984-1.5-.984-1.5s-4.245 1.658-2.103 4.833z"/><path fill="#D64F45" d="M21.985 4.484c.128-.358.566-1.135.832-1.594a.495.495 0 01.618-.21c.611.257 1.735.844 2.092 1.805.352.949.237 1.73.114 2.16a.495.495 0 01-.486.357l-1.607-.017-1.563-2.501z"/><path fill="#D64F45" d="M24.18 12.267c-.172.09-.36-.067-.346-.26.103-1.423-.557-3.024-1.765-4.043-.766-.646-.604-.542-.667-1.479 1.667 0 4.604.312 4.625 2.498.009.918-.454 2.552-1.847 3.284zm-2.195-7.283C23.61 3.359 21.131 0 18.897 0c-1.54 0-2.37 1.568-1.62 2.776 1.303 2.099 3.151 2.208 3.151 2.208h1.557z"/><ellipse cx="21.699" cy="5.453" fill="#FFE28A" rx="1.75" ry="2.125" transform="rotate(-45.001 21.699 5.453)"/><ellipse cx="22.162" cy="4.979" fill="#4F4032" rx=".663" ry="1.525" transform="rotate(-45.001 22.162 4.98)"/><path fill="#D64F45" d="M16 2.978c0 .798.525 3.136 1.256 3.772.844.734 3.018.924 3.25-.266.04-.255.176-1.306-.422-1.906-.795-.799-2.234-1.587-4.084-1.6z"/><path fill="#D64F45" d="M22.608 11.317a.152.152 0 01-.225.034c-.839-.717-3.04-1.765-2.862-3.367.094-.843.984-1.5.984-1.5s4.245 1.658 2.103 4.833z"/><path fill="#CE8683" d="M16 11.766l-.003-1.687c-.322 0-.668-.031-.981-.126-.024-.007-.047.009-.047.034.006.415.103 1.779 1.031 1.779z"/><circle cx="13.75" cy="9" r="1" fill="#140E0F"/><circle cx="13.75" cy="8.65" r=".5" fill="#FFF"/><ellipse cx="13.831" cy="10.542" fill="#DF6144" rx=".76" ry=".254" transform="rotate(-11.378 13.827 10.54)"/><path fill="#E55D53" d="M14.969 9.986c0-.025.023-.041.047-.034.312.095.662.126.984.126v1.687c-.928.001-1.025-1.363-1.031-1.779z"/><circle cx="13.75" cy="9" r="1" fill="#373F3F"/><circle cx="13.75" cy="8.65" r=".5" fill="#FFF"/><ellipse cx="13.831" cy="10.542" fill="#E55D53" rx=".76" ry=".254" transform="rotate(-11.378 13.827 10.54)"/><path fill="#D64F45" d="M16 11.766v-1.687c.322 0 .672-.031.984-.126.024-.007.047.009.047.034-.006.415-.103 1.779-1.031 1.779z"/><circle cx="18.25" cy="9" r="1" fill="#2B3332"/><circle cx="18.25" cy="8.65" r=".5" fill="#F7F7F7"/><ellipse cx="18.169" cy="10.542" fill="#D64F45" rx=".254" ry=".76" transform="rotate(-78.622 18.169 10.541)"/><path fill="#A3FA9E" d="M10.962 12.245A5.994 5.994 0 0016 14.984V13.75c-1.792.042-3.917-.792-5.038-1.505z"/><path fill="#90FB89" d="M21.038 12.245A5.994 5.994 0 0116 14.984V13.75c1.792.042 3.917-.792 5.038-1.505z"/></svg>