<svg xmlns="http://www.w3.org/2000/svg" width="100%" height="100%" viewBox="-2.72 -2.72 37.44 37.44"><circle cx="11.5" cy="3.5" r="2.5" fill="#D39126"/><circle cx="20.5" cy="3.5" r="2.5" fill="#CE8924"/><path fill="#CE8924" d="M19 3a3 3 0 00-3-3v6c1.657 0 3 0 3-3z"/><path fill="#D39126" d="M16 5C7.716 5 1 7.716 1 16c0 8.284 6.716 12 15 12V5z"/><path fill="#CE8924" d="M16 5c8.284 0 15 2.716 15 11 0 8.284-6.716 12-15 12V5z"/><path fill="#472236" d="M25.084 27.277l-.553.369a1.652 1.652 0 00-.686.974l-.187.747a.51.51 0 00.495.633h.032a.51.51 0 00.456-.282L25 29l.452.752a.509.509 0 00.437.248h.396a.51.51 0 00.456-.282L27.1 29l.272.679a.51.51 0 00.473.321h.001a.51.51 0 00.495-.634l-.187-.747a1.652 1.652 0 00-.686-.974l-.553-.369a1.657 1.657 0 00-1.831.001z"/><ellipse cx="26" cy="24" fill="#CE8924" rx="3" ry="4"/><path fill="#532F42" d="M5.084 27.277l-.553.369a1.652 1.652 0 00-.686.974l-.187.747a.51.51 0 00.495.633h.032a.51.51 0 00.456-.282L5 29l.452.752a.509.509 0 00.437.248h.396a.51.51 0 00.456-.282L7.1 29l.272.679a.51.51 0 00.473.321h.001a.51.51 0 00.495-.634l-.187-.747a1.652 1.652 0 00-.686-.974l-.553-.369a1.657 1.657 0 00-1.831.001z"/><ellipse cx="6" cy="24" fill="#D39126" rx="3" ry="4"/><path fill="#532F42" d="M23.084 29.277l-.553.369a1.652 1.652 0 00-.686.974l-.187.747a.51.51 0 00.495.633h.032a.51.51 0 00.456-.282L23 31l.452.752a.509.509 0 00.437.248h.396a.51.51 0 00.456-.282L25.1 31l.272.679a.51.51 0 00.473.321h.001a.51.51 0 00.495-.634l-.187-.747a1.652 1.652 0 00-.686-.974l-.553-.369a1.657 1.657 0 00-1.831.001z"/><path fill="#5D374C" d="M7.084 29.277l-.553.369a1.652 1.652 0 00-.686.974l-.187.747a.51.51 0 00.495.633h.032a.51.51 0 00.456-.282L7 31l.452.752a.509.509 0 00.437.248h.396a.51.51 0 00.456-.282L9.1 31l.272.679a.51.51 0 00.473.321h.001a.51.51 0 00.495-.634l-.187-.747a1.652 1.652 0 00-.686-.974l-.553-.369a1.657 1.657 0 00-1.831.001z"/><ellipse cx="8" cy="26" fill="#D8992B" rx="3" ry="4"/><ellipse cx="24" cy="26" fill="#D39126" rx="3" ry="4"/><path fill="#D8992B" d="M17 26.5a2.5 2.5 0 105 0l-.001-.012c.419.317.935.512 1.501.512a2.5 2.5 0 002.5-2.5c0-.566-.195-1.082-.512-1.501L25.5 23a2.5 2.5 0 002.5-2.5c0-.822-.402-1.544-1.014-2a2.489 2.489 0 00-1.035-4.455C25.465 9.08 21.197 7 16 7v18c.557 0 1 .867 1 1.5z"/><path fill="#DEA32F" d="M16 7c-5.197 0-9.465 2.08-9.951 7.045A2.489 2.489 0 005.014 18.5 2.489 2.489 0 004 20.5 2.5 2.5 0 006.5 23l.012-.001A2.477 2.477 0 006 24.5 2.5 2.5 0 008.5 27c.566 0 1.082-.195 1.501-.512L10 26.5a2.5 2.5 0 105 0c0-.633.443-1.5 1-1.5V7z"/><path fill="#FFEAA7" d="M20.5 20a3.5 3.5 0 100-7c-.213 0-.419.026-.622.063A3.993 3.993 0 0016 10v10h4.5z"/><path fill="#FEF1C6" d="M16 10a3.993 3.993 0 00-3.878 3.063A3.452 3.452 0 0011.5 13a3.5 3.5 0 100 7H16V10z"/><path fill="#532F42" d="M21 21c0-2.761-1.686-4-5-4v8c3.314 0 5-1.239 5-4z"/><circle cx="12" cy="16" r="1" fill="#373F3F"/><circle cx="20" cy="16" r="1" fill="#2B3332"/><circle cx="20" cy="15.75" r=".25" fill="#F7F7F7"/><circle cx="12" cy="15.75" r=".25" fill="#FFF"/><path fill="#5D374C" d="M16 17c-3.314 0-5 1.239-5 4s1.686 4 5 4v-8z"/><path fill="#F7F7F7" d="M14.5 23a4.95 4.95 0 01-1.34-.201l.76 3.799a.5.5 0 00.49.402H16v-4.245a4.951 4.951 0 01-1.5.245z"/><path fill="#EDEEEE" d="M17.5 23a4.951 4.951 0 01-1.5-.245V27h1.59a.5.5 0 00.49-.402l.76-3.799A4.95 4.95 0 0117.5 23z"/><path fill="#F3586F" d="M16 18c-.828 0-1.5.129-1.5.75s.672 1.5 1.5 1.5V18z"/><path fill="#E85160" d="M17.5 18.75c0-.621-.672-.75-1.5-.75v2.25c.828 0 1.5-.879 1.5-1.5z"/><circle cx="7.5" cy="8.5" r="2.5" fill="#DEA32F"/><circle cx="24.5" cy="8.5" r="2.5" fill="#D8992B"/><path fill="#D39126" d="M16 0a3 3 0 00-3 3c0 3 1.343 3 3 3V0z"/></svg>