<svg xmlns="http://www.w3.org/2000/svg" width="100%" height="100%" viewBox="-2.72 -2.72 37.44 37.44"><path fill="#3A9B46" d="M16 19.011l-8 3s-1.788 2.683.554 5.511c.15.182.446.079.446-.157V26.01s0 1.818 2.6 3.721c.165.121.4.003.4-.202V28.01s1.437 3.237 3.925 3.979c.024.007.05 0 .075 0V19.011z"/><path fill="#2F963C" d="M16.075 31.989C18.563 31.248 20 28.011 20 28.011v1.519c0 .205.235.323.4.202 2.6-1.903 2.6-3.721 2.6-3.721v1.355c0 .236.296.338.446.157 2.342-2.83.554-5.512.554-5.512l-8-3V31.99c.025-.001.051.006.075-.001z"/><path fill="#434C4B" d="M18 0s-.289 2.41-1.07 3.191c-.781.781-1.655 1.174-2.475.354-.82-.82-.427-1.694.354-2.475S18 0 18 0z"/><path fill="#373F3F" d="M16 3v.869c.318-.139.631-.379.93-.678C17.711 2.41 18 0 18 0c-1.497 1.232-2 3-2 3z"/><path fill="#505957" d="M12 4.5C12 5.66 13.791 6 16 6V3c-2.209 0-4 .34-4 1.5z"/><path fill="#434C4B" d="M20 4.5C20 3.34 18.209 3 16 3v3c2.209 0 4-.34 4-1.5z"/><path fill="#5C6664" d="M16 5c-2.761 0-5 .397-5 1.75s2.239 1.75 5 1.75V5z"/><path fill="#505957" d="M21 6.75C21 5.397 18.761 5 16 5v3.5c2.761 0 5-.397 5-1.75z"/><path fill="#687271" d="M16 7.5c-3.314 0-6 .454-6 2s2.686 2 6 2v-4z"/><path fill="#5C6664" d="M22 9.5c0-1.546-2.686-2-6-2v4c3.314 0 6-.454 6-2z"/><path fill="#757F7E" d="M16 10c-4.418 0-7 2.024-7 6s2.582 6 7 6V10z"/><path fill="#687271" d="M23 16c0-3.976-2.582-6-7-6v12c4.418 0 7-2.024 7-6z"/><ellipse cx="13" cy="15.5" fill="#FFD96C" rx="1.5" ry="2"/><ellipse cx="19" cy="15.5" fill="#FFD04D" rx="1.5" ry="2"/><circle cx="13" cy="15" r=".5" fill="#373F3F"/><circle cx="19" cy="15" r=".5" fill="#2B3332"/><path fill="#687271" d="M16 17s-2.525 2.52-5.068 3.557C12.127 21.514 13.843 22 16 22v-5z"/><path fill="#5C6664" d="M21.068 20.557C18.525 19.52 16 17 16 17v5c2.157 0 3.873-.486 5.068-1.443z"/><path fill="#4EAC5D" d="M16 21s-3 2-3 5 3 5 3 5V21z"/><path fill="#48A353" d="M16 21s3 2 3 5-3 5-3 5V21z"/><path fill="#60C46F" d="M11.907 10.093S9 9.512 7.256 11.256s-1.163 4.651-1.163 4.651l5.814-5.814z"/><path fill="#54B668" d="M11.907 10.093s.581 2.907-1.163 4.651-4.651 1.163-4.651 1.163l5.814-5.814zm-.016 8.016s-3.391-.678-5.426 1.357-1.357 5.426-1.357 5.426l6.783-6.783z"/><path fill="#4EAC5D" d="M11.891 18.109s.678 3.391-1.357 5.426-5.426 1.357-5.426 1.357l6.783-6.783z"/><path fill="#3A9B46" d="M20.109 18.109s3.391-.678 5.426 1.357 1.357 5.426 1.357 5.426l-6.783-6.783z"/><path fill="#48A353" d="M20.109 18.109s-.678 3.391 1.357 5.426 5.426 1.357 5.426 1.357l-6.783-6.783zm-.016-8.016s2.907-.581 4.651 1.163 1.163 4.651 1.163 4.651l-5.814-5.814z"/><path fill="#4EAC5D" d="M20.093 10.093s-.581 2.907 1.163 4.651 4.651 1.163 4.651 1.163l-5.814-5.814z"/><path fill="#C09265" d="M8.5 30.999a.5.5 0 01-.354-.853C9.959 28.332 10 26.514 10 26.496a.502.502 0 01.5-.496h.003a.5.5 0 01.497.499c0 .09-.024 2.231-2.146 4.354a.502.502 0 01-.354.146z"/><path fill="#B38658" d="M23.5 30.999a.5.5 0 00.354-.853C22.041 28.332 22 26.514 22 26.496a.502.502 0 00-.5-.496h-.003a.5.5 0 00-.497.499c0 .09.024 2.231 2.146 4.354a.502.502 0 00.354.146z"/></svg>