<svg xmlns="http://www.w3.org/2000/svg" width="100%" height="100%" viewBox="-2.72 -2.72 37.44 37.44"><path fill="#838C8A" d="M5 9L1.354 5.354a.5.5 0 010-.707l2.293-2.293a.5.5 0 01.707 0L8 6 5 9z"/><path fill="#757F7E" d="M27 9l3.646-3.646a.5.5 0 000-.707l-2.293-2.293a.5.5 0 00-.707 0L24 6l3 3z"/><path fill="#845331" d="M27.293 9.293l-3.586-3.586a.999.999 0 00-1.414 0l-.754.754c2.047 1.236 3.534 3.184 4.434 5.566l1.32-1.32a1 1 0 000-1.414z"/><path fill="#8D5B36" d="M10.461 6.461l-.754-.754a.999.999 0 00-1.414 0L4.707 9.293a.999.999 0 000 1.414l1.32 1.32c.9-2.382 2.388-4.33 4.434-5.566z"/><path fill="#FFEAA7" d="M27 18c0-7.18-3.82-13-11-13v25c7.18 0 11-4.82 11-12z"/><path fill="#FEF1C6" d="M16 5C8.82 5 5 10.82 5 18s3.82 12 11 12V5z"/><path fill="#FFD96C" d="M16 7.006c-6.643 0-9 5.926-9 11 0 3.735 1.169 10 9 10v-21z"/><path fill="#FFD04D" d="M25 18c0-5.074-2.357-11-9-11v21c7.831 0 9-6.265 9-10z"/><path fill="#65A9DC" d="M14.792 1.051A6.406 6.406 0 0014 1S11.109-.109 10.5.5c-.489.489.129 2.447.392 3.2C8.351 8.324 11.628 13 16 13V1.127c-.404 0-.808-.026-1.208-.076z"/><path fill="#5CA3D5" d="M21.108 3.7c.263-.753.881-2.711.392-3.2-.609-.609-3.5.5-3.5.5a6.39 6.39 0 00-.791.051c-.4.051-.804.076-1.208.076V13c4.371 0 7.648-4.676 5.107-9.3z"/><path fill="#FEF1C6" d="M10.255 8.732C10.971 11.206 13.29 13 16 13v-3a7.958 7.958 0 01-3.874-1 2.581 2.581 0 00-1.871-.268z"/><path fill="#FFEAA7" d="M21.743 8.732C21.028 11.206 18.709 13 15.999 13v-3a7.958 7.958 0 003.874-1 2.58 2.58 0 011.87-.268z"/><path fill="#FFD04D" d="M16 14H7.514A15.614 15.614 0 007 18c0 3.735 1.169 10 9 10V14z"/><path fill="#F7C845" d="M16 14v14c7.831 0 9-6.265 9-10 0-1.316-.163-2.688-.514-4H16z"/><path fill="#FFF" d="M13.967 7.575c-.281-.54-.902-1.454-2.035-1.882a.286.286 0 00-.27.036c-.153.112-.397.364-.569.899-.176.549-.067.97.028 1.194a.294.294 0 00.272.178h2.311a.293.293 0 00.263-.425z"/><path fill="#96643B" d="M13.967 7.575c-.26-.5-.818-1.317-1.799-1.775-.149.135-.342.377-.487.828-.176.549-.067.97.028 1.194a.294.294 0 00.272.178h1.723a.293.293 0 00.263-.425z"/><path fill="#373F3F" d="M13.29 7.822c.092-.216.192-.621.039-1.144a3.74 3.74 0 00-.763-.656 2.125 2.125 0 00-.296.607c-.176.549-.067.97.028 1.194a.292.292 0 00.271.177h.449c.12 0 .226-.069.272-.178z"/><path fill="#F7F7F7" d="M18.033 7.575c.281-.54.902-1.454 2.035-1.882a.286.286 0 01.27.036c.153.112.397.364.569.899.176.549.067.97-.028 1.194a.294.294 0 01-.272.178h-2.311a.293.293 0 01-.263-.425z"/><path fill="#8D5B36" d="M20.29 7.822c.095-.223.204-.645.028-1.194-.145-.45-.337-.693-.487-.828-.98.458-1.538 1.274-1.799 1.775-.1.194.046.425.264.425h1.723a.292.292 0 00.271-.178z"/><path fill="#2B3332" d="M19.702 7.822c.095-.223.204-.645.028-1.194a2.125 2.125 0 00-.296-.607 3.77 3.77 0 00-.763.656c-.153.524-.053.928.039 1.144.046.11.152.179.271.179h.449c.12 0 .226-.069.272-.178z"/><path fill="#F7C845" d="M16 19H7.033c.216 3.753 1.797 9 8.967 9v-9z"/><path fill="#F0C13E" d="M16 28c7.17 0 8.751-5.247 8.967-9H16v9zm0-4H8.342c1.222 2.222 3.492 4 7.658 4v-4z"/><path fill="#E8BA36" d="M16 28c4.166 0 6.436-1.778 7.658-4H16v4z"/><path fill="#5CA3D5" d="M24.497 16.773l-2.032.871a4.41 4.41 0 01-4.855-.935 1 1 0 01.177-1.555l4.419-2.762a2.479 2.479 0 112.291 4.381z"/><path fill="#65A9DC" d="M7.503 16.773l2.032.871a4.41 4.41 0 004.855-.935 1 1 0 00-.177-1.555l-4.419-2.762a2.479 2.479 0 10-2.291 4.381z"/><path fill="#529CCF" d="M28.578 29.526L27 29l.474-.711a3 3 0 00-.622-4.007l-2.471-1.977c-.747 2.346-2.337 4.563-5.579 5.369A3.035 3.035 0 0019 30l-.775.743A.73.73 0 0018.73 32H29.5a.5.5 0 00.5-.5v-.001a2.08 2.08 0 00-1.422-1.973z"/><path fill="#5CA3D5" d="M13 30a3.035 3.035 0 00.198-2.326c-3.242-.806-4.832-3.023-5.579-5.369l-2.471 1.977a3 3 0 00-.622 4.007L5 29l-1.578.526A2.08 2.08 0 002 31.499v.001a.5.5 0 00.5.5h10.77a.73.73 0 00.505-1.257L13 30z"/><path fill="#4896C8" d="M12.88 1.33c-.513-.142-1.068-.263-1.47-.263-.201 0-.286.03-.299.03h-.002c-.121.204-.008.983.244 1.877.279-.404 1.323-1.522 1.527-1.644z"/><path fill="#4390BF" d="M20.647 2.975c.255-.899.372-1.679.26-1.863 0 0-.073-.045-.316-.045-.402 0-.957.12-1.47.263.203.122 1.247 1.24 1.526 1.645z"/></svg>