<svg xmlns="http://www.w3.org/2000/svg" width="100%" height="100%" viewBox="-2.72 -2.72 37.44 37.44"><path fill="#6CD275" d="M20.067 30s4.549 3.206 6.375 1.5c2.705-2.527-9.25-5.875-9.25-5.875L20.067 30z"/><path fill="#78DF7C" d="M11.966 30s-4.549 3.206-6.375 1.5c-2.705-2.527 9.25-5.875 9.25-5.875L11.966 30z"/><path fill="#84ED82" d="M5.478 3.842C4.207 3.661 3 3.518 3 4.5 3 5.687 5.375 6 5.375 6c-.598-.915-.285-1.671.103-2.158zM3.5 6.031c-.849.284-1.499.586-1.499 1.031.001.94.687.938 2.187.938.149 0 .314-.013.485-.032-.992-.463-1.189-1.31-1.173-1.937z"/><path fill="#FFEAA7" d="M11.239 2.237C10.094 2.946 8.362 3.921 7.375 4c-.539.043-1.227-.062-1.897-.158-.316.397-.574.975-.337 1.671-.556.183-1.133.348-1.641.518-.016.627.181 1.472 1.171 1.935.123.497.387 1.076.984 1.422.121-.064.251-.137.379-.207-2.623 4.392-4.146 9.679-2.048 15.209C6.636 31.377 16 30.996 16 30.996V0c-2.171 0-3.181.463-4.761 2.237z"/><path fill="#84ED82" d="M4.321 9.981c.227-.035.731-.273 1.333-.593-.692-.401-.948-1.122-1.041-1.657-.391.206-.752.426-1.042.688-1.312 1.187-.062 1.687.75 1.562z"/><path fill="#FFF" d="M10 21s.5-7 6-7v7.916s-4.875.125-6-.916z"/><path fill="#78DF7C" d="M26.522 3.842C27.793 3.661 29 3.518 29 4.5 29 5.687 26.625 6 26.625 6c.598-.915.285-1.671-.103-2.158zM28.5 6.031c.849.284 1.499.586 1.499 1.032-.001.939-.687.937-2.187.937-.149 0-.314-.013-.485-.032.992-.463 1.189-1.31 1.173-1.937z"/><path fill="#FFE28A" d="M25.967 9.181l.379.207c.597-.346.861-.925.984-1.422.99-.463 1.186-1.308 1.171-1.935-.508-.17-1.085-.334-1.641-.518.237-.696-.021-1.274-.337-1.671-.671.096-1.359.201-1.898.158-.987-.079-2.719-1.054-3.864-1.763C19.181.463 18.171 0 16 0v30.996s9.364.381 12.014-6.606c2.098-5.53.575-10.817-2.047-15.209z"/><path fill="#78DF7C" d="M27.679 9.981c-.227-.035-.731-.273-1.333-.593.692-.401.949-1.122 1.041-1.657.391.206.752.426 1.042.688 1.312 1.187.062 1.687-.75 1.562z"/><path fill="#F7F7F7" d="M22 21s-.5-7-6-7v7.916s4.667.167 6-.916z"/><path fill="#78DF7C" d="M10 21s.396.916 6 .916V28s-6-.262-6-7z"/><path fill="#6CD275" d="M22 21s-.396.916-6 .916V28s6-.262 6-7z"/><ellipse cx="13" cy="5.5" fill="#373F3F" rx="1" ry="1.5"/><ellipse cx="13" cy="5.062" fill="#FFF" rx=".5" ry=".625"/><ellipse cx="19" cy="5.5" fill="#2B3332" rx="1" ry="1.5"/><ellipse cx="19" cy="5.062" fill="#F7F7F7" rx=".5" ry=".625"/><path fill="#FFD96C" d="M22.711 14.407c-.666-.586-1.763-.533-2.351.115l-2.014 2.217c-.503.554-.453 1.352.117 1.853.569.501 1.476.546 2.104.103l1.961-1.382c1.032-.727 1.117-2.083.183-2.906z"/><path fill="#FFE28A" d="M9.289 14.407c.666-.586 1.763-.533 2.351.115l2.014 2.217c.503.554.453 1.352-.117 1.853-.569.501-1.476.546-2.104.103l-1.961-1.382c-1.032-.727-1.117-2.083-.183-2.906z"/><path fill="#D84459" d="M16 8h-1.68a.249.249 0 00-.247.29c.05.297.182.767.526 1.14.393-.26.874-.419 1.401-.427V8z"/><path fill="#E55D53" d="M14.599 9.429c.289.313.726.556 1.401.567v-.993a2.611 2.611 0 00-1.401.426z"/><path fill="#C84054" d="M16.042 9c.543 0 1.039.163 1.443.429.345-.372.476-.843.526-1.14A.25.25 0 0017.764 8H16v1.003c.014 0 .027-.003.042-.003z"/><path fill="#D64F45" d="M17.484 9.429A2.612 2.612 0 0016.042 9c-.015 0-.028.003-.042.003v.993c.015 0 .026.004.042.004.701 0 1.147-.251 1.442-.571z"/></svg>