<svg xmlns="http://www.w3.org/2000/svg" width="100%" height="100%" viewBox="-2.72 -2.72 37.44 37.44"><path fill="#F74000" d="M28.138 22.746l3.104-.776a1 1 0 00.465-1.677L28.413 17l3.293-3.293a1 1 0 00-.465-1.677l-3.104-.776.848-5.089c.144-.864-.813-1.482-1.541-.996l-6.445 4.297v15.07l6.445 4.297c.728.486 1.685-.133 1.541-.996l-.847-5.091z"/><path fill="#F9C900" d="M21.999 10l5.04-3.36a.5.5 0 01.771.498L26.999 12l3.143.786a.5.5 0 01.232.839L26.999 17l3.376 3.376a.5.5 0 01-.232.839L26.999 22l.81 4.862a.5.5 0 01-.771.498L21.999 24V10z"/><path fill="#FF4A00" d="M3.862 22.746L.758 21.97a1 1 0 01-.465-1.677L3.587 17 .294 13.707a1 1 0 01.465-1.677l3.104-.776-.849-5.09c-.144-.863.813-1.482 1.541-.996L11 9.465v15.07l-6.445 4.297c-.728.486-1.685-.133-1.541-.996l.848-5.09z"/><path fill="#FFD400" d="M10.001 10l-5.04-3.36a.5.5 0 00-.771.498L5.001 12l-3.143.786a.5.5 0 00-.233.838L5.001 17l-3.376 3.376a.5.5 0 00.232.838L5.001 22l-.81 4.862a.5.5 0 00.771.498l5.04-3.36V10z"/><path fill="#E5C79A" d="M7.71 23.509c0 4.2 1.34 6.943 1.97 8a.997.997 0 00.861.491H12.5a.5.5 0 00.5-.5V23l-5.29.509z"/><path fill="#E0C193" d="M24.29 23.509c0 4.2-1.34 6.943-1.97 8a.997.997 0 01-.861.491H19.5a.5.5 0 01-.5-.5V23l5.29.509z"/><path fill="#EACEA1" d="M16 11a9 9 0 00-9 9 9 9 0 009 9V11z"/><path fill="#E5C79A" d="M25 20a9 9 0 00-9-9v18a9 9 0 009-9zM7.529 23.016C8.77 26.501 12.089 29 16 29v-2a10.978 10.978 0 01-8.471-3.984z"/><path fill="#E0C193" d="M16 27v2c3.911 0 7.23-2.499 8.471-5.984A10.978 10.978 0 0116 27z"/><path fill="#F5DEB9" d="M8.86 23.3c.814 1.01 2.162 2.177 3.852 1.782a.51.51 0 00.37-.37c.395-1.69-.772-3.038-1.782-3.852-.685-.552-1.679-.481-2.3.14-.621.621-.692 1.615-.14 2.3z"/><path fill="#EFD4A7" d="M23.14 23.3c-.814 1.01-2.162 2.177-3.852 1.782a.51.51 0 01-.37-.37c-.395-1.69.772-3.038 1.782-3.852.684-.552 1.678-.481 2.3.14.621.621.692 1.615.14 2.3z"/><path fill="#914C39" d="M7 20c0 .658.075 1.298.209 1.916C8.129 20.753 10 18.018 10 15c0-.561-.128-1.013-.332-1.393A8.968 8.968 0 007 20z"/><path fill="#8C4430" d="M22.332 13.607c-.204.38-.332.832-.332 1.393 0 3.018 1.871 5.753 2.791 6.916a8.968 8.968 0 00-2.459-8.309z"/><path fill="#F5DEB9" d="M16 .01c-.088 0-.174-.009-.263-.006-4.683.133-8.589 4.029-8.733 8.712a8.976 8.976 0 004.11 7.833c1.142.739 1.866 1.975 2.137 3.308C13.713 22.122 14.769 23 16 23V.01z"/><path fill="#EFD4A7" d="M16 .01V23c1.247 0 2.313-.9 2.765-3.228.251-1.294.968-2.487 2.079-3.197A8.976 8.976 0 0025 9c0-4.97-4.031-8.989-9-8.99z"/><path fill="#99533D" d="M16.503 22.943c.27-.059.528-.167.768-.332l.06-.042a2.78 2.78 0 00.677-.735l.024-.037a4.98 4.98 0 00.535-1.212l.004-.012c.074-.246.14-.512.196-.801.002-.01.007-.019.009-.029.143-.759.224-1.665.224-2.743v-2.788c0-4.046 1.227-7.997 3.519-11.331l.028-.041A8.96 8.96 0 0016 .01V23a2.4 2.4 0 00.503-.057z"/><path fill="#A55F49" d="M15.737.004c-2.443.07-4.669 1.169-6.265 2.865l.009.013A19.996 19.996 0 0113 14.212V17c0 1.11.085 2.04.238 2.812.003.015.01.03.013.045.057.282.124.541.199.781l.002.007c.148.471.328.86.535 1.18l.024.037c.201.303.426.538.67.715l.06.043a2.145 2.145 0 00.855.342c.133.023.267.038.404.038V.01c-.088 0-.174-.009-.263-.006z"/><path fill="#373F3F" d="M11.546 11.485a.246.246 0 01-.19-.025.248.248 0 01-.091-.341c.234-.405.296-.876.175-1.328a1.74 1.74 0 00-.815-1.062c-.81-.467-1.923-.169-2.39.64-.07.119-.223.16-.343.091s-.16-.221-.091-.341c.601-1.041 2.032-1.425 3.073-.823.521.3.893.785 1.048 1.366a2.23 2.23 0 01-.225 1.707.248.248 0 01-.151.116z"/><path fill="#2B3332" d="M20.454 11.485c.062.017.13.01.19-.025a.248.248 0 00.091-.341 1.737 1.737 0 01-.175-1.328 1.74 1.74 0 01.815-1.062c.81-.467 1.923-.169 2.39.64a.25.25 0 10.432-.25c-.601-1.041-2.032-1.425-3.073-.823-.521.3-.893.785-1.048 1.366s-.076 1.187.225 1.707c.036.059.092.1.153.116z"/></svg>