<svg xmlns="http://www.w3.org/2000/svg" width="100%" height="100%" viewBox="-2.72 -2.72 37.44 37.44"><path fill="#D2E6F3" d="M7.024 12.162c.208.775 1.725 1.042 3.091.676s1.235-1.005 1.028-1.78c-.208-.775-.414-1.393-1.78-1.028-1.367.367-2.547 1.357-2.339 2.132z"/><path fill="#C1DDEE" d="M24.976 12.162c-.208.775-1.725 1.042-3.091.676s-1.235-1.005-1.028-1.78c.208-.775.414-1.393 1.78-1.028 1.367.367 2.547 1.357 2.339 2.132z"/><path fill="#9FC9E4" d="M19.844 27.719c-1.681-1.072-3.235-.986-3.844-.895V32h4a2 2 0 002-2v-1.848c-.662.11-1.41.043-2.156-.433z"/><path fill="#DB7383" d="M19.844 27.719a2.981 2.981 0 002.156.433V20.5a.5.5 0 00-.5-.5h-1a.5.5 0 00-.5.5v1a.5.5 0 01-.5.5H19a.5.5 0 00-.5.5V24H16v2.823c.609-.09 2.162-.176 3.844.896z"/><path fill="#C1DDEE" d="M15 14v3.083l-1.658.553a.5.5 0 00-.342.474V30a2 2 0 002 2h1V14h-1z"/><path fill="#B0D3EA" d="M19 30V18.11a.5.5 0 00-.342-.474L17 17.083V14h-1v18h1a2 2 0 002-2z"/><path fill="#FFEAA7" d="M15 3h1v4h-1z"/><path fill="#FFE28A" d="M16 3h1v4h-1z"/><path fill="#FFEAA7" d="M13.028 2.186C13.171 3.202 14.439 4 16 4V3c-1.199 0-2.258-.32-2.972-.814z"/><path fill="#FFE28A" d="M16 4c1.561 0 2.829-.798 2.972-1.814C18.258 2.68 17.199 3 16 3v1z"/><path fill="#FEF1C6" d="M16 0c-1.657 0-3 .895-3 2 0 .064.019.124.028.186C13.742 2.68 14.801 3 16 3V0z"/><path fill="#FFEAA7" d="M16 0v3c1.199 0 2.258-.32 2.972-.814.009-.062.028-.122.028-.186 0-1.105-1.343-2-3-2z"/><path fill="#D2E6F3" d="M9.258 11.963C10.074 14.289 12.78 16 16 16v-2c-2.56 0-4.908-.765-6.742-2.037z"/><path fill="#C1DDEE" d="M16 16c3.22 0 5.926-1.711 6.742-4.037C20.908 13.235 18.56 14 16 14v2z"/><path fill="#E2EFF7" d="M16 5c-3.866 0-7 2.462-7 5.5 0 .507.094.996.258 1.463C11.092 13.235 13.44 14 16 14V5z"/><path fill="#D2E6F3" d="M16 5v9c2.56 0 4.908-.765 6.742-2.037.163-.467.258-.956.258-1.463C23 7.462 19.866 5 16 5z"/><path fill="#DB7383" d="M22.289 8.806a.5.5 0 00-.51.239l-.701 1.185a.51.51 0 00.074.63.503.503 0 00.779-.106l.449-.761a.251.251 0 01.255-.12l.327.052a4.47 4.47 0 00-.275-1.057l-.398-.062z"/><path fill="#DD7C8A" d="M10.069 10.755a.5.5 0 10.853-.525l-.701-1.185a.5.5 0 00-.51-.239l-.398.064a4.458 4.458 0 00-.275 1.057l.327-.052a.25.25 0 01.255.12l.449.76z"/><path fill="#373F3F" d="M13.243 9.692l-.486.115C12.762 9.829 13.302 12 16 12v-.5c-2.292 0-2.739-1.734-2.757-1.808z"/><path fill="#2B3332" d="M19.243 9.807l-.486-.114c-.005.018-.45 1.807-2.757 1.807v.5c2.698 0 3.238-2.171 3.243-2.193z"/><circle cx="19" cy="10" r="1" fill="#FFD04D"/><circle cx="13" cy="10" r="1" fill="#FFD96C"/></svg>