<svg xmlns="http://www.w3.org/2000/svg" width="100%" height="100%" viewBox="-2.72 -2.72 37.44 37.44"><path fill="#F79654" d="M16 20s9 0 9-10h2s2.114 18-11 18v-8z"/><path fill="#FF4A00" d="M25 10h1.998L27 9.999a4.324 4.324 0 001.585-6.381l-1.771-2.479a1 1 0 00-1.627 0L23.414 3.62a4.323 4.323 0 001.584 6.379L25 10z"/><path fill="#FF8F00" d="M25 10s-1.054-1.119-1.255-1.931a3.13 3.13 0 01.491-2.576l1.357-1.9a.5.5 0 01.814 0l1.357 1.9a3.13 3.13 0 01.492 2.577c-.202.811-1.258 1.93-1.258 1.93H25z"/><path fill="#FFD400" d="M25 10l-.001-.003c-.496-.944-.336-2.381.355-3.193l.456-.534a.25.25 0 01.381 0l.453.532c.691.812.851 2.249.356 3.194l-.002.004H25z"/><path fill="#FFAD68" d="M12.001 14l-.001.001V14l-2.745.915a9.997 9.997 0 00-5.158 3.94l-1.159 1.739a1.69 1.69 0 00.468 2.343l.001.001a1.69 1.69 0 002.449-.65l.951-1.903a7.986 7.986 0 013.428-3.487A16.085 16.085 0 009 23c0 .121.009.232.012.349A3.866 3.866 0 008 26c0 3 1 4 1 4s-1.574 0-1.929 1.396c-.078.307.176.604.492.604h4.022c.265 0 .52-.105.707-.293l.414-.414a.996.996 0 00.294-.707v-.996c.874.277 1.877.41 3 .41V14h-3.999z"/><path fill="#FCA15E" d="M29.063 20.594l-1.159-1.739a10.005 10.005 0 00-5.158-3.94L20 14v.001L19.999 14H16v16c1.123 0 2.126-.133 3-.41v.996c0 .265.105.52.293.707l.414.414a1 1 0 00.707.293h4.022c.317 0 .571-.297.493-.604C24.574 30 23 30 23 30s1-1 1-4c0-1.168-.456-2.03-1.012-2.651.003-.117.012-.228.012-.349 0-2.019-.433-4.208-1.235-6.102a7.992 7.992 0 013.428 3.487l.951 1.903a1.69 1.69 0 002.449.65l.001-.001a1.69 1.69 0 00.469-2.343z"/><path fill="#FFB76D" d="M21.58 9.085c-.273-.647-.456-1.327-.63-2.008-.258-1.013-.86-2.47-2.223-3.34-.549-.35-.943-.895-1.008-1.542L17.59.9a1 1 0 00-.995-.9H16v16c3.314 0 6-1.849 6-5.2 0-.572-.209-1.213-.42-1.715zM15.405 0a1 1 0 00-.995.9l-.129 1.294c-.065.647-.459 1.192-1.008 1.542-1.363.87-1.964 2.327-2.223 3.34-.174.681-.357 1.361-.63 2.008-.211.503-.42 1.144-.42 1.716 0 3.351 2.686 5.2 6 5.2V0h-.595z"/><path fill="#FFB76D" d="M10.426 12.913C11.307 14.917 13.468 16 16 16v-1.733c-.289 0-1.004-.441-1.286-.458-1.793-.104-2.992-.106-4.288-.896z"/><path fill="#FFF" d="M13.967 10.575c-.281-.54-.902-1.454-2.035-1.882a.286.286 0 00-.27.036c-.153.112-.397.364-.569.899-.176.549-.067.97.028 1.194a.294.294 0 00.272.178h2.311a.293.293 0 00.263-.425z"/><path fill="#0F769B" d="M13.967 10.575c-.26-.5-.818-1.317-1.799-1.775-.149.135-.342.377-.487.828-.176.549-.067.97.028 1.194a.294.294 0 00.272.178h1.723a.293.293 0 00.263-.425z"/><path fill="#373F3F" d="M13.29 10.822c.092-.216.192-.621.039-1.144a3.74 3.74 0 00-.763-.656 2.125 2.125 0 00-.296.607c-.176.549-.067.97.028 1.194a.292.292 0 00.271.177h.449c.12 0 .226-.069.272-.178z"/><path fill="#F7F7F7" d="M18.033 10.575c.281-.54.902-1.454 2.035-1.882a.286.286 0 01.27.036c.153.112.397.364.569.899.176.549.067.97-.028 1.194a.294.294 0 01-.272.178h-2.311a.293.293 0 01-.263-.425z"/><path fill="#0A6F8E" d="M20.29 10.822c.095-.223.204-.645.028-1.194-.145-.45-.337-.693-.487-.828-.98.458-1.538 1.274-1.799 1.775-.1.194.046.425.264.425h1.723a.292.292 0 00.271-.178z"/><path fill="#2B3332" d="M19.702 10.822c.095-.223.204-.645.028-1.194a2.125 2.125 0 00-.296-.607 3.77 3.77 0 00-.763.656c-.153.524-.053.928.039 1.144.046.11.152.179.271.179h.449c.12 0 .226-.069.272-.178z"/><path fill="#FAE09F" d="M21 25c0-3.866-2.239-8-5-8v13c1.19 0 2.244-.15 3.152-.464.56-.194.999-.627 1.219-1.178A9.077 9.077 0 0021 25zm-10 0c0 1.223.232 2.362.63 3.358.22.55.659.984 1.219 1.178.907.314 1.961.464 3.151.464V17c-2.761 0-5 4.134-5 8z"/><path fill="#FFAD68" d="M21.574 12.913c-1.296.79-2.495.792-4.288.896-.282.016-.996.458-1.286.458V16c2.532 0 4.693-1.083 5.574-3.087z"/></svg>