<svg xmlns="http://www.w3.org/2000/svg" width="100%" height="100%" viewBox="-2.72 -2.72 37.44 37.44"><path fill="#FCA15E" d="M16 10.577a.5.5 0 01-.25-.066l-4-2.31a1.497 1.497 0 00-1.5 0l-4 2.31c-.462.266-.75.764-.75 1.299v4.618c0 .534.288 1.032.75 1.299l4 2.31c.154.09.25.256.25.434v4.613c0 .534.288 1.032.75 1.299l4 2.309c.228.132.487.201.75.201V10.577z"/><path fill="#F79654" d="M16.75 28.69l4-2.309c.462-.267.75-.765.75-1.299V20.47c0-.178.096-.344.25-.434l4-2.31c.462-.267.75-.765.75-1.299V11.81c0-.534-.288-1.032-.75-1.299l-4-2.31a1.497 1.497 0 00-1.5 0l-4 2.31a.5.5 0 01-.25.066v18.314c.263.001.522-.069.75-.201z"/><path fill="#DD564C" d="M16 11.655c-.173 0-.345-.045-.5-.134l-4-2.309a.998.998 0 00-1 0L7 11.233c-.309.179-.5.509-.5.866v4.041c0 .357.191.687.5.866l4 2.309c.309.179.5.509.5.866v4.613c0 .357.191.687.5.866l3.5 2.021c.155.089.327.134.5.134v-16.16z"/><path fill="#D64F45" d="M16.5 27.681L20 25.66c.309-.179.5-.509.5-.866v-4.613c0-.357.191-.687.5-.866l4-2.309c.309-.179.5-.509.5-.866v-4.041c0-.357-.191-.687-.5-.866l-3.5-2.021a.998.998 0 00-1 0l-4 2.309a1.003 1.003 0 01-.5.134v16.16c.173 0 .345-.045.5-.134z"/><path fill="#FCA15E" d="M16 18.618c-.518 0-1.036.134-1.5.402l-1 .577a3 3 0 00-1.5 2.598v1.155a3 3 0 001.5 2.598l1 .577c.464.268.982.402 1.5.402v-8.309z"/><path fill="#F79654" d="M17.5 26.526l1-.577a3 3 0 001.5-2.598v-1.155a3 3 0 00-1.5-2.598l-1-.577a2.997 2.997 0 00-1.5-.402v8.31a3.009 3.009 0 001.5-.403z"/><ellipse cx="14.5" cy="23" fill="#373F3F" rx=".5" ry="1"/><ellipse cx="17.5" cy="23" fill="#2B3332" rx=".5" ry="1"/><path fill="#FFAD68" d="M11 9.964c-.518 0-1.036.134-1.5.402l-1 .577A3 3 0 007 13.541v1.155a3 3 0 001.5 2.598l1 .577c.464.268.982.402 1.5.402V9.964z"/><path fill="#FCA15E" d="M12.5 17.872l1-.577a3 3 0 001.5-2.598v-1.155a3 3 0 00-1.5-2.598l-1-.577a2.997 2.997 0 00-1.5-.402v8.31a3.009 3.009 0 001.5-.403z"/><ellipse cx="9.5" cy="14" fill="#373F3F" rx=".5" ry="1"/><ellipse cx="12.5" cy="14.142" fill="#2B3332" rx=".5" ry="1"/><path fill="#F79654" d="M21 9.964c-.518 0-1.036.134-1.5.402l-1 .577a3 3 0 00-1.5 2.598v1.155a3 3 0 001.5 2.598l1 .577c.464.268.982.402 1.5.402V9.964z"/><path fill="#EF8C48" d="M22.5 17.872l1-.577a3 3 0 001.5-2.598v-1.155a3 3 0 00-1.5-2.598l-1-.577a2.997 2.997 0 00-1.5-.402v8.31a3.009 3.009 0 001.5-.403z"/><ellipse cx="19.5" cy="14" fill="#373F3F" rx=".5" ry="1"/><ellipse cx="22.5" cy="14" fill="#2B3332" rx=".5" ry="1"/><path fill="#ACD7DD" d="M32 13c0 1.355-1.449 2.5-2.5 2.5s-2.5-1-2.5-1v-1s1.685-2 3-2 2 .145 2 1.5z"/><path fill="#B9E2E7" d="M0 13c0 1.355 1.449 2.5 2.5 2.5s2.5-1 2.5-1v-1s-1.685-2-3-2-2 .145-2 1.5z"/><path fill="#DD7731" d="M27 14c0 .828.052 1.5-.5 1.5v-3c.552 0 .5.672.5 1.5z"/><path fill="#D64F45" d="M5.003 14c0 .828-.052 1.5.5 1.5v-3c-.553 0-.5.672-.5 1.5z"/><path fill="#2B3332" d="M23 5c0-.552-.086-1-.5-1s-.5.448-.5 1c0 .416.049.771.25.922V6c0 .834-.226 3-1.25 3a.25.25 0 000 .5c1.73 0 1.75-3.357 1.75-3.5v-.078c.201-.151.25-.506.25-.922z"/><path fill="#373F3F" d="M11 9C9.976 9 9.75 6.834 9.75 6v-.078c.201-.151.25-.506.25-.922 0-.552-.086-1-.5-1S9 4.448 9 5c0 .416.049.771.25.922V6c0 .143.02 3.5 1.75 3.5a.25.25 0 000-.5zm0 7.25c-.547 0-.771-.354-.784-.376a.254.254 0 00-.34-.092.25.25 0 00-.094.341c.015.026.366.627 1.218.627v-.5z"/><path fill="#2B3332" d="M12.217 16.123a.249.249 0 00-.092-.338.252.252 0 00-.341.089c-.009.016-.232.376-.784.376v.5c.852 0 1.203-.601 1.217-.627z"/><path fill="#373F3F" d="M21 16.25c-.547 0-.771-.354-.784-.376a.254.254 0 00-.34-.092.25.25 0 00-.094.341c.015.026.366.627 1.217.627v-.5z"/><path fill="#2B3332" d="M22.217 16.123a.249.249 0 00-.092-.338.252.252 0 00-.341.089c-.009.016-.232.376-.784.376v.5c.852 0 1.203-.601 1.217-.627z"/><path fill="#D64F45" d="M16 18.618c-.518 0-1.036.134-1.5.402l-.521.301C14.63 20.126 15.46 21 16 21v-2.382z"/><path fill="#D1473D" d="M18.021 19.321l-.521-.301a2.997 2.997 0 00-1.5-.402V21c.54 0 1.37-.874 2.021-1.679z"/><path fill="#B33533" d="M16 24.5h-.73a.25.25 0 00-.249.281c.055.434.255 1.219.979 1.219v-1.5z"/><path fill="#A92F31" d="M16.73 24.5H16V26c.724 0 .924-.785.979-1.219a.25.25 0 00-.249-.281z"/></svg>