<svg xmlns="http://www.w3.org/2000/svg" width="100%" height="100%" viewBox="-2.72 -2.72 37.44 37.44"><path fill="#f7d684" d="M21.927 14.635c-.052.01-.142.008-.158-.02-.032-.056.045-.096.076-.143a5.587 5.587 0 00.744-1.741c.013-.05.07-.113.007-.154-.025-.015-.09.026-.132.048a5.764 5.764 0 00-2.2 2.016c-.071.113-.108.254-.24.322q-.22.671-.438 1.343a1.165 1.165 0 00.216.697 1.097 1.097 0 011.012.18 10.686 10.686 0 001.535-.386c.077-.025.206-.01.212-.119.004-.088-.106-.133-.176-.183a3.21 3.21 0 00-.67-.363c-.134-.054-.136-.093-.008-.155a3.524 3.524 0 00.728-.439c.307-.255.61-.514.916-.772v-.059a4.408 4.408 0 00-1.424-.072z"/><path fill="#373f3f" d="M21.917 30.682a.89.89 0 00-.738-.338.502.502 0 01-.058.006c-1.203-.009-.823-.004-1.626.775-.123.119-.098.268-.105.412.14.179.376.257.49.463h2.294c.373-.628.373-.628-.12-1.167l-.137-.15z"/><path fill="#fae09f" d="M19.17.936a.92.92 0 00-.418.66 2.704 2.704 0 01-.158.76 1.483 1.483 0 01.647.355c.068-.083.044-.184.056-.278a1.803 1.803 0 01.354-1.19l-.011-.012a1.773 1.773 0 01-.47-.295zm-1.258 2.031a2.505 2.505 0 00-.132.8l.044.001a.88.88 0 01.594.12c.112-.308.386-.475.597-.697a1.72 1.72 0 00-.844-.488.461.461 0 00-.259.264zM19.238.886a.648.648 0 01.453.286l.014.007c.419-.287.47-.813.766-1.179a.695.695 0 00-.392.18 4.114 4.114 0 01-.841.706z"/><path fill="#fae09f" d="M18.275 2.638a.984.984 0 01.793.497.39.39 0 00.15-.256 1.235 1.235 0 00-.705-.41c-.08.056-.16.112-.238.169zm-.287 1.246c-.083.002-.158-.009-.164-.116l-.044-.001-.009.354c.217.014.46-.074.617.165l.053-.079L18.402 4a1.035 1.035 0 00-.414-.115z"/><path fill="#f7d684" d="M18.275 2.638l-.104.065a1.72 1.72 0 01.844.488l.053-.056a.984.984 0 00-.793-.497zm.238-.17a1.235 1.235 0 01.706.411l.022-.168a1.483 1.483 0 00-.647-.355zm-.525 1.416a1.035 1.035 0 01.414.115l.016-.112a.88.88 0 00-.594-.119c.006.107.08.118.164.116zm1.652-2.653l.01.012.055-.064-.014-.007z"/><path fill="#58b7ae" d="M18.771 5.77a3.961 3.961 0 01.694-2.121c.018-.025.054-.054.05-.074-.01-.034-.034-.017-.046.008l-.058.017a.104.104 0 00.026.043l.013.008-.013-.008a.105.105 0 01-.026-.043 2.59 2.59 0 00-.97.607l-.053.08a.44.44 0 01-.03.309 3.021 3.021 0 01-.423 1.342 2.668 2.668 0 01-.156.597.38.38 0 01.033.297l.01.463a4.24 4.24 0 01-.078 1.946A2.109 2.109 0 0116 10.713v.741a2.27 2.27 0 001.484-.79c.022-.029.058-.077.076-.073.062.017.035.08.037.122a1.178 1.178 0 01-.306.892c-.112.12-.137.17.03.269a3.927 3.927 0 011.912 3.07 2.574 2.574 0 00.353 1.362l.438-1.344A20.479 20.479 0 0118.77 5.77zm-.889 4.684a1.018 1.018 0 01.604-.934c.096-.027.11.035.093.095a1.9 1.9 0 01-.474.886c-.075.074-.174.097-.223-.047zm.527.603c-.093.004-.13-.042-.109-.109a.474.474 0 01.319-.352c.054-.015.09.04.077.094a.514.514 0 01-.287.367z"/><path fill="#e3e5e5" d="M16.054 22.238c.129.408.489.629.75.928l.313-.098a1.01 1.01 0 01.11-1.51c.333-.333.723-.596 1.085-.894a2.3 2.3 0 00.86-2.345c-.01-.047-.074-.108-.003-.144.022-.011.083.04.118.072a1.77 1.77 0 01.443.647c.02.046.013.138.086.125.062-.012.051-.096.06-.153a5.253 5.253 0 00-.074-1.863 1.165 1.165 0 01-.216-.697 2.574 2.574 0 01-.352-1.362 3.927 3.927 0 00-1.913-3.07c-.167-.098-.142-.149-.03-.27a1.178 1.178 0 00.306-.89c-.002-.044.025-.106-.037-.123-.018-.004-.054.044-.076.073a2.27 2.27 0 01-1.484.79v10.69a.08.08 0 01.054.094z"/><path fill="#4eafa3" d="M19.802 17.003a5.253 5.253 0 01.074 1.863c-.009.057.002.14-.06.153-.073.013-.066-.08-.086-.125a1.77 1.77 0 00-.443-.647c-.035-.031-.096-.083-.118-.072-.07.036-.006.097.002.144a2.3 2.3 0 01-.86 2.345c-.36.298-.751.56-1.084.894a1.01 1.01 0 00-.11 1.51 2.746 2.746 0 00.618-.247c.073-.039.138-.076.197.016.117-.333.48-.408.69-.649.085-.098.086.057.103.1a2.155 2.155 0 01.08.634c.064.776.178 1.547.201 2.328.01.31.065.62.047.933l-.006.395a2.166 2.166 0 01-.033.555c.367.336.741.666 1.1 1.013.134.13.224.151.352.002a3.865 3.865 0 01.344-.318c.01-.196.005-.393.03-.586.147-1.114.302-2.227.352-3.35a24.815 24.815 0 00-.378-6.711 1.096 1.096 0 00-1.012-.18z"/><path fill="#9fccd3" d="M19.777 28.63c-.257-.194-.516-.384-.774-.576-.145.112.005.302-.112.421l-.137 1.176c-.009.076-.012.158-.11.18a.517.517 0 01.028.421.88.88 0 00.213.892c.158.143.336.263.505.393.007-.144-.018-.293.105-.412.803-.779.423-.784 1.626-.775a.502.502 0 00.058-.006q-.15-.88-.302-1.758c-.533.474-.533.473-1.1.044z"/><path fill="#45a396" d="M18.806 22.922a2.155 2.155 0 00-.08-.633c-.018-.044-.02-.2-.105-.1-.209.24-.572.314-.689.648.091.96.274 1.911.317 2.877l.804.469c.018-.313-.038-.623-.047-.933-.023-.78-.137-1.552-.2-2.328z"/><path fill="#93c2ca" d="M18.235 26.177c-.184.793-.403 1.578-.52 2.384a.696.696 0 00.052.553.696.696 0 00.39-.363.842.842 0 01.581-.408c.14-.039.143.041.153.132.117-.119-.033-.309.112-.42-.106-.31.036-.615.01-.922a2.163 2.163 0 00.034-.555 8.975 8.975 0 00-.812-.401z"/><path fill="#2b3332" d="M18.738 28.343a.842.842 0 00-.581.408.696.696 0 01-.39.363 5.298 5.298 0 00.877.717c.098-.022.101-.104.11-.18q.07-.588.137-1.176c-.01-.09-.013-.171-.153-.132zm-.503-2.166a8.975 8.975 0 01.812.401l.006-.395-.804-.47z"/><path fill="#373f3f" d="M20.466 28.148c-.128.15-.218.128-.352-.002-.358-.347-.733-.677-1.1-1.013.025.307-.117.613-.011.921.258.192.517.382.774.576.567.429.567.43 1.1-.044l-.067-.756a3.865 3.865 0 00-.343.318z"/><path fill="#505957" d="M17.742 6.227a.412.412 0 01-.517.145c-.214-.089-.215-.236-.186-.45a3.281 3.281 0 01.55-1.385 2.948 2.948 0 00-1.22-.367A2.254 2.254 0 0016 4.14v4.865l.113-.063c.32-.157.482-.476.726-.71.343-.158.346-.541.532-.804a.117.117 0 01.021-.019l.262-.526.04-.07-.003.002.023-.103.065-.177a2.664 2.664 0 00.156-.597c-.064.097-.12.2-.193.29z"/><path fill="#fae09f" d="M18.042 4.296c-.096.002-.192-.001-.288-.002-.071.07-.05.202-.165.243a3.281 3.281 0 00-.55 1.385c-.029.214-.028.361.186.45a.412.412 0 00.517-.145c.072-.09.13-.192.193-.289a3.021 3.021 0 00.422-1.342c.017-.228-.108-.306-.315-.3z"/><path fill="#f7d684" d="M17.771 4.121l-.017.173c.096 0 .192.004.288.002.207-.006.332.072.315.3a.44.44 0 00.03-.31c-.156-.239-.4-.15-.616-.165zM19.17.936a1.78 1.78 0 00.47.295l.051-.06a.648.648 0 00-.453-.285z"/><path fill="#434c4b" d="M18.486 9.52a1.018 1.018 0 00-.604.934c.05.144.148.121.223.047a1.9 1.9 0 00.474-.886c.016-.06.003-.122-.093-.095zm.133 1.076a.474.474 0 00-.319.352c-.02.067.016.113.11.11a.514.514 0 00.286-.368c.013-.055-.023-.11-.077-.094z"/><path fill="#4eafa3" d="M16.054 22.238a.08.08 0 00-.054-.094v1.083a3.996 3.996 0 00.805-.06c-.262-.3-.622-.521-.751-.929z"/><path fill="#ddb481" d="M17.468 8.117l-.001.001-.001.002.002-.003z"/><path fill="#e1e1dc" d="M17.691 6.815h.003l.001-.001-.004.001z"/><path fill="#e3e5e5" d="M17.765 7.298v-.475a.103.103 0 00-.05-.111l-.024.103h.003l-.04.069-.262.525a.788.788 0 01.074.71 1.014 1.014 0 00.3-.821z"/><path fill="#ced2cf" d="M17.695 6.814l-.04.07z"/><path fill="#65999b" d="M16 9.129v.58l.064-.055c.176-.076.366-.181.328-.39-.036-.194-.239-.146-.392-.135z"/><path fill="#a5d1d8" d="M17.821 7.295l-.01-.463a.38.38 0 00-.032-.297l-.065.177a.103.103 0 01.051.11v.476a1.014 1.014 0 01-.299.822l.002-.003-.06.061.002-.002-.059.061a.132.132 0 01-.118.062l-.06-.005c-.06 0-.117.002-.175.004l-.159-.066c-.244.235-.406.553-.726.71L16 9.005v.123c.153-.01.356-.058.392.136.038.209-.152.314-.328.39L16 9.71v1.004a2.109 2.109 0 001.743-1.472 4.24 4.24 0 00.078-1.946z"/><path fill="#f0c877" d="M17.392 7.41a.128.128 0 00-.021.018c-.186.263-.189.646-.532.804l.159.066.174-.004.06.005a.132.132 0 00.12-.062l.058-.061-.002.002.059-.06a.79.79 0 00-.075-.709z"/><path fill="#e1d9ca" d="M17.408 8.178l.06-.061z"/><path fill="#fae09f" d="M10.073 14.635c.052.01.142.008.158-.02.032-.056-.045-.096-.076-.143a5.587 5.587 0 01-.744-1.741c-.013-.05-.07-.113-.007-.154.025-.015.09.026.132.048a5.764 5.764 0 012.2 2.016c.071.113.108.254.24.322q.22.671.438 1.343a1.165 1.165 0 01-.216.697 1.097 1.097 0 00-1.012.18 10.686 10.686 0 01-1.535-.386c-.077-.025-.206-.01-.212-.119-.004-.088.106-.133.176-.183a3.21 3.21 0 01.67-.363c.134-.054.136-.093.008-.155a3.524 3.524 0 01-.728-.439c-.307-.255-.61-.514-.916-.772v-.059a4.408 4.408 0 011.424-.072z"/><path fill="#434c4b" d="M10.083 30.682a.89.89 0 01.738-.338.502.502 0 00.058.006c1.203-.009.823-.004 1.626.775.123.119.098.268.105.412-.14.179-.376.257-.49.463H9.826c-.373-.628-.373-.628.12-1.167l.137-.15z"/><path fill="#fdebbb" d="M12.83.936a.92.92 0 01.418.66 2.704 2.704 0 00.158.76 1.483 1.483 0 00-.647.355c-.068-.083-.044-.184-.056-.278a1.803 1.803 0 00-.354-1.19l.011-.012a1.773 1.773 0 00.47-.295zm1.258 2.031a2.505 2.505 0 01.132.8l-.044.001a.88.88 0 00-.594.12c-.112-.308-.386-.475-.597-.697a1.72 1.72 0 01.844-.488.461.461 0 01.259.264zM12.762.886a.648.648 0 00-.453.286l-.014.007C11.876.892 11.825.366 11.53 0a.695.695 0 01.392.18 4.114 4.114 0 00.841.706z"/><path fill="#fdebbb" d="M13.725 2.638a.984.984 0 00-.793.497.39.39 0 01-.15-.256 1.235 1.235 0 01.705-.41c.08.056.16.112.238.169zm.287 1.246c.083.002.158-.009.164-.116l.044-.001.009.354c-.217.014-.46-.074-.617.165l-.053-.079.039-.208a1.035 1.035 0 01.414-.115z"/><path fill="#fae09f" d="M13.725 2.638l.104.065a1.72 1.72 0 00-.844.488l-.053-.056a.984.984 0 01.793-.497zm-.238-.17a1.235 1.235 0 00-.706.411l-.022-.168a1.483 1.483 0 01.647-.355zm.525 1.416a1.035 1.035 0 00-.414.115l-.016-.112a.88.88 0 01.594-.119c-.006.107-.08.118-.164.116zM12.36 1.231l-.01.012-.055-.064.014-.007z"/><path fill="#67bfb5" d="M11.976 14.962l.438 1.344a2.574 2.574 0 00.352-1.362 3.927 3.927 0 011.913-3.07c.167-.098.142-.149.03-.27a1.178 1.178 0 01-.306-.89c.002-.044-.025-.106.037-.123.018-.004.054.044.076.073a2.27 2.27 0 001.484.79v-.741a2.109 2.109 0 01-1.743-1.472 4.24 4.24 0 01-.078-1.946l.01-.463a.38.38 0 01.032-.297 2.668 2.668 0 01-.156-.597 3.021 3.021 0 01-.422-1.342.44.44 0 01-.03-.31l-.054-.078a2.59 2.59 0 00-.97-.608.105.105 0 01-.026.043l-.013.008.013-.008a.104.104 0 00.026-.043l-.058-.017c-.012-.025-.037-.042-.045-.008-.005.02.031.05.049.074a3.961 3.961 0 01.694 2.12 20.479 20.479 0 01-1.253 9.193zm1.919-4.461a1.9 1.9 0 01-.474-.886c-.016-.06-.003-.122.093-.095a1.018 1.018 0 01.604.934c-.05.144-.148.121-.223.047zm-.59.19c-.014-.056.022-.11.076-.095a.474.474 0 01.319.352c.02.067-.016.113-.11.11a.514.514 0 01-.286-.368z"/><path fill="#edeeee" d="M15.946 22.238c-.129.408-.489.629-.75.928l-.313-.098a1.01 1.01 0 00-.11-1.51c-.333-.333-.723-.596-1.085-.894a2.3 2.3 0 01-.86-2.345c.01-.047.074-.108.003-.144-.022-.011-.083.04-.118.072a1.77 1.77 0 00-.443.647c-.02.046-.013.138-.086.125-.062-.012-.051-.096-.06-.153a5.253 5.253 0 01.074-1.863 1.165 1.165 0 00.216-.697 2.574 2.574 0 00.352-1.362 3.927 3.927 0 011.913-3.07c.167-.098.142-.149.03-.27a1.178 1.178 0 01-.306-.89c.002-.044-.025-.106.037-.123.018-.004.054.044.076.073a2.27 2.27 0 001.484.79v10.69a.08.08 0 00-.054.094z"/><path fill="#58b7ae" d="M12.198 17.003a5.253 5.253 0 00-.074 1.863c.009.057-.002.14.06.153.073.013.066-.08.086-.125a1.77 1.77 0 01.443-.647c.035-.031.096-.083.118-.072.07.036.006.097-.002.144a2.3 2.3 0 00.86 2.345c.36.298.751.56 1.084.894a1.01 1.01 0 01.11 1.51 2.746 2.746 0 01-.618-.247c-.073-.039-.138-.076-.197.016-.117-.333-.48-.408-.69-.649-.085-.098-.086.057-.103.1a2.155 2.155 0 00-.08.634c-.064.776-.178 1.547-.201 2.328-.01.31-.065.62-.047.933l.006.395a2.166 2.166 0 00.033.555c-.367.336-.741.666-1.1 1.013-.134.13-.224.151-.352.002a3.865 3.865 0 00-.344-.318c-.01-.196-.005-.393-.03-.586-.147-1.114-.302-2.227-.352-3.35a24.815 24.815 0 01.378-6.711 1.096 1.096 0 011.012-.18z"/><path fill="#a5d1d8" d="M12.223 28.63c.257-.194.516-.384.774-.576.145.112-.005.302.112.421l.137 1.176c.009.076.012.158.11.18a.517.517 0 00-.028.421.88.88 0 01-.213.892c-.158.143-.336.263-.505.393-.007-.144.018-.293-.105-.412-.803-.779-.423-.784-1.626-.775a.502.502 0 01-.058-.006q.15-.88.302-1.758c.533.474.533.473 1.1.044z"/><path fill="#4eafa3" d="M13.194 22.922a2.155 2.155 0 01.08-.633c.018-.044.02-.2.105-.1.209.24.572.314.689.648-.091.96-.274 1.911-.317 2.877l-.804.469c-.018-.313.038-.623.047-.933.023-.78.137-1.552.2-2.328z"/><path fill="#99c7ce" d="M13.765 26.177c.184.793.403 1.578.52 2.384a.696.696 0 01-.052.553.696.696 0 01-.39-.363.842.842 0 00-.581-.408c-.14-.039-.143.041-.153.132-.117-.119.033-.309-.112-.42.106-.31-.037-.615-.01-.922a2.163 2.163 0 01-.034-.555 8.975 8.975 0 01.812-.401z"/><path fill="#373f3f" d="M13.262 28.343a.842.842 0 01.582.408.696.696 0 00.389.363 5.298 5.298 0 01-.877.717c-.098-.022-.101-.104-.11-.18q-.07-.588-.137-1.176c.01-.09.013-.171.153-.132zm.503-2.166a8.975 8.975 0 00-.812.401l-.006-.395.804-.47z"/><path fill="#434c4b" d="M11.534 28.148c.128.15.218.128.352-.002.358-.347.733-.677 1.1-1.013-.025.307.117.613.011.921-.258.192-.517.382-.774.576-.567.429-.567.43-1.1-.044l.067-.756a3.865 3.865 0 01.344.318z"/><path fill="#5c6664" d="M14.258 6.227a.412.412 0 00.517.145c.214-.089.215-.236.186-.45a3.281 3.281 0 00-.55-1.385 2.948 2.948 0 011.22-.367A2.254 2.254 0 0116 4.14v4.865l-.113-.063c-.32-.157-.482-.476-.726-.71-.343-.158-.346-.541-.532-.804a.117.117 0 00-.021-.019l-.262-.526-.04-.07.003.002-.023-.103-.065-.177a2.664 2.664 0 01-.156-.597c.064.097.12.2.193.29z"/><path fill="#fdebbb" d="M13.958 4.296c.096.002.192-.001.288-.002.07.07.05.202.165.243a3.281 3.281 0 01.55 1.385c.029.214.028.361-.186.45a.412.412 0 01-.517-.145c-.072-.09-.13-.192-.193-.289a3.021 3.021 0 01-.422-1.342c-.017-.228.108-.306.315-.3z"/><path fill="#fae09f" d="M14.229 4.121l.017.173c-.096 0-.192.004-.288.002-.207-.006-.332.072-.315.3a.44.44 0 01-.03-.31c.156-.239.4-.15.616-.165zM12.83.936a1.78 1.78 0 01-.47.295l-.051-.059a.648.648 0 01.453-.286z"/><path fill="#505957" d="M13.514 9.52a1.018 1.018 0 01.604.934c-.05.144-.148.121-.223.047a1.9 1.9 0 01-.474-.886c-.016-.06-.003-.122.093-.095zm-.133 1.076a.474.474 0 01.319.352c.02.067-.016.113-.11.11a.514.514 0 01-.286-.368c-.013-.055.023-.11.077-.094z"/><path fill="#58b7ae" d="M15.946 22.238a.08.08 0 01.054-.094v1.083a3.996 3.996 0 01-.805-.06c.262-.3.622-.521.751-.929z"/><path fill="#ddb481" d="M14.532 8.117l.001.001.001.002-.002-.003z"/><path fill="#e1e1dc" d="M14.309 6.815h-.003l-.001-.001.004.001z"/><path fill="#edeeee" d="M14.235 7.298v-.475a.103.103 0 01.05-.111l.024.103h-.003l.04.069.262.525a.788.788 0 00-.074.71 1.014 1.014 0 01-.3-.821z"/><path fill="#ced2cf" d="M14.305 6.814l.04.07z"/><path fill="#6ba0a5" d="M16 9.129v.58l-.064-.055c-.176-.076-.366-.181-.328-.39.036-.194.239-.146.392-.135z"/><path fill="#acd7dd" d="M14.179 7.295l.01-.463a.38.38 0 01.032-.297l.065.177a.103.103 0 00-.051.11v.476a1.014 1.014 0 00.299.822l-.002-.003.06.061-.002-.002.059.061a.132.132 0 00.118.062l.06-.005c.06 0 .117.002.175.004l.159-.066c.244.235.406.553.726.71l.113.063v.123c-.153-.01-.356-.058-.392.136-.038.209.152.314.328.39L16 9.71v1.004a2.109 2.109 0 01-1.743-1.472 4.24 4.24 0 01-.078-1.946z"/><path fill="#f7d684" d="M14.608 7.41a.128.128 0 01.021.018c.186.263.189.646.532.804l-.159.066-.174-.004-.06.005a.132.132 0 01-.12-.062l-.058-.061.002.002-.059-.06a.79.79 0 01.075-.709z"/><path fill="#e1d9ca" d="M14.592 8.178l-.06-.061z"/></svg>