<svg xmlns="http://www.w3.org/2000/svg" width="100%" height="100%" viewBox="-2.72 -2.72 37.44 37.44"><path fill="#f2f0a2" d="M31.294 28.04a.16.16 0 00.052-.005l-.078.083z"/><path fill="#d6c8b2" d="M10.318 17.448l-.247-.375a5.717 5.717 0 01-.29-4.46c.03-.103.129-.228-.08-.283a5.552 5.552 0 01-3.679-3.242 11.09 11.09 0 01-.797-4.435c.033-.782.278-1.39 1.289-1.209.624.112 1.265.124 1.9.181a7.313 7.313 0 013.726 2.3c1.112 1.255 1.483 2.848 2.114 4.325a1.45 1.45 0 00.114.186c.04-.068.087-.132.121-.203.075-.156.144-.316.215-.475.082.16.17.319.243.483.274.61.542 1.222.812 1.833l-.008.017.002.571-.004.573c0 .877-.008 1.753.002 2.63.01.727.041 1.454.063 2.18l-.066.056a3.951 3.951 0 00-1.717.797.991.991 0 01-.986.167 6.926 6.926 0 01-2.278-1.171zM6.928 7.32a3.828 3.828 0 001.962 3.42.827.827 0 00.176.062.382.382 0 00-.021-.103c-.297-.569.027-.642.485-.61l.276.02c-.044-.093-.095-.183-.131-.279-.165-.425-.666-1.106-.246-1.257.757-.271.387-.746.486-1.137.048-.192.127-.386.332-.43 1.02-.218.055-.486-.026-.54a5.588 5.588 0 00-1.184-.613c-1.624-.582-2.106-.237-2.11 1.467zm4.554 6.563c.08.63-.061 1.252.482 1.512a1.36 1.36 0 001.389-.146c.518-.398.229-.963.166-1.464a2.468 2.468 0 00-.178-.629c-.134-.322-.255-.698-.685-.713a.977.977 0 00-.977.658 4.846 4.846 0 00-.197.782z"/><path fill="#edeeee" d="M10.318 17.448l.449.446a2.685 2.685 0 00-.726 1.302 4.99 4.99 0 00-2.547 2.572c-.293.859.167 1.37 1.058 1.22a4.652 4.652 0 001.534-.657l.013.065-.237.975a11.121 11.121 0 00-7.786 2.011 2.897 2.897 0 00-1.373 2.612.154.154 0 01-.052-.005c-1.534-3.151-.433-6.238 2.975-8.298a17.94 17.94 0 016.692-2.243z"/><path fill="#d6c8b2" d="M9.862 23.371l.237-.975.026-.09-.04.025a4.652 4.652 0 01-1.533.657c-.891.15-1.351-.361-1.058-1.22a4.99 4.99 0 012.547-2.572c-.14 2.16.297 3.026 1.868 3.634a8.763 8.763 0 003.842.465l-.005.022v4.954l.006.019a8.727 8.727 0 01-2.277-.352c-.2-.066-.205.033-.187.17.158 1.16-.324 1.632-1.491 1.44-.362-.06-.742.006-1.112-.017a.602.602 0 01-.651-.553.515.515 0 01.538-.578c1.023-.086.578-.871.35-1.09a4.296 4.296 0 01-1.06-3.939z"/><path fill="#f7f7f7" d="M15.759 12.074c-.27-.611-.538-1.223-.812-1.833-.073-.164-.161-.322-.243-.483-.071.159-.14.319-.215.475-.034.071-.08.135-.121.203a1.45 1.45 0 01-.114-.186c-.631-1.477-1.002-3.07-2.114-4.324a7.313 7.313 0 00-3.727-2.3 3.89 3.89 0 016.144.655 9.258 9.258 0 011.146 2.72l.073.348zM6.022 9.088a5.552 5.552 0 003.68 3.242c.208.055.109.18.08.283a5.717 5.717 0 00.289 4.46c-1.963-.244-3.37-1.833-3.867-4.385a11.294 11.294 0 01-.182-3.6z"/><path fill="#f4f39f" d="M.651 27.99a.154.154 0 00.052.004l.026.08z"/><path fill="#ebeceb" d="M20.16 18.387l.11-.069.062-.045.109-.07.062-.046-.006.004.064-.06.701-.696a20.458 20.458 0 016.5 2.05 7.473 7.473 0 014.116 4.942l.05.74v.338l-.051.796-.63 1.776a.16.16 0 01-.052.005 3.093 3.093 0 00-1.62-2.801 11.176 11.176 0 00-7.011-1.851l-.017-.516A43.213 43.213 0 0020.32 18.6l-.283-.113.06-.054z"/><path fill="#f6f5f5" d="M21.472 17.078a5.552 5.552 0 00.316-4.395c-.065-.23-.046-.322.202-.397a5.382 5.382 0 003.41-2.953c.028-.058.064-.112.097-.168l.079.175c.056 2.316-.076 4.59-1.673 6.47a3.872 3.872 0 01-2.43 1.268zM22.98 3.466c-2.658-2.187-6.114-.772-6.898 2.824l-.055.176-.044.134a.037.037 0 00-.009.049l-.062.235-.136.465-.017 4.725-.008.017a.22.22 0 01.052-.015c.302-.708.603-1.416.908-2.122a2.916 2.916 0 01.166-.29c.043.101.09.201.13.303.059.146.114.294.17.44.08-.144.163-.287.239-.433a1.385 1.385 0 00.098-.238c.883-2.951 2.436-5.286 5.627-6.112-.054-.053-.104-.11-.161-.158z"/><path fill="#c5b7a3" d="M15.745 28.271l.001-4.954a8.851 8.851 0 002.615-.651 3.044 3.044 0 013.281.43l.002.207.037.061.02.108a4.207 4.207 0 01-1.062 3.83c-.23.22-.682.998.336 1.096.312.03.574.195.547.573a.578.578 0 01-.617.555 12.29 12.29 0 01-2.112-.01c-.757-.105-.45-.807-.507-1.264-.037-.3-.057-.365-.37-.269a7.049 7.049 0 01-2.17.288z"/><path fill="#edeeee" d="M21.642 23.095a3.044 3.044 0 00-3.281-.43 8.851 8.851 0 01-2.615.652l.005-.022-.003-5.194.066-.055a6.586 6.586 0 014.224.44l.283.114a5.44 5.44 0 012.226 4.284l.017.516c-.04.538-.077 1.076-.118 1.613a.787.787 0 01-.043.152c-.006-.057-.014-.113-.018-.17a2.95 2.95 0 00-.46-1.554z"/><path fill="#dadddc" d="M21.642 23.095l.283.346-.223.031-.021-.108-.037-.061z"/><path fill="#f7f7f7" d="M15.748 18.101l.003 5.194a8.763 8.763 0 01-3.842-.465c-1.57-.608-2.008-1.474-1.868-3.634a2.685 2.685 0 01.726-1.302 6.925 6.925 0 002.278 1.171.991.991 0 00.986-.167 3.951 3.951 0 011.717-.797z"/><path fill="#c27bc6" d="M6.927 7.321c.004-1.704.486-2.049 2.11-1.467a5.588 5.588 0 011.184.614c.081.053 1.046.32.026.539-.205.044-.284.238-.332.43-.099.39.271.866-.486 1.137-.42.15.081.832.246 1.257.036.096.087.186.131.279l-.276-.02c-.458-.032-.782.041-.485.61a.382.382 0 01.02.103.827.827 0 01-.175-.062 3.828 3.828 0 01-1.963-3.42z"/><path fill="#747b5e" d="M11.482 13.884a4.846 4.846 0 01.197-.782.977.977 0 01.977-.658c.43.015.55.39.685.713a2.468 2.468 0 01.178.63c.063.5.352 1.065-.166 1.463a1.36 1.36 0 01-1.39.146c-.542-.26-.402-.882-.481-1.512zm1.702-.444c-.057-.266-.09-.595-.435-.612-.329-.017-.365.293-.371.54-.007.271.07.546.402.553.281.006.362-.232.404-.481z"/><path fill="#f6f5f5" d="M25.575 9.34a5.048 5.048 0 01.13-.716l-.209.541z"/><path fill="#cdbfaa" d="M26.324 4.563c-.037-.603-.205-1.196-1.003-1.149-.729.044-1.454.138-2.18.21-3.191.826-4.744 3.16-5.627 6.112a1.387 1.387 0 01-.098.238c-.076.146-.159.29-.239.434-.056-.147-.111-.295-.17-.44-.041-.103-.087-.203-.13-.304a2.923 2.923 0 00-.166.29c-.305.706-.606 1.414-.908 2.122a.22.22 0 00-.052.015l.002.571-.004.573c0 .877-.008 1.753.003 2.63.008.727.04 1.454.062 2.18a6.586 6.586 0 014.224.442l.06-.054.062-.046.11-.069.062-.046.109-.068.062-.047-.006.004.064-.06.701-.696.21-.327a5.552 5.552 0 00.316-4.395c-.065-.23-.046-.322.202-.397a5.382 5.382 0 003.41-2.953c.028-.058.064-.112.097-.168l.209-.54a10.82 10.82 0 00.619-4.062zm-7.841 10.834a.66.66 0 01-.553-.727 6.908 6.908 0 01.225-1.315c.128-.432.248-.982.877-.9.67.087.93.591 1.006 1.21a3.08 3.08 0 01.003.37c-.003 1.357-.386 1.692-1.558 1.362zm4.176-4.651a1.077 1.077 0 01-.155.067c0-.032-.014-.07-.001-.095.325-.621-.056-.656-.516-.627-.08.005-.16.006-.24.009.038-.075.08-.149.113-.226.13-.316.272-.627.38-.95.077-.227-.018-.503-.242-.494-.625.025-.353-.364-.341-.636.022-.476-.097-.835-.662-.855a.868.868 0 01-.154-.033.668.668 0 01.093-.134 3.852 3.852 0 012.902-1.123c1.08.098.618 1.07.796 1.59a3.885 3.885 0 01-1.973 3.507z"/><path fill="#969b3d" d="M10.086 22.33l.04-.024-.027.09z"/><path fill="#ac72a6" d="M24.632 7.24a3.885 3.885 0 01-1.973 3.506 1.077 1.077 0 01-.155.067c0-.032-.014-.07-.001-.096.325-.62-.056-.655-.517-.626-.079.005-.159.006-.238.009.037-.075.08-.149.112-.226.13-.316.272-.627.38-.95.077-.227-.018-.503-.242-.494-.625.025-.353-.364-.341-.636.022-.476-.097-.835-.662-.855a.873.873 0 01-.154-.033.664.664 0 01.092-.134 3.852 3.852 0 012.903-1.123c1.08.098.618 1.07.796 1.59z"/><path fill="#71785b" d="M20.04 14.036c-.002 1.356-.385 1.69-1.557 1.36a.66.66 0 01-.553-.726 6.903 6.903 0 01.225-1.315c.128-.432.248-.982.877-.9.67.087.931.591 1.006 1.21a3.083 3.083 0 01.003.37zm-.85-.658c-.046-.238-.044-.556-.37-.55-.347.006-.422.327-.434.607-.012.257.108.495.404.485.317-.01.365-.283.4-.542z"/><path fill="#c5b7a3" d="M22.547 22.884A5.44 5.44 0 0020.32 18.6c2.5.724 3.968 2.79 3.782 3.85a.939.939 0 01-1.556.434z"/><path fill="#293045" d="M21.644 23.303l.037.061z"/><path fill="#fff" d="M13.184 13.44c-.042.249-.123.487-.404.48-.333-.006-.41-.28-.402-.551.006-.248.042-.558.37-.541.346.017.38.346.436.612zm6.006-.062c-.035.26-.083.532-.4.542-.296.01-.416-.228-.404-.485.012-.28.087-.6.433-.607.327-.006.325.312.37.55z"/></svg>