<svg xmlns="http://www.w3.org/2000/svg" width="100%" height="100%" viewBox="-2.72 -2.72 37.44 37.44"><path fill="#FFD04D" d="M29.686 13.552c-1.276-1.22-3.177-2.327-5.892-2.513-.01-.617.027-1.237.119-1.852a8.22 8.22 0 00-.081-2.849c-.625-3.095-3.129-5.58-6.229-6.181A8.256 8.256 0 0016 .011v29.973c5.521-.002 10-4.463 10-9.985a9.928 9.928 0 00-.632-3.483 4.839 4.839 0 012.398 2.78l.12.361a.5.5 0 00.474.343h.14a.5.5 0 00.5-.5v-1l.386 1.158a.5.5 0 00.474.342H30a.5.5 0 00.5-.5v-1l.386 1.158a.5.5 0 00.474.342h.14a.5.5 0 00.5-.5v-.277c0-2.121-.781-4.207-2.314-5.671zM24 30h1.5a1.5 1.5 0 011.5 1.5.5.5 0 01-.5.5h-6a.5.5 0 01-.5-.5V30h4z"/><path fill="#FFD96C" d="M14.397.156c-3.1.602-5.604 3.086-6.229 6.181a8.22 8.22 0 00-.08 2.849c.092.615.128 1.235.119 1.852-2.715.186-4.616 1.294-5.892 2.513C.781 15.016 0 17.102 0 19.223v.277a.5.5 0 00.5.5h.14a.5.5 0 00.474-.342L1.5 18.5v1a.5.5 0 00.5.5h.14a.5.5 0 00.474-.342L3 18.5v1a.5.5 0 00.5.5h.14a.5.5 0 00.474-.342l.12-.361a4.839 4.839 0 012.398-2.78A9.928 9.928 0 006 20c0 5.522 4.479 9.983 10 9.985V.011c-.525 0-1.059.039-1.603.145zM8 30H6.5A1.5 1.5 0 005 31.5a.5.5 0 00.5.5h6a.5.5 0 00.5-.5V30H8z"/><path fill="#FFE28A" d="M15.763.016a8.098 8.098 0 00-.514.023 8.808 8.808 0 00-.853.116c-1.282.249-2.451.833-3.438 1.636l-3.052-.61a.5.5 0 00-.562.676l1.248 3.121a7.697 7.697 0 00-.425 1.36 8.219 8.219 0 00-.097 2.698c.72.814 1.811 1.574 2.782 2.009 1.584.71 2.677.201 2.893 1.923l.145 1.156a1 1 0 00.992.876h1.117V.011c-.079 0-.158.003-.236.005z"/><path fill="#FFD96C" d="M24.095 1.181l-3.054.611C20.054.989 18.885.405 17.603.156a8.513 8.513 0 00-.853-.117 8.098 8.098 0 00-.514-.023C16.157.014 16.078.011 16 .011V15h1.117a1 1 0 00.992-.876l.145-1.156c.215-1.722 1.309-1.214 2.893-1.923.97-.435 2.062-1.195 2.782-2.009a8.252 8.252 0 00-.096-2.699 7.617 7.617 0 00-.424-1.358l1.249-3.122a.5.5 0 00-.563-.676z"/><path fill="#FFF" d="M12.682 7.85l-2.416-.647c-.148-.04-.232-.205-.165-.342a1.527 1.527 0 012.895.776c-.011.152-.166.253-.314.213z"/><path fill="#373F3F" d="M12.18 7.384V6.176a1.482 1.482 0 00-.311-.123c-.066-.018-.132-.023-.197-.032v1.364c0 .115.077.215.188.245h.001a.254.254 0 00.319-.246z"/><path fill="#F7F7F7" d="M19.318 7.85l2.416-.647c.148-.04.232-.205.165-.342a1.527 1.527 0 00-2.895.776c.011.152.166.253.314.213z"/><path fill="#2B3332" d="M19.82 7.384V6.176c.097-.051.201-.094.311-.123.066-.018.132-.023.197-.032v1.364a.254.254 0 01-.188.245h-.001a.254.254 0 01-.319-.246z"/><path fill="#604631" d="M8.878 4.348a8.002 8.002 0 011.197-1.718l-1.597-.323a.25.25 0 00-.282.338l.682 1.703z"/><path fill="#4F4032" d="M23.123 4.353l.684-1.708a.25.25 0 00-.282-.338l-1.6.324c.471.52.877 1.094 1.198 1.722zM20 30h4s3 0 3-5c0-1.766-.502-2.774-1.148-3.351.038-.23.077-.46.099-.695C25.467 20.47 24.969 20 24 20c-2 0-2 2-4 2s-2-2-4-2v9.985a9.973 9.973 0 004-.842V30z"/><path fill="#604631" d="M12 22c-2 0-2-2-4-2-.969 0-1.467.47-1.952.954.022.235.061.465.099.695C5.502 22.226 5 23.234 5 25c0 4.299 2.213 4.9 2.835 4.985H12v-.842a9.956 9.956 0 004 .842V20c-2 0-2 2-4 2z"/></svg>