<svg xmlns="http://www.w3.org/2000/svg" width="100%" height="100%" viewBox="-2.72 -2.72 37.44 37.44"><path fill="#E65F5A" d="M16 26h-2v4.595a.25.25 0 00.362.224L16 30v-4z"/><path fill="#DD564C" d="M16 30l1.638.819a.25.25 0 00.362-.224V26h-2v4z"/><path fill="#866EBA" d="M26 14c0-5.898-5.106-10.604-11.139-9.937-4.658.515-8.409 4.361-8.821 9.029a10.005 10.005 0 006.078 10.126C13.247 23.694 14 24.775 14 26h4v-.002c0-1.215.737-2.301 1.858-2.771A10 10 0 0026 14z"/><path fill="#C6B7E9" d="M16 18a3 3 0 00-3 3c0 .635-.145 1.663-.101 2.691A2.99 2.99 0 0114 26h4v-.002c0-.915.418-1.755 1.102-2.316C19.144 22.658 19 21.633 19 21a3 3 0 00-3-3z"/><path fill="#9179C6" d="M14.861 4.063c-4.658.515-8.409 4.361-8.821 9.029a10.005 10.005 0 006.078 10.126C13.247 23.694 14 24.775 14 26c0-4-2-7-2-12s2.861-9.937 2.861-9.937z"/><path fill="#7A63AD" d="M17.139 4.063c4.658.515 8.409 4.361 8.821 9.029a10.005 10.005 0 01-6.078 10.126C18.753 23.694 18 24.775 18 26c0-4 2-7 2-12s-2.861-9.937-2.861-9.937z"/><path fill="#FFD96C" d="M16 12.375l-1.228-1.228a.5.5 0 00-.707 0l-.875.875a.5.5 0 000 .707l1.228 1.228-1.228 1.228a.5.5 0 000 .707l.875.875a.5.5 0 00.707 0L16 15.539v-3.164z"/><path fill="#FFD04D" d="M17.228 16.767a.5.5 0 00.707 0l.875-.875a.5.5 0 000-.707l-1.228-1.228 1.228-1.228a.5.5 0 000-.707l-.875-.875a.5.5 0 00-.707 0L16 12.375v3.164l1.228 1.228z"/><path fill="#EDEEEE" d="M16 1.009a2.25 2.25 0 014.125 1.241c0 .013-.004.025-.004.037a2.247 2.247 0 01-.371 4.463c-.586 0-1.115-.23-1.515-.597A2.244 2.244 0 0116 8.25V1.009z"/><path fill="#F7F7F7" d="M13.765 6.153c-.4.367-.929.597-1.515.597A2.25 2.25 0 0110 4.5c0-.688.311-1.299.797-1.71a3.417 3.417 0 01-.739-1.547c-.033-.167.164-.282.298-.177.585.456 1.144.594 1.601.612A2.245 2.245 0 0114.125 0c.784 0 1.472.402 1.875 1.009V8.25a2.244 2.244 0 01-2.235-2.097z"/><ellipse cx="10.25" cy="13.75" fill="#EC8179" rx=".75" ry="1.25"/><ellipse cx="21.75" cy="13.75" fill="#E9746A" rx=".75" ry="1.25"/><path fill="#D4C9EF" d="M10.109 18a2.993 2.993 0 00-2.526 1.393 10.032 10.032 0 004.535 3.825C13.247 23.694 14 24.775 14 26c0-1.952-.477-3.667-.965-5.491C12.582 18.738 11.763 18 10.109 18z"/><path fill="#B8A5E4" d="M21.891 18c1.064 0 1.993.558 2.526 1.393a10.032 10.032 0 01-4.535 3.825C18.753 23.694 18 24.775 18 26c0-1.952.477-3.667.965-5.491.453-1.771 1.272-2.509 2.926-2.509z"/><path fill="#FFD96C" d="M10 21c-6.274 3.921-8.857 6.612-9.68 7.591A.25.25 0 00.513 29H2l-.665 1.329c-.107.215.121.443.335.335L3 30v1.487c0 .212.247.33.409.193.979-.823 3.67-3.406 7.591-9.68l-1-1z"/><path fill="#FFD04D" d="M22 21c6.274 3.921 8.857 6.612 9.68 7.591a.25.25 0 01-.193.409H30l.665 1.329c.107.215-.121.443-.335.335L29 30v1.487a.25.25 0 01-.409.193c-.979-.823-3.67-3.406-7.591-9.68l1-1z"/><path fill="#D4C9EF" d="M10 21a70.272 70.272 0 00-4.959 3.377 6.016 6.016 0 002.842 2.232A71.839 71.839 0 0011 22l-1-1z"/><path fill="#B8A5E4" d="M22 21l-1 1a71.505 71.505 0 003.117 4.608 6.016 6.016 0 002.842-2.232A70.644 70.644 0 0022 21z"/><path fill="#EC8179" d="M16 26h-2l-1.712 3.995a.25.25 0 00.351.317L15 29l.763 2.288a.246.246 0 00.237.171V26z"/><path fill="#E9746A" d="M18 26h-2v5.459c.1 0 .199-.057.237-.171L17 29l2.361 1.312a.25.25 0 00.351-.317L18 26z"/></svg>