<svg xmlns="http://www.w3.org/2000/svg" width="100%" height="100%" viewBox="-2.72 -2.72 37.44 37.44"><path fill="#962931" d="M12.154 27.252l-.07-.063.93-2.75-6.222-3.375c-.224 2.645.233 4.662 1.875 6.25l-.008.007q1.731.04 3.495-.07z"/><path fill="#ce692c" d="M12.154 27.252q-1.763.106-3.495.07c-1.96 1.629-2.276 2.465-1.867 2.95.284.507 1.143.349 2.166 0a2.23 2.23 0 001.375.75 1.562 1.562 0 001.392-.833c1.327.323 2.093.324 2.366.042.699-.743-.687-1.874-1.937-2.98z"/><path fill="#9c2c30" d="M3.625 10.79c-.005-.002-.008-.007-.012-.01a14.513 14.513 0 00-.575 3.363.59.59 0 01.087.013l3.125 2.242 1.708-6.167z"/><path fill="#d6712d" d="M1.833 8.523c-.542.154-.526.87-.458 1.916A1.761 1.761 0 000 11.356c-.05.446.421.87.958 1.292-.577.98-.747 1.568-.583 1.833.223.564 1.96-.52 2.663-.338a14.513 14.513 0 01.575-3.362c-.707-.253-.742-2.425-1.78-2.258z"/><path fill="#a92f31" d="M5.729 18.104c0 5.36 6.607 8.478 10.271 8.478V1.73c-6.316 0-10.271 7.746-10.271 16.374z"/><path fill="#e0b12e" d="M14.413 17.962c0 1.61.71 2.914 1.587 2.914v-5.827c-.877 0-1.587 1.304-1.587 2.913z"/><ellipse cx="12.084" cy="17.832" fill="#e0b12e" rx="2.783" ry="1.516" transform="rotate(-84.339 12.084 17.832)"/><path fill="#dd7731" d="M12.084 6.414l.326 4.22c-.087.304 2.612 1.662 3.59 1.348V3.611c-2.754.186-3.916 2.127-3.916 2.803z"/><path fill="#dadddc" d="M15.977 11.577c-1.97 0-2.664-1.283-2.924-.574a2.589 2.589 0 002.924 2.782H16v-2.207z"/><ellipse cx="11.719" cy="8.86" fill="#f7f7f7" rx="2.372" ry="3.156"/><ellipse cx="11.725" cy="8.807" fill="#373f3f" rx=".622" ry="1.004"/><path fill="#e8ba36" d="M9.876 2.69L4.75 1.022c.843 2.54 2.147 6.25 4.125 6.25 2.1-.147 4.02-.558 4.792-2.625.342-.731 1.134-3.228-.875-3.625-1.598-.169-2.838.076-2.916 1.666z"/><path fill="#8e252d" d="M19.846 27.252l.07-.063-.93-2.75 6.222-3.375c.224 2.645-.233 4.662-1.875 6.25l.008.007q-1.731.04-3.495-.07z"/><path fill="#c95f2b" d="M19.846 27.252q1.763.106 3.495.07c1.96 1.629 2.276 2.465 1.867 2.95-.284.507-1.143.349-2.166 0a2.23 2.23 0 01-1.375.75 1.562 1.562 0 01-1.392-.833c-1.327.323-2.093.324-2.366.042-.699-.743.687-1.874 1.937-2.98z"/><path fill="#962931" d="M28.375 10.79c.005-.002.008-.007.012-.01a14.513 14.513 0 01.575 3.363.59.59 0 00-.087.013l-3.125 2.242-1.708-6.167z"/><path fill="#ce692c" d="M30.167 8.523c.542.154.526.87.458 1.916a1.761 1.761 0 011.375.917c.05.446-.421.87-.958 1.292.577.98.747 1.568.583 1.833-.223.564-1.96-.52-2.663-.338a14.513 14.513 0 00-.575-3.362c.707-.253.742-2.425 1.78-2.258z"/><path fill="#9c2c30" d="M26.271 18.104c0 5.36-6.607 8.478-10.271 8.478V1.73c6.316 0 10.271 7.746 10.271 16.374z"/><path fill="#dba728" d="M17.587 17.96c-.003 1.609-.717 2.911-1.593 2.91l.012-5.827c.877.002 1.585 1.308 1.581 2.917z"/><ellipse cx="19.917" cy="17.835" fill="#dba728" rx="1.516" ry="2.783" transform="rotate(-5.534 19.917 17.835)"/><path fill="#d6712d" d="M19.916 6.414l-.326 4.22c.087.304-2.612 1.662-3.59 1.348V3.611c2.754.186 3.916 2.127 3.916 2.803z"/><path fill="#e3e5e5" d="M16.023 11.577c1.97 0 2.664-1.283 2.924-.574a2.589 2.589 0 01-2.924 2.782H16v-2.207z"/><ellipse cx="20.281" cy="8.86" fill="#edeeee" rx="2.372" ry="3.156"/><ellipse cx="20.275" cy="8.807" fill="#2b3332" rx=".622" ry="1.004"/><path fill="#e0b12e" d="M22.124 2.69l5.126-1.667c-.843 2.54-2.147 6.25-4.125 6.25-2.1-.147-4.02-.558-4.792-2.625-.342-.731-1.134-3.228.875-3.625 1.598-.169 2.838.076 2.916 1.666z"/></svg>