<svg xmlns="http://www.w3.org/2000/svg" width="100%" height="100%" viewBox="-2.72 -2.72 37.44 37.44"><path fill="#fca15e" d="M9.093.004a12.865 12.865 0 002.083.937 3.798 3.798 0 011.604.885 4.35 4.35 0 01.801 1.266c-.299.298.067.324.185.45l.06.062a3.767 3.767 0 00.317.894l-.677.428c-.337-.627-.726-1.232-.998-1.887a2.148 2.148 0 00-1.245-1.201 16.494 16.494 0 00-1.872-.628C9.175.87 9.184.476 9.03.13c.025-.04-.062-.136.062-.126z"/><path fill="#413b3b" d="M15.394 30.759l-.116 1.244h-.189c-.599-.007-.667-.43-.696-.887-.01-.144-.038-.287-.057-.43z"/><path fill="#fff5d8" d="M15.774 18.307a3.899 3.899 0 01-1.645.677 1.278 1.278 0 01-1.074-.34 4.41 4.41 0 01-.738-.975 10.433 10.433 0 00.077 1.87 3.014 3.014 0 00.105.98c.026-.108-.058-.281.044-.312.096-.028.135.157.207.241a5.171 5.171 0 00.488.572 1.03 1.03 0 01.334.715c.149 1.274.315 2.547.435 3.825.094 1.008.216 2.014.276 3.027.031.514.034 1.026.047 1.539.002.1.037.213-.059.296a.426.426 0 00.065.263l1.058.074c.046-.52.095-1.04.135-1.56.068-.876.11-1.753.2-2.625q.182-1.792.306-3.588c.039-.569.048-.58.605-.47a1.878 1.878 0 00.275.016v-5.29a8.88 8.88 0 01-1.141 1.065z"/><path fill="#fca15e" d="M14.353 10.668a3.295 3.295 0 01-1.466-2.746 6.05 6.05 0 01.059-1.6c-.062-.097-.16-.062-.247-.07a2.957 2.957 0 00-.25 1.224 4.756 4.756 0 001.355 3.577 2.854 2.854 0 01.917 2.384.349.349 0 01-.237.35 3.036 3.036 0 00-1.083.795 4.416 4.416 0 00-1.071 2.601c.316.074.436.324.571.586a1.184 1.184 0 001.83.481 7.873 7.873 0 002.135-1.831l.05-.068V11.43a5.776 5.776 0 01-2.563-.762zM13.06 17.36c-.177-.019-.207-.16-.204-.297a.194.194 0 01.203-.201.29.29 0 01.224.293.193.193 0 01-.223.205zm.631.417a.09.09 0 01-.093-.096c0-.053.044-.065.085-.064a.082.082 0 01.077.079c-.007.04-.017.084-.069.081zm1.255-.19c-.098-.004-.224-.05-.21-.18a.244.244 0 01.284-.223.189.189 0 01.195.203.247.247 0 01-.27.2z"/><path fill="#f0c4ca" d="M9.35 1.21a16.494 16.494 0 011.873.628 2.148 2.148 0 011.245 1.201c.272.655.66 1.26.998 1.887a.76.76 0 01-.459.45 5.412 5.412 0 01-2.113-.909 1.733 1.733 0 01-.46-.469A8.77 8.77 0 019.35 1.21z"/><path fill="#ffeaa7" d="M12.5 20.519c.025-.108-.06-.281.043-.312.096-.028.135.157.207.241a5.158 5.158 0 00.488.572 1.03 1.03 0 01.334.715c.149 1.274.315 2.547.435 3.825.094 1.008.216 2.014.276 3.027.031.514.034 1.026.047 1.539.002.1.037.213-.059.296l-.006-.068c.002-.147.004-.293.004-.44 0-.747 0-.747-.755-.746-.085-.6-.175-1.198-.254-1.799q-.187-1.428-.362-2.858a78.13 78.13 0 01-.197-1.744c-.074-.748-.135-1.499-.202-2.248z"/><path fill="#f4d736" d="M16.915 17.203v.04l.005-.005a.143.143 0 01-.005-.035z"/><path fill="#fca15e" d="M13.007 5.377a.76.76 0 00.46-.45l.676-.43a1.416 1.416 0 01.442-.208 3.488 3.488 0 00-.572 1.525 2.467 2.467 0 01-.874.37c-.097.016-.134.085-.193.137-.062-.096-.16-.06-.247-.069a2.017 2.017 0 01.281-.626c.046-.084.116-.155.027-.25z"/><path fill="#413b3b" d="M13.514 29.168c.755 0 .755 0 .755.746 0 .147-.002.293-.004.44-.618-.103-.619-.103-.703-.72-.021-.154-.033-.31-.048-.466z"/><path fill="#e5dac2" d="M16.915 17.203v.001-.001z"/><path fill="#f0c4ca" d="M16.866 16.419a7.872 7.872 0 01-2.136 1.831 1.184 1.184 0 01-1.829-.48c-.135-.263-.255-.513-.571-.587a.507.507 0 00-.013.486 4.41 4.41 0 00.738.975 1.278 1.278 0 001.074.34 3.899 3.899 0 001.645-.677 8.88 8.88 0 001.141-1.064v-.04a1.599 1.599 0 010-.2v-.652z"/><path fill="#ddc436" d="M16.915 17.203v-.2a1.6 1.6 0 000 .2z"/><path fill="#f0c4ca" d="M15.665 2.433c-.04.083-.027.229-.187.198a2.547 2.547 0 00-1.897.461c-.299.298.067.324.185.45a.128.128 0 01.122.055 4.304 4.304 0 001.031.25c.04.004.078.016.117.024a.676.676 0 01-.072.09c-.125.11-.252.219-.379.328a3.488 3.488 0 00-.572 1.525c-.009.154.061.206.21.17.263-.065.528-.124.791-.185a3.57 3.57 0 001.901-1.795V1.337a2.054 2.054 0 00-1.25 1.096z"/><path fill="#f1d0bf" d="M13.888 3.597a.272.272 0 01-.061.007l-.061-.062a.128.128 0 01.122.055z"/><path fill="#fcf1d5" d="M16.922 9.859c0-.019-.006-.034-.007-.051v1.596c.002-.515 0-1.03.007-1.545zm-.007 1.56v.011h.006l-.006-.011z"/><path fill="#f0c4ca" d="M13.06 16.862a.29.29 0 01.224.293.192.192 0 01-.223.205c-.177-.019-.207-.16-.204-.297a.194.194 0 01.203-.2zm2.156.525a.247.247 0 01-.27.2c-.097-.004-.223-.05-.21-.18a.244.244 0 01.285-.223.189.189 0 01.195.203zm-1.456.309c-.006.04-.016.084-.068.081a.09.09 0 01-.093-.096c0-.053.044-.065.085-.064a.082.082 0 01.077.079z"/><path fill="#fca15e" d="M15.014 5.799c.125.076.248.156.375.228a4.164 4.164 0 001.526.415V4.004a3.571 3.571 0 01-1.9 1.795z"/><path fill="#fff5d8" d="M16.858 8.788l.057-.001V6.442a4.164 4.164 0 01-1.526-.415c-.127-.072-.25-.152-.375-.228-.264.061-.528.12-.791.184-.149.037-.219-.015-.21-.169a2.467 2.467 0 01-.874.37c-.097.016-.134.085-.193.137a6.05 6.05 0 00-.059 1.601 3.295 3.295 0 001.466 2.746 5.776 5.776 0 002.562.762V9.474l-.134.002a.696.696 0 01-.136-.067c-.156-.125-.34-.281-.276-.482.068-.212.308-.143.489-.14zm-1.945-.665a.561.561 0 01-.545.4.576.576 0 01-.573-.41 1.31 1.31 0 01.094-1.122c.025-.047.115-.09.06-.147-.046-.048-.115.011-.173.03a1.452 1.452 0 00-.385.265l-.112.128a.17.17 0 01-.025.055c-.02.049-.028.123-.102.09-.026-.012.003-.069.044-.087l.012-.06a.278.278 0 01.11-.2 1.061 1.061 0 011.392-.301.514.514 0 01.25.31 1.628 1.628 0 01-.047 1.049z"/><path fill="#413b3b" d="M14.96 7.074a.515.515 0 00-.25-.31 1.061 1.061 0 00-1.393.301.278.278 0 00-.11.2l-.011.06c-.041.018-.07.075-.044.087.074.033.083-.041.103-.09a.172.172 0 00.024-.055l.112-.128a1.449 1.449 0 01.385-.264c.058-.02.127-.08.174-.03.054.056-.036.099-.06.146a1.31 1.31 0 00-.095 1.122.576.576 0 00.573.41.561.561 0 00.545-.4 1.628 1.628 0 00.047-1.05zm-.802.395c-.16-.005-.194-.102-.198-.211-.005-.125.038-.233.179-.25.129-.014.192.07.197.188a.255.255 0 01-.178.273z"/><path fill="#efefef" d="M14.158 7.47c-.16-.006-.194-.103-.198-.212-.005-.125.038-.233.179-.25.129-.014.192.07.197.188a.255.255 0 01-.178.273z"/><path fill="#413b3b" d="M16.369 8.927c-.065.201.12.357.276.482a.696.696 0 00.136.067l.134-.002v-.687c-.04 0-.507-.092-.546.14z"/><path fill="#f79654" d="M24.751-.003a12.865 12.865 0 01-2.082.938 3.798 3.798 0 00-1.605.884 4.35 4.35 0 00-.801 1.267c.299.298-.066.323-.185.45l-.06.062a3.767 3.767 0 01-.316.893l.676.429c.338-.627.726-1.233.998-1.887a2.148 2.148 0 011.245-1.202 16.494 16.494 0 011.873-.627c.176-.34.166-.734.32-1.08-.026-.04.062-.136-.063-.127z"/><path fill="#3a3333" d="M18.45 30.752l.116 1.245h.19c.598-.008.666-.43.696-.887.009-.144.037-.288.057-.431z"/><path fill="#fef1c6" d="M18.07 18.3a3.898 3.898 0 001.645.678 1.278 1.278 0 001.074-.34 4.41 4.41 0 00.738-.976 10.434 10.434 0 01-.077 1.871 3.014 3.014 0 01-.105.98c-.025-.108.059-.282-.044-.312-.095-.028-.135.157-.207.241a5.173 5.173 0 01-.488.572 1.03 1.03 0 00-.334.714c-.149 1.275-.315 2.548-.434 3.825-.094 1.009-.216 2.014-.277 3.027-.03.514-.034 1.026-.047 1.54-.002.1-.036.212.059.296a.426.426 0 01-.065.263l-1.058.073c-.045-.52-.095-1.04-.135-1.56-.068-.875-.11-1.752-.2-2.625q-.182-1.792-.306-3.588c-.039-.568-.048-.58-.605-.47a1.876 1.876 0 01-.275.017v-5.29a8.878 8.878 0 001.142 1.064z"/><path fill="#f79654" d="M16.93 11.423v4.921l.048.068a7.873 7.873 0 002.136 1.832 1.184 1.184 0 001.83-.481c.135-.263.254-.513.57-.586a4.415 4.415 0 00-1.07-2.602 3.036 3.036 0 00-1.083-.795.349.349 0 01-.238-.35 2.854 2.854 0 01.917-2.383 4.756 4.756 0 001.356-3.577 2.957 2.957 0 00-.251-1.224c-.086.008-.185-.028-.246.069a6.05 6.05 0 01.058 1.6 3.295 3.295 0 01-1.465 2.747 5.776 5.776 0 01-2.563.761zm3.63 5.726a.29.29 0 01.224-.294.194.194 0 01.203.201c.004.137-.027.279-.204.298a.193.193 0 01-.223-.205zm-.476.54a.082.082 0 01.077-.078c.04-.002.084.01.084.063a.09.09 0 01-.093.096c-.052.003-.062-.04-.068-.081zm-1.456-.308a.189.189 0 01.195-.204.244.244 0 01.285.223c.014.13-.112.176-.21.18a.248.248 0 01-.27-.2z"/><path fill="#ecb7be" d="M24.494 1.204a16.494 16.494 0 00-1.873.627 2.148 2.148 0 00-1.245 1.202c-.272.654-.66 1.26-.998 1.887a.76.76 0 00.459.45 5.412 5.412 0 002.114-.91 1.733 1.733 0 00.46-.468 8.771 8.771 0 001.083-2.788z"/><path fill="#ffe28a" d="M21.345 20.512c-.025-.107.059-.28-.044-.311-.095-.028-.135.157-.207.241a5.157 5.157 0 01-.488.572 1.03 1.03 0 00-.334.714c-.149 1.275-.315 2.548-.434 3.825-.094 1.009-.216 2.015-.277 3.027-.03.514-.034 1.026-.047 1.54-.002.1-.036.212.059.296l.006-.069c-.001-.146-.003-.293-.003-.44 0-.746 0-.746.755-.746.085-.6.174-1.198.253-1.798q.187-1.428.362-2.859c.071-.58.14-1.161.197-1.743.074-.749.135-1.5.202-2.249z"/><path fill="#f4d736" d="M16.93 17.197v.04l-.005-.005a.144.144 0 00.004-.035z"/><path fill="#f79654" d="M20.837 5.37a.76.76 0 01-.459-.45l-.676-.429a1.416 1.416 0 00-.443-.209 3.487 3.487 0 01.573 1.526 2.467 2.467 0 00.874.37c.096.015.134.084.193.137.061-.097.16-.061.246-.07a2.018 2.018 0 00-.28-.626c-.047-.084-.117-.154-.028-.249z"/><path fill="#3a3333" d="M20.33 29.161c-.755 0-.755 0-.754.747l.003.44c.618-.104.62-.104.703-.72.021-.155.033-.311.049-.467z"/><path fill="#e5dac2" d="M16.929 17.196v.001-.001z"/><path fill="#ecb7be" d="M16.978 16.412a7.872 7.872 0 002.136 1.832 1.184 1.184 0 001.83-.481c.135-.263.254-.513.57-.586a.507.507 0 01.013.485 4.41 4.41 0 01-.738.976 1.278 1.278 0 01-1.074.34 3.898 3.898 0 01-1.644-.678 8.878 8.878 0 01-1.142-1.064v-.04a1.599 1.599 0 000-.2v-.652z"/><path fill="#ddc436" d="M16.93 17.196v-.2a1.6 1.6 0 010 .2z"/><path fill="#ecb7be" d="M18.179 2.426c.04.083.027.23.188.198a2.547 2.547 0 011.896.462c.299.298-.066.323-.185.45a.128.128 0 00-.122.055 4.304 4.304 0 01-1.031.25c-.04.004-.078.015-.117.024a.676.676 0 00.072.09c.125.11.252.218.379.327a3.488 3.488 0 01.573 1.526c.008.154-.062.205-.21.169-.264-.064-.528-.123-.792-.185a3.57 3.57 0 01-1.9-1.795V1.331a2.054 2.054 0 011.249 1.095z"/><path fill="#f1d0bf" d="M19.956 3.59a.272.272 0 00.061.008l.061-.062a.128.128 0 00-.122.055z"/><path fill="#fcf1d5" d="M16.922 9.852c0-.018.006-.033.007-.05v1.596c-.001-.515.001-1.03-.007-1.546zm.007 1.561v.01l-.005.001.005-.011z"/><path fill="#ecb7be" d="M20.784 16.856a.29.29 0 00-.224.293.192.192 0 00.223.205c.177-.02.208-.16.204-.298a.194.194 0 00-.203-.2zm-2.156.524a.247.247 0 00.27.2c.098-.004.224-.05.21-.18a.244.244 0 00-.285-.223.189.189 0 00-.195.204zm1.455.309c.007.04.017.084.069.082a.09.09 0 00.093-.097c0-.053-.044-.065-.084-.063a.082.082 0 00-.078.078z"/><path fill="#f79654" d="M18.83 5.792c-.125.077-.248.156-.374.229a4.164 4.164 0 01-1.527.414V3.997a3.571 3.571 0 001.901 1.795z"/><path fill="#fef1c6" d="M17.476 8.92c.064.201-.12.357-.277.482a.696.696 0 01-.136.067l-.134-.001v1.955a5.776 5.776 0 002.563-.761 3.295 3.295 0 001.465-2.746 6.05 6.05 0 00-.058-1.601c-.06-.053-.097-.122-.193-.138a2.467 2.467 0 01-.874-.37c.008.155-.062.206-.21.17-.264-.064-.528-.123-.792-.185-.125.077-.248.156-.374.229a4.164 4.164 0 01-1.527.414V8.78l.058.001c.18-.004.42-.072.489.14zm1.408-1.853a.514.514 0 01.25-.31 1.061 1.061 0 011.393.301.278.278 0 01.11.2l.012.06c.04.018.07.075.043.087-.073.034-.083-.04-.102-.09a.17.17 0 01-.024-.055l-.112-.127a1.452 1.452 0 00-.386-.265c-.058-.019-.127-.079-.173-.03-.055.057.035.1.06.147a1.31 1.31 0 01.094 1.121.576.576 0 01-.573.41.561.561 0 01-.545-.4 1.628 1.628 0 01-.047-1.049z"/><path fill="#3a3333" d="M20.649 7.319l-.012-.061a.279.279 0 00-.11-.2 1.061 1.061 0 00-1.393-.3.514.514 0 00-.25.31 1.628 1.628 0 00.047 1.048.561.561 0 00.545.4.576.576 0 00.573-.41 1.31 1.31 0 00-.094-1.121c-.025-.047-.115-.09-.06-.147.046-.049.115.011.173.03a1.452 1.452 0 01.386.265l.112.128a.171.171 0 00.024.055c.02.048.029.123.102.09.027-.013-.003-.07-.043-.087zm-.962.144a.255.255 0 01-.179-.274c.005-.118.068-.202.198-.187.14.017.183.125.178.249-.004.11-.037.207-.197.212z"/><path fill="#efefef" d="M19.687 7.463c.16-.005.193-.102.198-.212.004-.124-.038-.232-.18-.249-.129-.015-.192.07-.197.187a.255.255 0 00.179.274z"/><path fill="#3a3333" d="M17.476 8.92c.064.201-.12.357-.277.482a.696.696 0 01-.136.067l-.134-.001V8.78c.04 0 .507-.091.547.14z"/></svg>