<svg xmlns="http://www.w3.org/2000/svg" width="100%" height="100%" viewBox="-2.72 -2.72 37.44 37.44"><path fill="#89283b" d="M11.456 25.036c-.02-.042-.029-.071-.05-.115-.602-1.535-.476-2.403.02-2.932l-1.922-2.636c-1.688 2.414-2.086 4.316-.654 5.489l-.006.002a6.599 6.599 0 002.612.192z"/><path fill="#dbba8c" d="M8.844 24.844c-.688.146-1.152.453-1.242 1.028.119.813 2.394 1.138 3.993.674.405-.039.322-.536-.139-1.51a6.599 6.599 0 01-2.612-.192z"/><path fill="#e5c79a" d="M5.918 24.96l-.723-1.193-1.247 1.507-1.182-2.081-.943 2.168-.803-2.168-.75 1.744c-.426 4.256-.096 5.817.773 5.453a13.17 13.17 0 006.301.356c.644.13.953-.78.575-3.824a4.258 4.258 0 00-2.001-1.961z"/><path fill="#993147" d="M1.823 25.361l.943-2.168 1.182 2.081 1.247-1.507.723 1.194a17.971 17.971 0 01.376-5.43l2.952-4.298-.495-2.973-6.519 3.467C.968 17.232.31 20.204.29 24.723l-.02.214.75-1.744z"/><path fill="#912b41" d="M8.148 14.965c0 4.975 3.516 9.008 7.852 9.008V5.957c-4.336 0-7.852 4.033-7.852 9.008z"/><path fill="#e0c193" d="M14.554 9.422l-1.88-.919-1.671 2.757 1.671 2.674 2.006-1.504L16 13.734v-2.883l-1.446-1.429z"/><ellipse cx="13.244" cy="11.218" fill="#f7f7f7" rx="1.63" ry="1.227" transform="rotate(-74.198 13.244 11.218)"/><ellipse cx="13.196" cy="11.386" fill="#373f3f" rx=".866" ry=".652" transform="rotate(-74.198 13.196 11.386)"/><path fill="#dadddc" d="M14.656 14.103l-2.339 1.922-2.1-2.814c-.122 4.575 1.883 6.494 5.783 6.553v-4.141z"/><path fill="#bf538e" d="M13.196 8.158l.223-.98-2.726-4.508v1.189L8.057 1.382l-2.892-.357 2.853 3.23-.674.377c.878.264 2.17 1.647 3.422 3.082l-.554-2.151z"/><path fill="#ffd04d" d="M14.299 8.634l-.88-1.456-.223.98-2.984-2.595.554 2.15c1.66 1.902 3.252 3.895 3.724 3.505 2.404-.642.92-3.495-.191-2.584z"/><path fill="#dbba8c" d="M15.073 22.335a1.037 1.037 0 00.927 1.12v-2.24a1.037 1.037 0 00-.927 1.12z"/><ellipse cx="12.48" cy="21.511" fill="#dbba8c" rx=".884" ry="1.068"/><path fill="#7f1e32" d="M20.544 25.036c.02-.042.029-.071.05-.115.602-1.535.476-2.403-.02-2.932l1.922-2.636c1.688 2.414 2.086 4.316.654 5.489l.006.002a6.599 6.599 0 01-2.612.192z"/><path fill="#e0c193" d="M23.156 24.844c.688.146 1.152.453 1.242 1.028-.119.813-2.394 1.138-3.993.674-.405-.039-.322-.536.139-1.51a6.599 6.599 0 002.612-.192z"/><path fill="#eacea1" d="M26.082 24.96l.723-1.193 1.247 1.507 1.182-2.081.944 2.168.802-2.168.75 1.744c.426 4.256.096 5.817-.773 5.453a13.17 13.17 0 01-6.301.356c-.644.13-.953-.78-.575-3.824a4.258 4.258 0 012.001-1.961z"/><path fill="#912b41" d="M30.177 25.361l-.943-2.168-1.182 2.081-1.247-1.507-.723 1.194a17.971 17.971 0 00-.376-5.43l-2.952-4.298.495-2.973 6.519 3.467c1.264 1.505 1.922 4.477 1.942 8.996l.02.214-.75-1.744z"/><path fill="#89283b" d="M23.852 14.965c0 4.975-3.516 9.008-7.852 9.008V5.957c4.336 0 7.852 4.033 7.852 9.008z"/><path fill="#e5c79a" d="M17.446 9.422l1.88-.919 1.671 2.757-1.671 2.674-2.006-1.504L16 13.734v-2.883l1.446-1.429z"/><ellipse cx="18.756" cy="11.218" fill="#edeeee" rx="1.227" ry="1.63" transform="rotate(-15.802 18.756 11.218)"/><ellipse cx="18.804" cy="11.386" fill="#2b3332" rx=".652" ry=".866" transform="rotate(-15.802 18.804 11.386)"/><path fill="#e3e5e5" d="M17.344 14.103l2.339 1.922 2.1-2.814c.122 4.575-1.883 6.494-5.783 6.553v-4.141z"/><path fill="#b54e8b" d="M18.804 8.158l-.223-.98 2.726-4.508v1.189l2.636-2.477 2.892-.357-2.853 3.23.674.377c-.878.264-2.17 1.647-3.422 3.082l.554-2.151z"/><path fill="#f7c845" d="M17.701 8.634l.88-1.456.223.98 2.984-2.595-.554 2.15c-1.66 1.902-3.252 3.895-3.724 3.505-2.404-.642-.92-3.495.191-2.584z"/><path fill="#e0c193" d="M16.927 22.335a1.037 1.037 0 01-.927 1.12v-2.24a1.037 1.037 0 01.927 1.12z"/><ellipse cx="19.52" cy="21.511" fill="#e0c193" rx=".884" ry="1.068"/></svg>