<svg xmlns="http://www.w3.org/2000/svg" width="100%" height="100%" viewBox="-2.72 -2.72 37.44 37.44"><path fill="#b9bfbe" d="M7.078 18.082c-1.114 1.915-2.243 3.821-3.327 5.753a1.096 1.096 0 01-.988.634c-.376.023-.748.115-1.124.15a.4.4 0 00-.333.213c-.369.574-.748 1.142-1.125 1.71-.05.077-.079.175-.18.206v-.114c.204-.638.292-1.303.453-1.952.069-.274.126-.552.175-.831a.204.204 0 01.223-.198c.502-.027 1.004-.07 1.506-.093a.307.307 0 00.295-.16q2.42-4.018 4.848-8.029a.497.497 0 00.031-.078l.133-.18.035-.054.061-.171.08-.113.071-.121.053-.11.018-.057a.112.112 0 00.064-.112c.038-.002.05-.026.055-.058l.052-.059.059-.057v.001a.454.454 0 00.054-.002.473.473 0 01.596.058 3.089 3.089 0 00.544.343.115.115 0 00.117.058l-.002-.003.06.072.06.043.113.042.053.02c.012.05.051.06.095.06a5.128 5.128 0 00.754.453l.015.069a2.074 2.074 0 00.224 1.176c-.056.07-.118-.01-.176.007l-.115-.056c-.437-.24-.867-.49-1.31-.717-.539-.277-.714-.392-1.082.259a.866.866 0 00-.676.571c-.106.379-.197.761-.295 1.142a.11.11 0 00-.057.111l-.004.008z"/><path fill="#edeeee" d="M15.971 17.395a.942.942 0 11.03-1.88v-1.713h-.005a1.015 1.015 0 01-1.054-.934A1.01 1.01 0 0116 11.923V9.716a4.186 4.186 0 00-2.777 1.036c-.066.053-.14.096-.21.144a2.876 2.876 0 00.5.783c.16.211.076.35-.09.476-.168.13-.334.168-.484-.046-.141-.201-.299-.39-.45-.585a5.36 5.36 0 00-1.087 2.45c.17.02.3-.102.464-.12a1.4 1.4 0 011.469 1.128 1.962 1.962 0 01-.168 1.568 1.602 1.602 0 01-.278.398 1.213 1.213 0 01-1.443.188.585.585 0 00-.165-.032 5.689 5.689 0 00-1.476.926c-.136.145-.278.285-.409.434a3.67 3.67 0 00-.942 2.803 2.785 2.785 0 001.284 1.993 12.972 12.972 0 004.758 1.996c-.035-.059-.053-.108.049-.099a.042.042 0 01.04-.01l.07-.038.092-.022.08-.04a.074.074 0 01.053-.012l.118-.049a.05.05 0 01.044-.01l.069-.038.092-.022.08-.04a.074.074 0 01.053-.012l.118-.049a.05.05 0 01.044-.01l.069-.038.093-.022.079-.04a.072.072 0 01.053-.012l.118-.049c.333-.13.666-.26.997-.392.036-.014.11-.001.091-.073-.006-.024-.056-.042-.09-.052-.333-.102-.666-.2-1-.3l-.114-.043-.056-.01-.124-.044-.105-.018-.077-.037-.093-.015-.122-.044h-.025l-.023-.01a.146.146 0 01-.133-.044c-.056-.027-.045-.05.004-.07l.07-.058-.003.004.062-.057-.001.002.06-.053.003-.002.05-.045.098-.076.073-.059-.004.004.06-.055.003-.002-.002.002.06-.054.002-.001.057-.05.008-.005.043-.04.106-.083a.592.592 0 01.294-.228.424.424 0 00.01-.037l-.121-.016a6.103 6.103 0 01-3.38-1.096 1.77 1.77 0 01-.403-2.561c.093-.13.152-.187.296-.04a5.86 5.86 0 003.267 1.65c.074.014.146.04.219.06l.033-.007v-3.2c-.01 0-.019.006-.029.006z"/><path fill="#e3e5e5" d="M15.968 5.244a5.213 5.213 0 00-.88.062 6.99 6.99 0 00-2.458.768 4.31 4.31 0 00-1.623 1.97c.39.626.817 1.224 1.253 1.817a7.121 7.121 0 013.374-2.06A1.38 1.38 0 0116 7.755v-2.51l-.032-.002z"/><path fill="#dadddc" d="M20.704 7.526A3.585 3.585 0 0019.05 5.91 7.747 7.747 0 0016 5.246v2.51a2.311 2.311 0 01.824.176 7.459 7.459 0 012.91 1.929l1.31-1.872c-.204-.086-.242-.299-.34-.463z"/><path fill="#b9bfbe" d="M22.188 18.03a5.668 5.668 0 00-1.475-.926c.068-.216.281-.324.385-.513.056.07.118-.01.176.007.038.065.075.047.112-.001.404-.056.809-.101 1.21-.17a3.778 3.778 0 001.202-.287.642.642 0 01.645.49c.125.382.208.777.308 1.167a.113.113 0 00.058.111l.004.008c.001.06-.01.123.052.164l.015.111.03.075 1.166 4.34c.03.11.074.154.201.118.247-.068.5-.113.75-.167.208-.044.352.035.351.252a18.16 18.16 0 01-.168 1.813c-.015.145-.08.056-.122.015-.21-.207-.423-.411-.624-.626-.124-.134-.19-.159-.255.048-.106.335-.235.662-.357.99-.018.048-.008.131-.086.123-.026-.002-.05-.07-.066-.111a3.196 3.196 0 01-.263-.985c-.01-.216-.113-.3-.323-.304-.582-.012-.654-.09-.76-.674q-.421-2.324-.857-4.646a2.039 2.039 0 00-.096-.356c-.11-.288-.258-.351-.558-.259-.217.067-.436.13-.655.193z"/><path fill="#abb2b1" d="M24.751 17.797c-.1-.39-.183-.785-.308-1.166a.642.642 0 00-.645-.491c-.278-.525-.34-.722-1.101-.316-.439.234-.872.479-1.308.718l-.115.056c-.058-.018-.12.063-.176-.007a2.073 2.073 0 00.224-1.176l.015-.069a5.068 5.068 0 00.754-.453c.043 0 .082-.01.094-.06l.054-.02.113-.042.06-.044.06-.07-.002.002a.116.116 0 00.116-.058 3.066 3.066 0 00.544-.343.473.473 0 01.597-.058.472.472 0 00.053.003v-.001l.06.056.052.059.055.058a.114.114 0 00.064.112l.018.057.053.11.071.12.038.055.058.11a1.09 1.09 0 00.212.354c.837 1.475 1.733 2.915 2.61 4.367.745 1.233 1.498 2.46 2.24 3.695a.376.376 0 00.357.207c.493.017.985.062 1.478.093.102.006.183.024.208.145q.292 1.386.587 2.772l-.006.133c-.416-.621-.834-1.241-1.244-1.867a.408.408 0 00-.33-.218c-.508-.056-1.011-.147-1.518-.21a.507.507 0 01-.417-.282q-1.748-3.027-3.51-6.046l-.103-.165-.004-.008a.112.112 0 00-.058-.112zM19.734 9.86l1.31-1.87c.123-.17.237-.345.37-.505a.34.34 0 01.497-.088q2.07 1.301 4.15 2.588a4.213 4.213 0 00-.47.769c-.054.126-.028.289-.168.377l-3.18-2.152c-.078-.053-.154-.11-.235-.159-.23-.136-.432-.132-.577.127-.402.53-.823 1.045-1.183 1.604a8.192 8.192 0 00-.744.973c-.156.202-.316.4-.467.607-.15.204-.314.142-.466.023-.145-.114-.26-.237-.104-.45a3.098 3.098 0 00.515-.808 5.826 5.826 0 00.752-1.035z"/><path fill="#b9bfbe" d="M25.423 11.13c.14-.087.114-.25.167-.376a4.213 4.213 0 01.472-.769 2.57 2.57 0 01.954-.544c.54-.118.923.166.878.718a2.585 2.585 0 01-1.277 2.076c-.651.4-1.16.077-1.175-.693-.003-.136.089-.28-.02-.411z"/><path fill="#dadddc" d="M20.248 10.551c.36-.56.781-1.074 1.183-1.604.13.464.267.927.387 1.394a4.966 4.966 0 01-.032 3.178l-.463 1.013c-.074-.057-.048-.138-.049-.21a8.123 8.123 0 00-.058-1.25 5.858 5.858 0 00-.968-2.52z"/><path fill="#e3e5e5" d="M23.03 19.062a5.515 5.515 0 00-.842-1.032 5.674 5.674 0 00-1.475-.926c-.208-.009-.357.16-.561.18a1.343 1.343 0 01-1.047-.335 1.598 1.598 0 01-.278-.399 2.048 2.048 0 01.27-2.323 1.2 1.2 0 011.328-.282.86.86 0 00.167.029 5.362 5.362 0 00-1.088-2.45c-.156.202-.316.4-.467.606-.15.204-.314.142-.466.024-.145-.114-.26-.237-.104-.45a3.098 3.098 0 00.515-.808 6.029 6.029 0 00-1.312-.84 4.815 4.815 0 00-1.67-.34v2.207l.012-.002a1.01 1.01 0 011.04.949 1.015 1.015 0 01-1.052.932v1.713l.007-.002A.94.94 0 1116 17.39v3.199a6.598 6.598 0 002.85-1.126 3.849 3.849 0 00.646-.556c.126-.147.202-.142.318.022a1.792 1.792 0 01-.412 2.566 6.242 6.242 0 01-2.68 1.031c-.158.03-.319.047-.478.07l-.104.103-.279.234v-.003l-.061.06.003-.003-.06.059.002-.003-.06.058.002-.002-.06.058v-.001l-.058.056-.058.054-.002.002-.055.053-.004.004-.054.05-.006.006-.051.05-.01.008.075.114a.068.068 0 01.053.01l.123.044a.055.055 0 01.048.01.14.14 0 01.13.046l.1.018.078.038c.47.095.918.272 1.379.404.033.01.082.03.09.054.02.071-.053.062-.09.076-.404.15-.81.299-1.216.447l-.071.038-.093.021-.079.04a.064.064 0 01-.05.013l-.122.05-.019.01h-.021l-.073.038-.058.014-.113.048a.061.061 0 01-.049.011l-.064.036-.096.025-.076.039-.055.013-.117.048a.052.052 0 01-.045.012l-.067.036-.097.026c-.052.064-.128.03-.192.048a3.539 3.539 0 001.026.234c.103 0 .207-.006.31-.002a3.693 3.693 0 001.574-.23.197.197 0 00.174-.054 4.246 4.246 0 00.906-.235 11.436 11.436 0 003.722-1.717 2.924 2.924 0 001.245-1.77 3.535 3.535 0 00-.469-2.43z"/><path fill="#8d8080" d="M31.935 26.705l.006-.133c.05.054.088.116.03.18-.02.02-.035-.02-.036-.047z"/><path fill="#887878" d="M30.846 21.222l.07-.07.063.116-.012.06a.19.19 0 01-.12-.106z"/><path fill="#9da5a4" d="M30.235 19.437c-.053-.139-.12-.156-.256-.13-.419.08-.845.123-1.26.216a.31.31 0 01-.4-.188q-1.735-3.003-3.486-5.998a1.759 1.759 0 00-.228-.324.443.443 0 00-.512-.14 21.853 21.853 0 01-2.13.598.112.112 0 01-.119.04l-.058.008-.463 1.013a.944.944 0 00-.06.361c.013.08-.008.168.063.23l.627-.239.234-.101.056.002a.105.105 0 01.11-.067l.12-.061-.003.002a.122.122 0 01.116-.058 3.07 3.07 0 00.544-.343.473.473 0 01.597-.058c.02-.032.037-.03.053.002h.001a.12.12 0 01.11.058l.057.057.044.057.066.113.01.057c.06.013.057.074.084.112l.08.119a.07.07 0 01.015.05l.049.06a1.076 1.076 0 01.225.344c.028.038.06.074.085.114 1.029 1.604 2.089 3.189 3.072 4.822a.583.583 0 00.757.324c.345-.066.694-.11 1.032-.2a.435.435 0 01.453.134c.302.273.617.533.926.799l.07-.07c-.227-.572-.46-1.141-.68-1.715z"/><path fill="#bdb5b5" d="M30.967 21.328l.012-.06c.029.022.05.047.026.085z"/><path fill="#abb2b1" d="M9.407 14.6a3.089 3.089 0 01-.544-.342.473.473 0 00-.596-.058c-.02-.033-.037-.03-.053.003l-.001-.002a.12.12 0 00-.11.06l-.057.057-.044.056-.067.113-.008.057c-.062.012-.058.075-.087.113l-.077.118-.06.112-.068.1a.538.538 0 00-.16.243 159.799 159.799 0 00-3.1 4.836c-.275.45-.373.505-.898.41-.327-.06-.656-.107-.977-.19a.39.39 0 00-.403.117c-.33.298-.671.587-1.008.879l-.064-.008c.243-.607.493-1.212.727-1.822.058-.15.125-.172.275-.143.428.083.864.131 1.29.22a.263.263 0 00.335-.158q1.734-2.993 3.477-5.981a1.527 1.527 0 01.275-.396.453.453 0 01.494-.123c.693.263 1.42.409 2.133.602a.107.107 0 00.12.038l.057.007.463 1.014a.922.922 0 01.06.361c-.011.08.008.168-.063.231l-.627-.24-.234-.101-.056.002a.104.104 0 00-.11-.067l-.12-.061.003.002a.122.122 0 00-.117-.058z"/><path fill="#b9bfbe" d="M11.007 8.045c.39.625.816 1.223 1.253 1.816a5.823 5.823 0 00.752 1.035 2.874 2.874 0 00.5.783c.161.212.077.35-.088.476-.169.13-.336.168-.485-.046-.141-.201-.299-.39-.45-.585a8.2 8.2 0 00-.743-.973c-.36-.56-.782-1.073-1.181-1.604-.21-.264-.347-.284-.65-.079Q8.399 9.9 6.884 10.935c-.101.069-.208.13-.312.196a4.961 4.961 0 00-.639-1.146c1.384-.86 2.769-1.72 4.149-2.586a.351.351 0 01.517.104c.144.174.273.36.409.542z"/><path fill="#c8cccb" d="M5.932 9.985a4.961 4.961 0 01.64 1.146.244.244 0 00-.044.212 1.156 1.156 0 01.015.284c-.056.719-.52.992-1.14.622a2.584 2.584 0 01-1.305-2.118.643.643 0 01.852-.698 2.528 2.528 0 01.982.552z"/><path fill="#e3e5e5" d="M10.565 8.947c.399.531.822 1.044 1.181 1.605a.918.918 0 00-.07.087 6.2 6.2 0 00-.96 3.54c.003.117.053.247-.045.353l-.463-1.014a5.855 5.855 0 01.19-3.971 2.39 2.39 0 00.167-.6z"/><path fill="#b5abab" d="M1.025 21.274l.064.008c-.013.044-.049.084-.087.065-.04-.02-.01-.056.023-.073z"/><path fill="#c8cccb" d="M11.28 17.104a5.685 5.685 0 00-1.475.926c-.209-.06-.42-.118-.627-.184-.35-.11-.533-.02-.62.356a37.6 37.6 0 00-.344 1.7c-.201 1.09-.391 2.183-.59 3.274-.093.516-.194.603-.707.596-.233-.003-.352.075-.363.323a3.076 3.076 0 01-.267.983c-.015.038-.005.109-.075.097-.056-.01-.05-.072-.066-.114-.124-.338-.257-.673-.367-1.015-.062-.194-.123-.168-.238-.047-.202.214-.415.417-.622.627-.079.08-.127.116-.142-.042-.054-.557-.126-1.113-.167-1.67-.023-.317.108-.406.419-.34.222.048.448.083.667.145.13.037.19.015.225-.117q.578-2.169 1.163-4.336l.03-.075.015-.111c.062-.04.05-.104.052-.163l.004-.009c.048-.022.055-.065.058-.11.097-.381.188-.764.294-1.143a.866.866 0 01.676-.571c-.012.166.137.14.217.159a18.425 18.425 0 002.178.354c.037.047.074.067.112 0 .058-.017.12.064.176-.006.104.19.317.297.385.513z"/><path fill="#d5cfcf" d="M7.114 18.191l-.03.075z"/><path fill="#f7f7f7" d="M11.28 17.104c-.067-.216-.28-.324-.384-.513a2.075 2.075 0 01-.224-1.176l.843.624a.377.377 0 00.18.158l.053.043.053.035a.46.46 0 00.216.168l.13.095a.878.878 0 00.393.229.574.574 0 00.349.182 1.213 1.213 0 01-1.443.187.581.581 0 00-.165-.032z"/><path fill="#dd564c" d="M11.515 16.039l-.843-.624-.015-.069.01-.222c.072-.063.053-.15.064-.23a2.488 2.488 0 01.621-.854c.13-.031.158.08.208.153.197.29.39.582.585.873a.917.917 0 00-.63.973z"/><path fill="#9da5a4" d="M16.824 7.932A2.311 2.311 0 0016 7.756v1.96a4.815 4.815 0 011.67.34 6.031 6.031 0 011.312.84 5.816 5.816 0 00.752-1.035 7.459 7.459 0 00-2.91-1.929z"/><path fill="#abb2b1" d="M15.634 7.8a7.121 7.121 0 00-3.374 2.06 5.83 5.83 0 00.752 1.036c.07-.048.145-.09.21-.144A4.186 4.186 0 0116 9.716v-1.96a1.38 1.38 0 00-.366.044zm-4.282 6.24a2.488 2.488 0 00-.621.853.92.92 0 00-.06-.36c.098-.108.048-.237.045-.354a6.2 6.2 0 01.96-3.54.918.918 0 01.07-.088 8.2 8.2 0 01.744.973 5.362 5.362 0 00-1.088 2.45z"/><path fill="#9da5a4" d="M20.248 10.551a5.858 5.858 0 01.968 2.522 8.123 8.123 0 01.058 1.248c0 .073-.025.154.05.211a.94.94 0 00-.062.361 2.461 2.461 0 00-.62-.853l-.05-.066a5.362 5.362 0 00-1.088-2.45 8.193 8.193 0 01.744-.973z"/><path fill="#f7f7f7" d="M14.942 12.868a1.015 1.015 0 001.054.934H16v-1.88a1.01 1.01 0 00-1.058.946z"/><path fill="#edeeee" d="M17.052 12.87a1.01 1.01 0 00-1.04-.95l-.012.003V13.8a1.015 1.015 0 001.052-.931z"/><path fill="#f7f7f7" d="M15 16.467a1.013 1.013 0 00.971.928c.01 0 .019-.005.03-.005v-1.875a1.01 1.01 0 00-1.002.952z"/><path fill="#edeeee" d="M16.995 16.458a1.012 1.012 0 00-.988-.945l-.007.002v1.875a1.006 1.006 0 00.995-.932z"/><path fill="#f7f7f7" d="M11.352 14.04l.05-.066c.17.02.3-.102.464-.12a1.4 1.4 0 011.469 1.128 1.961 1.961 0 01-.168 1.568l-.121-.165a.5.5 0 00-.207-.297l-.533-.804a.302.302 0 00-.161-.218c-.195-.291-.388-.583-.585-.873-.05-.073-.078-.184-.208-.153z"/><path fill="#edeeee" d="M20.592 13.974l.05.066c-.13-.031-.158.08-.208.154-.197.289-.39.58-.585.872a.302.302 0 00-.161.218l-.533.805a.492.492 0 00-.207.296l-.121.165a2.048 2.048 0 01.27-2.323 1.2 1.2 0 011.328-.282.87.87 0 00.167.029zm.73 1.441a2.073 2.073 0 01-.224 1.176c-.104.19-.317.297-.385.513-.208-.009-.357.16-.562.18a1.342 1.342 0 01-1.046-.335.574.574 0 00.35-.182.878.878 0 00.391-.229c.057-.018.107-.043.119-.11l-.003.002c.11-.002.168-.082.23-.154l.054-.036.054-.043a.378.378 0 00.179-.158z"/><path fill="#d64f45" d="M19.454 16.767a.574.574 0 01-.349.182 1.597 1.597 0 01-.278-.399l.121-.165a1.105 1.105 0 00.506.382z"/><path fill="#dd564c" d="M13.046 16.385l.121.165a1.6 1.6 0 01-.278.399.574.574 0 01-.35-.182 1.105 1.105 0 00.507-.382z"/><path fill="#dadddc" d="M15.509 23.097h-.001.001l.002-.002-.002.002z"/><path fill="#dadddc" d="M17.315 24.123c-.46-.132-.908-.31-1.38-.404l-.078-.037-.1-.02a.126.126 0 01-.13-.045.055.055 0 00-.047-.01.127.127 0 01-.123-.045.068.068 0 00-.053-.01l-.075-.113.01-.009.05-.049.007-.005.054-.05.004-.005.055-.052.002-.002.058-.055.059-.056h-.001l.06-.057-.002.002.06-.058-.003.003.061-.06-.003.004.06-.058.001.001.28-.234.103-.103-.155.002a.446.446 0 01-.01.038.592.592 0 00-.293.228l-.106.082-.044.04-.007.007-.058.049h-.001l-.061.055-.06.055.004-.004-.073.059-.098.076-.05.045-.004.002-.06.053.001-.002-.062.057.004-.004-.071.059c-.05.02-.06.042-.004.069a.146.146 0 00.133.045l.023.01.025-.001a.129.129 0 01.122.044l.093.015.077.037.105.018a.13.13 0 01.124.044l.057.01.113.043c.334.1.667.198 1 .3.034.01.084.028.09.052.02.072-.055.059-.09.073-.332.132-.665.262-.998.392a.124.124 0 01-.117.05.072.072 0 00-.054.012l-.08.04-.092.021-.069.037a.05.05 0 00-.044.011.124.124 0 01-.118.05.074.074 0 00-.053.012l-.08.04-.092.021-.07.038a.05.05 0 00-.043.01.124.124 0 01-.118.05.074.074 0 00-.054.012l-.079.04-.092.021-.07.038a.042.042 0 00-.04.01c-.102-.01-.084.04-.049.099a.094.094 0 01.046.01c.064-.018.14.016.192-.048l.097-.026.067-.036a.052.052 0 00.045-.012.125.125 0 01.117-.048l.055-.013.076-.04.096-.024.064-.036a.061.061 0 00.049-.011l.114-.048.058-.014.072-.038h.022l.018-.01a.124.124 0 01.121-.05.064.064 0 00.051-.012l.08-.04.092-.022.071-.038c.406-.148.812-.296 1.217-.447.036-.014.11-.005.088-.076-.007-.025-.056-.044-.09-.054z"/><path fill="#d64f45" d="M21.322 15.415l-.843.624a.917.917 0 00-.63-.973c.195-.291.388-.583.585-.872.05-.073.078-.185.207-.154a2.461 2.461 0 01.621.853c.014.08-.007.168.064.23l.01.223z"/><path fill="#211915" d="M12.84 16.088a.57.57 0 01-.634.392.235.235 0 00-.167-.062l-.224-.227q-.23-.75.491-.907a.302.302 0 00-.161-.218.917.917 0 00-.63.972.378.378 0 00.18.16l.053.042.053.035a.46.46 0 00.216.168l.13.095a.877.877 0 00.393.229 1.105 1.105 0 00.506-.382.5.5 0 00-.207-.297z"/><path fill="#e9746a" d="M12.206 16.48a.234.234 0 00-.167-.062l-.224-.227q-.23-.75.491-.907l.533.804a.57.57 0 01-.633.392z"/><path fill="#e7685f" d="M19.155 16.089l.533-.805q.72.158.491.907a.796.796 0 00-.217.24l.003-.002a.192.192 0 00-.177.05.569.569 0 01-.633-.39z"/><path fill="#211915" d="M19.849 15.066a.302.302 0 00-.161.218q.72.158.491.907a.802.802 0 00-.216.238.192.192 0 00-.175.05.57.57 0 01-.633-.39.492.492 0 00-.207.296 1.106 1.106 0 00.506.382.879.879 0 00.392-.229c.056-.018.106-.043.118-.109.108-.003.166-.081.229-.153l.053-.036.054-.043a.377.377 0 00.179-.159.917.917 0 00-.63-.972z"/></svg>