<svg xmlns="http://www.w3.org/2000/svg" width="100%" height="100%" viewBox="-2.72 -2.72 37.44 37.44"><path fill="#51BAC5" d="M22.977 13.753a42.526 42.526 0 01-3.758 3.645c-.014.012-.031.016-.046.026.504 1.171 2.031 4.232 3.327 1.785 1.125-2.124 3.092-1.743 4.007-1.418a.718.718 0 00.41.019l-2.513-5.771a28.918 28.918 0 01-1.427 1.714z"/><path fill="#56C7CD" d="M27.326 17.553l.018-.02c.07-.084.141-.163.212-.236l.034-.034a3.59 3.59 0 01.217-.2l.026-.021c.076-.062.152-.12.228-.17l.007-.004c.076-.051.153-.095.229-.135l.018-.01c.074-.038.148-.07.221-.099l.03-.012c.071-.027.142-.049.213-.068l.035-.009c.07-.017.139-.031.207-.041l.034-.005c.069-.009.137-.015.205-.018l.028-.001c.07-.002.138-.001.206.003l.014.001c.069.005.137.012.204.022l.009.001c.067.01.132.024.196.038l.023.005a3.396 3.396 0 01.375.118l.028.011c.054.021.106.044.157.067l.023.011c.051.024.101.049.149.074l.014.008c.05.026.098.053.144.08a7.517 7.517 0 00-.132-.766c-.078-.449-.207-.88-.327-1.311a10.494 10.494 0 00-.495-1.228c-.083-.204-.21-.38-.312-.571-.098-.194-.24-.356-.357-.534a5.902 5.902 0 00-1.878-1.667 6.867 6.867 0 00-1.094-.49.737.737 0 00-.467-.005c-.026.008-.051.019-.076.03a.76.76 0 00-.256.184c-.01.011-.017.024-.026.035-.017.022-.035.043-.05.068-.299.483-.619.942-.955 1.383l2.513 5.771a.75.75 0 00.408-.255zm-14.545-.156a42.384 42.384 0 01-3.758-3.645 28.024 28.024 0 01-1.427-1.716L5.06 17.862a.492.492 0 00.293-.02c.837-.327 2.961-.874 4.147 1.366 1.296 2.448 2.823-.613 3.327-1.785-.015-.01-.032-.014-.046-.026z"/><path fill="#5BD3D5" d="M7.163 11.44a16.492 16.492 0 01-.521-.786.742.742 0 00-.851-.319c-.103.037-.207.073-.308.113l-.002.001a6.96 6.96 0 00-.363.157l-.091.043A5.9 5.9 0 002.794 12.5c-.117.178-.259.341-.357.534-.101.191-.229.367-.312.571-.196.391-.347.807-.495 1.228-.12.431-.249.862-.327 1.311-.06.251-.097.508-.132.766.048-.028.098-.056.15-.083l.01-.006c.05-.026.103-.052.157-.077l.019-.009c.053-.024.108-.047.165-.07l.025-.01c.056-.021.114-.042.173-.06l.028-.009c.059-.018.12-.035.182-.049l.03-.007c.063-.014.126-.026.191-.035l.029-.004c.066-.009.134-.016.202-.019l.025-.001c.071-.003.142-.003.214.001l.016.001c.076.005.152.012.23.025h.001c.077.013.155.031.234.053l.016.004c.075.022.151.049.227.08l.027.011a2.404 2.404 0 01.256.127 2.718 2.718 0 01.511.375 3.431 3.431 0 01.252.253c.074.081.147.168.22.263l.01.012c.074.097.178.16.29.187l2.536-5.824a18.243 18.243 0 01-.434-.599z"/><path fill="#FFAD68" d="M18.469 16.63l.008-.008a40.83 40.83 0 003.304-3.823c1-1.329 1.927-2.744 2.452-4.17l.001-.002.014-.036a.963.963 0 011.172-.548c.993.301 1.981.724 2.87 1.328a7.525 7.525 0 012.204 2.289c.128.228.281.445.382.683.104.236.235.463.315.706.192.476.327.963.454 1.448.097.49.199.977.245 1.467.074.489.075.977.11 1.464a.539.539 0 01-.461.566.544.544 0 01-.621-.448l-.008-.049c-.071-.453-.107-.912-.212-1.354-.078-.449-.207-.88-.327-1.311a10.494 10.494 0 00-.495-1.228c-.083-.204-.21-.38-.312-.571-.098-.194-.24-.356-.357-.534a5.902 5.902 0 00-1.878-1.667 6.867 6.867 0 00-1.094-.49.74.74 0 00-.874.309c-.704 1.14-1.527 2.143-2.384 3.102a42.526 42.526 0 01-3.758 3.645.55.55 0 01-.855-.183.517.517 0 01.105-.585z"/><path fill="#FFB76D" d="M13.531 16.63l-.008-.008a40.83 40.83 0 01-3.304-3.823c-1-1.329-1.927-2.744-2.452-4.17l-.001-.003-.014-.035a.962.962 0 00-1.172-.549c-.993.301-1.982.724-2.87 1.329a7.525 7.525 0 00-2.204 2.289c-.128.228-.281.445-.382.683-.104.236-.235.463-.315.706-.192.476-.327.963-.454 1.448-.097.49-.199.977-.245 1.467-.074.489-.075.977-.11 1.464a.539.539 0 00.461.566.544.544 0 00.621-.448l.008-.049c.071-.453.107-.912.212-1.354.078-.449.207-.88.327-1.311.148-.421.299-.837.495-1.228.083-.204.21-.38.312-.571.098-.194.24-.356.357-.534a5.902 5.902 0 011.878-1.667 6.867 6.867 0 011.094-.49.74.74 0 01.874.309c.704 1.14 1.527 2.143 2.384 3.102a42.526 42.526 0 003.758 3.645.55.55 0 00.855-.183.517.517 0 00-.105-.585z"/><path fill="#FCA15E" d="M19 24.975s5.792-.982 8.469-4.457c.143-.185.469-.091.489.131.141 1.598-1.866 6.722-5.41 8.31C18.11 30.947 19 24.975 19 24.975z"/><path fill="#FFAD68" d="M7 32h6.714s.815-.495-.309-1.466S7 29.838 7 32z"/><path fill="#FCA15E" d="M25 32h-6.714s-.815-.495.309-1.466C19.719 29.563 25 29.838 25 32z"/><path fill="#FFB76D" d="M12 11.625c0 6.157-3 7.417-3 10.958 0 .404.03.773.066 1.133a4.991 4.991 0 00-.372.775c-1.458 3.903-.315 4.683.67 5.751.936 1.015 4.242 1.163 5.251-.529.81.117 1.385.079 1.385.079V13.5l-4-1.875z"/><path fill="#FFAD68" d="M23.306 24.492a4.902 4.902 0 00-.372-.775c.036-.361.066-.729.066-1.134 0-3.458-3-4.801-3-10.958L16 13.5v16.292s.575.038 1.385-.077c1.009 1.691 4.314 1.543 5.251.529.985-1.069 2.129-1.85.67-5.752z"/><path fill="#F7D684" d="M11.135 23.993c.334 1.675 1.439 3.692 4.865 3.882V25c-1.798 0-3.469-.372-4.865-1.007z"/><path fill="#F0C877" d="M16 27.875c3.425-.19 4.531-2.207 4.865-3.882C19.469 24.628 17.798 25 16 25v2.875z"/><path fill="#FAE09F" d="M16 21c-1.698 0-3.279-.336-4.626-.907-.232.638-.374 1.387-.374 2.49 0 .391.031.884.135 1.41C12.531 24.628 14.202 25 16 25v-4z"/><path fill="#F7D684" d="M16 25c1.798 0 3.469-.372 4.865-1.007a7.35 7.35 0 00.135-1.41c0-1.103-.142-1.852-.374-2.49-1.347.571-2.928.907-4.626.907v4z"/><path fill="#FDEBBB" d="M16 17c-1.036 0-2.026-.129-2.95-.355-.308.806-.643 1.45-.895 1.887-.311.537-.579 1.008-.78 1.561 1.346.571 2.927.907 4.625.907v-4z"/><path fill="#FAE09F" d="M16 21c1.698 0 3.279-.336 4.626-.907-.201-.553-.469-1.024-.78-1.561a13.103 13.103 0 01-.895-1.887c-.925.226-1.915.355-2.951.355v4z"/><path fill="#FDEBBB" d="M13.856 13h.001z"/><path fill="#FAE09F" d="M18.144 13h-.001.001z"/><path fill="#FFF3D9" d="M16 14l-1-.792L13.857 13h-.001a12.523 12.523 0 01-.806 3.645c.924.226 1.914.355 2.95.355v-3z"/><path fill="#FDEBBB" d="M18.143 13L17 13.208 16 14v3c1.036 0 2.026-.129 2.95-.355A12.458 12.458 0 0118.144 13h-.001z"/><path fill="#FFC172" d="M11.021 17l-1.636 1.135a3.222 3.222 0 00-.609 4.743l1.15 1.342a2.232 2.232 0 003.033.333l.005-.004a2.23 2.23 0 00.62-2.853L11.021 17z"/><path fill="#FFC172" d="M11.021 17l-1.636 1.135a3.222 3.222 0 00-.609 4.743l1.15 1.342a2.232 2.232 0 003.033.333l.005-.004a2.23 2.23 0 00.62-2.853L11.021 17z"/><g fill="#FFB76D"><path d="M20.979 17l1.636 1.135a3.222 3.222 0 01.609 4.743l-1.15 1.342a2.232 2.232 0 01-3.033.333l-.005-.004a2.23 2.23 0 01-.62-2.853L20.979 17z"/><path d="M20.979 17l1.636 1.135a3.222 3.222 0 01.609 4.743l-1.15 1.342a2.232 2.232 0 01-3.033.333l-.005-.004a2.23 2.23 0 01-.62-2.853L20.979 17z"/></g><path fill="#FFC172" d="M11.455 7.201c0 .181.009.36.025.536.032.348-.02.698-.17 1.014-.2.42-.31.874-.31 1.348C11 12.254 13.239 14 16 14V2c-2.51 0-4.545 2.328-4.545 5.201z"/><path fill="#FFB76D" d="M21 10.099c0-.474-.11-.928-.31-1.348a1.94 1.94 0 01-.17-1.014c.016-.176.025-.355.025-.536C20.545 4.328 18.51 2 16 2v12c2.761 0 5-1.746 5-3.901zm-5.217-8.787l-.669 1.004a.249.249 0 00.052.334c.189.148.507.35.825.35L16 2.999V1.203a.246.246 0 00-.217.109z"/><path fill="#FFAD68" d="M16.868 2.316l-.669-1.004A.248.248 0 0016 1.203v1.796c.315-.004.628-.203.816-.349a.248.248 0 00.052-.334z"/><path fill="#F7D684" d="M14 4a.25.25 0 01-.25-.249c-.001-.061-.035-1.501-1.893-1.501-2.884 0-3.107-1.531-3.107-2a.25.25 0 01.5 0c0 .953.95 1.5 2.607 1.5 2.365 0 2.393 1.98 2.393 2A.25.25 0 0114 4z"/><path fill="#231F20" d="M15 11.75a.252.252 0 01-.21-.114c-.013-.018-.221-.308-.823-.388a.25.25 0 01-.215-.281c.018-.136.134-.242.281-.214.842.112 1.146.564 1.179.615a.25.25 0 01-.212.382z"/><path fill="#FFF" d="M13.368 5.653A.568.568 0 0013 5.5c-.807 0-.968 1.605-1 2.243a.248.248 0 00.252.257h.642a1.695 1.695 0 01-.288-.952c0-.618.313-1.147.762-1.395z"/><path fill="#4896C8" d="M12.647 6.726c-.019.105-.04.209-.04.321 0 .361.111.689.288.952h.853A.246.246 0 0014 7.743a7.61 7.61 0 00-.037-.447c-.08.015-.154.048-.238.048-.463 0-.85-.255-1.078-.618z"/><path fill="#373F3F" d="M12.647 6.726c.228.363.615.617 1.077.617.085 0 .158-.032.238-.048-.064-.573-.22-1.332-.594-1.643-.367.204-.633.6-.721 1.074z"/><path fill="#F7F7F7" d="M18.632 5.653A.568.568 0 0119 5.5c.807 0 .968 1.605 1 2.243a.248.248 0 01-.252.257h-.642c.178-.263.288-.591.288-.952 0-.618-.313-1.147-.762-1.395z"/><path fill="#4390BF" d="M19.353 6.726c.019.105.04.209.04.321 0 .361-.111.689-.288.952h-.853A.246.246 0 0118 7.743a7.61 7.61 0 01.037-.447c.08.015.154.048.238.048.463 0 .85-.255 1.078-.618z"/><path fill="#2B3332" d="M19.353 6.726a1.271 1.271 0 01-1.077.617c-.085 0-.158-.032-.238-.048.064-.573.22-1.332.594-1.643.367.204.633.6.721 1.074z"/><path fill="#F0C877" d="M18 4a.25.25 0 01-.25-.25c0-.02.027-2 2.393-2 1.657 0 2.607-.547 2.607-1.5a.25.25 0 01.5 0c0 .469-.224 2-3.107 2-1.871 0-1.893 1.439-1.893 1.5A.25.25 0 0118 4z"/><path fill="#231F20" d="M17 11.748a.249.249 0 01-.212-.38c.032-.051.337-.503 1.179-.615.146-.027.263.078.281.214a.25.25 0 01-.215.281c-.608.082-.815.376-.823.389a.256.256 0 01-.21.111z"/></svg>