<svg xmlns="http://www.w3.org/2000/svg" width="100%" height="100%" viewBox="-2.72 -2.72 37.44 37.44"><path fill="#945BA0" d="M19.158 17.437s1.556-2.925 3.504-4.938c1.468.929 3.795 2.711 4.911 5.158-1.866 1.45-4.448 3.468-4.448 3.468l-3.967-3.688z"/><path fill="#FFC550" d="M22.662 12.499c1.4-1.446 3.003-2.422 4.379-1.499 3.292 2.208 3.167 4.635 2.292 5.297-.266.201-.946.727-1.76 1.361-1.116-2.448-3.442-4.229-4.911-5.159z"/><path fill="#B370B9" d="M25.261 22.046C24.145 17.052 20.961 12 20.961 12L16 13.5 11.039 12S7.856 17.052 6.74 22.046C5.941 22.438 3 24.11 3 27.514c0 3.938 3.312 3.469 3.312 3.469s2.576-.273 3.383-2.333c.897.248 1.923.35 3.024.35C14.527 29 16 28 16 28s1.473 1 3.281 1c1.1 0 2.127-.103 3.024-.35.807 2.06 3.382 2.333 3.382 2.333S29 31.451 29 27.514c0-3.404-2.941-5.076-3.739-5.468z"/><path fill="#A366AD" d="M12.842 17.437s-1.556-2.925-3.504-4.938c-1.468.929-3.795 2.711-4.911 5.158 1.866 1.45 4.448 3.468 4.448 3.468l3.967-3.688z"/><path fill="#FFCF6E" d="M9.338 12.499c-1.4-1.446-3.003-2.422-4.379-1.499-3.292 2.208-3.167 4.635-2.292 5.297.266.201.946.727 1.76 1.361 1.116-2.448 3.442-4.229 4.911-5.159z"/><path fill="#C27BC6" d="M11.039 12S7.856 17.052 6.74 22.046C5.941 22.438 3 24.11 3 27.514c0 3.938 3.312 3.469 3.312 3.469s2.576-.273 3.383-2.333c.897.248 1.923.35 3.024.35C14.527 29 16 28 16 28V13.5L11.039 12z"/><path fill="#C27BC6" d="M4.619 29.031L2 30v2h5a1 1 0 001-1v-1.5a.5.5 0 00-.5-.5H4.793a.514.514 0 00-.174.031z"/><path fill="#EDEEEE" d="M2 30l-1.542.623a.25.25 0 00-.126.112l-.302.553a.25.25 0 00-.03.119v.343c0 .138.112.25.25.25H2v-2z"/><ellipse cx="6.5" cy="28" fill="#8C5699" rx="1.5" ry="1"/><path fill="#B370B9" d="M27.381 29.031L30 30v2h-5a1 1 0 01-1-1v-1.5a.5.5 0 01.5-.5h2.707c.06 0 .118.011.174.031z"/><path fill="#E3E5E5" d="M30 30l1.542.623a.25.25 0 01.126.112l.302.553a.25.25 0 01.03.119v.343a.25.25 0 01-.25.25H30v-2z"/><ellipse cx="25.5" cy="28" fill="#865193" rx="1.5" ry="1"/><path fill="#D285D2" d="M16 .406v16.345s-1.588-.113-2.671.451c-.265.138-.583.133-.867.039l-2.079-.693a1.119 1.119 0 01-.715-.729L9 13.671l5.915-6.93L16 .406z"/><path fill="#B370B9" d="M9.916 9.551l-5.007 3.114a1 1 0 00-.379.428l-3.507 7.551a.249.249 0 00.087.312l1.035.7a.25.25 0 00.382-.143l.41-1.555.023 2.303a.25.25 0 00.25.248h1.196a.25.25 0 00.25-.25v-2.153l.28 1.171c.014.06.05.112.1.147l.89.62c.079.055.182.06.266.012l1.007-.57a.25.25 0 00.1-.33l-.845-1.683 1.352-4.23c.051-.16.142-.304.263-.42l3.852-3.664-2.005-1.608z"/><path fill="#C27BC6" d="M16 .406v16.345s1.588-.113 2.671.451c.265.138.583.133.867.039l2.079-.693c.342-.114.608-.385.715-.729L23 13.671l-5.915-6.93L16 .406z"/><path fill="#A366AD" d="M22.084 9.551l5.007 3.114a1 1 0 01.379.428l3.507 7.551a.249.249 0 01-.087.312l-1.035.7a.25.25 0 01-.382-.143l-.41-1.555-.023 2.303a.25.25 0 01-.25.248h-1.196a.25.25 0 01-.25-.25v-2.153l-.28 1.171a.249.249 0 01-.1.147l-.89.62a.249.249 0 01-.266.012l-1.007-.57a.25.25 0 01-.1-.33l.845-1.683-1.352-4.23a1.006 1.006 0 00-.263-.42l-3.852-3.664 2.005-1.608z"/><path fill="#A8364C" d="M10.327 13.951l.14.451c.151.486.482.896.925 1.146l.304.172c.3.17.639.259.984.259H16v-1.828l-5.516-1.51-.157 1.31z"/><path fill="#FFCF6E" d="M11 21.701c0-.958.292-1.842.78-2.591a.504.504 0 00-.053-.637l-.735-.735c-.214-.214-.577-.198-.751.049A6.772 6.772 0 009 21.701c0 1.542.519 2.963 1.387 4.106.179.236.533.245.742.036l.725-.725a.508.508 0 00.041-.659A4.73 4.73 0 0111 21.701z"/><path fill="#FFF" d="M12.177 13.84l.28 1.261a.25.25 0 00.244.196h.71a.25.25 0 00.244-.194l.237-1.039-1.715-.224z"/><path fill="#993147" d="M21.673 13.951l-.14.451a1.996 1.996 0 01-.925 1.146l-.304.172c-.3.17-.639.259-.984.259H16v-1.828l5.516-1.51.157 1.31z"/><path fill="#FFC550" d="M21 21.701c0-.958-.292-1.842-.78-2.591a.504.504 0 01.053-.637l.735-.735c.214-.214.577-.198.751.049A6.772 6.772 0 0123 21.701a6.766 6.766 0 01-1.387 4.106c-.179.236-.533.245-.742.036l-.725-.725a.508.508 0 01-.041-.659A4.73 4.73 0 0021 21.701z"/><path fill="#F7F7F7" d="M19.823 13.84l-.28 1.261a.25.25 0 01-.244.196h-.71a.25.25 0 01-.244-.194l-.237-1.039 1.715-.224z"/><path fill="#D799D6" d="M15.423.408l-.657.465a.559.559 0 00-.234.398l-.5 4.565-1.166-3.02a.564.564 0 00-.734-.32l-1.146.459a.563.563 0 00-.343.633l.752 3.76-3.226-1.351a.563.563 0 00-.71.247l-.897 1.628a.561.561 0 00.08.653l2.748 2.972-3.177 2.516a.562.562 0 00-.142.714l.534.962a.562.562 0 00.791.203l3.218-2.024a.999.999 0 01.661-.145l2.123.277c.31.04.584.224.739.496l.29.508c.103.18.296.289.503.283l1.07-.028V.225a1 1 0 00-.577.183z"/><path fill="#D285D2" d="M17.573 15.003l.29-.508c.155-.272.429-.455.739-.496l2.122-.276a.996.996 0 01.661.145l3.218 2.024a.562.562 0 00.791-.203l.534-.962a.562.562 0 00-.142-.714l-3.177-2.516 2.748-2.972a.563.563 0 00.08-.653l-.896-1.628a.561.561 0 00-.71-.247l-3.226 1.352.752-3.76a.563.563 0 00-.343-.633l-1.146-.459a.563.563 0 00-.734.32l-1.166 3.02-.5-4.565a.566.566 0 00-.234-.398l-.657-.465A.994.994 0 0016 .225v15.034l1.07.027c.207.005.4-.104.503-.283z"/><path fill="#FFB0C2" d="M11.648 9.461a.247.247 0 00-.329.022c-.137.148-.24.337-.294.571-.163.706.472 1.765 1.65 1.927a2.13 2.13 0 001.352-.274.252.252 0 00.029-.419l-2.408-1.827z"/><path fill="#373F3F" d="M12.318 9.97a.884.884 0 00-.227.564c0 .318.133.667.409.667.276 0 .5-.258.5-.576 0-.052-.014-.098-.026-.145l-.656-.51z"/><path fill="#FFCF6E" d="M12.865 2.816a.564.564 0 00-.734-.32l-1.146.459a.563.563 0 00-.343.633l.265 1.326a5.325 5.325 0 012.482-.74l-.524-1.358zM7.458 6.244l-.896 1.628a.561.561 0 00.08.653l1.406 1.521c.08-.603.267-1.206.586-1.759a6.28 6.28 0 011.251-1.57l-1.717-.72a.562.562 0 00-.71.247zm.331 7.882a3.989 3.989 0 01-.419-1.03l-1.158.917a.563.563 0 00-.143.714l.534.962a.562.562 0 00.791.203l1.22-.767a3.949 3.949 0 01-.825-.999z"/><path fill="#FFC550" d="M19.135 2.816a.564.564 0 01.734-.32l1.146.459a.563.563 0 01.343.633l-.265 1.326a5.325 5.325 0 00-2.482-.74l.524-1.358zm5.407 3.428l.896 1.628a.561.561 0 01-.08.653l-1.406 1.521a4.769 4.769 0 00-.586-1.759 6.28 6.28 0 00-1.251-1.57l1.717-.72a.562.562 0 01.71.247zm-.331 7.882c.195-.338.334-.687.419-1.03l1.158.917a.563.563 0 01.143.714l-.534.962a.562.562 0 01-.791.203l-1.22-.767c.307-.267.593-.599.825-.999z"/><path fill="#FF97AF" d="M20.352 9.461c.1-.076.244-.07.329.022.137.148.24.337.294.571.163.706-.472 1.765-1.65 1.927a2.13 2.13 0 01-1.352-.274.252.252 0 01-.029-.419l2.408-1.827z"/><path fill="#2B3332" d="M19.682 9.97a.884.884 0 01.227.564c0 .318-.133.667-.409.667-.276 0-.5-.258-.5-.576 0-.052.014-.098.026-.145l.656-.51z"/><path fill="#FFCF6E" d="M15.423.408l-.657.465a.559.559 0 00-.234.398l-.187 1.705a6.878 6.878 0 011.656-.202V.225a1 1 0 00-.578.183z"/><path fill="#FFC550" d="M17.469 1.271a.566.566 0 00-.234-.398l-.657-.465A1.005 1.005 0 0016 .225v2.549c.576 0 1.131.072 1.656.202l-.187-1.705z"/></svg>