<svg xmlns="http://www.w3.org/2000/svg" width="100%" height="100%" viewBox="-2.72 -2.72 37.44 37.44"><path fill="#9ACC2E" d="M12.232 14.927c0 4.422-4.888 7.481-3.084 11.604.207.473.382.878.541 1.235-.67.197-1.689.809-1.689 1.542C8 30.2 9.25 30.5 10.142 30.5c.655 0 1.466.032 1.72-.529.674.088 2.427-.059 4.138-.164v-14.88h-3.768z"/><path fill="#8FB720" d="M19.208 19.333s4.081-1.783 9.941-4.355c.477-.209.924.354.6.762-4.157 5.252-9.458 12.092-9.458 12.092l-1.083-8.499z"/><path fill="#FFD04D" d="M26.381 16.193l2.762-1.212c.478-.21.928.353.604.763-.642.811-1.312 1.66-1.984 2.516a269.83 269.83 0 00-2.907 1.319c-.482.222-.943-.348-.619-.768a67.88 67.88 0 012.144-2.618z"/><path fill="#93C427" d="M19.768 14.927c0 4.422 4.888 7.481 3.084 11.604-.207.473-.382.878-.541 1.235.67.197 1.689.809 1.689 1.542 0 .892-1.25 1.192-2.142 1.192-.655 0-1.466.032-1.72-.529-.674.088-2.427-.059-4.138-.164v-14.88h3.768z"/><path fill="#9ACC2E" d="M17.258 29.513S16.864 19.357 16 19.357V9.62l2.487-.932s3.223 3.835 2.966 6.838c-.425 4.954-1.016 11.584-1.17 13.467.639.257 1.564 1.319 1.564 1.852 0 .81-1.478 1.155-2.693 1.155s-2.6-.345-2.6-1.155c-.001-.268.516-1.116.704-1.332z"/><path fill="#A2D336" d="M14.742 29.513S15.136 19.357 16 19.357V9.62l-2.487-.932s-3.223 3.835-2.966 6.838c.425 4.954 1.016 11.584 1.17 13.467-.639.257-1.564 1.319-1.564 1.852 0 .81 1.478 1.155 2.693 1.155s2.6-.345 2.6-1.155c.001-.268-.516-1.116-.704-1.332zM16 17.018c1.459 0 2.112-1.342 2.782-1.746.899-.542 1.004-.537 1.596-.907 1.061-.663 3.781-1.99 3.615-5.903H16v8.556z"/><path fill="#AADB3D" d="M19.93 12.541c-.597.133-2.239 2.355-2.802 2.521-.564.166-.58-.099-1.128-.099V3.188l2.587 1.293 1.155-1.155a.393.393 0 01.466-.072c.895.481 3.785 2.264 3.785 5.207 0 3.483-3.018 3.848-4.063 4.08z"/><path fill="#FFD96C" d="M20.877 9.567c-.851.36-1.313.667-1.544.735.236-.361.323-1.828.182-1.807l.066-3.814 1.99 2.222.089-1.577a.1.1 0 01.158-.075c.511.378 2.174 1.723 2.174 3.211 0 2.95-2.166 3.663-3.463 3.953.147-.67.406-1.938.487-2.748a.1.1 0 00-.139-.1z"/><path fill="#AADB3D" d="M16 17.018c-1.459 0-2.106-1.353-2.782-1.746-.933-.542-1.004-.537-1.596-.907-1.061-.663-3.781-1.99-3.615-5.903H16v8.556z"/><path fill="#B1E346" d="M12.07 12.541c.597.133 2.239 2.355 2.802 2.521.564.166.58-.099 1.128-.099V3.188l-2.587 1.293-1.155-1.155a.393.393 0 00-.466-.072c-.895.481-3.785 2.264-3.785 5.207 0 3.483 3.018 3.848 4.063 4.08z"/><path fill="#FFE28A" d="M11.123 9.567c.851.36 1.313.667 1.544.735-.236-.361-.323-1.828-.182-1.807l-.066-3.814-1.99 2.222-.089-1.577a.1.1 0 00-.158-.075c-.511.377-2.175 1.723-2.175 3.21 0 2.95 2.166 3.663 3.463 3.953-.147-.67-.406-1.938-.487-2.748a.1.1 0 01.14-.099zm6.137.204L16 8.279l-1.26 1.492-.298 1.161.441 2.613c.015.09.061.172.13.233l.726.638a.397.397 0 00.526 0l.726-.638a.396.396 0 00.13-.233l.441-2.613-.302-1.161z"/><path fill="#FFEAA7" d="M14.74 9.771l-.298 1.161.441 2.613c.015.09.061.172.13.233l.726.638a.397.397 0 00.263.099V8.279L14.74 9.771z"/><path fill="#FFF" d="M12.634 8.262c-.713.564-.139 1.974-.139 1.974l1.856.825a.197.197 0 00.277-.135c.061-.273.165-.742.262-1.205l-2.256-1.459z"/><ellipse cx="13.844" cy="9.564" fill="#373F3F" rx=".614" ry=".804"/><ellipse cx="13.844" cy="9.564" fill="#FFF" rx=".323" ry=".423"/><path fill="#BEE758" d="M16 1.165c-.398 0-.531.099-.895.332s-1.293.779-1.625.995c-.386.251-.829.497-1.128 1.559s-.63 2.189-.564 2.885c.066.696.099 1.128.763 1.592.663.464 1.675 1.227 1.874 1.327.199.099.415.199.614-.133.139-.232.412-.682.663-1.028.098-.136.198-.133.298-.133V1.165z"/><path fill="#F7F7F7" d="M19.366 8.262c.713.564.139 1.974.139 1.974l-1.856.825a.197.197 0 01-.277-.135 96.319 96.319 0 01-.262-1.205l2.256-1.459z"/><ellipse cx="18.156" cy="9.564" fill="#2B3332" rx=".614" ry=".804"/><ellipse cx="18.156" cy="9.564" fill="#F7F7F7" rx=".323" ry=".423"/><path fill="#B1E346" d="M16 1.165c.398 0 .531.099.895.332.365.232 1.293.779 1.625.995.386.251.829.497 1.128 1.559.298 1.061.63 2.189.564 2.885s-.099 1.128-.763 1.592-1.675 1.227-1.874 1.327c-.199.099-.415.199-.614-.133a14.533 14.533 0 00-.663-1.028c-.098-.136-.198-.133-.298-.133V1.165z"/></svg>