<svg xmlns="http://www.w3.org/2000/svg" width="100%" height="100%" viewBox="-2.72 -2.72 37.44 37.44"><path fill="#E3E5E5" d="M13.25 11.846L8.421 7.567a.272.272 0 00-.45.234l.327 2.892-5.453-3.706c-.258-.176-.56.153-.362.396l3.578 4.396-4.687-1.239c-.282-.075-.467.288-.241.473L6.4 15.305l-2.907.883c-.26.079-.256.448.006.521l9.548 2.666.203-7.529z"/><path fill="#DADDDC" d="M18.782 11.846l4.829-4.279a.272.272 0 01.45.234l-.327 2.892 5.453-3.706c.259-.176.56.153.363.396l-3.578 4.396 4.687-1.239c.282-.075.467.288.241.473l-5.267 4.293 2.907.883c.26.079.256.448-.006.521l-9.548 2.666-.204-7.53z"/><path fill="#8D5B36" d="M16 20l-3.814-1.954c-1.936.766-3.94 2.164-3.709 4.242l.47 4.234a1 1 0 01-.287.818l-.367.367a1 1 0 00-.293.707V30a1 1 0 001 1h5s1.521-2.376 2-2.376V20z"/><path fill="#9E6E43" d="M14.375 30.188h.175c.485-.689 1.159-1.564 1.45-1.564V20l-1.625-.406v10.594z"/><path fill="#434C4B" d="M14.594 24.677c0 1.536-1.749 2.781-3.906 2.781a4.99 4.99 0 01-2.168-.481.377.377 0 01-.207-.341v-1.537c0-.26.258-.445.499-.348a5.058 5.058 0 001.876.351c1.563 0 2.902-.658 3.526-1.603.237.359.38.755.38 1.178z"/><path fill="#96643B" d="M16 10.168a6 6 0 00-5 5.915v10.919a2.41 2.41 0 01-.706 1.704l-.001.001a1 1 0 00-.293.707V31a1 1 0 001 1h3a1 1 0 001-1v-3.029c0-1.976.195-3.946.583-5.883l.257-1.283a.985.985 0 01.161-.363V10.168z"/><path fill="#505957" d="M15.024 25.465c.197-.083.413.076.413.289l-.102 1.715a.31.31 0 01-.169.28c-.628.311-1.281.458-2.104.458a4.986 4.986 0 01-2.168-.481.377.377 0 01-.207-.341v-1.537c0-.26.258-.445.499-.348a5.058 5.058 0 001.876.351 5.01 5.01 0 001.962-.386z"/><path fill="#845331" d="M16 20l3.814-1.954c1.936.766 3.94 2.164 3.709 4.242l-.47 4.234a1 1 0 00.287.818l.367.367a1 1 0 01.293.707V30a1 1 0 01-1 1h-5s-1.521-2.376-2-2.376V20z"/><path fill="#96643B" d="M17.625 30.188h-.175c-.485-.689-1.159-1.564-1.45-1.564V20l1.625-.406v10.594z"/><path fill="#373F3F" d="M17.786 23.499c.624.945 1.963 1.603 3.526 1.603.683 0 1.321-.129 1.876-.351a.368.368 0 01.499.348v1.537a.377.377 0 01-.207.341c-.621.3-1.362.481-2.168.481-2.157 0-3.906-1.245-3.906-2.781 0-.423.143-.819.38-1.178z"/><path fill="#8D5B36" d="M16 10.168a6 6 0 015 5.915v10.919c0 .639.254 1.252.706 1.704l.001.001a1 1 0 01.293.707V31a1 1 0 01-1 1h-3a1 1 0 01-1-1v-3.029c0-1.976-.195-3.946-.583-5.883l-.257-1.283a.985.985 0 00-.161-.363V10.168z"/><path fill="#EDEEEE" d="M16 17h-2.167c0 .875 1.042 3.441 2.167 3.441s2.167-2.566 2.167-3.441H16z"/><path fill="#434C4B" d="M18.938 25.852c.683 0 1.32-.129 1.876-.351a.368.368 0 01.499.348v1.537a.375.375 0 01-.207.341c-.621.3-1.362.481-2.168.481-.823 0-1.476-.147-2.104-.458a.312.312 0 01-.169-.28l-.102-1.715c0-.214.216-.373.413-.289a5.046 5.046 0 001.962.386z"/><path fill="#F7F7F7" d="M13.833 17c0 .875 1.042 3.441 2.167 3.441V17h-2.167z"/><path fill="#9E6E43" d="M16 .948c-.305-.305-.726-.771-1.28-.942-.125-.038-.226.107-.147.212.239.314.334.491.388.73-.35 0-2.721-.694-4.566 2.699a.134.134 0 00.194.175c.451-.301.767-.281 1.121-.383-1.152.72-1.492 2.142-1.58 2.949-.014.129.148.2.233.102.478-.553 1.003-.666 1.314-.582-.955.637-1.8 2.474-1.307 3.652.038.09.151.112.221.045.512-.494 1.124-.763 1.689-.814-.997 1.689-1.294 6.759-2.696 8.961-.073.114.056.251.176.189.493-.256.833-.571 1.146-.771-.359.629-.469 1.266-.496 2.247-.003.126.154.188.236.093.509-.584.914-1.099 1.69-1.77.194.852.689 2.308 1.429 3.117.09.098.258.015.23-.116-.281-1.346.27-3.046.631-3.437.134.402.871-.991 1.374-.991V.948z"/><path fill="#A0422C" d="M16 5.184v3.031l-2.746 4.463c-.08.131-.282.073-.281-.081l.034-4.344-2.094-.508a.151.151 0 01-.031-.283l2.088-1.028-1.602-2.158c-.085-.115.021-.273.159-.237L16 5.184z"/><path fill="#FFF" d="M13.527 5.004c0 .716-.065 1.269.749 1.53.49.157 1.53.195 1.53.195l-.066-1.432-2.213-.293z"/><path fill="#E55D53" d="M14.891 6.653c.154-.134.263-.379.263-.673 0-.431-.226-.781-.504-.781s-.504.35-.504.781c0 .22.06.418.155.56.16.049.373.086.59.113z"/><ellipse cx="14.601" cy="6.046" fill="#373F3F" rx=".195" ry=".325"/><path fill="#96643B" d="M16 .948c.305-.305.726-.771 1.28-.942.125-.038.226.107.147.212-.239.314-.334.491-.388.73.35 0 2.721-.694 4.566 2.699a.134.134 0 01-.194.175c-.451-.301-.767-.282-1.121-.383 1.152.72 1.492 2.142 1.58 2.949.014.129-.148.2-.233.102-.478-.553-1.003-.666-1.314-.582.955.637 1.8 2.474 1.307 3.652a.136.136 0 01-.221.045c-.512-.495-1.124-.763-1.689-.815.997 1.689 1.294 6.759 2.696 8.961.073.114-.056.251-.176.189-.493-.256-.833-.571-1.146-.771.359.629.469 1.266.496 2.247.003.126-.154.188-.236.093-.509-.584-.914-1.099-1.69-1.77-.194.852-.689 2.308-1.429 3.117-.09.098-.258.015-.23-.116.281-1.346-.27-3.046-.631-3.437-.134.402-.871-.928-1.374-.928V.948z"/><path fill="#FFE28A" d="M16.917 9.292h-1.834c-.458 1.333-2.167 8.333 0 9.333-.208-.625-.208-1.167.083-1.458.167.875.583 2.125.833 2.125s.667-1.25.833-2.125c.292.292.292.833.083 1.458 2.168-1 .46-8 .002-9.333z"/><path fill="#923D27" d="M16 5.184v3.031l2.746 4.463c.08.131.282.073.281-.081l-.034-4.344 2.094-.508a.151.151 0 00.031-.283L19.03 6.434l1.602-2.158c.085-.115-.021-.273-.159-.237L16 5.184z"/><path fill="#F7F7F7" d="M18.473 5.004c0 .716.065 1.269-.749 1.53-.49.157-1.53.195-1.53.195l.065-1.432 2.214-.293z"/><path fill="#D64F45" d="M17.109 6.653c-.154-.134-.263-.379-.263-.673 0-.431.226-.781.504-.781s.504.35.504.781c0 .22-.06.418-.155.56-.16.049-.373.086-.59.113z"/><ellipse cx="17.399" cy="6.046" fill="#2B3332" rx=".195" ry=".325"/><path fill="#FFEAA7" d="M15.083 9.292c-.458 1.333-2.167 8.333 0 9.333-.208-.625-.208-1.167.083-1.458.167.875.583 2.125.833 2.125v-10h-.916z"/><path fill="#E5C79A" d="M17.5 8.469l-1.5-1-1.5 1S14.312 10.5 16 10.5c1.687 0 1.5-2.031 1.5-2.031z"/><path fill="#EACEA1" d="M16 7.469l-1.5 1S14.312 10.5 16 10.5V7.469z"/><path fill="#E3E5E5" d="M18.083 8.031c-.13-.163-1.53-1.041-1.53-1.041V5.981c-.26-.261-.553-.033-.553-.033s-.293-.228-.553.033V6.99s-1.399.879-1.53 1.041.553 3.417 1.041 3.677V8.552L16 8.259l1.041.293v3.157c.489-.261 1.172-3.515 1.042-3.678z"/><path fill="#EDEEEE" d="M15.447 5.981V6.99s-1.399.879-1.53 1.041.553 3.417 1.041 3.678V8.552L16 8.259V5.948s-.293-.228-.553.033z"/><path fill="#FFD96C" d="M19.53 3.062c-.21.43-.456.803-1.447.803-.456 0-1.302-.033-1.562.586-.033-.358-.196-2.701-.521-2.701s-.488 2.343-.521 2.701c-.26-.618-1.107-.586-1.562-.586-.991 0-1.237-.373-1.447-.803-.03-.061-.122-.041-.123.027-.014.883.109 2.338 1.635 2.338 1.953 0 1.334 1.562 2.018 1.562s.065-1.562 2.018-1.562c1.526 0 1.649-1.455 1.635-2.338-.001-.067-.093-.088-.123-.027z"/><path fill="#FFE28A" d="M12.47 3.062c-.03-.061-.122-.041-.123.027-.014.883.109 2.338 1.635 2.338 1.953 0 1.334 1.562 2.018 1.562V1.75c-.325 0-.488 2.343-.521 2.701-.26-.618-1.107-.586-1.562-.586-.991 0-1.237-.372-1.447-.803z"/></svg>