<svg xmlns="http://www.w3.org/2000/svg" width="100%" height="100%" viewBox="-2.72 -2.72 37.44 37.44"><path fill="#c8cccb" d="M1.866 21.838L.317 19.866v4.191l4.049-4.965-1.831-2.245-.669 4.991z"/><path fill="#a8364c" d="M13.275 11.838s-.669 2.782-.775 3.345c-1.636-1.11-5.101.619-7.97 3.062l.974 1.997c.143-.098.27-.176.41-.268l.469-1.233 1.39.078a17.603 17.603 0 013.39-1.558l-.071 2.852a28.529 28.529 0 00-2.048 2.29 1.336 1.336 0 01.024 2.385 8.935 8.935 0 00.791.818L8.1 26.733h4.26l.316-.705 1.375-.563H16v-13.78z"/><path fill="#edeeee" d="M13.543 12.127c-.297-.157-.202 1 .103 2.188a2.855 2.855 0 011.337.708 3.594 3.594 0 00-1.166-.113c.036.113.077.218.117.326a2.61 2.61 0 011.12.366 4.096 4.096 0 00-.937.087 2.228 2.228 0 00.63.922A1.585 1.585 0 0116 15.967v-4.288c-1.358-.005-2.457-1.22-2.457.448z"/><path fill="#4eafa3" d="M13.934 15.236c.058.16.119.31.183.453a4.096 4.096 0 01.938-.087 2.61 2.61 0 00-1.121-.366zm1.049-.213a2.855 2.855 0 00-1.337-.708c.052.2.109.399.171.595a3.594 3.594 0 011.166.113z"/><path fill="#e2959e" d="M14.747 16.61c.367.659.795 1.112 1.253 1.118v-1.761a1.585 1.585 0 00-1.253.644z"/><path fill="#45a396" d="M5.913 19.974a30.828 30.828 0 011.86-1.155l-1.39-.078z"/><path fill="#d1d4d4" d="M0 24.866a39.48 39.48 0 015.504-4.624l-.974-1.997C2.028 20.377-.02 23.053 0 24.866z"/><path fill="#45a396" d="M9.789 23.599a1.24 1.24 0 00-.745-1.195 2.801 2.801 0 00-.628 1.124 2.258 2.258 0 00.652 1.26 1.25 1.25 0 00.721-1.19zm2.007-5.176l.879-1.092-.703 1.761.703-.388-.879 2.571-.176-.823-.458.823.388-1.409-.388-.281.528-2.043.106.881z"/><ellipse cx="14.983" cy="13.443" fill="#fff" rx=".687" ry="1.148"/><ellipse cx="14.962" cy="13.482" fill="#373f3f" rx=".215" ry=".552"/><path fill="#dadddc" d="M12.675 10.822c0 .997 1.033 2.254 3.325 3.166v-5.53c-2.205 0-3.325.756-3.325 2.364z"/><path fill="#e3e5e5" d="M16 9.774v-4.5c-1.89 2.82-1.558 4.77 0 4.5z"/><path fill="#b9bfbe" d="M30.134 21.831l1.549-1.972v4.19l-4.049-4.964 1.831-2.245.669 4.991z"/><path fill="#993147" d="M19.5 15.176c-.106-.563-.775-3.345-.775-3.345L16 11.678v13.78h1.95l1.375.563.316.705h4.26l-1.76-1.127a8.937 8.937 0 00.79-.818 1.336 1.336 0 01.025-2.385 28.529 28.529 0 00-2.048-2.29l-.07-2.852a17.606 17.606 0 013.39 1.557l1.39-.077.469 1.233c.138.092.266.17.409.268l.974-1.997c-2.869-2.443-6.334-4.171-7.97-3.062z"/><path fill="#e3e5e5" d="M18.457 12.12c.297-.157.202 1-.103 2.188a2.855 2.855 0 00-1.337.708 3.594 3.594 0 011.166-.113c-.036.113-.077.218-.117.326a2.61 2.61 0 00-1.12.366 4.097 4.097 0 01.937.087 2.228 2.228 0 01-.63.922A1.585 1.585 0 0016 15.96v-4.288c1.358-.005 2.457-1.22 2.457.448z"/><path fill="#45a396" d="M18.066 15.229c-.058.16-.119.31-.183.453a4.097 4.097 0 00-.938-.087 2.61 2.61 0 011.121-.366zm-1.049-.213a2.855 2.855 0 011.337-.708c-.052.2-.109.399-.171.595a3.594 3.594 0 00-1.166.113z"/><path fill="#e08c96" d="M17.253 16.604c-.367.658-.795 1.111-1.253 1.117V15.96a1.585 1.585 0 011.253.644z"/><path fill="#3e9b8d" d="M26.087 19.967a30.828 30.828 0 00-1.86-1.156l1.39-.077z"/><path fill="#c8cccb" d="M32 24.86a39.479 39.479 0 00-5.504-4.625l.974-1.997c2.502 2.132 4.55 4.808 4.53 6.621z"/><path fill="#3e9b8d" d="M22.211 23.592a1.24 1.24 0 01.745-1.196 2.801 2.801 0 01.628 1.125 2.258 2.258 0 01-.652 1.26 1.25 1.25 0 01-.721-1.19z"/><ellipse cx="17.017" cy="13.436" fill="#f7f7f7" rx=".687" ry="1.148"/><ellipse cx="17.038" cy="13.475" fill="#2b3332" rx=".215" ry=".552"/><path fill="#d1d4d4" d="M19.325 10.815c0 .997-1.033 2.254-3.325 3.166V8.45c2.205 0 3.325.756 3.325 2.364z"/><path fill="#dadddc" d="M16 9.767v-4.5c1.89 2.82 1.558 4.77 0 4.5z"/><path fill="#3e9b8d" d="M19.656 18.697l.878-1.092-.702 1.761.702-.388-.878 2.571-.176-.823-.458.823.387-1.409-.387-.281.528-2.043.106.881zm-2.193-.691L16 19.487v1.506l1.463-2.987z"/><path fill="#45a396" d="M15.963 21.068l.037-.075v-1.506l-.413.418-.226-1.532-1.128 3.553.827.49-.827 2.45.978-1.432.376 1.432.413-.985v-2.829l-.037.016z"/><path fill="#3e9b8d" d="M16 21.052v2.829l1.463-3.486-1.463.657z"/></svg>