<svg xmlns="http://www.w3.org/2000/svg" width="100%" height="100%" viewBox="-2.72 -2.72 37.44 37.44"><path fill="#338c5d" d="M12.834 19.16c-2.11-2.91-3.587-5.506-1.257-7.626 6.055-4.532-7.217-6.818-2.437 0 .012 4.126 1.328 6.338 2.994 8.035.65.126.742-.1.7-.41z"/><path fill="#bad3c1" d="M14.44 21.426a6.092 6.092 0 01-.48-.184 1.887 1.887 0 01-.488 1.482c-2.286 2.615 1.226 4.364 2.528 2.199v-2.897zm2.612 1.004L16 22.027v2.897a3.103 3.103 0 00.389-1.086 2.335 2.335 0 01.663-1.406z"/><path fill="#349363" d="M12.862 14.37a8.332 8.332 0 00-3.399-.38c2.134-4.064 4.32-5.735 6.537-6.093v-.66c-2.668-.011-5.747.834-8.757 6.738-2.498.423-4.081.977-4.467 1.702l2.512 7.67a7.44 7.44 0 003.973-3.199 1.285 1.285 0 01.647-.475v-.005c2.886-2.536 3.97.301 6.092 1.759V17.01a6.951 6.951 0 00-3.138-2.64z"/><path fill="#338c5d" d="M19.787 8.356a7.83 7.83 0 004.828.673c2.583 2.258 2.735-2.635.158-.673-3.037.654-5.24-1.069-7.558-1.069-.394-.027-.8-.048-1.215-.05v.66a7.645 7.645 0 013.787.459zm.075 13.55l.558-.214c4.683-5.342 8.6-7.24 11.634-5.17-.229-.551-.374-1.134-1.701-1.28-3.921-.945-7.073.788-10.787 3.417-1.524 1.219-1.963.578-2.43.002A14.612 14.612 0 0116 17.01v4.416a4.035 4.035 0 003.862.48z"/><path fill="#c8dac8" d="M9.907 19.668l.001.005a2.093 2.093 0 012.242.475A6.773 6.773 0 0016 22.993v-1.566c-2.122-1.458-3.206-4.295-6.093-1.759z"/><path fill="#bad3c1" d="M19.862 21.906A4.035 4.035 0 0116 21.427v1.567a4.197 4.197 0 00.82.083z"/><path fill="#bad3c1" d="M20.42 21.692a7.102 7.102 0 01-.558.214l-3.043 1.17a2.72 2.72 0 01.773 1.638c.744 4.326 6.418 2.159 3.398-1.296a2.198 2.198 0 01-.57-1.726z"/><path fill="#c8dac8" d="M28.216 13.975c-.147-1.364-1.139-1.349-3.166.356-.7-1.999-1.999-.857-3.522 1.464-.72-1.167-1.592-1.29-2.81.948-.343.94-.743 1.918-1.582 1.918.467.576.906 1.217 2.43-.002 3.714-2.628 6.866-4.362 10.787-3.418 1.138-.926.051-1.246-2.137-1.266z"/><path fill="#d5e1cf" d="M9.463 13.99a8.332 8.332 0 013.399.38l.232-.073c.4-.194.715-.801.836-2.38.768.207 1.482-.213 2.07-2.096V7.897c-2.216.358-4.403 2.03-6.537 6.094z"/><path fill="#f4dfa2" d="M19.787 8.356A7.645 7.645 0 0016 7.897v1.924c.01-.029.019-.05.028-.08 1.686.413 3.023.12 3.76-1.385z"/><path fill="#aadb3d" d="M6.194 17.213c.381-1.223 4.008-1.62 6.22-.69.458.07.385.93-.073.859-.74-.175-2.171-.86-1.918 0 .246 1.246-2.27 1.741-2.515.495-.402-1.701-2.855 1.19-1.714-.664z"/><ellipse cx="4.398" cy="19.36" fill="#cb6278" rx="3.047" ry="4.084" transform="rotate(-12.585 4.398 19.36)"/><ellipse cx="4.237" cy="19.429" fill="#2b3332" rx="1.641" ry="2.215" transform="rotate(-16.783 4.237 19.429)"/><path fill="#dadddc" d="M3.638 18.842l2.097-2.295c.436-.244 1.346 1.378.91 1.623zm0 4.503l1.9-2.08c.396-.222 1.22 1.248.825 1.47zm-3.692-1.388l1.9-2.08c.396-.221 1.22 1.249.825 1.47zm.415-3.759l1.901-2.08c.396-.222 1.22 1.249.825 1.47z"/><ellipse cx="9.168" cy="17.353" fill="#db7383" rx=".875" ry=".748"/><circle cx="8.983" cy="17.191" r=".325" fill="#2b3332"/><circle cx="13.714" cy="17.265" r=".522" fill="#aadb3d"/><circle cx="15.091" cy="17.857" r=".341" fill="#aadb3d"/><path fill="#379b6d" d="M16 10.34V6.697c-1.202.698-1.732 2.01 0 3.641zm-.719 9.017c-.045.333.054.575.719.462v-1.483q-.344.505-.719 1.02z"/><path fill="#349363" d="M19.374 10.908c3.298-4.704-1.161-5.495-3.374-4.21v3.641a7.678 7.678 0 00.674.57c2.305 2.097 1.244 4.616-.674 7.427v1.483c.02-.004.035-.004.056-.008 1.846-1.881 3.304-4.331 3.318-8.903z"/><circle cx="17.833" cy="8.665" r="1.624" fill="#c95c73"/><path fill="#d1d4d4" d="M16.854 7.368c.122.386 1.555-.07 1.433-.455l-1.474-2.035z"/><path fill="#dadddc" d="M15.078 11.424l.922-.477v-1.28l-.922 1.757z"/><path fill="#d1d4d4" d="M16.245 9.2L16 9.666v1.28l1.29-.667c.291-.281-.754-1.362-1.045-1.08zm2.898.566l2.51-.086-2.088-1.356c-.388-.114-.81 1.329-.422 1.442z"/><circle cx="17.833" cy="8.665" r=".948" fill="#a2d336"/></svg>