<svg xmlns="http://www.w3.org/2000/svg" width="100%" height="100%" viewBox="-2.72 -2.72 37.44 37.44"><path fill="#8fcec9" d="M19.06 13.475a21.54 21.54 0 003.845-1.372 1.352 1.352 0 01.555-.264 12.821 12.821 0 00.557-4.46 9.401 9.401 0 00-1.929-5.525A3.569 3.569 0 0019.475.127 19.828 19.828 0 0016 .062v6.184c.06-.024.126-.092.24-.233.42-.516.838-1.034 1.26-1.548.109-.132.23-.269.427-.198a.886.886 0 01.502.43c.059.114-.024.21-.103.299-.57.64-1.132 1.286-1.708 1.92a.748.748 0 00-.214.54c-.012 1.747-.043 3.494-.05 5.242-.001.295-.072.487-.354.54v.563a11.763 11.763 0 002.115-.128.847.847 0 01.945-.198zm.34-10.019a3.613 3.613 0 01.54-1.756.762.762 0 011.142-.205 3.993 3.993 0 011.264 1.473 8.104 8.104 0 011.05 3.975 4.433 4.433 0 01-.413 2.193.88.88 0 01-1.518.271 6.57 6.57 0 01-1.521-2.447 7.46 7.46 0 01-.545-3.504zm-2.035 9.212c-.005-.564-.001-1.127-.001-1.56a2.15 2.15 0 01.613-2.1c.33-.384.642-.786.949-1.19a.374.374 0 01.607-.063.356.356 0 01.069.595c-.426.512-.82 1.049-1.247 1.56a.75.75 0 00-.181.553c.028.722.04 1.443.068 2.165.01.274-.074.427-.374.435-.29.007-.5-.064-.503-.395zm3.048 13.148c-.196-.2-.181-.476-.248-.718-.32-1.16-.725-2.29-1.116-3.425a.164.164 0 01-.064-.146c-.267-.672-.54-1.343-.796-2.02-.046-.122-.22-.34.122-.347a13.655 13.655 0 003.581-3.939 10.827 10.827 0 01-2.163.843c-.098.214-.18.437-.295.641a.773.773 0 01-1.423.034c-.054-.084-.117-.163-.175-.244L16 16.658v13.305l.426-.014.865-.079c.047-.497-.069-.987-.067-1.482a1.633 1.633 0 011.436-1.497c.169-.01.338-.008.508 0a.579.579 0 01.636.52c.097.458.176.92.263 1.38a.887.887 0 01.049-.364 3.437 3.437 0 00.266-2.389.282.282 0 01.03-.222z"/><path fill="#79c6c1" d="M25.832 24.98a2.913 2.913 0 00-2.037-2.074c-.594-.176-1.185-.36-1.792-.482a1.093 1.093 0 01-.606-.326c-.989-1.02-2.038-1.98-3.086-2.938-.341.007-.168.225-.122.347.257.677.53 1.348.796 2.02l.069.07q.892.803 1.783 1.608a.475.475 0 01.134.19 11.398 11.398 0 00.615 1.573c.031.062-.01.106-.028.157a3.345 3.345 0 01.82 1.16c.223-.025.3.2.467.272.252-.61.75-.805 1.162-.447a.808.808 0 01.177.98 1.569 1.569 0 001.578-.682c-.453.01-.689-.12-.815-.449a.737.737 0 01.196-.861.603.603 0 01.689-.118zm-2.49.28a.727.727 0 01-.694-.727.737.737 0 01.66-.76.727.727 0 01.693.727.737.737 0 01-.66.76z"/><path fill="#a7d8d3" d="M20.067 28.79c-.087-.46-.166-.92-.263-1.378a.579.579 0 00-.636-.522 5.528 5.528 0 00-.508 0 1.633 1.633 0 00-1.436 1.497c-.002.496.114.986.067 1.483.063.407.114.816.191 1.22.156.817.16.84.99.898a2.808 2.808 0 001.544-.256.614.614 0 00.363-.74 13.328 13.328 0 01-.243-1.869c-.1-.095-.05-.22-.07-.332z"/><path fill="#8fcec9" d="M19.19 13.557a2.728 2.728 0 01.556 2.346 9.304 9.304 0 002.29-1.008c.025-.059.05-.037.074 0 .214-.407.441-.808.64-1.224a7.219 7.219 0 00.642-1.696l-.412.188a14.836 14.836 0 01-3.79 1.394z"/><path fill="#67bfb5" d="M20.413 25.816a.282.282 0 00-.03.222 3.437 3.437 0 01-.267 2.389.887.887 0 00-.05.364c.02.111-.03.237.07.332a4.234 4.234 0 002.242-2.838 3.345 3.345 0 00-.82-1.16 8.927 8.927 0 01-1.145.691z"/><path fill="#f7c845" d="M22.845 26.557a.774.774 0 00.487.83.733.733 0 00.852-.297.808.808 0 00-.177-.98c-.411-.358-.91-.164-1.162.447z"/><path fill="#dd7731" d="M25.143 25.098a.737.737 0 00-.196.861c.126.33.362.458.815.45.619-.437.646-.997.07-1.429a.603.603 0 00-.689.118z"/><path fill="#318474" d="M19.746 15.903l-.017.16a10.827 10.827 0 002.163-.842l.155-.25-.011-.076a9.304 9.304 0 01-2.29 1.008z"/><path fill="#678694" d="M22.036 14.895l.01.076.064-.076c-.025-.037-.05-.059-.074 0z"/><path fill="#58b7ae" d="M21.081 1.495a.762.762 0 00-1.142.205 3.613 3.613 0 00-.54 1.756 7.46 7.46 0 00.545 3.504 6.57 6.57 0 001.521 2.447.88.88 0 001.518-.271 4.433 4.433 0 00.412-2.193 8.104 8.104 0 00-1.05-3.975 3.993 3.993 0 00-1.264-1.473z"/><path fill="#3a3333" d="M16.354 12.698c.007-1.748.038-3.495.05-5.243a.748.748 0 01.215-.539c.575-.634 1.138-1.28 1.707-1.92.079-.088.162-.185.103-.3a.886.886 0 00-.502-.429c-.197-.07-.318.065-.427.198-.422.514-.84 1.031-1.26 1.548-.114.14-.18.209-.24.233v6.992c.282-.053.353-.245.354-.54z"/><path fill="#7aebac" d="M19.06 13.474a.848.848 0 00-.945.199l-.089.143a3.232 3.232 0 00-.253 2.544l.063.135c.059.081.121.16.175.244a.773.773 0 001.423-.034c.115-.204.197-.427.295-.641l.017-.161a2.728 2.728 0 00-.556-2.346zm.334 1.253a.392.392 0 01-.412.378.438.438 0 01-.405-.491.405.405 0 01.389-.463c.228-.018.432.241.428.576z"/><path fill="#3a3333" d="M19.533 7.755a.374.374 0 00-.607.063c-.307.404-.618.806-.95 1.19a2.15 2.15 0 00-.612 2.1c0 .433-.005.996.001 1.56.004.331.214.402.503.395.3-.008.385-.16.374-.435-.029-.722-.04-1.443-.068-2.165a.75.75 0 01.18-.554c.427-.51.822-1.047 1.248-1.559a.356.356 0 00-.07-.595z"/><path fill="#318474" d="M18.115 13.673A11.763 11.763 0 0116 13.8v.213l2.026-.198zm4.79-1.57a21.533 21.533 0 01-3.845 1.371l.13.083a14.836 14.836 0 003.79-1.394l.412-.188.068-.136a1.354 1.354 0 00-.555.264zm-5.132 4.257a11.2 11.2 0 01-1.773.083v.215l1.836-.163-.063-.135z"/><path fill="#cad7d7" d="M19.049 21.673l.005-.075-.069-.07a.164.164 0 00.064.145z"/><path fill="#7aebac" d="M23.308 23.773a.737.737 0 00-.66.76.727.727 0 00.693.728.737.737 0 00.66-.761.727.727 0 00-.693-.727z"/><path fill="#8fcec9" d="M18.026 13.816L16 14.014v2.43a11.22 11.22 0 001.773-.084 3.23 3.23 0 01.253-2.544z"/><path fill="#fff" d="M18.966 14.151a.405.405 0 00-.389.463.438.438 0 00.405.49.392.392 0 00.412-.377c.004-.335-.2-.594-.428-.576z"/><path fill="#a7d8d3" d="M13.885 13.673A11.763 11.763 0 0016 13.8v-.563c-.282-.053-.353-.245-.354-.54-.007-1.748-.038-3.495-.05-5.243a.748.748 0 00-.215-.539c-.576-.634-1.138-1.28-1.707-1.92-.079-.088-.162-.185-.103-.3a.886.886 0 01.502-.429c.197-.07.318.066.427.198.422.514.84 1.032 1.26 1.548.114.14.18.209.24.233V.062a19.828 19.828 0 00-3.475.065 3.569 3.569 0 00-2.613 1.727A9.401 9.401 0 007.983 7.38a12.821 12.821 0 00.557 4.46 1.352 1.352 0 01.555.263 21.54 21.54 0 003.845 1.372.847.847 0 01.945.198zM12.056 6.96a6.57 6.57 0 01-1.521 2.447.88.88 0 01-1.518-.271 4.433 4.433 0 01-.412-2.193 8.104 8.104 0 011.05-3.975 3.993 3.993 0 011.264-1.473.762.762 0 011.142.205 3.613 3.613 0 01.54 1.756 7.46 7.46 0 01-.545 3.504zm2.076 6.103c-.3-.008-.385-.16-.374-.435.029-.722.04-1.443.068-2.165a.75.75 0 00-.18-.554c-.427-.51-.822-1.047-1.248-1.559a.356.356 0 01.07-.595.374.374 0 01.606.063c.307.404.619.806.95 1.19a2.15 2.15 0 01.612 2.1c0 .433.005.996-.001 1.56-.004.331-.214.402-.503.395zm-2.297 12.035c.32-1.16.725-2.29 1.116-3.425a.164.164 0 00.064-.146c.267-.672.54-1.343.796-2.02.046-.122.22-.34-.122-.347a13.655 13.655 0 01-3.581-3.939 10.827 10.827 0 002.163.843c.098.214.18.437.295.641a.773.773 0 001.423.034c.054-.084.116-.163.175-.244l1.836.163v13.305l-.426-.014-.865-.079c-.047-.497.069-.987.067-1.482a1.633 1.633 0 00-1.436-1.497 5.528 5.528 0 00-.508 0 .579.579 0 00-.636.52c-.097.458-.176.92-.263 1.38a.887.887 0 00-.049-.364 3.437 3.437 0 01-.266-2.389c.016-.085.15-.698.217-.94z"/><path fill="#8fcec9" d="M6.857 25.098a.737.737 0 01.196.861c-.126.33-.362.458-.815.45a1.569 1.569 0 001.578.681.808.808 0 01.177-.98c.411-.358.91-.164 1.162.447a13.697 13.697 0 001.26-1.59 11.398 11.398 0 00.614-1.572.475.475 0 01.134-.19q.889-.807 1.783-1.607l.069-.07c.267-.673.54-1.344.796-2.021.046-.122.22-.34-.122-.347-1.048.959-2.097 1.917-3.086 2.938a1.093 1.093 0 01-.606.326c-.607.122-1.198.307-1.792.482a2.913 2.913 0 00-2.037 2.075.603.603 0 01.689.117zm1.142-.598a.727.727 0 01.693-.727.737.737 0 01.66.76.727.727 0 01-.693.728.737.737 0 01-.66-.761z"/><path fill="#b6ddd9" d="M11.933 28.79c.087-.46.166-.92.263-1.378a.579.579 0 01.636-.522c.17-.007.34-.008.508 0a1.633 1.633 0 011.436 1.497c.002.496-.114.986-.067 1.483-.063.407-.114.816-.191 1.22-.156.817-.16.84-.99.898a2.808 2.808 0 01-1.544-.256.614.614 0 01-.363-.74 13.328 13.328 0 00.243-1.869c.1-.095.05-.22.07-.332z"/><path fill="#a7d8d3" d="M12.81 13.557a2.728 2.728 0 00-.556 2.346 9.304 9.304 0 01-2.29-1.008c-.025-.059-.05-.037-.074 0-.214-.407-.441-.808-.64-1.224a7.219 7.219 0 01-.642-1.696l.412.188a14.836 14.836 0 003.79 1.394z"/><path fill="#ffd04d" d="M9.155 26.557a.774.774 0 01-.487.83.733.733 0 01-.852-.297.808.808 0 01.177-.98c.411-.358.91-.164 1.162.447z"/><path fill="#ef8c48" d="M6.857 25.098a.737.737 0 01.196.861c-.126.33-.362.458-.815.45-.619-.437-.646-.997-.07-1.429a.603.603 0 01.689.118z"/><path fill="#378c7c" d="M12.254 15.903l.017.16a10.827 10.827 0 01-2.163-.842l-.155-.25.011-.076a9.304 9.304 0 002.29 1.008z"/><path fill="#678694" d="M9.964 14.895l-.01.076-.064-.076c.025-.037.05-.059.074 0z"/><path fill="#67bfb5" d="M10.918 1.495a.762.762 0 011.143.205 3.613 3.613 0 01.54 1.756 7.46 7.46 0 01-.545 3.504 6.57 6.57 0 01-1.521 2.447.88.88 0 01-1.518-.271 4.433 4.433 0 01-.412-2.193 8.104 8.104 0 011.05-3.975 3.993 3.993 0 011.264-1.473z"/><path fill="#413b3b" d="M15.646 12.698c-.007-1.748-.038-3.495-.05-5.243a.748.748 0 00-.215-.539c-.576-.634-1.138-1.28-1.707-1.92-.079-.088-.162-.185-.103-.3a.886.886 0 01.502-.429c.197-.07.318.065.427.198.422.514.84 1.031 1.26 1.548.114.14.18.209.24.233v6.992c-.282-.053-.353-.245-.354-.54z"/><path fill="#99f2bd" d="M12.81 13.557a2.728 2.728 0 00-.556 2.346l.017.16c.098.215.18.438.295.642a.773.773 0 001.423.034c.054-.084.117-.163.175-.244l.063-.135a3.232 3.232 0 00-.253-2.544l-.09-.143a.848.848 0 00-.944-.199zm.224.594a.405.405 0 01.389.463.438.438 0 01-.405.49.392.392 0 01-.412-.377c-.004-.335.2-.594.428-.576z"/><path fill="#413b3b" d="M12.467 7.755a.374.374 0 01.607.063c.307.404.618.806.95 1.19a2.15 2.15 0 01.612 2.1c0 .433.004.996-.001 1.56-.004.331-.214.402-.503.395-.3-.008-.385-.16-.374-.435.029-.722.04-1.443.068-2.165a.75.75 0 00-.18-.554c-.427-.51-.822-1.047-1.248-1.559a.356.356 0 01.07-.595z"/><path fill="#378c7c" d="M13.885 13.673A11.763 11.763 0 0016 13.8v.213l-2.026-.198zm-4.79-1.57a1.354 1.354 0 00-.555-.264l.068.136.412.188a14.836 14.836 0 003.79 1.394l.13-.083a21.533 21.533 0 01-3.845-1.371zm5.132 4.257a11.2 11.2 0 001.773.083v.215l-1.836-.163.063-.135z"/><path fill="#cad7d7" d="M12.951 21.673l-.005-.075.069-.07a.164.164 0 01-.064.145z"/><path fill="#99f2bd" d="M8.692 23.773a.737.737 0 01.66.76.727.727 0 01-.693.728.737.737 0 01-.66-.761.727.727 0 01.693-.727z"/><path fill="#a7d8d3" d="M13.974 13.816l2.026.198v2.43a11.22 11.22 0 01-1.773-.084 3.23 3.23 0 00-.253-2.544z"/><path fill="#fff" d="M13.034 14.151a.405.405 0 01.389.463.438.438 0 01-.405.49.392.392 0 01-.412-.377c-.004-.335.2-.594.428-.576z"/></svg>