<svg xmlns="http://www.w3.org/2000/svg" width="100%" height="100%" viewBox="-2.72 -2.72 37.44 37.44"><path fill="#E8AAB1" d="M16 10.001c-.375 0-.755.02-1.138.062-4.648.513-8.396 4.344-8.819 9.001a9.978 9.978 0 002.147 7.182c.371.464 1.07.495 1.49.075L16 20v-9.999z"/><path fill="#E59FA8" d="M16 10.001c.375 0 .755.02 1.138.062 4.648.513 8.396 4.344 8.819 9.001a9.978 9.978 0 01-2.147 7.182 1.004 1.004 0 01-1.49.075L16 20v-9.999z"/><path fill="#F0C4CA" d="M15.208 0a1 1 0 00-.982 1.187l.379 1.989c-.121.029-.242.056-.36.092l-.799-2.097a1 1 0 00-1.489-.476l-.982.655a1 1 0 00-.18 1.51l1.394 1.51a5.978 5.978 0 00-1.633 7.145c.317.681.137 1.465-.379 2.011-1.681 1.783-2.555 4.333-2.021 7.077.607 3.12 3.119 5.635 6.239 6.241a8.343 8.343 0 001.604.145V0h-.791z"/><path fill="#ECB7BE" d="M21.869 13.575c-.538-.58-.723-1.401-.397-2.121a6.01 6.01 0 00.39-3.756c-.281-1.322-1.031-2.485-2.049-3.327l1.394-1.51a1 1 0 00-.18-1.51l-.982-.655a1 1 0 00-1.489.476l-.799 2.097c-.119-.036-.236-.074-.358-.102l.377-1.979A1.003 1.003 0 0016.792 0H16v26.989c4.417-.001 8-3.571 8-7.989 0-2.097-.81-4-2.131-5.425z"/><path fill="#F7C845" d="M17.91 26l-.903 5.418A.5.5 0 0017.5 32h5.91a.5.5 0 00.5-.5v-.001c0-.881-.6-1.649-1.454-1.863L19.91 29v-4l-2 1z"/><path fill="#FFD04D" d="M14 26l.903 5.418a.5.5 0 01-.493.582H8.5a.5.5 0 01-.5-.5v-.001c0-.881.6-1.649 1.454-1.863L12 29v-4l2 1z"/><path fill="#FFF" d="M15.5 11l-3.141-3.589a.5.5 0 00-.771.018C11.313 7.779 11 8.324 11 9c0 .908.565 1.581.846 1.859a.485.485 0 00.349.141H15.5z"/><path fill="#FCE8CC" d="M16 15a7 7 0 00-7 7c0 .347.034.685.082 1.018 1.13 1.942 3.056 3.387 5.313 3.826a8.28 8.28 0 001.604.149V15z"/><path fill="#F5DEB9" d="M22.921 22.996c.047-.326.079-.657.079-.996a7 7 0 00-7-7v11.993a7.988 7.988 0 006.921-3.997z"/><path fill="#F7F7F7" d="M16.5 11l3.141-3.589a.5.5 0 01.771.018c.275.35.588.895.588 1.571 0 .908-.565 1.581-.846 1.859a.485.485 0 01-.349.141H16.5z"/><path fill="#FFF" d="M17.716 18.1l-5.47 4.254a1 1 0 00-.093 1.496l1.934 1.934a1 1 0 001.496-.093l4.254-5.47-2.121-2.121z"/><path fill="#E08C96" d="M25.162 24H21.5a.5.5 0 00-.5.5v2a.5.5 0 00.5.5h.732c.613 0 1.193-.28 1.576-.758A9.977 9.977 0 0025.162 24z"/><path fill="#9ACC2E" d="M22.737 13.078L24.651 15l4.803-4.426a.5.5 0 00.015-.721l-1.399-1.4a.5.5 0 00-.707 0l-4.626 4.625z"/><path fill="#A2D336" d="M30.681 11.785l-.763-2.125a.5.5 0 00-.719-.265L22.716 13.1l-5 5 2.121 2.121L24.651 15l5.764-2.589a.501.501 0 00.266-.626z"/><path fill="#E2959E" d="M25.95 21H19.5a.5.5 0 00-.5.5v2a.5.5 0 00.5.5h5.662a9.949 9.949 0 00.788-3z"/><path fill="#E59FA8" d="M18.5 18a.5.5 0 00-.5.5v2a.5.5 0 00.5.5h7.45a10.008 10.008 0 00-.151-3H18.5z"/><path fill="#E8AAB1" d="M24.651 15H19.5a.5.5 0 00-.5.5v2a.5.5 0 00.5.5h6.299a9.903 9.903 0 00-1.148-3z"/><path fill="#604631" d="M16 7.993l-3.259-1.955c-.253-.152-.514.183-.305.391L16 9.993v-2z"/><path fill="#4F4032" d="M19.564 6.429c.208-.208-.053-.543-.305-.391L16 7.993v2l3.564-3.564z"/><path fill="#FFD04D" d="M16 10.236c-.306 0-.613.07-.894.211l-2.211 1.106a.999.999 0 00-.448 1.341l2.106 4.211c.274.549.834.895 1.447.895v-7.764z"/><path fill="#F7C845" d="M17.447 17.106l2.106-4.211a1 1 0 00-.447-1.342l-2.211-1.106a1.994 1.994 0 00-.894-.211V18c.612 0 1.172-.346 1.446-.894z"/><path fill="#373F3F" d="M13.986 9.27l-1.604-1.833C12.151 7.804 12 8.364 12 9c0 1.105.448 2 1 2 .506 0 .92-.754.986-1.73z"/><path fill="#2B3332" d="M20 9c0-.636-.151-1.196-.383-1.563L18.014 9.27c.066.976.48 1.73.986 1.73.552 0 1-.895 1-2z"/></svg>