<svg xmlns="http://www.w3.org/2000/svg" width="100%" height="100%" viewBox="-2.72 -2.72 37.44 37.44"><path fill="#FAC4D1" d="M3.065 19.568c.692 1.608 7.011-1.982 7.368-2.692.357-.71-.719-3.145-1.398-2.825-.755.355-6.719 3.779-5.97 5.517z"/><path fill="#F9ADC8" d="M12.146 22.207l-3.575.511c-1.881.269-3.314 1.84-3.314 3.744 0 .913.278 1.822.994 2.538l1 1.04-1.417.708c-.332.166-.583.345-.583.876 0 .251.152.374.287.374l6.363.002c.135 0 .349-.125.349-.575 0-.362-.207-.509-.391-.692l-.692-.692.979-1.041v-6.793z"/><path fill="#FDECEF" d="M7.25 31.938c0-.625-.243-1.185-.627-1.584l-.79.395c-.332.166-.583.345-.583.876 0 .251.152.374.287.374h1.707c.001-.021.006-.041.006-.061z"/><path fill="#D196A6" d="M28.486 12.381c-2.23 6.38-6.425 10.682-12.486 10.682V29c6.584 0 12.48-3.918 12.967-16.525.011-.285-.386-.363-.481-.094z"/><path fill="#EA8BB4" d="M28.486 12.381c-2.23 6.38-6.425 10.682-12.486 10.682V29c6.584 0 12.48-3.918 12.967-16.525.011-.285-.386-.363-.481-.094z"/><path fill="#3A3A38" d="M28.486 12.381c-.204.583-.43 1.142-.666 1.688.253.084.512.158.779.213.081.017.162.024.243.038.052-.598.1-1.203.125-1.845.012-.285-.386-.363-.481-.094z"/><path fill="#2B3332" d="M27.209 21.537c.599-1.43 1.067-3.097 1.372-5.038a9.82 9.82 0 01-1.684-.539c-.861 1.555-1.879 2.903-3.054 3.996a9.879 9.879 0 003.366 1.581z"/><path fill="#60CD96" d="M28.75 14.5a2.25 2.25 0 110-4.5 2.25 2.25 0 010 4.5z"/><path fill="#F8A1C4" d="M19.854 22.207l3.575.511c1.881.269 3.314 1.84 3.314 3.744 0 .913-.278 1.822-.994 2.538l-1 1.04 1.417.708c.332.166.583.345.583.876 0 .251-.152.374-.287.374L20.099 32c-.135 0-.349-.125-.349-.575 0-.362.207-.509.391-.692l.692-.692L19.854 29v-6.793z"/><path fill="#FDE2E6" d="M24.75 31.938c0-.625.243-1.185.627-1.584l.79.395c.332.166.583.345.583.876 0 .251-.152.374-.287.374h-1.707c-.001-.021-.006-.041-.006-.061z"/><path fill="#FAB8CD" d="M18.875 12.563h-5.75S8 17.25 8 22s3.875 8 8 8 8-3.25 8-8-5.125-9.437-5.125-9.437z"/><path fill="#F9ADC8" d="M16 26.25c-3.625 0-6.938-3.062-8-4.25 0 4.75 3.875 8 8 8s8-3.25 8-8c-1.063 1.188-4.375 4.25-8 4.25z"/><path fill="#FAC4D1" d="M16 12.563h-2.875S8 17.25 8 22s3.875 8 8 8V12.563z"/><path fill="#FAB8CD" d="M16 26.25c-3.625 0-6.938-3.062-8-4.25 0 4.75 3.875 8 8 8v-3.75zm12.935-6.682c-.692 1.608-7.011-1.982-7.368-2.692-.357-.71.719-3.145 1.398-2.825.755.355 6.719 3.779 5.97 5.517z"/><g fill="#FCD8DE"><circle cx="21.928" cy="11.219" r="2.197"/><circle cx="20.012" cy="16.281" r="2.344"/></g><path fill="#FDE2E6" d="M21.045 10.958a2.91 2.91 0 00-2.72 1.887 4.022 4.022 0 00-4.65 0 2.91 2.91 0 00-2.72-1.887 2.917 2.917 0 000 5.834c.367 0 .714-.075 1.037-.199.22 2.03 1.92 3.615 4.008 3.615s3.788-1.586 4.008-3.615c.323.124.671.199 1.037.199a2.917 2.917 0 000-5.834z"/><path fill="#FDECEF" d="M20.487 9.682c-.748-.82-2.089-.815-2.995.011-.19.174-.338.373-.459.582-.32-.128-.667-.203-1.033-.203s-.713.075-1.033.203a2.428 2.428 0 00-.459-.582c-.906-.826-2.248-.831-2.995-.011s-.619 2.155.287 2.982c.426.388.947.588 1.458.613.204 1.336 1.348 2.364 2.742 2.364s2.538-1.027 2.742-2.364a2.336 2.336 0 001.458-.613c.906-.827 1.035-2.162.287-2.982z"/><g fill="#FDE2E6"><circle cx="10.072" cy="11.219" r="2.197"/><circle cx="11.988" cy="16.281" r="2.344"/></g><path fill="#FDECEF" d="M13.675 12.845a2.91 2.91 0 00-2.72-1.887 2.917 2.917 0 000 5.834c.367 0 .714-.075 1.037-.199.22 2.03 1.92 3.615 4.008 3.615v-8.104c-.867 0-1.666.277-2.325.741z"/><path fill="#FEF5F7" d="M14.967 10.274a2.428 2.428 0 00-.459-.582c-.906-.826-2.247-.831-2.995-.011-.748.82-.619 2.155.287 2.982.426.388.947.588 1.458.613A2.778 2.778 0 0016 15.64v-5.569c-.366 0-.713.075-1.033.203z"/><path fill="#FAC4D1" d="M16 5.04c-2.245 0-4.75.289-4.75 3.21 0 3.237 1.494 4.299 3.218 5.408.532.342.907.659 1.532.659s1-.317 1.532-.659c1.724-1.109 3.218-2.171 3.218-5.408 0-2.921-2.505-3.21-4.75-3.21z"/><path fill="#2B3332" d="M21.424 5.765c1.298-.171 4.085 1.179 4.222 2.223s-2.335 2.078-3.617 2.246c-.593.078-1.302-.142-1.742-.452-.556-.63-.647-2.182-.492-3.024.346-.475.975-.907 1.629-.993z"/><path fill="#F8C4CF" d="M21.088 8.056c-.124-.941.293-1.827 1.097-2.256.251.024.792.173 1.144.333a2.214 2.214 0 00-.478 1.691 2.278 2.278 0 001.271 1.744c-.418.206-1.039.431-1.125.44a2.27 2.27 0 01-1.909-1.952z"/><circle cx="18.035" cy="9.375" r=".75" fill="#2B3332"/><path fill="#0A6F8E" d="M17.791 9.881a.75.75 0 00.75-.75.778.778 0 00-.119-.399.732.732 0 01.363.643.75.75 0 01-1.392.384.78.78 0 00.398.122z"/><circle cx="17.805" cy="9.088" r=".286" fill="#FEF5F7"/><path fill="#FBCFD6" d="M16 5.04c-2.245 0-4.75.289-4.75 3.21 0 3.237 1.494 4.299 3.218 5.408.532.342.907.659 1.532.659V5.04z"/><path fill="#373F3F" d="M12.205 6.758c.155.842.064 2.395-.492 3.024-.44.309-1.148.53-1.742.452-1.282-.169-3.755-1.202-3.617-2.246s2.924-2.394 4.222-2.223c.654.086 1.283.518 1.629.993z"/><path fill="#F8C4CF" d="M10.912 8.056c.124-.941-.293-1.835-1.097-2.264-.4.071-.782.191-1.153.337.372.459.57 1.063.487 1.695a2.284 2.284 0 01-1.271 1.749c.362.175.753.324 1.122.439a2.279 2.279 0 001.912-1.956z"/><circle cx="13.965" cy="9.375" r=".75" fill="#373F3F"/><path fill="#0F769B" d="M14.209 9.881a.75.75 0 01-.75-.75c0-.144.049-.285.119-.399a.732.732 0 00-.363.643.75.75 0 001.392.384.78.78 0 01-.398.122z"/><circle cx="14.195" cy="9.088" r=".286" fill="#FFF"/><path fill="#FCD8DE" d="M22.902 3.823C22.902 2.264 21.739 1 20.305 1c-.647 0-1.232.267-1.687.693-.706-.606-1.613-.985-2.618-.985s-1.912.379-2.618.984C12.927 1.267 12.342 1 11.695 1c-1.434 0-2.597 1.264-2.597 2.823 0 .746.271 1.419.706 1.924.193 1.051 1.046 1.843 2.069 1.843.477 0 .912-.178 1.265-.468.159.033.324.051.493.051C14.939 7.173 16 6.145 16 4.878c0 1.267 1.061 2.295 2.369 2.295.169 0 .334-.019.493-.051.353.29.788.468 1.265.468 1.023 0 1.876-.792 2.069-1.843a2.944 2.944 0 00.706-1.924z"/><path fill="#FDE2E6" d="M16.75 2.99C16.75 1.338 17.981 0 19.5 0s2.75 1.338 2.75 2.99-1.461 2.74-2.75 2.74c-1.293-.001-2.75-1.089-2.75-2.74z"/><path fill="#FDECEF" d="M20.861 2.542c0 .817-.609 1.479-1.361 1.479V1.062c.751 0 1.361.663 1.361 1.48zm-1.365 1.479V.016c-1.017 0-1.842.897-1.842 2.003s.825 2.002 1.842 2.002zM15.25 2.99C15.25 1.338 14.019 0 12.5 0S9.75 1.338 9.75 2.99s1.461 2.74 2.75 2.74c1.293-.001 2.75-1.089 2.75-2.74z"/><path fill="#FEF5F7" d="M12.5 1.063v2.958c-.751 0-1.361-.662-1.361-1.479s.61-1.479 1.361-1.479zm.004 2.958V.016c1.017 0 1.842.897 1.842 2.003s-.825 2.002-1.842 2.002z"/></svg>