<svg xmlns="http://www.w3.org/2000/svg" width="100%" height="100%" viewBox="-2.72 -2.72 37.44 37.44"><path fill="#84ED82" d="M18 19c2.374-.699 4 7 8 7 3 0 2.542-5 2.542-5h1s.537 4.921-2.542 8c-3 3-10 2-12-1-2.044-3.065.978-8.405 3-9z"/><path fill="#FF7899" d="M7.55 8.076c.109 0 .218.036.307.105L16.624 15v1l-4.192-.699a9.965 9.965 0 00-3.605.058l-2.94.588a.505.505 0 01-.452-.136l-4.289-4.289a.5.5 0 01.157-.813l6.05-2.593a.506.506 0 01.197-.04zm0-1c-.204 0-.403.041-.591.121L.909 9.79a1.498 1.498 0 00-.47 2.439l4.289 4.289a1.49 1.49 0 001.355.41l2.94-.588a9.021 9.021 0 013.245-.053l4.192.699 1.164.194v-2.669l-.386-.3-8.767-6.819a1.506 1.506 0 00-.921-.316z"/><path fill="#FF6B8B" d="M24.647 8.116l6.05 2.593a.5.5 0 01.157.813l-4.289 4.289a.499.499 0 01-.452.136l-2.94-.588a10.03 10.03 0 00-3.605-.058L15.376 16v-1l8.767-6.819a.502.502 0 01.504-.065zm-.197-1.04c-.332 0-.659.112-.921.316l-8.767 6.819-.386.3v2.669l1.164-.194 4.192-.699a9.048 9.048 0 013.245.053l2.94.588a1.493 1.493 0 001.355-.41l4.289-4.289a1.5 1.5 0 00-.47-2.439l-6.05-2.593a1.502 1.502 0 00-.591-.121z"/><path fill="#8FF888" d="M16.624 15L7.857 8.181a.5.5 0 00-.504-.065l-6.05 2.593a.5.5 0 00-.157.813l4.289 4.289a.5.5 0 00.452.137l2.94-.588a9.996 9.996 0 013.605-.058l4.192.698v-1z"/><path fill="#84ED82" d="M15.376 15l8.767-6.819a.499.499 0 01.504-.065l6.05 2.593a.5.5 0 01.157.813l-4.289 4.289a.5.5 0 01-.452.137l-2.94-.588a9.996 9.996 0 00-3.605-.058L15.376 16v-1z"/><path fill="#8FF888" d="M22.995 32h.011a1.73 1.73 0 001.713-1.975L24 25h-2l-.718 5.025A1.73 1.73 0 0022.995 32z"/><path fill="#8FF888" d="M16 28c4.63 0 7.899-4.572 6.368-8.941 0 0-3.4-3.082-4.118-4.517C17.548 13.14 16.794 8 16.794 8H16v20z"/><path fill="#A9FAA2" d="M19 23c0 2.209 1.567 4 3.5 4s4.5-1.791 4.5-4-2.567-5-4.5-5-3.5 2.791-3.5 5z"/><path fill="#60C46F" d="M23 25c-2 0-3.496-1.845-3.866-3.164C19.548 19.92 20.897 18 22.5 18c1.096 0 2.396.899 3.316 2.079.107.298.184.595.184.879C26 22.707 25 25 23 25z"/><path fill="#54B668" d="M22.995 32a1.73 1.73 0 01-1.713-1.975l.032-.221c.474.105 1.025.212 1.728.071.666-.133 1.15-.432 1.546-.761l.13.911A1.73 1.73 0 0123.005 32h-.01z"/><path fill="#A9FAA2" d="M9.005 32h-.01a1.73 1.73 0 01-1.713-1.975L8 25h2l.718 5.025A1.73 1.73 0 019.005 32z"/><path fill="#A9FAA2" d="M16 28c-4.63 0-7.899-4.572-6.368-8.941 0 0 3.4-3.082 4.118-4.517C14.452 13.14 15.206 8 15.206 8H16v20z"/><path fill="#C1FDBD" d="M16 11c-1 0-3-1.343-3-3s1.343-3 3-3v6zm-3 12c0 2.209-1.567 4-3.5 4S5 25.209 5 23s2.567-5 4.5-5 3.5 2.791 3.5 5z"/><path fill="#6CD275" d="M1 3c-.209-.138-.14-.793 0-1C1.7.963 3.72-.099 5.906.013 9.924.218 13.823 1.962 16 5c-.372.031-1.773.859-2.094 1.013-2.013-2.611-4.456-4.912-8-5C3.45.952 2.044 3.689 1 3zm8 22c2 0 3.496-1.845 3.866-3.164C12.452 19.92 11.103 18 9.5 18c-1.096 0-2.396.899-3.316 2.079-.107.298-.184.595-.184.879C6 22.707 7 25 9 25z"/><path fill="#60C46F" d="M9.005 32a1.73 1.73 0 001.713-1.975l-.032-.221c-.474.105-1.025.212-1.728.071-.666-.133-1.15-.432-1.546-.761l-.13.911A1.73 1.73 0 008.995 32h.01z"/><path fill="#6CD275" d="M13.252 6.803C13.796 7.838 15.134 9 16 9V5a2.997 2.997 0 00-2.748 1.803z"/><path fill="#FF6B8B" d="M15 7c0 1.105-.395 2-1.5 2a2 2 0 110-4c1.105 0 1.5.895 1.5 2z"/><path fill="#FF7899" d="M15 7c0 1.105-.395 2-1.5 2-.562 0-1-1.229-1-2 0-.847.167-2 1-2 1.105 0 1.5.895 1.5 2z"/><path fill="#373F3F" d="M14.25 7.035c0 .552-.224 1-.5 1s-.626-.448-.626-1 .287-.882.563-.882.563.33.563.882z"/><path fill="#A9FAA2" d="M16 11c1 0 3-1.343 3-3s-1.343-3-3-3v6z"/><path fill="#60C46F" d="M26.094 1.013c-3.544.088-5.987 2.389-8 5C17.773 5.859 16.372 5.031 16 5 18.177 1.962 22.076.218 26.094.013 28.28-.099 30.3.963 31 2c.14.207.209.862 0 1-1.044.689-2.45-2.048-4.906-1.987z"/><path fill="#60C46F" d="M18.748 6.803C18.204 7.838 16.866 9 16 9V5c1.231 0 2.286.743 2.748 1.803z"/><path fill="#FF5F7E" d="M17 7c0 1.105.395 2 1.5 2s2-.895 2-2-.895-2-2-2-1.5.895-1.5 2z"/><path fill="#FF6B8B" d="M17 7c0 1.105.395 2 1.5 2 .562 0 1-1.229 1-2 0-.847-.167-2-1-2-1.105 0-1.5.895-1.5 2z"/><path fill="#231F20" d="M17.75 7.035c0 .552.224 1 .5 1s.626-.448.626-1-.287-.882-.563-.882c-.276 0-.563.33-.563.882z"/><path fill="#373F3F" d="M15.751 9.899c.1.274-.084.592-.084.592s-.345-.125-.445-.399c-.1-.274-.062-.538.084-.592.146-.053.345.126.445.399z"/><path fill="#2B3332" d="M16.249 9.899c-.1.274.084.592.084.592s.345-.125.445-.399c.1-.274.062-.538-.084-.592-.146-.053-.345.126-.445.399z"/><path fill="#C1FDBD" d="M15 16c0 1.105-.895 1-2 1s-2 .105-2-1 .895-2 2-2 2 .895 2 2z"/><path fill="#A9FAA2" d="M21 16c0 1.105-.895 1-2 1s-2 .105-2-1 .895-2 2-2 2 .895 2 2zm8.005 5.04l-1.892-.325a.497.497 0 01-.408-.409l-.324-1.89a.5.5 0 01.491-.585l1.977.332a.5.5 0 01.408.409l.324 1.891a.5.5 0 01-.491.585l-.085-.008z"/><path fill="#FF5F7E" d="M26.872 18.081c.014 0 .029.001.043.004l1.891.325a.25.25 0 01.204.204l.325 1.892a.25.25 0 01-.289.288l-1.892-.325a.25.25 0 01-.204-.204l-.325-1.892a.252.252 0 01.247-.292zm0-.5a.75.75 0 00-.739.877l.325 1.892a.75.75 0 00.612.612l1.892.325.042.007.086.004a.75.75 0 00.739-.877l-.325-1.892a.75.75 0 00-.612-.612L27 17.592l-.042-.007-.086-.004z"/><path fill="#A9FAA2" d="M28.993 21.048a.495.495 0 01-.381-.179.49.49 0 01-.11-.406l.324-1.892a.502.502 0 01.406-.408l1.894-.324.035-.001c.212 0 .342.064.432.172a.49.49 0 01.11.406l-.325 1.891a.497.497 0 01-.409.408l-1.891.325-.085.008z"/><path fill="#FF5F7E" d="M31.211 18.081a.25.25 0 01.246.292l-.325 1.892a.25.25 0 01-.204.204l-1.892.325a.25.25 0 01-.289-.288l.325-1.892a.25.25 0 01.204-.204l1.892-.325a.215.215 0 01.043-.004zm0-.5h-.043l-.085.011-1.891.325a.75.75 0 00-.612.612l-.325 1.891a.75.75 0 00.739.877h.043l.085-.011 1.892-.325a.75.75 0 00.612-.612l.325-1.891a.749.749 0 00-.74-.877z"/><path fill="#C1FDBD" d="M29.042 21.067a.5.5 0 01-.408-.213l-1.108-1.565a.502.502 0 010-.578l1.108-1.566a.5.5 0 01.816.001l1.107 1.565a.502.502 0 010 .578l-1.107 1.566a.501.501 0 01-.408.212z"/><path fill="#FF6B8B" d="M29.042 17.183c.077 0 .154.035.204.106l1.108 1.567a.251.251 0 010 .289l-1.108 1.567a.25.25 0 01-.408 0l-1.108-1.567a.251.251 0 010-.289l1.108-1.567a.245.245 0 01.204-.106zm0-.5a.749.749 0 00-.612.317l-1.108 1.567a.752.752 0 000 .866L28.429 21a.751.751 0 001.224 0l1.108-1.567a.752.752 0 000-.866L29.654 17a.751.751 0 00-.612-.317z"/></svg>