<svg xmlns="http://www.w3.org/2000/svg" width="100%" height="100%" viewBox="-2.72 -2.72 37.44 37.44"><path fill="#D4994F" d="M24.854 10.854l-3.707-3.707A.5.5 0 0020.793 7H20l-.854-.854A.5.5 0 0018.793 6H16v20h3l1-1h1l3.854-3.854a.5.5 0 00.146-.353V20l.854-.854a.5.5 0 00.146-.353V13l-1-1v-.793a.5.5 0 00-.146-.353z"/><path fill="#DAA355" d="M16 6h-2.793a.504.504 0 00-.354.146L12 7h-.793a.504.504 0 00-.354.146l-3.707 3.707a.504.504 0 00-.146.354V12l-1 1v5.793c0 .133.053.26.146.354L7 20v.793c0 .133.053.26.146.354L11 25h1l1 1h3V6z"/><path fill="#D4994F" d="M10 24v2.586c0 .265-.105.52-.293.707l-.414.414a1 1 0 00-.293.707v.086a.5.5 0 00.5.5h5a.5.5 0 00.5-.5v-.086a.997.997 0 00-.293-.707l-.414-.414a1 1 0 01-.293-.707V24h-4z"/><path fill="#C98B44" d="M18 24v2.586c0 .265-.105.52-.293.707l-.414.414a1 1 0 00-.293.707v.086a.5.5 0 00.5.5h5a.5.5 0 00.5-.5v-.086a.997.997 0 00-.293-.707l-.414-.414a1 1 0 01-.293-.707V24h-4z"/><path fill="#F7F7F7" d="M18 16.5l3-1.25v1.25a.5.5 0 01-.5.5H18v-.5z"/><path fill="#2B3332" d="M19 16.083v.417a.25.25 0 00.5 0v-.625l-.5.208z"/><path fill="#FFF" d="M14 16.5l-3-1.25v1.25a.5.5 0 00.5.5H14v-.5z"/><path fill="#373F3F" d="M13 16.083v.417a.25.25 0 01-.5 0v-.625l.5.208z"/><path fill="#E2B060" d="M7.146 21.146l4.268 4.268a2 2 0 001.414.586H14.5a.5.5 0 00.5-.5v-2.05a.5.5 0 00-.5-.5h-.75a.25.25 0 01-.25-.25v-.07a.25.25 0 01.171-.237l.987-.329a.5.5 0 00.342-.475v-.154a.5.5 0 00-.486-.5l-1.53-.038a10.005 10.005 0 01-5.719-1.998L6 17.95v.843c0 .133.053.26.146.354L7 20v.793a.5.5 0 00.146.353z"/><path fill="#DAA355" d="M24.854 21.146l-4.268 4.268a2 2 0 01-1.414.586H17.5a.5.5 0 01-.5-.5v-2.05a.5.5 0 01.5-.5h.75a.25.25 0 00.25-.25v-.07a.25.25 0 00-.171-.237l-.987-.329a.5.5 0 01-.342-.475v-.154a.5.5 0 01.486-.5l1.53-.038a10.005 10.005 0 005.719-1.998L26 17.95v.843c0 .133-.053.26-.146.354L25 20v.793a.5.5 0 01-.146.353z"/><path fill="#D4994F" d="M6 13l-4.828 4.828A4 4 0 000 20.657V23.5a.5.5 0 00.5.5H2a.5.5 0 00.5-.5v-1.22a.28.28 0 01.28-.28h.001c.128 0 .24.087.272.212l.352 1.409A.5.5 0 003.89 24h.61a.5.5 0 00.5-.5v-4.55L6 18v-5z"/><path fill="#C98B44" d="M26 13l4.828 4.828A4.001 4.001 0 0132 20.656V23.5a.5.5 0 01-.5.5H30a.5.5 0 01-.5-.5v-1.22a.28.28 0 00-.28-.28h-.001a.281.281 0 00-.272.212l-.352 1.409a.5.5 0 01-.485.379h-.61a.5.5 0 01-.5-.5v-4.55L26 18v-5z"/><path fill="#BF7D3C" d="M16 18.5c-1.01 0-2.019.127-2.771.254-.277.047-.277.446 0 .493A17.28 17.28 0 0016 19.5v-1z"/><path fill="#B57135" d="M18.771 18.754A17.157 17.157 0 0016 18.5v1c1.01 0 2.019-.127 2.771-.254.278-.046.278-.446 0-.492z"/><path fill="#E2B060" d="M16 17.333v-6.532l-.231-1.309a.5.5 0 00-.579-.406l-.985.174a.5.5 0 00-.405.58l.231 1.309-.664-1.151a.5.5 0 00-.683-.183l-.866.5a.5.5 0 00-.183.683l.664 1.151-1.018-.854a.5.5 0 00-.704.062l-.752.896a.5.5 0 00-.063.547L11 15.25l3.002 1.251L14 17l2 .333z"/><path fill="#DAA355" d="M16 17.333L18 17v-.5l3-1.25 1.239-2.451a.501.501 0 00-.063-.547l-.752-.896a.5.5 0 00-.704-.062l-1.018.854.664-1.151a.5.5 0 00-.183-.683l-.866-.5a.5.5 0 00-.683.183l-.664 1.151.23-1.308a.5.5 0 00-.406-.579l-.984-.174a.5.5 0 00-.579.406L16 10.801v6.532z"/></svg>