<svg xmlns="http://www.w3.org/2000/svg" width="100%" height="100%" viewBox="-2.72 -2.72 37.44 37.44"><path fill="#FAC7AF" d="M12.25 12.083s-.367.594-.9 1.512C9.684 13.171 6.825 12.5 6 12.5c-1.031 0-5 2.125-5 2.75C1 16.223 2.292 18 3 18s1.673-.815 3.5-1.5c.39-.146 1.746.377 2.807.837C8.168 19.578 7.108 22.014 7 23.5c-.167 2.292.625 6.5 4 6.5 2.709 0 2.125-2 5-2V12.083h-3.75z"/><path fill="#F9BDA0" d="M26 12.5c-.825 0-3.684.671-5.35 1.095-.533-.918-.9-1.512-.9-1.512H16V28c2.875 0 2.291 2 5 2 3.375 0 4.167-4.208 4-6.5-.108-1.486-1.168-3.922-2.307-6.163 1.061-.46 2.417-.983 2.807-.837 1.827.685 2.792 1.5 3.5 1.5s2-1.777 2-2.75c0-.625-3.969-2.75-5-2.75z"/><path fill="#2B3332" d="M27.73 13.064c.599.272 1.242.61 1.802.946a3.695 3.695 0 00-2.344 3.247 16.2 16.2 0 00-1.594-.72c-.001-.041-.01-.08-.01-.121a3.698 3.698 0 012.146-3.352z"/><path fill="#373F3F" d="M4.291 13.064c-.599.272-1.242.61-1.802.946a3.695 3.695 0 012.344 3.247 16.2 16.2 0 011.594-.72c.001-.041.01-.08.01-.121a3.7 3.7 0 00-2.146-3.352z"/><path fill="#FAC7AF" d="M14 4.001c-.313-.562-2.563-4.067-5.75-4-2.219.047-4.031 3.422-3.983 4.235.009.144.105.267.249.268 1.728.007 3.612-.199 4.234-.44v1.699c0 .067.039.129.103.149 1.358.42 4.927-.409 5.147-.911.146-.333.121-.782 0-1z"/><path fill="#F9BDA0" d="M8.75 4.227C8.785 3.37 8.184.55 7.796.06c-.075.016-.149.041-.223.064a2.758 2.758 0 00-.204.072c-1.797.73-3.143 3.338-3.102 4.041.009.143.105.266.249.267 1.728.007 3.612-.199 4.234-.44v.163z"/><path fill="#F6B392" d="M9 28.125c-.723.924-1.562 2.234-1.957 2.813a.238.238 0 00-.043.139v.673c0 .138.112.25.25.25h3.56a.25.25 0 00.22-.131l2.054-3.786L9 28.125z"/><path fill="#F9BDA0" d="M16 26.062V28c-2.875 0-2.291 2-5 2-3.375 0-4.167-4.208-4-6.5 2.375 2.5 9 2.562 9 2.562z"/><path fill="#373F3F" d="M12.275 12.083h3.75v5.333c-4.417.001-3.75-5.333-3.75-5.333z"/><path fill="#FCD2BE" d="M16 14.5c-1.75 0-3.188-1.5-3.75-1.5h-2.096a.736.736 0 01-.641-.359c-.359-.622-.763-2.134-.763-2.641 0-1.375 3.687-8 7.25-8v12.5z"/><path fill="#FFF" d="M12.88 4.242c.43.217 2.183 1.59 2.543 2.01.034.04.003.101-.049.101h-2.048a.535.535 0 01-.535-.535V4.299c.001-.046.048-.078.089-.057z"/><ellipse cx="13.861" cy="5.673" fill="#373F3F" rx=".25" ry=".5"/><path fill="#F9BDA0" d="M18 5.001c.22.502 3.789 1.331 5.147.911a.153.153 0 00.103-.149V4.064c.622.241 2.505.448 4.234.44.144-.001.241-.123.249-.268.048-.813-1.764-4.188-3.983-4.235-3.187-.067-5.438 3.438-5.75 4-.121.218-.146.667 0 1z"/><path fill="#F6B392" d="M23.25 4.227c-.035-.857.566-3.677.954-4.167.075.017.149.041.223.065.068.021.136.045.204.071 1.797.73 3.143 3.338 3.102 4.041-.009.144-.105.267-.249.268-1.728.007-3.612-.199-4.234-.44v.162z"/><path fill="#F4A984" d="M23 28.125c.723.924 1.562 2.234 1.957 2.813a.238.238 0 01.043.139v.673a.25.25 0 01-.25.25h-3.56a.25.25 0 01-.22-.131l-2.054-3.786 4.084.042z"/><path fill="#2B3332" d="M19.75 12.083H16v5.333c4.417.001 3.75-5.333 3.75-5.333z"/><path fill="#FAC7AF" d="M16 14.5c1.75 0 3.188-1.5 3.75-1.5h2.096c.262 0 .51-.132.641-.359.359-.622.763-2.134.763-2.641 0-1.375-3.688-8-7.25-8v12.5z"/><path fill="#FCD2BE" d="M22.375 11.656c.09-.427-.193-3.336-1.066-6.034-.272-.841-.599-1.615-.993-2.205-.086-.129-.283-.071-.278.083.006.177.006.383.002.6-.035 2.36-.595 6.354-1.353 7.243-.187-.531-1.468-1.812-2.687-1.812s-2.5 1.281-2.688 1.812c-.758-.889-1.318-4.883-1.353-7.243-.003-.217-.004-.423.002-.6.005-.155-.192-.212-.278-.083-.393.59-.721 1.364-.993 2.205-.872 2.698-1.155 5.608-1.065 6.034-.375-.031-.281-.031-.531-.094.062.344.35.959.419 1.079a.736.736 0 00.641.359h2.096c.562 0 2 1.5 3.75 1.5s3.187-1.5 3.75-1.5h2.096c.262 0 .51-.132.641-.359.069-.119.325-.672.419-1.079-.25.063-.156.063-.531.094z"/><path fill="#2B3332" d="M16 6.875c-.828 0-1.5.188-1.5.75 0 .414.672 1.125 1.5 1.125s1.5-.711 1.5-1.125c0-.563-.672-.75-1.5-.75z"/><path fill="#F7F7F7" d="M19.12 4.242c-.43.217-2.183 1.59-2.543 2.01-.034.04-.003.101.049.101h2.048a.535.535 0 00.535-.535V4.299c-.001-.046-.048-.078-.089-.057z"/><ellipse cx="18.139" cy="5.673" fill="#2B3332" rx=".25" ry=".5"/><path fill="#F6B392" d="M16 26.062V28c2.875 0 2.291 2 5 2 3.375 0 4.167-4.208 4-6.5-2.375 2.5-9 2.562-9 2.562z"/><path fill="#FCDDCF" d="M16 9.531V14.5c-1.75 0-3.188-1.5-3.75-1.5h-2.096a.736.736 0 01-.641-.359c-.069-.119-.357-.735-.419-1.079.25.062.156.062.531.094-.09-.427.193-3.336 1.066-6.034.272-.841.599-1.615.993-2.205.086-.129.283-.071.278.083-.006.177-.006.383-.002.6.035 2.36.595 6.354 1.353 7.243.187-.531 1.468-1.812 2.687-1.812z"/><path fill="#373F3F" d="M14.5 7.625c0-.563.672-.75 1.5-.75V8.75c-.828 0-1.5-.711-1.5-1.125z"/></svg>