<svg xmlns="http://www.w3.org/2000/svg" width="100%" height="100%" viewBox="-2.72 -2.72 37.44 37.44"><path fill="#F7F7F7" d="M13 14l1 8h2v-8z"/><path fill="#EDEEEE" d="M19 14h-3v8h2z"/><path fill="#4EAC5D" d="M19 14l8 4-1 2.016-8-4.079z"/><path fill="#4EAC5D" d="M29.922 10.472c-.626 4.784-4.844 11.351-8.455 12.703-.191.071-.238.316-.075.438l3.431 2.573a.245.245 0 00.33-.025c.923-1.003 5.766-6.689 5.848-15.611a.54.54 0 00-1.079-.078z"/><path fill="#54B668" d="M13 14l-8 4 1 2.016 8-4.079z"/><ellipse cx="16" cy="23" fill="#EDEEEE" rx="4" ry="3"/><path fill="#F7F7F7" d="M16 26c-2.209 0-4-1.343-4-3s1.791-3 4-3v6z"/><path fill="#4EAC5D" d="M16.421 21.346l2.062-3.208L19 14h-6l.517 4.138 2.062 3.208a.5.5 0 00.842 0z"/><path fill="#54B668" d="M13 14l.517 4.138 2.062 3.208c.098.153.259.23.421.23V14h-3z"/><path fill="#F7F7F7" d="M13 24s-3.532 4.397-3.972 7.418a.505.505 0 00.498.582h3.007a.497.497 0 00.5-.49c.018-1.452.142-5.685.967-6.51l-1-1z"/><path fill="#EDEEEE" d="M19.023 24s3.532 4.397 3.972 7.418a.505.505 0 01-.498.582H19.49a.497.497 0 01-.5-.49c-.018-1.452-.142-5.685-.967-6.51l1-1z"/><ellipse cx="16" cy="9" fill="#EDEEEE" rx="7" ry="6"/><path fill="#F7F7F7" d="M16 15c-3.866 0-7-2.686-7-6s3.134-6 7-6v12z"/><g fill="#F7F7F7"><path d="M10.124 7l-3.928.873a.25.25 0 00-.084.452L10.124 11V7z"/><path d="M10 10l-2.939 1.679a.25.25 0 00.07.461L11 13l-1-3z"/></g><g fill="#EDEEEE"><path d="M21.876 7l3.928.873a.25.25 0 01.084.452L21.876 11V7z"/><path d="M22 10l2.939 1.679a.25.25 0 01-.07.461L21 13l1-3z"/></g><ellipse cx="13" cy="9" fill="#FFF" rx="2" ry="3"/><ellipse cx="13" cy="8" fill="#DD564C" rx="1" ry="3"/><ellipse cx="19" cy="9" fill="#FFF" rx="2" ry="3"/><ellipse cx="19" cy="8" fill="#D64F45" rx="1" ry="3"/><path fill="#60C46F" d="M16 3c-3.047 0-5.632 1.671-6.593 4 3.455.004 5.43 4.579 5.579 7.93.332.041.668.07 1.014.07h.001l.023-11.999L16 3z"/><path fill="#54B668" d="M16.024 3c3.047 0 5.632 1.671 6.593 4-3.455.004-5.43 4.579-5.579 7.93-.332.041-.668.07-1.014.07h-.001L16 3.001 16.024 3z"/><path fill="#56C7CD" d="M15 3.068v11.864c.327.04.66.068 1 .068s.673-.028 1-.068V3.068c-.327-.04-.66-.068-1-.068s-.673.028-1 .068z"/><path fill="#66D3D3" d="M16 3c-.34 0-.673.028-1 .068v11.864c.327.04.66.068 1 .068V3z"/><path fill="#56C7CD" d="M17 4h-2.017V1.008a1.008 1.008 0 112.017 0V4z"/><path fill="#66D3D3" d="M16 4h-1.017V1.008c0-.557.452-1.008 1.009-1.008L16 4z"/><path fill="#54B668" d="M2.078 10.472c.626 4.784 4.844 11.351 8.455 12.703.191.071.238.316.075.438l-3.431 2.573a.245.245 0 01-.33-.025C5.925 25.158 1.082 19.472 1 10.55a.54.54 0 011.078-.078z"/><path fill="#D64F45" d="M14.847 16h2.306a.25.25 0 01.237.329l-1.153 3.459a.25.25 0 01-.474 0l-1.153-3.459a.25.25 0 01.237-.329z"/><path fill="#DD564C" d="M14.847 16a.25.25 0 00-.237.329l1.153 3.459a.246.246 0 00.237.171V16h-1.153z"/></svg>