<svg xmlns="http://www.w3.org/2000/svg" width="100%" height="100%" viewBox="-2.72 -2.72 37.44 37.44"><path fill="#9FC9E4" d="M16 24.88l8.18-9.723a1 1 0 01.619-.323l6.638-.83a.5.5 0 01.496.744l-3.362 5.883a.997.997 0 01-.394.384L16 27.88v-3z"/><path fill="#1D7293" d="M23 20.88l1.18-5.723a1 1 0 01.619-.323l6.638-.83a.5.5 0 01.496.744l-3.362 5.883a.997.997 0 01-.394.384L23 20.88z"/><path fill="#5CA3D5" d="M9.555 10.884l-5.522 9.575a.25.25 0 00-.019.21l1.081 3a.5.5 0 00.722.263l2.756-1.603a.252.252 0 00.121-.174l1.863-10.905-1.002-.366z"/><path fill="#2B7E9F" d="M6.774 18.882l-2.622 1.572a.251.251 0 00-.107.299l1.05 2.916a.5.5 0 00.722.263l2.674-1.556a.25.25 0 00.108-.304l-1.101-2.937a.498.498 0 00-.724-.253z"/><path fill="#529CCF" d="M22.445 10.884l5.522 9.575a.25.25 0 01.019.21l-1.081 3a.5.5 0 01-.722.263l-2.756-1.603a.252.252 0 01-.121-.174L21.443 11.25l1.002-.366z"/><path fill="#237899" d="M25.226 18.882l2.622 1.572a.251.251 0 01.107.299l-1.05 2.916a.5.5 0 01-.722.263l-2.674-1.556a.25.25 0 01-.108-.304l1.101-2.937a.498.498 0 01.724-.253z"/><path fill="#C1DDEE" d="M30.368 1.018L24.34 2.662a1.999 1.999 0 00-1.294 1.102l-3.147 6.923 1.414 1.414 6.923-3.147a2.001 2.001 0 001.102-1.294l1.644-6.028a.5.5 0 00-.614-.614z"/><path fill="#529CCF" d="M28.616 3.067L25.008 4.27a.504.504 0 00-.255.192l-4.501 6.579.707.707 6.579-4.501a.504.504 0 00.192-.255l1.203-3.609a.25.25 0 00-.317-.316z"/><path fill="#D2E6F3" d="M1.53 1.018l6.028 1.644c.574.157 1.048.56 1.294 1.102L12 10.687l-1.414 1.414-6.924-3.146A1.999 1.999 0 012.561 7.66L.917 1.632a.5.5 0 01.613-.614z"/><path fill="#5CA3D5" d="M3.282 3.067L6.891 4.27a.504.504 0 01.255.192l4.501 6.579-.707.707-6.579-4.501a.504.504 0 01-.192-.255L2.966 3.384a.25.25 0 01.316-.317z"/><path fill="#C1DDEE" d="M11.495 16.143c-.105.157-2.606 6.948-.93 10.778.192.439.355.815.503 1.147a1.495 1.495 0 00.421 2.933c.608 0 1.13-.364 1.365-.884.626.082 1.546-.055 3.135-.152V16.143h-4.494z"/><path fill="#2B7E9F" d="M12.853 30.116a1.499 1.499 0 01-2.865-.616c.755.285 2.018.468 2.873-.021 0 .367-.008.448-.008.637z"/><path fill="#D2E6F3" d="M14.988 30.232V19.593l-4.005.876s1.373 6.912 1.572 9.345c-.514.206-.861.578-.861 1.007 0 .651.792 1.179 1.769 1.179.977 0 1.769-.528 1.769-1.179.001-.216-.092-.415-.244-.589z"/><path fill="#3085A6" d="M14.988 30.232v-4.235l-1.187-.792a.501.501 0 00-.551-.003l-1.242.809c.255 1.493.476 2.934.547 3.803-.514.206-.861.578-.861 1.007 0 .651.792 1.179 1.769 1.179.977 0 1.769-.528 1.769-1.179.001-.216-.092-.415-.244-.589z"/><path fill="#3085A6" d="M14.988 30.232s-1.371.435-2.432-.418c-.514.206-.861.578-.861 1.007 0 .651.792 1.179 1.769 1.179.977 0 1.769-.528 1.769-1.179a.896.896 0 00-.245-.589z"/><path fill="#D2E6F3" d="M10.294 20.58c.422-2.393 1.156-4.354 1.212-4.437H16v8.321c-1.59.097-6.077-1.778-5.706-3.884z"/><path fill="#B0D3EA" d="M20.909 28.067c.148-.332.31-.707.503-1.147 1.676-3.83-.825-10.621-.93-10.778h-4.493v13.821c1.59.098 2.509.234 3.135.152a1.497 1.497 0 101.785-2.048z"/><path fill="#237899" d="M19.123 30.116a1.5 1.5 0 002.865-.616c-.755.285-2.018.468-2.873-.021 0 .367.008.448.008.637z"/><path fill="#C1DDEE" d="M21.694 20.58c-.422-2.393-1.156-4.354-1.212-4.437h-4.493v8.321c1.589.097 6.076-1.778 5.705-3.884z"/><path fill="#C1DDEE" d="M19.42 29.814c.2-2.408 1.572-9.093 1.572-9.093l-4.005-1.128v10.639c-.151.174-.245.373-.245.589 0 .651.792 1.179 1.769 1.179.977 0 1.769-.528 1.769-1.179.001-.429-.346-.801-.86-1.007z"/><path fill="#E2EFF7" d="M15.312 7c-1.665 0-3.31.572-4.354 1.709a3.368 3.368 0 00-.824 1.639 8.508 8.508 0 00-.142 1.435c-.044 2.062.498 4.456 1.377 5.217.951.823 3.466 1.644 4.326 1.909a1 1 0 00.305.043V7h-.688z"/><path fill="#D2E6F3" d="M21.855 10.349a3.368 3.368 0 00-.824-1.639C19.988 7.572 18.342 7 16.677 7h-.665v11.952a.973.973 0 00.281-.043c.86-.265 3.377-1.086 4.328-1.909.879-.761 1.421-3.155 1.377-5.217a8.597 8.597 0 00-.143-1.434z"/><path fill="#3085A6" d="M14.231 13.34a.495.495 0 01-.986-.069c0-.233.161-.42.375-.477-.014-.008-.022-.018-.036-.025-1.272-.69-1.585.167-1.585.167s-.109.847.353 1.408c.382.464 1.637.656 2.067.37-.001 0 .248-.723-.188-1.374z"/><path fill="#FFF" d="M13.245 13.271a.495.495 0 00.986.069 1.779 1.779 0 00-.611-.546.495.495 0 00-.375.477z"/><path fill="#2B7E9F" d="M17.744 13.34a.495.495 0 00.986-.069.495.495 0 00-.375-.477c.014-.008.022-.018.036-.025 1.272-.69 1.585.167 1.585.167s.109.847-.353 1.408c-.382.464-1.637.656-2.067.37 0 0-.248-.723.188-1.374z"/><path fill="#F7F7F7" d="M18.73 13.271a.495.495 0 01-.986.069c.132-.196.328-.385.611-.546a.495.495 0 01.375.477z"/><path fill="#3085A6" d="M15.138 16c-.122 0-.184.13-.097.206l.862.758A.146.146 0 0016 17v-1h-.862z"/><path fill="#2B7E9F" d="M16.96 16.206c.086-.076.025-.206-.098-.206H16v1a.15.15 0 00.097-.035l.863-.759zm.028 14.026v-4.235l1.187-.792a.501.501 0 01.551-.003l1.242.809c-.255 1.493-.476 2.934-.547 3.803.514.206.861.578.861 1.007 0 .651-.792 1.179-1.769 1.179-.977 0-1.769-.528-1.769-1.179-.001-.216.093-.415.244-.589z"/><path fill="#5CA3D5" d="M14.196 6.294a.25.25 0 00-.408-.011l-2.455 3.274a.5.5 0 00.143.729l3.496 2.097a2 2 0 001.029.285V9l-1.805-2.706z"/><path fill="#65A9DC" d="M15.786 4.564l-2.585 4.308a.5.5 0 00.075.611l2.37 2.37a.5.5 0 00.707 0l2.37-2.37a.5.5 0 00.075-.611l-2.585-4.308a.25.25 0 00-.427 0z"/><path fill="#529CCF" d="M20.667 9.556l-2.455-3.274a.25.25 0 00-.408.012L16 9v3.668a2 2 0 001.029-.285l3.496-2.097a.501.501 0 00.142-.73z"/><path fill="#5CA3D5" d="M18.799 8.872l-2.585-4.308A.246.246 0 0016 4.443V12a.502.502 0 00.354-.146l2.37-2.37a.502.502 0 00.075-.612z"/></svg>