<svg xmlns="http://www.w3.org/2000/svg" width="100%" height="100%" viewBox="-2.72 -2.72 37.44 37.44"><path fill="#2c2625" d="M21.784 6.755a2.5 2.5 0 01-.756-2.191c.003-.042.042-.082.065-.123a1.46 1.46 0 01-.102-1.407.476.476 0 00-.145-.555c-.247-.229-.482-.471-.722-.708-.3-.179-.59-.373-.9-.534a7.156 7.156 0 00-3.22-.762V6.42a.385.385 0 00.061-.087c.474-.836.946-1.674 1.422-2.509.06-.105.092-.287.213-.283.115.004.144.187.204.293q.319.556.62 1.122c.083.157.14.147.236.009.288-.415.597-.815.877-1.236.147-.221.227-.164.341.017a4.404 4.404 0 01.558 2.718 3.61 3.61 0 01-2.54 3.265 10.8 10.8 0 01-1.76.488.625.625 0 00-.232.063v.761a2.915 2.915 0 00.816-.055.16.16 0 01.18.06c.122-.16.244-.322.368-.482a.913.913 0 011.45-.177.842.842 0 00.1.06 10.153 10.153 0 001.077-.627 5.122 5.122 0 002.023-2.684c.015-.184-.122-.278-.234-.38z"/><path fill="#3a3333" d="M25.69 4.325a2.373 2.373 0 01-.406-1.044.834.834 0 00-.644-.825 3.867 3.867 0 00-1.396-.098 3.3 3.3 0 01-1.171 1.923.766.766 0 01-.98.16c-.023.041-.062.08-.066.123a2.5 2.5 0 00.756 2.191c.113.102.25.196.234.38.047-.054.092-.092.168-.037a3.54 3.54 0 00.821.381 4.185 4.185 0 001.03.056.312.312 0 01.303.118c-.036-.212.147-.194.257-.226A2.542 2.542 0 0026.435 4.8a.865.865 0 01-.745-.475z"/><path d="M19.02 31.936a.618.618 0 00.487-.28 1.431 1.431 0 00.216-1.001.806.806 0 00-.76-.719 1.374 1.374 0 00-.317-.041c-.818.077-1.254-.436-1.41-1.278a11.879 11.879 0 01.024-3.136 58.71 58.71 0 01.388-3.293 11.524 11.524 0 01-1.644.057v9.436a.77.77 0 00.486.242 11.78 11.78 0 002.53.013z"/><path fill="#191312" d="M17.648 22.188a7.953 7.953 0 001.29-.184 4.596 4.596 0 002.03-.869 1.698 1.698 0 00.256-2.433c-.621-.64-1.302-1.221-1.956-1.829a5.772 5.772 0 01.186 2.07 1.49 1.49 0 01-1.295 1.317 2.459 2.459 0 01-2.101-.976.473.473 0 01-.055-.096v3.057a11.524 11.524 0 001.645-.057z"/><path fill="#e5e6eb" d="M18.16 20.26a1.49 1.49 0 001.294-1.318 5.772 5.772 0 00-.186-2.069l.007.004c-.045.006-.056-.024-.06-.06l-.003-.002-.056-.055c-.094-.383-.434-.538-.7-.761l-.043.037-.016-.035a1.651 1.651 0 00-2.01 1 5.191 5.191 0 00-.383.903v1.284a.473.473 0 00.054.096 2.459 2.459 0 002.101.976z"/><path fill="#e5e6eb" d="M18.395 15.997l.002.004.003.001-.005-.005zM17.081 14.2a1.502 1.502 0 001.197.401 1.389 1.389 0 00.676-.669c.075-.143.133-.294.198-.442a7.2 7.2 0 00.183-1.566c0-.019.032-.039.05-.058a4.89 4.89 0 00-.467-1.42.842.842 0 01-.1-.06.913.913 0 00-1.45.177c-.124.16-.246.321-.369.482l-.948 1.51a.332.332 0 01-.047.05v.391l.047.071a5.92 5.92 0 001.03 1.133zM23.034.966c-.33-.209-.608.004-.88.173l-.024.016c-.048.03-.086.113-.14.083-.06-.033-.003-.101.006-.155a3.647 3.647 0 00.074-.485c.018-.555-.24-.726-.746-.503a.553.553 0 00-.149.088 2.82 2.82 0 00-.805 1.086c-.064.17-.044.396-.246.502.24.237.475.48.722.708a.476.476 0 01.145.555 1.46 1.46 0 00.102 1.407.766.766 0 00.98-.16 3.3 3.3 0 001.171-1.923 2.812 2.812 0 00.105-.48c.016-.34.019-.701-.315-.912z"/><path fill="#191312" d="M24.9 15.97a9.982 9.982 0 00-3.084-1.71 1.194 1.194 0 01-.422-.246 28.713 28.713 0 01-2.01-2.148c-.017.02-.05.039-.049.058a7.2 7.2 0 01-.183 1.566l1.397 1.406a2.55 2.55 0 001.086.644 30.724 30.724 0 003.125.758 2.263 2.263 0 00.533.088 1.28 1.28 0 00-.393-.416z"/><path fill="#e5e6eb" d="M25.641 1.414a.39.39 0 01-.314-.088.442.442 0 00-.743.379 2.414 2.414 0 00.056.75.834.834 0 01.644.826 2.373 2.373 0 00.406 1.044.865.865 0 00.745.475c.717-.016.933-.568.88-1.149a3.561 3.561 0 00-.657-1.752.984.984 0 00-1.017-.485z"/><path fill="#191312" d="M18.4 16.002a6.437 6.437 0 01-.122-1.4 1.502 1.502 0 01-1.197-.402 5.92 5.92 0 01-1.03-1.133c-.016-.023-.031-.048-.047-.07v4.907a5.19 5.19 0 01.382-.902 1.651 1.651 0 012.014-1z"/><path fill="#2c2625" d="M24.036 7.535a4.185 4.185 0 01-1.03-.056 12.602 12.602 0 00-.228 1.721.837.837 0 00.792.903.932.932 0 00.953-.927 7.682 7.682 0 00-.184-1.523.312.312 0 00-.303-.118z"/><path fill="#535364" d="M19.275 16.877c-.045.006-.056-.024-.06-.06z"/><path fill="#747481" d="M18.413 16.036l.043-.037-.061-.002z"/><path fill="#c5c6cc" d="M19.212 16.815l-.056-.055z"/><path fill="#41415a" d="M16.004 10.224v.055a.625.625 0 01.232-.063 2.04 2.04 0 00-.232.008z"/><path fill="#191312" d="M17 11.045a.16.16 0 00-.18-.06 2.915 2.915 0 01-.816.055v1.566a.332.332 0 00.047-.051q.472-.756.948-1.51z"/><path fill="#e5e6eb" d="M19.972 5.492c-.59.008-1.182.002-1.773.003-.075 0-.157-.017-.213.059a1.052 1.052 0 01.632 1.123 1.031 1.031 0 01-.92.865.718.718 0 00.48.168 1.852 1.852 0 002.03-1.986c.007-.18-.062-.234-.236-.232z"/><path fill="#3da5ce" d="M17.986 5.554a1.003 1.003 0 00-1.157.357 1.797 1.797 0 00.272 1.077.976.976 0 00.597.554 1.031 1.031 0 00.92-.865 1.052 1.052 0 00-.632-1.123zm-.02.92a.269.269 0 01-.3-.285c-.01-.19.112-.275.277-.293.213 0 .279.12.288.3.01.19-.11.267-.265.279z"/><path fill="#a73063" d="M16.004 9.4v.063a.412.412 0 00.247-.052c-.08-.01-.169-.003-.247-.011z"/><path fill="#9d305f" d="M16.738 9.15c.027-.21-.224-.218-.38-.277h-.175l-.12.006c-.029-.003-.037.011-.06.013V9.4c.08.008.168.002.248.011.201-.02.456-.026.487-.261z"/><path fill="#e0dee5" d="M16.799 5.55c-.085.062-.075.246.03.361a1.208 1.208 0 01.51-.37.554.554 0 00-.54.008z"/><path fill="#e1e2e8" d="M17.943 5.896c-.165.018-.287.103-.277.293a.269.269 0 00.3.286c.154-.012.275-.088.265-.28-.009-.18-.075-.298-.288-.299z"/><path fill="#bdaed0" d="M19.978 3.745c-.114-.18-.194-.238-.341-.017-.28.42-.589.821-.877 1.236-.097.138-.153.148-.236-.009q-.3-.566-.62-1.122c-.06-.106-.089-.289-.205-.293-.12-.004-.152.178-.212.283-.476.835-.948 1.673-1.422 2.51a.385.385 0 01-.062.086v1.699l.036.002a.61.61 0 01.148.013 1.495 1.495 0 01.433.094.34.34 0 01.172.105.197.197 0 01.071.14.19.19 0 01-.057.118c-.004.006-.005.014-.01.02l-.011.008a.336.336 0 01-.137.083 1.155 1.155 0 01-.287.093l-.003.08c.155.058.407.066.38.276-.03.235-.286.241-.487.261a.412.412 0 01-.248.052v.761a2.04 2.04 0 01.232-.008 10.8 10.8 0 001.761-.488 3.61 3.61 0 002.54-3.265 4.404 4.404 0 00-.558-2.718zm-1.8 3.965a.719.719 0 01-.48-.168.976.976 0 01-.597-.554 1.797 1.797 0 01-.272-1.077c-.105-.115-.115-.299-.03-.362a.554.554 0 01.54-.009 1.216 1.216 0 01.647.014c.056-.076.138-.058.213-.059.591 0 1.182.005 1.773-.003.174-.003.242.052.235.232a1.852 1.852 0 01-2.029 1.986zm-1.381.9l-.012.008z"/><path fill="#bdaed0" d="M16.039 8.12l-.035-.002v.002h.035zm.323.652l-.001.022a1.155 1.155 0 00.288-.093 2.576 2.576 0 01-.287.07zm-.029-.598a1.562 1.562 0 01.287.053 1.495 1.495 0 00-.433-.094.32.32 0 01.117.042.197.197 0 01.029-.001zm.473.416a.19.19 0 00.057-.117.197.197 0 00-.07-.14.216.216 0 01.05.125.209.209 0 01-.037.132zm-.802.302c.022-.002.03-.016.059-.013l.12-.005h.175l.003-.08a1.902 1.902 0 01-.357.034z"/><path fill="#bdaed0" d="M16.182 8.765c-.066-.002-.134-.009-.178.056v.007a1.902 1.902 0 00.357-.034v-.022z"/><path fill="#be625a" d="M16.018 8.834l-.014.002v.627h.014c.425 0 .77-.14.77-.314s-.345-.315-.77-.315z"/><path fill="#cb655e" d="M16.004 8.118v.71c.474 0 .86-.16.86-.355s-.386-.355-.86-.355z"/><path fill="#3a3333" d="M10.216 6.757a2.5 2.5 0 00.757-2.192c-.004-.042-.043-.081-.066-.122a1.46 1.46 0 00.102-1.407.476.476 0 01.145-.555c.247-.23.482-.472.722-.708.3-.18.59-.373.9-.534a7.157 7.157 0 013.22-.762v5.944a.385.385 0 01-.061-.087c-.474-.836-.946-1.674-1.422-2.51-.06-.104-.092-.286-.213-.282-.115.004-.144.187-.204.293q-.319.556-.62 1.122c-.083.157-.14.147-.236.009-.288-.415-.597-.816-.877-1.236-.147-.222-.227-.164-.341.017a4.404 4.404 0 00-.558 2.717 3.61 3.61 0 002.54 3.266 10.8 10.8 0 001.76.488.625.625 0 01.232.062v.762a2.915 2.915 0 01-.816-.055.16.16 0 00-.18.06c-.122-.161-.244-.323-.368-.483a.913.913 0 00-1.45-.177.842.842 0 01-.1.06 10.153 10.153 0 01-1.077-.626 5.122 5.122 0 01-2.023-2.684c-.015-.184.122-.278.234-.38z"/><path fill="#413b3b" d="M6.31 4.327a2.373 2.373 0 00.406-1.044.834.834 0 01.644-.826 3.867 3.867 0 011.396-.097 3.3 3.3 0 001.171 1.922.766.766 0 00.98.16c.023.042.062.081.066.123a2.5 2.5 0 01-.757 2.192c-.112.102-.249.196-.234.38-.046-.054-.091-.093-.167-.038a3.54 3.54 0 01-.821.382 4.185 4.185 0 01-1.03.056.312.312 0 00-.303.117c.036-.211-.147-.193-.257-.226a2.542 2.542 0 01-1.839-2.626.865.865 0 00.745-.475z"/><path fill="#191312" d="M12.98 31.937a.618.618 0 01-.487-.279 1.431 1.431 0 01-.216-1.002.806.806 0 01.76-.718 1.374 1.374 0 01.317-.042c.818.077 1.254-.435 1.41-1.278a11.879 11.879 0 00-.024-3.136 58.71 58.71 0 00-.388-3.292 11.522 11.522 0 001.644.056v9.437a.77.77 0 01-.486.242 11.78 11.78 0 01-2.53.012z"/><path fill="#2c2625" d="M14.352 22.19a7.953 7.953 0 01-1.29-.184 4.596 4.596 0 01-2.03-.87 1.698 1.698 0 01-.256-2.432c.621-.64 1.302-1.222 1.956-1.829a5.772 5.772 0 00-.186 2.069 1.49 1.49 0 001.295 1.317 2.459 2.459 0 002.101-.975.473.473 0 00.055-.096v3.056a11.522 11.522 0 01-1.645-.056z"/><path fill="#f7f7f7" d="M13.84 20.262a1.49 1.49 0 01-1.294-1.318 5.772 5.772 0 01.186-2.069l-.007.003c.045.006.056-.023.06-.059l.003-.003.056-.055c.094-.382.434-.537.7-.76l.043.037.016-.035a1.651 1.651 0 012.01 1 5.191 5.191 0 01.383.902v1.285a.473.473 0 01-.054.096 2.459 2.459 0 01-2.101.976z"/><path fill="#e5e6eb" d="M13.605 15.998l-.002.005H13.6l.005-.005z"/><path fill="#f7f7f7" d="M14.919 14.202a1.502 1.502 0 01-1.197.4 1.389 1.389 0 01-.676-.668c-.075-.143-.133-.294-.198-.442a7.2 7.2 0 01-.183-1.567c0-.018-.032-.038-.05-.057a4.89 4.89 0 01.467-1.421.842.842 0 00.1-.06.913.913 0 011.45.177c.124.16.246.322.369.483l.948 1.51a.332.332 0 00.047.05v.39c-.016.024-.031.05-.047.072a5.92 5.92 0 01-1.03 1.133z"/><path fill="#edeeee" d="M8.966.968c.33-.21.608.003.88.172l.024.017c.048.03.086.113.14.083.06-.033.003-.101-.006-.155A3.647 3.647 0 019.93.6c-.018-.555.24-.726.746-.504a.553.553 0 01.149.089 2.82 2.82 0 01.805 1.086c.064.17.044.395.246.502-.24.236-.475.479-.722.708a.476.476 0 00-.145.555 1.46 1.46 0 01-.102 1.407.766.766 0 01-.98-.16 3.3 3.3 0 01-1.17-1.923 2.812 2.812 0 01-.105-.48c-.016-.341-.019-.701.315-.912z"/><path fill="#2c2625" d="M7.1 15.971a9.982 9.982 0 013.084-1.71 1.194 1.194 0 00.422-.246 28.713 28.713 0 002.01-2.147c.017.019.05.039.049.057a7.2 7.2 0 00.183 1.567l-1.397 1.405a2.55 2.55 0 01-1.086.645 30.724 30.724 0 01-3.125.758 2.263 2.263 0 01-.533.087 1.28 1.28 0 01.393-.416z"/><path fill="#edeeee" d="M6.359 1.416a.39.39 0 00.314-.088.442.442 0 01.743.379 2.414 2.414 0 01-.056.75.834.834 0 00-.644.826 2.373 2.373 0 01-.406 1.044.865.865 0 01-.745.475c-.717-.016-.933-.568-.88-1.15a3.561 3.561 0 01.657-1.751.984.984 0 011.017-.485z"/><path fill="#2c2625" d="M13.6 16.003a6.437 6.437 0 00.122-1.4 1.502 1.502 0 001.197-.401 5.92 5.92 0 001.03-1.133l.047-.071v4.908a5.19 5.19 0 00-.382-.902 1.651 1.651 0 00-2.014-1z"/><path fill="#3a3333" d="M7.964 7.537a4.185 4.185 0 001.03-.056 12.602 12.602 0 01.228 1.72.837.837 0 01-.792.904.932.932 0 01-.953-.927 7.682 7.682 0 01.184-1.524.312.312 0 01.303-.117z"/><path fill="#535364" d="M12.725 16.878c.045.006.056-.023.06-.059z"/><path fill="#747481" d="M13.587 16.038L13.544 16l.061-.002z"/><path fill="#c5c6cc" d="M12.788 16.816l.056-.055z"/><path fill="#41415a" d="M15.996 10.226v.054a.625.625 0 00-.232-.062 2.04 2.04 0 01.232.008z"/><path fill="#2c2625" d="M15 11.047a.16.16 0 01.18-.06 2.915 2.915 0 00.816.055v1.565a.332.332 0 01-.047-.05q-.472-.757-.948-1.51z"/><path fill="#e5e6eb" d="M12.028 5.494c.59.007 1.182.002 1.773.003.075 0 .157-.017.213.058a1.052 1.052 0 00-.632 1.124 1.031 1.031 0 00.92.865.718.718 0 01-.48.168 1.852 1.852 0 01-2.03-1.986c-.007-.18.062-.235.236-.232z"/><path fill="#71b1e1" d="M13.382 6.679a1.031 1.031 0 00.92.865.976.976 0 00.597-.555 1.797 1.797 0 00.272-1.076 1.003 1.003 0 00-1.157-.358 1.052 1.052 0 00-.632 1.124zm.387-.482c.009-.18.075-.299.288-.3.165.019.287.103.277.293a.269.269 0 01-.3.286c-.154-.01-.275-.088-.265-.279z"/><path fill="#a73063" d="M15.996 9.401v.064a.412.412 0 01-.247-.052c.08-.01.169-.003.247-.012z"/><path fill="#9d305f" d="M15.262 9.152c-.027-.21.224-.218.38-.277h.175l.12.005c.029-.003.037.012.06.014V9.4c-.08.009-.168.003-.248.012-.201-.02-.456-.027-.487-.261z"/><path fill="#e0dee5" d="M15.201 5.55c.085.064.075.248-.03.363a1.208 1.208 0 00-.51-.371.554.554 0 01.54.009z"/><path fill="#e1e2e8" d="M14.057 5.898c.165.018.287.103.277.292a.269.269 0 01-.3.286c-.154-.01-.275-.088-.265-.279.009-.18.075-.299.288-.3z"/><path fill="#c6b7e9" d="M11.464 6.464a3.61 3.61 0 002.54 3.266 10.8 10.8 0 001.76.488 2.04 2.04 0 01.232.008v-.761a.412.412 0 01-.247-.052c-.202-.02-.456-.027-.487-.261-.028-.21.224-.218.38-.277l-.003-.08a1.155 1.155 0 01-.288-.092.336.336 0 01-.136-.084l-.012-.008c-.004-.006-.005-.014-.01-.02a.19.19 0 01-.056-.117.197.197 0 01.07-.14.34.34 0 01.173-.106 1.495 1.495 0 01.433-.094.61.61 0 01.148-.012c.012 0 .023-.003.035-.003V6.421a.385.385 0 01-.061-.087c-.474-.836-.946-1.674-1.422-2.51-.06-.104-.092-.286-.213-.282-.116.004-.144.187-.204.293q-.319.556-.62 1.122c-.083.157-.14.147-.236.009-.288-.415-.597-.816-.877-1.236-.147-.222-.227-.164-.342.017a4.404 4.404 0 00-.557 2.717zm.328-.739c-.007-.18.062-.234.236-.231.59.007 1.182.002 1.773.003.075 0 .157-.017.213.058a1.216 1.216 0 01.647-.013.554.554 0 01.54.009c.085.063.075.247-.03.362a1.797 1.797 0 01-.272 1.076.976.976 0 01-.596.555.719.719 0 01-.481.168 1.852 1.852 0 01-2.03-1.986zm3.411 2.885l.012.01z"/><path fill="#c6b7e9" d="M15.961 8.122c.012 0 .023-.003.035-.003v.003h-.035zm-.323.651l.001.022a1.155 1.155 0 01-.288-.092 2.576 2.576 0 00.287.07zm.029-.597a1.562 1.562 0 00-.287.052 1.495 1.495 0 01.433-.094.32.32 0 00-.117.043.197.197 0 00-.029-.001zm-.473.415a.19.19 0 01-.057-.117.197.197 0 01.07-.14.216.216 0 00-.05.126.209.209 0 00.037.131zm.802.303c-.022-.002-.03-.017-.059-.014l-.12-.005h-.175l-.003-.08a1.902 1.902 0 00.358.035z"/><path fill="#c6b7e9" d="M15.818 8.766c.066-.001.134-.008.178.057v.006a1.902 1.902 0 01-.357-.034v-.022z"/><path fill="#cb655e" d="M15.982 8.836l.014.001v.627l-.014.001c-.425 0-.77-.14-.77-.314s.345-.315.77-.315z"/><path fill="#e7685f" d="M15.996 8.12v.71c-.474 0-.86-.16-.86-.356s.386-.355.86-.355z"/></svg>