<svg xmlns="http://www.w3.org/2000/svg" width="100%" height="100%" viewBox="-2.72 -2.72 37.44 37.44"><path fill="#FCA15E" d="M12.446 26.443a.25.25 0 01-.446-.156V24l-1.46.73a.25.25 0 01-.349-.303L11 22H9.405a.25.25 0 01-.224-.362L10 20l-.953-.476C9.029 19.682 9 19.837 9 20v11.5a.5.5 0 00.5.5h4a.5.5 0 00.5-.5v-6.999l-1.554 1.942z"/><path fill="#FFAD68" d="M12.446 26.443a.25.25 0 01-.446-.156V24l-1.46.73a.25.25 0 01-.349-.303L11 22H9.405a.25.25 0 01-.224-.362L10 20l-.953-.476C9.029 19.682 9 19.837 9 20v11.5a.5.5 0 00.5.5h4a.5.5 0 00.5-.5v-6.999l-1.554 1.942z"/><path fill="#F79654" d="M22 20l.819 1.638a.25.25 0 01-.223.362H21l.809 2.427a.25.25 0 01-.349.303L20 24v2.287a.25.25 0 01-.445.156L18 24.5v7a.5.5 0 00.5.5h4a.5.5 0 00.5-.5V20c0-.163-.029-.318-.048-.476L22 20z"/><path fill="#FCA15E" d="M22 20l.819 1.638a.25.25 0 01-.223.362H21l.809 2.427a.25.25 0 01-.349.303L20 24v2.287a.25.25 0 01-.445.156L18 24.5v7a.5.5 0 00.5.5h4a.5.5 0 00.5-.5V20c0-.163-.029-.318-.048-.476L22 20z"/><path fill="#EF8C48" d="M18 24.5l-1 1.75v4.25a.5.5 0 00.5.5h.5v-6.5z"/><path fill="#FCA15E" d="M14 24.5l-1.555 1.943L14 24.5V31h.5a.5.5 0 00.5-.5v-4.251L14 24.5z"/><path fill="#FAE09F" d="M18.817 20l-7-7s-2-13 10-13C32.464 0 32.09 11.808 31.871 14.471a.25.25 0 01-.426.156L28.817 12v2.396a.25.25 0 01-.427.177L25.817 12s1 8-7 8z"/><path fill="#F79654" d="M25.757 7.496c-.422-1.619-1.091-2.841-2.667-2.408-.511.141-.909.582-1.215 1.113A6.964 6.964 0 0123 10c0 .195-.013.387-.029.578.539.322 1.119.518 1.648.373 1.576-.434 1.56-1.836 1.138-3.455z"/><path fill="#FCA15E" d="M9 10c0-1.402.416-2.704 1.126-3.799-.307-.531-.704-.972-1.215-1.113-1.577-.434-2.245.789-2.668 2.408-.422 1.619-.438 3.021 1.138 3.455.529.145 1.109-.051 1.648-.373A6.903 6.903 0 019 10z"/><path fill="#2B3332" d="M18 26l1.71 1.71a.499.499 0 00.631.062L23 26v2l-1.747 2.184a.5.5 0 01-.614.135L18 29v-3z"/><path fill="#373F3F" d="M14 26l-1.71 1.71a.499.499 0 01-.631.062L9 26v2l1.747 2.184a.5.5 0 00.614.135L14 29v-3z"/><path fill="#FFAD68" d="M16 3a7 7 0 100 14V3z"/><path fill="#FCA15E" d="M23 10a7 7 0 00-7-7v14a7 7 0 007-7z"/><path fill="#FFF3D9" d="M16 9.35c-.455 0-.91.104-1.328.313-.47.235-1 .342-1.525.31-3.116-.194-4.106-1.323-4.146 1.038-.047 2.803 1.974 5.264 4.73 5.774.773.143 1.532.206 2.268.206V9.35z"/><path fill="#FDEBBB" d="M23 11.167c0-2.557-.959-1.397-4.121-1.195a3.049 3.049 0 01-1.552-.308A2.962 2.962 0 0016 9.35v7.642c3.865-.001 7-1.96 7-5.825z"/><path fill="#FAE09F" d="M22.221 14.114c-1.159.793-3.506-.121-6.221-.122v3c2.711-.001 5.058-.969 6.221-2.878z"/><path fill="#FDEBBB" d="M15.996 13.992c-2.59 0-4.846.832-6.056.221.843 1.305 2.184 2.276 3.791 2.573.773.143 1.532.206 2.268.206v-3h-.003zM9.545 7.288c-.263-.646-.589-1.151-.9-1.236A1.314 1.314 0 008.308 6c-.175 0-.64 0-1.097 1.748-.515 1.977.012 2.122.435 2.239a.407.407 0 00.109.013c.348 0 .82-.276 1.277-.641a6.986 6.986 0 01.513-2.071z"/><path fill="#FAE09F" d="M24.789 7.749C24.332 6 23.867 6 23.692 6a1.32 1.32 0 00-.338.052c-.31.085-.637.59-.9 1.236.272.646.447 1.343.513 2.071.459.365.93.641 1.278.641a.395.395 0 00.108-.013c.424-.117.951-.262.436-2.238z"/><path fill="#FFF3D9" d="M16 16.992c-.736 0-1.496-.063-2.268-.206a5.778 5.778 0 01-3.513-2.156l-1.884.314a.25.25 0 00-.182.358L9 17l-.888 1.776a.252.252 0 00.112.336L10 20l-.819 1.638a.25.25 0 00.224.362H11l-.809 2.427a.25.25 0 00.349.303L12 24v2.287a.25.25 0 00.445.156L14 24.5l1.782 3.119a.247.247 0 00.247.122v-10.75l-.029.001z"/><path fill="#FDEBBB" d="M23.888 18.776L23 17l.849-1.697a.25.25 0 00-.182-.358l-1.811-.302c-1.246 1.554-3.388 2.342-5.825 2.349v10.75a.244.244 0 00.187-.122L18 24.5l1.555 1.943a.25.25 0 00.445-.156V24l1.46.73a.25.25 0 00.349-.303L21 22h1.595a.25.25 0 00.224-.362L22 20l1.776-.888a.25.25 0 00.112-.336z"/><path fill="#373F3F" d="M16 11.001c-.552 0-1-.052-1 .5 0 .341.382.738.674.991.094.081.21.122.326.122v-1.613z"/><path fill="#2B3332" d="M16.326 12.493c.292-.254.674-.65.674-.992 0-.552-.448-.5-1-.5v1.613a.49.49 0 00.326-.121z"/><path fill="#FFF3D9" d="M15.978.336a.493.493 0 00-.378.198L14.5 2l-.656-.656a.25.25 0 00-.424.135l-.082.49a4.002 4.002 0 001.117 3.486l1.523 1.523V.336z"/><path fill="#FDEBBB" d="M18.58 1.479a.25.25 0 00-.424-.135L17.5 2 16.4.533a.497.497 0 00-.422-.198v6.643L16 7l1.544-1.544a4.002 4.002 0 001.117-3.486l-.081-.491z"/><path fill="#373F3F" d="M11 22H9.405a.25.25 0 01-.224-.362L10 20l-1 1v2l1.875-.625L11 22z"/><path fill="#F7F7F7" d="M18.879 9.972c.85-.055 1.536-.177 2.092-.279a5.971 5.971 0 00-.38-1.865.506.506 0 00-.874-.118l-1.653 2.204c.268.054.542.075.815.058z"/><path fill="#2B3332" d="M22.819 21.638a.25.25 0 01-.223.362H21l.125.375L23 23v-2l-1-1 .819 1.638zm-3.94-11.666c.404-.026.772-.068 1.107-.115a5.961 5.961 0 00-.388-1.988l-1.534 2.045c.268.054.542.075.815.058z"/><path fill="#FFF" d="M13.147 9.974c.265.016.531-.004.79-.057L12.283 7.71a.506.506 0 00-.874.118 5.971 5.971 0 00-.38 1.865c.562.103 1.256.227 2.118.281z"/><path fill="#373F3F" d="M13.147 9.974c.265.016.531-.004.79-.057l-1.536-2.048a5.985 5.985 0 00-.388 1.987c.343.049.719.092 1.134.118z"/></svg>