<svg xmlns="http://www.w3.org/2000/svg" width="100%" height="100%" viewBox="-2.72 -2.72 37.44 37.44"><path fill="#F7F7F7" d="M.224 26.213c.39-1.112 1.632-2.096 3.086-2.914.13.197.243.405.324.63.177.494.43 1.186.712 1.937.546 1.449 2.418.802 3.701 2.5.194.257.372.466.543.655-.286.557-.54 1.173-.734 1.845-.469 1.625-2.997 1.656-3.943-.902-.845-2.282-4.753-.719-3.689-3.751z"/><path fill="#FFA68E" d="M4.345 25.865c-.283-.75-.535-1.443-.712-1.937a3.002 3.002 0 00-.324-.63c2.76-1.554 6.295-2.497 6.295-2.497l2.031 4.5s-1.813 1.31-3.047 3.718a9.41 9.41 0 01-.543-.655c-1.282-1.697-3.154-1.05-3.7-2.499z"/><path fill="#EDEEEE" d="M16 13V.042s-2.667 0-2.625 2.667c.033 2.128-2.999.924-4.083 2.291-.958 1.208-1 3.958 1.458 5.75 2.243 1.635 2.458 4.375 2.458 4.375L16 13z"/><path fill="#FF8D6E" d="M16 13.5V5.458s-3.5.25-4.083 3.167c-.583 2.917-2.333 3.458-2.333 3.458l5.042 3.583L16 13.5z"/><path fill="#F7F7F7" d="M10.375 9S9.083 7.75 7.208 8s-2.083 1.708-3.25 2S0 10.792 0 13s3.542 2.375 4.125 4-.042 3.5 2.458 4 6.458-1.542 6.458-1.542l1.583-5.917L10.375 9z"/><path fill="#FF9A7E" d="M12.542 15.167s-1.792-3.958-3.875-4.125c-2.083-.167-2.481 1.036-3.875 1.292-2.042.375-2.083 1.542.458 3.333 1.928 1.359 1.25 2.208 2.833 2.833 2.023.799 3.583-1.125 3.583-1.125l.876-2.208z"/><path fill="#EDEEEE" d="M31.818 26.213c-.39-1.112-1.632-2.096-3.086-2.914-.13.197-.243.405-.324.63-.177.494-.43 1.186-.712 1.937-.546 1.449-2.418.802-3.701 2.5a9.364 9.364 0 01-.543.655c.286.557.54 1.173.734 1.845.469 1.625 2.997 1.656 3.943-.902.845-2.282 4.753-.719 3.689-3.751z"/><path fill="#FF9A7E" d="M27.696 25.865c.283-.75.535-1.443.712-1.937.081-.224.194-.433.324-.63-2.76-1.554-6.295-2.497-6.295-2.497l-2.031 4.5s1.813 1.31 3.047 3.718a9.41 9.41 0 00.543-.655c1.283-1.697 3.155-1.05 3.7-2.499z"/><path fill="#E3E5E5" d="M16 13V.042s2.667 0 2.625 2.667c-.033 2.128 2.999.924 4.083 2.291.958 1.208 1 3.958-1.458 5.75-2.243 1.635-2.458 4.375-2.458 4.375L16 13z"/><path fill="#FF805D" d="M16 13.5V5.458s3.5.25 4.083 3.167c.583 2.917 2.333 3.458 2.333 3.458l-5.042 3.583L16 13.5z"/><path fill="#EDEEEE" d="M21.625 9s1.292-1.25 3.167-1 2.083 1.708 3.25 2c1.166.292 3.958.792 3.958 3s-3.542 2.375-4.125 4 .042 3.5-2.458 4-6.458-1.542-6.458-1.542l-1.583-5.917L21.625 9z"/><path fill="#FF8D6E" d="M19.5 15.167s1.792-3.958 3.875-4.125c2.083-.167 2.481 1.036 3.875 1.292 2.042.375 2.083 1.542-.458 3.333-1.928 1.359-1.25 2.208-2.833 2.833-2.023.799-3.583-1.125-3.583-1.125l-.876-2.208z"/><path fill="#EDEEEE" d="M8.474 25.307C10.355 29.791 16 30 16 30v-3c-2.84 0-5.478-.787-7.679-2.131.047.147.093.296.153.438z"/><path fill="#E3E5E5" d="M16.001 30s5.645-.209 7.526-4.693c.059-.142.105-.291.153-.439C21.479 26.213 18.841 27 16.001 27v3z"/><path fill="#F7F7F7" d="M14.93 21.5c0-1.042-1.027-1.25-1.412-1.542-.385-.292-.642-.917-.471-2.042s.471-2.208-.599-2.75c-.263-.133-.388-.378-.43-.67-3.026 2.38-4.758 7.099-3.698 10.372C10.522 26.213 13.16 27 16 27v-4.583s-1.07.125-1.07-.917z"/><path fill="#FF8D6E" d="M12.449 15.167c1.07.542.77 1.625.599 2.75s.086 1.75.471 2.042c.385.292 1.412.5 1.412 1.542s1.07.917 1.07.917V13c-1.464 0-2.815.579-3.981 1.496.04.293.166.538.429.671z"/><path fill="#EDEEEE" d="M19.982 14.496c-.042.292-.168.537-.43.67-1.07.542-.77 1.625-.599 2.75s-.086 1.75-.471 2.042c-.385.292-1.412.5-1.412 1.542s-1.07.917-1.07.917V27c2.84 0 5.478-.787 7.68-2.132 1.06-3.274-.672-7.992-3.698-10.372z"/><path fill="#FF805D" d="M17.07 21.5c0-1.042 1.027-1.25 1.412-1.542.385-.292.642-.917.471-2.042s-.471-2.208.599-2.75c.263-.133.388-.378.43-.67C18.816 13.579 17.465 13 16.001 13v9.417s1.069.125 1.069-.917z"/><path fill="#F7F7F7" d="M21.531 22.719c0-.319-.073-.614-.197-.863l1.232-.915c.139.204.256.432.331.686.342 1.159-.199 2.34-1.209 2.638a1.695 1.695 0 01-1.024-.028c.501-.199.867-.799.867-1.518z"/><path fill="#56C7CD" d="M19.476 23.237l.353-.262c.077.251.251.427.454.427.275 0 .498-.321.498-.716a.945.945 0 00-.077-.361l.631-.469c.123.249.197.544.197.863 0 .719-.366 1.319-.866 1.518a2.189 2.189 0 01-1.19-1z"/><path fill="#2B3332" d="M20.781 22.685c0 .396-.223.716-.498.716-.203 0-.377-.176-.454-.427l.875-.65a.927.927 0 01.077.361z"/><path fill="#FF9A7E" d="M20.45 20.068c.788-.233 1.623.146 2.117.872l-1.232.915-.631.469-.875.65-.353.262a2.474 2.474 0 01-.235-.531 2.431 2.431 0 01-.088-.453c-.103-.998.419-1.924 1.297-2.184z"/><path fill="#2B3332" d="M16.793 26.5l.5.5-.5.5H16v-1z"/><path fill="#EA8BB4" d="M18.354 26.646l-1-1A.504.504 0 0017 25.5h-1v1h.689a.25.25 0 01.177.073l.25.25a.25.25 0 010 .354l-.25.25a.249.249 0 01-.177.073H16v1h1a.5.5 0 00.353-.146l1-1a.5.5 0 00.001-.708z"/><path fill="#FFF" d="M10.469 22.719c0-.319.073-.614.197-.863l-1.233-.916a2.45 2.45 0 00-.331.686c-.342 1.159.199 2.34 1.209 2.638.343.101.695.082 1.024-.028-.5-.198-.866-.798-.866-1.517z"/><path fill="#5BD3D5" d="M12.524 23.237l-.353-.262c-.077.251-.251.427-.454.427-.275 0-.498-.321-.498-.716 0-.134.033-.253.077-.361l-.631-.469a1.95 1.95 0 00-.197.863c0 .719.366 1.319.866 1.518a2.189 2.189 0 001.19-1z"/><path fill="#373F3F" d="M11.219 22.685c0 .396.223.716.498.716.203 0 .377-.176.454-.427l-.875-.65a.927.927 0 00-.077.361z"/><path fill="#FFA68E" d="M11.55 20.068c-.788-.233-1.623.146-2.117.872l1.232.915.631.469.875.65.353.262c.094-.164.178-.338.235-.531.045-.151.073-.303.088-.453.103-.998-.419-1.924-1.297-2.184z"/><path fill="#FFF5D8" d="M16 11v6h-.755c-.426 0-.81-.371-.969-.938l-.196-.697a2.09 2.09 0 01.033-1.248c.255-.688.644-1.071.898-1.337.471-.494 0-1.582.989-1.78z"/><path fill="#373F3F" d="M15.207 26.5l-.5.5.5.5H16v-1z"/><path fill="#F297BE" d="M15 25.5a.504.504 0 00-.354.146l-1 1a.5.5 0 000 .707l1 1A.5.5 0 0015 28.5h1v-1h-.689a.25.25 0 01-.177-.073l-.25-.25a.25.25 0 010-.354l.25-.25a.249.249 0 01.177-.073H16v-1h-1z"/><path fill="#FEF1C6" d="M16 11v6h.755c.426 0 .81-.371.969-.938l.196-.697a2.09 2.09 0 00-.033-1.248c-.255-.688-.644-1.071-.898-1.337-.471-.494 0-1.582-.989-1.78z"/><path fill="#FCD2BE" d="M16.236 15.69a.246.246 0 00-.236-.169V20c.75 0 1.5-.625 1.5-.625l-1.264-3.685z"/><path fill="#FCDDCF" d="M15.764 15.69L14.5 19.375S15.25 20 16 20v-4.479a.244.244 0 00-.236.169z"/></svg>