<svg xmlns="http://www.w3.org/2000/svg" width="100%" height="100%" viewBox="-2.72 -2.72 37.44 37.44"><path fill="#687271" d="M28.164 12.398L26 17s-2-1-4 0v2h4c2 0 3-3 3-3h2l.414-.414-3.25-3.188z"/><path fill="#757F7E" d="M6 17l-2.164-4.602-3.25 3.188L1 16h2s1 3 3 3h4v-2s-2-1-4 0z"/><path fill="#838C8A" d="M16 9c-.466 0-.893.16-1.233.427a1.917 1.917 0 01-1.486.398c-.427-.062-.878.014-1.281.247s-.694.585-.854.986a1.916 1.916 0 01-1.088 1.088 1.993 1.993 0 00-1.039 2.75c.138.274.147.59.092.892-.236 1.303-.125 2.725.624 4.232 1.049 2.112 3.086 3.659 5.429 3.931.282.033.561.046.837.046V9z"/><path fill="#757F7E" d="M23 17c0-.611-.086-1.201-.234-1.766.49-.624.582-1.505.162-2.234a1.986 1.986 0 00-.986-.854 1.916 1.916 0 01-1.088-1.088 1.986 1.986 0 00-2.135-1.232 1.916 1.916 0 01-1.486-.398A1.983 1.983 0 0016 9v14.997c3.866 0 7-3.131 7-6.997z"/><path fill="#909997" d="M15 19v-1.465a1 1 0 00-.445-.832l-1.612-1.075a1 1 0 00-1.449.385l-.046.092a.999.999 0 00.446 1.342L15 19z"/><path fill="#838C8A" d="M17 19v-1.465a1 1 0 01.445-.832l1.612-1.075a1 1 0 011.449.385l.046.092a.999.999 0 01-.446 1.342L17 19z"/><path fill="#FFF" d="M12 17.5v2a.5.5 0 00.5.5h2a.5.5 0 00.5-.5V19l-3-1.5z"/><path fill="#F7F7F7" d="M20 17.5v2a.5.5 0 01-.5.5h-2a.5.5 0 01-.5-.5V19l3-1.5z"/><path fill="#757F7E" d="M31.707 13.879l-2.586-2.586a.999.999 0 00-1.414 0l-.793.793a.707.707 0 001 1 .707.707 0 001 1 .707.707 0 001 1 .707.707 0 001 1l.793-.793a.999.999 0 000-1.414zM16 21c-1.555 0-2.63.32-3.271.597a1.959 1.959 0 01-1.654-.06l-.545-.272c1.133 1.455 2.783 2.472 4.633 2.686.282.033.561.046.837.046V21z"/><path fill="#838C8A" d="M5.086 12.086l-.793-.793a.999.999 0 00-1.414 0L.293 13.879a.999.999 0 000 1.414l.793.793a.707.707 0 001-1 .707.707 0 001-1 .707.707 0 001-1 .707.707 0 001-1z"/><path fill="#687271" d="M21.583 21.208l-.659.329a1.958 1.958 0 01-1.654.06C18.63 21.32 17.555 21 16 21v2.997a6.98 6.98 0 005.583-2.789z"/><path fill="#909997" d="M4.379 11.793l-.586.586a.999.999 0 000 1.414l.086.086a.999.999 0 001.414 0l.586-.586a.999.999 0 000-1.414l-.086-.086a.999.999 0 00-1.414 0z"/><path fill="#845331" d="M14 20h-1v-2l1 .5z"/><path fill="#724D31" d="M18 20h1v-2l-1 .5z"/><path fill="#838C8A" d="M27.621 11.793l.586.586a.999.999 0 010 1.414l-.086.086a.999.999 0 01-1.414 0l-.586-.586a.999.999 0 010-1.414l.086-.086a.999.999 0 011.414 0z"/></svg>