<svg xmlns="http://www.w3.org/2000/svg" width="100%" height="100%" viewBox="-2.72 -2.72 37.44 37.44"><path fill="#FFD04D" d="M14 9c1.17-2.34 7.355-8.801 17.737-9 .207-.004.339.231.216.398-1.23 1.678-6.484 8.073-15.761 9.104L14 9z"/><path fill="#9FC9E4" d="M16 27.908c-8.284 0-15 .091-15-8.481C1 13.51 7.716 6.479 16 6.479v21.429z"/><path fill="#8EC0E0" d="M16 27.908c-6.918 0-12.742.063-14.475-4.907C4 24.5 16 24.5 16 24.5v3.408z"/><path fill="#B0D3EA" d="M15.414 14.067c-.828.188-1.516.834-1.782 1.641a2.423 2.423 0 00-.036 1.458 2.08 2.08 0 010 1.17 2.43 2.43 0 00.036 1.458c.267.806.954 1.452 1.782 1.641.199.045.395.065.587.065v-7.496a2.481 2.481 0 00-.587.063z"/><circle cx="7" cy="28.5" r="2.5" fill="#9FC9E4"/><circle cx="11" cy="29" r="3" fill="#B0D3EA"/><path fill="#9FC9E4" d="M15.648 15.54a1.5 1.5 0 00-1.091 1.859c.067.232.067.471 0 .702a1.5 1.5 0 001.091 1.858c.12.027.237.039.352.039V15.5a1.66 1.66 0 00-.352.04z"/><path fill="#8EC0E0" d="M15.883 17.013a.499.499 0 00-.363.62.423.423 0 010 .234.5.5 0 00.48.633V17a.53.53 0 00-.117.013z"/><path fill="#373F3F" d="M8.5 15.75a.25.25 0 01-.099-.479l3.569-1.542a.25.25 0 11.199.459L8.6 15.73a.274.274 0 01-.1.02zm-5.975-1.448C1.558 15.977 1 17.745 1 19.427c0 .795.076 1.492.187 2.145l4.108-2.873a.25.25 0 00.062-.348l-2.832-4.049z"/><path fill="#8EC0E0" d="M16 27.908c8.284 0 15 .091 15-8.481 0-5.917-6.716-12.948-15-12.948v21.429z"/><path fill="#7FB8E0" d="M16 27.908c6.918 0 12.742.063 14.475-4.907C28 24.5 16 24.5 16 24.5v3.408z"/><path fill="#9FC9E4" d="M16.586 14.067c.828.188 1.516.834 1.782 1.641.172.52.165 1.014.036 1.458a2.08 2.08 0 000 1.17 2.43 2.43 0 01-.036 1.458c-.267.806-.954 1.452-1.782 1.641a2.653 2.653 0 01-.587.065v-7.496c.192-.002.388.017.587.063z"/><circle cx="25" cy="28.5" r="2.5" fill="#8EC0E0"/><circle cx="21" cy="29" r="3" fill="#9FC9E4"/><path fill="#8EC0E0" d="M16.352 15.54a1.5 1.5 0 011.091 1.859 1.251 1.251 0 000 .702 1.5 1.5 0 01-1.091 1.858c-.12.027-.237.039-.352.039V15.5c.115.001.232.013.352.04z"/><path fill="#7FB8E0" d="M16.117 17.013a.499.499 0 01.363.62.423.423 0 000 .234.5.5 0 01-.48.633V17a.53.53 0 01.117.013z"/><path fill="#2B3332" d="M23.401 15.729l-3.569-1.542a.25.25 0 11.199-.459L23.6 15.27a.25.25 0 11-.199.459zm6.074-1.427C30.442 15.977 31 17.745 31 19.427c0 .795-.076 1.492-.187 2.145l-4.108-2.873a.25.25 0 01-.062-.348l2.832-4.049z"/></svg>