<svg xmlns="http://www.w3.org/2000/svg" width="100%" height="100%" viewBox="-2.72 -2.72 37.44 37.44"><ellipse cx="3" cy="23.5" fill="#C27BC6" rx="2" ry="2.5"/><path fill="#FFD96C" d="M31.35 23.183c-.543-1.217-1.427-2.075-2.295-2.65-1.77-1.15-3.562-1.474-5.243-1.594-.274-.017-.541-.015-.811-.017v-8.325a6.283 6.283 0 01-4.005 1.413 6.284 6.284 0 01-3.995-1.405V21.54c-.119.081-.245.16-.36.241-2.314 1.638-4.14 3.296-5.747 4.082a4.613 4.613 0 01-1.117.397c-.088.023-.171.026-.255.042l-.079.013c.138.003.032.001.049.002l-.044.002-.175.007-.343.014-.2-.01a2.941 2.941 0 01-1.519-.466c-.802-.534-1.107-1.2-1.094-1.128a.567.567 0 10-1.107.251c.01.024.004.245.105.632.105.38.286.96.784 1.583a4.465 4.465 0 002.453 1.517l.455.096.341.047.174.024.055.008.082.003h.029l.115.001c.152-.002.312.006.466-.007a7.292 7.292 0 001.855-.362c1.952-.638 3.642-1.793 5.397-2.858.068.825.302 1.702.66 2.458a6.478 6.478 0 004.143 3.458l.474.112c.22.052.365.072.552.107.353.057.71.1 1.07.127 1.441.095 2.924.004 4.571-.473.824-.252 1.699-.584 2.65-1.267a5.828 5.828 0 001.399-1.438c.054-.075.105-.165.155-.249l.074-.129.036-.065.07-.134.099-.229a6.72 6.72 0 00.329-.904c.345-1.157.306-2.654-.253-3.862zm-5.249 2.118a.364.364 0 01-.049.036c-.223.14-.492.146-.744.183-.742.109-1.62.06-2.305-.091l-.002-.003v-1.958c.097.016.198.025.293.044 1.141.208 2.206.656 2.732 1.162a.632.632 0 01.179.379.282.282 0 01-.104.248z"/><path fill="#FAB8CD" d="M22.184 10.602l-.012.009.011-.004zm9.222 12.586c-.543-1.217-1.484-2.079-2.351-2.654-1.77-1.15-3.562-1.474-5.243-1.594-.274-.017-.541-.015-.811-.017l-.002 1.644c4.106.437 7.89 3.519 5.372 6.038-3.547 3.547-9.375.969-9.375-1.026V12.011a6.284 6.284 0 01-3.995-1.405v10.935c-.119.081-.245.16-.36.241-2.314 1.638-4.14 3.296-5.747 4.082a4.613 4.613 0 01-1.117.397c-.088.023-.171.026-.255.042l-.079.013c.138.003.032.001.049.002l-.044.002-.175.007-.343.014-.2-.01a2.941 2.941 0 01-1.519-.466c-.802-.534-1.107-1.2-1.094-1.128a.567.567 0 00-.679-.428c-.039.009-.07.031-.106.047.352 1.531 1.482 3.028 3.976 3.091 1.926.048 4.542-1.576 7.812-3.781.046.702.11 1.4.199 2.003.068.825.302 1.702.66 2.458a6.478 6.478 0 004.143 3.458l.474.112c.22.052.365.072.552.107.353.057.71.1 1.07.127 1.441.095 2.924.004 4.571-.473.824-.252 1.699-.584 2.65-1.267.471-.347 1.874-1.38 2.374-2.849.347-1.156.153-2.947-.407-4.154z"/><path fill="#DCF2FD" d="M22.184 10.602l-.012.009.011-.004z"/><path fill="#FFE28A" d="M31.406 23.188c-.543-1.217-1.484-2.079-2.351-2.654-1.77-1.15-3.562-1.474-5.243-1.594-.274-.017-.541-.015-.811-.017l-.002 1.644c4.106.437 7.89 3.519 5.372 6.038-3.547 3.547-9.375.969-9.375-1.026V12.011a6.284 6.284 0 01-3.995-1.405v10.935c-.119.081-.245.16-.36.241-2.314 1.638-4.14 3.296-5.747 4.082a4.613 4.613 0 01-1.117.397c-.088.023-.171.026-.255.042l-.079.013c.138.003.032.001.049.002l-.044.002-.175.007-.343.014-.2-.01a2.941 2.941 0 01-1.519-.466c-.802-.534-1.107-1.2-1.094-1.128a.567.567 0 00-.679-.428c-.039.009-.07.031-.106.047.352 1.531 1.482 3.028 3.976 3.091 1.926.048 4.542-1.576 7.812-3.781.046.702.11 1.4.199 2.003.068.825.302 1.702.66 2.458a6.478 6.478 0 004.143 3.458l.474.112c.22.052.365.072.552.107.353.057.71.1 1.07.127 1.441.095 2.924.004 4.571-.473.824-.252 1.699-.584 2.65-1.267.471-.347 1.874-1.38 2.374-2.849.347-1.156.153-2.947-.407-4.154z"/><path fill="#D285D2" d="M17 18.108l-.829 1.435a.271.271 0 00.235.407h1.187c.209 0 .34-.226.235-.407L17 18.108z"/><path fill="#D799D6" d="M18.5 17.755c0 .828-.672 1.345-1.5 1.345s-1.5-.516-1.5-1.345.672-1.655 1.5-1.655 1.5.827 1.5 1.655z"/><path fill="#D285D2" d="M16.452 19.018c-.558-.176-.952-.628-.952-1.263 0-.412.166-.824.436-1.134-.143.841.081 1.91.516 2.397zm1.096 0c.558-.176.952-.628.952-1.263 0-.412-.166-.824-.436-1.134.143.841-.081 1.91-.516 2.397z"/><path fill="#C27BC6" d="M21 18.108l-.829 1.435a.271.271 0 00.235.407h1.187c.209 0 .34-.226.235-.407L21 18.108z"/><path fill="#D285D2" d="M22.5 17.755c0 .828-.672 1.345-1.5 1.345s-1.5-.516-1.5-1.345.672-1.655 1.5-1.655 1.5.827 1.5 1.655z"/><path fill="#C27BC6" d="M20.452 19.018c-.558-.176-.952-.628-.952-1.263 0-.412.166-.824.436-1.134-.143.841.081 1.91.516 2.397zm1.096 0c.558-.176.952-.628.952-1.263 0-.412-.166-.824-.436-1.134.143.841-.081 1.91-.516 2.397z"/><path fill="#FFE28A" d="M19 3.042c0-1.604 1.104-3.229 4.375-3.021 2.324.148 4.361 3.422 6.957 3.14a.25.25 0 01.215.417c-1.797 2.003-3.338 1.59-4.526.402C23.7 1.658 22.625 1.917 22 1.958c-1.153.077-1.5 1-1.5 1l-1.5.084z"/><path fill="#FFE28A" d="M25 7.865c0 4.25-5.128 4.052-5.594 8.037-.047.403-.813.429-.884.03C17.831 12 13 12.122 13 7.865c0-3.038 2.686-5.5 6-5.5s6 2.462 6 5.5z"/><path fill="#FFEAA7" d="M19 2.365v13.85c-.182.017-.439-.034-.478-.245C17.789 11.997 13 12.161 13 7.903c0-3.038 2.625-5.538 6-5.538z"/><path fill="#2B3332" d="M22.844 7.75a.25.25 0 01-.124-.467c.047-.027.122-.132.178-.339.132-.487.078-1.206-.114-1.537a.251.251 0 01.092-.342.252.252 0 01.342.091c.291.503.312 1.37.164 1.918-.087.319-.226.536-.413.643a.26.26 0 01-.125.033zm-1.001-.47c.188-.107.326-.324.413-.643.147-.548.127-1.416-.164-1.918a.25.25 0 00-.434.251c.192.332.246 1.05.114 1.537-.056.207-.131.312-.178.339a.25.25 0 00.124.467.265.265 0 00.125-.033z"/><ellipse cx="21.992" cy="8" fill="#FDFDFD" rx="1.5" ry="1.75"/><path fill="#2B3332" d="M22 7c.414 0 .75.448.75 1s-.336 1-.75 1-.75-.448-.75-1 .336-1 .75-1zm-6.961.717c-.188-.107-.326-.324-.413-.643-.147-.548-.127-1.416.164-1.918a.251.251 0 01.434.251c-.192.332-.246 1.05-.114 1.537.056.207.131.312.178.339a.25.25 0 01-.249.434zm1.249-.405a.25.25 0 00.124-.467c-.047-.027-.122-.132-.178-.339-.132-.487-.078-1.206.114-1.537a.25.25 0 00-.434-.251c-.291.503-.312 1.37-.164 1.918.087.319.226.536.413.643a.25.25 0 00.125.033z"/><ellipse cx="16.016" cy="8" fill="#FDFDFD" rx="1.5" ry="1.75"/><path fill="#2B3332" d="M16.757 8c0 .552-.336 1-.75 1s-.75-.448-.75-1 .336-1 .75-1 .75.448.75 1z"/><path fill="#D799D6" d="M30.547 3.577c-1.797 2.003-3.338 1.59-4.526.402-.072-.072-.139-.134-.209-.201A1.998 1.998 0 0027 1.953c0-.01-.003-.019-.003-.029 1.048.732 2.131 1.368 3.335 1.237a.25.25 0 01.215.416z"/></svg>