<svg xmlns="http://www.w3.org/2000/svg" width="100%" height="100%" viewBox="-2.72 -2.72 37.44 37.44"><path fill="#6E57A0" d="M4 29.5a1.5 1.5 0 11-3.001-.001A1.5 1.5 0 014 29.5zM16 1.396C15.267.552 14.206 0 13 0a4 4 0 00-4 4 9 9 0 00-9 9 8.966 8.966 0 002.997 6.692A6 6 0 008 29c1.6 0 3.05-.63 4.126-1.651.698.238 1.424.411 2.174.517a6.004 6.004 0 001.7 2.582V1.396z"/><path fill="#675099" d="M26.839 21.124c-.148.312-.306.616-.479.912C28.397 22.221 30 23.914 30 26a4 4 0 01-4 4c-.467 0-.909-.095-1.326-.243A5.983 5.983 0 0120 32a5.95 5.95 0 01-4-1.553V1.396c.023.026.052.046.074.073A5.971 5.971 0 0120 0a5.996 5.996 0 015.789 4.446C29.393 5.621 32 9.004 32 13c0 3.595-2.113 6.685-5.161 8.124zM30 3.5a1.5 1.5 0 10-3.001.001A1.5 1.5 0 0030 3.5z"/><path fill="#373F3F" d="M16 4C9.373 4 4 9.373 4 16s5.373 12 12 12V4z"/><path fill="#2B3332" d="M28 16c0-6.627-5.373-12-12-12v24c6.627 0 12-5.373 12-12z"/><path fill="#FFF" d="M7.434 20.851c2.624.497 5.078-.288 6.843-1.839a.5.5 0 00.012-.723L3.711 7.711a.498.498 0 00-.723.012C1.437 9.488.652 11.942 1.149 14.566c.596 3.149 3.136 5.689 6.285 6.285z"/><path fill="#F7F7F7" d="M24.566 20.851c-2.624.497-5.078-.288-6.843-1.839a.5.5 0 01-.012-.723L28.289 7.711a.498.498 0 01.723.012c1.551 1.765 2.336 4.219 1.839 6.843-.596 3.149-3.136 5.689-6.285 6.285z"/><path fill="#F4A984" d="M16 23H9.53a.25.25 0 00-.185.419C10.106 24.245 12.175 26 16 26v-3z"/><path fill="#EA9C7A" d="M16 26c3.825 0 5.894-1.755 6.656-2.581A.25.25 0 0022.47 23H16v3z"/><path fill="#FFF" d="M11 23h2l-.776 1.553a.25.25 0 01-.447 0L11 23z"/><path fill="#F7F7F7" d="M19 23h2l-.776 1.553a.25.25 0 01-.447 0L19 23z"/><ellipse cx="22.5" cy="16" fill="#2B3332" rx=".5" ry="1"/><ellipse cx="9.5" cy="16" fill="#373F3F" rx=".5" ry="1"/></svg>