<svg xmlns="http://www.w3.org/2000/svg" width="100%" height="100%" viewBox="-2.72 -2.72 37.44 37.44"><path fill="#373F3F" d="M2 16c0 7.732 6.268 14 14 14V2C8.268 2 2 8.268 2 16z"/><path fill="#2B3332" d="M30 16c0-7.732-6.268-14-14-14v28c7.732 0 14-6.268 14-14z"/><path fill="#505957" d="M1.4.084l13.298 5.799-3.232 3.232L.422.196A.97.97 0 011.4.084z"/><path fill="#373F3F" d="M.084 1.4l5.799 13.298 3.232-3.232L.196.422a.97.97 0 00-.112.978z"/><path fill="#434C4B" d="M.309.309C.347.271.379.228.422.196l11.044 8.919-1.175 1.175-1.175 1.175L.196.422C.228.379.271.347.309.309zM30.6.084L17.301 5.883l3.232 3.232L31.577.196A.968.968 0 0030.6.084z"/><path fill="#2B3332" d="M31.916 1.4l-5.799 13.298-3.232-3.232L31.804.422a.97.97 0 01.112.978z"/><path fill="#373F3F" d="M31.691.309c-.038-.038-.07-.081-.113-.113l-11.044 8.92 1.175 1.175 1.175 1.175L31.803.422c-.031-.043-.075-.075-.112-.113z"/><path fill="#C1DDEE" d="M16 3.421h-.959a.95.95 0 01-.95-.95V1.306a.948.948 0 00-.384-.763l-.356-.264a.95.95 0 00-.827-.151l-2.322.663a.96.96 0 00-.432.265L1.55 9.824a.944.944 0 00-.256.618l-.34 10.195a.946.946 0 00.109.475l3.423 6.484c.13.246.362.423.633.484l4.343.969a.945.945 0 01.417.211l1.601 1.393a.958.958 0 00.37.199L16 32V3.421z"/><path fill="#434C4B" d="M30.6.084L17.301 5.883l3.232 3.232L31.577.196A.968.968 0 0030.6.084z"/><path fill="#2B3332" d="M31.916 1.4l-5.799 13.298-3.232-3.232L31.804.422a.97.97 0 01.112.978z"/><path fill="#373F3F" d="M31.691.309c-.038-.038-.07-.081-.113-.113l-11.044 8.92 1.175 1.175 1.175 1.175L31.803.422c-.031-.043-.075-.075-.112-.113z"/><path fill="#B0D3EA" d="M16 3.421h.959a.95.95 0 00.95-.95V1.306c0-.301.142-.584.384-.763l.356-.264a.95.95 0 01.827-.151l2.322.663a.942.942 0 01.432.264l8.22 8.768a.944.944 0 01.256.618l.34 10.195a.946.946 0 01-.109.475l-3.423 6.484a.954.954 0 01-.633.484l-4.343.969a.945.945 0 00-.417.211l-1.601 1.393a.958.958 0 01-.37.199L16 32V3.421z"/><path fill="#2B3332" d="M27.354 21.912l-3.571.743a.504.504 0 00-.361.299l-1.485 3.604a.5.5 0 00.558.681l3.322-.648a.501.501 0 00.357-.278l1.734-3.698a.5.5 0 00-.554-.703z"/><path fill="#C8CCCB" d="M20.125 24.696v2.609a11.66 11.66 0 001.059-.961.49.49 0 000-.686 11.218 11.218 0 00-1.059-.962z"/><path fill="#F7F7F7" d="M10.816 25.657a.49.49 0 000 .686c.238.245.602.596 1.059.961v-2.609a11.5 11.5 0 00-1.059.962z"/><path fill="#EDEEEE" d="M14.625 23.204c-1.087.306-2.032.918-2.75 1.492v2.609c.718.574 1.663 1.186 2.75 1.492v-5.593z"/><path fill="#D1D4D4" d="M17.375 23.204v5.593c1.087-.306 2.032-.918 2.75-1.492v-2.609c-.718-.574-1.663-1.186-2.75-1.492z"/><path fill="#E3E5E5" d="M14.625 23.204v5.593c.44.123.899.203 1.375.203v-6c-.476 0-.935.08-1.375.204z"/><path fill="#DADDDC" d="M17.375 23.204A5.058 5.058 0 0016 23v6c.476 0 .935-.08 1.375-.204v-5.592z"/><path fill="#373F3F" d="M4.646 21.912l3.571.743a.504.504 0 01.361.299l1.485 3.604a.5.5 0 01-.558.681l-3.323-.649a.501.501 0 01-.357-.278l-1.734-3.698a.5.5 0 01.555-.702zm.861-10.296s-1.717 4.04-1.316 7.289a.5.5 0 00.301.396c.994.426 4.702 1.844 8.914 1.3l-.036-2.665-7.863-6.32z"/><path fill="#2B3332" d="M26.493 11.616s1.717 4.04 1.316 7.289a.5.5 0 01-.301.396c-.994.426-4.702 1.844-8.914 1.3l.036-2.665 7.863-6.32z"/><path fill="#E55D53" d="M26 15.5a3.5 3.5 0 01-3.5 3.5 3.484 3.484 0 01-3.015-1.752l5.374-4.319A3.479 3.479 0 0126 15.5z"/><path fill="#373F3F" d="M15.453 7.358l-5.121 3.35s.82 1.462.987 1.629c.166.166 4.681 3.006 4.681 3.006V7.195a.994.994 0 00-.547.163z"/><path fill="#2B3332" d="M21.669 10.708l-5.121-3.35A1 1 0 0016 7.195v8.148s4.515-2.839 4.682-3.006c.167-.167.987-1.629.987-1.629z"/><ellipse cx="22.25" cy="16" fill="#2B3332" rx=".75" ry="2"/><path fill="#E7685F" d="M6 15.5A3.5 3.5 0 009.5 19a3.484 3.484 0 003.015-1.752l-5.374-4.319A3.479 3.479 0 006 15.5z"/><ellipse cx="9.75" cy="16" fill="#373F3F" rx=".75" ry="2"/><path fill="#D2E6F3" d="M15.46 14.996l-3.942-2.531a.995.995 0 01-.321-.334L7.207 5.36a.996.996 0 00-.266-.294l-1.496-1.11a.998.998 0 00-1.328.121l-1.12 1.205a1 1 0 00-.242.901l.814 3.597c.05.22.173.417.349.559l9.085 7.302c.232.187.369.468.373.766l.024 1.743c.004.287.131.558.348.745l1.57 1.35a.5.5 0 00.326.121H16v-7.211a1.003 1.003 0 01-.54-.159z"/><path fill="#C1DDEE" d="M16.681 22.245l1.57-1.35c.217-.187.344-.458.348-.745l.024-1.743c.004-.298.141-.579.373-.766l9.085-7.302a.998.998 0 00.349-.559l.815-3.597a1 1 0 00-.243-.902l-1.12-1.204a1 1 0 00-1.328-.122l-1.496 1.11c-.107.08-.198.18-.266.295l-3.99 6.771a.995.995 0 01-.321.334l-3.942 2.531a.997.997 0 01-.54.159v7.211h.355c.12 0 .236-.043.327-.121z"/></svg>