<svg xmlns="http://www.w3.org/2000/svg" width="100%" height="100%" viewBox="-2.72 -2.72 37.44 37.44"><path fill="#3980a8" d="M22.28 24.052l-5.245-5.244 2.358-2.358 5.204 5.204a8.866 8.866 0 001.55-4.984 9 9 0 00-2.637-6.314l-4.523 4.522-2.358-2.358 4.148-4.148a10.656 10.656 0 00-4.73-1.097l-.043.002v18.786l.042.002a10.533 10.533 0 006.234-2.013z"/><path fill="#a7794c" d="M17.035 18.808l5.245 5.244a9.701 9.701 0 002.317-2.398l-5.204-5.204zm-.405-6.288l2.357 2.358 4.523-4.522a10.057 10.057 0 00-2.733-1.984z"/><path fill="#afc9b7" d="M20.045 23.535a4.997 4.997 0 00-2.693 3.591V32h7.887l-1.09-5.45a4.25 4.25 0 00-4.104-3.015z"/><path fill="#3e88b3" d="M26.147 20.778c-.649 3.115 4.28 4.14 4.928 1.026l-3.393-2.437z"/><path fill="#afc9b7" d="M26.586 10.902l-2.758 2.565c1.306 1.314 2.26 3.367 2.319 7.31l4.928 1.027c.804-5.022 1.2-9.796-4.489-10.902z"/><path fill="#c8dac8" d="M17.352 0h-1.348v1.716h2.854L17.352 0z"/><path fill="#3e88b3" d="M17.036 3.755h2.607v3.018l2.197.85V5.772l-2.18-3.143-.802-.913h-2.854v3.881h1.032V3.755z"/><path fill="#c8dac8" d="M21.84 7.623l-2.197-.85V3.755h-2.607v1.842h-1.032v3.124h5.836V7.623z"/><path fill="#f7c845" d="M17.761 4.617h1.254v3.136h-1.254z"/><path fill="#bad3c1" d="M16.14 9.939l-.136.136v10.857l5.565-5.565-5.429-5.428z"/><path fill="#3e88b3" d="M9.72 24.052l5.244-5.244-2.357-2.358-5.204 5.204a8.866 8.866 0 01-1.55-4.984 9 9 0 012.637-6.314l4.523 4.522 2.358-2.358-4.148-4.148a10.656 10.656 0 014.73-1.097l.043.002v18.786l-.042.002a10.533 10.533 0 01-6.234-2.013z"/><path fill="#b38658" d="M14.964 18.808L9.72 24.052a9.701 9.701 0 01-2.317-2.398l5.204-5.204zm.406-6.288l-2.357 2.358-4.523-4.522a10.057 10.057 0 012.733-1.984z"/><path fill="#bad3c1" d="M11.955 23.535a4.997 4.997 0 012.693 3.591V32H6.761l1.09-5.45a4.25 4.25 0 014.104-3.015z"/><path fill="#4390bf" d="M5.853 20.778c.649 3.115-4.28 4.14-4.928 1.026l3.393-2.437z"/><path fill="#bad3c1" d="M5.414 10.902l2.758 2.565c-1.306 1.314-2.26 3.367-2.319 7.31L.925 21.805c-.804-5.022-1.2-9.796 4.489-10.902z"/><path fill="#d5e1cf" d="M14.648 0h1.348v1.716h-2.854L14.648 0z"/><path fill="#4390bf" d="M14.964 3.755h-2.607v3.018l-2.197.85V5.772l2.18-3.143.802-.913h2.854v3.881h-1.032V3.755z"/><path fill="#d5e1cf" d="M10.16 7.623l2.197-.85V3.755h2.607v1.842h1.032v3.124H10.16V7.623z"/><path fill="#ffd04d" d="M12.984 4.617h1.254v3.136h-1.254z"/><path fill="#c8dac8" d="M15.86 9.939l.136.136v10.857l-5.565-5.565 5.429-5.428z"/><path fill="none" stroke="#ffd96c" stroke-miterlimit="10" stroke-width=".5" d="M16.004 15.599l1.122-1.122-1.205-1.205-2.136 2.137 2.237 2.237 2.98-2.981-2.908-2.908-3.735 3.736 3.621 3.621"/></svg>