<svg xmlns="http://www.w3.org/2000/svg" width="100%" height="100%" viewBox="-2.72 -2.72 37.44 37.44"><path fill="#FFF3D9" d="M5.862 14.389c-1.768 1.906-.683 8.933 2.049 8.715C10.643 22.886 16 20.985 16 20.985v-2.783s-8.371-5.719-10.138-3.813z"/><path fill="#B0D3EA" d="M16 9v21s-6.181-.057-7.699-7.25C7 16.583 13.894 12 13.894 8L16 9z"/><path fill="#FDEBBB" d="M26.138 14.389C24.371 12.483 16 18.202 16 18.202v2.783s5.357 1.901 8.089 2.119c2.732.218 3.817-6.809 2.049-8.715z"/><path fill="#9FC9E4" d="M16 9v21s6.181-.057 7.699-7.25C25 16.583 18.106 12 18.106 8L16 9z"/><path fill="#FDEBBB" d="M16 13.186h-2c-.361.599-.75 1.204-1.144 1.818-1.168 1.819-2.254 2.925-2.505 4.754A21.435 21.435 0 0116 19v-5.814z"/><path fill="#FAE09F" d="M21.649 19.759c-.251-1.829-1.337-2.935-2.505-4.754-.394-.614-.783-1.22-1.144-1.818h-2V19c1.977 0 3.872.273 5.649.759zm-11.212 2.335a8.49 8.49 0 00.586 1.493A21.547 21.547 0 0116 23v-4c-1.977 0-3.872.273-5.649.759-.091.662-.08 1.413.086 2.335z"/><path fill="#F7D684" d="M16 23c1.729 0 3.396.212 4.977.587a8.57 8.57 0 00.586-1.493c.166-.922.178-1.673.087-2.335A21.406 21.406 0 0016 19v4zm-4.977.587C12.239 26.04 14.311 27 16 27v-4c-1.729 0-3.396.212-4.977.587z"/><path fill="#F0C877" d="M16 27c1.689 0 3.761-.96 4.977-3.413A21.547 21.547 0 0016 23v4z"/><path fill="#B0D3EA" d="M18 30.062V25.5a2 2 0 00-2-2v8.562a2 2 0 002-2z"/><path fill="#B0D3EA" d="M18 30.062V25.5a2 2 0 00-2-2v8.562a2 2 0 002-2z"/><path fill="#C1DDEE" d="M14 25.5v4.562a2 2 0 002 2V23.5a2 2 0 00-2 2z"/><path fill="#9FC9E4" d="M25.4 15.8s-.553-.304-1.354-.799c-.81-.483-1.852-1.176-2.881-1.888-.51-.361-1.027-.714-1.496-1.065-.469-.351-.92-.661-1.284-.957a4.105 4.105 0 01-.767-.866A2.074 2.074 0 0117.4 9.8a1.218 1.218 0 011.2-1.6s.19.007.469.091c.282.08.65.24 1.046.494.386.266.81.613 1.278.965.469.352.952.749 1.441 1.138.971.788 1.929 1.595 2.619 2.237.7.629 1.147 1.075 1.147 1.075a1.01 1.01 0 01-1.2 1.6z"/><path fill="#9FC9E4" d="M25.4 15.8s-.553-.304-1.354-.799c-.81-.483-1.852-1.176-2.881-1.888-.51-.361-1.027-.714-1.496-1.065-.469-.351-.92-.661-1.284-.957a4.105 4.105 0 01-.767-.866A2.074 2.074 0 0117.4 9.8a1.218 1.218 0 011.2-1.6s.19.007.469.091c.282.08.65.24 1.046.494.386.266.81.613 1.278.965.469.352.952.749 1.441 1.138.971.788 1.929 1.595 2.619 2.237.7.629 1.147 1.075 1.147 1.075a1.01 1.01 0 01-1.2 1.6zm1.2-14s-.447.446-1.146 1.076c-.69.642-1.648 1.449-2.619 2.237-.49.389-.973.786-1.441 1.138-.468.352-.892.699-1.278.965a4.106 4.106 0 01-1.046.494c-.28.083-.47.09-.47.09a1.218 1.218 0 01-1.2-1.6s.06-.181.219-.425c.156-.248.412-.557.767-.866.364-.296.815-.606 1.284-.957.469-.351.986-.704 1.496-1.065 1.029-.712 2.071-1.405 2.881-1.888C24.847.504 25.4.2 25.4.2a1.01 1.01 0 011.2 1.6z"/><path fill="#9FC9E4" d="M26.6 1.8s-.447.446-1.146 1.076c-.69.642-1.648 1.449-2.619 2.237-.49.389-.973.786-1.441 1.138-.468.352-.892.699-1.278.965a4.106 4.106 0 01-1.046.494c-.28.083-.47.09-.47.09a1.218 1.218 0 01-1.2-1.6s.06-.181.219-.425c.156-.248.412-.557.767-.866.364-.296.815-.606 1.284-.957.469-.351.986-.704 1.496-1.065 1.029-.712 2.071-1.405 2.881-1.888C24.847.504 25.4.2 25.4.2a1.01 1.01 0 011.2 1.6z"/><g fill="#9FC9E4"><path d="M17 6l12 1a1.004 1.004 0 010 2l-12 1a2.007 2.007 0 110-4z"/><path d="M17 6l12 1a1.004 1.004 0 010 2l-12 1a2.007 2.007 0 110-4z"/></g><g fill="#B0D3EA"><path d="M5.4 14.2s.447-.446 1.146-1.076c.69-.642 1.648-1.449 2.619-2.237.49-.389.973-.786 1.441-1.138.468-.352.892-.699 1.278-.965a4.106 4.106 0 011.046-.494c.28-.083.47-.09.47-.09a1.218 1.218 0 011.2 1.6s-.06.181-.219.425a4.077 4.077 0 01-.767.866c-.364.296-.815.606-1.284.957-.469.351-.986.704-1.496 1.065-1.029.712-2.071 1.405-2.881 1.888-.8.495-1.353.799-1.353.799a1.01 1.01 0 01-1.2-1.6z"/><path d="M5.4 14.2s.447-.446 1.146-1.076c.69-.642 1.648-1.449 2.619-2.237.49-.389.973-.786 1.441-1.138.468-.352.892-.699 1.278-.965a4.106 4.106 0 011.046-.494c.28-.083.47-.09.47-.09a1.218 1.218 0 011.2 1.6s-.06.181-.219.425a4.077 4.077 0 01-.767.866c-.364.296-.815.606-1.284.957-.469.351-.986.704-1.496 1.065-1.029.712-2.071 1.405-2.881 1.888-.8.495-1.353.799-1.353.799a1.01 1.01 0 01-1.2-1.6z"/></g><g fill="#B0D3EA"><path d="M6.6.2s.553.304 1.354.799c.81.483 1.852 1.176 2.881 1.888.51.361 1.027.714 1.496 1.065.469.351.92.661 1.284.957.354.309.611.618.767.866.158.244.218.425.218.425a1.218 1.218 0 01-1.2 1.6s-.19-.007-.469-.091c-.282-.08-.65-.24-1.046-.494-.386-.266-.81-.613-1.278-.965-.469-.352-.952-.749-1.441-1.138-.972-.788-1.929-1.595-2.62-2.236A34.305 34.305 0 015.4 1.8 1.01 1.01 0 016.6.2z"/><path d="M6.6.2s.553.304 1.354.799c.81.483 1.852 1.176 2.881 1.888.51.361 1.027.714 1.496 1.065.469.351.92.661 1.284.957.354.309.611.618.767.866.158.244.218.425.218.425a1.218 1.218 0 01-1.2 1.6s-.19-.007-.469-.091c-.282-.08-.65-.24-1.046-.494-.386-.266-.81-.613-1.278-.965-.469-.352-.952-.749-1.441-1.138-.972-.788-1.929-1.595-2.62-2.236A34.305 34.305 0 015.4 1.8 1.01 1.01 0 016.6.2z"/></g><g fill="#B0D3EA"><path d="M15 10L3 9a1.004 1.004 0 010-2l12-1a2.007 2.007 0 110 4z"/><path d="M15 10L3 9a1.004 1.004 0 010-2l12-1a2.007 2.007 0 110 4z"/></g><path fill="#C1DDEE" d="M9 7a7 7 0 007 7V0a7 7 0 00-7 7z"/><path fill="#B0D3EA" d="M23 7a7 7 0 00-7-7v14a7 7 0 007-7z"/><path fill="#373F3F" d="M13 13c0 1.654 1.346 3 3 3v-6c-1.654 0-3 1.346-3 3z"/><path fill="#D2E6F3" d="M13 13c0-1.654 1.346-3 3-3V8a5 5 0 000 10v-2c-1.654 0-3-1.346-3-3z"/><path fill="#2B3332" d="M19 13c0-1.654-1.346-3-3-3v6c1.654 0 3-1.346 3-3z"/><path fill="#C1DDEE" d="M21 13a5 5 0 00-5-5v2c1.654 0 3 1.346 3 3s-1.346 3-3 3v2a5 5 0 005-5z"/><path fill="#FF6B8B" d="M11.875 7.062c0-.846.539-1.531 1.203-1.531.205 0 .395.071.564.187.22.348.358.791.358 1.282 0 .6-.202 1.131-.515 1.498a.965.965 0 01-.407.096c-.664 0-1.203-.686-1.203-1.532z"/><path fill="#FFF" d="M12.5 5c.46 0 .867.283 1.142.718a1 1 0 00-.564-.187c-.664 0-1.203.686-1.203 1.531 0 .846.539 1.531 1.203 1.531a.969.969 0 00.407-.096c-.264.31-.606.503-.985.503-.828 0-1.5-.895-1.5-2s.672-2 1.5-2z"/><ellipse cx="12.922" cy="7.078" fill="#373F3F" rx=".328" ry=".641"/><path fill="#FF5F7E" d="M20.125 7.062c0-.846-.539-1.531-1.203-1.531a.992.992 0 00-.564.187C18.138 6.066 18 6.509 18 7c0 .6.202 1.131.515 1.498a.965.965 0 00.407.096c.664 0 1.203-.686 1.203-1.532z"/><path fill="#F7F7F7" d="M19.5 5c-.46 0-.867.283-1.142.718a1 1 0 01.564-.187c.664 0 1.203.686 1.203 1.531 0 .846-.539 1.531-1.203 1.531a.969.969 0 01-.407-.096c.264.31.606.503.985.503.828 0 1.5-.895 1.5-2s-.672-2-1.5-2z"/><ellipse cx="19.078" cy="7.078" fill="#2B3332" rx=".328" ry=".641"/></svg>