<svg xmlns="http://www.w3.org/2000/svg" width="100%" height="100%" viewBox="-2.72 -2.72 37.44 37.44"><path fill="#a92f31" d="M25.102 30.095c-.163.146-.485.183-.363.526a8.023 8.023 0 001.325.075v-.06a1.075 1.075 0 00-.962-.54z"/><path fill="#838c8a" d="M22.62 21.085a2.835 2.835 0 00-2.267 1.033 1.448 1.448 0 00-.337.725 6.44 6.44 0 001.035 2.352c.278-.204.488-.484.786-.669a2.607 2.607 0 011.587-.42c.11.007.22.002.33.002a8.59 8.59 0 00-.951-2.84z"/><path fill="#757f7e" d="M23.723 15.323c-.172.48-.335.964-.501 1.446a1.58 1.58 0 01-.21.397.616.616 0 01-1.12-.071l-.119-.06a4.879 4.879 0 01-1.572 2.196c.013.109.11.11.18.128a3.995 3.995 0 012.237 1.665l.001.06.184.183a4.542 4.542 0 00.779-1.584 12.238 12.238 0 00.294-4.64c-.119.056-.117.181-.153.28z"/><path fill="#838c8a" d="M20.382 19.36c-.071-.018-.168-.02-.181-.129a9.178 9.178 0 01-.544-2.607 12.946 12.946 0 01.009-1.807 10.682 10.682 0 01-.618-1.39 2.242 2.242 0 01-.103-.823 1.133 1.133 0 01.482-.789 2.01 2.01 0 00-.25-.524 3.21 3.21 0 00-1.093 1.628c.089-.039.143-.015.193.073a5.68 5.68 0 01.768 2.105 3.566 3.566 0 01-.176 1.153 14.215 14.215 0 00.978 4.297 2.883 2.883 0 01.167 1.801l.007.067a3.03 3.03 0 01.758-.98 2.627 2.627 0 011.84-.41 3.995 3.995 0 00-2.237-1.666z"/><path fill="#909997" d="M18.084 12.92a3.21 3.21 0 011.093-1.63 4.475 4.475 0 01-.264-.826c-.088-.515-.183-1.029-.275-1.543l-.604.143a.607.607 0 00-.011.05c-.106.313-.203.63-.32.938a1.583 1.583 0 01-.647.864c-.372.226-.707.513-1.056.776v2.948a6.428 6.428 0 012.084-1.72zm2.282-.432a.94.94 0 00-.939-.673 1.133 1.133 0 00-.482.789 2.242 2.242 0 00.103.823 10.682 10.682 0 00.618 1.39c.366.423.608.93.945 1.373a1.747 1.747 0 01.136.197.26.26 0 00.421.106c.11-.237.202-.483.333-.707.08-.136.203-.317.386-.083-.029-.104.02-.213-.047-.32a19.757 19.757 0 01-1.474-2.895z"/><path fill="#838c8a" d="M21.17 25.374a8.445 8.445 0 001.567 1.957 1.238 1.238 0 00.904.338l.124-.055a.457.457 0 00.098-.28 10.704 10.704 0 00-.099-3.106 3.151 3.151 0 00-2.594 1.146z"/><path fill="#c23734" d="M19.288.029c-.024-.023-.072-.02-.11-.029l.124.393a4.967 4.967 0 01.594 6.814 6.224 6.224 0 01-1.928 1.746l-.06.103.126.008q.302-.07.604-.143a6.103 6.103 0 001.094-.629 4.811 4.811 0 001.725-3.562A5.667 5.667 0 0019.288.029z"/><path fill="#909997" d="M23.223 14.074c-.163.338-.318.679-.49 1.013a3.63 3.63 0 01-.597.982 1.96 1.96 0 00-.243 1.026.616.616 0 001.12.071 1.58 1.58 0 00.209-.397c.166-.482.33-.965.501-1.446.036-.099.034-.224.153-.28-.015-.28.17-.514.182-.787-.395.285-.605.239-.835-.182z"/><path fill="#757f7e" d="M23.163 13.47a2.15 2.15 0 01-.07-.609l-.474-.725a.54.54 0 00-.042.112q-.257 1.838-.511 3.676l.07.145a3.63 3.63 0 00.598-.982c.17-.334.326-.675.489-1.013a1.395 1.395 0 01-.06-.605z"/><path fill="#3a3333" d="M23.68 9.909a3.415 3.415 0 00-1.06 2.227l.474.725c.033-.128.025-.318.178-.333.122-.01.114.18.172.278l.075.124.13-.116a8.98 8.98 0 01.17-2.84c.012-.052.057-.124-.002-.158-.021-.013-.095.054-.137.093z"/><path fill="#9da5a4" d="M23.773 12.792l-.125.022-.13.116c.016.067.03.135.047.202a.336.336 0 01-.07.362c-.106.095-.224.031-.332-.025a1.395 1.395 0 00.06.605c.23.42.44.467.835.182l.146-.176c-.298-.332-.266-.472.138-.614.056-.02.11-.047.165-.07l-.092-.338c-.203-.115-.378-.298-.642-.266z"/><path fill="#838c8a" d="M22.066 15.924c-.095-.045-.113-.152-.179-.22-.183-.235-.306-.054-.386.082-.13.224-.224.47-.333.707a3.06 3.06 0 00.605.542l.12.06a1.96 1.96 0 01.243-1.026z"/><path fill="#687271" d="M23.424 24.106a2.607 2.607 0 00-1.588.42c-.297.185-.507.465-.785.67l.119.178a3.151 3.151 0 012.594-1.146l-.01-.12c-.11 0-.22.005-.33-.002z"/><path fill="#b33533" d="M24.228 12.2a2.086 2.086 0 00-.455.592c.264-.032.439.151.642.266a2.173 2.173 0 00.073-.773c-.002-.08.003-.19-.073-.215-.077-.026-.13.076-.187.13zm.542 1.074c-.033-.026-.085.013-.104.062l-.16.06c-.054.023-.108.05-.164.07-.404.142-.436.282-.138.614a.806.806 0 00.54-.665c.05-.04.08-.098.027-.14z"/><path fill="#5e6056" d="M23.73 27.68l.035-.066-.124.055z"/><path fill="#a92f31" d="M20.731 30.443a.648.648 0 00-.44.756c.007.059.013.144.05.166.054.031.099-.046.142-.082.168-.143.334-.289.5-.433.106-.254.019-.387-.252-.407zm2.836.968a1.71 1.71 0 01.513.589.735.735 0 00-.167-.938c-.224.01-.399.066-.346.35z"/><path fill="#413b3b" d="M19.32.542a10.917 10.917 0 01.33 2.689 3.699 3.699 0 01-.724 2.198.605.605 0 01-.963.122 2.97 2.97 0 00-.374.8c-.034.086-.05.156.074.168.2.002.417-.053.549.17a1.262 1.262 0 01.193 1.243 3.723 3.723 0 01-.437 1.02 6.22 6.22 0 001.928-1.745 4.967 4.967 0 00-.594-6.814c.006.05.007.1.017.15z"/><path fill="#c8cccb" d="M17.06 6.082a1.602 1.602 0 01.061-.592l.075-.349.045-.183a3.14 3.14 0 01.772-1.535c.036-.043.076-.109.146-.076.065.03.039.105.05.16a4.591 4.591 0 010 1.553c.115-.164.227-.33.347-.49a.188.188 0 00.02-.22 3.574 3.574 0 01-.257-1.714.333.333 0 00-.247-.396A2.409 2.409 0 0116.588.747C16.473.403 16.31.3 16 .357v6.517a2.378 2.378 0 00.938-.503.328.328 0 00.122-.289z"/><path fill="#4f4949" d="M16.44 7.665a4.7 4.7 0 001.223-1.146c-.124-.012-.108-.082-.074-.167a2.97 2.97 0 01.374-.8l.246-.492a4.591 4.591 0 000-1.552c-.011-.056.015-.13-.05-.161-.07-.033-.11.033-.146.076a3.14 3.14 0 00-.772 1.535l.17-.187a.144.144 0 01.059-.144c.045-.114.116-.256.235-.224.093.026.078.193.075.304a1.093 1.093 0 01-.192.653c-.12.158-.266.248-.467.13a1.602 1.602 0 00-.061.592.328.328 0 01-.122.29 2.378 2.378 0 01-.938.502v.92l.088.002a.575.575 0 00.351-.131z"/><path fill="#41414f" d="M16 17.182v.095l.028-.01a.47.47 0 01-.028-.085z"/><path fill="#3a3333" d="M22.695 29.472c-.08-.04-.214-.055-.176-.201a1.793 1.793 0 01.713-1.211 1.315 1.315 0 00.497-.38l-.088-.01a1.238 1.238 0 01-.904-.34 8.445 8.445 0 01-1.567-1.956l-.12-.179a6.44 6.44 0 01-1.034-2.352l-.112-.061a10.314 10.314 0 00-.323 2.28 2.965 2.965 0 00.376.58 12.03 12.03 0 001.693 1.802.389.389 0 01.131.47 4.467 4.467 0 01-.418.899 1.705 1.705 0 00-.302.78 1.346 1.346 0 01-.33.85c.271.02.358.153.253.407a3.744 3.744 0 00.378-.1 1.705 1.705 0 011.697.297 2.42 2.42 0 00.508.364c-.053-.283.122-.34.346-.35-.114-.112-.23-.223-.342-.338-.032-.032-.082-.081-.075-.112.015-.064.084-.03.128-.03.372.011.743.026 1.115.04-.123-.343.2-.38.363-.526-.14-.02-.278-.044-.417-.063a6.303 6.303 0 01-1.99-.56z"/><path fill="#4f4949" d="M18.869 16.25a3.566 3.566 0 00.176-1.153 5.68 5.68 0 00-.768-2.104c-.05-.09-.104-.113-.193-.074A6.427 6.427 0 0016 14.64v1.977a16.805 16.805 0 001.723.184 1.486 1.486 0 001.146-.55z"/><path fill="#413b3b" d="M17.239 17.728a7.108 7.108 0 011.817 2.216 4.948 4.948 0 01.73 1.733 1.784 1.784 0 01.122.613l.106.058a2.884 2.884 0 00-.167-1.8 14.215 14.215 0 01-.978-4.298 1.486 1.486 0 01-1.146.55A16.805 16.805 0 0116 16.616v.566a.47.47 0 00.028.086 1.928 1.928 0 011.21.46z"/><path fill="#687271" d="M20.78 21.436a3.028 3.028 0 00-.758.979l-.117.115c.048.084-.005.168-.001.252l.112.061a1.448 1.448 0 01.337-.725 2.835 2.835 0 012.266-1.033v-.06a2.627 2.627 0 00-1.84.411z"/><path fill="#687271" d="M19.908 22.29l-.003.24.116-.115-.007-.067z"/><path fill="#9da5a4" d="M17.702 10.052c.118-.309.215-.625.32-.938a.607.607 0 01.012-.05l-.127-.008.06-.103a3.723 3.723 0 00.438-1.02 1.262 1.262 0 00-.193-1.245l-.68 1.301a1.825 1.825 0 00-.235.614c-.021.174-.166.247-.279.336A5.218 5.218 0 0116 9.702v1.99c.35-.263.684-.55 1.056-.776a1.583 1.583 0 00.646-.864z"/><path fill="#b33533" d="M23.519 12.93l-.075-.124c-.058-.097-.05-.289-.172-.278-.153.015-.145.205-.178.333a2.15 2.15 0 00.069.608c.108.056.226.12.332.025a.336.336 0 00.07-.362c-.018-.067-.03-.135-.046-.202z"/><path fill="#b9bfbe" d="M19.905 22.53l.003-.24a1.783 1.783 0 00-.123-.613q.003.897 0 0a4.949 4.949 0 00-.729-1.733 7.108 7.108 0 00-1.817-2.216 1.928 1.928 0 00-1.211-.46l-.028.009v9.117a4.063 4.063 0 001.017-.054 3.933 3.933 0 002.223-1.02c.14-.052.17-.249.34-.257a10.319 10.319 0 01.323-2.281c-.003-.084.05-.168.002-.252z"/><path fill="#abb2b1" d="M17.297 8.603a1.825 1.825 0 01.235-.614l.68-1.3c-.132-.223-.35-.168-.549-.17a4.7 4.7 0 01-1.224 1.146.575.575 0 01-.351.13c-.03.014-.059-.013-.088 0v1.907a5.218 5.218 0 001.018-.763c.113-.089.258-.162.279-.336z"/><path fill="#c23734" d="M17.47 4.627c.11.05.083.116.02.185.039.316-.022.384-.294.33l-.075.348c.2.118.347.028.467-.13a1.093 1.093 0 00.192-.653c.003-.111.018-.278-.075-.304-.119-.032-.19.11-.235.224z"/><path fill="#0e0909" d="M17.41 4.77l-.17.188-.044.183c.273.055.333-.013.293-.329z"/><path fill="#c4b4b4" d="M17.41 4.77l.08.042c.063-.07.09-.134-.02-.185a.144.144 0 00-.06.144z"/><path fill="#b33533" d="M6.898 30.095c.163.146.485.183.363.526a8.023 8.023 0 01-1.325.075v-.06a1.075 1.075 0 01.962-.54z"/><path fill="#909997" d="M9.38 21.085a2.835 2.835 0 012.267 1.033 1.448 1.448 0 01.337.725 6.44 6.44 0 01-1.035 2.352c-.278-.204-.489-.484-.786-.669a2.607 2.607 0 00-1.587-.42c-.11.007-.22.002-.33.002a8.59 8.59 0 01.951-2.84z"/><path fill="#909997" d="M11.618 19.36c.071-.018.168-.02.181-.129a9.178 9.178 0 00.544-2.607 12.946 12.946 0 00-.009-1.807 10.682 10.682 0 00.618-1.39 2.242 2.242 0 00.103-.823 1.133 1.133 0 00-.482-.789 2.01 2.01 0 01.25-.524 3.21 3.21 0 011.093 1.628c-.089-.039-.143-.015-.193.073a5.68 5.68 0 00-.768 2.105 3.566 3.566 0 00.176 1.153 14.215 14.215 0 01-.978 4.297 2.883 2.883 0 00-.167 1.801l-.007.067a3.03 3.03 0 00-.758-.98 2.627 2.627 0 00-1.84-.41 3.995 3.995 0 012.237-1.666z"/><path fill="#9da5a4" d="M13.916 12.92a3.21 3.21 0 00-1.093-1.63 4.475 4.475 0 00.264-.826c.088-.515.183-1.029.275-1.543l.604.143a.607.607 0 01.011.05c.106.313.203.63.32.938a1.583 1.583 0 00.647.864c.372.226.707.513 1.056.776v2.948a6.428 6.428 0 00-2.084-1.72zm-2.282-.432a.94.94 0 01.94-.673 1.133 1.133 0 01.48.789 2.242 2.242 0 01-.101.823 10.682 10.682 0 01-.619 1.39c-.366.423-.608.93-.945 1.373a1.747 1.747 0 00-.136.197.26.26 0 01-.421.106c-.11-.237-.202-.483-.333-.707-.08-.136-.203-.317-.386-.083.029-.104-.02-.213.047-.32a19.757 19.757 0 001.474-2.895z"/><path fill="#909997" d="M10.83 25.374a8.445 8.445 0 01-1.567 1.957 1.238 1.238 0 01-.904.338l-.124-.055a.457.457 0 01-.098-.28 10.704 10.704 0 01.099-3.106 3.151 3.151 0 012.594 1.146z"/><path fill="#cf3c35" d="M12.712.029c.024-.023.072-.02.11-.029l-.124.393a4.967 4.967 0 00-.594 6.814 6.224 6.224 0 001.928 1.746l.06.103-.126.008q-.302-.07-.604-.143a6.103 6.103 0 01-1.094-.629 4.811 4.811 0 01-1.725-3.562A5.667 5.667 0 0112.712.029z"/><path fill="#9da5a4" d="M8.777 14.074c.163.338.318.679.49 1.013a3.63 3.63 0 00.597.982 1.96 1.96 0 01.243 1.026.616.616 0 01-1.12.071 1.58 1.58 0 01-.209-.397c-.166-.482-.33-.965-.501-1.446a5.625 5.625 0 01-.335-1.067c.395.285.605.239.835-.182z"/><path fill="#abb2b1" d="M8.227 12.792l.125.022.13.116c-.016.067-.03.135-.047.202a.336.336 0 00.07.362c.106.095.224.031.332-.025a1.395 1.395 0 01-.06.605c-.23.42-.44.467-.835.182l-.146-.176c.298-.332.266-.472-.138-.614-.056-.02-.11-.047-.165-.07l.092-.338c.203-.115.378-.298.642-.266z"/><path fill="#909997" d="M9.934 15.924c.095-.045.113-.152.179-.22.183-.235.306-.054.386.082.13.224.224.47.333.707a3.06 3.06 0 01-.605.542l-.12.06a1.96 1.96 0 00-.243-1.026z"/><path fill="#757f7e" d="M8.576 24.106a2.607 2.607 0 011.588.42c.297.185.507.465.785.67l-.119.178a3.151 3.151 0 00-2.594-1.146l.01-.12c.11 0 .22.005.33-.002z"/><path fill="#c23734" d="M7.772 12.2a2.086 2.086 0 01.455.592c-.264-.032-.439.151-.642.266a2.173 2.173 0 01-.073-.773c.002-.08-.003-.19.073-.215.077-.026.13.076.187.13zm-.114 1.266c-.056-.02-.11-.047-.165-.07l-.159-.06c-.019-.05-.071-.088-.105-.062-.053.043-.023.101.026.141a.806.806 0 00.54.665c.299-.332.267-.472-.137-.614z"/><path fill="#5e6056" d="M8.27 27.68l-.035-.066.124.055z"/><path fill="#b33533" d="M11.269 30.443a.648.648 0 01.44.756c-.007.059-.013.144-.05.166-.054.031-.099-.046-.142-.082-.168-.143-.334-.289-.5-.433-.106-.254-.019-.387.252-.407zm-2.836.968A1.71 1.71 0 007.92 32a.735.735 0 01.167-.938c.224.01.399.066.346.35z"/><path fill="#4f4949" d="M12.68.542a10.917 10.917 0 00-.33 2.689 3.699 3.699 0 00.724 2.198.605.605 0 00.963.122 2.97 2.97 0 01.374.8c.034.086.05.156-.074.168-.2.002-.417-.053-.549.17a1.262 1.262 0 00-.193 1.243 3.723 3.723 0 00.437 1.02 6.22 6.22 0 01-1.928-1.745 4.967 4.967 0 01.594-6.814c-.006.05-.007.1-.017.15z"/><path fill="#d1d4d4" d="M14.94 6.082a1.602 1.602 0 00-.061-.592l-.075-.349-.045-.183a3.14 3.14 0 00-.772-1.535c-.036-.043-.076-.109-.146-.076-.065.03-.039.105-.05.16a4.591 4.591 0 000 1.553c-.115-.164-.227-.33-.347-.49a.188.188 0 01-.02-.22 3.574 3.574 0 00.257-1.714.333.333 0 01.247-.396A2.409 2.409 0 0015.412.747c.115-.344.278-.447.588-.39v6.517a2.378 2.378 0 01-.938-.503.328.328 0 01-.122-.289z"/><path fill="#5a5353" d="M15.56 7.665a4.7 4.7 0 01-1.223-1.146c.124-.012.108-.082.074-.167a2.97 2.97 0 00-.374-.8l-.246-.492a4.591 4.591 0 010-1.552c.011-.056-.015-.13.05-.161.07-.033.11.033.146.076a3.14 3.14 0 01.772 1.535l-.17-.187a.144.144 0 00-.059-.144c-.045-.114-.116-.256-.235-.224-.093.026-.078.193-.075.304a1.093 1.093 0 00.192.653c.12.158.266.248.467.13a1.602 1.602 0 01.061.592.328.328 0 00.122.29 2.378 2.378 0 00.938.502v.92l-.088.002a.575.575 0 01-.351-.131z"/><path fill="#41414f" d="M16 17.182v.095l-.028-.01a.47.47 0 00.028-.085z"/><path fill="#413b3b" d="M9.306 29.472c.08-.04.213-.055.175-.201a1.793 1.793 0 00-.713-1.211 1.315 1.315 0 01-.497-.38l.088-.01a1.238 1.238 0 00.904-.34 8.445 8.445 0 001.567-1.956l.12-.179a6.44 6.44 0 001.034-2.352l.113-.061a10.314 10.314 0 01.322 2.28 2.965 2.965 0 01-.376.58 12.03 12.03 0 01-1.693 1.802.389.389 0 00-.131.47 4.467 4.467 0 00.418.899 1.705 1.705 0 01.302.78 1.346 1.346 0 00.33.85c-.271.02-.358.153-.253.407a3.744 3.744 0 01-.378-.1 1.705 1.705 0 00-1.697.297 2.42 2.42 0 01-.508.364c.053-.283-.122-.34-.346-.35.114-.112.23-.223.342-.338.032-.032.082-.081.075-.112-.015-.064-.084-.03-.128-.03-.372.011-.743.026-1.115.04.123-.343-.2-.38-.363-.526.14-.02.278-.044.417-.063a6.303 6.303 0 001.99-.56z"/><path fill="#5a5353" d="M13.131 16.25a3.566 3.566 0 01-.176-1.153 5.68 5.68 0 01.768-2.104c.05-.09.104-.113.193-.074A6.427 6.427 0 0116 14.64v1.977a16.805 16.805 0 01-1.723.184 1.486 1.486 0 01-1.146-.55z"/><path fill="#4f4949" d="M14.761 17.728a7.108 7.108 0 00-1.817 2.216 4.948 4.948 0 00-.73 1.733 1.784 1.784 0 00-.122.613l-.106.058a2.884 2.884 0 01.167-1.8 14.215 14.215 0 00.978-4.298 1.486 1.486 0 001.146.55A16.805 16.805 0 0016 16.616v.566a.47.47 0 01-.028.086 1.928 1.928 0 00-1.21.46z"/><path fill="#757f7e" d="M11.22 21.436a3.028 3.028 0 01.758.979l.117.115c-.048.084.005.168.001.252l-.112.061a1.448 1.448 0 00-.337-.725 2.835 2.835 0 00-2.266-1.033v-.06a2.627 2.627 0 011.84.411z"/><path fill="#757f7e" d="M12.092 22.29l.003.24-.116-.115.007-.067z"/><path fill="#abb2b1" d="M14.298 10.052c-.118-.309-.215-.625-.32-.938a.607.607 0 00-.012-.05l.127-.008-.06-.103a3.723 3.723 0 01-.438-1.02 1.262 1.262 0 01.193-1.245l.68 1.301a1.825 1.825 0 01.235.614c.021.174.166.247.279.336A5.218 5.218 0 0016 9.702v1.99c-.35-.263-.684-.55-1.056-.776a1.583 1.583 0 01-.646-.864z"/><path fill="#c23734" d="M8.481 12.93l.075-.124c.058-.097.05-.289.172-.278.153.015.145.205.178.333a2.15 2.15 0 01-.069.608c-.108.056-.226.12-.332.025a.336.336 0 01-.07-.362c.018-.067.03-.135.046-.202z"/><path fill="#c8cccb" d="M15.972 17.267a1.928 1.928 0 00-1.21.46 7.108 7.108 0 00-1.818 2.217 4.949 4.949 0 00-.73 1.733q-.002.898 0 0a1.783 1.783 0 00-.122.613l.003.24c-.048.084.005.168.001.251a10.319 10.319 0 01.323 2.281c.172.01.201.206.34.258a3.933 3.933 0 002.224 1.02 4.063 4.063 0 001.017.054v-9.117z"/><path fill="#b9bfbe" d="M14.703 8.603a1.825 1.825 0 00-.235-.614l-.68-1.3c.132-.223.35-.168.549-.17a4.7 4.7 0 001.224 1.146.575.575 0 00.351.13c.03.014.059-.013.088 0v1.907a5.218 5.218 0 01-1.018-.763c-.113-.089-.258-.162-.279-.336z"/><path fill="#cf3c35" d="M14.53 4.627c-.11.05-.083.116-.02.185-.039.316.022.384.294.33l.075.348c-.2.118-.347.028-.467-.13a1.093 1.093 0 01-.192-.653c-.003-.111-.018-.278.075-.304.119-.032.19.11.235.224z"/><path fill="#0e0909" d="M14.59 4.77l.17.188.044.183c-.273.055-.333-.013-.293-.329z"/><path fill="#c4b4b4" d="M14.59 4.77l-.08.042c-.063-.07-.09-.134.02-.185a.144.144 0 01.06.144z"/></svg>