<svg xmlns="http://www.w3.org/2000/svg" width="100%" height="100%" viewBox="-2.72 -2.72 37.44 37.44"><path fill="#f7c845" d="M4.632 30.601c.029.11.991.032 1.3 0l-.159-.6c.02.088-1.164.51-1.14.6z"/><path fill="#7f6858" d="M5.773 30l.159.601h3.335v-2.326a6.844 6.844 0 00-3.453-1.194 5.593 5.593 0 00-.04 2.92z"/><path fill="#962931" d="M8.53 24.095a5.087 5.087 0 00-2.716 2.986 6.844 6.844 0 013.453 1.194l.988-2.019z"/><path fill="#9c2c30" d="M14.536 10.446l-5.27 15.81c1.107 1.4 2.823 2.304 5.517 2.509l.82-16.659a174.77 174.77 0 00-1.067-1.66zm-2.697-3.818a7.895 7.895 0 011.037-4.025 15.454 15.454 0 00-5.241 9.062l4.567-4.606a5.804 5.804 0 00-.363-.431zM7.29 14.84c0 .081-.006.16-.006.242a33.148 33.148 0 00.668 8.486l6.23-13.663a69.523 69.523 0 00-1.48-2.174z"/><path fill="#ffd04d" d="M12.202 7.059l-4.567 4.606a17.19 17.19 0 00-.344 3.175l5.412-7.109a19.992 19.992 0 00-.5-.672zm1.981 2.846l-6.23 13.663a7.622 7.622 0 001.314 2.688l5.269-15.81-.353-.54zm1.42 2.201l-.82 16.659c.39.03.785.056 1.217.056V12.734s-.154-.246-.397-.628z"/><path fill="#876f5d" d="M12.876 2.603a7.895 7.895 0 00-1.037 4.025C12.794 7.61 16 12.734 16 12.734V1.342a5.41 5.41 0 00-3.124 1.261z"/><ellipse cx="14.001" cy="7.165" fill="#f7f7f7" rx=".813" ry="1.182" transform="rotate(-57.201 14 7.165)"/><ellipse cx="14.144" cy="7.257" fill="#373f3f" rx=".295" ry=".203" transform="rotate(-57.201 14.144 7.257)"/><path fill="#8e7763" d="M4.175 14.063a5.679 5.679 0 011.725-.952l-.322-1.003a8.742 8.742 0 00-2.366 1.1c-.358.534 0 3.795 0 3.795h1.017s-.405-2.37-.054-2.94z"/><path fill="#a92f31" d="M4.229 17.003H3.212c-1.018.136-1.579.643-1.445 1.716h3.535c.086-1.063-.264-1.644-1.073-1.716zm.713 4.967c.152-.328.296-.668.429-1.028H1.767a6.647 6.647 0 00.105.825 4.595 4.595 0 011.264-.176 4.293 4.293 0 011.806.38z"/><path fill="#ffd96c" d="M4.942 21.97a4.293 4.293 0 00-1.806-.38 4.595 4.595 0 00-1.264.177 6.384 6.384 0 001.286 2.903 9.856 9.856 0 001.784-2.7z"/><path fill="#8e7763" d="M5.302 18.72H1.767c-2.356 0-2.356 2.222 0 2.222H5.37c1.826-.1 1.758-2.323-.069-2.222z"/><path fill="#a92f31" d="M8.93 10.95s-1.776.57-3.352 1.158L5.9 13.11c1.445-.626 3.262-1.277 3.262-1.277.34-.089.11-.973-.231-.884z"/><ellipse cx="3.483" cy="19.831" fill="#373f3f" rx=".344" ry=".717"/><ellipse cx="1.423" cy="19.83" fill="#373f3f" rx=".344" ry=".717"/><ellipse cx="5.471" cy="19.831" fill="#373f3f" rx=".344" ry=".717"/><path fill="#f0c13e" d="M27.368 30.601c-.029.11-.991.032-1.3 0l.159-.6c-.02.088 1.164.51 1.14.6z"/><path fill="#776151" d="M26.227 30l-.159.601h-3.335v-2.326a6.844 6.844 0 013.453-1.194 5.593 5.593 0 01.04 2.92z"/><path fill="#8e252d" d="M23.47 24.095a5.087 5.087 0 012.716 2.986 6.844 6.844 0 00-3.453 1.194l-.988-2.019z"/><path fill="#962931" d="M17.464 10.446l5.27 15.81c-1.107 1.4-2.823 2.304-5.517 2.509l-.82-16.659c.265-.418.648-1.016 1.067-1.66zm2.697-3.818a7.895 7.895 0 00-1.037-4.025 15.454 15.454 0 015.241 9.062l-4.567-4.606c.14-.178.265-.33.363-.431zm4.549 8.212c0 .081.006.16.006.242a33.148 33.148 0 01-.668 8.486l-6.23-13.663a69.523 69.523 0 011.48-2.174z"/><path fill="#f7c845" d="M19.798 7.059l4.567 4.606a17.19 17.19 0 01.344 3.175l-5.412-7.109c.183-.255.352-.482.5-.672zm-1.981 2.846l6.23 13.663a7.622 7.622 0 01-1.314 2.688l-5.269-15.81.353-.54zm-1.42 2.201l.82 16.659c-.39.03-.785.056-1.217.056V12.734s.154-.246.397-.628z"/><path fill="#7f6858" d="M19.124 2.603a7.895 7.895 0 011.037 4.025C19.206 7.61 16 12.734 16 12.734V1.342a5.41 5.41 0 013.124 1.261z"/><ellipse cx="17.999" cy="7.165" fill="#edeeee" rx="1.182" ry=".813" transform="rotate(-32.799 18 7.165)"/><ellipse cx="17.856" cy="7.257" fill="#2b3332" rx=".203" ry=".295" transform="rotate(-32.799 17.856 7.257)"/><path fill="#876f5d" d="M27.825 14.063a5.679 5.679 0 00-1.725-.952l.322-1.003a8.742 8.742 0 012.366 1.1c.358.534 0 3.795 0 3.795h-1.017s.405-2.37.054-2.94z"/><path fill="#9c2c30" d="M27.771 17.003h1.017c1.018.136 1.579.643 1.445 1.716h-3.535c-.086-1.063.264-1.644 1.073-1.716zm-.713 4.967a13.99 13.99 0 01-.429-1.028h3.604a6.647 6.647 0 01-.105.825 4.595 4.595 0 00-1.264-.176 4.293 4.293 0 00-1.806.38z"/><path fill="#ffd04d" d="M27.058 21.97a4.293 4.293 0 011.806-.38 4.595 4.595 0 011.264.177 6.384 6.384 0 01-1.286 2.903 9.856 9.856 0 01-1.784-2.7z"/><path fill="#876f5d" d="M26.698 18.72h3.535c2.356 0 2.356 2.222 0 2.222H26.63c-1.826-.1-1.758-2.323.069-2.222z"/><path fill="#9c2c30" d="M23.07 10.95s1.776.57 3.352 1.158L26.1 13.11c-1.445-.626-3.262-1.277-3.262-1.277-.34-.089-.11-.973.231-.884z"/><ellipse cx="28.517" cy="19.831" fill="#2b3332" rx=".344" ry=".717"/><ellipse cx="30.577" cy="19.83" fill="#2b3332" rx=".344" ry=".717"/><ellipse cx="26.529" cy="19.831" fill="#2b3332" rx=".344" ry=".717"/></svg>