<svg xmlns="http://www.w3.org/2000/svg" width="100%" height="100%" viewBox="-2.72 -2.72 37.44 37.44"><path fill="#515E91" d="M12.232 14.927c0 4.422-4.888 7.481-3.084 11.604.207.473.382.878.541 1.235-.67.197-1.689.809-1.689 1.542C8 30.2 9.25 30.5 10.142 30.5c.655 0 1.466.032 1.72-.529.674.088 2.427-.059 4.138-.164v-14.88h-3.768z"/><path fill="#424B7E" d="M19.708 19.833c1.026.494 5.448.018 7.704-3.957.132-.232.486-.107.454.157-.458 3.738-2.073 10.3-7.574 10.3l-.584-6.5z"/><path fill="#495587" d="M19.768 14.927c0 4.422 4.888 7.481 3.084 11.604-.207.473-.382.878-.541 1.235.67.197 1.689.809 1.689 1.542 0 .892-1.25 1.192-2.142 1.192-.655 0-1.466.032-1.72-.529-.674.088-2.427-.059-4.138-.164v-14.88h3.768z"/><path fill="#C1DDEE" d="M23.398 25.767l-.789 1.79a.142.142 0 01-.069.107c-.181.102-.508.265-1.331.269-.823.004-1.607-.181-1.607-.181l.053-2.174s1.13.292 1.891.282c.664-.008 1.379-.145 1.648-.25a.148.148 0 01.204.157z"/><path fill="#F7D684" d="M16 14.927h-3.768c0 4.422.574 15.074 1.31 15.035.736-.039 1.208-1.67 2.458-1.67s1.722 1.631 2.458 1.67c.736.039 1.31-10.613 1.31-15.035H16z"/><path fill="#F0C877" d="M19.768 14.927c0 4.422-.574 15.074-1.31 15.035-.736-.039-1.208-1.67-2.458-1.67V14.927h3.768z"/><path fill="#515E91" d="M17.09 29.847S16.748 19.754 16 19.754V12.62l2.153-.807s2.791 3.321 2.568 5.922c-.368 4.29-.88 10.031-1.013 11.662.553.222 1.354 1.142 1.354 1.604 0 .701-1.28 1-2.332 1-1.052 0-2.251-.299-2.251-1 0-.233.447-.967.611-1.154z"/><path fill="#D2E6F3" d="M20.059 27.842l-.017 1.524a.14.14 0 01-.054.115 2.568 2.568 0 01-1.53.481c-.79 0-1.267-.21-1.433-.298-.046-.024-.068-.067-.072-.119l-.123-1.63a.147.147 0 01.191-.155c.316.104.935.282 1.438.282.664 0 1.125-.187 1.377-.328.1-.056.225.012.223.128zM8.807 25.61c.269.105.984.241 1.648.25.761.01 1.891-.282 1.891-.282l.053 2.174s-.783.185-1.607.181c-.823-.004-1.15-.167-1.331-.269a.14.14 0 01-.069-.107l-.789-1.79c-.018-.115.096-.2.204-.157z"/><path fill="#5B689D" d="M14.91 29.847s.342-10.093 1.09-10.093V12.62l-2.153-.807s-2.791 3.321-2.568 5.922c.368 4.29.88 10.031 1.013 11.662-.553.222-1.354 1.142-1.354 1.604 0 .701 1.28 1 2.332 1 1.052 0 2.251-.299 2.251-1 0-.233-.447-.967-.611-1.154z"/><path fill="#E2EFF7" d="M12.165 27.714c.252.14.713.328 1.377.328.503 0 1.121-.178 1.438-.282a.147.147 0 01.191.155l-.123 1.63a.14.14 0 01-.072.119c-.166.088-.644.298-1.433.298a2.568 2.568 0 01-1.53-.481.137.137 0 01-.054-.115l-.017-1.524c-.003-.116.122-.184.223-.128z"/><path fill="#FAE09F" d="M17.542 16.5c-.295-.484-1.125-1.792-1.542-1.792s-1.247 1.308-1.542 1.792c-1.167 1.917.458.833 1.156 4.222.114-.599.242-.969.385-.969s.272.37.385.969c.699-3.389 2.324-2.305 1.158-4.222z"/><path fill="#F7D684" d="M16.386 20.722c-.114-.599-.242-.969-.386-.969v-5.045c.417 0 1.247 1.308 1.542 1.792 1.166 1.917-.459.833-1.156 4.222z"/><path fill="#515E91" d="M14.75 2.283c-1.125-1.25-7.156-1.728-7.375-.792-.292 1.25 3.45 4.335 3.45 4.335l3.925-3.543z"/><path fill="#495587" d="M13.538 2.654c-.756-.84-5.621-1.571-5.788-1.029-.254.824 3.151 3.41 3.151 3.41l2.637-2.381z"/><path fill="#5B689D" d="M10.49 6.202c-.373 2.014-.093 4.292.996 5.29.927.85 3.349 1.571 4.209 1.836a1 1 0 00.305.043V2c-2.26 0-5.01 1.5-5.51 4.202z"/><path fill="#FFF" d="M12.208 4.792c-.456.281-.375 2.102-.375 2.102 0 .722.583 1.303 1.305 1.311.839.009 1.806-.077 1.987-.496.459-1.062-1.974-3.497-2.917-2.917z"/><ellipse cx="13.375" cy="6.521" fill="#373F3F" rx=".75" ry="1.062"/><ellipse cx="13.5" cy="6.333" fill="#FFF" rx=".375" ry=".531"/><path fill="#495587" d="M17.25 2.283c1.125-1.25 7.156-1.728 7.375-.792.292 1.25-3.45 4.335-3.45 4.335L17.25 2.283z"/><path fill="#424B7E" d="M18.462 2.654c.756-.84 5.621-1.571 5.788-1.029.254.824-3.151 3.41-3.151 3.41l-2.637-2.381z"/><path fill="#515E91" d="M21.51 6.202c.373 2.014.093 4.292-.996 5.29-.927.85-3.349 1.571-4.209 1.836a1 1 0 01-.305.043V2c2.26 0 5.01 1.5 5.51 4.202z"/><path fill="#F7F7F7" d="M19.792 4.792c.456.281.375 2.102.375 2.102 0 .722-.583 1.303-1.305 1.311-.839.009-1.806-.077-1.987-.496-.459-1.062 1.974-3.497 2.917-2.917z"/><ellipse cx="18.625" cy="6.521" fill="#2B3332" rx=".75" ry="1.062"/><ellipse cx="18.5" cy="6.333" fill="#F7F7F7" rx=".375" ry=".531"/><path fill="#D2E6F3" d="M16 2c-1.822 0-3.961.974-4.985 2.767 2.785.056 4.883 5.605 4.985 5.604.102.001 2.2-5.548 4.985-5.604C19.961 2.974 17.822 2 16 2z"/><path fill="#E2EFF7" d="M16 10.371V2c-1.822 0-3.961.974-4.985 2.767 2.785.056 4.883 5.605 4.985 5.604z"/><path fill="#F7D684" d="M16 7.727c-2.654 0-1.837 1.951-5.471 1.939.183.759.498 1.406.957 1.827.927.85 3.349 1.571 4.209 1.836a1 1 0 00.305.043.995.995 0 00.305-.043c.86-.265 3.282-.986 4.209-1.836.459-.42.774-1.068.957-1.827-3.634.011-2.817-1.939-5.471-1.939z"/><path fill="#F0C877" d="M16 11.576c-1.833 0-1.695-1.313-5.29-1.313.196.573.547 1.019.776 1.23.927.85 3.349 1.571 4.209 1.836a1 1 0 00.305.043.995.995 0 00.305-.043c.86-.265 3.282-.986 4.209-1.836.229-.21.58-.657.776-1.23-3.595 0-3.457 1.313-5.29 1.313z"/><path fill="#F7F7F7" d="M18.464 10.702l.395.856a.15.15 0 00.274-.003l.507-1.172a5.46 5.46 0 00-1.176.319z"/><path fill="#FAE09F" d="M10.529 9.666c.183.759.498 1.406.957 1.827.927.85 3.349 1.571 4.209 1.836a1 1 0 00.305.043V7.727c-2.654 0-1.837 1.951-5.471 1.939z"/><path fill="#F7D684" d="M10.71 10.263c.196.573.547 1.019.776 1.23.927.85 3.349 1.571 4.209 1.836a1 1 0 00.305.043v-1.795c-1.833-.001-1.695-1.314-5.29-1.314z"/><path fill="#FFF" d="M12.36 10.382l.507 1.172a.15.15 0 00.274.003l.395-.856a5.578 5.578 0 00-1.176-.319z"/><path fill="#2B3332" d="M16 8.408c-.52 0-1.104.267-1.104.639 0 .349.814.697 1.104.697s1.104-.349 1.104-.697c0-.372-.584-.639-1.104-.639z"/><path fill="#373F3F" d="M16 8.408c-.52 0-1.104.267-1.104.639 0 .349.814.697 1.104.697V8.408z"/></svg>