<svg xmlns="http://www.w3.org/2000/svg" width="100%" height="100%" viewBox="-2.72 -2.72 37.44 37.44"><path fill="#B38658" d="M16 25.917c-4.021 0-6.999-2.335-6.999-5.216 0-1.938 1.519-5.278 3.347-6.659H16c.007 0 .007 11.875 0 11.875z"/><path fill="#4D7495" d="M16 25.917c-4.021 0-6.999-2.335-6.999-5.216 0-1.938 1.519-5.278 3.347-6.659.913 0 1.777 7.125 3.652 7.125.007 0 .007 4.75 0 4.75z"/><path fill="#A7794C" d="M13.25 3.708c-2.125 0-8.417 3.625-8.417 7.833 0 1.37.74 1.978 1.71 2.11 1.716.233 4.152-1.023 4.498-2.194.376-1.269 2.209-7.749 2.209-7.749z"/><path fill="#D1D4D4" d="M14.551 32c0-.677-.544-1.641-1.58-1.58-.768.045-1.264.587-1.174 1.58h2.754z"/><path fill="#4D7495" d="M10.208 28c-2.659-.196-3.458 2.01-3.458 4h6.875c.377-.44.542-3.708-3.417-4z"/><path fill="#A7794C" d="M16 0c-.625 0-2.625 3.583-3.042 4.042-.417.458 3.042 0 3.042 0V0z"/><path fill="#C09265" d="M16 14.75c-4.405 0-8-2.558-8-5.714s3.595-5.714 8-5.714c.008-.001.008 11.428 0 11.428z"/><path fill="#B38658" d="M16 7.542c-1.274 0-3.875-1.75-4.333-1.583-2.702.983-5.625 3.792-6.833 5.75 0-4 5.315-8.387 11.167-8.387.007-.001.007 4.22-.001 4.22z"/><path fill="#EDEEEE" d="M11.083 29.875a1 1 0 01-1-1c0-2.333.92-4.259 1.774-5.062a.999.999 0 111.369 1.457c-.475.446-1.144 1.859-1.144 3.604a.998.998 0 01-.999 1.001z"/><path fill="#DADDDC" d="M6.917 30.167c-.617 0-2.301.75-2.301 1.833H8c.082-.489.059-1.833-1.083-1.833zM9.286 32c0-.677.544-1.641 1.58-1.58.768.045 1.264.587 1.174 1.58H9.286z"/><path fill="#373F3F" d="M13.792 8.777c0 .968-.421 1.823-1.355 2.009-1.382.276-1.978-.786-2.103-1.659-.14-.976.785-1.752 1.752-1.752s1.706.434 1.706 1.402z"/><ellipse cx="12.208" cy="9.042" fill="#FFF" rx=".583" ry=".646"/><path fill="#B38658" d="M12.208 14.375c-1.042.083-4.125.667-5.875 2.875-1.649 2.08-2.583 5.128-2.583 7.208h2.125s-.208-7.583 6.208-8.292c.459.001.584-1.583.125-1.791z"/><path fill="#EDEEEE" d="M5.415 18.911c-.051-.006-.1 0-.151-.002a13.43 13.43 0 00-.671 1.503c.209-.043.427-.057.651-.031.476.055.883.279 1.197.592.124-.376.266-.758.451-1.137a2.042 2.042 0 00-1.477-.925z"/><path fill="#DADDDC" d="M5.384 20.25a2.25 2.25 0 00-.722-.016 14.11 14.11 0 00-.544 1.644 2.25 2.25 0 01.947-.019c.395.078.73.272 1.015.516.09-.481.222-1.007.411-1.551a2.247 2.247 0 00-1.107-.574zm5.595 5.875c-.159 0-.313.018-.463.045a8.719 8.719 0 00-.433 2.705 1 1 0 102 0c0-.858.162-1.634.383-2.256a2.495 2.495 0 00-1.487-.494z"/><circle cx="4.75" cy="24.167" r="2.5" fill="#B38658"/><path fill="#A7794C" d="M16.006 14.042h3.652c1.828 1.381 3.347 4.721 3.347 6.659 0 2.881-2.978 5.216-6.999 5.216-.007 0-.007-11.875 0-11.875z"/><path fill="#456F93" d="M16.006 21.167c2.036 0 2.739-7.125 3.652-7.125 1.828 1.381 3.347 4.721 3.347 6.659 0 2.881-2.978 5.216-6.999 5.216-.007 0-.007-4.75 0-4.75z"/><path fill="#9E6E43" d="M18.756 3.708c2.125 0 8.417 3.625 8.417 7.833 0 1.37-.74 1.978-1.71 2.11-1.716.233-4.152-1.023-4.498-2.194a1555.58 1555.58 0 01-2.209-7.749z"/><path fill="#C8CCCB" d="M17.455 32c0-.677.544-1.641 1.58-1.58.768.045 1.264.587 1.174 1.58h-2.754z"/><path fill="#456F93" d="M21.798 28c2.659-.196 3.458 2.01 3.458 4h-6.875c-.377-.44-.542-3.708 3.417-4z"/><path fill="#9E6E43" d="M16.006 0c.625 0 2.625 3.583 3.042 4.042.417.458-3.042 0-3.042 0V0z"/><path fill="#B38658" d="M16.006 3.321c4.405 0 8 2.558 8 5.714s-3.595 5.714-8 5.714c-.008.001-.008-11.428 0-11.428z"/><path fill="#A7794C" d="M16.006 3.321c5.851 0 11.167 4.387 11.167 8.387-1.208-1.958-4.131-4.767-6.833-5.75-.458-.167-3.06 1.583-4.333 1.583-.009.001-.009-4.22-.001-4.22z"/><path fill="#E3E5E5" d="M19.923 28.875c0-1.745-.669-3.158-1.144-3.604a1 1 0 111.369-1.457c.854.803 1.774 2.729 1.774 5.062a1 1 0 11-1.999-.001z"/><path fill="#D1D4D4" d="M25.089 30.167c.617 0 2.301.75 2.301 1.833h-3.385c-.081-.489-.057-1.833 1.084-1.833zM22.72 32c0-.677-.544-1.641-1.58-1.58-.768.045-1.264.587-1.174 1.58h2.754z"/><path fill="#2B3332" d="M18.214 8.777c0 .968.421 1.823 1.355 2.009 1.382.276 1.978-.786 2.103-1.659.14-.976-.785-1.752-1.752-1.752-.968 0-1.706.434-1.706 1.402z"/><ellipse cx="19.798" cy="9.042" fill="#F7F7F7" rx=".583" ry=".646"/><path fill="#A7794C" d="M19.798 14.375c1.042.083 4.125.667 5.875 2.875 1.649 2.08 2.583 5.128 2.583 7.208h-2.125s.208-7.583-6.208-8.292c-.459.001-.584-1.583-.125-1.791z"/><path fill="#E3E5E5" d="M26.591 18.911c.051-.006.1 0 .151-.002.257.486.477.993.671 1.503a2.046 2.046 0 00-.651-.031 2.018 2.018 0 00-1.197.592 8.979 8.979 0 00-.451-1.137 2.042 2.042 0 011.477-.925z"/><path fill="#D1D4D4" d="M26.622 20.25a2.25 2.25 0 01.722-.016c.217.548.403 1.1.544 1.644a2.25 2.25 0 00-.947-.019c-.395.078-.73.272-1.015.516a10.784 10.784 0 00-.411-1.551c.3-.281.674-.489 1.107-.574zm-5.595 5.875c.159 0 .313.018.463.045.259.793.433 1.707.433 2.705a1 1 0 11-2 0c0-.858-.162-1.634-.383-2.256a2.495 2.495 0 011.487-.494z"/><circle cx="27.256" cy="24.167" r="2.5" fill="#A7794C"/><path fill="#2B3332" d="M17.385 12.001a.286.286 0 00-.4-.07c-.185.131-.589.189-.985.19v.579c.515-.003 1.035-.102 1.315-.299a.286.286 0 00.07-.4z"/><path fill="#373F3F" d="M15.035 11.946a.287.287 0 00-.371.44c.247.209.778.314 1.316.314l.02-.001v-.579c-.419.003-.83-.06-.965-.174z"/></svg>