<svg xmlns="http://www.w3.org/2000/svg" width="100%" height="100%" viewBox="-2.72 -2.72 37.44 37.44"><path fill="#3A4274" d="M21 22.406c11.375-.688 8.875-8.625 6.187-13.125 7.656 7.656 2.708 14.625-5.25 14.625l-.937-1.5z"/><path fill="#3E4679" d="M22.311 27.766c.159-.357.334-.762.541-1.235 1.805-4.124-3.084-7.182-3.084-11.604h-7.536c0 4.422-4.888 7.481-3.084 11.604.207.473.382.878.541 1.235-.67.197-1.689.809-1.689 1.542C8 30.2 9.25 30.5 10.142 30.5c.655 0 1.466.032 1.72-.529.674.088 2.427-.059 4.138-.164 1.711.105 3.464.252 4.138.164.253.56 1.064.529 1.72.529.892 0 2.142-.3 2.142-1.192 0-.733-1.019-1.345-1.689-1.542z"/><path fill="#424B7E" d="M12.232 14.927c0 4.422-4.888 7.481-3.084 11.604.207.473.382.878.541 1.235-.67.197-1.689.809-1.689 1.542C8 30.2 9.25 30.5 10.142 30.5c.655 0 1.466.032 1.72-.529.674.088 2.427-.059 4.138-.164v-14.88h-3.768z"/><path fill="#DADDDC" d="M12.373 26.698l-.027-1.121s-1.13.292-1.891.282c-.664-.008-1.379-.145-1.648-.25-.108-.042-.222.042-.205.157l.401.91c.365.152.853.291 1.489.311.64.021 1.403-.156 1.881-.289z"/><path fill="#D1D4D4" d="M10.493 26.988a4.177 4.177 0 01-1.489-.311l.388.88a.14.14 0 00.07.107c.181.102.508.265 1.331.269.823.004 1.607-.181 1.607-.181l-.026-1.053c-.479.132-1.242.309-1.881.289zm9.134-.29l.027-1.121s1.13.292 1.891.282c.664-.008 1.379-.145 1.648-.25.108-.042.222.042.205.157l-.401.91a4.156 4.156 0 01-1.489.311c-.64.021-1.403-.156-1.881-.289z"/><path fill="#C8CCCB" d="M21.507 26.988a4.177 4.177 0 001.489-.311l-.388.88a.14.14 0 01-.07.107c-.181.102-.508.265-1.331.269-.823.004-1.607-.181-1.607-.181l.026-1.053c.479.132 1.242.309 1.881.289z"/><path fill="#F0C877" d="M16 14.927h-3.768c0 4.422.574 15.074 1.31 15.035.736-.039 1.208-1.67 2.458-1.67s1.722 1.631 2.458 1.67c.736.039 1.31-10.613 1.31-15.035H16z"/><path fill="#424B7E" d="M19.708 29.396c.133-1.631.646-7.372 1.013-11.662.223-2.6-2.568-5.922-2.568-5.922L16 12.62l-2.153-.807s-2.791 3.321-2.568 5.922c.368 4.29.88 10.031 1.013 11.662-.553.222-1.354 1.142-1.354 1.604 0 .701 1.28 1 2.332 1 1.052 0 2.251-.299 2.251-1 0-.232-.447-.966-.61-1.153 0 0 .342-10.093 1.09-10.093s1.09 10.093 1.09 10.093c-.163.187-.61.921-.61 1.153 0 .701 1.2 1 2.251 1 1.052 0 2.332-.299 2.332-1-.002-.463-.803-1.383-1.356-1.605z"/><path fill="#F7D684" d="M12.232 14.927c0 4.422.574 15.074 1.31 15.035.736-.039 1.208-1.67 2.458-1.67V14.927h-3.768z"/><path fill="#495587" d="M14.91 29.847s.342-10.093 1.09-10.093V12.62l-2.153-.807s-2.791 3.321-2.568 5.922c.368 4.29.88 10.031 1.013 11.662-.553.222-1.354 1.142-1.354 1.604 0 .701 1.28 1 2.332 1 1.052 0 2.251-.299 2.251-1 0-.233-.447-.967-.611-1.154z"/><path fill="#495587" d="M21.26 6.202C20.76 3.5 18.26 2 16 2s-4.76 1.5-5.26 4.202c-.373 2.014-.093 4.292.996 5.29.927.85 3.099 1.571 3.959 1.836a1 1 0 00.305.043.995.995 0 00.305-.043c.86-.265 3.032-.986 3.959-1.836 1.089-.998 1.369-3.276.996-5.29z"/><path fill="#515E91" d="M10.74 6.202c-.373 2.014-.093 4.292.996 5.29.927.85 3.099 1.571 3.959 1.836a1 1 0 00.305.043V2c-2.26 0-4.76 1.5-5.26 4.202z"/><path fill="#DADDDC" d="M16.891 28.73l-.061-.815a.147.147 0 01.191-.155c.316.104.935.282 1.438.282.664 0 1.125-.187 1.377-.328.101-.056.226.012.224.128l-.009.794a4.182 4.182 0 01-1.512.32c-.539.018-1.175-.107-1.648-.226z"/><path fill="#D1D4D4" d="M18.539 28.956a4.182 4.182 0 001.512-.32l-.008.729a.14.14 0 01-.054.115 2.568 2.568 0 01-1.53.481c-.79 0-1.267-.21-1.433-.298-.046-.024-.068-.067-.072-.119l-.061-.815c.471.12 1.107.245 1.646.227z"/><path fill="#E3E5E5" d="M15.109 28.73l.061-.815a.147.147 0 00-.191-.155c-.316.104-.935.282-1.438.282-.664 0-1.125-.187-1.377-.328-.101-.056-.226.012-.224.128l.009.794c.367.155.864.299 1.512.32.539.018 1.175-.107 1.648-.226z"/><path fill="#DADDDC" d="M13.461 28.956a4.182 4.182 0 01-1.512-.32l.008.729a.14.14 0 00.054.115c.165.125.706.481 1.53.481.79 0 1.267-.21 1.433-.298.046-.024.068-.067.072-.119l.061-.815c-.471.12-1.107.245-1.646.227z"/><path fill="#FFF" d="M12.221 5.81c-.028.003-.047.02-.06.045-.229.441-.283 1.222-.242 1.645.057.581.43.766 1.014.772.678.007 1.91-.032 1.91-.401 0-.917-2.109-2.111-2.622-2.061z"/><path fill="#7D3119" d="M12.933 8.272c-.028 0-.048-.008-.075-.009a2.057 2.057 0 01-.233-.957c0-.494.143-.94.382-1.247.792.365 1.836 1.17 1.836 1.812 0 .369-1.231.408-1.91.401z"/><ellipse cx="13.591" cy="7.438" fill="#FFF" rx=".375" ry=".5"/><path fill="#FFF" d="M19.78 5.81c.028.003.047.02.06.045.229.441.283 1.222.242 1.645-.057.581-.43.766-1.014.772-.678.007-1.91-.032-1.91-.401 0-.917 2.109-2.111 2.622-2.061z"/><path fill="#7D3119" d="M17.158 7.871c0-.643 1.043-1.448 1.836-1.812.239.308.382.754.382 1.247 0 .364-.091.687-.233.957-.027.001-.047.008-.075.009-.679.007-1.91-.032-1.91-.401z"/><ellipse cx="18.41" cy="7.438" fill="#FFF" rx=".375" ry=".5"/><path fill="#F7D684" d="M17.5 7.75c0-.333-.042-3.023-1.5-3.023s-1.5 2.69-1.5 3.023c0 1.633-3.042 1.042-3.563 2.45.188.527.452.975.799 1.292.927.85 3.099 1.571 3.959 1.836a1 1 0 00.305.043.995.995 0 00.305-.043c.86-.265 3.032-.986 3.959-1.836.347-.318.611-.765.799-1.292-.521-1.408-3.563-.817-3.563-2.45z"/><path fill="#FAE09F" d="M10.937 10.2c.188.527.452.975.799 1.292.927.85 3.099 1.571 3.959 1.836a1 1 0 00.305.043V4.727c-1.458 0-1.5 2.69-1.5 3.023 0 1.634-3.042 1.042-3.563 2.45z"/><path fill="#F0C877" d="M16 10.275c-1.833 0-2.068 1.505-4.914.294.149.345.421.714.65.924.927.85 3.099 1.571 3.959 1.836a1 1 0 00.305.043.995.995 0 00.305-.043c.86-.265 3.032-.986 3.959-1.836.229-.21.501-.579.65-.924-2.846 1.21-3.081-.294-4.914-.294z"/><path fill="#F7D684" d="M11.086 10.569c.149.345.421.714.65.924.927.85 3.099 1.571 3.959 1.836a1 1 0 00.305.043v-3.097c-1.833 0-2.068 1.504-4.914.294z"/><path fill="#373F3F" d="M16 8.523c-.417 0-.885.214-.885.513 0 .28.652.559.885.559V8.523z"/><path fill="#E3E5E5" d="M14.75 2.625C14.146 1.856 12.875 0 10 0 7.331 0 6.35 3.088 7.556 4.231c.088.084.236 0 .208-.118-.318-1.362.864-2.321 1.903-2.321 1.381 0 2.528 2.044 2.75 2.333.416.542 2.791-.917 2.333-1.5zm.016 12.071c.151-.016.172-.227.035-.293-.894-.431-1.505-.873-1.838-1.384-.225.34-.474.732-.704 1.161a4.083 4.083 0 002.507.516zM16 13.812v1.875c-.219 0-.734-.42-.734-.938s.328-.937.734-.937z"/><path fill="#F7D684" d="M17.781 17.594c-.086-.588-1.365-1.5-1.781-1.5s-1.695.912-1.781 1.5c-.156 1.062 1.031.188 1.396 3.128.114-.599.242-.969.385-.969s.272.37.385.969c.365-2.941 1.552-2.066 1.396-3.128z"/><path fill="#2B3332" d="M16 8.523c.417 0 .885.214.885.513 0 .28-.652.559-.885.559V8.523z"/><path fill="#DADDDC" d="M17.25 2.625C17.854 1.856 19.125 0 22 0c2.669 0 3.65 3.088 2.444 4.231-.088.084-.236 0-.208-.118.318-1.361-.863-2.321-1.902-2.321-1.381 0-2.528 2.044-2.75 2.333-.417.542-2.792-.917-2.334-1.5zm-.016 12.071c-.151-.016-.172-.227-.035-.293.894-.431 1.505-.873 1.838-1.384.225.34.47.732.701 1.161a4.075 4.075 0 01-2.504.516zm-.5.054c0 .518-.516.938-.734.938v-1.875c.406-.001.734.419.734.937z"/><path fill="#3A4274" d="M24.951 6.954a.15.15 0 00-.207.191l2.283 5.563c.014.034.063.031.073-.005l.679-2.556 2.687-.338c.038-.005.046-.055.012-.073l-5.527-2.782z"/><path fill="#FFF" d="M13.706 10.953l-.362.825a.15.15 0 01-.274-.003l-.321-.741a2.65 2.65 0 00.957-.081z"/><path fill="#FAE09F" d="M15.614 20.722c.114-.599.242-.969.386-.969v-3.659c-.417 0-1.695.912-1.781 1.5-.157 1.062 1.031.187 1.395 3.128z"/><path fill="#FFF" d="M18.294 10.953l.362.825a.15.15 0 00.274-.003l.321-.741a2.65 2.65 0 01-.957-.081z"/></svg>