<svg xmlns="http://www.w3.org/2000/svg" width="100%" height="100%" viewBox="-2.72 -2.72 37.44 37.44"><path fill="#FF4A00" d="M10 6.029L7.317 2.452c-.131-.175.01-.418.228-.4 1.803.15 3.455.977 3.455.977l-.883-2.65c-.056-.167.079-.349.255-.33C12.308.253 13 2.029 13 2.029S15.645.206 18.58.041c.188-.011.317.195.232.363L18 2.029S21.609.205 24.584.041c.188-.01.313.195.229.363L24 2.029s3.603-1.243 5.707-.171a.252.252 0 01.063.402l-.77.769 2.553 1.276a.25.25 0 010 .447L29 6.029l.785.785a.25.25 0 01-.046.392C27.026 8.839 22 6.029 22 6.029H10z"/><path fill="#FFD400" d="M29.739 7.206a.25.25 0 00.046-.392L29 6.029l2.553-1.276a.243.243 0 00.134-.21s-2.497-.664-4.87 0l.153-1.291a.254.254 0 00-.219-.284C24.727 2.771 22 4 22 4V2.258a.256.256 0 00-.259-.255C19.312 2.067 17 3 17 3l-.87-1.739c-.069-.137-.251-.193-.372-.098C14.217 2.378 14 6 14 6l.064.029H22s5.026 2.81 7.739 1.177z"/><path fill="#B57135" d="M15.959 21a6.682 6.682 0 004.443-1.956c1.176-1.149 2.019-2.589 2.841-4.044.828-1.457 1.602-2.984 2.756-4.379.579-.691 1.275-1.345 2.129-1.827A6.211 6.211 0 0130.958 8l.044-.002a1.003 1.003 0 11-.044 2.001c-1.412-.113-2.742.523-3.856 1.637-1.12 1.101-2.042 2.514-3.014 3.896-.973 1.381-1.998 2.799-3.358 3.887-1.341 1.109-3.086 1.683-4.771 1.581z"/><path fill="#D1D4D4" d="M24.459 31h-5l1-5h3z"/><circle cx="18.959" cy="31" r="1" fill="#0F769B"/><circle cx="24.959" cy="31" r="1" fill="#0F769B"/><circle cx="20.209" cy="30.75" r="1.25" fill="#137FA0"/><circle cx="23.709" cy="30.75" r="1.25" fill="#137FA0"/><path fill="#BF7D3C" d="M15.959 21h-4l-3 4 2 2 5-3z"/><path fill="#B57135" d="M15.959 21v3l5 3 2-2-3-4z"/><path fill="#BF7D3C" d="M21.959 9V7c0-2 3-3 5-3s-4 7-5 5z"/><path fill="#0F769B" d="M21.959 7.483c0-.8 1.89-1.849 3.407-2.267.236-.065.421.208.265.397-.966 1.175-2.9 2.972-3.672 3.387V7.483z"/><path fill="#EDEEEE" d="M15.959 12h-3l-1 2 1 6 3 1z"/><path fill="#E3E5E5" d="M15.959 12v9l3-1 1-6-1-2z"/><path fill="#C98B44" d="M9.959 9V7c0-2-3-3-5-3s4 7 5 5z"/><path fill="#137FA0" d="M9.959 7.483c0-.8-1.89-1.849-3.407-2.267-.236-.065-.421.208-.266.397.966 1.175 2.9 2.972 3.673 3.387V7.483z"/><path fill="#C98B44" d="M10.959 13s-4.557 1-6 10h3s1-6 4-8l-1-2z"/><path fill="#DADDDC" d="M12.459 31h-5l1-5h3z"/><circle cx="21.959" cy="30.5" r="1.5" fill="#3085A6"/><circle cx="9.959" cy="26" r="2" fill="#FFD04D"/><circle cx="21.959" cy="26" r="2" fill="#F7C845"/><ellipse cx="13.459" cy="16" fill="#FFD04D" rx="1.5" ry="2"/><ellipse cx="18.459" cy="16" fill="#F7C845" rx="1.5" ry="2"/><ellipse cx="11.726" cy="13.768" fill="#FFD96C" rx="2" ry="1.5" transform="rotate(-45.001 11.726 13.768)"/><path fill="#137FA0" d="M5.959 23.131V23h-1v1.947c0 .498.34.96.832 1.04a1.002 1.002 0 00.759-1.794c-.349-.256-.591-.629-.591-1.062z"/><path fill="#3085A6" d="M6.959 23.131V23h-1v1.947c0 .498.34.96.832 1.04a1.002 1.002 0 00.759-1.794c-.349-.256-.591-.629-.591-1.062z"/><path fill="#3A89A8" d="M7.959 23.131V23h-1v1.947c0 .498.34.96.832 1.04a1.002 1.002 0 00.759-1.794c-.349-.256-.591-.629-.591-1.062z"/><path fill="#FFD96C" d="M6.959 22c0 1.105-.672 2-1.5 2s-1.5-.895-1.5-2 1-3 1-3 2 2 2 3z"/><path fill="#BF7D3C" d="M20.959 13s4.557 1 6 10h-3s-1-6-4-8l1-2z"/><path fill="#0F769B" d="M25.959 23.131V23h1v1.947c0 .498-.34.96-.832 1.04a1.002 1.002 0 01-.759-1.794c.349-.256.591-.629.591-1.062z"/><path fill="#137FA0" d="M24.959 23.131V23h1v1.947c0 .498-.34.96-.832 1.04a1.002 1.002 0 01-.759-1.794c.349-.256.591-.629.591-1.062z"/><path fill="#3085A6" d="M23.959 23.131V23h1v1.947c0 .498-.34.96-.832 1.04a1.002 1.002 0 01-.759-1.794c.349-.256.591-.629.591-1.062z"/><path fill="#FFD04D" d="M24.959 22c0 1.105.672 2 1.5 2s1.5-.895 1.5-2-1-3-1-3-2 2-2 3z"/><ellipse cx="20.191" cy="13.768" fill="#FFD04D" rx="1.5" ry="2" transform="rotate(-45.001 20.19 13.768)"/><path fill="#F7F7F7" d="M15.959 6.059a10.77 10.77 0 00-2.599-2.777.252.252 0 00-.401.201V5s-.328-.833-1.606-1.738a.25.25 0 00-.394.205V6s-.725-.992-2.176-1.286c-.245-.05-.403.251-.224.425.589.571 1.4 1.588 1.4 2.861 0 .605-.514 1.885-.805 2.561a.498.498 0 00.252.652c1.142.514 4.239 1.712 6.553.787V6.059z"/><path fill="#EDEEEE" d="M23.135 4.715C21.684 5.009 20.959 6 20.959 6V3.467a.25.25 0 00-.394-.205C19.287 4.167 18.959 5 18.959 5V3.483a.252.252 0 00-.401-.201 10.77 10.77 0 00-2.599 2.777V12c2.314.926 5.411-.273 6.553-.787a.498.498 0 00.252-.652c-.291-.676-.805-1.956-.805-2.561 0-1.273.81-2.289 1.399-2.86.179-.174.021-.475-.223-.425z"/><path fill="#C98B44" d="M15.959 8h-3v3c0 1.105.929 2 3 2V8z"/><path fill="#BF7D3C" d="M15.959 13c2.071 0 3-.895 3-2V8h-3v5z"/><path fill="#FFD04D" d="M19.959 8.894a1.5 1.5 0 01-3 0c0-.5.672-.5 1.5-.5s1.5 0 1.5.5z"/><path fill="#137FA0" d="M19.459 8.894c0-.16-.021-.311-.052-.456-.259-.042-.586-.044-.948-.044s-.689.003-.948.044a2.166 2.166 0 00-.052.456c0 .828.448 1.5 1 1.5s1-.672 1-1.5z"/><path fill="#2B3332" d="M18.034 8.398a1.722 1.722 0 00-.075.496c0 .552.224 1 .5 1s.5-.448.5-1c0-.184-.032-.348-.075-.496a19.217 19.217 0 00-.85 0z"/><path fill="#FFD96C" d="M14.959 8.894a1.5 1.5 0 01-3 0c0-.5.672-.5 1.5-.5s1.5 0 1.5.5z"/><path fill="#3085A6" d="M14.459 8.894c0-.16-.021-.311-.052-.456-.259-.042-.586-.044-.948-.044s-.689.003-.948.044a2.166 2.166 0 00-.052.456c0 .828.448 1.5 1 1.5s1-.672 1-1.5z"/><path fill="#373F3F" d="M13.034 8.398a1.722 1.722 0 00-.075.496c0 .552.224 1 .5 1s.5-.448.5-1c0-.184-.032-.348-.075-.496a19.217 19.217 0 00-.85 0z"/><path fill="#BF7D3C" d="M15.959 11.75c-2.152 0-2.969-.466-2.969-.466.15.969 1.08 1.716 2.969 1.716v-1.25z"/><path fill="#B57135" d="M18.928 11.284s-.817.466-2.969.466V13c1.888 0 2.818-.747 2.969-1.716z"/><path fill="#D64F45" d="M15.959 7.05a.517.517 0 01-.365-.151c-1.502-1.48-4.635-1.232-4.635 1.495 0 2 2.5 2 2.5 2-1.5 0-2-1.993.075-1.996 1.026 0 1.832 1.351 2.203 2.106.046.093.134.14.222.14V7.05z"/><path fill="#D1473D" d="M16.18 10.504c.37-.755 1.176-2.106 2.203-2.106 2.075.003 1.575 1.996.075 1.996 0 0 2.5 0 2.5-2 0-2.727-3.132-2.975-4.635-1.495a.515.515 0 01-.364.151v3.593a.242.242 0 00.221-.139z"/><path fill="#F7F7F7" d="M15.959 21l-3-1-3.344.836a.25.25 0 00-.051.466l1.257.629a.25.25 0 01.138.224v.596c0 .138.112.25.25.25h1.646a.25.25 0 01.177.073l.799.799a.25.25 0 00.289.047l1.727-.863c.035-.018.073 0 .112 0V21z"/><path fill="#EDEEEE" d="M16.07 23.056l1.727.863a.251.251 0 00.289-.047l.799-.799a.25.25 0 01.177-.073h1.646a.25.25 0 00.25-.25v-.596c0-.095.054-.181.138-.224l1.257-.629a.25.25 0 00-.051-.466L18.959 20l-3 1v2.056c.038 0 .076-.018.111 0z"/><circle cx="6.959" cy="31" r="1" fill="#137FA0"/><circle cx="12.959" cy="31" r="1" fill="#137FA0"/><circle cx="8.209" cy="30.75" r="1.25" fill="#3085A6"/><circle cx="11.709" cy="30.75" r="1.25" fill="#3085A6"/><circle cx="9.959" cy="30.5" r="1.5" fill="#3A89A8"/></svg>