<svg xmlns="http://www.w3.org/2000/svg" width="100%" height="100%" viewBox="-2.72 -2.72 37.44 37.44"><path fill="#fff" d="M10.811 16.962h10.343v1.233H10.811z"/><path fill="#ffd04d" d="M1.046 20.12L0 20.229v-.07a6.33 6.33 0 00.624-.864.137.137 0 00-.024-.21 4.003 4.003 0 01-.221-.223c-.061-.067-.172-.152-.16-.207.019-.085.153-.09.239-.09a1.115 1.115 0 001.14-.842 4.338 4.338 0 013.125-2.38c.1-.028.203-.044.305-.065a25.321 25.321 0 00-.745 4.332c-.018.255.08.537-.104.773l-.267-.096c-.238-.208-.404-.207-.5.14a5.089 5.089 0 01-.246.573c-.064.152-.121.15-.193.005-.143-.29-.295-.576-.432-.869a.245.245 0 00-.292-.173c-.4.06-.802.106-1.203.157z"/><path fill="#ffe28a" d="M14.313 10.063c-.312-.186-.392-.152-.405.224-.014.407-.003.815 0 1.222 0 .067.047.173.021.193-.074.054-.147-.025-.215-.06a20.43 20.43 0 00-3.037-1.307c-.759-.241-.782-.248-.75.522a20.368 20.368 0 00.332 3.52c.016.071.08.18.005.221-.079.045-.128-.075-.193-.118a5.227 5.227 0 00-.788-.509c-.23-.097-.365-.108-.344.218a6.62 6.62 0 00.28 1.637c.07.214.01.294-.189.334-.93.19-1.86.374-2.787.58-.395.089-.779.227-1.168.342-.125.036-.186.08-.08.214a11.552 11.552 0 003.457 3.03c.24.131.357.23.297.546-.136.715-.203 1.441-.298 2.163-.021.348-.034.696-.068 1.042-.024.247.068.264.276.2a13.187 13.187 0 002.301-.791 1.794 1.794 0 011.877.09c.798.415 1.399.857 1.356 1.842-.003.074.034.197.084.215.099.038.15-.081.212-.144A12.912 12.912 0 0016 23.585V11.286a14.086 14.086 0 00-1.687-1.223zm-1.046 10.102a1.394 1.394 0 01-2.211.011 2.685 2.685 0 01.002-3.32 1.394 1.394 0 012.21.016 2.664 2.664 0 01-.001 3.293zm1.128-4.317a.877.877 0 01-.552-.798.47.47 0 01.259-.43.454.454 0 01.479.109.544.544 0 01.117.127c.172.25.369.499.17.82a.362.362 0 01-.473.172z"/><path fill="#ffd96c" d="M14.747 6.192c-.029.045-.046.108-.122.077l.034-.082.516-1.74-.013-.087a9.525 9.525 0 00-3.224 2.387c-.482.597-.963 1.195-1.398 1.828-.17.248-.253.199-.35-.044-.085-.216-.19-.424-.293-.632-.027-.055-.033-.158-.125-.136-.039.009-.068.085-.09.135-.139.32-.273.641-.413.96-.103.233-.156.574-.335.666-.218.113-.46-.187-.706-.272-.022-.008-.04-.026-.062-.032-.052-.013-.105-.023-.158-.034a1.41 1.41 0 00.024.165c.072.27.139.54.222.806a.244.244 0 01-.09.325 8.418 8.418 0 00-2.643 3.573c-.177.402-.33.815-.493 1.223a25.312 25.312 0 00-.745 4.332c-.017.255.08.537-.104.773a.495.495 0 01-.078.298 17.422 17.422 0 00-.774 1.94 1.44 1.44 0 01-1.306 1.195c-.413.06-.394.102-.095.412.175.18.474.28.445.618-.04.463-.066.926-.099 1.39-.012.168-.111.384.017.49.096.079.262-.1.405-.143.078-.024.153-.055.229-.082.416-.203.834-.403 1.249-.61a.191.191 0 01.27.052c.192.233.392.459.588.688.107.106.219.208.318.32.124.142.177.11.197-.063.032-.264.078-.527.098-.793.012-.168.086-.213.241-.21.302.01.604-.004.906.006.193.006.265-.025.13-.218-.173-.247-.32-.512-.496-.756a.294.294 0 01.01-.422 3.717 3.717 0 012.017-1.46c.095-.722.162-1.448.298-2.163.06-.317-.058-.415-.297-.547a11.552 11.552 0 01-3.457-3.03c-.106-.133-.045-.177.08-.213.39-.115.773-.253 1.168-.341.926-.207 1.858-.39 2.787-.58.2-.041.258-.12.189-.335a6.62 6.62 0 01-.28-1.637c-.021-.326.115-.315.344-.218a5.227 5.227 0 01.788.51c.065.042.114.162.193.117.075-.042.01-.15-.005-.221a20.368 20.368 0 01-.331-3.52c-.033-.77-.01-.763.749-.522a20.43 20.43 0 013.037 1.308c.068.034.141.113.215.059.026-.02-.02-.126-.02-.193-.004-.407-.015-.815 0-1.222.012-.376.092-.41.403-.224A14.086 14.086 0 0116 11.286V5.397a8.924 8.924 0 00-1.253.795z"/><path fill="#eef2aa" d="M14.747 6.192c-.029.045-.046.108-.122.077l.034-.082z"/><path fill="#ecf19e" d="M15.175 4.448l-.013-.088.048-.017c.024.046.001.078-.035.105z"/><path fill="#495587" d="M1.046 20.12c.401-.051.803-.097 1.203-.157a.245.245 0 01.292.173c.137.293.289.58.432.87.072.143.13.146.193-.006a5.089 5.089 0 00.245-.573c.097-.347.263-.348.5-.14a2.85 2.85 0 01-1.201 1.65c-.908.54-1.243.405-1.497-.613a5.844 5.844 0 01-.167-1.204z"/><path fill="#515e91" d="M2.923 26.5c.416-.202.834-.402 1.249-.609a.191.191 0 01.27.052c.192.233.392.459.588.688a4.623 4.623 0 01-1.191.948c-.246.122-.393.124-.503-.16-.12-.312-.274-.613-.413-.918z"/><path fill="#5b689d" d="M13.837 18.52a2.543 2.543 0 01-.57 1.645 1.394 1.394 0 01-2.211.011 2.685 2.685 0 01.002-3.32 1.394 1.394 0 012.21.016 2.545 2.545 0 01.57 1.647zm-1.975-1.123a.411.411 0 00-.61.072c-.177.211-.07.404.101.57a1.284 1.284 0 00.27 1.412.795.795 0 001.2-.095 1.374 1.374 0 00.292-1.048.95.95 0 00-1.253-.91zm1.981-2.347a.47.47 0 01.259-.43.454.454 0 01.479.109.544.544 0 01.117.127c.172.249.369.499.17.82a.362.362 0 01-.473.172.878.878 0 01-.552-.798z"/><path fill="#242424" d="M11.862 17.397a.95.95 0 011.253.91 1.374 1.374 0 01-.292 1.049.795.795 0 01-1.2.095 1.283 1.283 0 01-.27-1.411.44.44 0 00.532-.13.404.404 0 00-.023-.513z"/><path fill="#f7c845" d="M30.954 20.12l1.046.109v-.07a6.33 6.33 0 01-.624-.864.137.137 0 01.024-.21c.076-.072.15-.146.221-.223.061-.067.172-.152.16-.207-.019-.085-.153-.09-.239-.09a1.115 1.115 0 01-1.14-.842 4.338 4.338 0 00-3.125-2.38c-.1-.028-.203-.044-.305-.065a25.321 25.321 0 01.745 4.332c.017.255-.08.537.104.773l.267-.096c.238-.208.404-.207.5.14a5.089 5.089 0 00.246.573c.064.152.121.15.193.005.143-.29.295-.576.432-.869a.245.245 0 01.292-.173c.4.06.802.106 1.203.157z"/><path fill="#ffd96c" d="M16 11.286v12.3a12.912 12.912 0 001.51 1.903c.062.063.115.182.213.144.05-.018.087-.141.084-.215-.043-.985.558-1.427 1.356-1.842a1.794 1.794 0 011.877-.09 13.187 13.187 0 002.301.791c.208.064.3.047.276-.2-.034-.346-.047-.694-.068-1.042-.095-.722-.162-1.448-.298-2.163-.06-.317.058-.415.297-.547a11.552 11.552 0 003.457-3.03c.106-.133.045-.177-.08-.213-.39-.115-.773-.253-1.168-.341-.926-.207-1.858-.39-2.787-.58-.2-.041-.258-.12-.189-.335a6.62 6.62 0 00.28-1.637c.021-.326-.115-.315-.344-.218a5.227 5.227 0 00-.788.51c-.065.042-.114.162-.193.117-.075-.042-.01-.15.005-.221a20.368 20.368 0 00.331-3.52c.033-.77.01-.763-.749-.522a20.43 20.43 0 00-3.037 1.308c-.068.034-.141.113-.215.059-.026-.02.02-.126.02-.193.004-.407.015-.815 0-1.222-.012-.376-.092-.41-.403-.224A14.086 14.086 0 0016 11.286zm2.163 7.233a2.545 2.545 0 01.568-1.647 1.394 1.394 0 012.211-.016 2.685 2.685 0 01.002 3.32 1.394 1.394 0 01-2.21-.011 2.543 2.543 0 01-.571-1.646zm-1.031-2.843c-.199-.321-.002-.57.17-.82a.544.544 0 01.117-.127.454.454 0 01.48-.11.47.47 0 01.258.43.877.877 0 01-.552.8.362.362 0 01-.473-.173z"/><path fill="#ffd04d" d="M17.253 6.192c.029.045.046.108.122.077l-.034-.082-.516-1.74.013-.087a9.525 9.525 0 013.224 2.387c.482.597.963 1.195 1.398 1.828.17.248.253.199.35-.044.085-.216.19-.424.293-.632.028-.055.033-.158.126-.136.038.009.067.085.089.135.139.32.273.641.413.96.103.233.156.574.335.666.218.113.46-.187.707-.272.021-.008.04-.026.062-.032.051-.013.104-.023.157-.034a1.41 1.41 0 01-.024.165c-.071.27-.139.54-.222.806a.244.244 0 00.09.325 8.418 8.418 0 012.643 3.573c.177.402.33.815.493 1.223a25.312 25.312 0 01.745 4.332c.017.255-.08.537.104.773a.495.495 0 00.078.298 17.422 17.422 0 01.774 1.94 1.44 1.44 0 001.306 1.195c.413.06.394.102.095.412-.175.18-.474.28-.445.618.04.463.066.926.099 1.39.012.168.111.384-.017.49-.096.079-.262-.1-.405-.143-.078-.024-.153-.055-.229-.082-.416-.203-.834-.403-1.249-.61a.191.191 0 00-.27.052c-.192.233-.392.459-.588.688-.107.106-.219.208-.318.32-.124.142-.177.11-.197-.063-.032-.264-.078-.527-.098-.793-.012-.168-.086-.213-.241-.21-.302.01-.604-.004-.906.006-.193.006-.265-.025-.13-.218.173-.247.32-.512.496-.756a.294.294 0 00-.01-.422 3.717 3.717 0 00-2.017-1.46c-.095-.722-.162-1.448-.298-2.163-.06-.317.058-.415.297-.547a11.552 11.552 0 003.457-3.03c.106-.133.045-.177-.08-.213-.39-.115-.773-.253-1.168-.341-.926-.207-1.858-.39-2.787-.58-.2-.041-.258-.12-.189-.335a6.62 6.62 0 00.28-1.637c.021-.326-.115-.315-.344-.218a5.227 5.227 0 00-.788.51c-.065.042-.114.162-.193.117-.075-.042-.01-.15.005-.221a20.368 20.368 0 00.331-3.52c.033-.77.01-.763-.749-.522a20.43 20.43 0 00-3.037 1.308c-.068.034-.141.113-.215.059-.026-.02.02-.126.02-.193.004-.407.015-.815 0-1.222-.012-.376-.092-.41-.403-.224A14.086 14.086 0 0016 11.286V5.397a8.924 8.924 0 011.253.795z"/><path fill="#eef2aa" d="M17.253 6.192c.029.045.046.108.122.077l-.034-.082z"/><path fill="#ecf19e" d="M16.825 4.448l.013-.088-.048-.017c-.024.046-.001.078.035.105z"/><path fill="#424b7e" d="M30.954 20.12c-.401-.051-.803-.097-1.203-.157a.245.245 0 00-.292.173c-.137.293-.289.58-.432.87-.072.143-.13.146-.193-.006a5.089 5.089 0 01-.245-.573c-.097-.347-.263-.348-.5-.14a2.85 2.85 0 001.201 1.65c.908.54 1.243.405 1.497-.613a5.844 5.844 0 00.167-1.204z"/><path fill="#495587" d="M29.077 26.5c-.416-.202-.834-.402-1.249-.609a.191.191 0 00-.27.052c-.192.233-.392.459-.588.688a4.623 4.623 0 001.191.948c.246.122.393.124.503-.16.12-.312.274-.613.413-.918z"/><path fill="#515e91" d="M18.731 16.872a1.394 1.394 0 012.211-.016 2.685 2.685 0 01.002 3.32 1.394 1.394 0 01-2.21-.011 2.664 2.664 0 01-.003-3.293zm.154 1.436a1.374 1.374 0 00.292 1.048.795.795 0 001.2.095 1.284 1.284 0 00.27-1.411c.17-.167.278-.36.102-.57a.411.411 0 00-.61-.073.95.95 0 00-1.254.91zm-.728-3.258a.47.47 0 00-.259-.43.454.454 0 00-.479.109.544.544 0 00-.117.127c-.172.249-.369.499-.17.82a.362.362 0 00.473.172.878.878 0 00.552-.798z"/><path fill="#242424" d="M20.138 17.397a.95.95 0 00-1.253.91 1.374 1.374 0 00.292 1.049.795.795 0 001.2.095 1.283 1.283 0 00.27-1.411.44.44 0 01-.532-.13.404.404 0 01.023-.513z"/></svg>