<svg xmlns="http://www.w3.org/2000/svg" width="100%" height="100%" viewBox="-2.72 -2.72 37.44 37.44"><path fill="#EAC3DE" d="M11.042 3.984c-2.286-.503-7.053-1.444-7.778-.72-.724.724.217 5.492.72 7.778a12.88 12.88 0 00-.859 3.249l-2.279.76c-.912.304-.912 1.593 0 1.897l3.017 1.006C6.276 22.161 10.802 25 16 25V3c-1.756 0-3.429.353-4.958.984z"/><path fill="#EAB5D7" d="M31.154 15.051l-2.279-.76a12.88 12.88 0 00-.859-3.249c.503-2.286 1.445-7.054.72-7.778-.724-.724-5.492.217-7.778.72A12.965 12.965 0 0016 3v22c5.198 0 9.724-2.839 12.137-7.046l3.017-1.006c.912-.303.912-1.593 0-1.897z"/><ellipse cx="8.873" cy="28.26" fill="#E2A1C8" rx="5" ry="2.5" transform="rotate(-14.999 8.874 28.262)"/><ellipse cx="23.127" cy="28.26" fill="#DB92BB" rx="2.5" ry="5" transform="rotate(-75.001 23.127 28.26)"/><path fill="#EDD1E6" d="M16 1a4 4 0 00-4 4c0 1.129.471 2.144 1.224 2.871A2.987 2.987 0 0013 9a3 3 0 003 3V1z"/><path fill="#EAC3DE" d="M19 9c0-.4-.082-.78-.224-1.129A3.977 3.977 0 0020 5a4 4 0 00-4-4v11a3 3 0 003-3z"/><circle cx="9" cy="15" r="4" fill="#FFF"/><path fill="#53BF8C" d="M9 16a3.976 3.976 0 01-2.966-1.338C6.021 14.774 6 14.884 6 15a3 3 0 106 0c0-.116-.021-.226-.034-.338A3.976 3.976 0 019 16z"/><path fill="#60CD96" d="M9 16a3.976 3.976 0 002.966-1.338C11.796 13.166 10.541 12 9 12s-2.796 1.166-2.966 2.662A3.976 3.976 0 009 16z"/><circle cx="9" cy="14" r="1" fill="#FFF"/><circle cx="23" cy="15" r="4" fill="#F7F7F7"/><path fill="#46B080" d="M23 16a3.976 3.976 0 01-2.966-1.338c-.013.112-.034.222-.034.338a3 3 0 106 0c0-.116-.021-.226-.034-.338A3.976 3.976 0 0123 16z"/><path fill="#53BF8C" d="M23 16a3.976 3.976 0 002.966-1.338C25.796 13.166 24.541 12 23 12s-2.796 1.166-2.966 2.662A3.976 3.976 0 0023 16z"/><circle cx="23" cy="14" r="1" fill="#F7F7F7"/><path fill="#373F3F" d="M16 18a1.5 1.5 0 000 3v-3z"/><path fill="#2B3332" d="M17.5 19.5A1.5 1.5 0 0016 18v3a1.5 1.5 0 001.5-1.5z"/><path fill="#373F3F" d="M9.589 4.699c-1.283-.26-3.097-.54-4.501-.637a.998.998 0 00-1.073 1.063c.08 1.116.341 2.766.683 4.468a13.042 13.042 0 014.891-4.894z"/><path fill="#EAB5D7" d="M3.863 17.954l-.734-.244C3.967 24.079 9.401 29 16 29v-4c-5.198 0-9.724-2.839-12.137-7.046z"/><path fill="#E2A1C8" d="M28.137 17.954C25.724 22.161 21.198 25 16 25v4c6.599 0 12.033-4.921 12.871-11.29l-.734.244z"/><path fill="#2B3332" d="M22.423 4.699c1.283-.26 3.097-.54 4.501-.637a.997.997 0 011.073 1.062c-.08 1.116-.341 2.766-.683 4.468a13.053 13.053 0 00-4.891-4.893z"/></svg>