<svg xmlns="http://www.w3.org/2000/svg" width="100%" height="100%" viewBox="-2.72 -2.72 37.44 37.44"><path fill="#1d7293" d="M19.45 30.956A2.377 2.377 0 0019.185 32h2.371a2.724 2.724 0 00-.482-1.309 3.462 3.462 0 01-1.626.265z"/><path fill="#6edca2" d="M26.197 15.615a7.434 7.434 0 00-1.542-2.878.479.479 0 00-.582-.17c-.23.106-.164.339-.144.525a3.145 3.145 0 01.019 1.345c-.03.092-.043.189-.064.283a2.478 2.478 0 01-.099-.264 1.423 1.423 0 00-.793-1.103c-.11-.046-.23-.113-.336-.04-.148.1-.071.25-.034.377a3.529 3.529 0 01.267.896 3.46 3.46 0 01-2.983 3.55 4.907 4.907 0 01.247 1.157 7.916 7.916 0 001.582.45 3.785 3.785 0 004.463-2.9 4.269 4.269 0 000-1.228z"/><path fill="#357093" d="M19.425 9.579l-.006.007v.005l.006-.012z"/><path fill="#fef1c6" d="M19.425 9.58c-.303.305-1.934-.001-2.198-.354-.198-.245-.248-.192-.321.102-.157.625-.317.691-.89.48v4.765l1.374-.353a3.728 3.728 0 001.394-1.914c.043-.143.12-.193.256-.106-.189-.524.138-.981.2-1.472a5.95 5.95 0 00.185-1.149zm-3.078 3.935c-.174.086-.133-.038-.125-.13.03-.084.103-.135.17-.085.106.079.053.16-.045.215z"/><path fill="#e75f3b" d="M19.419 9.591l.006-.007v-.005l-.006.012z"/><path fill="#7aebac" d="M19.881 16.24c-.096-.015-.196-.006-.294-.018a2.45 2.45 0 01-2.197-2.002l-1.374.353v5.678a.319.319 0 01.082.024 2.875 2.875 0 00.274 1.254c.076.176.153.395.398.376.245-.019.37-.213.44-.425a2.723 2.723 0 00.018-1.338 14.493 14.493 0 01-.313-3.157c.013-.271.064-.523.351-.62.264-.088.443.074.606.262a2.785 2.785 0 00.911.823c.188.083.46.28.52-.15l-.104-.13-.147-.218c-.074-.054-.204-.108-.111-.21.07-.08.181-.017.253.063a.322.322 0 01.11.03 5.674 5.674 0 00.589-.026c.154-.022.333-.076.346-.264.016-.232-.179-.276-.358-.305z"/><path fill="#ffe28a" d="M18.017 24.59c-.089-.17-.17-.604-.5-.169a21.939 21.939 0 01.725 4.368l1.05.028c-.075-.42-.143-.842-.226-1.26a11.012 11.012 0 00-1.049-2.967z"/><path fill="#1b6a89" d="M18.242 28.789c-.16.195-.092.45-.173.666-.151.397-.038.576.407.534.308-.028.62-.013.93-.017l-.114-1.155-1.05-.028z"/><path fill="#ffeaa7" d="M20.39 25.466c-.105-1.862-.096-3.73-.144-5.595a4.255 4.255 0 00-.093-.578 4.907 4.907 0 00-.247-1.156l-.601-1.302a.322.322 0 00-.111-.03c-.072-.08-.183-.142-.253-.064-.093.103.037.157.11.21l.148.22.104.128c-.06.431-.332.234-.52.151a2.785 2.785 0 01-.91-.823c-.164-.188-.343-.35-.607-.262-.287.097-.338.349-.35.62a14.493 14.493 0 00.312 3.156 2.723 2.723 0 01-.018 1.338c-.07.213-.195.407-.44.426-.245.019-.322-.2-.399-.376a2.876 2.876 0 01-.274-1.254.319.319 0 00-.08-.024v4.39a3.45 3.45 0 001.5-.22c.33-.435.411-.002.5.17a11.012 11.012 0 011.05 2.966c.082.418.15.84.225 1.26l.113 1.155.044.984a3.462 3.462 0 001.626-.265 21.055 21.055 0 01-.684-5.225z"/><path fill="#b0e29d" d="M19.303 17.3l-.104-.13z"/><path fill="#d1473d" d="M16.392 13.3c-.067-.05-.14.001-.17.086-.008.091-.049.215.125.13.098-.056.151-.137.045-.216z"/><path fill="#edeeee" d="M18.212 10.286c-1.235-.653-.967.909-.912 1.403a.46.46 0 00.396.499c.25.055.402-.12.535-.288a1.399 1.399 0 00-.02-1.614z"/><path fill="#2b3332" d="M17.874 10.771c-.1-.328-.625-.17-.629.424l.055.494c.61.09.76-.113.618-.829-.014-.016-.038-.09-.044-.089z"/><path fill="#d64f45" d="M20.153 9.481c.922-.02 2.055-3.108.108-3.327.003-.08.098-.717.095-.847a3.297 3.297 0 00-1.211-2.88c-.2-.16-.383-.343-.583-.502-.116-.092-.176-.325-.355-.25-.147.062-.158.279-.142.424.043.412-.11.257-.292.125A6.365 6.365 0 0116.094.11L16.016 0v9.808c.573.211.732.145.89-.48.073-.294.123-.347.32-.102.057.301 2.109.703 2.193.366.005-.003.003-.009.009-.012l-.003.004a6.034 6.034 0 01-.185 1.144c-.062.491-.389.948-.2 1.472a2.963 2.963 0 01.155.982c-.018.19.087.277.241.184a3.707 3.707 0 001.282-.962 1.54 1.54 0 00-.034-2.08 5.14 5.14 0 01-.53-.843z"/><path fill="#1d7293" d="M16.016 1.911v7.897c1.337-1.606 1.398-4.191 0-7.897z"/><path fill="#237899" d="M12.58 30.956A2.376 2.376 0 0112.844 32h-2.371a2.724 2.724 0 01.481-1.309 3.462 3.462 0 001.626.265z"/><path fill="#357093" d="M12.605 9.579l.006.007v.005l-.006-.012z"/><path fill="#fef1c6" d="M12.79 10.728c.062.491.389.948.2 1.472.135-.087.213-.037.255.106a3.728 3.728 0 001.394 1.914l1.375.353V9.808c-.573.211-.733.145-.89-.48-.073-.294-.123-.347-.32-.102-.265.353-1.896.659-2.2.353a5.95 5.95 0 00.185 1.149zm2.848 2.572c.067-.05.14.001.17.086.008.091.049.215-.126.13-.097-.056-.15-.137-.044-.216z"/><path fill="#e75f3b" d="M12.611 9.591l-.006-.007v-.005l.006.012z"/><path fill="#99f2bd" d="M12.148 16.24c.097-.015.197-.006.294-.018a2.45 2.45 0 002.197-2.002l1.375.353v5.678a.319.319 0 00-.082.024 2.875 2.875 0 01-.274 1.254c-.076.176-.154.395-.398.376-.245-.019-.37-.213-.44-.425a2.723 2.723 0 01-.018-1.338 14.493 14.493 0 00.312-3.157c-.013-.271-.063-.523-.35-.62-.264-.088-.443.074-.607.262a2.785 2.785 0 01-.91.823c-.189.083-.46.28-.52-.15l.103-.13.148-.218c.074-.054.204-.108.111-.21-.07-.08-.182-.017-.253.063a.322.322 0 00-.11.03 5.674 5.674 0 01-.589-.026c-.154-.022-.333-.076-.346-.264-.016-.232.179-.276.357-.305z"/><path fill="#ffe28a" d="M14.012 24.59c.09-.17.172-.604.5-.169a21.939 21.939 0 00-.724 4.368l-1.05.028c.074-.42.143-.842.225-1.26a11.012 11.012 0 011.05-2.967z"/><path fill="#1d7293" d="M13.788 28.789c.16.195.091.45.173.666.151.397.037.576-.407.534-.308-.028-.62-.013-.93-.017l.113-1.155 1.05-.028z"/><path fill="#ffeaa7" d="M11.639 25.466c.105-1.862.097-3.73.145-5.595a4.255 4.255 0 01.093-.578 4.907 4.907 0 01.247-1.156l.601-1.302a.322.322 0 01.11-.03c.072-.08.183-.142.254-.064.093.103-.037.157-.11.21l-.149.22-.103.128c.06.431.331.234.52.151a2.785 2.785 0 00.91-.823c.164-.188.343-.35.607-.262.287.097.337.349.35.62a14.493 14.493 0 01-.312 3.156 2.723 2.723 0 00.018 1.338c.07.213.195.407.44.426.244.019.322-.2.398-.376a2.876 2.876 0 00.274-1.254.318.318 0 01.082-.024v4.39a3.45 3.45 0 01-1.501-.22c-.33-.435-.412-.002-.5.17a11.012 11.012 0 00-1.05 2.966c-.082.418-.15.84-.226 1.26l-.112 1.155-.045.984a3.462 3.462 0 01-1.626-.265 21.055 21.055 0 00.685-5.225z"/><path fill="#b0e29d" d="M12.727 17.3l.103-.13z"/><path fill="#d1473d" d="M15.638 13.3c.067-.05.14.001.17.086.008.091.049.215-.126.13-.097-.056-.15-.137-.044-.216z"/><path fill="#edeeee" d="M13.818 10.286c1.235-.653.966.909.912 1.403a.46.46 0 01-.396.499c-.25.055-.402-.12-.535-.288a1.399 1.399 0 01.019-1.614z"/><path fill="#2b3332" d="M14.156 10.771c.1-.328.624-.17.629.424l-.055.494c-.61.09-.761-.113-.619-.829.015-.016.04-.09.045-.089z"/><path fill="#d64f45" d="M11.876 9.481c-.922-.02-2.054-3.108-.107-3.327-.003-.08-.098-.717-.095-.847a3.297 3.297 0 011.21-2.88c.201-.16.384-.342.584-.502.115-.092.175-.325.354-.25.148.062.159.279.143.424-.043.412.11.257.292.125A6.365 6.365 0 0015.936.11l.078-.11v9.808c-.573.211-.733.145-.89-.48-.073-.294-.123-.347-.32-.102-.057.301-2.11.703-2.193.366-.006-.003-.004-.009-.009-.012l.003.004a6.034 6.034 0 00.184 1.144c.063.491.39.948.2 1.472a2.964 2.964 0 00-.155.982c.019.19-.086.277-.24.184a3.707 3.707 0 01-1.282-.962 1.54 1.54 0 01.033-2.08 5.14 5.14 0 00.531-.843z"/><path fill="#237899" d="M16.014 1.911v7.897c-1.338-1.606-1.399-4.191 0-7.897z"/><path fill="#8ff888" d="M10.166 2.58c1.536.58 1.988 2.644 3.976 4.122-.903-3.076-3.077-4.866-3.976-4.121z"/><path fill="#fca15e" d="M11.23 1.092c1.117.655 1.657 3.789 2.912 5.61.093-3.166-1.713-5.963-2.911-5.61z"/><path fill="#9fc9e4" d="M14.142 6.702c.665-1.752.16-7.187-1.626-6.667 1.301 1.247.505 3.847 1.626 6.667z"/></svg>