<svg xmlns="http://www.w3.org/2000/svg" width="100%" height="100%" viewBox="-2.72 -2.72 37.44 37.44"><path fill="#807A7A" d="M31.196 18.839l-2.67-.534c-.16-.444-.354-.882-.598-1.305s-.526-.81-.831-1.171l.872-2.579a1 1 0 00-.447-1.187l-2.044-1.18a1 1 0 00-1.251.206l-1.796 2.044a7.962 7.962 0 00-2.859.003l-1.798-2.047a1 1 0 00-1.251-.206l-2.044 1.18a1 1 0 00-.447 1.187l.873 2.581a7.979 7.979 0 00-1.432 2.475l-2.668.534a.998.998 0 00-.805.98v2.36a1 1 0 00.804.981l2.67.534c.16.444.354.882.598 1.305s.526.81.831 1.171l-.872 2.579a.999.999 0 00.447 1.186l2.044 1.18a1 1 0 001.251-.206l1.796-2.044a7.962 7.962 0 002.859-.003l1.798 2.046a1 1 0 001.251.206l2.044-1.18a.999.999 0 00.447-1.186l-.873-2.581a7.979 7.979 0 001.432-2.475l2.668-.534A.996.996 0 0032 22.18v-2.36a1 1 0 00-.804-.981z"/><path fill="#746E6E" d="M31.196 18.839l-2.67-.534c-.16-.444-.354-.882-.598-1.305s-.526-.81-.831-1.171l.872-2.579a1 1 0 00-.447-1.187l-2.044-1.18a1 1 0 00-1.251.206l-1.796 2.044a7.872 7.872 0 00-1.43-.127v15.988a8.104 8.104 0 001.428-.13l1.798 2.046a1 1 0 001.251.206l2.044-1.18a.999.999 0 00.447-1.186l-.873-2.581a7.979 7.979 0 001.432-2.475l2.668-.534a.998.998 0 00.804-.98v-2.36a1 1 0 00-.804-.981z"/><path fill="#4F4949" d="M22 14.206v-.242a.5.5 0 00-.5-.5h-1a.5.5 0 00-.5.5v.242c-3.317.487-5.875 3.343-5.875 6.794 0 3.791 3.084 6.875 6.875 6.875s6.875-3.084 6.875-6.875c0-3.45-2.558-6.307-5.875-6.794zm-1 12.919A6.132 6.132 0 0114.875 21c0-3.036 2.223-5.556 5.125-6.036a.5.5 0 00.5.5h1a.5.5 0 00.5-.5c2.902.48 5.125 3 5.125 6.036A6.132 6.132 0 0121 27.125z"/><path fill="#413B3B" d="M27.875 21c0-3.45-2.558-6.307-5.875-6.794v-.242a.5.5 0 00-.5-.5H21v2h.5a.5.5 0 00.5-.5c2.902.48 5.125 3 5.125 6.036 0 .8-.158 1.562-.438 2.263a.994.994 0 00-.937.987c0 .165.049.313.12.45A6.113 6.113 0 0121 27.125v.75a6.86 6.86 0 005.44-2.688c.099.033.2.062.31.062a1 1 0 001-1 .987.987 0 00-.353-.748A6.811 6.811 0 0027.875 21z"/><path fill="#C8CCCB" d="M25.815 19.727c-.111-.419-.257-.833-.485-1.227s-.513-.727-.82-1.033l.684-1.623a.5.5 0 00-.211-.627l-.968-.559a.5.5 0 00-.649.131l-1.051 1.389a4.986 4.986 0 00-2.622.014l-1.062-1.403a.5.5 0 00-.649-.131l-.968.559a.5.5 0 00-.211.627l.684 1.621a4.986 4.986 0 00-1.323 2.264l-1.729.216a.5.5 0 00-.435.496v1.117a.5.5 0 00.438.496l1.747.219c.111.419.257.833.485 1.227s.513.727.82 1.033l-.685 1.622a.5.5 0 00.211.627l.968.559a.5.5 0 00.649-.131l1.051-1.389c.846.231 1.75.223 2.622-.014l1.062 1.403a.5.5 0 00.649.131l.968-.559a.5.5 0 00.211-.627l-.684-1.621a4.986 4.986 0 001.323-2.264l1.729-.216a.499.499 0 00.436-.495v-1.117a.5.5 0 00-.438-.496l-1.747-.219z"/><path fill="#B9BFBE" d="M27.562 19.945l-1.747-.218a4.975 4.975 0 00-.484-1.227 4.962 4.962 0 00-.82-1.033l.684-1.623a.5.5 0 00-.211-.627l-.968-.559a.5.5 0 00-.649.131l-1.051 1.389A4.78 4.78 0 0021 16.011v9.978a5.173 5.173 0 001.306-.181l1.062 1.403a.5.5 0 00.649.131l.968-.559a.5.5 0 00.211-.627l-.684-1.621a4.986 4.986 0 001.323-2.264l1.729-.216a.5.5 0 00.436-.496v-1.117a.501.501 0 00-.438-.497z"/><circle cx="21" cy="21" r="3" fill="#58B7AE"/><path fill="#4EAFA3" d="M24 21a3 3 0 00-3-3v6a3 3 0 003-3z"/><path fill="#DADDDC" d="M.757 11.689l2.657.664a6.977 6.977 0 001.254 2.176l-.753 2.63a1 1 0 00.461 1.141l1.246.719a1 1 0 001.219-.171l1.903-1.968c.408.075.827.12 1.256.12.429 0 .848-.045 1.256-.119l1.903 1.968a1 1 0 001.219.171l1.246-.719a.999.999 0 00.461-1.141l-.753-2.631a6.992 6.992 0 001.254-2.175l2.657-.664c.445-.112.757-.512.757-.971V9.281a1 1 0 00-.757-.97l-2.657-.664a6.972 6.972 0 00-1.254-2.175l.753-2.63a1 1 0 00-.461-1.141L14.377.98a1 1 0 00-1.219.171l-1.903 1.968A7.007 7.007 0 0010 3c-.43 0-.848.045-1.256.119L6.842 1.151A1 1 0 005.623.98l-1.246.719a1 1 0 00-.461 1.141l.752 2.63a7.008 7.008 0 00-1.254 2.176l-2.657.665a1 1 0 00-.757.97v1.438a1 1 0 00.757.97z"/><path fill="#D1D4D4" d="M.757 11.689l2.657.664a6.977 6.977 0 001.254 2.176l-.753 2.63a1 1 0 00.461 1.141l1.246.719a1 1 0 001.219-.171l1.903-1.968c.408.075.827.12 1.256.12V3c-.43 0-.848.045-1.256.119L6.842 1.151A1 1 0 005.623.98l-1.246.719a1 1 0 00-.461 1.141l.752 2.63a7.008 7.008 0 00-1.254 2.176l-2.657.665a1 1 0 00-.757.97v1.438a1 1 0 00.757.97z"/><circle cx="10" cy="10" r="6" fill="#807A7A"/><path fill="#746E6E" d="M10 16V4a6 6 0 100 12z"/><circle cx="12" cy="6.536" r="1" fill="#434C4B"/><circle cx="11.415" cy="12.549" r="1.5" fill="#FFF"/><circle cx="11.415" cy="12.549" r=".5" fill="#434C4B"/><path fill="#F7F7F7" d="M4.788 9.674l.129.483a.25.25 0 00.306.177l.642-.172.172.642a.25.25 0 00.306.177l.483-.129a.25.25 0 00.177-.306l-.172-.643.642-.172a.251.251 0 00.177-.306l-.13-.483a.25.25 0 00-.306-.177l-.642.172-.171-.642a.252.252 0 00-.307-.177l-.483.13a.25.25 0 00-.176.306l.172.642-.642.171a.25.25 0 00-.177.307z"/><circle cx="10" cy="10" r="2" fill="#67BFB5"/><path fill="#58B7AE" d="M8 10a2 2 0 002 2V8a2 2 0 00-2 2z"/><path fill="#FFF" d="M15.669 25.9l-.483-.129a.25.25 0 01-.177-.306l.324-1.207-1.207-.324a.25.25 0 01-.177-.306l.129-.483a.25.25 0 01.306-.177l1.932.518a.25.25 0 01.177.306l-.518 1.932a.251.251 0 01-.306.176z"/><path fill="#D84459" d="M21 23c-1.657 0-3 .448-3 1v4c0 .552 1.343 1 3 1s3-.448 3-1v-4c0-.552-1.343-1-3-1z"/><path fill="#C84054" d="M24 28v-4c0-.552-1.343-1-3-1v6c1.657 0 3-.448 3-1z"/><path fill="#DADDDC" d="M30 28H2a1 1 0 01-1-1v-2a1 1 0 011-1h28a1 1 0 011 1v2a1 1 0 01-1 1z"/><path fill="#D1D4D4" d="M30 24H16v4h14a1 1 0 001-1v-2a1 1 0 00-1-1z"/><circle cx="16" cy="26" r="2" fill="#EDEEEE"/><path fill="#E3E5E5" d="M31.57 26.386c-.679.568-2.066 1.566-3.469 1.613-.974.032-1.891-.662-2.066-1.621A2.001 2.001 0 0128 24c1.441 0 2.883 1.039 3.575 1.619a.497.497 0 01-.005.767z"/><path fill="#EDEEEE" d="M.43 26.386c.679.568 2.066 1.566 3.469 1.613.974.032 1.891-.662 2.066-1.621A2.001 2.001 0 004 24c-1.441 0-2.883 1.039-3.575 1.619a.497.497 0 00.005.767z"/><path fill="#E3E5E5" d="M18 26a2 2 0 00-2-2v4a2 2 0 002-2z"/></svg>