<svg xmlns="http://www.w3.org/2000/svg" width="100%" height="100%" viewBox="-2.72 -2.72 37.44 37.44"><path fill="#1d7293" d="M19.45 30.956A2.377 2.377 0 0019.185 32h2.371a2.724 2.724 0 00-.482-1.309 3.462 3.462 0 01-1.626.265z"/><path fill="#6edca2" d="M26.197 15.615a7.434 7.434 0 00-1.542-2.878.479.479 0 00-.582-.17c-.23.106-.164.339-.144.525a3.145 3.145 0 01.019 1.345c-.03.092-.043.189-.064.283a2.478 2.478 0 01-.099-.264 1.423 1.423 0 00-.793-1.103c-.11-.046-.23-.113-.336-.04-.148.1-.071.25-.034.377a3.529 3.529 0 01.267.896 3.46 3.46 0 01-2.983 3.55 4.907 4.907 0 01.247 1.157 7.916 7.916 0 001.582.45 3.785 3.785 0 004.463-2.9 4.269 4.269 0 000-1.228z"/><path fill="#357093" d="M19.425 9.579l-.006.007v.005l.006-.012z"/><path fill="#fef1c6" d="M18.784 12.306c.043-.144.12-.193.256-.106-.189-.524.138-.981.2-1.472a5.948 5.948 0 00.185-1.149c-.303.306-.486.879-1.108.472-.058-.037-.093.141-.105.235a1.399 1.399 0 01.019 1.614c-.133.168-.285.343-.535.288a.459.459 0 01-.396-.499l-.055-.494c-.133.14-.262.286-.403.42-.11.103-.229.284-.39.186-.186-.114-.028-.295.034-.414a10.545 10.545 0 00.74-2.161c-.197-.245-.247-.192-.32.102-.157.625-.317.691-.89.48v4.765l1.374-.353a3.727 3.727 0 001.394-1.914zm-2.436 1.21c-.175.085-.134-.039-.126-.13.03-.085.103-.136.17-.086.106.079.053.16-.044.215z"/><path fill="#e75f3b" d="M19.419 9.591l.006-.007v-.005l-.006.012z"/><path fill="#7aebac" d="M19.881 16.24c-.096-.015-.196-.006-.294-.018a2.45 2.45 0 01-2.197-2.002l-1.374.353v5.678a.319.319 0 01.082.024 2.875 2.875 0 00.274 1.254c.076.176.153.395.398.376.245-.019.37-.213.44-.425a2.723 2.723 0 00.018-1.338 14.493 14.493 0 01-.313-3.157c.013-.271.064-.523.351-.62.264-.088.443.074.606.262a2.785 2.785 0 00.911.823c.188.083.46.28.52-.15l-.104-.13-.147-.218c-.074-.054-.204-.108-.111-.21.07-.08.181-.017.253.063a.322.322 0 01.11.03 5.674 5.674 0 00.589-.026c.154-.022.333-.076.346-.264.016-.232-.179-.276-.358-.305z"/><path fill="#ffe28a" d="M18.018 24.59c-.09-.17-.172-.604-.5-.169a21.938 21.938 0 01.724 4.368l1.05.028c-.075-.42-.143-.842-.226-1.26a11.012 11.012 0 00-1.048-2.967z"/><path fill="#1b6a89" d="M18.242 28.789c-.16.195-.091.45-.173.666-.151.397-.038.576.407.534.308-.028.62-.013.93-.017l-.114-1.155-1.05-.028z"/><path fill="#ffeaa7" d="M20.39 25.466c-.105-1.862-.096-3.73-.144-5.595a4.255 4.255 0 00-.093-.578 4.907 4.907 0 00-.247-1.156l-.601-1.302a.322.322 0 00-.111-.03c-.072-.08-.183-.142-.253-.064-.093.103.037.157.11.21l.148.22.104.128c-.06.431-.332.234-.52.151a2.785 2.785 0 01-.91-.823c-.164-.188-.343-.35-.607-.262-.287.097-.338.349-.35.62a14.493 14.493 0 00.312 3.156 2.723 2.723 0 01-.018 1.338c-.07.213-.195.407-.44.426-.245.019-.322-.2-.399-.376a2.876 2.876 0 01-.274-1.254.319.319 0 00-.08-.024v4.39a3.45 3.45 0 001.5-.22c.33-.435.412-.002.5.17a11.012 11.012 0 011.05 2.966c.082.418.15.84.225 1.26l.113 1.155.044.984a3.462 3.462 0 001.626-.265 21.055 21.055 0 01-.684-5.225z"/><path fill="#b0e29d" d="M19.303 17.3l-.104-.13z"/><path fill="#d64f45" d="M20.356 5.307a3.297 3.297 0 00-1.211-2.88c-.2-.16-.383-.343-.583-.502-.116-.092-.176-.325-.355-.25-.147.062-.158.279-.142.424.043.411-.11.257-.292.125A6.364 6.364 0 0116.094.11L16.016 0v9.808c.573.211.733.145.89-.48.073-.294.123-.347.32-.102.199-.493.37-.999.606-1.473.123-.246.28-.651.677-.187.185.217.179-.055.211-.154.178-.542.33-1.093.534-1.625.09-.234.152-.617.508-.546.311.063.305.42.357.686a2.049 2.049 0 01.02.235l-.014.231a.13.13 0 01.01.092c.152-.073.117-.211.118-.337l.008.006c.003-.08.098-.717.095-.847z"/><path fill="#2b3332" d="M17.885 10.8l-.01-.029-.115.088c.017.112-.03.161-.143.145-.23-.145-.289.047-.372.19l.055.495c.61.09.76-.113.618-.829a.1.1 0 01-.033-.06z"/><path fill="#d64f45" d="M20.684 10.324a5.128 5.128 0 01-.53-.843l-.613-.221c-.137.075-.134.202-.122.331.005-.002.004-.008.009-.01l-.003.003a6.037 6.037 0 01-.184 1.144c-.063.491-.39.948-.2 1.472a2.963 2.963 0 01.155.982c-.019.19.086.277.24.185a3.707 3.707 0 001.282-.963 1.54 1.54 0 00-.034-2.08z"/><path fill="#1d7293" d="M22.95 6.076c-.258.143-.203-.07-.203-.184a2.202 2.202 0 00-.13-.81c-.08-.202-.173-.434-.466-.231-.232-.146-.002-.455-.215-.608-.242-.456-.517-.323-.773-.027a4.794 4.794 0 00-.695 1.355l-.1.226a.817.817 0 00-.107.357l-.008-.006c0 .126.034.264-.118.336a.13.13 0 00-.01-.09l.014-.232a2.059 2.059 0 00-.02-.235c-.052-.266-.045-.623-.357-.686-.356-.071-.418.312-.508.546-.204.532-.356 1.083-.534 1.625-.032.1-.026.371-.211.154-.397-.464-.554-.06-.677.188-.236.473-.407.98-.605 1.472a10.545 10.545 0 01-.74 2.16c-.063.12-.22.3-.034.415.16.098.28-.083.39-.186.14-.134.269-.28.403-.42.082-.144.14-.336.37-.191l.145-.145.113-.087.338-.486c.012-.093.048-.272.106-.234.616.403.802-.159 1.101-.466-.011-.128-.012-.252.122-.326l.612.22c.38-.218.62-.806 1.24-.392.165.11.43-.133.614-.281.122-.098.212-.267.347-.312 1.022-.342 1.062-1.2 1.086-2.053.008-.286-.067-.6-.49-.366z"/><path fill="#fff" d="M17.76 10.859l-.143.145c.114.016.16-.033.143-.145z"/><path fill="#d1473d" d="M16.392 13.3c-.067-.05-.14.001-.17.086-.008.091-.049.215.125.13.098-.056.151-.137.045-.216z"/><path fill="#edeeee" d="M18.212 10.286l-.338.485.01.029a.102.102 0 00.034.06c.143.716-.008.919-.618.83a.459.459 0 00.396.498c.25.055.402-.12.535-.288a1.399 1.399 0 00-.02-1.614z"/><path fill="#237899" d="M12.583 30.956A2.377 2.377 0 0112.846 32h-2.37a2.724 2.724 0 01.48-1.309 3.462 3.462 0 001.627.265z"/><path fill="#357093" d="M12.607 9.579l.006.007v.005l-.006-.012z"/><path fill="#fff5d8" d="M14.642 14.22l1.374.353V9.808c-.572.211-.732.145-.89-.48-.073-.294-.123-.347-.32-.102a10.546 10.546 0 00.74 2.16c.062.12.22.3.034.415-.161.098-.28-.083-.39-.186-.14-.134-.27-.28-.403-.42l-.055.494a.459.459 0 01-.396.499c-.25.055-.402-.12-.534-.288a1.399 1.399 0 01.018-1.614c-.012-.094-.047-.272-.105-.235-.621.407-.805-.166-1.108-.472a5.947 5.947 0 00.185 1.149c.062.491.39.948.2 1.472.136-.087.213-.038.256.106a3.727 3.727 0 001.394 1.914zm.998-.92c.067-.05.14.001.17.086.008.091.05.215-.125.13-.098-.056-.151-.137-.045-.216z"/><path fill="#e75f3b" d="M12.613 9.591l-.006-.007v-.005l.006.012z"/><path fill="#99f2bd" d="M12.15 16.24c.097-.015.197-.006.295-.018a2.45 2.45 0 002.197-2.002l1.374.353v5.678a.319.319 0 00-.081.024 2.875 2.875 0 01-.274 1.254c-.077.176-.154.395-.399.376-.245-.019-.37-.213-.44-.425a2.723 2.723 0 01-.018-1.338 14.493 14.493 0 00.313-3.157c-.013-.271-.063-.523-.35-.62-.265-.088-.444.074-.607.262a2.785 2.785 0 01-.911.823c-.188.083-.46.28-.52-.15l.104-.13.148-.218c.073-.054.203-.108.11-.21-.07-.08-.181-.017-.253.063a.322.322 0 00-.11.03 5.674 5.674 0 01-.589-.026c-.153-.022-.333-.076-.346-.264-.016-.232.18-.276.358-.305z"/><path fill="#ffeaa7" d="M14.015 24.59c.089-.17.17-.604.5-.169a21.939 21.939 0 00-.725 4.368l-1.05.028c.075-.42.143-.842.226-1.26a11.012 11.012 0 011.049-2.967z"/><path fill="#1d7293" d="M13.79 28.789c.16.195.092.45.174.666.15.397.037.576-.408.534-.307-.028-.619-.013-.929-.017l.113-1.155 1.05-.028z"/><path fill="#fef1c6" d="M11.641 25.466c.106-1.862.097-3.73.146-5.595a4.255 4.255 0 01.092-.578 4.907 4.907 0 01.247-1.156l.602-1.302a.322.322 0 01.11-.03c.072-.08.183-.142.254-.064.092.103-.038.157-.111.21l-.148.22-.104.128c.06.431.332.234.52.151a2.785 2.785 0 00.91-.823c.164-.188.343-.35.607-.262.288.097.338.349.35.62a14.493 14.493 0 01-.312 3.156 2.723 2.723 0 00.018 1.338c.07.213.195.407.44.426.245.019.322-.2.399-.376a2.876 2.876 0 00.274-1.254.318.318 0 01.081-.024v4.39a3.45 3.45 0 01-1.5-.22c-.33-.435-.412-.002-.501.17a11.012 11.012 0 00-1.05 2.966c-.082.418-.15.84-.225 1.26l-.113 1.155-.044.984a3.462 3.462 0 01-1.626-.265 21.055 21.055 0 00.684-5.225z"/><path fill="#b0e29d" d="M12.73 17.3l.103-.13z"/><path fill="#dd564c" d="M15.938.11a6.365 6.365 0 01-1.679 2.114c-.182.132-.335.286-.291-.125.015-.145.004-.362-.143-.424-.18-.075-.24.158-.355.25-.2.16-.383.341-.583.501a3.297 3.297 0 00-1.21 2.881c-.004.13.09.768.094.847l.008-.006c0 .126-.034.264.118.337a.13.13 0 01.01-.092l-.013-.23a2.062 2.062 0 01.02-.236c.051-.266.045-.623.356-.686.356-.071.418.312.508.546.204.532.356 1.083.534 1.625.032.1.026.371.212.154.396-.464.553-.06.676.187.236.474.407.98.606 1.473.197-.245.247-.192.32.102.158.625.318.691.89.48V0z"/><path fill="#373f3f" d="M14.148 10.8l.01-.029.114.088c-.017.112.03.161.143.145.231-.145.29.047.372.19l-.055.495c-.61.09-.76-.113-.618-.829a.1.1 0 00.034-.06z"/><path fill="#dd564c" d="M11.348 10.324a5.128 5.128 0 00.53-.843l.613-.221c.137.075.134.202.122.331-.005-.002-.003-.008-.008-.01l.002.003a6.037 6.037 0 00.185 1.144c.062.491.39.948.2 1.472a2.963 2.963 0 00-.155.982c.018.19-.087.277-.241.185a3.707 3.707 0 01-1.282-.963 1.54 1.54 0 01.034-2.08z"/><path fill="#237899" d="M9.083 6.076c.258.143.202-.07.203-.184a2.202 2.202 0 01.13-.81c.08-.202.173-.434.465-.231.232-.146.002-.455.215-.608.242-.456.517-.323.773-.027a4.795 4.795 0 01.696 1.355l.099.226a.817.817 0 01.107.357l.008-.006c0 .126-.034.264.118.336a.129.129 0 01.01-.09l-.013-.232a2.059 2.059 0 01.02-.235c.051-.266.045-.623.356-.686.356-.071.418.312.508.546.204.532.356 1.083.534 1.625.032.1.026.371.212.154.396-.464.553-.06.676.188.236.473.407.98.606 1.472a10.545 10.545 0 00.74 2.16c.062.12.22.3.034.415-.161.098-.28-.083-.39-.186-.14-.134-.27-.28-.403-.42-.083-.144-.141-.336-.371-.191l-.144-.145-.114-.087-.338-.486c-.012-.093-.047-.272-.105-.234-.617.403-.803-.159-1.102-.466.011-.128.013-.252-.122-.326l-.612.22c-.38-.218-.62-.806-1.24-.392-.165.11-.43-.133-.614-.281-.122-.098-.212-.267-.347-.312-1.022-.342-1.062-1.2-1.086-2.053-.008-.286.067-.6.49-.366z"/><path fill="#fff" d="M14.272 10.859l.143.145c-.113.016-.16-.033-.143-.145z"/><path fill="#d64f45" d="M15.64 13.3c.067-.05.14.001.17.086.008.091.05.215-.125.13-.098-.056-.151-.137-.045-.216z"/><path fill="#f7f7f7" d="M14.114 10.86a.102.102 0 00.033-.06l.011-.029-.338-.485a1.399 1.399 0 00-.018 1.614c.132.168.284.343.534.288a.46.46 0 00.396-.499c-.61.09-.76-.113-.618-.829z"/><path fill="#fef1c6" d="M16.017 4.523v5.925c1.003-1.204 1.05-3.144 0-5.925z"/><path fill="#fff5d8" d="M16.015 4.523v5.925c-1.003-1.204-1.049-3.144 0-5.925z"/></svg>