<svg xmlns="http://www.w3.org/2000/svg" width="100%" height="100%" viewBox="-2.72 -2.72 37.44 37.44"><path fill="#d9f07d" d="M14.339 25.28A3.879 3.879 0 0016 27.63v-4.698c-.917 0-1.661 1.052-1.661 2.349zm-2.649-9.057c1.105.77 2.35.582 3.693-.258l.265-2.092q-1.98 2.383-3.959 2.35z"/><path fill="#ffd04d" d="M15.648 13.873h-.297l-3.662 2.35q1.98.033 3.959-2.35z"/><path fill="#ffd96c" d="M14.039 27.745v.724l.281 3.523.244-3.523v-.644l-.525-.08z"/><path fill="#9acc2e" d="M14.634 18.444c-.615 0-1.478 2.264-1.478 4.757.336 2.516.175 5.268 1.164 5.268s.861-2.446 1.063-5.268c0-2.493-.134-4.757-.749-4.757zm1.292-4.302a3.005 3.005 0 01-.844-.117 3.13 3.13 0 00-.351 1.431 2.743 2.743 0 00.45 1.972H16v-3.295c-.027 0-.047.01-.074.01z"/><path fill="#ffd04d" d="M15.181 17.428c-1.237.4-.432 6.1.819 6.39v-6.39zm-.099-3.403a3.005 3.005 0 00.844.117c.027 0 .047-.008.074-.009v-.962c-.283 0-.65.337-.918.854z"/><path fill="#e6f490" d="M12.733 1.401C10.257 11.766 11.646 13.568 16 13.568V7.992z"/><path fill="#ffd96c" d="M15.383 8.386L14.32 3.654a11.095 11.095 0 01-.909-3.661c-.406 1.63-.64 3.135.338 3.774l1.187 4.796z"/><path fill="#ffd96c" d="M12.733 10.78A3.056 3.056 0 0016 13.568V7.992a3.056 3.056 0 00-3.267 2.788z"/><path fill="#d9f07d" d="M10.756 18.25l.933-2.027c-3.28.215-5.068 1.526-5.857 3.572l3.315-.418c-.087-1.009.622-1.21 1.609-1.127zm2.574 2.72c0-1.906.556-3.542 1.851-3.542z"/><ellipse cx="14.211" cy="10.986" fill="#d56a7d" rx=".542" ry=".846"/><circle cx="14.222" cy="10.628" r=".233" fill="#fff"/><path fill="#cbeb6b" d="M17.661 25.295A3.879 3.879 0 0116 27.645v-4.698c.917 0 1.661 1.051 1.661 2.348zm2.649-9.058c-1.105.77-2.35.583-3.693-.257l-.265-2.092q1.98 2.383 3.959 2.35z"/><path fill="#f7c845" d="M16.352 13.888h.297l3.662 2.35q-1.98.033-3.959-2.35z"/><path fill="#ffd04d" d="M17.961 27.76v.724l-.281 3.523-.244-3.523v-.644l.525-.08z"/><path fill="#93c427" d="M17.366 18.458c.615 0 1.478 2.264 1.478 4.757-.336 2.517-.175 5.269-1.164 5.269s-.861-2.446-1.063-5.269c0-2.493.134-4.757.749-4.757zm-1.292-4.301a3.005 3.005 0 00.844-.117 3.13 3.13 0 01.351 1.43 2.743 2.743 0 01-.45 1.972H16v-3.294c.027 0 .047.01.074.01z"/><path fill="#f7c845" d="M16.819 17.442c1.237.401.432 6.101-.819 6.391v-6.39zm.099-3.402a3.005 3.005 0 01-.844.117c-.027 0-.047-.009-.074-.01v-.962c.283 0 .65.338.918.855z"/><path fill="#d9f07d" d="M19.267 1.416C21.743 11.78 20.354 13.583 16 13.583V8.006z"/><path fill="#ffd04d" d="M16.617 8.4l1.063-4.73a11.095 11.095 0 00.909-3.661c.406 1.63.64 3.135-.338 3.774l-1.187 4.796z"/><path fill="#ffd04d" d="M19.267 10.795A3.056 3.056 0 0116 13.583V8.006a3.056 3.056 0 013.267 2.789z"/><path fill="#cbeb6b" d="M21.244 18.265l-.933-2.028c3.28.215 5.068 1.527 5.857 3.573l-3.315-.418c.087-1.01-.622-1.21-1.609-1.127zm-2.574 2.72c0-1.906-.556-3.543-1.851-3.543z"/><ellipse cx="17.789" cy="11.001" fill="#cb6278" rx=".542" ry=".846"/><circle cx="17.778" cy="10.642" r=".233" fill="#fff"/></svg>