<svg xmlns="http://www.w3.org/2000/svg" width="100%" height="100%" viewBox="-2.72 -2.72 37.44 37.44"><path fill="#604631" d="M13.602.05A10.915 10.915 0 009.13 1.438a8.385 8.385 0 00-2.985 2.77 1.698 1.698 0 001.071 2.129.454.454 0 00.201-.006.66.66 0 01.597.117 2.507 2.507 0 00.83.43.473.473 0 01.27-.36 4.197 4.197 0 011.944-.624c.133-.011.305.02.28.238a1.035 1.035 0 00.366-.47c.309-.91 1.05-1.122 1.878-1.21l.02-.003a3.17 3.17 0 00.213-.031c.73-.135.73-.135 1.053.564a.806.806 0 01.721-.195l.054.007V.027a13.538 13.538 0 00-2.04.024z"/><path fill="#724d31" d="M26.733 13.691v-.813a15.691 15.691 0 00-2.052-7.043 21.442 21.442 0 00-1.277-1.857 1.801 1.801 0 01-.147-.136A10.556 10.556 0 0015.953.04c-.104-.008-.206-.006-.31-.012v4.766a2.408 2.408 0 011.685.657 1.068 1.068 0 00.361-.345.878.878 0 011.179-.39 4.785 4.785 0 012.35 1.348c.15.173.34.35.178.619.011.338-.105.668-.062 1.008a1.667 1.667 0 011.489 1.14c.042.143-.021.26-.016.39a3.01 3.01 0 00.633-.02c.28-.067.41.057.535.27a7.335 7.335 0 01.723 2.01c.02.086.045.172.068.258.193.007.223.165.267.3a4.465 4.465 0 01.2 1.689c-.011.171-.053.339-.268.372a12.069 12.069 0 01-.333 2.567v.057a.49.49 0 01.255.511 2.264 2.264 0 01-.785 1.51.331.331 0 01-.522-.002 4.86 4.86 0 01-1.84 1.7.155.155 0 00-.004.183c.183.334.359.671.538 1.007.302-.25.605-.5.905-.752a8.981 8.981 0 003.554-6.65v-.269z"/><path fill="#d6712d" d="M15.643 4.793v.826a1.895 1.895 0 00.917.165c.28-.03.592-.04.768-.333a2.407 2.407 0 00-1.685-.658z"/><path fill="#dd7731" d="M15.589 4.786a.806.806 0 00-.72.195 1.47 1.47 0 00.774.638v-.826zM11.337 6.13c.026-.217-.146-.248-.279-.237a4.198 4.198 0 00-1.944.624.473.473 0 00-.27.36.315.315 0 00.263.127 3.459 3.459 0 002.23-.873z"/><path fill="#d6712d" d="M23.58 18.741a4.176 4.176 0 01.174-.974 2.272 2.272 0 01.743-.96c.033.034.053.018.069-.016l.067-.069a.49.49 0 01.254.512 2.266 2.266 0 01-.785 1.51.331.331 0 01-.522-.003zm-.773-9.521a.503.503 0 01-.59-.045 2.64 2.64 0 01-.894-1.012.433.433 0 01.01-.473 1.667 1.667 0 011.49 1.14c.042.143-.021.26-.016.39zm2.158 4.879a1.299 1.299 0 01-.53-1.194 1.724 1.724 0 01.331-1.167c.193.008.223.165.267.3a4.467 4.467 0 01.2 1.69c-.011.17-.053.338-.268.37z"/><path fill="#956b65" d="M24.632 16.722l-.066.069-.002-.048.068-.077v.056z"/><path fill="#b9686d" d="M24.564 16.743l.002.048c-.016.034-.036.05-.069.016z"/><path fill="#ffd04d" d="M20.097 25.12h3.556a10.37 10.37 0 01-.83-3.603c-.002-.058-.011-.112-.015-.17-.795-.035-1.432-1.014-1.432-2.224a3.094 3.094 0 01.228-1.183 8.785 8.785 0 00-.848-1.049l-5.113.407v5.252l2.438-1.493 1.795.883v1.396c.427-.034.41.64.299 1.468zm-.362 1.46l-.55 2.213h5.266a6.75 6.75 0 00-.251-2.446l-1.748 1.389z"/><path fill="#dd7731" d="M23.653 25.12h-3.556l-.362 1.46 2.717 1.156 1.748-1.39a4.884 4.884 0 00-.547-1.226zm-.845-3.772a6.768 6.768 0 00-1.204-3.408 3.094 3.094 0 00-.228 1.183c0 1.21.637 2.19 1.432 2.225zm-4.728-.291l-2.437 1.493v2.194a8.312 8.312 0 002.981-.477 2.513 2.513 0 001.252-.93V21.94z"/><path fill="#edeeee" d="M22.303 28.793c-.13-.718-1.976-1.455-1.845-.733-.791-.727-3.041-.118-2.267.733-.664-.26-.35.964.229 1.144-.837.329.694 1.015 1.315.684-.79.574 1.574.846 2.232.446.631.49 3.343-.218 2.908-.644.7.17 1.604-.695.874-.86.299-.503-.177-1.221-.485-.77.166-.949-1.248-1.826-1.408-1.057-.336-.633-1.729.445-1.553 1.057z"/><path fill="#e8803a" d="M22.626 30.425c0-.571-1.32-.571-1.32 0l.66 1.575zm-1.43 0c0-.571-1.32-.571-1.32 0l.66 1.575zm2.838-.035c0-.572-1.32-.572-1.32 0l.66 1.574z"/><path fill="#e3e5e5" d="M21.827 7.863h-6.184v6.479h3.543l3.622-1.201a5.292 5.292 0 00-.98-5.278z"/><path fill="#ffd96c" d="M19.677 10.516a4.51 4.51 0 00-1.972 1.124c0-.375-1.015-.567-2.062-.58v7.936a4.063 4.063 0 003.64-5.873 2.66 2.66 0 00.394-2.607z"/><path fill="#f7c845" d="M16.565 14.544c-.22 1.743 2.76.89 1.143-1.335z"/><path fill="#f7f7f7" d="M19.282 12.986c-.546 2.332-1.16 2.851-2.556 2.858l-1.083-1.502v3.657l1.431-1.426.634 3.03a3.301 3.301 0 001.173-3.094l1.743.998c.612-2.242-.271-3.874-1.342-4.521z"/><ellipse cx="17.256" cy="14.498" fill="#2b3332" rx=".296" ry=".453"/><path fill="#ef8c48" d="M15.643 8.543v4.54a6.488 6.488 0 000-4.54zm1.317 3.807a3.96 3.96 0 000-2.772 3.966 3.966 0 000 2.772z"/><path fill="#ffd96c" d="M11.19 25.12H7.631a10.37 10.37 0 00.83-3.603c.003-.058.012-.112.016-.17.794-.035 1.432-1.014 1.432-2.224a3.094 3.094 0 00-.228-1.183 8.784 8.784 0 01.847-1.049l5.114.407v5.252l-2.438-1.493-1.795.883v1.396c-.427-.034-.41.64-.3 1.468zm.361 1.46l.55 2.213H6.834a6.75 6.75 0 01.25-2.446l1.749 1.389z"/><path fill="#e8803a" d="M7.632 25.12h3.557l.362 1.46-2.717 1.156-1.748-1.39a4.885 4.885 0 01.546-1.226zm.846-3.772a6.768 6.768 0 011.204-3.408 3.094 3.094 0 01.228 1.183c0 1.21-.638 2.19-1.432 2.225zm4.727-.291l2.438 1.493v2.194a8.312 8.312 0 01-2.981-.477 2.513 2.513 0 01-1.252-.93V21.94z"/><path fill="#f7f7f7" d="M8.983 28.793c.13-.718 1.975-1.455 1.845-.733.79-.727 3.041-.118 2.267.733.664-.26.35.964-.229 1.144.837.329-.694 1.015-1.315.684.79.574-1.574.846-2.232.446-.631.49-3.343-.218-2.908-.644-.7.17-1.604-.695-.874-.86-.3-.503.177-1.221.485-.77-.166-.949 1.248-1.826 1.408-1.057.336-.633 1.729.445 1.553 1.057z"/><path fill="#ef8c48" d="M8.66 30.425c0-.571 1.32-.571 1.32 0L9.32 32zm1.43 0c0-.571 1.32-.571 1.32 0L10.75 32zm-2.838-.035c0-.572 1.32-.572 1.32 0l-.66 1.574z"/><path fill="#edeeee" d="M9.458 7.863h6.185v6.479H12.1L8.478 13.14a5.292 5.292 0 01.98-5.278z"/><path fill="#ffe28a" d="M11.61 10.516a4.51 4.51 0 011.971 1.124c0-.375 1.014-.567 2.062-.58v7.936a4.063 4.063 0 01-3.64-5.873 2.66 2.66 0 01-.394-2.607z"/><path fill="#ffd04d" d="M14.72 14.544c.22 1.743-2.759.89-1.142-1.335z"/><path fill="#f7f7f7" d="M12.004 12.986c.546 2.332 1.16 2.851 2.556 2.858l1.083-1.502v3.657l-1.431-1.426-.634 3.03a3.301 3.301 0 01-1.173-3.094l-1.743.998c-.612-2.242.271-3.874 1.342-4.521z"/><ellipse cx="14.03" cy="14.498" fill="#373f3f" rx=".296" ry=".453"/><path fill="#f79654" d="M15.643 8.543v4.54a6.488 6.488 0 010-4.54zm-1.317 3.807a3.96 3.96 0 010-2.772 3.966 3.966 0 010 2.772z"/></svg>