<svg xmlns="http://www.w3.org/2000/svg" width="100%" height="100%" viewBox="-2.72 -2.72 37.44 37.44"><path fill="#F7D684" d="M21.85 20.154C21.572 18.512 21 14.805 21 12l4-1c2.185 2.185 3.306 5.424 3.755 7.026A1.497 1.497 0 0130 19.5c0 .752-.555 1.369-1.277 1.478a1.5 1.5 0 01-1.473 1.772c-.404 0-.769-.162-1.039-.421a1.494 1.494 0 01-2.792.349A1.487 1.487 0 0122.5 23a1.5 1.5 0 01-1.5-1.5c0-.595.349-1.104.85-1.346z"/><path fill="#9E6E43" d="M16 7.051s0-6 2-7S25 11 25 11s-.016 2.629-1 3-3-2-3-2-2-7.949-3-7.949l-1 4-1-1z"/><path fill="#FAE09F" d="M10.15 20.154c.278-1.642.85-5.349.85-8.154l-4-1c-2.185 2.185-3.306 5.424-3.755 7.026A1.497 1.497 0 002 19.5c0 .752.555 1.369 1.277 1.478A1.5 1.5 0 004.75 22.75c.404 0 .769-.162 1.039-.421a1.494 1.494 0 002.792.349c.255.199.571.322.919.322a1.5 1.5 0 001.5-1.5c0-.595-.349-1.104-.85-1.346z"/><path fill="#A7794C" d="M16 7.051s0-6-2-7S7 11 7 11s.016 2.629 1 3 3-2 3-2 2-7.949 3-7.949l1 4 1-1z"/><path fill="#9E6E43" d="M14 14s-.151.534-.349 1.316c-1.531.708-5.065 2.725-7.473 7.107-.444.809-.02 1.826.855 2.118a1.502 1.502 0 001.868-.882c1.568-4.002 3.313-5.986 4.411-6.916C12.85 18.824 12.42 21.42 13 22c.5.5 1.75.75 3 .75V14h-2z"/><path fill="#A7794C" d="M15 24c0 2.209.105 4-1 4s-2-1.791-2-4 .895-4 2-4 1 1.791 1 4z"/><path fill="#96643B" d="M25.822 22.423c-2.408-4.382-5.942-6.399-7.473-7.107C18.151 14.534 18 14 18 14h-2v8.75c1.25 0 2.5-.25 3-.75.58-.58.15-3.176-.313-5.257 1.098.93 2.844 2.914 4.411 6.916a1.502 1.502 0 001.868.882c.876-.292 1.3-1.309.856-2.118z"/><path fill="#FAE09F" d="M14.884 27s-.635.5-1.134.5c-.263 0-.541-.137-.751-.269-.008-.336-.113-.743-.315-1.142-.403-.797-1.035-1.258-1.414-1.031-.378.227-.358 1.056.044 1.853.342.676.848 1.107 1.225 1.084C12.387 29.452 12.32 32 13.75 32c2 0 1.134-5 1.134-5z"/><path fill="#FDEBBB" d="M9.79 21.269c-.049-.027-.103-.029-.154-.048a1.156 1.156 0 00-.593-1.028 1.159 1.159 0 00-1.186.055c-.044-.033-.074-.077-.123-.104A1.17 1.17 0 106.61 22.2c.049.027.103.029.154.048.001.414.204.816.593 1.028s.837.167 1.186-.055c.044.033.074.077.123.104a1.17 1.17 0 101.124-2.056z"/><path fill="#FAE09F" d="M25.856 20.609a1.172 1.172 0 00-1.59-.466c-.049.027-.08.071-.123.104a1.158 1.158 0 00-1.186-.055 1.16 1.16 0 00-.593 1.028c-.051.019-.105.021-.154.048a1.17 1.17 0 101.125 2.056c.049-.027.08-.071.123-.104.349.222.797.268 1.186.055s.592-.615.593-1.028c.051-.019.105-.021.154-.048.567-.31.776-1.022.465-1.59z"/><path fill="#B38658" d="M16 7.051c-2.209 0-4 2.015-4 4.5s1.791 3.5 4 3.5v-8z"/><path fill="#A7794C" d="M20 11.551c0-2.485-1.791-4.5-4-4.5v8c2.209 0 4-1.015 4-3.5z"/><path fill="#FDEBBB" d="M14.317 4.303C13.578 1.822 12.545-.079 12.01.058c-.535.137-.37 2.26.369 4.741l.024.074c-.519-.38-.975-.544-1.221-.381-.452.299-.033 1.561.934 2.818.708.92 2.481 1.757 2.57 1.734.535-.137.37-2.26-.369-4.741z"/><path fill="#FAE09F" d="M20.818 4.492c-.246-.163-.702.001-1.221.381l.024-.074c.739-2.481.904-4.604.369-4.741-.535-.137-1.568 1.763-2.307 4.245-.739 2.481-.904 4.604-.369 4.741.089.023 1.862-.814 2.57-1.734.967-1.257 1.386-2.519.934-2.818z"/><ellipse cx="14" cy="11.75" fill="#E59FA8" rx="1" ry="1.25"/><ellipse cx="14" cy="11.776" fill="#373F3F" rx=".5" ry=".724"/><ellipse cx="18" cy="11.75" fill="#E2959E" rx="1" ry="1.25"/><ellipse cx="18" cy="11.776" fill="#2B3332" rx=".5" ry=".724"/><path fill="#E59FA8" d="M16 13.052c-.276 0-.5-.026-.5.25s.5.75.5.75v-1z"/><path fill="#E2959E" d="M16.5 13.302c0-.276-.224-.25-.5-.25v1s.5-.474.5-.75z"/><path fill="#9E6E43" d="M17 24c0 2.209-.105 4 1 4s2-1.791 2-4-.895-4-2-4-1 1.791-1 4z"/><path fill="#F7D684" d="M20.729 25.058c-.378-.227-1.011.235-1.414 1.031-.202.399-.307.806-.315 1.142-.21.131-.488.269-.751.269-.499 0-1.134-.5-1.134-.5s-.866 5 1.134 5c1.43 0 1.363-2.548 1.209-4.006.377.023.883-.407 1.225-1.084.404-.796.424-1.625.046-1.852z"/><circle cx="14" cy="11.051" r=".25" fill="#FFF"/><circle cx="18" cy="11.051" r=".25" fill="#FFF"/></svg>