<svg xmlns="http://www.w3.org/2000/svg" width="100%" height="100%" viewBox="-2.72 -2.72 37.44 37.44"><path fill="#6E57A0" d="M15.791 20s5.461 3.438 10 0 1.955-8.419 2-11c.043-2.48.696-5.735 3.631-5.985a.248.248 0 00.201-.362c-.372-.698-1.372-2.234-3.117-2.582-.239-.048-.392.251-.22.424l.505.505S27.16.469 25.053 2.71a.252.252 0 00.101.412L27.791 4s-1.712 1.877-1 6 1.107 6.949-2 9-9-1-9-1v2z"/><path fill="#F0C13E" d="M22 25c-1 2.38-.895 4.105-.721 4.279l.514.514a.708.708 0 01-.5 1.207h-1.586a.708.708 0 01-.707-.707V21l3-1s1 2.62 0 5z"/><path fill="#F7C845" d="M10 25c1 2.38.895 4.105.721 4.279l-.514.514a.708.708 0 00.5 1.207h1.586c.39 0 .707-.317.707-.707V21l-3-1s-1 2.62 0 5z"/><path fill="#745DA6" d="M22.994 14.137s2.089 6.06-1.359 11.863L21 24l1.994-9.863z"/><path fill="#7A63AD" d="M9.006 14.137S6.917 20.197 10.365 26L11 24l-1.994-9.863z"/><path fill="#FFD04D" d="M20 26c-1 2.38-.895 4.105-.721 4.279l.514.514a.708.708 0 01-.5 1.207h-1.586a.708.708 0 01-.707-.707V22l3-1s1 2.62 0 5z"/><path fill="#81689A" d="M16 2c2.753 0 4 1 4 1S21.34.992 23.681.111c.156-.059.333.063.345.23C24.669 9.282 23.037 10.522 23 13c-.037 2.509-.014 2.61 0 5 .024 4.171-3 8-3 8l-1-3-2 3v-2.69c0-.87.114-1.736.338-2.577L18 18.25a.25.25 0 01.25-.25h.345a.25.25 0 00.224-.362l-.549-1.098a.25.25 0 01.303-.349l.318.106a.25.25 0 00.298-.359l-2.116-3.81a.255.255 0 00-.22-.128H16V2z"/><path fill="#FFD96C" d="M12 26c1 2.38.895 4.105.721 4.279l-.514.514a.708.708 0 00.5 1.207h1.586c.39 0 .707-.317.707-.707V22l-3-1s-1 2.62 0 5z"/><ellipse cx="16" cy="17.5" fill="#FFD04D" rx="6" ry="5.5"/><path fill="#F7C845" d="M22 17.5c0-3.645-2.134-5.5-6-5.5v11c3.866 0 6-1.855 6-5.5z"/><path fill="#866EBA" d="M23.674.113C21.338.996 20 3 20 3s-1.247-1-4-1-4 1-4 1S10.662.996 8.326.113c-.16-.06-.339.064-.352.234C7.332 9.282 8.963 10.523 9 13c.037 2.509.014 2.61 0 5-.024 4.171 3 8 3 8l.838-2.515a.25.25 0 01.445-.06L15 26v-2.689c0-.87-.114-1.736-.338-2.577L14 18.25a.25.25 0 00-.25-.25h-.346a.25.25 0 01-.224-.362l.549-1.098a.25.25 0 00-.303-.349l-.318.106a.25.25 0 01-.298-.359l2.116-3.81a.257.257 0 01.221-.128h1.706a.25.25 0 01.219.129l2.116 3.81a.25.25 0 01-.298.359l-.318-.106a.25.25 0 00-.303.349l.549 1.098a.249.249 0 01-.222.361h-.346a.25.25 0 00-.25.25l-.662 2.484c-.224.84-.338 1.707-.338 2.577V26l2-3 1 3s3.024-3.829 3-8c-.014-2.39-.037-2.491 0-5 .037-2.477 1.668-3.718 1.026-12.652-.012-.17-.192-.295-.352-.235z"/><path fill="#7A63AD" d="M16.853 12a.25.25 0 01.219.129l2.116 3.81a.25.25 0 01-.298.359l-.318-.106a.25.25 0 00-.303.349l.549 1.098a.249.249 0 01-.222.361h-.346a.25.25 0 00-.25.25l-.662 2.484c-.224.84-.338 1.707-.338 2.577V26l1.716-2.575a.25.25 0 01.445.06L20 26s3.024-3.829 3-8c-.014-2.39-.037-2.491 0-5 .037-2.477 1.668-3.718 1.026-12.652-.012-.17-.192-.295-.352-.234C21.338.996 20 3 20 3s-1.247-1-4-1v10h.853z"/><path fill="#DF75B8" d="M15 9s-.891-1.891-2-3c-.923-.923-2.774-3.081-3.704-3.778a.244.244 0 00-.388.142C8.721 3.185 8.363 5.25 9 7c.384 1.054.849 1.78 1.234 2.254a2.01 2.01 0 001.561.746H15V9z"/><path fill="#FFF" d="M15 9l-4.605-2.763a.25.25 0 00-.379.225C10.08 7.514 10.401 10 12 10h3V9z"/><path fill="#54B668" d="M13.906 8.344l-2.812-1.688A3.931 3.931 0 0011 7.5c0 1.381.672 2.5 1.5 2.5.65 0 1.198-.693 1.406-1.656z"/><path fill="#373F3F" d="M12.038 7.223A4.007 4.007 0 0012 7.75c0 .967.336 1.75.75 1.75.364 0 .667-.606.735-1.409l-1.447-.868z"/><path fill="#D672AB" d="M17 9s.891-1.891 2-3c.923-.923 2.774-3.081 3.704-3.778a.244.244 0 01.388.142c.187.821.545 2.886-.092 4.636-.384 1.054-.849 1.78-1.234 2.254a2.01 2.01 0 01-1.561.746H17V9z"/><path fill="#F7F7F7" d="M17 9l4.605-2.763a.25.25 0 01.379.225C21.92 7.514 21.599 10 20 10h-3V9z"/><path fill="#4EAC5D" d="M18.094 8.344l2.812-1.688c.058.265.094.546.094.844 0 1.381-.672 2.5-1.5 2.5-.65 0-1.198-.693-1.406-1.656z"/><path fill="#2B3332" d="M19.962 7.223c.022.167.038.342.038.527 0 .967-.336 1.75-.75 1.75-.364 0-.667-.606-.735-1.409l1.447-.868z"/><ellipse cx="16" cy="12.5" fill="#FFD96C" rx="2" ry="1.5"/><path fill="#DF75B8" d="M17 10l-.823.823a.25.25 0 01-.354 0L15 10l-1-2 1.106.553a1.997 1.997 0 001.789 0L18 8l-1 2z"/><path fill="#D672AB" d="M16 8.764v2.133a.249.249 0 00.177-.073L17 10l1-2-1.106.553a1.994 1.994 0 01-.894.211z"/><path fill="#FFD04D" d="M18 12.5c0-.828-.895-1.5-2-1.5v3c1.105 0 2-.672 2-1.5z"/><path fill="#F7C845" d="M23.5 19c-.827 0-1.5-.673-1.5-1.5 0-.799.63-1.448 1.418-1.492-.06-.379-.124-.708-.186-.981A2.492 2.492 0 0021 17.5a2.5 2.5 0 002.5 2.5c.017 0 .032-.005.049-.005.031-.345.052-.681.061-1.006-.037.003-.072.011-.11.011z"/><path fill="#FFD04D" d="M8.768 15.027c-.062.273-.126.602-.186.981A1.499 1.499 0 0110 17.5c0 .827-.673 1.5-1.5 1.5-.038 0-.073-.008-.11-.011.009.325.03.661.061 1.006.017 0 .032.005.049.005a2.5 2.5 0 002.5-2.5 2.492 2.492 0 00-2.232-2.473z"/><path fill="#FFE28A" d="M18.5 10H17l-.823.823a.25.25 0 01-.354 0L15 10h-1.5S11 8.935 11 11s5 1 5 1 5 1.065 5-1-2.5-1-2.5-1z"/><path fill="#FFD96C" d="M21 11c0-2.065-2.5-1-2.5-1H17l-.823.823a.249.249 0 01-.177.073V12s5 1.065 5-1z"/><path fill="#FFEAA7" d="M13 10.75c-4.314 0-6.114-2-6.188-2.085a.25.25 0 01.376-.331c.017.02 1.742 1.916 5.812 1.916a.25.25 0 010 .5zm0 1c-4.267 0-6.05-.991-6.124-1.033a.25.25 0 01-.093-.34.25.25 0 01.341-.094c.017.009 1.763.967 5.876.967a.25.25 0 010 .5z"/><path fill="#FFE28A" d="M19 10.75a.25.25 0 010-.5c4.07 0 5.795-1.896 5.812-1.915a.25.25 0 01.376.33c-.074.085-1.874 2.085-6.188 2.085zm0 1a.25.25 0 010-.5c4.113 0 5.859-.958 5.876-.967a.25.25 0 01.248.434c-.074.042-1.857 1.033-6.124 1.033z"/></svg>