<svg xmlns="http://www.w3.org/2000/svg" width="100%" height="100%" viewBox="-2.72 -2.72 37.44 37.44"><path fill="#FDEBBB" d="M13 9l2.284-4.568a.8.8 0 011.432 0L19 9h-6z"/><path fill="#FAE09F" d="M16.716 4.432A.793.793 0 0016 3.989V9h3l-2.284-4.568zM3.271 7.201l.456-3.449 3.394-.485a2.002 2.002 0 012.14 1.237l2.245 5.612-1.414 1.414-5.575-2.208a1.998 1.998 0 01-1.246-2.121z"/><path fill="#60CD96" d="M7.052 10.326L4.517 9.322a1.998 1.998 0 01-1.246-2.121l.456-3.449 3.394-.485a2.002 2.002 0 012.14 1.237l1.032 2.581-3.241 3.241z"/><path fill="#349363" d="M4.517 9.322a1.998 1.998 0 01-1.246-2.121l.456-3.449 3.394-.485a2.002 2.002 0 012.14 1.237L4.517 9.322z"/><path fill="#349363" d="M1.005 1.569l.48 3.442a1 1 0 00.99.862h1.958l1.414-1.414V2.495a1 1 0 00-.855-.989l-3.42-.5a.5.5 0 00-.567.563z"/><path fill="#B38658" d="M4.581 5.194a6.177 6.177 0 003.056 4.187l3.868 2.149-2.149-3.868a6.174 6.174 0 00-4.187-3.056.5.5 0 00-.588.588z"/><path fill="#F7D684" d="M28.729 7.201l-.456-3.449-3.394-.485a2.002 2.002 0 00-2.14 1.237l-2.245 5.612 1.414 1.414 5.574-2.208a1.997 1.997 0 001.247-2.121z"/><path fill="#53BF8C" d="M24.948 10.326l2.535-1.004A1.999 1.999 0 0028.729 7.2l-.456-3.449-3.394-.485a2.002 2.002 0 00-2.14 1.237l-1.032 2.581 3.241 3.242z"/><path fill="#338C5D" d="M27.483 9.322A1.999 1.999 0 0028.729 7.2l-.456-3.449-3.394-.485a2.002 2.002 0 00-2.14 1.237l4.744 4.819z"/><path fill="#338C5D" d="M30.995 1.569l-.48 3.442a1 1 0 01-.99.862h-1.958l-1.414-1.414V2.495a1 1 0 01.855-.989l3.42-.5a.5.5 0 01.567.563z"/><path fill="#A7794C" d="M27.419 5.194a6.177 6.177 0 01-3.056 4.187l-3.868 2.149 2.149-3.868a6.174 6.174 0 014.187-3.056.5.5 0 01.588.588z"/><path fill="#53BF8C" d="M31.49 18.046l.503-4.531a1 1 0 00-1.104-1.104l-4.531.503a1 1 0 00-.815.615l-2.709 6.626 1.414 1.414 6.626-2.709a.995.995 0 00.616-.814z"/><path fill="#338C5D" d="M30.875 18.861a.999.999 0 00.615-.815l.503-4.531a1 1 0 00-1.104-1.104l-4.531.503a1 1 0 00-.815.615l5.332 5.332z"/><path fill="#E8BA67" d="M25.754 18.622l-.607 4.35a1 1 0 01-.674.81L20.818 25l-1.414-1.414 1.219-3.658a.998.998 0 01.804-.673l4.327-.633z"/><path fill="#53BF8C" d="M21.427 19.254l4.327-.632-.608 4.349z"/><path fill="#F7D684" d="M11.495 16.143c-.105.157-2.606 6.948-.93 10.778.192.439.355.815.503 1.147a1.495 1.495 0 00.421 2.933c.608 0 1.13-.364 1.365-.884.626.082 1.546-.055 3.135-.152V16.143h-4.494z"/><path fill="#B38658" d="M12.853 30.116a1.499 1.499 0 01-2.865-.616c.755.285 2.018.468 2.873-.021 0 .367-.008.448-.008.637z"/><path fill="#FAE09F" d="M14.988 30.232V19.593l-4.005.876s1.373 6.912 1.572 9.345c-.514.206-.861.578-.861 1.007 0 .651.792 1.179 1.769 1.179.977 0 1.769-.528 1.769-1.179.001-.216-.092-.415-.244-.589z"/><path fill="#C09265" d="M14.988 30.232s-1.371.435-2.432-.418c-.514.206-.861.578-.861 1.007 0 .651.792 1.179 1.769 1.179.977 0 1.769-.528 1.769-1.179a.896.896 0 00-.245-.589z"/><path fill="#FAE09F" d="M10.294 20.58c.422-2.393 1.156-4.354 1.212-4.437H16v8.321c-1.59.097-6.077-1.778-5.706-3.884z"/><path fill="#F0C877" d="M20.909 28.067c.148-.332.31-.707.503-1.147 1.676-3.83-.825-10.621-.93-10.778h-4.493v13.821c1.59.098 2.509.234 3.135.152a1.497 1.497 0 101.785-2.048z"/><path fill="#A7794C" d="M19.123 30.116a1.5 1.5 0 002.865-.616c-.755.285-2.018.468-2.873-.021 0 .367.008.448.008.637z"/><path fill="#F7D684" d="M21.694 20.58c-.422-2.393-1.156-4.354-1.212-4.437h-4.493v8.321c1.589.097 6.076-1.778 5.705-3.884z"/><path fill="#F7D684" d="M19.42 29.814c.2-2.408 1.572-9.093 1.572-9.093l-4.005-1.128v10.639c-.151.174-.245.373-.245.589 0 .651.792 1.179 1.769 1.179.977 0 1.769-.528 1.769-1.179.001-.429-.346-.801-.86-1.007z"/><path fill="#FDEBBB" d="M15.312 7c-1.665 0-3.31.572-4.354 1.709a3.368 3.368 0 00-.824 1.639 8.508 8.508 0 00-.142 1.435c-.044 2.062.498 4.456 1.377 5.217.951.823 3.466 1.644 4.326 1.909a1 1 0 00.305.043V7h-.688z"/><path fill="#FDEBBB" d="M12.886 5.422c-.383-.616-1.304-.545-1.581.125C10.727 6.942 10 9.002 10 10.528c0 1.47 6.061 0 6.061 0l-3.175-5.106z"/><path fill="#FAE09F" d="M21.843 10.349a3.368 3.368 0 00-.824-1.639C19.976 7.571 18.33 7 16.665 7H16v11.952a.973.973 0 00.281-.043c.86-.265 3.377-1.086 4.328-1.909.879-.761 1.421-3.155 1.377-5.217a8.493 8.493 0 00-.143-1.434z"/><path fill="#FAE09F" d="M19.114 5.422c.383-.616 1.304-.545 1.581.125C21.273 6.942 22 9.002 22 10.528c0 1.47-6.061 0-6.061 0l3.175-5.106z"/><path fill="#C09265" d="M14.231 13.34a.495.495 0 01-.986-.069c0-.233.161-.42.375-.477-.014-.008-.022-.018-.036-.025-1.272-.69-1.585.167-1.585.167s-.109.847.353 1.408c.382.464 1.637.656 2.067.37-.001 0 .248-.723-.188-1.374z"/><path fill="#FFF" d="M13.245 13.271a.495.495 0 00.986.069 1.779 1.779 0 00-.611-.546.495.495 0 00-.375.477z"/><path fill="#B38658" d="M17.744 13.34a.495.495 0 00.986-.069.495.495 0 00-.375-.477c.014-.008.022-.018.036-.025 1.272-.69 1.585.167 1.585.167s.109.847-.353 1.408c-.382.464-1.637.656-2.067.37 0 0-.248-.723.188-1.374z"/><path fill="#F7F7F7" d="M18.73 13.271a.495.495 0 01-.986.069c.132-.196.328-.385.611-.546a.495.495 0 01.375.477z"/><path fill="#C09265" d="M15.138 16c-.122 0-.184.13-.097.206l.862.758A.146.146 0 0016 17v-1h-.862z"/><path fill="#B38658" d="M16.96 16.206c.086-.076.025-.206-.098-.206H16v1a.15.15 0 00.097-.035l.863-.759zm.028 14.026s1.371.435 2.432-.418c.514.206.861.578.861 1.007 0 .651-.792 1.179-1.769 1.179-.977 0-1.769-.528-1.769-1.179 0-.216.094-.415.245-.589z"/><path fill="#349363" d="M15.044 10.065A.254.254 0 0115 9.922C15.018 7.017 16 7.98 16 6c0-1.586-.518-1.988-1.5-2-.787-.009-1.281.648-1.442 1.428-.038.186-.233.185-.292-.007C12.212 3.631 13.291 2 16 2c2 0 3 1.966 3 3 0 1.976-1.952 2.976-1.999 4.928a.248.248 0 01-.041.132c-.146.215-.659.94-.96.94-.298 0-.805-.712-.956-.935z"/><path fill="#338C5D" d="M16.96 10.06a.256.256 0 00.041-.131c.003-.135.035-.256.055-.383.016-.101.018-.21.044-.306.033-.124.086-.237.131-.354.035-.09.06-.185.101-.271.053-.112.119-.218.18-.326.048-.085.09-.172.141-.255.117-.188.24-.373.364-.559l.029-.045c.114-.171.227-.341.333-.515.06-.098.109-.202.164-.303.05-.094.107-.184.151-.281.064-.139.107-.288.154-.436.021-.066.052-.126.068-.194.053-.222.084-.454.084-.701 0-1.034-1-3-3-3-.342 0-.657.027-.947.076-.1.017-.18.051-.274.073-.178.042-.362.08-.518.141-.097.037-.172.09-.261.134-.128.064-.264.122-.374.198-.081.056-.14.126-.211.188-.092.081-.193.157-.268.248-.06.072-.098.154-.148.231-.061.095-.13.187-.176.289-.037.084-.053.176-.08.265-.032.107-.071.211-.088.323-.014.094-.007.194-.01.291-.003.115-.014.227-.002.345.01.101.04.205.061.309.023.111.041.222.077.335.041.093.111.126.174.106-.104-1.894 1.021-2.563 2.006-2.563 1.995 0 2.539.925 2.539 2.512 0 .823-1.077 2.143-1.276 3.027C15.939 9.789 16 11 16 11c.301 0 .814-.725.96-.94z"/><path fill="#FDEBBB" d="M11 11l-2.595 1.297a.785.785 0 000 1.405L11 15v-4z"/><path fill="#FAE09F" d="M21 11l2.595 1.297a.785.785 0 010 1.405L21 15v-4z"/><path fill="#349363" d="M14.5 23a.5.5 0 01-.5-.5v-2a.5.5 0 011 0v2a.5.5 0 01-.5.5z"/><path fill="#338C5D" d="M19.5 23a.5.5 0 01-.5-.5v-2a.5.5 0 011 0v2a.5.5 0 01-.5.5z"/><path fill="#349363" d="M12.5 21a.5.5 0 01-.5-.5v-1a.5.5 0 011 0v1a.5.5 0 01-.5.5z"/><path fill="#338C5D" d="M17.5 21a.5.5 0 01-.5-.5v-1a.5.5 0 011 0v1a.5.5 0 01-.5.5z"/></svg>