<svg xmlns="http://www.w3.org/2000/svg" width="100%" height="100%" viewBox="-2.72 -2.72 37.44 37.44"><path fill="#8EAD1E" d="M30.311 22.042c-.687.379-1.397.697-2.113.969l-.774-.814a.5.5 0 00-.848.224l-.298 1.201c-4.713 1.251-9.177.701-9.177.701s-4.083 3.5 3.25 3.875c4.955.253 8.655-3.146 10.533-5.377.335-.399-.118-1.03-.573-.779z"/><path fill="#93C427" d="M7 32h6.714s.815-.495-.309-1.466C12.281 29.563 7 29.838 7 32z"/><path fill="#9ACC2E" d="M14.133 22.438s-3.981-1.849-5.44 2.054-.315 4.683.67 5.751 4.601 1.18 5.395-.807c.795-1.987-.625-6.998-.625-6.998z"/><path fill="#8FB720" d="M25 32h-6.714s-.815-.495.309-1.466C19.719 29.563 25 29.838 25 32z"/><path fill="#93C427" d="M17.867 22.438s3.981-1.849 5.44 2.054.315 4.683-.67 5.751-4.601 1.18-5.395-.807c-.795-1.987.625-6.998.625-6.998zm-6.367-6.42l-4.247-.725-1.647-.275a1.379 1.379 0 00-.991 2.508l1.285.858 3.701 2.468 1.899-4.834z"/><path fill="#8FB720" d="M20.5 16.018l4.247-.725 1.647-.275a1.379 1.379 0 01.991 2.508l-1.285.858-3.701 2.468-1.899-4.834z"/><path fill="#9ACC2E" d="M10.5 23.436C10.5 19.207 12.962 15 16 15v-4c-3.866 0-7 5.408-7 10.846 0 5.17 2.834 6.972 6.435 7.137-2.772-.162-4.935-1.583-4.935-5.547z"/><path fill="#93C427" d="M21.5 23.436c0 3.964-2.163 5.385-4.935 5.548C20.166 28.818 23 27.016 23 21.847 23 16.408 19.866 11 16 11v4c3.038 0 5.5 4.207 5.5 8.436z"/><path fill="#D49A87" d="M16 29c.191 0 .379-.005.565-.016-.187.008-.374.016-.565.016z"/><path fill="#FAE09F" d="M10.523 24.087c.228 3.469 2.298 4.743 4.912 4.897.187.008.374.016.565.016v-3c-2.135 0-4.067-.731-5.477-1.913z"/><path fill="#F7D684" d="M16 29c.191 0 .378-.008.565-.016 2.614-.154 4.684-1.428 4.912-4.897C20.067 25.269 18.134 26 16 26v3z"/><path fill="#FDEBBB" d="M16 22c-1.943 0-3.716-.608-5.082-1.607a11.52 11.52 0 00-.418 3.043c0 .226.009.441.023.651C11.933 25.269 13.865 26 16 26v-4z"/><path fill="#FAE09F" d="M21.082 20.393C19.716 21.392 17.943 22 16 22v4c2.134 0 4.067-.731 5.477-1.913.014-.21.023-.425.023-.651 0-1.037-.15-2.071-.418-3.043z"/><path fill="#FFF3D9" d="M10.918 20.393C12.284 21.392 14.057 22 16 22v-7c-2.293 0-4.257 2.398-5.082 5.393z"/><path fill="#FDEBBB" d="M16 15v7c1.943 0 3.716-.608 5.082-1.607C20.257 17.398 18.293 15 16 15z"/><path fill="#DADDDC" d="M15.844 1.178l-3.273 1.071L9.812.081a.482.482 0 00-.565.022.48.48 0 00-.213.393l.108 3.787a.5.5 0 01-.15.357l-.842.829a.498.498 0 00-.15.357v1.807a.5.5 0 00.171.377l.943.823a.499.499 0 01.171.377v2.828c0 .191.108.365.28.449l1.88.923.202.18 2.02 3.174c.05.079.122.142.207.183l1.911.911a.508.508 0 00.215.049V1.153a.49.49 0 00-.156.025z"/><path fill="#D1D4D4" d="M23.85 5.469l-.843-.828a.5.5 0 01-.15-.357l.177-3.787a.457.457 0 00-.121-.309.563.563 0 00-.092-.084.484.484 0 00-.565-.023L19.428 2.25l-3.273-1.071A.459.459 0 0016 1.153v16.752a.49.49 0 00.215-.049l1.911-.912a.493.493 0 00.206-.183l2.021-3.173.201-.18 1.88-.923a.5.5 0 00.28-.449V9.209a.5.5 0 01.171-.377l.943-.823A.496.496 0 0024 7.633V5.826a.498.498 0 00-.15-.357z"/><path fill="#FFF" d="M13.751 10.495l.515.146L14 9l-.003-.003c.001.023.003.043.003.066 0 .57-.097 1.078-.249 1.432zm-1.043-2.767L12 7.031v2.591a.5.5 0 00.364.481l.275.078a4.291 4.291 0 01-.139-1.118c0-.519.08-.987.208-1.335z"/><path fill="#373F3F" d="M14 9.063c0-.022-.002-.043-.003-.065l-1.289-1.269c-.128.347-.208.815-.208 1.334 0 .418.052.802.139 1.118l1.112.314c.152-.354.249-.862.249-1.432zm1.003 5.939l-.906-.799a.278.278 0 01-.032-.382l.613-.754.325 1.935z"/><path fill="#F7F7F7" d="M18.249 10.495l-.515.146L18 9l.003-.003c-.001.023-.003.043-.003.066 0 .57.097 1.078.249 1.432zm1.043-2.767L20 7.031v2.591a.5.5 0 01-.364.481l-.275.078c.087-.317.139-.701.139-1.118 0-.519-.08-.987-.208-1.335z"/><path fill="#2B3332" d="M18 9.063c0-.022.002-.043.003-.065l1.289-1.269c.128.347.208.815.208 1.334 0 .418-.052.802-.139 1.118l-1.112.314c-.152-.354-.249-.862-.249-1.432zm-.997 5.939l.906-.799a.278.278 0 00.032-.382l-.613-.754-.325 1.935z"/><path fill="#EDEEEE" d="M4.521 8.557l-.334-.182a1.001 1.001 0 00-1.217.202l-.707.774a.998.998 0 00-.263.675v.851c0 .256.098.501.273.687l.953 1.008a1 1 0 01.274.687v5.481c0 .256-.098.501-.273.687l-.953 1.008a1 1 0 00-.274.688v.851c0 .25.094.491.263.675l.708.773a1 1 0 001.217.202l.333-.182c.149-.081.314-.122.479-.122V8.679a.992.992 0 01-.479-.122z"/><path fill="#E3E5E5" d="M5.812 23.625c.404.22.906.137 1.217-.202l.708-.773c.169-.185.263-.426.263-.676v-.851c0-.255-.098-.501-.273-.687l-.953-1.008a1 1 0 01-.274-.688v-5.481c0-.255.098-.501.273-.687l.953-1.008A.996.996 0 008 10.877v-.851a.998.998 0 00-.263-.675l-.708-.773a1 1 0 00-1.217-.203l-.333.182A.992.992 0 015 8.679V23.32c.165 0 .33.041.479.122l.333.183zm9.877-22.396l-3.117 1.02L9.812.081a.482.482 0 00-.565.022L12 7.031 14 9l1 6-1.256 1.883 2.041.974a.508.508 0 00.215.049V1.153c-.105 0-.21.043-.311.076z"/><path fill="#DADDDC" d="M18.256 16.883L17 15l1-6 2-1.969L22.822.103a.484.484 0 00-.565-.023l-2.828 2.169-3.117-1.02c-.102-.033-.207-.08-.312-.08v16.756a.49.49 0 00.215-.049l2.041-.973z"/></svg>