<svg xmlns="http://www.w3.org/2000/svg" width="100%" height="100%" viewBox="-2.72 -2.72 37.44 37.44"><path fill="#56C7CD" d="M16.186 4.434c-.091-1.114.169-2.444 1.138-3.333.952-.889 2.294-1.165 3.484-1.074 2.429.218 4.505 1.575 6.057 3.241 1.568 1.681 2.684 3.73 3.314 5.89.643 2.158.851 4.408.718 6.607h-.794c-.154-2.128-.517-4.221-1.206-6.187-.732-1.941-1.715-3.798-3.142-5.261-1.405-1.439-3.175-2.627-5.089-2.899-.939-.146-1.915-.024-2.619.525-.738.516-1.108 1.477-1.233 2.494l-.628-.003z"/><path fill="#7CD8D5" d="M16.28 4.436c-.066-.54.155-1.141.544-1.547.381-.421.876-.671 1.369-.823.995-.305 2.027-.264 2.984-.04 1.935.45 3.591 1.663 4.789 3.154 1.221 1.487 2.007 3.268 2.421 5.084.44 1.815.55 3.677.433 5.5h-.64c-.117-1.78-.389-3.535-.888-5.203a13.76 13.76 0 00-.969-2.396 10.128 10.128 0 00-1.393-2.124C23.841 4.76 22.412 3.79 20.844 3.33c-.78-.221-1.609-.309-2.364-.169-.756.136-1.418.531-1.509 1.275h-.691z"/><circle cx="30.5" cy="16.5" r="1.5" fill="#56C7CD"/><path fill="#66D3D3" d="M11.777 18.196c-3 2-9.22 6.369-11.22 8.369-1.581 1.581.22 6 5.22 2s6-8.369 6-8.369v-2z"/><path fill="#56C7CD" d="M20.223 18c3 2 9.22 6.369 11.22 8.369 1.581 1.581-.22 6-5.22 2s-6-8.369-6-8.369v-2z"/><path fill="#56C7CD" d="M22 25c0-4-3.239-7-6-7s-6 3-6 7-2.118 7 0 7c2.961 0 4-1 6-1s2.987 1 6 1c2.118 0 0-3 0-7z"/><path fill="#66D3D3" d="M16 18c-2.761 0-6 3-6 7s-2.118 7 0 7c2.961 0 4-1 6-1V18z"/><path fill="#7CD8D5" d="M26 14c0 5.263-4.477 8-10 8S6 19.263 6 14 10.477 3 16 3s10 5.737 10 11z"/><path fill="#8EDDD9" d="M16 22c-5.523 0-10-2.737-10-8S10.477 3 16 3v19z"/><ellipse cx="20.5" cy="14" fill="#2B3332" rx="2.5" ry="3"/><path fill="#FFE28A" d="M24.323 8.241A1.492 1.492 0 0023.512 8a1.5 1.5 0 00-1.5 1.5c0 .362.134.69.347.949l-.588.98A2.184 2.184 0 0020.5 11c-.102 0-.199.022-.298.036l-.663-1.458c.283-.273.461-.654.461-1.078a1.5 1.5 0 10-1.5 1.5c.043 0 .084-.009.127-.013l.643 1.416C18.515 11.919 18 12.883 18 14c0 1.657 1.119 3 2.5 3s2.5-1.343 2.5-3a3.37 3.37 0 00-.519-1.811l.732-1.219a1.496 1.496 0 001.792-1.404 12.462 12.462 0 00-.682-1.325zM20.5 16c-.813 0-1.5-.916-1.5-2s.687-2 1.5-2 1.5.916 1.5 2-.687 2-1.5 2z"/><circle cx="20.5" cy="13.5" r=".5" fill="#FFF"/><ellipse cx="11.5" cy="14" fill="#373F3F" rx="2.5" ry="3"/><path fill="#FFEAA7" d="M13.5 10A1.5 1.5 0 1012 8.5c0 .424.178.805.461 1.078l-.663 1.458c-.099-.014-.196-.036-.298-.036-.463 0-.891.161-1.262.424l-.585-.975A1.49 1.49 0 0010 9.5 1.5 1.5 0 008.5 8c-.3 0-.577.09-.811.241-.257.427-.48.873-.682 1.325a1.496 1.496 0 001.792 1.404l.726 1.21A3.37 3.37 0 009 14c0 1.657 1.119 3 2.5 3s2.5-1.343 2.5-3c0-1.117-.515-2.081-1.27-2.597l.643-1.416c.043.004.084.013.127.013zm-2 6c-.813 0-1.5-.916-1.5-2s.687-2 1.5-2 1.5.916 1.5 2-.687 2-1.5 2z"/><circle cx="11.5" cy="13.5" r=".5" fill="#FFF"/><ellipse cx="16" cy="25" fill="#D1473D" rx="1" ry="2"/><path fill="#D64F45" d="M16 27c-.552 0-1-.895-1-2s.448-2 1-2v4z"/><path fill="#7CD8D5" d="M6.569 17c1.373 3.299 5.077 5 9.431 5v-2c-3.358 0-7-1-9.431-3z"/><path fill="#66D3D3" d="M16 20v2c4.354 0 8.058-1.701 9.431-5C23 19 19.358 20 16 20z"/><circle cx="16" cy="28.997" r="1" fill="#FFE28A"/><path fill="#FFEAA7" d="M16 29.997a1 1 0 010-2v2z"/><circle cx="28.5" cy="16.5" r="1.5" fill="#7CD8D5"/><path fill="#FF7898" d="M14.282 17h3.436a.25.25 0 01.245.302C17.86 17.803 17.47 19 15.994 19c-1.468 0-1.856-1.198-1.958-1.698a.251.251 0 01.246-.302z"/><path fill="#FF87A4" d="M15.994 19c-1.468 0-1.856-1.198-1.958-1.698a.251.251 0 01.246-.302H16l-.006 2z"/></svg>