<svg xmlns="http://www.w3.org/2000/svg" width="100%" height="100%" viewBox="-2.72 -2.72 37.44 37.44"><path fill="#3A4274" d="M21 17l-5 .002v4h1L22 19z"/><path fill="#48A353" d="M17 21.002l1.703 2.555a1 1 0 00.832.445H20v2.055c0 .621.145 1.234.423 1.79L21 29l-.894 1.789a.993.993 0 00-.106.447v.264a.5.5 0 00.5.5h6a.5.5 0 00.5-.5v.035a1 1 0 00-.445-.832L24 29l.723-3.615A2.642 2.642 0 0024.001 23H24v-.394c0-.395-.117-.781-.336-1.109L22 19l-5 2.002zM22 12v1.586c0 .265-.105.52-.293.707L21 15h-5v-3h6z"/><path fill="#2B3332" d="M16 15.001h5v2h-5z"/><path fill="#FFCF6E" d="M16 14a2 2 0 110 4v-4z"/><path fill="#424B7E" d="M11 17l5 .002v4h-1L10 19z"/><path fill="#4EAC5D" d="M15 21.002l-1.703 2.555a1 1 0 01-.832.445H12v2.055c0 .621-.145 1.234-.423 1.79L11 29l.894 1.789c.07.139.106.292.106.447v.264a.5.5 0 01-.5.5h-6a.5.5 0 01-.5-.5v.035a1 1 0 01.445-.832L8 29l-.723-3.615A2.642 2.642 0 017.999 23H8v-.394c0-.395.117-.781.336-1.109L10 19l5 2.002zM10 12v1.586c0 .265.105.52.293.707L11 15h5v-3h-6z"/><path fill="#373F3F" d="M11 15.001h5v2h-5z"/><path fill="#FFD98D" d="M16 14a2 2 0 100 4v-4z"/><path fill="#54B668" d="M10.414 5a.997.997 0 00-.707.293L9 6l-.914-.305a.999.999 0 00-1.023.242L5.328 7.672a.999.999 0 00-.242 1.023.999.999 0 00-1.023.242l-1.477 1.477A2 2 0 002 11.828v1.869c0 .792.467 1.509 1.192 1.829L6.526 17l.025.937a2 2 0 00.925 1.634l.88.561a1 1 0 001.337-.243l1.924-2.565a1 1 0 00-.093-1.307l-.801-.801a2 2 0 00-1.414-.586H8.137L7 12h3v.586c0 .265.105.52.293.707l.414.414a1 1 0 00.707.293h3.172c.265 0 .52-.105.707-.293l.414-.414a1 1 0 00.293-.707V5h-5.586z"/><path fill="#4EAC5D" d="M21.586 5c.265 0 .52.105.707.293L23 6l.914-.305a.999.999 0 011.023.242l1.735 1.735c.268.268.361.664.242 1.023a.999.999 0 011.023.242l1.477 1.477A2 2 0 0130 11.828v1.869c0 .792-.467 1.509-1.192 1.829L25.474 17l-.025.937a2 2 0 01-.925 1.634l-.88.561a1 1 0 01-1.337-.243l-1.924-2.565a1 1 0 01.093-1.307l.801-.801a2 2 0 011.414-.586h1.172L25 12h-3v.586c0 .265-.105.52-.293.707l-.414.414a1 1 0 01-.707.293h-3.172a.997.997 0 01-.707-.293l-.414-.414a1 1 0 01-.293-.707V5h5.586z"/><path fill="#60C46F" d="M16 1.251c.378-.002.757.051 1.114.194l1.644.658a3 3 0 011.845 3.279l-.352 2.111a2.999 2.999 0 01-1.618 2.19l-1.292.646A2.943 2.943 0 0116 10.62V1.251z"/><path fill="#6CD275" d="M16 1.251a2.938 2.938 0 00-1.114.194l-1.644.658a3 3 0 00-1.845 3.279l.352 2.111a2.999 2.999 0 001.618 2.19l1.292.646c.422.211.881.293 1.341.291V1.251z"/><path fill="#F7F7F7" d="M14.41 3.277L14.058.464A.53.53 0 0013.532 0h-.002a.53.53 0 00-.53.53v.934a2.5 2.5 0 00.732 1.768l.253.253a.25.25 0 00.425-.208z"/><path fill="#EDEEEE" d="M17.59 3.277l.352-2.813A.53.53 0 0118.468 0h.002a.53.53 0 01.53.53v.934a2.5 2.5 0 01-.732 1.768l-.253.253a.25.25 0 01-.425-.208z"/><g fill="#373F3F"><path d="M14.978 6.717c-.187-.36-.601-.969-1.356-1.254a.19.19 0 00-.18.024c-.102.075-.265.243-.379.599-.118.366-.045.647.019.796.03.072.101.118.18.118h1.541a.195.195 0 00.175-.283z"/><path d="M14.978 6.717c-.174-.334-.545-.878-1.199-1.183-.1.09-.228.252-.325.552-.118.366-.045.647.019.796a.196.196 0 00.181.118h1.149a.195.195 0 00.175-.283z"/><path d="M14.527 6.881c.061-.144.128-.414.026-.763a2.485 2.485 0 00-.509-.437 1.39 1.39 0 00-.197.404c-.118.366-.045.647.019.796.03.073.101.119.18.119h.3c.079 0 .15-.046.181-.119z"/></g><path fill="#EDEEEE" d="M14.978 6.717c-.187-.36-.601-.969-1.356-1.254a.19.19 0 00-.18.024c-.102.075-.265.243-.379.599-.118.366-.045.647.019.796.03.072.101.118.18.118h1.541a.195.195 0 00.175-.283z"/><path fill="#E85160" d="M14.978 6.717c-.174-.334-.545-.878-1.199-1.183-.1.09-.228.252-.325.552-.118.366-.045.647.019.796a.196.196 0 00.181.118h1.149a.195.195 0 00.175-.283z"/><path fill="#373F3F" d="M14.527 6.881c.061-.144.128-.414.026-.763a2.485 2.485 0 00-.509-.437 1.39 1.39 0 00-.197.404c-.118.366-.045.647.019.796.03.073.101.119.18.119h.3c.079 0 .15-.046.181-.119z"/><g fill="#2B3332"><path d="M17.022 6.717c.187-.36.601-.969 1.356-1.254a.19.19 0 01.18.024c.102.075.265.243.379.599.118.366.045.647-.019.796a.194.194 0 01-.18.118h-1.541a.195.195 0 01-.175-.283z"/><path d="M18.527 6.881c.063-.149.136-.43.019-.796-.096-.3-.225-.462-.325-.552-.654.305-1.025.85-1.199 1.183-.067.13.03.284.175.284h1.149c.079 0 .15-.046.181-.119z"/><path d="M18.135 6.881c.063-.149.136-.43.019-.796a1.444 1.444 0 00-.197-.404c-.205.13-.368.283-.509.437-.102.349-.036.619.026.763.03.073.101.119.18.119h.3c.079 0 .15-.046.181-.119z"/></g><path fill="#F7F7F7" d="M17.022 6.717c.187-.36.601-.969 1.356-1.254a.19.19 0 01.18.024c.102.075.265.243.379.599.118.366.045.647-.019.796a.194.194 0 01-.18.118h-1.541a.195.195 0 01-.175-.283z"/><path fill="#D84459" d="M18.527 6.881c.063-.149.136-.43.019-.796-.096-.3-.225-.462-.325-.552-.654.305-1.025.85-1.199 1.183-.067.13.03.284.175.284h1.149c.079 0 .15-.046.181-.119z"/><path fill="#2B3332" d="M18.135 6.881c.063-.149.136-.43.019-.796a1.444 1.444 0 00-.197-.404c-.205.13-.368.283-.509.437-.102.349-.036.619.026.763.03.073.101.119.18.119h.3c.079 0 .15-.046.181-.119z"/><path fill="#60C46F" d="M11.957 8.191c.277.64.771 1.173 1.409 1.492l1.292.646A2.95 2.95 0 0016 10.62V8.723c-.92 0-1.839-.091-2.746-.272l-1.297-.26z"/><path fill="#54B668" d="M18.746 8.451c-.907.181-1.826.272-2.746.272v1.897c.46.002.919-.08 1.342-.291l1.292-.646a2.994 2.994 0 001.409-1.492l-1.297.26z"/><path fill="#F6B392" d="M13.254 8.451l-.008-.002S14.867 9.5 16 9.5v-.777c-.92 0-1.839-.091-2.746-.272z"/><path fill="#F4A984" d="M18.754 8.449l-.008.002c-.907.181-1.826.272-2.746.272V9.5c1.133 0 2.754-1.051 2.754-1.051z"/><path fill="#237899" d="M24.5 15.8a.3.3 0 01-.25-.466l2-3a.3.3 0 01.5.332l-2 3a.301.301 0 01-.25.134zm.5.5a.3.3 0 01-.166-.55l3-2a.3.3 0 11.332.5l-3 2a.296.296 0 01-.166.05z"/><path fill="#2B7E9F" d="M7.5 15.75a.25.25 0 01-.208-.111l-2-3a.25.25 0 01.416-.278l2 3a.25.25 0 01-.208.389zm-.5.5a.254.254 0 01-.139-.042l-3-2a.25.25 0 11.278-.416l3 2A.25.25 0 017 16.25z"/><path fill="#F7F7F7" d="M16 .006c-.033 0-.065-.004-.098-.001-.52.049-.902.516-.902 1.038v.367c0 .388.09.771.264 1.118l.512 1.025a.247.247 0 00.224.138V.006z"/><path fill="#EDEEEE" d="M16 .006v3.685a.247.247 0 00.224-.138l.512-1.025c.174-.347.264-.73.264-1.118V1a.996.996 0 00-1-.994z"/></svg>