<svg xmlns="http://www.w3.org/2000/svg" width="100%" height="100%" viewBox="-2.72 -2.72 37.44 37.44"><path fill="#c1fdbd" d="M11.646 2.434L9.923 5.018h1.723l3.662 4.75v-8.39a7.233 7.233 0 00-3.662 1.056z"/><path fill="#a9faa2" d="M19.652 21.742A16.823 16.823 0 0020.784 32a5.148 5.148 0 012.828-.415c1.52-.011 2.56-.54 2.942-1.772-1.241-.575-2-1.986-2.15-4.45-.38-2.586 3.064-3.677-2.3-10.258-.316-2.501 2.23-9.705-2.64-12.67a9.013 9.013 0 00-4.156-1.057v8.39l2.487 3.225c-2.5 3.867 2.205 8.072 1.857 8.75z"/><path fill="#838c8a" d="M10.616 5.756v5.322c.192 2.066 0 3.61-1.16 3.61-1.304 0-1.533-.867-1.57-1.6 0-1.275 1.87-.923 1.365.501.553.19.955-.03.581-2.354-1.939-.084-3.119-3.542-.91-5.062q-3.023-2.085-2.73-5.137a6.176 6.176 0 013.423 3.578c-.335-1.94.003-3.576 1.66-4.614a6.868 6.868 0 01-.659 5.756z"/><path fill="#edeeee" d="M11.26 31.72c1.02-3.555 2.026-6.41 2.993-7.5l-1.704-1.985a22.655 22.655 0 00-1.29 9.485z"/><path fill="#e3e5e5" d="M18.449 28.256a11.106 11.106 0 01.8 3.744 8.402 8.402 0 00.452-3.254z"/><path fill="#757f7e" d="M14.791 12.884l-.26 1.804L9.275 18.5c-2.817.092-4.289 1.245-3.7 2.59.942 1.351 2.782.268 4.04-1.783l3.898-3.06-.4 2.484c0 .401 1.104.598 2.195.592v-6.371z"/><path fill="#687271" d="M17.418 18.732l-.29-2.445a4.911 4.911 0 01-.064-.981l-1.005-.618v-1.636l-.751-.1v6.372c1.062-.005 2.11-.202 2.11-.592z"/><path fill="#757f7e" d="M12.663 21.528l-.114.707 1.704 1.985 1.055 1.014v-3.218c-1.323 0-2.645-.163-2.645-.488z"/><path fill="#687271" d="M19.7 28.746l3.264-.995-5.011-6.223c0 .325-1.323.488-2.645.488v3.218l3.14 3.022z"/><path fill="#a9faa2" d="M13.113 18.732l-.45 2.796c0 .325 1.322.488 2.645.488v-2.692c-1.09.006-2.195-.191-2.195-.592z"/><path fill="#8ff888" d="M17.953 21.528l-.535-2.796c0 .39-1.048.587-2.11.592v2.692c1.322 0 2.645-.163 2.645-.488z"/><path fill="#f7f7f7" d="M15.295 6.33a10.821 10.821 0 01-4.679-.93 5.21 5.21 0 00-1.001 3.03 5.567 5.567 0 005.68 5.446l.013-.001V6.329z"/><path fill="#edeeee" d="M20.976 8.431A5.21 5.21 0 0019.975 5.4a10.81 10.81 0 01-4.667.929v7.547a5.565 5.565 0 005.668-5.445z"/><path fill="#909997" d="M15.295 6.039a11.096 11.096 0 01-4.534-.857c-.054.07-.095.147-.145.218a10.821 10.821 0 004.68.93l.012-.001v-.29z"/><path fill="#838c8a" d="M19.83 5.182a11.087 11.087 0 01-4.522.856v.29a10.81 10.81 0 004.667-.928c-.05-.071-.091-.149-.145-.218z"/><path fill="#f7f7f7" d="M15.295 2.986a5.736 5.736 0 00-4.534 2.196 11.096 11.096 0 004.534.857h.013V2.985z"/><path fill="#edeeee" d="M15.308 2.986v3.052a11.087 11.087 0 004.522-.856 5.736 5.736 0 00-4.522-2.196z"/><ellipse cx="12.549" cy="8.661" fill="#79c6c1" rx="1.117" ry="1.489"/><path fill="#67bfb5" d="M18.132 7.172c-.617 0-1.116.667-1.116 1.489 0 .822.5 1.489 1.116 1.489s1.117-.667 1.117-1.489c0-.822-.5-1.489-1.117-1.489z"/><path fill="#8fcec9" d="M15.295 5.018c-.422 0-.764.517-.764 1.156 0 .638.342 1.155.764 1.155l.013-.004V5.021z"/><path fill="#79c6c1" d="M16.06 6.174c0-.632-.336-1.142-.752-1.153v2.304c.416-.01.751-.52.751-1.151z"/><ellipse cx="12.269" cy="8.225" fill="#fff" rx=".345" ry=".436"/><ellipse cx="18.449" cy="8.225" fill="#fff" rx=".316" ry=".436"/><path fill="#8fcec9" d="M19.087 13.315c-.428 0-.775.463-.775 1.034 0 .572.347 1.035.775 1.035s.776-.463.776-1.035c0-.57-.347-1.034-.776-1.034zm2.353 2.339c-.428 0-.776.463-.776 1.034 0 .572.348 1.035.776 1.035s.776-.463.776-1.035c0-.57-.348-1.034-.776-1.034zm-.776 3.67c-.428 0-.775.463-.775 1.035 0 .57.347 1.034.775 1.034s.776-.463.776-1.034c0-.572-.347-1.035-.776-1.035zm2.853 1.17c-.428 0-.775.463-.775 1.034 0 .572.347 1.035.775 1.035s.776-.463.776-1.035c0-.57-.347-1.034-.776-1.034zm-1.301 3.37c-.429 0-.776.463-.776 1.035 0 .57.347 1.034.776 1.034s.775-.463.775-1.034c0-.572-.347-1.035-.775-1.035z"/></svg>