<svg xmlns="http://www.w3.org/2000/svg" width="100%" height="100%" viewBox="-2.72 -2.72 37.44 37.44"><path fill="#E3E5E5" d="M12.043 21.424a13.952 13.952 0 01-3.882-1.823A8.002 8.002 0 0016 26v-1c-2.064 0-3.743-1.569-3.957-3.576z"/><path fill="#FF6B8B" d="M12.043 21.424C12.257 23.431 13.936 25 16 25v-3c-1.376 0-2.701-.207-3.957-.576z"/><path fill="#DADDDC" d="M16 25v1a8.002 8.002 0 007.839-6.4 13.952 13.952 0 01-3.882 1.823C19.743 23.431 18.064 25 16 25z"/><path fill="#FF5F7E" d="M16 25c2.064 0 3.743-1.569 3.957-3.576A14.006 14.006 0 0116 22v3z"/><path fill="#EDEEEE" d="M12 21a4 4 0 014-4v-7a8 8 0 00-7.839 9.6 13.952 13.952 0 003.882 1.823C12.028 21.282 12 21.145 12 21z"/><path fill="#FF7899" d="M12 21c0 .145.028.282.043.424 1.256.369 2.581.576 3.957.576v-5a4 4 0 00-4 4z"/><path fill="#E3E5E5" d="M16 10v7a4 4 0 014 4c0 .145-.028.282-.043.424a13.952 13.952 0 003.882-1.823A8 8 0 0016 10z"/><path fill="#FF6B8B" d="M19.957 21.424c.015-.142.043-.279.043-.424a4 4 0 00-4-4v5c1.376 0 2.701-.207 3.957-.576z"/><path fill="#FAC7AF" d="M23.134 14.502l1.73-1.003 2.5 4.312-1.73 1.003z"/><path fill="#FCD2BE" d="M10.012 29.8L7.1 25.917a.5.5 0 01-.016-.577l1.919-2.878a.5.5 0 01.693-.139l.832.555a.5.5 0 01.139.693l-1.134 1.701a.5.5 0 00.016.577l2.063 2.751a.5.5 0 01-.1.7l-.8.6a.5.5 0 01-.7-.1zM4.635 17.81l2.5-4.313 1.73 1.003-2.5 4.313z"/><circle cx="8" cy="14" r="2.5" fill="#FF7899"/><path fill="#FCD2BE" d="M20 11.531A2.53 2.53 0 0122.531 9l.021.002c-.027-.042-.052-.092-.08-.129-.435-.581-.804-1.213-.896-1.914C20.879 1.639 16 2.005 16 2.005V15c2.535 0 4.151-.595 5.184-1.334A2.52 2.52 0 0120 11.531z"/><path fill="#F8A1C4" d="M23 10.856c0-.896-.203-1.471-.449-1.854L22.531 9A2.53 2.53 0 0020 11.531a2.52 2.52 0 001.184 2.135c1.694-1.211 1.816-2.81 1.816-2.81z"/><path fill="#FCDDCF" d="M12 11.531A2.53 2.53 0 009.469 9l-.02.002c.026-.042.051-.092.079-.129.435-.581.804-1.213.896-1.914C11.121 1.639 16 2.005 16 2.005V15c-2.535 0-4.151-.595-5.184-1.334A2.52 2.52 0 0012 11.531z"/><path fill="#F9ADC8" d="M9 10.856c0-.896.203-1.471.449-1.854L9.469 9A2.53 2.53 0 0112 11.531a2.52 2.52 0 01-1.184 2.135C9.122 12.455 9 10.856 9 10.856z"/><circle cx="18.5" cy="8.5" r="1.5" fill="#F7F7F7"/><circle cx="18.5" cy="8.5" r=".5" fill="#2B3332"/><circle cx="13.5" cy="8.5" r="1.5" fill="#FFF"/><circle cx="13.5" cy="8.5" r=".5" fill="#373F3F"/><path fill="#6673AA" d="M19.026 2.932l4.829-2.68a2.095 2.095 0 011.5-.191l3.318 1.195c.456.111.428.665-.038.744l-2.354.165 1.662 1.534c.317.268.03.722-.41.647l-3.066-.647.883 1.796c.118.3-.219.585-.574.485l-3.03-.747-.384.735s-2.648-.423-2.336-3.036z"/><path fill="#707EB7" d="M12.974 2.932L8.145.252a2.095 2.095 0 00-1.5-.191L3.327 1.256c-.456.111-.428.665.038.744l2.354.165-1.663 1.534c-.317.268-.03.722.41.647l3.066-.647-.883 1.796c-.118.299.22.585.574.485l3.03-.747.384.735c.001 0 2.649-.423 2.337-3.036z"/><circle cx="9.5" cy="23" r="2" fill="#FF6B8B"/><path fill="#6673AA" d="M9.938 28.614c.938 0 2.062-1.422 2.062.95C12 32 11.969 32 11.412 32H5.438S2 32.062 2 29.949c0-1.647.623-2.534 1.684-2.889.428-.143.804.288.622.713-.323.752.143 1.262.694 1.262.75 0 2.031-.337 2.938-.721.906-.385 1.062.3 2 .3z"/><circle cx="24" cy="14" r="2.5" fill="#FF6B8B"/><path fill="#373F3F" d="M13.182 11.828c-.095-.098-.253-.104-.353-.009s-.105.252-.011.352c.042.044 1.037 1.079 3.183 1.079v-.5c-1.917 0-2.811-.913-2.819-.922z"/><path fill="#2B3332" d="M19.171 11.819a.251.251 0 00-.353.009c-.008.009-.902.922-2.818.922v.5c2.146 0 3.141-1.035 3.183-1.079a.25.25 0 00-.012-.352z"/><path fill="#F7F7F7" d="M7.89 19.058a1.5 1.5 0 00-1.948-1.948C5.77 16.472 5.193 16 4.5 16s-1.27.472-1.442 1.11a1.5 1.5 0 00-1.948 1.948A1.495 1.495 0 000 20.5a1.5 1.5 0 002.342 1.241C2.774 22.49 3.573 23 4.5 23s1.726-.51 2.158-1.259A1.5 1.5 0 009 20.5c0-.693-.472-1.27-1.11-1.442z"/><g fill="#FF6B8B"><circle cx="4.5" cy="17.5" r=".5"/><circle cx="1.5" cy="20.5" r=".5"/><circle cx="6.5" cy="18.5" r=".5"/><circle cx="7.5" cy="20.5" r=".5"/><circle cx="2.5" cy="18.5" r=".5"/><circle cx="4.5" cy="17.5" r=".5"/><circle cx="1.5" cy="20.5" r=".5"/><circle cx="6.5" cy="18.5" r=".5"/><circle cx="7.5" cy="20.5" r=".5"/><circle cx="2.5" cy="18.5" r=".5"/></g><path fill="#FAC7AF" d="M21.988 29.8l2.912-3.883a.5.5 0 00.016-.577l-1.919-2.878a.5.5 0 00-.693-.139l-.832.555a.5.5 0 00-.139.693l1.134 1.701a.5.5 0 01-.016.577L20.388 28.6a.5.5 0 00.1.7l.8.6a.5.5 0 00.7-.1z"/><circle cx="22.5" cy="23" r="2" fill="#FF5F7E"/><path fill="#5C699E" d="M22.062 28.614c-.938 0-2.062-1.422-2.062.95C20 32 20.031 32 20.588 32h5.974S30 32.062 30 29.949c0-1.647-.623-2.534-1.684-2.889-.428-.143-.804.288-.622.713.323.753-.144 1.263-.694 1.263-.75 0-2.031-.337-2.938-.721-.906-.386-1.062.299-2 .299z"/><path fill="#EDEEEE" d="M30.89 19.058a1.5 1.5 0 00-1.948-1.948C28.77 16.472 28.193 16 27.5 16s-1.27.472-1.442 1.11a1.5 1.5 0 00-1.948 1.948A1.495 1.495 0 0023 20.5a1.5 1.5 0 002.342 1.241C25.774 22.49 26.573 23 27.5 23s1.726-.51 2.158-1.259A1.5 1.5 0 0032 20.5c0-.693-.472-1.27-1.11-1.442z"/><g fill="#FF5F7E"><circle cx="27.5" cy="17.5" r=".5"/><circle cx="30.5" cy="20.5" r=".5"/><circle cx="25.5" cy="18.5" r=".5"/><circle cx="24.5" cy="20.5" r=".5"/><circle cx="29.5" cy="18.5" r=".5"/><circle cx="27.5" cy="17.5" r=".5"/><circle cx="30.5" cy="20.5" r=".5"/><circle cx="25.5" cy="18.5" r=".5"/><circle cx="24.5" cy="20.5" r=".5"/><circle cx="29.5" cy="18.5" r=".5"/></g></svg>