<svg xmlns="http://www.w3.org/2000/svg" width="100%" height="100%" viewBox="-2.72 -2.72 37.44 37.44"><path fill="#8FF888" d="M14.555 6.416L16 7.5l.781-.586C16.32 5.55 16 4.435 16 4c0-1.103.897-2 2-2s2 .897 2 2a1 1 0 102 0c0-2.206-1.794-4-4-4s-4 1.794-4 4c0 .502.211 1.38.518 2.401.012.007.026.007.037.015z"/><path fill="#A7794C" d="M18 0a3.984 3.984 0 00-2.827 1.173l1.414 1.414A1.99 1.99 0 0118 2c1.103 0 2 .897 2 2a1 1 0 102 0c0-2.206-1.794-4-4-4zM4 6a2 2 0 012 2v2a1 1 0 01-2 0 1 1 0 01-2 0 1 1 0 01-2 0V8a2 2 0 012-2h2zm3 22l-.553 1.106A1.617 1.617 0 015 30a1 1 0 000 2c.64 0 1.254-.254 1.707-.707L7 31a1 1 0 002 0v-1h2a1 1 0 000-2H7z"/><path fill="#9E6E43" d="M28 6a2 2 0 00-2 2v2a1 1 0 002 0 1 1 0 002 0 1 1 0 002 0V8a2 2 0 00-2-2h-2zm-3 22l.553 1.106c.274.548.834.894 1.447.894a1 1 0 010 2c-.64 0-1.254-.254-1.707-.707L25 31a1 1 0 01-2 0v-1h-2a1 1 0 010-2h4z"/><path fill="#C1FDBD" d="M16 7.5l-1.445-1.084a.5.5 0 00-.774.242L13.5 7.5l-2.248-.375a.5.5 0 00-.567.614l.229.915C9.552 8.242 7.352 7.648 7 8c-.382.382.351 2.943.757 4.243l-.403.403a.5.5 0 000 .707L8 14l-1.638 3.276a.5.5 0 00.447.724H8l-.781 2.342a.5.5 0 00.475.658H8.5l1.276 2.553a.5.5 0 00.671.223L11 23.5l1.284 1.712a.5.5 0 00.558.174L14 25l1.776.888c.07.035.147.053.224.053V7.5z"/><path fill="#A9FAA2" d="M16.224 25.888L18 25l1.158.386a.5.5 0 00.558-.174L21 23.5l.553.276a.5.5 0 00.671-.223L23.5 21h.806a.5.5 0 00.474-.658L24 18h1.191a.5.5 0 00.447-.724L24 14l.646-.646a.5.5 0 000-.707l-.403-.403C24.649 10.943 25.382 8.382 25 8c-.352-.352-2.552.242-3.914.655l.229-.915a.5.5 0 00-.567-.614L18.5 7.5l-.281-.842a.5.5 0 00-.774-.242L16 7.5v18.441a.505.505 0 00.224-.053z"/><path fill="#B38658" d="M8.462 11.124a24.867 24.867 0 01-.459-1.817.25.25 0 01.29-.297c.546.106 1.201.274 1.829.454l-1.66 1.66z"/><path fill="#A7794C" d="M21.877 9.463a23.127 23.127 0 011.831-.46.25.25 0 01.291.297 25.41 25.41 0 01-.46 1.824l-1.662-1.661z"/><path fill="#FFF" d="M14.777 16.852l-2.235-1.49a.5.5 0 00-.761.287c-.16.588-.298 1.457.031 2.081.087.166.259.27.446.27H15v-.732a.498.498 0 00-.223-.416z"/><path fill="#FFF" d="M14.777 16.852l-2.235-1.49a.5.5 0 00-.761.287c-.16.588-.298 1.457.031 2.081.087.166.259.27.446.27H15v-.732a.498.498 0 00-.223-.416z"/><path fill="#F7F7F7" d="M17.223 16.852l2.235-1.49a.5.5 0 01.761.287c.16.588.298 1.457-.031 2.081a.506.506 0 01-.446.27H17v-.732c0-.168.084-.324.223-.416z"/><path fill="#E85160" d="M14.001 16.334l-1.002-.668L13 16c0 1.105-.052 2 .5 2 .495 0 .504-.721.501-1.666z"/><path fill="#D84459" d="M17.999 16.334l1.002-.668L19 16c0 1.105.052 2-.5 2-.495 0-.504-.721-.501-1.666z"/><path fill="#F4A984" d="M16 17c-1.105 0-2 .672-2 1.5s.895 1.5 2 1.5v-3z"/><path fill="#EA9C7A" d="M18 18.5c0-.828-.895-1.5-2-1.5v3c1.105 0 2-.672 2-1.5z"/><path fill="#A9FAA2" d="M16 23.941a.505.505 0 01-.224-.053l-1.553-.776a.502.502 0 00-.447 0l-.5.25a.502.502 0 01-.524-.047l-1.506-1.129a.5.5 0 00-.524-.047l-.401.201a.499.499 0 01-.577-.094L8.5 21l1.276 2.553a.5.5 0 00.671.223L11 23.5l1.284 1.712a.5.5 0 00.558.174L14 25l1.776.888c.07.035.147.053.224.053v-2z"/><path fill="#8FF888" d="M16.224 25.888L18 25l1.158.386a.5.5 0 00.558-.174L21 23.5l.553.276a.5.5 0 00.671-.223L23.5 21l-1.245 1.245a.5.5 0 01-.577.094l-.401-.201a.502.502 0 00-.524.047l-1.506 1.129a.5.5 0 01-.524.047l-.5-.25a.502.502 0 00-.447 0l-1.553.776a.502.502 0 01-.224.053v2a.492.492 0 00.225-.052z"/><path fill="#A9FAA2" d="M8 14l-.646-.646A.5.5 0 017.207 13H6a1 1 0 01-1-1v-1a1 1 0 01-1-1 1 1 0 01-1 1v2.558a2 2 0 001.368 1.897l2.49.83L8 14z"/><path fill="#8FF888" d="M28 10a1 1 0 01-1 1v1a1 1 0 01-1 1h-1.207a.502.502 0 01-.146.354L24 14l1.143 2.286 2.49-.83A2 2 0 0029 13.558V11a1 1 0 01-1-1zM11 23.5l-.553.276a.5.5 0 01-.671-.223l-1.221-2.442-1.269 3.174A3.995 3.995 0 007 25.77V28h2v-1.172a2 2 0 01.586-1.414l1.628-1.628L11 23.5z"/><path fill="#84ED82" d="M23.444 21.111l-1.221 2.442a.498.498 0 01-.67.223L21 23.5l-.214.286 1.628 1.628A2 2 0 0123 26.828V28h2v-2.23c0-.509-.097-1.013-.286-1.486l-1.27-3.173z"/></svg>