<svg xmlns="http://www.w3.org/2000/svg" width="100%" height="100%" viewBox="-2.72 -2.72 37.44 37.44"><path fill="#edeeee" d="M12.275 31.72c.939-3.272 1.864-5.899 2.754-6.902l-1.568-1.826a20.847 20.847 0 00-1.186 8.728z"/><path fill="#757f7e" d="M15.524 14.387l-.238 1.66-4.838 3.51c-2.592.084-3.946 1.145-3.404 2.382.866 1.244 2.56.247 3.717-1.64l3.587-2.817-.368 2.287c0 .368 1.017.55 2.02.545V14.45z"/><path fill="#e9746a" d="M13.98 19.769l-.414 2.573c0 .299 1.217.449 2.434.449v-2.477c-1.003.005-2.02-.177-2.02-.545z"/><path fill="#e7685f" d="M18.434 22.342l-.492-2.573c0 .359-.965.54-1.942.545v2.477c1.217 0 2.434-.15 2.434-.45z"/><path fill="#757f7e" d="M16.476 14.387l.238 1.66 4.838 3.51c2.592.084 3.946 1.145 3.404 2.382-.866 1.244-2.56.247-3.717-1.64l-3.587-2.817.368 2.287c0 .368-1.017.55-2.02.545V14.45z"/><path fill="#f7f7f7" d="M15.989 8.356a9.958 9.958 0 01-4.306-.856 4.794 4.794 0 00-.922 2.79 5.123 5.123 0 005.228 5.01H16V8.355z"/><path fill="#edeeee" d="M16 15.3a5.121 5.121 0 005.216-5.01c0-.081-.016-.158-.02-.238H16zm0-6.945v1.697h5.196a4.828 4.828 0 00-.901-2.552A9.95 9.95 0 0116 8.355z"/><path fill="#909997" d="M15.989 8.088a10.21 10.21 0 01-4.173-.788c-.05.064-.087.135-.133.2a9.958 9.958 0 004.306.856H16v-.268z"/><path fill="#838c8a" d="M20.162 7.3A10.202 10.202 0 0116 8.088v.267a9.95 9.95 0 004.295-.855c-.047-.065-.084-.136-.133-.2z"/><path fill="#f7f7f7" d="M15.989 5.279A5.279 5.279 0 0011.816 7.3a10.21 10.21 0 004.173.788H16V5.279z"/><path fill="#edeeee" d="M16 5.28v2.808a10.202 10.202 0 004.162-.788A5.279 5.279 0 0016 5.28z"/><ellipse cx="13.461" cy="10.501" fill="#ec8179" rx="1.027" ry="1.37"/><path fill="#e9746a" d="M19.558 10.052a1.093 1.093 0 00-.959-.92 1.093 1.093 0 00-.96.92 1.745 1.745 0 00-.067.45c0 .756.46 1.37 1.027 1.37s1.027-.614 1.027-1.37a1.745 1.745 0 00-.068-.45z"/><path fill="#ec8179" d="M15.989 7.149c-.389 0-.703.476-.703 1.063s.314 1.063.703 1.063L16 9.272v-2.12z"/><path fill="#e9746a" d="M16.692 8.212c0-.581-.31-1.05-.692-1.06v2.12c.383-.01.692-.479.692-1.06z"/><ellipse cx="13.204" cy="10.1" fill="#fff" rx=".317" ry=".402"/><path fill="#fff" d="M18.6 10.1c0 .221.13.401.29.401s.291-.18.291-.402c0-.016-.005-.03-.006-.047h-.57c0 .017-.006.03-.006.047zm.29-.402c-.149 0-.267.156-.284.354h.569c-.018-.198-.136-.354-.285-.354z"/><path fill="#edeeee" d="M19.725 31.72c-.939-3.272-1.864-5.899-2.754-6.902l1.568-1.826a20.847 20.847 0 011.186 8.728z"/><path fill="#757f7e" d="M18.434 22.342c.353-.846 3.445 2.096 6.312 1.425.033 1.271-8.713 2.146-8.746.874v-1.85c1.217 0 2.434-.15 2.434-.45zm-4.868 0c-.353-.846-3.445 2.096-6.312 1.425-.033 1.271 8.713 2.146 8.746.874v-1.85c-1.217 0-2.434-.15-2.434-.45z"/><path fill="#ed8c86" d="M11.463 4.693v3.135c0-.52 2.268-.78 4.537-.78v-2.87c-2.269 0-4.537.172-4.537.514z"/><path fill="#ec8179" d="M20.537 7.828V4.693c0-.342-2.268-.514-4.537-.514v2.868c2.269 0 4.537.26 4.537.78z"/><path fill="#f09a94" d="M8.395.609a5.295 5.295 0 00-.435 2.974c.332.69 1.763 1.039 3.723 1.221C12.97 4.75 14.496 4.58 16 4.5V1.176c-3.039.055-6.38.177-7.605-.567z"/><path fill="#ed8c86" d="M21.014 5.074c.53.445.972-1.407.731-2.698.415-1.24-2.491-1.259-5.745-1.2V4.5a10.842 10.842 0 015.014.574z"/><path fill="#838c8a" d="M11.067 2.69c-1.066.376-1.066 2.661 0 2.747-.1 1.066 0 1.863.599 1.863.672 0 .79-.447.81-.826 0-.657-.966-.476-.705.26-.285.097-.492-.017-.3-1.216a1.465 1.465 0 00.47-2.612 2.788 2.788 0 001.41-2.651A3.188 3.188 0 0011.582 2.1a2.107 2.107 0 00-.857-2.38 3.545 3.545 0 00.34 2.97z"/></svg>