<svg xmlns="http://www.w3.org/2000/svg" width="100%" height="100%" viewBox="-2.72 -2.72 37.44 37.44"><path fill="#F79654" d="M19.017 29c-.021-2 1.165-6 1.165-6l2.81-.25s-.005 3.362-1.523 5.647c.219.134.434.295.633.493.919.919 1.167 2.161.555 2.773-.613.613-1.854.364-2.773-.555-.656-.654-.962-1.47-.867-2.108z"/><path fill="#FCA15E" d="M12.975 29c.021-2-1.165-6-1.165-6L9 22.75s.005 3.362 1.523 5.647a3.428 3.428 0 00-.633.493c-.919.919-1.167 2.161-.555 2.773.613.613 1.854.364 2.773-.555.656-.654.963-1.47.867-2.108z"/><path fill="#F79654" d="M19.066 21s4.376-2.917 6.277-6.883c.539-1.125 1.818-1.679 2.976-1.216 1.487.595 1.951 2.489.88 3.681-1.688 1.88-4.612 4.288-9.133 5.418l-1-1z"/><path fill="#FCA15E" d="M13 21s-4.376-2.917-6.277-6.883c-.539-1.125-1.818-1.679-2.976-1.216-1.487.595-1.951 2.489-.88 3.681C4.555 18.462 7.479 20.87 12 22l1-1z"/><path fill="#F79654" d="M23 22.75c0-4.349-3.134-8.75-7-8.75v14c3.866 0 7-.901 7-5.25z"/><path fill="#FCA15E" d="M16 14c-3.866 0-7 4.401-7 8.75S12.134 28 16 28V14z"/><path fill="#FFAD68" d="M16 5a7 7 0 00-7 7c0 3.866 3.134 6 7 6V5z"/><path fill="#FCA15E" d="M23 12a7 7 0 00-7-7v13c3.866 0 7-2.134 7-6z"/><path fill="#FFF" d="M14 8v5l-1.5 1S11 13 11 9l3-1z"/><path fill="#F7F7F7" d="M18 8v5l1.5 1S21 13 21 9l-3-1z"/><path fill="#FFAD68" d="M16 1.38A3.972 3.972 0 0013 0a4 4 0 000 8c1.202 0 3-.38 3-.38V1.38z"/><path fill="#FCA15E" d="M19 0a3.972 3.972 0 00-3 1.38v6.24S17.798 8 19 8a4 4 0 000-8z"/><circle cx="8" cy="5" r="4" fill="#FFB76D"/><path fill="#2B3332" d="M19.5 11c0 1.036-.336 1.5-.75 1.5S18 12.036 18 11V9h1.5v2z"/><path fill="#373F3F" d="M14 11c0 1.036-.336 1.5-.75 1.5s-.75-.464-.75-1.5V9H14v2z"/><path fill="#FFF" d="M13.5 10.5c0 .276-.112.5-.25.5s-.25-.224-.25-.5v-1h.5v1z"/><circle cx="12" cy="6" r="4" fill="#FFC172"/><path fill="#F7F7F7" d="M19 10.5c0 .276-.112.5-.25.5s-.25-.224-.25-.5v-1h.5v1z"/><circle cx="25" cy="5" r="4" fill="#FFAD68"/><circle cx="20" cy="6" r="4" fill="#FFB76D"/><path fill="#FFE28A" d="M16 12v6c2.209 0 4-1.343 4-3s-1.791-3-4-3z"/><path fill="#FFEAA7" d="M12 15c0 1.657 1.791 3 4 3v-6c-2.209 0-4 1.343-4 3z"/><path fill="#FCA15E" d="M16 15c-.828 0-1.5.448-1.5 1s.672 1 1.5 1v-2z"/><path fill="#F79654" d="M17.5 16c0-.552-.672-1-1.5-1v2c.828 0 1.5-.448 1.5-1z"/><path fill="#FFE28A" d="M16.434 23.084c-.224-.053-.43-.246-.434-.475V28c1.38 0 2.665-.117 3.749-.463.498-.159.798-.671.678-1.18-.249-1.063-1.122-2.592-3.993-3.273z"/><path fill="#FFEAA7" d="M15.326 20.723c-1.444.559-4.614 2.27-3.498 6.227a.955.955 0 00.651.655c1.034.293 2.236.395 3.521.395v-6.868a.496.496 0 00-.674-.409z"/></svg>