<svg xmlns="http://www.w3.org/2000/svg" width="100%" height="100%" viewBox="-2.72 -2.72 37.44 37.44"><circle cx="15.999" cy="17" r="13" fill="#F9ADC8"/><path fill="#F8A1C4" d="M28.999 17c0-7.18-5.82-13-13-13v26c7.18 0 13-5.82 13-13z"/><path fill="#F8A1C4" d="M20.095 13.667c0 7.18-.754 18.333 1.981 18.333S30 20.846 30 13.667s-9.905-7.18-9.905 0z"/><path fill="#F9ADC8" d="M11.904 13.667c0 7.18.754 18.333-1.981 18.333S1.999 20.846 1.999 13.667s9.905-7.18 9.905 0z"/><path fill="#FBCFD6" d="M30.001 13.81c0 8.166-8.702 12.898-12.385 14.535a3.968 3.968 0 01-3.23 0c-3.683-1.638-12.385-6.37-12.385-14.535 0-7.627 6.268-13.81 14-13.81s14 6.183 14 13.81z"/><path fill="#FAC4D1" d="M16.001 0h-.002v28.688c.55 0 1.101-.114 1.616-.343C21.298 26.708 30 21.976 30 13.81 30.001 6.183 23.733 0 16.001 0z"/><path fill="#FAC4D1" d="M15.999 24c-4.865 0-9.289-1.844-12.651-4.852 2.587 4.938 8.248 7.957 11.037 9.197a3.968 3.968 0 003.23 0c2.79-1.24 8.454-4.261 11.039-9.201C25.293 22.154 20.867 24 15.999 24z"/><path fill="#FAB8CD" d="M15.999 24v4.688c.55 0 1.101-.114 1.616-.343 2.79-1.24 8.454-4.261 11.039-9.201C25.293 22.154 20.867 24 15.999 24z"/><path fill="#2B3332" d="M22.999 16.5a.5.5 0 01-.429-.243l-1.5-2.5a.5.5 0 01.857-.515l1.071 1.786 1.071-1.786a.5.5 0 11.857.515l-1.5 2.5a.493.493 0 01-.427.243z"/><ellipse cx="22.999" cy="17" fill="#D84459" rx="2" ry="3"/><path fill="#9179C6" d="M29.144 9.095l-.581-1.348a13.851 13.851 0 00-2.909-3.921 2.481 2.481 0 00-.632 1.998.243.243 0 01-.175.268A2.495 2.495 0 0022.999 8.5a2.5 2.5 0 002.734 2.487.251.251 0 01.279.279A2.5 2.5 0 0028.499 14c.558 0 1.068-.189 1.484-.498a13.571 13.571 0 00-.839-4.407z"/><path fill="#EA8BB4" d="M27.804 6.406c-.486.364-.805.94-.805 1.594a2 2 0 002 2c.15 0 .295-.019.435-.051a13.637 13.637 0 00-1.63-3.543z"/><path fill="#9D85D3" d="M2.839 9.095l.581-1.348a13.851 13.851 0 012.909-3.921c.402.444.655 1.027.655 1.674 0 .11-.008.218-.023.324a.242.242 0 00.175.268 2.496 2.496 0 01-.886 4.895.251.251 0 00-.279.279A2.5 2.5 0 013.484 14 2.478 2.478 0 012 13.502c.034-1.547.329-3.026.839-4.407z"/><path fill="#F297BE" d="M4.179 6.406c.486.364.805.94.805 1.594a2 2 0 01-2 2c-.15 0-.295-.019-.435-.051a13.604 13.604 0 011.63-3.543z"/><ellipse cx="15.999" cy="18.5" fill="#F297BE" rx="2" ry="3.5"/><path fill="#373F3F" d="M8.999 16.5a.5.5 0 01-.429-.243l-1.5-2.5a.5.5 0 01.857-.515l1.071 1.786 1.071-1.786a.5.5 0 11.857.515l-1.5 2.5a.493.493 0 01-.427.243z"/><ellipse cx="8.999" cy="17" fill="#E85160" rx="2" ry="3"/><circle cx="8.999" cy="16" r="1" fill="#FFF"/><circle cx="22.999" cy="16" r="1" fill="#F7F7F7"/><path fill="#EA8BB4" d="M17.999 18.5c0-2.209-.895-3.5-2-3.5v7c1.105 0 2-1.291 2-3.5z"/><path fill="#F3586F" d="M22.999 18c-.631 0-1.221.159-1.752.42.338.937.992 1.58 1.752 1.58s1.413-.643 1.752-1.58a3.952 3.952 0 00-1.752-.42z"/><path fill="#FF5F7E" d="M8.984 18c-.626 0-1.211.156-1.738.413.337.94.991 1.587 1.753 1.587.758 0 1.41-.64 1.749-1.573A3.952 3.952 0 008.984 18z"/></svg>