<svg xmlns="http://www.w3.org/2000/svg" width="100%" height="100%" viewBox="-2.72 -2.72 37.44 37.44"><path fill="#FAE09F" d="M17.126 13.312c.312 1.312 4.937 2.5 6.455 2.864.306.073.625.03.877-.158.681-.509 2.054-1.546 2.605-2.018.702-.601 1.141-.956 1.861-.996.671-.037 1.311.351 1.636.94C31.938 16.437 29.743 17 28.563 17c-1.087 0-3.268.938-4.134 1.33a.995.995 0 01-.754.028l-6.612-2.046.063-3z"/><path fill="#FDEBBB" d="M14.937 13.313c-.312 1.312-4.937 2.5-6.455 2.864-.306.073-.625.03-.877-.158C6.925 15.508 5.551 14.472 5 14c-.702-.601-1.141-.956-1.861-.996-.671-.037-1.311.351-1.636.94C.125 16.438 2.32 17 3.5 17c1.087 0 3.268.938 4.134 1.33a.995.995 0 00.754.028L15 16.313l-.063-3zm-6.507 17.6c.134 1.325 1.305 1.067 2.915 1.067s2.915.194 2.915-1.067c0-.803-1.305-1.843-2.915-1.843S8.35 30.118 8.43 30.913z"/><path fill="#FAE09F" d="M23.57 30.913c-.134 1.325-1.305 1.067-2.915 1.067s-2.915.194-2.915-1.067c0-.803 1.305-1.843 2.915-1.843s2.995 1.048 2.915 1.843z"/><path fill="#FAE09F" d="M19.53 18.382c-1.504-1.896-1.883-2.332-1.883-7.257h-3.294c0 4.925-.379 5.361-1.883 7.257s-3.792 3.923-3.792 7.911C8.678 29.3 10.639 31 12.437 31c1.052 0 2.371-.887 3.07-1.633.185-.197.332-.198.493-.198s.308.001.493.198c.699.746 2.018 1.633 3.07 1.633 1.798 0 3.759-1.7 3.759-4.707 0-3.988-2.288-6.015-3.792-7.911z"/><path fill="#FDEBBB" d="M16 11.125h-1.647c0 4.925-.379 5.361-1.883 7.257s-3.792 3.923-3.792 7.911C8.678 29.3 10.639 31 12.437 31c1.052 0 2.371-.887 3.07-1.633.185-.197.332-.198.493-.198V11.125z"/><ellipse cx="16" cy="8.938" fill="#FDEBBB" rx="4.269" ry="4.803"/><circle cx="18.135" cy="9.606" r="1.334" fill="#F7F7F7"/><circle cx="18.135" cy="9.506" r=".8" fill="#2B3332"/><path fill="#FFF3D9" d="M16 13.741c-2.068 0-4.269-2.802-4.269-4.803 0-2.653 1.911-4.803 4.269-4.803v9.606z"/><path fill="#529CCF" d="M19.53 18.382c-1.133 1.199-3.007 2.768-3.53 2.768s-2.397-1.569-3.53-2.768c-1.504 1.896-3.792 3.923-3.792 7.911C8.678 29.3 10.639 31 12.437 31c1.052 0 2.371-.887 3.07-1.633.185-.197.332-.198.493-.198s.308.001.493.198c.699.746 2.018 1.633 3.07 1.633 1.798 0 3.759-1.7 3.759-4.707 0-3.988-2.288-6.015-3.792-7.911z"/><path fill="#5CA3D5" d="M16 21.15c-.523 0-2.397-1.569-3.53-2.768-1.504 1.896-3.792 3.923-3.792 7.911C8.678 29.3 10.639 31 12.437 31c1.052 0 2.371-.887 3.07-1.633.185-.197.332-.198.493-.198V21.15z"/><path fill="#529CCF" d="M16 26.833c-1.208 0-5.25.167-7.221-1.948a9.493 9.493 0 00-.101 1.407C8.678 29.3 10.639 31 12.437 31c1.052 0 2.371-.887 3.07-1.633.185-.197.332-.198.493-.198v-2.336z"/><path fill="#FFE28A" d="M16 22.288a.55.55 0 01-.185-.054c-.552-.237-1.965-1.213-2.779-1.956-1.002-.915-1.351-1.569-.959-1.918s.827.17 1.525.828c.648.61 1.731 1.593 2.213 1.868.086.049.141.093.185.093v1.139z"/><ellipse cx="12.426" cy="26.424" fill="#FFE28A" rx="1.569" ry="1.7"/><path fill="#FFD96C" d="M16 22.288a.55.55 0 00.185-.054c.552-.237 1.965-1.213 2.779-1.956 1.002-.915 1.351-1.569.959-1.918s-.827.17-1.525.828c-.648.61-1.731 1.593-2.213 1.868-.087.05-.141.094-.185.094v1.138z"/><path fill="#65A9DC" d="M16 0c-.737 0-1.634.967-1.334 2.685.261 1.492.967 2.685 1.334 2.685V0zM8.567 8.1c.216.649 1.33 1.156 2.755.388 1.237-.666 2.081-1.638 1.974-1.961-.107-.323-1.365-.596-2.755-.388-1.601.239-2.19 1.313-1.974 1.961z"/><circle cx="13.865" cy="9.606" r="1.334" fill="#FFF"/><circle cx="13.865" cy="9.506" r=".8" fill="#373F3F"/><path fill="#5CA3D5" d="M16 3.735c-1.468 0-3.969 1.067-3.969 3.435 0 .8.71 1.256 1.501 1.668.834.434 1.801.768 2.468.768s1.634-.333 2.468-.767c.791-.411 1.501-.867 1.501-1.668 0-2.368-2.501-3.436-3.969-3.436z"/><path fill="#65A9DC" d="M16 3.735c-1.468 0-3.969 1.067-3.969 3.435 0 .8.71 1.256 1.501 1.668.834.434 1.801.768 2.468.768V3.735z"/><circle cx="14.266" cy="7.16" r=".534" fill="#FFE28A"/><path fill="#5CA3D5" d="M16 0c.737 0 1.634.967 1.334 2.685C17.073 4.177 16.367 5.37 16 5.37V0zm7.433 8.1c-.216.649-1.33 1.156-2.755.388-1.237-.666-2.081-1.638-1.974-1.961.107-.323 1.365-.596 2.755-.388 1.601.239 2.19 1.313 1.974 1.961z"/><ellipse cx="16" cy="13.575" fill="#5CA3D5" rx="1.067" ry=".8"/><path fill="#65A9DC" d="M16 14.375c-.589 0-1.067-.358-1.067-.8 0-.442.478-.8 1.067-.8v1.6z"/><circle cx="16" cy="8.316" r=".534" fill="#FFD96C"/><path fill="#FFE28A" d="M16 7.782a.534.534 0 100 1.068V7.782z"/><circle cx="17.734" cy="7.16" r=".534" fill="#FFD96C"/><path fill="#FFD96C" d="M13.957 26.794c-.954-.064-2.066-.221-3.086-.594a1.833 1.833 0 00-.014.224c0 .939.702 1.7 1.569 1.7.749-.001 1.375-.57 1.531-1.33z"/><path fill="#4896C8" d="M16 26.833c1.208 0 5.25.167 7.221-1.948.066.441.101.909.101 1.407 0 3.007-1.961 4.707-3.759 4.707-1.052 0-2.371-.887-3.07-1.633-.185-.196-.333-.197-.493-.197v-2.336z"/><ellipse cx="19.574" cy="26.424" fill="#FFD96C" rx="1.569" ry="1.7"/><path fill="#FFD04D" d="M18.043 26.794c.954-.064 2.066-.221 3.086-.594.009.073.014.148.014.224 0 .939-.702 1.7-1.569 1.7-.749-.001-1.375-.57-1.531-1.33z"/></svg>