<svg xmlns="http://www.w3.org/2000/svg" width="100%" height="100%" viewBox="-2.72 -2.72 37.44 37.44"><path fill="#869642" d="M15.746 2.792c-2.458 1-9.5.458-11 3.542-.984 2.023.583 4-.25 5.667-.648 1.295-2.206 1.755-4.032-1.044-.142-.218-.488-.111-.462.147.277 2.716 1.532 7.022 5.744 7.022 11.125-.001 10-15.334 10-15.334z"/><path fill="#869642" d="M4.558 8.188c.417 2.417-1.468 2.175-2.194 1.525-.105-.094-.269-.021-.258.12.139 1.745 1.203 4.213 5.733 4.063 4.396-.146-3.281-5.708-3.281-5.708z"/><path fill="#828E3D" d="M4.75 19.5c0 1.901 2.417 1.083 3 3 .568 1.866-3.776 2.869-2 5 1.667 2 3.083-.833 5 .083C12.21 28.281 12.5 31 16 31V17s-11.25.125-11.25 2.5z"/><path fill="#8DA04A" d="M6 12c0 4.971 4.477 9 10 9V3C10.477 3 6 7.029 6 12z"/><path fill="#8DA04A" d="M12.5 3.333c0 1.289 1.567 2.333 3.5 2.333V1c-1.933 0-3.5 1.045-3.5 2.333z"/><path fill="#8DA04A" d="M15.996 3.688c-2.188 0-3.625-2.062-6-1.688-2.593.409-2.875 3-5 3-1.601 0-2.244-.709-2.651-1.38-.126-.208-.44-.128-.464.114-.178 1.765.375 3.318 1.24 4.266C6.996 12.25 13.75 9.812 16 9.812l-.004-6.124z"/><path fill="#FFCF6E" d="M15 10a4 4 0 01-8 0c0-2.209 8-2.209 8 0z"/><path fill="#F3586F" d="M15 10c0-1.35-2.985-1.871-5.308-1.571A3.469 3.469 0 009 10.5a3.5 3.5 0 002.773 3.422A3.998 3.998 0 0015 10z"/><path fill="#373F3F" d="M13.646 8.724c-.573-.195-1.275-.313-2.009-.356C11.253 8.73 11 9.324 11 10c0 1.105.672 2 1.5 2s1.5-.895 1.5-2c0-.488-.136-.929-.354-1.276z"/><path fill="#FFC550" d="M3.375 5.935h.812a.125.125 0 00.125-.125v-.868c-1.108-.173-1.626-.76-1.968-1.325-.124-.205-.438-.132-.463.107-.12 1.186.094 2.272.506 3.149h.863a.125.125 0 00.125-.125v-.813z"/><path fill="#F7BC48" d="M4.125 9.982c-.528.344-1.347.104-1.768-.278-.1-.091-.262-.009-.251.125.051.639.228 1.374.651 2.043h.305a.125.125 0 00.125-.125v-.812H4a.125.125 0 00.125-.125v-.828zm-1.938 2.774c-.531-.298-1.116-.867-1.732-1.815-.142-.218-.48-.1-.454.158.105 1.032.353 2.293.849 3.461h.275a.125.125 0 00.125-.125v-.812h.812a.125.125 0 00.125-.125v-.742z"/><path fill="#828E3D" d="M16.254 2.792c2.458 1 9.5.458 11 3.542.984 2.023-.583 4 .25 5.667.648 1.295 2.206 1.755 4.032-1.044.142-.218.488-.111.462.147-.277 2.716-1.532 7.022-5.744 7.022-11.125-.001-10-15.334-10-15.334z"/><path fill="#828E3D" d="M27.442 8.188c-.417 2.417 1.468 2.175 2.194 1.525.105-.094.269-.021.258.12-.139 1.745-1.203 4.213-5.733 4.063-4.396-.146 3.281-5.708 3.281-5.708z"/><path fill="#7D883A" d="M27.262 19.5c0 1.901-2.417 1.083-3 3-.568 1.866 3.776 2.869 2 5-1.667 2-3.083-.833-5 .083C19.802 28.281 19.5 31 16 31V17s11.262.125 11.262 2.5z"/><path fill="#869642" d="M26.012 12c0 4.971-4.489 9-10.012 9l.012-18c5.523 0 10 4.029 10 9z"/><path fill="#E85160" d="M18.595 19.75a.984.984 0 00-.781.402 1.995 1.995 0 00-3.618-.002.983.983 0 00-.779-.4 1 1 0 000 2 .988.988 0 00.652-.256A1.996 1.996 0 0016 23a2.01 2.01 0 001.942-1.506c.176.154.4.256.653.256a1 1 0 000-2z"/><path fill="#869642" d="M16 3.688c2.187 0 3.641-2.062 6.016-1.688 2.593.409 2.875 3 5 3 1.601 0 2.244-.709 2.651-1.38.126-.208.44-.128.464.114.177 1.764-.376 3.318-1.24 4.266C25.016 12.25 18.25 9.812 16 9.812V3.688z"/><path fill="#FFC550" d="M17.012 10a4 4 0 008 0c0-2.209-8-2.209-8 0z"/><path fill="#E85160" d="M17.012 10c0-1.35 2.985-1.871 5.308-1.571.429.581.692 1.293.692 2.071a3.5 3.5 0 01-2.773 3.422A3.998 3.998 0 0117.012 10z"/><path fill="#2B3332" d="M18.366 8.724c.573-.195 1.275-.313 2.009-.356.384.362.637.956.637 1.632 0 1.105-.672 2-1.5 2s-1.5-.895-1.5-2c0-.488.136-.929.354-1.276z"/><path fill="#869642" d="M19.5 3.333c0 1.289-1.567 2.333-3.5 2.333V1c1.933 0 3.5 1.045 3.5 2.333z"/><path fill="#F7BC48" d="M28.625 5.935h-.812a.125.125 0 01-.125-.125v-.868c1.108-.173 1.626-.76 1.968-1.325.125-.205.438-.133.463.107.121 1.186-.094 2.272-.506 3.149h-.863a.125.125 0 01-.125-.125v-.813z"/><path fill="#EFB43F" d="M27.875 9.982c.528.344 1.347.104 1.768-.278.1-.091.262-.009.251.125-.051.639-.228 1.374-.651 2.043h-.305a.125.125 0 01-.125-.125v-.812H28a.125.125 0 01-.125-.125v-.828zm1.937 2.774c.531-.298 1.116-.867 1.732-1.815.142-.218.48-.1.454.158-.105 1.032-.353 2.293-.849 3.461h-.275a.125.125 0 01-.125-.125v-.812h-.812a.125.125 0 01-.125-.125v-.742z"/><path fill="#F3586F" d="M14.196 20.15a.983.983 0 00-.779-.4 1 1 0 000 2 .988.988 0 00.652-.256A1.996 1.996 0 0016 23v-4c-.799 0-1.484.472-1.804 1.15z"/></svg>