<svg xmlns="http://www.w3.org/2000/svg" width="100%" height="100%" viewBox="-2.72 -2.72 37.44 37.44"><path fill="#434C4B" d="M17.507 23.25l7.667-1.5-1.591-6.725c-.061-.256.265-.42.435-.218l6.924 8.25a.25.25 0 01-.108.396l-12.66 4.463-.667-4.666z"/><path fill="#5C6664" d="M12.232 14.927c0 4.422-4.888 7.481-3.084 11.604.207.473.382.878.541 1.235-.67.197-1.689.809-1.689 1.542C8 30.2 9.25 30.5 10.142 30.5c.655 0 1.466.032 1.72-.529.674.088 2.427-.059 4.138-.164v-14.88h-3.768z"/><path fill="#505957" d="M19.768 14.927c0 4.422 4.888 7.481 3.084 11.604-.207.473-.382.878-.541 1.235.67.197 1.689.809 1.689 1.542 0 .892-1.25 1.192-2.142 1.192-.655 0-1.466.032-1.72-.529-.674.088-2.427-.059-4.138-.164v-14.88h3.768z"/><path fill="#FFD04D" d="M19.898 24.105c-.935-1.935-.408-4.126 1.177-4.906 1.313 2.319 2.909 4.621 1.801 7.261-1.179-.171-2.338-1.032-2.978-2.355z"/><path fill="#FFD04D" d="M20.607 21.661l2.117-2.689a.125.125 0 01.222.061l.259 2.017 3.365-1.418c.12-.051.228.093.145.194L24.42 22.64l1.707.861a.125.125 0 01-.013.229l-3.146 1.16-2.361-3.229z"/><path fill="#FFD96C" d="M12.095 24.105c.935-1.935.408-4.126-1.177-4.906-1.33 2.354-2.909 4.621-1.801 7.261 1.179-.171 2.338-1.032 2.978-2.355z"/><path fill="#FFD96C" d="M11.386 21.661l-2.117-2.689a.125.125 0 00-.222.061l-.259 2.017-3.365-1.418c-.12-.051-.228.093-.145.194l2.296 2.813-1.707.861a.125.125 0 00.013.229l3.146 1.16 2.36-3.228z"/><path fill="#5C6664" d="M17.258 29.513S16.864 19.357 16 19.357V9.62l2.487-.932s3.223 3.835 2.966 6.838c-.425 4.954-1.016 11.584-1.17 13.467.639.257 1.564 1.319 1.564 1.852 0 .81-1.478 1.155-2.693 1.155s-2.6-.345-2.6-1.155c-.001-.268.516-1.116.704-1.332z"/><path fill="#687271" d="M14.742 29.513S15.136 19.357 16 19.357V9.62l-2.487-.932s-3.223 3.835-2.966 6.838c.425 4.954 1.016 11.584 1.17 13.467-.639.257-1.564 1.319-1.564 1.852 0 .81 1.478 1.155 2.693 1.155s2.6-.345 2.6-1.155c.001-.268-.516-1.116-.704-1.332z"/><path fill="#757F7E" d="M9.333 11.208c.771 1.021 1.667 2.104 4.167 4.604.773.773.812 1.75 2.5 1.75V2.5l-5.576 7.428s-.153.593-1.091 1.28z"/><path fill="#FFE28A" d="M15.5 11h-6l3.227-8.299a.25.25 0 01.474.024L15.5 11z"/><path fill="#687271" d="M22.667 11.208c-.771 1.021-1.667 2.104-4.167 4.604-.773.773-.813 1.75-2.5 1.75V2.5l5.576 7.428s.153.593 1.091 1.28z"/><path fill="#FFD96C" d="M22.713 10.608c-1.266-1.811-4.99-7.833-6.273-10.27a.496.496 0 00-.88 0c-1.283 2.437-5.006 8.459-6.273 10.27a.496.496 0 00.113.684c1.022.754 4.236 3.284 4.934 3.791.917.667.917-.25 1.667-.25s.75.917 1.667.25c.698-.507 3.912-3.037 4.934-3.791a.497.497 0 00.111-.684z"/><path fill="#FFE28A" d="M16 .072v14.762c-.75 0-.75.917-1.667.25-.698-.507-3.912-3.037-4.934-3.791a.497.497 0 01-.113-.684c1.266-1.811 4.99-7.833 6.273-10.27A.495.495 0 0116 .072z"/><path fill="#FFD96C" d="M16.5 11h6l-3.227-8.299a.25.25 0 00-.474.024L16.5 11z"/><path fill="#838C8A" d="M16 14.871c-.171 0-.371 0-.631.247-.471.447-.788.164-1.063-.035-.31-.224-1.653-1.276-1.653-1.276l.357-1.52a.25.25 0 00-.166-.295l-1.39-.453a.25.25 0 01-.158-.323l.871-2.41a.252.252 0 01.356-.135c.766.421 1.456.849 2.54 1.454.055.899.165 1.975.196 2.416.035.494.428 2.059.741 2.059v.271z"/><path fill="#757F7E" d="M16 14.6c.312 0 .706-1.565.741-2.059.032-.442.141-1.518.196-2.416 1.083-.605 1.774-1.033 2.54-1.454a.25.25 0 01.356.135l.871 2.41a.25.25 0 01-.158.323l-1.39.453a.25.25 0 00-.166.295l.357 1.52s-1.331 1.028-1.641 1.253c-.275.199-.603.505-1.075.059-.261-.247-.461-.247-.631-.247V14.6z"/><path fill="#FFF" d="M12.499 8.658a.252.252 0 00-.267.016l.074 2.158a.25.25 0 00.202.237l1.423.275a.253.253 0 00.255-.105l.786-1.164c-1.043-.585-1.719-1.003-2.473-1.417z"/><path fill="#F7F7F7" d="M19.494 8.658a.252.252 0 01.267.016l-.074 2.158a.25.25 0 01-.202.237l-1.423.275a.253.253 0 01-.255-.105l-.786-1.164c1.042-.585 1.719-1.003 2.473-1.417z"/><path fill="#CF3C35" d="M17.602 9.783l.001-.039c.562-.322 1.019-.594 1.474-.853.214.207.352.529.352.891 0 .624-.409 1.13-.913 1.13s-.914-.505-.914-1.129z"/><ellipse cx="18.515" cy="9.959" fill="#2B3332" rx=".25" ry=".309"/><path fill="#FFD96C" d="M17.094 9.765l-.586 4.71a.107.107 0 01-.01.036l-.138.309a.125.125 0 01-.114.074H16V12.2l1.094-2.435z"/><path fill="#FFE28A" d="M14.906 9.765l.586 4.71a.107.107 0 00.01.036l.138.309c.02.045.065.074.114.074H16V12.2l-1.094-2.435z"/><path fill="#D1473D" d="M14.391 9.783l-.001-.039c-.562-.322-1.019-.594-1.474-.853a1.24 1.24 0 00-.352.891c0 .624.409 1.13.913 1.13s.914-.505.914-1.129z"/><ellipse cx="13.478" cy="9.959" fill="#373F3F" rx=".25" ry=".309"/></svg>