<svg xmlns="http://www.w3.org/2000/svg" width="100%" height="100%" viewBox="-2.72 -2.72 37.44 37.44"><path fill="#A2D336" d="M23.575 29.319a19.995 19.995 0 01-4 .639V19.666a8.203 8.203 0 003.534 2.439l.466.162v7.052z"/><path fill="#B1E346" d="M1.336 12.691l2.111-8.97a1 1 0 01.657-.72l1.446-.482a1 1 0 011.287.706l.738 2.952a8.248 8.248 0 009.401 6.127.5.5 0 01.599.485v1.528c0 2.014.75 3.888 2 5.348v10.292a19.99 19.99 0 01-14.158-4.773l-.002-.002a12.637 12.637 0 01-4.079-12.491z"/><path fill="#FFF" d="M5.161 11.586a2 2 0 102.828 2.828c.781-.781-.707-2.121-.707-2.121s-1.34-1.488-2.121-.707z"/><circle cx="6.575" cy="13" r="1" fill="#2B3332"/><path fill="#9ACC2E" d="M5.417 25.185l-.002-.002A12.62 12.62 0 012.222 21h4.353c3 8 13 8.958 13 8.958a19.995 19.995 0 01-14.158-4.773z"/><path fill="#A2D336" d="M4.575 17l1.707 1.707a1 1 0 01.293.707V21H2.222a12.666 12.666 0 01-1.142-4h3.495z"/><path fill="#AADB3D" d="M1.336 12.691l.885-3.763C2.222 14.857 4.575 17 4.575 17H1.08a12.637 12.637 0 01.256-4.309z"/><path fill="#93C427" d="M30.587 27.334l-3.012.858V23.66l3.087 1.075c.547.19.913.706.913 1.284v.007a1.36 1.36 0 01-.988 1.308z"/><path fill="#9ACC2E" d="M27.575 28.192l-3.666 1.044c-.111.032-.223.054-.334.084v-7.052l4 1.393v4.531z"/><path fill="#AADB3D" d="M19.575 26v-6.334a8.203 8.203 0 003.534 2.439l.466.162V26h-4z"/><path fill="#A2D336" d="M23.575 26v-3.733l4 1.393V26z"/></svg>