<svg xmlns="http://www.w3.org/2000/svg" width="100%" height="100%" viewBox="-2.72 -2.72 37.44 37.44"><path fill="#84ed82" d="M13.748 18.01a24.63 24.63 0 00-8.392.653l.36 3.448c2.09.885 4.501.692 7.028.106a14.047 14.047 0 00-.75 1.723l.961 2.125 1.523-2.711 1.466 3.514.056-.014v-9.161z"/><path fill="#349363" d="M15.944 26.868l-1.466-3.514-1.523 2.71-.96-2.124c-.47 1.34-.478 2.32-.015 2.997a40.904 40.904 0 01-3.872 1.557l5.155.51-1.64 3.15L16 29.769v-2.915z"/><path fill="#379b6d" d="M13.357 17.683l.598 2.43L16 18.747v-.689l-2.643-.375z"/><path fill="#a9faa2" d="M11.37 11.085c1.87-2.41-.96-10.386-4.535-7.453L4.932 5.503C1.76 7.39 8.42 12.924 11.37 11.085z"/><path fill="#40a87b" d="M12.955 11.053V7.692l-1.3 1.871-2.156-.857.285 2.347-2.347.635 3.838 1.078 1.68-1.713z"/><path fill="#c1fdbd" d="M10.41 14.304c0 2.454 2.503 4.443 5.59 4.443V9.86c-3.087 0-5.59 1.99-5.59 4.443z"/><path fill="#ffeaa7" d="M14.648 10.9c.11.304.738.436 1.352.435V7.39c-1.268 2.273-1.499 3.111-1.352 3.511z"/><circle cx="13.621" cy="13.178" r="1.491" fill="#ffe28a"/><path fill="#ffd96c" d="M9.814 5.568c-.506.28.303 1.747.809 1.468.593.026 1.125-.857 1.647-1.902-1.106.031-2.246.05-2.456.434zM7.23 9.677c.429-.387-.693-1.632-1.123-1.245-.583.11-.9 1.09-1.17 2.228 1.07-.283 2.176-.56 2.293-.983z"/><path fill="#db92bb" d="M3.824 2.895C2.818-.175 5.125-.932 6.132 2.14c3.204-2.88 4.504-1.432 1.3 1.447 4.14.111 3.196 2.232-.751 1.87.56 3.225-1.124 3.889-1.744.786-2.062 2.97-4.088 1.8-1.792-1.108C-.15 4.8.356 2.3 3.825 2.896z"/><ellipse cx="5.356" cy="4.004" fill="#ffd96c" rx="1.511" ry=".963" transform="rotate(-54.39 5.357 4.004)"/><path fill="#3aa176" d="M1.298 18.37H3.92l1.797-2.072.753 2.664 2.312.845-1.797 1.734.317 2.601-2.41-1.184-2.474.845.275-2.939-1.395-2.494z"/><ellipse cx="4.49" cy="20.59" fill="#8ff888" rx="1.882" ry="1.797"/><path fill="#ffd04d" d="M4.506 22.48c.276-.308-.617-1.11-.894-.801-.407.122-.558.844-.665 1.675.741-.283 1.508-.564 1.559-.874zm-1.701-1.287c.414-.016.366-1.216-.048-1.2-.37-.206-.995.189-1.664.691.718.335 1.454.689 1.712.51zm.948-1.725c.12.397 1.268.05 1.149-.346.107-.411-.43-.917-1.085-1.44-.144.78-.302 1.582-.064 1.786z"/><path fill="#78df7c" d="M18.252 17.974a24.63 24.63 0 018.392.653l-.36 3.448c-2.09.885-4.501.692-7.028.106a14.046 14.046 0 01.75 1.723l-.961 2.125-1.523-2.711-1.466 3.514-.056-.014v-9.161z"/><path fill="#338c5d" d="M16.056 26.832l1.466-3.514 1.523 2.71.96-2.124c.47 1.34.478 2.32.015 2.997a40.901 40.901 0 003.872 1.557l-5.155.51 1.64 3.15L16 29.733v-2.915z"/><path fill="#349363" d="M18.643 17.647l-.598 2.43L16 18.711v-.689l2.643-.375z"/><path fill="#8ff888" d="M20.63 11.05c-1.87-2.411.96-10.387 4.535-7.454l1.903 1.871c3.172 1.886-3.488 7.422-6.438 5.582z"/><path fill="#3aa176" d="M19.045 11.017V7.656l1.3 1.871 2.156-.856-.285 2.346 2.347.635-3.838 1.078-1.68-1.713z"/><path fill="#a9faa2" d="M21.59 14.268c0 2.454-2.503 4.443-5.59 4.443V9.825c3.087 0 5.59 1.99 5.59 4.443z"/><path fill="#ffe28a" d="M17.352 10.864c-.11.304-.738.436-1.352.435V7.353c1.268 2.273 1.499 3.111 1.352 3.511z"/><circle cx="18.379" cy="13.142" r="1.491" fill="#ffd96c"/><path fill="#ffd04d" d="M22.186 5.532c.506.28-.303 1.747-.809 1.468-.593.026-1.125-.857-1.647-1.902 1.106.032 2.246.05 2.456.434zm2.584 4.109c-.429-.387.693-1.632 1.123-1.244.583.11.9 1.09 1.17 2.227-1.07-.283-2.176-.56-2.293-.983z"/><path fill="#d786b3" d="M28.176 2.86c1.006-3.071-1.301-3.828-2.308-.757-3.204-2.879-4.504-1.432-1.3 1.447-4.14.111-3.196 2.232.751 1.87-.56 3.225 1.124 3.889 1.744.786 2.062 2.97 4.088 1.8 1.792-1.108 3.295-.335 2.789-2.835-.68-2.239z"/><ellipse cx="26.643" cy="3.968" fill="#ffd04d" rx=".963" ry="1.511" transform="rotate(-35.61 26.644 3.968)"/><path fill="#379b6d" d="M30.702 18.334H28.08l-1.797-2.072-.753 2.664-2.312.845 1.797 1.734-.317 2.601 2.41-1.184 2.474.845-.275-2.939 1.395-2.494z"/><ellipse cx="27.51" cy="20.554" fill="#84ed82" rx="1.882" ry="1.797"/><path fill="#f7c845" d="M27.494 22.444c-.276-.308.617-1.11.894-.801.407.122.558.845.665 1.675-.741-.283-1.508-.564-1.559-.874zm1.701-1.287c-.414-.016-.366-1.216.048-1.2.37-.206.995.189 1.664.691-.718.335-1.454.689-1.712.51zm-.948-1.725c-.12.397-1.268.05-1.149-.346-.107-.411.43-.917 1.085-1.44.144.78.302 1.582.064 1.786z"/></svg>