<svg xmlns="http://www.w3.org/2000/svg" width="100%" height="100%" viewBox="-2.72 -2.72 37.44 37.44"><path fill="#C1DDEE" d="M1.644 21.612l6.013-1.172a.134.134 0 01.092.015l5.625 3.229a.135.135 0 01.065.141l-.039.211a.134.134 0 01-.111.108l-6.41.989a.136.136 0 01-.092-.019l-5.189-3.257a.134.134 0 01.046-.245z"/><path fill="#B0D3EA" d="M30.401 21.857l-5.189 3.257a.135.135 0 01-.092.019l-6.41-.989a.134.134 0 01-.111-.108l-.039-.211a.136.136 0 01.065-.141l5.625-3.229a.135.135 0 01.092-.015l6.013 1.172c.12.023.149.18.046.245z"/><path fill="#D2E6F3" d="M13.875 19.464c-.728 1.128-1.932 2.831-2.122 4.495l-5.43-.67a.136.136 0 00-.086.018L1.065 26.43c-.107.064-.075.227.048.247l5.965.962c.03.005.06 0 .086-.015l4.62-2.559c.332 1.95 2.085 3.079 4.216 3.079v-8.571c-.571-.002-1.823-.577-2.125-.109z"/><path fill="#C1DDEE" d="M30.935 26.43l-5.173-3.122a.13.13 0 00-.086-.018l-5.43.67c-.19-1.664-1.394-3.367-2.122-4.495-.302-.468-1.554.108-2.125.108v8.571c2.131 0 3.885-1.128 4.216-3.079l4.62 2.559c.026.015.057.02.086.015l5.965-.962c.124-.02.156-.183.049-.247z"/><path fill="#E2EFF7" d="M16 4.857c-.433 0-.5.353-.5 1 0 1.029-.625 3.187-.875 3.812C13.929 11.411 11 12.17 11 15.357c0 2.761 2.239 4.5 5 4.5v-15z"/><path fill="#FFA68E" d="M12.226 12.985L.101 3.87c-.055-.041-.126.022-.092.081l1.268 2.223s-1.714 4.996 1.519 7.452c3.165 2.404 6.923 1.006 8.312-.188l.998.142a.064.064 0 00.071-.053l.073-.483a.06.06 0 00-.024-.059z"/><path fill="#FFF" d="M3.905 6.73a3.028 3.028 0 00-.405.411c-1.133 1.436-.777 3.606.795 4.845 1.572 1.24 3.764 1.081 4.897-.355.158-.2.28-.417.381-.641L3.905 6.73z"/><path fill="#D84459" d="M5.212 7.712a1.714 1.714 0 00-.475.406c-.64.812-.439 2.038.449 2.738s2.128.611 2.768-.201c.154-.195.256-.415.315-.645L5.212 7.712z"/><path fill="#D2E6F3" d="M16 4.857c.433 0 .5.353.5 1 0 1.029.625 3.187.875 3.812C18.071 11.411 21 12.17 21 15.357c0 2.761-2.239 4.5-5 4.5v-15z"/><path fill="#FF9A7E" d="M19.774 12.985L31.899 3.87c.054-.041.125.022.092.081l-1.268 2.223s1.714 4.996-1.519 7.452c-3.165 2.404-6.923 1.006-8.312-.188l-.998.142a.064.064 0 01-.071-.053l-.073-.483a.06.06 0 01.024-.059z"/><path fill="#F7F7F7" d="M28.095 6.73c.144.125.284.257.405.412 1.133 1.436.777 3.606-.795 4.845-1.572 1.24-3.764 1.081-4.897-.355-.158-.2-.28-.417-.381-.641l5.668-4.261z"/><path fill="#C84054" d="M26.788 7.712c.177.106.341.236.475.406.64.812.439 2.038-.449 2.738s-2.128.611-2.768-.201a1.724 1.724 0 01-.315-.645l3.057-2.298z"/><path fill="#FF9A7E" d="M19.035 13.869c-.945-.812-1.285.488-3.035.488s-2.09-1.3-3.035-.488c-.973.836.41 4.988 3.035 4.988s4.008-4.152 3.035-4.988z"/><path fill="#FF8D6E" d="M16 17.315c1.083 0 1.833-.083 2.941-.8-.534 1.204-1.567 2.342-2.941 2.342v-1.542z"/><path fill="#FFA68E" d="M16 14.357c-1.75 0-2.09-1.3-3.035-.488-.973.836.41 4.988 3.035 4.988v-4.5z"/><path fill="#FF9A7E" d="M16 17.315c-1.083 0-1.833-.083-2.941-.8.534 1.204 1.567 2.342 2.941 2.342v-1.542z"/><circle cx="13.5" cy="14.5" r="1" fill="#373F3F"/><circle cx="13.5" cy="14.5" r=".5" fill="#FFF"/><circle cx="18.5" cy="14.5" r="1" fill="#2B3332"/><circle cx="18.5" cy="14.5" r=".5" fill="#F7F7F7"/></svg>