<svg xmlns="http://www.w3.org/2000/svg" width="100%" height="100%" viewBox="-2.72 -2.72 37.44 37.44"><path fill="#8fcec9" d="M12.774 2.333l-1.722 2.583h1.722l3.663 4.75v-8.39a7.233 7.233 0 00-3.663 1.057z"/><path fill="#79c6c1" d="M20.781 21.641A16.823 16.823 0 0021.913 31.9a5.148 5.148 0 012.828-.415c1.52-.012 2.56-.54 2.941-1.773-1.24-.574-1.998-1.985-2.15-4.45-.38-2.585 3.065-3.677-2.3-10.257-.315-2.502 2.23-9.706-2.64-12.671a9.013 9.013 0 00-4.155-1.057v8.39l2.487 3.226c-2.5 3.867 2.205 8.072 1.857 8.75z"/><path fill="#838c8a" d="M11.745 5.655v5.322c.192 2.066 0 3.61-1.16 3.61-1.304 0-1.533-.868-1.57-1.601 0-1.274 1.87-.922 1.365.502.553.189.955-.03.58-2.354-1.938-.085-3.118-3.542-.91-5.062Q7.028 3.987 7.32.934a6.176 6.176 0 013.424 3.578c-.335-1.94.003-3.575 1.66-4.613a6.868 6.868 0 01-.66 5.756z"/><path fill="#edeeee" d="M12.388 31.619c1.02-3.556 2.026-6.41 2.994-7.5l-1.704-1.986a22.655 22.655 0 00-1.29 9.486z"/><path fill="#e3e5e5" d="M19.577 28.154a11.106 11.106 0 01.8 3.745 8.402 8.402 0 00.452-3.255z"/><path fill="#757f7e" d="M15.92 12.783l-.26 1.803-5.257 3.814c-2.816.092-4.288 1.245-3.7 2.59.942 1.35 2.782.267 4.04-1.783l3.899-3.06-.4 2.484c0 .4 1.104.597 2.194.592v-6.372z"/><path fill="#687271" d="M18.547 18.63l-.29-2.444a4.91 4.91 0 01-.064-.982l-1.005-.618v-1.635l-.751-.1v6.372c1.062-.005 2.11-.202 2.11-.592z"/><path fill="#757f7e" d="M13.791 21.427l-.113.706 1.704 1.985 1.055 1.015v-3.218c-1.323 0-2.646-.163-2.646-.488z"/><path fill="#687271" d="M20.83 28.644l3.263-.994-5.011-6.223c0 .325-1.323.488-2.645.488v3.218l3.14 3.021z"/><path fill="#79c6c1" d="M14.242 18.63l-.45 2.797c0 .325 1.322.488 2.645.488v-2.692c-1.09.005-2.195-.191-2.195-.592z"/><path fill="#67bfb5" d="M19.082 21.427l-.535-2.796c0 .39-1.048.587-2.11.592v2.692c1.322 0 2.645-.163 2.645-.488z"/><path fill="#f7f7f7" d="M16.424 6.228a10.821 10.821 0 01-4.68-.93 5.21 5.21 0 00-1 3.032 5.567 5.567 0 005.68 5.446l.013-.002V6.227z"/><path fill="#edeeee" d="M22.105 8.33a5.21 5.21 0 00-1.001-3.032 10.81 10.81 0 01-4.667.93v7.546a5.565 5.565 0 005.668-5.444z"/><path fill="#909997" d="M16.424 5.938a11.096 11.096 0 01-4.535-.857c-.053.069-.094.146-.144.217a10.821 10.821 0 004.68.93h.012v-.291z"/><path fill="#838c8a" d="M20.959 5.08a11.087 11.087 0 01-4.522.857v.29a10.81 10.81 0 004.667-.929c-.05-.07-.091-.148-.145-.217z"/><path fill="#f7f7f7" d="M16.424 2.884a5.736 5.736 0 00-4.535 2.197 11.096 11.096 0 004.535.857l.013-.001V2.885z"/><path fill="#edeeee" d="M16.437 2.885v3.052a11.087 11.087 0 004.522-.856 5.736 5.736 0 00-4.522-2.196z"/><ellipse cx="13.678" cy="8.56" fill="#a9faa2" rx="1.117" ry="1.489"/><path fill="#8ff888" d="M19.261 7.071c-.617 0-1.117.667-1.117 1.489 0 .822.5 1.489 1.117 1.489s1.116-.667 1.116-1.49c0-.821-.5-1.488-1.116-1.488z"/><path fill="#c1fdbd" d="M16.424 4.916c-.422 0-.764.518-.764 1.156 0 .638.342 1.156.764 1.156l.013-.004V4.92z"/><path fill="#a9faa2" d="M17.188 6.072c0-.632-.336-1.141-.751-1.152v2.304c.415-.01.751-.52.751-1.152z"/><ellipse cx="13.398" cy="8.123" fill="#fff" rx=".345" ry=".436"/><ellipse cx="19.577" cy="8.123" fill="#fff" rx=".316" ry=".436"/><path fill="#c1fdbd" d="M20.216 13.214c-.428 0-.775.463-.775 1.034s.347 1.034.775 1.034.776-.463.776-1.034-.347-1.034-.776-1.034zm2.353 2.339c-.429 0-.776.463-.776 1.034s.347 1.034.776 1.034.776-.463.776-1.034-.348-1.034-.776-1.034zm-.776 3.67c-.428 0-.775.463-.775 1.034s.347 1.034.775 1.034.776-.463.776-1.034c0-.57-.347-1.034-.776-1.034zm2.853 1.17c-.428 0-.776.463-.776 1.034s.348 1.034.776 1.034.776-.463.776-1.034-.348-1.034-.776-1.034zm-1.301 3.37c-.429 0-.776.463-.776 1.034s.347 1.034.776 1.034.775-.463.775-1.034c0-.57-.347-1.034-.775-1.034z"/></svg>