<svg xmlns="http://www.w3.org/2000/svg" width="100%" height="100%" viewBox="-2.72 -2.72 37.44 37.44"><path fill="#9179C6" d="M15.997 8.167c-2.643 0-5.12 1.39-6.997 3.389V8H6l-.605 10.258c-.004.038-.005.074-.007.112l-.011.183.021-.003c.015.534.209 1.056.602 1.449V20h10V8.167h-.003z"/><path fill="#866EBA" d="M26.623 18.554l-.011-.184c-.002-.038-.002-.074-.007-.111L26 8h-3v3.555c-1.876-1.999-4.354-3.389-6.997-3.389H16V20h10v-.001c.393-.393.587-.915.602-1.449l.021.004z"/><path fill="#137FA0" d="M6 20l-1.142.761a2.53 2.53 0 00-.86 3.237L4 24h12v-4H6z"/><path fill="#0F769B" d="M26 20l1.142.761a2.53 2.53 0 01.86 3.237L28 24H16v-4h10z"/><path fill="#FFE28A" d="M4 24L.683 25.658A1.236 1.236 0 001.236 28H16v-4H4z"/><path fill="#FFD96C" d="M28 24l3.317 1.658A1.236 1.236 0 0130.764 28H16v-4h12z"/><path fill="#FFF" d="M14.48 12.768a.249.249 0 00-.067-.427c-.381-.147-1.003-.341-1.626-.341s-1.245.194-1.627.34a.249.249 0 00-.067.427c.372.296 1.033.732 1.693.732s1.322-.435 1.694-.731z"/><path fill="#373F3F" d="M12.787 12.25c0 .414.224.75.5.75s.5-.336.5-.75c0-.04-.011-.074-.015-.112a4.027 4.027 0 00-.952-.135 1.083 1.083 0 00-.033.247z"/><path fill="#F7F7F7" d="M17.52 12.768a.249.249 0 01.067-.427c.381-.147 1.003-.341 1.626-.341s1.245.194 1.627.34c.18.069.218.307.067.427-.372.296-1.033.732-1.693.732-.662.001-1.322-.435-1.694-.731z"/><path fill="#373F3F" d="M16 14.724c-1.1 0-2.199-.091-3.288-.272l-1.997-.333a.5.5 0 00-.572.591l.536 2.682A1.999 1.999 0 0012.64 19H16v-4.276z"/><path fill="#7A63AD" d="M16 17c-2.031 0-3.879.191-5.289.502A1.995 1.995 0 0012.64 19H16v-2z"/><path fill="#2B3332" d="M19.213 12.25c0 .414-.224.75-.5.75s-.5-.336-.5-.75c0-.04.011-.074.015-.112.293-.075.62-.132.952-.135.018.078.033.159.033.247z"/><path fill="#FF5F7E" d="M9.5 5.549c0 .272.072.539.208.775l.909 1.574a1 1 0 01-.366 1.366 1.003 1.003 0 01-1.367-.367l-.001-.002c-.105-.182-.383-.108-.383.102V9a1 1 0 01-2 0v-.003c0-.21-.278-.284-.383-.102l-.001.002a1 1 0 01-1.732-1l.908-1.574c.136-.235.208-.502.208-.774C5.5 4.694 6.193 4 7.049 4h.902A1.55 1.55 0 019.5 5.549z"/><path fill="#F3586F" d="M22.5 5.549c0 .272-.072.539-.208.775l-.909 1.574a1 1 0 001.732 1l.001-.003c.106-.182.384-.108.384.102V9a1 1 0 002 0v-.003c0-.21.278-.284.383-.102l.001.003a1 1 0 001.732-1l-.908-1.574a1.552 1.552 0 01-.208-.775C26.5 4.694 25.807 4 24.951 4h-.902A1.55 1.55 0 0022.5 5.549z"/><path fill="#2B3332" d="M19.007 15.53l-.253-1.011a20.03 20.03 0 01-2.755.206V19h2.625l.382-1.53a3.968 3.968 0 00.001-1.94zm2.278-1.411l-.981.164-.312 1.247a4.005 4.005 0 000 1.94l.321 1.285a1.998 1.998 0 001.008-1.363l.536-2.682a.499.499 0 00-.572-.591z"/><g fill="#6E57A0"><path d="M19.065 17.158C18.12 17.058 17.09 17 16 17v2h2.625l.382-1.53c.026-.103.041-.208.058-.312zm.89.11c.013.067.021.136.038.202l.321 1.286c.473-.259.833-.707.975-1.254-.407-.09-.86-.166-1.334-.234z"/><path d="M19.065 17.158C18.12 17.058 17.09 17 16 17v2h2.625l.382-1.53c.026-.103.041-.208.058-.312zm.89.11c.013.067.021.136.038.202l.321 1.286c.473-.259.833-.707.975-1.254-.407-.09-.86-.166-1.334-.234z"/></g><path fill="#9D85D3" d="M16 8.167C10.133 8.167 4.722 15.19 5.999 20H16V8.167z"/><path fill="#9179C6" d="M16 8.167c5.867 0 11.278 7.024 10.001 11.833H16V8.167z"/><path fill="#F3586F" d="M26.165 18H16v2h10.001a6.09 6.09 0 00.164-2z"/><path fill="#FF5F7E" d="M5.835 18a6.064 6.064 0 00.164 2H16v-2H5.835z"/><path fill="#FFE28A" d="M5.835 18H16v-6H8.57c-1.552 1.792-2.587 3.967-2.735 6z"/><path fill="#FFD96C" d="M16 18h10.165c-.147-2.033-1.182-4.208-2.735-6H16v6z"/><path fill="#373F3F" d="M16 14.724c-1.1 0-2.199-.091-3.288-.272l-1.997-.333a.5.5 0 00-.572.591l.536 2.682A1.999 1.999 0 0012.64 19H16v-4.276z"/><path fill="#9179C6" d="M16 17c-2.031 0-3.879.191-5.289.502A1.995 1.995 0 0012.64 19H16v-2z"/><path fill="#2B3332" d="M19.007 15.53l-.253-1.011a20.03 20.03 0 01-2.755.206V19h2.625l.382-1.53a3.968 3.968 0 00.001-1.94zm2.278-1.411l-.981.164-.312 1.247a4.005 4.005 0 000 1.94l.321 1.285a1.998 1.998 0 001.008-1.363l.536-2.682a.499.499 0 00-.572-.591z"/><path fill="#866EBA" d="M19.065 17.158C18.12 17.058 17.09 17 16 17v2h2.625l.382-1.53c.026-.103.041-.208.058-.312zm.89.11c.013.067.021.136.038.202l.321 1.286c.473-.259.833-.707.975-1.254-.407-.09-.86-.166-1.334-.234z"/><path fill="#FFF" d="M14.48 12.768a.249.249 0 00-.067-.427c-.381-.147-1.003-.341-1.626-.341s-1.245.194-1.627.34a.249.249 0 00-.067.427c.372.296 1.033.732 1.693.732s1.322-.435 1.694-.731z"/><path fill="#373F3F" d="M12.787 12.25c0 .414.224.75.5.75s.5-.336.5-.75c0-.04-.011-.074-.015-.112a4.027 4.027 0 00-.952-.135 1.083 1.083 0 00-.033.247z"/><path fill="#F7F7F7" d="M17.52 12.768a.249.249 0 01.067-.427c.381-.147 1.003-.341 1.626-.341s1.245.194 1.627.34c.18.069.218.307.067.427-.372.296-1.033.732-1.693.732-.662.001-1.322-.435-1.694-.731z"/><path fill="#2B3332" d="M19.213 12.25c0 .414-.224.75-.5.75s-.5-.336-.5-.75c0-.04.011-.074.015-.112.293-.075.62-.132.952-.135.018.078.033.159.033.247z"/><path fill="#FFF" d="M13.75 19.526c0 .632-1.5.632-1.5 0S12.379 18 13 18s.75.894.75 1.526z"/><path fill="#F7F7F7" d="M24.75 24.026c0 .632-1.5.632-1.5 0s.129-1.526.75-1.526.75.894.75 1.526zm-8.5-9.552c0-.632 1.5-.632 1.5 0S17.621 16 17 16s-.75-.894-.75-1.526z"/></svg>