<svg xmlns="http://www.w3.org/2000/svg" width="100%" height="100%" viewBox="-2.72 -2.72 37.44 37.44"><path fill="#373F3F" d="M10.187 29.25l.981 2.026a.5.5 0 01-.447.724H6.339a.5.5 0 01-.447-.724l1.046-2.026h3.249z"/><ellipse cx="8.781" cy="24.688" fill="#FBCFD6" rx="4.656" ry="5.312"/><path fill="#FCD8DE" d="M11 6.25c0 .653.024 1.262.123 1.806.023.283-.126.781-.38 1.432-2.831.288-8.482 3.293-9.679 4.101-.08.054-.071.178.019.216.411.176 1.025.237 1.025.237s-.417.243-1.06.761c-.081.065-.055.197.047.221 1.632.39 5.077.101 7.513-.514C7.281 17 7 19.454 7 21.125 7 26.031 11.029 30 16 30V1c-2.899 0-5 2.35-5 5.25z"/><path fill="#373F3F" d="M3.358 12.291c-1.064.551-1.909 1.039-2.294 1.298-.08.054-.071.178.019.216.411.176 1.025.237 1.025.237s-.417.243-1.06.761a.126.126 0 00.048.221c.563.134 1.342.188 2.22.176-.125-.575-.375-1.7.042-2.909z"/><path fill="#FDEBBB" d="M7.096 22.319C7.734 26.664 11.478 30 16 30V14.938c-4.971 0-8.5 5.062-8.904 7.381zm6.821 2.412c-.774 1.235-2.664 1.433-2.875.438-.22-1.039 1.492-1.438 2.375-1.438.284 0 .5.048.589.256.097.224.097.448-.089.744zm0-5.188c-.774 1.235-2.664 1.433-2.875.438-.22-1.039 1.492-1.438 2.375-1.438.284 0 .5.048.589.256.097.224.097.448-.089.744z"/><path fill="#F7D684" d="M27.062 7c.132.706 1.635 9.263-.958 12.042-3.5 3.75-6.927 3.896-10.104 3.896v3.188s7.042.464 11.312-3.806c4.271-4.271-.25-15.32-.25-15.32z"/><circle cx="27.062" cy="7" r="2" fill="#2B3332"/><path fill="#2B3332" d="M21.813 29.25l-.981 2.026a.5.5 0 00.447.724h4.382a.5.5 0 00.447-.724l-1.046-2.026h-3.249z"/><ellipse cx="23.219" cy="24.688" fill="#FAC4D1" rx="4.656" ry="5.312"/><path fill="#FBCFD6" d="M21 6.25c0 .653-.024 1.262-.123 1.806-.023.283.126.781.38 1.432 2.831.288 8.482 3.293 9.679 4.101.08.054.071.178-.019.216-.411.176-1.025.237-1.025.237s.417.243 1.06.761c.081.065.054.197-.047.221-1.632.39-5.077.101-7.513-.514C24.719 17 25 19.454 25 21.125 25 26.031 20.971 30 16 30V1c2.899 0 5 2.35 5 5.25z"/><path fill="#E3E5E5" d="M13.395.109a.125.125 0 01.206-.078l1.289 1.12-1.781.893.286-1.935z"/><path fill="#373F3F" d="M14.25 2.5c.646 0 1 1.047 1.75 1.047V1c-1.446 0-2.694.586-3.581 1.532-.09-.1-.177-.197-.294-.312-2.5-2.438-5.377-2.435-5.688-2-.312.438.422 1.88 1.854 2.562.784.373 2.257.818 3.312.961A5.573 5.573 0 0011 6.25c0 .703-.017 1.289 0 1.833.018.575-.041.805-.194 1.252 1.111 2.081 3.725 4.008 5.194 4.008v-3.281c-1.5-.062-3.334-1.186-3.688-2.218-.32-.936-.018-2.629.375-3.625.393-.997.969-1.719 1.563-1.719z"/><path fill="#373F3F" d="M15.138 7.031c-.122 0-.184.13-.097.206l.862.758a.146.146 0 00.097.036v-1h-.862z"/><path fill="#FCD8DE" d="M16 1.75v1.156c-.333 0-.854-.677-.862-1 0 0 .404-.156.862-.156z"/><path fill="#FFF" d="M14.32 3.68c.691 0 1 1.301 1 2.07 0 .453-.938.5-1.25.5-.469 0-1-.225-1-.689s.398-1.881 1.25-1.881z"/><path fill="#4896C8" d="M14.763 3.891c-.698.294-1.155 1.656-1.065 2.309.122.032.249.05.372.05.312 0 1.25-.047 1.25-.5 0-.579-.175-1.459-.557-1.859z"/><path fill="#373F3F" d="M14.602 5.031c-.219 0-.281.364-.281.812 0 .146.017.276.04.394.158-.012.337-.037.501-.084.014-.096.022-.2.022-.311-.001-.447-.048-.811-.282-.811z"/><path fill="#DADDDC" d="M18.891 2.044l-1.781-.893 1.289-1.12a.125.125 0 01.206.078l.286 1.935z"/><path fill="#2B3332" d="M25.562.22c-.31-.435-3.187-.438-5.687 2-.117.114-.204.212-.294.312C18.694 1.586 17.446 1 16 1v2.547c.75 0 1.104-1.047 1.75-1.047.594 0 1.17.722 1.562 1.719.393.996.695 2.689.375 3.625C19.334 8.876 17.5 10 16 10.062v3.281c1.469 0 4.083-1.927 5.194-4.008-.153-.447-.212-.677-.194-1.252.017-.544 0-1.131 0-1.833 0-.913-.228-1.758-.604-2.506 1.055-.143 2.529-.588 3.312-.961C25.141 2.101 25.875.658 25.562.22z"/><path fill="#2B3332" d="M16.862 7.031c.122 0 .184.13.097.206l-.862.758a.146.146 0 01-.097.036v-1h.862z"/><path fill="#FBCFD6" d="M16.862 1.906c-.008.323-.529 1-.862 1V1.75c.458 0 .862.156.862.156z"/><path fill="#F7F7F7" d="M17.68 3.68c-.691 0-1 1.301-1 2.07 0 .453.938.5 1.25.5.469 0 1-.225 1-.689s-.398-1.881-1.25-1.881z"/><path fill="#4390BF" d="M17.237 3.891c.698.294 1.155 1.656 1.065 2.309a1.48 1.48 0 01-.372.05c-.312 0-1.25-.047-1.25-.5 0-.579.175-1.459.557-1.859z"/><path fill="#2B3332" d="M17.398 5.031c.219 0 .281.364.281.812 0 .146-.017.276-.04.394a2.571 2.571 0 01-.501-.084 2.157 2.157 0 01-.022-.311c.001-.447.048-.811.282-.811zm11.244 7.26c1.064.551 1.909 1.039 2.294 1.298.08.054.071.178-.019.216-.411.176-1.025.237-1.025.237s.417.243 1.06.761a.126.126 0 01-.048.221c-.563.134-1.342.188-2.22.176.125-.575.375-1.7-.042-2.909z"/><path fill="#FAE09F" d="M16 14.938V30c4.522 0 8.266-3.336 8.904-7.681C24.5 20 20.971 14.938 16 14.938zm1.993 9.049c.089-.208.305-.256.589-.256.883 0 2.595.398 2.375 1.438-.211.996-2.101.798-2.875-.438-.185-.296-.185-.52-.089-.744zm0-5.188c.089-.208.305-.256.589-.256.883 0 2.595.398 2.375 1.438-.211.996-2.101.798-2.875-.438-.185-.296-.185-.52-.089-.744z"/></svg>