<svg xmlns="http://www.w3.org/2000/svg" width="100%" height="100%" viewBox="-2.72 -2.72 37.44 37.44"><path fill="#FFD96C" d="M7.355 10.164a.485.485 0 00-.352-.193v9.037c.359-.427 1.021-1.505 1.359-3.893.359-2.531-.434-4.149-1.007-4.951z"/><path fill="#FFD04D" d="M6.493 10.246c-.376.845-.931 2.362-.914 3.923.027 2.532 1.18 5.083 1.18 5.083s.097-.069.245-.244V9.971a.479.479 0 00-.511.275z"/><path fill="#E85160" d="M6.771 12.913c-.197.443-.489 1.239-.48 2.059.009.883.28 1.77.46 2.266.042.115.148.163.252.156v-4.63a.252.252 0 00-.232.149z"/><path fill="#D84459" d="M7.219 12.866a.25.25 0 00-.216-.103v4.63a.241.241 0 00.197-.114c.186-.312.417-.867.551-1.811.189-1.332-.231-2.182-.532-2.602z"/><path fill="#FFD96C" d="M11.282 12.218a.497.497 0 00-.74-.449c-.866.473-2.283 1.585-3.062 4.019-1.037 3.241-.357 4.423-.357 4.423s2.148-1.794 3.275-4.062c.694-1.4.855-3.006.884-3.931z"/><path fill="#D84459" d="M9.871 14.498a.26.26 0 00-.383-.238c-.454.246-1.202.829-1.612 2.111-.291.908-.324 1.508-.292 1.87a.25.25 0 00.423.159c.378-.368 1.008-1.049 1.4-1.84.364-.733.448-1.577.464-2.062z"/><path fill="#FFD96C" d="M12.793 14.915a.497.497 0 00-.587-.636c-.963.216-2.632.893-4.052 3.017-1.892 2.829-1.564 4.153-1.564 4.153s2.56-1.132 4.269-3.001c1.052-1.152 1.65-2.652 1.934-3.533z"/><path fill="#D84459" d="M10.806 16.717a.26.26 0 00-.302-.334c-.504.112-1.384.466-2.132 1.584-.53.793-.728 1.36-.797 1.717a.25.25 0 00.362.269c.465-.249 1.258-.73 1.854-1.382.553-.604.867-1.392 1.015-1.854z"/><path fill="#FFD04D" d="M2.689 11.78a.497.497 0 01.74-.449c.866.473 2.283 1.585 3.062 4.019 1.037 3.241.357 4.423.357 4.423S4.7 17.978 3.573 15.71c-.694-1.398-.855-3.005-.884-3.93z"/><path fill="#E85160" d="M4.1 14.061a.26.26 0 01.383-.238c.454.246 1.202.829 1.612 2.111.291.908.324 1.508.292 1.87a.25.25 0 01-.423.159c-.378-.368-1.008-1.049-1.4-1.84-.364-.734-.448-1.577-.464-2.062z"/><path fill="#FFD04D" d="M.678 14.477a.497.497 0 01.587-.636c.963.216 2.632.893 4.052 3.017 1.892 2.829 1.564 4.153 1.564 4.153s-2.56-1.132-4.269-3.001C1.56 16.858.962 15.358.678 14.477z"/><path fill="#E85160" d="M2.665 16.28a.26.26 0 01.302-.334c.504.112 1.384.465 2.132 1.584.53.793.728 1.36.797 1.717a.25.25 0 01-.362.269c-.465-.249-1.258-.73-1.854-1.382-.553-.605-.867-1.393-1.015-1.854z"/><path fill="#FFD96C" d="M5.937 19.375c-.062 1.062-.25 2.188-2.062 3.438C1.711 24.305.92 25.657 1.25 27.375 1.562 29 3 30.812 6.062 30.812c4.688 0 7.75-5 8.625-6.5.504-.864 1.915-5.729.438-6.25-4.688 0-7.744 10.931-9.938 8.938-1.604-1.458 2.479-2.208 2.354-7.667-.009-.411-1.604.042-1.604.042z"/><path fill="#FFD04D" d="M5.937 19.375c-.062 1.062-.25 2.188-2.062 3.438C1.711 24.305 1 25.625 1 27.375c0 1.938 1.937 3.75 5 3.75 4.687 0 7.812-5.312 8.687-6.812.252-.432.731-1.864.962-3.254-3.774 1.066-6.383 9.91-11.024 7.504-1.688-.875-2.417-3.229.437-5.5 1.572-1.251 1.891-2.297 1.984-4.156.015-.288-1.109.468-1.109.468z"/><path fill="#FEF1C6" d="M18.5 17.125V11.25l-4.969-.156v13c0 3.188.719 7.906 8.594 7.906 6 0 7.792-4.24 7.875-7.281.12-4.374-5.188-7.969-11.5-7.594zm0 8.75v-3.75c1.875 0 6.042.895 6.042 2.583 0 2.584-5.042 1.604-6.042 1.167z"/><path fill="#FFEAA7" d="M18.5 19.75v-8.625l-2.5.125v13c0 3.188 1.723 4.945 6.219 4.75 2.386-.104 5.031-1.874 5.031-4.25 0-2.906-3.031-5-8.75-5zm0 5.335v-2.397c1.875 0 5.235.219 5.25 1.656.021 1.948-3.549 1.91-4.708 1.448-.231-.092-.542-.459-.542-.707z"/><path fill="#FFF5D8" d="M16 3.375c-2.375 0-4.625 2.571-4.625 5.125s3.187 4.125 4.625 4.125v-9.25z"/><path fill="#FFF5D8" d="M15.521.857L13 9.29h3V.5a.49.49 0 00-.479.357z"/><path fill="#FEF1C6" d="M16 3.375c2.375 0 4.625 2.571 4.625 5.125S17.437 12.625 16 12.625v-9.25z"/><path fill="#FEF1C6" d="M16.479.857L19 9.29h-3V.5a.49.49 0 01.479.357z"/><path fill="#3980A8" d="M19.06 7.495c.055-.046.14-.039.181.02a1.454 1.454 0 01-2.215 1.863c-.051-.05-.043-.135.011-.181l2.023-1.702z"/><path fill="#2B3332" d="M17.294 8.98c.441.408 1.06.49 1.457.156s.422-.958.096-1.462L17.294 8.98z"/><path fill="#3E88B3" d="M12.888 7.495c-.055-.046-.14-.039-.181.02a1.454 1.454 0 002.215 1.863c.051-.05.043-.135-.011-.181l-2.023-1.702z"/><path fill="#373F3F" d="M14.653 8.98c-.441.408-1.06.49-1.457.156-.397-.334-.422-.958-.096-1.462l1.553 1.306z"/><path fill="#71B1E1" d="M15.041 8.875l-3.011-2.63s-.895 1.161-.614 2.911 1.088 9.956.584 12.032c-.667 2.747-2.739 4.331-3.167 4.71a.125.125 0 01-.191-.03L8.354 25l-1.172.468a.126.126 0 01-.141-.05l-.416-1.105-1.404.432c-.125.009-.158-.123-.085-.224.656-.896 3.697-3.854 4.031-5.729.462-2.599.958-7.5 1.051-9.703.083-1.967 1.324-3.526 2.199-3.714.719-.154 1.469.062 2.156.875.589.696.766 2.123.672 2.557a.125.125 0 01-.204.068z"/><path fill="#65A9DC" d="M16.908 8.875l3.011-2.63s.895 1.161.614 2.911-1.087 9.956-.584 12.031c.667 2.747 2.739 4.331 3.167 4.71.059.052.15.038.191-.03l.288-.867 1.172.468a.126.126 0 00.141-.05l.416-1.105 1.404.432c.125.009.158-.123.085-.224-.656-.896-3.697-3.854-4.031-5.729-.462-2.599-.958-7.5-1.051-9.703-.083-1.967-1.324-3.526-2.199-3.714-.719-.154-1.469.062-2.156.875-.589.696-.766 2.123-.672 2.557.02.093.132.129.204.068z"/><g fill="#FF5F7E"><path d="M15.102 9.312a.248.248 0 01-.16-.058 3.23 3.23 0 00-.138-.108c-2.288-1.769-3.614-3.23-3.942-4.347-.285-.97-.157-1.9.351-2.554.461-.593 1.158-.892 2.024-.871a.25.25 0 01-.01.5 3.085 3.085 0 00-.106-.002c-.636 0-1.171.239-1.514.68-.408.525-.505 1.293-.265 2.106.204.696 1.024 1.972 3.768 4.092l.152.119c.105.089.12.246.032.353a.249.249 0 01-.192.09z"/><path d="M15.102 9.312a.248.248 0 01-.16-.058 3.23 3.23 0 00-.138-.108c-2.288-1.769-3.614-3.23-3.942-4.347-.285-.97-.157-1.9.351-2.554.461-.593 1.158-.892 2.024-.871a.25.25 0 01-.01.5 3.085 3.085 0 00-.106-.002c-.636 0-1.171.239-1.514.68-.408.525-.505 1.293-.265 2.106.204.696 1.024 1.972 3.768 4.092l.152.119c.105.089.12.246.032.353a.249.249 0 01-.192.09z"/></g><path fill="#71B1E1" d="M16.898 9.312a.247.247 0 01-.192-.09.252.252 0 01.032-.353c.025-.021.077-.061.152-.119 2.743-2.12 3.563-3.396 3.768-4.092.24-.813.144-1.581-.265-2.106-.36-.463-.944-.695-1.61-.678h-.01a.25.25 0 01-.01-.5c.878-.026 1.562.278 2.024.871.508.653.636 1.584.351 2.554-.328 1.116-1.654 2.578-3.942 4.347l-.138.108a.241.241 0 01-.16.058z"/><path fill="#F3586F" d="M16.898 9.312a.247.247 0 01-.192-.09.252.252 0 01.032-.353c.025-.021.077-.061.152-.119 2.743-2.12 3.563-3.396 3.768-4.092.24-.813.144-1.581-.265-2.106-.36-.463-.944-.695-1.61-.678h-.01a.25.25 0 01-.01-.5c.878-.026 1.562.278 2.024.871.508.653.636 1.584.351 2.554-.328 1.116-1.654 2.578-3.942 4.347l-.138.108a.241.241 0 01-.16.058z"/></svg>