<svg xmlns="http://www.w3.org/2000/svg" width="100%" height="100%" viewBox="-2.72 -2.72 37.44 37.44"><path fill="#edeeee" d="M12.275 32c.939-3.272 1.864-5.899 2.754-6.902l-1.568-1.826A20.847 20.847 0 0012.275 32z"/><path fill="#757f7e" d="M15.524 14.667l-.238 1.66-4.838 3.51c-2.592.084-3.946 1.144-3.404 2.382.866 1.243 2.56.247 3.717-1.64l3.587-2.817-.368 2.286c0 .37 1.017.55 2.02.546V14.73z"/><path fill="#c976a3" d="M13.98 20.048l-.414 2.574c0 .299 1.217.449 2.434.449v-2.477c-1.003.004-2.02-.177-2.02-.546z"/><path fill="#c56a9b" d="M18.434 22.622l-.492-2.574c0 .36-.965.54-1.942.546v2.477c1.217 0 2.434-.15 2.434-.45z"/><path fill="#757f7e" d="M16.476 14.667l.238 1.66 4.838 3.51c2.592.084 3.946 1.144 3.404 2.382-.866 1.243-2.56.247-3.717-1.64l-3.587-2.817.368 2.286c0 .37-1.017.55-2.02.546V14.73z"/><path fill="#f7f7f7" d="M15.989 8.636a9.958 9.958 0 01-4.306-.856 4.794 4.794 0 00-.922 2.79 5.123 5.123 0 005.228 5.01H16V8.634z"/><path fill="#edeeee" d="M16 15.58a5.121 5.121 0 005.216-5.01c0-.081-.016-.158-.02-.238H16zm0-6.945v1.697h5.196a4.828 4.828 0 00-.901-2.552A9.95 9.95 0 0116 8.635z"/><path fill="#909997" d="M15.989 8.368a10.21 10.21 0 01-4.173-.788c-.05.064-.087.135-.133.2a9.958 9.958 0 004.306.856H16v-.268z"/><path fill="#838c8a" d="M20.162 7.58A10.202 10.202 0 0116 8.368v.267a9.95 9.95 0 004.295-.855c-.047-.065-.084-.137-.133-.2z"/><path fill="#f7f7f7" d="M15.989 5.559a5.279 5.279 0 00-4.173 2.021 10.21 10.21 0 004.173.788H16V5.559z"/><path fill="#edeeee" d="M16 5.56v2.808a10.202 10.202 0 004.162-.788A5.279 5.279 0 0016 5.56z"/><ellipse cx="13.461" cy="10.781" fill="#bf4f3c" rx="1.027" ry="1.37"/><path fill="#b94a34" d="M19.558 10.332a1.093 1.093 0 00-.959-.92 1.093 1.093 0 00-.96.92 1.745 1.745 0 00-.067.449c0 .757.46 1.37 1.027 1.37s1.027-.613 1.027-1.37a1.745 1.745 0 00-.068-.449z"/><path fill="#d786b3" d="M15.989 7.429c-.389 0-.703.476-.703 1.063s.314 1.063.703 1.063L16 9.552v-2.12z"/><path fill="#c976a3" d="M16.692 8.492c0-.581-.31-1.05-.692-1.06v2.12c.383-.01.692-.479.692-1.06z"/><ellipse cx="13.204" cy="10.38" fill="#fff" rx=".317" ry=".402"/><path fill="#fff" d="M18.6 10.38c0 .221.13.401.29.401s.291-.18.291-.402c0-.016-.005-.03-.006-.047h-.57c0 .017-.006.03-.006.047zm.29-.402c-.149 0-.267.156-.284.354h.569c-.018-.198-.136-.354-.285-.354z"/><path fill="#edeeee" d="M19.725 32c-.939-3.272-1.864-5.899-2.754-6.902l1.568-1.826A20.847 20.847 0 0119.725 32z"/><path fill="#757f7e" d="M18.434 22.622c.353-.846 3.445 2.096 6.312 1.425.033 1.271-8.713 2.145-8.746.874v-1.85c1.217 0 2.434-.15 2.434-.45zm-4.868 0c-.353-.846-3.445 2.096-6.312 1.425-.033 1.271 8.713 2.145 8.746.874v-1.85c-1.217 0-2.434-.15-2.434-.45z"/><path fill="#db92bb" d="M11.463 4.973v3.135c0-.52 2.268-.78 4.537-.78v-2.87c-2.269 0-4.537.171-4.537.514z"/><path fill="#d786b3" d="M20.537 8.108V4.973c0-.343-2.268-.514-4.537-.514v2.868c2.269 0 4.537.26 4.537.78z"/><path fill="#e2a1c8" d="M8.395.889a5.295 5.295 0 00-.435 2.974c.332.69 1.763 1.039 3.723 1.221C12.97 5.03 14.496 4.86 16 4.78V1.456c-3.039.055-6.38.177-7.605-.567z"/><path fill="#db92bb" d="M21.014 5.354c.53.445.972-1.407.731-2.698.415-1.24-2.491-1.259-5.745-1.2V4.78a10.842 10.842 0 015.014.574z"/><path fill="#838c8a" d="M11.067 2.97c-1.066.376-1.066 2.661 0 2.747-.1 1.066 0 1.863.599 1.863.672 0 .79-.447.81-.826 0-.657-.966-.476-.705.259-.285.098-.492-.016-.3-1.215a1.465 1.465 0 00.47-2.612 2.788 2.788 0 001.41-2.651 3.188 3.188 0 00-1.768 1.846A2.107 2.107 0 0010.726 0a3.545 3.545 0 00.34 2.97z"/></svg>