<svg xmlns="http://www.w3.org/2000/svg" width="100%" height="100%" viewBox="-2.72 -2.72 37.44 37.44"><path fill="#B93D4F" d="M11 21l-2.722 4.537a.5.5 0 00.205.704L12 28l2-6-3-1z"/><path fill="#A93949" d="M21 21l2.722 4.537a.5.5 0 01-.205.704L20 28l-2-6 3-1z"/><path fill="#C84054" d="M16 23h-3l-1.781 5.342a.5.5 0 00.475.658H16v-6z"/><path fill="#B93D4F" d="M16 29h4.306a.5.5 0 00.474-.658L19 23h-3v6z"/><path fill="#EDEEEE" d="M23 30.667l1.582.264a.5.5 0 01.418.493v.076a.5.5 0 01-.5.5H23v-1.333z"/><path fill="#F7F7F7" d="M9 30.667l-1.582.263a.501.501 0 00-.418.494v.076a.5.5 0 00.5.5H9v-1.333z"/><path fill="#E85160" d="M16 0h-.414a1 1 0 00-.983.814l-.138.729a9.992 9.992 0 00.281 4.844L15.25 8H16V0z"/><path fill="#D84459" d="M17.397.814A1 1 0 0016.414 0H16v8h.75l.504-1.613c.49-1.567.586-3.231.281-4.844l-.138-.729zM19 30v-5h-2v6.5a.5.5 0 00.5.5H23v-1.333L19 30z"/><path fill="#E85160" d="M13 25v5l-4 .667V32h5.5a.5.5 0 00.5-.5V25h-2z"/><path fill="#AADB3D" d="M16 7C9.925 7 5 10.925 5 17s4.925 10 11 10V7z"/><path fill="#A2D336" d="M27 17c0-6.075-4.925-10-11-10v20c6.075 0 11-3.925 11-10z"/><path fill="#9ACC2E" d="M16 23v4c6.075 0 11-3.925 11-10 0-.109-.013-.213-.016-.321C25.126 20.626 20.91 23 16 23z"/><path fill="#A2D336" d="M5.016 16.679C5.013 16.787 5 16.891 5 17c0 6.075 4.925 10 11 10v-4c-4.91 0-9.126-2.374-10.984-6.321z"/><path fill="#FFF" d="M12.819 13.317a.25.25 0 010 .366C12.399 14.083 11.295 15 10 15s-2.399-.917-2.819-1.317a.25.25 0 010-.366C7.601 12.917 8.705 12 10 12s2.399.917 2.819 1.317z"/><path fill="#F7F7F7" d="M24.819 13.317a.25.25 0 010 .366C24.399 14.083 23.295 15 22 15s-2.399-.917-2.819-1.317a.25.25 0 010-.366C19.601 12.917 20.705 12 22 12s2.399.917 2.819 1.317z"/><path fill="#373F3F" d="M8.677 12.308A1.484 1.484 0 008.5 13a1.5 1.5 0 003 0c0-.251-.068-.484-.177-.692-.4-.178-.846-.308-1.323-.308s-.923.13-1.323.308z"/><path fill="#2B3332" d="M20.677 12.308A1.484 1.484 0 0020.5 13a1.5 1.5 0 003 0c0-.251-.068-.484-.177-.692-.4-.178-.846-.308-1.323-.308s-.923.13-1.323.308z"/><ellipse cx="6.174" cy="20" fill="#FFE28A" rx="3" ry="5" transform="rotate(-14.999 6.175 20.001)"/><path fill="#E85160" d="M3.277 20.776c.715 2.667 2.591 4.482 4.192 4.053L4.88 15.17c-1.6.429-2.318 2.939-1.603 5.606z"/><path fill="#373F3F" d="M3.594 21.727c.28.695.645 1.293 1.052 1.789l1.339-.359.438 1.636c.352.098.705.128 1.045.037s.631-.293.887-.555l-2.43-9.068c-.352-.098-.705-.128-1.045-.037s-.631.293-.887.555l.438 1.636-1.338.359a6.835 6.835 0 00-.017 2.075l1.873-.502.518 1.932-1.873.502z"/><ellipse cx="25.826" cy="20" fill="#FFD96C" rx="5" ry="3" transform="rotate(-75.001 25.826 20)"/><path fill="#D84459" d="M28.723 20.776c-.715 2.667-2.591 4.482-4.192 4.053l2.588-9.659c1.601.429 2.319 2.939 1.604 5.606z"/><path fill="#2B3332" d="M28.406 21.727a6.855 6.855 0 01-1.052 1.789l-1.339-.359-.438 1.636c-.352.098-.705.128-1.045.037s-.631-.293-.887-.555l2.43-9.068c.352-.098.705-.128 1.045-.037s.631.293.887.555l-.438 1.636 1.339.359c.105.633.122 1.333.017 2.075l-1.873-.502-.518 1.932 1.872.502z"/><path fill="#FFE28A" d="M16 15c-2 0-4 .343-4 2 0 1.352 2.665 2.496 3.645 2.87.116.044.236.067.355.067V15z"/><path fill="#FFD96C" d="M16.355 19.87C17.335 19.496 20 18.352 20 17c0-1.657-2-2-4-2v4.937c.12 0 .239-.022.355-.067z"/></svg>