<svg xmlns="http://www.w3.org/2000/svg" width="100%" height="100%" viewBox="-2.72 -2.72 37.44 37.44"><path fill="#F0C877" d="M21.783 24.515c.562.625 1.875 3.438 1.312 5.688s-1.5 1.75-3.062 1.75-2.125-.062-2.625-1.562-.062-4 1.312-5.625 3.063-.251 3.063-.251z"/><path fill="#F7D684" d="M13.342 24.515c.562.625 1.875 3.438 1.312 5.688s-1.5 1.75-3.062 1.75-2.125-.063-2.625-1.563-.062-4 1.312-5.625 3.063-.25 3.063-.25z"/><path fill="#8EC0E0" d="M11.833 9.333s2.079 1.479.767 3.417H16V8.86c-2.053.146-4.167.473-4.167.473z"/><path fill="#7FB8E0" d="M20.167 9.333s-2.079 1.479-.767 3.417H16V8.86c2.053.146 4.167.473 4.167.473z"/><path fill="#F7D684" d="M21.684 6.078c0-2.637-2.545-4.774-5.684-4.774s-5.684 2.137-5.684 4.774S12.861 11.32 16 11.32s5.684-2.605 5.684-5.242z"/><path fill="#FAE09F" d="M16 1.304c-3.139 0-5.684 2.137-5.684 4.774S12.861 11.32 16 11.32V1.304z"/><path fill="#FFF3D9" d="M16 7.511c-2.25 0-3.542 1.281-4.021 2.175 1.029.982 2.45 1.634 4.021 1.634V7.511z"/><path fill="#FDEBBB" d="M16 7.511c2.25 0 3.542 1.281 4.021 2.175-1.029.982-2.451 1.634-4.021 1.634V7.511z"/><ellipse cx="21.267" cy="2.216" fill="#F7D684" rx="2.408" ry="2.006" transform="rotate(-45.001 21.267 2.216)"/><ellipse cx="10.733" cy="2.216" fill="#FAE09F" rx="2.006" ry="2.408" transform="rotate(-45.001 10.733 2.216)"/><path fill="#FFF" d="M11.552 3.5c-.125 0-.247.018-.366.049-.548.734-.87 1.599-.87 2.53 0 .825.249 1.647.688 2.387.175.069.356.117.548.117 1.064 0 1.927-1.138 1.927-2.541.001-1.404-.862-2.542-1.927-2.542z"/><ellipse cx="11.542" cy="6.062" fill="#373F3F" rx=".458" ry=".646"/><path fill="#FAE09F" d="M10.336 5.75a4.234 4.234 0 01.852-2.204c.118-.03.24-.046.364-.046.989 0 1.794.985 1.905 2.25h-3.121z"/><path fill="#9D8978" d="M11.552 3.5c-.125 0-.247.018-.366.049a4.41 4.41 0 00-.541.943c.249-.301.564-.492.907-.492.774 0 1.427.935 1.427 2.041 0 1.107-.654 2.041-1.427 2.041-.384 0-.737-.231-.997-.597.113.337.263.666.449.98.175.069.356.117.548.117 1.064 0 1.927-1.138 1.927-2.541.001-1.403-.862-2.541-1.927-2.541z"/><path fill="#F7F7F7" d="M20.448 3.5c.125 0 .247.018.366.049.548.734.87 1.599.87 2.53 0 .825-.249 1.647-.688 2.387a1.487 1.487 0 01-.548.117c-1.064 0-1.927-1.138-1.927-2.541-.001-1.404.862-2.542 1.927-2.542z"/><ellipse cx="20.458" cy="6.062" fill="#2B3332" rx=".458" ry=".646"/><path fill="#F7D684" d="M18.542 5.75c.111-1.265.916-2.25 1.905-2.25.125 0 .246.016.364.046.484.647.786 1.397.852 2.204h-3.121z"/><path fill="#988371" d="M20.448 3.5c.125 0 .247.018.366.049.22.294.402.61.541.943-.249-.301-.564-.492-.907-.492-.774 0-1.427.935-1.427 2.041 0 1.107.654 2.041 1.427 2.041.384 0 .737-.231.997-.597a5.114 5.114 0 01-.449.98 1.487 1.487 0 01-.548.117c-1.064 0-1.927-1.138-1.927-2.541-.001-1.403.862-2.541 1.927-2.541z"/><path fill="#F0C877" d="M25.062 22.209c0-5.005-4.057-10.334-9.062-10.334s-9.063 5.329-9.063 10.334S10.995 30 16 30s9.062-2.786 9.062-7.791z"/><path fill="#F7D684" d="M16 11.875c-5.005 0-9.063 5.329-9.063 10.334S10.995 30 16 30V11.875z"/><path fill="#9FC9E4" d="M16 11.875c-3.1 0-5.728 1.964-7.372 4.627 1.005-.348 2.203-.742 2.728-.914a.497.497 0 01.483.099l1.175 1.028a.502.502 0 00.591.05s1.365-.883 2.124-1.377a.466.466 0 01.271-.097v-3.416z"/><path fill="#8EC0E0" d="M16 11.875c3.094 0 5.728 1.964 7.372 4.627a188.306 188.306 0 00-2.728-.914.497.497 0 00-.483.099l-1.175 1.028a.502.502 0 01-.591.05s-1.365-.883-2.124-1.377a.464.464 0 00-.271-.096v-3.417z"/><path fill="#FFF3D9" d="M16 21.792c-5.005 0-3.333 5.845-6.806 5.845C10.855 29.182 13.288 30 16 30v-8.208z"/><path fill="#FDEBBB" d="M16 21.792c5.005 0 3.333 5.845 6.806 5.845C21.145 29.182 18.712 30 16 30v-8.208z"/><path fill="#F7D684" d="M24.094 24.515c.562.625 1.875 3.438 1.312 5.688s-1.5 1.75-3.062 1.75-2.125-.062-2.625-1.562-.062-4 1.312-5.625 3.063-.251 3.063-.251z"/><path fill="#FAE09F" d="M7.906 24.515c-.562.625-1.875 3.438-1.312 5.688s1.5 1.75 3.063 1.75 2.125-.062 2.625-1.562.062-4-1.312-5.625-3.064-.251-3.064-.251z"/></svg>