<svg xmlns="http://www.w3.org/2000/svg" width="100%" height="100%" viewBox="-2.72 -2.72 37.44 37.44"><path fill="#FFE28A" d="M16 0v28H6.236a2 2 0 01-1.789-1.106L2 22 8.702 4.767a5.99 5.99 0 01.792-1.425L12 0h4z"/><path fill="#FFEAA7" d="M12 0l-1.3 5.6L16 6.633V0z"/><path fill="#373F3F" d="M16 10V6.633l-4.775-.931a1 1 0 00-.901.277l-3.46 3.487-.197.534H16z"/><path fill="#FFEAA7" d="M9 10l-1.867 8H16v-8z"/><path fill="#9DA5A4" d="M11.5 9.239c-1.649 0-2.201-1.082-2.225-1.128a.25.25 0 01.449-.222c.022.043.458.85 1.776.85 1.325 0 1.759-.816 1.776-.851a.252.252 0 01.335-.11c.123.062.174.21.113.333-.023.046-.575 1.128-2.224 1.128z"/><path fill="#FFD96C" d="M16 0v28h9.764a2 2 0 001.789-1.106L30 22 23.298 4.767a5.99 5.99 0 00-.792-1.425L20 0h-4z"/><path fill="#FFE28A" d="M20 0l1.3 5.6L16 6.633V0z"/><path fill="#2B3332" d="M16 10V6.633l4.775-.931a1 1 0 01.901.277l3.46 3.487.197.534H16z"/><path fill="#FFE28A" d="M23 10l1.867 8H16v-8z"/><path fill="#D64F45" d="M16 11.031l-.75 1.375h1.5z"/><path fill="#909997" d="M20.5 9.239c-1.649 0-2.201-1.082-2.225-1.128a.25.25 0 01.114-.334.251.251 0 01.335.114c.017.033.45.849 1.775.849s1.759-.816 1.776-.851a.252.252 0 01.335-.11c.123.062.174.21.113.333-.022.045-.574 1.127-2.223 1.127z"/><path fill="#FFD04D" d="M24.867 18l-1.21 10h2.108a2 2 0 001.789-1.106L30 22l-5.133-4z"/><path fill="#FFD96C" d="M7.133 18L2 22l1.193 2.387 1.254 2.508A2.002 2.002 0 006.236 28h2.108L7.133 18z"/><path fill="#FFEAA7" d="M7.5 26h6v6h-6z"/><path fill="#FFD96C" d="M13.5 26l1.5 2.033-.427 3.296a.499.499 0 01-.329.407L13.5 32v-6z"/><path fill="#FFE28A" d="M7.5 26L6 28.033l.427 3.296a.499.499 0 00.329.407L7.5 32v-6zm11 0h6v6h-6z"/><path fill="#FFD96C" d="M24.5 26l1.5 2.033-.427 3.296a.499.499 0 01-.329.407L24.5 32v-6z"/><path fill="#FFD04D" d="M18.5 26L17 28.033l.427 3.296a.499.499 0 00.329.407L18.5 32v-6z"/><path fill="#FFEAA7" d="M29.562 15.312l-3.906-7.055c-.135-.107-.306-.159-.473-.096l-.486.183 4.864 12.53v-5.562z"/><path fill="#FFE28A" d="M29.562 15.312l1.348-.117a1.004 1.004 0 00-.167-.343l-4.988-6.527c-.026-.034-.068-.043-.1-.068l3.907 7.055z"/><path fill="#FFD96C" d="M30.911 15.195l-1.348.117v5.562L30 22l.939-6.396c.02-.138.008-.277-.028-.409z"/><path fill="#FEF1C6" d="M2.438 15.312l3.906-7.055c.134-.106.306-.158.472-.095l.486.183-4.864 12.53v-5.563z"/><path fill="#FFEAA7" d="M2.438 15.312l-1.348-.117c.034-.122.088-.24.167-.343l4.988-6.527c.026-.034.068-.043.1-.068l-3.907 7.055z"/><path fill="#FFE28A" d="M1.089 15.195l1.348.117v5.562L2 22l-.939-6.396a1.006 1.006 0 01.028-.409z"/><path fill="#D1473D" d="M15.233 12.395l-4.987 3.435c.091.101.219.17.369.17h3.461a.497.497 0 00.35-.143L16 14.312v-1.906h-.75l-.017-.011z"/><path fill="#DD564C" d="M13.667 11.375l-2.731 1.194a.5.5 0 00-.289.355l-.52 2.473a.492.492 0 00.12.433l4.987-3.435-1.567-1.02z"/><path fill="#D64F45" d="M15.689 7.881l-1.705 1.357a.5.5 0 00-.187.355l-.13 1.782 1.583 1.031.75-1.375V7.772c-.11 0-.22.037-.311.109z"/><path fill="#D1473D" d="M18.333 11.375l-.13-1.782a.5.5 0 00-.187-.355l-1.705-1.357A.502.502 0 0016 7.772v3.259l.75 1.375 1.583-1.031z"/><path fill="#CF3C35" d="M16.75 12.406H16v1.906l1.573 1.544a.494.494 0 00.35.144h3.461c.15 0 .279-.069.369-.17l-4.988-3.434-.015.01z"/><path fill="#D64F45" d="M21.873 15.397l-.52-2.473a.5.5 0 00-.289-.355l-2.731-1.194-1.568 1.021 4.988 3.434a.49.49 0 00.12-.433z"/><path fill="#DD564C" d="M15.25 12.406l.75-1.375v1.375z"/></svg>