<svg xmlns="http://www.w3.org/2000/svg" width="100%" height="100%" viewBox="-2.72 -2.72 37.44 37.44"><path fill="#FFD96C" d="M.533 32a.497.497 0 01-.499-.531C.205 29.027 1.085 19 4 19c2.948 0 2.237 10.259 2.041 12.55a.493.493 0 01-.498.45H.533z"/><path fill="#FFD04D" d="M31.467 32c.29 0 .519-.242.499-.531C31.795 29.027 30.915 19 28 19c-2.948 0-2.237 10.259-2.041 12.55.022.259.238.45.498.45h5.01z"/><path fill="#FFD96C" d="M16 2C7.163 2 1 7.163 1 16c0 3.91 3.507 7.485 7 11.138 2.551 2.667 4.588 4.792 8 4.792s5.449-2.124 8-4.792c3.493-3.653 7-7.228 7-11.138 0-8.837-6.163-14-15-14z"/><path fill="#FFE28A" d="M16 2C7.163 2 1 7.163 1 16c0 .97.217 1.918.594 2.853C4.599 22.471 9.919 24 16 24s11.401-1.529 14.406-5.147C30.783 17.918 31 16.97 31 16c0-8.837-6.163-14-15-14z"/><path fill="#FFEAA7" d="M16 2C9.691 2 4.759 4.644 2.445 9.367 5.549 12.33 10.457 13.602 16 13.602s10.451-1.273 13.555-4.236C27.241 4.644 22.309 2 16 2z"/><path fill="#FFE28A" d="M16 2v29.929c-3.412 0-5.449-2.124-8-4.792C4.507 23.485 1 19.91 1 16 1 7.163 7.163 2 16 2z"/><path fill="#FFEAA7" d="M16 2v22c-6.081 0-11.401-1.529-14.406-5.147C1.217 17.918 1 16.97 1 16 1 7.163 7.163 2 16 2z"/><path fill="#FEF1C6" d="M16 2v11.602c-5.543 0-10.451-1.273-13.555-4.236C4.759 4.644 9.691 2 16 2z"/><path fill="#FFF5D8" d="M.288 6.786a17.527 17.527 0 007.866 1.865H9l2.333-3.318L.743.064A.5.5 0 000 .501v5.832a.5.5 0 00.288.453z"/><path fill="#FEF1C6" d="M31.712 6.786a17.527 17.527 0 01-7.866 1.865H23l-2.333-3.318L31.258.063A.5.5 0 0132 .501v5.832a.5.5 0 01-.288.453z"/><path fill="#FFD04D" d="M16 4.006C11.583 4.007 8 5.583 8 10c0 2.461 1.482 3.973 3.681 5.715.98.777 2.219 1.715 3.118 2.39a2 2 0 002.402 0c.899-.674 2.138-1.613 3.118-2.39C22.518 13.973 24 12.461 24 10c0-4.417-3.583-5.993-8-5.994z"/><path fill="#746E6E" d="M22.5 10c0 1.657-1.119 3-2.5 3s-2-1.343-2-3 .619-3 2-3 2.5 1.343 2.5 3z"/><ellipse cx="20" cy="10" fill="#FFE28A" rx="1.5" ry="2"/><ellipse cx="20" cy="10" fill="#2B3332" rx=".75" ry="1"/><path fill="#FFD96C" d="M18.356 21.902a.94.94 0 01-1.023-.911l-.181-6.778a.25.25 0 01.228-.256l.528-.047a.25.25 0 01.269.211l1.023 6.703a.939.939 0 01-.844 1.078zM16 4.006v14.499a2 2 0 01-1.201-.401 158.355 158.355 0 01-3.118-2.39C9.482 13.973 8 12.461 8 10c0-4.417 3.583-5.993 8-5.994z"/><path fill="#807A7A" d="M9.5 10c0 1.657 1.119 3 2.5 3s2-1.343 2-3-.619-3-2-3-2.5 1.343-2.5 3z"/><ellipse cx="12" cy="10" fill="#FFEAA7" rx="1.5" ry="2"/><ellipse cx="12" cy="10" fill="#373F3F" rx=".75" ry="1"/><path fill="#FFE28A" d="M13.644 21.902a.94.94 0 001.023-.911l.181-6.778a.25.25 0 00-.228-.256l-.528-.047a.25.25 0 00-.269.211L12.8 20.824a.939.939 0 00.844 1.078z"/><path fill="#807A7A" d="M29.467 32c.29 0 .519-.242.499-.531C29.795 29.027 28.915 19 26 19c-2.948 0-2.237 10.259-2.041 12.55.022.259.238.45.498.45h5.01z"/><path fill="#8D8888" d="M2.533 32a.497.497 0 01-.499-.531C2.205 29.027 3.085 19 6 19c2.948 0 2.237 10.259 2.041 12.55a.493.493 0 01-.498.45h-5.01z"/></svg>