<svg xmlns="http://www.w3.org/2000/svg" width="100%" height="100%" viewBox="-2.72 -2.72 37.44 37.44"><path fill="#D285D2" d="M27.646 29.646L26 28l.001-.002a8.89 8.89 0 00-.389-9.741L24 16v6.199c0 1.858-.259 3.708-.77 5.494L22.286 31H27.5a.5.5 0 00.5-.5c0-.32-.127-.627-.354-.854z"/><path fill="#D799D6" d="M8.77 27.693A19.982 19.982 0 018 22.199V16l-1.612 2.257a8.89 8.89 0 00-.389 9.741L6 28l-1.646 1.646A1.207 1.207 0 004 30.5a.5.5 0 00.5.5h5.214l-.944-3.307z"/><path fill="#E0ABDF" d="M8 16v6.199c0 1.858.259 3.708.77 5.494l1.127 3.944a.499.499 0 00.48.363H13.5a.5.5 0 00.5-.5V30h2v-7c-2 0-8-2.029-8-7z"/><path fill="#D799D6" d="M16 23v7h2v1.5a.5.5 0 00.5.5h3.123a.501.501 0 00.481-.363l1.127-3.944c.511-1.787.77-3.636.77-5.494V16C24 20.971 18 23 16 23z"/><path fill="#EBCEEB" d="M11.865 5.865L6.879.879A3 3 0 004.757 0H.707a.708.708 0 00-.5 1.207l.426.426c.24.24.415.538.509.865l.552 1.93a9.999 9.999 0 005.676 6.445l1.353.58C8.255 12.996 8 14.581 8 16c0 4.971 6 7 8 7V4c-1.59 0-2.978.724-4.135 1.865z"/><path fill="#E5BDE5" d="M8.77 18.844C10.448 21.754 14.438 23 16 23v-5c-2.967 0-5.591 1.048-7.23.844zM31.293 0h-4.05c-.796 0-1.559.316-2.121.879l-4.986 4.986C18.978 4.724 17.59 4 16 4v19c2 0 8-2.029 8-7 0-1.419-.255-3.004-.723-4.547l1.353-.58a10 10 0 005.676-6.444l.552-1.93c.093-.327.268-.624.509-.865l.426-.426a.708.708 0 00-.5-1.208z"/><path fill="#E0ABDF" d="M16 18v5c1.562 0 5.552-1.246 7.23-4.156C21.591 19.048 18.967 18 16 18z"/><path fill="#FFF" d="M14.522 18.087l.384 1.535a.499.499 0 00.484.378H16v-2c-.505 0-.996.037-1.478.087z"/><path fill="#F7F7F7" d="M17.478 18.087C16.996 18.037 16.505 18 16 18v2h.61a.5.5 0 00.485-.379l.383-1.534z"/><path fill="#5D374C" d="M8.129 10.066c.467-1.254 1.067-2.459 1.811-3.504L5.818 2.44A1.498 1.498 0 004.757 2H3.051a.498.498 0 00-.478.646c.233.749.563 1.871.563 1.871a8.467 8.467 0 004.825 5.478l.168.071z"/><path fill="#828E3D" d="M9.94 6.562L6.189 2.811S5.68 7.228 8.238 9.772c.451-1.149 1.016-2.247 1.702-3.21z"/><path fill="#532F42" d="M28.949 2h-1.706c-.398 0-.78.158-1.061.44L22.06 6.562c.745 1.045 1.345 2.25 1.811 3.504l.168-.072a8.467 8.467 0 004.825-5.478s.33-1.122.563-1.871A.498.498 0 0028.949 2z"/><path fill="#472236" d="M28.949 2h-1.706c-.398 0-.78.158-1.061.44L22.06 6.562c.33.463.625.963.9 1.478l3.161-3.161A3 3 0 0128.242 4h.774c.117-.392.278-.93.41-1.354A.497.497 0 0028.949 2z"/><path fill="#FFF" d="M11.312 11.062a3.971 3.971 0 00-1.303 2.672.256.256 0 00.256.266h3.215a.25.25 0 00.195-.406l-1.998-2.497a.252.252 0 00-.365-.035z"/><path fill="#E85160" d="M12.134 11.668A2.981 2.981 0 0011 14h2.48a.25.25 0 00.195-.406l-1.541-1.926z"/><path fill="#532F42" d="M9.94 6.562L5.818 2.44A1.498 1.498 0 004.757 2H3.051a.498.498 0 00-.478.646c.132.424.293.962.41 1.354h.774c.796 0 1.559.316 2.121.879L9.04 8.04c.276-.515.571-1.015.9-1.478z"/><path fill="#F7F7F7" d="M20.697 11.062A3.971 3.971 0 0122 13.734a.257.257 0 01-.257.266h-3.215a.25.25 0 01-.195-.406l1.998-2.497a.253.253 0 01.366-.035z"/><path fill="#D84459" d="M19.874 11.668A2.983 2.983 0 0121.008 14h-2.48a.25.25 0 01-.195-.406l1.541-1.926z"/><path fill="#7D883A" d="M23.762 9.771c-.45-1.148-1.016-2.246-1.702-3.209l3.751-3.751s.508 4.417-2.049 6.96zM6.237 5.237L9.04 8.04c.276-.515.571-1.015.9-1.478L6.189 2.811s-.122 1.053.048 2.426z"/><path fill="#778238" d="M25.81 2.811l-3.75 3.751c.33.463.625.963.9 1.478l2.802-2.802c.17-1.374.048-2.427.048-2.427z"/><path fill="#F3DCF4" d="M16 3.401a.495.495 0 00-.416.223L14 6s1 1 2 1V3.401z"/><path fill="#EBCEEB" d="M18 6l-1.584-2.376A.497.497 0 0016 3.401V7c1 0 2-1 2-1z"/><path fill="#F3DCF4" d="M9.504 15.214v.001a.497.497 0 01-.353.61c-1.692.443-7.265 1.87-7.374 1.46-.11-.41 5.429-1.96 7.117-2.423a.498.498 0 01.61.352zm.571 1.253l.001.001a.496.496 0 01-.183.68c-1.52.866-6.533 3.686-6.745 3.319-.212-.367 4.737-3.299 6.247-4.182a.496.496 0 01.68.182z"/><path fill="#EBCEEB" d="M22.496 15.214v.001a.497.497 0 00.353.61c1.692.443 7.265 1.87 7.374 1.46s-5.429-1.96-7.117-2.423a.498.498 0 00-.61.352zm-.571 1.253l-.001.001a.496.496 0 00.183.68c1.52.866 6.533 3.686 6.745 3.319s-4.737-3.299-6.247-4.182a.496.496 0 00-.68.182z"/></svg>