<svg xmlns="http://www.w3.org/2000/svg" width="100%" height="100%" viewBox="-2.72 -2.72 37.44 37.44"><path fill="#D285D2" d="M22 21s3 0 3 5-3 6-3 6h-3c-1.365 0-1-11-1-11h4z"/><path fill="#D799D6" d="M10 21s-3 0-3 5 3 6 3 6h3c1.365 0 1-11 1-11h-4z"/><path fill="#F3DCF4" d="M16 16a7 7 0 100 14V16z"/><path fill="#EBCEEB" d="M23 23a7 7 0 00-7-7v14a7 7 0 007-7zm-13.965.698A7.001 7.001 0 0016 30v-3a8.982 8.982 0 01-6.965-3.302z"/><path fill="#E5BDE5" d="M16 27v3a7.001 7.001 0 006.965-6.302A8.982 8.982 0 0116 27z"/><path fill="#D799D6" d="M23 14s4.932 2.816 3.235 10.996a.98.98 0 01-1.191.765l-2.496-.624a.981.981 0 01-.692-.656C21.441 23.201 20.001 20 16 20v-6h7z"/><path fill="#E5BDE5" d="M31.666.639L31.247.22a.749.749 0 00-.53-.22h-1.689c-1.477 0-2.705.34-3.73.871l.044-.082a.46.46 0 00-.073-.548l-.01-.01a.456.456 0 00-.545-.077c-2.102 1.179-3.218 4.814-3.492 5.818C19.891 4.741 18.125 4 16 4v15c2 0 8-1.029 8-6 0-.73-.073-1.435-.2-2.115 2.295-.414 4.02-1.429 5.123-3.038.67-.977 1.019-2.049 1.188-3.058a5.078 5.078 0 011.599-.831.452.452 0 00.317-.433v-.244a.455.455 0 00-.251-.407l-.749-.374c.153-.614.422-.997.643-1.222a.454.454 0 00-.004-.639z"/><path fill="#E0ABDF" d="M9 14s-4.932 2.816-3.235 10.996a.98.98 0 001.191.765l2.496-.624a.981.981 0 00.692-.656C10.559 23.201 11.999 20 16 20v-6H9z"/><path fill="#407966" d="M22.057 6.854c.184-.857 1.429-5.585 6.531-5.843a.502.502 0 01.523.415c.27 1.621.766 7.368-5.516 8.484-.33-1.146-.848-2.182-1.538-3.056z"/><path fill="#EBCEEB" d="M10.801 5.953C10.52 4.926 9.405 1.326 7.314.154a.456.456 0 00-.545.077l-.008.008a.46.46 0 00-.075.55l.044.082C5.705.34 4.477 0 3 0H1.311a.747.747 0 00-.53.22l-.42.419a.455.455 0 00-.004.639c.221.225.49.608.643 1.222l-.749.374A.455.455 0 000 3.281v.244c0 .199.127.375.317.434.367.113.998.358 1.599.831.169 1.008.519 2.08 1.188 3.057C4.202 9.45 5.919 10.464 8.2 10.881c-.127.68-.2 1.388-.2 2.119 0 4.971 6 6 8 6V4c-2.113 0-3.871.734-5.199 1.953z"/><path fill="#E5BDE5" d="M8.087 13.964C8.809 18.103 14.137 19 16 19v-4.207a.502.502 0 01-.354-.146l-.793-.793a.5.5 0 00-.707 0l-.856.856a.499.499 0 01-.631.062l-.8-.533a3.846 3.846 0 00-3.772-.275z"/><path fill="#E0ABDF" d="M23.913 13.964a3.846 3.846 0 00-3.772.276l-.8.533a.501.501 0 01-.631-.062l-.857-.857a.5.5 0 00-.707 0l-.793.793a.498.498 0 01-.354.146V19c1.864 0 7.192-.897 7.914-5.036z"/><path fill="#FFF" d="M11.312 9.062a3.971 3.971 0 00-1.303 2.672.256.256 0 00.256.266h3.215a.25.25 0 00.195-.406l-1.998-2.497a.252.252 0 00-.365-.035z"/><path fill="#E85160" d="M12.134 9.668A2.981 2.981 0 0011 12h2.48a.25.25 0 00.195-.406l-1.541-1.926z"/><path fill="#F7F7F7" d="M20.697 9.062A3.971 3.971 0 0122 11.734a.257.257 0 01-.257.266h-3.215a.25.25 0 01-.195-.406l1.998-2.497a.253.253 0 01.366-.035z"/><path fill="#D84459" d="M19.874 9.668A2.983 2.983 0 0121.008 12h-2.48a.25.25 0 01-.195-.406l1.541-1.926z"/><path fill="#4B7E6D" d="M9.97 6.854c-.185-.857-1.429-5.585-6.531-5.843a.502.502 0 00-.523.415c-.27 1.621-.766 7.368 5.516 8.484.331-1.146.849-2.182 1.538-3.056z"/><path fill="#FFF" d="M10.834 13.764a3.842 3.842 0 00-1.695-.117c.2.881.576 2.353.861 2.353.272 0 .629-1.347.834-2.236z"/><path fill="#F7F7F7" d="M21.166 13.764c.205.889.562 2.236.834 2.236.285 0 .661-1.472.861-2.353a3.842 3.842 0 00-1.695.117z"/><path fill="#377360" d="M29.243 3.016a10.563 10.563 0 00-.134-1.587.503.503 0 00-.523-.418c-5.1.259-6.344 4.986-6.529 5.843.278.353.521.739.742 1.141.567-1.663 2.211-4.837 6.444-4.979z"/><path fill="#407966" d="M9.228 7.995c.221-.403.464-.788.742-1.141-.185-.857-1.429-5.584-6.529-5.843a.503.503 0 00-.523.418c-.058.36-.127.921-.134 1.587 4.233.142 5.877 3.316 6.444 4.979z"/><path fill="#828E3D" d="M9.97 6.854C10 7 8 4 7 4S5 6 5 7c0 .778 2.417 2.159 3.491 2.734.332-1.075.826-2.052 1.479-2.88z"/><path fill="#7D883A" d="M22.058 6.854C22.028 7 24.028 4 25.028 4s2 2 2 3c0 .778-2.417 2.159-3.491 2.734-.333-1.075-.826-2.052-1.479-2.88z"/><path fill="#778238" d="M25.533 4.176c-.166-.102-.335-.176-.505-.176-1 0-3 3-2.97 2.854.278.353.522.738.742 1.141.357-1.049 1.14-2.705 2.733-3.819z"/><path fill="#7D883A" d="M9.228 7.995c.22-.403.464-.789.742-1.142C10 7 8 4 7 4c-.171 0-.339.074-.505.176 1.593 1.115 2.376 2.77 2.733 3.819z"/></svg>