<svg xmlns="http://www.w3.org/2000/svg" width="100%" height="100%" viewBox="-2.72 -2.72 37.44 37.44"><path fill="#79C6C1" d="M24 23c0 4.971-3.582 6-8 6s-8-1.029-8-6 3.582-11 8-11 8 6.029 8 11z"/><path fill="#67BFB5" d="M24 23c0-4.971-3.582-11-8-11v17c4.418 0 8-1.029 8-6z"/><path fill="#5B689D" d="M19.517 1.645a3.5 3.5 0 104.95 4.95c.994-.994.916-3.533.8-4.845a.993.993 0 00-.905-.905c-1.312-.117-3.852-.194-4.845.8z"/><path fill="#6673AA" d="M12.816 1.866a3.5 3.5 0 11-4.95 4.95c-.994-.994-.916-3.533-.8-4.845a.993.993 0 01.905-.905c1.312-.116 3.851-.194 4.845.8z"/><ellipse cx="16" cy="8" fill="#F7F7F7" rx="9" ry="8"/><path fill="#EDEEEE" d="M16 0v16c5.523 0 9-3.029 9-8s-3.477-8-9-8z"/><path fill="#5B689D" d="M12.323 32H8.068a.5.5 0 01-.384-.82L12 26l3 1-1.749 4.371a.998.998 0 01-.928.629z"/><path fill="#515E91" d="M19.677 32h4.255a.5.5 0 00.384-.82L20 26l-3 1 1.749 4.371c.151.38.519.629.928.629z"/><ellipse cx="11" cy="6.5" fill="#413B3B" rx="2" ry="2.5"/><ellipse cx="11" cy="7.25" fill="#5A5353" rx="1.5" ry="1.25"/><circle cx="11" cy="5" r=".5" fill="#FFF"/><ellipse cx="21" cy="6.5" fill="#3A3333" rx="2" ry="2.5"/><ellipse cx="21" cy="7.25" fill="#4F4949" rx="1.5" ry="1.25"/><circle cx="21" cy="5" r=".5" fill="#F7F7F7"/><ellipse cx="16" cy="8" fill="#DAA355" rx="2.5" ry="2"/><path fill="#79C6C1" d="M12.5 13a2.48 2.48 0 00-1.66.644A2.495 2.495 0 006 14.5 2.5 2.5 0 008.5 17s2.922 1 4 1a2.5 2.5 0 100-5z"/><path fill="#67BFB5" d="M23.5 12a2.495 2.495 0 00-2.34 1.644A2.48 2.48 0 0019.5 13a2.5 2.5 0 100 5c1.078 0 4-1 4-1a2.5 2.5 0 100-5z"/><path fill="#F7F7F7" d="M10 19c0 1.657-.239 3-3 3s-6-1.343-6-3 3.239-3 6-3 3 1.343 3 3z"/><path fill="#EDEEEE" d="M22 19c0 1.657.239 3 3 3s6-1.343 6-3-3.239-3-6-3-3 1.343-3 3z"/><path fill="#FEF1C6" d="M8 18a4 4 0 00-8 0c0 1.558.899 2.4 2.199 2.767A1.483 1.483 0 002 21.5 1.5 1.5 0 003.5 23h1A1.5 1.5 0 006 21.5c0-.268-.076-.515-.199-.733C7.101 20.4 8 19.558 8 18z"/><path fill="#67BFB5" d="M16 25c-3.002 0-5.759-.361-7.96-1.137C8.44 28.091 11.85 29 16 29s7.56-.909 7.96-5.137C21.759 24.639 19.002 25 16 25z"/><path fill="#E08C96" d="M13.175 11.106c-.097-.406.309-.753.687-.576.513.24 1.24.47 2.138.47.898 0 1.625-.23 2.138-.47.378-.176.784.17.687.576C18.543 12.29 17.821 14 16 14s-2.543-1.71-2.825-2.894z"/><path fill="#FFEAA7" d="M6 20.699v-6.144C5.41 14.211 4.732 14 4 14s-1.41.211-2 .555v6.144c.067.022.13.049.199.068A1.483 1.483 0 002 21.5 1.5 1.5 0 003.5 23h1A1.5 1.5 0 006 21.5c0-.268-.076-.515-.199-.733.069-.02.132-.046.199-.068z"/><path fill="#FFE28A" d="M6 14.555v6.144c1.189-.397 2-1.224 2-2.699 0-1.477-.809-2.752-2-3.445z"/><path fill="#D4994F" d="M18.5 8c0-1.104-.843-2-2.5-2v4c1.657 0 2.5-.896 2.5-2z"/><path fill="#58B7AE" d="M23.96 23.863C21.759 24.639 19.002 25 16 25v4c4.15 0 7.56-.909 7.96-5.137z"/><path fill="#DE8490" d="M18.825 11.106c.097-.406-.309-.753-.687-.576-.513.24-1.24.47-2.138.47v3c1.821 0 2.543-1.71 2.825-2.894z"/></svg>