<svg xmlns="http://www.w3.org/2000/svg" width="100%" height="100%" viewBox="-2.72 -2.72 37.44 37.44"><path fill="#ABB2B1" d="M15.951 0a.5.5 0 00-.493.418L14.527 6H13.31a.5.5 0 00-.429.243l-2.712 4.52a1.002 1.002 0 00-.143.515v2.446c0 .181.049.359.143.514l2.712 4.52c.091.15.254.242.429.242h2.717V0h-.076z"/><path fill="#9DA5A4" d="M21.885 10.762L19.027 6h-1.5l-.93-5.582A.5.5 0 0016.103 0h-.076v19h2.717a.5.5 0 00.429-.243L22.027 14v-2.723c0-.181-.049-.359-.142-.515z"/><path fill="#909997" d="M22.027 14l-3 3h-3v2h2.717a.5.5 0 00.429-.243L22.027 14z"/><path fill="#5C6664" d="M19.027 17l-.854.854a.5.5 0 01-.353.146h-1.793v-1h3z"/><path fill="#F7F7F7" d="M17.301 11.909l2.397-.799a.25.25 0 01.329.237v.535a.499.499 0 01-.053.224l-.309.618a.5.5 0 01-.447.276h-1.382a.5.5 0 01-.447-.276l-.233-.466a.25.25 0 01.145-.349z"/><path fill="#FFF" d="M14.754 11.909l-2.397-.799a.25.25 0 00-.329.237v.535c0 .078.018.154.053.224l.309.618a.498.498 0 00.446.276h1.382a.5.5 0 00.447-.276l.233-.466a.25.25 0 00-.144-.349z"/><path fill="#9DA5A4" d="M10.088 14.052c.022.061.048.12.081.176l2.712 4.52c.09.151.253.243.429.243h2.717v-2h-3l-2.939-2.939z"/><path fill="#687271" d="M13.027 17l.854.854a.501.501 0 00.353.146h1.793v-1h-3z"/><path fill="#909997" d="M19.027 6l2.857 4.762a1 1 0 01.143.514V14h3l1.854-1.854a.5.5 0 00.146-.354V8l-2.854-2.854A.5.5 0 0023.82 5h-3.586a.504.504 0 00-.354.146L19.027 6z"/><path fill="#838C8A" d="M26.027 15l-1-1 1.854-1.854a.5.5 0 00.146-.354V8h1.793c.133 0 .26.053.354.146l1.707 1.707a.5.5 0 01.146.354V15h-5z"/><path fill="#757F7E" d="M31.974 17.842L31.027 15h-5l-.947 2.842a.502.502 0 000 .316L26.027 21h5l.947-2.842a.489.489 0 000-.316z"/><path fill="#687271" d="M24.173 22.854L26.027 21h5v4.793c0 .133-.053.26-.146.354L29.027 28l-5-3v-1.793a.5.5 0 01.146-.353z"/><path fill="#757F7E" d="M22.027 27l2-2 5 3v1.793c0 .133-.053.26-.146.354l-1.707 1.707a.504.504 0 01-.354.146h-3.586a.504.504 0 01-.354-.146L22.027 31v-4z"/><path fill="#838C8A" d="M21.173 31.854l.854-.854v-4h-3.793a.504.504 0 00-.354.146l-.853.854v3l.854.854a.501.501 0 00.353.146h2.586a.5.5 0 00.353-.146z"/><path fill="#909997" d="M16.173 31.854l.854-.854v-3h-2.793a.504.504 0 00-.354.146l-.853.854v2l.854.854a.501.501 0 00.353.146h1.586a.5.5 0 00.353-.146z"/><path fill="#9DA5A4" d="M13.027 29h-1.793a.504.504 0 00-.354.146l-.853.854v1l.854.854a.501.501 0 00.353.146h.586c.133 0 .26-.053.354-.146l.853-.854v-2z"/><path fill="#ABB2B1" d="M10.027 30H8.234a.504.504 0 00-.354.146l-.5.5a.5.5 0 000 .707l.5.5a.502.502 0 00.354.147h.586c.133 0 .26-.053.354-.146l.853-.854v-1z"/><path fill="#2B3332" d="M18.527 12.5c.276 0 .5-.448.5-1 0-.057-.012-.107-.016-.161l-.967.323c.039.472.236.838.483.838z"/><path fill="#373F3F" d="M13.043 11.339c-.005.055-.016.104-.016.161 0 .552.224 1 .5 1 .247 0 .444-.366.484-.839l-.968-.322z"/></svg>