<svg xmlns="http://www.w3.org/2000/svg" width="100%" height="100%" viewBox="-2.72 -2.72 37.44 37.44"><path fill="#3AA176" d="M28.134 21.147a.578.578 0 01.77 0c.45.406 1.134 1.166 1.134 2.037 0 1.298-1.519 2.349-1.519 2.349S27 24.481 27 23.184c0-.871.684-1.631 1.134-2.037z"/><path fill="#40A87B" d="M31.449 22.201c-.605-.031-1.626.023-2.242.638-.578.578-.89 1.982-.89 1.982l-.251.428c-.011.019-1.13 1.872-4.688 2.765-3.572.899-7.548-1.894-7.588-1.922l-.407-.29-.581.813.407.29c.151.108 3.249 2.288 6.66 2.288a7.22 7.22 0 001.752-.209c4.009-1.005 5.262-3.148 5.313-3.238l.073-.129c.583.043 1.69.026 2.347-.63.616-.616.67-1.637.638-2.242a.576.576 0 00-.543-.544z"/><path fill="#46B080" d="M21 2c-.375 0-.721.11-1.021.289A1.496 1.496 0 0018.5 1c-.248 0-.478.066-.684.172C17.501.482 16.808 0 16 0s-1.501.482-1.816 1.172A1.488 1.488 0 0013.5 1c-.756 0-1.375.561-1.479 1.289A1.984 1.984 0 0011 2a2 2 0 101.12 3.657A1.993 1.993 0 0014 7c2 0 0 2 0 2h4s-2-2 0-2c.873 0 1.608-.563 1.88-1.343A2 2 0 1021 2z"/><path fill="#40A87B" d="M18 9s-2-2 0-2c.873 0 1.608-.563 1.88-1.343A2 2 0 1021 2c-.375 0-.721.11-1.021.289A1.496 1.496 0 0018.5 1c-.248 0-.478.066-.684.172A1.997 1.997 0 0016 0v9h2zm5 4.5c0-1.933 1.343-3.5 3-3.5s3 1.567 3 3.5c0 1.607-.934 2.947-2.199 3.358.124.195.199.411.199.642 0 .828-.895 1.5-2 1.5s-2-.672-2-1.5v-4z"/><path fill="#60CD96" d="M25 12a2 2 0 010 4v.061c.581.138 1 .504 1 .939 0 .552-.672 1-1.5 1s-1.5-.448-1.5-1v-3s.896-2 2-2z"/><path fill="#46B080" d="M9 13.5C9 11.567 7.657 10 6 10s-3 1.567-3 3.5c0 1.607.934 2.947 2.199 3.358A1.19 1.19 0 005 17.5c0 .828.895 1.5 2 1.5s2-.672 2-1.5v-4z"/><path fill="#6EDCA2" d="M7 12a2 2 0 000 4v.061c-.581.138-1 .504-1 .939 0 .552.672 1 1.5 1S9 17.552 9 17v-3s-.895-2-2-2z"/><ellipse cx="16" cy="14.5" fill="#46B080" rx="8" ry="6.5"/><path fill="#40A87B" d="M24 14.5c0-3.59-3.14-6.5-8-6.5v13c4.86 0 8-2.91 8-6.5z"/><path fill="#F7D684" d="M19 27h-6l1-7h4z"/><path fill="#F0C877" d="M16 27h3l-1-7h-2z"/><path fill="#FAE09F" d="M19.5 14a4.443 4.443 0 00-3.164 1.328.48.48 0 01-.671 0A4.45 4.45 0 0012.5 14c-1.498 0-2.9 3.21-1.695 5.563C12.145 20.46 13.912 21 16 21s3.855-.54 5.195-1.437C22.4 17.21 20.998 14 19.5 14z"/><ellipse cx="12" cy="14.5" fill="#FFF" rx="2" ry="2.5"/><ellipse cx="12" cy="14.5" fill="#373F3F" rx="1" ry="1.5"/><path fill="#F7D684" d="M14.621 21.592l-3.282.821a2 2 0 01-1.379-.151l-2.593-1.296a2.499 2.499 0 01-1.118-1.118l-.26-.52a.593.593 0 10-.949.684l.581.581-.311-.311a1.352 1.352 0 00-2.268.628l-.001.002a1.353 1.353 0 001.312 1.681h.786a2.5 2.5 0 01.928.179l2.885 1.154a4 4 0 003.274-.136l2.393-1.197v-1.001z"/><path fill="#F0C877" d="M17.379 21.592l3.282.821a2 2 0 001.379-.151l2.593-1.296a2.499 2.499 0 001.118-1.118l.26-.52a.593.593 0 11.949.684l-.581.581.311-.311a1.352 1.352 0 012.268.628l.001.002a1.353 1.353 0 01-1.312 1.681h-.786a2.5 2.5 0 00-.928.179l-2.885 1.154a4 4 0 01-3.274-.136l-2.393-1.197v-1.001z"/><ellipse cx="16" cy="3" fill="#FFE28A" rx=".5" ry="1"/><ellipse cx="14" cy="4" fill="#FFE28A" rx=".5" ry="1" transform="rotate(-30 14 4)"/><ellipse cx="18" cy="4" fill="#FFD96C" rx="1" ry=".5" transform="rotate(-60 18 4)"/><path fill="#F7D684" d="M21.195 19.563C22.4 17.21 20.998 14 19.5 14a4.443 4.443 0 00-3.164 1.328.474.474 0 01-.336.137V21c2.088 0 3.855-.54 5.195-1.437z"/><path fill="#53BF8C" d="M13 27s-3-.548-3 1 2 3 2 3-2.321-.401-2.059.807a.25.25 0 00.245.193H14c1.44 0 0-1.351 0-2s.621-1 2-1v-3h-2.857L13 27z"/><path fill="#46B080" d="M19 27s3-.548 3 1-2 3-2 3 2.321-.401 2.059.807a.25.25 0 01-.245.193H18c-1.44 0 0-1.351 0-2s-.621-1-2-1v-3h2.857L19 27z"/><ellipse cx="20" cy="14.5" fill="#F7F7F7" rx="2" ry="2.5"/><ellipse cx="20" cy="14.5" fill="#2B3332" rx="1" ry="1.5"/><path fill="#FFD96C" d="M16.5 3c0-.552-.224-1-.5-1v2c.276 0 .5-.448.5-1z"/><ellipse cx="16" cy="17.5" fill="#373F3F" rx="1" ry=".5"/><path fill="#2B3332" d="M17 17.5c0-.276-.448-.5-1-.5v1c.552 0 1-.224 1-.5z"/></svg>