<svg xmlns="http://www.w3.org/2000/svg" width="100%" height="100%" viewBox="-2.72 -2.72 37.44 37.44"><defs><style>.a{fill:#cbeb6b}.b{fill:#d9f07d}.c{fill:#bee758}.d{fill:#60c46f}.e{fill:#54b668}.f{fill:#6cd275}.g{fill:#f7f7f7}</style></defs><path d="M21 22H11c-1 3-5 2-5 4a2 2 0 002 2 2.986 2.986 0 004.804 2.383 3.967 3.967 0 006.392 0A2.986 2.986 0 0024 28a2 2 0 002-2c0-2-4-1-5-4z" class="a"/><path d="M16 22h-5c-1 3-5 2-5 4a2 2 0 002 2 2.986 2.986 0 004.804 2.383A3.982 3.982 0 0016 32z" class="b"/><path d="M6 26a2 2 0 002 2 2.986 2.986 0 004.804 2.383 3.967 3.967 0 006.392 0A2.986 2.986 0 0024 28a2 2 0 002-2 16.439 16.439 0 01-10 4 16.439 16.439 0 01-10-4z" class="c"/><path d="M16 30a16.439 16.439 0 01-10-4 2 2 0 002 2 2.986 2.986 0 004.804 2.383A3.982 3.982 0 0016 32z" class="a"/><path d="M10.007 3.653a1.013 1.013 0 011.38-1.053c2.09.824 3.47 2.724 4.446 4.067 1.176 1.618 2.13 4.633 1.32 5.221s-3.38-1.251-4.556-2.87a11.995 11.995 0 01-2.59-5.365z" class="d"/><path d="M21.993 3.653a1.013 1.013 0 00-1.38-1.053c-2.09.824-3.47 2.724-4.446 4.067-1.176 1.618-2.13 4.633-1.32 5.221s3.38-1.251 4.556-2.87a11.995 11.995 0 002.59-5.365z" class="e"/><path d="M15.058.511a1.013 1.013 0 011.736-.04C18 2.364 18 4.713 18 6.373c0 2-1 5-2 5s-2-3-2-5A11.995 11.995 0 0115.058.511z" class="d"/><path d="M15.058.511A11.995 11.995 0 0014 6.374c0 2 1 5 2 5V.009a.99.99 0 00-.942.502z" class="f"/><ellipse cx="19.627" cy="23.887" class="e" rx="1.824" ry="4.5" transform="rotate(-75 19.627 23.887)"/><ellipse cx="12.373" cy="23.887" class="d" rx="4.5" ry="1.824" transform="rotate(-15 12.373 23.887)"/><path d="M19 25.75c0 1.657-1.343 2.25-3 2.25s-3-.593-3-2.25S14.343 22 16 22s3 2.093 3 3.75z" class="d"/><path d="M16 28c-1.657 0-3-.593-3-2.25S14.343 22 16 22z" class="f"/><path d="M25 17.877c0-5-4.686-8.723-8.537-10.761a.985.985 0 00-.926 0C11.582 9.21 7 12.877 7.002 18.046a6.938 6.938 0 006.156 6.635C19.393 25.51 25 23.797 25 17.877z" class="a"/><path d="M15.537 7.115C11.581 9.21 7 12.877 7.002 18.045a6.938 6.938 0 006.156 6.636 21.484 21.484 0 002.842.188V7a.988.988 0 00-.463.115z" class="b"/><path d="M13 13.877c-2 2-3.03 3.84-3 6 .03 2.078 2.005 5 6.005 5s6-2 6-5q0-3-3.005-6-3-3-6 0z" class="g"/><path fill="#fff" d="M13 13.877c-2 2-3.03 3.84-3 6 .03 2.077 2.004 4.997 6 5v-12.5a4.322 4.322 0 00-3 1.5z"/><path d="M20 12.877a7.254 7.254 0 00-3.51-5.724.94.94 0 00-.98 0A7.132 7.132 0 0012 12.96c.035 1.7 2 2.916 4 2.916s4-.5 4-3z" class="b"/><ellipse cx="14" cy="19.5" fill="#ff805d" rx="1" ry="1.5"/><ellipse cx="18" cy="19.5" fill="#f57552" rx="1" ry="1.5"/><path d="M24.663 20.143A17.81 17.81 0 0116 22.031a17.11 17.11 0 01-8.62-1.879 7.162 7.162 0 005.778 4.529c5.348.712 10.223-.457 11.505-4.538z" class="c"/><path d="M7.38 20.152a7.162 7.162 0 005.778 4.529 21.463 21.463 0 002.842.193v-2.843a17.11 17.11 0 01-8.62-1.879z" class="a"/><path fill="#edeeee" d="M16 22.03a19.628 19.628 0 01-5.69-.693 5.845 5.845 0 005.695 3.54c3.327 0 5.25-1.396 5.81-3.587a20.823 20.823 0 01-5.815.74z"/><path d="M16 22.03a19.628 19.628 0 01-5.69-.693 5.845 5.845 0 005.695 3.54z" class="g"/><path fill="#e6f490" d="M15.51 7.152a7.132 7.132 0 00-3.51 5.81c.035 1.7 2 2.915 4 2.915V7.015a.934.934 0 00-.49.137z"/></svg>