<svg xmlns="http://www.w3.org/2000/svg" width="100%" height="100%" viewBox="-2.72 -2.72 37.44 37.44"><path fill="#CBEB6B" d="M21 22H11c-1 3-5 2-5 4a2 2 0 002 2 3 3 0 003 3c.68 0 1.301-.235 1.804-.617C13.533 31.359 14.688 32 16 32s2.467-.641 3.196-1.617A2.971 2.971 0 0021 31a3 3 0 003-3 2 2 0 002-2c0-2-4-1-5-4z"/><path fill="#D9F07D" d="M16 22h-5c-1 3-5 2-5 4a2 2 0 002 2 3 3 0 003 3c.68 0 1.301-.235 1.804-.617A3.982 3.982 0 0016 32V22z"/><path fill="#BEE758" d="M6 26a2 2 0 002 2 3 3 0 003 3c.68 0 1.301-.235 1.804-.617C13.533 31.359 14.688 32 16 32s2.467-.641 3.196-1.617A2.971 2.971 0 0021 31a3 3 0 003-3 2 2 0 002-2c-2 2-6.5 4-10 4s-8-2-10-4z"/><path fill="#CBEB6B" d="M16 30c-3.5 0-8-2-10-4a2 2 0 002 2 3 3 0 003 3c.68 0 1.301-.235 1.804-.617A3.982 3.982 0 0016 32v-2z"/><path fill="#60C46F" d="M10.007 3.653c-.089-.757.671-1.333 1.38-1.053 2.089.824 3.47 2.724 4.446 4.067 1.176 1.618 2.13 4.633 1.321 5.221-.809.588-3.381-1.251-4.557-2.87-.969-1.333-2.337-3.216-2.59-5.365z"/><path fill="#54B668" d="M21.993 3.653c.089-.757-.671-1.333-1.38-1.053-2.089.824-3.47 2.724-4.446 4.067-1.176 1.618-2.13 4.633-1.321 5.221.809.588 3.381-1.251 4.557-2.87.969-1.333 2.337-3.216 2.59-5.365z"/><path fill="#60C46F" d="M15.058.511c.373-.665 1.326-.684 1.735-.041C18 2.365 18 4.714 18 6.374c0 2-1 5-2 5s-2-3-2-5c0-1.648 0-3.976 1.058-5.863z"/><path fill="#6CD275" d="M15.058.511C14 2.398 14 4.726 14 6.374c0 2 1 5 2 5V.009a.992.992 0 00-.942.502z"/><ellipse cx="19.627" cy="23.887" fill="#54B668" rx="1.824" ry="4.5" transform="rotate(-75.001 19.628 23.888)"/><ellipse cx="12.373" cy="23.887" fill="#60C46F" rx="4.5" ry="1.824" transform="rotate(-14.999 12.374 23.889)"/><path fill="#60C46F" d="M19 25.75c0 1.657-1.343 2.25-3 2.25s-3-.593-3-2.25S14.343 22 16 22s3 2.093 3 3.75z"/><path fill="#6CD275" d="M16 28c-1.657 0-3-.593-3-2.25S14.343 22 16 22v6z"/><path fill="#CBEB6B" d="M25 17.877c0-5-4.686-8.723-8.537-10.762a.984.984 0 00-.925 0C11.582 9.21 7 12.877 7.002 18.045c.001 3.401 2.785 6.186 6.156 6.635C19.393 25.512 25 23.797 25 17.877z"/><path fill="#D9F07D" d="M15.537 7.115C11.581 9.21 7 12.877 7.002 18.045c.001 3.401 2.785 6.186 6.156 6.635.97.129 1.921.189 2.842.189V7c-.159 0-.317.039-.463.115z"/><path fill="#F7F7F7" d="M13 13.877c-2 2-3.03 3.839-3 6 .029 2.078 2.005 5 6.005 5s6-2 6-5c0-2-1.005-4-3.005-6s-4-2-6 0z"/><path fill="#FFF" d="M13 13.877c-2 2-3.03 3.839-3 6 .029 2.077 2.004 4.997 6 5v-12.5c-1 0-2 .5-3 1.5z"/><path fill="#D9F07D" d="M20 12.877c0-2.385-1.712-4.609-3.51-5.724a.941.941 0 00-.98-.001c-1.847 1.139-3.56 3.381-3.51 5.809.035 1.7 2 2.916 4 2.916s4-.5 4-3z"/><ellipse cx="14" cy="19.5" fill="#FF805D" rx="1" ry="1.5"/><ellipse cx="18" cy="19.5" fill="#F57552" rx="1" ry="1.5"/><path fill="#BEE758" d="M24.663 20.143c-2.594 1.343-5.13 1.866-8.663 1.888-3.514.022-6.04-.53-8.62-1.879.866 2.39 3.139 4.177 5.778 4.529 5.348.712 10.223-.457 11.505-4.538z"/><path fill="#CBEB6B" d="M7.38 20.152c.866 2.39 3.139 4.177 5.778 4.529.969.129 1.922.194 2.842.194v-2.844c-3.514.021-6.04-.53-8.62-1.879z"/><path fill="#EDEEEE" d="M16 22.031c-2.201.013-4.007-.208-5.689-.694.696 1.766 2.578 3.54 5.695 3.54 3.327 0 5.249-1.396 5.809-3.588-1.718.501-3.559.728-5.815.742z"/><path fill="#F7F7F7" d="M16 22.031c-2.201.013-4.007-.208-5.689-.694.696 1.766 2.578 3.54 5.695 3.54L16 22.031z"/><path fill="#E6F490" d="M15.51 7.152c-1.847 1.139-3.56 3.381-3.51 5.809.035 1.7 2 2.916 4 2.916V7.015a.937.937 0 00-.49.137z"/></svg>