<svg xmlns="http://www.w3.org/2000/svg" width="100%" height="100%" viewBox="-2.72 -2.72 37.44 37.44"><g fill="#FFC172"><path d="M16 10c-4.971 0-9 3.029-9 8s4.029 8 9 8V10zm9 8c0-4.971-4.029-8-9-8v16c4.971 0 9-3.029 9-8z"/><path d="M16 10c-4.971 0-9 3.029-9 8 0 .709.09 1.373.245 2 .932-3.768 4.493-6 8.755-6v-4zm8.755 10A8.287 8.287 0 0025 18c0-4.971-4.029-8-9-8v4c4.262 0 7.823 2.232 8.755 6zM.537 22.001c.77 1.334 4.34 3.626 6.429 4.89a.993.993 0 001.02.012L2.001 16.537a3.998 3.998 0 00-1.464 5.464z"/><path d="M2.001 16.537l5.985 10.366a.993.993 0 00.5-.889c-.05-2.442-.25-6.679-1.02-8.013a4 4 0 00-5.465-1.464zm29.462 5.464c-.77 1.334-4.34 3.626-6.429 4.89a.993.993 0 01-1.02.012l5.985-10.366a3.998 3.998 0 011.464 5.464zm-1.464-5.464l-5.985 10.366a.993.993 0 01-.5-.889c.05-2.442.25-6.679 1.02-8.013a4 4 0 015.465-1.464zM16 20a2 2 0 00-2 2c0 1.105.895 1 2 1v-3zm2 2a2 2 0 00-2-2v3c1.105 0 2 .105 2-1z"/><circle cx="21.5" cy="18.5" r="2.5"/><circle cx="21" cy="19" r="1"/><circle cx="10.5" cy="18.5" r="2.5"/><circle cx="11" cy="19" r="1"/><path d="M16 23.5c0 .276-.698.5-1.25.5s-.75-.224-.75-.5.198-.5.75-.5 1.25.224 1.25.5zm2 0c0 .276-.198.5-.75.5S16 23.776 16 23.5s.698-.5 1.25-.5.75.224.75.5zm-2 1c0 .276-.698.5-1.25.5s-.75-.224-.75-.5.198-.5.75-.5 1.25.224 1.25.5zm2 0c0 .276-.198.5-.75.5S16 24.776 16 24.5s.698-.5 1.25-.5.75.224.75.5zM12.331 7.511c1.381 2.391-.439 3.717-2.83 5.098l-4-6.928a5 5 0 016.83 1.83z"/><path d="M9.501 12.609c-2.391 1.381-4.449 2.293-5.83-.098a5 5 0 011.83-6.83l4 6.928z"/><circle cx="9.464" cy="8.512" r="1"/><circle cx="6" cy="10.512" r="1"/><path d="M7.216 8.652c.005-.003.011-.003.016-.005a1 1 0 10-1-1.733c-.005.003-.007.008-.012.011l.996 1.727zM6.22 6.925a.999.999 0 00-.354 1.355 1 1 0 001.35.372L6.22 6.925zm22.109 5.566c-1.381 2.391-3.439 1.479-5.83.098l4-6.928a5 5 0 011.83 6.83zm-5.83.098c-2.391-1.381-4.211-2.707-2.83-5.098a5 5 0 016.83-1.83l-4 6.928z"/><circle cx="26.029" cy="10.509" r="1"/><circle cx="22.564" cy="8.509" r="1"/><path d="M24.784 8.632l.013.011a1 1 0 001-1.732c-.005-.003-.011-.003-.016-.005l-.997 1.726zm.996-1.726a.998.998 0 00-1.35.371.999.999 0 00.353 1.355l.997-1.726z"/></g><path fill="#EB6B48" d="M16 10c-4.971 0-9 3.029-9 8s4.029 8 9 8V10z"/><path fill="#E56142" d="M25 18c0-4.971-4.029-8-9-8v16c4.971 0 9-3.029 9-8z"/><path fill="#F57552" d="M16 10c-4.971 0-9 3.029-9 8 0 .709.09 1.373.245 2 .932-3.768 4.493-6 8.755-6v-4z"/><path fill="#EB6B48" d="M24.755 20A8.287 8.287 0 0025 18c0-4.971-4.029-8-9-8v4c4.262 0 7.823 2.232 8.755 6z"/><path fill="#FF805D" d="M.537 22.001c.77 1.334 4.34 3.626 6.429 4.89a.993.993 0 001.02.012L2.001 16.537a3.998 3.998 0 00-1.464 5.464z"/><path fill="#FF8D6E" d="M2.001 16.537l5.985 10.366a.993.993 0 00.5-.889c-.05-2.442-.25-6.679-1.02-8.013a4 4 0 00-5.465-1.464z"/><path fill="#F57552" d="M31.463 22.001c-.77 1.334-4.34 3.626-6.429 4.89a.993.993 0 01-1.02.012l5.985-10.366a3.998 3.998 0 011.464 5.464z"/><path fill="#FF805D" d="M29.999 16.537l-5.985 10.366a.993.993 0 01-.5-.889c.05-2.442.25-6.679 1.02-8.013a4 4 0 015.465-1.464zM16 20a2 2 0 00-2 2c0 1.105.895 1 2 1v-3z"/><path fill="#F57552" d="M18 22a2 2 0 00-2-2v3c1.105 0 2 .105 2-1z"/><circle cx="21.5" cy="18.5" r="2.5" fill="#F7F7F7"/><circle cx="21" cy="19" r="1" fill="#2B3332"/><circle cx="10.5" cy="18.5" r="2.5" fill="#FFF"/><circle cx="11" cy="19" r="1" fill="#373F3F"/><path fill="#FFF" d="M16 23.5c0 .276-.698.5-1.25.5s-.75-.224-.75-.5.198-.5.75-.5 1.25.224 1.25.5z"/><path fill="#F7F7F7" d="M18 23.5c0 .276-.198.5-.75.5S16 23.776 16 23.5s.698-.5 1.25-.5.75.224.75.5z"/><path fill="#FFF" d="M16 24.5c0 .276-.698.5-1.25.5s-.75-.224-.75-.5.198-.5.75-.5 1.25.224 1.25.5z"/><path fill="#F7F7F7" d="M18 24.5c0 .276-.198.5-.75.5S16 24.776 16 24.5s.698-.5 1.25-.5.75.224.75.5z"/><path fill="#FF87A4" d="M12.331 7.511c1.381 2.391-.439 3.717-2.83 5.098l-4-6.928a5 5 0 016.83 1.83z"/><path fill="#FF7898" d="M9.501 12.609c-2.391 1.381-4.449 2.293-5.83-.098a5 5 0 011.83-6.83l4 6.928z"/><circle cx="9.464" cy="8.512" r="1" fill="#FEF1C6"/><circle cx="6" cy="10.512" r="1" fill="#FFEAA7"/><path fill="#FEF1C6" d="M7.216 8.652c.005-.003.011-.003.016-.005a1 1 0 10-1-1.733c-.005.003-.007.008-.012.011l.996 1.727z"/><path fill="#FFEAA7" d="M6.22 6.925a.999.999 0 00-.354 1.355 1 1 0 001.35.372L6.22 6.925z"/><path fill="#FF6B8B" d="M28.329 12.491c-1.381 2.391-3.439 1.479-5.83.098l4-6.928a5 5 0 011.83 6.83z"/><path fill="#FF7898" d="M22.499 12.589c-2.391-1.381-4.211-2.707-2.83-5.098a5 5 0 016.83-1.83l-4 6.928z"/><circle cx="26.029" cy="10.509" r="1" fill="#FFE28A"/><circle cx="22.564" cy="8.509" r="1" fill="#FFEAA7"/><path fill="#FFE28A" d="M24.784 8.632l.013.011a1 1 0 001-1.732c-.005-.003-.011-.003-.016-.005l-.997 1.726z"/><path fill="#FFEAA7" d="M25.78 6.906a.998.998 0 00-1.35.371.999.999 0 00.353 1.355l.997-1.726z"/></svg>