<svg xmlns="http://www.w3.org/2000/svg" width="100%" height="100%" viewBox="-2.72 -2.72 37.44 37.44"><path fill="#B4B0B0" d="M16.729 27h-1.457c-5.006 0-8.956-4.254-8.586-9.246l.724-9.78A8.609 8.609 0 0115.996 0h.008a8.61 8.61 0 018.586 7.974l.724 9.78c.371 4.992-3.58 9.246-8.585 9.246z"/><path fill="#A7A2A2" d="M25.315 17.754l-.724-9.78A8.61 8.61 0 0016.004 0H16v27h.729c5.005 0 8.956-4.254 8.586-9.246z"/><path fill="#EA9C7A" d="M20 25l1 5 2.603.868a.58.58 0 01.397.55v.002c0 .32-.26.58-.58.58h-5.84a.58.58 0 01-.58-.58v-.009c0-.215.118-.412.308-.512L19 30l-2-5h3z"/><path fill="#EF8C48" d="M20 25l1 5 2.603.868a.58.58 0 01.397.55v.002c0 .32-.26.58-.58.58h-5.84a.58.58 0 01-.58-.58v-.009c0-.215.118-.412.308-.512L19 30l-2-5h3z"/><path fill="#373F3F" d="M17.308 30.899L19 30l.106.211a1 1 0 001.789 0L21 30l2.603.868a.58.58 0 01.397.55v.002c0 .32-.26.58-.58.58h-5.84a.58.58 0 01-.58-.58v-.009a.58.58 0 01.308-.512z"/><path fill="#EA9C7A" d="M12 25l-1 5-2.603.868a.58.58 0 00-.397.55v.002c0 .32.26.58.58.58h5.84c.32 0 .58-.26.58-.58v-.009a.577.577 0 00-.308-.512L13 30l2-5h-3z"/><path fill="#F79654" d="M12 25l-1 5-2.603.868a.58.58 0 00-.397.55v.002c0 .32.26.58.58.58h5.84c.32 0 .58-.26.58-.58v-.009a.577.577 0 00-.308-.512L13 30l2-5h-3z"/><path fill="#FFAD68" d="M17.5 7c-.601 0-1.133.27-1.5.69A1.985 1.985 0 0014.5 7a2 2 0 100 4c.601 0 1.133-.27 1.5-.69.367.42.899.69 1.5.69a2 2 0 100-4z"/><ellipse cx="10" cy="8" fill="#FFD96C" rx="2" ry="3"/><ellipse cx="22" cy="8" fill="#FFD04D" rx="2" ry="3"/><ellipse cx="10" cy="8" fill="#373F3F" rx="1" ry="2"/><ellipse cx="22" cy="8" fill="#2B3332" rx="1" ry="2"/><circle cx="9.5" cy="6.5" r=".5" fill="#FFF"/><circle cx="22.5" cy="6.5" r=".5" fill="#F7F7F7"/><path fill="#434C4B" d="M14.692 30.899L13 30l-.106.211a1 1 0 01-1.789 0L11 30l-2.603.868a.58.58 0 00-.397.55v.002c0 .32.26.58.58.58h5.84c.32 0 .58-.26.58-.58v-.009a.58.58 0 00-.308-.512z"/><path fill="#EDEEEE" d="M16 17.864a9.962 9.962 0 00-9.128-2.632l-.187 2.522C6.315 22.746 10.266 27 15.271 27h1.457c5.006 0 8.956-4.254 8.586-9.246l-.187-2.522A9.962 9.962 0 0016 17.864z"/><path fill="#E3E5E5" d="M25.315 17.754l-.187-2.522A9.962 9.962 0 0016 17.864V27h.729c5.005 0 8.956-4.254 8.586-9.246z"/><path fill="#434C4B" d="M8 18.5C8 22.642 9.209 26 7 26s-4-3.358-4-7.5S4.791 11 7 11s1 3.358 1 7.5z"/><path fill="#373F3F" d="M24 18.5c0 4.142-1.209 7.5 1 7.5s4-3.358 4-7.5-1.791-7.5-4-7.5-1 3.358-1 7.5z"/><path fill="#FCA15E" d="M17.5 7c-.601 0-1.133.27-1.5.69v2.62c.367.42.899.69 1.5.69a2 2 0 100-4z"/><path fill="#434C4B" d="M18 11c0 1.105-.895 3-2 3s-2-1.895-2-3 .895-2 2-2 2 .895 2 2z"/><path fill="#373F3F" d="M18 11a2 2 0 00-2-2v5c1.105 0 2-1.895 2-3z"/></svg>