<svg xmlns="http://www.w3.org/2000/svg" width="100%" height="100%" viewBox="-2.72 -2.72 37.44 37.44"><path fill="#1A2040" d="M25.218 21.843l-.79 1.8 2.031 2.251a.263.263 0 01.018.248l-.927 2.085a.263.263 0 01-.241.156h-2.046a.264.264 0 01-.229-.133l-1.241-1.184.263 2.165a.264.264 0 01-.199.256l-1.966.689a.262.262 0 01-.299-.138l-.959-2.181-.511 3.077a.25.25 0 01-.103.174c-.316.226-1.421.892-2.019.892V20.833l9.218 1.01z"/><path fill="#1E264E" d="M6.782 21.843l.79 1.8-2.031 2.251a.263.263 0 00-.018.248l.927 2.085a.263.263 0 00.241.156h2.046a.264.264 0 00.229-.133l1.241-1.184-.263 2.165c0 .121.082.226.199.256l1.966.689c.12.03.244-.027.299-.138l.959-2.181.511 3.077a.25.25 0 00.103.174c.316.226 1.421.892 2.019.892V20.833l-9.218 1.01z"/><path fill="#45A396" d="M16 18.667c-3.227 0-7.553-.288-12.152 5.827a.252.252 0 00-.023.271c.284.525.664 1.172.835 1.46a.244.244 0 00.266.112l4.134-.906a.225.225 0 00.109-.054c.299-.27 2.054-1.833 3.081-2.252-.292.417-.5 1-.5 1v2s2.208.5 4.25.5v-7.958z"/><path fill="#3A9384" d="M16 18.667c3.227 0 7.553-.288 12.152 5.827.059.078.07.185.023.271a47.53 47.53 0 01-.835 1.46.244.244 0 01-.266.112l-4.134-.906a.225.225 0 01-.109-.054c-.299-.27-2.054-1.833-3.081-2.252.292.417.5 1 .5 1v2s-2.208.5-4.25.5v-7.958z"/><path fill="#58B7AE" d="M16 14.592c-3.227 0-8.303-.087-12.902 6.027a.252.252 0 00-.023.271c.284.525.664 1.172.835 1.46a.244.244 0 00.266.112l4.134-.906a.225.225 0 00.109-.054c.299-.27 2.054-1.833 3.081-2.252-.292.417-.5 1-.5 1v2s2.958.5 5 .5v-8.158z"/><path fill="#4EAFA3" d="M16 14.592c3.227 0 8.303-.087 12.902 6.027.059.078.07.185.023.271a47.53 47.53 0 01-.835 1.46.244.244 0 01-.266.112l-4.134-.906a.225.225 0 01-.109-.054c-.299-.27-2.054-1.833-3.081-2.252.292.417.5 1 .5 1v2s-2.958.5-5 .5v-8.158z"/><path fill="#58B7AE" d="M16 .062c-1.25 0-5 10.438-5 10.438h5V.062z"/><path fill="#81A9A2" d="M16 11.226V9.375c-.406 0-3.839-5.5-6.768-7.244a.49.49 0 00-.474-.011c-1.247.62-3.983 2.017-4.623 2.343A.25.25 0 004 4.685V6.37a.23.23 0 00.069.172c.459.451 4.087 3.981 3.973 6.374L16 11.226z"/><path fill="#60C4BC" d="M8.042 12.917c.114-2.393-3.514-5.923-3.973-6.374A.23.23 0 014 6.37V4.685a.25.25 0 01.135-.222c.64-.326 3.376-1.723 4.623-2.343a.49.49 0 01.474.011C12.161 3.875 15.594 9.375 16 9.375v1.851l-7.958 1.691z"/><path fill="#1E264E" d="M8.649 4.381a.49.49 0 00-.474-.011c-1.041.518-3.107 1.57-4.137 2.095.011.026.01.056.031.078.459.451 4.087 3.981 3.973 6.374l6.583-1.606c-.208-1.103-3.462-5.433-5.976-6.93z"/><path fill="#EDEEEE" d="M13.181 8.863a2.361 2.361 0 00-1.014-.238c-1.45 0-2.625 1.026-2.625 2.292 0 .567.245 1.079.635 1.479l4.448-1.085c-.082-.436-.644-1.378-1.444-2.448z"/><path fill="#E55D53" d="M13.288 9.006c-.832.031-1.497.625-1.497 1.358 0 .657.533 1.206 1.242 1.335l1.378-.336c.065-.052.123-.11.177-.171-.135-.45-.616-1.257-1.3-2.186z"/><path fill="#373F3F" d="M13.747 9.659c-.006 0-.012-.004-.018-.004-.656 0-1.188.464-1.188 1.037 0 .44.326.793.771.939l1.07-.261c.076-.059.139-.127.2-.198-.107-.341-.405-.877-.835-1.513z"/><path fill="#4E6965" d="M11 16l.111-.274A6.733 6.733 0 0011 16z"/><path fill="#4EAFA3" d="M16 .062c1.25 0 5 10.438 5 10.438h-5V.062z"/><path fill="#81A9A2" d="M16 11.226V9.375c.406 0 3.839-5.5 6.768-7.244a.49.49 0 01.474-.011c1.247.62 3.984 2.017 4.623 2.344a.248.248 0 01.135.221V6.37a.23.23 0 01-.069.172c-.459.451-4.087 3.981-3.973 6.374L16 11.226z"/><path fill="#58B7AE" d="M16 11.226V9.375c.406 0 3.839-5.5 6.768-7.244a.49.49 0 01.474-.011c1.247.62 3.984 2.017 4.623 2.344a.248.248 0 01.135.221V6.37a.23.23 0 01-.069.172c-.459.451-4.087 3.981-3.973 6.374L16 11.226z"/><path fill="#1A2040" d="M23.351 4.381a.49.49 0 01.474-.011c1.041.518 3.107 1.57 4.137 2.096-.011.026-.01.056-.031.078-.459.451-4.087 3.981-3.973 6.374l-6.583-1.606c.208-1.104 3.462-5.434 5.976-6.931z"/><path fill="#E3E5E5" d="M18.819 8.863a2.361 2.361 0 011.014-.238c1.45 0 2.625 1.026 2.625 2.292 0 .567-.245 1.079-.635 1.479l-4.448-1.085c.082-.436.644-1.378 1.444-2.448z"/><path fill="#D64F45" d="M18.712 9.006c.832.031 1.497.625 1.497 1.358 0 .657-.533 1.206-1.242 1.335l-1.378-.336a1.433 1.433 0 01-.177-.171c.135-.45.616-1.257 1.3-2.186z"/><path fill="#2B3332" d="M18.253 9.659c.006 0 .012-.004.018-.004.656 0 1.188.464 1.188 1.037 0 .44-.326.793-.771.939l-1.07-.261a1.387 1.387 0 01-.2-.198c.107-.341.405-.877.835-1.513z"/><path fill="#4E6965" d="M21 16l-.111-.274c.067.156.111.274.111.274z"/><path fill="#60C4BC" d="M16 10.542c-3.227 0-8.303-.288-12.902 5.827a.252.252 0 00-.023.271c.284.525.664 1.172.835 1.46a.244.244 0 00.266.112l4.134-.906a.225.225 0 00.109-.054c.299-.27 2.054-1.833 3.081-2.252-.292.417-.5 1-.5 1v2s2.958.5 5 .5v-7.958z"/><path fill="#58B7AE" d="M16 10.542c3.227 0 8.303-.288 12.902 5.827.059.078.07.185.023.271a47.53 47.53 0 01-.835 1.46.244.244 0 01-.266.112l-4.134-.906a.225.225 0 01-.109-.054c-.299-.27-2.054-1.833-3.081-2.252.292.417.5 1 .5 1v2s-2.958.5-5 .5v-7.958z"/></svg>