<svg xmlns="http://www.w3.org/2000/svg" width="100%" height="100%" viewBox="-2.72 -2.72 37.44 37.44"><path fill="#A5D1D8" d="M11 17l-1.022 2.249a10.793 10.793 0 00-1.52-1.903c-2.271-2.271-5.483-2.741-6.168-2.056-.685.685-.215 3.897 2.056 6.168 1.158 1.158 2.441 1.959 3.573 2.321l-.409.898c-1.101 2.421.587 5.222 3.245 5.319.081.002.163.004.245.004 1.286 0 2.388-.367 3.227-.787A3.956 3.956 0 0116 28.792V17h-5z"/><path fill="#0A6F8E" d="M28.739 23.029c1.189-1.435 1.61-3.002.918-3.694-.781-.781-2.681-.148-4.243 1.414-.131.131-.245.266-.363.401-1.34-.365-2.828-.039-3.88 1.013a4 4 0 005.657 5.657 3.99 3.99 0 00.633-.856c.178.012.354.027.539.027 2.209 0 4-.895 4-2 0-.978-1.406-1.789-3.261-1.962z"/><path fill="#9FCCD3" d="M29.71 15.29c-.685-.685-3.897-.215-6.168 2.056a10.83 10.83 0 00-1.52 1.903L21 17h-5v11.792c.605 0 1.211.14 1.773.421.839.42 1.941.787 3.227.787.082 0 .164-.002.245-.004 2.658-.096 4.345-2.897 3.245-5.319l-.408-.898c1.132-.362 2.415-1.163 3.573-2.321 2.27-2.271 2.741-5.483 2.055-6.168zM16 26c-2.975 0-5.75-.775-8.136-2.101l-.354.778c-1.101 2.421.587 5.222 3.245 5.319.081.002.163.004.245.004 1.286 0 2.388-.367 3.227-.787A3.956 3.956 0 0116 28.792V26z"/><path fill="#99C7CE" d="M17.773 29.213c.839.42 1.941.787 3.227.787.082 0 .164-.002.245-.004 2.658-.096 4.345-2.897 3.245-5.319l-.353-.778A16.714 16.714 0 0116 26v2.792c.605 0 1.211.14 1.773.421z"/><path fill="#468DAC" d="M16 0C9.458 0 5 3.816 5 9.5S9.458 19 16 19V0z"/><path fill="#3A89A8" d="M16 16.38A3.972 3.972 0 0013 15a4 4 0 000 8 3.972 3.972 0 003-1.38v-5.24z"/><path fill="#3085A6" d="M19 15a3.972 3.972 0 00-3 1.38v5.241a3.972 3.972 0 003 1.38A4 4 0 0019 15z"/><path fill="#3A89A8" d="M16 0c6.542 0 11 3.816 11 9.5S22.542 19 16 19V0z"/><path fill="#9FCCD3" d="M18 13V9c0-.582.119-1.131.301-1.651L17 8l-.763-2.289a.245.245 0 00-.237-.17v9.449c1.104-.001 2-.886 2-1.99z"/><path fill="#A5D1D8" d="M16 5.541c-.1 0-.199.057-.237.171L15 8l-1.301-.651C13.881 7.869 14 8.418 14 9v3.893c0 .996.681 1.92 1.664 2.08.114.019.225.017.336.017V5.541z"/><path fill="#F7F7F7" d="M16 15a2 2 0 01-2-2V9a5 5 0 00-5-5 4.971 4.971 0 00-2.813.869C5.421 6.202 5 7.762 5 9.5 5 15.184 9.458 19 16 19v-4z"/><path fill="#EDEEEE" d="M27 9.5c0-1.738-.421-3.298-1.187-4.631A4.971 4.971 0 0023 4a5 5 0 00-5 5v4a2 2 0 01-2 2v4c6.542 0 11-3.816 11-9.5z"/><ellipse cx="11" cy="26" fill="#FFF" rx="1" ry="2"/><ellipse cx="21" cy="26" fill="#F7F7F7" rx="1" ry="2"/><path fill="#FFD04D" d="M12.946 32H7.054a.505.505 0 01-.496-.6c.299-1.453 1.726-1.9 3.442-1.9s3.144.447 3.442 1.9a.505.505 0 01-.496.6z"/><path fill="#F7C845" d="M24.946 32h-5.893a.505.505 0 01-.496-.6c.299-1.453 1.726-1.9 3.442-1.9s3.144.447 3.442 1.9c.065.308-.18.6-.495.6z"/><path fill="#FFD96C" d="M11.723 32c.171-.295.277-.634.277-1a2 2 0 10-4 0c0 .366.106.705.277 1h3.446z"/><path fill="#FFD04D" d="M23.723 32c.171-.295.277-.634.277-1a2 2 0 10-4 0c0 .366.106.705.277 1h3.446z"/><ellipse cx="10.5" cy="9.5" fill="#515E91" rx="2.5" ry="3.5"/><ellipse cx="10.5" cy="9.5" fill="#373F3F" rx="1.5" ry="2.5"/><circle cx="10" cy="8" r="1" fill="#FFF"/><ellipse cx="21.5" cy="9.5" fill="#495587" rx="2.5" ry="3.5"/><ellipse cx="21.5" cy="9.5" fill="#2B3332" rx="1.5" ry="2.5"/><circle cx="21" cy="8" r="1" fill="#F7F7F7"/><path fill="#FFD04D" d="M16 11c-1.289 0-2 1.119-2 2.5s.711 2.5 2 2.5v-5z"/><path fill="#F7C845" d="M18 13.5c0-1.381-.711-2.5-2-2.5v5c1.289 0 2-1.119 2-2.5z"/><path fill="#FFD96C" d="M16 11c-1.254 0-1.956 1.063-1.993 2.393.512.344 1.248.732 1.993.732V11z"/><path fill="#FFD04D" d="M17.993 13.393C17.956 12.063 17.254 11 16 11v3.125c.745 0 1.481-.388 1.993-.732z"/></svg>