<svg xmlns="http://www.w3.org/2000/svg" width="100%" height="100%" viewBox="-2.72 -2.72 37.44 37.44"><path fill="#E55D53" d="M13 20.993l-4.73 9.46a.25.25 0 00.303.349L11 29.993l3-8-1-1z"/><path fill="#D64F45" d="M14 21.993l-3 8 1.223.815a.5.5 0 00.555 0L14 29.993l1-8h-1z"/><path fill="#D1473D" d="M19 20.993l4.73 9.46a.25.25 0 01-.303.349L21 29.993l-3-8 1-1z"/><path fill="#D64F45" d="M18 21.993l3 8-1.223.815a.5.5 0 01-.555 0L18 29.993l-1-8h1z"/><path fill="#E55D53" d="M16 21.993h-1l-1 8 1.776.888c.07.035.147.053.224.053v-8.941z"/><path fill="#D1473D" d="M16.224 30.881L18 29.993l-1-8h-1v8.941a.492.492 0 00.224-.053z"/><path fill="#DBA728" d="M21.923 7.84L21 5.993l-1 1-4 2 3.616 3.384 1.777-1.777a.506.506 0 00.137-.255l.437-2.183a.504.504 0 00-.044-.322z"/><path fill="#FFD96C" d="M4.969 6.993L2.164 2.27a.249.249 0 00-.391-.049l-.646.645a.248.248 0 00-.046.288l.419.839H.68a.25.25 0 00-.237.171L.069 5.288a.248.248 0 00.125.302L1 5.993l-.862.431A.252.252 0 000 6.648v.691a.25.25 0 00.138.223L1 7.993l-.862.431A.252.252 0 000 8.648v.691a.25.25 0 00.138.223L1 9.993l-.862.431a.252.252 0 00-.138.224v1.165a.25.25 0 00.171.237l1.329.443-1.314.657a.25.25 0 00-.129.292l.36 1.261a.25.25 0 00.352.155l1.731-.865-1.394 1.858a.25.25 0 00-.008.289l.744 1.116a.25.25 0 00.373.049L4 15.743l-.924 2.541a.251.251 0 00.123.309l1.558.779a.25.25 0 00.344-.131L6 16.993v2.529a.25.25 0 00.219.248l1.55.194a.25.25 0 00.276-.199l.455-2.272.46 2.299a.25.25 0 00.245.201H11v-5l-3.632-1.816a1 1 0 01-.5-.574l-1.899-5.61z"/><path fill="#2B3332" d="M19.5 8.993H16l4-2 1.965.983a.485.485 0 01.001.186l-.437 2.183a.491.491 0 01-.137.255l-1.777 1.777.822-2.681-.937-.703z"/><path fill="#FFD04D" d="M27.031 6.993l2.805-4.723a.25.25 0 01.392-.049l.645.645a.25.25 0 01.047.289l-.42.838h.82a.25.25 0 01.237.171l.374 1.123a.251.251 0 01-.125.303L31 5.993l.862.431a.252.252 0 01.138.224v.691a.252.252 0 01-.138.224l-.862.43.862.431a.252.252 0 01.138.224v.691a.252.252 0 01-.138.224l-.862.43.862.431a.252.252 0 01.138.224v1.165a.25.25 0 01-.171.237l-1.329.443 1.314.657a.25.25 0 01.129.292l-.36 1.261a.25.25 0 01-.352.155l-1.731-.865 1.394 1.858a.25.25 0 01.008.289l-.744 1.116a.25.25 0 01-.373.049L28 15.743l.924 2.541a.251.251 0 01-.123.309l-1.558.779a.25.25 0 01-.344-.131L26 16.993v2.529a.25.25 0 01-.219.248l-1.55.194a.25.25 0 01-.276-.199l-.455-2.272-.46 2.299a.25.25 0 01-.245.201H21v-5l3.632-1.816a1 1 0 00.5-.574l1.899-5.61z"/><path fill="#E0B12E" d="M10.077 7.84L11 5.993l1 1 4 2-3.616 3.384-1.777-1.777a.506.506 0 01-.137-.255l-.437-2.183a.504.504 0 01.044-.322zm2.307 4.538l-.411.386a.998.998 0 01-1.001.22l-2.27-.757a2.003 2.003 0 01-1.083-.868L5 6.993 6.869 12.6c.084.252.264.46.501.578L11 14.993l2-1-.616-1.615z"/><path fill="#DBA728" d="M19.616 12.378l.411.386a.998.998 0 001.001.22l2.27-.757a2.003 2.003 0 001.083-.868L27 6.993 25.131 12.6a.997.997 0 01-.501.578L21 14.993l-2-1 .616-1.615z"/><path fill="#D64F45" d="M20 6.993l2.591-2.591a.498.498 0 00-.076-.77c-1.57-1.004-4.441-1.59-6.515-1.59v6.951l4-2z"/><path fill="#E55D53" d="M12 6.993L9.409 4.402a.498.498 0 01.076-.77c1.57-1.004 4.441-1.59 6.515-1.59v6.951l-4-2z"/><path fill="#FFE28A" d="M16 8.993h-3.5l-.938.703.822 2.681L11 14.993s-1 1.62-1 4c0 4.418 2.134 8 6 8v-18z"/><path fill="#FFD96C" d="M21 14.993l-1.384-2.616.822-2.681-.938-.703H16v18c3.866 0 6-3.582 6-8 0-2.38-1-4-1-4z"/><path fill="#FFEAA7" d="M16 1.066c-1.122 0-2.244.14-3.341.421a.503.503 0 00-.32.725L16 8.993V1.066z"/><path fill="#FFE28A" d="M19.341 1.487A13.46 13.46 0 0016 1.066v7.928l3.661-6.782a.503.503 0 00-.32-.725z"/><path fill="#F7F7F7" d="M20 6.993l-.5 2H16z"/><path fill="#2B3332" d="M16 8.993l2.667-1.333v.833a.5.5 0 01-.5.5H16z"/><path fill="#373F3F" d="M12.5 8.993H16l-4-2-1.965.983a.485.485 0 00-.001.186l.437 2.183a.491.491 0 00.137.255l1.777 1.777-.822-2.681.937-.703z"/><path fill="#FFF" d="M12 6.993l.5 2H16z"/><path fill="#373F3F" d="M16 8.993L13.333 7.66v.833a.5.5 0 00.5.5H16z"/><path fill="#F4A984" d="M18.084 25.271l-.553.369a1.652 1.652 0 00-.686.974l-.187.747a.51.51 0 00.495.634h.032a.51.51 0 00.456-.282l.359-.72.452.752a.509.509 0 00.437.248h.396a.51.51 0 00.456-.282l.359-.718.272.679a.51.51 0 00.474.321h.001a.51.51 0 00.495-.634l-.187-.747a1.652 1.652 0 00-.686-.974l-.553-.369a1.65 1.65 0 00-.916-.277 1.66 1.66 0 00-.916.279z"/><path fill="#F6B392" d="M12.084 25.271l-.553.369a1.652 1.652 0 00-.686.974l-.187.747a.51.51 0 00.495.634h.032a.51.51 0 00.456-.282l.359-.72.452.752a.509.509 0 00.437.248h.396a.51.51 0 00.456-.282l.359-.718.272.679a.51.51 0 00.474.321h.001a.51.51 0 00.495-.634l-.187-.747a1.652 1.652 0 00-.686-.974l-.553-.369a1.65 1.65 0 00-.916-.277 1.66 1.66 0 00-.916.279z"/><path fill="#F4A984" d="M16 8.993l-1.193 1.193a.5.5 0 00-.046.654l.84 1.12c.1.133.25.2.4.2V8.993z"/><path fill="#EA9C7A" d="M16.4 11.96l.84-1.12a.5.5 0 00-.046-.654L16 8.993v3.167c.15 0 .3-.067.4-.2z"/></svg>