<svg xmlns="http://www.w3.org/2000/svg" width="100%" height="100%" viewBox="-2.72 -2.72 37.44 37.44"><path fill="#F0C13E" d="M16 16H7v6c0 3.976 4.029 6 9 6V16z"/><path fill="#E8BA36" d="M25 22v-6h-9v12c4.971 0 9-2.024 9-6z"/><path fill="#FF805D" d="M27.686 19.558a2.927 2.927 0 001.893-5.411 11.764 11.764 0 01-5.005-6.07l-.524-1.438A8.565 8.565 0 0016 1v17.782c3.904 0 7.808.259 11.686.776z"/><path fill="#FF8D6E" d="M16 1a8.565 8.565 0 00-8.05 5.639l-.524 1.438a11.769 11.769 0 01-5.005 6.07 2.927 2.927 0 001.893 5.411A88.433 88.433 0 0116 18.782V1z"/><path fill="#FFD96C" d="M20 14.5c0-1.243-1.791-1.5-4-1.5v3c2.209 0 4-.257 4-1.5z"/><path fill="#FFE28A" d="M16 13c-2.209 0-4 .257-4 1.5 0 1.243 1.791 1.5 4 1.5v-3zm0-9c-2.209 0-4 .257-4 1.5C12 6.743 13.791 7 16 7V4z"/><path fill="#FFD96C" d="M20 5.5C20 4.257 18.209 4 16 4v3c2.209 0 4-.257 4-1.5zm10.825 10.217a2.906 2.906 0 00-1.246-1.569 11.84 11.84 0 01-1.591-1.147c-2.203 0-3.988.259-3.988 1.499 0 1.243 1.791 1.5 4 1.5 1.103 0 2.101-.064 2.825-.283zM22 11c1.636 0 3.037-.144 3.657-.721a11.706 11.706 0 01-1.016-2.038C23.935 8.06 23.017 8 22 8c-2.209 0-4 .257-4 1.5 0 1.243 1.791 1.5 4 1.5z"/><path fill="#FFE28A" d="M4 16c2.209 0 4-.257 4-1.5 0-1.24-1.785-1.499-3.988-1.5-.495.423-1.026.808-1.591 1.147a2.914 2.914 0 00-1.246 1.569C1.899 15.936 2.897 16 4 16zm6-8c-1.017 0-1.935.06-2.641.241a11.741 11.741 0 01-1.016 2.038c.62.577 2.021.721 3.657.721 2.209 0 4-.257 4-1.5C14 8.257 12.209 8 10 8z"/><path fill="#FFD04D" d="M1.346 19.369a4.597 4.597 0 00.379 6.84l1 .8A18.221 18.221 0 0014.105 31a.968.968 0 00.931-.659C5.76 28.285 1.346 19.369 1.346 19.369z"/><path fill="#FFD96C" d="M15.035 30.341c.15-.415.047-.921-.416-1.199a8.082 8.082 0 01-2.957-3.098L8.644 20.44c-1.46-2.711-5.12-3.248-7.298-1.071 0 0 4.414 8.916 13.689 10.972z"/><path fill="#F7C845" d="M30.654 19.369a4.597 4.597 0 01-.379 6.84l-1 .8A18.221 18.221 0 0117.895 31a.968.968 0 01-.931-.659c9.276-2.056 13.69-10.972 13.69-10.972z"/><path fill="#FFD04D" d="M16.965 30.341c-.15-.415-.047-.921.416-1.199a8.082 8.082 0 002.957-3.098l3.018-5.605c1.46-2.711 5.12-3.248 7.298-1.071 0 .001-4.414 8.917-13.689 10.973z"/><path fill="#FFD04D" d="M16 17v8c3.314 0 6-1.349 6-4s-2.686-4-6-4z"/><path fill="#FFD96C" d="M10 21c0 2.651 2.686 4 6 4v-8c-3.314 0-6 1.349-6 4z"/><circle cx="13" cy="19" r="2" fill="#FFF"/><circle cx="19" cy="19" r="2" fill="#F7F7F7"/></svg>