<svg xmlns="http://www.w3.org/2000/svg" width="100%" height="100%" viewBox="-2.72 -2.72 37.44 37.44"><path fill="#8DA04A" d="M16 9C9.925 9 5 13.925 5 20c0 2.851 1.084 5.448 2.863 7.402.191.21.525.209.726.009L16 20V9z"/><path fill="#869642" d="M16 9c6.075 0 11 4.925 11 11 0 2.851-1.084 5.448-2.863 7.402a.505.505 0 01-.726.009L16 20V9z"/><path fill="#FFE28A" d="M23.959 19.195a7.977 7.977 0 00-3.144-5.575.498.498 0 01-.113-.673L22 11l-6-2v19a8 8 0 007.959-8.805z"/><path fill="#FFEAA7" d="M10 11l1.298 1.947a.498.498 0 01-.113.673A7.98 7.98 0 008 20a8 8 0 008 8V9l-6 2z"/><path fill="#EFB43F" d="M20.724 30.862L19 30v-2.587a7.91 7.91 0 01-2 .518V31.5a.5.5 0 00.5.5h3a.5.5 0 00.5-.5v-.191a.5.5 0 00-.276-.447z"/><path fill="#F7BC48" d="M13 27.413V30l-1.724.862a.5.5 0 00-.276.447v.191a.5.5 0 00.5.5h3a.5.5 0 00.5-.5v-3.569a7.91 7.91 0 01-2-.518z"/><path fill="#FFD96C" d="M16 24v4a8 8 0 007.959-8.805A8.993 8.993 0 0116 24z"/><path fill="#FFE28A" d="M8.041 19.195A8 8 0 0016 28v-4a8.993 8.993 0 01-7.959-4.805z"/><path fill="#373F3F" d="M15 9.333V9l-5-3-.869 2.607a1 1 0 00.054.763L10 11l5-1.667z"/><path fill="#2B3332" d="M17 9.333V9l5-3 .869 2.607a1 1 0 01-.054.763L22 11l-5-1.667z"/><path fill="#FFEAA7" d="M15 9l-3-5-2.051-.684a.5.5 0 00-.632.632L10 6l5 3z"/><path fill="#FFE28A" d="M17 9l3-5 2.051-.684a.5.5 0 01.632.632L22 6l-5 3z"/><path fill="#FFF" d="M12 7.2v1.44a.5.5 0 001 0V7.8l-1-.6z"/><path fill="#F7F7F7" d="M20 7.2v1.44a.5.5 0 01-1 0V7.8l1-.6z"/><path fill="#F7BC48" d="M16.004 9H15l-1.751 2.626a.5.5 0 00.096.661l2.335 1.946a.505.505 0 00.324.116V9z"/><path fill="#EFB43F" d="M17 9h-.996v5.349a.495.495 0 00.316-.116l2.335-1.946a.5.5 0 00.096-.661L17 9z"/><path fill="#8DA04A" d="M16.004.402a.498.498 0 00-.42.222L14 3l-.509-.509a.5.5 0 00-.801.13L12 4l3 5h1.004V.402z"/><path fill="#869642" d="M18.509 2.491L18 3 16.416.624a.495.495 0 00-.412-.222V9H17l3-5-.69-1.38a.5.5 0 00-.801-.129z"/></svg>