<svg xmlns="http://www.w3.org/2000/svg" width="100%" height="100%" viewBox="-2.72 -2.72 37.44 37.44"><path fill="#5CA3D5" d="M21.807 21.077l-1.067-.657-.864-.531c3.231-5.251 1.59-7.046 3.808-10.65 2.209-3.591 5.382-4.326 6.552-4.023.746.877 1.571 4.071-.638 7.662-2.219 3.603-4.56 2.947-7.791 8.199z"/><ellipse cx="27.928" cy="27.074" fill="#5CA3D5" rx="4.906" ry="4.073" transform="rotate(-86.296 27.929 27.075)"/><path fill="#FF5F7E" d="M23 5.792c0 2.521-1.68 5.128-4.098 5.646-1.068.229-1.339 1.646-1.339 2.509 0 1.303.922 2.042 2.438 2.553 3.483 1.174 5.799 3.875 5.799 7.5 0 3.642-3.487 7-9.799 7V.004C19.75.004 23 2.593 23 5.792z"/><ellipse cx="4.072" cy="27.074" fill="#65A9DC" rx="4.073" ry="4.906" transform="rotate(-3.714 4.066 27.067)"/><path fill="#FF6B8B" d="M16 .004V31c-6.313 0-9.799-3.358-9.799-7 0-3.625 2.316-6.326 5.799-7.5 1.515-.511 2.437-1.249 2.437-2.553 0-.863-.271-2.28-1.339-2.509C10.68 10.919 9 8.312 9 5.792 9 2.593 12.25.004 16 .004z"/><path fill="#FF7899" d="M16 .004v7.653c-3.5 0-4.719-.344-7-1.865C9 2.593 12.25.004 16 .004z"/><path fill="#FF6B8B" d="M23 5.792c-2.281 1.521-3.5 1.865-7 1.865V.004c3.75 0 7 2.589 7 5.788z"/><path fill="#FFF" d="M10.656 8.423a1.816 1.816 0 01-1.295-.568 5.372 5.372 0 01-.392-2.063c0-.831.214-1.615.604-2.329 1.709-1.088 2.709 1.102 2.709 2.475-.001 1.372-.728 2.498-1.626 2.485z"/><ellipse cx="10.723" cy="5.789" fill="#373F3F" rx=".875" ry="1.458"/><ellipse cx="10.723" cy="5.789" fill="#FFF" rx=".438" ry=".729"/><path fill="#F7F7F7" d="M19.719 5.938c0-1.373 1-3.562 2.709-2.475.39.714.604 1.498.604 2.329 0 .739-.132 1.436-.392 2.063-.338.356-.799.56-1.295.568-.899.013-1.626-1.113-1.626-2.485z"/><ellipse cx="21.277" cy="5.789" fill="#2B3332" rx=".875" ry="1.458"/><ellipse cx="21.277" cy="5.789" fill="#F7F7F7" rx=".438" ry=".729"/><path fill="#65A9DC" d="M16 11.25V6.557c.841-.001 1.681.122 2.15.371.544.288 1.035.6.717 1.081l-1.792 2.701c-.239.36-.657.54-1.075.54zm5.969 18.474c-.469-3.35-2.136-7.037-5.969-7.037s-5.5 3.687-5.969 7.037c1.719.943 3.729 1.275 5.969 1.275 2.24.001 4.25-.332 5.969-1.275z"/><path fill="#71B1E1" d="M14.925 10.71l-1.792-2.701c-.319-.48.173-.792.717-1.081.469-.249 1.309-.372 2.15-.371v4.693c-.418 0-.836-.18-1.075-.54zM16 22.687v8.312c-2.24 0-4.25-.333-5.969-1.275.469-3.35 2.136-7.037 5.969-7.037z"/></svg>