<svg xmlns="http://www.w3.org/2000/svg" width="100%" height="100%" viewBox="-2.72 -2.72 37.44 37.44"><path fill="#D2E6F3" d="M16 1a7 7 0 100 14V1z"/><path fill="#C1DDEE" d="M23 8a7 7 0 00-7-7v14a7 7 0 007-7z"/><path fill="#56C7CD" d="M16 1a6.99 6.99 0 00-2 .294V14h2V1z"/><path fill="#51BAC5" d="M18 14V1.294A6.99 6.99 0 0016 1v13h2z"/><path fill="#D2E6F3" d="M16 18c-1.8 0-3.954 2.13-5.394 4.607l-1.193-1.193a1.41 1.41 0 00-1.994 0l-.006.006a1.41 1.41 0 000 1.994l1.955 1.955C9.135 26.122 9 26.849 9 27.5c0 3.59 2.651 3.5 7 3.5V18z"/><path fill="#C1DDEE" d="M23 27.5c0-.651-.135-1.378-.368-2.132l1.955-1.955a1.41 1.41 0 000-1.994l-.006-.006a1.41 1.41 0 00-1.994 0l-1.193 1.193C19.954 20.129 17.8 18 16 18v13c4.349 0 7 .09 7-3.5z"/><path fill="#D2E6F3" d="M22 31.5c0 .5-.672.5-1.5.5s-1.5 0-1.5-.5a1.5 1.5 0 013 0z"/><path fill="#E2EFF7" d="M13 31.5c0 .5-.672.5-1.5.5s-1.5 0-1.5-.5a1.5 1.5 0 013 0zM16 10c-7 0-8 2.91-8 6.5s3.029 6.5 8 6.5V10z"/><path fill="#D2E6F3" d="M24 16.5c0-3.59-1-6.5-8-6.5v13c4.971 0 8-2.91 8-6.5z"/><ellipse cx="13" cy="16.5" fill="#373F3F" rx="1" ry="1.5"/><circle cx="13" cy="16" r=".5" fill="#FFF"/><ellipse cx="19" cy="16.5" fill="#2B3332" rx="1" ry="1.5"/><circle cx="19" cy="16" r=".5" fill="#F7F7F7"/><path fill="#56C7CD" d="M23 11c0-2.209-.895-4-2-4s-2 1.791-2 4c0 1.681.52 1.961 1.254 1.999.168.5.418 1.001.746 1.001s.578-.501.746-1.001C22.48 12.96 23 12.681 23 11z"/><path fill="#66D3D3" d="M11 7c-1.105 0-2 1.791-2 4 0 1.681.52 1.961 1.254 1.999.168.5.418 1.001.746 1.001s.578-.501.746-1.001C12.48 12.96 13 12.681 13 11c0-2.209-.895-4-2-4z"/><path fill="#FFD04D" d="M23.732 18.272C23.388 17.516 22.746 17 22 17c-1.105 0-2 1.119-2 2.5 0 .946.426 1.76 1.046 2.185 1.342-.843 2.264-2.033 2.686-3.413z"/><path fill="#FFD96C" d="M10 17c-.746 0-1.388.516-1.732 1.272.422 1.38 1.344 2.57 2.686 3.412C11.574 21.26 12 20.446 12 19.5c0-1.381-.895-2.5-2-2.5z"/><path fill="#66D3D3" d="M16 10c-.526 0-1.007.022-1.467.053C14.915 11.939 15.457 14 16 14v-4z"/><path fill="#56C7CD" d="M17.467 10.053C17.007 10.021 16.526 10 16 10v4c.543 0 1.085-2.061 1.467-3.947z"/><path fill="#C27BC6" d="M16 19c-1.105 0-2 .5-2 .5 0 1.381.895 2.5 2 2.5v-3z"/><path fill="#B370B9" d="M18 19.5s-.895-.5-2-.5v3c1.105 0 2-1.119 2-2.5z"/><path fill="#FFF" d="M16 19a4.517 4.517 0 00-1.982.491c.529.313 1.218.509 1.982.509v-1z"/><path fill="#F7F7F7" d="M17.982 19.491A4.517 4.517 0 0016 19v1c.764 0 1.453-.196 1.982-.509z"/><path fill="#66D3D3" d="M16 0a.236.236 0 00-.223.151L14.086 4.38a.238.238 0 00.125.309c.346.145 1.068.406 1.79.406V0z"/><path fill="#56C7CD" d="M17.79 4.688a.237.237 0 00.125-.309L16.223.15A.237.237 0 0016 0v5.094c.722 0 1.444-.261 1.79-.406z"/><path fill="#7CD8D5" d="M16 4.309a.247.247 0 00-.224.138l-1.659 3.319a.25.25 0 00.125.342c.357.147 1.057.392 1.758.392V4.309z"/><path fill="#66D3D3" d="M17.758 8.108a.249.249 0 00.125-.342l-1.659-3.319A.247.247 0 0016 4.309V8.5c.701 0 1.401-.245 1.758-.392z"/></svg>