<svg xmlns="http://www.w3.org/2000/svg" width="100%" height="100%" viewBox="-2.72 -2.72 37.44 37.44"><path fill="#60C46F" d="M30 18a2 2 0 002-2v-3.451A9.808 9.808 0 0027 4v3.312L30 18z"/><path fill="#6CD275" d="M2 18a2 2 0 01-2-2v-3.451A9.808 9.808 0 015 4v3.312L2 18z"/><path fill="#54B668" d="M23 22l-1 7h-3l-1-6z"/><path fill="#60C46F" d="M9 22l1 7h3l1-6zm8 8.667C17 32 18.567 32 20.5 32s3.5 0 3.5-1.333C24 28.458 22.433 28 20.5 28s-3.5.458-3.5 2.667z"/><path fill="#6CD275" d="M15 30.667C15 32 13.433 32 11.5 32S8 32 8 30.667C8 28.458 9.567 28 11.5 28s3.5.458 3.5 2.667z"/><path fill="#78DF7C" d="M10.916 1.285C9.995.285 8.58-.246 7.044.112a3.96 3.96 0 00-2.859 2.676c-.327 1.073-.2 2.086.218 2.934.274.557.233 1.214-.065 1.759C3.485 9.037 3 10.879 3 13c0 7.41 5.82 11.5 13 11.5v-23c-1.146 0-2.255.11-3.312.319-.644.127-1.327-.051-1.772-.534z"/><path fill="#6CD275" d="M27.597 5.722c.417-.848.544-1.861.218-2.934A3.962 3.962 0 0024.956.112a3.967 3.967 0 00-3.872 1.173c-.445.483-1.129.661-1.772.534A17.077 17.077 0 0016 1.5v23c7.18 0 13-4.09 13-11.5 0-2.121-.485-3.963-1.337-5.519-.298-.545-.339-1.202-.066-1.759z"/><path fill="#F7F7F7" d="M27 4a3 3 0 11-6 0l5.12-2.123A2.99 2.99 0 0127 4z"/><path fill="#FFF" d="M11 4a3 3 0 11-5.122-2.121L11 4z"/><path fill="#F7F7F7" d="M16 8c4.418 0 8 3.134 8 7s-3.582 7-8 7V8z"/><path fill="#FFF" d="M8 15c0-3.866 3.582-7 8-7v14c-4.418 0-8-3.134-8-7z"/><g fill="#2B3332"><path d="M18.512 15c0 .827-1.077 1.45-2.512 1.463v-.75c1.06-.012 1.762-.433 1.762-.714s-.702-.7-1.762-.713v-.75c1.434.014 2.512.637 2.512 1.464z"/><path d="M20.693 15c0 1.999-2.102 3.624-4.693 3.644v-.75c2.178-.018 3.943-1.308 3.943-2.894 0-1.587-1.766-2.877-3.943-2.895v-.75c2.592.02 4.693 1.645 4.693 3.645z"/><path d="M16 20.077c3.381-.021 6.125-2.289 6.125-5.077S19.381 9.942 16 9.922v-.75c3.795.021 6.875 2.626 6.875 5.828 0 3.201-3.08 5.806-6.875 5.827v-.75z"/></g><g fill="#373F3F"><path d="M15.579 13.909c0-.207.168-.375.375-.375.016 0 .03.002.046.003v.75l-.046-.002a.377.377 0 01-.375-.376z"/><path d="M12.307 13.909c0-1.435 1.603-2.558 3.647-2.558.016 0 .03.003.046.004v.75c-.016 0-.03-.003-.046-.003-1.57 0-2.897.828-2.897 1.808s1.327 1.807 2.897 1.807l.046-.002v.75c-.016 0-.03.003-.046.003-2.045-.002-3.647-1.125-3.647-2.559zm3.272 6.545c0-.207.168-.375.375-.375l.046-.002v.75l-.046.002a.375.375 0 01-.375-.375z"/><path d="M15.954 9.17l.046.002v.75l-.046-.002c-2.801 0-5.079 1.79-5.079 3.989s2.278 3.988 5.079 3.988c.016 0 .03-.003.046-.003v.75c-.016 0-.03.004-.046.004-3.214 0-5.829-2.126-5.829-4.738 0-2.614 2.615-4.74 5.829-4.74z"/></g><circle cx="14.5" cy="6.5" r=".5" fill="#373F3F"/><circle cx="17.5" cy="6.5" r=".5" fill="#2B3332"/><path fill="#F7F7F7" d="M6 11h1a2 2 0 012 2v.023c.625.054 1.22.334 1.599.837C11.772 15.414 10 17 10 17s1.771 1.586.599 3.14c-.421.559-1.106.86-1.806.86H6a3 3 0 01-3-3H2l-.217-.941A2.895 2.895 0 013 14a3 3 0 013-3z"/><path fill="#EDEEEE" d="M26 11h-1a2 2 0 00-2 2v.023c-.625.054-1.22.334-1.599.837C20.228 15.414 22 17 22 17s-1.771 1.586-.599 3.14c.421.559 1.106.86 1.806.86H26a3 3 0 003-3h1l.217-.941A2.895 2.895 0 0029 14a3 3 0 00-3-3z"/><path fill="#2B3332" d="M24.237 2.658l-1.679.696A3.803 3.803 0 0022.5 4c0 1.105.448 2 1 2s1-.895 1-2c0-.519-.101-.987-.263-1.342z"/><path fill="#373F3F" d="M7.5 4c0 1.105.448 2 1 2s1-.895 1-2c0-.227-.023-.442-.058-.645l-1.68-.695C7.601 3.015 7.5 3.482 7.5 4z"/></svg>