<svg xmlns="http://www.w3.org/2000/svg" width="100%" height="100%" viewBox="-2.72 -2.72 37.44 37.44"><path fill="#C56A9B" d="M24.667 20.833c-3.75 2.833-1.167 3.917-10.724 3.917 1.661 1.94 6.638 3 10.039 2.659.982-.098 5.851-1.409 5.851-3.825 0-3.084-2.788-4.548-5.166-2.751z"/><path fill="#8C5699" d="M26.5 21.25c-3.75 2.833-3.333 4-10.391 4 1.661 1.94 6.823 2.591 10.224 2.25.982-.098 5.667-1 5.667-3.417 0-3.083-3.121-4.63-5.5-2.833z"/><path fill="#C976A3" d="M26.833 22.833c-3.75 2.833-3 5.167-10.833 3.25 1.833 3.167 8.833 3.333 11.583 3C29.403 28.863 32 28 32 25.583c0-3.083-2.788-4.547-5.167-2.75z"/><path fill="#E2A1C8" d="M16 0v28.5c-2.083 0-2.689 1.07-4.5 1-4.333-.167-5.452-3.832-5.5-6-.083-3.75 2.25-6.333 2.5-8.75C9.048 9.453 8 0 16 0z"/><path fill="#D786B3" d="M11.25 28.625l-2.018 2.018a.794.794 0 00-.232.561v.003c0 .438.355.793.793.793h2.914a.793.793 0 00.793-.793v-2.582h-2.25z"/><path fill="#E2A1C8" d="M10.5 17.5c-5 0-10.5-3.667-10.5-6.61C0 9 .5 7.265 2.5 7.265c1.875 0 3.066 2.334 3.5 3.235.722 1.5 2.5 2 4.519 2l-.019 5z"/><path fill="#DB92BB" d="M21.481 12.5c2.019 0 3.796-.5 4.519-2 .434-.901 1.625-3.234 3.5-3.235 2 0 2.5 1.735 2.5 3.625 0 2.943-5.5 6.61-10.5 6.61l-.019-5z"/><path fill="#A366AD" d="M9.062 20.438C8.5 22.688 6.875 21.313 6 23.5c-.062-2.813 1.234-4.969 1.992-6.891.133 1.766 1.445 2.331 1.07 3.829z"/><path fill="#DB92BB" d="M23.5 14.75c.25 2.417 2.583 5 2.5 8.75-.048 2.168-1.167 5.833-5.5 6-1.811.07-2.417-1-4.5-1V0c8.042 0 6.952 9.453 7.5 14.75z"/><path fill="#C976A3" d="M20.75 28.625l2.018 2.018c.148.148.232.35.232.561v.003a.793.793 0 01-.793.793h-2.914a.793.793 0 01-.793-.793v-2.582h2.25z"/><path fill="#DB92BB" d="M16 25.438V28.5c-2.083 0-2.689 1.07-4.5 1-4.333-.167-5.417-3.833-5.5-6 1.875 1.125 5.5 1.938 10 1.938z"/><path fill="#D786B3" d="M26 23.5c-.083 2.167-1.167 5.833-5.5 6-1.811.07-2.417-1-4.5-1v-3.062c4.5 0 8.125-.813 10-1.938z"/><path fill="#945BA0" d="M24.01 16.609c.758 1.922 2.055 4.078 1.992 6.891-.875-2.188-2.5-.812-3.062-3.062-.375-1.498.937-2.063 1.07-3.829z"/><path fill="#E2A1C8" d="M16 6.162V0c3.772 0 5.533 2.102 6.398 4.879.079.254-2.96 1.533-6.398 1.283z"/><path fill="#EAB5D7" d="M9.602 4.879C10.467 2.102 12.228 0 16 0v6.162c-3.438.25-6.477-1.029-6.398-1.283z"/><circle cx="19" cy="4" r=".375" fill="#2B3332"/><circle cx="13" cy="4" r=".375" fill="#373F3F"/><path fill="#7F1E32" d="M16 5.416c1.878 0 1.625.562 4.375.292 0 .875-.248 4.249-.938 5.086-.804.975-2.283 1.05-3.438 1.05V5.416z"/><path fill="#B93D4F" d="M16 9.844c1.438 0 2.594.25 3.438.95-.804.975-2.283 1.05-3.438 1.05v-2z"/><path fill="#8A323F" d="M16 11.844c-1.155 0-2.634-.075-3.438-1.05-.69-.837-.937-4.211-.937-5.086 2.75.271 2.497-.292 4.375-.292v6.428z"/><path fill="#C84054" d="M16 11.844c-1.155 0-2.634-.075-3.438-1.05.844-.7 2-.95 3.438-.95v2z"/></svg>