<svg xmlns="http://www.w3.org/2000/svg" width="100%" height="100%" viewBox="-2.72 -2.72 37.44 37.44"><ellipse cx="29.288" cy="3.816" fill="#FFE28A" rx="3.957" ry="2.5" transform="rotate(-70.001 29.288 3.817)"/><path fill="#FFE28A" d="M29 3s3-.509 3 .263C32 8.24 27 13 23 13v-3s2 0 4-2 2-5 2-5z"/><g fill="#FFEAA7"><ellipse cx="2.712" cy="19.184" rx="3.957" ry="2.5" transform="rotate(-70.001 2.711 19.183)"/><path d="M3 20s-3 .509-3-.263C0 14.76 5 10 9 10v3s-2 0-4 2-2 5-2 5z"/></g><path fill="#EF8C48" d="M17 19.057v-3.131c3.668-.49 6.5-3.624 6.5-7.426a7.5 7.5 0 00-15 0c0 3.802 2.832 6.936 6.5 7.426v3.131c-3.391.347-6 2.425-6 4.943 0 2.27 2.119 4.184 5.021 4.794-.007.069-.021.135-.021.206a2 2 0 104 0c0-.071-.014-.137-.021-.206C20.881 28.184 23 26.27 23 24c0-2.518-2.609-4.596-6-4.943z"/><path fill="#F79654" d="M8.5 8.5c0 3.802 2.832 6.936 6.5 7.426v3.131c-3.391.347-6 2.425-6 4.943 0 2.27 2.119 4.184 5.021 4.794-.007.069-.021.135-.021.206a2 2 0 002 2V1a7.5 7.5 0 00-7.5 7.5z"/><circle cx="16" cy="8.5" r="6.5" fill="#FFE28A"/><path fill="#FFEAA7" d="M16 2a6.5 6.5 0 100 13V2z"/><circle cx="16" cy="8" r="2" fill="#EF8C48"/><path fill="#F79654" d="M16 6a2 2 0 100 4V6z"/><path fill="#373F3F" d="M12.056 12.5l-1.919-3.324a1 1 0 011.017-1.489l3.037.463a1 1 0 01.781 1.353l-1.118 2.862a1 1 0 01-1.798.135z"/><path fill="#2B3332" d="M19.944 12.5l1.919-3.324a1 1 0 00-1.017-1.489l-3.036.462a1 1 0 00-.781 1.353l1.118 2.862a1 1 0 001.797.136z"/><ellipse cx="19" cy="23.5" fill="#F7F7F7" rx="2" ry="2.5"/><path fill="#EDEEEE" d="M17 23.5c0 1.5 1 2.5 2 2.5s2-1 2-2.5h-4z"/><ellipse cx="19" cy="23.5" fill="#EFB43F" rx="1" ry="1.5"/><path fill="#E6AB37" d="M18 23.5c0 .828.448 1.5 1 1.5s1-.672 1-1.5h-2z"/><ellipse cx="13" cy="23.5" fill="#FFF" rx="2" ry="2.5"/><path fill="#F7F7F7" d="M11 23.5c0 1.5 1 2.5 2 2.5s2-1 2-2.5h-4z"/><ellipse cx="13" cy="23.5" fill="#F7BC48" rx="1" ry="1.5"/><path fill="#EFB43F" d="M12 23.5c0 .828.448 1.5 1 1.5s1-.672 1-1.5h-2z"/><path fill="#2B3332" d="M16 27.75c-.782 0-1.491-.21-1.897-.562a.25.25 0 11.328-.378c.313.271.915.44 1.57.44.642 0 1.238-.164 1.555-.428a.253.253 0 01.353.032.252.252 0 01-.032.353c-.411.34-1.112.543-1.877.543z"/><path fill="#373F3F" d="M16 27.75c-.782 0-1.491-.21-1.897-.562a.25.25 0 11.328-.378c.313.271.915.44 1.57.44v.5z"/><path fill="none" d="M8.5 8.5c0 3.802 2.832 6.936 6.5 7.426v3.131c-3.391.347-6 2.425-6 4.943 0 2.27 2.119 4.184 5.021 4.794-.007.069-.021.135-.021.206a2 2 0 002 2V1a7.5 7.5 0 00-7.5 7.5zM18 29c0-.071-.014-.137-.021-.206C20.881 28.184 23 26.27 23 24c0-2.518-2.609-4.596-6-4.943v-3.131c3.668-.49 6.5-3.624 6.5-7.426A7.5 7.5 0 0016 1v30a2 2 0 002-2z"/><path fill="#FFEAA7" d="M14 29c0-.071.014-.137.021-.206C11.119 28.184 9 26.27 9 24c0-2.518 2.609-4.596 6-4.943v-3.131c-3.668-.49-6.5-3.624-6.5-7.426A7.5 7.5 0 0116 1V0c-4.687 0-8.5 3.813-8.5 8.5 0 3.94 2.739 7.345 6.5 8.255v1.438c-3.526.664-6 3.008-6 5.807 0 2.518 2.002 4.693 5.057 5.583A3.005 3.005 0 0016 32v-1a2 2 0 01-2-2z"/><path fill="#FFE28A" d="M18 18.192v-1.438c3.761-.909 6.5-4.314 6.5-8.255C24.5 3.813 20.687 0 16 0v1a7.5 7.5 0 017.5 7.5c0 3.802-2.832 6.936-6.5 7.426v3.131c3.391.347 6 2.425 6 4.943 0 2.27-2.119 4.184-5.021 4.794.007.069.021.135.021.206a2 2 0 01-2 2v1a3.005 3.005 0 002.943-2.417C21.998 28.693 24 26.518 24 24c0-2.799-2.474-5.143-6-5.808z"/><path fill="#E8803A" d="M21.598 27c-1.299.5-3.449.75-5.598.75V31a2 2 0 002-2c0-.071-.014-.137-.021-.206 1.462-.307 2.725-.946 3.619-1.794z"/><path fill="#EF8C48" d="M10.402 27c.894.848 2.157 1.486 3.619 1.794-.007.069-.021.135-.021.206a2 2 0 002 2v-3.25c-2.15 0-4.299-.25-5.598-.75z"/><path fill="#2B3332" d="M14.081 3h3.839a1 1 0 01.781 1.625l-1.919 2.399a1 1 0 01-1.562 0L13.3 4.625A1 1 0 0114.081 3z"/><path fill="#373F3F" d="M14.081 3a1 1 0 00-.781 1.625l1.919 2.399c.2.25.49.375.781.375V3h-1.919z"/></svg>