<svg xmlns="http://www.w3.org/2000/svg" width="100%" height="100%" viewBox="-2.72 -2.72 37.44 37.44"><path fill="#abb2b1" d="M24.06 30.223a.552.552 0 00-.39-.12c-.262.009-.327.186-.345.403a1.032 1.032 0 01.703.269 2.9 2.9 0 011.077 1.113l.116.112h.057a1.088 1.088 0 00-.107-.577 5.47 5.47 0 00-1.11-1.2z"/><path fill="#f4f4f4" d="M30.912 22.867l.054-.002v-.517h-.054v.519z"/><path fill="#f6f7f7" d="M21.084 0v.053h.289A.9.9 0 0121.372 0z"/><path fill="#edeeee" d="M16.504 7.515c.032-.231.104-.457.159-.685.074-.3.151-.598.221-.898.018-.075.027-.136.119-.068a2.724 2.724 0 01.287-1.384c.344-.981.853-1.19 1.775-.723a4.279 4.279 0 00.787.342 1.207 1.207 0 001.372-.517 3.476 3.476 0 00.23-.521.519.519 0 01.81-.288 1.796 1.796 0 01.566.471 9.21 9.21 0 01.685 1.157 1.482 1.482 0 001.473.886 1.046 1.046 0 001.087-.967 4.863 4.863 0 00.007-.545c.003-.687.099-.784.77-.784.306 0 .43-.12.439-.432.004-.153-.014-.307 0-.459.019-.19.081-.355.314-.381.06-.007.147.074.172-.009.022-.074-.072-.129-.132-.17a.302.302 0 00-.467.15 2.67 2.67 0 00-.112.414c-.083.405-.22.464-.556.23-.063-.043-.113-.104-.173-.15a.64.64 0 00-.99.21c-.077.151-.118.321-.185.478-.04.093-.069.221-.198.219-.121-.003-.118-.13-.153-.214A4.326 4.326 0 0021.373.053h-.29a1.498 1.498 0 00-1.03.492 3.805 3.805 0 01-.427.38.336.336 0 01-.364.067 1.569 1.569 0 00-1.01-.004c-.052.016-.11.07-.158.023-.05-.049.01-.103.03-.15a1.004 1.004 0 00.087-.502c-.01-.098-.035-.234-.116-.24-.105-.007-.091.136-.11.22-.079.351-.207.654-.613.737a2.454 2.454 0 00-1.342.708.284.284 0 00-.03.088V7.98a.488.488 0 00.504-.466z"/><path fill="#dadddc" d="M16.179 16.985a2.257 2.257 0 01.94-.725c.067-.034.172-.125.145.073-.019.133.082.087.151.067a6.264 6.264 0 001.411-.45c.166-.094.149-.053.145.118a5.646 5.646 0 00.073 1.482 1.428 1.428 0 01-.546 1.313 1.59 1.59 0 01-.25.19c-.317.228-.322.238.029.422a7.15 7.15 0 001.227.615c.364.11.325.425.36.679.068.489.093.984.128 1.477a3.538 3.538 0 01-1.08 2.652c-.143.16-.355.267-.416.497a1.478 1.478 0 00.446.784 2.602 2.602 0 01.716.864c.24.39.494.77.732 1.162.209.343.159.529-.19.725a4.479 4.479 0 01-.443.192c.334.073.356.145.178.577a4.041 4.041 0 00.785.106.747.747 0 01.83.535 2.056 2.056 0 001.128.992c.073.039.127 0 .187-.023-.113-.163-.235-.313-.11-.537a.524.524 0 01.57-.266c.018-.217.083-.394.345-.404a1.298 1.298 0 01.514-.112 6.793 6.793 0 00-1.822-1.317c-.08-.037-.163-.086-.177-.175a2.223 2.223 0 01-.052-1.204 2.917 2.917 0 01.689-1.144.704.704 0 00.22-.453c.061-.519.11-1.04.2-1.554a1.136 1.136 0 00-.335-1.092c-.411-.4-.807-.816-1.214-1.219a3.11 3.11 0 01-1.01-2.4.774.774 0 00-.234-.566l-.29-.314a2.38 2.38 0 01-.262-.104c-.186-.101-.326-.087-.403.133a.79.79 0 01-.05.097.726.726 0 01-.043-.1 7.848 7.848 0 01-.245-1.478c-.01-.14.071-.177.177-.091.367.298.779.537 1.124.862.123 0 .18.099.254.17a13.984 13.984 0 011.247 1.453 2.02 2.02 0 001.043.885c1.016.256 2.02.557 3.039.804a1.105 1.105 0 01.843.684 1.462 1.462 0 00.279.498c.053.053.113.13.193.078.078-.051.003-.121-.021-.177a2.383 2.383 0 01-.157-.693c-.003-.032-.018-.082.033-.092.019-.003.05.023.065.042a7.535 7.535 0 01.878 1.053 3.197 3.197 0 01.403 1.475c.003.11-.012.268.126.277.12.008.177-.14.199-.25a4.995 4.995 0 00.072-.566 5.675 5.675 0 00-.116-1.393.092.092 0 01-.043-.113c.001-.006.01-.009.017-.013l.029.067a1.444 1.444 0 01.308.511 4.838 4.838 0 01.384 1.805c0 .105-.053.273.091.293.127.017.15-.154.184-.254a3.403 3.403 0 00.18-.98 7.806 7.806 0 00-.33-2.337c-.014-.052-.027-.15-.013-.155.062-.024.093.045.137.078a2.604 2.604 0 01.95 1.883c.018.127-.029.27.09.373a.708.708 0 00.091-.41v-.52a2.406 2.406 0 00-.379-1.212c-.927-1.385-1.914-2.677-3.771-2.848-.917-.085-1.828-.235-2.74-.366-.433-.062-.896-.04-1.208-.46a3.223 3.223 0 00-.477-.406c-.383-.341-.763-.687-1.144-1.032-.424-.296-.76-.692-1.155-1.02a1.033 1.033 0 00-.627-.304c-.16-.007-.285-.035-.245-.294.061-.395.13-.788.221-1.176a.276.276 0 00-.03-.242 9.3 9.3 0 00-1.337-.481c-.138-.03-.306-.393-.262-.52.036-.107.114-.043.166-.037a6.133 6.133 0 011.666.462l.144-.294c.123.08.058.222.109.325a1.213 1.213 0 00.094.138.504.504 0 01.054.007c.152-.323.302-.647.457-.969.07-.144.15-.282.226-.424a4.989 4.989 0 00-1.288-.645c-.084-.027-.197-.031-.21-.158-.105.107-.217.02-.316-.002a8.593 8.593 0 00-.935-.164c.062.432-.006.543-.435.691a4.441 4.441 0 01-1.49.224v2.472c.327-.057.655-.108.98-.175a3.642 3.642 0 001.118-.427c.197-.115.285-.048.356.15.186.519.147.635-.363.859a4.896 4.896 0 01-1.466.339 2.461 2.461 0 01-.625.058v2.694a.254.254 0 00.179-.125z"/><path fill="#e3e5e5" d="M17.12 7.94a1.403 1.403 0 01.106-.325c.063-.12.054-.355.217-.328a.557.557 0 01.485.3c.317.12.302-.004.18-.233-.072-.134-.006-.185.138-.175.209.014.419.015.628.023.032.002.075.046.09-.005.008-.023-.029-.066-.054-.091a1.932 1.932 0 00-.719-.554c-.045-.016-.103-.021-.112-.075-.011-.073.057-.088.106-.113a3.96 3.96 0 01.786-.345c.04-.01.074-.051.11-.078-.034-.014-.069-.03-.104-.043a5.03 5.03 0 00-.868-.153c-.068-.011-.143.088-.187 0-.011-.022.088-.112.148-.155.41-.295.822-.587 1.233-.879a.121.121 0 00-.115-.058 4.952 4.952 0 00-1.684.587c-.118.074-.153.073-.158-.08-.006-.227-.036-.453-.056-.68a2.724 2.724 0 00-.287 1.384c.027.158.051.317.081.475.073.383-.012.483-.421.49-.055.23-.127.455-.159.686a.488.488 0 01-.504.466v.865a1.005 1.005 0 001.12-.906z"/><path fill="#dadddc" d="M17.465 9.531c.066-.375.125-.75.2-1.124a.426.426 0 01.142-.303 1.65 1.65 0 01.12-.518.557.557 0 00-.484-.3c-.163-.026-.154.21-.217.33a1.403 1.403 0 00-.106.324 1.005 1.005 0 01-1.12.906v1.552a3.492 3.492 0 001.465-.406z"/><path fill="#9da5a4" d="M17.807 8.104a.426.426 0 00-.142.303c-.075.373-.134.75-.2 1.124l.34.295c.141.103.118.255.12.4a8.593 8.593 0 01.935.163c.1.022.21.109.315.002l.062-.159c.213-.563.19-.69-.254-1.097-.385-.351-.783-.688-1.176-1.03z"/><path fill="#edeeee" d="M16.125 28.051c.055-.22.093-.446.136-.67.01-.048.02-.102.074-.103.024-.001.052.048.071.08a.948.948 0 00.368.425c.026.011.06.041.074.034.044-.025.01-.062.002-.095-.057-.231-.125-.46-.168-.693-.067-.363-.064-.788.263-.964a10.68 10.68 0 001.417-.732c.073-.055.087.046.134.062.061-.23.272-.336.416-.497a3.538 3.538 0 001.08-2.652c-.035-.493-.06-.988-.128-1.477-.036-.254.004-.57-.36-.679a7.15 7.15 0 01-1.227-.615c-.352-.184-.346-.195-.03-.423a1.59 1.59 0 00.25-.19 1.428 1.428 0 00.547-1.313 5.646 5.646 0 01-.073-1.481c.004-.17.02-.212-.145-.117a6.264 6.264 0 01-1.411.448c-.069.02-.17.067-.151-.066.027-.198-.078-.107-.144-.073a2.257 2.257 0 00-.941.725.254.254 0 01-.18.125v11.085c.009.008.005.025.02.026.096.01.09-.108.106-.17z"/><path fill="#b9bfbe" d="M24.028 30.775a1.032 1.032 0 00-.703-.269.524.524 0 00-.57.266c-.126.224-.003.374.11.537a.888.888 0 00.218.132 14.918 14.918 0 002.022.447 2.9 2.9 0 00-1.077-1.113z"/><path fill="#9da5a4" d="M19.756 29.122a.901.901 0 00-.678.677c-.015.123-.003.22.16.131a2.872 2.872 0 01.696-.231c.179-.432.157-.504-.178-.577z"/><path fill="#c8cccb" d="M19.156 17.1a7.848 7.848 0 00.245 1.479.726.726 0 00.043.1.79.79 0 00.05-.098c.077-.22.217-.234.403-.133a2.38 2.38 0 00.262.104l.298-.681c-.346-.325-.757-.564-1.124-.862-.106-.086-.187-.049-.177.09z"/><path fill="#9da5a4" d="M24.184 29.99a1.298 1.298 0 00-.515.112.552.552 0 01.391.121 5.468 5.468 0 011.111 1.2 2.061 2.061 0 00-.987-1.433z"/><path fill="#e1e2e2" d="M28.794 22.006a.092.092 0 00.043.113l.003-.059-.03-.067c-.005.004-.014.007-.016.013z"/><path fill="#3b8fa3" d="M17.003 5.864c-.092-.068-.1-.007-.119.068-.07.3-.147.599-.221.898.409-.008.494-.108.421-.491-.03-.158-.054-.317-.081-.475z"/><path fill="#b9bfbe" d="M18.091 14.018c.51-.223.55-.34.363-.859-.071-.197-.16-.264-.356-.149a3.642 3.642 0 01-1.118.427c-.325.067-.653.118-.98.175v.804a2.461 2.461 0 00.625-.058 4.896 4.896 0 001.466-.34zm-.166-3.793c-.002-.144.021-.296-.12-.4l-.34.167a3.496 3.496 0 01-1.465.406v.742a4.441 4.441 0 001.49-.224c.429-.147.497-.26.435-.69z"/><path fill="#9da5a4" d="M17.758 11.986c-.044.127.124.49.262.52a9.305 9.305 0 011.336.481c.21-.138.174-.377.234-.576a6.133 6.133 0 00-1.666-.462c-.052-.006-.13-.07-.166.037z"/><path fill="#c8cccb" d="M21.906 12.604c-.145-.06-.3.175-.422.319-.07-.041-.046-.114-.06-.174.035-.445.08-.889.103-1.334a8.656 8.656 0 00-.009-1.34c-.005-.053-.026-.139-.056-.147-.064-.017-.082.064-.11.11q-.34.578-.677 1.156c-.076.142-.157.28-.227.424-.155.322-.305.646-.457.969a.504.504 0 00-.054-.007 1.213 1.213 0 01-.094-.138c-.051-.103.014-.246-.11-.325l-.143.294c-.06.2-.024.438-.234.576a.276.276 0 01.031.242c-.09.388-.16.78-.221 1.176-.04.259.085.287.245.294a1.033 1.033 0 01.627.303c.396.329.731.725 1.155 1.021a13.32 13.32 0 00.73-2.89c.02-.186.099-.48-.017-.529z"/><path fill="#fbfbfb" d="M17.465 9.992l.34-.166-.34-.295z"/><path fill="#b9bfbe" d="M7.94 30.246a.552.552 0 01.39-.12c.262.009.327.186.345.403a1.032 1.032 0 00-.703.269 2.9 2.9 0 00-1.077 1.113l-.116.112h-.057a1.088 1.088 0 01.107-.577 5.47 5.47 0 011.11-1.2z"/><path fill="#f4f4f4" d="M1.088 22.89l-.054-.002v-.517h.054v.519z"/><path fill="#f6f7f7" d="M10.916.023v.053h-.289c.001-.018.002-.035.001-.053z"/><path fill="#f7f7f7" d="M15.496 7.538c-.032-.231-.104-.457-.159-.685-.074-.3-.151-.598-.221-.898-.018-.075-.027-.136-.119-.068a2.724 2.724 0 00-.287-1.384c-.344-.981-.853-1.19-1.775-.723a4.278 4.278 0 01-.787.342 1.207 1.207 0 01-1.372-.517 3.476 3.476 0 01-.23-.521.519.519 0 00-.81-.288 1.796 1.796 0 00-.566.471 9.21 9.21 0 00-.684 1.157 1.482 1.482 0 01-1.474.886 1.046 1.046 0 01-1.087-.967 4.864 4.864 0 01-.007-.545c-.003-.687-.099-.784-.77-.784-.306 0-.43-.12-.439-.432-.004-.153.014-.307 0-.459-.019-.19-.081-.355-.314-.381-.06-.007-.147.074-.172-.009-.022-.074.072-.129.132-.17a.302.302 0 01.467.15 2.67 2.67 0 01.112.414c.083.405.22.464.556.23.063-.043.113-.104.173-.15a.64.64 0 01.99.21c.077.151.118.321.185.478.04.093.069.221.198.219.121-.003.118-.13.153-.214A4.326 4.326 0 0110.627.076h.29a1.498 1.498 0 011.03.492 3.803 3.803 0 00.427.38.336.336 0 00.364.067 1.569 1.569 0 011.01-.004c.052.016.11.07.158.023.05-.049-.01-.103-.03-.15a1.004 1.004 0 01-.087-.502c.01-.098.035-.234.116-.24.105-.007.091.136.11.22.079.351.207.654.613.737a2.454 2.454 0 011.342.708.284.284 0 01.03.088v6.109a.488.488 0 01-.504-.466z"/><path fill="#e3e5e5" d="M15.821 17.008a2.257 2.257 0 00-.94-.725c-.067-.034-.172-.125-.145.073.019.133-.082.087-.151.067a6.264 6.264 0 01-1.411-.45c-.166-.094-.149-.053-.145.118a5.646 5.646 0 01-.073 1.482 1.428 1.428 0 00.546 1.313 1.59 1.59 0 00.25.19c.317.228.323.238-.029.422a7.149 7.149 0 01-1.227.615c-.364.11-.325.425-.36.679-.068.489-.093.984-.127 1.477a3.538 3.538 0 001.08 2.652c.143.16.354.267.415.497a1.478 1.478 0 01-.446.784 2.602 2.602 0 00-.716.864c-.24.39-.494.77-.732 1.162-.209.343-.159.529.19.725a4.477 4.477 0 00.444.192c-.335.073-.357.145-.179.577a4.041 4.041 0 01-.785.106.747.747 0 00-.83.535 2.056 2.056 0 01-1.128.992c-.073.039-.127 0-.187-.023.113-.163.236-.313.11-.537a.524.524 0 00-.57-.266c-.018-.217-.083-.394-.345-.404a1.297 1.297 0 00-.514-.112 6.793 6.793 0 011.822-1.317c.08-.037.163-.086.177-.175a2.223 2.223 0 00.052-1.204 2.917 2.917 0 00-.689-1.144.704.704 0 01-.22-.453c-.06-.519-.11-1.04-.2-1.554a1.136 1.136 0 01.335-1.092c.411-.4.807-.816 1.214-1.219a3.11 3.11 0 001.01-2.4.774.774 0 01.234-.566l.29-.314a2.38 2.38 0 00.262-.104c.186-.101.326-.087.403.133a.789.789 0 00.05.097.725.725 0 00.043-.1 7.848 7.848 0 00.245-1.478c.01-.14-.071-.177-.177-.091-.367.298-.778.537-1.124.862-.123 0-.18.099-.254.17a13.984 13.984 0 00-1.247 1.453 2.02 2.02 0 01-1.043.885c-1.016.256-2.02.557-3.039.804a1.105 1.105 0 00-.843.684 1.462 1.462 0 01-.279.498c-.053.053-.113.13-.193.078-.078-.051-.003-.121.021-.177a2.383 2.383 0 00.157-.693c.003-.032.018-.082-.033-.092-.019-.003-.05.023-.065.042a7.536 7.536 0 00-.878 1.053 3.197 3.197 0 00-.403 1.475c-.003.11.012.268-.126.277-.12.008-.177-.14-.199-.25a4.996 4.996 0 01-.072-.566 5.675 5.675 0 01.116-1.393.092.092 0 00.043-.113c-.001-.006-.01-.009-.017-.013l-.029.067a1.444 1.444 0 00-.308.511 4.838 4.838 0 00-.384 1.805c0 .105.053.273-.091.293-.127.017-.15-.154-.184-.254a3.403 3.403 0 01-.18-.98 7.806 7.806 0 01.33-2.337c.014-.052.027-.15.014-.155-.063-.024-.094.045-.138.078a2.604 2.604 0 00-.95 1.883c-.018.127.029.27-.09.373a.708.708 0 01-.091-.41v-.52a2.406 2.406 0 01.379-1.212c.927-1.385 1.914-2.677 3.771-2.848.917-.085 1.828-.235 2.74-.366.433-.062.896-.04 1.208-.46a3.222 3.222 0 01.477-.406c.383-.341.763-.687 1.144-1.032.424-.296.76-.692 1.155-1.02a1.033 1.033 0 01.627-.304c.16-.007.286-.035.245-.295-.061-.394-.13-.787-.221-1.175a.276.276 0 01.03-.242 9.302 9.302 0 011.337-.481c.138-.03.306-.392.262-.52-.036-.107-.114-.043-.166-.037a6.132 6.132 0 00-1.666.462l-.144-.294c-.124.08-.058.222-.109.325a1.212 1.212 0 01-.094.138.507.507 0 00-.054.007c-.152-.323-.302-.647-.457-.969-.07-.144-.15-.282-.227-.424a4.99 4.99 0 011.29-.645c.083-.027.196-.031.21-.158.104.107.216.02.315-.002a8.598 8.598 0 01.935-.164c-.062.432.006.543.435.691a4.441 4.441 0 001.49.224v2.472c-.327-.057-.655-.108-.98-.175a3.642 3.642 0 01-1.118-.427c-.197-.115-.285-.048-.356.15-.186.519-.147.635.363.859a4.895 4.895 0 001.466.339 2.46 2.46 0 00.625.058v2.694a.255.255 0 01-.179-.125z"/><path fill="#edeeee" d="M14.88 7.963a1.403 1.403 0 00-.106-.325c-.063-.12-.054-.355-.217-.328a.557.557 0 00-.485.3c-.317.12-.302-.004-.18-.233.072-.134.006-.185-.138-.175-.209.014-.419.015-.628.023-.032.002-.075.046-.09-.005-.008-.023.029-.066.054-.091a1.932 1.932 0 01.72-.554c.044-.016.102-.022.11-.075.013-.073-.056-.088-.105-.113a3.962 3.962 0 00-.786-.345c-.04-.01-.074-.051-.11-.078.034-.014.069-.03.104-.043a5.03 5.03 0 01.868-.153c.068-.011.143.088.187 0 .011-.022-.088-.112-.148-.155-.41-.295-.822-.587-1.233-.879a.121.121 0 01.115-.058 4.952 4.952 0 011.684.587c.118.074.153.073.158-.08.006-.227.036-.453.056-.68a2.724 2.724 0 01.287 1.384c-.027.158-.051.317-.081.475-.073.383.012.483.421.49.055.23.127.455.159.686a.488.488 0 00.504.466v.865a1.005 1.005 0 01-1.12-.906z"/><path fill="#e3e5e5" d="M14.535 9.554c-.066-.375-.125-.75-.2-1.124a.426.426 0 00-.142-.303 1.65 1.65 0 00-.12-.518.557.557 0 01.484-.3c.163-.026.154.21.217.33a1.403 1.403 0 01.106.324 1.005 1.005 0 001.12.906v1.552a3.492 3.492 0 01-1.465-.406z"/><path fill="#abb2b1" d="M14.193 8.127a.426.426 0 01.142.303c.075.373.134.75.2 1.124l-.34.295c-.141.103-.118.255-.12.4a8.598 8.598 0 00-.935.163c-.1.022-.21.109-.315.002l-.062-.159c-.213-.563-.19-.69.254-1.097.385-.351.783-.688 1.176-1.03z"/><path fill="#f7f7f7" d="M15.875 28.074c-.055-.22-.093-.446-.136-.67-.01-.048-.02-.102-.074-.103-.024-.001-.052.049-.071.08a.948.948 0 01-.368.425c-.026.011-.06.041-.074.034-.044-.024-.01-.062-.002-.095.057-.231.125-.46.168-.693.067-.363.064-.788-.263-.964a10.679 10.679 0 01-1.417-.732c-.073-.055-.087.046-.134.062-.061-.23-.272-.336-.416-.497a3.538 3.538 0 01-1.08-2.652c.035-.493.06-.988.128-1.477.036-.254-.004-.57.36-.679a7.149 7.149 0 001.227-.615c.352-.184.346-.195.03-.423a1.59 1.59 0 01-.25-.19 1.428 1.428 0 01-.547-1.313 5.646 5.646 0 00.073-1.481c-.004-.17-.02-.212.145-.117a6.264 6.264 0 001.41.448c.07.02.17.067.152-.066-.027-.198.078-.107.144-.073a2.257 2.257 0 01.941.725.255.255 0 00.18.125v11.085c-.009.008-.005.025-.02.026-.096.01-.09-.108-.106-.17z"/><path fill="#c8cccb" d="M7.972 30.798a1.032 1.032 0 01.703-.269.524.524 0 01.57.266c.126.224.003.374-.11.537a.887.887 0 01-.218.132 14.916 14.916 0 01-2.022.447 2.9 2.9 0 011.077-1.113z"/><path fill="#9da5a4" d="M12.244 29.145a.9.9 0 01.678.677c.015.123.003.22-.16.131a2.872 2.872 0 00-.696-.231c-.179-.432-.157-.504.178-.577z"/><path fill="#d1d4d4" d="M12.844 17.123a7.848 7.848 0 01-.245 1.479.725.725 0 01-.043.1.789.789 0 01-.05-.098c-.077-.22-.217-.234-.403-.133a2.38 2.38 0 01-.262.104l-.298-.681c.346-.325.757-.564 1.124-.862.106-.086.187-.049.177.09z"/><path fill="#abb2b1" d="M7.816 30.013a1.297 1.297 0 01.515.112.552.552 0 00-.391.121 5.468 5.468 0 00-1.111 1.2 2.061 2.061 0 01.987-1.433z"/><path fill="#e1e2e2" d="M3.206 22.03a.092.092 0 01-.043.112l-.003-.059.03-.067c.005.004.014.008.016.013z"/><path fill="#4295ac" d="M14.997 5.887c.092-.068.1-.007.119.068.07.3.147.599.221.898-.409-.008-.494-.108-.421-.491.03-.158.054-.317.081-.475z"/><path fill="#c8cccb" d="M13.909 14.041c-.51-.223-.55-.34-.363-.859.071-.197.16-.264.356-.149a3.642 3.642 0 001.118.427c.325.067.653.118.98.175v.804a2.46 2.46 0 01-.625-.058 4.895 4.895 0 01-1.466-.34zm.166-3.793c.002-.144-.021-.296.12-.4l.34.167A3.496 3.496 0 0016 10.42v.742a4.441 4.441 0 01-1.49-.224c-.429-.147-.497-.26-.435-.69z"/><path fill="#abb2b1" d="M14.242 12.009c.044.127-.124.49-.262.52a9.306 9.306 0 00-1.336.481c-.21-.138-.174-.377-.234-.576a6.132 6.132 0 011.666-.462c.052-.006.13-.07.166.037z"/><path fill="#d1d4d4" d="M10.094 12.627c.145-.06.3.175.422.319.07-.041.046-.114.06-.174-.035-.445-.08-.889-.103-1.334a8.656 8.656 0 01.009-1.34c.005-.053.026-.139.056-.147.064-.017.082.064.11.11q.34.578.677 1.156c.076.142.157.28.227.424.155.322.305.646.457.969a.507.507 0 01.054-.007 1.212 1.212 0 00.094-.138c.051-.103-.014-.246.11-.325l.143.294c.06.2.024.438.234.576a.276.276 0 00-.031.242c.09.388.16.78.221 1.176.04.259-.085.287-.245.294a1.033 1.033 0 00-.627.303c-.396.329-.731.725-1.155 1.021a13.32 13.32 0 01-.73-2.89c-.02-.186-.099-.48.017-.529z"/><path fill="#fbfbfb" d="M14.535 10.015l-.34-.166.34-.295z"/></svg>