<svg xmlns="http://www.w3.org/2000/svg" width="100%" height="100%" viewBox="-2.72 -2.72 37.44 37.44"><path fill="#845331" d="M16.5 30l-.001-1C17.092 28.999 31 28.742 31 9.5h1C32 29.766 16.655 30 16.5 30z"/><path fill="#F7BC48" d="M32 10V4.809a.5.5 0 00-.724-.447L30 5 27.165.275a.567.567 0 00-1.044.393l1.606 8.834a1 1 0 001.539.653L31 9v1h1z"/><path fill="#FCA15E" d="M28.576 31.151C27.413 30 23.953 30 23.953 30s1-1 1-4c0-.992-.44-1.761-1.025-2.352.012-.212.025-.424.025-.648 0-.523-.041-1.058-.107-1.596l4.094-2.729a1.379 1.379 0 00-.991-2.508l-4.427.738c-1.347-2.754-3.591-4.879-6.521-4.902v17.995c1.509-.004 2.835-.199 3.953-.605v1.192c0 .265.105.52.293.707l.414.414a.99.99 0 00.706.294h6.849c.442 0 .674-.538.36-.849z"/><path fill="#96643B" d="M12.895 8.14S11.48 3.737 8.427 2.388c-.727-.321-1.508.32-1.372 1.103.224 1.291.17 3.216-1.423 4.929a1.003 1.003 0 00.033 1.413c.965.923 3.013 2.055 6.352.061l.878-1.754z"/><path fill="#FFAD68" d="M7.192 2.796a.99.99 0 00-.137.695c.224 1.291.17 3.216-1.423 4.929-.013.013-.017.031-.028.044 2.396 2.745 6.414 1.43 6.414 1.43l.877-1.754s-2.389-3.517-5.703-5.344z"/><path fill="#8D5B36" d="M19.126 8.14s1.415-4.403 4.468-5.752c.726-.321 1.508.32 1.372 1.103-.224 1.291-.17 3.216 1.423 4.929a1.004 1.004 0 01-.034 1.413c-.965.923-3.013 2.055-6.352.061l-.877-1.754z"/><path fill="#FCA15E" d="M24.829 2.796c.12.198.182.436.137.695-.224 1.291-.17 3.216 1.423 4.929.012.013.016.031.028.044-2.396 2.745-6.414 1.43-6.414 1.43l-.877-1.754s2.388-3.517 5.703-5.344z"/><path fill="#8D5B36" d="M28.215 32h-3.263c0-.693.192-1.335.502-1.903 1.077.123 2.449.402 3.109 1.042a.5.5 0 01-.348.861z"/><path fill="#FFAD68" d="M15.953 12c-2.954 0-5.214 2.134-6.569 4.905l-4.426-.738a1.379 1.379 0 00-.991 2.508l4.094 2.729A12.967 12.967 0 007.953 23c0 .224.013.436.025.648-.585.591-1.025 1.36-1.025 2.352 0 3 1 4 1 4s-3.46 0-4.623 1.151c-.315.311-.082.849.359.849h6.849c.265 0 .52-.105.707-.293l.414-.414a1 1 0 00.293-.707v-1.19c1.13.41 2.472.604 4 .604l.047-.001V12.004c-.015-.001-.03-.004-.046-.004zM16 5c3.728 0 5.112.549 6 4 .164.639 2 2.917 2 5 0 4.418-3.582 5-8 5V5z"/><path fill="#FFB76D" d="M16 5c-3.728 0-5.112.549-6 4-.164.639-2 2.917-2 5 0 4.418 3.582 5 8 5V5z"/><path fill="#2B3332" d="M17 14.501c0-.552-.448-.5-1-.5v1c.552 0 1 .053 1-.5z"/><path fill="#373F3F" d="M16 14.001c-.552 0-1-.052-1 .5s.448.5 1 .5v-1z"/><circle cx="12.5" cy="12.5" r="1.5" fill="#96643B"/><path fill="#373F3F" d="M12.5 11c-.286 0-.55.084-.777.223A1.481 1.481 0 0011.5 12a1.5 1.5 0 001.5 1.5c.286 0 .55-.084.777-.223.139-.227.223-.491.223-.777a1.5 1.5 0 00-1.5-1.5z"/><circle cx="13" cy="12" r=".5" fill="#FFF"/><circle cx="19.5" cy="12.5" r="1.5" fill="#8D5B36"/><path fill="#2B3332" d="M19.5 11c.286 0 .55.084.777.223.139.227.223.491.223.777a1.5 1.5 0 01-1.5 1.5c-.286 0-.55-.084-.777-.223A1.481 1.481 0 0118 12.5a1.5 1.5 0 011.5-1.5z"/><circle cx="19" cy="12" r=".5" fill="#F7F7F7"/><circle cx="10" cy="15" r="1" fill="#FEF1C6"/><circle cx="22" cy="15" r="1" fill="#FFEAA7"/><path fill="#FEF1C6" d="M9.953 27v.014c.002.932.595 1.765 1.442 2.154 1.245.573 2.797.836 4.604.831l.001-.001v-8.997l-.002-.002A6.001 6.001 0 009.953 27z"/><path fill="#FFEAA7" d="M21.953 27A5.999 5.999 0 0016 21.002v8.996c1.85-.005 3.428-.294 4.679-.912a2.329 2.329 0 001.273-2.065l.001-.021z"/><path fill="#96643B" d="M3.497 16.911a1.379 1.379 0 00.469 1.764l1.286.857a3.151 3.151 0 001.401-2.621c0-.161-.024-.315-.047-.469l-1.647-.275a1.382 1.382 0 00-1.462.744z"/><path fill="#8D5B36" d="M28.408 16.911c.311.622.11 1.378-.469 1.764l-1.286.857a3.151 3.151 0 01-1.401-2.621c0-.161.024-.315.047-.469l1.647-.275a1.382 1.382 0 011.462.744z"/><path fill="#96643B" d="M3.69 32h3.263c0-.693-.192-1.335-.502-1.903-1.077.123-2.449.402-3.109 1.042A.5.5 0 003.69 32z"/></svg>