<svg xmlns="http://www.w3.org/2000/svg" width="100%" height="100%" viewBox="-2.72 -2.72 37.44 37.44"><path fill="#B1E346" d="M15.972 15.181c1.956-.098 3.398 2.408 3.789 6.209.408 3.969-2.466 7.236-3.789 7.236V15.181z"/><path fill="#A2D336" d="M19.822 22.269c-.043 2.905-1.743 5.296-3.034 6.079.383 2.083 1.139 3.652 1.786 3.652.909 0 1.645-2.649 1.645-5.916.001-1.462-.152-2.782-.397-3.815z"/><path fill="#AADB3D" d="M17.776 27.502c.053 1.89.32 3.638.845 4.49.887-.088 1.599-2.696 1.599-5.908 0-1.462-.153-2.782-.397-3.815-.033 2.197-1.013 4.097-2.047 5.233z"/><path fill="#BEE758" d="M17.06 17.643c0-.971-.069-1.733-.188-2.306a2.134 2.134 0 00-.9-.157v7.131c.601.001 1.088-2.089 1.088-4.668z"/><path fill="#AADB3D" d="M22.569 19.029a3.124 3.124 0 01-1.485.391 2.963 2.963 0 01-1.758-.544c.148.526.268 1.099.36 1.712.428.109.858.199 1.302.254a10.04 10.04 0 001.832.055 9.023 9.023 0 01-.251-1.868z"/><path fill="#B1E346" d="M22.657 20.034a10.516 10.516 0 01-.088-1.005 3.124 3.124 0 01-1.485.391 2.963 2.963 0 01-1.758-.544c.096.341.176.708.248 1.087a4.302 4.302 0 001.633.325c.523 0 1.011-.098 1.45-.254z"/><path fill="#AADB3D" d="M18.879 15.179c-.631 0-1.128.199-1.655.334.954.577 1.706 1.884 2.16 3.691 2.112-.397 3.948-.859 3.948-1.922 0-.516-2.305-2.103-4.453-2.103z"/><path fill="#B1E346" d="M9.431 19.029c.447.251.965.385 1.485.391a2.963 2.963 0 001.758-.544 14.032 14.032 0 00-.36 1.712c-.428.109-.858.199-1.302.254a10.04 10.04 0 01-1.832.055c.15-.587.225-1.216.251-1.868z"/><path fill="#BEE758" d="M9.343 20.034c.045-.327.074-.662.088-1.005.447.251.965.385 1.485.391a2.963 2.963 0 001.758-.544 13.01 13.01 0 00-.248 1.087 4.302 4.302 0 01-1.633.325 4.324 4.324 0 01-1.45-.254z"/><path fill="#434C4B" d="M21.3 19.582c0-.911.897-1.59 1.322-2.325.439-.759.594-1.87 1.352-2.309.735-.426 1.765-.016 2.676-.016.911 0 1.94-.409 2.676.016.759.439.913 1.55 1.352 2.309.426.736 1.322 1.414 1.322 2.325 0 .911-.897 1.59-1.322 2.325-.439.759-.594 1.87-1.352 2.309-.735.426-1.765.016-2.676.016-.911 0-1.94.409-2.676-.016-.759-.439-.913-1.55-1.352-2.309-.426-.735-1.322-1.414-1.322-2.325z"/><path fill="#373F3F" d="M22.733 19.582c0-.668.645-1.169.957-1.709.322-.556.444-1.362 1.001-1.684.539-.312 1.291-.024 1.959-.024.668 0 1.42-.288 1.959.024.556.322.679 1.128 1.001 1.684.312.539.957 1.04.957 1.708 0 .668-.645 1.169-.957 1.709-.322.556-.444 1.362-1.001 1.684-.539.312-1.291.024-1.959.024-.668 0-1.42.288-1.959-.024-.556-.322-.679-1.128-1.001-1.684-.312-.539-.957-1.04-.957-1.708z"/><path fill="#2B3332" d="M24.55 19.582c0-.364.284-.656.454-.95.176-.303.292-.693.596-.869.294-.17.686-.081 1.05-.081s.756-.089 1.05.081c.303.176.42.565.595.869.17.294.454.586.454.95s-.284.656-.454.95c-.176.303-.292.693-.596.869-.294.17-.686.081-1.05.081s-.756.089-1.05-.081c-.303-.176-.42-.565-.595-.869-.17-.294-.454-.586-.454-.95z"/><path fill="#B1E346" d="M13.066 15.179c.631 0 1.128.199 1.655.334-.954.577-1.706 1.884-2.16 3.691-2.112-.397-3.948-.859-3.948-1.922 0-.516 2.304-2.103 4.453-2.103z"/><path fill="#BEE758" d="M15.972 15.181c-1.956-.098-3.398 2.408-3.789 6.209-.408 3.969 2.466 7.236 3.789 7.236V15.181z"/><path fill="#AADB3D" d="M12.178 22.269c.043 2.905 1.743 5.296 3.034 6.079C14.829 30.431 14.073 32 13.426 32c-.909 0-1.645-2.649-1.645-5.916-.001-1.462.152-2.782.397-3.815z"/><path fill="#B1E346" d="M14.197 27.502c-.053 1.89-.32 3.638-.845 4.49-.887-.088-1.599-2.696-1.599-5.908 0-1.462.153-2.782.397-3.815.033 2.197 1.013 4.097 2.047 5.233z"/><path fill="#CBEB6B" d="M14.884 17.643c0-.971.069-1.733.188-2.306.286-.114.586-.172.9-.157v7.131c-.6.001-1.088-2.089-1.088-4.668z"/><path fill="#3E4679" d="M0 19.582c0-.911.897-1.59 1.322-2.325.439-.759.594-1.87 1.352-2.309.735-.426 1.765-.016 2.676-.016.911 0 1.94-.409 2.676.016.759.439.913 1.55 1.352 2.309.426.735 1.322 1.414 1.322 2.325 0 .911-.897 1.59-1.322 2.325-.439.759-.594 1.87-1.352 2.309-.735.426-1.765.016-2.676.016-.911 0-1.94.409-2.676-.016-.759-.439-.913-1.55-1.352-2.309C.896 21.172 0 20.493 0 19.582z"/><path fill="#3A4274" d="M1.433 19.582c0-.668.645-1.169.957-1.709.322-.556.444-1.362 1.001-1.684.539-.312 1.291-.024 1.959-.024.668 0 1.42-.288 1.959.024.556.322.679 1.128 1.001 1.684.312.539.957 1.04.957 1.708 0 .668-.645 1.169-.957 1.709-.322.556-.444 1.362-1.001 1.684-.539.312-1.291.024-1.959.024-.668 0-1.42.288-1.959-.024-.556-.322-.679-1.128-1.001-1.684-.312-.539-.957-1.04-.957-1.708z"/><path fill="#313D68" d="M3.25 19.582c0-.364.284-.656.454-.95.176-.303.292-.693.596-.869.294-.17.686-.081 1.05-.081s.756-.089 1.05.081c.303.176.42.565.595.869.17.294.454.586.454.95s-.284.656-.454.95c-.175.304-.291.693-.595.869-.294.17-.686.081-1.05.081s-.756.089-1.05-.081c-.303-.176-.42-.565-.595-.869-.171-.294-.455-.586-.455-.95z"/><path fill="#BEE758" d="M16.237.171l2.264 6.791h-5.002L15.763.171a.25.25 0 01.474 0z"/><path fill="#CBEB6B" d="M16 0c-.1 0-.199.057-.237.171l-2.264 6.791H16V0zM7.123 3.337l4.015 5.699 2.968-4.026-6.631-2.15a.312.312 0 00-.352.477z"/><path fill="#BEE758" d="M24.877 3.337l-4.015 5.699-2.967-4.026 6.631-2.15a.312.312 0 01.351.477z"/><path fill="#D9F07D" d="M9.987 10.944c0-3.321 2.692-7.34 6.013-7.34s6.013 4.019 6.013 7.34S19.321 15.63 16 15.63s-6.013-1.365-6.013-4.686z"/><path fill="#CBEB6B" d="M16 3.604V15.63c3.321 0 6.013-1.365 6.013-4.686S19.321 3.604 16 3.604z"/><path fill="#E6F490" d="M21.344 10.141c-.034-.485-.461-1.376-.669-1.784a.25.25 0 00-.331-.11l-1.097.531a.25.25 0 01-.295-.058l-1.248-1.384a.25.25 0 00-.397.033L16.21 9.091a.25.25 0 01-.422 0l-1.097-1.722a.25.25 0 00-.397-.033L13.048 8.72a.25.25 0 01-.295.058l-1.097-.531a.25.25 0 00-.331.11c-.208.409-.635 1.299-.669 1.784-.188 2.672 2.023 5.49 5.344 5.49s5.531-2.819 5.344-5.49z"/><path fill="#D9F07D" d="M21.344 10.141c-.034-.485-.461-1.376-.669-1.784a.25.25 0 00-.331-.11l-1.097.531a.25.25 0 01-.295-.058l-1.248-1.384a.25.25 0 00-.397.033L16.21 9.091a.245.245 0 01-.21.115v6.424c3.321 0 5.531-2.818 5.344-5.489z"/><path fill="#2B3332" d="M20.589 10.614a.25.25 0 01.17.31c-.275.941-.886 1.328-1.348 1.487-.797.273-1.637.051-2.081-.271a.252.252 0 01-.057-.349.252.252 0 01.35-.056c.354.255 1.028.409 1.625.203.504-.173.86-.572 1.03-1.154a.25.25 0 01.311-.17z"/><g fill="#373F3F"><path d="M11.482 10.604a.25.25 0 01.24.18c.17.583.526.981 1.03 1.154.597.206 1.271.052 1.625-.203a.252.252 0 01.35.056.25.25 0 01-.057.349c-.444.322-1.284.544-2.081.271-.462-.159-1.072-.546-1.348-1.487a.25.25 0 01.241-.32z"/><path d="M11.482 10.604a.25.25 0 01.24.18c.17.583.526.981 1.03 1.154.597.206 1.271.052 1.625-.203a.252.252 0 01.35.056.25.25 0 01-.057.349c-.444.322-1.284.544-2.081.271-.462-.159-1.072-.546-1.348-1.487a.25.25 0 01.241-.32z"/></g><path fill="#B93D4F" d="M17.809 14c.198 0 .247.116.109.258 0 0-.72.742-1.918.742s-1.918-.742-1.918-.742c-.138-.142-.089-.258.109-.258h3.618z"/><path fill="#A93949" d="M16 14h1.809c.198 0 .247.116.109.258 0 0-.72.742-1.918.742v-1z"/><path fill="#C84054" d="M16 15c.423 0 .76-.101 1.053-.221A1.42 1.42 0 0016 14.304c-.42 0-.79.187-1.053.475.293.12.63.221 1.053.221z"/><path fill="#B93D4F" d="M16 14.304V15c.423 0 .76-.101 1.053-.221A1.42 1.42 0 0016 14.304z"/></svg>