<svg xmlns="http://www.w3.org/2000/svg" width="100%" height="100%" viewBox="-2.72 -2.72 37.44 37.44"><path fill="#505957" d="M16 .618a.493.493 0 00-.447.276L15 2l-.509-.51a.5.5 0 00-.801.13L13 3l-.523-.523a.5.5 0 00-.795.118L9.358 6.951C7.01 10.468 6 15.705 6 20c0 7.18 2.82 10 10 10V.618z"/><path fill="#434C4B" d="M26 20c0-4.274-1-9.483-3.324-13h.001l-2.359-4.406a.5.5 0 00-.794-.118L19 3l-.69-1.38a.5.5 0 00-.801-.13L17 2 16.447.894A.494.494 0 0016 .618V30c7.18 0 10-2.82 10-10z"/><path fill="#373F3F" d="M31.396 1h-3.478a5.999 5.999 0 00-5.879 4.809L22.677 7h-.001c.776 1.174 1.392 2.546 1.884 4h.56a4 4 0 003.922-4.784L29 6l1.646-1.646a.5.5 0 000-.707L30 3l1.573-1.573A.25.25 0 0031.396 1z"/><path fill="#434C4B" d="M7.44 11c.5-1.474 1.127-2.864 1.918-4.049l.605-1.133A6 6 0 004.081 1H.604a.25.25 0 00-.177.427L2 3l-.646.646a.5.5 0 000 .707L3 6l-.043.216A4 4 0 006.879 11h.561zM12 28a4 4 0 00-3.957 3.412.509.509 0 00.497.588h4.962a.501.501 0 00.5-.519C13.971 30.399 13.711 28 12 28z"/><path fill="#373F3F" d="M20 28c-1.711 0-1.971 2.399-2.002 3.481a.501.501 0 00.5.519h4.962c.311 0 .543-.28.497-.588A4 4 0 0020 28z"/><path fill="#F7F7F7" d="M19.427 10.573l1.209-1.209a.501.501 0 01.747.042c.242.304.523.762.598 1.312a.25.25 0 01-.25.281h-2.128a.25.25 0 01-.176-.426z"/><path fill="#2B3332" d="M19.604 11H21c0-.605-.268-1.117-.527-1.473l-1.046 1.046a.25.25 0 00.177.427z"/><path fill="#FFF" d="M12.573 10.573l-1.209-1.209a.501.501 0 00-.747.042c-.242.304-.523.762-.598 1.312-.02.149.1.282.25.282h2.128a.25.25 0 00.176-.427z"/><path fill="#373F3F" d="M12.396 11H11c0-.605.268-1.117.527-1.473l1.046 1.046a.25.25 0 01-.177.427z"/><path fill="#EACEA1" d="M29.724 13.06c-.08-.299-3.066.38-5.334.941 2.004-1.208 4.619-2.853 4.463-3.123-.16-.278-3.062 1.265-5.127 2.409a3.488 3.488 0 00-1.825-1.187 3.47 3.47 0 00-2.965.574.99.99 0 00-.934-.674H16v8.778a.498.498 0 00.356-.146l1.646-1.646.646.646a.5.5 0 00.707 0l.646-.646h1.002c2.102 0 3.75-1.857 3.441-4.019 2.266-.651 5.362-1.6 5.28-1.907z"/><path fill="#EFD4A7" d="M14.002 12a.99.99 0 00-.934.674 3.467 3.467 0 00-2.965-.574 3.485 3.485 0 00-1.827 1.188c-2.065-1.144-4.969-2.689-5.129-2.411-.155.27 2.46 1.915 4.463 3.123-2.268-.561-5.254-1.24-5.334-.941-.082.307 3.017 1.258 5.282 1.908-.307 2.161 1.34 4.018 3.441 4.018h1.002l.646.646a.5.5 0 00.707 0l.646-.646 1.646 1.646a.496.496 0 00.352.146V12h-1.996z"/><path fill="#FFF" d="M13.444 13a3.484 3.484 0 010 5H16v-5h-2.556z"/><path fill="#F7F7F7" d="M17.5 15.5c0-.981.406-1.865 1.056-2.5H16v5h2.556a3.484 3.484 0 01-1.056-2.5z"/><path fill="#F5DEB9" d="M6 20c-2.03 0-2.862 1.512-2.984 3.471a.501.501 0 00.501.529h.276c.133 0 .26-.053.354-.146L5 23l.646.646a.5.5 0 00.707 0L7 23l.854.854a.5.5 0 00.353.146h.276a.502.502 0 00.501-.529C8.862 21.512 8.03 20 6 20z"/><path fill="#EFD4A7" d="M26 20c-2.03 0-2.862 1.512-2.984 3.471a.501.501 0 00.501.529h.276c.133 0 .26-.053.354-.146L25 23l.646.646a.5.5 0 00.707 0L27 23l.854.854a.5.5 0 00.353.146h.276a.502.502 0 00.501-.529C28.862 21.512 28.03 20 26 20z"/><path fill="#687271" d="M12.952 21.796l-.233 2.522-2.301-1.06c-.738-.34-1.501.422-1.161 1.161l1.06 2.301-2.522.233c-.035.003-.062.017-.095.024C9.247 29.084 11.917 30 16 30v-6.561l-1.463-2.068c-.469-.664-1.51-.385-1.585.425z"/><path fill="#5C6664" d="M24.299 26.976c-.033-.007-.06-.021-.095-.024l-2.522-.233 1.06-2.301c.34-.738-.422-1.501-1.161-1.161l-2.301 1.06-.233-2.522c-.075-.809-1.116-1.088-1.585-.425L16 23.439V30c4.083 0 6.753-.916 8.299-3.024z"/></svg>