<svg xmlns="http://www.w3.org/2000/svg" width="100%" height="100%" viewBox="-2.72 -2.72 37.44 37.44"><path fill="#EACEA1" d="M28.892 16.633c-4.508 2.401-8.079.847-10.212-.081-.485-.211-1.15-.5-1.357-.496l-.23-1.986c.702-.085 1.445.238 2.385.648 2.033.885 4.819 2.096 8.474.15l.94 1.765z"/><ellipse cx="28.206" cy="16.108" fill="#EACEA1" rx="1.441" ry="1.276"/><path fill="#E0C193" d="M20.679 28.916a8.189 8.189 0 01-1.62-.162c-2.144-.44-3.476-1.671-3.476-3.212h1c0 1.562 2.049 2.104 2.677 2.232 1.833.376 4.142-.024 4.655-1.222.148-.345.058-.646-.113-1.148-.255-.748-.605-1.773.315-3.251.413-.663 1.035-.884 1.585-1.078 1.247-.44 2.798-.989 2.798-8.075h1c0 7.207-1.569 8.348-3.464 9.019-.538.189-.853.314-1.07.663-.669 1.075-.449 1.719-.217 2.4.184.539.392 1.149.085 1.865-.586 1.368-2.357 1.969-4.155 1.969z"/><path fill="#E0C193" d="M20.679 28.916a8.189 8.189 0 01-1.62-.162c-2.144-.44-3.476-1.671-3.476-3.212h1c0 1.562 2.049 2.104 2.677 2.232 1.833.376 4.142-.024 4.655-1.222.148-.345.058-.646-.113-1.148-.255-.748-.605-1.773.315-3.251.413-.663 1.035-.884 1.585-1.078 1.247-.44 2.798-.989 2.798-8.075h1c0 7.207-1.569 8.348-3.464 9.019-.538.189-.853.314-1.07.663-.669 1.075-.449 1.719-.217 2.4.184.539.392 1.149.085 1.865-.586 1.368-2.357 1.969-4.155 1.969z"/><path fill="#F5DEB9" d="M7.376 24.206c-.198-5.104 2.755-7.642 4.52-9.158.401-.345.951-.817 1.037-1.006l1.888.657c-.229.669-.844 1.197-1.622 1.865-1.682 1.445-3.985 3.426-3.825 7.563l-1.998.079z"/><path fill="#F5DEB9" d="M16 12h-2s-.375 3.188-1.25 4.812c-1.219 2.264-2.25 3.442-2.25 5.688 0 3.125 3.25 4.5 5.5 4.5V12z"/><path fill="#EFD4A7" d="M16 24.562c-1.813 0-3.688-.438-5.5-2.062 0 3.125 3.25 4.5 5.5 4.5v-2.438z"/><path fill="#EFD4A7" d="M13.937 26.188c-.25.812-.326 3.161 0 3.812.813 1.625-1.5 2-2.937 2-1.471 0-2.938-1.438-2-2 .937-.562 3.295.205 3.062-.375-.375-.937-.25-4.313-.062-4.625.187-.312 1.937 1.188 1.937 1.188z"/><path fill="#F5DEB9" d="M9.984 24.919c0-.446-.29-.816-.688-.956a1.187 1.187 0 00-.942-.484c-.422 0-.775.229-.991.557a.99.99 0 00-.749.951c0 .554.449 1.003 1.003 1.003.022 0 .04-.011.062-.013a.763.763 0 00.722.528.76.76 0 00.736-.598c.478-.086.847-.485.847-.988z"/><path fill="#96643B" d="M12.062 29.625c-.085-.213-.143-.554-.182-.953.244.121.511.205.8.228.375.03.726-.054 1.047-.196.014.39.052.742.115 1.006v.01c-.18.1-.526.238-.915.25a3.507 3.507 0 01-.973-.147c.106-.033.151-.093.108-.198zm-2.653-6.758c-.031.34-.043.696-.036 1.071-.18.1-.526.238-.915.25-.33.01-.895-.096-1.083-.183-.009-.388.003-.759.029-1.117.246.123.516.207.808.231.432.034.841-.064 1.197-.252zm-.98-1.675a2.2 2.2 0 01-.72-.183c-.086.328-.155.673-.21 1.032a2.199 2.199 0 002.02.002 7.72 7.72 0 01.345-1.243 2.186 2.186 0 01-1.435.392z"/><path fill="#EFD4A7" d="M16 12h2s.375 3.188 1.25 4.812c1.219 2.264 2.25 3.442 2.25 5.688 0 3.125-3.25 4.5-5.5 4.5V12z"/><path fill="#EACEA1" d="M16 24.562c1.812 0 3.688-.438 5.5-2.062 0 3.125-3.25 4.5-5.5 4.5v-2.438z"/><path fill="#EACEA1" d="M18.062 26.188c.25.812.326 3.161 0 3.812-.812 1.625 1.5 2 2.938 2 1.471 0 2.938-1.438 2-2s-3.295.205-3.062-.375c.374-.937.25-4.313.062-4.625s-1.938 1.188-1.938 1.188z"/><path fill="#8D5B36" d="M19.038 12.062a3.026 3.026 0 01-2.583 1.846c-.154.01-.306.006-.455-.007a2.996 2.996 0 01-.455.007 3.026 3.026 0 01-2.583-1.846 3.013 3.013 0 00-.254 1.21c0 1.677 1.074 3.011 3.292 3.011 2.25 0 3.292-1.334 3.292-3.011 0-.43-.092-.838-.254-1.21z"/><ellipse cx="27.806" cy="14.719" fill="#EACEA1" rx=".712" ry=".828"/><ellipse cx="29.939" cy="15.538" fill="#EACEA1" rx=".732" ry=".762"/><ellipse cx="29.722" cy="16.877" fill="#EACEA1" rx=".732" ry=".762"/><path fill="#E0C193" d="M29.045 5.978a.247.247 0 00-.302.024c-.954.886-2.275 2.669-2.275 4.497 0 1.625.833 3 2.458 3 1.806 0 4.39-1.165 2.289-5.786-.044-.096-.194-.052-.195.054-.004.399.036.866-.141 1.283.063-1.314-.782-2.371-1.834-3.072z"/><path fill="#90A74E" d="M31.215 7.647c-.045-.099-.194-.07-.195.038-.005.403.038.876-.141 1.297.063-1.313-.782-2.37-1.835-3.072a.247.247 0 00-.302.024c-.957.889-2.283 2.68-2.275 4.514l.001.002.231.121a.126.126 0 00.169-.053l.323-.617a.062.062 0 01.084-.026l.255.134a.126.126 0 00.169-.053l.381-.728a.062.062 0 01.084-.026l.883.462a.126.126 0 00.169-.053l.197-.376a.062.062 0 01.084-.026l1.64.859a.126.126 0 00.169-.053l.46-.879a10.133 10.133 0 00-.551-1.489z"/><path fill="#8D5B36" d="M20.045 29.823a3.577 3.577 0 01-.973.147 2.146 2.146 0 01-.915-.25v-.01c.063-.264.1-.616.115-1.006.321.142.672.226 1.047.196.289-.023.556-.106.8-.228-.039.399-.097.74-.182.953-.042.105.003.165.108.198zm6.521-13.335c.039.434-.098.833-.335 1.159.416-.098.842-.228 1.279-.393a1.72 1.72 0 00.152-.864 1.73 1.73 0 00-.561-1.122 8.656 8.656 0 01-.905.322c.199.251.339.553.37.898zm-.737-.099a1.726 1.726 0 00-.195-.657c-.37.08-.73.131-1.078.156.091.184.158.382.177.6a1.718 1.718 0 01-.554 1.419 9.626 9.626 0 001.089-.084c.385-.355.611-.873.561-1.434z"/><path fill="#96643B" d="M16 13.902v2.382c-2.219 0-3.292-1.334-3.292-3.011 0-.431.092-.839.254-1.21a3.026 3.026 0 002.583 1.846c.154.01.306.006.455-.007z"/><path fill="#8D5B36" d="M11.396 6.157C9.798 7.1 7.234 9.669 7.22 12.158c0 .081.069.152.15.159 3.802.315 6.317-2.317 6.317-2.317l-2.291-3.843z"/><path fill="#FCE8CC" d="M11 6.5c0 1.625.812 7.5 5 7.5V5.375L11 6.5z"/><path fill="#96643B" d="M11.004 6.642c.022.926.239 2.938 1.085 4.558a2.77 2.77 0 002.463-2.493c.123-1.225-.418-2.311-1.26-2.723l-2.149.484c-.05.053-.093.116-.139.174z"/><path fill="#FFF" d="M12.628 6.76c-.812-.071-1.559-.329-1.562.546-.002.58.264 1.984.505 2.571.195.198.436.328.708.356.749.075 1.434-.641 1.53-1.6.096-.959-.432-1.807-1.181-1.873z"/><ellipse cx="12.918" cy="8.556" fill="#373F3F" rx=".5" ry=".375" transform="rotate(-84.26 12.919 8.556)"/><path fill="#F5DEB9" d="M16 7.5c-1.313 0-1.75-.812-2.875-.562C11.699 7.254 10 8.003 10 6c0-1.75 2.5-3 4.562-3 .628 0 .25-3 1.438-3v7.5z"/><path fill="#EACEA1" d="M16 7.5c-1.313 0-1.75-.812-2.875-.562C11.699 7.254 10 8.003 10 6c1.344-.031 1.937-.406 2.906-.567 1.881-.313 2.233.473 3.094.473V7.5z"/><path fill="#F5DEB9" d="M21 6.5c0 1.625-.812 7.5-5 7.5V5.375L21 6.5z"/><path fill="#845331" d="M20.58 6.157c1.598.943 4.162 3.512 4.176 6.002a.166.166 0 01-.15.159C20.804 12.632 18.289 10 18.289 10l2.291-3.843z"/><path fill="#8D5B36" d="M20.972 6.642c-.022.926-.239 2.938-1.085 4.558a2.77 2.77 0 01-2.463-2.493c-.123-1.225.418-2.311 1.26-2.723l2.149.484c.05.053.093.116.139.174z"/><path fill="#F7F7F7" d="M19.349 6.76c.812-.071 1.559-.329 1.562.546.002.58-.264 1.984-.505 2.571a1.158 1.158 0 01-.708.356c-.749.075-1.434-.641-1.53-1.6-.097-.959.431-1.807 1.181-1.873z"/><ellipse cx="19.058" cy="8.556" fill="#2B3332" rx=".375" ry=".5" transform="rotate(-5.73 19.05 8.55)"/><path fill="#EFD4A7" d="M16 7.5c1.312 0 1.75-.812 2.875-.562C20.301 7.254 22 8.003 22 6c0-1.75-2.5-3-4.562-3-.629 0-.25-3-1.438-3v7.5z"/><path fill="#E0C193" d="M16 7.5c1.312 0 1.75-.812 2.875-.562C20.301 7.254 22 8.003 22 6c-1.344-.031-1.938-.406-2.906-.567-1.881-.313-2.233.473-3.094.473V7.5z"/></svg>