<svg xmlns="http://www.w3.org/2000/svg" width="100%" height="100%" viewBox="-2.72 -2.72 37.44 37.44"><path fill="#6D6666" d="M26 18s4 2 4 6-4 5-6 3l2-9z"/><path fill="#5A5353" d="M25.077 22.154l.811 1.623a.25.25 0 00.335.112l1.553-.776a.249.249 0 01.335.112l.776 1.553a.25.25 0 00.335.112l.744-.372C29.634 28.077 25.91 28.91 24 27l1.077-4.846z"/><path fill="#746E6E" d="M6 18s-4 2-4 6 4 5 6 3l-2-9z"/><path fill="#635C5C" d="M6.923 22.154l-.811 1.623a.25.25 0 01-.336.111l-1.553-.776a.25.25 0 00-.335.112l-.776 1.553a.25.25 0 01-.336.111l-.744-.372C2.366 28.077 6.09 28.91 8 27l-1.077-4.846z"/><path fill="#746E6E" d="M27 21.724C27 16.544 22.683 14 16 14v16c6.683 0 11-3.096 11-8.276z"/><path fill="#807A7A" d="M16 14c-6.683 0-11 2.544-11 7.724S9.317 30 16 30V14z"/><path fill="#F79654" d="M10 32a1 1 0 01-1-1v-2a1 1 0 012 0v2a1 1 0 01-1 1z"/><path fill="#EF8C48" d="M12 32a1 1 0 01-1-1v-2a1 1 0 012 0v2a1 1 0 01-1 1z"/><path fill="#F79654" d="M14 32a1 1 0 01-1-1v-2a1 1 0 012 0v2a1 1 0 01-1 1z"/><path fill="#EF8C48" d="M18 32a1 1 0 01-1-1v-2a1 1 0 012 0v2a1 1 0 01-1 1z"/><path fill="#E8803A" d="M20 32a1 1 0 01-1-1v-2a1 1 0 012 0v2a1 1 0 01-1 1z"/><path fill="#EF8C48" d="M22 32a1 1 0 01-1-1v-2a1 1 0 012 0v2a1 1 0 01-1 1z"/><path fill="#D1D4D4" d="M20 21.5c0-2.209-1.791-3.5-4-3.5v7c2.209 0 4-1.291 4-3.5z"/><path fill="#DADDDC" d="M16 18c-2.209 0-4 1.291-4 3.5s1.791 3.5 4 3.5v-7z"/><path fill="#635C5C" d="M15.584.223l-.734 1.101c-.323.484-.843.786-1.418.875C8.27 2.992 5 6.229 5 11c0 2.188.695 3.733 1.936 4.811l-.562.375c-.412.274-.217.916.277.916h1.04a.5.5 0 01.447.276l.656 1.312a.5.5 0 00.633.241l1.767-.707a.499.499 0 01.539.111l1.491 1.491a.5.5 0 00.611.075l1.908-1.145a.503.503 0 01.257-.071V0a.495.495 0 00-.416.223z"/><path fill="#504B48" d="M25.626 16.185l-.562-.375C26.305 14.733 27 13.188 27 11c0-4.771-3.27-8.008-8.432-8.801-.575-.088-1.095-.391-1.418-.875L16.416.223A.495.495 0 0016 0v18.684c.089 0 .178.024.257.071l1.908 1.145a.5.5 0 00.611-.075l1.491-1.491a.501.501 0 01.539-.111l1.767.707a.5.5 0 00.633-.241l.656-1.312a.5.5 0 01.447-.276h1.04a.5.5 0 00.277-.916z"/><path fill="#D1D4D4" d="M26 11.5C26 9.015 23.761 7 21 7c-.406 0-.796.056-1.174.138C19.665 4.825 18.024 3 16 3v14c8 0 10-3.015 10-5.5z"/><path fill="#DADDDC" d="M16 3c-2.024 0-3.665 1.825-3.826 4.138A5.514 5.514 0 0011 7c-2.761 0-5 2.015-5 4.5S8 17 16 17V3z"/><path fill="#EF8C48" d="M16 12a2 2 0 00-2 2c0 1.105.895 6 2 6v-8z"/><path fill="#E8803A" d="M18 14a2 2 0 00-2-2v8c1.105 0 2-4.895 2-6z"/><ellipse cx="21" cy="11.5" fill="#2B3332" rx="2" ry="2.5"/><ellipse cx="21" cy="11.5" fill="#F7F7F7" rx="1" ry="1.5"/><ellipse cx="11" cy="11.5" fill="#373F3F" rx="2" ry="2.5"/><ellipse cx="11" cy="11.5" fill="#FFF" rx="1" ry="1.5"/><path fill="#746E6E" d="M16 14.5c-1 0-1.849.863-1.849.863C14.451 17.205 15.165 20 16 20v-5.5z"/><path fill="#6D6666" d="M17.849 15.363S16.999 14.5 16 14.5V20c.835 0 1.549-2.795 1.849-4.637z"/></svg>