<svg xmlns="http://www.w3.org/2000/svg" width="100%" height="100%" viewBox="-2.72 -2.72 37.44 37.44"><path fill="#A8364C" d="M16 0c-2 0-4 4-4 4l-1.232-1.232a.504.504 0 00-.603-.086C6.528 4.813 7 10 7 10H5.521a.501.501 0 00-.504.522C5.258 14.258 8 17 8 17l-1.255 1.255a.505.505 0 00-.106.566C8.825 23.478 16 23 16 23V0z"/><path fill="#993147" d="M25.361 18.82a.506.506 0 00-.106-.566L24 17s2.742-2.742 2.983-6.478a.501.501 0 00-.504-.522H25s.472-5.187-3.165-7.318a.504.504 0 00-.603.086L20 4s-2-4-4-4v23s7.175.478 9.361-4.18z"/><path fill="#B93D4F" d="M16 18c-8 0-8 5-8 5s0 4.745 1.849 7.763c.091.15.258.237.433.237H12.5a.5.5 0 00.5-.5V23h3v-5z"/><path fill="#A8364C" d="M19 23v7.5a.5.5 0 00.5.5h2.218a.508.508 0 00.434-.237C24 27.745 24 23 24 23s0-5-8-5v5h3z"/><path fill="#FEF1C6" d="M16 1.366a.486.486 0 00-.41.217C13.095 5.38 14 9 14 9h-1.618a.506.506 0 00-.49.368C11.16 12.241 13 15 13 15l-1.626.813a.504.504 0 00-.262.591C12.267 20.2 16 23 16 23V1.366z"/><path fill="#FFEAA7" d="M20.888 16.404a.506.506 0 00-.262-.591L19 15s1.84-2.759 1.108-5.632a.505.505 0 00-.49-.368H18s.905-3.62-1.59-7.417a.488.488 0 00-.41-.217V23s3.733-2.8 4.888-6.596z"/><path fill="#C84054" d="M16 24h-6s0 4.745 1.849 7.763c.091.15.258.237.433.237H14.5a.5.5 0 00.5-.5v-3.622A4.34 4.34 0 0016 28v-4z"/><path fill="#B93D4F" d="M16 28a4.34 4.34 0 001-.122V31.5a.5.5 0 00.5.5h2.218a.508.508 0 00.434-.237C22 28.745 22 24 22 24h-6v4z"/><path fill="#D84459" d="M16 15l-2.51-.457C12.536 13.86 11.198 13 10.493 13c-.971 0 .075 3.672.455 4.909-.184.37-.42.716-.72 1.012-.959.947-1.46 2.362-1.124 3.889.342 1.554 1.614 2.801 3.157 3.108A4.047 4.047 0 0016 24.752V15z"/><path fill="#C84054" d="M19.739 25.918c1.543-.306 2.815-1.553 3.157-3.108.336-1.527-.165-2.943-1.124-3.889a3.767 3.767 0 01-.72-1.012c.38-1.237 1.425-4.909.455-4.909-.704 0-2.043.86-2.996 1.543L16 15v9.752a4.043 4.043 0 003.739 1.166z"/><path fill="#FFF" d="M14 17l2 1v2s-.5 1-2.5 1-1-3.273-1-3.273L14 17z"/><path fill="#F57552" d="M12.923 17.522l-.423.205S11.5 21 13.5 21s2.5-1 2.5-1c-.375.25-1 .5-2 .5-1.63 0-1.267-2.174-1.077-2.978z"/><path fill="#FEF1C6" d="M10.555 23c-1.562.01-4.555.074-4.555.498 0 .283 1.335.406 2.687.459-.966.463-1.834.943-1.743 1.145.146.324 2.525-.623 3.765-1.139a.494.494 0 00.292-.464v-.001c-.001-.276-.2-.5-.446-.498z"/><path fill="#F7F7F7" d="M18 17l-2 1v2s.5 1 2.5 1 1-3.273 1-3.273L18 17z"/><path fill="#FF805D" d="M19.077 17.522l.423.205s1 3.273-1 3.273-2.5-1-2.5-1c.375.25 1 .5 2 .5 1.63 0 1.267-2.174 1.077-2.978z"/><ellipse cx="17.75" cy="19.25" fill="#2B3332" rx=".5" ry=".75"/><path fill="#FFEAA7" d="M21.445 23c1.562.01 4.555.074 4.555.498 0 .283-1.335.406-2.687.459.966.463 1.834.943 1.743 1.145-.146.324-2.525-.623-3.765-1.139a.495.495 0 01-.291-.464v-.001c0-.276.199-.5.445-.498z"/><ellipse cx="14.25" cy="19.25" fill="#373F3F" rx=".5" ry=".75"/><path fill="#FEF1C6" d="M19.5 17.727c0-1.431 1.281-3.29 2.293-4.539-.064-.117-.156-.188-.286-.188-.704 0-2.043.86-2.996 1.543-.636-.222-1.524-.361-2.51-.361v4.727h.5c1.166-1.182 2.999-1.182 2.999-1.182z"/><path fill="#FFF5D8" d="M15.5 18.909h.5v-4.727c-.987 0-1.874.139-2.51.361C12.536 13.86 11.198 13 10.493 13c-.131 0-.222.071-.286.189 1.012 1.248 2.293 3.108 2.293 4.539 0-.001 1.833-.001 3 1.181z"/><path fill="#FF805D" d="M16 18.909h-.5l-.053.106a2.004 2.004 0 000 1.789l.329.658A.248.248 0 0016 21.6v-2.691z"/><path fill="#F57552" d="M16.5 18.909H16V21.6a.247.247 0 00.224-.138l.329-.658a1.997 1.997 0 000-1.789l-.053-.106z"/></svg>