<svg xmlns="http://www.w3.org/2000/svg" width="100%" height="100%" viewBox="-2.72 -2.72 37.44 37.44"><ellipse cx="20.072" cy="30" fill="#FFEAA7" rx="1.569" ry="2.353" transform="rotate(-45.001 20.072 30)"/><ellipse cx="12" cy="30" fill="#FDEBBB" rx="2.353" ry="1.569" transform="rotate(-45.001 12 30)"/><path fill="#FF9A7E" d="M23 25.75c0-4.349-3.134-8.75-7-8.75v14c3.866 0 7-.901 7-5.25z"/><path fill="#FFA68E" d="M16 17c-3.866 0-7 4.401-7 8.75S12.134 31 16 31V17z"/><path fill="#FFEAA7" d="M13.264.271c-.105.538-.25 1.782.346 2.899-1.653-.918-4.06-1.668-6.922-.771a.248.248 0 00-.096.415c.716.678 2.732 2.344 5.545 2.65-2.958.894-6.743 3.34-8.031 9.929a.5.5 0 00.493.591H5l-.942 5.65a.5.5 0 00.272.531c.993.494 4.344 1.819 11.67 1.819V2.493c-.268-.928-.929-1.883-2.412-2.409a.248.248 0 00-.324.187z"/><path fill="#FFE28A" d="M27.893 15.393c-1.288-6.589-5.073-9.035-8.031-9.929 2.814-.307 4.83-1.972 5.546-2.65a.25.25 0 00-.095-.416c-2.84-.89-5.233-.157-6.885.751.58-1.102.449-2.323.349-2.855a.249.249 0 00-.323-.189C16.921.635 16.261 1.626 16 2.578v21.406c7.326 0 10.677-1.325 11.669-1.818a.498.498 0 00.272-.531L27 15.984h.401a.5.5 0 00.492-.591z"/><path fill="#FFF5D8" d="M16 17c-2.717 0-5.07 2.174-6.23 4.975l-.001-.001-1.136.831a2 2 0 00-.419 2.814l1.16 1.547a1.25 1.25 0 001.558.368c.411-.205.644-.61.672-1.04 1.263.373 2.768.506 4.396.506V17z"/><path fill="#FDEBBB" d="M20.396 26.493c.028.43.261.835.672 1.04a1.25 1.25 0 001.558-.368l1.16-1.547a2 2 0 00-.419-2.814l-1.136-.831-.001.002C21.071 19.174 18.717 17 16 17v10c1.629 0 3.134-.133 4.396-.507z"/><path fill="#FFB49F" d="M16 8c-4.971 0-9 3.029-9 8s4.029 8 9 8V8z"/><path fill="#FFA68E" d="M25 16c0-4.971-4.029-8-9-8v16c4.971 0 9-3.029 9-8z"/><circle cx="11.5" cy="14.5" r="2.5" fill="#FFF"/><circle cx="20.5" cy="14.5" r="2.5" fill="#F7F7F7"/><path fill="#2B3332" d="M18 14.5c0 .432.12.833.313 1.187A2.47 2.47 0 0019.5 16a2.5 2.5 0 002.5-2.5c0-.432-.12-.833-.313-1.187A2.47 2.47 0 0020.5 12a2.5 2.5 0 00-2.5 2.5z"/><path fill="#373F3F" d="M20 13.5c-.942 0-1.717.656-1.928 1.533.054.23.13.451.241.654A2.47 2.47 0 0019.5 16c.992 0 1.842-.583 2.246-1.421-.335-.634-.979-1.079-1.746-1.079zm-11 1c0 .432.12.833.313 1.187A2.47 2.47 0 0010.5 16a2.5 2.5 0 002.5-2.5c0-.432-.12-.833-.313-1.187A2.47 2.47 0 0011.5 12 2.5 2.5 0 009 14.5z"/><path fill="#FCD8DE" d="M16 16c-1.657 0-3 1.567-3 3.5s1.343 3.5 3 3.5v-7z"/><path fill="#FBCFD6" d="M19 19.5c0-1.933-1.343-3.5-3-3.5v7c1.657 0 3-1.567 3-3.5z"/><circle cx="19.5" cy="13.5" r=".5" fill="#F7F7F7"/><path fill="#FFEAA7" d="M6 13.5s2.815-.938 7.537-.997a.499.499 0 00.495-.429c.094-.8.471-2.577 1.968-4.074l-6-.5s-3 2-4 6z"/><path fill="#FFE28A" d="M26 13.5s-2.815-.938-7.537-.997a.499.499 0 01-.495-.429c-.094-.8-.471-2.577-1.968-4.074l6-.5s3 2 4 6z"/><path fill="#434C4B" d="M11 13.5c-.942 0-1.717.656-1.928 1.533.054.23.13.451.241.654A2.47 2.47 0 0010.5 16c.992 0 1.842-.583 2.246-1.421-.335-.634-.979-1.079-1.746-1.079z"/><circle cx="10.5" cy="13.5" r=".5" fill="#FFF"/><path fill="#FFA68E" d="M16 17c-.552 0-1 .672-1 1.5s.448 1.5 1 1.5v-3z"/><path fill="#FF9A7E" d="M17 18.5c0-.828-.448-1.5-1-1.5v3c.552 0 1-.672 1-1.5z"/></svg>