<svg xmlns="http://www.w3.org/2000/svg" width="100%" height="100%" viewBox="-2.72 -2.72 37.44 37.44"><path fill="#BEE758" d="M4.333 2.647A.512.512 0 004.196 3h11.812s-5.785-6.508-11.675-.353z"/><path fill="#B1E346" d="M16.008 3H4.196c0 .129.046.257.138.353 4.407 4.606 8.755 2.121 10.665.578V12h1V3.01l.009-.01zm11.638-.366c-1.383-1.311-6.51-5.403-11.638.366h11.796a.504.504 0 00-.158-.366z"/><path fill="#AADB3D" d="M16.008 3h-.009v9h1V3.994c4.783 4.257 9.354.598 10.648-.629a.5.5 0 00.158-.366H16.008z"/><path fill="#F7BC48" d="M25.998 13l-.428-4.278a.5.5 0 00-.721-.397L21.498 10l-1.671-2.925a.5.5 0 00-.792-.101l-3.037 3.109 10 2.917z"/><path fill="#FFC550" d="M5.998 13l.428-4.278a.5.5 0 01.721-.397L10.498 10l1.671-2.925a.5.5 0 01.792-.101l3.037 3.109-10 2.917z"/><path fill="#FFD98D" d="M15.998 6.333c-.15 0-.3.067-.4.2L12.998 10 9.601 7.452a.5.5 0 00-.785.279L7.998 11l-2.963-.741a.5.5 0 00-.571.703l1.672 3.451c.262.54.279 1.175.011 1.712a10.923 10.923 0 00-1.04 6.43c.688 4.929 4.76 8.867 9.71 9.382.398.042.792.059 1.181.059V6.333z"/><path fill="#FFCF6E" d="M26.998 21c0-1.756-.419-3.41-1.153-4.881-.267-.535-.246-1.168.015-1.706l1.671-3.45a.5.5 0 00-.571-.703l-2.962.74-.817-3.269a.5.5 0 00-.785-.279L18.998 10l-2.6-3.467a.498.498 0 00-.4-.2v25.664c6.075 0 11-4.922 11-10.997z"/><path fill="#8D5B36" d="M12.998 31.586V16.934a.5.5 0 00-.777-.416l-.723.482-1.146-1.146a.5.5 0 00-.707 0L8.498 17l-.723-.482a.5.5 0 00-.777.416v10.36c1.442 2.047 3.556 3.595 6 4.292z"/><path fill="#845331" d="M18.998 31.573a11.004 11.004 0 006-4.261V16.934a.5.5 0 00-.777-.416l-.723.482-1.146-1.146a.5.5 0 00-.707 0L20.498 17l-.723-.482a.5.5 0 00-.777.416v14.639z"/><path fill="#8D5B36" d="M13.368 31.675c.474.117.955.212 1.449.263.398.042.792.059 1.181.059V26h-2l-.63 5.675z"/><path fill="#845331" d="M17.998 26h-2v5.998c.908 0 1.786-.122 2.63-.33L17.998 26z"/><circle cx="9.998" cy="20" r="3" fill="#373F3F"/><circle cx="9.998" cy="20" r="1" fill="#FFF"/><circle cx="8.498" cy="18.5" r=".5" fill="#FFF"/><circle cx="21.998" cy="20" r="3" fill="#2B3332"/><circle cx="21.998" cy="20" r="1" fill="#F7F7F7"/><circle cx="20.498" cy="18.5" r=".5" fill="#F7F7F7"/><path fill="#F9ADC8" d="M15.998 23c-2 0-3 1-3 1s0 3 3 3v-4z"/><path fill="#F8A1C4" d="M18.998 24s-1-1-3-1v4c3 0 3-3 3-3z"/></svg>