<svg xmlns="http://www.w3.org/2000/svg" width="100%" height="100%" viewBox="-2.72 -2.72 37.44 37.44"><path fill="#FFD04D" d="M9.726 21.265c-.298-.444-.971.047-1.539.047C6.125 21.312 6 19.45 4 19.45c-1.938 0-3 .8-3 2.55 0 1.508 1.687 2 3 2 2.187 0 3.564-.016 5.477-1.24.441-.282.593-.981.249-1.495z"/><path fill="#4896C8" d="M16 15v14c-5.5 0-9.5-2.688-9.5-5.781C6.5 18.188 10.375 15 16 15z"/><ellipse cx="9.131" cy="18.103" fill="#EDEEEE" rx="2.333" ry="1.325" transform="rotate(-35.185 9.13 18.102)"/><ellipse cx="8.811" cy="17.649" fill="#373F3F" rx="1.361" ry=".478" transform="rotate(-35.185 8.81 17.648)"/><path fill="#EDEEEE" d="M7 27c-1.636-1.869-2.224-3.714-1-4.938.812-.812 2.825-.49 4.461 1.378s2.975 4.517 1.476 5.559C10.5 30 8.636 28.869 7 27z"/><ellipse cx="8.256" cy="26.294" fill="#373F3F" rx="1.112" ry="2.268" transform="rotate(-43.647 8.255 26.293)"/><path fill="#FFD96C" d="M8.687 25.875c-.423-.423-1.005-.555-1.562-.25C4.109 27.278 4.11 26 2.5 26 .985 26 0 26.891 0 28.375 0 30.06 1.812 31 3 31c2.536 0 4.083-1.535 5.917-3.292.422-.404.259-1.344-.23-1.833z"/><path fill="#F7C845" d="M22.274 21.265c.298-.444.971.047 1.539.047 2.062 0 2.188-1.862 4.188-1.862 1.938 0 3 .8 3 2.55 0 1.508-1.688 2-3 2-2.188 0-3.564-.016-5.477-1.24-.442-.282-.594-.981-.25-1.495z"/><path fill="#4390BF" d="M25.5 23.219c0 3.094-4 5.781-9.5 5.781V15c5.625 0 9.5 3.188 9.5 8.219z"/><path fill="#E3E5E5" d="M16 16c-1.83 0-3.787.936-3.5 3 .208 1.5 2.042 2.5 3.5 2.5s3.292-1 3.5-2.5c.287-2.064-1.67-3-3.5-3z"/><path fill="#EDEEEE" d="M16 16v5.5c-1.458 0-3.292-1-3.5-2.5-.287-2.064 1.67-3 3.5-3z"/><ellipse cx="22.869" cy="18.103" fill="#E3E5E5" rx="1.325" ry="2.333" transform="rotate(-54.816 22.87 18.103)"/><ellipse cx="23.189" cy="17.649" fill="#2B3332" rx=".478" ry="1.361" transform="rotate(-54.816 23.19 17.65)"/><path fill="#E3E5E5" d="M25 27c1.636-1.869 2.224-3.714 1-4.938-.812-.812-2.825-.49-4.461 1.378-1.636 1.869-2.975 4.517-1.476 5.559C21.5 30 23.364 28.869 25 27z"/><ellipse cx="23.744" cy="26.294" fill="#2B3332" rx="2.268" ry="1.112" transform="rotate(-46.354 23.745 26.295)"/><path fill="#FFD04D" d="M23.312 25.875c.423-.423 1.005-.555 1.562-.25C27.891 27.278 27.89 26 29.5 26c1.515 0 2.5.891 2.5 2.375C32 30.06 30.188 31 29 31c-2.536 0-4.083-1.535-5.917-3.292-.422-.404-.259-1.344.229-1.833z"/><path fill="#2B3332" d="M16 16.417c-1.238 0-2.625.792-2.458 1.75.181 1.039 1.333 1.458 2.458 1.458s2.278-.419 2.458-1.458c.167-.959-1.22-1.75-2.458-1.75z"/><path fill="#373F3F" d="M16 16.417v3.208c-1.125 0-2.278-.419-2.458-1.458-.167-.959 1.22-1.75 2.458-1.75z"/><path fill="#FFD04D" d="M16 1a4.375 4.375 0 00-4.375 4.375c0 1.655.93 3.078 2.286 3.821.049.122.089.251.089.385v7.356c0 1.105.937 1.562 2 1.562 1.062 0 2-.458 2-1.562V9.581c0-.134.04-.263.089-.385 1.356-.743 2.286-2.166 2.286-3.821A4.375 4.375 0 0016 1z"/><path fill="#2B3332" d="M17.667 4.583c.276 0 .5.448.5 1s-.224 1-.5 1-.5-.448-.5-1 .224-1 .5-1z"/><path fill="#FFD96C" d="M11.625 5.375c0 1.655.93 3.078 2.286 3.821.049.122.089.251.089.385v7.356c0 1.105.937 1.562 2 1.562V1a4.375 4.375 0 00-4.375 4.375z"/><ellipse cx="14.333" cy="5.583" fill="#373F3F" rx=".5" ry="1"/></svg>