<svg xmlns="http://www.w3.org/2000/svg" width="100%" height="100%" viewBox="-2.72 -2.72 37.44 37.44"><path fill="#8EC0E0" d="M16 2.75v17.702c-5.937 0-10.75-3.963-10.75-8.851S10.063 2.75 16 2.75z"/><path fill="#EAB5D7" d="M8.709 16.375c-.559.059-4.562 1.25-5.25 1.625s-3.198 5.222-2.312 5.812c.938.625 3.125-3.312 4.375-3.625s3.573-1.075 4-1.188c1.187-.311.375-2.749-.813-2.624z"/><path fill="#3A4274" d="M5.707 17.2c-1.007.314-1.946.636-2.248.8-.261.142-.783.927-1.284 1.879.91.621 1.326 1.038 1.725 1.684.594-.674 1.169-1.262 1.621-1.375a43.09 43.09 0 001.914-.548c-1.017-.39-1.434-1.473-1.728-2.44z"/><path fill="#EAB5D7" d="M6.647 12.875c-.562 0-3.108.663-4.062.875C1.46 14-.676 18.347.21 18.938c.938.625 2.41-2.638 3.687-2.812 1.375-.188 3.123-.58 3.563-.626 1.188-.125.813-2.625-.813-2.625z"/><path fill="#3A4274" d="M4.502 13.294c-.744.176-1.49.361-1.917.456-.395.088-.914.68-1.383 1.437.592.854.925 1.271 1.144 2.15.518-.599 1.049-1.144 1.551-1.212.383-.052.795-.12 1.199-.192a5.334 5.334 0 01-.594-2.639z"/><path fill="#EAB5D7" d="M6.147 9.438c-.562 0-1.949-.239-2.687-.062-1.121.268-3.213 3.344-2.29 3.875.978.562 1.627-1.625 2.915-1.625.603 0 2.06.296 2.5.25 1.188-.126 1.188-2.438-.438-2.438z"/><path fill="#3A4274" d="M5.585 9.402c-.282-.025-.612-.058-.939-.077-.437-.025-.871-.025-1.186.05-.42.1-.977.596-1.461 1.204.627.63.794.88 1.189 1.406.267-.211.56-.36.896-.36.119 0 .272.012.443.03.181.019.384.046.591.074-.075-.562-.158-1.521.467-2.327z"/><path fill="#B0D3EA" d="M16 15.583v10.583c-3.899 0-7.059-2.369-7.059-5.292 0-2.922 3.16-5.291 7.059-5.291z"/><path fill="#F3586F" d="M14 24.75c.766 0 1.25.417 1.25 1.5 0 .833-.666 1-.666 1.655 0 .504.197.813.405 1.136.059.091-.039.22-.147.207-.842-.096-2.342-.981-2.342-2.498 0-1.396.625-2 1.5-2z"/><circle cx="10.687" cy="21.75" r="2.187" fill="#373F3F"/><path fill="#FFF" d="M11.75 21.75a1.062 1.062 0 10-2.124 0 1.062 1.062 0 002.124 0z"/><path fill="#7FB8E0" d="M26.75 11.601c0 4.888-4.813 8.851-10.75 8.851V2.75c5.937 0 10.75 3.963 10.75 8.851z"/><path fill="#E2A1C8" d="M23.291 16.375c.559.059 4.562 1.25 5.25 1.625s3.198 5.222 2.312 5.812c-.938.625-3.125-3.312-4.375-3.625s-3.573-1.075-4-1.188c-1.187-.311-.375-2.749.813-2.624z"/><path fill="#313D68" d="M26.293 17.2c1.007.314 1.947.636 2.248.8.261.142.783.927 1.284 1.879-.909.621-1.326 1.037-1.725 1.683-.594-.674-1.169-1.262-1.621-1.375a43.09 43.09 0 01-1.914-.548c1.017-.389 1.434-1.472 1.728-2.439z"/><path fill="#E2A1C8" d="M25.353 12.875c.562 0 3.108.663 4.062.875 1.125.25 3.261 4.597 2.375 5.188-.938.625-2.41-2.638-3.687-2.812-1.376-.188-3.124-.579-3.563-.625-1.188-.126-.813-2.626.813-2.626z"/><path fill="#313D68" d="M27.498 13.294c.744.176 1.49.361 1.917.456.395.088.914.68 1.383 1.437-.592.854-.925 1.271-1.144 2.15-.518-.599-1.049-1.144-1.551-1.212-.383-.052-.795-.12-1.199-.192.22-.433.636-1.35.594-2.639z"/><path fill="#E2A1C8" d="M25.853 9.438c.562 0 1.949-.239 2.688-.062 1.121.268 3.213 3.344 2.29 3.875-.978.562-1.627-1.625-2.915-1.625-.603 0-2.06.296-2.5.25-1.189-.126-1.189-2.438.437-2.438z"/><path fill="#313D68" d="M26.415 9.402c.661-.059 1.574-.159 2.126-.027.42.1.977.596 1.461 1.204-.627.63-.794.88-1.189 1.406-.267-.211-.56-.36-.896-.36-.245 0-.632.049-1.034.104.074-.562.157-1.521-.468-2.327z"/><path fill="#9FC9E4" d="M23.059 20.875c0 2.922-3.161 5.292-7.059 5.292V15.583c3.899 0 7.059 2.369 7.059 5.292z"/><path fill="#E85160" d="M18.312 24.75c-.766 0-1.25.417-1.25 1.5 0 .833.666 1 .666 1.655 0 .504-.197.813-.405 1.136-.059.091.039.22.147.207.844-.097 2.343-.983 2.343-2.499-.001-1.395-.625-1.999-1.501-1.999z"/><circle cx="21.312" cy="21.75" r="2.188" fill="#2B3332"/><circle cx="21.312" cy="21.75" r="1.062" fill="#F7F7F7"/><path fill="#FFF" d="M16 16.292c-.671 0-1.75 2.542-1.833 2.875-.084.333 1.174.708 1.833.708v-3.583z"/><path fill="#F7F7F7" d="M16 16.292c.659 0 1.75 2.542 1.833 2.875.083.333-1.163.708-1.833.708v-3.583z"/><path fill="#313D68" d="M16 3.961V2.75c3.541 0 6.683 1.41 8.641 3.585-1.126-.808-4.633-2.374-8.641-2.374zm5.021 2.881c-.79 0-1.43.495-1.43 1.106s.64 1.106 1.43 1.106 1.43-.495 1.43-1.106-.641-1.106-1.43-1.106zm.457 5.607c-1.089-1.088-3.341-1.848-5.478-1.848v1.5c1.954 0 3.734.726 4.417 1.408a.748.748 0 001.06 0 .748.748 0 00.001-1.06z"/><path fill="#3A4274" d="M7.359 6.335C9.317 4.16 12.459 2.75 16 2.75v1.211c-4.008 0-7.515 1.566-8.641 2.374zm2.19 1.613c0 .611.64 1.106 1.43 1.106s1.43-.495 1.43-1.106-.64-1.106-1.43-1.106-1.43.495-1.43 1.106zM16 10.601c-2.137 0-4.389.76-5.478 1.848a.75.75 0 001.06 1.061c.683-.683 2.463-1.408 4.417-1.408v-1.501z"/></svg>