<svg xmlns="http://www.w3.org/2000/svg" width="100%" height="100%" viewBox="-2.72 -2.72 37.44 37.44"><path fill="#48A353" d="M24 21h2s1.524 8-10 8v-4s7.001 1 8-4z"/><path fill="#48A353" d="M27.705 18.082a5.112 5.112 0 00-1.058.525c-.421-.948-1.085-1.897-1.414-2.344a.248.248 0 00-.4 0c-.333.452-1.008 1.419-1.429 2.378a5.14 5.14 0 00-1.111-.56.25.25 0 00-.325.179c-.78 3.456 2.486 4.567 2.994 4.718l.003.021.034-.01.034.011h.001v-.001l.044-.033c.615-.19 3.714-1.326 2.952-4.704a.25.25 0 00-.325-.18z"/><path fill="#4EAC5D" d="M23 20c0 5.799-3.134 9-7 9s-7-3.201-7-9 3.134-12 7-12 7 6.201 7 12z"/><path fill="#54B668" d="M16 8c-3.866 0-7 6.201-7 12s3.134 9 7 9V8z"/><path fill="#F7D684" d="M21 22c0 5.799-2.239 7-5 7s-5-1.201-5-7 2.239-14 5-14 5 8.201 5 14z"/><path fill="#FAE09F" d="M16 8c-2.761 0-5 8.201-5 14 0 5.799 2.239 7 5 7V8z"/><path fill="#FAE09F" d="M14.179 32.025a.5.5 0 01-.384-.241c-1.834-3.065.47-6.381.569-6.521a.5.5 0 01.816.578c-.02.029-2.023 2.929-.527 5.43a.5.5 0 01-.474.754z"/><path fill="#F7D684" d="M17.638 32a.5.5 0 01-.403-.795c1.718-2.354-.012-5.424-.029-5.455a.5.5 0 01.866-.501c.086.148 2.077 3.66-.029 6.545a.5.5 0 01-.405.206z"/><path fill="#FDEBBB" d="M21 22c0-5.799-2.239-14-5-14s-5 8.201-5 14c0 .737.037 1.398.106 1.994A6.484 6.484 0 0016 21.652a6.484 6.484 0 004.894 2.342c.069-.596.106-1.257.106-1.994z"/><path fill="#FAE09F" d="M16 21.652a6.484 6.484 0 004.894 2.342c.069-.596.106-1.257.106-1.994 0-5.799-2.239-14-5-14v13.652z"/><path fill="#FFD04D" d="M16 18v-1s4.065-4.025 6-5c2.417-1.219 4.367-.91 5.544.387.163.179-.013.459-.249.405-1.126-.26-3.399-.485-5.295 1.208-2.637 2.354-3.704 3.862-6 4z"/><path fill="#60C46F" d="M14.483 20h-1.601c-.13 0-.174-.174-.06-.235.29-.153.671-.265 1.173-.265h.004a.494.494 0 00.38-.168c.281-.335.032-.893-.384-.832-2.268 0-3.392 1.146-3.805 1.703a.492.492 0 000 .594c.412.557 1.537 1.703 3.805 1.703.351.038.582-.331.479-.662A.493.493 0 0014 21.5h-.003c-.501 0-.882-.111-1.172-.265-.115-.061-.07-.235.059-.235H14.5a.5.5 0 00.499-.533.51.51 0 00-.516-.467z"/><path fill="#54B668" d="M17.517 20h1.601c.13 0 .174-.174.06-.235-.29-.153-.671-.265-1.173-.265h-.004a.494.494 0 01-.38-.168c-.281-.335-.032-.893.384-.832 2.268 0 3.392 1.146 3.805 1.703a.492.492 0 010 .594c-.412.557-1.537 1.703-3.805 1.703-.351.038-.582-.331-.479-.662A.493.493 0 0118 21.5h.003c.501 0 .882-.111 1.172-.265.115-.061.071-.235-.059-.235H17.5a.5.5 0 01-.499-.533.51.51 0 01.516-.467z"/><path fill="#FFF3D9" d="M21 8c0 2.691-3.005 5.417-4.356 6.506a.994.994 0 01-1.272-.017C14.029 13.348 11 10.498 11 8a5 5 0 0110 0z"/><path fill="#FDEBBB" d="M16.644 14.506C17.995 13.417 21 10.691 21 8a5 5 0 00-5-5v11.727a.996.996 0 00.644-.221z"/><path fill="#FFD04D" d="M15.776.152C14.933 2.084 12 3.103 12 3.103l4 3.5 4-3.5S17.067 2.084 16.224.152a.24.24 0 00-.448 0z"/><path fill="#FFF" d="M12.5 5c-.176 0-.347.015-.513.043A4.956 4.956 0 0011 8c0 .209.023.42.062.632.408.23.902.368 1.438.368 1.381 0 2.5-.896 2.5-2s-1.119-2-2.5-2z"/><path fill="#F7F7F7" d="M17 7c0 1.104 1.119 2 2.5 2 .54 0 1.037-.14 1.446-.373C20.98 8.418 21 8.209 21 8a4.956 4.956 0 00-.987-2.957A3.079 3.079 0 0019.5 5c-1.381 0-2.5.896-2.5 2z"/><ellipse cx="12.5" cy="6" fill="#C65546" rx="1.5" ry="2"/><ellipse cx="19.5" cy="6" fill="#BF4F3C" rx="1.5" ry="2"/><ellipse cx="12.5" cy="6" fill="#373F3F" rx=".5" ry="1"/><ellipse cx="19.5" cy="6" fill="#2B3332" rx=".5" ry="1"/><path fill="#F7C845" d="M16 0v6.603l4-3.5S17.067 2.084 16.224.152A.243.243 0 0016 0z"/><path fill="#54B668" d="M24.918 5.637c-.334-1.754-1.73-3.19-3.481-3.543a4.723 4.723 0 00-.937-.089 4.73 4.73 0 00-.937.089c-1.75.353-3.146 1.789-3.481 3.543a4.424 4.424 0 00.442 2.948c.128.239.472.15.476-.12.009-.677.272-1.426 1.07-2.297.604-.658 1.424-1.139 2.317-1.167.039 0 .075.009.113.009.038 0 .074-.009.113-.008.893.028 1.713.508 2.317 1.167.798.871 1.061 1.619 1.07 2.297.003.27.348.359.476.12a4.439 4.439 0 00.442-2.949z"/><path fill="#60C46F" d="M15.918 5.637c-.334-1.754-1.73-3.19-3.481-3.543a4.723 4.723 0 00-.937-.089 4.73 4.73 0 00-.937.089c-1.75.353-3.146 1.789-3.481 3.543a4.43 4.43 0 00.443 2.948c.127.238.472.15.475-.12.009-.677.272-1.426 1.07-2.297.604-.658 1.424-1.139 2.317-1.167.039 0 .075.009.113.009.038 0 .074-.009.113-.008.893.028 1.713.508 2.317 1.167.798.871 1.061 1.619 1.07 2.297.003.27.348.359.476.12a4.439 4.439 0 00.442-2.949z"/><path fill="#FFD96C" d="M16 18v-1s-4.065-4.025-6-5c-2.417-1.219-4.367-.91-5.544.387-.163.179.013.459.249.405C5.831 12.532 8.104 12.307 10 14c2.637 2.354 3.704 3.862 6 4z"/></svg>