<svg xmlns="http://www.w3.org/2000/svg" width="100%" height="100%" viewBox="-2.72 -2.72 37.44 37.44"><path fill="#a78edd" d="M6.06 16.834l1.36 1.977-.241 1.844a2.362 2.362 0 01-.568 2.495 1.09 1.09 0 01-1.581.145 1.07 1.07 0 01-.943-.923c-.374.058-1.115-.343-.778-.886-.552-1.206-.394-1.763.323-3.158z"/><path fill="#c8cccb" d="M13.562 25.272c-.843 1.446-.742 3.358-.184 5.496.413.535-.482.715-1.655.82l-3.42-2.459c-.125-1.97-.148-3.85.809-4.87z"/><path fill="#d1d4d4" d="M9.112 24.26l-.883-.338c.53-1.699 1.042-3.575 1.766-3.28 0 .732 3.014 1.092 5.996 1.084v3.761a14.39 14.39 0 01-2.429-.215z"/><path fill="#434c4b" d="M9.995 20.643c-.572-.261-.02-2.335.551-2.074 0 .76 2.705 1.142 5.445 1.151v2.006c-2.982.008-5.996-.352-5.996-1.083z"/><path fill="#d1d4d4" d="M11.7 6.211L3.633 18.328c1.457-.205 2.747.95 3.935 2.942l2.207-5.304.772 2.603c0 .759 2.697 1.14 5.432 1.151a13.326 13.326 0 01-4.277-13.509z"/><path fill="#434c4b" d="M11.723 6.178l-.022.033a13.326 13.326 0 004.277 13.51h.013v-2.459h-.011c-3.603-3.3-5.078-12.974.01-12.974v-.521a4.738 4.738 0 00-4.267 2.41z"/><path fill="#9179c6" d="M15.98 17.263h.01V4.287c-5.088 0-3.613 9.674-.01 12.975z"/><path fill="#866eba" d="M8.303 29.13c1.53-.256 3.592 1.297 3.42 2.458-.089.682-4.406.44-4.303-.169-.02-.827-.351-1.503.883-2.29z"/><path fill="#434c4b" d="M10.62 25.489a6.31 6.31 0 00-.368 3.11 1.911 1.911 0 01-1.545-.675 6.42 6.42 0 01.331-2.99 2.532 2.532 0 001.582.555z"/><path fill="#505957" d="M14.995 27.924h-1.68c.151-4.346.758-7.695 2.663-8.204l.013-.004v2.81l-.013.015c-.894-.74-.998 2.056-.983 5.383z"/><path fill="#9d85d3" d="M15.986 12.974H16V0c-6.673 0-4.738 9.674-.014 12.974z"/><path fill="#f7f7f7" d="M13.774 5.35c.624.181 1.05.284 1.184.655-.147.503-1.09 1.349-1.714 1.167s-.907-1.376-.76-1.88.666-.123 1.29.058z"/><path fill="#373f3f" d="M13.837 5.513a.742.742 0 01.594.85.826.826 0 01-1.551-.45.742.742 0 01.957-.4z"/><path fill="#edeeee" d="M13.614 5.894a.226.226 0 11-.226.226.226.226 0 01.226-.226z"/><path fill="#9d85d3" d="M25.94 16.834l-1.36 1.977.241 1.844a2.362 2.362 0 00.568 2.495 1.09 1.09 0 001.581.145 1.07 1.07 0 00.943-.923c.374.058 1.115-.343.778-.886.552-1.206.394-1.763-.323-3.158z"/><path fill="#b9bfbe" d="M18.438 25.272c.843 1.446.742 3.358.184 5.496-.413.535.482.715 1.655.82l3.42-2.459c.125-1.97.148-3.85-.809-4.87z"/><path fill="#c8cccb" d="M22.888 24.26l.883-.338c-.53-1.699-1.042-3.575-1.766-3.28 0 .732-3.014 1.092-5.996 1.084v3.761a14.39 14.39 0 002.429-.215z"/><path fill="#373f3f" d="M22.005 20.643c.572-.261.02-2.335-.551-2.074 0 .76-2.705 1.142-5.445 1.151v2.006c2.982.008 5.996-.352 5.996-1.083z"/><path fill="#c8cccb" d="M16.022 19.72c2.735-.01 5.432-.392 5.432-1.15l.772-2.604 2.207 5.304c1.188-1.992 2.478-3.147 3.935-2.942L20.299 6.212a13.326 13.326 0 01-4.277 13.508z"/><path fill="#373f3f" d="M20.3 6.211l-.023-.033a4.738 4.738 0 00-4.268-2.411v.521l.013.002c5.073.017 3.598 9.675-.002 12.973h-.01v2.457h.012a13.326 13.326 0 004.277-13.509z"/><path fill="#866eba" d="M16.022 4.29l-.013-.002v12.974h.011c3.6-3.297 5.075-12.955.002-12.972z"/><path fill="#7a63ad" d="M23.697 29.13c-1.53-.256-3.592 1.297-3.42 2.458.089.682 4.406.44 4.303-.169.02-.827.351-1.503-.883-2.29z"/><path fill="#373f3f" d="M21.38 25.489a6.31 6.31 0 01.368 3.11 1.911 1.911 0 001.545-.675 6.42 6.42 0 00-.331-2.99 2.532 2.532 0 01-1.582.555z"/><path fill="#434c4b" d="M17.005 27.924h1.68c-.151-4.346-.758-7.695-2.663-8.204l-.013-.004v2.81l.013.015c.894-.74.998 2.056.983 5.383z"/><path fill="#9179c6" d="M16 0v12.974h.014C20.738 9.674 22.673 0 16 0zm.022 10.41z"/><path fill="#edeeee" d="M18.226 5.35c-.624.181-1.05.284-1.184.655.147.503 1.09 1.349 1.714 1.167s.907-1.376.76-1.88-.666-.123-1.29.058z"/><path fill="#2b3332" d="M18.163 5.513a.742.742 0 00-.594.85.826.826 0 001.551-.45.742.742 0 00-.957-.4z"/><path fill="#e3e5e5" d="M18.386 5.894a.226.226 0 10.226.226.226.226 0 00-.226-.226z"/><path fill="#5c6664" d="M14.452 4l1.57 6.41V4h-1.57z"/><path fill="#505957" d="M19.141 1.822L18.612 4h-2.59v6.41l1.02-4.405 2.848-.963-.749-3.22z"/></svg>