<svg xmlns="http://www.w3.org/2000/svg" width="100%" height="100%" viewBox="-2.72 -2.72 37.44 37.44"><path fill="#9ACC2E" d="M18 29.625h1.208L21 19.792l-2.75-.25z"/><path fill="#472236" d="M19.278 29.266h-1.152l-.511 1.055c-.04.083.02.179.113.179h2.083a.125.125 0 00.107-.19l-.64-1.044z"/><path fill="#B1E346" d="M18.175 4.719c.453.219 2.102 1.257 2.912 1.864 1.164.873 2.286 1.5 1.135 1.824-1.297.365-3.688-1.581-3.931-2.513-.14-.537-.116-1.175-.116-1.175z"/><circle cx="19.771" cy="18.833" r="3.833" fill="#BEE758"/><path fill="#A2D336" d="M14 29.625h-1.208L11.1 19.792l2.4-.25z"/><path fill="#532F42" d="M12.722 29.266h1.152l.511 1.055a.125.125 0 01-.113.179H12.19a.125.125 0 01-.107-.19l.639-1.044z"/><path fill="#AADB3D" d="M13.625 10.542s.387 2.164 0 3.802c-.475 2.011-2.614 3.135-2.614 5.253 0 3.279 2.596 5.56 2.531 6.695-.062 1.094.333 3.75.552 4.896h1.312l.243-8.386c.118.003.231.011.351.011V10.5l-2.375.042z"/><path fill="#A2D336" d="M18.375 10.542s-.387 2.164 0 3.802c.475 2.011 2.614 3.135 2.614 5.253 0 3.279-2.596 5.56-2.531 6.695.062 1.094-.333 3.75-.552 4.896h-1.312l-.243-8.386c-.118.003-.231.011-.351.011V10.5l2.375.042z"/><path fill="#532F42" d="M14.069 31h1.342l.589.908V32h-2.374c-.1 0-.16-.112-.103-.195l.546-.805z"/><path fill="#472236" d="M17.931 31h-1.342l-.589.908V32h2.374c.1 0 .16-.112.103-.195L17.931 31z"/><path fill="#BEE758" d="M16 3.917c-3.666 0-3.222 3.774-3.222 4.239 0 .639-1.074.965-1.074 2.206 0 1.189 1.479 1.353 1.88 1.611s.24 1.611 2.417 1.611V3.917z"/><path fill="#FFF" d="M13.63 7.132a.25.25 0 00-.351.109c-.244.545-.084 1.108.422 1.328.362.157.903-.043 1.166-.409a.253.253 0 00-.079-.366l-1.158-.662z"/><path fill="#FFFEFC" d="M13.63 7.132a.25.25 0 00-.351.109c-.244.545-.084 1.108.422 1.328.362.157.903-.043 1.166-.409a.253.253 0 00-.079-.366l-1.158-.662z"/><path fill="#373F3F" d="M13.917 7.295a.759.759 0 00-.043.248c0 .32.181.579.404.579.18 0 .327-.171.379-.404l-.74-.423z"/><path fill="#E6F490" d="M16 22.812h-.359c.079-.389-2.099-6.188.359-6.188v6.188z"/><path fill="#B1E346" d="M16 3.917c3.666 0 3.222 3.774 3.222 4.239 0 .639 1.074.965 1.074 2.206 0 1.189-1.479 1.353-1.88 1.611s-.24 1.611-2.417 1.611V3.917z"/><path fill="#845331" d="M16 10.003c-1.611 0-1.924 1.656-2.417 1.969.401.258.24 1.611 2.417 1.611s2.016-1.353 2.417-1.611c-.493-.313-.806-1.969-2.417-1.969z"/><path fill="#D9F07D" d="M18.068 5.122c.236-.158.456-.32.615-.44a2.516 2.516 0 01.467-2.326c-.238-.418-.379-1.003-.104-1.571a.366.366 0 01.658.318c-.122.253-.086.521.006.745.669-.419 1.479-.433 2.097-.442.244-.003.521-.007.619-.045a.597.597 0 00.312-.322.672.672 0 00-.008-.533.367.367 0 01.675-.284c.151.362.154.753.007 1.101a1.32 1.32 0 01-.718.718c-.223.088-.512.092-.878.097-.64.008-1.436.019-1.944.5a1.762 1.762 0 00-.469 1.896c.009.009.021.014.029.024a.351.351 0 01.071.193c.015.026.028.056.044.079l.002.005c.389.424 1.31.764 2.189.21.591-.374.798-1.144.964-1.762.095-.354.17-.633.31-.827.199-.275.517-.465.873-.519.376-.054.751.042 1.064.278a.366.366 0 01-.44.584.666.666 0 00-.515-.139.585.585 0 00-.389.223c-.062.085-.134.353-.197.589-.09.335-.2.728-.376 1.105.32-.016.661.045.941.297a.365.365 0 11-.489.543c-.194-.175-.665-.259-1.12.068-.014.01-.161.129-.236.176a2.532 2.532 0 01-1.362.398c-.696 0-1.338-.288-1.742-.722a13.52 13.52 0 01-.549.39.365.365 0 11-.407-.605z"/><circle cx="20.02" cy="4.314" r=".875" fill="#472236"/><path fill="#F7F7F7" d="M18.37 7.132a.25.25 0 01.351.109c.244.545.084 1.108-.422 1.328-.362.157-.903-.043-1.166-.409a.253.253 0 01.079-.366l1.158-.662z"/><path fill="#FFFEFC" d="M18.37 7.132a.25.25 0 01.351.109c.244.545.084 1.108-.422 1.328-.362.157-.903-.043-1.166-.409a.253.253 0 01.079-.366l1.158-.662z"/><path fill="#2B3332" d="M18.083 7.295a.759.759 0 01.043.248c0 .32-.181.579-.404.579-.18 0-.327-.171-.379-.404l.74-.423z"/><path fill="#D9F07D" d="M16 22.812h.359c-.079-.389 2.099-6.188-.359-6.188v6.188z"/><path fill="#BEE758" d="M13.797 4.719c-.453.219-2.102 1.257-2.912 1.864-1.164.873-2.286 1.5-1.135 1.824 1.297.365 3.688-1.581 3.931-2.513.14-.537.116-1.175.116-1.175z"/><path fill="#E6F490" d="M13.932 5.122a13.62 13.62 0 01-.615-.44 2.516 2.516 0 00-.467-2.326c.238-.418.379-1.003.104-1.571a.366.366 0 00-.658.318c.122.253.086.521-.006.745-.669-.419-1.479-.433-2.097-.442-.243-.002-.521-.006-.618-.044a.594.594 0 01-.312-.322.668.668 0 01.008-.533.367.367 0 00-.675-.284 1.412 1.412 0 00-.007 1.101c.14.331.401.593.718.718.223.088.512.092.878.097.64.008 1.436.019 1.944.5.631.597.66 1.374.469 1.896-.009.009-.021.014-.029.024a.351.351 0 00-.071.193c-.015.026-.028.056-.044.079l-.002.005c-.389.424-1.31.764-2.189.21-.592-.374-.799-1.144-.965-1.762-.095-.354-.17-.633-.31-.827a1.317 1.317 0 00-.872-.519 1.417 1.417 0 00-1.065.279.364.364 0 00-.071.511c.122.161.35.196.512.073a.666.666 0 01.515-.139c.16.023.306.107.389.223.061.085.133.352.196.588.09.335.2.728.376 1.105-.32-.016-.661.045-.941.297a.365.365 0 00.489.543c.194-.175.665-.259 1.12.068.014.01.161.129.236.176.439.278.911.398 1.362.398.696 0 1.338-.288 1.742-.722.157.117.346.254.549.39a.365.365 0 10.407-.606z"/><circle cx="11.98" cy="4.314" r=".875" fill="#532F42"/><path fill="#8D5B36" d="M16 10.003c-1.611 0-1.924 1.656-2.417 1.969.401.258.24 1.611 2.417 1.611v-3.58z"/></svg>