<svg xmlns="http://www.w3.org/2000/svg" width="100%" height="100%" viewBox="-2.72 -2.72 37.44 37.44"><path fill="#7C8AC4" d="M15.546.984L14 4.333l2-1.25V.693a.494.494 0 00-.454.291zm.908 0L18 4.333z"/><path fill="#707EB7" d="M16.454.984A.494.494 0 0016 .693v2.39l2 1.25L16.454.984z"/><path fill="#7C8AC4" d="M16 7.229S17.198 3.26 20.885.417c1.5-.656-.75.937-.187 1.75.32.462.599.702.781.823a.24.24 0 01.072.329c-.238.383-.628 1.198-.072 1.755.75.75-1.969 4.875-2.031 4.781S16 7.229 16 7.229z"/><path fill="#EC8179" d="M27.224 19.867l4.538-1.75a.371.371 0 00.006-.691l-4.283-1.735 4.443-6.066c.233-.326-.144-.739-.49-.537l-5.29 3.097.144-.059-1.197 3.091a.999.999 0 00.417 1.217l.936.564a1 1 0 01-.087 1.76l-.777.37a1 1 0 00-.446 1.386l1.917 3.475 4.428 1.981c.363.151.682-.292.423-.588l-4.682-5.515z"/><path fill="#707EB7" d="M25.584 19.127l.777-.37a1 1 0 00.087-1.76l-.936-.564a1 1 0 01-.417-1.217l1.197-3.091-.144.059-6.102 3.572.131 5.155 6.879 3.077-1.917-3.475a1 1 0 01.445-1.386z"/><path fill="#7C8AC4" d="M19.25 13.917L16 13.696v-1.241l2.182-1.038S23 13.167 23 17c.007 2.667-.725 3.559-2.917 5.75a3.993 3.993 0 00-.302.354c3.086-5.964-.531-9.187-.531-9.187z"/><path fill="#ED8C86" d="M4.777 19.867l-4.538-1.75a.371.371 0 01-.006-.691l4.283-1.735L.072 9.625c-.233-.326.144-.739.49-.537l5.29 3.097-.144-.059 1.197 3.091a.999.999 0 01-.417 1.217l-.936.564a1 1 0 00.087 1.76l.777.37a1 1 0 01.446 1.386l-1.917 3.475L.517 25.97c-.363.151-.682-.292-.423-.588l4.683-5.515z"/><path fill="#7C8AC4" d="M6.416 19.127l-.777-.37a1 1 0 01-.087-1.76l.936-.564a1 1 0 00.417-1.217l-1.197-3.091.144.059 6.102 3.572-.131 5.155-6.879 3.077 1.917-3.475a1 1 0 00-.445-1.386z"/><path fill="#8694D1" d="M12.75 13.917l3.25-.221v-1.241l-2.182-1.038S9 13.167 9 17c-.007 2.667.725 3.559 2.917 5.75.104.104.203.228.302.354-3.086-5.964.531-9.187.531-9.187z"/><path fill="#E7685F" d="M17.276 21.478l-.247.493c-.34.016-.681.029-1.029.029v8.455l.336.29c.301-.037.632-.141.987-.346.317-1.828 1.104-5.549 2.459-7.295.283-.547.493-1.063.671-1.564-.803.167-1.641.295-2.514.369l-.216-.431a.25.25 0 00-.447 0z"/><path fill="#E9746A" d="M14.97 21.972l-.247-.493a.25.25 0 00-.447 0l-.216.431a21.089 21.089 0 01-2.513-.369c.178.501.388 1.017.671 1.564 1.355 1.746 2.141 5.466 2.459 7.295.356.205.686.31.987.346l.336-.291V22c-.348 0-.69-.013-1.03-.028zm2.306-4.494l-.247.493c-.34.016-.681.029-1.029.029v4c.348 0 .689-.013 1.029-.028l.247-.493a.25.25 0 01.447 0l.216.431c.872-.074 1.71-.203 2.514-.369.576-1.618.643-2.987.479-4.104-.945.221-1.945.384-2.992.473l-.216-.431a.25.25 0 00-.448-.001z"/><path fill="#EC8179" d="M19.25 13.917L16 13.696V18c.348 0 .689-.013 1.029-.028l.247-.493a.25.25 0 01.447 0l.216.431a21.043 21.043 0 002.992-.473c-.339-2.305-1.681-3.52-1.681-3.52zm-4.28 4.055l-.247-.493a.25.25 0 00-.447 0l-.216.431a20.924 20.924 0 01-2.992-.473c-.165 1.117-.097 2.486.479 4.104.803.167 1.641.295 2.513.369l.216-.431a.25.25 0 01.447 0l.247.493c.34.015.682.028 1.03.028v-4c-.348 0-.69-.013-1.03-.028z"/><path fill="#ED8C86" d="M12.75 13.917s-1.342 1.215-1.681 3.52c.945.221 1.945.384 2.992.473l.216-.431a.25.25 0 01.447 0l.247.493c.339.015.681.028 1.029.028v-4.304l-3.25.221z"/><path fill="#8694D1" d="M16 22.438V32a2 2 0 002-2v-5.562a2 2 0 00-2-2z"/><path fill="#9AA6D6" d="M14 24.438V30a2 2 0 002 2v-9.562a2 2 0 00-2 2z"/><path fill="#8694D1" d="M16 7.229S14.802 3.26 11.115.417c-1.5-.656.75.937.188 1.75-.32.462-.599.702-.781.823a.24.24 0 00-.072.329c.238.383.628 1.198.072 1.755-.75.75 1.969 4.875 2.031 4.781S16 7.229 16 7.229z"/><path fill="#707EB7" d="M19.375 7.542L26.881.979c.212-.186.522.067.382.312L24 7l3.344.836a.25.25 0 01.051.466L24 10l.821 2.464a.25.25 0 01-.338.308l-7.608-3.356 2.5-1.874z"/><path fill="#7C8AC4" d="M16 3v10.985s3.577.396 4.609-2.925c.572-1.839.578-4.044-.397-5.731-.939-1.627-2.49-2.175-4.121-2.322L16 3zm-3.375 4.542L5.119.979c-.212-.186-.521.067-.381.312L8 7l-3.344.836a.25.25 0 00-.052.466L8 10l-.821 2.464a.25.25 0 00.338.308l7.608-3.356-2.5-1.874z"/><path fill="#8694D1" d="M16 3v10.985s-3.577.396-4.609-2.925c-.572-1.839-.578-4.044.397-5.731.939-1.627 2.49-2.175 4.121-2.322L16 3z"/><path fill="#9AA6D6" d="M15.233 11.303c.087-.12.205-.209.338-.269s.281-.09.43-.09v-2c-.956 0-1.848.443-2.386 1.184l-1.104 1.521a2.627 2.627 0 00-.221 2.749c.486.953 1.485 1.545 2.607 1.545H16v-2h-1.104c-.695 0-1.125-.627-.767-1.12l1.104-1.52z"/><path fill="#F7F7F7" d="M19 7.498c0-.166-.011-.323-.028-.472L20 5.998v2a1 1 0 01-1 1h-.5c.276 0 .5-.672.5-1.5zm-.972.472c.066.596.251 1.028.472 1.028H17l1.028-1.028z"/><path fill="#2B3332" d="M18.028 7.97l.944-.944c.017.149.028.306.028.472 0 .828-.224 1.5-.5 1.5-.221 0-.406-.432-.472-1.028z"/><path fill="#FFF" d="M13 7.498c0-.166.011-.323.028-.472L12 5.998v2a1 1 0 001 1h.5c-.276 0-.5-.672-.5-1.5zm.972.472c-.066.596-.251 1.028-.472 1.028H15L13.972 7.97z"/><path fill="#2B3332" d="M13.972 7.97l-.944-.944a4.146 4.146 0 00-.028.472c0 .828.224 1.5.5 1.5.221 0 .406-.432.472-1.028z"/><path fill="#373F3F" d="M15.233 11.303l-1.104 1.521c-.358.493.072 1.12.767 1.12H16v-3c-.148 0-.297.03-.43.09a.826.826 0 00-.337.269z"/><path fill="#8694D1" d="M19.49 11.649l-1.104-1.521c-.538-.742-1.43-1.184-2.386-1.184v2c.297 0 .593.12.767.359l1.104 1.521a.675.675 0 01.098.19l.031.192a.655.655 0 01-.117.362c-.15.218-.431.375-.779.375H16v2h1.104c1.122 0 2.121-.592 2.607-1.545a2.627 2.627 0 00-.221-2.749z"/><path fill="#2B3332" d="M17.104 13.944c.348 0 .629-.157.779-.375a.64.64 0 00.117-.362.59.59 0 00-.031-.193.717.717 0 00-.098-.19l-1.104-1.521c-.174-.239-.471-.359-.767-.359v3h1.104z"/></svg>