<svg xmlns="http://www.w3.org/2000/svg" width="100%" height="100%" viewBox="-2.72 -2.72 37.44 37.44"><path fill="#FFC550" d="M30.08 15.493l1.587-.529a.253.253 0 01.32.32l-.529 1.587a.257.257 0 000 .16l.529 1.587a.253.253 0 01-.32.32l-1.587-.529a.257.257 0 00-.16 0l-1.587.529a.253.253 0 01-.32-.32l.529-1.587a.257.257 0 000-.16l-.529-1.587a.253.253 0 01.32-.32l1.587.529a.257.257 0 00.16 0z"/><path fill="#2B3332" d="M30.07 16.456a.502.502 0 00-.565.424c-.314 2.205-1.12 3.791-2.393 4.714-1.384 1.005-2.94.928-3.388.881-.135-.907-.364-1.756-.724-2.475h-4v12h4.75a.25.25 0 00.25-.25v-.25c0-.509-.256-.955-.643-1.226.305-1.687.656-4.348.47-6.786.111.007.235.013.382.013.837 0 2.203-.17 3.477-1.088 1.509-1.087 2.454-2.901 2.81-5.392a.501.501 0 00-.426-.565z"/><path fill="#93C2CA" d="M27.5 2c-1.789 0-3.33 1.279-4.055 3.128a8.751 8.751 0 00-2.318-1.286c.438-.59.341-1.427.17-2.041-.063-.226-.379-.245-.469-.029C20.542 2.458 20 3 20 3c.609-1.218.476-2.065.279-2.541-.084-.203-.37-.196-.46.005C18.682 3 16 3 16 3v12c4.035 0 7.334-.736 9.602-2.079.043-.122.062-.257.098-.382a3.793 3.793 0 001.8.461c2.485 0 4.5-2.462 4.5-5.5S29.985 2 27.5 2z"/><path fill="#373F3F" d="M9 20c-1.422 2.844-.823 7.699-.357 10.274A1.494 1.494 0 008 31.5v.25c0 .138.112.25.25.25H13V20H9z"/><path fill="#FFC550" d="M11 31l4 .563V29h-4z"/><path fill="#F7BC48" d="M17 31.563L21 31v-2h-4z"/><path fill="#93C2CA" d="M14.046 30.001A1.5 1.5 0 0012.5 31.5v.063c0-.821-.633-1.538-1.454-1.562A1.5 1.5 0 009.5 31.5v.25c0 .138.112.25.25.25h5.5a.25.25 0 00.25-.25v-.187c0-.821-.633-1.538-1.454-1.562z"/><path fill="#99C7CE" d="M14 31.75v-.187c0-.821-.633-1.538-1.454-1.562A1.5 1.5 0 0011 31.5v.25c0 .138.112.25.25.25h2.5a.25.25 0 00.25-.25z"/><path fill="#88B9C3" d="M21.046 30.001A1.5 1.5 0 0019.5 31.5v.063c0-.821-.633-1.538-1.454-1.562A1.5 1.5 0 0016.5 31.5v.25c0 .138.112.25.25.25h5.5a.25.25 0 00.25-.25v-.187c0-.821-.633-1.538-1.454-1.562z"/><path fill="#93C2CA" d="M21 31.75v-.187c0-.821-.633-1.538-1.454-1.562A1.5 1.5 0 0018 31.5v.25c0 .138.112.25.25.25h2.5a.25.25 0 00.25-.25z"/><path fill="#88B9C3" d="M16 15c-3.866 0-7 1.686-7 5 0 5 2 9 2 9h4v-4.044c.327.026.66.044 1 .044V15z"/><path fill="#7EB1BD" d="M17 24.956V29h4s2-4 2-9c0-3.314-3.134-5-7-5v10c.34 0 .673-.018 1-.044z"/><path fill="#99C7CE" d="M8.555 5.128C7.83 3.279 6.289 2 4.5 2 2.015 2 0 4.462 0 7.5S2.015 13 4.5 13c.641 0 1.249-.166 1.8-.461.036.125.055.26.098.382C8.666 14.264 11.965 15 16 15V3c-3.14 0-5.699.755-7.445 2.128z"/><ellipse cx="10.5" cy="9.5" fill="#FFF" rx="2.5" ry="3.5"/><path fill="#FFC550" d="M10.736 6.033C9.758 6.196 9 7.232 9 8.5c0 1.381.895 2.5 2 2.5.975 0 1.785-.874 1.962-2.028-.171-1.572-1.084-2.787-2.226-2.939z"/><ellipse cx="11" cy="8.5" fill="#FFD98D" rx="1" ry="1.5"/><ellipse cx="21.5" cy="9.5" fill="#F7F7F7" rx="2.5" ry="3.5"/><path fill="#F7BC48" d="M21.264 6.033c-1.142.152-2.055 1.366-2.226 2.938C19.215 10.126 20.025 11 21 11c1.105 0 2-1.119 2-2.5 0-1.268-.758-2.304-1.736-2.467z"/><ellipse cx="21" cy="8.5" fill="#FFCF6E" rx="1" ry="1.5"/><path fill="#434C4B" d="M9.478 16l1.385 3.639a.25.25 0 00.41.088L12 19s1.514 1 4 1v-4H9.478z"/><path fill="#373F3F" d="M22.522 16l-1.385 3.639a.25.25 0 01-.41.088L20 19s-1.514 1-4 1v-4h6.522z"/><path fill="#FFD98D" d="M3.028 6.888l.73-2.918c.063-.252.422-.252.485 0l.73 2.918a.25.25 0 00.131.163l1.45.725a.25.25 0 010 .447l-1.479.74a.243.243 0 00-.112.112l-.739 1.478a.25.25 0 01-.447 0l-.74-1.478a.243.243 0 00-.112-.112l-1.478-.739a.25.25 0 010-.447l1.45-.725a.254.254 0 00.131-.164z"/><path fill="#FFCF6E" d="M27.028 6.888l.73-2.918c.063-.252.422-.252.485 0l.73 2.918a.25.25 0 00.131.163l1.45.725a.25.25 0 010 .447l-1.478.739a.248.248 0 00-.112.112l-.739 1.478a.25.25 0 01-.447 0l-.739-1.478a.248.248 0 00-.112-.112l-1.478-.739a.25.25 0 010-.447l1.45-.725a.253.253 0 00.129-.163z"/><path fill="#93C2CA" d="M16 14.978c-4.035 0-7.334-.736-9.602-2.079.245.692.62 1.307 1.075 1.869L6.259 16.59a.25.25 0 00.208.389H7.75a.25.25 0 01.25.25v1.25a.25.25 0 00.4.2l2.218-1.663c1.503.618 3.307.963 5.382.963v-3.001z"/><path fill="#88B9C3" d="M21.382 17.014l2.218 1.663a.25.25 0 00.4-.2v-1.25a.25.25 0 01.25-.25h1.283a.25.25 0 00.208-.389l-1.214-1.822c.455-.561.831-1.177 1.075-1.869-2.268 1.343-5.567 2.079-9.602 2.079v3c2.075.002 3.88-.343 5.382-.962z"/><path fill="#CF3C35" d="M16 12c-.663 0-1 .132-1 .5s.337.5 1 .5v-1z"/><path fill="#C23734" d="M17 12.5c0-.368-.337-.5-1-.5v1c.663 0 1-.132 1-.5z"/></svg>