<svg xmlns="http://www.w3.org/2000/svg" width="100%" height="100%" viewBox="-2.72 -2.72 37.44 37.44"><path fill="#C8DAC8" d="M16 2C7.163 2 0 6.716 0 15c0 9.858 7.775 10.97 11.827 15.789a.246.246 0 00.365.018L13 30l.823.823a.25.25 0 00.354 0L15 30l.823.823a.249.249 0 00.177.073V2z"/><path fill="#BAD3C1" d="M16 2c8.837 0 16 4.716 16 13 0 9.858-7.775 10.97-11.827 15.789a.246.246 0 01-.365.018L19 30l-.823.823a.25.25 0 01-.354 0L17 30l-.823.823a.249.249 0 01-.177.073V2z"/><path fill="#373F3F" d="M6.562 15.069c-.504 0-.854-.072-.865-.075-.135-.029-.221-.162-.191-.297s.165-.219.297-.191c.116.023 2.878.584 3.711-1.837a.249.249 0 11.472.162c-.661 1.923-2.374 2.238-3.424 2.238z"/><path fill="#2B3332" d="M25.437 15.069c-1.05 0-2.763-.315-3.424-2.238a.249.249 0 01.155-.317.248.248 0 01.317.155c.833 2.422 3.595 1.861 3.711 1.837.133-.027.268.057.297.191s-.057.268-.191.297c-.01.003-.362.075-.865.075z"/><path fill="#FFA68E" d="M16 15c-2.761 0-4.5 1.067-4.5 3s1.739 3 4.5 3v-6z"/><path fill="#FF9A7E" d="M20.5 18c0-1.933-1.739-3-4.5-3v6c2.761 0 4.5-1.067 4.5-3z"/><path fill="#9A3644" d="M14.25 19a.25.25 0 01-.25-.25v-1.5a.25.25 0 01.5 0v1.5a.25.25 0 01-.25.25z"/><path fill="#8A323F" d="M17.75 19a.25.25 0 01-.25-.25v-1.5a.25.25 0 01.5 0v1.5a.25.25 0 01-.25.25z"/><path fill="#4B7E6D" d="M15.526 9.577a.49.49 0 00.474.342V2c-1.005 0-1.984.069-2.937.189l2.463 7.388zM1.813 8.518l3.879 1.108a.5.5 0 00.553-.758L4.203 5.805a11.881 11.881 0 00-2.39 2.713zm1.764 4.008L.492 11.498a12.597 12.597 0 00-.473 3.163l3.558-1.186a.5.5 0 000-.949zM3.793 17H.129c.181 1.467.557 2.713 1.081 3.79l2.936-2.936A.5.5 0 003.793 17z"/><path fill="#407966" d="M16.474 9.577l2.463-7.388A23.476 23.476 0 0016 2v7.919a.49.49 0 00.474-.342zm11.323-3.772l-2.042 3.064a.5.5 0 00.553.758l3.879-1.108a11.865 11.865 0 00-2.39-2.714zm3.711 5.692l-3.085 1.028a.5.5 0 000 .949l3.558 1.186a12.597 12.597 0 00-.473-3.163zM31.871 17h-3.664a.5.5 0 00-.354.854l2.936 2.936c.525-1.077.901-2.323 1.082-3.79z"/><path fill="#BAD3C1" d="M1.323 21.024c2.394 4.635 7.483 6.171 10.505 9.765a.246.246 0 00.365.018L13 30l.823.823a.25.25 0 00.354 0L15 30l.823.823a.249.249 0 00.177.073V26.5c-5.912 0-11.193-2.133-14.677-5.476z"/><path fill="#AFC9B7" d="M16 26.5v4.396a.249.249 0 00.177-.073L17 30l.823.823a.25.25 0 00.354 0L19 30l.808.808a.246.246 0 00.365-.018c3.022-3.594 8.111-5.13 10.505-9.765C27.193 24.367 21.912 26.5 16 26.5z"/></svg>