<svg xmlns="http://www.w3.org/2000/svg" width="100%" height="100%" viewBox="-2.72 -2.72 37.44 37.44"><path fill="#338c5d" d="M31.617.357a6.361 6.361 0 00-2.26.36.982.982 0 00.38-.717 6.15 6.15 0 00-1.769.636.89.89 0 00.189-.495 6.206 6.206 0 00-1.882.697.93.93 0 00.29-.631A6.31 6.31 0 0024.507 1a.963.963 0 00.152-.766 6.083 6.083 0 00-1.392.952 1.006 1.006 0 00-.162-.835 6.072 6.072 0 00-.854 1.396 1.258 1.258 0 00-.392-1.19 5.708 5.708 0 00-.358 1.119 1.153 1.153 0 00-.559-.944 5.382 5.382 0 00-.139.754 1.151 1.151 0 00-.888-.64 5.487 5.487 0 00.222.884c-.34-.562-.642-.854-1.073-.865a5.644 5.644 0 00.32 1.051 6.059 6.059 0 00-1.397-.755c-.06.42.167.761.646 1.181a6.105 6.105 0 00-1.657-.56c.016.386.246.662.7.953a5.855 5.855 0 00-1.286-.394c.017.4.263.681.75.984a5.678 5.678 0 00-1.14.048c.157.408.542.593 1.2.725a5.893 5.893 0 00-1.187.725c.348.283.79.241 1.456.011a5.67 5.67 0 00-.775.81c.436.205.884.027 1.552-.425.74.515 1.207.719 1.67.5a5.617 5.617 0 00-.74-.777h.04c.752.527 1.222.734 1.69.514a5.444 5.444 0 00-.573-.633l.01-.004c.754.528 1.225.737 1.693.516a5.616 5.616 0 00-.738-.777l.018-.002c.74.516 1.207.72 1.67.502a5.444 5.444 0 00-.574-.635l.029-.004c.744.519 1.212.724 1.676.505a5.305 5.305 0 00-.463-.522c.693.474 1.148.662 1.594.452a5.325 5.325 0 00-.48-.54c.704.483 1.162.674 1.611.463a5.488 5.488 0 00-.612-.668c.727.504 1.191.703 1.65.488a5.687 5.687 0 00-.795-.826l.012-.004c.785.502 1.266.691 1.727.45a5.646 5.646 0 00-.802-.769l.023-.006.018.034c.806.484 1.294.662 1.75.405a5.185 5.185 0 00-.38-.37 1.216 1.216 0 001.099-.492 5.198 5.198 0 00-.532-.146c.64-.17 1.007-.377 1.139-.79a5.247 5.247 0 00-.616-.014c.685-.245 1.065-.492 1.16-.938a5.208 5.208 0 00-.561.043c.55-.198.858-.424.958-.817z"/><path fill="#b57135" d="M17.202 20.534l-.004 1.14.004-1.14z"/><path fill="#f0c877" d="M17.198 21.674a2.126 2.126 0 00.004-1.14l-.355.341a9.57 9.57 0 01-.841-3.713v5.996a8.05 8.05 0 001.308-.22l-.116-1.264z"/><path fill="#776151" d="M17.074 6.2c-.03.226.18.23.3.286.113.053.118-.103.165-.172a9.669 9.669 0 01.973-1.487.656.656 0 01.18.336c-.258.387-1 1.39-.683 1.583.192.117.314-.014.454-.1a2.022 2.022 0 001.383-1.006c.141-.269.307-.525.457-.79.03-.053.1-.113.046-.173-.02-.021-.105.009-.157.025q-.75.228-1.5.461l-.18-.336c.748-.194 1.495-.39 2.244-.577.078-.02.17-.082.24-.022.02.017-.042.136-.077.203-.284.54-.586 1.072-.85 1.621a1.713 1.713 0 01-1.065.929c-.144.047-.36.08-.403.18-.06.14.171.236.228.382.01.027.024.052.036.077l.038.06.015.06a1.333 1.333 0 00-1.094.12c-.217.127-.495.182-.58.472l-.088.13-.065-.039a2.326 2.326 0 00-.34 1.095l-.185 1.028a1.294 1.294 0 00-.56-.179v-4.45a6.217 6.217 0 011.068.282z"/><path fill="#f0c877" d="M18.625 26.142a8.7 8.7 0 01-1.019.69 13.41 13.41 0 01-.623 3.931c-.024.075-.107.173-.01.263l.96-.046c.056-.16.014-.427.14-.464.143-.043.167.23.277.338.026.025.04.079.082.056.022-.011.03-.062.031-.096.018-.294.042-.587.049-.882.025-1.103.043-2.206.068-3.31.004-.16.03-.32.045-.48z"/><path fill="#f7d684" d="M16.492 10.913c.113-.105.192-.216.074-.367l.185-1.028a1.69 1.69 0 01.493-.356c.192.129.334.035.465-.106.188-.1.241-.301.348-.461.031.019.06.05.092.055.293.044.362.137.296.428-.089.394-.183.787-.274 1.18-.062.056-.073.112-.003.17l-.343.639a.97.97 0 00-.147.13 1.95 1.95 0 01-1.672.716v-.732a1.7 1.7 0 00.486-.268z"/><path fill="#f0c877" d="M20.472 25.177a3.717 3.717 0 01-.858.51 7.882 7.882 0 01-.322 1.726 3.99 3.99 0 00-.128 1.55c.064-.149.14-.048.214-.013.206.098.422.205.64.075.165-.1.175.006.211.108.022-.367.042-.733.066-1.099.004-.06-.037-.15.043-.171.067-.017.104.068.143.118.116.149.226.302.338.453l.06-.049c-.123-.621-.327-1.223-.43-1.85-.075-.457.074-.905.023-1.358z"/><path fill="#3a3333" d="M20.23 29.133c-.037-.102-.047-.208-.212-.108-.218.13-.434.023-.64-.075-.074-.035-.15-.136-.214.012-.034.263-.06.527-.107.787-.025.139.003.203.143.249a1.23 1.23 0 00.938.014.209.209 0 00.15-.257c-.03-.206-.04-.415-.059-.622z"/><path fill="#f7c845" d="M18.057 8.595c.031.018.06.05.092.055.293.044.362.137.296.428-.089.394-.183.787-.274 1.18l.052.055a11.24 11.24 0 00.746-2.244.364.364 0 00-.05-.329 1.333 1.333 0 00-1.095.12c.285-.068.348.08.311.32-.021.14-.051.277-.078.415z"/><path fill="#3a3333" d="M17.933 30.98l-.96.046a2.405 2.405 0 01-.068.45c-.116.334.056.432.338.48a1.47 1.47 0 00.366.042c.36-.03.413-.09.382-.45-.016-.19-.038-.379-.058-.568z"/><path fill="#f7d684" d="M20.757 3.536c.128.142-.049.318.052.463.163-.02.194-.158.244-.278.006-.228-.088-.297-.296-.185z"/><path fill="#e0ca59" d="M18.223 10.312l-.052-.053c-.062.055-.073.111-.003.168z"/><path fill="#f5efd9" d="M20.88 28.385l-.06.05c.016.04.032.106.087.068.044-.03.01-.084-.028-.118z"/><path fill="#c48c49" d="M18.865 7.62l.038.06z"/><path fill="#4f4032" d="M20.757 3.536l-1.308.234-.408.116-.645.183a1.23 1.23 0 00-.765.86l-.557 1.27c-.03.227.18.231.3.287.114.053.118-.103.165-.173.064-.364.49-.868.52-1.074a.764.764 0 01.376-.474.992.992 0 01.559-.312l1.815-.454c-.1-.145.076-.32-.052-.463z"/><path fill="#51321b" d="M16.566 10.546c.118.15.039.262-.074.367a1.7 1.7 0 01-.486.268v-.814a1.294 1.294 0 01.56.178z"/><path fill="#338c5d" d="M18.427 16.502a1.054 1.054 0 00.431.767c.206.153.456-.015.445-.305a.92.92 0 00-.39-.697.32.32 0 00-.352-.007c-.11.055-.114.165-.134.242zm1.181 1.401c.002.122.032.237.174.245a.14.14 0 00.146-.169c-.018-.116-.032-.259-.2-.26-.117 0-.119.096-.12.184z"/><path fill="#776151" d="M20.184 18.255a4.566 4.566 0 00-1.21-2.392 3.752 3.752 0 01-1.085-2.679 31.892 31.892 0 01-.064-2.117.973.973 0 00-.147.13 1.95 1.95 0 01-1.672.716v4.264a16.629 16.629 0 001.196 4.357l-.004 1.14.116 1.264a8.91 8.91 0 01.32 2.898c-.016.332-.019.664-.028.996a8.675 8.675 0 001.02-.69 19.572 19.572 0 01.567-2.48c.014-.049 0-.133.071-.136.077-.003.058.084.073.132a5.372 5.372 0 01.277 2.029 3.718 3.718 0 00.858-.51 6.528 6.528 0 00.083-1.17 21.978 21.978 0 00-.371-5.752zm-1.495 2.851l.006.005-.006-.005zm.092.006a.066.066 0 00-.027-.071l-.022.021.022-.021a.066.066 0 01.027.07zm.077-3.843a1.055 1.055 0 01-.431-.767c.02-.077.024-.187.134-.242a.32.32 0 01.351.007.92.92 0 01.391.696c.01.291-.24.459-.445.306zm.924.879c-.142-.009-.172-.123-.174-.245.001-.088.003-.184.12-.184.168.001.182.144.2.26a.14.14 0 01-.146.169z"/><path fill="#fcfcfa" d="M18.057 8.595c.027-.138.057-.276.078-.414.037-.24-.026-.39-.31-.321-.218.127-.496.182-.58.472a.247.247 0 01.355-.003l.04.04.032.053c.037.006.043.03.037.062a.674.674 0 010 .572c.188-.1.241-.3.348-.461z"/><path fill="#251e1b" d="M17.672 8.422l-.032-.052-.04-.041a.247.247 0 00-.356.003l-.088.131-.017.017-.044.117a.704.704 0 00.148.565c.193.129.335.035.466-.106a.674.674 0 000-.572h-.06c.01.091 0 .171-.118.167a.094.094 0 01-.091-.088c-.01-.11.058-.142.156-.134z"/><path fill="#f7c845" d="M17.243 9.162a.704.704 0 01-.148-.565V8.48a.185.185 0 01-.004-.057 2.327 2.327 0 00-.34 1.095 1.69 1.69 0 01.492-.356z"/><path fill="#e4dcad" d="M17.09 8.423a.185.185 0 00.005.057h.044l.017-.017z"/><path fill="#4f4032" d="M20.349 4.677c-.02-.021-.105.009-.157.025l-1.5.46a9.573 9.573 0 00-.75.97c-.258.387-.25.42.067.614.192.117.314-.015.454-.1a2.022 2.022 0 001.383-1.006c.141-.27.307-.526.457-.79.03-.053.1-.113.046-.173z"/><path fill="#4c4744" d="M17.672 8.422l-.076.007.052.055h.061c.006-.031 0-.056-.037-.062zm-.072-.093l.04.04z"/><path fill="#dfdedd" d="M17.648 8.484l-.052-.055c-.098-.008-.166.024-.156.134a.094.094 0 00.09.088c.12.004.13-.076.118-.167z"/><path fill="#b3afa4" d="M17.139 8.48h-.044v.117z"/><path fill="#f7c845" d="M16.006 16.2v.332a18.412 18.412 0 001.077 3.847 20.071 20.071 0 01-1.077-4.178zm1.196 4.358a.358.358 0 01-.057-.07l-.004 1.095c.021.037.035.078.057.115l.004-1.14z"/><path fill="#f7c845" d="M17.083 20.379a18.412 18.412 0 01-1.078-3.847v.648a9.095 9.095 0 001.136 4.403l.004-1.096a1.061 1.061 0 01-.062-.108z"/><path fill="#349363" d="M.383.357a6.361 6.361 0 012.26.36.982.982 0 01-.38-.717 6.15 6.15 0 011.769.636.89.89 0 01-.189-.495 6.206 6.206 0 011.882.697.93.93 0 01-.29-.631A6.31 6.31 0 017.493 1 .963.963 0 017.34.234a6.084 6.084 0 011.392.952 1.006 1.006 0 01.162-.835 6.072 6.072 0 01.854 1.396 1.258 1.258 0 01.392-1.19 5.708 5.708 0 01.358 1.119 1.153 1.153 0 01.559-.944 5.382 5.382 0 01.139.754 1.151 1.151 0 01.888-.64 5.487 5.487 0 01-.222.884c.34-.562.642-.854 1.073-.865a5.644 5.644 0 01-.32 1.051 6.059 6.059 0 011.397-.755c.06.42-.167.761-.646 1.181a6.105 6.105 0 011.657-.56c-.016.386-.246.662-.7.953a5.855 5.855 0 011.286-.394c-.017.4-.263.681-.75.984a5.678 5.678 0 011.14.048c-.157.408-.542.593-1.2.725a5.893 5.893 0 011.187.725c-.348.283-.79.241-1.456.011a5.67 5.67 0 01.775.81c-.436.205-.884.027-1.552-.425-.74.515-1.207.719-1.67.5a5.617 5.617 0 01.74-.777h-.04c-.752.527-1.222.734-1.69.514a5.444 5.444 0 01.573-.633l-.01-.004c-.754.528-1.225.737-1.693.516a5.616 5.616 0 01.738-.777l-.018-.002c-.74.516-1.207.72-1.67.502a5.444 5.444 0 01.574-.635l-.029-.004c-.744.519-1.212.724-1.676.505a5.305 5.305 0 01.463-.522c-.693.474-1.148.662-1.594.452a5.325 5.325 0 01.48-.54c-.704.483-1.162.674-1.611.463a5.488 5.488 0 01.612-.668c-.727.504-1.191.704-1.65.488a5.687 5.687 0 01.795-.826l-.012-.004c-.785.502-1.266.691-1.727.45a5.646 5.646 0 01.802-.769l-.023-.006-.018.034c-.806.484-1.294.662-1.75.405a5.185 5.185 0 01.38-.37 1.216 1.216 0 01-1.099-.492 5.198 5.198 0 01.532-.146c-.64-.17-1.007-.377-1.139-.79a5.247 5.247 0 01.616-.014C1.255 1.824.875 1.577.78 1.13a5.208 5.208 0 01.561.043C.791.976.483.75.383.357z"/><path fill="#b57135" d="M14.798 20.534l.004 1.14-.004-1.14z"/><path fill="#f7d684" d="M14.802 21.674a2.126 2.126 0 01-.004-1.14l.355.341a9.57 9.57 0 00.841-3.713v5.996a8.05 8.05 0 01-1.308-.22l.116-1.264z"/><path fill="#876f5d" d="M14.926 6.2c.03.226-.18.23-.3.286-.113.053-.118-.103-.165-.172a9.669 9.669 0 00-.973-1.487.656.656 0 00-.18.336c.258.387 1 1.39.683 1.583-.192.117-.314-.014-.454-.1a2.022 2.022 0 01-1.383-1.006c-.141-.269-.307-.525-.457-.79-.03-.053-.1-.113-.046-.173.02-.021.105.009.157.025q.75.228 1.5.461l.18-.336c-.748-.194-1.495-.39-2.244-.577-.078-.02-.17-.082-.24-.022-.02.017.042.136.077.203.284.54.586 1.072.85 1.621a1.713 1.713 0 001.065.929c.144.047.36.08.403.18.06.14-.171.236-.228.382-.01.027-.024.052-.036.077l-.038.06-.015.06a1.333 1.333 0 011.094.12c.217.127.495.182.58.472l.088.13.065-.039a2.326 2.326 0 01.34 1.095l.184 1.028a1.294 1.294 0 01.561-.179v-4.45a6.217 6.217 0 00-1.068.282z"/><path fill="#f7d684" d="M13.375 26.142a8.7 8.7 0 001.019.69 13.41 13.41 0 00.623 3.931c.025.075.107.173.01.263l-.96-.046c-.056-.16-.014-.427-.14-.464-.143-.043-.167.23-.277.338-.026.025-.04.079-.082.056-.022-.011-.03-.062-.031-.096-.018-.294-.042-.587-.049-.882-.025-1.103-.043-2.206-.068-3.31-.004-.16-.03-.32-.045-.48z"/><path fill="#fae09f" d="M15.508 10.913c-.113-.105-.192-.216-.074-.367l-.185-1.028a1.69 1.69 0 00-.493-.356c-.192.129-.334.035-.465-.106-.188-.1-.241-.301-.348-.461-.031.019-.06.05-.092.055-.293.044-.362.137-.296.428.089.394.183.787.274 1.18.062.056.073.112.003.17l.343.639a.97.97 0 01.147.13 1.95 1.95 0 001.672.716v-.732a1.7 1.7 0 01-.486-.268z"/><path fill="#f7d684" d="M11.528 25.177a3.717 3.717 0 00.858.51 7.882 7.882 0 00.322 1.726 3.99 3.99 0 01.128 1.55c-.064-.149-.14-.048-.214-.013-.206.098-.422.205-.64.075-.165-.1-.175.006-.211.108-.022-.367-.042-.733-.066-1.099-.004-.06.037-.15-.043-.171-.067-.017-.104.068-.143.118-.116.149-.226.302-.338.453l-.06-.049c.123-.621.328-1.223.43-1.85.075-.457-.074-.905-.023-1.358z"/><path fill="#413b3b" d="M11.77 29.133c.037-.102.047-.208.212-.108.218.13.434.023.64-.075.074-.035.15-.136.214.012.034.263.06.527.107.787.025.139-.003.203-.143.249a1.23 1.23 0 01-.938.014.209.209 0 01-.15-.257c.03-.206.04-.415.059-.622z"/><path fill="#ffd04d" d="M13.943 8.595c-.031.018-.06.05-.092.055-.293.044-.362.137-.296.428.089.394.183.787.274 1.18l-.052.055a11.24 11.24 0 01-.746-2.244.364.364 0 01.05-.329 1.333 1.333 0 011.095.12c-.285-.068-.348.08-.311.32.021.14.051.277.078.415z"/><path fill="#413b3b" d="M14.067 30.98l.96.046a2.405 2.405 0 00.069.45c.115.334-.056.432-.34.48a1.47 1.47 0 01-.365.042c-.36-.03-.413-.09-.382-.45.016-.19.038-.379.058-.568z"/><path fill="#fae09f" d="M11.243 3.536c-.128.142.049.318-.052.463-.163-.02-.194-.158-.244-.278-.006-.228.088-.297.296-.185z"/><path fill="#e0ca59" d="M13.777 10.312l.052-.053c.062.055.073.111.003.168z"/><path fill="#f5efd9" d="M11.12 28.385l.06.05c-.016.04-.032.106-.087.068-.044-.03-.01-.084.028-.118z"/><path fill="#c48c49" d="M13.135 7.62l-.038.06z"/><path fill="#604631" d="M11.243 3.536l1.308.234.408.116.645.183a1.23 1.23 0 01.765.86l.557 1.27c.03.227-.18.231-.3.287-.114.053-.118-.103-.165-.173-.064-.364-.49-.868-.52-1.074a.764.764 0 00-.376-.474.992.992 0 00-.559-.312l-1.815-.454c.1-.145-.076-.32.052-.463zm4.191 7.01c-.118.15-.039.262.074.367a1.7 1.7 0 00.486.268v-.814a1.294 1.294 0 00-.56.178z"/><path fill="#349363" d="M13.573 16.502a1.054 1.054 0 01-.431.767c-.206.153-.456-.015-.445-.305a.92.92 0 01.39-.697.32.32 0 01.352-.007c.11.055.114.165.134.242zm-1.181 1.401c-.002.122-.032.237-.174.245a.14.14 0 01-.146-.169c.018-.116.032-.259.2-.26.117 0 .119.096.12.184z"/><path fill="#876f5d" d="M11.445 24.007a6.528 6.528 0 00.083 1.17 3.718 3.718 0 00.858.51 5.372 5.372 0 01.277-2.03c.015-.047-.004-.134.073-.13.071.002.057.086.071.136a19.572 19.572 0 01.568 2.479 8.675 8.675 0 001.019.69c-.009-.332-.012-.664-.028-.996a8.91 8.91 0 01.32-2.898l.116-1.264-.004-1.14a16.629 16.629 0 001.196-4.357v-4.264a1.95 1.95 0 01-1.672-.716.973.973 0 00-.147-.13c.002.706-.019 1.412-.064 2.117a3.752 3.752 0 01-1.084 2.679 4.566 4.566 0 00-1.21 2.392 21.978 21.978 0 00-.372 5.752zm1.866-2.901l-.006.005.006-.005zm-.065-.065l.022.021-.022-.021a.066.066 0 00-.027.07.066.066 0 01.027-.07zm-.55-4.078a.92.92 0 01.392-.696.32.32 0 01.351-.007c.11.055.114.165.134.242a1.055 1.055 0 01-.431.767c-.206.153-.456-.015-.445-.306zm-.624 1.016c.018-.116.032-.259.2-.26.117 0 .119.096.12.184-.002.122-.032.236-.174.245a.14.14 0 01-.146-.169z"/><path fill="#fcfcfa" d="M13.943 8.595c-.027-.138-.057-.276-.078-.414-.037-.24.026-.39.31-.321.218.127.496.182.58.472a.247.247 0 00-.355-.003l-.04.04-.032.053c-.037.006-.043.03-.037.062a.674.674 0 000 .572c-.188-.1-.241-.3-.348-.461z"/><path fill="#251e1b" d="M14.328 8.422l.032-.052.04-.041a.247.247 0 01.356.003l.088.131.017.017.044.117a.704.704 0 01-.148.565c-.193.129-.335.035-.466-.106a.674.674 0 010-.572h.06c-.01.091 0 .171.118.167a.094.094 0 00.091-.088c.01-.11-.058-.142-.156-.134z"/><path fill="#ffd04d" d="M14.757 9.162a.704.704 0 00.148-.565V8.48a.185.185 0 00.004-.057 2.327 2.327 0 01.34 1.095 1.69 1.69 0 00-.492-.356z"/><path fill="#e4dcad" d="M14.91 8.423a.185.185 0 01-.005.057h-.044l-.017-.017z"/><path fill="#604631" d="M11.651 4.677c.02-.021.105.009.157.025l1.5.46a9.573 9.573 0 01.75.97c.258.387.25.42-.067.614-.192.117-.314-.015-.454-.1a2.022 2.022 0 01-1.383-1.006c-.141-.27-.307-.526-.457-.79-.03-.053-.1-.113-.046-.173z"/><path fill="#4c4744" d="M14.328 8.422l.076.007-.052.055h-.061c-.006-.031 0-.056.037-.062zm.072-.093l-.04.04z"/><path fill="#dfdedd" d="M14.352 8.484l.052-.055c.098-.008.166.024.156.134a.094.094 0 01-.09.088c-.12.004-.13-.076-.118-.167z"/><path fill="#b3afa4" d="M14.861 8.48h.044v.117z"/><path fill="#ffd04d" d="M15.994 16.2v.332a18.412 18.412 0 01-1.077 3.847 20.071 20.071 0 001.077-4.178zm-1.196 4.358a.358.358 0 00.057-.07l.004 1.095c-.021.037-.035.078-.057.115l-.004-1.14z"/><path fill="#ffd04d" d="M14.917 20.379a18.412 18.412 0 001.078-3.847v.648a9.095 9.095 0 01-1.136 4.403l-.004-1.096a1.061 1.061 0 00.062-.108z"/></svg>