<svg xmlns="http://www.w3.org/2000/svg" width="100%" height="100%" viewBox="-2.72 -2.72 37.44 37.44"><path fill="#373f3f" d="M8.04 31.98l.417-2.25H6.619l1.421 2.25zm1.823 0v-2.452l-1.406.202 1.406 2.25z"/><path fill="#cfab81" d="M8.926 20.915l-6.184 5.439 1.989 3.62 1.888-.244h1.838l1.406-.202v-2.391l-.937-6.222z"/><path fill="#373f3f" d="M5.834 31.98l.785-2.25-1.888.244 1.103 2.006z"/><path fill="#d5b387" d="M8.04 20.493c-1.767 3.039-1.734 5.101-.73 6.498 1.603-1.99 4.888-3.356 8.69-3.356v-4.131c-5.275-.054-7.96-1.79-7.96.99z"/><path fill="#e2959e" d="M7.31 26.991c1.546 2.152 5.41 2.708 8.69 2.734v-6.09c-3.802 0-7.087 1.367-8.69 3.356z"/><path fill="#dbba8c" d="M13.896 5.161C11.36-5.904-5.14 2.723 2.362 13.771c-2.65 4.875-.8 7.289 4.876 7.613.75 1.688 4.688 3.188 8.762 3.188V4.517c-1.092.032-2.104.245-2.104.644z"/><ellipse cx="8.04" cy="9.309" fill="#373f3f" rx="5.298" ry="6.611"/><path fill="#373f3f" d="M13.157 10.997l-4.419 1.299-.698 3.624A29.013 29.013 0 0116 14.07v-3.537a6.284 6.284 0 00-2.843.464z"/><ellipse cx="8.04" cy="9.309" fill="#b9bfbe" rx="3.699" ry="4.616"/><ellipse cx="8.926" cy="8.17" fill="#edeeee" rx="1.594" ry="2.352"/><path fill="#757f7e" d="M9.863 17.352c0-.295 3.038-.444 6.137-.45v-1.514c-3.099.026-6.137.678-6.137 1.964z"/><path fill="#e0c193" d="M11.74 16.9c-2.448 0-4.431 1.5-4.431 3.348s1.983 3.347 4.43 3.347A4.387 4.387 0 0016 21.117V19.38a4.388 4.388 0 00-4.26-2.478z"/><ellipse cx="11.601" cy="21.238" fill="#373f3f" rx="1.738" ry=".99"/><path fill="#2b3332" d="M23.96 31.98l-.417-2.25h1.838l-1.421 2.25zm-1.823 0v-2.452l1.406.202-1.406 2.25z"/><path fill="#cda073" d="M23.074 20.915l6.184 5.439-1.989 3.62-1.888-.244h-1.838l-1.406-.202v-2.391l.937-6.222z"/><path fill="#2b3332" d="M26.166 31.98l-.785-2.25 1.888.244-1.103 2.006z"/><path fill="#cfab81" d="M23.96 20.493c1.767 3.039 1.734 5.101.73 6.498-1.603-1.99-4.888-3.356-8.69-3.356v-4.131c5.275-.054 7.96-1.79 7.96.99z"/><path fill="#e08c96" d="M24.69 26.991c-1.546 2.152-5.41 2.708-8.69 2.734v-6.09c3.802 0 7.087 1.367 8.69 3.356z"/><path fill="#d5b387" d="M18.104 5.161c2.535-11.065 19.036-2.438 11.534 8.61 2.65 4.875.8 7.289-4.876 7.613-.75 1.688-4.688 3.188-8.762 3.188V4.517c1.092.032 2.104.245 2.104.644z"/><ellipse cx="23.96" cy="9.309" fill="#2b3332" rx="5.298" ry="6.611"/><path fill="#2b3332" d="M18.843 10.997l4.419 1.299.698 3.624A29.013 29.013 0 0016 14.07v-3.537a6.284 6.284 0 012.843.464z"/><ellipse cx="23.96" cy="9.309" fill="#abb2b1" rx="3.699" ry="4.616"/><ellipse cx="23.074" cy="8.17" fill="#e3e5e5" rx="1.594" ry="2.352"/><path fill="#687271" d="M22.137 17.352c0-.295-3.038-.444-6.137-.45v-1.514c3.099.026 6.137.678 6.137 1.964z"/><path fill="#dbba8c" d="M20.26 16.9c2.448 0 4.431 1.5 4.431 3.348s-1.983 3.347-4.43 3.347A4.387 4.387 0 0116 21.117V19.38a4.388 4.388 0 014.26-2.478z"/><ellipse cx="20.399" cy="21.238" fill="#2b3332" rx="1.738" ry=".99"/></svg>