<svg xmlns="http://www.w3.org/2000/svg" width="100%" height="100%" viewBox="-2.72 -2.72 37.44 37.44"><path fill="#338C5D" d="M12.997 23.99c-1.471.929-2.994 2.03-5 2.971-3.062 1.438-5 .5-5-3.5 0-.994-.494-1.491-.991-1.498-.503-.006-1.009.491-1.009 1.498 0 2.562.426 8.5 6.75 8.5 2.265 0 4.449-.988 6.427-2.159-.059-.057-1.177-5.812-1.177-5.812z"/><path fill="#349363" d="M13.586 26.991s-.562.354-.593.377c-3.653 2.688-8.122 3.438-9.84.562-1.571-2.628-1.341-3.704-1.147-5.966.497.006.991.504.991 1.498 0 4 1.938 4.938 5 3.5 2.006-.942 3.529-2.042 5-2.971l.589 3z"/><path fill="#338C5D" d="M7.521 25.211c-.137.06-.301.143-.472.254a8.114 8.114 0 00-.766-1.305.316.316 0 00-.518 0c-.227.323-.556.826-.775 1.326a3.213 3.213 0 00-.514-.28.318.318 0 00-.437.244c-.325 2.033 1.628 2.697 1.94 2.79l.002.013.022-.006.021.006h.001v-.001l.028-.021c.378-.117 2.232-.796 1.913-2.782a.319.319 0 00-.445-.238zm5-2c-.137.06-.301.143-.472.254a8.114 8.114 0 00-.766-1.305.316.316 0 00-.518 0c-.227.323-.556.826-.775 1.326a3.213 3.213 0 00-.514-.28.318.318 0 00-.437.244c-.325 2.033 1.628 2.697 1.94 2.79l.002.013.022-.006.021.006h.001v-.001l.028-.021c.378-.117 2.232-.796 1.913-2.782a.319.319 0 00-.445-.238z"/><path fill="#6EDCA2" d="M27.496 25.336c-1.562-3.188-6.5-3.375-8.5-3.375v-5l-3 3.766-3-3.451v6.715l.066 2.338c.025.875.175 1.748.508 2.558.125.305.27.581.426.747.057.06.118.112.177.169.273.266.564.503.868.712l.007.005c.303.208.62.391.948.549a8.04 8.04 0 001.036.402c.068.021.135.045.204.064.342.099.69.179 1.041.238.066.011.133.019.2.029.349.052.701.089 1.052.106l.057.004a11.879 11.879 0 001.295-.018 12.9 12.9 0 001.057-.109l.119-.019c.356-.055.705-.12 1.039-.199l.009-.002c.344-.081.671-.175.983-.275l.089-.029c.31-.103.604-.213.874-.329l.062-.028a8.36 8.36 0 00.583-.286l.076-.041c.18-.1.616-.384.666-.434.001 0 2.621-1.619 1.058-4.807zm-7.193 3.027c-.047-.047-.512-.525-.711-.811-.169-.244-.359-.775-.407-.918 1.212-.65 2.202-.903 2.895-.298 1.043.91-.521 1.628-1.777 2.027z"/><path fill="#7AEBAC" d="M16.003 20.719l-.007.008-3-3.451v6.715l.066 2.338c.025.875.175 1.748.508 2.558.125.305.27.581.426.747.057.06.118.112.177.169.273.266.564.503.868.712l.007.005c.303.208.62.391.948.549l.007.003V20.719z"/><path fill="#349363" d="M27.503 25.336c-1.562-3.188-6.5-3.375-8.5-3.375v2.667c2.774-1.206 6.458-.979 8.5.708z"/><path fill="#F7C845" d="M29.031 13.025s-8.07-1.7-11.035 5.15v-5.15c.001 0 4.827-3.452 11.035 0z"/><path fill="#FFD04D" d="M3.003 13.025s8.07-1.7 11.035 5.15v-5.15s-4.826-3.452-11.035 0z"/><path fill="#E3E5E5" d="M16.003 16.025l-3-3v4l3 4z"/><path fill="#DADDDC" d="M16.003 16.025l3-3v4l-3 4z"/><path fill="#F7F7F7" d="M22.003 9.025c0 3.219-3.886 6.438-5.403 7.572a.984.984 0 01-1.19-.004c-1.515-1.146-5.406-4.399-5.406-7.569 0-3.314 2.024-5 6-5s5.999 1.688 5.999 5.001z"/><path fill="#EDEEEE" d="M16.6 16.598c1.517-1.134 5.403-4.353 5.403-7.573 0-3.314-2.024-5-6-5v12.771a.986.986 0 00.597-.198z"/><path fill="#E7685F" d="M11.503 6.025c-.334 0-.64.151-.889.397-.318.582-.508 1.27-.567 2.064.156.882.747 1.54 1.456 1.54.828 0 1.5-.895 1.5-2s-.671-2.001-1.5-2.001z"/><path fill="#E55D53" d="M21.392 6.422c-.249-.246-.555-.397-.889-.397-.828 0-1.5.896-1.5 2 0 1.105.672 2 1.5 2 .709 0 1.3-.658 1.456-1.539-.059-.794-.248-1.482-.567-2.064z"/><ellipse cx="20.503" cy="8.025" fill="#2B3332" rx=".5" ry="1"/><ellipse cx="11.503" cy="8.025" fill="#373F3F" rx=".5" ry="1"/><path fill="#99F2BD" d="M12.897 12.596a3.004 3.004 0 01-1.42.134c.312.427.652.836 1.005 1.221.44-.376.645-.759.74-1.046.064-.196-.13-.374-.325-.309z"/><path fill="#7AEBAC" d="M19.135 12.596a3.004 3.004 0 001.42.134c-.312.427-.652.836-1.005 1.221-.44-.376-.645-.759-.74-1.046-.065-.196.129-.374.325-.309z"/><path fill="#99F2BD" d="M22.686.436a.251.251 0 00-.218-.397c-3.356.176-5.385 1.98-6.465 3.369C14.923 2.019 12.894.215 9.538.039a.251.251 0 00-.218.397c.619.852 1.919 2.923 1.881 5.198a4.125 4.125 0 00-.972 1.757c.211-.165.46-.297.774-.365 2.281-.498 2.223 2.2 2.085 3.422-.025.224.238.367.41.221.746-.633.978-1.357 1.035-1.888.014-.132.195-.158.241-.033l.995 2.653a.25.25 0 00.468 0l.995-2.653c.047-.125.227-.099.241.033.056.53.289 1.254 1.035 1.888.172.146.435.003.41-.221-.138-1.222-.196-3.92 2.085-3.422.315.069.563.2.774.365a4.125 4.125 0 00-.972-1.757c-.038-2.275 1.262-4.347 1.881-5.198z"/><path fill="#349363" d="M29.003 13.025c-8.5-3-13 6-13 6s-4.5-9-13-6c-.479.209-1.092.49-.988 1.142.069.434.42.793.856.849a1 1 0 001.132-.991c0-.053-.022-.098-.03-.149 2.157-.172 7.446.303 11.03 8.149 0 0-.388 2.197-1.439 2.192-.236-.001-.365.275-.189.432.283.254.776.468 1.628.375l.776 1.553a.25.25 0 00.447 0l.776-1.553c.853.093 1.345-.122 1.628-.375.176-.157.047-.434-.189-.432-1.051.005-1.439-2.192-1.439-2.192 3.584-7.846 8.873-8.321 11.03-8.149-.008.051-.03.096-.03.149a1 1 0 001.132.991c.436-.056.787-.415.856-.849.106-.652-.508-.933-.987-1.142z"/><path fill="#338C5D" d="M16.227 26.578l.776-1.553c.853.093 1.345-.122 1.628-.375.176-.157.047-.434-.189-.432-1.051.005-1.439-2.192-1.439-2.192 3.584-7.846 8.873-8.321 11.03-8.149-.008.051-.03.096-.03.149a1 1 0 001.133.991c.436-.056.787-.415.856-.849.104-.652-.51-.934-.988-1.142-8.5-3-13 6-13 6v7.691a.25.25 0 00.223-.139z"/><path fill="#FFE28A" d="M14.681 4.104C13.519 2.632 11.657.75 9.349.111a.248.248 0 00-.028.325c.619.852 1.92 2.922 1.882 5.197.774-.833 1.929-1.349 3.478-1.529z"/><path fill="#7AEBAC" d="M16.237 11.401l.995-2.653c.047-.125.227-.099.241.033.056.53.289 1.254 1.035 1.888.172.146.435.003.41-.221-.138-1.222-.196-3.92 2.085-3.422.315.069.563.2.774.365a4.125 4.125 0 00-.972-1.757c-.038-2.275 1.262-4.346 1.881-5.198a.251.251 0 00-.218-.397c-3.356.176-5.385 1.98-6.465 3.369v8.155a.245.245 0 00.234-.162z"/><path fill="#FFD96C" d="M22.658.112c-2.308.639-4.17 2.521-5.332 3.993 1.552.179 2.707.697 3.482 1.532-.039-2.276 1.259-4.348 1.878-5.2a.25.25 0 00-.028-.325z"/></svg>