<svg xmlns="http://www.w3.org/2000/svg" width="100%" height="100%" viewBox="-2.72 -2.72 37.44 37.44"><path fill="#DD583E" d="M29 22c0-3.709-3.901-3.175-4.872-5.593-.07-.174-.295-.23-.415-.086-1.146 1.374-1.136 2.596-.743 3.726-.157-.016-.309-.047-.47-.047a4.5 4.5 0 104.41 5.397C28.171 24.778 29 23.673 29 22z"/><path fill="#E56142" d="M25 20c-.909-1.019-1.082-2.636-1.079-3.754a.221.221 0 00-.208.075c-1.146 1.374-1.136 2.596-.743 3.726-.157-.016-.309-.047-.47-.047a4.5 4.5 0 00-4.5 4.5c5 3.768 8.365-2.97 7-4.5z"/><circle cx="20.5" cy="16.5" r="1.5" fill="#E3E5E5"/><circle cx="11.5" cy="16.5" r="1.5" fill="#EDEEEE"/><path fill="#F7D684" d="M7.971 26.005L7.72 25h-2l-.69 2.757A1 1 0 006.001 29h1.438a1 1 0 00.97-1.243l-.121-.485c.549.22 1.314.396 1.432-.272.148-.841-1.188-.975-1.749-.995z"/><path fill="#EB6B48" d="M8.391 19.001C6.789 20.315 5.896 22.333 5.72 25v.001l-.69 2.756a1.02 1.02 0 00-.029.243h3.438c0-.08-.009-.161-.029-.243l-.121-.485c.124.05.259.096.395.132v-1.32a5.089 5.089 0 00-.712-.079l-.25-.995c.155-2.026.798-3.523 1.926-4.453 1.954-1.613 4.813-1.082 4.841-1.077l.39-1.961c-.153-.031-3.792-.727-6.488 1.482z"/><path fill="#F0C877" d="M24.029 26.005L24.28 25h2l.689 2.757A1 1 0 0126 29h-1.438a1 1 0 01-.97-1.243l.121-.485c-.549.22-1.314.396-1.432-.272-.149-.841 1.187-.975 1.748-.995z"/><path fill="#EB6B48" d="M23.609 19.001c1.602 1.313 2.495 3.331 2.671 5.999v.001l.689 2.757c.02.082.029.163.029.243H23.56c0-.08.009-.161.029-.243l.121-.485c-.124.05-.259.096-.395.132v-1.32c.267-.05.53-.072.712-.079l.249-.994c-.155-2.026-.798-3.523-1.926-4.453-1.954-1.613-4.813-1.082-4.841-1.077l-.39-1.961c.155-.033 3.794-.729 6.49 1.48z"/><path fill="#F7D684" d="M21 23.5c0 2.485-2.239 4.25-5 4.25s-5-1.765-5-4.25c0-3.92 5-6.537 5-9.5 0 2.963 5 5.619 5 9.5z"/><path fill="#F0C877" d="M21 23.5c0-3.881-5-6.537-5-9.5v13.75c2.761 0 5-1.765 5-4.25z"/><path fill="#EB6B48" d="M20.732 25.94c-.099-.115-.221-.205-.341-.298.152-.26.287-.53.381-.817l-.596-.596a.25.25 0 00-.354 0l-.646.646a.25.25 0 01-.354 0l-.646-.646a.25.25 0 00-.354 0l-.646.646a.25.25 0 01-.354 0l-.646-.646a.25.25 0 00-.354 0l-.646.646a.25.25 0 01-.354 0l-.646-.646a.25.25 0 00-.354 0l-.646.646a.25.25 0 01-.354 0l-.646-.646a.25.25 0 00-.354 0l-.596.596c.095.287.229.557.381.817-.12.093-.242.184-.341.298-.789.911-.608 2.154-.434 3.356.084.56.168 1.139.168 1.704h2c0-.709-.099-1.39-.186-1.991a7.616 7.616 0 01-.055-1.067.497.497 0 01.656-.468c.707.238 1.546.526 2.585.526s1.878-.288 2.585-.525a.497.497 0 01.656.468c.002.341-.008.746-.055 1.067-.087.6-.186 1.281-.186 1.99h2c0-.565.084-1.144.166-1.704.174-1.202.355-2.445-.434-3.356z"/><circle cx="13" cy="18" r="2" fill="#F7F7F7"/><circle cx="19" cy="18" r="2" fill="#EDEEEE"/><ellipse cx="7.5" cy="12" fill="#EB6B48" rx="3.253" ry="4.203" transform="rotate(-29.046 7.5 12)"/><path fill="#FFC550" d="M5.867 9.259C7.436 9.08 9.977 9.795 10 12.5a2 2 0 01-4 0 2 2 0 011.257-1.854c-.324-.336-.782-.658-1.445-.906-.243-.091-.203-.452.055-.481z"/><ellipse cx="24.5" cy="12" fill="#E56142" rx="4.203" ry="3.253" transform="rotate(-60.954 24.5 12)"/><path fill="#F7BC48" d="M26.133 9.259c-1.569-.179-4.11.536-4.133 3.241a2 2 0 004 0 2 2 0 00-1.257-1.854c.324-.336.782-.659 1.445-.906.243-.091.203-.452-.055-.481z"/><path fill="#EB6B48" d="M23 11.963c0 2.761-2.582 4.75-7 4.75s-7-1.989-7-4.75 2.582-5 7-5 7 2.238 7 5z"/><path fill="#E56142" d="M23 11.963c0-2.761-2.582-5-7-5v9.75c4.418 0 7-1.989 7-4.75z"/><path fill="#FAE09F" d="M16 12c-4.321 0-6.417-.081-6.892.906.524 2.31 2.99 4.056 6.892 4.056s6.368-1.746 6.892-4.056C22.417 11.919 20.321 12 16 12z"/><path fill="#F7D684" d="M22.892 12.906C22.417 11.919 20.321 12 16 12v4.963c3.902 0 6.368-1.747 6.892-4.057z"/><ellipse cx="16" cy="14.5" fill="#434C4B" rx="1" ry=".5"/><path fill="#373F3F" d="M17 14.5c0-.276-.448-.5-1-.5v1c.552 0 1-.224 1-.5z"/><path fill="#E56142" d="M15.713.321c-3.36 4.03 3.21 6.756.287 9.679 2.761 0 5-1.239 5-4 0-3.709-3.901-3.175-4.872-5.593-.07-.174-.295-.23-.415-.086z"/><circle cx="16" cy="7" r="3" fill="#EB6B48"/><path fill="#E56142" d="M19 7a3 3 0 00-3-3v6a3 3 0 003-3z"/><path fill="#FF805D" d="M14 8a2 2 0 11-4 0c0-.868 1.25-1.998 1.774-3.105a.252.252 0 01.462-.001C12.764 6.002 14 7.132 14 8z"/><path fill="#F57552" d="M12 4.745V10a2 2 0 002-2c0-.868-1.236-1.999-1.765-3.106A.251.251 0 0012 4.745zM22 8a2 2 0 11-4 0c0-.868 1.25-1.998 1.774-3.105a.252.252 0 01.462-.001C20.764 6.002 22 7.132 22 8z"/><path fill="#EB6B48" d="M20 4.745V10a2 2 0 002-2c0-.868-1.236-1.999-1.765-3.106A.251.251 0 0020 4.745z"/><path fill="#F57552" d="M18 6a2 2 0 00-2-2v4a2 2 0 002-2z"/><path fill="#EB6B48" d="M18.585 27.475a.497.497 0 01.656.468c.002.341-.008.746-.055 1.067-.087.6-.186 1.281-.186 1.99h2c0-.565.084-1.144.166-1.704.175-1.202.355-2.445-.434-3.356-.099-.115-.221-.205-.341-.298.152-.26.287-.53.381-.817l-.596-.596a.25.25 0 00-.354 0l-.646.646a.25.25 0 01-.354 0l-.646-.646a.25.25 0 00-.354 0l-.646.646a.25.25 0 01-.354 0l-.646-.646a.249.249 0 00-.177-.073V28c1.04 0 1.879-.288 2.586-.525z"/><circle cx="19" cy="31" r="1" fill="#F0C877"/><circle cx="13" cy="31" r="1" fill="#F7D684"/><circle cx="21" cy="31" r="1" fill="#F0C877"/><circle cx="20" cy="31" r="1" fill="#F7D684"/><circle cx="11" cy="31" r="1" fill="#F7D684"/><circle cx="12" cy="31" r="1" fill="#FAE09F"/><path fill="#FFF" d="M13.5 14a1.5 1.5 0 01-1.5-1.5v-1.25a.25.25 0 01.25-.25h2.5a.25.25 0 01.25.25v1.25a1.5 1.5 0 01-1.5 1.5z"/><path fill="#F7F7F7" d="M18.5 14a1.5 1.5 0 01-1.5-1.5v-1.25a.25.25 0 01.25-.25h2.5a.25.25 0 01.25.25v1.25a1.5 1.5 0 01-1.5 1.5z"/><path fill="#2B3332" d="M17.25 11a.25.25 0 00-.25.25v1.25c0 .38.146.724.379.988.041.003.08.012.121.012A1.5 1.5 0 0019 12v-1h-1.75z"/><path fill="#373F3F" d="M14.75 11H13v1a1.5 1.5 0 001.5 1.5c.041 0 .08-.009.121-.012.233-.264.379-.608.379-.988v-1.25a.25.25 0 00-.25-.25z"/></svg>