<svg xmlns="http://www.w3.org/2000/svg" width="100%" height="100%" viewBox="-2.72 -2.72 37.44 37.44"><path fill="#A7794C" d="M22.733 11.12L22 8.921s2.712-2.056 2.981-4.718c.016-.154-.105-.292-.26-.282-1.132.069-1.721 1-1.721 1s1.433-2.176.121-4.774a.28.28 0 00-.353-.124C18.513 1.983 18 7.421 18 7.421s-.411-.5-2-.5-2 .5-2 .5-.513-5.438-4.767-7.398a.28.28 0 00-.354.124C7.567 2.745 9 4.921 9 4.921S8.411 3.99 7.279 3.92c-.154-.009-.275.128-.26.282C7.288 6.865 10 8.921 10 8.921l-.733 2.199c-.149.448.898 7.02 2.207 7.717 4.056 2.16 4.997 2.16 9.053 0 1.308-.697 2.355-7.269 2.206-7.717z"/><path fill="#9E6E43" d="M20.526 18.837c1.308-.697 2.356-7.269 2.207-7.717L22 8.921s2.712-2.056 2.981-4.719c.016-.154-.105-.292-.26-.282C23.589 3.99 23 4.921 23 4.921s1.433-2.176.121-4.774a.278.278 0 00-.353-.124C18.513 1.983 18 7.421 18 7.421s-.411-.5-2-.5v13.536c1.249 0 2.499-.54 4.526-1.62z"/><path fill="#313D68" d="M14 9s-1.656-5.886-4.189-7.345c-.148-.086-.344.022-.366.192C8.882 6.173 13 9 13 9h1z"/><path fill="#263460" d="M18 9s1.656-5.886 4.189-7.345c.148-.085.344.022.366.192C23.118 6.173 19 9 19 9h-1z"/><path fill="#8D5B36" d="M17.802 26.805a.999.999 0 011.198.979v3.509c0 .39.317.707.707.707h2.586a.708.708 0 00.5-1.207l-.321-.322a1 1 0 01-.231-1.053c.296-.803.759-2.384.759-4.418 0-2.988-1-7-1-7h-6v9c.639 0 1.279-.091 1.802-.195z"/><path fill="#96643B" d="M22.471 30.471a1 1 0 01-.231-1.053c.297-.803.76-2.384.76-4.418 0-2.988-1-7-1-7H10s-1 4.012-1 7c0 2.034.463 3.615.759 4.418a.997.997 0 01-.231 1.053l-.321.322a.708.708 0 00.5 1.207h2.586c.39 0 .707-.317.707-.707v-3.509a.998.998 0 011.198-.979A9.455 9.455 0 0016 27c.639 0 1.279-.091 1.802-.195a.999.999 0 011.198.979v3.509c0 .39.317.707.707.707h2.586a.708.708 0 00.5-1.207l-.322-.322z"/><path fill="#6BA0A5" d="M21 21H11s-3.013 5.021-3.017 7.665c0 .204.145.388.339.454C10.51 29.862 12 29 12 29s1.005 1.23 3.726 2.84a.55.55 0 00.547 0C18.995 30.23 20 29 20 29s1.49.862 3.678.119a.496.496 0 00.339-.454C24.013 26.021 21 21 21 21z"/><path fill="#65999B" d="M16.274 31.84C18.995 30.23 20 29 20 29s1.49.862 3.678.119a.496.496 0 00.339-.454C24.013 26.021 21 21 21 21h-5v10.913a.538.538 0 00.274-.073z"/><path fill="#495587" d="M20 18l-4-1-4 1s-3.917 4.09-4.012 6.657a.49.49 0 00.339.464C10.513 25.86 12 25 12 25s1.008 1.234 3.738 2.847a.527.527 0 00.524 0C18.992 26.234 20 25 20 25s1.487.86 3.672.121a.49.49 0 00.339-.464C23.917 22.09 20 18 20 18z"/><path fill="#424B7E" d="M16.262 27.847C18.992 26.234 20 25 20 25s1.487.86 3.672.121a.49.49 0 00.339-.464C23.917 22.09 20 18 20 18l-4-1v10.917a.512.512 0 00.262-.07z"/><path fill="#F7F7F7" d="M17 14c0 1.105 1.672 2 2.5 2s1.5-.895 1.5-2-.672-2-1.5-2-2.5.895-2.5 2z"/><path fill="#2B3332" d="M17 14c0 1.105 1.448 2 2 2s1-.895 1-2-.448-2-1-2-2 .895-2 2z"/><circle cx="19" cy="13.5" r=".5" fill="#F7F7F7"/><path fill="#FFF" d="M15 14c0 1.105-1.672 2-2.5 2s-1.5-.895-1.5-2 .672-2 1.5-2 2.5.895 2.5 2z"/><path fill="#373F3F" d="M15 14c0 1.105-1.448 2-2 2s-1-.895-1-2 .448-2 1-2 2 .895 2 2z"/><path fill="#F5DEB9" d="M16 15.128c-4 0-5.906-.999-9 2.872-2.927 3.661-1.902 7.859-4 8-.946.063-1.649-.134-2.136-.369a.497.497 0 00-.704.562C.504 27.672 1.588 30 5 30c5.102 0 2.988-11 8-11l3-3.872z"/><circle cx="13" cy="13.5" r=".5" fill="#FFF"/><path fill="#EFD4A7" d="M16 15.128c4 0 5.906-.999 9 2.872 2.927 3.661 1.902 7.859 4 8 .946.063 1.649-.134 2.136-.369.382-.185.8.149.704.562C31.496 27.672 30.412 30 27 30c-5.102 0-2.988-11-8-11l-3-3.872z"/><path fill="#FCE8CC" d="M22.809 18.556L22 16.128c-.534-1.604-2.686-1-6-1s-5.466-.604-6 1l-.809 2.427a.25.25 0 00.349.303l1.098-.549a.25.25 0 01.362.224v1.227a.25.25 0 00.366.222l1.446-.755a.25.25 0 01.316.072l.814 1.085a.25.25 0 00.352.049l1.555-1.188a.252.252 0 01.304 0l1.555 1.188a.25.25 0 00.352-.049l.814-1.085a.251.251 0 01.316-.072l1.446.755A.25.25 0 0021 19.76v-1.227a.25.25 0 01.362-.224l1.098.549a.25.25 0 00.349-.302z"/><path fill="#FCE8CC" d="M8 9.893s-.981-.254-1.735-.083c-.163.037-.236.224-.156.37C7.147 12.072 14 12.893 14 12.893V16h4v-3.107s6.853-.821 7.891-2.713c.08-.146.007-.333-.156-.37-.754-.171-1.735.083-1.735.083s1.972-.691 2.87-2.682a.265.265 0 00-.199-.37c-5.053-.746-8.138 1.61-8.602 1.995.304-.268 1.526-1.501 1.016-3.634a.26.26 0 00-.371-.171c-1.034.529-1.441 1.131-1.603 1.504.238-.886.664-3.275-.902-5.378a.259.259 0 00-.416 0c-1.566 2.103-1.141 4.492-.902 5.378-.162-.373-.569-.975-1.603-1.504a.26.26 0 00-.371.171c-.511 2.133.711 3.366 1.016 3.634-.465-.385-3.549-2.741-8.602-1.995a.264.264 0 00-.201.37C6.028 9.203 8 9.893 8 9.893z"/><path fill="#F5DEB9" d="M18 16v-3.107s6.853-.821 7.891-2.713c.08-.146.007-.333-.156-.37-.754-.171-1.735.083-1.735.083s1.972-.691 2.87-2.682a.265.265 0 00-.199-.37c-5.053-.746-8.138 1.61-8.602 1.995.304-.268 1.526-1.501 1.016-3.634a.26.26 0 00-.371-.171c-1.034.529-1.441 1.131-1.603 1.504.238-.886.664-3.275-.902-5.378a.258.258 0 00-.208-.105V16H18z"/><path fill="#F5DEB9" d="M16.152 19.244l1.555 1.188a.25.25 0 00.352-.049l.814-1.085a.251.251 0 01.316-.072l1.446.755A.25.25 0 0021 19.76v-1.227a.25.25 0 01.362-.224l1.098.549a.25.25 0 00.349-.303L22 16.128c-.534-1.604-2.686-1-6-1v4.065c.053 0 .107.017.152.051z"/><path fill="#434C4B" d="M17.5 16c0 .541-.999.865-1.366.966a.485.485 0 01-.267 0c-.368-.101-1.367-.425-1.367-.966 0-.663.672-1 1.5-1s1.5.337 1.5 1z"/></svg>