<svg xmlns="http://www.w3.org/2000/svg" width="100%" height="100%" viewBox="-2.72 -2.72 37.44 37.44"><path fill="#EFD4A7" d="M16 11c-6.075 0-10 .925-10 7s6 11 10 11V11z"/><path fill="#FCE8CC" d="M16 19.612c-.911.937-2.357 1.388-4 1.388-2.522 0-5.433-1.037-5.921-3.319.45-3.961 3.013-5.234 6.955-5.571A4.986 4.986 0 0116 14.028v5.584z"/><path fill="#8D5B36" d="M24.661 23A6.68 6.68 0 0127 28.077v.513a.5.5 0 00.402.49l3.794.759a1 1 0 01.804.981v.68a.5.5 0 01-.5.5h-8a.5.5 0 01-.5-.5v-2.161a.5.5 0 00-.315-.465l-3.435-1.187L24.661 23z"/><path fill="#EACEA1" d="M16 11c6.075 0 10 .925 10 7s-6 11-10 11V11z"/><path fill="#F5DEB9" d="M16 19.612c.911.937 2.357 1.388 4 1.388 2.522 0 5.433-1.037 5.921-3.319-.45-3.961-3.013-5.234-6.955-5.571A4.986 4.986 0 0016 14.028v5.584z"/><path fill="#96643B" d="M7.339 23A6.68 6.68 0 005 28.077v.513a.5.5 0 01-.402.49l-3.794.759A1 1 0 000 30.82v.68a.5.5 0 00.5.5h8a.5.5 0 00.5-.5v-2.161a.5.5 0 01.315-.465l3.435-1.187L7.339 23z"/><path fill="#F5DEB9" d="M23.524 26.5l-2.293 2.293a.999.999 0 01-1.414 0l-1.086-1.086a.999.999 0 010-1.414l.293-.293-.646-.646a.5.5 0 010-.707l.5-.5a.496.496 0 01.353-.147h1.793l2.5 2.5z"/><path fill="#96643B" d="M24.024 20l-3.927 3.927a.249.249 0 00-.073.177v.646c0 .138.112.25.25.25h.5a.25.25 0 01.25.25v.5c0 .138.112.25.25.25h.5a.25.25 0 01.25.25v.5c0 .138.112.25.25.25h.664a.25.25 0 00.177-.073l6.386-6.386a1 1 0 00.16-1.205l-2.195-3.825A5.002 5.002 0 0023.129 13h-4.105l5 7z"/><path fill="#FCE8CC" d="M8.5 26.5l2.293 2.293a.999.999 0 001.414 0l1.086-1.086a.999.999 0 000-1.414L13 26l.646-.646a.5.5 0 000-.707l-.5-.5a.498.498 0 00-.353-.147H11l-2.5 2.5z"/><path fill="#9E6E43" d="M8 20l3.927 3.927c.047.047.073.11.073.177v.646a.25.25 0 01-.25.25h-.5a.25.25 0 00-.25.25v.5a.25.25 0 01-.25.25h-.5a.25.25 0 00-.25.25v.5a.25.25 0 01-.25.25h-.664a.25.25 0 01-.177-.073l-6.386-6.386a1 1 0 01-.16-1.205l2.195-3.825A5.002 5.002 0 018.895 13H13l-5 7z"/><path fill="#EDEEEE" d="M26.716 9.548a.285.285 0 00-.202-.487h-1.329a.143.143 0 01-.128-.205l.64-1.322a.285.285 0 00-.384-.379l-1.119.559a.284.284 0 01-.412-.255v-2.27a.286.286 0 00-.487-.202L21.8 6l-.136 3.062H16v7.04c.123.039.268.005.34-.138l.345-.69a.285.285 0 01.51 0l.63 1.261c.105.21.405.21.51 0l.758-1.516a.285.285 0 01.382-.128l1.613.806a.284.284 0 00.412-.255v-.284c0-.195.191-.332.375-.27l2.393.798a.285.285 0 00.345-.398l-.626-1.253a.285.285 0 01.255-.413H25.6c.212 0 .35-.223.255-.413l-.842-1.684a.286.286 0 01.053-.329l1.65-1.648z"/><path fill="#F7F7F7" d="M5.284 9.548a.285.285 0 01.202-.487h1.329c.105 0 .174-.11.128-.205l-.64-1.322a.284.284 0 01.384-.378l1.119.559a.285.285 0 00.412-.255V5.189c0-.254.307-.381.487-.202L10.2 6l.136 3.062H16v7.04c-.123.039-.268.005-.34-.138l-.345-.69a.285.285 0 00-.51 0l-.63 1.261a.285.285 0 01-.51 0l-.758-1.516a.285.285 0 00-.382-.128l-1.613.806a.284.284 0 01-.412-.255v-.284a.284.284 0 00-.375-.27l-2.393.798a.285.285 0 01-.345-.398l.626-1.253a.285.285 0 00-.255-.413H6.399a.285.285 0 01-.255-.413l.842-1.684a.286.286 0 00-.053-.329L5.284 9.548z"/><path fill="#EDEEEE" d="M18.196 2.515c-.059 1.103-.553 1.973-1.105 1.944-.552-.029-.951-.947-.892-2.05.059-1.104.703-2.438 1.255-2.409.551.03.801 1.412.742 2.515z"/><path fill="#F5DEB9" d="M16 12c3.219 0 7.542.027 7.542-3 0-2.414-1.609-4.039-2.042-5.556C20.507-.039 17.225 1 16 1v11z"/><path fill="#DB7383" d="M21.627 9.568L21.4 9h.717c.123 0 .173.161.071.23a6.419 6.419 0 01-.561.338zM16 9v1.7s1.831.026 3.789-.445L20.291 9H16z"/><path fill="#F7F7F7" d="M21.069 8.173c-.092-.23-.355-.23-.447 0l-.833 2.083a7.652 7.652 0 001.838-.688l-.558-1.395z"/><path fill="#EDEEEE" d="M13.804 2.515c.059 1.103.553 1.973 1.105 1.944.552-.029.951-.947.892-2.05-.059-1.104-.703-2.438-1.255-2.409-.551.03-.801 1.412-.742 2.515z"/><path fill="#FCE8CC" d="M16 12c-3.219 0-7.542.027-7.542-3 0-2.414 1.609-4.039 2.042-5.556C11.493-.039 14.775 1 16 1v11z"/><path fill="#DD7C8A" d="M9.883 9h.717l-.227.568a6.419 6.419 0 01-.561-.338C9.71 9.161 9.76 9 9.883 9zm1.826 0l.502 1.255c1.958.471 3.789.445 3.789.445V9h-4.291z"/><path fill="#FFF" d="M10.931 8.173c.092-.23.355-.23.447 0l.833 2.083a7.652 7.652 0 01-1.838-.688l.558-1.395z"/><ellipse cx="18.75" cy="4.5" fill="#8D5B36" rx="2.25" ry="2"/><circle cx="18.75" cy="4.5" r="1.5" fill="#F7F7F7"/><ellipse cx="18.75" cy="4.5" fill="#2B3332" rx=".5" ry=".75"/><path fill="#EACEA1" d="M18.75 2.5c-1.243 0-2.25.895-2.25 2H21c0-1.105-1.007-2-2.25-2z"/><ellipse cx="13.25" cy="4.5" fill="#96643B" rx="2.25" ry="2"/><circle cx="13.25" cy="4.5" r="1.5" fill="#FFF"/><ellipse cx="13.25" cy="4.5" fill="#373F3F" rx=".5" ry=".75"/><path fill="#EFD4A7" d="M13.25 2.5c-1.243 0-2.25.895-2.25 2h4.5c0-1.105-1.007-2-2.25-2z"/><path fill="#E59FA8" d="M16 9.319c1.343 0 2.837-1.151 2.433-2.433C17.748 4.719 16 6.278 16 6.278v3.041z"/><ellipse cx="17" cy="7.25" fill="#2B3332" rx=".5" ry=".75"/><path fill="#E8AAB1" d="M16 9.319c-1.343 0-2.837-1.151-2.433-2.433C14.252 4.719 16 6.278 16 6.278v3.041z"/><ellipse cx="15" cy="7.25" fill="#373F3F" rx=".5" ry=".75"/></svg>