<svg xmlns="http://www.w3.org/2000/svg" width="100%" height="100%" viewBox="-2.72 -2.72 37.44 37.44"><path fill="#9eb164" d="M6.605 28.94c-2.252 1.233-4.911 1.695-4.42 2.635 1.913.892 6.16-.142 7.777-.085-3.752-.056-5.252-.791-3.357-2.55z"/><path fill="#fdecef" d="M15.997 26.263c-.34 1.785-4.294 5.41-6.035 5.227A20.598 20.598 0 0016 32V19.557z"/><path fill="#d9f07d" d="M11.067 10.03L16 14.023v-6.8C8.687 7.114 3.503 20.398 6.605 28.94c-1.895 1.76-.395 2.494 3.357 2.55 1.741.183 5.695-3.442 6.035-5.227L16 19.557c-5.188 0-9.523 0-4.933-9.528z"/><path fill="#fef5f7" d="M11.067 10.03c-4.59 9.527-.255 9.527 4.933 9.527v-5.533z"/><path fill="#e6f490" d="M13.192 0C9.962 3.145 12.29 9.798 16 8.584v-1.36z"/><path fill="#373f3f" d="M10.695 14.676a1.736 1.736 0 00-.096.563 1.49 1.49 0 001.393 1.57 1.49 1.49 0 001.393-1.57 1.736 1.736 0 00-.096-.563z"/><path fill="#f4a984" d="M11.425 14.676a.774.774 0 00-.174.473.79.79 0 101.582 0 .774.774 0 00-.174-.473z"/><path fill="#97ac59" d="M25.395 28.94c2.252 1.233 4.911 1.695 4.42 2.635-1.913.892-6.16-.142-7.777-.085 3.752-.056 5.252-.791 3.357-2.55z"/><path fill="#fde2e6" d="M16.003 26.263c.34 1.785 4.294 5.41 6.035 5.227A20.598 20.598 0 0116 32V19.557z"/><path fill="#cbeb6b" d="M20.933 10.03L16 14.023v-6.8c7.313-.11 12.497 13.174 9.395 21.716 1.895 1.759.395 2.494-3.357 2.55-1.741.183-5.695-3.442-6.035-5.227L16 19.557c5.188 0 9.523 0 4.933-9.528z"/><path fill="#fdecef" d="M20.933 10.03c4.59 9.527.255 9.527-4.933 9.527v-5.533z"/><path fill="#d9f07d" d="M18.808 0c3.23 3.145.902 9.798-2.808 8.584v-1.36z"/><path fill="#2b3332" d="M21.305 14.676a1.736 1.736 0 01.096.563 1.403 1.403 0 11-2.786 0 1.736 1.736 0 01.096-.563z"/><path fill="#ea9c7a" d="M20.575 14.676a.774.774 0 01.174.473.79.79 0 11-1.582 0 .774.774 0 01.174-.473z"/></svg>