<svg xmlns="http://www.w3.org/2000/svg" width="100%" height="100%" viewBox="-2.72 -2.72 37.44 37.44"><path fill="#E56142" d="M19.2 26.381V29s0 1 5.167 1.333c3.422.221 6.094-2.154 7.509-3.783a.483.483 0 00-.075-.712c-4.461 3.955-9.706 2.122-12.601.543z"/><path fill="#FF805D" d="M17 24.958s.842.683 2.2 1.423v-1.646l-2.2.223z"/><path fill="#6CD275" d="M31.318 25.76c-5.176 1.759-9.125.008-10.968-1.141l-1.15.116v1.646c2.896 1.579 8.14 3.412 12.601-.543a.507.507 0 00-.483-.078z"/><path fill="#EB6B48" d="M16 11.123S6.461 9.667 3.766.364c-.127-.438-.723-.497-.922-.087C1.85 2.326 0 6.966 0 13.123c0 6.8 4.995 10.445 6.914 11.594a.497.497 0 00.753-.408c.073-1.88.488-6.421 2.791-7.145C13.375 16.248 16 16.123 16 16.123v-5z"/><path fill="#E56142" d="M16 11.123S25.539 9.667 28.234.364c.127-.438.723-.497.922-.086C30.15 2.326 32 6.966 32 13.123c0 6.8-4.995 10.445-6.914 11.594a.497.497 0 01-.753-.408c-.073-1.88-.488-6.421-2.791-7.145C18.625 16.248 16 16.123 16 16.123v-5z"/><path fill="#78DF7C" d="M27.063 20.594l-1.159-1.739a10.005 10.005 0 00-5.158-3.94l-1.659-.553a1.001 1.001 0 01-.67-.776C18.146 12.071 18 8.937 18 8h-2v22c1.094 0 2.117-.257 3-.763v1.348c0 .265.105.52.293.707l.414.414a.996.996 0 00.707.294h4.98c.359 0 .611-.372.46-.698C25.254 30 23 30 23 30s1-1 1-4c0-1.854-1.145-2.943-2.021-3.505-.089-2.237-.755-3.556-1.796-5.344 1.281.78 2.335 1.885 3.009 3.234l.951 1.903a1.69 1.69 0 002.449.65l.001-.001a1.69 1.69 0 00.47-2.343z"/><path fill="#84ED82" d="M16 8h-2c0 .937-.146 4.071-.416 5.585a.998.998 0 01-.67.776l-1.659.553a9.997 9.997 0 00-5.158 3.94l-1.159 1.739a1.69 1.69 0 00.468 2.344l.001.001a1.69 1.69 0 002.449-.65l.951-1.903c.674-1.349 1.729-2.454 3.009-3.234-1.1 1.888-1.787 3.37-1.812 5.721C9.003 23.497 8 24.497 8 26c0 3 1 4 1 4s-2.254 0-2.854 1.302c-.151.326.101.698.46.698h4.98c.265 0 .52-.105.707-.293l.414-.414a1 1 0 00.293-.707v-1.348c.883.505 1.906.762 3 .762V8z"/><path fill="#D4C9EF" d="M19 23.042a1 1 0 00-1 1v5.644a6.484 6.484 0 002-1.109v-4.536a1 1 0 00-1-.999z"/><path fill="#E3DBF4" d="M14 24.042a1 1 0 00-2 0v4.536a6.497 6.497 0 001.998 1.11l.002-.146v-5.5z"/><path fill="#F1EDFA" d="M5.649 21.985c-.268.302-1.436.984-1.63.662-.166-.276.788-1.508 1.082-1.518.545-.019.706.679.548.856zm.263.141c-.251.155-.471 1.698-.19 1.855.328.184 1.005-.987 1.089-1.382.049-.232-.435-.759-.899-.473zm1.068-1.207c-.238.174-.283.974.009 1.108.342.158.746-.461.798-.861.031-.234-.367-.568-.807-.247zM6.615 32H5c0-.517.804-.875 1.098-.875.545 0 .556.641.517.875zm1.516 0c.043-.474-.194-.733-.56-.754-.495-.029-.755.431-.755.754h1.315z"/><path fill="#E3DBF4" d="M27.034 21.129c.294.01 1.248 1.243 1.082 1.518-.194.322-1.362-.36-1.63-.662-.157-.177.004-.875.548-.856zm-1.709 1.47c.084.395.761 1.566 1.089 1.382.281-.157.061-1.7-.19-1.855-.464-.286-.949.241-.899.473zm-.977-1.432c.053.4.457 1.019.798.861.292-.135.247-.935.009-1.108-.439-.322-.837.012-.807.247zm1.554 9.958c.294 0 1.098.358 1.098.875h-1.615c-.039-.234-.028-.875.517-.875zm-.718.875c0-.323-.259-.783-.754-.754-.366.022-.603.28-.56.754h1.314z"/><path fill="#F1EDFA" d="M14 24.042v5.5l-.002.144c.627.207 1.31.318 2.002.318v-7.962a2 2 0 00-2 2z"/><path fill="#E3DBF4" d="M18 29.542v-5.5a2 2 0 00-2-2v7.962c.692 0 1.391-.112 2-.319.003-.048 0-.095 0-.143z"/><path fill="#84ED82" d="M18.774 4.716L25.023.052c.233-.174.526.121.348.35l-3.8 4.895 6.122-1.42c.276-.064.429.306.188.453l-5.432 3.312 5.257 3.909c.229.17.038.527-.232.433L19.73 9.298l-.956-4.582z"/><path fill="#8FF888" d="M13.226 4.716L6.978.052c-.233-.173-.526.121-.348.35l3.8 4.895-6.122-1.42c-.276-.063-.429.307-.188.454l5.432 3.312-5.257 3.909c-.229.17-.038.527.232.433l7.744-2.686.955-4.583z"/><path fill="#F57552" d="M16 7.589a1.5 1.5 0 00-1.5 1.5V15.5c0 .499.545.941.978 1.214.16.1.341.151.522.151V7.589z"/><path fill="#EB6B48" d="M17.5 15.5V9.089a1.5 1.5 0 00-1.5-1.5v9.276c.181 0 .363-.05.522-.151.433-.272.978-.715.978-1.214z"/><path fill="#8FF888" d="M16 10.999V2s-2.739.063-3.612.75c-.86.677-1.37 3.176-1.385 6.118-.001.045-.003.087-.003.132 0 .113.02.232.049.352.87.577 1.851 1.01 2.959 1.084.624.042 1.287.559 1.992.563z"/><path fill="#84ED82" d="M20.997 8.876c-.014-2.945-.524-5.448-1.385-6.126C18.739 2.063 16 2 16 2v9c.707 0 1.373-.522 2-.565 1.105-.076 2.085-.515 2.956-1.099.027-.115.044-.228.044-.336 0-.042-.003-.082-.003-.124z"/><path fill="#E3DBF4" d="M16 11v2c1.862 0 4.589-2.108 4.956-3.664-.871.584-1.851 1.023-2.956 1.099-.627.043-1.293.565-2 .565z"/><path fill="#F1EDFA" d="M16 10.999c-.705-.004-1.368-.52-1.991-.562-1.109-.074-2.089-.507-2.959-1.084.381 1.551 3.08 3.636 4.936 3.647H16v-2.001z"/><path fill="#F57552" d="M19.754 2.231s-.814-.407-1.387.084L16.898 8c-.109.423.317.61.554.243l3.182-4.936c-.044-.761-.88-1.076-.88-1.076z"/><path fill="#F7F7F7" d="M18.598 6.464s.937.356.77 1.546a.246.246 0 01-.227.214l-1.751.106 1.208-1.866z"/><path fill="#2B3332" d="M17.79 7.708c.091.234.232.398.392.398.276 0 .5-.448.5-1 0-.23-.045-.432-.111-.601l-.781 1.203z"/><path fill="#FF805D" d="M12.245 2.231s.814-.407 1.387.084L15.102 8c.109.423-.317.61-.554.243l-3.182-4.936c.044-.761.879-1.076.879-1.076z"/><path fill="#FFF" d="M13.401 6.464s-.937.356-.77 1.546c.016.116.11.207.227.214l1.752.106-1.209-1.866z"/><path fill="#373F3F" d="M14.206 7.706c-.091.234-.228.4-.389.4-.276 0-.5-.448-.5-1 0-.23.045-.432.111-.601l.778 1.201z"/></svg>