<svg xmlns="http://www.w3.org/2000/svg" width="100%" height="100%" viewBox="-2.72 -2.72 37.44 37.44"><path fill="#495587" d="M8.881 14.762c-5.94 0-7.627 9.509-3.499 14.752.09.114.267.015.216-.121-1.76-4.739-2.028-12.456 3.283-12.456v-2.175z"/><path fill="#424B7E" d="M23.119 14.762c5.94 0 7.627 9.509 3.499 14.752-.09.114-.267.015-.216-.121 1.76-4.739 2.028-12.456-3.283-12.456v-2.175z"/><path fill="#515E91" d="M9.125 17.625c-5.277.53-8.63 8.289-9.045 14.24-.01.146.196.189.244.05.982-2.885 3.801-11.54 9.775-12.374l-.974-1.916z"/><path fill="#5B689D" d="M16 8.631c-4.103 0-8 2.952-8 7.429 0 3.333 3.897 5.143 8 5.143V8.631z"/><path fill="#515E91" d="M16 19.417c-1.771 0-3.646-.34-5.042-1.25-1.396-.91-2.313-2.39-2.668-4.154A7.217 7.217 0 008 16.06c0 3.333 3.897 5.143 8 5.143v-1.786z"/><path fill="#FFE28A" d="M14.224 8.822c-1.897.399-3.624 1.421-4.775 2.92C11.167 13 13.083 13.583 16 13.583V.042c-.621 0-1.64 7.015-1.776 8.78z"/><path fill="#FFEAA7" d="M16 8.631c-1.667.286-3.375 2.869-3.512 4.562 1.007.264 2.151.391 3.512.391V8.631z"/><path fill="#495587" d="M22.875 17.625c5.277.53 8.63 8.289 9.045 14.24.01.146-.196.189-.244.05-.982-2.885-3.801-11.54-9.775-12.374l.974-1.916z"/><path fill="#515E91" d="M16 8.631c4.103 0 8 2.952 8 7.429 0 3.333-3.897 5.143-8 5.143V8.631z"/><path fill="#495587" d="M16 19.417c1.771 0 3.646-.34 5.042-1.25 1.396-.91 2.313-2.39 2.668-4.154.188.638.29 1.322.29 2.047 0 3.333-3.897 5.143-8 5.143v-1.786z"/><path fill="#FFE28A" d="M17.776 8.822C17.64 7.057 16.621.042 16 .042v13.542c2.917 0 4.833-.583 6.551-1.841-1.151-1.5-2.878-2.522-4.775-2.921z"/><path fill="#FFE28A" d="M16 8.631c1.667.286 3.375 2.869 3.512 4.562-1.007.264-2.151.391-3.512.391V8.631z"/><circle cx="12.5" cy="15" r="1" fill="#373F3F"/><circle cx="19.5" cy="15" r="1" fill="#2B3332"/><circle cx="12.5" cy="14.5" r=".5" fill="#FFF"/><circle cx="19.5" cy="14.5" r=".5" fill="#F7F7F7"/><path fill="#F9ADC8" d="M12.5 16.5a1.49 1.49 0 01-1.111-.5A1.49 1.49 0 0011 17a1.5 1.5 0 003 0c0-.386-.15-.734-.389-1a1.49 1.49 0 01-1.111.5z"/><path fill="#F8A1C4" d="M19.5 16.5a1.49 1.49 0 01-1.111-.5A1.49 1.49 0 0018 17a1.5 1.5 0 003 0c0-.386-.15-.734-.389-1a1.49 1.49 0 01-1.111.5z"/></svg>