<svg xmlns="http://www.w3.org/2000/svg" width="100%" height="100%" viewBox="-2.72 -2.72 37.44 37.44"><path fill="#A366AD" d="M15.52 7.008L7.464 4.122a.975.975 0 00-1.049.061c-.318.222-.524.62-.448 1.079l2.348 7.23c.057.351-.054.708-.297.957l-5.709 5.829a1.097 1.097 0 00-.269 1.065c.104.385.401.711.84.778l7.889 1.201c.336.051.627.272.777.591l3.528 6.488c.189.402.557.603.925.603V7.132a1 1 0 01-.479-.124z"/><path fill="#945BA0" d="M29.691 19.277l-5.709-5.829a1.115 1.115 0 01-.297-.957l2.348-7.23a1.086 1.086 0 00-.392-1.038.98.98 0 00-1.105-.101L16.48 7.008a1 1 0 01-.48.124v22.871c.368 0 .736-.201.925-.603l3.528-6.488c.15-.319.441-.54.777-.591l7.889-1.201c.439-.067.737-.393.84-.778a1.094 1.094 0 00-.268-1.065z"/><path fill="#C27BC6" d="M16 1c-.394 0-.788.215-.991.645L11.23 9.666a1.11 1.11 0 01-.832.633L16 17.224V1zM1.047 12.419c-.103.383-.028.819.288 1.141l6.115 6.243c.26.266.379.649.318 1.025l-1.443 8.816c-.076.462.114.867.42 1.112L16 17.224 1.047 12.419z"/><path fill="#B370B9" d="M21.602 10.299a1.112 1.112 0 01-.832-.633l-3.779-8.021A1.088 1.088 0 0016 1v16.224l5.602-6.925zm3.594 20.5a1.16 1.16 0 00.48-1.155l-1.443-8.816a1.192 1.192 0 01.318-1.025l6.115-6.243c.316-.322.391-.759.288-1.141L16 17.224l9.196 13.575z"/><path fill="#A366AD" d="M30.053 11.586l-8.45-1.286L16 17.224l14.953-4.805c-.111-.412-.43-.762-.9-.833z"/><path fill="#B370B9" d="M10.398 10.299l-8.45 1.286c-.47.072-.789.421-.9.833L16 17.224l-5.602-6.925z"/><path fill="#A366AD" d="M16 26.569c.177 0 .353.044.514.133l7.558 4.162c.389.214.808.155 1.123-.065L16 17.224v9.345z"/><path fill="#B370B9" d="M7.928 30.864l7.558-4.162c.161-.089.338-.133.514-.133v-9.345L6.744 30.756c.32.257.769.337 1.184.108z"/><path fill="#FFD96C" d="M15.25 8a.25.25 0 00-.25.25V11h-1.071a.997.997 0 00-.707.293l-.757.757-1.945-1.945a.25.25 0 00-.354 0l-1.061 1.061a.25.25 0 000 .354l1.945 1.945-.757.757a.997.997 0 00-.293.707V16H7.25a.25.25 0 00-.25.25v1.5c0 .138.112.25.25.25H10v1.071c0 .265.105.52.293.707l.757.757-1.944 1.945a.25.25 0 000 .354l1.061 1.061a.25.25 0 00.354 0l1.945-1.945.757.757a.993.993 0 00.706.293H15v2.75c0 .138.112.25.25.25H16V8h-.75z"/><path fill="#FFD04D" d="M24.75 16H22v-1.071a.997.997 0 00-.293-.707l-.757-.757 1.945-1.945a.25.25 0 000-.354l-1.061-1.061a.25.25 0 00-.354 0l-1.945 1.945-.757-.757a.997.997 0 00-.707-.293H17V8.25a.25.25 0 00-.25-.25H16v18h.75a.25.25 0 00.25-.25V23h1.071c.265 0 .52-.105.707-.293l.757-.757 1.945 1.945a.25.25 0 00.354 0l1.061-1.061a.25.25 0 000-.354l-1.945-1.945.757-.757a.997.997 0 00.293-.707V18h2.75a.25.25 0 00.25-.25v-1.5a.25.25 0 00-.25-.25z"/><path fill="#E8803A" d="M14.197 13.146l-2.05 2.05a.502.502 0 00-.147.354v2.9c0 .133.053.26.146.354l2.05 2.05a.505.505 0 00.354.146H16v-8h-1.45a.501.501 0 00-.353.146z"/><path fill="#DD7731" d="M20 18.45v-2.9a.504.504 0 00-.146-.354l-2.05-2.05A.505.505 0 0017.45 13H16v8h1.45c.133 0 .26-.053.354-.146l2.05-2.05A.505.505 0 0020 18.45z"/></svg>