<svg xmlns="http://www.w3.org/2000/svg" width="100%" height="100%" viewBox="-2.72 -2.72 37.44 37.44"><path fill="#3E4679" d="M4.183 20.85C5.144 26.042 10.062 30 16 30v-4c-4.881 0-9.19-2.037-11.817-5.15z"/><path fill="#3A4274" d="M16 26v4c5.938 0 10.856-3.958 11.817-9.15C25.19 23.963 20.881 26 16 26z"/><path fill="#424B7E" d="M16 26V11c-6.627 0-12 1.925-12 8 0 .632.071 1.247.183 1.85C6.81 23.963 11.119 26 16 26z"/><path fill="#3E4679" d="M16 11v15c4.881 0 9.19-2.037 11.817-5.15.112-.603.183-1.218.183-1.85 0-6.075-5.373-8-12-8zm-9.749 2.462c-.081.065-1.315 1.126-1.315 1.126C3.513 15.74.976 18.159.211 20.447c-.374 1.118-.254 2.999.381 3.641 1.293 1.306 3.597 1.153 4.898-.096l.168-1.202a10.553 10.553 0 01-1.084-4.64c0-1.296.987-3.531 1.677-4.688z"/><path fill="#3A4274" d="M22.735 4.129l.121-2.61c.017-.371-.324-.63-.624-.472L19.19 1.7A9.668 9.668 0 0016 1.166V14c4.418 0 8-2.873 8-6.417 0-1.273-.468-2.456-1.265-3.454z"/><path fill="#3E4679" d="M12.81 1.7l-3.042-.653c-.3-.158-.641.1-.624.472l.121 2.61C8.468 5.127 8 6.31 8 7.583 8 11.127 11.582 14 16 14V1.166a9.668 9.668 0 00-3.19.534z"/><path fill="#FDEBBB" d="M15.605 3.952l-1.483-.638a1.014 1.014 0 00-.733-.024C11.103 4.085 9.5 5.874 9.5 7.973c0 2.835 2.91 5.134 6.5 5.134V4.034a.985.985 0 01-.395-.082z"/><path fill="#FAE09F" d="M22.5 7.973c0-2.099-1.603-3.888-3.889-4.682a1.013 1.013 0 00-.733.024l-1.483.638a1 1 0 01-.395.081v9.072c3.59 0 6.5-2.298 6.5-5.133z"/><circle cx="8.5" cy="26.5" r="4.5" fill="#FFF3D9"/><circle cx="9" cy="27" r="2" fill="#8D5B36"/><path fill="#FDEBBB" d="M21.24 9.898c-1.844-.801-3.688-1.047-5.24-.814v10.632a4.371 4.371 0 011.775.381c4.025 1.748 8.063.881 9.02-1.935.957-2.817-1.53-6.517-5.555-8.264z"/><path fill="#FFF3D9" d="M10.76 9.898c-4.025 1.748-6.512 5.448-5.555 8.264s4.995 3.683 9.02 1.935A4.371 4.371 0 0116 19.716V9.084c-1.552-.233-3.396.013-5.24.814z"/><path fill="#F7F7F7" d="M5.821 22.825l-.041-1.897c-.004-.202.292-.33.436-.188l1.352 1.332c.057.056.067.14.028.217l-.109.211c-.232.449-.813.7-1.299.56l-.228-.066c-.084-.024-.137-.089-.139-.169zM4.05 25.46l-1.278-1.403c-.136-.149.003-.44.205-.428l1.894.115a.18.18 0 01.163.145l.057.231c.121.491-.153 1.062-.61 1.276l-.215.101c-.079.036-.163.022-.216-.037zm.25 3.033l-1.854-.406c-.197-.043-.252-.361-.08-.467l1.612-1.001a.18.18 0 01.217.024l.18.155c.382.331.489.955.239 1.394l-.117.207c-.043.074-.119.111-.197.094z"/><path fill="#3A4274" d="M31.789 20.446c-.765-2.288-3.302-4.707-4.725-5.859 0 0-1.234-1.061-1.315-1.126.69 1.157 1.677 3.392 1.677 4.688 0 1.66-.396 3.228-1.084 4.639l.168 1.202c1.301 1.25 3.605 1.402 4.898.096.635-.64.755-2.522.381-3.64z"/><circle cx="23.5" cy="26.5" r="4.5" fill="#FDEBBB"/><circle cx="23" cy="27" r="2" fill="#845331"/><path fill="#EDEEEE" d="M26.179 22.825l.041-1.897c.004-.202-.292-.33-.436-.188l-1.352 1.332c-.057.056-.067.14-.028.217l.109.211c.232.449.813.7 1.299.56l.228-.066c.084-.024.137-.089.139-.169zm1.771 2.635l1.278-1.403c.136-.149-.003-.44-.205-.428l-1.894.115a.18.18 0 00-.163.145l-.057.231c-.121.491.153 1.062.61 1.276l.215.101c.079.036.163.022.216-.037zm-.25 3.033l1.854-.406c.197-.043.252-.361.08-.467l-1.612-1.001a.18.18 0 00-.217.024l-.18.155c-.382.331-.489.955-.239 1.394l.117.207c.043.074.119.111.197.094z"/><path fill="#2B3332" d="M17.922 5.896a.25.25 0 01-.152-.447c.363-.282.992-.449 1.682-.449.648 0 1.235.145 1.61.396a.249.249 0 01.068.347.249.249 0 01-.347.068c-.286-.191-.796-.311-1.331-.311-.574 0-1.102.132-1.376.344a.253.253 0 01-.154.052z"/><path fill="#373F3F" d="M11.078 5.896a.25.25 0 01-.153-.448c.363-.28.992-.448 1.682-.448.648 0 1.235.145 1.61.396a.249.249 0 01.068.347.249.249 0 01-.347.068c-.286-.191-.796-.311-1.331-.311-.575 0-1.102.132-1.376.344a.252.252 0 01-.153.052z"/><path fill="#F7F7F7" d="M18.009 7.419h-1l.276-.553a.25.25 0 01.447 0l.277.553z"/><path fill="#FFF" d="M15 7.419h-1l.276-.553a.25.25 0 01.447 0l.277.553z"/><path fill="#373F3F" d="M13.944 7.207a.25.25 0 00.112.488c.012-.003.831-.183 1.944-.19v-.501a10.409 10.409 0 00-2.056.203z"/><path fill="#2B3332" d="M18.244 7.504a.25.25 0 00-.19-.298A9.435 9.435 0 0016 7.004v.501a8.914 8.914 0 011.946.19.249.249 0 00.298-.191z"/></svg>