<svg xmlns="http://www.w3.org/2000/svg" width="100%" height="100%" viewBox="-2.72 -2.72 37.44 37.44"><path fill="#DADDDC" d="M24.408 3.601a1.01 1.01 0 00-1.446.322L20.25 8.438l2.506 3.671 6.232-3.617a14.864 14.864 0 00-4.58-4.891z"/><path fill="#373F3F" d="M24.387 29H28a1 1 0 00.949-1.316l-.51-1.53a1 1 0 01-.051-.316V23.82a1 1 0 00-.804-.981l-3-.6a1 1 0 00-1.196.981V28a.998.998 0 00.999 1z"/><path fill="#434C4B" d="M7.613 29H4.001a1 1 0 01-.949-1.316l.51-1.53a1 1 0 00.051-.316V23.82a1 1 0 01.804-.981l3-.6a1 1 0 011.196.981V28a1 1 0 01-1 1z"/><path fill="#E3E5E5" d="M29.501 8.211c-.554-.967-1.113-1.508-1.469-1.784a.494.494 0 00-.667.069l-3.7 4.104a.5.5 0 00-.062.584l.355.618a.5.5 0 00.535.241l5.411-1.121a.493.493 0 00.396-.541c-.06-.448-.245-1.203-.799-2.17z"/><path fill="#EDEEEE" d="M9.472 2.506a1.01 1.01 0 00-.447 1.412l2.705 4.457L16 8V1c-2.343 0-4.554.546-6.528 1.506z"/><path fill="#ABB2B1" d="M16 24l-4.208-.5-2.767 4.582a1.01 1.01 0 00.447 1.412A14.878 14.878 0 0016 31v-7z"/><path fill="#E3E5E5" d="M20.271 8.396l2.705-4.478a1.01 1.01 0 00-.447-1.412A14.886 14.886 0 0016 1v7l4.271.396z"/><path fill="#9DA5A4" d="M22.975 28.082L20 23.188 16 24v7c2.343 0 4.554-.546 6.528-1.506a1.01 1.01 0 00.447-1.412z"/><path fill="#F7F7F7" d="M13.721.791a.494.494 0 00-.272.613l1.719 5.251a.5.5 0 00.476.345H16V.404c-1.115 0-1.862.216-2.279.387z"/><path fill="#EDEEEE" d="M16.832 6.656l1.719-5.251a.494.494 0 00-.272-.613C17.862.62 17.115.404 16 .404V7h.356a.501.501 0 00.476-.344z"/><path fill="#D1D4D4" d="M24.104 15.999l5.862.001c.589 0 1.04-.506.998-1.093a14.876 14.876 0 00-1.976-6.416l-6.232 3.617 1.348 3.891z"/><path fill="#EDEEEE" d="M28.025 6.415a.495.495 0 00-.667.072l-3.679 4.123a.5.5 0 00-.059.584l.179.308 5.704-3.311c-.559-.963-1.121-1.501-1.478-1.776z"/><path fill="#E3E5E5" d="M24.514 12.049l5.405-1.149a.493.493 0 00.393-.543c-.061-.447-.25-1.201-.809-2.165l-5.704 3.311.179.308a.5.5 0 00.536.238zM7.592 3.601a1.01 1.01 0 011.446.322l2.733 4.494-2.527 3.692-6.232-3.618a14.87 14.87 0 014.58-4.89z"/><path fill="#DADDDC" d="M8.062 15.999L2.034 16c-.589 0-1.04-.506-.998-1.093a14.876 14.876 0 011.976-6.416l6.232 3.617-1.182 3.891z"/><path fill="#F7F7F7" d="M3.975 6.415a.495.495 0 01.667.072l3.679 4.123a.5.5 0 01.059.584l-.179.308-5.704-3.31c.559-.964 1.121-1.502 1.478-1.777z"/><path fill="#EDEEEE" d="M7.486 12.049L2.081 10.9a.493.493 0 01-.393-.543c.061-.447.25-1.201.809-2.165l5.704 3.311-.179.308a.5.5 0 01-.536.238z"/><path fill="#ABB2B1" d="M24.408 28.399a1.01 1.01 0 01-1.446-.322l-2.879-4.764 2.673-3.421 6.232 3.617a14.87 14.87 0 01-4.58 4.89z"/><path fill="#C8CCCB" d="M24.479 16.001L29.966 16c.589 0 1.04.506.998 1.093a14.876 14.876 0 01-1.976 6.416l-6.232-3.617 1.723-3.891zM7.592 28.399a1.01 1.01 0 001.446-.322l2.712-4.514-2.506-3.671-6.232 3.617a14.87 14.87 0 004.58 4.89z"/><path fill="#D1D4D4" d="M7.729 16.001L2.034 16c-.589 0-1.04.506-.998 1.093a14.876 14.876 0 001.976 6.416l6.232-3.617-1.515-3.891z"/><path fill="#434C4B" d="M22.837 26.361c.17.511.272 1.076.272 1.679 0 1.687-.743 3.117-1.785 3.688A.987.987 0 0022 32h3.613a1 1 0 00.949-1.316l-.51-1.53-.051-.316v-1.086c0-.341-.176-.657-.459-.847a3.54 3.54 0 00-1.988-.627 3.396 3.396 0 00-.717.083z"/><path fill="#D1473D" d="M23.109 28.04c0-.603-.103-1.168-.272-1.679-.514.108-.99.332-1.414.645a1.025 1.025 0 00-.423.822V31c0 .29.127.545.324.728 1.042-.571 1.785-2.001 1.785-3.688z"/><path fill="#505957" d="M9.171 26.361a5.313 5.313 0 00-.272 1.679c0 1.687.743 3.117 1.785 3.688a.991.991 0 01-.676.272H6.395a1 1 0 01-.949-1.316l.51-1.53.051-.316v-1.086c0-.341.176-.657.459-.847a3.54 3.54 0 011.988-.627c.247-.001.484.034.717.083z"/><path fill="#D64F45" d="M8.899 28.04c0-.603.103-1.168.272-1.679.514.108.99.332 1.414.645.262.193.422.496.422.822V31c0 .29-.127.545-.324.728-1.041-.571-1.784-2.001-1.784-3.688z"/><path fill="#373F3F" d="M24.724 15.509L20.787 8.51a1 1 0 00-.872-.51H16v16h3.896a1 1 0 00.871-.508l3.956-7.001c.172-.305.172-.677.001-.982z"/><path fill="#FFE28A" d="M24.724 15.509l-1.129-2.007-5.078 3.952a.505.505 0 00.034.821 4.57 4.57 0 003.073.683 4.368 4.368 0 002.303-1.058l.796-1.409c.172-.305.172-.677.001-.982z"/><path fill="#2B3332" d="M22.407 14.427c.193.234.498.678.498 1.271 0 .717-.292 1.502-.898 1.502-.606 0-1.098-.581-1.098-1.298 0-.116.05-.267.075-.374l1.423-1.101z"/><path fill="#434C4B" d="M7.276 15.509l3.937-6.999a1 1 0 01.872-.51H16v16h-3.896a1 1 0 01-.871-.508l-3.956-7.001a1.001 1.001 0 01-.001-.982z"/><path fill="#FFEAA7" d="M7.276 15.509l1.129-2.007 5.078 3.952a.505.505 0 01-.034.821 4.57 4.57 0 01-3.073.683A4.38 4.38 0 018.073 17.9l-.796-1.409a1.001 1.001 0 01-.001-.982z"/><path fill="#373F3F" d="M9.593 14.427c-.193.234-.498.678-.498 1.271 0 .717.292 1.502.898 1.502.606 0 1.098-.581 1.098-1.298 0-.116-.05-.267-.075-.374l-1.423-1.101z"/></svg>