<svg xmlns="http://www.w3.org/2000/svg" width="100%" height="100%" viewBox="-2.72 -2.72 37.44 37.44"><path fill="#D2E6F3" d="M8 20c0 .407.035.794.087 1.17A7.989 7.989 0 012 24a2 2 0 100 4h.001a9.326 9.326 0 007.392-3.661C10.744 26.041 13.019 27 16 27V13c-4.971 0-8 2.651-8 7z"/><path fill="#C1DDEE" d="M30 24a7.989 7.989 0 01-6.087-2.83A8.48 8.48 0 0024 20c0-4.349-3.029-7-8-7v14c2.981 0 5.256-.959 6.606-2.661A9.328 9.328 0 0029.999 28H30a2 2 0 100-4z"/><path fill="#B0D3EA" d="M20.855 5.962c.724-1.99 3.196-2.585 4.763-1.233.258-.121.543-.194.847-.194a2 2 0 012 2c0 .304-.073.589-.194.847 1.352 1.568.757 4.04-1.233 4.763l-6.573 2.39-2-2 2.39-6.573z"/><path fill="#C1DDEE" d="M11.145 5.962c-.724-1.99-3.196-2.585-4.763-1.233a1.987 1.987 0 00-.847-.194 2 2 0 00-2 2c0 .304.073.589.194.847-1.352 1.568-.757 4.04 1.233 4.763l6.573 2.39 2-2-2.39-6.573z"/><path fill="#E2EFF7" d="M15.553 3.894L13.855 7.29C11.365 7.974 10 9.93 10 13c0 3.866 2.134 6 6 6V3.618a.493.493 0 00-.447.276z"/><path fill="#D2E6F3" d="M18.145 7.29l-1.698-3.396A.494.494 0 0016 3.618V19c3.866 0 6-2.134 6-6 0-3.07-1.365-5.026-3.855-5.71z"/><ellipse cx="13" cy="11.5" fill="#5BD3D5" rx="1" ry="1.5"/><path fill="#373F3F" d="M14 11.5c0 .828-.448 1-1 1s-1-.172-1-1 .448-1.5 1-1.5 1 .672 1 1.5z"/><circle cx="13" cy="11" r=".5" fill="#FFF"/><ellipse cx="19" cy="11.5" fill="#56C7CD" rx="1" ry="1.5"/><path fill="#2B3332" d="M20 11.5c0 .828-.448 1-1 1s-1-.172-1-1 .448-1.5 1-1.5 1 .672 1 1.5z"/><circle cx="19" cy="11" r=".5" fill="#F7F7F7"/><path fill="#FFF3D9" d="M16 14.8c-.635-.523-1.519-.8-2.5-.8-1.933 0-3.5 1.067-3.5 3s1.567 3 3.5 3c.981 0 1.865-.277 2.5-.8v-4.4z"/><path fill="#FDEBBB" d="M18.5 20c1.933 0 3.5-1.067 3.5-3s-1.567-3-3.5-3c-.981 0-1.865.277-2.5.8v4.4c.635.523 1.519.8 2.5.8z"/><path fill="#F7F7F7" d="M18 18.602h1.113a1 1 0 00.949-1.316l-.37-1.111a.25.25 0 00-.461-.033L18 18.602z"/><path fill="#F8A1C4" d="M18.5 18.806v-.29c0-.495-.318-.947-.822-1.168h-.001A4.175 4.175 0 0016 17v4c1.381 0 2.5-.982 2.5-2.194z"/><path fill="#373F3F" d="M16 14.001c-.552 0-1-.032-1 .25 0 .414.448.75 1 .75v-1z"/><path fill="#2B3332" d="M17 14.251c0-.282-.448-.25-1-.25v1c.552 0 1-.336 1-.75z"/><path fill="#FFF" d="M14 18.602h-1.113a1 1 0 01-.949-1.316l.37-1.111a.25.25 0 01.461-.033L14 18.602z"/><path fill="#F9ADC8" d="M16 17c-.575 0-1.149.116-1.677.347h-.001c-.504.221-.822.673-.822 1.168v.29C13.5 20.018 14.619 21 16 21v-4z"/><path fill="#C1DDEE" d="M10.411 22.884l-.638.957c-.112.168-.242.32-.364.479C10.757 26.025 13.016 27 16 27v-3c-1.988 0-3.955-.395-5.589-1.116z"/><path fill="#B0D3EA" d="M22.227 23.841l-.638-.957C19.955 23.605 17.988 24 16 24v3c2.984 0 5.243-.975 6.592-2.68-.122-.16-.253-.311-.365-.479z"/></svg>