<svg xmlns="http://www.w3.org/2000/svg" width="100%" height="100%" viewBox="-2.72 -2.72 37.44 37.44"><path fill="#5CA3D5" d="M20.126 25.588l5.988-4.392a.998.998 0 011.269.068c.621.574 1.471 1.659 1.613 3.377.04.479-.266.926-.727 1.058l-6.993 1.997a1.002 1.002 0 01-1.042-.32l-.284-.34a1 1 0 01.176-1.448z"/><path fill="#529CCF" d="M21.116 27.063l7.274-1.497a.996.996 0 011.125.591c.326.783.648 2.13.053 3.758a1.007 1.007 0 01-1.095.643l-7.19-1.099a1 1 0 01-.813-.725l-.117-.427a1 1 0 01.763-1.244z"/><path fill="#71B1E1" d="M16 1.004a5.998 5.998 0 00-5.807 6.545c.099 1.041-.077 2.08-.596 2.987C7.399 14.376 6 19.332 6 22.083c0 2.22.915 4.245 2.42 5.806-.165.79-.432 1.842-.828 2.7A.996.996 0 008.501 32h2.457a1 1 0 001-1v-.765C13.195 30.724 14.56 31 16 31V1.004z"/><path fill="#65A9DC" d="M23.58 27.889c1.505-1.561 2.42-3.586 2.42-5.806 0-2.653-1.3-7.354-3.362-11.128-.524-.96-.676-2.053-.527-3.137a6.18 6.18 0 00-.115-2.265c-.518-2.201-2.324-3.957-4.538-4.419A6.303 6.303 0 0016 1.004V31c1.44 0 2.805-.276 4.042-.765V31a1 1 0 001 1h2.457a.996.996 0 00.908-1.411c-.395-.858-.662-1.91-.827-2.7z"/><path fill="#FCE8CC" d="M13.403 8.636s-1.568.762-2.392 3.076c-.428 1.203-1.157 2.272-2.006 3.226-.039.044-.072.088-.111.133a.968.968 0 00-.332-.067.996.996 0 00-.996.996c0 .292.131.549.332.731-.348 1.359-.554 2.61-.554 3.55 0 .452.052.892.136 1.322-.688.224-1.045 1.237-.796 2.331.258 1.136 1.067 1.921 1.808 1.753.31-.07.554-.303.72-.626C10.797 26.849 13.245 28 16 28V8.875l-2.597-.239z"/><path fill="#F5DEB9" d="M24.889 21.615a.927.927 0 00-.371.001c.085-.434.138-.878.138-1.334 0-1.056-.247-2.494-.678-4.05-.221-.39-.591-.852-.983-1.293-.848-.954-1.577-2.023-2.005-3.225-.824-2.315-2.392-3.076-2.392-3.076L16 8.875V28c.248 0 .492-.015.734-.033 0 .017-.005.032-.005.049a1.807 1.807 0 103.614 0c0-.341-.1-.656-.264-.927a8.44 8.44 0 003.006-2.382c.138.531.442.926.868 1.023.741.168 1.55-.617 1.808-1.753.26-1.137-.132-2.194-.872-2.362z"/><path fill="none" d="M13.801 10.07c.457.495 1.143.93 2.199.93V9c-.947 0-1.764.434-2.199 1.07z"/><ellipse cx="18.75" cy="5.5" fill="#2B3332" rx=".75" ry="1.5"/><ellipse cx="18.75" cy="5.125" fill="#F7F7F7" rx=".375" ry=".625"/><ellipse cx="13.25" cy="5.5" fill="#373F3F" rx=".75" ry="1.5"/><ellipse cx="13.25" cy="5.125" fill="#FFF" rx=".375" ry=".625"/><path fill="#E55D53" d="M13.801 10.07c.457.495 1.143.93 2.199.93V9c-.947 0-1.764.434-2.199 1.07z"/><path fill="#D64F45" d="M16 9v2c1.056 0 1.742-.435 2.199-.93C17.764 9.434 16.947 9 16 9zm-.177-1.266c-.308.323-1.084.871-2.823.896 0 0 .187.775.801 1.44C14.236 9.434 15.053 9 16 9V7.656a.244.244 0 00-.177.078z"/><path fill="#D1473D" d="M18.199 10.07c.613-.664.801-1.44.801-1.44-1.739-.026-2.515-.573-2.823-.896A.242.242 0 0016 7.656V9c.947 0 1.764.434 2.199 1.07z"/><path fill="#F7F7F7" d="M17.137 8.317l.266.615c.042.091.173.09.213-.003l.191-.428a4.317 4.317 0 01-.67-.184z"/><path fill="#FFF" d="M14.863 8.317c-.19.072-.415.133-.67.185l.191.428c.04.093.171.094.213.003l.266-.616z"/><path fill="#DADDDC" d="M18.118 8.724h1.34l9.311 2.209A1 1 0 0030 9.959v-.676a1 1 0 00-1-1H18.118v.441z"/><path fill="#D1D4D4" d="M29.229 11.047c-2.433-.571-9.771-2.323-9.771-2.323h-1.34v.001c0 .243.197.44.44.44h.9c3.036 1.633 7.033 3.508 9.125 4.472A1 1 0 0030 12.728v-.707a1 1 0 00-.771-.974z"/><path fill="#E3E5E5" d="M18.118 7.842h1.34l9.311-2.209A1.001 1.001 0 0130 6.607v.676a1 1 0 01-1 1H18.118v-.441z"/><path fill="#EDEEEE" d="M29.229 5.519c-2.433.571-9.771 2.323-9.771 2.323h-1.34a.44.44 0 01.44-.44h.9c3.036-1.633 7.033-3.508 9.125-4.472A.999.999 0 0130 3.839v.707a1 1 0 01-.771.973z"/><path fill="#E3E5E5" d="M13.882 8.724h-1.34l-9.311 2.209A1 1 0 012 9.959v-.676a1 1 0 011-1h10.882v.441z"/><path fill="#DADDDC" d="M2.771 11.047c2.433-.571 9.771-2.323 9.771-2.323h1.34v.001a.44.44 0 01-.44.44h-.9c-3.036 1.633-7.033 3.508-9.125 4.472A1 1 0 012 12.728v-.707a1 1 0 01.771-.974z"/><path fill="#EDEEEE" d="M13.882 7.842h-1.34L3.231 5.634A1 1 0 002 6.607v.676a1 1 0 001 1h10.882v-.441z"/><path fill="#F7F7F7" d="M2.771 5.519c2.433.571 9.771 2.323 9.771 2.323h1.34a.44.44 0 00-.44-.44h-.9C9.506 5.768 5.509 3.893 3.417 2.93A.999.999 0 002 3.839v.707a1 1 0 00.771.973z"/></svg>