<svg xmlns="http://www.w3.org/2000/svg" width="100%" height="100%" viewBox="-2.72 -2.72 37.44 37.44"><path fill="#EDEEEE" d="M19 22s-.062-9.634 9.453-9.99a.505.505 0 01.518.54C28.797 14.645 27.576 22 19 22z"/><path fill="#DADDDC" d="M28.749 14.062c-6.116.553-7.958 5.13-8.51 7.877 6.083-.552 7.944-5.13 8.51-7.877z"/><path fill="#F7F7F7" d="M13 22s.062-9.634-9.453-9.99a.505.505 0 00-.518.54C3.203 14.645 4.424 22 13 22z"/><path fill="#E3E5E5" d="M3.251 14.062c6.116.553 7.958 5.13 8.51 7.877-6.083-.552-7.944-5.13-8.51-7.877z"/><path fill="#EDEEEE" d="M16 12h-2v3.266a4.959 4.959 0 01-2.066 4.039c-2.108 1.506-3.345 4.151-2.809 7.038.512 2.754 2.718 4.984 5.468 5.52.477.093.946.127 1.407.127V12z"/><path fill="#E3E5E5" d="M16 12h2v3.266c0 1.601.764 3.109 2.066 4.039 2.108 1.506 3.345 4.151 2.809 7.038-.512 2.754-2.718 4.984-5.468 5.52A7.312 7.312 0 0116 31.99V12z"/><path fill="#F7F7F7" d="M16.002 0a.457.457 0 00-.366.181c-.465.605-1.254 1.7-1.668 2.654-.827-.595-2.001-1.123-2.69-1.408a.496.496 0 00-.679.375 38.582 38.582 0 00-.596 6.327c-.034 3.809 2.788 5.867 5.999 5.872V0z"/><path fill="#EDEEEE" d="M16.002 0c.137 0 .274.06.366.181.465.605 1.254 1.7 1.668 2.654.827-.595 2.001-1.123 2.69-1.408a.496.496 0 01.679.375c.195 1.075.571 3.487.596 6.327.034 3.809-2.788 5.867-5.999 5.872V0z"/><ellipse cx="13" cy="8" fill="#8D5B36" rx="1" ry="2"/><ellipse cx="19" cy="8" fill="#845331" rx="1" ry="2"/><path fill="#373F3F" d="M12.03 7.533c.075.637.471 1.134.97 1.134s.895-.496.97-1.134c-.087-.723-.369-1.29-.729-1.468C13.161 6.038 13.085 6 13 6c-.085 0-.161.038-.24.065-.361.179-.643.745-.73 1.468z"/><path fill="#2B3332" d="M18.03 7.533c.075.637.471 1.134.97 1.134s.895-.496.97-1.134c-.087-.723-.369-1.289-.729-1.468C19.161 6.038 19.085 6 19 6c-.085 0-.161.038-.24.065-.361.178-.643.745-.73 1.468z"/><circle cx="13" cy="7.031" r=".5" fill="#FFF"/><circle cx="19" cy="7.031" r=".5" fill="#F7F7F7"/><ellipse cx="10.5" cy="29.49" fill="#F7F7F7" rx="1.771" ry="3.059" transform="rotate(-45.009 10.501 29.492)"/><path fill="#F7F7F7" d="M10.6 20.836a.95.95 0 01.518.372c.249.353.567.986.247 1.619a3.94 3.94 0 01-.121.221c-.305.51-1.013.603-1.458.207C9.074 22.621 8 21.559 8 20.923c0-.767 1.872-.298 2.6-.087z"/><path fill="#EDEEEE" d="M21.4 20.836a.95.95 0 00-.518.372c-.249.353-.567.986-.247 1.619.041.08.081.154.121.221.305.51 1.013.603 1.458.207.712-.634 1.786-1.696 1.786-2.332 0-.767-1.872-.298-2.6-.087z"/><ellipse cx="21.5" cy="29.49" fill="#EDEEEE" rx="3.059" ry="1.771" transform="rotate(-44.992 21.498 29.49)"/><path fill="#529CCF" d="M18.573 26.074l-.843.843a.745.745 0 101.27.526V26.25a.25.25 0 00-.427-.176z"/><path fill="#5CA3D5" d="M13.055 25.379l-.384.878-.659-.659 1.043-.219zm.851-1.19a.553.553 0 00-.106.011l-2.896.61a.5.5 0 00-.251.843l1.829 1.829a.497.497 0 00.811-.153l1.067-2.439a.5.5 0 00-.454-.701z"/><path fill="#E85160" d="M16 21.211l-.086-.018a.5.5 0 00-.567.675L16 23.5v-2.289z"/><path fill="#D84459" d="M19.016 21.845L16 21.211V23.5l.653 1.633a.495.495 0 00.466.314c.154 0 .31-.07.411-.217l1.796-2.612a.501.501 0 00-.31-.773zm-1.781 2.049l-.612-1.53 1.454.306-.842 1.224z"/><path fill="#E85160" d="M16.002 11h-1.495a.25.25 0 00-.191.412c.373.444 1.029 1.088 1.684 1.088h.002V11z"/><path fill="#D84459" d="M17.494 11h-1.492v1.5c.655-.001 1.309-.644 1.683-1.088a.25.25 0 00-.191-.412z"/></svg>