<svg xmlns="http://www.w3.org/2000/svg" width="100%" height="100%" viewBox="-2.72 -2.72 37.44 37.44"><path fill="#E8803A" d="M14.75 32H11s-2-2-2-7h6v6.75a.25.25 0 01-.25.25z"/><path fill="#3A3333" d="M30 19.5h-1v3.013A2.477 2.477 0 0027.5 22c-1.378 0-2.5 1.122-2.5 2.5s1.122 2.5 2.5 2.5c.15 0 .296-.019.439-.044-.871 1.085-2.192 1.794-3.689 1.794A4.756 4.756 0 0119.5 24h-1c0 3.17 2.58 5.75 5.75 5.75 2.659 0 4.896-1.817 5.551-4.273A6.726 6.726 0 0030 24v-4.5zM27.5 26c-.827 0-1.5-.673-1.5-1.5s.673-1.5 1.5-1.5c.742 0 1.355.542 1.475 1.25a4.811 4.811 0 01-.135.912A1.498 1.498 0 0127.5 26z"/><path fill="#DD7731" d="M17.25 32H21s2-2 2-7h-6v6.75c0 .138.112.25.25.25z"/><ellipse cx="16" cy="24" fill="#EF8C48" rx="9" ry="7"/><path fill="#E8803A" d="M25 24c0-3.866-4.029-7-9-7v14c4.971 0 9-3.134 9-7z"/><ellipse cx="16" cy="15" fill="#FCA15E" rx="11" ry="9"/><path fill="#F79654" d="M16 21c-4.099 0-7.776-1.001-10.336-2.749C7.195 21.823 11.238 24 16 24s8.805-2.177 10.336-5.749C23.776 19.999 20.099 21 16 21z"/><path fill="#F79654" d="M27 15c0-5.468-4.925-9-11-9v18c6.075 0 11-3.532 11-9z"/><path fill="#EF8C48" d="M26.336 18.251C23.776 19.999 20.099 21 16 21v3c4.762 0 8.805-2.177 10.336-5.749z"/><circle cx="29.5" cy="19" r="2.5" fill="#D1473D"/><path fill="#4F4949" d="M19.085 6.337c.686-.286 1.383-.694 1.97-1.281C22.471 3.64 22.856 1.587 22.96.589a.497.497 0 00-.549-.549c-.998.105-3.052.49-4.467 1.905-1.245 1.245-1.691 2.98-1.852 4.059-.031 0-.061-.004-.092-.004s-.061.004-.092.004c-.161-1.08-.607-2.814-1.852-4.059C12.64.529 10.587.144 9.589.04a.497.497 0 00-.549.549c.105.998.49 3.052 1.905 4.467.587.587 1.284.995 1.97 1.281-2.269.493-4.238 1.518-5.642 2.988C8.244 13.445 11.777 16 16 16s7.756-2.555 8.727-6.675c-1.404-1.469-3.373-2.495-5.642-2.988z"/><ellipse cx="8.5" cy="14.5" fill="#FFF" rx="2.5" ry="3.5"/><ellipse cx="9" cy="14.5" fill="#373F3F" rx="1.5" ry="2.5"/><ellipse cx="9" cy="14.5" fill="#FFF" rx=".5" ry="1"/><path fill="#413B3B" d="M24.727 9.325c-1.404-1.47-3.373-2.495-5.641-2.988.686-.286 1.383-.694 1.97-1.281 1.416-1.416 1.801-3.469 1.905-4.467a.497.497 0 00-.549-.549c-.998.105-3.052.49-4.467 1.905-1.245 1.245-1.691 2.98-1.852 4.059-.032 0-.062-.004-.093-.004v10c4.223 0 7.756-2.555 8.727-6.675z"/><path fill="#FFD04D" d="M20 13c0 1.657-1.791 3-4 3s-4-1.343-4-3c0-1.367 2.721-3.88 3.675-4.719a.488.488 0 01.651 0C17.279 9.12 20 11.633 20 13z"/><path fill="#F7C845" d="M20 13c0-1.366-2.721-3.88-3.675-4.719A.491.491 0 0016 8.156V16c2.209 0 4-1.343 4-3z"/><ellipse cx="16" cy="16" fill="#DD564C" rx="4" ry="3"/><path fill="#D64F45" d="M20 16c0-1.657-1.791-3-4-3v6c2.209 0 4-1.343 4-3z"/><ellipse cx="14.5" cy="16" fill="#4F4949" rx=".5" ry="1"/><ellipse cx="17.5" cy="16" fill="#413B3B" rx=".5" ry="1"/><path fill="#4F4949" d="M16 29c-3.364 0-6.37-.963-8.388-2.477C8.915 29.141 12.175 31 16 31s7.085-1.859 8.388-4.477C22.37 28.037 19.364 29 16 29z"/><path fill="#413B3B" d="M16 29v2c3.825 0 7.085-1.859 8.388-4.477C22.37 28.037 19.364 29 16 29z"/><path fill="#EF8C48" d="M13 31H9s-2-2-2-7h6v7z"/><path fill="#4F4949" d="M12.75 32H8.604a.25.25 0 01-.177-.427L9 31h4v.75a.25.25 0 01-.25.25z"/><path fill="#E8803A" d="M19 31h4s2-2 2-7h-6v7z"/><path fill="#413B3B" d="M19.25 32h4.146a.25.25 0 00.177-.427L23 31h-4v.75c0 .138.112.25.25.25z"/><ellipse cx="23.5" cy="14.5" fill="#F7F7F7" rx="2.5" ry="3.5"/><ellipse cx="23" cy="14.5" fill="#2B3332" rx="1.5" ry="2.5"/><ellipse cx="23" cy="14.5" fill="#F7F7F7" rx=".5" ry="1"/></svg>