<svg xmlns="http://www.w3.org/2000/svg" width="100%" height="100%" viewBox="-2.72 -2.72 37.44 37.44"><path fill="#edeeee" d="M18.87 4.855l-.923.657-2.363-1.905.382 1.982-.916.624-.614.328.829-.062 1.977 2.298 1.694.09V4.902l-.066-.047z"/><path fill="#e3e5e5" d="M22.777 6.504l.612.088-.567-.379-.896-1.003.34-1.475-2.627 1.675-.703-.508v3.965l1.8.097 2.041-2.46z"/><path fill="#e9edf8" d="M17.564 25.068l-.001.003.001-.003z"/><path fill="#edeeee" d="M17.995 19.164c-.08.151-.115.37-.365.19-.008-.006-.027-.012-.031-.008-.324.287-.501.005-.725-.169a.402.402 0 00-.53.044c-.146.126-.223.052-.365-.03a.988.988 0 01-.507-1.119.336.336 0 00-.051-.26c-.003.225-.013.45-.007.675.005.204-.012.291-.28.242a1.332 1.332 0 00-1.611 1.415c.022.274.01.303-.25.182a1.115 1.115 0 00-1.583.523 4.166 4.166 0 01-.278.701c.16-.137.318-.275.48-.41.046-.037.087-.117.157-.071.019.012-.003.103-.021.153-.155.429-.313.856-.47 1.284a.814.814 0 00.1.721 1.622 1.622 0 01-.063 1.589 1.805 1.805 0 00.624.447 8.636 8.636 0 004.067 1.181c.134.005.268.024.402.037a2.046 2.046 0 01.876-1.413l.015-.396c-.061-.47-.124-.938-.18-1.408-.008-.058-.056-.148.023-.175.073-.025.108.065.145.117.297.425.59.853.888 1.278.064.092.14.175.21.262a1.95 1.95 0 01.27.03v-6.112a1.173 1.173 0 00-.94.5z"/><path fill="#e3e5e5" d="M20.496 25.962a9.61 9.61 0 003.103-1.519c.063-.045.132-.081.198-.122a.378.378 0 00-.04-.226 2.165 2.165 0 01.866-2.62l-.36-2.01c-.008-.05-.045-.106.026-.143a1.447 1.447 0 00-1.578-.545c-.2.058-.261.018-.254-.188.01-.259-.003-.519-.006-.778a2.326 2.326 0 00-.052.835.43.43 0 01-.175.367c-.226.194-.387.375-.723.132-.205-.15-.455.022-.598.238-.087.13-.163.175-.288.048-.037-.038-.116-.087-.145-.072-.39.202-.411-.162-.547-.349a.863.863 0 00-.064-.078 1.133 1.133 0 00-.923-.268v6.112a1.86 1.86 0 011.56 1.186z"/><path fill="#7fb8e0" d="M18.926 18.222c-.268.006-.544-.37-.531-.723.01-.298.365-.886.54-.91v-3.162a13.084 13.084 0 00-1.693-.275 3.408 3.408 0 01-1.25.628 8.48 8.48 0 01-2.075.389 7.567 7.567 0 00.973 1.961 2.987 2.987 0 01.53 1.683.336.336 0 01.052.26.988.988 0 00.507 1.117c.142.083.22.157.364.03a.402.402 0 01.53-.043c.225.174.402.456.726.17.005-.005.023 0 .031.007.25.18.284-.039.365-.19a1.173 1.173 0 01.94-.5v-.445zm-2.75-2.854a1.186 1.186 0 01-.487.223c-.306.005-.38-.087-.257-.307a.713.713 0 01.54-.408.301.301 0 01.342.155c.072.153-.023.265-.138.337z"/><path fill="#71b1e1" d="M19.859 18.932a.863.863 0 01.064.078c.136.187.156.551.547.349.03-.015.108.034.145.072.125.127.201.081.288-.048.143-.216.393-.388.598-.238.336.243.497.062.723-.132a.43.43 0 00.175-.367 2.328 2.328 0 01.051-.835 3.066 3.066 0 01.55-1.712 6.077 6.077 0 00.819-1.588 10.055 10.055 0 01-3.501-.676 10.29 10.29 0 00-1.382-.408v3.163l.013-.009c.147.002.511.622.527.899v.034a.682.682 0 01-.54.705v.445a1.133 1.133 0 01.923.268zm1.708-3.922a.318.318 0 01.322-.136.718.718 0 01.587.493c.086.211-.075.213-.227.228a1.138 1.138 0 01-.62-.284.218.218 0 01-.062-.301z"/><path fill="#6fbbe0" d="M17.43 13.044l.015-.029z"/><path fill="#9fc9e4" d="M18.466 12.366c-.156.108-.318.209-.477.312a.995.995 0 01-.544.337l-.016.03.016-.03-.203.137a12.972 12.972 0 011.694.275v-1.432c-.157.123-.305.257-.47.37z"/><path fill="#8ec0e0" d="M23.819 14.51a.915.915 0 01.474-.08l.46-.124a3.133 3.133 0 001.031-.54 2.312 2.312 0 01-1.18-.212.987.987 0 01-.427-.419 1.12 1.12 0 01-.143-.443c.132.03.165.186.283.228.113.04.28.223.308-.068.042-.428.15-.82.617-.946a1.168 1.168 0 011.237.328.23.23 0 00.058.034c-.327-.93-.703-1.843-.95-2.8a1.645 1.645 0 00-.447-.778 2.472 2.472 0 00-2.071-.68c-.064.061-.165.113-.184.186a3.197 3.197 0 01-.83 1.365 3.994 3.994 0 012.7.469c.118.065.231.139.347.208a.454.454 0 01.228.229c-.137.017-.205-.094-.296-.161-.278-.119-.555-.238-.834-.356a3.305 3.305 0 00-3.493.594c-.604.466-1.17.979-1.771 1.45v1.433a10.286 10.286 0 011.382.408 10.056 10.056 0 003.5.676zm-1.978-3.565a1.108 1.108 0 01.73-.308c.155.008.298-.013.352.131.055.15-.08.22-.171.297a1.461 1.461 0 01-.695.323.266.266 0 01-.31-.148c-.064-.128.013-.215.094-.295z"/><path fill="#9fc9e4" d="M15.37 10.035c-.257.013-.514.044-.77.067-.072.096-.178.057-.272.068-.016.015-.03.04-.048.042-.194.021-.362.148-.563.135a1.345 1.345 0 01.544-.245l.27-.067a6.374 6.374 0 011.628-.209 3.469 3.469 0 01-1.221-1.689 2.147 2.147 0 00-.987-.16 2.248 2.248 0 00-2.116 1.864c-.178.72-.235 1.464-.41 2.186a1.106 1.106 0 00-.004.732c.19-.168.333-.39.605-.461.681-.181 1.129.253 1.076 1.057l.078.008c.067-.041.133-.084.201-.123.085-.048.119-.224.206-.178.118.063.057.226.043.34a1.51 1.51 0 01-.326.764l.613.003a8.465 8.465 0 002.076-.39 3.408 3.408 0 001.25-.627l.202-.137c.102-.17.329-.213.407-.405h.068a9.195 9.195 0 001.016-.91v-1.276a12.17 12.17 0 00-3.566-.39zm.224 2.496a2.193 2.193 0 01-.897.4.332.332 0 01-.29-.176.306.306 0 01.027-.348 1.425 1.425 0 011.063-.317c.105.032.225.065.25.198.02.12-.077.179-.153.243z"/><path fill="#8ec0e0" d="M19.725 10.633c-.262-.079-.526-.144-.79-.21v1.278a11.157 11.157 0 01.856-.798c.156-.125.179-.196-.066-.27z"/><path fill="#edeeee" d="M17.59 28.342a1.842 1.842 0 01-.834-1.22l-.067-.072v.005a10.55 10.55 0 01-4.81-1.418l-.532-.29a.716.716 0 00.035.616 1.704 1.704 0 001.835.717c.166-.073.231-.086.24.13a.935.935 0 00.243.513.958.958 0 001.26.22c.055-.041.086-.058.13.008a.488.488 0 00.639.131c.19-.068.231-.006.275.143a.922.922 0 00.444.649.782.782 0 01.469.551c.07.284.327.389.582.462.28.08.567.138.847.218.148.042.28.126.248.31a.64.64 0 00.29.606c.022.019.033.042.052.063v-2.04a1.877 1.877 0 01-1.345-.302z"/><path fill="#e3e5e5" d="M19.256 31.995c.082.033.126-.102.173-.177.282-.454.016-.815-.198-1.186-.19-.33-.134-.555.201-.715a1.16 1.16 0 00.638-.566.604.604 0 01.457-.32 4.212 4.212 0 001.139-.626.452.452 0 00.222-.291c.084-.357.247-.542.648-.397.18.065.29-.122.432-.187.096-.045.215.21.433.202a1.162 1.162 0 001.154-.948c.023-.103-.003-.21.167-.136a1.55 1.55 0 001.693-.416.753.753 0 00.25-.879l-.096-.013a2.16 2.16 0 01-2.487-.661 11.78 11.78 0 01-3.449 1.892 1.952 1.952 0 01-1.055 1.865 1.984 1.984 0 01-.642.208v2.04a1.502 1.502 0 01.333 1.081c0 .08-.121.187-.013.23z"/><path fill="#505957" d="M26.387 21.224a3.055 3.055 0 00-.608-.065 1.27 1.27 0 01.081.149c.055.14.297.185.219.382a.941.941 0 01-.433.5 1.237 1.237 0 01-.692.106c-.184-.012-.196-.17-.229-.292-.047-.173-.07-.352-.102-.529a2.165 2.165 0 00-.866 2.62.38.38 0 01.04.226c.15.075.197.233.285.358a2.16 2.16 0 002.487.661 3.158 3.158 0 00.91-.726 2.561 2.561 0 00.412-1.432 2.274 2.274 0 00-1.504-1.958z"/><path fill="#5c6664" d="M11.558 22.506a.814.814 0 00.1.722 1.622 1.622 0 01-.063 1.588l-.318.463a1.875 1.875 0 01-2.012.355 1.794 1.794 0 01-.755-2.732 1.92 1.92 0 01.524-.506 2.244 2.244 0 011.695-.185c-.015.079-.085.098-.142.13-.204.114-.393.243-.305.52a.863.863 0 00.823.52c.293-.038.255-.3.298-.49.032-.14.015-.291.155-.385zm-5.431-2.774a1.436 1.436 0 01-1.158-1.088 1.488 1.488 0 01.423-1.54c.102-.102.215-.194.323-.29l.55-.144a1.704 1.704 0 01.852.122.435.435 0 00.292 0c-.049.125-.173.124-.274.168-.192.083-.328.218-.251.444a.664.664 0 00.59.48c.223.018.295-.18.335-.359.026-.119.003-.253.155-.306a.7.7 0 00.006.573 1.563 1.563 0 01-.698 1.796l-.611.213.005.003c-.163-.153-.358-.058-.539-.072z"/><path fill="#687271" d="M6.683 11.597c-.02.064-.067.133-.056.191a1.461 1.461 0 01-.695 1.502l-.567.143a1.405 1.405 0 01-1.476-1.747 1.369 1.369 0 011.365-1.038 2.526 2.526 0 011.003.34.333.333 0 01.008.06c-.191.052-.455-.003-.475.306a.572.572 0 00.367.585c.257.117.298-.146.416-.272a.51.51 0 01.11-.07zm.274-3.859a1.29 1.29 0 011.89-1.71 1.353 1.353 0 01.463.676c.01.02.032.042.029.06-.09.598.335.868.727 1.165.085.063.252.141.206.233-.063.124-.216.013-.33-.001a2.585 2.585 0 01-.33-.06 1.008 1.008 0 00-.974.12.999.999 0 01-1.028.047 1.226 1.226 0 01-.653-.53zm1.61-.08c-.006.156.042.278.22.27a4.11 4.11 0 011.093.13c.037.009.104-.001.116-.025.026-.05-.035-.068-.067-.097a3.23 3.23 0 01-.624-.551c-.098-.15-.207-.335-.42-.24a.54.54 0 00-.318.514z"/><path fill="#675099" d="M18.933 0c-.152-.002-.133.133-.16.218-.262.81-.519 1.62-.777 2.431a.297.297 0 00.174.33 1.545 1.545 0 00.766.216V.002z"/><path fill="#604893" d="M19.702 2.978a.298.298 0 00.174-.329l-.777-2.43c-.028-.088-.024-.212-.163-.217v3.193a1.548 1.548 0 00.766-.217z"/><path fill="#58458c" d="M26.537 12.268a.231.231 0 01-.058-.034 1.168 1.168 0 00-1.237-.328c-.468.126-.575.518-.617.946-.029.291-.195.109-.308.068-.118-.042-.15-.198-.282-.228a1.119 1.119 0 00.142.443.987.987 0 00.426.42 2.312 2.312 0 001.181.21c.203-.138.396-.295.61-.414.443-.245.476-.31.288-.78-.042-.103-.097-.202-.145-.303z"/><path fill="#687271" d="M13.322 4.89l.062.32a1.15 1.15 0 01-.264.567h-.001l-.066.066a1.03 1.03 0 01-1.507-.016c-.105-.154-.256-.282-.28-.484a.971.971 0 01.371-1.05.936.936 0 011.08-.104.856.856 0 00.825.032 1.602 1.602 0 01.258-.077c.052-.01.136-.016.156.012.05.07-.024.118-.069.164q-.282.289-.567.576c-.017-.194.163-.255.252-.377.052-.071.19-.127.151-.204-.051-.101-.154.018-.237.022-.187.01-.353.134-.559.082-.149-.037-.215.071-.228.22a.413.413 0 00.233.417c.194.114.272-.08.39-.166z"/><path fill="#373f3f" d="M18.063 6.412a.303.303 0 00-.283.266c-.076.306-.168.607-.254.91.117.135.24.266.35.407.122.155.204.194.283-.036.084-.243.194-.478.294-.716.033-.08.052-.163.162-.192a1.026 1.026 0 01.32-.036v-.68a4.967 4.967 0 00-.872.077z"/><path fill="#2b3332" d="M19.525 7.491c.291.71.291.71.794.117a.148.148 0 01.027-.02c-.086-.303-.178-.604-.254-.91a.303.303 0 00-.283-.266 4.942 4.942 0 00-.873-.077v.68a.66.66 0 01.589.476z"/><path fill="#604893" d="M11.277 25.279l.318-.464a1.801 1.801 0 00.624.448 8.639 8.639 0 004.067 1.181c.135.005.268.024.402.037v.574a10.55 10.55 0 01-4.81-1.418l-.531-.291z"/><path fill="#534184" d="M24.293 14.43a6.436 6.436 0 01.421 5.13 1.341 1.341 0 01-.087.176l.262.327a6.964 6.964 0 00.62-2.508 6.445 6.445 0 00-.757-3.25l-.459.125z"/><path fill="#373f3f" d="M25.86 21.308a1.27 1.27 0 00-.08-.149 7.654 7.654 0 01-.769-.95l-.122-.146-.262-.327-.338-.414c-.071.037-.034.093-.025.144l.359 2.01c.033.176.055.355.102.528.033.122.045.28.23.292a1.237 1.237 0 00.69-.107.941.941 0 00.434-.499c.078-.197-.164-.242-.219-.382z"/><path fill="#604893" d="M6.66 19.801l.611-.213a14.237 14.237 0 001.514 2.538 3.345 3.345 0 00.25.27 1.92 1.92 0 00-.525.506c-.008-.148-.12-.236-.2-.34a12.317 12.317 0 01-1.65-2.76z"/><path fill="#675099" d="M6.957 7.738a1.226 1.226 0 00.653.53c-.162.014-.214.15-.286.261a8.733 8.733 0 00-1.001 2.32l-.066.14a2.525 2.525 0 00-1.003-.34c.369.068.472-.13.556-.457a6.606 6.606 0 011.002-2.157.593.593 0 00.145-.297z"/><path fill="#604893" d="M5.365 13.433l.567-.143a12 12 0 00.26 3.122c.019.087.048.172.073.258l-.55.143a12.993 12.993 0 01-.335-2.806c-.006-.191-.01-.383-.015-.574z"/><path fill="#434c4b" d="M11.558 22.506c-.14.094-.123.244-.155.385-.043.19-.005.452-.298.49a.863.863 0 01-.823-.52c-.088-.277.1-.406.305-.52.057-.032.127-.051.142-.13l.683-.66c.16-.138.318-.276.48-.41.046-.038.087-.118.157-.072.019.012-.003.104-.021.153-.155.429-.313.856-.47 1.284zM7.964 17.22c-.152.052-.129.186-.155.305-.04.18-.112.377-.334.359a.664.664 0 01-.591-.48c-.077-.226.06-.36.251-.444.1-.044.225-.043.274-.168.34-.234.678-.47 1.018-.7.04-.028.09-.095.137-.043.02.02-.01.103-.035.148-.186.342-.376.682-.565 1.022z"/><path fill="#e5c79a" d="M19.893 4.365a1.487 1.487 0 00-.349 1.254c.28-.015.584.105.828-.123.187-.173.36-.36.54-.541-.034-.13-.06-.263-.104-.39-.197-.587-.481-.645-.915-.2zm.21.998l-.081.046-.132.001a.172.172 0 01-.151-.105c-.077-.099-.098-.195.01-.286a.064.064 0 01.07-.068c.092-.113.19-.085.29-.01l.059.069a.226.226 0 01-.066.353z"/><path fill="#eacea1" d="M18.33 4.959l-.002.66c-.638.152-1.016-.229-1.368-.664a4.945 4.945 0 01.175-.575c.153-.35.306-.393.626-.187a3.387 3.387 0 01.355.303.479.479 0 00.143.259zm-.208.06a.064.064 0 00-.069-.068c-.093-.113-.19-.085-.29-.01l-.059.069a.225.225 0 00.065.353l.081.045.132.002a.171.171 0 00.151-.105c.077-.099.098-.195-.011-.286z"/><path fill="#675099" d="M11.267 5.343c.023.202.174.33.279.484a5.29 5.29 0 00-2.07.648.255.255 0 00-.166.23 1.353 1.353 0 00-.462-.677.362.362 0 00.316.009 8.506 8.506 0 012.103-.694zm1.853.434a1.15 1.15 0 00.264-.567 10.412 10.412 0 011.959.2.82.82 0 01-.263.626 6.318 6.318 0 00-1.96-.26z"/><path fill="#e9edf7" d="M25.011 20.21a7.654 7.654 0 00.768.95 3.055 3.055 0 01.608.064 1.778 1.778 0 00-.026-.264 1.101 1.101 0 00-1.35-.75z"/><path fill="#e8ecf7" d="M27.478 24.614a.403.403 0 00.004.064c.393-.041.64-.246.668-.567a1.104 1.104 0 00-.26-.93 2.561 2.561 0 01-.412 1.433z"/><path fill="#e5e8f3" d="M26.57 25.34l.096.013c.55-.02.701-.145.816-.675a.403.403 0 01-.004-.064 3.16 3.16 0 01-.909.726z"/><path fill="#68609b" d="M6.127 19.732c.181.014.376-.08.539.072-.179-.032-.37.033-.539-.072z"/><path fill="#68619b" d="M13.053 5.843l.066-.066z"/><path fill="#5c6664" d="M18.665 24.746c.015.03.03.06.047.089.124.204.324.39.065.645a1.01 1.01 0 01-.96.248.27.27 0 01-.167-.27 1.055 1.055 0 00-.086-.39 2.044 2.044 0 00-.876 1.413v.574-.005l.068.072a1.842 1.842 0 00.835 1.22 1.877 1.877 0 001.345.302v-3.868a1.95 1.95 0 00-.271-.03z"/><path fill="#505957" d="M20.633 26.57a2.438 2.438 0 00-.137-.608 1.86 1.86 0 00-1.56-1.186v3.868a1.984 1.984 0 00.642-.208 1.952 1.952 0 001.055-1.865z"/><path fill="#58458c" d="M23.797 24.321c-.066.04-.135.077-.198.122a9.61 9.61 0 01-3.103 1.52 2.438 2.438 0 01.137.608 11.782 11.782 0 003.449-1.892c-.088-.125-.135-.283-.285-.358z"/><path fill="#434c4b" d="M18.712 24.835c-.017-.029-.032-.06-.047-.089-.07-.087-.146-.17-.21-.262-.297-.425-.59-.853-.888-1.278-.037-.052-.072-.142-.145-.117-.08.027-.03.117-.024.175.057.47.12.939.18 1.408l-.015.4.001-.002a1.045 1.045 0 01.086.388.27.27 0 00.166.27 1.01 1.01 0 00.96-.248c.26-.255.06-.44-.064-.645z"/><path fill="#604893" d="M18.395 17.5c-.013.353.263.728.53.722l.01-.003v-1.63c-.175.024-.53.612-.54.91z"/><path fill="#58458c" d="M19.477 17.514v-.034c-.017-.277-.38-.897-.528-.899l-.013.009v1.629a.683.683 0 00.54-.705zm2.412-2.64a.318.318 0 00-.322.136.218.218 0 00.061.3 1.138 1.138 0 00.621.285c.152-.015.313-.017.227-.229a.718.718 0 00-.587-.492z"/><path fill="#604893" d="M15.69 15.59c-.307.006-.382-.085-.258-.306a.713.713 0 01.54-.408.301.301 0 01.342.155c.072.154-.023.265-.138.338a1.183 1.183 0 01-.486.221z"/><path fill="#58458c" d="M21.841 10.945c-.081.08-.158.167-.094.295a.266.266 0 00.31.148 1.461 1.461 0 00.695-.323c.09-.076.226-.146.17-.297-.053-.144-.196-.123-.351-.131a1.108 1.108 0 00-.73.308z"/><path fill="#5da5cf" d="M17.445 13.015l-.016.03z"/><path fill="#604893" d="M14.697 12.93a.331.331 0 01-.29-.175.306.306 0 01.027-.348 1.424 1.424 0 011.063-.317c.105.032.225.065.25.198.02.12-.077.179-.153.243a2.191 2.191 0 01-.897.4z"/><path fill="#3980a8" d="M17.92 12.61h-.068c-.079.192-.305.235-.407.405a.996.996 0 00.544-.337c.16-.104.32-.204.477-.312.165-.114.313-.248.47-.371V11.7a9.186 9.186 0 01-1.016.909z"/><path fill="#377aa0" d="M25.102 10.238c-.116-.07-.229-.143-.347-.208a3.995 3.995 0 00-2.7-.469c-.19.12-.355.297-.61.27-.051.076-.13.066-.205.066-.287.215-.633.332-.904.574-.086.077-.212.03-.324.002-.335-.085-.672-.16-1.009-.24h-.067v.19c.263.066.527.131.79.21.244.074.22.145.065.27a11.222 11.222 0 00-.855.798v.294c.6-.472 1.167-.985 1.77-1.451A3.306 3.306 0 0124.2 9.95c.279.118.556.237.834.356.091.067.159.178.296.16a.454.454 0 00-.228-.228z"/><path fill="#3980a8" d="M18.87 10.232l-.073-.06c-.12-.016-.243-.025-.362-.049-.751-.155-1.515-.214-2.276-.297a6.37 6.37 0 00-1.628.21l.068.066c.257-.023.514-.054.771-.067a12.174 12.174 0 013.566.389v-.192z"/><path fill="#3980a8" d="M14.26 10.102a1.346 1.346 0 00-.543.245c.201.013.37-.114.563-.135.018-.002.032-.027.048-.042.094-.01.2.028.271-.068l-.068-.067-.27.067z"/><path fill="#604893" d="M13.587 13.062c-.087-.046-.12.13-.206.178a6.68 6.68 0 00-.2.123l-.079-.008c.053-.804-.395-1.238-1.076-1.058-.273.073-.415.294-.605.462a.624.624 0 00.04.332c.404 1.018.745 1.188 1.843 1.075a1.51 1.51 0 00.326-.763c.014-.115.075-.278-.043-.341z"/><path fill="#68609b" d="M16.689 27.05l.067.072z"/><path fill="#b0d3ea" d="M18.615 7.051c-.11.03-.129.111-.162.192-.1.238-.21.473-.294.716-.08.23-.161.19-.282.036-.111-.14-.234-.272-.351-.407-.066.215-.13.43-.198.645-.022.07-.008.178-.108.186-.026.002-.068-.102-.093-.16-.138-.322-.269-.645-.41-.964-.416-.94-.415-.919-1.452-.816-.333.033-.374.192-.394.447a9.593 9.593 0 00.067 1.211 3.469 3.469 0 001.221 1.69c.761.082 1.525.141 2.276.296.12.025.241.033.362.049l.073.06h.066V7.015a1.026 1.026 0 00-.321.036z"/><path fill="#9fc9e4" d="M22.964 7.752a3.466 3.466 0 00.03-.873c-.005-.231-.063-.39-.366-.398a12.238 12.238 0 01-.806-.04.353.353 0 00-.426.268c-.161.442-.357.872-.543 1.305-.06.141-.136.276-.205.413-.136-.11-.12-.278-.167-.423l-.135-.416a.147.147 0 00-.027.02c-.503.594-.503.594-.794-.117a.66.66 0 00-.59-.476v3.217h.068c.337.08.674.156 1.01.241.111.029.237.075.323-.002.27-.242.617-.36.903-.574.076 0 .155.01.206-.065.255.026.42-.15.61-.271a3.195 3.195 0 00.83-1.365c.019-.073.12-.124.184-.186-.178-.028-.13-.151-.105-.258z"/><path fill="#6fbbe0" d="M18.87 10.232l-.073-.06z"/><path fill="#81c9ec" d="M15.703 3.854c.079-.037.089.034.118.076-.03-.042-.04-.113-.118-.076z"/><path fill="#b0d3ea" d="M18.17 2.978a.297.297 0 01-.174-.329 2.593 2.593 0 00-1.33.811c-.157.164-.255.216-.46.045a5.561 5.561 0 00-1.086-.732c-.093-.047-.19-.157-.302-.064a.318.318 0 00-.072.315 6.031 6.031 0 00.59 1.984c.075.136.128.266.007.402a.821.821 0 01-.263.626l-.006.134-.024.043c.045.029.07 0 .093-.034.303-.12.6-.258.91-.353.254-.078.299-.186.203-.431-.188-.48-.342-.974-.51-1.462l.075-.004c-.03-.04-.04-.112-.118-.075.079-.037.089.034.118.075.39.331.72.727 1.139 1.026a4.966 4.966 0 01.175-.575c.153-.35.306-.393.626-.187a3.378 3.378 0 01.355.303.478.478 0 00.143.259l-.001-.143a.16.16 0 01-.01-.055l-.048-.082-.02-.114a.161.161 0 00-.055-.024l-.006-.133-.139-.13c-.012-.015-.037-.037-.033-.045.023-.05.067-.034.108-.027.182.028.183.181.215.313l.05.095.062.203a.103.103 0 01.019.058l.058.145a.118.118 0 01.011.054l.042.083c-.02.062.168.173-.046.189a.107.107 0 01-.073-.123.101.101 0 01-.012-.051.171.171 0 00-.052-.01l-.001.66c.251.05.328-.155.432-.307.062-.091.119-.137.176-.137v-1.98a1.545 1.545 0 01-.766-.216z"/><path fill="#9fc9e4" d="M19.112 5.31c.104.153.18.358.432.309a1.487 1.487 0 01.35-1.254c.433-.445.717-.387.914.2.043.127.07.26.104.39.419-.299.75-.695 1.139-1.025l.075.003c-.168.488-.323.981-.51 1.462-.096.245-.051.353.203.43.31.096.607.235.91.354.023.034.048.063.093.034l-.024-.043a5.04 5.04 0 00-.216-.566.694.694 0 01.013-.726 5.675 5.675 0 00.532-1.87.293.293 0 00-.086-.311c-.099-.067-.19.025-.277.069a6.171 6.171 0 00-1.12.753c-.177.144-.266.12-.41-.03a2.655 2.655 0 00-1.358-.84.298.298 0 01-.174.33 1.548 1.548 0 01-.766.216v1.979c.056 0 .113.045.176.137zm3.057-1.456l-.021.04zm-2.766.887l.08-.197.054-.084a.112.112 0 01.012-.05l.197-.41c.068-.073.16-.114.23-.038.04.043-.04.087-.095.103l-.064.073-.188.355-.028.12-.05.077a.151.151 0 01-.01.056l-.056.076a.22.22 0 01-.014.056c-.015.092-.04.266-.122.212-.136-.09.005-.233.054-.35z"/><path fill="#3980a8" d="M19.746 4l-.197.41a.112.112 0 00-.012.05l-.054.084-.08.197c-.05.116-.19.258-.054.349.081.054.107-.12.122-.212a.22.22 0 00.014-.056l.055-.076a.151.151 0 00.011-.056l.05-.078.028-.119.188-.355.064-.073c.055-.016.135-.06.096-.103-.07-.076-.163-.035-.23.038z"/><path fill="#505957" d="M8.567 7.659a.54.54 0 01.317-.514c.214-.095.323.09.421.24a3.23 3.23 0 00.624.55c.032.03.093.049.067.098-.012.023-.08.034-.116.025a4.11 4.11 0 00-1.093-.13c-.178.008-.226-.114-.22-.27zm4.755-2.769c-.118.085-.196.28-.39.166a.413.413 0 01-.233-.416c.013-.15.079-.258.228-.22.206.051.372-.073.56-.083.082-.004.185-.123.236-.022.039.077-.099.133-.15.204-.09.122-.27.183-.253.377z"/><path fill="#2b3332" d="M20.11 4.94c-.098-.072-.195-.097-.286.008l.173.012.083.137a.254.254 0 01-.127.197l-.2-.086-.006-.183c-.102.089-.084.183-.008.28a.172.172 0 00.15.105l.133-.001.08-.046a.225.225 0 00.066-.353z"/><path fill="#2b3332" d="M19.747 5.017v.008l.003-.006a.064.064 0 01.068-.068l.006-.003h-.008z"/><path fill="#373f3f" d="M18.125 5.025l-.006.183-.2.086a.254.254 0 01-.127-.197l.083-.137.173-.012c-.092-.105-.188-.08-.286-.008l-.058.07a.225.225 0 00.065.353l.08.046h.133a.171.171 0 00.151-.104c.076-.097.094-.191-.008-.28z"/><path fill="#373f3f" d="M18.122 5.02l.003.005v-.008l-.07-.07-.007.001.005.003a.064.064 0 01.069.068z"/><path fill="#505957" d="M7.412 10.627a.796.796 0 00-.138.076.193.193 0 00-.204.067.197.197 0 00-.206.07l-.26.081-.206.127h-.134c-.19.052-.454-.003-.474.306a.572.572 0 00.367.585c.257.117.298-.146.416-.272a.518.518 0 01.11-.07l.529-.547.062-.071.001-.002c.082-.07.167-.135.242-.212.035-.035.08-.11.066-.136-.042-.074-.115-.02-.171-.002z"/><path fill="#3e88b3" d="M18.512 4.952l-.042-.083a.116.116 0 00-.011-.053l-.032-.002.032.002-.058-.145a.102.102 0 00-.019-.058l-.063-.203-.049-.095c-.032-.132-.033-.285-.215-.313-.04-.007-.085-.023-.108.027-.004.008.021.03.033.045l.139.13.006.133a.161.161 0 01.055.024l.02.114.056.002-.056-.002.047.082a.16.16 0 00.01.055l.002.142.07.204a.171.171 0 01.052.01.101.101 0 00.012.05c.007.043 0 .099.073.123.214-.015.026-.127.046-.189z"/><path fill="#dbba8c" d="M19.816 4.948l-.07.069.006.191c.067.03.134.058.201.086a.254.254 0 00.127-.197l-.083-.137-.181-.012z"/><path fill="#e0c193" d="M18.056 4.948l.069.069-.006.191-.2.086a.253.253 0 01-.127-.197l.083-.137z"/></svg>