<svg xmlns="http://www.w3.org/2000/svg" width="100%" height="100%" viewBox="-2.72 -2.72 37.44 37.44"><path fill="#F74000" d="M9.988 4.983L4.803 2.469a.25.25 0 00-.334.334l2.514 5.185-3.758.376a.25.25 0 00-.12.452l7.457 5.315L16 8.563l-5.184-7.457a.25.25 0 00-.452.12l-.376 3.757z"/><path fill="#F9C900" d="M10.695 6.397l-4.517-2.56c-.221-.125-.466.12-.341.341l2.56 4.517-3.151.215a.25.25 0 00-.121.458l6.144 4.056 4.154-4.154-4.056-6.144a.25.25 0 00-.458.121l-.214 3.15z"/><path fill="#E5C79A" d="M8 29l-1.794 1.794a.704.704 0 00-.206.498v.003c0 .389.316.705.705.705h2.59a.705.705 0 00.705-.705V29H8z"/><path fill="#EACEA1" d="M16 1c-4.093 0-4.535 4.495-5.537 8.913-1.108 4.888-2.249 9.257-3.387 12.077-1.222 3.03-1.84 6.432.707 7.659 3.238 1.559 5.529-2.651 8.217-2.651V1z"/><path fill="#0F769B" d="M9.229 22.021c.747-1.992-.282-4.25-.444-5.309-.567 2.062-1.138 3.865-1.709 5.279-.441 1.093-.8 2.232-.963 3.302 1.065-1.23 2.478-1.572 3.116-3.272z"/><path fill="#E5C79A" d="M16 1c-2.703 0-3.814 1.96-4.545 4.564-.087.31-.876 3.984-.955 4.311.487 0 3.303 1.151 5.5 1.151V1z"/><path fill="#EACEA1" d="M16 1c-2.938 0-4.063 2.708-4.75 5.292 1.212.352 3.017 2.542 4.75 2.542V1z"/><path fill="#FFF" d="M13.031 4.05c-.158.456-.274 1.121-.227 1.452.289.316 1.233.76 2.048.772a.136.136 0 00.135-.137v-.381a.137.137 0 00-.035-.09c-.602-.676-1.075-1.317-1.726-1.694-.073-.042-.167-.003-.195.078z"/><path fill="#8A323F" d="M14.73 5.41c-.321-.37-.642-.764-.97-1.045-.117.224-.187.536-.187.897 0 .292.057.559.136.771.245.1.506.168.785.209.122-.197.216-.493.236-.832z"/><ellipse cx="14.12" cy="5.515" fill="#373F3F" rx=".272" ry=".544"/><ellipse cx="13.989" cy="5.282" fill="#FFF" rx=".125" ry=".25"/><path fill="#EACEA1" d="M10.521 9.9c-2.333 1.646-6.748 5.328-7.818 6.163-1.281 1-.52 1.922.109 1.922.484 0 7.888-1.798 7.888-1.798L10.521 9.9z"/><path fill="#0F769B" d="M13.228 2.385c-.397-.562-.839-1.506-1.083-2.056a.234.234 0 01.273-.321c.79.205 2.526.904 2.707 1.265.244.489-1.897 1.112-1.897 1.112z"/><path fill="#F74000" d="M22.012 4.983l5.185-2.514a.25.25 0 01.334.334l-2.514 5.185 3.757.376a.25.25 0 01.12.452l-7.457 5.315L16 8.563l5.184-7.457a.25.25 0 01.452.12l.376 3.757z"/><path fill="#F9C900" d="M21.305 6.397l4.517-2.56c.221-.125.466.12.341.341l-2.56 4.517 3.151.215a.25.25 0 01.121.458l-6.144 4.056-4.155-4.154 4.056-6.144a.25.25 0 01.458.121l.215 3.15z"/><path fill="#E0C193" d="M24 29l1.794 1.794a.704.704 0 01.206.498v.003a.705.705 0 01-.705.705h-2.59a.705.705 0 01-.705-.705V29h2z"/><path fill="#E5C79A" d="M16 1c4.093 0 4.535 4.495 5.537 8.913 1.108 4.888 2.249 9.256 3.387 12.077 1.222 3.03 1.84 6.432-.707 7.659-3.238 1.559-5.529-2.651-8.217-2.651V1z"/><path fill="#0A6F8E" d="M22.771 22.021c-.747-1.992.282-4.25.444-5.309.567 2.062 1.138 3.865 1.709 5.279.441 1.093.8 2.232.963 3.302-1.065-1.23-2.478-1.572-3.116-3.272z"/><path fill="#E0C193" d="M16 1c2.703 0 3.814 1.96 4.545 4.564.087.31.876 3.984.955 4.311-.487 0-3.303 1.151-5.5 1.151V1z"/><path fill="#E5C79A" d="M16 1c2.938 0 4.062 2.708 4.75 5.292-1.212.352-3.017 2.541-4.75 2.541V1z"/><path fill="#0A6F8E" d="M16 1c-4.093 0-4.535 4.495-5.537 8.913C11.969 8.531 12.062 3 13.5 3c.778 0 1.792 1.375 2.5 1.375S17.722 3 18.5 3c1.437 0 1.531 5.531 3.037 6.913C20.535 5.495 20.093 1 16 1z"/><path fill="#F7F7F7" d="M18.969 4.05c.158.456.274 1.121.227 1.452-.289.316-1.233.76-2.048.772a.136.136 0 01-.135-.137v-.381c0-.033.013-.065.035-.09.602-.676 1.075-1.317 1.726-1.694.073-.042.167-.003.195.078z"/><path fill="#7F1E32" d="M17.27 5.41c.321-.37.642-.764.97-1.045.117.224.187.536.187.897 0 .292-.057.559-.136.771-.245.1-.506.168-.785.209a1.831 1.831 0 01-.236-.832z"/><ellipse cx="17.88" cy="5.515" fill="#2B3332" rx=".272" ry=".544"/><path fill="#F7F7F7" d="M18.011 5.032c.069 0 .125.112.125.25s-.056.25-.125.25-.125-.112-.125-.25c0-.139.056-.25.125-.25z"/><path fill="#0A6F8E" d="M18.772 2.385c.397-.562.839-1.506 1.083-2.056a.234.234 0 00-.273-.321c-.79.205-2.526.904-2.707 1.265-.244.489 1.897 1.112 1.897 1.112z"/><path fill="#E5C79A" d="M21.486 9.9c2.333 1.646 6.748 5.328 7.818 6.163 1.281 1 .52 1.922-.109 1.922-.484 0-7.888-1.798-7.888-1.798l.179-6.287z"/><path fill="#0F769B" d="M16 1c-4.093 0-4.535 4.495-5.537 8.913C11.969 8.531 12.062 3 13.5 3c.778 0 1.792 1.375 2.5 1.375V1z"/></svg>