<svg xmlns="http://www.w3.org/2000/svg" width="100%" height="100%" viewBox="-2.72 -2.72 37.44 37.44"><path fill="#53BF8C" d="M9.437 26.402c0 1.088-.816 2.44-2.173 3.121l.331.505c.039.06.04.137.002.198l-.906 1.45a.613.613 0 01-.52.288H2.616a.611.611 0 01-.508-.955c.354-.517.805-1.171 1.24-1.792C2.527 28.539 2 27.433 2 26c0-2.438 3.75-5.208 6-7 1.668-.19 1.437 5.464 1.437 7.402zM1.735 15.833c-3.625 1.708-.917 4.083 2.167 3.333 1.502-.365 1.583-.417 4.364-1.292 3.037-.956 1.145-5.35.428-5.083-2.349.873-5.152 2.191-6.959 3.042z"/><path fill="#60CD96" d="M15 11.464H8.5c.042 5.417-2.5 7.542-2.5 12 0 2.542 1.25 7.5 9 7.5v-19.5z"/><path fill="#7AEBAC" d="M15 .964c-2.375 0-2.188-1.312-4.438-.875C8.64.463 7 5.381 7 7.923c0 3.031 2.685 5.392 5.125 6.917 1 .625 2.21.625 2.875.625V.964z"/><path fill="#373F3F" d="M9.646 5.542c.157-.32.604-1.073 1.167-1.448.938.75 1.338 1.678 1.607 2.488a.257.257 0 01-.12.305c-.793.416-1.704.418-2.471.332-.492-.507-.488-1.055-.183-1.677z"/><path fill="#FFF" d="M10.235 1.714c-1.295-.442-2.111.883-2.404 1.529-.381.958-.604 2.157-.674 3.067 1.145.769 2.624 1.007 3.655.949.242-.859.625-5.134-.577-5.545z"/><path fill="#F57552" d="M9.831 7.227c.167-.625.627-4.06-.204-4.427-.812-.357-1.623 1.729-1.85 3.87.337.212 1.141.506 2.054.557z"/><ellipse cx="8.981" cy="5.417" fill="#373F3F" rx="1.045" ry=".402" transform="rotate(-79.642 8.98 5.417)"/><path fill="#7AEBAC" d="M10.446 3.833c.875.583 1.394 1.291 1.833 2 .129-.176.442-.753.541-.958.754-1.552.301-3.317-1.011-3.943S8.696 1.125 7.84 3.21a3.979 3.979 0 012.606.623z"/><path fill="#40A87B" d="M30.323 11.308c2.954 9.162-4.382 14.35-9.946 16.948l-3.972-6.325c6.595-.598 11.264-5.165 13.056-10.612.137-.418.727-.429.862-.011z"/><path fill="#46B080" d="M26.652 29.217C27.473 28.539 28 27.433 28 26c0-2.438-3.75-5.208-6-7-1.668-.19-1.438 5.464-1.438 7.402 0 1.088.816 2.44 2.173 3.121l-.331.505a.184.184 0 00-.002.198l.906 1.45a.613.613 0 00.52.288h3.556a.611.611 0 00.508-.955c-.354-.517-.805-1.171-1.24-1.792zm-5.346-16.425c-.717-.266-2.609 4.128.428 5.083 2.781.875 2.862.926 4.364 1.292 3.083.75 5.792-1.625 2.167-3.333-1.807-.852-4.61-2.17-6.959-3.042z"/><path fill="#6EDCA2" d="M15 11.964c-3.188-.062-2.912-1.675-4.188-2.312C9.438 8.964 8.375 9.527 7 7.923c0 3.031 2.685 5.392 5.125 6.917 1 .625 2.21.625 2.875.625v-3.501z"/><path fill="#FFF" d="M10.812 9.652c-.041-.02-.079-.03-.119-.049l.666 2.546a.282.282 0 00.521 0l.297-1.137c-.48-.488-.732-1.044-1.365-1.36z"/><path fill="#53BF8C" d="M15 11.464h6.5c-.042 5.417 2.5 7.542 2.5 12 0 2.542-1.25 7.5-9 7.5v-19.5z"/><path fill="#6EDCA2" d="M15 .964c2.375 0 2.188-1.312 4.438-.875C21.36.463 23 5.381 23 7.923c0 3.031-2.685 5.392-5.125 6.917-1 .625-2.21.625-2.875.625V.964z"/><path fill="#60CD96" d="M15 11.964c3.188-.062 2.912-1.675 4.188-2.312 1.374-.688 2.437-.125 3.812-1.729 0 3.031-2.685 5.392-5.125 6.917-1 .625-2.21.625-2.875.625v-3.501z"/><path fill="#F7F7F7" d="M19.188 9.652c.041-.02.079-.03.119-.049l-.666 2.546a.282.282 0 01-.521 0l-.297-1.137c.48-.488.732-1.044 1.365-1.36z"/><path fill="#2B3332" d="M20.172 7.219c-.768.087-1.679.084-2.471-.332a.256.256 0 01-.12-.305c.269-.81.67-1.738 1.607-2.488.563.375 1.01 1.128 1.167 1.448.304.622.308 1.17-.183 1.677z"/><path fill="#F7F7F7" d="M19.765 1.714c1.295-.443 2.112.883 2.404 1.529.381.958.604 2.157.674 3.067-1.145.769-2.624 1.007-3.655.949-.242-.859-.625-5.134.577-5.545z"/><path fill="#EB6B48" d="M20.169 7.227c-.167-.625-.627-4.061.205-4.427.812-.357 1.623 1.729 1.85 3.87-.338.212-1.142.506-2.055.557z"/><ellipse cx="21.019" cy="5.417" fill="#2B3332" rx=".402" ry="1.045" transform="rotate(-10.359 21.025 5.418)"/><path fill="#6EDCA2" d="M19.554 3.833c-.875.583-1.394 1.291-1.833 2-.129-.176-.442-.753-.541-.958-.754-1.552-.301-3.317 1.011-3.943s3.114.193 3.97 2.278a3.98 3.98 0 00-2.607.623z"/><path fill="#FFD96C" d="M21.542 12.917c-.965 1.808-4.917 4.367-6.542 4.372-1.625-.006-5.576-2.565-6.542-4.372-.111 1.434-.488 2.997-1.009 4.385.509 1.406 5.8 4.482 7.55 4.55 1.75-.068 7.042-3.144 7.55-4.55-.519-1.388-.896-2.951-1.007-4.385z"/><path fill="#FFE28A" d="M15 17.289c-1.625-.006-5.576-2.565-6.542-4.372-.111 1.434-.488 2.997-1.009 4.385.509 1.406 5.8 4.482 7.55 4.55v-4.563z"/></svg>