<svg xmlns="http://www.w3.org/2000/svg" width="100%" height="100%" viewBox="-2.72 -2.72 37.44 37.44"><path fill="#56c7cd" d="M4.28 17.56c-1.076-.008-2.424-.875-4.28-3.351.943 4.472 2.35 6.943 5.145 4.486z"/><path fill="#66d3d3" d="M3.025 16.388a8.897 8.897 0 001.328 3.277c2.679.238 7.158.357 11.647.359V8.957c-11.328 0-10.518 7.408-12.975 7.43z"/><path fill="#687271" d="M2.875 14.897a8.16 8.16 0 00.15 1.49c2.457-.022 1.647-7.43 12.975-7.43V4.529c-7.249 0-13.125 4.642-13.125 10.368z"/><path fill="#5c6664" d="M4.353 19.665C6.54 22.99 10.93 25.264 16 25.264v-5.24c-4.49-.002-8.968-.121-11.647-.359z"/><path fill="#7cd8d5" d="M9.86 10.808A6.034 6.034 0 0016 16.73V4.885a6.035 6.035 0 00-6.14 5.923z"/><ellipse cx="13.164" cy="12.057" fill="#f7f7f7" rx="1.359" ry="2.45"/><path fill="#757f7e" d="M12.176 6.177c-2.095 2.213-2.498 5.035-.665 8.663.31-2.789.294-4.629 1.714-4.629 1.299 0 1.537 2.687.828 3.49-.507.46-.233 2.379.641 2.379A18.409 18.409 0 0016 18.366V8.13a5.391 5.391 0 01-3.824-1.953z"/><path fill="#8eddd9" d="M6.795 13.367c.999 4.896.715 7.683-.502 8.933l-5.22 5.17c5.08-.515 9.34-1.32 10.321-3.282 1.038-1.578.128-5.55-2.944-12.178"/><ellipse cx="10.275" cy="23.965" fill="#838c8a" rx="1.733" ry=".997" transform="rotate(-35.071 10.275 23.965)"/><ellipse cx="13.128" cy="12.148" fill="#373f3f" rx=".261" ry=".498"/><path fill="#51bac5" d="M27.72 17.56c1.076-.008 2.424-.875 4.28-3.351-.943 4.472-2.35 6.943-5.145 4.486z"/><path fill="#56c7cd" d="M28.975 16.388a8.897 8.897 0 01-1.328 3.277c-2.679.238-7.158.357-11.647.359V8.957c11.328 0 10.518 7.408 12.975 7.43z"/><path fill="#5c6664" d="M29.125 14.897a8.16 8.16 0 01-.15 1.49c-2.457-.022-1.647-7.43-12.975-7.43V4.529c7.249 0 13.125 4.642 13.125 10.368z"/><path fill="#505957" d="M27.647 19.665C25.46 22.99 21.07 25.264 16 25.264v-5.24c4.49-.002 8.968-.121 11.647-.359z"/><path fill="#66d3d3" d="M22.14 10.808A6.034 6.034 0 0116 16.73V4.885a6.035 6.035 0 016.14 5.923z"/><ellipse cx="18.836" cy="12.057" fill="#edeeee" rx="1.359" ry="2.45"/><path fill="#687271" d="M19.824 6.177c2.095 2.213 2.498 5.035.665 8.663-.31-2.789-.294-4.629-1.714-4.629-1.299 0-1.537 2.687-.828 3.49.507.46.233 2.379-.641 2.379A18.409 18.409 0 0116 18.366V8.13a5.391 5.391 0 003.824-1.953z"/><path fill="#7cd8d5" d="M25.205 13.367c-.999 4.896-.715 7.683.502 8.933l5.22 5.17c-5.08-.515-9.34-1.32-10.321-3.282-1.038-1.578-.128-5.55 2.944-12.178"/><ellipse cx="21.725" cy="23.965" fill="#757f7e" rx=".997" ry="1.733" transform="rotate(-54.929 21.725 23.965)"/><ellipse cx="18.872" cy="12.148" fill="#2b3332" rx=".261" ry=".498"/></svg>