<svg xmlns="http://www.w3.org/2000/svg" width="100%" height="100%" viewBox="-2.72 -2.72 37.44 37.44"><ellipse cx="16" cy="25.5" fill="#7FB8E0" rx="6" ry="6.5"/><path fill="#71B1E1" d="M22 25.5c0-4.039-2.686-6.5-6-6.5v13c3.314 0 6-2.461 6-6.5z"/><circle cx="16" cy="23" r="2" fill="#413B3B"/><path fill="#3A3333" d="M18 23a2 2 0 00-2-2v4a2 2 0 002-2z"/><ellipse cx="16" cy="11" fill="#4F4949" rx="13" ry="11"/><path fill="#413B3B" d="M29 11c0-6.75-5.137-11-13-11v22c7.863 0 13-4.25 13-11z"/><ellipse cx="16" cy="11" fill="#F5DEB9" rx="11" ry="9"/><path fill="#EFD4A7" d="M27 11c0-5.523-4.346-9-11-9v18c6.654 0 11-3.477 11-9z"/><ellipse cx="10" cy="11" fill="#413B3B" rx="2" ry="3"/><circle cx="10" cy="10" r="1" fill="#FFF"/><path fill="#5A5353" d="M10 12c-.647 0-1.249.168-1.79.441C8.501 13.366 9.095 14 10 14s1.499-.634 1.79-1.559A3.954 3.954 0 0010 12z"/><ellipse cx="22" cy="11" fill="#3A3333" rx="2" ry="3"/><circle cx="22" cy="10" r="1" fill="#F7F7F7"/><path fill="#4F4949" d="M22 12c-.647 0-1.249.168-1.79.441.291.925.885 1.559 1.79 1.559s1.499-.634 1.79-1.559A3.954 3.954 0 0022 12zm-9-6.5c0-.828-.448-1.5-1-1.5s-1 .672-1 1.5c0 .297.059.573.159.806-1.137.372-2.417-.244-2.432-.252a.5.5 0 00-.455.891c.063.032 1.002.502 2.119.502.554 0 1.15-.1 1.708-.462S13 6.278 13 5.5z"/><path fill="#413B3B" d="M19 5.5c0-.828.448-1.5 1-1.5s1 .672 1 1.5c0 .297-.059.573-.159.806 1.137.372 2.417-.244 2.432-.252a.5.5 0 01.455.891c-.063.032-1.002.502-2.119.502-.554 0-1.15-.1-1.708-.462C19.344 6.623 19 6.278 19 5.5zM16 19c-.58 0-1.07-.215-1.42-.622-.522-.607-.63-1.516-.629-2.168l-.793.264a.5.5 0 11-.316-.948l1.5-.5a.497.497 0 01.652.548c-.062.416-.121 1.614.344 2.153.32.372 1.002.372 1.322 0 .465-.539.406-1.737.344-2.153a.497.497 0 01.652-.548l1.5.5a.5.5 0 11-.316.948l-.793-.264c.001.653-.107 1.562-.629 2.168-.348.407-.838.622-1.418.622z"/><path fill="#3A3333" d="M17.42 18.378c.522-.607.63-1.516.629-2.168l.793.264a.5.5 0 10.316-.948l-1.5-.5a.497.497 0 00-.652.548c.062.416.121 1.614-.344 2.153a.87.87 0 01-.661.279V19c.579 0 1.069-.215 1.419-.622z"/><path fill="#746E6E" d="M4.492 5.362S6 6.226 6 11s-1.508 5.641-1.508 5.641S0 16.05 0 11s4.492-5.638 4.492-5.638z"/><path fill="#8EC0E0" d="M0 11c0 2.497 1.098 3.901 2.208 4.685.389-.8.792-2.218.792-4.685 0-2.467-.403-3.885-.792-4.684C1.098 7.1 0 8.503 0 11z"/><path fill="#6D6666" d="M27.508 5.362S26 6.226 26 11s1.508 5.641 1.508 5.641S32 16.05 32 11s-4.492-5.638-4.492-5.638z"/><path fill="#7FB8E0" d="M32 11c0 2.497-1.098 3.901-2.208 4.685-.389-.8-.792-2.218-.792-4.685 0-2.467.403-3.885.792-4.684C30.902 7.1 32 8.503 32 11z"/></svg>