<svg xmlns="http://www.w3.org/2000/svg" width="100%" height="100%" viewBox="-2.72 -2.72 37.44 37.44"><path fill="#424b7e" d="M18.402 24.985c-.545.315-.538 1.347.015 2.305s1.443 1.48 1.988 1.165.539-1.347-.014-2.305-1.444-1.48-1.989-1.165z"/><path fill="#495587" d="M23.103 25.15c-.719-1.741.578-3.028 4.177-3.796l-3.2-.326c1.139-.597.869-4.135-2.658-5.641.07-1.608-.299-2.744-1.248-3.255 1.169.555 4.773-7.377 4.123-8.678-2.062.27-6.228 6.836-5.1 7.594A4.286 4.286 0 0016 9.8v16.698a11.655 11.655 0 005.53-2.053z"/><path fill="#e0c193" d="M29.395 23.957l-2.115-2.603c-3.599.768-4.896 2.055-4.177 3.797.984 2.089 2.665 2.325 4.882 1.139 1.216.924 2.55.856 4.014-.326l-.838-.65c-.538.7-2.303-.657-1.766-1.357zm-2.007 1.551l-2.332-.775 1.627-1.372 1.682 1.372z"/><path fill="#ffd04d" d="M25.056 24.733l2.332.775.977-.775-1.682-1.372-1.627 1.372z"/><path fill="#4eac5d" d="M29.395 23.957c-.537.7 1.228 2.056 1.766 1.356-.097-.84-.62-1.343-1.766-1.356z"/><path fill="#edeeee" d="M20.31 15.82c-.734 0-1.33 1.057-1.33 2.36s.596 2.36 1.33 2.36 1.329-1.056 1.329-2.36-.595-2.36-1.33-2.36z"/><path fill="#e3e5e5" d="M18.059 21.788l.596-1.52c-.935-1.11-1.827-1.68-2.655-1.464v3.2l.974-1.464z"/><path fill="#2b3332" d="M20.296 16.906a.23.23 0 10.23.23.23.23 0 00-.23-.23z"/><path fill="#495587" d="M13.598 24.985c.545.315.538 1.347-.015 2.305s-1.443 1.48-1.988 1.165-.539-1.347.014-2.305 1.444-1.48 1.989-1.165z"/><path fill="#515e91" d="M8.897 25.15c.719-1.741-.578-3.028-4.177-3.796l3.2-.326c-1.139-.597-.869-4.135 2.658-5.641-.07-1.608.299-2.744 1.248-3.255-1.169.555-4.773-7.377-4.123-8.678 2.062.27 6.228 6.836 5.1 7.594A4.286 4.286 0 0116 9.8v16.698a11.655 11.655 0 01-5.53-2.053z"/><path fill="#e5c79a" d="M.84 25.313l-.84.651c1.465 1.182 2.798 1.25 4.014.326 2.217 1.186 3.898.95 4.882-1.14.719-1.741-.578-3.028-4.177-3.796l-2.115 2.603c.537.7-1.228 2.056-1.766 1.356zm2.795-.58l1.682-1.372 1.627 1.372-2.332.775z"/><path fill="#ffd96c" d="M6.944 24.733l-2.332.775-.977-.775 1.682-1.372 1.627 1.372z"/><path fill="#54b668" d="M2.605 23.957c.537.7-1.228 2.056-1.766 1.356.097-.84.62-1.343 1.766-1.356z"/><path fill="#f7f7f7" d="M11.69 15.82c.734 0 1.33 1.057 1.33 2.36s-.596 2.36-1.33 2.36-1.329-1.056-1.329-2.36.595-2.36 1.33-2.36z"/><path fill="#edeeee" d="M13.941 21.788l-.596-1.52c.935-1.11 1.827-1.68 2.655-1.464v3.2l-.974-1.464z"/><path fill="#373f3f" d="M11.704 16.906a.23.23 0 11-.23.23.23.23 0 01.23-.23z"/></svg>