<svg xmlns="http://www.w3.org/2000/svg" width="100%" height="100%" viewBox="-2.72 -2.72 37.44 37.44"><path fill="#FFF" d="M16 5.5a7.5 7.5 0 000 15v-15z"/><path fill="#F7F7F7" d="M23.5 13A7.5 7.5 0 0016 5.5v15a7.5 7.5 0 007.5-7.5z"/><path fill="#373F3F" d="M16 10.5a2.5 2.5 0 100 5v-5z"/><path fill="#2B3332" d="M18.5 13a2.5 2.5 0 00-2.5-2.5v5a2.5 2.5 0 002.5-2.5z"/><circle cx="15.5" cy="12.5" r="1" fill="#FFF"/><path fill="#373F3F" d="M16 6.5v-3c-5.238 0-9.5 4.262-9.5 9.5 0 2.079.679 3.997 1.816 5.563L5.819 21.06A12.93 12.93 0 013 13a1.5 1.5 0 10-3 0c0 8.822 7.178 16 16 16v-9.5c-3.584 0-6.5-2.916-6.5-6.5s2.916-6.5 6.5-6.5zm-1.5 16v3.406a12.921 12.921 0 01-6.56-2.725l2.497-2.497a9.437 9.437 0 004.076 1.687c-.004.044-.013.085-.013.129z"/><path fill="#2B3332" d="M30.5 11.5A1.5 1.5 0 0029 13a12.93 12.93 0 01-2.819 8.06l-2.497-2.497A9.435 9.435 0 0025.5 13c0-5.238-4.262-9.5-9.5-9.5v3c3.584 0 6.5 2.916 6.5 6.5s-2.916 6.5-6.5 6.5V29c8.822 0 16-7.178 16-16a1.5 1.5 0 00-1.5-1.5zm-13 14.406V22.5c0-.044-.009-.085-.013-.128a9.437 9.437 0 004.076-1.687l2.497 2.497a12.928 12.928 0 01-6.56 2.724z"/></svg>