<svg xmlns="http://www.w3.org/2000/svg" width="100%" height="100%" viewBox="-2.72 -2.72 37.44 37.44"><g fill="#F7D684"><path d="M4.591.039a.13.13 0 00-.186 0c-.907.968-.907 1.936-.907 2.904 0 1 0 2 1 3 1-1 1-2 1-3 0-.968 0-1.936-.907-2.904z"/><path d="M7.864 1.945a.13.13 0 01.132.132c-.043 1.326-.728 2.01-1.412 2.695-.707.707-1.586 1.171-2.586 1.171 0-1 .464-1.879 1.172-2.586.684-.684 1.368-1.368 2.694-1.412z"/><path d="M1.132 1.945A.13.13 0 001 2.077c.043 1.326.728 2.01 1.412 2.695.707.707 1.586 1.172 2.586 1.172 0-1-.464-1.879-1.172-2.586-.684-.685-1.369-1.369-2.694-1.413z"/></g><path fill="#F7D684" d="M3.811 7.875L2.81 7.208a.25.25 0 010-.416L3.998 6h1l1.188.792a.25.25 0 010 .416l-1.001.667a.15.15 0 000 .25l1.001.667a.25.25 0 010 .416L4.998 10h-1L2.81 9.208a.25.25 0 010-.416l1.001-.667a.15.15 0 000-.25z"/><path fill="#F7D684" d="M12.526 28.5v-1c-6.328 0-7.528-4.392-7.528-12.496V8h-1v7.004c0 7.112.652 13.496 8.528 13.496z"/><ellipse cx="4.498" cy="4" fill="#F3586F" rx=".5" ry="1"/><path fill="#F7D684" d="M4.998 6.96h-1v-2h1z"/><g fill="#F0C877"><path d="M27.407.039a.13.13 0 01.186 0c.907.968.907 1.936.907 2.904 0 1 0 2-1 3-1-1-1-2-1-3 0-.968 0-1.936.907-2.904z"/><path d="M24.134 1.945a.13.13 0 00-.132.132c.043 1.326.728 2.01 1.412 2.695C26.121 5.479 27 5.943 28 5.943c0-1-.464-1.879-1.172-2.586-.684-.684-1.368-1.368-2.694-1.412z"/><path d="M30.866 1.945a.13.13 0 01.132.132c-.043 1.326-.728 2.01-1.412 2.695C28.879 5.479 28 5.943 27 5.943c0-1 .464-1.879 1.172-2.586.684-.684 1.368-1.368 2.694-1.412z"/></g><path fill="#F0C877" d="M28.187 7.875l1.001-.667a.25.25 0 000-.416L28 6h-1l-1.188.792a.25.25 0 000 .416l1.001.667a.15.15 0 010 .25l-1.001.667a.25.25 0 000 .416L27 10h1l1.188-.792a.25.25 0 000-.416l-1.001-.667a.15.15 0 010-.25z"/><path fill="#F0C877" d="M19.472 28.5v-1C25.8 27.5 27 23.108 27 15.004V8h1v7.004c0 7.112-.652 13.496-8.528 13.496z"/><path fill="#F7D684" d="M16 16h3v5c0 3 2 5 2 7 0 4-.53 4.03-5 4V16z"/><ellipse cx="20.473" cy="28.473" fill="#FAE09F" rx="4.352" ry="2.436" transform="rotate(-45.001 20.472 28.473)"/><path fill="#FAE09F" d="M16 16h-3v5c0 3-2 5-2 7 0 4 .53 4.03 5 4V16z"/><ellipse cx="16" cy="10" fill="#F79654" rx="9" ry="8"/><path fill="#FCA15E" d="M16 18c-4.971 0-9-3.582-9-8s4.029-8 9-8v16z"/><path fill="#FDEBBB" d="M12 14c0-2.853 3-3.76 3-5.993C15 5 9.053 5 9.053 12.054 9.053 17 13 18 16 18c-2.621 0-4-2.284-4-4z"/><path fill="#FAE09F" d="M20.053 14c0-2.853-3-3.76-3-5.993C17.053 5 23 5 23 12.054 23 17 19.053 18 16.053 18c2.621 0 4-2.284 4-4z"/><path fill="#FCA15E" d="M16 .906c-4.047-2.877-7.924 1.728-5 5h5v-5z"/><path fill="#F79654" d="M16 .906c4.047-2.877 7.896 1.728 4.972 5h-5l.028-5z"/><ellipse cx="16" cy="5" fill="#E85160" rx="1" ry="2"/><path fill="#F3586F" d="M16 7c-.552 0-1-.895-1-2s.448-2 1-2v4z"/><ellipse cx="27.5" cy="4" fill="#E85160" rx=".5" ry="1"/><ellipse cx="12" cy="12.5" fill="#FFAD68" rx="2" ry="2.5"/><path fill="#FFB76D" d="M10 12.5c0-1.381.895-2.5 2-2.5s2 1.119 2 2.5h-4z"/><ellipse cx="20" cy="12.5" fill="#FCA15E" rx="2" ry="2.5"/><path fill="#FFAD68" d="M18 12.5c0-1.381.895-2.5 2-2.5s2 1.119 2 2.5h-4z"/><path fill="#2B3332" d="M16 17c-.782 0-1.491-.21-1.897-.562a.25.25 0 11.328-.378c.313.271.915.44 1.57.44.642 0 1.238-.164 1.555-.428a.253.253 0 01.353.032.252.252 0 01-.032.353c-.411.34-1.112.543-1.877.543z"/><path fill="#373F3F" d="M16 17c-.782 0-1.491-.21-1.897-.562a.25.25 0 11.328-.378c.313.271.915.44 1.57.44v.5z"/><ellipse cx="11.527" cy="28.473" fill="#FDEBBB" rx="2.436" ry="4.352" transform="rotate(-45.001 11.527 28.473)"/><path fill="#FAE09F" d="M8.801 24.217C5.533 26.283 3 27 2 27c0-1 1.931-3.254 5.199-5.319s6.276-3.171 6.719-2.471c.442.701-1.849 2.942-5.117 5.007z"/><path fill="#F7D684" d="M23.171 24.217C26.439 26.283 28.972 27 29.972 27c0-1-1.931-3.254-5.199-5.319s-6.276-3.171-6.719-2.471c-.442.701 1.849 2.942 5.117 5.007z"/><path fill="#F0C877" d="M27 4.961h1v2h-1z"/></svg>