<svg xmlns="http://www.w3.org/2000/svg" width="100%" height="100%" viewBox="-2.72 -2.72 37.44 37.44"><path fill="#FFF" d="M16 2a7.5 7.5 0 000 15V2z"/><path fill="#F7F7F7" d="M23.5 9.5A7.5 7.5 0 0016 2v15a7.5 7.5 0 007.5-7.5z"/><path fill="#373F3F" d="M16 7a2.5 2.5 0 100 5V7z"/><path fill="#2B3332" d="M18.5 9.5A2.5 2.5 0 0016 7v5a2.5 2.5 0 002.5-2.5z"/><circle cx="15.5" cy="9" r="1" fill="#FFF"/><path fill="#2B3332" d="M25.621 16.5l-1.726-1.726A9.436 9.436 0 0025.5 9.5C25.5 4.262 21.238 0 16 0v3c3.584 0 6.5 2.916 6.5 6.5S19.584 16 16 16v3a9.441 9.441 0 005.849-2.03l1.651 1.651c.293.293.677.439 1.061.439s.768-.146 1.061-.439a1.5 1.5 0 00-.001-2.121z"/><path fill="#373F3F" d="M16 3V0c-5.238 0-9.5 4.262-9.5 9.5v21a1.5 1.5 0 103 0V16.409A9.453 9.453 0 0016 19v-3c-3.584 0-6.5-2.916-6.5-6.5S12.416 3 16 3z"/></svg>