<svg xmlns="http://www.w3.org/2000/svg" width="100%" height="100%" viewBox="-2.72 -2.72 37.44 37.44"><path fill="#FFF" d="M16 8.5a7.5 7.5 0 000 15v-15z"/><path fill="#F7F7F7" d="M23.5 16A7.5 7.5 0 0016 8.5v15a7.5 7.5 0 007.5-7.5z"/><path fill="#373F3F" d="M16 13.5a2.5 2.5 0 100 5v-5z"/><path fill="#2B3332" d="M18.5 16a2.5 2.5 0 00-2.5-2.5v5a2.5 2.5 0 002.5-2.5z"/><circle cx="15.5" cy="15.5" r="1" fill="#FFF"/><path fill="#2B3332" d="M22.734 9.308c-.007-.008-.009-.018-.016-.025L13.874.44A1.498 1.498 0 0012.813 0H8.5a1.5 1.5 0 100 3h3.692L16 6.807V9.5c3.584 0 6.5 2.916 6.5 6.5s-2.916 6.5-6.5 6.5v3c5.238 0 9.5-4.262 9.5-9.5a9.466 9.466 0 00-2.766-6.692z"/><path fill="#373F3F" d="M23.5 29h-3.692L16 25.193V22.5c-3.584 0-6.5-2.916-6.5-6.5s2.916-6.5 6.5-6.5v-3c-5.238 0-9.5 4.262-9.5 9.5a9.466 9.466 0 002.766 6.692c.007.007.009.018.017.025l8.844 8.843c.28.282.662.44 1.06.44H23.5a1.5 1.5 0 100-3z"/></svg>