<svg xmlns="http://www.w3.org/2000/svg" width="100%" height="100%" viewBox="-2.72 -2.72 37.44 37.44"><path fill="#FFF" d="M16 8.5a7.5 7.5 0 000 15v-15z"/><path fill="#F7F7F7" d="M23.5 16A7.5 7.5 0 0016 8.5v15a7.5 7.5 0 007.5-7.5z"/><path fill="#373F3F" d="M16 13.5a2.5 2.5 0 100 5v-5z"/><path fill="#2B3332" d="M18.5 16a2.5 2.5 0 00-2.5-2.5v5a2.5 2.5 0 002.5-2.5z"/><circle cx="15.5" cy="15.5" r="1" fill="#FFF"/><path fill="#3980A8" d="M3 16C3 8.832 8.832 3 16 3V0C7.178 0 0 7.178 0 16s7.178 16 16 16v-9.5c-3.584 0-6.5-2.916-6.5-6.5s2.916-6.5 6.5-6.5v-3c-5.238 0-9.5 4.262-9.5 9.5 0 4.727 3.474 8.647 8 9.37v3.537C8.037 28.159 3 22.66 3 16z"/><path fill="#377AA0" d="M16 0v3c7.168 0 13 5.832 13 13 0 6.66-5.037 12.159-11.5 12.906V25.37c4.526-.723 8-4.643 8-9.37 0-5.238-4.262-9.5-9.5-9.5v3c3.584 0 6.5 2.916 6.5 6.5s-2.916 6.5-6.5 6.5V32c8.822 0 16-7.178 16-16S24.822 0 16 0z"/></svg>