<svg xmlns="http://www.w3.org/2000/svg" width="100%" height="100%" viewBox="-2.72 -2.72 37.44 37.44"><path fill="#434C4B" d="M20.764 13.528l-.176-.352a10 10 0 01-.818-6.641l.145-.654c.518-2.33-1.097-4.546-3.39-4.844l-.288-.865a.25.25 0 00-.474 0l-.288.865c-2.293.297-3.908 2.514-3.39 4.844l.145.654a9.995 9.995 0 01-.818 6.641l-.176.352a9.997 9.997 0 000 8.944l1.253 2.505A1.85 1.85 0 0014.143 26h.007A1.85 1.85 0 0016 24.15 1.85 1.85 0 0017.85 26h.007a1.85 1.85 0 001.655-1.023l1.253-2.505a10 10 0 00-.001-8.944z"/><path fill="#373F3F" d="M17.85 26h.007a1.85 1.85 0 001.655-1.023l1.253-2.505a9.997 9.997 0 000-8.944l-.176-.352a10 10 0 01-.818-6.641l.145-.654c.518-2.33-1.097-4.546-3.39-4.844l-.288-.865A.247.247 0 0016 0v24.15A1.85 1.85 0 0017.85 26z"/><path fill="#B9BFBE" d="M13 25l.859 4.434-1.712 1.712a.5.5 0 00.707.708l.18-.18A.495.495 0 0013.5 32a.5.5 0 00.448-.276l.07-.139c.04.234.236.415.482.415a.5.5 0 00.5-.5V25h-2z"/><path fill="#ABB2B1" d="M19.854 31.146l-1.712-1.712L19 25h-2v6.5a.5.5 0 00.5.5.493.493 0 00.483-.416l.07.139a.499.499 0 00.67.224c.118-.059.2-.16.242-.274l.18.18a.503.503 0 00.709.001.502.502 0 000-.708z"/><path fill="#8D5B36" d="M16.852 19.971c-.414.028-.824-.219-.956-.612a1.994 1.994 0 00-3.78-.005 12.8 12.8 0 01-1.902-.779 9.963 9.963 0 001.023 3.896l1.253 2.505A1.846 1.846 0 0014.143 26h.007A1.85 1.85 0 0016 24.15 1.85 1.85 0 0017.85 26h.007a1.85 1.85 0 001.655-1.023l1.253-2.505a9.98 9.98 0 001.023-3.896 12.595 12.595 0 01-4.936 1.395z"/><path fill="#845331" d="M16 19.548v4.602A1.85 1.85 0 0017.85 26h.007a1.85 1.85 0 001.655-1.023l1.253-2.505a9.98 9.98 0 001.023-3.896 12.585 12.585 0 01-4.935 1.395.954.954 0 01-.853-.423z"/><path fill="#505957" d="M14.5 30a.5.5 0 00-.5.5.5.5 0 00-.854-.354l-1 1a.5.5 0 00.708.708l.18-.18A.495.495 0 0013.5 32a.5.5 0 00.448-.276l.07-.139c.04.234.236.415.482.415a.5.5 0 00.5-.5v-1a.5.5 0 00-.5-.5z"/><path fill="#434C4B" d="M17.5 30a.5.5 0 01.5.5.5.5 0 01.854-.354l1 1a.5.5 0 01-.708.708l-.18-.18A.495.495 0 0118.5 32a.5.5 0 01-.448-.276l-.07-.139A.491.491 0 0117.5 32a.5.5 0 01-.5-.5v-1a.5.5 0 01.5-.5z"/><path fill="#DADDDC" d="M17.5 3c-.249 0-.487.231-.713.516-.403.51-1.172.51-1.575 0C14.987 3.231 14.749 3 14.5 3A2.5 2.5 0 0012 5.5c0 1.101 2.543 5.524 3.573 7.273a.494.494 0 00.853 0C17.457 11.024 20 6.601 20 5.5A2.5 2.5 0 0017.5 3z"/><path fill="#D1D4D4" d="M16.427 12.773C17.457 11.024 20 6.601 20 5.5A2.5 2.5 0 0017.5 3c-.249 0-.487.231-.713.516a.997.997 0 01-.787.383v9.118c.165 0 .33-.081.427-.244z"/><path fill="#F7C845" d="M17 7c0 .552-.448 2-1 2s-1-1.448-1-2a1 1 0 012 0z"/><path fill="#F0C13E" d="M17 7a1 1 0 00-1-1v3c.552 0 1-1.448 1-2z"/><circle cx="18" cy="17" r="1" fill="#845331"/><circle cx="14.5" cy="15.5" r=".5" fill="#96643B"/><path fill="#FFF" d="M15 5.5a1.5 1.5 0 01-3 0c0-.828 3-.828 3 0z"/><path fill="#F7F7F7" d="M20 5.5a1.5 1.5 0 01-3 0c0-.828 3-.828 3 0z"/><path fill="#FFD04D" d="M12.671 4.973a.975.975 0 00-.171.527 1 1 0 002 0 .975.975 0 00-.171-.527 3.712 3.712 0 00-1.658 0z"/><path fill="#F7C845" d="M19.329 4.973a.975.975 0 01.171.527 1 1 0 01-2 0c0-.198.072-.371.171-.527a3.712 3.712 0 011.658 0z"/><circle cx="13.5" cy="5.5" r=".5" fill="#373F3F"/><circle cx="18.5" cy="5.5" r=".5" fill="#2B3332"/><path fill="#DADDDC" d="M12.893 14c0 3.866-1.015 11-3.5 11-4.501 0-5.988-4.689-6.38-6.391A.498.498 0 013.502 18h1.391c0-3.866 2.015-7 4.5-7s3.5 1 3.5 3z"/><path fill="#434C4B" d="M4.893 18H3.502a.498.498 0 00-.489.609c.296 1.285 1.218 4.27 3.587 5.657C5.561 22.8 4.893 20.54 4.893 18z"/><path fill="#505957" d="M8.859 23.306c-.721-1.855.748-2.861.811-2.903a.5.5 0 00-.181-.907c-.062-.013-1.526-.323-1.598-1.539-.074-1.251 1.676-2.002 1.694-2.009.174-.073.293-.24.306-.429s-.083-.369-.247-.464c-.142-.085-1.39-.886-.788-2.382.389-.966 1.199-1.373 1.803-1.549A6.327 6.327 0 009.393 11c-.215 0-.424.031-.631.077a3.445 3.445 0 00-.833 1.224c-.554 1.377-.036 2.457.574 3.102-.708.456-1.685 1.324-1.609 2.614.066 1.12.834 1.805 1.559 2.167-.613.742-1.118 1.961-.526 3.485.211.542.496.96.815 1.289.211.022.425.042.651.042.268 0 .515-.097.749-.25-.47-.221-.968-.634-1.283-1.444z"/><path fill="#D1D4D4" d="M19.107 14c0 3.866 1.015 11 3.5 11 4.501 0 5.988-4.689 6.38-6.391a.498.498 0 00-.489-.609h-1.391c0-3.866-2.015-7-4.5-7s-3.5 1-3.5 3z"/><path fill="#373F3F" d="M27.107 18h1.391c.322 0 .561.295.489.609-.296 1.285-1.218 4.27-3.587 5.657C26.439 22.8 27.107 20.54 27.107 18z"/><path fill="#434C4B" d="M23.141 23.306c.721-1.855-.748-2.861-.811-2.903a.5.5 0 01.181-.907c.062-.013 1.526-.323 1.598-1.539.074-1.251-1.676-2.002-1.694-2.009-.174-.073-.293-.24-.306-.429s.083-.369.247-.464c.142-.085 1.39-.886.788-2.382-.389-.966-1.199-1.373-1.803-1.549A6.327 6.327 0 0122.607 11c.215 0 .424.031.631.077.327.312.624.705.833 1.224.554 1.377.036 2.457-.574 3.102.708.456 1.685 1.324 1.609 2.614-.066 1.12-.834 1.805-1.559 2.167.613.742 1.118 1.961.526 3.485-.211.542-.496.96-.815 1.289a6.192 6.192 0 01-.651.042c-.268 0-.515-.097-.749-.25.47-.221.968-.634 1.283-1.444z"/></svg>