<svg xmlns="http://www.w3.org/2000/svg" width="100%" height="100%" viewBox="-2.72 -2.72 37.44 37.44"><path fill="#FFAD68" d="M20.187 31.742l-1.892-.324a.497.497 0 01-.408-.409l-.324-1.891a.5.5 0 01.491-.585l1.977.333a.497.497 0 01.408.409l.324 1.891a.5.5 0 01-.491.584l-.085-.008z"/><path fill="#2B3332" d="M18.055 28.784c.014 0 .029.001.043.004l1.892.325a.25.25 0 01.204.204l.325 1.892a.25.25 0 01-.289.288l-1.892-.325a.25.25 0 01-.204-.204l-.325-1.892a.25.25 0 01.246-.292zm0-.5a.75.75 0 00-.739.877l.325 1.892a.75.75 0 00.612.612l1.892.325.042.007.085.003a.75.75 0 00.739-.877l-.325-1.892a.75.75 0 00-.612-.612l-1.892-.325-.042-.007-.085-.003z"/><path fill="#FFB76D" d="M11.812 31.742l1.892-.324a.497.497 0 00.408-.409l.324-1.891a.5.5 0 00-.491-.585l-1.977.333a.497.497 0 00-.408.409l-.324 1.891a.5.5 0 00.491.584l.085-.008z"/><path fill="#373F3F" d="M13.945 28.784a.25.25 0 01.246.292l-.325 1.892a.25.25 0 01-.204.204l-1.892.325a.25.25 0 01-.289-.288l.325-1.892a.25.25 0 01.204-.204l1.892-.325a.215.215 0 01.043-.004zm0-.5l-.086.004-.042.007-1.892.325a.75.75 0 00-.612.612l-.325 1.892a.75.75 0 00.74.876l.086-.004.042-.007 1.892-.325a.75.75 0 00.612-.612l.325-1.892a.75.75 0 00-.74-.876z"/><g fill="#2B3332"><path d="M22.676 24.806a.765.765 0 01-.639-.343l-4.398-6.65a.768.768 0 01.599-1.188l7.966-.414c.293 0 .53.127.673.339l4.401 6.653a.769.769 0 01-.6 1.188l-8.002.415z"/><path d="M26.39 16.738a.27.27 0 01.102.091l4.398 6.649a.266.266 0 01-.208.413l-7.962.414a.279.279 0 01-.134-.028.27.27 0 01-.102-.091l-4.398-6.649a.266.266 0 01.208-.413l7.962-.414a.279.279 0 01.134.028zm.48-.951a1.338 1.338 0 00-.669-.141l-7.962.414a1.337 1.337 0 00-1.12.73c-.215.426-.185.937.078 1.335l4.399 6.65a1.331 1.331 0 001.18.595l7.962-.414c.476-.025.905-.305 1.12-.73s.185-.937-.078-1.335l-4.398-6.649a1.344 1.344 0 00-.512-.455z"/></g><path fill="#F79654" d="M22.676 24.806a.765.765 0 01-.639-.343l-4.398-6.65a.768.768 0 01.599-1.188l7.966-.414c.293 0 .53.127.673.339l4.401 6.653a.769.769 0 01-.6 1.188l-8.002.415z"/><path fill="#2B3332" d="M26.39 16.738a.27.27 0 01.102.091l4.398 6.649a.266.266 0 01-.208.413l-7.962.414a.279.279 0 01-.134-.028.27.27 0 01-.102-.091l-4.398-6.649a.266.266 0 01.208-.413l7.962-.414a.279.279 0 01.134.028zm.48-.951a1.338 1.338 0 00-.669-.141l-7.962.414a1.337 1.337 0 00-1.12.73c-.215.426-.185.937.078 1.335l4.399 6.65a1.331 1.331 0 001.18.595l7.962-.414c.476-.025.905-.305 1.12-.73s.185-.937-.078-1.335l-4.398-6.649a1.344 1.344 0 00-.512-.455z"/><path fill="#FCA15E" d="M25.94 19.672l-7.938-.727a.766.766 0 01-.553-1.211l4.657-6.471a.773.773 0 01.624-.319l8.008.73a.766.766 0 01.553 1.21l-4.657 6.472a.765.765 0 01-.621.318l-.073-.002z"/><path fill="#373F3F" d="M22.619 11.469a.268.268 0 01.135-.023l7.939.727a.267.267 0 01.192.421l-4.657 6.471a.27.27 0 01-.241.11l-7.939-.727a.267.267 0 01-.192-.421l4.657-6.471a.256.256 0 01.106-.087zm-.443-.97a1.327 1.327 0 00-.528.434l-4.657 6.471c-.278.387-.329.897-.131 1.331s.616.73 1.09.774l7.94.727a1.337 1.337 0 001.202-.549l4.657-6.471c.278-.387.329-.897.131-1.331s-.616-.73-1.09-.774l-7.939-.727a1.35 1.35 0 00-.675.115z"/><path fill="#FCA15E" d="M1.322 24.391a.77.77 0 01-.645-.42.77.77 0 01.045-.768l4.398-6.649a.77.77 0 01.64-.344l8.002.415a.768.768 0 01.598 1.189l-4.397 6.648a.763.763 0 01-.639.344l-8.002-.415z"/><path fill="#373F3F" d="M5.744 16.71l7.962.414a.266.266 0 01.208.413l-4.398 6.649a.27.27 0 01-.102.091.257.257 0 01-.134.028l-7.962-.414a.266.266 0 01-.208-.413l4.398-6.649a.27.27 0 01.102-.091.279.279 0 01.134-.028zm-.614-.923a1.331 1.331 0 00-.511.454L.221 22.89c-.263.398-.293.909-.078 1.335s.644.705 1.12.73l7.962.414a1.338 1.338 0 001.18-.595l4.399-6.65c.263-.398.293-.909.078-1.335s-.644-.705-1.12-.73L5.8 15.645a1.35 1.35 0 00-.67.142z"/><path fill="#FFAD68" d="M5.987 19.675a.766.766 0 01-.623-.321L.709 12.886a.765.765 0 01.554-1.211l7.95-.728c.309 0 .538.119.68.315l4.658 6.472a.769.769 0 01-.554 1.211l-7.962.729-.048.001z"/><path fill="#434C4B" d="M9.487 11.555l4.657 6.471a.267.267 0 01-.192.421l-7.939.727a.27.27 0 01-.241-.109l-4.657-6.471a.267.267 0 01.192-.421l7.939-.727a.27.27 0 01.241.109zm.337-1.056a1.337 1.337 0 00-.674-.115l-7.94.727a1.332 1.332 0 00-.959 2.105l4.657 6.471a1.334 1.334 0 001.202.549l7.94-.727a1.332 1.332 0 00.959-2.105l-4.657-6.471a1.334 1.334 0 00-.528-.434z"/><path fill="#FFE28A" d="M16 11c-2.702 0-4 2.764-4 5 0 4 2 13 2 13 .188 1.138.846 3 2 3s1.812-1.862 2-3c0 0 2-9 2-13 0-2.236-1.298-5-4-5z"/><path fill="#FFEAA7" d="M16 32c-1.154 0-1.812-1.862-2-3 0 0-2-9-2-13 0-2.236 1.298-5 4-5v21z"/><path fill="#FFEAA7" d="M24.05.393c.156-.228-.119-.504-.348-.347l-5.777 4.27a.493.493 0 01-.411.079c-.529-.128-1.046-.199-1.514-.199s-.985.07-1.514.198a.496.496 0 01-.411-.079L8.298.045c-.229-.155-.505.12-.348.348l3.404 4.975a.488.488 0 01-.091.642C10.507 6.686 10 7.524 10 8.482c0 2.571 3.429 3.429 6 2.571 2.571.857 6 0 6-2.571 0-.958-.507-1.796-1.263-2.472a.49.49 0 01-.091-.642L24.05.393z"/><path fill="#FEF1C6" d="M14.486 4.395a.496.496 0 01-.411-.079L8.298.046c-.229-.156-.505.119-.348.347l3.404 4.975a.488.488 0 01-.091.642C10.507 6.686 10 7.524 10 8.482c0 2.571 3.429 3.429 6 2.571V4.196c-.468 0-.985.071-1.514.199z"/><path fill="#FFB76D" d="M12.5 8c0 1.105-.395 2-1.5 2a2 2 0 110-4c1.105 0 1.5.895 1.5 2z"/><path fill="#FFC172" d="M12.155 8c-.068 1.103-.422 1.591-1.281 1.578-.589-.009-1.031-.914-1.031-1.539 0-1.176.534-1.539 1.422-1.539.453 0 .951.5.89 1.5z"/><path fill="#373F3F" d="M11.75 8.035c0 .552-.224 1-.5 1s-.626-.448-.626-1 .287-.882.563-.882.563.33.563.882z"/><path fill="#FFAD68" d="M19.5 8c0 1.105.395 2 1.5 2a2 2 0 100-4c-1.105 0-1.5.895-1.5 2z"/><path fill="#FFB76D" d="M19.845 8c.068 1.103.422 1.591 1.281 1.578.589-.009 1.031-.914 1.031-1.539 0-1.176-.534-1.539-1.422-1.539-.453 0-.951.5-.89 1.5z"/><path fill="#2B3332" d="M20.25 8.035c0 .552.224 1 .5 1s.626-.448.626-1-.287-.882-.563-.882-.563.33-.563.882z"/><path fill="#FF6B8B" d="M14.906 8.06c-.042-.012.681.168 1.094.168v.799c-.345 0-.713-.133-1.117-.228l.023-.739zm-1.758-.281c.07-.033-.148.026-.148.221 0 .243.127.56.333.885.231-.101.448-.145.658-.164l-.843-.942z"/><path fill="#FF7899" d="M14.883 8.799l-.008.265a.25.25 0 01-.436.159l-.448-.501c-.21.019-.427.063-.658.164v.001c.116.183.262.368.429.545l.038.042a3.806 3.806 0 00.396.349 3.37 3.37 0 00.603.383c.038.019.079.032.118.05a2.823 2.823 0 00.54.178c.178.039.357.066.543.066V9.027c-.345 0-.713-.133-1.117-.228z"/><path fill="#FFF" d="M13.145 7.771l.846.951.448.501a.25.25 0 00.436-.159l.008-.265.023-.738c-.392-.098-1.581-.345-1.761-.29z"/><path fill="#FF5F7E" d="M17.117 8.799c-.404.095-.772.228-1.117.228v-.799c.413 0 1.136-.18 1.094-.167l.023.738zm.892-.077c.21.019.427.063.658.164C18.873 8.56 19 8.243 19 8c0-.195-.218-.254-.148-.221l-.843.943z"/><path fill="#FF6B8B" d="M17.117 8.799l.008.265a.25.25 0 00.436.159l.448-.501c.21.019.427.063.658.164v.001a3.667 3.667 0 01-.429.545l-.038.042c-.065.067-.136.13-.207.193a3.556 3.556 0 01-.189.156c-.06.047-.12.094-.183.137a3.37 3.37 0 01-.42.246c-.038.019-.079.032-.118.05a2.823 2.823 0 01-.54.178A2.52 2.52 0 0116 10.5V9.027c.345 0 .713-.133 1.117-.228z"/><path fill="#F7F7F7" d="M18.855 7.771l-.846.951-.448.501a.25.25 0 01-.436-.159l-.008-.265-.023-.738c.392-.098 1.581-.345 1.761-.29z"/><path fill="#434C4B" d="M26.515 15.646a.253.253 0 01-.042.379l-.415.283a.243.243 0 01-.316-.03c-.445-.482-1.242-.722-1.544-.516-.302.206-.369 1.036-.083 1.626a.245.245 0 01-.087.306l-.415.283a.253.253 0 01-.368-.098c-.357-.706-.421-1.689-.076-2.376a.254.254 0 00-.032-.289c-.87-.924-2.068-1.375-3.584-1.322-.285.01-.567.041-.843.083a.244.244 0 01-.201-.062 6.176 6.176 0 00-.488-.409.249.249 0 01.103-.442c1.918-.38 4.228-.188 5.82 1.59a.234.234 0 00.221.072c.797-.153 1.784.288 2.35.922zm-4.028 4.43a.233.233 0 01-.142-.184c-.313-2.367-2.113-3.827-3.912-4.594a.249.249 0 00-.334.307c.068.202.126.407.172.613a.239.239 0 00.131.164c.252.121.503.255.743.407 1.282.81 2.017 1.857 2.215 3.111a.254.254 0 01-.136.257c-.672.373-1.173 1.221-1.276 2.006a.253.253 0 00.249.288h.503c.12 0 .227-.085.244-.203.096-.649.619-1.297.984-1.297s.889.647.984 1.297a.244.244 0 00.244.203h.503a.254.254 0 00.249-.29c-.108-.841-.675-1.762-1.421-2.085z"/><path fill="#505957" d="M7.837 14.725a.232.232 0 00.221-.072c1.593-1.778 3.902-1.97 5.82-1.59.21.042.274.313.103.442-.17.128-.333.265-.488.409a.239.239 0 01-.201.062 7.358 7.358 0 00-.843-.083c-1.516-.053-2.713.397-3.584 1.322a.254.254 0 00-.032.289c.345.687.281 1.67-.076 2.376a.253.253 0 01-.368.098l-.415-.283a.244.244 0 01-.087-.306c.287-.59.219-1.42-.083-1.626-.302-.206-1.099.034-1.544.516a.243.243 0 01-.316.03l-.415-.283a.253.253 0 01-.042-.379c.564-.635 1.551-1.076 2.35-.922zm.253 7.438c-.02.153.095.29.249.29h.503c.12 0 .227-.085.244-.203.096-.649.619-1.297.984-1.297.366 0 .889.647.984 1.297a.244.244 0 00.244.203h.503a.253.253 0 00.249-.288c-.103-.785-.604-1.632-1.276-2.006a.254.254 0 01-.136-.257c.198-1.254.933-2.301 2.215-3.111.241-.152.491-.286.743-.407a.241.241 0 00.131-.164c.047-.206.104-.411.172-.613a.249.249 0 00-.334-.307c-1.798.767-3.598 2.227-3.912 4.594a.233.233 0 01-.142.184c-.744.321-1.311 1.242-1.421 2.085z"/></svg>