<svg xmlns="http://www.w3.org/2000/svg" width="100%" height="100%" viewBox="-2.72 -2.72 37.44 37.44"><path fill="#edeeee" d="M19.351 19.31c.032-.095.079-.164.143-.022a2.026 2.026 0 003.019.565 1.722 1.722 0 00.467-.59.423.423 0 01.323-.272 2.51 2.51 0 001.176-.659 1.7 1.7 0 00.378-1.855 1.339 1.339 0 00-1.242-.912 10.395 10.395 0 00-.917 1.281c-.313.437-.306.447-.74.121-.145-.109-.274-.238-.41-.358a3.43 3.43 0 01-.424-1.459.093.093 0 01.001-.03c.114-.292.089-.702.365-.851.262-.14.63-.008.946-.089a.975.975 0 01.21-.008 10.856 10.856 0 00-2.331-5.735 4.064 4.064 0 00-.662-.67 6.652 6.652 0 00-2.023-1.374l-.136-.062a.832.832 0 01.118-.085 1.846 1.846 0 00.863-2.584 4.37 4.37 0 00-1.173-1.384.346.346 0 01-.1-.534c.06-.094.108-.195.17-.287a.284.284 0 00.006-.342A3.476 3.476 0 0016-.001v12.84a4.638 4.638 0 001.656-.418 1.808 1.808 0 01.878-.205.605.605 0 01.556.835 1.5 1.5 0 01-.785.773 3.682 3.682 0 01-1.572.414 2.207 2.207 0 01-.733.06v6.698a4.016 4.016 0 002.862-.926 1.824 1.824 0 00.49-.76zm.252-9.214c.228-.3.23-.302.493-.025a1.647 1.647 0 01.328.368 2.744 2.744 0 01-.504.608c-.132.006-.183-.111-.259-.185-.367-.358-.366-.36-.058-.766zm-1.31.747a.791.791 0 01-1.38-.02 1.71 1.71 0 01.004-1.788.79.79 0 011.38-.007 1.714 1.714 0 01-.004 1.815zm.195 6.162a3.176 3.176 0 01-.786.82 5.271 5.271 0 01-1.06-1.392.107.107 0 01.013-.139 8.54 8.54 0 011.048-1.25c.384.13.553.489.789.767.493.584.487.599-.004 1.194z"/><path fill="#a78edd" d="M17.813 25.933a.82.82 0 00.118.132q1.008-1.94 2.017-3.877c.03-.057.048-.152.147-.07.09-.081.196-.206.305-.165.109.042.084.209.104.323a8.072 8.072 0 00.288 1.276c.072.202.103.491.374.495.246.003.3-.268.39-.456.2-.413.254-.872.412-1.299l.13-.992.008-.107a.31.31 0 01.104-.194 4.024 4.024 0 00.303-1.146 2.026 2.026 0 01-3.02-.565c-.063-.142-.11-.073-.142.022a1.824 1.824 0 01-.489.76 4.016 4.016 0 01-2.862.926v1.79a10.896 10.896 0 01.742 1.256c.364.626.713 1.261 1.071 1.89z"/><path fill="#b8a5e4" d="M24.952 5.042a.79.79 0 00-.027-1.392.973.973 0 00-1.524.244.404.404 0 01-.423.206 1.442 1.442 0 00-.334.007.773.773 0 00-.811.78c-.043.393-.031.793-.074 1.186-.088.793-.274.986-1.056 1.14a1.573 1.573 0 00-.876.456c-.048.052-.088.116-.174.098a4.064 4.064 0 01.662.67.729.729 0 01.765-.383 6.304 6.304 0 01.864.176 1.455 1.455 0 001.728-.849.748.748 0 01.349-.367c.188-.098.382-.186.571-.284.547-.285.671-.722.286-1.192-.2-.244-.137-.325.074-.496z"/><path fill="#c6b7e9" d="M25.999 21.486c.036-.302-.143-.44-.454-.416a.906.906 0 00-.266.058c-.133.054-.202.035-.28-.104a1.24 1.24 0 00-1.159-.64c-.363-.008-.651.273-1.016.2-.018-.002-.062.035-.064.055-.021.297-.314.294-.474.435l-.106.124c-.02.039-.025.092-.082.102l-.13.992a1.607 1.607 0 00.36.556c.063.058.118.103.026.194-.16.157-.093.321.036.456a1.013 1.013 0 00.96.403c.098-.02.148.037.216.076a.825.825 0 001.139-.253c.06-.09.098-.136.23-.124a1.03 1.03 0 001.117-1.16 3.946 3.946 0 01-.053-.954z"/><path fill="#a78edd" d="M17.497 30.561a19.38 19.38 0 001.042-2.71 4.386 4.386 0 01-.404-.996c-.077-.196-.135-.399-.202-.599-.068-.096-.103-.078-.158.023a149.94 149.94 0 01-.966 1.757c-.268.481-.54.96-.809 1.44V32a1.375 1.375 0 00.935-.539 4.669 4.669 0 00.562-.899z"/><path fill="#c6b7e9" d="M19.948 22.188q-1.01 1.938-2.017 3.877l.002.191c.067.2.125.403.202.6a4.386 4.386 0 00.404.994c.2-.657.41-1.312.596-1.973.35-1.246.727-2.485.96-3.76-.099-.08-.118.014-.147.07zm1.026 4.692a.377.377 0 01-.284-.03.67.67 0 00-.845.064.79.79 0 00-.224.862.897.897 0 01.056.162c-.312.174-.05.366-.014.542.068.326.239.447.588.446.532-.001.942-.25.986-.63a.554.554 0 01.214-.408.55.55 0 00.127-.718.495.495 0 00-.604-.29z"/><path fill="#a78edd" d="M23.071 15.03l-.06.06h-.001l-1.244 1.272c-.076.079-.146.165-.218.247.136.12.265.25.41.358.434.326.427.316.74-.121a10.395 10.395 0 01.917-1.281c.04-.249.239-.41.345-.623.102-.207.216-.41.088-.648z"/><path fill="#c6b7e9" d="M23.781 14.172c-.378-.002-.756 0-1.135 0a.975.975 0 00-.21.008c-.316.081-.684-.052-.946.089-.276.149-.25.559-.365.851a.093.093 0 000 .03 1.298 1.298 0 01.65-.058c.411-.01.823-.002 1.235-.002l.061-.06.977-.736c-.038-.15-.162-.121-.267-.122z"/><path fill="#e1e6da" d="M22.106 21.193l.074.005.106-.124-.076-.075a.31.31 0 00-.104.194z"/><path fill="#58458c" d="M18.534 12.216a1.808 1.808 0 00-.878.205A4.638 4.638 0 0116 12.84v1.458a2.207 2.207 0 00.733-.06 3.682 3.682 0 001.572-.414 1.5 1.5 0 00.785-.773.605.605 0 00-.556-.835z"/><path fill="#b8a5e4" d="M16.917 9.035a1.71 1.71 0 00-.004 1.787.791.791 0 001.38.02 1.714 1.714 0 00.004-1.814.79.79 0 00-1.38.007zm.558 1.718c-.315-.009-.57-.392-.568-.856.002-.464.26-.845.576-.848.317-.002.578.375.582.841.005.48-.264.873-.59.863zm.228 4.291a8.54 8.54 0 00-1.048 1.25.107.107 0 00-.013.14 5.271 5.271 0 001.06 1.39 1.914 1.914 0 01.162-.79 1.972 1.972 0 00-.042-1.374 1.478 1.478 0 01-.119-.616z"/><path fill="#a78edd" d="M17.703 15.044a1.478 1.478 0 00.119.616 1.972 1.972 0 01.042 1.374 1.914 1.914 0 00-.162.79 3.176 3.176 0 00.786-.82c.49-.594.497-.61.004-1.193-.236-.278-.405-.637-.789-.767z"/><path fill="#b8a5e4" d="M21.124 15.15a3.43 3.43 0 00.424 1.46c.072-.083.142-.17.218-.248q.62-.637 1.244-1.272c-.412 0-.824-.008-1.235.002a1.298 1.298 0 00-.65.058zm-1.028-5.079c-.263-.277-.265-.275-.493.025-.308.406-.31.408.058.766.076.074.127.19.26.185a2.744 2.744 0 00.503-.608 1.647 1.647 0 00-.328-.368zm-2.321 16.208c.055-.1.09-.118.158-.023l-.002-.191a.82.82 0 01-.118-.132c-.358-.63-.706-1.265-1.071-1.891A10.896 10.896 0 0016 22.785v6.691c.27-.48.541-.959.809-1.44.325-.584.649-1.169.966-1.757z"/><path fill="#f5f7f3" d="M22.098 21.3c.057-.01.061-.063.082-.102l-.074-.005z"/><path fill="#507519" d="M23.01 15.09l.061-.06z"/><path fill="#58458c" d="M17.483 9.05c-.316.002-.574.383-.576.847-.001.464.253.847.568.856.326.01.595-.382.59-.863-.004-.466-.265-.843-.582-.84z"/><path fill="#f7f7f7" d="M13.138 20.072a4.016 4.016 0 002.862.926v-6.697a2.207 2.207 0 01-.733-.06 3.682 3.682 0 01-1.572-.414 1.5 1.5 0 01-.785-.774.605.605 0 01.556-.835 1.808 1.808 0 01.878.206 4.637 4.637 0 001.656.418V.002a3.476 3.476 0 00-1.378 1.115.284.284 0 00.006.342c.062.092.11.193.17.287a.346.346 0 01-.1.534 4.37 4.37 0 00-1.173 1.384 1.846 1.846 0 00.863 2.585.832.832 0 01.118.085l-.136.061a6.652 6.652 0 00-2.023 1.374 4.064 4.064 0 00-.662.67 10.856 10.856 0 00-2.331 5.736.975.975 0 01.21.008c.316.08.684-.052.946.088.276.149.25.559.365.852a.093.093 0 010 .03 3.43 3.43 0 01-.423 1.459c-.136.12-.265.249-.41.357-.434.326-.427.316-.74-.12a10.395 10.395 0 00-.917-1.282 1.339 1.339 0 00-1.242.913 1.7 1.7 0 00.377 1.855 2.51 2.51 0 001.177.659.423.423 0 01.323.271 1.722 1.722 0 00.467.59 2.026 2.026 0 003.02-.564c.063-.143.11-.073.142.022a1.824 1.824 0 00.489.759zm-.799-9.207c-.076.073-.127.19-.26.185a2.744 2.744 0 01-.503-.608 1.647 1.647 0 01.328-.368c.263-.278.265-.275.493.025.308.405.31.407-.058.766zm1.364-1.835a.79.79 0 011.38.008 1.71 1.71 0 01.004 1.787.791.791 0 01-1.38.02 1.714 1.714 0 01-.004-1.815zm-.195 6.784c.236-.279.405-.637.789-.767a8.54 8.54 0 011.048 1.25.107.107 0 01.013.139 5.271 5.271 0 01-1.06 1.39 3.176 3.176 0 01-.786-.819c-.49-.595-.497-.61-.004-1.193z"/><path fill="#b8a5e4" d="M14.187 25.935a.82.82 0 01-.118.132l-2.017-3.877c-.03-.057-.048-.151-.147-.07-.09-.08-.196-.206-.305-.164-.109.041-.084.208-.104.323a8.072 8.072 0 01-.288 1.275c-.072.203-.103.492-.374.495-.246.004-.3-.268-.391-.455-.199-.413-.253-.873-.41-1.3l-.132-.991-.007-.108a.31.31 0 00-.104-.194 4.024 4.024 0 01-.303-1.145 2.026 2.026 0 003.02-.565c.063-.143.11-.073.142.022a1.824 1.824 0 00.489.759 4.016 4.016 0 002.862.926v1.79a10.896 10.896 0 00-.742 1.256c-.364.626-.713 1.261-1.071 1.891z"/><path fill="#d4c9ef" d="M7.048 5.045a.79.79 0 01.027-1.392.973.973 0 011.523.243.404.404 0 00.423.207 1.442 1.442 0 01.335.007.773.773 0 01.811.78c.043.393.031.792.074 1.186.088.792.274.985 1.056 1.14a1.573 1.573 0 01.876.456c.048.051.088.116.174.097a4.064 4.064 0 00-.662.67.729.729 0 00-.765-.383 6.304 6.304 0 00-.864.176 1.455 1.455 0 01-1.728-.848.748.748 0 00-.349-.367c-.188-.099-.382-.186-.571-.284-.547-.285-.671-.722-.286-1.193.2-.244.137-.325-.074-.495zM6.001 21.488c-.036-.301.143-.439.454-.416a.906.906 0 01.266.058c.133.054.202.036.28-.104a1.24 1.24 0 011.159-.64c.363-.008.651.274 1.016.201.018-.003.062.034.064.055.021.296.314.293.474.434l.106.124c.02.04.025.092.082.103l.13.992a1.607 1.607 0 01-.36.556c-.063.058-.118.102-.026.193.16.157.093.321-.036.456a1.013 1.013 0 01-.96.404c-.098-.02-.148.037-.216.075a.825.825 0 01-1.139-.252c-.06-.09-.098-.136-.23-.124a1.03 1.03 0 01-1.117-1.16 3.946 3.946 0 00.053-.955z"/><path fill="#b8a5e4" d="M14.503 30.564a19.38 19.38 0 01-1.042-2.711 4.386 4.386 0 00.404-.995c.077-.196.135-.4.202-.6.068-.095.103-.077.158.023.317.589.641 1.173.966 1.758.268.481.54.96.809 1.44V32a1.375 1.375 0 01-.935-.539 4.669 4.669 0 01-.562-.898z"/><path fill="#e3dbf4" d="M12.052 22.19q1.01 1.938 2.017 3.877l-.002.192c-.067.2-.125.403-.202.599a4.386 4.386 0 01-.404.995c-.2-.658-.41-1.312-.596-1.974-.35-1.245-.727-2.484-.96-3.76.099-.08.118.014.147.071z"/><path fill="#d4c9ef" d="M11.026 26.882a.377.377 0 00.284-.03.67.67 0 01.845.064.79.79 0 01.224.862.896.896 0 00-.056.162c.312.175.05.367.014.542-.068.327-.239.448-.588.447-.532-.002-.942-.25-.986-.631a.554.554 0 00-.214-.408.55.55 0 01-.127-.717.495.495 0 01.604-.291z"/><path fill="#b8a5e4" d="M8.929 15.033l.06.059h.001l1.244 1.273c.076.078.146.164.218.247-.136.12-.265.249-.41.357-.434.326-.427.316-.74-.12a10.395 10.395 0 00-.917-1.282c-.04-.248-.239-.41-.345-.622-.102-.207-.216-.41-.088-.648z"/><path fill="#e3dbf4" d="M8.219 14.174c.378-.002.756 0 1.135 0a.975.975 0 01.21.009c.316.08.684-.052.946.088.276.149.25.56.365.852a.093.093 0 010 .03 1.298 1.298 0 00-.65-.059c-.411-.01-.823-.002-1.235-.001v-.001l-.061-.06-.977-.735c.038-.151.162-.122.267-.123z"/><path fill="#e1e6da" d="M9.894 21.195l-.074.005-.106-.124.076-.075a.31.31 0 01.104.194z"/><path fill="#6e57a0" d="M13.466 12.218a1.808 1.808 0 01.878.206 4.637 4.637 0 001.656.418v1.459a2.207 2.207 0 01-.733-.06 3.682 3.682 0 01-1.572-.414 1.5 1.5 0 01-.785-.774.605.605 0 01.556-.835z"/><path fill="#d4c9ef" d="M13.703 9.03a1.714 1.714 0 00.004 1.815.791.791 0 001.38-.02 1.71 1.71 0 00-.004-1.787.79.79 0 00-1.38-.008zm.232.863c.004-.466.265-.844.582-.841.316.002.574.383.576.848.001.463-.253.847-.568.856-.326.01-.595-.383-.59-.863z"/><path fill="#c6b7e9" d="M14.297 15.047a8.54 8.54 0 011.048 1.25.107.107 0 01.013.139 5.271 5.271 0 01-1.06 1.39 1.914 1.914 0 00-.162-.79 1.972 1.972 0 01.042-1.374 1.478 1.478 0 00.119-.615z"/><path fill="#b8a5e4" d="M14.297 15.047a1.478 1.478 0 01-.119.615 1.972 1.972 0 00-.042 1.375 1.914 1.914 0 01.162.79 3.176 3.176 0 01-.786-.82c-.49-.595-.497-.61-.004-1.193.236-.279.405-.637.789-.767z"/><path fill="#c6b7e9" d="M10.876 15.153a3.43 3.43 0 01-.424 1.459c-.072-.083-.142-.169-.218-.247q-.62-.638-1.244-1.272c.412 0 .824-.009 1.235.001a1.298 1.298 0 01.65.059z"/><path fill="#d4c9ef" d="M11.904 10.074c.263-.278.265-.275.493.025.308.405.31.407-.058.766-.076.073-.127.19-.26.185a2.744 2.744 0 01-.503-.608 1.647 1.647 0 01.328-.368z"/><path fill="#c6b7e9" d="M14.225 26.281c-.055-.1-.09-.118-.158-.022l.002-.192a.82.82 0 00.118-.132c.358-.63.706-1.265 1.071-1.89A10.896 10.896 0 0116 22.787v6.69c-.27-.48-.541-.958-.809-1.44-.325-.584-.649-1.168-.966-1.757z"/><path fill="#f5f7f3" d="M9.902 21.303c-.057-.01-.061-.064-.082-.103l.074-.005z"/><path fill="#507519" d="M8.99 15.092l-.061-.06z"/><path fill="#6e57a0" d="M14.517 9.052c.316.002.574.383.576.848.001.463-.253.847-.568.856-.326.01-.595-.383-.59-.863.004-.466.265-.844.582-.841z"/></svg>