<svg xmlns="http://www.w3.org/2000/svg" width="100%" height="100%" viewBox="-2.72 -2.72 37.44 37.44"><path fill="#ACD7DD" d="M3.535 11.001c1.138.072 3.955.601 7.176 3.821l-3.889 3.889c-3.221-3.221-3.75-6.038-3.821-7.176a.5.5 0 01.534-.534z"/><path fill="#434C4B" d="M8.744 14.479L3.185 19.41c-.551.786.215 1.822 1.128 1.525l6.118-1.986-1.687-4.47zm5.85 11.997l-1.623 4.842c-.305.91-1.593.909-1.897-.001l-1.615-4.84h5.135z"/><path fill="#373F3F" d="M17.406 26.476l1.623 4.842c.305.91 1.593.909 1.897-.001l1.615-4.84h-5.135z"/><path fill="#434C4B" d="M16 13.453H8v10.399a5 5 0 005 5h6a5 5 0 005-5V13.453h-8z"/><path fill="#A5D1D8" d="M28.465 11.001c-1.138.072-3.955.601-7.176 3.821l3.889 3.889c3.221-3.221 3.75-6.038 3.821-7.176a.5.5 0 00-.534-.534z"/><path fill="#373F3F" d="M23.256 14.479l5.559 4.931c.551.786-.215 1.822-1.128 1.525l-6.118-1.986 1.687-4.47z"/><path fill="#373F3F" d="M19 28.852h-3V13.453h8v10.399a5 5 0 01-5 5z"/><path fill="#F7C845" d="M16 26.75V10.547l3.937-.734s3.35 1.623 3.688 7.562c.312 5.5-2.813 9.375-7.625 9.375z"/><path fill="#B8A5E4" d="M16 24.062V10.547l3.937-.734s3.25 1.875 3.25 8.75c0 3.644-4.687 5.499-7.187 5.499z"/><path fill="#FFD04D" d="M16 19.062v-8.516l3.937-.734s1.63 1.751 2.625 5.375c.271.986-2.437 3.875-6.562 3.875zm0 7.688V10.547l-3.938-.734s-3.379 2.927-3.5 8.875C8.5 21.75 10.5 26.75 16 26.75z"/><path fill="#C6B7E9" d="M16 24.062V10.547l-3.938-.734s-3.188 1.625-3.25 8.75C8.781 22.207 13.5 24.062 16 24.062z"/><path fill="#FFD96C" d="M16 19.062v-8.516l-3.938-.734s-1.63 1.751-2.625 5.375c-.27.986 2.438 3.875 6.563 3.875z"/><path fill="#529CCF" d="M17.671 29.013a1 1 0 01.714-1.221l2.902-.76a1 1 0 01.507 1.935l-2.902.76a1 1 0 01-1.221-.714z"/><path fill="#5CA3D5" d="M14.329 29.013a1 1 0 00-.714-1.221l-2.902-.76a1 1 0 00-.507 1.935l2.902.76a1 1 0 001.221-.714z"/><path fill="#529CCF" d="M24 21a1 1 0 01-1-1v-4a1 1 0 012 0v4a1 1 0 01-1 1z"/><path fill="#5CA3D5" d="M8 21a1 1 0 001-1v-4a1 1 0 00-2 0v4a1 1 0 001 1z"/><ellipse cx="16" cy="9.672" fill="#D4C9EF" rx="8" ry="6"/><path fill="#C6B7E9" d="M16 3.672v12c4.418 0 8-2.686 8-6s-3.582-6-8-6z"/><path fill="#F7F7F7" d="M21.193 7.027a5.635 5.635 0 00-1.033.229c-.505.165-1.064.433-1.517.886-.082.082-.146.173-.217.261a2.1 2.1 0 011.631 1.704c.102-.079.206-.155.3-.25.443-.443.71-.987.876-1.484.143-.426.209-.815.24-1.07a.25.25 0 00-.28-.276z"/><path fill="#0F769B" d="M18.426 8.403c-.638.795-.837 1.798-.899 2.292a.247.247 0 00.277.278c.486-.06 1.465-.254 2.254-.867a2.109 2.109 0 00-.586-1.136 2.122 2.122 0 00-1.046-.567z"/><ellipse cx="18.808" cy="9.702" fill="#2B3332" rx=".5" ry=".667"/><path fill="#FFF" d="M13.357 8.143c-.453-.453-1.012-.721-1.517-.886l-.006.004.003-.004a5.552 5.552 0 00-1.033-.229.25.25 0 00-.281.276c.031.254.098.644.24 1.07.001-.003.006-.003.007-.006l-.003.006c.166.497.433 1.041.876 1.484.094.094.198.17.3.25a2.105 2.105 0 011.631-1.704c-.07-.089-.135-.179-.217-.261z"/><path fill="#137FA0" d="M13.574 8.403c.638.795.837 1.798.899 2.292a.247.247 0 01-.277.278c-.486-.06-1.465-.254-2.254-.867.072-.416.265-.814.586-1.136a2.122 2.122 0 011.046-.567z"/><ellipse cx="13.192" cy="9.702" fill="#373F3F" rx=".5" ry=".667"/><path fill="#A93949" d="M16 12.949v-.3s-1.103-.077-1.959-.609c-.198-.123-.443.059-.375.282.144.469.402 1.071.85 1.515.252-.523.821-.888 1.484-.888z"/><path fill="#9A3644" d="M17.484 13.837c.448-.444.706-1.046.85-1.515.069-.223-.176-.405-.375-.282-.856.532-1.959.609-1.959.609v.3c.663 0 1.232.365 1.484.888z"/><path fill="#ED8C86" d="M16 12.949c-.663 0-1.232.366-1.484.888.36.356.839.612 1.484.612v-1.5z"/><path fill="#EC8179" d="M16 12.949v1.5c.645 0 1.124-.256 1.484-.612-.252-.523-.821-.888-1.484-.888z"/><path fill="#65A9DC" d="M8 9.672c0-3.314 3.582-6 8-6V0C9.832 0 5 4.626 5 9.672c0 1.42.391 2.746 1.083 3.924.005.013.003.027.011.039.232.356.612 1.106 1.506 1.871l.002.001.006.006.001-.001c.845.72 2.016 1.3 3.235 1.3 1.594 0 2.462-1.483 2.462-1.483-.904-.293-2.366-.939-3.36-1.78a5.992 5.992 0 01-.186-.168 4.132 4.132 0 01-.274-.271C8.559 12.139 8 10.96 8 9.672z"/><path fill="#5CA3D5" d="M27 9.672C27 4.626 22.168 0 16 0v3.672c4.418 0 8 2.686 8 6 0 1.276-.549 2.444-1.46 3.41l-.012.011a4.33 4.33 0 01-.326.323 6.26 6.26 0 01-.121.109c-.995.853-2.477 1.509-3.391 1.804 0 0 .868 1.483 2.462 1.483 1.22 0 2.392-.581 3.237-1.302l.002.003c.016-.015.029-.032.045-.048.86-.751 1.237-1.481 1.465-1.831.006-.009.004-.02.008-.03A7.658 7.658 0 0027 9.672z"/><path fill="#FFC550" d="M9.675 6.786c-.195 0-.401-.037-.613-.113-.588-.21-.921-.667-.938-1.287-.027-1.001.773-2.142 1.853-2.681-.509-.602-1.41-1.229-2.962-1.268a.25.25 0 01-.244-.255c.004-.139.092-.252.256-.244 1.846.046 2.878.849 3.436 1.573.818-.254 2.173-.301 3.612 1.19a.25.25 0 01-.36.348c-.931-.964-1.968-1.348-2.961-1.101.088.154.154.295.202.411.459 1.109.347 2.339-.273 2.991a1.355 1.355 0 01-1.008.436zm.599-3.669c-1.047.481-1.67 1.531-1.65 2.255.011.411.215.69.606.83.442.159.82.09 1.091-.196.481-.505.554-1.538.174-2.456a3.075 3.075 0 00-.221-.433z"/><path fill="#FFD96C" d="M9.675 6.786c-.195 0-.401-.037-.613-.113-.588-.21-.921-.667-.938-1.287-.027-1.001.773-2.142 1.853-2.681-.509-.602-1.41-1.229-2.962-1.268a.25.25 0 01-.244-.255c.004-.139.092-.252.256-.244 1.846.046 2.878.849 3.436 1.573.818-.254 2.173-.301 3.612 1.19a.25.25 0 01-.36.348c-.931-.964-1.968-1.348-2.961-1.101.088.154.154.295.202.411.459 1.109.347 2.339-.273 2.991a1.355 1.355 0 01-1.008.436zm.599-3.669c-1.047.481-1.67 1.531-1.65 2.255.011.411.215.69.606.83.442.159.82.09 1.091-.196.481-.505.554-1.538.174-2.456a3.075 3.075 0 00-.221-.433zm12.051 3.669c-.387 0-.734-.147-1.008-.436-.62-.652-.733-1.882-.273-2.991a3.63 3.63 0 01.202-.411c-.991-.247-2.031.137-2.961 1.101a.25.25 0 11-.36-.348c1.438-1.491 2.793-1.444 3.612-1.19.558-.725 1.59-1.527 3.436-1.573h.006a.25.25 0 01.006.5c-1.552.039-2.453.666-2.962 1.268 1.08.539 1.88 1.68 1.853 2.681-.017.62-.35 1.077-.938 1.287a1.841 1.841 0 01-.613.112zm-.599-3.669a3.022 3.022 0 00-.221.433c-.38.918-.307 1.951.174 2.456.271.286.648.354 1.091.196.391-.14.595-.419.606-.83.02-.724-.603-1.773-1.65-2.255z"/><path fill="#FFD04D" d="M22.325 6.786c-.387 0-.734-.147-1.008-.436-.62-.652-.733-1.882-.273-2.991a3.63 3.63 0 01.202-.411c-.991-.247-2.031.137-2.961 1.101a.25.25 0 11-.36-.348c1.438-1.491 2.793-1.444 3.612-1.19.558-.725 1.59-1.527 3.436-1.573h.006a.25.25 0 01.006.5c-1.552.039-2.453.666-2.962 1.268 1.08.539 1.88 1.68 1.853 2.681-.017.62-.35 1.077-.938 1.287a1.841 1.841 0 01-.613.112zm-.599-3.669a3.022 3.022 0 00-.221.433c-.38.918-.307 1.951.174 2.456.271.286.648.354 1.091.196.391-.14.595-.419.606-.83.02-.724-.603-1.773-1.65-2.255z"/></svg>