<svg xmlns="http://www.w3.org/2000/svg" width="100%" height="100%" viewBox="-2.72 -2.72 37.44 37.44"><path fill="#434c4b" d="M2.958 27.62c.558 2.858 2.246 3.211 4.073 3.258a4.899 4.899 0 012.226-4.072c-2.982 1.062-5.238 1.474-6.299.814z"/><path fill="#c84054" d="M4.37 13.72c-.063.045-.113.095-.175.14a5.494 5.494 0 012.124 5.488c-.48 2.976-2.922 5.056-5.453 4.647a3.94 3.94 0 01-.652-.186 5.603 5.603 0 002.744 3.811c1.06.66 3.317.248 6.299-.814a5.385 5.385 0 01-.652-6.63v-.023a8.615 8.615 0 015.322-7.384c-.016-1.863.755-3.875 2.04-6.272V1.122c-4.864 0-8.944 4.542-11.597 12.597z"/><path fill="#505957" d="M4.195 13.86c-.319.24-.61.487-.888.74a4.785 4.785 0 011.566 4.514C4.46 21.667 2.366 23.451.195 23.1c-.044-.007-.084-.027-.127-.036.039.253.085.504.146.745a3.94 3.94 0 00.652.186c2.531.409 4.973-1.671 5.453-4.647a5.494 5.494 0 00-2.124-5.487z"/><path fill="#c84054" d="M4.873 19.114A4.785 4.785 0 003.307 14.6a9.44 9.44 0 00-3.24 8.464c.045.009.084.03.128.036 2.171.351 4.266-1.433 4.678-3.986z"/><path fill="#505957" d="M13.927 12.77a8.615 8.615 0 00-5.322 7.383v.023c1.158-2.082 3.54-4.16 7.362-5.835V6.497c-1.285 2.397-2.056 4.41-2.04 6.272z"/><path fill="#d84459" d="M8.266 25.364l3.163.682 4.538 4.344V14.34c-7.153 3.135-9.31 7.676-7.7 11.023z"/><path fill="#434c4b" d="M15.967 30.39l-4.538-4.344-3.163-.682a5.752 5.752 0 00.99 1.442c1.28 2.413 4.562 3.584 6.711 3.584z"/><path fill="#e85160" d="M9.773 19.421c-1.164 0-2.152 1.13-2.55 2.718a8.256 8.256 0 005.292 1.54c0-2.351-1.228-4.258-2.742-4.258z"/><path fill="#ffd96c" d="M7.03 23.68c0 2.352 1.228 4.258 2.743 4.258s2.742-1.906 2.742-4.258a8.256 8.256 0 01-5.292-1.541 6.328 6.328 0 00-.192 1.54z"/><path fill="#373f3f" d="M8.266 24.362c0 1.23.635 2.227 1.419 2.227s1.418-.997 1.418-2.227a3.346 3.346 0 00-.094-.776 8.44 8.44 0 01-2.409-.643 3.042 3.042 0 00-.334 1.42z"/><circle cx="9.672" cy="24.312" r=".632" fill="#edeeee"/><path fill="#e85160" d="M7.926 10.136C8.517 9.35 3.589 4.305 2.04 3.98c-.622 0 1.869 3.744 4.67 7.487.03-.471.379-.919 1.215-1.33z"/><path fill="#5c6664" d="M11.675 13.72c-1.31-2.113-2.957-3.97-3.75-3.584-.835.411-1.185.859-1.214 1.33a119.425 119.425 0 002.864 3.681c.608-1.115 1.322-1.496 2.1-1.428z"/><path fill="#e85160" d="M11.675 13.72c-.778-.07-1.492.312-2.1 1.427 1.77 2.179 3.263 3.807 3.673 3.807.848-.415-.17-2.971-1.573-5.235z"/><path fill="#373f3f" d="M28.977 27.62c-.558 2.858-2.246 3.211-4.073 3.258a4.899 4.899 0 00-2.226-4.072c2.982 1.062 5.238 1.474 6.299.814z"/><path fill="#b93d4f" d="M27.565 13.72c.063.045.113.095.175.14a5.494 5.494 0 00-2.125 5.488c.48 2.976 2.923 5.056 5.454 4.647a3.94 3.94 0 00.652-.186 5.603 5.603 0 01-2.744 3.811c-1.061.66-3.317.248-6.3-.814a5.385 5.385 0 00.652-6.63v-.023a8.615 8.615 0 00-5.321-7.384c.016-1.863-.755-3.875-2.04-6.272V1.122c4.864 0 8.944 4.542 11.597 12.597z"/><path fill="#434c4b" d="M27.74 13.86c.318.24.61.487.888.74a4.785 4.785 0 00-1.566 4.514c.412 2.553 2.506 4.337 4.678 3.986.044-.007.083-.027.127-.036-.04.253-.086.504-.146.745a3.94 3.94 0 01-.652.186c-2.531.409-4.973-1.671-5.454-4.647a5.494 5.494 0 012.125-5.487z"/><path fill="#b93d4f" d="M27.062 19.114a4.785 4.785 0 011.566-4.514 9.44 9.44 0 013.239 8.464c-.044.009-.083.03-.127.036-2.172.351-4.266-1.433-4.678-3.986z"/><path fill="#434c4b" d="M18.008 12.77a8.615 8.615 0 015.321 7.383v.023c-1.158-2.082-3.539-4.16-7.362-5.835V6.497c1.286 2.397 2.057 4.41 2.04 6.272z"/><path fill="#c84054" d="M23.668 25.364l-3.162.682-4.539 4.344V14.34c7.154 3.135 9.31 7.676 7.701 11.023z"/><path fill="#373f3f" d="M15.967 30.39l4.539-4.344 3.162-.682a5.752 5.752 0 01-.99 1.442c-1.28 2.413-4.562 3.584-6.71 3.584z"/><path fill="#d84459" d="M22.162 19.421c1.163 0 2.152 1.13 2.55 2.718a8.256 8.256 0 01-5.292 1.54c0-2.351 1.227-4.258 2.742-4.258z"/><path fill="#ffd04d" d="M24.904 23.68c0 2.352-1.228 4.258-2.742 4.258s-2.742-1.906-2.742-4.258a8.256 8.256 0 005.292-1.541 6.328 6.328 0 01.192 1.54z"/><path fill="#2b3332" d="M23.668 24.362c0 1.23-.635 2.227-1.418 2.227s-1.418-.997-1.418-2.227a3.346 3.346 0 01.093-.776 8.44 8.44 0 002.41-.643 3.041 3.041 0 01.333 1.42z"/><circle cx="22.263" cy="24.312" r=".632" fill="#e3e5e5"/><path fill="#d84459" d="M24.009 10.136c-.591-.787 4.337-5.831 5.884-6.157.622 0-1.868 3.744-4.67 7.487-.029-.471-.378-.919-1.214-1.33z"/><path fill="#505957" d="M20.26 13.72c1.31-2.113 2.957-3.97 3.749-3.584.836.411 1.185.859 1.214 1.33a119.346 119.346 0 01-2.864 3.681c-.608-1.115-1.321-1.496-2.1-1.428z"/><path fill="#d84459" d="M20.26 13.72c.778-.07 1.491.312 2.1 1.427-1.771 2.179-3.263 3.807-3.673 3.807-.849-.415.169-2.971 1.573-5.235z"/></svg>