<svg xmlns="http://www.w3.org/2000/svg" width="100%" height="100%" viewBox="-2.72 -2.72 37.44 37.44"><path fill="#56C7CD" d="M16 7.792c-1.5-1.083-3.958-2.5-3.125-3.833S15.5 3.792 16 3.876v3.916z"/><path fill="#56C7CD" d="M19.125 3.959C18.292 2.626 16.5 3.792 16 3.876c-.5-.083-2.292-1.25-3.125.083C12.042 5.292 14.5 6.709 16 7.792c1.5-1.083 3.958-2.5 3.125-3.833z"/><path fill="#51BAC5" d="M16 7.792c1.5-1.083 3.958-2.5 3.125-3.833S16.5 3.792 16 3.876v3.916z"/><path fill="#373F3F" d="M16 13.186c-2.223.093-4.846-.188-5.208-1.112 1.75-.917 2.484-1.427 2.833-2.417.5-1.417 1.298-3.208 2.375-3.208v6.737z"/><path fill="#373F3F" d="M18.375 9.657c-.5-1.417-1.298-3.208-2.375-3.208s-1.875 1.792-2.375 3.208c-.349.99-1.083 1.5-2.833 2.417.362.924 2.985 1.205 5.208 1.112 2.223.093 4.846-.188 5.208-1.112-1.75-.917-2.484-1.427-2.833-2.417z"/><path fill="#2B3332" d="M16 13.186c2.223.093 4.846-.188 5.208-1.112-1.75-.917-2.484-1.427-2.833-2.417-.5-1.417-1.298-3.208-2.375-3.208v6.737z"/><path fill="#373F3F" d="M6.325 22.574c-.21 1.112-3.019 4.095-5.071 3.04-1.468-.755-2.024-2.901.446-4.29 2-1.125 2.563-1.062 2.563-1.062l2.062 2.312z"/><path fill="#434C4B" d="M16 11.222c-6.627 0-12 3.907-12 8.727s5.373 8.727 12 8.727V11.222z"/><path fill="#2B3332" d="M25.675 22.574c.21 1.112 3.019 4.095 5.071 3.04 1.468-.755 2.024-2.901-.446-4.29-2-1.125-2.562-1.062-2.562-1.062l-2.063 2.312z"/><path fill="#373F3F" d="M16 11.222c6.627 0 12 3.907 12 8.727s-5.373 8.727-12 8.727V11.222z"/><path fill="#EA9C7A" d="M16 23.865c-6.627 0-7.875-.542-10.552.243C7.48 26.829 11.444 28.676 16 28.676s8.52-1.847 10.552-4.567c-2.677-.785-3.925-.244-10.552-.244z"/><path fill="#F4A984" d="M16 23.866c-6.627 0-7.875-.542-10.552.243 2.032 2.72 5.996 4.567 10.552 4.567v-4.81z"/><circle cx="9" cy="17" r="2" fill="#FFF"/><circle cx="9" cy="17" r=".5" fill="#373F3F"/><path fill="#66D3D3" d="M8.562 23.386c.25 1.688-.312 4.562-1.437 4.562s-1.165-1.063-.5-2.875c.687-1.874.375-2.687.375-2.687l1.562 1z"/><path fill="#66D3D3" d="M25.833 21.032c-.917-2.167-4.75 1.25-9.833 1.417-5.083-.167-8.917-3.583-9.833-1.417-.883 2.087 5.042 4.917 9.833 4.917s10.716-2.83 9.833-4.917z"/><path fill="#56C7CD" d="M16 24.157c5.083-.167 9.083-2.625 9.833-3.125.883 2.087-5.042 4.917-9.833 4.917v-1.792z"/><circle cx="23" cy="17" r="2" fill="#F7F7F7"/><circle cx="23" cy="17" r=".5" fill="#2B3332"/><path fill="#F6B392" d="M20.266 15.087l-2.724 1.235S16.188 14.03 16 14.03c-.188 0-1.542 2.292-1.542 2.292l-2.724-1.235a.125.125 0 00-.155.184l2.827 4.203c.047.07.147.074.201.009L16 17.781l1.393 1.703c.053.065.154.06.201-.009l2.827-4.203c.07-.105-.041-.237-.155-.185zM5.687 20.511a.244.244 0 01-.088-.016c-1.838-.694-1.316-3.844-.764-7.178.503-3.032 1.022-6.168-.092-7.68-.364-.494-.884-.781-1.59-.878-.611-.086-1.803.208-2.35.873C.515 5.984.45 6.4.611 6.868c.157.451.445.708.833.742.461.046.946-.237 1.099-.511.083-.149.027-.222.007-.25a.25.25 0 01.05-.35.252.252 0 01.351.05c.172.229.183.519.03.793-.271.485-.967.821-1.581.766-.343-.03-.963-.21-1.262-1.078-.218-.634-.121-1.227.279-1.715.681-.83 2.083-1.147 2.805-1.052.834.114 1.481.478 1.925 1.078 1.239 1.682.702 4.924.183 8.059-.518 3.126-1.008 6.079.446 6.627a.25.25 0 01-.089.484zm20.713-.015c1.838-.694 1.316-3.844.764-7.178-.503-3.032-1.022-6.168.092-7.68.365-.495.885-.782 1.591-.879.61-.09 1.804.208 2.351.873.288.352.353.768.191 1.235-.156.451-.444.708-.833.742-.46.046-.946-.237-1.099-.511-.083-.149-.027-.223-.007-.25a.25.25 0 10-.401-.301c-.172.229-.183.519-.03.793.271.485.969.819 1.58.767.343-.03.963-.21 1.262-1.078.219-.634.122-1.227-.278-1.715-.682-.83-2.086-1.148-2.805-1.052-.834.114-1.481.478-1.925 1.078-1.239 1.682-.702 4.924-.183 8.059.518 3.126 1.008 6.079-.446 6.627a.25.25 0 00.088.484c.03.001.06-.004.088-.014z"/><path fill="#56C7CD" d="M23.438 23.386c-.25 1.688.312 4.562 1.438 4.562s1.165-1.063.5-2.875c-.688-1.874-.376-2.687-.376-2.687l-1.562 1z"/><path fill="#F9BDA0" d="M11.734 15.087l2.724 1.235S15.812 14.03 16 14.03v3.75l-1.393 1.703a.125.125 0 01-.2-.009l-2.827-4.203c-.071-.104.04-.236.154-.184z"/><path fill="#7CD8D5" d="M16 22.449c-5.083-.167-8.917-3.583-9.833-1.417-.883 2.087 5.042 4.917 9.833 4.917v-3.5z"/><path fill="#66D3D3" d="M16 24.157c-5.083-.167-9.083-2.625-9.833-3.125-.883 2.087 5.042 4.917 9.833 4.917v-1.792z"/></svg>