<svg xmlns="http://www.w3.org/2000/svg" width="100%" height="100%" viewBox="-2.72 -2.72 37.44 37.44"><path fill="#B370B9" d="M8.798 17.712c-3.14-.646-1.967-2.171-3.005-1.294-1.403 1.185-6.298 2.43-5.75 5s2.652 3.919 3.5 3.625 3.482-3.145 4.613-5.053.642-2.278.642-2.278z"/><path fill="#A366AD" d="M15.36 20.629c-3.14-.646-1.967-2.171-3.005-1.294-1.403 1.185-6.298 2.43-5.75 5s2.652 3.919 3.5 3.625c.848-.294 3.482-3.145 4.613-5.053s.642-2.278.642-2.278zm7.842-2.917c3.14-.646 1.967-2.171 3.005-1.294 1.403 1.185 6.298 2.43 5.75 5s-2.652 3.919-3.5 3.625c-.848-.294-3.482-3.145-4.613-5.053-1.131-1.909-.642-2.278-.642-2.278z"/><path fill="#945BA0" d="M16.64 20.629c3.14-.646 1.967-2.171 3.005-1.294 1.403 1.185 6.298 2.43 5.75 5s-2.652 3.919-3.5 3.625c-.848-.294-3.482-3.145-4.613-5.053-1.131-1.908-.642-2.278-.642-2.278z"/><path fill="#E3E5E5" d="M16.001 26C9.38 26 4.012 22.829 4.012 16.317S9.379 4 16.001 4v22z"/><path fill="#EDEEEE" d="M16.001 26C9.38 26 4.012 22.829 4.012 16.317c0-3.531 1.579-6.855 4.08-9.158C8.499 23.695 16.001 26 16.001 26z"/><path fill="#DADDDC" d="M16.001 4C22.622 4 27.99 9.806 27.99 16.317S22.622 26 16.001 26V4z"/><path fill="#E3E5E5" d="M23.91 7.16c2.501 2.303 4.08 5.626 4.08 9.158 0 6.512-5.368 9.683-11.989 9.683 0-.001 7.501-2.306 7.909-18.841z"/><path fill="#C27BC6" d="M16.001 13.222c-6.621 0-9.377-.395-12.011 3.162C3.99 9.709 9.38 4 16.001 4v9.222z"/><path fill="#B370B9" d="M15.978 13.222c6.621 0 9.377-.395 12.011 3.162C27.99 9.709 22.6 4 15.978 4v9.222z"/><path fill="#373F3F" d="M12 9a1 1 0 100 2 1 1 0 000-2z"/><circle cx="12" cy="10" r=".5" fill="#FFF"/><path fill="#2B3332" d="M20 9a1 1 0 100 2 1 1 0 000-2z"/><circle cx="20" cy="10" r=".5" fill="#F7F7F7"/></svg>