<svg xmlns="http://www.w3.org/2000/svg" width="100%" height="100%" viewBox="-2.72 -2.72 37.44 37.44"><path fill="#c6b7e9" d="M15.796 5.977a10.065 10.065 0 000 20.13c.15 0 .295-.017.443-.023V5.999c-.148-.006-.294-.022-.443-.022z"/><path fill="#58458c" d="M9.74 16.041a6.5 6.5 0 006.499 6.5v-13a6.5 6.5 0 00-6.5 6.5z"/><path fill="#e8803a" d="M14.13 15.191a2.27 2.27 0 002.109 3.127V15.19z"/><path fill="#9179c6" d="M14.13 15.191h2.109v-1.426a2.274 2.274 0 00-2.109 1.426z"/><path fill="#373f3f" d="M15.296 15.191l.943 1.506v-1.506h-.943z"/><path fill="#b8a5e4" d="M16.682 5.977a10.065 10.065 0 010 20.13c-.15 0-.295-.017-.443-.023V5.999c.148-.006.293-.022.443-.022z"/><path fill="#534184" d="M22.739 16.041a6.5 6.5 0 01-6.5 6.5v-13a6.5 6.5 0 016.5 6.5z"/><path fill="#dd7731" d="M18.347 15.191a2.27 2.27 0 01-2.108 3.127V15.19z"/><path fill="#866eba" d="M18.347 15.191H16.24v-1.426a2.274 2.274 0 012.108 1.426z"/><path fill="#2b3332" d="M17.182 15.191l-.943 1.506v-1.506h.943z"/><path fill="#9179c6" d="M10.338 8.555L7.98 11.462c-.586-1.66-.619-3.138.384-4.279zm-3.564 8.719l1.176 3.554c-1.713-.402-2.976-1.172-3.396-2.631z"/><path fill="#866eba" d="M25.21 14.708l-1.11-3.575c1.704.433 2.953 1.226 3.346 2.693zm-3.294 8.61l2.472-2.812c.519 1.681.494 3.16-.553 4.26zM25.641.02a9.605 9.605 0 00-3.41 1.467l2.075.548z"/><path fill="#58458c" d="M24.306 2.035l-2.075-.548a16.371 16.371 0 00-1.749 1.36l2.834.68z"/><path fill="#866eba" d="M16.842 6.767l2.656.658.713-1.7-2.151-.43q-.61.694-1.218 1.472z"/><path fill="#58458c" d="M22.49 4.774l-3.188-.809q-.622.625-1.242 1.33l2.151.43 2.084-.658z"/><path fill="#866eba" d="M23.316 3.528l-2.834-.68c-.394.344-.787.723-1.18 1.117l3.188.809z"/><path fill="#9179c6" d="M6.112 32.02a9.605 9.605 0 003.4-1.49l-2.08-.533z"/><path fill="#604893" d="M7.433 29.997l2.078.533a16.37 16.37 0 001.74-1.374l-2.84-.659z"/><path fill="#9179c6" d="M14.861 25.21l-2.66-.639-.7 1.706 2.154.414q.605-.698 1.206-1.48z"/><path fill="#604893" d="M9.229 27.245l3.193.785q.618-.629 1.233-1.339l-2.155-.414-2.08.673z"/><path fill="#9179c6" d="M8.412 28.497l2.838.66c.392-.348.783-.73 1.172-1.127l-3.193-.785z"/></svg>