<svg xmlns="http://www.w3.org/2000/svg" width="100%" height="100%" viewBox="-2.72 -2.72 37.44 37.44"><path fill="#B370B9" d="M8.368 15.773c-3.14-.646-5.217-.546-6.255.331C.71 17.289-.405 20.581.143 23.15s2.722 3.38 3.569 3.085c.848-.294 4.02-3.943 5.151-5.851s-.495-4.611-.495-4.611z"/><path fill="#FAE09F" d="M16 26.438c-6.179 0-11.188-3.009-11.188-9.188S9.821 5.562 16 5.562v20.876z"/><path fill="#FDEBBB" d="M16 26.438c-6.179 0-11.188-3.009-11.188-9.188 0-3.351 1.473-6.504 3.807-8.689C9 24.25 16 26.438 16 26.438z"/><path fill="#A366AD" d="M23.632 15.773c3.14-.646 5.217-.546 6.255.331 1.403 1.185 2.518 4.477 1.97 7.046-.548 2.57-2.722 3.38-3.569 3.085-.848-.294-4.02-3.943-5.151-5.851-1.131-1.908.495-4.611.495-4.611z"/><path fill="#F7D684" d="M16 5.562c6.179 0 11.188 5.509 11.188 11.688S22.179 26.438 16 26.438V5.562z"/><path fill="#FAE09F" d="M23.381 8.561c2.334 2.185 3.807 5.339 3.807 8.689 0 6.179-5.009 9.188-11.188 9.188 0 0 7-2.188 7.381-17.877z"/><path fill="#FFF" d="M7 12.938c0 1.917 2.25 4.625 9 4.625v-4.625H7zm18 0c0 1.917-2.25 4.625-9 4.625v-4.625h9z"/><path fill="#FFF" d="M14 17.468c.621.057 1.28.094 2 .094v-4.625h-2v4.531z"/><path fill="#F7F7F7" d="M12 17.162c.602.135 1.268.238 2 .306v-4.531h-2v4.225z"/><path fill="#FFF" d="M10 16.517c.57.254 1.235.473 2 .645v-4.225h-2v3.58z"/><path fill="#F7F7F7" d="M8 15.167c.471.497 1.129.962 2 1.351v-3.58H8v2.229z"/><path fill="#FFF" d="M8 12.938H7c0 .695.301 1.493 1 2.229v-2.229z"/><path fill="#F7F7F7" d="M18 17.468c-.621.057-1.28.094-2 .094v-4.625h2v4.531z"/><path fill="#EDEEEE" d="M20 17.162c-.602.135-1.268.238-2 .306v-4.531h2v4.225z"/><path fill="#F7F7F7" d="M22 16.517c-.57.254-1.235.473-2 .645v-4.225h2v3.58z"/><path fill="#EDEEEE" d="M24 15.167c-.471.497-1.129.962-2 1.351v-3.58h2v2.229z"/><path fill="#F7F7F7" d="M24 12.938h1c0 .695-.301 1.493-1 2.229v-2.229z"/><path fill="#B370B9" d="M16 5.562c-6.179 0-11.208 5.417-11.208 11.75 3.75-6.375 5.03-3 11.208-3s7.458-3.375 11.208 3c0-6.333-5.029-11.75-11.208-11.75z"/><path fill="#C27BC6" d="M16 14.312c-6.179 0-7.458-3.375-11.208 3 0-6.333 5.03-11.75 11.208-11.75v8.75z"/><path fill="#373F3F" d="M12 10a1 1 0 100 2 1 1 0 000-2z"/><circle cx="12" cy="11" r=".5" fill="#FFF"/><path fill="#2B3332" d="M20 10a1 1 0 100 2 1 1 0 000-2z"/><circle cx="20" cy="11" r=".5" fill="#F7F7F7"/></svg>