<svg xmlns="http://www.w3.org/2000/svg" width="100%" height="100%" viewBox="-2.72 -2.72 37.44 37.44"><path fill="#756d80" d="M23.164 19.062a1.925 1.925 0 011.102-.581l1.259-.455c.972-.361 1.95-.709 2.887-1.156a6.919 6.919 0 00.656-.358c.076-.047.187-.11.165-.22-.02-.105-.13-.133-.229-.158a2.85 2.85 0 00-.708-.116q-1.02.002-2.04-.003c-.07 0-.174.048-.205-.04-.029-.078.07-.123.122-.172.722-.69 1.449-1.376 2.17-2.068a12.832 12.832 0 001.381-1.55c.077-.102.194-.21.118-.342-.087-.151-.253-.107-.388-.074-.286.07-.569.154-.853.233-.19-.005-.352.26-.562.053-.017.039-.024.1-.053.113a4.025 4.025 0 01-1.283.473 5.445 5.445 0 01-1.107.543c-.193.108-.285.099-.371-.134a7.58 7.58 0 00-1.223-2.132.521.521 0 01-.132-.413q.156-1.36.299-2.722a17.383 17.383 0 00.097-2.806.608.608 0 00-.69-.611 1.795 1.795 0 00-.81.231 13.134 13.134 0 00-2.401 1.631 9.445 9.445 0 01.275 1.494c.013.093-.021.196.062.274a.43.43 0 01.215-.4 6.866 6.866 0 011.288-.825c.52-.224.707-.118.677.426a10.467 10.467 0 01-.525 2.252c-.062.222-.176.09-.26.028-.463-.343-.921-.691-1.381-1.038a2.796 2.796 0 01-.624 1.948 3.592 3.592 0 01-2.43 1.3 15.558 15.558 0 01-1.897.059v8.606a3.27 3.27 0 01.947.07c.176.047.399.065.426.292.026.215-.162.32-.32.412a2.339 2.339 0 01-1.053.332v.172a12.714 12.714 0 006.92-2.18 2.552 2.552 0 00.48-.388zm-5.136-4.537a.524.524 0 01-.569.299.655.655 0 01-.5-.544 1.987 1.987 0 01.78-1.654.438.438 0 01.493-.02.632.632 0 01.252.627 2.472 2.472 0 01-.456 1.292zm3.934 2.267a1.508 1.508 0 01-1.439.963 1.596 1.596 0 01-1.383-1.091l-.023-.06a.13.13 0 01-.06-.132c-.057-.026-.06-.08-.066-.13a.638.638 0 01-.119-.324l-.015-.19a.135.135 0 01-.052-.138l.002-.128.001-.128v-.131a3.051 3.051 0 01.579-2.04 1.392 1.392 0 012.386 0 1.668 1.668 0 01.328.625 3.315 3.315 0 01-.14 2.904z"/><path fill="#4f4a56" d="M29.729 8.908c-.18-.261-.342-.247-.475.037a2.582 2.582 0 00-.17.52c-.19.84-.252 1.704-.483 2.537.284-.079.567-.164.853-.233.135-.033.301-.077.388.074.076.133-.041.24-.118.343a12.832 12.832 0 01-1.382 1.549c-.72.692-1.447 1.377-2.169 2.068-.052.05-.15.094-.122.173.031.087.135.039.204.04q1.02.005 2.04.002a2.85 2.85 0 01.71.116c.097.025.207.053.228.158.022.11-.09.173-.165.22a6.919 6.919 0 01-.656.358c-.937.447-1.915.795-2.887 1.155.043.383.113.765.125 1.148a15.926 15.926 0 01-.24 3.655c-.027.136-.17.3-.001.448a3.735 3.735 0 001.172-.635 7.248 7.248 0 002.297-3.02 18.652 18.652 0 001.38-9.135 3.205 3.205 0 00-.53-1.578z"/><path fill="#9f442f" d="M17.468 7.563a6.458 6.458 0 00.657-1.616c.07-.281.162-.257.362-.12A10.03 10.03 0 0120.21 7.37c.123.134.188.352.43.352a9.445 9.445 0 00-.275-1.494c-.141-.395-.285-.788-.422-1.184A12.146 12.146 0 0118.997 2c-.015-.2-.106-.072-.157-.026a1.924 1.924 0 00-.625 1.074c-.013.066.037.175-.058.188-.05.006-.12-.079-.17-.133q-.391-.436-.777-.877A12.115 12.115 0 0115.765.003v9.184a3.378 3.378 0 001.703-1.624z"/><path fill="#4f4a56" d="M27.576 9.951c-.139.002-.168.156-.206.263a20.319 20.319 0 00-.667 2.427 4.025 4.025 0 001.283-.473c.03-.014.036-.074.053-.113a4.98 4.98 0 00-.256-1.845c-.04-.107-.066-.26-.207-.259z"/><path fill="#9f442f" d="M20.435 30.382a3.727 3.727 0 00.366 1.263c.236.46.547.473.819.038a6.145 6.145 0 00.664-1.535 3.332 3.332 0 01-1.849.234zm2.453-1.692l-.066.001a.309.309 0 00-.142.275c.01.056.011.11-.054.136l-.074.31.11.157c.393.572.907.54 1.21-.087a3.96 3.96 0 00.335-1.164 4.272 4.272 0 01-1.05.324.324.324 0 01-.269.049z"/><path fill="#605a69" d="M19.984 28.009a23.874 23.874 0 00.451 2.373 3.332 3.332 0 001.849-.234 1.327 1.327 0 00.146-.472.285.285 0 01-.106.032.079.079 0 01-.062-.021.079.079 0 00.062.021.284.284 0 00.106-.032l.122-.263.074-.31a.143.143 0 01.054-.137.309.309 0 01.142-.275h.066c.078-.076.175-.052.268-.05a4.272 4.272 0 001.05-.323q.528-1.916.928-3.862a3.116 3.116 0 01.275-1.18c-.169-.147-.026-.312.002-.448a15.926 15.926 0 00.24-3.655c-.013-.383-.083-.765-.126-1.147l-1.259.455a4.684 4.684 0 01-.488 4.137 6.097 6.097 0 01-1.753 1.71c-.043.03-.123.07-.145.053-.067-.051 0-.117.02-.172a4.247 4.247 0 00.33-1.073l-.068.002a6.425 6.425 0 01-3.248 3.6c-.057.028-.155.076-.174.057-.072-.072.018-.13.053-.189a6.656 6.656 0 00.707-1.557.614.614 0 00.005-.156c-.074.006-.058.074-.078.114a6.963 6.963 0 01-3.058 3.046c-.203.107-.403.218-.604.328v.067a9.036 9.036 0 003.852-.66c.304-.126.328-.014.367.221z"/><path fill="#2b282e" d="M19.427 25.007c.02-.04.004-.108.078-.114a.614.614 0 01-.005.156 6.656 6.656 0 01-.707 1.557c-.035.059-.125.117-.053.189.019.019.117-.03.174-.057a6.425 6.425 0 003.248-3.6.109.109 0 01.003-.032l.1-.23a.202.202 0 01-.034.26 4.247 4.247 0 01-.331 1.073c-.02.055-.087.121-.02.172.022.017.102-.024.145-.053a6.097 6.097 0 001.753-1.71 4.684 4.684 0 00.488-4.137 1.925 1.925 0 00-1.102.581 2.552 2.552 0 01-.48.388 12.715 12.715 0 01-6.919 2.18v6.751c.201-.11.401-.22.604-.328a6.963 6.963 0 003.058-3.046zm-2.608-3.881c.157-.091.345-.197.32-.412-.028-.227-.251-.245-.427-.292a3.27 3.27 0 00-.947-.07v1.106a2.339 2.339 0 001.054-.332z"/><path fill="#867d91" d="M20.092 10.387a2.796 2.796 0 00.624-1.948l-.014-.443c-.083-.078-.05-.181-.062-.274-.242 0-.307-.218-.43-.352a10.03 10.03 0 00-1.723-1.544c-.2-.136-.292-.16-.362.12a6.458 6.458 0 01-.657 1.617 3.379 3.379 0 01-1.703 1.624v2.558a15.558 15.558 0 001.896-.059 3.592 3.592 0 002.43-1.299z"/><path fill="#f1f1f1" d="M20.691 14.522a2.077 2.077 0 01.02 1.832.84.84 0 01-1.518.248l-.013.019a.06.06 0 01-.04.043 1.596 1.596 0 001.383 1.09 1.508 1.508 0 001.439-.962 3.315 3.315 0 00.14-2.904z"/><path fill="#9f442f" d="M19.387 13.263a3.05 3.05 0 00-.58 2.04.377.377 0 01.057.003l.853-.374.61-.262.364-.148 1.41-.634a1.668 1.668 0 00-.328-.625 1.392 1.392 0 00-2.386 0z"/><path fill="#2b282e" d="M22.205 6.771a6.866 6.866 0 00-1.288.824.429.429 0 00-.215.4l.014.444c.46.347.918.695 1.38 1.038.085.062.198.194.261-.028a10.467 10.467 0 00.525-2.252c.03-.544-.157-.65-.677-.426z"/><path fill="#9f442f" d="M18.232 12.607a.438.438 0 00-.493.02 1.987 1.987 0 00-.78 1.653.655.655 0 00.5.544.524.524 0 00.569-.299 2.472 2.472 0 00.457-1.292.632.632 0 00-.253-.626z"/><path fill="#bb9195" d="M18.872 16.018a.638.638 0 00.119.324h.07a.673.673 0 00-.13-.324h-.059z"/><path fill="#ba9ea0" d="M18.858 15.828l.014.19h.058l-.021-.257z"/><path fill="#d2c3c4" d="M18.99 16.342c.008.05.01.104.067.13a.395.395 0 00.06.002l-.057-.131z"/><path fill="#e8dfe0" d="M19.057 16.472a.13.13 0 00.06.132.184.184 0 01.063.017l.013-.019-.076-.128a.395.395 0 01-.06-.002z"/><path fill="#9a8888" d="M18.805 15.69a.136.136 0 00.053.138l.05-.067-.039-.065q-.032-.001-.064-.006z"/><path fill="#baaeae" d="M18.832 15.564l-.025-.002-.002.128q.032.005.064.006l-.013-.133z"/><path fill="#d3cccc" d="M18.831 15.435l-.023-.001v.128l.024.002.024-.001-.002-.129z"/><path fill="#e3e1e1" d="M18.808 15.434h.046l.01-.128a.368.368 0 00-.057-.003z"/><path fill="#f1f1f1" d="M19.14 16.664a.06.06 0 00.04-.043.184.184 0 00-.063-.017z"/><path fill="#46393c" d="M22.165 23.106a.109.109 0 00-.003.032l.069-.002a.202.202 0 00.034-.26l-.1.23z"/><path fill="#555061" d="M22.888 28.69a.324.324 0 00.268-.048c-.093-.003-.19-.027-.268.049z"/><path fill="#6e4354" d="M22.626 29.102c.065-.027.064-.08.054-.136a.143.143 0 00-.054.136z"/><path fill="#6ca5cf" d="M20.327 14.67a.768.768 0 01.044.152c.02.235-.007.486-.282.53-.284.044-.333-.205-.372-.42l-.853.374-.01.128.002.129.014.133.039.065.021.257a.673.673 0 01.13.325l.057.13.076.13a.84.84 0 001.518-.249 2.077 2.077 0 00-.02-1.832z"/><path fill="#edeced" d="M20.327 14.67l-.61.262c.04.215.088.464.372.42.275-.044.301-.295.282-.53a.768.768 0 00-.044-.152z"/><path fill="#7b7286" d="M8.846 19.447a12.715 12.715 0 006.92 2.18v-.171a2.339 2.339 0 01-1.054-.332c-.157-.092-.346-.198-.32-.412.028-.228.25-.245.426-.293a3.27 3.27 0 01.947-.07v-8.606a15.56 15.56 0 01-1.896-.06 3.592 3.592 0 01-2.43-1.298 2.796 2.796 0 01-.625-1.948c-.46.346-.918.695-1.38 1.037-.084.063-.198.194-.261-.028a10.468 10.468 0 01-.524-2.252c-.03-.544.156-.65.676-.426a6.866 6.866 0 011.288.825.43.43 0 01.216.4c.082-.078.049-.18.061-.274a9.445 9.445 0 01.276-1.493 13.134 13.134 0 00-2.4-1.631 1.795 1.795 0 00-.811-.232.608.608 0 00-.69.611 17.38 17.38 0 00.097 2.807q.14 1.362.298 2.722a.521.521 0 01-.132.413 7.58 7.58 0 00-1.222 2.131c-.086.233-.178.242-.371.134a26.686 26.686 0 00-3.006-1.182c-.284-.078-.567-.164-.853-.233-.135-.032-.3-.077-.387.074-.077.133.04.24.117.343a12.83 12.83 0 001.382 1.55c.72.691 1.447 1.377 2.17 2.067.051.05.15.094.122.173-.032.087-.135.04-.205.04q-1.02.006-2.04.002a2.85 2.85 0 00-.709.116c-.098.025-.208.053-.229.158-.022.11.09.174.165.22a6.918 6.918 0 00.657.359c.936.447 1.914.794 2.887 1.155l1.258.455a1.925 1.925 0 011.102.582 2.552 2.552 0 00.48.387zm4.2-6.217a.632.632 0 01.252-.626.438.438 0 01.493.02 1.987 1.987 0 01.78 1.654.655.655 0 01-.5.543.524.524 0 01-.568-.299 2.472 2.472 0 01-.457-1.292zm-3.617.656a1.668 1.668 0 01.328-.625 1.392 1.392 0 012.386 0 3.051 3.051 0 01.58 2.04l-.001.13v.129l.003.128a.136.136 0 01-.052.137l-.015.19a.638.638 0 01-.119.324c-.007.051-.009.104-.065.13a.13.13 0 01-.06.132l-.023.06a1.596 1.596 0 01-1.384 1.091 1.508 1.508 0 01-1.438-.962 3.315 3.315 0 01-.14-2.904z"/><path fill="#ad4630" d="M14.062 7.56a6.458 6.458 0 01-.657-1.616c-.07-.281-.161-.257-.361-.12a10.03 10.03 0 00-1.724 1.544c-.122.133-.188.352-.43.351a9.445 9.445 0 01.276-1.493c.14-.395.284-.789.421-1.185A12.146 12.146 0 0012.533 2c.015-.201.106-.073.158-.027a1.924 1.924 0 01.624 1.075c.014.066-.037.175.058.187.05.007.12-.079.17-.133q.392-.435.777-.877A12.115 12.115 0 0015.765 0v9.184a3.378 3.378 0 01-1.703-1.623zm-2.967 22.82a3.727 3.727 0 01-.366 1.262c-.235.46-.547.473-.819.039a6.145 6.145 0 01-.663-1.535 3.332 3.332 0 001.848.234zm-2.453-1.692h.067a.309.309 0 01.142.276c-.01.056-.012.109.054.136l.073.31-.11.156c-.392.573-.907.54-1.21-.087a3.96 3.96 0 01-.335-1.164 4.272 4.272 0 001.051.324.324.324 0 00.268.05z"/><path fill="#666070" d="M11.546 28.006a23.877 23.877 0 01-.45 2.374 3.332 3.332 0 01-1.85-.234 1.327 1.327 0 01-.146-.472.285.285 0 00.106.032.079.079 0 00.063-.022.079.079 0 01-.063.022.284.284 0 01-.106-.033l-.122-.263-.073-.31a.143.143 0 00-.054-.137.309.309 0 00-.142-.274l-.067-.001c-.078-.076-.175-.051-.268-.05a4.272 4.272 0 01-1.05-.323q-.527-1.916-.927-3.862c-.082-.394-.25-1.491-.277-1.628a15.926 15.926 0 01-.24-3.654c.013-.384.082-.766.126-1.148l1.258.455a4.684 4.684 0 00.489 4.138 6.097 6.097 0 001.752 1.71c.043.029.124.07.145.053.067-.052 0-.118-.02-.172a4.247 4.247 0 01-.33-1.073l.068.001a6.425 6.425 0 003.248 3.6c.057.028.156.076.175.057.072-.072-.018-.13-.054-.189a6.656 6.656 0 01-.707-1.557.614.614 0 01-.005-.155c.074.005.058.074.078.113a6.963 6.963 0 003.059 3.046c.202.108.402.219.603.328v.067a9.036 9.036 0 01-3.852-.66c-.303-.126-.327-.014-.367.221z"/><path fill="#39353d" d="M12.103 25.004c-.02-.04-.004-.108-.078-.113a.614.614 0 00.005.155 6.656 6.656 0 00.707 1.557c.036.06.125.117.054.19-.02.018-.118-.03-.175-.057a6.425 6.425 0 01-3.248-3.6.109.109 0 00-.003-.033c-.032-.077-.066-.153-.1-.23a.202.202 0 00.034.26 4.247 4.247 0 00.332 1.074c.019.054.086.12.02.172-.022.016-.103-.024-.146-.053a6.097 6.097 0 01-1.752-1.71 4.684 4.684 0 01-.489-4.138 1.925 1.925 0 011.102.582 2.552 2.552 0 00.48.387 12.715 12.715 0 006.92 2.18v6.751c-.202-.11-.402-.22-.604-.328a6.963 6.963 0 01-3.06-3.046zm2.609-3.88c-.157-.092-.346-.197-.32-.412.028-.228.25-.245.426-.293a3.27 3.27 0 01.947-.07v1.107a2.339 2.339 0 01-1.053-.332z"/><path fill="#8d8398" d="M11.439 10.385a2.796 2.796 0 01-.625-1.948l.015-.444c.082-.078.049-.18.061-.274.242 0 .308-.218.43-.351a10.03 10.03 0 011.724-1.544c.2-.137.291-.161.361.12a6.458 6.458 0 00.657 1.617 3.379 3.379 0 001.703 1.623v2.559a15.56 15.56 0 01-1.896-.06 3.592 3.592 0 01-2.43-1.298z"/><path fill="#f1f1f1" d="M10.84 14.52a2.077 2.077 0 00-.02 1.832.84.84 0 001.517.248l.014.018a.06.06 0 00.04.043 1.596 1.596 0 01-1.384 1.091 1.508 1.508 0 01-1.438-.962 3.315 3.315 0 01-.14-2.904z"/><path fill="#ad4630" d="M12.143 13.26a3.05 3.05 0 01.58 2.04.377.377 0 00-.057.003l-.853-.374-.61-.261-.364-.148-1.41-.634a1.668 1.668 0 01.328-.625 1.392 1.392 0 012.386 0z"/><path fill="#39353d" d="M9.325 6.768a6.866 6.866 0 011.288.825.429.429 0 01.216.4l-.015.444c-.46.346-.918.695-1.38 1.037-.084.063-.198.194-.261-.028a10.468 10.468 0 01-.524-2.252c-.03-.544.156-.65.676-.426z"/><path fill="#ad4630" d="M13.298 12.604a.438.438 0 01.493.02 1.987 1.987 0 01.78 1.654.655.655 0 01-.5.543.524.524 0 01-.568-.299 2.472 2.472 0 01-.457-1.292.632.632 0 01.252-.626z"/><path fill="#bb9195" d="M12.658 16.015a.638.638 0 01-.119.324l-.069.001a.673.673 0 01.13-.324h.058z"/><path fill="#ba9ea0" d="M12.673 15.825l-.015.19H12.6l.021-.257z"/><path fill="#d2c3c4" d="M12.54 16.34c-.008.05-.01.103-.066.13a.395.395 0 01-.061 0l.057-.13z"/><path fill="#e8dfe0" d="M12.474 16.47a.13.13 0 01-.06.13.183.183 0 00-.063.018l-.014-.018.076-.13a.395.395 0 00.06 0z"/><path fill="#9a8888" d="M12.725 15.688a.136.136 0 01-.052.137l-.051-.067.039-.065q.032-.001.064-.005z"/><path fill="#baaeae" d="M12.699 15.561l.024-.001.002.128q-.032.004-.064.005l.013-.133z"/><path fill="#d3cccc" d="M12.699 15.432h.023l.001.128-.024.001h-.025l.002-.13z"/><path fill="#e3e1e1" d="M12.722 15.431l-.023.001h-.023l-.01-.129a.368.368 0 01.057-.003z"/><path fill="#f1f1f1" d="M12.39 16.661a.06.06 0 01-.04-.043.183.183 0 01.063-.017z"/><path fill="#46393c" d="M9.365 23.103a.109.109 0 01.003.032l-.069-.001a.202.202 0 01-.033-.261l.1.23z"/><path fill="#555061" d="M8.642 28.688a.324.324 0 01-.268-.05c.093-.001.19-.026.268.05z"/><path fill="#6e4354" d="M8.905 29.1c-.066-.027-.064-.08-.054-.137a.143.143 0 01.054.137z"/><path fill="#71b1e1" d="M11.203 14.668a.768.768 0 00-.044.152c-.019.234.007.485.283.529.284.044.332-.205.371-.42l.853.374.01.128-.002.13-.013.132-.04.065-.021.258a.673.673 0 00-.13.324l-.057.13-.076.13a.84.84 0 01-1.518-.248 2.077 2.077 0 01.02-1.832z"/><path fill="#edeced" d="M11.203 14.668l.61.261c-.039.215-.087.464-.371.42-.276-.044-.302-.295-.283-.53a.768.768 0 01.044-.151z"/></svg>