<svg xmlns="http://www.w3.org/2000/svg" width="100%" height="100%" viewBox="-2.72 -2.72 37.44 37.44"><path fill="#C8CCCB" d="M16.939 15.941c1.535-1.244 4.879-3.318 6.635-4.196 1.37-.685 3.304-2.765 4.089-3.647.102-.114.288-.024.26.126-.196 1.035-.714 3.321-1.624 4.379-.098.114.017.279.16.233 1.172-.381 3.418-1.195 4.289-2.094.099-.102.294-.017.251.118-.665 2.099-1.457 5.558-5.54 8.516-1.638 1.187-.078 3.591-5.787 5.592-4.451 1.558-7.368-5.271-2.733-9.027z"/><path fill="#D1D4D4" d="M23.114 21.866c.835 1.343 1.778 3.229 1.778 4.826s-1.149 2.881-1.149 2.881 1.064.145 2.068.327c1.061.192 1.657 2.018-1.137 2.018h-2.308c-.351 0-1.246-.426-1.404-.862-.584-1.607-1.287-4.798-3.799-4.798-1.125 0 3.048-5.09 3.048-5.09l2.903.698z"/><path fill="#2B3332" d="M25.292 20.167l1.748 3.565c.028.058.115.041.118-.023.04-.801.162-3.363.11-3.914-.062-.656-1.441-.684-1.441-.684l-.535 1.056z"/><path fill="#2B3332" d="M28.287 19.337s1.566 2.691 1.485 3.974c-.004.059-.078.083-.113.035-.407-.557-2.03-2.779-2.292-3.101-.3-.369.222-1.146.222-1.146l.698.238z"/><path fill="#D1D4D4" d="M19.54 15.458c2.542.708 5.423 6.405 5.91 6.405.402 0 .042-2.069.778-2.258.736-.189.83 1.774 1.054 1.766.224-.008.566-1.708.778-1.847s.709 1.19.942.996c.233-.194.47-1.112-.754-2.686-1.167-1.5-4.667-4.583-9.458-6-.589.401.75 3.624.75 3.624z"/><path fill="#DADDDC" d="M8.886 21.866c-.835 1.343-1.778 3.229-1.778 4.826s1.149 2.881 1.149 2.881-1.064.145-2.068.327c-1.061.192-1.657 2.018 1.137 2.018h2.308c.351 0 1.246-.426 1.404-.862.584-1.607 1.287-4.798 3.799-4.798 1.125 0-3.048-5.09-3.048-5.09l-2.903.698z"/><path fill="#E3E5E5" d="M12.558 7.147S10.123 4.778 9.66 1.79c-.009-.054.052-.093.098-.063l.866.567S10.057.702 9.983.069c-.007-.062.071-.093.111-.046.642.774 3.791 4.537 4.247 4.445l-1.783 2.679z"/><path fill="#C84054" d="M19.442 7.147s2.435-2.369 2.898-5.357c.008-.054-.053-.092-.098-.063l-.866.567s.567-1.592.641-2.225c.007-.062-.071-.093-.111-.046-.642.774-3.791 4.537-4.247 4.445l1.783 2.679z"/><path fill="#373F3F" d="M6.622 20.167l-1.748 3.565c-.028.058-.115.041-.118-.023-.04-.801-.162-3.363-.11-3.914.062-.656 1.441-.684 1.441-.684l.535 1.056z"/><path fill="#373F3F" d="M3.627 19.337s-1.566 2.691-1.485 3.974c.004.059.078.083.113.035.407-.557 2.03-2.779 2.292-3.101.3-.369-.222-1.146-.222-1.146l-.698.238z"/><path fill="#DADDDC" d="M12.375 15.458c-2.542.708-5.423 6.405-5.91 6.405-.402 0-.042-2.069-.778-2.258-.736-.189-.83 1.774-1.054 1.766-.224-.008-.566-1.708-.778-1.847s-.709 1.19-.942.996c-.233-.194-.47-1.112.754-2.686 1.167-1.5 4.667-4.583 9.458-6 .589.401-.75 3.624-.75 3.624z"/><path fill="#C84054" d="M8.443 19.214c-.997 1.401-1.75 2.649-1.978 2.649-.402 0-.042-2.069-.778-2.258-.736-.189-.83 1.774-1.054 1.766-.224-.008-.566-1.708-.778-1.847s-.709 1.19-.942.996c-.233-.194-.47-1.112.754-2.686.322-.414.821-.947 1.475-1.533l.014 1.418c0 .045.047.075.088.057l1.604-.704a.063.063 0 01.088.059l-.058 1.994a.062.062 0 00.061.064l1.504.025z"/><path fill="#B93D4F" d="M23.472 19.214c.997 1.401 1.75 2.649 1.978 2.649.402 0 .042-2.069.778-2.258.736-.189.83 1.774 1.054 1.766.224-.008.566-1.708.778-1.847s.709 1.19.942.996c.233-.194.47-1.112-.754-2.686-.322-.414-.821-.947-1.475-1.533l-.014 1.418a.063.063 0 01-.088.057l-1.604-.704a.063.063 0 00-.088.059l.058 1.994a.062.062 0 01-.061.064l-1.504.025z"/><path fill="#DADDDC" d="M18.844 11.625h-5.688c-2.5 1.812-4.656 6.438-4.656 10.344 0 3.438 4.812 4.344 7.5 4.344 2.687 0 7.5-.906 7.5-4.344 0-3.907-2.156-8.531-4.656-10.344z"/><path fill="#E1E4F3" d="M16 11.625h-2.844c-2.5 1.812-4.656 6.438-4.656 10.344 0 3.438 4.812 4.344 7.5 4.344V11.625z"/><path fill="#E3E5E5" d="M16 11.625h-2.844c-2.5 1.812-4.656 6.438-4.656 10.344 0 3.438 4.812 4.344 7.5 4.344V11.625z"/><path fill="#E3E5E5" d="M16 3c-4.25 0-5 3.531-5 6.156 0 1.812 1.12 2.438 2 2.844.812.375 1.719 1 3 1s2.187-.625 3-1c.88-.406 2-1.031 2-2.844C21 6.531 20.25 3 16 3z"/><path fill="#EDEEEE" d="M16 3c-4.25 0-5 3.531-5 6.156 0 1.812 1.12 2.438 2 2.844.812.375 1.719 1 3 1V3z"/><path fill="#E08C96" d="M16.017 10.344c-.109 0-.297.25-.813.25-.211 0-.449-.113-.583-.188-.045-.025-.1.011-.093.062.048.344.289 1.282 1.488 1.282v-1.406z"/><path fill="#DE8490" d="M16 10.344c.109 0 .297.25.812.25.211 0 .449-.113.583-.188.045-.025.1.011.093.062-.048.345-.289 1.282-1.488 1.282v-1.406z"/><path fill="#373F3F" d="M16 8.662c-.235 0-.5.121-.5.289 0 .158.368.316.5.316v-.605z"/><path fill="#2B3332" d="M16 8.662c.235 0 .5.121.5.289 0 .158-.368.316-.5.316v-.605z"/><path fill="#E2959E" d="M14.705 7.651a83.298 83.298 0 00-2.312-1.156.061.061 0 00-.088.045c-.053.314-.19 1.466.575 1.863.84.435 1.603-.161 1.852-.67a.061.061 0 00-.027-.082z"/><ellipse cx="13.278" cy="7.672" fill="#373F3F" rx=".188" ry=".359"/><path fill="#D84459" d="M21 9.156c0-1.942-.378-4.361-2.314-5.497l1.375 5.091-2.159-2.796c-.044-.057-.135-.006-.107.062l1.913 4.727a.063.063 0 00.108.015l1.18-1.543c0-.021.004-.038.004-.059z"/><path fill="#E08C96" d="M17.295 7.651a83.298 83.298 0 012.312-1.156.061.061 0 01.088.045c.053.314.19 1.466-.575 1.863-.84.435-1.603-.161-1.852-.67a.061.061 0 01.027-.082z"/><ellipse cx="18.722" cy="7.672" fill="#2B3332" rx=".188" ry=".359"/><path fill="#C84054" d="M21.152 20.927l-3.268-6.054a.149.149 0 00-.264.005l-1.492 3.046a.15.15 0 01-.267.005L14.273 15a.15.15 0 00-.272-.035l-3.095 3.682a.15.15 0 01-.253-.037l-.94-2.183a16.099 16.099 0 00-.925 2.947c.48 1.084 1.168 2.639 1.413 3.181.044.097.169.113.243.036l2.662-2.78a.15.15 0 01.279-.005l1.42 3.408a.15.15 0 00.281-.01l2.317-4.063a.15.15 0 01.209-.054l3.331 2.038c.13.081.282-.063.209-.198z"/><path fill="#D84459" d="M16 18.006v3.595l-.915 1.604a.15.15 0 01-.281.01l-1.42-3.408a.15.15 0 00-.279.005l-2.662 2.78a.148.148 0 01-.243-.036c-.245-.542-.933-2.096-1.413-3.181.21-1.004.526-2.002.925-2.947l.94 2.183a.15.15 0 00.253.037L14 14.966a.15.15 0 01.272.035l1.588 2.93a.149.149 0 00.14.075z"/></svg>