<svg xmlns="http://www.w3.org/2000/svg" width="100%" height="100%" viewBox="-2.72 -2.72 37.44 37.44"><path fill="#9f442f" d="M26.982 22.024a6.588 6.588 0 00-1.738-2.463c-.134.162-.074.386-.18.557-.026.04-.05.105-.085.112-.054.01-.065-.057-.086-.102a1.935 1.935 0 00-.414-.57 4.4 4.4 0 01-1.028-.181c-.057-.006-.153-.043-.165-.024-.044.07.036.12.07.172a19.789 19.789 0 011.218 2.081c.034.069.109.146.065.22-.063.106-.166.015-.24 0a93.194 93.194 0 01-2.559-.543c-.244-.056-.252.032-.216.216a3.096 3.096 0 01.048.759 10.659 10.659 0 003.79 2.296 6.227 6.227 0 003.691.15 8.054 8.054 0 001.484-.66v-.059a4.843 4.843 0 01-1.041-.061 3.125 3.125 0 01-2.614-1.9zm-7.227 8.66a.624.624 0 00-.3.724.987.987 0 011.013.592h.12c.016-.13.146-.22.12-.364 0-.589-.178-.87-.953-.952z"/><path fill="#46171f" d="M23.098 6.582v-.001.001z"/><path fill="#9f442f" d="M24.447 18.75a.6.6 0 00-.329.499l.303.25.055.057.003.003a1.935 1.935 0 01.414.569c.021.044.032.112.086.102.034-.007.06-.071.085-.112.106-.17.046-.395.18-.557a3.003 3.003 0 01-.174-.546.5.5 0 00-.623-.265zm.968-1.466c-.368.146-.488.346-.394.652.056.181.255.214.35.353a1.079 1.079 0 01.401.425.644.644 0 00.074.078.34.34 0 00.051-.103 3.466 3.466 0 00.023-.711.71.71 0 00-.505-.694z"/><path fill="#201e23" d="M23.356 19.524c-.034-.05-.114-.101-.07-.17.012-.02.107.017.165.023a4.4 4.4 0 001.028.182l-.003-.003-.055-.057-.303-.25a2.421 2.421 0 01-.946-.516 1.265 1.265 0 00-.151.416c-.035.153-.092.14-.188.035a.826.826 0 01-.1-1.113l.005-.005c-.034-.004-.056-.02-.056-.057a7.59 7.59 0 00-2.502-.421c.013.12-.082.171-.149.242a1.663 1.663 0 00-.468.783.09.09 0 01-.04.107l-.01.014a2.375 2.375 0 00.138.26 14.336 14.336 0 011.527 2.785.077.077 0 01.01.051l-.003-.002a.383.383 0 01.19.178l.297.252a3.096 3.096 0 00-.048-.76c-.037-.183-.028-.271.216-.215.85.197 1.704.37 2.559.543.074.015.177.106.24 0 .044-.074-.031-.151-.065-.22a19.789 19.789 0 00-1.218-2.082z"/><path fill="#9f442f" d="M20.105 30.383c-.212-.01-.283.143-.35.3.775.082.954.364.954.953.246-.12.24-.394.361-.59-.085-.066-.087-.172-.119-.261-.158-.433-.391-.546-.846-.402z"/><path fill="#9f442f" d="M20.418 30.015a.433.433 0 01-.119.002c-.071.118-.212.2-.194.366.455-.144.688-.031.846.402.033.089.034.195.12.26.224-.317.21-.493-.029-.889-.167-.276-.39-.21-.624-.14z"/><path fill="#756d80" d="M16.807 9.431a9.116 9.116 0 002.005-2.096.913.913 0 00.13-1.001c-.076-.172-.137-.35-.205-.525a1.518 1.518 0 01-.173-.923 8.438 8.438 0 00.05-1.398c.002-.088.012-.195-.09-.232-.091-.033-.143.056-.194.112a8.209 8.209 0 00-1.041 1.374 5.795 5.795 0 01-1.249 1.545l-.045-.038v3.646c.015.002.03-.018.044-.014a3.826 3.826 0 00.768-.45zm.71-4.465c.261-.273.419-.627.698-.884.044-.04.09-.087.156-.057.074.032.052.095.047.156l-.283 1.027c-.007.025-.023.064-.038.065-.049.006-.058-.04-.074-.076-.017-.04.018-.12-.046-.113-.09.008-.13.265-.177.147-.063-.158-.092-.193-.246-.16-.064.013-.073-.066-.036-.105zm-.711 1.98c.038.033.295-.274.257-.306l.114-.082c.063-.063-.026-.102.062-.163a1.814 1.814 0 01.17-.2c.085-.076.17-.222.284-.162.08.041.038.201.022.305a.567.567 0 01-.418.544l.001-.001c-.019.017-.065.007-.084.023-.136.04-.245.106-.381.146-.032-.008.004-.016-.027-.023.022-.027-.023-.054 0-.08z"/><path fill="#2b282e" d="M22.133 3.276c-.021-.049-.067-.046-.11-.051-.117.01-.246.014-.125.186v.003l.067.054c.04.022.096.05.07.097-.014.024-.085.016-.13.022l-.062-.049a.326.326 0 00-.058-.01.117.117 0 01-.12-.06h.001a.113.113 0 01-.12-.06c-.054-.053-.133-.15-.184-.084-.04.052.055.147.128.198l.003.004.054.057.003.004.056.057.003.003.058.054.005.005.055.053.007.006.05.05a1.386 1.386 0 00.454.295 6.498 6.498 0 001.68-.135c.06-.013.136.001.177-.067a.765.765 0 00-.161-.063 6.733 6.733 0 01-1.801-.569zm3.4 3.42a15.52 15.52 0 01-1.658-.726 1.643 1.643 0 01-.476.065c-.059-.056-.162-.065-.176-.005-.028.13.123.071.178.122.081.081.28.052.27.181-.013.149-.197.119-.312.15a2.423 2.423 0 01-.257.044c-.024.004-.069.006-.07.012-.006.052.038.037.066.043a.127.127 0 00.12.062c-.006-.013-.017-.018-.025-.026.008.008.019.013.025.026.116.054.23.11.347.16.08.034.211.026.221.117.013.123-.129.136-.214.162-.178.055-.18.119-.035.216a3.015 3.015 0 002.042-.455c.182-.097.027-.122-.046-.148z"/><path fill="#4d1b3b" d="M21.672 3.706l.055.053zm-.062-.059l.057.054zm-.06-.06l.056.057zm-.057-.061l.054.057zm.241.239l.05.05z"/><path fill="#2b282e" d="M19.576 9.41c.104-.202.203-.407.304-.61-.083-.157-.341-.177-.31-.43a2.051 2.051 0 01.183-.708c.15-.29.276-.289.442-.01.04.067.064.146.144.18.288-.75.62-1.481.954-2.212l.012-.057.024-.04c-.043-.02-.116.047-.133.05l-.067.056c-.02.028-.044.054-.083.036l.01-.04.068-.124c.04-.08.082-.158.118-.239.02-.042.053-.107.036-.13-.038-.054-.088.005-.125.024a8.168 8.168 0 01-2.416.653c.068.175.13.353.205.525a.913.913 0 01-.13 1 9.116 9.116 0 01-2.005 2.097 3.832 3.832 0 01-.768.45c-.016-.013-.028.026-.044.014v4.094a2.768 2.768 0 001.535-.589c.561-1.392 1.366-2.659 2.046-3.99z"/><path fill="#9f442f" d="M19.88 8.8c-.101.203-.2.408-.304.61-.68 1.331-1.485 2.598-2.046 3.99a.867.867 0 00.053.356c.068.243.16.276.343.072.345-.385.71-.751 1.068-1.124.039-.04.073-.113.139-.085.025.01.024.089.03.137a14.826 14.826 0 01.023 2.321c-.007.178.017.194.162.118.352-.182.707-.36 1.06-.54.024-.03.056-.064.09-.03s0 .065-.03.089a4.4 4.4 0 01-.773 1.043c-.075.076-.172.136-.205.249a7.66 7.66 0 002.01-1.887l.166-.21c-.074-.54-.155-1.077-.219-1.617a2.025 2.025 0 00-.381-1.047l-.123-.12-.068-.033c.005-.005.01-.014.016-.016a.1.1 0 01.117.045l.124.058a2.475 2.475 0 01.891.489l.002-.067a9.688 9.688 0 00-1.046-1.65 4.213 4.213 0 00-1.1-1.152zm2.853 9.271a.826.826 0 00.1 1.113c.096.105.153.118.188-.035a1.265 1.265 0 01.151-.416c.043-.078.09-.154.128-.234.076-.16.199-.34-.004-.478a.396.396 0 00-.563.05z"/><path fill="#605377" d="M20.943 11.125l.123.12.066-.066-.124-.058z"/><path fill="#693aa4" d="M22.023 11.668l.06.055a.125.125 0 00-.058-.122z"/><path fill="#756d80" d="M25.415 17.284c-.013-.308-.02-.617-.041-.925a8.304 8.304 0 00-.824-3.361 5.567 5.567 0 01-.55-1.57 2.992 2.992 0 01-.189-.702c-.016-.056-.034-.136-.074-.153-.075-.032-.109.06-.157.102-.15.13-.178.355-.357.463-.112.064-.115.172-.113.282-.021.044-.031.111-.065.126-.072.033-.063-.048-.078-.086a6.758 6.758 0 00-.541-1.092 1.264 1.264 0 00-.314-.45l-.085.545c-.008.045.02.112-.034.13-.06.018-.074-.051-.098-.091-.158-.264-.322-.524-.473-.792-.354-.63-.785-1.216-1.083-1.877-.08-.035-.105-.114-.144-.181-.166-.28-.292-.28-.442.01a2.051 2.051 0 00-.184.709c-.03.252.228.272.31.428a4.213 4.213 0 011.1 1.153 9.688 9.688 0 011.046 1.65.125.125 0 01.058.121l.025.026-.015-.005a.083.083 0 01-.01-.02l-.06-.056a2.476 2.476 0 00-.89-.489l-.067.066a2.025 2.025 0 01.381 1.047c.064.54.146 1.078.22 1.616.158.758.308 1.517.477 2.272a9.146 9.146 0 00.543 1.763l-.005.066c0 .037.022.053.056.057l-.005.005a.396.396 0 01.563-.05c.203.137.08.318.004.478-.038.08-.085.156-.128.234a2.421 2.421 0 00.946.516.6.6 0 01.329-.5.5.5 0 01.623.266 1.391 1.391 0 00.302-.726c-.096-.139-.295-.172-.35-.353-.095-.305.025-.506.393-.652z"/><path fill="#674198" d="M22.083 11.723a.083.083 0 00.01.021l.015.005-.025-.026z"/><path fill="#41299b" d="M24.476 19.556l-.055-.057z"/><path fill="#201e23" d="M19.274 16.27c-.026-.035-.061-.058-.1-.036-.33.192-.657.386-.985.579l.01.112v-.001l.545.68a1.601 1.601 0 01.617-.427.945.945 0 01-.087-.908z"/><path fill="#605a69" d="M16.649 21.594a15.144 15.144 0 002.492 2.926c.095.09.117.15.04.271a4.74 4.74 0 00-.681 1.582 2.47 2.47 0 01-1.526 1.898c-.4.179-.47.423-.325.835a8.238 8.238 0 00.56 1.282 1.016 1.016 0 00.612.54 11.763 11.763 0 011.633.48.624.624 0 01.3-.724c.068-.158.139-.312.35-.301-.017-.166.124-.248.195-.366a3.94 3.94 0 01-1.003-.634.43.43 0 01-.157-.363 1.356 1.356 0 01.4-.907c.725-.809 1.443-1.623 2.178-2.423a1.1 1.1 0 00.28-.985 16.33 16.33 0 00-.705-2.617.58.58 0 01-.108-.26l.005.002a.077.077 0 00-.011-.051 14.336 14.336 0 00-1.527-2.785 2.39 2.39 0 01-.139-.26 7.776 7.776 0 01-.768-1.13l-.544-.68c-.037.036.12.268-.112.11a3.639 3.639 0 01-.621-.504c-.037-.04-.073-.112-.14-.081-.025.011-.021.085-.029.131-.094.547-.017 1.107-.12 1.653-.008.043.03.11-.031.122-.026.004-.074-.057-.097-.096-.153-.266-.3-.535-.454-.801-.03-.05-.076-.122-.117-.124-.065-.002-.064.081-.081.138-.116.377-.237.753-.356 1.13-.001.005-.033.002-.047.004v2.634a.567.567 0 01.062.003.697.697 0 01.592.35z"/><path fill="#7aebac" d="M19.361 17.177a1.601 1.601 0 00-.617.427 7.76 7.76 0 00.768 1.13l.011-.014c.037-.014.044-.052.04-.107a1.662 1.662 0 01.468-.783c.067-.07.162-.123.149-.242-.18-.321-.52-.327-.819-.411z"/><path fill="#9f442f" d="M17.289 4.742a8.209 8.209 0 011.04-1.374c.052-.056.104-.145.194-.112.103.037.093.144.091.232a8.438 8.438 0 01-.05 1.398 1.518 1.518 0 00.173.923 8.168 8.168 0 002.416-.653c.037-.02.087-.078.125-.025.017.024-.017.089-.036.131-.036.081-.078.16-.118.239l-.067.123-.011.04c.04.02.062-.007.083-.035l.068-.056c.016-.003.089-.07.132-.05l-.024.04-.012.057a38.3 38.3 0 00-.954 2.213c.298.662.729 1.248 1.083 1.877.15.268.315.528.473.792.024.04.038.109.098.09.055-.017.026-.084.034-.129l.085-.545a1.264 1.264 0 01.314.45 6.758 6.758 0 01.542 1.092c.014.038.005.119.077.086.034-.015.044-.082.065-.126-.002-.11.001-.218.114-.282.178-.108.206-.332.356-.463.048-.042.082-.134.157-.102.04.017.058.098.074.153a2.992 2.992 0 00.188.702.259.259 0 00.018-.057 7.806 7.806 0 00-.514-3.887c-.031-.067-.14-.153.034-.185-.145-.097-.142-.16.035-.216.086-.026.227-.04.214-.162-.01-.09-.142-.083-.22-.117-.118-.05-.232-.106-.348-.16a.128.128 0 01-.12-.063v.001c-.028-.006-.072.009-.066-.042.001-.007.046-.009.07-.013a2.414 2.414 0 00.258-.044c.114-.031.298-.001.31-.15.011-.129-.188-.1-.269-.18-.055-.052-.206.007-.177-.123.013-.06.116-.051.176.006a1.645 1.645 0 00.475-.066 8.762 8.762 0 01-2.037-1.57c-.084-.093-.258-.194-.216-.29.044-.097.228-.013.35-.011.089.001.177.007.266.01a1.385 1.385 0 01-.454-.296l-.05-.049-.007-.006-.055-.053-.005-.005-.058-.054-.003-.003-.056-.057-.003-.004-.054-.057-.003-.004c-.073-.051-.169-.146-.128-.198.051-.066.158.072.184.083.017.07.189.121.239.121a.326.326 0 01.058.01l.062.05c.065.015.115.017.13-.023.018-.054-.02-.075-.07-.097l-.067-.054V3.41c-.12-.172.008-.176.126-.186a12.104 12.104 0 01-1.843-1.452A6.789 6.789 0 0016.523.051a2.286 2.286 0 00-.528-.05v6.306c.016-.008.03-.011.045-.02a5.795 5.795 0 001.249-1.545zm4.486-1.265l-.11-.01z"/><path fill="#9f442f" d="M18.215 4.082c-.279.257-.437.61-.697.884-.037.04-.028.118.036.105.154-.033.183.002.246.16.048.118.087-.14.177-.148.064-.005.03.075.046.114.016.036.025.081.074.077.015-.002.031-.041.038-.066q.143-.513.283-1.027c.005-.061.027-.124-.047-.156-.066-.03-.112.017-.156.057z"/><path fill="#eef0ef" d="M17.41 6.194a1.814 1.814 0 00-.17.2c.114.152.056.324.057.488a.567.567 0 00.418-.544c.016-.104.057-.264-.022-.305-.114-.06-.2.086-.283.161z"/><path fill="#3ebc9c" d="M17.298 6.881l-.001.001.001-.001z"/><path fill="#7aebac" d="M17.24 6.395a3.25 3.25 0 00-.434.552l.027.103c.136-.04.245-.08.38-.12.02-.015.064-.032.084-.048-.001-.164.057-.336-.058-.487z"/><path fill="#e2e7e6" d="M16.738 7.074c.032.007.063-.032.095-.024l-.027-.103c-.023.026-.045.1-.068.127z"/><path fill="#7ba59d" d="M17.24 6.93l.058-.049z"/><path fill="#2b282e" d="M19.348 15.195c-.145.076-.169.06-.162-.118a14.826 14.826 0 00-.024-2.321c-.005-.048-.004-.126-.03-.137-.065-.028-.1.045-.138.085-.358.373-.723.74-1.068 1.124-.183.204-.275.171-.343-.072-.089.017-.1.083-.1.157a4.396 4.396 0 00.595 2.831l.11.069c.33-.193.657-.387.986-.579.039-.022.074.001.1.035l.216-.263c.033-.113.13-.173.205-.25a4.4 4.4 0 00.773-1.042l-.06-.06c-.353.18-.708.359-1.06.541z"/><path fill="#67409a" d="M20.875 11.093l.068.032.065-.004a.1.1 0 00-.117-.045c-.007.002-.01.01-.016.017z"/><path fill="#501f4c" d="M20.409 14.654l.059.06c.03-.024.064-.055.03-.09s-.066 0-.09.03z"/><path fill="#756d80" d="M16.398 17.472c.017-.057.016-.14.081-.138.041.002.088.074.117.124.153.266.3.535.454.8.023.04.07.101.097.097.061-.011.023-.079.031-.122.103-.546.026-1.106.12-1.653.008-.046.004-.12.03-.131.066-.031.102.041.139.081a3.639 3.639 0 00.621.503c.232.16.075-.073.112-.11v.002l-.011-.112-.111-.069a4.396 4.396 0 01-.596-2.831c.002-.074.012-.14.101-.157a.866.866 0 01-.053-.356 3.087 3.087 0 01-1.535.588v4.624l.047-.01c.12-.377.24-.753.356-1.13z"/><ellipse cx="17.119" cy="6.796" fill="#eef0ef" rx=".061" ry=".085"/><path fill="#ad4630" d="M12.241 30.684a.624.624 0 01.301.724.987.987 0 00-1.014.592h-.12c-.016-.13-.146-.22-.12-.364 0-.589.179-.87.953-.952z"/><path fill="#46171f" d="M8.898 6.582v-.001.001z"/><path fill="#ad4630" d="M7.55 18.75a.6.6 0 01.328.499l-.303.25-.055.057-.003.003a1.935 1.935 0 00-.414.569c-.021.044-.032.112-.086.102-.034-.007-.059-.071-.084-.112a2.37 2.37 0 01-.007-1.103.5.5 0 01.623-.265zm-.97-1.466c.37.146.489.346.395.652-.056.181-.255.214-.35.353a1.079 1.079 0 00-.401.425.644.644 0 01-.074.078.34.34 0 01-.05-.103 3.466 3.466 0 01-.024-.711.71.71 0 01.505-.694zm5.311 13.099c.212-.01.283.143.35.3-.774.082-.954.364-.954.953-.246-.12-.24-.394-.361-.59.085-.066.087-.172.12-.261.157-.433.39-.546.845-.402z"/><path fill="#ad4630" d="M11.579 30.015a.433.433 0 00.118.002c.072.118.212.2.194.366-.454-.144-.688-.031-.846.402-.032.089-.034.195-.12.26-.224-.317-.21-.493.03-.889.166-.276.388-.21.624-.14z"/><path fill="#7b7286" d="M15.957 9.88c.014-.003.03.017.044.015V6.249c-.016.014-.03.024-.045.038a5.795 5.795 0 01-1.249-1.545 8.209 8.209 0 00-1.04-1.374c-.051-.056-.103-.145-.194-.112-.103.037-.093.144-.091.232a8.44 8.44 0 00.05 1.398 1.518 1.518 0 01-.173.923c-.068.175-.129.353-.205.525a.913.913 0 00.13 1 9.116 9.116 0 002.005 2.097 3.826 3.826 0 00.768.45zm-1.515-4.81c-.154-.032-.182.003-.246.16-.048.12-.087-.138-.177-.147-.064-.005-.03.075-.046.114-.016.036-.025.081-.074.076-.015-.001-.03-.04-.038-.065l-.283-1.027c-.005-.061-.027-.124.047-.157.066-.029.112.018.156.058.28.257.437.61.697.884.037.04.029.118-.036.105zm.748 1.957c-.031.007.005.015-.027.023-.136-.04-.245-.106-.38-.146-.02-.016-.066-.006-.085-.023l.001.001a.567.567 0 01-.417-.544c-.017-.104-.058-.264.021-.305.114-.06.2.086.283.161a1.815 1.815 0 01.17.2c.09.062 0 .1.063.164l.114.082c-.038.032.22.339.257.307.023.026-.022.053 0 .08z"/><path fill="#39353d" d="M9.863 3.276c.022-.049.067-.046.11-.051.118.01.246.014.125.186v.003l-.067.054c-.04.022-.096.05-.069.097.013.024.084.016.129.022l.062-.049a.326.326 0 01.058-.01.117.117 0 00.12-.06.113.113 0 00.119-.06c.055-.053.133-.15.184-.084.041.052-.055.147-.127.198l-.004.004-.054.057-.003.004-.056.057-.003.003-.058.054-.005.005-.055.053-.006.006-.05.05a1.386 1.386 0 01-.455.295 6.498 6.498 0 01-1.68-.135c-.059-.013-.136.001-.177-.067a.765.765 0 01.161-.063 6.733 6.733 0 001.801-.569zm-.969 3.251a2.423 2.423 0 01-.257-.044c-.115-.031-.3-.001-.312-.15-.01-.129.19-.1.27-.18.055-.052.206.007.178-.123-.014-.06-.117-.051-.176.005a1.643 1.643 0 01-.476-.065 15.519 15.519 0 01-1.658.726c-.073.026-.228.051-.046.148A3.015 3.015 0 008.46 7.3c.145-.097.143-.16-.035-.216-.085-.026-.227-.04-.214-.162.01-.09.142-.083.22-.117.118-.05.233-.106.348-.16.006-.013.017-.018.026-.027-.009.009-.02.014-.026.028a.127.127 0 00.12-.064c.028-.005.072.01.066-.042-.001-.006-.046-.008-.07-.012z"/><path fill="#4d1b3b" d="M10.324 3.706l-.055.053zm.063-.059l-.058.054zm.059-.06l-.056.057zm.057-.061l-.054.057zm-.24.239l-.051.05z"/><path fill="#39353d" d="M12.42 9.41c-.104-.202-.203-.407-.304-.61.083-.157.342-.177.311-.43a2.051 2.051 0 00-.183-.708c-.15-.29-.277-.289-.442-.01-.04.067-.065.146-.145.18a38.93 38.93 0 00-.953-2.212l-.012-.057-.025-.04c.043-.02.116.047.133.05l.067.056c.02.028.044.054.084.036l-.012-.04-.067-.124c-.04-.08-.082-.158-.118-.239-.02-.042-.053-.107-.036-.13.038-.054.088.005.125.024a8.168 8.168 0 002.416.653c-.068.175-.129.353-.205.525a.913.913 0 00.13 1 9.116 9.116 0 002.005 2.097 3.832 3.832 0 00.768.45c.016-.012.028.026.044.014v4.094a2.768 2.768 0 01-1.535-.589c-.561-1.392-1.366-2.659-2.046-3.99z"/><path fill="#ad4630" d="M12.116 8.8c.101.203.2.408.304.61.68 1.331 1.485 2.598 2.046 3.99a.867.867 0 01-.053.356c-.068.243-.16.276-.343.072-.345-.385-.71-.751-1.068-1.124-.038-.04-.073-.113-.138-.085-.026.01-.025.089-.03.137a14.825 14.825 0 00-.024 2.321c.007.178-.017.194-.162.118-.352-.182-.707-.36-1.06-.54-.024-.03-.056-.064-.09-.03s0 .065.03.089a4.4 4.4 0 00.774 1.043c.075.076.171.136.204.249a7.66 7.66 0 01-2.01-1.887l-.166-.21c.074-.54.155-1.077.22-1.617a2.025 2.025 0 01.38-1.047l.123-.12.068-.033c-.005-.005-.01-.014-.015-.016a.1.1 0 00-.118.045l-.124.058a2.475 2.475 0 00-.89.489L9.97 11.6a9.688 9.688 0 011.046-1.65 4.213 4.213 0 011.1-1.152zm-2.853 9.271a.826.826 0 01-.1 1.113c-.096.105-.153.118-.187-.035a1.265 1.265 0 00-.152-.416c-.043-.078-.09-.154-.128-.234-.076-.16-.199-.34.004-.478a.396.396 0 01.563.05z"/><path fill="#693aa4" d="M9.973 11.668l-.06.055a.125.125 0 01.058-.122z"/><path fill="#41299b" d="M7.52 19.556l.055-.057z"/><path fill="#666070" d="M15.348 21.594a15.144 15.144 0 01-2.493 2.926c-.095.09-.116.15-.04.271a4.74 4.74 0 01.681 1.582 2.47 2.47 0 001.526 1.898c.4.179.47.423.325.835a8.238 8.238 0 01-.56 1.282 1.016 1.016 0 01-.611.54 11.763 11.763 0 00-1.634.48.624.624 0 00-.3-.724c-.068-.158-.139-.312-.35-.301.017-.166-.123-.248-.195-.366a3.94 3.94 0 001.003-.634.43.43 0 00.158-.363 1.356 1.356 0 00-.4-.907c-.726-.809-1.444-1.623-2.179-2.423a1.1 1.1 0 01-.28-.985 16.33 16.33 0 01.705-2.617.58.58 0 00.108-.26l-.005.002a.077.077 0 01.012-.05 14.336 14.336 0 011.526-2.786 2.388 2.388 0 00.14-.26 7.777 7.777 0 00.767-1.13l.545-.68c.036.036-.121.268.11.11a3.639 3.639 0 00.622-.504c.038-.04.073-.112.14-.081.025.011.021.086.03.131.093.547.016 1.107.119 1.653.008.043-.03.11.031.122.026.004.074-.057.097-.096.153-.266.3-.535.455-.801.028-.05.075-.122.116-.124.065-.002.064.081.081.138.116.377.237.753.356 1.13.001.005.033.002.047.004v2.634a.568.568 0 00-.062.003.697.697 0 00-.591.35z"/><path fill="#ad4630" d="M15.956 6.287c.016.009.03.012.045.02V0a2.286 2.286 0 00-.528.051 6.789 6.789 0 00-3.657 1.722 12.104 12.104 0 01-1.844 1.452c.119.01.247.014.126.186v.003l-.067.054c-.05.022-.088.043-.069.097.014.04.064.038.129.022l.062-.049a.326.326 0 01.058-.01c.05 0 .223-.05.24-.12h-.001c.026-.012.133-.15.184-.084.04.052-.055.147-.127.198l-.004.004-.054.057-.003.004-.056.057-.003.003-.058.054-.005.005-.055.053-.006.006-.051.05a1.385 1.385 0 01-.454.295c.089-.004.177-.009.266-.01.123-.002.307-.086.35.012.043.095-.132.196-.216.29A8.762 8.762 0 018.121 5.97a1.645 1.645 0 00.476.065c.06-.056.163-.065.176-.005.028.13-.123.071-.178.122-.08.081-.28.052-.27.181.013.149.197.119.312.15a2.414 2.414 0 00.257.044c.024.004.069.006.07.012.006.052-.038.037-.066.043a.128.128 0 01-.12.063c-.115.053-.23.109-.347.16-.08.033-.211.025-.221.116-.013.123.129.136.214.162.178.055.18.119.035.216.174.031.065.118.035.185a7.806 7.806 0 00-.515 3.887.258.258 0 00.018.057 2.992 2.992 0 00.188-.702c.016-.056.034-.136.074-.153.075-.032.109.06.158.102.149.13.177.355.356.463.112.064.116.172.113.282.021.044.031.111.065.126.073.033.063-.048.078-.086a6.758 6.758 0 01.541-1.092 1.264 1.264 0 01.314-.45l.086.545c.007.045-.022.112.033.13.06.018.074-.051.098-.091.158-.264.323-.524.473-.792.354-.63.785-1.215 1.083-1.877a38.93 38.93 0 00-.953-2.213l-.012-.057-.025-.04c.043-.02.116.047.133.05l.067.056c.02.028.044.054.084.036l-.012-.041-.067-.123c-.04-.08-.082-.158-.118-.239-.02-.042-.053-.107-.036-.13.038-.054.088.005.125.024a8.168 8.168 0 002.416.653 1.518 1.518 0 00.173-.923 8.44 8.44 0 01-.05-1.398c-.002-.088-.012-.195.09-.232.092-.033.143.056.194.112a8.209 8.209 0 011.041 1.374 5.795 5.795 0 001.249 1.545zm-5.625-2.82l-.11.01z"/><path fill="#ad4630" d="M13.78 4.082c.28.257.438.61.698.884.037.04.029.118-.036.105-.154-.033-.182.002-.246.16-.048.118-.087-.14-.177-.148-.064-.005-.03.075-.046.114-.016.036-.025.081-.074.077-.015-.002-.03-.041-.038-.066l-.283-1.027c-.005-.061-.027-.124.047-.156.066-.03.112.017.156.057z"/><path fill="#eef0ef" d="M14.586 6.194a1.815 1.815 0 01.17.2c-.114.152-.056.324-.057.488a.567.567 0 01-.417-.544c-.017-.104-.058-.264.021-.305.114-.06.2.086.283.161z"/><path fill="#3ebc9c" d="M14.698 6.881l.001.001-.001-.001z"/><path fill="#7aebac" d="M14.757 6.395a3.25 3.25 0 01.433.552l-.027.103c-.136-.04-.245-.08-.38-.12-.02-.015-.064-.032-.084-.048.001-.164-.057-.336.058-.487z"/><path fill="#e2e7e6" d="M15.258 7.074c-.032.007-.063-.032-.095-.024l.027-.103c.023.026.045.1.068.127z"/><path fill="#7ba59d" d="M14.756 6.93l-.058-.049z"/><path fill="#39353d" d="M12.648 15.195c.145.076.17.06.162-.118a14.825 14.825 0 01.024-2.321c.005-.048.004-.126.03-.137.065-.028.1.045.138.085.358.373.723.74 1.068 1.124.183.204.275.171.343-.072.089.017.1.083.1.157a4.396 4.396 0 01-.594 2.831l-.112.069c-.328-.193-.656-.387-.985-.579a1.496 1.496 0 01-.316-.228c-.033-.113-.13-.173-.204-.25a4.4 4.4 0 01-.774-1.042l.06-.06c.353.18.708.359 1.06.541z"/><path fill="#7b7286" d="M12.244 7.662c-.15-.29-.277-.29-.442-.01-.04.067-.065.146-.145.18-.298.663-.729 1.249-1.083 1.878-.15.268-.315.528-.473.792-.024.04-.038.109-.098.09-.055-.017-.026-.084-.033-.129q-.044-.272-.086-.545a1.263 1.263 0 00-.314.45 6.751 6.751 0 00-.541 1.092c-.015.038-.006.119-.078.086-.034-.015-.044-.082-.064-.126.001-.11-.002-.218-.114-.282-.179-.108-.207-.332-.356-.463-.05-.043-.083-.134-.158-.102-.04.017-.058.097-.074.153a2.994 2.994 0 01-.188.702 5.568 5.568 0 01-.551 1.57 8.305 8.305 0 00-.823 3.361c-.021.308-.029.617-.042.925.369.146.488.347.394.652-.056.181-.255.214-.35.353a1.391 1.391 0 00.301.726.5.5 0 01.623-.265.6.6 0 01.329.499 2.422 2.422 0 00.946-.516c-.043-.078-.09-.154-.128-.234-.076-.16-.199-.34.004-.478a.396.396 0 01.563.05l-.005-.005c.035-.004.057-.02.057-.057l-.006-.066a9.144 9.144 0 00.543-1.763c.17-.755.32-1.514.478-2.272.074-.538.155-1.076.22-1.616a2.025 2.025 0 01.38-1.047l-.066-.066a2.476 2.476 0 00-.89.489c-.02.018.017-.021-.003-.003v-.064a9.684 9.684 0 011.046-1.65 4.213 4.213 0 011.1-1.152c.082-.156.34-.176.31-.428a2.05 2.05 0 00-.183-.71z"/><path fill="#7b7286" d="M11.121 11.093c-.005-.006-.01-.015-.015-.017a.1.1 0 00-.118.045l-.124.058.066.066.123-.12z"/><path fill="#501f4c" d="M11.588 14.654l-.06.06c-.03-.024-.064-.055-.03-.09s.066 0 .09.03z"/><path fill="#7b7286" d="M15.598 17.472c-.017-.057-.016-.14-.081-.138-.04.002-.088.074-.116.124-.154.266-.302.535-.455.8-.023.04-.07.101-.097.097-.061-.011-.023-.079-.031-.122-.103-.546-.026-1.106-.12-1.653-.008-.046-.004-.12-.03-.131-.066-.031-.101.041-.139.081a3.639 3.639 0 01-.621.503c-.232.16-.075-.073-.111-.11v.002l.01-.112.112-.069a4.396 4.396 0 00.595-2.831c-.002-.074-.012-.14-.101-.157a.866.866 0 00.053-.356 3.087 3.087 0 001.535.588v4.624l-.047-.01c-.119-.377-.24-.753-.356-1.13z"/><ellipse cx="14.877" cy="6.796" fill="#eef0ef" rx=".061" ry=".085"/></svg>