<svg xmlns="http://www.w3.org/2000/svg" width="100%" height="100%" viewBox="-2.72 -2.72 37.44 37.44"><path fill="#945BA0" d="M23.846 12.792c3.345 5.174.926 9.156-.188 10.548-.025.004-.047.003-.072.008 0 0-.296-5.91-7.234-6.16l.5-2.688c.001 0 3.305.944 6.994-1.708z"/><path fill="#A366AD" d="M23.846 12.793c0-.001.001-.001 0 0 1.681-1.208 3.442-3.163 5.007-6.293 0 0 6 10 0 20 0 0-1.245-3.825-5.266-3.152.025-.004.047-.004.072-.008 1.113-1.392 3.532-5.374.187-10.547z"/><path fill="#0A6F8E" d="M29.282 6.243a.499.499 0 00-.875.033c-4.738 9.477-11.146 7.818-11.417 7.742a.5.5 0 00-.273.963c.077.021 1.923.531 4.413-.254a10.443 10.443 0 002.581-1.245c.588.99 2.921 5.501-.593 9.697a.5.5 0 00.765.642c3.971-4.741 1.215-9.95.639-10.924 1.435-1.122 2.947-2.799 4.33-5.317 1.227 2.556 4.372 10.664-.427 18.663a.5.5 0 00.857.514c6.084-10.14.062-20.412 0-20.514z"/><path fill="#0F769B" d="M22.586 11.657c1.147-1.147 1.365-3.966 1.405-5.136a.495.495 0 00-.512-.512c-1.169.041-3.989.259-5.136 1.405-.646.646-.721 1.546-.605 2.352A5.991 5.991 0 0016 9.504v14.489a4.97 4.97 0 002.656-.777c1.218 2.031 3.028 4.941 3.311 4.778.289-.167-1.391-3.298-2.545-5.37A4.958 4.958 0 0021 19c0-.312-.03-.616-.087-.911a8.68 8.68 0 01.011-3.253 4.52 4.52 0 00-.261-2.534c.683.031 1.39-.112 1.923-.645z"/><path fill="#A366AD" d="M8.154 12.792c-3.345 5.174-.926 9.156.188 10.548.025.004.047.003.072.008 0 0 .296-5.91 7.234-6.16l-.5-2.688c-.001 0-3.305.944-6.994-1.708z"/><path fill="#B370B9" d="M8.154 12.793c0-.001-.001-.001 0 0C6.472 11.584 4.712 9.63 3.147 6.5c0 0-6 10 0 20 0 0 1.245-3.825 5.266-3.152-.025-.004-.047-.004-.072-.008-1.113-1.392-3.532-5.374-.187-10.547z"/><path fill="#0F769B" d="M15.627 14.364a.506.506 0 00-.616-.346c-.271.076-6.679 1.735-11.417-7.742a.502.502 0 00-.876-.033c-.062.103-6.084 10.375 0 20.515a.498.498 0 00.686.171.5.5 0 00.171-.686c-4.799-7.999-1.654-16.107-.427-18.663 1.383 2.518 2.895 4.195 4.33 5.317-.577.973-3.332 6.182.639 10.924a.497.497 0 00.704.062.499.499 0 00.062-.704c-3.515-4.197-1.182-8.707-.593-9.697a10.443 10.443 0 002.581 1.245c2.489.786 4.335.275 4.413.254a.5.5 0 00.343-.617z"/><path fill="#137FA0" d="M15.33 9.534c-.37.037-.724.127-1.07.239.118-.807.044-1.711-.604-2.358C12.51 6.268 9.691 6.05 8.521 6.009a.495.495 0 00-.512.512c.041 1.169.259 3.989 1.405 5.136.539.539 1.256.68 1.947.644A4.152 4.152 0 0011 13.969a4.53 4.53 0 00.107 1.019c.241 1.073.121 2.18-.049 3.266a4.926 4.926 0 00.128 2.091 5.015 5.015 0 001.385 2.289c-1.153 2.071-2.827 5.193-2.539 5.359.283.164 2.088-2.737 3.306-4.768a4.81 4.81 0 001.709.687c.323.06.641.081.953.08V9.504a6.328 6.328 0 00-.67.03z"/><path fill="#B370B9" d="M12.11 11.172a4.82 4.82 0 011.005-.859c.221-.74.342-1.685-.165-2.192-.618-.617-2.211-.94-3.626-1.062a.25.25 0 00-.27.269c.118 1.385.44 2.994 1.068 3.622.241.241.583.358 1.044.358.322 0 .649-.059.944-.136z"/><path fill="#A366AD" d="M19.05 8.122c-.491.491-.394 1.396-.186 2.125.431.254.804.576 1.121.946.271.065.561.115.85.115.461 0 .803-.117 1.044-.358.628-.628.95-2.238 1.068-3.623a.25.25 0 00-.27-.269c-1.403.121-3.007.444-3.627 1.064z"/><path fill="#373F3F" d="M16 13c-1.657 0-3 .343-3 2s1.343 2 3 2v-4z"/><path fill="#2B3332" d="M19 15c0-1.657-1.343-2-3-2v4c1.657 0 3-.343 3-2z"/><path fill="#FFF" d="M14.082 16.705c.259.109.55.185.872.229-.086-.564-.278-1.684-.454-1.684-.155 0-.321.863-.418 1.455z"/><path fill="#F7F7F7" d="M16.538 13.016c.081.54.279 1.734.462 1.734.169 0 .352-1.027.442-1.608a5.254 5.254 0 00-.904-.126z"/><path fill="#FFF" d="M14.558 13.142c.09.581.273 1.608.442 1.608.182 0 .381-1.194.462-1.734a5.254 5.254 0 00-.904.126z"/><path fill="#F7F7F7" d="M17.046 16.934c.322-.044.613-.12.872-.229-.096-.592-.263-1.455-.418-1.455-.176 0-.369 1.12-.454 1.684z"/><path fill="#945BA0" d="M12.11 11.172a4.82 4.82 0 011.005-.859c.221-.74.342-1.685-.165-2.192-.037-.037-.089-.069-.132-.103a2.985 2.985 0 00-2.8 2.8c.035.043.066.095.103.132.241.241.583.358 1.044.358.323 0 .65-.059.945-.136z"/><path fill="#845194" d="M19.182 8.018c-.043.035-.096.066-.132.103-.491.491-.394 1.396-.186 2.125.431.254.804.576 1.121.946.271.065.561.115.85.115.461 0 .803-.117 1.044-.358.037-.037.069-.089.103-.132a2.985 2.985 0 00-2.8-2.799z"/></svg>