<svg xmlns="http://www.w3.org/2000/svg" width="100%" height="100%" viewBox="-2.72 -2.72 37.44 37.44"><path fill="#2b3332" d="M26.36 3.603a1.696 1.696 0 00-.452.315 10.029 10.029 0 00-1.216 1.369.291.291 0 00-.042.314 2.055 2.055 0 01.117.886 5.115 5.115 0 01-1.328 2.81 1.243 1.243 0 01-.224.186.638.638 0 01-.599.105 1.262 1.262 0 00-.964-.056 1.387 1.387 0 01-1.203-.042c-.009-.003-.017-.01-.026-.012a2.364 2.364 0 00-2.06.221c.075.315.357.463.553.679.108.118.255.2.365.318.155.165.317.071.48.04.169-.24.4-.123.594-.076a2.185 2.185 0 011.386 1.008c.05-.104.156-.095.245-.12a3.607 3.607 0 001.536-.77.992.992 0 01.393-.222 7.379 7.379 0 002.603-1.215 4.64 4.64 0 011.083-.658 12.877 12.877 0 011.888-.625c.46-.123.463-.117.538-.597.023-.143.038-.287.06-.43.063-.397.064-.397-.314-.285a.095.095 0 00-.024.017l-3.104.832c-.11.03-.274.117-.316.043-.05-.088.032-.242.114-.338a2.056 2.056 0 01.848-.64q1.25-.465 2.499-.935a4.103 4.103 0 01.461-.162.274.274 0 00.226-.26c.04-.248.085-.494.121-.743.061-.417.059-.417-.346-.294l-2.968.96c-.055.018-.125.053-.15-.018-.028-.079.032-.149.084-.205a4.454 4.454 0 011.037-.875c.722-.413 1.494-.723 2.244-1.08.3-.128.597-.264.902-.38a.38.38 0 00.255-.308A10.418 10.418 0 0132 1.003V.827c-.044.019-.09.036-.133.058-1.828.92-3.627 1.902-5.508 2.717z"/><path fill="#413b3b" d="M21.694 11.788a4.406 4.406 0 01-.847.267.238.238 0 01-.196-.005c-.373-.23-.79-.423-.83-.947-.01-.123-.04-.245-.06-.367-.163.031-.325.125-.48-.04-.11-.117-.257-.2-.365-.318-.196-.216-.478-.364-.552-.679a1.515 1.515 0 01-.34-.688 5.668 5.668 0 01-.194-2.18 3.244 3.244 0 01-.514 1.108c.082.06.02.12-.004.178a7.88 7.88 0 01-1.163 2.034c.175.236.352.471.526.708.05.067.118.133.06.229a.51.51 0 01.262.114 5.563 5.563 0 00.977.615c.642.245.82.862 1.195 1.32.06.072.04.135.024.214-.094.463-.226.915-.341 1.372-.121.48-.536.69-.85.993a3.92 3.92 0 01-.341.266 4.132 4.132 0 00-.464 2.678c-.059 1.002-.076 2.006-.134 3.007a8.597 8.597 0 01-.078 1.122 2.364 2.364 0 01-.603 1.226 1.747 1.747 0 00.993-.566c.102-.539.272-1.063.344-1.61a5.002 5.002 0 01.866-2.221 3.526 3.526 0 01.545-.633 2.617 2.617 0 01-.657-1.143 3.232 3.232 0 01.307-2.224 7.122 7.122 0 00.607-1.776c.111-.543.114-.53.665-.505a.397.397 0 01.408.27 4.102 4.102 0 00.775 1.15l.046.047.006.006.07-.154a1.22 1.22 0 011.197-.833.187.187 0 00.183-.063 9.915 9.915 0 00-.653-1.024 2.925 2.925 0 01-.39-.948z"/><path fill="#413b3b" d="M24.08 27.778c.045-.57.04-1.144.059-1.716-.464.622-.46.614-1.215.33a.682.682 0 01-.503-.526 5.974 5.974 0 00-.272-.823.84.84 0 01-.055-.613c-.016-.137-.142-.184-.23-.245a11.575 11.575 0 00-2.78-1.546 4.33 4.33 0 01-1.047-.612c-.14-.099-.171-.07-.2.08a9.487 9.487 0 01-.352 1.4c.072.063.14.131.217.188a12.978 12.978 0 003.123 1.641c.163.062.217.113.175.306a4.38 4.38 0 00-.135 1.754c.077.406.323.745.432 1.135.05.18.175.35.08.55a.74.74 0 01.079.708c-.001.116.002.231-.004.346a.868.868 0 00.65.997 13.049 13.049 0 001.564.41 3.843 3.843 0 01.391-1.847.38.38 0 01.51-.235c.205.05.409.105.614.157a2.9 2.9 0 00-.394-.339 1.442 1.442 0 01-.707-1.5z"/><path fill="#373f3f" d="M24.139 24.749a1.048 1.048 0 00-.356-1.018c-.085-.048-.19-.07-.233-.174-.79-.433-.602-.527-1.197.352-.027.039-.057.076-.085.114a1.377 1.377 0 01-.174.407.841.841 0 00.055.613 5.974 5.974 0 01.272.823.682.682 0 00.503.526c.754.285.751.292 1.215-.33a3.209 3.209 0 00.057-.862 2.202 2.202 0 01-.057-.451z"/><path fill="#2b3332" d="M22.766 21.877a24.412 24.412 0 00-1.696-1.826c-.162-.16-.408-.237-.484-.482a3.31 3.31 0 00-1.456-.584 3.526 3.526 0 00-.545.633 5.002 5.002 0 00-.866 2.22c-.072.548-.242 1.072-.344 1.611l.11.058a9.487 9.487 0 00.352-1.4c.029-.15.06-.179.2-.08a4.33 4.33 0 001.048.612 11.575 11.575 0 012.78 1.546c.087.061.214.108.229.245a1.377 1.377 0 00.174-.407 13.852 13.852 0 00-3.145-1.727 4.266 4.266 0 01-1.033-.588.202.202 0 01-.085-.264 6.182 6.182 0 011.04-2.091c.084-.112.173-.086.281-.053a4.654 4.654 0 011.542.91 12.809 12.809 0 012.6 3.133 1.11 1.11 0 01.082.214c.043.105.148.126.233.174.118-.129.04-.25-.011-.374a6.03 6.03 0 00-1.006-1.48z"/><path fill="#373f3f" d="M26.076 30.3q-.449-.34-.895-.683c-.205-.052-.41-.107-.615-.157a.38.38 0 00-.509.235 3.843 3.843 0 00-.391 1.847 1.434 1.434 0 00.455.125c.146-.002.249-.025.252-.221a.336.336 0 01.378-.374.12.12 0 00.137-.08c.09-.245.294-.27.517-.27.1 0 .228.05.293-.061.118-.2.303-.17.484-.172.013-.09-.042-.14-.106-.19zm1.215-23.64a2.056 2.056 0 00-.848.64c-.082.096-.164.25-.114.338.041.074.207-.014.316-.043q1.552-.418 3.104-.832a3.152 3.152 0 01.04-1.038l-2.498.934zm-.073-1.657c-.052.056-.112.126-.084.205.025.07.095.036.15.018l2.968-.96a3.433 3.433 0 01.247-1.218c-.75.357-1.522.667-2.244 1.08a4.454 4.454 0 00-1.037.875zM27.14 20.27a4.228 4.228 0 00-.902.402c-.162.087-.239.071-.34-.098-.396-.654-.814-1.294-1.224-1.94-.045-.071-.074-.18-.178-.163-.089.016-.082.126-.1.196-.112.45-.223.9-.319 1.353-.071.337-.131.405-.468.313-.268-.074-.542.009-.806-.08-.135-.045-.113.091-.134.168-.022.127.034.166.16.169.377.009.756.02 1.132.052.187.016.252-.054.283-.225.075-.419.164-.836.25-1.252a.836.836 0 01.066-.155.84.84 0 01.127.112 16.446 16.446 0 01.91 1.382c.132.213.227.53.416.605.208.083.47-.159.716-.233.302-.091.552-.23.615-.573-.056-.089-.126-.053-.204-.032zm-6.785-9.61c-.193-.047-.425-.164-.594.076.02.122.05.244.06.367.04.524.457.717.83.948a.238.238 0 00.196.004 4.406 4.406 0 00.847-.267c.076-.016.126-.043.047-.12a2.185 2.185 0 00-1.386-1.008z"/><path fill="#413b3b" d="M23.014 21.91a8.213 8.213 0 00-2.428-2.34c.076.244.322.321.484.48a24.412 24.412 0 011.696 1.827 6.03 6.03 0 011.006 1.48c.052.123.13.245.011.374a1.048 1.048 0 01.356 1.018 2.202 2.202 0 00.057.45 2.394 2.394 0 00-.096-1.507 13.956 13.956 0 00-1.086-1.782z"/><path fill="#373f3f" d="M28.964 18.703c-.138.087-.269.186-.404.278a.33.33 0 01-.482-.068c-.33-.337-.683-.654-1.029-.975a1.372 1.372 0 00-.234-.17c-.067-.04-.129-.012-.087.067.106.2.11.458.327.598l.05.06 1.127.861c.052.04.112.096.17.098.188.003.708-.511.747-.723-.038-.173-.126-.062-.185-.026z"/><path fill="#4f4949" d="M28.262 17.37a4.278 4.278 0 00-1.498-1.297 28.686 28.686 0 01-3.304-1.938c-.114-.082-.235-.14-.123-.309.084-.126.02-.207-.095-.283-.138-.09-.202-.015-.285.079-.057.063-.086.192-.22.138a.187.187 0 01-.183.063 1.22 1.22 0 00-1.196.833c-.025.05-.048.103-.071.154a4.818 4.818 0 001.112 1.006c.102.07.17.128.138.277a6.32 6.32 0 00-.103 1.3 16.944 16.944 0 00.235 3.028c.02-.077-.001-.213.134-.168.264.089.538.006.806.08.337.092.397.024.468-.313.096-.453.207-.904.32-1.353.017-.07.01-.18.1-.196.103-.017.132.092.177.163.41.646.828 1.286 1.223 1.94.102.169.18.185.34.098a4.228 4.228 0 01.903-.401c.078-.021.148-.057.204.032a.624.624 0 00.041-.47 7.35 7.35 0 00-.292-1.284l.012-.057-.05-.06c-.217-.139-.22-.396-.326-.597-.042-.08.019-.106.086-.067a1.372 1.372 0 01.234.17c.347.321.698.638 1.03.975a.33.33 0 00.481.068c.135-.092.266-.19.404-.278.06-.036.147-.147.185.026.112-.119.002-.193-.058-.272-.276-.363-.566-.715-.83-1.087z"/><path fill="#2b3332" d="M25.698 30.661c-.065.112-.193.06-.293.06-.223 0-.427.026-.517.272a.12.12 0 01-.137.079.336.336 0 00-.378.374c-.003.196-.106.219-.252.22a3.697 3.697 0 011.235.398h.117c.097-.144.05-.303.05-.457l.008-.086a.508.508 0 01.168.035c.227.145.292.041.29-.178l.01-.135.175.091c.22.118.27.089.264-.17a.917.917 0 00-.256-.675c-.18.001-.366-.028-.484.172z"/><path fill="#3d5148" d="M21.235 14.757l.046.046z"/><path fill="#838c8a" d="M17.598 6.082a4.963 4.963 0 00-1.566-1.233v2.658l.001.324v.226a.36.36 0 01.056.004c.167-.013.287-.2.476-.13-.01-.132.028-.188.158-.102.013-.079-.004-.179.123-.18l.038-.064a1.835 1.835 0 01.196-.213c.18-.145.074.066.115.097a2.894 2.894 0 01.646-1.056c-.006-.081.02-.17-.053-.237-.122.093-.153-.046-.19-.094z"/><path fill="#3a3333" d="M16.892 2.473a.196.196 0 01-.029-.162 1.206 1.206 0 00-.084-.79 1.771 1.771 0 00-.622-.115l-.125-.052v2.271c.602 0 .649.044.878.612a4.867 4.867 0 00.527 1.023 1.199 1.199 0 00.107-.863 4.978 4.978 0 00-.652-1.924z"/><path fill="#757f7e" d="M16.91 4.237c-.23-.568-.276-.612-.878-.612V4.85a4.963 4.963 0 011.566 1.233c.037.048.068.187.19.094-.061-.326-.274-.595-.351-.916a4.867 4.867 0 01-.527-1.023z"/><path fill="#1b1718" d="M17.195 7.47a.886.886 0 01-.18.306c-.088.234-.233.298-.45.155-.19-.07-.31.117-.476.13a.36.36 0 00-.057-.004v1.104a1.19 1.19 0 00.614-.277c.214-.322.445-.631.67-.945a3.244 3.244 0 00.514-1.109c-.014-.14.142-.274.011-.417a2.894 2.894 0 00-.646 1.056z"/><path fill="#65a9dc" d="M16.094 0l-.061.022v1.332l.124.052a1.771 1.771 0 01.622.116c-.117-.398-.229-.797-.353-1.192a.427.427 0 00-.332-.33z"/><path fill="#413b3b" d="M16.965 18.836l-.059.058a7.104 7.104 0 00-.816.757c-.012.024-.037.022-.058.028v4.391a.323.323 0 00.249-.039c-.062-.04-.034-.08.004-.115a2.474 2.474 0 00.622-1.608 19.888 19.888 0 00.051-2.55c.003-.31.07-.613.065-.922h-.058z"/><path fill="#2b3332" d="M16.958 19.758a19.888 19.888 0 01-.051 2.55 2.474 2.474 0 01-.622 1.608c-.038.035-.066.075-.004.115l.101-.016a2.364 2.364 0 00.604-1.226 8.597 8.597 0 00.077-1.122c.058-1 .075-2.005.134-3.007a.373.373 0 00-.174.176c.004.309-.062.611-.065.922zm3.964 9.492c-.135.067-.149.145-.014.225.181.107.365.21.548.314a.74.74 0 00-.079-.707 1.459 1.459 0 00-.455.168z"/><path fill="#838c8a" d="M17.974 11.817a5.563 5.563 0 01-.977-.615.51.51 0 00-.261-.114 6.227 6.227 0 01-.704.815v3.611l.061.055 1.568.413a3.92 3.92 0 00.34-.266c.315-.303.73-.513.85-.993.116-.457.248-.909.342-1.372.015-.079.035-.142-.024-.213-.375-.46-.553-1.076-1.195-1.32z"/><path fill="#373f3f" d="M16.149 10.15a.319.319 0 01-.117.025v1.729a6.227 6.227 0 00.704-.816c.057-.096-.012-.162-.06-.229-.175-.237-.352-.472-.527-.708z"/><path fill="#757f7e" d="M16.646 8.884a1.19 1.19 0 01-.614.277v1.014a.32.32 0 00.117-.024 7.88 7.88 0 001.163-2.034c.024-.059.086-.117.004-.178-.225.314-.456.623-.67.945z"/><path fill="#413b3b" d="M20.868 20.21a4.654 4.654 0 00-1.542-.91c-.108-.033-.197-.059-.281.052a6.182 6.182 0 00-1.04 2.092.202.202 0 00.085.264 4.266 4.266 0 001.033.588 13.852 13.852 0 013.145 1.727c.028-.038.058-.075.085-.114.595-.879.408-.785 1.197-.352a1.11 1.11 0 00-.083-.214 12.809 12.809 0 00-2.6-3.133z"/><path fill="#373f3f" d="M16.093 15.57l-.06-.056v.297q-.002 1.798 0 3.597v.271c.02-.006.045-.004.057-.028a7.104 7.104 0 01.816-.757l.06-.058h.057a.373.373 0 01.174-.176 4.132 4.132 0 01.464-2.678l-1.568-.413z"/><path fill="#a92f31" d="M16.884 7.585l-.038.064c-.018.076.078.23-.123.18-.13-.086-.169-.03-.158.102.217.143.362.079.45-.155a.3.3 0 01-.13-.19z"/><path fill="#f7f7f7" d="M17.08 7.372a1.828 1.828 0 00-.196.213.3.3 0 00.13.19.886.886 0 00.18-.306c-.04-.031.067-.242-.114-.097z"/><path fill="#282e2d" d="M16.723 7.83c.2.048.105-.105.123-.18-.127 0-.11.1-.123.18z"/><path fill="#23302b" d="M16.906 18.894l.06-.058z"/><path fill="#373f3f" d="M5.705 3.603a1.696 1.696 0 01.45.315 10.029 10.029 0 011.217 1.369.291.291 0 01.041.314 2.055 2.055 0 00-.116.886 5.115 5.115 0 001.328 2.81 1.243 1.243 0 00.224.186.638.638 0 00.599.105 1.263 1.263 0 01.964-.056 1.387 1.387 0 001.203-.042c.009-.003.017-.01.026-.012a2.364 2.364 0 012.06.221c-.075.315-.357.463-.553.679-.108.118-.255.2-.365.318-.155.165-.317.071-.48.04-.169-.24-.4-.123-.594-.076a2.185 2.185 0 00-1.386 1.008c-.05-.104-.156-.095-.245-.12a3.607 3.607 0 01-1.536-.77.992.992 0 00-.393-.222A7.379 7.379 0 015.546 9.34a4.64 4.64 0 00-1.083-.658 12.877 12.877 0 00-1.888-.625c-.46-.123-.463-.117-.538-.597-.023-.143-.038-.287-.06-.43-.063-.397-.064-.397.314-.285a.095.095 0 01.024.017l3.104.832c.11.03.274.117.316.043.05-.088-.032-.242-.114-.338a2.056 2.056 0 00-.848-.64q-1.25-.465-2.499-.935a4.103 4.103 0 00-.461-.162.274.274 0 01-.226-.26c-.04-.248-.085-.495-.121-.743-.061-.417-.059-.417.346-.294l2.968.96c.055.018.124.053.15-.018.028-.079-.033-.149-.084-.205a4.454 4.454 0 00-1.037-.875c-.722-.413-1.494-.723-2.244-1.08-.3-.128-.597-.264-.902-.38a.38.38 0 01-.255-.308 10.418 10.418 0 00-.344-1.357V.827c.044.019.09.036.133.058 1.828.92 3.627 1.902 5.508 2.717z"/><path fill="#4f4949" d="M10.37 11.788a4.406 4.406 0 00.847.267.238.238 0 00.196-.005c.373-.23.79-.423.83-.947.01-.123.04-.245.06-.367.163.031.325.125.48-.04.11-.117.257-.2.365-.318.196-.216.478-.364.552-.679a1.515 1.515 0 00.34-.688 5.668 5.668 0 00.194-2.18 3.245 3.245 0 00.514 1.108c-.082.06-.02.12.004.178a7.88 7.88 0 001.163 2.034c-.175.236-.352.471-.526.708-.05.067-.118.133-.06.229a.51.51 0 00-.262.114 5.563 5.563 0 01-.977.615c-.642.245-.82.862-1.195 1.32-.06.072-.04.135-.024.214.094.463.226.915.341 1.372.121.48.536.69.85.993a3.92 3.92 0 00.341.266 4.132 4.132 0 01.464 2.678c.059 1.002.076 2.006.134 3.007a8.595 8.595 0 00.077 1.122 2.364 2.364 0 00.604 1.226 1.747 1.747 0 01-.993-.566c-.102-.539-.272-1.063-.344-1.61a5.002 5.002 0 00-.866-2.221 3.526 3.526 0 00-.545-.633 2.617 2.617 0 00.657-1.143 3.232 3.232 0 00-.307-2.224 7.12 7.12 0 01-.607-1.776c-.111-.543-.114-.53-.665-.505a.397.397 0 00-.408.27 4.101 4.101 0 01-.775 1.15l-.046.047-.006.006-.07-.154a1.22 1.22 0 00-1.197-.833.187.187 0 01-.183-.063 9.912 9.912 0 01.653-1.024 2.926 2.926 0 00.39-.948z"/><path fill="#4f4949" d="M7.984 27.778c-.045-.57-.04-1.144-.059-1.716.464.622.46.614 1.215.33a.682.682 0 00.503-.526 5.974 5.974 0 01.272-.823.84.84 0 00.055-.613c.016-.137.142-.184.23-.245a11.576 11.576 0 012.78-1.546 4.33 4.33 0 001.047-.612c.14-.099.171-.07.2.08a9.485 9.485 0 00.352 1.4c-.072.063-.14.131-.217.188a12.978 12.978 0 01-3.123 1.641c-.163.062-.217.113-.175.306a4.38 4.38 0 01.135 1.754c-.077.406-.323.745-.432 1.135-.05.18-.175.35-.08.55a.74.74 0 00-.079.708c.001.116-.002.231.004.346a.868.868 0 01-.65.997 13.048 13.048 0 01-1.564.41 3.843 3.843 0 00-.391-1.847.38.38 0 00-.51-.235c-.205.05-.409.105-.614.157a2.9 2.9 0 01.394-.339 1.442 1.442 0 00.707-1.5z"/><path fill="#434c4b" d="M7.925 24.749a1.048 1.048 0 01.356-1.018c.085-.048.19-.07.233-.174.79-.433.602-.527 1.197.352.027.039.057.076.085.114a1.377 1.377 0 00.174.407.841.841 0 01-.055.613 5.974 5.974 0 00-.272.823.682.682 0 01-.503.526c-.754.285-.751.292-1.215-.33a3.209 3.209 0 01-.057-.862 2.202 2.202 0 00.057-.451z"/><path fill="#373f3f" d="M9.298 21.877a24.412 24.412 0 011.696-1.826c.162-.16.408-.237.484-.482a3.31 3.31 0 011.456-.584 3.526 3.526 0 01.545.633 5.002 5.002 0 01.866 2.22c.072.548.242 1.072.344 1.611l-.11.058a9.485 9.485 0 01-.352-1.4c-.029-.15-.06-.179-.2-.08a4.33 4.33 0 01-1.048.612 11.576 11.576 0 00-2.78 1.546c-.087.061-.214.108-.23.245a1.377 1.377 0 01-.173-.407 13.852 13.852 0 013.145-1.727 4.266 4.266 0 001.032-.588.202.202 0 00.086-.264 6.182 6.182 0 00-1.04-2.091c-.084-.112-.173-.086-.281-.053a4.654 4.654 0 00-1.542.91 12.809 12.809 0 00-2.6 3.133 1.11 1.11 0 00-.082.214c-.043.105-.148.126-.233.174-.118-.129-.04-.25.011-.374a6.031 6.031 0 011.006-1.48z"/><path fill="#434c4b" d="M5.988 30.3q.448-.34.895-.683c.205-.052.41-.107.615-.157a.38.38 0 01.509.235 3.843 3.843 0 01.391 1.847 1.434 1.434 0 01-.454.125c-.147-.002-.25-.025-.253-.221a.336.336 0 00-.378-.374.12.12 0 01-.137-.08c-.09-.245-.294-.27-.517-.27-.1 0-.228.05-.293-.061-.118-.2-.303-.17-.484-.172-.013-.09.042-.14.106-.19zM4.773 6.66a2.056 2.056 0 01.848.64c.082.096.164.25.114.338-.041.074-.207-.014-.316-.043q-1.552-.418-3.104-.832a3.153 3.153 0 00-.04-1.038l2.498.934zm.073-1.657c.052.056.112.126.084.205-.025.07-.095.036-.15.018l-2.968-.96a3.433 3.433 0 00-.247-1.218c.75.357 1.522.667 2.244 1.08a4.454 4.454 0 011.037.875zm.078 15.267a4.228 4.228 0 01.902.402c.162.087.239.071.34-.098.396-.654.814-1.294 1.224-1.94.045-.071.074-.18.178-.163.089.016.083.126.1.196.112.45.223.9.319 1.353.071.337.131.405.468.313.268-.074.542.009.806-.08.135-.045.113.091.134.168.022.127-.034.166-.16.169-.377.009-.756.02-1.132.052-.187.016-.252-.054-.283-.225-.075-.419-.164-.836-.25-1.252a.836.836 0 00-.066-.155.839.839 0 00-.127.112 16.448 16.448 0 00-.91 1.382c-.132.214-.227.53-.416.605-.208.083-.47-.159-.716-.233-.302-.09-.552-.23-.615-.573.056-.089.126-.053.204-.032zm6.786-9.61c.192-.047.424-.164.593.076-.02.122-.05.244-.06.367-.04.524-.457.717-.83.948a.238.238 0 01-.196.004 4.406 4.406 0 01-.847-.267c-.076-.016-.126-.043-.047-.12a2.185 2.185 0 011.386-1.008z"/><path fill="#4f4949" d="M9.05 21.91a8.213 8.213 0 012.428-2.34c-.076.244-.322.321-.484.48a24.412 24.412 0 00-1.696 1.827 6.031 6.031 0 00-1.006 1.48c-.052.123-.13.245-.01.374a1.048 1.048 0 00-.357 1.018 2.202 2.202 0 01-.057.45 2.394 2.394 0 01.096-1.507A13.957 13.957 0 019.05 21.91z"/><path fill="#434c4b" d="M3.1 18.703c.138.087.269.186.404.278a.33.33 0 00.482-.068c.33-.337.683-.654 1.029-.975a1.372 1.372 0 01.234-.17c.067-.04.129-.012.087.067-.106.2-.11.458-.327.598l-.05.06-1.127.861c-.052.04-.112.096-.17.098-.188.003-.708-.511-.747-.723.038-.173.126-.062.185-.026z"/><path fill="#5a5353" d="M3.802 17.37A4.278 4.278 0 015.3 16.073a28.686 28.686 0 003.304-1.938c.114-.082.235-.14.123-.309-.084-.126-.02-.207.095-.283.138-.09.202-.015.285.079.057.063.086.192.22.138a.187.187 0 00.183.063 1.22 1.22 0 011.196.833c.025.05.048.103.071.154a4.818 4.818 0 01-1.112 1.006c-.102.07-.17.128-.138.277a6.32 6.32 0 01.103 1.3 16.945 16.945 0 01-.235 3.028c-.02-.077.001-.213-.134-.168-.264.089-.538.006-.806.08-.337.092-.397.024-.468-.313a39.56 39.56 0 00-.32-1.353c-.017-.07-.01-.18-.1-.196-.103-.017-.132.092-.177.163-.41.646-.828 1.286-1.223 1.94-.102.169-.18.185-.34.098a4.228 4.228 0 00-.903-.401c-.078-.021-.148-.057-.204.032a.624.624 0 01-.041-.47 7.35 7.35 0 01.291-1.284l-.011-.057.05-.06c.217-.139.22-.396.326-.597.042-.08-.019-.106-.086-.067a1.372 1.372 0 00-.234.17c-.347.321-.698.638-1.03.975a.33.33 0 01-.481.068c-.135-.092-.266-.19-.404-.278-.06-.036-.147-.147-.185.026-.112-.119-.002-.193.058-.272.276-.363.566-.715.83-1.087z"/><path fill="#373f3f" d="M6.365 30.661c.066.112.194.06.294.06.223 0 .427.026.517.272a.12.12 0 00.137.079.336.336 0 01.378.374c.003.196.106.219.252.22a3.697 3.697 0 00-1.235.398H6.59c-.097-.144-.05-.303-.05-.457l-.008-.086a.508.508 0 00-.168.035c-.227.145-.292.041-.29-.178l-.01-.135-.175.091c-.22.118-.27.089-.264-.17a.917.917 0 01.256-.675c.18.001.366-.028.483.172z"/><path fill="#3d5148" d="M10.829 14.757l-.046.046z"/><path fill="#909997" d="M14.466 6.082a4.963 4.963 0 011.566-1.233v2.658l-.001.324v.226a.36.36 0 00-.056.004c-.167-.013-.287-.2-.476-.13.01-.132-.028-.188-.158-.102-.013-.079.004-.179-.123-.18l-.038-.064a1.834 1.834 0 00-.196-.213c-.18-.145-.074.066-.115.097a2.894 2.894 0 00-.646-1.055c.006-.082-.02-.171.053-.237.122.092.153-.047.19-.095z"/><path fill="#413b3b" d="M15.172 2.473a.196.196 0 00.029-.162 1.206 1.206 0 01.084-.79 1.771 1.771 0 01.622-.115l.125-.052v2.271c-.602 0-.649.044-.878.612a4.867 4.867 0 01-.527 1.023 1.199 1.199 0 01-.107-.863 4.978 4.978 0 01.652-1.924z"/><path fill="#838c8a" d="M15.154 4.237c.23-.568.276-.612.878-.612V4.85a4.963 4.963 0 00-1.566 1.233c-.037.048-.068.187-.19.094.061-.326.274-.595.351-.916a4.867 4.867 0 00.527-1.023z"/><path fill="#1b1718" d="M14.87 7.47a.886.886 0 00.18.306c.087.234.232.298.449.155.19-.07.31.117.476.13a.36.36 0 01.057-.004v1.104a1.19 1.19 0 01-.615-.277c-.213-.322-.445-.631-.669-.945a3.245 3.245 0 01-.514-1.109c.014-.14-.142-.274-.011-.417a2.894 2.894 0 01.646 1.056z"/><path fill="#71b1e1" d="M15.97 0l.061.022v1.332l-.124.052a1.771 1.771 0 00-.622.116c.117-.398.229-.797.353-1.192A.427.427 0 0115.97 0z"/><path fill="#4f4949" d="M15.099 18.836l.059.058a7.105 7.105 0 01.816.757c.012.024.037.022.058.028v4.391a.323.323 0 01-.249-.039c.062-.04.034-.08-.004-.115a2.474 2.474 0 01-.622-1.608 19.89 19.89 0 01-.051-2.55c-.003-.31-.07-.613-.065-.922h.058z"/><path fill="#373f3f" d="M15.106 19.758a19.89 19.89 0 00.051 2.55 2.474 2.474 0 00.622 1.608c.038.035.066.075.004.115l-.101-.016a2.364 2.364 0 01-.604-1.226 8.595 8.595 0 01-.077-1.122c-.058-1-.075-2.005-.134-3.007a.373.373 0 01.174.176c-.004.309.062.611.065.922zm-3.964 9.492c.135.067.149.145.013.225-.18.107-.364.21-.547.314a.74.74 0 01.079-.707 1.459 1.459 0 01.455.168z"/><path fill="#909997" d="M14.09 11.817a5.563 5.563 0 00.977-.615.51.51 0 01.261-.114 6.227 6.227 0 00.704.815v3.611l-.061.055-1.568.413a3.92 3.92 0 01-.34-.266c-.315-.303-.73-.513-.85-.993-.116-.457-.248-.909-.342-1.372-.016-.079-.035-.142.024-.213.375-.46.553-1.076 1.195-1.32z"/><path fill="#434c4b" d="M15.915 10.15a.319.319 0 00.117.025v1.729a6.227 6.227 0 01-.704-.816c-.057-.096.012-.162.06-.229.175-.237.352-.472.527-.708z"/><path fill="#838c8a" d="M15.418 8.884a1.19 1.19 0 00.614.277v1.014a.32.32 0 01-.117-.024 7.88 7.88 0 01-1.163-2.034c-.024-.059-.087-.117-.004-.178.225.314.456.623.67.945z"/><path fill="#4f4949" d="M11.196 20.21a4.654 4.654 0 011.542-.91c.108-.033.197-.059.281.052a6.182 6.182 0 011.04 2.092.202.202 0 01-.085.264 4.266 4.266 0 01-1.033.588 13.852 13.852 0 00-3.145 1.727c-.028-.038-.058-.075-.085-.114-.595-.879-.408-.785-1.197-.352a1.11 1.11 0 01.083-.214 12.809 12.809 0 012.6-3.133z"/><path fill="#434c4b" d="M15.97 15.57l.062-.056v.297l-.001 3.597v.271c-.02-.006-.045-.004-.057-.028a7.105 7.105 0 00-.816-.757l-.06-.058h-.057a.373.373 0 00-.174-.176 4.132 4.132 0 00-.464-2.678l1.568-.413z"/><path fill="#b33533" d="M15.18 7.585l.038.064c.018.076-.078.23.123.18.13-.086.169-.03.158.102-.217.143-.362.079-.45-.155a.3.3 0 00.13-.19z"/><path fill="#fff" d="M14.984 7.372a1.828 1.828 0 01.196.213.3.3 0 01-.13.19.886.886 0 01-.18-.306c.04-.031-.067-.242.114-.097z"/><path fill="#282e2d" d="M15.341 7.83c-.2.048-.105-.105-.123-.18.127 0 .11.1.123.18z"/><path fill="#23302b" d="M15.158 18.894l-.06-.058z"/></svg>