<svg xmlns="http://www.w3.org/2000/svg" width="100%" height="100%" viewBox="-2.72 -2.72 37.44 37.44"><path fill="#F7BC48" d="M15.823 24.82l-1.626-1.626a.25.25 0 00-.372.021l-3.501 4.376a.25.25 0 00.195.406H13l-.665 1.995c-.083.25.227.442.414.256L14 28.997l1.792 2.688a.248.248 0 00.208.111v-6.903a.249.249 0 01-.177-.073z"/><path fill="#EFB43F" d="M18 28.997l1.251 1.251c.187.187.497-.006.414-.256L19 27.997h2.48a.25.25 0 00.195-.406l-3.501-4.376a.25.25 0 00-.372-.021l-1.626 1.626a.249.249 0 01-.177.073v6.903a.248.248 0 00.208-.111L18 28.997z"/><path fill="#2B3332" d="M16 12.997l11.36-8.52c.196-.147.465.047.387.279L26 9.997l4.483 1.793c.2.08.212.359.019.456L25 14.997l5.342 5.342c.181.181.006.484-.241.418L16 16.997v-4z"/><path fill="#F7BC48" d="M16 13.997l9.152-10.982c.177-.212.517-.023.429.239L24 7.997l7.328-1.596a.25.25 0 01.251.397L26 13.997l5.254 1.073a.25.25 0 01.055.472L26 17.997l1.826 5.479a.25.25 0 01-.333.31L16 18.997v-5z"/><path fill="#373F3F" d="M16 12.997L4.64 4.477c-.196-.147-.464.047-.387.279L6 9.997 1.517 11.79a.25.25 0 00-.019.456L7 14.997l-5.342 5.342c-.181.181-.006.484.241.418L16 16.997v-4z"/><path fill="#FFC550" d="M16 13.997L6.848 3.015c-.177-.213-.516-.023-.429.239L8 7.997.672 6.401a.25.25 0 00-.251.397L6 13.997.746 15.07a.25.25 0 00-.055.472L6 17.997l-1.826 5.479a.25.25 0 00.333.31L16 18.997v-5z"/><path fill="#FF805D" d="M13.853 19.997s-2.762 3.075-1.542 4.496C13.853 26.292 17 22.695 17 22.695l-3.147-2.698z"/><path fill="#FF8D6E" d="M12.479 25.965a.5.5 0 00.466-.532l-.138-2.083.005-.003-2.217-3.916a.5.5 0 00-.87.492l1.428 2.521-2.463-.447a.5.5 0 00-.18.984l2.208.403-.801.454a.5.5 0 00.492.87l1.431-.81.106 1.602c.02.275.258.483.533.465z"/><path fill="#F57552" d="M18.147 19.997s2.762 3.075 1.542 4.496C18.147 26.292 15 22.695 15 22.695l3.147-2.698z"/><path fill="#FF805D" d="M23.891 22.4a.5.5 0 00-.582-.402l-2.462.449 1.428-2.521a.5.5 0 10-.87-.492l-2.217 3.916.005.003-.138 2.083a.5.5 0 10.998.066l.106-1.602 1.431.81a.5.5 0 10.492-.87l-.801-.454 2.208-.403a.502.502 0 00.402-.583z"/><path fill="#FFCF6E" d="M16 11.997c-2.209 0-4 2.91-4 6.5s2.857 7.5 4 7.5v-14z"/><path fill="#FFC550" d="M16 11.997c2.209 0 4 2.91 4 6.5s-2.857 7.5-4 7.5v-14z"/><path fill="#FFD98D" d="M15.768.577L14 4.997 9.636 2.379a.25.25 0 00-.361.307L11 6.997l-4.175.835c-.244.049-.275.385-.044.477L11 9.997l-2.715 5.431a.25.25 0 00.311.346L16 12.997V.42a.246.246 0 00-.232.157z"/><path fill="#FFCF6E" d="M23.715 15.427L21 9.997l4.219-1.688c.231-.092.2-.428-.044-.477L21 6.997l1.724-4.311a.25.25 0 00-.361-.307L18 4.997 16.232.577A.246.246 0 0016 .42v12.577l7.404 2.776a.25.25 0 00.311-.346z"/><path fill="#373F3F" d="M13.855 7.388l-.375-.392-.434 1.074a.25.25 0 00.017.221l.344.583a.25.25 0 00.215.123h.37c-.184-.199-.313-.517-.313-.896 0-.275.07-.519.176-.713z"/><path fill="#FFF" d="M14.618 8.997h.147c.098-.107.182-.243.235-.414l-.382-.399v.813zm-.48-1.313l-.284-.296a1.483 1.483 0 00-.176.713c0 .379.129.697.313.896h.147V7.684z"/><path fill="#373F3F" d="M14.138 7.684v1.313h.48v-.813z"/><path fill="#2B3332" d="M18.145 7.388l.375-.392.433 1.074a.25.25 0 01-.017.221l-.344.583a.25.25 0 01-.215.123h-.37c.184-.199.313-.517.313-.896a1.477 1.477 0 00-.175-.713z"/><path fill="#F7F7F7" d="M17.382 8.997h-.147A1.078 1.078 0 0117 8.583l.382-.399v.813zm.48-1.313l.284-.296c.106.193.176.437.176.713 0 .379-.129.697-.313.896h-.147V7.684z"/><path fill="#2B3332" d="M17.862 7.684v1.313h-.48v-.813z"/><path fill="#FF8D6E" d="M16 10.1a.249.249 0 00-.177.073l-.729.729a.247.247 0 00-.058.095H16V10.1z"/><path fill="#FF805D" d="M16.964 10.997a.247.247 0 00-.058-.095l-.729-.729A.253.253 0 0016 10.1v.896h.964zm-1.938.131l.729 3.643a.244.244 0 00.245.201v-3.975h-.964a.253.253 0 00-.01.131z"/><path fill="#F57552" d="M16 14.972a.244.244 0 00.245-.201l.729-3.643a.252.252 0 00-.01-.131H16v3.975z"/></svg>