<svg xmlns="http://www.w3.org/2000/svg" width="100%" height="100%" viewBox="0 0 2048 2048"><path fill="currentColor" d="M896.8 843.6c-8.9-6.8-16.6-12-28.4-11.8-44.7 0.6-89.4 0.2-134.1 0.2h-15.4v339.3c42.4 0 83.3-2 123.9 0.7 30.5 2 54.6-5.1 71.7-30.5 4.8-7.1 9.7-16.1 9.8-24.2 0.8-68.3-1-136.6 1.1-204.7 0.9-28.9-5.5-51-28.7-68.9zM1889.3 1025.5c3.8-3.8 8.6-6.5 14.1-10.5-39.8-39.5-77.1-76.6-114.4-113.7-22.3-22.2-44.8-44.2-66.5-67-3.4-3.5-5.3-11.2-4.1-15.9 20.9-79.8 42.3-159.5 63.6-239.2 0.4-1.4 0.4-2.8 0.7-5.5-44.9-12.2-89.8-24.4-134.8-36.6-35.5-9.6-70.8-19.8-106.5-28.5-9.9-2.4-13.2-7.1-15.6-16.1-20.3-77-41-153.8-61.7-230.6-0.7-2.8-2.1-5.4-3.8-9.4-29.9 7.8-59.5 15.5-89 23.4-52 13.9-103.9 28-155.9 41.6-3.6 0.9-9.5 0.4-11.8-1.9-59.7-59.7-119.1-119.8-178.6-179.7h-5.9c-59.3 59.6-118.4 119.2-178 178.5-2.8 2.7-9 4.2-12.9 3.2-30.3-7.8-60.4-16.4-90.6-24.5-51.9-13.9-103.9-27.6-155.7-41.3-1 1.5-1.7 2.3-2 3.2-20.9 78.2-42.1 156.2-62.1 234.6-3.3 12.8-9.6 18-21.4 21-74.2 19.4-148.1 39.5-222.3 58.8-12.2 3.2-14.7 6.9-11.1 19.9 20.9 75.2 39.9 151 60.6 226.2 2.6 9.6 0.2 14.3-5.7 20.2-55.4 55.2-110.4 110.7-166.1 165.5-9.5 9.4-10.3 14.6-0.3 24.4 55.8 54.8 110.7 110.4 166.2 165.5 6.5 6.5 8.3 11.7 5.6 21.5-20.8 75.2-40.1 150.9-60.8 226.1-3.4 12.3-0.3 16 11 19 75.9 20.1 151.6 41 227.5 60.6 10 2.6 13.4 7.4 15.7 15.7 11 41.5 22 82.9 33 124.4 10.4 39 20.8 77.9 31.2 117 82.8-22 164.2-43.8 245.7-65 4.5-1.2 11.8 0.3 15 3.5 59.3 58.8 118.3 118.1 177.3 177.3h5.9c22.3-22.8 44.4-45.7 66.9-68.3 35.7-35.9 71.6-71.6 107.3-107.6 5.7-5.8 10.4-7.3 19.1-5 76.3 20.8 152.8 40.7 229.2 60.8 4.1 1.1 8.4 1.7 13.8 2.8 9-33.1 17.9-65.5 26.6-97.9 12.8-47.6 25.7-95.3 38.2-143 2-7.7 4.6-12 13.6-14.4 79.3-20.9 158.3-42.8 237.4-64.3 1.8-0.5 3.5-1.3 5.8-2.1-21.3-79.3-42.1-158-63.8-236.6-3.2-11.6-2.1-18.9 7-27.8 54.8-53.7 108.7-108.3 163-162.4zM998.2 1180.8c-22.1 22.3-44.4 44.4-67.8 65.5-6.3 5.7-16.4 10-24.8 10.1-91 0.7-181.9 0.4-272.9 0.4-1.4 0-2.8-0.5-5.2-0.9v-509.4h15c84.6 0 169.1 0.1 253.7-0.1 16 0 29.4 5 40.8 16.6 20.3 20.7 40.7 41.3 61.5 61.5 12 11.6 17.5 25.7 17.6 41.7 0.2 91 0.1 181.9 0.1 272.9 0 16.5-6.8 30.4-18 41.7zM1508.1 1256h-340.8v-508.7h90.5v423.2h250.3v85.5z" /></svg>