<svg xmlns="http://www.w3.org/2000/svg" width="100%" height="100%" viewBox="0 0 599.04 599.04"><path fill="currentColor" d="M299.5 51.5l248 248-248 248-248-248zM299.5 450.9c84 0 152-68 152-152 0-84-68-152.1-152-152-83.9 0-152 68.1-152 152 0 83.9 68.1 152 152 152zM205.3 304c2-0.8 4.2-1.2 6.2-1.4 2.1-0.3 4.9-0.6 8.4-1v13.7c-1.5 1.4-3.2 2.6-5.1 3.4-1.8 0.9-3.7 1.2-5.4 1.2-3.3 0-5.8-0.5-7.3-1.7-1.6-1.2-2.5-3.3-2.6-6.4 0-2 0.6-3.7 1.6-5 0.9-1.3 2.3-2.2 4.2-2.8zM299.5 162.1c75.4 0 136.5 61.1 136.6 136.5 0 75.4-61.1 136.5-136.6 136.6s-136.5-61.1-136.5-136.6c0-75.4 61.1-136.5 136.5-136.5zM240.5 332.5l0 0v-44.9c0-7.7-2.6-13.5-7.9-17.3-5.2-3.7-13.4-5.7-24.7-5.7-4.7 0-9.2 0.4-13.8 1.3-4.5 0.8-7.8 1.5-9.8 2.1v16h1.6c3.2-1.3 6.3-2.6 9.6-3.4 3.2-0.9 6-1.4 8.5-1.4 5.4 0 9.4 0.7 12 2.1 2.6 1.3 4 3.9 4.1 7.5v0.4c-6 0.3-11.5 1-16.8 1.6-5.1 0.7-9.6 1.9-13.2 3.7-3.6 1.8-6.4 4.2-8.4 7.2-1.9 3-2.9 6.9-2.9 11.9 0 6 1.9 10.8 5.8 14.8 3.8 3.9 8.6 5.9 14.4 5.9 3.2 0 5.6-0.2 7.3-0.8 1.8-0.4 3.5-1.1 5.4-2 1.9-1 3.3-1.8 4.4-2.8 1-0.9 2.7-2.3 3.8-3.1v6.9h20.6zM306.8 287.7v-17.6c-3.7-1.9-7.3-3.2-10.9-4-3.6-0.9-7.3-1.3-10.9-1.3-4.8 0-9.5 0.7-13.9 2-4.5 1.3-8.4 3.3-11.6 6.1-3.5 2.8-6.1 6.5-8.2 10.8-2 4.5-3 9.7-2.9 16.1 0 5.8 0.9 10.9 2.7 15.3 1.9 4.3 4.4 7.8 7.7 10.8 3.3 2.8 7.2 4.9 11.7 6.3 4.5 1.3 9.6 2.1 15 2.1 2.9 0 5.2-0.2 6.9-0.6 1.7-0.3 3.7-0.6 5.7-1.2 1.7-0.4 3.2-1 4.6-1.6 1.6-0.7 2.9-1.3 4.1-1.8v-17.5h-2.6c-0.6 0.7-1.5 1.5-2.5 2.3-1 0.9-2.2 1.7-3.6 2.5-1.3 0.8-3 1.5-4.9 2.2-2 0.5-4.3 0.8-6.9 0.8-5.2 0-9.2-1.6-12.3-4.8-3.1-3.2-4.6-8.2-4.6-14.8 0-6.2 1.5-11.1 4.3-14.7 2.9-3.7 7-5.5 12.2-5.5 2.3 0 4.4 0.3 6.4 0.9 1.8 0.7 3.5 1.2 5 2.1 1.4 0.7 2.6 1.6 3.9 2.6 1.2 0.8 2.2 1.7 3 2.5h2.6zM396.5 332.5v0h20.5v-42.8c0-4.7-0.4-8.5-1.4-11.5-0.9-2.9-2.2-5.4-4.1-7.5-1.6-1.9-3.7-3.4-6.1-4.4-2.5-0.9-5.2-1.5-8.3-1.5-3.6 0-7.1 1-10.6 3-3.4 2-7.2 4.8-11.1 8.4-1.6-3.9-3.9-6.7-7.1-8.5-3-1.9-6.5-2.9-10.5-2.9-3.8 0-7.1 0.8-10 2.4-3 1.6-6.2 3.9-9.6 6.7v-7.3h-20.5v65.9h20.5v-46.7c1.5-1 3.1-1.9 4.7-2.8 1.6-0.7 3.2-1.1 5-1.1 2.2 0 3.9 0.3 5.2 0.9 1.2 0.6 2.1 1.6 2.7 3.1 0.6 1.4 0.9 3.3 1.1 5.5 0.1 2.3 0.2 5 0.2 8.1v33h20.5v-46.7c1.8-1.2 3.5-2.2 5.1-3 1.6-0.7 3.1-1 4.6-0.9 2.2 0 3.9 0.3 5.2 0.9 1.2 0.6 2.2 1.6 2.7 3.1 0.6 1.4 1 3.3 1.1 5.5 0.1 2.3 0.2 5 0.2 8.1v33z" /></svg>