<svg xmlns="http://www.w3.org/2000/svg" width="100%" height="100%" viewBox="0 0 599.04 599.04"><path fill="currentColor" d="M123.5 75.5h352c26.5 0 48 21.5 48 48v352c0 26.5-21.5 48-48 48h-352c-26.5 0-48-21.5-48-48v-352c0-26.5 21.5-48 48-48zM299.5 139.5c-13 9-130.9 120.2-137.1 131.2v60.1c8.6 0.2 123-119.6 137.1-125.3 14.2 5.7 128.5 125.5 137.2 125.3v-60.1c-6.2-10.9-124.1-122.1-137.2-131.2zM299.5 268.2c-13 9-130.9 120.2-137.1 131.1v60.2c8.6 0.2 123-119.6 137.1-125.3 14.2 5.7 128.5 125.5 137.2 125.3v-60.2c-6.2-10.9-124.1-122.1-137.2-131.1z" /></svg>