<svg xmlns="http://www.w3.org/2000/svg" width="100%" height="100%" viewBox="0 0 448 512"><path fill="currentColor" d="M48 32h352c26.5 0 48 21.5 48 48v352c0 26.5-21.5 48-48 48h-352c-26.5 0-48-21.5-48-48v-352c0-26.5 21.5-48 48-48zM107.1 96c-5.4-0.1-10.9 0.5-15.7 3.6-7.3 4.6-10.4 11.3-10.6 19.9-0.1 5.7 2.5 6.8-3.9 7.9-8 1.4-14.3 4.9-15.8 10.4-1.5 5.6-0.8 9.9 1.3 14.9 3.5 6.4 6.5 7.7 12.1 9.5 4.8 1.5 13.3 0.8 20.7-2.1 1.7-0.7 3.2-1.7 4.7-2.5 4.7-2.6 7.6-2.1 11.2 1.8 2.1 2.3 8.6 8.1 17.5 16.5-18.2 21.7-29.2 49.6-29.2 80.1 0 30.5 11 58.4 29.2 80.1-8.9 8.4-15.4 14.3-17.5 16.5-3.6 3.9-6.5 4.3-11.2 1.8-1.6-0.9-3.1-1.9-4.7-2.5-7.3-2.9-15.8-3.5-20.7-2.1-5.6 1.7-8.6 3-12.1 9.5-2.1 5-2.9 9.3-1.3 14.9 1.6 5.5 7.9 9.1 15.8 10.4 6.4 1.1 3.8 2.2 3.9 7.9 0.2 8.6 3.3 15.3 10.6 20 5.5 3.4 11.9 3.7 18 3.4 8.5-0.3 17.2-4.5 19.4-9.4 2.5-5.9-0.3-9.8-2.7-14-3-5.4-1.5-10.9 2.4-15.5 4.2-4.9 14.5-15.5 20.4-21.8 20.9 15.8 46.9 25.4 75.1 25.4 28.3 0 54.2-9.5 75.1-25.4 5.9 6.3 16.2 16.9 20.5 21.8 3.9 4.5 5.4 10 2.3 15.5-2.3 4.2-5.2 8.1-2.6 14 2.2 5 10.9 9.2 19.3 9.4 6.1 0.2 12.5-0.1 18-3.4 7.3-4.6 10.4-11.3 10.6-20 0.1-5.7-2.5-6.8 3.9-7.9 8-1.4 14.3-4.9 15.8-10.4 1.6-5.6 0.8-9.9-1.3-14.9-3.5-6.4-6.5-7.7-12.1-9.5-4.8-1.5-13.3-0.8-20.7 2.1-1.7 0.7-3.2 1.7-4.7 2.5-4.7 2.5-7.6 2-11.2-1.8-2.1-2.2-8.6-8.1-17.5-16.5 18.2-21.7 29.2-49.6 29.2-80.1 0-30.5-11-58.4-29.2-80.1 8.9-8.5 15.4-14.3 17.5-16.5 3.6-3.9 6.5-4.4 11.2-1.8 1.6 0.8 3.1 1.9 4.7 2.5 7.3 2.9 15.8 3.5 20.7 2.1 5.6-1.7 8.6-3 12.1-9.5 2.1-5 2.9-9.3 1.3-14.9-1.6-5.5-7.9-9.1-15.8-10.4-6.4-1.1-3.8-2.2-3.9-7.9-0.2-8.6-3.2-15.3-10.6-19.9-5.5-3.4-11.9-3.7-18-3.5-8.5 0.3-17.2 4.5-19.3 9.4-2.5 5.9 0.3 9.8 2.6 14.1 3 5.4 1.5 10.9-2.4 15.4-4.2 4.9-14.5 15.5-20.4 21.8-20.9-15.8-46.9-25.3-75.1-25.4-28.3 0-54.2 9.5-75.1 25.4-5.9-6.3-16.2-16.9-20.4-21.8-3.9-4.5-5.4-10-2.4-15.5 2.3-4.2 5.2-8.1 2.6-14-2.1-5-10.9-9.2-19.3-9.4-0.8 0-1.5-0.1-2.3-0.1zM224 139.1c64.4 0 116.9 52.4 116.9 116.9 0 64.5-52.4 116.9-116.9 116.9-64.5 0-116.9-52.4-116.9-116.9 0-64.4 52.4-116.9 116.9-116.9zM189.4 193.1c-6 0-10.9 10.5-10.9 23.5s4.9 23.5 10.9 23.5 10.9-10.5 10.9-23.5-4.9-23.5-10.9-23.5zM258.6 193.1c-6 0-10.9 10.5-10.9 23.5s4.9 23.5 10.9 23.5 10.9-10.5 10.9-23.5-4.9-23.5-10.9-23.5zM160.2 267.8c0 8.2-7.2 14.8-16.1 14.8v11.6c4.5 0 8.7-1.1 12.4-3 8.5 14.3 34.7 26.5 67.5 26.5 32.8 0 59-12.2 67.5-26.5 3.8 1.8 7.9 3 12.4 3v-11.6c-8.9 0-16.1-6.6-16.1-14.8h-11.5c0 6.1 2.3 11.7 5.9 16.1-3.9 9.9-27.5 22.2-58.2 22.3-30.7 0-54.3-12.3-58.2-22.3 3.6-4.5 5.9-10 5.9-16.1h-11.5z" /></svg>