<svg xmlns="http://www.w3.org/2000/svg" width="100%" height="100%" viewBox="0 0 2048 2048"><path fill="currentColor" d="M1024 135.8l-877.7 877.7 877.7 877.7 877.7-877.7-877.7-877.7zM1024.1 1549.3c-297.1 0-538-240.8-538-537.8 0-297.3 240.9-538.2 538-538.2 297.3 0 537.9 240.9 537.9 538.2 0 297.1-240.6 537.8-537.9 537.8zM690.4 1029.3c-6.4 2.1-11.3 5.4-14.6 10-3.6 4.6-5.6 10.5-5.6 17.7 0 10.8 3.1 18.4 8.9 22.5 5.8 4.1 14.5 5.9 26.1 5.9 5.9 0 12.5-1 18.9-4.3 6.9-2.6 12.8-6.9 18.1-12v-48.5c-12.3 1.3-22.2 2.5-29.6 3.4-7.4 0.8-14.9 2.3-22.2 5.1zM1024 527.1c-266.9 0-483.2 216.4-483.2 483.2 0 266.9 216.3 483.2 483.2 483.2s483.2-216.4 483.2-483.2c0-266.9-216.4-483.2-483.2-483.2zM815 1130.2h-72.9v-24.5c-4.9 3.9-9.4 7.6-13.5 11-3.8 3.4-8.9 6.4-15.6 9.9-6.6 3.4-12.6 5.9-19.1 7.2-6.1 1.8-14.6 2.6-25.8 2.6-20.5 0-37.6-7.2-51.1-20.9-13.6-14-20.5-31-20.5-52.2 0-17.6 3.5-31.5 10.3-42 7.1-10.7 16.9-19.2 29.7-25.5 13.1-6.2 28.9-10.7 47-13.1 18.4-2.3 37.9-4.6 59.1-5.8v-1.5c0-12.6-4.9-21.7-14.3-26.4-9.5-4.9-23.7-7.4-42.7-7.4-8.7 0-18.6 1.6-30.1 4.9-11.3 2.8-22.5 7.1-33.7 11.8h-5.9v-56.3c7.2-2.3 18.7-4.6 34.8-7.6 16.1-3 32.2-4.4 48.8-4.4 40.1 0 69.1 6.9 87.5 20 18.6 13.5 27.8 34 27.8 61.3v158.8zM1049.9 971.7h-9.4c-2.6-2.8-6.4-5.9-10.5-8.9-4.4-3.6-8.7-6.6-13.8-9.2-5.3-3.3-11.5-5.3-17.7-7.6-6.9-2-14.3-3.1-22.5-3.1-18.6 0-33 6.4-43.2 19.5-10 12.8-15.4 30.2-15.4 52.1 0 23.2 5.6 40.7 16.4 52.2 10.8 11.3 25.1 17.1 43.4 17.1 9.2 0 17.4-1.1 24.5-3 6.7-2.1 12.6-4.8 17.4-7.6 5.1-3 9.4-5.8 12.8-9 3.5-3 6.6-5.8 8.7-8.2h9.4v62.1c-4.1 1.8-8.9 3.9-14.5 6.4-5.4 2.1-10.7 4.1-16.6 5.6-6.9 2.3-13.8 3.3-19.9 4.4-6.2 1.1-14.3 1.8-24.5 1.8-19.2 0-37.1-2.6-53-7.4-15.8-4.9-29.6-12.3-41.4-22.3-11.8-10.3-20.9-23-27.4-38.1-6.6-15.3-9.7-33.5-9.7-54 0-22.5 3.3-41.1 10.5-57 7.1-15.6 16.4-28.4 28.7-38.4 11.7-9.7 25.3-16.9 41.2-21.5 15.6-4.8 32-7.1 49.1-7.1 12.8 0 26 1.6 38.6 4.8 13 2.8 25.8 7.6 38.8 14.1v62.3zM1367.3 1130.2v-116.6c0-11.3-0.2-20.9-0.7-28.9-0.5-7.9-1.8-14.5-3.9-19.4-2-5.1-5.4-8.5-9.7-10.8-4.3-2.5-10.5-3.4-18.2-3.4-5.6 0-11 1-16.6 3.4-5.4 2.5-11.3 6.1-17.7 10.3v165.4h-72.7v-116.6c0-11.3-0.2-20.9-0.7-28.9-0.7-7.9-1.6-14.5-3.8-19.4-2.3-5.1-5.4-8.5-9.7-10.8-4.6-2.5-10.7-3.4-18.4-3.4-6.1 0-11.8 1.3-17.6 3.9-5.8 3-11.3 6.2-16.6 9.9v165.4h-72.8v-233h72.8v25.8c11.8-10 23.2-18.1 33.7-23.8 10.3-5.6 22.2-8.5 35.5-8.5 14.1 0 26.8 3.4 37.3 10.2 11.2 6.7 19.2 16.8 25 30.4 14-13 27.3-23 39.4-30.1 12.5-7.1 25-10.5 37.6-10.5 10.8 0 20.5 2 29.2 5.3 8.5 3.6 15.9 8.9 21.7 15.6 6.7 7.6 11.5 16.4 14.6 26.8 3.5 10.3 4.9 23.7 4.9 40.4v151.6h-72.6z" /></svg>