<svg xmlns="http://www.w3.org/2000/svg" width="100%" height="100%" viewBox="0 0 1755 2048"><path fill="currentColor" d="M1658.9 232.3c-64.4-64.4-141.9-96.6-232.6-96.6h-1097.1c-90.7 0-168.1 32.1-232.6 96.6-64.4 64.3-96.6 141.9-96.6 232.6v1097.1c0 90.7 32.1 168.3 96.6 232.7 64.4 64.1 142 96.4 232.6 96.4h1097.1c90.7 0 168.2-32.3 232.6-96.6 64.4-64.4 96.6-141.9 96.6-232.6v-1097.1c0-90.7-32.2-168.3-96.6-232.6zM804.6 1257.8c-26.3 0-54.6-15.1-84.8-45.4-35.5-36.2-71.7-80.6-108.5-133.2-25-33.5-47-64.5-66.1-92.7-15.1-22.4-36.8-56.2-65.1-101.6 123.6-17.1 185.5-65.1 185.5-144 0-73.7-52.3-110.5-156.9-110.5h-39.5v540.5c0 19.1 3.5 34.6 10.4 46.5 6.9 11.9 20.2 25.4 40 40.5h-226.9c18.4-13.8 31.2-27 38.5-39.5 7.2-12.5 10.9-27.6 10.9-45.4v-535.7c0-15.1-3.1-29.9-9.3-44.4-4.1-6.6-8.3-12.8-12.4-18.7-4.1-5.9-11.7-15.1-22.7-27.6h244.7c79.6 0 141.9 16.1 187 48.3 45 32.2 67.6 77 67.6 134.2 0 44.7-15.1 82.2-45.4 112.5-17.1 17.1-33.9 29.6-50.3 37.5-16.4 7.9-42.4 16.1-77.9 24.7l66.1 87.8c13.8 18.4 32.6 41.1 56.2 68.1 26.3 29.6 54.6 59.9 84.8 90.8 27 28.3 48.2 48.8 63.6 61.7 15.4 12.8 39 28.1 70.5 45.9h-159.8zM1421.8 1473.5c-18.3 3.7-27.5 5.2-46.2 5.2-43.1 0.1-94.1-16.4-115.3-54.7-21.6-39.2-33.3-67.8-53.1-121.4-13-35.2-27.6-69.8-43-109-8.6 9.3-16.7 15.7-22 24-65.3 88.5-103.2 160.1-132.5 210.4-23.1 39.6-25 57.1-52.4 51.4-25-10.2-17.8-43.7-15.8-52.2 11.6-50 48.3-99.2 76.8-142.4 31.9-48.3 71.2-91.7 106.2-138 5.2-6.9 8.7-19.9 5.8-27.2-31.4-77.2-64-153.9-96.7-230.5-17.8-38-29.9-62.2-100-59.6-11.6-1.1-18.6-4.1-18.4-17.5 0-16.2 10.9-22 19-24.4 79.1-23.5 158.7-16.6 199.8 71.9 25.5 54.8 48.1 110.9 72.1 166.5 3.5 8.1 7.3 16.1 12.8 28.3 18-23.6 36-43.7 50-66.3 37.6-60.3 96.5-156.2 110.2-182.6 7-14.1 17.2-24.1 23.6-24.8 6.4-0.6 14.7-0.8 21.6 3.5s12.3 14.8 7.4 35.4c-4.9 20.5-7.7 28-14.4 43.9-39.5 86.3-97.3 160.7-158.2 232.6-11.5 13.6-12 23.5-5.6 38.9 27.5 65.6 53.2 131.9 80.5 197.5 9.1 21.8 20.3 42.8 31.5 63.7 11.3 21.1 19.4 32.2 53.8 31.8 14.2 0 41.1-3.8 43.3 16.7 2.5 22.4-24.7 25.7-40.9 29.1z" /></svg>