<svg xmlns="http://www.w3.org/2000/svg" width="100%" height="100%" viewBox="0 0 599.04 599.04"><path fill="currentColor" d="M299.8 107.5c56.6 0 102.7 46.1 102.6 102.7v96.5c11.5 18.5 18.2 40.3 18.2 63.8 0 66.8-54.3 121.1-121.1 121-66.8 0-121.1-54.3-121-121 0-23.7 6.8-45.8 18.6-64.5v-95.8c0-56.6 46.1-102.7 102.7-102.7zM299.8 148.6c-33.9 0-61.6 27.6-61.6 61.6v55.9c18-10.6 39-16.7 61.3-16.7 22.6 0 43.7 6.2 61.8 17v-56.2c0-33.9-27.6-61.6-61.5-61.6zM299.5 290.5c-44.1 0-80 35.9-79.9 80 0 44.1 35.9 80 79.9 79.9 44.1 0 79.9-35.9 80-79.9 0-44.1-35.9-80-80-80zM299.9 336.9c18.7 0 33.9 15.2 33.9 33.9 0 18.7-15.2 33.9-33.9 33.9-18.7 0-33.9-15.2-33.9-33.9 0-18.7 15.2-33.9 33.9-33.9z" /></svg>