<svg xmlns="http://www.w3.org/2000/svg" width="100%" height="100%" viewBox="0 0 448 512"><path fill="currentColor" d="M48 32h352c26.5 0 48 21.5 48 48v352c0 26.5-21.5 48-48 48h-352c-26.5 0-48-21.5-48-48v-352c0-26.5 21.5-48 48-48zM224.2 96c-47.2 0-85.6 38.4-85.6 85.6v79.8c-9.8 15.6-15.5 34-15.5 53.7 0 55.6 45.3 100.9 100.9 100.9 55.6 0 100.9-45.3 100.9-100.9 0-19.5-5.5-37.7-15.1-53.1v-80.4c0-47.2-38.4-85.6-85.6-85.6zM224.2 130.3c28.3 0 51.3 23 51.3 51.3v46.8c-15.1-9-32.7-14.2-51.5-14.2-18.6 0-36.1 5.1-51.1 14v-46.6c0-28.3 23-51.3 51.3-51.3zM224 248.5c36.7 0 66.6 29.9 66.6 66.6 0 36.7-29.9 66.6-66.6 66.6-36.7 0-66.6-29.9-66.6-66.6 0-36.7 29.9-66.6 66.6-66.6zM224.3 287.1c-15.6 0-28.3 12.7-28.2 28.3 0 15.6 12.7 28.3 28.2 28.3 15.6 0 28.3-12.7 28.3-28.3 0-15.6-12.7-28.3-28.3-28.3z" /></svg>