<svg xmlns="http://www.w3.org/2000/svg" width="100%" height="100%" viewBox="0 0 599.04 599.04"><path fill="currentColor" d="M374.1 194.9l0 0c36.7 0 66.5 29.9 66.5 66.5 0 36.7-29.9 66.5-66.5 66.5-7.7 0-15-1.4-21.9-3.7l-22.9 38.8c23 19.1 37.7 48 37.7 80.2 0 57.5-46.8 104.3-104.3 104.3-57.5 0-104.3-46.8-104.3-104.3 0-57.5 46.8-104.3 104.3-104.3 18.3 0 35.5 4.7 50.4 13.1l21.8-36.9c-16.6-12.1-27.4-31.6-27.4-53.7 0-29.9 19.9-55.3 47.2-63.6l-10-52.6c-0.6 0-1.3 0.1-1.9 0.1-25.9 0-46.9-21-46.9-46.9 0-25.9 21-46.9 46.9-46.9 25.9 0 46.9 21 46.9 46.9 0 18.3-10.6 34.2-26 41.9l10.3 54.6c0 0 0 0 0.1 0zM347.5 443.2c0-46.7-38-84.7-84.8-84.7-46.7 0-84.8 38-84.7 84.7 0 46.7 38 84.7 84.7 84.8 46.7 0 84.8-38 84.8-84.8zM342.8 129c16.9 0 30.6-13.7 30.6-30.6s-13.7-30.6-30.6-30.6c-16.9 0-30.6 13.7-30.6 30.6s13.7 30.6 30.6 30.6zM374.1 308.4c25.9 0 47-21.1 47-47 0-25.9-21.1-47-47-47s-47 21.1-47 47c0 25.9 21.1 47 47 47z" /></svg>