<svg xmlns="http://www.w3.org/2000/svg" width="100%" height="100%" viewBox="0 0 599.04 599.04"><path fill="currentColor" d="M159.1 266l0 0c8.7 0 19.9 5.5 26.1 11.6 6.2 6.1 8.5 16.5 8.5 25.3 0 8.8-5.1 19-11.2 25-6.1 6.1-16.6 9.8-25.4 9.8-9.8 0-16.5-5-22.6-12.4-5.1-6-7.9-14.5-8-22.1 0-7.6 2.5-16.8 7.6-22.8 6.3-7.3 15.3-14.4 25-14.4zM333.8 268.4c8.9 0 16.5 3.3 22.7 9.9 6.4 6.5 9.5 14.4 9.6 23.9 0 9.5-3.1 17.6-9.4 24.2-6.3 6.5-13.9 9.7-22.9 9.7-10.1 0-18.4-4-24.8-11.9-5.2-6.4-7.7-13.7-7.7-22 0-8.2 2.6-15.4 7.7-21.8 6.4-8 14.6-11.9 24.8-12zM299.5 51.5c137 0 248 111 248 248 0 137-111 248-248 248s-248-111-248-248c0-137 111-248 248-248zM240.7 375.3h0v-229.3h-45.9v98.5c-5.3-5.5-14.1-11.1-19.1-13.5-8.6-4.2-20.7-5-30.6-5-16.9 0-32.8 9-45.8 20.2-16.4 14.1-24.6 32.9-24.5 56.5 0 23.2 7.5 44.8 23.4 58.9 13.4 11.8 28.7 17.2 45.9 17.2 10.6 0 21.9-3 30.3-7.7 4.8-2.7 15.7-8.6 20.4-14.5v18.7h45.9zM397.9 354.2v0c12.6-14.4 18.9-31.8 18.9-52 0-20-6.4-37.2-19-51.7-15.6-17.7-36.4-26.5-62.6-26.5-28.4 0-50.3 8.8-65.6 26.5-12.7 14.7-19.1 31.5-19.1 50.4 0 21 6.3 38.8 19 53.3 15.3 17.6 36.7 26.4 64.3 26.4 27.5 0 48.9-8.8 64.1-26.4zM436.7 155c-5.3 5.3-7.9 11.7-7.9 19.3 0 7.6 2.6 14.1 7.9 19.5 5.4 5.4 11.9 8 19.5 8 7.7 0 14.2-2.6 19.5-7.8 5.4-5.4 8-11.9 8-19.7 0-7.6-2.7-14.1-8-19.3-5.4-5.4-11.9-8-19.5-8.1-7.6 0-14.1 2.7-19.5 8.1zM480.6 375.2v-145.8h-48.8v145.8h48.8z" /></svg>