<svg xmlns="http://www.w3.org/2000/svg" width="100%" height="100%" viewBox="0 0 448 512"><path fill="currentColor" d="M48 32h352c26.5 0 48 21.5 48 48v352c0 26.5-21.5 48-48 48h-352c-26.5 0-48-21.5-48-48v-352c0-26.5 21.5-48 48-48zM201 96c-1.1 0-2.2 0-3.4 0v0c-63 2.5-79.9 107.9-44.5 194.1 2.8 9.5 6.4 18.9 10.7 28.1-44.1 11.2-93.8 17.5-140.1 17.3 2.7 0.5 5.5 1.1 8.8 1.6 44.7 8.9 96.1 11.4 146.7 8.6 49.9 76.1 141.8 114 162.3-10.8-0.5 0.5-1.6 0.5-3.3 1.1-25.9 56.2-72.1 44.7-107.9 5 93.7-12.1 175.1-42.3 191.4-83.6 21.8-56.8-99.9-97.2-242.4-92.3-0.5 0-1 0-1.4 0 7.2-41.9 33.2-67.1 83.3-44.2-23.2-17-43.3-24.6-60.2-24.9zM177.7 166.4c73.2 8.7 136.8 38.2 110.3 83.9-12.9 22-43.5 40.8-82.7 55.1-2.6-4.8-5.1-9.7-7.4-14.7-18.2-40.4-26-88.3-20.2-124.3z" /></svg>