<svg xmlns="http://www.w3.org/2000/svg" width="100%" height="100%" viewBox="0 0 2048 2048"><path fill="currentColor" d="M527.1 894.9c-34.4 0-66.3 25-88.4 51-17.9 21.1-26.9 53.6-26.9 80.6 0 27 10.2 57.1 28.1 78.2 21.8 26 45.2 43.8 80 43.8 31.3 0 68.4-13.1 89.9-34.5 21.8-21.4 39.9-57.4 39.9-88.7 0-30.9-8.5-67.9-30.3-89.3-21.8-21.8-61.4-41.1-92.3-41.1zM1145.2 903.4c-35.8 0-65 14.1-87.5 42.2-18.3 22.6-27.4 48.4-27.4 77.3 0 29.3 9.1 55.2 27.4 77.8 22.5 28.2 51.6 42.2 87.5 42.2 32 0 59-11.5 81.1-34.5 22.1-23.3 33.2-51.9 33.2-85.6 0-33.3-11.2-61.5-33.7-84.5-22.1-23.3-49-35-80.6-35zM1024 135.8c-484.7 0-877.7 393-877.7 877.7s393 877.7 877.7 877.7 877.7-393 877.7-877.7c0-484.7-393-877.7-877.7-877.7zM815.8 1281.7h-162.6v-66.2c-16.5 20.7-55.3 41.8-72.2 51.3-29.5 16.5-69.6 27.3-107.1 27.3-60.8 0-114.8-19.2-162.3-61-56.5-49.9-83.1-126.1-83.1-208.3 0-83.6 29-150.3 86.9-200.2 46-39.7 102.3-71.5 162-71.5 34.8 0 77.6 3.1 108.2 17.9 17.6 8.4 49 28.3 67.6 47.6v-348.6h162.6v811.7zM1372.2 1206.9c-54.1 62.2-129.8 93.4-227.1 93.4-97.6 0-173.5-31.1-227.6-93.4-44.6-51.1-66.9-113.9-66.9-188.4 0-67.1 22.5-126.5 67.4-178.4 54.4-62.6 131.9-93.9 232.3-93.9 92.4 0 166.1 31.3 221.3 93.9 45 51.1 67.4 112.1 67.4 182.8 0 71.5-22.3 132.8-66.9 184zM1509.4 501.8c19-19 42-28.4 69-28.4s50 9.5 69 28.4c19 18.6 28.4 41.4 28.4 68.5 0 27.4-9.5 50.6-28.4 69.5-18.6 18.6-41.6 27.9-69 27.9-27 0-50.1-9.5-69-28.4-18.6-19-27.9-42-27.9-69 0-27 9.3-49.9 27.9-68.5zM1664.8 1281.3h-172.8v-516.1h172.8v516.1z" /></svg>