<svg xmlns="http://www.w3.org/2000/svg" width="100%" height="100%" viewBox="0 0 599.04 599.04"><path fill="currentColor" d="M139.8 83.5c2.9 0.2 6.8 2.6 6.7 2.6l125.1 76.7c12.2 7.5 15.1 18.1 15.1 18.1 12.2 45.6 10.8 41 12.1 45.6l11.8 44 20.4 76c0.1 0.4 0.2 0.8 0.2 1.2 1.8 9.8-7.5 14.1-7.4 14.1l-23.6 10.9s-40.9 19-111.1 51.7c-10.1 4.7-12.9-5.9-12.9-5.9l-44.2-164.9c-2.8-10.6 7.2-15.3 7.3-15.2l33.6-15.7 0 0-35.8-133.5c-1.2-4.6 0.4-5.8 2.7-5.7zM414.9 173.7c6.1 0.1 8 7.1 8 7.1l44.1 164.8c2.8 10.6-7.2 15.3-7.2 15.3l-33.6 15.6c35.7 133.4 10.8 40.2 35.7 133.4 2.8 10.6-9.4 3.1-9.4 3l-125.1-76.7c-12.2-7.5-15.1-18.1-15-18l-0.2-0.6-9-33.9 33.7-15.8s8.4-5.7 7.5-14.1c-0.1-0.4-0.1-0.7-0.3-1.2l-19.6-73.4 0.1 0-15.5-57.7 100.8-46.6c1.9-0.9 3.5-1.2 5-1.2z" /></svg>