<svg xmlns="http://www.w3.org/2000/svg" width="100%" height="100%" viewBox="0 0 599.04 599.04"><path fill="currentColor" d="M123.5 75.5h352c26.5 0 48 21.5 48 48v352c0 26.5-21.5 48-48 48h-352c-26.5 0-48-21.5-48-48v-352c0-26.5 21.5-48 48-48zM298.6 139.5c-69.1-0.7-145.3 46.8-157.9 143.5-9.5 73.6 36.9 152.8 125.6 173.5 0.6-1 1.4-2 1.7-3.2 0.9-3.3 1.4-6.7 2.3-9.9 7.7-26.1 8-51.2-9.2-74.2-6.4-8.6-13.1-19.2-25.7-19.2-7.8 0-14.4 0.5-22.2-0.4-7.7-0.9-18-1-24.5-10.8 6.2 1.9 11.2 4.1 15.3 5.2 7.3 1.9 15.4 0.8 21-4.9 5.4-5.5 5.9-12.2 2.5-19-4.4-8.5-7.4-16.9-13.6-24-17.7-22.3-25.9-51.2-18.6-59.8 1.4 11.7 6.2 40.3 19.5 48 1.7 1 4.9-2.6 5.5-7.4 1.9-15.4 2.5-25.8 0.4-41.2-1.1-8.3-3.9-20.3-5.1-27.8 6.2 1.1 8.8 11.5 10 27.2 2.3 31 3.2 52.4 7.8 70.9 5.4 21.7 13.9 40 35.9 48.3 19.8 7.5 31.7 1.2 38.5-18 5.8-16.2 2.9-30-6.4-43.2-19.3-27.3-38.8-54.5-42.5-89.1-1-9.7-3.9-16.7 1.6-30.9 1.2 4.7 2.7 8.2 3.1 11.8 2.7 30.8 16.5 57.2 33.3 82.1 5.9 8.7 13.1 16.7 21.1 23.4 6.7 5.7 11.7 3.2 13.9-5.3 1.7-6.9 3.6-14 3.7-21.1 0.2-10.9 2.1-22.7-2-32.8-3.9-9.6-7.3-20.5-10.1-30.9-3.4-12.3-6.5-33 2.9-38.8-3.7 25.3 10.7 69 14.9 70 4.2 1 3.2-28.3 6.9-49.2 0 0 0.2-7.7 4.4-12.5 1.2 3.9 1.3 10.2 1.2 13.7-0.5 22.2 0.1 44.1-1.8 66.1-1.7 19.8-3.8 40.5-8.7 59.7-3.6 14.2-11.5 27.4-16.8 41.3-1.4 3.6-1.7 8.8-0.1 12 0.9 1.7 7.5 1.7 10.9 0.4 8.4-3.2 17.3-6.3 24.2-11.6 20.7-16.2 42.9-33.5 62.9-58.4 0.2-0.8-3.1 9.4-3.5 10.5-8.1 19.6-21.8 33.5-40.2 44.2-10.7 6.2-21.6 12-22.1 21.6 0.7 7.4 33.4 9.4 50.5 10.9-7.3 4.2-14.6 5-21 5.4-11.8-0.5-21.2-2-33.1-3.3-13.7-1.5-26.4 1.9-34.4 12.9-13.8 18.9-17.1 41.4-19.3 64.3 65.6 0.4 148.8-45.6 157.7-149.3 6.3-73.1-42.1-158.9-146.7-169.9-4.5-0.5-9.1-0.7-13.7-0.8z" /></svg>