<svg xmlns="http://www.w3.org/2000/svg" width="100%" height="100%" viewBox="0 0 1755 2048"><path fill="currentColor" d="M896.8 614.7c-27.6-30.8-59.6-46.2-95.8-46.2-41 0-72.4 14.7-94.3 44.1-21.9 29.3-32.9 64.8-32.9 106.6 0 35.5 6 71.7 18 108.6 12 36.9 31.5 69.8 59 98.8 27.3 29.1 59.1 43.6 95.3 43.6 40.3 0 71.8-13.5 94.3-40.5 22.5-27 33.8-61 33.8-102 0-34.9-6-71.5-17.9-109.7-11.9-38.3-31.8-72.8-59.5-103.5zM1658.9 232.3c-64.4-64.4-141.9-96.6-232.6-96.6h-1097.1c-90.7 0-168.1 32.1-232.6 96.6-64.4 64.3-96.6 141.9-96.6 232.6v1097.1c0 90.7 32.1 168.3 96.6 232.7 64.4 64.1 142 96.4 232.6 96.4h1097.1c90.7 0 168.2-32.3 232.6-96.6 64.4-64.4 96.6-141.9 96.6-232.6v-1097.1c0-90.7-32.2-168.3-96.6-232.6zM1297.8 590.7v392.1c0 18.2-14.9 33-33 33h-12.2c-18.2 0-33-14.9-33-33v-392.1c0-16.1-2.3-29.6 20.2-32.4v-52.2l-173.4 142.2c2 3.7 3.9 6.1 5.7 9.2 15.2 27 23 60.5 23 101.5 0 31.4-5.2 59.7-15.9 84.6-10.6 24.9-23.4 45.3-38.4 61-15 15.7-30 30.1-45.1 43.1-15 13-27.9 26.5-38.4 40.5-10.6 14-15.9 28.5-15.9 43.5 0 15 6.9 30.3 20.5 45.7 13.6 15.4 30.4 30.4 50.2 45.1 19.9 14.7 39.7 30.9 59.5 48.7 19.9 17.7 36.5 40.5 50.1 68.1 13.7 27.7 20.6 58.3 20.6 91.9 0 44.3-11.3 84.3-33.8 119.9-22.6 35.4-52 63.7-88.1 84.5-36.2 20.9-75 36.6-116.3 47.2-41.4 10.5-82.5 15.8-123.6 15.8-25.9 0-52-2-78.3-6.1-26.4-4.1-52.8-11.3-79.4-21.5-26.7-10.3-50.3-22.9-70.8-38-20.5-15-37-34.3-49.7-57.9-12.7-23.6-19-50-19-79.4 0-34.9 9.7-67.2 29.2-97.4 19.5-29.9 45.3-55 77.4-74.8 56-34.8 143.9-56.4 263.4-64.5-27.3-34.2-41-66.3-41-96.4 0-17.1 4.5-35.5 13.3-55.3-14.3 2-29 3.1-44 3.1-64.2 0-118.5-20.9-162.5-62.9-44-42-66-94.5-66-158 0-6.6 0.2-12.5 0.7-19h-261l393.6-342.2h651.9l-60.2 47v83c22.4 2.9 20 16.3 20 32.4zM900.4 1200c-7.5-1.4-18.1-2.1-31.7-2.1-29.4 0-58.3 2.6-86.7 7.8-28.4 5-56.4 13.6-84 25.6-27.7 12-50.1 29.5-67.1 52.8-17.1 23.2-25.7 50.5-25.7 82 0 30 7.5 56.7 22.6 80 15 23.1 34.8 41.3 59.4 54.2 24.6 13 50.4 22.8 77.4 29.3 27 6.4 54.5 9.7 82.5 9.7 55.4 0 103-12.5 143-37.4 39.9-24.9 59.9-63.4 59.9-115.4 0-10.9-1.5-21.7-4.5-32.2-3.1-10.6-6.2-19.7-9.3-27.3-3-7.4-8.9-16.3-17.4-26.6-8.5-10.3-15-17.9-19.4-23-4.5-5.2-12.9-12.7-25.2-22.6-12.2-9.9-20-16.1-23.5-18.4-3.4-2.4-12.3-8.9-26.7-19.5-14.3-10.6-22.2-16.3-23.6-16.9z" /></svg>