<svg xmlns="http://www.w3.org/2000/svg" width="100%" height="100%" viewBox="0 0 384 512"><path fill="currentColor" d="M252.9 446.3l-94.2 25.3c-6.7 1.8-13.7-2.2-15.5-9-1.8-6.7 2.2-13.7 8.9-15.4l94.2-25.3c6.7-1.8 13.7 2.2 15.5 8.9 1.8 6.7-2.2 13.7-8.9 15.5zM209.3 156.8c-0.8 11.5-7.3 18-17.5 17.8-10-0.2-17.4-7-17.1-17.6 0.2-10.2 6.6-16.9 17.5-16.7 10.9 0.1 16.3 6.5 17.1 16.5zM330 118.1c37.5 61.9 29.3 141.2-19.9 193.4-6 6.3-12.3 12.3-18.6 18.3-11.8 11.1-19.1 24.2-19.5 40.9-0.3 11.2-6.3 19.1-17.3 22.2-1.6 0.4-120.9 32.5-120.9 32.5-6.6 1.8-13.4-2.2-15.2-8.8l-0.2-1c-1.8-6.6 2.2-13.4 8.7-15.1 0 0 104-29.1 102.2-27.5 9.5-2.3 15-7.2 17.3-17 4.9-20.9 18.5-36.5 33.4-51 24.8-24 41.4-51.9 46-86.8 6.7-52.3-18.7-106.4-65.3-132.7-50.2-28.3-100.6-26.4-147.6 7.1-65.3 46.6-74.9 136.6-22.5 197.5 14.6 17 29.4 33.7 45.7 52.3 42.8-6.3 42.8-6.3 42.7-49.8 0-27 0.2-54.1 0-81.1-0.1-9.6 3.1-17.1 13.3-16.9 10.2 0.2 13.1 8 13.1 17.4-0.2 41.7-0.2 83.4 0 125.2 0.1 10.3-3.8 16.1-14 18.6-20 4.9-39.7 10.8-59.8 15.6-14.4 3.5-16.3-0.7-22.2-13.9-5.9-13.2-15.5-25.7-26-36-44.6-43.7-62.2-95.9-48.1-156.5 14.3-61.3 53.7-101.1 114.1-118.8 69-20.2 143.2 9.9 180.6 71.9z" /></svg>