<svg xmlns="http://www.w3.org/2000/svg" width="100%" height="100%" viewBox="0 0 448 512"><path fill="currentColor" d="M169.4 64c9.8 1.8 33.8 16.2 42.9 21.9 12.6 7.9 29.4 19.9 39.7 30.5 14.2 14.5 24.8 32.1 33.8 50.1 6.8 13.7 15.3 36 15.4 51.3 0 3 0.8 10.6-3.3 11-3.7 0.4-12.7-10.3-15.5-13.1-13-13-27.2-24.9-41.8-36l-33.2-24.8c-11.2-11.8-17.6-25.9-23.6-40.7-5.4-13.6-12.4-35.9-14.4-50.2zM7.2 107.9l48.2 6.9c55.3 10 109.8 29.7 156.9 60.5 20.7 13.5 41 29.2 58.3 46.9l16 16.5c2.3 2.3 6.1 6 9.4 6.4 4.2 0.5 7.3-3.5 9.5-6.4l17.5-25.1c15.5-19.2 39-32.1 64-32.4h14.7c8.6 0 20.9 1.9 29.3 3.8 2.8 0.6 8.8 1.6 9.7 4.7 1 3.5-5.3 7.1-7.6 9.1-8.2 6.5-12.5 12.8-17 22.1-13.9 29.4-12.8 69.4-29.4 105.7-27.3 59.8-75.8 101-139.9 116.3-18.4 4.4-36.7 5.3-55.4 5.1-14.3-0.2-35.4-4.1-49.2-8.4-5.2-1.6-13.4-3-16.7-7.3 34.5-1.6 74-23.6 98.3-47.1 6-5.8 17.2-19.2 22.1-26.2 1.8-2.6 5.6-8.1 4.5-11.4-1.5-4.9-9-4.3-13-4.3l-26.1 2.1c-39.6 0.5-65.1-16.7-90.5-46-5.7-6.6-15.3-16.2-18.4-24.1l32.5-5.9 18.8-2.4c-25.3-5.1-63.2-23.9-81.6-41.9-7.1-7-15.2-14.6-18.8-24 11.9-3.4 23.3-4.3 35.5-4.2 7.6 0.1 11.1 2.2 18.9 0-7.4-2.8-25.2-14.3-32.5-19.2-18.1-12-33.6-21.8-49.1-37.3-9.1-9.1-17.6-19.1-18.9-32.5zM379.7 202.6c-13.3 5.3-5.7 20.3 4.2 17.9 10.5-2.6 9.5-19.2-4.2-17.9z" /></svg>