<svg xmlns="http://www.w3.org/2000/svg" width="100%" height="100%" viewBox="0 0 599.04 599.04"><path fill="currentColor" d="M123.5 75.5h352c26.5 0 48 21.5 48 48v352c0 26.5-21.5 48-48 48h-352c-26.5 0-48-21.5-48-48v-352c0-26.5 21.5-48 48-48zM140.5 176.6c-10 81.3 57.1 124 57.1 123.9s-67.1 38.6-57.1 122c71.3-10.2 98.7-66.4 106.8-84.6 15.7 43.2 56.8 72 102.8 72 60.4 0 109.4-49 109.4-109.5 0-60.4-49-109.4-109.4-109.4h-0.1c-45.4 0-86 28.1-102.2 70.5-7.7-17.8-36-76.8-107.3-84.9zM349.6 234.4c0.2 0 0.3 0 0.5 0 36.5 0 66.1 29.6 66 66 0 36.5-29.6 66.1-66 66.1s-66.1-29.6-66.1-66.1c0-36.3 29.3-66.1 65.6-66zM350.1 275.2c-13.9 0-25.2 11.3-25.2 25.2 0 13.9 11.3 25.2 25.2 25.2s25.2-11.3 25.2-25.2c0-13.9-11.3-25.2-25.2-25.2z" /></svg>