<svg xmlns="http://www.w3.org/2000/svg" width="100%" height="100%" viewBox="0 0 599.04 599.04"><path fill="currentColor" d="M299.1 107.5c8.4 0 19.8 0.1 35 0.3 35.5 0.3 57.1 0.7 57.7 1.1 1.5 1.2 1.1 4.8-0.5 5.7-0.8 0.4-4.5 1.6-8.3 2.5-9.5 2.4-15.4 5.5-20.4 10.8-5.4 5.7-9.9 14.6-10.9 21.5-0.4 3.1-0.7 47.4-0.7 113.3 0 108.2-0.3 122.2-2.6 136.1-4.2 24.9-16.2 46.9-32.7 60.2-11.7 9.4-21.5 14.1-36.4 17.2-7.5 1.6-25 2.5-33.7 1.8-15-1.3-21.9-2-22.7-2.5-0.9-0.6-17.2-50.5-16.6-51.1 0.2-0.2 4.9 3.7 10.5 8.6 21.2 18.6 28.7 22.7 44 23.9 10.6 0.8 20.4-1.7 28.4-7.5 12-8.6 18.9-21.4 22.7-42.4 1-5.5 1.3-14.7 1.5-53.8 0.2-26 0.8-71.6 1.3-101.4 1.2-68.5 1-101-0.5-106.2-1.8-6-5.7-12.7-10.4-17.8-5.2-5.6-11.4-8.8-21.4-11.1-6.8-1.6-9.2-3.2-8.5-5.8 0.7-2.8-0.1-3.4 25.2-3.4zM382.3 125.7c0.4 0.1-0.4 1-2.5 2.7-4 3.2-6.6 6.4-9 11-3.8 7.4-3.7 4-3.7 132.6 0 129.8 0.1 125.6-4 141.1-2.2 8.2-4.6 14.5-8.9 23.1-3.7 7.5-6.1 11.2-12.2 18.8-16.2 20.2-34.7 31.4-58.6 35.4-8.5 1.5-32.8 1.4-41.1 0-7.4-1.3-14.2-3.3-12.9-3.8 0.5-0.2 6.8 0 13.9 0.5 16.2 1.1 32.1 0.1 42.5-2.6 14.4-3.7 30.3-13 41.9-24.4 7.7-7.6 12.9-15 19.2-27.5 5-9.7 6.6-14 8.9-23 4.4-17.9 4.3-13.6 4.7-143.9 0.4-130.6 0.1-121.2 4.8-127.7 2.8-3.9 6.5-7 12.1-10.1 2.8-1.6 4.4-2.3 4.9-2.2z" /></svg>