<svg xmlns="http://www.w3.org/2000/svg" width="100%" height="100%" viewBox="0 0 512 512"><path fill="currentColor" d="M336.6 194.5v0c7.1 3.3 13.4 7.6 18.9 12.8 14.9 13.9 22.3 31.9 22.4 54 0 22.4-7.3 41-21.8 55.7-4.5 4.5-9.5 8.3-14.9 11.4-5.4 3.1-12.2 5.6-20.4 7.6-8.1 2-19.5 3-34.2 3.1h-37.6v-152.8h36.7c14.1 0 24.3 0.5 30.7 1.6 6.4 1.1 13.1 3.3 20.2 6.6zM256 8c137 0 248 111 248 248 0 137-111 248-248 248s-248-111-248-248c0-137 111-248 248-248zM173.7 365.5v-205.4h-29.4v205.4h29.4zM158.9 138.7c11.2 0 20.2-9 20.3-20.2 0-11.1-9.1-20.2-20.3-20.2-11.2 0-20.2 9.1-20.2 20.2 0 11.2 9.1 20.2 20.2 20.2zM400.3 302.3h0c5.3-12.5 8-25.7 8-39.4 0-19.2-4.8-36.9-14.5-53.2-9.6-16.2-22.5-28.6-38.7-37-16.3-8.4-38.4-12.5-66.4-12.6h-69.2v205.1h65c18.2 0 30.6-0.5 37-1.5 6.5-1.1 13.6-3.1 21.3-6.1 13.2-5 24.9-12.4 34.9-22.2 9.8-9.5 17.4-20.5 22.6-33.1z" /></svg>