<svg xmlns="http://www.w3.org/2000/svg" width="100%" height="100%" viewBox="0 0 1755 2048"><path fill="currentColor" d="M1111.5 816.9c-38.4-19.9-90.5-29.6-156.7-29.6h-163.2v483.8h153.3c43.2 0 72.2-1 87.6-3.5 15.1-2.4 32-7.4 50.3-14.6 31.2-11.6 58.5-29 82.2-52.3 23-22.4 40.9-48.5 53.3-78.2 12.4-29.5 18.9-60.4 18.9-92.8 0-45.3-11.6-87.2-34.3-125.4-22.6-38.6-53-67.6-91.4-87.4zM1113.9 1157.4c-10.6 10.8-22.4 19.6-35.3 26.8-12.8 7.4-28.8 13.3-48 18.1s-46.1 7.1-80.8 7.1h-88.8v-360.4h86.7c33.5 0 57.3 1.3 72.3 3.8 15.1 2.5 31 7.8 48 15.7 16.6 7.9 31.5 17.8 44.4 30.1 35.2 33 52.6 75.4 52.6 127.4 0 53-17 96.5-51.2 131.4zM614.1 1271.8h69.3v-484.5h-69.3v484.5zM1658.9 232.3c-64.4-64.4-141.9-96.5-232.6-96.5h-1097.1c-90.7 0-168.2 32.1-232.6 96.5-64.4 64.3-96.5 141.9-96.5 232.6v1097.1c0 90.7 32.1 168.3 96.5 232.7 64.4 64.1 142 96.4 232.6 96.4h1097.1c90.7 0 168.2-32.3 232.6-96.5 64.4-64.4 96.6-141.8 96.6-232.6v-1097.1c0-90.7-32.2-168.3-96.6-232.6zM877.7 1598.6c-323.1 0-585.1-262.1-585.1-585.1s262-585.1 585.1-585.1 585.1 262.1 585.1 585.1-262 585.1-585.1 585.1zM648.5 641.5c-26.1 0-47.4 21.4-47.4 47.5 0 26.5 21.3 47.5 47.4 47.5 26.5 0 48-21.1 48-47.5 0-26.1-21.4-47.5-48-47.5z" /></svg>