<svg xmlns="http://www.w3.org/2000/svg" width="100%" height="100%" viewBox="0 0 599.04 599.04"><path fill="currentColor" d="M416.8 75.5v43.3c14.6-6.4 27.3-13.8 42.5-19v49.5c14.5-2 27.6-5 41.7-5.6v295.7c-67.3 28.1-134.5 56.1-201.7 84.1-67.1-28-134-56-201.2-84.1v-295.9c13 1.7 25.5 3.4 39.4 5.2v-48.9c15.4 5.3 28.3 12.5 43.2 19.5v-43.8c48.5 36 90.1 74.6 118.2 127 27.9-52.4 69.7-90.8 117.9-127zM192.8 99.3c-1.1 91.7-2.1 181.5-3.1 270.4 40.6 32.3 77 66.9 104.4 110.5v-8.4c0-78.4-0.1-156.9 0.2-235.3 0.1-10.8-2.3-20.4-7.1-29.8-21.9-43.1-56.2-75.5-94.4-107.4zM110.1 431.6c57.8 24.2 115.2 48.2 174.5 73-8.9-12-17.6-20.9-27.2-29.1-33.6-28.5-72.3-48.4-112.9-64.8-3.9-1.6-11.2-4.5-11.2-4.4 1.3-80.4 2.5-163.9 3.7-245.1l-26.9-4.2v274.6zM149.6 117.8c-1.5 93.9-3 187-4.4 280.3 44.7 17.9 86.7 39.9 124 70-24.8-37-57.5-66-91.3-92.8 0.9-81.6 1.7-162.1 2.6-242.3-10.2-5.6-19.7-10.8-30.9-15.2zM303.4 480.2c26.3-44.8 64.9-78.9 104.5-110.6-1-89.9-2-179.1-2.9-270.6-10 8.6-18.6 15.8-26.8 23.3-27.6 25.6-53 53-69.2 87.6-3.1 6.4-5.8 12.9-5.8 20.5zM416.7 461.8c24-10 48-20.1 72.4-30.4v-274.8c-9.8 1.7-19.1 3.2-29.1 4.9 1.3 81.4 2.5 164.9 3.7 245.2l-9.3 3.3c-17.6 6.8-34.8 14.6-51.4 23.6-31.3 16.8-61 35.7-84.3 63.2l-5.5 7.8zM325.4 471.9c0.7-0.7 1.3-1.2 1.7-1.6 0.9-0.7 1.7-1.5 2.5-2.2 36.4-30.6 78-52.3 122.2-70-1.4-93.4-2.8-186.5-4.2-280.8-10.9 5.4-21.1 9.4-30.3 15.9 0.9 80.8 1.8 161.3 2.6 241.8-11.4 9.6-22.8 18.7-33.6 28.5-21.3 19.2-41.8 39.4-57.9 63.4z" /></svg>