<svg xmlns="http://www.w3.org/2000/svg" width="100%" height="100%" viewBox="0 0 384 512"><path fill="currentColor" d="M190.2 64c18.4-0.3 37.2 3 55.3 10.3 36.2 14.6 60.2 40.1 73.8 69.9 0 0 24.2 57.9 4.5 87.8-15.8 24.1-65.4 38.5-109.3 22.5 11.6-8.9 23.4-20.2 28.9-34 11.4-28.2-1.4-62.2-32.4-74.6-26.9-10.8-59.4 2.5-71.6 32.8-14.1 35.1 5.8 75.2 49.8 92.9 51.2 20.6 101.3 7.6 135-13.3 0 0.1-0.1 0.2-0.1 0.3-19.9 49.5-64.6 81.6-114.1 87.7l-9.5 101.7h-18.1l-9.9-102c-11-1.6-22-4.5-32.8-8.9-72.6-29.2-107.7-111.8-78.5-184.3 21.9-54.4 73.8-87.8 129-88.8zM19.3 308.6c64 0.7 124.1 39.9 148.4 103.3 0.1 0.1 0.1 0.2 0.1 0.4-84.6 1.2-145.7-72.4-148.5-103.7zM356.8 350c2.6 0 5.2 0 7.9 0.2-0.1 0.1-0.1 0.2-0.2 0.3-26.7 62.4-88.3 99.3-152.3 97.4 1.4-13.9 63.9-96.8 144.6-97.9z" /></svg>