<svg xmlns="http://www.w3.org/2000/svg" width="100%" height="100%" viewBox="0 0 448 512"><path fill="currentColor" d="M48 32h352c26.5 0 48 21.5 48 48v352c0 26.5-21.5 48-48 48h-352c-26.5 0-48-21.5-48-48v-352c0-26.5 21.5-48 48-48zM139.1 96v31.3c-10.6-5-19.8-10.2-30.8-14v35c-9.9-1.3-18.9-2.5-28.2-3.8v211.4c48.1 20.1 95.8 40.1 143.8 60.1 48-20 95.9-40 144-60.1v-211.2c-10 0.4-19.4 2.6-29.7 4v-35.4c-10.9 3.8-20 9-30.4 13.6v-30.9c-34.4 25.8-64.3 53.3-84.3 90.7-20-37.4-49.8-65-84.4-90.7zM299.3 112.8c0.7 65.4 1.4 129.1 2.1 193.3-28.3 22.7-55.9 47-74.6 79l-0.2-178.5c0-5.4 1.9-10 4.1-14.6 11.6-24.7 29.8-44.3 49.5-62.6 5.8-5.4 12-10.5 19.1-16.6zM147.7 113c27.4 22.8 51.8 45.9 67.5 76.7 3.4 6.7 5.1 13.6 5.1 21.3-0.2 56-0.1 112.1-0.1 168.1v6c-19.6-31.2-45.6-55.9-74.6-79 0.7-63.5 1.4-127.6 2.1-193.1zM329.7 125.9c1 67.3 2 133.8 3.1 200.5-31.6 12.7-61.3 28.2-87.3 50-0.6 0.6-1.2 1.1-1.8 1.6-0.3 0.3-0.7 0.6-1.2 1.2l2.2-3.6c11.4-17.2 26.1-31.6 41.3-45.4 7.7-7 15.9-13.5 24-20.3-0.6-57.5-1.3-115-1.9-172.7 6.6-4.6 13.9-7.5 21.6-11.3zM116.9 126.2c8 3.1 14.8 6.8 22.1 10.8-0.6 57.4-1.2 114.8-1.9 173.2 24.2 19.1 47.5 39.8 65.2 66.2-26.7-21.5-56.7-37.2-88.6-50 1-66.6 2.1-133.1 3.2-200.2zM359.4 153.9v196.3c-17.4 7.3-34.5 14.5-51.7 21.7l-73.9 30.6 3.9-5.6c16.6-19.7 37.8-33.1 60.2-45.1 11.9-6.4 24.1-12 36.7-16.9l6.7-2.3c-0.9-57.4-1.8-117-2.7-175.2 7.1-1.2 13.8-2.3 20.8-3.5zM88.7 154.2l19.2 3c-0.9 58-1.8 117.6-2.7 175 0 0 5.3 2 8.1 3.2 29 11.7 56.6 25.9 80.6 46.3 6.8 5.8 13.1 12.2 19.4 20.8-42.4-17.7-83.3-34.9-124.6-52.2v-196.1z" /></svg>