<svg xmlns="http://www.w3.org/2000/svg" width="100%" height="100%" viewBox="0 0 448 512"><path fill="currentColor" d="M48 32h352c26.5 0 48 21.5 48 48v352c0 26.5-21.5 48-48 48h-352c-26.5 0-48-21.5-48-48v-352c0-26.5 21.5-48 48-48zM226.7 96c-9.3 0-19.6 0.7-25.4 2.1-44.7 10.3-78.1 45.3-85.4 89.2-0.9 5.7-1.1 23.4-1.1 117.7h0v111h38.1v-64.2c0-73.2-0.8-66.7 7-60.9 11.5 8.6 26.3 15.5 40.5 18.9 11.9 2.8 30 3.3 42.4 1.1 11.6-2 21-5.2 31.7-10.7 10.9-5.6 19.3-11.9 28.4-21.2 11.7-12.1 19.4-24.7 24.6-40.5 13.1-39.3 3.1-82-26.1-111.1-16.5-16.5-36.7-26.7-60.1-30.5-3.8-0.6-9-0.9-14.6-0.9zM223.8 136.6c10.7 0 13.1 0.2 18.2 1.7 24.9 7.2 43.6 26.5 49.8 51.3 2.4 9.7 2.2 23.4-0.4 33.4-5.4 20.4-18.9 36.8-37.8 45.5-8.4 3.9-13.7 5.4-22.8 6.5-3.7 0.4-7.4 0.7-8.2 0.6-27.3-1.7-49.4-15.8-61-39.2-8.8-17.7-9.5-39.7-1.8-57.7 3.7-8.6 6.8-13.5 12.7-19.7 9.1-9.8 19.3-16.3 32.4-20.3 5.9-1.8 7.7-2 18.9-2.1z" /></svg>