<svg xmlns="http://www.w3.org/2000/svg" width="100%" height="100%" viewBox="0 0 1755 2048"><path fill="currentColor" d="M803.6 787.8l-87.8 516.9h133.7l43.2-297.6h1.4l118.7 297.6h53.5l124.1-297.6h1.4l37.7 297.6h134.5l-78.3-516.9h-133.7l-111.1 276.3-104.9-276.3h-132.4zM1658.9 232.3c-64.4-64.4-141.9-96.6-232.6-96.6h-1097.1c-90.7 0-168.1 32.1-232.6 96.6-64.4 64.3-96.6 141.9-96.6 232.6v1097.1c0 90.7 32.1 168.3 96.6 232.7 64.4 64.1 142 96.4 232.6 96.4h1097.1c90.7 0 168.2-32.3 232.6-96.6 64.4-64.4 96.6-141.9 96.6-232.6v-1097.1c0-90.7-32.2-168.3-96.6-232.6zM1405.9 1598.6c-646.9-548.1-758.4-80.7-758.4-80.7 0-292-299-257.3-299-257.3v-777.7c0 0 68.6 5.1 140 40.6v-95.3c0 0 179.5 40.7 170.4 346.6 0 0 151.7-428.5 748.1 6 0 156.5-1.2 629.9-1.2 817.6z" /></svg>