<svg xmlns="http://www.w3.org/2000/svg" width="100%" height="100%" viewBox="0 0 599.04 599.04"><path fill="currentColor" d="M144.5 107.5h98l-49 75zM356.5 107.5h98l-49 75zM214.7 196.5h79.8c10.5 0 20.4 1 29.9 3 9.4 2 17.7 5.4 24.7 10.2 7.1 4.8 12.7 11.2 16.9 19.3 4.2 8.1 6.3 18.1 6.3 30.1 0 14.6-3.8 26.9-11.3 37.2-7.6 10.2-18.6 16.7-33.3 19.4l52.4 87.1h-54.5l-43.1-82.5h-22.4v82.5h-45.5zM260.2 234.9v47h26.8c4.1 0 8.4-0.1 12.9-0.5s8.7-1.2 12.4-2.6c3.7-1.5 6.8-3.7 9.2-6.8 2.4-3.1 3.6-7.5 3.7-13.2 0-5.2-1.1-9.4-3.2-12.5-2.1-3.1-4.9-5.5-8.2-7.2-3.3-1.6-7.1-2.8-11.4-3.3-4.3-0.6-8.5-0.9-12.5-0.9h-29.7zM193.5 416.5l49 75h-98zM405.5 416.5l49 75h-98z" /></svg>