<svg xmlns="http://www.w3.org/2000/svg" width="100%" height="100%" viewBox="0 0 2048 2048"><path fill="currentColor" d="M1194.6 1721.5c-94-102.3-219.8-266.6-324.4-452.3 172.9-40.4 300.9-202.7 300.9-364.9 0-239-185.6-349.9-429-349.9-125.8 0-226.1 6.4-319.9 6.4-85.5 0-170.9 0-224.1-2.1v61.9l81 14.9c55.7 10.7 87.4 36.1 87.4 168.6v840.6c0 132.4-31.7 157.9-87.4 168.5l-81 15.1v61.7c57.6-2.1 157.9-6.3 258.2-6.3 96 0 219.8 4.2 273.1 6.3v-61.7l-111-15.1c-57.6-8.4-87.6-36.1-87.6-168.5v-356.3c51.2 4.3 96 4.3 164.4 4.3 130.1 232.5 253.9 407.6 324.2 488.6 64.1 76.9 162.2 125.9 286 125.9 36.2 0 74.6-6.4 98-17.1v-55.4c-76.8 0-153.6-53.4-208.9-113.2zM684.5 1196.6c-72.6 0-104.4-1.9-153.6-6.6v-535.4c49.2-4.3 115.2-4.3 172.9-4.3 179.4 0 285.9 94 285.9 264.6 0 168.6-115.1 281.6-305.1 281.6zM1335.9 658c-2.1-11.2-4.1-24.3-5.8-39.4-1.8-15.2-2.9-33.1-3.6-54.1-0.7-20.9-1-46.5-1-75.8 0-29.4 0.3-54.6 1-75.6 0.7-21.1 1.9-39.1 3.6-54.2 1.7-15 3.6-28.1 5.8-39.4 2.1-11.3 4.8-22 8.3-32.5 18.4-55.5 48.4-97.2 90.5-125.2 42-28 93.5-42.1 154.6-42.1 31.4 0 59.9 3.6 85.2 11.1 25 7.4 47.4 17.5 67.2 30.5 19.5 12.9 36.4 28 50.3 45.1 14.3 17.2 25.8 35.6 34.8 55.3 3.5 6.3 2.5 11.3-3.1 14.8l-77.6 31.9c-6.6 3.5-11.2 1.7-14.9-5.2-17.4-32.3-32.3-53.5-56.7-68.9-24.7-15.4-47.6-22.6-85.2-22.6-40.9 0-59.2 8.1-84.9 26.5-25.4 18-44.1 40.6-55.1 75.1-2.2 6.2-4.2 13.9-6.6 23-1.9 9.2-3.5 20.5-4.5 33.7-1 13.2-1.9 29.6-2.8 48.9-0.6 19.3-0.9 42.7-0.9 69.9 0 27.3 0.3 50.7 0.9 70 0.9 19.2 1.8 35.6 2.8 48.8 1 13.4 2.6 24.6 4.5 33.9 2.4 8.9 4.4 16.6 6.6 22.9 11 34.4 26.7 53.1 49.9 68.2 22.9 15.3 49.1 26.3 90.1 26.3 36.4 0 69.6-10.4 91.4-26.1 21.5-15.8 39.4-36.6 47.4-65.1 3.5-12 8-26.9 11.1-45.2 2.8-18.3 2.8-37.6 2.8-64.4 0-4.2-2.4-6.4-6.3-6.4h-124.4c-7 0-10.4-3.4-10.4-10.4v-71.3c0-7.1 3.4-10.5 10.4-10.5h228.2c7.1 0 10.5 3.4 10.5 10.5v60.9c0 32.3 0 62.2-3.4 89.9-3.2 27.7-7.6 51.7-13.1 69.2-17.4 54.8-45.1 93.8-87.4 122.9-42.5 29.3-97.3 45.1-156.8 45.1-61.1 0-112.6-14.1-154.6-42-42.1-28.3-72.1-69.8-90.5-125.3-3.5-10.5-6.2-21.3-8.3-32.6z" /></svg>