<svg xmlns="http://www.w3.org/2000/svg" width="100%" height="100%" viewBox="0 0 2048 2048"><path fill="currentColor" d="M377.4 1891.2v-1755.4h611.9c156.5 0 268.2 15.8 335.3 47.3s122.1 86.2 165.2 164.1 64.7 171 64.7 279.6c0 137.3-32.9 247.9-98.8 331.7s-159.5 136.5-280.8 158.1c62.2 44.7 113.7 93.6 154.5 146.7 40.7 53.1 96.2 148.3 166.5 285.6l174.7 342.4h-346.7l-210.2-382c-75.7-138.1-127.1-224.5-154.3-259.2s-55.9-58.7-86.2-71.8c-30.4-13.2-79-19.7-146.1-19.7h-60v732.7h-289.7zM667.1 878.2h215.6c131.7 0 215.6-5.8 251.5-17.3s65-34.9 87.4-70.1c22.4-35.1 33.5-81.8 33.5-140.1 0-55.9-11.2-100.8-33.5-134.7s-52.7-57.3-91-70.1c-27.1-8.8-105.8-13.2-235.9-13.2h-227.5v445.4z" /></svg>