<svg xmlns="http://www.w3.org/2000/svg" width="100%" height="100%" viewBox="0 0 448 512"><path fill="currentColor" d="M48 32h352c26.5 0 48 21.5 48 48v352c0 26.5-21.5 48-48 48h-352c-26.5 0-48-21.5-48-48v-352c0-26.5 21.5-48 48-48zM94.8 96l40.9 62.5 40.8-62.5h-81.7zM271.5 96l40.9 62.5 40.8-62.5h-81.7zM153.3 170.1l-0.1 171.9h37.9v-68.7h18.7l36 68.8h45.4l-43.7-72.6c12.2-2.3 21.4-7.7 27.7-16.2 6.3-8.5 9.5-18.8 9.5-30.9 0-10-1.8-18.4-5.3-25.2s-8.2-12.1-14.1-16c-5.9-4-12.8-6.8-20.6-8.5-7.9-1.7-16.2-2.5-24.9-2.6h-66.5zM191.2 202.2h24.8c3.4 0 6.9 0.2 10.4 0.7s6.7 1.4 9.5 2.8c2.8 1.4 5 3.4 6.8 5.9s2.7 6.1 2.7 10.5c0 4.7-1 8.3-3.1 10.9s-4.6 4.5-7.6 5.8-6.5 1.9-10.4 2.1-7.4 0.4-10.8 0.4h-22.3v-39.1zM135.7 353.5l-40.9 62.5h81.7zM312.4 353.5l-40.9 62.5h81.7z" /></svg>