<svg xmlns="http://www.w3.org/2000/svg" width="100%" height="100%" viewBox="0 0 384 512"><path fill="currentColor" d="M228.7 408.1c11.9 12.8 28.4 24.3 44.8 24.3v11.9c-5 2.3-13.3 3.7-21 3.7-26.6 0-47.7-10.5-61.5-27.1-15.1-17.4-41.7-55-69.6-104.9-14.7 0-24.3 0-35.3-0.9v76.5c0 28.4 6.4 34.4 18.8 36.2l23.8 3.3v13.2c-11.5-0.4-38.1-1.4-58.7-1.3-21.6 0-43.1 0.9-55.4 1.3v-13.2l17.4-3.3c12-2.3 18.8-7.8 18.7-36.2v-180.6c0-28.4-6.8-33.9-18.7-36.2l-17.4-3.2v-13.3c11.4 0.4 29.8 0.4 48.1 0.4 20.1 0 41.7-1.4 68.7-1.3 52.3 0 92.2 23.8 92.2 75.2 0 34.8-27.5 69.7-64.6 78.3 22.5 39.9 49.5 75.2 69.7 97.2zM119.1 295.3c40.8 0 65.6-24.3 65.5-60.5 0-36.6-22.9-56.8-61.4-56.8-12.4 0-26.6 0-37.1 0.9v115c10.6 1 17.4 1.4 33 1.4zM313.4 201.3c25.4 0 32.8-17.2 32.8-43.2 0-0.9-0.5-1.4-1.3-1.3h-26.7c-1.5 0-2.2-0.7-2.3-2.3v-15.3c0-1.5 0.7-2.3 2.3-2.2h49c1.5 0 2.3 0.7 2.2 2.2v13.1c0 42.9-14.7 70.3-56 70.3-38.8 0-55.2-24.5-56.4-63-0.2-4.5-0.2-10-0.2-16.3 0-16.8-0.1-31.1 4-43.4 7.3-22.1 24.5-35.9 52.6-35.9 26.4 0 42.8 12.5 51.1 30.5 0.8 1.3 0.5 2.4-0.7 3.2l-16.7 6.8c-1.4 0.8-2.4 0.4-3.2-1.1-6.4-11.9-13.5-19.7-30.5-19.7-30.7 0-33.2 28.1-33.2 59.6 0 31.9 1.8 58 33.2 58z" /></svg>