<svg xmlns="http://www.w3.org/2000/svg" width="100%" height="100%" viewBox="0 0 599.04 599.04"><path fill="currentColor" d="M176.1 360.2v0c8.1 8.9 20.7 15.2 37.2 19.5v20.1c-34.4-5.2-61.4-15.9-81.1-32.4-26.2-22-39.2-54-39.2-96.1v-68c0-27.7-2.4-45.4-7.1-53.2-4.8-7.7-13.3-11.5-25.7-11.5h-10.6v-14.8c4.4-0.8 9.1-1.4 14.2-1.8 5-0.4 10.5-0.6 16.4-0.6 27.2 0 46.7 7.6 58.4 22.9 11.7 15.3 17.5 41.5 17.5 78.8v54.8c0 40.1 6.7 67.5 20 82.3zM422.9 360.2c13.3-14.7 20.1-42.2 20.1-82.3v-54.8c0-37.3 5.8-63.6 17.5-78.8 11.7-15.3 31.2-22.9 58.3-22.9 6 0 11.4 0.2 16.5 0.6 5 0.4 9.7 1 14.1 1.8v14.8h-10.6c-12.3 0-20.9 3.8-25.6 11.5-4.8 7.7-7.1 25.5-7.2 53.2v68c0 42.1-13 74.2-39.2 96.1-19.6 16.5-46.6 27.2-81 32.4v-20.1c16.4-4.3 29-10.5 37.1-19.5v0zM347.5 130.7h0c-8.4 6.7-12.6 20-12.6 39.9v257.6c0 19.8 4.3 33.3 12.7 40.3 8.5 7.1 25.6 10.9 51.1 11.4l-0.7 11.6h-197.7v-11.6c26.2-0.6 43.4-4.1 51.7-10.7 8.3-6.5 12.4-20.2 12.4-41v-257.6c0-19.9-4.1-33.2-12.4-39.9-8.3-6.7-25.5-10.5-51.7-11.5v-11.7h198.4v11.7c-25.7 1-42.8 4.8-51.2 11.5z" /></svg>