<svg xmlns="http://www.w3.org/2000/svg" width="100%" height="100%" viewBox="0 0 30 30"><path d="M4.14 14.76c0-0.24 0.09-0.44 0.27-0.61 0.17-0.17 0.38-0.25 0.62-0.25h2.06c0.24 0 0.44 0.08 0.6 0.25 0.17 0.17 0.25 0.37 0.25 0.61 0 0.25-0.08 0.46-0.25 0.63-0.17 0.17-0.37 0.25-0.6 0.25H5.03c-0.25 0-0.46-0.08-0.63-0.25C4.22 15.22 4.14 15.01 4.14 14.76zM7.06 7.74c0-0.23 0.08-0.44 0.24-0.62C7.5 6.96 7.71 6.87 7.96 6.87c0.21 0 0.41 0.08 0.59 0.25l1.45 1.48c0.17 0.16 0.25 0.36 0.25 0.6 0 0.24-0.08 0.44-0.25 0.6-0.17 0.17-0.36 0.25-0.6 0.25-0.26 0-0.46-0.08-0.61-0.25l-1.5-1.44C7.15 8.19 7.06 7.98 7.06 7.74zM9.67 14.76c0-0.71 0.14-1.39 0.43-2.04 0.28-0.65 0.67-1.22 1.14-1.69 0.48-0.47 1.05-0.85 1.7-1.13S14.28 9.47 15 9.47c0.96 0 1.84 0.24 2.66 0.72 0.82 0.48 1.47 1.12 1.94 1.94 0.47 0.81 0.71 1.69 0.71 2.63 0 0.15-0.01 0.29-0.03 0.42-0.28-0.17-0.6-0.25-0.97-0.25-0.24 0-0.48 0.05-0.72 0.15 0.01-0.07 0.01-0.18 0.01-0.32 0-0.98-0.35-1.81-1.06-2.5-0.71-0.69-1.56-1.04-2.55-1.04-0.99 0-1.83 0.35-2.54 1.04s-1.05 1.52-1.05 2.5v0.18c-0.29 0.02-0.57 0.1-0.84 0.25-0.01 0.01-0.04 0.03-0.1 0.07s-0.12 0.09-0.19 0.14-0.14 0.11-0.23 0.19-0.18 0.16-0.26 0.24C9.7 15.51 9.67 15.15 9.67 14.76zM9.7 18.41v-0.15c-0.01-0.09 0-0.2 0.02-0.33 0.05-0.36 0.19-0.7 0.42-1.02 0.13-0.16 0.22-0.27 0.27-0.31 0.01-0.02 0.02-0.04 0.04-0.06l0.04-0.04c0.03-0.01 0.07-0.05 0.12-0.1 0.02-0.02 0.05-0.05 0.08-0.08s0.06-0.04 0.07-0.06c0.05-0.05 0.1-0.08 0.14-0.1l0.17-0.11c0.14-0.09 0.31-0.14 0.5-0.14h0.03c0.1 0 0.19 0.01 0.26 0.03 0.03 0.01 0.07 0.03 0.13 0.07v0.01c0.14 0.06 0.26 0.16 0.34 0.29 0.08 0.13 0.13 0.27 0.13 0.42 0 0.17-0.05 0.31-0.14 0.42-0.06 0.09-0.14 0.17-0.22 0.23-0.02 0.01-0.04 0.02-0.06 0.03-0.02 0.01-0.04 0.02-0.04 0.02l-0.06 0.04c-0.04 0.03-0.07 0.06-0.1 0.08s-0.06 0.06-0.11 0.11c-0.04 0.05-0.08 0.09-0.11 0.14-0.03 0.04-0.06 0.1-0.09 0.15-0.03 0.06-0.05 0.12-0.05 0.17v0.15c0.04 0.15 0.08 0.27 0.11 0.36 0.07 0.14 0.18 0.28 0.34 0.44 0.01 0.02 0.09 0.1 0.24 0.25 0.86 0.78 1.27 1.62 1.21 2.5-0.02 0.3-0.09 0.59-0.21 0.87-0.12 0.28-0.26 0.51-0.43 0.7-0.16 0.19-0.29 0.33-0.39 0.43-0.1 0.09-0.18 0.16-0.25 0.21-0.01 0.01-0.03 0.02-0.06 0.04-0.03 0.02-0.06 0.04-0.07 0.04-0.08 0.04-0.15 0.06-0.22 0.07-0.09 0.01-0.15 0.02-0.2 0.02-0.3 0-0.54-0.1-0.71-0.3-0.14-0.17-0.2-0.37-0.18-0.59 0.02-0.22 0.13-0.4 0.33-0.53L11 22.75c0.01-0.01 0.03-0.03 0.05-0.04 0.02-0.02 0.04-0.04 0.07-0.06 0.03-0.02 0.06-0.05 0.08-0.08 0.03-0.03 0.06-0.07 0.08-0.1 0.03-0.04 0.06-0.08 0.08-0.12 0.03-0.04 0.06-0.09 0.08-0.14 0.03-0.05 0.05-0.1 0.07-0.15 0.02-0.05 0.03-0.1 0.05-0.16 0.01-0.06 0.02-0.12 0.02-0.17 0.02-0.2-0.03-0.4-0.15-0.6-0.05-0.11-0.12-0.22-0.22-0.33-0.07-0.08-0.12-0.13-0.15-0.16-0.09-0.11-0.14-0.17-0.15-0.18-0.02-0.01-0.04-0.03-0.07-0.06s-0.05-0.04-0.06-0.05c-0.15-0.14-0.26-0.26-0.34-0.36-0.12-0.16-0.21-0.26-0.24-0.32-0.19-0.26-0.32-0.52-0.39-0.78-0.04-0.14-0.07-0.25-0.08-0.32 0-0.02-0.01-0.05-0.02-0.08S9.7 18.44 9.7 18.41zM13.58 18.08c0-0.06 0-0.1 0.01-0.14 0.02-0.22 0.09-0.43 0.2-0.64 0.11-0.21 0.22-0.39 0.35-0.53 0.13-0.14 0.25-0.27 0.38-0.38s0.23-0.19 0.31-0.25l0.12-0.07c0.15-0.09 0.32-0.14 0.5-0.14 0.11 0 0.21 0.01 0.3 0.03 0.01 0 0.02 0.01 0.05 0.02 0.03 0.02 0.05 0.03 0.06 0.04 0.01 0 0.02 0 0.03 0.01 0.01 0 0.03 0.02 0.07 0.05 0.2 0.12 0.32 0.3 0.38 0.54 0 0.02 0 0.04 0 0.07 0 0.02 0 0.04 0 0.05 0 0.03-0.01 0.07-0.02 0.12s-0.02 0.08-0.02 0.09c-0.07 0.23-0.21 0.39-0.42 0.5-0.33 0.22-0.51 0.45-0.53 0.69-0.01 0.08-0.01 0.15 0 0.22 0.02 0.12 0.08 0.25 0.17 0.39 0.11 0.16 0.19 0.27 0.24 0.32 0.16 0.16 0.25 0.25 0.28 0.27 0.12 0.11 0.28 0.28 0.47 0.51 0.54 0.65 0.79 1.32 0.74 2-0.02 0.3-0.09 0.59-0.21 0.87-0.12 0.28-0.26 0.51-0.43 0.7-0.16 0.18-0.3 0.33-0.4 0.43-0.11 0.1-0.19 0.17-0.25 0.21l-0.12 0.08c-0.11 0.04-0.17 0.06-0.21 0.07-0.11 0.01-0.18 0.02-0.2 0.02h-0.03c-0.08 0-0.14-0.01-0.19-0.02-0.02 0-0.05 0-0.08-0.01-0.03-0.01-0.06-0.01-0.07-0.01-0.01 0-0.02 0-0.03-0.01-0.01-0.01-0.02-0.01-0.04-0.02-0.01-0.01-0.02-0.01-0.03-0.01-0.15-0.11-0.24-0.17-0.26-0.21-0.16-0.18-0.22-0.38-0.19-0.6 0.03-0.22 0.14-0.39 0.34-0.53l0.03-0.04c0.02-0.02 0.05-0.05 0.09-0.08l0.12-0.12 0.13-0.16 0.12-0.19 0.09-0.22 0.04-0.24c0.01-0.4-0.22-0.82-0.69-1.27-0.19-0.17-0.33-0.31-0.44-0.43C13.79 19.37 13.54 18.72 13.58 18.08zM14.12 6.92V4.85c0-0.24 0.09-0.45 0.26-0.62 0.17-0.17 0.38-0.25 0.61-0.25 0.24 0 0.45 0.08 0.62 0.25 0.17 0.17 0.25 0.38 0.25 0.62v2.07c0 0.24-0.08 0.43-0.25 0.59S15.24 7.74 15 7.74c-0.24 0-0.44-0.08-0.61-0.23C14.21 7.35 14.12 7.16 14.12 6.92zM17.48 17.93c0.02-0.22 0.09-0.43 0.2-0.64 0.11-0.21 0.22-0.39 0.35-0.53 0.13-0.14 0.25-0.27 0.38-0.38 0.12-0.11 0.22-0.19 0.3-0.25l0.13-0.07c0.02-0.02 0.06-0.04 0.1-0.08 0.11-0.04 0.24-0.07 0.38-0.07 0.34 0 0.59 0.13 0.77 0.38 0.05 0.07 0.08 0.14 0.1 0.23 0.01 0.02 0.02 0.05 0.02 0.08v0.11c0 0.31-0.15 0.55-0.45 0.7-0.32 0.21-0.49 0.44-0.52 0.69-0.04 0.34 0.19 0.74 0.68 1.2 0.88 0.77 1.28 1.61 1.23 2.5-0.02 0.3-0.09 0.59-0.21 0.87-0.12 0.28-0.27 0.51-0.43 0.7-0.17 0.19-0.3 0.33-0.39 0.43s-0.18 0.16-0.25 0.21c-0.16 0.1-0.3 0.15-0.41 0.16-0.03 0.01-0.08 0.01-0.15 0.01-0.3 0-0.53-0.1-0.69-0.3-0.15-0.17-0.21-0.37-0.19-0.59s0.13-0.4 0.32-0.53c0.03-0.01 0.09-0.06 0.18-0.14s0.18-0.21 0.29-0.38c0.1-0.18 0.16-0.35 0.17-0.53 0.02-0.4-0.22-0.82-0.7-1.27-0.41-0.36-0.73-0.75-0.94-1.16C17.51 18.86 17.42 18.4 17.48 17.93zM19.77 9.21c0-0.25 0.08-0.45 0.23-0.6l1.46-1.48c0.18-0.17 0.38-0.25 0.61-0.25 0.24 0 0.44 0.09 0.61 0.26s0.26 0.38 0.26 0.61c0 0.25-0.09 0.46-0.26 0.62l-1.48 1.44c-0.18 0.17-0.38 0.25-0.61 0.25-0.23 0-0.43-0.08-0.58-0.25C19.85 9.65 19.77 9.44 19.77 9.21zM22.07 14.76c0-0.22 0.09-0.42 0.26-0.61 0.16-0.17 0.35-0.25 0.58-0.25h2.06c0.24 0 0.45 0.09 0.62 0.26s0.27 0.37 0.27 0.6c0 0.24-0.09 0.45-0.26 0.62-0.18 0.17-0.38 0.26-0.63 0.26h-2.06c-0.24 0-0.45-0.08-0.6-0.25C22.15 15.22 22.07 15.01 22.07 14.76z" /></svg>