<svg xmlns="http://www.w3.org/2000/svg" width="100%" height="100%" viewBox="0 0 30 30"><path d="M3.74 14.44c0-1.52 0.3-2.98 0.89-4.37s1.4-2.58 2.4-3.59 2.2-1.81 3.59-2.4 2.84-0.89 4.37-0.89 2.98 0.3 4.37 0.89 2.59 1.4 3.6 2.4 1.81 2.2 2.4 3.59 0.89 2.84 0.89 4.37-0.3 2.98-0.89 4.37-1.4 2.59-2.4 3.6-2.2 1.81-3.6 2.4-2.85 0.89-4.37 0.89-2.98-0.3-4.37-0.89-2.58-1.4-3.59-2.4-1.81-2.2-2.4-3.6S3.74 15.97 3.74 14.44zM4.94 14.44c0 1.27 0.23 2.49 0.7 3.66s1.09 2.2 1.89 3.08 1.75 1.61 2.85 2.19 2.28 0.94 3.52 1.08c-1.75-1.04-2.98-2.39-3.7-4.07s-1.08-3.66-1.08-5.93c0-2.07 0.44-4 1.32-5.78s2.1-3.2 3.66-4.24c-1.26 0.11-2.46 0.45-3.59 1.02s-2.1 1.3-2.92 2.19-1.46 1.92-1.93 3.11S4.94 13.15 4.94 14.44z" /></svg>