<svg xmlns="http://www.w3.org/2000/svg" width="100%" height="100%" viewBox="0 0 30 30"><path d="M3.74 14.44c0-2.03 0.5-3.91 1.51-5.64s2.37-3.1 4.1-4.1 3.61-1.51 5.64-1.51c1.52 0 2.98 0.3 4.37 0.89s2.59 1.4 3.6 2.4 1.81 2.2 2.4 3.59 0.89 2.84 0.89 4.37-0.3 2.98-0.89 4.37-1.4 2.59-2.4 3.6-2.2 1.81-3.6 2.4-2.85 0.89-4.37 0.89-2.98-0.3-4.37-0.89-2.59-1.4-3.59-2.4-1.8-2.2-2.4-3.6S3.74 15.97 3.74 14.44zM10.54 14.44c0 4.44 1.17 7.78 3.5 10.02 0.07 0 0.17 0 0.3 0.01s0.25 0.02 0.35 0.02 0.2 0.01 0.3 0.01c1.36 0 2.66-0.27 3.9-0.8s2.32-1.25 3.22-2.15 1.61-1.97 2.15-3.21 0.8-2.54 0.8-3.91c0-1.36-0.27-2.66-0.8-3.9s-1.25-2.31-2.15-3.21-1.97-1.61-3.22-2.15-2.55-0.8-3.9-0.8c-0.36 0-0.63 0.01-0.81 0.03-1.08 1.22-1.96 2.69-2.64 4.42S10.54 12.43 10.54 14.44z" /></svg>