<svg xmlns="http://www.w3.org/2000/svg" width="100%" height="100%" viewBox="0 0 30 30"><path d="M3.74 14.44c0-1.52 0.3-2.98 0.89-4.37s1.4-2.58 2.4-3.59 2.2-1.81 3.59-2.4 2.84-0.89 4.37-0.89 2.98 0.3 4.37 0.89 2.59 1.4 3.6 2.4 1.81 2.2 2.4 3.59 0.89 2.84 0.89 4.37-0.3 2.98-0.89 4.37-1.4 2.59-2.4 3.6-2.2 1.81-3.6 2.4-2.85 0.89-4.37 0.89-2.98-0.3-4.37-0.89-2.58-1.4-3.59-2.4-1.81-2.2-2.4-3.6S3.74 15.97 3.74 14.44zM15.01 4.39c1.23 3.54 1.85 6.89 1.85 10.05 0 3.93-0.59 7.28-1.77 10.06 1.35-0.01 2.64-0.28 3.87-0.81s2.3-1.25 3.19-2.15 1.6-1.97 2.12-3.21 0.79-2.54 0.79-3.9-0.27-2.66-0.8-3.9-1.25-2.31-2.15-3.21-1.97-1.61-3.21-2.15S16.36 4.39 15.01 4.39z" /></svg>