<svg xmlns="http://www.w3.org/2000/svg" width="100%" height="100%" viewBox="0 0 30 30"><path d="M4.12 16.91c0 1.33 0.46 2.48 1.39 3.43s2.06 1.47 3.4 1.53c0.11 0 0.17-0.06 0.17-0.17v-1.37c0-0.12-0.06-0.18-0.17-0.18-0.87-0.07-1.6-0.41-2.19-1.04-0.59-0.62-0.89-1.36-0.89-2.21 0-0.84 0.28-1.57 0.85-2.19 0.57-0.62 1.26-0.97 2.1-1.04l0.53-0.07c0.13 0 0.2-0.06 0.2-0.17l0.07-0.52c0.11-1.08 0.56-1.99 1.37-2.71 0.81-0.73 1.76-1.09 2.85-1.09 1.09 0 2.04 0.36 2.85 1.09 0.81 0.72 1.27 1.63 1.39 2.72l0.07 0.58c0 0.12 0.06 0.18 0.18 0.18h1.61c0.91 0 1.68 0.32 2.32 0.95 0.64 0.63 0.96 1.39 0.96 2.28 0 0.85-0.3 1.59-0.89 2.21-0.59 0.62-1.32 0.97-2.19 1.04-0.13 0-0.2 0.06-0.2 0.18v1.37c0 0.11 0.07 0.17 0.2 0.17 1.33-0.04 2.46-0.55 3.38-1.51s1.38-2.11 1.38-3.45c0-0.89-0.23-1.72-0.68-2.48 0.8-0.72 1.32-1.58 1.55-2.58l0.15-0.72c0.01-0.01 0.01-0.03 0.01-0.07 0-0.07-0.05-0.13-0.16-0.16l-0.58-0.17c-0.57-0.16-1.05-0.44-1.45-0.82-0.4-0.39-0.68-0.8-0.85-1.23-0.17-0.43-0.25-0.87-0.25-1.32 0-0.24 0.03-0.51 0.09-0.79l0.14-0.62c0.03-0.09-0.02-0.17-0.14-0.22l-0.79-0.24c-0.44-0.11-0.85-0.16-1.25-0.16-0.36 0-0.73 0.04-1.12 0.13-0.38 0.09-0.78 0.22-1.19 0.41-0.41 0.18-0.81 0.45-1.2 0.8-0.39 0.35-0.72 0.75-1 1.22-0.71-0.3-1.48-0.45-2.33-0.45-1.41 0-2.66 0.44-3.75 1.31-1.09 0.87-1.79 1.99-2.1 3.35-1.1 0.26-2.01 0.84-2.73 1.74C4.48 14.74 4.12 15.76 4.12 16.91zM11.79 21.56c-0.05 0.14 0 0.22 0.14 0.22h2.16l-1.31 4.14h0.3l4.17-5.59c0.04-0.04 0.05-0.09 0.03-0.14-0.02-0.05-0.06-0.07-0.13-0.07h-2.2l2.31-4.21c0.07-0.14 0.02-0.22-0.14-0.22h-2.94c-0.08 0-0.15 0.05-0.22 0.14L11.79 21.56zM17.6 8.81c0.33-0.57 0.77-1 1.33-1.3 0.55-0.3 1.13-0.45 1.72-0.45 0.13 0 0.22 0.01 0.27 0.02v0.31c0 0.96 0.26 1.87 0.78 2.73 0.52 0.86 1.24 1.51 2.17 1.96-0.16 0.37-0.41 0.73-0.75 1.07-0.92-0.79-1.99-1.18-3.22-1.18h-0.32C19.29 10.71 18.63 9.66 17.6 8.81z" /></svg>