<svg xmlns="http://www.w3.org/2000/svg" width="100%" height="100%" viewBox="0 0 30 30"><path d="M5.09 13.5c0 0.18 0.06 0.31 0.17 0.4 0.12 0.11 0.26 0.17 0.42 0.17h10.4c0.18 0 0.33 0.06 0.46 0.19 0.13 0.12 0.2 0.28 0.2 0.46s-0.07 0.34-0.2 0.47-0.28 0.2-0.46 0.2c-0.18 0-0.34-0.07-0.47-0.21-0.13-0.11-0.26-0.16-0.4-0.16-0.16 0-0.3 0.05-0.41 0.16-0.11 0.11-0.16 0.24-0.16 0.39 0 0.16 0.06 0.3 0.17 0.41 0.36 0.36 0.78 0.53 1.27 0.53 0.49 0 0.91-0.17 1.26-0.52 0.35-0.35 0.52-0.77 0.52-1.27 0-0.49-0.17-0.92-0.52-1.27-0.35-0.35-0.77-0.53-1.26-0.53H5.68c-0.16 0-0.3 0.06-0.42 0.17C5.14 13.21 5.09 13.34 5.09 13.5zM5.09 11.48c0 0.17 0.06 0.3 0.17 0.39 0.12 0.11 0.26 0.16 0.42 0.16h13.81c0.49 0 0.92-0.18 1.27-0.52 0.35-0.35 0.52-0.77 0.52-1.27 0-0.49-0.17-0.91-0.52-1.26s-0.77-0.52-1.27-0.52c-0.49 0-0.91 0.17-1.27 0.51-0.11 0.12-0.16 0.27-0.16 0.42 0 0.16 0.05 0.3 0.16 0.4 0.11 0.1 0.24 0.15 0.4 0.15 0.15 0 0.29-0.05 0.41-0.16 0.12-0.12 0.27-0.18 0.45-0.18 0.17 0 0.33 0.06 0.46 0.18 0.13 0.12 0.2 0.27 0.2 0.45 0 0.18-0.07 0.34-0.2 0.47-0.13 0.13-0.28 0.2-0.46 0.2H5.68c-0.16 0-0.3 0.06-0.42 0.17C5.14 11.18 5.09 11.32 5.09 11.48zM18.18 19.76c0.02 0.39 0.11 0.73 0.28 1.02 0.17 0.29 0.39 0.51 0.67 0.67 0.28 0.16 0.58 0.27 0.9 0.34s0.67 0.11 1.04 0.11c0.57 0 1.09-0.11 1.55-0.32 0.47-0.21 0.84-0.48 1.13-0.81 0.29-0.33 0.53-0.7 0.73-1.13s0.33-0.84 0.41-1.23 0.12-0.78 0.12-1.15c0-1.06-0.27-1.87-0.81-2.43-0.54-0.57-1.26-0.85-2.17-0.85-0.93 0-1.72 0.28-2.36 0.85-0.64 0.57-0.97 1.32-0.97 2.24 0 0.66 0.21 1.2 0.63 1.62 0.42 0.42 0.96 0.63 1.63 0.63 0.36 0 0.7-0.07 1.05-0.22 0.34-0.14 0.58-0.33 0.72-0.54h0.03c-0.12 0.48-0.31 0.88-0.58 1.22-0.27 0.34-0.62 0.51-1.06 0.51-0.29 0-0.48-0.03-0.59-0.1-0.12-0.11-0.21-0.25-0.24-0.42H18.18zM20.75 16.88c0-0.31 0.1-0.58 0.29-0.81 0.19-0.23 0.48-0.34 0.86-0.34 0.34 0 0.6 0.09 0.77 0.26 0.18 0.17 0.27 0.43 0.27 0.76 0 0.09-0.02 0.2-0.06 0.31s-0.1 0.23-0.18 0.36c-0.08 0.12-0.2 0.23-0.37 0.31s-0.35 0.12-0.56 0.12-0.39-0.04-0.54-0.11c-0.15-0.07-0.25-0.17-0.32-0.29-0.07-0.12-0.11-0.22-0.14-0.31S20.75 16.96 20.75 16.88z" /></svg>