<svg xmlns="http://www.w3.org/2000/svg" width="100%" height="100%" viewBox="0 0 30 30"><path d="M4.65 15.5c0-0.22 0.08-0.41 0.23-0.56 0.16-0.15 0.35-0.22 0.57-0.22h12.08c0.22 0 0.4 0.07 0.54 0.22 0.14 0.15 0.22 0.34 0.22 0.57 0 0.22-0.07 0.4-0.22 0.54-0.14 0.14-0.32 0.22-0.54 0.22H5.45c-0.22 0-0.42-0.07-0.57-0.22C4.72 15.9 4.65 15.72 4.65 15.5zM7.06 12.6c0-0.22 0.08-0.4 0.23-0.55 0.15-0.15 0.34-0.23 0.56-0.23h12.09c0.21 0 0.39 0.08 0.54 0.23 0.15 0.15 0.22 0.33 0.22 0.55 0 0.22-0.07 0.4-0.22 0.56-0.15 0.15-0.33 0.23-0.54 0.23H7.86c-0.22 0-0.41-0.08-0.56-0.23S7.06 12.82 7.06 12.6zM8.68 18.34c0-0.21 0.08-0.39 0.24-0.54 0.14-0.14 0.32-0.22 0.54-0.22h12.1c0.22 0 0.41 0.07 0.56 0.22 0.15 0.14 0.22 0.32 0.22 0.54s-0.08 0.41-0.23 0.56-0.34 0.23-0.56 0.23H9.46c-0.22 0-0.4-0.08-0.56-0.23S8.68 18.56 8.68 18.34zM19.26 15.5c0-0.23 0.07-0.42 0.22-0.57 0.15-0.15 0.34-0.22 0.57-0.22h4.52c0.23 0 0.42 0.07 0.57 0.22 0.15 0.15 0.22 0.34 0.22 0.56 0 0.22-0.07 0.4-0.22 0.54-0.15 0.14-0.34 0.22-0.56 0.22h-4.52c-0.23 0-0.42-0.07-0.57-0.22C19.33 15.9 19.26 15.72 19.26 15.5z" /></svg>