<svg xmlns="http://www.w3.org/2000/svg" width="100%" height="100%" viewBox="0 0 48 48"><path fill="#7CB342" d="M12 29.001c0 1.104-.896 2-2 2l0 0c-1.104 0-2-.896-2-2v-9c0-1.104.896-2 2-2l0 0c1.104 0 2 .896 2 2V29.001zM40 29.001c0 1.104-.896 2-2 2l0 0c-1.104 0-2-.896-2-2v-9c0-1.104.896-2 2-2l0 0c1.104 0 2 .896 2 2V29.001zM22 40c0 1.104-.896 2-2 2l0 0c-1.104 0-2-.896-2-2v-9c0-1.104.896-2 2-2l0 0c1.104 0 2 .896 2 2V40zM30 40c0 1.104-.896 2-2 2l0 0c-1.104 0-2-.896-2-2v-9c0-1.104.896-2 2-2l0 0c1.104 0 2 .896 2 2V40z"/><path fill="#7CB342" d="M14 18.001V33c0 1.104.896 2 2 2h16c1.104 0 2-.896 2-2V18.001H14zM24 8c-6 0-9.655 3.645-10 8h20C33.654 11.645 30 8 24 8zM20 13.598c-.552 0-1-.448-1-1s.448-1 1-1 1 .448 1 1S20.552 13.598 20 13.598zM28 13.598c-.553 0-1-.448-1-1s.447-1 1-1 1 .448 1 1S28.553 13.598 28 13.598z"/><path fill="none" stroke="#7CB342" stroke-linecap="round" stroke-width="2" d="M30 7L28.334 9.499M18 7L19.333 9.082"/></svg>