<svg xmlns="http://www.w3.org/2000/svg" width="100%" height="100%" viewBox="0 0 48 48"><path fill="#3F51B5" d="M43.4 8.3L4 15l-.3-2c-.4-2.2 1.1-4.2 3.3-4.6l31.6-5.3c2.2-.4 4.2 1.1 4.6 3.3L43.4 8.3zM40 41H8c-2.2 0-4-1.8-4-4V15h40v22C44 39.2 42.2 41 40 41z"/><g fill="#9FA8DA"><path d="M18.8 6.4L23.7 11.7 27.7 11 22.7 5.7zM10.9 7.7L15.8 13 19.8 12.3 14.8 7.1zM26.7 5.1L31.6 10.3 35.5 9.7 30.6 4.4zM34.5 3.8L39.5 9 43.4 8.3 38.5 3.1z"/></g><circle cx="7.5" cy="11.5" r="1.5" fill="#9FA8DA"/><g fill="#9FA8DA"><path d="M40 15L36 21 40 21 44 15zM32 15L28 21 32 21 36 15zM24 15L20 21 24 21 28 15zM16 15L12 21 16 21 20 15zM8 15L4 21 8 21 12 15z"/></g></svg>