<svg xmlns="http://www.w3.org/2000/svg" width="100%" height="100%" viewBox="0 0 48 48"><path fill="#4CAF50" d="M6,10v28c0,2.2,1.8,4,4,4h28c2.2,0,4-1.8,4-4V10c0-2.2-1.8-4-4-4H10C7.8,6,6,7.8,6,10z"/><g fill="#FFC107"><path d="M6.6 8l6 6c-.4.6-.6 1.3-.6 2 0 2.2 1.8 4 4 4s4-1.8 4-4-1.8-4-4-4c-.7 0-1.4.2-2 .6l-6-6C7.4 6.9 6.9 7.4 6.6 8zM16 14.5c.8 0 1.5.7 1.5 1.5s-.7 1.5-1.5 1.5-1.5-.7-1.5-1.5S15.2 14.5 16 14.5zM41.4 40l-6-6c.4-.6.6-1.3.6-2 0-2.2-1.8-4-4-4s-4 1.8-4 4 1.8 4 4 4c.7 0 1.4-.2 2-.6l6 6C40.6 41.1 41.1 40.6 41.4 40zM32 33.5c-.8 0-1.5-.7-1.5-1.5s.7-1.5 1.5-1.5 1.5.7 1.5 1.5S32.8 33.5 32 33.5zM16 36c2.2 0 4-1.8 4-4 0-.7-.2-1.4-.6-2L30 19.4c.6.4 1.3.6 2 .6 2.2 0 4-1.8 4-4s-1.8-4-4-4-4 1.8-4 4c0 .7.2 1.4.6 2L18 28.6c-.6-.4-1.3-.6-2-.6-2.2 0-4 1.8-4 4S13.8 36 16 36zM32 14.5c.8 0 1.5.7 1.5 1.5s-.7 1.5-1.5 1.5-1.5-.7-1.5-1.5S31.2 14.5 32 14.5zM16 30.5c.8 0 1.5.7 1.5 1.5s-.7 1.5-1.5 1.5-1.5-.7-1.5-1.5S15.2 30.5 16 30.5z"/></g></svg>