<svg xmlns="http://www.w3.org/2000/svg" width="100%" height="100%" viewBox="0 0 48 48"><path fill="#FBE9E7" d="M9 4H39V44H9z"/><g fill="#F4511E"><path d="M30 37L32.8 37 27.8 32 25 34.8 30 39.8zM18 37L15.2 37 20.2 32 23 34.8 18 39.8z"/></g><path fill="#FF8A65" d="M15 13H33V17H15zM15 20H33V22H15zM24 26c-2.8 0-5 2.2-5 5s2.2 5 5 5 5-2.2 5-5S26.8 26 24 26zM24 34c-1.7 0-3-1.3-3-3s1.3-3 3-3 3 1.3 3 3S25.7 34 24 34z"/><path fill="#FF8A65" d="M8,3v42h32V3H8z M38,40c-1.7,0-3,1.3-3,3H13c0-1.7-1.3-3-3-3V8c1.7,0,3-1.3,3-3h22c0,1.7,1.3,3,3,3V40z"/></svg>