<svg xmlns="http://www.w3.org/2000/svg" width="100%" height="100%" viewBox="0 0 48 48"><path fill="#90A4AE" d="M40,35v5H8v-5H4v5c0,2.2,1.8,4,4,4h32c2.2,0,4-1.8,4-4v-5H40z"/><g fill="#1565C0"><path d="M24 23.4L17 15 31 15z"/><path d="M22 4H26V18H22zM31.5 26.9L30.8 28l3.5 1.9.6-1.2c1.6-3 2.6-4.7 3.5-5.2C39.3 23 41 23 44 23v-4C36.3 19 35.6 19.4 31.5 26.9z"/><path d="M38.4 31L29.4 35 28 25zM16.5 26.9l.6 1.2L13.6 30 13 28.8c-1.6-3-2.6-4.7-3.5-5.2C8.7 23 7 23 4 23v-4C11.7 19 12.4 19.4 16.5 26.9z"/><path d="M20 25L18.6 35 9.6 31z"/></g></svg>