<svg xmlns="http://www.w3.org/2000/svg" width="100%" height="100%" viewBox="0 0 48 48"><path fill="#CFD8DC" d="M12,40V20h32v20c0,2.2-1.8,4-4,4H16C13.8,44,12,42.2,12,40z"/><path fill="#78909C" d="M44,16v6H12v-6c0-2.2,1.8-4,4-4h24C42.2,12,44,13.8,44,16z"/><g fill="#37474F"><circle cx="37" cy="16" r="3"/><circle cx="20" cy="16" r="3"/></g><g fill="#B0BEC5"><path d="M37 10c-1.1 0-2 .9-2 2v4c0 1.1.9 2 2 2s2-.9 2-2v-4C39 10.9 38.1 10 37 10zM20 10c-1.1 0-2 .9-2 2v4c0 1.1.9 2 2 2s2-.9 2-2v-4C22 10.9 21.1 10 20 10z"/></g><path fill="#90A4AE" d="M32 34H36V38H32zM26 34H30V38H26zM20 34H24V38H20zM32 28H36V32H32zM26 28H30V32H26zM20 28H24V32H20z"/><circle cx="16" cy="15" r="12" fill="#F44336"/><circle cx="16" cy="15" r="9" fill="#eee"/><path d="M15 8H17V15H15z"/><path d="M16.9 14.2H18.799999999999997V19.6H16.9z" transform="rotate(135 17.901 16.9)"/><circle cx="16" cy="15" r="1.5"/></svg>