<svg xmlns="http://www.w3.org/2000/svg" width="100%" height="100%" viewBox="0 0 48 48"><path fill="#FFA000" d="M16.7 1.6H31.299999999999997V46.4H16.7z" transform="rotate(-135 24.001 24.003)"/><g fill="#9E6400"><path d="M17.9 20.2H24.5V22.2H17.9z" transform="rotate(-135 21.178 21.179)"/><path d="M22.3 15.2H26V17.2H22.3z" transform="rotate(-135 24.178 16.178)"/><path d="M25.9 12.2H32.5V14.2H25.9z" transform="rotate(-135 29.178 13.179)"/><path d="M31.2 6.3H33.2V10H31.2z" transform="rotate(-45 32.178 8.182)"/><path d="M6.3 31.2H10V33.2H6.3z" transform="rotate(-135 8.176 32.179)"/><path d="M9.9 28.2H16.5V30.2H9.9z" transform="rotate(-135 13.177 29.18)"/><path d="M14.3 23.2H18V25.2H14.3z" transform="rotate(-135 16.177 24.179)"/></g></svg>