<svg xmlns="http://www.w3.org/2000/svg" width="100%" height="100%" viewBox="0 0 48 48"><path fill="#CFD8DC" d="M6 10a4 4 0 014-4h28a4 4 0 014 4v28a4 4 0 01-4 4H10a4 4 0 01-4-4V10z"/><path fill="#37474F" d="M39 17.271a.342.342 0 01-.334.349h-1.799l-8.164 18.179c-.052.12-.17.2-.297.202h-.004a.33.33 0 01-.298-.193l-3.874-8.039-4.18 8.049a.333.333 0 01-.303.184.336.336 0 01-.292-.199l-8.252-18.182h-1.87a.345.345 0 01-.333-.35v-.921a.34.34 0 01.333-.35h6.657a.34.34 0 01.333.35v.921a.342.342 0 01-.333.349h-1.433l5.696 13.748 2.964-5.793-3.757-7.953h-.904a.342.342 0 01-.333-.35v-.922c0-.191.149-.348.333-.348h4.924a.34.34 0 01.333.348v.922c0 .192-.149.35-.333.35h-.867l2.162 4.948 2.572-4.948H25.77a.34.34 0 01-.334-.35v-.922a.34.34 0 01.334-.348h4.784c.187 0 .333.156.333.348v.922a.34.34 0 01-.333.35h-1.05l-3.757 7.141 3.063 6.584 5.905-13.725h-1.872a.343.343 0 01-.334-.35v-.922c0-.191.15-.348.334-.348h5.822a.34.34 0 01.334.348v.921z"/></svg>