<svg xmlns="http://www.w3.org/2000/svg" width="100%" height="100%" viewBox="-1.6 -1.6 19.2 19.2"><path d="M14 1a1 1 0 011 1v8a1 1 0 01-1 1h-2.5a2 2 0 00-1.6.8L8 14.333 6.1 11.8a2 2 0 00-1.6-.8H2a1 1 0 01-1-1V2a1 1 0 011-1h12zM2 0a2 2 0 00-2 2v8a2 2 0 002 2h2.5a1 1 0 01.8.4l1.9 2.533a1 1 0 001.6 0l1.9-2.533a1 1 0 01.8-.4H14a2 2 0 002-2V2a2 2 0 00-2-2H2z"/><path d="M3 3.5a.5.5 0 01.5-.5h9a.5.5 0 010 1h-9a.5.5 0 01-.5-.5zM3 6a.5.5 0 01.5-.5h9a.5.5 0 010 1h-9A.5.5 0 013 6zm0 2.5a.5.5 0 01.5-.5h5a.5.5 0 010 1h-5a.5.5 0 01-.5-.5z"/></svg>