<svg xmlns="http://www.w3.org/2000/svg" width="100%" height="100%" viewBox="-1.6 -1.6 19.2 19.2"><path d="M2.678 11.894a1 1 0 01.287.801 10.97 10.97 0 01-.398 2c1.395-.323 2.247-.697 2.634-.893a1 1 0 01.71-.074A8.06 8.06 0 008 14c3.996 0 7-2.807 7-6 0-3.192-3.004-6-7-6S1 4.808 1 8c0 1.468.617 2.83 1.678 3.894zm-.493 3.905a21.682 21.682 0 01-.713.129c-.2.032-.352-.176-.273-.362a9.68 9.68 0 00.244-.637l.003-.01c.248-.72.45-1.548.524-2.319C.743 11.37 0 9.76 0 8c0-3.866 3.582-7 8-7s8 3.134 8 7-3.582 7-8 7a9.06 9.06 0 01-2.347-.306c-.52.263-1.639.742-3.468 1.105z"/><path d="M7.066 6.76A1.665 1.665 0 004 7.668a1.667 1.667 0 002.561 1.406c-.131.389-.375.804-.777 1.22a.417.417 0 00.6.58c1.486-1.54 1.293-3.214.682-4.112zm4 0A1.665 1.665 0 008 7.668a1.667 1.667 0 002.561 1.406c-.131.389-.375.804-.777 1.22a.417.417 0 00.6.58c1.486-1.54 1.293-3.214.682-4.112z"/></svg>