<svg xmlns="http://www.w3.org/2000/svg" width="100%" height="100%" viewBox="-1.6 -1.6 19.2 19.2"><path d="M14.5 3a.5.5 0 01.5.5v9a.5.5 0 01-.5.5h-13a.5.5 0 01-.5-.5v-9a.5.5 0 01.5-.5h13zm-13-1A1.5 1.5 0 000 3.5v9A1.5 1.5 0 001.5 14h13a1.5 1.5 0 001.5-1.5v-9A1.5 1.5 0 0014.5 2h-13z"/><path d="M7 5.5a.5.5 0 01.5-.5h5a.5.5 0 010 1h-5a.5.5 0 01-.5-.5zm-1.496-.854a.5.5 0 010 .708l-1.5 1.5a.5.5 0 01-.708 0l-.5-.5a.5.5 0 11.708-.708l.146.147 1.146-1.147a.5.5 0 01.708 0zM7 9.5a.5.5 0 01.5-.5h5a.5.5 0 010 1h-5a.5.5 0 01-.5-.5zm-1.496-.854a.5.5 0 010 .708l-1.5 1.5a.5.5 0 01-.708 0l-.5-.5a.5.5 0 01.708-.708l.146.147 1.146-1.147a.5.5 0 01.708 0z"/></svg>