<svg xmlns="http://www.w3.org/2000/svg" width="100%" height="100%" viewBox="-1.6 -1.6 19.2 19.2"><path d="M7.354 5.646a.5.5 0 10-.708.708L7.793 7.5 6.646 8.646a.5.5 0 10.708.708L8.5 8.207l1.146 1.147a.5.5 0 00.708-.708L9.207 7.5l1.147-1.146a.5.5 0 00-.708-.708L8.5 6.793 7.354 5.646z"/><path d="M.5 1a.5.5 0 000 1h1.11l.401 1.607 1.498 7.985A.5.5 0 004 12h1a2 2 0 100 4 2 2 0 000-4h7a2 2 0 100 4 2 2 0 000-4h1a.5.5 0 00.491-.408l1.5-8A.5.5 0 0014.5 3H2.89l-.405-1.621A.5.5 0 002 1H.5zm3.915 10L3.102 4h10.796l-1.313 7h-8.17zM6 14a1 1 0 11-2 0 1 1 0 012 0zm7 0a1 1 0 11-2 0 1 1 0 012 0z"/></svg>