<svg xmlns="http://www.w3.org/2000/svg" width="100%" height="100%" viewBox="-1.6 -1.6 19.2 19.2"><path d="M6.146 8.146a.5.5 0 01.708 0L8 9.293l1.146-1.147a.5.5 0 11.708.708L8.707 10l1.147 1.146a.5.5 0 01-.708.708L8 10.707l-1.146 1.147a.5.5 0 01-.708-.708L7.293 10 6.146 8.854a.5.5 0 010-.708z"/><path d="M3.5 0a.5.5 0 01.5.5V1h8V.5a.5.5 0 011 0V1h1a2 2 0 012 2v11a2 2 0 01-2 2H2a2 2 0 01-2-2V3a2 2 0 012-2h1V.5a.5.5 0 01.5-.5zM2 2a1 1 0 00-1 1v11a1 1 0 001 1h12a1 1 0 001-1V3a1 1 0 00-1-1H2z"/><path d="M2.5 4a.5.5 0 01.5-.5h10a.5.5 0 01.5.5v1a.5.5 0 01-.5.5H3a.5.5 0 01-.5-.5V4z"/></svg>