<svg xmlns="http://www.w3.org/2000/svg" width="100%" height="100%" viewBox="-1.6 -1.6 19.2 19.2"><path d="M11 6.64a1 1 0 00-1.243-.97l-1 .25A1 1 0 008 6.89v4.306A2.572 2.572 0 007 11c-.5 0-.974.134-1.338.377-.36.24-.662.628-.662 1.123s.301.883.662 1.123c.364.243.839.377 1.338.377.5 0 .974-.134 1.338-.377.36-.24.662-.628.662-1.123V8.89l2-.5V6.64z"/><path d="M14 14V4.5L9.5 0H4a2 2 0 00-2 2v12a2 2 0 002 2h8a2 2 0 002-2zM9.5 3A1.5 1.5 0 0011 4.5h2V14a1 1 0 01-1 1H4a1 1 0 01-1-1V2a1 1 0 011-1h5.5v2z"/></svg>