<svg xmlns="http://www.w3.org/2000/svg" width="100%" height="100%" viewBox="-1.6 -1.6 19.2 19.2"><path d="M6.75 1a.75.75 0 01.75.75V8a.5.5 0 001 0V5.467l.086-.004c.317-.012.637-.008.816.027.134.027.294.096.448.182.077.042.15.147.15.314V8a.5.5 0 001 0V6.435l.106-.01c.316-.024.584-.01.708.04.118.046.3.207.486.43.081.096.15.19.2.259V8.5a.5.5 0 101 0v-1h.342a1 1 0 01.995 1.1l-.271 2.715a2.5 2.5 0 01-.317.991l-1.395 2.442a.5.5 0 01-.434.252H6.118a.5.5 0 01-.447-.276l-1.232-2.465-2.512-4.185a.517.517 0 01.809-.631l2.41 2.41A.5.5 0 006 9.5V1.75A.75.75 0 016.75 1zM8.5 4.466V1.75a1.75 1.75 0 10-3.5 0v6.543L3.443 6.736A1.517 1.517 0 001.07 8.588l2.491 4.153 1.215 2.43A1.5 1.5 0 006.118 16h6.302a1.5 1.5 0 001.302-.756l1.395-2.441a3.5 3.5 0 00.444-1.389l.271-2.715a2 2 0 00-1.99-2.199h-.581a5.114 5.114 0 00-.195-.248c-.191-.229-.51-.568-.88-.716-.364-.146-.846-.132-1.158-.108l-.132.012a1.26 1.26 0 00-.56-.642 2.632 2.632 0 00-.738-.288c-.31-.062-.739-.058-1.05-.046l-.048.002zm2.094 2.025z"/></svg>