<svg xmlns="http://www.w3.org/2000/svg" width="100%" height="100%" viewBox="-1.6 -1.6 19.2 19.2"><path fill-rule="evenodd" d="M8 5.5a.5.5 0 01.5.5v1.5H10a.5.5 0 010 1H8.5V10a.5.5 0 01-1 0V8.5H6a.5.5 0 010-1h1.5V6a.5.5 0 01.5-.5z"/><path d="M3 0h10a2 2 0 012 2v12a2 2 0 01-2 2H3a2 2 0 01-2-2v-1h1v1a1 1 0 001 1h10a1 1 0 001-1V2a1 1 0 00-1-1H3a1 1 0 00-1 1v1H1V2a2 2 0 012-2z"/><path d="M1 5v-.5a.5.5 0 011 0V5h.5a.5.5 0 010 1h-2a.5.5 0 010-1H1zm0 3v-.5a.5.5 0 011 0V8h.5a.5.5 0 010 1h-2a.5.5 0 010-1H1zm0 3v-.5a.5.5 0 011 0v.5h.5a.5.5 0 010 1h-2a.5.5 0 010-1H1z"/></svg>