<svg xmlns="http://www.w3.org/2000/svg" width="100%" height="100%" viewBox="-1.6 -1.6 19.2 19.2"><path d="M1.5 0A1.5 1.5 0 000 1.5v2A1.5 1.5 0 001.5 5h8A1.5 1.5 0 0011 3.5v-2A1.5 1.5 0 009.5 0h-8zm5.927 2.427A.25.25 0 017.604 2h.792a.25.25 0 01.177.427l-.396.396a.25.25 0 01-.354 0l-.396-.396zM0 8a2 2 0 012-2h12a2 2 0 012 2v5a2 2 0 01-2 2H2a2 2 0 01-2-2V8zm1 3v2a1 1 0 001 1h12a1 1 0 001-1v-2H1zm14-1V8a1 1 0 00-1-1H2a1 1 0 00-1 1v2h14zM2 8.5a.5.5 0 01.5-.5h9a.5.5 0 010 1h-9a.5.5 0 01-.5-.5zm0 4a.5.5 0 01.5-.5h6a.5.5 0 010 1h-6a.5.5 0 01-.5-.5z"/></svg>