<svg xmlns="http://www.w3.org/2000/svg" width="100%" height="100%" viewBox="-1.6 -1.6 19.2 19.2"><path fill-rule="evenodd" d="M10.354 6.146a.5.5 0 010 .708l-3 3a.5.5 0 01-.708 0l-1.5-1.5a.5.5 0 11.708-.708L7 8.793l2.646-2.647a.5.5 0 01.708 0z"/><path d="M10.273 2.513l-.921-.944.715-.698.622.637.89-.011a2.89 2.89 0 012.924 2.924l-.01.89.636.622a2.89 2.89 0 010 4.134l-.637.622.011.89a2.89 2.89 0 01-2.924 2.924l-.89-.01-.622.636a2.89 2.89 0 01-4.134 0l-.622-.637-.89.011a2.89 2.89 0 01-2.924-2.924l.01-.89-.636-.622a2.89 2.89 0 010-4.134l.637-.622-.011-.89a2.89 2.89 0 012.924-2.924l.89.01.622-.636a2.89 2.89 0 014.134 0l-.715.698a1.89 1.89 0 00-2.704 0l-.92.944-1.32-.016a1.89 1.89 0 00-1.911 1.912l.016 1.318-.944.921a1.89 1.89 0 000 2.704l.944.92-.016 1.32a1.89 1.89 0 001.912 1.911l1.318-.016.921.944a1.89 1.89 0 002.704 0l.92-.944 1.32.016a1.89 1.89 0 001.911-1.912l-.016-1.318.944-.921a1.89 1.89 0 000-2.704l-.944-.92.016-1.32a1.89 1.89 0 00-1.912-1.911l-1.318.016z"/></svg>