<svg xmlns="http://www.w3.org/2000/svg" width="100%" height="100%" viewBox="-1.6 -1.6 19.2 19.2"><path d="M7.646 1.146a.5.5 0 01.708 0l1.5 1.5a.5.5 0 01-.708.708L8.5 2.707V4.5a.5.5 0 01-1 0V2.707l-.646.647a.5.5 0 11-.708-.708l1.5-1.5zM2.343 4.343a.5.5 0 01.707 0l1.414 1.414a.5.5 0 01-.707.707L2.343 5.05a.5.5 0 010-.707zm11.314 0a.5.5 0 010 .707l-1.414 1.414a.5.5 0 11-.707-.707l1.414-1.414a.5.5 0 01.707 0zM8 7a3 3 0 012.599 4.5H5.4A3 3 0 018 7zm3.71 4.5a4 4 0 10-7.418 0H.499a.5.5 0 000 1h15a.5.5 0 000-1h-3.79zM0 10a.5.5 0 01.5-.5h2a.5.5 0 010 1h-2A.5.5 0 010 10zm13 0a.5.5 0 01.5-.5h2a.5.5 0 010 1h-2a.5.5 0 01-.5-.5z"/></svg>