<svg xmlns="http://www.w3.org/2000/svg" width="100%" height="100%" viewBox="-1.6 -1.6 19.2 19.2"><path d="M7 2.5a.5.5 0 01.5-.5h7a.5.5 0 01.5.5v1a.5.5 0 01-.5.5h-7a.5.5 0 01-.5-.5v-1zM2 1a2 2 0 00-2 2v2a2 2 0 002 2h2a2 2 0 002-2V3a2 2 0 00-2-2H2zm0 8a2 2 0 00-2 2v2a2 2 0 002 2h2a2 2 0 002-2v-2a2 2 0 00-2-2H2zm.854-3.646a.5.5 0 01-.708 0l-1-1a.5.5 0 11.708-.708l.646.647 1.646-1.647a.5.5 0 11.708.708l-2 2zm0 8a.5.5 0 01-.708 0l-1-1a.5.5 0 01.708-.708l.646.647 1.646-1.647a.5.5 0 01.708.708l-2 2zM7 10.5a.5.5 0 01.5-.5h7a.5.5 0 01.5.5v1a.5.5 0 01-.5.5h-7a.5.5 0 01-.5-.5v-1zm0-5a.5.5 0 01.5-.5h5a.5.5 0 010 1h-5a.5.5 0 01-.5-.5zm0 8a.5.5 0 01.5-.5h5a.5.5 0 010 1h-5a.5.5 0 01-.5-.5z"/></svg>