<svg xmlns="http://www.w3.org/2000/svg" width="100%" height="100%" viewBox="0 0 30.72 30.72"><path d="M19.076 7.9959999999999996L16.85 9.482l-2.295-3.439 2.228-1.486zM20.887 18.326999999999998l3.806 5.703-4.533 3.025-3.806-5.703-0.664-0.995 4.533-3.025zM15.177 22.137l0.838 1.256-3.45 2.303-1.503-2.25 0.754-0.504 2.697-1.8zM22.773 15.629999999999999l0.968-0.645 1.501 2.25-2.227 1.487-0.838-1.256 1.26-0.84z m-0.596 1.836l-0.664-0.995 1.26-0.84 0.664 0.994zM7.151999999999999 15.953l-0.753 0.503L4.103999999999999 13.017l3.45-2.302 1.61 2.41-2.698 1.8 2.697-1.8 0.686 1.029zM14.873 9.314l0.687 1.029-4.534 3.025L10.34 12.34 6.569999999999999 6.6899999999999995 11.102 3.6649999999999996zM18.109 8.642l-1.26 0.84-0.686-1.028-1.609-2.41 2.228-1.487 2.295 3.439zM12.479999999999999 23.937l-0.664-0.995 2.697-1.8 0.664 0.995zM22.177 17.466l-0.664-0.995 1.26-0.84 0.664 0.994zM7.151999999999999 15.953l-0.686-1.028 2.697-1.8 0.686 1.029zM16.849 9.482l-0.686-1.028 1.26-0.84 0.686 1.028zM20.887 18.326999999999998l-4.533 3.025-0.664-0.995 4.533-3.025zM14.873 9.314l0.687 1.029-4.534 3.025L10.34 12.34zM5.866999999999999 8.491999999999999l0.855 1.283-1.282 0.855-0.856-1.282zM10.486999999999998 23.865l0.856 1.283-1.282 0.855-0.856-1.282zM7.113999999999999 25.157L3.3599999999999994 19.485 23.423 6.065999999999999 27.36 11.647z" /></svg>