<svg xmlns="http://www.w3.org/2000/svg" width="100%" height="100%" viewBox="0 0 30.72 30.72"><path d="M27.18 15.36a5.78 5.78 0 0 0-5.88-5.67c-0.29 0-0.6 0.02-0.9 0.05-2.52 0.37-4.2 2.18-5.13 3.57-0.95-1.39-2.64-3.2-5.14-3.57-0.3-0.03-0.6-0.05-0.9-0.05A5.78 5.78 0 0 0 3.3599999999999994 15.36a5.78 5.78 0 0 0 5.87 5.67c0.3 0 0.6-0.02 0.92-0.06 2.52-0.36 4.2-2.17 5.14-3.56 0.95 1.39 2.63 3.2 5.14 3.57 0.31 0.03 0.6 0.05 0.91 0.05A5.78 5.78 0 0 0 27.18 15.36zM9.84 18.96c-0.2 0.04-0.43 0.04-0.63 0.04A3.77 3.77 0 0 1 5.359999999999999 15.34a3.78 3.78 0 0 1 3.86-3.66c0.2 0 0.42 0.02 0.63 0.04 2.37 0.35 3.82 2.67 4.31 3.62-0.5 0.95-1.95 3.3-4.31 3.62zM16.36 15.36c0.49-0.93 1.94-3.27 4.31-3.62 0.2-0.04 0.42-0.04 0.62-0.04A3.76 3.76 0 0 1 25.16 15.36a3.78 3.78 0 0 1-3.86 3.66c-0.2 0-0.42-0.02-0.62-0.04-2.36-0.35-3.82-2.69-4.31-3.62z m-8.79 0.59h3.54v-1.16H7.579999999999999v1.16z m14.13 0h1.19v-1.16h-1.2v-1.19H20.56v1.2H19.36v1.15h1.2v1.18h1.15V15.959999999999999zM27.36 10.419999999999998c0 0.3-0.22 0.51-0.53 0.51a0.51 0.51 0 0 1-0.53-0.5c0-0.28 0.24-0.52 0.53-0.52 0.31 0 0.53 0.22 0.53 0.51z m-0.91 0c0 0.22 0.16 0.4 0.4 0.4 0.22 0 0.38-0.18 0.38-0.4s-0.16-0.4-0.38-0.4c-0.24-0.02-0.4 0.16-0.4 0.4z m0.3 0.26h-0.1V10.16l0.2-0.01c0.09 0 0.14 0.01 0.18 0.03 0.04 0.02 0.06 0.06 0.06 0.11 0 0.06-0.04 0.1-0.11 0.11 0.05 0.02 0.07 0.06 0.09 0.13l0.03 0.13h-0.12c-0.02-0.02-0.02-0.07-0.04-0.13-0.02-0.05-0.04-0.07-0.11-0.07h-0.05l-0.02 0.22z m0.02-0.3h0.06c0.07 0 0.1-0.01 0.1-0.07 0-0.05-0.03-0.07-0.1-0.07h-0.07v0.14h0.01z" /></svg>