<svg xmlns="http://www.w3.org/2000/svg" width="100%" height="100%" viewBox="0 0 30.72 30.72"><path d="M20.874 9.126c-0.002 0.003-0.247 0.256-0.387 0.408-0.366 0.397-0.92 0.975-1.312 1.12h-0.004a2.28 2.28 0 0 0-0.16-0.05l0.705-1.425-0.008 0.012c-0.022 0.043-0.72 1.415-1.666 1.218l-0.002 0.002c-0.014-0.003-0.026 0.002-0.04-0.002 0.455-0.58 0.63-1.113 0.63-1.113s-0.756 1.213-1.69 0.885a0.075 0.075 0 0 1-0.05-0.047 0.153 0.153 0 0 1 0-0.08c0.01-0.04 0.04-0.092 0.067-0.14 0.095-0.176 0.256-0.368 0.256-0.368s-0.156 0.152-0.366 0.295l-0.002 0.002c-0.157 0.107-0.345 0.208-0.52 0.236a0.512 0.512 0 0 1-0.167 0c-0.214-0.037-0.208-0.25-0.149-0.455v-0.002c0.06-0.204 0.174-0.4 0.174-0.4s-0.19 0.298-0.398 0.588c-0.16 0.223-0.311 0.396-0.416 0.474l-0.12 0.004c-0.063-0.176 0.1-0.756 0.1-0.76a4.984 4.984 0 0 1-0.314 0.446 1.73 1.73 0 0 1-0.34 0.336h-0.027c-0.082 0.007-0.16 0.02-0.24 0.031a0.208 0.208 0 0 1-0.063-0.125c-0.042-0.268 0.123-0.756 0.125-0.762-0.002 0.006-0.09 0.26-0.21 0.502V9.959999999999999c-0.032 0.067-0.07 0.12-0.107 0.178-0.086 0.136-0.176 0.244-0.261 0.22-0.127-0.039-0.202-0.203-0.246-0.357-0.044-0.154-0.057-0.299-0.057-0.299s-0.031 0.251-0.117 0.485a0.8 0.8 0 0 1-0.146 0.265c-0.024 0.027-0.057 0.036-0.086 0.055a12.553 12.553 0 0 0-2.617 0.764c-0.223 0.082-0.446 0.159-0.674 0.257-0.75 0.32-1.53 0.726-2.344 1.248a21.335 21.335 0 0 0-2.56 1.945c-0.449 0.393-0.907 0.82-1.377 1.29C7.247 14.094999999999999 8.66 11.268 15.324 11.015999999999998c5.045-0.19 7.402 2.138 8.18 2.171 1.957 0.083 3.258-1.4 3.673-1.947 0.112-0.142 0.179-0.237 0.183-0.244-0.01 0.011-0.328 0.374-0.781 0.722l-0.006 0.004c-0.46 0.35-1.05 0.68-1.577 0.6h-0.002c-0.068-0.01-0.138-0.007-0.203-0.032 0.744-0.434 1.237-1.19 1.483-1.596 0.076-0.125 0.233-0.36 0.233-0.36S24.759999999999998 12.122 23.459 12.001999999999999l-0.002 0.002c-0.051-0.005-0.105 0.007-0.155-0.004 0.567-0.446 0.985-1.045 1.278-1.55v-0.004h0.002c0.317-0.548 0.482-0.985 0.484-0.992-0.005 0.008-0.326 0.498-0.766 1.037l-0.01 0.01c-0.44 0.54-0.998 1.122-1.464 1.3-0.07 0.026-0.14 0.066-0.205 0.072 1.085-0.96 1.54-2.323 1.54-2.323s-1.098 1.595-2.027 1.89c-0.056 0.017-0.114 0.047-0.17 0.054 0.568-0.513 0.869-0.92 1.057-1.24V10.25c0.238-0.404 0.281-0.65 0.281-0.65l-0.004 0.004a9.381 9.381 0 0 1-0.271 0.334l-0.016 0.017c-0.255 0.3-0.645 0.733-1.045 1.078l-0.005 0.004a4.148 4.148 0 0 1-0.32 0.248c-0.03 0.021-0.06 0.046-0.09 0.065a1.7 1.7 0 0 1-0.273 0.139c-0.022 0.01-0.044 0.022-0.065 0.03-0.068-0.045-0.132-0.092-0.205-0.135-0.046 0.06-0.096 0.117-0.142 0.176h-0.002c-0.02-0.006-0.044-0.006-0.063-0.016 0.859-0.935 1.44-2.12 1.44-2.12l-0.003 0.004c-0.008 0.01-1.194 1.61-1.73 1.71-0.07-0.035-0.14-0.07-0.216-0.103a0.5 0.5 0 0 1 0.044-0.162c0.122-0.284 0.465-0.717 0.465-0.717s-0.093 0.07-0.123 0.096a4.251 4.251 0 0 1-0.304 0.238c-0.056 0.04-0.114 0.072-0.172 0.108a1.9 1.9 0 0 1-0.188 0.105 0.71 0.71 0 0 1-0.263 0.086c-0.043 0-0.082-0.005-0.11-0.027 0.453-0.277 1.228-1.628 1.233-1.637z m-4.79 2.166a15.085 15.085 0 0 0-0.914 0.006c-0.286 0.01-0.55 0.033-0.817 0.053l-0.002 0.002a3.41 3.41 0 0 0-0.783 0.46 0.427 0.427 0 0 1 0.035 0.168 0.431 0.431 0 0 1-0.047 0.19l0.885 0.642 0.022-0.014-0.36-1.264 0.623 1.114c0.02-0.008 0.042-0.014 0.063-0.02l-0.02-1.236 0.397 1.162 0.476-1.15 0.018 1.269c0.004 0.002 0.007 0.006 0.012 0.008l0.712-1.006-0.363 1.219 0.008 0.01 1.041-0.692-0.758 1.05v0.007l0.95-0.34c0.013-0.017 0.03-0.03 0.042-0.047a0.394 0.394 0 0 1 0.396-0.63c0.119-0.245 0.209-0.504 0.268-0.77a13.153 13.153 0 0 0-1.884-0.19z m-2.508 0.134l-0.02 0.002c-0.309 0.036-0.607 0.078-0.893 0.125-0.287 0.047-0.562 0.1-0.824 0.16l-0.014 0.002c0.115 0.388 0.294 0.756 0.531 1.08 0.108-0.24 0.244-0.461 0.402-0.662a0.436 0.436 0 0 1 0.57-0.557c0.077-0.058 0.166-0.1 0.248-0.15z m4.46 0.092a3.184 3.184 0 0 1-0.162 0.826 0.394 0.394 0 0 1-0.328 0.68 3.172 3.172 0 0 1-0.55 0.63l0.66 0.034-0.994 0.236c-0.026 0.018-0.046 0.042-0.072 0.06a3.195 3.195 0 0 1 1.538 0.69c0.32-0.574 0.504-1.235 0.504-1.94 0-0.535-0.237-0.928-0.594-1.216z m-6.319 0.226c-0.296 0.07-0.58 0.147-0.85 0.23a1.462 1.462 0 0 0-0.212 0.76 3.99 3.99 0 0 0 2.357 3.64l0.002-0.011a3.198 3.198 0 0 1-0.58-0.79 0.572 0.572 0 0 1-0.336-1.079 3.18 3.18 0 0 1 0.14-1.39 3.16 3.16 0 0 1-0.52-1.36z m7.633 0.026c0.14 0.41 0.225 0.842 0.225 1.293 0 2.44-2.203 4.419-4.921 4.419-2.718 0-4.921-1.98-4.921-4.42 0-0.235 0.023-0.467 0.063-0.693A13.08 13.08 0 0 0 7.72 13.479999999999999c-0.214 0.388-0.318 0.793-0.283 1.2 0.085 0.986 0.951 1.808 2.275 2.365l-0.256-0.068c-2.291-0.646-4.109 0.503-6.096-0.494 0.46 0.364 0.984 0.717 2.499 0.722 0.513 0.002 2.158-0.08 2.461 0.186 0.303 0.265-1.021 1.514-1.021 1.514s2.24-1.897 2.459-1.25c0.137 0.402-0.643 1.476-0.643 1.476s0.784-1.06 1.364-1.287c0.4-0.156 0.735-0.136 1.022 0.266 0.19 0.265-0.91 1.553-0.91 1.553s1.477-1.44 1.741-1.364c0.266 0.076 0 1.364 0 1.364s0.545-1.307 0.835-1.403c0.398-0.133-0.909 3.031-0.909 3.031s1.596-2.926 1.894-2.992c0.51-0.114 0.852 2.044 0.852 2.044s-0.25-1.886 0.02-2.007c1.694-0.767 0.718 3.257 0.718 3.257s1.11-2.73 0.428-3.337c1.799 1.193 1.579 3.337 1.579 3.337s0.472-1.02-0.855-3.53c0.72-0.038 1.8 1.864 1.8 1.864s-1.172-2.082-0.377-2.12c1.58-0.075 1.74 2.765 1.74 2.765s0.474-0.398-0.795-3.181c0.808-0.518 2.765 2.575 2.765 2.575s-1.805-3.018-1.515-3.22c0.29-0.202 1.35 0.96 1.35 0.96s-0.808-1.11-0.594-1.223c0.216-0.114 2.363 2.207 2.363 2.207s-1.895-2.271-1.567-2.55c0.328-0.277 1.717 0.784 1.717 0.784s-2.134-1.4-1.717-1.618c0.58-0.3 2.235 0.72 2.235 0.72s-0.996-0.82-0.832-1.02c0.164-0.203 2.12 1.287 2.12 1.287s-1.729-1.365-1.818-1.706c-0.088-0.34 1.362 0.115 1.362 0.115s-1.602-0.744-1.627-0.959c-0.026-0.214 1.06 0.24 1.06 0.24s-1.49-1.225-1.855-0.228c-0.084 0.16-0.187 0.3-0.283 0.45 0.093-0.27 0.135-0.543 0.11-0.82a1.87 1.87 0 0 0-0.052-0.28c-0.683-0.367-1.702-0.933-3.134-1.336z m-5.831 0.455a0.427 0.427 0 0 1-0.509 0.164c-0.054 0.073-0.1 0.152-0.148 0.23l1.278 0.47c0.01-0.013 0.02-0.03 0.032-0.042zM12.86 12.62c-0.094 0.155-0.18 0.316-0.244 0.489 0.12 0.128 0.26 0.235 0.396 0.343l0.923-0.029 0.002-0.004z m4.187 0.541l-0.606 0.463 0.053 0.002c0.201-0.132 0.383-0.29 0.553-0.465z m-4.535 0.291c-0.002 0.012-0.007 0.023-0.01 0.035a2.88 2.88 0 0 0-0.048 0.958 0.567 0.567 0 0 1 0.451 0.474l0.938-0.6c-0.085-0.03-0.17-0.06-0.251-0.097l-1.052-0.076 0.638-0.139a3.199 3.199 0 0 1-0.666-0.555z m0.793 0.211c0.139 0.086 0.28 0.16 0.43 0.223l0.116-0.024c0-0.019 0.005-0.037 0.006-0.056z m3.121 0.68l0.916 0.9-1.198-0.466 0.703 1.079-1.072-0.833-0.012 0.006 0.346 1.28-0.596-1.136-0.097 1.33-0.403-1.326-0.47 1.263 0.113-1.36-0.016-0.008-0.812 1.153 0.297-1.11a3.299 3.299 0 0 0-0.793 1.19c0.095 0.102 0.196 0.198 0.302 0.289a3.985 3.985 0 0 0 4.353-1.689 3.399 3.399 0 0 0-1.26-0.539z m-2.436 0.223l-1.079 0.39c0.001 0.018 0.01 0.033 0.01 0.051a0.57 0.57 0 0 1-0.184 0.42c0.102 0.218 0.228 0.424 0.375 0.616a3.2 3.2 0 0 1 0.32-0.635l-0.295 0.239z m3.634 2.791c-0.186 0.049-0.37 0.097-0.56 0.137 0.191-0.04 0.374-0.09 0.56-0.136z m-1.089 0.235c-0.114 0.02-0.225 0.046-0.34 0.063-0.202 0.03-0.39 0.042-0.586 0.062 0.315-0.033 0.624-0.074 0.926-0.125z m-1.35 0.17c-0.11 0.008-0.215 0.007-0.324 0.012 0.11-0.007 0.214-0.003 0.324-0.012z" /></svg>