<svg xmlns="http://www.w3.org/2000/svg" width="100%" height="100%" viewBox="0 0 30.72 30.72"><path d="M7.943999999999999 24.798a12.077 12.077 0 0 0 7.349 2.495 12 12 0 0 0 7.887-2.967c-0.944 0.607-3.64 2.023-7.887 2.023-3.708 0-6.068-0.81-7.349-1.55m8.158 0.606c2.966 0 6.202-0.809 8.09-2.427 0.539-0.405 1.01-1.011 1.483-1.753 0.27-0.472 0.539-1.011 0.741-1.483-1.82 2.63-7.011 4.315-12.404 4.315-3.776 0-7.888-1.214-9.506-3.573 1.483 3.236 6 4.92 11.596 4.92m-3.236-5.257C6.7299999999999995 20.147 3.8319999999999994 17.314999999999998 3.3599999999999994 15.36c0 0.674 0.067 1.483 0.202 2.09 0.068 0.27 0.27 0.674 0.607 1.079 1.483 1.55 5.191 3.707 11.595 3.707 8.697 0 10.72-2.898 11.124-3.842 0.27-0.674 0.472-1.888 0.472-2.967v-0.674c-0.607 2.292-8.022 5.394-14.494 5.394m-8.427-9.91C4.101999999999999 10.91 3.6969999999999996 12.123 3.5619999999999994 12.729999999999999c-0.067 0.27 0 0.404 0.068 0.607 0.741 1.55 4.45 4.044 13.078 4.044 5.259 0 9.371-1.28 10.045-3.64 0.135-0.404 0.135-0.876 0-1.483-0.202-0.674-0.472-1.483-0.809-2.09 0.068 3.101-8.562 5.124-12.944 5.124-4.719 0-8.696-1.888-8.696-4.248 0.067-0.337 0.135-0.606 0.135-0.809M23.18 6.393999999999999c0.068 0.067 0.068 0.135 0.068 0.27 0 1.348-4.045 3.64-10.517 3.64-4.787 0-5.663-1.753-5.663-2.9 0-0.404 0.135-0.808 0.472-1.213-0.607 0.607-1.146 1.147-1.686 1.82-0.202 0.27-0.337 0.54-0.337 0.675 0 2.36 5.865 3.977 11.259 3.977 5.797 0 8.427-1.887 8.427-3.573 0-0.606-0.203-0.943-0.81-1.618a17.301 17.301 0 0 0-1.213-1.078m-1.753-1.281A11.794 11.794 0 0 0 15.293 3.4269999999999996C13 3.4269999999999996 10.91 4.034 9.09 5.18c-0.539 0.27-0.876 0.54-0.876 0.877 0 1.01 2.36 2.09 6.54 2.09 4.112 0 7.348-1.214 7.348-2.36 0.067-0.202-0.203-0.405-0.675-0.674" /></svg>