<svg xmlns="http://www.w3.org/2000/svg" width="100%" height="100%" viewBox="0 0 30.72 30.72"><path d="M15.36 4.965999999999999L3.3599999999999994 25.753999999999998c1.45 0 0.832-0.885 1.565-0.93 0.703 0 0.559 0.44 1.044 0.44 0.846 0 0.273-2.82 1.043-2.82 0.665 0 0.48 2.038 1.044 2.038 0.288 0 0.521-0.811 0.521-1.81v-0.945c0-1.304 0.234-2.364 0.522-2.364 0.288 0 0.522 1.066 0.522 2.005 0 1.178 0.233 2.43 0.522 2.43 0.288 0 0.521-1.263 0.521-2.805v-0.44c0-1.69 0.234-3.065 0.522-3.065 0.288 0 0.522 1.369 0.522 2.967 0 1.661 0.233 3.098 0.522 3.098 0.288 0 0.521-1.437 0.521-3.18 0-1.737 0.234-3.146 0.522-3.146 0.288 0 0.522 1.424 0.522 3.277 0 1.786 0.233 3.147 0.522 3.147 0.288 0 0.521-1.367 0.521-2.87 0-1.386 0.234-2.657 0.522-2.657 0.288 0 0.522 1.271 0.522 2.837v0.472c0 1.415 0.233 2.56 0.521 2.56 0.289 0 0.522-1.152 0.522-2.299 0-0.973 0.234-1.989 0.522-1.989 0.288 0 0.522 1.01 0.522 2.25v0.57c0 1.058 0.233 1.908 0.521 1.908 0.289 0 0.522-0.84 0.522-1.614 0-0.589 0.234-1.304 0.522-1.304 0.288 0 0.522 0.709 0.522 1.581v0.538c0 0.696 0.233 1.272 0.521 1.272 0.595 0 0.45-1.728 1.044-1.728 0.288 0 0.522 0.43 0.522 0.962v0.456c0 0.385 0.233 0.685 0.521 0.685 0.59 0 0.462-0.782 1.044-0.782 0.76 0 0.197 1.076 1.043 1.076 0.512 0 0.426-0.18 1.044-0.18 0.563 0 0.493 0.359 1.565 0.359z" /></svg>