<svg xmlns="http://www.w3.org/2000/svg" width="100%" height="100%" viewBox="0 0 30.72 30.72"><path d="M14.798 26.826999999999998c-0.517-0.638-1.106-1.89-1.217-2.587l-0.082-0.511h1.835c1.435 0 1.835 0.036 1.835 0.165 0 0.352-0.412 1.553-0.709 2.066-0.333 0.577-1.021 1.41-1.155 1.4-0.043-0.004-0.272-0.244-0.507-0.533z m-4.532-4.193c-1.251-3.005-1.231-6.784 0.056-10.63 0.786-2.35 2.652-5.689 4.413-7.9L15.327 3.3599999999999994l0.422 0.493c0.763 0.893 2.612 3.731 3.28 5.036 1.32 2.578 2.055 4.993 2.264 7.438 0.197 2.302-0.176 4.837-0.962 6.533l-0.338 0.731-0.727-0.433-0.727-0.433H15.309999999999999c-2.466 0-3.287 0.039-3.476 0.166-0.136 0.091-0.453 0.29-0.705 0.441l-0.458 0.276-0.405-0.974z m9.338-1.79c0.779-2.623 0.532-6.253-0.635-9.344-0.683-1.81-2.085-4.319-3.211-5.747-0.357-0.452-0.387-0.466-0.609-0.265-0.441 0.398-1.854 2.622-2.544 4.002-1.927 3.856-2.484 7.995-1.521 11.308l0.196 0.672h8.138l0.186-0.626zM6.670999999999999 23.195c0.037-0.155 0.108-0.565 0.157-0.909 0.079-0.549 0.189-0.729 0.885-1.443l0.795-0.815 0.002 0.507c0.003 0.641 0.302 1.799 0.631 2.445l0.254 0.498H7.999999999999999c-1.384-0.001-1.396-0.003-1.329-0.283z m14.944-0.376c0.271-0.613 0.529-1.616 0.606-2.352 0.031-0.299 0.066-0.282 0.762 0.379s0.738 0.735 0.908 1.631c0.098 0.516 0.179 0.952 0.179 0.97 0 0.017-0.618 0.031-1.373 0.031h-1.373l0.291-0.659z m-6.477-4.504a2.173 2.173 0 0 1-2.17-2.17c0-1.196 0.973-2.17 2.17-2.17s2.17 0.973 2.17 2.17-0.973 2.17-2.17 2.17z m0-3.865c-0.935 0-1.696 0.761-1.696 1.695s0.761 1.696 1.696 1.696c0.935 0 1.696-0.761 1.696-1.696s-0.761-1.695-1.696-1.695zM12.815 12.817a0.657 0.657 0 1 1 0 1.314 0.657 0.657 0 0 1 0-1.314z m-0.357 4.665a0.8 0.8 0 1 1 0 1.6 0.8 0.8 0 0 1 0-1.6z m5.212-5.18a1.069 1.069 0 1 1 0 2.138 1.069 1.069 0 0 1 0-2.138z m0 5.75a1.418 1.418 0 1 1 0 2.836 1.418 1.418 0 0 1 0-2.836zM12.806999999999999 14.04l0.491-0.491 0.729 0.729-0.491 0.491-0.729-0.729z m4.066-0.336l0.539 0.539-0.729 0.729-0.539-0.539 0.729-0.729z m-3.572 3.362l0.491 0.491-0.729 0.729-0.491-0.491 0.729-0.729z m2.721 1.064l0.61-0.59 0.779 0.754-0.61 0.59-0.779-0.754z m-1.717-2.167a0.277 0.277 0 1 1 0 0.554 0.277 0.277 0 0 1 0-0.554z m0.794 0a0.277 0.277 0 1 1 0 0.554 0.277 0.277 0 0 1 0-0.554z m0.794 0a0.277 0.277 0 1 1 0 0.554 0.277 0.277 0 0 1 0-0.554z" /></svg>