<svg xmlns="http://www.w3.org/2000/svg" width="100%" height="100%" viewBox="0 0 30.72 30.72"><path d="M3.3599999999999994 3.603999999999999h3.264c1.377 0 1.942 0.563 2.499 1.116 0.637 0.58 2.57 3.196 6.657 8.303H11.357c-1.809 0-2.38-0.308-3.08-1.375z m10.424 17.072l-2.427-4.013c-0.292-0.455-0.372-0.854-0.372-1.318 0-0.51 0.217-0.79 1.053-1.233 0.973-0.466 2.933-0.67 4.954-0.67 3.283 0 4.07 1.055 4.405 2.192 0 0-0.464-0.185-1.554-0.185-3.459 0-6.223 1.68-6.223 4.221 0 0.534 0.164 1.006 0.164 1.006z m4.936-3.417c-2.547 0.089-5.032 1.869-4.936 3.416l2.7 4.486c0.836 1.344 2.215 1.955 3.932 1.955H27.36l-8.13-9.852a5.55 5.55 0 0 0-0.51-0.005Z" /></svg>