<svg xmlns="http://www.w3.org/2000/svg" width="100%" height="100%" viewBox="0 0 30.72 30.72"><path d="M13.889999999999999 14.09c-0.1-0.31-0.19-0.61-0.29-0.92-0.1-0.31-0.19-0.6-0.27-0.89-0.08-0.28-0.15-0.54-0.22-0.78h-0.02c-0.09 0.43-0.2 0.86-0.34 1.29-0.15 0.48-0.3 0.98-0.46 1.48-0.14 0.51-0.29 0.98-0.44 1.4h2.54c-0.06-0.211-0.14-0.46-0.23-0.721-0.09-0.269-0.18-0.559-0.27-0.859zM23.11 3.6599999999999993H7.609999999999999C5.26 3.6599999999999993 3.3599999999999994 5.56 3.3599999999999994 7.909999999999999v14.9c0 2.35 1.9 4.25 4.25 4.25h15.5c2.35 0 4.25-1.9 4.25-4.25V7.909999999999999C27.36 5.56 25.46 3.6599999999999993 23.11 3.6599999999999993zM18.06 20.189999999999998h-2.091c-0.069 0.01-0.139-0.04-0.159-0.11l-0.82-2.38H11.27l-0.76 2.35c-0.02 0.09-0.1 0.15-0.19 0.141H8.44c-0.11 0-0.14-0.061-0.11-0.18L11.549999999999999 10.739999999999998c0.03-0.1 0.06-0.21 0.1-0.33 0.04-0.21 0.06-0.43 0.06-0.65-0.01-0.05 0.03-0.1 0.08-0.11h2.59c0.08 0 0.12 0.03 0.13 0.08l3.65 10.3c0.03 0.109 0 0.16-0.1 0.16z m3.4-0.15c0 0.11-0.039 0.16-0.129 0.16H19.37c-0.1 0-0.15-0.061-0.15-0.16v-7.7c0-0.1 0.041-0.14 0.131-0.14h1.98c0.09 0 0.129 0.05 0.129 0.14v7.7z m-0.209-9.03c-0.231 0.24-0.571 0.37-0.911 0.35-0.33 0.01-0.65-0.12-0.891-0.35-0.23-0.25-0.35-0.58-0.34-0.92-0.01-0.34 0.12-0.66 0.359-0.89 0.242-0.23 0.562-0.35 0.892-0.35 0.391 0 0.689 0.12 0.91 0.35 0.22 0.24 0.34 0.56 0.33 0.89 0.01 0.34-0.11 0.67-0.349 0.92z" /></svg>