<svg xmlns="http://www.w3.org/2000/svg" width="100%" height="100%" viewBox="0 0 30.72 30.72"><path d="M5.51 7.677999999999999a42.16 42.16 0 0 0-0.454 0.003c-0.15 0.005-0.303 0.013-0.452 0.04a1.44 1.44 0 0 0-1.06 0.772c-0.07 0.138-0.114 0.278-0.14 0.43-0.028 0.148-0.037 0.3-0.04 0.45A10.2 10.2 0 0 0 3.3599999999999994 9.582v11.557c0 0.07 0.002 0.138 0.003 0.207 0.004 0.15 0.013 0.303 0.04 0.452 0.027 0.15 0.072 0.291 0.142 0.429a1.436 1.436 0 0 0 0.63 0.63c0.138 0.07 0.278 0.115 0.43 0.142 0.148 0.027 0.3 0.036 0.45 0.04l0.208 0.003h20.194l0.207-0.003c0.15-0.004 0.303-0.013 0.452-0.04 0.15-0.027 0.291-0.071 0.428-0.141a1.432 1.432 0 0 0 0.631-0.631c0.07-0.138 0.115-0.278 0.141-0.43 0.027-0.148 0.036-0.3 0.04-0.45 0.002-0.07 0.003-0.138 0.003-0.208l0.001-0.246V9.581c0-0.07-0.002-0.138-0.004-0.207a2.995 2.995 0 0 0-0.04-0.452 1.446 1.446 0 0 0-1.2-1.201 3.022 3.022 0 0 0-0.452-0.04 10.448 10.448 0 0 0-0.453-0.003z m0 0.512h19.942c0.066 0 0.131 0.002 0.197 0.003 0.115 0.004 0.25 0.01 0.375 0.032 0.109 0.02 0.2 0.05 0.287 0.094a0.927 0.927 0 0 1 0.407 0.407 0.997 0.997 0 0 1 0.094 0.288c0.022 0.123 0.028 0.258 0.031 0.374 0.002 0.065 0.003 0.13 0.003 0.197v11.552c0 0.065 0 0.13-0.003 0.196-0.003 0.115-0.009 0.25-0.032 0.375a0.927 0.927 0 0 1-0.5 0.693 1.002 1.002 0 0 1-0.286 0.094 2.598 2.598 0 0 1-0.373 0.032l-0.2 0.003H5.265999999999999c-0.066 0-0.133-0.002-0.196-0.003a2.61 2.61 0 0 1-0.375-0.032c-0.109-0.02-0.2-0.05-0.288-0.094a0.918 0.918 0 0 1-0.406-0.407 1.006 1.006 0 0 1-0.094-0.288 2.531 2.531 0 0 1-0.032-0.373 9.588 9.588 0 0 1-0.002-0.197V9.584c0-0.065 0-0.131 0.002-0.197 0.004-0.114 0.01-0.248 0.032-0.375 0.02-0.108 0.05-0.199 0.094-0.287a0.925 0.925 0 0 1 0.407-0.406 1.03 1.03 0 0 1 0.287-0.094c0.125-0.022 0.26-0.029 0.375-0.032 0.065-0.002 0.131-0.002 0.196-0.003z m4.71 3.7c-0.3 0.016-0.668 0.199-0.88 0.456-0.191 0.22-0.36 0.58-0.316 0.918 0.338 0.03 0.675-0.169 0.888-0.418 0.205-0.258 0.345-0.603 0.308-0.955z m2.207 0.42v5.493h0.852v-1.877h1.18c1.078 0 1.835-0.739 1.835-1.812 0-1.07-0.742-1.805-1.808-1.805z m0.852 0.719h0.982c0.739 0 1.161 0.396 1.161 1.089 0 0.692-0.422 1.092-1.164 1.092h-0.979z m-3.154 0.3c-0.45 0.01-0.83 0.28-1.05 0.28-0.235 0-0.593-0.264-0.981-0.257a1.446 1.446 0 0 0-1.23 0.747c-0.527 0.908-0.139 2.255 0.374 2.995 0.249 0.366 0.549 0.769 0.944 0.754 0.373-0.014 0.52-0.242 0.973-0.242 0.454 0 0.586 0.242 0.98 0.235 0.41-0.007 0.667-0.366 0.915-0.733 0.286-0.417 0.403-0.82 0.41-0.841-0.007-0.008-0.79-0.308-0.797-1.209-0.008-0.754 0.615-1.113 0.644-1.135-0.352-0.52-0.9-0.578-1.09-0.593a1.123 1.123 0 0 0-0.092-0.002z m8.204 0.397c-0.99 0-1.606 0.533-1.652 1.256h0.777c0.072-0.358 0.369-0.586 0.845-0.586 0.502 0 0.803 0.266 0.803 0.711v0.309l-1.097 0.064c-0.951 0.054-1.488 0.484-1.488 1.184 0 0.72 0.548 1.207 1.332 1.207 0.526 0 1.032-0.281 1.264-0.727h0.019v0.659h0.788v-2.76c0-0.803-0.62-1.317-1.591-1.317z m1.94 0.072l1.446 4.009c0 0.003-0.073 0.24-0.073 0.247-0.125 0.41-0.33 0.571-0.711 0.571-0.069 0-0.206 0-0.267-0.015v0.666c0.06 0.011 0.267 0.019 0.335 0.019 0.83 0 1.226-0.312 1.568-1.283l1.5-4.214h-0.868l-1.012 3.259h-0.015l-1.013-3.26z m-1.167 2.189v0.316c0 0.521-0.45 0.917-1.024 0.917-0.442 0-0.731-0.228-0.731-0.579 0-0.342 0.278-0.56 0.769-0.593z" /></svg>