<svg xmlns="http://www.w3.org/2000/svg" width="100%" height="100%" viewBox="0 0 30.72 30.72"><path d="M14.421999999999999 14.654c0 0.74-0.389 1.162-0.993 1.305-0.007 0 0.967 1.53 0.967 1.53h-1.18L11.79 15.213h1.006c0.435 0 0.597-0.24 0.597-0.532 0-0.285-0.156-0.532-0.59-0.532H11.626v3.342H10.588V13.227h2.206c1.096 0 1.628 0.616 1.628 1.427M8.85 17.490000000000002h1.038V13.227H8.85zM5.533999999999999 13.227L3.3599999999999994 17.490000000000002h1.168l0.352-0.714h1.75l-0.435-0.895h-0.873l0.646-1.312h0.013l1.453 2.92h1.194L6.455 13.228z m12.679 2.05c0.409 0.144 0.688 0.52 0.688 1.02 0 0.72-0.577 1.194-1.46 1.194h-2.525V13.227h2.428c0.863 0 1.376 0.461 1.376 1.148-0.001 0.428-0.176 0.72-0.507 0.902m-2.258-0.396h1.382a0.368 0.368 0 0 0 0.376-0.376 0.367 0.367 0 0 0-0.37-0.376h-1.388z m1.414 1.714a0.435 0.435 0 0 0 0.448-0.441c0-0.247-0.195-0.428-0.448-0.428h-1.414v0.869h1.414m4.808-0.986c0 0.647-0.298 1.006-0.89 1.006-0.583 0-0.881-0.36-0.881-1.006V13.227h-1.064v2.304c0 1.317 0.694 2.05 1.946 2.05s1.953-0.733 1.953-2.05V13.227h-1.064z m3.834-0.689c-0.985-0.24-1.2-0.263-1.2-0.545 0-0.218 0.246-0.324 0.662-0.324 0.55 0 1.139 0.138 1.473 0.344l0.331-0.869c-0.428-0.227-1.058-0.389-1.791-0.389-1.097 0-1.713 0.545-1.713 1.278 0 0.79 0.46 1.11 1.518 1.338 0.824 0.182 0.999 0.295 0.999 0.526 0 0.25-0.227 0.363-0.675 0.363a3.565 3.565 0 0 1-1.706-0.415l-0.318 0.908c0.513 0.273 1.278 0.448 2.05 0.448 1.077 0 1.719-0.5 1.719-1.337 0.001-0.673-0.433-1.105-1.35-1.326" /></svg>