<svg xmlns="http://www.w3.org/2000/svg" width="100%" height="100%" viewBox="0 0 30.72 30.72"><path d="M18.142 6.513c-0.231 0.02-0.472 0.04-0.703 0.07a8.453 8.453 0 0 0-2.832 0.834 8.951 8.951 0 0 0-2.46 1.777c-0.03 0.04-0.09 0.06-0.141 0.05a7.44 7.44 0 0 0-1.496-0.07 7.424 7.424 0 0 0-2.932 0.763c-1.768 0.884-3.013 2.26-3.736 4.108a7.089 7.089 0 0 0-0.462 2.139c0 0.05-0.01 0.09-0.02 0.13v0.773c0.02 0.201 0.05 0.392 0.07 0.593 0.1 0.813 0.332 1.596 0.703 2.33 0.824 1.646 2.089 2.851 3.786 3.594a7.127 7.127 0 0 0 2.45 0.593c0.032 0 0.06 0.004 0.086 0.01h8.576c0.183-0.017 0.362-0.035 0.547-0.06a8.344 8.344 0 0 0 2.811-0.834 8.836 8.836 0 0 0 3.646-3.304 8.187 8.187 0 0 0 1.184-3.093c0.05-0.34 0.08-0.692 0.121-1.034 0-0.05 0.01-0.09 0.02-0.13v-0.794c-0.02-0.23-0.05-0.452-0.05-0.662a8.345 8.345 0 0 0-0.834-2.812 8.952 8.952 0 0 0-3.324-3.645 8.245 8.245 0 0 0-3.072-1.175c-0.362-0.06-0.713-0.09-1.075-0.13-0.05 0-0.09-0.01-0.14-0.02z m0.369 1.693c2.126 0.005 3.93 0.826 5.395 2.455a6.93 6.93 0 0 1 1.616 3.323c0.15 0.764 0.181 1.547 0.07 2.32-0.19 1.346-0.702 2.55-1.576 3.605a7.082 7.082 0 0 1-3.997 2.45 7.297 7.297 0 0 1-2.56 0.1c-1.095-0.14-2.099-0.501-3.003-1.154a5.2 5.2 0 0 1-0.672-0.573c-1.226-1.205-2.44-2.42-3.666-3.625-0.301-0.3-0.321-0.632-0.18-0.934a0.822 0.822 0 0 1 0.863-0.472c0.21 0.02 0.372 0.141 0.522 0.292 1.105 1.114 2.2 2.209 3.304 3.324a5.263 5.263 0 0 0 3.093 1.536c1.948 0.261 3.605-0.341 4.92-1.798 0.713-0.793 1.145-1.747 1.326-2.811 0.26-1.587-0.11-3.013-1.095-4.268-0.873-1.115-2.018-1.808-3.404-2.059-1.416-0.25-2.751 0.02-3.966 0.794-0.03 0.02-0.1 0.03-0.131 0.01a9.04 9.04 0 0 0-1.406-0.854s-0.01-0.01-0.02-0.03a6.603 6.603 0 0 1 1.255-0.823 6.646 6.646 0 0 1 2.641-0.784 8.45 8.45 0 0 1 0.67-0.024zM10.905999999999999 10.869c1.455-0.024 2.791 0.525 3.982 1.63 0.854 0.802 1.637 1.636 2.46 2.47 0.231 0.23 0.281 0.522 0.171 0.833-0.11 0.311-0.362 0.462-0.683 0.512a0.722 0.722 0 0 1-0.632-0.23c-0.784-0.784-1.567-1.557-2.34-2.35-0.633-0.653-1.386-1.025-2.27-1.186-1.958-0.351-3.936 0.784-4.639 2.641-0.904 2.36 0.522 5.031 2.982 5.594 0.482 0.11 0.995 0.11 1.497 0.1 0.14-0.01 0.22 0.04 0.32 0.13 0.483 0.473 0.995 0.945 1.497 1.416 0.03 0.03 0.07 0.06 0.1 0.09-0.06 0-0.1 0.01-0.14 0.01h-2.3a5.833 5.833 0 0 1-5.693-4.568c-0.653-2.942 1.034-5.925 3.926-6.798a6.33 6.33 0 0 1 1.762-0.294Z" /></svg>