<svg xmlns="http://www.w3.org/2000/svg" width="100%" height="100%" viewBox="0 0 30.72 30.72"><path d="M12.1686 18.2794l6.1107-11.0368c0.0837-0.1513 0.1682-0.302 0.2437-0.4584 0.0685-0.142 0.1267-0.2854 0.1646-0.4403 0.0803-0.3259 0.0588-0.6656-0.066-0.9767-0.1238-0.3095-0.3417-0.5678-0.6201-0.7355a1.4175 1.4175 0 0 0-0.921-0.1924c-0.3207 0.043-0.6135 0.1935-0.8443 0.4288-0.1094 0.1118-0.1996 0.2361-0.2832 0.369-0.092 0.1463-0.175 0.2979-0.259 0.4492l-0.3864 0.6979-0.3865-0.6979c-0.0837-0.1515-0.1667-0.303-0.2587-0.4492-0.0837-0.1329-0.1739-0.2572-0.2835-0.369-0.2305-0.2353-0.5233-0.3857-0.844-0.429a1.4181 1.4181 0 0 0-0.921 0.1926c-0.2784 0.1677-0.4964 0.426-0.6203 0.7355-0.1246 0.311-0.1461 0.6508-0.066 0.9767 0.038 0.155 0.0962 0.2984 0.1648 0.4403 0.0753 0.1564 0.1598 0.307 0.2437 0.4584l1.248 2.2543-4.8625 8.7825H5.3895c-0.1676 0-0.3351-0.0007-0.5026 0.0092-0.1522 0.009-0.3004 0.0284-0.448 0.0714-0.3108 0.0906-0.5822 0.2798-0.7783 0.548-0.195 0.2665-0.3006 0.5929-0.3006 0.9279 0 0.3352 0.1057 0.6612 0.3006 0.9277 0.196 0.2683 0.4675 0.4575 0.7782 0.548 0.1477 0.043 0.296 0.0623 0.4481 0.0715 0.1675 0.01 0.335 0.009 0.5026 0.009h13.0974c0.0171-0.0357 0.059-0.1294 0.1-0.2697 0.415-1.4151-0.6156-2.843-2.0347-2.843zM6.472999999999999 21.901799999999998l-0.7922 1.5008c-0.0818 0.1553-0.1644 0.31-0.2384 0.4705-0.067 0.1458-0.124 0.293-0.1611 0.452-0.0785 0.3346-0.0576 0.6834 0.0645 1.0029 0.1212 0.3175 0.3346 0.583 0.607 0.7549 0.2727 0.172 0.5891 0.2416 0.9013 0.1975 0.3139-0.044 0.6005-0.1986 0.8263-0.4402 0.1072-0.1148 0.1954-0.2424 0.2772-0.3787 0.0902-0.1503 0.1714-0.3059 0.2535-0.4612L9.36 22.8236c-0.0896-0.149-0.9473-1.4704-2.887-0.9218m20.5861-3.0056a1.4707 1.4707 0 0 0-0.779-0.5407c-0.1476-0.0425-0.2961-0.0616-0.4483-0.0705-0.1678-0.0099-0.3352-0.0091-0.503-0.0091H22.008l-4.3891-7.817c-0.6655 0.7005-0.9632 1.485-1.0773 2.1976-0.1655 1.0333 0.0367 2.0934 0.546 3.0004l5.2741 9.3933c0.084 0.1494 0.167 0.299 0.2591 0.4435 0.0837 0.131 0.1739 0.2537 0.2836 0.364 0.231 0.2323 0.5238 0.3809 0.8449 0.4232 0.3192 0.0424 0.643-0.0244 0.9217-0.1899 0.2784-0.1653 0.4968-0.4204 0.621-0.7257 0.1246-0.3072 0.146-0.6425 0.0658-0.9641-0.0381-0.1529-0.0962-0.2945-0.165-0.4346-0.0753-0.1543-0.1598-0.303-0.2438-0.4524l-1.216-2.1662h1.596c0.1677 0 0.3351 0.0009 0.5029-0.009 0.1522-0.009 0.3007-0.028 0.4483-0.0705a1.4707 1.4707 0 0 0 0.779-0.5407A1.5386 1.5386 0 0 0 27.36 19.812a1.539 1.539 0 0 0-0.3009-0.9158Z" /></svg>