<svg xmlns="http://www.w3.org/2000/svg" width="100%" height="100%" viewBox="0 0 30.72 30.72"><path d="M15.267999999999999 3.5429999999999993a12.012 12.012 0 0 0-8.044 3.172c-4.882 4.475-5.166 12.08-0.692 16.962 0.204 0.244 0.448 0.447 0.692 0.692a0.315 0.315 0 0 0 0.408-0.04l0.53-0.61a0.32 0.32 0 0 0 0-0.448C3.8899999999999997 19.325 3.6029999999999993 12.613 7.59 8.341999999999999 11.577 4.071 18.249 3.7869999999999995 22.52 7.773999999999999c4.271 3.986 4.555 10.655 0.568 14.927-0.203 0.203-0.365 0.407-0.568 0.57a0.32 0.32 0 0 0 0 0.447l0.53 0.611a0.37 0.37 0 0 0 0.446 0.04c4.882-4.516 5.166-12.081 0.692-16.962a11.98 11.98 0 0 0-8.92-3.864z m0.387 3.518A8.607 8.607 0 0 0 9.503 9.36c-3.458 3.213-3.66 8.623-0.447 12.08 0.122 0.123 0.243 0.285 0.406 0.407a0.319 0.319 0 0 0 0.447 0l0.53-0.61a0.32 0.32 0 0 0 0-0.446A7.263 7.263 0 0 1 8.16 15.543c0-3.946 3.212-7.16 7.158-7.16s7.16 3.253 7.16 7.199a7.207 7.207 0 0 1-2.238 5.209 0.319 0.319 0 0 0 0 0.447l0.529 0.61c0.122 0.121 0.325 0.162 0.447 0.04a8.599 8.599 0 0 0 0.408-12.122 8.494 8.494 0 0 0-5.97-2.705z m-0.266 3.316A5.198 5.198 0 0 0 11.7 11.84c-2.075 1.993-2.115 5.247-0.122 7.322l0.121 0.123a0.319 0.319 0 0 0 0.447 0l0.53-0.611a0.32 0.32 0 0 0 0-0.448 3.814 3.814 0 0 1-1.098-2.683 3.732 3.732 0 0 1 3.742-3.742 3.732 3.732 0 0 1 3.742 3.742c0 1.017-0.406 1.951-1.139 2.683a0.32 0.32 0 0 0 0 0.448l0.53 0.61a0.32 0.32 0 0 0 0.447 0c2.034-1.992 2.116-5.246 0.123-7.321a5.128 5.128 0 0 0-3.633-1.586z m0.006 7.744a0.599 0.599 0 0 0-0.402 0.146l-0.04 0.041-7.159 8.055a0.506 0.506 0 0 0 0.041 0.69 0.437 0.437 0 0 0 0.283 0.124h14.36a0.495 0.495 0 0 0 0.489-0.488 0.463 0.463 0 0 0-0.121-0.326l-7.08-8.055a0.5 0.5 0 0 0-0.37-0.187z" /></svg>