<svg xmlns="http://www.w3.org/2000/svg" width="100%" height="100%" viewBox="0 0 30.72 30.72"><path d="M6.52 3.3599999999999994A3.156 3.156 0 0 0 3.3599999999999994 6.512v17.69A3.161 3.161 0 0 0 6.52 27.36h17.68c1.747 0 3.16-1.42 3.16-3.16V6.52C27.36 4.773 25.939999999999998 3.3599999999999994 24.2 3.3599999999999994H6.52z m7.87 3.494h2.429A1.04 1.04 0 0 1 17.86 7.895v0.822a0.14 0.14 0 0 1-0.174 0.14 7.679 7.647 0 0 0-2.043-0.276 7.564 7.5329999999999995 0 0 0-2.113 0.297c-0.095 0.021-0.182-0.045-0.182-0.14v-0.843a1.044 1.04 0 0 1 1.041-1.04z m-4.35 2.22a1.04 1.035 0 0 1 0.75 0.306l0.414 0.416c0.058 0.065 0.051 0.167-0.022 0.21a7.544 7.513 0 0 0-0.941 0.801 8 7.967 0 0 0-0.793 0.932c-0.058 0.065-0.153 0.08-0.219 0.016l-0.408-0.409a1.043 1.04 0 0 1 0-1.472l0.496-0.494a1.04 1.035 0 0 1 0.723-0.305z m5.597 0.35a6.774 6.774 0 0 1 6.787 6.778 6.784 6.784 0 0 1-6.787 6.783c-3.748 0-6.789-3.028-6.789-6.777a6.786 6.786 0 0 1 6.79-6.784z m0 2.008a4.783 4.783 0 0 0-4.783 4.776 4.783 4.783 0 0 0 4.783 4.775 4.777 4.777 0 0 0 4.784-4.775 4.782 4.782 0 0 0-4.784-4.776z m0.145 0.838a3.935 3.919 0 0 1 3.281 1.988c0.036 0.073 0.015 0.16-0.057 0.196l-3.166 1.638c-0.093 0.052-0.205-0.023-0.205-0.125V12.41h0.002c0-0.08 0.072-0.139 0.145-0.139Z" /></svg>