<svg xmlns="http://www.w3.org/2000/svg" width="100%" height="100%" viewBox="0 0 30.72 30.72"><path d="M3.6909999999999994 14.738s0.5418-0.089 0.765 0.1439c0.2234 0.2332 0.077 0.7156-0.2195 0.7237-0.2965 0.01-0.5705 0.063-0.765-0.1439-0.1946-0.2066-0.1424-0.6218 0.2195-0.7237m5.881 3.2925c-0.0522 0.01-0.1075-0.018-0.164-0.059-0.3884-0.5413-0.5287-2.3923-0.707-2.5025-0.185-0.1144-0.8545 1.0255-2.1862 0.903-0.5569-0.051-1.1236-0.4121-1.4573-0.662 0.031-0.4206 0.0364-1.4027 0.8659-1.0833 0.5038 0.1939 1.3667 0.7266 2.1245-0.23 0.8378-1.0579 1.2999-0.7506 1.577-0.5206 0.2771 0.23 0.0925 1.4259 0.5058 1.0916 0.4133-0.3343 2.082-2.4103 2.082-2.4103s1.292-1.303 1.4898 0.067c0.1979 1.3698 1.0403 2.8877 1.2635 2.8445 0.2234-0.043 2.8223-5.3253 3.1945-5.666 0.3722-0.3409 1.6252-0.2961 1.5657 0.5781-0.0596 0.8742-0.1871 6.308-0.1871 6.308s-0.147 1.5311 0.0924 0.7128c0.0992-0.3392 0.206-0.6453 0.3392-1.0024 0.6414-2.0534 1.734-5.5613 2.2784-7.3688 0.1252-0.4325 0.233-0.8037 0.3166-1.0891l0.0001-0.0008a3.5925 3.5925 0 0 1 0.0973-0.3305c0.0455-0.1532 0.0763-0.2546 0.0858-0.2813 0.0243-0.068 0.0925-0.1192 0.1884-0.157 0.0962-0.061 0.1995-0.064 0.3165-0.067 0.3021-0.027 0.6907 0.012 1.0401 0.1119 0.1018 0 0.2125 0.037 0.3172 0.1118v0.0001s0.0063 0 0.0151 0.01c0.0023 0 0.0048 0 0.0073 0.01 0.0219 0.015 0.0573 0.045 0.0983 0.095 0.0012 0 0.0025 0 0.004 0.01 0.017 0.021 0.0341 0.045 0.0515 0.073 0.1952 0.2863 0.315 0.814 0.1948 1.7498-0.2996 2.3354-0.5316 7.1397-0.5316 7.1397s-0.0461 0.2298 0.4353-0.782c0.0167-0.035 0.0383-0.066 0.058-0.098 0.026-0.017 0.0552-0.042 0.0913-0.085 0.2974-0.3546 1.0968-0.5629 1.6512-0.5586 0.2336 0.028 0.4293 0.087 0.5462 0.1609 0.2188 0.333 0.0897 1.562 0.0897 1.562-0.4612 0.043-1.3403 0.2908-1.6519 0.3366-0.3118 0.046-0.7852 2.0699-1.4433 1.8629-0.6581-0.2069-2.1246-1.1268-2.1246-1.2533 0-0.1102 0.1152-1.4546 0.1453-1.8016 0.0022-0.024 0.004-0.046 0.0058-0.068a0.152 0.152 0 0 1 0.0014-0.014l-0.0002 0.0003c0.0213-0.2733 0.0023-0.3927-0.1239-0.1199-0.1086 0.2346-0.581 1.7359-1.1078 3.3709-0.0556 0.1429-1.0511 3.1558-1.1818 3.5231-0.156 0.4261-0.287 0.7523-0.3776 0.921-0.1378 0.1867-0.3234 0.3036-0.5826 0.2252-0.6465-0.1954-1.4654-1.0889-1.473-1.3106-0.0155-1.2503 0.0608-7.973-0.2423-7.4127-0.311 0.5744-2.73 4.5608-2.73 4.5608-0.0405 0.01-0.0705 0.01-0.1062 0.01-0.1712-0.019-0.4366-0.074-0.51-0.2384-0.004-0.01-0.0094-0.018-0.0129-0.028-0.0035-0.01-0.0075-0.022-0.0135-0.04-0.0329-0.1097-0.0463-0.2289-0.0753-0.3265-0.1082-0.3652-0.2813-0.8886-0.463-1.421-0.2784-0.9079-0.5654-1.8366-0.6127-1.9391-0.0923-0.2007-0.2268-0.116-0.3475-0.0002-0.54 0.458-1.6868 2.4793-2.7225 2.5898" /></svg>