<svg xmlns="http://www.w3.org/2000/svg" width="100%" height="100%" viewBox="0 0 30.72 30.72"><path d="M10.823 18.909l-0.856 0.061c0 0.17 0.008 0.309 0.008 0.41 0.023 1.063 0.624 1.287 1.126 1.287 0.069 0 0.115-0.008 0.115-0.008h0.016l1.426-0.139c0.054-0.17 0.062-0.293 0.062-0.293s-0.193-8.983-0.24-10.116a1.215 1.215 0 0 0-0.184-0.617 92.108 92.108 0 0 1-1.35-0.108l-0.162-0.008c-0.347 0-0.609 0.093-0.778 0.27-0.255 0.27-0.232 0.687-0.232 0.687v0.015c0 0.015 0.008 0.254 0.016 0.64 0.694 0.039 1.203 0.07 1.203 0.07s0.794 0.169 0.832 0.986c0.039 0.887 0.031 5.876 0.031 5.876s0.093 0.81-1.033 0.987z m-2.737 0.193l-1.434 0.107s-1.18 0.162-1.211-1.133c-0.015-0.956-0.139-6.361-0.139-6.361s-0.085-1.003 1.134-0.918c0.362 0.023 0.91 0.054 1.495 0.093-0.015-0.895-0.03-1.673-0.038-2.275a60.468 60.468 0 0 1-2.005-0.17C4.284 8.268999999999998 4.385 9.619 4.385 9.619s0.192 9.923 0.231 11.134c0.046 1.45 1.604 1.21 1.604 1.21l1.927-0.208c-0.023-0.717-0.038-1.627-0.061-2.652zM25.249 6.802999999999999c-0.069-1.858-1.704-2.251-1.704-2.251S17.884999999999998 3.6959999999999993 15.411 3.3869999999999996c-2.483-0.308-2.329 2.09-2.329 2.09s0.563 17.518 0.625 19.685c0.07 2.583 2.475 2.174 2.475 2.174l8.528-1.472c1.55-0.309 1.627-2.244 1.627-2.244S25.334 8.823 25.249 6.802999999999999z m-1.904 14.874l-6.338 0.655s-1.843 0.278-1.89-1.958c-0.03-1.65-0.393-11.119-0.393-11.119S14.600999999999999 7.52 16.497999999999998 7.659999999999999c1.935 0.147 6.585 0.494 6.585 0.494s1.241 0.293 1.295 1.711c0.062 1.542 0.594 10.101 0.594 10.101s0.139 1.411-1.627 1.712z m-6.377 0.324l2.445-0.255c-0.116-2.49-0.548-12.16-0.61-13.563V8.16c-0.894-0.07-1.742-0.13-2.336-0.177-0.062-0.008-0.131-0.008-0.193-0.008-0.408 0-0.717 0.108-0.917 0.324-0.34 0.355-0.3 0.91-0.3 0.918v0.007c0 0.008 0 0.062 0.007 0.147 0.994 0.085 1.742 0.154 1.742 0.154s1.072 0.239 1.118 1.403c0.047 1.265 0.355 8.112 0.355 8.112s0.123 1.156-1.403 1.403l-1.419 0.139c0.1 1.164 0.779 1.419 1.35 1.419 0.084 0 0.138-0.008 0.138-0.008 0.016 0.008 0.023 0.008 0.023 0.008z m-3.732-1.195l-1.974 0.185s-1.596 0.23-1.626-1.604c-0.024-1.357-0.186-9.03-0.186-9.03S9.343 8.94 10.977 9.056c0.478 0.03 1.164 0.092 1.89 0.146-0.047-1.457-0.086-2.621-0.101-3.23-0.956-0.093-1.874-0.186-2.537-0.263-2.159-0.246-2.028 1.666-2.028 1.666s0.255 14.08 0.309 15.806c0.061 2.06 2.159 1.728 2.159 1.728l2.683-0.34a691.29 691.29 0 0 0-0.116-3.762Z" /></svg>