<svg xmlns="http://www.w3.org/2000/svg" width="100%" height="100%" viewBox="0 0 30.72 30.72"><path d="M21.777 13.242999999999999c-0.687 1.116-1.823 1.722-2.99 1.855-4.227 0.484-6.047-4.149-3.469-6.728 2.31-2.31 7.082-0.9 7.005 2.899-0.011 0.611-0.166 1.357-0.546 1.974z m-6.459-2.029c0.142 3.596 4.764 3.682 5.687 1.054 0.815-2.324-1.12-4.199-3.19-3.897-1.523 0.221-2.553 1.411-2.497 2.843zM26.483 9.363c0.284-0.131 0.697-0.412 0.837-0.246 0.211 0.251-0.459 0.475-0.748 0.664-0.918 0.6-1.731 1.227-2.477 2.049-0.959 1.059-1.944 2.376-2.55 3.818 0.618 0.032 3.021 0.157 3.6 1.481 0.464 1.062-0.387 2.156-1.32 2.627 0.663 0.414 1.81 0.945 1.745 1.898-0.158 2.343-3.696 2.241-5.178 0.695-0.244-0.289-0.358-0.482-0.25-0.578 0.151-0.134 0.326 0.186 0.676 0.476 0.225 0.187 0.377 0.251 0.572 0.354 1.301 0.683 3.339 0.403 3.478-0.792 0.064-0.554-0.664-0.955-1.217-1.204-0.498-0.224-1.514-0.386-1.494-0.952 0.02-0.554 0.524-0.45 1.03-0.65 0.55-0.217 1.004-0.901 1.003-1.116-0.005-0.905-2.062-0.888-3.221-0.92-0.275 0.606-0.471 1.226-0.692 2.158-0.139 0.583-0.151 1.897-0.748 2.029-0.737 0.164-1.014-0.477-1.455-0.991-0.594-0.69-1.436-1.637-1.942-2.223-3.033 1.002-5.392 2.091-8.256 3.712-1.311 0.742-2.063 1.59-2.545 1.354-0.396-0.194-0.339-0.633-0.147-0.887 0.393-0.521 0.927-1.225 1.396-1.888 0.6-0.849 1.054-1.667 1.373-2.445 0.692-1.688 1.23-4.72 1.475-5.859 0.088-0.412 0.309-0.348 0.322-0.148 0.027 0.419-0.237 2.047-0.29 2.383-0.436 2.781-0.772 4.41-2.009 6.349 2.196-1.358 4.805-3.019 7.592-3.955C12.206 13.296 9.207 10.209999999999999 5.036 8.265 4.396999999999999 7.901999999999999 3.3599999999999994 7.824 3.3599999999999994 7.579999999999999c0-0.271 0.781-0.06 1.043 0.007 2.383 0.596 4.817 2.141 6.601 3.444 2.145 1.567 4.714 3.967 5.679 5.081 0.657-0.226 2.286-0.457 3.696-0.496 0.752-1.58 2.55-4.018 4.788-5.442 0.413-0.263 0.842-0.594 1.316-0.811z m-8.594 8.071c0.423 0.428 0.742 0.934 1.11 1.398 0.174-0.59 0.405-1.216 0.643-1.758-0.619 0.082-1.281 0.203-1.753 0.36z" /></svg>