<svg xmlns="http://www.w3.org/2000/svg" width="100%" height="100%" viewBox="0 0 30.72 30.72"><path d="M21.165 5.5569999999999995v0.066h0.156v0.44h0.072v-0.44h0.156v-0.066z m0.9 0l-0.175 0.353-0.172-0.353h-0.087v0.506h0.067V5.659999999999999l0.172 0.35h0.045l0.172-0.35v0.404h0.066v-0.506z m-4.257 1c-0.204 0.31-0.424 0.66-0.66 1.06l-0.04 0.062a44.457 44.457 0 0 0-1.265 2.29c-0.187 0.36-0.38 0.742-0.577 1.146l2.267-0.25c0.66-0.302 0.955-0.578 1.242-0.976a15.5 15.5 0 0 0 0.23-0.342c0.23-0.363 0.46-0.763 0.663-1.16 0.197-0.386 0.37-0.767 0.505-1.11 0.083-0.22 0.15-0.422 0.198-0.6 0.042-0.158 0.074-0.307 0.1-0.45-0.884 0.15-1.965 0.295-2.668 0.33zM15.254 11.14l-0.077 0.16c-0.078 0.16-0.157 0.32-0.236 0.488-0.086 0.18-0.172 0.364-0.26 0.552l-0.132 0.287a75.265 75.265 0 0 0-1.427 3.3c-0.163 0.397-0.327 0.807-0.493 1.23-0.15 0.38-0.297 0.765-0.45 1.164l-0.02 0.06c-0.15 0.396-0.3 0.802-0.453 1.22l-0.01 0.027 0.72-0.08a0.213 0.213 0 0 1-0.042-0.006c0.863-0.106 2.01-0.75 2.75-1.547 0.342-0.367 0.652-0.8 0.94-1.306 0.213-0.377 0.413-0.795 0.604-1.258 0.168-0.405 0.328-0.843 0.48-1.318-0.196 0.105-0.423 0.18-0.673 0.235a2.184 2.184 0 0 1-0.273 0.046c0.806-0.31 1.314-0.905 1.683-1.64a2.816 2.816 0 0 1-0.968 0.428c-0.06 0.012-0.116 0.022-0.174 0.03l-0.043 0.006h0.002c0.278-0.118 0.514-0.248 0.718-0.403a2.571 2.571 0 0 0 0.637-0.698l0.063-0.104 0.077-0.154a8.107 8.107 0 0 0 0.367-0.85l0.03-0.088a3.04 3.04 0 0 0 0.123-0.463 0.733 0.733 0 0 1-0.094 0.065c-0.243 0.145-0.66 0.277-0.996 0.34l0.663-0.074-0.664 0.073h-0.017l-0.1 0.017c0.006-0.003 0.01-0.006 0.017-0.008l-2.265 0.25-0.013 0.022zM11.629999999999999 19.81c-0.117 0.323-0.236 0.654-0.355 0.992l-0.005 0.015c-0.016 0.046-0.032 0.094-0.05 0.142-0.08 0.227-0.15 0.432-0.31 0.9 0.264 0.12 0.475 0.435 0.675 0.793a1.44 1.44 0 0 0-0.466-0.99c1.293 0.06 2.41-0.27 2.99-1.217 0.05-0.084 0.096-0.173 0.14-0.268-0.26 0.333-0.59 0.474-1.2 0.44 0 0-0.004 0-0.005 0.002l0.004-0.002c0.9-0.404 1.354-0.79 1.754-1.433 0.094-0.153 0.186-0.32 0.28-0.503-0.788 0.81-1.702 1.04-2.664 0.865l-0.72 0.078a6.43 6.43 0 0 0-0.067 0.183zM18.78 3.4719999999999995c-0.376 0.222-1 0.85-1.748 1.763l0.686 1.294c0.48-0.687 0.97-1.307 1.462-1.836l0.058-0.062c-0.02 0.02-0.04 0.04-0.057 0.062-0.16 0.176-0.644 0.74-1.375 1.863 0.703-0.035 1.784-0.18 2.666-0.33 0.262-1.47-0.258-2.142-0.258-2.142s-0.66-1.07-1.436-0.61z m-3.084 6.402a40.253 40.253 0 0 1 1.306-2.26l0.04-0.064c0.224-0.352 0.45-0.693 0.677-1.02l-0.685-1.293-0.157 0.192c-0.197 0.245-0.403 0.51-0.613 0.79a39.853 39.853 0 0 0-2.016 2.97l-0.022 0.038 0.893 1.763c0.19-0.378 0.38-0.752 0.575-1.118z m-3.73 8.32c0.158-0.406 0.319-0.81 0.483-1.225 0.156-0.394 0.32-0.79 0.484-1.19a91.133 91.133 0 0 1 1.6-3.604l0.205-0.424c0.12-0.243 0.237-0.485 0.36-0.724a0.125 0.125 0 0 1 0.02-0.04l-0.895-1.763-0.044 0.07c-0.207 0.34-0.414 0.687-0.617 1.042a38.056 38.056 0 0 0-1.092 2.04l-0.094 0.193a24.573 24.573 0 0 0-1.258 3.087 18.492 18.492 0 0 0-0.52 1.997l0.896 1.77c0.117-0.317 0.24-0.638 0.364-0.963z m-1.376-0.476a13.38 13.38 0 0 0-0.234 1.692c0 0.02-0.004 0.04-0.005 0.06-0.28-0.45-1.03-0.888-1.026-0.884 0.537 0.778 0.944 1.55 1.005 2.31-0.29 0.058-0.684-0.027-1.14-0.195 0.475 0.436 0.83 0.556 0.97 0.588-0.434 0.03-0.89 0.328-1.346 0.67 0.668-0.27 1.21-0.38 1.596-0.29-0.61 1.74-1.23 3.655-1.843 5.69a0.538 0.538 0 0 0 0.364-0.354c0.11-0.368 0.84-2.786 1.978-5.965l0.097-0.27 0.028-0.078c0.12-0.332 0.246-0.672 0.374-1.02l0.09-0.237v-0.004L10.6 17.66c-0.003 0.02-0.01 0.04-0.012 0.06z" /></svg>