<svg xmlns="http://www.w3.org/2000/svg" width="100%" height="100%" viewBox="0 0 30.72 30.72"><path d="M27.36 12.285h-5.866c-1.586-3.041-3.262-5.402-5.544-5.402-2.97 0-4.367 2.593-5.717 5.115l-0.118 0.22H3.3599999999999994v1.5h3.934c1.39 0 1.673 0.468 1.673 0.468-1.09 1.691-2.4 3.363-4.584 3.363H3.3599999999999994v1.574h1.03c4.234 0 6.083-3.434 7.567-6.193 1.361-2.541 2.31-4.08 3.993-4.08 1.747 0 3.584 3.801 5.201 7.157 0.237 0.488 0.477 0.988 0.72 1.483-6.2 0.197-9.155 1.649-11.559 2.833-1.759 0.866-3.147 1.94-5.433 1.94H3.3599999999999994v1.574h1.507c2.754 0 4.47-0.85 6.295-1.751 2.53-1.243 5.398-2.652 12.157-2.652h3.907V17.86H25.02a1.18 1.18 0 0 1-0.972-0.393 70.83 70.83 0 0 1-1.133-2.321l-0.511-1.047s0.366-0.393 1.38-0.393H27.36Z" /></svg>