<svg xmlns="http://www.w3.org/2000/svg" width="100%" height="100%" viewBox="0 0 30.72 30.72"><path d="M7.5954999999999995 3.3611999999999993c-0.3117-0.0129-0.6643 0.0706-0.8275 0.4559-0.1585 0.3741-0.2832 1.1874-0.3402 2.2758l1.2238 0.5928c-0.0202-0.7792 0.0086-1.5128 0.087-2.1787-0.0248 0.2192-0.0766 0.9074-0.0055 2.1493 0.0189 0.3418 0.0488 0.7267 0.0876 1.152 0.0022 0.024 0.002 0.0453 0.0075 0.067 0.0353 0.3711 0.0812 0.7704 0.139 1.2074 0.0493 0.3763 0.1046 0.7743 0.1725 1.204 0.0554 0.3678 0.1225 0.7529 0.1923 1.1608l-0.0096 0.009c0.0132 0.0109 0.0153 0.0201 0.0144 0.026 0.0094 0.0549 0.0193 0.1044 0.0287 0.1594 0.0316 0.1624 0.0598 0.327 0.0938 0.4928 0.0347 0.1808 0.0719 0.3645 0.1082 0.5544 0.018 0.095 0.0362 0.1906 0.0568 0.2889 0.0593 0.2916 0.1237 0.5899 0.1896 0.8973 0.0817 0.3783 0.1706 0.7663 0.2662 1.1705 0.09 0.3825 0.1868 0.781 0.2882 1.1861 0.0982 0.3868 0.1977 0.7824 0.3073 1.1917 0.096 0.3626 0.1996 0.7352 0.3046 1.117 0.0031 0.0184 0.012 0.0379 0.015 0.0562 0.1059 0.376 0.2159 0.7642 0.3306 1.1595a0.0606 0.0606 0 0 0 0.0083 0.0253c0.0176 0.0592 0.033 0.1146 0.0506 0.1738 0.0772 0.2619 0.158 0.5328 0.2416 0.805a4.1973 4.1973 0 0 1-0.295-0.1349 166.5148 166.5148 0 0 1-0.1875-0.653c-0.0208-0.0775-0.0422-0.1497-0.063-0.2272l-0.0027-0.0027-0.0048-0.002c-0.087-0.3006-0.1674-0.6056-0.256-0.9152-0.0224-0.0867-0.0443-0.1735-0.0691-0.2635-0.1041-0.3877-0.2072-0.7812-0.3128-1.178a77.1318 77.1318 0 0 1-0.2903-1.154c-0.0949-0.3892-0.1863-0.7808-0.2778-1.1725a54.4975 54.4975 0 0 1-0.2643-1.2026c-0.0848-0.3966-0.1632-0.7987-0.2423-1.1944a17.1806 17.1806 0 0 1-0.0794-0.4312c-0.0456-0.2449-0.0877-0.4919-0.13-0.7392-0.004-0.0126-0.0049-0.028-0.0089-0.0404l-1.0465-0.534 1.05 0.532c-0.0568-0.3864-0.117-0.7708-0.1746-1.1513a60.6963 60.6963 0 0 1-0.1547-1.2006 27.4722 27.4722 0 0 1-0.1123-1.2067 0.711 0.711 0 0 1-0.004-0.0691 24.9895 24.9895 0 0 1-0.0548-1.1356l-1.2211-0.5886c-0.0024 0.074-0.0083 0.1502-0.0116 0.23a27.5407 27.5407 0 0 0-0.0233 0.9302c-0.003 0.3682 0.0002 0.7522 0.0068 1.1546 0.0087 0.37 0.0238 0.756 0.0438 1.1486 0.0198 0.336 0.042 0.6758 0.0692 1.0219 0.0006 0.015 0.0027 0.024 0.0034 0.039l0.0055 0.0027c0.0023 0.0237 0.0072 0.0501 0.0061 0.076 0.0328 0.3678 0.0647 0.7417 0.1082 1.117 0.0426 0.3813 0.0904 0.763 0.1471 1.1493 0.0482 0.3255 0.1 0.649 0.154 0.9754 0.011 0.064 0.0247 0.1316 0.0356 0.1957 0.0748 0.404 0.1548 0.794 0.2416 1.1581 0.0972 0.4134 0.2008 0.8012 0.306 1.1623 0.0707 0.2368 0.1399 0.4643 0.2108 0.6803 0.0613 0.1819 0.1284 0.3648 0.193 0.5442 0.1553 0.4222 0.3273 0.8319 0.5127 1.232l0.0055 0.0027a0.3195 0.3195 0 0 0 0.0191 0.0514c0.2261 0.4836 0.4753 0.9506 0.755 1.395 0.0098 0.0133 0.019 0.0324 0.0288 0.0458-0.4537-0.1826-1.2577-0.0981-1.252-0.0972 0.83 0.2879 1.558 0.641 2.0172 1.1752-0.1825 0.201-0.524 0.3534-0.9535 0.4778 0.5938 0.0643 0.9248-0.0397 1.0459-0.0924-0.3103 0.2586-0.4835 0.7314-0.6359 1.2402 0.3493-0.5708 0.6955-0.9486 1.0329-1.093 0.0776 0.2572 0.1619 0.5238 0.2443 0.7877-0.727 1.4194-1.4698 2.9455-2.2245 4.5538 0.2036-0.0272 0.3395-0.145 0.4306-0.3121 0.129-0.2809 0.8344-1.7797 1.9076-3.8734 0.413 1.3029 0.8798 2.678 1.3853 4.1068 0.1112-0.1435 0.1239-0.3023 0.0774-0.464-0.098-0.2699-0.6338-1.7978-1.3046-3.946 0.1525-0.2959 0.318-0.6111 0.4839-0.9275a3.504 3.504 0 0 1 0.4031 0.1588c0.1949 0.1875 0.3368 0.4938 0.4634 0.833 0.0334-0.3895-0.0712-0.7758-0.3326-1.0992 1.3353 0.2577 2.548 0.089 3.2881-0.8098a3.9744 3.9744 0 0 0 0.1896-0.2573c-0.3249 0.3039-0.6817 0.4038-1.3134 0.273 0.9963-0.2814 1.5254-0.6173 2.037-1.2217a7.5242 7.5242 0 0 0 0.3695-0.4778c-0.9421 0.7218-1.926 0.8196-2.8994 0.4915-0.0132-0.0067-0.0272-0.0084-0.0451-0.0158 0.914 0.0201 2.2034-0.4756 3.0924-1.191 0.4094-0.3295 0.7956-0.7288 1.1704-1.2107 0.2806-0.358 0.549-0.7606 0.82-1.215 0.2335-0.3933 0.4677-0.8245 0.6982-1.2943-0.2204 0.077-0.4692 0.1214-0.7379 0.139l-0.1437 0.0075c-0.048 0.0025-0.0947 0.0002-0.1472 0.002 0.8843-0.198 1.5005-0.7394 1.9939-1.4462-0.2405 0.1167-0.6276 0.2594-1.0699 0.2943-0.0578 0.0057-0.1195 0.0064-0.1813 0.0068-0.014-0.002-0.0287 0-0.0473-0.0027 0.3062-0.0786 0.5726-0.1773 0.8104-0.3087 0.0513-0.0257 0.0985-0.0566 0.1458-0.0876 0.0733-0.0463 0.1429-0.0976 0.2122-0.1492 0.0434-0.0364 0.086-0.0684 0.1294-0.1048a2.3833 2.3833 0 0 0 0.2792-0.2868c0.0288-0.0338 0.0574-0.0634 0.0815-0.0978 0.036-0.0518 0.0712-0.0988 0.102-0.1465a8.3873 8.3873 0 0 0 0.3758-0.586 6.8254 6.8254 0 0 0 0.1355-0.2415c0.014-0.0312 0.0318-0.0571 0.0458-0.0883 0.041-0.0843 0.0807-0.1595 0.1095-0.2266 0.043-0.0982 0.0736-0.179 0.0918-0.2382a0.5171 0.5171 0 0 1-0.1075 0.0507c-0.273 0.112-0.7258 0.1886-1.0842 0.2026-0.0046-0.0007-0.009-0.002-0.0144 0.002-0.02 0-0.0438 0.0015-0.0664 0.002 0.718-0.2145 1.0662-0.4526 1.4217-0.82 0.0954-0.1 0.192-0.209 0.2895-0.323 0.2972-0.3412 0.5951-0.7208 0.8652-1.104 0.2633-0.37 0.5032-0.7382 0.69-1.0719 0.1217-0.215 0.222-0.4142 0.3004-0.5927a7.1872 7.1872 0 0 0 0.1704-0.4504 36.4173 36.4173 0 0 1-1.4798 0.0007c0.4951 0.0097 1.0156 0.007 1.4853-0.0048 0.4983-1.4854 0.061-2.2622 0.061-2.2622S23.6293 3.7626999999999993 22.7543 4.1236999999999995c-0.4248 0.1753-1.1722 0.731-2.0828 1.562l0.5147 1.4483c0.6028-0.6433 1.2086-1.21 1.8008-1.6838-0.194 0.1569-0.7824 0.6693-1.7118 1.7256-0.2564 0.2902-0.5381 0.624-0.8447 0.9972-0.0173 0.0212-0.0345 0.0377-0.0472 0.0596-0.2665 0.3267-0.5467 0.685-0.8474 1.0828-0.2592 0.342-0.5312 0.7063-0.818 1.1061-0.2475 0.3402-0.4987 0.7038-0.7665 1.0876l-0.0158-0.0007c0.002 0.0193-0.0042 0.0282-0.0095 0.0322-0.0361 0.0517-0.0666 0.0996-0.1027 0.1513-0.1036 0.1558-0.212 0.311-0.3162 0.4716-0.1157 0.173-0.2322 0.3508-0.3539 0.5325-0.0608 0.0908-0.122 0.1817-0.1834 0.2772-0.184 0.2819-0.3686 0.573-0.56 0.8727a69.9708 69.9708 0 0 0-0.7159 1.154 97.513 97.513 0 0 0-0.7105 1.1834c-0.2281 0.3894-0.4625 0.7874-0.6995 1.204-0.2108 0.3682-0.4238 0.7503-0.6427 1.141-0.012 0.0173-0.0201 0.0396-0.0322 0.0568-0.2135 0.3868-0.4334 0.7871-0.655 1.1965-0.006 0.0086-0.0123 0.0174-0.0137 0.0267-0.0328 0.0617-0.065 0.119-0.0979 0.1807-0.17 0.3171-0.346 0.6423-0.5188 0.978-0.0007 0.0047-0.0062 0.0091-0.0068 0.0138-0.0262 0.0484-0.0511 0.0919-0.0726 0.141-0.116 0.22-0.2214 0.4298-0.449 0.8686a1.3507 1.3507 0 0 0-0.23-0.1787c0.1183-0.2248 0.2165-0.4202 0.3409-0.6536 0.0462-0.0883 0.0968-0.1761 0.1437-0.269 0.0134-0.0266 0.0263-0.0481 0.0397-0.0747 0.1761-0.3257 0.3581-0.6604 0.5462-1.0034 0.0449-0.079 0.0845-0.1538 0.1294-0.2327l0.0007-0.0048-0.002-0.0055c0.1685-0.3109 0.3463-0.6203 0.5208-0.9397 0.0509-0.0876 0.1018-0.1754 0.1533-0.2677 0.2242-0.3947 0.4536-0.793 0.6838-1.1964a87.081 87.081 0 0 1 0.6838-1.1595c0.2328-0.3887 0.4702-0.7762 0.7077-1.1643 0.2435-0.3966 0.4905-0.788 0.7427-1.1786 0.2468-0.3867 0.5028-0.772 0.7536-1.1534 0.0916-0.1386 0.183-0.2727 0.2792-0.4106 0.1578-0.2335 0.3201-0.4661 0.4826-0.6989 0.0067-0.0132 0.018-0.0257 0.0246-0.039l-0.4333-1.3066 0.4381 1.3073c0.2613-0.356 0.5182-0.713 0.7741-1.065 0.278-0.3726 0.5544-0.7357 0.8296-1.0897 0.2866-0.3666 0.5761-0.7183 0.8686-1.0602 0.0174-0.0213 0.0346-0.043 0.0513-0.0596 0.2865-0.3333 0.5706-0.6521 0.8577-0.9569l-0.5147-1.4442c-0.0608 0.0576-0.1263 0.1143-0.1924 0.176a31.0491 31.0491 0 0 0-0.7584 0.7296c-0.295 0.294-0.5973 0.6064-0.9117 0.9356-0.287 0.3048-0.581 0.6277-0.8768 0.9596-0.251 0.2863-0.5032 0.5766-0.7563 0.8768-0.0114 0.0126-0.0174 0.0217-0.0288 0.0343l0.0028 0.0075c-0.017 0.0209-0.0347 0.045-0.0562 0.065-0.2658 0.3221-0.5369 0.6482-0.8001 0.985a38.087 38.087 0 0 0-0.7947 1.043 65.572 65.572 0 0 0-0.6509 0.907c-0.0421 0.0603-0.0845 0.1252-0.1266 0.1855-0.2608 0.3846-0.5061 0.7624-0.7255 1.1246-0.2503 0.4099-0.4748 0.8044-0.677 1.1786a30.076 30.076 0 0 0-0.371 0.7153c-0.0951 0.1951-0.186 0.3956-0.2765 0.5914-0.2105 0.4632-0.398 0.9296-0.5667 1.399l0.002 0.0062a0.3593 0.3593 0 0 0-0.0253 0.0568c-0.1077 0.303-0.2044 0.6079-0.2923 0.9138a2.5679 2.5679 0 0 1-0.4832 0.4606c-0.0423-0.0526-0.0874-0.0978-0.1321-0.1472 0.4144-0.5983 0.7383-1.4386 0.8275-2.2156 0.053-0.4616 0.0477-0.9527-0.0157-1.4887-0.0458-0.3995-0.1265-0.8196-0.2382-1.2738a16.3456 16.3456 0 0 0-0.3648-1.2478c-0.091 0.1853-0.2197 0.3676-0.3779 0.5456-0.0286 0.0313-0.0576 0.0624-0.0862 0.0937-0.0286 0.0313-0.0591 0.0594-0.091 0.0931 0.4334-0.6739 0.4844-1.3973 0.3559-2.1485-0.0788 0.2228-0.2335 0.5528-0.4901 0.8494a1.78 1.78 0 0 1-0.1102 0.117c-0.01 0.0074-0.0174 0.0176-0.0308 0.0274 0.1438-0.2396 0.2502-0.467 0.3183-0.6975 0.0163-0.048 0.0265-0.0968 0.037-0.1457a2.9911 2.9911 0 0 0 0.041-0.226c0.0047-0.0497 0.0118-0.0959 0.0164-0.1457a2.107 2.107 0 0 0-0.0027-0.3539c-0.003-0.039-0.0033-0.0749-0.0096-0.1115-0.0094-0.055-0.0164-0.107-0.0267-0.1561a7.4225 7.4225 0 0 0-0.1273-0.6023 6.0144 6.0144 0 0 0-0.065-0.2362c-0.0105-0.0283-0.0148-0.0558-0.0253-0.0842-0.0267-0.0784-0.0484-0.15-0.072-0.21a2.0823 2.0823 0 0 0-0.0903-0.2068 0.4575 0.4575 0 0 1-0.0362 0.0986c-0.1023 0.24-0.3396 0.5687-0.5565 0.8001-0.0034 0.0025-0.0066 0.0051-0.0075 0.011-0.0126 0.0122-0.0267 0.0275-0.0404 0.0417 0.3183-0.5806 0.3897-0.9466 0.3853-1.3984a7.1255 7.1255 0 0 0-0.0184-0.3833 12.2819 12.2819 0 0 0-0.141-1.232c-0.0641-0.3964-0.143-0.7767-0.2328-1.1027-0.0568-0.2109-0.1171-0.3988-0.1786-0.5599a6.3763 6.3763 0 0 0-0.1718-0.3894c-0.4317 0.4444-0.95 0.9495-1.3956 1.3484 0.4456-0.3991 0.964-0.9051 1.3963-1.354C8.9359 3.7009999999999996 8.1779 3.4838999999999993 8.1779 3.4838999999999993S7.907299999999999 3.373999999999999 7.595599999999999 3.3611999999999993zM10.976099999999999 19.143c0.011 0.0278 0.021 0.0558 0.0315 0.0835-0.059 0.0335-0.1166 0.0683-0.1787 0.0985-0.0125 0.004-0.0224 0.0114-0.0383 0.0178 0.0631-0.0596 0.1247-0.1282 0.1855-0.1998z m-0.6058 1.6167c0.1304 0.137 0.2527 0.252 0.3573 0.3306 0.0175 0.0573 0.0513 0.1652 0.0705 0.2265-0.0799 0.0115-0.1625 0.0363-0.245 0.0596-0.011-0.037-0.0204-0.0662-0.0315-0.1034-0.0257-0.0842-0.0485-0.1711-0.0767-0.2587-0.008-0.025-0.0138-0.0462-0.0219-0.0712-0.0172-0.0594-0.0353-0.1233-0.0527-0.1834z m0.2656 0.885c0.0944-0.0015 0.1835 0.002 0.2676 0.0103 0.0275 0.0877 0.0346 0.1101 0.0712 0.2286 0.0763-0.0158 0.159-0.0134 0.245-0.0034-0.1065 0.2025-0.2137 0.413-0.321 0.6208-0.087-0.2818-0.1723-0.5557-0.2628-0.8563Z" /></svg>