<svg xmlns="http://www.w3.org/2000/svg" width="100%" height="100%" viewBox="0 0 30.72 30.72"><path d="M19.826999999999998 13.315999999999999c0.736-2 1.31-3.651 1.723-4.953 0.412-1.302 0.618-2.102 0.618-2.399 0-0.318-0.069-0.565-0.206-0.741a0.683 0.683 0 0 0-0.569-0.264c-0.308 0-0.62 0.255-0.94 0.766-0.318 0.511-0.67 1.333-1.055 2.465L17.75 12.953z m-2.192 4.434c-0.473-0.022-0.92-0.071-1.344-0.148a7.126 7.126 0 0 1-1.211-0.33c0.175 0.352 0.332 0.703 0.47 1.055 0.137 0.352 0.25 0.698 0.337 1.039 0.264-0.33 0.542-0.63 0.833-0.899a6.93 6.93 0 0 1 0.915-0.717z m-1.863-4.994l-1.78-5.143C13.53 6.305 13.173 5.449999999999999 12.92 5.049999999999999c-0.253-0.402-0.527-0.602-0.824-0.602a0.688 0.688 0 0 0-0.56 0.264c-0.143 0.175-0.215 0.412-0.215 0.708 0 0.506 0.193 1.385 0.577 2.638 0.385 1.253 0.962 2.895 1.731 4.928a0.55 0.55 0 0 1 0.28-0.255 1.33 1.33 0 0 1 0.495-0.074c0.066 0 0.198 0.005 0.396 0.016 0.197 0.011 0.521 0.039 0.972 0.083z m-1.615 7.961c0.186 0 0.357-0.085 0.51-0.255a0.81 0.81 0 0 0 0.231-0.552c0-0.209-0.15-0.695-0.453-1.46a14.623 14.623 0 0 0-1.129-2.25c-0.33-0.549-0.654-0.963-0.973-1.244-0.318-0.28-0.62-0.42-0.906-0.42-0.23 0-0.486 0.146-0.767 0.437-0.28 0.291-0.42 0.563-0.42 0.816 0 0.263 0.137 0.66 0.412 1.187 0.275 0.527 0.643 1.087 1.105 1.68 0.483 0.65 0.94 1.155 1.368 1.517 0.428 0.363 0.769 0.544 1.022 0.544z m-4.945-0.395c0.153 0.187 0.368 0.461 0.642 0.824 0.726 1 1.396 1.5 2.011 1.5a0.874 0.874 0 0 0 0.56-0.198c0.166-0.132 0.248-0.27 0.248-0.412 0-0.165-0.11-0.44-0.33-0.824-0.22-0.385-0.522-0.819-0.906-1.302-0.44-0.56-0.805-0.97-1.096-1.228-0.291-0.258-0.525-0.388-0.7-0.388-0.386 0-0.74 0.206-1.064 0.618-0.324 0.412-0.486 0.899-0.486 1.46 0 0.45 0.112 0.953 0.338 1.507 0.225 0.555 0.552 1.113 0.98 1.673a6.543 6.543 0 0 0 2.415 2.003c0.962 0.467 2.025 0.7 3.19 0.7 2.143 0 3.937-0.799 5.382-2.398 1.445-1.599 2.167-3.601 2.167-6.008 0-0.736-0.055-1.321-0.165-1.755-0.11-0.434-0.29-0.75-0.544-0.948-0.45-0.374-1.326-0.709-2.629-1.006a18.315 18.315 0 0 0-4.08-0.445c-0.395 0-0.675 0.066-0.84 0.198-0.165 0.132-0.247 0.357-0.247 0.676 0 0.747 0.417 1.288 1.253 1.623 0.834 0.336 2.186 0.503 4.055 0.503h0.675c0.154 0 0.278 0.058 0.371 0.173 0.093 0.116 0.157 0.289 0.19 0.52-0.187 0.175-0.572 0.376-1.154 0.601-0.583 0.225-1.028 0.448-1.335 0.668a5.92 5.92 0 0 0-1.59 1.722c-0.402 0.665-0.603 1.294-0.603 1.888 0 0.362 0.085 0.8 0.256 1.31 0.17 0.511 0.255 0.827 0.255 0.948v0.115l-0.033 0.149c-0.483-0.033-0.865-0.316-1.145-0.85-0.28-0.532-0.42-1.244-0.42-2.134v-0.148a0.912 0.912 0 0 1-0.256 0.165 0.726 0.726 0 0 1-0.272 0.05c-0.099 0-0.192-0.009-0.28-0.026a2.869 2.869 0 0 1-0.297-0.074 2.917 2.917 0 0 1 0.099 0.627c0 0.406-0.16 0.755-0.478 1.046a1.63 1.63 0 0 1-1.137 0.437c-0.693 0-1.396-0.338-2.11-1.014-0.715-0.675-1.072-1.337-1.072-1.986 0-0.12 0.014-0.228 0.041-0.321a0.552 0.552 0 0 1 0.14-0.24z m11.802-6.726c0.989 0.187 1.687 0.605 2.093 1.253 0.407 0.649 0.61 1.67 0.61 3.066 0 2.77-0.832 5.036-2.497 6.8C19.555 26.477999999999998 17.426000000000002 27.36 14.833 27.36a8.254 8.254 0 0 1-2.976-0.552 7.368 7.368 0 0 1-2.48-1.541c-0.792-0.726-1.385-1.492-1.78-2.3a5.58 5.58 0 0 1-0.594-2.48c0-0.946 0.203-1.676 0.61-2.193 0.406-0.516 1.049-0.868 1.928-1.055a8.824 8.824 0 0 1-0.362-0.972c-0.077-0.264-0.116-0.467-0.116-0.61 0-0.495 0.261-1 0.783-1.517 0.522-0.516 1.014-0.774 1.475-0.774 0.198 0 0.407 0.035 0.627 0.107 0.22 0.071 0.472 0.19 0.758 0.354C11.86 11.431 11.245 9.582999999999998 10.86 8.28c-0.385-1.302-0.577-2.2-0.577-2.695 0-0.681 0.176-1.222 0.528-1.623C11.161999999999999 3.5599999999999996 11.639999999999999 3.3599999999999994 12.245 3.3599999999999994c1.032 0 2.34 2.308 3.923 6.923 0.274 0.791 0.483 1.401 0.626 1.83l0.511-1.45C18.887 6.09 20.25 3.8039999999999994 21.393 3.8039999999999994c0.56 0 1.008 0.19 1.343 0.569 0.336 0.379 0.503 0.887 0.503 1.524 0 0.484-0.184 1.369-0.552 2.654-0.368 1.286-0.926 2.967-1.673 5.044" /></svg>