<svg xmlns="http://www.w3.org/2000/svg" width="100%" height="100%" viewBox="0 0 30.72 30.72"><path d="M15.754 20.317999999999998c0-0.789 0.338-0.902 1.127-0.451a54.235 54.235 0 0 0 2.704 1.465c0-0.45 0.451-0.789 1.24-0.564 0.789 0.226 1.577 0.338 1.577 0.338s-0.45-1.014-0.676-1.464c-0.338-0.789 0-1.24 0.338-1.352 0 0-0.45-0.338-0.789-0.564-0.676-0.45-0.563-1.014 0.113-1.24 0.902-0.45 2.141-0.9 2.141-0.9-0.338-0.226-0.789-0.79-0.338-1.578 0.45-0.676 1.24-1.69 1.24-1.69H22.29c-0.79 0-1.015-0.676-1.015-1.127 0 0-1.239 0.901-2.14 1.465-0.79 0.563-1.465 0-1.352-0.902a37 37 0 0 0 0.338-2.93c-0.451 0.451-1.24 0.339-1.69-0.337-0.564-1.127-1.127-2.48-1.127-2.48S14.74 7.359999999999999 14.177 8.488c-0.338 0.676-1.127 0.788-1.578 0.45a37 37 0 0 0 0.338 2.93c0.113 0.789-0.563 1.352-1.352 0.789-0.901-0.564-2.253-1.465-2.253-1.465 0 0.45-0.226 1.014-1.014 1.127H6.177s0.789 1.014 1.24 1.69c0.45 0.676 0 1.352-0.339 1.577 0 0 1.127 0.564 2.141 0.902 0.676 0.338 0.902 0.788 0.113 1.24-0.226 0.225-0.789 0.563-0.789 0.563 0.45 0.112 0.789 0.563 0.45 1.352-0.225 0.45-0.675 1.464-0.675 1.464s0.788-0.225 1.577-0.338c0.789-0.225 1.127 0.226 1.24 0.564 0 0 1.352-0.789 2.704-1.465 0.676-0.45 1.127-0.225 1.127 0.45v1.916c0 1.127-0.226 2.254-0.564 2.93-5.07-0.564-9.352-4.62-9.352-10.028 0-5.521 4.62-10.029 10.366-10.029 5.747 0 10.367 4.508 10.367 10.029 0 5.183-4.057 9.464-9.24 10.028v1.352C22.628 25.951999999999998 27.36 21.105999999999998 27.36 15.135 27.36 8.712 21.951999999999998 3.6419999999999995 15.304 3.6419999999999995 8.768 3.6419999999999995 3.3599999999999994 8.712 3.3599999999999994 15.022c0 5.521 4.169 10.14 9.69 11.155 0.902 0.225 1.465 0.338 2.028 0.901 0.564-1.126 0.676-3.38 0.676-4.62Z" /></svg>