<svg xmlns="http://www.w3.org/2000/svg" width="100%" height="100%" viewBox="0 0 30.72 30.72"><path d="M27.264 14.148V12.882h-4.656c-0.972 0-1.41 0.6-1.482 1.182v0.018-1.2h-1.368v1.266h1.362z m-6.144 0.456l-1.368-0.078v1.458c0 0.456-0.228 0.594-1.02 0.594H17.64c-0.654 0-0.93-0.186-0.93-0.594v-1.596l-1.386-0.102v1.812h-0.03c-0.078-0.528-0.276-1.14-1.596-1.23L9.36 14.58c0 0.666 0.474 1.062 1.218 1.14l3.024 0.306c0.24 0.018 0.414 0.09 0.414 0.288 0 0.216-0.18 0.24-0.456 0.24H9.306V14.58l-1.386-0.09v3.348h5.646c1.26 0 1.662-0.654 1.722-1.2h0.03c0.156 0.864 0.912 1.2 2.19 1.2h1.41c1.494 0 2.202-0.456 2.202-1.524z m4.398 0.258l-4.338-0.258c0 0.666 0.438 1.11 1.182 1.17l3.09 0.24c0.24 0.018 0.384 0.078 0.384 0.276 0 0.186-0.168 0.258-0.516 0.258h-4.212v1.29h4.302c1.356 0 1.95-0.474 1.95-1.554 0-0.972-0.534-1.338-1.842-1.422z m-10.194-1.98h1.386v1.266h-1.386zM7.1579999999999995 14.43l-1.506-0.15L3.3599999999999994 17.838h1.686z m7.914-1.548h-4.23c-0.984 0-1.416 0.612-1.518 1.2v-1.2H6.978c-0.33 0-0.486 0.102-0.642 0.33l-0.648 0.936h9.384Z" /></svg>