<svg xmlns="http://www.w3.org/2000/svg" width="100%" height="100%" viewBox="0 0 30.72 30.72"><path d="M19.375 17.738c0-0.32-0.135-0.496-0.344-0.622-0.21-0.12-0.464-0.135-0.81-0.135h-1.543v2.82h0.675v-1.027h0.72c0.24 0 0.39 0.024 0.478 0.125 0.12 0.13 0.104 0.38 0.104 0.55v0.35h0.66v-0.555c-0.002-0.25-0.017-0.376-0.108-0.516-0.06-0.08-0.18-0.18-0.33-0.234l0.02-0.008c0.18-0.072 0.48-0.297 0.48-0.747z m-0.87 0.407l-0.028-0.002c-0.09 0.053-0.195 0.058-0.33 0.058h-0.81v-0.63h0.824c0.12 0 0.24 0 0.33 0.05 0.098 0.048 0.156 0.147 0.15 0.255 0 0.12-0.045 0.215-0.134 0.27zM23.657 19.197H22.36v0.6h1.304c0.676 0 1.05-0.278 1.05-0.884 0-0.28-0.066-0.448-0.187-0.582-0.153-0.133-0.392-0.193-0.73-0.207l-0.376-0.015c-0.104 0-0.18 0-0.255-0.03-0.09-0.03-0.15-0.105-0.15-0.21 0-0.09 0.017-0.166 0.09-0.21 0.083-0.046 0.177-0.066 0.272-0.06h1.23v-0.602h-1.35c-0.704 0-0.958 0.437-0.958 0.84 0 0.9 0.776 0.855 1.407 0.87 0.104 0 0.18 0.015 0.225 0.06 0.046 0.03 0.082 0.106 0.082 0.18 0 0.077-0.035 0.15-0.08 0.18-0.06 0.053-0.15 0.07-0.277 0.07zM3.3599999999999994 3.3599999999999994v10.096L4.17 11.58h1.75l0.225 0.464V11.58h2.043l0.45 1.02 0.437-1.013h6.502c0.295 0 0.56 0.057 0.756 0.236v-0.23h1.787v0.23c0.307-0.17 0.686-0.23 1.12-0.23h2.606l0.24 0.466v-0.466h1.918l0.254 0.465v-0.466h1.858v3.948H24.23l-0.36-0.6v0.585h-2.353l-0.256-0.63h-0.583l-0.27 0.614h-1.213c-0.48 0-0.84-0.104-1.08-0.24v0.24h-2.89v-0.884c0-0.12-0.03-0.12-0.105-0.135h-0.105v1.036H9.427v-0.48l-0.21 0.48H8.05l-0.202-0.48v0.465H5.594999999999999l-0.256-0.624H4.76l-0.256 0.624H3.3599999999999994V27.36h23.786v-7.108c-0.27 0.135-0.613 0.18-0.973 0.18H24.45v-0.255c-0.21 0.165-0.57 0.255-0.914 0.255H18.07v-0.9c0-0.12-0.018-0.12-0.12-0.12h-0.075v1.022h-1.8v-1.066c-0.298 0.136-0.643 0.15-0.928 0.136h-0.214v0.915h-2.18l-0.54-0.617-0.57 0.6H8.102v-3.93h3.61l0.518 0.602 0.554-0.6h2.412c0.28 0 0.74 0.03 0.942 0.225v-0.24h2.177c0.202 0 0.644 0.045 0.903 0.225v-0.24h3.265v0.24c0.163-0.164 0.508-0.24 0.803-0.24h1.89v0.24c0.194-0.15 0.464-0.24 0.84-0.24h1.176V3.3599999999999994H3.3599999999999994zM24.516 18.314999999999998c0.004 0.005 0.006 0.012 0.01 0.016 0.01 0.01 0.024 0.01 0.032 0.02l-0.042-0.035zM27.188 16.442h0.065v0.555h-0.065zM27.224999999999998 18.39v-0.005c-0.03-0.025-0.046-0.048-0.075-0.07-0.15-0.153-0.39-0.215-0.764-0.225l-0.36-0.012c-0.12 0-0.194-0.007-0.27-0.03-0.09-0.03-0.15-0.105-0.15-0.21 0-0.09 0.03-0.16 0.09-0.204 0.076-0.045 0.15-0.05 0.27-0.05h1.223v-0.588h-1.283c-0.69 0-0.96 0.437-0.96 0.84 0 0.9 0.78 0.855 1.41 0.87 0.104 0 0.18 0.015 0.224 0.06 0.046 0.03 0.076 0.106 0.076 0.18 0 0.07-0.034 0.138-0.09 0.18-0.045 0.056-0.136 0.07-0.27 0.07h-1.288v0.605h1.287c0.42 0 0.734-0.118 0.9-0.36h0.03c0.09-0.134 0.135-0.3 0.135-0.523 0-0.24-0.045-0.39-0.135-0.526zM21.957 17.567999999999998v-0.583h-2.235V19.817999999999998h2.235v-0.585h-1.57v-0.57h1.533v-0.584h-1.532v-0.51M16.869999999999997 12.147h0.685V14.959999999999999h-0.684zM16.485999999999997 12.902999999999999l-0.007 0.006c0-0.314-0.13-0.5-0.34-0.624-0.217-0.125-0.47-0.135-0.81-0.135H13.79v2.82h0.674v-1.034h0.72c0.24 0 0.39 0.03 0.487 0.12 0.122 0.136 0.107 0.378 0.107 0.548v0.354h0.677v-0.553c0-0.25-0.016-0.375-0.11-0.516-0.09-0.107-0.202-0.19-0.33-0.237 0.172-0.07 0.472-0.3 0.472-0.75z m-0.855 0.396h-0.015c-0.09 0.054-0.195 0.056-0.33 0.056H14.459999999999999v-0.623h0.825c0.12 0 0.24 0.004 0.33 0.05 0.09 0.04 0.15 0.128 0.15 0.25s-0.047 0.22-0.134 0.266zM19.28 12.732999999999999h0.632v-0.6h-0.644c-0.464 0-0.804 0.105-1.02 0.33-0.286 0.3-0.362 0.69-0.362 1.11 0 0.512 0.123 0.833 0.36 1.074 0.232 0.238 0.645 0.31 0.97 0.31h0.78l0.255-0.627h1.39l0.262 0.627h1.36v-2.11l1.272 2.11h0.95l0.002 0.002V12.145999999999999h-0.684v1.963l-1.18-1.96h-1.02V14.76L21.47 12.104h-1.004l-0.943 2.22h-0.3c-0.177 0-0.362-0.03-0.468-0.134-0.125-0.15-0.186-0.36-0.186-0.662 0-0.285 0.08-0.51 0.194-0.63 0.133-0.135 0.272-0.165 0.516-0.165z m1.668-0.108l0.464 1.118v0.002h-0.93l0.466-1.12zM5.739999999999999 14.33l0.254 0.628H7.359999999999999V12.753l0.972 2.205h0.584l0.973-2.202 0.015 2.202h0.69v-2.81H9.478l-0.807 1.904-0.876-1.905H6.702999999999999v2.663L5.5649999999999995 12.147h-0.997L3.369999999999999 14.956999999999999h0.72l0.26-0.626h1.39z m-0.688-1.705l0.46 1.118-0.003 0.002h-0.915l0.457-1.12zM15.216 16.979999999999997H13.074l-0.85 0.923-0.825-0.922H8.706v2.82H11.36l0.855-0.932 0.824 0.93h1.302v-0.94h0.838c0.6 0 1.17-0.164 1.17-0.945l-0.006-0.003c0-0.78-0.598-0.93-1.128-0.93zM11.03 19.213l-0.014-0.002H9.379999999999999v-0.557h1.47v-0.574H9.379999999999999v-0.51H11.059999999999999l0.733 0.82-0.764 0.824z m2.642 0.33l-1.03-1.147 1.03-1.108v2.253z m1.553-1.258h-0.885v-0.717h0.885c0.24 0 0.42 0.098 0.42 0.344 0 0.243-0.15 0.372-0.42 0.372zM13.327 12.732999999999999v-0.586H11.09V14.959999999999999h2.237v-0.58H11.76v-0.564h1.527V13.24H11.76v-0.507" /></svg>