<svg xmlns="http://www.w3.org/2000/svg" width="100%" height="100%" viewBox="0 0 30.72 30.72"><path d="M20.756999999999998 16.363c0.244-1.308 1.795-1.974 2.936-1.91 0.436 0.025 0.82 0.154 1.039 0.41 0.09-0.09 0.18-0.192 0.269-0.282 0.051-0.051 0.205-0.038 0.346-0.013 0.154 0.026 0.32 0.09 0.423 0.09 0.103 0 0.36-0.077 0.603-0.115 0.243-0.039 0.461-0.026 0.423 0.064l-0.218 0.538-0.705 1.73c-0.141 0.347 0.41 0.257 1.166-0.55 0.129 0.09 0.193 0.102 0.321 0.423-0.654 0.564-1.27 0.961-2.128 1.256-0.77 0.27-1.346-0.115-1.526-0.756-1.102 1.025-2.628 1.013-3.064-0.141-0.718 0.359-1.564 0.73-1.923 0.833-0.282 0.077-0.526 0.141-0.77 0.141-0.384 0-0.794-0.346-0.666-0.872-0.628 0.282-1.128 0.462-1.846 0.705-0.77 0.27-1.218-0.025-1.398-0.666-1.102 1.025-2.628 1.013-3.064-0.141-0.436 0.205-1.025 0.513-1.577 0.73-0.884 0.398-1.923 0.321-2.692-0.487l0.257-0.397c0.359 0.384 0.807 0.372 1.153 0.051 0.372-0.333 0.603-0.974 0.436-1.513-0.077-0.23-0.333-0.41-0.833-0.384l0.154-0.41c0.5-0.013 0.897-0.09 1.115-0.398 0.308-0.449 0.308-1.128-0.346-1.115a1.34 1.34 0 0 0-0.41 0.077c-0.116 0.333-0.308 0.73-0.475 1.14-0.371 0.95-0.782 2-1.256 2.68-0.564 0.808-1.18 0.962-1.667 0.936-0.512-0.039-0.91-0.192-1.474-0.692 0-0.218 0.013-0.308 0.064-0.577 0.218 0.269 0.898 0.564 1.115 0.243 0.488-0.718 1.026-2.102 1.436-3-0.359 0.116-0.705 0.346-1.18 0.68 0-0.051-0.153-0.18-0.153-0.334 0.77-0.884 2.115-1.423 3.026-1.615 1.397-0.295 2.884 0.128 3.115 1.013 0.154 0.59-0.538 1.14-1.192 1.218 0.372 0.218 0.769 0.602 0.872 1.077 0.05 0.23 0.038 0.487-0.039 0.73 0.218-0.102 0.487-0.23 0.654-0.307 0.27-1.885 3.192-2.487 3.987-1.59l0.27-0.282c0.05-0.051 0.204-0.038 0.346-0.013 0.153 0.026 0.32 0.09 0.423 0.09 0.102 0 0.359-0.077 0.602-0.115 0.244-0.039 0.462-0.026 0.423 0.064l-0.91 2.269c-0.205 0.513 1.308-0.398 1.397-0.449l0.654-1.384-0.666 0.012 0.115-0.564h0.744c0.128-0.166 0.153-0.359 0.32-0.474 0.218-0.167 0.718-0.077 0.949-0.23 0.205-0.129 0.359-0.321 0.538-0.629 0.154-0.256 0.744-0.192 0.628 0.051l-0.512 1.295h0.653c0.308 0.013 0.039 0.539-0.307 0.539l-0.539 0.012-0.628 1.629c-0.205 0.5 0.59 0.025 1.192-0.32z m-6.012-1.115c-0.077-0.244-0.282-0.308-0.475-0.295-0.436 0.051-0.859 0.538-1.077 0.872-0.346 0.538-0.269 1.346 0.295 1.192 0.577-0.154 1.36-1.41 1.257-1.77z m9.666 0c-0.077-0.244-0.282-0.308-0.474-0.295-0.436 0.051-0.86 0.538-1.077 0.872-0.346 0.538-0.27 1.346 0.295 1.192 0.577-0.154 1.359-1.41 1.256-1.77Z" /></svg>