<svg xmlns="http://www.w3.org/2000/svg" width="100%" height="100%" viewBox="0 0 30.72 30.72"><path d="M15.949 11.27h5.977v1.753H19.919999999999998v6.41h-1.97v-6.41h-2zM15.36 25.883C9.552999999999999 25.883 4.837 21.166999999999998 4.837 15.36 4.837 9.552999999999999 9.552999999999999 4.837 15.36 4.837c5.807 0 10.523 4.716 10.523 10.523 0 5.807-4.716 10.523-10.523 10.523M15.36 27.36c6.626 0 12-5.374 12-12S21.986 3.3599999999999994 15.36 3.3599999999999994C8.738999999999999 3.3599999999999994 3.3599999999999994 8.733999999999998 3.3599999999999994 15.36s5.379 12 12 12M13.33 16.933999999999997c0-0.516-0.321-0.865-0.873-0.865h-1.32v1.702h1.32c0.552 0 0.874-0.345 0.874-0.837m-0.24-3.276c0-0.433-0.275-0.732-0.745-0.732h-1.21v1.486h1.21c0.47 0 0.746-0.299 0.746-0.754m2.231 3.372c0 1.546-1.09 2.402-2.65 2.402H9.193999999999999V11.27h3.249c1.573 0 2.64 0.805 2.64 2.277 0 0.672-0.298 1.27-0.781 1.634 0.552 0.326 1.021 0.947 1.021 1.85Z" /></svg>