<svg xmlns="http://www.w3.org/2000/svg" width="100%" height="100%" viewBox="0 0 30.72 30.72"><path d="M15.36 27.36c-4.596 0-8.336-3.74-8.336-8.336v-4.135a0.62 0.62 0 0 1 0.62-0.62h2.957L10.59 4.696999999999999 8.262999999999998 6.129999999999999v5.45a0.62 0.62 0 0 1-1.24 0V6.06c0-0.384 0.204-0.749 0.53-0.95L10.133 3.5259999999999994a1.114 1.114 0 0 1 1.699 0.949l0.01 9.796h3.52a4.759 4.759 0 0 1 4.753 4.754 4.759 4.759 0 0 1-4.753 4.753 4.759 4.759 0 0 1-4.754-4.753l-0.003-3.515H8.262999999999998v3.515c0 3.912 3.183 7.097 7.097 7.097a7.104 7.104 0 0 0 7.097-7.097c0-3.915-3.184-7.098-7.097-7.098h-1.076a0.62 0.62 0 0 1 0-1.24H15.36c4.596 0 8.336 3.74 8.336 8.336S19.956 27.36 15.36 27.36zM11.841999999999999 15.51l0.004 3.514A3.518 3.518 0 0 0 15.36 22.538a3.518 3.518 0 0 0 3.514-3.514A3.518 3.518 0 0 0 15.36 15.508999999999999z m4.513 3.514a0.995 0.995 0 0 1-0.995 0.994 0.995 0.995 0 0 1-0.995-0.994 0.995 0.995 0 0 1 0.995-0.995 0.995 0.995 0 0 1 0.995 0.995Z" /></svg>