<svg xmlns="http://www.w3.org/2000/svg" width="100%" height="100%" viewBox="0 0 30.72 30.72"><path d="M15.36 3.3599999999999994C8.73 3.3599999999999994 3.3599999999999994 8.73 3.3599999999999994 15.36A12 12 0 0 0 3.9339999999999993 18.979999999999997C4.207999999999999 18.86 4.499999999999999 18.72 4.789999999999999 18.6 6.159999999999999 18.06 7.419999999999999 18.240000000000002 8.669999999999998 19 8.669999999999998 19 9.129999999999999 19.28 9.27 19.36 9.86 19.74 10.41 20.09 10.94 20.09 11.45 20.09 11.95 19.95 12.16 18.97 12.49 17.439999999999998 13.299999999999999 13.67 13.649999999999999 11.809999999999999 13.86 10.709999999999999 13.969999999999999 10.12 14.09 9.719999999999999 14.29 9.01 14.67 8.629999999999999 15.2 8.57 15.2 8.57 15.29 8.559999999999999 15.36 8.559999999999999 15.43 8.559999999999999 15.51 8.57 15.51 8.57 16.049999999999997 8.629999999999999 16.43 9.01 16.64 9.719999999999999 16.75 10.12 16.86 10.709999999999999 17.07 11.809999999999999 17.42 13.67 18.229999999999997 17.439999999999998 18.56 18.97 18.77 19.95 19.27 20.09 19.78 20.09 20.31 20.09 20.86 19.74 21.45 19.36 21.59 19.28 22.05 19 22.05 19 23.31 18.240000000000002 24.56 18.06 25.93 18.6 26.23 18.72 26.52 18.86 26.8 18.990000000000002A12 12 0 0 0 27.36 15.36C27.36 8.73 21.99 3.3599999999999994 15.36 3.3599999999999994M15.36 13.149999999999999C14.959999999999999 15.16 14.36 18.07 14.059999999999999 19.36 13.7 21.06 12.559999999999999 22.02 10.94 22.02 9.86 22.02 9 21.48 8.239999999999998 21.009999999999998 7.859999999999999 20.759999999999998 7.4399999999999995 20.49 6.989999999999999 20.36A2.32 2.32 0 0 0 5.569999999999999 20.33 6.11 6.11 0 0 0 4.629999999999999 20.72 12 12 0 0 0 15.36 27.36 12 12 0 0 0 26.09 20.71 6.08 6.08 0 0 0 25.15 20.32 2.32 2.32 0 0 0 23.74 20.33C23.28 20.49 22.86 20.759999999999998 22.48 21.009999999999998 21.72 21.48 20.86 22.02 19.78 22.02 18.16 22.02 17.03 21.06 16.66 19.36 16.36 18.07 15.36 13.149999999999999 15.36 13.149999999999999Z" /></svg>