<svg xmlns="http://www.w3.org/2000/svg" width="100%" height="100%" viewBox="0 0 30.72 30.72"><path d="M7.039999999999999 21.33a9.293 9.293 0 0 1-0.888-7.527 0.54 0.54 0 0 0-0.354-0.676l-1.232-0.383a0.54 0.54 0 0 0-0.673 0.35H3.8909999999999996a11.66 11.66 0 0 0 1.115 9.452h0.002a0.54 0.54 0 0 0 0.738 0.182l1.105-0.663a0.54 0.54 0 0 0 0.19-0.735zM27.36 16.58c0-1.187-0.178-2.357-0.53-3.48h0.001l-0.001-0.003-0.001-0.004a0.54 0.54 0 0 0-0.674-0.349l-1.23 0.383a0.54 0.54 0 0 0-0.356 0.674l-0.001 0.001c0.279 0.896 0.422 1.83 0.422 2.778a9.25 9.25 0 0 1-1.31 4.75 0.54 0.54 0 0 0 0.188 0.738l1.106 0.663a0.54 0.54 0 0 0 0.74-0.185A11.624 11.624 0 0 0 27.36 16.58m-3.29 0.042c0-4.803-3.907-8.71-8.71-8.71-4.802 0-8.71 3.907-8.71 8.71 0 2.222 0.838 4.338 2.361 5.96a0.54 0.54 0 0 0 0.763 0.022l0.939-0.884a0.54 0.54 0 0 0 0.025-0.76 6.317 6.317 0 0 1-1.718-4.338A6.346 6.346 0 0 1 15.36 10.282a6.347 6.347 0 0 1 6.34 6.34c0 1.616-0.61 3.157-1.72 4.337l0.003 0.002a0.54 0.54 0 0 0 0.026 0.76l0.94 0.883a0.54 0.54 0 0 0 0.762-0.023h-0.001a8.676 8.676 0 0 0 2.36-5.96z" /></svg>