<svg xmlns="http://www.w3.org/2000/svg" width="100%" height="100%" viewBox="0 0 30.72 30.72"><path d="M15.36 3.3599999999999994C10.12 3.3599999999999994 6.5084 5.849499999999999 6.5084 15.36S10.12 27.36 15.36 27.36c5.24 0 8.8516-2.4895 8.8516-12S20.599999999999998 3.3599999999999994 15.36 3.3599999999999994z m-0.7773 1.6816l6.2148 6.2149L16.694 15.36l4.1035 4.1035-6.2148 6.2149V17.485l-3.418 3.42-1.2422-1.2442L14.2115 15.36l-4.289-4.3008 1.2422-1.2441 3.418 3.4199V5.041599999999999z m1.748 4.2442v3.9687l1.9844-1.9843-1.9844-1.9844z m0 8.1816v3.9668l1.9844-1.9844-1.9844-1.9824Z" /></svg>