<svg xmlns="http://www.w3.org/2000/svg" width="100%" height="100%" viewBox="0 0 30.72 30.72"><path d="M15.87 16.573999999999998c0.046-0.8 0.438-1.506 1.03-2.006a3.424 3.424 0 0 1 2.212-0.79c0.85 0 1.631 0.3 2.211 0.79 0.592 0.5 0.983 1.206 1.028 2.005 0.045 0.823-0.285 1.586-0.865 2.153a3.389 3.389 0 0 1-2.374 0.938 3.393 3.393 0 0 1-2.376-0.938c-0.58-0.567-0.91-1.33-0.865-2.152M10.709999999999999 18.191c0.006 0.314 0.106 0.922 0.256 1.398a7.372 7.372 0 0 0 1.593 2.757 8.227 8.227 0 0 0 2.787 2.001 8.947 8.947 0 0 0 3.66 0.76 8.964 8.964 0 0 0 3.657-0.772 8.285 8.285 0 0 0 2.785-2.01 7.428 7.428 0 0 0 1.592-2.762 6.964 6.964 0 0 0 0.25-3.074 7.123 7.123 0 0 0-1.016-2.779 7.764 7.764 0 0 0-1.852-2.043h0.002L16.926000000000002 5.909999999999999l-0.02-0.015c-0.492-0.378-1.319-0.376-1.86 0.002-0.547 0.382-0.609 1.015-0.123 1.415l-0.001 0.001 3.126 2.543-9.53 0.01h-0.013c-0.788 0.001-1.545 0.518-1.695 1.172-0.154 0.665 0.38 1.217 1.2 1.22V12.26l4.83-0.01-8.62 6.617-0.034 0.025c-0.813 0.622-1.075 1.658-0.563 2.313 0.52 0.667 1.625 0.668 2.447 0.004L10.774 17.36s-0.069 0.52-0.063 0.831z m12.09 1.741c-0.97 0.988-2.326 1.548-3.795 1.55-1.47 0.004-2.827-0.552-3.797-1.538a4.51 4.51 0 0 1-1.036-1.622 4.282 4.282 0 0 1 0.282-3.519 4.702 4.702 0 0 1 1.153-1.371c0.942-0.768 2.141-1.183 3.396-1.185 1.256-0.002 2.455 0.41 3.398 1.175 0.48 0.391 0.87 0.854 1.152 1.367a4.28 4.28 0 0 1 0.522 1.706 4.236 4.236 0 0 1-0.239 1.811 4.54 4.54 0 0 1-1.035 1.626" /></svg>