<svg xmlns="http://www.w3.org/2000/svg" width="100%" height="100%" viewBox="0 0 30.72 30.72"><path d="M21.04 6.169c3.392 0 6.32 2.788 6.32 6.228 0 6.71-6.6 12.158-12 12.158S3.3599999999999994 19.107999999999997 3.3599999999999994 12.397c0-3.44 2.928-6.228 6.32-6.228 4.128 0 5.578 3.179 5.68 3.411a6.079 6.079 0 0 1 5.67-3.411z m1.078 6.488V12.469999999999999h-2.38v0.186c0 2.352-1.97 4.276-4.378 4.276-2.417 0-4.369-1.924-4.369-4.276V12.469999999999999H8.593v0.186c0 1.766 0.697 3.42 1.98 4.666a6.795 6.795 0 0 0 4.778 1.933 6.797 6.797 0 0 0 4.777-1.933 6.488 6.488 0 0 0 1.98-4.666Z" /></svg>