<svg xmlns="http://www.w3.org/2000/svg" width="100%" height="100%" viewBox="0 0 30.72 30.72"><path d="M19.952099999999998 12.556199999999999s-0.354-3.298-3.627-3.39c-3.2741-0.09-4.9552 2.474-4.9552 6.14 0 3.6651 1.858 6.5972 5.0451 6.5972 3.184 0 3.5381-3.665 3.5381-3.665l6.1041 0.365s0.36 3.31-2.196 5.836c-2.552 2.5241-5.6901 2.9371-7.8762 2.9201-2.19-0.017-5.2261 0.034-8.1602-2.97-2.938-3.0101-3.436-5.9302-3.436-8.8002 0-2.8701 0.556-6.6702 4.047-9.5502C10.803999999999998 4.079999999999999 13.209 3.3599999999999994 15.613999999999999 3.3599999999999994c10.0422 0 10.7172 9.2602 10.7172 9.2602z" /></svg>