<svg xmlns="http://www.w3.org/2000/svg" width="100%" height="100%" viewBox="-3 -3 30 30"><path d="M1.072.142A1.072 1.072 0 000 1.214v21.572a1.072 1.072 0 001.072 1.072h21.856A1.072 1.072 0 0024 22.786V1.214A1.072 1.072 0 0022.928.142zm9.736 1.818a.904.904 0 01.828.539.784.784 0 011.274.493.639.639 0 01.29-.06c.33.008.59.262.625.575a1.322 1.322 0 01.624-.515 1.325 1.325 0 011.718.71 1.098 1.098 0 01.306-.236 1.102 1.102 0 011.483.479 1.094 1.094 0 01.12.47.994.994 0 011.322 1.214.904.904 0 01.874 1.438.784.784 0 01.176 1.356.639.639 0 01.19.224.642.642 0 01-.011.613 1.326 1.326 0 01.482.235 1.334 1.334 0 01.258 1.842 1.098 1.098 0 01.35.15 1.102 1.102 0 01.337 1.516 1.094 1.094 0 01-.344.344.994.994 0 01.228 1.318 1.006 1.006 0 01-.605.434.904.904 0 01-.803 1.482.814.814 0 00-.008-.04.784.784 0 01-1.075.873.639.639 0 01-.098.28.625.625 0 01-.43.288 1.33 1.33 0 01.023.456 1.334 1.334 0 01-1.44 1.173 1.098 1.098 0 01.054.377 1.102 1.102 0 01-1.128 1.072 1.098 1.098 0 01-.47-.12.994.994 0 01-1.696.583.904.904 0 01-1.685.075.784.784 0 01-1.274-.493.639.639 0 01-.29.064.64.64 0 01-.621-.58l.004-.007a1.326 1.326 0 01-.632.523 1.334 1.334 0 01-1.718-.706 1.098 1.098 0 01-.306.232 1.102 1.102 0 01-1.48-.478 1.094 1.094 0 01-.123-.471.994.994 0 01-1.318-1.21.904.904 0 01-.874-1.442.784.784 0 01-.176-1.356.639.639 0 01-.194-.224.642.642 0 01.011-.61l.019.004a1.326 1.326 0 01-.497-.239 1.334 1.334 0 01-.262-1.845 1.098 1.098 0 01-.35-.146 1.102 1.102 0 01-.337-1.52 1.094 1.094 0 01.347-.34A.994.994 0 012.88 9a.904.904 0 01.803-1.48.784.784 0 011.083-.836.639.639 0 01.098-.28.649.649 0 01.433-.288 1.33 1.33 0 01-.026-.452A1.334 1.334 0 016.716 4.49a1.098 1.098 0 01-.06-.377 1.101 1.101 0 011.13-1.073 1.094 1.094 0 01.47.115.994.994 0 011.696-.579.904.904 0 01.857-.617zM3.683 7.519a.784.784 0 00.008.041l-.004-.04a.904.904 0 00-.004-.001zM17.502 19.61a1.098 1.098 0 00-.002-.004h-.037a1.334 1.334 0 00.039.004zM13.825 3.507a1.322 1.322 0 00-.008.012l.008-.011zm-2.369-.014l-.003.003a.9.9 0 01-.665.27.896.896 0 01-.583-.232.994.994 0 01-.986.732.99.99 0 01-.362-.075 1.098 1.098 0 01-1.061 1.046 1.326 1.326 0 01.123.736 1.334 1.334 0 01-.725 1.035 1.1 1.1 0 01.307.795 1.106 1.106 0 01-.232.65c.321.18.53.523.523.915a1.016 1.016 0 01-.07.337.915.915 0 01.82.937.923.923 0 01-.01.138.74.74 0 01.157-.01c.343.007.627.25.702.57a.661.661 0 01.38-.111c.31.007.561.224.632.511a.418.418 0 01.381-.015 1.352 1.352 0 01.303-.63.418.418 0 01-.12-.143.422.422 0 01.004-.392.665.665 0 01-.325-1.117.736.736 0 01-.359-.336.74.74 0 01.385-1.023.747.747 0 00-.06.026.915.915 0 01-.201-.262.915.915 0 01.623-1.315V6.53a1.02 1.02 0 01.437-1.371 1.012 1.012 0 01.553-.112 1.11 1.11 0 01.598-1.054 1.12 1.12 0 01.06-.026.642.642 0 01-.109-.21.784.784 0 01-.455.132.784.784 0 01-.662-.396zm4.573 1.512a1.326 1.326 0 01-.587.46 1.334 1.334 0 01-1.255-.142v-.011a1.11 1.11 0 01-.553.66 1.106 1.106 0 01-.683.113 1.02 1.02 0 01-.553.889 1.016 1.016 0 01-.329.105.918.918 0 01-.43 1.169.923.923 0 01-.127.056.74.74 0 01.086.13.738.738 0 01-.168.89.661.661 0 01.28.283.655.655 0 01-.149.796.418.418 0 01.153.164c.019.034.03.068.038.101a1.356 1.356 0 01.672-.015.422.422 0 01.056-.142.422.422 0 01.34-.194.665.665 0 01.796-.848.736.736 0 01.112-.478.733.733 0 011.016-.224.915.915 0 01.127-.306.915.915 0 011.27-.28.915.915 0 01.179.153 1.02 1.02 0 011.408-.314 1.012 1.012 0 01.374.422c.355-.24.833-.261 1.214-.015a1.11 1.11 0 01.209.172.642.642 0 01.082-.108.784.784 0 01-.332-.337.784.784 0 01.03-.77.9.9 0 01-.553-.455.896.896 0 01-.075-.624.994.994 0 01-1.117-.511.994.994 0 01-.104-.359 1.098 1.098 0 01-1.427-.43zM5.249 7.37a.784.784 0 01-.124.46.784.784 0 01-.68.362c.06.235.026.49-.112.71a.896.896 0 01-.5.377c.31.325.373.829.12 1.225a.99.99 0 01-.255.269 1.098 1.098 0 01.351 1.45 1.326 1.326 0 01.691.276 1.334 1.334 0 01.512 1.154c.28-.064.579-.019.84.15a1.106 1.106 0 01.438.53 1.02 1.02 0 011.05.03 1.016 1.016 0 01.257.231.914.914 0 011.225-.224.919.919 0 01.112.086.74.74 0 01.071-.142.74.74 0 01.852-.306.661.661 0 01.1-.381.664.664 0 01.763-.273.418.418 0 01.246-.373 1.36 1.36 0 01-.358-.523v-.008a.418.418 0 01-.25.075.422.422 0 01-.344-.19.665.665 0 01-1.132-.243.736.736 0 01-.47.149.733.733 0 01-.718-.755.915.915 0 01-.329.049.915.915 0 01-.855-1.177h-.004a1.016 1.016 0 01-.993-1.042 1.012 1.012 0 01.168-.534 1.11 1.11 0 01-.64-1.035 1.11 1.11 0 01.068-.358.65.65 0 01-.1-.019zm11.127 2.133a.913.913 0 01-1.225.224.926.926 0 01-.112-.082.74.74 0 01-.067.142.74.74 0 01-.852.302.661.661 0 01-.105.385.662.662 0 01-.762.277.418.418 0 01-.063.212.426.426 0 01-.075.086 1.356 1.356 0 01.314.564.418.418 0 01.187-.04.422.422 0 01.343.194.665.665 0 011.136.242.736.736 0 01.467-.153c.41.008.728.348.72.755a.74.74 0 010 .008v-.005a.915.915 0 01.326-.052.915.915 0 01.896.941.919.919 0 01-.037.236c.564.015 1.008.482.993 1.046a1.012 1.012 0 01-.168.534 1.11 1.11 0 01.647 1.035 1.11 1.11 0 01-.075.362l.004-.007.1.018a.784.784 0 01.124-.46.784.784 0 01.68-.362.9.9 0 01.112-.71.896.896 0 01.504-.373.994.994 0 01-.123-1.225.99.99 0 01.257-.269 1.098 1.098 0 01-.35-1.453 1.326 1.326 0 01-.696-.273h-.003a1.334 1.334 0 01-.512-1.158 1.082 1.082 0 01-.837-.145 1.106 1.106 0 01-.44-.535 1.02 1.02 0 01-1.05-.026 1.016 1.016 0 01-.258-.235zm-.094 3.116l-.007.066a.74.74 0 00.007-.066zm-2.864-.259a1.36 1.36 0 01-.363.598.418.418 0 01.194.187.422.422 0 01-.007.396.665.665 0 01.329 1.113.736.736 0 01.358.336.739.739 0 01-.32.994.915.915 0 01.197.261.91.91 0 01-.396 1.233.919.919 0 01-.224.082v.004a1.02 1.02 0 01-.44 1.374 1.012 1.012 0 01-.55.109 1.11 1.11 0 01-.661 1.083.642.642 0 01.112.21.026.026 0 01-.004 0v.003a.784.784 0 01.456-.134.784.784 0 01.661.392.9.9 0 01.665-.27.896.896 0 01.587.236.994.994 0 01.982-.736.99.99 0 01.362.079v.022a1.1 1.1 0 011.061-1.072 1.326 1.326 0 01-.123-.736c.056-.46.34-.837.725-1.035l.003.004a1.102 1.102 0 01-.31-.795 1.106 1.106 0 01.232-.654 1.02 1.02 0 01-.452-1.251.915.915 0 01-.822-.934.923.923 0 01.011-.142.74.74 0 01-.157.015.74.74 0 01-.698-.572.661.661 0 01-.385.112.667.667 0 01-.627-.512.418.418 0 01-.217.053.418.418 0 01-.18-.045zm-.964.93a1.36 1.36 0 01-.336.042c-.112 0-.22-.012-.322-.038a.418.418 0 01-.06.295.422.422 0 01-.343.195.665.665 0 01-.792.844.736.736 0 01-.112.478.74.74 0 01-1.02.224.915.915 0 01-.127.306.915.915 0 01-1.266.28.919.919 0 01-.183-.153v.004a1.02 1.02 0 01-1.408.31 1.012 1.012 0 01-.374-.418c-.355.239-.83.261-1.214.015a1.113 1.113 0 01-.21-.172.65.65 0 01-.081.105.784.784 0 01.336.336.784.784 0 01-.034.77.89.89 0 01.553.455.896.896 0 01.075.624.994.994 0 011.12.515.99.99 0 01.101.355 1.098 1.098 0 011.431.43 1.326 1.326 0 01.587-.46c.43-.172.896-.104 1.255.142a1.106 1.106 0 01.549-.65 1.106 1.106 0 01.683-.108 1.02 1.02 0 01.553-.893 1.02 1.02 0 01.333-.104.916.916 0 01.425-1.17.919.919 0 01.131-.052.736.736 0 01-.09-.134.738.738 0 01.169-.886.661.661 0 01-.28-.284.67.67 0 01.149-.799.418.418 0 01-.15-.164.418.418 0 01-.048-.24z"/></svg>