<svg xmlns="http://www.w3.org/2000/svg" width="100%" height="100%" viewBox="-3.36 -3.36 30.72 30.72"><path d="M2.303 0A2.298 2.298 0 000 2.303v19.394A2.298 2.298 0 002.303 24h19.394A2.298 2.298 0 0024 21.697V2.303A2.298 2.298 0 0021.697 0zm8.177 3.072c4.098 0 7.028 1.438 7.68 1.764l-1.194 2.55c-2.442-1.057-4.993-1.41-5.672-1.41-1.574 0-2.17.922-2.17 1.763v8.494c0 .869.596 1.791 2.17 1.791.679 0 3.23-.38 5.672-1.41l1.194 2.496c-.435.271-3.637 1.818-7.68 1.818-1.112 0-4.64-.244-4.64-4.64V7.713c0-4.397 3.528-4.64 4.64-4.64z"/></svg>