<svg xmlns="http://www.w3.org/2000/svg" width="100%" height="100%" viewBox="0 0 30.72 30.72"><path d="M27.3562 18.874c0 2.0638-2.6676 3.0547-4.0789 0.6576-0.1012-0.173-2.3252-4.0032-2.3252-4.0032v3.3457c0 2.0637-2.6663 3.0546-4.0776 0.6575-0.1025-0.173-2.3253-4.0032-2.3253-4.0032v3.1547c0 1.4318-0.8498 2.2073-2.1791 2.2073H8.889899999999999a5.5299 5.5299 0 0 1 0-11.0598h1.7946v1.328H8.889899999999999a4.2019 4.2019 0 1 0 0 8.4038h3.4494a0.8973 0.8973 0 0 0 0.8794-0.878V11.883999999999999a0.2692 0.2692 0 0 1 0.1935-0.273c0.141-0.0384 0.2897 0.0487 0.3987 0.2333l2.1522 3.7084c1.251 2.1573 2.0728 3.5738 2.083 3.5892 0.2807 0.4742 0.6986 0.5576 0.9973 0.4755a0.7973 0.7973 0 0 0 0.582-0.787v-6.945a0.2705 0.2705 0 0 1 0.191-0.2744c0.1397-0.0384 0.287 0.0487 0.3947 0.2333l1.9946 3.4366 2.242 3.8648c0.2191 0.3717 0.5242 0.5038 0.7896 0.5038a0.7691 0.7691 0 0 0 0.2063-0.0282 0.7986 0.7986 0 0 0 0.591-0.791V9.8307H27.36zM11.362599999999999 17.3295V11.845699999999999c0-2.0638 2.6675-3.0546 4.0788-0.6563 0.1025 0.173 2.3253 4.002 2.3253 4.002V11.8456c0-2.0638 2.6662-3.0546 4.0775-0.6563 0.1026 0.173 2.3253 4.002 2.3253 4.002V9.8305H25.5v8.9999a0.2705 0.2705 0 0 1-0.1935 0.2743c-0.141 0.0384-0.2897-0.0487-0.3987-0.2333a1360.4277 1360.4277 0 0 1-2.2406-3.8622l-1.9946-3.434c-0.2794-0.4744-0.696-0.5577-0.9921-0.477a0.7986 0.7986 0 0 0-0.5833 0.7858v6.9464a0.2718 0.2718 0 0 1-0.1935 0.2743c-0.1423 0.0384-0.291-0.0487-0.3987-0.2333-0.0192-0.032-1.069-1.8407-2.083-3.5892a6211.7971 6211.7971 0 0 0-2.1535-3.711c-0.2794-0.4755-0.6973-0.5575-0.996-0.4768a0.7999 0.7999 0 0 0-0.5845 0.7858v6.8002a0.3717 0.3717 0 0 1-0.3487 0.3474h-3.452a3.6712 3.6712 0 0 1 0-7.3424H10.681999999999999v1.328H8.9027a2.3432 2.3432 0 1 0 0 4.6864H10.995999999999999a0.364 0.364 0 0 0 0.3666-0.3705Z" /></svg>