<svg xmlns="http://www.w3.org/2000/svg" width="100%" height="100%" viewBox="0 0 30.72 30.72"><path d="M24.046 10.962c0.321-1.964-1.203-3.778-3.21-3.778-0.91 0-1.733 0.376-2.325 0.977a1.132 1.132 0 0 0-1.061-0.744c-0.63 0-1.141 0.51-1.141 1.14s0.429 0.909 1.34 1.335a5.884 5.884 0 0 1 0.813 0.46c0.275 0.184 0.534 0.388 0.776 0.612A6.02 6.02 0 0 1 21.156 15.36a6.02 6.02 0 0 1-2.694 5.008 6.16 6.16 0 0 1-0.813 0.46c-0.911 0.427-1.34 0.704-1.34 1.335 0 0.63 0.51 1.141 1.14 1.141 0.492 0 0.9-0.312 1.062-0.744 0.592 0.6 1.414 0.976 2.325 0.976 2.025 0 3.527-1.81 3.21-3.778C25.97 19.201999999999998 27.36 17.386 27.36 15.360999999999999c0-2.038-1.382-3.837-3.314-4.399zM13.071 20.828a6.193 6.193 0 0 1-1.589-1.073A6.02 6.02 0 0 1 9.564 15.36a6.02 6.02 0 0 1 1.918-4.395 6.22 6.22 0 0 1 1.589-1.072c0.91-0.427 1.34-0.704 1.34-1.335s-0.51-1.141-1.14-1.141c-0.492 0-0.9 0.312-1.062 0.744a3.257 3.257 0 0 0-2.325-0.976c-2.003 0-3.536 1.807-3.21 3.778C4.741 11.524 3.3599999999999994 13.322 3.3599999999999994 15.36c0 2.028 1.38 3.836 3.314 4.397-0.323 1.954 1.198 3.778 3.21 3.778 0.91 0 1.733-0.375 2.325-0.976 0.162 0.432 0.57 0.744 1.061 0.744 0.63 0 1.141-0.51 1.141-1.14 0-0.631-0.429-0.909-1.34-1.335zM15.36 11.802999999999999a3.557 3.557 0 1 1 0 7.114 3.557 3.557 0 0 1 0-7.114z" /></svg>