<svg xmlns="http://www.w3.org/2000/svg" width="100%" height="100%" viewBox="0 0 30.72 30.72"><path d="M21.503999999999998 16.427v-2.134L19.91 15.36z m1.276 1.194a0.628 0.628 0 0 1-0.006 0.083l-0.005 0.028-0.011 0.053-0.01 0.031c-0.005 0.016-0.01 0.031-0.017 0.047l-0.014 0.03a0.78 0.78 0 0 1-0.021 0.043l-0.019 0.03a0.57 0.57 0 0 1-0.08 0.1l-0.026 0.025a0.602 0.602 0 0 1-0.036 0.03l-0.029 0.022-0.01 0.008-6.782 4.522a0.637 0.637 0 0 1-0.708 0L8.224 18.15l-0.01-0.008a0.599 0.599 0 0 1-0.065-0.052l-0.026-0.025-0.032-0.034-0.021-0.028a0.588 0.588 0 0 1-0.067-0.11l-0.014-0.031a0.644 0.644 0 0 1-0.017-0.047l-0.01-0.03c-0.004-0.018-0.008-0.036-0.01-0.054l-0.006-0.028a0.628 0.628 0 0 1-0.006-0.083V13.099c0-0.028 0.002-0.055 0.006-0.083l0.005-0.027 0.011-0.054 0.01-0.03a0.574 0.574 0 0 1 0.12-0.217l0.031-0.034 0.026-0.025a0.62 0.62 0 0 1 0.065-0.052l0.01-0.008 6.782-4.521a0.638 0.638 0 0 1 0.708 0l6.782 4.521 0.01 0.008 0.03 0.022 0.035 0.03c0.01 0.008 0.017 0.016 0.026 0.025a0.545 0.545 0 0 1 0.08 0.1l0.019 0.03a0.633 0.633 0 0 1 0.021 0.043l0.014 0.03c0.007 0.016 0.012 0.032 0.017 0.047l0.01 0.031c0.004 0.018 0.008 0.036 0.01 0.054l0.006 0.027a0.619 0.619 0 0 1 0.006 0.083zM15.36 3.3599999999999994C8.733 3.3599999999999994 3.3599999999999994 8.732 3.3599999999999994 15.36 3.3599999999999994 21.987 8.733 27.36 15.36 27.36c6.628 0 12-5.372 12-12 0-6.627-5.372-12-12-12m0 10.492L13.104999999999999 15.36 15.36 16.869999999999997 17.615000000000002 15.36z m0.638 4.124v2.975l4.996-3.33-2.232-1.493z m-6.272-0.356l4.996 3.33v-2.974l-2.764-1.849z m11.268-4.52l-4.996-3.33v2.974l2.764 1.85z m-6.272-0.356V9.77L9.725999999999999 13.1l2.232 1.493z m-5.506 1.549v2.134L10.809999999999999 15.36Z" /></svg>