<svg xmlns="http://www.w3.org/2000/svg" width="100%" height="100%" viewBox="0 0 30.72 30.72"><path d="M8.004999999999999 10.832c2.1 0.53 4.779 0.8 8.008 0.8 3.299 0 5.918-0.27 8.008-0.8 2.23-0.52 3.299-1.22 3.299-1.88 0-0.47-0.48-0.93-1.35-1.28 0.2 0.13 0.35 0.35 0.35 0.59 0 0.67-1.01 1.22-3.039 1.68-1.88 0.41-4.279 0.7-7.198 0.7-2.82 0-5.329-0.29-7.138-0.68-1.95-0.48-2.97-1-2.97-1.68 0-0.28 0.13-0.52 0.52-0.8-1.22 0.47-1.88 0.87-1.88 1.47 0.07 0.68 1.16 1.36 3.39 1.88z m4.689-2.16c2.27-0.2 2.929-1.659 5.588-1.899 1.31-0.1 2.14 0.16 2.23 0.62 0.08 0.43-0.57 0.72-1.36 0.78-1.09 0.11-1.54-0.28-1.63-0.65-0.81 0.09-0.94 0.43-0.9 0.67 0.09 0.46 1.07 0.92 2.75 0.76 1.9-0.15 2.54-0.9 2.38-1.65-0.2-0.98-1.66-1.8-4.28-1.55-3.359 0.3-3.339 1.86-5.628 2.05-0.94 0.09-1.46-0.13-1.55-0.5-0.06-0.37 0.4-0.55 0.94-0.59 0.5-0.05 1.11 0.04 1.4 0.2 0.21-0.11 0.28-0.22 0.26-0.35-0.1-0.35-0.79-0.5-1.66-0.44-1.7 0.15-1.7 0.91-1.64 1.25 0.17 0.87 1.48 1.45 3.1 1.3z m11.417 3.84c-2.1 0.49-4.779 0.809-8.008 0.809-3.3 0-5.989-0.34-8.078-0.8-1.88-0.48-2.88-1.01-3.23-1.56 0.18 1.23 0.49 2.42 0.89 3.55-0.48 0.3-0.91 0.67-1.3 1.17a4.519 4.519 0 0 0-1.019 3.098 3.6 3.599 0 0 0 1.42 2.62c0.87 0.68 1.81 0.88 2.879 0.68 0.41-0.07 0.87-0.28 1.29-0.42-0.88 0-1.62-0.28-2.36-0.87a3.55 3.549 0 0 1-1.49-2.42c-0.2-0.94 0-1.81 0.53-2.579 0.12-0.15 0.25-0.28 0.39-0.4 0.3 0.73 0.62 1.45 0.98 2.12 0.81 1.23 1.62 2.299 2.43 3.459 0.35 0.68 0.58 1.35 0.74 2.019a3.899 3.899 0 0 0 2.229 1.5c1.15 0.4 2.35 0.58 3.579 0.51h0.13a10.197 10.197 0 0 0 3.689-0.52 4.179 4.179 0 0 0 2.16-1.49h0.07c0.13-0.67 0.35-1.34 0.67-2.02 0.799-1.17 1.619-2.229 2.419-3.458A20.995 20.993 0 0 0 27.36 10.972c-0.43 0.6-1.44 1.13-3.25 1.54z" /></svg>