<svg xmlns="http://www.w3.org/2000/svg" width="100%" height="100%" viewBox="0 0 30.72 30.72"><path d="M24.148 7.191999999999999c-0.101-0.105-0.197-0.213-0.301-0.317-0.103-0.103-0.211-0.202-0.32-0.302A11.903 11.903 0 0 0 15.36 3.3599999999999994a11.926 11.926 0 0 0-8.486 3.514C2.297999999999999 11.45 2.1999999999999993 18.83 6.5729999999999995 23.528c0.099 0.108 0.197 0.214 0.3 0.32 0.104 0.103 0.21 0.2 0.317 0.3A11.92 11.92 0 0 0 15.36 27.36c3.206 0 6.22-1.247 8.487-3.512 4.576-4.576 4.673-11.956 0.301-16.656z m-16.655 0.301A11.057 11.057 0 0 1 15.36 4.233999999999999c2.825 0 5.49 1.048 7.55 2.958l-1.001 1.002A9.646 9.646 0 0 0 15.36 5.651999999999999a9.644 9.644 0 0 0-6.865 2.844A9.644 9.644 0 0 0 5.651999999999999 15.36c0 2.448 0.9 4.753 2.542 6.549L7.190999999999999 22.91C3.1589999999999994 18.551000000000002 3.2589999999999995 11.727 7.492999999999999 7.492999999999999z m13.798 1.318v0.002l-1.015 1.014A7.346 7.346 0 0 0 15.36 7.949 7.357 7.357 0 0 0 10.120999999999999 10.12 7.362 7.362 0 0 0 7.949 15.36a7.34 7.34 0 0 0 1.877 4.913l-1.014 1.016A8.77 8.77 0 0 1 6.526999999999999 15.36a8.77 8.77 0 0 1 2.588-6.245A8.771 8.771 0 0 1 15.36 6.526999999999999c2.213 0 4.301 0.809 5.931 2.284zM21.897 15.36c0 1.745-0.681 3.387-1.916 4.622S17.106 21.898 15.36 21.898a6.491 6.491 0 0 1-4.296-1.621l-0.001-0.004c-0.11-0.094-0.22-0.188-0.324-0.291a6.027 6.027 0 0 1-0.293-0.326A6.47 6.47 0 0 1 8.826 15.36c0-1.746 0.679-3.387 1.914-4.621A6.488 6.488 0 0 1 15.36 8.825c1.599 0 3.105 0.576 4.295 1.62 0.111 0.096 0.224 0.19 0.326 0.295 0.104 0.104 0.2 0.214 0.295 0.324A6.482 6.482 0 0 1 21.897 15.36zM10.443999999999999 20.894h0.001A7.349 7.349 0 0 0 15.36 22.773a7.35 7.35 0 0 0 5.239-2.174A7.354 7.354 0 0 0 22.772 15.36a7.364 7.364 0 0 0-1.876-4.916l1.013-1.012A8.777 8.777 0 0 1 24.194 15.36a8.765 8.765 0 0 1-2.589 6.246A8.764 8.764 0 0 1 15.36 24.194a8.782 8.782 0 0 1-5.93-2.285l1.014-1.015z m12.783 2.333A11.046 11.046 0 0 1 15.36 26.485a11.042 11.042 0 0 1-7.551-2.957l1.004-1.001a9.64 9.64 0 0 0 6.549 2.542 9.639 9.639 0 0 0 6.865-2.846A9.642 9.642 0 0 0 25.07 15.36a9.64 9.64 0 0 0-2.543-6.548l1.001-1.002c4.031 4.359 3.935 11.182-0.301 15.417z" /></svg>