<svg xmlns="http://www.w3.org/2000/svg" width="100%" height="100%" viewBox="0 0 30.72 30.72"><path d="M23.094 14.963c0.078 0.376 0.116 0.76 0.116 1.144 0 1.44-0.562 2.846-1.556 3.889-0.989 1.037-2.358 1.668-3.789 1.741-1.445 0.074-2.885-0.418-3.979-1.365-1.079-0.933-1.776-2.265-1.921-3.684-0.148-1.445 0.273-2.914 1.17-4.057 0.877-1.118 2.168-1.879 3.574-2.095 1.439-0.222 2.934 0.127 4.123 0.97C21.987 12.325 22.808 13.574 23.094 14.963zM27.36 9.36v12c0 3.314-2.686 6-6 6H9.36c-3.314 0-6-2.686-6-6V9.36c0-3.314 2.686-6 6-6h12C24.674 3.3599999999999994 27.36 6.045999999999999 27.36 9.36zM25.188 12.843c-0.465-1.398-1.274-2.674-2.334-3.697-1.025-0.988-2.279-1.731-3.639-2.152 0.159 0.423 0.239 0.874 0.238 1.326-1.109-1.455-2.809-2.4-4.632-2.564-1.112-0.1-2.245 0.084-3.265 0.538 0.829 0.257 1.555 0.807 2.03 1.533C11.742999999999999 7.169 9.649999999999999 7.377 7.975 8.387999999999998 7.2909999999999995 8.800999999999998 6.683999999999999 9.34 6.190999999999999 9.969c1.151-0.247 2.375 0.069 3.262 0.843-0.74 0.709-1.754 1.087-2.778 1.039C6.828999999999999 12.102 7.012 12.333 7.218999999999999 12.54c-0.01 0.017-0.021 0.034-0.031 0.051-0.696 0.314-1.288 0.842-1.68 1.496-0.438 0.729-0.613 1.6-0.498 2.442 0.066 0.481 0.226 0.947 0.469 1.367-0.108-0.934 0.684-1.758 1.622-1.686 0.921 0.071 1.576 0.983 1.351 1.88-0.16 0.635-0.732 1.107-1.386 1.142 0.87 1.547 2.362 2.701 4.08 3.146 0.608 0.157 1.238 0.226 1.866 0.206-0.471 0.358-1.029 0.608-1.637 0.711 1.493 1.016 3.275 1.567 5.08 1.578 1.455 0.009 2.905-0.33 4.202-0.991 1.249-0.636 2.345-1.562 3.184-2.684 0.851-1.139 1.43-2.475 1.676-3.876C25.777 15.831999999999999 25.665 14.279 25.188 12.843z" /></svg>