<svg xmlns="http://www.w3.org/2000/svg" width="100%" height="100%" viewBox="0 0 30.72 30.72"><path d="M15.36 3.3969999999999994C8.733 3.3969999999999994 3.3599999999999994 8.754 3.3599999999999994 15.36c0 6.606 5.373 11.963 12 11.963 6.628 0 12-5.357 12-11.963C27.36 8.754 21.987 3.3969999999999994 15.36 3.3969999999999994z m-0.541 4.8c1.91-0.13 3.876 0.395 5.432 1.934 1.426 1.437 2.51 3.44 2.488 5.317h2.133l-4.444 4.963-4.445-4.963h2.313c-0.001-1.724-0.427-2.742-1.78-4.076-1.325-1.336-2.667-2.11-4.978-2.303a9.245 9.245 0 0 1 3.281-0.871zM10.294 10.309999999999999l4.445 4.963H12.426c0 1.724 0.426 2.742 1.778 4.076 1.326 1.336 2.667 2.112 4.978 2.305-2.684 1.268-6.22 1.398-8.71-1.064-1.427-1.437-2.512-3.44-2.489-5.317H5.847999999999999L10.294 10.309999999999999Z" /></svg>