<svg xmlns="http://www.w3.org/2000/svg" width="100%" height="100%" viewBox="0 0 30.72 30.72"><path d="M15.343 3.3599999999999994c-3.292 0-6.19 1.217-8.428 3.485C4.609999999999999 9.178999999999998 3.3599999999999994 12.203999999999999 3.3599999999999994 15.36c0 3.189 1.217 6.148 3.522 8.45C9.187 26.11 12.181999999999999 27.36 15.343 27.36c3.16 0 6.222-1.25 8.593-3.583C26.175 21.573999999999998 27.36 18.647 27.36 15.36c0-3.255-1.186-6.214-3.458-8.483C21.598 4.577 18.634999999999998 3.3599999999999994 15.343 3.3599999999999994z m0.033 2.17c2.7 0 5.103 1.02 6.98 2.893 1.843 1.841 2.83 4.274 2.83 6.937 0 2.696-0.954 5.063-2.798 6.872-1.943 1.906-4.444 2.926-7.012 2.926-2.601 0-5.038-1.019-6.914-2.893-1.877-1.875-2.93-4.34-2.93-6.905 0-2.597 1.053-5.063 2.93-6.97 1.844-1.874 4.214-2.86 6.914-2.86zM12.04 11.638C10.082999999999998 11.638 8.524999999999999 13.02 8.524999999999999 15.36c0 2.38 1.465 3.722 3.581 3.722 1.358 0 2.516-0.744 3.155-1.874l-1.491-0.758c-0.333 0.798-0.839 1.037-1.478 1.037-1.105 0-1.61-0.917-1.61-2.126 0-1.21 0.426-2.127 1.61-2.127 0.32 0 0.96 0.173 1.332 0.97l1.597-0.838c-0.68-1.236-1.837-1.728-3.181-1.728z m6.932 0c-1.957 0-3.514 1.382-3.514 3.722 0 2.38 1.464 3.722 3.58 3.722 1.359 0 2.516-0.744 3.155-1.874l-1.49-0.758c-0.333 0.798-0.84 1.037-1.478 1.037-1.105 0-1.611-0.917-1.611-2.126 0-1.21 0.426-2.127 1.61-2.127 0.32 0 0.96 0.173 1.332 0.97l1.597-0.838c-0.68-1.236-1.837-1.728-3.181-1.728z" /></svg>