<svg xmlns="http://www.w3.org/2000/svg" width="100%" height="100%" viewBox="0 0 30.72 30.72"><path d="M26.95 6.834999999999999a5.1 5.1 0 0 0-3.05-3.05c-1.31-0.42-2.5-0.42-4.92-0.42H11.719999999999999c-2.4 0-3.61 0-4.9 0.4a5.1 5.1 0 0 0-3.05 3.06C3.3599999999999994 8.125 3.3599999999999994 9.325 3.3599999999999994 11.725v7.27c0 2.41 0 3.6 0.4 4.9a5.1 5.1 0 0 0 3.05 3.05c1.3 0.41 2.5 0.41 4.9 0.41h7.28c2.41 0 3.61 0 4.9-0.4a5.1 5.1 0 0 0 3.06-3.06c0.41-1.3 0.41-2.5 0.41-4.9v-7.25c0-2.41 0-3.61-0.41-4.91z m-6.17 4.63l-0.93 0.93a0.5 0.5 0 0 1-0.67 0.01 5 5 0 0 0-3.22-1.18c-0.97 0-1.94 0.32-1.94 1.21 0 0.9 1.04 1.2 2.24 1.65 2.1 0.7 3.84 1.58 3.84 3.64 0 2.24-1.74 3.78-4.58 3.95l-0.26 1.2a0.49 0.49 0 0 1-0.48 0.39H12.99l-0.09-0.01a0.5 0.5 0 0 1-0.38-0.59l0.28-1.27a6.54 6.54 0 0 1-2.88-1.57v-0.01a0.48 0.48 0 0 1 0-0.68l1-0.97a0.49 0.49 0 0 1 0.67 0c0.91 0.86 2.13 1.34 3.39 1.32 1.3 0 2.17-0.55 2.17-1.42 0-0.87-0.88-1.1-2.54-1.72-1.76-0.63-3.43-1.52-3.43-3.6 0-2.42 2.01-3.6 4.39-3.71l0.25-1.23a0.48 0.48 0 0 1 0.48-0.38h1.78l0.1 0.01c0.26 0.06 0.43 0.31 0.37 0.57l-0.27 1.37c0.9 0.3 1.75 0.77 2.48 1.39l0.02 0.02c0.19 0.2 0.19 0.5 0 0.68z" /></svg>