<svg xmlns="http://www.w3.org/2000/svg" width="100%" height="100%" viewBox="0 0 30.72 30.72"><path d="M12.322999999999999 15.36c0-1.584 1.284-2.855 2.855-2.855 1.572 0 2.856 1.284 2.856 2.855 0 1.572-1.284 2.856-2.856 2.856-1.57 0-2.855-1.284-2.855-2.856z m2.855-12C9.575 3.3599999999999994 4.882 7.199999999999999 3.5499999999999994 12.385c-0.01 0.036-0.01 0.07-0.01 0.12 0 0.313 0.252 0.576 0.575 0.576H8.95c0.23 0 0.433-0.13 0.517-0.333 0.997-2.16 3.18-3.672 5.712-3.672 3.466 0 6.286 2.82 6.286 6.287 0 3.47-2.82 6.29-6.29 6.29-2.53 0-4.714-1.5-5.71-3.673-0.097-0.19-0.29-0.336-0.517-0.336H4.114999999999999c-0.312 0-0.575 0.253-0.575 0.576 0 0.037 0.014 0.072 0.014 0.12C4.874 23.52 9.574 27.36 15.177999999999999 27.36c6.624 0 12-5.375 12-12 0-6.623-5.376-12-12-12z" /></svg>