<svg xmlns="http://www.w3.org/2000/svg" width="100%" height="100%" viewBox="0 0 30.72 30.72"><path d="M24.554 3.3599999999999994H6.1659999999999995A2.01 2.01 0 0 0 4.159999999999999 5.359999999999999v20c0 1.1 0.903 2 2.006 2h18.388a2.01 2.01 0 0 0 2.006-2v-0.933c-0.033-1.2-0.067-3.7-0.067-4.834 0-0.633-0.468-1.166-1.07-1.166-0.668 0-1.103 0.4-1.437 0.733-1.003 0.9-2.508 1.067-3.812 0.833-0.601-0.133-1.17-0.3-1.638-0.6-1.438-0.833-2.374-2.4-2.374-4.066 0-1.667 0.936-3.2 2.374-4.067 0.502-0.3 1.07-0.467 1.638-0.6 1.27-0.233 2.809-0.067 3.812 0.833 0.367 0.334 0.802 0.734 1.437 0.734 0.602 0 1.07-0.534 1.07-1.167 0-1.1 0.034-3.633 0.067-4.833V5.359999999999999c0-1.1-0.903-2-2.006-2Z" /></svg>