<svg xmlns="http://www.w3.org/2000/svg" width="100%" height="100%" viewBox="0 0 30.72 30.72"><path d="M19.8688 20.2047c0.1475-0.5068 0.0908-0.9707-0.1553-1.3154-0.2246-0.3164-0.6045-0.499-1.0615-0.5205l-8.6592-0.1123a0.1559 0.1559 0 0 1-0.1333-0.0713c-0.0283-0.042-0.0351-0.0986-0.021-0.1553 0.0278-0.084 0.1123-0.1484 0.2036-0.1562l8.7359-0.1123c1.0351-0.0489 2.1601-0.8868 2.5537-1.9136l0.499-1.3013c0.0215-0.0561 0.0293-0.1128 0.0147-0.168-0.5625-2.5463-2.835-4.4453-5.5499-4.4453-2.5039 0-4.6284 1.6177-5.3876 3.8614-0.4927-0.3658-1.1187-0.5625-1.794-0.499-1.2026 0.119-2.1665 1.083-2.2861 2.2856-0.0283 0.31-0.0069 0.6128 0.0635 0.894C4.928299999999999 16.531 3.3599999999999994 18.135399999999997 3.3599999999999994 20.112c0 0.1748 0.0142 0.3515 0.0352 0.5273 0.0141 0.083 0.0844 0.1475 0.1689 0.1475h15.9814c0.0909 0 0.1758-0.0645 0.2032-0.1553l0.12-0.4268z m2.7568-5.5634c-0.0771 0-0.1611 0-0.2383 0.0112-0.0566 0-0.1054 0.0415-0.127 0.0976l-0.3378 1.1744c-0.1475 0.5068-0.0918 0.9707 0.1543 1.3164 0.2256 0.3164 0.6055 0.498 1.0625 0.5195l1.8437 0.1133c0.0557 0 0.1055 0.0263 0.1329 0.0703 0.0283 0.043 0.0351 0.1074 0.0214 0.1562-0.0283 0.084-0.1132 0.1485-0.204 0.1553l-1.921 0.1123c-1.041 0.0488-2.1582 0.8867-2.5527 1.914l-0.1406 0.3585c-0.0283 0.0713 0.0215 0.1416 0.0986 0.1416h6.5977c0.0771 0 0.1474-0.0489 0.169-0.126 0.1122-0.4082 0.1757-0.837 0.1757-1.2803 0-2.6025-2.125-4.727-4.7344-4.727" /></svg>