<svg xmlns="http://www.w3.org/2000/svg" width="100%" height="100%" viewBox="-3 -3 30 30"><path d="M23.996 15.514c0 2.064-2.667 3.055-4.079.658l-2.325-4.004v3.346c0 2.064-2.666 3.055-4.077.658a4103.7 4103.7 0 01-2.326-4.004v3.155c0 1.432-.85 2.207-2.179 2.207H5.53a5.53 5.53 0 010-11.06h1.794V7.8H5.53a4.202 4.202 0 100 8.403h3.45a.897.897 0 00.879-.878v-6.8a.27.27 0 01.193-.273c.141-.038.29.049.399.233l2.152 3.709 2.083 3.589c.28.474.699.557.997.475a.797.797 0 00.582-.787V8.525a.27.27 0 01.191-.274c.14-.038.287.049.395.233l1.995 3.437 2.242 3.865c.219.371.524.503.79.503a.77.77 0 00.206-.028.799.799 0 00.59-.79v-9H24zM8.003 13.97V8.486c0-2.064 2.667-3.055 4.078-.657.103.173 2.326 4.002 2.326 4.002V8.486c0-2.064 2.666-3.055 4.077-.657.103.173 2.325 4.002 2.325 4.002v-5.36h1.331v9a.27.27 0 01-.194.274c-.14.038-.29-.049-.398-.234a1360.428 1360.428 0 01-2.24-3.862l-1.995-3.434c-.28-.474-.696-.557-.992-.477a.799.799 0 00-.584.786v6.946a.272.272 0 01-.193.275c-.143.038-.291-.049-.399-.234-.02-.032-1.069-1.84-2.083-3.589a6211.797 6211.797 0 00-2.154-3.71c-.279-.476-.697-.558-.995-.478a.8.8 0 00-.585.786v6.8a.372.372 0 01-.349.348H5.527a3.671 3.671 0 010-7.343h1.795v1.328h-1.78a2.343 2.343 0 100 4.687h2.094a.364.364 0 00.367-.37z"/></svg>