<svg xmlns="http://www.w3.org/2000/svg" width="100%" height="100%" viewBox="0 0 30.72 30.72"><path d="M15.436 3.4259999999999993L12.242999999999999 6.639999999999999H6.707999999999999v5.434L3.3599999999999994 15.37l3.349 3.298v5.39h5.374l3.285 3.236 3.285-3.236h5.43v-5.374L27.36 15.386l-3.232-3.252V6.680999999999999H18.67z m0 0.749l2.49 2.506h-1.69v6.441l-0.8 0.805-0.81-0.815V6.639999999999999H12.987z m-8.2 2.991h4.483L9.844999999999999 9.052l4.253 4.279v0.654H13.299999999999999L9.033999999999999 9.783l-1.798 1.77z m5.227 0h1.635v5.415l-3.509-3.53z m4.302 0.043h1.687l1.83 1.842-3.517 3.539z m2.431 0h4.404v4.394l-1.83-1.842-4.241 4.267h-0.764v-0.69l4.261-4.287z m2.574 3.3l1.83 1.843v1.676h-5.327z m-12.735 0.013l3.515 3.462H7.235999999999999v-1.69zM6.707999999999999 12.814v1.697h6.377l0.871 0.858-0.782 0.77H6.709999999999999v1.786L4.1129999999999995 15.37z m17.42 0.068l2.488 2.503-2.533 2.55v-1.796h-6.41l-0.75-0.754 0.825-0.83h6.38z m-9.502 0.978l0.81 0.815 0.186-0.188 0.614-0.618v0.686h0.768l-0.825 0.83 0.75 0.754h-0.719v0.808l-0.842-0.83-0.741 0.73v-0.707h-0.7l0.781-0.77-0.188-0.186-0.682-0.672h0.788z m-7.39 2.807h5.402l-3.603 3.55-1.798-1.772z m6.154 0h0.708v0.7l-4.404 4.338 1.852 1.824h-4.31v-4.342l1.798 1.77z m3.348 0h0.715l4.317 4.343 0.186-0.187 1.599-1.61v4.316h-4.366l1.853-1.825-0.188-0.185-4.116-4.054z m1.46 0h5.357v1.798l-1.785 1.796z m-2.83 0.191l0.842 0.829v6.37h1.691l-2.532 2.495-2.533-2.495h1.79V17.59z m-1.27 1.251v5.42H12.299l-1.852-1.823z m2.64 0.097l3.552 3.499-1.853 1.825h-1.7z" /></svg>