<svg xmlns="http://www.w3.org/2000/svg" width="100%" height="100%" viewBox="0 0 30.72 30.72"><path d="M21.945 13.898C20.72 12.849 17.085 9.863999999999999 15.36 9.863999999999999c-1.726 0-5.36 2.983-6.583 4.033-0.008-0.248-0.015-0.399-0.015-0.62 0 0-0.03-0.364 0.293-0.729 2.654-2.405 5.437-3.582 5.523-3.618 0.83-0.35 0.783-0.284 0.782-1.692 0 0 0.037-0.002 0.06 0 1.17 0.106 4.311 3.155 6.17 5.217 0.004 0.003 0.368 0.424 0.368 0.868 0 0.208-0.007 0.413-0.013 0.575m-0.05-1.72c-0.198-0.22-4.85-5.356-6.535-5.356-1.684 0-6.337 5.136-6.534 5.355-0.02 0.022-0.474 0.54-0.474 1.146 0 0.471 0.031 0.946 0.032 0.95 0 0.022 0.011 0.222 0.123 0.277a0.13 0.13 0 0 0 0.057 0.013 0.24 0.24 0 0 0 0.138-0.055c0.05-0.044 4.79-4.231 6.658-4.231 1.868 0 6.608 4.187 6.656 4.23a0.244 0.244 0 0 0 0.14 0.056c0.02 0 0.04-0.004 0.058-0.013 0.11-0.055 0.122-0.255 0.123-0.278 0-0.003 0.031-0.478 0.031-0.949 0-0.605-0.454-1.124-0.473-1.146m0.056 6.61c-1.225-1.05-4.864-4.038-6.591-4.038-1.728 0-5.365 2.987-6.59 4.038-0.007-0.248-0.014-0.4-0.014-0.62 0 0-0.03-0.365 0.293-0.73 2.657-2.408 5.442-3.586 5.528-3.622 0.83-0.35 0.784-0.285 0.783-1.694 0 0 0.037-0.002 0.06 0 1.17 0.106 4.315 3.159 6.177 5.222 0.003 0.004 0.367 0.425 0.367 0.87 0 0.207-0.006 0.413-0.013 0.575m-0.05-1.723c-0.197-0.219-4.855-5.36-6.541-5.36s-6.344 5.141-6.541 5.36c-0.02 0.022-0.474 0.542-0.474 1.147 0 0.472 0.031 0.947 0.032 0.951 0 0.022 0.011 0.223 0.123 0.277a0.128 0.128 0 0 0 0.058 0.014 0.242 0.242 0 0 0 0.137-0.055c0.05-0.045 4.795-4.236 6.665-4.236s6.615 4.191 6.663 4.233a0.246 0.246 0 0 0 0.14 0.058c0.02 0 0.04-0.005 0.058-0.014 0.11-0.054 0.122-0.255 0.123-0.278 0-0.003 0.031-0.478 0.031-0.95 0-0.605-0.454-1.125-0.474-1.147m-3.35 6.492h-0.001a6.466 6.466 0 0 1-0.376 0c-0.415 0-0.863-0.315-0.863-0.824 0-0.504 0.439-0.806 0.86-0.806 0.006 0 0.211-0.01 0.38 0 0.425 0 0.864 0.302 0.864 0.806 0 0.509-0.448 0.824-0.863 0.824m0.404-1.948c-0.59-0.013-1.19 0-1.194 0-0.72 0-1.307 0.503-1.307 1.12 0 0.628 0.586 1.138 1.307 1.138 0.005 0 0.604 0.012 1.195 0 0.722 0 1.309-0.51 1.309-1.137 0-0.612-0.575-1.104-1.31-1.12m7.67 2.228H27.36v-1.076c0-0.628-0.56-1.121-1.274-1.121h-1.858c-0.03 0-0.102 0.007-0.102 0.082v2.032c0 0.054 0.04 0.083 0.079 0.083h0.777v-1.7a0.11 0.11 0 0 1 0.11-0.114h0.857c0.236 0 0.587 0.217 0.587 0.683v1.046s0.002 0.085 0.09 0.085M11.116999999999999 22.076999999999998h1.147v-0.35c0-0.049-0.035-0.086-0.082-0.086H8.986999999999998a0.083 0.083 0 0 0-0.083 0.085v0.35l0.764 0.001c0.286 0 0.479 0.247 0.479 0.478v1.2c0 0.04 0.035 0.083 0.084 0.083h0.775V22.189999999999998c0-0.062 0.05-0.112 0.112-0.112m-3.532 1.678c0 0.049 0.044 0.083 0.084 0.083h0.044l-0.006 0.006c0.022-0.006 0.097-0.006 0.357-0.006h0.38v-2.114a0.084 0.084 0 0 0-0.083-0.084H7.669999999999999a0.085 0.085 0 0 0-0.084 0.084z m5.994-1.085v-0.44c0-0.12 0.085-0.203 0.206-0.203h1.14c0.173 0 0.32 0.146 0.32 0.32a0.323 0.323 0 0 1-0.323 0.323z m1.668 1.169h0.852c-0.013-0.528-0.56-0.747-0.623-0.77l-0.01-0.005v-0.03l0.011-0.002c0.366-0.082 0.62-0.363 0.62-0.684 0-0.34-0.33-0.708-0.866-0.708H13.171a0.443 0.443 0 0 0-0.446 0.45v1.664a0.08 0.08 0 0 0 0.082 0.083l0.774 0.001-0.001-0.78h0.73c0.65 0 0.918 0.473 0.938 0.78z m-8.965-1.46h0.835c-0.181-0.46-0.682-0.776-1.257-0.787l-0.256-0.005a10.959 10.959 0 0 0-0.938 0.005c-0.41 0.021-0.67 0.115-0.923 0.338a1.07 1.07 0 0 0-0.384 0.807c0 0.628 0.556 1.122 1.292 1.147 0.505 0.018 0.56 0.019 1.222 0 0.613-0.02 1.053-0.3 1.243-0.786h-0.834a0.078 0.078 0 0 0-0.072 0.041 0.868 0.868 0 0 1-0.754 0.425c-0.171 0.007-0.378 0-0.378 0-0.424 0-0.863-0.308-0.863-0.823v-0.005c0.003-0.512 0.44-0.818 0.865-0.819 0.048-0.002 0.219-0.007 0.376 0 0.309 0 0.606 0.165 0.756 0.42 0.005 0.01 0.026 0.041 0.07 0.041m17.384 1.065h-2.02c-0.068 0-0.116-0.045-0.116-0.11v-0.419h1.75v-0.385h-1.75l-0.001-0.383c0-0.002-0.001-0.043 0.03-0.075 0.023-0.024 0.057-0.036 0.1-0.036h2.006v-0.308a0.081 0.081 0 0 0-0.022-0.061c-0.028-0.027-0.073-0.025-0.076-0.025h-2.81c-0.009 0-0.085 0.002-0.085 0.086v1.664c0 0.22 0.168 0.447 0.45 0.447h2.46c0.02 0 0.041-0.009 0.058-0.024a0.08 0.08 0 0 0 0.026-0.058v-0.313m-0.628-2.597a0.55 0.55 0 0 0-0.298-0.077 0.558 0.558 0 0 0-0.297 0.077c-0.079 0.049-0.141 0.115-0.234 0.115-0.093 0-0.149-0.066-0.232-0.115a0.57 0.57 0 0 0-0.297-0.077 0.553 0.553 0 0 0-0.298 0.077c-0.082 0.05-0.123 0.111-0.123 0.182 0 0.072 0.041 0.133 0.123 0.183 0.083 0.051 0.182 0.076 0.298 0.076a0.563 0.563 0 0 0 0.29-0.07c0.075-0.045 0.155-0.12 0.239-0.12 0.084 0 0.16 0.067 0.234 0.114a0.57 0.57 0 0 0 0.297 0.076c0.12 0 0.22-0.025 0.3-0.076 0.08-0.05 0.12-0.111 0.12-0.183 0-0.07-0.04-0.132-0.122-0.182Z" /></svg>