<svg xmlns="http://www.w3.org/2000/svg" width="100%" height="100%" viewBox="0 0 30.72 30.72"><path d="M14.92 3.3599999999999994a3.34 3.34 0 0 0-0.57 0.043L26.307 15.36 14.35 27.317c0.132 0.022 0.307 0.043 0.57 0.043 6.626 0 12-5.375 12-12s-5.374-12-12-12z m-1.535 2.414C8.097999999999999 5.773999999999999 3.7999999999999994 10.073 3.7999999999999994 15.36s4.3 9.588 9.586 9.588c0.264 0 0.44-0.023 0.57-0.045L4.414 15.36l9.543-9.543a3.337 3.337 0 0 0-0.57-0.043z m0.746 2.457c-0.263 0-0.438 0.021-0.57 0.043L20.647 15.36l-7.086 7.086c0.132 0.022 0.307 0.045 0.57 0.045 3.927 0 7.13-3.204 7.13-7.131s-3.203-7.129-7.13-7.129z m-0.416 2.434A4.701 4.701 0 0 0 9.02 15.36a4.701 4.701 0 0 0 4.695 4.695c0.264 0 0.44-0.023 0.57-0.045L9.634 15.36l4.653-4.65a3.296 3.296 0 0 0-0.57-0.045Z" /></svg>