<svg xmlns="http://www.w3.org/2000/svg" width="100%" height="100%" viewBox="0 0 30.72 30.72"><path d="M18.073999999999998 18.2335c0.296 0 0.58 0.102 0.807 0.288l0.014 0.012-0.149 0.238c-0.184-0.168-0.421-0.26-0.671-0.26-0.549 0-0.995 0.446-0.995 0.995 0 0.549 0.446 0.995 0.995 0.995 0.497 0 0.91-0.366 0.983-0.842l0.002-0.014h-0.852l0.173-0.277h0.966v0.139c0 0.702-0.571 1.273-1.272 1.273-0.702 0-1.272-0.571-1.272-1.273-0.002-0.703 0.569-1.274 1.271-1.274z m-13.442 0c0.347 0 0.68 0.144 0.918 0.392l0.012 0.013-0.157 0.242c-0.19-0.235-0.47-0.37-0.774-0.37-0.549 0-0.995 0.446-0.995 0.995 0 0.549 0.446 0.995 0.995 0.995 0.287 0 0.559-0.123 0.748-0.339l0.01-0.012 0.211 0.18c-0.24 0.285-0.594 0.448-0.968 0.448-0.701 0-1.272-0.57-1.272-1.272 0-0.701 0.571-1.272 1.272-1.272z m2.44 0.015c0.639 0 0.894 0.3 0.894 0.733 0 0.363-0.184 0.619-0.621 0.706l-0.014 0.003 0.702 1.075h-0.336l-0.663-1.058h-0.478v1.058h-0.273v-2.517z m5.88 2.273v0.244H11.23v-0.244z m-4.018-2.273l0.691 1.149c0.024 0.042 0.038 0.087 0.045 0.115 0.01-0.029 0.019-0.067 0.043-0.109l0.006-0.01 0.688-1.145h0.297l-1.564 2.518h-0.271l0.647-1.05-0.882-1.468z m17.522 2.273v0.244h-1.722v-0.244z m-4.561-2.273l1.512 2.085c-0.013-0.059-0.02-0.081-0.021-0.127v-1.958h0.272v2.518h-0.258l-1.515-2.092c0.01 0.033 0.023 0.078 0.024 0.142v1.95h-0.272v-2.518z m-1.361 0v2.518h-0.272v-2.518z m-6.395 0l1.512 2.085c-0.013-0.059-0.02-0.081-0.021-0.127v-1.958h0.272v2.518h-0.258l-1.515-2.092c0.01 0.033 0.023 0.078 0.024 0.142v1.95h-0.272v-2.518z m12.317 1.065v0.248h-1.722v-0.248z m-13.504 0v0.248H11.23v-0.248z m-5.876-0.821h-0.52v0.967h0.517c0.384 0 0.615-0.112 0.615-0.478-0.001-0.367-0.232-0.489-0.612-0.489z m19.991-0.567c0.162 0 0.293 0.13 0.293 0.292 0 0.162-0.131 0.292-0.293 0.292-0.162 0-0.293-0.13-0.293-0.292 0.001-0.162 0.132-0.292 0.293-0.292z m-0.611 0.323v0.244h-1.722v-0.244z m-13.504 0v0.244h-1.47l0.151-0.244z m14.115-0.274c-0.134 0-0.242 0.108-0.242 0.242s0.108 0.242 0.242 0.242 0.243-0.108 0.243-0.242c0-0.133-0.109-0.242-0.243-0.242z m0.002 0.091c0.075 0 0.108 0.038 0.108 0.091 0 0.04-0.018 0.07-0.059 0.084l-0.006 0.002 0.08 0.123h-0.058l-0.067-0.104c-0.002-0.002-0.003-0.007-0.004-0.011v-0.003h-0.058v0.118h-0.048v-0.301h0.112z m0.001 0.046h-0.065v0.091h0.064c0.041 0 0.06-0.011 0.06-0.045 0-0.033-0.019-0.046-0.059-0.046z m-12.801-8.153l0.088-0.007c-2.36 0.549-3.761 2.332-3.761 2.564v0.001c0 0.001 0.001-0.009 0.002 0.036v0.006h0.001c0.048 0.253 0.745 1.475 3.441 2.201-3.09-0.245-4.494-1.748-4.563-2.188l-0.001-0.014h-0.001c0-0.046-0.001-0.037-0.001-0.034l0.001-0.013c0.037-0.452 1.928-2.312 4.794-2.552l0.088-0.007z m0.981-0.019c3.209 0.167 5.076 2.075 5.093 2.609v-0.001c0-0.002-0.001 0-0.001 0.033v0.006h-0.002c-0.025 0.268-1.045 1.358-2.571 1.86-1.865 0.613-4.866 0.39-4.866-1.948 0-1.097 0.894-1.99 1.992-1.99 1.108 0 1.997 0.897 1.997 1.995 0 0.535-0.231 1.053-0.581 1.419 0.327-0.006 1.517-0.093 2.638-1.017 0.124-0.121 0.203-0.222 0.236-0.284 0.009-0.016 0.022-0.045 0.02-0.072 0.001-0.24-1.288-2.084-3.955-2.61z m-0.357 1.427c-0.625 0-1.131 0.506-1.131 1.131s0.506 1.131 1.131 1.131c0.624 0 1.131-0.506 1.131-1.131 0-0.624-0.506-1.131-1.131-1.131z m5.449 1.182z" /></svg>