<svg xmlns="http://www.w3.org/2000/svg" width="100%" height="100%" viewBox="0 0 30.72 30.72"><path d="M18.134 11.651l0.772-2.596 0.79 2.596z m3.848 2.268l-2.025-6.128c-0.045-0.135-0.097-0.224-0.154-0.266-0.059-0.041-0.152-0.063-0.28-0.063h-1.12a0.485 0.485 0 0 0-0.284 0.068c-0.06 0.045-0.11 0.132-0.149 0.261l-2.045 6.128c-0.025 0.032-0.038 0.096-0.038 0.192 0 0.149 0.09 0.223 0.27 0.223h0.84c0.076 0 0.139-0.003 0.187-0.01a0.207 0.207 0 0 0 0.116-0.048 0.326 0.326 0 0 0 0.077-0.116c0.022-0.051 0.046-0.119 0.072-0.202l0.318-1.071h2.306l0.327 1.051c0.026 0.09 0.051 0.16 0.077 0.213a0.395 0.395 0 0 0 0.087 0.12c0.031 0.028 0.07 0.047 0.114 0.053h0.002c0.045 0.006 0.103 0.01 0.173 0.01h0.897c0.18 0 0.27-0.074 0.27-0.223a0.59 0.59 0 0 0-0.005-0.09 0.878 0.878 0 0 0-0.036-0.108l0.003 0.006z m-0.994 2.467h-0.646c-0.168 0-0.279 0.024-0.333 0.072-0.055 0.049-0.082 0.147-0.082 0.295v3.638l-1.91-3.647c-0.076-0.155-0.152-0.253-0.226-0.295-0.074-0.041-0.204-0.063-0.39-0.063h-0.599c-0.167 0-0.278 0.025-0.332 0.073-0.055 0.048-0.082 0.147-0.082 0.294v6.138c0 0.148 0.025 0.246 0.077 0.294 0.052 0.048 0.16 0.072 0.328 0.072h0.656c0.167 0 0.278-0.024 0.332-0.072 0.055-0.048 0.082-0.146 0.082-0.294v-3.648l1.91 3.657c0.077 0.155 0.152 0.253 0.227 0.295 0.073 0.042 0.204 0.062 0.39 0.062h0.598c0.167 0 0.278-0.024 0.333-0.072 0.054-0.048 0.082-0.146 0.082-0.294v-6.138c0-0.148-0.028-0.246-0.082-0.294-0.055-0.048-0.166-0.073-0.333-0.073z m3.203-0.581l1.665 1.665v8.385H4.864999999999999V17.47l1.663-1.664a0.63 0.63 0 0 0 0-0.89L4.863999999999999 13.251V4.864999999999999h20.991v8.384l-1.665 1.666a0.63 0.63 0 0 0 0 0.89zM27.36 3.3599999999999994H3.3599999999999994v10.613L4.747 15.36 3.3599999999999994 16.747V27.36h24V16.747L25.973 15.36 27.36 13.972999999999999zM14.03 21.829H11.32l2.855-4.014a0.67 0.67 0 0 0 0.087-0.155 0.425 0.425 0 0 0 0.019-0.135v-0.772c0-0.148-0.028-0.246-0.082-0.294-0.055-0.048-0.166-0.073-0.334-0.073H9.741999999999999c-0.149 0-0.245 0.028-0.29 0.082-0.045 0.055-0.068 0.169-0.068 0.343v0.58c0 0.172 0.023 0.287 0.068 0.341 0.045 0.055 0.141 0.083 0.29 0.083h2.545L9.469999999999999 21.829a0.438 0.438 0 0 0-0.107 0.27v0.792c0 0.148 0.027 0.245 0.082 0.294 0.055 0.048 0.167 0.072 0.334 0.072h4.25c0.148 0 0.245-0.027 0.29-0.081 0.045-0.055 0.068-0.17 0.068-0.344v-0.579c0-0.173-0.023-0.287-0.068-0.342-0.045-0.055-0.142-0.082-0.29-0.082zM12.767999999999999 11.593c0 0.264-0.017 0.484-0.052 0.661-0.036 0.177-0.093 0.32-0.174 0.43a0.648 0.648 0 0 1-0.318 0.231 1.523 1.523 0 0 1-0.487 0.068h-0.79v-4.17h0.79c0.366 0 0.63 0.11 0.79 0.324 0.16 0.215 0.241 0.571 0.241 1.067v1.389z m1.38-2.789c-0.225-0.457-0.533-0.795-0.921-1.013-0.39-0.219-0.88-0.328-1.47-0.328H9.777999999999999c-0.167 0-0.278 0.024-0.333 0.072-0.054 0.049-0.082 0.147-0.082 0.294v6.138c0 0.148 0.028 0.246 0.082 0.295 0.055 0.048 0.166 0.072 0.333 0.072h2.218c1.048 0 1.765-0.447 2.15-1.342 0.09-0.205 0.153-0.413 0.188-0.622a4.91 4.91 0 0 0 0.054-0.796V10.270999999999999c0-0.367-0.018-0.656-0.054-0.868a2.2 2.2 0 0 0-0.193-0.612l0.006 0.013z" /></svg>