<svg xmlns="http://www.w3.org/2000/svg" width="100%" height="100%" viewBox="0 0 30.72 30.72"><path d="M15.798 27.014c-2.853 0-5.46-1.04-7.476-2.766L3.3599999999999994 24.928l1.917-4.733C4.609999999999999 18.72 4.234999999999999 17.085 4.234999999999999 15.36 4.234999999999999 8.924 9.41 3.7059999999999995 15.799999999999999 3.7059999999999995 22.18 3.7059999999999995 27.36 8.924 27.36 15.36c0 6.438-5.176 11.654-11.562 11.654z m6.315-11.687v-0.033c0-3.363-2.373-5.76-6.462-5.76H11.236999999999998V21.189999999999998h4.35c4.12 0 6.525-2.5 6.525-5.863h0.004z m-6.415 2.998h-1.29V12.399999999999999h1.29c1.897 0 3.157 1.08 3.157 2.945v0.03c0 1.884-1.26 2.95-3.157 2.95z" /></svg>