<svg xmlns="http://www.w3.org/2000/svg" width="100%" height="100%" viewBox="0 0 30.72 30.72"><path d="M22.184 10.030999999999999c0.061 0.085 0.061 0.17 0 0.256-0.062 0.02-0.113 0.02-0.154 0l-0.154-0.224-0.369-0.095c-0.061-0.064-0.061-0.149 0-0.255a0.225 0.225 0 0 1 0.246-0.096c0.185 0.106 0.328 0.245 0.43 0.415z m4.49 4.336c0.021 0.063 0.031 0.116 0.031 0.159l-0.153 0.223v-0.35a0.265 0.265 0 0 1 0.123-0.032z m-5.382-4.75l0.154 0.255c-0.082 0.149-0.164 0.244-0.246 0.287l-0.093 0.128a1.867 1.867 0 0 1-0.092-0.32c-0.02 0-0.04-0.01-0.061-0.031l-0.123 0.127-0.554-0.127c-0.082-0.106-0.062-0.223 0.061-0.35a0.368 0.368 0 0 1 0.431-0.096l0.523 0.127z m-1.138 0.67l-0.154-0.096 0.123-0.064 0.03 0.16zM17.694 8.66l-0.185 0.223-0.185-0.223-0.154-0.032 0.492-0.096 0.031 0.128z m9.596 4.781c0.082 0.064 0.092 0.223 0.03 0.478l-0.184 0.542-0.154 0.191-0.03-0.382a0.73 0.73 0 0 0-0.031-0.223 0.622 0.622 0 0 0-0.031-0.191l-0.4 0.19c0.02 0.043 0.03 0.096 0.03 0.16a0.35 0.35 0 0 0 0.062 0.128l-0.43 0.032 0.03 0.127 0.093 0.096-0.154 0.35c-0.02 0.192-0.072 0.298-0.154 0.32l-0.123-0.192-0.369 0.095c-0.082-0.085-0.123-0.159-0.123-0.223l-0.092-0.127 0.153-0.191c-0.04-0.085-0.082-0.128-0.123-0.128l-0.153 0.064-0.154 0.382c-0.144 0-0.236 0.022-0.277 0.064l0.185 0.255 0.645 0.35 0.031 0.224a0.386 0.386 0 0 1 0.185 0.095 0.917 0.917 0 0 1 0.123 0.096c-0.02 0.043-0.041 0.096-0.062 0.16a0.354 0.354 0 0 1-0.123 0.127l-0.277 0.191 0.031 0.255c-0.164 0.064-0.307 0.17-0.43 0.319l-0.093 0.35c-0.225 0-0.369 0.022-0.43 0.064l0.03 0.479-0.092-0.032c-0.082-0.128-0.164-0.16-0.246-0.096l0.123 0.414a0.332 0.332 0 0 0-0.154 0.032l-0.061 0.064 0.123 0.223c0.02 0.085 0.03 0.149 0.03 0.192a0.774 0.774 0 0 1-0.368 0.19c-0.103 0.022-0.185 0.096-0.247 0.224l0.031 0.382a1.043 1.043 0 0 1-0.154 0.287c-0.205 0-0.358 0.022-0.461 0.064l-0.185 0.35-0.153-0.063c-0.082-0.021-0.144-0.021-0.185 0l-0.123 0.255c-0.184 0-0.318 0.042-0.4 0.127l-0.246 0.223 0.062-0.286c0.061-0.17 0.03-0.266-0.093-0.287l-0.123 0.095-0.03 0.16-0.308 0.19-0.03 0.352h-0.585l-0.123 0.223c-0.041 0.127-0.144 0.223-0.308 0.287-0.164 0.063-0.45 0.095-0.86 0.095-0.411 0-0.667 0.021-0.77 0.064-0.102 0-0.195 0.053-0.277 0.16a0.55 0.55 0 0 1-0.215 0.222l-0.492 0.16-0.154 0.287-0.215 0.16c-0.103 0.063-0.267 0.095-0.492 0.095l-0.308 0.16-0.461 0.19-0.339-0.032a0.924 0.924 0 0 0-0.43-0.095h-0.554l-0.184-0.128-0.37 0.064-0.184 0.255-0.277-0.191-0.215-0.223-0.492-0.032-0.185-0.16 0.277-0.35 0.37-0.51v-0.35l0.43-0.479V20.36c0-0.17 0.03-0.319 0.092-0.446l0.338 0.096c0.082-0.085 0.123-0.15 0.123-0.192a1.703 1.703 0 0 1-0.338-0.414l-0.308-0.446-0.369-0.479-0.246-0.446-0.277-0.446-0.215-0.542-0.461-0.51-1.692-2.486-0.308-0.542-0.307-0.606-0.246-0.16a3.579 3.579 0 0 1-0.462-0.764l-0.092-0.383-0.277-0.127-0.953 0.191c-0.226 0-0.472 0.043-0.738 0.128l-0.646 0.255-0.77 0.095-0.43 0.16c-0.184 0.042-0.328 0.02-0.43-0.064l-0.216-0.255-0.338 0.127-0.277-0.095c0-0.213-0.02-0.34-0.061-0.383l-0.277-0.382A1.335 1.335 0 0 0 3.3599999999999994 11.082999999999998l0.03-0.16h0.308a0.73 0.73 0 0 1-0.03-0.222v-0.16l0.307 0.128c0.103-0.064 0.164-0.117 0.185-0.16l0.123-0.255 0.246 0.032 0.184-0.542-0.03-0.286 0.153 0.095 0.154 0.16c0.103-0.043 0.164-0.085 0.185-0.128l0.277-0.35 0.276 0.031-0.092-0.223-0.184-0.223-0.277-0.096c0.123-0.19 0.39-0.329 0.8-0.414l0.984-0.096 0.338-0.223 0.8-0.159 1.23-0.064 0.43-0.095a0.785 0.785 0 0 1 0.493-0.032l0.492-0.032c0.328-0.085 0.564-0.106 0.707-0.064l0.4 0.032 0.554 0.032 0.83 0.16 0.738 0.063 0.523-0.223c0.123 0 0.257 0.085 0.4 0.255l0.308 0.223h0.646l0.215 0.255-0.03 0.16 0.184 0.51 0.123-0.064 0.277-0.32 0.307 0.479-0.369-0.128c-0.143 0-0.225 0.107-0.246 0.32l0.308 0.063 0.123 0.16 0.184-0.064c0.103-0.043 0.205-0.022 0.308 0.063a0.527 0.527 0 0 1 0.246 0.223l0.184 0.255h0.4c0-0.063 0.01-0.106 0.031-0.127a0.37 0.37 0 0 1 0.062-0.096l0.061 0.32h0.123l0.092-0.096 0.093 0.159 0.092-0.255c0.266 0 0.42-0.021 0.461-0.064a0.22 0.22 0 0 0-0.061-0.16l-0.123-0.159c0-0.106 0.082-0.148 0.246-0.127l0.43 0.127 0.308-0.031 0.185 0.159 0.061 0.127c-0.184-0.042-0.308-0.031-0.369 0.032-0.041 0.043-0.051 0.117-0.03 0.223l0.215 0.192c0 0.148 0.071 0.308 0.215 0.478l0.123-0.128 0.03-0.255 0.124 0.16h0.523c0.102 0 0.184 0.117 0.246 0.35l0.092 0.32 0.123 0.095 0.154-0.16 0.492 0.16 0.092-0.16 0.154-0.063a0.538 0.538 0 0 0 0.154-0.16v-0.16l-0.062-0.159 0.43 0.128a0.902 0.902 0 0 0 0.155-0.191c-0.041-0.107-0.082-0.16-0.123-0.16l-0.308-0.064v-0.159l0.092-0.223 0.092-0.191c0.103 0.063 0.165 0.117 0.185 0.16l0.154 0.222 0.215-0.032 0.215-0.032 0.77 0.67 0.215-0.032 0.215 0.287 0.185 0.095c-0.062 0.085-0.062 0.181 0 0.287l0.215-0.095h0.215l0.185 0.318 0.184 0.32a0.83 0.83 0 0 1 0.37 0.063l0.122 0.574 0.339 0.191 0.277 0.096c0 0.106-0.021 0.19-0.062 0.255l0.062 0.318 0.092 0.192-0.03 0.223 0.122-0.064a0.753 0.753 0 0 1 0.185-0.191c0.04-0.022 0.082-0.043 0.123-0.064z m-7.751-4.717c0.061 0.063 0.061 0.159 0 0.286-0.02 0.043-0.082 0.075-0.185 0.096-0.061-0.064-0.061-0.16 0-0.287 0.02-0.042 0.082-0.074 0.185-0.095zM12.926 22.08l0.154-0.16 0.153-0.095z m9.442-11.763l0.062 0.096-0.154-0.064 0.092-0.032z m3.999 3.22a0.82 0.82 0 0 0-0.092-0.415 0.703 0.703 0 0 0-0.216-0.286l-0.03 0.414 0.215 0.096c0.02 0.063 0.02 0.116 0 0.159l0.123 0.032z m-1.169 0.67l-0.154-0.033-0.184-0.287 0.061-0.255-0.276 0.192 0.153 0.191 0.031 0.096-0.369 0.159 0.246 0.032a0.485 0.485 0 0 0 0.123 0.095 0.488 0.488 0 0 0 0.123 0.032l0.246-0.223z m-0.615-0.575l-0.123-0.095-0.215-0.064-0.093-0.16-0.123 0.128-0.092 0.223 0.246 0.096c0.123 0 0.215 0.032 0.277 0.096zM19.2 10.16l-0.123-0.064-0.184-0.095c-0.082 0-0.123 0.02-0.123 0.063l0.03 0.192 0.216 0.127 0.184-0.223z m3.691 6.79l0.062-0.383c0-0.34-0.123-0.701-0.37-1.084a2.65 2.65 0 0 0-0.799-0.924c-0.267-0.255-0.636-0.478-1.107-0.67l-1.23-0.541-0.462-0.287-0.677-0.255-0.707-0.223-1.138-0.255-0.37-0.064c-0.184 0-0.327 0.021-0.43 0.064-0.082 0.02-0.113 0.095-0.092 0.223l0.369 0.733c0.185 0.34 0.359 0.574 0.523 0.701l0.277 0.191v0.192l0.307 0.382 0.031 0.255c0.082 0.064 0.144 0.096 0.185 0.096 0.102 0.063 0.235 0.223 0.4 0.478l0.338 0.414 0.523 0.765 0.461 0.829 0.215 0.638-0.061 0.414 0.123 0.191-0.123 0.191c-0.062 0.064-0.062 0.128 0 0.192l0.215-0.064 0.37-0.16c0.102 0 0.276-0.063 0.522-0.19l0.677-0.32 0.953-0.382c0.39-0.17 0.667-0.34 0.83-0.51l0.124-0.319c0-0.148 0.02-0.255 0.061-0.318z" /></svg>