<svg xmlns="http://www.w3.org/2000/svg" width="100%" height="100%" viewBox="0 0 30.72 30.72"><path d="M10.559999999999999 6.228999999999999a2.458 2.458 0 0 0-2.45 2.455v3.117l-3.672-0.913h-0.002a0.864 0.864 0 0 0-0.242-0.026 0.864 0.864 0 0 0-0.832 0.919 6.573 6.573 0 0 0 4.886 5.87A7.286 7.286 0 0 0 15.36 23.54a7.286 7.286 0 0 0 7.106-5.888 6.573 6.573 0 0 0 4.892-5.871 0.864 0.864 0 0 0-0.831-0.92 0.864 0.864 0 0 0-0.245 0.027l-3.673 0.913V8.684a2.458 2.458 0 0 0-2.45-2.455 2.845 2.845 0 0 0-0.96 0.192c-1.87 0.797-3.114 1.188-3.831 1.2-0.717-0.012-1.962-0.403-3.832-1.2a2.845 2.845 0 0 0-0.975-0.192z m8.135 1.408a0.19 0.19 0 0 1 0.036 0c0.065 0.008 0.127 0.05 0.176 0.127a1.95 1.95 0 0 1 0.07 0.143 1.95 1.95 0 0 1 0.037 0.088 1.95 1.95 0 0 1 0.035 0.092 1.95 1.95 0 0 1 0.029 0.094 1.95 1.95 0 0 1 0.025 0.093 1.95 1.95 0 0 1 0.019 0.096 1.95 1.95 0 0 1 0.015 0.097 1.95 1.95 0 0 1 0.01 0.093 1.95 1.95 0 0 1 0.005 0.102 1.95 1.95 0 0 1 0 0.157 2.723 2.723 0 0 1 0.007 0l0.473-0.526a0.248 0.248 0 0 1 0.01-0.01 0.248 0.248 0 0 1 0.01-0.009 0.248 0.248 0 0 1 0.012-0.01 0.248 0.248 0 0 1 0.007-0.006 0.248 0.248 0 0 1 0.012-0.008 0.248 0.248 0 0 1 0.009-0.006 0.248 0.248 0 0 1 0.011-0.006 0.248 0.248 0 0 1 0.01-0.005 0.248 0.248 0 0 1 0.011-0.005 0.248 0.248 0 0 1 0.013-0.005 0.248 0.248 0 0 1 0.01-0.003 0.248 0.248 0 0 1 0.013-0.004 0.248 0.248 0 0 1 0.013-0.003 0.248 0.248 0 0 1 0.011-0.002 0.248 0.248 0 0 1 0.016-0.002 0.248 0.248 0 0 1 0.007 0 0.248 0.248 0 0 1 0.02 0 0.248 0.248 0 0 1 0.005 0 0.248 0.248 0 0 1 0.017 0.002 0.248 0.248 0 0 1 0.01 0 0.248 0.248 0 0 1 0.011 0.003 0.248 0.248 0 0 1 0.013 0.003 0.248 0.248 0 0 1 0.013 0.004 0.248 0.248 0 0 1 0.01 0.003 0.248 0.248 0 0 1 0.011 0.005 0.248 0.248 0 0 1 0.013 0.006 0.248 0.248 0 0 1 0.001 0 0.248 0.248 0 0 1 0.004 0.002 0.248 0.248 0 0 1 0.016 0.01 0.248 0.248 0 0 1 0.008 0.004 0.248 0.248 0 0 1 0.012 0.008 0.248 0.248 0 0 1 0.01 0.01 0.248 0.248 0 0 1 0.007 0.005 0.248 0.248 0 0 1 0.011 0.011 0.248 0.248 0 0 1 0.007 0.008 0.248 0.248 0 0 1 0.006 0.007 0.248 0.248 0 0 1 0.01 0.014 0.248 0.248 0 0 1 0.003 0.005 0.248 0.248 0 0 1 0.01 0.017 1.95 1.95 0 0 1 0.06 0.121 1.95 1.95 0 0 1 0.04 0.088 1.95 1.95 0 0 1 0.035 0.094 1.95 1.95 0 0 1 0.03 0.088 1.95 1.95 0 0 1 0.025 0.097 1.95 1.95 0 0 1 0.021 0.094 1.95 1.95 0 0 1 0.016 0.098 1.95 1.95 0 0 1 0.016 0.132 2.723 2.723 0 0 1 0.192 0.119 2.723 2.723 0 0 1 0.11 0.079 2.723 2.723 0 0 1 0.11 0.083 2.723 2.723 0 0 1 0.1 0.088 2.723 2.723 0 0 1 0.101 0.095 2.723 2.723 0 0 1 0.092 0.098 2.723 2.723 0 0 1 0.09 0.103 2.723 2.723 0 0 1 0.082 0.108 2.723 2.723 0 0 1 0.08 0.112 2.723 2.723 0 0 1 0.07 0.114 2.723 2.723 0 0 1 0.068 0.12 2.723 2.723 0 0 1 0.059 0.122 2.723 2.723 0 0 1 0.054 0.123 2.723 2.723 0 0 1 0.048 0.131 2.723 2.723 0 0 1 0.042 0.126 2.723 2.723 0 0 1 0.034 0.135 2.723 2.723 0 0 1 0.03 0.13 2.723 2.723 0 0 1 0.02 0.135 2.723 2.723 0 0 1 0.016 0.136 2.723 2.723 0 0 1 0.011 0.225v1.758a2.715 2.715 0 0 1-0.011 0.237 2.715 2.715 0 0 1-0.017 0.132 2.715 2.715 0 0 1-0.02 0.135 2.715 2.715 0 0 1-0.03 0.136 2.715 2.715 0 0 1-0.033 0.127 2.715 2.715 0 0 1-0.044 0.134 2.715 2.715 0 0 1-0.045 0.123 2.715 2.715 0 0 1-0.057 0.126 2.715 2.715 0 0 1-0.058 0.12 2.715 2.715 0 0 1-0.068 0.118 2.715 2.715 0 0 1-0.07 0.116 2.715 2.715 0 0 1-0.078 0.109 2.715 2.715 0 0 1-0.084 0.11 2.715 2.715 0 0 1-0.09 0.102 2.715 2.715 0 0 1-0.09 0.097 2.715 2.715 0 0 1-0.104 0.096 2.715 2.715 0 0 1-0.098 0.087 2.715 2.715 0 0 1-0.107 0.081 2.715 2.715 0 0 1-0.113 0.081 2.715 2.715 0 0 1-0.113 0.07 2.715 2.715 0 0 1-0.12 0.068 2.715 2.715 0 0 1-0.119 0.057 2.715 2.715 0 0 1-0.127 0.058 2.715 2.715 0 0 1-0.123 0.045 2.715 2.715 0 0 1-0.133 0.044 2.715 2.715 0 0 1-0.132 0.033 2.715 2.715 0 0 1-0.13 0.03 2.715 2.715 0 0 1-0.14 0.02 2.715 2.715 0 0 1-0.129 0.017 2.715 2.715 0 0 1-0.237 0.011h-0.21a2.714 2.714 0 0 1-0.244-0.012 2.714 2.714 0 0 1-0.134-0.017 2.714 2.714 0 0 1-0.133-0.02 2.714 2.714 0 0 1-0.136-0.032 2.714 2.714 0 0 1-0.127-0.032 2.714 2.714 0 0 1-0.131-0.045 2.714 2.714 0 0 1-0.126-0.046 2.714 2.714 0 0 1-0.124-0.056 2.714 2.714 0 0 1-0.121-0.059 2.714 2.714 0 0 1-0.118-0.068 2.714 2.714 0 0 1-0.116-0.071 2.714 2.714 0 0 1-0.107-0.079 2.714 2.714 0 0 1-0.11-0.083 2.714 2.714 0 0 1-0.102-0.09 2.714 2.714 0 0 1-0.098-0.092 2.714 2.714 0 0 1-0.094-0.102 2.714 2.714 0 0 1-0.088-0.1 2.714 2.714 0 0 1-0.081-0.109 2.714 2.714 0 0 1-0.08-0.11 2.714 2.714 0 0 1-0.068-0.115 2.714 2.714 0 0 1-0.028-0.048v0.98a1.032 1.032 0 0 1-0.004 0.073 1.032 1.032 0 0 1-0.004 0.05 1.032 1.032 0 0 1-0.008 0.054 1.032 1.032 0 0 1 0 0.002 1.032 1.032 0 0 1-0.009 0.042 1.032 1.032 0 0 1-0.016 0.063 1.032 1.032 0 0 1-0.01 0.034 1.032 1.032 0 0 1-0.024 0.065 1.032 1.032 0 0 1-0.012 0.031 1.032 1.032 0 0 1-0.033 0.067 1.032 1.032 0 0 1-0.018 0.034 1.032 1.032 0 0 1-0.025 0.04 1.032 1.032 0 0 1-0.032 0.047 1.032 1.032 0 0 1-0.028 0.037 1.032 1.032 0 0 1-0.034 0.042 1.032 1.032 0 0 1-0.035 0.038 1.032 1.032 0 0 1-0.037 0.036 1.032 1.032 0 0 1-0.04 0.034 1.032 1.032 0 0 1-0.038 0.031 1.032 1.032 0 0 1-0.044 0.032 1.032 1.032 0 0 1-0.041 0.027 1.032 1.032 0 0 1-0.046 0.026 1.032 1.032 0 0 1-0.045 0.024 1.032 1.032 0 0 1-0.047 0.02 1.032 1.032 0 0 1-0.05 0.02 1.032 1.032 0 0 1-0.047 0.016 1.032 1.032 0 0 1-0.049 0.014 1.032 1.032 0 0 1-0.052 0.012 1.032 1.032 0 0 1-0.05 0.009 1.032 1.032 0 0 1-0.052 0.006 1.032 1.032 0 0 1-0.049 0.004 1.032 1.032 0 0 1-0.053 0 1.032 1.032 0 0 1-0.052 0 1.032 1.032 0 0 1-0.05-0.004 1.032 1.032 0 0 1-0.051-0.006 1.032 1.032 0 0 1-0.052-0.01 1.032 1.032 0 0 1-0.05-0.011 1.032 1.032 0 0 1-0.05-0.014 1.032 1.032 0 0 1-0.047-0.016 1.032 1.032 0 0 1-0.05-0.02 1.032 1.032 0 0 1-0.046-0.02 1.032 1.032 0 0 1-0.046-0.024 1.032 1.032 0 0 1-0.046-0.026 1.032 1.032 0 0 1-0.04-0.027 1.032 1.032 0 0 1-0.045-0.032 1.032 1.032 0 0 1-0.038-0.031 1.032 1.032 0 0 1-0.04-0.034 1.032 1.032 0 0 1-0.036-0.036 1.032 1.032 0 0 1-0.035-0.038 1.032 1.032 0 0 1-0.035-0.042 1.032 1.032 0 0 1-0.028-0.037 1.032 1.032 0 0 1-0.032-0.047 1.032 1.032 0 0 1-0.018-0.03 1.032 1.032 0 0 1-0.046-0.087 1.032 1.032 0 0 1-0.003-0.006 1.032 1.032 0 0 1-0.034-0.084 1.032 1.032 0 0 1-0.005-0.015 1.032 1.032 0 0 1-0.022-0.073 1.032 1.032 0 0 1-0.008-0.032 1.032 1.032 0 0 1-0.011-0.06 1.032 1.032 0 0 1-0.007-0.043 1.032 1.032 0 0 1-0.003-0.034 1.032 1.032 0 0 1-0.002-0.02 1.032 1.032 0 0 1 0-0.002 1.032 1.032 0 0 1-0.003-0.068v-0.979a2.714 2.714 0 0 1-0.026 0.046 2.714 2.714 0 0 1-0.07 0.116 2.714 2.714 0 0 1-0.077 0.107 2.714 2.714 0 0 1-0.084 0.113 2.714 2.714 0 0 1-0.086 0.097 2.714 2.714 0 0 1-0.095 0.104 2.714 2.714 0 0 1-0.1 0.092 2.714 2.714 0 0 1-0.1 0.09 2.714 2.714 0 0 1-0.11 0.083 2.714 2.714 0 0 1-0.108 0.079 2.714 2.714 0 0 1-0.114 0.07 2.714 2.714 0 0 1-0.12 0.069 2.714 2.714 0 0 1-0.12 0.058 2.714 2.714 0 0 1-0.124 0.056 2.714 2.714 0 0 1-0.129 0.047 2.714 2.714 0 0 1-0.128 0.044 2.714 2.714 0 0 1-0.127 0.032 2.714 2.714 0 0 1-0.137 0.032 2.714 2.714 0 0 1-0.13 0.02 2.714 2.714 0 0 1-0.137 0.017 2.714 2.714 0 0 1-0.245 0.012h-0.21a2.715 2.715 0 0 1-0.237-0.012 2.715 2.715 0 0 1-0.13-0.016 2.715 2.715 0 0 1-0.14-0.02 2.715 2.715 0 0 1-0.128-0.03 2.715 2.715 0 0 1-0.133-0.033 2.715 2.715 0 0 1-0.132-0.044 2.715 2.715 0 0 1-0.123-0.045 2.715 2.715 0 0 1-0.128-0.058 2.715 2.715 0 0 1-0.12-0.057 2.715 2.715 0 0 1-0.119-0.069 2.715 2.715 0 0 1-0.113-0.069 2.715 2.715 0 0 1-0.113-0.08 2.715 2.715 0 0 1-0.106-0.082 2.715 2.715 0 0 1-0.099-0.087 2.715 2.715 0 0 1-0.103-0.096 2.715 2.715 0 0 1-0.09-0.097 2.715 2.715 0 0 1-0.09-0.102 2.715 2.715 0 0 1-0.084-0.11 2.715 2.715 0 0 1-0.078-0.109 2.715 2.715 0 0 1-0.071-0.116 2.715 2.715 0 0 1-0.068-0.118 2.715 2.715 0 0 1-0.058-0.12 2.715 2.715 0 0 1-0.056-0.126 2.715 2.715 0 0 1-0.045-0.124 2.715 2.715 0 0 1-0.045-0.133 2.715 2.715 0 0 1-0.032-0.127 2.715 2.715 0 0 1-0.03-0.136 2.715 2.715 0 0 1-0.02-0.135 2.715 2.715 0 0 1-0.017-0.132 2.715 2.715 0 0 1-0.012-0.238V11.53a2.723 2.723 0 0 1 0.012-0.227 2.723 2.723 0 0 1 0.016-0.135 2.723 2.723 0 0 1 0.02-0.132 2.723 2.723 0 0 1 0.03-0.136 2.723 2.723 0 0 1 0.035-0.13 2.723 2.723 0 0 1 0.042-0.129 2.723 2.723 0 0 1 0.047-0.128 2.723 2.723 0 0 1 0.056-0.126 2.723 2.723 0 0 1 0.058-0.119 2.723 2.723 0 0 1 0.07-0.123 2.723 2.723 0 0 1 0.069-0.111 2.723 2.723 0 0 1 0.081-0.114 2.723 2.723 0 0 1 0.08-0.106 2.723 2.723 0 0 1 0.091-0.103 2.723 2.723 0 0 1 0.093-0.1 2.723 2.723 0 0 1 0.097-0.09 2.723 2.723 0 0 1 0.106-0.093 2.723 2.723 0 0 1 0.104-0.08 2.723 2.723 0 0 1 0.114-0.08 2.723 2.723 0 0 1 0.192-0.119 1.95 1.95 0 0 1 0.016-0.133 1.95 1.95 0 0 1 0.015-0.094 1.95 1.95 0 0 1 0.021-0.096 1.95 1.95 0 0 1 0.025-0.093 1.95 1.95 0 0 1 0.03-0.094 1.95 1.95 0 0 1 0.034-0.091 1.95 1.95 0 0 1 0.04-0.089 1.95 1.95 0 0 1 0.058-0.118 0.248 0.248 0 0 1 0.01-0.018 0.248 0.248 0 0 1 0.004-0.005 0.248 0.248 0 0 1 0.01-0.013 0.248 0.248 0 0 1 0.006-0.007 0.248 0.248 0 0 1 0.007-0.008 0.248 0.248 0 0 1 0.01-0.011 0.248 0.248 0 0 1 0.007-0.006 0.248 0.248 0 0 1 0.011-0.009 0.248 0.248 0 0 1 0.012-0.008 0.248 0.248 0 0 1 0.008-0.005 0.248 0.248 0 0 1 0.016-0.009 0.248 0.248 0 0 1 0.006-0.003 0.248 0.248 0 0 1 0.013-0.006 0.248 0.248 0 0 1 0.011-0.005 0.248 0.248 0 0 1 0.01-0.003 0.248 0.248 0 0 1 0.013-0.004 0.248 0.248 0 0 1 0.013-0.003 0.248 0.248 0 0 1 0.011-0.002 0.248 0.248 0 0 1 0.01-0.001 0.248 0.248 0 0 1 0.017-0.002 0.248 0.248 0 0 1 0.006 0 0.248 0.248 0 0 1 0.019 0 0.248 0.248 0 0 1 0.007 0 0.248 0.248 0 0 1 0.016 0.003 0.248 0.248 0 0 1 0.01 0.002 0.248 0.248 0 0 1 0.014 0.003 0.248 0.248 0 0 1 0.012 0.004 0.248 0.248 0 0 1 0.011 0.003 0.248 0.248 0 0 1 0.013 0.005 0.248 0.248 0 0 1 0.01 0.005 0.248 0.248 0 0 1 0.01 0.005 0.248 0.248 0 0 1 0.012 0.006 0.248 0.248 0 0 1 0.009 0.006 0.248 0.248 0 0 1 0.012 0.008 0.248 0.248 0 0 1 0.007 0.005 0.248 0.248 0 0 1 0.012 0.01 0.248 0.248 0 0 1 0.01 0.01 0.248 0.248 0 0 1 0.01 0.01v-0.005l0.471 0.523a2.723 2.723 0 0 1 0.01 0 1.95 1.95 0 0 1-0.001-0.155 1.95 1.95 0 0 1 0.006-0.103 1.95 1.95 0 0 1 0.009-0.093 1.95 1.95 0 0 1 0.015-0.097 1.95 1.95 0 0 1 0.02-0.095 1.95 1.95 0 0 1 0.024-0.094 1.95 1.95 0 0 1 0.03-0.094 1.95 1.95 0 0 1 0.034-0.092 1.95 1.95 0 0 1 0.036-0.087 1.95 1.95 0 0 1 0.07-0.142c0.085-0.135 0.214-0.163 0.32-0.083 0.015 0.011 0.03 0.025 0.044 0.04l1.78 1.94v-0.002a1.926 1.926 0 0 0 0.092 0.089 1.926 1.926 0 0 0 0.071 0.064 1.926 1.926 0 0 0 0.076 0.06 1.926 1.926 0 0 0 0.078 0.057 1.926 1.926 0 0 0 0.08 0.05 1.926 1.926 0 0 0 0.084 0.05 1.926 1.926 0 0 0 0.085 0.043 1.926 1.926 0 0 0 0.087 0.04 1.926 1.926 0 0 0 0.092 0.036 1.926 1.926 0 0 0 0.089 0.03 1.926 1.926 0 0 0 0.095 0.026 1.926 1.926 0 0 0 0.091 0.022 1.926 1.926 0 0 0 0.097 0.016 1.926 1.926 0 0 0 0.094 0.013 1.926 1.926 0 0 0 0.096 0.006 1.926 1.926 0 0 0 0.096 0.003 1.926 1.926 0 0 0 0.097-0.003 1.926 1.926 0 0 0 0.096-0.006 1.926 1.926 0 0 0 0.094-0.013 1.926 1.926 0 0 0 0.097-0.016 1.926 1.926 0 0 0 0.09-0.022 1.926 1.926 0 0 0 0.096-0.025 1.926 1.926 0 0 0 0.089-0.031 1.926 1.926 0 0 0 0.092-0.036 1.926 1.926 0 0 0 0.087-0.04 1.926 1.926 0 0 0 0.085-0.043 1.926 1.926 0 0 0 0.084-0.05 1.926 1.926 0 0 0 0.08-0.05 1.926 1.926 0 0 0 0.078-0.058 1.926 1.926 0 0 0 0.075-0.059 1.926 1.926 0 0 0 0.072-0.064 1.926 1.926 0 0 0 0.092-0.089V9.66l1.78-1.94a0.294 0.294 0 0 1 0.044-0.04 0.212 0.212 0 0 1 0.107-0.044z m0.02 0.168c-0.813 0.742-1.419 1.714-2.325 2.358-0.932 0.557-2.21 0.194-2.823-0.67-0.512-0.56-1.007-1.17-1.563-1.667-0.324 0.258-0.164 0.745-0.332 1.078-0.208 0.206-0.42-0.181-0.526-0.316-0.084-0.17-0.317-0.283-0.386-0.048-0.163 0.278-0.04 0.74-0.416 0.857-0.919 0.59-1.277 1.757-1.149 2.792-0.03 0.982-0.066 2.116 0.698 2.859 1.106 1.18 3.29 1.048 4.174-0.32 0.058-0.14 0.145-0.301 0.261-0.42v-0.42a1.048 1.048 0 0 1 0-0.006l-0.35-0.059a0.052 0.052 0 0 1-0.042-0.058 1.446 1.446 0 0 1 1.418-1.194 1.446 1.446 0 0 1 1.43 1.194 0.052 0.052 0 0 1-0.043 0.058l-0.35 0.06a1.03 1.03 0 0 1 0 0.001v0.38l0.007 0.001c0.584 1.534 2.728 2.067 4.017 1.128a2.694 2.694 0 0 0 1.106-2.535c0.014-1.033 0.13-2.231-0.653-3.042-0.216-0.27-0.604-0.399-0.762-0.697-0.055-0.25-0.041-0.588-0.286-0.736-0.31 0.129-0.381 0.556-0.728 0.634-0.2-0.38-0.055-0.897-0.377-1.213zM11.782 9.828a1.995 1.995 0 0 1 1.994 1.995v1.2a1.996 1.996 0 0 1-0.245 0.913 27.203 27.203 0 0 0-0.815-0.328 0.95 0.95 0 0 0 0.035-0.037 0.95 0.95 0 0 0 0.016-0.018 0.95 0.95 0 0 0 0.048-0.058 0.95 0.95 0 0 0 0.012-0.017 0.95 0.95 0 0 0 0.04-0.06 0.95 0.95 0 0 0 0.013-0.02 0.95 0.95 0 0 0 0.032-0.062 0.95 0.95 0 0 0 0.011-0.022 0.95 0.95 0 0 0 0.024-0.06 0.95 0.95 0 0 0 0.012-0.031 0.95 0.95 0 0 0 0.017-0.058 0.95 0.95 0 0 0 0.009-0.033 0.95 0.95 0 0 0 0.01-0.054 0.95 0.95 0 0 0 0.007-0.043 0.95 0.95 0 0 0 0.007-0.082V11.92a0.95 0.95 0 0 0-0.004-0.08 0.95 0.95 0 0 0-0.005-0.047 0.95 0.95 0 0 0-0.007-0.047 0.95 0.95 0 0 0-0.01-0.047 0.95 0.95 0 0 0-0.012-0.045 0.95 0.95 0 0 0-0.016-0.047 0.95 0.95 0 0 0-0.015-0.042 0.95 0.95 0 0 0-0.02-0.047 0.95 0.95 0 0 0-0.02-0.04 0.95 0.95 0 0 0-0.025-0.042 0.95 0.95 0 0 0-0.024-0.04A0.95 0.95 0 0 0 12.824 11.36a0.95 0.95 0 0 0-0.03-0.039 0.95 0.95 0 0 0-0.03-0.034 0.95 0.95 0 0 0-0.033-0.036 0.95 0.95 0 0 0-0.035-0.032 0.95 0.95 0 0 0-0.035-0.031 0.95 0.95 0 0 0-0.038-0.029 0.95 0.95 0 0 0-0.039-0.028 0.95 0.95 0 0 0-0.04-0.025 0.95 0.95 0 0 0-0.04-0.023 0.95 0.95 0 0 0-0.043-0.02 0.95 0.95 0 0 0-0.046-0.02 0.95 0.95 0 0 0-0.043-0.017 0.95 0.95 0 0 0-0.043-0.014 0.95 0.95 0 0 0-0.049-0.012 0.95 0.95 0 0 0-0.046-0.01 0.95 0.95 0 0 0-0.045-0.008 0.95 0.95 0 0 0-0.048-0.006 0.95 0.95 0 0 0-0.08-0.004 0.96 0.96 0 0 0-0.06 0.004 0.96 0.96 0 0 0-0.05 0.005 0.96 0.96 0 0 0-0.043 0.007 0.96 0.96 0 0 0-0.051 0.01 0.96 0.96 0 0 0-0.045 0.012 0.96 0.96 0 0 0-0.047 0.014 0.96 0.96 0 0 0-0.046 0.018 0.96 0.96 0 0 0-0.055 0.023 0.6 0.6 0 0 1 0.04 0.04 0.6 0.6 0 0 1 0.022 0.024 0.6 0.6 0 0 1 0.017 0.02 0.6 0.6 0 0 1 0.018 0.025 0.6 0.6 0 0 1 0.017 0.026 0.6 0.6 0 0 1 0.013 0.023 0.6 0.6 0 0 1 0.016 0.028 0.6 0.6 0 0 1 0.011 0.026 0.6 0.6 0 0 1 0.013 0.03 0.6 0.6 0 0 1 0.008 0.025 0.6 0.6 0 0 1 0.01 0.031 0.6 0.6 0 0 1 0.007 0.03 0.6 0.6 0 0 1 0.006 0.029 0.6 0.6 0 0 1 0.004 0.037 0.6 0.6 0 0 1 0.002 0.021 0.6 0.6 0 0 1 0 0.041 0.6 0.6 0 0 1 0 0.02 0.6 0.6 0 0 1-0.002 0.03 0.6 0.6 0 0 1-0.003 0.031 0.6 0.6 0 0 1-0.004 0.024 0.6 0.6 0 0 1-0.007 0.034 0.6 0.6 0 0 1-0.008 0.028 0.6 0.6 0 0 1-0.01 0.03 0.6 0.6 0 0 1-0.012 0.03 0.6 0.6 0 0 1-0.01 0.024 0.6 0.6 0 0 1-0.016 0.03 0.6 0.6 0 0 1-0.013 0.024 0.6 0.6 0 0 1-0.02 0.03 0.6 0.6 0 0 1-0.012 0.018 0.6 0.6 0 0 1-0.026 0.032 0.6 0.6 0 0 1-0.013 0.015 0.6 0.6 0 0 1-0.02 0.02 0.6 0.6 0 0 1-0.024 0.024 0.6 0.6 0 0 1-0.02 0.015 0.6 0.6 0 0 1-0.025 0.021 0.6 0.6 0 0 1-0.027 0.018 0.6 0.6 0 0 1-0.024 0.015 0.6 0.6 0 0 1-0.023 0.012 0.6 0.6 0 0 1-0.03 0.016 0.6 0.6 0 0 1-0.034 0.013 0.6 0.6 0 0 1-0.02 0.008 0.6 0.6 0 0 1-0.038 0.011 0.6 0.6 0 0 1-0.02 0.006 0.6 0.6 0 0 1-0.034 0.006 0.6 0.6 0 0 1-0.026 0.005 0.6 0.6 0 0 1-0.04 0.003 0.6 0.6 0 0 1-0.018 0.002 0.6 0.6 0 0 1-0.035 0 0.6 0.6 0 0 1-0.028 0 0.6 0.6 0 0 1-0.031-0.005 0.6 0.6 0 0 1-0.026-0.003 0.6 0.6 0 0 1-0.056-0.012v0.859a0.95 0.95 0 0 0 0.004 0.048 0.95 0.95 0 0 0 0.007 0.062 15.08 15.08 0 0 0-1.336-0.332v-0.908a1.987 1.987 0 0 1 1.996-1.995z m7.156 0a1.995 1.995 0 0 1 1.996 1.995v0.909c-0.425 0.085-0.87 0.195-1.336 0.333a0.95 0.95 0 0 0 0.007-0.066 0.95 0.95 0 0 0 0.004-0.046V11.92a0.95 0.95 0 0 0-0.004-0.081 0.95 0.95 0 0 0-0.006-0.046 0.95 0.95 0 0 0-0.007-0.047 0.95 0.95 0 0 0-0.01-0.046 0.95 0.95 0 0 0-0.012-0.048 0.95 0.95 0 0 0-0.014-0.041 0.95 0.95 0 0 0-0.018-0.048 0.95 0.95 0 0 0-0.019-0.043 0.95 0.95 0 0 0-0.02-0.042 0.95 0.95 0 0 0-0.024-0.04 0.95 0.95 0 0 0-0.025-0.042 0.95 0.95 0 0 0-0.028-0.039 0.95 0.95 0 0 0-0.028-0.036 0.95 0.95 0 0 0-0.032-0.037 0.95 0.95 0 0 0-0.032-0.035 0.95 0.95 0 0 0-0.036-0.033 0.95 0.95 0 0 0-0.033-0.03 0.95 0.95 0 0 0-0.04-0.03 0.95 0.95 0 0 0-0.037-0.026 0.95 0.95 0 0 0-0.042-0.026 0.95 0.95 0 0 0-0.04-0.023 0.95 0.95 0 0 0-0.042-0.02 0.95 0.95 0 0 0-0.046-0.02 0.95 0.95 0 0 0-0.04-0.016 0.95 0.95 0 0 0-0.048-0.015 0.95 0.95 0 0 0-0.046-0.012 0.95 0.95 0 0 0-0.047-0.01 0.95 0.95 0 0 0-0.047-0.007 0.95 0.95 0 0 0-0.045-0.006 0.95 0.95 0 0 0-0.081-0.004 0.96 0.96 0 0 0-0.057 0.004 0.96 0.96 0 0 0-0.045 0.004 0.96 0.96 0 0 0-0.052 0.008 0.96 0.96 0 0 0-0.044 0.008 0.96 0.96 0 0 0-0.046 0.012 0.96 0.96 0 0 0-0.047 0.014 0.96 0.96 0 0 0-0.043 0.016 0.96 0.96 0 0 0-0.045 0.018 0.96 0.96 0 0 0-0.045 0.023 0.96 0.96 0 0 0-0.048 0.024 0.6 0.6 0 0 1 0.04 0.045 0.6 0.6 0 0 1 0.033 0.05 0.6 0.6 0 0 1 0.03 0.052 0.6 0.6 0 0 1 0.024 0.055 0.6 0.6 0 0 1 0.018 0.057 0.6 0.6 0 0 1 0.005 0.025 0.6 0.6 0 0 1 0.007 0.034 0.6 0.6 0 0 1 0.005 0.042 0.6 0.6 0 0 1 0.002 0.017 0.6 0.6 0 0 1 0 0.001 0.6 0.6 0 0 1 0 0.06 0.6 0.6 0 0 1-0.005 0.06 0.6 0.6 0 0 1-0.004 0.022 0.6 0.6 0 0 1-0.007 0.036 0.6 0.6 0 0 1-0.017 0.057 0.6 0.6 0 0 1 0 0.001 0.6 0.6 0 0 1-0.023 0.055 0.6 0.6 0 0 1-0.028 0.053 0.6 0.6 0 0 1-0.033 0.05 0.6 0.6 0 0 1-0.039 0.046 0.6 0.6 0 0 1-0.042 0.042 0.6 0.6 0 0 1-0.046 0.038 0.6 0.6 0 0 1-0.05 0.033 0.6 0.6 0 0 1-0.001 0 0.6 0.6 0 0 1-0.053 0.027 0.6 0.6 0 0 1-0.055 0.023 0.6 0.6 0 0 1-0.058 0.016 0.6 0.6 0 0 1-0.032 0.006 0.6 0.6 0 0 1-0.087 0.01 0.6 0.6 0 0 1-0.06 0v0.838a0.95 0.95 0 0 0 0.007 0.084 0.95 0.95 0 0 0 0.007 0.042 0.95 0.95 0 0 0 0.01 0.054 0.95 0.95 0 0 0 0.01 0.032 0.95 0.95 0 0 0 0.016 0.06 0.95 0.95 0 0 0 0.011 0.029 0.95 0.95 0 0 0 0.025 0.06 0.95 0.95 0 0 0 0.01 0.022 0.95 0.95 0 0 0 0.034 0.063 0.95 0.95 0 0 0 0.011 0.018 0.95 0.95 0 0 0 0.041 0.063 0.95 0.95 0 0 0 0.01 0.012 0.95 0.95 0 0 0 0.052 0.063 0.95 0.95 0 0 0 0.008 0.008 0.95 0.95 0 0 0 0.043 0.046c-0.268 0.103-0.54 0.213-0.815 0.33a1.996 1.996 0 0 1-0.247-0.916v-1.2a1.986 1.986 0 0 1 1.995-1.995zM15.395 12.68c-0.038 0-0.077 0-0.115 0.003a1.35 1.35 0 0 0-1.224 1.042l1.301 0.198 0.688-0.108 0.603-0.138c-0.13-0.565-0.68-0.983-1.253-0.997z m0.86 1.184c-0.084-0.005-0.009 0.142-0.024 0.214 0.01 0.453 0.025 0.912-0.024 1.362-0.143 0.554-0.892 0.836-1.35 0.477-0.337-0.235-0.425-0.684-0.371-1.068-0.001-0.32-0.02-0.641 0.014-0.96-0.161-0.086-0.06 0.106-0.086 0.194 0.01 0.609-0.049 1.226 0.045 1.829 0.186 0.598 1.027 0.855 1.5 0.43 0.31-0.25 0.399-0.685 0.35-1.067-0.004-0.466 0.012-0.933-0.009-1.399a0.142 0.142 0 0 0-0.046-0.012z m-0.144 0.046a0.399 0.399 0 0 0-0.066 0.013 1.568 1.568 0 0 1-0.112 0.036l-0.03 0.008a1.3 1.3 0 0 1-0.085 0.02l-0.028 0.006a1.681 1.681 0 0 1-0.27 0.03l-0.035 0.002a3.33 3.33 0 0 1-0.148 0h-0.016a2.6 2.6 0 0 1-0.171-0.013c-0.006 0-0.012 0-0.017-0.002a5.958 5.958 0 0 1-0.279-0.038l-0.072-0.01-0.182-0.033a0.794 0.7540000000000001 0 0 0-0.035 0.223v1.087a0.803 0.763 0 0 0 0.795 0.755 0.794 0.7540000000000001 0 0 0 0.794-0.755V14.149999999999999a0.795 0.755 0 0 0-0.043-0.243z m0.04 1.367a0.794 0.794 0 0 1-0.005 0.035 0.794 0.794 0 0 0 0.004-0.035z m-0.013 0.082a0.794 0.794 0 0 1-0.007 0.03 0.794 0.794 0 0 0 0.007-0.03z m-0.02 0.075a0.794 0.794 0 0 1-0.01 0.03 0.794 0.794 0 0 0 0.01-0.03z m-0.028 0.079a0.794 0.794 0 0 1-0.01 0.022 0.794 0.794 0 0 0 0.01-0.022z m-0.035 0.071a0.794 0.794 0 0 1-0.012 0.02 0.794 0.794 0 0 0 0.012-0.02z m-0.044 0.07a0.794 0.794 0 0 1-0.01 0.014 0.794 0.794 0 0 0 0.01-0.014z m-0.05 0.064a0.794 0.794 0 0 1-0.01 0.01 0.794 0.794 0 0 0 0.01-0.01z m-0.053 0.056a0.794 0.794 0 0 1-0.006 0.006 0.794 0.794 0 0 0 0.006-0.006z m-3.066 2.62a0.132 0.132 0 0 1 0.014 0h1.823a0.14 0.14 0 0 1 0.14 0.181c-0.14 0.42-0.573 0.709-1.056 0.712a1.085 1.085 0 0 1-1.047-0.712 0.132 0.132 0 0 1 0.126-0.182z m3.203 0a0.144 0.144 0 0 1 0.005 0h1.824a0.14 0.14 0 0 1 0.14 0.179c-0.14 0.418-0.572 0.71-1.06 0.71a1.085 1.085 0 0 1-1.043-0.708 0.144 0.144 0 0 1 0.134-0.18z m-1.6 1.548a0.14 0.14 0 0 1 0.005 0h1.824a0.14 0.14 0 0 1 0.139 0.182c-0.135 0.423-0.568 0.711-1.056 0.711a1.085 1.085 0 0 1-1.046-0.711 0.14 0.14 0 0 1 0.135-0.182zM7.81 21.596a0.931 0.931 0 0 0-0.66 0.299v-0.002a0.944 0.944 0 0 0 0.041 1.325l1.088 1.02a0.938 0.938 0 0 0 1.284-1.367l-1.088-1.019a0.931 0.931 0 0 0-0.665-0.256z m15.115 0a0.931 0.931 0 0 0-0.678 0.256l-1.089 1.019a0.938 0.938 0 0 0 1.285 1.368l1.087-1.019a0.944 0.944 0 0 0 0.042-1.325 0.931 0.931 0 0 0-0.647-0.299z" /></svg>