<svg xmlns="http://www.w3.org/2000/svg" width="100%" height="100%" viewBox="0 0 30.72 30.72"><path d="M14.415 3.3679999999999994c-0.056 0.006-0.236 0.027-0.398 0.041C11.709 3.6509999999999994 9.436 4.629999999999999 7.582999999999999 6.18a15.658 15.654 0 0 0-1.405 1.405C4.642999999999999 9.418 3.7459999999999996 11.475 3.4159999999999995 13.908999999999999c-0.074 0.54-0.074 2.364 0 2.904 0.33 2.435 1.228 4.492 2.762 6.325a15.658 15.654 0 0 0 1.405 1.405c1.833 1.535 3.89 2.432 6.325 2.762 0.54 0.073 2.364 0.073 2.904 0 2.435-0.331 4.492-1.228 6.325-2.762a15.658 15.654 0 0 0 1.405-1.405c1.535-1.833 2.432-3.89 2.762-6.325 0.074-0.54 0.074-2.364 0-2.904-0.33-2.433-1.228-4.49-2.762-6.323a15.658 15.654 0 0 0-1.405-1.405C21.31 4.651 19.232 3.7419999999999995 16.83 3.4209999999999994c-0.26-0.036-0.637-0.05-1.337-0.057a25.795 25.788 0 0 0-1.077 0.003z m0.147 1.275c0 0.345 0.024 1.095 0.056 1.806 0.018 0.348 0.038 0.847 0.047 1.107 0.032 0.92 0.13 3.338 0.145 3.553l0.015 0.215-0.133-0.015a0.504 0.504 0 0 1-0.153-0.032 3.247 3.247 0 0 1-0.041-0.455 702.86 702.682 0 0 1-0.245-5.723l-0.018-0.655 0.083-0.012c0.044-0.006 0.118-0.015 0.165-0.018l0.08-0.003v0.23z m2.825-0.07c0.003 0.002 0.012 0.893 0.021 1.98 0.012 1.088 0.027 2.065 0.035 2.17 0.01 0.11 0.006 0.205-0.009 0.21a0.433 0.433 0 0 1-0.159 0l-0.136-0.011-0.02-0.86-0.033-1.17c-0.024-0.523-0.044-2.297-0.027-2.34 0.012-0.033 0.044-0.036 0.168-0.016 0.086 0.018 0.156 0.032 0.16 0.035zM10.559999999999999 5.56c0.018 0.027 0.156 1.653 0.328 3.78 0.056 0.724 0.112 1.385 0.12 1.468 0.016 0.15 0.013 0.156-0.082 0.215a0.519 0.519 0 0 1-0.118 0.059c-0.01 0-0.027-0.077-0.035-0.171-0.041-0.384-0.201-2.237-0.313-3.577a173.64 173.628 0 0 0-0.133-1.57c-0.015-0.13-0.012-0.142 0.065-0.183 0.094-0.05 0.148-0.059 0.168-0.02z m8.125 0.593c0.083 0.03 0.091 0.044 0.11 0.213 0.03 0.295 0.02 1.706-0.013 1.706-0.086 0-0.263-0.1-0.277-0.156a14.379 14.375 0 0 1-0.018-0.93c0-0.959-0.012-0.903 0.198-0.832z m-5.451 0.14c0 0.08 0.02 0.518 0.044 0.982L13.34 8.579999999999998c0.02 0.514 0.027 0.496-0.171 0.508-0.097 0.003-0.097 0.003-0.103-0.145-0.006-0.083-0.021-0.34-0.038-0.576-0.015-0.236-0.05-0.747-0.074-1.136a32.49 32.486 0 0 0-0.062-0.859c-0.018-0.148-0.015-0.153 0.065-0.183a0.617 0.617 0 0 1 0.183-0.032c0.094-0.003 0.094-0.003 0.094 0.136z m8.187 0.403l0.1 0.041 0.021 0.395c0.01 0.215 0.015 0.682 0.01 1.033l-0.01 0.643-0.124-0.062-0.124-0.06-0.009-0.98a21.73 21.728 0 0 1 0.003-1.017c0.012-0.044 0.012-0.044 0.133 0.006z m-5.389 0.387c0.018 0.018 0.059 1.45 0.062 2.175l0.003 0.437-0.139-0.021a1.3 1.3 0 0 1-0.148-0.021c-0.009-0.006-0.097-2.193-0.097-2.405V7.029999999999999l0.151 0.018a0.743 0.743 0 0 1 0.168 0.035z m6.797 0.21c0.035 0.04 0.041 0.687 0.05 4.252 0.01 4.092 0.01 4.2-0.044 4.2a0.197 0.197 0 0 1-0.103-0.04c-0.044-0.032-0.05-0.39-0.065-3.885a475.465 475.342 0 0 0-0.035-4.277l-0.018-0.425 0.086 0.062c0.05 0.035 0.106 0.086 0.13 0.112z m-2.647 0.605c0.015 0.012 0.03 0.18 0.032 0.372 0.015 0.652 0.018 4.65 0.003 4.663-0.006 0.006-0.059-0.01-0.118-0.032l-0.106-0.044v-5.02l0.083 0.018c0.044 0.012 0.092 0.03 0.106 0.044z m-8.146 0.165c0.009 0.08 0.024 0.26 0.032 0.407l0.047 0.732c0.035 0.519 0.03 0.552-0.14 0.552-0.088 0-0.1-0.01-0.111-0.097-0.03-0.174-0.133-1.626-0.118-1.65a0.654 0.654 0 0 1 0.239-0.08c0.018-0.003 0.04 0.06 0.05 0.136z m-4.882 0.752l0.145 1.455c0.05 0.487 0.092 0.9 0.092 0.918 0 0.035-0.227 0.148-0.251 0.124a96.061 96.03599999999999 0 0 1-0.31-2.745c0-0.07 0.227-0.37 0.257-0.336a6.6 6.6 0 0 1 0.068 0.584z m11.572 0.31l0.086 0.05 0.003 0.638c0.003 0.348 0.01 0.738 0.01 0.865 0.005 0.266-0.028 0.31-0.187 0.254l-0.09-0.032v-0.254c0-0.142-0.01-0.552-0.022-0.915l-0.018-0.655h0.068a0.41 0.41 0 0 1 0.151 0.05zM8.45 10.27l0.195 2.125 0.1 1.09-0.115 0.115-0.112 0.115-0.021-0.233c-0.012-0.13-0.071-0.73-0.133-1.34-0.062-0.606-0.151-1.49-0.195-1.96l-0.083-0.85 0.115-0.104c0.103-0.097 0.115-0.1 0.136-0.047 0.012 0.03 0.062 0.519 0.112 1.089z m-2.211 0.358c0.065 0.58 0.236 2.128 0.384 3.433 0.148 1.307 0.286 2.568 0.313 2.804 0.024 0.236 0.065 0.593 0.089 0.797 0.04 0.345 0.04 0.37-0.006 0.404-0.071 0.053-0.1 0.047-0.1-0.015 0-0.027-0.027-0.25-0.06-0.493l-0.338-2.627c-0.041-0.31-0.121-0.927-0.177-1.372a466.6 466.4820000000001 0 0 1-0.37-2.87c-0.052-0.401-0.085-0.76-0.076-0.797 0.02-0.08 0.195-0.357 0.213-0.34 0.006 0.01 0.065 0.49 0.13 1.075zM5.335999999999999 11.899999999999999l0.183 1.44c0.056 0.435 0.127 0.981 0.159 1.21l0.056 0.411-0.062 0.053c-0.035 0.03-0.071 0.04-0.083 0.03a1.17 1.17 0 0 1-0.053-0.26c-0.018-0.13-0.127-0.888-0.245-1.68l-0.21-1.446 0.068-0.201a0.724 0.724 0 0 1 0.083-0.198c0.012 0 0.056 0.289 0.103 0.64z m16.203-0.387c0.041 0.04 0.047 0.224 0.047 1.579v1.53h-0.083c-0.18 0-0.177 0.044-0.189-1.63l-0.009-1.526h0.094c0.05 0 0.115 0.02 0.14 0.047z m-6.46 0.528c0.667 0.1 1.248 0.286 1.824 0.58 0.372 0.193 0.55 0.326 0.962 0.72 0.614 0.586 0.992 1.1 1.346 1.826 0.516 1.057 0.717 1.992 0.971 4.5 0.115 1.125 0.266 3.165 0.298 4 0.01 0.242 0.03 0.64 0.047 0.885 0.032 0.519 0.071 0.449-0.387 0.67-0.635 0.307-1.245 0.519-2.05 0.717-0.987 0.242-1.624 0.319-2.598 0.322l-0.708 0.003 0.006-0.34c0-0.185 0.018-0.62 0.035-0.958 0.089-1.644 0.071-3.72-0.044-4.87-0.065-0.66-0.192-1.464-0.263-1.64-0.015-0.04 0.053-0.072 0.345-0.172 0.534-0.186 0.998-0.42 1.068-0.534 0.127-0.218-0.1-0.53-0.39-0.53-0.05 0-0.201 0.052-0.339 0.114-0.661 0.304-1.986 0.66-2.751 0.74a7.794 7.792 0 0 1-1.918-0.08c-0.31-0.055-0.865-0.265-1.328-0.504-0.534-0.277-0.862-0.646-0.96-1.083-0.052-0.236-0.037-0.708 0.03-0.974a3.15 3.15 0 0 1 0.47-0.965c0.84-1.105 2.577-2.064 4.356-2.4a6.632 6.632 0 0 1 1.977-0.027z m9.105 0.092c0.106 0.044 0.118 0.056 0.118 0.156 0.006 0.806-0.012 2.645-0.027 2.722-0.003 0.027-0.156 0.03-0.22 0.006-0.042-0.015-0.048-0.174-0.048-1.476 0-0.931 0.012-1.456 0.03-1.456 0.015 0 0.083 0.02 0.148 0.047z m1.29 1.62l0.105 0.042-0.02 2.444c-0.025 3.114-0.028 3.205-0.14 3.474-0.183 0.44-0.174 0.528-0.156-1.402 0.006-0.965 0.021-1.942 0.027-2.17 0.006-0.226 0.012-0.867 0.015-1.425 0-0.673 0.01-1.01 0.03-1.01 0.018 0 0.08 0.022 0.14 0.045z m-17.75 0.733c0.018 0.24 0.012 0.263-0.074 0.452l-0.094 0.2-0.035-0.294c-0.056-0.472-0.056-0.493 0.056-0.564 0.05-0.035 0.103-0.06 0.112-0.053 0.009 0.006 0.027 0.124 0.035 0.26z m-1.824 1.78c0.027 0.242 0.233 1.848 0.339 2.636 0.159 1.219 0.17 1.393 0.1 1.319a14.7 14.696 0 0 1-0.148-0.912c-0.46-3.182-0.457-3.16-0.42-3.185 0.08-0.053 0.107-0.024 0.128 0.142z m2.125 1.35c0.018 0.075 0.103 0.875 0.103 0.972 0 0.083-0.106 0.16-0.153 0.112-0.015-0.015-0.053-0.266-0.083-0.555l-0.074-0.676-0.018-0.148 0.103 0.118a0.656 0.656 0 0 1 0.12 0.177z m2.382 1.114c0.032 0.03 0.053 0.148 0.08 0.466 0.044 0.576 0.05 0.53-0.071 0.53-0.124 0-0.121 0.01-0.162-0.51-0.041-0.528-0.041-0.522 0.038-0.522 0.038 0 0.089 0.018 0.115 0.035z m2.337 0.044c0.006 0.03 0.02 0.207 0.032 0.393 0.009 0.186 0.035 0.605 0.059 0.93 0.083 1.192 0.086 1.343 0.035 1.343-0.056 0-0.062-0.044-0.127-0.885a70.726 70.708 0 0 0-0.097-1.22c-0.027-0.32-0.044-0.59-0.035-0.595 0.032-0.035 0.118-0.01 0.133 0.035z m-5.548 0.567c0.018 0.027 0.13 0.97 0.269 2.26 0.04 0.39 0.083 0.765 0.09 0.836l0.016 0.127-0.074-0.047a0.153 0.153 0 0 1-0.077-0.145c0-0.186-0.127-1.411-0.224-2.16-0.056-0.425-0.1-0.8-0.1-0.835 0-0.062 0.07-0.086 0.1-0.035z m17.032 1.234l-0.02 1.234-0.075 0.109c-0.168 0.248-0.159 0.295-0.15-1.086l0.005-1.266 0.11-0.112a0.574 0.574 0 0 1 0.13-0.11c0.008 0 0.008 0.556 0 1.232z m-2.73 1.956c0.015 1.715 0.012 1.848-0.035 1.9-0.03 0.033-0.056 0.054-0.065 0.045-0.02-0.024-0.05-3.763-0.027-3.784 0.012-0.012 0.041-0.018 0.068-0.015 0.038 0.009 0.047 0.218 0.06 1.853z m-9.64-1.174c0.022 0.183 0.095 1.06 0.125 1.473 0.018 0.277 0.018 0.286-0.047 0.307-0.035 0.012-0.077 0.009-0.09-0.006-0.02-0.021-0.085-0.676-0.164-1.685l-0.021-0.242h0.09c0.087 0 0.092 0.006 0.107 0.153z m-2.32 1.033c0.022 0.02 0.036 0.094 0.036 0.168 0 0.077 0.035 0.475 0.074 0.888 0.112 1.13 0.12 1.284 0.07 1.254-0.076-0.044-0.144-0.112-0.13-0.13a2.02 2.02 0 0 0-0.03-0.328 14.43 14.428999999999998 0 0 1-0.058-0.62 19.044 19.04 0 0 0-0.062-0.694c-0.056-0.516-0.053-0.576 0.012-0.576 0.03 0 0.068 0.015 0.089 0.035z m1.397 1.986c0.009 0.065 0.027 0.307 0.038 0.537 0.02 0.443 0.012 0.475-0.11 0.384-0.034-0.027-0.058-0.14-0.093-0.475-0.062-0.608-0.065-0.584 0.05-0.573 0.086 0.009 0.097 0.02 0.115 0.127zM9.879999999999999 13.453999999999999c-0.307 0.133-0.331 0.55-0.041 0.697 0.21 0.106 0.422 0.056 0.53-0.127a0.392 0.392 0 0 0-0.49-0.57z m2 0.283a0.453 0.453 0 0 0 0 0.767c0.28 0.168 0.644-0.053 0.644-0.39 0-0.325-0.372-0.543-0.643-0.378z" /></svg>