<svg xmlns="http://www.w3.org/2000/svg" width="100%" height="100%" viewBox="0 0 30.72 30.72"><path d="M15.346 3.3599999999999994C9.1 3.3599999999999994 3.829999999999999 8.2 3.3899999999999992 14.527c-0.46 6.61 4.527 12.343 11.138 12.804 6.61 0.46 12.343-4.527 12.804-11.138C27.79 9.582999999999998 22.804 3.8499999999999996 16.192999999999998 3.3899999999999992 15.91 3.369999999999999 15.626999999999999 3.3599999999999994 15.346 3.3599999999999994z m1.89 3.14c0.426 0 0.845 0.027 1.258 0.079l-0.604 1.12-1.116 2.073-0.757 1.414c-0.027 0.05-0.056 0.07-0.114 0.067-1.187-0.08-2.017 0.235-2.156 0.266l0.2-0.75 1.015-3.768c0.023-0.085 0.047-0.17 0.068-0.256 0.71-0.16 1.449-0.244 2.206-0.244z m2.544 0.327c1.191 0.312 2.298 0.838 3.277 1.534L21.259999999999998 9.873999999999999l-1.712 1.435c-0.288 0.242-0.576 0.486-0.861 0.732-0.046 0.039-0.08 0.043-0.137 0.017a5.77 5.77 0 0 0-1.893-0.708l0.463-0.67 1.83-2.651c0.277-0.4 0.554-0.8 0.83-1.202z m-5.699 0.181c-0.016 0.104-0.03 0.201-0.047 0.298a1675.621 1675.621 0 0 1-0.58 3.327c-0.06 0.352-0.115 0.645-0.17 0.998-0.01 0.066-0.051 0.076-0.093 0.093-0.886 0.368-1.605 1.009-1.837 1.236l-0.053-0.635c-0.02-0.227-0.037-0.453-0.055-0.679-0.019-0.235-0.037-0.47-0.057-0.704l-0.06-0.685-0.057-0.678-0.06-0.703c-0.005-0.066-0.015-0.132-0.014-0.198l0.001-0.005a10.086 10.086 0 0 1 3.082-1.665zM10.227 9.355l0.142 0.632 0.522 2.323c0.066 0.293 0.133 0.568 0.195 0.862a0.123 0.123 0 0 1-0.024 0.093 6.798 6.798 0 0 0-0.955 1.466l-0.277-0.559c-0.43-0.865-0.859-1.73-1.29-2.593a0.142 0.142 0 0 1-0.018-0.063l0.125-0.206c0.249-0.353 0.491-0.713 0.755-1.055 0.197-0.254 0.433-0.477 0.651-0.714l0.174-0.186z m5.338 2.134c0.117 0 0.234 0.003 0.351 0.011 0.807 0.053 1.561 0.298 2.274 0.676 0.457 0.242 0.878 0.536 1.27 0.871 0.067 0.057 0.13 0.118 0.202 0.184l-1.383 0.95-3.723 2.544c-0.308 0.21-0.615 0.425-0.925 0.633-0.07 0.046-0.092 0.086-0.072 0.172 0.08 0.346 0.147 0.694 0.22 1.04 0.003 0.015 0.01 0.028 0.017 0.049l0.622-0.123 1.241 2.606c-0.148-0.02-0.282-0.041-0.417-0.057-0.285-0.032-0.57-0.067-0.856-0.09a7.53 7.53 0 0 0-0.758-0.032c-0.453 0.01-0.907 0.038-1.34 0.192-0.242 0.086-0.46 0.208-0.622 0.432-0.109-0.107-0.219-0.208-0.32-0.316a5.686 5.686 0 0 1-1.012-1.503 5.857 5.857 0 0 1-0.47-1.566 5.387 5.387 0 0 1-0.051-1.28 5.775 5.775 0 0 1 1.053-2.916 5.85 5.85 0 0 1 3.804-2.4c0.297-0.051 0.596-0.077 0.895-0.077z m-1.39 0.785c-0.026 0.011-0.051 0.021-0.076 0.033a7.446 7.446 0 0 0-1.525 0.95 6.121 6.121 0 0 0-1.403 1.555 4.536 4.536 0 0 0-0.686 2.253c-0.018 0.485 0.05 0.962 0.17 1.431 0.17 0.675 0.454 1.304 0.798 1.907 0.033 0.058 0.074 0.05 0.115 0.031 0.119-0.056 0.235-0.118 0.357-0.18l-0.04-0.07c-0.164-0.287-0.344-0.566-0.489-0.862-0.393-0.805-0.599-1.65-0.52-2.554 0.03-0.33 0.089-0.652 0.192-0.966 0.372-1.127 1.09-2.004 1.988-2.75 0.35-0.29 0.723-0.548 1.119-0.778zM8.036999999999999 12.459999999999999l0.347 0.464c0.506 0.68 1.018 1.358 1.524 2.037 0.037 0.05 0.065 0.091 0.037 0.162-0.143 0.366-0.27 0.83-0.318 1.205-0.124-0.109-0.247-0.216-0.36-0.317l-1.502-1.324c-0.116-0.103-0.233-0.205-0.346-0.312a0.11 0.11 0 0 1-0.028-0.052 10.186 10.186 0 0 1 0.617-1.808l0.029-0.055zM20.36 13.055l0.135 0.816c0.057 0.353 0.111 0.706 0.168 1.06l0.193 1.192c0.036 0.217 0.07 0.435 0.107 0.653 0.01 0.057 0.003 0.086-0.067 0.099-0.79 0.153-1.581 0.311-2.372 0.466-0.987 0.194-1.975 0.385-2.962 0.578-0.516 0.101-1.03 0.205-1.546 0.307-0.009 0.002-0.017 0-0.032-0.001-0.058-0.207-0.119-0.414-0.172-0.623-0.006-0.022 0.016-0.06 0.038-0.08zM7.218 15.229999999999999l0.572 0.356c0.566 0.352 1.143 0.707 1.71 1.057 0.055 0.034 0.075 0.068 0.072 0.13-0.009 0.152-0.045 0.858 0.035 1.355l-0.42-0.147c-0.677-0.234-1.353-0.469-2.03-0.7a0.188 0.188 0 0 1-0.03-0.014 10.418 10.418 0 0 1 0.09-2.037z m-0.018 2.834c0.117 0.022 0.23 0.043 0.342 0.067 0.696 0.145 1.387 0.287 2.082 0.435 0.03 0.007 0.075 0.042 0.078 0.069 0.06 0.28 0.249 0.819 0.257 0.85h-0.401c-0.314 0-0.628-0.002-0.942 0-0.37 0.004-0.741 0.01-1.112 0.018h-0.007a10.21 10.21 0 0 1-0.297-1.44z m8.243 0.561c0.02 0 0.05 0.02 0.067 0.036 0.304 0.302 0.597 0.615 0.911 0.905 0.264 0.244 0.552 0.461 0.83 0.69 0.395 0.324 0.741 0.697 1.039 1.113 0.52 0.727 0.896 1.522 1.105 2.392a0.481 0.481 0 0 1-0.032 0.25c-0.09 0.265-0.282 0.457-0.494 0.628-0.296 0.24-0.63 0.42-0.982 0.566-0.073 0.03-0.1 0.015-0.132-0.056-0.363-0.794-0.73-1.586-1.096-2.378l-1.487-3.223-0.347-0.75-0.02-0.052c0.214-0.041 0.424-0.083 0.634-0.12h0.004zM10.05 19.83c0.035 0 0.06 0.017 0.084 0.06 0.132 0.232 0.158 0.337 0.431 0.76L8.45 21.777c-0.257-0.45-0.48-0.923-0.667-1.413l0.49-0.117 1.732-0.413a0.18 0.18 0 0 1 0.046-0.006z m3.534 1.412c0.118 0 0.235 0.005 0.353 0.015 0.537 0.045 1.072 0.111 1.608 0.171 0.027 0.003 0.063 0.03 0.075 0.055 0.217 0.469 0.432 0.939 0.646 1.41 0.01 0.02 0.01 0.052 0 0.07l-0.597 1.078c-0.417-0.071-0.824-0.148-1.234-0.208a14.496 14.496 0 0 0-0.948-0.108c-0.324-0.026-0.649-0.05-0.973-0.049-0.543 0-1.083 0.05-1.603 0.225l-0.045 0.014 0.305-0.71c0.191-0.446 0.388-0.89 0.57-1.34a0.647 0.647 0 0 1 0.307-0.334 2.2 2.2 0 0 1 0.761-0.23c0.257-0.036 0.516-0.059 0.775-0.059z m0.02 0.27a5.133 5.133 0 0 0-1.324 0.21 0.155 0.155 0 0 0-0.083 0.076c-0.169 0.345-0.335 0.692-0.5 1.039-0.051 0.104-0.1 0.21-0.15 0.315l0.023 0.02c0.005-0.013 0.007-0.028 0.015-0.039 0.285-0.4 0.57-0.8 0.857-1.198a0.234 0.234 0 0 1 0.113-0.08c0.535-0.165 1.072-0.314 1.645-0.272-0.027-0.008-0.054-0.017-0.081-0.022a2.644 2.644 0 0 0-0.515-0.048z" /></svg>