<svg xmlns="http://www.w3.org/2000/svg" width="100%" height="100%" viewBox="0 0 30.72 30.72"><path d="M19.464 4.055999999999999c-1.724-0.63-3.49-0.8-5.205-0.64-1.988 0.157-2.958 0.772-2.9 0.661-3.251 1.16-6 3.657-7.272 7.157-2.266 6.234 0.944 13.128 7.168 15.398 6.228 2.27 13.111-0.945 15.378-7.179C28.9 13.219999999999999 25.689999999999998 6.326 19.464 4.055999999999999zM11.665 25.505a10.767 10.767 0 0 1-1.867-0.904c2.9 0.223 6.686-0.445 9.239-2.834 0 0 4.866-3.888 1.345-10.269 0 0 0.568 2.572-0.156 4.687 0 0-0.69 2.877-3.757 3.712-4.517 1.231-9.664-1.93-11.816-3.463-0.162-1.574-0.018-3.2 0.56-4.788 0.855-2.352 2.463-4.188 4.427-5.42-0.49 3.436-0.102 6.6 0.456 7.925 0.749 1.777 2.05 3.85 4.59 4.115 2.54 0.267 3.94-2.11 3.94-2.11 1.304-1.98 1.508-4.823 1.488-4.892-0.02-0.07-0.347-0.257-0.347-0.257-0.877 3.549-2.323 4.734-2.323 4.734-2.28 2.201-3.895 0.675-3.895 0.675-1.736-1.865-0.52-4.895-0.52-4.895 0.68-2.064 2.66-5.084 4.905-6.62 0.374 0.092 0.75 0.15 1.12 0.284a10.712 10.712 0 0 1 3.554 2.16c-1.641 0.599-4.291 1.865-4.291 1.865-4.201 1.77-4.485 4.446-4.485 4.446-0.435 2.758 1.754 1.59 1.754 1.59 2.252-1.097 3.359-4.516 3.359-4.516-0.703-0.134-1.257 0.08-1.257 0.08-0.899 2.22-2.733 3.132-2.733 3.132-0.722 0.382-0.89-0.293-0.89-0.293-0.122-0.506 0.522-0.592 0.522-0.592 1-0.389 1.639-1.439 1.784-1.868 0.144-0.43 0.412-0.464 0.412-0.464a12.998 12.998 0 0 1 2.619-0.535c1.7-0.209 4.303 0.602 4.303 0.602 0.584 0.235 1.144 0.41 1.641 0.551 0.954 2.384 1.105 5.098 0.16 7.7-2.039 5.61-8.236 8.504-13.841 6.462z" /></svg>