<svg xmlns="http://www.w3.org/2000/svg" width="100%" height="100%" viewBox="0 0 30.72 30.72"><path d="M5.1022 15.341999999999999c0-5.6682 4.61-10.2782 10.2758-10.2782 1.8238 0 3.5372 0.48 5.0251 1.3175l0.8135-1.4879C19.5368 3.9479999999999995 17.6074 3.3959999999999995 15.550799999999999 3.3623999999999996h-0.1944C8.769099999999998 3.3743999999999996 3.4319999999999995 8.6707 3.3599999999999994 15.245999999999999v0.1152c0.0072 3.4389 1.4567 6.5345 3.7748 8.7207l1.1855-1.2814c-1.9798-1.8743-3.218-4.526-3.218-7.4585zM23.721999999999998 6.7653l-1.1543 1.2406c1.903 1.867 3.0885 4.4636 3.0885 7.3361 0 5.6658-4.61 10.2758-10.2758 10.2758-1.783 0-3.4605-0.456-4.922-1.2575l-0.8542 1.5214c1.7086 0.9384 3.6692 1.4735 5.7546 1.4759C21.9845 27.357599999999998 27.36 21.9846 27.36 15.358799999999999c-0.0048-3.3717-1.399-6.4146-3.638-8.5935zM5.3229999999999995 15.341999999999999c0 2.8701 1.2119 5.4619 3.146 7.2953l1.1808-1.2767c-1.591-1.5166-2.587-3.6524-2.587-6.0186 0-4.586 3.7293-8.3152 8.3152-8.3152 1.483 0 2.875 0.3912 4.082 1.0751l0.8351-1.5262C18.841 5.754999999999999 17.1634 5.286999999999999 15.378 5.286999999999999 9.834599999999998 5.284599999999999 5.3229999999999995 9.796199999999999 5.3229999999999995 15.341999999999999z m18.3702 0c0 4.586-3.7293 8.3152-8.3152 8.3152-1.4327 0-2.7837-0.3648-3.962-1.0055l-0.852 1.5166c1.4303 0.7823 3.0718 1.2287 4.814 1.2287 5.5434 0 10.055-4.5116 10.055-10.055 0-2.8077-1.1567-5.3467-3.0165-7.1729l-1.183 1.2743c1.519 1.507 2.4597 3.5924 2.4597 5.8986z m-1.9486 0c0 3.5109-2.8558 6.3642-6.3642 6.3642a6.3286 6.3286 0 0 1-3.0069-0.756l-0.8471 1.507c1.147 0.624 2.4597 0.9768 3.854 0.9768 4.4636 0 8.0944-3.6308 8.0944-8.0944 0-2.239-0.9143-4.2692-2.3902-5.7378l-1.1783 1.267c1.1351 1.152 1.8383 2.731 1.8383 4.4732z m-14.4586 0c0 2.3014 0.9671 4.382 2.515 5.8578l1.1734-1.2695c-1.207-1.159-1.9606-2.786-1.9606-4.5883 0-3.5108 2.8557-6.3642 6.3642-6.3642 1.1423 0 2.215 0.3048 3.1437 0.8352l0.8303-1.5167c-1.1759-0.6647-2.5317-1.0487-3.974-1.0487-4.4612 0-8.092 3.6308-8.092 8.0944z m12.5292 0c0 2.4502-1.987 4.4372-4.4372 4.4372a4.4192 4.4192 0 0 1-2.0614-0.5088l-0.8351 1.4879a6.1135 6.1135 0 0 0 2.8965 0.727c3.3885 0 6.1434-2.7548 6.1434-6.1433 0-1.6774-0.6767-3.1989-1.7686-4.3076l-1.1615 1.2503c0.7559 0.7967 1.2239 1.8718 1.2239 3.0573z m-10.5806 0c0 1.7374 0.7247 3.3069 1.8886 4.4252L12.28 18.5169l0.0144 0.0144c-0.8351-0.8063-1.3559-1.9366-1.3559-3.1869 0-2.4502 1.9846-4.4372 4.4372-4.4372 0.8087 0 1.5646 0.2184 2.2174 0.5976l0.8207-1.4975a6.097 6.097 0 0 0-3.0381-0.8063c-3.3837-0.0048-6.141 2.7525-6.141 6.141z m6.681 0c0 0.2952-0.2424 0.5351-0.5376 0.5351-0.2952 0-0.5375-0.24-0.5375-0.5351 0-0.2976 0.24-0.5375 0.5375-0.5375 0.2952 0 0.5375 0.24 0.5375 0.5375z m-3.9405 0c0-1.879 1.5239-3.4029 3.4005-3.4029 1.879 0 3.4005 1.5215 3.4005 3.4029 0 1.879-1.5239 3.4005-3.4005 3.4005S11.9751 17.221 11.9751 15.341999999999999z m0.1488 0c0.0048 1.7974 1.4567 3.2493 3.2517 3.2517 1.795 0 3.254-1.4567 3.254-3.2517-0.0023-1.7974-1.4566-3.2517-3.254-3.254-1.795 0-3.2517 1.4566-3.2517 3.254Z" /></svg>