<svg xmlns="http://www.w3.org/2000/svg" width="100%" height="100%" viewBox="0 0 30.72 30.72"><path d="M24.25 11.078899999999999c0-0.1488-0.1488-0.2976-0.3575-0.3571l-2.502-0.9221c-0.4166-0.1786-0.8932 0.0297-0.8932 0.3277V20.61c0 0.1487 0.1488 0.3273 0.2977 0.3868l2.5614 0.9222c0.3872 0.1487 0.8936-0.0596 0.8936-0.3873z m-4.676-3.663c0-0.1492-0.1489-0.298-0.3576-0.3575l-2.5015-0.9221c-0.417-0.1786-0.8936 0.0297-0.8936 0.3278v6.3723c0 0.1488 0.1487 0.3273 0.2976 0.3873l2.5614 0.9221c0.3873 0.1492 0.8937-0.0595 0.8937-0.3869z m0 11.4663c0-0.1488-0.1489-0.2975-0.3576-0.3571l-2.5015-0.9221c-0.417-0.1786-0.8936 0.0297-0.8936 0.3277v6.3724c0 0.1488 0.1487 0.3273 0.2976 0.3869l2.5614 0.922c0.3873 0.1493 0.8937-0.0594 0.8937-0.3872z m-4.6761 1.281c0-0.1489-0.1488-0.298-0.3575-0.3576l-2.5015-0.9221c-0.4192-0.1786-0.8937 0.0297-0.8937 0.3277v6.7903c0 0.1487 0.1488 0.3277 0.2977 0.3872l2.5614 0.9222c0.3872 0.1493 0.8936-0.0595 0.8936-0.387z m0-15.4579c0-0.1488-0.1488-0.2976-0.3575-0.3571L12.0389 3.4259999999999993c-0.4192-0.1786-0.8937 0.0297-0.8937 0.3277v6.7903c0 0.1492 0.1488 0.3277 0.2977 0.3873l2.5614 0.922c0.3872 0.1488 0.8936-0.0594 0.8936-0.3872z m-4.6752 0.2683c0-0.1488-0.1488-0.298-0.3575-0.3576L7.3637 3.6939999999999995C6.9467 3.5152999999999994 6.469999999999999 3.7235999999999994 6.469999999999999 4.021699999999999v21.7409c0 0.1487 0.1488 0.3273 0.298 0.3868l2.561 0.9222c0.3874 0.1488 0.8937-0.0595 0.8937-0.3874z" /></svg>