<svg xmlns="http://www.w3.org/2000/svg" width="100%" height="100%" viewBox="0 0 30.72 30.72"><path d="M22.93 20.4l-1.997-1.316-1.665 2.782-1.937-0.567-1.706 2.604 0.087 0.82 9.274-1.71-0.538-5.794z m-8.649-2.498l1.488-0.204c0.241 0.108 0.409 0.15 0.697 0.223 0.45 0.117 0.97 0.23 1.741-0.16 0.18-0.088 0.553-0.43 0.704-0.625l6.096-1.106 0.622 7.527-10.444 1.882z m11.325-2.712l-0.602 0.115L23.848 3.3599999999999994 4.148999999999999 5.645l2.427 19.693 2.306-0.334c-0.184-0.263-0.471-0.581-0.96-0.989-0.68-0.564-0.44-1.522-0.039-2.127 0.53-1.022 3.26-2.322 3.106-3.956-0.056-0.594-0.15-1.368-0.702-1.898-0.02 0.22 0.017 0.432 0.017 0.432s-0.227-0.289-0.34-0.683c-0.112-0.15-0.2-0.199-0.319-0.4-0.085 0.233-0.073 0.503-0.073 0.503s-0.186-0.437-0.216-0.807c-0.11 0.166-0.137 0.48-0.137 0.48s-0.241-0.69-0.186-1.062c-0.11-0.323-0.436-0.965-0.343-2.424 0.6 0.421 1.924 0.321 2.44-0.439 0.171-0.251 0.288-0.939-0.086-2.293-0.24-0.868-0.835-2.16-1.066-2.651l-0.028 0.02c0.122 0.395 0.374 1.223 0.47 1.625 0.293 1.218 0.372 1.642 0.234 2.204-0.116 0.488-0.397 0.808-1.107 1.165-0.71 0.358-1.653-0.514-1.713-0.562-0.69-0.55-1.224-1.447-1.284-1.883-0.062-0.477 0.275-0.763 0.445-1.153-0.243 0.07-0.514 0.192-0.514 0.192s0.323-0.334 0.722-0.624c0.165-0.109 0.262-0.178 0.436-0.323a9.762 9.762 0 0 0-0.456 0.003s0.42-0.227 0.855-0.392c-0.318-0.014-0.623-0.003-0.623-0.003s0.937-0.419 1.678-0.727c0.509-0.208 1.006-0.147 1.286 0.257 0.367 0.53 0.752 0.817 1.569 0.996 0.501-0.223 0.653-0.337 1.284-0.509 0.554-0.61 0.99-0.688 0.99-0.688s-0.216 0.198-0.274 0.51c0.314-0.249 0.66-0.455 0.66-0.455s-0.134 0.164-0.259 0.426l0.03 0.043c0.366-0.22 0.797-0.394 0.797-0.394s-0.123 0.156-0.268 0.358c0.277-0.002 0.838 0.012 1.056 0.037 1.285 0.028 1.552-1.374 2.045-1.55 0.618-0.22 0.894-0.353 1.947 0.68 0.903 0.888 1.609 2.477 1.259 2.833-0.294 0.295-0.874-0.115-1.516-0.916a3.466 3.466 0 0 1-0.716-1.562 1.533 1.533 0 0 0-0.497-0.85s0.23 0.51 0.23 0.96c0 0.246 0.03 1.165 0.424 1.68-0.039 0.076-0.057 0.374-0.1 0.43-0.458-0.554-1.443-0.95-1.604-1.067 0.544 0.445 1.793 1.468 2.273 2.449 0.453 0.927 0.186 1.777 0.416 1.997 0.065 0.063 0.976 1.197 1.15 1.767 0.306 0.994 0.019 2.038-0.381 2.685l-1.117 0.174c-0.163-0.045-0.273-0.068-0.42-0.153 0.08-0.143 0.241-0.5 0.243-0.572l-0.063-0.111c-0.348 0.492-0.93 0.97-1.414 1.245-0.633 0.359-1.363 0.304-1.838 0.156-1.348-0.415-2.623-1.327-2.93-1.566 0 0-0.01 0.191 0.048 0.234 0.34 0.383 1.119 1.077 1.872 1.56l-1.605 0.177 0.759 5.908c-0.337 0.048-0.39 0.071-0.757 0.124-0.325-1.147-0.946-1.895-1.624-2.332-0.599-0.384-1.424-0.47-2.214-0.314l-0.05 0.059a2.851 2.851 0 0 1 1.863 0.444c0.654 0.413 1.181 1.481 1.375 2.124 0.248 0.822 0.42 1.7-0.248 2.632-0.476 0.662-1.864 1.028-2.986 0.237 0.3 0.481 0.705 0.876 1.25 0.95 0.809 0.11 1.577-0.03 2.106-0.574 0.452-0.464 0.69-1.434 0.628-2.456l0.714-0.104 0.258 1.834 11.827-1.424zM18.41 10.207999999999998c-0.034 0.075-0.085 0.125-0.007 0.37l0.004 0.014 0.013 0.032 0.032 0.073c0.14 0.287 0.295 0.558 0.552 0.696 0.067-0.011 0.136-0.019 0.207-0.023 0.242-0.01 0.395 0.028 0.492 0.08 0.009-0.048 0.01-0.119 0.005-0.222-0.018-0.364 0.072-0.982-0.626-1.308-0.264-0.122-0.634-0.084-0.757 0.068a0.302 0.302 0 0 1 0.058 0.013c0.186 0.066 0.06 0.13 0.027 0.207m1.958 3.392c-0.092-0.05-0.52-0.03-0.821 0.005-0.574 0.068-1.193 0.267-1.328 0.372-0.247 0.191-0.135 0.523 0.047 0.66 0.511 0.382 0.96 0.638 1.432 0.575 0.29-0.038 0.546-0.497 0.728-0.914 0.124-0.288 0.124-0.598-0.058-0.698m-5.077-2.942c0.162-0.154-0.805-0.355-1.556 0.156-0.554 0.378-0.571 1.187-0.041 1.646 0.053 0.046 0.096 0.078 0.137 0.104a4.77 4.77 0 0 1 1.396-0.412c0.113-0.125 0.243-0.345 0.21-0.745-0.044-0.542-0.455-0.456-0.146-0.749" /></svg>