<svg xmlns="http://www.w3.org/2000/svg" width="100%" height="100%" viewBox="0 0 30.72 30.72"><path d="M16.677999999999997 3.3599999999999994c-6.628 0-12 5.372-12 12 0 2.008 0.495 3.9 1.368 5.563a14.299 14.299 0 0 1 5.09-3.664c0.307-0.13 0.624-0.22 0.948-0.28A4.842 4.842 0 0 1 11.802999999999999 15.36a4.875 4.875 0 0 1 7.494-4.11 2.218 2.218 0 0 0 2.055 0.164 12.047 12.047 0 0 0 4.69-3.554A11.975 11.975 0 0 0 16.677999999999997 3.3599999999999994zM12.786 19.13c-0.266 0.01-0.531 0.069-0.783 0.175a12.044 12.044 0 0 0-4.69 3.555c2.2 2.742 5.576 4.5 9.365 4.5 3.789 0 7.165-1.758 9.364-4.5a12.048 12.048 0 0 0-4.69-3.555 2.217 2.217 0 0 0-2.055 0.165 4.845 4.845 0 0 1-2.62 0.765 4.846 4.846 0 0 1-2.618-0.765 2.193 2.193 0 0 0-1.273-0.34z" /></svg>