<svg xmlns="http://www.w3.org/2000/svg" width="100%" height="100%" viewBox="0 0 30.72 30.72"><path d="M3.3599999999999994 23.444c0.043 0.53 0.23 1.063 0.718 1.778 0.58 0.849 1.576 1.315 2.303 0.567 0.49-0.505 5.794-9.776 8.35-13.29a0.761 0.761 0 0 1 1.248 0c2.556 3.514 7.86 12.785 8.35 13.29 0.727 0.748 1.723 0.282 2.303-0.567 0.57-0.835 0.728-1.42 0.728-2.046 0-0.426-8.26-15.798-9.092-17.078-0.8-1.23-1.044-1.498-2.397-1.542h-1.032c-1.353 0.044-1.597 0.311-2.398 1.542C11.626999999999999 7.350999999999999 3.6899999999999995 22.118 3.3599999999999994 23.13Z" /></svg>