<svg xmlns="http://www.w3.org/2000/svg" width="100%" height="100%" viewBox="0 0 30.72 30.72"><path d="M12.219 11.248999999999999c0.154-1.863 1.623-3.115 3.344-3.119 1.734 0.004 2.986 1.256 3.029 3.119z m12.11 11.707c0.802-0.86 1.52-1.872 2.172-3.03l-3.616-1.807c-1.27 2.064-3.127 3.965-5.694 3.977-3.738-0.012-5.206-3.208-5.198-7.322h13.966c0.019-0.464 0.019-0.68 0-0.904 0.091-2.447-0.558-4.504-1.737-6.106l-0.007 0.005H27.36v15.186h-3.039z m-17.206-0.001C5.260999999999999 20.98 4.170999999999999 18.253999999999998 4.172999999999999 15c-0.002-2.877 0.902-5.35 2.456-7.232H3.3599999999999994v15.187h3.761Z" /></svg>