<svg xmlns="http://www.w3.org/2000/svg" width="100%" height="100%" viewBox="0 0 30.72 30.72"><path d="M4.061999999999999 5.721c-1.188 0.11-0.88 0.154 1.98 0.286 5.677 0.242 9.043 1.144 11.353 2.993 1.232 1.012 2.187 3.146 2.187 3.146s-3.639 0.836-7.797 1.65c-4.159 0.814-7.46 1.54-7.327 1.584 0.352 0.11 5.214-0.484 10.319-1.276l4.87-0.734c0.078-0.012 0.036 0.394 0.036 0.514 0 1.1-1.122 2.948-2.794 4.599-2.75 2.684-6.623 4.686-11.573 5.962-1.364 0.352-2.2 0.638-1.892 0.638 1.188 0.044 5.742-1.298 7.81-2.266 2.685-1.276 4.401-2.508 6.491-4.664 1.48-1.842 2.994-2.796 3.056-5.017l3.06-0.506c1.629-0.264 3.103-0.55 3.28-0.616 0.241-0.088 0.285-0.352 0.197-1.012-0.154-1.21-1.1-2.156-3.014-3.037-2.904-1.342-5.88-1.603-7.442-0.68-0.173 0.101-0.376 0.417-0.534 0.486a1079.7 1079.7 0 0 0-2.365-0.862C10.927 5.875 7.207999999999999 5.435 4.061999999999999 5.721z m19.032 2.773c1.628 0.484 4.18 2.014 3.792 2.09l-3.066 0.601-3.386 0.772c-0.644-1.435-1.491-2.232-2.628-3.305l0.133-0.327c0.322-0.796 2.536-0.602 5.155 0.169z" /></svg>