<svg xmlns="http://www.w3.org/2000/svg" width="100%" height="100%" viewBox="0 0 30.72 30.72"><path d="M9.145 6.773999999999999c0.428-0.251 0.874-0.473 1.339-0.666 0.981-0.421 1.995-0.659 3.036-0.765l1.127 1.274-0.525 1.319c-1.02 0.195-1.979 0.57-2.879 1.11l-0.195 0.12-0.178-1.737-1.725-0.66v0.005zM8.655 7.084l1.789 0.69 0.188 1.71c-0.969 0.713-1.725 1.623-2.264 2.73-0.051 0.099-0.096 0.198-0.139 0.3l-1.26-1.529-2.054 0.434c0.511-1.104 1.201-2.091 2.063-2.96 0.515-0.522 1.07-0.979 1.667-1.376l0.01 0.001z m11.782 12.052c0.195-0.324 0.354-0.652 0.48-0.99l1.938 2.35 3.255-0.701c-0.187 0.513-0.407 1.015-0.662 1.507-0.671 1.291-1.553 2.409-2.648 3.36-1.112 0.962-2.369 1.665-3.771 2.107-0.027 0.009-0.056 0.016-0.083 0.026l-2.411-2.039 0.629-2.775 0.051-0.021c1.379-0.6 2.457-1.529 3.224-2.835v0.011zM24.512999999999998 8.165c0.199 0.273 0.384 0.56 0.563 0.854 0.741 1.248 1.254 2.582 1.539 4.004 0.271 1.41 0.315 2.829 0.12 4.252-0.105 0.684-0.255 1.35-0.464 2.002l-3.255 0.699-1.95-2.357c0.226-0.867 0.255-1.77 0.06-2.709-0.225-1.114-0.72-2.065-1.454-2.85l3.509-0.42 1.306-3.476h0.026zM4.6979999999999995 11.943999999999999l2.1-0.444 1.236 1.509c-0.391 1.084-0.48 2.21-0.285 3.38 0.045 0.334 0.119 0.656 0.21 0.969l-2.22-0.505-1.59 1.881c-0.193-0.833-0.283-1.685-0.283-2.554 0.003-1.451 0.27-2.85 0.807-4.199l0.016-0.039 0.009 0.002zM8.14 17.878c0.319 0.844 0.788 1.614 1.409 2.316 0.465 0.539 0.99 0.975 1.563 1.319l-2.2 1.261 0.12 2.864c-0.726-0.451-1.395-0.99-2-1.605-1.021-1.05-1.8-2.249-2.34-3.6-0.149-0.375-0.27-0.75-0.375-1.125l1.635-1.919 2.22 0.509-0.032-0.02zM11.591999999999999 21.775c0.473 0.236 0.979 0.416 1.518 0.54 1.207 0.28 2.385 0.233 3.529-0.141l-0.625 2.757 2.387 2.02c-1.193 0.313-2.414 0.445-3.659 0.401-1.455-0.046-2.853-0.354-4.19-0.925-0.36-0.153-0.705-0.322-1.041-0.51l-0.119-2.882 2.2-1.26zM24.175 7.723999999999999L22.862 11.209999999999999l-3.614 0.435c-0.105-0.091-0.213-0.181-0.327-0.255-1.185-0.9-2.52-1.426-4.004-1.575-0.346-0.029-0.675-0.029-0.99-0.029l1.26-3.226L12.459999999999999 3.4549999999999996c0.827-0.09 1.637-0.104 2.459-0.09 0.49 0.015 0.975 0.051 1.459 0.113 0.68 0.089 1.351 0.239 2.015 0.42 1.405 0.4 2.685 1.034 3.842 1.93 0.729 0.559 1.376 1.191 1.94 1.896z" /></svg>