<svg xmlns="http://www.w3.org/2000/svg" width="100%" height="100%" viewBox="0 0 30.72 30.72"><path d="M7.0329999999999995 12.564v-1.04H3.3599999999999994v5.722h3.68v-1.048H4.545999999999999V14.82h2.158v-1.017H4.545999999999999v-1.24z m2.162 6.633l2.532-5.906h-1.24l-0.902 2.357-0.91-2.357H7.441l1.546 3.604-1.01 2.303z m6.625-3.572v-0.445c0-1.232-0.75-1.966-1.89-1.966-1.179 0-2.013 0.78-2.013 2.059 0 1.27 0.834 2.057 2.043 2.057 0.926 0 1.684-0.536 1.821-1.285l-1.124-0.054c-0.085 0.275-0.337 0.436-0.727 0.436-0.505 0-0.804-0.314-0.827-0.803z m-1.898-1.539c0.505 0 0.75 0.314 0.773 0.796H13.103c0.031-0.505 0.345-0.796 0.82-0.796z m6.478-1.524v-1.04h-3.672v5.724h3.68v-1.048h-2.495V14.82h2.158v-1.018h-2.158v-1.24z m5.46 0.65c-0.597 0-0.987 0.269-1.216 0.629-0.26-0.406-0.697-0.627-1.24-0.627s-0.864 0.206-1.04 0.482v-0.407h-1.056v3.956h1.117V15.049999999999999c0-0.474 0.268-0.796 0.711-0.796 0.406 0 0.643 0.283 0.643 0.788v2.205h1.117v-2.333c0.046-0.399 0.291-0.659 0.689-0.659 0.428 0 0.658 0.284 0.658 0.789v2.204H27.36V14.82c0-1.002-0.597-1.606-1.5-1.606z" /></svg>