<svg xmlns="http://www.w3.org/2000/svg" width="100%" height="100%" viewBox="0 0 30.72 30.72"><path d="M20.102 14.574l-0.447-0.78a0.062 0.062 0 0 0-0.082-0.022l-2.014 1.162-1.986-1.167a0.062 0.062 0 0 0-0.082 0.021l-0.458 0.78a0.062 0.062 0 0 0 0.021 0.083l2.009 1.178v2.363c0 0.033 0.027 0.06 0.06 0.06h0.89a0.06 0.06 0 0 0 0.06-0.06v-2.374l2.007-1.162c0.028-0.016 0.039-0.055 0.022-0.082z m-3.863 1.583c-0.017-0.028-0.055-0.038-0.088-0.022l-1.342 0.797c-0.027 0.016-0.038 0.054-0.022 0.087l0.191 0.327c0.016 0.028 0.055 0.039 0.087 0.022l1.343-0.797c0.027-0.016 0.038-0.054 0.022-0.087z m1.533-3.69l-0.442 0.006c-0.016 0-0.027 0.011-0.027 0.033l0.005 1.62c0 0.017 0.011 0.028 0.033 0.028h0.442c0.016 0 0.027-0.01 0.027-0.033l-0.005-1.62a0.035 0.035 0 0 0-0.033-0.033z m2.554 4.377l-1.413-0.791c-0.017-0.005-0.033-0.005-0.039 0.011l-0.218 0.387c-0.005 0.017-0.005 0.033 0.011 0.039l1.413 0.79c0.017 0.006 0.033 0.006 0.039-0.01l0.218-0.388c0.01-0.01 0.005-0.032-0.011-0.038z m-14.057 0.12h-1.9v-0.584h1.687a0.075 0.075 0 0 0 0.076-0.076v-0.65a0.075 0.075 0 0 0-0.076-0.076H4.369999999999999v-0.556h1.87a0.075 0.075 0 0 0 0.077-0.077v-0.715a0.075 0.075 0 0 0-0.077-0.076H3.4359999999999995A0.075 0.075 0 0 0 3.3599999999999994 14.229999999999999v3.526c0 0.043 0.033 0.076 0.076 0.076H6.27a0.075 0.075 0 0 0 0.076-0.076v-0.715a0.078 0.078 0 0 0-0.076-0.077z m3.967-1.282H8.62v0.748h0.725v0.442c0 0.005 0 0.01-0.005 0.01-0.153 0.099-0.338 0.148-0.584 0.148-0.584 0-0.999-0.426-0.999-1.02v-0.012c0-0.562 0.41-1.01 0.939-1.01 0.338 0 0.584 0.11 0.83 0.301 0.032 0.027 0.081 0.022 0.103-0.01l0.502-0.607a0.078 0.078 0 0 0-0.01-0.109c-0.377-0.305-0.82-0.485-1.436-0.485-1.14 0-1.98 0.84-1.98 1.915v0.01c0 1.114 0.856 1.905 2.002 1.905a2.49 2.49 0 0 0 1.572-0.545 0.088 0.088 0 0 0 0.027-0.06v-1.545c0.005-0.043-0.027-0.076-0.071-0.076z m4.044-1.533h-0.857a0.075 0.075 0 0 0-0.077 0.076v1.866l-1.49-1.915a0.088 0.088 0 0 0-0.06-0.027h-0.834a0.075 0.075 0 0 0-0.077 0.076v3.525c0 0.044 0.033 0.077 0.077 0.077h0.856a0.075 0.075 0 0 0 0.077-0.077v-1.943l1.55 1.992a0.088 0.088 0 0 0 0.06 0.028h0.78a0.075 0.075 0 0 0 0.076-0.077v-3.525c-0.005-0.038-0.043-0.076-0.081-0.076z m9.571 0H20.78a0.075 0.075 0 0 0-0.077 0.076v0.742c0 0.044 0.033 0.076 0.077 0.076h1.026v2.713c0 0.043 0.032 0.076 0.076 0.076h0.868a0.075 0.075 0 0 0 0.076-0.076v-2.702c0-0.005 0.006-0.01 0.011-0.01h1.015a0.075 0.075 0 0 0 0.077-0.077v-0.742a0.078 0.078 0 0 0-0.077-0.076z m3.433 2.815h-1.9v-0.584h1.692a0.075 0.075 0 0 0 0.077-0.076v-0.65a0.075 0.075 0 0 0-0.077-0.076h-1.691v-0.556h1.871a0.075 0.075 0 0 0 0.077-0.077v-0.715a0.075 0.075 0 0 0-0.077-0.076h-2.805a0.075 0.075 0 0 0-0.076 0.076v3.526c0 0.043 0.033 0.076 0.076 0.076h2.833a0.075 0.075 0 0 0 0.076-0.076v-0.715a0.075 0.075 0 0 0-0.076-0.077Z" /></svg>