<svg xmlns="http://www.w3.org/2000/svg" width="100%" height="100%" viewBox="0 0 30.72 30.72"><path d="M19.009999999999998 19.465v-0.24a3.543 3.543 0 0 0-1.267-2.471c-0.724-0.663-1.69-0.965-2.655-0.904-1.87 0.12-3.378 1.747-3.378 3.615 0 0.784 0.12 1.567 0.422 2.471H7.909999999999999V10.306l7.42-5.123 7.482 5.122v11.692h-4.223c0.18-0.663 0.422-1.688 0.422-2.532m5.068-10.244L15.812 3.4959999999999996c-0.301-0.181-0.663-0.181-0.905 0L6.581999999999999 9.219999999999999c-0.242 0.12-0.362 0.361-0.362 0.663V22.84c0 0.482 0.362 0.844 0.844 0.844H13.28a0.824 0.824 0 0 0 0.844-0.844c0-0.06 0-0.18-0.06-0.24l-0.06-0.182c-0.302-0.723-0.664-1.627-0.664-2.53v-0.182c-0.06-0.542 0.12-1.084 0.482-1.446a2.095 2.095 0 0 1 1.388-0.723c0.543-0.06 1.026 0.12 1.448 0.482 0.422 0.362 0.664 0.844 0.724 1.386v0.18c0.06 1.206-0.724 2.954-0.845 3.135l-1.146 2.17-0.18-0.362c-0.122-0.181-0.302-0.362-0.483-0.422-0.182-0.06-0.423-0.06-0.604 0.06-0.18 0.12-0.362 0.301-0.422 0.482s-0.06 0.422 0.06 0.603l0.905 1.687c0.121 0.241 0.423 0.422 0.724 0.422 0.302 0 0.604-0.18 0.724-0.422l1.81-3.375h5.732a0.824 0.824 0 0 0 0.844-0.843V9.884c-0.06-0.302-0.18-0.543-0.422-0.663" /></svg>