<svg xmlns="http://www.w3.org/2000/svg" width="100%" height="100%" viewBox="0 0 30.72 30.72"><path d="M14.401 3.3599999999999994c-0.007 0-1.456 1.43-3.219 3.176L7.975 9.712l0.512 0.513 0.512 0.512-2.819 2.791L3.3599999999999994 16.320999999999998l1.83 1.848c1.006 1.016 2.438 2.46 3.182 3.209l1.351 1.359 0.508-0.496c0.28-0.273 0.515-0.498 0.524-0.498 0.008 0 1.266 1.264 2.794 2.808L16.33 27.36l0.187-0.182c0.23-0.225 5.007-4.95 5.717-5.656l0.52-0.516-0.502-0.513c-0.276-0.282-0.5-0.52-0.496-0.53 0.003-0.009 1.264-1.26 2.802-2.783 1.538-1.522 2.8-2.776 2.803-2.785 0.005-0.012-3.617-3.684-6.107-6.193L21.009999999999998 7.959999999999999l-0.505 0.505c-0.279 0.278-0.517 0.501-0.53 0.497-0.013-0.005-1.27-1.267-2.793-2.805A449.655 449.655 0 0 0 14.401 3.3599999999999994zM12.583 10.727c0.091 0.038 7.951 4.608 7.957 4.627 0.003 0.013-1.781 1.056-3.965 2.32a999.898 999.898 0 0 1-3.996 2.307c-0.019 0.006-0.026-1.266-0.026-4.629 0-3.7 0.007-4.634 0.03-4.625Z" /></svg>