<svg xmlns="http://www.w3.org/2000/svg" width="100%" height="100%" viewBox="0 0 30.72 30.72"><path d="M15.36 3.3599999999999994C8.736999999999998 3.3599999999999994 3.3599999999999994 8.736999999999998 3.3599999999999994 15.36s5.377 12 12 12 12-5.377 12-12S21.983 3.3599999999999994 15.36 3.3599999999999994z m6.96 13.8c-0.8 3.16-3.68 5.4-6.96 5.4s-6.16-2.24-6.96-5.4c-0.08-0.36 0.12-0.76 0.48-0.84s0.76 0.12 0.84 0.48c0.68 2.56 3 4.36 5.64 4.36 2.64 0 4.96-1.8 5.64-4.36 0.08-0.36 0.48-0.6 0.84-0.48 0.36 0.08 0.6 0.48 0.48 0.84z" /></svg>