<svg xmlns="http://www.w3.org/2000/svg" width="100%" height="100%" viewBox="0 0 30.72 30.72"><path d="M11.209 10.873a1.085 1.085 0 1 0 1.085 1.086v-0.001c0-0.599-0.486-1.085-1.085-1.085zM8.302 13.913v1.418H10.25v4.793h0.704V17.4h0.509v2.724h0.71v-6.211H8.300999999999998zM17.482 14.449H17.46c-0.287-0.416-0.862-0.702-1.639-0.702-1.489 0-2.797 1.224-2.786 3.319 0 1.936 1.181 3.201 2.659 3.201 0.797 0 1.56-0.361 1.935-1.04l0.117 0.893h1.669V11.011h-1.934z m0 2.904c0 0.158-0.012 0.313-0.034 0.465l0.002-0.017c-0.11 0.532-0.574 0.925-1.13 0.925h-0.014 0.001c-0.797 0-1.318-0.659-1.318-1.723 0-0.978 0.446-1.767 1.329-1.767 0.606 0 1.022 0.437 1.138 0.947 0.014 0.09 0.023 0.194 0.023 0.3l-0.001 0.054v-0.003zM8.161999999999999 12.25l0.475-1.6a2.914 2.914 0 0 0-0.384-0.101l-0.019-0.003a3.654 3.654 0 0 0-0.829-0.092 3.73 3.73 0 0 0-1.084 0.159l0.027-0.007a2.022 2.022 0 0 0-0.38 0.153l0.011-0.005a2.624 2.624 0 0 0-0.663 0.475c-0.5 0.49-0.754 1.155-0.754 1.975v0.708H3.3589999999999995v1.418h1.199v4.793h1.921V15.33h1.199v-1.416H6.478999999999999v-0.75a1.019 1.019 0 0 1 0.23-0.713l-0.001 0.002a0.736 0.736 0 0 1 0.063-0.062l0.001-0.001s0.414-0.41 1.389-0.14zM23.666 13.748c-2.01 0-3.327 1.286-3.327 3.307s1.393 3.212 3.213 3.212c1.664 0 3.276-1.04 3.276-3.327-0.002-1.874-1.267-3.192-3.162-3.192z m-0.063 5.126c-0.832 0-1.276-0.797-1.276-1.871 0-0.915 0.361-1.861 1.276-1.861 0.871 0 1.234 0.936 1.234 1.851 0 1.137-0.482 1.882-1.234 1.882zM25.852999999999998 13.120999999999999h0.232v0.589h0.14v-0.589h0.231v-0.117h-0.603v0.117zM27.159 13.004l-0.182 0.505-0.181-0.505h-0.203v0.707h0.13V13.139999999999999l0.198 0.571h0.113l0.195-0.571v0.571h0.13v-0.707h-0.201z" /></svg>