<svg xmlns="http://www.w3.org/2000/svg" width="100%" height="100%" viewBox="0 0 30.72 30.72"><path d="M15.931 3.3599999999999994c-0.699 0.022-2.041 0.555-3.458 1.419C10.824 5.779999999999999 9.617999999999999 6.898 9.52 7.467999999999999c-0.008 0.009-0.019 0.014-0.026 0.023-0.563 0.746 0.203 2.277 1.711 3.414 1.408 1.063 2.958 1.397 3.617 0.832 0.518-0.09 1.227-1.776 1.627-3.94 0.383-2.054 0.35-3.812-0.045-4.214-0.006-0.02 0.001-0.048-0.01-0.066-0.069-0.113-0.23-0.163-0.463-0.156z m-2.277 2.936c-0.164 0.193-0.329 0.383-0.492 0.605-0.217 0.296-0.403 0.587-0.568 0.866a5.705 5.705 0 0 0-0.908-0.432 14.052 14.052 0 0 0 1.785-0.914c0.067-0.04 0.118-0.084 0.183-0.125z m0.912 1.084c-0.004 0.024-0.01 0.043-0.015 0.066a16.33 16.33 0 0 0-0.227 1.78 6.106 6.106 0 0 0-0.654-0.674c0.215-0.241 0.436-0.507 0.652-0.801 0.093-0.127 0.16-0.246 0.244-0.371z m-3.14 4.002c-0.41-0.075-0.968 1.14-1.246 2.706-0.276 1.566-0.164 2.897 0.246 2.969 0.41 0.072 0.972-1.141 1.248-2.707 0.276-1.566 0.164-2.896-0.248-2.968z m-5.56 2.708c-0.072 0.032-0.026 0.314 0.103 0.625 0.132 0.312 0.297 0.539 0.37 0.51 0.074-0.031 0.025-0.311-0.104-0.623-0.13-0.312-0.295-0.54-0.37-0.512z m-0.602 0.506c-0.035-0.005-0.061 0-0.076 0.018-0.062 0.067 0.083 0.298 0.322 0.512 0.24 0.215 0.483 0.332 0.545 0.265 0.06-0.07-0.084-0.298-0.324-0.513-0.18-0.16-0.361-0.267-0.467-0.282z m-0.224 0.684c-0.118 0-0.197 0.02-0.205 0.058-0.017 0.077 0.247 0.205 0.587 0.282 0.343 0.078 0.636 0.078 0.653 0.002 0.017-0.08-0.248-0.204-0.588-0.284a2.163 2.163 0 0 0-0.447-0.058z m1.296 0.144c-0.251 0.067-0.235 0.954 0.036 1.98 0.27 1.03 0.695 1.81 0.945 1.745 0.25-0.067 0.234-0.954-0.037-1.98-0.271-1.03-0.694-1.812-0.944-1.745z m10.394 0.186c-0.072-0.031-0.237 0.198-0.369 0.51-0.13 0.311-0.178 0.59-0.103 0.62 0.072 0.032 0.24-0.197 0.369-0.51 0.13-0.31 0.178-0.591 0.103-0.62z m0.61 0.504c-0.105 0.015-0.285 0.12-0.463 0.281-0.238 0.213-0.382 0.445-0.323 0.512 0.058 0.064 0.304-0.057 0.541-0.27 0.238-0.213 0.38-0.443 0.32-0.508-0.014-0.016-0.04-0.02-0.075-0.015z m-7.625 0.593c-0.34 0.035-0.86 0.369-1.326 0.883-0.621 0.686-0.914 1.437-0.652 1.672 0.261 0.237 0.978-0.125 1.601-0.81 0.621-0.689 0.912-1.437 0.65-1.674-0.065-0.059-0.16-0.082-0.273-0.07z m7.85 0.092c-0.119 0-0.276 0.018-0.446 0.057-0.343 0.077-0.607 0.202-0.59 0.281 0.017 0.077 0.31 0.077 0.652 0 0.34-0.077 0.607-0.202 0.588-0.28-0.008-0.037-0.087-0.057-0.205-0.058z m-6.13 0.168a0.15 0.15 0 0 0-0.099 0.028c-0.21 0.163 0.143 0.978 0.793 1.82 0.647 0.841 1.346 1.393 1.557 1.23 0.21-0.16-0.148-0.977-0.795-1.818-0.567-0.737-1.172-1.251-1.455-1.26z m4.557 0.043c-0.267-0.03-0.843 0.36-1.387 0.96-0.62 0.685-0.966 1.386-0.767 1.563 0.196 0.18 0.861-0.232 1.482-0.917 0.621-0.686 0.964-1.385 0.768-1.565a0.17 0.17 0 0 0-0.096-0.04z m-5.603 0.133c-0.386 0.082-0.48 1.2-0.205 2.492 0.273 1.292 0.815 2.275 1.2 2.193 0.387-0.081 0.481-1.2 0.208-2.49-0.276-1.292-0.815-2.279-1.203-2.195z m15.448 2.459c-0.13-0.055-0.48 0.471-0.78 1.174-0.297 0.705-0.432 1.323-0.3 1.378 0.13 0.056 0.48-0.47 0.777-1.173 0.297-0.705 0.433-1.324 0.303-1.38z m-9.503 0.412c-0.07 0.031-0.024 0.31 0.105 0.621 0.132 0.312 0.298 0.542 0.367 0.514 0.072-0.031 0.027-0.31-0.105-0.621-0.13-0.312-0.295-0.543-0.367-0.514z m-0.6 0.506c-0.035-0.005-0.062 0-0.078 0.017-0.06 0.07 0.087 0.297 0.324 0.51 0.238 0.213 0.481 0.33 0.541 0.264 0.06-0.067-0.083-0.297-0.32-0.51-0.178-0.158-0.36-0.266-0.467-0.281z m-0.224 0.681c-0.118 0-0.195 0.019-0.203 0.057-0.017 0.079 0.245 0.204 0.585 0.283 0.343 0.077 0.636 0.077 0.653 0 0.016-0.077-0.246-0.204-0.586-0.281a2.133 2.133 0 0 0-0.45-0.059z m1.37 0.21c-0.26 0-0.476 0.75-0.476 1.675s0.215 1.676 0.477 1.676c0.26 0 0.478-0.75 0.478-1.676 0-0.926-0.217-1.676-0.478-1.676z m-5.175 0.333a0.235 0.235 0 0 0-0.133 0.045c-0.294 0.216 0.04 1.17 0.744 2.13 0.703 0.962 1.514 1.564 1.807 1.35 0.295-0.215-0.035-1.171-0.74-2.13-0.617-0.842-1.315-1.41-1.678-1.395z m13.02 0.522c-0.105-0.094-0.601 0.297-1.105 0.873-0.503 0.575-0.824 1.119-0.718 1.213 0.108 0.093 0.603-0.298 1.107-0.873 0.504-0.576 0.825-1.12 0.717-1.213z m-11.014 0.443c-0.113-0.005-0.194 0.019-0.23 0.074-0.144 0.223 0.46 0.875 1.353 1.453 0.89 0.58 1.73 0.872 1.875 0.649 0.146-0.223-0.46-0.877-1.35-1.457-0.667-0.434-1.308-0.704-1.648-0.719zM12.09 23.811c-0.266 0-0.48 0.75-0.48 1.675 0 0.926 0.214 1.676 0.48 1.676s0.482-0.75 0.482-1.676c0-0.925-0.216-1.675-0.482-1.675z m-3.644 0.06c-0.072 0.031-0.026 0.313 0.103 0.625 0.132 0.312 0.297 0.539 0.37 0.51 0.074-0.031 0.025-0.312-0.104-0.623-0.13-0.312-0.295-0.54-0.37-0.512z m14.296 0.477c-0.368-0.04-1.127 0.127-1.96 0.453-1.107 0.434-1.929 0.984-1.833 1.228 0.096 0.242 1.074 0.093 2.181-0.342 1.11-0.434 1.932-0.985 1.836-1.23-0.024-0.06-0.102-0.096-0.224-0.11z m-14.898 0.029c-0.035-0.005-0.061 0-0.076 0.018-0.062 0.067 0.082 0.298 0.322 0.511 0.24 0.216 0.483 0.333 0.545 0.266 0.06-0.07-0.084-0.298-0.324-0.514-0.18-0.16-0.362-0.267-0.467-0.281z m-0.223 0.685c-0.118 0-0.196 0.019-0.205 0.057-0.016 0.08 0.248 0.204 0.588 0.283 0.343 0.077 0.636 0.077 0.653 0 0.016-0.077-0.248-0.204-0.588-0.281a2.116 2.116 0 0 0-0.448-0.059z m1.29 0.047c-0.114-0.005-0.194 0.019-0.231 0.075-0.144 0.223 0.461 0.875 1.353 1.453 0.89 0.58 1.731 0.871 1.875 0.648 0.147-0.223-0.46-0.877-1.35-1.457-0.666-0.433-1.307-0.704-1.648-0.719z m6.628 0.09c-0.865-0.036-1.493 0.081-1.527 0.32-0.046 0.317 0.98 0.73 2.289 0.92 1.311 0.19 2.415 0.087 2.46-0.232 0.046-0.317-0.98-0.73-2.292-0.92a9.203 9.203 0 0 0-0.93-0.088z" /></svg>