<svg xmlns="http://www.w3.org/2000/svg" width="100%" height="100%" viewBox="0 0 30.72 30.72"><path d="M17.219949999999997 5.34852a2.60906 2.60906 0 0 0-3.72608 0L4.12766 14.88674a2.72906 2.72906 0 0 0 0 3.79508l6.68415 6.80816a2.61806 2.61806 0 0 0 1.74004 0.66401h5.61313a2.61606 2.61606 0 0 0 1.87204-0.79101l6.55415-6.67516a2.72606 2.72606 0 0 0 0-3.79508l-9.37021-9.54422z m-0.26 17.4224l-0.93502 0.95002a0.372 0.372 0 0 1-0.268 0.114h-0.80003a0.376 0.376 0 0 1-0.247-0.096l-0.95402-0.97002a0.39 0.39 0 0 1 0-0.54201l1.33703-1.36003a0.37 0.37 0 0 1 0.531 0l1.33704 1.36103a0.389 0.389 0 0 1 0 0.543z m0-5.71113l-3.73709 3.80808a0.374 0.374 0 0 1-0.268 0.111h-0.79902a0.376 0.376 0 0 1-0.25-0.093l-0.95103-0.97002a0.391 0.391 0 0 1 0-0.54401l4.1391-4.2141a0.372 0.372 0 0 1 0.531 0l1.33704 1.36204a0.386 0.386 0 0 1 0 0.54z m0-5.70713L10.419799999999999 18.0128a0.372 0.372 0 0 1-0.268 0.113h-0.80002a0.373 0.373 0 0 1-0.24901-0.094l-0.95302-0.97202a0.388 0.388 0 0 1 0-0.54001L15.0929 9.4496a0.372 0.372 0 0 1 0.531 0l1.33704 1.36004a0.389 0.389 0 0 1 0 0.543z" /></svg>