<svg xmlns="http://www.w3.org/2000/svg" width="100%" height="100%" viewBox="0 0 30.72 30.72"><path d="M23.832 13.440999999999999H6.888c-0.877 0-1.589 0.711-1.589 1.589v10.59c0 0.877 0.711 1.589 1.589 1.589h16.944c0.877 0 1.589-0.711 1.589-1.589V15.03C25.421 14.152 24.709 13.440999999999999 23.832 13.440999999999999zM15.36 25.884999999999998c-3.066 0-5.56-2.494-5.56-5.56s2.494-5.56 5.56-5.56c3.066 0 5.56 2.494 5.56 5.56S18.426000000000002 25.884999999999998 15.36 25.884999999999998zM15.36 15.770999999999999c-2.511 0-4.554 2.043-4.554 4.554S12.849 24.878999999999998 15.36 24.878999999999998s4.554-2.043 4.554-4.554S17.871 15.770999999999999 15.36 15.770999999999999zM15.36 23.634c-1.563 0-2.881-1.103-3.221-2.568h1.67c0.275 0.581 0.859 0.979 1.551 0.979 0.96 0 1.721-0.761 1.721-1.721 0-0.96-0.761-1.721-1.721-1.721-0.649 0-1.2 0.352-1.493 0.874H12.165c0.378-1.412 1.669-2.462 3.195-2.462 1.818 0 3.309 1.491 3.309 3.309C18.668999999999997 22.143 17.177999999999997 23.634 15.36 23.634zM27.209 3.7559999999999993c-0.001 0.001-0.002 0.002-0.002 0.003-0.002-0.002-0.004-0.003-0.006-0.005 0.001-0.001 0.002-0.003 0.004-0.004-0.116-0.137-0.279-0.231-0.519-0.238-0.202 0.005-0.391 0.097-0.512 0.259l-1.818 2.353c-0.164-0.058-0.339-0.095-0.523-0.095H6.888c-0.184 0-0.358 0.038-0.523 0.095L4.547 3.7699999999999996c-0.121-0.162-0.31-0.253-0.512-0.259-0.24 0.006-0.403 0.1-0.519 0.238 0.001 0.001 0.002 0.003 0.004 0.004C3.5169999999999995 3.7549999999999994 3.5149999999999992 3.7569999999999997 3.5129999999999995 3.7589999999999995 3.5129999999999995 3.7579999999999996 3.5119999999999996 3.7569999999999997 3.5109999999999992 3.7559999999999993 3.4449999999999994 3.8339999999999996 3.2139999999999995 4.1819999999999995 3.4989999999999997 4.579999999999999l1.909 2.471C5.340999999999999 7.226999999999999 5.299999999999999 7.417 5.299999999999999 7.616999999999999v3.707c0 0.877 0.711 1.589 1.589 1.589h16.944c0.877 0 1.589-0.711 1.589-1.589V7.616999999999999c0-0.2-0.041-0.39-0.109-0.566l1.909-2.471C27.506 4.1819999999999995 27.275 3.8339999999999996 27.209 3.7559999999999993zM10.264 11.588c-0.987 0-1.787-0.8-1.787-1.787s0.8-1.787 1.787-1.787 1.787 0.8 1.787 1.787S11.251 11.588 10.264 11.588zM20.589 11.588c-0.987 0-1.787-0.8-1.787-1.787s0.8-1.787 1.787-1.787c0.987 0 1.787 0.8 1.787 1.787S21.576 11.588 20.589 11.588z" /></svg>