<svg xmlns="http://www.w3.org/2000/svg" width="100%" height="100%" viewBox="0 0 30.72 30.72"><path d="M5.265999999999999 15.36C5.265999999999999 9.792 9.792 5.265999999999999 15.36 5.265999999999999c0.048 0 4.003 0 5.455 0.002L17.89 8.193999999999999l1.344 1.344L25.262999999999998 3.3599999999999994H15.36C8.733 3.3599999999999994 3.3599999999999994 8.733 3.3599999999999994 15.36v9.331l1.91-1.759v-0.096c-0.002-0.244-0.004-7.404-0.004-7.476zM27.36 6.028l-1.91 1.76v0.096L25.453 15.36c0 5.568-4.528 10.094-10.093 10.094-0.048 0-4.003 0-5.455-0.002l2.925-2.926-1.344-1.344L5.456999999999999 27.36H15.36c6.627 0 12-5.373 12-12V6.028z" /></svg>