<svg xmlns="http://www.w3.org/2000/svg" width="100%" height="100%" viewBox="0 0 30.72 30.72"><path d="M5.1899999999999995 5.555C4.638999999999999 5.550999999999999 4.159999999999999 5.736999999999999 3.7849999999999993 6.18 2.9309999999999996 7.183 3.3899999999999992 9.495 5.146999999999999 12.277l0.02 0.028a10.177 10.177 0 0 0 0.197 0.297c1.733 2.579 4.249 4.677 3.743 7.586a4.28 4.28 0 0 1-0.599 1.564C6.975 24.157 3.3629999999999995 24.407 3.3629999999999995 24.407l0.042 0.001-0.045 0.005s4.355 1.344 8.533 0.438c0.598-0.13 1.192-0.305 1.769-0.537a12.331 12.331 0 0 0 0.023-0.01c0.343-0.138 0.667-0.284 0.975-0.437a12.331 12.331 0 0 0 0.282-0.145c0.285-0.15 0.556-0.306 0.814-0.467a12.331 12.331 0 0 0 0.152-0.095c0.316-0.204 0.61-0.416 0.888-0.635a12.331 12.331 0 0 0 0.146-0.116c0.164-0.134 0.323-0.27 0.476-0.407a12.331 12.331 0 0 0 0.123-0.105l0.036-0.04c0.008-0.008 0.015-0.016 0.024-0.023a12.842 12.842 0 0 0 0.86-0.888c0.05-0.056 0.1-0.112 0.148-0.169 0.059-0.068 0.118-0.135 0.175-0.203l0.1-0.123c0.127-0.154 0.25-0.31 0.372-0.465l0.032-0.042c0.679-0.88 1.28-1.779 1.933-2.639l0.216-0.278c0.294-0.374 0.6-0.74 0.932-1.091l0.03-0.031c0.108-0.114 0.22-0.226 0.334-0.337l0.07-0.067a10.997 10.997 0 0 1 0.264-0.243c0.036-0.032 0.072-0.065 0.109-0.096a5.003 5.003 0 0 1 0.374-0.293c0.012-0.01 0.025-0.018 0.038-0.027a5.003 5.003 0 0 1 0.85-0.48l-0.065 0.03 0.022-0.01 0.06-0.027a5.623 5.623 0 0 1 1.63-0.412h0.001a5.623 5.623 0 0 1 0.533-0.026h0.07a5.623 5.623 0 0 1 0.115 0.002l0.428-0.003a0.204 0.204 0 0 0 0.088-0.016c0.062-0.03 0.047-0.102-0.012-0.186a1.38 1.38 0 0 0-0.39-0.343 3.688 3.688 0 0 1-0.098-0.052 3.871 3.871 0 0 1-0.036-0.022 3.688 3.688 0 0 1-0.256-0.161 3.871 3.871 0 0 1-0.129-0.096 3.688 3.688 0 0 1-0.193-0.15c-0.205-0.2-0.432-0.733-0.523-0.888a2.05 2.05 0 0 0-0.24-0.33c-0.272-0.306-0.665-0.533-1.302-0.615-0.891-0.115-1.727 0.072-2.565 0.333l0.1-0.035c-1.168 0.354-2.334 0.87-3.655 0.94h-0.04a5.553 5.553 0 0 1-0.668-0.01l-0.06-0.004a5.473 5.473 0 0 1-1.16-0.233c-1.312-0.412-3.154-1.88-5.047-3.316a113.017 113.017 0 0 0-0.651-0.49 51.56 51.56 0 0 0-0.789-0.58l-0.222-0.155-0.236-0.166-0.086-0.06a17.622 17.622 0 0 0-1.612-0.997l-0.019-0.01a10.036 10.036 0 0 0-0.367-0.186c-0.039-0.019-0.078-0.035-0.117-0.053a7.732 7.732 0 0 0-0.548-0.23l-0.05-0.017a5.023 5.023 0 0 0-0.316-0.101l-0.026-0.007a3.055 3.055 0 0 0-0.816-0.125zM23.96 12.001a0.504 0.5 0 0 1 0.505 0.5 0.504 0.5 0 0 1-0.505 0.5 0.504 0.5 0 0 1-0.504-0.5 0.504 0.5 0 0 1 0.504-0.5z" /></svg>