<svg xmlns="http://www.w3.org/2000/svg" width="100%" height="100%" viewBox="0 0 30.72 30.72"><path d="M15.365 3.3609999999999993C10.649999999999999 3.2959999999999994 6.103999999999999 6.321999999999999 4.316999999999999 10.677c-0.885 1.953-1 4.116-0.946 6.225 0.01 2.666-0.02 5.335 0.015 7.999 0.113 1.542 1.654 2.614 3.134 2.44 3.257-0.02 6.514 0.044 9.77-0.034 4.79-0.303 9.155-3.796 10.527-8.39 1.4-4.345 0.03-9.413-3.39-12.443A11.968 11.967 0 0 0 15.365 3.3609999999999993z m3.52 2.842c0.406-0.01 0.807 0.032 1.197 0.117 0.557 0.286 0.945 0.826 0.902 1.383-0.058 0.75-0.587 1.247-1.38 1.246a2.95 2.95 0 0 0-0.72-0.09c-1.725-0.053-3.167 1.61-2.97 3.305 0.024 0.796-0.044 1.601 0.033 2.392 0.333 0.457 0.987 0.18 1.475 0.256 0.276 0 0.562 0.007 0.85 0.008a0.134 0.134 0 0 0 0.042 0.008 1.29 1.29 0 0 1 1.29 1.295 1.29 1.29 0 0 1-1.298 1.295 0.14 0.14 0 0 0-0.06 0.013c-0.777 0.003-1.553 0-2.33 0.002-0.066 1.616 0.197 3.276-0.31 4.84-0.865 2.706-3.97 4.337-6.685 3.62-0.537-0.284-0.91-0.79-0.868-1.334 0.062-0.796 0.656-1.308 1.532-1.24 0.075 0.006 0.113 0.012 0.168 0.02 0.716 0.14 1.477 0.034 2.107-0.391 1.127-0.645 1.502-1.977 1.396-3.193-0.02-0.687 0.043-1.384-0.033-2.066-0.333-0.456-0.984-0.18-1.472-0.256h-0.8a0.137 0.137 0 0 0-0.066-0.015 1.29 1.29 0 0 1-1.298-1.295c0-0.72 0.574-1.29 1.29-1.295a0.136 0.136 0 0 0 0.063-0.016h2.316c0.06-1.507-0.159-3.046 0.213-4.523 0.648-2.376 2.952-4.12 5.415-4.086z m0.705 0.052l0.13 0.024z m1.224 0.28c1.444 0.543 2.636 1.706 3.25 3.12a81.141 81.136 0 0 1-2.903-2.592 1.762 1.762 0 0 0-0.346-0.527z m0.45 0.935a86.96 86.954 0 0 0 2.966 2.596c-0.014-0.044-0.033-0.087-0.049-0.13 0.166 0.448 0.265 0.918 0.301 1.402a77.847 77.842 0 0 1-3.39-2.975l0.015-0.033c0.088-0.182 0.143-0.386 0.16-0.606a1.393 1.393 0 0 0 0-0.197c0-0.019-0.002-0.038-0.004-0.057z m0.02 0.196c-0.058 0.516-0.058 0.516 0 0z m-0.314 0.894a85.347 85.341 0 0 0 3.53 3.06c0 0.071 0.015 0.14 0.013 0.21a4.94 4.94 0 0 1-0.06 0.814A78.528 78.523 0 0 1 20.371 9.059999999999999a1.56 1.56 0 0 0 0.6-0.5z m0.526 1.83c0.898 0.8 1.856 1.623 2.918 2.485a5.215 5.215 0 0 1-0.242 0.863 74.032 74.027 0 0 1-2.307-1.963l0.002 0.055c0 0.076-0.004 0.152-0.01 0.226 0.703 0.612 1.44 1.237 2.24 1.885-0.109 0.26-0.234 0.512-0.38 0.752a73.605 73.6 0 0 1-2.06-1.752 3.13 3.13 0 0 0-0.16-2.55z m0.068 2.758c0.644 0.56 1.32 1.131 2.043 1.72a5.868 5.867 0 0 1-0.5 0.651 74.24 74.235 0 0 1-1.99-1.705c0.185-0.2 0.332-0.425 0.447-0.666z m-0.603 0.816a82.545 82.54 0 0 0 2.005 1.71c-0.19 0.2-0.392 0.385-0.607 0.556a75.858 75.853 0 0 1-2.043-1.77c0.203-0.108 0.396-0.247 0.572-0.425 0.027-0.022 0.047-0.047 0.073-0.07z m-0.86 0.594a84.37 84.365 0 0 0 2.088 1.8c-0.23 0.17-0.48 0.311-0.734 0.444a79.06 79.054 0 0 1-2.256-2.005c-0.024 0.002-0.05 0.001-0.074 0.003l-0.026-0.015a3.506 3.506 0 0 0 1.002-0.227z m-10.046 0.248l-0.02 0.014h-0.013l0.004 0.004a1.573 1.573 0 0 0-0.51 0.55l-0.45-0.427a5.38 5.38 0 0 1 0.99-0.14z m-0.994 0.14l-0.127 0.032 0.127-0.03z m-0.27 0.075l0.622 0.592a1.55 1.55 0 0 0 0.008 1.045c-0.468-0.444-0.94-0.893-1.432-1.348 0.26-0.118 0.529-0.21 0.803-0.289z m-1.03 0.4c0.72 0.674 1.425 1.347 2.134 2.03a2.68 2.68 0 0 0-0.826 0.242c-0.64-0.61-1.3-1.23-1.998-1.865a5.98 5.98 0 0 1 0.69-0.406z m12.022 0.204c0.473 0.42 0.958 0.846 1.474 1.285a5.37 5.37 0 0 1-0.908 0.342l-0.617-0.498a1.55 1.55 0 0 0 0.05-1.13z m-12.901 0.345a140.01 140.01 0 0 1 1.958 1.844 3.158 3.158 0 0 0-1.527 2.332A98.329 98.323 0 0 0 5.137 18.16a5.574 5.573 0 0 0-0.091 0.22c0.777 0.698 1.522 1.391 2.252 2.087 0.002 0.284 0.042 0.57 0.14 0.848 0.053 0.19 0.13 0.366 0.22 0.533a107.243 107.236 0 0 0-2.86-2.635c0.027-0.108 0.04-0.217 0.074-0.323 0.137-0.518 0.366-0.998 0.65-1.44 0.69 0.621 1.35 1.241 2.002 1.86a2.98 2.98 0 0 1 0.107-0.232 99.457 99.45 0 0 0-1.986-1.819c0.15-0.214 0.31-0.42 0.49-0.613A109.76 109.76 0 0 1 8.059999999999999 18.448c0.054-0.06 0.11-0.122 0.168-0.178a98.104 98.104 0 0 0-1.94-1.79 5.82 5.82 0 0 1 0.592-0.509z m12.719 0.153l-0.027 0.265z m1.733 0.754l-0.05 0.023 0.05-0.023z m-1.72 0.091l0.44 0.354c-0.287 0.06-0.582 0.096-0.88 0.103h-0.016a1.56 1.56 0 0 0 0.457-0.457zM4.7459999999999996 19.461c1.32 1.189 2.532 2.357 3.78 3.559l0.175 0.166c-0.237 0.107-0.44 0.266-0.594 0.465A125.94200000000001 125.935 0 0 0 4.659999999999999 20.436a5.176 5.176 0 0 1 0.086-0.976z m-0.07 1.29A154.286 154.276 0 0 1 7.97 23.86c-0.11 0.2-0.18 0.428-0.2 0.677a1.406 1.406 0 0 0 0 0.166c-0.92-0.884-1.856-1.78-2.88-2.71a5.65 5.65 0 0 1-0.215-1.243z m0.378 1.714c0.943 0.876 1.852 1.748 2.778 2.64l0.02 0.02c0.07 0.195 0.186 0.372 0.327 0.532-1.445-0.56-2.562-1.767-3.125-3.192z m3.352 0.264c0.179 0.14 0.374 0.26 0.58 0.358l-0.025 0.005-0.018-0.015a3.014 3.014 0 0 1-0.537-0.348z m1.047 3.252l0.15 0.025z m0.228 0.04s0.09 0.007 0.274 0.025a33.671 33.669 0 0 0-0.274-0.026z" /></svg>