<svg xmlns="http://www.w3.org/2000/svg" width="100%" height="100%" viewBox="0 0 30.72 30.72"><path d="M22.36 7.395h1.4c0.331 0 0.6 0.269 0.6 0.6v14.73c0 0.331-0.269 0.6-0.6 0.6H22.36V7.395zM25.36 9.386h1.4c0.331 0 0.6 0.269 0.6 0.6v10.747c0 0.331-0.269 0.6-0.6 0.6H25.36V9.386zM3.9599999999999995 5.404h16.8c0.331 0 0.6 0.269 0.6 0.6v18.712c0 0.331-0.269 0.6-0.6 0.6H3.9599999999999995c-0.331 0-0.6-0.269-0.6-0.6V6.004C3.3599999999999994 5.673 3.6289999999999996 5.404 3.9599999999999995 5.404zM7.56 8.59c-0.11 0-0.2 0.09-0.2 0.2v7.35c0 0.045 0.015 0.089 0.044 0.125 0.069 0.086 0.195 0.101 0.281 0.032l9.228-7.35c0.048-0.038 0.075-0.096 0.075-0.156 0-0.11-0.09-0.2-0.2-0.2L7.56 8.59zM7.359999999999999 20.544999999999998c0 0.04 0.012 0.08 0.035 0.113 0.062 0.091 0.187 0.114 0.278 0.052l7.576-5.184c0.054-0.037 0.087-0.099 0.087-0.165 0-0.11-0.09-0.2-0.2-0.2H10.25c-0.045 0-0.088 0.015-0.123 0.042l-2.69 2.102C7.387999999999999 17.343 7.359999999999999 17.401 7.359999999999999 17.463L7.359999999999999 20.544999999999998zM7.446 21.701999999999998C7.3919999999999995 21.739 7.359999999999999 21.801 7.359999999999999 21.866v0.087c0 0.106 0.086 0.192 0.192 0.192H10.36c0.11 0 0.2-0.09 0.2-0.2v-2.022c0-0.041-0.012-0.081-0.036-0.114-0.063-0.091-0.188-0.113-0.278-0.05L7.446 21.701999999999998z" /></svg>