<svg xmlns="http://www.w3.org/2000/svg" width="100%" height="100%" viewBox="0 0 30.72 30.72"><path d="M23.245 7.266a0.621 0.621 0 0 0-0.354 0.12c-0.08 0.08-0.161 0.196-0.161 0.313 0 0.2 0.236 0.474 0.673 0.923 1.822 1.754 2.738 3.903 2.732 6.494-0.007 2.867-0.97 5.17-2.844 6.954-0.394 0.353-0.556 0.63-0.557 0.867 0 0.116 0.08 0.237 0.16 0.353 0.076 0.08 0.237 0.162 0.353 0.162 0.434 0 1.04-0.512 1.833-1.509 1.542-1.89 2.24-3.978 2.279-6.824 0.036-2.847-0.857-4.777-2.603-6.77-0.63-0.712-1.153-1.082-1.511-1.083z m-15.769 0.002c-0.358 0-0.882 0.37-1.51 1.083C4.217999999999999 10.344 3.3249999999999993 12.274 3.3609999999999993 15.120999999999999c0.04 2.846 0.737 4.933 2.28 6.824 0.791 0.997 1.398 1.51 1.832 1.509a0.573 0.573 0 0 0 0.352-0.162c0.08-0.116 0.16-0.237 0.16-0.353 0-0.237-0.162-0.514-0.556-0.866-1.873-1.785-2.837-4.087-2.844-6.955-0.006-2.591 0.91-4.74 2.732-6.494 0.437-0.449 0.674-0.722 0.673-0.923 0-0.117-0.08-0.233-0.161-0.313a0.621 0.621 0 0 0-0.354-0.12z m7.056 0.895s0.655 2.081-2.649 6.727c-3.156 4.433 1.045 7.15 1.432 7.386-0.281-0.18-2.001-1.5 0.402-5.423 0.466-0.77 1.076-1.47 1.834-3.041 0 0 0.67 0.946 0.32 2.998-0.523 3.101 2.271 2.214 2.314 2.257 0.976 1.15-0.808 3.17-0.917 3.233-0.108 0.061 5.096-3.13 1.399-7.935-0.253 0.253-0.582 1.442-1.267 1.266-0.684-0.174 2.125-3.494-2.868-7.468zM13.315 22.276c0.023 0.016 0.038 0.024 0.038 0.024l-0.038-0.024z" /></svg>