<svg xmlns="http://www.w3.org/2000/svg" width="100%" height="100%" viewBox="0 0 30.72 30.72"><path d="M17.024 10.315999999999999L11.41 11.856 12.549999999999999 16.08l5.615-1.54L19.31 18.759999999999998l-5.615 1.49 1.093 4.224-5.615 1.49L7.779999999999999 20.9c0.846-0.995 1.194-2.386 0.846-3.728-0.398-1.342-1.392-2.385-2.584-2.832L4.6499999999999995 9.123 15.93 6.139999999999999z m7.106-0.198L22.291999999999998 3.4099999999999993 3.3599999999999994 8.427999999999999l1.838 6.758c1.093 0.2 2.087 1.043 2.385 2.236 0.348 1.193-0.1 2.385-0.944 3.18l1.788 6.708L27.36 22.242l-1.79-6.708c-1.142-0.2-2.086-1.043-2.434-2.236-0.298-1.193 0.1-2.435 0.994-3.18z" /></svg>