<svg xmlns="http://www.w3.org/2000/svg" width="100%" height="100%" viewBox="0 0 30.72 30.72"><path d="M9.36 5.199999999999999c-3.315 0-6 2.678-6 5.982a5.948 5.948 0 0 0 1.758 4.23l0.54 0.541L6.861999999999999 17.16l2.615-2.603-1.205-1.21-0.541-0.543a2.273 2.273 0 0 1-0.674-1.622c0-0.534 0.186-1.024 0.493-1.414a2.3 2.3 0 0 1 3.448-0.198l0.538 0.522 1.213 1.2c-1.96 1.96-3.923 3.914-5.887 5.868l1.403 1.407 1.209 1.203 3.27 3.274-0.004 0.003L15.36 25.52l2.616-2.475h-0.001l-0.002-0.002 5.885-5.883 1.744-1.747c1.22-1.215 1.917-3.09 1.727-4.983-0.288-2.865-2.662-5.016-5.544-5.213a6 6 0 0 0-4.667 1.736l-1.754 1.743-1.213-1.21-0.55-0.533A5.995 5.995 0 0 0 9.36 5.201z m11.96 3.688a2.303 2.303 0 0 1 2.32 1.963 2.286 2.286 0 0 1-0.657 1.959l-1.744 1.747-5.882 5.876-3.271-3.263 3.277-3.263 4.368-4.346c0.426-0.425 0.99-0.663 1.589-0.673Z" /></svg>