<svg xmlns="http://www.w3.org/2000/svg" width="100%" height="100%" viewBox="0 0 30.72 30.72"><path d="M15.36 3.3599999999999994c-1.326 0-2.597 0.22-3.787 0.613 4.94-1.243 8.575 1.72 11.096 5.606 1.725 2.695 2.813 2.83 4.207 2.412A11.956 11.956 0 0 0 15.36 3.3599999999999994zM11.018 5.516c-1.644 0.019-3.295 0.775-4.931 2.207A11.967 11.967 0 0 0 3.3599999999999994 15.36c0.184-2.823 2.163-5.128 4.87-5.07 2.104 0.044 4.648 1.518 7.13 5.289 4.87 7.468 10.917 5.483 11.863 1.51 0.081-0.566 0.137-1.14 0.137-1.729 0-0.176-0.02-0.347-0.027-0.521-1.645 1.725-4.899 2.35-8.264-2.97-2.59-4.363-5.31-6.383-8.05-6.353zM6.6899999999999995 16.596c-1.675 0.13-2.657 1.804-2.242 3.756A11.955 11.955 0 0 0 15.36 27.36c4.215 0 7.898-2.149 10.037-5.412v-0.043c-2.836 3.49-8.946 4.255-13.855-2.182-1.814-2.386-3.544-3.228-4.852-3.127Z" /></svg>