<svg xmlns="http://www.w3.org/2000/svg" width="100%" height="100%" viewBox="-3.36 -3.36 30.72 30.72"><path d="M19.086 5.67V2.793a.61.61 0 00-.611-.607H5.523a.61.61 0 00-.615.608v2.834l8.39-3.052a.594.594 0 01.743.389l.544 1.498zm4.496 1.673l-8.803-2.368.752 2.066h5.583a.614.614 0 01.613.612v8.796l2.247-8.367a.592.592 0 00-.392-.739zm-21.312.31a.616.616 0 01.613-.612h12.155l-1.27-3.49a.595.595 0 00-.743-.383L.367 7.775a.594.594 0 00-.322.775l2.225 6.112zm0 0a.616.616 0 01.613-.612h12.155l-1.27-3.49a.595.595 0 00-.743-.383L.367 7.775a.594.594 0 00-.322.775l2.225 6.112zM21.267 21.2a.614.614 0 01-.613.613H3.344a.614.614 0 01-.612-.613V8.115a.614.614 0 01.613-.613h17.309a.614.614 0 01.613.613zm-3.032-3.42v-1.195a.08.08 0 00-.08-.08h-5.373v1.361h5.373a.082.082 0 00.08-.086zm.817-2.587v-1.201a.08.08 0 00-.08-.082h-6.19v1.362h6.19a.079.079 0 00.08-.082zm-.817-2.588V11.4a.08.08 0 00-.08-.08h-5.373v1.361h5.373a.082.082 0 00.08-.079zM8.15 14.045v1.225h1.77c-.145.75-.804 1.293-1.77 1.293a1.976 1.976 0 010-3.95 1.77 1.77 0 011.253.49l.934-.932a3.14 3.14 0 00-2.187-.853 3.268 3.268 0 100 6.537c1.89 0 3.133-1.328 3.133-3.197a3.958 3.958 0 00-.052-.619z"/></svg>