<svg xmlns="http://www.w3.org/2000/svg" width="100%" height="100%" viewBox="0 0 30.72 30.72"><path d="M20.503999999999998 23.932H6.789999999999999C6.789999999999999 25.825 8.323 27.36 10.216 27.36h10.286c1.893 0 3.428-1.535 3.428-3.428V9.852c0-0.07-0.054-0.125-0.124-0.125h-3.18c-0.067 0-0.123 0.056-0.123 0.126v14.08z m0-20.572c1.892 0 3.427 1.535 3.427 3.43H10.218v14.078c0 0.068-0.056 0.125-0.125 0.125H6.914c-0.07 0-0.125-0.057-0.125-0.125V6.787999999999999C6.789999999999999 4.895999999999999 8.323 3.3599999999999994 10.216 3.3599999999999994h10.287" /></svg>