<svg xmlns="http://www.w3.org/2000/svg" width="100%" height="100%" viewBox="0 0 30.72 30.72"><path d="M15.202 4.734999999999999a3.958 3.958 0 0 0-0.352 0.01 3.935 3.935 0 0 0-3.133 1.933 4.233 4.233 0 0 0-0.134 0.254l-3.67 6.28a4.63 4.63 0 0 0-0.227 0.386l-2.263 3.907a4.847 4.847 0 0 1 2.468-0.36 4.765 4.765 0 0 1 1.858 0.617A4.981 4.981 0 0 1 12.17 21.439999999999998l2.306-3.969a3.753 3.753 0 0 0 0.227-0.384l3.67-6.282a3.86 3.86 0 0 0-1.284-5.549 3.958 3.958 0 0 0-1.888-0.521z m8.36 6.553a3.894 3.894 0 0 0-3.458 1.937l-3.889 6.719a3.874 3.874 0 0 0 1.424 5.3 3.894 3.894 0 0 0 5.313-1.42l3.888-6.718a3.875 3.875 0 0 0-1.423-5.299 3.894 3.894 0 0 0-1.856-0.52z m-16.384 6.83A3.987 3.987 0 0 0 4.0809999999999995 19.82l-0.065 0.11c-0.043 0.066-0.096 0.123-0.136 0.193-1.08 1.887-0.418 4.253 1.453 5.343 1.87 1.09 4.305 0.395 5.384-1.494 0.028-0.047 0.04-0.098 0.065-0.146l0.004-0.006c0.96-1.86 0.278-4.13-1.543-5.191a3.792 3.792 0 0 0-1.666-0.51 3.987 3.987 0 0 0-0.399-0.002Z" /></svg>