<svg xmlns="http://www.w3.org/2000/svg" width="100%" height="100%" viewBox="0 0 30.72 30.72"><path d="M6.632999999999999 4.9959999999999996c-0.736 0-1.363 0.492-1.568 1.16L3.3599999999999994 12.632c0 1.664 1.336 3 3 3a3 3 0 0 0 3-3c0 1.664 1.336 3 3 3a3 3 0 0 0 3-3c0 1.65 1.35 3 3 3 1.664 0 3-1.336 3-3 0 1.664 1.336 3 3 3s3-1.336 3-3l-1.705-6.476a1.646 1.646 0 0 0-1.568-1.16z m8.729 9.326c-0.604 1.063-1.703 1.81-3.002 1.81-1.304 0-2.398-0.747-3-1.806-0.604 1.06-1.702 1.806-3 1.806-0.484 0-0.944-0.1-1.363-0.277v8.232c0 0.9 0.736 1.637 1.636 1.637h17.454c0.9 0 1.636-0.737 1.636-1.637v-8.232a3.48 3.48 0 0 1-1.363 0.277c-1.304 0-2.398-0.746-3-1.804-0.602 1.058-1.696 1.804-3 1.804-1.299 0-2.394-0.75-2.998-1.81z m5.725 3.765c0.808 0 1.488 0.298 2.007 0.782l-0.859 0.859a1.623 1.623 0 0 0-1.148-0.447c-0.98 0-1.772 0.827-1.772 1.806 0 0.98 0.792 1.807 1.772 1.807 0.882 0 1.485-0.501 1.615-1.191h-1.615v-1.16h2.826c0.035 0.196 0.054 0.4 0.054 0.613 0 1.714-1.147 2.931-2.88 2.931a3 3 0 0 1 0-6z" /></svg>