<svg xmlns="http://www.w3.org/2000/svg" width="100%" height="100%" viewBox="0 0 30.72 30.72"><path d="M26.38 13.95a8.578 8.578 0 0 0-0.862-3.034 8.911 8.911 0 0 0-1.789-2.445c0.337-1.342-0.413-2.505-0.413-2.505-1.292-0.08-2.113 0.4-2.416 0.62-0.052-0.02-0.102-0.044-0.154-0.064-0.22-0.089-0.446-0.172-0.677-0.247-0.231-0.073-0.47-0.14-0.711-0.197a9.867 9.867 0 0 0-0.875-0.161C17.917 4.1129999999999995 16.299999999999997 3.3599999999999994 16.299999999999997 3.3599999999999994c-1.804 1.145-2.147 2.744-2.147 2.744l-0.018 0.093c-0.098 0.029-0.2 0.057-0.298 0.088-0.138 0.042-0.275 0.094-0.413 0.143-0.138 0.055-0.275 0.107-0.41 0.166a8.869 8.869 0 0 0-1.557 0.87l-0.063-0.029c-2.497-0.955-4.716 0.195-4.716 0.195-0.203 2.658 0.996 4.33 1.235 4.636a11.608 11.608 0 0 0-0.607 2.635C4.9959999999999996 16.037 4.313 18.374 4.313 18.374c1.926 2.214 4.171 2.351 4.171 2.351 0.003-0.002 0.006-0.002 0.006-0.005 0.285 0.509 0.615 0.994 0.986 1.446 0.156 0.19 0.32 0.371 0.488 0.548-0.704 2.009 0.099 3.68 0.099 3.68 2.144 0.08 3.553-0.937 3.849-1.173a9.784 9.784 0 0 0 3.164 0.501h0.08l0.055-0.003 0.107-0.002 0.103-0.005 0.003 0.002c1.01 1.44 2.788 1.646 2.788 1.646 1.264-1.332 1.337-2.653 1.337-2.94v-0.058c0-0.02-0.003-0.039-0.003-0.06 0.265-0.187 0.52-0.387 0.758-0.6a7.875 7.875 0 0 0 1.415-1.7c1.43 0.083 2.437-0.885 2.437-0.885-0.236-1.49-1.085-2.216-1.264-2.354l-0.018-0.013-0.016-0.013a0.217 0.217 0 0 1-0.031-0.02c0.008-0.092 0.016-0.18 0.02-0.27 0.011-0.162 0.016-0.323 0.016-0.48v-0.253l-0.005-0.098-0.008-0.135a1.891 1.891 0 0 0-0.01-0.13c-0.003-0.042-0.008-0.083-0.013-0.125l-0.016-0.124-0.018-0.122a6.215 6.215 0 0 0-2.032-3.73 6.015 6.015 0 0 0-3.222-1.46 6.292 6.292 0 0 0-0.85-0.048l-0.107 0.002h-0.063l-0.044 0.003-0.104 0.008a4.777 4.777 0 0 0-3.335 1.695c-0.332 0.4-0.592 0.84-0.768 1.297a4.594 4.594 0 0 0-0.312 1.817l0.003 0.091c0.005 0.055 0.007 0.11 0.013 0.164a3.615 3.615 0 0 0 0.698 1.82 3.53 3.53 0 0 0 1.827 1.282c0.33 0.098 0.66 0.14 0.971 0.137 0.039 0 0.078 0 0.114-0.002l0.063-0.003c0.02 0 0.041-0.003 0.062-0.003 0.034-0.002 0.065-0.007 0.099-0.01 0.007 0 0.018-0.003 0.028-0.003l0.031-0.005 0.06-0.008a1.18 1.18 0 0 0 0.112-0.02c0.036-0.008 0.072-0.013 0.109-0.024a2.634 2.634 0 0 0 0.914-0.415c0.028-0.02 0.056-0.041 0.085-0.065a0.248 0.248 0 0 0 0.039-0.35 0.244 0.244 0 0 0-0.309-0.06l-0.078 0.042c-0.09 0.044-0.184 0.083-0.283 0.116a2.476 2.476 0 0 1-0.475 0.096c-0.028 0.003-0.054 0.006-0.083 0.006l-0.083 0.002c-0.026 0-0.054 0-0.08-0.002l-0.102-0.006h-0.012l-0.024 0.006c-0.016-0.003-0.031-0.003-0.044-0.006-0.031-0.002-0.06-0.007-0.091-0.01a2.59 2.59 0 0 1-0.724-0.213 2.557 2.557 0 0 1-0.667-0.438 2.52 2.52 0 0 1-0.805-1.475 2.306 2.306 0 0 1-0.029-0.444l0.006-0.122v-0.023l0.002-0.031c0.003-0.021 0.003-0.04 0.005-0.06a3.163 3.163 0 0 1 1.352-2.29 3.12 3.12 0 0 1 0.937-0.43 2.946 2.946 0 0 1 0.776-0.101h0.06l0.07 0.002 0.045 0.003h0.026l0.07 0.005a4.041 4.041 0 0 1 1.635 0.49 3.94 3.94 0 0 1 1.602 1.662 3.77 3.77 0 0 1 0.397 1.414l0.005 0.076 0.003 0.075c0.002 0.026 0.002 0.05 0.002 0.075 0 0.024 0.003 0.052 0 0.07v0.065l-0.002 0.073-0.008 0.174a6.195 6.195 0 0 1-0.08 0.639 5.1 5.1 0 0 1-0.267 0.927 5.31 5.31 0 0 1-0.624 1.13 5.052 5.052 0 0 1-3.237 2.014 4.82 4.82 0 0 1-0.649 0.066l-0.039 0.003h-0.287a6.607 6.607 0 0 1-1.716-0.265 6.776 6.776 0 0 1-3.4-2.274 6.75 6.75 0 0 1-0.746-1.15 6.616 6.616 0 0 1-0.714-2.596l-0.005-0.083-0.002-0.02v-0.056l-0.003-0.073v-0.096l-0.003-0.104v-0.07l0.003-0.163c0.008-0.22 0.026-0.45 0.054-0.678a8.707 8.707 0 0 1 0.28-1.355c0.128-0.444 0.286-0.872 0.473-1.277a7.04 7.04 0 0 1 1.456-2.1 5.925 5.925 0 0 1 0.953-0.763c0.169-0.111 0.343-0.213 0.524-0.306 0.089-0.05 0.182-0.091 0.273-0.135 0.047-0.02 0.093-0.042 0.138-0.062a7.177 7.177 0 0 1 0.714-0.267l0.145-0.045c0.049-0.015 0.098-0.026 0.148-0.041 0.098-0.029 0.197-0.052 0.296-0.076 0.049-0.013 0.1-0.02 0.15-0.033l0.15-0.032 0.151-0.028 0.076-0.013 0.075-0.01 0.153-0.024c0.057-0.01 0.114-0.013 0.171-0.023l0.169-0.021c0.036-0.003 0.073-0.008 0.106-0.01l0.073-0.008 0.036-0.003 0.042-0.002c0.057-0.003 0.114-0.008 0.171-0.01l0.086-0.006h0.023l0.037-0.003 0.145-0.007a7.999 7.999 0 0 1 1.708 0.125 7.917 7.917 0 0 1 2.048 0.68 8.253 8.253 0 0 1 1.672 1.09l0.09 0.077 0.089 0.078c0.06 0.052 0.114 0.107 0.171 0.159 0.057 0.052 0.112 0.106 0.166 0.16 0.052 0.055 0.107 0.107 0.159 0.164a8.671 8.671 0 0 1 1.41 1.978c0.012 0.026 0.028 0.052 0.04 0.078l0.04 0.078 0.075 0.156c0.023 0.051 0.05 0.1 0.07 0.153l0.065 0.15a8.848 8.848 0 0 1 0.45 1.34 0.19 0.19 0 0 0 0.201 0.142 0.186 0.186 0 0 0 0.172-0.184c0.01-0.246 0.002-0.532-0.024-0.856z" /></svg>