<svg xmlns="http://www.w3.org/2000/svg" width="100%" height="100%" viewBox="0 0 30.72 30.72"><path d="M15.959999999999999 15.995l-1.125-0.053c-0.945-0.033-1.197-0.083-1.197-0.435 0-0.135 0.1-0.318 0.303-0.42 0.167 0.036 0.337 0.053 0.507 0.053 2.415 0 3.63-1.17 3.63-2.98 0-0.3-0.074-0.57-0.225-0.735h0.96v-2.01H15.959999999999999c-0.472-0.115-0.892-0.2-1.465-0.2-2.543 0-3.804 1.474-3.804 3.18 0 1.07 0.506 1.84 1.26 2.242-0.584 0.234-1.022 0.87-1.022 1.54 0 0.586 0.322 1.054 0.81 1.287-0.64 0.336-1.215 1.155-1.215 1.94 0 1.66 1.35 2.476 3.64 2.476 2.873 0 4.695-1.604 4.695-3.41h-0.018c0-1.674-1.078-2.41-2.88-2.475z m-1.462-4.78c0.895 0 1.342 0.48 1.342 1.193 0 0.71-0.5 1.14-1.325 1.14-0.893 0-1.342-0.445-1.342-1.173 0-0.68 0.483-1.16 1.325-1.16z m2.008 7.554c0 0.63-0.612 1.113-1.82 1.113-0.944 0-1.5-0.405-1.5-1.002 0-0.353 0.226-0.708 0.6-0.997 0.09 0.015 0.226 0 0.33 0.015l1.35 0.032c0.796 0.033 1.08 0.388 1.08 0.84h-0.04zM20.997 14.213999999999999v0.002c-0.99 0-1.824 0.834-1.824 1.845 0 1.01 0.834 1.823 1.824 1.823 1.01 0 1.846-0.814 1.846-1.824 0-1.01-0.837-1.846-1.846-1.846zM15.36 3.3599999999999994C8.733 3.3599999999999994 3.3599999999999994 8.733 3.3599999999999994 15.36s5.373 12 12 12 12-5.373 12-12S21.987 3.3599999999999994 15.36 3.3599999999999994z m0 22.335C9.652999999999999 25.695 5.0249999999999995 21.067999999999998 5.0249999999999995 15.36 5.0249999999999995 9.652999999999999 9.652999999999999 5.0249999999999995 15.36 5.0249999999999995c5.708 0 10.335 4.628 10.335 10.335 0 5.708-4.627 10.335-10.335 10.335z" /></svg>