<svg xmlns="http://www.w3.org/2000/svg" width="100%" height="100%" viewBox="0 0 30.72 30.72"><path d="M12.919799999999999 4.042999999999999c-1.096 0.244-2.1812 0.5831-3.1983 1.0951 0.023 0.8981 0.081 1.7582 0.199 2.6323-0.395 0.253-0.81 0.47-1.178 0.766-0.375 0.288-0.7581 0.564-1.0971 0.9011-0.6781-0.448-1.3962-0.869-2.1352-1.2411C4.7132 9.0534 3.9679999999999995 9.9786 3.3599999999999994 11.0146c0.458 0.7411 0.936 1.4352 1.4521 2.0942h0.014v6.3565c0.012 0 0.023 0 0.035 0.003l3.8963 0.376c0.204 0.02 0.364 0.184 0.378 0.3891l0.12 1.7201 3.3994 0.242 0.234-1.587c0.03-0.206 0.207-0.358 0.415-0.358h4.1114c0.208 0 0.385 0.152 0.415 0.358l0.234 1.587 3.3993-0.242 0.12-1.72a0.4196 0.4196 0 0 1 0.378-0.3891l3.8954-0.376c0.012 0 0.023-0.003 0.035-0.003v-0.5071h0.002V13.1098h0.014c0.516-0.659 0.994-1.3531 1.4521-2.0942-0.608-1.036-1.3541-1.9611-2.1512-2.8192-0.739 0.372-1.4571 0.793-2.1352 1.2411-0.339-0.337-0.721-0.613-1.096-0.901-0.369-0.296-0.7841-0.5131-1.1781-0.7661 0.117-0.8741 0.175-1.7342 0.199-2.6323-1.0171-0.512-2.1012-0.851-3.1983-1.095-0.438 0.736-0.838 1.533-1.1871 2.3121-0.414-0.069-0.829-0.094-1.2461-0.099h-0.016c-0.417 0.005-0.832 0.03-1.2461 0.099-0.349-0.779-0.749-1.576-1.1881-2.3121l0.001-0.001zM9.8365 13.348899999999999c1.2971 0 2.3492 1.0511 2.3492 2.3482s-1.052 2.3482-2.3492 2.3482c-1.296 0-2.3482-1.051-2.3482-2.3482 0-1.297 1.0511-2.3482 2.3482-2.3482z m11.049 0c1.296 0 2.3482 1.0511 2.3482 2.3482s-1.0511 2.3482-2.3482 2.3482-2.3492-1.051-2.3492-2.3482c0-1.297 1.051-2.3482 2.3492-2.3482z m-10.824 0.9301c-0.861 0-1.559 0.698-1.559 1.5591s0.698 1.5582 1.559 1.5582c0.8611 0 1.5592-0.698 1.5592-1.5582 0-0.86-0.697-1.559-1.5591-1.559z m10.598 0c-0.8611 0-1.5582 0.698-1.5582 1.5591s0.697 1.5582 1.5581 1.5582c0.8611 0 1.5592-0.698 1.5592-1.5582 0-0.86-0.697-1.559-1.5592-1.559z m-5.2985 0.453c0.417 0 0.757 0.308 0.757 0.6871v2.1622c0 0.379-0.339 0.687-0.757 0.687s-0.756-0.308-0.756-0.687V15.418999999999999c0-0.379 0.339-0.687 0.756-0.687zM4.820099999999999 20.3064c0.002 0.377 0.006 0.789 0.006 0.871 0 3.7014 4.6944 5.4795 10.5269 5.5005h0.014c5.8325-0.02 10.5259-1.7991 10.5259-5.5004 0-0.084 0.005-0.495 0.007-0.871l-3.5023 0.338-0.121 1.729a0.421 0.421 0 0 1-0.389 0.3901l-4.1814 0.296a0.4203 0.4203 0 0 1-0.415-0.358l-0.238-1.6141h-3.3863l-0.238 1.6141a0.4192 0.4192 0 0 1-0.4451 0.357l-4.1513-0.296c-0.208-0.015-0.375-0.181-0.389-0.389l-0.12-1.7292-3.5044-0.337z" /></svg>