<svg xmlns="http://www.w3.org/2000/svg" width="100%" height="100%" viewBox="0 0 30.72 30.72"><path d="M26.594 8.292a2.959 2.959 0 0 0-2.18-0.977H6.443c-0.827 0-1.58 0.375-2.18 0.977C3.6599999999999993 8.893999999999998 3.3599999999999994 9.721 3.3599999999999994 10.547999999999998v9.624c0 0.827 0.3 1.654 0.902 2.256a2.814 2.814 0 0 0 2.18 0.977H10.73a3.22 3.22 0 0 0 1.654-0.45c0.451-0.301 0.902-0.753 1.128-1.279l1.203-2.33c0.15-0.302 0.376-0.452 0.677-0.452 0.3 0 0.601 0.15 0.676 0.451l1.203 2.331c0.226 0.526 0.677 0.902 1.128 1.203 0.451 0.3 1.053 0.451 1.58 0.451h4.285c0.827 0 1.58-0.376 2.18-0.977 0.602-0.602 0.903-1.429 0.903-2.256v-9.55c0.075-0.826-0.15-1.653-0.752-2.255z m-16.617 9.55c-1.354 0-2.406-1.129-2.406-2.482 0-1.353 1.128-2.406 2.481-2.406s2.406 1.128 2.406 2.481c-0.075 1.278-1.128 2.406-2.481 2.406z m10.978 0c-1.354 0-2.482-1.053-2.482-2.407 0-1.353 1.053-2.481 2.407-2.481C22.233 12.953999999999999 23.36 14.007 23.36 15.36c0 1.353-1.052 2.481-2.405 2.481Z" /></svg>