<svg xmlns="http://www.w3.org/2000/svg" width="100%" height="100%" viewBox="0 0 30.72 30.72"><path d="M5.76 16.391c0.261-0.64-0.04-1.374-0.682-1.638-0.631-0.262-1.362 0.049-1.623 0.688-0.266 0.637 0.038 1.363 0.668 1.623 0.632 0.267 1.368-0.037 1.623-0.673m0.858-3.244c0.256-0.636-0.045-1.37-0.691-1.639-0.631-0.258-1.367 0.053-1.639 0.687-0.27 0.638 0.03 1.369 0.662 1.629 0.646 0.266 1.367-0.039 1.639-0.677m1.218-1.095c0.645 0.264 1.367-0.041 1.637-0.675 0.256-0.639-0.045-1.375-0.676-1.639-0.632-0.26-1.368 0.049-1.639 0.686-0.271 0.638 0.046 1.367 0.678 1.626m3.156 1.053c0.646 0.256 1.368-0.045 1.64-0.676 0.255-0.646-0.046-1.383-0.691-1.639-0.634-0.271-1.37 0.046-1.626 0.676-0.27 0.632 0.045 1.368 0.677 1.625M24.96 16.366c0.271 0.631 0.993 0.933 1.639 0.661 0.632-0.27 0.933-0.992 0.661-1.639-0.271-0.646-1.008-0.947-1.639-0.676-0.646 0.256-0.945 0.992-0.676 1.639m0.752-2.57c0.631-0.257 0.931-0.993 0.676-1.64-0.271-0.632-1.008-0.946-1.639-0.677-0.646 0.271-0.947 0.992-0.676 1.639 0.256 0.632 0.993 0.933 1.624 0.678m-2.78-1.729c0.631-0.26 0.932-0.992 0.672-1.631-0.27-0.646-1.001-0.947-1.639-0.686-0.632 0.271-0.937 0.992-0.67 1.639 0.27 0.631 1.007 0.932 1.638 0.676m-3.412 0.858c0.631-0.271 0.932-1.007 0.677-1.639-0.271-0.646-0.993-0.947-1.64-0.691-0.631 0.271-0.932 1.008-0.661 1.639 0.271 0.632 0.993 0.932 1.64 0.662M12.785 8.294999999999998l0.093 2.399 1.752-0.923c0.035 0.039 0.079 0.078 0.12 0.107-0.181 0.718-0.621 1.914-0.896 2.575-0.335 0.812 0.051 1.744 0.862 2.078 0.812 0.331 1.747-0.06 2.083-0.872 0.241-0.57 0.121-1.188-0.24-1.623-0.391-0.678-0.781-1.533-0.992-2.195 0.061-0.045 0.105-0.105 0.15-0.15l1.895 0.977 0.09-2.39-1.969 0.632c-0.016-0.031-0.031-0.061-0.045-0.075l0.766-2.181-2.33-0.074 0.707 2.148c-0.061 0.031-0.105 0.076-0.15 0.137l-1.896-0.57z m11.896 9.109c0.16 0.883 0.188 1.284-0.015 1.859-0.285-0.286-0.54-0.807-0.749-1.594l-0.872 2.79c0.52-0.346 0.915-0.565 1.364-0.571-0.815 1.713-1.819 2.146-2.461 2.021-0.787-0.158-1.15-0.867-1.012-1.466 0.175-0.842 1.052-1.052 1.448-0.067 0.792-1.566-0.52-2.078-1.368-1.624 1.313-1.28 1.468-2.426 0.426-3.836-1.464 1.106-1.49 2.21-0.851 3.772-0.842-0.985-2.18-0.466-1.713 1.113 0.627-0.949 1.432-0.346 1.298 0.565-0.109 0.796-1.163 1.413-2.461 1.292-1.864-0.165-1.954-1.457-1.983-2.525 0.451-0.074 1.277 0.361 1.983 1.354l0.286-2.962c-0.767 0.782-1.474 0.946-2.24 0.962 0.271-0.781 1.459-2.09 1.459-2.09l-3.729-0.045s1.188 1.323 1.443 2.119c-0.768-0.014-1.459-0.164-2.225-0.961l0.255 2.961c0.706-0.991 1.534-1.412 1.984-1.338-0.045 1.053-0.15 2.346-2.015 2.511-1.293 0.105-2.345-0.526-2.449-1.323-0.121-0.901 0.691-1.503 1.307-0.541 0.481-1.578-0.856-2.104-1.699-1.127 0.662-1.564 0.647-2.676-0.811-3.789-1.053 1.398-0.902 2.541 0.405 3.85-0.842-0.467-2.165 0.029-1.383 1.607 0.405-0.992 1.278-0.766 1.458 0.076 0.12 0.601-0.24 1.308-1.021 1.457-0.646 0.121-1.639-0.315-2.451-2.044 0.451 0.016 0.842 0.241 1.354 0.587l-0.859-2.783c-0.209 0.781-0.48 1.295-0.766 1.578-0.186-0.57-0.166-0.977 0.014-1.859l-1.803 0.613c0.922 1.264 1.857 3.021 2.59 6.104 2.275-0.376 6.157-0.603 8.509-0.603 2.345 0.015 6.229 0.285 8.494 0.691 0.767-3.081 1.713-4.825 2.646-6.073l-1.773-0.646-0.014-0.015z" /></svg>