<svg xmlns="http://www.w3.org/2000/svg" width="100%" height="100%" viewBox="0 0 30.72 30.72"><path d="M4.8629999999999995 13.038c-0.83 0-1.5 0.67-1.5 1.5v1.63a1.5 1.5 0 1 0 3 0v-1.63c0-0.83-0.67-1.5-1.5-1.5z m20.994 0c-0.83 0-1.5 0.67-1.5 1.5v1.63a1.5 1.5 0 1 0 3 0v-1.63c0-0.83-0.67-1.5-1.5-1.5zM10.04 17.947c-0.83 0-1.5 0.67-1.5 1.5v1.63a1.5 1.5 0 1 0 3 0v-1.62c0-0.83-0.67-1.5-1.5-1.5z m0-9.817c-0.83 0-1.5 0.67-1.5 1.5v5.357a1.5 1.5 0 0 0 3 0V9.617999999999999c0-0.83-0.67-1.5-1.5-1.5z m10.638 0c-0.83 0-1.5 0.67-1.5 1.5v1.64a1.5 1.5 0 0 0 3 0V9.629999999999999c0-0.83-0.67-1.5-1.5-1.5zM15.36 3.3599999999999994c-0.83 0-1.5 0.67-1.5 1.5v1.63a1.5 1.5 0 1 0 3 0V4.859999999999999c0-0.83-0.67-1.499-1.5-1.499z m0 19.355c-0.83 0-1.5 0.67-1.5 1.5v1.64a1.5 1.5 0 1 0 3 0.01v-1.64c0-0.82-0.67-1.5-1.5-1.5z m5.319-8.457c-0.83 0-1.5 0.68-1.5 1.5v5.328a1.5 1.5 0 0 0 3 0v-5.329c0-0.83-0.67-1.5-1.5-1.5zM15.36 9.488c-0.83 0-1.5 0.68-1.5 1.5v8.728a1.5 1.5 0 0 0 3 0V10.998c0-0.83-0.67-1.5-1.5-1.5z" /></svg>