<svg xmlns="http://www.w3.org/2000/svg" width="100%" height="100%" viewBox="0 0 30.72 30.72"><path d="M15.36 27.36C8.808 27.36 3.4779999999999993 21.977 3.4779999999999993 15.36S8.808 3.3599999999999994 15.36 3.3599999999999994c6.552 0 11.882 5.383 11.882 12S21.912 27.36 15.36 27.36zM15.36 4.020999999999999C9.172999999999998 4.020999999999999 4.138999999999999 9.108 4.138999999999999 15.36S9.172999999999998 26.698999999999998 15.36 26.698999999999998c6.187 0 11.221-5.086 11.221-11.339S21.547 4.020999999999999 15.36 4.020999999999999zM11.389999999999999 23.557c0 0 0.978 0.069 2.236-0.042 0.51-0.045 2.444-0.235 3.891-0.552 0 0 1.764-0.377 2.707-0.725 0.987-0.364 1.524-0.673 1.766-1.11-0.011-0.09 0.074-0.408-0.381-0.599-1.164-0.488-2.514-0.4-5.185-0.457-2.962-0.102-3.948-0.598-4.472-0.997-0.503-0.405-0.25-1.526 1.907-2.513 1.086-0.526 5.345-1.496 5.345-1.496-1.434-0.709-4.109-1.955-4.659-2.224-0.482-0.236-1.254-0.591-1.421-1.021-0.19-0.413 0.448-0.768 0.804-0.87 1.147-0.331 2.766-0.536 4.24-0.56 0.741-0.012 0.861-0.059 0.861-0.059 1.022-0.17 1.695-0.869 1.414-1.976-0.252-1.13-1.579-1.795-2.84-1.565-1.188 0.217-4.05 1.048-4.05 1.048 3.539-0.031 4.131 0.028 4.395 0.398 0.156 0.218-0.071 0.518-1.015 0.672-1.027 0.168-3.163 0.37-3.163 0.37-2.049 0.122-3.492 0.13-3.925 1.046C9.562 10.924 10.146999999999998 11.453999999999999 10.402999999999999 11.785c1.082 1.204 2.646 1.853 3.652 2.331 0.379 0.18 1.49 0.52 1.49 0.52-3.265-0.18-5.619 0.823-7.001 1.977-1.562 1.445-0.871 3.168 2.33 4.228 1.891 0.626 2.828 0.921 5.648 0.667 1.661-0.09 1.923-0.036 1.939 0.1 0.023 0.192-1.845 0.669-2.355 0.816C14.808 22.798 11.407 23.553 11.389999999999999 23.557z" /></svg>