<svg xmlns="http://www.w3.org/2000/svg" width="100%" height="100%" viewBox="0 0 30.72 30.72"><path d="M8.431999999999999 17.290999999999997a0.62 0.62 0 0 0-0.52 0.338c-0.114 0.211-0.388 0.242-0.516 0.201-0.21-0.07-0.48-0.119-0.744 0.068-0.263 0.187-0.546 0.045-0.495-0.297 0.05-0.34 0.172-0.645 0.5-0.83 0.713-0.41 0.216-0.695 0.607-1.108 0.394-0.412 0.307-0.537 0.293-1.1-1.326-0.2-2.077-0.58-2.915-1.63C3.8019999999999996 11.888 3.4769999999999994 11.024 3.3899999999999992 9.709999999999999 3.3029999999999995 8.393 3.3799999999999994 7.539999999999999 3.9479999999999995 6.449999999999999 4.515999999999999 5.359999999999999 5.116 4.834999999999999 6.148 4.289999999999999 7.185 3.7429999999999994 8.2 3.6139999999999994 9.14 3.6309999999999993c0.938 0.014 1.563 0.082 2.093 0.386 0.53 0.303 1.016 0.684 1.324 0.685 0.24 0.015 0.477-0.053 0.673-0.192 0.04 1.02-0.878 1.108-1.698 1.13-0.82 0.02-1.324-0.317-2.08-0.192-0.754 0.128-1.992 0.47-2.595 1.52-0.603 1.05-0.624 1.42-0.573 2.3 0.05 0.879 0.806 1.535 1.234 1.543 0.428 0.007 0.523-0.117 0.898-0.36 0.374-0.246 2.284-2.61 2.934-3.14 0.653-0.53 1.296-0.696 1.99-0.705 0.695-0.008 0.87 0.015 1.433 0.246 0.56 0.229 0.903 0.652 1.355 0.91 0.23-0.135 0.375-0.34 0.584-0.495 0.76-0.552 1.152-0.702 2.053-0.615 0.518 0.052 1.17 0.347 1.56 0.686 0.693 0.604 1.265 1.44 1.727 2.079 0.36 0.497 0.785 1.09 1.392 1.277 0.66 0.2 1.157-0.652 1.23-1.13 0.043-0.27 0.097-0.505 0.097-0.8 0-0.297-0.03-0.655-0.115-0.965a3.453 3.453 0 0 0-0.392-0.87c-0.258-0.415-0.68-0.85-1.116-1.071-0.246-0.125-0.826-0.353-1.19-0.36-0.449-0.01-0.79 0.14-1.202 0.168-0.5 0.034-1.396 0.146-1.786-0.24-0.25-0.246-0.283-0.41-0.324-0.73a0.76 0.76 0 0 0 0.4 0.162c0.314 0.026 0.606-0.23 0.86-0.378 0.21-0.123 0.504-0.34 0.778-0.45 0.704-0.285 1.567-0.278 2.31-0.2 0.594 0.06 1.367 0.324 1.89 0.62 0.525 0.297 1.03 0.798 1.4 1.269 0.465 0.594 0.72 1.104 0.888 1.844 0.216 0.945 0.277 2.365 0.015 3.299-0.205 0.734-0.887 1.86-1.467 2.414-0.573 0.547-1.235 0.81-1.986 0.955 0.03 0.149 0.033 0.29 0.071 0.416 0.056 0.178 0.163 0.375 0.38 0.313 0.086-0.025 0.133-0.047 0.246 0.053 0.115 0.1 0.056 0.484-0.266 0.66-0.164 0.085-0.334 0.103-0.595 0.11a5.61 5.61 0 0 1-0.953-0.046c-0.283-0.047-0.45-0.272-0.765-0.308-0.484-0.055-0.854-0.404-1.244-0.653-0.162-0.104-0.218-0.104-0.31-0.158 0.05 0.154 0.117 0.314 0.15 0.465 0.034 0.145 0.02 0.284 0.037 0.403 0.02 0.12 0.052 0.21 0.07 0.308 0.077 0.068 0.103 0.173 0.233 0.207 0.13 0.035 0.334-0.018 0.468-0.037 0.135-0.018 0.224-0.09 0.327-0.07 0.105 0.02 0.204 0.096 0.292 0.166s0.164 0.08 0.234 0.254c0.07 0.178 0.135 0.537 0.146 0.777 0.01 0.24-0.018 0.455-0.089 0.648-0.07 0.19-0.135 0.273-0.327 0.463s-0.505 0.465-0.818 0.66c0.058 0.084 0.083 0.162 0.173 0.254 0.09 0.094 0.277 0.197 0.36 0.295 0.083 0.098 0.126 0.168 0.126 0.277a0.587 0.587 0 0 1-0.092 0.373c-0.223 0.3-0.483 0.352-0.803 0.492 0.054 0.334 0.098 0.572 0.02 0.906-0.03 0.137-0.102 0.445-0.27 0.525-0.17 0.08-0.492 0.041-0.698 0.074-0.205 0.031-0.32 0.063-0.48 0.094-0.097 0.141-0.24 0.297-0.29 0.422-0.05 0.127-0.034 0.172 0.006 0.3 0.042 0.128 0.185 0.315 0.225 0.468a0.93 0.93 0 0 1 0.01 0.463 0.834 0.834 0 0 1-0.23 0.396c-0.128 0.135-0.38 0.24-0.508 0.346-0.125 0.11-0.252 0.123-0.217 0.303 0.047 0.248 0.41 0.646 0.67 0.744a0.793 0.793 0 0 0 0.557-0.04c-0.014 0.208-0.195 0.353-0.315 0.493 0.322-0.094 0.636-0.27 0.854-0.504-0.067 0.203-0.3 0.529-0.645 0.816-0.345 0.287-0.343 0.229-0.517 0.344 0.314 0.06 0.606 0.045 0.85 0.002a1.69 1.69 0 0 1-0.64 0.207 1.876 1.876 0 0 1-0.73-0.055c-0.26-0.063-0.499-0.301-0.814-0.465 0.03 0.119 0.053 0.26 0.185 0.38 0.136 0.12 0.335 0.183 0.55 0.284-0.273-0.03-0.559-0.037-0.825-0.096a2.083 2.083 0 0 1-0.478-0.164c-0.144-0.07-0.255-0.176-0.384-0.264 0.06 0.117 0.08 0.256 0.184 0.352 0.104 0.098 0.275 0.135 0.412 0.199-0.143-0.004-0.28 0.029-0.43-0.01a1.166 1.166 0 0 1-0.443-0.21 3.165 3.165 0 0 1-0.445-0.395c-0.132-0.145-0.296-0.332-0.345-0.463-0.048-0.133 0.03-0.225 0.044-0.338-0.09 0.06-0.2 0.094-0.272 0.18-0.07 0.088-0.131 0.166-0.1 0.318 0.03 0.15 0.171 0.338 0.27 0.506-0.295-0.242-0.46-0.336-0.53-0.625-0.064-0.273 0.104-0.52 0.233-0.725 0.064-0.104 0.161-0.2 0.22-0.3-0.134-0.128-0.284-0.24-0.4-0.388-0.112-0.15-0.161-0.352-0.276-0.492-0.117-0.143-0.274-0.232-0.41-0.348 0.119 0.256 0.317 0.572 0.359 0.77 0.044 0.2-0.048 0.323-0.12 0.43-0.07 0.108-0.183 0.134-0.291 0.198-0.11 0.068-0.277 0.016-0.342 0.113s-0.083 0.246-0.021 0.344l0.256 0.398a1.173 1.173 0 0 1-0.327-0.28c-0.074-0.097-0.186-0.189-0.2-0.317-0.015-0.13-0.022-0.246 0.064-0.363 0.084-0.117 0.318-0.156 0.422-0.246 0.105-0.09 0.162-0.148 0.156-0.264-0.006-0.117-0.12-0.2-0.217-0.273-0.3-0.225-0.68-0.43-0.934-0.699a0.931 0.931 0 0 1-0.24-0.379c-0.03-0.105 0.002-0.188 0.072-0.314 0.072-0.13 0.315-0.305 0.346-0.443 0.029-0.14-0.095-0.172-0.205-0.22-0.111-0.05-0.322 0.024-0.425-0.062-0.103-0.086 0.03-0.266-0.086-0.365-0.116-0.099-0.38-0.045-0.52-0.15a0.724 0.724 0 0 1-0.24-0.395 0.828 0.828 0 0 1-0.02-0.436c0.032-0.113 0.128-0.133 0.187-0.19 0.06-0.058 0.108-0.105 0.03-0.192-0.074-0.088-0.33 0.004-0.476-0.105-0.15-0.113-0.06-0.38-0.163-0.494-0.104-0.109-0.287-0.066-0.386-0.104-0.097-0.035-0.135 0.09-0.194-0.109-0.06-0.199-0.063-0.797-0.143-1.02-0.08-0.223-0.238-0.016-0.31-0.236-0.076-0.22-0.005-0.574-0.038-0.908l-0.15-0.91c-0.52 0.352-0.867 0.463-1.428 0.561-0.047 1.373-0.176 2.182 0.29 3.705 0.466 1.521 1.409 2.42 2.68 3.707-1.68-1.256-2.478-2.279-2.98-3.588-0.501-1.31-0.406-2.407-0.356-3.666z m8.918-0.553a0.837 0.837 0 0 1 0.376 0.098c0.09 0.061 0.188 0.107 0.27 0.19 0.206 0.21 0.36 0.462 0.428 0.751 0.044 0.186 0.05 0.422 0.064 0.64-0.062-0.2-0.103-0.409-0.192-0.589-0.14-0.285-0.376-0.56-0.672-0.688a0.35 0.35 0 0 0-0.214-0.027c0.023 0.041 0.063 0.076 0.065 0.133 0 0.06-0.012 0.174-0.112 0.223-0.16 0.078-0.34 0.021-0.464-0.086a0.414 0.414 0 0 1-0.102-0.459c0.08-0.194 0.375-0.194 0.553-0.186z m-1.62-0.272c0.016-0.332 0.134-0.609 0.432-0.77 0.187-0.107 0.392-0.18 0.604-0.215 0.207-0.026 0.713-0.008 1.018 0.13 0.232 0.105 0.39 0.271 0.597 0.394 0.205 0.121 0.35 0.201 0.546 0.338 0.3 0.211 0.475 0.44 0.682 0.576 0.1 0.066 0.24 0.057 0.374 0.098-0.104 0.03-0.24 0.064-0.35 0.03a1.565 1.565 0 0 1-0.438-0.265 2.946 2.946 0 0 0-0.497-0.359c-0.124-0.072-0.33-0.158-0.466-0.246-0.135-0.09-0.37-0.283-0.502-0.349a1.618 1.618 0 0 0-0.65-0.125c-0.256 0.008-0.626 0.05-0.822 0.228-0.197 0.18-0.27 0.336-0.227 0.566 0.073-0.084 0.123-0.19 0.195-0.254 0.154-0.133 0.33-0.139 0.52-0.113 0.216 0.027 0.323 0.15 0.394 0.354-0.047-0.033-0.135-0.109-0.204-0.135a0.495 0.495 0 0 0-0.438 0.043c-0.18 0.098-0.13 0.24-0.154 0.396-0.013 0.076-0.04 0.133-0.06 0.2a0.39 0.39 0 0 1-0.18-0.099c0 0.076-0.01 0.141 0.005 0.223 0.014 0.084 0.055 0.184 0.084 0.273-0.126-0.125-0.256-0.24-0.335-0.402a1.058 1.058 0 0 1-0.13-0.517z m0.218-2.4c0.09-0.134 0.12-0.343 0.174-0.515-0.02 0.217 0.02 0.453-0.083 0.609-0.105 0.158-0.292 0.129-0.443 0.176 0.118-0.09 0.258-0.131 0.352-0.268z m-2.206 3.203c0.119-0.096 0.438-0.02 0.676-0.002l-0.514 0.133c-0.017 0.06-0.01 0.123-0.048 0.174-0.04 0.051-0.114 0.068-0.171 0.104 0.006-0.155-0.062-0.313 0.057-0.409z m1.682-6.65c0.143 0.075 0.32 0.178 0.45 0.18 0.123 0.004 0.157-0.08 0.231-0.131 0.115 0.38 0.25 0.797 0.448 1.142 0.083 0.146 0.136 0.079 0.2 0.224 0.063 0.145 0.09 0.439 0.15 0.626s0.137 0.32 0.207 0.483c-0.174-0.25-0.4-0.566-0.5-0.773-0.098-0.207-0.035-0.225-0.115-0.421-0.078-0.198-0.238-0.504-0.357-0.756-0.086 0.01-0.19 0.026-0.255 0.006-0.065-0.021-0.054-0.091-0.112-0.134-0.06-0.045-0.158-0.027-0.24-0.1-0.08-0.07-0.1-0.217-0.107-0.346z m-0.766 1.875c0.135-0.012 0.299 0.023 0.425 0.017 0.126-0.006 0.216-0.04 0.324-0.06-0.02-0.19-0.002-0.537-0.175-0.664-0.115-0.08-0.578-0.02-0.701 0.006-0.28 0.06-0.604 0.227-0.873 0.33 0.258-0.18 0.48-0.346 0.79-0.44 0.189-0.054 0.622-0.128 0.814-0.075 0.089 0.023 0.104 0.06 0.158 0.135 0.183 0.255 0.183 0.475 0.23 0.773 0.046 0.07 0.095 0.119 0.134 0.194a0.91 0.91 0 0 1 0.068 0.289c-0.048-0.07-0.018-0.155-0.15-0.206-0.134-0.053-0.335-0.005-0.515 0.014 0.13 0.096 0.195 0.186 0.2 0.384 0.007 0.233-0.19 0.4-0.397 0.417-0.285 0.022-0.434-0.041-0.55-0.285-0.05-0.107-0.015-0.236-0.017-0.341-0.346 0.024-0.34 0.013-0.592 0.222 0.139 0.2 0.224 0.315 0.45 0.436 0.126 0.066 0.27 0.133 0.426 0.16 0.157 0.027 0.415 0.053 0.58 0.027a0.629 0.629 0 0 0 0.38-0.187c0.122-0.112 0.134-0.274 0.181-0.403a1.2 1.2 0 0 1-0.07 0.37c-0.14 0.27-0.38 0.353-0.667 0.353-0.275 0-0.616-0.063-0.873-0.17-0.205-0.084-0.545-0.324-0.625-0.533-0.056-0.143-0.012-0.318-0.018-0.477 0.285-0.19 0.354-0.143 0.689-0.198 0.14-0.025 0.239-0.076 0.374-0.088z m-1.655-1.28c0.007-0.113 0.02-0.11 0.03-0.166-0.26-0.07-0.36 0.099-0.514 0.41-0.057 0.116 0 0.187-0.062 0.264-0.06 0.076-0.16 0.065-0.257 0.139-0.098 0.074-0.196 0.215-0.29 0.292-0.188 0.156-0.446 0.25-0.666 0.358 0.15-0.111 0.443-0.28 0.538-0.44 0.05-0.085 0.042-0.246 0.12-0.324 0.078-0.075 0.105-0.13 0.205-0.15 0.1-0.018 0.06-0.135 0.093-0.228 0.032-0.091 0.097-0.158 0.165-0.251s0.156-0.23 0.29-0.282c0.136-0.05 0.348 0.005 0.45-0.023 0.103-0.03 0.044-0.105 0.119-0.15s0.219-0.023 0.32-0.072c0.176-0.084 0.26-0.227 0.367-0.377 0.015 0.326 0.01 0.56-0.107 0.869-0.131 0.346-0.266 0.55-0.641 0.763-0.128 0.072-0.257 0.098-0.365 0.137 0.062-0.086 0.152-0.123 0.188-0.256 0.034-0.136 0.009-0.4 0.017-0.512zM19.06 12.806999999999999c-0.177 0.014-0.22-0.012-0.363 0.09l0.232 0.36c-0.006-0.236 0.018-0.284 0.133-0.45z m-0.465-0.172c0.246-0.104 0.46-0.19 0.73-0.207 0.107-0.008 0.274 0.009 0.383 0.016 0.094-0.137 0.21-0.244 0.256-0.4 0.028-0.104 0.015-0.584-0.038-0.71-0.146-0.36-0.29-0.376-0.495-0.584-0.146-0.15-0.152-0.38-0.197-0.638-0.015-0.094-0.062-0.213-0.084-0.31a3.9 3.9 0 0 0-0.857-0.045c0.148-0.143 0.29-0.271 0.334-0.486a0.959 0.959 0 0 0-0.113-0.667c-0.12-0.191-0.315-0.36-0.494-0.517-0.178-0.155-0.436-0.284-0.604-0.412 0.22-0.077 0.444-0.194 0.66-0.235 0.56-0.108 1.043 0.057 1.584 0.384 0.315 0.19 0.573 0.37 0.902 0.716 0.33 0.344 0.735 0.975 1.053 1.348 0.317 0.375 0.575 0.67 0.853 0.893 0.276 0.226 0.528 0.289 0.792 0.43l0.412 0.439 0.335-0.413 0.535 0.06 0.111-0.601 0.49-0.136-0.079-0.811 0.354-0.252-0.267-0.504 0.27-0.553-0.352-0.63 0.135-0.607-0.407-0.348-0.053-0.646-0.569-0.217-0.227-0.56-0.64-0.008-0.315-0.417-0.43 0.03-0.48-0.053-0.27-0.2-0.395 0.26-0.477-0.247-0.947 0.36 0.618-0.538 0.64-0.102 0.49-0.126 0.662 0.218 0.582-0.147 0.563 0.33 0.596-0.03 0.293 0.525 0.591 0.067 0.32 0.58 0.372 0.206 0.1 0.746 0.333 0.315-0.148 0.653 0.39 0.494-0.363 0.529 0.39 0.332-0.499 0.443 0.506 0.529-0.613 0.2 0.398 0.566-0.5 0.088 0.327 0.622-0.563-0.008 0.285 0.466-0.62-0.074 0.147 0.672-0.468-0.411-0.159 0.814-0.322-0.585-0.175 0.73-0.397-0.537 0.011 0.765-0.439-0.688c0.091 0.39 0.073 0.817 0.33 1.185 0.793-0.107 1.311-0.307 1.92-0.892 0.552-0.533 1.214-1.644 1.394-2.35 0.204-0.802 0.21-2.281 0.01-3.101-0.195-0.787-0.447-1.163-0.897-1.807-0.43-0.455-0.853-0.94-1.399-1.264-0.8-0.48-1.828-0.608-2.74-0.596a3.22 3.22 0 0 0-1.147 0.215c-0.527 0.19-0.95 0.61-1.487 0.818-0.175 0.067-0.315 0.068-0.454-0.004 0.135 0.27 0.28 0.39 0.62 0.49 0.243 0.07 0.824 0.025 1.226-0.012 0.43-0.04 0.654-0.167 1.238-0.16 0.57 0.01 1.024 0.225 1.272 0.368 0.511 0.292 0.877 0.614 1.196 1.13 0.175 0.28 0.298 0.6 0.383 0.924 0.086 0.324 0.124 0.688 0.13 1.006 0.006 0.318-0.019 0.602-0.097 0.888-0.182 0.669-0.583 1.35-1.407 1.245-0.504-0.063-1.263-1.01-1.518-1.357-0.514-0.701-1.042-1.477-1.687-2.06a2.587 2.587 0 0 0-1.463-0.65c-0.992-0.09-1.287 0.099-2.033 0.716 0.15 0.047 0.3 0.074 0.455 0.145 0.346 0.156 0.662 0.357 0.938 0.615 0.29 0.27 0.42 0.442 0.43 0.829 0.007 0.259-0.204 0.465-0.4 0.649-0.117 0.114-0.274 0.218-0.37 0.307-0.128 0.117-0.286 0.246-0.125 0.432 0.06 0.07 0.165 0.123 0.252 0.189 0.14 0.103 0.075 0.488-0.108 0.592a0.61 0.61 0 0 1-0.713-0.061c0.246-0.035 0.402-0.068 0.395-0.27-0.002-0.115-0.15-0.213-0.297-0.28-0.35-0.16-0.614-0.134-0.963-0.386-0.353-0.254-0.36-0.393-0.455-0.79-0.17 0.017-0.327 0.02-0.554 0.097-0.226 0.074-0.478 0.254-0.684 0.299-0.52 0.11-0.623 0.078-0.907 0.006-0.501-0.132-1.15 0.09-1.8 0.299-0.107 0.033-0.543 0-0.836 0.102a5.518 5.518 0 0 0-1.457 0.853c-0.556 0.469-1.286 1.869-1.698 3.477-0.045 0.49 0.095 0.817-0.213 1.055-0.308 0.24-0.3 0.851-0.405 1.023-0.103 0.17-0.225 0.094-0.45 0.336-0.223 0.24-0.337 0.201-0.332 0.654 0.195-0.125 0.477-0.273 0.725-0.285 0.22-0.006 0.222 0.283 0.785-0.273 0.3-0.299 0.88-0.309 1.283-0.439 0.402-0.13 1.125-0.402 1.85-1.21 0.725-0.81 1.072-1.664 1.213-2.896 0.02 0.215 0.06 0.463-0.033 1.065-0.095 0.604-0.296 1.28 0.13 2.092l0.264 0.504c-0.157-0.215-0.465-0.566-0.56-0.815l-0.21-0.577c-0.48 0.752-0.59 0.885-1.256 1.423-0.026 0.334-0.033 0.682 0.076 1.002 0.108 0.32-0.064 0.688 0.02 0.9 0.082 0.21 0.273 0.09 0.336 0.303s-0.032 0.635 0.064 0.842c0.1 0.207 0.337 0.082 0.453 0.15 0.115 0.066 0.154 0.158 0.215 0.246 0.063 0.088-0.023 0.297 0.103 0.365 0.126 0.066 0.32 0.01 0.453 0.074 0.13 0.066 0.15 0.223 0.12 0.361-0.033 0.141-0.173 0.205-0.234 0.348a0.365 0.365 0 0 0 0.02 0.373c0.074 0.131 0.236 0.201 0.4 0.27 0.162 0.064 0.39 0.027 0.559 0.12 0.169 0.09 0.32 0.272 0.408 0.405a0.542 0.542 0 0 1 0.109 0.363 1.038 1.038 0 0 1-0.137 0.434c-0.074 0.135-0.236 0.3 0.02 0.555 0.254 0.254 0.246 0.145 0.393 0.313-0.017-0.289-0.135-0.52-0.05-0.738 0.089-0.217 0.35-0.256 0.485-0.352 0.139-0.1 0.219-0.232 0.326-0.348 0 0.148 0.015 0.31-0.002 0.42-0.033 0.227-0.102 0.432 0.237 0.467 0.153 0.016 0.299-0.082 0.458-0.14-0.084 0.147-0.23 0.27-0.252 0.45a0.793 0.793 0 0 0 0.13 0.56c0.123 0.18 0.34 0.312 0.498 0.415 0.158 0.105 0.244 0.115 0.365 0.174 0.006 0.176-0.03 0.363-0.01 0.53a0.962 0.962 0 0 0 0.17 0.454c0.098 0.14 0.252 0.22 0.398 0.32-0.08-0.188-0.242-0.365-0.24-0.56 0.002-0.197 0.06-0.335 0.252-0.51 0.19-0.175 0.64-0.325 0.85-0.495a1.03 1.03 0 0 0 0.355-0.436c0.075-0.164 0.055-0.43 0.07-0.576 0.068 0.205 0.078 0.27 0.102 0.486 0.02 0.217-0.127 0.521-0.19 0.68a1.02 1.02 0 0 0 0.51-0.525c0.058 0.035 0.03 0.125 0.05 0.301 0.094-0.092 0.2-0.162 0.293-0.25 0.094-0.088 0.195-0.164 0.243-0.287 0.046-0.12 0.027-0.252-0.007-0.393-0.035-0.143-0.193-0.307-0.28-0.463-0.083-0.152 0.017-0.305 0.01-0.492-0.17-0.029-0.313-0.117-0.51-0.088-0.196 0.03-0.42 0.248-0.622 0.252-0.2 0-0.314-0.188-0.478-0.238-0.165-0.053-0.33-0.045-0.495-0.07 0.21-0.199 1.02-0.295 1.576-0.385a9.794 9.794 0 0 1 1.47-0.133c0.22-0.006 0.506 0.068 0.66 0.025 0.153-0.045 0.12-0.15 0.165-0.264 0.13-0.318 0.066-0.604-0.004-0.924-0.444-0.053-0.908-0.115-1.356-0.082-0.438 0.033-0.956 0.242-1.41 0.256-0.39 0.014-0.975-0.074-1.31-0.28-0.414-0.25-0.732-0.79-0.846-0.966-0.184-0.28-0.415-0.836-0.56-1.088-0.14-0.254-0.171-0.324-0.29-0.43-0.116-0.105-0.276-0.113-0.417-0.17 0.16 0.014 0.336-0.035 0.482 0.047 0.22 0.127 0.465 0.648 0.601 0.877 0.145-0.486 0.11-0.676 0.53-0.95-0.337 0.378-0.347 0.665-0.429 1.11 0.28 0.46 0.67 1.193 1.18 1.396 0.186 0.074 0.502 0.12 0.7 0.145 0.622 0.076 1.22-0.119 1.83-0.27 0.444-0.11 0.896-0.066 1.437-0.035 0.183 0.012 0.616-0.1 0.707-0.283a0.33 0.33 0 0 0-0.024-0.33c-0.07-0.105-0.255-0.158-0.355-0.254-0.1-0.098-0.156-0.21-0.235-0.314a6.51 6.51 0 0 1-1.062 0.115c0.22-0.09 0.433-0.14 0.66-0.23 0.237-0.098 0.463-0.219 0.676-0.359 0.186-0.123 0.303-0.193 0.438-0.334 0.133-0.143 0.304-0.289 0.403-0.463 0.1-0.174 0.114-0.369 0.12-0.584 0.004-0.215-0.005-0.516-0.088-0.69-0.084-0.173-0.243-0.226-0.37-0.265-0.128-0.04-0.217 0.063-0.35 0.076-0.134 0.014-0.258 0.096-0.452 0.006a1.68 1.68 0 0 1-0.617-0.548c-0.196-0.274-0.335-0.722-0.534-1.067-0.343-0.596-0.77-1.15-1.18-1.702a3.392 3.392 0 0 1-0.1-0.508c-0.032-0.322-0.036-0.656 0.064-0.97 0.075-0.24 0.188-0.493 0.438-0.591a0.48 0.48 0 0 1 0.317-0.022c0.09 0.032 0.18 0.135 0.142 0.252-0.04 0.129-0.127 0.134-0.188 0.198a0.693 0.693 0 0 0-0.183 0.33c0.11-0.004 0.262-0.011 0.354 0.013 0.12 0.03 0.23 0.11 0.29 0.279-0.142-0.126-0.212-0.185-0.39-0.188-0.082-0.002-0.18 0.026-0.27 0.04-0.034 0.109-0.054 0.244-0.1 0.33-0.05 0.084-0.142 0.063-0.177 0.16a0.992 0.992 0 0 0-0.02 0.392h0.004z m1.242-0.15c0.056 0.022 0.075 0.028 0.146 0.08 0.07 0.053 0.165 0.105 0.22 0.23a0.878 0.878 0 0 1 0.04 0.4c-0.048-0.015-0.113-0.005-0.163-0.047-0.05-0.043-0.08-0.14-0.143-0.18-0.065-0.043-0.117-0.034-0.188-0.043 0.038 0.096 0.05 0.199 0.036 0.3-0.036 0.204-0.156 0.308-0.352 0.33-0.084 0.013-0.22-0.015-0.292-0.028 0.034 0.075 0.09 0.143 0.126 0.219 0.164-0.023 0.285-0.02 0.375-0.061 0.088-0.041 0.183-0.135 0.296-0.173 0.113-0.04 0.214-0.04 0.338-0.06-0.098 0.085-0.162 0.168-0.26 0.254l0.215 0.623c0.152 0.096 0.294 0.146 0.485 0.263 0.19 0.116 0.42 0.327 0.67 0.44 0.248 0.112 0.395 0.176 0.656 0.224 0.26 0.05 0.467 0.262 0.722 0.295 0.255 0.032 0.735 0.041 0.932 0.021 0.225-0.02 0.516-0.135 0.542-0.38-0.188 0.044-0.475 0.004-0.619-0.35-0.064-0.156-0.034-0.446-0.132-0.63-0.099-0.187-0.236-0.246-0.4-0.475-0.164-0.23-0.43-0.59-0.58-0.895-0.15-0.308-0.188-0.654-0.313-0.93-0.128-0.273-0.319-0.494-0.469-0.707-0.323-0.463-0.584-0.777-1.12-1.011-0.257-0.112-0.55-0.143-0.823-0.213-0.113 0.05-0.268 0.104-0.295 0.237a0.536 0.536 0 0 0 0.12 0.42c0.16 0.166 0.395 0.343 0.487 0.604 0.06 0.168 0.076 0.73 0.025 0.883-0.054 0.16-0.178 0.257-0.282 0.36z m0.052 1.332c-0.05 0.043-0.087 0.087-0.167 0.122-0.08 0.036-0.19 0.045-0.295 0.07 0.148 0.232 0.305 0.467 0.447 0.71 0.143 0.242 0.266 0.51 0.4 0.764-0.006-0.147 0.003-0.301-0.018-0.437-0.02-0.136-0.083-0.254-0.145-0.461-0.06-0.206-0.135-0.484-0.222-0.768z m-4-5.087a3.32 3.32 0 0 0 0.065 0.806c0.058 0.267 0.11 0.404 0.328 0.564 0.396 0.295 0.648 0.245 0.955 0.416 0.145 0.08 0.328 0.217 0.382 0.359 0.053 0.146-0.036 0.3-0.146 0.363 0.192 0.029 0.408-0.19 0.318-0.41-0.045-0.11-0.255-0.16-0.32-0.271a0.41 0.41 0 0 1-0.033-0.335c0.053-0.202 0.454-0.388 0.597-0.546 0.218-0.248 0.3-0.453 0.177-0.77-0.172-0.445-0.842-0.804-1.242-0.98-0.183-0.08-0.287-0.083-0.43-0.128 0.293 0.174 0.602 0.31 0.75 0.69 0.124 0.32 0.016 0.444 0.022 0.72 0.002 0.13 0.172 0.197 0.248 0.277 0.064 0.072 0.06 0.125 0.008 0.223a0.256 0.256 0 0 0-0.11-0.2c-0.113-0.08-0.235-0.062-0.295-0.224-0.09-0.248 0.09-0.484-0.112-0.762-0.15-0.208-0.353-0.441-0.625-0.447a1.073 1.073 0 0 0-0.36 0.058l-0.183-0.22-0.005-0.003c-0.372-0.34-0.626-0.62-1.146-0.852-0.522-0.234-0.78-0.27-1.38-0.256-0.596 0.013-1.19 0.063-1.882 0.66-0.694 0.6-2.48 2.888-2.915 3.177-0.43 0.289-0.527 0.389-1.068 0.389-0.54 0-1.387-0.766-1.42-1.723-0.032-0.956-0.045-1.297 0.62-2.45 0.665-1.151 1.867-1.504 2.762-1.624 0.895-0.12 1.432 0.194 2.092 0.195 0.66 0.002 1.314-0.11 1.508-0.637-0.095 0.056-0.221 0.12-0.577 0.1-0.355-0.018-0.85-0.43-1.402-0.705C10.517 3.9079999999999995 9.899999999999999 3.8749999999999996 9.11 3.8609999999999993c-0.79-0.015-1.777 0.045-2.755 0.574C5.377999999999999 4.959999999999999 4.709999999999999 5.52 4.143 6.555 3.5749999999999993 7.587999999999999 3.4899999999999993 8.43 3.5829999999999993 9.681999999999999 3.6729999999999996 10.93 4.06 11.86 4.802 12.78c0.744 0.914 1.485 1.363 2.823 1.529l0.283-1.242-0.504 0.72 0.014-0.802-0.455 0.565-0.202-0.767-0.367 0.615-0.183-0.855-0.535 0.432 0.17-0.705-0.707 0.078 0.324-0.491-0.644 0.006 0.375-0.653-0.57-0.091 0.454-0.596-0.698-0.206 0.578-0.555-0.573-0.467 0.448-0.348-0.42-0.56 0.448-0.52-0.167-0.684 0.379-0.33 0.113-0.785 0.426-0.214 0.365-0.61 0.677-0.073 0.334-0.553 0.68 0.035 0.642-0.348 0.666 0.154 0.756-0.228 0.562 0.13 0.73 0.108 0.706 0.564-1.08-0.377-0.545 0.26-0.45-0.273-0.31 0.21-0.55 0.056-0.492-0.03-0.358 0.436-0.732 0.007-0.26 0.59-0.65 0.227-0.06 0.678-0.468 0.366 0.155 0.637-0.401 0.664 0.31 0.58-0.305 0.53 0.403 0.264-0.09 0.853 0.563 0.14 0.125 0.634 0.613-0.063 0.38 0.434 0.47-0.461c0.859-0.428 1.213-0.668 1.883-1.391 0.76-0.823 1.196-1.584 2.208-2.147 0.73-0.405 1.32-0.551 2.139-0.408 0.766 0.132 1.024 0.593 1.59 1.077 0.06-0.11 0.07-0.14 0.168-0.218-0.03 0.142-0.08 0.287-0.093 0.423z" /></svg>