<svg xmlns="http://www.w3.org/2000/svg" width="100%" height="100%" viewBox="0 0 30.72 30.72"><path d="M12.506 5.752999999999999c-0.618 0-1.794 1.61-1.794 1.61s-0.453 0-1.803 0.07c-1.35 0.07-2.553 0.67-4.159 1.934C3.1439999999999992 10.629999999999999 3.3709999999999996 11.897 3.3709999999999996 11.897s1.498 0.507 1.498 0.781c0 0.275-1.311 0.6-1.311 0.6 0.845 1.081 3.467 2.09 4.13 2.09h0.524c-1.086 0.214-2.136 0.804-3.462 1.847-1.606 1.264-1.379 2.53-1.379 2.53s1.498 0.507 1.498 0.781c0 0.275-1.311 0.6-1.311 0.6 0.845 1.081 3.467 2.09 4.13 2.09 0.635 0 1.079 0.018 1.882-0.132 0.06 0.134 0.686 1.461 1.965 1.736 1.347 0.29 2.092 0.062 2.092 0.062s0.067-0.595-0.24-1.189c1.17 0.115 2.495 0.145 3.792-0.052 3.603-0.547 5.382-1.413 5.963-1.528 0.582-0.115 3.904 1.476 4.106 1.104 0.203-0.373-0.73-1.188-0.295-2.288 0.434-1.1-0.534-1.827 0.003-2.705 0.537-0.879 0.43-2.219 0.292-2.29-0.295-0.15-3.423 1.407-4.106 1.28-1.686-0.311-1.377-0.513-3.647-1.027-0.907-0.206-0.781-0.084-0.982-0.236-0.134-0.102-0.265-0.116-0.455-0.306 3.015-0.543 4.552-1.275 5.084-1.38 0.582-0.116 3.904 1.476 4.106 1.103 0.202-0.372-0.73-1.187-0.295-2.288 0.434-1.1-0.534-1.826 0.003-2.705 0.537-0.878 0.43-2.218 0.292-2.289-0.295-0.151-3.423 1.407-4.106 1.28-1.686-0.312-1.377-0.513-3.647-1.027-0.907-0.206-0.781-0.084-0.982-0.236-0.2-0.152-0.39-0.106-0.782-0.74-0.392-0.635-4.916-1.61-5.225-1.61zM11.45 8.518l0.04 0.002 0.111 0.006 0.397 0.02a286.477 286.477 0 0 1 1.59 0.088c0.348 0.02 0.64 0.038 0.865 0.054 0.861 0.06 2.172 0.26 3.177 0.464 1.556 0.315 2.82 0.778 4.81 1.673l0.677 0.305c0.131 0.059 0.195 0.228 0.143 0.377-0.052 0.15-0.201 0.222-0.333 0.163a663.41 663.41 0 0 0-0.675-0.305c-1.962-0.881-3.198-1.335-4.711-1.64-0.988-0.2-2.28-0.397-3.12-0.457a76.718 76.718 0 0 0-0.859-0.054l-0.384-0.022c-0.383-0.021-0.793-0.044-1.203-0.065l-0.126-0.006a6.79 6.79 0 0 1 0.339 1.187c0.02 0.11 0.035 0.216 0.045 0.32 0.034 0.336-0.028 0.816-0.162 1.42-0.044 0.2-0.096 0.409-0.153 0.624a21.303 21.303 0 0 1-0.29 0.995l-0.02 0.064-0.008 0.023c-0.05 0.15-0.198 0.226-0.33 0.17-0.133-0.057-0.2-0.225-0.15-0.375l0.007-0.02a11.841 11.841 0 0 0 0.089-0.283c0.072-0.236 0.144-0.487 0.212-0.741 0.055-0.208 0.104-0.408 0.146-0.599 0.12-0.54 0.175-0.966 0.15-1.213a3.436 3.436 0 0 0-0.038-0.269 5.829 5.829 0 0 0-0.21-0.796 8.1 8.1 0 0 0-0.264-0.685c-0.091-0.199 0.041-0.435 0.238-0.425z m-1.653 0.17c0.066 0.002 0.13 0.033 0.179 0.091a4.758 4.758 0 0 1 0.417 0.627c0.224 0.404 0.374 0.816 0.415 1.221 0.023 0.231 0.008 0.49-0.038 0.771-0.044 0.27-0.115 0.555-0.206 0.845a8.216 8.216 0 0 1-0.25 0.688c-0.063 0.144-0.216 0.203-0.343 0.132-0.127-0.07-0.18-0.245-0.117-0.389l0.018-0.044a7.595 7.595 0 0 0 0.21-0.582c0.082-0.263 0.146-0.518 0.185-0.755a2.42 2.42 0 0 0 0.032-0.6c-0.03-0.306-0.153-0.64-0.34-0.978a4.176 4.176 0 0 0-0.356-0.538 0.319 0.319 0 0 1 0.01-0.41 0.239 0.239 0 0 1 0.184-0.08z m-3.042 0.97c0.62 0 1.122 0.57 1.122 1.272 0 0.704-0.503 1.273-1.122 1.273-0.555 0-1.016-0.457-1.106-1.058 0.077 0.452 0.428 0.793 0.849 0.793 0.477 0 0.864-0.44 0.864-0.981 0-0.542-0.387-0.981-0.864-0.981-0.474 0-0.86 0.432-0.865 0.968V10.93c0-0.703 0.502-1.273 1.122-1.273zM6.239999999999999 10.982a0.265 0.234 90 0 1 0.233 0.266 0.265 0.234 90 0 1-0.233 0.265 0.265 0.234 90 0 1-0.234-0.265 0.265 0.234 90 0 1 0.234-0.266z m3.329 4.253l0.006 0.013-0.115 0.005 0.109-0.018z m1.88 1.13l0.04 0.003 0.111 0.005 0.397 0.02a286.463 286.463 0 0 1 1.59 0.088c0.348 0.02 0.64 0.039 0.865 0.055 0.861 0.06 2.172 0.26 3.177 0.463 1.556 0.315 2.82 0.778 4.81 1.673l0.677 0.305c0.131 0.06 0.195 0.228 0.143 0.377-0.052 0.15-0.201 0.222-0.333 0.163a663.41 663.41 0 0 0-0.675-0.305c-1.962-0.881-3.198-1.334-4.711-1.64-0.988-0.2-2.28-0.397-3.12-0.456a76.718 76.718 0 0 0-1.243-0.077l-1.203-0.065-0.126-0.006a6.79 6.79 0 0 1 0.339 1.187c0.02 0.11 0.035 0.217 0.045 0.32 0.034 0.336-0.028 0.817-0.162 1.42-0.044 0.2-0.096 0.41-0.153 0.625a21.303 21.303 0 0 1-0.31 1.058l-0.008 0.023c-0.05 0.15-0.198 0.226-0.33 0.17-0.133-0.057-0.2-0.224-0.15-0.375l0.007-0.02a11.841 11.841 0 0 0 0.089-0.283c0.072-0.236 0.144-0.487 0.212-0.74 0.055-0.208 0.104-0.409 0.146-0.6 0.12-0.539 0.175-0.966 0.15-1.213a3.436 3.436 0 0 0-0.038-0.268 5.829 5.829 0 0 0-0.21-0.796 8.1 8.1 0 0 0-0.264-0.686c-0.091-0.198 0.041-0.434 0.238-0.424z m-1.653 0.17c0.066 0.002 0.13 0.033 0.179 0.091a4.758 4.758 0 0 1 0.417 0.627c0.224 0.405 0.374 0.816 0.415 1.222 0.023 0.23 0.008 0.489-0.038 0.77-0.044 0.27-0.115 0.555-0.206 0.845a8.215 8.215 0 0 1-0.25 0.688c-0.063 0.144-0.216 0.204-0.343 0.133-0.127-0.071-0.18-0.246-0.117-0.39a6.083 6.083 0 0 0 0.07-0.173 7.59 7.59 0 0 0 0.158-0.453c0.082-0.262 0.146-0.518 0.185-0.755a2.42 2.42 0 0 0 0.032-0.6c-0.03-0.305-0.153-0.64-0.34-0.978a4.176 4.176 0 0 0-0.356-0.537 0.319 0.319 0 0 1 0.01-0.411 0.239 0.239 0 0 1 0.184-0.079z m-3.042 0.97c0.62 0 1.122 0.57 1.122 1.273s-0.503 1.273-1.122 1.273c-0.555 0-1.016-0.458-1.106-1.058 0.077 0.451 0.428 0.792 0.849 0.792 0.477 0 0.864-0.439 0.864-0.98 0-0.543-0.387-0.982-0.864-0.982-0.474 0-0.86 0.433-0.865 0.969v-0.014c0-0.703 0.502-1.273 1.122-1.273z m-0.514 1.326a0.265 0.234 90 0 1 0.233 0.265 0.265 0.234 90 0 1-0.233 0.265 0.265 0.234 90 0 1-0.234-0.265 0.265 0.234 90 0 1 0.234-0.265z" /></svg>