<svg xmlns="http://www.w3.org/2000/svg" width="100%" height="100%" viewBox="0 0 30.72 30.72"><path d="M14.79 27.355c-3.608-0.208-6.274-2.077-6.448-5.078 0.695 0.007 1.375-0.013 2.07-0.006 0.224 1.342 1.065 2.43 2.683 3.026 1.583 0.496 3.737 0.46 5.082-0.174 1.351-0.636 2.145-1.822 2.503-3.577 0.212-1.042 0.236-1.734 0.231-2.92l-0.005-1.631h-0.059c-1.245 2.564-3.315 3.53-5.59 3.475-5.74-0.054-7.68-4.534-7.528-8.606 0.01-5.241 3.22-8.537 7.557-8.495 2.354-0.14 4.605 1.362 5.554 3.37l0.059 0.002 0.002-2.918 2.099 0.004-0.002 15.717c-0.193 7.04-4.376 7.89-8.209 7.811z m6.1-15.633c-0.096-3.26-1.601-6.62-5.503-6.645-3.954-0.017-5.625 3.592-5.604 6.85-0.013 3.439 1.643 6.305 4.703 6.762 4.532 0.591 6.551-3.411 6.404-6.967z" /></svg>