<svg xmlns="http://www.w3.org/2000/svg" width="100%" height="100%" viewBox="0 0 30.72 30.72"><path d="M4.956999999999999 3.3599999999999994C4.079 3.3599999999999994 3.3599999999999994 4.079 3.3599999999999994 4.959v16.275c0 0.878 0.719 1.597 1.597 1.597h10L16.433999999999997 27.36h9.33C26.64 27.36 27.36 26.653 27.36 25.788V9.75c0-0.865-0.719-1.572-1.597-1.572h-9.93L14.286999999999999 3.3599999999999994z m11.109 5.539h9.697c0.234 0 0.455 0.091 0.62 0.255a0.834 0.834 0 0 1 0.256 0.596v16.038a0.824 0.824 0 0 1-0.255 0.596 0.881 0.881 0 0 1-0.62 0.255h-8.677l3.45-3.808h0.004l-0.74-2.302c0.01-0.009 0.58-0.501 1.283-1.247a52.6 52.6 0 0 0 2.818 2.806l0.772-0.772c-1.272-1.154-2.205-2.07-2.89-2.805 0.918-1.087 1.851-2.455 2.049-3.708h2.034v0.003h0.002v-0.94h-4.532v-1.52h-1.472v1.52h-2.204z m-5.966 0.46c1.012 0 1.861 0.374 2.513 0.975l-0.99 0.952a2.194 2.194 0 0 0-1.523-0.584c-1.306 0-2.364 1.08-2.364 2.409 0 1.33 1.058 2.409 2.364 2.409 1.508 0 2.13-1.08 2.19-1.808l-2.188-0.002V12.426h3.511c0.05 0.23 0.089 0.457 0.089 0.764 0 2.147-1.433 3.669-3.602 3.669a3.752 3.752 0 0 1-3.751-3.75c0-2.07 1.68-3.75 3.751-3.75z m7.863 5.447h4.766c-0.308 1.084-0.988 2.108-1.652 2.904-1.176-1.392-1.18-1.844-1.18-1.844h-1.222s0.05 0.678 1.7 2.61c-0.533 0.546-0.946 0.875-0.95 0.88Z" /></svg>