<svg xmlns="http://www.w3.org/2000/svg" width="100%" height="100%" viewBox="0 0 30.72 30.72"><path d="M24.0272 4.6929c-1.4725 0-2.6661 1.1936-2.6661 2.6662v4.334L14.693999999999999 11.36V6.692599999999999C14.694199999999999 4.8527 13.2015 3.3599999999999994 11.36 3.3599999999999994 9.5184 3.3599999999999994 8.0272 4.852799999999999 8.0272 6.692699999999999v17.3346C8.0272 25.8688 9.5184 27.36 11.36 27.36s3.3343-1.4912 3.3343-3.3327v-5.3338h6.6669v5.3338c0 1.4726 1.1936 2.6661 2.6661 2.6661 1.4726 0 2.6662-1.1935 2.6662-2.666V7.3591c0-1.4725-1.1936-2.6661-2.6662-2.6661M7.359999999999999 6.693c0-0.5379 0.1085-1.051 0.3023-1.5206-0.975 0.5812-1.6354 1.6353-1.6354 2.8537v15.335c0 1.4323 0.9084 2.6429 2.1779 3.114C7.6777999999999995 25.7979 7.359999999999999 24.95 7.359999999999999 24.0277z m-1.698-0.1874C4.686999999999999 7.0869 4.026599999999999 8.142499999999998 4.026599999999999 9.3593v12.6673c0 1.2184 0.6604 2.2724 1.6354 2.8537a3.9658 3.9658 0 0 1-0.3023-1.5206V8.0262c0-0.5379 0.1085-1.051 0.3023-1.5206m15.0318 0.854c0-0.6976 0.217-1.344 0.5844-1.8803-1.1052 0.3256-1.9175 1.3362-1.9175 2.5468v2.9002l1.3331 0.0668z m0 12.0004h-1.333v4.0008c0 1.2106 0.8122 2.2212 1.9174 2.5467-0.3674-0.5363-0.5844-1.1827-0.5844-1.8802z m-3.3334 3.3335c0 1.2106 0.8122 2.2212 1.919 2.5467-0.369-0.5363-0.586-1.1827-0.586-1.8802v-4.0008h-1.333z m1.3333-14.6671c0-0.6976 0.217-1.344 0.5844-1.8803-1.1052 0.3256-1.9174 1.3362-1.9174 2.5468v2.133l1.333 0.0667Z" /></svg>