<svg xmlns="http://www.w3.org/2000/svg" width="100%" height="100%" viewBox="0 0 30.72 30.72"><path d="M7.199999999999999 3.3599999999999994h16.32A3.84 3.84 0 0 1 27.36 7.199999999999999v16.32A3.84 3.84 0 0 1 23.52 27.36H7.199999999999999A3.84 3.84 0 0 1 3.3599999999999994 23.52V7.199999999999999A3.84 3.84 0 0 1 7.199999999999999 3.3599999999999994z m14.175 21.638l-0.004-0.001a2.577 2.577 0 0 0 0.209-5.139l-4.917-8.682c-0.719-1.292-2.108-1.236-2.609 0.598-0.43 1.736-0.319 3.372-0.444 5.348-0.001 0.013-0.01 0.024-0.023 0.027s-0.026-0.002-0.033-0.013l-4.39-8.751c0.358-0.281 0.568-0.711 0.569-1.167a1.459 1.459 0 1 0-1.459 1.459c0.069 0 0.125-0.014 0.18-0.014 1.848 4.75 3.904 10.293 4.64 11.571 0.5 1.222 2.209 0.833 2.251-0.486l0.18-6.932c0-0.042 0.055-0.042 0.07-0.014l3.526 8.389a2.573 2.573 0 0 0 2.254 3.806z" /></svg>