<svg xmlns="http://www.w3.org/2000/svg" width="100%" height="100%" viewBox="0 0 30.72 30.72"><path d="M7.029999999999999 9.5S5.18 11.27 5.079999999999999 13.139999999999999v0.35c0.08 1.51 1.22 2.4 1.22 2.4 1.83 1.79 6.26 4.04 7.3 4.55 0 0 0.06 0.03 0.1-0.01l0.02-0.04v-0.04C10.879999999999999 14.16 7.029999999999999 9.5 7.029999999999999 9.5zM13.01 21.96c-0.02-0.08-0.1-0.08-0.1-0.08l-7.38 0.26c0.8 1.43 2.15 2.53 3.56 2.2 0.96-0.25 3.16-1.78 3.88-2.3 0.06-0.05 0.04-0.09 0.04-0.09z m0.08-0.78C9.85 18.990000000000002 3.5699999999999994 15.639999999999999 3.5699999999999994 15.639999999999999c-0.15 0.46-0.2 0.9-0.21 1.3v0.07c0 1.07 0.4 1.82 0.4 1.82 0.8 1.69 2.34 2.2 2.34 2.2 0.7 0.3 1.4 0.31 1.4 0.31 0.12 0.02 4.4 0 5.54 0 0.05 0 0.08-0.05 0.08-0.05v-0.06c0-0.03-0.03-0.05-0.03-0.05zM12.42 6.549999999999999a3.42 3.42 0 0 0-2.57 3.15v0.41c0.03 0.6 0.16 1.05 0.16 1.05 0.66 2.9 3.86 7.65 4.55 8.65 0.05 0.05 0.1 0.03 0.1 0.03a0.1 0.1 0 0 0 0.06-0.1c1.06-10.6-1.11-13.42-1.11-13.42-0.32 0.02-1.19 0.23-1.19 0.23z m8.299 2.27s-0.49-1.8-2.44-2.28c0 0-0.57-0.14-1.17-0.22 0 0-2.18 2.81-1.12 13.43 0.01 0.07 0.06 0.08 0.06 0.08 0.07 0.03 0.1-0.03 0.1-0.03 0.72-1.03 3.9-5.76 4.55-8.64 0 0 0.36-1.4 0.02-2.34z m-2.92 13.07s-0.07 0-0.09 0.05c0 0-0.01 0.07 0.03 0.1 0.7 0.51 2.85 2 3.88 2.3 0 0 0.16 0.05 0.43 0.06h0.14c0.69-0.02 1.9-0.37 3-2.26l-7.4-0.25z m7.83-8.41c0.14-2.06-1.94-3.97-1.94-3.98 0 0-3.85 4.66-6.67 10.8 0 0-0.03 0.08 0.02 0.13l0.04 0.01h0.06c1.06-0.53 5.46-2.77 7.28-4.54 0 0 1.15-0.93 1.21-2.42z m1.52 2.14s-6.28 3.37-9.52 5.55c0 0-0.05 0.04-0.03 0.11 0 0 0.03 0.06 0.07 0.06 1.16 0 5.56 0 5.67-0.02 0 0 0.57-0.02 1.27-0.29 0 0 1.56-0.5 2.37-2.27 0 0 0.73-1.45 0.17-3.14z" /></svg>