<svg xmlns="http://www.w3.org/2000/svg" width="100%" height="100%" viewBox="0 0 30.72 30.72"><path d="M6.389999999999999 5.7299999999999995a2.09 2.09 0 0 0-0.333 0.02 0.905 0.905 0 0 0-0.244 0.067 0.527 0.527 0 0 0-0.166 0.088 0.5 0.5 0 0 0-0.133 0.144L4.012 8.302999999999999a4.084 4.084 0 0 0-0.308 0.532 2.184 2.184 0 0 0-0.2 0.496c-0.051 0.17-0.089 0.351-0.11 0.543A5.53 5.53 0 0 0 3.3599999999999994 10.503c0 0.199 0.022 0.356 0.066 0.474a0.48 0.48 0 0 0 0.188 0.266 0.745 0.745 0 0 0 0.32 0.123c0.133 0.023 0.288 0.031 0.465 0.031v0.002c0.184 0 0.342-0.01 0.475-0.033a0.857 0.857 0 0 0 0.332-0.123 0.56 0.56 0 0 0 0.187-0.266c0.044-0.118 0.067-0.275 0.067-0.474V9.088999999999999L6.907 6.069999999999999a0.418 0.418 0 0 0 0.045-0.154 0.177 0.177 0 0 0-0.067-0.112 0.342 0.342 0 0 0-0.177-0.054 2.17 2.17 0 0 0-0.319-0.022z m4.347 5.61a2.03 2.03 0 0 0-0.559 0.065 0.647 0.647 0 0 0-0.343 0.205 0.813 0.813 0 0 0-0.182 0.387 3.436 3.436 0 0 0-0.043 0.6c0 0.228 0.014 0.422 0.043 0.58a0.883 0.883 0 0 0 0.182 0.386 0.75 0.75 0 0 0 0.343 0.205c0.144 0.036 0.33 0.053 0.559 0.053a2.2 2.2 0 0 0 0.547-0.053 0.75 0.75 0 0 0 0.344-0.205 0.75 0.75 0 0 0 0.183-0.387c0.036-0.157 0.053-0.35 0.053-0.58a2.77 2.77 0 0 0-0.053-0.6 0.702 0.702 0 0 0-0.183-0.386 0.647 0.647 0 0 0-0.344-0.205 1.937 1.937 0 0 0-0.547-0.065z m4.05 3.69a0.337 0.337 0 0 0-0.308 0.172c-0.068 0.114-0.103 0.316-0.103 0.605 0 0.29 0.035 0.496 0.103 0.617 0.069 0.115 0.172 0.17 0.309 0.17h4.779c0.13 0 0.228-0.055 0.297-0.17 0.068-0.114 0.101-0.32 0.101-0.617 0-0.145-0.01-0.268-0.033-0.367a0.637 0.637 0 0 0-0.08-0.24 0.25 0.25 0 0 0-0.127-0.137 0.335 0.335 0 0 0-0.158-0.033z m7.395 0a0.337 0.337 0 0 0-0.308 0.172c-0.069 0.114-0.104 0.316-0.104 0.605 0 0.29 0.035 0.496 0.104 0.617 0.068 0.115 0.171 0.17 0.308 0.17H26.96c0.13 0 0.228-0.055 0.296-0.17 0.07-0.114 0.104-0.32 0.104-0.617 0-0.145-0.012-0.268-0.035-0.367a0.637 0.637 0 0 0-0.08-0.24 0.247 0.247 0 0 0-0.125-0.137 0.343 0.343 0 0 0-0.16-0.033z m-11.32 4.29c-0.184 0-0.342 0.012-0.475 0.034a0.857 0.857 0 0 0-0.332 0.123 0.56 0.56 0 0 0-0.187 0.266 1.383 1.383 0 0 0-0.067 0.474v1.414L8.354 24.65a0.418 0.418 0 0 0-0.045 0.154c0.007 0.044 0.03 0.082 0.067 0.112 0.036 0.03 0.096 0.046 0.177 0.054 0.089 0.013 0.195 0.022 0.32 0.022 0.133 0 0.242-0.006 0.33-0.022a0.905 0.905 0 0 0 0.245-0.066 0.527 0.527 0 0 0 0.166-0.088 0.5 0.5 0 0 0 0.133-0.144l1.504-2.254a4.12 4.12 0 0 0 0.308-0.532c0.089-0.162 0.153-0.326 0.197-0.496 0.052-0.17 0.09-0.351 0.112-0.543 0.022-0.191 0.033-0.4 0.033-0.629a1.38 1.38 0 0 0-0.066-0.474 0.477 0.477 0 0 0-0.188-0.266 0.745 0.745 0 0 0-0.32-0.123 2.795 2.795 0 0 0-0.465-0.031z" /></svg>