<svg xmlns="http://www.w3.org/2000/svg" width="100%" height="100%" viewBox="0 0 30.72 30.72"><path d="M23.096 22.416s0.103-0.073 0.267-0.198C25.82 20.317999999999998 27.36 17.563 27.36 14.498999999999999 27.36 8.783999999999999 21.987 4.146999999999999 15.363 4.146999999999999 8.736999999999998 4.146999999999999 3.3599999999999994 8.783999999999999 3.3599999999999994 14.498999999999999c0 5.717 5.371 10.356 11.998 10.356 0.847 0 1.694-0.073 2.524-0.228l0.262-0.045c1.683 1.092 4.139 1.99 6.288 1.99 0.665 0 0.978-0.546 0.552-1.104-0.648-0.795-1.541-2.068-1.888-3.052z m-1.462-4.526c-0.716 1.069-2.934 2.889-6.254 2.889h-0.046c-3.328 0-5.543-1.831-6.254-2.889a1.137 1.137 0 0 1-0.273-0.574 0.49 0.49 0 0 1 0.447-0.526c0.008-0.003 0.014-0.003 0.021-0.003 0.117 0.006 0.23 0.043 0.328 0.111a9.137 9.137 0 0 0 5.754 2.056 8.805 8.805 0 0 0 5.76-2.059 0.461 0.461 0 0 1 0.313-0.122c0.267 0 0.478 0.213 0.483 0.475a1.321 1.321 0 0 1-0.268 0.643h-0.011z" /></svg>