<svg xmlns="http://www.w3.org/2000/svg" width="100%" height="100%" viewBox="0 0 30.72 30.72"><path d="M3.3599999999999994 3.3599999999999994v24h24V3.3599999999999994z m7.025 4h1.633c1.219 0 1.64 0.029 1.668 0.113 0.019 0.066 0.028 1.369 0.028 2.897l-0.008 2.783 0.476-0.422c0.657-0.581 1.212-0.787 2.262-0.824 0.694-0.019 0.973 0.009 1.46 0.178 1.06 0.356 1.81 1.087 2.204 2.166 0.15 0.421 0.17 0.863 0.197 4.285l0.03 3.824h-3.338v-3.121c0-3.075-0.01-3.113-0.217-3.488-0.29-0.497-0.609-0.722-1.106-0.778-0.853-0.093-1.443 0.197-1.78 0.89-0.16 0.32-0.179 0.656-0.188 3.356-0.01 1.65-0.03 3.03-0.03 3.067-0.008 0.047-0.75 0.074-1.65 0.074h-1.64v-7.5z" /></svg>