<svg xmlns="http://www.w3.org/2000/svg" width="100%" height="100%" viewBox="0 0 30.72 30.72"><path d="M6.784999999999999 3.3599999999999994c-0.93 0-1.71 0.768-1.71 1.72v17.14c0 0.94 0.78 1.71 1.71 1.71h5.95l2.62 3.43 2.62-3.43h5.95c0.93 0 1.72-0.77 1.72-1.71V5.079999999999999c0-0.95-0.79-1.72-1.72-1.72H6.784999999999999m1.71 3.43h2.58v6s0.86-1.71 2.56-1.71c1.72 0 3.46 0.85 3.46 3.52v5.9h-2.58V15.36c0-1.39-0.88-1.93-1.73-1.71-0.86 0.21-1.71 1.12-1.71 3v3.85h-2.58V6.789999999999999m12.86 10.29c0.95 0 1.72 0.78 1.72 1.7a1.71 1.71 0 0 1-1.72 1.71 1.71 1.71 0 0 1-1.71-1.71c0-0.92 0.76-1.71 1.71-1.71z" /></svg>