<svg xmlns="http://www.w3.org/2000/svg" width="100%" height="100%" viewBox="0 0 30.72 30.72"><path d="M15.697 3.3599999999999994c-0.475 0-0.861 1.016-0.861 2.269 0 0.527 0.069 1.011 0.183 1.396a8.514 8.514 0 0 0-3.961 1.22 5.229 5.229 0 0 0-0.595-1.093c-0.606-0.866-1.34-1.436-1.79-1.43a0.381 0.381 0 0 0-0.217 0.066c-0.39 0.273-0.123 1.326 0.596 2.353 0.267 0.381 0.559 0.705 0.84 0.948a8.683 8.683 0 0 0-1.528 1.716h1.734a7.179 7.179 0 0 1 5.381-2.421 7.18 7.18 0 0 1 5.382 2.42h1.733a8.687 8.687 0 0 0-1.32-1.53c0.35-0.249 0.735-0.643 1.078-1.133 0.719-1.027 0.986-2.08 0.596-2.353a0.382 0.382 0 0 0-0.217-0.065c-0.45-0.007-1.184 0.563-1.79 1.43a4.897 4.897 0 0 0-0.676 1.325 8.52 8.52 0 0 0-3.899-1.42c0.12-0.39 0.193-0.887 0.193-1.429 0-1.253-0.386-2.269-0.862-2.269zM4.984 12.802999999999999v5.162h1.358v-1.968h1.64v1.968h1.357V12.802999999999999H7.9799999999999995v1.838H6.34V12.802999999999999z m5.912 0v5.162h3.21v-1.108H12.253v-0.95h1.64v-1.142h-1.64v-0.84h1.853V12.802999999999999z m4.698 0v5.162h3.218v-1.362h-1.86v-3.8z m4.706 0v5.162h1.364v-2.643l1.357 1.225 1.35-1.232v2.65h1.365V12.802999999999999h-0.614l-2.1 1.914-2.109-1.914z m-11.82 7.28a8.688 8.688 0 0 0 1.412 1.548 5.206 5.206 0 0 0-0.841 0.948c-0.719 1.027-0.985 2.08-0.596 2.353 0.39 0.273 1.289-0.338 2.007-1.364a5.23 5.23 0 0 0 0.595-1.092 8.514 8.514 0 0 0 3.961 1.219 5.01 5.01 0 0 0-0.183 1.396c0 1.253 0.386 2.269 0.861 2.269 0.476 0 0.862-1.016 0.862-2.269 0-0.542-0.072-1.04-0.193-1.43a8.52 8.52 0 0 0 3.9-1.42c0.121 0.4 0.352 0.865 0.675 1.327 0.719 1.026 1.617 1.637 2.007 1.364 0.39-0.273 0.123-1.326-0.596-2.353-0.343-0.49-0.727-0.885-1.077-1.135a8.69 8.69 0 0 0 1.202-1.36h-1.771a7.174 7.174 0 0 1-5.227 2.252 7.174 7.174 0 0 1-5.226-2.252z" /></svg>