<svg xmlns="http://www.w3.org/2000/svg" width="100%" height="100%" viewBox="0 0 30.72 30.72"><path d="M22.65 4.366999999999999c-0.697 0.036-1.367 0.384-2.008 1.036-0.97 0.987-1.104 2.206-0.679 3.316l-1.091-1.312c-0.106 0.041-0.306 0.203-0.506 0.406-0.572 0.596-0.705 1.516-0.558 2.125l-0.734-0.635-1.45 1.475 1.996 2.03c-1.583-1.326-3.007-1.259-4.323 0.082-1.331 1.353-1.252 3.006-0.147 4.385l-0.186-0.189c-1.184-1.205-2.328-1.463-3.46-0.298-0.666 0.663-0.772 1.314-0.706 1.897l-2.794-2.83-1.625 1.651 5.372 5.48H3.3599999999999994l3.312 3.37 3.282-3.34h3.128l-2.275-2.314c-0.798-0.8-1.039-1.354-0.547-1.855 0.36-0.379 0.773-0.367 1.278 0.148l2.741 2.803 1.65-1.679-2.049-2.084c1.623 1.368 3.393 1.03 4.738-0.351 0.706-0.704 1.09-1.355 1.278-1.801l-1.452-0.825a6.544 6.544 0 0 1-0.878 1.218c-0.799 0.812-1.543 0.812-2.048 0.392l2.94-2.992L20.36 15.61l1.65-1.678-1.782-1.815c-1.45-1.476-1.025-2.26-0.691-2.599 0.212-0.217 0.425-0.378 0.572-0.46a4.183 4.183 0 0 0 0.797 1.096c1.728 1.774 3.62 1.53 5.07 0.042 0.865-0.88 1.279-1.692 1.384-2.099l-1.424-0.799a5.902 5.902 0 0 1-1.023 1.489c-0.786 0.812-1.532 0.813-2.037 0.394l2.97-3.007-0.374-0.379C24.49 4.789999999999999 23.548 4.321 22.651 4.366999999999999z m-0.055 1.918c0.273-0.002 0.558 0.113 0.838 0.35l-1.596 1.623c-0.452-0.527-0.465-1.136 0-1.623 0.226-0.23 0.485-0.349 0.758-0.35z m-7.357 7.486c0.275-0.002 0.564 0.113 0.85 0.35l-1.61 1.626c-0.452-0.528-0.466-1.151 0-1.626 0.227-0.23 0.486-0.349 0.76-0.35z" /></svg>