<svg xmlns="http://www.w3.org/2000/svg" width="100%" height="100%" viewBox="0 0 30.72 30.72"><path d="M21.147 14.77h-1.026a0.852 0.852 0 0 0-0.052-0.284 0.714 0.714 0 0 0-0.459-0.427 1.417 1.417 0 0 0-0.913 0.019 0.89 0.89 0 0 0-0.535 0.542 2.318 2.318 0 0 0-0.04 1.425 0.88 0.88 0 0 0 0.535 0.584 1.492 1.492 0 0 0 0.977 0.027 0.705 0.705 0 0 0 0.428-0.384 0.976 0.976 0 0 0 0.08-0.396h1.031a2.198 2.198 0 0 1-0.049 0.351c-0.09 0.365-0.346 0.672-0.684 0.814a3.254 3.254 0 0 1-2.251 0.104c-0.477-0.15-0.89-0.493-1.054-0.96a2.375 2.375 0 0 1-0.133-0.788c0-0.388 0.068-0.764 0.254-1.077 0.192-0.321 0.486-0.569 0.842-0.701a3.062 3.062 0 0 1 2.318 0.063 1.2 1.2 0 0 1 0.698 0.853c0.017 0.076 0.028 0.156 0.033 0.235z m-3.979 2.436H16.08l-0.32-0.793h-1.834c-0.001 0.001-0.315 0.794-0.319 0.793h-1.09l1.727-3.693c0 0.002 1.199 0 1.199 0l1.725 3.693z m5.483 0.001h-0.977s0.005-3.693 0-3.693h0.977v1.477h1.976c0 0.005-0.002-1.478 0-1.477h0.979s0.003 3.686 0 3.693h-0.979v-1.626c0 0.005-1.976 0-1.976 0 0.002 0.007 0 1.624 0 1.626z m-18.312 0H3.3599999999999994s0.005-3.693 0-3.693h0.979s-0.002 1.487 0 1.477h1.976c0 0.005-0.004-1.478 0-1.477h0.978s0.004 3.686 0 3.693h-0.978v-1.626c0 0.005-1.976 0-1.976 0 0 0.007-0.002 1.625 0 1.626z m7.531-0.001h-0.977v-3.065H9.395999999999999s0.002-0.626 0-0.627c0.002 0.001 3.971 0 3.971 0v0.627H11.87v3.065z m-3.801-3.692h0.977v3.692h-0.977v-3.692z m18.312 0H27.36v3.692h-0.979v-3.692z m-11.537 0.627l-0.681 1.68h1.361l-0.68-1.68z" /></svg>