<svg xmlns="http://www.w3.org/2000/svg" width="100%" height="100%" viewBox="0 0 30.72 30.72"><path d="M23.743 13.921a1.727 1.727 0 0 1 0 0.055l-0.004 0.048c-0.088 2.33-0.057 11.357-0.057 11.823 0.002 1.078-0.826 1.943-1.596 1.283l-6.98-5.53a373.72 373.72 0 0 1-4.742 4.925c-0.977 0.946-1.786-1.327-1.045-1.808 0.066-0.042 2.223-1.95 4.61-4.05L8.76 16.573999999999998c-0.446-0.356-0.618-0.946-0.363-1.261a0.46 0.46 0 0 1 0.328-0.127 0.47 0.47 0 0 1 0.164 0.037c1.596 0.722 3.962 2.492 6.314 4.329 2.45-2.15 4.805-4.191 5.116-4.364 0.38-0.214 0.48 0.354 0.354 0.516-0.131 0.166-2.169 2.326-4.408 4.678 2.204 1.732 4.294 3.389 5.614 4.137l0.217-10.62c-0.17-0.206-5.332-7.163-5.892-7.746-0.892 0.78-5.566 6.112-5.802 6.342 1.067 0.11 5.597 0.382 8.452 0.684 0.721 0.07 1.2 0.606-0.346 0.59l-11.105-0.015a0.44 0.44 0 0 1-0.394-0.267 0.415 0.415 0 0 1 0.094-0.457C7.159999999999999 12.972999999999999 15.142 4.108 15.814 3.5439999999999996A0.702 0.702 0 0 1 16.295 3.3599999999999994a0.732 0.732 0 0 1 0.483 0.227c0.083 0.077 4.292 5.94 6.344 8.802 0.492 0.678 0.617 1.137 0.621 1.5z" /></svg>