<svg xmlns="http://www.w3.org/2000/svg" width="100%" height="100%" viewBox="0 0 30.72 30.72"><path d="M15.360999999999999 17.817c2.04 0 1.997 0 1.997 0.645v4.054h2.775V11.286999999999999h-2.775v3.371c0 0.664 0.042 0.662-1.997 0.662h0.001c-2.04 0-1.996 0.002-1.996-0.662v-3.37H10.59v11.228h2.775v-4.054c0-0.644-0.043-0.645 1.996-0.645M15.36 3.3599999999999994c1.04 0 1.72 0.18 2.004 0.241-0.143 1.307-0.1 2.355 0 2.657 0.347 1.006 2.32 1.475 3.115 1.012 0.878-0.523 0.676-2.109 0.676-3.155 0 0 1.294 0.301 2.086 0.594 0.644 0.238 1.593 0.703 1.593 0.703 0.188 1.323 0.01 3.281-1.316 3.945 1 0.985 1.335 2.152 1.764 4.304 0.346 1.932 0.265 3.28 0.243 4.405-0.101 1.53-0.101 2.354-0.468 3.743-0.53 1.588-0.844 2.335-1.918 3.438C20.959 27.491 17.405 27.36 15.36 27.358c-2.045 0.001-5.598 0.133-7.779-2.11-1.074-1.104-1.388-1.85-1.918-3.439-0.367-1.389-0.367-2.213-0.469-3.743-0.02-1.126-0.102-2.473 0.245-4.405 0.428-2.152 0.763-3.319 1.763-4.304-1.326-0.664-1.504-2.622-1.316-3.945 0 0 0.95-0.465 1.593-0.703 0.792-0.293 2.085-0.594 2.085-0.594 0 1.046-0.201 2.632 0.676 3.155 0.797 0.463 2.768-0.006 3.116-1.012 0.102-0.302 0.142-1.35 0-2.657C13.639999999999999 3.5409999999999995 14.318999999999999 3.3599999999999994 15.36 3.3599999999999994m-0.004 21.125c2.387 0 3.149 0 4.331-0.322 0.408-0.14 1.143-0.341 1.674-1.166 0.979-1.65 0.979-4.747 0.979-6.236 0-1.49 0-4.125-0.979-5.754-0.53-0.846-1.255-1.078-1.674-1.188-1.208-0.316-1.983-0.297-4.331-0.302h0.002c-2.348 0.005-3.123-0.014-4.331 0.302-0.418 0.11-1.143 0.342-1.674 1.188-0.979 1.63-0.979 4.264-0.979 5.754 0 1.489 0 4.586 0.98 6.236 0.53 0.825 1.264 1.025 1.673 1.166 1.182 0.323 1.944 0.322 4.33 0.322Z" /></svg>