<svg xmlns="http://www.w3.org/2000/svg" width="100%" height="100%" viewBox="0 0 30.72 30.72"><path d="M23.83 3.3599999999999994C25.78 3.3599999999999994 27.36 4.9399999999999995 27.36 6.889999999999999v16.94c0 1.95-1.58 3.53-3.53 3.53H6.889999999999999C4.9399999999999995 27.36 3.3599999999999994 25.78 3.3599999999999994 23.83V6.889999999999999C3.3599999999999994 4.9399999999999995 4.9399999999999995 3.3599999999999994 6.889999999999999 3.3599999999999994h16.94z m-3.705 14.47c-0.78 0-1.41 0.63-1.41 1.41s0.63 1.414 1.41 1.414 1.41-0.645 1.41-1.425-0.63-1.41-1.41-1.41zM11.969999999999999 20.607c1.2 0 2.056-0.042 2.58-0.12 0.526-0.084 0.976-0.222 1.32-0.412 0.45-0.232 0.78-0.564 1.02-0.99s0.36-0.915 0.36-1.48c0-0.78-0.21-1.403-0.63-1.87-0.42-0.48-0.99-0.734-1.74-0.794 0.66-0.18 1.156-0.45 1.456-0.81 0.315-0.344 0.465-0.824 0.465-1.424 0-0.48-0.103-0.885-0.3-1.26-0.21-0.36-0.493-0.645-0.883-0.87-0.345-0.195-0.735-0.315-1.215-0.405-0.464-0.074-1.29-0.12-2.474-0.12H9.014v10.486H11.969999999999999z m0.736-4.185c0.705 0 1.185 0.088 1.44 0.262 0.27 0.18 0.39 0.495 0.39 0.93 0 0.405-0.135 0.69-0.42 0.855-0.27 0.18-0.765 0.254-1.44 0.254H11.67v-2.297h1.05z m8.656 0.706v-7.06h-2.46v7.06H21.36zM12.285 12.44c0.71 0 1.185 0.08 1.432 0.24 0.245 0.16 0.367 0.435 0.367 0.83 0 0.38-0.13 0.646-0.39 0.804-0.265 0.154-0.747 0.232-1.452 0.232h-0.57V12.44h0.615z" /></svg>