<svg xmlns="http://www.w3.org/2000/svg" width="100%" height="100%" viewBox="0 0 30.72 30.72"><path d="M20.479 8.864999999999998a4.786 4.786 0 0 0-4.016-4.254c-2.188-0.342-4.256 0.854-5.128 2.786-4.494-0.278-7.784 0.257-7.966 1.47-0.17 1.041 1.992 2.32 5.383 3.362l0.001 0.006C8.668 12.200999999999999 3.6929999999999996 26.166999999999998 3.6929999999999996 26.166999999999998h18.803s-1.145-11.966-1.316-11.966c3.539 0.051 6-0.496 6.172-1.539 0.178-1.188-2.662-2.682-6.873-3.797z m-0.375 1.353c-0.035 0.274-0.309 0.479-0.582 0.427s-0.479-0.308-0.428-0.581c0.053-0.273 0.309-0.479 0.582-0.427s0.479 0.307 0.428 0.581z m-5.162-1.163a0.67 0.67 0 0 1 0.786-0.564 0.67 0.67 0 0 1 0.564 0.787 0.715 0.715 0 0 1-0.786 0.564 0.67 0.67 0 0 1-0.564-0.787z m-3.949-0.273c0.051-0.274 0.307-0.479 0.581-0.427s0.479 0.308 0.427 0.581c-0.034 0.273-0.308 0.461-0.581 0.427-0.273-0.051-0.478-0.308-0.427-0.581z m9.521 5.419c-0.119 0.684-2.701 0.871-5.778 0.376-3.077-0.495-5.47-1.453-5.368-2.153 0.068-0.377 0.854-0.599 2.051-0.65-0.358 0.067-0.58 0.204-0.614 0.376-0.085 0.512 1.744 1.247 4.068 1.623 2.342 0.359 4.29 0.24 4.375-0.291 0.018-0.17-0.154-0.375-0.479-0.563 1.13 0.426 1.814 0.872 1.745 1.282z" /></svg>