<svg xmlns="http://www.w3.org/2000/svg" width="100%" height="100%" viewBox="0 0 30.72 30.72"><path d="M24.7568 13.7613l-1.0971 2.4399H27.36l-0.3435 0.7629H20.654l1.4331-3.2028z m-6.3985 1.0896h2.4633c-0.0152-0.5377-0.5358-0.911-1.5672-1.0592-2.0348-0.2994-4.2354-0.1718-5.802 0.6934-1.2346 0.6859-1.329 1.7176-0.099 2.2232 1.0357 0.4218 3.2106 0.4656 4.767 0.201 1.0077-0.1712 1.7776-0.502 2.2093-0.9974H17.814c-0.3262 0.251-0.7526 0.376-1.25 0.3804-1.4124 0.0094-1.5988-0.4182-1.3525-0.9106 0.293-0.5801 0.9075-0.8966 1.8447-0.9216 0.7381-0.0199 1.1029 0.1436 1.3021 0.3908M3.3599999999999994 16.9667h2.604l0.5578-1.2789h2.553l-0.5732 1.2771h2.635l1.4457-3.2031h-2.653l-0.4769 1.0807H6.902099999999999l0.4831-1.0807-2.5781-0.0006Z" /></svg>