<svg xmlns="http://www.w3.org/2000/svg" width="100%" height="100%" viewBox="0 0 30.72 30.72"><path d="M10.402 20.256H7.773999999999999v-3.754H6.068v3.754H3.369999999999999L3.3599999999999994 10.579999999999998h2.708v3.6h1.706v-3.6h2.628z m12.043 0.046C25.155 20.3 27.36 18.049 27.36 15.338a4.89 4.89 0 0 0-4.915-4.92c-2.707-0.002-4.09 1.991-4.432 2.795 0.003-1.207-1.187-2.632-2.58-2.634H10.95v9.674l4.181 0.001c1.686 0 2.886-1.46 2.888-2.713 0.385 0.788 1.72 2.762 4.427 2.76z m-7.665-3.936c0.387 0 0.692 0.382 0.692 0.817 0 0.435-0.305 0.817-0.692 0.817h-1.33v-1.634z m0.005-3.633c0.387 0 0.692 0.382 0.692 0.817 0 0.436-0.305 0.818-0.692 0.818h-1.33V12.732999999999999z m1.77 2.607c0.305-0.039 0.813-0.387 0.992-0.61-0.063 0.276-0.068 1.074 0.006 1.35-0.204-0.314-0.688-0.701-0.998-0.74z m3.43 0a2.462 2.462 0 1 1 4.924 0 2.462 2.462 0 0 1-4.925 0z m2.462 1.936a1.936 1.936 0 1 0 0-3.872 1.936 1.936 0 0 0 0 3.872Z" /></svg>