<svg xmlns="http://www.w3.org/2000/svg" width="100%" height="100%" viewBox="0 0 30.72 30.72"><path d="M24.506999999999998 6.403c-0.002-0.113-0.069-0.182-0.189-0.191a14.117 14.117 0 0 0-0.51-0.045l-0.162-0.01a21.998 21.998 0 0 0-1.085-0.046l-0.217-0.005c-0.172-0.003-0.35-0.004-0.532-0.004l-0.189-0.001c-0.295 0-0.601 0.003-0.919 0.01l-0.106 0.003a55.86 55.86 0 0 0-0.87 0.026l-0.237 0.009c-0.335 0.013-0.676 0.029-1.027 0.049l-0.012 0.001c-0.357 0.021-0.724 0.045-1.095 0.071l-0.275 0.021c-0.304 0.023-0.609 0.048-0.92 0.076l-0.25 0.021c-0.38 0.035-0.766 0.074-1.156 0.115-0.08 0.009-0.161 0.019-0.242 0.027-0.319 0.035-0.641 0.073-0.965 0.113l-0.33 0.042c-0.403 0.051-0.806 0.105-1.212 0.164a0.547 0.547 0 0 0-0.154 0.045 0.303 0.303 0 0 0-0.097 0.074l-0.003 0.002c-0.045 0.055-0.047 0.12 0.004 0.179 0.003 0.004 0.002 0.008 0.005 0.012l3.488 3.456-6.629 6.596c-0.069 0.067-0.068 0.165 0 0.251 0.856 1.093 1.44 1.793 2.143 2.492 0.699 0.703 1.398 1.286 2.493 2.143a0.216 0.216 0 0 0 0.132 0.051 0.167 0.167 0 0 0 0.119-0.051l6.597-6.629 3.455 3.488a0.143 0.143 0 0 0 0.101 0.047c0.096 0 0.187-0.118 0.212-0.292 0.746-5.141 0.882-10.051 0.634-12.31zM19.229999999999997 27.36l6.356-6.357 0.026-0.026 0.156-0.155-0.006-0.006a3.144 3.144 0 0 0 0.822-1.711c0.804-5.53 0.903-10.591 0.654-12.952a2.904 2.904 0 0 0-0.834-1.812 2.96 2.96 0 0 0-1.816-0.855C23.817999999999998 3.4019999999999992 22.836 3.3599999999999994 21.678 3.3599999999999994c-2.999 0-6.667 0.284-10.063 0.777a3.143 3.143 0 0 0-1.887 0.991L3.3599999999999994 11.497V27.36H19.229999999999997z m1.528-6.707c-0.151 0-0.563 0.405-0.563 0.613a0.1 0.1 0 0 1-0.099 0.1 0.1 0.1 0 0 1-0.099-0.1c0-0.208-0.411-0.613-0.563-0.613a0.1 0.1 0 0 1-0.099-0.1c0-0.054 0.044-0.098 0.099-0.098 0.152 0 0.563-0.404 0.563-0.614 0-0.055 0.044-0.098 0.099-0.098 0.054 0 0.099 0.043 0.099 0.098 0 0.21 0.412 0.614 0.563 0.614a0.1 0.1 0 0 1 0 0.198zM8.76 10.405c0.197 0 0.735-0.528 0.735-0.801a0.13 0.13 0 0 1 0.128-0.129c0.071 0 0.128 0.058 0.128 0.129 0 0.272 0.538 0.801 0.735 0.801 0.071 0 0.128 0.057 0.128 0.128a0.128 0.128 0 0 1-0.128 0.128c-0.197 0-0.735 0.528-0.735 0.801a0.128 0.128 0 0 1-0.128 0.128 0.128 0.128 0 0 1-0.128-0.128c0-0.273-0.538-0.801-0.735-0.801a0.128 0.128 0 0 1 0-0.256z m-3.99 3.26c0-0.065 0.057-0.098 0.119-0.118 0.69-0.228 1.269-0.8 1.403-1.554 0.011-0.064 0.053-0.118 0.118-0.118 0.066 0 0.107 0.054 0.119 0.118 0.133 0.754 0.711 1.326 1.401 1.554 0.062 0.02 0.118 0.053 0.118 0.118s-0.056 0.098-0.118 0.119c-0.69 0.227-1.269 0.799-1.403 1.553-0.011 0.064-0.053 0.119-0.119 0.119-0.065 0-0.106-0.054-0.118-0.119-0.134-0.754-0.713-1.326-1.403-1.553-0.061-0.022-0.117-0.054-0.117-0.119z m1.565 9.307c-0.113 0-0.42 0.302-0.42 0.459 0 0.04-0.034 0.073-0.074 0.073a0.074 0.074 0 0 1-0.074-0.073c0-0.157-0.307-0.459-0.42-0.459a0.074 0.074 0 0 1-0.074-0.073c0-0.039 0.034-0.073 0.074-0.073 0.113 0 0.42-0.302 0.42-0.457 0-0.042 0.033-0.073 0.074-0.073 0.04 0 0.074 0.031 0.074 0.073 0 0.155 0.307 0.457 0.42 0.457 0.04 0 0.073 0.034 0.073 0.073a0.073 0.073 0 0 1-0.073 0.073z m0.568-3.047c-0.14 0-0.521 0.375-0.521 0.568a0.092 0.092 0 1 1-0.183 0c0-0.193-0.381-0.568-0.521-0.568a0.09 0.09 0 0 1-0.091-0.09c0-0.051 0.041-0.092 0.091-0.092 0.14 0 0.521-0.375 0.521-0.568a0.09 0.09 0 0 1 0.092-0.09 0.09 0.09 0 0 1 0.091 0.09c0 0.193 0.381 0.568 0.521 0.568a0.091 0.091 0 0 1 0 0.182z m3.334 4.382c-0.203 0-0.758 0.546-0.758 0.827 0 0.073-0.06 0.133-0.132 0.133a0.133 0.133 0 0 1-0.133-0.133c0-0.281-0.555-0.827-0.758-0.827a0.134 0.134 0 0 1-0.133-0.133c0-0.073 0.059-0.132 0.133-0.132 0.204 0 0.758-0.545 0.758-0.828 0-0.071 0.06-0.132 0.133-0.132 0.073 0 0.132 0.061 0.132 0.132 0 0.283 0.555 0.828 0.758 0.828 0.074 0 0.133 0.059 0.133 0.132a0.133 0.133 0 0 1-0.133 0.133z m1.922-0.806c-1.086-0.851-1.869-1.498-2.653-2.287-0.789-0.784-1.436-1.566-2.287-2.654-0.626-0.8-0.566-1.897 0.144-2.607l0.001-0.001 0.002-0.001L12.724 10.62 10.509 8.425999999999998l-0.003-0.003-0.002-0.003c-0.52-0.52-0.7-1.27-0.472-1.958 0.148-0.447 0.464-0.802 0.867-1.049a1.983 1.983 0 0 1 0.371-0.19 2.1 2.1 0 0 1 0.468-0.131c0.005 0 0.009-0.003 0.014-0.004C15.106 4.6 18.723 4.319999999999999 21.677 4.319999999999999h0.002c1.125 0 2.072 0.041 2.818 0.121 0.469 0.046 0.903 0.249 1.228 0.576 0.328 0.331 0.525 0.767 0.562 1.237 0.243 2.311 0.144 7.253-0.651 12.714-0.001 0.01-0.006 0.016-0.007 0.025a2.258 2.258 0 0 1-0.18 0.586c-0.006 0.014-0.01 0.028-0.018 0.042-0.333 0.699-1.001 1.163-1.771 1.163-0.51 0-0.992-0.2-1.358-0.567l-0.003-0.002-0.004-0.004-2.192-2.215-5.333 5.359-0.001 0.002h-0.001a1.94 1.94 0 0 1-1.378 0.573c-0.44 0-0.877-0.151-1.231-0.429z m2.576 2.09c-0.139 0-0.518 0.373-0.518 0.566a0.09 0.09 0 0 1-0.091 0.09 0.09 0.09 0 0 1-0.09-0.09c0-0.193-0.379-0.566-0.519-0.566a0.09 0.09 0 1 1 0-0.18c0.139 0 0.519-0.373 0.519-0.566a0.09 0.09 0 0 1 0.09-0.09c0.05 0 0.091 0.041 0.091 0.09 0 0.193 0.379 0.566 0.518 0.566 0.05 0 0.091 0.039 0.091 0.09s-0.04 0.09-0.091 0.09z m2.115-2.437c0.248 0 0.922-0.662 0.922-1.003 0-0.088 0.072-0.161 0.161-0.161 0.088 0 0.161 0.073 0.161 0.161 0 0.341 0.674 1.003 0.921 1.003 0.089 0 0.161 0.073 0.161 0.161a0.16 0.16 0 0 1-0.161 0.161c-0.247 0-0.921 0.662-0.921 1.005a0.162 0.162 0 0 1-0.161 0.162 0.162 0.162 0 0 1-0.161-0.162c0-0.343-0.674-1.005-0.922-1.005a0.161 0.161 0 0 1 0-0.322z" /></svg>