<svg xmlns="http://www.w3.org/2000/svg" width="100%" height="100%" viewBox="-3 -3 30 30"><path d="M22.61 24H1.39v-1.09h21.22zm-.8-3.18H2.23v1.51h19.58zm-.23-17.16H2.1v2.09h19.48zM11.84 0L1.64 2.39l.59.61h19.23l.54-.61zM3.71 20.21a3.44 3.44 0 001-.13c.16-1.74.25-4.9.25-6.87s-.09-5-.24-6.76a.18.18 0 00-.13-.15 3.56 3.56 0 00-.84-.1 3.69 3.69 0 00-.83.1.18.18 0 00-.13.15c-.16 1.76-.24 4.82-.24 6.76s.09 5.13.25 6.87a3.34 3.34 0 00.91.13zm5.31 0a3.37 3.37 0 001-.13c.16-1.74.25-4.9.25-6.87s-.09-5-.24-6.76a.18.18 0 00-.13-.15 3.54 3.54 0 00-.9-.1 3.79 3.79 0 00-.84.1.18.18 0 00-.13.15c-.15 1.76-.24 4.82-.24 6.76s.09 5.13.25 6.87a3.36 3.36 0 00.96.13zm6.15 0a3.37 3.37 0 001-.13c.16-1.74.25-4.9.25-6.87s-.08-5-.24-6.76A.17.17 0 0016 6.3a3.54 3.54 0 00-.83-.1 3.62 3.62 0 00-.83.1.18.18 0 00-.14.15c-.15 1.76-.24 4.82-.24 6.76s.09 5.13.26 6.87a3.28 3.28 0 00.95.13zm5.18 0a3.37 3.37 0 00.95-.13c.16-1.74.25-4.9.25-6.87s-.08-5-.24-6.76a.18.18 0 00-.13-.15 3.54 3.54 0 00-.83-.1 3.79 3.79 0 00-.84.1.18.18 0 00-.13.15c-.15 1.76-.24 4.82-.24 6.76s.09 5.13.25 6.87a3.36 3.36 0 00.96.13z"/></svg>