<svg xmlns="http://www.w3.org/2000/svg" width="100%" height="100%" viewBox="0 0 30.72 30.72"><path d="M3.3599999999999994 19.503999999999998h4.667v0.668H3.3599999999999994zM3.3599999999999994 18.222h4.667v0.67H3.3599999999999994zM4.6899999999999995 16.942999999999998h2.003v0.671H4.6899999999999995zM4.6899999999999995 15.665h2.003v0.67H4.6899999999999995zM4.6899999999999995 14.385h2.003v0.671H4.6899999999999995zM4.6899999999999995 13.104h2.003v0.671H4.6899999999999995zM3.3599999999999994 11.825999999999999h4.667v0.67H3.3599999999999994zM3.3599999999999994 10.547h4.667v0.67H3.3599999999999994zM8.692 18.892h7.177c0.12-0.206 0.212-0.433 0.267-0.67H8.693v0.67zM15.309999999999999 15.665H10.027v0.67h5.843a2.67 2.67 0 0 0-0.558-0.67zM10.026 14.385v0.671h5.285c0.223-0.188 0.41-0.414 0.559-0.671H10.026zM15.869 11.825999999999999H8.692v0.67h7.443a2.891 2.891 0 0 0-0.266-0.67zM13.663 10.547H8.692v0.67h6.685a2.522 2.522 0 0 0-1.714-0.67zM10.026 13.104h2v0.671h-2zM14.027 13.774999999999999h2.092c0.059-0.214 0.09-0.44 0.09-0.671h-2.182v0.671zM10.026 16.942999999999998h1.999v0.671h-2zM14.027 16.942999999999998v0.671h2.182c0-0.23-0.031-0.457-0.09-0.671h-2.092zM8.692 20.166999999999998l4.97 0.007c0.667 0 1.268-0.257 1.717-0.67H8.692v0.663zM16.694 19.503999999999998h3.332v0.668h-3.332zM16.694 18.222h3.332v0.67h-3.332zM18.025 16.942999999999998h2v0.671h-2zM18.025 15.665h2v0.67h-2zM20.954 11.825999999999999h-4.26v0.67h4.49zM20.512 10.547h-3.818v0.669h4.048zM24.025 19.503999999999998H27.36v0.668h-3.335zM24.025 18.222H27.36v0.67h-3.335zM24.025 16.942999999999998h2v0.671h-2zM24.025 15.665h2v0.67h-2zM24.025 15.056h2v-0.671h-3.811l-0.188 0.542-0.188-0.542H18.025v0.671h2v-0.616l0.213 0.616h3.575l0.212-0.616zM26.026 13.104h-3.37l-0.23 0.671h3.6zM23.543 10.547l-0.231 0.669H27.36v-0.669zM22.026 20.166999999999998l0.23-0.663h-0.461zM21.584 18.892h0.884l0.238-0.67h-1.357zM21.134999999999998 17.613999999999997h1.782l0.235-0.671h-2.253zM20.687 16.335h2.679l0.229-0.67h-3.138zM18.025 13.774999999999999h3.602l-0.231-0.671h-3.371zM22.87 12.495999999999999H27.36v-0.67h-4.262z" /></svg>