<svg xmlns="http://www.w3.org/2000/svg" width="100%" height="100%" viewBox="0 0 30.72 30.72"><path d="M13.549 3.3599999999999994a3.784 3.784 0 0 0-3.055 5.93l1.741 2.562a1.855 1.855 0 0 0 3.334-0.13l1.454-2.929h-0.006A3.784 3.784 0 0 0 13.549 3.3599999999999994z m9.173 4.496a4.235 4.235 0 0 0-1.662 0.306 4.23 4.23 0 0 0-1.817 1.396l-2.214 2.837c-0.025 0.032-0.05 0.063-0.074 0.096l-0.01 0.012a2.088 2.088 0 0 0 1.509 3.306l3.614 0.536-0.003-0.007a4.259 4.259 0 0 0 4.532-5.807 4.264 4.264 0 0 0-3.875-2.675zM6.946 10.602A3.154 3.154 0 0 0 3.9099999999999993 12.988a3.151 3.151 0 0 0 3.903 3.804l2.539-0.737a1.545 1.545 0 0 0 0.742-2.673L9.149999999999999 11.478v0.005a3.13 3.13 0 0 0-2.204-0.881zM17.259999999999998 17.319a1.886 1.886 0 0 0-1.858 2.233l0.387 3.263 0.005-0.003a3.846 3.846 0 0 0 6.134 2.574 3.846 3.846 0 0 0-0.9-6.645l-2.877-1.197a1.89 1.89 0 0 0-0.89-0.225z m-5.55 0.08c-0.377 0-0.75 0.104-1.076 0.3L7.419999999999999 19.378l0.006 0.003a4.21 4.21 0 0 0-1.593 1.485 4.24 4.24 0 0 0 1.342 5.843 4.239 4.239 0 0 0 5.845-1.332 4.21 4.21 0 0 0 0.647-2.172l0.108-3.45a2.079 2.079 0 0 0-2.062-2.356z" /></svg>