<svg xmlns="http://www.w3.org/2000/svg" width="100%" height="100%" viewBox="0 0 30.72 30.72"><path d="M15.36 3.3599999999999994L4.968 9.36v12L15.36 27.36l10.392-6V9.36z m-1.073 1.445h0.001a1.8 1.8 0 0 0 2.138 0l7.534 4.35a1.794 1.794 0 0 0 0 0.403l-7.535 4.35a1.8 1.8 0 0 0-2.137 0l-7.536-4.35a1.795 1.795 0 0 0 0-0.402zM24.684 10.76c0.109 0.08 0.226 0.147 0.349 0.201v8.7a1.8 1.8 0 0 0-1.069 1.852l-7.535 4.35a1.8 1.8 0 0 0-0.349-0.2l-0.009-8.653a1.8 1.8 0 0 0 1.07-1.851z m-18.648 0.048l7.535 4.35a1.8 1.8 0 0 0 1.069 1.852v8.7c-0.124 0.054-0.24 0.122-0.349 0.202l-7.535-4.35a1.8 1.8 0 0 0-1.069-1.852v-8.7c0.124-0.054 0.24-0.122 0.35-0.202z" /></svg>