<svg xmlns="http://www.w3.org/2000/svg" width="100%" height="100%" viewBox="0 0 30.72 30.72"><path d="M12.7774 3.3603999999999994c-0.1655-0.0025-0.319 0.0073-0.4493 0.0363-0.902 0.201-1.2372 1.1122-1.6211 1.9531-0.1036 0.2255-0.192 0.107-0.5576 0.9754-1.1487-0.137-2.5594-0.1066-3.4065-0.2041 0.1402 0.4845 0.8319 0.198 1.295 0.2041 0.7587 0.0061 1.5447 0.2011 2.1115 0.2042 0.0335 0.2102 0.2134 0.4414 0.25 0.6486 0.1188 0.6917 0.0764 1.3407-0.1126 2.005-0.1828 0.649-1.2492 1.1886-1.499 2.0448-0.1037 0.3535 0.0118 0.6551-0.1375 1.0909-0.1097 0.137-0.3256 0.1702-0.475 0.2707-1.0572 1.1914-1.6729 3.178-1.9745 4.9026 0.7252 0.3382 1.3467 0.0185 1.7032 0.2714 0.2163 0.061 0.0916-0.2255 0.2714-0.2041 0.137 0.0213 0.1306 0.1828 0.2707 0.204-0.1127 1.027 0.0673 1.7308 0.0673 2.7912 1.1152 0.4814 2.3768 0.399 3.9551 0.4112-0.0182 0.2042 0.3868 0.9602 0.0578 1.4569 0.4875 0.4966-0.2407 2.1783 0.7587 2.221-0.332 0.4874-0.5579 1.0785-0.5457 1.9073-0.2407 0.1066-0.0396-0.2316-0.2041-0.2041-1.691-0.0427-2.6844-0.3078-4.4943-0.2042 0.5058 0.2072 1.4444 0.119 2.1787 0.2714 0.0792 0.0122 0.055 0.125 0.0672 0.2041 0.2956-0.1401 1.1029-0.0304 1.633 0-0.2376 0.125 0.3325 0.2468 0.3416 0 0.457 0.0701 0.8287 0.5852 1.2248 0.6797 1.3072 0.3138 2.0447-0.6313 2.8613-1.2224 0.128 0.2681 0.7553 0.0152 1.1575 0-0.3352-0.198-1.1365-0.134-1.499 0 0.1218-0.9629-0.3534-1.3285-0.8166-1.7032 0.189-0.1067 0.3958-0.1948 0.5451-0.341 0.0183-1.3407-0.0546-1.7948-0.1368-2.9953 0.7252-0.1493 1.7613-0.2437 2.6572-0.4082-0.317 0.969-0.1404 1.444-0.2714 2.7238 0.1676 0.0823 0.399 0.101 0.6124 0.1375-0.6704 0.3595-1.0573 1.8947-0.2042 2.3823-0.0761 0.1736-0.3655 0.1344-0.6123 0.1374 0.0091 0.3565 0.8498-0.1221 0.7492 0.341 0.457-0.3687 3.1811-0.0394 4.2902 0.0673-0.1188-0.6094-1.453-0.1192-2.0442-0.5457 0.7648-0.4876 0.7768-1.9618-0.0673-2.3823 0.646-0.4296 0.2683-2.1969 0.4755-3.1993 0.6186-0.2682 1.5905-0.1801 2.1115-0.5458-0.0152-0.8714-0.1825-1.5873-0.341-2.3156 0.2164-0.1493 0.7495-0.3351 1.0206-0.2041 0.1493-0.0122 0.146-0.174 0.137-0.3416 0.0609-0.1645 0.201 0.1526 0.4082 0.0673 0.0091-0.8136-0.3684-1.2249-0.7493-1.9074-0.5728-1.0238-1.3196-2.0295-2.453-2.453-0.9538-1.6363-1.9711-3.2054-4.1528-3.6106-0.1219-0.3078-0.049-0.8135-0.0672-1.2248 0.3016-0.265 0.564-0.573 0.5457-1.158 0.8288-0.3535 2.1297 0.0852 2.928 0-0.128-0.4206-0.8656-0.1555-1.3623-0.2042-0.527-0.0518-1.0481-0.2803-1.499 0-0.131-0.387-0.3533-1.1057-0.591-0.929-0.1402-0.3382-0.1313-0.8657-0.0917-1.3836-0.847-0.1737-1.7762-0.4385-2.7238-0.5452-0.4228-0.048-1.0288-0.1665-1.5253-0.1737z m-0.382 0.2374c1.5448 0.134 3.1656 0.1919 4.427 0.6124 0.2164 1.551-0.085 2.9803 0.1375 4.6318-1.6484-0.2803-3.5102-0.6189-5.177-0.3416 0.0793-1.6302 0.1463-3.434 0.6124-4.9026zM11.987 3.8691999999999993c-0.0945 1.5387-0.396 2.8426-0.4083 4.6312-0.323 0.2437-0.6734 0.46-1.0908 0.6124-0.0366-0.5698 0.021-1.3403 0.1369-1.77 0.0975 0.1067 0.2652 0.143 0.4755 0.137 0.5545-0.64 0.28-1.7428-0.0673-2.5198 0.2803-0.3991 0.4908-0.8714 0.954-1.0908z m2.2626 0.7903c-0.2944-0.0043-0.5763 0.0233-0.8308 0.0964 0.3322 0.0061 0.7194-0.037 0.954 0.0667-0.4753 0.2072-0.7955 0.5667-0.7498 1.295 0.7282 1.0115 1.9712-0.2254 1.2247-1.2248 0.4754-0.0335 1.3378 0.3292 1.9746 0.2714-0.6947-0.1943-1.6894-0.4917-2.5727-0.5047z m0.356 0.3535c0.297 0.041 0.3246 0.751 0.2421 1.0284-0.32 0.387-0.9866 0.1405-1.0902-0.2708 0.1615-0.0853-0.0248-0.5212 0.2707-0.4755-0.0822 0.515 0.1649 0.701 0.5458 0.7498 0.0944-0.131 0.1797-0.2713 0.204-0.4755-0.0578-0.2346-0.2832-0.3048-0.4082-0.4755 0.0644-0.0464 0.1218-0.0716 0.1726-0.0797a0.2142 0.2142 0 0 1 0.0631-0.0012z m-3.5726 0.4225c0.1189 0.4175 0.2135 1.1727 0.0673 1.77-1.039-0.0245-0.7224-1.581-0.0673-1.77z m3.1327 0c0.2255 0.003 0.481-0.0274 0.475 0.2042-0.0366 0.0975-0.1067 0.1645-0.2042 0.204-0.0853-0.14-0.3287-0.1248-0.2708-0.4082z m1.6925 0.0238c-0.2755 0.0209-0.5396 0.2472-0.535 0.7957 0.2407 0.1188 0.4021 0.3232 0.8165 0.2714 0.6685-0.5656 0.1777-1.1018-0.2815-1.067z m0.0107 0.0429c0.2986 0.0213 0.5146 0.119 0.475 0.4755-0.2194-0.0945-0.2739-0.3567-0.475-0.4755z m1.3617 0.1375c0.393 0.4326 0.4144 1.7184-0.2042 1.9073-0.0243-0.5667-0.061-1.4412 0.2042-1.9073z m-1.4938 0.069c0.0266 0.002 0.0497 0.0214 0.0649 0.0678-0.189 0.1036-0.009 0.4084 0.0702 0.4785-0.2681 0.0396-0.302-0.1527-0.3416-0.3416 0.016-0.0594 0.1267-0.2109 0.2065-0.2047z m0.1321 0.135c0.2133-0.0304 0.3043 0.0606 0.2708 0.2709-0.2133 0.0335-0.3012-0.0575-0.2708-0.2708z m-3.4064 0.8166c-0.0792 0.0122-0.0581 0.1249-0.0673 0.2041 1.5266 0.1828 2.7729 0.6487 4.0861 0.5451-0.2133-0.3504-0.7098-0.1736-1.0206-0.204-0.9446-0.0946-1.8924-0.4537-2.8613-0.475-0.0793 0.0091-0.1217-0.0154-0.137-0.0702z m2.093 1.9014c0.9318 0.0446 2.0293 0.469 2.5412 0.6183 0.1401 0.0396 0.3231-0.0427 0.4755 0 0.4844 0.134 1.1974 0.4724 1.499 0.6826 0.844 0.5911 1.4262 1.807 1.9747 2.7911 0.195 0.3535 0.5148 0.6095 0.6123 0.8867 0.3017 0.8593 0.3501 1.7671 0.7493 2.5198l0.0732 0.341c0.2163 0.7587 0.4269 1.8193 0.5457 2.453-3.0287 0.4297-5.872 0.7495-8.3096 1.0207-2.0232-0.3291-4.1683-0.1735-5.9934-0.341-0.3017-2.3036 0.3993-4.5952 0.2713-6.9474 0.0122-0.192 0.2227-0.1856 0.2714-0.341-0.1737-0.0092-0.3507-0.0122-0.3416-0.2042 0.198-2.1054 2.4071-3.9675 4.6985-3.3368 0.2376-0.0366 0.305-0.1155 0.5457-0.1369a2.8444 2.8444 0 0 1 0.3868-0.006zM13.254 12.3597a1.6087 1.6087 0 0 0-0.3136 0.0226c-0.2255 0.3474-0.1552 0.6615-0.137 1.1581 1.1142 1.1912 1.8694-1.134 0.4506-1.1807z m5.0633 0.0173c-1.3532 0.0321-0.3819 2.6965 0.6837 1.3003 0.253-0.8074-0.1368-1.2554-0.545-1.295a1.1653 1.1653 0 0 0-0.1387-0.0053z m-2.3609 0.0297c-0.2254-0.0106-0.472 0.067-0.7034 0.247-0.0853 0.4174 0.0887 0.9444 0.3416 1.2248 0.518 0.0426 0.9107-0.0429 1.1575-0.2714 0.0943-0.727-0.2996-1.177-0.7957-1.2004z m-7.3062 0.1095c0.3595 1.0939-0.0454 2.523-0.0667 3.6779-0.5667-0.0915-1.0694-0.2464-1.7032-0.2708 0.329-1.3955 0.6638-2.7885 1.7699-3.407z m4.8847 0.0673a0.264 0.264 0 0 1 0.1523 0.0702c0.1615 0.1615-0.0121 0.3349 0 0.5451-0.2772 0.067-0.2741-0.006-0.6123 0 0.0487-0.2529-0.116-0.2922-0.0673-0.5451 0.1943 0.0229 0.3695-0.088 0.5273-0.0702z m2.2995 0.003c0.5982-0.0527 0.9245 0.8043-0.103 0.7498-0.0761-0.2194-0.2739-0.3172-0.341-0.5457 0.1538-0.1314 0.306-0.192 0.444-0.2041z m2.5793 0.013c0.2693-0.001 0.52 0.1634 0.52 0.5327-0.2345 0.2742-0.4719 0.5575-0.9533 0.4082-0.0305-0.1645 0.1215-0.1496 0.0667-0.3416-0.1341 0.003-0.085 0.1863-0.2708 0.1375-0.0857-0.461 0.291-0.7355 0.6374-0.7368z m3.107 0.2583c1.0421 0.5028 1.6454 1.4442 2.1115 2.5198-0.4966 0.0426-0.7891-0.1185-1.295-0.0667-0.1035-0.5759-0.4474-0.9112-0.4748-1.5663 0.1797-0.003 0.4021 0.0362 0.4082-0.1375-0.0487-0.262-0.3507-0.4692-0.5457-0.2041-0.0091-0.2408-0.195-0.3045-0.2041-0.5452zM8.238999999999999 13.062c-0.0883 0.2894-0.0607 0.5207 0.2714 0.545 0.1067-0.1919-0.0181-0.28 0.0702-0.545z m5.7227 0.204c0.003 0.2073-0.1432 0.2651-0.2041 0.4083-0.384 0.0214-0.7133-0.015-0.7499-0.341 0.3626 0.0762 0.6737 0.0912 0.954-0.0672z m2.5864 0v0.341c-0.2712 0.125-1.2094 0.2804-0.9534-0.204 0.2468 0.3077 0.7675 0.0337 0.9534-0.137z m2.3162 0.2042c-0.0275 0.387-0.762 0.582-0.954 0.2041 0.4113 0.1097 0.7072 0.0122 0.954-0.204z m-6.332 1.3652c0.1279 0.5028-0.1341 0.6338-0.2042 1.0909 0.9263 0.067 1.9806-0.0213 2.791-0.003 0.0428-0.061 0.0824-0.1223 0-0.1375H12.870899999999999c2.5534-0.5271 4.2109-0.3652 7.014-0.2708 0.0763 0.2133-0.0186 0.1795 0.0667 0.341-1.6149 0.326-3.251-0.402-4.8323 0.0673 1.5631-0.0518 3.1962 0.1641 4.9026 0.2708 0.0365-0.3474 0.0883-0.8317 0-1.2248-0.2468-0.064-0.07 0.2929-0.2042 0.3416-1.8647-0.1402-4.6772-0.125-7.0813 0.2041-0.0944-0.0883-0.0666-0.2957-0.0666-0.4755 1.4595-0.2468 4.305 0.253 5.4477-0.2041-1.7002 0.1036-3.7235-0.0122-5.5852 0z m6.5432 0.0637c-0.3249-0.0107-0.6745 0.0136-0.8909 0.003 0.3108 0.3016 1.2095 0.0152 1.633 0.204-0.1173-0.1507-0.4172-0.1964-0.742-0.207z m3.8957 0.6153c0.3183 0.0018 0.6615 0.0695 0.7986 0.2048-0.46-0.1585-0.911 0.1672-1.295-0.1375 0.1234-0.0457 0.3054-0.0683 0.4964-0.0673z m0.1505 0.325c0.2297-0.0027 0.459 0.023 0.5779 0.0839-0.2072 0.1432-1.0789 0.3626-1.1581 0 0.1204-0.0503 0.3506-0.0813 0.5802-0.084z m0.9641 0.244c0.2443-0.0384 0.3716 0.3498 0.3636 0.6564-0.2529 0.134-0.4389-0.3077-0.4755-0.6124 0.0397-0.0244 0.077-0.0386 0.112-0.044z m-17.2756 0.044c0.4083 0 1.3406 0.0668 1.7032 0.341-0.588-0.0945-1.3833 0.0216-1.7032-0.341z m16.8894 0.1369c0.2133 0.2681 0.25 0.4813 0.2714 0.8165-0.262-0.0549-0.2836-0.7099-0.2714-0.8165z m-0.9504 0.0672h0.2708c0.006 0.3139 0.171 0.463 0.1374 0.8165-0.387-0.0213-0.332-0.4843-0.4082-0.8165z m0.6094 0c0.0396 0.2133 0.3197 0.542 0.1369 0.7493-0.1067-0.1463-0.3106-0.5482-0.137-0.7493z m-16.039 0.1298c0.4297 0.0108 0.9446 0.1147 1.057 0.3451-0.5455-0.0883-1.134-0.1336-1.6337-0.2707 0.0914-0.0538 0.3189-0.081 0.5767-0.0744z m-0.25 0.3433c0.1167 0.0012 0.2099 0.028 0.219 0.1423-0.1493 0.1706-0.0765 0.5575-0.3416 0.6124 0-0.1128-0.1888-0.0394-0.204-0.137 0.0944-0.1766 0.2498-0.2954 0.204-0.6123a1.524 1.524 0 0 1 0.1226-0.0054z m-0.3933 0.0054c-0.0183 0.2529-0.1069 0.4354-0.2714 0.5451-0.0213-0.2925-0.006-0.5512 0.2714-0.5451z m1.2247 0.1339c0.1158 0.1371 0.0973 0.5514-0.0672 0.6124-0.1432-0.0762-0.274-0.649 0.0672-0.6124z m0.4083 0.0702c0.0152 0.125 0.1767 0.4507 0 0.5452-0.0214-0.1189-0.3139-0.5238 0-0.5452z m14.5738 2.0413c0.2255 0.0244 0.1064 0.393 0.1369 0.6124-2.3797 0.582-4.5644 0.7128-7.1635 1.0997l-1.2158-0.0089c-1.7916 0.131-4.171 0.1646-5.856-0.2041-0.0334-0.2407-0.1007-0.4446-0.0672-0.7493 2.2822-0.1676 4.6439 0.3136 6.9474 0.1369 2.526-0.195 4.9512-0.7831 7.2182-0.8867z m-0.4083 0.1369c-0.0548 0.0365-0.1096 0.0703-0.204 0.0672 0.006 0.198 0.0239 0.3837 0.2707 0.341 0.0091-0.1676 0.0126-0.329-0.0667-0.4082z m-2.6572 0.3416c-0.0152 0.2437 0.0979 0.3562 0.3416 0.341 0.0518-0.061 0.0728-0.152 0.0667-0.2708-0.0792-0.0823-0.2407-0.0794-0.4083-0.0702zM9.329999999999998 19.942c-0.0457 0.2285 0.116 0.25 0.2714 0.2714 0.0548-0.061 0.0763-0.1526 0.0702-0.2714z m6.9474 0.0673c-0.1006 0.2132-0.0033 0.2772 0.1369 0.4082 0.1736-0.006 0.1339-0.2285 0.1339-0.4082z m-4.1129 0.0743c-0.057-0.0037-0.1187 0.0145-0.1773 0.0625-0.0152 0.2438 0.0972 0.3563 0.341 0.341 0.1348-0.185 0.0074-0.3923-0.1637-0.4035z m8.8113 0.1964c0.0092 0.521-0.0824 0.5822-0.0702 1.1581-1.0207 0.0701-1.4718-0.0978-2.3828-0.1374 0.3108-0.9111 1.5511-0.8714 2.453-1.0207z m-5.5822 0.6826c0.0457 0.2468 0.0947 0.4935 0.0673 0.8165-0.8684 0.0275-1.7373-0.222-2.5203-0.0666-0.0762-0.2133-0.0061-0.1554 0-0.4083 0.6033-0.4022 1.9137-0.2288 2.453-0.3416z m3.9064 0.6636c0.1382-0.0064 0.3265 0.0284 0.451 0.153h-0.204c-0.5694-0.0172-0.4774-0.1424-0.247-0.153z m1.3824 0.0036c0.1326-0.008 0.2384 0.0107 0.2262 0.1493-0.0762 0.0914-0.5362-0.0058-0.6124-0.1368 0.0945 0.0304 0.2537-0.0045 0.3862-0.0125z m-6.395 0.2154c0.1815 0.0066 0.3368 0.0398 0.4236 0.138-0.2468-0.003-0.5362 0.0369-0.6123-0.1368a2.6671 2.6671 0 0 1 0.1886-0.0012z m5.2935 0.063c0.4243-0.0022 0.8604 0.043 1.261 0.2792-0.9171-0.2042-2.0204 0.11-2.453-0.2708 0.355 0.0442 0.7677-0.006 1.192-0.0083z m-6.0756 0.1756c0.6793-0.0043 1.6155 0.0968 2.0222 0.378-0.972-0.125-1.743 0.0215-2.587-0.341 0.1402-0.0222 0.3384-0.0355 0.5648-0.037z m5.5144 0.1714c0.6914 0.0055 1.3525 0.0443 1.8919 0.2065-0.1158 0.1798-0.009 0.5853-0.137 0.7499-0.6367-0.067-1.828 0.128-2.5196 0-0.0366-0.3779 0.0361-0.6432 0.0666-0.954 0.2339-0.0023 0.4676-0.0042 0.698-0.0024z m-6.0119 0.1363c0.5729 0.1036 1.9195 0.189 2.5197 0.2744-0.0883 0.4936 0.1676 0.9445 0 1.295-0.5972 0.3534-1.5266 0.378-2.3828 0.4754-0.1463-0.5362-0.3167-1.411-0.1369-2.0448z m6.9474 1.0909c0.9537-0.0427 1.4072 0.7652 1.2914 1.4294-0.2072 1.2036-2.5014 1.4865-3.132 0.475 0.009-0.7161 0.0033-1.4503 0.5456-1.633 0.064 0.4905-0.2193 0.591-0.204 0.8867 0.0578 1.2096 2.2818 1.3774 2.4524 0.2713 0.131-0.8562-0.6213-0.8993-0.9534-1.4294z m-0.7558 0.2404c0.0436-0.0153 0.0947 0.015 0.1036 0.0607 0.0036 0.0042 0.0088 0.0046 0.0119 0.0101 0.0365 0.07 0.043 0.1458 0.0583 0.222 0.0091 0.0457-0.0217 0.0765-0.0613 0.0887a0.9213 0.9213 0 0 1-0.2041 0.0333c-0.061 0.003-0.1189-0.0612-0.0762-0.119 0.0548-0.0762 0.0884-0.161 0.125-0.2524a0.0721 0.0721 0 0 1 0.0428-0.0434z m1.0296 0.3053c0.265 0.006 0.5516 0.4539 0.4755 1.0206-0.2773 0.4875-1.5542 0.5269-1.5664 0.341 0.7953 0.0914 1.0362-0.3714 1.3622-0.7492 0.0214-0.2743-0.442-0.4174-0.2713-0.6124z m-0.3636 0.1654c0.1848-0.0061 0.3668 0.2504 0.4308 0.447-0.3108 0.2102-0.5 0.5453-0.954 0.6123-0.1706-0.1676-0.4478-0.2345-0.4082-0.6123 0.4692-0.0397 0.4177-0.1583 0.7498 0.0672 0.1493-0.1432-0.0335-0.195 0-0.4082 0.058-0.0724 0.12-0.104 0.1816-0.106z m-5.2912 0.31c0.8866 0.0245 1.1762 0.6398 1.292 1.429 0.0304 0.1889-0.2531 0.064-0.2714 0.204 0.0792 0.0336 0.1554 0.073 0.2041 0.137-0.46 0.8927-3.1687 1.4504-2.7238-0.4083 0.07 1.1761 1.779 0.9509 2.2483 0.2714 0.2255-0.9568-0.4384-1.0389-0.7492-1.633z m-0.4755 0.5452c0.088 0.0907 0.2554 0.1019 0.2755 0.2625a0.313 0.313 0 0 1-0.0012 0.0785c-0.131 0.128-0.171 0.0061-0.3416 0 0.0366-0.1005-0.079-0.3532 0.0673-0.341z m0.545 0c1.4017 0.5515-0.1582 2.0504-1.2247 1.2277-0.0944-0.265-0.3105-0.9659 0.0673-1.0908 0.1188 0.198 0.1612 0.4758 0.1369 0.817 0.2986 0.4724 1.3837 0.3046 1.4294-0.2713-0.2803-0.0762-0.1315-0.4784-0.4088-0.6826z m0.0673 0.4755c0.0945 0.0884 0.0672 0.2957 0.0703 0.4785-0.3322 0.0426-0.71 0.2373-0.8868-0.1375 0.4175 0.0305 0.4905-0.28 0.8165-0.341z m8.503 0.532c-0.0694-0.005-0.1785 0.0148-0.3308 0.0834 0.393 0.1713 0.5394-0.0684 0.3309-0.0834Z" /></svg>