<svg xmlns="http://www.w3.org/2000/svg" width="100%" height="100%" viewBox="-3.36 -3.36 30.72 30.72"><path d="M14.822 10.307a3.018 3.018 0 111.32-4.038 3.006 3.006 0 01-1.32 4.044zM11.601.572c2.47-.901 5.293-.852 7.407.982a3.587 3.587 0 011.023 1.37c.213.69-.749-.07-.88-.168a9.407 9.407 0 00-2.15-1.095C12.837.386 8.898 2.707 6.464 6.315a19.504 19.504 0 00-2.248 5.126 2.918 2.918 0 01-.213.642c-.107.204-.05-.547-.05-.572a15.82 15.82 0 01.43-2.239C5.513 5.34 8.012 2.065 11.602.565zm.036 20.992V12.8c.25.025.487.037.737.037a6.167 6.167 0 003.218-.895v9.62c0 .822-.15 1.43-.52 1.826a1.874 1.874 0 01-1.452.61 1.825 1.825 0 01-1.426-.61c-.368-.403-.56-1.012-.56-1.824z"/></svg>