<svg xmlns="http://www.w3.org/2000/svg" width="100%" height="100%" viewBox="0 0 30.72 30.72"><path d="M15.36 3.3599999999999994C8.777 3.3599999999999994 3.3599999999999994 8.777 3.3599999999999994 15.36s5.417 12 12 12 12-5.417 12-12S21.942999999999998 3.3599999999999994 15.36 3.3599999999999994z m0 2.478c5.256 0 9.522 4.266 9.522 9.522S20.616 24.881999999999998 15.36 24.881999999999998 5.837999999999999 20.616 5.837999999999999 15.36c0-0.885 0.12-1.741 0.347-2.554a4.76 4.76 0 0 0 3.925 2.066 4.764 4.764 0 0 0 4.762-4.762 4.758 4.758 0 0 0-2.067-3.925A9.526 9.526 0 0 1 15.36 5.837999999999999Z" /></svg>