<svg xmlns="http://www.w3.org/2000/svg" width="100%" height="100%" viewBox="0 0 30.72 30.72"><path d="M4.334999999999999 5.969999999999999v18.782h11.411c6.89 0 10.64-3.21 10.64-9.415 0-6.377-4.064-9.367-10.64-9.367H4.334999999999999z m11.411-0.975C25.851 4.994999999999999 27.36 11.475 27.36 15.337c0 6.7-4.124 10.39-11.614 10.39H3.3599999999999994V4.994999999999999h12.386zM5.866 16.717h3.653v6.503H5.866zM9.962 13.442a2.27 2.27 0 1 1-4.54 0 2.27 2.27 0 0 1 4.54 0m1.396-1.057v2.12h0.65c0.45 0 0.867-0.13 0.867-1.077 0-0.924-0.463-1.043-0.867-1.043h-0.65z m10.85-1.054h1.053v3.174h1.56c-0.428-5.758-4.958-7.002-9.074-7.002H11.358999999999998v3.83h0.65c1.183 0 1.92 0.803 1.92 2.095 0 1.333-0.719 2.129-1.92 2.129h-0.65v7.665h4.388c6.692 0 9.021-3.107 9.103-7.665h-2.64V11.329999999999998z m-2.93 2.358h0.76l-0.348-1.195h-0.063l-0.35 1.195z m-1.643 1.87l1.274-4.228h1.497l1.274 4.227h-1.095l-0.239-0.818H18.97l-0.24 0.818h-1.095z m-0.505-1.054v1.052h-2.603V11.332999999999998h2.519v1.052h-1.467v0.49h1.387v1.05H15.58v0.58h1.55z" /></svg>