<svg xmlns="http://www.w3.org/2000/svg" width="100%" height="100%" viewBox="0 0 30.72 30.72"><path d="M8.866 9.235c-0.492 0-0.936-0.453-0.936-0.954 0-1.155 2.858-2.01 6.11-2.01 0.295 0 0.492 0 0.492-0.25 0-0.452-0.985-0.602-0.985-1.355 0-0.804 0.936-1.306 2.118-1.306 1.183 0 2.119 0.502 2.119 1.306 0 0.753-0.985 0.853-0.985 1.355 0 0.151 0.148 0.251 0.492 0.251 3.252 0 6.16 0.803 6.16 2.009a0.944 0.944 0 0 1-0.937 0.953H8.866999999999999zM23.598 13.802999999999999c1.183 0.753 1.626 2.109 1.43 3.365l-1.38 7.58C23.352 26.256999999999998 22.07 27.36 20.541999999999998 27.36H10.886C9.36 27.36 8.078 26.256 7.781999999999999 24.749l-1.38-7.581a3.307 3.307 0 0 1 1.479-3.315c0.69-0.501 0.837-1.355 0-1.656-1.183-0.452-0.937-1.908 0.246-1.908h7.193c1.133 0 2.514 0.853 2.514 3.615 0 2.762-1.282 2.51-1.282 4.468 0 0.854 0.69 1.758 1.527 1.859 1.43 0.15 2.267-0.402 2.267-2.41 0-2.06-1.182-3.013-1.182-4.72 0-2.059 1.28-2.863 2.118-2.863h2.07c1.182 0 1.429 1.457 0.246 1.909-0.837 0.35-0.69 1.205 0 1.656z" /></svg>