<svg xmlns="http://www.w3.org/2000/svg" width="100%" height="100%" viewBox="0 0 30.72 30.72"><path d="M3.5999999999999996 17.762h1.433c0.12 0 0.239-0.1 0.239-0.243V13.229999999999999a0.243 0.243 0 0 0-0.244-0.242H3.5999999999999996a0.237 0.237 0 0 0-0.24 0.24v4.294c0 0.169 0.148 0.239 0.24 0.239m2.566-4.424l1.01 3.737c0.064 0.25 0.244 0.435 0.391 0.53 0.17 0.11 0.338 0.156 0.61 0.156h1.119c0.474 0 0.833-0.294 0.963-0.794l0.91-3.62a0.431 0.431 0 0 0 0.014-0.108 0.238 0.238 0 0 0-0.24-0.25h-0.827a0.24 0.24 0 0 0-0.235 0.182l-0.718 3.135c-0.022 0.108-0.076 0.131-0.134 0.131a0.117 0.117 0 0 1-0.112-0.1l-0.762-3.11c-0.02-0.157-0.122-0.239-0.242-0.239H6.389999999999999c-0.188 0-0.254 0.17-0.243 0.273 0.001 0.022 0.013 0.043 0.019 0.077m7.728 1.49l-0.002-0.413c0-0.15 0.116-0.25 0.24-0.25h1.7a0.24 0.24 0 0 0 0.238-0.24l0.001-0.695a0.243 0.243 0 0 0-0.244-0.242H12.93c-0.468 0-0.948 0.364-0.948 1.024v2.79c0 0.602 0.508 0.959 0.945 0.959h2.93c0.124 0 0.249-0.093 0.243-0.265v-0.69a0.24 0.24 0 0 0-0.24-0.24h-1.7c-0.159 0-0.266-0.093-0.266-0.243v-0.397h1.494a0.242 0.242 0 0 0 0.238-0.251v-0.61a0.24 0.24 0 0 0-0.244-0.238h-1.488z m5.511-0.664a11.9 11.9 0 0 1 1.283 0 0.238 0.238 0 0 0 0.239-0.239v-0.005l0.005-0.762a0.239 0.239 0 0 0-0.217-0.238 12.611 12.611 0 0 0-0.893-0.024c-0.42 0-0.833 0.022-1.237 0.069l0.025-0.002c-0.879 0.07-1.595 0.72-1.756 1.57a5.162 5.162 0 0 0-0.074 0.82c0 0.27 0.02 0.527 0.058 0.776a1.943 1.943 0 0 0 1.63 1.622l-0.026-0.004a9.788 9.788 0 0 0 2.303 0.053 0.239 0.239 0 0 0 0.216-0.236l-0.001 0.017 0.002-0.766a0.239 0.239 0 0 0-0.239-0.239h-0.007c-0.239 0.012-0.479 0.012-0.722 0.007a12.965 12.965 0 0 1-0.61-0.021 0.675 0.675 0 0 1-0.588-0.594 6.287 6.287 0 0 1-0.022-1.131 0.678 0.678 0 0 1 0.631-0.673M27.36 15.41c0.003-0.434-0.06-0.83-0.178-1.195a1.916 1.916 0 0 0-1.59-1.285 9.213 9.213 0 0 0-1.085-0.062c-0.406 0-0.76 0.01-1.156 0.06a1.932 1.932 0 0 0-1.6 1.392 3.792 3.792 0 0 0 0.029 2.172 1.906 1.906 0 0 0 1.596 1.306c0.342 0.037 0.684 0.054 1.037 0.054 0.443 0 0.805 0 1.232-0.058 0.85-0.153 1.452-0.752 1.613-1.511 0.065-0.282 0.1-0.57 0.102-0.873m-1.91-0.02c0 0.222-0.01 0.434-0.037 0.65a0.677 0.677 0 0 1-0.62 0.565 8.625 8.625 0 0 1-0.541 0.007 0.674 0.674 0 0 1-0.664-0.576 5.302 5.302 0 0 1-0.014-1.337 0.677 0.677 0 0 1 0.625-0.601 8.615 8.615 0 0 1 0.532-0.004c0.353 0 0.643 0.268 0.675 0.612 0.03 0.223 0.044 0.452 0.044 0.684" /></svg>