<svg xmlns="http://www.w3.org/2000/svg" width="100%" height="100%" viewBox="0 0 30.72 30.72"><path d="M17.67 12.947999999999999v0.005c-0.077-0.048-0.227-0.07-0.42-0.07v4.815c0.27 0 0.44-0.06 0.5-0.165 0.062-0.104 0.095-0.405 0.095-0.885v-2.866c0-0.33-0.004-0.54-0.033-0.63-0.022-0.096-0.067-0.163-0.14-0.204zM25.776 3.3599999999999994H4.9799999999999995C4.101999999999999 3.4199999999999995 3.4199999999999995 4.103999999999999 3.3599999999999994 4.9559999999999995V25.74c0.06 0.874 0.712 1.542 1.555 1.617 0.015 0.003 0.03 0.003 0.045 0.003h20.845c0.88-0.088 1.55-0.826 1.555-1.71V5.069999999999999C27.36 4.18 26.665 3.4299999999999993 25.776 3.3599999999999994zM8.152 18.985999999999997H6.247V11.62h1.905v7.366z m6.54-0.002H13.03v-4.97L12.36 18.982999999999997H11.172l-0.698-4.86-0.007 4.86H8.8V11.62h2.468c0.083 0.523 0.16 1.048 0.23 1.574l0.27 1.87 0.442-3.444h2.483v7.364z m4.977-2.18c0 0.655-0.044 1.094-0.104 1.32-0.062 0.22-0.17 0.4-0.326 0.52-0.15 0.13-0.34 0.218-0.57 0.266-0.223 0.045-0.57 0.075-1.02 0.075l-0.004-0.002H15.34V11.62h1.426c0.914 0 1.45 0.047 1.77 0.128 0.325 0.09 0.575 0.225 0.745 0.42 0.165 0.18 0.273 0.404 0.313 0.645 0.05 0.235 0.076 0.705 0.076 1.402v2.588z m4.944 0.475c0 0.45-0.045 0.764-0.09 0.99-0.06 0.224-0.195 0.404-0.405 0.568-0.226 0.166-0.48 0.24-0.78 0.24-0.22 0-0.5-0.06-0.68-0.136-0.19-0.094-0.358-0.237-0.515-0.427l-0.116 0.47h-1.717V11.62l-0.02-0.003h1.8v2.4c0.15-0.175 0.315-0.31 0.51-0.4 0.196-0.083 0.466-0.127 0.69-0.127 0.226-0.003 0.45 0.036 0.66 0.115 0.17 0.07 0.32 0.185 0.436 0.33 0.09 0.125 0.15 0.27 0.18 0.42 0.03 0.138 0.044 0.43 0.044 0.87v2.054zM22.439999999999998 14.565c-0.12 0-0.194 0.04-0.225 0.12-0.03 0.08-0.06 0.29-0.06 0.624v1.946c0 0.324 0.03 0.533 0.06 0.623 0.04 0.086 0.13 0.14 0.226 0.134 0.12 0 0.272-0.047 0.3-0.14 0.03-0.097 0.046-0.32 0.046-0.674l0.03-0.002v-1.89c0-0.303-0.015-0.508-0.06-0.603-0.044-0.1-0.195-0.14-0.315-0.14z" /></svg>