<svg xmlns="http://www.w3.org/2000/svg" width="100%" height="100%" viewBox="0 0 30.72 30.72"><path d="M15.36 3.3599999999999994C7.851999999999999 6.106 2.4749999999999996 14.671999999999999 3.861999999999999 23.323 3.861999999999999 23.323 8.349 27.36 15.36 27.36c7.01 0 11.496-4.037 11.496-4.037C28.242 14.671999999999999 22.868 6.106 15.36 3.3599999999999994z m0 1.846s2.032 0.726 3.945 2.488c0.073 0.067 0.13 0.163 0.129 0.277-0.001 0.168-0.128 0.287-0.301 0.287a0.496 0.496 0 0 1-0.137-0.027 6.537 6.537 0 0 0-2.316-0.4 6.625 6.625 0 0 0-3.914 1.273l-0.002 0.002a7.978 7.978 0 0 1 6.808 0.768C23.84 12.469999999999999 25.957 17.539 25.262 22.36c0 0-1.646 1.396-4.129 2.172a0.369 0.369 0 0 1-0.303-0.026c-0.144-0.084-0.185-0.255-0.1-0.404a0.492 0.492 0 0 1 0.094-0.103 6.562 6.562 0 0 0 1.504-1.809 6.632 6.632 0 0 0 0.856-4.027l-0.002-0.002a7.949 7.949 0 0 1-3.838 5.383c-4.42 2.552-9.99 1.882-13.885-1.184 0 0-0.388-2.124 0.182-4.662a0.373 0.373 0 0 1 0.176-0.25c0.145-0.084 0.31-0.033 0.396 0.117a0.448 0.448 0 0 1 0.045 0.13c0.126 0.762 0.405 1.5 0.814 2.208a6.637 6.637 0 0 0 3.059 2.756 7.96 7.96 0 0 1-1.672-2.033 7.928 7.928 0 0 1-1.066-4.205C7.4879999999999995 11.407 10.824 7.018999999999999 15.36 5.2059999999999995z m0 7.623c-2.726 0-5.117 0.93-6.483 2.332-0.064 0.32-0.1 0.65-0.1 0.984 0 3.146 2.947 5.695 6.583 5.695 3.635 0 6.584-2.549 6.584-5.695 0-0.334-0.038-0.664-0.102-0.984C20.476 13.76 18.084 12.828999999999999 15.36 12.828999999999999z m0 0.693a3.12 3.12 0 0 1 0 6.238 3.118 3.118 0 0 1-2.872-4.336 1.3 1.3 0 1 0 1.657-1.656A3.108 3.108 0 0 1 15.36 13.522z" /></svg>