<svg xmlns="http://www.w3.org/2000/svg" width="100%" height="100%" viewBox="0 0 30.72 30.72"><path d="M12.211 21.919999999999998s-0.917 0.534 0.653 0.714c1.902 0.218 2.874 0.187 4.969-0.211 0 0 0.552 0.346 1.321 0.646-4.699 2.013-10.633-0.118-6.943-1.149M11.636 19.293s-1.028 0.761 0.542 0.924c2.032 0.209 3.636 0.227 6.413-0.308 0 0 0.384 0.389 0.987 0.602-5.679 1.661-12.007 0.13-7.942-1.218M16.476 14.834999999999999c1.158 1.333-0.304 2.533-0.304 2.533s2.939-1.518 1.589-3.418c-1.261-1.772-2.228-2.652 3.007-5.688 0-0.001-8.216 2.051-4.292 6.573M22.689999999999998 23.864s0.679 0.559-0.747 0.991c-2.712 0.822-11.288 1.069-13.669 0.033-0.856-0.373 0.75-0.89 1.254-0.998 0.527-0.114 0.828-0.093 0.828-0.093-0.953-0.671-6.156 1.317-2.643 1.887 9.58 1.553 17.462-0.7 14.977-1.82M12.652 16.57s-4.362 1.036-1.544 1.412c1.189 0.159 3.561 0.123 5.77-0.062 1.806-0.152 3.618-0.477 3.618-0.477s-0.637 0.272-1.098 0.587c-4.429 1.165-12.986 0.623-10.522-0.568 2.082-1.006 3.776-0.892 3.776-0.892M20.476 20.944c4.503-2.34 2.421-4.589 0.968-4.285-0.355 0.074-0.515 0.138-0.515 0.138s0.132-0.207 0.385-0.297c2.875-1.011 5.086 2.981-0.928 4.562 0-0.001 0.07-0.062 0.09-0.118M17.761 3.3599999999999994s2.494 2.494-2.365 6.33c-3.896 3.077-0.888 4.832-0.001 6.836-2.274-2.053-3.943-3.858-2.824-5.539 1.644-2.469 6.197-3.665 5.19-7.627M13.094 27.284c4.322 0.277 10.959-0.153 11.116-2.198 0 0-0.302 0.775-3.572 1.391-3.688 0.694-8.239 0.613-10.937 0.168 0-0.001 0.553 0.457 3.393 0.639" /></svg>