<svg xmlns="http://www.w3.org/2000/svg" width="100%" height="100%" viewBox="0 0 30.72 30.72"><path d="M8.600999999999999 9.969a6.93 6.93 0 0 0-0.293 0.01s-1.6 0.072-2.1 0.798c0 0-0.085 0.098-0.037 0.203 0 0 0.01 0.03-0.01 0.05 0 0-0.27 0.24-0.406 0.455-0.048 0.078-0.102 0.209 0 0.3 0 0 0.045 0.035 0.063 0.065 0.039 0.064 0.075 0.159 0.123 0.215 0.07 0.084 0.211 0.228 0.41 0.193 0.073-0.013 0.09-0.04 0.09-0.04 0.1 0.099 0.26 0.096 0.26 0.096-0.02-0.064-0.09-0.188-0.1-0.263a0.421 0.421 0 0 1 0.015-0.162 0.701 0.701 0 0 1 0.145-0.271c0.054-0.054 0.192-0.115 0.303-0.038 0.088 0.063 0.194 0.268 0.106 0.56 0 0.022-0.1 0.23-0.205 0.26 0 0-0.01 0.004-0.03 0.004-0.07 0-0.2-0.073-0.2-0.073s0 0.018 0.015 0.094c0.012 0.043 0.027 0.09 0.04 0.127 0 0-0.025 0.046-0.042 0.072-0.025 0.045-0.046 0.131 0.01 0.17 0 0 0.23 0.157 0.455 0.171 0.154 0.01 0.212-0.095 0.212-0.095 0.114-0.156 0.2-0.29 0.32-0.399 0.327-0.3 0.786-0.38 0.786-0.38 0.03-0.004 0.533-0.144 1.386 0.539-0.244 0.02-0.534 0.078-0.756 0.117-0.632 0.113-1.037 0.71-1.155 0.952-0.307 0.633 0.32 0.851 0.32 0.851 0.01-0.006 0.6-0.052 0.886-0.683 0 0 0.104-0.279 0.383-0.188 0.182 0.059 1.79 0.62 2.152 0.716 0 0 1.077 0.28 1.482-0.215 0.649 0.213 1.257 0.316 2.85 0.11 0.277-0.036 0.495-0.027 0.495-0.027 0.372 0.027 0.712 0.278 0.815 0.442 0.42 0.671 0.95 2.003 2.796 1.841l0.835-0.076c0.51-0.03 0.924-0.05 1.345 0.172 0.183 0.096 0.285 0.131 0.596 0.428 0.425 0.404 0.816 0.842 1.336 0.603 0.185-0.085 0.393-0.415 0.393-0.415a0.598 0.598 0 0 0-0.253-0.419c0.473 0.113 1.54 0.185 1.952-0.536 0.107-0.168 0.118-0.318 0.078-0.408-0.113-0.253-0.426-0.17-0.426-0.17-0.148 0.03-0.317 0.2-0.568 0.274-0.538 0.16-0.968-0.026-0.968-0.026-0.829-0.359-3.493-1.884-4.848-2.55 0 0-1.555-0.78-3.839-1.684 0 0-4.148-1.823-7.212-1.77z m0 0.136c3-0.051 7.113 1.739 7.154 1.758v0.001c0.368 0.146 0.716 0.289 1.043 0.425l-0.475-0.188a43.23 43.23 0 0 0-1.828-0.645c-1.544-0.533-2.22-0.627-2.267-0.633a5.54 5.54 0 0 0-0.256-0.038l-0.278-0.032 0.154 0.249c-1.09-0.771-2.395-0.81-2.459-0.812-0.263 0-0.492 0.075-0.67 0.16l0.089-0.165-0.216-0.01a6.333 6.333 0 0 0-0.901 0.018 5.1 5.1 0 0 1 0.908-0.088z m-0.319 0.198c0.095 0 0.197 0.003 0.307 0.008l-0.036 0.067c-0.077 0.146-0.385 0.448-0.892 0.336 0 0 0 0.226 0.555 0.307 0 0 0.497 0.088 1.341 0.767 0 0-0.403-0.802-1.088-1.01 0 0-0.086-0.018-0.044-0.072 0 0 0.404-0.38 0.967-0.38 0 0 1.754 0.038 2.869 1.204 0 0-0.05-0.203-0.225-0.49l-0.073-0.12s0.067 0.008 0.25 0.038c0 0 0.67 0.083 2.243 0.626 0 0 1.179 0.388 1.824 0.643 0.97 0.387 3.398 1.327 4.947 2.172 0.276 0.15 3.077 1.61 3.077 1.61 0.775 0.349 1.312 0.137 1.312 0.137 0.175-0.066 0.492-0.31 0.63-0.172 0.071 0.071 0.081 0.167 0.047 0.26-0.04 0.14-0.24 0.328-0.483 0.435-0.255 0.114-0.787 0.144-1.094 0.094 0 0-0.596-0.06-1.117-0.605-0.165-0.172-0.367-0.367-0.554-0.559a1.038 1.038 0 0 0-0.62-0.333c-0.35-0.047-1.205-0.07-1.526-0.177-0.215-0.072-0.474-0.217-0.819-0.728-0.166-0.244-0.283-0.311-0.509-0.455 0 0 0.173 0.138 0.271 0.312 0.142 0.252 0.213 0.435 0.29 0.57 0.077 0.135 0.164 0.254 0.295 0.36 0.164 0.131 0.266 0.156 0.443 0.185 0.17 0.028 0.742 0.023 1.232 0.016 0.483-0.008 0.699 0.148 0.857 0.282 0.147 0.124 0.4 0.477 0.554 0.632 0.184 0.184 0.32 0.372 0.684 0.556 0.127 0.064 0.334 0.222 0.323 0.374-0.164 0.164-0.367 0.207-0.855 0.076 0.035 0.034 0.29 0.303 0.727 0.176a0.558 0.558 0 0 1-0.396 0.15c-0.458-0.026-0.906-0.59-1.158-0.798-0.19-0.158-0.213-0.197-0.537-0.422-0.493-0.341-1.598-0.245-1.598-0.245l-0.812 0.042c-1.58 0.12-2.244-1.28-2.419-1.572a2.422 2.422 0 0 0-0.168-0.25c-0.08-0.108-0.512-0.668-0.949-0.852 0 0 0.43 0.37 0.404 0.614 0 0-0.178-0.083-0.662-0.014-2.081 0.297-2.79-0.224-2.79-0.224 0.097-0.417-0.194-0.845-0.194-0.845 0.16 0.05 1.184 0.396 2.155 0.2 0 0-1.581 0.008-2.69-0.877 0 0 0.69 0.865 0.526 1.431 0 0-0.113 0.603-1.316 0.36-0.129-0.025-0.28-0.068-2.08-0.568-0.424-0.127-0.57 0.075-0.647 0.197 0 0.178-0.213 0.386-0.318 0.45-0.558-0.1-0.336-0.617-0.336-0.617-0.35 0.502 0.017 0.724 0.133 0.74-0.07 0.033-0.135 0.058-0.19 0.078 0 0-0.457-0.271-0.202-0.715 0.355-0.62 0.717-0.819 1.38-0.88 0.29-0.027 0.531-0.048 0.715-0.022 0.48 0.066 0.782 0.338 1.502 0.407-1.528-0.45-1.532-1.335-1.537-1.352V11.86c-0.085 0.292-0.038 0.538 0.037 0.746-0.02-0.008-0.355-0.228-0.483-0.305-0.548-0.335-0.982-0.394-0.982-0.394-0.182-0.023-0.266-0.244-0.266-0.244-0.01-0.011-0.013-0.022-0.02-0.032-0.252-0.432-0.502-0.44-0.502-0.44a0.836 0.836 0 0 1 0.136 0.372c0.01 0.055 0.014 0.157 0.014 0.187 0 0.462-0.54 0.607-0.54 0.607-0.372 0.473-0.353 0.483-0.436 0.495-0.083 0.012-0.265-0.08-0.265-0.08-0.014-0.008-0.018-0.029-0.016-0.042 0-0.029 0.028-0.047 0.028-0.047 0.07-0.055 0.127-0.11 0.127-0.11 0.394-0.403 0.441-0.6 0.393-0.861-0.1-0.524-0.474-0.463-0.474-0.463-0.182 0.018-0.256 0.168-0.256 0.168a4.576 4.576 0 0 0-0.195 0.392c-0.08 0.176-0.164 0.215-0.207 0.223a0.396 0.396 0 0 1-0.065 0.003c-0.127-0.005-0.223-0.121-0.223-0.121-0.01-0.006-0.01-0.013-0.016-0.018-0.116-0.124-0.032-0.287-0.032-0.287 0.156-0.363 0.46-0.416 0.5-0.421l0.182-0.026c0.385-0.065 0.567-0.466 0.567-0.466a2.99 2.99 0 0 0-0.386 0.014c-0.256 0.045-0.343 0.346-0.343 0.345-0.216 0.05-0.21-0.136-0.172-0.193 0.034-0.052 0.16-0.275 0.991-0.467 0 0 0.314-0.095 0.978-0.092z m-0.159 0.12c-0.2 0-0.305 0.112-0.305 0.123 0 0.006 0.027 0.009 0.07 0.01l0.07 0.003a0.79 0.79 0 0 0 0.32-0.083 0.422 0.422 0 0 0 0.092-0.052l-0.245-0.002z m0.164 0.363v0.004c0.03 0.081 0.108 0.11 0.143 0.12v-0.001c0.163 0.05 0.309 0.138 0.437 0.241-0.39-0.218-0.613-0.261-0.628-0.264a1.609 1.609 0 0 1-0.157-0.032 0.987 0.987 0 0 0 0.208-0.068z m-1.364 0.05s-0.05 0.16-0.247 0.194c0 0-0.077 0.018-0.108 0.019l0.021-0.06c0-0.012 0.051-0.138 0.165-0.15 0 0 0.066-0.004 0.169-0.004z m-0.683 0.233a0.213 0.213 0 0 0 0.056 0.047c-0.135 0.057-0.485 0.432-0.485 0.432 0.177-0.262 0.408-0.458 0.41-0.46 0-0.003 0.01-0.006 0.01-0.009 0-0.003 0.01-0.007 0.01-0.01z m0.737 0.315c0.038-0.005 0.217-0.012 0.3 0.27a0.433 0.433 0 0 0-0.14-0.185 0.339 0.339 0 0 0-0.254-0.055 0.2 0.2 0 0 1 0.094-0.03z m-1.282 7.398v0.873c0 0.255-0.056 0.426-0.18 0.55-0.165 0.162-0.437 0.228-0.84 0.228H3.3599999999999994v0.256h1.428c0.677 0 1.156-0.092 1.405-0.347 0.143-0.146 0.212-0.329 0.212-0.63v-0.93z m2.688 0L6.7299999999999995 20.689999999999998h0.412l0.348-0.406h2.104l0.35 0.406h0.796l-1.656-1.907z m4.086 0c-0.483 0-0.772 0.056-1.03 0.2a0.831 0.831 0 0 0-0.432 0.75c0 0.385 0.175 0.666 0.557 0.82 0.229 0.093 0.532 0.137 0.917 0.137h2.055v-0.875h-0.707v0.62H12.696c-0.366 0-0.58-0.053-0.737-0.173-0.15-0.115-0.229-0.289-0.229-0.525 0-0.229 0.075-0.4 0.215-0.513 0.158-0.128 0.365-0.186 0.745-0.186h1.774v-0.255z m5.656 0v0.924c0 0.24-0.03 0.393-0.122 0.52-0.154 0.217-0.397 0.295-0.896 0.295h-0.06c-0.476 0-0.741-0.078-0.895-0.294-0.091-0.128-0.122-0.273-0.122-0.521v-0.923h-0.71v0.95c0 0.246 0.027 0.44 0.15 0.603 0.202 0.264 0.574 0.416 1.6 0.416h0.011c1.032 0 1.402-0.152 1.604-0.416 0.124-0.163 0.15-0.357 0.15-0.603v-0.95z m2.677 0l-1.654 1.907h0.412l0.349-0.406h2.103l0.35 0.406h0.796l-1.656-1.907z m2.986 0v1.908h0.71v-0.661h0.933l1.064 0.66H27.36l-1.117-0.673c0.266-0.009 0.493-0.05 0.667-0.143a0.52 0.52 0 0 0 0.267-0.472c0-0.255-0.114-0.418-0.321-0.51-0.185-0.08-0.413-0.108-0.866-0.108z m0.71 0.24h1.399c0.266 0 0.384 0.026 0.465 0.086 0.077 0.058 0.105 0.146 0.105 0.283v0.036c0 0.123-0.03 0.223-0.12 0.286-0.09 0.062-0.214 0.075-0.441 0.075h-1.408zM8.54 19.06l0.84 0.977H7.701999999999999z m12.419 0l0.84 0.977h-1.68z" /></svg>