<svg xmlns="http://www.w3.org/2000/svg" width="100%" height="100%" viewBox="0 0 30.72 30.72"><path d="M12.956999999999999 15.097c0-0.35-0.065-0.732-0.268-1.025-0.408-0.588-1.283-0.775-1.892-0.405-0.308 0.188-0.48 0.515-0.576 0.851-0.191 0.668-0.104 1.43 0.03 2.1 0.043 0.214 0.088 0.428 0.148 0.639 0.021 0.076 0.031 0.186 0.08 0.25 0.087 0.11 0.297 0.141 0.426 0.12 0.387-0.065 0.291-0.703 0.278-0.974-0.03-0.634-0.218-1.25-0.036-1.881 0.076-0.268 0.225-0.568 0.494-0.684 0.244-0.105 0.49 0.023 0.586 0.261 0.156 0.385 0.117 0.83 0.215 1.23 0.033 0.137 0.07 0.272 0.131 0.399 0.018 0.037 0.043 0.113 0.094 0.108 0.126-0.011 0.304-0.22 0.398-0.298 0.304-0.25 0.616-0.52 0.965-0.705 0.165-0.088 0.435-0.23 0.603-0.08a0.612 0.612 0 0 1 0.108 0.13c0.198 0.31 0.002 0.55-0.127 0.845-0.166 0.38-0.336 0.758-0.577 1.098-0.207 0.293-0.49 0.549-0.655 0.869-0.107 0.205-0.167 0.43-0.123 0.663 0.036 0.188 0.181 0.301 0.373 0.257 0.143-0.033 0.24-0.156 0.322-0.269 0.146-0.202 0.281-0.412 0.426-0.615 0.28-0.393 0.61-0.76 0.846-1.183a3.41 3.41 0 0 0 0.42-1.664c0-0.474-0.171-1.198-0.723-1.298a0.974 0.974 0 0 0-0.326 0.01 1.432 1.432 0 0 0-0.374 0.12 2.715 2.715 0 0 0-0.818 0.637c-0.146 0.16-0.276 0.363-0.449 0.495M12.437999999999999 3.3759999999999994c-0.435 0.058-0.878 0.052-1.315 0.12-0.838 0.129-1.64 0.389-2.425 0.703-0.286 0.114-0.568 0.241-0.845 0.376-0.103 0.05-0.26 0.09-0.343 0.17-0.043 0.041-0.039 0.139-0.044 0.195-0.014 0.156-0.034 0.313-0.05 0.47-0.058 0.605-0.1 1.229-0.013 1.834 0.028 0.195 0.09 0.55 0.33 0.587 0.369 0.058 0.656-0.397 0.837-0.648 0.424-0.586 0.905-1.132 1.6-1.394 0.817-0.308 1.753-0.381 2.618-0.44 2.426-0.167 5.078 0.277 6.865 2.064 0.254 0.254 0.495 0.524 0.7 0.82 0.8 1.159 1.223 2.477 1.427 3.86 0.096 0.65 0.161 1.308 0.013 1.955-0.257 1.122-0.932 2.1-1.706 2.931-0.53 0.57-1.128 1.084-1.749 1.552-0.347 0.261-0.736 0.483-1.062 0.768-0.375 0.329-0.688 0.74-0.925 1.179-0.639 1.181-0.81 2.602-0.622 3.92 0.038 0.27 0.073 0.542 0.134 0.809 0.018 0.08 0.022 0.217 0.073 0.282 0.097 0.122 0.36 0.189 0.508 0.196 0.154 0.007 0.256-0.11 0.294-0.249 0.064-0.236 0.026-0.498-0.012-0.736-0.076-0.487-0.147-0.977-0.125-1.471a3.71 3.71 0 0 1 1.026-2.425c0.643-0.673 1.512-1.061 2.243-1.625 1.474-1.136 2.794-2.668 3.301-4.492a5.194 5.194 0 0 0 0.159-2.015c-0.105-0.849-0.415-1.697-0.708-2.497-0.892-2.437-2.422-4.755-4.851-5.87-0.964-0.443-1.973-0.645-3.016-0.79-0.49-0.068-0.98-0.11-1.472-0.132-0.274-0.012-0.572-0.042-0.845-0.006M8.637 19.156c-0.473 0.068-0.61 0.447-0.523 0.876 0.112 0.548 0.543 0.965 0.97 1.295a6.03 6.03 0 0 0 3.884 1.238c0.538-0.023 1.124-0.112 1.617-0.34 0.265-0.122 0.542-0.563 0.181-0.751a0.59 0.59 0 0 0-0.169-0.051c-0.157-0.026-0.333 0.041-0.482 0.084-0.263 0.075-0.526 0.153-0.797 0.196-0.808 0.13-1.683-0.055-2.352-0.534-0.542-0.387-0.98-0.898-1.393-1.415-0.253-0.316-0.482-0.663-0.936-0.598M8.021999999999998 21.834c-0.12 0.016-0.259 0.011-0.362 0.087-0.215 0.158 0.022 0.476 0.135 0.62 0.328 0.417 0.76 0.763 1.192 1.068a7.832 7.832 0 0 0 4.03 1.442c0.421 0.03 0.85 0 1.267-0.07 0.152-0.026 0.342-0.037 0.482-0.103 0.399-0.186 0.284-0.939-0.072-1.106-0.155-0.073-0.404 0.023-0.567 0.046-0.385 0.054-0.771 0.06-1.158 0.05-1.015-0.025-2.096-0.338-2.98-0.831a5.589 5.589 0 0 1-0.966-0.693c-0.181-0.16-0.368-0.42-0.603-0.502-0.11-0.037-0.284-0.023-0.398-0.008M8.262999999999998 24.09a0.638 0.638 0 0 0-0.413 0.236c-0.078 0.088-0.152 0.167-0.197 0.278-0.246 0.609 0.41 1.183 0.864 1.47 0.504 0.32 1.055 0.558 1.616 0.758 1.266 0.45 2.752 0.739 4.066 0.336 0.391-0.12 0.778-0.338 1.062-0.634 0.16-0.167 0.27-0.419-0.024-0.526-0.174-0.063-0.385 0.098-0.543 0.162a4.57 4.57 0 0 1-1.158 0.312c-0.527 0.064-1.001-0.052-1.508-0.179-0.434-0.108-0.872-0.217-1.291-0.373a4.457 4.457 0 0 1-1.026-0.513c-0.094-0.066-0.206-0.125-0.282-0.211-0.25-0.282-0.439-0.612-0.707-0.88-0.116-0.116-0.281-0.256-0.459-0.236" /></svg>