<svg xmlns="http://www.w3.org/2000/svg" width="100%" height="100%" viewBox="0 0 30.72 30.72"><path d="M27.076 13.285H18.689999999999998l-4.898 4.919h6.727c-0.885 1.975-2.865 3.061-5.16 3.061-3.104 0-5.639-2.67-5.639-5.771C9.719999999999999 12.379999999999999 12.256 9.78 15.36 9.78c1.134 0 2.189 0.295 3.061 0.871l4.542-4.561C20.901 4.390999999999999 18.253 3.3599999999999994 15.36 3.3599999999999994 8.73 3.3599999999999994 3.3599999999999994 8.727 3.3599999999999994 15.36c0 6.623 5.37 12 12 12s12-5.115 12-11.738c0-0.896-0.103-1.35-0.284-2.337z" /></svg>