<svg xmlns="http://www.w3.org/2000/svg" width="100%" height="100%" viewBox="0 0 30.72 30.72"><path d="M11.918999999999999 23.767c-0.63 0-1.08-0.026-1.08-0.026V20.58h1.073c1.19 0 1.95 0.33 1.95 1.426 0 0.93-0.329 1.76-1.943 1.76m0.028-3.965H9.969999999999999V27.36h0.87v-2.797h1.275c1.783 0 2.634-1.096 2.634-2.483 0-1.413-0.871-2.279-2.8-2.279M16.729999999999997 23.931h3.063v-0.812H16.729999999999997v-2.55h3.548v-0.768H15.86v7.42h4.566v-0.768H16.729999999999997zM24.845 23.298v0.753h1.289v1.866c-0.395 0.587-1.452 0.587-1.452 0.587-0.805 0-1.454-0.277-1.927-0.838-0.47-0.558-0.707-1.158-0.707-2.06 0-0.947 0.235-1.675 0.711-2.257 0.482-0.583 1.15-0.905 1.982-0.905 0.427 0 0.884 0.131 1.33 0.405l0.538-0.602c-0.482-0.396-1.096-0.593-1.84-0.593-1.11 0-2.005 0.361-2.656 1.08-0.657 0.715-0.99 1.668-0.99 2.832s0.305 2.043 0.9 2.745c0.591 0.692 1.42 1.047 2.44 1.047 0.46 0 0.932-0.043 1.423-0.197 0.378-0.12 0.508-0.216 1.075-0.216v-3.647zM7.215999999999999 19.801h-0.584v0.768h0.584v3.571c0 1.101 0.033 1.746-0.345 2.124a1.267 1.267 0 0 1-0.865 0.367c-1.362 0-1.412-1.091-1.412-1.091H3.7599999999999993c0.08 1.942 2.362 1.813 2.362 1.813 0.607-0.033 1.087-0.233 1.462-0.609 0.495-0.499 0.507-1.422 0.507-2.192v-4.75zM20.712 3.3599999999999994H6.423v14.282h8.266V11.631h6.023zM21.398 12.427h5.213v5.216h-5.213z" /></svg>