<svg xmlns="http://www.w3.org/2000/svg" width="100%" height="100%" viewBox="0 0 30.72 30.72"><path d="M3.3599999999999994 3.3599999999999994h24v24H3.3599999999999994V3.3599999999999994z m22.034 18.276c-0.175-1.095-0.888-2.015-3.003-2.873-0.736-0.345-1.554-0.585-1.797-1.14-0.091-0.33-0.105-0.51-0.046-0.705 0.15-0.646 0.915-0.84 1.515-0.66 0.39 0.12 0.75 0.42 0.976 0.9 1.034-0.676 1.034-0.676 1.755-1.125-0.27-0.42-0.404-0.601-0.586-0.78-0.63-0.705-1.469-1.065-2.834-1.034l-0.705 0.089c-0.676 0.165-1.32 0.525-1.71 1.005-1.14 1.291-0.811 3.541 0.569 4.471 1.365 1.02 3.361 1.244 3.616 2.205 0.24 1.17-0.87 1.545-1.966 1.41-0.811-0.18-1.26-0.586-1.755-1.336l-1.83 1.051c0.21 0.48 0.45 0.689 0.81 1.109 1.74 1.756 6.09 1.666 6.871-1.004 0.029-0.09 0.24-0.705 0.074-1.65l0.046 0.067z m-8.983-7.245h-2.248c0 1.938-0.009 3.864-0.009 5.805 0 1.232 0.063 2.363-0.138 2.711-0.33 0.689-1.18 0.601-1.566 0.48-0.396-0.196-0.597-0.466-0.83-0.855-0.063-0.105-0.11-0.196-0.127-0.196l-1.825 1.125c0.305 0.63 0.75 1.172 1.324 1.517 0.855 0.51 2.004 0.675 3.207 0.405 0.783-0.226 1.458-0.691 1.811-1.411 0.51-0.93 0.402-2.07 0.397-3.346 0.012-2.054 0-4.109 0-6.179l0.004-0.056z" /></svg>