<svg xmlns="http://www.w3.org/2000/svg" width="100%" height="100%" viewBox="0 0 30.72 30.72"><path d="M15.402999999999999 27.328c0.479-0.004 0.953-0.029 1.426-0.094a11.805 11.805 0 0 0 3.146-0.863 12.404 12.404 0 0 0 3.793-2.542 11.977 11.977 0 0 0 2.44-3.427 11.794 11.794 0 0 0 1.02-3.476c0.149-1.16 0.135-2.346-0.045-3.499a11.96 11.96 0 0 0-0.793-2.788 11.197 11.197 0 0 0-0.854-1.617c-1.168-1.837-2.861-3.314-4.81-4.3a12.835 12.835 0 0 0-2.172-0.87h-0.005c0.119 0.063 0.24 0.132 0.345 0.201 0.12 0.074 0.239 0.146 0.351 0.225a8.93 8.93 0 0 1 1.559 1.33c1.063 1.145 1.797 2.548 2.218 4.041 0.284 0.982 0.434 1.998 0.495 3.017 0.044 0.743 0.044 1.491-0.047 2.229-0.149 1.27-0.554 2.51-1.228 3.596a7.475 7.475 0 0 1-1.903 2.084c-1.244 0.928-2.877 1.482-4.436 1.114a3.916 3.916 0 0 1-0.748-0.258 4.692 4.692 0 0 1-0.779-0.45 6.08 6.08 0 0 1-1.244-1.105 6.507 6.507 0 0 1-1.049-1.747 7.366 7.366 0 0 1-0.494-2.54c-0.03-1.273 0.225-2.553 0.854-3.67a6.43 6.43 0 0 1 1.663-1.918c0.225-0.178 0.464-0.333 0.704-0.479l0.016-0.007a5.121 5.121 0 0 0-1.441-0.12 4.963 4.963 0 0 0-1.228 0.24c-0.359 0.12-0.704 0.27-1.019 0.45a6.146 6.146 0 0 0-0.733 0.494c-0.211 0.18-0.42 0.36-0.615 0.555-1.123 1.153-1.768 2.682-2.022 4.256-0.15 0.973-0.15 1.96-0.091 2.95 0.105 1.395 0.391 2.787 0.945 4.062a8.518 8.518 0 0 0 1.348 2.173 8.14 8.14 0 0 0 3.132 2.23 7.934 7.934 0 0 0 2.113 0.54c0.074 0.015 0.149 0.015 0.209 0.015z m-2.934-0.398a4.102 4.102 0 0 1-0.45-0.228 8.5 8.5 0 0 1-2.038-1.534c-1.094-1.137-1.827-2.566-2.247-4.08a15.184 15.184 0 0 1-0.495-3.172 12.14 12.14 0 0 1 0.046-2.082c0.135-1.257 0.495-2.501 1.124-3.58a6.889 6.889 0 0 1 1.783-2.053 6.23 6.23 0 0 1 1.633-0.9 5.363 5.363 0 0 1 3.522-0.045c0.029 0 0.029 0 0.045 0.03 0.015 0.015 0.045 0.015 0.06 0.03 0.045 0.016 0.104 0.045 0.165 0.074 0.239 0.12 0.479 0.271 0.704 0.42a6.294 6.294 0 0 1 2.097 2.502c0.42 0.914 0.615 1.934 0.631 2.938 0.014 1.079-0.18 2.157-0.645 3.146a6.42 6.42 0 0 1-2.638 2.832c0.09 0.03 0.18 0.045 0.271 0.075 0.225 0.044 0.449 0.074 0.688 0.074 1.468 0.045 2.892-0.66 3.94-1.647 0.195-0.18 0.375-0.375 0.54-0.585 0.225-0.27 0.435-0.54 0.614-0.823 0.239-0.375 0.435-0.75 0.614-1.154a8.112 8.112 0 0 0 0.509-1.664c0.196-1.004 0.211-2.022 0.149-3.026-0.135-2.022-0.673-4.045-1.842-5.724a9.054 9.054 0 0 0-0.555-0.719 9.868 9.868 0 0 0-1.063-1.034 8.477 8.477 0 0 0-1.363-0.915 9.927 9.927 0 0 0-1.692-0.598l-0.3-0.06c-0.209-0.03-0.42-0.044-0.634-0.06a8.453 8.453 0 0 0-1.015 0.016c-0.704 0.045-1.412 0.16-2.112 0.337C9.158999999999999 4.587 6.222999999999999 6.925999999999999 4.659999999999999 10.03A11.834 11.834 0 0 0 3.5979999999999994 13.161a11.81 11.81 0 0 0-0.104 3.775c0.12 1.02 0.374 2.023 0.778 2.977 0.227 0.57 0.511 1.124 0.825 1.648 1.094 1.783 2.683 3.236 4.51 4.24 0.688 0.39 1.408 0.69 2.157 0.944 0.226 0.074 0.45 0.15 0.689 0.21z" /></svg>