<svg xmlns="http://www.w3.org/2000/svg" width="100%" height="100%" viewBox="0 0 30.72 30.72"><path d="M14.841999999999999 20.112c-0.01 0.688-0.56 1.242-1.238 1.242-0.689 0-1.23-0.541-1.244-1.23h-0.016v-6.243H12.36v-0.029c0-0.693 0.556-1.256 1.237-1.256s1.236 0.563 1.236 1.258v0.045h0.016v6.225h-0.016l0.009-0.012z m11.137-4.889c0.75 0 1.381 0.618 1.381 1.377 0 0.76-0.631 1.375-1.381 1.375-0.766 0-1.395-0.615-1.395-1.379 0-0.766 0.615-1.381 1.379-1.381l0.016 0.008z m-2.084 4.186c0.121 0.195 0.193 0.432 0.193 0.686 0 0.703-0.553 1.26-1.244 1.26-0.463 0-0.869-0.256-1.08-0.631l-2.053-2.746-0.631 0.586v1.635h-0.014c-0.039 0.652-0.57 1.168-1.225 1.168-0.674 0-1.221-0.553-1.221-1.238v-0.025h-0.016v-9.45h0.027v-0.047c0-0.69 0.551-1.253 1.23-1.253 0.674 0 1.225 0.562 1.225 1.253v0.07h0.016l0.01 4.597 2.311-2.261c0.229-0.255 0.559-0.405 0.928-0.405 0.689 0 1.248 0.57 1.248 1.26 0 0.346-0.133 0.646-0.344 0.871l0.012 0.015-1.621 1.605 2.281 3.061-0.016 0.016-0.016-0.027z m-13.246 0c0.12 0.195 0.195 0.432 0.195 0.686 0 0.703-0.555 1.26-1.244 1.26-0.466 0-0.871-0.256-1.081-0.631l-2.054-2.746-0.63 0.586v1.631H5.819999999999999c-0.036 0.654-0.57 1.17-1.221 1.17-0.676 0-1.225-0.555-1.225-1.238v-0.027H3.3599999999999994V10.649999999999999h0.031c-0.004-0.015-0.004-0.029-0.004-0.044 0-0.69 0.551-1.252 1.23-1.252 0.675 0 1.225 0.559 1.225 1.25v0.07h0.016l0.01 4.6 2.311-2.261c0.23-0.255 0.562-0.405 0.931-0.405 0.687 0 1.245 0.57 1.245 1.26 0 0.33-0.131 0.646-0.346 0.871l0.016 0.015-1.627 1.605 2.271 3.061-0.016 0.016-0.004-0.027z" /></svg>