<svg xmlns="http://www.w3.org/2000/svg" width="100%" height="100%" viewBox="0 0 30.72 30.72"><path d="M25.084 8.332999999999998L16.778 3.6879999999999993a3.214 3.214 0 0 0-2.828 0L5.635999999999999 8.332999999999998A3.05 3.05 0 0 0 4.2219999999999995 10.731v9.256a3.05 3.05 0 0 0 1.414 2.4l8.306 4.645a3.214 3.214 0 0 0 2.828 0l8.314-4.645a3.05 3.05 0 0 0 1.414-2.4V10.733a3.05 3.05 0 0 0-1.414-2.4zM15.36 8.280999999999999a2.571 2.571 0 1 1 0.001 5.143A2.571 2.571 0 0 1 15.36 8.28z m3.094 13.627a9.119 9.119 0 0 1-3.103 0.549 8.972 8.972 0 0 1-3.076-0.55 8.493 8.493 0 0 1-5.486-7.987v-0.857c4.646 0.017 8.074 3.823 8.074 8.51v0.198h0.926v-0.197c0-4.688 3.445-8.51 8.056-8.51 0.026 0.29 0.043 0.582 0.086 0.856a8.502 8.502 0 0 1-5.477 7.988z" /></svg>