<svg xmlns="http://www.w3.org/2000/svg" width="100%" height="100%" viewBox="0 0 30.72 30.72"><path d="M5.664299999999999 22.4207c0.2259 0.01 0.4538 0.04 0.6667 0.12v-0.003l0.032 0.012 2.8091-2.7391 0.102 0.137c0.146 0.1998 0.2999 0.3798 0.4638 0.5597l0.06 0.068c0.043 0.043 0.077 0.086 0.12 0.13l0.3259 0.3249 0.077 0.07 0.07 0.06a7.4626 7.4626 0 0 0 4.6534 1.7753 7.5146 7.5146 0 0 0 4.0087-1.0396l0.216 0.224c0.2499 0.2658 0.5068 0.5327 0.7557 0.7997a8.8581 8.8581 0 0 1-5.0154 1.3995 8.8341 8.8341 0 0 1-5.4612-2.0623l0.01-0.015-1.8024 1.7764A2.2463 2.2463 0 1 1 3.3599999999999994 24.665a2.2453 2.2453 0 0 1 2.2453-2.2453h0.058zM22.8337 10.8365a8.8321 8.8321 0 0 1 1.2796 4.8264 8.7872 8.7872 0 0 1-2.2073 5.6152l0.01 0.01 1.1066 1.1766c0.4459-0.06 0.8918 0.094 1.2017 0.4199a1.3935 1.3935 0 0 1-0.052 1.9663 1.3935 1.3935 0 0 1-1.9664-0.052 1.3826 1.3826 0 0 1-0.3519-1.2196 336.5811 336.5811 0 0 0-1.9493-2.0693l-0.11-0.12 0.128-0.103a6.9212 6.9212 0 0 0 0.9277-0.8846 7.4256 7.4256 0 0 0 1.8793-4.7755 7.4376 7.4376 0 0 0-0.9267-3.8118l1.0297-0.9796zM7.1867 5.585999999999999c0.395-0.006 0.7648 0.15 1.0397 0.432 0.31 0.3258 0.4399 0.7817 0.353 1.2195L10.7075 9.471l-0.128 0.104a6.9208 6.9208 0 0 0-0.9276 0.8847 7.4906 7.4906 0 0 0-0.9617 8.5942l-1.0217 0.9957A8.7602 8.7602 0 0 1 6.380999999999999 15.197999999999999c0.044-2.0673 0.8498-4.0646 2.2033-5.6201L7.4117 8.353299999999999a1.4005 1.4005 0 0 1-1.2026-0.42 1.3955 1.3955 0 0 1 0.052-1.9673c0.2169-0.204 0.4968-0.3349 0.7937-0.3699 0.044-0.006 0.09-0.007 0.133-0.01zM25.105999999999998 3.8026999999999993a2.2473 2.2473 0 1 1-0.6998 4.3806l-0.002 0.002-0.033-0.012-3.049 2.894-0.102-0.1379a7.1777 7.1777 0 0 0-0.5328-0.6268l-0.034-0.043-0.2659-0.2659-0.12-0.103-0.077-0.07-0.06-0.0499-0.0769-0.07a7.4556 7.4556 0 0 0-4.6185-1.7514A7.4336 7.4336 0 0 0 11.4324 8.988999999999999l-0.9797-1.0216a8.8371 8.8371 0 0 1 5.0154-1.3996 8.7912 8.7912 0 0 1 5.4622 2.0694h0.017l2.0194-1.9164A2.2463 2.2463 0 0 1 25.11 3.8037999999999994zM15.315999999999999 8.8181c0.254 0 0.5069 0.02 0.7598 0.05 3.6228 0.4548 6.19 3.7608 5.7441 7.3846a6.6239 6.6239 0 0 1-7.3846 5.7451 6.6239 6.6239 0 0 1-5.7461-7.3846c0.4318-3.3619 3.257-5.7831 6.6258-5.7951z m-0.1 2.839c-1.4655 0.117-2.5271 1.2267-2.5651 2.6992 0.027 1.0537 0.5648 1.9394 1.5045 2.4252l-0.5118 2.3993h3.4219l-0.5099-2.3993c0.9347-0.5068 1.4896-1.3455 1.5046-2.4222-0.02-1.5215-1.1977-2.6671-2.7052-2.7051l-0.14 0.004z m0.052-0.015h-0.01z" /></svg>