<svg xmlns="http://www.w3.org/2000/svg" width="100%" height="100%" viewBox="0 0 30.72 30.72"><path d="M3.3599999999999994 3.3599999999999994v24h24V3.3599999999999994z m11.65 3.417c0.698 0 1.566 0.216 1.566 1.279v2.72c0 1.5-2.433 1.533-2.433 0.018V6.989999999999999a0.146 0.146 0 0 1 0.118-0.142c0.15-0.028 0.432-0.072 0.75-0.071z m5.508 1.76a0.146 0.146 0 0 1 0.079 0.026c0.408 0.277 1.875 1.397 0.782 2.49L19.451 12.979999999999999c-1.06 1.06-2.803-0.64-1.733-1.707l2.695-2.695a0.146 0.146 0 0 1 0.105-0.041z m-10.27 0.4c0.263 0.01 0.538 0.123 0.811 0.396l1.928 1.93c1.061 1.059-0.64 2.803-1.707 1.73L8.585999999999999 10.3a0.142 0.142 0 0 1-0.018-0.182c0.209-0.307 0.891-1.208 1.68-1.18z m5.104 4.65a1.773 1.773 0 0 1 0.008 0A1.773 1.773 0 1 1 13.587 15.36a1.773 1.773 0 0 1 1.765-1.773z m-7.291 0.55h2.728c1.499 0 1.532 2.433 0.017 2.433h-3.81a0.144 0.144 0 0 1-0.142-0.117c-0.092-0.48-0.337-2.315 1.207-2.315z m11.859 0h3.802a0.142 0.142 0 0 1 0.142 0.117c0.093 0.48 0.338 2.316-1.206 2.316h-2.72c-1.5 0-1.533-2.433-0.018-2.433z m-1.238 3.24c0.259 0.002 0.523 0.102 0.756 0.337l2.695 2.692a0.146 0.146 0 0 1 0.017 0.184c-0.278 0.41-1.398 1.876-2.49 0.784l-1.929-1.93c-0.829-0.827 0.028-2.072 0.951-2.066z m-6.657 0.013c0.93-0.011 1.811 1.209 0.975 2.044l-2.694 2.692a0.144 0.144 0 0 1-0.184 0.018c-0.408-0.278-1.876-1.398-0.783-2.49l1.928-1.93a1.08 1.08 0 0 1 0.758-0.334z m3.334 1.403c0.608-0.007 1.217 0.364 1.217 1.122v3.802a0.144 0.144 0 0 1-0.118 0.14c-0.48 0.093-2.316 0.338-2.316-1.206v-2.72c0-0.749 0.609-1.132 1.217-1.138z" /></svg>