<svg xmlns="http://www.w3.org/2000/svg" width="100%" height="100%" viewBox="0 0 30.72 30.72"><path d="M9.608 6.983a0.926 0.926 0 0 0-0.228 0.014c-0.192 0.085-0.35 0.463-0.457 1.1-0.186 1.094-0.18 2.53 0.017 3.597l0.05 0.262-0.208-0.182c-0.23-0.202-0.622-0.476-0.807-0.56a1.652 1.652 0 0 0-0.957-0.112 5.65 5.65 0 0 1-0.363 0.055c-0.34 0.04-0.573 0.155-0.834 0.414a1.71 1.71 0 0 0-0.41 0.637c-0.05 0.139-0.057 0.189-0.057 0.42 0.002 0.21 0.013 0.302 0.06 0.478 0.073 0.27 0.316 0.882 0.364 0.91 0.08 0.05 0.139 0.002 0.232-0.2 0.105-0.223 0.293-0.444 0.43-0.505 0.092-0.043 0.24-0.054 0.26-0.021 0.015 0.024-0.2 0.345-0.436 0.654-0.198 0.26-0.258 0.385-0.293 0.61-0.078 0.51 0.19 1.074 0.612 1.279 0.254 0.124 0.383 0.146 0.795 0.146 0.37-0.002 0.368-0.001 0.619-0.082a6.92 6.92 0 0 1 0.465-0.135l0.212-0.05 0.018 0.046c0.022 0.057 0.004 0.107-0.111 0.32-0.211 0.384-0.243 0.425-0.426 0.518-0.44 0.229-1.054 0.33-1.361 0.225a3.43 3.43 0 0 0-0.413-0.09c-1.116-0.174-1.183-0.192-1.337-0.334-0.177-0.163-0.33-0.504-0.465-1.05-0.046-0.18-0.09-0.31-0.096-0.292l-0.12 0.412c-0.27 0.954-0.315 1.05-0.663 1.413a5.74 5.74 0 0 0-0.303 0.33c-0.041 0.058-0.05 0.163-0.016 0.185a0.583 0.583 0 0 1 0.08 0.106c0.072 0.12 0.606 0.643 0.815 0.802 0.253 0.194 0.393 0.269 0.807 0.432 0.722 0.285 0.896 0.318 1.978 0.38 0.396 0.025 0.736-0.041 0.93-0.183 0.046-0.032 0.15-0.083 0.234-0.111 0.085-0.026 0.234-0.082 0.334-0.121 0.098-0.041 0.187-0.074 0.196-0.074 0.01 0 0.05 0.149 0.09 0.33 0.04 0.183 0.08 0.346 0.089 0.36 0.007 0.016 0.026-0.16 0.04-0.39 0.025-0.415 0.026-0.42 0.085-0.47l0.059-0.05 0.015 0.06c0.01 0.034 0.032 0.13 0.05 0.214 0.049 0.203 0.146 0.44 0.24 0.59 0.084 0.129 0.359 0.472 0.373 0.46a5.202 5.202 0 0 0-0.02-0.36c-0.015-0.242-0.017-0.36-0.002-0.375 0.015-0.015 0.059 0.036 0.133 0.158 0.527 0.86 1.424 1.722 2.387 2.295 0.95 0.566 2.434 1.126 3.845 1.453 0.333 0.076 0.91 0.188 0.973 0.188 0.02 0 0.108 0.045 0.2 0.1 0.663 0.406 1.502 0.617 2.097 0.532 0.496-0.071 1.106-0.374 1.404-0.7a0.56 0.56 0 0 1 0.258-0.161 6.48 6.48 0 0 0 1.068-0.55c0.44-0.292 0.74-0.58 0.96-0.923a2.65 2.65 0 0 1 0.298-0.347 5.15 5.15 0 0 0 1.12-1.73c0.104-0.273 0.218-0.724 0.259-1.04a6.343 6.343 0 0 0-0.023-1.365l-0.038-0.205 0.334-0.318c1.226-1.174 1.973-2.355 2.237-3.541 0.093-0.42 0.1-0.884 0.013-1.051-0.074-0.144-0.18-0.123-0.78 0.158-0.86 0.405-1.337 0.55-1.98 0.607-0.26 0.022-0.694 0.003-0.833-0.04a0.559 0.559 0 0 1-0.14-0.145c-0.277-0.381-0.82-0.934-1.243-1.278-0.47-0.376-1.142-0.771-1.64-0.96l-0.19-0.07 0.13-0.073c0.214-0.12 0.628-0.29 0.817-0.334 0.098-0.022 0.356-0.067 0.578-0.102l0.404-0.058-0.49-0.072c-1.012-0.146-1.714-0.207-2.443-0.211-0.274 0-0.496-0.006-0.496-0.01 0-0.005 0.047-0.063 0.103-0.133 0.238-0.283 0.408-0.622 0.47-0.937 0.016-0.09 0.037-0.286 0.046-0.436l0.016-0.273-0.163 0.218a2.495 2.495 0 0 1-0.832 0.737c-0.402 0.233-0.77 0.335-1.502 0.418-1.56 0.174-2.654 0.333-3.144 0.457l-0.205 0.052-0.1-0.07a19.734 19.734 0 0 1-0.297-0.21 9.984 9.984 0 0 0-1.96-1.143 7.619 7.619 0 0 1-1.032-0.565c-0.45-0.28-0.56-0.325-0.785-0.334z m-0.084 0.242c0.02-0.007 0.043-0.004 0.08 0.002 0.044 0.007 0.136 0.037 0.2 0.063 0.067 0.026 0.265 0.137 0.439 0.246 0.464 0.29 0.716 0.427 1.12 0.607a9.07 9.07 0 0 1 1.642 0.938c0.648 0.453 0.847 0.64 1.308 1.24 0.187 0.244 0.49 0.576 0.524 0.576 0.02 0-0.15-0.336-0.344-0.674a4.52 4.52 0 0 0-0.404-0.593c-0.096-0.116-0.106-0.106 0.156-0.16l0.158-0.032 0.174 0.162c0.093 0.09 0.253 0.216 0.35 0.282 0.195 0.128 0.35 0.28 0.488 0.47 0.122 0.168 0.15 0.225 0.27 0.58 0.119 0.344 0.157 0.434 0.198 0.45 0.08 0.026 0.13-0.057 0.176-0.29 0.096-0.48 0.066-0.75-0.158-1.388a10.419 10.419 0 0 1-0.152-0.453c0-0.018 0.907-0.143 1.025-0.141 0.024 0 0.043 0.034 0.063 0.104 0.045 0.187 0.108 0.3 0.326 0.595 0.222 0.3 0.386 0.596 0.445 0.805 0.02 0.065 0.065 0.3 0.102 0.52 0.085 0.513 0.187 0.919 0.298 1.167 0.122 0.28 0.156 0.433 0.166 0.784 0.014 0.41 0.07 0.594 0.18 0.572 0.079-0.015 0.205-0.51 0.244-0.97 0.048-0.54 0.075-1.59 0.05-1.938-0.034-0.451-0.034-1.217 0-1.237 0.014-0.008 0.207-0.02 0.429-0.027l0.408-0.01 0.092 0.106c0.135 0.157 0.178 0.259 0.178 0.42 0 0.17 0.1 0.568 0.226 0.91 0.25 0.675 0.405 1.238 0.453 1.652a0.95 0.95 0 0 1-0.021 0.436c-0.09 0.394-0.121 0.66-0.123 1.064-0.003 0.418 0.017 0.537 0.097 0.58 0.166 0.087 0.363-0.218 0.41-0.642 0.01-0.098 0.095-0.473 0.186-0.832 0.105-0.427 0.173-0.758 0.197-0.948 0.029-0.235 0.12-0.85 0.205-1.353l0.014-0.084 0.26 0.176c0.392 0.26 0.375 0.24 0.449 0.502 0.09 0.317 0.163 0.617 0.23 0.937 0.055 0.268 0.057 0.29 0.06 1.219 0 0.84 0.005 0.955 0.038 1.027 0.026 0.057 0.052 0.082 0.084 0.082 0.072 0 0.228-0.163 0.313-0.326 0.109-0.205 0.139-0.3 0.154-0.473 0.017-0.19 0.04-0.314 0.133-0.691 0.054-0.218 0.08-0.382 0.092-0.578l0.015-0.272 0.098 0.13c0.205 0.267 0.163 0.24 0.453 0.273 0.366 0.039 0.968 0.02 1.275-0.041 0.497-0.1 0.988-0.276 1.623-0.58 0.21-0.1 0.39-0.184 0.4-0.184 0.014 0 0.017 0.11 0.009 0.299-0.033 0.81-0.47 1.832-1.166 2.726-0.436 0.562-1.25 1.407-1.274 1.325-0.004-0.016-0.051-0.144-0.101-0.284-0.114-0.317-0.505-1.108-0.536-1.08-0.004 0.005 0.04 0.168 0.1 0.364 0.06 0.196 0.115 0.378 0.12 0.404 0.004 0.024 0.017 0.088 0.032 0.14 0.013 0.05 0.02 0.1 0.016 0.104-0.024 0.024-0.534 0.14-0.832 0.19-0.87 0.148-1.734 0.13-2.48-0.045-0.728-0.17-1.364-0.46-2.686-1.217-1.6-0.92-2.058-1.113-2.97-1.252-0.255-0.04-0.41-0.05-0.866-0.05-0.832-0.003-1.47 0.084-2.71 0.362-0.904 0.2-1.416 0.256-1.673 0.182-0.117-0.035-0.131-0.046-0.22-0.186-0.053-0.08-0.115-0.151-0.14-0.158-0.034-0.01-0.055-0.07-0.12-0.345-0.113-0.482-0.11-0.45-0.078-0.413 0.03 0.04 0.035 0.077-0.098-0.457a12.082 12.082 0 0 1-0.322-1.742c-0.035-0.352-0.035-1.596 0-1.97 0.082-0.85 0.22-1.434 0.377-1.602 0.028-0.03 0.046-0.048 0.066-0.055z m0.37 0.973c0.005 0.012 0.033 0.045 0.085 0.107 0.065 0.079 0.435 0.46 0.824 0.848 0.388 0.388 0.76 0.78 0.83 0.875 0.484 0.653 0.858 1.708 0.707 1.998-0.093 0.183-0.287 0.23-0.47 0.113-0.118-0.074-0.282-0.284-0.375-0.482a2.926 2.926 0 0 1-0.145-0.424c-0.041-0.154-0.075-0.27-0.08-0.258l-0.072 0.407c-0.072 0.43-0.103 0.882-0.072 1.054 0.028 0.148 0.007 0.18-0.063 0.098-0.041-0.05-0.065-0.12-0.094-0.281a31.518 31.518 0 0 0-0.088-0.463c-0.056-0.292-0.05-0.303-0.11 0.304a6.308 6.308 0 0 1-0.054 0.457c-0.045 0.21-0.196 0.39-0.32 0.39-0.1 0-0.224-0.07-0.267-0.15l-0.045-0.077 0.015 0.076c0.02 0.106 0.124 0.332 0.172 0.37 0.057 0.047 0.245 0.038 0.35-0.017a0.573 0.573 0 0 0 0.25-0.261c0.037-0.072 0.055-0.09 0.084-0.08 0.02 0.01 0.09 0.022 0.158 0.027 0.113 0.006 0.13 0.002 0.195-0.057l0.074-0.066-0.007-0.338c-0.005-0.23 0-0.34 0.015-0.34 0.013 0 0.024 0.009 0.024 0.018 0 0.047 0.255 0.293 0.357 0.345A0.632 0.632 0 0 0 12.408999999999999 12.36c0.265-0.194 0.293-0.606 0.082-1.244a5.835 5.835 0 0 0-0.553-1.123c-0.276-0.414-0.89-0.98-1.654-1.522-0.15-0.106-0.308-0.221-0.35-0.252-0.034-0.025-0.047-0.033-0.04-0.021z m9.333 0.12a0.322 0.322 0 0 1-0.035 0.105c-0.057 0.124-0.213 0.37-0.31 0.476l-0.071 0.084-0.117-0.115a0.807 0.807 0 0 1-0.115-0.13c0-0.008 0.084-0.063 0.19-0.124s0.25-0.155 0.32-0.21a0.666 0.666 0 0 1 0.138-0.087zM7.093999999999999 11.302a1.83 1.83 0 0 1 0.512 0.016c0.078 0.017 0.195 0.054 0.26 0.084 0.117 0.052 0.482 0.28 0.545 0.344 0.017 0.017 0.092 0.078 0.164 0.135 0.14 0.113 0.338 0.33 0.445 0.486 0.083 0.117 0.184 0.466 0.164 0.566-0.015 0.092-0.148 0.237-0.38 0.42-0.273 0.216-0.35 0.333-0.35 0.533 0 0.185 0.108 0.447 0.27 0.664 0.056 0.072 0.056 0.078 0.019 0.118-0.03 0.034-0.056 0.04-0.143 0.029-0.146-0.02-0.34-0.096-0.404-0.154-0.046-0.046-0.054-0.074-0.065-0.31l-0.01-0.257-0.085 0.174c-0.103 0.21-0.112 0.373-0.031 0.49 0.054 0.08 0.228 0.185 0.38 0.23l0.102 0.032-0.174-0.012a0.848 0.848 0 0 1-0.574-0.27c-0.157-0.156-0.207-0.258-0.19-0.378 0.02-0.12 0.204-0.468 0.352-0.668 0.068-0.09 0.137-0.192 0.154-0.227l0.034-0.066-0.084 0.07a1.564 1.564 0 0 0-0.163 0.153l-0.193 0.222c-0.324 0.368-0.386 0.558-0.26 0.809 0.124 0.242 0.508 0.516 0.772 0.55 0.218 0.029 0.228 0.034 0.228 0.09 0 0.09 0.062 0.18 0.164 0.24 0.103 0.06 0.124 0.094 0.06 0.1a0.35 0.35 0 0 0-0.136 0.034 4.588 4.588 0 0 1-1.07 0.26c-0.74 0.047-1.295-0.446-1.254-1.114 0.013-0.23 0.07-0.36 0.283-0.64 0.42-0.552 0.795-1.207 0.93-1.628 0.144-0.452 0.044-0.782-0.31-1.021-0.118-0.08-0.123-0.07 0.038-0.104z m-0.638 0.137c0.043 0 0.132 0.01 0.195 0.024 0.23 0.05 0.44 0.197 0.508 0.363 0.059 0.137 0.049 0.15-0.086 0.14a0.291 0.291 0 0 0-0.217 0.047 0.937 0.937 0 0 0-0.262 0.27c-0.008 0.015 0.042 0 0.112-0.033 0.167-0.077 0.375-0.084 0.445-0.012 0.068 0.067 0.047 0.142-0.145 0.527l-0.16 0.328-0.072-0.017a1.4 1.4 0 0 0-0.215-0.012 0.462 0.462 0 0 0-0.26 0.065 1.35 1.35 0 0 0-0.398 0.402 0.317 0.317 0 0 1-0.06 0.086c-0.024 0-0.186-0.47-0.23-0.664-0.077-0.353-0.037-0.652 0.138-0.946 0.167-0.283 0.52-0.566 0.707-0.568zM9.27 13.247c0.033-0.024 0.048 0.036 0.143 0.342l0.09 0.285-0.096 0.097a0.573 0.573 0 0 0-0.168 0.41v0.104l-0.125 0.02-0.125 0.017-0.086-0.11c-0.118-0.154-0.216-0.368-0.227-0.503-0.008-0.105-0.004-0.116 0.075-0.203 0.048-0.053 0.158-0.152 0.248-0.22 0.089-0.07 0.19-0.155 0.228-0.192 0.02-0.021 0.032-0.04 0.043-0.047z m4.627 0.648a9.87 9.87 0 0 1 1.11 0.008c0.139 0.013 0.37 0.046 0.519 0.074 0.703 0.137 1.175 0.348 2.564 1.143 2.014 1.154 2.807 1.424 4.19 1.424a6.56 6.56 0 0 0 1.816-0.23c0.13-0.034 0.238-0.06 0.24-0.057 0.04 0.047 0.172 0.633 0.212 0.93 0.034 0.26 0.034 0.87 0 1.1a4.606 4.606 0 0 1-0.213 0.827c-0.244 0.64-0.68 1.318-1.133 1.76l-0.131 0.129-0.172-0.07-0.232-0.092c-0.035-0.014-0.06-0.041-0.06-0.061 0-0.028-0.003-0.028-0.022 0-0.018 0.026-0.022 0.028-0.022 0.004 0-0.015-0.045-0.071-0.1-0.12a3.952 3.952 0 0 1-0.32-0.36c-0.268-0.332-0.493-0.57-0.693-0.733-0.124-0.1-0.157-0.142-0.194-0.244a3.936 3.936 0 0 1-0.17-0.62l-0.02-0.122 0.167 0.082c0.09 0.045 0.263 0.122 0.383 0.17 0.723 0.29 1.193 0.353 1.502 0.203 0.278-0.135 0.647-0.7 0.834-1.274l0.066-0.197 0.125-0.027c0.072-0.016 0.17-0.035 0.223-0.041 0.05-0.007 0.097-0.02 0.1-0.032 0.017-0.024-0.256-0.185-0.446-0.261-0.405-0.166-0.904-0.231-1.281-0.172-0.246 0.04-0.578 0.18-0.807 0.334-0.315 0.213-0.654 0.644-0.806 1.025l-0.06 0.147-0.017-0.178a4.05 4.05 0 0 1 0.053-0.89c0.02-0.12 0.03-0.214 0.022-0.21-0.022 0.016-0.144 0.353-0.192 0.534a2.74 2.74 0 0 0-0.013 1.378l0.017 0.063-0.084-0.043c-0.215-0.107-0.514-0.186-0.888-0.234a1.979 1.979 0 0 0-0.555-0.01 3.761 3.761 0 0 0-0.502 0.086c-0.126 0.035-0.347 0.092-0.488 0.129a7.273 7.273 0 0 1-1.891 0.242c-0.958-0.002-1.504-0.107-2.15-0.416-0.934-0.45-1.9-1.24-3.018-2.48a22.018 22.018 0 0 0-1.344-1.327c-0.305-0.272-0.4-0.402-0.476-0.635-0.053-0.165-0.045-0.27 0.03-0.36l0.052-0.056 0.056 0.086c0.105 0.157 0.35 0.246 0.684 0.246 0.31 0 0.725-0.07 1.728-0.293a13.633 13.633 0 0 1 1.48-0.25l0.327-0.03z m-4.69 0.79c0.048 0.004 0.082 0.019 0.096 0.046 0.02 0.033 0.017 0.1-0.011 0.272-0.035 0.213-0.035 0.23 0 0.308l0.035 0.084-0.092 0.196a6.64 6.64 0 0 0-0.133 0.289l-0.037 0.097-0.055-0.05c-0.098-0.092-0.142-0.216-0.142-0.397 0-0.155-0.005-0.17-0.057-0.211-0.032-0.026-0.07-0.047-0.084-0.047a0.202 0.202 0 0 1-0.086-0.045l-0.056-0.047 0.046-0.082c0.07-0.124 0.305-0.346 0.403-0.38a0.455 0.455 0 0 1 0.174-0.032z m5.278 0.308c-0.14 0-0.28 0.01-0.38 0.03-0.262 0.053-0.542 0.16-0.974 0.372-0.346 0.172-0.615 0.328-0.722 0.424-0.011 0.009 0.053-0.002 0.14-0.023 0.09-0.022 0.303-0.062 0.477-0.088 0.174-0.024 0.342-0.048 0.375-0.055 0.05-0.01 0.077 0.016 0.242 0.236 0.403 0.538 0.916 1.135 1.297 1.514 0.277 0.274 0.443 0.402 0.559 0.424 0.037 0.006 0.166 0.033 0.293 0.056 0.862 0.17 1.6 0.223 1.834 0.13 0.228-0.088 0.66-0.407 1.05-0.766 0.12-0.111 0.278-0.25 0.35-0.31 0.09-0.071 0.113-0.1 0.076-0.09-0.13 0.038-0.314 0.06-0.6 0.074-0.337 0.015-0.597-0.013-0.785-0.082-0.167-0.064-0.228-0.112-0.87-0.696a9.217 9.217 0 0 0-0.714-0.607c-0.22-0.161-0.54-0.318-0.69-0.34a2.139 2.139 0 0 1-0.24-0.076 2.928 2.928 0 0 0-0.343-0.1 2.146 2.146 0 0 0-0.375-0.027z m-4.781 0.28l0.066 0.058c0.037 0.03 0.263 0.238 0.5 0.463 0.24 0.222 0.624 0.616 0.86 0.873 0.927 1.016 1.606 1.63 2.353 2.129 1.002 0.67 1.905 0.92 3.19 0.888 0.794-0.017 1.389-0.115 2.199-0.357 0.699-0.21 1.514-0.12 2.1 0.236 0.317 0.194 0.557 0.418 0.91 0.854 0.343 0.424 0.438 0.509 0.716 0.648 0.13 0.068 0.252 0.126 0.27 0.133 0.048 0.015-0.055 0.157-0.283 0.396-0.401 0.418-1.03 0.805-1.704 1.05a0.524 0.524 0 0 0-0.267 0.18c-0.192 0.206-0.47 0.385-0.822 0.524-0.6 0.238-1.267 0.156-2.088-0.254-0.275-0.137-0.336-0.177-0.43-0.28a1.898 1.898 0 0 1-0.176-0.243l-0.068-0.125 0.014 0.11c0.006 0.058 0.024 0.14 0.037 0.179 0.01 0.04 0.018 0.078 0.01 0.084-0.023 0.024-1.395-0.275-1.434-0.314-0.01-0.01 0.005-0.071 0.03-0.141 0.056-0.168 0.077-0.374 0.04-0.418-0.041-0.048-0.157-0.04-0.277 0.02a0.852 0.852 0 0 1-0.313 0.08c-0.113 0.013-0.29 0.045-0.392 0.076l-0.19 0.052-0.127-0.042c-0.263-0.092-0.903-0.356-0.896-0.372a1.48 1.48 0 0 1 0.182-0.146c0.222-0.163 0.439-0.365 0.48-0.443 0.04-0.08 0.04-0.204-0.002-0.24-0.026-0.02-0.078-0.015-0.268 0.03a3.24 3.24 0 0 1-0.384 0.069 2.47 2.47 0 0 0-0.535 0.117 0.95 0.95 0 0 1-0.483 0.049c-0.16-0.017-0.183-0.027-0.392-0.166a9.654 9.654 0 0 1-0.85-0.668l-0.102-0.094h0.21c0.193-0.002 0.242-0.01 0.538-0.105 0.45-0.144 0.654-0.281 0.64-0.434-0.01-0.083-0.017-0.086-0.487-0.144a4.665 4.665 0 0 1-0.522-0.098 4.231 4.231 0 0 0-0.37-0.086c-0.151-0.028-0.27-0.072-0.513-0.185a25.31 25.31 0 0 0-0.44-0.2c-0.14-0.054-0.181-0.11-0.353-0.457a3.124 3.124 0 0 0-0.09-0.172c-0.012-0.015-0.18 0.18-0.202 0.239-0.014 0.03-0.032 0.098-0.047 0.152l-0.028 0.098-0.04-0.131a2.516 2.516 0 0 1-0.104-0.69c0-0.174 0.004-0.194 0.039-0.183 0.02 0.006 0.122 0.03 0.224 0.054 0.105 0.024 0.28 0.076 0.39 0.116 0.204 0.07 0.21 0.07 0.608 0.07 0.336 0 0.438-0.01 0.608-0.05 0.435-0.1 0.462-0.154 0.164-0.37a7.78 7.78 0 0 1-0.326-0.254 1.715 1.715 0 0 0-0.5-0.306 1.51 1.51 0 0 1-0.238-0.12c-0.105-0.07-0.325-0.3-0.49-0.511a1.495 1.495 0 0 0-0.206-0.221 1.797 1.797 0 0 0-0.318-0.184c-0.03-0.008 0.068-0.242 0.242-0.566z m4.802 0.247c0.15 0.002 0.29 0.017 0.31 0.028 0.03 0.017 0.02 0.038-0.071 0.16-0.185 0.248-0.28 0.607-0.248 0.968 0.017 0.199 0.027 0.2-0.164-0.021a2.999 2.999 0 0 1-0.446-0.695c-0.163-0.34-0.161-0.33-0.05-0.36a2.06 2.06 0 0 1 0.67-0.08z m0.606 0.123c0.006 0 0.076 0.035 0.154 0.078 0.079 0.044 0.205 0.122 0.28 0.176l0.14 0.098-0.07 0.074c-0.255 0.294-0.283 0.767-0.076 1.287 0.043 0.107 0.062 0.18 0.047 0.18-0.042 0-0.322-0.142-0.405-0.203-0.165-0.124-0.372-0.354-0.435-0.48a0.513 0.513 0 0 1-0.065-0.294c0.002-0.348 0.113-0.642 0.31-0.82a0.848 0.848 0 0 1 0.12-0.096z m-10.617 0.256c0.008 0.009 0.045 0.09 0.082 0.182 0.128 0.309 0.28 0.504 0.469 0.6 0.145 0.073 0.443 0.145 0.785 0.189 0.5 0.065 0.715 0.104 0.883 0.158 0.29 0.09 0.783 0.06 1.18-0.076 0.069-0.024 0.124-0.036 0.124-0.026 0 0.04-0.241 0.237-0.383 0.31-0.463 0.245-1.168 0.33-1.656 0.21-0.11-0.028-0.194-0.044-0.19-0.035 0.02 0.03 0.617 0.213 0.817 0.248 0.194 0.033 0.442 0.033 0.586-0.002 0.04-0.011 0.034 0-0.033 0.043a3.1 3.1 0 0 1-1.145 0.424 8.498 8.498 0 0 0-0.472 0.09c-0.242 0.054-0.338 0.048-0.623-0.047-0.35-0.116-0.66-0.325-1.041-0.695l-0.225-0.215 0.186-0.19c0.35-0.367 0.4-0.447 0.558-0.93 0.046-0.14 0.09-0.248 0.098-0.24z m4.338 0.174c0.02-0.015 0.044-0.001 0.127 0.066 0.034 0.029 0.034 0.038 0.005 0.106a7 7 0 0 0-0.22 0.812c-0.052 0.244-0.06 0.32-0.063 0.71 0 0.239 0.01 0.496 0.018 0.57l0.017 0.134-0.125 0.063c-0.07 0.037-0.17 0.078-0.224 0.094a0.68 0.68 0 0 0-0.153 0.064c-0.06 0.044-0.152 0.075-0.152 0.053a0.24 0.24 0 0 1 0.04-0.072 0.606 0.606 0 0 0 0.064-0.123c0.024-0.068 0.148-0.371 0.26-0.64a0.977 0.977 0 0 0 0.06-0.155c-0.002 0-0.06 0.11-0.125 0.246-0.155 0.313-0.36 0.622-0.484 0.722-0.207 0.17-0.446 0.208-1.07 0.166-0.69-0.045-0.91-0.088-1.366-0.254-0.361-0.13-0.797-0.314-0.797-0.335 0-0.011 0.095 0.017 0.213 0.058 0.31 0.11 0.446 0.114 0.799 0.03 0.157-0.04 0.398-0.093 0.537-0.124a4.14 4.14 0 0 0 0.426-0.111c0.372-0.124 0.836-0.4 1.133-0.67 0.274-0.255 0.678-0.768 0.953-1.22 0.058-0.096 0.116-0.181 0.127-0.19z m7.304 0.31c0.009 0 0.073 0.06 0.145 0.13 0.102 0.104 0.143 0.13 0.195 0.13 0.05 0 0.09 0.023 0.153 0.09 0.087 0.087 0.088 0.09 0.085 0.256 0 0.15-0.008 0.18-0.08 0.318-0.143 0.272-0.125 0.26-0.441 0.272a3.808 3.808 0 0 1-0.416-0.01l-0.137-0.016 0.153-0.185c0.15-0.187 0.302-0.453 0.302-0.527 0-0.024-0.04-0.067-0.097-0.104-0.055-0.033-0.098-0.067-0.098-0.078 0-0.01 0.054-0.016 0.12-0.016h0.126l-0.014-0.13c-0.006-0.071-0.004-0.13 0.004-0.13z m0.752 0.74l0.059 0.06c0.033 0.034 0.128 0.162 0.213 0.288 0.148 0.22 0.153 0.23 0.105 0.246-0.045 0.02-0.623 0.024-0.64 0.006a0.595 0.595 0 0 1 0.08-0.144 1.38 1.38 0 0 0 0.138-0.3l0.045-0.155z m6.014 0.175c0.015 0 0.03 0.02 0.039 0.046 0.02 0.077 0.016 0.34-0.006 0.354-0.01 0.006-0.027 0.066-0.033 0.129-0.06 0.46-0.354 0.824-0.732 0.9l-0.075 0.014 0.05-0.074c0.09-0.133 0.179-0.343 0.196-0.45 0.013-0.104-0.003-0.378-0.03-0.42-0.005-0.01-0.054-0.02-0.104-0.02h-0.092l0.11-0.071c0.317-0.205 0.655-0.408 0.677-0.408z m0.223 0.187c0.02-0.022 0.21 0 0.394 0.043 0.214 0.05 0.214 0.05 0.166 0.188-0.183 0.518-0.473 0.974-0.693 1.087a0.76 0.76 0 0 1-0.414 0.047l-0.084-0.017 0.129-0.092c0.298-0.22 0.484-0.632 0.484-1.08 0-0.087 0.007-0.167 0.018-0.176z m-1.36 0.772c0.02 0.01 0.036 0.07 0.074 0.195 0.024 0.078 0.05 0.158 0.06 0.178 0.012 0.03-0.014 0.025-0.151-0.032-0.092-0.037-0.166-0.075-0.166-0.086 0-0.01 0.04-0.08 0.09-0.154 0.05-0.074 0.074-0.112 0.093-0.101z m-2.066 1.375c-0.011 0-0.075 0.008-0.14 0.017-0.256 0.035-0.508 0.14-0.684 0.29l-0.088 0.073 0.082 0.149c0.159 0.292 0.412 0.563 0.654 0.71 0.14 0.083 0.137 0.076 0.043 0.407-0.094 0.324-0.09 0.32-0.271 0.365-0.13 0.033-0.24 0.04-0.553 0.04h-0.393l-0.222-0.077c-0.45-0.16-0.726-0.37-0.983-0.756-0.19-0.28-0.237-0.33-0.517-0.53-0.273-0.191-0.295-0.23-0.188-0.317l0.059-0.047-0.078-0.002a0.585 0.585 0 0 0-0.541 0.36c-0.048 0.13-0.057 0.293-0.022 0.36 0.035 0.064 0.05 0.053 0.106-0.076a0.687 0.687 0 0 1 0.128-0.197c0.094-0.094 0.125-0.091 0.297 0.018 0.246 0.159 0.402 0.315 0.582 0.588 0.096 0.145 0.206 0.298 0.243 0.34 0.087 0.102 0.27 0.254 0.363 0.304 0.04 0.022 0.15 0.105 0.24 0.186 0.09 0.08 0.22 0.174 0.293 0.207 0.15 0.07 0.477 0.172 0.762 0.242 0.357 0.085 0.773 0.05 1.039-0.082l0.1-0.05 0.124 0.042c0.445 0.152 0.95 0.07 1.235-0.205 0.315-0.303 0.432-0.716 0.29-1.025-0.051-0.118-0.212-0.315-0.255-0.315-0.01 0 0.003 0.056 0.027 0.123 0.057 0.16 0.062 0.454 0.01 0.602a1.167 1.167 0 0 1-0.266 0.427 0.957 0.957 0 0 1-0.203 0.13c-0.11 0.052-0.143 0.056-0.38 0.056-0.242-0.002-0.275-0.007-0.432-0.07a2.244 2.244 0 0 1-0.307-0.157l-0.137-0.091 0.05-0.135c0.028-0.074 0.07-0.23 0.099-0.346l0.049-0.21 0.13-0.05c0.414-0.148 0.69-0.38 0.803-0.675l0.043-0.116-0.095-0.086a1.954 1.954 0 0 0-0.584-0.328c-0.14-0.045-0.44-0.102-0.512-0.093z" /></svg>