<svg xmlns="http://www.w3.org/2000/svg" width="100%" height="100%" viewBox="0 0 30.72 30.72"><path d="M23.894 22.57c-0.573 0.117-1.183 0.506-1.656 0.594-1.044 0.193-1.66 0.007-1.108-0.22 0.8-0.332 3.44-0.415 3.716-2.374 0.276-1.96 0.083-2.843-0.055-3.34a7.179 7.179 0 0 0-0.351-0.891 3.633 3.633 0 0 0-0.134-0.523 1.66 1.66 0 0 1-0.074-0.228s-0.034-0.241 0.076-0.476c0.098-0.208 0.433-0.659 0.456-1.095v-0.08a0.762 0.762 0 0 0-0.008-0.087l-0.002-0.026a0.802 0.802 0 0 0-0.374-0.542c-0.123-0.082-0.29-0.107-0.382-0.224 0.073-0.23 0.306-0.313 0.404-0.501 0.06-0.167 0.011-0.343-0.081-0.503-0.178-0.2-0.528-0.372-0.842-0.49-0.393-0.147-0.792-0.264-1.062-0.475-0.285-0.152-0.477-0.445-0.302-0.833a0.703 0.703 0 0 0 0.064-0.3v-0.028c-0.001-0.02-0.004-0.037-0.006-0.055a0.538 0.538 0 0 0-0.008-0.042l-0.006-0.024-0.008-0.027c-0.072-0.243-0.453-0.31-0.59-0.323-0.307-0.027-0.506-0.111-0.67-0.163 0.132 0.069 0.264 0.16 0.433 0.228 0.106 0.044 0.26 0.07 0.389 0.112 0 0 0.239 0.048 0.304 0.214a0.59 0.59 0 0 1 0 0.403l-0.01 0.027c-0.024 0.073-0.05 0.143-0.056 0.215-0.022 0.286 0.153 0.434 0.246 0.673 0.167 0.159 0.406 0.324 0.736 0.473 0.298 0.134 0.653 0.215 0.874 0.348 0.127 0.077 0.36 0.263 0.354 0.399-0.004 0.104-0.195 0.245-0.272 0.348-0.056 0.074-0.083 0.171-0.132 0.24-0.043 0.069-0.099 0.112-0.162 0.112-0.083 0-0.271 0.032-0.147 0.041 0.124 0.01 0.446 0.161 0.446 0.161 0.435 0.18 0.727 0.514 0.567 0.99-0.134 0.399-0.442 0.732-0.463 1.17-0.023 0.467 0.19 0.85 0.218 1.22 0.046 0.623-0.043 1.051-0.164 1.52-0.056 0.218-0.086 0.434-0.136 0.647-0.213 0.906-0.76 1.299-1.5 1.718-0.322 0.181-0.666 0.516-1.01 0.622-0.056 0.017-0.141-0.009-0.192 0-0.317 0.057-0.602 0.215-0.927 0.274-0.306 0.057-0.628 0.03-0.991 0.121-0.184 0.066-0.42 0.165-0.559 0.223-0.213 0.097-0.422 0.199-0.631 0.3l-0.693 0.396s-0.386 0.224 0.042 0.059c0.344-0.134 1.527-0.722 1.031-0.377-0.342 0.172-0.527 0.416-0.83 0.624 0 0-1.016 0.504-1.169 0.645-0.167 0.155-0.372 0.069-0.507 0.22a1.19 1.19 0 0 1-0.49 0.332c-0.138 0.046-0.294 0.35-0.506 0.506-0.211 0.156-0.671 0.11-1.076 0.285a2.373 2.373 0 0 1-0.824 0.177c-0.04 0.004-0.08 0.006-0.116 0.007H12.92a1.553 1.553 0 0 1-0.556-0.096c-0.169-0.062-0.231-0.03-0.193-0.01 0.038 0.02 0.148 0.124 0.148 0.124-0.472 0-0.601-0.315-0.819-0.548 0.1-0.014 0.381 0.055 0.238-0.028-0.283-0.135-0.827-0.145-0.838-0.47-0.008-0.255 0.11-0.2 0.11-0.2 0.197 0.346 0.809 0.38 1.254 0.375 0.83-0.01 1.393-0.466 1.937-0.723a9.87 9.87 0 0 0 0.382-0.246v0.004c0.171-0.112 0.345-0.22 0.492-0.355 0.256-0.236 0.429-0.543 0.655-0.804a0.697 0.697 0 0 1 0.146-0.153c0.064-0.06 0.132-0.115 0.208-0.164l0.003 0.006 0.03-0.02-0.006-0.01c0.548-0.311 1.058-0.655 1.489-1.072l0.003-0.005c0.062-0.056 0.386-0.418 0.542-0.593 0.185-0.246 0.318-0.557 0.395-0.87 0.028-0.114 0.01-0.251 0.054-0.374 0.069-0.19 0.242-0.36 0.355-0.548 0.117-0.195 0.195-0.408 0.273-0.622 0.341-0.938 0.736-1.685 1.473-2.191 0.355-0.244 0.787-0.402 1.037-0.772a1.665 1.665 0 0 1-0.703 0.408c-0.811 0.267-1.338 0.95-1.603 1.385a5.167 5.167 0 0 0-0.477 1.22 4.06 4.06 0 0 0-0.355-1.395c-0.16-0.37-0.303-0.761-0.6-0.996 0 0-0.011 0.001-0.058-0.027-0.046-0.027 0.767-0.048 0.767-0.048 0.143 0.006 0.287 0.026 0.434 0.045a0.373 0.373 0 0 1 0.103 0.006c0.447 0.079 0.91-0.088 1.2-0.298 0.15-0.11 0.412-0.197 0.628-0.256 0.004-0.01 0.025-0.02 0.08-0.03 0 0 0.33-0.104 0.682-0.2a3.27 3.27 0 0 0 0.533-0.175 0.779 0.779 0 0 0 0.187-0.162c0.104-0.127 0.106-0.28 0.192-0.498 0.085-0.217 0.216-0.386 0.218-0.573 0.006-0.611-0.573-1.098-1.2-0.772 0.617-0.16 1.056 0.142 0.982 0.723-0.092 0.716-1.172 1.248-1.829 1.518-0.26 0.107-0.565 0.243-0.873 0.274-0.443 0.045-0.846-0.05-1.227-0.025-0.49 0.032-0.815 0.291-1.228 0.324-0.355 0.028-0.307-0.212-0.615-0.239-0.063-0.036-0.257 0-0.45-0.01-0.532 0.14-0.874-0.103-1.309-0.299-0.314-0.141-0.648-0.27-0.982-0.299-0.838-0.07-1.348 0.046-2.033-0.027-0.193-0.02-0.594-0.045-0.784-0.116-0.593-0.222-1.047-0.141-1.69-0.15-0.469-0.007-0.903-0.032-1.196 0.02-0.08 0.014-0.16 0.034-0.245 0.05-0.628 0.109-1.583 0.166-1.555 0.721 0.046-0.032 0.033-0.118 0.109-0.124-0.003 0.102-0.006 0.204 0.027 0.274-0.365-0.01-0.58-0.262-0.573-0.548 0.012-0.487 0.796-0.69 1.337-0.822 0.542-0.13 1.105-0.284 1.5-0.348-0.947 0.139-1.95 0.228-2.673 0.572a0.778 0.778 0 0 1-0.021-0.108c-0.058-0.263-0.183-0.666-0.27-1.058-0.102-0.451 0.055-1.242 0.055-1.242l0.004 0.004c0.065-0.402 0.148-0.58 0.228-0.821 0.172-0.513 0.726-0.674 1.114-0.723a1.742 1.742 0 0 0-0.668 0.901c-0.017 0.137-0.03 0.264-0.039 0.377 0.294-0.914 1.113-1.256 1.113-1.256l0.262-0.283-0.003 0.013c0.452-0.438 1.05-0.777 1.809-0.798 0.383-0.01 0.845 0.09 0.844 0.466 0 0.212-0.167 0.392-0.393 0.491a0.311 0.311 0 0 0 0.183-0.019l0.235-0.263c0.078-0.192 0.07-0.435-0.06-0.581 0.346-0.296 0.884 0.036 0.845 0.428 0.101-0.085 0.163-0.247 0.094-0.375 0.465-0.273 0.726 0.39 1.194 0.235-0.044-0.133-0.27-0.106-0.338-0.217 0.612-0.087 1.15 0.128 1.764 0.08 0.038 0.033 0.08 0.066 0.124 0.1-1.149 0.126-0.215 0.126-0.215 0.126 0.147-0.014 0.5-0.038 0.638-0.014 0.225 0.04 0.37-0.014 0.569-0.092 0.004 0.009 0.024 0.008 0.036-0.014 0.103-0.041 0.222-0.086 0.373-0.127a0.98 0.98 0 0 0 0.174-0.042l0.024-0.005 0.004-0.004c0.079-0.027 0.153-0.06 0.216-0.09 0.58-0.279 1.06-0.934 1.554-1.278 0.819-0.569 1.595 0.134 2.165 0.59l-0.004 0.006c0.143 0.098 0.332 0.218 0.537 0.344 0.537 0.233 1.245 0.437 1.623 0.811 0.302 0.299 0.405 0.684 0.535 1.083 0.122 0.373 0.357 0.702 0.49 1.12a0.163 0.163 0 0 0 0.05-0.092c-0.004-0.036-0.01-0.073 0-0.097l0.008 0.007a1.047 1.047 0 0 0-0.043-0.249c-0.112-0.229-0.309-0.49-0.285-0.693 0 0 0.697 0.36 1.488 0.718 0.273 0.123 0.522 0.326 0.74 0.559l0.063-0.002a0.136 0.136 0 0 0-0.004 0.065c0.384 0.43 0.657 0.944 0.752 1.24a4.416 4.416 0 0 0 0.16 0.412h0.001c0.014 0.025 0.023 0.05 0.032 0.074 0.115 0.247 0.227 0.448 0.258 0.503 0.1 0.124 0.181 0.285 0.268 0.42a11.375 11.375 0 0 1-2.465 8.17c-0.09 0.011-0.214 0.032-0.378 0.066z m-0.718 1.12c-0.549 0.18-1.11 0.516-1.467 0.55-1.076 0.102-1.27-0.376-0.41-0.455 0.325-0.03 0.805-0.067 1.188-0.248 0.564-0.269 1.142-0.529 1.528-0.722-0.264 0.306-0.544 0.598-0.839 0.875z m-11.735 0.052c-0.092 0.03-0.092-0.015-0.092-0.015s-0.165-0.236-0.19-0.456c-0.026-0.218 0.03-0.412 0.084-0.44 0.055-0.03 0.067 0.097 0.112 0.256 0.045 0.16 0.268 0.49 0.268 0.49 0.032 0.067-0.09 0.134-0.182 0.165z m0.575 0.1c-0.105 0.036-0.105-0.016-0.105-0.016s-0.189-0.269-0.217-0.519c-0.03-0.247 0.036-0.468 0.099-0.5 0.063-0.035 0.076 0.11 0.127 0.29 0.051 0.183 0.307 0.558 0.307 0.558 0.036 0.077-0.105 0.153-0.211 0.188z m0.194-0.697c-0.036-0.313 0.048-0.593 0.129-0.636 0.08-0.043 0.098 0.14 0.162 0.37 0.065 0.231 0.39 0.706 0.39 0.706 0.046 0.098-0.134 0.194-0.27 0.238-0.135 0.044-0.134-0.02-0.134-0.02s-0.24-0.34-0.277-0.658z m4.669-3.587c0.056-0.05 0.116 0.056 0.226 0.176 0.11 0.122 0.5 0.313 0.5 0.313 0.063 0.046-0.062 0.162-0.164 0.232-0.1 0.07-0.117 0.03-0.117 0.03s-0.287-0.136-0.396-0.321c-0.108-0.183-0.106-0.379-0.05-0.43z m-0.924 0.492c0.069-0.065 0.143 0.073 0.281 0.229 0.14 0.16 0.631 0.414 0.631 0.414 0.08 0.06-0.076 0.21-0.203 0.3-0.127 0.091-0.148 0.038-0.148 0.038s-0.359-0.182-0.495-0.423c-0.136-0.237-0.136-0.493-0.066-0.558z m-0.825 1.11c-0.122-0.256-0.111-0.52-0.04-0.584 0.07-0.064 0.138 0.083 0.266 0.255 0.131 0.175 0.602 0.467 0.602 0.467 0.075 0.067-0.084 0.215-0.212 0.301-0.128 0.087-0.147 0.03-0.147 0.03s-0.344-0.21-0.469-0.47z m-0.754 0.63c-0.102-0.269-0.075-0.54-0.003-0.6 0.073-0.06 0.128 0.097 0.24 0.28 0.115 0.189 0.55 0.522 0.55 0.522 0.069 0.075-0.094 0.214-0.224 0.292-0.129 0.078-0.142 0.018-0.142 0.018s-0.318-0.24-0.421-0.512z m-1.017 1.654c-0.136 0.041-0.134-0.021-0.134-0.021s-0.23-0.331-0.257-0.637c-0.026-0.304 0.066-0.574 0.148-0.614 0.082-0.041 0.094 0.136 0.15 0.358 0.059 0.225 0.37 0.686 0.37 0.686 0.043 0.094-0.14 0.186-0.277 0.228z m0.275-1.059c-0.066-0.304-0.002-0.59 0.08-0.642 0.082-0.054 0.116 0.124 0.205 0.34 0.089 0.218 0.48 0.646 0.48 0.646 0.058 0.09-0.125 0.21-0.267 0.273-0.14 0.062-0.145-0.004-0.145-0.004s-0.286-0.305-0.353-0.613z m3.688-7.155s0.08 0.013 0.043 0.126c-0.035 0.112-0.042 0.46 0.066 0.61 0.11 0.15-0.075 0.093-0.219-0.059-0.144-0.15-0.246-0.43-0.215-0.619 0 0-0.008-0.08 0.325-0.058z m-0.51 0.921c0.176 0.195-0.092 0.143-0.316-0.049-0.223-0.191-0.406-0.565-0.39-0.834 0 0-0.022-0.11 0.447-0.13 0 0 0.114 0.007 0.079 0.17-0.033 0.163 0.006 0.65 0.18 0.843z m-1.19 1.016c1.017 0.067 1.747-0.286 2.264-0.647 0.136-0.095 0.316-0.326 0.546-0.174-0.098 0.203-0.358 0.337-0.573 0.448-0.377 0.195-0.712 0.365-1.146 0.473 0.732-0.112 1.253-0.417 1.8-0.697 0.068 0.14 0.143 0.423 0.192 0.662h0.008s0.05 0.133 0.034 0.264c0.003 0.063-0.01 0.116-0.055 0.146a0.23 0.23 0 0 1-0.055 0.052c-0.2 0.13-0.794 0.42-1.27 0.455-0.016 0-0.03 0.003-0.046 0.004l-0.035 0.01-0.001-0.006c-0.432 0.05-0.711 0.228-0.16 0.137 0.553-0.091 1.736-0.292 1.305-0.13h0.002c-0.538 0.21-1.245 0.415-1.938 0.348-0.448-0.043-0.91-0.263-1.31-0.473-0.397-0.21-0.775-0.485-1.2-0.573-0.323-0.067-0.59 0.027-0.873 0.075-0.188 0.032-0.45 0.108-0.563-0.01-0.048-0.056-0.01-0.115-0.01-0.115 0.108-0.266 0.421-0.423 0.682-0.498 0.819-0.235 1.611 0.198 2.401 0.25z m0.23-0.891c0.171 0.248-0.126 0.148-0.353-0.105-0.227-0.253-0.38-0.71-0.323-1.017 0 0-0.01-0.13 0.529-0.08 0 0 0.129 0.025 0.066 0.206-0.064 0.182-0.09 0.747 0.08 0.996z m-1.084-0.119c0.169 0.283-0.146 0.159-0.376-0.132-0.23-0.29-0.367-0.802-0.284-1.136 0 0-0.002-0.144 0.58-0.064 0 0 0.137 0.035 0.057 0.232-0.08 0.196-0.145 0.818 0.023 1.1z m-1.12-0.156c0.172 0.286-0.147 0.164-0.38-0.13-0.234-0.292-0.376-0.812-0.293-1.155 0 0-0.003-0.145 0.585-0.072 0 0 0.14 0.034 0.059 0.236-0.08 0.2-0.143 0.836 0.029 1.121z m-1.027 0.323c0.212 0.37-0.159 0.213-0.441-0.166-0.283-0.379-0.472-1.053-0.397-1.5 0 0-0.011-0.19 0.662-0.099 0 0 0.161 0.042 0.081 0.306-0.08 0.263-0.116 1.089 0.095 1.46z m-1.09-0.275c0.211 0.323-0.16 0.2-0.441-0.128-0.282-0.328-0.467-0.927-0.389-1.332 0 0-0.01-0.171 0.665-0.12 0 0 0.162 0.032 0.08 0.272-0.082 0.24-0.125 0.985 0.085 1.308z m-1.154-0.376c0.149 0.277-0.14 0.154-0.345-0.133-0.205-0.285-0.318-0.787-0.232-1.115 0 0 0.002-0.14 0.54-0.058 0 0 0.127 0.035 0.046 0.226-0.08 0.193-0.158 0.802-0.009 1.08z m-0.88-0.24c0.14 0.221-0.114 0.125-0.303-0.102-0.189-0.227-0.308-0.628-0.248-0.892 0 0-0.005-0.113 0.46-0.053 0 0 0.11 0.026 0.05 0.182-0.06 0.154-0.1 0.644 0.04 0.865z m-0.925 0.16c0.17 0.248-0.126 0.149-0.353-0.105-0.227-0.254-0.38-0.71-0.322-1.017 0 0-0.01-0.13 0.528-0.08 0 0 0.129 0.025 0.066 0.206-0.064 0.182-0.09 0.747 0.081 0.996z m-0.746-0.066c0.175 0.195-0.093 0.143-0.316-0.049-0.224-0.191-0.407-0.565-0.39-0.834 0 0-0.023-0.111 0.446-0.13 0 0 0.115 0.007 0.08 0.17-0.034 0.163 0.005 0.65 0.18 0.843z m10.24 10.242c-0.516 0.179-1.435 0.627-2.173 1.003-0.177 0.008-0.354 0.012-0.533 0.012C9.05 26.782999999999998 3.9369999999999994 21.669999999999998 3.9369999999999994 15.36c0-4.888 3.07-9.057 7.387-10.688 0.022 0.02 0.045 0.04 0.07 0.058 0.048 0.039 0.129 0.059 0.17 0.109 0.057 0.067 0.033 0.203 0.058 0.287 0.075 0.259 0.235 0.497 0.501 0.691 0.04 0.029 0.114 0.043 0.148 0.08 0.074 0.085 0.052 0.227 0.108 0.324 0.06 0.102 0.16 0.226 0.284 0.321 0.067 0.052 0.169 0.08 0.232 0.143 0.052 0.05 0.066 0.14 0.103 0.216 0.1 0.204 0.362 0.44 0.488 0.653a0.47 0.47 0 0 1 0.041 0.088c0.053 0.108 0.18 0.338 0.353 0.444 0 0 0.018 0.319 0.336 0.682-0.644-0.035-1.265-0.399-1.743-0.037-0.138-0.15-0.58-0.269-0.77-0.058-0.139-0.242-0.88-0.398-1.025-0.014-1.053-0.472-2.325 0.202-2.734 0.878a2.86 2.86 0 0 0-0.214 0.114 1.196 1.196 0 0 0-1.102 0.187c-0.417 0.301-0.853 1.65-0.778 2.584 0.008 0.1 0.198 0.336 0.266 0.81 0.068 0.469 0.12 0.623 0.12 0.623-0.093 0.162-0.204 0.234-0.219 0.423-0.033 0.41 0.318 0.632 0.646 0.842 0.117 0.054 0.249 0.093 0.392 0.099 0.087 0.137 0.42 0.6 0.973 0.6l0.04-0.001c0.211 0.177 0.431 0.225 0.28 0.006a0.442 0.442 0 0 1-0.034-0.059 0.88 0.88 0 0 0 0.334 0.13c0.002 0 0.054 0.013 0.097 0.013 0.015 0 0.06 0 0.076-0.035s-0.016-0.072-0.027-0.084c-0.044-0.051-0.094-0.184-0.131-0.307 0.04 0.074 0.084 0.144 0.134 0.205 0.262 0.322 0.63 0.475 0.425 0.154a0.957 0.957 0 0 1-0.122-0.392 0.95 0.95 0 0 0 0.562 0.33c0.235 0.223 0.528 0.315 0.352 0.077a0.574 0.574 0 0 1-0.091-0.225c0.142 0.17 0.382 0.389 0.676 0.389h0.027c0.202 0.136 0.371 0.158 0.22-0.038a0.692 0.692 0 0 1-0.117-0.33c0.134 0.272 0.39 0.646 0.834 0.767 0.003 0 0.08 0.022 0.143 0.022 0.049 0 0.08-0.013 0.094-0.04 0.022-0.038-0.006-0.083-0.016-0.098a1.094 1.094 0 0 1-0.078-0.16c0.2 0.117 0.346 0.127 0.191-0.063a0.746 0.746 0 0 1-0.14-0.379c0.108 0.29 0.329 0.695 0.764 0.96 0.003 0.002 0.081 0.04 0.168 0.04a0.25 0.25 0 0 0 0.112-0.026 0.101 0.101 0 0 0 0.053-0.067c0.022-0.09-0.063-0.22-0.071-0.23a1.88 1.88 0 0 1-0.134-0.35l0.003 0.003c0.315 0.254 0.723 0.371 0.471 0.118-0.153-0.154-0.212-0.417-0.217-0.632 0.092 0.257 0.315 0.704 0.778 0.792 0.003 0 0.075 0.014 0.128 0.014 0.029 0 0.064-0.003 0.077-0.031 0.005-0.012 0.007-0.032-0.014-0.055a0.817 0.817 0 0 1-0.11-0.251c0.022 0.016 0.044 0.034 0.067 0.049 0.224 0.147 0.489 0.224 0.523 0.176 0.072 0.06 0.184 0.136 0.337 0.204 0.014 0.032 0.028 0.065 0.04 0.098 0 0 0.07 0.198 0.098 0.305-0.363-0.094-0.984-0.276-1.446-0.174-0.365 0.08-1.317 0.606-1.086 0.976a0.17 0.17 0 0 0 0.057 0.056l0.014 0.005a0.962 0.962 0 0 0 0.42 0.075l0.061-0.001a2.74 2.74 0 0 0 0.442-0.07c0.254-0.084 0.482-0.034 0.482-0.034l-0.004 0.003c0.181 0.02 0.372 0.084 0.569 0.185 0.212 0.107 0.5 0.285 0.573 0.373 0.132 0.16-0.07 0.532-0.146 0.761l-0.013 0.042-0.005 0.019a1.63 1.63 0 0 1-0.039 0.1 0.42 0.42 0 0 1-0.033-0.047c-0.072-0.121-0.11-0.228-0.148-0.179-0.038 0.05-0.04 0.244 0.032 0.427a0.496 0.496 0 0 0 0.026 0.055c-0.082 0.15-0.182 0.307-0.287 0.458a1.218 1.218 0 0 1-0.204-0.234c-0.093-0.16-0.142-0.3-0.19-0.235-0.048 0.064-0.05 0.322 0.042 0.565a0.86 0.86 0 0 0 0.123 0.213 5.25 5.25 0 0 1-0.307 0.352 1.736 1.736 0 0 1-0.276-0.345c-0.089-0.178-0.135-0.33-0.185-0.265-0.05 0.065-0.06 0.338 0.024 0.603 0.034 0.108 0.094 0.207 0.152 0.287a16.61 16.61 0 0 1-0.345 0.32 1.455 1.455 0 0 1-0.178-0.284c-0.079-0.192-0.116-0.355-0.17-0.293-0.052 0.063-0.075 0.347-0.005 0.63 0.018 0.07 0.045 0.137 0.075 0.199-0.12 0.107-0.235 0.209-0.34 0.3a1.261 1.261 0 0 1-0.072-0.183c-0.062-0.23-0.085-0.419-0.146-0.36-0.061 0.056-0.114 0.361-0.069 0.685 0.004 0.032 0.01 0.062 0.017 0.093l-0.03 0.026c-0.069 0.06-0.144 0.132-0.222 0.21a1.239 1.239 0 0 1-0.042-0.164c-0.04-0.24-0.045-0.43-0.108-0.385-0.062 0.045-0.137 0.34-0.122 0.67 0.002 0.051 0.008 0.103 0.017 0.155-0.091 0.103-0.182 0.209-0.267 0.313A2.156 2.156 0 0 1 11.36 22.368c-0.045-0.25-0.055-0.45-0.119-0.401-0.058 0.044-0.122 0.312-0.115 0.623-0.064 0.047-0.147 0.264-0.15 0.51a0.935 0.935 0 0 0 0.035 0.246c-0.042 0.058-0.114 0.099-0.164 0.17-0.261 0.365-0.155 0.8 0.409 0.896 0.173 0.532 0.61 0.79 1.282 0.797 0.09 0 0.185-0.03 0.273-0.025 0.1 0.007 0.182 0.047 0.273 0.05 0.49 0.015 0.746-0.14 1.118-0.25 0.278-0.08 0.564-0.106 0.737-0.173 0.265-0.104 0.39-0.389 0.6-0.523 0.079-0.05 0.226-0.074 0.355-0.15 0.11-0.064 0.204-0.18 0.3-0.224 0.085-0.038 0.225-0.03 0.328-0.074 0.17-0.075 0.36-0.235 0.573-0.35a16.92 16.92 0 0 1 1.282-0.622c0.227-0.1 0.467-0.333 0.6-0.348 0.158-0.018 0.341 0.113 0.464 0.1 0.25 0.297 0.338 0.713 0.327 1.248 0.015 0.001 0.004 0.132 0.004 0.132s0.087 1.148-1.705 1.768zM10.943 3.5649999999999995c0.188 0.052 0.397 0.159 0.197 0.477-0.122-0.131-0.164-0.304-0.197-0.477z m0.358 0.42c0.06-0.105 0-0.159 0.032-0.222 0.539 0.07 0.585 0.448 0.352 0.984-0.359-0.121-0.455-0.361-0.523-0.605C11.219999999999999 4.079999999999999 11.264 4.049999999999999 11.3 3.9849999999999994z m0.588 0.106c0.502 0.221 0.58 0.776 0.234 1.499a0.94 0.94 0 0 1-0.278-0.274c-0.053-0.082-0.127-0.216-0.11-0.326 0.01-0.075 0.07-0.177 0.1-0.261 0.089-0.244 0.123-0.463 0.054-0.638z m2.403 2.105c-0.009-0.026 0.01-0.025 0.031-0.045 0.75 0.152 0.81 0.884 0.487 1.435-0.152 0.261-0.302 0.399-0.536 0.326-0.194-0.06-0.22-0.217-0.314-0.324 0.382-0.556 0.375-0.966 0.332-1.392z m-0.866-0.55c-0.004-0.068-0.016-0.144 0.011-0.21a0.74 0.74 0 0 1 0.27 0.07c0.422 0.223 0.596 1.018 0.351 1.486-0.105 0.2-0.211 0.298-0.408 0.241-0.317-0.09-0.409-0.45-0.537-0.599 0.346-0.368 0.326-0.692 0.313-0.988zM12.41 4.646999999999999l0.02-0.01c0.825 0.29 1.299 0.84 0.549 1.85-0.286-0.144-0.447-0.335-0.521-0.552-0.044-0.127-0.078-0.143-0.048-0.3 0.064-0.341 0.085-0.717 0-0.988z m3.201 4.238l-0.052 0.024c-0.1 0.051-0.206 0.082-0.306 0.1-0.62-0.134-0.807-0.84-0.807-0.84 0.58-0.256 0.907-0.99 0.7-1.393 0.006-0.015 0.02-0.012 0.033-0.01 0.263 0.117 0.54 0.311 0.673 0.522 0.256 0.399 0.331 1 0.119 1.482-0.095 0.022-0.156 0.044-0.232 0.07a0.543 0.543 0 0 0-0.04 0.012l-0.07 0.026-0.007 0.003-0.011 0.004z m1-0.501l-0.122 0.104c-0.036 0.068-0.145 0.158-0.284 0.217 0.11-0.335 0.124-0.691 0.132-0.955 0.228 0.119 0.38 0.282 0.468 0.467l-0.087 0.075a0.62 0.62 0 0 0-0.163-0.194c0.032 0.093 0.05 0.188 0.057 0.286zM15.36 3.9369999999999994c5.596 0 10.251 4.023 11.232 9.335a1.862 1.862 0 0 0-0.358-0.198c-0.28-1.248-0.882-2.037-2.118-2.487-0.414-0.151-0.807-0.326-1.216-0.504 0.024-1.328-1.52-1.3-2.482-1.984-0.418-0.298-0.893-0.848-1.371-0.95-0.926-0.197-1.495 0.448-2.042 0.899-0.134-0.146-0.335-0.29-0.627-0.42 0 0-0.522-0.744-0.765-0.884a0.123 0.123 0 0 1-0.034-0.026c-0.134-0.063-0.303-0.098-0.422-0.177-0.117-0.077-0.14-0.26-0.257-0.348a1.08 1.08 0 0 0-0.225-0.122c-0.095-0.038-0.256-0.03-0.351-0.083-0.117-0.064-0.127-0.272-0.211-0.376a0.842 0.842 0 0 0-0.408-0.273c-0.08-0.026-0.198-0.028-0.27-0.066-0.079-0.043-0.098-0.177-0.16-0.26-0.143-0.192-0.384-0.341-0.66-0.439-0.06-0.02-0.139-0.02-0.182-0.05-0.051-0.034-0.057-0.119-0.088-0.184C13.305 4.077999999999999 14.315999999999999 3.9369999999999994 15.36 3.9369999999999994z m11.343 10.068c-0.116-0.199-0.223-0.39-0.263-0.559 0.08 0.052 0.148 0.11 0.212 0.172 0.02 0.128 0.036 0.257 0.051 0.387zM15.36 3.3599999999999994a12 12 0 0 0-3.55 0.535 0.27 0.27 0 0 0-0.044-0.062c-0.103-0.1-0.226-0.177-0.482-0.112A0.647 0.647 0 0 0 10.879999999999999 3.4699999999999993l-0.006 0.01c0.025 0.233 0.058 0.468 0.235 0.629l-0.003 0.028C6.58 5.853999999999999 3.3599999999999994 10.23 3.3599999999999994 15.36c0 6.628 5.372 12 12 12 6.627 0 12-5.372 12-12S21.987 3.3599999999999994 15.36 3.3599999999999994zM9.26 9.672s-0.471 0.107-0.6 0.942c0 0-0.022 0.42 0.11 0.328-0.111-0.506 0.37-0.735 0.48-0.787 0.155-0.069 0.283-0.046 0.293 0.086 0.01 0.142-0.152 0.205-0.2 0.352 0.172-0.098 0.558-0.326 0.518-0.623-0.03-0.218-0.235-0.412-0.6-0.298z m6.206 0.512c-0.81-0.475-2.907-0.393-3.4-0.43-0.484-0.038-0.726 0.579-0.726 0.579-0.007 0.13 0.1-0.02 0.1-0.02 0.317-0.57 0.595-0.466 0.595-0.466 1.003 0.293 1.182 1.767 1.224 2.108 0.041 0.34 0.127 0.119 0.127 0.119 0.097-0.848-0.52-1.882-0.65-2.015-0.13-0.131-0.007-0.206 0.408-0.09 1.247 0.35 1.364 2.349 1.44 2.59 0.075 0.242 0.122 0.01 0.122 0.01-0.17-1.837-0.868-2.29-1.054-2.543-0.077-0.105 0.554-0.12 0.831 0.06 1.568 1.013 1.392 2.953 1.534 2.676 0.143-0.283-0.395-2.038-1.15-2.636-0.152-0.119 0.524 0.09 0.773 0.319 1.18 1.09 1.324 2.271 1.415 2.612 0.09 0.34 0.133 0.225 0.133 0.225 0.016-1.155-0.899-2.617-1.722-3.098z m2.274-0.804c0.174-0.094 0.379-0.707 0.8-0.452 0.314 0.189 0.463 0.236 0.463 0.236s-0.219 0.062-0.319 0.226-0.218 0.29-0.566 0.239c-0.366-0.055-0.433 0.003-0.617 0.033 0 0 0.065-0.187 0.239-0.282z m-0.673 0.49c0.269 0.059 0.516 0.163 0.764 0.324 0.275 0.179 0.573 0.507 0.983 0.474 0.13-0.01 0.368-0.137 0.463-0.2 0.12-0.078 0.404-0.263 0.328-0.547-0.034-0.126-0.184-0.147-0.273-0.25-0.124-0.143-0.12-0.283-0.218-0.448 0.216 0.044 0.34 0.172 0.572 0.2a3.983 3.983 0 0 0-1.31-0.797c0.04-0.022 0.065-0.113 0.192-0.15 0.115-0.033 0.484 0.024 0.246-0.025-0.24-0.067-0.389 0.002-0.546 0.1-0.362 0.226-0.656 0.745-1.037 0.971-0.165 0.099-0.327 0.076-0.464 0.25 0.089 0.177 0.18 0.072 0.3 0.099z m2.838-0.323c-0.09 0.052 0.057 0.1 0.082 0.125 0.104 0.102 0.336 0.29 0.409 0.448 0.15 0.323 0.103 0.817-0.164 0.996-0.18 0.12-1.06 0.449-1.446 0.448-1.083-0.001-1.193-1.191-1.855-1.594 0.012 0.114 0.095 0.353 0.19 0.476 0.372 0.486 0.727 1.487 1.773 1.32 0.37-0.059 1.061-0.314 1.339-0.488 0.301-0.188 0.525-0.909 0.218-1.308-0.138-0.178-0.467-0.405-0.546-0.423z" /></svg>