<svg xmlns="http://www.w3.org/2000/svg" width="100%" height="100%" viewBox="0 0 30.72 30.72"><path d="M24.189999999999998 6.337999999999999l-0.086 0.095a16.245 16.245 0 0 0-1.19 1.487 5.773 5.773 0 0 0-0.446 0.719 2.88 2.88 0 0 0-0.249 0.596 0.497 0.497 0 0 0-0.033 0.177v0.004a0.297 0.297 0 0 0-0.21 0.29 0.3 0.3 0 0 0 0.187 0.284c0.038 0.371 0.08 1.142 0.07 2.2l-0.004 0.142a8.001 8.001 0 0 1-0.434 2.327c-0.016-0.01-0.03-0.014-0.04-0.013-0.03 0.003-0.11 0.12-0.19 0.251-0.058 0.09-0.119 0.195-0.154 0.291a0.37 0.37 0 0 0-0.03 0.14 0.249 0.249 0 0 0 0.01 0.088c0.01 0.037 0.022 0.058 0.022 0.058a6.836 6.836 0 0 1-0.003 0.007 0.144 0.144 0 0 0-0.028 0.067l-0.012 0.029a6.836 6.836 0 0 1-0.257 0.527l-0.077 0.142a6.836 6.836 0 0 1-0.07 0.115 0.157 0.157 0 0 0-0.022-0.014 0.16 0.16 0 0 0-0.113 0.024c-0.047 0.035-0.151 0.194-0.498 0.368a1.384 1.384 0 0 1-0.32 0.114 14.1 14.1 0 0 0 0.248-2.07 5.072 5.072 0 0 0-0.064-1.057c0.003-0.01 0.003-0.017 0.003-0.017l-0.005 0.01a4.345 4.345 0 0 0-0.104-0.458 3.554 3.554 0 0 0-0.724-1.385c-0.631-0.754-1.496-1.14-2.256-1.165l-0.125-0.002c0-0.008 0-0.015 0.002-0.022 0.02-0.098 0.024-0.127-0.087-0.032a0.872 0.872 0 0 0-0.057 0.054 2.986 2.986 0 0 0-0.146 0.007 0.716 0.716 0 0 1-0.003-0.108c0.004-0.076 0.024-0.127-0.087-0.032a0.553 0.553 0 0 0-0.142 0.167c-0.05 0.008-0.08 0.015-0.08 0.015l0.045-0.002-0.047 0.008c-0.016-0.042-0.053-0.105-0.048-0.16 0.01-0.118 0.043-0.14-0.037-0.065-0.098 0.09-0.202 0.226-0.22 0.3l-0.096 0.03c-0.018-0.019-0.074-0.07-0.086-0.179-0.013-0.11-0.012-0.166-0.08-0.05a1.14 1.14 0 0 0-0.13 0.348c-0.032 0.015-0.063 0.03-0.093 0.046a0.27 0.27 0 0 1-0.057-0.173c-0.005-0.144 0.04-0.26-0.067-0.068a1.634 1.634 0 0 0-0.146 0.406 1.6 1.6 0 0 0-0.105 0.08 2.7 2.7 0 0 1-0.008-0.17c-0.002-0.143 0.021-0.296-0.067-0.026a1.832 1.832 0 0 0-0.07 0.321c-0.404 0.385-0.65 0.917-0.644 1.572v0.007a3.42 3.42 0 0 0 0.014 0.33c0.02 0.238 0.057 0.438 0.107 0.605-0.095 0.13-0.103 0.689-0.01 0.818 0.073 0.104 0.496 0.35 0.586 0.399a0.367 0.367 0 0 1 0.094 0.093c0.115 0.188 0.115 0.567 0.027 0.762-0.107 0.238 0.107 0.285 0.285 0.32 0.178 0.036 0.415-0.023 0.463-0.118 0.047-0.095-0.154-0.31-0.237-0.748-0.084-0.439 0.13-0.474 0.13-0.474s0.095 0.024 0.237 0.249c0.11 0.175 0.227 0.313 0.336 0.413a0.727 0.727 0 0 1-0.201 0.172c0.12 0.005 0.24-0.051 0.304-0.087a0.77 0.77 0 0 0 0.07 0.045 1.015 1.015 0 0 1-0.05 0.05 0.506 0.506 0 0 0 0.109-0.022 0.295 0.295 0 0 0 0.084 0.022c0.155 0.012 0.57-0.368 0.57-0.439 0-0.018-0.015-0.04-0.038-0.063-0.042-0.045-0.12-0.1-0.207-0.177a1.03 1.03 0 0 1-0.11-0.116 0.723 0.723 0 0 1-0.141-0.374v-0.01l-0.003-0.031s0.007-0.007 0.016-0.02v0.004l0.004-0.01c0.052-0.08 0.15-0.379-0.47-1.078a3.045 3.045 0 0 0-0.924-0.706c-0.042-0.472 0.15-0.913 0.626-1.13l-0.005 0.005 0.008-0.006c0.227-0.102 0.517-0.155 0.877-0.136 0.69 0.036 1.22 0.36 1.59 0.845 0.514 0.712 0.738 1.78 0.575 2.856-0.068 0.065-0.055 0.075-0.013 0.077a4.616 4.616 0 0 1-0.055 0.273l-0.027 0.015c-0.123 0.074-0.071 0.073 0 0.092l-0.006 0.02a3.98 3.98 0 0 1-0.066 0.193 0.956 0.956 0 0 0-0.087 0.03c-0.135 0.053-0.08 0.06-0.012 0.09l0.044 0.023a5.62 5.62 0 0 1-0.101 0.237 0.746 0.746 0 0 0-0.08 0.017c-0.142 0.036-0.088 0.05-0.024 0.09a0.52 0.52 0 0 1 0.04 0.027 6.783 6.783 0 0 1-0.107 0.214 0.76 0.76 0 0 0-0.153 0.025c-0.14 0.036-0.087 0.05-0.023 0.09 0.034 0.02 0.06 0.04 0.08 0.059a8.021 8.021 0 0 1-0.094 0.165l-0.023 0.036a0.59 0.59 0 0 0-0.206 0.024c-0.142 0.036-0.088 0.05-0.024 0.09a0.67 0.67 0 0 1 0.104 0.079 8.61 8.61 0 0 1-0.126 0.18 0.514 0.514 0 0 0-0.23-0.005c-0.144 0.02-0.092 0.04-0.033 0.086 0.068 0.053 0.1 0.099 0.118 0.118l-0.062 0.084c-0.044-0.058-0.15-0.124-0.246-0.193a0.85 0.85 0 0 0-0.29-0.13c-0.048 0-0.2 0.268-1.017 0.197-0.819-0.071-0.87-0.15-0.942-0.15a0.978 0.978 0 0 0-0.228 0.059l-0.034-0.02a11.03 11.03 0 0 1-0.972-0.674c-0.464-0.37-0.72-0.647-0.72-0.647s0.137-0.125-0.047-0.284a3.32 3.32 0 0 0-0.338-0.277 2.157 2.157 0 0 0-0.242-0.166 3.57 3.57 0 0 1-0.088-0.127 11.485 11.485 0 0 1-0.363-0.628 10.455 10.455 0 0 1-0.25-0.527c-0.16-0.36-0.27-0.682-0.346-0.964a5.62 5.62 0 0 1-0.148-0.923 2.257 2.257 0 0 1 0.004-0.242 0.411 0.411 0 0 0 0.158-0.323 0.411 0.411 0 0 0-0.358-0.407c-0.204-0.427-0.982-1.477-3.881-3.68l-0.127-0.097 0.005 0.004-0.036-0.027C10.427 9.959 11.004 10.947 11.155 11.36a0.411 0.411 0 0 0-0.027 0.033 18.69 18.69 0 0 0-0.018-0.013c0.018 0 0.025-0.005 0.025-0.005s-0.672-0.546-1.787-1.23c-1.118-0.687-1.748-0.849-1.88-0.877l-0.026-0.006s0.206 0.19 0.174 0.285c-0.01 0.032-0.168 0.022-0.421 0.028a3.948 3.948 0 0 0-0.725 0.07 4.1 4.1 0 0 0-1.567 0.63C3.5979999999999994 11.145 3.3599999999999994 11.761 3.3599999999999994 11.761s0.55-0.768 1.58-1.305c-0.014 0.337-0.047 1.97 0.445 4.12 0.53 2.32 1.53 4.487 1.614 4.665 0.004 0.178 0.016 0.272 0.016 0.272s0.148-1.79 0.756-3.647c0.175 0.283 0.758 1.117 2.075 2.096 1.628 1.21 2.37 1.536 2.4 1.548 0.001 0.157 0.005 0.24 0.005 0.24s0.005-0.1 0.018-0.263a4.69 4.69 0 0 1 0.552-0.67 3.58 3.58 0 0 1 0.54-0.435c0.032 0.11 0.063 0.204 0.093 0.276-0.02-0.097-0.036-0.19-0.052-0.282 0.107 0.01 0.538 0.066 1.206 0.393 0.343 0.168 0.609 0.395 0.798 0.595a0.167 0.167 0 0 0-0.014 0.006s0.123 0.112 0.269 0.403a2.416 2.416 0 0 0-0.73 0.084 2.913 2.913 0 0 0-0.098-0.19 0.484 0.484 0 0 0-0.039-0.134c-0.027-0.061-0.095-0.1-0.164-0.14a0.397 0.397 0 0 0-0.104-0.073 0.225 0.225 0 0 1-0.055-0.073c-0.084-0.184-0.798 0.012-0.942 0.18-0.175 0.204-0.209 0.464-0.14 0.608 0.021 0.045 0.07 0.082 0.138 0.11 0.002 0.22 0.137 0.75 0.404 1.133a4.964 4.964 0 0 1-0.108-0.666c-0.009-0.16 0-0.274 0.015-0.35 0.047 0.328 0.174 0.684 0.577 1.124-0.248-0.54-0.22-0.861-0.195-1.143l0.01-0.044 0.005-0.001c0.036 0.263 0.142 0.534 0.482 0.963a0.412 0.412 0 0 1-0.014-0.028l0.014 0.021a1.626 1.626 0 0 1-0.167-1.03l0.008-0.002c0.046 0.03 0.091 0.07 0.134 0.126 0.128 0.172 0.188 0.349 0.212 0.47a0.528 0.528 0 0 0 0.067 0.383 18.33 18.33 0 0 1-0.72 0.501c-0.23 0.15-0.49 0.313-0.757 0.47-0.14 0.08-0.279 0.158-0.414 0.23l-0.135-0.077h0.002l-0.008-0.004c-0.97-0.559-1.69-0.932-2.518-1.082-0.93-0.166-1.786 0.283-1.982 1.082a1.284 1.284 0 0 0 0.552 1.38l0.012 0.008c0.013 0.01 0.026 0.017 0.04 0.026l0.06 0.036h0.002a2.1 2.1 0 0 0 0.69 0.237l0.028 0.005h0.006a3.5 3.5 0 0 0 0.412 0.044c0.975 0.047 2.156-0.408 3.323-0.982 0.1 0.054 0.202 0.108 0.306 0.166 2.547 1.403 4.098 1.585 6.154 0.728-0.502 0.151-1.208 0.356-2.094 0.344a0.05 0.05 0 0 0-0.02-0.006v0.006a5.46 5.46 0 0 1-0.647-0.05l-0.03-0.004v-0.003a0.267 0.267 0 0 0-0.001 0.002 6.25 6.25 0 0 1-1.556-0.436 7.792 7.792 0 0 1-0.745-0.362 57.065 57.065 0 0 1-1.006-0.569c0.348-0.178 0.692-0.363 1.026-0.545 0.355-0.189 0.672-0.362 0.918-0.5l0.009-0.004h0.007s0.083-0.019 0.16-0.043c0.17-0.052 0.41-0.149 0.695-0.283 0.028 0.117 0.095 0.215 0.195 0.253 0.235 0.091 0.407 0.027 0.522-0.102l0.018-0.01 0.047-0.037c0.05-0.03 0.107-0.067 0.156-0.09a1.14 1.14 0 0 1 0.053-0.022c0.04-0.01 0.078-0.023 0.116-0.037l0.033-0.01c-0.145 0.297-0.091 0.581-0.091 0.581 0.043-0.37 0.22-0.608 0.392-0.715 0.064-0.027 0.13-0.05 0.2-0.067 0.064 0 0.116 0.023 0.144 0.07 0.07 0.12 0.217 0.194 0.364 0.226 0.024 0.15-0.045 0.404-0.4 0.866l0.09-0.062 0.004-0.003 0.072-0.053c0.143-0.108 0.252-0.21 0.334-0.305a0.97 0.97 0 0 0 0.19-0.305c0.013 0.2-0.042 0.507-0.31 1.036 0 0 0.317-0.276 0.514-0.63 0.006 0.191-0.01 0.443-0.063 0.785 0.345-0.673 0.325-1.085 0.239-1.326l-0.01-0.036a0.433 0.433 0 0 0-0.01-0.065l0.042-0.057c0.118-0.166-0.048-0.344-0.154-0.414-0.06-0.04-0.2-0.154-0.454-0.157-0.225-0.27-0.51-0.15-0.958 0.145a1.297 1.297 0 0 1-0.166 0.092 0.725 0.725 0 0 0-0.055-0.116c0.16-0.096 0.326-0.2 0.494-0.308 0.317-0.207 0.553-0.416 0.728-0.615 0.51-0.517 0.69-1.02 1.21-1.446h-0.013l0.06-0.031c0.854-0.458 1.306-0.547 1.338-0.553l-0.003 0.128 0.018-0.125a1.795 1.795 0 0 1 0.481 0.344 2.12 2.12 0 0 1 0.362 0.487l0.044 0.3s0-0.116-0.01-0.33c0.153-0.151 1.02-1.043 1.724-2.466 0.694-1.404 0.944-2.523 1.017-2.924a18.188 18.188 0 0 1 0.665 2.466s-0.002-0.133-0.03-0.374c0.096-0.336 0.515-1.872 0.626-3.756 0.1-1.68-0.065-2.78-0.14-3.173 0.648 0.536 0.995 1.306 0.995 1.306s-0.04-0.163-0.188-0.437l0.02 0.027s-0.236-0.455-0.644-0.904a6.45 6.45 0 0 0-0.157-0.172c-0.432-0.46-0.854-0.617-1.17-0.672a1.57 1.57 0 0 0-0.308-0.03h-0.019c-0.125-0.003-0.2 0.002-0.207-0.026-0.02-0.095 0.11-0.285 0.11-0.285s-0.177 0.046-0.554 0.33c-0.23 0.167-0.52 0.41-0.853 0.76a13.689 13.689 0 0 0-0.89 0.994l-0.075 0.095a0.203 0.203 0 0 0-0.023-0.017c0.076-0.33 0.362-1.117 1.788-3.111zM15.28 17.45a0.351 0.351 0 0 1 0.012 0.006z m-0.263 2.606c0.088 0.044 0.19 0.106 0.303 0.194h-0.005a0.484 0.484 0 0 0-0.155 0.07 0.956 0.956 0 0 1-0.126-0.224z m-4.855 1.57c0.132 0 0.276 0.013 0.432 0.047l0.02 0.005 0.017 0.004c0.11 0.027 0.223 0.062 0.337 0.102l0.057 0.021c0.191 0.074 0.395 0.156 0.611 0.248 0.32 0.14 0.62 0.277 0.838 0.375l0.183 0.088c-0.22 0.106-0.424 0.196-0.577 0.261-1.014 0.416-1.83 0.536-2.338 0.391-0.944-0.269-0.76-1.536 0.42-1.542z" /></svg>