<svg xmlns="http://www.w3.org/2000/svg" width="100%" height="100%" viewBox="0 0 30.72 30.72"><path d="M11.52 3.3599999999999994h7.68c2.66 0 3.508 0 4.708 0.4 1.4 0.5 2.552 1.65 3.052 3.05 0.4 1.2 0.4 2.05 0.4 4.71v7.68c0 2.66 0 3.51-0.4 4.71a5.04 5.04 0 0 1-3.05 3.05c-1.2 0.4-2.05 0.4-4.71 0.4H11.52c-2.66 0-3.51 0-4.71-0.4A5.043 5.043 0 0 1 3.7599999999999993 23.91C3.3599999999999994 22.71 3.3599999999999994 21.86 3.3599999999999994 19.2V11.52C3.3599999999999994 8.86 3.3599999999999994 8.01 3.7599999999999993 6.81A5.04 5.04 0 0 1 6.81 3.7599999999999993C8.01 3.3599999999999994 8.86 3.3599999999999994 11.52 3.3599999999999994z m2.834 6.682v-0.297l-0.023-0.321c0-0.092-0.03-0.23-0.091-0.412a1.552 1.552 0 0 1-0.092-0.481c0-0.092 0.038-0.168 0.115-0.23a5.55 5.55 0 0 0 0.24-0.194c0.1-0.084 0.24-0.126 0.424-0.126 0.107 0 0.282 0.015 0.527 0.046 0.214 0 0.374-0.046 0.481-0.138 0.046-0.03 0.13-0.091 0.252-0.183s0.183-0.199 0.183-0.32c0-0.2-0.11-0.36-0.332-0.482-0.221-0.122-0.5-0.183-0.836-0.183l-0.94 0.069c-0.213 0-0.618 0.05-1.214 0.149-0.595 0.099-1.061 0.149-1.397 0.149a5.04 5.04 0 0 1-0.7-0.08 5.174 5.174 0 0 0-0.79-0.08c-0.168 0.06-0.34 0.118-0.515 0.171-0.176 0.053-0.263 0.134-0.263 0.24l0.045 0.207c0.092 0.198 0.23 0.35 0.413 0.458l0.183 0.091c0.092 0.03 0.168 0.046 0.23 0.046 0.075 0 0.19-0.007 0.343-0.023 0.122 0 0.237 0.03 0.343 0.092l0.252 0.229c0.123 0.137 0.21 0.271 0.264 0.4 0.053 0.13 0.08 0.249 0.08 0.356 0 0.076-0.015 0.206-0.046 0.39a2.86 2.86 0 0 0-0.046 0.434c0 0.138 0.035 0.336 0.104 0.596 0.068 0.26 0.103 0.473 0.103 0.641-0.016 0.26-0.023 0.52-0.023 0.78v0.778c0 0.198 0.015 0.458 0.046 0.779 0.03 0.32 0.045 0.572 0.045 0.755l-0.045 0.962-0.023 1.535-0.07 1.26c0 0.168 0.031 0.39 0.093 0.664 0.06 0.275 0.091 0.496 0.091 0.664 0 0.168-0.023 0.382-0.069 0.642-0.045 0.26-0.068 0.465-0.068 0.618 0 0.076 0.007 0.176 0.023 0.298a0.808 0.808 0 0 1 0 0.275 0.56 0.56 0 0 1-0.126 0.263 37.9 37.9 0 0 1-0.218 0.264c-0.137 0.168-0.29 0.297-0.458 0.389-0.168 0.092-0.405 0.145-0.71 0.16-0.306 0.016-0.527 0.08-0.665 0.195-0.137 0.115-0.206 0.202-0.206 0.263 0 0.397 0.367 0.596 1.1 0.596l0.16-0.023a35.207 35.207 0 0 1 1.317-0.137c0.222-0.016 0.478-0.023 0.768-0.023h0.275c0.275 0.015 0.55 0.023 0.825 0.023h2.2c0.213-0.016 0.415-0.035 0.606-0.058a4.37 4.37 0 0 1 0.516-0.034c0.198 0 0.473 0.05 0.825 0.149 0.35 0.1 0.649 0.133 0.893 0.103 0.015 0 0.103-0.023 0.264-0.069a1.69 1.69 0 0 1 0.47-0.068c0.014 0 0.118 0.011 0.308 0.034 0.191 0.023 0.348 0.034 0.47 0.034 0.061 0 0.168-0.015 0.32-0.046 0.383-0.076 0.65-0.221 0.803-0.435a0.767 0.767 0 0 0 0.16-0.435 3.704 3.704 0 0 1-0.069-0.435 2.77 2.77 0 0 1 0-0.504c0.077-0.153 0.16-0.305 0.252-0.458 0.077-0.199 0.13-0.47 0.16-0.813 0.031-0.344 0.058-0.573 0.081-0.687a2.79 2.79 0 0 1 0.195-0.527c0.107-0.237 0.16-0.44 0.16-0.607a0.974 0.974 0 0 0-0.114-0.481c-0.077-0.138-0.176-0.206-0.298-0.206-0.077 0-0.199 0.068-0.367 0.206-0.076 0.06-0.141 0.175-0.195 0.343a2.778 2.778 0 0 1-0.126 0.344c-0.183 0.275-0.366 0.542-0.55 0.802a3.768 3.768 0 0 0-0.229 0.435c-0.152 0.32-0.274 0.542-0.366 0.664-0.03 0.046-0.153 0.16-0.367 0.344a1.124 1.124 0 0 0-0.217 0.24c-0.07 0.1-0.165 0.256-0.287 0.47l-0.39 0.206-0.274 0.069a1.894 1.894 0 0 0-0.367 0.114c-0.152 0.061-0.267 0.1-0.343 0.115a1.571 1.571 0 0 1-0.298 0.022c-0.138 0-0.344-0.022-0.619-0.068a4.242 4.242 0 0 0-0.664-0.069l-0.481 0.023c-0.55 0-0.955-0.298-1.215-0.893-0.168-0.382-0.297-0.978-0.39-1.787a2.327 2.327 0 0 1-0.022-0.366c0-0.123 0.008-0.329 0.023-0.619 0-0.076 0.019-0.237 0.057-0.48a4.07 4.07 0 0 0 0.057-0.596v-1.604c0-0.137 0.008-0.313 0.023-0.527 0.016-0.213 0.023-0.366 0.023-0.458a2.14 2.14 0 0 0-0.023-0.343c0-0.092-0.03-0.222-0.091-0.39a1.244 1.244 0 0 1-0.092-0.389c0-0.076 0.015-0.183 0.046-0.32 0.03-0.138 0.046-0.245 0.046-0.321 0-0.168-0.008-0.397-0.023-0.688a13.83 13.83 0 0 1-0.023-0.687c0-0.198 0.03-0.442 0.092-0.733a3.6 3.6 0 0 0 0.091-0.71z" /></svg>