<svg xmlns="http://www.w3.org/2000/svg" width="100%" height="100%" viewBox="0 0 30.72 30.72"><path d="M26.835 7.390999999999999c-0.369 0.013-0.262 0.179-1.06 0.376-0.805 0.198-1.78 0.077-2.646 0.441-2.267 0.95-2.634 4.624-5.335 6.045-1.77 1-3.576 1.229-5.19 1.735-1.295 0.52-2.101 0.864-3.051 1.683-0.737 0.635-0.917 1.252-1.687 2.05-0.782 1.062-3.744 0.118-4.506 1.45 0.402 0.26 0.634 0.332 1.34 0.24-0.146 0.276-1.074 0.64-0.906 1.048 0 0 2.245 0.409 4.137-0.733 0.882-0.359 1.71-1.119 3.08-1.301 1.777-0.236 3.778 0.373 5.925 0.544-0.444 0.877-0.902 1.395-1.391 2.119-0.152 0.163 0.13 0.307 0.65 0.209 0.937-0.232 1.615-0.483 2.289-0.949 0.878-0.606 1.256-1.16 1.997-2.039 0.644 1.032 2.914 1.26 3.38 0.367-0.867-0.367-1.052-2.277-0.755-3.101 0.35-0.786 0.603-1.896 0.886-2.928 0.256-0.93 0.413-2.349 0.718-3.075 0.365-0.903 1.073-1.185 1.605-1.664 0.532-0.479 1.06-0.878 1.045-1.974-0.006-0.356-0.19-0.553-0.525-0.543z m-0.573 0.445c0.09 0.307 0.231 0.448 0.841 0.504-0.089 0.774-0.606 1.196-1.183 1.602-0.509 0.356-1.066 0.7-1.424 1.258-0.367 0.57-0.951 2.23-1.52 4.159-0.492 1.668-1.065 2.807-2.276 3.807-0.15-0.36 0.17-0.568 0.03-0.897-0.175 0.496-0.558 1.218-0.789 1.66-0.76 1.454-2.019 2.63-3.901 2.962 0.893-1.21 1.787-2.543 1.896-4.627-0.4 0.087-0.432 1.164-1.078 1.56-0.415 0.045-0.995-0.05-1.573-0.12-1.726-0.203-3.465-0.282-5.087 0.24-1.105 0.353-2.356 1.447-3.292 1.853-1.1 0.478-1.477 0.515-2.869 0.473-0.174-0.234 1.002-0.536 0.936-1.047-0.536-0.058-0.848 0.071-1.314-0.14a0.707 0.707 0 0 1 0.223-0.24c0.854-0.59 3.278-0.14 3.927-0.777 0.401-0.392 0.663-0.804 0.935-1.204 0.265-0.388 0.538-0.765 0.953-1.105 0.154-0.125 0.394-0.341 0.571-0.463 0.709-0.484 1.51-0.831 2.373-1.133 1.174-0.413 2.361-0.552 3.613-1.03 0.774-0.296 1.508-0.576 2.193-1.088 0.162-0.121 0.407-0.326 0.55-0.465 2.22-2.192 2.361-5.177 5.415-5.49 0.37-0.038 0.672-0.026 0.948-0.034 0.317-0.01 0.597-0.047 0.902-0.218z m-0.15 0.197c-0.017 0-0.049 0.015-0.093 0.056-0.265 0.272-0.79 0.884-0.98 1.454-0.05 0.155 0.048 0.11 0.082 0.01 0.189-0.584 0.788-1.226 0.971-1.42 0.045-0.052 0.051-0.099 0.02-0.1z m0.08 0.133c-0.017 0.002-0.046 0.022-0.084 0.069-0.224 0.306-0.657 0.77-0.766 1.36-0.027 0.16 0.064 0.103 0.082-0.001 0.106-0.605 0.608-1.11 0.763-1.327 0.037-0.058 0.036-0.105 0.006-0.101z m0.098 0.12c-0.017 0.004-0.044 0.026-0.077 0.076-0.199 0.325-0.46 0.699-0.519 1.295-0.013 0.162 0.073 0.097 0.083-0.008 0.052-0.612 0.379-1.032 0.515-1.262 0.032-0.06 0.028-0.107-0.002-0.1z m0.107 0.091c-0.018 0.005-0.042 0.03-0.071 0.082-0.169 0.34-0.328 0.6-0.334 1.2 0.002 0.163 0.08 0.09 0.081-0.015 0-0.614 0.22-0.925 0.335-1.166 0.026-0.063 0.018-0.11-0.011-0.1z m-2.064 0.294c-0.526 0.013-0.837 0.242-0.938 0.68 0.432 0.375 1.338 0.074 1.177-0.672a2.218 2.218 0 0 0-0.24-0.008Z" /></svg>