<svg xmlns="http://www.w3.org/2000/svg" width="100%" height="100%" viewBox="0 0 30.72 30.72"><path d="M23.162 15.633999999999999A3.811 3.811 0 0 0 26.98 11.83c0-2.101-1.71-3.795-3.818-3.795a3.816 3.816 0 0 0-3.818 3.81 3.817 3.817 0 0 0 3.818 3.811z m-8.602 0.705a3.43 3.43 0 0 0 3.435-3.424A3.43 3.43 0 0 0 14.559999999999999 9.489999999999998a3.44 3.44 0 0 0-3.436 3.436A3.436 3.436 0 0 0 14.559999999999999 16.36z m-7.8 0.635c1.71 0 3.093-1.38 3.093-3.081 0-1.704-1.395-3.084-3.105-3.084A3.086 3.086 0 0 0 3.6599999999999993 13.899c0 1.7 1.387 3.078 3.095 3.078z m0 0.705c-1.96 0-3.4 1.717-3.4 3.495v1.196c0 0.17 0.138 0.31 0.31 0.31h6.18a0.31 0.31 0 0 0 0.309-0.31v-1.196c0-1.779-1.437-3.5-3.398-3.5z m7.8-0.56c-2.18 0-3.78 1.915-3.78 3.891v1.331c0 0.188 0.156 0.344 0.345 0.344h6.87a0.344 0.344 0 0 0 0.342-0.344V21.009999999999998c0-1.976-1.598-3.891-3.777-3.891z m8.602-0.617c-2.422 0-4.197 2.126-4.197 4.323v1.477c0 0.21 0.172 0.381 0.382 0.381h7.63c0.21 0 0.383-0.171 0.383-0.381v-1.477c-0.001-2.197-1.776-4.323-4.198-4.323z" /></svg>