<svg xmlns="http://www.w3.org/2000/svg" width="100%" height="100%" viewBox="0 0 30.72 30.72"><path d="M3.3599999999999994 3.5939999999999994l21.912 20.537s0.412 0.575-0.124 1.151c-0.535 0.576-1.236 0.083-1.236 0.083L3.3599999999999994 3.5939999999999994z m6.508 2.058l17.01 15.638s0.413 0.576-0.123 1.152c-0.534 0.576-1.235 0.083-1.235 0.083L9.867999999999999 5.651999999999999zM5.295999999999999 10.056l17.01 15.638s0.412 0.576-0.123 1.152-1.235 0.082-1.235 0.082L5.295999999999999 10.056z m10.073-2.635l11.886 10.927s0.287 0.401-0.087 0.805-0.863 0.058-0.863 0.058L15.369 7.420999999999999z m-8.567 7.737l11.886 10.926s0.285 0.4-0.088 0.803c-0.375 0.403-0.863 0.059-0.863 0.059L6.802 15.158z m14.187-5.185l5.426 4.955s0.142 0.188-0.044 0.377c-0.185 0.188-0.428 0.027-0.428 0.027l-4.954-5.358v-0.001zM9.538 20.591l5.425 4.956s0.144 0.188-0.042 0.377-0.427 0.026-0.427 0.026l-4.956-5.359z" /></svg>