<svg xmlns="http://www.w3.org/2000/svg" width="100%" height="100%" viewBox="0 0 30.72 30.72"><path d="M8.084 5.864999999999999s-0.08 0.127-0.004 0.315c0.046 0.116 0.186 0.256 0.34 0.404 0 0 1.615 1.576 1.813 1.804 0.895 1.033 1.284 2.05 1.32 3.453 0.022 0.9-0.151 1.692-0.573 2.613-0.756 1.649-2.35 3.468-4.81 5.49l0.36-0.12c0.233-0.173 0.548-0.359 1.292-0.766 1.713-0.936 3.636-1.798 5.999-2.686 3.399-1.277 8.99-2.776 12.172-3.263l0.331-0.051-0.05-0.08c-0.292-0.452-0.49-0.731-0.73-1.027-0.697-0.863-1.542-1.567-2.577-2.146-1.422-0.797-3.267-1.416-5.6-1.88a67.93 67.93 0 0 0-2.191-0.375 209.29 209.29 0 0 1-3.924-0.64c-0.425-0.075-1.06-0.181-1.481-0.272a9.404 9.404 0 0 1-0.961-0.258c-0.268-0.105-0.645-0.207-0.726-0.515z m0.936 0.909c0.003-0.002 0.063 0.017 0.137 0.042 0.136 0.046 0.316 0.1 0.526 0.159 0.146 0.04 0.307 0.084 0.479 0.127 0.218 0.056 0.399 0.104 0.401 0.107 0.024 0.027 0.391 1.198 0.516 1.647 0.048 0.172 0.084 0.315 0.081 0.318a0.789 0.789 0 0 1-0.09-0.14c-0.424-0.746-1.097-1.505-1.874-2.116a3.104 3.104 0 0 1-0.176-0.144z m1.79 0.494c0.018-0.001 0.099 0.012 0.195 0.034 0.619 0.136 1.725 0.35 2.435 0.47 0.119 0.02 0.216 0.04 0.216 0.047a0.348 0.348 0 0 1-0.098 0.062c-0.119 0.06-0.602 0.349-0.763 0.457-0.403 0.27-0.766 0.559-1.03 0.821a5.4 5.4 0 0 1-0.197 0.192c-0.003 0-0.022-0.062-0.041-0.137a12.09 12.09 0 0 0-0.65-1.779 1.801 1.801 0 0 1-0.071-0.165c0-0.001 0-0.002 0.004-0.002z m3.147 0.598c0.02 0.007 0.06 0.13 0.129 0.404a6.05 6.05 0 0 1 0.153 1.977l-0.012 0.038-0.187-0.06c-0.388-0.124-1.02-0.31-1.562-0.46a6.625 6.625 0 0 1-0.56-0.17c0-0.022 0.449-0.471 0.642-0.642 0.369-0.326 1.362-1.098 1.397-1.087z m0.25 0.036c0.011-0.01 1.504 0.248 2.182 0.378 0.506 0.097 1.237 0.25 1.281 0.269 0.022 0.008-0.054 0.05-0.297 0.16-0.96 0.432-1.672 0.82-2.38 1.293-0.186 0.124-0.341 0.226-0.344 0.226-0.004 0-0.006-0.104-0.006-0.23 0-0.69-0.139-1.387-0.391-1.976a0.688 0.688 0 0 1-0.045-0.12z m3.86 0.764c0.011 0.011-0.038 0.306-0.08 0.48-0.132 0.54-0.482 1.344-0.914 2.099a2.26 2.26 0 0 1-0.152 0.246 1.499 1.499 0 0 1-0.219-0.115c-0.422-0.247-0.9-0.48-1.425-0.697a4.588 4.588 0 0 1-0.278-0.12c-0.024-0.022 1.143-0.795 1.762-1.166 0.495-0.297 1.292-0.741 1.306-0.727z m0.276 0.043c0.033 0 0.695 0.18 1.037 0.283 0.853 0.255 1.837 0.614 2.475 0.904l0.265 0.12-0.187 0.043c-1.561 0.36-2.9 0.773-4.188 1.296-0.107 0.044-0.2 0.08-0.207 0.08a0.911 0.911 0 0 1 0.075-0.185c0.388-0.823 0.638-1.687 0.703-2.42 0.006-0.067 0.018-0.121 0.027-0.121z m-6.58 1.512c0.01-0.01 0.514 0.108 0.789 0.185 0.413 0.116 1.292 0.41 1.292 0.433 0 0.004-0.097 0.089-0.215 0.188-0.475 0.397-0.934 0.813-1.483 1.343a5.27 5.27 0 0 1-0.308 0.285c-0.007 0-0.01-0.023-0.006-0.05 0.083-0.611 0.065-1.395-0.05-2.193a1.29 1.29 0 0 1-0.02-0.19z m10.61 0.01c0.007 0.008-0.234 0.385-0.384 0.6-0.22 0.314-0.537 0.726-1.261 1.637l-0.954 1.202a9.418 9.418 0 0 1-0.269 0.333c-0.003 0-0.05-0.066-0.103-0.146a7.584 7.584 0 0 0-1.47-1.625 9.59 9.59 0 0 0-0.27-0.218 0.427 0.427 0 0 1-0.074-0.063c0-0.01 0.617-0.274 1.088-0.466a37.02 37.02 0 0 1 2.778-0.99c0.442-0.135 0.912-0.27 0.919-0.264z m0.278 0.073a0.93 0.93 0 0 1 0.207 0.1 12.274 12.274 0 0 1 2.428 1.824c0.194 0.19 0.667 0.683 0.66 0.687l-0.363 0.029c-1.53 0.115-3.486 0.44-5.37 0.893-0.128 0.03-0.238 0.056-0.246 0.056-0.007 0 0.133-0.14 0.311-0.312 1.107-1.063 1.611-1.734 2.205-2.934 0.088-0.178 0.163-0.333 0.166-0.342h0.002z m-8.088 0.83c0.051 0.01 0.523 0.23 0.879 0.408 0.325 0.163 0.818 0.426 0.843 0.449 0.003 0.003-0.17 0.093-0.386 0.201-0.683 0.342-1.268 0.664-1.878 1.037-0.175 0.107-0.32 0.194-0.325 0.194-0.015 0-0.01-0.013 0.088-0.191a7.702 7.702 0 0 0 0.738-2.002c0.014-0.062 0.03-0.1 0.041-0.097z m-0.475 0.084c0.01 0.01-0.112 0.46-0.19 0.7a9.092 9.092 0 0 1-0.835 1.808l-0.09 0.147-0.203-0.197a2.671 2.671 0 0 0-0.676-0.5 1.009 1.009 0 0 1-0.176-0.102c0-0.03 0.62-0.593 1.098-0.998 0.343-0.29 1.064-0.867 1.072-0.858z m2.888 1.188l0.177 0.115c0.407 0.264 0.888 0.619 1.255 0.924 0.206 0.172 0.605 0.53 0.687 0.616l0.044 0.047-0.294 0.082a53.8 53.8 0 0 0-4.45 1.424c-0.167 0.061-0.31 0.112-0.32 0.112-0.021 0-0.042 0.019 0.333-0.326 0.96-0.883 1.807-1.856 2.44-2.802z m-0.759 0.19c0.009 0.009-0.492 0.71-0.789 1.106-0.356 0.473-0.99 1.265-1.426 1.78a8.769 8.769 0 0 1-0.346 0.397c-0.01 0.003-0.015-0.05-0.016-0.133 0-0.44-0.112-0.91-0.308-1.308-0.083-0.168-0.097-0.208-0.08-0.224 0.068-0.062 1.127-0.666 1.794-1.023 0.459-0.246 1.163-0.604 1.171-0.595z m-4.59 1.125a3.988 3.988 0 0 1 0.812 0.518c0.008 0.005-0.087 0.083-0.21 0.172-0.345 0.249-0.87 0.644-1.173 0.886-0.32 0.255-0.331 0.263-0.295 0.207 0.24-0.367 0.36-0.574 0.486-0.84 0.113-0.236 0.224-0.516 0.304-0.76a0.675 0.675 0 0 1 0.077-0.183z m1.223 0.96c0.017-0.003 0.04 0.028 0.139 0.175 0.207 0.31 0.366 0.722 0.407 1.058l0.008 0.073-0.497 0.192c-0.89 0.346-1.711 0.687-2.266 0.94-0.155 0.072-0.428 0.202-0.607 0.292-0.179 0.09-0.325 0.16-0.325 0.156 0-0.004 0.112-0.089 0.25-0.188 1.087-0.79 2.025-1.654 2.732-2.519 0.075-0.092 0.144-0.172 0.153-0.178a0.016 0.016 0 0 1 0.006-0.002z m-0.564 0.14c0.015 0.014-0.401 0.484-0.681 0.77-0.7 0.715-1.396 1.275-2.256 1.821-0.108 0.069-0.206 0.13-0.22 0.138-0.023 0.014 0.008-0.022 0.386-0.434 0.238-0.259 0.42-0.474 0.628-0.743 0.136-0.177 0.162-0.202 0.362-0.346 0.537-0.388 1.767-1.221 1.781-1.207zM13.285 3.3599999999999994c-0.08-0.01-1.371 0.455-2.2 0.791-1.123 0.457-1.996 0.894-2.534 1.272-0.2 0.14-0.452 0.393-0.488 0.49a0.356 0.356 0 0 0-0.021 0.123l0.488 0.46 1.158 0.37L12.447 7.359999999999999l3.153 0.542 0.032-0.27-0.028-0.005-0.415-0.066-0.085-0.148a27.702 27.702 0 0 1-1.177-2.325 12.264 12.264 0 0 1-0.53-1.465C13.328999999999999 3.3799999999999994 13.322 3.3649999999999993 13.285 3.3599999999999994z m-0.061 0.186h0.005c0.003 0.003 0.017 0.105 0.032 0.225 0.062 0.508 0.176 1 0.354 1.53 0.134 0.4 0.136 0.377-0.024 0.332-0.37-0.103-2.032-0.388-3.234-0.555a8.796 8.796 0 0 1-0.357-0.053c-0.015-0.015 0.867-0.477 1.258-0.66 0.501-0.232 1.867-0.8 1.966-0.819zM9.722 5.1739999999999995l0.141 0.048c0.772 0.262 2.706 0.632 3.775 0.72 0.12 0.01 0.222 0.021 0.225 0.024 0.003 0.003-0.1 0.058-0.228 0.122-0.515 0.258-1.083 0.573-1.476 0.819-0.115 0.072-0.22 0.13-0.235 0.129a4.868 4.868 0 0 1-0.17-0.027l-0.144-0.023-0.365-0.355c-0.641-0.62-1.141-1.1-1.335-1.28z m-0.143 0.114l0.511 0.638c0.282 0.35 0.564 0.699 0.626 0.774 0.063 0.075 0.111 0.138 0.108 0.14-0.014 0.011-0.74-0.13-1.125-0.219a8.532 8.532 0 0 1-0.803-0.212l-0.2-0.064 0.001-0.049c0.003-0.245 0.312-0.607 0.836-0.976z m4.352 0.869c0.015 0.001 0.032 0.032 0.077 0.131 0.124 0.272 0.51 1.008 0.603 1.15 0.03 0.047 0.08 0.05-0.433-0.033-1.23-0.198-1.629-0.265-1.629-0.273a0.36 0.36 0 0 1 0.083-0.054 7.13 7.13 0 0 0 1.107-0.767l0.175-0.147c0.006-0.005 0.012-0.008 0.017-0.007z m4.309 8.408l-4.808 1.568-4.18 1.846-1.17 0.31c-0.298 0.282-0.613 0.568-0.948 0.86-0.37 0.321-0.716 0.612-0.98 0.822a7.46 7.46 0 0 0-0.953 0.945c-0.332 0.414-0.592 0.854-0.704 1.193-0.2 0.61-0.103 1.228 0.285 1.798 0.495 0.728 1.48 1.468 2.625 1.972 0.585 0.256 1.57 0.588 2.31 0.774 1.233 0.312 3.614 0.65 4.926 0.7 0.266 0.01 0.62 0.01 0.637-0.002 0.028-0.019 0.233-0.405 0.47-0.89 0.806-1.646 1.389-3.19 1.703-4.508 0.19-0.799 0.338-1.863 0.434-3.125 0.027-0.354 0.037-1.533 0.016-1.934a13.564 13.564 0 0 0-0.183-1.706 0.435 0.435 0 0 1-0.012-0.15c0.014-0.01 0.059-0.025 0.65-0.197z m-1.1 0.645c0.045 0 0.16 1.114 0.191 1.82 0.006 0.151 0.005 0.247-0.004 0.247-0.028 0-0.615-0.345-1.032-0.606a28.716 28.716 0 0 1-1.162-0.772c-0.035-0.028-0.031-0.029 0.266-0.131 0.505-0.174 1.704-0.558 1.742-0.558z m-2.448 0.803c0.03 0 0.115 0.047 0.315 0.172 0.75 0.47 1.766 1.035 2.2 1.225 0.136 0.06 0.151 0.036-0.16 0.247-0.662 0.45-1.486 0.892-2.497 1.342a7.59 7.59 0 0 1-0.331 0.142 0.989 0.989 0 0 1 0.043-0.2c0.245-0.905 0.383-1.82 0.387-2.554 0.002-0.362 0.002-0.364 0.037-0.373h0.006z m-0.504 0.193c0.021 0.022 0.006 0.834-0.02 1.056a9.206 9.206 0 0 1-0.418 1.837c-0.014 0.017-0.511-0.468-0.676-0.66a4.918 4.918 0 0 1-0.669-0.973c-0.082-0.162-0.214-0.484-0.202-0.493 0.056-0.04 1.971-0.78 1.985-0.767z m-2.375 0.936c0.004 0 0.008 0.001 0.01 0.004a0.881 0.881 0 0 1 0.056 0.131c0.116 0.315 0.376 0.782 0.602 1.08a6.247 6.247 0 0 0 1.017 1.06c0.023 0.02 0.03 0.016-0.562 0.24a48.53 48.53 0 0 1-2.294 0.8c-0.327 0.106-0.604 0.195-0.615 0.2-0.033 0.011-0.023-0.009 0.073-0.158 0.427-0.666 1.073-1.97 1.435-2.892 0.062-0.16 0.122-0.32 0.133-0.356 0.015-0.052 0.031-0.07 0.08-0.092a0.149 0.149 0 0 1 0.065-0.017z m-0.728 0.3c0.01 0.009-0.174 0.398-0.356 0.751-0.351 0.686-0.739 1.361-1.253 2.185l-0.182 0.288c-0.018 0.027-0.026 0.018-0.082-0.094a3.307 3.307 0 0 1-0.28-0.842 3.39 3.39 0 0 1 0.02-1.083c0.047-0.227 0.045-0.222 0.152-0.276 0.462-0.237 1.966-0.942 1.981-0.929z m6.268 0.255v0.154a20.106 20.106 0 0 1-0.255 2.992 9.362 9.362 0 0 1-1.898-0.782c-0.354-0.194-0.865-0.507-0.85-0.522 0.003-0.004 0.154-0.083 0.334-0.177 0.714-0.37 1.395-0.77 1.988-1.166 0.222-0.148 0.555-0.389 0.629-0.454zM8.341 18.77c0.015 0 0.011 0.028-0.012 0.161a4.137 4.137 0 0 0-0.041 0.39c-0.03 0.532 0.057 0.924 0.32 1.46 0.074 0.15 0.132 0.274 0.129 0.276-0.027 0.023-2.43 0.726-3.186 0.933l-0.435 0.12c-0.027 0.008-0.029 0.002-0.02-0.06 0.083-0.533 0.49-1.232 1.058-1.82 0.378-0.39 0.68-0.622 1.195-0.915a30.782 30.782 0 0 1 0.992-0.545z m5.669 1.015c0.002-0.002 0.091 0.045 0.197 0.107 0.777 0.449 1.86 0.87 2.783 1.081l0.084 0.02-0.115 0.063c-0.482 0.268-2.071 0.929-3.694 1.537a68.82 68.82 0 0 0-0.513 0.194 0.314 0.314 0 0 1-0.082 0.027c0-0.004 0.067-0.132 0.149-0.286 0.456-0.852 0.91-1.887 1.144-2.605 0.023-0.073 0.044-0.135 0.047-0.138z m-0.578 0.19a1.39 1.39 0 0 1-0.063 0.169 23.534 23.534 0 0 1-1.261 2.54 9.009 9.009 0 0 1-0.252 0.433c-0.005 0-0.114-0.066-0.244-0.145-0.77-0.472-1.452-1.052-1.9-1.617l-0.064-0.08 0.332-0.091a23.616 23.616 0 0 0 3.19-1.103c0.142-0.06 0.26-0.109 0.262-0.106z m3.59 1.253c0.001 0 0.002 0.001 0.002 0.003 0 0.08-0.183 0.828-0.336 1.37-0.128 0.453-0.236 0.808-0.435 1.437a8.533 8.533 0 0 1-0.168 0.504 15.004 15.004 0 0 1-3-0.841 7.964 7.964 0 0 1-0.639-0.283c-0.006-0.007 0.213-0.11 0.486-0.23 1.655-0.721 3.369-1.543 3.955-1.896a0.432 0.432 0 0 1 0.135-0.064z m-8.287 0.283c0.009 0.009-0.454 0.671-1.1 1.576l-0.587 0.823c-0.097 0.139-0.245 0.358-0.329 0.488l-0.153 0.236-0.162-0.137c-0.191-0.16-0.525-0.501-0.677-0.69-0.312-0.389-0.523-0.798-0.607-1.174-0.038-0.174-0.04-0.262-0.003-0.273a176.26 176.26 0 0 1 1.934-0.455l1.3-0.305c0.209-0.05 0.382-0.09 0.384-0.089z m0.465 0.178l0.117 0.131a6.763 6.763 0 0 0 1.706 1.394c0.115 0.066 0.202 0.124 0.195 0.128a281.967 281.967 0 0 1-4.33 1.53 0.858 0.858 0 0 1-0.072-0.048l-0.067-0.048 0.105-0.152c0.34-0.493 0.768-1.035 1.705-2.162z m2.9 2.073c0.003-0.003 0.165 0.054 0.362 0.128 0.473 0.177 0.844 0.292 1.347 0.418 0.617 0.155 1.51 0.31 2.038 0.354 0.08 0.006 0.122 0.016 0.11 0.024-0.025 0.016-0.56 0.194-0.953 0.318a258.526 258.526 0 0 1-4.636 1.363c-0.035 0.007-0.157-0.025-0.157-0.04 0-0.009 0.087-0.119 0.193-0.246a22.027 22.027 0 0 0 1.476-1.984 56.9 56.9 0 0 1 0.22-0.335z m-0.642 0.018c0.005 0.005-0.253 0.418-0.706 1.132-0.192 0.301-0.409 0.645-0.483 0.762-0.075 0.118-0.184 0.298-0.242 0.4l-0.107 0.185-0.054-0.014c-0.13-0.035-1.049-0.36-1.291-0.456-0.301-0.12-0.615-0.264-0.846-0.389-0.289-0.156-0.655-0.388-0.627-0.397l1.105-0.302c1.592-0.434 2.473-0.683 3.05-0.864 0.109-0.033 0.199-0.059 0.2-0.057z m4.523 1.061h0.006c0.015 0.038-0.575 1.67-0.79 2.188-0.049 0.116-0.066 0.145-0.092 0.143a55.54 55.54 0 0 1-1.433-0.2c-0.906-0.138-2.423-0.403-2.806-0.49l-0.089-0.02 0.543-0.122c1.164-0.262 1.723-0.403 2.29-0.577a16.544 16.544 0 0 0 2.138-0.824c0.113-0.052 0.21-0.093 0.233-0.098Z" /></svg>