<svg xmlns="http://www.w3.org/2000/svg" width="100%" height="100%" viewBox="0 0 30.72 30.72"><path d="M14.703 21.391c0.058 0.049 0.12 0.098 0.181 0.146-1.177 0.783-2.59 1.238-4.107 1.238C6.68 22.776 3.3599999999999994 19.456 3.3599999999999994 15.36c0-4.095 3.32-7.416 7.416-7.416 1.518 0 2.931 0.456 4.105 1.238-0.06 0.051-0.12 0.098-0.165 0.15C12.959999999999999 10.849 11.955 13.048 11.955 15.36c0 2.311 1.001 4.51 2.748 6.031z m5.241-13.447c-1.52 0-2.931 0.456-4.105 1.238 0.06 0.051 0.12 0.098 0.165 0.15C17.759999999999998 10.849 18.765 13.048 18.765 15.36c0 2.31-1.001 4.507-2.748 6.031-0.058 0.049-0.12 0.098-0.181 0.146 1.177 0.783 2.588 1.238 4.107 1.238C24.04 22.776 27.36 19.456 27.36 15.36c0-4.094-3.32-7.416-7.416-7.416zM15.36 9.533999999999999c-0.096 0.075-0.189 0.15-0.28 0.231C13.516 11.123999999999999 12.529 13.125 12.529 15.36c0 2.236 0.987 4.236 2.551 5.595 0.09 0.08 0.185 0.158 0.28 0.232 0.096-0.074 0.189-0.152 0.28-0.232 1.563-1.359 2.551-3.359 2.551-5.595 0-2.235-0.987-4.236-2.551-5.595-0.09-0.08-0.184-0.156-0.28-0.231z" /></svg>