<svg xmlns="http://www.w3.org/2000/svg" width="100%" height="100%" viewBox="0 0 30.72 30.72"><path d="M19.963 15.209999999999999l-2.481-6.26-2.092 3.66-2.092-3.66-2.481 6.262H10.1v0.941h3.736v-0.941h-0.553l0.538-1.555 1.569 2.57 1.569-2.57 0.538 1.555h-0.553v0.941h3.751v-0.941z m5.335-1.912A9.933 9.933 0 0 0 15.36 3.3599999999999994C9.876 3.3599999999999994 5.421999999999999 7.813 5.421999999999999 13.298c0 2.75 1.121 5.23 2.914 7.023a0.804 0.804 0 0 0 1.375-0.568 0.825 0.825 0 0 0-0.239-0.582 8.303 8.303 0 0 1-2.42-5.873c0-4.588 3.72-8.324 8.308-8.324 4.588 0 8.324 3.736 8.324 8.324a8.289 8.289 0 0 1-2.436 5.888l-7.024 7.023L15.36 27.36l7.039-7.039a9.891 9.891 0 0 0 2.899-7.023Z" /></svg>