<svg xmlns="http://www.w3.org/2000/svg" width="100%" height="100%" viewBox="0 0 30.72 30.72"><path d="M15.36 8.1L3.3599999999999994 15.36l12 7.26L27.36 15.36 15.36 8.1z m0 2.905l3.45 2.087h-6.9L15.36 11.004999999999999zM10.559999999999999 14h0.786l0.606 1.77 0.564-1.77h0.79v2.568h-0.524l-0.006-1.82-0.627 1.82h-0.432l-0.632-1.805v1.805h-0.526V14z m5.275 0.148h0.51l0.001 0.559h0.371v0.343h-0.37v0.92c0 0.174 0.041 0.215 0.212 0.215a0.69 0.69 0 0 0 0.158-0.014v0.4a1.907 1.907 0 0 1-0.298 0.018c-0.313 0-0.584-0.073-0.584-0.443V15.049999999999999h-0.307v-0.341h0.307v-0.559z m5.222 0.303l1.5 0.908-1.5 0.908v-1.816zM9.66 14.453999999999999v1.812L8.16 15.36l1.498-0.906z m8.455 0.203a0.345 0.345 0 0 1 0.11 0.017v0.475a0.81 0.81 0 0 0-0.18-0.018c-0.37 0-0.5 0.27-0.5 0.598v0.842h-0.508v-1.863h0.48l0.006 0.345a0.653 0.653 0 0 1 0.592-0.396z m1.127 0c0.58 0 0.957 0.39 0.957 0.982s-0.377 0.98-0.957 0.98c-0.578 0-0.953-0.39-0.953-0.98 0-0.593 0.375-0.98 0.953-0.982z m-4.738 0.002c0.628 0 0.932 0.532 0.896 1.103v0.004h-1.334c0.015 0.325 0.172 0.473 0.455 0.473 0.204 0 0.368-0.126 0.4-0.24h0.446c-0.141 0.439-0.445 0.625-0.863 0.625-0.581 0-0.942-0.407-0.942-0.98 0-0.56 0.382-0.985 0.942-0.985z m-0.012 0.383c-0.322 0-0.416 0.252-0.422 0.396h0.824c-0.045-0.262-0.156-0.396-0.402-0.396z m4.75 0c-0.343 0-0.445 0.3-0.445 0.597 0 0.295 0.102 0.596 0.445 0.596 0.349 0 0.45-0.3 0.45-0.596 0-0.3-0.104-0.597-0.45-0.597zM11.91 17.628h6.9L15.36 19.715l-3.451-2.087z" /></svg>