<svg xmlns="http://www.w3.org/2000/svg" width="100%" height="100%" viewBox="0 0 30.72 30.72"><path d="M27.36 10.969v9.556q0 0.424-0.302 0.726-0.303 0.303-0.726 0.303h-5.19q-0.072 1.149-0.556 2.135-0.484 0.986-1.264 1.717-0.78 0.732-1.803 1.15-1.022 0.417-2.159 0.417-1.016 0-1.96-0.35-0.943-0.352-1.705-0.969-0.762-0.617-1.295-1.47-0.532-0.852-0.713-1.856H4.388q-0.423 0-0.726-0.303Q3.3599999999999994 21.723 3.3599999999999994 21.3V10.969q0-0.424 0.302-0.726 0.303-0.302 0.726-0.302h5.238q-0.072-0.182-0.072-0.387 0-0.424 0.302-0.726L14.633999999999999 4.049999999999999q0.303-0.303 0.726-0.303t0.726 0.303l4.778 4.778q0.302 0.302 0.302 0.726 0 0.205-0.072 0.387h5.238q0.423 0 0.726 0.302 0.302 0.302 0.302 0.726zM15.36 5.513l-4.04 4.04 0.387 0.388h3.012q0.423 0 0.726 0.302 0.302 0.302 0.302 0.726v2.238l3.653-3.653zM10.520999999999999 20.2l3.085-8.13H11.597999999999999q-0.508 1.489-1.028 2.952-0.52 1.464-1.004 2.964-0.496-1.488-0.992-2.958-0.496-1.47-1.004-2.957H5.513l3.037 8.129zM15.36 25.425q0.883 0 1.657-0.333t1.355-0.913q0.58-0.581 0.913-1.355 0.333-0.774 0.333-1.658 0-0.81-0.302-1.548-0.303-0.738-0.823-1.318-0.52-0.581-1.228-0.944-0.707-0.363-1.518-0.423v4.367q0 0.423-0.302 0.725-0.303 0.303-0.726 0.303H11.283q0.206 0.677 0.593 1.246 0.387 0.568 0.92 0.98 0.532 0.41 1.185 0.64 0.653 0.23 1.379 0.23z m10.452-5.42V11.49h-6.158q-0.133 0.133-0.441 0.454-0.309 0.32-0.714 0.725-0.405 0.406-0.847 0.853-0.441 0.448-0.828 0.823-0.387 0.375-0.684 0.641-0.296 0.266-0.393 0.302v0.097q0.968 0.036 1.845 0.411t1.578 0.998q0.702 0.623 1.186 1.446t0.677 1.766Z" /></svg>