<svg xmlns="http://www.w3.org/2000/svg" width="100%" height="100%" viewBox="0 0 30.72 30.72"><path d="M26.36 4.859999999999999Q26.77 4.859999999999999 27.06 5.159999999999999 27.36 5.449999999999999 27.36 5.859999999999999V24.86Q27.36 25.27 27.06 25.56 26.77 25.86 26.36 25.86H10.36Q9.95 25.86 9.66 25.56 9.36 25.27 9.36 24.86V21.36H4.359999999999999Q3.9499999999999993 21.36 3.6599999999999993 21.06 3.3599999999999994 20.77 3.3599999999999994 20.36V10.36Q3.3599999999999994 9.95 3.6599999999999993 9.66 3.9399999999999995 9.36 4.359999999999999 9.36H9.36V5.859999999999999Q9.36 5.449999999999999 9.66 5.159999999999999 9.95 4.859999999999999 10.36 4.859999999999999ZM7.919999999999999 14.36L10.75 19.29H12.54V11.43H10.8V16.46L8.07 11.43H6.18V19.29H7.919999999999999ZM25.86 24.36V21.36H22.86V24.36ZM25.86 19.86V16.86H22.86V19.86ZM25.86 15.36V12.36H22.86V15.36ZM25.86 10.86V6.359999999999999H10.86V9.36H14.36Q14.77 9.36 15.059999999999999 9.66 15.36 9.95 15.36 10.36V20.36Q15.36 20.77 15.059999999999999 21.06 14.77 21.36 14.36 21.36H10.86V24.36H21.36V10.86Z" /></svg>