<svg xmlns="http://www.w3.org/2000/svg" width="100%" height="100%" viewBox="0 0 30.72 30.72"><path d="M16.86 4.859999999999999q1.453 0 2.795 0.375 1.342 0.375 2.508 1.06 1.166 0.686 2.12 1.641 0.956 0.955 1.641 2.121 0.686 1.166 1.061 2.508Q27.36 13.907 27.36 15.36q0 1.453-0.375 2.795-0.375 1.342-1.06 2.508-0.686 1.166-1.641 2.12-0.955 0.956-2.121 1.641-1.166 0.686-2.508 1.061-1.342 0.375-2.795 0.375-1.29 0-2.52-0.305-1.23-0.304-2.337-0.884-1.108-0.58-2.063-1.418-0.955-0.838-1.693-1.893H4.356999999999999q-0.411 0-0.704-0.293T3.3599999999999994 20.364V10.356q0-0.41 0.293-0.703T4.356 9.36h3.89q0.739-1.055 1.694-1.893 0.955-0.837 2.063-1.418 1.107-0.58 2.337-0.884Q15.57 4.859999999999999 16.86 4.859999999999999z m0.75 1.535v8.215h8.215q-0.14-1.64-0.826-3.076-0.686-1.436-1.782-2.531-1.095-1.096-2.537-1.782-1.441-0.685-3.07-0.826z m-5.262 7.57q0-0.68-0.228-1.166-0.229-0.486-0.627-0.79-0.399-0.305-0.938-0.446-0.539-0.14-1.172-0.14H6.207999999999999v7.863h1.84v-2.742H9.29q0.574 0 1.119-0.17t0.978-0.493q0.434-0.322 0.698-0.802 0.263-0.48 0.263-1.114zM16.86 24.36q1.172 0 2.262-0.287t2.056-0.82q0.967-0.534 1.776-1.278 0.808-0.744 1.418-1.664 0.61-0.92 0.984-1.986 0.375-1.067 0.469-2.227h-9.703V6.395q-1.735 0.14-3.27 0.908T10.157 9.36h4.207q0.41 0 0.703 0.293t0.293 0.703v10.008q0 0.41-0.293 0.703t-0.703 0.293H10.157q0.644 0.715 1.412 1.271 0.768 0.557 1.623 0.944 0.855 0.387 1.781 0.586Q15.899999999999999 24.36 16.86 24.36zM9.172 12.958q0.575 0 0.915 0.228 0.34 0.229 0.34 0.838 0 0.27-0.124 0.44-0.123 0.17-0.31 0.275-0.188 0.105-0.422 0.146-0.234 0.041-0.445 0.041H8.047V12.958Z" /></svg>