<svg xmlns="http://www.w3.org/2000/svg" width="100%" height="100%" viewBox="0 0 30.72 30.72"><path d="M22.589 7.539999999999999l-4.066 2.327V5.186L15.353 3.3599999999999994 12.187 5.1899999999999995v4.677L8.14 7.529999999999999 4.965999999999999 9.36v3.664L9.017 15.36l-4.054 2.343V21.36l3.165 1.831 4.044-2.338v4.681L15.343 27.36l3.174-1.831v-4.676l4.052 2.327 3.173-1.829v-3.646L21.698999999999998 15.36l4.058-2.336V9.36l-3.164-1.82h-0.004z m0.373 3.429V9.075l1.639 0.942v1.905l-1.636-0.953h-0.003z m1.638 9.286l-6.075-3.504 1.65-0.945L24.599 18.36v1.896l0.001-0.001z m-6.827-3.95L16.122999999999998 15.36l6.452-3.726 1.641 0.944-6.446 3.727h0.003zM6.494 12.578999999999999l1.641-0.944L14.588 15.36l-1.639 0.945-6.455-3.726z m5.69 4.17l-6.075 3.508V18.36l4.435-2.555 1.641 0.945v-0.001zM6.109 11.924V10.02l1.64-0.945v1.898l-1.64 0.951z m9.627 0V4.909999999999999l1.641 0.937V10.969999999999999l-1.641 0.953v0.001z m-2.402-0.96V5.853l1.64-0.944v7.004l-1.64-0.949z m8.866-1.889v1.898l-6.456 3.734V12.802l6.456-3.727z m-7.228 3.724v1.897L8.512999999999998 10.969V9.075l6.46 3.721-0.001 0.003z m-2.403 6.513l-4.435 2.555-1.64-0.944 6.074-3.508v1.897z m0.765-2.343l1.64-0.945v7.453l-1.64 0.959v-7.467z m3.656 8.115l-1.639 0.954-1.64-0.951 1.64-0.946 1.639 0.946v-0.003z m0.394-0.657l-1.648-0.95v-7.441l1.648 0.944v7.458-0.011z m6.831-3.504l-1.641 0.944-4.425-2.555v-1.897l6.075 3.508h-0.009z" /></svg>