<svg xmlns="http://www.w3.org/2000/svg" width="100%" height="100%" viewBox="0 0 30.72 30.72"><path d="M7.324999999999999 12.064V27.36H3.3679999999999994V10.224h2.097c1.066 0 1.86 0.774 1.86 1.84m2.366-1.84c0.268 0.521 0.521 1.315 0.521 1.84V27.36h3.685V12.064a1.784 1.784 0 0 0-1.84-1.84M20.759999999999998 27.36V12.064a1.795 1.795 0 0 0-1.844-1.84h-2.382c0.269 0.521 0.269 1.315 0.269 1.84V27.36M3.3679999999999994 7.312999999999999V3.3599999999999994h15.549c4.75 0 8.435 3.953 8.435 8.704V27.36h-3.685V12.064a4.735 4.735 0 0 0-4.75-4.75z" /></svg>