<svg xmlns="http://www.w3.org/2000/svg" width="100%" height="100%" viewBox="0 0 30.72 30.72"><path d="M23.985 11.487q-0.55 0-1.025-0.205-0.475-0.205-0.832-0.563-0.358-0.357-0.563-0.832Q21.36 9.413 21.36 8.861999999999998q0-0.54 0.205-1.02t0.563-0.837q0.357-0.358 0.832-0.563 0.474-0.205 1.025-0.205 0.54 0 1.02 0.205t0.837 0.563q0.358 0.357 0.563 0.837 0.205 0.48 0.205 1.02 0 0.55-0.205 1.025-0.205 0.475-0.563 0.832-0.357 0.358-0.837 0.563-0.48 0.205-1.02 0.205z m0-3.75q-0.469 0-0.797 0.328-0.328 0.328-0.328 0.797 0 0.469 0.328 0.797 0.328 0.328 0.797 0.328 0.469 0 0.797-0.328 0.328-0.328 0.328-0.797 0-0.469-0.328-0.797-0.328-0.328-0.797-0.328zM27.36 13.362v5.578q0 0.774-0.293 1.46-0.293 0.685-0.803 1.194-0.51 0.51-1.195 0.803-0.686 0.293-1.459 0.293-0.445 0-0.908-0.105-0.463-0.106-0.85-0.329-0.293 0.95-0.855 1.729-0.563 0.78-1.319 1.336-0.756 0.557-1.67 0.861-0.914 0.305-1.898 0.305-1.148 0-2.162-0.398-1.014-0.399-1.805-1.102-0.79-0.703-1.312-1.664t-0.674-2.086h-5.8q-0.411 0-0.704-0.293T3.3599999999999994 20.241V10.233q0-0.41 0.293-0.703t0.703-0.293h8.59q-0.34-0.715-0.34-1.5 0-0.727 0.275-1.365 0.276-0.639 0.75-1.114 0.475-0.474 1.114-0.75 0.638-0.275 1.365-0.275t1.365 0.275q0.639 0.276 1.114 0.75 0.474 0.475 0.75 1.114 0.275 0.638 0.275 1.365t-0.275 1.365q-0.276 0.639-0.75 1.113-0.475 0.475-1.114 0.75-0.638 0.276-1.365 0.276-0.188 0-0.375-0.024-0.188-0.023-0.375-0.058v1.078h10.875q0.469 0 0.797 0.328 0.328 0.328 0.328 0.797zM16.11 5.733q-0.41 0-0.78 0.158-0.368 0.158-0.638 0.434-0.27 0.275-0.428 0.639-0.158 0.363-0.158 0.773 0 0.41 0.158 0.78 0.159 0.368 0.428 0.638 0.27 0.27 0.639 0.428 0.369 0.158 0.779 0.158 0.41 0 0.773-0.158 0.364-0.159 0.64-0.428 0.274-0.27 0.433-0.639 0.158-0.369 0.158-0.779 0-0.41-0.158-0.773-0.159-0.364-0.434-0.64-0.275-0.275-0.639-0.433-0.363-0.158-0.773-0.158zM10.297 13.174h2.25V11.3H6.1739999999999995v1.875h2.25v6h1.875z m10.313 7.313v-6.75H15.36v6.504q0 0.41-0.293 0.703t-0.703 0.293H11.668999999999999q0.152 0.809 0.556 1.5 0.405 0.691 0.985 1.19 0.58 0.497 1.318 0.779 0.738 0.281 1.582 0.281 0.926 0 1.746-0.352 0.82-0.351 1.436-0.966 0.615-0.616 0.966-1.43 0.352-0.815 0.352-1.752z m5.25-1.547v-5.203h-3.75v6.855q0.305 0.305 0.691 0.452 0.387 0.146 0.809 0.146 0.469 0 0.879-0.176 0.41-0.175 0.715-0.48 0.304-0.305 0.48-0.715t0.176-0.879Z" /></svg>