<svg xmlns="http://www.w3.org/2000/svg" width="100%" height="100%" viewBox="0 0 30.72 30.72"><path d="M15.36 3.3599999999999994C8.76 3.3599999999999994 3.3599999999999994 8.26 3.3599999999999994 14.309999999999999 3.3599999999999994 20.36 8.76 25.259999999999998 15.36 25.259999999999998c1.4 0 2.85-0.25 4.2-0.7 0.15-0.05 0.35 0 0.45 0.1 1 1.35 2.55 2.3 4.25 2.7l0.25-0.1v-0.3a4.65 4.65 0 0 1 0.2-5.9C26.259999999999998 19.21 27.36 16.86 27.36 14.309999999999999 27.36 8.26 21.91 3.3599999999999994 15.36 3.3599999999999994z m-0.05 5.2c0.15 0 0.3 0.1 0.35 0.25L16.91 12.36l3.85 0.1c0.15 0 0.3 0.1 0.35 0.2 0.05 0.15 0 0.3-0.15 0.4L17.91 15.36l1.1 3.6c0.05 0.15 0 0.3-0.15 0.4h-0.4l-3.15-2.15L12.16 19.36h-0.4c-0.15-0.1-0.2-0.25-0.15-0.4l1.1-3.6L9.66 13.059999999999999c-0.15-0.1-0.2-0.25-0.15-0.4 0.05-0.1 0.2-0.2 0.35-0.2l3.85-0.1 1.25-3.55c0.05-0.15 0.2-0.25 0.35-0.25z" /></svg>