<svg xmlns="http://www.w3.org/2000/svg" width="100%" height="100%" viewBox="0 0 30.72 30.72"><path d="M7.683 19.61C6.489999999999999 18.714 4.999999999999999 17.67 3.3599999999999994 16.479999999999997l5.814-2.237 2.386 1.79c-1.79 2.086-2.982 2.831-3.877 3.577z m15.952-6.261c-0.447-1.193-0.745-2.385-1.193-3.578-0.447-1.343-0.894-2.535-1.64-3.579-0.299-0.447-0.895-1.49-1.64-1.49-0.15 0-0.299 0.148-0.448 0.148-0.447 0.15-1.043 1.043-1.193 1.64-0.447 0.745-1.342 1.938-1.938 2.683-0.149 0.299-0.447 0.597-0.596 0.746-0.447 0.298-0.894 0.745-1.491 1.043-0.15 0-0.298 0.149-0.447 0.149-0.447 0-0.745 0.298-1.043 0.447-0.447 0.447-0.894 1.043-1.342 1.49 0 0.15-0.15 0.299-0.298 0.448l2.236 1.64c1.64-1.938 3.578-3.876 4.92-7.603 0 0-0.448 4.026-4.026 8.349-2.236 2.534-4.025 3.876-4.324 4.174 0 0 0.597-0.149 1.194 0.15 1.193 0.446 1.789 2.087 2.236 3.279 0.298 0.894 0.745 1.64 1.043 2.534 1.193-0.298 1.938-0.745 2.683-1.491 0.745-0.746 1.491-1.64 2.236-2.385 1.342-1.64 2.982-3.728 5.069-2.684 0.298 0.15 0.745 0.447 0.894 0.596 0.447 0.298 0.745 0.596 1.193 1.043 0.745 0.597 1.043 1.044 1.64 1.343-1.491-2.982-2.534-5.964-3.727-9.094z" /></svg>