<svg xmlns="http://www.w3.org/2000/svg" width="100%" height="100%" viewBox="0 0 30.72 30.72"><path d="M15.360999999999999 16.661l3.277 3.819-0.75 0.9-2.133-2.521-1.131-1.338 0.737-0.86zM27.36 5.77v19.182c0 0.655-0.531 1.186-1.186 1.186H4.545999999999999A1.186 1.186 0 0 1 3.3599999999999994 24.951V5.768999999999999c0-0.655 0.531-1.186 1.186-1.186h21.628c0.655 0 1.186 0.53 1.186 1.186z m-2.241 17.09l-2.116-2.542-2.115-2.541-0.586 0.704-3.25-3.788 4.913-5.73-1.175-1.008-4.76 5.549-4.743-5.527-1.947 1.67 5 5.827-0.73 0.851-1.24-1.465-3.384 4-3.385 4h19.518z" /></svg>