<svg xmlns="http://www.w3.org/2000/svg" width="100%" height="100%" viewBox="0 0 30.72 30.72"><path d="M3.3599999999999994 27.36V3.3599999999999994h24v24H3.3599999999999994zM19.75 10.12l-0.23 0.03-0.22 0.04-0.21 0.06-0.2 0.07-0.2 0.07-0.19 0.09-0.18 0.1-0.17 0.11-0.17 0.12-0.16 0.13-0.15 0.14-0.14 0.15-0.13 0.16-0.13 0.17-0.11 0.17-0.11 0.19-0.1 0.19-0.09 0.21-0.08-0.22-0.1-0.21-0.1-0.2-0.12-0.19-0.13-0.17-0.14-0.16-0.15-0.15-0.15-0.14-0.17-0.13-0.17-0.11-0.19-0.11-0.18-0.09-0.2-0.08-0.2-0.07-0.2-0.06-0.21-0.05-0.22-0.04-0.22-0.02-0.22-0.02h-0.43l-0.21 0.02-0.2 0.02-0.2 0.03-0.19 0.05-0.18 0.05-0.18 0.06-0.18 0.07-0.16 0.08-0.17 0.08-0.15 0.1-0.15 0.1-0.14 0.11-0.14 0.12-0.13 0.13-0.12 0.13-0.12 0.14-0.11 0.15-0.1 0.16L10.36 11.86V10.309999999999999H6.01v2.22h1.37v5.86H6.01v2.26h6.33v-2.26H10.36v-3.81l0.01-0.21 0.03-0.2 0.03-0.19 0.04-0.18 0.05-0.18 0.06-0.16 0.07-0.16 0.08-0.14 0.09-0.14 0.11-0.12 0.11-0.11 0.12-0.1 0.14-0.09 0.15-0.08 0.15-0.06 0.17-0.05 0.19-0.04 0.19-0.02 0.21-0.01h0.17l0.16 0.02 0.16 0.03 0.14 0.04 0.14 0.05 0.13 0.06 0.12 0.07 0.11 0.09 0.1 0.1 0.1 0.11 0.08 0.12 0.08 0.14 0.06 0.16 0.06 0.16 0.05 0.19 0.04 0.19 0.03 0.21 0.03 0.23 0.01 0.25v6.09h4.3v-2.26H17.06v-3.6l0.01-0.21 0.01-0.21 0.02-0.2 0.04-0.19 0.04-0.18 0.05-0.18 0.06-0.16 0.07-0.16 0.08-0.14 0.09-0.14 0.1-0.12 0.12-0.11 0.12-0.1 0.14-0.09 0.14-0.08 0.16-0.06 0.17-0.05 0.19-0.04 0.19-0.02 0.21-0.01h0.17l0.16 0.02 0.16 0.03 0.14 0.04 0.14 0.05 0.13 0.06 0.12 0.07 0.11 0.09 0.1 0.1 0.09 0.11 0.09 0.12 0.08 0.14 0.06 0.16 0.06 0.16 0.05 0.19 0.04 0.19 0.03 0.21 0.03 0.23 0.01 0.25v6.09h4.3v-2.26h-1.37v-4.72l-0.01-0.36-0.04-0.33-0.06-0.32-0.08-0.3-0.1-0.28-0.12-0.26-0.14-0.24-0.16-0.23-0.18-0.2-0.18-0.19-0.21-0.16-0.21-0.15-0.23-0.13-0.24-0.12-0.25-0.09-0.25-0.08-0.27-0.06-0.26-0.04-0.28-0.03h-0.52l-0.23 0.02z" /></svg>