<svg xmlns="http://www.w3.org/2000/svg" width="100%" height="100%" viewBox="0 0 30.72 30.72"><path d="M3.3599999999999994 14.42h0.292v0.415h0.01c0.106-0.289 0.426-0.485 0.764-0.485 0.673 0 0.877 0.355 0.877 0.928v1.547H5.01v-1.5c0-0.415-0.135-0.728-0.608-0.728-0.464 0-0.742 0.355-0.75 0.825v1.403H3.3599999999999994z m2.467 0.736c0.027-0.563 0.422-0.806 0.969-0.806 0.422 0 0.88 0.13 0.88 0.774v1.277c0 0.112 0.056 0.177 0.172 0.177 0.033 0 0.07-0.01 0.093-0.019v0.247a0.8 0.8 0 0 1-0.19 0.019c-0.297 0-0.343-0.168-0.343-0.42h-0.01c-0.204 0.313-0.412 0.49-0.871 0.49-0.44 0-0.803-0.22-0.803-0.704 0-0.676 0.655-0.699 1.285-0.773 0.241-0.028 0.375-0.061 0.375-0.327 0-0.396-0.282-0.494-0.625-0.494-0.362 0-0.63 0.168-0.64 0.56z m1.557 0.355h-0.008c-0.038 0.07-0.168 0.093-0.246 0.107-0.497 0.088-1.113 0.084-1.113 0.554 0 0.294 0.26 0.476 0.533 0.476 0.445 0 0.84-0.285 0.834-0.755z m1.443-1.091h0.487v0.247h-0.487v1.622c0 0.19 0.028 0.302 0.236 0.317 0.084 0 0.167-0.005 0.25-0.015v0.252c-0.088 0-0.171 0.01-0.26 0.01-0.388 0-0.523-0.13-0.518-0.541v-1.645h-0.418v-0.247h0.418v-0.722h0.292z m1.308 2.405V14.42h-0.293v2.405z m0-2.857v-0.47h-0.293v0.47z m2.702 1.655c0 0.69-0.398 1.272-1.13 1.272-0.734 0-1.132-0.583-1.132-1.272 0-0.69 0.398-1.273 1.131-1.273s1.131 0.583 1.131 1.273m-1.97 0c0 0.512 0.278 1.025 0.84 1.025 0.56 0 0.838-0.513 0.838-1.025 0-0.513-0.278-1.026-0.839-1.026-0.56 0-0.839 0.513-0.839 1.026m2.401-1.203h0.293v0.415h0.01c0.106-0.289 0.425-0.485 0.764-0.485 0.673 0 0.877 0.355 0.877 0.928v1.547h-0.292v-1.5c0-0.415-0.135-0.728-0.608-0.728-0.464 0-0.742 0.355-0.751 0.825v1.403h-0.293z m2.467 0.736c0.029-0.563 0.422-0.806 0.97-0.806 0.421 0 0.88 0.13 0.88 0.774v1.277c0 0.112 0.056 0.177 0.172 0.177a0.27 0.27 0 0 0 0.093-0.019v0.247a0.804 0.804 0 0 1-0.19 0.019c-0.298 0-0.344-0.168-0.344-0.42h-0.009c-0.204 0.313-0.412 0.49-0.872 0.49-0.44 0-0.802-0.22-0.802-0.704 0-0.676 0.654-0.699 1.285-0.773 0.24-0.028 0.375-0.061 0.375-0.327 0-0.396-0.283-0.494-0.626-0.494-0.361 0-0.63 0.168-0.64 0.56z m1.558 0.355h-0.01c-0.036 0.07-0.166 0.093-0.245 0.107-0.496 0.088-1.113 0.084-1.113 0.554 0 0.294 0.26 0.476 0.534 0.476 0.445 0 0.839-0.285 0.834-0.755z m1.33 1.314v-3.328h-0.291v3.328z m2.839-2.48v2.35c0 0.428-0.033 1.141-1.248 1.141-0.51 0-1.047-0.219-1.075-0.746h0.704c0.028 0.126 0.08 0.252 0.455 0.252 0.347 0 0.514-0.168 0.514-0.569v-0.298l-0.009-0.009c-0.106 0.191-0.269 0.373-0.658 0.373-0.593 0-1.062-0.415-1.062-1.282 0-0.857 0.482-1.277 1.024-1.277 0.46 0 0.645 0.27 0.724 0.434h0.01v-0.368z m-1.197 1.944c0.441 0 0.552-0.378 0.552-0.718 0-0.4-0.195-0.727-0.557-0.727-0.24 0-0.51 0.178-0.51 0.755 0 0.317 0.13 0.69 0.515 0.69z m1.753-1.943h0.62v0.429h0.01c0.135-0.252 0.283-0.495 0.678-0.495 0.041 0 0.083 0.005 0.125 0.01v0.661c-0.056-0.009-0.125-0.009-0.186-0.009-0.505 0-0.598 0.317-0.598 0.592v1.29h-0.649z m2.526 2.478v-2.495h-0.648v2.495z m-0.802-3.461l0.477 0.479 0.477-0.48-0.477-0.478zM27.36 16.825h-0.635v-0.312h-0.01c-0.157 0.28-0.444 0.377-0.713 0.377-0.732 0-1.039-0.652-1.039-1.333 0-0.857 0.482-1.277 1.025-1.277a0.79 0.79 0 0 1 0.714 0.387h0.009V13.479999999999999H27.36z m-1.196-0.47c0.413 0 0.575-0.346 0.575-0.714 0-0.396-0.111-0.797-0.556-0.797-0.413 0-0.552 0.369-0.552 0.76 0 0.294 0.115 0.75 0.533 0.75z" /></svg>