<svg xmlns="http://www.w3.org/2000/svg" width="100%" height="100%" viewBox="0 0 30.72 30.72"><path d="M17.536 27.36h3.674c3.376 0 6.15-2.774 6.15-6.15V9.51C27.36 6.135 24.586 3.3599999999999994 21.21 3.3599999999999994H17.46c-0.074 0-0.15 0.074-0.15 0.15v23.7c-0.001 0.076 0.075 0.15 0.226 0.15z m4.574-13.199c1.351 0 2.399 1.125 2.399 2.398 0 1.352-1.125 2.4-2.399 2.4-1.35 0-2.4-1.049-2.4-2.4-0.075-1.349 1.05-2.398 2.4-2.398zM14.76 3.3599999999999994H9.51C6.135 3.3599999999999994 3.3599999999999994 6.135 3.3599999999999994 9.51v11.7C3.3599999999999994 24.586 6.135 27.36 9.51 27.36h5.25c0.074 0 0.15-0.074 0.15-0.149V3.5099999999999993c0.001-0.076-0.075-0.15-0.15-0.15zM13.036 25.410999999999998H9.51c-2.326 0-4.201-1.875-4.201-4.201V9.51c0-2.326 1.875-4.201 4.201-4.201H12.959999999999999l0.076 20.102zM7.109999999999999 10.559c0 1.275 0.975 2.25 2.25 2.25s2.25-0.975 2.25-2.25c0-1.273-0.975-2.25-2.25-2.25s-2.25 0.977-2.25 2.25z" /></svg>