<svg xmlns="http://www.w3.org/2000/svg" width="100%" height="100%" viewBox="0 0 30.72 30.72"><path d="M3.7539999999999996 6.976999999999999a0.395 0.395 0 0 0-0.393 0.395c0 0.12 0.054 0.225 0.14 0.297l8.506 7.404a0.39 0.39 0 0 1-0.013 0.588l-8.52 7.412a0.393 0.393 0 0 0 0.28 0.67h4.86a0.39 0.39 0 0 0 0.265-0.104l9.17-7.98a0.396 0.396 0 0 0 0-0.596L8.879999999999999 7.0809999999999995a0.386 0.386 0 0 0-0.264-0.104z m18.358 0a0.389 0.389 0 0 0-0.273 0.113l-4.716 4.106a0.392 0.392 0 0 0-0.04 0.564l2.427 2.114a0.393 0.393 0 0 0 0.291 0.13 0.394 0.394 0 0 0 0.278-0.119l7.127-6.203a0.389 0.389 0 0 0 0.154-0.31 0.395 0.395 0 0 0-0.393-0.395z m-2.31 9.742c-0.116 0-0.22 0.05-0.292 0.13l-2.426 2.113a0.392 0.392 0 0 0 0.039 0.564l4.716 4.104c0.07 0.07 0.166 0.113 0.273 0.113h4.855a0.393 0.393 0 0 0 0.239-0.705l-7.127-6.203a0.393 0.393 0 0 0-0.278-0.116z" /></svg>