<svg xmlns="http://www.w3.org/2000/svg" width="100%" height="100%" viewBox="0 0 30.72 30.72"><path d="M18.009999999999998 13.357a0.069 0.069 0 0 0-0.07 0.069v1.415c-0.123-0.177-0.42-0.37-0.805-0.37-0.745 0-1.316 0.659-1.316 1.445 0 0.787 0.571 1.447 1.316 1.447 0.386 0 0.682-0.194 0.806-0.372v0.221c0 0.05 0.04 0.09 0.09 0.09h0.607a0.07 0.07 0 0 0 0.07-0.07v-3.806a0.069 0.069 0 0 0-0.07-0.069z m-3.913 0.404a0.07 0.07 0 0 0-0.069 0.07c0 0.779 0.064 0.7-0.504 0.7a0.09 0.09 0 0 0-0.09 0.09v0.486c0 0.05 0.04 0.089 0.09 0.089h0.504v1.136c0 0.676 0.476 1.003 1.07 1.003 0.183 0 0.32-0.017 0.434-0.046a0.07 0.07 0 0 0 0.052-0.067v-0.526a0.07 0.07 0 0 0-0.086-0.066 0.984 0.984 0 0 1-0.227 0.023c-0.33 0-0.476-0.133-0.476-0.47v-0.987h0.608a0.07 0.07 0 0 0 0.07-0.069v-0.527a0.069 0.069 0 0 0-0.07-0.069h-0.608v-0.701a0.069 0.069 0 0 0-0.069-0.07z m-8.396 0.676c-0.516 0-0.955 0.236-1.201 0.598-0.02 0.03-0.055 0.095-0.102 0.095-0.226 0.002-0.24-0.276-0.247-0.524a0.07 0.07 0 0 0-0.069-0.066l-0.653-0.004a0.07 0.07 0 0 0-0.069 0.07c0.014 0.606 0.126 1.018 0.86 1.181 0.04 0.01 0.068 0.045 0.068 0.087v1.36c0 0.037 0.03 0.068 0.069 0.068h0.634a0.07 0.07 0 0 0 0.069-0.07V15.83c0-0.312 0.221-0.667 0.64-0.667 0.4 0 0.642 0.355 0.642 0.667v1.404c0 0.038 0.03 0.069 0.069 0.069h0.634a0.07 0.07 0 0 0 0.069-0.07v-1.508c0-0.72-0.616-1.287-1.413-1.287z m3.207 0.033c-0.851 0-1.472 0.626-1.472 1.446 0 0.876 0.65 1.431 1.483 1.447 0.655 0.012 1.09-0.363 1.194-0.494a0.068 0.068 0 0 0-0.015-0.097l-0.435-0.34c-0.047-0.047-0.084-0.021-0.112 0.001-0.07 0.057-0.203 0.22-0.626 0.237-0.37 0.015-0.7-0.205-0.745-0.576h2.03a0.07 0.07 0 0 0 0.069-0.065c0.006-0.082 0.006-0.142 0.006-0.196 0-0.897-0.644-1.363-1.377-1.363z m11.652 0c-0.812 0-1.472 0.637-1.472 1.446 0 0.81 0.66 1.447 1.472 1.447 0.812 0 1.472-0.638 1.472-1.447s-0.66-1.446-1.472-1.446z m3.229 0c-0.812 0-1.472 0.637-1.472 1.446 0 0.81 0.66 1.447 1.472 1.447 0.812 0 1.472-0.638 1.472-1.447s-0.66-1.446-1.472-1.446z m3.314 0.028a0.745 0.745 0 0 0-0.695 0.476v-0.374a0.069 0.069 0 0 0-0.069-0.069h-0.628a0.069 0.069 0 0 0-0.07 0.07v2.632a0.07 0.07 0 0 0 0.07 0.069h0.628a0.07 0.07 0 0 0 0.07-0.07v-1.255c0-0.454 0.24-0.737 0.604-0.737 0.092 0 0.175 0.013 0.26 0.035A0.069 0.069 0 0 0 27.36 15.209999999999999v-0.624a0.07 0.07 0 0 0-0.056-0.068 0.938 0.938 0 0 0-0.201-0.02z m-16.666 0.033a0.069 0.069 0 0 0-0.058 0.108l0.88 1.305L10.36 17.192a0.07 0.07 0 0 0 0.056 0.11h0.745a0.068 0.068 0 0 0 0.056-0.03l0.564-0.79 0.563 0.79a0.069 0.069 0 0 0 0.056 0.03h0.74a0.069 0.069 0 0 0 0.057-0.11l-0.899-1.248 0.88-1.305a0.069 0.069 0 0 0-0.058-0.108h-0.738a0.07 0.07 0 0 0-0.058 0.03l-0.548 0.818-0.549-0.817a0.07 0.07 0 0 0-0.057-0.03z m-1.552 0.565c0.286 0 0.566 0.155 0.633 0.482h-1.31c0.073-0.338 0.392-0.482 0.677-0.482z m8.412 0.067c0.42 0 0.705 0.321 0.705 0.753 0 0.433-0.285 0.754-0.705 0.754s-0.705-0.321-0.705-0.754c0-0.432 0.285-0.753 0.705-0.753z m3.263 0.016c0.403 0 0.694 0.31 0.694 0.737s-0.291 0.737-0.694 0.737c-0.403 0-0.7-0.31-0.7-0.737 0-0.426 0.297-0.737 0.7-0.737z m3.229 0c0.403 0 0.694 0.31 0.694 0.737s-0.291 0.737-0.694 0.737c-0.403 0-0.7-0.31-0.7-0.737 0-0.426 0.297-0.737 0.7-0.737z" /></svg>