<svg xmlns="http://www.w3.org/2000/svg" width="100%" height="100%" viewBox="0 0 30.72 30.72"><path d="M10.175999999999998 18.485999999999997l4.703 2.715v-5.433L10.174 13.055v5.432z m-2.025 1.168l6.73 3.882v3.82L4.840999999999999 21.566V9.975999999999999l3.31 1.91v7.769zM15.36 9.504999999999999L10.658 12.222999999999999 15.36 14.939l4.704-2.717L15.36 9.506z m0-2.332l5.659 3.274 3.31-1.91L15.36 3.3599999999999994 5.334999999999999 9.149999999999999 8.64 11.055z m7.207 12.48v-3.947l-2.023 1.167v1.614l-4.703 2.715v0.005-5.436L25.878 9.98v11.587L15.84 27.36v-3.817l6.727-3.887z" /></svg>