<svg xmlns="http://www.w3.org/2000/svg" width="100%" height="100%" viewBox="0 0 30.72 30.72"><path d="M21.495 17.308999999999997c-0.319 0.221-0.675 0.355-1.057 0.416s-0.761 0.049-1.142 0.049H11.423c-0.382 0-0.762 0.014-1.145-0.049-0.381-0.063-0.734-0.195-1.057-0.416-0.643-0.451-1.027-1.17-1.027-1.951 0-0.796 0.387-1.515 1.029-1.95 0.314-0.225 0.674-0.359 1.049-0.42s0.75-0.061 1.141-0.061h7.875c0.375 0 0.765-0.014 1.14 0.046s0.735 0.194 1.051 0.405c0.645 0.434 1.02 1.17 1.02 1.949 0 0.78-0.391 1.5-1.035 1.95l0.031 0.032z m3.174-7.555c-0.845-0.678-1.812-1.146-2.865-1.398-0.6-0.146-1.203-0.211-1.822-0.23-0.449-0.015-0.899-0.01-1.364-0.01H12.12c-0.457 0-0.915-0.005-1.372 0.01-0.618 0.021-1.222 0.083-1.825 0.23-1.051 0.254-2.025 0.723-2.865 1.4C4.35 11.120999999999999 3.3599999999999994 13.18 3.3599999999999994 15.36c0 2.182 0.99 4.241 2.689 5.606 0.846 0.678 1.815 1.146 2.865 1.4 0.603 0.146 1.206 0.211 1.823 0.229 0.45 0.016 0.9 0.012 1.365 0.012h6.496c0.449 0 0.914 0.004 1.364-0.012 0.615-0.018 1.215-0.082 1.814-0.229 1.05-0.256 2.011-0.723 2.866-1.402C26.37 19.599999999999998 27.36 17.54 27.36 15.36c0-2.181-0.99-4.241-2.691-5.606z" /></svg>