<svg xmlns="http://www.w3.org/2000/svg" width="100%" height="100%" viewBox="-3.36 -3.36 30.72 30.72"><path d="M18.575 9.29h5.418v5.42h-5.418zM0 9.29h5.419v5.42H0zm18.575 7.827a1.207 1.207 0 01-1.206 1.206H6.623a1.207 1.207 0 01-1.205-1.206v-.858H0v5.252a2.236 2.236 0 002.229 2.23h19.53A2.237 2.237 0 0024 21.512V16.26h-5.425zM21.763.258H2.233a2.236 2.236 0 00-2.23 2.23V7.74h5.419v-.858a1.206 1.206 0 011.205-1.206h10.746a1.206 1.206 0 011.205 1.206v.858H24V2.487A2.237 2.237 0 0021.763.258z"/></svg>