<svg xmlns="http://www.w3.org/2000/svg" width="100%" height="100%" viewBox="-3.36 -3.36 30.72 30.72"><path d="M23.82 12.921l-2.256-.143a9.6 9.6 0 00-9.569-10.377c-4.588 0-8.423 3.218-9.373 7.52H.851a.357.357 0 00-.285.141l-.527.728a.165.165 0 00-.039.109c0 .1.08.18.18.18l2.247.14A9.6 9.6 0 0011.995 21.6c4.588 0 8.423-3.218 9.374-7.52h1.78c.116 0 .22-.055.285-.141l.527-.728a.17.17 0 00.039-.11.18.18 0 00-.18-.18zm-11.825 7.324c-4.507 0-8.245-3.738-8.245-8.245 0-.234.011-.467.031-.696l6.899.43-2.984 2.061a.156.156 0 00.089.284h12.183c-.937 3.522-4.183 6.166-7.973 6.166zm8.215-7.553l-6.892-.438 2.991-2.049a.156.156 0 00-.089-.284H4.022c.937-3.521 4.183-6.165 7.973-6.165 4.507 0 8.245 3.738 8.245 8.245 0 .232-.01.462-.03.691z"/></svg>