<svg xmlns="http://www.w3.org/2000/svg" width="100%" height="100%" viewBox="0 0 30.72 30.72"><path d="M24.399 3.3599999999999994a2.959 2.959 0 0 0-2.65 4.274l-6.447 6.447a2.96 2.96 0 1 0 1.335 1.336l6.447-6.447A2.959 2.959 0 1 0 24.4 3.3599999999999994zM13.988 6.1049999999999995c-0.072 0-0.143 0.003-0.214 0.004-0.072 0.002-0.143 0.002-0.215 0.005-0.447 0.018-0.893 0.064-1.335 0.138l-0.03 0.005-0.185 0.033-0.105 0.02a7.718 7.718 0 0 0-0.289 0.062l-0.032 0.008a10.69 10.69 0 0 0-2.55 0.95l-0.155 0.089c-0.063 0.034-0.125 0.07-0.187 0.105-0.046 0.027-0.093 0.051-0.14 0.079H8.55l-0.01 0.005-0.036 0.02v0.002l0.111 0.184 3.15 5.23a4.168 4.168 0 0 1 0.38-0.202 4.294 4.294 0 0 1 1.628-0.413c0.071-0.004 0.143-0.008 0.214-0.008z m0.428 0.01v6.333c0.325 0.034 0.647 0.103 0.96 0.209l4.66-4.66c-0.173-0.12-0.348-0.237-0.528-0.347l-0.026-0.015c-0.056-0.035-0.112-0.067-0.168-0.1l-0.098-0.056-0.099-0.055a12.735 12.735 0 0 0-0.171-0.092l-0.027-0.014a10.628 10.628 0 0 0-1.425-0.617c-0.69-0.241-1.403-0.41-2.128-0.505l-0.089-0.012-0.09-0.01a6.56 6.56 0 0 0-0.17-0.019l-0.049-0.004-0.204-0.017a6.44 6.44 0 0 0-0.255-0.015c-0.031-0.003-0.062-0.003-0.093-0.004zM8.142 7.858a9.92 9.92 0 0 0-1.36 1.062l4.461 4.461 0.018 0.018c0.049-0.04 0.098-0.078 0.149-0.116l-0.011-0.018z m-1.67 1.36c-0.05 0.05-0.098 0.103-0.147 0.154l-0.149 0.155c-0.33 0.357-0.63 0.73-0.902 1.118l-0.039 0.056a10.588 10.588 0 0 0-0.216 0.326 10.6 10.6 0 0 0-1.65 5.276l-0.006 0.215-0.003 0.214h6.317c0-0.072 0.007-0.143 0.01-0.214 0.005-0.072 0.006-0.144 0.013-0.215 0.081-0.822 0.399-1.625 0.952-2.3 0.045-0.055 0.096-0.106 0.144-0.16 0.048-0.052 0.093-0.107 0.144-0.158z m16.255 1.464l-4.663 4.663c0.106 0.312 0.175 0.634 0.21 0.959h6.332l-0.004-0.094a11.579 11.579 0 0 0-0.032-0.456l-0.005-0.052a13.044 13.044 0 0 0-0.026-0.241v-0.009l-0.033-0.24v-0.009a10.618 10.618 0 0 0-0.327-1.493l-0.003-0.01a15.839 15.839 0 0 0-0.07-0.228l-0.01-0.03a14.111 14.111 0 0 0-0.069-0.204l-0.02-0.055a5.65 5.65 0 0 0-0.153-0.405 7.84 7.84 0 0 0-0.093-0.227 16.67 16.67 0 0 0-0.063-0.144l-0.037-0.081a13.776 13.776 0 0 0-0.08-0.171l-0.024-0.052-0.096-0.194-0.014-0.027a11.2 11.2 0 0 0-0.112-0.212l-0.004-0.008a10.615 10.615 0 0 0-0.604-0.98z m-4.43 6.05c0 0.071-0.006 0.142-0.01 0.214-0.003 0.072-0.005 0.143-0.012 0.214a4.29 4.29 0 0 1-0.952 2.301c-0.045 0.055-0.096 0.107-0.144 0.16-0.048 0.053-0.093 0.108-0.144 0.159l4.467 4.467c0.051-0.051 0.099-0.104 0.148-0.155 0.05-0.052 0.1-0.103 0.148-0.155 0.331-0.358 0.633-0.733 0.905-1.122l0.032-0.046 0.098-0.144 0.085-0.13 0.04-0.063a10.597 10.597 0 0 0 1.647-5.272c0.003-0.071 0.004-0.143 0.006-0.214 0.001-0.071 0.004-0.143 0.004-0.214zM3.369999999999999 17.16l0.004 0.093 0.01 0.179 0.005 0.076 0.017 0.206 0.005 0.046c0.007 0.076 0.015 0.153 0.024 0.228l0.003 0.022a9.605 9.605 0 0 0 0.033 0.248c0.072 0.505 0.182 1.005 0.327 1.497l0.002 0.006c0.022 0.077 0.047 0.154 0.071 0.23l0.004 0.014 0.005 0.014a15.737 15.737 0 0 0 0.153 0.439l0.03 0.08 0.059 0.148a7.702 7.702 0 0 0 0.093 0.228l0.062 0.14 0.038 0.084 0.078 0.169 0.027 0.054a10.677 10.677 0 0 0 0.225 0.441l0.025 0.043 5.408-3.258 0.02-0.012a4.314 4.314 0 0 1-0.395-1.414h-0.025z m0.505 2.846l-0.206 0.058 0.002 0.005z m6.425-1.052l-5.415 3.262c0.083 0.139 0.17 0.273 0.259 0.406l0.008 0.014 0.004 0.005 0.008 0.014h0.001c0.007 0.012 0.014 0.022 0.022 0.032l0.001 0.002v0.001a10.634 10.634 0 0 0 0.298 0.417l0.006 0.008a9.963 9.963 0 0 0 0.29 0.368l0.033 0.04c0.043 0.052 0.086 0.103 0.13 0.153l0.057 0.065 0.112 0.127 0.064 0.069 0.029 0.031 0.083 0.09 0.035 0.035c0.049 0.051 0.098 0.103 0.149 0.153L10.94 19.78a3.86 3.86 0 0 1-0.285-0.321 4.422 4.422 0 0 1-0.356-0.505z m6.416 1.111c-0.05 0.04-0.1 0.079-0.15 0.116l0.011 0.018 3.257 5.407c0.151-0.099 0.3-0.2 0.446-0.307 0.315-0.232 0.62-0.484 0.914-0.756l-4.46-4.46z m-5.457 0.003l-0.015 0.015-4.46 4.46a8.966 8.966 0 0 0 0.195 0.176c0.022 0.02 0.043 0.04 0.065 0.058l0.152 0.13a10.622 10.622 0 0 0 0.215 0.174l0.023 0.017 0.191 0.148 0.008 0.005c0.268 0.2 0.547 0.389 0.834 0.564l0.03 0.018 0.164 0.097 0.101 0.057a5.458 5.458 0 0 0 0.27 0.148c0.008 0.004 0.016 0.01 0.025 0.013 0.162 0.085 0.327 0.164 0.493 0.24l0.158-0.385 2.243-5.448 0.009-0.02a4.328 4.328 0 0 1-0.701-0.467z m4.951 0.353c-0.061 0.037-0.124 0.07-0.187 0.104a4.318 4.318 0 0 1-3.271 0.336c-0.069-0.02-0.135-0.047-0.203-0.071-0.067-0.024-0.136-0.044-0.202-0.072l-2.242 5.444-0.088 0.213-0.075 0.183v0.001l0.017 0.007a0.137 0.137 0 0 0 0.019 0.007l0.005 0.003c0.052 0.021 0.106 0.04 0.159 0.06 0.067 0.027 0.133 0.053 0.2 0.077l0.102 0.04c0.702 0.247 1.43 0.42 2.168 0.518l0.087 0.012 0.09 0.01 0.172 0.019a7.173 7.173 0 0 0 0.252 0.022c0.023 0.001 0.048 0.001 0.071 0.003l0.184 0.011 0.112 0.005a7.06 7.06 0 0 0 0.358 0.007h0.05a10.667 10.667 0 0 0 1.793-0.15l0.185-0.034 0.105-0.02 0.109-0.023 0.18-0.04 0.032-0.008a10.684 10.684 0 0 0 2.55-0.95c0.052-0.028 0.104-0.06 0.156-0.089 0.063-0.034 0.125-0.07 0.187-0.105 0.043-0.024 0.087-0.047 0.13-0.073h0.001l0.002-0.002 0.002-0.001 0.002-0.001 0.007-0.004 0.042-0.025-0.11-0.183-0.11-0.184z m3.262 5.414l-0.042 0.025 0.042-0.024z m-0.05 0.029h-0.001 0.002z m-0.005 0.004h-0.002z" /></svg>