<svg xmlns="http://www.w3.org/2000/svg" width="100%" height="100%" viewBox="0 0 30.72 30.72"><path d="M25.7115 4.1084C22.4709 2.8498999999999994 10.725 2.3779999999999992 10.7052 9.3866c-3.4272 2.194-5.6967 5.768-5.6967 9.598a8.373 8.373 0 0 0 13.1225 6.898 8.373 8.373 0 0 0-1.7668-14.7194c-0.6062-0.2339-1.9234-0.6481-2.9753-0.559-1.5007 0.9544-3.3308 2.9155-4.1949 4.8693 2.5894-3.082 7.5046-2.425 9.1937 1.2287 1.6892 3.6538-0.9944 7.8237-5.0198 7.7998a5.4995 5.4995 0 0 1-4.1949-1.9328c-1.485-1.7483-1.8678-3.6444-1.5615-5.4975 1.057-6.4947 8.759-10.1894 14.486-11.6094-1.8677 0.989-5.2373 2.6134-7.5948 4.3837C21.375 12.498199999999999 22.4908 6.705 25.7115 4.1084z" /></svg>