<svg xmlns="http://www.w3.org/2000/svg" width="100%" height="100%" viewBox="0 0 30.72 30.72"><path d="M15.36 3.3599999999999994C8.732 3.3599999999999994 3.3599999999999994 8.732 3.3599999999999994 15.36s5.372 12 12 12 12-5.372 12-12S21.988 3.3599999999999994 15.36 3.3599999999999994z m-0.049 0.763c6.233 0 11.304 5.066 11.304 11.294 0 6.229-5.07 11.295-11.304 11.295-6.233 0-11.304-5.066-11.304-11.295C4.007 9.19 9.078 4.122999999999999 15.311 4.122999999999999z m0 0.287C9.236999999999998 4.409999999999999 4.295999999999999 9.347999999999999 4.295999999999999 15.417c0 6.07 4.941 11.008 11.015 11.008 6.074 0 11.016-4.938 11.016-11.008 0-6.069-4.942-11.007-11.016-11.007z m4.73 3.25l0.582 1.7 1.8 0.064-1.44 1.078 0.495 1.729-1.472-1.034-1.494 1.004 0.53-1.717-1.418-1.108 1.8-0.028zM11.35 10.469999999999999c2.892 0 4.967 2.155 4.967 4.82v0.027c0 2.664-2.102 4.847-4.994 4.847s-4.967-2.156-4.967-4.82v-0.027c0-2.665 2.102-4.848 4.994-4.848z m-0.027 1.9c-1.66 0-2.812 1.313-2.812 2.92v0.027c0 1.606 1.179 2.945 2.839 2.945s2.812-1.312 2.812-2.918v-0.027c0-1.607-1.178-2.946-2.839-2.946z m9.976 0.322c1.54 0 2.437 1.018 2.437 2.665v4.646h-2.035V16c0-0.964-0.455-1.46-1.232-1.46-0.776 0-1.272 0.496-1.272 1.46v4.003h-2.035V12.825999999999999h2.035v1.018c0.469-0.603 1.071-1.152 2.102-1.152Z" /></svg>