<svg xmlns="http://www.w3.org/2000/svg" width="100%" height="100%" viewBox="0 0 30.72 30.72"><path d="M17.424 15.897c-0.725 0-1.313 0.545-1.313 1.217v5.353c0 0.672 0.589 1.217 1.314 1.217 0.726 0 1.314-0.545 1.314-1.218v-5.352c0-0.672-0.589-1.217-1.315-1.217z m4.132-4.888c-0.726 0-1.314 0.545-1.314 1.218V22.43c0 0.672 0.59 1.217 1.314 1.217 0.726 0 1.314-0.545 1.314-1.217V12.227c0-0.673-0.588-1.218-1.314-1.218z m-8.262 3.035c-0.725 0-1.313 0.545-1.313 1.218v7.205c0 0.672 0.589 1.217 1.315 1.217 0.725 0 1.313-0.545 1.313-1.218v-7.205c0-0.672-0.589-1.217-1.315-1.217z m-4.13 4.398h-0.001c-0.726 0-1.314 0.546-1.314 1.218l0.001 2.807c0 0.672 0.588 1.217 1.314 1.217 0.726 0 1.314-0.545 1.313-1.218V19.66c0-0.673-0.588-1.218-1.314-1.218zM27.36 9.66v9.163c0 1.447-1.27 2.624-2.831 2.624h-0.484v-0.897h0.484c1.027 0 1.863-0.775 1.863-1.727V9.66c0-0.952-0.836-1.726-1.863-1.726H6.190999999999999C5.164 7.933999999999999 4.327999999999999 8.707999999999998 4.327999999999999 9.66v9.163c0 0.952 0.836 1.727 1.863 1.727h0.484v0.897H6.1899999999999995C4.629999999999999 21.445999999999998 3.3599999999999994 20.269 3.3599999999999994 18.822V9.66c0-1.446 1.27-2.623 2.83-2.623h18.34C26.09 7.036 27.36 8.213 27.36 9.66Z" /></svg>