<svg xmlns="http://www.w3.org/2000/svg" width="100%" height="100%" viewBox="0 0 30.72 30.72"><path d="M20.38 3.3599999999999994a2.096 2.096 0 0 0-0.722 0.123L5.984 8.363A2.1 2.1 0 0 0 4.709999999999999 11.05l5.324 14.915a2.101 2.101 0 0 0 2.685 1.272l7.746-2.765c0.792-0.307 1.345-0.534 1.464-0.608 0.543-0.314 0.962-0.817 1.964-2.334 0.904-1.362 1.859-3.323 2.097-4.28 0.24-0.97 0.239-1.48-0.502-3.674l-3.146-8.82A2.102 2.102 0 0 0 20.38 3.3599999999999994z m-0.083 0.414c0.72-0.031 1.4 0.403 1.657 1.12l3.68 10.357c0.103 0.433-0.281 1.147-0.736 1.35-0.2 0.1-0.71 0.293-1.142 0.429-1.397 0.463-2.05 0.878-2.458 1.547-0.363 0.591-0.315 1.18 0.16 2.377 0.462 1.142 0.533 1.864 0.225 2.4-0.113 0.188-0.301 0.322-1.354 0.733l-0.002-0.005-7.746 2.765a1.68 1.68 0 0 1-2.157-1.022L5.1 10.91a1.68 1.68 0 0 1 1.022-2.157L19.797 3.8729999999999993c0.165-0.06 0.334-0.092 0.5-0.099zM19.259999999999998 5.609999999999999l-1.203 0.885 0.187 0.519 0.523-0.316 0.803 2.235-0.696 0.249c0.045 0.145 0.216 0.642 0.238 0.664l2.166-0.78-0.238-0.662-0.687 0.248z m-3.29 1.182l-1.203 0.885 0.186 0.519 0.524-0.316 0.803 2.235-0.697 0.25c0.046 0.144 0.216 0.64 0.238 0.663l2.167-0.778-0.238-0.663-0.687 0.247zM12.445 8.145999999999999c-0.283 0-0.56 0.076-0.8 0.223-0.732 0.448-0.85 1.383-0.332 2.558 0.337 0.776 0.873 1.218 1.462 1.215 1.345-0.007 1.86-1.4 1.085-2.95-0.307-0.66-0.837-1.036-1.415-1.046z m-0.191 0.672c0.168-0.01 0.357 0.085 0.539 0.279 0.145 0.155 0.347 0.51 0.437 0.787 0.35 0.998 0.164 1.688-0.414 1.546C12.215 11.29 11.57 9.36 11.979999999999999 8.945a0.407 0.407 0 0 1 0.273-0.127z m-3.765 0.75c-0.283 0-0.56 0.076-0.8 0.223-0.732 0.448-0.85 1.382-0.332 2.557 0.337 0.777 0.873 1.218 1.462 1.215 1.344-0.007 1.86-1.398 1.085-2.95-0.307-0.66-0.838-1.036-1.415-1.045z m-0.192 0.672c0.168-0.01 0.358 0.085 0.54 0.278 0.145 0.155 0.347 0.51 0.437 0.787 0.35 0.999 0.164 1.689-0.415 1.547-0.6-0.141-1.243-2.072-0.834-2.485a0.407 0.407 0 0 1 0.272-0.127z m13.362 0.655c-0.283 0-0.56 0.076-0.8 0.223-0.732 0.448-0.85 1.382-0.332 2.558 0.337 0.776 0.873 1.218 1.462 1.215 1.345-0.007 1.86-1.4 1.085-2.95-0.307-0.66-0.837-1.036-1.415-1.046z m-0.191 0.672c0.168-0.01 0.357 0.085 0.539 0.278 0.145 0.155 0.347 0.51 0.437 0.787 0.35 0.999 0.164 1.689-0.414 1.547-0.601-0.141-1.244-2.072-0.835-2.485a0.407 0.407 0 0 1 0.273-0.127z m-3.766 0.75a1.532 1.532 0 0 0-0.8 0.222c-0.73 0.448-0.848 1.383-0.331 2.558 0.337 0.776 0.873 1.218 1.462 1.215 1.344-0.007 1.86-1.398 1.085-2.95-0.307-0.66-0.838-1.036-1.416-1.045z m-0.19 0.67c0.167-0.008 0.357 0.086 0.539 0.28 0.145 0.155 0.347 0.51 0.437 0.787 0.35 0.998 0.164 1.688-0.415 1.547-0.6-0.142-1.244-2.072-0.835-2.485a0.408 0.408 0 0 1 0.273-0.128z m-3.746 0.744c-0.283-0.001-0.56 0.076-0.8 0.223-0.732 0.448-0.85 1.382-0.332 2.557 0.337 0.777 0.873 1.218 1.462 1.215 1.345-0.007 1.86-1.398 1.085-2.95-0.307-0.66-0.838-1.036-1.415-1.045z m-0.192 0.672c0.169-0.01 0.358 0.085 0.54 0.278 0.145 0.155 0.347 0.51 0.437 0.787 0.35 0.999 0.164 1.689-0.414 1.547-0.601-0.141-1.244-2.072-0.835-2.485a0.407 0.407 0 0 1 0.272-0.127z m-3.515 0.616l-1.203 0.884 0.187 0.52 0.524-0.316 0.802 2.233-0.696 0.25c0.045 0.145 0.216 0.641 0.238 0.663l2.166-0.778-0.238-0.663-0.687 0.247z m15.664 1.33c0.034 0 0.049 0.047 0.064 0.135 0.023 0.11-0.064 0.545-0.195 0.957-0.47 1.435-2.052 4.223-3.08 5.396l-0.407 0.47 0.05-0.667c0.03-0.567-0.015-0.812-0.376-1.71-0.496-1.263-0.533-1.73-0.158-2.31 0.34-0.514 1.028-0.907 2.448-1.37 0.72-0.238 1.175-0.463 1.385-0.664 0.132-0.145 0.207-0.22 0.253-0.235a0.048 0.048 0 0 1 0.015-0.003z m-6.43 1.476l-1.202 0.885 0.187 0.52 0.523-0.317 0.803 2.235-0.696 0.25c0.045 0.144 0.216 0.641 0.238 0.663l2.166-0.779-0.238-0.662-0.687 0.247-1.093-3.042z m-3.578 1.33c-0.283 0-0.56 0.077-0.8 0.223-0.731 0.448-0.85 1.382-0.332 2.558 0.337 0.776 0.873 1.218 1.462 1.215 1.345-0.007 1.86-1.399 1.086-2.95-0.307-0.66-0.838-1.036-1.416-1.046z m-0.191 0.672c0.168-0.009 0.358 0.085 0.54 0.28 0.144 0.153 0.346 0.51 0.437 0.786 0.35 0.998 0.164 1.688-0.415 1.546-0.6-0.14-1.244-2.072-0.835-2.485a0.407 0.407 0 0 1 0.273-0.127z m-3.515 0.616l-1.204 0.885 0.187 0.52 0.524-0.317 0.803 2.234-0.697 0.25c0.045 0.145 0.216 0.642 0.238 0.664l2.166-0.779-0.238-0.663-0.687 0.248-1.092-3.042z" /></svg>