<svg xmlns="http://www.w3.org/2000/svg" width="100%" height="100%" viewBox="0 0 30.72 30.72"><path d="M15.32 21.163999999999998l7.959-3.396-7.049 7.241c-0.124-1.315-0.432-2.61-0.91-3.844v-0.001zM27.36 14.478c-5.101-0.236-10.208 0.414-15.087 1.92 1.024 1.073 1.881 2.292 2.535 3.621 4.042-2.25 9.646-5.123 12.552-5.531v-0.015 0.005z m-12.574 0.275l0.207-0.06c1.538-0.459 3.049-1.015 4.523-1.656 1.492-0.585 2.896-1.38 4.159-2.367 1.345-1.069 2.355-2.499 2.915-4.122 0.12-0.267 0.211-0.549 0.267-0.837-2.024 2.76-10.041 3.048-10.041 3.048l1.89-1.734C13.2 7.044 7.829999999999999 8.783999999999999 3.3599999999999994 12.004999999999999c3.03 0.322 5.877 1.596 8.139 3.634 1.086-0.336 2.196-0.576 3.286-0.879v-0.006l0.001-0.001z" /></svg>