<svg xmlns="http://www.w3.org/2000/svg" width="100%" height="100%" viewBox="0 0 30.72 30.72"><path d="M15.661999999999999 16.54v-2.387c0-0.486 0.227-0.834 0.712-0.834h2.99c0.017 0 0.035-0.018 0.035-0.036v-0.475c0-0.004 0-0.008-0.003-0.012h-3.66c-0.792 0.1-1.18 0.653-1.18 1.357v2.386c0 0.482-0.233 0.831-0.71 0.831H10.692c-0.018 0-0.036 0.012-0.036 0.036v0.475c0 0.02 0.01 0.035 0.023 0.04h3.584c0.933-0.025 1.393-0.62 1.393-1.385zM3.3839999999999995 17.924h1.05a0.042 0.042 0 0 0 0.025-0.04v-1.52c0-0.487 0.275-0.823 0.676-0.823h4.323c0.974 0 1.445-0.6 1.445-1.384 0-0.705-0.386-1.257-1.18-1.357H3.365999999999999c0 0.003-0.006 0.005-0.006 0.01v0.475c0 0.024 0.013 0.036 0.037 0.036h5.697c0.484 0 0.712 0.35 0.712 0.833 0 0.484-0.227 0.836-0.712 0.836H4.585999999999999c-0.7 0-1.226 0.592-1.226 1.373v1.519c0 0.02 0.01 0.036 0.028 0.04z m15.998-0.55h5.738c0.017 0 0.03 0.012 0.03 0.024v0.483c0 0.024 0.017 0.036 0.035 0.036h1.035c0.018 0 0.036-0.01 0.036-0.036v-0.475c0-0.018 0.02-0.036 0.04-0.036h1.028c0.024 0 0.036-0.018 0.036-0.036v-0.484c0-0.018-0.01-0.036-0.035-0.036h-1.03c-0.02 0-0.037-0.017-0.037-0.035V13.32c0-0.283-0.104-0.463-0.28-0.523h-0.3a1.153 1.153 0 0 0-0.303 0.132l-6.18 3.815c-0.24 0.15-0.323 0.318-0.263 0.445 0.048 0.104 0.185 0.182 0.454 0.182z m0.895-0.637l4.79-2.961c0.03-0.024 0.09-0.018 0.09 0.048v2.961c0 0.018-0.016 0.036-0.034 0.036h-4.817c-0.04 0-0.06-0.012-0.065-0.024-0.006-0.024 0.005-0.042 0.036-0.06z" /></svg>