<svg xmlns="http://www.w3.org/2000/svg" width="100%" height="100%" viewBox="0 0 30.72 30.72"><path d="M11.929 19.462c-2.244 0-4.064-1.834-4.064-4.096s1.82-4.095 4.064-4.095c2.244 0 4.063 1.833 4.063 4.095 0 2.262-1.82 4.096-4.063 4.096z m11.019-5.671l-4.296 2.5 0.02-0.118 0.012-0.104 0.014-0.173v-0.013l0.001-0.012 0.009-0.211 0.001-0.232-0.003-0.168-0.01-0.24-0.016-0.22-0.024-0.239-0.016-0.13-0.034-0.233-0.04-0.228-0.047-0.223-0.052-0.219-0.037-0.135-0.062-0.211-0.07-0.207-0.061-0.168-0.08-0.2-0.087-0.195-0.092-0.19-0.099-0.189-0.105-0.185-0.01-0.015-0.113-0.183-0.12-0.18-0.127-0.176-0.135-0.175-0.143-0.172-0.016-0.02-0.152-0.17-0.16-0.168-0.168-0.167-0.179-0.166-0.014-0.013-0.189-0.165-0.201-0.166-0.202-0.158-0.226-0.167-0.245-0.172-0.183-0.124-0.28-0.181-0.316-0.197-0.105-0.063-0.388-0.23-0.096-0.057-0.244-0.142L5.0649999999999995 3.3599999999999994v3.175l4.296 2.5-0.11 0.041-0.096 0.042-0.156 0.074-0.012 0.006-0.01 0.006-0.186 0.098-0.2 0.114-0.142 0.087-0.202 0.13-0.181 0.124-0.193 0.14-0.106 0.08-0.182 0.145-0.175 0.149-0.168 0.152-0.162 0.155-0.098 0.1-0.15 0.16-0.143 0.163-0.114 0.14-0.131 0.169-0.125 0.172-0.117 0.176-0.112 0.18-0.107 0.185-0.01 0.017-0.099 0.19-0.094 0.194-0.088 0.199-0.082 0.204-0.077 0.211-0.009 0.025-0.07 0.217-0.065 0.223-0.06 0.23-0.053 0.24-0.004 0.02-0.047 0.246-0.042 0.258-0.034 0.256-0.031 0.281-0.026 0.299-0.014 0.223-0.016 0.334-0.01 0.374-0.003 0.125-0.004 0.452V27.36l2.727-1.588v-5l0.092 0.077 0.083 0.063 0.143 0.099 0.01 0.006 0.007 0.005 0.178 0.114 0.2 0.118 0.144 0.08 0.214 0.112 0.195 0.096 0.219 0.1 0.114 0.048 0.218 0.087 0.217 0.08 0.217 0.071 0.215 0.064 0.132 0.035 0.214 0.051 0.214 0.044 0.173 0.03 0.213 0.03 0.212 0.022 0.206 0.015 0.213 0.008h0.227l0.215-0.008 0.216-0.015 0.216-0.022 0.22-0.031 0.221-0.039 0.02-0.004 0.224-0.047 0.226-0.055 0.23-0.065 0.233-0.074 0.013-0.004 0.238-0.083 0.245-0.093 0.233-0.096 0.259-0.115 0.272-0.128 0.194-0.097 0.298-0.154 0.33-0.18 0.102-0.057 0.394-0.225 0.094-0.054 0.244-0.142 8.697-5.06-2.728-1.588Z" /></svg>