<svg xmlns="http://www.w3.org/2000/svg" width="100%" height="100%" viewBox="0 0 30.72 30.72"><path d="M15.495 27.36c1.875 0 9.314-8.439 9.314-14.096C24.809 7.85 20.58 3.3599999999999994 15.495 3.3599999999999994 10.14 3.3599999999999994 5.911 7.848 5.911 13.264 5.911 18.92 13.35 27.36 15.495 27.36zM13.998999999999999 7.2059999999999995c0.485-0.12 0.995-0.185 1.524-0.185 3 0 5.581 2.551 5.581 5.865 0 2.985-2.581 5.535-5.596 5.535-3.345 0-5.925-2.55-5.925-5.535 0-1.396 0.45-2.64 1.229-3.63v0.03c0 1.245 1.006 2.234 2.25 2.234C14.308 11.520999999999999 15.36 10.5 15.36 9.256c0-0.919-0.56-1.708-1.359-2.053l-0.002 0.003z" /></svg>