<svg xmlns="http://www.w3.org/2000/svg" width="100%" height="100%" viewBox="0 0 30.72 30.72"><path d="M11.193 9.971v-0.055c0-1-0.667-1.5-1.778-1.5H7.749v3.056h1.722c1.111-0.001 1.722-0.668 1.722-1.501zM3.3599999999999994 3.3599999999999994v24h24V3.3599999999999994H3.3599999999999994z m2.167 3.111h4.056c2.389 0 3.833 1.389 3.833 3.445v0.055c0 2.333-1.778 3.5-4.056 3.5H7.693v3H5.526999999999999v-10zM14.638 24.36h-9v-1.5h9V24.36zM21.86 13.581999999999999c0 2-1.5 3.111-3.667 3.111-1.5-0.056-3-0.611-4.222-1.667l1.278-1.556c0.89 0.722 1.833 1.222 3 1.222 0.889 0 1.444-0.333 1.444-0.944v-0.056c0-0.555-0.333-0.833-2-1.277C15.693 11.915 14.36 11.36 14.36 9.36v-0.056c0-1.833 1.444-3 3.5-3 1.444 0 2.723 0.444 3.723 1.278l-1.167 1.667c-0.889-0.611-1.777-1-2.611-1-0.833 0-1.278 0.389-1.278 0.889v0.056c0 0.667 0.445 0.889 2.167 1.333 2 0.556 3.167 1.278 3.167 3v0.055z" /></svg>