<svg xmlns="http://www.w3.org/2000/svg" width="100%" height="100%" viewBox="0 0 30.72 30.72"><path d="M27.36 13.939c0 0.262-0.212 0.474-0.474 0.474H25.55c-0.047 0-0.084 0.038-0.084 0.084v0.547H27.36v0.158c0 0.262-0.212 0.474-0.474 0.474h-1.421v0.547c0 0.046 0.038 0.084 0.084 0.084H27.36v0.158c0 0.261-0.212 0.474-0.474 0.474h-1.579a0.4737 0.4737 0 0 1-0.474-0.474v-2.211c0-0.261 0.212-0.474 0.474-0.474H27.36v0.159m-5.589 0.474a0.095 0.095 0 0 0-0.095 0.095V15.36h1.421c0.27 0 0.487-0.227 0.473-0.5-0.014-0.253-0.228-0.448-0.481-0.448h-1.318m2.431 0.46c0.005 0.44-0.246 0.821-0.614 1.004l0.614 1.063h-0.547c-0.113 0-0.217-0.06-0.273-0.158l-0.456-0.789h-1.25v0.474c0 0.262-0.212 0.474-0.474 0.474h-0.158v-2.684c0-0.262 0.212-0.474 0.474-0.474h1.549c0.61-0.001 1.128 0.48 1.135 1.09m-5.368 1.435c0.522 0 0.947-0.425 0.947-0.947s-0.425-0.947-0.947-0.947c-0.329 0-0.619 0.169-0.789 0.424l-0.348 0.523 0.345 0.52c0.17 0.257 0.461 0.427 0.792 0.427m0-2.526c0.872 0 1.579 0.707 1.579 1.579s-0.707 1.579-1.579 1.579c-0.55 0-1.034-0.281-1.316-0.707l-0.2-0.3-0.43 0.648c-0.396 0.597-1.074 0.991-1.844 0.991-1.221 0-2.211-0.99-2.211-2.211 0-1.221 0.99-2.211 2.211-2.211 0.767 0 1.442 0.39 1.839 0.983l0.056 0.084-0.379 0.573-0.207-0.313c-0.284-0.419-0.764-0.695-1.308-0.695-0.871 0-1.579 0.708-1.579 1.579s0.708 1.579 1.579 1.579c0.549 0 1.033-0.281 1.316-0.707l1.156-1.742c0.282-0.427 0.766-0.709 1.317-0.709m-7.393 0.13l-1.067 1.067a0.0948 0.0948 0 0 1-0.134 0l-1.065-1.065a0.4468 0.4468 0 0 0-0.763 0.316v2.711h0.158c0.261 0 0.474-0.212 0.474-0.474v-1.69c0-0.037 0.045-0.056 0.072-0.03l0.856 0.856c0.185 0.185 0.485 0.185 0.67 0l0.856-0.856a0.0422 0.0422 0 0 1 0.072 0.03v2.163h0.158c0.261 0 0.474-0.212 0.474-0.474v-2.242c0-0.244-0.198-0.442-0.442-0.442h-0.007c-0.117 0-0.229 0.047-0.312 0.13m-4.134 3.028c0.262 0 0.474-0.212 0.474-0.474v-2.684h-0.158c-0.262 0-0.474 0.212-0.474 0.474v2.684h0.158M5.398999999999999 15.36c0.255 0 0.475-0.195 0.487-0.45 0.013-0.272-0.204-0.498-0.473-0.498H4.085999999999999c-0.052 0-0.095 0.043-0.095 0.095V15.36h1.408m-0.015-1.579c0.619 0 1.146 0.507 1.134 1.126-0.011 0.601-0.502 1.084-1.105 1.084H3.9919999999999995v0.474c0 0.261-0.212 0.474-0.474 0.474H3.3599999999999994v-2.684c0-0.262 0.212-0.474 0.474-0.474h1.55" /></svg>