<svg xmlns="http://www.w3.org/2000/svg" width="100%" height="100%" viewBox="0 0 30.72 30.72"><path d="M10.37 13.567h-0.944l-0.515 2.648h0.838c0.556 0 0.97-0.105 1.242-0.314 0.272-0.21 0.455-0.559 0.55-1.049 0.092-0.47 0.05-0.802-0.124-0.995-0.175-0.193-0.523-0.29-1.047-0.29zM15.36 9.047999999999998C8.733 9.047999999999998 3.3599999999999994 11.873999999999999 3.3599999999999994 15.36s5.373 6.313 12 6.313S27.36 18.846 27.36 15.36c0-3.486-5.373-6.312-12-6.312z m-3.26 7.451c-0.261 0.25-0.575 0.438-0.917 0.551-0.336 0.108-0.765 0.164-1.285 0.164H8.716999999999999l-0.327 1.681H7.012l1.23-6.326h2.65c0.797 0 1.378 0.209 1.744 0.628 0.366 0.418 0.476 1.002 0.33 1.752a2.836 2.836 0 0 1-0.305 0.847c-0.143 0.255-0.33 0.49-0.561 0.703z m4.024 0.715l0.543-2.799c0.063-0.318 0.039-0.536-0.068-0.651-0.107-0.116-0.336-0.174-0.687-0.174H14.82l-0.704 3.625H12.748l1.23-6.327h1.367l-0.327 1.682h1.218c0.767 0 1.295 0.134 1.586 0.401s0.378 0.7 0.263 1.299l-0.572 2.944h-1.389z m7.597-2.265a2.782 2.782 0 0 1-0.305 0.847c-0.143 0.255-0.33 0.49-0.561 0.703a2.44 2.44 0 0 1-0.917 0.551c-0.336 0.108-0.765 0.164-1.286 0.164h-1.18l-0.327 1.682h-1.378l1.23-6.326h2.649c0.797 0 1.378 0.209 1.744 0.628 0.366 0.417 0.477 1.001 0.331 1.751zM21.125999999999998 13.567h-0.943l-0.516 2.648h0.838c0.557 0 0.971-0.105 1.242-0.314 0.272-0.21 0.455-0.559 0.551-1.049 0.092-0.47 0.049-0.802-0.125-0.995s-0.524-0.29-1.047-0.29z" /></svg>