<svg xmlns="http://www.w3.org/2000/svg" width="100%" height="100%" viewBox="0 0 30.72 30.72"><path d="M18.722 12.793h-3.148c-0.97 0-1.446 0.6-1.446 1.38v2.365c0 0.483-0.228 0.83-0.71 0.83H10.664a0.035 0.035 0 0 0-0.035 0.035v0.47c0 0.02 0.01 0.032 0.03 0.032h3.11c0.97 0 1.45-0.597 1.45-1.377v-2.363c0-0.484 0.224-0.832 0.71-0.832h2.781c0.02 0 0.04-0.014 0.04-0.033v-0.475c0-0.02-0.02-0.035-0.04-0.035z m-9.266 0H3.3979999999999992c-0.022 0-0.038 0.017-0.038 0.035v0.477c0 0.02 0.016 0.036 0.038 0.036h5.694c0.48 0 0.71 0.347 0.71 0.83s-0.228 0.83-0.71 0.83H4.587999999999999c-0.7 0-1.227 0.586-1.227 1.365v1.513c0 0.02 0.02 0.037 0.04 0.037h1.03c0.02 0 0.04-0.016 0.04-0.037v-1.513c0-0.48 0.28-0.82 0.68-0.82H9.459999999999999c0.97 0 1.444-0.594 1.444-1.374 0-0.778-0.473-1.38-1.442-1.38z m17.453 2.498a0.04 0.04 0 0 1 0-0.056c0.3-0.25 0.45-0.627 0.45-1.062 0-0.778-0.474-1.38-1.446-1.38h-6.057c-0.02 0-0.036 0.018-0.036 0.038v0.475c0 0.02 0.02 0.04 0.04 0.04h5.7c0.48 0 0.715 0.35 0.715 0.83s-0.23 0.83-0.712 0.83h-5.7c-0.02 0-0.036 0.02-0.036 0.04v0.48c0 0.02 0.016 0.033 0.037 0.033h5.7c0.63 0.007 0.71 0.62 0.71 0.93v0.06c0 0.485-0.23 0.833-0.71 0.833h-5.7c-0.02 0-0.036 0.015-0.036 0.034v0.477c0 0.02 0.015 0.037 0.036 0.037h6.05c0.973 0 1.446-0.645 1.446-1.38v-0.057c0-0.47-0.15-0.916-0.45-1.19z" /></svg>