<svg xmlns="http://www.w3.org/2000/svg" width="100%" height="100%" viewBox="0 0 30.72 30.72"><path d="M15.363 3.4239999999999995C8.736 3.4239999999999995 3.3599999999999994 8.767 3.3599999999999994 15.36s5.376 11.936 12.003 11.936c2.169 0 4.2-0.57 5.955-1.57l0.624 1.57h4.841l-1.893-4.679A11.845 11.845 0 0 0 27.36 15.36C27.36 8.767 21.99 3.4239999999999995 15.363 3.4239999999999995zM12.177999999999999 5.389999999999999c0.398 0.339 0.324 0.198 0.86 0.134 0.61-0.397 0.893 0.942 1.147 0.195 0.748 0.097 1.542 0.34 2.25 0.584a3.447 3.447 0 0 1 1.859 1.128l-0.014 0.007 0.35 0.463c0.045 0.08 0.082 0.164 0.12 0.248 0.142 1.205 1.48 1.19 2.377 1.625 0.767 0.272 1.69 0.686 1.785 1.611-0.193-0.042-0.941-0.921-1.53-1.007a3.919 3.919 0 0 1-1.094-0.255L18.22 9.739999999999998v-0.007a3.035 3.035 0 0 1-0.309-0.053v0.013l-2.927-0.362c0.048 0.033 0.1 0.077 0.148 0.12l3 0.585v-0.007l0.209 0.053 0.839 0.188c0.166 0.016 0.334 0.043 0.47 0.067 0.856 0.236 1.868 0.194 2.571 0.792-0.184 0.352-1.21 0.153-1.719 0.108-0.062-0.012-0.131-0.023-0.194-0.034l-0.034-0.007c-0.696-0.113-1.411-0.12-2.081 0.088h-0.007a3.193 3.193 0 0 0-0.671 0.302c-0.968 0.563-2.164 0.767-2.967 1.577-0.787 0.847-0.739 2.012-0.604 3.095h0.033v0.275c0.013 0.095 0.028 0.19 0.04 0.282 0.41 2.19 1.5 4.2 1.84 6.412 0.065 0.843 0.203 1.932 0.309 2.618-0.306-0.091-0.475-1.462-0.544-1.007a38.196 38.196 0 0 0-3.565-5.25c-0.853-1.004-1.697-2.06-2.712-2.894-0.685-0.528-0.468-1.55-0.537-2.302-0.23-0.926-0.094-1.848 0.06-2.773 0.313-0.963 0.418-1.968 0.846-2.893 0.653-0.581 0.669-1.63 1.303-2.135 0.094 0.058 0.157 0.085 0.2 0.1l0.068 0.008h0.007c0.09-0.095-0.888-1.116 0.02-0.712 0.035-0.537 0.854-0.128 0.866-0.597z m3.847 2.182c-0.323 0.009-0.574 0.13-0.645 0.335-0.114 0.33 0.273 0.755 0.866 0.96 0.594 0.205 1.168 0.109 1.282-0.221 0.114-0.33-0.272-0.762-0.866-0.967a1.842 1.842 0 0 0-0.637-0.107z" /></svg>