<svg xmlns="http://www.w3.org/2000/svg" width="100%" height="100%" viewBox="0 0 30.72 30.72"><path d="M19.9342 3.3599999999999994c-0.8422 0-1.525 0.6826-1.525 1.5247 0 0.8424 0.6828 1.525 1.525 1.525s1.5247-0.6826 1.5247-1.525C21.4589 4.042599999999999 20.7764 3.3599999999999994 19.9342 3.3599999999999994z m-4.6371 2.856c-1.7103 0.0124-3.4264 0.5973-4.8392 1.7828-3.2263 2.7071-3.6471 7.5175-0.94 10.7439 1.4616 1.7419 3.5365 2.6653 5.6439 2.7208 0.2966 0 0.2966 0.293 0.2966 0.293v2.65s0.0002 2.7624 2.6567 2.9532c0.2952 0.0103 0.2953-0.295 0.2953-0.295V7.1457s0-0.2943-0.295-0.415a7.665 7.665 0 0 0-2.8183-0.5147z m4.7479 1.662c-0.1097-0.0016-0.1097 0.1789-0.1097 0.3891v11.1466c0 0.2941 0 0.5266 0.2948 0.2954 0.0104-0.009 0.0211-0.0175 0.0318-0.0266 3.2265-2.707 3.6474-7.5175 0.94-10.7437a7.5925 7.5925 0 0 0-0.9713-0.9659c-0.083-0.0656-0.1427-0.0941-0.1856-0.0948z m-4.7515 1.3885c0.165 0 0.165 0.1642 0.165 0.1642v8.8198s0 0.1644-0.165 0.1644c-1.2823-0.0192-2.5496-0.5735-3.4386-1.633-1.6245-1.936-1.3719-4.8217 0.5639-6.4464 0.8395-0.7046 1.8582-1.0549 2.8747-1.069z" /></svg>