<svg xmlns="http://www.w3.org/2000/svg" width="100%" height="100%" viewBox="0 0 30.72 30.72"><path d="M25.053 6.521999999999999H6.6899999999999995L3.3599999999999994 9.85v14.348h20.671L27.36 20.87V6.521999999999999zM16.145 21.759999999999998l-1.562 0.728-1.35-2.217c-0.196 0.057-0.499 0.09-0.924 0.09-1.579 0-2.683-0.425-3.305-1.276-0.622-0.85-0.932-2.2-0.932-4.033 0-1.84 0.319-3.206 0.949-4.098 0.63-0.892 1.726-1.341 3.288-1.341 1.562 0 2.658 0.441 3.28 1.333 0.63 0.883 0.94 2.25 0.94 4.098 0 1.219-0.13 2.2-0.384 2.945-0.261 0.752-0.679 1.325-1.268 1.718z m4.736-1.587c-0.858 0-1.447-0.196-1.766-0.59-0.32-0.392-0.483-1.136-0.483-2.232v-3.534H17.47V12.411h1.162V10.203h1.644V12.41h2.094v1.415h-2.094v3.346c0 0.622 0.05 1.03 0.14 1.227 0.09 0.204 0.326 0.303 0.695 0.303l1.243-0.05 0.073 1.326c-0.67 0.13-1.186 0.196-1.546 0.196z m-8.58-9.08c-0.95 0-1.604 0.311-1.963 0.94-0.352 0.63-0.532 1.629-0.532 3.011 0 1.374 0.172 2.364 0.515 2.953 0.344 0.589 1.006 0.892 1.98 0.892 0.973 0 1.628-0.295 1.971-0.876 0.335-0.58 0.507-1.57 0.507-2.953 0-1.39-0.172-2.396-0.523-3.026-0.352-0.63-1.006-0.94-1.955-0.94Z" /></svg>