<svg xmlns="http://www.w3.org/2000/svg" width="100%" height="100%" viewBox="0 0 30.72 30.72"><path d="M6.4799999999999995 12.12a3.241 3.241 0 0 0-3.117 3.355 3.241 3.241 0 0 0 3.354 3.115 3.201 3.201 0 0 0 1.791-0.628l-0.496-0.362a0.174 0.174 0 0 0-0.187-0.011c-0.381 0.215-0.821 0.335-1.293 0.324A2.522 2.522 0 0 1 4.087 15.52a2.51 2.51 0 0 1 5.011-0.297 2.5 2.5 0 0 1-0.43 1.59 0.179 0.179 0 0 0 0.042 0.246l0.418 0.307c-0.003 0.003-0.09 0.123-0.28 0.299-0.192 0.178-0.34 0.295-0.34 0.295l0.541 0.416c0.068 0.052 0.161 0.052 0.227-0.002a4.498 4.498 0 0 0 0.389-0.371 0.183 0.183 0 0 0-0.028-0.272l-0.506-0.369c0.48-0.604 0.73-1.348 0.702-2.125A3.241 3.241 0 0 0 6.478999999999999 12.12z m18.112 0.687v1.293h-0.271a0.202 0.202 0 0 0-0.203 0.201v0.414h0.474v2.28c0 1.087 0.553 1.6 1.485 1.6 0.53 0 0.959-0.184 1.283-0.43l-0.22-0.358a0.186 0.186 0 0 0-0.25-0.062 1.544 1.544 0 0 1-0.759 0.209c-0.502 0-0.859-0.297-0.859-0.973v-2.266h1.156a0.173 0.173 0 0 0 0.174-0.173v-0.442h-1.33V12.99a0.18 0.18 0 0 0-0.182-0.182h-0.498zM10.797999999999998 14.1c-0.1 0-0.18 0.08-0.18 0.18v2.432c0 1.283 0.917 1.89 1.963 1.89 1.04 0 1.965-0.607 1.965-1.89v-2.436a0.175 0.175 0 0 0-0.176-0.176h-0.51v2.547c0 0.895-0.54 1.315-1.28 1.315s-1.283-0.42-1.283-1.315V14.1h-0.5z m6.605 0c-1.233 0-2.147 0.922-2.147 2.246 0 1.338 0.91 2.248 2.188 2.248 0.635 0 1.238-0.16 1.777-0.675l-0.257-0.329a0.167 0.167 0 0 0-0.235-0.03c-0.347 0.273-0.769 0.435-1.244 0.435-0.781 0-1.433-0.479-1.53-1.41h3.288a0.192 0.192 0 0 0 0.191-0.188l0.002-0.068c-0.01-1.316-0.86-2.229-2.033-2.229z m4.414 0c-1.037 0-1.727 0.493-1.727 1.31 0 0.645 0.457 1.077 1.43 1.196l0.516 0.06c0.612 0.074 0.904 0.283 0.904 0.63 0 0.456-0.462 0.699-1.193 0.699-0.617 0-1.024-0.152-1.334-0.354a0.196 0.196 0 0 0-0.274 0.063l-0.205 0.332c0.548 0.415 1.248 0.553 1.805 0.553 1.165 0 1.904-0.516 1.904-1.338 0-0.708-0.535-1.087-1.453-1.205l-0.512-0.065c-0.566-0.068-0.88-0.247-0.88-0.607 0-0.42 0.406-0.68 1.023-0.68 0.492 0 0.961 0.152 1.264 0.314a0.18 0.18 0 0 0 0.242-0.07l0.123-0.219a0.18 0.18 0 0 0-0.07-0.244c-0.408-0.227-0.962-0.375-1.563-0.375z m-4.428 0.602c0.736 0 1.265 0.521 1.352 1.33h-2.776c0.11-0.781 0.625-1.33 1.424-1.33Z" /></svg>