<svg xmlns="http://www.w3.org/2000/svg" width="100%" height="100%" viewBox="0 0 30.72 30.72"><path d="M6.779999999999999 3.3601999999999994a0.37 0.37 0 0 0-0.369 0.37V23.245c0.577-1.488 1.557-3.6168 3.1378-6.5297C15.2485 6.235999999999999 15.9955 5.179099999999999 18.9643 5.179099999999999c1.56 0 3.1338 0.704 4.1518 1.9549A7.9616 7.9616 0 0 0 16.461399999999998 3.3601999999999994zM19.499299999999998 5.904c-1.19 0.01-2.257 0.466-2.6979 1.498-0.967 2.2558 1.624 4.7667 2.7569 4.5677 1.4419-0.255-0.255-3.5628-0.255-3.5628 2.2049 4.1558 1.6969 2.8838-2.2899 6.6996C13.0266 18.9223 8.956 26.9788 8.361999999999998 27.3168a0.477 0.477 0 0 1-0.08 0.043H23.918a0.373 0.373 0 0 0 0.33-0.538l-4.0878-8.0915a0.37 0.37 0 0 1 0.144-0.488 7.9596 7.9596 0 0 0 4.0048-6.9126c0-1.4249-0.373-2.7608-1.03-3.9198-0.9269-0.9519-2.4298-1.5159-3.7787-1.5059z" /></svg>