<svg xmlns="http://www.w3.org/2000/svg" width="100%" height="100%" viewBox="0 0 30.72 30.72"><path d="M11.091999999999999 3.3599999999999994a59.316 59.316 0 0 0-4.977 0.218V27.36a62.933 62.933 0 0 1 3.619-0.687c0.17-0.028 0.34-0.053 0.509-0.078 0.215-0.033 0.43-0.066 0.644-0.096l0.205-0.03z m1.18 0.003V26.32a61.042 61.042 0 0 1 12.333-0.213V4.845A60.859 60.859 0 0 0 12.272 3.3629999999999995z m1.707 1.81a0.59 0.59 0 0 1 0.015 0c3.06 0.088 6.125 0.404 9.167 0.95a0.59 0.59 0 0 1 0.476 0.686 0.59 0.59 0 0 1-0.569 0.484 0.59 0.59 0 0 1-0.116-0.009 60.622 60.622 0 0 0-8.992-0.931 0.59 0.59 0 0 1-0.573-0.607 0.59 0.59 0 0 1 0.592-0.572z m-4.212 0.028a0.59 0.59 0 0 1 0.578 0.565 0.59 0.59 0 0 1-0.564 0.614 59.74 59.74 0 0 0-2.355 0.144 0.59 0.59 0 0 1-0.04 0.002 0.59 0.59 0 0 1-0.595-0.542 0.59 0.59 0 0 1 0.54-0.635c0.8-0.065 1.6-0.114 2.401-0.148a0.59 0.59 0 0 1 0.035 0z m4.202 2.834a0.59 0.59 0 0 1 0.015 0 61.6 61.6 0 0 1 9.167 0.8 0.59 0.59 0 0 1 0.488 0.677 0.59 0.59 0 0 1-0.602 0.494 0.59 0.59 0 0 1-0.076-0.006 60.376 60.376 0 0 0-8.99-0.786 0.59 0.59 0 0 1-0.584-0.596 0.59 0.59 0 0 1 0.582-0.583z m-4.211 0.097a0.59 0.59 0 0 1 0.587 0.555 0.59 0.59 0 0 1-0.554 0.622c-0.786 0.046-1.572 0.107-2.356 0.184a0.59 0.59 0 0 1-0.04 0.003 0.59 0.59 0 0 1-0.603-0.533 0.59 0.59 0 0 1 0.53-0.644c0.8-0.078 1.599-0.14 2.4-0.187a0.59 0.59 0 0 1 0.036 0zM13.959999999999999 10.895a0.59 0.59 0 0 1 0.015 0c3.06-0.013 6.125 0.204 9.167 0.65a0.59 0.59 0 0 1 0.498 0.67 0.59 0.59 0 0 1-0.593 0.504 0.59 0.59 0 0 1-0.076-0.006 60.142 60.142 0 0 0-8.992-0.638 0.59 0.59 0 0 1-0.592-0.588 0.59 0.59 0 0 1 0.573-0.592z m1.153 2.846a61.093 61.093 0 0 1 8.02 0.515 0.59 0.59 0 0 1 0.509 0.66 0.59 0.59 0 0 1-0.586 0.514 0.59 0.59 0 0 1-0.076-0.005 59.982 59.982 0 0 0-8.99-0.492 0.59 0.59 0 0 1-0.603-0.577 0.59 0.59 0 0 1 0.578-0.603c0.382-0.008 0.765-0.012 1.148-0.012z m1.139 2.832a60.92 60.92 0 0 1 6.871 0.394 0.59 0.59 0 0 1 0.52 0.652 0.59 0.59 0 0 1-0.577 0.523 0.59 0.59 0 0 1-0.076-0.004 59.936 59.936 0 0 0-8.991-0.344 0.59 0.59 0 0 1-0.61-0.568 0.59 0.59 0 0 1 0.567-0.611c0.765-0.028 1.53-0.042 2.296-0.042z" /></svg>