<svg xmlns="http://www.w3.org/2000/svg" width="100%" height="100%" viewBox="-3 -3 30 30"><path d="M7.732 0a59.316 59.316 0 00-4.977.218V24a62.933 62.933 0 013.619-.687c.17-.028.34-.053.509-.078.215-.033.43-.066.644-.096l.205-.03zm1.18.003V22.96a61.042 61.042 0 0112.333-.213V1.485A60.859 60.859 0 008.912.003zm1.707 1.81a.59.59 0 01.015 0c3.06.088 6.125.404 9.167.95a.59.59 0 01.476.686.59.59 0 01-.569.484.59.59 0 01-.116-.009 60.622 60.622 0 00-8.992-.931.59.59 0 01-.573-.607.59.59 0 01.592-.572zm-4.212.028a.59.59 0 01.578.565.59.59 0 01-.564.614 59.74 59.74 0 00-2.355.144.59.59 0 01-.04.002.59.59 0 01-.595-.542.59.59 0 01.54-.635c.8-.065 1.6-.114 2.401-.148a.59.59 0 01.035 0zm4.202 2.834a.59.59 0 01.015 0 61.6 61.6 0 019.167.8.59.59 0 01.488.677.59.59 0 01-.602.494.59.59 0 01-.076-.006 60.376 60.376 0 00-8.99-.786.59.59 0 01-.584-.596.59.59 0 01.582-.583zm-4.211.097a.59.59 0 01.587.555.59.59 0 01-.554.622c-.786.046-1.572.107-2.356.184a.59.59 0 01-.04.003.59.59 0 01-.603-.533.59.59 0 01.53-.644c.8-.078 1.599-.14 2.4-.187a.59.59 0 01.036 0zM10.6 7.535a.59.59 0 01.015 0c3.06-.013 6.125.204 9.167.65a.59.59 0 01.498.67.59.59 0 01-.593.504.59.59 0 01-.076-.006 60.142 60.142 0 00-8.992-.638.59.59 0 01-.592-.588.59.59 0 01.573-.592zm1.153 2.846a61.093 61.093 0 018.02.515.59.59 0 01.509.66.59.59 0 01-.586.514.59.59 0 01-.076-.005 59.982 59.982 0 00-8.99-.492.59.59 0 01-.603-.577.59.59 0 01.578-.603c.382-.008.765-.012 1.148-.012zm1.139 2.832a60.92 60.92 0 016.871.394.59.59 0 01.52.652.59.59 0 01-.577.523.59.59 0 01-.076-.004 59.936 59.936 0 00-8.991-.344.59.59 0 01-.61-.568.59.59 0 01.567-.611c.765-.028 1.53-.042 2.296-.042z"/></svg>