<svg xmlns="http://www.w3.org/2000/svg" width="100%" height="100%" viewBox="0 0 30.72 30.72"><path d="M17.59 15.363999999999999a2.236 2.236 0 0 1-2.235 2.236 2.236 2.236 0 0 1-2.236-2.236 2.236 2.236 0 0 1 2.235-2.236 2.236 2.236 0 0 1 2.236 2.236z m2.648-10.69c-1.346 0-3.107 0.96-4.888 2.622-1.78-1.653-3.542-2.602-4.887-2.602-0.41 0-0.783 0.093-1.106 0.278-1.375 0.793-1.683 3.264-0.973 6.365C5.34 12.277 3.3599999999999994 13.78 3.3599999999999994 15.363999999999999c0 1.59 1.99 3.097 5.043 4.03-0.704 3.113-0.39 5.588 0.988 6.38 0.32 0.187 0.69 0.275 1.102 0.275 1.345 0 3.107-0.96 4.888-2.624 1.78 1.654 3.542 2.603 4.887 2.603 0.41 0 0.783-0.09 1.106-0.275 1.374-0.792 1.683-3.263 0.973-6.365C25.38 18.456 27.36 16.95 27.36 15.363999999999999c0-1.59-1.99-3.097-5.043-4.032 0.704-3.11 0.39-5.587-0.988-6.38-0.318-0.184-0.688-0.277-1.092-0.278z m-0.005 1.09v0.006c0.225 0 0.406 0.044 0.558 0.127 0.666 0.382 0.955 1.835 0.73 3.704-0.054 0.46-0.142 0.945-0.25 1.44-0.96-0.236-2.006-0.417-3.107-0.534-0.66-0.905-1.345-1.727-2.035-2.447 1.592-1.48 3.087-2.292 4.105-2.295z m-9.77 0.02c1.012 0 2.514 0.808 4.11 2.28-0.686 0.72-1.37 1.537-2.02 2.442-1.107 0.117-2.154 0.298-3.113 0.538-0.112-0.49-0.195-0.964-0.254-1.42-0.23-1.868 0.054-3.32 0.714-3.707 0.19-0.09 0.4-0.127 0.563-0.132z m4.882 3.05c0.455 0.468 0.91 0.992 1.36 1.564-0.44-0.02-0.89-0.034-1.345-0.034-0.46 0-0.915 0.01-1.36 0.034 0.44-0.572 0.895-1.096 1.345-1.565zM15.36 11.459999999999999c0.74 0 1.477 0.034 2.202 0.093 0.406 0.582 0.802 1.203 1.183 1.86 0.372 0.64 0.71 1.29 1.018 1.946-0.308 0.655-0.646 1.31-1.013 1.95-0.38 0.66-0.773 1.288-1.18 1.87-0.728 0.063-1.466 0.098-2.21 0.098-0.74 0-1.477-0.035-2.202-0.093-0.406-0.582-0.802-1.204-1.183-1.86-0.372-0.64-0.71-1.29-1.018-1.946 0.303-0.657 0.646-1.313 1.013-1.954 0.38-0.66 0.773-1.286 1.18-1.868 0.728-0.064 1.466-0.098 2.21-0.098z m-3.635 0.254c-0.24 0.377-0.48 0.763-0.704 1.16-0.225 0.39-0.435 0.782-0.635 1.174-0.265-0.656-0.49-1.31-0.676-1.947 0.64-0.15 1.315-0.283 2.015-0.386z m7.26 0c0.695 0.103 1.365 0.23 2.006 0.387-0.18 0.632-0.405 1.282-0.66 1.933-0.2-0.39-0.41-0.783-0.64-1.174-0.225-0.392-0.465-0.774-0.705-1.146z m3.063 0.675c0.484 0.15 0.944 0.317 1.375 0.498 1.732 0.74 2.852 1.708 2.852 2.476-0.005 0.768-1.125 1.74-2.857 2.475-0.42 0.18-0.88 0.342-1.355 0.493-0.28-0.958-0.646-1.956-1.1-2.98 0.45-1.017 0.81-2.01 1.085-2.964z m-13.395 0.004c0.278 0.96 0.645 1.957 1.1 2.98-0.45 1.017-0.812 2.01-1.086 2.964-0.484-0.15-0.944-0.318-1.37-0.5-1.732-0.737-2.852-1.706-2.852-2.474 0-0.768 1.12-1.742 2.852-2.476 0.42-0.18 0.88-0.342 1.356-0.494z m11.678 4.28c0.265 0.657 0.49 1.312 0.676 1.948-0.64 0.157-1.316 0.29-2.016 0.39 0.24-0.375 0.48-0.762 0.705-1.158 0.225-0.39 0.435-0.788 0.636-1.18z m-9.945 0.02c0.2 0.392 0.41 0.783 0.64 1.175 0.23 0.39 0.465 0.772 0.705 1.143-0.695-0.102-1.365-0.23-2.006-0.386 0.18-0.63 0.406-1.282 0.66-1.933zM21.28 19.68c0.112 0.493 0.2 0.968 0.254 1.423 0.23 1.868-0.054 3.32-0.714 3.708-0.147 0.09-0.338 0.128-0.563 0.128-1.012 0-2.514-0.807-4.11-2.28 0.686-0.72 1.37-1.536 2.02-2.44 1.107-0.118 2.154-0.3 3.113-0.54z m-11.83 0.01c0.96 0.234 2.006 0.415 3.107 0.532 0.66 0.905 1.345 1.727 2.035 2.446-1.595 1.483-3.092 2.295-4.11 2.295-0.22-0.005-0.406-0.05-0.553-0.132-0.666-0.38-0.955-1.834-0.73-3.703 0.054-0.46 0.142-0.944 0.25-1.438z m4.56 0.64c0.44 0.02 0.89 0.034 1.345 0.034 0.46 0 0.915-0.01 1.36-0.034-0.44 0.572-0.895 1.095-1.345 1.565-0.455-0.47-0.91-0.993-1.36-1.565z" /></svg>