<svg xmlns="http://www.w3.org/2000/svg" width="100%" height="100%" viewBox="0 0 30.72 30.72"><path d="M19.957 15.809999999999999h0.025l0.579-3.166c0.066-0.36 0.214-0.488 0.63-0.488h0.58c0.307 0 0.481 0.118 0.481 0.395 0 0.064-0.009 0.135-0.026 0.216l-1.278 5.285c-0.078 0.357-0.195 0.512-0.635 0.512h-0.696c-0.396 0-0.51-0.138-0.598-0.495l-0.799-3.449h-0.015l-0.807 3.455c-0.081 0.363-0.195 0.49-0.588 0.49h-0.697c-0.449 0-0.56-0.145-0.642-0.497l-1.269-5.3c-0.016-0.082-0.036-0.153-0.036-0.216 0-0.278 0.18-0.396 0.49-0.396h0.69c0.417 0 0.57 0.126 0.635 0.488l0.575 3.167h0.015l0.738-3.167c0.085-0.362 0.233-0.488 0.63-0.488h0.653c0.391 0 0.543 0.126 0.63 0.488l0.735 3.167zM3.8579999999999997 18.564999999999998c-0.349 0-0.498-0.144-0.498-0.496V12.66c0-0.355 0.15-0.503 0.498-0.503h1.835c1.984 0 2.736 0.747 2.736 2.02 0 0.776-0.42 1.425-1.35 1.75l1.467 2.025c0.089 0.124 0.125 0.22 0.125 0.306 0 0.205-0.24 0.307-0.508 0.307H7.08c-0.32 0-0.444-0.126-0.669-0.49l-1.206-1.931h-0.019v1.926c0 0.353-0.15 0.495-0.51 0.495H3.8579999999999997z m19.479 0c-0.35 0-0.485-0.127-0.485-0.478V12.645c0-0.362 0.136-0.49 0.485-0.49h3.251c0.356 0 0.486 0.127 0.486 0.489v0.462c0 0.347-0.13 0.478-0.486 0.478h-1.867v1.061h1.583c0.358 0 0.484 0.13 0.484 0.49v0.426c0 0.348-0.126 0.477-0.485 0.477H24.72v1.095h2.143c0.363 0 0.497 0.133 0.497 0.49v0.463c0 0.351-0.134 0.478-0.497 0.478h-3.526z m-13.411 0c-0.351 0-0.498-0.144-0.498-0.496V12.66c0-0.355 0.147-0.503 0.498-0.503h3.211c0.354 0 0.504 0.149 0.504 0.503v0.429c0 0.347-0.15 0.496-0.504 0.496H11.288v1.06H12.85c0.36 0 0.511 0.146 0.511 0.507v0.388c0 0.35-0.15 0.499-0.51 0.499H11.286999999999999v1.094h2.131c0.356 0 0.51 0.146 0.51 0.512v0.423c0 0.352-0.154 0.495-0.51 0.495H9.925999999999998zM5.710999999999999 15.04c0.557 0 0.793-0.234 0.793-0.743s-0.236-0.745-0.793-0.745h-0.526v1.488h0.526Z" /></svg>