<svg xmlns="http://www.w3.org/2000/svg" width="100%" height="100%" viewBox="0 0 30.72 30.72"><path d="M15.524999999999999 8.786999999999999s-0.353-0.685-0.377-0.78a82.888 82.888 0 0 1-0.212-1.061l0.236-0.425 0.518-0.779 0.753-0.59 0.189-0.07 1.813-0.685 0.165-0.165-0.188-0.284-0.26-0.141-0.475-0.122-1.19-0.122-0.925 0.01-0.636 0.141-0.565-0.212-0.707-0.094L12.628 3.3839999999999995 12.11 3.3599999999999994l-0.872 0.33L9.919999999999998 5.223999999999999l-0.165 0.59-0.094 0.52-0.448 0.967-0.283 0.92-0.14 0.992v0.212l-0.684 1.038-0.377 0.78V12.35l0.118 2.29 0.212 0.826 0.424 0.755 0.542 0.495 0.235 0.968 0.895 1.982 1.06 1.275 0.07 0.07 0.377 1.912-1.295 2.36-0.353 0.543-0.33 0.213-0.518-0.071-0.306 0.118-0.353-0.023-0.236 0.188-0.447-0.118-0.448-0.07-0.377 0.235-0.094 0.401 0.26-0.236 0.4-0.07v0.377l0.635-0.142 0.354 0.023 0.612 0.142s0.542 0.023 0.636 0.023c0.094 0 0.66 0.118 0.66 0.118h0.423l0.212 0.118 0.306-0.047 0.307 0.189h0.47l0.095-0.307v-0.165l0.306 0.141 0.235 0.236 0.142 0.26 0.023-0.307-0.165-0.377s-0.117-0.213-0.212-0.213c-0.094 0-0.447-0.118-0.447-0.118l-0.26 0.071-0.258-0.142-0.283 0.119-0.235-0.119-0.094-0.235-0.165-0.071 0.141-0.425 0.424-0.968 0.565-0.944 0.495-0.59 0.188-0.236s0.236-0.354 0.236-0.448c0-0.095 0.047-1.086 0.047-1.086l-0.306-0.637-0.142-0.52 2.732 0.662h0.165l2.332 1.675 0.33 0.425 0.117 1.628-0.047 0.378-0.165 0.307-0.188 0.188-0.07 0.331-0.095 0.165-0.448 0.071-0.423-0.141-0.26-0.071h-0.494l-0.236 0.188-0.117 0.26 0.023 0.283 0.141-0.26 0.165-0.165 0.142-0.023-0.024 0.236 0.165 0.142 0.4-0.118h0.189l0.023 0.26 0.566 0.07 0.4-0.07 0.306 0.094 0.448 0.118 0.164-0.023 0.142-0.094 0.141 0.448 0.07-0.472-0.117-0.566-0.26-0.213 0.095-0.354-0.212-0.401 0.024-1.487 1.177 1.393 1.555 1.227s1.06 0.377 1.154 0.377c0.094 0 0.824-0.094 0.824-0.094l0.471-0.778-0.353-1.062 0.141-0.355-0.754-0.99-1.596-1.626-0.382-1.277 0.024-0.874-0.354-0.92-0.4-0.732 0.235-0.731-0.188-1.062-0.803-1.808 0.297-0.05-0.498-0.862 0.323-0.103-0.569-0.927 0.24-0.128-0.427-0.7 0.14-0.078-0.516-0.418 0.188-0.098-1.342-0.94z" /></svg>