<svg xmlns="http://www.w3.org/2000/svg" width="100%" height="100%" viewBox="0 0 30.72 30.72"><path d="M13.526 3.3599999999999994S10.268 4.395 9.61 8.104C8.245 9.007 7.553999999999999 9.728 7.55 10.02c0 0.023 0.02 0.042 0.031 0.063 0.115-0.054 5.565-2.614 9.422-2.967a8.31 8.31 0 0 1 0.707-0.03c1.8-0.007 4.532 0.365 4.569 0.37-0.063-0.269-1.722-1.02-2.817-1.217C16.863999999999997 3.3689999999999993 13.526 3.3599999999999994 13.526 3.3599999999999994z m8.754 4.096c-0.039-0.003-3.665-0.261-5.342-0.096-3.94 0.388-9.242 2.675-9.356 2.725 0.16 0.27 1.288 0.38 1.848 0.384-0.085 1.63-0.804 4.532-0.674 4.553 0.09 0.014 0.295-0.547 0.295-0.547s-0.105 0.322-0.201 0.692c0.404-0.02 0.597-0.04 0.851-0.018 0.057 0.005 0.143 0.01 0.184 0.078 0.134-0.26 0.137-0.494 0.137-0.494s0.056 0.211 0.043 0.494c0.096-0.082 0.209-0.316 0.209-0.316s-0.009 0.201-0.018 0.324c0.08 0.048 0.213 0.033 0.213 0.033a6.8 6.8 0 0 1-0.092 0.592c-0.062 0.312-0.16 0.488-0.4 0.803-0.297 0.002-0.617 0.244-0.748 0.57-0.02 0.17 0.246 0.37 0.246 0.37l-0.39 1.896a1.743 1.743 0 0 0-0.583 0.937s-0.078 0.912-0.013 1.23c0.04 0.202 1 0.846 1.671 0.89 0.397 0.025 1.19-0.618 1.19-0.618l0.506-0.049c0.276 0.346 0.528 0.441 0.931 0.553l0.11 0.34s-0.182 0.149-0.182 0.26c0 0.11 0.197 0.214 0.197 0.214s-1.108 0.156-1.074 1.53c0.018 0.728 1.01 1.074 1.824 1.105 0.855 0.033 2.012-0.513 2.012-0.513s0.184 0.066 0.412 0.048c0.262-0.02 0.549-0.205 0.549-0.205s-0.426 0.331-0.436 1.268c-0.002 0.25 0.172 0.537 0.364 0.7 0.114 0.095 0.3 0.17 0.412 0.171 0.173 0.001-0.359-0.495-0.375-0.813-0.028-0.541 0.69-0.626 1.135-0.626 0.471-0.001 1.812 0.614 2.82 0.626 1.57 0.02 2.583-1.212 2.613-2.16 0.037-1.14-0.951-1.834-1.304-2.21-0.052-0.233-0.324-0.722-0.604-0.782-0.487-0.104-0.963 0.09-0.963 0.09s-0.112-0.03-0.223-0.088c0.794-1.087 0.876-1.977 0.887-2.728 0.032-2.214-1.539-3.268-1.762-3.39 0.371-0.38 0.53-0.64 0.622-0.847a27.5 27.5 0 0 0-0.18 1.051l0.369-0.326v0.379s0.44-0.45 0.504-0.914c0.039 0.377 0.021 0.914 0.021 0.914s0.552-0.561 0.737-1.92c0.035 0.862 0.066 1.508 0.066 1.508s0.29-1.837 0.192-3.75c-0.048-0.928-0.144-2.02-0.47-2.746 0.825-0.647 1.245-0.959 1.227-1.16 0-0.004-0.007-0.009-0.007-0.012zM13.863999999999999 3.6099999999999994s0.961 0.233 1.406 0.578c0.737 0.573 1.562 1.75 1.562 1.75s-0.98-1.165-1.625-1.625C14.811 4.029999999999999 13.863999999999999 3.6099999999999994 13.863999999999999 3.6099999999999994z m-0.516 0.031s-0.72 0.785-1 1.235c-0.42 0.672-1 2.156-1 2.156s0.358-1.511 0.766-2.156C12.424 4.3839999999999995 13.347999999999999 3.6399999999999997 13.347999999999999 3.6399999999999997z m3.914 2.56c0.813 0.013 1.465 0.054 1.465 0.054s-2.596 0.027-3.867 0.253C12.84 6.867999999999999 10.129999999999999 8.046 10.129999999999999 8.046S12.633 6.719999999999999 14.838 6.319999999999999c0.638-0.116 1.611-0.132 2.424-0.12z m-3.031 3.07s-0.122 0.283-0.23 0.552c-0.056-0.01-0.112-0.027-0.165-0.026 0.19-0.26 0.395-0.527 0.395-0.527z m1.293 0.01s-0.513 1.13-0.598 2.433c0.17-0.534 0.299-0.83 0.299-0.83s-0.064 0.815 0.12 1.425c0.131-1.169 0.774-1.955 0.774-1.955s-0.209 0.81-0.12 1.37c0.107-0.826 0.398-1.69 0.398-1.69s-0.187 1.808 0.209 2.64c0.385-0.368 0.718-1.193 0.718-1.193s0.074 0.246 0.045 0.508c0.506-0.967 0.452-2.574 0.452-2.574s0.122 0.406 0.26 0.998c-0.19 0.13-0.315 0.271-0.315 0.271s0.136-0.113 0.326-0.215c0.08 0.347 0.155 0.75 0.223 1.176-0.005 0-0.009-0.004-0.014-0.004-0.62-0.006-0.944 0.26-1.047 0.594-0.288 0.935 0.01 1.18 0.453 1.18 0.836-0.001 0.961-1.149 0.961-1.149s0.119 0.33 0.094 0.57c-0.01 0.104-0.102 0.274-0.102 0.274l0.336-0.242s-0.092-0.74-0.394-1.069c0.145-0.587 0.24-1.068 0.285-1.42 0.05 0.023 0.097 0.052 0.143 0.085 0.063 0.634 0.133 1.446 0.117 2.066 0.171-0.286 0.31-0.586 0.31-0.586l0.01 0.52s-0.344 0.88-0.906 2.033c-1.185 0.85-1.903 1.111-3.17 1.181-0.478 0.027-1.305-0.175-1.305-0.175s-0.556-1.118-1.037-1.106c-0.288 0.007-0.719 0.22-0.719 0.22s-0.542-1.166-0.232-4.009c0.041-0.38 0.674-0.928 0.674-0.928s-0.258 0.515-0.414 1.284a5.42 5.42 0 0 1-0.116 0.14s0.093-0.094 0.112-0.115a5.608 5.608 0 0 0-0.102 0.713c0.123-0.289 0.29-0.541 0.29-0.541s-0.064 0.57 0.12 0.84c0.355-0.915 0.75-1.59 1.063-2.053 0.013-0.003 0.028-0.012 0.04-0.014 0.053-0.009 0.122 0.01 0.183 0.016a5.67 5.67 0 0 0-0.354 1.531c-0.886 0.086-1.043 1.293-1.043 1.293l0.324 0.309s-0.104-0.216-0.105-0.34c0.273 0.375 0.461 0.746 1.025 0.74 1.124-0.013 0.951-1.56 0.951-1.56l0.07 0.023s-0.376-0.51-1.171-0.477l-0.006 0.002a8.303 8.303 0 0 1 0.851-1.384c0.128 0.051 0.16 0.068 0.252 0.115-0.154 0.395-0.29 0.859-0.27 1.312 0.138-0.467 0.311-0.861 0.48-1.209l0.074 0.037-0.069-0.048a9.273 9.273 0 0 1 0.567-1.012z m-0.344 0.013s-0.222 0.368-0.42 0.863c-0.08-0.057-0.105-0.075-0.219-0.139 0.362-0.464 0.639-0.724 0.639-0.724z m3.767 0.375l0.067 0.644a0.698 0.698 0 0 0-0.117-0.055c0.031-0.307 0.05-0.59 0.05-0.59z m-4.539 2.105c0.068 0.002 0.135 0.05 0.17 0.123 0.05 0.1 0.024 0.214-0.056 0.252-0.08 0.04-0.184-0.01-0.233-0.111-0.049-0.1-0.023-0.214 0.057-0.252a0.133 0.133 0 0 1 0.062-0.012z m4.04 0.106c0.058 0.002 0.121 0.05 0.16 0.123 0.053 0.1 0.042 0.211-0.024 0.25-0.065 0.038-0.162-0.01-0.215-0.11-0.053-0.1-0.042-0.211 0.024-0.25a0.098 0.098 0 0 1 0.054-0.013z m-3.83 0.714s-0.004 0.734-0.805 0.793c-0.556 0.042-0.805-0.445-0.805-0.445l0.106 0.04s0.077-0.066 0.156-0.028c0.089 0.043 0.097 0.168 0.097 0.168s0.06 0.075 0.399 0.066c0.633-0.016 0.851-0.594 0.851-0.594z m3.824 0.102s-0.145 0.637-0.72 0.648c-0.606 0.012-0.48-0.527-0.48-0.527s0.058 0.343 0.5 0.379c0.428 0.035 0.7-0.5 0.7-0.5z m-2.578 1.5c-0.239-0.003-0.704 0.125-0.704 0.125l0.157 0.453-0.016-0.36s0.347-0.075 0.523-0.077c0.158-0.003 0.47 0.054 0.47 0.054l-0.063 0.406 0.25-0.476s-0.408-0.123-0.618-0.125z m-2.915 0.318c0.529-0.084 1.037 1.046 1.133 1.166 0.174 0.217 0.616 0.38 0.672 0.696 0.064 0.359-0.46 0.992-0.46 0.992s-0.046-0.26-0.212-0.352c0.102 0.179 0.102 0.446 0.102 0.446s-0.103 0.755-1.406 0.976c-1.3 0.22-1.557-0.389-1.557-0.389s-0.117-0.312-0.035-0.691c-0.157 0.168-0.088 0.541-0.088 0.541s-0.828-0.338-0.943-0.717c-0.09-0.295 0.188-0.58 0.265-0.879 0.133-0.514 0.024-1.275 0.602-1.486 0.329-0.12 0.848 0.067 1.093 0.022 0.285-0.054 0.413-0.257 0.834-0.325z m0.008 0.244c-0.29 0.017-0.447 0.375-0.492 0.72-0.049 0.374 0.14 1.124 0.14 1.124s-0.104-0.738-0.046-1.101c0.052-0.33 0.177-0.575 0.414-0.579 0.446-0.006 0.625 0.344 0.68 0.72 0.05 0.342 0.023 1.038 0.023 1.038s0.095-0.72 0.055-1.078c-0.044-0.382-0.3-0.87-0.774-0.844z m-1.726 0.227c-0.355 0.066-0.533 0.52-0.532 0.941 0.002 0.478 0.547 1.317 0.547 1.317s-0.414-0.843-0.414-1.297c0-0.474 0.111-0.744 0.407-0.813 0.3-0.069 0.584 0.2 0.734 0.563 0.129 0.312 0.101 1.008 0.101 1.008s0.062-0.714-0.023-1.055c-0.1-0.402-0.474-0.728-0.82-0.664z m7.156 0.32c1.36 0.023 2.372 1.958 2.365 2.94-0.014 2.137-0.426 2.398-1.25 3.58-1.214 1.742-4.018 3.821-5.699 3.9-1.064 0.05-1.817-0.482-1.814-0.912 0.006-1.313 0.996-1.441 0.996-1.441 2.425-0.29 2.477-0.52 4.117-2.2 1.587-1.625 1.808-3.87 0.273-4.552l-0.379-0.135s0.227-1.2 1.39-1.18z m-1.022 0.098l0.028 0.178s-0.382 0.309-0.477 0.867l-0.783-0.373 0.016-0.315c0.56-0.016 1.216-0.357 1.216-0.357z m-3.046 0.314l0.347 0.067-0.021 0.187z m0.486 0.051s0.339 0.052 0.508 0.055c0.22 0.003 0.68-0.055 0.68-0.055l0.017 0.457-0.271 0.592-0.977-0.713z m-1.846 0.297c-0.104 0-0.188 0.106-0.187 0.236 0 0.13 0.084 0.235 0.187 0.235 0.104 0 0.19-0.104 0.19-0.235 0-0.13-0.085-0.237-0.19-0.236z m0.059 0.078c0.05 0 0.091 0.043 0.092 0.096 0 0.054-0.041 0.098-0.092 0.098s-0.093-0.044-0.092-0.098c0-0.053 0.042-0.096 0.092-0.096z m-1.307 0.164a0.153 0.153 0 0 0-0.056 0.012c-0.098 0.037-0.14 0.166-0.092 0.287 0.046 0.121 0.162 0.19 0.26 0.152 0.098-0.035 0.14-0.165 0.093-0.287-0.036-0.097-0.12-0.164-0.205-0.164z m0.05 0.059c0.041-0.004 0.08 0.02 0.097 0.06 0.02 0.051-0.003 0.108-0.051 0.125-0.048 0.02-0.102-0.007-0.121-0.058-0.02-0.05 0.003-0.105 0.05-0.123a0.087 0.087 0 0 1 0.026-0.004z m4.423 0.037l0.732 0.768 0.254 0.199 0.22-0.586s0.868 0.283 0.89 1.662l-1.127-0.623-0.077 0.182 1.19 0.695c-0.02 0.162-0.054 0.325-0.108 0.49-0.02-0.03-0.04-0.068-0.06-0.072-0.562 0.133-1.453 0.492-1.453 0.492l0.008 1.834c-0.154 0.166-0.308 0.337-0.461 0.49l-0.073-2.515 0.207-0.586c-0.042-0.06-0.314-0.449-0.377-0.702-0.029-0.118 0.033-0.245 0.004-0.363-0.035-0.144-0.186-0.246-0.209-0.392-0.017-0.117-0.014-0.308 0.067-0.348 0.044-0.022 0.127 0.027 0.127 0.076 0 0.088-0.08 0.096-0.082 0.154-0.008 0.193 0.19 0.343 0.23 0.532 0.025 0.113-0.022 0.235 0.006 0.347 0.049 0.197 0.222 0.479 0.28 0.569l0.519-1.465-0.695-0.748-0.352 0.375z m-5.953 0.053s-0.26 0.496-0.182 0.736c0.124 0.381 1.002 0.84 1.002 0.84s-0.59 0.247-0.437 1.148c0.12 0.714 1.125 0.633 1.125 0.633s0.048 0.538-0.004 0.932c-0.055 0.407-0.383 0.845-0.383 0.845s0.408-0.413 0.474-0.828c0.027-0.166 0.018-0.5 0.018-0.5s0.093 0.16 0.125 0.246c0.07 0.188 0.14 0.582 0.14 0.582s-0.017-0.385-0.054-0.574a6.832 6.832 0 0 0-0.207-0.687l0.363-0.047s0.08 0.25 0.344 0.285c0.161 0.022 0.488 0.004 0.488 0.004s0.004 0.3-0.05 0.457c-0.095 0.27-0.47 0.75-0.47 0.75s-0.255 0.372-0.456 0.426c-0.265 0.07-0.682 0.025-0.682 0.025s-0.82 0.69-1.275 0.69c-0.424 0-1.418-0.674-1.508-0.823-0.105-0.173 0.014-0.723 0.01-1.084-0.005-0.327 0.597-0.949 0.597-0.949l0.42-1.96s-0.294-0.213-0.25-0.348c0.157-0.478 0.645-0.489 0.645-0.489z m4.613 0.166l0.758 0.254-0.778-0.16z m-0.36 0.57l1.725 1.818-0.178 0.43 0.075 2.584c-1.202 1.182-3.051 1.203-3.051 1.203s-0.202-0.063-0.217-0.183c-0.013-0.106 0.158-0.235 0.158-0.235-0.171-0.552-0.21-0.736-0.224-1.34l-0.155-0.144s0.312-0.425 0.448-0.701c0.088-0.18 0.075-0.327 0.072-0.598 0 0 0.373-0.11 0.535-0.215 0.251-0.162 0.201-0.385 0.201-0.385s0.262 0.06 0.602-0.015a0.89 0.89 0 0 0 0.678-0.856c0.01-0.811-0.883-0.953-0.883-0.953z m-1.285 0.035a0.273 0.273 0 0 0-0.103 0.526 0.273 0.273 0 0 1 0.209-0.45c0.035 0.001 0.07 0.008 0.101 0.022a0.273 0.273 0 0 0-0.207-0.098z m-1.148 0.227a0.273 0.273 0 0 0-0.273 0.273c0 0.11 0.067 0.208 0.168 0.25a0.273 0.273 0 0 1 0.21-0.447c0.035 0 0.07 0.008 0.102 0.021a0.273 0.273 0 0 0-0.207-0.097z m2.135 0.263s0.699 0.024 0.857 0.76c0.081 0.377-0.301 0.828-0.767 0.881-0.111 0.013-0.409-0.037-0.409-0.037s-0.054-0.114-0.154-0.115c-0.227-0.003-0.342 0.138-0.72 0.185-0.3 0.038-0.386-0.011-0.575 0.022-0.214 0.037-0.267 0.207-0.267 0.207s-0.325 0.063-0.524 0.066c-0.771 0.014-0.883-0.294-0.941-0.74-0.083-0.634 0.486-0.797 0.486-0.797s0.025 0.108 0.35 0.258l-0.23 0.068 0.06 0.264-0.215 0.066 0.027 0.287 0.254-0.027 0.045 0.26 0.266-0.012-0.051-0.303 0.227-0.05 0.025-0.442c0.218 0.039 0.474 0.063 0.826 0.033 0.345-0.028 0.602-0.147 0.82-0.28a0.671 0.671 0 0 0-0.056 0.269c0 0.38 0.316 0.687 0.707 0.687 0.39 0 0.707-0.308 0.707-0.687a0.697 0.697 0 0 0-0.87-0.668c0.075-0.089 0.122-0.155 0.122-0.155z m3 0.188l1.1 0.615c0 0.028-0.009 0.058-0.01 0.086l-1.13-0.644z m-2.807 0.037c0.05 0.002 0.1 0.02 0.137 0.06l0.01 0.01a0.198 0.198 0 0 1-0.008 0.28l-0.477 0.447a0.198 0.198 0 0 1-0.279-0.01l-0.008-0.01a0.195 0.195 0 0 1 0.008-0.277l0.094-0.09 0.033 0.074a0.15 0.15 0 1 0 0.185 0.147 0.15 0.15 0 0 0-0.125-0.147l0.01-0.17 0.28-0.261a0.195 0.195 0 0 1 0.14-0.053z m-0.006 0.059a0.15 0.15 0 1 0 0.016 0.3 0.15 0.15 0 0 0-0.016-0.3z m0.244 0.34c0.05 0.001 0.1 0.02 0.137 0.06l0.01 0.01a0.198 0.198 0 0 1-0.008 0.28l-0.476 0.446a0.198 0.198 0 0 1-0.28-0.01l-0.008-0.01a0.195 0.195 0 0 1 0.008-0.277l0.477-0.447a0.195 0.195 0 0 1 0.14-0.053z m-0.007 0.058a0.15 0.15 0 1 0 0.002 0z m-3.008 0.047l0.136 0.232-0.109 0.024z m1.537 0.35a0.081 0.081 0 0 0-0.049 0.04l-0.062 0.118a0.087 0.087 0 0 0 0.035 0.117 0.088 0.088 0 0 0 0.117-0.037l0.06-0.117a0.085 0.085 0 0 0-0.035-0.116 0.089 0.089 0 0 0-0.066-0.006z m1.014 0.025a0.15 0.15 0 1 0 0.002 0z m-1.483 0.057a0.088 0.088 0 0 0-0.05 0.043l-0.061 0.117a0.085 0.085 0 0 0 0.035 0.115 0.085 0.085 0 0 0 0.115-0.035l0.063-0.12a0.085 0.085 0 0 0-0.037-0.115 0.084 0.084 0 0 0-0.065-0.005z m5.397 0.357c0.024 0.008 0.04 0.04 0.054 0.07a4.003 4.003 0 0 1-0.285 0.608l-0.765 0.279s-0.015-0.196-0.028-0.293c-0.02-0.148-0.281-0.172-0.281-0.172s0.896-0.376 1.305-0.492z m-4.43 0.045c0.06-0.002 0.11 0.016 0.14 0.064 0.154 0.25-0.203 0.55-0.722 0.637-0.66 0.111-0.89-0.2-0.73-0.437 0.09-0.137 0.498-0.035 0.675-0.059 0.17-0.023 0.455-0.2 0.637-0.205z m3.125 0.54c0.077 0.01 0.193 0.031 0.197 0.124 0.007 0.138 0.028 0.414 0.028 0.414l0.74-0.27a7.746 7.746 0 0 1-0.576 0.78l-0.065-0.365v0.449c-0.11 0.132-0.216 0.258-0.332 0.385z m-2.006 0.032c-0.324 0.004-0.646 0.04-0.973 0.108-0.128 0.183-0.072 0.564-0.072 0.564l2.133-0.105s-0.014-0.334-0.106-0.487a5.44 5.44 0 0 0-0.982-0.08z m-0.076 0.09c0.263-0.007 0.551 0.008 0.992 0.05 0.068 0.152 0.067 0.34 0.067 0.34l-1.934 0.087s-0.014-0.204 0.035-0.387c0.339-0.053 0.577-0.083 0.84-0.09z m1.066 0.59s-0.11 0.838-0.023 1.32c-0.462 0.113-1.205 0.137-1.828 0.11-0.056-0.511-0.086-1.22-0.086-1.22s-0.08 0.55-0.008 1.36c0.714-0.004 1.466-0.006 2.031-0.14-0.067-0.742-0.086-1.43-0.086-1.43z m-1.222 0.246s-0.03 0.34-0.028 0.512c0.002 0.188 0.04 0.562 0.04 0.562s0.045-0.37 0.042-0.555c-0.002-0.174-0.054-0.519-0.054-0.519z m0.484 0.098s-0.043 0.285-0.043 0.43c0 0.147 0.047 0.44 0.047 0.44s0.028-0.29 0.027-0.437c0-0.145-0.031-0.433-0.031-0.433z m-2.465 0.539l0.133 0.105c-0.003 0.25 0.006 0.502 0.098 0.79-0.258-0.034-0.617-0.217-0.782-0.45 0.298-0.122 0.346-0.167 0.551-0.445z m8.694 0.078c0.25 0.139 0.459 0.393 0.457 0.611-0.003 0.254-0.264-0.15-0.557-0.404 0.233 0.249 0.397 0.632 0.215 0.637-0.238 0.006-0.255-0.311-0.602-0.514-0.184-0.107-0.496-0.152-0.496-0.152s0.371-0.174 0.983-0.178z m-1.073 0.273c0.741-0.002 0.851 0.642 1.137 0.64 0.313-0.003 0.172-0.28 0.172-0.28s0.106 0.151 0.21 0.136c0 0 1.301 1.029 1.321 1.989 0.022 1.08-1.257 2.173-2.312 2.164-1.381-0.02-2.043-0.67-3.008-0.68-0.725 0.034-1.213 0.328-1.227 0.727-0.006 0.193 0.174 0.558 0.174 0.558s-0.306-0.258-0.322-0.527c-0.041-0.738 0.523-1.603 1.402-1.666 0.953-0.11 1.383 0.232 2.613 0.322 0.48 0.035 1.162-0.482 1.149-0.766-0.038-0.823-1.73-0.808-1.73-0.808l0.343-0.309c-0.023-1.231-0.637-1.086-0.637-1.086l0.36-0.406s0.21-0.007 0.355-0.008z m-0.808 0.516c0.161-0.025 0.325 0 0.453 0.187 0.138 0.203 0.176 0.746 0.176 0.746s-0.448 0.437-0.735 0.547c-0.01-0.128-0.007-0.244-0.023-0.402-0.013-0.123-0.172-0.28-0.362-0.309v-0.171c0.175-0.192 0.341-0.392 0.49-0.598z m-0.563 0.674v1.513c-0.136 0.058-0.245 0.115-0.414 0.172-0.255 0.087-0.544-0.005-0.805 0.063-0.285 0.073-0.53 0.26-0.804 0.367-0.409 0.16-0.95 0.176-0.95 0.176s1.708-0.936 2.973-2.291z m0.072 0.16c0.127 0.025 0.282 0.153 0.288 0.256 0.012 0.26 0.022 0.344 0.03 0.504 0.158-0.017 0.427-0.262 0.427-0.262s0.042 0.256-0.055 0.406c-0.081 0.125-0.349 0.271-0.69 0.42z m0.85 0.549s1.6 0.075 1.602 0.71c0 0.4-0.705 0.64-1.125 0.641-0.571 0.002-1.54-0.344-1.54-0.344s0.913-0.39 1.032-0.574c0.097-0.151 0.031-0.433 0.031-0.433z" /></svg>