<svg xmlns="http://www.w3.org/2000/svg" width="100%" height="100%" viewBox="0 0 30.72 30.72"><path d="M24.589 7.499999999999999l-0.006 3.33h-10.6c-0.219 0-0.397 0.181-0.397 0.399 0 0.221 0.18 0.399 0.397 0.399l2.76-0.016c4.346 0 7.868 3.525 7.868 7.869 0 4.348-3.522 7.869-7.869 7.869L6.108 27.36l0.005-3.375h10.635c2.487 0 4.504-2.016 4.504-4.504 0-2.49-2.017-4.506-4.506-4.506l-2.771-0.03c-2.06 0-3.727-1.666-3.727-3.72 0-2.061 1.666-3.726 3.723-3.726h10.618zM6.122999999999999 23.203l-0.004-3.331h10.609c0.21 0 0.383-0.175 0.383-0.387 0-0.213-0.173-0.385-0.384-0.385h-2.744c-4.345 0-7.867-3.525-7.867-7.871S9.637999999999998 3.3599999999999994 13.982999999999999 3.3599999999999994l10.6 0.003 0.006 3.35-10.604 0.003c-2.49 0-4.5 2.019-4.5 4.507 0 2.489 2.024 4.504 4.515 4.504l2.775 0.03c2.055 0 3.72 1.668 3.72 3.724 0 2.055-1.665 3.719-3.72 3.719H6.125l-0.002 0.003z" /></svg>