<svg xmlns="http://www.w3.org/2000/svg" width="100%" height="100%" viewBox="0 0 30.72 30.72"><path d="M15.727 12.115l0.004-0.005c-0.03-0.058-0.138-0.3-0.16-0.364v-0.002C12.187999999999999 4.834 4.6739999999999995 5.079999999999999 3.4879999999999995 8.169999999999998c-0.91 2.373 3.072 8.026 12.24 3.945zM13.26 22.592c-0.596-1.344-0.922-2.8-0.957-4.26-0.964 1.49-1.69 2.987-2.176 4.104-0.023 0.045-0.38 0.93-0.482 1.2-0.13 0.33 0.045 0.734 0.383 0.854 0.273 0.104 1.165 0.42 1.22 0.45 1.14 0.374 2.716 0.84 4.456 1.126-1.035-0.992-1.86-2.176-2.445-3.496v0.022zM17.25 11.477c5.18-2.306 4.456-6.31 3.116-6.825-1.804-0.693-5.08 1.974-3.205 6.62 0.016 0.033 0.09 0.17 0.09 0.205zM26.773 16.546v-0.008c-0.786-1.764-2.226-3.024-3.897-3.624-0.168-0.063-0.34-0.09-0.51-0.09-0.87 0-1.707 0.723-1.785 1.626-0.134 1.506 0.165 3.04 0.825 4.516 0.646 1.46 1.566 2.69 2.75 3.596 0.31 0.24 0.684 0.36 1.063 0.36 0.677 0 1.354-0.36 1.623-1.005 0.688-1.65 0.722-3.586-0.067-5.37zM22.842 24.278h-0.004c-1.445-1.11-2.594-2.6-3.41-4.43-0.826-1.86-1.164-3.738-1.004-5.586 0.045-0.516 0.194-1.012 0.438-1.465l-0.137 0.035c-0.764 0.19-1.5 0.52-2.156 0.953-0.95 0.625-1.788 1.55-2.15 2.646-0.097 0.298-0.17 0.62-0.193 0.93-0.116 1.48 0.126 3.01 0.77 4.462 0.626 1.404 1.562 2.574 2.687 3.465 0.684 0.547 1.92 0.89 2.93 0.89 0.95 0 1.887-0.27 2.73-0.704 0.263-0.137 0.84-0.493 0.878-0.524-0.5-0.122-0.973-0.345-1.38-0.66v-0.012z" /></svg>