<svg xmlns="http://www.w3.org/2000/svg" width="100%" height="100%" viewBox="0 0 30.72 30.72"><path d="M18.961 8.89c-1.91 0.035-3.981 0.91-5.63 2.56-2.93 2.93-2.083 8.53-1.088 9.525 0.805 0.804 6.595 1.843 9.526-1.088a9.74 9.74 0 0 0 0.584-0.643c0.043-0.292 0.205-0.66 0.489-1.106a1.848 1.848 0 0 1-0.537 0.176c-0.144 0.265-0.37 0.55-0.676 0.855-0.354 0.335-0.607 0.554-0.76 0.656a0.795 0.795 0 0 1-0.437 0.152c-0.35 0-0.514-0.308-0.494-0.924-0.22 0.316-0.425 0.549-0.612 0.7a0.914 0.914 0 0 1-0.578 0.224c-0.194 0-0.36-0.09-0.496-0.273a1.03 1.03 0 0 1-0.193-0.507 4.016 4.016 0 0 1-0.726 0.583c-0.224 0.132-0.47 0.197-0.74 0.197-0.3 0-0.543-0.096-0.727-0.288a0.978 0.978 0 0 1-0.257-0.524v0.004c-0.3 0.276-0.564 0.48-0.79 0.611a1.295 1.295 0 0 1-0.649 0.197 0.693 0.693 0 0 1-0.571-0.275c-0.145-0.183-0.218-0.43-0.218-0.739 0-0.464 0.101-1.02 0.302-1.67 0.201-0.65 0.445-1.25 0.733-1.797l0.842-0.312a0.21 0.21 0 0 1 0.06-0.013c0.063 0 0.116 0.047 0.157 0.14 0.04 0.095 0.061 0.221 0.061 0.38 0 0.451-0.104 0.888-0.312 1.31-0.207 0.422-0.532 0.873-0.974 1.352-0.018 0.23-0.027 0.388-0.027 0.474 0 0.193 0.036 0.345 0.106 0.458 0.071 0.113 0.165 0.169 0.282 0.169a0.71 0.71 0 0 0 0.382-0.13c0.132-0.084 0.333-0.26 0.602-0.523 0.028-0.418 0.187-0.798 0.482-1.142 0.324-0.38 0.685-0.569 1.08-0.569 0.206 0 0.37 0.054 0.494 0.16a0.524 0.524 0 0 1 0.186 0.417c0 0.458-0.486 0.829-1.459 1.114 0.088 0.43 0.32 0.646 0.693 0.646a0.807 0.807 0 0 0 0.417-0.117c0.129-0.076 0.321-0.243 0.575-0.497 0.032-0.252 0.118-0.495 0.259-0.728 0.182-0.3 0.416-0.544 0.701-0.73 0.285-0.185 0.537-0.278 0.756-0.278 0.276 0 0.47 0.127 0.58 0.381l0.677-0.374h0.186l-0.292 0.971c-0.15 0.488-0.226 0.823-0.226 1.004 0 0.19 0.067 0.285 0.202 0.285 0.086 0 0.181-0.045 0.285-0.137 0.104-0.092 0.25-0.232 0.437-0.42v0.001c0.143-0.155 0.274-0.32 0.392-0.494-0.19-0.084-0.285-0.21-0.285-0.375 0-0.17 0.058-0.352 0.174-0.545 0.116-0.194 0.275-0.29 0.479-0.29 0.172 0 0.258 0.088 0.258 0.265 0 0.139-0.05 0.338-0.149 0.596 0.367-0.04 0.687-0.32 0.961-0.842l0.228-0.01c1.059-2.438 0.828-5.075-0.83-6.732-1.019-1.02-2.408-1.5-3.895-1.471z m4.725 8.203a8.938 8.938 0 0 1-1.333 2.151 1.09 1.09 0 0 0-0.012 0.147c0 0.168 0.047 0.309 0.14 0.423 0.092 0.113 0.206 0.17 0.34 0.17 0.296 0 0.714-0.264 1.254-0.787-0.001 0.04-0.003 0.08-0.003 0.121 0 0.146 0.012 0.368 0.036 0.666l0.733-0.172c0-0.2 0.003-0.357 0.01-0.474 0.01-0.157 0.033-0.33 0.066-0.517 0.02-0.11 0.07-0.216 0.152-0.315l0.186-0.216a5.276 5.276 0 0 1 0.378-0.397c0.062-0.055 0.116-0.099 0.162-0.13a0.26 0.26 0 0 1 0.123-0.046c0.055 0 0.083 0.035 0.083 0.106 0 0.07-0.052 0.236-0.156 0.497-0.194 0.486-0.292 0.848-0.292 1.084 0 0.175 0.046 0.314 0.136 0.418a0.45 0.45 0 0 0 0.358 0.155c0.365 0 0.803-0.269 1.313-0.808v-0.381c-0.361 0.426-0.623 0.64-0.784 0.64-0.109 0-0.163-0.067-0.163-0.2 0-0.1 0.065-0.316 0.195-0.65 0.19-0.486 0.285-0.836 0.285-1.048a0.464 0.464 0 0 0-0.112-0.319 0.36 0.36 0 0 0-0.282-0.127c-0.165 0-0.354 0.077-0.567 0.233-0.213 0.156-0.5 0.436-0.863 0.84 0.053-0.262 0.165-0.622 0.335-1.08l-0.809 0.156a6.54 6.54 0 0 0-0.399 1.074c-0.04 0.156-0.07 0.316-0.092 0.48a7.447 7.447 0 0 1-0.49 0.45 0.38 0.38 0 0 1-0.229 0.08 0.208 0.208 0 0 1-0.174-0.082 0.352 0.352 0 0 1-0.064-0.222c0-0.1 0.019-0.214 0.056-0.343 0.038-0.13 0.12-0.373 0.249-0.731l0.308-0.849z m-17.21-2.927c-0.863-0.016-1.67 0.263-2.261 0.854-1.352 1.352-1.07 3.827 0.631 5.527 1.7 1.701 4.95 1.21 5.527 0.632 0.467-0.466 1.07-3.827-0.631-5.527-0.957-0.957-2.158-1.465-3.267-1.486z m12.285 0.358h0.166v0.21H18.759999999999998z m0.427 0h0.166v0.865l0.46-0.455h0.195l-0.364 0.362 0.428 0.684h-0.198l-0.357-0.575-0.164 0.166v0.41h-0.166z m1.016 0h0.166v0.21h-0.166z m0.481 0.122h0.166v0.288h0.172v0.135h-0.172v0.717c0 0.037 0.006 0.062 0.02 0.075 0.012 0.013 0.037 0.02 0.074 0.02a0.23 0.23 0 0 0 0.078-0.01v0.141a0.802 0.802 0 0 1-0.136 0.014 0.23 0.23 0 0 1-0.15-0.043 0.15 0.15 0 0 1-0.052-0.123v-0.79h-0.141v-0.136h0.141z m-3.562 0.258c0.081 0 0.15 0.012 0.207 0.038 0.057 0.024 0.1 0.061 0.13 0.11s0.045 0.106 0.045 0.173h-0.176c-0.006-0.111-0.075-0.167-0.208-0.167a0.285 0.285 0 0 0-0.164 0.041 0.134 0.134 0 0 0-0.06 0.117c0 0.035 0.015 0.065 0.045 0.088 0.03 0.024 0.08 0.044 0.15 0.06l0.16 0.039a0.47 0.47 0 0 1 0.224 0.105c0.047 0.046 0.07 0.108 0.07 0.186a0.3 0.3 0 0 1-0.052 0.175 0.327 0.327 0 0 1-0.152 0.116 0.585 0.585 0 0 1-0.226 0.041c-0.136 0-0.24-0.03-0.309-0.088-0.069-0.059-0.105-0.149-0.109-0.269h0.176c0.004 0.037 0.01 0.065 0.017 0.084a0.166 0.166 0 0 0 0.034 0.054c0.044 0.043 0.112 0.065 0.204 0.065a0.31 0.31 0 0 0 0.177-0.045 0.139 0.139 0 0 0 0.067-0.119 0.116 0.116 0 0 0-0.038-0.09 0.287 0.287 0 0 0-0.124-0.055l-0.156-0.038a1.248 1.248 0 0 1-0.159-0.05 0.359 0.359 0 0 1-0.098-0.061 0.22 0.22 0 0 1-0.058-0.083 0.32 0.32 0 0 1-0.016-0.108c0-0.096 0.036-0.174 0.109-0.232a0.45 0.45 0 0 1 0.29-0.087z m1.035 0a0.46 0.46 0 0 1 0.202 0.043 0.351 0.351 0 0 1 0.187 0.212 0.577 0.577 0 0 1 0.023 0.126h-0.168a0.256 0.256 0 0 0-0.078-0.168 0.242 0.242 0 0 0-0.17-0.06 0.248 0.248 0 0 0-0.155 0.05 0.306 0.306 0 0 0-0.1 0.144 0.662 0.662 0 0 0-0.034 0.224 0.58 0.58 0 0 0 0.035 0.214 0.299 0.299 0 0 0 0.101 0.135 0.261 0.261 0 0 0 0.157 0.048c0.142 0 0.227-0.084 0.256-0.252h0.167a0.519 0.519 0 0 1-0.065 0.22 0.35 0.35 0 0 1-0.146 0.138 0.464 0.464 0 0 1-0.216 0.048 0.448 0.448 0 0 1-0.246-0.066 0.441 0.441 0 0 1-0.161-0.192 0.703 0.703 0 0 1-0.057-0.293c0-0.085 0.01-0.163 0.032-0.233a0.522 0.522 0 0 1 0.095-0.182 0.403 0.403 0 0 1 0.15-0.117 0.453 0.453 0 0 1 0.191-0.04z m0.603 0.03h0.166v1.046H18.759999999999998z m1.443 0h0.166v1.046h-0.166z m-5.05 0.618c-0.08 0-0.2 0.204-0.356 0.611-0.155 0.407-0.308 0.977-0.459 1.71 0.281-0.312 0.509-0.662 0.683-1.05 0.175-0.387 0.262-0.72 0.262-0.999a0.455 0.455 0 0 0-0.036-0.197c-0.025-0.05-0.056-0.075-0.093-0.075z m4.662 1.797c-0.221 0-0.431 0.188-0.629 0.563-0.197 0.376-0.296 0.722-0.296 1.038 0 0.12 0.029 0.216 0.088 0.29a0.273 0.273 0 0 0 0.223 0.111c0.221 0 0.43-0.188 0.625-0.565 0.196-0.377 0.294-0.725 0.294-1.043a0.457 0.457 0 0 0-0.083-0.29 0.269 0.269 0 0 0-0.222-0.104z m-2.848 0.007c-0.146 0-0.285 0.11-0.417 0.333-0.133 0.222-0.2 0.51-0.2 0.866 0.566-0.159 0.849-0.452 0.849-0.881 0-0.212-0.077-0.318-0.232-0.318Z" /></svg>