<svg xmlns="http://www.w3.org/2000/svg" width="100%" height="100%" viewBox="0 0 30.72 30.72"><path d="M12.8216 3.3613999999999993a2.4132 2.4132 0 0 0-0.7215 0.085C10.813199999999998 3.7984999999999993 10.055 5.1289 10.407599999999999 6.4167l1.4312 5.2318-5.0803-1.681C5.491 9.5481 4.124499999999999 10.2356 3.7053999999999996 11.5037c-0.4188 1.2678 0.269 2.6354 1.535 3.0546h0.0004l5.8776 1.9448-4.131 4.6646c-0.8855 0.9996-0.793 2.5278 0.2057 3.4135 0.9986 0.8856 2.5257 0.7932 3.4112-0.206l3.6032-4.0682 1.4423 5.273c0.3523 1.2878 1.6817 2.0462 2.9688 1.6935 1.288-0.3527 2.0457-1.6823 1.6932-2.97l-1.4315-5.2324 5.081 1.6813c1.267 0.419 2.6337-0.2685 3.0527-1.5365 0.42-1.268-0.2675-2.6354-1.535-3.055l-5.878-1.9444 4.1306-4.6643c0.8855-0.9996 0.793-2.5276-0.2056-3.4135-0.999-0.8863-2.5265-0.7937-3.4113 0.2053v0.0003l-3.6031 4.069-1.4427-5.2737C14.782499999999999 4.0935999999999995 13.851099999999999 3.3966999999999996 12.8216 3.3613999999999993z" /></svg>