<svg xmlns="http://www.w3.org/2000/svg" width="100%" height="100%" viewBox="0 0 30.72 30.72"><path d="M7.369999999999999 3.3599999999999994A4.01 4.01 0 0 0 3.3599999999999994 7.369999999999999v15.98c0 2.21 1.8 4 4.01 4.01h15.98C25.56 27.36 27.36 25.56 27.36 23.349999999999998V7.359999999999999A4.01 4.01 0 0 0 23.349999999999998 3.3599999999999994H7.359999999999999z m1.62 4.36h12.74c0.7 0 1.26 0.57 1.26 1.27v12.74c0 0.7-0.56 1.27-1.26 1.27H8.989999999999998c-0.7 0-1.26-0.57-1.26-1.27V8.989999999999998a1.27 1.27 0 0 1 1.26-1.27z m3.83 4.35a0.73 0.73 0 0 0-0.73 0.73v5.09c0 0.4 0.32 0.72 0.72 0.72h5.1a0.73 0.73 0 0 0 0.73-0.72V12.799999999999999a0.73 0.73 0 0 0-0.73-0.73h-5.1Z" /></svg>