<svg xmlns="http://www.w3.org/2000/svg" width="100%" height="100%" viewBox="0 0 30.72 30.72"><path d="M15.36 3.3599999999999994C12.048 3.3599999999999994 9.36 6.048 9.36 9.36s2.688 6 6 6c1.066 0 2.1171 0.2862 3.0371 0.8262 2.858 1.678 3.8167 5.3539 2.1387 8.2129h1.6797a7.4925 7.4925 0 0 0 0.6425-3.0293c0.003-4.144-3.356-7.5048-7.498-7.5098-2.484 0-4.5-2.016-4.5-4.5S12.876 4.859999999999999 15.36 4.859999999999999s4.5 2.016 4.5 4.5H21.36c0-3.312-2.688-6-6-6z m0 3c-1.597 0.04-2.8799 1.3259-2.9219 2.9219C12.3951 10.9399 13.703 12.317 15.36 12.36c1.597-0.04 2.8799-1.3259 2.9219-2.9219C18.3249 7.780099999999999 17.016 6.403 15.36 6.359999999999999z m0 1.5c0.828 0 1.5 0.672 1.5 1.5v0.002c0 0.828-0.672 1.5-1.5 1.5-0.83 0-1.5-0.673-1.5-1.502 0-0.83 0.67-1.5 1.5-1.5zM10.86 18.36v1.5H12.36v6H7.859999999999999V27.36h15v-1.5H18.36v-6h1.5V18.36h-9z m3 1.5h3v6h-3v-6z m-6 1.4707V21.36a7.418 7.418 0 0 0 0.6445 3.039h1.6836C9.6601 23.506999999999998 9.36 22.47 9.36 21.36v-0.0293H7.859999999999999Z" /></svg>