<svg xmlns="http://www.w3.org/2000/svg" width="100%" height="100%" viewBox="0 0 30.72 30.72"><path d="M25.344 19.708c0.056-0.112 0.056-0.224 0.112-0.336 1.346-5.272-1.851-11.44-7.347-14.693 2.412 3.253 3.365 7.122 2.524 10.599-0.056 0.28-0.168 0.617-0.28 0.897a5.173 5.173 0 0 1-0.45-0.28S14.463999999999999 12.53 8.633 6.6419999999999995c-0.169-0.168 3.14 4.71 6.841 8.58-1.738-1.01-6.673-4.542-9.758-7.403 0.337 0.617 0.842 1.234 1.346 1.851 2.58 3.309 5.945 7.346 9.983 10.43-2.86 1.74-6.842 1.851-10.88 0-1.01-0.448-1.85-1.009-2.804-1.682 1.682 2.636 4.318 5.048 7.459 6.337 3.757 1.627 7.57 1.515 10.318 0h0.057c0.112-0.056 0.224-0.112 0.336-0.224 1.346-0.673 3.982-1.402 5.44 1.402 0.392 0.785 1.121-2.86-1.626-6.225z" /></svg>