<svg xmlns="http://www.w3.org/2000/svg" width="100%" height="100%" viewBox="0 0 30.72 30.72"><path d="M16.284 4.587999999999999c-0.584-0.01-1.251 0-1.485 0.027-2.46 0.282-4.138 1.3-4.753 2.891-0.218 0.552-0.274 1.002-0.243 1.772 0.048 1.21 0.419 2.004 1.262 2.742 1.225 1.06 2.98 1.508 5.998 1.508 2.737 0 3.71 0.413 3.916 1.675 0.313 1.867-1.57 3.07-4.414 2.827-1.878-0.16-3.496-0.912-4.223-1.967a7.772 7.772 0 0 1-0.355-0.62c-0.382-0.76-0.64-0.978-1.176-0.978-0.43 0.005-0.732 0.165-0.918 0.494l-0.133 0.24v4.03l0.137 0.296c0.165 0.344 0.4 0.546 0.744 0.63 0.35 0.09 0.794-0.036 1.42-0.402l0.5-0.29 0.826 0.185c1.82 0.403 2.75 0.523 4.065 0.523 1.103 0.005 1.548-0.046 2.455-0.285 1.124-0.297 1.974-0.785 2.717-1.57 0.8-0.844 1.15-1.853 1.097-3.147-0.069-1.628-0.695-2.698-2-3.414-0.96-0.525-2.292-0.79-4.377-0.88-2.042-0.086-2.794-0.155-3.515-0.32-0.51-0.12-0.785-0.25-1.076-0.515-0.653-0.589-0.59-1.755 0.136-2.482 0.642-0.637 1.511-0.928 2.774-0.928 1.432 0.005 2.393 0.27 3.412 0.955 0.185 0.127 0.721 0.62 1.193 1.092 0.886 0.902 1.135 1.082 1.506 1.082 0.244 0 0.59-0.163 0.732-0.344 0.26-0.329 0.303-0.63 0.303-2.2 0-1.66-0.043-1.91-0.377-2.282-0.387-0.425-0.848-0.42-1.75 0.031l-0.59 0.297-0.63-0.17c-1.496-0.392-2.038-0.477-3.178-0.504zM3.3599999999999994 17.134999999999998v9h24v-1H4.359999999999999v-8z" /></svg>