<svg xmlns="http://www.w3.org/2000/svg" width="100%" height="100%" viewBox="-3 -3 30 30"><path d="M10.025 13.875H4.687a4.688 4.688 0 010-9.375h6.227a1.875 1.875 0 010 3.75H4.592a.937.937 0 100 1.875h5.337a4.687 4.687 0 110 9.375H1.875a1.875 1.875 0 010-3.75h8.15a.938.938 0 000-1.875zM13.97 19.5a5.635 5.635 0 002.396-3.75h3.026a.93.93 0 00.921-.938V9.189a.93.93 0 00-.921-.938h-5.497c.438-.498.704-1.155.704-1.875s-.266-1.377-.704-1.875h6.418C22.35 4.5 24 6.179 24 8.25v7.5c0 2.071-1.65 3.75-3.687 3.75H13.97z"/></svg>