<svg xmlns="http://www.w3.org/2000/svg" width="100%" height="100%" viewBox="0 0 30.72 30.72"><path d="M20.644 13.913a0.388 0.388 0 0 1-0.195-0.053l-1.527-0.894a0.39 0.39 0 0 1-0.192-0.334V10.867999999999999a0.387 0.387 0 0 1 0.193-0.335l1.534-0.886a0.384 0.384 0 0 1 0.385 0l1.538 0.88a0.388 0.388 0 0 1 0.195 0.336v1.78a0.387 0.387 0 0 1-0.192 0.334l-1.535 0.885a0.382 0.382 0 0 1-0.204 0.05z m-1.14-1.503l1.146 0.67 1.148-0.663V11.084999999999999l-1.15-0.66-1.15 0.666zM8.602 16.904a0.387 0.387 0 0 1-0.194-0.727l1.344-0.774a0.387 0.387 0 1 1 0.386 0.668l-1.344 0.777a0.384 0.384 0 0 1-0.192 0.056z m-0.292 2.341a0.385 0.385 0 0 1-0.19-0.727l2.578-1.477a0.387 0.387 0 1 1 0.384 0.67l-2.585 1.483a0.384 0.384 0 0 1-0.186 0.05z m0.417 1.926a0.387 0.387 0 0 1-0.19-0.727l3.117-1.744a0.387 0.387 0 1 1 0.378 0.673l-3.11 1.744a0.38 0.38 0 0 1-0.195 0.054zM16.305 5.35L14.392999999999999 4.186999999999999 4.725 9.78l0.019 1.598 3.657 2.11L10.79 12.123l0.522-2.54a0.392 0.392 0 0 1 0.186-0.258L19.91 4.4799999999999995a0.391 0.391 0 0 1 0.387 0l6.278 3.635a0.382 0.382 0 0 1 0.194 0.334l-0.012 7.267a0.387 0.387 0 0 1-0.195 0.335l-8.324 4.78a0.388 0.388 0 0 1-0.298 0.037l-2.525-0.714-2.368 1.378v4.197l1.385 0.8 9.666-5.593v-2.248l0.77-0.503v2.972a0.385 0.385 0 0 1-0.191 0.336l-10.051 5.815a0.384 0.384 0 0 1-0.387 0l-1.774-1.02a0.385 0.385 0 0 1-0.194-0.333v-4.642a0.385 0.385 0 0 1 0.192-0.333l2.702-1.572a0.385 0.385 0 0 1 0.3-0.038l2.531 0.716 7.995-4.587 0.012-6.82-5.893-3.41-8.07 4.653-0.525 2.527a0.387 0.387 0 0 1-0.187 0.257l-2.727 1.57a0.388 0.388 0 0 1-0.386 0L4.175999999999999 11.947999999999999a0.387 0.387 0 0 1-0.194-0.33L3.9499999999999993 9.567a0.385 0.385 0 0 1 0.192-0.338L14.203999999999999 3.4139999999999993a0.387 0.387 0 0 1 0.394 0l2.47 1.502z" /></svg>