<svg xmlns="http://www.w3.org/2000/svg" width="100%" height="100%" viewBox="0 0 30.72 30.72"><path d="M6.581999999999999 3.5699999999999994C5.122 3.5699999999999994 4.42 4.696999999999999 4.42 5.856999999999999v7.883c-0.53-0.502-1.096-0.15-1.058 0.295 0.038 0.439 0.59 1.546 1.436 2.517 0.843 0.968 1.924 1.776 2.94 2.268a11.19 11.19 0 0 0-0.491 3.598c0.09 1.096 0.378 1.95 0.903 2.75 0.918 1.407 2.32 1.985 3.674 1.985 1.209 0 2.494-0.563 2.698-2.373v-4.694c1.308 0.552 3.47 0.363 4.47-0.39 0.19-0.14 0.326-0.207 0.416-0.113 0.095 0.09 0.106 0.166-0.113 0.439a5.6 5.6 0 0 1-3.103 1.965l0.008 2.72a2.532 2.532 0 0 0 2.543 2.446c1.64 0.015 2.48-0.556 3.148-1.164 0.632-0.567 1.399-1.754 1.558-3.243a10.128 10.128 0 0 0-0.454-3.926 10.358 10.358 0 0 0 2.948-2.268C26.573 15.86 27.36 14.545 27.36 14.035c0-0.51-0.556-0.782-1.036-0.302V5.856999999999999c0-0.824-0.48-2.29-2.135-2.29z m0.423 1.35H23.77c0.756 0 1.17 0.28 1.17 1.224v8.904a8.73 8.73 0 0 1-3.555 1.534c-1.606 0.352-2.94 0.087-3.666 0.148-0.718 0.06-1.428 0.529-1.296 1.79-0.491-0.154-1.236-0.683-1.682-1.117-0.438-0.428-0.87-0.711-1.534-0.692-1.013 0.03-1.663 0.102-2.57 0.01a9.656 9.656 0 0 1-4.838-1.786V6.139999999999999c0-0.87 0.378-1.22 1.206-1.22z m4.497 4.988a2.994 2.994 0 1 0 0 5.987 2.993 2.993 0 0 0 0-5.983z m7.71 0a2.994 2.994 0 1 0 0 5.987 2.993 2.993 0 0 0 0-5.983z" /></svg>