<svg xmlns="http://www.w3.org/2000/svg" width="100%" height="100%" viewBox="0 0 30.72 30.72"><path d="M14.766 14.671999999999999c-0.78-0.123-1.198-0.654-0.99-2.295l0.023-0.198c0.175-1.426 0.321-1.743 0.996-1.706 0.198 0.013 0.426 0.14 0.654 0.33 0.211 0.247 0.68 0.568 0.945 1.204 0.19 0.466 0.254 0.77 0.281 1.098l0.042 0.402v-0.002a0.68 0.68 0 0 0 1.342-0.007c0.008-0.044 0.176-4.365 0.176-4.436 0-0.38-0.302-0.69-0.68-0.696a0.685 0.685 0 0 0-0.682 0.688c0 0.009-0.001 0.605-0.014 1.206-0.536-0.592-1.223-1.123-1.994-1.17-2.058-0.11-2.283 1.811-2.419 2.918l-0.02 0.196c-0.278 2.189 0.441 3.569 2.13 3.837 1.838 0.293 3.063 0.72 3.074 1.868 0.007 0.446-0.224 0.903-0.627 1.254a2.163 2.163 0 0 1-1.749 0.507 3.233 3.233 0 0 1-0.539-0.141c-0.24-0.136-0.847-0.51-1.154-0.942-0.26-0.364-0.35-0.937-0.378-1.3 0.004-0.163 0.005-0.27 0.005-0.283a0.69 0.69 0 0 0-0.669-0.703 0.689 0.689 0 0 0-0.696 0.682c0 0.013-0.017 1.367-0.066 2.183-0.07 1.313 0 2.426 0 2.474 0.028 0.382 0.35 0.67 0.727 0.644a0.681 0.681 0 0 0 0.635-0.733c0-0.006-0.033-0.545-0.029-1.29a5.21 5.21 0 0 0 1.938 0.773 3.451 3.451 0 0 0 2.856-0.82c0.713-0.619 1.122-1.464 1.11-2.32-0.024-2.555-2.865-3.004-4.228-3.222M17.534 3.3599999999999994a5.51 5.51 0 0 0-2.724 0.723h-0.112c-2.637 0-4.937 1.392-6.15 3.728-0.728 1.393-0.9 2.75-0.999 3.579-0.012 0.089-0.018 0.17-0.028 0.262-0.12 0.974-0.123 1.904-0.01 2.772a5.824 5.824 0 0 0-0.625 2.529v0.016a58.919 58.919 0 0 1-0.057 1.95 29.72 29.72 0 0 0-0.008 2.94l0.013 0.209C7.058 25.035999999999998 9.518999999999998 27.36 12.443 27.36a5.516 5.516 0 0 0 3.463-1.21 8.357 8.357 0 0 0 5.195-2.08c1.826-1.587 2.859-3.845 2.83-6.19-0.013-1.362-0.346-2.638-0.978-3.763 0.117-1.273 0.221-4.996 0.221-5.03 0-3.103-2.484-5.67-5.539-5.727z m0.056 2.675c1.642 0.03 2.978 1.412 2.978 3.081 0 0.038-0.145 4.497-0.215 4.883a3.152 3.152 0 0 1-0.203 0.69c0.756 0.89 1.165 2 1.175 3.256 0.021 1.555-0.681 3.076-1.926 4.16a5.763 5.763 0 0 1-3.8 1.444 5.986 5.986 0 0 1-0.718-0.048 3.386 3.386 0 0 1-0.172 0.215 2.97 2.97 0 0 1-2.264 1.038c-1.573 0-2.897-1.255-3.013-2.856l-0.008-0.122a27.366 27.366 0 0 1 0.005-2.662c0.039-0.679 0.06-1.831 0.062-2.08a3.124 3.124 0 0 1 0.783-2.025c-0.237-0.835-0.312-1.836-0.167-3.02l0.024-0.212c0.083-0.695 0.208-1.72 0.72-2.7 0.765-1.473 2.168-2.318 3.848-2.318a4.568 4.568 0 0 1 0.824 0.07c0.546-0.5 1.27-0.81 2.067-0.794Z" /></svg>