<svg xmlns="http://www.w3.org/2000/svg" width="100%" height="100%" viewBox="0 0 30.72 30.72"><path d="M3.7169999999999996 12.383999999999999A12.07 12.07 0 0 0 6.33 23.227a12.051 12.051 0 0 0 10.38 4.063c7.768-0.703 13.086-9.799 9.517-16.8-0.416-1.19-2.07-0.368-1.903 0.596 0.287 0.7 0.526 1.421 0.713 2.155a9.983 9.983 0 0 1-3.926 10.25 9.965 9.965 0 0 1-14.807-3.809A9.984 9.984 0 0 1 7.8 8.808a9.968 9.968 0 0 1 4.85-3.044 9.868 9.868 0 0 1 7.02 0.631 0.333 0.333 0 0 1 0.155 0.429l-3.962 10.62c-0.107 0.81-0.69 0.786-0.797 0l-2.38-7.37a1.572 1.572 0 0 0-0.773-0.988c-1.19-0.56-3.093 0.667-2.379 2.155l3.914 10.441c0.524 1.393 1.023 1.834 2.058 1.834s1.535-0.44 2.058-1.834L23.36 7.299999999999999a1.036 1.036 0 0 0-0.369-1.19C16.46 0.4529999999999994 5.68 4.0009999999999994 3.7169999999999996 12.383z" /></svg>