<svg xmlns="http://www.w3.org/2000/svg" width="100%" height="100%" viewBox="0 0 30.72 30.72"><path d="M26.015 12.078999999999999c-1.802-1.801-4.726-1.801-6.564 0l-7.351 7.35c-0.45 0.45-0.45 1.2 0 1.65 0.45 0.449 1.2 0.449 1.65 0l7.351-7.351c0.899-0.899 2.362-0.899 3.264 0 0.9 0.9 0.9 2.364 0 3.264l-7.239 7.239c0.9 0.899 2.362 0.899 3.263 0l5.589-5.589c1.836-1.838 1.836-4.763 0.037-6.563z m-2.475 2.437c-0.451-0.45-1.201-0.45-1.65 0l-7.354 7.389c-0.9 0.899-2.361 0.899-3.262 0-0.45-0.45-1.2-0.45-1.65 0s-0.45 1.2 0 1.649c1.801 1.801 4.726 1.801 6.564 0l7.351-7.35c0.449-0.487 0.449-1.239 0.001-1.688z m-2.439-7.35c-1.801-1.801-4.726-1.801-6.564 0l-7.351 7.351c-0.45 0.449-0.45 1.199 0 1.649s1.2 0.45 1.65 0l7.395-7.351c0.9-0.899 2.371-0.899 3.27 0 0.451 0.45 1.201 0.45 1.65 0 0.421-0.487 0.421-1.199-0.029-1.649h-0.021z m-2.475 2.437c-0.45-0.45-1.2-0.45-1.65 0l-7.351 7.389c-0.899 0.9-2.363 0.9-3.265 0-0.9-0.899-0.9-2.363 0-3.264l7.239-7.239c-0.9-0.9-2.362-0.9-3.263 0L4.709999999999999 12.078999999999999c-1.8 1.8-1.8 4.725 0 6.563 1.801 1.801 4.725 1.801 6.564 0l7.35-7.351c0.451-0.488 0.451-1.238 0-1.688h0.002z" /></svg>