<svg xmlns="http://www.w3.org/2000/svg" width="100%" height="100%" viewBox="0 0 30.72 30.72"><path d="M26.237 3.3599999999999994v0.738h0.738V3.3599999999999994h-0.738z m0 0.738h-0.738v0.739h0.738V4.097999999999999z m0 0.739v0.738h0.738v-0.738h-0.738z m-0.738 0h-1.477v0.738h-0.738V7.049999999999999h-0.738v0.74h-1.479v0.725A10.572 10.572 0 0 0 14.36 6.129999999999999C8.495999999999999 6.129999999999999 3.744999999999999 10.879999999999999 3.744999999999999 16.744999999999997 3.744999999999999 22.608 8.495999999999999 27.36 14.36 27.36s10.615-4.752 10.615-10.615c0-2.56-0.904-4.906-2.412-6.739h0.72v-0.738h0.74V7.789999999999999h0.737V7.049999999999999h0.739v-0.738H24.759999999999998v-0.738h0.739v-0.738zM22.546 7.049999999999999v-0.738h-0.74v0.738h0.74zM14.36 9.514a7.193 7.193 0 0 1 4.033 1.23h-0.28v0.739h-0.737c-1.927 2.409-2.414 3.466-3.182 5.414-0.871-1.763-1.911-2.978-3.711-3.783l-0.02-0.006c-0.327-0.083-0.493-0.125-0.718 0.19-0.23 0.322-0.092 0.613 0.183 0.955a35.212 35.212 0 0 0 0.586 0.703c0.547 0.646 1.095 1.289 1.508 2.035 0.408 0.738 0.877 1.772 1.242 2.574 0.223 0.49 0.406 0.894 0.51 1.088 0.22 0.406 0.752 0.584 0.955 0.584 0.985-0.117 1.08-0.582 1.242-1.379l0.057-0.264c0.336-1.574 0.771-3.203 2.824-5.158v-0.736h0.738V12.959999999999999h0.74v-0.295a7.193 7.193 0 0 1 1.26 4.08c0 3.99-3.24 7.23-7.23 7.23s-7.2-3.24-7.2-7.23 3.21-7.23 7.2-7.23z" /></svg>