<svg xmlns="http://www.w3.org/2000/svg" width="100%" height="100%" viewBox="0 0 30.72 30.72"><path d="M3.6299999999999994 3.3599999999999994v0.155c0 4.69 3.033 8.751 7.331 10.434v2.736C6.662999999999999 18.35 3.6309999999999993 22.378999999999998 3.6309999999999993 27.128V27.36H7.72v-0.232c0-2.459 1.278-4.623 3.24-5.934V27.36h3.165v-7.384c0.408-0.065 0.82-0.098 1.234-0.1 0.423 0 0.834 0.038 1.235 0.1V27.36h3.165v-6.148c1.925 1.313 3.163 3.469 3.163 5.916V27.36h4.168v-0.232c0-4.691-3.033-8.751-7.331-10.434V13.959999999999999c4.298-1.665 7.33-5.696 7.33-10.446V3.3609999999999993h-4.09v0.154c0 2.458-1.277 4.622-3.24 5.934V3.3599999999999994h-3.165v7.305c-0.408 0.066-0.821 0.1-1.235 0.103a8.11 8.11 0 0 1-1.234-0.103V3.3609999999999993H10.959999999999999V9.43C9.035 8.116999999999999 7.797999999999999 5.962 7.797999999999999 3.5139999999999993V3.3609999999999993z m10.495 11.358c0.82 0.084 1.648 0.084 2.469 0.001v1.205a12.236 12.236 0 0 0-2.47 0z" /></svg>