<svg xmlns="http://www.w3.org/2000/svg" width="100%" height="100%" viewBox="0 0 30.72 30.72"><path d="M20.53 6.405999999999999l-0.063 0.002c-0.067 0-0.133 0.003-0.2 0.006-0.038 0.002-0.078 0.006-0.117 0.01-0.05 0.003-0.1 0.01-0.152 0.015l-0.123 0.015c-0.053 0.008-0.106 0.018-0.16 0.028-0.075 0.014-0.15 0.03-0.224 0.048-0.027 0.008-0.055 0.014-0.083 0.02l-0.174 0.05c-0.01 0.004-0.023 0.007-0.035 0.01-1.054 0.333-1.955 1.055-2.51 2.05-0.015 0.023-0.03 0.047-0.042 0.07-0.01 0.023-0.024 0.043-0.036 0.066l-0.016 0.037c-0.3 0.595-0.47 1.267-0.47 1.978v0.8c-0.207 0-0.373 0.165-0.373 0.37s0.168 0.373 0.373 0.373v2.868c-1.006 0.1-1.976 0.436-2.824 0.98-0.243 0.156-0.475 0.327-0.69 0.508l-0.01 0.01c-0.004 0.003-0.01 0.01-0.014 0.012-0.075 0.07-0.146 0.135-0.217 0.195-0.19 0.162-0.39 0.31-0.6 0.443-0.005 0.003-0.007 0.007-0.01 0.01-0.26 0.16-0.474 0.277-0.678 0.37-0.16 0.07-0.322 0.128-0.494 0.182l-0.067 0.02c-0.017 0.007-0.035 0.012-0.054 0.017-0.505 0.155-1.03 0.235-1.57 0.235-1.39 0-2.685-0.527-3.66-1.44 0.455 0.16 0.935 0.243 1.425 0.243 1.082 0 2.118-0.412 2.904-1.13 0.143 0.684 0.444 1.327 0.878 1.877 0.196-0.06 0.378-0.12 0.553-0.2 0.058-0.026 0.118-0.055 0.178-0.086-0.602-0.676-0.948-1.55-0.96-2.463-0.002-0.16-0.107-0.3-0.26-0.35s-0.32 0.007-0.414 0.136c-0.668 0.92-1.745 1.47-2.88 1.47-0.998 0-1.957-0.424-2.63-1.164-0.113-0.124-0.294-0.157-0.443-0.082s-0.23 0.24-0.198 0.405l0.012 0.055v0.003c0.883 3.818 3.737 6.984 7.446 8.26 0.84 0.29 1.72 0.483 2.613 0.57l0.037 0.002c0.092 0 0.18-0.034 0.25-0.096 0.078-0.07 0.122-0.17 0.122-0.276v-1.985c0-0.94 0.19-1.85 0.57-2.703 0.262-0.588 0.607-1.132 1.027-1.62l-0.407-0.242 0.488 0.147 2.503 0.714c0.132 0.06 0.267 0.115 0.404 0.166v-0.8c-0.63-0.278-1.176-0.684-1.59-1.193v-4.07h0.15v1.01c0 0.733 0.595 1.33 1.328 1.33h0.532c0.69 0 1.258-0.53 1.323-1.202 0.004-0.02 0.007-0.042 0.007-0.064 0-0.18 0.145-0.324 0.324-0.324s0.324 0.145 0.324 0.324c0 0.022 0.003 0.043 0.006 0.064 0.064 0.674 0.633 1.203 1.323 1.203h0.533c0.733 0 1.33-0.596 1.33-1.33v-1.01h0.146v4.072c-0.414 0.508-0.96 0.914-1.59 1.192v0.8c0.138-0.05 0.273-0.106 0.404-0.167l2.502-0.715 0.005 0.006 0.505-0.15-0.42 0.248c0.365 0.428 0.674 0.897 0.92 1.4 0.063 0.13 0.193 0.21 0.335 0.21h0.022c0.15-0.01 0.28-0.108 0.33-0.25 0.103-0.297 0.155-0.61 0.155-0.933 0-1.44-1.04-2.624-2.424-2.84V12.354c0.206 0 0.372-0.167 0.372-0.372s-0.166-0.37-0.372-0.37v-0.8c0-0.265-0.025-0.526-0.07-0.78-0.002-0.006 0-0.012-0.002-0.018l-0.014-0.075-0.005-0.024c-0.172-0.837-0.582-1.6-1.19-2.21-0.268-0.27-0.57-0.504-0.893-0.693-0.033-0.02-0.067-0.036-0.1-0.055l-0.06-0.033c-0.052-0.027-0.103-0.054-0.154-0.078-0.018-0.01-0.036-0.016-0.054-0.025-0.088-0.042-0.177-0.08-0.266-0.114-0.036-0.014-0.07-0.028-0.108-0.04-0.04-0.016-0.082-0.03-0.123-0.043-0.044-0.014-0.09-0.028-0.134-0.04-0.037-0.012-0.074-0.022-0.11-0.032-0.078-0.02-0.156-0.04-0.236-0.055-0.025-0.005-0.05-0.01-0.075-0.013-0.06-0.01-0.122-0.022-0.183-0.03-0.035-0.006-0.07-0.01-0.107-0.015l-0.157-0.016-0.11-0.008c-0.06-0.004-0.122-0.005-0.183-0.006l-0.072-0.003z m3.14 1.814s-0.076 0.077-0.214 0.21c-0.068 0.067-0.156 0.143-0.254 0.232-0.098 0.09-0.214 0.185-0.34 0.29-0.09 0.07-0.19 0.145-0.29 0.22 0.36 0.723 0.945 1.193 1.602 1.274 0.012 0.12 0.018 0.243 0.018 0.366v0.798h-2.615c-0.046-0.153-0.186-0.266-0.355-0.266H19.84c-0.168 0-0.31 0.113-0.355 0.266H16.869999999999997v-0.798c0-0.398 0.064-0.78 0.182-1.14 0.117 0.112 0.243 0.212 0.378 0.3 0.04 0.02 0.12 0.063 0.242 0.116 0.173 0.077 0.43 0.162 0.746 0.21 0.158 0.024 0.33 0.037 0.514 0.038 0.045 0 0.094 0 0.136-0.003l0.145-0.01c0.1-0.003 0.193-0.02 0.29-0.03s0.2-0.035 0.3-0.052c0.1-0.02 0.2-0.048 0.302-0.07 0.1-0.03 0.202-0.06 0.303-0.092 0.1-0.036 0.202-0.07 0.3-0.108 0.2-0.076 0.398-0.16 0.588-0.252l0.28-0.14 0.272-0.145c0.175-0.1 0.344-0.198 0.5-0.297 0.08-0.047 0.155-0.1 0.23-0.146s0.144-0.092 0.21-0.14c0.132-0.093 0.258-0.173 0.364-0.252 0.107-0.078 0.203-0.143 0.277-0.202 0.15-0.115 0.24-0.178 0.24-0.178z m-3.46 3.87h0.64v0.212h-0.64V12.09z m-2.45 0.265h1.7v1.01c0 0.323-0.262 0.585-0.584 0.585h-0.532c-0.323 0-0.585-0.262-0.585-0.585v-1.01z m3.84 0h1.7v1.01c0 0.323-0.262 0.585-0.585 0.585h-0.532c-0.323 0-0.585-0.262-0.585-0.585v-1.01z m-2.99 0.16c-0.234 0-0.424 0.19-0.424 0.424s0.19 0.424 0.425 0.424 0.426-0.19 0.426-0.425c0-0.07-0.018-0.132-0.046-0.19-0.04 0.05-0.1 0.083-0.166 0.083-0.117 0-0.213-0.095-0.213-0.213 0-0.038 0.012-0.073 0.03-0.103l-0.03-0.003z m3.84 0c-0.234 0-0.425 0.19-0.425 0.424s0.19 0.424 0.425 0.424 0.425-0.19 0.425-0.425c0-0.07-0.017-0.132-0.046-0.19-0.04 0.05-0.1 0.083-0.168 0.083-0.117 0-0.213-0.095-0.213-0.213 0-0.038 0.01-0.073 0.027-0.103-0.01 0-0.02-0.003-0.028-0.003z m-3.436 4.356c-0.066 0.006-0.13 0.03-0.186 0.068-0.1 0.07-0.158 0.183-0.158 0.304v2.02c0 0.12 0.06 0.235 0.158 0.304 0.064 0.045 0.14 0.068 0.215 0.068 0.042 0 0.084-0.007 0.125-0.022l1.364-0.487 1.364 0.487c0.04 0.015 0.083 0.022 0.125 0.022 0.077 0 0.152-0.023 0.216-0.068 0.1-0.07 0.158-0.183 0.158-0.304v-2.02c0-0.12-0.06-0.235-0.158-0.304s-0.225-0.087-0.34-0.046l-1.363 0.487-1.363-0.488c-0.03-0.01-0.058-0.017-0.087-0.02-0.022-0.002-0.044-0.003-0.066 0z m0.4 0.9l0.744 0.266v0.432l-0.744 0.266v-0.964z m2.233 0v0.964l-0.744-0.266v-0.432l0.744-0.266z" /></svg>