<svg xmlns="http://www.w3.org/2000/svg" width="100%" height="100%" viewBox="0 0 30.72 30.72"><path d="M15.36 3.9599999999999995c-2.167 0-4.264 0.667-6.019 1.888a32.768 32.768 0 0 1-2.167-0.48A12.262 12.262 0 0 0 3.3599999999999994 11.975a32.75 32.75 0 0 1 1.5 1.636c-0.3705 4.3908 2.0301 8.5486 6.018 10.423 0.247 0.699 0.47 1.404 0.668 2.117a12.266 12.266 0 0 0 7.629 0c0.197-0.713 0.42-1.419 0.667-2.118 3.9876-1.8737 6.3882-6.0307 6.018-10.421 0.482-0.563 0.982-1.11 1.5-1.636a12.261 12.261 0 0 0-3.814-6.609c-0.716 0.185-1.439 0.345-2.167 0.481A10.535 10.535 0 0 0 15.36 3.9599999999999995z m0 0.642c1.806 0 3.562 0.494 5.086 1.407a32.724 32.724 0 0 1-10.172 0A9.896 9.896 0 0 1 15.36 4.601999999999999zM7.353999999999999 6.074999999999999c0.431 0.107 0.865 0.204 1.301 0.293a10.537 10.537 0 0 0-3.687 6.387c-0.295-0.332-0.597-0.659-0.904-0.98a11.619 11.619 0 0 1 3.29-5.7z m16.012 0a11.62 11.62 0 0 1 3.29 5.7c-0.307 0.321-0.609 0.648-0.904 0.98a10.537 10.537 0 0 0-3.687-6.387c0.436-0.089 0.87-0.186 1.301-0.293z m-13.873 0.454a33.353 33.353 0 0 0 11.734 0 9.885 9.885 0 0 1 3.966 6.873 33.352 33.352 0 0 0-5.866 10.16 9.89 9.89 0 0 1-7.935 0 33.367 33.367 0 0 0-5.866-10.16 9.895 9.895 0 0 1 3.967-6.873z m6.018 0.867a0.662 0.662 0 0 0-0.448 1.132 0.652 0.652 0 0 0-0.971 0.573 0.652 0.652 0 0 0 1.03 0.535c-0.241 0.404-0.606 0.944-1.13 0.944-0.547 0-0.811-0.228-1.052-0.633a0.548 0.548 0 0 0 0.318-0.021c0.316-0.105 0.493-0.423 0.404-0.823-0.079-0.354-0.456-0.55-0.799-0.45a0.637 0.637 0 0 0-0.291 0.18 0.698 0.698 0 0 0 0.064-0.519c-0.098-0.349-0.512-0.628-0.873-0.574l1.415 3.475c-0.073 0.078-0.18 0.196-0.256 0.329-0.302-0.153-0.909-0.379-1.514-0.135a1.553 1.553 0 0 0-0.522 0.349c-0.45 0.45-0.676 1.2-0.793 1.731a8.3307 8.3307 0 0 0-0.08 0.415c0.188-0.141 0.31-0.23 0.424-0.306 0.102-0.068 0.2-0.124 0.336-0.194 0.247-0.127 0.583-0.264 0.886-0.264 0.163 0 0.347 0.043 0.472 0.148 0.045 0.037 0.405 0.543 1.114 0.729 0.666 0.175 0.68 0.287 0.69 0.377 0 0-0.116 0.19-0.367 0.365a2.685 2.685 0 0 0-0.346-0.445c-0.331-0.346-0.862-0.532-1.296-0.529-0.413 0.004-0.718 0.192-1.526 0.192-0.82 0-1.39-0.207-1.81-0.454-0.302-0.164-0.52-0.37-0.723-0.535 0.108 0.263 0.213 0.472 0.307 0.684 0.07 0.151 0.327 0.667 0.648 0.947 0.413 0.35 0.822 0.465 1.224 0.465 0.408 0 0.81-0.119 1.206-0.236 0.39-0.116 0.766-0.228 1.142-0.228 0.487 0 0.752 0.163 0.964 0.294a6.196 6.196 0 0 1-0.225 0.15c-0.3 0.191-0.539 0.262-0.771 0.262-0.286 0-0.801-0.15-1.25-0.33a1.2368 1.2368 0 0 0-0.006 0.102v0.116c0 0.253 0.041 0.557 0.326 0.85 0.123 0.125 0.275 0.222 0.454 0.29 0.187 0.07 0.407 0.105 0.646 0.117-0.109 0.1-0.211 0.194-0.31 0.316-0.24 0.296-0.435 0.692-0.435 1.202 0 0.262 0.046 0.481 0.111 0.691 0.047 0.149 0.093 0.284 0.157 0.445l0.212-0.255c0.004-0.004 0.236-0.278 0.555-0.51a2.98 2.98 0 0 0-0.326 1.325c0 1.012 0.563 1.834 1.332 2.48 0 0 0.183 0.163 0.312 0.263-0.003-0.162 0-0.267 0-0.408 0-0.493 0.08-1.448 0.405-2.025 0.035 0.135 0.075 0.334 0.11 0.558 0.045 0.298 0.081 0.641 0.081 0.94 0 0.496-0.072 0.863-0.156 1.127-0.098 0.304-0.18 0.42-0.255 0.547a3.34 3.34 0 0 0 0.882-0.09 2.3 2.3 0 0 0 1.72-1.555c0.09-0.283 0.136-0.596 0.136-0.94 0-0.198-0.018-0.403-0.046-0.603l-0.024-0.16c0.055 0.044 0.093 0.085 0.14 0.138 0.18 0.207 0.343 0.524 0.343 1.036 0 0.175-0.01 0.445-0.084 0.749 0.174-0.058 0.351-0.163 0.52-0.27 0.204-0.13 0.397-0.284 0.572-0.46 0.48-0.48 0.811-1.117 0.818-1.845 0.005-0.475-0.096-0.855-0.32-1.299-0.024-0.048-0.052-0.097-0.077-0.146 0.052 0.022 0.101 0.05 0.147 0.08 0.255 0.164 0.42 0.424 0.53 0.718 0.066 0.177 0.114 0.35 0.147 0.554 0.074-0.09 0.162-0.212 0.262-0.385 0.201-0.348 0.414-0.883 0.414-1.647 0-0.375-0.049-0.806-0.22-1.255a2.883 2.883 0 0 0-0.85-1.202c0.2643 0.0287 0.511 0.146 0.7 0.333 0.125 0.126 0.223 0.28 0.313 0.452l0.095 0.19c0.009-0.093 0.008-0.123 0.01-0.204-0.02-1.351-0.397-2.34-1.626-2.978l-0.007-0.004c0.43-0.488 0.638-1.038 0.783-1.63-0.296-0.075-0.843-0.138-1.673 0.25l1.32-3.254c-0.362-0.054-0.775 0.225-0.873 0.574a0.695 0.695 0 0 0 0.065 0.519 0.642 0.642 0 0 0-0.292-0.181c-0.343-0.1-0.72 0.097-0.8 0.451-0.088 0.4 0.089 0.718 0.405 0.822 0.134 0.04 0.177 0.045 0.318 0.021-0.241 0.405-0.494 0.629-1.041 0.629-0.524 0-0.892-0.535-1.133-0.94 0 0 0.246 0.122 0.385 0.122a0.651 0.651 0 0 0 0.645-0.657 0.652 0.652 0 0 0-0.645-0.658 0.634 0.634 0 0 0-0.33 0.093 0.694 0.694 0 0 0 0.202-0.481 0.651 0.651 0 0 0-0.645-0.658z m3.608 3.585h0.147l-0.047 0.14c-0.151 0.447-0.629 1.516-1.802 1.779l0.005 0.022 0.05 0.247c0.497-0.092 0.817-0.303 1.107-0.555 0.742 0.361 1.242 0.961 1.42 1.76l0.034 0.157a0.668 0.668 0 0 0-0.114-0.1 1.345 1.345 0 0 0-0.719-0.194c-0.262 0-0.489 0.063-0.602 0.102 0.186 0.159 0.337 0.297 0.471 0.431 0.41 0.411 0.677 0.803 0.837 1.235 0.12 0.326 0.18 0.67 0.18 1.048 0 0.403-0.072 0.772-0.213 1.098-0.011 0.026-0.04 0.092-0.052 0.127a0.706 0.706 0 0 0-0.044-0.126c-0.341-0.72-0.91-0.872-1.328-0.872-0.07 0-0.13 0.004-0.184 0.008l0.006 0.01c0.278 0.428 0.698 1.075 0.698 1.87 0 0.26-0.048 0.516-0.142 0.759a2.4 2.4 0 0 1-0.55 0.83c-0.118 0.117-0.222 0.214-0.397 0.333l-0.1 0.071a0.465 0.465 0 0 0 0.02-0.12c0.024-0.897-0.475-1.61-1.272-1.827l0.018 0.076c0.087 0.353 0.186 0.752 0.186 1.292 0 0.583-0.145 1.066-0.43 1.436a1.954 1.954 0 0 1-0.688 0.556 2.23 2.23 0 0 1-0.652 0.219l-0.109 0.018c0.011-0.014 0.034-0.063 0.045-0.087a1.0898 1.0898 0 0 0 0.054-0.161c0.124-0.455 0.127-1.001 0.127-1.069 0-0.845-0.21-1.618-0.336-2.08l-0.026-0.098c-0.1 0.074-0.166 0.14-0.211 0.186l-0.02 0.021c-0.263 0.263-0.455 0.723-0.57 1.367-0.035 0.197-0.052 0.362-0.07 0.537l-0.013 0.195-0.003 0.121s-0.072-0.08-0.09-0.098a4.643 4.643 0 0 1-0.188-0.204 3.207 3.207 0 0 1-0.483-0.71 2.495 2.495 0 0 1-0.177-0.482 2.302 2.302 0 0 1-0.07-0.561c0-1.062 0.641-1.774 0.918-2.058l-0.09 0.016a3.31 3.31 0 0 0-0.326 0.08 2.172 2.172 0 0 0-0.546 0.252 3.171 3.171 0 0 0-0.603 0.513s-0.018-0.083-0.021-0.107a2.518 2.518 0 0 1-0.04-0.391c0-0.441 0.168-0.833 0.5-1.163 0.312-0.313 0.551-0.413 1.265-0.712l0.218-0.091-0.314 0.043c-0.438 0.062-0.638 0.09-1.009 0.09-0.525 0-0.887-0.107-1.106-0.327a0.75 0.75 0 0 1-0.123-0.158 1.549 1.549 0 0 1-0.117-0.243l0.272 0.099c0.054 0.017 0.117 0.036 0.17 0.05a1.9 1.9 0 0 0 0.49 0.07c0.444 0 0.804-0.194 1.24-0.508 0.182-0.13 0.336-0.258 0.456-0.378 0.182-0.182 0.221-0.28 0.222-0.297-0.008-0.269-0.016-0.523-0.951-0.768a1.782 1.782 0 0 1-0.913-0.59 0.8119 0.8119 0 0 0-0.063-0.068 1.046 1.046 0 0 0-0.682-0.229c-0.196 0-0.409 0.043-0.651 0.132a4.7942 4.7942 0 0 0-0.395 0.166l-0.108 0.05 0.036-0.113c0.04-0.132 0.085-0.252 0.144-0.391 0.05-0.118 0.1-0.22 0.156-0.314 0.184-0.31 0.412-0.522 0.676-0.629 0.138-0.056 0.288-0.084 0.447-0.084 0.385 0 0.732 0.167 0.875 0.247 0.01 0.71 0.438 1.12 0.93 1.12a0.856 0.856 0 0 0 0.643-0.275c0.121-0.122 0.196-0.258 0.244-0.366 0.039-0.087 0.067-0.15 0.07-0.2l0.005 0.001a0.496 0.496 0 0 1 0.211 0.132l0.236-0.21a1.118 1.118 0 0 0-0.401-0.264 1.424 1.424 0 0 0-0.464-0.098 1.68 1.68 0 0 0-0.36 0.026c-0.123 0.02-0.222 0.048-0.396 0.048a0.693 0.693 0 0 1-0.358-0.09 1.73 1.73 0 0 1 0.525-0.535l0.006-0.004h3.817l0.074 0.003a3.287 3.287 0 0 0-0.747 0.655l0.215 0.17c0.498-0.622 1.272-1.01 2.02-1.01v0.001z m-0.457 0.494c-0.621 0.08-1.182 0.635-1.182 0.635l0.127 0.27c0.293-0.062 0.521-0.22 0.69-0.389 0.248-0.248 0.347-0.437 0.365-0.516z m-5.542 0.543l0.138 0.038c0.055 0.016 0.132 0.032 0.207 0.042l0.036 0.006 0.007 0.035a0.27 0.27 0 0 0 0.072 0.144 0.302 0.302 0 0 0 0.43 0 0.297 0.297 0 0 0 0.088-0.196l0.002-0.048 0.047-0.002a2.6025 2.6025 0 0 1 0.22 0l0.117 0.008-0.018 0.07a0.852 0.852 0 0 1-0.228 0.425 0.609 0.609 0 0 1-0.469 0.192 0.578 0.578 0 0 1-0.41-0.175 0.81 0.81 0 0 1-0.219-0.43l-0.02-0.109z m4.513 1.49l-0.133 0.416c0.085 0.098 0.148 0.19 0.2 0.267 0.146 0.214 0.238 0.41 0.29 0.614 0.05 0.2 0.056 0.392 0.056 0.57 0 0.142-0.015 0.285-0.046 0.425-0.022 0.101-0.053 0.21-0.079 0.293-0.024 0.08-0.079 0.226-0.079 0.226s-0.008-0.165-0.023-0.255-0.029-0.186-0.053-0.264a1.437 1.437 0 0 0-0.353-0.604 1.41 1.41 0 0 0-0.35-0.253 1.821 1.821 0 0 0-0.284-0.118c0.022 0.083 0.045 0.173 0.07 0.28 0.064 0.276 0.093 0.504 0.093 0.716 0 0.337-0.075 0.622-0.232 0.871a1.323 1.323 0 0 1-0.187 0.234 2.039 2.039 0 0 1-0.386 0.316c0.036-0.06 0.065-0.122 0.1-0.193 0.042-0.087 0.068-0.18 0.087-0.248 0.186-0.657-0.121-1.063-0.37-1.312a2.3783 2.3783 0 0 0-0.103-0.098c-0.004 0.092-0.008 0.184-0.014 0.277-0.022 0.318-0.08 0.68-0.35 0.948a1.942 1.942 0 0 1-0.139 0.13c-0.052 0.042-0.111 0.092-0.19 0.14 0.033-0.064 0.06-0.096 0.11-0.218a0.97 0.97 0 0 0-0.029-0.78l-0.34 0.183c0.01 0.025 0.017 0.052 0.024 0.076a0.71 0.71 0 0 1-0.086 0.577c-0.05 0.08-0.115 0.16-0.204 0.25-0.079 0.077-0.162 0.152-0.235 0.218l-0.156 0.141 0.139-0.001c0.15-0.002 0.35-0.01 0.563-0.047 0.34-0.062 0.605-0.192 0.813-0.4a1.34 1.34 0 0 0 0.218-0.287c-0.01 0.11-0.037 0.222-0.084 0.34a2.265 2.265 0 0 1-0.239 0.436c-0.065 0.095-0.138 0.2-0.232 0.315l-0.086 0.105 0.134-0.02c0.162-0.023 0.323-0.056 0.48-0.098a1.742 1.742 0 0 0 1.078-0.777c0.1-0.158 0.172-0.323 0.218-0.504a2.35 2.35 0 0 0 0.066-0.696c0.03 0.052 0.057 0.109 0.083 0.172 0.054 0.136 0.09 0.29 0.11 0.47 0.01 0.112 0.016 0.235 0.016 0.385v0.03c0 0.144 0 0.281-0.011 0.436l-0.011 0.152 0.103-0.112c0.134-0.147 0.279-0.315 0.427-0.55a2.543 2.543 0 0 0 0.332-1.978 2.31 2.31 0 0 0-0.359-0.76 3.15 3.15 0 0 0-0.349-0.417l-0.018-0.019z m-3.275 0.165a0.5 0.5 0 0 0-0.215 0.049c0.273 0.029 0.341 0.113 0.467 0.238 0.066 0.067 0.129 0.138 0.194 0.204 0.12 0.12 0.231 0.219 0.436 0.219a0.613 0.613 0 0 0 0.157-0.022 0.981 0.981 0 0 0 0.305-0.141 0.528 0.528 0 0 1-0.203 0.041c-0.511 0-0.663-0.588-1.14-0.588h-0.001z m-5.83 0.1c0.06 0.038 0.186 0.127 0.365 0.2 0.167 0.07 0.343 0.135 0.55 0.184 0.278 0.065 0.586 0.097 0.94 0.097 0.326 0 0.717-0.052 1.162-0.153 0.143-0.032 0.292-0.062 0.413-0.062 0.215 0 0.424 0.035 0.578 0.116 0.153 0.082 0.261 0.17 0.395 0.279a2.71 2.71 0 0 0-0.48-0.071c-0.143-0.01-0.34 0.003-0.465 0.022-0.28 0.041-0.525 0.114-0.783 0.19l-0.03 0.01c-0.39 0.115-0.759 0.224-1.123 0.224-0.422 0-0.803-0.157-1.101-0.455-0.065-0.065-0.171-0.17-0.242-0.27a1.994 1.994 0 0 1-0.179-0.31v-0.001z m-3.061 0.567a32.694 32.694 0 0 1 5.084 8.805 9.895 9.895 0 0 1-5.086-8.647c0-0.054 0-0.106 0.002-0.158z m19.786 0l0.002 0.157a9.895 9.895 0 0 1-5.086 8.648 32.665 32.665 0 0 1 5.085-8.805h-0.001zM11.673 24.367a10.535 10.535 0 0 0 7.375 0c-0.14 0.423-0.273 0.847-0.396 1.274a11.616 11.616 0 0 1-6.583 0 33.2233 33.2233 0 0 0-0.397-1.273l0.001-0.001z" /></svg>