<svg xmlns="http://www.w3.org/2000/svg" width="100%" height="100%" viewBox="0 0 30.72 30.72"><path d="M27.3077 14.251299999999999a0.1735 0.1735 0 0 0-0.061-0.1178c-2.5032-2.078-4.5288-2.9261-6.9905-2.9261-1.3127 0-2.32 0.2638-2.9916 0.7827-0.5822 0.4492-0.8896 1.0772-0.8896 1.812 0 2.0605 2.5184 3.0003 5.4358 4.0883 1.5023 0.5604 3.057 1.1404 4.483 1.9319a0.1626 0.1626 0 0 0 0.0828 0.0218 0.187 0.187 0 0 0 0.0589-0.011c0.0458-0.0174 0.085-0.0523 0.1025-0.1002 0.545-1.3955 0.822-2.8673 0.822-4.374a13.082 13.082 0 0 0-0.0523-1.1076z m-4.81 10.4791c-1.0423-0.785-2.5795-1.3824-4.2061-2.0125-1.9362-0.7501-4.132-1.6027-5.7803-2.913-1.8665-1.4871-2.7757-3.3623-2.7757-5.7324 0-2.1281 0.883-3.9466 2.5533-5.2614 1.873-1.474 4.7119-2.2546 8.2071-2.2546 0.966 0 1.8883 0.0589 2.743 0.1766a0.1696 0.1696 0 0 0 0.1788-0.098 0.17 0.17 0 0 0-0.0414-0.2007C21.174 4.452399999999999 18.3264 3.3621999999999996 15.360999999999999 3.3621999999999996c-3.2052 0-6.2186 1.2472-8.4862 3.5148C4.609399999999999 9.142499999999998 3.3599999999999994 12.155999999999999 3.3599999999999994 15.359c0 3.2051 1.2472 6.2185 3.5149 8.484 2.2654 2.2654 5.2788 3.5148 8.4862 3.5148 2.5903 0 5.0564-0.8133 7.1344-2.3505a0.1714 0.1714 0 0 0 0.0697-0.1374 0.1735 0.1735 0 0 0-0.0676-0.1395Z" /></svg>