<svg xmlns="http://www.w3.org/2000/svg" width="100%" height="100%" viewBox="0 0 30.72 30.72"><path d="M24.063 6.529999999999999c-2.217-3.193-6.63-4.129-9.804-2.095l-5.594 3.56A6.357 6.357 0 0 0 5.779999999999999 12.286a6.659 6.659 0 0 0 0.671 4.332 6.14 6.14 0 0 0-0.956 2.4 6.843 6.843 0 0 0 1.16 5.166c2.237 3.193 6.63 4.13 9.803 2.115l5.593-3.56a6.357 6.357 0 0 0 2.888-4.29 6.659 6.659 0 0 0-0.67-4.332 6.14 6.14 0 0 0 0.955-2.4c0.325-1.83-0.081-3.702-1.16-5.187M13.709999999999999 24.49a4.433 4.433 0 0 1-4.759-1.77 4.119 4.119 0 0 1-0.712-3.112c0.04-0.183 0.082-0.346 0.122-0.53l0.102-0.324 0.285 0.203a7.419 7.419 0 0 0 2.196 1.099l0.204 0.06-0.02 0.204c-0.021 0.285 0.06 0.59 0.223 0.834 0.325 0.468 0.895 0.69 1.444 0.549a1.73 1.73 0 0 0 0.346-0.142l5.573-3.56c0.284-0.183 0.468-0.447 0.529-0.773a1.262 1.262 0 0 0-0.204-0.935 1.335 1.335 0 0 0-1.444-0.53 1.73 1.73 0 0 0-0.346 0.143l-2.115 1.343a3.783 3.783 0 0 1-1.14 0.488 4.433 4.433 0 0 1-4.759-1.77 4.108 4.108 0 0 1-0.69-3.111 3.85 3.85 0 0 1 1.748-2.583l5.573-3.56a4.427 4.427 0 0 1 1.14-0.508 4.433 4.433 0 0 1 4.759 1.77 4.12 4.12 0 0 1 0.71 3.111 4.71 4.71 0 0 1-0.141 0.529l-0.102 0.325-0.284-0.203a7.419 7.419 0 0 0-2.197-1.098l-0.203-0.061 0.02-0.204c0.02-0.284-0.061-0.59-0.224-0.834a1.335 1.335 0 0 0-1.444-0.528 1.76 1.76 0 0 0-0.346 0.142l-5.572 3.58a1.153 1.153 0 0 0-0.53 0.772c-0.06 0.326 0.021 0.672 0.204 0.936 0.326 0.468 0.895 0.67 1.444 0.529a1.76 1.76 0 0 0 0.346-0.143l2.136-1.362a4.427 4.427 0 0 1 1.139-0.51 4.433 4.433 0 0 1 4.759 1.77c0.65 0.896 0.895 2.014 0.712 3.113a3.85 3.85 0 0 1-1.75 2.583L14.87 23.98a4.9 4.9 0 0 1-1.16 0.508" /></svg>