<svg xmlns="http://www.w3.org/2000/svg" width="100%" height="100%" viewBox="0 0 30.72 30.72"><path d="M20.457 16.704c0.143-0.37 0.06-2.117-0.222-4.675l-0.004-0.04 0.904-2.431v-0.05c0-1.06-1.374-3.9-2.186-5.41L18.552 3.3599999999999994l-0.84 5.854-0.503 0.829-0.125-0.042c-0.351-0.118-1.042-0.316-1.728-0.316-0.65 0-1.294 0.171-1.72 0.315l-0.125 0.042-0.504-0.827L12.167 3.3599999999999994l-0.396 0.737c-0.812 1.51-2.186 4.35-2.186 5.411v0.05l0.904 2.432-0.004 0.039c-0.283 2.558-0.366 4.305-0.222 4.674 0.13 0.332 0.642 1.041 1.072 1.605l-0.619 5.724 0.617 0.442 0.576-5.329c0.012 0.414 0.064 1.277 0.275 2.068l-0.389 3.592L15.36 27.36l4.279-3.067 0.375-0.268-0.62-5.73c0.428-0.561 0.934-1.262 1.063-1.591zM18.95 5.6579999999999995c0.694 1.408 1.421 3.08 1.471 3.779l-0.388 1.045c-0.935-1.31-1.228-3.441-1.253-3.636z m-1.124 7.8c0.84 0 0.212 0.712 0.138 0.792h-1.587c0.144-0.18 0.69-0.792 1.45-0.792z m-0.452 1.468a0.178 0.178 0 0 1-0.175 0.153 0.292 0.292 0 1 0 0.441-0.31h0.504v0.024a0.662 0.662 0 0 1-1.325 0v-0.025h0.511l-0.008 0.007c0.039 0.038 0.06 0.093 0.052 0.15zM15.75 22.65c0.097 0.064 0.2 0.115 0.306 0.156-0.168 0.19-0.399 0.287-0.697 0.287-0.299 0-0.53-0.097-0.697-0.288 0.107-0.04 0.21-0.092 0.306-0.156a0.573 0.573 0 0 0 0.391 0.114c0.103 0 0.255 0 0.391-0.113z m-2.62-7.724a0.178 0.178 0 0 1-0.174 0.153 0.292 0.292 0 1 0 0.441-0.31h0.504v0.024a0.662 0.662 0 0 1-1.326 0v-0.025h0.511l-0.008 0.007c0.039 0.038 0.06 0.093 0.052 0.15z m-0.374-0.676c-0.074-0.08-0.702-0.792 0.138-0.792 0.759 0 1.305 0.612 1.45 0.792zM10.308 9.437c0.05-0.699 0.778-2.37 1.471-3.78l0.185 1.29c-0.07 0.48-0.393 2.37-1.257 3.56zM12.833 21.45c-0.373-1.02-0.377-2.446-0.377-2.507v-0.097l-0.06-0.076c-0.551-0.683-1.477-1.9-1.616-2.257l-0.005-0.014c-0.124-0.43 0.1-2.997 0.268-4.513l0.008-0.066-0.187-0.502 0.07-0.075c0.476-0.497 0.88-1.213 1.203-2.126L12.36 8.582999999999998l0.118 0.82 0.807 1.326 0.22-0.094c0.009-0.004 0.934-0.4 1.851-0.4H15.36v0.44h-0.004c-0.812 0-1.669 0.36-1.677 0.363l-0.571 0.246-0.797-1.308c-0.27 0.62-0.585 1.137-0.94 1.543l0.129 0.347-0.019 0.169c-0.24 2.156-0.348 4.044-0.285 4.332 0.086 0.2 0.523 0.812 1 1.437l0.748-0.218 1.17-1.334 0.184 3.458c-0.011 0.015-0.28 0.393-0.28 0.609 0 0.235 0.344 0.541 0.685 0.786 0.005-0.01 0.007-0.02 0.013-0.03 0.12-0.212 0.275-0.251 0.346-0.087 0.04 0.092 0.028 0.369 0.028 0.369l0.005 0.002v0.328c-0.013 0.027-0.302 0.674-1.014 0.674-0.275 0-0.948-0.089-1.248-0.911z m2.536 2.409c-0.527 0-1.297-0.257-1.374-0.952 0.029 0.001 0.057 0.003 0.086 0.003 0.06 0 0.119-0.003 0.177-0.01 0.235 0.455 0.665 0.6 1.102 0.6 0.436 0 0.865-0.146 1.1-0.6 0.059 0.007 0.119 0.01 0.18 0.01 0.029 0 0.057-0.002 0.085-0.003-0.076 0.695-0.835 0.952-1.356 0.952z m2.956-5.09l-0.061 0.077v0.097c0 0.06-0.004 1.487-0.377 2.507-0.3 0.822-0.973 0.91-1.248 0.91-0.71 0-1.002-0.658-1.014-0.686V21.36l0.005-0.004s-0.012-0.276 0.028-0.368c0.07-0.164 0.226-0.126 0.346 0.088 0.006 0.009 0.009 0.02 0.013 0.03 0.34-0.246 0.686-0.552 0.686-0.787 0-0.216-0.269-0.593-0.28-0.61l0.183-3.457 1.17 1.334 1.2 0.35c-0.23 0.304-0.463 0.6-0.651 0.834z m-8.472-1.907c-0.22-0.563-0.022-2.916 0.187-4.817l-0.895-2.409v-0.128c0-0.312 0.095-0.734 0.246-1.207-1.177 0.253-1.808 0.49-1.808 0.49v12.996l2.67 1.914 0.577-5.332c-0.538-0.718-0.868-1.226-0.977-1.507z m3.853-7.346c0.446-0.136 1.042-0.27 1.65-0.27 0.61 0 1.21 0.135 1.658 0.27l0.276-0.453 0.184-1.288s-1.288-0.068-2.103-0.068c-0.759 0-1.467 0.026-2.125 0.07l0.184 1.286z m7.623-1.217c0.151 0.474 0.247 0.896 0.247 1.21v0.127l-0.895 2.409c0.208 1.901 0.406 4.253 0.186 4.818-0.109 0.279-0.435 0.782-0.968 1.493l0.578 5.337 2.66-1.906V8.792s-0.632-0.24-1.808-0.493Z" /></svg>