<svg xmlns="http://www.w3.org/2000/svg" width="100%" height="100%" viewBox="0 0 30.72 30.72"><path d="M15.36 3.3599999999999994C8.733 3.3599999999999994 3.3599999999999994 8.733 3.3599999999999994 15.36s5.373 12 12 12 12-5.373 12-12S21.987 3.3599999999999994 15.36 3.3599999999999994z m7.928 4.966l0.042 0.876-0.916 0.157c-0.705 0.194-1.32 0.465-1.843 0.813s-0.966 0.73-1.33 1.148a6.147 6.147 0 0 0-0.888 1.339l-0.016 0.036c-0.243 0.506-0.459 1.04-0.65 1.599a4.992 4.992 0 0 1 1.31-0.812l0.033-0.012c0.521-0.223 1.141-0.335 1.864-0.335 0.839 0 1.543 0.296 2.111 0.884s0.853 1.355 0.853 2.298c0 1.409-0.541 2.628-1.624 3.659s-2.414 1.547-3.992 1.547c-1.255 0-2.256-0.374-3.003-1.122s-1.12-1.743-1.12-2.981c0-2.363 0.84-4.387 2.52-6.073s3.895-2.692 6.65-3.023zM11.285 12.463c0.435 0 0.838 0.027 1.211 0.081 0.388 0.055 0.739 0.159 1.065 0.307l-0.024-0.01c0.286 0.13 0.524 0.322 0.705 0.56l0.003 0.004c0.169 0.232 0.252 0.513 0.252 0.844s-0.118 0.614-0.356 0.852c-0.237 0.238-0.549 0.356-0.933 0.356-0.332 0-0.607-0.091-0.828-0.272s-0.399-0.394-0.537-0.642c-0.137-0.253-0.247-0.516-0.327-0.784s-0.146-0.493-0.197-0.674c-0.401 0.024-0.765 0.178-1.094 0.459s-0.495 0.629-0.495 1.046c0 0.253 0.039 0.452 0.116 0.596s0.184 0.265 0.311 0.358l0.003 0.002c0.162 0.115 0.348 0.217 0.544 0.296l0.018 0.006c0.151 0.069 0.431 0.177 0.714 0.279l0.132 0.041c0.778 0.288 1.365 0.635 1.76 1.038 0.321 0.328 0.509 0.742 0.569 1.241-0.008-0.117 0.117 1.109 0.018 0.183 0.002 0.056 0.006 0.113 0.006 0.171 0 0.433-0.097 0.847-0.289 1.245s-0.464 0.728-0.818 0.992a4.26 4.26 0 0 1-1.336 0.646l-0.03 0.007c-0.516 0.147-1.172 0.221-1.967 0.221-0.722 0-1.318-0.061-1.789-0.184s-0.845-0.282-1.12-0.474c-0.281-0.193-0.473-0.398-0.575-0.617s-0.155-0.425-0.155-0.617c0-0.349 0.125-0.655 0.373-0.916s0.58-0.391 0.991-0.391c0.344 0 0.631 0.092 0.863 0.278 0.236 0.193 0.43 0.426 0.574 0.691l0.006 0.012c0.136 0.244 0.259 0.528 0.352 0.824l0.009 0.032c0.035 0.09 0.106 0.322 0.172 0.556l0.034 0.139c0.647 0 1.137-0.144 1.469-0.436s0.498-0.691 0.498-1.196c0-0.222-0.05-0.408-0.15-0.558s-0.234-0.283-0.399-0.398c-0.166-0.108-0.377-0.213-0.635-0.315s-0.513-0.198-0.765-0.289c-0.693-0.246-1.24-0.587-1.644-1.023s-0.605-0.978-0.605-1.628v-0.013c0-0.391 0.093-0.76 0.259-1.087l-0.006 0.014c0.17-0.34 0.434-0.654 0.794-0.944 0.355-0.276 0.804-0.496 1.348-0.661s1.179-0.249 1.906-0.249z m8.017 1.874c-0.329 0-0.64 0.066-0.933 0.199s-0.605 0.397-0.934 0.792c-0.04 0.183-0.109 0.534-0.21 1.055s-0.152 1.162-0.152 1.923c0 0.778 0.123 1.384 0.365 1.82s0.566 0.655 0.968 0.655c0.626 0 1.168-0.432 1.628-1.295h0.002c0.46-0.864 0.69-1.912 0.69-3.144 0-0.618-0.134-1.108-0.402-1.468s-0.608-0.538-1.022-0.538z" /></svg>