<svg xmlns="http://www.w3.org/2000/svg" width="100%" height="100%" viewBox="0 0 30.72 30.72"><path d="M21.669999999999998 3.3599999999999994l-0.35 0.01c-1.55 0.13-2.46 1.2-2.6 2.28-0.15 1.2 0.65 2.4 2.58 2.28 2.15-0.12 3.09-1.2 3.1-2.28 0.02-1.15-1-2.28-2.73-2.29zM10.57 3.6999999999999993A2.66 2.66 0 0 0 7.919999999999999 5.959999999999999C7.77 7.09 8.48 8.23 10.36 8.209999999999999c2.23-0.04 3.31-1.37 3.16-2.57-0.12-1-1.09-1.92-2.94-1.94z m12.35 8.71a7 7 0 0 0-0.4 0.02c-5.28 0.54-5.54 0.6-15.26 0.82C3.1599999999999993 13.26 3.9799999999999995 27.36 12.74 27.36c8.2 0 18.12-15.15 10.18-14.95z m-1.1 2.7c3.18-0.07-2.9 9.53-8.8 9.56-7.46 0-6.44-8.8-5.18-8.85 8.67-0.35 10.88-0.64 13.98-0.71Z" /></svg>