<svg xmlns="http://www.w3.org/2000/svg" width="100%" height="100%" viewBox="0 0 30.72 30.72"><path d="M15.36 3.3599999999999994c-1.497 0-2.749 0.965-3.248 2.17a3.45 3.45 0 0 0-0.238 1.416 3.459 3.459 0 0 0-1.168-0.834 3.508 3.508 0 0 0-1.463-0.256 3.513 3.513 0 0 0-2.367 1.02c-1.06 1.058-1.263 2.625-0.764 3.83 0.179 0.432 0.47 0.82 0.82 1.154a3.49 3.49 0 0 0-1.402 0.252C4.324999999999999 12.610999999999999 3.3599999999999994 13.862 3.3599999999999994 15.36c0 1.497 0.965 2.749 2.17 3.248 0.437 0.181 0.924 0.25 1.414 0.236-0.357 0.338-0.65 0.732-0.832 1.17-0.499 1.205-0.295 2.772 0.764 3.83 1.058 1.06 2.625 1.263 3.83 0.764 0.437-0.181 0.83-0.476 1.168-0.832-0.014 0.49 0.057 0.977 0.238 1.414C12.610999999999999 26.395 13.862 27.36 15.36 27.36c1.497 0 2.749-0.965 3.248-2.17a3.45 3.45 0 0 0 0.238-1.416c0.338 0.356 0.73 0.653 1.168 0.834 1.205 0.499 2.772 0.295 3.83-0.764 1.06-1.058 1.263-2.625 0.764-3.83a3.459 3.459 0 0 0-0.834-1.168 3.45 3.45 0 0 0 1.416-0.238C26.395 18.109 27.36 16.857999999999997 27.36 15.36c0-1.497-0.965-2.749-2.17-3.248a3.455 3.455 0 0 0-1.414-0.236c0.357-0.338 0.65-0.732 0.832-1.17 0.499-1.205 0.295-2.772-0.764-3.83a3.513 3.513 0 0 0-2.367-1.02 3.508 3.508 0 0 0-1.463 0.256c-0.437 0.181-0.83 0.475-1.168 0.832a3.45 3.45 0 0 0-0.238-1.414C18.109 4.324999999999999 16.857999999999997 3.3599999999999994 15.36 3.3599999999999994z m-0.041 1.613a1.902 1.902 0 0 1 1.387 3.246v3.893L19.458 9.36A1.902 1.902 0 1 1 21.36 11.262l-2.752 2.752h3.893a1.902 1.902 0 1 1 0 2.692h-3.893L21.36 19.458A1.902 1.902 0 1 1 19.458 21.36l-2.752-2.752v3.893a1.902 1.902 0 1 1-2.692 0v-3.893L11.262 21.36A1.902 1.902 0 1 1 9.36 19.458l2.752-2.752H8.219a1.902 1.902 0 1 1 0-2.692h3.893L9.36 11.262A1.902 1.902 0 1 1 11.262 9.36l2.752 2.752V8.219a1.902 1.902 0 0 1 1.305-3.246z" /></svg>