<svg xmlns="http://www.w3.org/2000/svg" width="100%" height="100%" viewBox="0 0 30.72 30.72"><path d="M6.446999999999999 10.602c-1.704 0-2.878 0.996-2.878 2.395 0 0.627 0.21 1.141 0.611 1.56 0.45 0.465 0.932 0.723 2.058 1.108 1.173 0.37 1.398 0.483 1.64 0.66 0.417 0.337 0.658 0.803 0.658 1.301 0 1.013-0.964 1.833-2.154 1.833-0.723 0-1.478-0.29-1.945-0.756-0.353-0.353-0.594-0.755-0.803-1.366-0.032-0.08-0.065-0.128-0.129-0.128-0.08 0-0.145 0.08-0.145 0.192 0 0.129 0.065 0.499 0.177 0.852 0.097 0.338 0.161 0.563 0.161 0.595 0.097 0.482 0.113 0.498 0.241 0.611 0.338 0.257 1.334 0.498 2.074 0.498 1.848 0 3.166-1.173 3.166-2.813 0-1.205-0.787-2.073-2.41-2.604-1.624-0.53-1.705-0.579-2.074-0.98a1.476 1.476 0 0 1-0.386-1.013c0-0.868 0.707-1.495 1.688-1.495 1.173 0 2.266 0.691 2.572 1.64 0.08 0.257 0.112 0.305 0.209 0.305 0.064 0 0.128-0.08 0.128-0.193 0-0.048-0.016-0.16-0.032-0.29-0.177-1.092-0.193-1.14-0.21-1.333 0-0.225-0.047-0.322-0.16-0.322a0.121 0.121 0 0 0-0.064 0.032c-0.16 0.129-0.177 0.145-0.257 0.145a0.495 0.495 0 0 1-0.129-0.032c-0.852-0.354-0.996-0.402-1.607-0.402z m5.256 0.032c-1.222 0-2.17 0.498-2.604 1.302l0.096 0.659c0.017 0.096 0.016 0.16 0.016 0.193 0 0.257-0.16 0.45-0.369 0.498 0.048 0.499 0.257 0.933 0.61 1.286 0.45 0.466 0.933 0.724 2.058 1.11 1.158 0.385 1.399 0.482 1.64 0.658 0.418 0.322 0.659 0.804 0.659 1.302 0 1.013-0.964 1.833-2.154 1.833-0.723 0-1.48-0.29-1.945-0.755a2.82 2.82 0 0 1-0.386-0.483c-0.096 0.225-0.209 0.45-0.338 0.643 0.097 0.45 0.113 0.483 0.242 0.579 0.337 0.257 1.334 0.498 2.073 0.498 1.833 0 3.167-1.173 3.167-2.813-0.032-1.173-0.836-2.025-2.46-2.572-1.64-0.546-1.72-0.578-2.073-0.98a1.477 1.477 0 0 1-0.386-1.013c0-0.884 0.707-1.495 1.688-1.495 1.173 0 2.25 0.691 2.572 1.64 0.08 0.257 0.128 0.305 0.209 0.305 0.064 0 0.129-0.08 0.129-0.193 0-0.048-0.017-0.144-0.033-0.289-0.177-1.093-0.192-1.141-0.209-1.334 0-0.225-0.048-0.322-0.16-0.322-0.032 0-0.049 0.016-0.065 0.032-0.16 0.13-0.176 0.145-0.257 0.145-0.032 0-0.064-0.016-0.129-0.032-0.835-0.37-0.996-0.402-1.591-0.402z m4.662 0.177c-0.306 0-0.643 0.016-0.98 0.032-0.724 0.048-0.724 0.048-1.062 0.048h-0.128a0.81 0.81 0 0 1 0.048 0.306c0.016 0.128 0.016 0.193 0.112 0.723l0.113 0.707a1.1 1.1 0 0 1 0.016 0.193 0.51 0.51 0 0 1-0.145 0.37v2.524c0.29 0.417 0.434 0.9 0.434 1.446 0 0.627-0.177 1.19-0.482 1.656-0.08 0.579-0.29 0.723-0.82 0.884-0.128 0.032-0.16 0.048-0.16 0.129 0 0.096 0.048 0.128 0.176 0.128 0.048 0 0.21-0.016 0.338-0.032 0.225-0.032 0.563-0.048 0.884-0.048 0.627 0 1.318 0.016 1.479 0.048 0.177 0.016 0.321 0.032 0.402 0.032 0.112 0 0.209-0.048 0.209-0.128s-0.08-0.129-0.241-0.145c-0.933-0.096-1.238-0.434-1.206-1.35v-2.38c0.016-0.224 0.048-0.257 0.386-0.24h0.723c0.29 0 0.37 0.048 0.515 0.273 0.048 0.08 0.08 0.128 0.08 0.144l1.623 2.492c0.66 1.013 1.238 1.399 2.042 1.399 0.482 0 0.932-0.129 0.932-0.258 0-0.048-0.048-0.096-0.112-0.096-0.691 0.016-1.158-0.37-1.977-1.624l-1.833-2.668c1.06-0.547 1.64-1.318 1.64-2.299 0-0.707-0.29-1.334-0.804-1.72-0.514-0.385-1.174-0.546-2.202-0.546z m10.802 0.112c-0.08 0-0.177 0.016-0.322 0.033-0.16 0.032-0.321 0.048-0.595 0.048-0.385 0-1.028-0.032-1.27-0.048l-0.289-0.016c-0.128 0-0.193 0.048-0.193 0.128 0 0.096 0.049 0.145 0.193 0.177 1.254 0.177 1.367 0.466 1.334 3.536v3.15c0 0.21-0.016 0.258-0.08 0.242-0.032 0-0.08-0.048-0.177-0.16l-6.044-6.88c-0.128-0.145-0.209-0.193-0.353-0.193-0.048 0-0.129 0-0.225 0.016h-0.113c-0.032 0-0.321 0-0.514-0.016 0.08 0.048 0.16 0.112 0.24 0.16 0.58 0.434 0.933 1.174 0.933 1.977 0 0.129-0.016 0.258-0.032 0.37v4.18l0.16 0.24c0.145 0.21 0.258 0.386 0.37 0.547v-4.71c0-0.225 0.032-0.289 0.129-0.289 0.064 0 0.08 0.016 0.16 0.096l5.546 6.366c0.21 0.241 0.21 0.241 0.306 0.241 0.16 0 0.209-0.097 0.209-0.386v-0.128c0.016-0.386 0.016-0.98 0.016-1.817v-4.276l0.016-0.417c-0.016-1.592 0.048-1.753 0.659-1.913 0.096-0.016 0.129-0.049 0.129-0.113 0-0.08-0.08-0.145-0.193-0.145z m-11.156 0.338c0.611 0 1.27 0.209 1.64 0.547 0.466 0.385 0.739 1.028 0.739 1.64 0 1.092-0.691 1.767-1.849 1.767h-0.739c-0.434-0.016-0.466-0.048-0.466-0.466V12.081c0-0.45 0-0.499 0.08-0.611 0.097-0.129 0.29-0.209 0.595-0.209z" /></svg>