<svg xmlns="http://www.w3.org/2000/svg" width="100%" height="100%" viewBox="0 0 30.72 30.72"><path d="M25.038 3.8809999999999993c-1.032-0.92-2.28-0.55-3.513 0.544a8.71 8.71 0 0 0-0.547 0.535c-2.109 2.237-4.066 6.38-4.674 9.544 0.237 0.48 0.422 1.093 0.544 1.561a13.044 13.044 0 0 1 0.164 0.703s-0.019-0.071-0.096-0.296l-0.05-0.146a1.689 1.689 0 0 0-0.033-0.08c-0.138-0.32-0.518-0.995-0.686-1.289-0.143 0.423-0.27 0.818-0.376 1.176 0.484 0.884 0.778 2.4 0.778 2.4s-0.025-0.099-0.147-0.442c-0.107-0.303-0.644-1.244-0.772-1.464-0.217 0.804-0.304 1.346-0.226 1.478 0.152 0.256 0.296 0.698 0.422 1.186 0.286 1.1 0.485 2.44 0.485 2.44l0.017 0.224a22.41 22.41 0 0 0 0.056 2.748c0.095 1.146 0.273 2.13 0.5 2.657l0.155-0.084c-0.334-1.038-0.47-2.399-0.41-3.967 0.09-2.398 0.642-5.29 1.661-8.304 1.723-4.55 4.113-8.201 6.3-9.945-1.993 1.8-4.692 7.63-5.5 9.788-0.904 2.416-1.545 4.684-1.931 6.857 0.666-2.037 2.821-2.912 2.821-2.912s1.057-1.304 2.292-3.166c-0.74 0.169-1.955 0.458-2.362 0.629-0.6 0.251-0.762 0.337-0.762 0.337s1.945-1.184 3.613-1.72C25.055 11.26 27.555 6.126999999999999 25.038 3.8809999999999993m-18.573 0.543A1.842 1.842 0 0 0 4.629999999999999 6.26v16.608a1.84 1.84 0 0 0 1.835 1.834h9.418a22.953 22.953 0 0 1-0.052-2.707c-0.006-0.062-0.011-0.141-0.016-0.2a27.01 27.01 0 0 0-0.473-2.378c-0.121-0.47-0.275-0.898-0.369-1.057-0.116-0.197-0.098-0.31-0.097-0.432 0-0.12 0.015-0.245 0.037-0.386a9.98 9.98 0 0 1 0.234-1.045l0.217-0.028c-0.017-0.035-0.014-0.065-0.031-0.097l-0.041-0.381a32.8 32.8 0 0 1 0.382-1.194l0.2-0.019c-0.008-0.016-0.01-0.038-0.018-0.053l-0.043-0.316c0.63-3.28 2.587-7.443 4.8-9.791 0.066-0.069 0.133-0.128 0.198-0.194Z" /></svg>