<svg xmlns="http://www.w3.org/2000/svg" width="100%" height="100%" viewBox="0 0 30.72 30.72"><path d="M17.031 12.221c-0.445-0.354-1.697 0.239-2.05 1.118-0.446 1.116-1.105 2.746-1.752 3.46-0.683 0.75-0.751 0.17-0.683-0.262 0.158-1.02 1.153-3.381 1.696-4.047-0.202-0.3-1.52-0.256-2.435 1.166-0.342 0.536-1.122 2.325-1.99 3.734-0.19 0.305-0.427 0.092-0.243-0.621 0.207-0.825 0.818-3.089 1.604-4.871 2.064-0.409 4.254-0.696 5.933-0.702 0.226-0.06 0.377-0.263 0-0.275-1.447-0.049-3.62 0.122-5.652 0.38 0.391-0.782 0.812-1.404 1.239-1.667-0.464-0.293-1.404-0.177-1.94 0.617a10.547 10.547 0 0 0-0.702 1.244c-1.49 0.232-2.765 0.494-3.412 0.739-0.671 0.256-0.598 1.068-0.19 0.915 0.85-0.317 1.996-0.647 3.272-0.94-0.812 1.831-1.447 3.992-1.599 4.87-0.379 2.137 0.946 2.124 1.593 1.282 0.702-0.922 2.166-4.163 2.392-4.504 0.067-0.116 0.16-0.055 0.11 0.048-1.635 3.265-1.496 4.529-0.17 4.248 0.597-0.128 1.629-1.153 1.897-1.684 0.055-0.128 0.171-0.116 0.146-0.061-1.037 2.692-2.355 4.87-3.24 5.554-0.805 0.616-1.404-0.72 1.446-2.637 0.422-0.286 0.226-0.677-0.25-0.543-1.47 0.232-5.681 1.568-7.53 2.85-0.142 0.098-0.27 0.177-0.264 0.379 0.006 0.116 0.208 0.073 0.306 0.012 2.393-1.435 4.351-1.995 6.597-2.466 0.03 0.013 0.067 0.019 0.097 0.007 0.104-0.025 0.098 0.03 0.031 0.073a3.99 3.99 0 0 1-0.342 0.177c-1.513 0.591-2.429 1.897-2.105 2.563 0.275 0.574 1.758 0.366 2.46-0.012 1.72-0.934 2.971-2.765 3.826-5.292 0.745-2.24 1.685-4.778 1.904-4.852zM7.06 19.454c0.623-0.745 0.696-1.514 0.214-2.942-0.305-0.903-0.812-1.599-0.44-2.16 0.397-0.598 1.24-0.019 0.538 0.78l0.14 0.098c0.842 0.098 1.257-1.056 0.628-1.386-1.66-0.866-3.113 0.8-2.472 2.729 0.275 0.817 0.66 1.684 0.348 2.374-0.268 0.592-0.787 0.94-1.135 0.952-0.726 0.037-0.244-1.63 0.592-2.045 0.073-0.036 0.177-0.085 0.08-0.207-1.032-0.116-1.636 0.36-1.984 1.025-1.013 1.934 1.922 2.649 3.49 0.782z m19.974-2.064c-2.8-0.366-8.842 0.122-11.509 0.831-0.794 0.207-0.574 0.628-0.171 0.549 0.006 0 0.177-0.043 0.183-0.043 2.191-0.427 7.507-0.8 10.607-0.207 0.372 0.067 1.49-1.05 0.89-1.13z m-9.22-0.329c0.78-0.39 1.94-2.808 2.702-4.131 0.055-0.098 0.153-0.02 0.098 0.048-1.928 3.32-1.11 3.705-0.348 3.656 1.02-0.061 1.96-1.526 2.167-1.856 0.086-0.128 0.135-0.024 0.086 0.068-0.05 0.152-0.226 0.421-0.391 0.787-0.232 0.519 0.012 0.72 0.214 0.812 0.317 0.153 1.183 0.055 1.317-0.476-0.865-0.018 1.209-4.108 1.423-4.358-0.58-0.336-1.477 0.031-1.886 0.836-0.872 1.727-1.605 3.119-2.063 3.143-0.89 0.049 1.026-3.85 1.337-3.973-0.19-0.275-1.404-0.159-2.082 0.89-0.244 0.38-1.732 3.016-2.099 3.45-0.647 0.769-0.696 0.11-0.513-0.66 0.061-0.262 0.165-0.598 0.3-0.97 0.427-0.964 0.885-1.27 1.166-1.581 1.885-2.093 2.966-3.79 2.538-4.455-0.378-0.592-1.642-0.33-2.453 0.89-1.496 2.241-2.874 5.31-3.051 6.715-0.171 1.403 0.847 1.506 1.537 1.165z m7.372-3.296c0.238 0.586 0.598 1.166 0.384 1.679-0.177 0.439-0.41 0.623-0.665 0.665-0.36 0.06-0.263-1.068 0.354-1.404 0.055-0.03 0.134-0.177 0.06-0.262-0.78-0.043-1.22 0.33-1.458 0.824-0.69 1.447 1.563 1.842 2.667 0.42 0.44-0.567 0.458-1.128 0.036-2.147-0.267-0.647-0.676-1.13-0.42-1.557 0.275-0.45 0.933-0.061 0.44 0.544l0.11 0.06c0.64 0.037 0.902-0.817 0.414-1.03-1.287-0.55-2.49 0.835-1.922 2.208z m-6.579-0.811c0.067-0.153 0.11-0.195 0.226-0.452 0.67-1.477 1.514-3.033 2.093-3.759 0.36-0.379 0.866 0.134-0.049 1.538a14.165 14.165 0 0 1-1.812 2.264v0.006c-0.171 0.189-0.324 0.348-0.391 0.44-0.049 0.06-0.104 0.049-0.067-0.037z" /></svg>