<svg xmlns="http://www.w3.org/2000/svg" width="100%" height="100%" viewBox="0 0 30.72 30.72"><path d="M8.402 18.525a2.528 2.528 0 0 1-2.52 2.523A2.528 2.528 0 0 1 3.3599999999999994 18.525a2.527 2.527 0 0 1 2.522-2.52h2.52v2.52zM9.672999999999998 18.525a2.527 2.527 0 0 1 2.521-2.52 2.527 2.527 0 0 1 2.521 2.52v6.313A2.528 2.528 0 0 1 12.193999999999999 27.36a2.528 2.528 0 0 1-2.521-2.522v-6.313zM12.193999999999999 8.402a2.528 2.528 0 0 1-2.521-2.52A2.528 2.528 0 0 1 12.193999999999999 3.3599999999999994a2.528 2.528 0 0 1 2.521 2.522v2.52H12.193999999999999zM12.193999999999999 9.672999999999998a2.528 2.528 0 0 1 2.521 2.521 2.528 2.528 0 0 1-2.521 2.521H5.882A2.528 2.528 0 0 1 3.3599999999999994 12.193999999999999a2.528 2.528 0 0 1 2.522-2.521h6.312zM22.316 12.193999999999999a2.528 2.528 0 0 1 2.522-2.521A2.528 2.528 0 0 1 27.36 12.193999999999999a2.528 2.528 0 0 1-2.522 2.521h-2.522V12.193999999999999zM21.048 12.193999999999999a2.528 2.528 0 0 1-2.523 2.521 2.527 2.527 0 0 1-2.52-2.521V5.882A2.527 2.527 0 0 1 18.525 3.3599999999999994a2.528 2.528 0 0 1 2.523 2.522v6.312zM18.525 22.316a2.528 2.528 0 0 1 2.523 2.522A2.528 2.528 0 0 1 18.525 27.36a2.527 2.527 0 0 1-2.52-2.522v-2.522h2.52zM18.525 21.048a2.527 2.527 0 0 1-2.52-2.523 2.526 2.526 0 0 1 2.52-2.52h6.313A2.527 2.527 0 0 1 27.36 18.525a2.528 2.528 0 0 1-2.522 2.523h-6.313z" /></svg>