<svg xmlns="http://www.w3.org/2000/svg" width="100%" height="100%" viewBox="0 0 30.72 30.72"><path d="M4.327999999999999 12.386999999999999l7.717 4.428-0.006 1.32-4.39-2.518-2.763 1.57 7.148 4.12 0.005 1.27-7.658-4.405c0.02 0.516 0.488 2.106 1.383 3.337 0.91 1.247 1.946 1.776 1.946 1.776L14.788 27.36V15.209L4.334999999999999 9.206z m22.064-3.8L18.58 4.082999999999999S17.342 3.3599999999999994 15.367999999999999 3.3599999999999994C13.312 3.3599999999999994 12.12 4.106 12.12 4.106l-7.236 4.14 11.009 6.328V27.36l7.245-4.136s1.295-0.715 2.279-2.414c0.867-1.496 0.975-2.943 0.975-2.943zM14.610999999999999 10.668s1.615-0.298 2.98 0.49l2.171 1.25s0.003 1.097 0.003 2.736c0 1.313-1.112 2.674-1.112 2.674l0.002-4.816z m6.402 10.562l-2.358 1.353v-1.269l1.835-1.05c1.748-1.26 2.037-3.117 2.037-3.761l-0.007-5.705-5.006-2.881s-0.76-0.499-2.129-0.499c-1.367 0-2.113 0.461-2.113 0.461L11.514 8.89l-1.11-0.641L12.833 6.859999999999999s0.95-0.527 2.544-0.527c1.462 0 2.6 0.571 2.6 0.571L23.63 10.169999999999998l-0.007 6.226c0.04 0.957-0.406 3.296-2.61 4.835z" /></svg>