<svg xmlns="http://www.w3.org/2000/svg" width="100%" height="100%" viewBox="0 0 30.72 30.72"><path d="M18.908 8.576L10.364999999999998 23.372l-0.29-0.167 8.54-14.788a9.365 9.365 0 0 0-6.07-0.906L6.09 18.692999999999998l-0.609 1.055a9.34 9.34 0 0 0 3.818 4.806l-1.522 2.64 0.289 0.166 2.303-3.987h-0.002a9.367 9.367 0 0 0 6.068 0.905l6.321-10.945 0.287 0.167-6.168 10.683-0.964 1.67a9.322 9.322 0 0 0 7.55-7.555 9.267 9.267 0 0 0-0.413-4.802l2.299-3.982-0.29-0.167L23.5 12.04a9.343 9.343 0 0 0-3.816-4.806z m-5.842-2.64a9.324 9.324 0 0 0-7.132 12.359L12.253 7.348999999999999l0.292 0.162L14.843 3.5269999999999992 14.552999999999999 3.3599999999999994z" /></svg>