<svg xmlns="http://www.w3.org/2000/svg" width="100%" height="100%" viewBox="0 0 30.72 30.72"><path d="M13.475999999999999 20.237c0.064-0.054 0.129-0.109 0.189-0.168-1.209 1.176-2.756 1.756-4.291 1.735h-0.023c-1.545-0.025-3.08-0.656-4.245-1.894-0.733-0.78-1.233-1.708-1.507-2.691v-0.007c-0.604-2.199-0.065-4.674 1.605-6.406 2.346-2.434 6.072-2.492 8.459-0.205l1.215 1.275 0.543 0.57 4.228 4.484h0.018c0.045 0.046 0.09 0.076 0.119 0.121 0.855 0.779 2.162 0.75 2.986-0.105 0.869-0.9 0.9-2.37 0.047-3.285-0.092-0.105-0.197-0.195-0.303-0.27l-0.24-0.166c-0.824-0.449-1.875-0.3-2.58 0.42-0.105 0.105-0.195 0.226-0.27 0.346-0.301 0.465-0.406 1.02-0.346 1.561l-1.514-1.529-1.756-1.665c0.286-0.563 0.657-1.095 1.114-1.569 0.105-0.105 0.211-0.21 0.318-0.307-0.064 0.055-0.129 0.111-0.189 0.168 1.209-1.176 2.756-1.754 4.291-1.734h0.023c1.545 0.025 3.08 0.656 4.246 1.895 0.732 0.779 1.232 1.707 1.506 2.693v0.006c0.605 2.197 0.066 4.676-1.605 6.405-2.346 2.434-6.072 2.494-8.459 0.205l-1.214-1.286-0.543-0.581-4.225-4.501-0.004-0.015c-0.016 0-0.016-0.015-0.016-0.015-0.045-0.046-0.09-0.09-0.121-0.136-0.854-0.78-2.16-0.765-2.984 0.105-0.87 0.9-0.9 2.37-0.045 3.271 0.09 0.105 0.195 0.18 0.3 0.27l0.24 0.15c0.825 0.436 1.876 0.3 2.58-0.436 0.105-0.104 0.196-0.225 0.271-0.345 0.301-0.465 0.404-1.034 0.345-1.575l1.515 1.561 1.758 1.771c-0.285 0.564-0.657 1.096-1.115 1.569-0.104 0.105-0.21 0.21-0.318 0.306l-0.003 0.004z" /></svg>