<svg xmlns="http://www.w3.org/2000/svg" width="100%" height="100%" viewBox="0 0 30.72 30.72"><path d="M24.755 18.395a39.548 39.548 0 0 0-0.803-2.264l-1.079-2.695c0.001-0.032 0.014-0.562 0.014-0.836C22.886 7.991999999999999 20.711 3.3599999999999994 15.36 3.3599999999999994S7.834 7.991999999999999 7.834 12.600999999999999c0 0.274 0.013 0.804 0.014 0.836l-1.08 2.695a38.97 38.97 0 0 0-0.802 2.264c-1.021 3.283-0.69 4.643-0.438 4.673 0.54 0.065 2.103-2.472 2.103-2.472 0 1.469 0.756 3.387 2.394 4.771-0.612 0.188-1.363 0.479-1.845 0.835-0.434 0.32-0.379 0.646-0.301 0.778 0.343 0.578 5.883 0.369 7.482 0.189 1.6 0.18 7.14 0.389 7.483-0.189 0.078-0.132 0.132-0.458-0.301-0.778-0.483-0.356-1.233-0.646-1.846-0.836 1.637-1.384 2.393-3.302 2.393-4.771 0 0 1.563 2.537 2.103 2.472 0.251-0.03 0.581-1.39-0.438-4.673zM16.022 8.206c0.039-1.052 0.659-1.878 1.385-1.846s1.281 0.912 1.242 1.964c-0.039 1.051-0.659 1.878-1.385 1.846s-1.282-0.912-1.242-1.964zM13.314 6.359999999999999c0.725-0.033 1.345 0.794 1.384 1.846 0.04 1.052-0.517 1.931-1.242 1.963-0.726 0.033-1.346-0.794-1.385-1.845C12.032 7.271999999999999 12.588 6.392999999999999 13.314 6.359999999999999zM10.780999999999999 11.654c0.194-0.43 2.147-0.908 4.566-0.908h0.026c2.418 0 4.372 0.479 4.566 0.908a0.14 0.14 0 0 1 0.014 0.061c0 0.031-0.01 0.059-0.026 0.083-0.163 0.238-2.333 1.416-4.553 1.416h-0.026c-2.221 0-4.39-1.178-4.553-1.416a0.136 0.136 0 0 1-0.014-0.144z m10.422 8.622c-0.22 3.676-2.403 5.987-5.774 6.021h-0.137c-3.37-0.033-5.554-2.345-5.773-6.021-0.081-1.35 0.001-2.496 0.147-3.43 0.318 0.063 0.638 0.122 0.958 0.176v3.506s1.658 0.334 3.318 0.103v-3.225c0.488 0.027 0.96 0.04 1.406 0.034h0.025c1.678 0.021 3.714-0.204 5.683-0.594 0.146 0.934 0.227 2.08 0.147 3.43zM13.84 9.164c0.313-0.041 0.542-0.409 0.508-0.825-0.033-0.415-0.314-0.72-0.629-0.679-0.313 0.04-0.541 0.409-0.508 0.824 0.034 0.417 0.315 0.72 0.629 0.68zM17.839 8.515999999999998c0.078 0.037 0.221 0.042 0.289-0.146 0.035-0.095 0.025-0.165-0.009-0.214-0.023-0.033-0.133-0.118-0.371-0.176-0.904-0.22-1.341 0.384-1.405 0.499-0.04 0.072-0.012 0.176 0.056 0.227 0.067 0.051 0.139 0.037 0.179-0.006 0.58-0.628 1.21-0.208 1.261-0.184z" /></svg>