<svg xmlns="http://www.w3.org/2000/svg" width="100%" height="100%" viewBox="0 0 30.72 30.72"><path d="M5.7909999999999995 13.245999999999999H3.3599999999999994V11.024999999999999h7.53v2.221H8.459999999999999v6.45H5.7909999999999995v-6.45z m5.514-2.221h7.31v2.221h-4.638v1.083h4.638v2.063h-4.638v1.08h4.638v2.225h-7.31V11.024999999999999z m10.43 6.451h1.046c1.664 0 1.907-1.352 1.907-2.166 0-0.545-0.179-2.063-2.115-2.063h-0.854v4.23l0.016-0.001z m-2.67-6.451h4.384C26.34 11.024999999999999 27.36 13.16 27.36 15.344999999999999c0 2.66-1.409 4.351-4.434 4.351h-3.861V11.023v0.002z" /></svg>