<svg xmlns="http://www.w3.org/2000/svg" width="100%" height="100%" viewBox="0 0 30.72 30.72"><path d="M11.03 4.92c0.282-0.134 0.542-0.338 0.81-0.513 0.253-0.163 0.54-0.436 0.894-0.33 0.103 0.296-0.162 0.503-0.331 0.662-0.538 0.511-1.154 0.975-1.72 1.456A240.349 240.349 0 0 1 4.859999999999999 10.957999999999998a7.406 7.406 0 0 1-0.612 0.445c-0.183 0.118-0.456 0.359-0.71 0.165 0.071-0.337 0.306-0.567 0.512-0.778 0.213-0.216 0.414-0.446 0.629-0.66-0.248-0.427-0.473-0.821-0.662-1.274-0.186-0.449-0.378-0.971-0.38-1.554-0.002-1.109 0.635-2.043 1.34-2.68C5.699999999999999 3.9699999999999993 6.6659999999999995 3.4259999999999993 7.789 3.365999999999999 9.375 3.2819999999999996 10.293 4.069999999999999 11.03 4.92z m5.012 18.075v0.198c-0.278 0.01-0.532-0.01-0.795-0.016v-0.198c0.277-0.008 0.535 0.006 0.795 0.016z m-1.59 0v0.198c-0.282-0.012-0.52 0.021-0.792 0.018v-0.198a9.53 9.53 0 0 1 0.793-0.018z m3.177 0.05c-0.007 0.067 0.013 0.158-0.017 0.199-0.251-0.02-0.518-0.024-0.778-0.033v-0.198c0.275 0.003 0.542 0.009 0.795 0.032z m-4.763 0v0.199c-0.274 0.002-0.512 0.039-0.795 0.032v-0.197c0.28 0.001 0.516-0.036 0.795-0.034z m5.555 0.034c0.255 0.033 0.544 0.029 0.793 0.064 0.013 0.084-0.014 0.129-0.015 0.2-0.255-0.033-0.544-0.03-0.794-0.067a0.703 0.703 0 0 0 0.016-0.197z m-7.142 0.065v0.2c-0.26 0.02-0.517 0.046-0.778 0.065-0.022-0.05-0.018-0.126-0.017-0.198 0.265-0.024 0.521-0.053 0.795-0.067z m8.73 0.067c0.269 0.023 0.537 0.048 0.793 0.082-0.02 0.058-0.004 0.148-0.032 0.199-0.25-0.036-0.518-0.053-0.778-0.083-0.01-0.083 0.017-0.128 0.017-0.198z m-10.319 0.082c-0.006 0.08 0.03 0.113 0.017 0.199-0.259 0.022-0.568 0.082-0.793 0.082 0.012-0.077-0.02-0.114-0.018-0.182 0.252-0.045 0.529-0.066 0.794-0.099z m12.684 0.199c0.012 0.084-0.027 0.114-0.017 0.196-0.256-0.044-0.54-0.063-0.794-0.114 0.01-0.058 0.025-0.109 0.017-0.182 0.228 0.008 0.545 0.062 0.795 0.1z m-14.288 0c0.06 0.022 0.033 0.133 0.05 0.196-0.259 0.04-0.517 0.08-0.777 0.117a0.68 0.68 0 0 1-0.034-0.197c0.253-0.038 0.515-0.072 0.761-0.116z m15.86 0.233a0.628 0.628 0 0 1-0.034 0.213c-0.247-0.055-0.52-0.083-0.777-0.132a0.702 0.702 0 0 1 0.034-0.197c0.263 0.032 0.503 0.09 0.776 0.116z m-17.414 0.016c0.02 0.057 0.036 0.116 0.034 0.196-0.263 0.04-0.503 0.105-0.778 0.133-0.004-0.073-0.034-0.12-0.033-0.197 0.275-0.028 0.515-0.092 0.777-0.132z m18.208 0.132c0.255 0.052 0.508 0.109 0.778 0.148-0.004 0.072-0.034 0.119-0.034 0.197-0.28-0.021-0.495-0.11-0.778-0.133-0.018-0.041 0.016-0.15 0.034-0.212zM26.029 20.086c0.156 0.092 0.47 0.098 0.595 0.246 0.099 0.115 0.144 0.486 0.182 0.744 0.203 1.296 0.287 2.808 0.332 4.219 0.008 0.266 0.016 0.583 0.016 0.891 0 0.298 0.06 0.704 0 0.91-0.041 0.147-0.24 0.194-0.363 0.264a56.558 56.558 0 0 0-0.065-2.843c-0.124-0.101-0.444-0.047-0.464-0.166-0.044-0.252 0.267-0.09 0.447-0.065-0.045-1.272-0.177-2.46-0.33-3.623-0.147-0.074-0.336-0.105-0.498-0.164-0.252 0.259-0.636 0.939-1.223 0.81-0.22-0.047-0.363-0.342-0.464-0.545a3.243 3.243 0 0 1-0.265-0.744c-4.88-0.936-11.589-1.016-16.502-0.05-0.153 0.655-0.43 2.053-1.34 1.52a2.014 2.014 0 0 1-0.81-0.991 8.31 8.31 0 0 1-0.547 0.133c-0.192 1.084-0.288 2.268-0.346 3.489 0.166 0.01 0.416-0.122 0.595-0.1 0.004 0.066 0.028 0.114 0.033 0.18-0.166 0.106-0.437 0.105-0.645 0.166a45.286 45.286 0 0 0-0.066 2.976c-0.08 0.022-0.273-0.122-0.347-0.213 0.064-2.301 0.179-4.553 0.363-6.732 0.28-0.087 0.568-0.17 0.844-0.264-0.04-0.383-0.117-0.827 0.05-1.09 0.14-0.224 0.531-0.352 0.81-0.432 0.99-0.28 1.979-0.05 2.63 0.413 0.14 0.102 0.247 0.239 0.396 0.299 0.025-0.09-0.094-0.15-0.149-0.199-0.567-0.511-1.498-0.958-2.612-0.761-0.348-1.09-0.79-2.142-0.794-3.538-0.005-1.553 0.562-2.899 1.205-3.953 0.66-1.078 1.541-1.954 2.498-2.645a11.504 11.504 0 0 1 8.087-2.051c3.01 0.369 5.008 1.79 6.45 3.853 0.69 0.99 1.248 2.174 1.62 3.524 0.374 1.352 0.378 3.098-0.05 4.53-1.383-0.283-2.637 0.15-3.125 1.026-0.004 0.015-0.016 0.017-0.016 0.033 0.498-0.678 1.736-1.168 2.976-0.86 0.328 0.082 0.746 0.2 0.908 0.43 0.224 0.317 0.122 0.989-0.016 1.373zM19.58 12.741999999999999c0.055 0.383 0.227 0.783 0.445 0.944 0.376 0.27 0.602 0.001 0.63-0.38 0.035-0.504-0.174-1.1-0.431-1.324-0.105-0.09-0.299-0.145-0.412-0.115-0.256 0.065-0.283 0.528-0.232 0.875z m-8.649 1.092c-0.033 0.556 0.16 1.277 0.529 1.472 0.43 0.227 0.633-0.095 0.661-0.495 0.045-0.626-0.273-1.714-0.86-1.605-0.25 0.047-0.313 0.339-0.33 0.628z m6.83 2.579c-0.266 0.06-0.633-0.058-0.926-0.117a22.333 22.333 0 0 0-0.91-0.164c-0.567-0.088-1.344-0.211-1.9 0.1-0.198 0.11-0.444 0.351-0.465 0.662-0.027 0.46 0.342 0.791 0.612 0.993 0.323 0.237 0.663 0.399 1.092 0.527 0.917 0.278 2.293 0.353 3.075 0.017 0.735-0.316 1.706-1.062 1.72-2.05 0.01-0.59-0.272-1.119-0.859-1.042-0.65 0.085-0.882 0.951-1.44 1.074z" /></svg>