<svg xmlns="http://www.w3.org/2000/svg" width="100%" height="100%" viewBox="0 0 30.72 30.72"><path d="M13.133999999999999 14.927999999999999c0.193-1.322 0.168-2.013-1.768-1.906-2.223 0.124-4.476 0.265-7.849 1.027A5.63 5.63 0 0 0 3.3599999999999994 15.36c0 1.52 0.618 2.99 1.787 4.254 1.06 1.144 2.556 2.095 4.326 2.752a15.48 15.48 0 0 0 2.014 0.588c0.13-0.527 0.959-3.907 1.616-7.823l0.03-0.202m14.07-0.88c-3.372-0.762-5.624-0.902-7.846-1.026-1.937-0.107-1.962 0.584-1.768 1.906l0.046 0.298c0.65 3.848 1.458 7.16 1.598 7.72C23.955 21.868 27.36 18.875999999999998 27.36 15.36c0-0.443-0.054-0.88-0.157-1.311m-0.491-1.324a7.163 7.163 0 0 0-1.14-1.618c-1.06-1.144-2.555-2.095-4.325-2.752-1.784-0.662-3.82-1.011-5.887-1.011-2.068 0-4.103 0.35-5.887 1.01-1.77 0.658-3.266 1.61-4.326 2.753A7.17 7.17 0 0 0 4.007999999999999 12.725999999999999c2.304-0.557 6.245-1.293 9.904-1.37 0.353-0.008 0.596 0.105 0.756 0.307 0.196 0.248 0.18 1.128 0.175 1.522l-0.104 10.18a18.507 18.507 0 0 0 1.244 0l-0.104-10.18c-0.005-0.394-0.02-1.274 0.175-1.522 0.16-0.202 0.403-0.315 0.756-0.308 3.658 0.078 7.597 0.813 9.902 1.37z" /></svg>