<svg xmlns="http://www.w3.org/2000/svg" width="100%" height="100%" viewBox="0 0 30.72 30.72"><path d="M22.851 25.259c2.106 0 3.531-1.424 3.531-3.531V6.891C26.381999999999998 4.784999999999999 24.958 3.3599999999999994 22.851 3.3599999999999994H7.869C5.763 3.3599999999999994 4.337999999999999 4.783999999999999 4.337999999999999 6.891V27.36l1.809-2.101V6.891a1.721 1.721 0 0 1 1.719-1.719h14.982c0.949 0.002 1.718 0.77 1.719 1.719v14.837a1.721 1.721 0 0 1-1.719 1.719H10.28l-1.81 1.812-0.011-0.014zM12.147 14.825999999999999H10.45v5.698h1.697c3.793 0 3.793-5.698 0-5.698z m0 4.559h-0.551v-3.419h0.551c2.215 0 2.215 3.418 0 3.418zM11.815999999999999 13.748999999999999h1.139V9.19h1.418V8.059H10.396999999999998V9.19h1.419v4.559zM17.423000000000002 10.561l-1.971-2.502h-0.366v5.785h1.156v-3.18l1.182 1.531 1.183-1.531-0.008 3.18h1.156V8.059h-0.36l-1.971 2.502zM19.343 17.674999999999997c0.358-0.247 0.51-0.689 0.526-1.124 0.023-1.004-0.606-1.729-1.617-1.729h-2.255v5.706h2.255a1.695 1.695 0 0 0 1.681-1.694v-0.02-0.008c0-0.466-0.231-0.878-0.585-1.127l-0.004-0.003z m-2.204-1.714h1.013c0.327 0 0.526 0.255 0.526 0.573a0.533 0.533 0 0 1-0.526 0.574h-1.013V15.959999999999999z m1.013 3.427h-1.013v-1.139h1.027c0.309 0 0.559 0.25 0.559 0.559v0.014a0.566 0.566 0 0 1-0.566 0.566h-0.001z" /></svg>