<svg xmlns="http://www.w3.org/2000/svg" width="100%" height="100%" viewBox="0 0 30.72 30.72"><path d="M27.22 4.311999999999999c0.029 0 0.056 0.004 0.07 0.011 0.015 0.009 0.023 0.027 0.023 0.061L26.05 10.536v0.029h-0.059c-0.009 0-0.045 0-0.104-0.016h-0.044c-0.082-0.014-0.15-0.028-0.215-0.044-0.063-0.015-0.134-0.015-0.209-0.015-0.547-0.09-1.085-0.164-1.613-0.225-0.533-0.06-1.063-0.104-1.594-0.135l-0.374 7.861-0.069-0.12c0-0.016-0.016-0.016-0.016-0.03l-0.015-0.016c-0.016 0-0.029 0-0.044-0.014-0.016-0.016-0.016-0.03-0.016-0.045-0.03-0.016-0.06-0.031-0.074-0.061-0.016-0.015-0.046-0.045-0.075-0.061-0.09-0.074-0.18-0.148-0.284-0.223-0.119-0.075-0.224-0.15-0.329-0.21l-0.179-0.089-0.164-0.09c-0.016 0-0.03 0-0.045-0.016l-0.015-0.029 0.344-8.203h0.118c0.12 0 0.255 0 0.39 0.014 0.134 0.016 0.283 0.016 0.418 0.016l0.822 0.045c0.269 0.016 0.537 0.045 0.806 0.075l0.419 0.044 0.404 0.045h0.091c0.035 0 0.09 0.016 0.148 0.029 0.076 0.016 0.165 0.03 0.254 0.03 0.091 0.016 0.165 0.016 0.21 0.046l0.747-3.691c-0.015 0-0.036 0-0.066-0.015l-0.12-0.046c-0.522-0.104-1.061-0.193-1.6-0.283-0.537-0.074-1.079-0.135-1.628-0.179-0.418-0.046-0.848-0.075-1.285-0.09-0.426-0.015-0.866-0.03-1.3-0.03h-0.792c0 0.03 0 0.061-0.015 0.09l-0.045 0.148-0.043 0.14c-0.016 0.089-0.045 0.194-0.086 0.284-0.041 0.104-0.074 0.193-0.104 0.283-0.097 0.18-0.194 0.344-0.296 0.493-0.102 0.165-0.206 0.313-0.314 0.478-0.25 0.3-0.531 0.554-0.844 0.777-0.306 0.225-0.643 0.404-1.001 0.538-0.245 0.09-0.499 0.165-0.762 0.21-0.254 0.045-0.513 0.074-0.776 0.074-0.141 0-0.284 0-0.434-0.016-0.15-0.014-0.293-0.029-0.434-0.059-0.404-0.074-0.793-0.209-1.158-0.403-0.366-0.194-0.698-0.434-0.992-0.717-0.165-0.135-0.299-0.284-0.419-0.434-0.11-0.149-0.224-0.314-0.333-0.493l-0.714 0.254-0.718 0.269c-0.485 0.164-0.962 0.359-1.43 0.568-0.463 0.209-0.926 0.434-1.377 0.672l-0.688 0.374c-0.227 0.134-0.456 0.254-0.69 0.374v0.014c0 0.016-0.01 0.016-0.026 0.016l-0.088 0.044-0.037 0.029L6.622999999999999 12.209999999999999l0.198-0.105c0.06-0.03 0.134-0.075 0.211-0.105 0.486-0.254 0.979-0.478 1.48-0.702 0.496-0.209 1-0.418 1.494-0.612h0.044l2.052 8.231c0.329-0.142 0.636-0.263 0.924-0.363 0.294-0.102 0.567-0.191 0.837-0.269 0.514-0.141 1.046-0.247 1.591-0.317 0.546-0.064 1.092-0.104 1.639-0.104 0.283 0 0.567 0.016 0.852 0.04 0.27 0.029 0.523 0.059 0.762 0.104 0.284 0.061 0.553 0.15 0.807 0.24 0.239 0.104 0.463 0.208 0.657 0.357 0.225 0.15 0.419 0.314 0.583 0.509 0.149 0.194 0.284 0.403 0.374 0.628 0.089 0.238 0.135 0.478 0.149 0.747 0 0.269-0.03 0.522-0.09 0.762-0.03 0.134-0.074 0.254-0.12 0.358-0.06 0.12-0.119 0.238-0.193 0.344 0 0.015 0 0.03-0.015 0.03-0.016 0-0.016 0.015-0.016 0.029l-0.045 0.045c-0.015 0.015-0.015 0.03-0.015 0.045s0 0.029 0.015 0.044l0.03 0.062v0.029l0.015 0.029 0.09 0.195c0.015 0.059 0.029 0.134 0.029 0.192 0.061 0.254 0.075 0.51 0.045 0.777-0.03 0.285-0.09 0.554-0.179 0.808-0.165 0.434-0.419 0.807-0.763 1.149-0.357 0.345-0.807 0.644-1.344 0.912-0.42 0.225-0.883 0.404-1.375 0.553-0.508 0.149-1.061 0.283-1.674 0.389-0.15 0.03-0.284 0.06-0.418 0.076l-0.389 0.015-0.253 0.028-0.105-1.418v-0.016h0.045l0.03-0.015h0.149l0.06-0.046h0.18c0.06 0 0.104-0.015 0.149-0.015 0.283-0.045 0.553-0.09 0.807-0.148 0.27-0.062 0.523-0.12 0.792-0.195 0.269-0.074 0.522-0.149 0.762-0.239 0.239-0.073 0.464-0.179 0.688-0.283 0.254-0.135 0.464-0.269 0.643-0.418 0.18-0.149 0.329-0.3 0.448-0.449 0.075-0.09 0.149-0.193 0.195-0.298 0.044-0.104 0.074-0.21 0.088-0.329v-0.225l-0.119 0.09c-0.015 0.015-0.045 0.029-0.074 0.044l-0.104 0.047c-0.21 0.134-0.434 0.237-0.673 0.343-0.238 0.104-0.493 0.209-0.762 0.299-0.254 0.09-0.508 0.179-0.777 0.239-0.27 0.073-0.538 0.135-0.792 0.179-0.284 0.045-0.554 0.09-0.821 0.119-0.27 0.031-0.538 0.061-0.807 0.076h-0.15c-0.254 0-0.493 0-0.701-0.03-0.225-0.015-0.42-0.061-0.613-0.104-0.283-0.075-0.523-0.181-0.732-0.314-0.209-0.135-0.358-0.298-0.448-0.508-0.104-0.18-0.164-0.389-0.149-0.628 0-0.225 0.06-0.448 0.165-0.656 0.104-0.195 0.254-0.374 0.433-0.539 0.18-0.164 0.403-0.313 0.657-0.448 0.21-0.104 0.434-0.209 0.688-0.284 0.238-0.074 0.508-0.164 0.791-0.239 0.225-0.059 0.479-0.119 0.747-0.164 0.27-0.044 0.554-0.074 0.867-0.09 0.104-0.015 0.224-0.029 0.343-0.029 0.121-0.015 0.24-0.015 0.375-0.015h0.447l0.449 0.044c0.134 0.016 0.268 0.03 0.402 0.061 0.135 0.029 0.254 0.045 0.374 0.074 0.075 0.015 0.149 0.045 0.209 0.061l0.165 0.059h0.014c0.016 0 0.031 0.016 0.031 0.016l0.015 0.016 0.044 0.029-0.029 0.029c-0.135 0.314-0.373 0.568-0.747 0.747-0.374 0.195-0.628 0.314-0.792 0.358h-0.014c-0.015-0.015-0.029-0.029-0.035-0.029h-0.434c-0.138 0-0.273 0-0.406 0.015-0.135 0.015-0.264 0.015-0.389 0.029-0.279 0.03-0.553 0.076-0.818 0.12-0.268 0.046-0.516 0.119-0.746 0.195-0.145 0.044-0.279 0.089-0.404 0.148-0.124 0.045-0.238 0.091-0.35 0.149-0.063 0.03-0.119 0.061-0.175 0.09-0.054 0.029-0.104 0.06-0.149 0.091-0.029 0.029-0.074 0.059-0.119 0.089s-0.086 0.074-0.119 0.12c0.014 0 0.039 0 0.06 0.014l0.134 0.031v0.029c0.061 0.015 0.12 0.029 0.18 0.029 0.064 0 0.135 0.015 0.209 0.015 0.064 0.016 0.127 0.021 0.19 0.021h0.603c0.254 0 0.514-0.015 0.785-0.06 0.27-0.041 0.55-0.074 0.831-0.13 0.284-0.061 0.544-0.126 0.792-0.209 0.246-0.076 0.486-0.165 0.722-0.254 0.134-0.045 0.254-0.105 0.358-0.15 0.119-0.06 0.225-0.119 0.344-0.18l0.283-0.163c0.105-0.062 0.225-0.135 0.33-0.209 0.164-0.14 0.313-0.314 0.463-0.509 0.164-0.194 0.239-0.418 0.239-0.663 0-0.127-0.016-0.239-0.06-0.344-0.03-0.105-0.09-0.194-0.18-0.27-0.074-0.074-0.164-0.149-0.254-0.209s-0.194-0.119-0.329-0.164c-0.254-0.09-0.523-0.164-0.808-0.194-0.268-0.039-0.508-0.06-0.731-0.06-0.075-0.016-0.149-0.016-0.239-0.016h-0.225c-0.47 0-0.938 0.035-1.405 0.105-0.468 0.074-0.927 0.164-1.38 0.299-0.254 0.06-0.5 0.134-0.75 0.224-0.254 0.104-0.516 0.194-0.796 0.313-0.218 0.09-0.444 0.18-0.679 0.299l-0.747 0.389-0.045 0.03-2.065-8.561-0.09 0.044-0.094 0.045c-0.502 0.223-0.993 0.448-1.476 0.702-0.488 0.254-0.963 0.508-1.43 0.777l-0.049 0.029L3.4059999999999993 8.187999999999999c0-0.016 0.007-0.022 0.024-0.029l0.115-0.083c0.031-0.015 0.063-0.036 0.096-0.06 0.029-0.022 0.053-0.041 0.07-0.061 0.014 0 0.026 0 0.033-0.008h0.012c0.109-0.061 0.225-0.12 0.34-0.194l0.364-0.224c0.216-0.119 0.44-0.254 0.664-0.374 0.24-0.119 0.449-0.254 0.674-0.373 0.462-0.238 0.925-0.463 1.388-0.672 0.479-0.225 0.957-0.434 1.42-0.613 0.508-0.194 1.001-0.373 1.494-0.537 0.493-0.18 1.001-0.344 1.523-0.479l0.046-0.031v0.046c0.075 0.313 0.18 0.598 0.344 0.882 0.164 0.268 0.359 0.507 0.582 0.732 0.284 0.238 0.598 0.434 0.956 0.582 0.359 0.135 0.732 0.209 1.105 0.209 0.046 0 0.09-0.014 0.135-0.014 0.037-0.016 0.08-0.016 0.126-0.016 0.374-0.03 0.739-0.135 1.091-0.314 0.35-0.18 0.658-0.402 0.922-0.688 0.299-0.328 0.523-0.701 0.643-1.12 0.135-0.418 0.18-0.866 0.104-1.315l0.045-0.015 1.016-0.044C19.083 3.3599999999999994 19.410999999999998 3.3599999999999994 19.755 3.3599999999999994h0.643c0.553 0.016 1.091 0.045 1.629 0.074 0.537 0.031 1.077 0.09 1.613 0.15 0.522 0.06 1.03 0.135 1.538 0.224 0.51 0.09 1.003 0.194 1.511 0.329l0.045 0.015 0.089 0.03 0.18 0.045c0.06 0.015 0.12 0.029 0.164 0.059h0.016c0.015 0 0.03 0.016 0.045 0.016l0.029 0.015-0.037-0.005z" /></svg>