<svg xmlns="http://www.w3.org/2000/svg" width="100%" height="100%" viewBox="0 0 30.72 30.72"><path d="M25.727999999999998 16.218c-0.846 0.639-1.719 1.243-2.612 1.818-0.893 0.568-1.683 0.977-2.378 1.219-0.695 0.246-1.167 0.199-1.413-0.131-0.23-0.417-0.242-1.028-0.028-1.826 0.21-0.802 0.508-1.628 0.893-2.485 0.381-0.782 0.711-1.58 0.989-2.39 0.278-0.81 0.413-1.632 0.401-2.458-0.012-0.826-0.266-1.648-0.758-2.47-0.433-0.671-1.08-1.175-1.941-1.509-0.862-0.337-1.822-0.504-2.882-0.492-1.06 0.012-2.112 0.206-3.148 0.58C12.043 6.379999999999999 11.3 6.847999999999999 10.620999999999999 7.475999999999999c-0.675 0.627-1.207 1.409-1.6 2.346-0.135 0.341-0.222 0.794-0.27 1.346C8.7 11.716 8.672 12.212 8.668 12.657 8.664 13.102 8.66 13.336 8.664 13.356c-0.433 0.298-0.925 0.663-1.481 1.096-0.556 0.429-1.104 0.949-1.64 1.552-0.564 0.663-1.044 1.326-1.437 1.973-0.393 0.655-0.635 1.155-0.727 1.505-0.048 0.143-0.008 0.532 0.119 1.183 0.127 0.643 0.457 1.386 1.001 2.227s1.417 1.62 2.616 2.331c0.012 0.012 0.044-0.012 0.091-0.067 0.052-0.052 0.079-0.079 0.083-0.087-0.02-0.012-0.167-0.171-0.429-0.476-0.262-0.302-0.516-0.699-0.758-1.175-0.246-0.484-0.345-0.993-0.31-1.521 0.048-0.731 0.512-1.398 1.394-2.005 0.885-0.611 2.394-1.143 4.53-1.592 0.607-0.155 1.132-0.385 1.58-0.707 0.449-0.314 0.687-0.492 0.707-0.532-0.167 1.703 0.139 3.26 0.901 4.653 0.651 1.179 1.493 2.239 2.537 3.176l9.906-9.878L27.36 14.959999999999999C26.887999999999998 15.328999999999999 26.348 15.75 25.727999999999998 16.218L25.727999999999998 16.218zM12.796999999999999 10.722999999999999c-0.155 0.413-0.31 0.826-0.465 1.243C12.181999999999999 12.383 12.097999999999999 12.616999999999999 12.086 12.673 12.113999999999999 12.721 12.213 12.836 12.367999999999999 13.01 12.530999999999999 13.181 12.622 13.296 12.649999999999999 13.352c0.012 0.099-0.044 0.337-0.171 0.707-0.123 0.369-0.373 0.647-0.738 0.838-0.48 0.179-0.929 0.214-1.346 0.103-0.417-0.103-0.75-0.242-1.008-0.413-0.254-0.175-0.389-0.266-0.397-0.286L13.023 9.91l0.016 0.143C13.030999999999999 10.088 12.952 10.311 12.796999999999999 10.722999999999999z" /></svg>