<svg xmlns="http://www.w3.org/2000/svg" width="100%" height="100%" viewBox="0 0 30.72 30.72"><path d="M15.36 3.3599999999999994C11.549999999999999 3.3809999999999993 9.088999999999999 5.9399999999999995 9.088999999999999 9.805c0 3.201 2.088 5.94 3.277 10.1 0.684 2.385 1.052 5.303 1.242 7.455h3.504c0.192-2.152 0.558-5.07 1.241-7.455 1.189-4.16 3.277-6.898 3.277-10.1C21.631 5.9399999999999995 19.17 3.3809999999999993 15.36 3.3599999999999994z m0.02 9.852c-1.584 0-2.869-1.286-2.869-2.869 0-1.582 1.285-2.867 2.869-2.867 1.585 0 2.869 1.283 2.869 2.867s-1.285 2.869-2.869 2.869z" /></svg>