<svg xmlns="http://www.w3.org/2000/svg" width="100%" height="100%" viewBox="0 0 30.72 30.72"><path d="M15.36 3.3599999999999994C8.733 3.3599999999999994 3.3599999999999994 8.73 3.3599999999999994 15.36s5.373 12 12 12c6.63 0 12-5.37 12-12S21.99 3.3599999999999994 15.36 3.3599999999999994z m-0.84 4.67h1.68v8.36h-1.68V8.03zM15.36 21.515c-3.24-0.002-5.865-2.63-5.864-5.868 0-2.64 1.767-4.956 4.314-5.655v1.71c-1.628 0.64-2.698 2.21-2.695 3.96 0 2.345 1.903 4.244 4.248 4.243 2.344-0.002 4.244-1.903 4.243-4.248 0-1.745-1.07-3.312-2.694-3.95V9.989999999999998c2.55 0.7 4.314 3.018 4.314 5.66 0 3.24-2.626 5.864-5.865 5.864z" /></svg>