<svg xmlns="http://www.w3.org/2000/svg" width="100%" height="100%" viewBox="0 0 30.72 30.72"><path d="M15.014 3.5339999999999994V5.736999999999999H13.042v0.58h1.972V8.52h0.696V6.316999999999999h1.97v-0.58h-1.97V3.5339999999999994h-0.348z m6.03 2.262l-0.002 1.623v1.623h-2.957v0.927h2.957v3.188H22.085l0.011-1.582 0.02-1.576 1.465-0.02 1.46-0.01v-0.927H22.088V5.795999999999999h-0.522z m-12.407 0.06V9.046H5.651v0.925H8.637V13.161h0.985V9.969999999999999h3.013v-0.925H9.622V5.856H9.129999999999999z m6.086 5.27v3.593H11.42v1.188h3.304v3.596h1.28v-3.596H19.313v-1.188H16.003V11.126h-0.637z m9.721 1.55v2.221h-2.012v0.811h2.012v2.261h0.887v-2.261H27.36v-0.811h-2.029V12.677h-0.422z m-19.111 0.131V14.981H3.3599999999999994v0.621H5.332999999999999v2.194H6v-2.194h2v-0.62H5.968999999999999V12.806h-0.318z m15.709 4.516v3.254h-3.016v0.927h3.016v3.217h1.072v-3.216H25.099999999999998v-0.928H22.114v-3.254h-0.533z m-12.463 0.008v3.246H5.622v0.928h2.957v3.189H9.68v-3.189h2.955v-0.928H9.68V17.33h-0.55z m6.316 4.578l0.002 1.103v1.1H12.926v0.812h1.971v2.262h0.928l0.012-1.119 0.017-1.143H17.823v-0.812h-2V21.909h-0.465z" /></svg>