<svg xmlns="http://www.w3.org/2000/svg" width="100%" height="100%" viewBox="0 0 30.72 30.72"><path d="M26.56 3.7599999999999993l0.8 0.4v10.4c0 4.442-2.312 6.957-4.796 8.08h0.004l-6.097 3.51a8.977 8.977 0 0 1-0.142 0.082l-0.069 0.04 0.001-0.002C14.946 26.997 13.508 27.36 12.16 27.36c-4 0-8.8-3.2-8.8-9.6V8.16l1.6 0.8v8.8c0 6.4 4.8 8 7.2 8 1.487 0 3.895-0.614 5.512-2.604C14.705 22.458 11.36 19.903 11.36 14.559999999999999V5.119999999999999L4.959999999999999 8.959999999999999 3.3599999999999994 8.16 11.36 3.3599999999999994l0.8 0.4 0.8 0.4v10.4c0 5.552 3.612 6.89 5.614 7.147 0.487-1.05 0.786-2.349 0.786-3.947V7.359999999999999l1.6 0.8v9.6c0 1.482-0.257 2.793-0.703 3.932C22.28 21.399 25.759999999999998 20.009999999999998 25.759999999999998 14.559999999999999V5.159999999999999l-4.8 3L19.36 7.359999999999999l6.4-4z" /></svg>