<svg xmlns="http://www.w3.org/2000/svg" width="100%" height="100%" viewBox="0 0 30.72 30.72"><path d="M13.164 22.564999999999998c-0.112-0.111-0.186-0.26-0.297-0.372-0.889-0.894-2.259-1.34-4.11-1.34-1.816 0-3.186 0.446-4.075 1.34-0.111 0.112-0.185 0.223-0.296 0.372z m2.88-0.044V8.524h2.959V10.26c0.406-0.702 0.887-1.219 1.479-1.588a4.057 4.057 0 0 1 2.034-0.517c1.516 0 2.7 0.517 3.55 1.514 0.85 0.997 1.294 2.4 1.294 4.173 0 1.736-0.444 3.102-1.294 4.136-0.85 1.034-1.997 1.551-3.402 1.551-0.851 0-1.554-0.147-2.145-0.48-0.592-0.295-1.11-0.812-1.516-1.477 0.037 0.259 0.073 0.554 0.073 0.886 0 0.296 0.037 0.665 0.037 1.071v2.955h-3.069z m2.81-8.679c0 0.96 0.222 1.699 0.703 2.253 0.481 0.517 1.147 0.812 1.96 0.812 0.85 0 1.516-0.258 1.96-0.812 0.48-0.517 0.703-1.293 0.703-2.253 0-0.96-0.222-1.699-0.703-2.253-0.48-0.554-1.146-0.812-1.997-0.812-0.813 0-1.479 0.295-1.96 0.85-0.444 0.48-0.665 1.255-0.665 2.215zM11.09 8.561v5.577c0 0.923-0.185 1.588-0.555 1.994-0.37 0.406-0.961 0.628-1.775 0.628-0.813 0-1.405-0.185-1.775-0.591-0.37-0.407-0.555-1.071-0.555-2.031V8.559999999999999H3.3599999999999994v5.577c0 1.661 0.333 2.88 0.998 3.767 0.111 0.11 0.185 0.258 0.296 0.369 0.888 0.886 2.256 1.33 4.105 1.33 1.812 0 3.18-0.444 4.068-1.33 0.11-0.111 0.185-0.222 0.296-0.37 0.665-0.886 0.998-2.142 0.998-3.766V8.559999999999999Z" /></svg>