<svg xmlns="http://www.w3.org/2000/svg" width="100%" height="100%" viewBox="-3.36 -3.36 30.72 30.72"><path d="M0 2.75v5.09c0 1.92 1.34 3.19 3.08 3.19.85 0 1.61-.33 2.15-.9v.76h1.21V2.75H5.22v5.02c0 1.29-.87 2.16-2 2.16-1.14 0-2-.85-2-2.16V2.75H0m7.35 0v8.14H8.5v-.75a2.96 2.96 0 002.13.89 3.09 3.09 0 003.11-3.1 3.09 3.09 0 00-3.11-3.1c-.83 0-1.57.34-2.13.88V2.75H7.35m9.91 2.09c-1.76 0-3.05 1.41-3.05 3.08 0 1.77 1.37 3.08 3.15 3.08 1.08 0 1.97-.46 2.56-1.25l-.85-.63c-.44.59-1.02.88-1.71.88-1 0-1.8-.73-1.96-1.69h4.82v-.39c0-1.76-1.25-3.08-2.96-3.08m6.19.07c-.65 0-1.12.3-1.41.78v-.73h-1.17v5.93h1.18V7.5c0-.9.56-1.5 1.32-1.5h.49V4.91h-.41m-6.22.95c.88 0 1.61.61 1.81 1.52h-3.62c.21-.91.94-1.52 1.81-1.52m-6.68.02c1.11 0 2.03.9 2.03 2.05 0 1.14-.92 2.07-2.03 2.07A2.04 2.04 0 018.5 7.93c0-1.15.92-2.05 2.05-2.05M0 12.96v8.14h5.72v-1.39H1.55v-2.02h4.06v-1.35H1.55v-1.99h4.17v-1.39H0m14.56.42v1.71H13.4v1.36h1.16v3.2c0 .81.57 1.45 1.6 1.45h1.64v-1.36h-1.14c-.35 0-.57-.16-.57-.48v-2.81h1.71v-1.36h-1.71v-1.71h-1.53m-5.24 1.56c-1.79 0-3.2 1.4-3.2 3.16 0 1.75 1.41 3.15 3.2 3.15.72 0 1.39-.25 1.92-.69v.54h1.52v-6.01h-1.52v.54a2.96 2.96 0 00-1.92-.69m11.72 0c-1.59 0-2.7.65-2.7 1.92 0 .87.61 1.44 1.93 1.72l1.45.34c.57.11.72.26.72.5 0 .37-.44.61-1.13.61-.87 0-1.37-.2-1.57-.86h-1.53c.22 1.25 1.15 2.08 3.05 2.08 1.74 0 2.74-.83 2.74-1.99 0-.82-.58-1.43-1.81-1.69l-1.29-.27c-.75-.14-.99-.3-.99-.56 0-.36.36-.58 1.03-.58.72 0 1.25.2 1.4.84h1.52c-.08-1.23-.99-2.06-2.82-2.06M9.45 16.26c1.01 0 1.82.81 1.82 1.84s-.81 1.83-1.82 1.83a1.82 1.82 0 01-1.83-1.83c0-1.03.83-1.84 1.83-1.84z"/></svg>