<svg xmlns="http://www.w3.org/2000/svg" width="100%" height="100%" viewBox="0 0 30.72 30.72"><path d="M3.3599999999999994 15.36C3.3599999999999994 8.882 8.722999999999999 3.6789999999999994 15.36 3.6789999999999994S27.36 8.882 27.36 15.36c0 6.476-5.363 11.681-12 11.681S3.3599999999999994 21.837 3.3599999999999994 15.36z m11.734 3.98c-1.168 0-2.123-0.104-2.76-0.211-0.744-0.158-1.223-0.584-1.541-1.168-0.266-0.586-0.424-1.539-0.371-2.814 0-0.689 0.053-1.327 0.104-1.965 0.108-0.636 0.16-1.167 0.267-1.594l0.105-0.424v-0.052c0-0.105-0.105-0.213-0.212-0.213l-1.54-0.212h-0.052c-0.105 0-0.213 0.105-0.266 0.16 0 0.104-0.053 0.159-0.104 0.371-0.108 0.478-0.161 0.902-0.267 1.486-0.109 0.685-0.163 1.378-0.159 2.071 0 0-0.053 0.159 0 1.434s0.266 2.283 0.69 3.08c0.425 0.742 1.116 1.326 2.124 1.645 1.01 0.32 2.389 0.479 4.142 0.479h0.213c1.753 0 3.132-0.158 4.14-0.479 1.01-0.318 1.701-0.902 2.126-1.645 0.425-0.795 0.638-1.805 0.69-3.08 0.053-1.275 0-1.434 0-1.434 0-0.743-0.104-1.435-0.16-2.069-0.105-0.638-0.158-1.063-0.266-1.487-0.053-0.212-0.053-0.319-0.105-0.371 0-0.107-0.105-0.16-0.266-0.16h-0.053l-1.54 0.212c-0.105 0-0.213 0.107-0.213 0.213v0.052l0.106 0.424c0.106 0.427 0.158 0.957 0.266 1.593 0.105 0.639 0.105 1.275 0.105 1.965 0 1.275-0.104 2.177-0.371 2.814-0.266 0.586-0.795 1.01-1.539 1.168-0.639 0.16-1.594 0.213-2.762 0.213h-0.531v-0.002z" /></svg>