<svg xmlns="http://www.w3.org/2000/svg" width="100%" height="100%" viewBox="-3 -3 30 30"><path d="M0 11.982A12 12 0 1112 24 12 12 0 010 11.982zm11.756 4.11a11.856 11.856 0 01-2.773-.25 2.12 2.12 0 01-1.514-1.218q-.41-.943-.396-2.895a18.419 18.419 0 01.127-2.04q.118-.988.236-1.629l.082-.425a.201.201 0 000-.038.244.244 0 00-.201-.236l-1.544-.246H5.74a.243.243 0 00-.235.189 6.517 6.517 0 00-.089.409c-.088.455-.17.9-.26 1.548a19.99 19.99 0 00-.176 2.12 11.165 11.165 0 000 1.486q.05 1.977.675 3.155.626 1.179 2.106 1.695 1.482.517 4.135.506h.22q2.655.01 4.134-.506 1.478-.518 2.1-1.695.623-1.178.678-3.147a11.165 11.165 0 000-1.485 19.99 19.99 0 00-.176-2.121 30.014 30.014 0 00-.26-1.548 6.724 6.724 0 00-.088-.41.243.243 0 00-.236-.188h-.04l-1.548.242a.236.236 0 00-.203.236.201.201 0 000 .037l.081.426q.118.643.236 1.63a18.709 18.709 0 01.126 2.039q.019 1.95-.396 2.892a2.12 2.12 0 01-1.502 1.22 11.82 11.82 0 01-2.769.247z"/></svg>