<svg xmlns="http://www.w3.org/2000/svg" width="100%" height="100%" viewBox="0 0 30.72 30.72"><path d="M6.7219999999999995 3.3599999999999994A3.371 3.371 0 0 0 3.3599999999999994 6.7219999999999995v1.73c0.014-0.001 0.025-0.005 0.04-0.004 1.101 0.021 2.029 0.786 2.523 2.008 0.518 1.282 0.623 2.637 0.724 3.948l0.086 1.348c0.05 0.903 0.103 1.837 0.234 2.752l0.077 0.474 0.16-0.002 0.077-0.476c0.143-0.86 0.249-1.736 0.351-2.583l0.12-1.085c0.134-1.29 0.273-2.623 0.684-3.883l0.033-0.102c0.124-0.396 0.296-0.938 0.847-1.097 0.687-0.197 1.233 0.163 1.45 0.582 0.594 1.143 0.717 2.433 0.836 3.681l0.082 0.812 0.121 1.226c0.081 0.888 0.165 1.806 0.345 2.698h0.16l0.115-0.638 0.064-0.37 0.113-0.642c0.118-0.68 0.24-1.382 0.412-2.066l0.053-0.23c0.114-0.504 0.258-1.131 0.775-1.465 0.362-0.234 0.691-0.284 0.977-0.15 0.815 0.384 1.13 2.127 1.233 2.7l0.024 0.13 0.111 0.574c0.136 0.706 0.275 1.438 0.483 2.15l0.022 0.08c0.06 0.205 0.12 0.415 0.208 0.62l0.086 0.2 0.299-0.96c0.342-1.19 0.769-2.673 2.233-2.396 0.848 0.16 1.122 0.969 1.323 1.559l0.085 0.243 0.07 0.209c0.177 0.542 0.505 1.552 1.227 1.512 0.761-0.042 1.53-0.116 2.272-0.189 0.725-0.07 1.475-0.142 2.216-0.184 0.22-0.013 0.434-0.022 0.649-0.033V6.7219999999999995A3.372 3.372 0 0 0 23.998 3.3599999999999994zM3.3599999999999994 9.61v14.388A3.372 3.372 0 0 0 6.7219999999999995 27.36h17.276A3.372 3.372 0 0 0 27.36 23.998v-3.703c-1.315 0.064-2.602 0.169-3.849 0.286l-0.31 0.032c-0.689 0.074-1.547 0.165-2.101-0.157-0.731-0.426-1.028-1.057-1.291-1.72l-0.119-0.378c-0.092-0.321-0.207-0.721-0.364-0.986l-0.073-0.124-0.102 0.196a7.8 7.8 0 0 0-0.407 1.013l-0.064 0.203c-0.18 0.59-0.555 1.817-1.29 2.119-0.303 0.125-0.644 0.075-1.015-0.149-0.641-0.387-0.838-1.098-0.996-1.668l-0.026-0.088c-0.2-0.718-0.344-1.457-0.483-2.17l-0.106-0.54-0.08-0.432-0.166-0.774h-0.12c-0.177 0.691-0.315 1.403-0.429 2.089-0.158 0.954-0.322 1.941-0.646 2.886-0.266 0.773-0.721 1.085-1.392 0.952-0.593-0.117-0.754-0.68-0.86-1.052-0.34-1.193-0.46-2.442-0.575-3.65l-0.122-1.197c-0.1-0.866-0.203-1.76-0.368-2.655l-0.023-0.129c-0.048-0.258-0.101-0.552-0.173-0.828l-0.076-0.295-0.08 0.294c-0.126 0.463-0.2 0.945-0.273 1.41l-0.017 0.108a73.463 73.463 0 0 0-0.347 2.652 69.26 69.26 0 0 1-0.365 2.75l-0.031 0.251c-0.07 0.594-0.202 1.7-0.795 2.13-0.25 0.181-0.566 0.221-0.937 0.123-1.189-0.32-1.26-1.731-1.308-2.666l-0.023-0.37-0.12-1.753c-0.07-1.181-0.143-2.402-0.348-3.597l-0.005-0.025c-0.12-0.698-0.246-1.418-0.61-2.077-0.359-0.521-1.06-0.69-1.06-0.69Z" /></svg>