<svg xmlns="http://www.w3.org/2000/svg" width="100%" height="100%" viewBox="0 0 30.72 30.72"><path d="M15.251 16.823c3.757 0 4.854-1.347 5.065-1.674l-1.36-4.334c-0.36 0.34-1.327 0.937-3.68 0.937-2.292 0-3.188-0.567-3.52-0.91l-1.39 4.422c0.228 0.361 1.255 1.56 4.885 1.56zM15.277 7.167a6.143 6.143 0 0 0 2.376-0.507L16.795 3.9259999999999993a0.781 0.781 0 0 0-0.406-0.437S16.274 3.3599999999999994 15.392 3.3599999999999994s-1.055 0.136-1.055 0.136a0.733 0.733 0 0 0-0.41 0.43l-0.884 2.815a6.77 6.77 0 0 0 2.234 0.426zM25.95 26.679a0.395 0.395 0 0 0-0.016-0.16l-2.334-7.632a0.647 0.647 0 0 0-0.583-0.431h-1.663l0.2 0.64c-0.24 0.485-1.488 2.38-6.303 2.38-4.6 0-5.828-1.73-6.11-2.308l0.223-0.712H7.702999999999999a0.647 0.647 0 0 0-0.583 0.431L4.786 26.52a0.398 0.398 0 0 0-0.017 0.15l-0.002 0.02a1.843 1.843 0 0 0 0.024 0.226 0.528 0.528 0 0 0 0.51 0.445H25.419999999999998a0.528 0.528 0 0 0 0.51-0.445 1.843 1.843 0 0 0 0.023-0.226z" /></svg>