<svg xmlns="http://www.w3.org/2000/svg" width="100%" height="100%" viewBox="0 0 30.72 30.72"><path d="M15.36 3.3599999999999994A12 12 0 0 0 3.3599999999999994 15.36 12 12 0 0 0 15.36 27.36 12 12 0 0 0 27.36 15.36 12 12 0 0 0 15.36 3.3599999999999994M19.61 4.4799999999999995C19.93 4.4799999999999995 20.259999999999998 4.51 20.47 4.579999999999999 18.299999999999997 5.029999999999999 16.57 7.049999999999999 16.58 9.36 16.58 9.41 16.58 9.469999999999999 16.59 9.53 20.23 10.419999999999998 21.86 12.61 21.86 15.639999999999999 21.9 18.67 19.5 22 15.45 22.009999999999998 12.18 22.02 8.77 19.22 8.75 14.729999999999999 8.739999999999998 11.76 10.36 8.899999999999999 12.399999999999999 7.209999999999999 14.399999999999999 5.549999999999999 17.13 4.489999999999999 19.61 4.4799999999999995Z" /></svg>