<svg xmlns="http://www.w3.org/2000/svg" width="100%" height="100%" viewBox="0 0 30.72 30.72"><path d="M10.192 9.36c0-0.161 0.008-0.322 0.023-0.479 0.019-0.207 0.07-0.401 0.112-0.599l-0.694-1.377H3.3599999999999994l2.182 3.818h1.527l2.097 3.98a6.534 6.534 0 0 1 1.727-2.745A5.123 5.123 0 0 1 10.192 9.36zM13.725 23.023L15.36 25.997l1.637-2.975c-0.535 0.138-1.079 0.234-1.637 0.234s-1.101-0.096-1.635-0.233zM21.088 6.904999999999999l-0.717 1.258c0.056 0.238 0.112 0.476 0.134 0.726a5.148 5.148 0 0 1-0.677 3.07 6.565 6.565 0 0 1 1.727 2.746l2.097-3.981h1.527L27.36 6.904999999999999h-6.272zM21.206 15.366999999999999a6 6 0 0 0-2.073-3.31A4.64 4.64 0 0 0 15.36 4.722999999999999 4.635 4.635 0 0 0 10.722999999999999 9.36a4.62 4.62 0 0 0 0.865 2.697A5.988 5.988 0 0 0 9.36 16.723a6.01 6.01 0 0 0 3.814 5.592 6.02 6.02 0 0 0 4.375-0.003 6.006 6.006 0 0 0 3.657-6.945zM15.36 7.587c1.129 0 2.046 0.917 2.046 2.045a2.046 2.046 0 0 1-4.092 0c0-1.128 0.918-2.045 2.046-2.045z m0 11.456a2.32 2.32 0 0 1 0-4.637c1.282 0 2.318 1.037 2.318 2.318S16.642 19.043 15.36 19.043z" /></svg>