<svg xmlns="http://www.w3.org/2000/svg" width="100%" height="100%" viewBox="0 0 30.72 30.72"><path d="M14.758 3.361999999999999C12.833 3.3879999999999995 8.690999999999999 3.7039999999999993 6.373999999999999 5.827 4.654 7.536999999999999 4.052999999999999 10.058 3.9829999999999997 13.18c-0.06 3.11-0.13 8.95 5.5 10.541v2.42s-0.038 0.97 0.602 1.17c0.79 0.25 1.24-0.499 1.99-1.299l1.4-1.58c3.85 0.32 6.8-0.419 7.14-0.529 0.78-0.25 5.181-0.811 5.901-6.652 0.74-6.031-0.36-9.831-2.34-11.551l-0.01-0.002c-0.6-0.55-3-2.3-8.37-2.32 0 0-0.396-0.025-1.038-0.016z m0.067 1.697c0.545-0.003 0.88 0.02 0.88 0.02 4.54 0.01 6.711 1.38 7.221 1.84 1.67 1.429 2.528 4.856 1.9 9.892-0.6 4.88-4.17 5.19-4.83 5.4-0.28 0.09-2.88 0.73-6.152 0.52 0 0-2.439 2.941-3.199 3.701-0.12 0.13-0.26 0.17-0.35 0.15-0.13-0.03-0.17-0.19-0.16-0.41l0.02-4.019c-4.771-1.32-4.491-6.302-4.441-8.902 0.06-2.6 0.55-4.732 2-6.172 1.957-1.77 5.475-2.01 7.11-2.02z m0.36 2.6a0.299 0.299 0 0 0-0.3 0.299 0.3 0.3 0 0 0 0.3 0.3 5.631 5.631 0 0 1 4.03 1.59c1.09 1.06 1.621 2.48 1.641 4.34a0.3 0.3 0 0 0 0.3 0.3v-0.009a0.3 0.3 0 0 0 0.3-0.3 6.451 6.451 0 0 0-1.81-4.76c-1.19-1.16-2.692-1.76-4.462-1.76z m-3.954 0.69a0.955 0.955 0 0 0-0.615 0.12h-0.012c-0.41 0.24-0.788 0.54-1.148 0.94-0.27 0.32-0.421 0.639-0.461 0.949a1.24 1.24 0 0 0 0.05 0.541l0.02 0.01a13.722 13.722 0 0 0 1.2 2.6 15.383 15.383 0 0 0 2.32 3.171l0.03 0.04 0.04 0.03 0.03 0.03 0.03 0.03a15.603 15.603 0 0 0 3.18 2.33c1.32 0.72 2.122 1.06 2.602 1.2v0.01c0.14 0.04 0.268 0.06 0.398 0.06a1.84 1.84 0 0 0 1.102-0.472c0.39-0.35 0.7-0.738 0.93-1.148v-0.01c0.23-0.43 0.15-0.841-0.18-1.121a13.632 13.632 0 0 0-2.15-1.54c-0.51-0.28-1.03-0.11-1.24 0.17l-0.45 0.569c-0.23 0.28-0.65 0.24-0.65 0.24l-0.012 0.01c-3.12-0.8-3.95-3.959-3.95-3.959s-0.04-0.43 0.25-0.65l0.56-0.45c0.27-0.22 0.46-0.74 0.17-1.25a13.522 13.522 0 0 0-1.54-2.15 0.843 0.843 0 0 0-0.504-0.3z m4.473 0.89a0.3 0.3 0 0 0 0.002 0.6 3.78 3.78 0 0 1 2.65 1.15 3.5 3.5 0 0 1 0.9 2.57 0.3 0.3 0 0 0 0.3 0.299l0.01 0.012a0.3 0.3 0 0 0 0.3-0.301c0.03-1.19-0.34-2.19-1.07-2.99-0.73-0.8-1.75-1.25-3.05-1.34a0.3 0.3 0 0 0-0.042 0z m0.49 1.619a0.305 0.305 0 0 0-0.018 0.611c0.99 0.05 1.47 0.55 1.53 1.58a0.3 0.3 0 0 0 0.3 0.29h0.01a0.3 0.3 0 0 0 0.29-0.32c-0.07-1.34-0.8-2.091-2.1-2.161a0.305 0.305 0 0 0-0.012 0z" /></svg>