<svg xmlns="http://www.w3.org/2000/svg" width="100%" height="100%" viewBox="0 0 30.72 30.72"><path d="M3.3599999999999994 11.939v6.842h24V11.94z m1.8 1.415h0.793l0.776 3.044 0.76-3.044h0.836l-1.227 4.029H6.359999999999999z m5.488 0h1.084l1.145 4.034h-0.814l-0.27-1.007H10.588s-0.21 0.81-0.254 0.99c-0.242 0.017-0.83 0-0.83 0z m4.184 0h0.792v3.352h1.69v0.677h-2.482z m3.45 0h0.816l0.776 3.005 0.754-3.005h0.815l-1.222 4.034h-0.716z m4.828 0h1.69v0.522h-1.084v0.584h0.99v0.523h-0.99v0.6h1.084v0.523h-1.69z m-11.902 0.68l-0.426 1.702h0.89z" /></svg>