<svg xmlns="http://www.w3.org/2000/svg" width="100%" height="100%" viewBox="0 0 30.72 30.72"><path d="M27.36 15.346h-0.027l-4.318-4.318 4.303-4.414V4.821l-0.649-0.648h-8.198l-0.66 0.605v1.045L15.375 3.3869999999999996V3.3599999999999994L15.36 3.373999999999999 15.346 3.3599999999999994v0.027l-1.29 1.291-0.538-0.539H5.395l-0.638 0.692v1.885l0.616 0.616h0.72v5.31L3.3869999999999996 15.347H3.3599999999999994L3.373999999999999 15.36 3.3599999999999994 15.373999999999999h0.027l2.706 2.706v6.467l0.907 0.523h2.322l1.857-1.904 4.166 4.166V27.36l0.015-0.014 0.014 0.014v-0.028l2.51-2.509h0.485c0.111 0 0.211-0.07 0.25-0.179l0.146-0.426c0.028-0.084 0.012-0.172-0.037-0.239l1.462-1.462-0.612 1.962c-0.043 0.141 0.036 0.289 0.177 0.332 0.025 0.008 0.052 0.012 0.078 0.012h1.824c0.106-0.001 0.201-0.064 0.243-0.163l0.165-0.394c0.025-0.065 0.024-0.138-0.004-0.203-0.027-0.065-0.08-0.116-0.146-0.142-0.029-0.012-0.062-0.019-0.097-0.02h-0.075l0.84-2.644h1.232l-1.016 3.221c-0.043 0.141 0.036 0.289 0.176 0.332 0.025 0.008 0.052 0.012 0.079 0.012h2.002c0.11 0 0.207-0.066 0.248-0.17l0.164-0.428c0.051-0.138-0.021-0.29-0.158-0.341-0.029-0.011-0.06-0.017-0.091-0.017h-0.145l1.131-3.673c0.027-0.082 0.012-0.173-0.039-0.24l-0.375-0.504-0.003-0.005c-0.051-0.064-0.127-0.102-0.209-0.102h-1.436c-0.071 0-0.141 0.03-0.19 0.081l-0.4 0.439h-0.624l-0.042-0.046 4.445-4.445H27.36L27.346 15.36l0.014-0.014zM13.197999999999999 24.499l1.579-4.509h-0.501l0.297-0.304h1.659l-1.563 4.555h0.623l-0.079 0.258H13.197999999999999z m3.695-7.516l0.15 0.151-0.269 0.922-0.225 0.226h-0.969l-0.181-0.181 0.311-0.871 0.288-0.247h0.895zM8.95 24.189H7.236999999999999l-0.262-0.15V6.451H5.738999999999999l-0.1-0.1V5.174999999999999l0.143-0.154h7.371l0.213 0.214v1.108l-0.142 0.173H12.145v8.688l8.807-8.688h-2.086l-0.175-0.188V5.164999999999999l0.121-0.111h7.49l0.132 0.133v1.07L16.339 16.61h-0.373c-0.015-0.001-0.028 0-0.042 0.001l-0.02 0.003c-0.045 0.01-0.086 0.03-0.119 0.06l-0.343 0.295-0.004 0.003c-0.033 0.031-0.059 0.069-0.073 0.111l-0.296 0.83-6.119 6.276z m14.768-3.952l0.474-0.519h1.334l0.309 0.415-1.265 4.107h0.493l-0.08 0.209H23.2l1.124-3.564h-2.015l-1.077 3.391h0.424l-0.073 0.174h-1.605l1.107-3.548h-2.096l-1.062 3.339h0.436l-0.072 0.209H16.63l1.514-4.46H17.558l0.091-0.271h1.65l0.519 0.537h0.906l0.491-0.554h1.061l0.489 0.535h0.953z" /></svg>