<svg xmlns="http://www.w3.org/2000/svg" width="100%" height="100%" viewBox="0 0 30.72 30.72"><path d="M15.36 3.3599999999999994a0.477 0.477 0 0 0-0.188 0.047L5.529999999999999 7.6339999999999995c-0.265 0.169-0.378 0.363-0.372 0.692l0.832 10.278c0.009 0.107 0.047 0.165 0.128 0.25l3.564 2.713s0.015 2.015 0.455 2.806C10.469 24.97 12.011999999999999 27.393 15.36 27.36c3.348-0.033 4.988-2.03 5.484-3.028 0.47-0.946 0.46-2.912 0.46-2.912l3.255-2.548a0.31 0.31 0 0 0 0.14-0.258l0.86-10.31c0.026-0.312-0.103-0.57-0.368-0.685L15.540999999999999 3.4069999999999996A0.435 0.435 0 0 0 15.36 3.3599999999999994z m-0.051 1.078c0.054 0.002 0.108 0.02 0.188 0.056l7.417 3.429L15.491999999999999 12.26c-0.115 0.058-0.166 0.049-0.264 0l-7.35-4.264c-0.113-0.074-0.12-0.125 0-0.197l7.234-3.314a0.534 0.534 0 0 1 0.197-0.047z m0.01 0.688L9.265 7.951l6.042 3.49 6.067-3.48z m0 0.375l5.232 2.46-3.262 1.82-1.04-0.557 1.764-2.208-2.138 0.838L16.999 6.459999999999999l-3.252 1.346 1.1-1.15-0.978-0.45z m-1.837 0.849l0.784 0.388-2.115 2.098 3.615-1.492-1.246 1.502 2.237-0.932-1.136 1.419 1.232 0.666-1.56 0.885-5.148-2.946z m-6.93 3.902c0.029 0 0.072 0.02 0.135 0.054l7.28 4.577 0.017 7.818-6.853-5.057c-0.077-0.073-0.104-0.098-0.103-0.193l-0.52-7.137c0-0.043 0.015-0.062 0.044-0.062z m17.592 0.086c0.03 0 0.042 0.02 0.043 0.062l-0.495 7.027c0 0.096-0.026 0.12-0.103 0.193l-6.843 5.081 0.043-7.805 7.219-4.504a0.348 0.348 0 0 1 0.136-0.054z m-0.805 3.206l-0.177 0.126-0.133 0.442-0.049-0.315-0.226 0.15 0.145 0.598-0.224 0.915 0.233-0.195 0.085-0.527 0.064 0.413 0.278-0.184-0.195-0.682z m-15.71 0.249c-0.12-0.011-0.19 0.127-0.169 0.37 0.028 0.327 0.21 0.72 0.408 0.877l0.419 0.33c0.2 0.158 0.338 0.018 0.307-0.313-0.03-0.33-0.216-0.724-0.414-0.879l-0.417-0.323a0.265 0.265 0 0 0-0.134-0.062z m0.075 0.235a0.173 0.173 0 0 1 0.087 0.041l0.397 0.31c0.129 0.101 0.25 0.358 0.27 0.57 0.02 0.215-0.07 0.304-0.199 0.202l-0.4-0.315c-0.128-0.101-0.246-0.354-0.264-0.566-0.014-0.158 0.03-0.249 0.109-0.242z m14.823 0.103c0-0.035-0.074 0.01-0.115 0.04-0.16 0.123-0.358 0.559-0.372 1.068-0.015 0.556 0.11 0.619 0.263 0.514 0.162-0.11 0.382-0.492 0.39-1.026 0.007-0.409-0.166-0.491-0.166-0.596z m-0.713 0.067s-0.439 0.19-0.44 0.295c-0.01 0.65-0.07 1.968-0.07 1.968l0.332-0.251s0.329-0.218 0.334-0.82c0.003-0.386-0.126-0.31-0.126-0.31s0.104-0.218 0.106-0.514c0.005-0.445-0.136-0.368-0.136-0.368z m0.602 0.214c0.115 0 0.094 0.268 0.092 0.446-0.002 0.175-0.088 0.576-0.18 0.643-0.093 0.068-0.1-0.243-0.098-0.423 0.003-0.173 0.074-0.666 0.186-0.666z m-0.72 0.075s0.08-0.05 0.073 0.214a0.829 0.829 0 0 1-0.088 0.328l-0.134 0.09 0.006-0.538z m-0.512 0.021l-0.229 0.14-0.06 1.843s-0.014 0.184 0.036 0.222c0.072 0.056 0.267-0.173 0.267-0.173l-0.004-0.21s-0.075 0.018-0.072-0.058zM8.61 14.52l0.112 1.196 0.14 0.111-0.091-0.988 0.461 0.363a0.47 0.47 0 0 1 0.137 0.287c0.01 0.108-0.033 0.154-0.098 0.103l-0.396-0.313 0.477 0.936 0.205 0.163-0.32-0.617 0.063 0.05c0.137 0.107 0.23 0.013 0.208-0.213-0.022-0.225-0.15-0.496-0.287-0.602z m13.049 0.78s0.1-0.024 0.09 0.279c-0.008 0.257-0.09 0.338-0.09 0.338l-0.152 0.11 0.013-0.62z m-0.95 0.174c-0.042-0.012-0.102 0.006-0.189 0.077-0.107 0.07-0.305 0.38-0.305 0.38l0.008 0.19s0.114-0.141 0.171-0.187c0.221-0.22 0.165 0.09 0.165 0.09l-0.005 0.099-0.156 0.146s-0.231 0.227-0.243 0.658c-0.006 0.206 0.068 0.35 0.18 0.265 0.11-0.082 0.247-0.33 0.247-0.33l0.004 0.144 0.19-0.17 0.013-1.02s0.043-0.307-0.08-0.342z m-10.704 0.126c-0.035-0.028-0.066-0.027-0.08 0.004l-0.334 0.8 0.167 0.133 0.273-0.671 0.254 0.69-0.38-0.3 0.105 0.28 0.386 0.307 0.103 0.28 0.17 0.134-0.572-1.518a0.338 0.338 0 0 0-0.092-0.139z m10.054 0.35l-0.18 0.132-0.01 1.078s-0.098 0.19-0.14 0.217c-0.072 0.047-0.07-0.107-0.07-0.107l0.015-1.02-0.192 0.145-0.015 1.02s-0.011 0.457 0.182 0.313a0.779 0.779 0 0 0 0.222-0.323l0.017 0.128 0.154-0.11z m-0.806 0.11l-0.164 0.108-0.066 0.489-0.077 0.049v0.023l-0.152 0.095c-0.06 0.093-0.098 0.38-0.098 0.38l0.002-0.288-0.175 0.124-0.04 1.483 0.198-0.143 0.043-0.877s0.032-0.211 0.098-0.321l0.107-0.086 0.017-0.309 0.002 0.155 0.066-0.056-0.008 0.945s-0.015 0.314 0.15 0.204c0.057-0.039 0.213-0.23 0.213-0.23L19.36 17.612000000000002s-0.076 0.071-0.1 0.086c-0.037 0.023-0.036-0.058-0.036-0.058l0.021-0.915 0.11-0.077-0.003-0.24-0.096 0.06z m-8.551 0.14c-0.124-0.012-0.197 0.13-0.171 0.384 0.035 0.339 0.232 0.748 0.44 0.913l0.449 0.353 0.062-0.15-0.524-0.415c-0.134-0.107-0.263-0.37-0.286-0.59-0.023-0.219 0.07-0.31 0.203-0.206l0.423 0.333 0.062-0.15-0.517-0.408a0.28 0.28 0 0 0-0.141-0.064z m9.85 0.172v0.357s-0.107 0.126-0.156 0.155c-0.048 0.029-0.06-0.055-0.06-0.129a0.457 0.457 0 0 1 0.118-0.293z m-2.226 0.171c-0.067 0.048-0.123 0.188-0.124 0.313 0 0.125 0.053 0.187 0.12 0.14 0.068-0.048 0.125-0.188 0.126-0.314 0-0.125-0.054-0.188-0.122-0.139z m-6.887 0.189l0.12 1.12a0.296 0.296 0 0 0 0.087 0.178l0.673 0.532 0.062-0.152-0.686-0.543-0.11-1.022z m6.684 0.109l-0.213 0.156s-0.022 0.371-0.182 1.69c-0.132-0.98-0.132-1.45-0.132-1.45l-0.246 0.163 0.152 1.803 0.365-0.208z m0.259 0.298l-0.197 0.141-0.062 1.505 0.197-0.142z m-5.911 0.446c-0.127-0.013-0.198 0.133-0.169 0.392 0.039 0.346 0.244 0.765 0.457 0.934l0.46 0.364 0.064-0.154-0.541-0.426c-0.114-0.09-0.225-0.29-0.273-0.485l0.636 0.5 0.062-0.153-0.724-0.57c0.01-0.146 0.094-0.196 0.207-0.107l0.436 0.343 0.062-0.152-0.534-0.418a0.292 0.292 0 0 0-0.143-0.068z m0.769 0.587c-0.013 0.013-0.02 0.042-0.015 0.081a0.351 0.351 0 0 0 0.105 0.21c0.048 0.038 0.08 0.006 0.07-0.073a0.36 0.36 0 0 0-0.105-0.212c-0.024-0.018-0.042-0.02-0.055-0.006z m0.015 0.032c0.01-0.01 0.026-0.01 0.045 0.004 0.038 0.03 0.074 0.104 0.08 0.165 0.008 0.063-0.016 0.088-0.055 0.058-0.012-0.01-0.015-0.035-0.025-0.051l0.006 0.004-0.006-0.06 0.015 0.01 0.025 0.078 0.022 0.017-0.03-0.084h0.004c0.008-0.002 0.009-0.013 0.008-0.019v-0.013a0.122 0.122 0 0 0-0.025-0.058 0.12 0.12 0 0 0-0.026-0.025l-0.023-0.02 0.015 0.137c-0.015-0.03-0.037-0.05-0.04-0.08-0.005-0.032 0-0.053 0.01-0.063z m0.036 0.047l0.006 0.004c0.01 0.008 0.013 0.011 0.018 0.017a0.07 0.07 0 0 1 0.01 0.026c0 0.006 0.002 0.01 0 0.013-0.002 0.006-0.009 0.002-0.015-0.002l-0.013-0.01z" /></svg>