<svg xmlns="http://www.w3.org/2000/svg" width="100%" height="100%" viewBox="0 0 30.72 30.72"><path d="M25.676 9.283c-0.01-0.014-0.027-0.024-0.04-0.035a0.412 0.412 0 0 0-0.06-0.047L15.583 3.4209999999999994a0.427 0.427 0 0 0-0.08-0.033C15.488 3.3799999999999994 15.472999999999999 3.3799999999999994 15.459999999999999 3.3749999999999996a0.41 0.41 0 0 0-0.325 0.046l-9.992 5.78a0.418 0.418 0 0 0-0.143 0.141c-0.015 0.014-0.02 0.034-0.028 0.05a0.423 0.423 0 0 0-0.048 0.191v11.56a0.418 0.418 0 0 0 0.007 0.05c0.007 0.14 0.088 0.266 0.212 0.331l9.992 5.78a0.555 0.555 0 0 0 0.487 0l9.888-5.756a0.437 0.437 0 0 0 0.284-0.406V9.582999999999998a0.408 0.408 0 0 0-0.119-0.3zM5.81 20.375V10.35l8.665 5.012-8.665 5.012z m10.452-5.023l8.648-5.001v10.024c-2.905-1.676-5.634-3.268-8.648-5.023z m-0.46-0.757V4.571l8.666 5.012z m-0.885 0L6.2509999999999994 9.582999999999998l8.666-5.012z m0 1.535v10.024l-8.665-5.012z m0.925 0.023l5.477 3.168 3.129 1.821-8.606 5.01Z" /></svg>