<svg xmlns="http://www.w3.org/2000/svg" width="100%" height="100%" viewBox="0 0 30.72 30.72"><path d="M9.989999999999998 13.202c-1.104 0-2 0.945-2 2.101v0.108c0 1.322 0.846 2.038 1.974 2.1 0.051 0.007 0.108 0.007 0.16 0.007 0.435 0 0.794-0.115 1.195-0.361 0.04-0.023 0.201-0.132 0.361-0.338 0.132-0.166 0.138-0.411 0-0.543-0.2-0.189-0.412-0.086-0.595 0.074-0.292 0.246-0.516 0.442-1.1 0.442-0.55 0-1.064-0.316-1.19-0.94 0-0.023 0.01-0.045 0.034-0.045H11.52a0.473 0.473 0 0 0 0.47-0.504c0-1.156-0.894-2.1-1.999-2.1z m4.466 0c-1.1 0-1.996 0.945-1.996 2.101v0.108c0 1.322 0.846 2.038 1.974 2.1 0.052 0.007 0.11 0.007 0.16 0.007 0.435 0 0.795-0.115 1.196-0.361 0.04-0.023 0.2-0.132 0.361-0.338 0.132-0.166 0.137-0.411 0-0.543-0.2-0.189-0.413-0.086-0.596 0.074-0.292 0.246-0.515 0.442-1.1 0.442-0.549 0-1.063-0.316-1.189-0.94-0.006-0.023 0.01-0.045 0.028-0.045h2.691a0.473 0.473 0 0 0 0.47-0.504c-0.007-1.156-0.9-2.1-1.999-2.1z m-6.89 0.04a0.4 0.4 0 0 0-0.344 0.223l-1.42 3.063c-0.034 0.063-0.062 0.11-0.136 0.11-0.075 0-0.105-0.047-0.14-0.11l-1.42-3.057a0.38 0.38 0 0 0-0.53-0.177 0.428 0.428 0 0 0-0.172 0.56l1.39 2.828 0.16 0.32a0.8 0.8 0 0 0 0.712 0.46 0.791 0.791 0 0 0 0.709-0.46l0.16-0.32 1.385-2.834a0.423 0.423 0 0 0-0.166-0.56 0.376 0.376 0 0 0-0.188-0.045z m11.362 0a0.762 0.762 0 0 0-0.504 0.188 0.808 0.808 0 0 0-0.207 0.27l-1.59 3.137c0 0.005-0.007 0.006-0.007 0.01v0.007a0.434 0.434 0 0 0 0.03 0.442c0 0.005 0.005 0.006 0.005 0.01 0 0.007 0.006 0.005 0.006 0.01a0.372 0.372 0 0 0 0.516 0.077s0.005 0 0.005-0.006a0.083 0.083 0 0 0 0.024-0.017l0.015-0.018 0.006-0.006a0.485 0.485 0 0 0 0.076-0.103l0.057-0.125 0.332-0.7c0.006-0.017 0.028-0.027 0.045-0.027h1.484c0.195 0 0.354-0.167 0.354-0.379 0-0.206-0.159-0.377-0.354-0.377h-1.099a0.033 0.033 0 0 1-0.03-0.046l0.08-0.172 0.602-1.207v-0.006s0-0.006 0.006-0.006c0.011-0.023 0.04-0.108 0.098-0.125 0.034-0.012 0.063-0.012 0.086 0 0.063 0.017 0.084 0.091 0.113 0.148l1.455 3.022a0.393 0.393 0 0 0 0.48 0.195s0.006 0 0.006-0.006l0.035-0.017c0.006 0 0.007-0.006 0.012-0.006 0 0 0.006 0 0.006-0.006 0.006 0 0.006-0.006 0.012-0.006s0.01-0.004 0.01-0.01c0.006 0 0.006-0.006 0.011-0.006 0.006-0.006 0.012-0.012 0.018-0.012l0.017-0.017 0.006-0.006a0.408 0.408 0 0 0 0.092-0.498l-1.598-3.154a0.79 0.79 0 0 0-0.709-0.45z m3.508 0c-0.39 0-0.709 0.332-0.709 0.778v3.018c0 0.183 0.104 0.354 0.264 0.406 0.263 0.086 0.486-0.143 0.486-0.412l-0.058-2.938a0.03 0.03 0 0 1 0.052-0.017l1.442 2.93c0.137 0.28 0.367 0.449 0.625 0.449 0.257 0 0.49-0.167 0.623-0.448l1.449-2.935c0.01-0.029 0.05-0.019 0.05 0.016l-0.056 2.955c0 0.234 0.177 0.423 0.389 0.412 0.206-0.006 0.367-0.207 0.367-0.43V14.02c0.01-0.452-0.31-0.77-0.7-0.777a0.684 0.684 0 0 0-0.61 0.394c-0.361 0.739-1.426 2.93-1.426 2.936-0.006 0.01-0.03 0.064-0.075 0.064-0.04 0-0.068-0.047-0.074-0.064-0.35-0.727-1.047-2.164-1.408-2.908-0.143-0.287-0.38-0.422-0.63-0.422z m-12.45 0.647c0.697 0 1.14 0.527 1.208 1.145 0 0.023-0.012 0.045-0.035 0.045H8.829999999999998c-0.023-0.006-0.033-0.022-0.033-0.045 0.074-0.607 0.49-1.145 1.19-1.145z m4.47 0h0.002c0.697 0.001 1.138 0.527 1.207 1.145 0 0.023-0.013 0.045-0.035 0.045H13.299999999999999c-0.023-0.006-0.04-0.022-0.034-0.045 0.075-0.606 0.493-1.144 1.19-1.145z" /></svg>