<svg xmlns="http://www.w3.org/2000/svg" width="100%" height="100%" viewBox="0 0 30.72 30.72"><path d="M27.36 4.406999999999999L19.03 21.439999999999998l-3.474-8.53-3.474 8.53L3.7529999999999992 4.4079999999999995l3.228 8.977 3.286 8.5C7.234 22.694 4.691999999999999 23.82 3.3599999999999994 25.11c0.443-0.168 3.47-1.24 7.409-1.927l1.21 3.129 1.552-3.518a36.769 36.769 0 0 1 3.96-0.204l1.644 3.722 1.4-3.62c2.132 0.145 3.861 0.426 4.675 0.692 0 0 0.92-1.962 1.338-2.866a54.838 54.838 0 0 0-5.138-0.092l2.722-7.042z m-21.84 0.026L12 17.22l3.568-9.155 3.567 9.155 6.481-12.788-6.433 8.452-3.615-8.22-3.615 8.22z m10.036 13.776l1.115 2.523a42.482 42.482 0 0 0-2.363 0.306Z" /></svg>