<svg xmlns="http://www.w3.org/2000/svg" width="100%" height="100%" viewBox="0 0 30.72 30.72"><path d="M15.45 16.479c-0.936 1.932-2.217 4.548-2.853 5.728-0.616 1.074-1.127 0.931-1.532 0.029-1.406-3.321-4.293-9.144-5.651-12.409-0.251-0.601-0.441-0.987-0.619-1.139-0.181-0.15-0.554-0.24-1.122-0.271C3.4629999999999996 8.393 3.3599999999999994 8.341999999999999 3.3599999999999994 8.258v-0.455l0.052-0.045c0.924-0.005 5.401 0 5.401 0l0.051 0.045v0.434c0 0.119-0.075 0.176-0.225 0.176l-0.564 0.031c-0.485 0.029-0.727 0.164-0.727 0.436 0 0.135 0.053 0.33 0.166 0.601 1.082 2.646 4.818 10.521 4.818 10.521l0.136 0.046 2.411-4.81-0.482-1.067-1.658-3.264s-0.318-0.654-0.428-0.872c-0.728-1.443-0.712-1.518-1.447-1.617-0.207-0.023-0.313-0.05-0.313-0.149v-0.468l0.06-0.045h4.292l0.113 0.037v0.451c0 0.105-0.076 0.15-0.227 0.15l-0.308 0.047c-0.792 0.061-0.661 0.381-0.136 1.422l1.582 3.252 1.758-3.504c0.293-0.64 0.233-0.801 0.111-0.947-0.07-0.084-0.305-0.22-0.812-0.24l-0.201-0.021c-0.052 0-0.098-0.015-0.145-0.051-0.045-0.031-0.067-0.076-0.067-0.129v-0.427l0.061-0.045c1.247-0.008 4.043 0 4.043 0l0.059 0.045v0.436c0 0.121-0.059 0.178-0.193 0.178-0.646 0.03-0.782 0.095-1.023 0.439-0.12 0.186-0.375 0.589-0.646 1.039l-2.301 4.273-0.065 0.135 2.792 5.712 0.17 0.048 4.396-10.438c0.154-0.422 0.129-0.722-0.064-0.895-0.197-0.172-0.346-0.273-0.857-0.295l-0.42-0.016c-0.061 0-0.105-0.014-0.152-0.045-0.043-0.029-0.072-0.075-0.072-0.119v-0.436l0.059-0.045h4.961l0.041 0.045v0.437c0 0.119-0.074 0.18-0.209 0.18-0.648 0.03-1.127 0.18-1.443 0.421-0.314 0.255-0.557 0.616-0.736 1.067 0 0-4.043 9.258-5.426 12.339-0.525 1.007-1.053 0.917-1.503-0.031-0.571-1.171-1.773-3.786-2.646-5.71l0.053-0.036z" /></svg>