<svg xmlns="http://www.w3.org/2000/svg" width="100%" height="100%" viewBox="-3.36 -3.36 30.72 30.72"><path d="M21.463 8.653c-.627 0-1.211.511-1.297 1.135l-.637 4.647c-.07.506-.313.945-.727 1.317-.415.372-.882.558-1.4.558-.504 0-.913-.182-1.224-.547-.313-.365-.433-.808-.361-1.329l.385-2.82c.012-.563-.411-1.003-.993-1.003h-1.525c-.582 0-1.127.44-1.27 1.003l-.397 2.82a2.113 2.113 0 01-.729 1.329c-.414.365-.872.547-1.376.547a1.55 1.55 0 01-1.234-.558c-.319-.372-.443-.811-.373-1.317l.854-6.166c.091-.6-.265-1.228-.808-1.482 0 0-6.43-2.68-6.849-2.853-.425-.174-.906.216-1.07.866L.039 6.351C-.126 7 .246 7.739.863 7.992l4.31 1.784-.646 4.659c-.217 1.563.15 2.899 1.1 4.008.95 1.11 2.203 1.664 3.76 1.664 1.437 0 2.748-.483 3.934-1.451.947.968 2.133 1.451 3.555 1.451 1.556 0 2.962-.554 4.22-1.664 1.257-1.109 1.995-2.446 2.211-4.008 0 0 .675-4.917.688-5.003.059-.429-.406-.779-1.032-.779h-1.5z"/></svg>