<svg xmlns="http://www.w3.org/2000/svg" width="100%" height="100%" viewBox="0 0 30.72 30.72"><path d="M16.085 3.3599999999999994C14.474 3.3599999999999994 12.91 3.6769999999999996 11.437999999999999 4.302999999999999a11.892 11.892 0 0 0-3.793 2.573A11.986 11.986 0 0 0 4.1499999999999995 15.36a11.986 11.986 0 0 0 3.496 8.484 11.892 11.892 0 0 0 3.793 2.573c1.472 0.626 3.042 0.943 4.652 0.943 0.867 0 1.718-0.094 2.565-0.28v-2.534a9.524 9.524 0 0 1-2.565 0.353 9.406 9.406 0 0 1-6.71-2.795A9.502 9.502 0 0 1 6.6 15.36a9.5 9.5 0 0 1 2.778-6.744 9.398 9.398 0 0 1 6.707-2.795c4.439 0 8.037 3.618 8.037 8.082 0 1.647-0.49 3.181-1.332 4.459l-2.09-5.166c-0.306-0.755-0.67-1.895-2.059-1.895-1.387 0-1.75 1.14-2.054 1.895l-1.922 4.771-2.578-6.544h-2.71l3.213 7.95c0.326 0.807 0.68 1.897 2.077 1.897 1.395 0 1.747-1.09 2.072-1.896l1.904-4.727 1.914 4.727c0.387 0.973 0.797 1.894 2.07 1.894 0.903 0 1.475-0.583 1.788-0.959a10.54 10.54 0 0 0 2.156-6.406C26.57 8.079999999999998 21.875999999999998 3.3599999999999994 16.085 3.3599999999999994Z" /></svg>