<svg xmlns="http://www.w3.org/2000/svg" width="100%" height="100%" viewBox="0 0 30.72 30.72"><path d="M12.408 18.563a2.952 2.952 0 1 1 5.904 0 2.952 2.952 0 0 1-5.904 0z m11.749 0.064v-0.388h-0.006a8.726 8.726 0 0 0-0.639-2.985 8.745 8.745 0 0 0-1.706-2.677l0.004-0.004-0.186-0.185-0.044-0.045-0.026-0.026-0.204-0.204-0.006 0.007c-0.848-0.756-1.775-1.129-2.603-1.461-1.294-0.519-2.138-0.857-2.534-2.467 0.443 0.033 0.839 0.174 1.13 0.481C18.930999999999997 10.356 14.681 3.3599999999999994 14.681 3.3599999999999994s-1.063 3.985-2.362 5.461c-0.654 0.744 0.22 0.273 1.453-0.161 0.279 1.19 0.77 2.119 1.49 2.821 0.791 0.771 1.729 1.148 2.556 1.48 0.672 0.27 1.265 0.508 1.767 0.916l-0.593 0.594-0.668-0.668-0.668 2.463 2.463-0.668-0.668-0.668 0.6-0.599a6.285 6.285 0 0 1 1.614 3.906h-0.844v-0.944l-2.214 1.27 2.214 1.269v-0.944h0.844a6.283 6.283 0 0 1-1.614 3.906l-0.6-0.599 0.668-0.668-2.463-0.668 0.668 2.463 0.668-0.668 0.6 0.6a6.263 6.263 0 0 1-3.907 1.618v-0.848h0.945L15.36 21.81l-1.27 2.214h0.944v0.848a6.266 6.266 0 0 1-3.906-1.618l0.599-0.6 0.668 0.668 0.668-2.463-2.463 0.668 0.668 0.668-0.6 0.599a6.29 6.29 0 0 1-1.615-3.906h0.844v0.944l2.214-1.269-2.214-1.27v0.944h-0.843a6.292 6.292 0 0 1 1.615-3.906l0.6 0.599-0.668 0.668 2.463 0.668-0.668-2.463-0.668 0.668-2.359-2.358-0.23 0.229-0.044 0.045-0.185 0.185 0.004 0.004a8.749 8.749 0 0 0-2.345 5.662h-0.006v0.649h0.006a8.749 8.749 0 0 0 2.345 5.662l-0.004 0.004 0.185 0.185 0.045 0.045 0.045 0.045 0.185 0.185 0.004-0.004a8.73 8.73 0 0 0 2.677 1.707 8.75 8.75 0 0 0 2.985 0.639V27.36h0.649v-0.006a8.75 8.75 0 0 0 2.985-0.639 8.717 8.717 0 0 0 2.677-1.707l0.004 0.004 0.187-0.187 0.044-0.043 0.043-0.044 0.187-0.186-0.004-0.004a8.733 8.733 0 0 0 1.706-2.677 8.726 8.726 0 0 0 0.639-2.985h0.006v-0.259z" /></svg>