<svg xmlns="http://www.w3.org/2000/svg" width="100%" height="100%" viewBox="0 0 30.72 30.72"><path d="M15.36 27.36C8.701999999999998 27.36 3.3599999999999994 21.942 3.3599999999999994 15.36 3.3599999999999994 8.701999999999998 8.701999999999998 3.3599999999999994 15.36 3.3599999999999994s12 5.342 12 12c0 6.582-5.342 12-12 12z m0-21.986c-5.497 0-9.987 4.489-9.987 9.986 0 5.498 4.49 9.988 9.987 9.988 5.498 0 9.987-4.49 9.987-9.988 0-5.497-4.489-9.986-9.987-9.986z m5.885 11.148H12.572999999999999c-0.384 0-0.695-0.309-0.698-0.691v-1.012c0-0.387 0.311-0.697 0.698-0.697h8.748c0.387 0 0.697 0.311 0.697 0.697v1.006c-0.077 0.387-0.387 0.697-0.773 0.697z m-2.246-3.871H10.251c-0.383 0.002-0.697-0.307-0.698-0.691V10.95c0-0.311 0.31-0.621 0.697-0.621h8.748c0.31 0 0.62 0.311 0.62 0.619v1.006c0.001 0.386-0.31 0.697-0.619 0.697z m-8.748 5.418h8.748c0.388 0 0.696 0.311 0.696 0.697v1.006c0.002 0.383-0.309 0.695-0.691 0.697H10.251c-0.388-0.076-0.697-0.387-0.697-0.773V18.689999999999998c-0.001-0.31 0.309-0.621 0.697-0.621z" /></svg>