<svg xmlns="http://www.w3.org/2000/svg" width="100%" height="100%" viewBox="0 0 30.72 30.72"><path d="M15.3814 4.7722c-1.064 0-0.6118 1.5783-0.5273 2.0925 0 0.025 0.0857 3.5707 0.1024 4.3789 0.1619-0.0429 0.3226-0.0822 0.4761-0.119l0.3214-0.081c0.0154-0.782 0.094-4.1658 0.0964-4.1837 0.0702-0.551 0.6272-2.0877-0.469-2.0877z m-0.3118 12.0405c0.119-0.0405 0.238-0.0762 0.3452-0.1107l0.2297-0.0714c0-0.2274 0.069-3.372 0.0809-3.9433a7.2271 7.2271 0 0 0-0.732 0.2107c0.0083 0.4285 0.0702 3.5719 0.0762 3.9147z m0.3928 1.1926c-0.0405 0.0143-0.144 0.0583-0.2095 0.081-0.0655 0.0226-0.1571 0.0606-0.1571 0.0845 0 0.0238 0.0666 3.6195 0.0666 3.6992 0 0.744 0.3785 0.7487 0.3785 0 0-0.0535 0.0762-3.9159 0.0762-3.9159s-0.0905 0.0298-0.1547 0.0512z m-0.8558-10.1468a5.4953 5.4953 0 0 0-0.8332 0.3392c-0.2975 0.0988-0.7141 0.119-1.151 0.588a5.8905 5.8905 0 0 0-0.3963 0.5094c-0.131 0.188-0.1369 0.4904-0.238 0.6535-0.1381 0.238-0.1048 0.3701-0.1048 0.3701v0.0072a0.632 0.632 0 0 1-0.1595 0.2952 0.6046 0.6046 0 0 1-0.5546 0.2213c0.1975 0.0988 0.476-0.0392 0.476-0.0392a3.6433 3.6433 0 0 0-0.1047 0.3927c0.2214-0.501 0.425-0.6843 0.488-0.7355 0.0952 0.0214 0.2928 0.013 0.6594-0.1976 0.4142-0.238 1.0367-0.6249 1.2129-0.87a1.6175 1.6175 0 0 1 0.7332-0.5535c-0.0131-0.3773-0.0203-0.7035-0.0274-0.9808zM12.8593 9.4237L12.644 9.469999999999999l0.257-0.413 0.3 0.0095z m1.2795 8.64c0 0.4665 0.3452 0.714 0.6892 0.9128 0-0.0785-0.0143-0.801-0.0143-0.8129 0.0071-0.144 0.1464-0.2309 0.2595-0.2845a5.6 5.6 0 0 1 0.5463-0.2082c0.1023-0.0358 0.1892-0.0703 0.2868-0.0988 0.6904-0.2083 1.489-0.4761 1.489-1.3093 0-0.8332-0.6844-1.1902-1.4283-1.4438 0 0.2678-0.013 0.6594-0.019 0.9296 0.3166 0.119 0.526 0.275 0.526 0.5142 0 0.3011-0.3213 0.476-0.5486 0.5618a5.9252 5.9252 0 0 1-0.2797 0.0976c-0.1833 0.0571-0.381 0.119-0.5654 0.1904a2.7126 2.7126 0 0 0-0.2797 0.119c-0.3285 0.1643-0.663 0.406-0.6618 0.832z m4.5753-8.1496c0-0.8534-0.619-1.8009-2.1365-2.1353a3.6528 3.6528 0 0 0-0.463-0.0536c0 0.1286-0.0095 0.4237-0.0095 0.4237 0 0.0929-0.0095 0.4345-0.012 0.5083a2.1424 2.1424 0 0 1 0.2917 0.0404c0.882 0.2107 1.1974 0.7142 1.1974 1.2165 0 0.8105-0.6927 1.1164-1.5473 1.3473l-0.2821 0.0738c-0.2583 0.0643-0.5237 0.1262-0.7868 0.1964a10.782 10.782 0 0 0-0.2797 0.0797c-0.9438 0.288-1.7556 0.7427-1.7556 1.9044 0 1.1617 0.926 1.5878 1.8294 1.8663q-0.0083-0.4987-0.019-1.0022c-0.3988-0.1868-0.6797-0.4332-0.6797-0.8474 0-0.4142 0.256-0.6499 0.6475-0.8332a3.0192 3.0192 0 0 1 0.2786-0.1083c0.225-0.0762 0.476-0.1416 0.7439-0.2059l0.282-0.0678c1.2724-0.2976 2.7007-0.6963 2.7007-2.4031z m-2.8482 9.5362c0.4284 0.2166 0.8236 0.5165 0.989 1.0843 0.0726-0.9403-0.4546-1.3474-0.9771-1.6223l-0.012 0.538zM22.8799 8.649999999999999c0.4595 0.5475 1.2629 0.87 1.733 1.4188-0.3368-1.6223-1.589-2.947-3.0696-3.2637 0.7225 0.544 0.8784 1.2998 1.3366 1.845zM5.083499999999999 12.7623c1.02-2.2198 2.5423-1.7497 3.1862-3.8647-0.357 0.6487-2.0234 0.9224-2.7982 2.5852 0.394-0.988 0.1964-2.4995 0.863-3.3148-1.9926 1.47-1.144 3.848-1.251 4.5943z m1.8472 5.324c0.1833 0.864-0.357 2.1114 0.5 3.304-0.8856-0.9926-2.7614-1.245-3.5256-2.7542 0.9522 3.6898 3.4517 2.928 4.5694 3.729-0.9237-1.327-0.1679-2.209-1.5438-4.2789z m-0.2868 2.315c-0.5463-2.0603 0.4273-2.7745-0.3166-4.7503-0.0774 1.114-0.8201 1.6568-0.319 3.6898C5.123899999999999 17.6197 3.7562999999999995 16.9769 3.3599999999999994 15.7938c0.0274 3.2351 2.6269 3.7148 3.2839 4.6075z m3.992 3.4517c-0.7653-1.0594-0.238-1.658-2.3923-3.5815 0.4546 0.7023-0.0143 1.5854 1.4354 2.959-1.4188-0.8332-3.3755-0.4761-4.3194-1.5962 1.6211 3.103 4.4694 1.8366 5.2763 2.2222z m10.4051-0.6225c1.4497-1.3736 0.9808-2.2615 1.4354-2.959-2.1495 1.9235-1.627 2.5221-2.3923 3.5815 0.807-0.3857 3.6552 0.8807 5.2751-2.2187-0.9427 1.1213-2.8994 0.763-4.3182 1.5997z m2.2484-1.8437c0.8534-1.1903 0.3166-2.44 0.4999-3.3041-1.376 2.0698-0.6201 2.9518-1.5473 4.2848 1.1236-0.801 3.6135-0.0416 4.5693-3.729-0.763 1.5069-2.6364 1.7592-3.522 2.7519z m-3.435 2.6126a10.617 10.617 0 0 0-2.3508-0.3571 5.6834 5.6834 0 0 0-2.1424 0.3642 5.687 5.687 0 0 0-2.1424-0.3642 10.617 10.617 0 0 0-2.3508 0.357c-1.2938 0.344-2.4114 0.6106-3.3862 0.119 0.9343 0.8332 2.0234 1.1249 3.5981 0.9523 1.3093-0.1405 2.3698-0.7963 3.6052-0.7868h0.0488a6.6023 6.6023 0 0 0-2.0377 1.5842l0.5952 0.0798s0.6272-1.2605 2.0698-1.589c1.4426 0.3285 2.0698 1.589 2.0698 1.589l0.5951-0.0798a6.6213 6.6213 0 0 0-2.0377-1.5758h0.0488c1.2355-0.0096 2.2936 0.6463 3.604 0.7867 1.5748 0.1702 2.665-0.1262 3.5994-0.9522-0.9748 0.4868-2.0925 0.2202-3.3863-0.1238zM6.415299999999999 13.4169c-0.5333 1.0236-1.3617 1.2581-1.27 3.3767-0.45-1.883-1.5188-2.5804-1.5057-3.7813-0.7427 3.1303 1.2426 3.5016 1.752 4.8133-0.075-1.8794 1.1248-2.259 1.0236-4.4087z m0.745-2.4162c-0.1856 0.2595-0.3154 0.3702-0.8105 0.7785a4.0194 4.0194 0 0 0-1.4426 2.353c0.0512-1.1473-0.6582-2.7958-0.1869-3.998-1.8246 2.577 0.1048 4.1207 0.1726 5.0538 0.4737-1.796 1.5616-1.8103 2.2674-4.1873z m18.6511 3.1316A4.0254 4.0254 0 0 0 24.37 11.7792c-0.4951-0.4083-0.6249-0.519-0.8105-0.7785 0.7058 2.3805 1.7937 2.3912 2.2614 4.1873 0.0679-0.9331 1.9972-2.4769 0.1714-5.0537 0.4761 1.202-0.232 2.8506-0.1809 3.998z m1.5473 1.6663c-0.3963 1.1831-1.764 1.8258-2.6483 3.5517 0.5011-2.0377-0.238-2.5805-0.319-3.6898-0.7439 1.9782 0.238 2.6888-0.3166 4.7503 0.6582-0.9022 3.2577-1.3819 3.2851-4.617z m-3.0506-2.3817c-0.1011 2.1496 1.0998 2.5293 1.0236 4.404 0.5106-1.3093 2.4995-1.683 1.752-4.8134 0.0143 1.201-1.0545 1.9044-1.5008 3.7754 0.0833-2.1079-0.7451-2.3424-1.2748-3.366zM7.8424 8.655999999999999c0.4607-0.5474 0.6166-1.3009 1.3379-1.8448-1.4807 0.3166-2.7376 1.6413-3.0697 3.2636 0.463-0.5546 1.2677-0.8772 1.727-1.4247z m14.6126 0.2476c0.644 2.1151 2.1663 1.645 3.1851 3.8648-0.106-0.7463 0.7427-3.1244-1.2497-4.5944 0.6665 0.8165 0.469 2.327 0.8629 3.3148-0.7773-1.6687-2.44-1.9424-2.803-2.5911z m-5.1692 1.195a4.9895 4.9895 0 0 0-1.2176-0.3273v0.2714a4.761 4.761 0 0 1 1.1188 0.307 0.7141 0.7141 0 0 0 0.0988-0.251zM16.9775 7.4799999999999995l0.081-0.0726-0.1548-0.0655-0.407-0.0083-0.106 0.0738-0.238-0.0202v0.0583a4.136 4.136 0 0 1 0.419 0.044l0.1987-0.0178z m-0.789 8.778c0-0.069-0.0917-0.1368-0.2274-0.2011h-0.025c0 0.056 0 0.332-0.0084 0.4666 0.1679-0.075 0.2607-0.156 0.2607-0.2655zM11.4726 11.0805a1.2997 1.2997 0 0 1 0.0345-0.1488 0.6891 0.6891 0 0 1-0.1666 0.0167z m3.8956 11.9738a8.3031 8.3031 0 0 0 0.8463-16.5598c0 0.0155 0 0.0321-0.0095 0.0476-0.0167 0.081-0.0322 0.1535-0.044 0.2178a8.0163 8.0163 0 0 1 4.8359 2.2615l-0.9165 0.9165 0.0345-0.162-0.119-0.0523-0.1643-0.0095 0.0345-0.106-0.1106-0.3749-0.2286-0.2511-0.7141-0.3773-0.062 0.0655-0.1296 0.038a2.1424 2.1424 0 0 1 0.3785 1.2034v0.163l0.357 0.4464-0.1666 0.038 0.1107 0.1667-0.313 0.3118-0.1262-0.238a2.133 2.133 0 0 1-0.238 0.4678l0.0702 0.0642-0.9653 0.9653a3.2917 3.2917 0 0 0-0.181-0.1607 4.5833 4.5833 0 0 1-0.2832 0.119l0.0821 0.0643-0.0488 0.0488-0.119 0.0631-0.0417 0.119-0.0702-0.0702-0.2035 0.0679 0.056 0.0892 0.1404-0.0369 0.0916 0.0072 0.0072-0.05 0.0702-0.0357 0.0214-0.0417 0.1262-0.0357h0.0988c0.019 0.0167 0.0392 0.0345 0.057 0.0524l-0.388 0.369-0.0285-0.0405-0.4 0.0654-0.0892 0.0893-0.0869 0.0107 0.2476-0.238-0.088-0.044-0.2322 0.3094 0.0679-0.0071v0.119l0.0845 0.0333 0.0166 0.119-0.1392-0.0273-0.1452 0.0261-0.3571-0.1797-0.0286 1.4164c0.8332 0.2785 1.708 0.6808 1.708 1.7378a1.3093 1.3093 0 0 1-0.595 1.1164l-0.018 0.0119-0.0261 0.0179c-0.3357 0.2213-0.7665 0.3404-1.1403 0.457l-0.0107 0.7403c0.5951 0.2952 1.3152 0.7249 1.2486 1.9544-0.0084 0.3023-0.1262 0.3856-0.2274 0.413a6.2511 6.2511 0 0 1-1.0712 0.1702v0.2702a6.6499 6.6499 0 0 0 4.1397-1.8282l0.964 0.9641a8.0186 8.0186 0 0 1-11.1049 0.0226l0.9641-0.964a6.6451 6.6451 0 0 0 4.0814 1.8031v-0.2702a6.3785 6.3785 0 0 1-3.8945-1.7222l0.257-0.2583 0.3572 0.0405 0.188-0.2024 0.4928 0.0167 0.0726-0.1702-0.0179-0.0726a4.999 4.999 0 0 0 2.5102 1.0033v-0.2713a4.7526 4.7526 0 0 1-2.7042-1.2403l0.9653-0.9652a3.4338 3.4338 0 0 0 0.782 0.5249 0.913 0.913 0 0 1 0.0976-0.2536 3.1208 3.1208 0 0 1-0.6892-0.463l0.9677-0.9664a1.7687 1.7687 0 0 0 0.5166 0.2868v-0.2904a1.4842 1.4842 0 0 1-0.319-0.1893l0.2725-0.2725a6.7378 6.7378 0 0 1-0.288-0.0929l-0.1833 0.1833a1.4759 1.4759 0 0 1-0.2309-0.344 3.2815 3.2815 0 0 1-0.476-0.2547 1.8675 1.8675 0 0 1-0.9035-1.6401 1.9687 1.9687 0 0 1 0.3904-1.2498l-0.9617-0.9617a4.7502 4.7502 0 0 1 2.5757-1.2664c0-0.0928 0-0.1845-0.006-0.2714a5.0204 5.0204 0 0 0-2.76 1.3498l-0.1631-0.1595a4.504 4.504 0 0 0-0.1297 0.2511l0.1023 0.1036a5.0145 5.0145 0 0 0-1.364 3.3552H8.9696a6.382 6.382 0 0 1 1.7699-4.3253l0.4332 0.4345a0.5487 0.5487 0 0 0 0.062 0 0.6546 0.6546 0 0 0 0.2463-0.0715l-0.551-0.551a6.488 6.488 0 0 1 0.9521-0.7594 1.7925 1.7925 0 0 1 0.0679-0.2 3.2053 3.2053 0 0 1 0.2083-0.2797 6.6653 6.6653 0 0 0-1.4188 1.0462l-0.9641-0.964a7.9984 7.9984 0 0 1 4.7729-2.2377 2.1298 2.1298 0 0 1-0.012-0.0595c-0.0118-0.0631-0.0261-0.1333-0.0392-0.2071a8.3043 8.3043 0 0 0 0.8665 16.5622z m1.7985-5.731v-0.0071z m4.0206-8.108a8.0056 8.0056 0 0 1 2.2198 5.4561h-1.37a6.626 6.626 0 0 0-0.7141-2.9137l0.0119-0.0238 0.094 0.05 0.0226-0.0726-0.238-0.4273-0.2892-0.3999-0.3428-0.2797c-0.119-0.1452-0.238-0.2857-0.3654-0.4213z m-1.7437 1.7462l0.3273 0.0143 0.0786 0.094-0.0393 0.1392 0.4511 0.2857 0.0893-0.0107 0.5832 0.6665 0.238-0.0833a6.3559 6.3559 0 0 1 0.5952 2.6042h-1.364a4.9728 4.9728 0 0 0-0.1274-1.0378l0.063-0.0846 0.0846-0.4272-0.0643-0.4595-0.1642-0.5284-0.381-0.557 0.093 0.0487 0.0463-0.0464-0.3059-0.2071-0.0202 0.0678 0.3059 0.4369 0.1726 0.357 0.119 0.3571 0.0393 0.238 0.063 0.4024-0.119 0.0083s-0.132-0.2464-0.1725-0.3476l0.0607-0.0916-0.119-0.1666V12.466999999999999l-0.0834-0.1047-0.1035 0.013a2.924 2.924 0 0 0-0.119-0.2035l0.0737 0.037 0.019-0.0191-0.0392-0.0857 0.0893-0.05-0.0405-0.05-0.1321 0.05 0.0488-0.207-0.0786-0.0453-0.0702 0.1654a5.0752 5.0752 0 0 0-0.4963-0.6308z m-0.2737 3.1981l0.2451-0.1333 0.25-0.038 0.0547-0.119 0.1393-0.0834 0.0536-0.119 0.0428-0.2012a4.071 4.071 0 0 1 0.0548 0.2155l-0.1321 0.394v0.1332l0.1916-0.2559a4.611 4.611 0 0 1 0.0678 0.7142h-1.1902l-0.0274-0.1036 0.1393-0.1107 0.0273-0.0666 0.0607-0.0452 0.162-0.0167 0.0166-0.0714z m-1.6378-0.9367l0.119-0.0285v-0.0286l-0.119-0.0821 0.0416-0.2571 0.1464-0.1464a3.2327 3.2327 0 0 1 0.2536 0.3297l-0.0512 0.1583-0.1333-0.0952-0.1012 0.0273 0.05 0.094h0.05l-0.056 0.1393-0.038-0.056z m0.5225 4.5313l-0.2952-0.0833-0.088 0.032-0.1667-0.1273-0.1571-0.056c0.0774-0.0559 0.1524-0.119 0.225-0.176l0.238 0.1713 0.1857 0.0976 0.0916 0.0917z m-0.15-5.2633l0.9653-0.9653a4.8121 4.8121 0 0 1 0.5951 0.8023l-0.119 0.0333 0.006 0.2154 0.357 0.2286a4.6657 4.6657 0 0 1 0.2262 0.6094l-0.0631 0.0928-0.131 0.0833-0.032 0.2-0.0893 0.05-0.075 0.088-0.075-0.0273h-0.1333l0.0774-0.1048 0.0559-0.2725 0.088-0.0548-0.2487-0.2559-0.194 0.0655-0.044 0.182-0.119 0.1322-0.1274-0.1048-0.0452-0.1118 0.0726-0.0453 0.0404 0.0738 0.0595-0.0226-0.0261-0.119h-0.0845l-0.006 0.05-0.056 0.0107-0.3035-0.3559-0.1023-0.0774 0.0393-0.0428 0.0904-0.031-0.0833-0.0333s-0.106 0.0238-0.119 0.0238l0.0607 0.0762h-0.1524a3.2982 3.2982 0 0 0-0.3047-0.3928z m0.4916 5.136l-0.131-0.131 0.1-0.1298 0.1262-0.257-0.0488-0.0715 0.0833-0.1904-0.0095-0.1714-0.05-0.1773-0.119-0.0417-0.044 0.1-0.0715-0.019a3.235 3.235 0 0 0 0.2857-0.4988l0.119-0.0523 0.069-0.0929 0.0334 0.0381 0.0833-0.1-0.0666-0.0833 0.0607-0.0167 0.1118 0.0453h0.2107l0.1274-0.0667 0.3332-0.088-0.063-0.1107-0.0215-0.1345 0.1786 0.0785 0.0666-0.0393-0.0333-0.138-0.2154 0.0869-0.238-0.05-0.1834-0.375h1.0439a4.7514 4.7514 0 0 1-1.3176 3.1042l-0.1429-0.144 0.062-0.1917-0.112-0.4225z m0.1845 2.6625l0.1285-0.2762-0.05-0.119 0.1893-0.1666v-0.1l-0.1619-0.1012 0.1333-0.2654 0.2-0.2618-0.2-0.2155h-0.15l-0.0928-0.1511a7.5411 7.5411 0 0 0 0.238-0.206l0.9654 0.9653a6.4725 6.4725 0 0 1-1.1998 0.8987z m1.2045-1.2736l0.1071-0.119-0.1011-0.5285-0.069-0.0273 0.0428-0.0893-0.2285-0.0714-0.044 0.188-0.0227 0.238-0.0476 0.0441-0.4166-0.4166a5.0192 5.0192 0 0 0 1.3973-3.2934h1.3653a6.3737 6.3737 0 0 1-1.7973 4.2587z m0.3761 0.375a6.6463 6.6463 0 0 0 1.877-4.4492h1.364a8.008 8.008 0 0 1-2.2757 5.4144z m-8.2126-1.3224a5.1601 5.1601 0 0 1-0.2833-0.319l0.0417-0.3452-0.144-0.3308-0.0358-0.5178-0.1618-0.3142 0.0333-0.1952-0.1952-0.375-0.1702-0.0856 0.069-0.1988-0.0702-0.1571 0.0702-0.1798h0.1869l0.0654-0.1083h0.319l0.0488 0.094-0.0595 0.3298-0.038 0.0559 0.119 0.2607-0.0786 0.0428-0.0548-0.069-0.0238 0.0262 0.0548 0.1547 0.094 0.181h0.044l0.031-0.1762-0.0452-0.0596v-0.1095l-0.0143-0.2261 0.0595-0.3975-0.0643-0.1072h0.2286a3.3898 3.3898 0 0 0 0.939 2.1627z m-0.9046-2.6673l-0.1286 0.2023h-0.2213l-0.0179-0.013a4.849 4.849 0 0 1-0.069-0.6488h0.4106l-0.0988 0.3285z m0.4487-0.9368l0.025-0.2713 0.1619-0.094 0.2892 0.0511 0.044 0.0524a3.2136 3.2136 0 0 0-0.044 0.469h-0.3273z m1.389 1.02l0.0679-0.0344 0.1702 0.1345-0.0774 0.063 0.2012 0.1334-0.0048-0.1429 0.1071-0.1773 0.1119 0.119 0.119 0.1643-0.219 0.0452 0.094 0.188 0.144-0.0761-0.0142-0.0595 0.1071-0.0727 0.063-0.2975a1.7746 1.7746 0 0 0 0.3131 0.476l-0.964 0.9642a3.1196 3.1196 0 0 1-0.8451-1.8116l0.1975 0.2107h0.1857z m-0.9926-3.9825l0.964 0.9653a3.441 3.441 0 0 0-0.5117 0.7368h-0.0667l-0.1357 0.0416h-0.0476l-0.144 0.1345 0.182-0.038 0.1643-0.0417-0.0285 0.063-0.144 0.0882h-0.0726l-0.212 0.1618-0.2046-0.0166-0.2964 0.5522 0.0583 0.1107-0.1607 0.1786-0.025 0.238h-0.6046a4.7514 4.7514 0 0 1 1.2855-3.1744zM10.643 18.7802l0.3059 0.1797 0.063 0.0428-0.2213 0.2214q-0.1548-0.1607-0.3-0.332z m-0.306-3.8386c0 0.1321 0.0168 0.2643 0.031 0.394l-0.1666 0.038-0.0345 0.1691-0.3476 0.4428 0.0084 0.6082-0.3571 0.119h-0.1952a6.3654 6.3654 0 0 1-0.3047-1.7723z m-1.3473 1.764l-0.0797-0.0155-0.075-0.0845-0.3833-0.0333 0.119 0.1606-0.357-0.0666 0.0928-0.0857-0.0869-0.0857-0.2559 0.1119-0.0916 0.169 0.0357 0.3892 0.2952 0.6999 0.1416 0.2213 0.081 0.0298-0.2226-0.4225-0.0488-0.2155 0.05-0.0523-0.031-0.119 0.1345 0.0178 0.206 0.3118 0.0511 0.0203v-0.2274l0.0833 0.0488 0.0179 0.119 0.2166 0.0572 0.0905-0.0643 0.031 0.0214v0.1655l0.0951 0.119 0.119 0.0262 0.2524 0.4273 0.1535 0.0428 0.0476-0.2a6.7034 6.7034 0 0 0 0.9403 1.2141l-0.964 0.9641a8.0127 8.0127 0 0 1-2.3115-5.4287h1.3652a6.6451 6.6451 0 0 0 0.288 1.764z m0.5952-7.514l0.964 0.964a6.6546 6.6546 0 0 0-1.8496 4.5158h-1.364A8.008 8.008 0 0 1 9.579 9.1916z m9.879-0.4975l-0.0822-0.1333-0.1785-0.0893-0.1393 0.106 0.1786 0.0951 0.1916 0.1464z m-0.8344 3.8504v0.1047l0.238-0.0702 0.0726-0.144-0.163-0.2143 0.0869-0.1309 0.2202 0.1571 0.0404-0.0321-0.044-0.031-0.05-0.0952 0.0905-0.0523-0.0881-0.119-0.2071 0.1047-0.069 0.1297-0.0417 0.113 0.0916 0.1536-0.0333 0.0714z m-9.8671 6.1202l0.0179-0.0619-0.119-0.2666-0.1453-0.0536z m5.5798-5.1276c0 0.2286 0.1393 0.3904 0.3928 0.5297v-0.1024l-0.1595-0.1594 0.0845-0.1536 0.069-0.019c0-0.2666-0.0106-0.5654-0.0118-0.6082h-0.012c-0.2356 0.1309-0.363 0.288-0.363 0.513Z" /></svg>