<svg xmlns="http://www.w3.org/2000/svg" width="100%" height="100%" viewBox="0 0 30.72 30.72"><path d="M11.459999999999999 27.36h7.8v-5.85l-1.95-1.801h-3.9L11.459999999999999 21.509999999999998V27.36zM21.509999999999998 11.459999999999999l-1.801 1.95v3.9l1.801 1.95H27.36V11.459999999999999h-5.85zM19.259999999999998 3.3599999999999994H11.459999999999999v5.85l1.95 1.801h3.9L19.259999999999998 9.209999999999999V3.3599999999999994zM27.36 27.36v-5.85l-1.801-1.801h-5.85V27.36H27.36zM5.159999999999999 3.3599999999999994L3.3599999999999994 5.159999999999999v5.85h7.65V3.3599999999999994H5.159999999999999z m14.55 0v5.85l1.8 1.8H27.36V3.3599999999999994h-7.65zM15.36 16.41c-0.6 0-1.05-0.45-1.05-1.05s0.45-1.05 1.05-1.05 1.05 0.45 1.05 1.05-0.45 1.05-1.05 1.05m-4.35 5.1l-1.8-1.8H3.3599999999999994V27.36h5.85l1.801-1.801V21.509999999999998z m0-10.05H3.3599999999999994v7.8h5.85l1.801-1.95V11.459999999999999z" /></svg>