<svg xmlns="http://www.w3.org/2000/svg" width="100%" height="100%" viewBox="0 0 30.72 30.72"><path d="M10.285 4.683a1.904 1.904 0 0 0-1.609 0.93L3.6009999999999995 14.43a1.918 1.918 0 0 0 0 1.862l5.075 8.816c0.326 0.56 0.96 0.929 1.609 0.93h10.15a1.904 1.904 0 0 0 1.609-0.93l5.075-8.816a1.918 1.918 0 0 0 0-1.862l-5.075-8.816a1.904 1.904 0 0 0-1.609-0.93z m0.092 5.157a0.22 0.22 0 0 1 0.043 0h1.75a0.23 0.23 0 0 1 0.192 0.114l2.97 5.292a0.228 0.228 0 0 1 0.028 0.086 0.228 0.228 0 0 1 0.028-0.086l2.963-5.292a0.231 0.231 0 0 1 0.198-0.114h1.751c0.155 0.002 0.271 0.197 0.199 0.334L17.599 15.36l2.9 5.179c0.08 0.138-0.04 0.342-0.199 0.34h-1.75a0.232 0.232 0 0 1-0.2-0.12l-2.962-5.292A0.228 0.228 0 0 1 15.36 15.379999999999999a0.228 0.228 0 0 1-0.028 0.086l-2.97 5.292a0.231 0.231 0 0 1-0.192 0.12H10.419999999999998c-0.16 0.002-0.278-0.202-0.199-0.34L13.120999999999999 15.36l-2.9-5.186c-0.07-0.125 0.015-0.307 0.156-0.334Z" /></svg>