<svg xmlns="http://www.w3.org/2000/svg" width="100%" height="100%" viewBox="0 0 30.72 30.72"><path d="M15.795 17.709c-0.182 0.518-0.378 1.07-0.602 1.702l-0.821 2.313c-0.336 0.95-0.604 1.746-0.803 2.388a0.798 0.798 0 0 1-0.625 0.55l-6.812 1.189L3.3599999999999994 10.293l14.676-2.56a0.532 0.532 0 0 1 0.622 0.488c0.009 0.127 0.01 0.243 0.007 0.347l-0.007 0.174c-0.063 0.542-0.527 2.109-1.306 4.448a3053.345 3053.345 0 0 1-2.632-2.97c-0.291-0.33-0.623-0.434-0.907-0.39l-0.031 0.005c-0.57 0.111-0.93 0.825-0.334 1.494a2367.03 2367.03 0 0 1 3.283 3.696l-0.301 0.871-3.007 0.525-0.676 1.82 3.048-0.532zM11.23 20.945999999999998l2.476-6.629 0.296-0.795a0.843 0.843 0 0 0-0.505-1.081 0.855 0.855 0 0 0-1.093 0.501l-0.295 0.792-2.47 6.635zM7.468999999999999 17.46l0.293 1.65 1.8-0.314 0.807-1.842z m1.83 6.23l1.812-2.428-1.595-0.583z m12.13-5.937a87.109 87.109 0 0 1 0.33-1.38l1.921-0.336-0.294-1.65-1.175 0.205c0.213-0.812 0.42-1.557 0.622-2.231 0.324-1.085 0.625-1.964 0.896-2.605a5.85 5.85 0 0 1 0.038-0.087 0.611 0.611 0 0 1 0.864-0.283l0.136 0.078c0.272 0.157 0.462 0.426 0.517 0.736L27.36 21.849999999999998 21.014 22.96a0.532 0.532 0 0 1-0.611-0.64c0.23-1.04 0.431-1.943 0.603-2.71 0.074 0.087 0.162 0.164 0.267 0.224 0.556 0.32 1.229 0.26 1.516 0.65 0.321 0.437 0.452 0.736 0.452 0.736s0.372-0.417 0.337-1.004c-0.138-2.332-1.934-2.65-1.934-2.65z m1.505-9.687c0.362-0.238 0.663-0.358 0.965-0.358 0.482 0 0.784 0.299 0.965 0.478 0.24 0.298 0.964 0.537 1.266 0.537 0.24 0 0.542-0.716 0.723-1.313 0.18-0.596 0.241-1.312 0.12-1.432-0.12-0.119-0.964-0.298-1.145-0.298-0.12 0.06-0.301 0.179-0.723 0.179s-0.905-0.358-1.206-0.656c-0.482-0.478-1.146-0.716-1.748-0.895A7.564 7.564 0 0 0 20.16 4.068999999999999c-0.965-0.06-1.93-0.06-2.834 0.239-0.361 0.12-0.723 0.238-1.085 0.417-0.12 0.06-0.422 0.18-0.482 0.24-0.06 0.059-0.12 0.178 0 0.178s0.542-0.06 0.542-0.06-0.482 0.24-0.482 0.358c0 0.12 0.06 0.12 0.12 0.12 0.061 0 0.302-0.06 0.543-0.12 0.242-0.06 0.784-0.238 1.327-0.238 0.603 0 1.266 0.179 1.808 0.775 0.965 1.134 0.784 2.506 0.784 2.864-0.18 2.148-5.064 15.094-5.245 15.99-0.18 0.894-0.18 1.431 0.904 1.73 1.086 0.298 1.568 0 1.749-0.418 0.24-0.657 3.255-16.705 5.124-18.078z" /></svg>