<svg xmlns="http://www.w3.org/2000/svg" width="100%" height="100%" viewBox="0 0 30.72 30.72"><path d="M3.4809999999999994 9.0871a0.104 0.104 0 0 0-0.0344 0.0017v-0.0003l-0.0154 0.0024-0.0138 0.0076a0.1156 0.1156 0 0 0-0.0486 0.053 0.1147 0.1147 0 0 0-0.0065 0.067c0.0073 0.0362 0.0229 0.0552 0.0392 0.0754 0.0326 0.0403 0.0783 0.0798 0.1424 0.1286 0.1282 0.0976 0.3274 0.2256 0.5973 0.379 0.5396 0.3065 1.3597 0.7126 2.4276 1.1523 1.0533 0.4336 2.3185 1.2056 3.2863 1.9117 0.4838 0.353 0.8938 0.6902 1.165 0.9572 0.1356 0.1336 0.2365 0.2504 0.2924 0.337 0.028 0.0433 0.0443 0.0791 0.0498 0.1003 0.0027 0.0106 0.0029 0.0158 0.003 0.0176-0.6994 0.9875-1.1131 2.187-0.8297 4.1959l0.0003 0.0003v0.0002c0.0055 0.0378-0.0317 0.1266-0.1203 0.2349-0.0886 0.1082-0.2168 0.2333-0.3462 0.3656-0.1294 0.1324-0.2604 0.2723-0.3573 0.4192-0.0968 0.1469-0.1629 0.3058-0.138 0.4716v0.0005l0.0002 0.0005c0.0122 0.074 0.062 0.1403 0.1251 0.1684 0.0632 0.0281 0.1297 0.0276 0.1987 0.0184 0.1379-0.0185 0.295-0.0788 0.4534-0.1449 0.1584-0.066 0.3168-0.1387 0.4379-0.1832a0.7913 0.7913 0 0 1 0.1308-0.0376c-0.0002 0.021 0.0023 0.0308-0.0032 0.0646-0.0102 0.0611-0.0291 0.1386-0.0536 0.2251-0.0488 0.173-0.1194 0.3824-0.1843 0.5878-0.0648 0.2054-0.1239 0.4059-0.15 0.57-0.013 0.082-0.0188 0.155-0.008 0.2219 0.0107 0.0669 0.0489 0.1414 0.1224 0.1683l0.0027 0.0011 0.0027 0.0009c0.0509 0.015 0.0835 0.0012 0.1164-0.0117a0.6625 0.6625 0 0 0 0.1038-0.054c0.0748-0.046 0.1643-0.1118 0.2657-0.1916 0.2027-0.1596 0.4515-0.3752 0.697-0.5916 0.2455-0.2164 0.4874-0.4336 0.6734-0.5937 0.093-0.08 0.1723-0.146 0.2292-0.1892a0.8072 0.8072 0 0 1 0.0624-0.044c1.4976 0.4462 3.2026 0.5014 4.5489 0.4407a20.9787 20.9787 0 0 0 1.6869-0.144c0.2111-0.027 0.3812-0.0525 0.5013-0.0722 0.06-0.0099 0.1076-0.0183 0.1419-0.0249a1.1699 1.1699 0 0 0 0.033-0.0068l0.0002 0.0003c0.0194 0.0085 0.049 0.022 0.087 0.0392l0.3181 0.1443c0.265 0.12 0.6217 0.28 0.9867 0.4357 0.365 0.1556 0.7378 0.3069 1.0378 0.4102 0.15 0.0517 0.2812 0.0913 0.3875 0.1138 0.0531 0.0112 0.1 0.0184 0.1427 0.0197 0.0426 0.0012 0.0828 0.001 0.1273-0.0281l0.0095-0.0062 0.0078-0.0084c0.1755-0.19 0.183-0.4255 0.0992-0.6327-0.0839-0.2072-0.2455-0.4023-0.4127-0.5864-0.1672-0.1841-0.3415-0.3571-0.45-0.4989-0.0542-0.0709-0.0909-0.1342-0.1043-0.1783-0.0118-0.039-0.0065-0.053 0.0057-0.0711a0.2403 0.2403 0 0 1 0.0505 0c0.0583 0.0053 0.1458 0.0236 0.2484 0.0508 0.2052 0.0544 0.4736 0.1441 0.7421 0.2324 0.2685 0.0883 0.5367 0.1751 0.7497 0.2251 0.1065 0.025 0.1982 0.0413 0.2764 0.0422 0.0392 0.0004 0.0754-0.0023 0.112-0.0152 0.0365-0.0128 0.0778-0.0424 0.0956-0.0875l0.0008-0.0022 0.0008-0.0024c0.0502-0.1516-0.0056-0.3138-0.0951-0.4762-0.0895-0.1624-0.2203-0.3305-0.3594-0.4927-0.1393-0.1621-0.287-0.3178-0.4093-0.449-0.1217-0.1307-0.2194-0.2425-0.2494-0.2922-0.062-0.1099-0.1004-0.2568-0.083-0.3986 0.0174-0.142 0.0849-0.2801 0.2475-0.3935 0.032-0.0223 0.1324-0.0749 0.2681-0.14 0.1358-0.0651 0.311-0.1464 0.5108-0.24 0.3995-0.1873 0.8972-0.425 1.3802-0.6902 0.4829-0.2653 0.9507-0.5574 1.2937-0.8589 0.3427-0.3013 0.5755-0.6187 0.5291-0.948-0.0722-0.5354-0.425-0.9433-0.8964-1.2494-0.4714-0.3061-1.0654-0.5177-1.6504-0.6716-0.585-0.1538-1.1615-0.2492-1.5953-0.3167-0.217-0.0337-0.3984-0.0603-0.5251-0.0835a1.5818 1.5818 0 0 1-0.144-0.0316h-0.0003a4.2196 4.2196 0 0 1-0.0003-0.0878c0.0006-0.0827 0.0018-0.1971 0-0.3308-0.0035-0.2674-0.0186-0.612-0.0746-0.9416-0.056-0.3297-0.1499-0.6458-0.3319-0.8597-0.1817-0.2136-0.4698-0.3041-0.8207-0.1656-0.2319 0.0867-0.3625 0.2882-0.4175 0.5189-0.0551 0.231-0.0452 0.4976-0.0095 0.7594 0.0357 0.2618 0.0984 0.5187 0.155 0.7248 0.0568 0.206 0.1093 0.3695 0.1187 0.4113v0.0003c0.006 0.026 0.0051 0.0173-0.0049 0.0254-0.01 0.008-0.0423 0.021-0.0832 0.0246a0.4074 0.4074 0 0 1-0.126-0.0098c-0.0373-0.0092-0.0626-0.0292-0.0575-0.023-0.0078-0.0095-0.0375-0.0606-0.0695-0.1286-0.0319-0.068-0.0701-0.1557-0.1137-0.2548-0.087-0.1982-0.195-0.4413-0.3197-0.67-0.1247-0.2286-0.2647-0.4431-0.4283-0.587-0.0818-0.0719-0.171-0.1269-0.2695-0.151a0.4444 0.4444 0 0 0-0.3064 0.0362l-0.0016 0.0008-0.0016 0.0014c-0.2555 0.1408-0.3929 0.3651-0.449 0.607-0.056 0.2417-0.0374 0.502 0.0033 0.7437 0.0407 0.2416 0.1046 0.4659 0.1454 0.6286 0.0204 0.0813 0.0347 0.1484 0.0381 0.1867 0.0011 0.0127 0.0005 0.0142 0.0003 0.0181-0.1823 0.114-0.275 0.2937-0.346 0.4789-0.0744 0.194-0.1365 0.397-0.2634 0.5732l-0.0006 0.0005-0.0003 0.0006c-0.0384 0.055-0.1194 0.1045-0.2464 0.1375-0.127 0.033-0.2952 0.049-0.4908 0.0495-0.3912 0.0008-0.891-0.059-1.412-0.1419-1.042-0.1656-2.1617-0.4221-2.7331-0.4567-0.4299-0.0254-0.8375 0.1359-1.1459 0.2875-0.1542 0.0759-0.2843 0.15-0.3764 0.1979a0.8919 0.8919 0 0 1-0.0957 0.0443c-0.9968-0.9934-3.013-2.6882-5.2499-3.2603-0.6133-0.1664-1.3873-0.4945-2.015-0.7794-0.3138-0.1425-0.5914-0.2741-0.7958-0.3697a11.373 11.373 0 0 0-0.2481-0.1138 1.4159 1.4159 0 0 0-0.0776-0.0316 0.3291 0.3291 0 0 0-0.0305-0.01C3.4919999999999995 9.0909 3.4879999999999995 9.0886 3.4809999999999994 9.087399999999999z m22.6994 1.8353a0.0621 0.0621 0 0 0-0.0182 0.0046c-0.0199 0.0086-0.0256 0.0186-0.0313 0.0268a0.2303 0.2303 0 0 0-0.026 0.0537c-0.0158 0.0423-0.033 0.1017-0.0516 0.1754-0.0371 0.1474-0.0786 0.3496-0.1137 0.5565-0.0352 0.2068-0.0639 0.4179-0.0744 0.5845-0.0052 0.0834-0.0062 0.1552-0.0002 0.2125a0.3184 0.3184 0 0 0 0.016 0.0764 0.106 0.106 0 0 0 0.0475 0.0587 0.0745 0.0745 0 0 0 0.0435 0.013 0.0789 0.0789 0 0 0 0.043-0.0176c0.0206-0.0163 0.031-0.0348 0.0418-0.0565 0.0218-0.0434 0.0407-0.1023 0.0598-0.1757 0.0382-0.1468 0.0746-0.3488 0.1035-0.5567 0.0289-0.2078 0.0501-0.421 0.0567-0.5897 0.0033-0.0843 0.0031-0.157-0.0022-0.2145a0.4137 0.4137 0 0 0-0.0127-0.0757 0.1082 0.1082 0 0 0-0.036-0.0587c-0.0063-0.006-0.013-0.0127-0.0242-0.0156a0.061 0.061 0 0 0-0.0214-0.0014z m1.111 0.2114a0.104 0.104 0 0 0-0.0428 0.0075c-0.0233 0.0095-0.0431 0.024-0.0645 0.0422-0.0429 0.0365-0.0908 0.0899-0.1444 0.157-0.107 0.1342-0.2336 0.3218-0.35 0.5178-0.1162 0.196-0.222 0.3999-0.2864 0.5686-0.0322 0.0844-0.0545 0.1597-0.0616 0.2246-0.0071 0.0647-0.0006 0.1294 0.051 0.1678 0.0286 0.0211 0.0674 0.015 0.0898 0.0035 0.0225-0.0115 0.0403-0.0275 0.0597-0.0475 0.0388-0.04 0.0812-0.0975 0.1284-0.1687 0.0944-0.1424 0.2056-0.3388 0.311-0.5402a9.6877 9.6877 0 0 0 0.2754-0.5673 2.732 2.732 0 0 0 0.0806-0.2002 0.522 0.522 0 0 0 0.0191-0.0673A0.1276 0.1276 0 0 0 27.36 11.201899999999998c-0.0002-0.0112 0.0007-0.0282-0.0191-0.0479l-0.002-0.0019-0.0015-0.0016a0.0757 0.0757 0 0 0-0.046-0.0167zM22.9291 12.988999999999999c0.1818 0 0.3346 0.1698 0.3346 0.3876 0 0.2177-0.1528 0.3872-0.3346 0.3872-0.1817 0-0.3345-0.1695-0.3345-0.3872 0-0.2178 0.1528-0.3876 0.3345-0.3876z m-0.8823 0.3395c0.0791 0.2909 0.1785 0.5128 0.35 0.6475 0.1629 0.128 0.3965 0.1727 0.6894 0.1813-0.1803 0.129-0.3447 0.1912-0.4803 0.1751-0.168-0.0198-0.3091-0.1247-0.414-0.2686s-0.1708-0.3257-0.1867-0.483c-0.011-0.1075 0.0095-0.1888 0.0416-0.2523z m2.0906 1.7806c0.0534-0.0043 0.083 0.0061 0.0911 0.0138l0.0084 0.0081 0.011 0.0041c0.0068 0.0024 0.0032 0.0004 0.0055 0.002-0.0108 0.016-0.0496 0.0531-0.1124 0.0929-0.1312 0.083-0.3492 0.1845-0.5792 0.2778-0.23 0.0933-0.473 0.1791-0.6578 0.2349-0.059 0.0178-0.098 0.0261-0.1424 0.037 0.029-0.0212 0.0513-0.0392 0.0894-0.0646a6.3595 6.3595 0 0 1 0.5192-0.306c0.1948-0.103 0.3971-0.1968 0.5602-0.2513 0.0816-0.0272 0.1536-0.0443 0.207-0.0486z m0.2406 0.4714a0.0686 0.0686 0 0 1 0.0248 0.0022c0.0265 0.0305 0.0393 0.0587 0.0349 0.0964-0.005 0.0422-0.0289 0.0957-0.0708 0.1538-0.084 0.1161-0.2354 0.2477-0.3984 0.3667-0.163 0.1191-0.3378 0.2268-0.4702 0.3027-0.0483 0.0277-0.0822 0.0454-0.1165 0.0635 0.0153-0.0296 0.029-0.0579 0.0562-0.0983 0.0782-0.1163 0.1994-0.266 0.3319-0.409 0.1325-0.1428 0.2771-0.2796 0.4005-0.3702 0.0617-0.0453 0.1184-0.0788 0.1624-0.0962a0.1569 0.1569 0 0 1 0.0451-0.0116z" /></svg>