<svg xmlns="http://www.w3.org/2000/svg" width="100%" height="100%" viewBox="0 0 30.72 30.72"><path d="M15.36 3.3599999999999994C8.736 3.3599999999999994 3.3599999999999994 8.736 3.3599999999999994 15.36s5.376 12 12 12 12-5.376 12-12S21.983999999999998 3.3599999999999994 15.36 3.3599999999999994z m0 19.104c-3.924 0-7.104-3.18-7.104-7.104S11.436 8.256 15.36 8.256s7.104 3.18 7.104 7.104-3.18 7.104-7.104 7.104z m0-13.332c-3.432 0-6.228 2.796-6.228 6.228S11.927999999999999 21.588 15.36 21.588s6.228-2.796 6.228-6.228S18.792 9.132 15.36 9.132zM13.043999999999999 18.9V11.82L19.176000000000002 15.36l-6.132 3.54z" /></svg>