<svg xmlns="http://www.w3.org/2000/svg" width="100%" height="100%" viewBox="0 0 30.72 30.72"><path d="M15.36 3.3599999999999994C8.735 3.3599999999999994 3.3599999999999994 8.735 3.3599999999999994 15.36s5.375 12 12 12 12-5.375 12-12S21.985 3.3599999999999994 15.36 3.3599999999999994z m0.768 4.105c0.183 0 0.363 0.053 0.525 0.157 0.125 0.083 0.287 0.185 0.755 1.154 0.31-0.088 0.468-0.042 0.551-0.019 0.204 0.056 0.366 0.19 0.463 0.375 0.477 0.917 0.542 2.553 0.334 3.605-0.241 1.232-0.755 2.029-1.131 2.576 0.324 0.329 0.778 0.899 1.117 1.825 0.278 0.774 0.31 1.478 0.273 2.015a5.51 5.51 0 0 0 0.602-0.329c0.593-0.366 1.487-0.917 2.553-0.931 0.714-0.009 1.269 0.445 1.353 1.103a1.23 1.23 0 0 1-0.945 1.362c-0.649 0.158-0.95 0.278-1.821 0.843-1.232 0.797-2.539 1.242-3.012 1.39a1.686 1.686 0 0 1-0.704 0.343c-0.737 0.181-3.266 0.315-3.466 0.315h-0.046c-0.783 0-1.214-0.241-1.45-0.491-0.658 0.329-1.51 0.19-2.122-0.134a1.078 1.078 0 0 1-0.58-1.153 1.243 1.243 0 0 1-0.153-0.195c-0.162-0.25-0.528-0.936-0.454-1.946 0.056-0.723 0.556-1.367 0.88-1.71a5.522 5.522 0 0 1 0.408-2.256c0.306-0.727 0.885-1.348 1.32-1.737-0.32-0.537-0.644-1.367-0.329-2.21 0.227-0.602 0.412-0.936 0.82-1.08h-0.005c0.199-0.074 0.389-0.153 0.486-0.259a3.418 3.418 0 0 1 2.298-1.103c0.037-0.093 0.079-0.185 0.125-0.283 0.31-0.658 0.639-1.029 1.024-1.168a0.94 0.94 0 0 1 0.328-0.06z m0.006 0.7c-0.507 0.016-1.001 1.519-1.001 1.519s-1.27-0.204-2.266 0.871c-0.199 0.218-0.468 0.334-0.746 0.44-0.079 0.028-0.176 0.023-0.417 0.672-0.371 0.991 0.625 2.094 0.625 2.094s-1.186 0.839-1.626 1.881c-0.486 1.144-0.338 2.261-0.338 2.261s-0.843 0.732-0.899 1.487c-0.051 0.663 0.139 1.2 0.343 1.515 0.227 0.343 0.51 0.176 0.51 0.176s-0.561 0.653-0.037 0.931c0.477 0.25 1.283 0.394 1.71-0.037 0.31-0.31 0.371-1.001 0.486-1.283 0.028-0.065 0.12 0.111 0.209 0.199 0.097 0.093 0.264 0.195 0.264 0.195s-0.755 0.324-0.445 1.066c0.102 0.246 0.468 0.403 1.066 0.398 0.222-0.005 2.664-0.139 3.313-0.296 0.375-0.088 0.505-0.283 0.505-0.283s1.566-0.431 2.998-1.357c0.917-0.598 1.293-0.76 2.034-0.936 0.612-0.148 0.57-1.098-0.241-1.084-0.839 0.009-1.575 0.44-2.196 0.825-1.163 0.718-1.742 0.672-1.742 0.672l-0.018-0.032c-0.079-0.13 0.371-1.293-0.134-2.678-0.547-1.515-1.413-1.881-1.344-1.997 0.297-0.5 1.038-1.297 1.334-2.78 0.176-0.899 0.13-2.377-0.269-3.151-0.074-0.144-0.732 0.241-0.732 0.241s-0.616-1.371-0.788-1.483a0.271 0.271 0 0 0-0.157-0.046z" /></svg>