<svg xmlns="http://www.w3.org/2000/svg" width="100%" height="100%" viewBox="0 0 30.72 30.72"><path d="M26.127 6.949c0 1.209-0.543 2.283-1.37 2.934l-8.034 7.174c-0.149 0.128-0.343-0.078-0.235-0.25l2.946-5.9c0.083-0.165-0.024-0.368-0.194-0.368H7.811999999999999c-1.77 0-3.219-1.615-3.219-3.59C4.593 4.975999999999999 6.042 3.3599999999999994 7.811999999999999 3.3599999999999994h15.096c1.77-0.001 3.219 1.614 3.219 3.589zM7.811999999999999 27.36h15.096c1.77 0 3.219-1.616 3.219-3.59 0-1.974-1.449-3.59-3.219-3.59H11.479999999999999c-0.17 0-0.277-0.202-0.194-0.367l2.946-5.9c0.108-0.172-0.086-0.378-0.235-0.25l-8.033 7.173c-0.828 0.65-1.37 1.725-1.37 2.934 0 1.974 1.448 3.59 3.218 3.59z" /></svg>