<svg xmlns="http://www.w3.org/2000/svg" width="100%" height="100%" viewBox="0 0 30.72 30.72"><path d="M20.741 21.416c-7.43 0.445-15.51 3.135-16.362 3.51l0.989-2.789c2.521-1.166 8.775-3.469 16.486-4.019-0.15 0.57-0.961 2.671-1.125 3.285l0.012 0.013z m2.649-7.509s-0.363 0.765-0.709 1.814c-2.954 0.18-7.635 1.154-9.915 1.98 1.186-1.08 8.686-8.61 8.686-8.61C24.345 11.07 27.36 13.514999999999999 27.36 13.514999999999999l-3.97 0.395v-0.003z m-17.55 0.33c1.647-0.75 6.265-2.146 10.685-3.181 0 0-8.497 7.845-10.859 10.275l1.95-5.28c-1.516 0.225-2.184 0.315-4.256 0.75l2.479-2.551 0.001-0.013z m10.6-8.432c0.734 0.359 3.45 2.205 4.419 2.888-3.096 0.074-9.135 1.409-11.652 2.25 2.065-1.568 5.903-4.53 7.233-5.148v0.01z" /></svg>