<svg xmlns="http://www.w3.org/2000/svg" width="100%" height="100%" viewBox="0 0 30.72 30.72"><path d="M24.139 22.105999999999998c-0.747 0.714-1.562 1.017-2.543 1.017-1.32 0-3.322-0.61-4.846-1.66-1.629-1.119-3.765-2.237-5.562-2.271 1.323-1.798 3.39-3.628 5.322-5.798 0.713-0.78 4.983-5.7 5.73-6.586 0.54-0.645 0.813-1.424 0.813-2.205 0-0.3-0.033-0.585-0.101-0.855-2.035 0.405-3.561 0.601-6.001 0.601-2.677 0.015-4.607-0.314-5.73-0.989-0.78 1.018-1.56 2.373-1.56 3.12 0 0.948 0.918 1.728 3.189 1.728 0.746 0 1.965-0.034 3.66-0.169-3.492 4.5-6.949 8.16-9.016 10.47-0.713 0.781-1.121 1.83-1.121 2.881 0 0.405 0.075 0.81 0.18 1.185 0.645-0.104 1.291-0.179 1.965-0.179 1.395 0 2.79 0.299 4.081 0.839C15.165 24.374 17.564999999999998 27.36 20.281 27.36c2.204 0 4.065-1.741 4.065-4.036 0-0.404-0.061-0.825-0.195-1.229l-0.012 0.011z" /></svg>