<svg xmlns="http://www.w3.org/2000/svg" width="100%" height="100%" viewBox="0 0 599.04 599.04"><path d="M123.51999999999998 75.51999999999998C97.01999999999998 75.51999999999998 75.51999999999998 97.01999999999998 75.51999999999998 123.51999999999998L75.51999999999998 475.52C75.51999999999998 502.02 97.01999999999998 523.52 123.51999999999998 523.52L475.52 523.52C502.02 523.52 523.52 502.02 523.52 475.52L523.52 123.51999999999998C523.52 97.01999999999998 502.02 75.51999999999998 475.52 75.51999999999998L123.51999999999998 75.51999999999998zM283.31296999999995 139.51999999999998C297.16286 139.510765 311.01190999999994 139.585306 324.8618 139.82468799999998 362.76421999999997 235.59455999999997 401.73733999999996 330.99629999999996 440.15477 426.5825 444.0223 437.52152 456.43728999999996 440.3588 466.49266 442.38523 466.49266 448.09395 466.52781 453.80199 466.52781 459.51219 416.50741999999997 459.47438999999997 366.48724999999996 459.54908 316.46531 459.47508 316.46531 453.72985 316.50046999999995 448.02009 316.50046999999995 442.31102 329.02488 441.35510999999997 345.15835 442.09261 352.60008 429.75047 355.47402999999997 420.17384 352.26937 410.19038 348.73289 401.27781 343.42870999999997 388.05350999999996 338.12415 374.82964 332.81883 361.64304999999996 294.1785 361.49689 255.57829999999998 361.75487 216.93796999999998 361.53367 209.97651 377.77801 203.93379 394.39158 197.56101999999998 410.85594 194.90970999999996 418.11229 192.07397999999998 427.76385999999997 198.48289 433.95164 206.62331999999998 440.87696 218.11601 440.69255 228.13522999999998 442.23875 228.17122999999998 447.98515 228.17129999999997 453.73161999999996 228.20749999999998 459.51414 196.30868999999998 459.47693999999996 164.41100699999998 459.58763999999996 132.51218799999998 459.43992 132.51218699999998 453.76734999999996 132.54734399999998 448.09585999999996 132.54734399999998 442.45945 142.307415 440.43453999999997 154.500872 438.03790999999995 158.22117199999997 427.31883 191.15241999999998 343.18782999999996 224.11941 259.02194 256.57078 174.70749999999998 251.22931999999997 163.21437999999998 246.91869999999997 151.28224999999998 241.76218999999998 139.71531199999998 255.61207 139.62282399999998 269.46308 139.52923499999997 283.31296999999995 139.51999999999998zM273.47703 213.05319999999998C258.96421 252.50334999999998 243.27343 291.54702999999995 228.46531 330.88719A9679.2904 9679.2904 0 0 0 320.58835999999997 330.88719C304.89658999999995 291.62086 289.13265 252.35608 273.47703 213.05319999999998z" /></svg>