<svg xmlns="http://www.w3.org/2000/svg" width="100%" height="100%" viewBox="-75.52 -43.52 599.04 599.04"><path d="M48 32C21.5 32 0 53.5 0 80v352c0 26.5 21.5 48 48 48h352c26.5 0 48-21.5 48-48V80c0-26.5-21.5-48-48-48H48zm159.793 64c13.85-.01 27.699.065 41.549.305 37.902 95.77 76.875 191.171 115.293 286.757 3.867 10.94 16.282 13.777 26.338 15.803 0 5.709.035 11.417.035 17.127-50.02-.038-100.04.037-150.063-.037 0-5.745.035-11.455.035-17.164 12.525-.956 28.658-.218 36.1-12.56 2.874-9.577-.33-19.56-3.867-28.473a40245.15 40245.15 0 00-15.914-39.635c-38.64-.146-77.24.112-115.881-.11-6.961 16.245-13.004 32.859-19.377 49.323-2.651 7.256-5.487 16.908.922 23.096 8.14 6.925 19.633 6.74 29.652 8.287.036 5.746.036 11.493.072 17.275-31.898-.037-63.796.074-95.695-.074 0-5.673.035-11.344.035-16.98 9.76-2.025 21.954-4.422 25.674-15.141 32.931-84.131 65.898-168.297 98.35-252.611-5.342-11.494-9.652-23.426-14.809-34.993 13.85-.092 27.701-.186 41.551-.195zm-9.836 73.533c-14.513 39.45-30.204 78.494-45.012 117.834a9679.29 9679.29 0 0092.123 0c-15.691-39.266-31.455-78.53-47.111-117.834z"/></svg>