<svg xmlns="http://www.w3.org/2000/svg" width="100%" height="100%" viewBox="-43.52 -43.52 599.04 599.04"><path d="M256 8L8 256l248 248 248-248zm.023 399.39c-83.944 0-152.016-68.027-152.016-151.97 0-83.99 68.072-152.064 152.016-152.064 83.989 0 151.972 68.074 151.972 152.064 0 83.944-67.983 151.97-151.972 151.97zm-94.29-146.914c-1.81.604-3.201 1.532-4.129 2.831-1.021 1.3-1.579 2.97-1.579 5.012 0 3.063.883 5.198 2.507 6.357 1.625 1.161 4.084 1.67 7.378 1.67 1.67 0 3.528-.277 5.336-1.205 1.95-.742 3.62-1.949 5.105-3.387v-13.69c-3.48.37-6.264.697-8.354.974-2.089.232-4.222.649-6.264 1.438zM256 118.576c-75.41 0-136.54 61.133-136.54 136.544 0 75.408 61.13 136.54 136.54 136.54s136.543-61.132 136.543-136.54c0-75.41-61.132-136.543-136.543-136.543zM196.95 288.97h-20.603v-6.913a200.876 200.876 0 00-3.804 3.108c-1.067.974-2.505 1.811-4.409 2.786-1.856.974-3.573 1.67-5.383 2.042-1.718.51-4.13.742-7.285.742-5.802 0-10.627-2.042-14.432-5.894-3.852-3.945-5.801-8.77-5.801-14.758 0-4.964.975-8.91 2.924-11.88 1.997-3.015 4.78-5.428 8.4-7.191 3.71-1.763 8.167-3.016 13.271-3.712 5.198-.649 10.718-1.3 16.705-1.625v-.415c0-3.573-1.393-6.126-4.036-7.471-2.69-1.393-6.683-2.088-12.065-2.088-2.459 0-5.243.465-8.491 1.39-3.204.79-6.357 1.997-9.513 3.343h-1.67v-15.916c2.042-.648 5.29-1.3 9.837-2.135a75.605 75.605 0 0113.782-1.254c11.323 0 19.537 1.949 24.732 5.66 5.243 3.805 7.843 9.606 7.843 17.31v44.87zm66.357-44.78h-2.645c-.742-.787-1.811-1.67-2.97-2.505-1.255-1.02-2.46-1.856-3.898-2.6-1.485-.928-3.248-1.484-5.011-2.135a22.908 22.908 0 00-6.357-.882c-5.243 0-9.329 1.81-12.204 5.522-2.83 3.619-4.362 8.537-4.362 14.71 0 6.544 1.576 11.508 4.64 14.757 3.062 3.2 7.1 4.825 12.25 4.825 2.598 0 4.92-.324 6.916-.835 1.901-.603 3.573-1.345 4.918-2.135 1.439-.834 2.646-1.624 3.62-2.552.975-.835 1.855-1.625 2.459-2.319h2.645v17.54c-1.161.512-2.507 1.114-4.084 1.81-1.531.604-3.015 1.162-4.687 1.58-1.949.648-3.898.927-5.615 1.252-1.763.324-4.038.51-6.913.51-5.429 0-10.486-.742-14.99-2.09-4.453-1.39-8.35-3.48-11.692-6.311-3.342-2.922-5.894-6.495-7.75-10.765-1.856-4.318-2.736-9.467-2.736-15.267 0-6.356.928-11.6 2.97-16.103 1.996-4.408 4.639-8.026 8.12-10.858 3.293-2.736 7.146-4.78 11.647-6.078 4.409-1.346 9.048-1.997 13.873-1.997 3.621 0 7.333.465 10.904 1.346 3.667.787 7.285 2.135 10.951 3.99v17.59zm89.697 44.78v-32.946c0-3.202-.047-5.894-.185-8.168-.141-2.226-.51-4.084-1.114-5.476-.558-1.438-1.532-2.414-2.739-3.063-1.205-.695-2.97-.974-5.15-.974-1.579 0-3.11.28-4.687.974-1.532.696-3.201 1.717-5.012 2.924v46.728h-20.555V256.02c0-3.201-.048-5.894-.186-8.168-.186-2.226-.463-4.084-1.066-5.476-.65-1.438-1.532-2.414-2.737-3.063-1.3-.694-3.015-.974-5.198-.974-1.717 0-3.342.37-4.966 1.114a42.775 42.775 0 00-4.685 2.784v46.727h-20.56V223.12h20.558v7.285c3.342-2.831 6.544-5.102 9.513-6.73 2.925-1.578 6.266-2.413 10.024-2.413 3.99 0 7.563.973 10.533 2.877 3.156 1.901 5.429 4.732 7.054 8.585 3.945-3.667 7.702-6.498 11.137-8.492 3.528-1.997 7.051-2.97 10.627-2.97 3.062 0 5.799.558 8.26 1.484 2.414 1.021 4.501 2.507 6.126 4.409 1.902 2.135 3.249 4.64 4.13 7.564.975 2.924 1.392 6.683 1.392 11.416v42.83h-20.514z"/></svg>