<svg xmlns="http://www.w3.org/2000/svg" width="100%" height="100%" viewBox="-75.52 -43.52 599.04 599.04"><path d="M48 32C21.5 32 0 53.5 0 80v352c0 26.5 21.5 48 48 48h352c26.5 0 48-21.5 48-48V80c0-26.5-21.5-48-48-48H48zm175.13 64h1.073c10.817 10.936 21.622 21.882 32.49 32.768.425.425 1.497.518 2.157.345 9.463-2.49 18.906-5.06 28.359-7.588 5.372-1.437 10.753-2.833 16.193-4.263.305.746.561 1.219.696 1.722 3.76 14.009 7.535 28.011 11.22 42.04.434 1.646 1.032 2.497 2.832 2.937 6.492 1.588 12.92 3.437 19.37 5.193 8.172 2.223 16.344 4.452 24.52 6.68-.056.48-.053.747-.12.998-3.877 14.532-7.782 29.053-11.576 43.606-.225.865.132 2.26.744 2.904 3.95 4.15 8.04 8.166 12.098 12.213 6.78 6.76 13.57 13.511 20.814 20.72-.992.734-1.872 1.23-2.563 1.92-9.882 9.871-19.688 19.82-29.65 29.606-1.653 1.624-1.852 2.96-1.271 5.074 3.938 14.321 7.735 28.684 11.605 43.133-.426.156-.733.295-1.057.385-14.393 3.934-28.775 7.915-43.2 11.728-1.64.435-2.114 1.219-2.481 2.617-2.285 8.696-4.62 17.378-6.955 26.06-1.588 5.905-3.201 11.805-4.842 17.847-.985-.202-1.76-.321-2.514-.52-13.908-3.668-27.825-7.296-41.699-11.09-1.588-.433-2.441-.148-3.48.902-6.485 6.558-13.026 13.059-19.518 19.61-4.085 4.123-8.117 8.3-12.172 12.453h-1.074c-10.735-10.787-21.454-21.59-32.25-32.314-.578-.573-1.915-.85-2.734-.635-14.827 3.87-29.628 7.836-44.698 11.853-1.896-7.128-3.786-14.228-5.674-21.332-2.006-7.557-4.015-15.113-6.011-22.672-.403-1.52-1.031-2.398-2.848-2.869-13.827-3.577-27.592-7.398-41.4-11.054-2.055-.543-2.628-1.211-2.01-3.46 3.765-13.715 7.276-27.5 11.055-41.214.492-1.791.17-2.747-1.02-3.93-10.087-10.044-20.08-20.185-30.228-30.168-1.827-1.796-1.682-2.74.05-4.45 10.136-9.995 20.146-20.117 30.221-30.175 1.08-1.077 1.52-1.943 1.04-3.69-3.768-13.72-7.242-27.523-11.036-41.238-.66-2.384-.196-3.06 2.016-3.634 13.496-3.515 26.957-7.177 40.449-10.711 2.138-.562 3.292-1.504 3.888-3.834 3.65-14.283 7.511-28.513 11.31-42.76.042-.161.182-.297.358-.574 9.413 2.497 18.872 4.99 28.32 7.521 5.498 1.472 10.967 3.052 16.48 4.465.7.18 1.843-.084 2.343-.584 10.831-10.81 21.6-21.681 32.38-32.541zm-22.366 111.318c-15.388.025-30.776.01-46.162.01h-2.733v92.854c.446.084.699.172.953.172 16.55.009 33.1.062 49.649-.065 1.527-.012 3.366-.804 4.513-1.842 4.243-3.834 8.306-7.87 12.33-11.937 2.04-2.062 3.278-4.598 3.28-7.604.002-16.581.023-33.163-.02-49.744-.008-2.924-1.015-5.492-3.195-7.605-3.791-3.678-7.508-7.435-11.2-11.213-2.058-2.107-4.5-3.032-7.415-3.026zm49.31.17v92.733h61.996v-15.588h-45.535v-77.145h-16.46zm-54.392 15.395c2.149-.028 3.547.906 5.17 2.154 4.226 3.253 5.39 7.28 5.226 12.553-.387 12.432-.063 24.883-.205 37.324-.017 1.486-.917 3.113-1.791 4.416-3.118 4.639-7.498 5.932-13.049 5.565-7.379-.49-14.817-.122-22.537-.122v-61.85h2.795c8.13 0 16.262.067 24.39-.04z"/></svg>