<svg xmlns="http://www.w3.org/2000/svg" width="100%" height="100%" viewBox="-75.52 -43.52 599.04 599.04"><path d="M48 32C21.5 32 0 53.5 0 80v352c0 26.5 21.5 48 48 48h352c26.5 0 48-21.5 48-48V80c0-26.5-21.5-48-48-48H48zm112.582 64c21.04 0 38.096 17.057 38.096 38.096 0 21.039-17.055 38.095-38.094 38.095-21.04 0-38.096-17.056-38.096-38.095 0-21.04 17.053-38.096 38.094-38.096zm107.893 9.59c47.872-.261 91.32 23.293 122.232 72.762h-.002c45.457 72.746 23.335 168.568-49.412 214.025-57.476 35.915-129.358 29.647-179.422-10.447l7.441-4.65c47.287 36.352 114.047 41.57 167.602 8.107 68.878-43.04 89.824-133.767 46.785-202.645-29.526-47.252-76.56-72.404-128.521-69.355-14.208.83-26.246 4.947-26.246 4.947s-.628-4.325-1.534-6.969c13.92-3.76 27.672-5.702 41.077-5.775zm-12.067 41.137c6.192-.045 12.47.415 18.787 1.416 62.147 9.844 104.545 68.202 94.701 130.35-9.843 62.146-68.2 104.545-130.347 94.702-31.116-4.928-57.282-22.021-74.418-45.66l-18.524 11.574c.575 7.13-2.679 14.34-9.1 18.508l-72.753 47.248c-9.32 6.053-21.78 3.405-27.834-5.916-6.052-9.32-3.403-21.78 5.918-27.834l72.754-47.248c6.35-4.123 14.158-4.204 20.404-.89l19.16-11.975c-10.063-20.392-14.139-43.986-10.31-68.156 2.368-14.95 7.54-28.754 14.9-40.965 12.601.177 25.4-3.147 36.883-10.322 15.351-9.591 25.546-24.312 29.754-40.553a113.12 113.12 0 0130.025-4.28zm1.336 33.947c-39.612-.216-74.532 28.5-80.92 68.828-7.048 44.5 23.312 86.29 67.813 93.338 44.5 7.048 86.29-23.311 93.338-67.813 7.048-44.5-23.313-86.29-67.813-93.338a82.216 82.216 0 00-12.418-1.015zm-134.66 4.728c2.456 1.296 6.645 5.86 6.645 5.86-17.008 30.403-21.889 63.72-14.99 98.25l-7.458 4.66c-8.203-37.135-2.353-75.911 15.803-108.77zm134.484 21.957c11.138 0 21.032 2.202 29.682 6.6 8.649 4.4 12.973 12.701 12.973 24.906v46.469c0 3.223.06 7.127.185 11.71.186 3.471.713 5.827 1.58 7.065h-.002c.868 1.24 2.169 2.263 3.909 3.069v3.902h-28.811c-.806-2.044-1.365-3.964-1.674-5.762-.31-1.797-.556-3.841-.742-6.134-3.677 3.965-7.917 7.34-12.715 10.128-5.734 3.284-12.216 4.926-19.445 4.926-9.225 0-16.841-2.619-22.856-7.853-6.014-5.236-9.02-12.654-9.02-22.258 0-12.454 4.837-21.468 14.513-27.045 5.307-3.036 13.107-5.205 23.406-6.506l9.082-1.115c4.93-.619 8.454-1.395 10.578-2.324 3.805-1.61 5.71-4.12 5.71-7.528 0-4.15-1.46-7.015-4.38-8.595-2.921-1.58-7.207-2.37-12.86-2.37-6.342 0-10.834 1.55-13.47 4.647-1.886 2.292-3.14 5.39-3.768 9.293h-25.558c.56-8.86 3.048-16.138 7.467-21.84 7.03-8.923 19.103-13.385 36.216-13.385zm16.254 54.465a29.221 29.221 0 01-5.135 2.555c-1.727.652-4.096 1.256-7.11 1.814l-6.03 1.114c-5.651.991-9.71 2.2-12.174 3.625-4.171 2.415-6.256 6.165-6.256 11.246 0 4.523 1.274 7.792 3.822 9.804 2.548 2.014 5.646 3.02 9.295 3.02 5.788 0 11.12-1.67 15.996-5.018 4.878-3.346 7.409-9.45 7.596-18.31h-.004v-9.85z"/></svg>