<svg xmlns="http://www.w3.org/2000/svg" width="100%" height="100%" viewBox="-75.52 -43.52 599.04 599.04"><path d="M166.837 8.01c-9.87-.173-19.5 1.902-28.958 7.65l.009-.026c-4.663 2.837-9.57 6.947-14.223 7.941C108.44 26.837 95.6 35.512 81.107 40.12c-6.894 2.187-10.21 6.407-10.003 13.554-2.828 5.123-7.292 8.33-12.479 10.78-4.595 2.162-8.973 4.632-10.341 10.085-.022.018-.045.034-.067.053C42.813 80.89 37.13 86.97 31.619 96.385l168.968-55.451c-7.31-6.949-14.9-12.83-6.452-23.493-7.577.515-12.934 4.91-19.317 3.923 3.622-5.39 11.373-4.249 15.514-9.544-7.997-2.182-15.819-3.676-23.495-3.81zm90.675 33.646c-7.12.442-13.97 1.004-19.879 6.118-7.02 6.036-14.91 7.751-22.87 1.038-6.008-5.07-11.863-4.11-18.676-.812-15.732 7.635-31.869 14.457-47.826 21.604-37.022 16.662-74.03 33.338-111.023 50.03-11.828 3.868-12.352 4.943-9.632 16.725 1.988 8.602 5.575 17.657-4.518 24.072a6.244 6.244 0 00-3.667 5.77c-.01.006-.019.009-.029.013-2.62 9.154-.423 18.053 1.24 27.044 1.057 5.692 3.704 5.475 8.077 3.397 9.894-4.716 19.933-9.135 29.962-13.553 31.71-13.94 63.426-27.87 95.147-41.79a10.129 10.129 0 002.647-.242c-1.03.544-1.982 1.19-2.502 2.402l-32.529 19.065-48.983 24.955c-14.033 2.422-26.204 10.003-39.505 14.304-8.232 2.656-6.596 5.522-.985 9.217 5.25 6.325 12.985 7.888 20.24 10.346.01-.006.02-.01.03-.017 5.622 2.636 11.21 5.36 16.895 7.868 5.286 2.35 10.2 3.162 13.417-3.542 1.808-3.804 5.097-4.356 9.036-2.548 6.138 2.86 12.636 2.945 19.206 1.81l-.006.006c.014.001.028 0 .04.002l.033.027.046-.021c2.49.217 4.949.249 7.11-1.334 2.973 0 5.972-.235 8.909.063 13.987 1.428 28.552-3.326 42.024 4.12 2.558 1.409 4.943-1.382 7.229-2.547 24.27-12.421 48.516-24.901 72.737-37.437 32.167-16.577 64.324-33.151 96.467-49.723 2.756-1.427 9.035-2.05 3.56-7.625v-.046c-3.754-7.561-7.118-15.266-8.45-23.69.01-.01.018-.02.026-.03-.425-6.279-2.566-12.034-5.277-17.654-2.35-4.816-4.996-6.155-10.481-3.715-12.695 5.656-25.717 10.817-38.728 15.47-13.012 4.654-25.093 11.963-39.08 13.86-.014-.002-.028-.002-.042-.005l.007-.004c-.127-2.142 1.806-1.898 2.972-2.548L318.9 73.67c.253-6.443-2.06-12.235-4.518-17.982a.042.042 0 01-.015.007l.003-.007c-3.307-8.376-9.107-10.826-17.492-7.474a52.037 52.037 0 01-17.892 3.923v-.019l-.044.016-4.78-.386c-6.723-1.437-10.951-6.976-16.653-10.093zm101.581 109.007c-1.563.094-3.33.75-5.414 1.844-25.445 13.346-51.116 26.256-76.714 39.295-30.08 15.36-60.206 30.559-90.177 46.082-1.888.967-7.19.76-4.66 5.485 3.304 6.15 2.303 12.651 2.473 19.099-.003 0-.006.003-.009.004v.026c-.072 3.16-.137 6.316-.197 9.47a33.432 33.432 0 005.421 14.124l.032.007-.023.01 3.659 4.871 8.575 10.734c1.464 9.984 6.55 10.092 15.135 7.156 31.119-10.662 62.546-20.457 93.855-30.577l1.807 1.862a13.228 13.228 0 00.025-.004l-34.125 16.15c-5.684 1.518-10.843 4.175-15.949 7.057a4.093 4.093 0 00-3.866 1.807 327.662 327.662 0 00-39.532 17.764.904.904 0 00-1.184.397 13.048 13.048 0 00-7.382 3.334c-4.744 1.066-10.076 2.612-9.823 8.268.632 14.14-4.274 26.997-7.924 40.188l-.009.003a11.015 11.015 0 001.112 12.56c2.783 3.334 6.478-.597 9.532-1.708a32126.206 32126.206 0 00138.935-50.736c6.117-2.241 13.967-3.235 17.681-7.617 3.994-4.726-1.41-12.343-.994-18.822.522-2.78 1.053-5.56 1.575-8.35.002-.004.003-.006.008-.008 2.783-8.556 9.596-14.855 13.075-23.023l15.867-22.046c3.37-7.228 11.637-9.506 16.028-15.713l-.205.07.16-.088c9.442-5.792 13.48-15.605 20.13-25.815l-42.936 13.191c-2.432.16-4.826.517-7.199.976a11.1 11.1 0 003.251-2.846c2.639-1.265 5.304-2.502 7.924-3.812 13.825-6.903 28.996-10.925 42.007-19.563a1.581 1.581 0 01-.903-.515c.298.162.596.325.903.515 1.256-3.768.786-7.6.073-11.332l.026.055c-1.012-5.286-3.334-7.997-9.035-4.184a28.499 28.499 0 01-12.135 4.98 46.182 46.182 0 01-.034.021.14.14 0 01.008-.04c-7.924-.597-16.102-.442-21.541-7.878h.026c-2.548-3.497-5.258-.977-7.842.053a46052.414 46052.414 0 00-59.899 24.117c-1.498.139-2.93.48-4.333.923.857-.83 1.609-1.764 2.12-2.938 14.439-7.488 28.859-14.999 43.262-22.535 6.28-3.289 16.545-5.656 17.738-10.3 1.554-6.019-8.196-10.962-11.747-17.287-1.987-3.518-4.025-4.918-6.63-4.761zm2.614 185.677c-.869-.058-1.986.193-3.42.783a35619.937 35619.937 0 01-151.43 62.094c-3.858 1.609-4.69 3.018-2.71 7.03 4.824 9.757 9.26 19.722 11.746 30.41a14.114 14.114 0 01-.018.003h.018v.012c.298 2.936 1.012 5.91.822 8.82-.452 6.732.768 8.8 8.087 5.547 33.486-14.91 67.334-28.987 100.811-43.905 14.25-6.352 23.954-17.637 29.908-32.094a21.939 21.939 0 00-.034.003c.008-.003.011-.007.019-.015 8.638-9.885 9.985-21.703 9.036-34.118-.218-2.82-.922-4.445-2.833-4.571zm55.596 18.477c-4.025.03-6.658 4.19-8.524 7.913-1.668 3.317-2.876 6.868-4.29 10.32l-.012.011c-2.475 5.105-4.455 9.667-12.307 8.42-5.521-.877-13.093 3.506-12.56 8.737 1.102 10.924-6.207 20.277-3.966 30.939.862.791 1.701 1.09 2.527 1.112-.997.604-1.928 1.327-2.717 2.304-1.392 5.304-2.91 10.59-1.437 16.146.008 0 .015-.003.027-.003 4.302 9.476 7.533 10.682 16.829 8.028 11.26-3.23 11.214-12.821 13.077-21.477 1.706-4.434 2.96-8.914 2.446-14.196l-16.265 4.933-.01.045c-1.279.48-2.74.116-4.023.648.83-.661 1.567-1.436 2.125-2.428 2.765-1.618 5.393-3.577 8.33-4.806 20.357-8.466 23.656-26.312 25.183-45.178.09-4.04 2.891-9.678-2.62-11.214a6.52 6.52 0 00-1.813-.252zM325.55 413.99c-34.255 17.683-66.981 34.942-100.106 51.396-8.512 4.238-10.012 8.846-5.63 16.482 1.86 6.9 6.7 11.243 12.641 14.658v.008l.006-.002c.001 0 .003 0 .004.002l.018.003c2.203 2.957 5.308 4.11 8.81 4.488 12.406 7.319 27.215.713 34.037-15.19 8.675-4.915 17.295-10.029 26.042-14.854 5.617-3.098 9.575-6.928 8.243-13.979.003-.003.003-.008.007-.011 1.672-4.635 7.654-5.792 8.792-10.843-1.02-10.906 8.176-19.879 7.146-32.14z"/></svg>