<svg xmlns="http://www.w3.org/2000/svg" width="100%" height="100%" viewBox="0 0 599.04 599.04"><path d="M123.51999999999998 75.51999999999998C97.01999999999998 75.51999999999998 75.51999999999998 97.01999999999998 75.51999999999998 123.51999999999998L75.51999999999998 475.52C75.51999999999998 502.02 97.01999999999998 523.52 123.51999999999998 523.52L475.52 523.52C502.02 523.52 523.52 502.02 523.52 475.52L523.52 123.51999999999998C523.52 97.01999999999998 502.02 75.51999999999998 475.52 75.51999999999998L123.51999999999998 75.51999999999998zM236.10202999999998 139.51999999999998C257.14289999999994 139.51999999999998 274.19773 156.57657999999998 274.19773 177.61569999999998 274.19773 198.65480999999997 257.14313 215.71140999999997 236.10397999999998 215.71140999999997 215.06486999999998 215.71140999999997 198.00827999999998 198.65480999999997 198.00827999999998 177.61569999999998 198.00827999999998 156.57657999999998 215.06117999999998 139.51999999999998 236.10202999999998 139.51999999999998zM343.99460999999997 149.10983999999996C391.86685 148.84899 435.31483 172.40256999999997 466.22702999999996 221.87156L466.22508 221.87156C511.68177 294.61811 489.55953 390.44030999999995 416.81297 435.89695 359.33706 471.81163 287.45523 465.5438 237.39109 425.44969L244.83249999999998 420.79929999999996C292.11934999999994 457.15191999999996 358.87915 462.36928 412.43406 428.90672 481.31210999999996 385.86742 502.25849 295.14023 459.21922 226.26218999999998 429.6932 179.01004999999998 382.65882999999997 153.85832 330.69773 156.90671999999998 316.48963 157.73765999999998 304.45164 161.85397999999998 304.45164 161.85397999999998 304.45164 161.85397999999998 303.82398 157.52898999999996 302.91844 154.88522999999998 316.83843 151.12433 330.59038 149.18287999999998 343.99460999999997 149.10983999999996zM331.9282 190.24656C338.12021 190.20155999999997 344.39813999999996 190.66222 350.71531 191.66258 412.86161 201.50731 455.25991 259.86546 445.41648 322.01219 435.57304 384.15895 377.21556 426.5583 315.06883 416.71531 283.95338 411.78729 257.78677 394.6938 240.65086 371.05516L222.12741999999997 382.62937999999997C222.70163999999997 389.75879 219.44815999999997 396.96900999999997 213.02781 401.13719L140.27390599999998 448.38523C130.95394699999997 454.43775999999997 118.49378799999998 451.79046999999997 112.43992199999998 442.46922 106.38782499999998 433.14925 109.03661099999998 420.68906 118.35789099999998 414.63523L191.1118 367.38719C197.46229999999997 363.26367999999997 205.27008999999998 363.18318 211.51609 366.49656L230.67624999999998 354.52195C220.61288 334.12989 216.53709999999998 310.5356 220.36569999999998 286.36569999999995 222.73363999999998 271.41688999999997 227.90678999999997 257.61181 235.26609 245.40086 247.86733999999998 245.57825999999997 260.6657 242.25399 272.14891 235.07859 287.50022 225.48755999999997 297.69516999999996 210.76708999999997 301.90281 194.52586 311.52719 191.79986 321.6082 190.32155999999998 331.9282 190.24656zM333.26414 224.19383C293.65171999999995 223.97778999999997 258.73173999999995 252.69385999999997 252.34421999999998 293.02194999999995 245.29587999999998 337.52188 275.65634 379.31154 320.15671999999995 386.35983999999996 364.65709 393.40817 406.4463 363.04902999999996 413.49460999999997 318.54733999999996 420.54291 274.04738999999995 390.18208999999996 232.25777999999997 345.68210999999997 225.20944999999998 341.51023999999995 224.54868 337.36197999999996 224.21617999999998 333.26414 224.19383zM198.60397999999998 228.92234C201.06038999999998 230.21775 205.24851999999998 234.78171999999998 205.24851999999998 234.78171999999998 188.24098999999998 265.18462999999997 183.36046999999996 298.50142 190.25827999999998 333.03172L182.80124999999998 337.69187999999997C174.598007 300.55726 180.44845999999998 261.78078 198.60397999999998 228.92234zM333.08835999999997 250.87937999999997C344.22594 250.87937 354.11964 253.08093999999997 362.77 257.47898 371.41904999999997 261.87875999999994 375.74266 270.18035999999995 375.74266 282.38523L375.74266 328.85398C375.74266 332.07714 375.80294 335.98127 375.9282 340.56492 376.11379 344.03531 376.64092 346.39074999999997 377.50827999999996 347.62937999999997L377.50633 347.62937999999997C378.37372999999997 348.86972 379.67458 349.89194 381.41452999999996 350.69773L381.41452999999996 354.60008 352.60398 354.60008C351.79818 352.55566999999996 351.23942999999997 350.63558 350.93016 348.83835999999997 350.61921 347.04116 350.37361 344.99694 350.18797 342.70358999999996 346.51117 346.66881 342.27103 350.04431 337.47312 352.8325 331.73931 356.11553 325.25697 357.75827999999996 318.02781 357.75827999999996 308.80322 357.75827999999996 301.18674 355.13897 295.17233999999996 349.90477 289.15794999999997 344.66927 286.15281 337.25056 286.15281 327.64695 286.15281 315.19313999999997 290.98934999999994 306.17884999999995 300.66453 300.60202999999996 305.97158 297.56622 313.77241 295.39680999999996 324.07078 294.09617L333.15281 292.98094C338.08211 292.36204 341.60717 291.58612 343.73094 290.65671999999995 347.53614 289.04686 349.44187999999997 286.53774 349.44187999999997 283.12937999999997 349.44187 278.97855 347.98107 276.11361 345.06102 274.53367 342.1397 272.95374 337.85434 272.16453 332.20164 272.16453 325.85895 272.16453 321.36689 273.71361 318.73094 276.81102 316.84524 279.10263 315.59133999999995 282.20078 314.96335999999997 286.10398L289.40477 286.10398C289.96464 277.24414 292.45270999999997 269.96583999999996 296.87156 264.26414 303.90252 255.34099999999998 315.97457999999995 250.87937999999997 333.08835999999997 250.87937999999997zM349.34227 305.34422C347.64826999999997 306.39763999999997 345.93485999999996 307.24883 344.2075 307.89891 342.4801 308.55075 340.11116999999996 309.15519 337.09617 309.71335999999997L331.06687999999997 310.82664C325.41591999999997 311.81806 321.3564 313.02738999999997 318.89305 314.45164 314.72182 316.8673 312.63719 320.61749 312.63719 325.69773 312.63719 330.22111 313.91067 333.48967 316.45944999999995 335.50242 319.00697 337.51646999999997 322.10488 338.52195 325.75437999999997 338.52195 331.54195 338.52195 336.87318999999997 336.85116 341.75047 333.50437999999997 346.62771999999995 330.15758 349.15896999999995 324.05494999999996 349.34617 315.19383L349.34227 315.19383 349.34227 305.34422z" /></svg>