<svg xmlns="http://www.w3.org/2000/svg" width="100%" height="100%" viewBox="0 0 599.04 599.04"><path d="M123.51999999999998 75.51999999999998C97.01999999999998 75.51999999999998 75.51999999999998 97.01999999999998 75.51999999999998 123.51999999999998L75.51999999999998 475.52C75.51999999999998 502.02 97.01999999999998 523.52 123.51999999999998 523.52L475.52 523.52C502.02 523.52 523.52 502.02 523.52 475.52L523.52 123.51999999999998C523.52 97.01999999999998 502.02 75.51999999999998 475.52 75.51999999999998L123.51999999999998 75.51999999999998zM182.64694999999998 139.52390599999998C183.42003 139.53216199999997 184.19127999999998 139.55314499999997 184.95944999999998 139.58249999999998 193.41006999999996 139.85593999999998 202.12187999999998 144.02252 204.26999999999998 149.06101999999998 206.79654999999997 154.99857999999998 203.94448999999997 158.82700999999997 201.61374999999998 163.05906 198.61906999999997 168.50187999999997 200.07781999999997 173.94493999999997 203.97116999999997 178.47702999999998 208.17659999999998 183.41159 218.51346999999998 194.02281 224.39890999999997 200.30124999999998 245.29735999999997 184.45333999999997 271.27409 174.93796999999998 299.52977 174.93796999999998 327.77085999999997 174.93796999999998 353.74834 184.45425999999998 374.63327999999996 200.28758 380.51869999999997 194.02482999999998 390.85756 183.41162999999997 395.06297 178.47702999999998 398.95633999999995 173.94493999999997 400.42847 168.50403 397.42039 163.07468999999998 395.09103999999996 158.82952999999998 392.2373 155.00016999999997 394.77585999999997 149.06296999999998 396.91195999999997 144.03761999999998 405.62207 139.85799999999998 414.07273 139.584453 420.21774 139.36314699999997 426.57286 139.63742499999998 432.11960999999997 143.07468799999998 439.45016 147.65999999999997 442.53565 154.41512999999998 442.69187999999997 163.00827999999998 442.80929 168.73877 440.17947999999996 169.77893 446.57273 170.89891 454.54209 172.27883999999997 460.88154 175.83294999999998 462.43210999999997 181.36765999999997 463.98116999999996 186.92785999999998 463.20115999999996 191.30293999999998 461.07858999999996 196.26413999999997 457.61429999999996 202.69603999999998 454.60661999999996 203.98465 448.99460999999997 205.71531 444.16391 207.1871 435.65995999999996 206.51079 428.35594 203.65866999999997 426.68910999999997 203.00790999999998 425.17843 201.95247999999998 423.59031 201.10593999999998 418.85038 198.55386 415.99989999999997 199.05006999999998 412.39304999999996 202.90476999999998 410.32225 205.14364999999998 403.8391 211.00104 394.92039 219.45163999999997 413.12419 241.11827 424.11179999999996 269.02153 424.11179999999996 299.51608999999996 424.11179999999996 330.02376999999996 413.12277 357.91393 394.92039 379.58054999999996 403.83869 388.04318 410.33589 393.91656 412.40672 396.14304999999996 416.01349999999996 399.99627999999996 418.86548999999997 400.49219999999997 423.60398 397.95358999999996 425.19316 397.09499999999997 426.7031 396.03906 428.36960999999997 395.38719 435.68671 392.53652999999997 444.17566 391.86012 449.00633 393.31883 454.63174999999995 395.06259 457.62646 396.35175999999996 461.09031 402.78367 463.21182 407.74528 464.00712999999996 412.11832 462.44969 417.6782 460.9006 423.21143 454.55876 426.76752999999997 446.60398 428.14891 440.19721999999996 429.26747 442.82764 430.31014 442.71141 436.03952999999996 442.55384 444.63268 439.46792999999997 451.38926 432.15085999999997 455.97312 426.60263 459.41055 420.23571 459.68478 414.09031 459.46335999999997 405.63973999999996 459.20304 396.93041999999997 455.01126999999997 394.77977 449.98483999999996 392.25468 444.05967 395.09214 440.20514 397.43602 435.97312 400.43068 430.55582 398.97387 425.11294 395.08054999999996 420.56883 390.87547 415.64766 380.52259 405.02245 374.63719 398.74656 353.75187 414.59296 327.78827 424.11179999999996 299.53367 424.11179999999996 271.27799 424.11179999999996 245.30127 414.59296 224.40281 398.74656 218.51737999999997 405.02245 208.1805 415.64734999999996 203.97508 420.56883 200.08171999999996 425.11294 198.62300999999997 430.55582 201.61766 435.97312 203.94841999999997 440.20513 206.80046 444.05967 204.27390999999997 449.98483999999996 202.12581999999998 455.01016999999996 193.41395 459.20351 184.96335999999997 459.46335999999997 178.81801 459.68462 172.451487 459.41044999999997 166.904766 455.97312 159.58619 451.38925 156.48664399999998 444.63268 156.33054699999997 436.03952999999996 156.226631 430.31014 158.858386 429.26747 152.451641 428.14891 144.482282 426.76752999999997 138.15293099999997 423.21143 136.59031199999998 417.6782 135.04124199999998 412.11948 135.823195 407.7449 137.94578099999998 402.78367 141.40857499999998 396.35177999999996 144.41585299999997 395.06104 150.02781199999998 393.31687999999997 154.858519 391.85819 163.361091 392.53654 170.678203 395.38719 172.345055 396.0376 173.85573899999997 397.09155999999996 175.443828 397.95164 180.18262999999996 400.49021 183.02118 399.99629999999996 186.64108999999996 396.14304999999996 188.72391999999996 393.91659 195.20901999999998 388.04335 204.11569999999998 379.59422 185.92537 357.93998 174.92234399999998 330.02378 174.92234399999998 299.51608999999996 174.92234399999998 269.02151 185.91049999999998 241.11825 204.1118 219.45163999999997 195.20657999999997 211.00105 188.72163999999998 205.1426 186.63914 202.88913999999997 183.02033 199.03585999999999 180.18176 198.55191 175.44187499999998 201.10397999999998 173.853751 201.93739999999997 172.34274599999998 202.99283999999997 170.67624999999998 203.65671999999998 163.35875699999997 206.49534999999997 154.85654 207.18515999999997 150.02585899999997 205.71336 144.41387399999996 203.98270999999997 141.40659499999998 202.68043999999998 137.943828 196.24851999999998 135.82084999999998 191.30044999999998 135.03889399999997 186.91383 136.58835899999997 181.35397999999998 138.15094599999998 175.83279 144.47983 172.26486999999997 152.44773399999997 170.89694999999998 158.85414799999998 169.77697999999998 156.22270299999997 168.73515999999998 156.326641 162.99266 156.483768 154.41298999999998 159.583747 147.64345999999998 166.90085899999997 143.07273399999997 171.75424399999997 140.053353 177.23537999999996 139.46611299999998 182.64694999999998 139.52390599999998zM299.52977 182.64305C235.07711999999998 182.64305 182.64305 235.07658999999998 182.64305 299.51608999999996 182.64305 363.96871999999996 235.07711999999998 416.40477 299.52977 416.40477 363.95617 416.40477 416.40281 363.96871999999996 416.40281 299.51608999999996 416.40281 235.07658999999998 363.95581 182.64305 299.52977 182.64305zM264.92039 236.66647999999998C270.95347 236.66647999999998 275.84421999999995 247.17367 275.84421999999995 260.13523 275.84421999999995 273.09675 270.95347 283.60398 264.92039 283.60398 258.88732 283.60398 253.99656 273.09675 253.99656 260.13523 253.99656 247.17367 258.88732 236.66647999999998 264.92039 236.66647999999998zM334.13914 236.66647999999998C340.16458 236.66647999999998 345.04929999999996 247.17367 345.04929999999996 260.13523 345.04929999999996 273.09675 340.16458 283.60398 334.13914 283.60398 328.11373 283.60398 323.22898 273.09675 323.22898 260.13523 323.22898 247.17367 328.11373 236.66647999999998 334.13914 236.66647999999998zM235.67624999999998 311.35202999999996L247.25046999999998 311.35202999999996C247.25046999999998 317.43323 244.97208999999998 323.00612 241.32663999999997 327.45945 245.26011999999997 337.32864 268.82573 349.67233999999996 299.51608999999996 349.67233999999996 330.21846999999997 349.67233999999996 353.77209999999997 337.32864 357.70554999999996 327.45945 354.04553999999996 323.00612 351.79539 317.43323 351.79539 311.35202999999996L363.35789 311.35202999999996C363.35789 319.50257999999997 370.56976 326.13133 379.42429999999996 326.13133L379.42429999999996 337.7075C374.94433999999995 337.7075 370.75324 336.57302 367.00242 334.75047 358.5132 349.00739 332.32793 361.24852 299.51608999999996 361.24852 266.7163 361.24852 240.52044999999998 349.00775999999996 232.02976999999998 334.75047 228.28041 336.57302 224.08638 337.7075 219.60788999999997 337.7075L219.60788999999997 326.13133C228.46244 326.13133 235.67624999999998 319.50257999999997 235.67624999999998 311.35202999999996z" /></svg>