<svg xmlns="http://www.w3.org/2000/svg" width="100%" height="100%" viewBox="-75.52 -43.52 599.04 599.04"><path d="M48 32C21.5 32 0 53.5 0 80v352c0 26.5 21.5 48 48 48h352c26.5 0 48-21.5 48-48V80c0-26.5-21.5-48-48-48H48zM25.22 96h83.825c27.262 0 48.615 5.525 64.053 16.563 15.43 11.044 23.152 26.366 23.152 45.97 0 15.326-5.186 28.17-15.547 38.531-5.862 5.863-11.61 10.141-17.24 12.844-5.635 2.705-14.534 5.524-26.703 8.45l22.646 30.081c4.733 6.312 11.153 14.086 19.266 23.325 9.01 10.14 18.7 20.505 29.068 31.095 9.237 9.691 16.505 16.733 21.803 21.125 5.292 4.396 13.35 9.635 24.168 15.717h-54.756c-9.016 0-18.708-5.181-29.07-15.549-12.169-12.39-24.562-27.598-37.18-45.629-8.565-11.491-16.113-22.082-22.646-31.773-5.186-7.658-12.623-19.268-22.309-34.816 42.363-5.858 63.543-22.308 63.543-49.348 0-25.234-17.913-37.857-53.742-37.857H84.033v185.183c0 6.549 1.183 11.853 3.549 15.914 2.366 4.066 6.93 8.693 13.691 13.88H23.53v-.003c6.307-4.733 10.701-9.236 13.184-13.52 2.478-4.278 3.719-9.464 3.719-15.548v-183.54c0-5.18-1.064-10.248-3.186-15.208a164.444 164.444 0 00-4.248-6.422c-1.415-2.028-4.006-5.182-7.777-9.465zm243.202 78.688c17.806.12 33.712 7.751 43.414 28.59 8.74 18.772 16.48 38.009 24.69 57.03 1.207 2.789 2.516 5.53 4.406 9.678 6.156-8.075 12.315-14.974 17.136-22.707 12.887-20.668 33.064-53.531 37.75-62.574 2.39-4.84 5.877-8.272 8.078-8.484 2.204-.212 5.018-.288 7.399 1.199 2.38 1.489 4.21 5.08 2.543 12.12-1.667 7.037-2.625 9.6-4.934 15.023-13.517 29.579-33.347 55.054-54.193 79.697-3.933 4.65-4.106 8.054-1.902 13.314 9.407 22.466 18.225 45.177 27.566 67.672 3.106 7.477 6.943 14.675 10.777 21.822 3.876 7.227 6.645 11.048 18.414 10.889 4.85-.016 14.07-1.31 14.85 5.709.854 7.673-8.463 8.817-14.016 9.95-6.268 1.277-9.424 1.765-15.836 1.78-14.78.032-32.248-5.625-39.484-18.755-7.407-13.442-11.405-23.244-18.201-41.604-4.46-12.053-9.47-23.916-14.717-37.326-2.954 3.17-5.734 5.38-7.537 8.213-22.372 30.331-35.362 54.868-45.383 72.094-7.9 13.58-8.561 19.578-17.943 17.619-8.555-3.497-6.086-14.977-5.412-17.885 3.969-17.14 16.53-33.978 26.318-48.78 10.941-16.543 24.39-31.413 36.379-47.288 1.774-2.351 2.993-6.827 1.984-9.311-10.748-26.447-21.924-52.725-33.142-78.98-6.101-13.017-10.252-21.317-34.248-20.414-3.97-.361-6.376-1.406-6.31-5.989 0-5.558 3.751-7.532 6.501-8.347 8.473-2.515 16.96-4.01 25.053-3.956z"/></svg>