<svg xmlns="http://www.w3.org/2000/svg" width="100%" height="100%" viewBox="0 0 599.04 599.04"><path d="M292.69973 371.84402c-9.78758 15.38441-19.17851 30.4337-40.22128 45.05521-11.25687 7.89055-37.16464 23.30604-73.9908 23.30604-70.258325 0-126.9676516-51.07979-126.9676516-140.88446 0-78.48565 53.3447156-140.48607 128.4662816-140.48607 30.4337 0 57.47396 10.52167 77.38654 26.30447 18.41392 14.65033 27.03796 29.30348 34.56291 42.45573l-52.58013 26.27338c-3.76134-8.62631-8.28954-17.64933-19.91259-27.40585-12.78437-10.15549-25.53991-13.15224-36.45998-13.15224-42.821335 0-65.364452 39.82459-65.364452 84.14459 0 58.23852 29.700162 87.14305 65.364452 87.14305 34.5629 0 48.47976-24.0418 57.47396-39.42563l52.24332 26.67235zM476.89382 167.09317H547.52L455.48314 432.31469999999996H387.88647L296.98212 167.09317h70.62446l54.84337 188.60017z" /></svg>