<svg xmlns="http://www.w3.org/2000/svg" width="100%" height="100%" viewBox="0 0 599.04 599.04"><path d="M123.51999999999998 75.51999999999998C97.01999999999998 75.51999999999998 75.51999999999998 97.01999999999998 75.51999999999998 123.51999999999998L75.51999999999998 475.52C75.51999999999998 502.02 97.01999999999998 523.52 123.51999999999998 523.52L475.52 523.52C502.02 523.52 523.52 502.02 523.52 475.52L523.52 123.51999999999998C523.52 97.01999999999998 502.02 75.51999999999998 475.52 75.51999999999998L123.51999999999998 75.51999999999998zM217.62156 221.40476999999998L242.81883 246.60202999999998 189.91452999999998 299.52 242.19187999999997 352.43797 217.62156 377.63523 139.51999999999998 299.52 217.62156 221.40476999999998zM380.77781 227.70555A23.307631 23.307631 0 0 1 404.09227 251.00827999999998 23.307631 23.307631 0 0 1 380.77781 274.32273 23.307631 23.307631 0 0 1 357.47508 251.00827999999998 23.307631 23.307631 0 0 1 380.77781 227.70555zM328.50046999999995 268.02391L381.40477 320.93992 434.32273 268.02391 459.52 293.22117 381.40477 371.33445 303.93016 293.22117 328.50046999999995 268.02391zM259.83444999999995 275.57664A23.307631 23.307631 0 0 1 283.13719 298.89305 23.307631 23.307631 0 0 1 259.83444999999995 322.19577999999996 23.307631 23.307631 0 0 1 236.51999999999998 298.89305 23.307631 23.307631 0 0 1 259.83444999999995 275.57664z" /></svg>