<svg xmlns="http://www.w3.org/2000/svg" width="100%" height="100%" viewBox="0 0 599.04 599.04"><path d="M299.75456999999994 107.52000199999998c-56.609494 0-102.672708 46.060038-102.672708 102.672708v95.80414C185.28793599999997 324.67345 178.45089529999998 346.77788999999996 178.45089529999998 370.45246 178.45089529999998 437.20256 232.76826999999997 491.52 299.52153 491.52c66.75488 0 121.06757-54.31744 121.06757-121.06753 0-23.36039-6.65696-45.19142-18.16336-63.70974v-96.55002c0-56.61267-46.06008-102.672707-102.67117-102.672708z m0 41.117078c33.93778 0 61.55256 27.61306 61.55256 61.55563v56.18267c-18.0994-10.78622-39.22999-16.99355-61.7856-16.99355-22.36252 0-43.324422 6.10272-61.321059 16.71912v-55.90824c0-33.94256 27.616291-61.55563 61.554099-61.55563z m-0.23319 141.86412c44.08316 0 79.94664 35.86494 79.94664 79.95126 0 44.08159-35.86352 79.95354-79.94664 79.95354-44.084751 0-79.953565-35.87195-79.953565-79.95354 0-44.08634 35.868814-79.95126 79.953565-79.95126z m0.39477 46.38808c-18.73403 0-33.921939 15.18766-33.921939 33.9296 0 18.73088 15.187909 33.91734 33.921939 33.91734 18.73565 0 33.92194-15.18646 33.92194-33.91734 0-18.74194-15.18629-33.9296-33.92194-33.9296z" /></svg>