<svg xmlns="http://www.w3.org/2000/svg" width="100%" height="100%" viewBox="0 0 599.04 599.04"><path d="M123.51999999999998 75.51999999999998C97.01999999999998 75.51999999999998 75.51999999999998 97.01999999999998 75.51999999999998 123.51999999999998L75.51999999999998 475.52C75.51999999999998 502.02 97.01999999999998 523.52 123.51999999999998 523.52L475.52 523.52C502.02 523.52 523.52 502.02 523.52 475.52L523.52 123.51999999999998C523.52 97.01999999999998 502.02 75.51999999999998 475.52 75.51999999999998L123.51999999999998 75.51999999999998zM139.51999999999998 139.51999999999998L246.18796999999998 139.51999999999998 246.18796999999998 192.85397999999998 192.85397999999998 192.85397999999998 192.85397999999998 406.18602 299.52 406.18602 299.52 459.52 139.51999999999998 459.52 139.51999999999998 139.51999999999998zM299.52 139.51999999999998L406.18602 139.51999999999998 459.52 139.51999999999998 459.52 459.52 352.85202999999996 459.52 352.85202999999996 406.18602 406.18602 406.18602 406.18602 192.85397999999998 299.52 192.85397999999998 299.52 139.51999999999998z" /></svg>