<svg xmlns="http://www.w3.org/2000/svg" width="100%" height="100%" viewBox="-75.52 -43.52 599.04 599.04"><path d="M48 32C21.5 32 0 53.5 0 80v352c0 26.5 21.5 48 48 48h352c26.5 0 48-21.5 48-48V80c0-26.5-21.5-48-48-48H48zm103.29 142.27h.747c1.299.01 2.63.033 3.95.087 1.211.055 2.448.207 3.66.282.194.022.408.043.6.078 7.899.681 15.574 2.187 22.89 4.633.844.27 1.656.573 2.478.865.27.087.541.194.801.29 6.883 2.588 13.126 5.768 18.656 9.47l-23.115 41.504c-7.37-7.306-16.612-11.05-28.592-11.504l-2.347-.067c-7.543 0-14.124 1.57-19.903 4.719a16.947 16.947 0 00-.875.486c-2.066 1.234-4.048 2.62-5.941 4.254-7.781 6.807-11.644 14.686-12.067 24.815 0 .14-.012.291-.021.464-.195 6.365 1.202 12.37 4.352 18.247 2.791 5.182 6.525 9.34 11.394 12.576a37.708 37.708 0 001.852 1.168c5.962 3.527 12.683 5.378 20.517 5.691.952.055 1.884.098 2.793.098 13.01 0 23.127-4.805 32.076-14.621 4.015-5.584 7.609-12.348 10.963-19.133l1.688-3.42.802-1.568-.021-.022 15.291-30.918a159.015 159.015 0 013.441-5.693c1.743-2.902 4.113-6.125 6.678-9.242l.043.043.01.021a130.803 130.803 0 013.94-4.643l1.87-1.968.358-.39.736-.726h-.021l1.568-1.666 1.148-1.126c1.591-1.462 3.072-2.79 4.436-3.874 6.698-5.389 14.893-9.88 24.297-13.277 9.33-3.43 19.252-5.378 29.512-5.844 1.505-.054 2.997-.076 4.425-.076 14.61 0 28.3 2.988 40.692 8.908 8.235 3.971 15.54 8.992 21.85 15.063a81.945 81.945 0 0111.558 13.851c7.564 11.407 12.022 24.037 13.213 37.532v.043c.097 1.244.183 2.466.238 3.722a133.974 133.974 0 01.09 3.475v.617c-.076 20.724-8.204 38.234-23.182 53.568-15.811 16.147-37.737 25.574-62.336 26.602-1.666.065-1.342.066-2.943.066-13.82 0-26.33-2.944-37.834-7.857-4.74-2.056-10.681-5.369-15.281-8.734-4.59-3.376-11.287-10.13-11.287-10.13l21.556-39.64c5.163 5.358 15.628 17.347 32.067 20.768l.107-.043c4.275.941 8.809 1.255 13.473.855 22.401-1.937 39.11-19.784 37.314-39.869-1.807-20.085-21.438-34.804-43.84-32.877-13.354 1.148-24.684 7.954-31.275 17.51l-.076.119c-2.824 4.014-4.956 7.834-7.91 13.213l-.996 1.795-1.19 2.295v.076s-20.044 37.65-26.201 47.996l-.736 1.059-.737 1.084-1.58 1.98-4.144 4.684c-1.104 1.158-2.272 2.286-3.442 3.4l-.691.658c-1.99 1.808-4.036 3.507-6.223 5.076l-1.818 1.245-1.084.726a61.721 61.721 0 01-4.49 2.867c-2.868 1.612-5.67 3.064-8.559 4.297-11.557 4.956-24.447 7.434-38.375 7.434-1.558 0-3.117-.043-4.697-.108-24.62-1.027-45.127-9.73-60.895-25.877-15.108-15.389-22.704-33.72-22.695-54.564 0-1.245.031-2.51.086-3.787.65-14.903 5.174-28.786 13.463-41.297 8.31-12.51 19.523-22.218 33.353-28.885 12.348-5.898 25.854-8.875 40.387-8.93z"/></svg>