<svg xmlns="http://www.w3.org/2000/svg" width="100%" height="100%" viewBox="0 0 599.04 599.04"><path d="M123.51999999999998 75.51999999999998C97.01999999999998 75.51999999999998 75.51999999999998 97.01999999999998 75.51999999999998 123.51999999999998L75.51999999999998 475.52C75.51999999999998 502.02 97.01999999999998 523.52 123.51999999999998 523.52L475.52 523.52C502.02 523.52 523.52 502.02 523.52 475.52L523.52 123.51999999999998C523.52 97.01999999999998 502.02 75.51999999999998 475.52 75.51999999999998L123.51999999999998 75.51999999999998zM299.71531 139.51999999999998C346.89123 139.51999999999998 385.27391 177.90332999999998 385.27391 225.08055L385.27391 305.53952999999996C394.86258 320.97146 400.41062 339.16434 400.41062 358.63133 400.41062999999997 414.25640999999996 355.15103 459.52 299.52194999999995 459.52 243.89423999999997 459.52 198.62937999999997 414.25642 198.62937999999997 358.63133 198.62937 338.90252 204.32649999999998 320.48032 214.15476999999998 304.91648L214.15476999999998 225.08055C214.15476999999998 177.90332999999998 252.54073999999997 139.51999999999998 299.71531 139.51999999999998zM299.71531 173.78366999999997C271.43381 173.78366999999997 248.42038999999997 196.79507999999998 248.42038999999997 225.08055L248.42038999999997 271.67039C263.41758 262.82339 280.88652 257.73875 299.52194999999995 257.73875 318.3183 257.73875 335.9274 262.9104 351.01023 271.89891L351.01023 225.08055C351.01023 196.79507999999998 327.9968 173.78366999999997 299.71531 173.78366999999997zM299.52194999999995 292.00437999999997C262.78466 292.00437 232.89305 321.89272 232.89305 358.63133 232.89305 395.36598999999995 262.78466 425.25827999999996 299.52194999999995 425.25827999999996 336.25789 425.25827999999996 366.14304999999996 395.36598999999995 366.14304999999996 358.63133 366.14304999999996 321.89273 336.25791999999996 292.00437999999997 299.52194999999995 292.00437999999997zM299.85008 330.66062C315.46313 330.66062999999997 328.11766 343.31773999999996 328.11766 358.93602 328.11766 374.54508999999996 315.46313 387.19969 299.85008 387.19969 284.23839 387.19969 271.5825 374.54508999999996 271.5825 358.93602 271.5825 343.31773999999996 284.23839 330.66062 299.85008 330.66062z" /></svg>