<svg xmlns="http://www.w3.org/2000/svg" width="100%" height="100%" viewBox="-75.52 -43.52 599.04 599.04"><path d="M48 32C21.5 32 0 53.5 0 80v352c0 26.5 21.5 48 48 48h352c26.5 0 48-21.5 48-48V80c0-26.5-21.5-48-48-48H48zm94.102 145.885l25.197 25.197L114.395 256l52.277 52.918-24.57 25.197L64 256l78.102-78.115zm163.156 6.3a23.308 23.308 0 0123.314 23.303 23.308 23.308 0 01-23.314 23.315 23.308 23.308 0 01-23.303-23.315 23.308 23.308 0 0123.303-23.302zm-52.278 40.319l52.905 52.916 52.918-52.916L384 249.7l-78.115 78.113-77.475-78.113 24.57-25.197zm-68.666 7.553a23.308 23.308 0 0123.303 23.316 23.308 23.308 0 01-23.303 23.303A23.308 23.308 0 01161 255.373a23.308 23.308 0 0123.314-23.316z"/></svg>