<svg xmlns="http://www.w3.org/2000/svg" width="100%" height="100%" viewBox="-43.52 -43.52 599.04 599.04"><path d="M115.592 222.507c-9.726 0-18.734 7.074-24.986 14.417-5.06 5.954-7.59 15.133-7.59 22.775 0 7.64 2.87 16.139 7.931 22.093 6.152 7.343 12.778 12.375 22.603 12.375 8.833 0 19.338-3.708 25.39-9.76 6.151-6.054 11.269-16.218 11.269-25.05 0-8.73-2.396-19.186-8.548-25.24-6.153-6.154-17.338-11.61-26.07-11.61zm174.644 2.4c-10.12 0-18.358 3.98-24.709 11.937-5.158 6.386-7.74 13.663-7.74 21.828 0 8.271 2.582 15.6 7.74 21.986 6.35 7.956 14.589 11.937 24.71 11.937 9.03 0 16.67-3.251 22.92-9.742 6.254-6.597 9.379-14.653 9.379-24.18 0-9.423-3.177-17.377-9.527-23.868-6.25-6.595-13.843-9.898-22.773-9.898zM256 8C119.034 8 8 119.034 8 256s111.034 248 248 248 248-111.034 248-248S392.966 8 256 8zm-58.826 323.79H151.24v-18.699c-4.665 5.855-15.639 11.824-20.4 14.502-8.335 4.663-19.654 7.7-30.273 7.7-17.168 0-32.45-5.424-45.845-17.231-15.977-14.09-23.483-35.633-23.483-58.854 0-23.618 8.186-42.473 24.56-56.563 12.999-11.214 28.896-20.19 45.766-20.19 9.822 0 21.94.883 30.572 5.05 4.962 2.38 13.844 7.985 19.104 13.443v-98.502h45.936v229.345zm157.216-21.14c-15.281 17.588-36.667 26.384-64.154 26.384-27.586 0-49.02-8.796-64.304-26.383-12.6-14.448-18.904-32.193-18.904-53.235 0-18.95 6.35-35.752 19.053-50.408 15.38-17.693 37.261-26.54 65.64-26.54 26.099 0 46.937 8.845 62.518 26.54 12.702 14.448 19.052 31.667 19.052 51.664.003 20.206-6.299 37.531-18.901 51.98zm38.769-199.217c5.359-5.36 11.858-8.038 19.499-8.038 7.64 0 14.14 2.679 19.499 8.038 5.358 5.26 8.037 11.71 8.037 19.35 0 7.74-2.679 14.289-8.037 19.648-5.26 5.259-11.76 7.888-19.5 7.888-7.642 0-14.142-2.679-19.498-8.038-5.26-5.358-7.889-11.858-7.889-19.499-.003-7.64 2.63-14.09 7.889-19.35zm43.91 220.242h-48.823V185.841h48.823z"/></svg>