<svg xmlns="http://www.w3.org/2000/svg" width="100%" height="100%" viewBox="0 0 599.04 599.04"><path d="M437.32916 93.31567999999999V491.4074h-76.00147v-32.01487c-14.83228 14.10728-29.71034 24.26899-44.6274 30.4834-14.92781 6.21846-31.09938 9.32705-48.52553 9.32705-39.11367 0-72.9493-15.17133-101.49836-45.51633C138.127342 423.3417 123.85729799999999 385.61701999999997 123.85729799999999 340.51831c0-46.77086 13.811709-85.09512 41.432342-114.97896 27.62283-29.87989 61.17309-44.82181 100.66316-44.82181 18.16582 0 35.21785 3.43696 51.1583 10.30242 15.94442 6.86771 30.68407 17.16786 44.21659 30.90103V71.58515699999998h36.04065C367.34603999999996 58.67873899999998 334.27107 51.51999819999998 299.51996999999994 51.51999819999998 162.55393999999998 51.51999819999998 51.51999829999998 162.55395 51.51999829999998 299.51998 51.51999829999998 436.48602 162.55393999999998 547.52 299.51996999999994 547.52 436.48602 547.52 547.52 436.48602 547.52 299.51998 547.52 213.55066 503.77072 137.80746999999997 437.32916 93.31624299999999ZM281.43381999999997 250.87240999999997c-23.49363 0-43.00727 8.30816-58.5465 24.91602-15.53697 16.61407-23.30774 37.90889-23.30774 63.89295 0 26.16829 7.90525 47.70103 23.7214 64.58748 15.81612 16.89098 35.28226 25.33309 58.40634 25.33309 23.86153 0 43.656-8.30367 59.37325-24.91605 15.72348-16.60785 23.58689-38.37171 23.58689-65.28368 0-26.35194-7.86341-47.6965-23.58689-64.0314-15.71498-16.32869-35.60043-24.49841-59.6462-24.49841z" /></svg>