<svg xmlns="http://www.w3.org/2000/svg" width="100%" height="100%" viewBox="0 0 599.04 599.04"><path d="M123.51999999999998 75.51999999999998C97.01999999999998 75.51999999999998 75.51999999999998 97.01999999999998 75.51999999999998 123.51999999999998L75.51999999999998 475.52C75.51999999999998 502.02 97.01999999999998 523.52 123.51999999999998 523.52L475.52 523.52C502.02 523.52 523.52 502.02 523.52 475.52L523.52 123.51999999999998C523.52 97.01999999999998 502.02 75.51999999999998 475.52 75.51999999999998L123.51999999999998 75.51999999999998zM299.52 139.51999999999998C321.94007 139.51999999999998 343.27968999999996 144.13858999999997 362.64891 152.46531L339.395 152.46531 339.395 249.45555C330.66435 240.59543999999997 321.15632999999997 233.95077999999998 310.86960999999997 229.51999999999998 300.58543999999995 225.09065999999999 289.58363999999995 222.87351999999998 277.86375 222.87351999999998 252.38628999999997 222.87351999999998 230.74157 232.51413 212.92038999999997 251.79147999999998 195.10062999999997 271.07138 186.18991999999997 295.79642 186.18991999999997 325.97117 186.18991999999997 355.06710999999996 195.39618 379.40551 213.81491999999997 398.98289 232.23367 418.5603 254.06270999999998 428.34812 279.29733999999996 428.34812 290.54001999999997 428.34812 300.97312999999997 426.34243999999995 310.60398 422.33054999999996 320.22789 418.32124999999996 329.82578 411.76597999999996 339.395 402.66452999999996L339.395 423.31883 388.4282 423.31883 388.4282 166.48483999999996C431.29371 195.18884999999997 459.52 244.05592 459.52 299.52 459.52 387.88518 387.88518999999997 459.52 299.52 459.52 211.15481999999997 459.52 139.51999999999998 387.88518 139.51999999999998 299.52 139.51999999999998 211.15481999999997 211.15481999999997 139.51999999999998 299.52 139.51999999999998zM287.85203 268.13523C303.36542999999995 268.13523 316.1938 273.40529 326.3325 283.93992 336.47666999999996 294.47857 341.55125 308.24922 341.55125 325.25047 341.55125 342.61303 336.47666999999996 356.65486 326.3325 367.36960999999997 316.19232999999997 378.08727 303.42235 383.44383 288.02781 383.44383 273.10904999999997 383.44383 260.55012 377.9975 250.34616999999997 367.10008 240.14220999999998 356.2056 235.04147999999998 342.31291999999996 235.04147999999998 325.43016 235.04147999999998 308.66625 240.05473999999998 294.92821 250.07859 284.20944999999995 260.10389999999995 273.49470999999994 272.69485 268.13523 287.85203 268.13523z" /></svg>