<svg xmlns="http://www.w3.org/2000/svg" width="100%" height="100%" viewBox="-139.52 -43.52 599.04 599.04"><path d="M234.559 151.334l-.042.002-10.347-54.523c15.382-7.703 25.99-23.575 25.99-41.918C250.16 29.037 229.123 8 203.267 8c-25.858 0-46.899 21.037-46.899 46.897 0 25.858 21.04 46.897 46.9 46.897.648 0 1.282-.073 1.927-.1l9.972 52.541c-27.26 8.325-47.149 33.695-47.149 63.643 0 22.043 10.817 41.559 27.376 53.676l-21.779 36.877a103.639 103.639 0 00-50.416-13.032c-57.514 0-104.303 46.79-104.303 104.3C18.896 457.21 65.686 504 123.2 504S227.5 457.21 227.5 399.7c0-32.216-14.686-61.06-37.71-80.208l22.93-38.827c6.852 2.391 14.18 3.758 21.84 3.758 36.692 0 66.543-29.851 66.543-66.543 0-36.696-29.853-66.547-66.545-66.547zm-26.611 248.365c0 46.727-38.018 84.746-84.75 84.746-46.731 0-84.75-38.019-84.75-84.746 0-46.73 38.019-84.748 84.75-84.748 46.732 0 84.75 38.019 84.75 84.748zm-4.68-314.201c-16.875 0-30.604-13.727-30.604-30.601s13.729-30.601 30.603-30.601c16.875 0 30.6 13.727 30.6 30.6 0 16.875-13.727 30.602-30.6 30.602zm31.29 179.37c-25.91 0-46.989-21.08-46.989-46.99 0-25.911 21.08-46.99 46.99-46.99 25.91 0 46.99 21.081 46.99 46.99.002 25.91-21.08 46.99-46.99 46.99z"/></svg>