<svg xmlns="http://www.w3.org/2000/svg" width="100%" height="100%" viewBox="-107.52 -43.52 599.04 599.04"><path fill-rule="evenodd" d="M32.247 40.013c-2.243-.152-3.888 1.011-2.65 5.636L65.389 179.21l-.006.003L31.73 194.85s-10.075 4.682-7.241 15.251l44.177 164.875s2.83 10.565 12.905 5.883c70.217-32.635 111.108-51.638 111.108-51.638l23.56-10.953s9.312-4.357 7.47-14.123c-.07-.374-.124-.738-.229-1.128l-20.369-76.023-11.79-43.992c-1.318-4.69 0 0-12.155-45.64 0 0-2.832-10.57-15.067-18.073L39.002 42.58s-3.871-2.372-6.755-2.568zm275.111 90.152c-1.408-.024-3.04.318-4.93 1.196l-100.86 46.582 15.486 57.762-.028-.019 19.591 73.44c.104.388.155.754.227 1.127.921 8.41-7.468 14.123-7.468 14.123l-33.745 15.777 9.066 33.925.14.558s2.832 10.57 15.067 18.073l125.097 76.708s12.233 7.503 9.4-3.067l-35.733-133.36 33.605-15.62c-.002 0 10.072-4.682 7.238-15.25l-44.177-164.872s-1.872-6.977-7.976-7.083z"/></svg>