<svg xmlns="http://www.w3.org/2000/svg" width="100%" height="100%" viewBox="0 0 599.04 599.04"><path d="M123.51999999999998 75.51999999999998C97.01999999999998 75.51999999999998 75.51999999999998 97.01999999999998 75.51999999999998 123.51999999999998L75.51999999999998 475.52C75.51999999999998 502.02 97.01999999999998 523.52 123.51999999999998 523.52L475.52 523.52C502.02 523.52 523.52 502.02 523.52 475.52L523.52 123.51999999999998C523.52 97.01999999999998 502.02 75.51999999999998 475.52 75.51999999999998L123.51999999999998 75.51999999999998zM386.45945 139.51999999999998L407.68406 139.51999999999998 407.68406 225.64305 386.45945 225.64305 378.29539 179.1118 275.43796999999995 179.1118 275.43796999999995 295.02977 351.35594 295.02977 357.07077999999996 260.74460999999997 377.07077999999996 260.74460999999997 377.07077999999996 350.94773 357.07077999999996 350.94773 351.35594 317.07077999999996 275.43796999999995 317.07077999999996 275.43796999999995 408.50047C275.43796999999995 428.90862999999996 276.66269 431.35605999999996 277.88719 432.58054999999996 279.11168 433.80503999999996 283.19318999999996 435.02977 316.66258 435.02977L346.86766 435.02977C371.35746 435.02977 383.19433999999995 433.3984 388.50047 428.09227 394.21475999999996 422.37798999999995 400.74539999999996 406.86629999999997 408.90867 372.98875L429.31687999999997 372.98875 421.15281 457.88719 250.94772999999998 457.88719C222.3763 457.88719 191.76394 458.70367 169.72312499999998 459.52L169.72312499999998 439.52 222.78562 435.43797 223.19383 435.02977 223.19383 179.1118 170.131328 175.02976999999998 170.131328 154.62156C198.70275999999998 155.84605999999997 219.11108 156.66258 231.76413999999997 156.66258L382.37742 156.66258 386.45945 139.51999999999998z" /></svg>