<svg xmlns="http://www.w3.org/2000/svg" width="100%" height="100%" viewBox="-75.52 -43.52 599.04 599.04"><path d="M48 32C21.5 32 0 53.5 0 80v352c0 26.5 21.5 48 48 48h352c26.5 0 48-21.5 48-48V80c0-26.5-21.5-48-48-48H48zm176.053 64c7.447.053 13.28 5.987 13.24 13.494-.014 7.44-6.033 13.44-13.4 13.387-7.328-.04-13.4-6.2-13.36-13.533.067-7.374 6.153-13.388 13.52-13.348zm44.898 7.133c7.594-.134 13.72 5.814 13.774 13.347.053 7.534-6.06 13.693-13.52 13.653-7.26-.053-13.414-6.172-13.48-13.399-.08-7.28 5.939-13.481 13.226-13.601zm-90.357.04c7.447-.04 13.387 5.853 13.414 13.347.04 7.453-5.899 13.493-13.293 13.546-7.354.054-13.36-5.985-13.4-13.425-.027-7.48 5.831-13.414 13.279-13.467zm64.773 19.186c6.166.04 11.398 5.36 11.371 11.534-.04 6.173-5.313 11.413-11.506 11.373-6.14-.054-11.465-5.413-11.398-11.506.08-6.134 5.46-11.44 11.533-11.4zm-38.746.094c6.233 0 11.292 5.188 11.238 11.494-.066 6.28-5.258 11.373-11.464 11.227-6.233-.12-11.131-5.322-11.038-11.682.134-6.093 5.191-11.039 11.264-11.039zm-66.947 1.36c7.608-.054 13.547 5.893 13.547 13.546 0 7.707-5.886 13.587-13.534 13.547-7.407-.026-13.734-6.413-13.587-13.707.173-7.24 6.327-13.32 13.574-13.387zm172.199.013c7.607-.133 13.652 5.788 13.719 13.414.093 7.667-5.778 13.652-13.399 13.666-7.46.027-13.76-6.2-13.72-13.547.04-7.226 6.166-13.4 13.4-13.533zm-29.764 10.4c6.233 0 11.345 5.107 11.399 11.36.04 6.466-5.032 11.721-11.399 11.707-6.072-.027-11.37-5.214-11.53-11.334-.174-6.093 5.364-11.732 11.53-11.732zm-112.511.174c6.192-.147 11.41 4.972 11.45 11.252.027 6.294-5.005 11.48-11.237 11.494-6.18.014-11.28-5.16-11.252-11.453.04-6.133 4.94-11.133 11.039-11.293zm56.35 9.067c5.418 0 9.488 4.16 9.421 9.64-.08 5.2-4.164 9.239-9.383 9.239-5.298 0-9.702-4.454-9.582-9.627.12-5.067 4.431-9.225 9.543-9.252zm32.003 5.039h.002c5.446.04 9.38 4.12 9.3 9.68-.066 5.093-4.337 9.374-9.382 9.414-5.045.013-9.741-4.64-9.715-9.68.013-5.12 4.51-9.44 9.795-9.414zm-64.156.053v.002c5.219-.147 9.488 3.84 9.635 8.986.16 5.306-4.003 9.787-9.221 9.853-5.032.067-9.383-4.16-9.49-9.254-.107-5.173 3.937-9.427 9.076-9.587zM105.36 156.4c7.434 0 13.442 5.92 13.522 13.307.053 7.427-6.354 13.799-13.735 13.652-7.367-.133-13.239-6.213-13.199-13.666.04-7.533 5.831-13.278 13.412-13.293zm237.33.053c7.461.053 13.401 6.054 13.334 13.467-.053 7.333-6.26 13.425-13.56 13.332-7.34-.08-13.44-6.279-13.36-13.572.08-7.387 6.112-13.267 13.586-13.227zm-206.152.733c6.353.013 11.384 4.987 11.399 11.28.013 6.294-4.992 11.346-11.319 11.4-6.406.08-11.825-5.267-11.691-11.52.12-6.24 5.272-11.187 11.611-11.16zm175.229.08c6.152.12 10.931 5.054 10.931 11.267-.026 6.387-4.965 11.254-11.398 11.174-6.38-.04-11.185-4.974-11.092-11.428.107-6.333 5.139-11.147 11.559-11.013zm-74.207 5.773c4.164.133 7.674 3.788 7.714 8.041 0 4.653-3.377 7.972-8.062 7.893-4.298-.067-7.848-3.6-7.875-7.84 0-4.253 4.018-8.214 8.223-8.094zm-74.047.041c5.071.107 9.222 4.386 9.195 9.533-.013 5.24-4.057 9.318-9.275 9.332h-.002c-5.179.027-9.395-4.066-9.489-9.226-.08-5.253 4.379-9.746 9.57-9.639zm121.025 0h.002c5.058.001 9.34 4.28 9.38 9.373.041 5.253-3.961 9.385-9.14 9.492-5.352.094-9.744-4.211-9.677-9.478.053-5.066 4.404-9.372 9.435-9.387zm-73.805.094c4.298.16 7.714 3.76 7.66 8.053-.066 4.373-3.47 7.746-7.874 7.732-4.352-.027-7.847-3.466-7.887-7.746-.053-4.414 3.764-8.186 8.101-8.04zm52.278 8.465c4.377.026 7.741 3.428 7.715 7.841 0 4.28-3.578 7.867-7.823 7.827-4.204-.04-7.848-3.747-7.834-7.92.014-4.227 3.644-7.763 7.942-7.748zm-78.278.027c4.432-.107 7.889 3.173 7.97 7.547.08 4.373-3.218 7.933-7.503 8.066-4.284.134-7.9-3.334-8.008-7.64-.093-4.387 3.217-7.866 7.541-7.973zm39.078 6.627c3.417-.106 6.675 2.92 6.862 6.387.16 3.4-2.857 6.667-6.34 6.853v-.002c-3.683.214-6.954-2.866-6.994-6.52-.014-3.506 2.949-6.598 6.472-6.718zm-21.98 3.652c3.75-.053 6.633 2.707 6.713 6.387.027 3.693-2.789 6.52-6.54 6.52-3.563 0-6.313-2.599-6.46-6.159-.12-3.733 2.603-6.654 6.287-6.748zm43.924.055c3.697-.067 6.62 2.8 6.605 6.44-.013 3.533-2.723 6.252-6.273 6.345-3.617.08-6.379-2.465-6.54-6.025-.16-3.747 2.51-6.68 6.208-6.76zm-105.266 3.932c5.286-.04 9.743 4.294 9.729 9.441 0 5.053-4.697 9.705-9.742 9.639-5.018-.054-9.275-4.373-9.329-9.44h-.002c-.066-5.6 3.819-9.614 9.344-9.64zm166.873.066c5.085-.013 9.422 4.2 9.502 9.254.067 5.12-4.564 9.707-9.662 9.56-5.085-.133-9.317-4.48-9.25-9.546.04-5.107 4.219-9.254 9.41-9.268zm-144.13 1.469c4.417 0 7.794 3.36 7.794 7.732 0 4.32-3.471 7.774-7.822 7.76-4.31 0-7.9-3.533-7.9-7.76 0-4.266 3.55-7.732 7.927-7.732zm121.44 0c4.459-.014 7.782 3.319 7.782 7.799-.04 4.413-3.483 7.773-7.914 7.693-4.218-.08-7.515-3.374-7.582-7.627-.08-4.44 3.257-7.838 7.715-7.865zm-171.103.931c6.287-.106 11.41 4.908 11.49 11.24.107 6.267-4.91 11.467-11.17 11.614-6.192.12-11.41-5-11.464-11.307-.054-6.36 4.858-11.453 11.144-11.547zm220.62.055c6.206.013 11.464 5.306 11.37 11.44-.066 6.16-5.484 11.386-11.583 11.226-6.073-.16-11.106-5.24-11.186-11.254-.027-6.146 5.232-11.426 11.398-11.412zm-68.215 3.68c3.483.12 6.26 2.986 6.246 6.426-.027 3.48-3.257 6.56-6.727 6.414-3.444-.12-6.232-3.041-6.232-6.508.04-3.667 3.002-6.479 6.713-6.332zm-83.483.013c3.524.107 6.154 2.88 6.113 6.426-.04 3.507-2.802 6.334-6.246 6.4h-.002c-3.603.094-6.538-2.839-6.511-6.505 0-3.707 2.923-6.467 6.646-6.32zm32.139.76c3.07-.093 5.778 2.413 5.738 5.36 0 2.773-2.495 5.212-5.338 5.279-3.257.093-5.672-2.185-5.672-5.305 0-2.933 2.282-5.227 5.272-5.334zm18.644.133c2.963.093 5.207 2.454 5.114 5.4-.107 2.934-2.496 5.147-5.46 5.053-2.923-.107-5.259-2.546-5.152-5.426.107-2.946 2.482-5.107 5.498-5.027zm130.305 4.147c7.368.106 13.266 6.2 13.213 13.613-.053 7.346-6.234 13.386-13.574 13.28-7.26-.094-13.44-6.399-13.307-13.612.134-7.333 6.354-13.361 13.668-13.281zm-279.105.027c7.42-.053 13.358 5.879 13.373 13.346.026 7.48-5.86 13.506-13.268 13.52v.001c-7.407.04-13.372-5.934-13.387-13.387-.04-7.493 5.834-13.44 13.282-13.48zm112.779 1.4c2.99-.106 5.445 2.08 5.605 4.987.187 2.986-2.335 5.572-5.445 5.572-2.883.013-5.378-2.36-5.445-5.2-.027-2.786 2.402-5.265 5.285-5.359zm53.238.053c3.003 0 5.218 2.227 5.233 5.24-.014 3-2.255 5.227-5.245 5.213-3.002 0-5.245-2.24-5.218-5.24 0-3 2.214-5.213 5.23-5.213zm30.979 8.934c3.483.013 6.565 3.199 6.539 6.666-.04 3.466-3.202 6.572-6.658 6.52-3.47-.054-6.554-3.187-6.514-6.667.04-3.426 3.216-6.56 6.633-6.52zm-114.834.066c3.403.067 6.22 2.973 6.273 6.44.053 3.64-2.91 6.627-6.514 6.56-3.403-.067-6.327-3-6.38-6.4-.054-3.48 3.137-6.667 6.62-6.6zm-19.221 1.412c4.484-.013 7.769 3.175 7.836 7.668.093 4.613-3.352 8.213-7.836 8.227-4.271.026-8.18-3.974-8.06-8.227.093-4.187 3.749-7.668 8.06-7.668zm153.287 0c4.391.093 7.675 3.494 7.621 7.947-.053 4.347-3.524 7.881-7.795 7.881v-.002c-4.217 0-7.873-3.638-7.953-7.865-.093-4.373 3.683-8.068 8.127-7.96zm-35.568.108c2.749-.067 5.38 2.347 5.566 5.107.174 2.92-2.376 5.72-5.299 5.787-2.91.08-5.62-2.626-5.58-5.533.04-2.787 2.537-5.282 5.313-5.361zm-82.457.08h.002c2.828 0 5.19 2.453 5.205 5.373 0 2.906-2.417 5.347-5.26 5.32-2.816-.013-5.218-2.466-5.191-5.373.013-2.893 2.415-5.346 5.244-5.32zm-56.828 5.386c5.445-.013 9.541 4.135 9.474 9.575-.053 5.106-4.31 9.385-9.342 9.425-5.137.04-9.674-4.56-9.595-9.718v-.002c.107-5.106 4.325-9.28 9.463-9.28zm196.021 0c5.259-.066 9.437 3.921 9.557 9.108.133 5.306-4.086 9.799-9.291 9.892-5.099.08-9.768-4.533-9.701-9.627.04-5.053 4.337-9.32 9.435-9.373zm-46.142 9.452a7.1 7.1 0 01.603.001c2.99.134 5.112 2.414 5.059 5.415-.054 3.133-2.497 5.372-5.713 5.132-3.31-.213-4.98-2.08-4.965-5.386.013-3.025 2.055-5.043 5.016-5.162zm-103.66.068c2.909.093 5.311 2.56 5.218 5.373-.107 2.893-2.575 5.147-5.512 5.08-2.91-.093-5.312-2.547-5.205-5.387.094-2.84 2.589-5.16 5.498-5.066zm174.12.933c6.153.027 11.452 5.36 11.438 11.506-.04 6.12-5.366 11.414-11.506 11.4-6.113 0-11.45-5.385-11.424-11.505.014-6.12 5.38-11.427 11.492-11.4zm-244.55.067c6.192-.067 11.37 5.08 11.37 11.36 0 6.306-5.125 11.453-11.318 11.386-6.26-.093-11.251-5.212-11.171-11.545.066-6.093 5.032-11.094 11.119-11.201zm54.8 2.24c3.564.013 6.58 2.96 6.633 6.467.054 3.547-2.883 6.586-6.433 6.666-3.697.093-6.992-3.12-6.912-6.693.093-3.44 3.216-6.453 6.712-6.44zm135.135 0c3.75.053 6.407 2.8 6.393 6.613-.027 3.68-2.91 6.573-6.553 6.52-3.617-.027-6.434-2.987-6.367-6.68.04-3.787 2.777-6.493 6.527-6.453zm-152.18 7.16c4.232.134 7.783 3.867 7.676 8.053-.107 4.186-3.87 7.854-8.035 7.8-4.35-.04-8.022-3.947-7.808-8.347.186-4.267 3.856-7.652 8.168-7.506zm169.438.014c4.191 0 7.928 3.547 8.074 7.707.12 4.173-3.843 8.2-8.074 8.2-4.311 0-7.781-3.454-7.861-7.827-.067-4.68 3.23-8.08 7.861-8.08zm-142.436 6.707c2.83.067 5.353 2.587 5.38 5.387.08 2.906-2.617 5.478-5.647 5.412-2.896-.053-5.364-2.493-5.404-5.28 0-2.96 2.708-5.612 5.671-5.519zm115.356.266c2.99.053 5.179 2.32 5.139 5.32-.054 2.973-2.39 5.225-5.327 5.172a5.282 5.282 0 01-5.166-5.373c.04-2.96 2.35-5.173 5.354-5.12zm88.967.933c7.5.027 13.321 5.92 13.281 13.426 0 7.373-6.046 13.494-13.373 13.547-7.34.053-13.774-6.452-13.627-13.799.16-7.36 6.245-13.214 13.719-13.174zm-293.44.053c7.528-.027 13.374 5.788 13.4 13.281.014 7.467-5.884 13.507-13.265 13.547-7.367.053-13.374-5.974-13.414-13.414-.04-7.507 5.792-13.4 13.28-13.414zm250.344 3.934c5.045.2 9.222 4.68 9.049 9.693-.214 5.147-4.938 9.626-9.983 9.373-5.218-.267-9.303-4.8-9.09-10.106.214-5.413 4.392-9.147 10.024-8.96zm-206.62.052c5.153.08 9.332 4.267 9.317 9.4-.04 5.067-4.31 9.373-9.382 9.426-5.18.054-9.69-4.533-9.543-9.68.146-5.053 4.497-9.199 9.609-9.146zm32.247 2.895a6.458 6.458 0 016.219 6.506c-.027 3.6-3.055 6.56-6.672 6.48-3.55-.053-6.527-3.187-6.434-6.72.147-3.6 3.243-6.426 6.887-6.266zm141.674.08c3.537-.027 6.394 2.653 6.54 6.146.134 3.56-2.855 6.692-6.405 6.72-3.51.04-6.66-3.119-6.567-6.612.067-3.44 2.922-6.214 6.432-6.254zm-128.701 10.133c2.869-.027 5.418 2.4 5.498 5.213.093 2.8-2.362 5.4-5.205 5.52-2.977.146-5.714-2.453-5.7-5.413.014-2.813 2.51-5.28 5.407-5.32zm115.435.146c2.99 0 5.247 2.254 5.233 5.24-.014 2.987-2.283 5.294-5.22 5.307-2.856 0-5.258-2.4-5.273-5.28 0-2.946 2.31-5.267 5.26-5.267zm27.174 1.787c4.338 0 7.887 3.493 7.873 7.76 0 4.213-3.602 7.773-7.873 7.773a7.738 7.738 0 01-7.781-7.787c0-4.4 3.363-7.746 7.781-7.746zm-169.637.014c4.351.04 7.876 3.586 7.809 7.812-.067 4.254-3.698 7.747-7.969 7.694-4.338-.053-7.821-3.588-7.781-7.867.067-4.32 3.564-7.692 7.941-7.64zm207.114 2.307c6.272.053 11.384 5.171 11.384 11.384-.04 6.187-5.204 11.295-11.504 11.295-6.26.014-11.492-5.04-11.585-11.226-.107-6.294 5.218-11.533 11.705-11.453zm-244.457.105c6.406.014 11.225 4.973 11.158 11.387-.067 6.386-5.046 11.173-11.506 11.066-6.326-.107-11.156-5.173-10.983-11.613.134-6.133 5.111-10.88 11.33-10.84zm189.695 7.32c3.47.04 6.26 2.814 6.326 6.334.067 3.6-2.494 6.373-6.031 6.52-3.697.16-6.647-2.56-6.727-6.24-.067-3.653 2.815-6.627 6.432-6.614zm-134.92.041c3.337.094 6.286 3.093 6.312 6.426.014 3.56-3.016 6.48-6.673 6.4-3.697-.08-6.447-3.066-6.246-6.76.2-3.412 3.177-6.172 6.607-6.066zm119.305 5.573c2.83-.054 5.299 2.347 5.379 5.267.093 2.96-2.135 5.452-5.018 5.625-2.776.16-5.38-2.186-5.566-5.053-.2-3.08 2.215-5.786 5.205-5.84zm-103.957.107c2.79.053 5.325 2.612 5.298 5.399-.053 2.813-2.601 5.32-5.418 5.28-2.802-.012-5.311-2.586-5.285-5.4.04-2.786 2.602-5.319 5.405-5.279zm-45.846 1.346c5.192.08 9.196 4.186 9.129 9.44-.04 5.146-4.244 9.32-9.356 9.333-5.031.027-9.315-4.24-9.369-9.347-.053-5.334 4.23-9.533 9.596-9.426zm196.101 0c5.219.106 9.223 4.24 9.143 9.48-.066 5.107-4.337 9.333-9.422 9.28-5.045-.04-9.382-4.36-9.435-9.374-.04-5.2 4.43-9.493 9.714-9.386zm-174.64 8.72c4.418.094 7.649 3.48 7.582 7.92-.08 4.32-3.63 7.76-7.928 7.653-4.31-.107-7.755-3.707-7.648-8 .106-4.32 3.616-7.652 7.994-7.573zm152.793.026c4.445-.08 7.822 3.175 7.888 7.601a7.751 7.751 0 01-7.62 7.932c-4.285.093-7.89-3.4-7.983-7.666-.107-4.253 3.404-7.814 7.715-7.867zm-215.574.533c7.393.147 13.36 6.241 13.293 13.588-.067 7.453-6.54 13.76-13.868 13.533-7.34-.24-13.346-6.44-13.306-13.693.067-7.507 6.327-13.575 13.88-13.428zm278.57 0c7.66.014 13.48 5.868 13.467 13.574-.013 7.507-6.26 13.707-13.627 13.547-7.26-.187-13.36-6.28-13.453-13.494-.094-7.426 6.112-13.627 13.613-13.627zm-82.149 3.48c3.658-.093 6.7 2.774 6.74 6.374.054 3.586-2.936 6.548-6.58 6.521-3.723-.013-6.619-2.947-6.552-6.56.054-3.44 2.869-6.255 6.392-6.334zm-114.673.014c3.536.04 6.3 2.787 6.34 6.293.066 3.747-2.752 6.561-6.475 6.508-3.537-.053-6.34-2.774-6.406-6.254-.08-3.587 2.897-6.573 6.54-6.547zm98.484.694c3.23-.107 5.7 2.172 5.727 5.279.013 2.907-2.284 5.254-5.26 5.361-3.07.107-5.78-2.373-5.78-5.293-.013-2.747 2.457-5.24 5.313-5.347zm-82.215.08c3.016.093 5.152 2.347 5.045 5.4-.093 3.026-2.35 5.119-5.406 5.025-3.003-.106-5.138-2.359-5.059-5.384v-.002c.108-3 2.405-5.133 5.42-5.04zm-69.137 8.76c6.447 0 11.413 4.8 11.52 11.16.107 6.373-5.273 11.772-11.613 11.652-6.34-.12-11.184-5.106-11.184-11.52.014-6.493 4.804-11.293 11.277-11.293zm220.608.052c6.1.013 11.13 4.948 11.264 11.041.147 6.16-5.005 11.399-11.264 11.479-6.273.053-11.492-5.053-11.492-11.266 0-6.2 5.166-11.294 11.492-11.254zm-136.87 1.627c2.897-.013 5.712 2.747 5.499 5.613-.24 3.187-2.162 5.068-5.285 5.4-2.843.28-5.685-2.506-5.739-5.386-.066-2.84 2.656-5.6 5.526-5.627zm53.159.147c2.87.08 5.167 2.533 5.113 5.466-.053 2.92-2.51 5.348-5.326 5.268-2.816-.067-5.191-2.574-5.111-5.467.04-2.893 2.494-5.32 5.324-5.267zm-68.24 4.173c3.617.08 6.406 3.027 6.326 6.747-.067 3.773-2.816 6.453-6.567 6.4-3.764-.08-6.393-2.84-6.367-6.652.054-3.654 2.99-6.548 6.608-6.495zm83.175 0c3.724-.106 6.875 3 6.834 6.707-.053 3.547-3.029 6.44-6.646 6.44-3.524-.027-6.607-3-6.674-6.48-.053-3.44 2.99-6.56 6.486-6.667zm-124.605.307h.002c5.044.135 9.381 4.535 9.314 9.494-.04 5.053-4.79 9.707-9.794 9.6-5.152-.107-9.371-4.6-9.278-9.906.054-5.506 4.125-9.32 9.756-9.188zm166.514.08c5.111.013 9.383 4.24 9.424 9.32.013 5.014-4.313 9.401-9.344 9.495-5.205.093-9.648-4.387-9.569-9.627.08-5.12 4.297-9.214 9.489-9.188zm-92.438 1.016c2.666.108 5.171 2.553 5.272 5.29.107 2.734-2.296 5.373-5.073 5.573-2.882.2-5.686-2.345-5.793-5.252-.093-2.786 2.256-5.386 5.059-5.6.179-.014.357-.018.535-.011zm18.123.103c2.883.027 5.219 2.414 5.219 5.387 0 2.893-2.429 5.321-5.272 5.281-2.802-.013-5.298-2.56-5.271-5.373.014-2.84 2.468-5.308 5.324-5.295zm-69.601.469c4.43.147 7.606 3.492 7.552 8.012-.04 4.386-3.43 7.866-7.754 7.92-4.27.053-8.22-3.866-8.14-8.12.067-4.346 3.884-7.932 8.342-7.812zm121.48.04c4.338.146 7.634 3.692 7.527 8.065-.066 4.32-3.655 7.827-7.886 7.774-4.271-.053-7.782-3.64-7.768-7.92 0-4.52 3.643-8.066 8.127-7.92zm-82.775 8.065c3.523.134 6.42 3.253 6.34 6.8-.107 3.506-3.27 6.533-6.727 6.4-3.59-.133-6.353-3.146-6.26-6.8.107-3.626 3.097-6.546 6.647-6.4zm43.537.08c3.537-.08 6.62 2.988 6.605 6.561-.013 3.413-2.883 6.346-6.273 6.44-3.63.093-6.567-2.853-6.553-6.52.013-3.52 2.764-6.374 6.22-6.48zm-21.836 3.628c3.577-.014 6.354 2.613 6.46 6.146.134 3.627-2.777 6.666-6.394 6.666-3.536.013-6.645-3.12-6.525-6.613.093-3.454 2.909-6.16 6.459-6.2zm39.213 4.066c4.524.067 7.687 3.28 7.687 7.812 0 4.48-3.737 8.227-8.035 8.067-4.177-.147-7.872-3.92-7.887-8.014 0-4.427 3.67-7.932 8.235-7.865zm-78.332.014c4.471-.08 7.836 3.105 7.982 7.545.147 4.52-3.43 8.253-7.861 8.226-4.231-.027-7.821-3.612-7.848-7.879-.053-4.32 3.362-7.813 7.727-7.892zm-79.399 4.025c7.435 0 13.452 6.002 13.493 13.361.026 7.267-6.086 13.507-13.387 13.614-7.474.106-13.628-6.122-13.56-13.735.066-7.533 5.9-13.267 13.454-13.24zm237.063.027c7.447-.053 13.507 5.881 13.56 13.254.067 7.32-6.006 13.505-13.334 13.612-7.247.093-13.519-6.08-13.586-13.373-.093-7.32 5.966-13.44 13.36-13.493zM163.58 329.64c5.058.146 9.21 4.425 9.21 9.572 0 5.466-4.098 9.48-9.624 9.387-5.125-.067-9.328-4.28-9.342-9.387 0-5.16 4.644-9.719 9.756-9.572zm121.094 0c5.232.106 9.409 4.545 9.289 9.879-.12 5.24-4.218 9.133-9.543 9.08-5.112-.04-9.382-4.267-9.436-9.32-.04-5.147 4.578-9.733 9.69-9.64zm-148.162 2.213c6.22 0 11.398 5.186 11.398 11.425 0 6.2-5.232 11.467-11.398 11.467-6.127 0-11.518-5.373-11.504-11.467.013-6.133 5.351-11.425 11.504-11.425zm174.922.066c6.206 0 11.278 5.16 11.252 11.467-.054 6.266-5.245 11.398-11.452 11.252v.002c-6.112-.147-10.998-5.135-11.039-11.268-.04-6.293 5.032-11.44 11.239-11.453zm-73.967.84c4.244.067 7.767 3.72 7.74 7.972-.053 4.347-3.535 7.775-7.873 7.721-4.244-.026-7.876-3.707-7.822-7.88.066-4.188 3.817-7.866 7.955-7.813zm-26.973.013c4.231-.04 7.765 3.534 7.78 7.854 0 4.373-3.403 7.826-7.727 7.84-4.324.026-7.767-3.414-7.781-7.774-.027-4.306 3.47-7.905 7.728-7.92zm45.31 11.625c5.513 0 9.503 4.014 9.45 9.561-.053 5.213-4.565 9.707-9.65 9.547-4.925-.16-9.382-4.64-9.461-9.533-.08-5.107 4.39-9.548 9.662-9.575zm-63.515.108c5.218.08 9.194 4.16 9.154 9.414-.026 5.12-4.256 9.359-9.314 9.373-5.219.013-9.544-4.466-9.41-9.719.147-5.173 4.325-9.148 9.57-9.068zm31.777 4.92c5.086.067 9.25 4.294 9.223 9.48 0 5.16-4.124 9.386-9.236 9.44-5.246.053-9.65-4.427-9.53-9.68.134-5.093 4.472-9.294 9.543-9.24zm55.883 5.28c6.353-.08 11.465 4.84 11.531 11.12.107 6.32-4.857 11.4-11.183 11.467-6.393.053-11.465-4.787-11.611-11.107-.134-6.214 4.937-11.388 11.263-11.48zm-112.164.093c6.393-.013 11.29 4.92 11.264 11.307-.04 6.346-5.004 11.2-11.424 11.12-6.353-.08-11.186-5.094-11.053-11.507.107-6.2 4.954-10.92 11.213-10.92zm-30.097 6.254c7.5-.04 13.386 5.746 13.453 13.226.053 7.52-5.74 13.373-13.24 13.426-7.475.054-13.48-5.8-13.587-13.213-.093-7.333 5.94-13.386 13.374-13.44zm172.439.013c7.568 0 13.36 5.8 13.36 13.307 0 7.52-5.807 13.334-13.321 13.334-7.488.014-13.4-5.867-13.426-13.307-.013-7.453 5.913-13.348 13.387-13.334zm-66.842 5.506c6.38-.013 11.679 5.295 11.545 11.655-.147 6.213-5.311 11.106-11.678 11.052-6.26-.053-11.424-5.2-11.37-11.386.04-6.12 5.27-11.306 11.503-11.32zm-38.678.147c6.42 0 11.278 4.907 11.211 11.32-.04 6.413-4.965 11.24-11.412 11.147-6.206-.08-11.01-4.946-11.05-11.12-.027-6.413 4.872-11.347 11.251-11.347zm64.545 15.08c7.568-.053 13.506 5.72 13.573 13.187.08 7.627-6.006 13.773-13.534 13.72-7.354-.041-13.48-6.174-13.494-13.468-.013-7.373 5.995-13.386 13.455-13.44zm-90.33.082c7.488.067 13.28 5.998 13.186 13.478-.107 7.454-6.072 13.309-13.52 13.202-7.46-.107-13.253-6.054-13.174-13.547.08-7.467 5.994-13.226 13.508-13.133zm45.084 7.025c7.701-.026 13.509 5.8 13.494 13.506-.013 7.547-6.219 13.746-13.6 13.586-7.22-.147-13.374-6.265-13.52-13.478-.134-7.334 6.125-13.587 13.626-13.614z"/></svg>