<svg xmlns="http://www.w3.org/2000/svg" width="100%" height="100%" viewBox="0 0 599.04 599.04"><path d="M123.51999999999998 75.51999999999998C97.01999999999998 75.51999999999998 75.51999999999998 97.01999999999998 75.51999999999998 123.51999999999998L75.51999999999998 475.52C75.51999999999998 502.02 97.01999999999998 523.52 123.51999999999998 523.52L475.52 523.52C502.02 523.52 523.52 502.02 523.52 475.52L523.52 123.51999999999998C523.52 97.01999999999998 502.02 75.51999999999998 475.52 75.51999999999998L123.51999999999998 75.51999999999998zM264.21531 139.51999999999998L442.45554999999996 139.51999999999998 425.98483999999996 152.37937999999997 425.98483999999996 175.07272999999998C432.10074 175.85805 431.45358999999996 179.53292 431.45358999999996 183.93015999999997L431.45358999999996 291.15281C431.45358999999996 296.11843999999996 427.39153999999996 300.18210999999997 422.42625 300.18210999999997L419.10202999999996 300.18210999999997C414.1364 300.18210999999997 410.07273 296.11807999999996 410.07273 291.15281L410.07273 183.93015999999997C410.07273 179.52235 409.43278 175.84356999999997 415.59422 175.06883L415.59422 160.80319999999998 368.17039 199.69577999999998C368.71833999999996 200.71150999999998 369.23814 201.36327999999997 369.73289 202.21531 373.89973 209.59266 376.02195 218.76449999999997 376.02195 229.97508 376.02195 238.56832999999997 374.58991 246.29004999999998 371.68602 253.10593999999998 368.79519999999997 259.9233 365.27941999999996 265.49045 361.1782 269.77977 357.07701 274.08406 352.96274999999997 278.01590999999996 348.84812 281.55710999999997 344.73485999999997 285.10524 341.21905999999996 288.80375 338.34031 292.645 335.43892 296.47313999999994 333.99266 300.43246999999997 333.99266 304.53367 333.99266 308.64180999999996 335.86859999999996 312.81451999999996 339.60594 317.02 343.3298 321.23859999999996 347.91123 325.32635 353.32858999999996 329.36375 358.75797 333.37417999999997 364.17492999999996 337.82653 369.59227 342.67039 375.02130999999997 347.50622999999996 379.57932999999997 353.73145999999997 383.3032 361.29148 387.05366999999995 368.87665999999996 388.9282 377.2288 388.9282 386.40867 388.9282 398.51795 385.84064 409.45466 379.68210999999997 419.18797 373.51007 428.88113999999996 365.46333999999996 436.61683999999997 355.58054999999996 442.28758 345.67150999999996 447.99697 335.07333 452.29389 323.77194999999995 455.19773 312.44398 458.07506 301.20694 459.52 289.98289 459.52 282.89865999999995 459.52 275.75023999999996 458.97249999999997 268.56102 457.85398 261.34883 456.73398 254.12278999999998 454.7557 246.84421999999998 451.96922 239.55254999999997 449.16267 233.09315999999998 445.71842999999996 227.49461 441.57858999999996 221.88255999999998 437.48391999999996 217.36477 432.19685999999996 213.90086 425.75827999999996 210.43694 419.31976 208.71726999999998 412.07971 208.71726999999998 404.03952999999996 208.71726999999998 394.5009 211.37420999999998 385.65421 216.69968999999998 377.40477 222.02480999999997 369.21549 229.08199 362.37924999999996 237.85788999999997 356.96335999999997 253.17113999999998 347.43787 277.19434 341.55206 309.88914 339.32664 302.41588 329.98381 298.66648 321.18689 298.66648 312.9575 298.66648 308.27479 299.88833999999997 303.25766 302.31102 297.84031 298.4045 298.38717999999994 294.38241999999997 298.69383 290.27977 298.69383 272.71704 298.69383 257.88436 292.98431 245.84031 281.4868 233.79628999999997 270.00824 227.78171999999998 255.64059999999998 227.78171999999998 238.26999999999998 227.78171999999998 236.45400999999998 227.83390999999997 234.85134 227.96336 233.08055L156.584453 233.08055 264.21531 139.51999999999998zM295.59421999999995 177.85397999999998C284.3953 177.85397999999998 275.80236 181.88304 269.81296999999995 189.9243 263.82507 197.94441999999998 260.82858999999996 207.65894999999998 260.82858999999996 219.07077999999998 260.82858999999996 228.79058999999998 262.4692 238.68721999999997 265.75046999999995 248.77781 269.01856999999995 258.86329 274.3717 267.86728999999997 281.87156 275.80319999999995 289.34479999999996 283.75914 298.04348 287.72898 307.92625 287.72898 318.94215999999994 287.72898 327.54911 284.03954 333.72117 276.65671999999995 339.86622 269.28629 342.95164 259.98329 342.95164 248.77781 342.95164 239.23263999999998 341.32524 229.24080999999998 338.05710999999997 218.79147999999998 334.80102999999997 208.32900999999998 329.37206 198.88886 321.79344 190.48484 314.24109999999996 182.05273999999997 305.49010999999996 177.85397999999998 295.59421999999995 177.85397999999998zM314.1118 349.93406C306.07710999999995 349.93406 298.17274999999995 350.64634 290.41258 352.06492 282.65241 353.44487999999996 274.99582999999996 355.77477999999996 267.44383 359.06297 259.86522 362.33254999999997 253.74563999999998 367.13795999999996 249.08444999999998 373.49266 244.39660999999998 379.83932999999996 242.06491999999997 387.31435 242.06491999999997 395.91452999999996 242.06491999999997 404.11035 244.12404999999998 411.42080999999996 248.23874999999998 417.78758 252.3414 424.11526 257.7567 429.07151999999996 264.48875 432.61960999999997 271.22076 436.17431999999997 278.2776 438.85573999999997 285.64694999999995 440.61960999999997 293.02975 442.37145 300.54377 443.28367 308.19969 443.28367 323.34231 443.28367 336.37547 439.87252 347.31297 433.05516 358.22351 426.23926 363.69383 415.7131 363.69383 401.50633 363.69383 398.51820999999995 363.27693999999997 395.57432 362.45554999999996 392.70358999999996 361.59693999999996 389.7997 360.7519 387.31439 359.91844 385.25047 359.08499 383.22522 357.49671 380.78317 355.15281 377.97117 352.822 375.15256 351.03711999999996 373.06862 349.83835999999997 371.68210999999997 348.61446 370.25003 346.32621 368.20508 342.95164 365.50242 339.60738 362.78866999999997 337.47132 361.09693999999996 336.52 360.47117L336.51804999999996 360.47117C335.58034 359.81354999999996 333.14635 358.03567 329.22703 355.15085999999997 325.30813 352.24001999999996 323.16052 350.69678999999996 322.78171999999995 350.51414 320.72436 350.14337 317.83565 349.93406 314.1118 349.93406z" /></svg>