<svg xmlns="http://www.w3.org/2000/svg" width="100%" height="100%" viewBox="0 0 599.04 599.04"><path d="M123.51999999999998 75.51999999999998C97.01999999999998 75.51999999999998 75.51999999999998 97.01999999999998 75.51999999999998 123.51999999999998L75.51999999999998 475.52C75.51999999999998 502.02 97.01999999999998 523.52 123.51999999999998 523.52L475.52 523.52C502.02 523.52 523.52 502.02 523.52 475.52L523.52 123.51999999999998C523.52 97.01999999999998 502.02 75.51999999999998 475.52 75.51999999999998L123.51999999999998 75.51999999999998zM173.803203 139.51999999999998L425.23679999999996 139.51999999999998C439.1205 139.51999999999998 450.37742 150.79464 450.37742 164.66062L450.37742 416.09422C450.37742 429.97791 439.10183 441.23679999999996 425.23679999999996 441.23679999999996L337.97508 441.23679999999996 299.52194999999995 491.52 261.06492 441.23679999999996 173.803203 441.23679999999996C159.91855999999999 441.23679999999996 148.662578 429.95925 148.662578 416.09422L148.662578 164.66062C148.662578 150.77596999999997 159.937211 139.51999999999998 173.803203 139.51999999999998zM198.94772999999998 189.80515999999997L198.94772999999998 390.95164 236.76413999999997 390.95164 236.76413999999997 334.41648C236.76413999999997 306.87699 249.23265999999998 293.52126999999996 261.80516 290.37937999999997 274.37765 287.23256 287.18602 295.09101 287.18602 315.56687999999997L287.18602 390.95164 325.00437999999997 390.95164 325.00437999999997 304.31883C325.00437 265.23614 299.52241 252.70163999999997 274.37742 252.70163999999997 249.37089999999998 252.70163999999997 236.76413999999997 277.83055 236.76413999999997 277.83055L236.76413999999997 189.80515999999997 198.94772999999998 189.80515999999997zM387.52 340.66648C373.63536 340.66648 362.37937999999997 351.88363 362.37937999999997 365.72508 362.37937999999997 379.5675 373.63536 390.78562 387.52 390.78562 401.40859 390.78562999999997 412.66452999999996 379.5675 412.66452999999996 365.72508 412.66452999999996 351.88363 401.40859 340.66648 387.52 340.66648z" /></svg>