<svg xmlns="http://www.w3.org/2000/svg" width="100%" height="100%" viewBox="0 0 599.04 599.04"><path d="M123.51999999999998 75.51999999999998C97.01999999999998 75.51999999999998 75.51999999999998 97.01999999999998 75.51999999999998 123.51999999999998L75.51999999999998 475.52C75.51999999999998 502.02 97.01999999999998 523.52 123.51999999999998 523.52L475.52 523.52C502.02 523.52 523.52 502.02 523.52 475.52L523.52 123.51999999999998C523.52 97.01999999999998 502.02 75.51999999999998 475.52 75.51999999999998L123.51999999999998 75.51999999999998zM299.52 139.51999999999998L299.52194999999995 139.51999999999998C387.88505 139.52105799999998 459.52 211.15481999999997 459.52 299.52 459.52 312.40437 457.99739999999997 324.93021999999996 455.12156 336.93210999999997L419.3325 336.93210999999997 419.3325 241.55711C419.41067 240.94600999999997 419.45164 240.32434999999998 419.45164 239.69187999999997 419.45164 231.67798 412.95382 225.18015999999997 404.93992 225.18015999999997 396.92602 225.18015999999997 390.43016 231.67798 390.43016 239.69187999999997 390.43016 240.32430999999997 390.4711 240.94593999999998 390.54929999999996 241.55711L390.54929999999996 349.45945C390.47112999999996 350.07058 390.43016 350.69415999999995 390.43016 351.32664 390.43016 359.34054 396.92602 365.83641 404.93992 365.83641 405.57236 365.83641 406.19516999999996 365.79546999999997 406.80516 365.71727L445.22508 365.71727C420.04514 421.05005 364.27540999999997 459.52 299.52 459.52 234.57862999999998 459.52 178.67415999999997 420.82867 153.59812499999998 365.2407 154.90806499999997 365.62919 156.29347399999997 365.83835999999997 157.72898399999997 365.83835999999997 165.74290399999998 365.83835999999997 172.240703 359.34054 172.240703 351.32664 172.240703 350.69419 172.19976199999996 350.07257999999996 172.12156199999998 349.46141L172.12156199999998 313.91452999999996 223.76022999999998 313.91452999999996 223.76022999999998 351.32664C223.76022999999998 359.34054 230.25804999999997 365.83835999999997 238.27194999999998 365.83835999999997 246.28583999999998 365.83835999999997 252.78171999999998 359.34054 252.78171999999998 351.32664 252.78171999999998 350.43003999999996 252.70058999999998 349.55127999999996 252.54538999999997 348.69969L252.54538999999997 242.32077999999998C252.70054 241.46920999999998 252.78171999999998 240.59044999999998 252.78171999999998 239.69383 252.78171999999998 231.67992999999998 246.28583999999998 225.18211 238.27194999999998 225.18211 230.25823999999997 225.18211 223.76022999999998 231.67992999999998 223.76022999999998 239.69383L223.76022999999998 285.12937999999997 172.12156199999998 285.12937999999997 172.12156199999998 241.55906C172.199772 240.94792999999999 172.240703 240.32630999999998 172.240703 239.69383 172.240703 231.70362999999998 165.78394299999997 225.22131 157.803203 225.18211 184.57243999999997 174.25222 237.99013999999997 139.520736 299.52 139.51999999999998zM321.74852 225.18211C315.74001 225.18211 310.5856 228.83314 308.38133 234.03758L308.30516 234.21531 261.71141 346.30710999999997C261.13457999999997 347.87172 260.82078 349.56183999999996 260.82078 351.32664 260.82078 359.34054 267.31665999999996 365.83835999999997 275.33055 365.83835999999997 283.34553999999997 365.83835999999997 289.84227 359.34054 289.84227 351.32664L350.84812 351.32664C350.84812 359.34054 357.34481999999997 365.83835999999997 365.35983999999996 365.83835999999997 373.37372999999997 365.83835999999997 379.87156 359.34054 379.87156 351.32664 379.87156 349.51556999999997 379.53853999999995 347.78189 378.93210999999997 346.18406L378.9282 346.17233999999996C378.88777999999996 346.06575 378.8459 345.96018 378.8032 345.85594L378.79733999999996 345.84227 362.67625 304.57858999999996 338.65085999999997 327.63719 302.03562 327.63719 320.50828 281.63328 362.67625 304.57858999999996 335.41452999999996 234.80319999999998C335.32331 234.54619 335.22306 234.29335999999998 335.11766 234.04343999999998L335.11375 234.03758C332.90948 228.83315 327.75594 225.18211 321.74852 225.18211z" /></svg>