<svg xmlns="http://www.w3.org/2000/svg" width="100%" height="100%" viewBox="-107.52 -43.52 599.04 599.04"><path d="M252.879 446.324l-94.223 25.247c-6.713 1.798-13.676-2.222-15.475-8.935-1.798-6.712 2.222-13.676 8.934-15.474l94.223-25.247c6.713-1.798 13.676 2.221 15.475 8.934 1.8 6.713-2.222 13.676-8.934 15.475zm-43.626-289.558c-.844 11.486-7.341 17.96-17.428 17.796-10.043-.162-17.352-7.045-17.111-17.526.234-10.198 6.628-16.897 17.505-16.778 10.87.117 16.258 6.54 17.034 16.508zm120.795-38.71C292.565 56.148 218.325 26.069 149.354 46.22 88.995 63.856 49.64 103.71 35.33 165.003c-14.164 60.666 3.466 112.846 48.085 156.545 10.464 10.249 20.085 22.663 25.984 35.91 5.914 13.278 7.81 17.43 22.215 13.944 20.006-4.841 39.744-10.787 59.746-15.646 10.254-2.491 14.15-8.216 14.082-18.553-.274-41.72-.182-83.443-.03-125.164.033-9.444-2.935-17.22-13.096-17.456-10.286-.239-13.435 7.277-13.349 16.905.238 27.049.072 54.1.07 81.15-.001 43.515 0 43.515-42.787 49.767-16.266-18.638-31.078-35.392-45.653-52.351-52.31-60.866-42.744-150.842 22.543-197.443 46.904-33.481 97.29-35.344 147.525-7.075 46.644 26.25 72.02 80.33 65.294 132.645-4.493 34.948-21.181 62.845-45.933 86.826-14.938 14.473-28.55 30.055-33.45 50.982-2.292 9.788-7.78 14.643-17.262 16.98 1.772-1.647-102.202 27.486-102.202 27.486-6.578 1.762-10.517 8.586-8.754 15.163l.271 1.017c1.763 6.577 8.586 10.517 15.164 8.755 0 0 119.3-32.058 120.864-32.501 11.048-3.05 17.061-10.915 17.313-22.141.376-16.759 7.658-29.803 19.508-40.938 6.344-5.962 12.66-11.977 18.63-18.306 49.276-52.263 57.408-131.562 19.94-193.449z"/></svg>