<svg xmlns="http://www.w3.org/2000/svg" width="100%" height="100%" viewBox="-75.52 -43.52 599.04 599.04"><path d="M48 32C21.5 32 0 53.5 0 80v352c0 26.5 21.5 48 48 48h352c26.5 0 48-21.5 48-48V80c0-26.5-21.5-48-48-48H48zm17.008 101.04c71.337 8.129 99.563 67.129 107.305 84.919 16.15-42.404 56.796-70.479 102.171-70.479h.088C335.008 147.48 384 196.473 384 256.908c.002 60.437-48.99 109.433-109.428 109.434-45.993 0-87.076-28.761-102.818-71.977-8.02 18.207-35.409 74.434-106.746 84.596-9.959-83.329 57.111-121.945 57.111-121.945s-67.07-42.681-57.111-123.977zm209.08 57.812c-36.294 0-65.573 29.762-65.572 66.056-.002 36.484 29.573 66.062 66.056 66.063 36.484 0 66.059-29.58 66.057-66.063 0-36.482-29.575-66.056-66.057-66.056h-.484zm.484 40.843c13.926 0 25.215 11.288 25.215 25.213.002 13.927-11.288 25.219-25.215 25.219s-25.217-11.292-25.215-25.219c0-13.925 11.29-25.212 25.215-25.213z"/></svg>