<svg xmlns="http://www.w3.org/2000/svg" width="100%" height="100%" viewBox="0 0 599.04 599.04"><path d="M123.51999999999998 75.51999999999998C97.01999999999998 75.51999999999998 75.51999999999998 97.01999999999998 75.51999999999998 123.51999999999998L75.51999999999998 475.52C75.51999999999998 502.02 97.01999999999998 523.52 123.51999999999998 523.52L475.52 523.52C502.02 523.52 523.52 502.02 523.52 475.52L523.52 123.51999999999998C523.52 97.01999999999998 502.02 75.51999999999998 475.52 75.51999999999998L123.51999999999998 75.51999999999998zM140.52781199999998 176.55906C211.86531999999997 184.68863 240.09132999999997 243.68858999999998 247.83249999999998 261.47898 263.98339 219.07482 304.62861 191.00046999999998 350.00437999999997 191.00046999999998L350.09227 191.00046999999998C410.52761999999996 191.00046999999998 459.51962 239.99284999999998 459.52 300.4282 459.52177 360.86494999999996 410.52907 409.86139 350.09227 409.86179999999996 304.09928 409.86136 263.01552 381.10051 247.27390999999997 337.88523 239.25402999999997 356.09171 211.86531999999997 412.3188 140.52781199999998 422.48094 130.56935599999997 339.15238 197.63914 300.53562 197.63914 300.53562 197.63914 300.53562 130.56935699999997 257.85501 140.52781199999998 176.55906zM349.60789 234.37156C313.31403 234.37156 284.03488 264.13429999999994 284.03562 300.4282 284.03369999999995 336.91186 313.60859 366.49041 350.09227 366.4907 386.57599 366.49046999999996 416.15090999999995 336.91186 416.14891 300.4282 416.14869999999996 263.94602999999995 386.57441 234.37179999999998 350.09227 234.37156 349.93089 234.37095 349.76923 234.37156 349.60789 234.37156zM350.09227 275.21531C364.01770999999997 275.21570999999994 375.30665 286.50276999999994 375.30710999999997 300.4282 375.30886999999996 314.35508 364.01921999999996 325.6465 350.09227 325.64695 336.16537999999997 325.6465 324.87541999999996 314.35508 324.87742 300.4282 324.87784999999997 286.50276999999994 336.1669 275.21578 350.09227 275.21531z" /></svg>