<svg xmlns="http://www.w3.org/2000/svg" width="100%" height="100%" viewBox="0 0 599.04 599.04"><path d="M348.85209 335.0447c4.22839 29.76661 29.80645 52.66075 60.74098 52.66075 33.8922 0 61.36759-27.47545 61.36759-61.36758 0-33.89212-27.47539-61.36757-61.36759-61.36757-30.93501 0-56.5111 22.89417-60.74098 52.66077H188.156886c0.178129-14.38027 0.433617-28.15764 0.766828-41.33551l121.023326-62.5321c7.36559 10.26165 19.37008 16.97069 32.96532 16.97069 22.41724 0 40.58832-18.17309 40.58832-40.58834 0-4.63693-0.81554-9.07401-2.24828-13.22462l37.99256-19.63095-7.9922-15.467528-39.10881 20.208768c-7.38534-7.67714-17.74094-12.47403-29.23405-12.47403-22.41723 0-40.58835 18.17308-40.58835 40.58836 0 2.59382 0.26824 5.12465 0.73435 7.58365l-113.556817 58.6748c0.572417-17.45646 1.289046-33.77892 2.15825-48.91176l-63.577993 8.58428c7.415803 41.53875 11.123947 92.93063 11.123947 154.17221 0 54.46464-1.482939 102.88814-4.449388 145.27101H192.28929999999997C189.81605299999998 477.21047999999996 188.39067599999998 437.18028999999996 187.97821999999996 395.48645999999997l115.07423 59.45939c-0.4661 2.46039-0.73434 4.98977-0.73434 7.58513 0 22.41717 18.17308 40.58831 40.58834 40.58831 11.49311 0 21.84826-4.79686 29.23404-12.47406l39.1088 20.20879 7.99221-15.46753-37.9926-19.63094c1.43081-4.1506 2.24639-8.58769 2.24639-13.22457 0-22.41728-18.17312-40.58838-40.58834-40.58838-13.59524 0-25.59776 6.70854-32.96336 16.96868L187.85812899999996 375.82846c-0.0034-1.86492-0.02003-3.70818-0.02003-5.578 0-17.98209 0.104352-35.15407 0.302173-51.57548v16.36924H348.85199ZM165.588551 158.22144999999998c12.715212 0 22.570304-3.97245 29.563322-11.92129 6.993018-7.946892 10.488537-17.323088 10.488537-28.13203 0-9.322081-3.018588-17.427437-9.059218-24.316102-6.039156-6.885226-14.254284-10.332031-24.633064-10.332031-12.715208 0-22.678107 3.92225-29.88028 11.761361-7.209098 7.84252-10.808969 17.062202-10.808969 27.655088 0 9.748797 3.020564 18.068232 9.059214 24.953484 6.039182 6.89064 14.462978 10.33203 25.270458 10.33203z" /></svg>