<svg xmlns="http://www.w3.org/2000/svg" width="100%" height="100%" viewBox="-75.52 -43.52 599.04 599.04"><path d="m 223.24087,448 c 22.63973,-23.28824 46.23581,-47.52569 69.75618,-70.73118 28.39175,-28.49783 56.79001,-57.05818 82.94118,-87.62933 24.98296,-29.56558 47.81659,-63.03776 53.37061,-102.23432 2.35885,-13.84456 1.49995,-28.17556 -2.2481,-41.6717 C 421.15125,121.78694 407.97259,99.653979 387.81667,85.069308 371.2416,72.508847 350.54402,66.313444 330.24447,64.24617 288.79456,65.056813 248.11261,88.230604 228.93679,125.4245 l -5.18047,8.66383 -5.34265,-8.56018 C 209.74757,107.63711 194.49382,94.008578 178.94819,82.170853 168.67968,73.297838 155.83942,69.867055 143.06908,66.457822 128.88945,62.698701 113.67986,63.97923 99.21396,65.525344 83.69825,69.216587 68.54521,75.406779 57.186842,86.973793 43.220645,98.358614 30.946665,112.80726 25.455186,130.21242 c -13.413179,31.68761 -9.078427,68.53844 5.335775,99.12905 27.443079,54.28395 73.032039,95.39993 114.723859,138.5013 19.985,20.16014 40.13257,40.20541 59.66316,60.77535 5.61869,6.81822 12.96641,12.09312 18.06289,19.38188 z M 213.02688,250.04334 c 34.16694,-32.91597 66.97584,-67.27927 101.11945,-100.16973 14.3356,-9.79537 24.13782,9.59701 33.65828,17.4541 10.89687,11.84219 -4.96494,22.44275 -12.71106,30.68767 -37.86611,37.75938 -75.52524,75.74148 -113.52401,113.35803 -12.89764,9.04763 -22.09931,-6.82918 -30.61999,-14.34148 -18.07987,-18.63877 -37.44717,-36.20153 -54.51628,-55.68379 -5.68488,-14.7356 12.19471,-22.35386 19.83867,-32.13733 12.60073,-9.90426 22.50576,7.08505 31.03171,14.62292 8.48861,8.81435 17.69575,17.01048 25.72323,26.20961 z"/></svg>