<svg xmlns="http://www.w3.org/2000/svg" width="100%" height="100%" viewBox="-75.52 -43.52 599.04 599.04"><path d="M 48 32 C 21.5 32 0 53.5 0 80 L 0 432 C 0 458.5 21.5 480 48 480 L 400 480 C 426.5 480 448 458.5 448 432 L 448 80 C 448 53.5 426.5 32 400 32 L 48 32 z M 129.50195 96 C 137.18993 96 143.27655 98.554126 147.75 103.6543 C 152.22454 108.75701 154.45898 114.76078 154.45898 121.66602 C 154.45898 129.67265 151.86946 136.61733 146.68945 142.50391 C 141.50943 148.39194 134.2097 151.33398 124.79102 151.33398 C 116.78548 151.33398 110.54574 148.78582 106.07227 143.68164 C 101.5992 138.58145 99.361328 132.4186 99.361328 125.19727 C 99.361328 117.35068 102.02907 110.52216 107.36914 104.71289 C 112.70408 98.906142 120.08328 96 129.50195 96 z M 306.76562 139.1875 L 312.68555 150.64453 L 284.54297 165.18555 C 285.60426 168.26007 286.20703 171.54766 286.20703 174.98242 C 286.20703 191.58631 272.74794 205.04688 256.14258 205.04688 C 246.07203 205.04688 237.18061 200.07778 231.72461 192.47656 L 142.07617 238.79688 C 141.82934 248.55827 141.64171 258.76397 141.50977 269.41602 L 260.54297 269.41602 C 263.67621 247.36668 282.62034 230.4082 305.53516 230.4082 C 330.64049 230.4082 350.99219 250.75995 350.99219 275.86523 C 350.99219 300.97051 330.64049 321.32227 305.53516 321.32227 C 282.62069 321.32227 263.67511 304.36379 260.54297 282.31445 L 141.49609 282.31445 L 141.49609 270.18945 C 141.34955 282.35346 141.27344 295.07252 141.27344 308.39258 C 141.27344 309.77764 141.28511 311.14396 141.28711 312.52539 L 231.7207 359.25195 C 237.1767 351.65185 246.06812 346.68359 256.13867 346.68359 C 272.74254 346.68359 286.20312 360.14266 286.20312 376.74805 C 286.20312 380.18278 285.59892 383.4704 284.53906 386.54492 L 312.68164 401.08594 L 306.76172 412.54297 L 277.79297 397.57422 C 272.32202 403.26104 264.65209 406.81445 256.13867 406.81445 C 239.53478 406.81445 226.07227 393.35337 226.07227 376.74805 C 226.07227 374.82557 226.27193 372.95337 226.61719 371.13086 L 141.37695 327.08594 C 141.68247 357.97026 142.73828 387.62258 144.57031 416 L 101.95117 416 C 104.14854 384.60528 105.24609 348.73676 105.24609 308.39258 C 105.24609 263.02845 102.501 224.95889 97.007812 194.18945 L 144.10156 187.83203 C 143.4577 199.04154 142.92792 211.13179 142.50391 224.0625 L 226.61914 180.59961 C 226.27387 178.77813 226.07617 176.90377 226.07617 174.98242 C 226.07617 158.37851 239.53527 144.91602 256.14062 144.91602 C 264.65404 144.91602 272.3243 148.46948 277.79492 154.15625 L 306.76562 139.1875 z"/></svg>