<svg xmlns="http://www.w3.org/2000/svg" width="100%" height="100%" viewBox="-107.52 -43.52 599.04 599.04"><path d="M241.332 291.525c4.228 29.766 29.807 52.66 60.741 52.66 33.892 0 61.368-27.475 61.368-61.367 0-33.892-27.476-61.368-61.368-61.368-30.935 0-56.511 22.894-60.74 52.661H80.636c.178-14.38.434-28.158.767-41.335l121.023-62.533c7.366 10.262 19.37 16.971 32.965 16.971 22.418 0 40.589-18.173 40.589-40.588 0-4.637-.816-9.074-2.249-13.225l37.993-19.63-7.992-15.468-39.11 20.208c-7.384-7.677-17.74-12.474-29.233-12.474-22.417 0-40.588 18.174-40.588 40.589 0 2.594.268 5.124.734 7.583L81.979 212.884c.573-17.456 1.29-33.779 2.158-48.911l-63.578 8.584c7.416 41.539 11.124 92.93 11.124 154.172 0 54.465-1.483 102.888-4.45 145.271H84.77c-2.473-38.31-3.898-78.34-4.31-120.034l115.073 59.46a40.674 40.674 0 00-.734 7.585c0 22.417 18.173 40.588 40.588 40.588 11.494 0 21.849-4.797 29.234-12.474l39.11 20.209 7.991-15.468-37.992-19.63c1.43-4.151 2.246-8.588 2.246-13.225 0-22.417-18.173-40.588-40.588-40.588-13.595 0-25.598 6.708-32.963 16.968L80.338 332.308c-.003-1.864-.02-3.708-.02-5.578 0-17.982.104-35.154.302-51.575v16.37h160.712zM58.07 114.7c12.715 0 22.57-3.972 29.563-11.92 6.993-7.948 10.488-17.324 10.488-28.133 0-9.322-3.018-17.427-9.059-24.316C83.022 43.447 74.807 40 64.428 40c-12.715 0-22.678 3.922-29.88 11.761-7.21 7.843-10.81 17.063-10.81 27.655 0 9.75 3.021 18.069 9.06 24.954 6.04 6.89 14.463 10.332 25.27 10.332z"/></svg>