<svg xmlns="http://www.w3.org/2000/svg" width="100%" height="100%" viewBox="-75.52 -43.52 599.04 599.04"><path d="M17.115 96C4.157 201.785 91.429 257.322 91.429 257.322S4.157 307.57 17.115 416c92.827-13.223 128.464-86.387 138.9-110.078 20.483 56.234 73.943 93.657 133.79 93.657 78.643 0 142.395-63.754 142.392-142.396 0-78.64-63.75-142.392-142.391-142.392h-.114c-59.044 0-111.933 36.532-132.95 91.71-10.072-23.15-46.8-99.923-139.627-110.501zm272.06 75.227h.63c47.473 0 85.956 38.484 85.956 85.956.002 47.474-38.481 85.96-85.955 85.96s-85.958-38.486-85.956-85.96c0-47.227 38.099-85.956 85.326-85.956zm.63 53.146c-18.12 0-32.808 14.69-32.809 32.81-.002 18.122 14.688 32.814 32.81 32.815 18.122 0 32.812-14.693 32.81-32.815 0-18.12-14.69-32.81-32.81-32.81z"/></svg>