<svg xmlns="http://www.w3.org/2000/svg" width="100%" height="100%" viewBox="-75.52 -43.52 599.04 599.04"><path d="M169.41 64c2.018 14.334 9.007 36.64 14.437 50.22 5.932 14.835 12.377 28.928 23.53 40.709l33.177 24.817c14.678 11.027 28.865 22.975 41.85 35.96 2.814 2.814 11.738 13.569 15.473 13.14 4.164-.47 3.39-8.077 3.359-11.048-.178-15.265-8.621-37.613-15.432-51.266-8.998-18.037-19.68-35.646-33.836-50.178-10.253-10.525-27.098-22.557-39.663-30.435C203.161 80.185 179.16 65.83 169.41 64zM7.241 107.942c1.203 13.36 9.74 23.331 18.832 32.434 15.537 15.557 31.115 25.298 49.173 37.32 7.272 4.833 24.985 16.425 32.434 19.177-7.753 2.207-11.226.094-18.832 0-12.294-.136-23.708.753-35.573 4.185 3.63 9.49 11.687 17.085 18.833 24.053 18.382 17.922 56.298 36.754 81.607 41.86l-18.833 2.385-32.433 5.985c3.076 7.857 12.711 17.483 18.393 24.064 25.35 29.357 50.795 46.495 90.416 46.034l26.156-2.092c4.017-.042 11.53-.618 13.026 4.3 1.014 3.316-2.731 8.788-4.562 11.393-4.896 6.947-16.07 20.308-22.065 26.115-24.325 23.54-63.884 45.543-98.347 47.122 3.358 4.395 11.571 5.765 16.74 7.345 13.727 4.227 34.871 8.182 49.173 8.349 18.79.22 37.08-.743 55.451-5.106 64.114-15.223 112.576-56.486 139.872-116.258 16.583-36.315 15.485-76.313 29.39-105.67 4.435-9.375 8.819-15.621 16.97-22.17 2.343-1.894 8.558-5.504 7.595-9.02-.868-3.159-6.926-4.11-9.688-4.75-8.433-1.935-20.705-3.807-29.295-3.818h-14.647c-25.006.293-48.515 13.246-64.03 32.434l-17.473 25.11c-2.26 2.929-5.325 6.957-9.52 6.413-3.359-.45-7.084-4.164-9.417-6.434l-15.986-16.542c-17.284-17.733-37.592-33.375-58.297-46.903-47.133-30.77-101.684-50.47-156.936-60.43l-48.127-6.885zm372.462 94.633c13.727-1.34 14.647 15.327 4.185 17.89-9.908 2.438-17.514-12.607-4.185-17.89z"/></svg>