<svg xmlns="http://www.w3.org/2000/svg" width="100%" height="100%" viewBox="0 0 599.04 599.04"><path d="M123.51999999999998 75.51999999999998C97.01999999999998 75.51999999999998 75.51999999999998 97.01999999999998 75.51999999999998 123.51999999999998L75.51999999999998 475.52C75.51999999999998 502.02 97.01999999999998 523.52 123.51999999999998 523.52L475.52 523.52C502.02 523.52 523.52 502.02 523.52 475.52L523.52 123.51999999999998C523.52 97.01999999999998 502.02 75.51999999999998 475.52 75.51999999999998L123.51999999999998 75.51999999999998zM299.16258 139.521953C306.18580999999995 139.53687299999999 315.62968 139.61528199999998 328.35008 139.71531199999998 357.95876999999996 139.947918 375.95031 140.315181 376.42625 140.69187499999998 377.64756 141.65539099999998 377.35596999999996 144.66616 375.97117 145.40671999999998 375.30276 145.76495999999997 372.19622999999996 146.70646999999997 369.06297 147.50046999999998 361.12811999999997 149.51358999999997 356.24251999999996 152.09963999999997 352.0825 156.4868 347.56169 161.25092999999998 343.83293 168.63118999999998 343.03367 174.38718999999998 342.67284 176.99114999999998 342.44306 213.85954999999998 342.43406 268.82078 342.42334999999997 358.95687999999996 342.19187 370.64750999999995 340.23483999999996 382.22898 336.73264 402.95372 326.77269 421.29228 313.00437999999997 432.38719 303.2649 440.24719 295.08615 444.12266 282.64108999999996 446.74266 276.39859 448.0526 261.83101 448.83017 254.58055 448.21531 242.04197 447.17267 236.32702999999998 446.53101 235.70944999999998 446.15672 234.93148 445.67557 221.38538999999997 404.10285999999996 221.85593999999998 403.62156 222.01102999999998 403.46114 225.93283999999997 406.69656 230.57663999999997 410.76023 248.25365 426.29309 254.53110999999998 429.68507999999997 267.26219 430.67429999999996 276.12207 431.36944 284.26451999999995 429.23123999999996 290.95358999999996 424.44577999999996 300.96304999999995 417.30758 306.66566 406.61715999999996 309.81492 389.10594 310.63286999999997 384.56102999999996 310.85549 376.88441 311.10398 344.26804999999996 311.26735999999994 322.62896 311.7536 284.60758 312.18406 259.78171999999995 313.17348 202.66030999999998 313.04986999999994 175.59341999999998 311.77194999999995 171.25437999999997 310.3042 166.27637999999996 307.02667999999994 160.70369999999997 303.07273 156.45555 298.75499 151.81707999999998 293.60616 149.14452 285.26219 147.20358999999996 279.56237999999996 145.87753999999998 277.62289 144.54570999999999 278.19773 142.34812499999998 278.80726 140.015514 278.09295999999995 139.476473 299.16258 139.521953zM368.50047 154.64891C368.86674999999997 154.72643999999997 368.20508 155.48073 366.41648 156.89499999999998 363.072 159.53905999999998 360.89594999999997 162.20174999999998 358.9282 166.06491999999997 355.77677 172.24866999999998 355.86902 169.39829999999998 355.84812 276.55906 355.83216 384.74644 355.93242999999995 381.19912999999997 352.48094 394.15477 350.65233 401.02562 348.64754 406.24312 345.08641 413.38133 341.97988999999995 419.63725 339.9695 422.73600999999996 334.90867 429.04539 321.43165 445.86149 306.02167999999995 455.19365999999997 286.06687999999997 458.6157 279.02232 459.84544999999997 258.73055 459.81557999999995 251.83836 458.55906 245.67332 457.46290999999997 239.98847999999998 455.83119999999997 241.05515999999997 455.43016 241.50430999999998 455.26966 246.74411999999998 455.45882 252.68991999999997 455.85983999999996 266.18026 456.74206999999996 279.41423999999995 455.94284999999996 288.11375 453.67039 300.11231 450.56915999999995 313.32899999999995 442.86701 322.98289 433.32273 329.43661999999995 426.95984999999996 333.70326 420.86391 339.03952999999996 410.41062 343.18073999999996 402.31002 344.53936 398.75316999999995 346.40281 391.2407 350.08371999999997 376.35749 349.96200999999996 379.94853 350.32273 271.37352 350.68093 162.58191999999997 350.38743 170.40150999999997 354.34422 164.92624999999998 356.68613999999997 161.68867 359.75669 159.11842 364.43797 156.47702999999998 366.74784999999997 155.17237 368.13671999999997 154.57110999999998 368.50047 154.64891z" /></svg>