<svg xmlns="http://www.w3.org/2000/svg" width="100%" height="100%" viewBox="0 0 599.04 599.04"><path d="M380.69854 130.233498C238.56925999999999 147.65792999999996 173.93725999999998 160.00288999999998 51.52017399999998 230.96678999999997l1.135338 3.22337 9.729091 0.0984c-0.892098 9.79855-2.446497 34.01602-0.460882 70.43325-13.582718 39.30928-0.344774 66.01474 12.086867 95.06504 1.971225-30.21579 1.768769-63.31014-7.511792-96.24536-1.942436-36.17262-0.346551-59.95619 0.531143-69.20797l81.151511 0.77562a371.22249 371.22249 0 0 0 2.40277 47.56907c0.001 0.00069 0.003 0.001 0.006 0.003-1.13433 6.6568-1.70304 13.70989-1.70304 21.16116v164.96411h79.36644V313.03729999999996c-0.0129-8.70371 0.94549-16.23374 2.85803-22.61127 20.45581-3.35523 39.75096-10.883 56.95809-22.18408 13.42353 6.67454 20.14106 21.60066 20.14106 44.79535v155.7692h79.35267V313.03728c0.0576-32.57549 13.51356-48.85732 40.37203-48.84773 26.85846 0.01 40.28771 16.29141 40.28771 48.84773V468.80649999999997h79.29662V303.84214c-0.01-33.99515-11.81484-59.71536-35.41193-77.16378-20.75777-15.58751-48.83312-23.38126-84.22876-23.38126-38.71456 0-65.39237 9.20303-80.03024 27.61068-3.87735-4.20138-8.25082-7.91703-13.11261-11.15949-10.75375-12.04119-31.79205-28.45094-31.79205-28.45094l78.76284-57.553854z" /></svg>