<svg xmlns="http://www.w3.org/2000/svg" width="100%" height="100%" viewBox="0 0 599.04 599.04"><path d="M128.64286399999997 139.52779599999997c-17.679831 0.227377-35.90614 5.430304-53.798867 15.955284 36.535419-5.08106 60.196642-2.36159 60.196642-2.36159 0 0-45.555004 16.17089-79.458156 66.65252 19.127136-14.16988 47.128319-26.56352 47.128319-26.56352 0 0-15.937575 17.08903-22.426301 37.33338-4.019723 12.54125-2.518601 44.14196 23.719496 59.65614 23.376115 13.82192 53.476383 10.40571 71.479263-3.37696A135.09661 135.09661 0 0 0 170.14378 324.42417 135.09661 135.09661 0 0 0 305.24208999999996 459.52 135.09661 135.09661 0 0 0 440.33792 324.42417 135.09661 135.09661 0 0 0 436.94075999999995 294.31953999999996c17.49377 6.95154 39.84435 6.67185 58.09523-4.11953 26.23823-15.51418 27.73923-47.11489 23.71948-59.65614-6.48877-20.24435-22.42632-37.33338-22.42632-37.33338 0 0 28.00112 12.39364 47.12837 26.56352-33.90331-50.48163-79.45818-66.65252-79.45818-66.65252 0 0 23.66102-2.71947 60.19661 2.36159-57.22231-33.659515-117.85809-12.879652-153.0919 50.9877a135.09661 135.09661 0 0 0-65.86196-17.14493 135.09661 135.09661 0 0 0-74.5127 22.40611C206.55651999999998 164.45963999999998 169.02853 139.008448 128.64286399999997 139.52779599999997ZM305.24208999999996 223.78491999999997A100.63997 100.63997 0 0 1 405.88137 324.42417 100.63997 100.63997 0 0 1 305.24208999999996 425.06345 100.63997 100.63997 0 0 1 204.60284 324.42417 100.63997 100.63997 0 0 1 305.24208999999996 223.78491999999997Zm0 46.60548a54.033723 54.033723 0 0 0-54.03376 54.03377 54.033723 54.033723 0 0 0 54.03376 54.03379 54.033723 54.033723 0 0 0 54.03378-54.03379 54.033723 54.033723 0 0 0-54.03378-54.03377z m16.14218 9.20895a20.608254 20.608254 0 0 1 0.24753 0 20.608254 20.608254 0 0 1 20.60772 20.60775 20.608254 20.608254 0 0 1-20.60772 20.60775 20.608254 20.608254 0 0 1-20.60776-20.60775 20.608254 20.608254 0 0 1 20.36023-20.60775z" /></svg>