<svg xmlns="http://www.w3.org/2000/svg" width="100%" height="100%" viewBox="-43.52 -43.52 599.04 599.04"><path d="M256 8c-34.36 0-62.215 27.855-62.215 62.215 0 20.303 9.87 38.161 24.917 49.517C218.89 99.275 235.498 82.74 256 82.74c20.501 0 37.111 16.536 37.3 36.993 15.045-11.356 24.917-29.212 24.917-49.517C318.213 35.855 290.359 8 255.999 8zm37.297 384.268c-.189 20.46-16.796 36.993-37.297 36.993-20.501 0-37.11-16.536-37.297-36.993-15.048 11.356-24.918 29.212-24.918 49.517C193.785 476.145 221.64 504 256 504s62.215-27.855 62.215-62.215c0-20.303-9.87-38.161-24.917-49.517zm148.488-198.483c-20.303 0-38.163 9.87-49.517 24.918 20.458.188 36.993 16.796 36.993 37.296 0 20.501-16.535 37.111-36.991 37.3 11.356 15.045 29.212 24.917 49.517 24.917C476.145 318.213 504 290.36 504 256s-27.855-62.215-62.215-62.215zM82.739 256c0-20.501 16.535-37.111 36.993-37.297-11.356-15.047-29.214-24.918-49.517-24.918C35.855 193.785 8 221.64 8 256.001c0 34.36 27.855 62.215 62.215 62.215 20.303 0 38.161-9.871 49.517-24.918-20.458-.188-36.993-16.796-36.993-37.297zM431.363 80.637c-24.296-24.296-63.689-24.296-87.985 0-14.357 14.357-20.003 33.963-17.393 52.634-.082.08-.182.134-.264.215-14.578 14.578-14.578 38.216 0 52.794 14.578 14.578 38.216 14.578 52.794 0 .083-.082.135-.182.218-.264 18.668 2.608 38.274-3.038 52.631-17.393 24.294-24.298 24.294-63.689-.003-87.986zM186.28 378.512c14.578-14.578 14.578-38.215 0-52.793-14.578-14.579-38.217-14.578-52.795 0-.083.082-.135.182-.215.262-18.67-2.608-38.277 3.035-52.634 17.395-24.297 24.295-24.297 63.688 0 87.984 24.296 24.296 63.689 24.296 87.985 0 14.357-14.357 20.003-33.963 17.393-52.634.085-.078.184-.132.267-.215zm0-245.026c-.083-.082-.182-.134-.265-.215 2.608-18.668-3.038-38.275-17.393-52.634-24.298-24.295-63.688-24.295-87.985 0-24.297 24.298-24.297 63.689 0 87.986 14.357 14.357 33.964 20.003 52.632 17.394.08.082.134.182.215.264 14.578 14.578 38.217 14.578 52.795 0 14.577-14.578 14.577-38.217 0-52.795zm245.082 209.89c-14.357-14.357-33.964-20.003-52.634-17.395-.081-.082-.132-.182-.215-.262-14.578-14.578-38.217-14.578-52.795 0-14.578 14.578-14.578 38.215 0 52.793.083.083.182.135.264.215-2.608 18.671 3.038 38.277 17.394 52.634 24.295 24.296 63.688 24.296 87.984 0 24.298-24.295 24.298-63.688.003-87.984z"/></svg>