<svg xmlns="http://www.w3.org/2000/svg" width="100%" height="100%" viewBox="0 0 599.04 599.04"><path d="M299.51349 51.56463769999998C267.32995999999997 50.391075499999985 242.40846 72.62681199999999 215.42108 86.59897499999998 178.71600999999998 108.35667999999998 140.918702 128.429644 104.94459199999997 151.31530999999998c-23.529448 19.12486-34.340913 49.89944-31.869027 79.61823 0.136467 52.69231-0.273926 105.39637 0.206898 158.08127 3.046554 31.90013 25.166618 58.97257 53.630746 72.31691 45.693451 26.22554 91.119371 52.93874 136.981251 78.85735 29.15402 13.29373 63.66608 7.7032 89.45702-10.28262 45.55933-26.46403 91.40188-52.46098 136.78286-79.21917 26.10444-18.58601 38.49713-51.27731 35.81722-82.60095-0.13644-52.69193 0.27402-105.39561-0.20674-158.08014C522.6955399999999 178.10853999999998 500.57921 151.03037999999998 472.11249 137.69060199999998 426.41744 111.47046599999999 380.98312 84.77570899999998 335.12404 58.85436799999998 324.02454 53.697687999999985 311.69469999999995 51.59893009999998 299.51349 51.56463769999998ZM270.81818999999996 184.25478999999999c19.13338 0 38.26677 0 57.40015 0 0 76.83994 0 153.67988 0 230.51981-19.13338 0-38.26677 0-57.40015 0 0-76.83993 0-153.67987 0-230.51981z m72.23096 50.17436c19.12396 0 38.2479 0 57.37188 0 0 60.11515 0 120.2303 0 180.34545-19.12398 0-38.24792 0-57.37188 0 0-60.11515 0-120.2303 0-180.34545z m-144.45251 94.07924c19.13025 0 38.26049 0 57.39074 0 0 28.7554 0 57.51081 0 86.26621-19.13025 0-38.26049 0-57.39074 0 0-28.7554 0-57.51081 0-86.26621z" /></svg>