<svg xmlns="http://www.w3.org/2000/svg" width="100%" height="100%" viewBox="0 0 599.04 599.04"><path d="M380.1406 238.05756c-7.12991-3.32734-13.8671-5.55949-20.25334-6.61343-6.36534-1.09517-16.57451-1.61223-30.71059-1.61223h-36.70409v152.74712h37.63425c14.6735 0 26.08126-1.01267 34.22385-3.01709 8.14259-2.00442 14.92159-4.52592 20.35674-7.62608 5.43519-3.07925 10.416-6.8615 14.94192-11.38742 14.4876-14.71475 21.74129-33.27334 21.74129-55.7176 0-22.05151-7.44016-40.05177-22.34085-53.98159-5.49732-5.16674-11.82143-9.44459-18.88918-12.79281zM299.51999 51.52000309999998C162.54152999999997 51.52000309999998 51.52000339999998 162.56185 51.52000339999998 299.51998 51.52000339999998 436.47812 162.54152999999997 547.52 299.51999 547.52 436.49849 547.52 547.52 436.47812 547.52 299.51998 547.52 162.56185 436.49849 51.52000309999998 299.51999 51.52000309999998ZM217.18372 409.03267999999997H187.79546V203.66809999999998h29.38826zM202.46954 182.21618999999998c-11.13935 0-20.21208-9.01056-20.21208-20.21208 0-11.11841 9.05183-20.191181 20.21208-20.191181 11.18058 0 20.23244 9.051831 20.23244 20.191181-0.0219 11.22184-9.05186 20.21208-20.23244 20.21208z m241.3866 163.59715c-5.29051 12.54475-12.83407 23.58066-22.65053 33.08742-9.98203 9.83734-21.59659 17.19443-34.84378 22.19616-7.74983 3.01709-14.83852 5.06335-21.30725 6.11726-6.4891 1.01267-18.82759 1.50883-37.07593 1.50883H263.02329999999995V203.66809999999998h69.23318c27.96195 0 50.03378 4.1541 66.31951 12.54476 16.26485 8.36977 29.18144 20.72859 38.79164 36.97254 9.61013 16.26483 14.4254 34.01757 14.4254 53.19607 0.0227 13.76426-2.66619 26.90802-7.93576 39.43187z" /></svg>