<svg xmlns="http://www.w3.org/2000/svg" width="100%" height="100%" viewBox="-75.52 -43.52 599.04 599.04"><path d="M48 32C21.5 32 0 53.5 0 80v352c0 26.5 21.5 48 48 48h352c26.5 0 48-21.5 48-48V80c0-26.5-21.5-48-48-48H48zm176 64c88.373 0 160 71.64 160 160s-71.627 160-160 160S64 344.36 64 256 135.627 96 224 96zm-62.613 58.254c-7.2 0-13.04 5.852-13.04 13.025 0 7.227 5.853 13.041 13.04 13.041a13.03 13.03 0 0013.052-13.04c0-7.187-5.839-13.026-13.052-13.026zm-9.467 39.906v132.494h18.959V194.16h-18.96zm48.533 0v132.293h41.908c11.773 0 19.734-.32 23.92-.973 4.174-.68 8.746-2 13.746-3.947 8.547-3.227 16.04-7.973 22.48-14.32 6.334-6.134 11.199-13.252 14.612-21.346h.002c3.4-8.08 5.133-16.561 5.12-25.441 0-12.373-3.107-23.825-9.307-34.319-6.2-10.48-14.534-18.453-25.028-23.853-10.507-5.413-24.745-8.094-42.785-8.094h-44.668zm19 16.88h23.68c9.12 0 15.708.334 19.814 1.04 4.12.68 8.467 2.121 13.067 4.268v-.002c4.56 2.16 8.639 4.92 12.185 8.254 9.614 8.987 14.414 20.599 14.414 34.826 0 14.48-4.68 26.454-14.027 35.947a44.802 44.802 0 01-9.639 7.348c-3.506 2-7.881 3.626-13.135 4.92-5.253 1.293-12.61 1.945-22.078 1.945h-24.28v-98.547z"/></svg>