<svg xmlns="http://www.w3.org/2000/svg" width="100%" height="100%" viewBox="0 0 599.04 599.04"><path d="M123.51999999999998 75.51999999999998C97.01999999999998 75.51999999999998 75.51999999999998 97.01999999999998 75.51999999999998 123.51999999999998L75.51999999999998 475.52C75.51999999999998 502.02 97.01999999999998 523.52 123.51999999999998 523.52L475.52 523.52C502.02 523.52 523.52 502.02 523.52 475.52L523.52 123.51999999999998C523.52 97.01999999999998 502.02 75.51999999999998 475.52 75.51999999999998L123.51999999999998 75.51999999999998zM214.61765999999997 139.51999999999998C249.23404999999997 165.20926999999998 279.00681999999995 192.79729999999998 299.04539 230.21531 318.94151 192.79729999999998 348.85722 165.35172999999998 383.28367 139.51999999999998L383.28367 170.43210999999997C393.68284 165.87357999999998 402.80028 160.60332999999997 413.67429999999996 156.85202999999998L413.67429999999996 192.22897999999998C424.02598 190.80443999999997 433.37960999999996 188.66611999999998 443.39891 188.23874999999998L443.39891 399.45164C395.29681999999997 419.53772 347.33705 439.52889999999996 299.37742 459.52 251.41777 439.52889999999996 203.6957 419.53772 155.64109399999998 399.45164L155.64109399999998 188.0493C164.90062999999998 189.2839 173.87498599999998 190.47167 183.7993 191.80124999999998L183.7993 156.85202999999998C194.81577999999996 160.60332999999997 204.02854 165.77958999999998 214.61765999999997 170.81296999999998L214.61765999999997 139.51999999999998zM374.83054999999996 156.28171999999998C367.70783 162.45474 361.5358 167.53643 355.74266 172.94968999999998 336.03647 191.23134 317.89597 210.84158 306.26219 235.53366999999997 304.07788999999997 240.13969999999998 302.13133 244.7454 302.13133 250.15866999999997L302.27391 428.60789C321.0779 396.60314 348.61884 372.24251999999996 376.96727 349.59227 376.25498999999996 285.39284 375.54282 221.66827999999998 374.83054999999996 156.28171999999998zM223.26022999999998 156.47116999999997C222.50046999999998 222.00016999999997 221.78696 286.10644 221.07468999999998 349.64108999999996 250.04040999999998 372.71869999999996 276.06309999999996 397.41038 295.6743 428.60789L295.6743 422.57664C295.6743 366.54458999999997 295.57941999999997 310.51299 295.81687999999997 254.48093999999998 295.86438 246.78839 294.15373999999997 239.90285999999998 290.73483999999996 233.20749999999998 275.06487 202.38987999999998 250.61146999999997 179.26386999999997 223.26022999999998 156.47116999999997zM405.26804999999996 169.38718999999998C397.48053999999996 173.23345999999998 390.16861 176.13137999999998 383.6157 180.68991999999997 384.23301999999995 238.43141999999997 384.89684 295.93584 385.51414 353.43992 377.39425 360.27772999999996 369.22682 366.78191999999996 361.48679999999996 373.76219 346.24419 387.48528999999996 331.62008 401.87286 320.17625 419.10983999999996L317.99069999999995 422.67233999999996C318.51302999999996 422.15001 318.89464 421.81664 319.22703 421.53172 319.84434 421.00939 320.45995 420.48825999999997 321.02977 419.91844 347.00396 398.07543999999996 376.72972 382.59490999999997 408.30710999999997 369.91648 407.30994 303.20034999999996 406.31271 236.67314 405.26804999999996 169.38718999999998zM192.44187999999997 169.72116999999997C191.34972 236.76968999999997 190.30489999999998 303.29531 189.26022999999998 369.91648 221.21748999999997 382.73737 251.18121999999997 398.40783 277.86766 419.91844 260.15584 393.46941999999996 236.79326999999998 372.76513 212.62351999999998 353.67625 213.24081999999999 295.36492999999996 213.85778 237.90895999999998 214.47508 180.54734 207.20989999999998 176.55861 200.41933 172.85515999999998 192.44187999999997 169.72116999999997zM434.89891 197.45163999999997C427.91863 198.63876 421.22415 199.73131999999998 414.14891 200.91843999999998 415.05113 259.08731 415.9049 318.72673 416.80710999999997 376.08835999999997L410.15867 378.41648C397.5752 383.30742 385.32479 388.86347 373.45358999999996 395.27391 351.08824999999996 407.28756999999996 329.86234 420.77146 313.24266 440.43016L309.30125 445.98679999999996 383.23483999999996 415.40672C400.37685999999997 408.23651 417.51948 401.06703999999996 434.89891 393.75437999999997L434.89891 197.45163999999997zM164.18796899999998 197.68796999999998L164.18796899999998 393.84812C205.49973999999997 411.13259 246.47999 428.27497999999997 288.83641 445.98679999999996 282.47344999999996 437.39205 276.25234 431.02995 269.41453 425.23679999999996 245.38723 404.86582999999996 217.75133999999997 390.66670999999997 188.78562 378.93797 186.03152 377.79832999999996 180.76022999999998 375.75633 180.76022999999998 375.75633 181.66244999999998 318.34722 182.56507 258.70596 183.46726999999998 200.72702999999998L164.18796899999998 197.68796999999998z" /></svg>