<svg xmlns="http://www.w3.org/2000/svg" width="100%" height="100%" viewBox="-75.52 -43.52 599.04 599.04"><path d="M 48 32 C 21.5 32 0 53.5 0 80 L 0 432 C 0 458.5 21.5 480 48 480 L 400 480 C 426.5 480 448 458.5 448 432 L 448 80 C 448 53.5 426.5 32 400 32 L 48 32 z M 223.99414 96 C 233.32702 96 242.65437 98.043922 249.73438 102.13672 L 344.38867 156.77734 C 358.54041 164.9546 370.125 185.00571 370.125 201.34766 L 370.125 310.65039 C 370.125 326.99654 358.54041 347.05548 344.38867 355.22852 L 249.72852 409.88281 C 242.65688 413.9631 233.32702 416 223.99414 416 C 214.66957 416 205.33781 413.9631 198.25781 409.88281 L 103.61133 355.22852 C 89.455524 347.05548 77.875 326.99654 77.875 310.65039 L 77.875 201.34766 C 77.875 185.00571 89.455524 164.9546 103.61133 156.77734 L 198.25781 102.13672 C 205.33782 98.043922 214.66538 96 223.99414 96 z M 186.53711 190.02344 L 121.94531 216.3457 L 159.41992 231.09375 L 224 204.77734 L 186.53711 190.02344 z M 224 204.77734 L 288.58594 231.09375 L 326.04883 216.3457 L 261.48047 190.02344 L 224 204.77734 z M 288.58594 231.09375 L 224 257.39648 L 159.41992 231.09375 L 159.41992 295.67188 L 224 321.98242 L 288.58594 295.67188 L 288.58594 231.09375 z"/></svg>