<svg xmlns="http://www.w3.org/2000/svg" width="100%" height="100%" viewBox="-75.52 -43.52 599.04 599.04"><path d="M48 32C21.5 32 0 53.5 0 80v352c0 26.5 21.5 48 48 48h352c26.5 0 48-21.5 48-48V80c0-26.5-21.5-48-48-48H48zm175.979 64c9.359 0 18.674 2.051 25.716 6.143l94.664 54.64c14.173 8.179 25.76 28.224 25.76 44.563v109.3c0 16.344-11.587 36.409-25.76 44.583l-94.664 54.648c-7.042 4.082-16.357 6.123-25.716 6.123-9.315 0-18.675-2.04-25.717-6.123l-94.664-54.648c-14.129-8.174-25.717-28.24-25.717-44.583v-109.3c0-16.34 11.588-36.384 25.717-44.563l94.664-54.64C205.304 98.05 214.664 96 223.979 96zm61.773 68.77c-9.846 0-17.791 7.498-17.791 17.834 0 10.34 7.945 17.837 17.791 17.837 7.196 0 13.332-4.02 16.158-10.095l-8.299-2.162c-1.413 2.353-4.592 4.021-7.859 4.021-5.342 0-9.229-3.677-9.229-9.601 0-5.639 3.578-9.7 9.229-9.7 2.693 0 5.654 1.224 7.2 3.184l8.384-2.205c-3.046-5.488-8.83-9.113-15.584-9.113zm-47.393 1.334v7.4h9.924v25.588h7.865v-25.588h10.059v-7.4h-27.848zm-84.252.005v32.983h14.381c9.426 0 17.069-6.447 17.069-16.342 0-9.9-7.643-16.64-17.069-16.64h-14.38zm35.721.006v32.989h24.293v-7.4h-16.353v-5.845h12.601v-6.93h-12.601v-5.42h16.048v-7.394h-23.988zm-27.855 7.389h6.515c4.735 0 8.819 3.586 8.819 9.246 0 5.651-4.084 8.947-8.819 8.947h-6.515v-18.193zm125.966 40.682v.001c-2.73 0-5.472 1.033-7.572 3.104l-74.312 74.375c-4.2 4.138-10.96 4.138-15.07 0l-17.907-17.889c-4.111-4.146-10.92-4.146-15.076 0l-11.49 11.502c-3.272 3.267-4.156 10.921 0 15.059l44.472 44.459c4.112 4.138 10.87 4.138 15.07 0l100.928-100.934c4.111-4.142 4.111-10.918 0-15.064l-11.539-11.508c-2.055-2.071-4.774-3.105-7.504-3.105z"/></svg>