<svg xmlns="http://www.w3.org/2000/svg" width="100%" height="100%" viewBox="0 0 599.04 599.04"><path d="M123.51999999999998 75.51999999999998C97.01999999999998 75.51999999999998 75.51999999999998 97.01999999999998 75.51999999999998 123.51999999999998L75.51999999999998 475.52C75.51999999999998 502.02 97.01999999999998 523.52 123.51999999999998 523.52L475.52 523.52C502.02 523.52 523.52 502.02 523.52 475.52L523.52 123.51999999999998C523.52 97.01999999999998 502.02 75.51999999999998 475.52 75.51999999999998L123.51999999999998 75.51999999999998zM380.69773 139.51999999999998C394.93735999999996 139.51999999999998 406.54929999999996 151.13194 406.54929999999996 165.37156 406.54929999999996 178.48229999999998 396.69718 189.34682999999998 384.02195 190.99069999999998L384.02195 289.56883C396.69718 291.21211999999997 406.54929999999996 302.07333 406.54929999999996 315.18406 406.54929999999996 329.42368999999997 394.93735999999996 341.03952999999996 380.69773 341.03952999999996 367.58698999999996 341.03952999999996 356.72245999999996 331.1841 355.07858999999996 318.50827999999996L291.09421999999995 318.50827999999996 233.87741999999997 413.06102C240.12772999999999 417.7874 244.19577999999998 425.25908999999996 244.19577999999998 433.66844 244.19577999999998 447.90686 232.58068999999998 459.52 218.34226999999998 459.52 204.10386999999997 459.52 192.49068 447.90686 192.49069999999998 433.66844 192.49069999999998 420.55881 202.34362999999996 409.69667 215.01805 408.0532L215.01805 239.73093999999998C203.02076999999997 237.49946999999997 193.87937999999997 226.95512 193.87937999999997 214.32859 193.87937999999997 200.08896 205.49716999999998 188.47702999999998 219.7368 188.47702999999998 230.31901 188.47702999999998 239.43558 194.89679999999998 243.42819999999998 204.03562L355.20358999999996 169.49266C354.98584 168.14673999999997 354.84031 166.77724999999998 354.84031 165.37156 354.84031 151.13194 366.45808 139.51999999999998 380.69773 139.51999999999998zM380.69773 146.16843999999998C370.051 146.16843999999998 361.48875 154.72483 361.48875 165.37156 361.48875 176.01829999999998 370.05098 184.58055 380.69773 184.58055 391.34447 184.58055 399.90085999999997 176.01829999999998 399.90085999999997 165.37156 399.90085999999997 154.72483 391.34447 146.16843999999998 380.69773 146.16843999999998zM357.09617 175.86374999999998L245.26022999999998 210.4243C245.45574 211.70154 245.58836 212.99814999999998 245.58836 214.32859 245.58836 227.91642 235.00688 239.08760999999998 221.66647999999998 240.08444999999998L221.66647999999998 408.0532C223.91450999999998 408.3447 226.07699999999997 408.91666999999995 228.10788999999997 409.75047L364.04733999999996 185.10788999999997C361.08511 182.60358 358.69856999999996 179.44656999999998 357.09617 175.86374999999998zM369.63914 188.70163999999997L295.11569999999995 311.85983999999996 355.07858999999996 311.85983999999996C356.58092 300.27603 365.7892 291.07063 377.37352 289.56883L377.37352 190.99069999999998C374.63743 190.63586999999998 372.04111 189.84721 369.63914 188.70163999999997zM219.7368 195.12351999999998C209.09005 195.12351999999998 200.52781 203.68183 200.52781 214.32859 200.52781 224.97532999999999 209.09005 233.53758 219.7368 233.53758 230.38353999999998 233.53758 238.93991999999997 224.97534 238.93991999999997 214.32859 238.93991999999997 203.68183 230.38353999999998 195.12351999999998 219.7368 195.12351999999998zM380.69773 295.97898C370.05098 295.97898 361.48875 304.53731 361.48875 315.18406 361.48875 325.83079 370.05098 334.39304999999996 380.69773 334.39304999999996 391.34447 334.39304999999996 399.90085999999997 325.83079 399.90085999999997 315.18406 399.90085999999997 304.53731 391.34447 295.97898 380.69773 295.97898zM218.34226999999998 414.46335999999997C207.69677 414.46335999999997 199.13914 423.02292 199.13914 433.66844 199.13912 444.31396 207.69674999999998 452.87156 218.34226999999998 452.87156 228.9878 452.87156 237.54734 444.31396 237.54734 433.66844 237.54734 423.02292 228.9878 414.46335999999997 218.34226999999998 414.46335999999997z" /></svg>