<svg xmlns="http://www.w3.org/2000/svg" width="100%" height="100%" viewBox="0 0 599.04 599.04"><path d="M413.16817 75.51999999999998c-19.93551 0-36.19919 16.257666-36.19919 36.193133 0 1.967966 0.20414 3.884331 0.50899 5.768614L220.992415 165.84226999999998c-5.58967-12.79434-18.35436-21.78373-33.16945-21.78373-19.93549 0-36.19922 16.25765-36.19922 36.19313 0 17.67715 12.7982 32.43889 29.59439 35.56295v235.65235c-17.74418 2.30086-31.53946 17.50642-31.53946 35.85989-0.00003 19.93379 16.25936 36.19314 36.19313 36.19314 19.93378 0 36.19316-16.25935 36.19316-36.19314 0-11.77309-5.69531-22.23214-14.44575-28.84907L287.72526 326.10285h89.57698c2.30142 17.74615 17.51089 31.54554 35.86593 31.54554 19.93547 0 36.19316-16.26371 36.19316-36.19919 0-18.35503-13.79419-33.55926-31.53951-35.85987V147.57907c17.74532-2.30142 31.53951-17.5109 31.53951-35.865937C449.36133 91.77766599999998 433.10364 75.51999999999998 413.16817 75.51999999999998Zm0 9.30732c14.90543 0 26.8858 11.980395 26.8858 26.885813 0 14.905437-11.98037 26.891858-26.8858 26.891858-14.90545 0-26.89188-11.986421-26.89188-26.891858 0-14.905418 11.98645-26.885813 26.89188-26.885813z m-33.04224 41.573943c2.24336 5.015947 5.58437 9.436958 9.73149 12.942991L199.541945 453.84229c-2.84324-1.16732-5.86923-1.96722-9.01647-2.37532V216.31151999999997c18.67655-1.39557 33.4906-17.03688 33.4906-36.05985 0-1.86261-0.18676-3.67748-0.46048-5.46562z m17.56032 17.972357c3.36276 1.60381 6.99771 2.70869 10.82823 3.20544v138.01025c-16.21805 2.10253-29.10898 14.98887-31.21224 31.2062h-83.94776z m-209.863285 8.99225c14.90544 0 26.8858 11.98035 26.8858 26.8858 0 14.90546-11.98036 26.89189-26.8858 26.89189-14.90545 0-26.89188-11.98645-26.89188-26.89189 0-14.90545 11.98643-26.8858 26.89188-26.8858zM413.16817 294.56335c14.90543 0 26.8858 11.98038 26.8858 26.88583 0 14.90543-11.98037 26.89187-26.8858 26.89187-14.90545 0-26.89188-11.98644-26.89188-26.89187 0-14.90545 11.98643-26.88583 26.89188-26.88583zM185.871805 460.44102999999996c14.90374 0 26.88582 11.98211 26.88582 26.88583 0 14.90373-11.98208 26.8858-26.88582 26.8858-14.90373 0-26.88583-11.98207-26.8858-26.8858 0-14.90372 11.98209-26.88583 26.8858-26.88583z" /></svg>