<svg xmlns="http://www.w3.org/2000/svg" width="100%" height="100%" viewBox="-43.52 -43.52 599.04 599.04"><path d="M255.924 8c-14.47 0-28.871 3.17-39.841 9.51l-146.73 84.694c-21.94 12.674-39.832 43.761-39.832 69.093v169.406c0 25.332 17.893 56.42 39.832 69.093l146.73 84.713c10.97 6.325 25.449 9.491 39.841 9.491 14.55 0 28.938-3.166 39.908-9.491l146.73-84.713c21.939-12.674 39.917-43.761 39.917-69.093V171.297c0-25.332-17.978-56.42-39.918-69.093L295.832 17.51C284.862 11.17 270.473 8 255.924 8zm24.648 106.594c11.203 0 20.871 6.054 25.936 15.223l-14.048 3.675c-2.532-3.269-7.438-5.324-11.888-5.324-9.514 0-15.422 6.795-15.422 16.217 0 9.89 6.445 16.028 15.422 16.028 5.371 0 10.665-2.778 13.044-6.707l13.886 3.6c-4.757 10.15-15.038 16.86-26.93 16.86-16.496 0-29.773-12.517-29.773-29.78 0-17.272 13.277-29.792 29.773-29.792zm-81.966.578h46.5v12.362h-16.719v42.73h-13.214v-42.73h-16.567zm156.562 75.989c4.229 0 8.465 1.602 11.67 4.812l17.837 17.827c6.41 6.434 6.41 16.931 0 23.35L228.189 393.607c-6.411 6.419-16.835 6.419-23.246 0l-68.979-68.903c-6.41-6.418-5.02-18.283 0-23.35l17.847-17.827c6.41-6.426 16.91-6.426 23.32 0l27.812 27.726c6.411 6.419 16.835 6.419 23.246 0l115.318-115.28c3.206-3.21 7.432-4.812 11.661-4.812zm10.022 123.048h18.632v23.368h22.971v17.477h-22.81v22.838h-18.642v-22.838h-23.046v-17.477h22.895z"/></svg>