<svg xmlns="http://www.w3.org/2000/svg" width="100%" height="100%" viewBox="0 0 599.04 599.04"><path d="M99.03441499999998 107.51999799999999V293.2929H293.47096999999997V107.51999799999999Zm48.201875 50.730082l12.45773 0.90269c0.36108 0 0.54302 0.18194 0.54302 0.54302v12.09454c0.18054 8.30468 0 16.61077 0.90268 24.91546 1.26376 12.63757 7.76167 19.13547 20.21869 21.12138 1.98591 0.36107 3.97111 0.36319 6.49862 0.36319v-59.57709h13.90343v59.57709c16.06776 1.26375 27.25893-8.66788 27.62-23.83295l0.18335-26.90067 0.17981-5.95558c0-1.4443 1.08393-2.52822 2.52822-2.52822l11.19189-0.35967v6.85829c-0.18054 11.19325 0.18053 22.38653-0.90269 33.39926-1.44429 14.80401-10.65166 23.6503-24.37245 27.98318-5.05503 1.62483-10.29129 1.62554-16.06846 1.62554v24.01278h-13.72008v-24.01278c-11.19328 0-17.15098-1.80537-24.37244-5.4161-11.19328-5.77718-16.24759-15.88582-16.42813-28.34284-0.54161-11.73489-0.36319-23.65241-0.36319-36.47052zM99.03441499999998 305.02777V491.34018L293.47096999999997 491.52V305.02777Zm206.534615 0V491.34018L500.00559 491.52V305.02777Zm74.51369 44.56998c5.88934 0.21286 11.81739 3.9838 14.67212 10.31387 3.24966 7.04093 5.9549 14.07974 8.84348 21.30121l1.98872 4.51343 11.55153-27.44017c3.61073-8.66576 4.8752-9.20666 15.16578-7.40129l-20.76171 47.29919 13.00075 31.95357c1.9859 4.69396 5.77436 6.13825 10.64884 6.31878 0.36108 3.06913 0.36318 5.59805 0.36318 7.76449a14.081858 14.081858 0 0 1-19.85903-6.13895c-4.15234-8.12415-7.4013-16.78991-11.01203-25.27513l-2.16854-5.23627-15.88513 36.83018h-12.09805l21.6644-49.28439-12.09456-29.60871c-2.16643-5.23557-6.67985-6.13755-11.73488-6.49862v-7.40482c2.36954-1.46685 5.03815-2.1031 7.71513-2.00637z m-183.91818 4.89777h13.17707l24.55227 93.1562h-12.99722l-6.49862-24.73563h-39.8979l-8.48733 17.15098c-1.62484 3.4302-4.69325 7.04163-4.69325 7.04163h-12.09454z m5.05291 13.89991l-21.66439 44.05165h32.31676z" /></svg>