<svg xmlns="http://www.w3.org/2000/svg" width="100%" height="100%" viewBox="0 0 599.04 599.04"><path d="M123.51999999999998 75.51999999999998C97.01999999999998 75.51999999999998 75.51999999999998 97.01999999999998 75.51999999999998 123.51999999999998L75.51999999999998 475.52C75.51999999999998 502.02 97.01999999999998 523.52 123.51999999999998 523.52L475.52 523.52C502.02 523.52 523.52 502.02 523.52 475.52L523.52 123.51999999999998C523.52 97.01999999999998 502.02 75.51999999999998 475.52 75.51999999999998L123.51999999999998 75.51999999999998zM299.54148 139.51999999999998C308.84502 139.51999999999998 318.18972999999994 141.563924 325.24069999999995 145.65671999999998L419.90672 200.29734C434.05005 208.47459999999998 445.64695 228.52569999999997 445.64695 244.86765999999997L445.64695 354.17039C445.64695 370.51653999999996 434.05005 390.57547999999997 419.90672 398.74852L325.24069999999995 453.40281C318.18972999999994 457.4831 308.84502 459.52 299.54148 459.52 290.19597999999996 459.52 280.84991 457.4831 273.7993 453.40281L179.13522999999998 398.74852C164.99190699999997 390.57547999999997 153.39304699999997 370.51653999999996 153.39304699999997 354.17039L153.39304699999997 244.86765999999997C153.39304699999997 228.52569999999997 164.99190699999997 208.47459999999998 179.13522999999998 200.29734L273.7993 145.65671999999998C280.84991 141.563924 290.19597999999996 139.51999999999998 299.54148 139.51999999999998zM269.12546999999995 208.29147999999998L269.12546999999995 244.18406 284.81296999999995 244.18406C295.07620999999995 244.18406 303.37937999999997 237.16112999999999 303.37937999999997 226.39305 303.37937 215.62493999999998 295.07620999999995 208.29147999999998 284.81296999999995 208.29147999999998L269.12546999999995 208.29147999999998zM307.34031 208.29147999999998L307.34031 244.18406 333.70945 244.18406 333.70945 236.13522999999998 315.93796999999995 236.13522999999998 315.93796999999995 229.77976999999998 329.62156 229.77976999999998 329.62156 222.23874999999998 315.93796999999995 222.23874999999998 315.93796999999995 216.33444999999998 333.41648 216.33444999999998 333.41648 208.29147999999998 307.34031 208.29147999999998zM277.76023 216.33444999999998L284.81296999999995 216.33444999999998C289.94453 216.33444999999998 294.40671999999995 220.23508999999999 294.40671999999995 226.39305 294.40671999999995 232.54267 289.94453 236.13522999999998 284.81296999999995 236.13522999999998L277.76023 236.13522999999998 277.76023 216.33444999999998zM363.50437999999997 261.87156C360.77675999999997 261.87156 358.05190999999996 262.90364 355.98679999999996 264.97508L281.59812 339.35202999999996C277.46777 343.49069 270.66986999999995 343.49069 266.53953 339.35202999999996L248.63913999999997 321.46335999999997C244.50877999999997 317.31633999999997 237.75253999999998 317.31633999999997 233.58055 321.46335999999997L222.06687999999997 332.96531C218.81262999999998 336.23204999999996 217.93654999999998 343.8852 222.06687999999997 348.02391L266.53953 392.48483999999996C270.66986999999995 396.6235 277.46777999999995 396.6235 281.59812 392.48483999999996L382.56492 291.54148C386.69525999999996 287.39864 386.69525999999996 280.62404 382.56492 276.47703L371.05125 264.97508C368.96509 262.90360999999996 366.23163999999997 261.87156 363.50437999999997 261.87156z" /></svg>