<svg xmlns="http://www.w3.org/2000/svg" width="100%" height="100%" viewBox="0 0 599.04 599.04"><path d="M123.51999999999998 75.51999999999998C97.01999999999998 75.51999999999998 75.51999999999998 97.01999999999998 75.51999999999998 123.51999999999998L75.51999999999998 475.52C75.51999999999998 502.02 97.01999999999998 523.52 123.51999999999998 523.52L475.52 523.52C502.02 523.52 523.52 502.02 523.52 475.52L523.52 123.51999999999998C523.52 97.01999999999998 502.02 75.51999999999998 475.52 75.51999999999998L123.51999999999998 75.51999999999998zM299.49852 139.51999999999998C308.84405 139.51999999999998 318.14808999999997 141.563924 325.24069999999995 145.65671999999998L419.90477 200.29734C434.04805999999996 208.47459999999998 445.64695 228.52570999999998 445.64695 244.86765999999997L445.64695 354.17039C445.64695 370.51651999999996 434.04805999999996 390.57547999999997 419.90477 398.74852L325.24069999999995 453.40281C318.14808999999997 457.48309 308.84405 459.52 299.49852 459.52 290.19494 459.52 280.84862 457.48309 273.75633 453.40281L179.13327999999998 398.74852C164.94838 390.57547999999997 153.39304699999997 370.51651999999996 153.39304699999997 354.17039L153.39304699999997 244.86765999999997C153.39304699999997 228.52570999999998 164.94838099999998 208.47459999999998 179.13327999999998 200.29734L273.75633 145.65671999999998C280.84862 141.563924 290.19494 139.51999999999998 299.49852 139.51999999999998zM316.26805 208.29147999999998C305.58767 208.29147999999998 296.94969 216.44538999999997 296.94969 227.70163999999997 296.94969 238.94950999999998 305.58767 247.10593999999998 316.26805 247.10593999999998 324.11163 247.10593999999998 330.78804 242.73206 333.87547 236.12351999999998L324.82469 233.77586C323.28112999999996 236.33335999999997 319.85612 238.14694999999998 316.26805 238.14694999999998 310.46898 238.14694999999998 306.25828 234.14747999999997 306.25828 227.70163999999997 306.25828 221.56453 310.09349999999995 217.14109 316.26805 217.14109 319.23032 217.14109 322.40536999999995 218.47399 324.11569999999995 220.60593999999998L333.25242 218.20359C329.95658 212.23336999999998 323.65261 208.29147999999998 316.26805 208.29147999999998zM262.86569999999995 209.74656L262.86569999999995 217.79538999999997 273.67233999999996 217.79538999999997 273.67233999999996 245.64499999999998 282.26414 245.64499999999998 282.26414 217.79538999999997 293.19773 217.79538999999997 293.19773 209.74656 262.86569999999995 209.74656zM363.47898 261.87156C360.74638 261.87156 358.00901 262.90364999999997 355.94383 264.97508L281.59812 339.35202999999996C277.42616999999996 343.49071 270.66989 343.49071 266.53953 339.35202999999996L248.63913999999997 321.46335999999997C244.46717999999998 317.31633999999997 237.71090999999998 317.31633999999997 233.58055 321.46335999999997L222.06687999999997 332.96531C218.81266 336.23204 217.93651999999997 343.88521 222.06687999999997 348.02391L266.53953 392.48289C270.66989 396.62154999999996 277.42616 396.62154999999996 281.59812 392.48289L382.52195 291.54148C386.65229 287.39862999999997 386.65229 280.62404 382.52195 276.47703L371.00827999999996 264.97508C368.94309999999996 262.90362 366.21155 261.87156 363.47898 261.87156z" /></svg>