<svg xmlns="http://www.w3.org/2000/svg" width="100%" height="100%" viewBox="-43.52 -43.52 599.04 599.04"><path d="m 255.96701,7.9999992 c -14.42056,0 -28.9134,3.1667198 -39.84197,9.5105508 L 69.402174,102.20596 c -21.954611,12.67476 -39.899208,43.75438 -39.899208,69.08441 v 169.41924 c 0,25.33653 17.944597,56.42568 39.899208,69.0939 L 216.12504,494.51788 C 227.05361,500.84232 241.54645,504 255.96701,504 c 14.48556,0 28.97013,-3.15768 39.89917,-9.48212 l 146.7224,-84.71437 c 21.92213,-12.66822 39.90845,-43.75737 39.90845,-69.0939 V 171.29037 c 0,-25.33003 -17.98632,-56.40965 -39.90845,-69.08441 L 295.86618,17.51055 C 284.93714,11.166719 270.45257,7.9999992 255.96701,7.9999992 Z M 355.1558,152.37339 c 4.22726,0 8.45019,1.60138 11.65118,4.81215 l 17.84669,17.82761 c 6.402,6.42793 6.402,16.93826 0,23.3597 L 228.22149,354.82393 c -6.46654,6.41499 -16.93871,6.41499 -23.34074,0 l -68.94211,-68.91386 c -6.40202,-6.41497 -5.044,-18.2773 0,-23.34073 l 17.85586,-17.82761 c 6.40202,-6.42793 16.9387,-6.42793 23.34073,0 l 27.74552,27.72655 c 6.40203,6.415 16.8742,6.415 23.34074,0 L 343.45702,157.18554 c 3.23307,-3.21072 7.47102,-4.81215 11.69878,-4.81215 z"/></svg>