<svg xmlns="http://www.w3.org/2000/svg" width="100%" height="100%" viewBox="-139.52 -43.52 599.04 599.04"><path d="M 4.99345,63.999991 54.01212,139.01677 102.9916,63.999991 Z m 212.01493,0 49.01869,75.016779 48.97948,-75.016778 z M 75.16885,152.95895 75.09595,359.25372 h 45.45337 v -82.45521 h 22.43845 l 43.1306,82.48881 h 54.49812 l -52.46076,-87.13433 c 14.6677,-2.72296 25.73933,-9.18601 33.29104,-19.38807 7.58799,-10.20205 11.36195,-22.583 11.36195,-37.14178 0,-12.05367 -2.10464,-22.10794 -6.27987,-30.16792 -4.17521,-8.06 -9.80375,-14.4864 -16.91975,-19.24253 -7.07973,-4.75613 -15.3579,-8.17021 -24.7612,-10.20337 -9.43962,-2.03313 -19.38439,-3.05037 -29.87688,-3.05037 z m 45.49254,38.4515 h 29.73134 c 4.06628,0 8.24196,0.28662 12.52611,0.86753 4.28412,0.58088 8.06366,1.70765 11.36754,3.34142 3.30388,1.67009 6.02397,4.03065 8.16606,7.15297 2.14206,3.12236 3.19587,7.29805 3.19587,12.52614 -0.0364,5.66376 -1.23351,10.01946 -3.66604,13.14177 -2.4325,3.12235 -5.48145,5.40971 -9.18471,6.86195 -3.70322,1.45226 -7.80601,2.32336 -12.3806,2.6138 -4.57458,0.29048 -8.89639,0.4366 -12.96268,0.4366 H 120.66139 Z M 54.01212,372.99441 4.99345,448.00001 h 97.99815 z m 212.01495,0 -49.01869,75.0056 h 97.99817 z"/></svg>