<svg xmlns="http://www.w3.org/2000/svg" width="100%" height="100%" viewBox="-139.52 -43.52 599.04 599.04"><path d="M 18.560221,447.99914 V 64 H 152.41616 c 34.22381,0 58.6717,3.455812 73.34367,10.352093 14.67196,6.896322 26.71982,18.864102 36.144,35.888077 9.42419,17.02394 14.14393,37.40792 14.14393,61.16806 0,30.03214 -7.19994,54.22408 -21.616,72.55967 -14.41603,18.33559 -34.88004,29.85582 -61.42399,34.57601 13.61584,9.7759 24.88013,20.47974 33.792,32.08006 8.91187,11.61601 21.03978,32.4318 36.41613,62.47968 l 38.22388,74.8959 h -75.84009 l -45.98377,-83.5518 c -16.55978,-30.20801 -27.8079,-49.1198 -33.74388,-56.70385 -5.93598,-7.58406 -12.22417,-12.83184 -18.86409,-15.71191 -6.63993,-2.88006 -17.2799,-4.31987 -31.951873,-4.31987 H 81.93591 V 448 H 18.560221 Z M 81.93591,226.39968 h 47.15191 c 28.81588,0 47.15191,-1.26393 55.00808,-3.79179 7.85618,-2.52789 14.22398,-7.6322 19.12003,-15.32779 4.89606,-7.67988 7.3281,-17.90378 7.3281,-30.63983 0,-12.22416 -2.4478,-22.04778 -7.3281,-29.47212 -4.8803,-7.42437 -11.51978,-12.52777 -19.90402,-15.32779 -5.93599,-1.92017 -23.13584,-2.88006 -51.59997,-2.88006 H 81.93591 v 97.43983 z"/></svg>