<svg xmlns="http://www.w3.org/2000/svg" width="100%" height="100%" viewBox="-75.52 -43.52 599.04 599.04"><path d="M 48 32 C 21.5 32 0 53.5 0 80 L 0 432 C 0 458.5 21.5 480 48 480 L 400 480 C 426.5 480 448 458.5 448 432 L 448 80 C 448 53.5 426.5 32 400 32 L 48 32 z M 274.06836 96 L 359.05859 210.55078 L 336.15039 227.54688 L 251.16211 112.99609 L 274.06836 96 z M 221.23242 141.82227 L 330.97656 233.08984 L 312.86719 254.89258 L 203.125 163.61719 L 221.23242 141.82227 z M 179.10547 200.94336 L 308.4375 261.53906 L 296.61523 287.40625 L 167.28516 227.17773 L 179.10547 200.94336 z M 154.71875 265.60938 L 294.39258 294.79492 L 288.48047 322.88477 L 148.80859 293.69141 L 154.71875 265.60938 z M 88.941406 301.81836 L 117.40039 301.81836 L 117.40039 387.55078 L 317.30664 387.55078 L 317.30664 301.81836 L 345.75586 301.81836 L 345.75586 416 L 88.941406 416 L 88.941406 301.81836 z M 145.84961 330.27539 L 288.48047 330.27539 L 288.48047 358.72461 L 145.84961 358.72461 L 145.84961 330.27539 z"/></svg>