<svg xmlns="http://www.w3.org/2000/svg" width="100%" height="100%" viewBox="-75.52 -43.52 599.04 599.04"><path d="M48 32C21.5 32 0 53.5 0 80v352c0 26.5 21.5 48 48 48h352c26.5 0 48-21.5 48-48V80c0-26.5-21.5-48-48-48H48zm16 64h320v320H64V96zm97.346 83.271c-26.486 0-42.633 17.227-42.633 39.19 0 21.963 19.378 31.439 37.035 42.205 13.135 7.967 26.914 13.35 26.914 27.563 0 13.78-12.272 23.687-26.914 23.687-14.427 0-23.901-3.233-34.883-9.908l-2.586 17.012c11.198 5.167 22.61 7.537 38.328 7.537 21.964 0 45.004-13.565 45.004-40.48 0-20.457-18.088-29.718-35.529-40.054-13.566-8.182-27.992-13.78-27.992-28.853 0-11.197 8.182-23.469 24.332-23.469 13.996 0 23.687 2.15 35.96 9.47l1.077-17.007c-11.413-4.737-19.595-6.893-38.113-6.893zm134.754 0c-41.774 0-73.426 32.515-73.426 73.858 0 47.157 37.682 72.998 72.781 72.998 17.657 0 32.298-2.37 43.926-8.184l-1.291-16.365c-13.135 7.106-27.133 9.906-41.13 9.906-30.576 0-54.907-25.624-54.907-59.646 0-35.96 23.9-58.137 51.892-58.137 17.657 0 31.225 2.799 44.145 9.904l1.29-16.15c-11.842-5.598-21.532-8.184-43.28-8.184z"/></svg>