<svg xmlns="http://www.w3.org/2000/svg" width="100%" height="100%" viewBox="0 0 599.04 599.04"><path d="M123.51999999999998 75.51999999999998C97.01999999999998 75.51999999999998 75.51999999999998 97.01999999999998 75.51999999999998 123.51999999999998L75.51999999999998 475.52C75.51999999999998 502.02 97.01999999999998 523.52 123.51999999999998 523.52L475.52 523.52C502.02 523.52 523.52 502.02 523.52 475.52L523.52 123.51999999999998C523.52 97.01999999999998 502.02 75.51999999999998 475.52 75.51999999999998L123.51999999999998 75.51999999999998zM180.6743 236.07859C188.81892999999997 236.07858 190.74827 236.72070999999997 202.10789 241.43601999999998 202.75088 241.6504 203.39016999999998 241.86374999999998 203.81883 241.86374999999998 204.89048999999997 241.86374999999998 205.10909999999998 241.64872999999997 207.25241999999997 239.93406 207.46676 239.71967999999998 207.89159999999998 239.50633 208.10593999999998 239.50633 209.60627 239.50633 210.25046999999998 240.79279999999997 210.25046999999998 243.79343999999998 210.46479999999997 246.36543999999998 210.67991999999998 247.00593999999998 213.03758 261.58055 213.25195999999997 263.29522 213.46531 264.79693 213.46531 265.43992 213.46531 266.94025 212.60975 268.01023 211.75241999999997 268.01023 210.46641999999997 268.01023 210.03697999999997 267.3712 208.96531 263.94187999999997 204.89299999999997 251.29626 190.31665999999998 242.07663999999997 174.670391 242.07663999999997 161.59611099999998 242.07663999999997 152.16648399999997 250.43823999999998 152.16648399999997 262.01219 152.16648399999997 267.15617 153.88169599999998 271.65421 157.311016 275.51219 162.24066599999998 280.87049 163.31382599999998 281.51734 184.96141 288.59031 206.60898999999998 295.66328 217.1118 307.23607999999996 217.1118 323.31102 217.1118 345.17293 199.53346999999997 360.81883 174.88523399999997 360.81883 165.02594399999998 360.81883 151.73972999999998 357.60362 147.23874999999998 354.17429999999996 145.52409 352.67397 145.30989599999998 352.45777 144.02390599999998 346.02781 144.02390599999998 345.59914 143.16731799999997 342.60105999999996 141.881328 338.10008 140.38099799999998 333.38477 139.51999999999998 328.4534 139.51999999999998 326.73875 139.51999999999998 325.23841999999996 140.37802799999997 324.16844 141.44968799999998 324.16844 142.307028 324.16844 142.737814 324.80966 143.16648399999997 325.88133 145.95279399999998 334.02596 149.16797099999997 339.38282 153.88328099999998 344.09812 160.098931 350.31378 170.17191499999998 354.17429999999996 179.81687999999997 354.17429999999996 195.67746999999997 354.17429999999996 208.53758 343.24365 208.53758 329.7407 208.53758 323.09639 205.32310999999999 316.88036 199.75046999999998 312.37937999999997 196.53547999999998 310.02171 193.53346999999997 308.52191999999997 177.88718999999998 303.59227 162.88392799999997 298.44829 156.454904 295.01883999999995 150.45359399999998 288.80319999999995 145.095284 283.23055 142.30710899999997 276.3692 142.30710899999997 268.01023 142.30710899999997 249.36330999999998 157.95505699999998 236.07859 180.6743 236.07859zM250.76022999999998 236.50633C258.69052999999997 236.50633 260.83369 236.93410999999998 271.97898 241.86374999999998 272.83630999999997 242.07814 273.26712 242.29147999999998 273.69578 242.29147999999998 274.76743999999997 242.29147999999998 274.98020999999994 242.08034999999998 277.12352 240.36569999999998 277.33786 240.15135999999998 277.55422 239.93406 277.98289 239.93406 279.48321 239.93406 280.12546999999995 241.22052 280.12546999999995 244.22116999999997 280.33979999999997 246.79315999999997 280.55101 247.43757 282.90867 262.01219 283.12301 263.94116999999994 283.34031 265.22466999999995 283.34031 265.86766 283.34031 267.36798999999996 282.48086 268.44187999999997 281.62352 268.44187999999997 280.55186 268.44187999999997 279.90806999999995 267.79697999999996 278.83641 264.36766 274.54976 251.72205 260.1897 242.50827999999998 244.54343999999998 242.50827999999998 231.46914999999998 242.50827999999998 222.03758 250.64969 222.03758 262.43796999999995 222.03758 267.58195 223.75279999999998 272.08585 227.18211 275.94383 231.89741999999998 281.30215 232.97057999999998 281.72879 254.83249999999998 289.01608999999996 276.48008 296.30339 287.19876 307.66474999999997 287.62742 323.31102 287.62742 345.17294 269.83475999999996 360.81883 245.40086 360.81883 235.54156999999998 360.81883 222.25144999999998 357.60361 217.75046999999998 354.17429999999996 216.03580999999997 352.88829999999996 215.82162999999997 352.46076 214.53562 346.45945 216.25028999999998 343.88746 217.75547999999998 340.88784999999996 219.04147999999998 337.88719 220.5418 340.24485 222.25312 342.38788999999997 224.18211 344.31687999999997 230.39775999999998 350.53252 240.47464999999997 354.38914 250.11961 354.38914 265.98020999999994 354.38914 278.83641 343.45655 278.83641 329.95358999999996 278.83641 323.30929 275.62194999999997 316.88086999999996 270.0493 312.59422 266.83432 310.23657 263.62186999999994 308.95108999999997 248.18991999999997 303.80710999999997 233.18666 298.66314 226.75373 295.23172999999997 220.75241999999997 289.01608999999996 216.03709999999998 284.30076999999994 213.25284 278.51391 212.60984 271.86960999999997 215.39615999999998 271.22661 217.53758 268.65635 217.53758 265.22703 217.53758 264.79837 217.53902999999997 263.93881 217.32468999999998 262.65281L216.03952999999998 253.86569999999998C221.82650999999998 243.14907999999997 234.47096 236.50633 250.76022999999998 236.50633zM312.91648 238.8618C326.63376 238.86178999999998 335.42309 241.00688999999997 342.28172 246.15086 349.14036999999996 251.29484 352.99852 259.65188 352.99852 269.0825 352.99852 282.15679 345.27922 292.44559 331.13328 299.73289L355.56883 335.31102C366.49978999999996 352.02895 372.71776 357.17377 381.93406 356.95945 382.79139 356.95945 383.43210999999997 357.60551999999996 383.43210999999997 358.24852 383.43210999999997 359.96317999999997 377.42848999999995 361.67625 370.99852 361.67625 360.2819 361.67625 352.56739999999996 356.53076 343.77977 343.02781L322.13328 309.80516C322.13328 309.59083 321.70597 308.95104 321.06296999999995 307.87937999999997 319.13397 304.87872 318.05962 304.23289 314.20164 304.23289L304.55516 304.23289C300.05418999999995 304.01855 299.62886 304.44709 299.41453 307.44773L299.41453 334.45358999999996 299.41453 339.17233999999996C298.98586 351.38928999999996 303.05942 355.89025 315.49069999999995 357.17625 317.63401999999996 357.39059 318.70555 358.03037 318.70555 359.10202999999996 318.70555 360.1737 317.41679999999997 360.81883 315.91648 360.81883 314.84481999999997 360.81883 312.91671999999994 360.60542 310.55906 360.39108999999996 308.41573999999997 359.96243 299.20124 359.74656 290.84227 359.74656 286.55562 359.74656 282.05386 359.96243 279.05319999999995 360.39108999999996 277.33854999999994 360.60546999999997 275.1923 360.81883 274.5493 360.81883 272.83464 360.81883 272.19187999999997 360.38802999999996 272.19187999999997 359.10202999999996 272.19187999999997 358.03037 272.62175 357.81781 274.33641 357.38914 281.40937999999994 355.24582 284.19443 353.31799 285.26608999999996 345.60202999999996 289.33840999999995 339.38638 291.69578 331.88286999999997 291.69578 323.52391 291.69578 316.23659 289.76861999999994 309.80554 285.91062 304.23289L285.91062 272.08444999999995 285.91062 270.58444999999995C287.19662 269.29846 287.84031 267.58376 287.84031 265.65477 287.84031 265.22610999999995 287.84176 264.37045 287.62742 263.08444999999995L286.12352 253.65281C284.83749 246.57985 284.83979999999997 245.72098999999997 284.62546999999995 244.00633 284.62546999999995 242.29166999999998 284.40959999999995 241.00571999999997 283.98094 239.93406L285.69773 239.93406C290.19872 239.93406 290.19732 239.93643999999998 299.84227 239.29343999999998 304.34326 239.07911 308.84416 238.8618 312.91648 238.8618zM456.94969 240.36569999999998C458.45002 240.36569999999998 459.52 241.21982999999997 459.52 242.29147999999998 459.52 243.14881999999997 459.0892 243.57911 457.8032 243.79343999999998 449.65855999999997 245.93677 448.80177 248.08039 449.01608999999996 269.2993L448.8032 274.87156 448.8032 331.88327999999996C448.8032 343.02858 448.80464 350.96 448.59031 356.10398L448.59031 357.81687999999997C448.59031 361.67487 447.94458 362.96141 445.80125 362.96141 444.51525999999996 362.96141 444.51531 362.96153999999996 441.72898 359.74656L367.78367 274.87156C366.712 273.79988 366.49843 273.58641 365.64108999999996 273.58641 364.3551 273.58641 363.9282 274.44120999999996 363.9282 277.44187999999997L363.9282 337.02781 363.9282 340.24266C362.42787999999996 338.09934 360.92555 335.74188 358.99656 332.95554999999996L356.85398 329.7407 356.85398 277.87352 356.85398 274.01414C357.06831999999997 272.51381 357.28562 270.79715999999996 357.28562 269.0825 357.28562 258.36587999999995 352.568 248.50814999999997 344.85202999999996 242.72116999999997 343.78037 242.07817999999997 342.70885 241.22159 341.63719 240.57859 344.20918 240.79269999999997 348.06595 240.79147999999998 348.49460999999997 240.79147999999998L349.99656 240.79147999999998C351.28254999999996 240.57736999999997 352.35551999999996 240.57859 352.99852 240.57859 354.92751 240.57859 355.99674999999996 241.21992999999998 357.71141 243.14890999999997L438.30125 334.88523C439.58724 336.38554999999997 440.22805 337.02781 440.65672 337.02781 441.51405 337.24215 441.72898 336.59929 441.72898 333.81297L441.72898 291.80516C442.15765 250.86764999999997 440.65979 247.00851999999998 423.94187999999997 244.65086 422.01288 244.2222 421.36766 243.57747999999998 421.36766 242.29147999999998 421.36766 241.21981999999997 422.2272 240.57859 423.94187999999997 240.57859L427.79733999999996 240.79147999999998C431.01232999999996 241.0058 439.58696 241.43601999999998 444.73094 241.43601999999998 448.3746 241.43601999999998 450.51926 241.22012999999998 452.66258 240.79147999999998 454.59157 240.57708999999997 455.87802999999997 240.36569999999998 456.94969 240.36569999999998zM308.20164 244.86569999999998C304.12933 244.86569999999998 301.55598999999995 245.93425 300.27 247.64890999999997 299.19832999999994 249.14925 299.19773 249.79407999999998 299.19773 255.79538999999997L299.19773 291.37352C299.19773 296.94615999999996 299.62756 297.37597 305.41453 297.59031L315.27194999999995 297.59031C330.70389 297.59031 339.92039 288.58874 339.92039 274.01414 339.92039 265.8695 336.27862 257.29679 330.06296999999995 252.15281 325.13331999999997 247.65183 316.34628 244.86569999999998 308.20164 244.86569999999998z" /></svg>