<svg xmlns="http://www.w3.org/2000/svg" width="100%" height="100%" viewBox="0 0 599.04 599.04"><path fill="currentColor" d="M75.5 75.5h128v128h-128v-128zM195.5 195.5v-112h-112v112h112zM235.5 75.5h128v128h-128v-128zM355.5 195.5v-112h-112v112h112zM395.5 75.5h128v128h-128v-128zM515.5 195.5v-112h-112v112h112zM75.5 235.5h128v128h-128v-128zM195.5 355.5v-112h-112v112h112zM235.5 235.5h128v128h-128v-128zM355.5 355.5v-112h-112v112h112zM395.5 235.5h128v128h-128v-128zM515.5 355.5v-112h-112v112h112zM75.5 395.5h128v128h-128v-128zM195.5 515.5v-112h-112v112h112zM235.5 395.5h128v128h-128v-128zM355.5 515.5v-112h-112v112h112zM395.5 395.5h128v128h-128v-128z" /></svg>