<svg xmlns="http://www.w3.org/2000/svg" width="100%" height="100%" viewBox="0 0 748.8 748.8"><path fill="currentColor" d="M292.4 419.6l22.3-30.2h58.7l-22.3 30.2h-58.7zM54.4 401.3h86.5l-4.7 6.4h-81.8v-6.4zM227.3 389.4h68.2c-5.7 7.8-24.1 30.3-57.2 30.3h-100.1l41.1-55.8h51c5.6 0 5.6 2.2 2.8 5.9-2.8 3.7-7.6 10.3-10.4 14.1-1.4 1.9-4.1 5.5 4.6 5.5zM544.8 382.5h-62.2l39.3-53.4h62.2zM149.7 389.4l-4.7 6.4h-90.6v-6.4h95.3zM260.7 362.8c2.8-3.7 2.9-5.9-2.7-5.9h-111.4l20.4-27.8h117.9c29.9 0 37.6 23.6 29.2 35-6.2 8.4-13.5 18.4-13.5 18.4h-45.6c-8.7 0-6-3.5-4.6-5.5 2.8-3.8 7.5-10.4 10.3-14.2zM54.4 419.6v-6.4h77.8l-4.7 6.4h-73.1zM377.4 419.6c0 0 22.2-30.2 22.3-30.2h58.7l-22.3 30.2h-58.7zM599.4 419.7l4.7-6.4h90.3v6.4h-95zM621.7 389.4h72.7v6.4h-77.4zM608.2 407.7l4.7-6.4h81.5v6.4h-86.2zM444 329.1h58.7l-39.3 53.4h-143.6l39.3-53.4h58.7l-22.5 30.6h26.2zM477.5 389.4h133.4l-22.3 30.3h-94.3c-24.1 0-30.6-11.6-23.2-21.6 2.1-2.8 6.4-8.7 6.4-8.7z" /></svg>