<svg xmlns="http://www.w3.org/2000/svg" width="100%" height="100%" viewBox="0 0 748.8 748.8"><path fill="currentColor" d="M404.3 354.7h-66.1v-59.4h66.1v59.4zM404.3 150.4v60.7h-66.1v-60.7h66.1zM482.5 295.2v59.4h-66.1v-59.4h66.1zM326.2 223.1v60.1h-66.1v-60.1h66.1zM404.3 223.1v60.1h-66.1v-60.1h66.1zM681.1 323.1l13.3 8.9c-1.9 3.9-7 14.6-8.5 17.1-23.7 45.3-69.9 45.6-91.3 45.2-54.5 131.7-171 204.2-328.4 204.2-72.7 0-128.3-22.3-165.4-66.2-38.2-45.3-52.7-111.3-44-162.1h434.7c22.6 0.4 39.7-6 48.4-10.7-19.7-30.2-14.7-76 3.7-103.8l9.3-14 14 9.3c24.4 18.8 37.8 39.7 41.1 63.7 25.5-4.8 58.7-1.3 73.1 8.4zM170 295.2h0.1v59.4h-66.1v-59.4h66zM248.1 295.2v59.4h-66.1v-59.4h66.1zM326.2 295.2v59.4h-66.1v-59.4h66.1zM248.1 223.1v60.1h-66.1v-60.1h66.1z" /></svg>