<svg xmlns="http://www.w3.org/2000/svg" width="100%" height="100%" viewBox="0 0 599.04 599.04"><path fill="currentColor" d="M339.1 97.7c-10.8-2.2-22.1-3.3-33.5-3.6v-18.2c78.1 2.2 146.1 44 184.6 106.6l-15.8 9.1c-6.1-9.7-12.7-18.8-20.2-27.1l-18 15.5c-26-29.6-61.4-50.7-101.9-58.4zM104.9 365.9c3.9 10.8 8.3 21.1 13.6 31.1l-15.8 9.1c-17.1-31.6-27.1-68.1-27.1-106.6s9.9-75 27.1-106.5l15.8 9.1c-5.3 9.7-10 20.2-13.6 31l22.7 7.7c-6.4 18.3-9.7 38.2-9.7 58.7s3.6 40.4 10 58.7zM264.6 477.5l-4.7 23.8c10.8 1.9 22.2 3.3 33.5 3.6v18.3c-78.1-2.3-146.4-44.3-184.9-106.6l16-9.4c5.8 9.7 12.7 18.8 20.2 27.4l18-15.8c26.1 29.6 61.5 50.7 101.9 58.7zM144.8 164.4c-7.5 8.3-14.1 17.5-20.1 27.2l-15.8-9.1c38.5-62.6 106.5-104.4 184.6-106.6v18.2c-11.4 0.3-22.7 1.4-33.5 3.6l4.7 23.8c-40.5 7.7-75.9 28.8-101.9 58.4zM454.2 434.6c7.5-8.6 14.4-17.7 20.1-27.4l16.1 9.4c-38.5 62.3-106.8 104.4-184.9 106.6v-18.3c11.4-0.3 22.7-1.7 33.5-3.6l-4.7-23.8c40.5-8 75.9-29.1 101.9-58.7zM547.5 299.5c0 137-111 248-248 248s-248-111-248-248 111-248 248-248 248 111 248 248zM535.3 299.5c0-130.1-105.7-235.8-235.8-235.8s-235.8 105.7-235.8 235.8 105.7 235.8 235.8 235.8 235.8-105.7 235.8-235.8zM496.3 192.9c17.2 31.6 27.1 68.1 27.1 106.6s-9.9 75-27.1 106.4l-15.8-9.1c5.3-10 9.7-20.2 13.6-31l-23-7.7c6.4-18.3 10-38.2 10-58.7s-3.3-40.4-9.7-58.7l22.7-7.7c-3.6-10.8-8.3-21.3-13.6-31zM313.3 370.6l13.3 66.7c-8.6 1.7-17.7 2.8-27.1 2.8s-18.5-1.1-27.1-2.8l13.3-66.7c-16.3-3.3-30.5-11.6-40.7-23.5l-51.2 44.8c-11.9-13.6-21.3-29.4-27.1-46.8l64.2-22.1c-2.5-7.4-3.9-15.2-3.9-23.5s1.4-16 3.9-23.5l-64.5-22.1c6.1-17.5 15.5-33.2 27.4-46.8l51.2 44.8c10.3-11.9 24.4-20.5 40.7-23.8l-13.3-66.4c8.6-2 17.7-2.8 27.1-2.8s18.5 0.9 27.1 2.8l-13.3 66.4c16.3 3.3 30.5 11.9 40.7 23.8l51.2-44.8c11.9 13.6 21.3 29.4 27.4 46.8l-64.5 22.1c2.5 7.4 3.9 15.2 3.9 23.5s-1.4 16-3.9 23.5l64.2 22.1c-5.8 17.5-15.2 33.2-27.1 46.8l-51.2-44.8c-10.3 11.9-24.4 20.2-40.7 23.5z" /></svg>