<svg xmlns="http://www.w3.org/2000/svg" width="100%" height="100%" viewBox="0 0 599.04 599.04"><path fill="currentColor" d="M384.5 214.2h-85.4v256c0 47.1-38.3 85.3-85.3 85.3-47.1 0-85.3-38.2-85.4-85.3 0-47.1 38.2-85.4 85.4-85.4h0c-47.1 0-85.3-38.2-85.3-85.3 0-47.1 38.2-85.4 85.3-85.4-47.1 0-85.3-38.2-85.3-85.3s38.2-85.3 85.3-85.3h170.7c47.1 0 85.3 38.2 85.4 85.4 0 47.1-38.2 85.4-85.4 85.3zM384.5 214.2c47.1 0 85.3 38.2 85.3 85.3 0 47.1-38.2 85.3-85.3 85.3s-85.3-38.2-85.3-85.3 38.2-85.3 85.3-85.3z" /></svg>