<svg xmlns="http://www.w3.org/2000/svg" width="100%" height="100%" viewBox="0 0 599.04 599.04"><path fill="currentColor" d="M259.8 201.9l0.1 34.6-37.5 2.8c7.3 9.4 15 22.4 15 41.1 0 77.9-91.4 75.5-118.7 67.9l-13.4 21.5c106.5 6.5 151.6 4.3 151.6 63 0 46.8-41 73.2-111.7 73.2-73.6 0-101.6-18.7-101.7-50.8 0-18.3 8.1-28 22.4-41.5-13.4-5.7-17.9-15.8-17.9-26.8 0-15.4 11.9-26.2 37-49.2-20-9.8-35-30.9-35-61 0-82.5 90.5-85.3 130.5-74.8h79.3zM196.4 443.8c0-15.7-16.6-13.8-94.3-19.1-5.3 6.5-10.6 13.4-10.6 21.5 0 29.7 104.9 29.6 104.9-2.4zM145.6 309.2c52 0 50.7-71.2 1.2-71.1-51.7 0-54 71.2-1.2 71.1zM278.9 409.7v-32.1c26.8-3.7 27.2-2 27.2-11v-119.5c0-8.5-2-7.4-27.2-16.2l4.4-33h84.2v168.8c0 6.5 0.4 7.3 6.5 8.1l20.8 2.8v32.1h-115.9zM331.3 165.4c-23.2 0-36.6-13.4-36.6-36.6 0-23.2 13.4-35.8 36.6-35.7 23.6 0 37 12.6 37 35.7 0 23.2-13.4 36.6-37 36.6zM555.5 394c-17.5 8.5-43.1 16.3-66.3 16.2-48.4 0-66.7-19.5-66.6-65.4v-106.5c0-5.4 1-4.1-31.7-4.1v-36.2c35.8-4.1 50-22 54.4-66.2h38.7c0 65.8-1.3 61.8 3.2 61.8h57.3v40.6h-60.5v97.2c0 6.9-4.9 51.4 60.5 26.8z" /></svg>