<svg xmlns="http://www.w3.org/2000/svg" width="100%" height="100%" viewBox="0 0 599.04 599.04"><path fill="currentColor" d="M303.9 298.4c0.2 0.3 0.3 0.7 0.3 1.1 0 0.4-0.1 0.8-0.3 1.1l-127.4 221.8c-0.4 0.7-1.1 1.1-1.9 1.1-0.8 0-1.5-0.4-2-1.1l-128.8-221.8c-0.2-0.3-0.3-0.7-0.3-1.1s0.1-0.8 0.3-1.1l127.4-221.8c0.4-0.7 1.1-1.1 1.9-1.1 0.8 0 1.5 0.4 2 1.1zM343 272.7l-110.7-193.8c-0.2-0.3-0.3-0.7-0.3-1.2 0-1.2 1-2.2 2.2-2.2h66.5c0.8 0 1.5 0.4 1.9 1.1l110.7 193.9c0.2 0.3 0.3 0.7 0.3 1.1 0 1.2-1 2.2-2.2 2.2h-66.5c-0.8 0-1.5-0.4-1.9-1.1zM555.2 298.4c0.2 0.3 0.3 0.7 0.3 1.1 0 0.4-0.1 0.8-0.3 1.1l-126.8 221.8c-0.4 0.7-1.1 1.1-1.9 1.1h-66.6c-1.2 0-2.2-1-2.2-2.2 0-0.4 0.1-0.8 0.3-1.1l126.2-220.7-126.2-220.6c-0.2-0.3-0.3-0.7-0.3-1.2 0-1.2 1-2.2 2.2-2.2h66.6c0.8 0 1.5 0.4 1.9 1.1zM409.5 328.4c1.2 0 2.2 1 2.2 2.3 0 0.4-0.1 0.8-0.3 1.1l-108.8 190.6c-0.4 0.7-1.1 1.1-1.9 1.1h-66.5c-1.2 0-2.2-1-2.2-2.2 0-0.4 0.1-0.8 0.3-1.1l108.8-190.7c0.4-0.7 1.1-1.1 1.9-1.1h66.5z" /></svg>