<svg xmlns="http://www.w3.org/2000/svg" width="100%" height="100%" viewBox="0 0 512 512"><path fill="currentColor" d="M71.9 34.8c19.2-1.7 114.3-2.8 184.1-2.8s116.6 0.4 184 2.7c21.7 12.9 64.5 62.1 64.9 75v21.4c0 27.1-25.3 50.8-48.2 50.8-27.5 0-50.5-22.9-50.6-50 0 27.1-22.2 50-49.7 50s-49-22.9-49-50c0 27.1-23.6 50-51.2 50h-0.5c-27.6 0-51.2-22.9-51.2-50 0 27.1-21.4 50-49 50s-49.8-22.9-49.7-50c0 27.1-23 50-50.6 50-23 0-48.3-23.8-48.2-50.8v-21.4c0.4-12.9 43.2-62.1 64.9-74.9zM204.2 169.2c9.9 17.3 28.6 29 50 28.9 0.6 0 1.2 0 1.8 0 28.7 0 44.7-16.5 51.8-28.9 22 38.3 77.8 38.8 99.8 0.2 13.1 23.1 43.1 32.1 56 27.7 3.6 37.1 13.9 236.9-17.7 269.1-77.7 18.1-299.8 18.7-379.8 0-31.4-32-21.6-229-17.7-269.1 12.8 4.4 42.8-4.5 56-27.7 22 38.5 77.9 38.1 99.8-0.2zM162.7 222.9l-0.1 0.1c-52.3 0-65.2 77.5-83.8 144.5-17.3 62.1 5.5 63.7 33.9 63.7 42.1-1.6 65.5-32.2 65.5-62.8 53.6 8.8 116.3 6.4 155.5 0 0 30.6 23.3 61.2 65.5 62.8 28.4-0.1 51.2-1.6 34-63.7-18.6-66.9-31.5-144.4-83.9-144.5-16.5 0-31.1 0-49.2 19.7-14.6-1.5-28.6-2.2-43.7-2.2-15 0-29.9 0.8-44.5 2.2-18.1-19.8-32.8-19.8-49.2-19.8zM256 270.8l-0.1 0s44.3 40.8 52.4 55.2l-29-1.1v25.3c0 1.2-11.7 0.7-23.3 0.1-2 0-23.3 1.4-23.3-0.1v-25.4l-29 1.2c8-14.4 52.3-55.2 52.3-55.2z" /></svg>