<svg xmlns="http://www.w3.org/2000/svg" width="100%" height="100%" viewBox="0 0 599.04 599.04"><path fill="currentColor" d="M467.5 75.5c30.9 0 56 25.1 56 56v336c0 30.9-25.1 56-56 56h-336c-30.9 0-56-25.1-56-56v-336c0-30.9 25.1-56 56-56h336zM359.2 157.6v199.5c0 19.8 29.9 19.8 29.9 0v-199.5c0-19.8-29.9-19.8-29.9 0zM284.6 150.1v216.5c0 19.8 29.9 19.8 29.9 0v-216.5c0-19.8-29.9-19.8-29.9 0zM209.9 157.6v199.5c0 19.8 29.9 19.8 29.9 0v-199.5c0-19.8-29.9-19.8-29.9 0zM135.2 187.5v134.3c0 19.8 29.9 19.8 29.9 0v-134.3c0-19.8-29.9-19.8-29.9 0zM458.6 415.3c14.9-12.9-4.5-35.6-19.4-22.7-63.2 53.9-213.4 55.3-279.3 0-15-12.8-34.4 9.9-19.4 22.7 76.4 65.4 245.3 63 318.1 0zM463.8 321.8v-134.3c0-19.8-29.9-19.8-29.9 0v134.3c0 19.8 29.9 19.8 29.9 0z" /></svg>