<svg xmlns="http://www.w3.org/2000/svg" width="100%" height="100%" viewBox="0 0 599.04 599.04"><path fill="currentColor" d="M338.3 231.7c58.1 0 84.7 35.3 84.6 76.9 0 25.6-15.5 76.9-83.1 76.9h-47.4v-153.8h45.9zM299.5 51.5c137 0 248 111 248 248s-111 248-248 248-248-111-248-248 111-248 248-248zM218.7 412.3v-207.5h-29.8v207.5h29.8zM203.8 181.1c10.8 0 19.5-8.8 19.6-19.5 0-10.8-8.8-19.6-19.6-19.6s-19.6 8.8-19.6 19.6 8.8 19.6 19.6 19.5zM343.5 412.5c68.4 0 110-50.6 110.1-103.9 0-49-33.7-103.9-110.5-103.8h-80.6v207.7h81z" /></svg>