<svg xmlns="http://www.w3.org/2000/svg" width="100%" height="100%" viewBox="0 0 599.04 599.04"><path fill="currentColor" d="M521.7 313.9c6.2 19-3.9 39.7-22.9 45.7l-45.4 15.1 15.7 47c6.1 19.1-3.9 39.7-23 45.9-21.3 6.1-40.1-6-46-22.9l-15.7-47-93.6 31.3 15.7 47c6.1 19.1-3.9 39.7-23 45.9-21.3 6.1-40.1-6-46-22.9l-15.7-47c-45.7 15.2-50.9 17.8-57.7 16.8-14.5-0.6-28.6-10.1-33.6-24.6-6.1-19 4-39.7 23-45.9l45.4-15.1-30.3-90c-45.7 15.2-50.9 17.8-57.7 16.8-14.5-0.6-28.6-10.1-33.6-24.6-6.1-19.1 3.9-39.7 23-45.9l45.3-15-15.7-47c-6.1-19.1 3.9-39.7 23-45.9 19.1-6.2 39.8 3.9 46 22.9l15.7 47 93.4-31.2-15.7-47c-6.1-19.1 3.9-39.7 23-45.9 19.1-6.2 39.8 3.9 46 22.9l15.7 47 45.4-15.1c19.1-6.2 39.8 3.9 46 22.9 6.1 19.1-3.9 39.7-23 45.9l-45.4 15.1 30.3 90 45.4-15.1c19.1-6.2 39.8 3.9 46 22.9zM267.6 361.1l93.5-31.3-30.3-90.2-93.5 31.3z" /></svg>