<svg xmlns="http://www.w3.org/2000/svg" width="100%" height="100%" viewBox="0 0 599.04 599.04"><path fill="currentColor" d="M175.5 453.8l4.4-9.9 30.6 13.4-4.4 9.9zM214.9 471.3l4.4-9.9 30.6 13.4-4.4 9.9zM387 457.3l30.6-13.4 4.4 9.9-30.6 13.4zM254.6 488.5l4.4-9.6 30.3 13.4-4.4 9.9zM135.9 436.3l4.4-9.9 30.6 13.7-4.4 9.6zM347.3 474.8l30.6-13.4 4.4 9.9-30.6 13.4zM308 492.3l30.6-13.4 4.4 9.6-30.6 13.7zM426.4 440.1l30.6-13.7 4.4 9.9-30.6 13.4zM245.5 90.1v10.5h-33.5v-10.5h33.5zM198.3 90.1l-0.1 10.5h-33.5v-10.5h33.6zM151 90.1l0.1 10.5h-33.3v-10.5h33.2zM292.5 90.1v10.5h-33.2v-10.5h33.2zM387 90.1v10.5h-33.5v-10.5h33.5zM434.3 90.1v10.5h-33.5v-10.5h33.5zM339.7 90.1v10.5h-33.2v-10.5h33.2zM481.2 90.1v10.5h-33.3v-10.5h33.3zM128.3 394.6v33.5h-10.8v-33.5h10.8zM198.3 178.7l-0.1 10.5h-33.5v-10.5h33.6zM128.3 189.3v23h-10.8v-33.5h33.6v10.5h-22.8zM297.2 417.9c-50.2 0-91.3-40.8-91.3-91.3 0-50.2 41.1-91.3 91.3-91.3 50.5 0 91.3 41.1 91.3 91.3 0 50.5-40.8 91.3-91.3 91.3zM249 306.8c0 44.3 77.6 11.9 77.6 38 0 13.1-24 14.3-32.7 14.3-12.3 0-29.8-2.7-35.9-14.9h-0.9l-9 18.4c14.8 9.3 29.1 12.2 47.2 12.2 19.5 0 51-5.8 51-31.2 0-48.1-78.5-16.3-78.5-37.9 0-13.1 20.8-14.9 29.8-14.9 10.8 0 29.2 3.2 35.6 13.1h0.9l8.8-16.9c-15.1-6.2-27.4-12-44.3-12-20.1 0-49.6 6.4-49.6 31.8zM128.3 221.9v33.6h-10.8v-33.6h10.8zM470.7 428.1v-33.5h10.8v33.5h-10.8zM128.3 351.4v33.5h-10.8v-33.5h10.8zM75.5 47.2h448v406l-226.3 98.6-221.7-98.6v-406zM494.3 434.3h0.1v-270.1h-389.7v270.1l192.8 85.7zM494.3 135h0.1v-58.6h-389.7v58.6h389.6zM128.3 265.1v33.5h-10.8v-33.5h10.8zM128.3 308.3v33.5h-10.8v-33.5h10.8zM245.5 178.7v10.5h-33.5v-10.5h33.5zM470.7 341.8v-33.5h10.8v33.5h-10.8zM470.7 298.6v-33.5h10.8v33.5h-10.8zM292.5 178.7v10.5h-33.2v-10.5h33.2zM470.7 255.5v-33.5h10.8v33.5h-10.8zM470.7 385v-33.5h10.8v33.5h-10.8zM339.7 178.7v10.5h-33.2v-10.5h33.2zM387 178.7v10.5h-33.5v-10.5h33.5zM470.7 212.3l0.1-23h-22.8v-10.5h33.5v33.5h-10.8zM434.3 178.7v10.5h-33.5v-10.5h33.5z" /></svg>