<svg xmlns="http://www.w3.org/2000/svg" width="100%" height="100%" viewBox="0 0 599.04 599.04"><path fill="currentColor" d="M150.4 283.8l99.6 48.6c19.2 9.4 16.2 37.5-4.5 42.8l-107.5 26.8c-1.8 0.4-3.6 0.7-5.5 0.7-11.7 0-21.4-8.9-22.7-20.3-0.9-7.4-1.3-15-1.3-22.7 0-22 3.7-42.9 10.3-62.7 3-9 11.6-15.5 21.6-15.5 3.6 0 7 0.8 10 2.3zM194.4 523.1c-6-4.1-9.9-11-9.9-18.9 0-5.9 2.2-11.2 5.8-15.2l74.3-82.4c14.3-15.8 40.5-5.2 39.8 16.1l-3.9 110.8c-0.4 12.2-10.4 22-22.8 22-1.3 0-2.6-0.1-3.9-0.3-28.9-4.9-56.1-16.2-79.4-32.1zM339.8 413.2c-11.3-18.1 6.2-40.4 26.5-33.9l105.4 34.2c9.1 3 15.7 11.7 15.7 21.9 0 3.5-0.8 6.7-2.1 9.7-12.5 26.3-30.5 49.2-52.7 67.6-4 3.3-9 5.3-14.6 5.2-8.2 0-15.4-4.3-19.4-10.7zM488.1 280.9c1.2 2.8 1.9 5.9 1.9 9.2 0 10.4-7 19.3-16.5 22l-106.6 30.6c-20.5 5.9-37.1-17-25.2-34.8l62-91.9c4.1-6.1 11.1-10.1 18.9-10 5.8 0 11 2.1 15.1 5.6 21.6 19 38.8 42.6 50.4 69.3zM169.6 73.7c34.3-16.3 72.6-26.9 112.4-30.1 0.6 0 1.2-0.1 1.8-0.1 12.5 0 22.7 10.2 22.7 22.7 0 0.1 0 0.1 0 0.2v208.3c0 23.3-30.9 31.6-42.6 11.4l-104.2-180.4c-1.9-3.4-3.1-7.2-3-11.4 0-9.1 5.3-16.9 12.9-20.6z" /></svg>