<svg xmlns="http://www.w3.org/2000/svg" width="100%" height="100%" viewBox="0 0 588.8 588.8"><path d="M293.49 57.25999999999998c-130.132 0-235.623 105.494-235.623 235.626 0 84.973 44.984 159.43 112.43 200.88 14.953-22.123 13.717-21.136 48.6-77.26 21.414-38.628 20.04-74.27-22.66-88.32-13.658-0.257-27.487 0.71-41.448 2.927-22.745 5.586-50.66-6.618-51.222-36.61-0.024-1.276 0.017-2.514 0.092-3.73-21.47-22.6-32.702-54.923 12.898-92.437-6.554 20.953 3.874 42.603 17.756 57.77 15.2-3.285 32.288 1.147 41.88 13.657 15.223 13.387 35.603 23.558 57.18 29.81 10.085-0.365 13.446-4.833 12.272-12.07-17.327-20.6-35.87-40.278-60.72-57.124l0.044-0.02c-9.16-6.218-15.632-16.466-15.898-30.747-0.132-7.072 1.296-13.21 3.85-18.404-14.227-31.065-10.31-69.364 50.074-82.162-12.275 19.684-18.508 42.767-13.102 61.122 19.572 0.108 38.916 12.51 39.39 37.94 0.045 2.343-0.08 4.58-0.35 6.714 0.955 20.638 6.118 44.463 19.796 63.658 15.14 9.386 26.987 3.992 29.195-19.287-2.648-14.616-8.253-29.283-15.043-40.856-4.338-5.84-7.065-13.325-7.236-22.473-0.346-18.527 9.996-30.658 23.357-36.117 8.393-26.624 25.813-51.97 62.09-51.82 9.562 0.04 20.432 1.85 32.79 5.876-24.775 6.92-40.92 31.886-47.98 54.547 5.902 6.206 9.753 14.85 9.962 26.01 0.213 11.37-3.444 20.278-9.3 26.73-27.204 48.83-18.264 110.228-3.57 123.715 13.62 12.504 33.32 13.96 52.594 11.05 18.115-4.19 39.13 2.665 46.962 21.167 19.762-3.8 37.956-19.148 44-44.406 22.82 62.056-13.624 84.83-50.19 86.776-13.702 15.047-39.383 16.668-55.782 4.897l-0.016 0.062c-0.13-0.12-0.256-0.23-0.387-0.348-1.862-1.374-3.594-2.93-5.175-4.656-16.557-14.848-31.98-27.53-47.752-38.182-28.103-0.547-64.258 100.626-62.58 155.586 9.446 1.152 19.062 1.757 28.82 1.757 130.132 0 235.625-105.492 235.625-235.624S423.62199999999996 57.25999999999998 293.49 57.25999999999998z" /></svg>