<svg xmlns="http://www.w3.org/2000/svg" width="100%" height="100%" viewBox="0 0 588.8 588.8"><path d="M150.39999999999998 79.39999999999998c-21.65 0-39 17.35-39 39 0 21.6 17.35 39 39 39 21.6 0 39-17.4 39-39 0-21.65-17.4-39-39-39z m288 0c-21.6 0-39 17.35-39 39 0 21.6 17.4 39 39 39s39-17.4 39-39c0-21.65-17.4-39-39-39zM150.39999999999998 93.39999999999998c13.7 0 25 11.3 25 25s-11.3 25-25 25-25-11.3-25-25 11.3-25 25-25z m288 0c13.7 0 25 11.3 25 25s-11.3 25-25 25-25-11.3-25-25 11.3-25 25-25zM121.77999999999997 167.59999999999997L119.26999999999998 189.39999999999998h45.83l1.9-16.5c-5.2 1.6-10.8 2.5-16.6 2.5-10.4 0-20.2-2.8-28.62-7.8z m345.22 0.1c-8.4 4.9-18.2 7.7-28.6 7.7-5.8 0-11.4-0.9-16.7-2.5l1.9 16.5h45.9l-2.5-21.7zM79.39999999999998 207.39999999999998v57.3L117.57999999999998 207.39999999999998H79.39999999999998z m59.8 0l-51.98 78h42.36l52.02-78h-42.4z m64 0l-52 78h42.4l52-78h-42.4z m64 0l-52 78h42.4l52-78h-42.4z m64 0l-52 78h42.4l52-78h-42.4z m64 0l-52 78h42.4l52-78h-42.4z m64 0l-52 78h42.4l52-78h-42.4z m50.2 20.8L471.2 285.4H509.4v-57.2zM106.10999999999997 303.4l-7.15 62h45.84l7.2-62H106.10999999999997z m330.69 0l7.1 62h45.9l-7.1-62h-45.9zM79.39999999999998 383.4v16h430v-16H79.39999999999998z m13.56 34L80.49999999999997 525.4h45.88l12.42-108H92.95999999999998z m356.94 0L462.4 525.4h45.9l-12.5-108h-45.9z" /></svg>