<svg xmlns="http://www.w3.org/2000/svg" width="100%" height="100%" viewBox="0 0 588.8 588.8"><path d="M294.15999999999997 83.16399999999999c-6.176 0-12.353 1.384-17.137 4.152L124.26999999999998 175.676c-9.57 5.536-9.57 14.29 0 19.826l152.753 88.36c9.57 5.536 24.703 5.536 34.272 0l152.753-88.36c9.57-5.535 9.57-14.29 0-19.825l-152.753-88.36c-4.785-2.77-10.96-4.153-17.135-4.153z m1.86 12.423a31.953 18.96 0 0 1 21.194 5.536 31.953 18.96 0 0 1-45.187 26.812 31.953 18.96 0 0 1 23.992-32.347z m-119.173 70.188a31.953 18.96 0 0 1 0.002 0 31.953 18.96 0 0 1 21.195 5.535 31.953 18.96 0 0 1-45.19 26.813 31.953 18.96 0 0 1 23.992-32.348z m118.24 0.244a31.953 18.96 0 0 1 22.125 32.362 31.953 18.96 0 1 1-45.187-26.812 31.953 18.96 0 0 1 23.06-5.55z m119.663 0.015a31.953 18.96 0 0 1 0.002 0 31.953 18.96 0 0 1 21.195 5.535 31.953 18.96 0 0 1-45.19 26.812 31.953 18.96 0 0 1 23.993-32.347zM114.06999999999998 212.23999999999998c-5.753-0.155-9.664 4.336-9.664 12.28v157.696c0 11.052 7.57 24.163 17.14 29.69l146.93 84.848c9.57 5.526 17.14 1.156 17.14-9.895V329.15999999999997c0-11.052-7.57-24.16-17.14-29.688l-146.93-84.847c-2.69-1.555-5.225-2.327-7.476-2.387z m360.773 0.002c-2.25 0.06-4.783 0.83-7.474 2.385l-146.935 84.847c-9.57 5.527-17.14 18.638-17.14 29.69v157.7c0 11.05 7.57 15.418 17.14 9.89L467.37 411.90999999999997c9.57-5.527 17.137-18.636 17.137-29.688v-157.7c0-7.942-3.91-12.432-9.664-12.278zM127.69699999999997 234.17a31.235999999999997 18.008 58.094 0 1 33.818 41.183 31.235999999999997 18.008 58.094 1 1-45-25.98 31.235999999999997 18.008 58.094 0 1 11.182-15.203z m333.52 0A18.008 31.235999999999997 31.906 0 1 472.4 249.373a18.008 31.235999999999997 31.906 0 1-45 25.98 18.008 31.235999999999997 31.906 0 1 33.818-41.183z m-165.198 2.314a31.953 18.96 0 0 1 21.194 5.535 31.953 18.96 0 0 1-45.187 26.812 31.953 18.96 0 0 1 23.992-32.348z m109.198 30.018A18.008 31.235999999999997 31.906 0 1 416.4 281.705a18.008 31.235999999999997 31.906 0 1-45 25.98 18.008 31.235999999999997 31.906 0 1 33.818-41.183z m-165.52 32.332a31.235999999999997 18.008 58.094 0 1 33.817 41.183 31.235999999999997 18.008 58.094 1 1-45-25.98 31.235999999999997 18.008 58.094 0 1 11.182-15.203z m109.52 0A18.008 31.235999999999997 31.906 0 1 360.4 314.037a18.008 31.235999999999997 31.906 0 1-45 25.98 18.008 31.235999999999997 31.906 0 1 33.818-41.183zM127.69799999999998 356.88a31.235999999999997 18.008 58.094 0 1 33.817 41.184 31.235999999999997 18.008 58.094 1 1-45-25.98 31.235999999999997 18.008 58.094 0 1 11.182-15.204z m333.52 0A18.008 31.235999999999997 31.906 0 1 472.4 372.084a18.008 31.235999999999997 31.906 0 1-45 25.98 18.008 31.235999999999997 31.906 0 1 33.818-41.184z m-56 32.332A18.008 31.235999999999997 31.906 0 1 416.4 404.417a18.008 31.235999999999997 31.906 0 1-45 25.98 18.008 31.235999999999997 31.906 0 1 33.818-41.183z m-165.52 32.33a31.235999999999997 18.008 58.094 0 1 33.817 41.184 31.235999999999997 18.008 58.094 1 1-45-25.98 31.235999999999997 18.008 58.094 0 1 11.182-15.203z m109.52 0A18.008 31.235999999999997 31.906 0 1 360.4 436.74699999999996a18.008 31.235999999999997 31.906 0 1-45 25.98 18.008 31.235999999999997 31.906 0 1 33.818-41.183z" /></svg>