<svg xmlns="http://www.w3.org/2000/svg" width="100%" height="100%" viewBox="0 0 588.8 588.8"><path d="M101.99999999999997 71.39999999999998c-17.23 0-31 13.77-31 31s13.77 31 31 31 31-13.77 31-31-13.77-31-31-31z m171.7 6.74l-122.7 25.6c-0.4 14.13-6.9 26.86-16.83 35.56l42.83 114.5 11.5-20.8-41.2-110.1 115-24 9.4-17.15z m8.5 21.9L200.09999999999997 249.2l53.6 16.9 71.4-129.9zM86.99999999999997 148.99999999999997V517.4h30V148.99999999999997c-4.73 1.6-9.77 2.4-15 2.4s-10.27-0.8-15-2.4z m288 29.3l-59.2 107.4 62.3 19.6 46.8-85z m99.9 84.1l-34.4 62.5 53.5 16.9 23.8-43.2z" /></svg>