<svg xmlns="http://www.w3.org/2000/svg" width="100%" height="100%" viewBox="0 0 588.8 588.8"><path d="M197.49999999999997 64.01999999999998l-3.5 12.53 134.9 36.28 4.4-13.19zM354.79999999999995 92.99999999999997l-8.6 25.73c14.6 13.43 29.6 14.58 47.1 13.07l6-29.18c-12.6-6.91-27.8-9.25-44.5-9.62z m128 27.27l-29.6 8.09-4.7 17.24 23.8 23 52.1-11.7z m-68.5 0.58L411.4 134.96999999999997l19.6 5.33 3.8-14.07z m-174.6 7.46c-7.3 0.18-14.4 3.61-20.7 9.95-7 7.24-12.4 18.24-13.9 31.04s1.4 24.7 6.7 33.3c5.4 8.4 12.7 13.5 21.1 14.4 8.4 0.8 16.7-2.6 23.8-9.9 7-7.2 12.5-18.2 14-31.1 1.4-12.7-1.5-24.6-6.8-33.1-5.4-8.55-12.7-13.61-21-14.47-1-0.11-2.1-0.15-3.2-0.12z m113.3 16.39c-4.6 33.6-11.8 60.1-22 88.3l-27.5-3.6c-0.4 15-2.4 30-7.5 45.2 20.6-0.5 40.2-2.8 59.3-11.3 11.3-37.8 18.4-75.3 24.3-112.9-8.9-0.4-17.8-1.9-26.6-5.7z m-174.1 76.9c-8.7 0-15.5 0.7-26.6 4.1-26.62 16.2-45.72 40.2-53 57.9-8.4 20.9-11.67 47-11.26 70.5l25.64 3.2c3.41-24 4.92-41.7 10.83-60.8l47.29-34-2.9 45.9 7.5-2.3c18-9.1 30.5-20.7 41.3-34.1 9.4-11.6 17.3-24.5 25.7-37.5-4.1 0.8-8.2 1-12.5 0.6-10.5-1-19.6-5.9-26.9-13.1-10.9 0-18.7-0.4-25.1-0.4z m106.1 4.8l-13.7 0.2c-12.9 17-23.3 36.5-37.9 55 6.4 2.3 11.4 8.4 11.5 13.9-0.9 10.3-10.6 15-19 15.1-6.1-0.4-11-2-15-5.6-12.1 10-26.8 18.8-45.4 25.2 0.2 2.4 0.5 4.9 0.6 7.3 3.1-1 6.3-1.5 9.8-1.5 11.5 0.3 23.1 7.4 23.3 18.1-1.3 12.4-13.3 18-23.3 18.1-3.7 0-7.2-0.6-10.3-1.8-0.9 7.5-2.5 15.1-5.1 22.7l27 2.5 5.8 29.4 24.9-23 12.5 32.3c5.4-10.2 11-20.4 17.2-30.4-11.3-0.2-23.6-6.5-23.9-16.7 1.3-12.5 14.3-16.7 24-16.8 7.3 0.4 13.8 1.8 19 6.2 7.8-9.8 16.6-19.1 26.4-27.8-1.3-3.4-3-7-5.1-10.6-3 0.8-6.4 1.2-9.9 1.2-10.2-1.1-22.7-3.5-22.9-14.5 0.4-6.3 4.9-10.2 9.9-12.3 1.3-0.5 2.7-0.9 4.1-1.2-2.7-3.5-5.1-6.5-7.8-10.1l3.7-5.5c15.5-23.2 19.4-45.3 19.6-69.4z m4.2 152c-8 8.9-15 18.3-21.6 28.3 4.5 3.8 9.4 7.8 14.2 11.9 9.4 8 19.2 17 21.7 30.3l14.4 75.9 27.8-10.4c-3.6-28.8-5.3-48.9-12.7-81.3v-0.3l-0.1-0.3c-1.6-10-10.3-20.4-21.8-31.6-7.1-7-15.1-14.3-21.9-22.5zM164.39999999999998 411.79999999999995l-20 50.1c-24.75 5.4-51.43 1-72.64-3.4l-7.39 23.7c32.23 6.1 74.93 10.2 97.83 5.9l18.8-31.1-8.8-44.5z" /></svg>