<svg xmlns="http://www.w3.org/2000/svg" width="100%" height="100%" viewBox="0 0 588.8 588.8"><path d="M265.05199999999996 273.78099999999995l21.57-19.723c-21.518-19.505-39.248-5.543-42.497-0.644-10.142 15.208 9.633 9.177 20.927 20.367z m92.283 51.446c-3.208 4.817-20.418 18.384-41.47 0.25l19.64-21.53c11.065 12.509 32.21 5.71 21.83 21.28z m-29.21-87.57C484.724 81.13799999999998 524.4 63.04499999999997 524.4 63.04499999999997s-15.457 42.311-171.996 198.923zM73.20799999999997 478.984c10.868-7.484 10.733-3.654 23.408-15.01l0.26 0.26 28.961 28.961 0.26 0.26c-11.253 12.612-7.267 12.456-14.98 23.553a20.304 20.304 0 0 1-31.058 2.793l-9.717-9.717a20.315 20.315 0 0 1 2.866-31.1z m189.767-180.881l53.387-48.654 24.29 24.29-48.684 53.367z m-154.36 154.38l28.962 28.961 141.104-141.103-28.962-28.962zM225.20199999999997 346.89a11.969 11.969 0 1 1 0 16.931 11.969 11.969 0 0 1 0-16.93z" /></svg>