<svg xmlns="http://www.w3.org/2000/svg" width="100%" height="100%" viewBox="0 0 588.8 588.8"><path d="M477.488 88.66999999999999C334.13 88.37399999999997-1.5220000000000198 304.202 99.78999999999998 426.923c51.407 62.274 112.452 65.694 170.964 36.868l-29.897-31.613a9.5 9.5 0 0 1-2.414-8.38c7.617-38.315 39.88-59.08 76.672-62.917a9.5 9.5 0 0 1 0.834-0.048 9.5 9.5 0 0 1 8.548 5.054l22.29 42.125C440.654 316.59999999999997 510.197 163.28999999999996 490.73999999999995 89.38299999999998c-4.203-0.47-8.628-0.703-13.252-0.712z m-51.818 52.728a16.560000000000002 22.098 61.413 0 1 14.447 9.557 16.560000000000002 22.098 61.413 0 1-40.668 16.797 16.560000000000002 22.098 61.413 0 1 26.22-26.354z m-52.122 2.5a16.560000000000002 22.098 61.413 0 1 0.002 0 16.560000000000002 22.098 61.413 0 1 14.446 9.557 16.560000000000002 22.098 61.413 0 1-40.668 16.797 16.560000000000002 22.098 61.413 0 1 26.22-26.354z m41.54 44.1a16.560000000000002 22.098 61.413 0 1 14.45 9.556 16.560000000000002 22.098 61.413 0 1-40.67 16.797 16.560000000000002 22.098 61.413 0 1 26.22-26.352z m-53.75 3.33a16.560000000000002 22.098 61.413 0 1 14.45 9.556 16.560000000000002 22.098 61.413 0 1-40.67 16.797 16.560000000000002 22.098 61.413 0 1 26.22-26.352z m-117.8 70.36a25.767999999999997 29.552999999999997 70.787 0 1 26.876 24.175 25.767999999999997 29.552999999999997 70.787 0 1-58.33 4.057 25.767999999999997 29.552999999999997 70.787 0 1 30.242-28.202 25.767999999999997 29.552999999999997 70.787 0 1 1.21-0.03z m-60.05 39.82a25.767 29.553 46.863999999999976 0 1 21.766 13.92 25.768 29.553 46.86399999999997 1 1-51.676 27.363 25.767 29.553 46.863999999999976 0 1 29.91-41.283z m-21.39 66.933a25.767 29.553 0.9830000000000041 0 1 7.59 1.476 25.767 29.553 0.9830000000000041 0 1-16.33 56.144 25.767 29.553 0.9830000000000041 0 1 7.67-57.615 25.767 29.553 0.9830000000000041 0 1 1.07-0.004z m148.765 12.306c-26.483 4.247-45.74 17.43-52.508 42.28l67.082 70.933c2.007-6.71 5.41-12.678 10.46-17.36 5.598-5.19 13.037-7.99 21.358-8.18l-46.392-87.674z m47.49 106.2c-4.262-0.128-7.16 1.382-9.54 3.59-3.108 2.88-5.637 8.42-6.382 15.753 6.18-0.332 10.884-1.732 14.124-4.09 3.598-2.617 6.407-6.84 8.022-14.13-2.36-0.713-4.418-1.07-6.223-1.125z" /></svg>