<svg xmlns="http://www.w3.org/2000/svg" width="100%" height="100%" viewBox="0 0 588.8 588.8"><path d="M301.464 60.053999999999974c-61.945 0-108.823 19.19-147.69 50.873h-0.11l0.013 0.08C134.59999999999997 126.57399999999998 117.44399999999997 145.13299999999998 101.40199999999999 165.94c13.466-7.973 28.174-14.91 43.81-20.82-32.252 37.934-51.837 87.843-51.837 142.4 0 64.49 27.35 122.493 70.656 161.89-22.716-7.12-43.878-16.202-62.628-27.307 48.742 63.224 107.65 105.89 200.062 105.89 90.676 0 154.59-42.808 201.206-105.89-21.023 12.138-45.283 21.964-71.5 29.434 44.684-39.42 73.048-98.352 73.048-164.016 0-55.86-20.528-106.848-54.164-145.1 19.013 6.514 36.74 14.356 52.616 23.52-15.24-20.623-32.332-39.077-51.6-54.58l0.074-0.43h-0.61c-39.575-31.657-88.313-50.876-149.07-50.876z m1.36 59.024c4.486 0.02 8.973 0.103 13.453 0.24l23.566 77.29L362.34 122.80999999999997c7.248 0.882 14.437 1.916 21.546 3.108l32.325 185.517 26.034-149.414c27.012 33.946 43.283 77.666 43.283 125.5 0 64.49-29.564 121.507-75.166 157.163l-24.1-140.217-27.714 161.22c-4.556 0.518-9.134 0.978-13.728 1.374l-16.22-62.443-16.678 64.217c-6.068 0.135-12.142 0.165-18.213 0.087l-16.703-64.303-16.317 62.824c-5.24-0.406-10.458-0.9-15.652-1.47l-27.762-161.504-24.78 144.17c-48.574-35.306-80.43-94.18-80.43-161.115 0-51.262 18.688-97.8 49.257-132.643l27.277 156.558L221.02499999999998 125.31999999999998c7.287-1.18 14.655-2.185 22.074-3.03l22.66 74.317 23.6-77.418c4.487-0.096 8.975-0.134 13.464-0.112z" /></svg>