<svg xmlns="http://www.w3.org/2000/svg" width="100%" height="100%" viewBox="0 0 588.8 588.8"><path d="M294.4 62.39999999999998c-10.1 0-19.2 1.92-26.7 5.64C260.29999999999995 71.74999999999997 253.39999999999998 78.11999999999998 253.39999999999998 87.39999999999998s6.9 15.65 14.3 19.36c5.2 2.58 11.2 4.27 17.7 5.08v11.28h18V111.83999999999997c6.5-0.81 12.5-2.5 17.7-5.08C328.5 103.04999999999998 335.4 96.67999999999998 335.4 87.39999999999998s-6.9-15.65-14.3-19.36C313.59999999999997 64.31999999999998 304.5 62.39999999999998 294.4 62.39999999999998z m0 18c7.6 0 14.4 1.66 18.6 3.74 3.3 1.63 4.1 2.97 4.3 3.26 0.1-0.1 0.1-0.1 0.1 0s0 0.1-0.1 0c-0.2 0.29-1 1.63-4.3 3.26-4.2 2.08-11 3.74-18.6 3.74-7.6 0-14.4-1.66-18.6-3.74-3.3-1.63-4.1-2.97-4.3-3.26-0.1 0.1-0.1 0.1-0.1 0s0-0.1 0.1 0c0.2-0.29 1-1.63 4.3-3.26 4.2-2.08 11-3.74 18.6-3.74z m-40.9 60.7L241.79999999999998 190.39999999999998h105.2l-11.7-49.3z m-18.9 1.7c-6.7 0.3-13.2 0.8-19.5 1.7-14.9 2.1-28.9 6.4-39.1 16.5-3.1 3.2-3.9 5.8-5.2 9.3-1.3 3.5-2.5 7.7-3.8 12.6-2.4 9.8-4.9 22.6-7.5 37.5-5 29.8-10 67.9-14.1 106.1-4 38.1-7 76.2-7.99 106.1-0.51 14.9-0.53 27.7 0.13 37.7 0.33 5 0.82 9.2 1.56 12.9 0.8 3.7 1.3 6.9 4.9 10.6 7.1 7 15.4 11 24 13.3l6.8-16.9c-6.9-1.5-12.5-4-17.3-8.5-0.1-0.4-0.5-1.1-0.8-2.2-0.4-2.3-0.9-5.9-1.2-10.4-0.6-8.9-0.6-21.3-0.1-35.9 1-29.1 4-67 8-104.9 3.9-37.8 8.9-75.7 13.9-104.9 2.4-14.6 4.9-27.1 7.2-36.1 1.1-4.5 2.2-8.2 3.2-10.7 0.6-1.8 1.4-3 1.5-3.1 5.9-5.7 15.7-9.4 28.5-11.2 3.9-0.6 8.2-1 12.5-1.2z m119.6 0l4.3 18.3c4.4 0.2 8.6 0.6 12.6 1.2 12.8 1.8 22.6 5.5 28.5 11.2 0.1 0.1 0.9 1.3 1.5 3.1 1 2.5 2.1 6.2 3.2 10.7 2.3 9 4.8 21.5 7.2 36.1 5 29.2 10 67.1 13.9 104.9 4 37.9 7 75.8 8 104.9 0.5 14.6 0.5 27-0.1 35.9-0.3 4.5-0.8 8.1-1.2 10.4-0.3 1.1-0.7 1.8-0.8 2.2-4.8 4.5-10.4 7-17.3 8.5l6.8 16.9c8.6-2.3 16.9-6.3 24-13.3 3.6-3.7 4.1-6.9 4.9-10.6 0.7-3.7 1.2-7.9 1.6-12.9 0.6-10 0.6-22.8 0.1-37.7-1-29.9-4-68-8-106.1-4.1-38.2-9.1-76.3-14.1-106.1-2.6-14.9-5.1-27.7-7.5-37.5-1.3-4.9-2.5-9.1-3.8-12.6-1.3-3.5-2.1-6.1-5.2-9.3-10.2-10.1-24.2-14.4-39.1-16.5-6.3-0.9-12.9-1.4-19.5-1.7zM251.59999999999997 208.39999999999998c-2.9 4.9-11.6 19.8-21.6 41.1 21.9 10.3 43.8 25.6 64.4 42.7 20.7-17.1 42.5-32.4 64.4-42.7-10-21.3-18.7-36.2-21.6-41.1z m-28.8 57.7c-10 24.5-17.6 51.3-15.5 68.2 1 7.7 7.3 19.6 15.1 31 15.6-19.6 35.7-41.2 58.1-61.2-18.9-15.4-38.9-28.9-57.7-38z m143.2 0c-18.8 9.2-38.8 22.6-57.7 38 22.4 20.1 42.5 41.7 58.1 61.2 7.8-11.4 14.1-23.3 15.1-31 2.1-16.9-5.5-43.7-15.5-68.2zM294.4 315.9c-23.7 21-45.2 44.2-60.7 64.2 7.8 9.4 13.9 15.6 16.5 18.3h88.4c2.6-2.7 8.7-8.9 16.5-18.3-15.5-19.9-37-43.3-60.7-64.2zM263.79999999999995 416.4c2.3 4.8 3.6 9.8 3.6 15 0 5.2-1.3 10.2-3.6 15h61.2c-2.3-4.8-3.6-9.8-3.6-15 0-5.2 1.3-10.2 3.6-15z m-59.3 48l-24.8 62h229.4l-24.8-62z" /></svg>