<svg xmlns="http://www.w3.org/2000/svg" width="100%" height="100%" viewBox="0 0 588.8 588.8"><path d="M294.575 70.39999999999998A224 224 0 0 0 194.51 94.07999999999998h199.71A224 224 0 0 0 294.57399999999996 70.39999999999998zM142.647 130.07999999999998a224 224 0 0 0-30.668 34.84l355.482-12.694a224 224 0 0 0-21.065-22.146h-303.75zM92.49299999999998 198.39999999999998a224 224 0 0 0-6.987 16.303l420.797 7.41a224 224 0 0 0-9.59-23.713H92.49299999999998z m-13.037 34.2a224 224 0 0 0-6.168 28.894l441.386-8.024a224 224 0 0 0-2.976-13.257L79.45599999999997 232.59999999999997z m437.693 38.827L71.31999999999998 279.53a224 224 0 0 0-0.745 14.87 224 224 0 0 0 1.43 23h251.5c-3.19 1.413-6.214 3.02-9.024 4.816-5.576 3.568-10.425 8.035-14.005 13.184H74.48999999999998a224 224 0 0 0 7.93 30H295.85999999999996c3.102 9.023 10.002 16.672 18.62 22.184 3.162 2.023 6.593 3.802 10.235 5.336l-225.2 11.058a224 224 0 0 0 11.017 17.67l359.785 11.244a224 224 0 0 0 29.268-48.56l-99.652 4.894c0.93-0.53 1.844-1.074 2.733-1.642 8.615-5.512 15.516-13.16 18.618-22.184h85.53a224 224 0 0 0 7.82-30h-97.964c-3.58-5.15-8.428-9.616-14.005-13.184-2.812-1.797-5.834-3.403-9.027-4.816H517.3599999999999a224 224 0 0 0 0.865-15.945l-75.808-10.918s48.452-4.13 75.54-6.344a224 224 0 0 0-0.808-12.766zM358.57399999999996 328.4c13.77 0 26.1 3.674 34.394 8.98 8.292 5.303 12.105 11.52 12.105 17.52s-3.813 12.217-12.106 17.52c-8.294 5.306-20.625 8.98-34.395 8.98-13.77 0-26.102-3.674-34.395-8.98-8.293-5.303-12.105-11.52-12.105-17.52s3.812-12.217 12.105-17.52c8.293-5.306 20.624-8.98 34.395-8.98zM134.89299999999997 451.4a224 224 0 0 0 18.897 17h281.693a224 224 0 0 0 18.59-17H134.89299999999997z m82.537 53a224 224 0 0 0 77.145 14 224 224 0 0 0 77.488-14H217.42999999999998z" /></svg>