<svg xmlns="http://www.w3.org/2000/svg" width="100%" height="100%" viewBox="0 0 588.8 588.8"><path d="M195.39999999999998 59.63399999999998v16h18v-16z m180 0v16h18v-16zM191.39999999999998 93.63199999999998v62.002h206V93.63199999999998z m-3.89 80c-26.567 5.315-53.134 10.626-79.7 15.942l3.531 17.648L125.39999999999998 204.40999999999997v80.222h18V200.80999999999997l52-10.4v45.224h18v-62.002z m187.89 0v62.002h18V190.40999999999997l52 10.4v83.822h18V204.40999999999997l14.059 2.812 3.53-17.648c-26.565-5.315-53.132-10.628-79.698-15.942z m-174 80l-40.004 30.002h266.008L387.4 253.63199999999998z m-69.836 48l118.363 82.854c-37.367 27.406-74.74 54.805-112.105 82.213l10.642 14.514 18.743-13.745-8.008 20.823-37.332 26.13 10.322 14.745L294.4 415.616c54.07 37.851 108.142 75.698 162.21 113.55l10.323-14.745-37.332-26.13-8.008-20.823 18.743 13.745 10.642-14.514c-37.367-27.406-74.737-54.809-112.105-82.213l118.363-82.854h-31.383l-102.307 71.616-13.927-10.215 83.728-61.4H362.90999999999997L294.4 351.87199999999996l-68.51-50.24h-30.437l83.728 61.4-13.927 10.215-102.307-71.616zM294.4 374.193l13.574 9.955L294.4 393.65l-13.574-9.502z m-28.9 21.193l13.209 9.246-93.125 65.188 8.48-22.047z m57.8 0l71.436 52.387 8.48 22.047-93.125-65.186z" /></svg>