<svg xmlns="http://www.w3.org/2000/svg" width="100%" height="100%" viewBox="0 0 588.8 588.8"><path d="M203.07199999999997 53.71599999999998c-4.24-0.02-8.52-0.008-12.848 0.032 356.973 34.267 149.668 296.606-133.02 225.675v29.272c208.715 52.028 406.9-83.077 335.225-186.316 74.252 54.5 10.927 228.767-217.44 261.272 80.052-17.795 151.75-58.013 188.793-112.78v-0.003c-76.777 75.27-199.896 99.73-306.61 83.514v38.547l0.03 0.003v29.983c103.604 17.95 230.47-10.83 317.05-98.192-64.335 91.95-198.984 149.52-317.05 142.64v62.942C436.808 530.183 628.473 272.83299999999997 487.746 136.39999999999998c90.898 155.644-119.865 338.862-308.12 339.258C431.32 437.678 561.64 154.69 360.93199999999996 71.75199999999998c-43.685-11.26-96.104-17.76-157.86-18.036z" /></svg>