<svg xmlns="http://www.w3.org/2000/svg" width="100%" height="100%" viewBox="0 0 588.8 588.8"><path d="M154.99999999999997 445.4c40-45.9 60.4-98.4 60.4-151 0-52.6-20.4-105.1-60.4-151H230.39999999999998c34.1 0 81.9 34 119.3 71.4 18.7 18.6 35.1 37.9 46.6 53.3 5.8 7.6 10.4 14.4 13.4 19.4 1.4 2.5 2.5 4.7 3.2 6.1 0.1 0.4 0.2 0.5 0.2 0.8 0 0.3-0.1 0.5-0.2 0.9-0.6 1.4-1.7 3.5-3.2 6-3 5.1-7.5 11.8-13.2 19.5-11.3 15.4-27.5 34.6-46.1 53.2C313.2 411.4 265.5 445.4 230.39999999999998 445.4zM54.39999999999998 399.4v-18h122.2c-3 6.1-6.3 12.1-9.9 18z m374.5-96c0.2-0.3 0.4-0.7 0.5-1 1.1-2.4 2-4.4 2-8 0-3.6-1-5.6-2-8-0.1-0.3-0.3-0.7-0.5-1H534.4v18zM54.39999999999998 207.39999999999998v-18h112.3c3.6 5.9 6.9 11.9 9.9 18z" /></svg>