<svg xmlns="http://www.w3.org/2000/svg" width="100%" height="100%" viewBox="0 0 588.8 588.8"><path d="M415.554 59.439999999999976l4.06 50.167 54.32 2.856 2.677 54.306 50.173 3.898-7.994-102.88-103.236-8.35zM397.71 70.66699999999997L284.354 184.02299999999997l44.086 3.566 72.837-72.842-3.566-44.08z m16.696 57.38l-72.98 72.983 2.19 41.692 41.526 2.05 73.004-73.01L456.09999999999997 130.23999999999998l-41.694-2.192z m56.836 57.05l-72.457 72.46 3.433 44.213 113.24-113.237-44.216-3.436z m-196.213 16.92l7.483 92.525-43.234-43.235c-0.846 7.773-2.35 14.887-4.5 21.356l78.48 78.482c6.443-2.176 13.52-3.72 21.244-4.613l-42.5-42.5 92.203 7.164-3.723-47.943-54.648-2.696-2.868-54.662-47.94-3.877z m-48.855 88.472c-4.9 7.32-11.07 13.37-18.474 18.187l69.585 69.584c4.836-7.382 10.892-13.547 18.2-18.458l-69.31-69.312z m-36.392 26.7c-6.41 2.14-13.407 3.69-20.983 4.66l29.25 29.25 0.34-0.34 13.215 13.216-0.34 0.34 52.697 52.697c1.007-7.542 2.585-14.51 4.75-20.894l-78.93-78.93zM173.92999999999998 353.40999999999997L55.48999999999998 471.49399999999997v22.17l129.348-129.348-10.905-10.904z m24.12 24.12L55.48799999999998 520.0899999999999V533.4h53.73l122.35-122.35-33.518-33.517z" /></svg>