<svg xmlns="http://www.w3.org/2000/svg" width="100%" height="100%" viewBox="0 0 588.8 588.8"><path d="M140.99399999999997 64.36999999999998l90.062 345.78L520.2439999999999 433.4 430.15 87.61999999999998 140.99399999999997 64.36999999999998z m-18.906 1.593c-30.466 11.873-55.68 53.098-49.75 75.312l3.25 11.78c0.667-1.76 1.36-3.522 2.093-5.28C87.58999999999997 124.06799999999998 104.23999999999998 101.00999999999998 128.05699999999996 88.86999999999998l-5.97-22.907z m44.937 18.906l247.813 21.593 80.937 305.156-249.344-20.064L167.02599999999998 84.86999999999998zM132.92999999999998 107.55499999999998c-16.66 10.01-29.916 28.068-38 47.406-5.245 12.552-8.037 25.64-8.75 36.532l64.814 235.28c0.293-0.55 0.572-1.105 0.875-1.655 10.6-19.254 27.822-37.696 51.124-48.47L132.92999999999998 107.55599999999998z m74.876 287.563c-17.673 9.067-31.144 23.712-39.562 39-4.464 8.105-7.262 16.36-8.688 23.75l11.688 42.405 1.625 0.125c-3.825-27.528 11.382-60.446 41.25-81.03l-6.314-24.25z m26.344 34.03c-32.552 17.26-46.49 52.402-41.844 72.906l289.844 24.53c-5.315-7.75-8.637-17.84-8.594-28.342l-22.562-9.063 46.625-7.31-13.595-12.97c5.605-6.907 13.688-13.025 24.78-17.656L234.14999999999998 429.15z" /></svg>