<svg xmlns="http://www.w3.org/2000/svg" width="100%" height="100%" viewBox="0 0 588.8 588.8"><path d="M294.4 72.64999999999998C248.7 153.7 203.49999999999997 210.7 169.7 257.7 133.92999999999998 307.29999999999995 111.39999999999998 345.4 111.39999999999998 390.4c0 45 21.91 77.8 56 100.5 34.1 22.7 80.5 34.5 127 34.5s92.9-11.8 127-34.5c34.1-22.7 56-55.5 56-100.5s-22.5-83.1-58.3-132.7c-33.8-47-79-104-124.7-185.05zM342.4 166.39999999999998l-46.8 134.4h117L217.09999999999997 509.7l59.2-159.2H168.89999999999998L342.4 166.39999999999998z" /></svg>