<svg xmlns="http://www.w3.org/2000/svg" width="100%" height="100%" viewBox="0 0 588.8 588.8"><path d="M223.36999999999998 60.27499999999998l66.718 179.03L65.39999999999998 63.39999999999998l178.344 216.406L61.619999999999976 201.61999999999998l175.186 146.56L87.89999999999998 336.995l183.594 85.72-88.875 38.936 154.155 18.094-21.063 56.22 96.22-34.814 32.968 35.22 28.22-56.22 56.06-17.438L500.9 423.4l40.875-85-55.344 10.563-7.686-146.063-44.406 77.5-74.313-181.188 1.125 140.313-137.78-179.25z m95.874 237.03c16.315-0.184 40.993 12.932 63 34.94 29.342 29.34 42.85 63.397 30.156 76.092-12.695 12.696-46.783-0.782-76.125-30.125-29.342-29.342-42.85-63.43-30.156-76.125 3.173-3.173 7.685-4.72 13.124-4.78z m96.72 37.345c37.93 3.08 67.592 34.657 67.592 73.406 0 40.8-32.887 73.656-73.687 73.656-40.057 0-72.43-31.67-73.595-71.437 8.263 23.457 30.67 40.375 56.875 40.375 33.176 0 60.25-27.106 60.25-60.28 0-25.107-15.517-46.69-37.438-55.72z" /></svg>