<svg xmlns="http://www.w3.org/2000/svg" width="100%" height="100%" viewBox="0 0 588.8 588.8"><path d="M58.555999999999976 125.39999999999998l-0.875 47.688 145.564 48.718 8.937 2.97-3.06 8.905c-14.857 43.4-17.932 93.212-3.564 138.47 4.103 17.557 11.6 33.377 21.53 46.344l-9.405 10.656-5.468 6.188 5.47 6.156 69.53 78.97 7.032 7.936 7-7.938 69.562-78.968 5.438-6.156-5.438-6.188-9.562-10.875c9.85-12.927 17.294-28.664 21.375-46.125 14.367-45.258 11.292-95.07-3.564-138.47l-3.062-8.905 8.937-2.97 145.564-48.718L529.62 125.39999999999998l-201.25 80.188c15.49 20.604 25.624 54.782 25.624 93.468 0 34.853-8.233 66.033-21.188 86.938l-31.562-35.813-7-7.936-7.03 7.937-31.72 36c-13.023-20.904-21.313-52.165-21.313-87.124 0-38.664 10.118-72.83 25.595-93.437L58.55499999999998 125.39999999999998zM531.9 192.30599999999998L399.556 236.61999999999998c2.563 8.47 4.695 17.156 6.406 25.968l123.532-12.375c1.643-19.07 2.36-38.526 2.406-57.907z m-474.156 0.5c0.057 19.218 0.776 38.496 2.406 57.406l122.063 12.22c1.706-8.758 3.827-17.39 6.375-25.813L57.74399999999998 192.80499999999998z m4.406 76.406c2.137 17.497 5.116 34.54 9.22 50.75l106.124-9.843c0.017-9.794 0.65-19.534 1.812-29.19L62.14999999999998 269.21299999999997z m465.344 0L408.87 281.056c1.145 9.562 1.757 19.21 1.78 28.906l107.625 10c4.102-16.208 7.082-33.257 9.22-50.75z m-117.53 59.438c-0.558 7.228-1.46 14.45-2.72 21.625l87.97 30.156c7.116-12.94 13.018-27.084 17.842-42.186l-103.094-9.594z m-231.783 0.156l-101.593 9.438c4.824 15.1 10.73 29.25 17.844 42.187l86.564-29.655c-1.298-7.288-2.242-14.624-2.813-21.97z m225 39.844c-2.015 7.52-4.447 14.958-7.342 22.28L450.67999999999995 432.4c13.427-9.784 24.838-21.827 34.47-35.688l-81.97-28.062z m-218.092 0.47L104.49399999999997 396.71c9.63 13.86 21.04 25.904 34.47 35.688l53.686-40.625c-2.98-7.443-5.493-15.007-7.563-22.656z m108.25 2.405v66.563H348.9l-54.688 62.03-57.093-64.78 56.218-63.813z" /></svg>