<svg xmlns="http://www.w3.org/2000/svg" width="100%" height="100%" viewBox="0 0 588.8 588.8"><path d="M169.11999999999998 99.39999999999998C144.39999999999998 99.50999999999998 144.39999999999998 101.27499999999998 144.39999999999998 129.39999999999998H114.39999999999998l-15 30v60l15 30h30c0 30 0 30 30 30h120c30 0 30 0 30-30h15l15-30h180v-60H354.4l-15-30h-15c0-30 0-30-30-30H174.39999999999998c-1.875 0-3.633-0.007-5.28 0zM204.39999999999998 309.4a15 15 0 0 0-15 15v45a15 15 0 0 0 15 15h60a15 15 0 0 0 15-15v-45a15 15 0 0 0-15-15h-60z m-15 105c-30 0-45 30-45 30-15 0-30 0-30 15l-60 15v15h360v-15l-60-15c0-15-15-15-30-15 0 0-15-30-45-30h-90z" /></svg>