<svg xmlns="http://www.w3.org/2000/svg" width="100%" height="100%" viewBox="0 0 588.8 588.8"><path d="M427.056 59.805999999999976L115.27599999999998 110.46299999999998 118.95999999999998 133.39999999999998l311.813-50.656-3.72-22.938zM413.712 104.42999999999998l-18.437 3 16.25 100.282c-7.01 4.713-11.034 13.208-9.594 22.094 0.474 2.913 1.5 5.587 2.94 7.97 5.55-4.228 12.173-7.207 19.5-8.407h0.06c2.25-0.367 4.475-0.546 6.69-0.564 0.737-0.006 1.485 0 2.217 0.03 4.273 0.182 8.436 0.995 12.375 2.345 0.62-2.72 0.724-5.61 0.25-8.53-1.433-8.843-7.885-15.59-15.968-17.875L413.714 104.42999999999998zM370.806 111.39999999999998L186.64999999999998 141.33799999999997c9.082 42.138 25.73 78.544 45.72 103.843 22.553 28.546 48.246 42.31 71.874 38.47 23.628-3.84 43.653-25.027 56.03-59.25 10.974-30.34 15.237-70.14 10.532-113zM161.39999999999998 145.42999999999998l-18.438 3 16.344 100.72c-6.837 4.75-10.734 13.14-9.312 21.906 0.457 2.82 1.446 5.43 2.812 7.75 5.593-4.288 12.283-7.297 19.688-8.5 2.25-0.365 4.474-0.545 6.687-0.562 0.74-0.006 1.488 0 2.22 0.03 4.293 0.183 8.482 0.983 12.438 2.345 0.56-2.633 0.644-5.403 0.187-8.22-1.456-8.977-8.087-15.82-16.344-18L161.39999999999998 145.42999999999998z m269.938 102.032c-1.288 0.012-2.592 0.13-3.907 0.344-14.024 2.28-23.4 15.275-21.124 29.313 2.276 14.036 15.257 23.403 29.28 21.124 14.026-2.28 23.402-15.275 21.127-29.313-1.992-12.282-12.182-20.98-24.094-21.436-0.427-0.017-0.853-0.035-1.283-0.03zM179.39999999999998 288.4c-1.287 0.012-2.59 0.13-3.906 0.344-14.025 2.28-23.4 15.275-21.125 29.312 2.275 14.038 15.255 23.404 29.28 21.125 14.025-2.278 23.4-15.274 21.125-29.31-1.99-12.284-12.182-20.982-24.094-21.44-0.424-0.015-0.85-0.034-1.28-0.03z m134.656 13.844c-2.244 0.054-4.472 0.265-6.687 0.625-23.63 3.84-43.654 25.057-56.033 59.28-11.165 30.868-15.416 71.534-10.312 115.25L425.4 447.462c-8.967-43.092-25.812-80.345-46.156-106.093-19.735-24.98-41.883-38.67-62.938-39.126-0.752-0.017-1.502-0.018-2.25 0z m144.094 6.03c-5.567 4.238-12.213 7.213-19.563 8.407-7.386 1.2-14.665 0.472-21.312-1.81-0.606 2.7-0.72 5.57-0.25 8.467 1.447 8.927 7.996 15.75 16.188 17.97l16.562 102.187 18.438-3-16.594-102.313c6.896-4.736 10.864-13.16 9.436-21.967-0.47-2.896-1.477-5.567-2.906-7.938z m-252.063 41.032c-5.54 4.187-12.143 7.128-19.437 8.313-7.352 1.193-14.597 0.476-21.22-1.783-0.666 2.79-0.83 5.742-0.343 8.75 1.427 8.8 7.816 15.528 15.844 17.844l16.532 102.064 18.438-3-16.53-101.875c7.103-4.692 11.2-13.24 9.75-22.19-0.484-2.975-1.542-5.71-3.032-8.124zM491.24399999999997 455.67999999999995L179.46299999999997 506.34l3.687 22.937 311.813-50.656-3.72-22.94z" /></svg>