<svg xmlns="http://www.w3.org/2000/svg" width="100%" height="100%" viewBox="0 0 588.8 588.8"><path d="M508.5 66.17999999999998l-63.3 55.8 33.7 23.22z m-75.6 69.15L334.09999999999997 278.59999999999997l37.9 26.1L470.79999999999995 161.39999999999998 451.4 147.99999999999997z m-88.6 96.77l-47.4 16-28.4 41.1 47.4-15.9z m67.5 46.6l-17.7 25.6-10.7 15.5 2 50 28.4-41.1z m-91.2 12.4l-40 35.9 34.8-7.4-31.3 58.7-69.5 33.8-10.5-63.7-38.2 58.5-22.5-51-6.54 125c-10.6-4.7-21.96-8.3-34.46-8.3-14.1 0-30.44 4.4-46 9.8v19.2c16.71-6 34.61-11 46-11 14.02 0 28.33 7 43.9 15 15.6 8 32.4 17 52.1 17 19.7 0 36.5-9 52.1-17 15.6-8 29.9-15 43.9-15s28.3 7 43.9 15c15.6 8 32.4 17 52.1 17 19.7 0 36.5-9 52.1-17 15.6-8 29.9-15 43.9-15 11.4 0 29.3 5 46 11V482.4c-15.6-5.4-31.9-9.8-46-9.8-19.7 0-36.5 9-52.1 17-15.6 8-29.9 15-43.9 15s-28.3-7-43.9-15c-14.7-7.6-30.5-16-48.8-16.9l69.9-42.6-63 10.5 30.1-32.6c7.6 2.8 19.3-10.1 14.6-16.2-0.9-1.1-2.3-1.5-3.8-1.5-3.5 0.1-7.7 2.5-9.8 4.7-2 2.1-3.8 6.1-3.6 9.2l-35.8 10.9 2.8-41.9 35.1-41.5 8.3 41.1 21.8-51.5zM113.44999999999997 307.2c-0.22 0-0.45 0.1-0.68 0.1-4.59 0.8-4.92 9.7-2.65 13.7 2.4 4.3 10.61 9.1 13.81 5.3 4.55-5.4-3.37-19.3-10.48-19.1z m64.35 4.8c-0.5 0-1.1 0.1-1.6 0.3-8.9 3.5-7.6 22.3 1.7 24.7 6.4 1.4 11.8-8.1 11.2-13.5-0.3-4.5-5.6-11.3-10.7-11.5z m-65.25 55.8c-1.92 0-3.52 0.5-4.42 1.7-2.25 3.1 3.44 9.9 7.46 11.7 4.3 1.9 12.45 1.1 11.87-3.4-0.64-5-9.17-9.9-14.91-10z m290.15 55.3c-7.3 0-17.5 6.2-16.7 12.3 0.6 4.8 9.8 4.3 14.3 2.4 4.6-2 11.5-8.7 8.3-12.5-1.3-1.6-3.5-2.2-5.9-2.2z m-27.9 23c-2.4 0-4.6 0.7-5.8 2.5-2.5 3.9 3.4 10 7.4 11.8 4 1.8 12.3 2 12.6-3 0.4-5.9-7.9-11.2-14.2-11.3z" /></svg>