<svg xmlns="http://www.w3.org/2000/svg" width="100%" height="100%" viewBox="0 0 588.8 588.8"><path d="M91.98799999999997 47.99399999999998l-45.426 0.59v34.808l61.945 65.485L191.09999999999997 120.55999999999997l18.878 33.037 23.248 3.875-20.558 47.28-4.46 6.214 18.03 21.952-44.455 77.384 29.174 31.877c4.798-4.18 9.5-8.29 14.074-12.305l-20.235-22.112 34.125-59.406 32.732 39.848c4.746-4.332 9.35-8.565 13.775-12.674l-53.664-65.33 34.428-47.952 70.312-4.5 11.69 55.26c4.892-5.432 9.38-10.62 13.41-15.546 0.65-0.795 1.274-1.575 1.903-2.357l-10.9-51.53-0.068 0.013-0.97-7.688-123.89-1.77-11.798-59.585-89.673 34.808L91.98999999999998 47.997999999999976l-0.002-0.004z m433.5 21.717c-20.47 15.934-40.295 27.685-60.545 35.95 3.96 47.51-25.01 99.124-70.658 150.81-46.21 52.324-110.372 104.935-179.426 152.067L204.32299999999998 393.09999999999997c68.15-46.514 131.32-98.462 175.953-149 42.22-47.81 67.048-94.156 66.297-131.932-9.832 2.976-19.833 5.214-30.12 6.773-0.49 27.362-11.265 54.746-40.388 90.353-32.157 39.316-86.64 90.12-176.682 167.738l-7.617 6.565-34.094-45.963-19.234 16.348c19.28 15.33 29.75 29.138 46.84 47.766l6.452 7.03-7.164 6.304c-24.68 21.712-50.044 41.688-76.758 60.162-5.077-3.61-11.26-5.746-17.908-5.746-17.062 0-31.094 14.032-31.094 31.093 0 17.06 14.032 31.093 31.094 31.093s31.094-14.032 31.094-31.094c0-2.58-0.326-5.09-0.93-7.493 26.655-20.534 54.276-39.37 82.285-58.246l7.198-4.848 5.368 6.818c16.493 20.95 32.353 43.3 48.01 66.34l20.156-17.422-45.942-52.59 8.565-5.96c131.204-91.3 210.172-166.176 250.75-226.72 36.76-54.847 42.27-96.536 29.033-130.757z m-43.92 180.997c-8.493 9.98-17.84 20.227-28.086 30.757l-57.637 94.442 59.53 92.6-54.91 65.912 14.36 11.962 63.684-76.447-60.614-94.285 25.96-42.535 32.49 2.754-9.878 70.8 70.487 13.335 3.474-18.364-52.993-10.025 10.145-72.703-42.842-3.63 26.13-42.817 32.08 20.58 38.048-10.06-4.778-18.07-30.1 7.96-25.51-16.366 0.024-0.043-0.154-0.04-8.912-5.717z m-171.63 153.216c-5.31 3.943-10.75 7.927-16.26 11.934L350.4 450.78499999999997l-1.447 88.363 18.685 0.307 1.62-99.004-59.323-36.527z m-99.09 58.33l-21.65 37.592 26.21 46.526 16.28-9.173-20.983-37.25 12.285-21.33c-4.025-5.53-8.07-10.986-12.143-16.363zM89.89999999999998 488.19c6.96 0 12.4 5.44 12.4 12.4s-5.44 12.402-12.4 12.402S77.49999999999997 507.54999999999995 77.49999999999997 500.59c0-6.96 5.44-12.4 12.402-12.4z" /></svg>