<svg xmlns="http://www.w3.org/2000/svg" width="100%" height="100%" viewBox="0 0 588.8 588.8"><path d="M98.33799999999998 56.14999999999998L54.17999999999998 100.30599999999998l32.064 32.032L130.39999999999998 88.17999999999998 98.33699999999997 56.14999999999998zM131.618 113.39999999999998L112.77599999999998 132.24399999999997c17.814 31.92 50.57 65.266 80.78 83.812l21.72-21.72C196.37499999999997 163.55999999999997 162.82299999999998 131.07799999999997 131.61999999999998 113.39999999999998zM278.4 157.64999999999998L151.212 284.83799999999997l13.313 13.312 127.188-127.188L278.4 157.64999999999998z m4.938 48.844l-74.97 74.97 11.97 11.967c5.18-4.87 11.826-7.28 18.468-7.28 6.903 0 13.8 2.61 19.063 7.875 10.32 10.324 10.515 26.965 0.593 37.53l132.718 132.72c35.123 35.124 93.42 77.742 141.72 66.75-23.436-21.284-81.765-106.71-71.656-146.188l-40.688 7.25 7.656-40.062-40.562 7.156 8.094-39.592-40.063 7.625 7.626-40.063-40.53 7.156 7.75-40.625-47.188-47.186z" /></svg>