<svg xmlns="http://www.w3.org/2000/svg" width="100%" height="100%" viewBox="0 0 588.8 588.8"><path d="M335.4 79.39999999999998v30h78V79.39999999999998h-78zM118.39999999999998 86.39999999999998c-12.56 22.13-19.5 54.6-22.07 77.2-0.59 0.2-1.17 0.5-1.74 0.7-5.58-17.9-17.63-33.58-33.8-46.62 6.47 18.29 15.93 35.52 19.71 54.62-4.23 2.9-8.01 6-11.3 9.4-3.16 3.3-5.68 14.2-5.9 27.1-0.17 12.9 1.1 27 0.1 38.4v18.3c24.32-9.1 49.03-21.4 74.63-31.3 29.77-11.6 61.07-19.5 94.17-12.6h0.1c25.2 5.3 41.1 10.6 62.8 29.4 37.2-26.3 84.7-42.1 129.8-29.3L525.4 250.49999999999997v-29.8c-5.8-2.2-11.7-4.3-17.5-6.4 4.6-25.7 12-44.4 24.2-71.2-21.1 17.4-40.5 31.6-50.4 51.9 2.4-20.1-7.9-28.1-25.5-45.7 5.2 21.2 3.8 30.9-2.2 46.8-74.1-23.5-146.1-39.7-208.1-45.9-18.3-1.8-35.7-2.8-51.9-2.8-2.3 0-4.6 0.1-6.9 0.1-16.4 0.2-31.7 1.4-45.6 3.5-2.8-11.8-0.4-25.02 11.9-40.56C137.09999999999997 122.29999999999998 122.86999999999998 134.74999999999997 114.93999999999998 148.89999999999998 114.72999999999998 128.45 117.04999999999998 107.26999999999998 118.39999999999998 86.39999999999998z m233 41v22.1c15.1 3.4 30.5 7.1 46 11.3V127.39999999999998h-46z m41.6 107.9c-32.5-0.4-66 13.7-93.2 34.3l-6 4.5-5.5-5.1c-19.2-18-29.3-22.8-47.8-27.2-2.9 9.7-9.2 19.9-14.6 30 0.5-10.4 1.6-21-5.6-29.5-3 8.8-10.3 16.5-24 22.6 2.9-9.9 6.9-19 6.9-27.8-19.5 0.6-38.9 6.2-58.7 13.8-26.37 10.2-53.15 24.2-81.1 34V525.4h462V269.2l-105.5-30.1c-8.8-2.5-17.8-3.7-26.9-3.8zM422.4 253.39999999999998c40.2 0 73 32.8 73 73s-32.8 73-73 73-73-32.8-73-73 32.8-73 73-73z m-9 18.7c-23.3 3.8-41.5 22.1-45.3 45.3H413.4v-45.3z m18 0V317.4h45.3c-3.8-23.2-22-41.5-45.3-45.3zM198.39999999999998 285.4c57.9 0 105 47.1 105 105 0 27.4-10.5 52.3-27.7 71H287.4v50H109.39999999999998v-50h11.71C103.91999999999997 442.7 93.39999999999998 417.79999999999995 93.39999999999998 390.4c0-57.9 47.1-105 105-105z m0 18c-9 0-17.7 1.4-25.9 3.9l-8.5 44-3.6-39.2c-29.06 14-49 43.8-49 78.3 0 29.4 14.41 55.3 36.6 71h71.3l7.3-44.6 7.3 44.6h14.9c22.2-15.7 36.6-41.6 36.6-71 0-48.2-38.8-87-87-87z m169.7 32c3.8 23.2 22 41.5 45.3 45.3V335.4h-45.3z m63.3 0v45.3c23.3-3.8 41.5-22.1 45.3-45.3H431.4z m-175 45a9.999 9.999 0 0 1 10 10 9.999 9.999 0 0 1-10 10 9.999 9.999 0 0 1-10-10 9.999 9.999 0 0 1 10-10z m61 49h194v50h-16v32h-50v-32h-62v32h-50v-32h-16v-50z m18 18v14h158v-14H335.4zM127.39999999999998 479.4v14h142v-14H127.39999999999998z m224 0v14h14v-14h-14z m112 0v14h14v-14h-14z" /></svg>