<svg xmlns="http://www.w3.org/2000/svg" width="100%" height="100%" viewBox="0 0 588.8 588.8"><path d="M394.9 54.77499999999998l-174.906 255.22 1.53 1.06 31.97 22.314 175.062-255.5L394.9 54.77399999999997z m90.063 62.22c-20.16 29.418-44.122 23.1-68.25 8.905l-48.688 72.875c21.278 16.55 36.46 35.645 18.594 61.72l42.967 29.468 28.907-42.157-14.72-9.156c-3.167 1.844-6.85 2.906-10.78 2.906-11.85 0-21.47-9.62-21.47-21.47 0-11.847 9.62-21.436 21.47-21.436s21.437 9.59 21.437 21.438c0 0.195-0.025 0.4-0.03 0.593l15.906 9.907 17.938-26.218-37.688-23.5 11.03-17.72 14.94 9.313 10.093-16.188 24.25 15.094 17.092-24.94-43-29.436zM179.61999999999998 307.024c-0.31 0.01-0.628 0.023-0.94 0.063-0.827 0.104-1.652 0.284-2.53 0.562-3.51 1.11-7.4 4.066-10.125 7.938-2.724 3.87-4.16 8.487-4 12.125 0.16 3.637 1.257 6.338 5.25 9.125l76.594 53.468c3.283 2.293 5.727 2.35 9.124 1.156 3.396-1.192 7.323-4.26 10.125-8.218 2.8-3.96 4.352-8.66 4.31-12.188-0.04-3.53-0.89-5.787-4.374-8.22L186.42999999999998 309.37c-2.546-1.78-4.657-2.42-6.81-2.345zM122.67999999999998 351.17999999999995c-24.354 0.41-45.504 9.52-57.655 27.25-16.95 24.737-11.868 59.753 9.625 90.283-1.838 4.72-2.875 9.84-2.875 15.187 0 23.243 19.07 42.313 42.313 42.313 8.635 0 16.692-2.625 23.406-7.125 43.208 18.488 88.07 12.714 108.28-16.782 18.695-27.28 10.884-66.912-16.374-99.312l-63.094-44.03c-14.016-5.107-28.07-7.7-41.25-7.783-0.792-0.004-1.59-0.012-2.375 0z m-8.593 109.126c13.143 0 23.594 10.45 23.594 23.594 0 13.143-10.45 23.625-23.593 23.625-13.142 0-23.624-10.482-23.624-23.625s10.482-23.594 23.624-23.594z" /></svg>