<svg xmlns="http://www.w3.org/2000/svg" width="100%" height="100%" viewBox="0 0 588.8 588.8"><path d="M234.77999999999997 54.689999999999976l12.018 214.677-69.382-213.75h-19.65l70.52 217.25c-17.16-18.22-34.434-44.74-52.243-80.246 18.864 62.058 35.573 139.067 40.552 192.04L57.77999999999997 100.79299999999998v38.277l144.89 258.98c-33.493-21.316-67.86-56.375-97.918-92.87 26.712 52.73 55.26 104.847 73.076 160.54L57.77799999999998 327.85299999999995v28.46l107.997 124.026C137.39999999999998 473.09 109.02499999999998 460.45 80.64999999999998 446.565c38.03 26.607 62.036 50.897 84.234 85.82H269.24l-6.785-91.082H236.17c0-44.845 2.87-108.728 40.767-115.86-6.993-8.433-11.533-20.27-11.533-33.523 0-23.93 14.228-43.758 32.45-46.127h0.005c0.303-0.038 0.61-0.056 0.923-0.063 0.934-0.02 1.895 0.063 2.83 0.063 19.957 0 36.205 20.602 36.205 46.128 0 12.928-4.304 24.595-10.996 32.99 41.4 6.42 40.496 71.424 40.496 116.394h-24.94l-6.003 91.082h90.96c19.418-30.77 60.864-56.727 96.524-75.234-38.585 10.67-75.927 17.602-109.66 21.02l117.97-86.97v-23.218l-125.78 92.728c24.4-49.363 55.902-88.075 90.164-122.648-40.56 27.323-73.25 37.7-107.027 43.785L532.17 197.09999999999997v-30.58L377.697 366.59c1.19-51.24 16.946-114.427 39.156-171.047-17.383 25.054-33.876 46.073-49.713 62.742l56.406-202.668h-19.398l-53.412 191.906 3.832-192.834h-119.79z" /></svg>