<svg xmlns="http://www.w3.org/2000/svg" width="100%" height="100%" viewBox="0 0 588.8 588.8"><path d="M295.04999999999995 77.38399999999999l-49.697 100.702-111.13 16.146 80.413 78.385-18.982 110.68 99.396-52.256 99.397 52.256-18.983-110.68 80.413-78.384-111.127-16.146-49.7-100.702zM150.39999999999998 347.226l-26.674 54.05-59.646 8.665 43.16 42.073-10.188 59.403L150.39999999999998 483.37l53.348 28.046-10.188-59.403 43.16-42.072-59.646-8.665L150.39999999999998 347.22499999999997z m288 0l-26.674 54.05-59.646 8.665 43.16 42.073-10.188 59.403L438.4 483.37l53.348 28.046-10.188-59.403 43.16-42.072-59.646-8.665L438.4 347.22499999999997z" /></svg>