<svg xmlns="http://www.w3.org/2000/svg" width="100%" height="100%" viewBox="0 0 588.8 588.8"><path d="M285.4 56.39999999999998v135.193c5.95-3.097 11.95-6.065 18-8.89V56.39999999999998h-18z m192 0v247.6l-174-0.688v-60.457c-6.182 5.902-12.18 11.908-18 18V349.4h18v-28.088l174 0.688V349.4h18V56.39999999999998h-18z m-80.1 71.914c-7.024-0.18-15.588 2.472-20.54 6.463-7.925 6.386-14.468 22.533-9.155 29.127 5.313 6.594 22.48 3.634 30.406-2.752 7.926-6.386 14.47-22.533 9.158-29.127-1.993-2.473-5.653-3.602-9.868-3.71z m-54.125 57.334C206.89999999999998 236.66599999999997 86.77999999999997 362.57 63.44299999999998 510.203l17.316 3.365c15.157-100.106 61.737-149.502 92.28-179.856C158.57299999999998 376.16999999999996 117.77599999999998 444.32 116.66999999999997 520.545l21.605 4.2c4.238-108.047 78.028-244.59 204.902-339.097zM279.46799999999996 367.4v158h30V367.4h-30z m191.618 0v158h30V367.4h-30z" /></svg>