<svg xmlns="http://www.w3.org/2000/svg" width="100%" height="100%" viewBox="0 0 588.8 588.8"><path d="M294.4 80.76999999999998L216.29999999999998 125.39999999999998h156.2L294.4 80.76999999999998zM239.39999999999998 143.39999999999998v110h14c0-27.5 0.2-48.8 4.3-65.2 2.2-9 5.9-16.9 12.2-22.5 6.4-5.7 15-8.3 24.5-8.3s18.1 2.6 24.5 8.3c6.3 5.6 10 13.5 12.2 22.5 4.1 16.4 4.3 37.7 4.3 65.2h14V143.39999999999998H239.39999999999998z m-18 3.8L63.39999999999998 204.7v14.8l158-57.5v-14.8z m146 0v14.8l158 57.5v-14.8l-158-57.5z m-146 34.1L63.39999999999998 238.7v74.9l17-6.2v-14.9c0-15.6 0.26-27.5 3.28-37.3 1.5-4.9 3.89-9.5 7.95-12.9 4.06-3.4 9.48-5 14.77-5 5.29 0 10.71 1.6 14.77 5 4.06 3.4 6.45 8 7.95 12.9 2.75 8.9 3.21 19.7 3.27 33.3l20.01-7.3V269.59999999999997c0-15.6 0.3-27.5 3.3-37.3 1.5-4.9 3.9-9.5 7.9-12.9 4.1-3.4 9.5-5 14.8-5 5.3 0 10.7 1.6 14.8 5 4 3.4 6.4 8 7.9 12.9 2.5 8.2 3.1 17.9 3.3 30l17-6.2v-74.8z m146 0v74.8l17 6.2c0.2-12.1 0.8-21.8 3.3-30 1.5-4.9 3.9-9.5 7.9-12.9 4.1-3.4 9.5-5 14.8-5 5.3 0 10.7 1.6 14.8 5 4 3.4 6.4 8 7.9 12.9 3 9.8 3.3 21.7 3.3 37.3v11.6l20 7.3c0.1-13.6 0.6-24.4 3.3-33.3 1.5-4.9 3.9-9.5 7.9-12.9 4.1-3.4 9.5-5 14.8-5 5.3 0 10.7 1.6 14.8 5 4 3.4 6.4 8 7.9 12.9 3 9.8 3.3 21.7 3.3 37.3V307.4l17 6.2v-74.8l-158-57.5zM231.99999999999997 271.4L63.39999999999998 332.7v28.8L228.79999999999998 301.4h131.2L525.4 361.5v-28.8L356.79999999999995 271.4H231.99999999999997z m0 48L63.39999999999998 380.7v39.8c140.4-100 321.6-100 462 0v-39.7L356.79999999999995 319.4H231.99999999999997z" /></svg>