<svg xmlns="http://www.w3.org/2000/svg" width="100%" height="100%" viewBox="0 0 588.8 588.8"><path d="M230.39999999999998 70.39999999999998c0 16 0 32-16 48l-64 32-37.646 163.139c20.315 9.254 41.137 16.022 62.947 19.007L198.39999999999998 230.39999999999998c0 64 0 192-32 304 16.315-4.079 36.8-7.112 59.313-9.111 9.09-14.67 17.425-42.087 23.058-76.11 0.097-0.585 0.188-1.19 0.283-1.779H230.39999999999998v-18h21.293c1.271-9.625 2.386-19.655 3.35-30H230.39999999999998v-18h26.148c0.727-9.803 1.322-19.829 1.795-30H230.39999999999998v-18h28.646c0.14-4.382 0.262-8.777 0.356-13.191 0.119-5.583 0.2-11.19 0.246-16.809H230.39999999999998v-18h29.275c-0.051-10.022-0.22-20.04-0.49-30H230.39999999999998v-18h28.176c-0.41-10.127-0.928-20.153-1.557-30H230.39999999999998v-18h25.334a1048.454 1048.454 0 0 0-2.797-30H230.39999999999998v-18h20.404c-3.451-26.732-7.839-50.259-13.058-68.527l0.199-0.057A345.758 345.758 0 0 1 230.39999999999998 70.39999999999998z m128 0c-2.562 0.854-5.07 1.653-7.545 2.416l0.2 0.057c-5.22 18.268-9.608 41.795-13.06 68.527H358.4v18h-22.537a1048.454 1048.454 0 0 0-2.797 30H358.4v18h-26.62c-0.628 9.847-1.145 19.873-1.556 30H358.4v18h-28.785c-0.27 9.96-0.439 19.978-0.49 30H358.4v18h-29.248c0.046 5.619 0.127 11.226 0.246 16.809 0.094 4.414 0.217 8.809 0.356 13.191H358.4v18h-27.943a1096.285 1096.285 0 0 0 1.795 30H358.4v18h-24.643c0.964 10.345 2.079 20.375 3.35 30H358.4v18h-18.654c0.095 0.59 0.186 1.194 0.283 1.78 5.633 34.022 13.967 61.439 23.058 76.109C385.59999999999997 527.288 406.085 530.3199999999999 422.4 534.4c-32-112-32-240-32-304l22.7 102.146c21.809-2.985 42.63-9.753 62.946-19.007L438.4 150.39999999999998l-64-32c-16-16-16-32-16-48z m-100.639 7.72c14.695 59.028 21.537 153.15 19.637 242.471-1.007 47.323-4.517 93.164-10.87 131.53-4.77 28.82-10.831 53.327-19.462 71.619 30.778-1.773 63.89-1.773 94.668 0-8.631-18.292-14.691-42.798-19.463-71.62-6.352-38.365-9.862-84.206-10.869-131.529-1.9-89.32 4.942-183.443 19.637-242.47-25.553 5.69-47.725 5.69-73.278 0zM93.07099999999997 323.796c-1.49 7.72-2.976 15.435-3.648 22.43-1.022 10.64 0.299 18.44 3.645 22.13 17.186 18.957 41.688 25.915 67.963 28.494 7.592-15.13 12.333-30.41 12.566-46.512-28.605-3.87-55.172-13.757-80.525-26.542z m402.657 0c-25.353 12.785-51.92 22.672-80.525 26.543 0.233 16.102 4.974 31.382 12.566 46.511 26.275-2.579 50.777-9.537 67.963-28.494 3.346-3.69 4.667-11.49 3.645-22.13-0.672-6.995-2.159-14.71-3.649-22.43z" /></svg>