<svg xmlns="http://www.w3.org/2000/svg" width="100%" height="100%" viewBox="0 0 588.8 588.8"><path d="M229.42 63.74599999999998l-22.9 34.35h30.714l22.9-34.35H229.42z m52.347 0l-22.898 34.35h71.06l-22.897-34.35h-25.266z m46.9 0l22.9 34.35h30.714l-22.9-34.35h-30.714z m-117.234 52.35l50.115 50.115-25.058-50.115h-25.057z m45.182 0L294.4 191.66499999999996l37.785-75.57h-75.57z m95.695 0l-25.058 50.115 50.115-50.115H352.31z m-134.435 31.898C147.563 177.89999999999998 98.09299999999998 247.68999999999997 98.09299999999998 328.748c0 108.185 88.122 196.306 196.307 196.306 108.185 0 196.307-88.12 196.307-196.306 0-81.057-49.47-150.848-119.782-180.754l-30.517 30.517c64.397 19.592 111.037 79.292 111.037 150.238 0 86.966-70.08 157.045-157.045 157.045-86.966 0-157.045-70.08-157.045-157.045 0-70.946 46.64-130.646 111.037-150.237l-30.517-30.516z" /></svg>