<svg xmlns="http://www.w3.org/2000/svg" width="100%" height="100%" viewBox="0 0 588.8 588.8"><path d="M57.52499999999998 57.055999999999976v6.032l54.438 53.906h0.03v0.03c2.217 2.217 3.63 2.42 6.063 2.032 2.434-0.39 5.708-2.133 8.28-4.75 2.575-2.617 4.295-5.977 4.69-8.5 0.393-2.522 0.15-3.913-1.876-5.937L86.36999999999998 57.05499999999998H57.52399999999997zM120.86999999999998 65.11999999999998l21.5 21.53c4.92 4.92 7.263 11.428 7.405 17.594 6.714 0.273 13.716 3.122 19.22 8.625l17.468 17.468c0.34-6.957-1.773-13.648-7.25-19.126l-36.782-36.78c-6.475-6.477-13.824-9.254-21.218-9.313-0.113-0.002-0.23-0.002-0.343 0z m-42.907 44.5c0.058 7.362 2.678 14.552 8.718 20.593l36.782 36.78c5.65 5.652 12.415 7.837 19.376 7.5l-17.72-17.718c-5.363-5.364-8.03-12.332-8.28-18.97-6.285-0.08-12.954-2.5-18-7.53l-0.032-0.03-20.843-20.626z m70.968 13.25c-0.31 0.01-0.615 0.026-0.936 0.06-2.572 0.284-5.678 1.858-8.125 4.407-2.45 2.55-4.063 5.91-4.345 8.688-0.282 2.778 0.198 4.917 2.813 7.53l76.187 76.19c2.197 2.196 3.592 2.374 6.063 1.968 2.47-0.407 5.784-2.178 8.406-4.844 2.62-2.667 4.4-6.098 4.812-8.657 0.412-2.56 0.16-3.933-1.844-5.938l-76.187-76.188c-2.667-2.666-4.665-3.29-6.844-3.218z m73.907 43.843l22.344 22.343c4.72 4.72 7.05 10.902 7.345 16.844 6.355 0.545 12.876 3.377 18.063 8.563l17.468 17.468c0.34-6.953-1.772-13.646-7.25-19.124l-36.78-36.78c-6.46-6.46-13.816-9.24-21.19-9.314z m-43.28 44.468c0.06 7.362 2.678 14.555 8.718 20.595l36.75 36.78c5.658 5.66 12.433 7.843 19.406 7.5l-17.718-17.718v-0.03c-5.076-5.085-7.768-11.573-8.25-17.876-6.042-0.275-12.34-2.682-17.156-7.5l-21.75-21.75z m70.937 13.282c-0.312 0.01-0.616 0.028-0.938 0.063-2.572 0.283-5.677 1.857-8.125 4.406-2.446 2.55-4.03 5.88-4.31 8.657-0.284 2.778 0.166 4.918 2.78 7.532l76.188 76.186c2.196 2.197 3.59 2.407 6.062 2 2.47-0.407 5.816-2.177 8.438-4.844 2.62-2.666 4.37-6.097 4.78-8.656 0.412-2.56 0.193-3.933-1.812-5.937l-76.187-76.19c-2.668-2.666-4.692-3.29-6.876-3.218z m71.03 29.97c-3.313 0.05-6.626 0.415-9.905 1.062l35.124 35.156c6.147 6.147 8.275 14.778 7.094 22.125-1.182 7.347-4.958 13.717-9.938 18.78-4.98 5.066-11.316 8.97-18.72 10.19-7.4 1.218-16.1-1.008-22.31-7.22l-35.845-35.844c-4.095 17.737 0.565 36.847 14.094 50.376 11.374 11.376 26.703 16.47 41.843 15.375l0.062 0.22c0.365-0.11 0.75-0.205 1.125-0.313 4.49-0.42 8.953-1.393 13.28-2.906 30.926-4.998 78.05-2.65 108.783 13.25 37.49 19.398 53.545 58.738 35.843 87.845-17.13 28.168-59.12 36.55-96.25 12.53l26.688-12.155-68.938-31.156 9.125 22.03 23.095 69.407 111.53-5.31 7.97-28.314 27.875-7.97 5.75-111.53-154.313-50.937c3.607-17.396-1.155-35.938-14.375-49.158-10.587-10.587-24.592-15.75-38.687-15.53z" /></svg>