<svg xmlns="http://www.w3.org/2000/svg" width="100%" height="100%" viewBox="0 0 588.8 588.8"><path d="M318.21599999999995 124.32999999999998L307.7 138.86499999999998l28.06 27.111 8.694-16.3z m-21.175 29.267l-42.282 58.436 37.246 35.984 34.946-65.525zM191.855 176.29999999999998l-46.816 29.192L344.85999999999996 398.54999999999995c4.08-1.929 8.605-3.15 13.539-3.15 3.881 0 7.508 0.76 10.867 2.02l-1.55-1.499 12.503-12.945L393.082 395.4l-10.268 10.63c4.31 3.924 8.02 8.35 11.486 12.745l11.077-11.465 12.859 12.426-12.508 12.945c3.62 4.436 8.724 9.265 13.916 10.43l10.908-11.293 5.016 4.846c3.702-3.574 7.58-8.457 11.63-13.664z m-98.623 4.168c-4.078 8.773-3.407 19.566-0.8 32.7 3.406 17.167 10.435 36.207 10.222 54.75-0.075 6.474-1.264 12.54-2.803 18.23l116.563 112.615C220.60799999999998 396.71 225.28499999999997 395.4 230.39999999999998 395.4c9.367 0 17.28 4.373 23.41 9.713 6.13 5.34 11.027 11.762 15.694 17.762 4.666 6 9.103 11.577 13.306 15.238 4.203 3.66 7.623 5.287 11.59 5.287 3.967 0 7.387-1.627 11.59-5.287s8.64-9.238 13.306-15.238c3.429-4.408 6.985-9.042 11.06-13.309z m106.947 28.569l12.862 12.425-12.508 12.946-12.862-12.426z m208.06 2.263l-10.517 14.536 28.059 27.109 8.693-16.299zM225.89999999999998 233.88599999999997l12.86 12.424-12.504 12.945-12.86-12.423z m161.165 6.682l-42.283 58.436 37.246 35.982 34.945-65.524zM251.61999999999998 258.734l12.861 12.424-12.504 12.945-12.861-12.424z m25.722 24.85l12.86 12.423-12.508 12.946-12.86-12.424z m221.084 15.191l-10.517 14.537 28.06 27.11 8.694-16.301zM93.95999999999998 305.484a66.9 66.9 0 0 0-0.627 2.52c-2.532 11.232-2.865 18.802 7.882 29.185l89.479 86.453c0.203-0.26 0.4-0.506 0.603-0.767 3.338-4.292 6.802-8.794 10.743-12.967z m209.103 2.947l12.86 12.424-12.508 12.945-12.86-12.423z m174.188 19.612l-42.145 58.246 23.654 22.855a68.962 68.962 0 0 1 4.23-4.031C469.12 399.77299999999997 477.034 395.4 486.4 395.4c0.082 0 0.162 0.005 0.244 0.006l20.516-38.469z m-148.467 5.236l12.86 12.426-12.509 12.945-12.859-12.426z m25.72 24.85l12.86 12.423-12.508 12.946-12.86-12.424zM102.39999999999998 413.4c-19.807 5.72-33.274 18.147-46 31.898v30.579l0.01-0.006C69.92499999999998 467.02 86.09999999999998 457.4 102.39999999999998 457.4s27.881 10.654 37.842 19.154C150.202 485.054 158.54399999999998 491.4 166.39999999999998 491.4c7.856 0 16.197-6.346 26.158-14.846C202.51999999999998 468.054 214.09999999999997 457.4 230.39999999999998 457.4c16.3 0 27.881 10.654 37.842 19.154C278.202 485.054 286.544 491.4 294.4 491.4c7.856 0 16.197-6.346 26.158-14.846C330.52 468.054 342.09999999999997 457.4 358.4 457.4c16.3 0 27.881 10.654 37.842 19.154C406.202 485.054 414.544 491.4 422.4 491.4c7.856 0 16.197-6.346 26.158-14.846C458.52 468.054 470.09999999999997 457.4 486.4 457.4c16.3 0 32.475 9.62 45.99 18.47l0.01 0.007v-30.578c-9.969-10.693-33.06-31.31-46-31.899-3.967 0-7.387 1.627-11.59 5.287C458.17999999999995 434.686 445.825 460.991 422.4 461.4c-27.151-1.916-36.8-28.488-52.41-42.713-4.203-3.66-7.623-5.287-11.59-5.287-3.967 0-7.387 1.627-11.59 5.287C330.17999999999995 434.686 317.825 460.991 294.4 461.4c-27.151-1.916-36.8-28.488-52.41-42.713-4.203-3.66-7.623-5.287-11.59-5.287-3.967 0-7.387 1.627-11.59 5.287C202.17999999999998 434.686 189.825 460.991 166.39999999999998 461.4c-27.151-1.916-36.8-28.488-52.41-42.713C109.78699999999998 415.027 106.36699999999998 413.4 102.39999999999998 413.4z m0 62c-18.195 3.791-32.267 12.364-46 22.385V532.4h476v-34.615c-11.752-8.054-32.671-21.938-46-22.385-24.766 6.02-41.304 33.45-64 34-23.532 2.01-46.008-36.297-64-34-25.282 3.227-41.304 33.45-64 34-23.532 2.01-46.008-36.297-64-34-25.282 3.227-41.304 33.45-64 34-23.532 2.01-45.87-33.455-64-34z" /></svg>