<svg xmlns="http://www.w3.org/2000/svg" width="100%" height="100%" viewBox="0 0 588.8 588.8"><path d="M294.4 60.34999999999998l-5.4 4.03C225.89999999999998 111.80999999999997 163.79999999999998 142.89999999999998 68.97999999999998 158.7l-7.5 1.2v7.6c0 19 8.4 48.7 22.1 85.1 13.6 36.5 32.8 78.8 55.02 119.2 22.3 40.4 47.4 78.9 73.8 107.7 26.1 28.9 53.5 48.9 82 48.9s55.9-20 82.2-48.9c26.2-28.8 51.3-67.3 73.7-107.7 22.2-40.4 41.3-82.7 55-119.2 13.6-36.4 22-66.1 22-85.1v-7.6l-7.4-1.2c-94.6-15.8-156.9-46.89-220.1-94.32z m0 22.2c61.1 45.04 124.4 76.15 214.4 92.35-1.9 15.2-9 41.4-20.3 71.5-4.1 10.8-8.6 22.2-13.7 34H326.4v-48.9l64 16-96-111.96-96 111.96 64-16V280.4H113.96999999999997c-5-11.8-9.59-23.2-13.69-34-11.2-30.1-18.4-56.3-20.3-71.5C169.99999999999997 158.7 233.2 127.58999999999997 294.4 82.54999999999998z" /></svg>