<svg xmlns="http://www.w3.org/2000/svg" width="100%" height="100%" viewBox="0 0 588.8 588.8"><path d="M189.18999999999997 518.197l-85.27-185.08c-3.13-6.79-0.15-14.862 6.634-17.993l129.163-59.51c6.783-3.12 14.862-0.15 17.987 6.646l85.283 185.067c3.13 6.802 0.15 14.863-6.646 18L207.18999999999997 524.8299999999999c-6.795 3.144-14.868 0.15-18-6.633z m26.17-69.31l15.318-44.522 44.522 15.32 7.66-22.253-44.523-15.318 15.325-44.522-22.252-7.66-15.325 44.516-44.515-15.324-7.66 22.258 44.516 15.324-15.324 44.522z m106.07-211.05c47.9-85.625-53.11-105.304-102.586-62.593l-38.9 51.353C144.34999999999997 248.39999999999998 136.253 214.37999999999997 147.62599999999998 196.82399999999998l54.106-73.515 97.158-52.146c7.108-5.2 17.838-8.133 32.767-8.445l194.467 1.463 0.866 112.044-107.304-7.725c1.818 43.394-42.734 53.08-66.683 106.905l-13.813 46.38c-30.217-10.16-41.29-34.367-17.76-83.95z m-129.828-3.077l39.046-51.33c12.434-10.477 29.51-17.675 46.92-17.375-15.264 16.008-20.158 25.557-23.475 39.046-8 19.775-17.74 29.69-30.366 23.296-10.712 10.322-21.412 14.87-32.125 6.364z" /></svg>