<svg xmlns="http://www.w3.org/2000/svg" width="100%" height="100%" viewBox="0 0 588.8 588.8"><path d="M294.4 83.39999999999998c-35.333 0-70.707 3.979-98.607 11.676-26.393 7.28-45.193 18.363-52.12 29.449l31.352 297.842c0.901 0.593 3.648 2.66 9.256 4.601 6.885 2.383 16.619 4.618 28.043 6.45 22.848 3.662 52.539 5.814 82.17 6.12 29.63 0.307 59.297-1.236 82.039-4.732 11.37-1.747 21.026-4.017 27.777-6.54 5.909-2.21 8.64-4.599 9.408-5.374l31.409-298.367C438.2 113.43899999999998 419.4 102.35599999999998 393.007 95.07499999999997 365.10699999999997 87.37999999999997 329.733 83.39999999999998 294.4 83.39999999999998z m-0.01 59.137c37.028-0.094 74.071 6.24 114.76 19.293l6.855 2.199-20.869 233.723c-4.116 6.372-11.53 9.046-17.246 10.585-6.246 1.69-13.85 2.969-22.557 4C337.91999999999996 414.40099999999995 316.17999999999995 415.4 294.4 415.4c-21.78 0-43.52-0.999-60.934-3.063-8.707-1.031-16.31-2.31-22.556-4-9.482-3.465-12.11-3.738-17.246-10.585L173.43499999999997 171.2l-0.644-7.235 6.931-2.158c40.627-12.657 77.64-19.178 114.668-19.271zM294.4 170.39999999999998c-28.005 0.057-54.002 20.112-68.746 53.033 5.885-0.227 12.083-0.352 18.184-0.16 7.3 0.23 14.433 0.904 20.63 2.367 8.487 2.004 14.262 7.006 19.086 10.494C288.378 239.62199999999999 291.77299999999997 241.39999999999998 294.4 241.39999999999998c2.627 0 6.022-1.778 10.846-5.266s10.599-8.49 19.086-10.494c11.391-2.689 25.927-2.706 38.869-2.205C348.447 190.48999999999998 322.42499999999995 170.43099999999998 294.4 170.39999999999998z m163.918 0.762l-2.17 20.607c7.773 6.04 14.416 13.272 17.897 21.973 5.96 14.901 4.597 36.162-19.118 69.097 1.775 0.94 3.485 1.911 5.11 2.924 3.523 2.196 6.772 4.686 9.568 7.45 25.766-36.133 29.768-64.61 21.15-86.155-6.63-16.577-19.586-27.807-32.437-35.896z m-225.123 70.111c-3.457 0.032-6.9 0.13-10.17 0.28-5.127 0.234-9.238 0.567-13.102 0.876l14.625 53.547c4.92-4.038 10.766-6.576 17.352-6.576 9.26 0 17.052 5.018 22.863 12.176 2.636-5.164 5.46-9.81 8.405-13.783C278.864 280.10299999999995 284.4 273.4 294.4 273.4s15.537 6.703 21.232 14.393c2.944 3.974 5.77 8.62 8.405 13.783C329.847 294.41799999999995 337.64 289.4 346.9 289.4c8.432 0 15.648 4.163 21.26 10.31l11.445-57.232c-3.974-0.324-8.418-0.678-13.83-0.926-13.078-0.597-28.938-0.368-37.307 1.608-3.12 0.736-7.383 3.733-12.675 7.56C310.5 254.54699999999997 303.69899999999996 259.4 294.4 259.4c-9.299 0-16.1-4.853-21.393-8.68-5.292-3.827-9.555-6.824-12.675-7.56-4.185-0.988-10.241-1.54-16.887-1.77a236.535 236.535 0 0 0-10.25-0.117zM294.4 291.99199999999996c-0.988 0.786-3.837 2.56-6.768 6.515-4.175 5.638-8.738 14.157-12.427 24.065C277.28999999999996 329.868 278.4 337.917 278.4 346.4c0 14.648-3.288 28.016-9.246 38.416-0.581 1.014-1.205 2-1.852 2.967 9.34 5.148 17.63 9.499 27.098 9.617 11.958-0.485 18.348-4.945 27.088-9.633a50.455 50.455 0 0 1-1.842-2.951C313.688 374.416 310.4 361.048 310.4 346.4c0-8.483 1.11-16.532 3.195-23.828-3.689-9.908-8.252-18.427-12.427-24.065-2.93-3.956-5.78-5.729-6.768-6.515z m-150.568 5.984c-2.028 1.006-3.887 2.027-5.545 3.06C130.022 306.19 127.39999999999998 310.52599999999995 127.39999999999998 314.4v77.41c7.838-2.207 16.466-4.295 25.65-6.265z m301.136 0l-9.218 87.569c9.184 1.97 17.812 4.058 25.65 6.265V314.4c0-3.875-2.622-8.211-10.887-13.363-1.658-1.034-3.517-2.055-5.545-3.06zM241.89999999999998 307.4c-3.349 0-7.642 2.56-11.637 9.533C226.26799999999997 323.90599999999995 223.39999999999998 334.53799999999995 223.39999999999998 346.4c0 11.862 2.868 22.494 6.863 29.467 3.995 6.973 8.288 9.533 11.637 9.533s7.642-2.56 11.637-9.533C257.532 368.894 260.4 358.262 260.4 346.4c0-11.862-2.868-22.494-6.863-29.467-3.995-6.973-8.288-9.533-11.637-9.533z m105 0c-3.349 0-7.642 2.56-11.637 9.533C331.268 323.90599999999995 328.4 334.53799999999995 328.4 346.4c0 11.862 2.868 22.494 6.863 29.467 3.995 6.973 8.288 9.533 11.637 9.533s7.642-2.56 11.637-9.533C362.532 368.894 365.4 358.262 365.4 346.4c0-11.862-2.868-22.494-6.863-29.467-3.995-6.973-8.288-9.533-11.637-9.533z m-191.943 96.26c-21.468 4.788-39.163 10.107-48.532 14.79-5.316 2.66-10.276 8.685-14.285 17.817s-6.92 20.982-8.845 33.502c-3.292 21.397-3.67 43.333-3.749 59.631h79.827l14.297-57.184 17.46 4.368L177.92699999999996 529.4h232.946l-13.203-52.816 17.46-4.368L429.42699999999996 529.4h79.827c-0.08-16.298-0.457-38.234-3.749-59.63-1.926-12.521-4.836-24.37-8.845-33.503-4.01-9.132-8.969-15.158-14.285-17.816-9.369-4.684-27.064-10.004-48.532-14.791l-2.664 25.304c-4.272 8.564-13.55 13.506-20.564 16.163-8.624 3.224-19.219 5.606-31.348 7.47-24.258 3.729-54.592 5.254-84.96 4.94-30.37-0.314-60.679-2.474-84.83-6.346-12.077-1.936-22.593-4.273-31.083-7.21-10.34-4.82-15.85-6.412-20.738-14.686z" /></svg>