<svg xmlns="http://www.w3.org/2000/svg" width="100%" height="100%" viewBox="0 0 588.8 588.8"><path d="M177.59999999999997 56.37999999999998L139.29999999999998 289.5l65.7-227.83 0.2-0.75z m96.7 15.9l166.5 47.94 3.3-20.02z m-54.5 3.02L109.56999999999998 457.59999999999997 369 532.4l110.2-382.4z m9.4 50.55L444.4 187.89999999999998l-5 17.2-215.2-62z m23.9 90.15l123 35.4-5 17.2-123-35.4z m19.5 59.8c9.5 0 19.1 1.3 28.7 4.1 55.6 16 87.9 74.3 71.8 129.9-16 55.7-74.3 87.9-129.9 71.8-55.7-16-87.9-74.3-71.9-129.9 13.3-46.1 55.6-76.1 101.3-75.9z m-0.1 17.9c-23.8-0.1-46.4 9.6-62.7 26.3l35.4 10.2c8-13.8 18.2-26.3 30.1-36.5h-2.8z m22.6 7.7c-12.5 8.6-23.3 20.4-31.9 34l40.8 11.8c-0.1-16.1-2.9-31.9-8.9-45.8z m20.8 4c4.7 15 6.6 31 6.1 47l35.4 10.2c-5.1-23.8-20-44.7-41.5-57.2z m-117.9 29.9c-4 6.5-7.2 13.7-9.4 21.4-2.2 7.6-3.3 15.3-3.4 22.8l38.9 11.2c1.1-7.6 2.8-15.1 4.9-22.5 2.1-7.4 4.8-14.7 7.9-21.7z m56.4 16.2c-3.3 7-6 14.3-8.1 21.7-2.1 7.4-3.7 15-4.6 22.6l48.4 14c3.2-7 6-14.2 8.1-21.7 2.1-7.4 3.7-15 4.6-22.6z m66 19c-1.1 7.6-2.8 15.2-4.9 22.6-2.1 7.4-4.8 14.7-7.9 21.8l38.9 11.2c3.9-6.5 7.1-13.6 9.3-21.3 2.2-7.7 3.3-15.4 3.5-23.1z m-133.4 28.2c5 23.9 20 45 41.8 57.5-4.8-15.1-6.8-31.1-6.3-47.3z m53.5 15.4c0.1 16.2 2.9 31.9 8.9 45.9 12.5-8.7 23.3-20.5 32-34.1z m58.8 17c-8.1 13.9-18.3 26.4-30.3 36.6 25 1 48.8-8.9 65.8-26.4z" /></svg>