<svg xmlns="http://www.w3.org/2000/svg" width="100%" height="100%" viewBox="0 0 588.8 588.8"><path d="M299.96299999999997 102.67999999999998A191.758 191.758 0 0 0 102.64999999999998 294.4a191.758 191.758 0 1 0 383.5 0A191.758 191.758 0 0 0 299.962 102.67999999999998z m-4.625 9.126l8.937 5.156v10.313l-8.938 5.156-8.906-5.155V116.96199999999997l8.907-5.156z m3.53 29.25A153.407 153.407 0 0 1 447.80699999999996 294.4a153.407 153.407 0 0 1-306.812 0A153.407 153.407 0 0 1 298.87 141.05599999999998z m-11.53 20.03a133.607 133.607 0 0 0-65.157 20.908V406.62a133.607 133.607 0 0 0 65.157 21.092V161.08799999999997z m17.687 0.314v266.125a133.607 133.607 0 0 0 63.438-22.03V183.39999999999998a133.607 133.607 0 0 0-63.438-22z m-100.5 34.344A133.607 133.607 0 0 0 160.80499999999998 294.4a133.607 133.607 0 0 0 43.72 98.78V195.74499999999998z m-60.72 1.625l8.907 5.155v10.28l-8.906 5.157-8.937-5.156v-10.28l8.936-5.157z m300.5 0l8.94 5.155v10.28l-8.94 5.157-8.905-5.156v-10.28l8.906-5.157z m-58.155 0.093V391.42999999999995A133.607 133.607 0 0 0 427.99399999999997 294.4a133.607 133.607 0 0 0-41.844-96.938z m57.813 173.125l8.937 5.156v10.312l-8.938 5.156-8.906-5.156v-10.312l8.906-5.156z m-299.813 0.718l8.938 5.156v10.313l-8.938 5.156-8.938-5.155v-10.313l8.938-5.156z m149.906 85.188l8.938 5.156v10.313l-8.938 5.156-8.906-5.158V461.65l8.906-5.156z" /></svg>