<svg xmlns="http://www.w3.org/2000/svg" width="100%" height="100%" viewBox="0 0 588.8 588.8"><path d="M360.64799999999997 124.08399999999997L99.83199999999998 263.11699999999996l-41.145 109.94 7.233 3.85 153.673 81.8 308.495-164.215-37.752-99.903-129.688-70.506z m119.035 95.187l25.11 66.45-102.56 54.594L468.78999999999996 225.03999999999996l10.893-5.77z m-89.576 47.417L323.35699999999997 382.29999999999995l-41.67 22.182 72.195-118.62 36.225-19.175zM110.77999999999997 287.17999999999995l28.21 14.933-54.012 54.012L110.77999999999997 287.17999999999995z m210.827 15.767L249.58999999999997 421.27l0.26 0.16-17.208 9.16 5.795-83.618 83.17-44.025z m-165.334 8.312l16.963 8.98-60.445 60.445-16.93-9.012 60.413-60.414zM219.81999999999996 345.29999999999995l-6.174 89.07-54.1-28.798 60.274-60.272z" /></svg>