<svg xmlns="http://www.w3.org/2000/svg" width="100%" height="100%" viewBox="0 0 588.8 588.8"><path d="M59.39999999999998 59.39999999999998v71.6751h71.675v-71.6751h-71.675z m104.575 0v71.6751h260.85v-71.6751h-260.85z m293.75 0v71.6751h71.675v-71.6751h-71.675z m-398.325 104.575v260.85h71.675v-260.85h-71.675z m104.575 0v260.85h31.8719c2.6667-45.8772 36.6737-83.2489 80.9281-91.2094v-78.4313c-44.2544-7.9605-78.2614-45.3321-80.9281-91.2094h-31.8719z m228.9781 0c-2.6667 45.8773-36.6738 83.2489-80.9281 91.2094v78.4313c44.2543 7.9605 78.2614 45.3321 80.9281 91.2094h31.8719v-260.85h-31.8719z m64.7719 0v260.85h71.675v-260.85h-71.675z m-398.325 293.75v71.675h71.675v-71.675h-71.675z m104.575 0v71.675h260.85v-71.675h-260.85z m293.75 0v71.675h71.675v-71.675h-71.675z" /></svg>