<svg xmlns="http://www.w3.org/2000/svg" width="100%" height="100%" viewBox="0 0 588.8 588.8"><path d="M230.39999999999998 79.39999999999998c-13 0-27.2 6.75-39.5 17.73-12.4 10.97-22.6 25.97-28.1 40.43-5.4 14.44-5.7 27.84-1 36.54S176.39999999999998 189.39999999999998 198.39999999999998 189.39999999999998h192c22 0 31.9-6.6 36.6-15.3 4.7-8.7 4.4-22.1-1-36.54-5.5-14.46-15.7-29.46-28.1-40.43C385.59999999999997 86.14999999999998 371.4 79.39999999999998 358.4 79.39999999999998H230.39999999999998z m-23 128v270h174V207.39999999999998H207.39999999999998zM70.39999999999998 292.4v36h119v-36H70.39999999999998z m329 0v36h119v-36H399.4zM125.39999999999998 470.4v25H111.39999999999998v30h366v-30h-14v-25h-18v25H143.39999999999998v-25H125.39999999999998z" /></svg>