<svg xmlns="http://www.w3.org/2000/svg" width="100%" height="100%" viewBox="0 0 588.8 588.8"><path d="M114.39999999999998 54.39999999999998v110.625s21.708-11.927 32.343-9.843c15.5 1.78 28.554 14.896 30.468 24.375-12.995 2.602-22.967 16.39-22.967 32.812 0 18.283 12.508 33.28 27.657 33.28 1.462 0 4.692 0.73 6.093 0.47l37.968 158.906V534.4h51.094V146.74499999999998l-25.313 18.282s-8.972-27.62-34.686-55.312C191.33999999999997 82.02399999999997 114.39699999999998 54.40199999999997 114.39699999999998 54.40199999999997z m197.343 0v387.657l25.312-18.282s8.973 27.62 34.688 55.313C397.457 506.78 474.4 534.4 474.4 534.4V423.775s-21.708 11.927-32.343 9.843c-15.5-1.78-28.554-14.896-30.468-24.375 12.995-2.603 22.967-16.39 22.967-32.813 0-18.283-12.508-33.28-27.657-33.28-1.462 0-4.692-0.73-6.093-0.47L362.84 183.77499999999998V54.39999999999998h-51.094z" /></svg>