<svg xmlns="http://www.w3.org/2000/svg" width="100%" height="100%" viewBox="0 0 588.8 588.8"><path d="M59.74999999999998 64.49999999999997l-2.68 15.78L421.09999999999997 142.29999999999998l2.6-15.79L59.74999999999998 64.49999999999997z m-0.55 57.94l-1.58 15.92L421.59999999999997 174.39999999999998l1.6-16-364-35.96z m202.6 52.16c-1.8 7.8-7.7 19.5-14.3 31C239.49999999999997 219.39999999999998 230.39999999999998 232.39999999999998 230.39999999999998 246.39999999999998c0 18.7 9.8 31.1 18 40.3 8.2 9.3 14 15.3 14 23.7 0 5.7-3.3 14.8-7.8 24h18c3.4-7.9 5.8-16 5.8-24 0-15.5-10.2-25.5-18-34.3-7.8-8.8-14-16.4-14-29.7 0-4.9 6.9-18.8 14.9-32.8 7-12.1 14.8-24.6 16.7-37.4l-16.2-1.6z m40 4c-1.7 7.5-7.5 18.2-14.2 28.8-8 12.8-17.2 25-17.2 39 0 18.7 9.8 31.1 18 40.3 8.2 9.3 14 15.3 14 23.7 0 5.7-3.3 14.8-7.8 24h18c3.4-7.9 5.8-16 5.8-24 0-15.5-10.2-25.5-18-34.3-7.8-8.8-14-16.4-14-29.7 0-4.9 6.8-17.6 14.8-30.5 7-11.3 14.8-23.1 16.8-35.8l-16.2-1.5z m40 3.9c-1.7 7.2-7.4 16.9-14 26.7-8 11.8-17.4 23.2-17.4 37.2 0 18.7 9.8 31.1 18 40.3 8.2 9.3 14 15.3 14 23.7 0 5.7-3.3 14.8-7.8 24h18c3.4-7.9 5.8-16 5.8-24 0-15.5-10.2-25.5-18-34.3-7.8-8.8-14-16.4-14-29.7 0-4.9 6.6-16.4 14.6-28.3 7-10.4 15-21.5 16.9-34l-16.1-1.6zM78.72999999999998 350.4c1.68 42.5 16.6 76.8 48.58 101.7C161.29999999999998 478.5 215.49999999999997 494.4 294.4 494.4s133.1-15.9 167.1-42.3c32-24.9 46.9-59.2 48.6-101.7H78.72999999999998zM230.39999999999998 510.4v16h128v-16H230.39999999999998z" /></svg>