<svg xmlns="http://www.w3.org/2000/svg" width="100%" height="100%" viewBox="0 0 588.8 588.8"><path d="M294.4 70.39999999999998A224 224 0 0 0 70.39999999999998 294.4a224 224 0 0 0 224 224 224 224 0 0 0 224-224A224 224 0 0 0 294.4 70.39999999999998z m0 40a184 184 0 0 1 184 184 184 184 0 0 1-184 184A184 184 0 0 1 110.39999999999998 294.4 184 184 0 0 1 294.4 110.39999999999998z m0 48a136 136 0 0 0-136 136 136 136 0 0 0 136 136 136 136 0 0 0 136-136 136 136 0 0 0-136-136z m-0.994 47.834c9.848-0.197 19.708 1.524 29.002 4.752 26.805 8.13 47.273 30.513 55.82 56.678l-63.05-1.285L294.4 206.60199999999998l-20.777 59.776-63.27 1.288L260.78 305.9l-18.02 59.563c-20.54-15.486-34.84-39.655-36.673-65.24-4.02-48.442 39.505-94.682 87.32-93.99z m84.87 61.564c3.95 12.16 5.334 25.13 3.57 37.866-2.29 24.324-16.34 45.71-35.82 59.754L328.018 305.9l50.255-38.102zM294.4 330.32599999999996l51.04 35.515c-15.884 11.27-35.293 17.685-54.886 16.857-17.256-0.38-33.59-6.7-47.234-16.826L294.4 330.327z" /></svg>