<svg xmlns="http://www.w3.org/2000/svg" width="100%" height="100%" viewBox="0 0 588.8 588.8"><path d="M303.74399999999997 55.89999999999998l-4.188 25.313c-17.994-0.1-35.62 2.066-52.562 6.28l-9.438-25.062-55.125 20.75 9.907 26.282c-15.008 8.587-28.96 18.95-41.5 30.876L128.39999999999998 121.92999999999998l-37.375 45.5L114.14999999999998 186.39999999999998c-8.54 14.428-15.47 30.036-20.5 46.594l-30.063-4.97-9.593 58.095L84.39999999999998 291.15c-0.374 17.218 1.313 34.127 4.906 50.438L60.39999999999998 352.46299999999997l20.75 55.125 28.625-10.782c8.07 15.027 17.91 29.046 29.28 41.75L120.08799999999998 461.65l45.532 37.344 18.343-22.344c14.386 9.118 30.04 16.577 46.687 22.125l-4.53 27.5 58.093 9.594 4.343-26.283c18.046 0.874 35.764-0.54 52.875-4.03l8.97 23.78 55.094-20.75-8.53-22.656c16.126-8.343 31.134-18.683 44.655-30.78l17.936 14.72 37.344-45.533-17.188-14.093c9.733-15.35 17.606-32.125 23.25-50.03l21.407 3.53 9.56-58.094-21.06-3.47c0.608-18.84-1.282-37.305-5.408-55.06l19.844-7.47-20.75-55.125-20.187 7.594c-8.89-16.114-19.817-31.033-32.5-44.376l14.155-17.25-45.5-37.375-14.72 17.936c-15.396-9.116-32.13-16.37-49.936-21.47l3.967-24.092-58.093-9.594z m-8.03 47.938c11.136-0.15 22.437 0.685 33.81 2.562C433.513 123.56399999999998 504.065 222.00599999999997 486.9 325.99399999999997 469.736 429.97999999999996 371.294 500.534 267.306 483.37 163.32 466.203 92.76599999999998 367.76 109.92999999999998 263.774c15.02-90.99 92.292-156.386 181.032-159.813 1.585-0.06 3.16-0.103 4.75-0.124z m0.217 18.687c-1.437 0.018-2.88 0.04-4.31 0.094-80.154 3.037-149.672 61.917-163.25 144.186-15.52 94.022 47.977 182.606 142 198.125 94.02 15.52 182.573-47.977 198.093-142 15.52-94.02-47.947-182.573-141.97-198.092-10.283-1.698-20.496-2.44-30.562-2.313z m0.408 18.156c9-0.116 18.145 0.546 27.343 2.064 84.096 13.88 140.85 93.092 126.97 177.187-13.88 84.096-93.06 140.85-177.156 126.97-25.808-4.26-49.03-14.68-68.438-29.5l109.688-133.625 52.844 43.375 58.437-71.188-108.22-88.78-101.842 35.53 71 58.25L179.17999999999998 392.33799999999997c-26.985-33.066-40.165-77.126-32.655-122.625 12.146-73.583 74.283-126.223 145.97-128.937 1.28-0.048 2.557-0.077 3.843-0.094z" /></svg>