<svg xmlns="http://www.w3.org/2000/svg" width="100%" height="100%" viewBox="0 0 588.8 588.8"><path d="M294.4 165.36999999999998c-86.364 0-225.564 39.103-234.6 109.96-9.828 90.817 77.986 124.365 144.875 128.814v-78.592c-52.133 0-70.272-22.63-66.675-50.222 7.275-55.81 100.12-63.614 156.4-63.614s149.125 7.805 156.4 63.614c3.597 27.59-14.542 50.222-66.675 50.222v78.592c66.89-4.45 154.703-37.997 144.875-128.814-5.604-78.746-148.236-109.96-234.6-109.96z m71.656 152.257l-143.312 0.02V423.27l143.312 0.157V317.626z m-17.642 21.507v23.606h-82.29v19.592h82.29v21.523h-104.12V339.2h32.33l71.79-0.066z" /></svg>