<svg xmlns="http://www.w3.org/2000/svg" width="100%" height="100%" viewBox="0 0 588.8 588.8"><path d="M296.4 60.28999999999998c-0.5 0-1.2 0-1.8 0.12-4.6 0.85-10.1 5.1-13.7 14.81-3.8 9.7-4.6 23.53-1.3 38.34 3.4 14.63 10.4 27.24 18.2 34.94 7.6 7.7 14.5 9.8 19.1 9 4.8-0.7 10.1-5.1 13.7-14.7 3.8-9.64 4.8-23.66 1.4-38.35-3.5-14.8-10.4-27.29-18.2-34.94-6.6-6.8-12.7-9.22-17.4-9.22zM411.79999999999995 189.79999999999998c-11 0.3-24.9 3.2-38.4 8.9-15.6 6.8-27.6 15.9-34.2 24.5-6.6 8.3-7.2 14.6-5.1 18.3 2.2 3.7 8.3 7.2 20 7.7 11.7 0.7 27.5-2.2 43-8.8 15.5-6.7 27.7-15.9 34.3-24.3 6.6-8.3 7.1-14.8 5-18.5-2.1-3.8-8.3-7.1-20-7.5-1.6-0.3-3-0.3-4.6-0.3z m-136.3 92.9c-6.6 0.1-12.6 0.9-18 2.3-11.8 3-18.6 8.4-20.8 14.9-2.5 6.5 0 14.3 7.8 22.7 8.2 8.2 21.7 16.1 38.5 20.5 16.7 4.4 32.8 4.3 44.8 1.1 12.1-3.1 18.9-8.6 21.1-15 2.3-6.5 0-14.2-8.1-22.7-7.9-8.2-21.4-16.1-38.2-20.4-9.5-2.5-18.8-3.5-27.1-3.4z m160.7 58.1L374.4 370.09999999999997c4.2 0.2 14.7 0.5 14.7 0.5l6.6 8.7 54.7-28.5-14.2-10z m-54.5 0.1l-57.4 27.2c5.5 0.3 18.5 0.5 23.7 0.8l49.8-23.6-16.1-4.4z m92.6 10.8l-70.5 37.4 14.5 18.7 74.5-44.6-18.5-11.5z m-278.8 9.1a40.33 40.33 0 0 0-9 1c-71.5 16.5-113.7 17.9-126.2 17.9H56.39999999999998v107.5s11.6-1.7 30.9-1.8c37.3 0 103 6.4 167 43.8 3.4 2.1 10.7 2.9 19.8 2.9 24.3 0 61.2-5.8 69.7-9C429.4 491 532.4 402.9 532.4 402.9l-32.5-28.4s-79.8 50.9-89.9 55.8c-91.1 44.7-164.9 16.8-164.9 16.8s119.9 3 158.4-27.3l-22.6-34s-82.8-2.3-112.3-6.2c-15.4-2-48.7-18.8-73.1-18.8z" /></svg>