<svg xmlns="http://www.w3.org/2000/svg" width="100%" height="100%" viewBox="0 0 588.8 588.8"><path d="M102.39999999999998 86.39999999999998c-8.726 0-16 7.274-16 16v384c0 8.726 7.274 16 16 16h215v-16H102.39999999999998V102.39999999999998h63.375v97.53c0 3.924 3.443 7.095 7.72 7.095h169.81c4.277 0 7.72-3.17 7.72-7.094V102.39999999999998h69.22c0.428 0.318 0.8 0.548 1.467 1.094 2.05 1.675 4.962 4.264 8.375 7.406 6.827 6.283 15.65 14.837 24.313 23.5 8.663 8.663 17.217 17.486 23.5 24.313 3.142 3.413 5.73 6.324 7.406 8.374 0.546 0.668 0.776 1.04 1.094 1.47V368.65l16 16V166.39999999999998c0-2.68-0.657-3.402-1.03-4.156-0.375-0.754-0.725-1.294-1.095-1.844-0.74-1.1-1.575-2.19-2.594-3.438-2.036-2.492-4.768-5.55-8.03-9.093-6.524-7.09-15.155-16-23.938-24.782-8.782-8.783-17.692-17.414-24.78-23.938-3.545-3.262-6.6-5.994-9.094-8.03-1.247-1.02-2.337-1.855-3.438-2.595-0.55-0.37-1.09-0.72-1.844-1.094-0.754-0.373-1.477-1.03-4.156-1.03H102.39999999999998z m87.72 16h48.56c4.277 0 7.72 4.425 7.72 9.938v70.124c0 5.513-3.443 9.938-7.72 9.938h-48.56c-4.277 0-7.72-4.425-7.72-9.938V112.33799999999998c0-5.512 3.443-9.937 7.72-9.937zM152.39999999999998 250.39999999999998c-4.432 0-8 3.568-8 8v184c0 4.432 3.568 8 8 8h165v-28h-76.72l15.345-15.375 128-128L390.4 272.67999999999995l6.375 6.345L444.4 326.65V258.4c0-4.432-3.568-8-8-8H152.39999999999998z m238 47.75L284.15 404.4H335.4v128h110V404.4h51.25L390.4 298.15zM486.4 422.4v64h-23v16h23c8.726 0 16-7.274 16-16v-64h-16z" /></svg>