<svg xmlns="http://www.w3.org/2000/svg" width="100%" height="100%" viewBox="0 0 588.8 588.8"><path d="M220.271 115.97599999999997c-0.672 0.802-1.21 1.352-2.09 2.604-2.958 4.21-6.754 10.665-10.885 18.49-8.26 15.65-17.977 36.874-27.13 58.682-9.153 21.807-17.77 44.245-23.926 62.4-3.079 9.077-5.542 17.097-7.135 23.3-1.593 6.205-2.044 11.25-2.049 11.192 0.537 6.396 8.554 21.199 21.145 34.817 11.975 12.952 27.628 25.389 42.447 33.199l23.129-3.598c-7.969-35.558-13.113-76.542-11.23-129.973l17.988 0.635c-1.852 52.556 3.213 91.985 11.064 126.567l16.707-2.6c13.433-12.352 26.845-29.567 36.531-46.15 10.11-17.306 15.577-34.665 15.04-41.06 0.004 0.058-1.226-4.563-3.786-10.073-2.56-5.51-6.277-12.541-10.77-20.418-8.984-15.754-21.083-34.944-33.597-53.35-12.514-18.406-25.483-36.074-36.068-48.717-5.293-6.32-10.031-11.4-13.502-14.496-0.846-0.754-1.23-0.954-1.883-1.45z m226.416 24.496c-0.709 0.48-1.167 0.712-2.103 1.46-3.604 2.875-8.538 7.56-14.09 13.388-11.104 11.656-24.832 27.933-38.164 44.89-13.332 16.958-26.309 34.638-36.037 49.15-4.865 7.257-8.921 13.735-11.752 18.804-2.832 5.068-4.31 9.436-4.254 9.084-0.848 5.417 3.227 21.195 11.91 37.011 8.28 15.082 20.114 30.763 32.23 42.032l23.41 3.5c13.424-36.418 19.391-73.044 23.348-110.16l17.899 1.908c-3.903 36.613-9.81 73.686-23.086 110.965l13.937 2.084c15.039-7.223 31.153-18.751 43.688-30.747 13.135-12.57 21.87-26.48 22.718-31.898-0.055 0.352-0.13-4.23-1.28-9.889-1.152-5.659-3.043-13.022-5.466-21.365-4.845-16.687-11.822-37.348-19.36-57.422-7.536-20.074-15.661-39.613-22.69-53.972-3.515-7.18-6.788-13.086-9.34-16.872-0.65-0.963-1-1.296-1.518-1.95z m-90.86 17.764c-0.785 0.49-1.474 0.877-2.626 1.766-3.474 2.677-8.191 6.984-13.483 12.324-8.892 8.972-19.506 20.893-30.14 33.613 4.112 6.675 7.95 13.12 11.38 19.135 4.656 8.163 8.565 15.524 11.458 21.75 0.609 1.311 1.158 2.51 1.685 3.691a397.403 397.403 0 0 1 7.24-11.176c9.81-14.634 22.551-32.008 35.74-48.847-3.304-5.966-6.52-11.492-9.523-16.293-3.788-6.058-7.275-11.007-9.922-14.115-0.79-0.93-1.233-1.29-1.808-1.848zM136.41999999999996 180.92699999999996c-0.621 0.688-1.175 1.247-2.04 2.416-2.607 3.527-5.962 8.964-9.587 15.55-7.252 13.17-15.707 31.01-23.594 49.286-0.402 0.932-0.796 1.868-1.195 2.801 10.136 8.842 19.668 17.615 27.615 25.492a362.473 362.473 0 0 1 3.334 3.358c0.235-0.938 0.455-1.833 0.717-2.854 1.772-6.903 4.351-15.247 7.525-24.605 5.314-15.67 12.305-34.149 19.894-52.748a309.253 309.253 0 0 0-7.01-6.56c-5.302-4.788-10.014-8.59-13.411-10.854-1.017-0.678-1.542-0.902-2.248-1.282zM532.4 208.81199999999998c-0.884 0.787-1.76 1.56-2.682 2.404-6.875 6.303-14.765 14.163-22.943 22.752 3.836 11.22 7.302 22.04 10.107 31.702 2.513 8.652 4.51 16.373 5.817 22.796 0.186 0.913 0.338 1.716 0.506 2.559A682.82 682.82 0 0 1 532.4 279.73799999999994v-70.926zM56.39999999999998 238.31999999999996v166.316l36.988-12.818c11.891-13.131 23.013-30.293 30.432-46.047 7.7-16.349 10.3-32.06 9.334-35.557 0.303 1.098-1.423-2.587-4.686-6.51-3.263-3.921-7.94-8.914-13.521-14.447-11.163-11.064-25.966-24.347-41.072-36.888A702.926 702.926 0 0 0 56.39999999999998 238.319z m270.46 64.518a244.554 244.554 0 0 1-6.48 11.783c-11.01 18.85-25.92 38.105-41.882 52.258l-1.977 1.751-69.021 10.737-2.56-1.272c-18.135-9.003-35.976-23.295-49.956-38.416a209.648 209.648 0 0 1-6.355-7.191c-2.09 6.65-5.074 13.628-8.524 20.953-8.495 18.04-20.846 37.169-34.879 52.217l-1.523 1.635L56.39999999999998 423.685v19.785c2.504-3.326 5.526-6.269 8.799-8.945 10.43-8.529 23.42-14.491 35.049-16.072 1.91-0.26 3.88-0.402 5.888-0.432 0.67-0.01 1.344-0.007 2.022 0.008 8.135 0.184 16.796 2.167 24.687 5.736 5.261 2.38 10.2 5.507 14.03 10.072 3.83 4.566 6.336 11.115 5.375 17.86-1.498 10.508-8.344 18.764-16.65 24.67-8.308 5.905-18.41 9.853-28.823 11.945-10.413 2.092-21.137 2.343-30.889-0.064-7.36-1.818-14.47-5.41-19.488-11.21V532.4h405.324a31.457 31.457 0 0 1-2.744-5.867c-2.913-8.395-1.009-17.234 3.168-24.057 4.177-6.823 10.36-12.284 17.357-16.82 12.244-7.938 26.94-13.229 40.438-13.81 0.964-0.042 1.922-0.06 2.873-0.053 0.95 0.007 1.894 0.04 2.828 0.097 2.242 0.138 4.5 0.456 6.756 0.924V398.21999999999997c-7.374-8.025-13.992-16.745-19.43-25.394-6.366-10.128-11.519-19.807-13.623-29.182a255.486 255.486 0 0 1-3.279 3.201c-14.522 13.898-32.741 27.021-50.861 35.264l-2.424 1.103-66.567-9.949-2.002-1.785c-14.79-13.176-28.176-31.035-37.794-48.557-3.779-6.882-7.073-13.59-9.56-20.084zM532.4 308.474l-0.162 0.21c-4.852 6.32-8.894 11.96-11.692 16.333-2.797 4.374-4.198 8.332-4.011 7.287-0.636 3.552 3.075 17.264 11.674 30.942a142.325 142.325 0 0 0 4.191 6.27v-61.042zM326.847 397.48999999999995c8.239-0.032 16.404 0.7 23.961 1.996 9.606 1.647 21.93 4.745 32.094 9.38 5.082 2.318 9.684 4.853 13.404 9.007 1.86 2.076 3.56 4.731 4.233 8.097 0.672 3.367-0.015 7.225-1.659 10.201-4.99 9.036-14.287 13.709-24.656 16.834-10.368 3.126-22.422 4.55-34.808 4.682-24.774 0.263-50.4-3.764-66.05-15.494-3.188-2.39-5.533-6.162-6.193-9.902-0.66-3.74 0.07-7.16 1.252-10.043 2.366-5.768 6.493-10.085 11.48-13.248 11.998-7.61 27.698-10.966 43.41-11.45 1.177-0.036 2.355-0.056 3.532-0.06z m2.268 18.346c-15.371 0.113-31.17 3.039-39.569 8.365-1.755 1.113-3.405 3.113-4.105 4.36 9.472 6.137 32.521 11.352 53.783 11.126 11.08-0.118 21.756-1.49 29.805-3.916 6.382-1.924 10.635-4.583 12.777-6.728-1.248-1.003-3.323-2.408-6.373-3.8-7.76-3.539-19.376-6.595-27.668-8.017-4.84-0.83-10.151-1.281-15.584-1.375a124.627 124.627 0 0 0-3.066-0.015zM104.91999999999997 436.10999999999996c-0.814 0.026-1.569 0.085-2.25 0.178-6.779 0.921-18.486 5.964-26.078 12.172-3.795 3.103-6.559 6.465-7.752 9.007-1.192 2.543-1.215 3.67-0.355 5.477 1.699 3.57 5.38 6.264 11.715 7.828s14.79 1.546 23.03-0.11c8.239-1.655 16.261-4.932 21.939-8.968 5.677-4.036 8.675-8.435 9.26-12.537 0.204-1.438 0.013-2.129-1.348-3.752-1.362-1.624-4.108-3.636-7.655-5.24-5.32-2.407-12.397-3.801-17.9-4.036a35.105 35.105 0 0 0-2.606-0.02z m417.872 53.7c-9.087 0.061-23.367 4.381-33.497 10.948-5.402 3.503-9.634 7.584-11.796 11.116-2.163 3.532-2.52 5.86-1.514 8.757 1.623 4.68 5.97 8.72 13.312 11.696 0.062 0.025 0.126 0.047 0.188 0.072H532.4v-40.793c-2.921-0.993-5.648-1.616-7.861-1.752-0.557-0.034-1.14-0.049-1.746-0.045z" /></svg>