<svg xmlns="http://www.w3.org/2000/svg" width="100%" height="100%" viewBox="0 0 588.8 588.8"><path d="M281.556 71.83799999999998c-20.942-0.063-42.734 2.257-65.187 7.437C165.36299999999997 91.04299999999998 106.72199999999998 145.86999999999998 80.92999999999998 201.11999999999998 68.03599999999997 228.742 63.39999999999998 255.98 69.64999999999998 277.337c5.222 17.848 17.492 32.643 41.625 42.28-6.435-11.346-11.127-23.515-13.594-35.437L115.99499999999998 280.4c3.298 15.935 12.104 33.888 23.75 47.375 16.41 3.68 34.136 6.598 52.625 8.875-6.342-14.927-6.5-28.125-6.282-39.344l18.687 0.375c-0.273 13.994-0.577 24.996 9.97 41.408 18.157 1.672 36.814 2.74 55.53 3.28-0.398-14.217 0.6-27.983 1.875-41.5l18.594 1.75c-1.275 13.525-2.18 26.798-1.75 40.126 20.394 0.203 40.653-0.242 60.187-1.22 2.538-14.65 4.195-27.985 5.876-41.53l18.563 2.312c-1.52 12.23-3.06 24.62-5.283 38.094 19.033-1.342 37.103-3.212 53.657-5.563 5.58-14.386 9.82-28.63 12.187-42.687l18.408 3.094C450.53999999999996 307.4 447.26 319.44599999999997 443.11699999999996 331.4c9.45-1.73 18.225-3.626 26.094-5.688 9.286-15.084 16.266-29.915 20.032-44.343l18.094 4.718c-2.556 9.79-6.28 19.428-10.907 28.968 19.744-11.594 28.6-28.806 30.064-49.687 1.953-27.843-11.252-62.942-37.25-95.376-42.248-52.705-116.938-97.886-207.688-98.156z m-57 287.156c-1.656 7.76-3.142 15.664-4.406 23.594-4.52 28.362-6.266 57.097-3.938 80.406 2.33 23.308 9.175 40.414 18.157 47.25 15.977 12.16 37.085 17.318 57.374 16.687 20.288-0.63 39.502-7.255 50.844-16.5 9.073-7.394 16.467-30.6 17.187-60.655 0.647-27.003-3.187-59.006-10.5-89.094-40.29 2.05-83.374 1.668-124.72-1.686z" /></svg>