<svg xmlns="http://www.w3.org/2000/svg" width="100%" height="100%" viewBox="0 0 588.8 588.8"><path d="M228.78999999999996 56.805999999999976l13.176 64.625h41.957l-0.002 18.69h-38.145l7.635 37.438h82.63l7.45-37.44h-40.88V121.43199999999997h44.597l12.855-64.61-131.273-0.014zM370.2 101.63799999999998l-18.823 94.608h-113.23l-18.99-93.127L77.37999999999997 152.79499999999996l148.973 247.342-60.967-203.168 17.9-5.37 39.247 130.784 72.35 10.62 71.53-10.696 39.094-130.664 17.905 5.358-60.018 200.587L511.46 152.72299999999996 370.2 101.63799999999998z m-9.708 240.45l-65.582 9.81-66.447-9.754 56.59 188.578V377.875h18.69v152.847h0.31l56.44-188.633z" /></svg>