<svg xmlns="http://www.w3.org/2000/svg" width="100%" height="100%" viewBox="0 0 588.8 588.8"><path d="M290.67699999999996 88.13399999999999c-2.62 0.041-6.815 1.224-11.93 3.514a17.207 7.022999999999998 0 0 1 9.776 6.328 17.207 7.022999999999998 0 0 1-17.207 7.024 17.207 7.022999999999998 0 0 1-11.764-1.905C247.84999999999997 111.60999999999997 234.95 123.22399999999998 222.58999999999997 136.45299999999997a320.764 320.764 0 0 0-8.486 9.465 17.383 7.022999999999999 0 0 1 2.162-0.061 17.383 7.022999999999999 0 0 1 17.383 7.023 17.383 7.022999999999999 0 0 1-17.383 7.024 17.383 7.022999999999999 0 0 1-12.043-1.961c-13.947 17.804-25.844 36.769-32.949 53.668 76.83 14.609 164.951 13.553 245.846-2.998a136.123 136.123 0 0 0-3.05-7.236 17.207 6.321 0 0 1-7.648 0.666 17.207 6.321 0 0 1-17.207-6.32 17.207 6.321 0 0 1 17.207-6.321 17.207 6.321 0 0 1 1.67 0.035c-9.845-17.99-23.973-37.284-39.869-53.937-26.565-27.833-58.413-47.666-77.545-47.366z m22.887 19.846a16.68 6.1450000000000005 0 0 1 16.68 6.147 16.68 6.1450000000000005 0 0 1-16.68 6.144 16.68 6.1450000000000005 0 0 1-16.682-6.144 16.68 6.1450000000000005 0 0 1 16.682-6.147z m30.24 30.553a17.032 6.847999999999999 0 0 1 17.032 6.847 17.032 6.847999999999999 0 0 1-17.032 6.848 17.032 6.847999999999999 0 0 1-17.033-6.848 17.032 6.847999999999999 0 0 1 17.033-6.847z m-66.01 21.732a17.207 7.022999999999998 0 0 1 17.208 7.024 17.207 7.022999999999998 0 0 1-17.207 7.023 17.207 7.022999999999998 0 0 1-17.208-7.023 17.207 7.022999999999998 0 0 1 17.208-7.024z m-38.878 36.862a17.558 6.145000000000001 0 0 1 17.558 6.146 17.558 6.145000000000001 0 0 1-17.558 6.145 17.558 6.145000000000001 0 0 1-17.559-6.145 17.558 6.145000000000001 0 0 1 17.559-6.146zM454.09999999999997 218.39c-101.432 26.783-217.263 28.653-313.322 4.942-6.366 7.485-11.92 14.281-15.14 20.95-3.207 6.642-4.611 13.463-3.442 22.624 114.282 25.958 238.56 19.65 354.236-1.145 1.341-6.883 0.324-13.535-3.064-21.03-3.698-8.182-10.45-17.087-19.268-26.34z m12.475 67.444c-22.169 3.756-44.64 6.973-67.299 9.533 9.987 41.576 21.847 88.953 17.504 132.32l-0.627 6.27-6.106 1.554c-69.25 17.638-143.772 31.434-213.847-0.533l-4.45-2.03-0.716-4.837c-6.678-44.986 7.134-88.257 14.287-129.727-24.576-2.363-48.964-5.914-73.014-10.812-23.499 57.882-36.37 128.892-30.6 193.193-9.877 10.265-19.446 23.452-14.283 32.338 9.089 15.64 42.849 7.49 63.166 0.826 92.869 21.634 200.545 19.366 289.645 1.428 18.46 6.644 59.675 19.048 69.879 1.488 4.919-8.464-3.534-20.834-12.885-30.863 10.216-69.613-9.937-139.25-30.654-200.148z m-85.36 11.443c-52.318 5.06-105.437 6.424-157.886 2.61-6.964 41.9-19.185 82.09-14.928 120.673 60.582 25.618 126.129 15.173 190.785-0.94 2.266-38.082-8.411-82.252-17.97-122.343z" /></svg>