<svg xmlns="http://www.w3.org/2000/svg" width="100%" height="100%" viewBox="0 0 588.8 588.8"><path d="M458.082 64.59999999999998l-8.66 2.452L71.31499999999997 174.20999999999998 93.66999999999999 253.09999999999997l386.77-109.608L458.08299999999997 64.59999999999998z m-12.41 22.224l9.074 32.014-41.086-22.942 32.013-9.072zM389.16999999999996 102.83799999999998l56.8 31.714-37.084 10.51-56.8-31.715 37.084-10.51z m-61.577 17.45l56.803 31.716-37.084 10.51-56.8-31.718 37.08-10.51z m-61.574 17.45l56.802 31.715-37.084 10.51-56.803-31.715 37.084-10.51z m-61.577 17.45l56.803 31.716-37.084 10.51-56.8-31.717 37.08-10.51z m-61.574 17.45l56.8 31.715-37.083 10.51-56.802-31.715 37.084-10.51z m-45.86 26.227l41.085 22.94-32.01 9.072-9.074-32.012zM93.39999999999998 253.39999999999998v274h402V253.39999999999998H93.39999999999998z m18 18h33.273L111.39999999999998 304.673V271.4z m58.727 0h38.546l-46 46H124.12699999999998l46-46z m64 0h38.546l-46 46h-38.546l46-46z m64 0h38.546l-46 46h-38.546l46-46z m64 0h38.546l-46 46h-38.546l46-46z m64 0h38.546l-46 46h-38.546l46-46zM477.4 284.12699999999995V317.4h-33.273L477.4 284.12699999999995zM111.39999999999998 335.4h366v174H111.39999999999998V335.4z m248.635 46.57l-192.44 0.703 0.067 18 192.44-0.703-0.067-18zM169.09999999999997 429.72999999999996l-0.134 17.998 92.707 0.703 0.137-18-92.71-0.7z m127.155 0.7l-0.2 18 63.913 0.702 0.2-17.998-63.913-0.703z" /></svg>