<svg xmlns="http://www.w3.org/2000/svg" width="100%" height="100%" viewBox="0 0 588.8 588.8"><path d="M294.4 86.39999999999998c-29.077 0-56.755 5.975-81.887 16.75h163.774C351.155 92.37499999999997 323.477 86.39999999999998 294.4 86.39999999999998zM168.73999999999998 128.64999999999998c-10.07 7.646-19.424 16.18-27.938 25.5h307.196c-8.514-9.32-17.87-17.854-27.938-25.5H168.73999999999998z m-47.834 51c-5.38 8.12-10.21 16.635-14.428 25.5h375.844c-4.218-8.865-9.048-17.38-14.43-25.5H120.90599999999998z m-24.54 51c-2.665 8.286-4.826 16.797-6.443 25.5H498.88c-1.62-8.703-3.782-17.214-6.447-25.5H96.36699999999998z m-9.566 51c-0.255 4.22-0.4 8.467-0.4 12.75 0 4.283 0.145 8.53 0.4 12.75h415.2c0.255-4.22 0.4-8.467 0.4-12.75 0-4.283-0.146-8.53-0.4-12.75H86.79999999999998z m3.123 51c1.618 8.703 3.78 17.214 6.444 25.5h396.066c2.665-8.286 4.826-16.797 6.444-25.5H89.92299999999997z m16.555 51c4.218 8.864 9.05 17.38 14.43 25.5h346.986c5.382-8.12 10.212-16.636 14.43-25.5H106.47799999999998z m34.324 51c8.514 9.32 17.87 17.854 27.94 25.5H420.06c10.068-7.646 19.424-16.18 27.938-25.5H140.80199999999996z m71.71 51C237.646 496.42499999999995 265.323 502.4 294.4 502.4c29.076 0 56.755-5.975 81.887-16.75H212.51299999999998z" /></svg>