<svg xmlns="http://www.w3.org/2000/svg" width="100%" height="100%" viewBox="0 0 588.8 588.8"><path d="M65.83799999999998 66.39999999999998c-2.13 0.008-4.264 0.054-6.407 0.156C93.79999999999998 94.32999999999998 104.83999999999997 151.452 119.52599999999998 199.74399999999997c36.747-81.008 70.31 15.56 85.313 133.187 19.56-157.11 81.692-39.362 117.75 24.19-3.213-72.754 106.18-22.386 126.625 48.436 13.595-60.515 45.038-53.18 82.406 13.156-5.587-75.425-47.698-149.916-98.158-109.562 6.667-98.496-65.15-100.515-91.25-67.406-15.74-40.536-96.467-119.32-106.5-42.313C191.12599999999998 111.01999999999998 131.84199999999998 66.14799999999998 65.83799999999998 66.39999999999998zM119.89999999999998 229.92999999999998c-5.156 15.956-49.635 88.657 0 88.657 49.667 0 3.134-72.61 0-88.656z m85.563 129.69c-6.08 22.943-58.522 127.5 0 127.5 58.558 0 3.694-104.426 0-127.5z m243.875 64.28c-4.133 13.405-39.774 74.5 0 74.5 39.797 0 2.51-61.018 0-74.5z" /></svg>