<svg xmlns="http://www.w3.org/2000/svg" width="100%" height="100%" viewBox="0 0 588.8 588.8"><path d="M286.4 126.39999999999998v32.652c-5.287 0.834-10.615 2.448-16 4.63V142.39999999999998h-16v29.16c-1.698 0.96-3.402 1.953-5.115 2.98-3.598 2.16-7.23 4.48-10.885 6.905V158.39999999999998h-16v34.19c-5.324 3.85-10.664 7.826-16 11.822V190.39999999999998h-16v25.965c-5.402 4.008-10.75 7.9-16 11.592V206.39999999999998h-16v32.213c-1.04 0.647-2.09 1.312-3.115 1.928-4.448 2.67-8.766 5.003-12.885 6.962V238.39999999999998H126.39999999999998V253.373c-2.89 0.67-5.575 1.027-8 1.027h-8v-32H62.39999999999998v304h48V270.4h8c2.658 0 5.324-0.23 8-0.652V526.4h16V265.11699999999996c5.272-2.138 10.6-4.82 16-7.877V526.4h16V247.355c5.294-3.512 10.637-7.264 16-11.144V526.4h16V382.4h16v144h16V200.843c5.462-3.838 10.81-7.427 16-10.656V334.4h16V181.29799999999997c5.793-2.754 11.188-4.755 16-5.87V334.4h16V175.42699999999996c4.812 1.116 10.207 3.117 16 5.87V334.4h16V190.18699999999998c5.19 3.23 10.538 6.818 16 10.656V526.4h16V382.4h16v144h16V236.20999999999998c5.363 3.88 10.706 7.633 16 11.145V526.4h16V257.24c5.4 3.056 10.728 5.74 16 7.877V526.4h16V269.748c2.676 0.422 5.342 0.652 8 0.652h8v256h48V222.39999999999998h-48v32h-8c-2.425 0-5.11-0.357-8-1.027V238.39999999999998h-16v9.102c-4.12-1.96-8.437-4.292-12.885-6.96-1.026-0.617-2.075-1.282-3.115-1.93V206.39999999999998h-16V227.95699999999997c-5.252-3.69-10.598-7.584-16-11.592V190.39999999999998h-16v14.012c-5.336-3.996-10.676-7.97-16-11.823V158.39999999999998h-16v23.045c-3.654-2.424-7.287-4.746-10.885-6.904-1.713-1.027-3.417-2.02-5.115-2.98V142.39999999999998h-16v21.283c-5.385-2.183-10.713-3.797-16-4.63V126.39999999999998h-16zM86.39999999999998 158.39999999999998c-13.35 0-24 10.65-24 24s10.65 24 24 24 24-10.65 24-24-10.65-24-24-24z m416 0c-13.35 0-24 10.65-24 24s10.65 24 24 24 24-10.65 24-24-10.65-24-24-24z m-280 54.035V366.4h-16V224.38799999999998c1.6-1.198 3.203-2.39 4.8-3.588 3.75-2.81 7.484-5.608 11.2-8.365z m144 0c3.716 2.757 7.45 5.555 11.2 8.365 1.597 1.2 3.2 2.39 4.8 3.588V366.4h-16V212.43499999999997zM254.39999999999998 350.4v32h80v-32h-80z m0 48v128h16V398.4h-16z m32 0v128h16V398.4h-16z m32 0v128h16V398.4h-16z" /></svg>