<svg xmlns="http://www.w3.org/2000/svg" width="100%" height="100%" viewBox="0 0 588.8 588.8"><path d="M56.684999999999974 54.696999999999974v20.52L165.48799999999997 201.96999999999997c35.955 91.222 6.358 156.645-59.43 178.098l111.852 34.758c6.88-3.465 12.225-7.756 17.69-12.64 38.677-34.554 39.72-103.556-23.38-190.208 98.413 71.66 174.565 60.578 202.85 5.686L380.945 105.17999999999998c-21.29 65.28-86.246 95.3-176.545 60.794L75.30799999999998 54.696999999999974H56.684999999999974zM440.39799999999997 259.88c-18.06 55.37-84.184 71.942-172.205 7.846 64.098 88.022 47.94 153.736-7.432 171.79l73.095 22.714c4.504-2.256 8.003-5.05 11.566-8.252l-0.002-0.006c25.274-22.58 25.955-67.676-15.28-124.302 64.31 46.833 114.076 39.59 132.56 3.716L440.4 259.88z m41.68 114.366c-10.75 32.968-50 42.71-102.408 4.545 38.163 52.41 28.42 91.66-4.55 102.41l153.8 46.843-46.84-153.797h-0.002z" /></svg>