<svg xmlns="http://www.w3.org/2000/svg" width="100%" height="100%" viewBox="0 0 588.8 588.8"><path d="M291.87 55.805999999999976C162.15999999999997 55.805999999999976 56.836999999999975 161.15999999999997 56.836999999999975 290.87c0 129.707 105.324 235.06 235.03 235.06 129.707 0 235.063-105.353 235.063-235.06 0-129.71-105.355-235.064-235.06-235.064zM406.274 107.14999999999998c61.246 38.19 101.97 106.14 101.97 183.72 0 17.143-1.993 33.823-5.75 49.81l-34.25-18.06 22 54.874c-9.454 21.647-22.362 41.432-38 58.687l-43.158-30.936-64.625 47.72-61.656 6.967-13.906-41.78-49.72 26.844-68.093-18.938 9.157 36.594c-28.41-21.793-51.23-50.466-66-83.563L119.64999999999998 342.87l32.25 17.124 59.22-9.875 2.843-40.908-37.344-1.718 4.905-17.844 30.78-25.313-25.093-15.625 67.22-38.593-45.345-29.657-66.625 40.187-49.437-15.28c13.812-32.14 35.21-60.22 61.906-82.064l-3.75 44.375 43.376-34.124 72 22.22-22.5-27.407L271.4 113.96199999999997l26.813 28.468 71 9.845-3.5-34.47 41.468 12.657-0.905-23.312z m1.156 120.03L316.4 237.86999999999998l28.906 43.218 3.156 64.468L377.65 359.4l11.438-28.375 62.656 48.656L434.17999999999995 332.4l6.408-48.344-43.75-22.72 10.593-34.155zM259.4 230.83799999999997l-31.594 21.188 36.47 14.78 16.686-14.78L259.4 230.837z m22.188 144.688l18.687 52.594 19.78-42.564-38.467-10.03z" /></svg>