<svg xmlns="http://www.w3.org/2000/svg" width="100%" height="100%" viewBox="0 0 588.8 588.8"><path d="M81.05599999999998 53.119999999999976C137.32199999999997 72.41399999999999 170.08199999999997 126.19999999999997 131.92999999999998 163.36999999999998c97.99 81.427 90.47 108.772 11.564 218.06C183.17 409.4 219.54699999999997 481.76 213.83799999999997 529.3399999999999H268.9c-32.26-22.573-43.393-49.275-48.563-74.72 29.67-3.367 57.124-0.784 80.282 9.126 3.604 25.136 3.95 49.578 1.28 65.594h18.97c2.28-15.12 2.576-33.896 0.717-53.688 16.71 12.26 29.993 29.893 38.657 53.688h34.062c-30.534-30.354-48.743-63.438-64.562-97.063-5.033 1.243-9.97 2.304-14.813 3.22-3.77-15.606-8.914-30.76-15.56-44.19 14.544-19.12 21.514-36.89 20.874-54.53-0.274-7.538-1.884-14.82-4.53-22.03 22.188-6.712 41.265-11.494 60.998-13.564 4.242 21.135 9.946 42.103 17.625 62.783l2.063 5.562 5.906 0.5c22.146 1.85 41.883 4.926 60.875 9.625 3.94 39.93-6.698 78.297-30.092 118.938 14.673 9.527 26.153 19.857 35.375 30.75h24.406c-40.497-24.248-32.673-75.68-8.22-102.375 21.968 11.687 36.194 23.99 47.844 41.5v-36.125c-26.635-3.933-42.61-21.916-51.22-47.657 16.828 5.22 33.48 11.873 51.157 20.283v-20.625c-19.077-8.64-37.455-15.373-56.31-20.532-4.706-27.01-3.845-59.278 0.03-91.875-28.84 7.984-57.094 11.11-83.906 10.157-4.173-24.797-6.5-49.993-7.75-75.5l-0.656-13.156-12.22 4.97c-54.128 22.015-119.117 16.334-156.156-10.03C191.61599999999999 149.23999999999998 185.78999999999996 101.63999999999999 206.39999999999998 53.119999999999976H81.05599999999998z m285.531 167.03c1.283 20.255 3.302 40.46 6.47 60.53-52.267-5.78-97.91-27.234-130.063-58.186 37.293 11.99 82.246 11.504 123.594-2.344z m-121.53 50.094c13.693 7.486 27.002 14.627 38.374 24.47 11.47 16.32 17.658 29.84 18.126 42.748 0.49 13.534-4.895 27.892-20.437 46.875l-3.97 4.875 3 5.532c6.7 12.27 11.89 27.51 15.688 43.594-98.4 10.34-144.816-53.688-50.782-168.094z m152.78 29.812c12.68-0.05 26.115 1.008 41.157 3.375 10.154 19.476 17.11 38.17 21.062 56.408-15.91-3.556-32.366-6.114-50.062-7.813-6.03-17.068-10.72-34.386-14.375-51.938 0.738-0.01 1.474-0.028 2.217-0.03z" /></svg>