<svg xmlns="http://www.w3.org/2000/svg" width="100%" height="100%" viewBox="0 0 588.8 588.8"><path d="M294.4 63.39999999999998c-49.473 0-94.804 29.19-128.342 78.1C132.52099999999996 190.40899999999996 111.39999999999998 258.748 111.39999999999998 334.4c0 52.552 10.198 101.567 27.664 143h310.672C467.202 435.967 477.4 386.952 477.4 334.4c0-75.652-21.12-143.991-54.658-192.9C389.20399999999995 92.58999999999997 343.87199999999996 63.39999999999998 294.4 63.39999999999998z m-25.922 24.459c7.27 0.133 13.469 2.777 14.393 9.576-60.873 23.968-114.003 115.36-147.473 175.85 3.256-45.078 49.313-168.96 126.07-184.865a39.545 39.545 0 0 1 5.543-0.555c0.493-0.013 0.982-0.015 1.467-0.006z m37.375 76.18c1.031-0.02 2.06 0.004 3.08 0.07 8.167 0.529 16.14 3.671 22.34 9.398a31.491 31.491 0 0 1 10.045 24.24c-1.18 32.573-10.66 64.15-18.488 94.893 3.385 0.972 6.424 2.376 9.13 4.24a27.11 27.11 0 0 1 4.405 3.8c2.754-1.075 5.565-1.672 8.283-1.776 0.477-0.018 0.95-0.021 1.42-0.01 2.725 0.066 5.32 0.639 7.633 1.7l86.619-34.22 6.613 16.74-81.99 32.393c0.05 0.259 0.103 0.516 0.144 0.774 1.18 7.31-1.118 14.602-6.433 20.242a20.78 20.78 0 0 1-2.805 2.457l44.885 19.375-7.488 39.367-17.684-3.363 4.793-25.195-33.504-14.463 20.836 32.98-23.25 30.908-14.385-10.82 15.782-20.978-20.577-32.569a23.632 23.632 0 0 1-3.545 1.303l4.9 48.629-42.556 7.086-2.957-17.756 25.914-4.314-3.691-36.618c-2.115-1.295-4.02-2.87-5.723-4.648-10.694 10.598-24 19.62-40.568 26.254l4.295 46.875-52.405 13.064-4.353-17.465 37.424-9.33-3.041-33.193-23.567 31.5-48.459-14.777 5.25-17.22 36.37 11.093 25.847-34.553c10.15-20.76 26.398-34.63 44.98-45.963-38.012-14.96-67.612-38.463-84.613-72.29-4.55-9.053-3.115-20.006 4.393-28.599 4.692-5.37 12.06-8.702 21.03-8.89 5.38-0.113 11.338 0.904 17.642 3.29 17.494 6.624 29.89 18.587 39.431 32.409-2.086-10.15-3.328-20.782-3.134-32.115 0.192-11.237 4.46-20.59 11.232-26.41 5.926-5.094 13.283-7.402 20.5-7.545z m0.365 17.996c-3.572 0.066-6.788 1.186-9.13 3.199-2.677 2.301-4.848 5.878-4.971 13.066-0.449 26.273 8.551 49.377 17.367 73.862 6.61-25.57 12.966-50.761 13.846-75.065 0.169-4.675-1.44-7.753-4.27-10.367-2.829-2.613-7.104-4.387-11.29-4.658a18.624 18.624 0 0 0-1.552-0.037z m-85.56 29.926a13.743 13.743 0 0 0-2.383 0.12c-2.841 0.412-4.416 1.742-5.568 3.061-2.306 2.639-2.157 8.094-1.866 8.674 14.766 29.38 40.367 49.957 75.276 63.592-5.725-12.831-11.042-25.53-17.229-36.654-9.35-16.81-20.187-29.689-37.437-36.22-4.67-1.767-8.147-2.494-10.793-2.573z m66.082 109.025c-13.198 8.263-24.09 17.416-31.871 29.578l0.388 4.23 0.34 0.354c13.88-6.328 24.392-14.474 32.89-23.988a54.511 54.511 0 0 1-1.747-10.174zM127.39999999999998 495.4v30h334v-30H127.39999999999998z" /></svg>