<svg xmlns="http://www.w3.org/2000/svg" width="100%" height="100%" viewBox="0 0 588.8 588.8"><path d="M386.525 59.17999999999998l-141.75 20.345 23.188 39.094c25.64-1.58 46.48 9.678 55.625 25.5 4.95 8.564 6.226 19.507 0.937 28.5-3.466 5.89-9.315 10.183-16.75 13.093l17.406 29.28 47.564-7 6.062-0.874 3.22 5.186c14.998 23.98 34.436 31.593 42.03 30.375 3.798-0.608 4.902-1.42 5.75-5.436 0.848-4.018-0.1-12.352-6.406-24.03l-6.344-11.72 13.22-1.938 35.655-5.25L386.52599999999995 59.17999999999998z m-160.03 22.97l-90.47 12.97 2.22 3.78 112.78 192.438 90.22-12.657-55.783-93.968-7.156-12.03 13.844-2c10.52-1.512 14.83-5.065 16.28-7.532 1.452-2.467 1.485-5.305-1.03-9.656-5.03-8.702-21.297-19.017-43.188-15.875l-6.187 0.905-3.188-5.375-29.78-50.156 1.437-0.844zM133.64999999999998 128.05599999999998l-23.906 94.906L141.39999999999998 276.275l2.28 3.813-1.56 4.187c-8.138 22.007-2.404 47.465 6.374 60.938 4.388 6.736 9.347 9.5 10.75 9.625 0.7 0.062 0.827 0.15 1.906-0.75 1.08-0.9 2.866-3.158 4.53-7.407l6.907-17.592 9.782 16.156 40.343 66.47 94.593-13.908 25-100.406L247.39999999999998 310.71299999999997l-6.188 0.875-3.156-5.407L133.64999999999998 128.05699999999996z m342.5 83.625l-30.97 4.564c3.37 9.13 4.477 17.406 2.908 24.844-2.228 10.55-11.093 18.432-21.063 20.03-18.65 2.99-40.13-9.126-57.28-33.78L335.49399999999997 232.39999999999998l27.81 46.813 1.97 3.312-0.938 3.72-27.03 108.624L372.4 389.71c7.904-30.733 26.995-47.928 46.75-48.625 10.58-0.373 20.995 4.5 27.375 13.438 4.443 6.225 6.8 14.196 7.125 23.25l25.406-3.75 27.156-107.78L483.9 224.89999999999998l-7.75-13.22zM103.27499999999998 248.64999999999998L84.17999999999998 324.37 186.92999999999998 498.9l19.595-77.78-32.5-53.595c-0.313 0.288-0.58 0.634-0.906 0.906-4.368 3.642-10.184 5.483-15.564 5-10.76-0.963-18.567-8.588-24.72-18.03-11.66-17.898-17.97-45.82-9.592-73.094l-19.97-33.656z m316.53 111.125c-9.7 0.342-25.098 10.585-30.717 40.03l-1.25 6.533-6.563 0.968-157.813 23.156-23.968 95.063-1.03 4.03L448.9 493.62l25.188-99.97-29 4.28-12.625 1.845 2.03-12.594c1.738-10.7-0.286-17.716-3.187-21.78-2.9-4.064-6.65-5.796-11.5-5.625z" /></svg>