<svg xmlns="http://www.w3.org/2000/svg" width="100%" height="100%" viewBox="0 0 588.8 588.8"><path d="M446.69 301.279a35.125 35.125 0 1 0 35.125 35.125 35.17 35.17 0 0 0-35.125-35.125z m0 62.873a27.736 27.736 0 1 1 27.736-27.737 27.736 27.736 0 0 1-27.736 27.748z m8.876-27.737a8.876 8.876 0 1 1-8.876-8.875 8.876 8.876 0 0 1 8.876 8.875z m-265.538 0a35.125 35.125 0 1 0-35.126 35.126 35.17 35.17 0 0 0 35.126-35.126z m-35.126 27.737a27.736 27.736 0 1 1 27.737-27.737 27.736 27.736 0 0 1-27.737 27.748z m345.452-21.823a53.997 53.997 0 1 0-107.617-5.925 53.665 53.665 0 0 0 5.447 23.61H203.408a53.986 53.986 0 1 0-101.849-15.211C75.94199999999998 334.03999999999996 59.39999999999998 316.433 59.39999999999998 288.586c0-28.846 86.87-69.418 142.122-71.327v34.094a24.83 24.83 0 0 0 24.83 24.83h47.517a24.774 24.774 0 0 0 24.409-20.758s-1.62-21.668-6.813-25.518l3.407-2.54 24.474 28.08h94.104c63.994-0.022 115.95 23.42 115.95 52.266 0 13.314-10.973 25.396-29.046 34.616z m-336.576-5.925a8.876 8.876 0 1 1-8.876-8.876 8.876 8.876 0 0 1 8.876 8.887z" /></svg>