<svg xmlns="http://www.w3.org/2000/svg" width="100%" height="100%" viewBox="0 0 588.8 588.8"><path d="M204.30599999999998 57.08799999999998C53.99299999999998 97.67999999999998-3.7870000000000203 236.95 131.11999999999998 283.775h-1.095c0.635 0.086 1.274 0.186 1.906 0.28 8.985 3.077 18.83 5.733 29.532 7.94C211.76 311.75 248.14 359.62 251.08999999999997 406.4c-33.514 23.096-59.47 62.844-59.47 62.844L217.89999999999998 507.92999999999995 176.67999999999998 531.4h81.97c-40.425-40.435-11.76-85.906 36.125-85.906 48.54 0 73.945 48.112 36.156 85.906h81.126l-40.375-23.47 26.283-38.686s-26.376-40.4-60.282-63.406c3.204-46.602 39.5-94.167 89.595-113.844 10.706-2.207 20.546-4.86 29.53-7.938 0.633-0.095 1.273-0.195 1.908-0.28h-1.125c134.927-46.82 77.163-186.094-73.157-226.69-40.722 39.37 6.54 101.683 43.626 56.877 36.9 69.08 8.603 127.587-72.28 83.406-11.88 24.492-34.213 41.374-60.688 41.374-26.703 0-49.168-17.167-60.97-42-81.774 45.38-110.512-13.372-73.437-82.78 37.09 44.805 84.35-17.508 43.626-56.876z m90.79 35.92c-27.388 0-51.33 27.556-51.33 63.61 0 36.056 23.942 62.995 51.33 62.995 27.387 0 51.327-26.94 51.327-62.994 0-36.058-23.94-63.61-51.328-63.61z" /></svg>