<svg xmlns="http://www.w3.org/2000/svg" width="100%" height="100%" viewBox="0 0 588.8 588.8"><path d="M121.89999999999998 63.39999999999998l-32 64v87c-0.67 15.934 3.847 27.945 13.793 37.816 3.442 3.367 7.892 6.805 13.102 10.227L121.89999999999998 127.39999999999998l5.344 141.326c7.778 4.3 16.61 8.477 26.064 12.344 0.194 0.08 0.397 0.155 0.592 0.234V127.39999999999998l-32-64z m216.666 0C320.233 63.39999999999998 301.9 100.06699999999998 301.9 136.73399999999998c0 17.585 4.223 35.16 10.635 48.7 9.11 1.493 18.938 3.565 29.187 6.19 4.395-7.873 14.92-14.213 40.178-16.87V110.97699999999998C357.573 99.29599999999998 338.566 76.59999999999998 338.566 63.39999999999998z m146.668 0c0 13.2-19.007 35.896-43.334 47.576v63.78c43.31 4.554 43.334 19.928 43.334 35.31 18.333 0 36.666-36.665 36.666-73.332C521.9 100.06699999999998 503.56699999999995 63.39999999999998 485.234 63.39999999999998zM399.9 88.39999999999998v122.852a369.79 369.79 0 0 1 24 11.148V88.39999999999998h-24z m-127 72.92l-58.45 61.9 58.45 58.453V246.39999999999998h9c34.25 0 90.23 12.187 135.408 30.67 22.59 9.24 42.344 19.89 55.385 32.646 6.52 6.38 11.518 13.45 13.514 21.65 0.867 3.562 0.914 7.297 0.414 11.014 7.95-19.23 4.975-35.52-5.345-51.625-11.208-17.49-31.88-33.91-56.424-47.478C375.767 216.14299999999997 310.9 200.39999999999998 281.9 200.39999999999998h-9v-39.08z m-195.72 71.1c-7.95 19.23-4.975 35.52 5.345 51.625 11.208 17.49 31.88 33.91 56.424 47.478C188.033 358.657 252.89999999999998 374.4 281.9 374.4h9v39.08l58.45-61.9-58.45-58.453V328.4h-9c-34.25 0-90.23-12.187-135.408-30.67-22.59-9.24-42.344-19.89-55.385-32.646-6.52-6.38-11.518-13.45-13.514-21.65-0.867-3.562-0.914-7.297-0.414-11.014z m322.72 57.212V406.4h24V299.63c-4.29-2.027-8.77-4.002-13.408-5.9-3.446-1.41-7-2.766-10.592-4.098z m-310 29.862v41.44h23.17l0.885-23.39c-8.66-5.593-16.772-11.594-24.055-18.05z m40.313 27.767l0.517 13.675h23.17v-1.777c-8.056-3.678-15.987-7.64-23.66-11.88l-0.028-0.017zM66.89999999999998 378.936V398.4h110v-19.465h-110zM101.89999999999998 413.4v80c-8 0-28 32 20 32s28-32 20-32v-80h-40z m298 11v94h24v-94h-24z" /></svg>