<svg xmlns="http://www.w3.org/2000/svg" width="100%" height="100%" viewBox="0 0 588.8 588.8"><path d="M95.21299999999998 56.83799999999998c-0.47-0.005-0.938 0.014-1.407 0.03-0.625 0.023-1.252 0.066-1.875 0.126-7.468 0.72-14.682 4.148-22.31 11.125-9.985 9.128-12.863 17.66-11.407 27.718 1.455 10.056 8.353 22.236 21.125 34.906 2.895 2.872 6.126 5.737 9.593 8.625 1.27 1.055 2.565 2.13 3.907 3.186 1.122 0.882 2.266 1.775 3.438 2.656 0.232 0.175 0.454 0.358 0.688 0.532C113.10999999999997 157.77999999999997 133.95799999999997 169.67999999999998 158.64999999999998 180.61999999999998c159.723 161.31 288.815 297.553 374.594 352.124-51.11-85.624-187.432-214.62-350-375.531-10.23-23.802-21.115-43.71-32.094-59.282 35.46-10.19 82.517-2.294 125.75 40.94 40.243 40.242 52.642 90.776 41.375 128.343 4.89 4.914 9.883 9.913 14.688 14.75 19.07-46.1 4.573-108.895-42.844-156.313-35.694-35.693-75.48-50.324-111.032-50.22-1.147 0.005-2.3 0.03-3.438 0.064-21.844 0.65-41.957 6.898-58.344 17.187-2.884 1.812-5.663 3.757-8.312 5.814 1.33 3.094 2.758 5.884 4.406 8.218 1.92 2.72 4.004 4.936 6.906 6.688 2.202-1.717 4.498-3.375 6.938-4.906 1.063-0.668 2.145-1.34 3.25-1.97 8.196 10.088 15.465 24.624 25.47 47.25-23.907-10.568-38.822-18.04-49.033-27 0.024-0.03 0.04-0.063 0.064-0.093-0.433-0.33-0.867-0.655-1.28-1-0.013-0.008-0.022-0.02-0.033-0.03-11.215-10.375-16.532-22.934-22.31-44.5 5.988 1.605 11.256 3.19 16 4.844 8.53-6.46 17.51-11.71 26.81-15.875-9.5-7.738-18.552-11.93-26.686-12.97-1.443-0.185-2.87-0.3-4.282-0.313zM531.68 102.77399999999997c-77.985 0-125.587 28.886-146.124 69.406-20.536 40.52-13.994 90.39 9.688 131.407 11.385 19.72 17.807 40.687 19.187 61.22 6.27 6.475 12.425 12.867 18.47 19.187 2.31-29.955-5.072-61.35-21.47-89.75-21.13-36.602-26.155-80.112-9.186-113.594 16.97-33.481 55.94-59.188 129.437-59.188V102.77599999999998zM76.30699999999997 153.33799999999997c-2.894 23.925 6.18 50.21 29.532 73.562l13.218-13.188c-15.97-15.97-23.188-31.833-24.437-46.593-6.646-4.51-12.754-9.102-18.314-13.782zM162.462 315.4c-24.466-0.028-45.04 4.92-61.343 13.656-24.842 13.31-39.363 35.865-40.75 60.47-2.78 49.207 44.38 102.65 140.405 118.28 101.63 16.544 170.303-9.184 205.406-54.062 1.01-1.29 1.988-2.59 2.94-3.906-4.552-4.232-9.148-8.52-13.783-12.875-1.233 1.79-2.52 3.55-3.875 5.28-29.97 38.315-90.355 62.97-187.687 47.126-90.394-14.715-126.796-62.527-124.75-98.783 1.023-18.127 10.982-34.37 30.938-45.062 19.955-10.692 50.267-15.364 90.5-7.47 34.077 6.69 62.938 3.47 85.437-6.936-4.72-4.65-9.49-9.33-14.28-14.064-17.545 6.452-39.89 8.088-67.564 2.656-14.895-2.923-28.778-4.297-41.594-4.312z" /></svg>