<svg xmlns="http://www.w3.org/2000/svg" width="100%" height="100%" viewBox="0 0 588.8 588.8"><path d="M294.4 65.21999999999997l-27.7 18.46 27.7 9.23 27.7-9.23L294.4 65.21999999999997z m-37.9 34.01C209.99999999999997 109.29999999999998 180.39999999999998 138.49999999999997 160.49999999999997 178.39999999999998 135.51999999999998 228.29999999999998 127.39999999999998 295.2 127.39999999999998 358.4c0 6.7 3.4 12.7 11.7 19.2 8.2 6.4 21.1 12.4 36.9 17.2C207.7 404.4 251.09999999999997 409.4 294.4 409.4c43.3 0 86.7-5 118.4-14.6 15.8-4.8 28.7-10.8 36.9-17.2 8.3-6.5 11.7-12.5 11.7-19.2 0-63.2-8.1-130.1-33.1-180-19.9-39.9-49.5-69.09-95.9-79.16l-38 12.65-37.9-12.66z m20.3 70.97h2.1c4.8 0.2 10 1.1 15.5 2.8 5.5-1.7 10.7-2.6 15.5-2.8h2.1c4.8 0 9.2 0.7 13.1 2.3 9.1 3.5 15.2 11.1 17.8 19.1 4.6 13.6 2.1 28.8-5.7 39.9l27.9-3.8-6 43.9L394.4 298.4l-35.3 26.8 6 43.9-43.9-6L294.4 398.4l-26.8-35.3-43.9 6 6-43.9L194.39999999999998 298.4l35.3-26.8-6-43.9 27.9 3.8c-7.8-11.1-10.3-26.3-5.7-39.9 2.6-8 8.7-15.6 17.8-19.1 3.9-1.6 8.3-2.3 13.1-2.3z m0.2 18c-2.9 0-5.2 0.5-6.9 1.1-3.9 1.5-5.8 3.9-7.2 7.9-2.2 6.9 0.1 18.1 3.9 24.2H285.4v-32.1c-2.6-0.6-5.1-1-7.1-1.1h-1.3z m34.8 0h-1.3c-2 0.1-4.5 0.5-7.1 1.1V221.39999999999998h18.6c3.8-6.1 6.1-17.3 3.9-24.2-1.4-4-3.3-6.4-7.2-7.9-1.7-0.6-4-1.1-6.9-1.1zM294.4 255.39999999999998c-21.6 0-39 17.4-39 39s17.4 39 39 39 39-17.4 39-39-17.4-39-39-39zM109.42999999999998 355C99.73999999999998 361.5 95.39999999999998 367.9 95.39999999999998 374.4c0 19 17.55 45.7 52.5 72.9 34.4 26.7 84.6 54 146.5 77.4 61.9-23.4 112.1-50.7 146.5-77.4 35-27.2 52.5-53.9 52.5-72.9 0-6.5-4.3-12.8-14-19.1v3.1c0 13.3-7.6 24.8-18.6 33.3-11 8.6-25.6 15.1-42.8 20.3C383.7 422.4 339.09999999999997 427.4 294.4 427.4c-44.7 0-89.3-5-123.6-15.4-17.2-5.2-31.8-11.7-42.81-20.3C116.99999999999997 383.2 109.39999999999998 371.7 109.39999999999998 358.4c0-1.1 0.02-2.2 0.03-3.4z" /></svg>