<svg xmlns="http://www.w3.org/2000/svg" width="100%" height="100%" viewBox="0 0 588.8 588.8"><path d="M294.4 63.39999999999998c-60.6 0-118.6 34.43-161.37 81.1-39.93 43.6-66 97.7-69.26 140.9h30.17c3.63-35.2 27.67-79.1 61.76-117C192.79999999999998 127.19999999999997 242.39999999999998 93.39999999999998 294.4 93.39999999999998c52 0 101.6 33.8 138.7 75 34.1 37.9 58.1 81.8 61.8 117h30.1c-3.2-43.2-29.3-97.3-69.2-140.9C413 97.82999999999998 355 63.39999999999998 294.4 63.39999999999998z m0 48c-3 0-6 0.15-9 0.42V285.4h18V111.81999999999998c-3-0.27-6-0.42-9-0.42z m-55 14.06c-6.1 2.98-12.1 6.36-18 10.1V285.4h18V125.45999999999998z m110 0V285.4h18V135.55999999999997c-5.9-3.74-11.9-7.12-18-10.1zM175.39999999999998 173.59999999999997c-2.1 2.3-4.2 4.5-6.3 6.8-4.1 4.5-8 9.2-11.7 13.9V285.4h18V173.59999999999997z m238 0V285.4h18v-91.1c-3.7-4.7-7.6-9.4-11.7-13.9-2.1-2.3-4.2-4.5-6.3-6.8zM63.39999999999998 303.4v46h462v-46H63.39999999999998z m5.56 64L95.39999999999998 420.29999999999995V525.4h62V418.09999999999997l63.3-50.7H68.95999999999998z m299.14 0l63.3 50.7V525.4h62V420.29999999999995l26.4-52.9H368.09999999999997z" /></svg>