<svg xmlns="http://www.w3.org/2000/svg" width="100%" height="100%" viewBox="0 0 588.8 588.8"><path d="M57.696999999999974 54.66999999999997v113.06L304.54999999999995 301.52 170.75699999999998 54.66999999999997H57.696999999999974z m134.318 0l158.947 293.263L57.69799999999998 188.986v35.9l39.24 24.815 25.9 162.188 18.735-133.963 82.383 52.094 21.43 134.204 15.503-110.85 75.72 47.88 17.263 108.095 12.49-89.282 61.923 39.158 12.6 78.914 9.117-65.18 70.68 44.694-45.186-71.46 66.656-9.32-80.7-12.888-38.847-61.434 90.758-12.693-109.88-17.548-47.57-75.228 112.326-15.71-135.992-21.716-51.783-81.89 135.432-18.94-163.965-26.184-24.013-37.974h-35.9z m223.877 64.158l0.006 0.002v-0.002h-0.006z" /></svg>