<svg xmlns="http://www.w3.org/2000/svg" width="100%" height="100%" viewBox="0 0 588.8 588.8"><path d="M61.64999999999998 58.27499999999998c38.22 44.005 38.98 90.112 16 132.344 75.61-33.06 158.24-45.382 238.844-45.407 2.933 0 5.854 0 8.78 0.03 45.98 0.49 91.18 4.898 133.938 11.626C334.24199999999996 64.70999999999998 193.35399999999998 59.796999999999976 61.64999999999998 58.27399999999997z m251.5 105.75c-75.736 0.388-152.785 11.91-223.03 41.563 39.527 25.086 44.946 85.016 30.78 130.156 81.86-82.396 213.783-137.65 326.688-161.72-43.14-6.38-88.547-10.234-134.438-10z m139.28 28.094C341.65 215.81199999999998 210.82699999999997 271.527 132.83999999999997 350.4c59.466-5.64 111.354 40.075 96.25 97.844C294.84 341.23999999999995 364.938 263.234 452.42999999999995 192.11999999999998z m11.126 15.06c-84.76 68.95-152.326 143.842-216.187 247 86.224-47.916 190.35-14.365 189.405 76.126h89.53L400.496 367.17999999999995l-3.345-4.31 2.156-5.064 64.25-150.625z m10.313 23.407L418.65 360.12l113.875 147.655V473.42999999999995c-59.59-92.815-68.082-170.762-58.656-242.842z" /></svg>