<svg xmlns="http://www.w3.org/2000/svg" width="100%" height="100%" viewBox="0 0 588.8 588.8"><path d="M294.34999999999997 65.50999999999998L218.99999999999997 146.01399999999998l150.7 1.168-75.35-81.674h-0.003zM63.39999999999998 148.29499999999996v68.01l19.412 25.99h71.06l19.528-26v-68h-14v15.995h-18v-15.994H127.39999999999998v15.995H109.39999999999998v-15.994H95.39999999999998v15.995H77.39999999999998v-15.994H63.39999999999998z m352 0v68l19.527 26h71.06L525.4 216.30599999999998v-68.01h-14v15.995h-18v-15.994h-14v15.995h-18v-15.994h-14v15.995h-18v-15.994h-14z m-176 15.877V299.28999999999996h110V165.02999999999997l-110-0.857z m55 20.118c8 0 16 4 16 12v32h-32v-32c0-8 8-12 16-12zM79.39999999999998 260.29699999999997V523.29h78V260.29699999999997H79.39999999999998z m352 0V523.29h78V260.29699999999997h-78zM94.39999999999998 280.28999999999996c4 0 8 4 8 12v32H86.39999999999998v-32c0-8 4-12 8-12z m400 0c4 0 8 4 8 12v32h-16v-32c0-8 4-12 8-12z m-303 37v23h-16v183h87v-55c0-24 16-36 32-36s32 12 32 36v55h87v-183h-16v-23h-14v23h-18v-23h-14v23h-18v-23h-14v23h-18v-23h-14v23h-18v-23h-14v23h-18v-23h-14v23h-18v-23h-14z m-49 43c4 0 8 4 8 12v32H134.39999999999998v-32c0-8 4-12 8-12z m72 0c8 0 16 4 16 12v32h-32v-32c0-8 8-12 16-12z m80 0c8 0 16 4 16 12v32h-32v-32c0-8 8-12 16-12z m80 0c8 0 16 4 16 12v32h-32v-32c0-8 8-12 16-12z m72 0c4 0 8 4 8 12v32h-16v-32c0-8 4-12 8-12z m-352 64c4 0 8 4 8 12v32H86.39999999999998v-32c0-8 4-12 8-12z m400 0c4 0 8 4 8 12v32h-16v-32c0-8 4-12 8-12z" /></svg>