<svg xmlns="http://www.w3.org/2000/svg" width="100%" height="100%" viewBox="0 0 588.8 588.8"><path d="M185.25699999999998 59.241999999999976c-12.535-0.036-24.268 2.86-37.285 9.424h0.004C99.75599999999997 92.99999999999997 58.36599999999998 159.13399999999996 56.38199999999998 214.30999999999997l41.848 14.236c4.33-61.89 47.057-128.37 101.527-155.86h0.002c4.423-2.23 8.822-4.162 13.185-5.8l-22.26-7.45c-1.83-0.123-3.637-0.19-5.428-0.194z m59.34 20.19c-10.478-0.09-22.832 3.093-36.424 9.943l0.004-0.004c-48.23 24.34-89.625 90.513-91.548 145.436l156.485 53.24c3.865-62.22 46.797-129.372 101.613-157.035h0.002l0.002-0.003c4.303-2.168 8.584-4.056 12.832-5.666l-134.54-45.036c-2.652-0.542-5.458-0.847-8.427-0.873z m174.97 58.323c-10.476-0.09-22.83 3.092-36.42 9.94l-0.005 0.002c-48.577 24.518-90.225 91.473-91.586 146.623l46.205 15.72c3.914-62.188 46.825-129.274 101.607-156.92 4.522-2.283 9.04-4.258 13.53-5.91l-26.544-8.884c-2.164-0.35-4.423-0.55-6.785-0.57z m63.554 22.014c-10.267 0.093-22.094 3.353-35.333 10.034-47.158 23.8-87.777 87.587-91.362 141.75l174.55-73.726c-0.404-39.01-10.754-61.304-24.415-71.082-2.347-1.68-4.867-3.057-7.55-4.137l-0.01 0.034-4.735-1.584c-3.48-0.887-7.195-1.327-11.144-1.29zM56.299999999999976 234.022l-0.035 187.484L97.85999999999999 435.97999999999996V248.164L56.299999999999976 234.02399999999997zM116.54999999999998 254.51999999999998v187.962l156.282 54.37V307.688l-29.053-9.886v119.43l-101.054-34.082V263.42499999999995L116.54999999999998 254.51999999999998z m414.22 3.683L356.83299999999997 331.66999999999996v189.236l173.935-73.504v-189.2z m-369.354 11.582v99.947l63.675 21.477v-99.763l-63.674-21.662z m31.306 28.797c9.705 0 17.573 7.867 17.573 17.572 0 6.34-3.37 11.88-8.407 14.97v28.53h-18.69v-28.746c-4.838-3.13-8.048-8.562-8.048-14.754 0-9.705 7.867-17.572 17.572-17.572z m98.797 15.464v189.307l46.626 16.22V329.90999999999997l-46.627-15.864z" /></svg>