<svg xmlns="http://www.w3.org/2000/svg" width="100%" height="100%" viewBox="0 0 588.8 588.8"><path d="M269.777 63.39999999999998l-6 30H278.4v18h-18.223l-4.347 21.736L267.962 157.39999999999998H285.4V134.39999999999998h18v23h17.438l12.132-24.264L328.623 111.39999999999998H310.4V93.39999999999998h14.623l-6-30h-49.246zM142.71999999999997 109.88599999999998l-13.459 39.092H189.39999999999998V124.95099999999998l-46.68-15.065z m303.36 0L399.4 124.95099999999998v24.027h60.139l-13.46-39.092zM208.45499999999998 143.39999999999998l14.54 130.87L250.128 301.4h88.546l27.131-27.13L380.34499999999997 143.39999999999998h-32.382l-16 32h-75.125l-16-32h-32.383z m-69.334 14.027l-10.994 29.035 41.06 9.54 10.992-29.036-41.058-9.539z m269.504 9.55l10.988 29.025 41.06-9.54-7.378-19.486h-44.67zM138.7 207.396l8.933 59.187 29.666-4.479-7.156-47.404-31.443-7.305z m311.398 0l-31.443 7.304-7.156 47.404 29.666 4.479 8.933-59.188zM230.39999999999998 221.39999999999998h128v18H230.39999999999998v-18z m-54.092 59.057l-24.369 3.68c1.584 7.409 4.132 13.435 7.977 19.396 3.659 5.672 9.14 11.725 15.767 18.353-1.142-13.144-1.698-27.58 0.625-41.43z m236.184 0c2.323 13.85 1.767 28.285 0.625 41.43 6.626-6.63 12.108-12.682 15.767-18.354 3.845-5.96 6.393-11.987 7.977-19.397l-24.37-3.68zM255.39999999999998 319.4v51.273L282.12699999999995 397.4h24.546L333.4 370.673V319.4h-78zM138.16799999999998 351.4L127.39999999999998 362.347V365.4h62v-3.273L178.67299999999997 351.4H138.16799999999998z m272 0L399.4 362.347V365.4h62v-3.273L450.673 351.4h-40.505zM127.39999999999998 383.4v14h62v-14H127.39999999999998z m272 0v14h62v-14h-62z m-153 3.727l-7 7V443.4l27.117-36.156L246.39999999999998 387.12699999999995z m96 0l-20.117 20.117L349.4 443.4v-49.273l-7-7zM207.39999999999998 399.4v62h14v-62h-14z m160 0v62h14v-62h-14zM127.39999999999998 415.4v14h62v-14H127.39999999999998z m272 0v14h62v-14h-62zM127.39999999999998 447.4v14h62v-14H127.39999999999998z m272 0v14h62v-14h-62zM127.39999999999998 479.4v14h62v-14H127.39999999999998z m272 0v14h62v-14h-62zM127.39999999999998 511.4v14h62v-14H127.39999999999998z m272 0v14h62v-14h-62z" /></svg>