<svg xmlns="http://www.w3.org/2000/svg" width="100%" height="100%" viewBox="0 0 588.8 588.8"><path d="M119.92399999999998 214.89999999999998C86.34599999999998 172.18599999999998 76.99799999999998 152.76999999999998 74.39999999999998 144.93399999999997a27.408 27.408 0 0 1 30.514-7.851l230.6 84.722a52.994 52.994 0 0 1 31.474 31.474l84.722 230.6a27.408 27.408 0 0 1-7.851 30.514c-7.794-2.584-27.252-11.946-69.966-45.524-40.342-31.714-87.815-74.428-133.664-120.277-45.848-45.849-88.59-93.35-120.305-133.692z m104.307 149.676c-49.576-49.577-96.569-102.245-128.905-144.494a692.302 692.302 0 0 1-13.259-17.862l47.91 109.842a164.502 164.502 0 0 1 4.59 119.783l-11.932 34.313 34.313-11.932a164.502 164.502 0 0 1 119.783 4.59l109.842 47.91a692.283 692.283 0 0 1-17.862-13.26c-42.234-32.363-94.903-79.356-144.48-128.932z m281.56-281.56a29.413 29.413 0 0 0-41.585 0L425.72999999999996 121.47999999999998l41.556 41.556 38.52-38.52a29.413 29.413 0 0 0 0-41.556zM377.719 226.11199999999997l60.35-60.35-15.066-15.01-60.35 60.293a73.92 73.92 0 0 1 15.066 15.067z" /></svg>