<svg xmlns="http://www.w3.org/2000/svg" width="100%" height="100%" viewBox="0 0 588.8 588.8"><path d="M253.39999999999998 66.48399999999998c-41.58 6.557-73.571 23.214-96.637 46.28C127.71599999999998 141.80999999999997 112.53299999999997 181.397 111.46599999999998 225.39999999999998H143.39999999999998v82H118.59099999999998c7.48 41.377 20.766 83.17 39.75 118.766C189.44299999999998 484.47999999999996 234.52499999999998 525.4 294.4 525.4s104.957-40.92 136.059-99.234c18.984-35.596 32.27-77.389 39.75-118.766H445.4v-82h31.934c-1.067-44.002-16.25-83.59-45.297-112.637C408.96999999999997 89.69799999999998 376.97999999999996 73.04099999999997 335.4 66.48399999999998V111.39999999999998h-82V66.48399999999998zM229.39999999999998 102.39999999999998a9 9 0 0 1 9 9 9 9 0 0 1-9 9 9 9 0 0 1-9-9 9 9 0 0 1 9-9z m130 0a9 9 0 0 1 9 9 9 9 0 0 1-9 9 9 9 0 0 1-9-9 9 9 0 0 1 9-9zM225.39999999999998 134.39999999999998a9 9 0 0 1 9 9 9 9 0 0 1-9 9 9 9 0 0 1-9-9 9 9 0 0 1 9-9z m138 0a9 9 0 0 1 9 9 9 9 0 0 1-9 9 9 9 0 0 1-9-9 9 9 0 0 1 9-9z m-142 39a9 9 0 0 1 9 9 9 9 0 0 1-9 9 9 9 0 0 1-9-9 9 9 0 0 1 9-9z m48 0a9 9 0 0 1 9 9 9 9 0 0 1-9 9 9 9 0 0 1-9-9 9 9 0 0 1 9-9z m50 0a9 9 0 0 1 9 9 9 9 0 0 1-9 9 9 9 0 0 1-9-9 9 9 0 0 1 9-9z m48 0a9 9 0 0 1 9 9 9 9 0 0 1-9 9 9 9 0 0 1-9-9 9 9 0 0 1 9-9z m-137 29h128l-64 28-64-28z m-16 19c25.983 0 49 17.247 49 41s-23.017 41-49 41-49-17.247-49-41 23.017-41 49-41z m160 0c25.983 0 49 17.247 49 41s-23.017 41-49 41-49-17.247-49-41 23.017-41 49-41zM246.39999999999998 342.4l-48 48h-20l68-48z m16 0h64s-16.915 32-32 32-32-32-32-32z m80 0l68 48h-20l-48-48z m-80 64a9 9 0 0 1 9 9 9 9 0 0 1-9 9 9 9 0 0 1-9-9 9 9 0 0 1 9-9z m64 0a9 9 0 0 1 9 9 9 9 0 0 1-9 9 9 9 0 0 1-9-9 9 9 0 0 1 9-9z m-96 16a9 9 0 0 1 9 9 9 9 0 0 1-9 9 9 9 0 0 1-9-9 9 9 0 0 1 9-9z m128 0a9 9 0 0 1 9 9 9 9 0 0 1-9 9 9 9 0 0 1-9-9 9 9 0 0 1 9-9z m-96 16a9 9 0 0 1 9 9 9 9 0 0 1-9 9 9 9 0 0 1-9-9 9 9 0 0 1 9-9z m64 0a9 9 0 0 1 9 9 9 9 0 0 1-9 9 9 9 0 0 1-9-9 9 9 0 0 1 9-9z m-119 7a9 9 0 0 1 9 9 9 9 0 0 1-9 9 9 9 0 0 1-9-9 9 9 0 0 1 9-9z m174 0a9 9 0 0 1 9 9 9 9 0 0 1-9 9 9 9 0 0 1-9-9 9 9 0 0 1 9-9z m-119 25a9 9 0 0 1 9 9 9 9 0 0 1-9 9 9 9 0 0 1-9-9 9 9 0 0 1 9-9z m64 0a9 9 0 0 1 9 9 9 9 0 0 1-9 9 9 9 0 0 1-9-9 9 9 0 0 1 9-9z" /></svg>