<svg xmlns="http://www.w3.org/2000/svg" width="100%" height="100%" viewBox="0 0 588.8 588.8"><path d="M63.39999999999998 82.03699999999998v13.447c166.014 44.44 287.965 45.322 452.29 2.586l4.93-14.79C355.503 126.20199999999998 229.27599999999998 125.79599999999998 63.39999999999998 82.03599999999997z m7.965 34.168l20.83 41.66c169.675 15.31 234.248 15.327 403.537 0.074l13.19-39.575c-156.893 39.28-279.4 38.56-437.557-2.16zM285.42699999999996 175.39999999999998l-11.5 46h40.946l-11.5-46h-17.946zM127.39999999999998 179.02299999999997V399.4H86.39999999999998v-41h16l-24-16-24 16h16v41h-7v14h7v71.14h-7v14h7V534.4h16v-35.86h41V525.4h46v-26.86h41V534.4h16v-35.86h7v-14h-7V413.4h7v-14h-7v-41h16l-24-16-24 16h16v41h-41V182.60699999999997c-14.517-1.026-29.803-2.226-46-3.584z m334 0c-16.197 1.358-31.483 2.558-46 3.584V399.4h-41v-41h16l-24-16-24 16h16v41h-7v14h7v71.14h-7v14h7V534.4h16v-35.86h41V525.4h46v-26.86h41V534.4h16v-35.86h7v-14h-7V413.4h7v-14h-7v-41h16l-24-16-24 16h16v41h-41V179.02299999999997zM82.88599999999997 223.39999999999998l10 30H109.39999999999998v-30H82.88599999999997zM191.39999999999998 223.39999999999998v30h206v-30h-63.473l4 16h-87.054l4-16H191.39999999999998z m288 0v30h16.514l10-30H479.4zM86.39999999999998 413.4h41v71.14H86.39999999999998V413.4z m87 0h41v71.14h-41V413.4z m201 0h41v71.14h-41V413.4z m87 0h41v71.14h-41V413.4z" /></svg>