<svg xmlns="http://www.w3.org/2000/svg" width="100%" height="100%" viewBox="0 0 588.8 588.8"><path d="M329.57 55.37499999999998c-5.923 0.122-11.645 2.246-16.06 7.398-17.652 20.61-13.472 36.05-10.667 42.856 16.607-51.264 33.81-5.23 55.442-25.076 8.615-7.904-10.947-25.546-28.715-25.18zM246.39999999999998 105.50699999999998c-19.994 0.235-33.533 26.42-25.31 33.495 22.252 19.138 32.473-26.055 58.884-4.803-6.212-13.538-13.58-28.927-33.574-28.693z m93.832 8.967c-12.564 0.318-21.72 9.49-29.832 17.832 32-11.19 26.51 34.82 53.883 24.23 10.118-3.914 6.12-33.12-12.643-40.032-4.104-1.512-7.89-2.12-11.408-2.03zM285.4 144.50699999999998v32h-30.38l-6.4 32H237.39999999999998v18h7.62l-15.417 77.09-1.594 0.91H214.39999999999998v18h11.422l-34.8 174H166.39999999999998v18h256v-18h-24.62l-34.802-174H374.4v-18h-13.61l-1.593-0.91-15.418-77.09H351.4v-18h-11.22l-6.4-32H303.4v-32h-18z m-15.62 50H285.4v14h-18.42l2.8-14z m33.62 0h15.62l2.8 14H303.4v-14z m-40.02 32H285.4v34.92l-26.03-14.875 4.01-20.045z m40.02 0h22.02l4.01 20.045L303.4 261.42699999999996v-34.92z m-47.752 38.65l20.61 11.778-25.928 14.82 5.318-26.597z m77.504 0l5.318 26.597-25.93-14.82 20.612-11.776zM285.4 292.44599999999997v12.062h-21.11L285.4 292.44499999999994z m18 0l21.11 12.062H303.4v-12.062z m-59.22 30.062H285.4v47.846l-47.615-15.87 6.394-31.976z m59.22 0h41.22l6.407 32.028L303.4 371.01v-48.503z m-69.172 49.762l33.38 11.126-38.253 13.234 4.873-24.36z m120.36 0.08l4.515 22.57-35.525-11.84 31.01-10.73zM303.4 395.325l48.54 16.18L303.4 437.97999999999996v-42.656z m-18 0.963v41.692l-46.77-25.512L285.4 396.28999999999996z m-61.688 28.55l51.893 28.302-64.6 35.237 12.708-63.54z m141.375 0l12.708 63.54-64.598-35.238 51.89-28.303zM285.4 468.303v28.203h-51.705L285.4 468.304z m18 0l51.705 28.203H303.4v-28.203z" /></svg>