<svg xmlns="http://www.w3.org/2000/svg" width="100%" height="100%" viewBox="0 0 588.8 588.8"><path d="M268.23199999999997 62.565999999999974C207.48699999999997 62.26799999999997 147.21699999999998 88.84999999999998 106.51999999999998 140.11999999999998c-70.4 88.68-55.578 217.634 33.1 288.032 1.39 1.104 2.817 2.195 4.26 3.27 0.286 0.303 0.575 0.618 0.86 0.916-0.118-0.177-0.23-0.355-0.348-0.532 5.055 3.744 10.36 7.29 15.504 10.475-15.073-15.153-27.356-32.234-36.783-50.52-26.065-64.267-15.236-129.285 32.96-161.24 58.434-38.76 151.118-15.176 215.06 51.675-3.942-5.902-8.413-12.113-13.016-17.834-63.682-79.235-166.368-109.6-229.362-67.817-1.072 0.71-2.122 1.442-3.158 2.185 5.43-9.825 11.74-19.333 18.953-28.418 65.31-82.274 181.148-100.695 268.36-46.756-5.63-5.66-11.95-11.454-18.358-16.54-37.412-29.7-81.992-44.23-126.32-44.448z m160.617 82.277c45.104 42.614 67.29 102.166 63.886 161.223-5.603 29.51-20.302 57.597-44.16 80.174-58.436 55.31-151.12 57.978-215.063 9.238 3.944 4.784 8.413 9.73 13.016 14.145 49.375 47.45 122.196 58.87 181.786 33.818-65.28 61.195-164.122 72.983-242.467 27.83 5.804 5.48 12.3 11.075 18.863 15.96 90.822 67.61 219.257 48.797 286.867-42.03 67.61-90.822 48.795-219.255-42.028-286.866-6.56-4.887-13.782-9.5-20.703-13.49z" /></svg>