<svg xmlns="http://www.w3.org/2000/svg" width="100%" height="100%" viewBox="0 0 588.8 588.8"><path d="M374.4 54.39999999999998l9.605 34.55v36.473l59.786 44.84 69.99 35.85 11.015-33.04-88.81-97.118-19.59 4.898L374.4 54.39999999999998z m-12.492 20.13L308.85499999999996 193.89999999999998h28.057l29.093-72.732v-42.54l-4.097-4.1z m67.86 21.415l34.88 35.84-41.643-11.637 6.764-24.203z m-52.93 46.603l-24.14 60.35 50.718 126.795 24.77-148.633-51.347-38.512zM128.00599999999997 211.89999999999998v142h62v-96h146v96h57.707l-56.8-142H128.005z m-18 9l-46 34.5v117.014l30 10V279.16999999999996l16-16V220.89999999999998z m98 55v14h110v-14h-110z m0 32v14h110v-14h-110z m0 32v14h110v-14h-110z m-80 32v78.51c2.29-0.33 4.624-0.51 7-0.51 7.913 0 15.395 1.912 22.028 5.277l37.012-83.277h-66.04z m209.057 0l9.004 81.04c5.286-1.963 10.992-3.04 16.94-3.04 5.2 0 10.213 0.83 14.925 2.348l17.857-80.348h-58.725z m-202.057 96c-17.227 0-31 13.773-31 31s13.773 31 31 31c17.228 0 31-13.773 31-31s-13.772-31-31-31z m228 0c-17.227 0-31 13.773-31 31s13.773 31 31 31c17.228 0 31-13.773 31-31s-13.772-31-31-31z m-228 15c8.837 0 16 7.163 16 16s-7.163 16-16 16c-8.836 0-16-7.163-16-16s7.164-16 16-16z m228 0c8.837 0 16 7.163 16 16s-7.163 16-16 16c-8.836 0-16-7.163-16-16s7.164-16 16-16z m-179.847 7c0.548 2.92 0.847 5.926 0.847 9s-0.3 6.08-0.847 9h131.695c-0.548-2.92-0.848-5.926-0.848-9s0.3-6.08 0.848-9H183.158z" /></svg>