<svg xmlns="http://www.w3.org/2000/svg" width="100%" height="100%" viewBox="0 0 588.8 588.8"><path d="M294.65 56.64999999999998c-31.81 0-61.71 14.253-86.906 39.438L229.39999999999998 285.30499999999995h35.125c19.944 0 19.7 37.852 0.688 38.75v64.156h59.218v-64.187c-20.043-1.644-19.334-38.72 1.376-38.72h34.75L382.17999999999995 96.71299999999998C356.85499999999996 71.13999999999999 326.72299999999996 56.64999999999998 294.65 56.64999999999998zM191.087 115.21299999999998c-2.375 3.118-4.68 6.353-6.937 9.687-29.025 42.865-47.375 102.888-47.375 169.375s18.35 126.542 47.375 169.406c26.88 39.698 62.346 64.383 101.156 67.814v-63.97H250.92999999999998c-21.46 0-21.18-38.78 0-38.78h88.5c20.185 0 19.697 38.78 0 38.78h-35.436v63.97c38.81-3.43 74.276-28.116 101.156-67.813 29.025-42.863 47.375-102.918 47.375-169.405S434.17499999999995 167.765 405.15 124.89999999999998c-2.077-3.067-4.198-6.053-6.375-8.938L379.37 285.306h34.936c20.184 0 19.696 38.78 0 38.78l-71.187 0.002V406.9h-96.596v-82.814l-70.5 0.002c-21.462 0-21.18-38.782 0-38.782h34.563l-19.5-170.094z" /></svg>