<svg xmlns="http://www.w3.org/2000/svg" width="100%" height="100%" viewBox="0 0 588.8 588.8"><path d="M313.42999999999995 58.39999999999998c35.223 49.563 53.59 113.64 55.69 173.47C353.554 181.39999999999998 327.49199999999996 126.82299999999998 289.21 87.14999999999998c40.294 79.527 51.15 172.312 37.938 256.094-12.287-75.777-40.564-159.524-92.375-227.156 29.6 70.937 36.64 149.785 24.813 221.843-8.745-51.804-25.41-107.4-52.594-158.81 13.023 54.315 12.854 107.64 3.437 159.28l21.657 6.813 15 4.718-11.28 10.908c-10.68 10.332-19.868 21.905-27.345 34.343 93.614 35.486 232.952 64.53 298.032 41.376-41.02 56.466-210.332 13.822-309.313-18.687-1.514 3.775-2.918 7.594-4.124 11.467-3.014 9.686-5.023 19.61-6.062 29.657l176.47 66.375c98.5 31.095 150.5-24.62 158.655-81.72C543.653 292.87199999999996 523.4159999999999 144.05999999999997 464.46 58.39999999999998h-22.187c40.092 65.52 66.67 154.216 60.47 255.344-8.154-79.833-42.8-157.214-98.44-219.5 38.676 85.094 56.566 185.746 34.376 288.625 0.057-118.816-33.1-225.865-105.092-324.47H313.42999999999995z m-110.186 1.594c41.255 29.176 74.328 74.093 97.5 120.656-7.702-46.15-21.3-86.79-44-120.656h-53.5z m176.375 0c28.882 15.143 52.096 36.614 71.28 66.78-7.14-27.79-17.217-49.85-31.438-66.78H379.62zM162.08599999999998 342.806c2.528 21.65 1.07 43.31-4.062 64L57.211999999999975 374.74399999999997V404.4l91.938 29.094c-7.38 17.44-17.563 33.767-30.313 48.28l50.094 15.75c-3.038-24.898-1.136-49.885 6.282-73.718 7.446-23.92 20.223-46.108 37.032-65.22l-50.156-15.78z" /></svg>