<svg xmlns="http://www.w3.org/2000/svg" width="100%" height="100%" viewBox="0 0 588.8 588.8"><path d="M335.025 63.805999999999976c-63.794 0.388-135.81 14.683-206.03 32.844-3.472 34.08 2.226 68.906 14.03 104.25C219.575 114.33599999999998 432.04999999999995 83.22499999999998 525.12 166.39999999999998 494.41999999999996 88.86599999999999 422.44599999999997 63.27399999999997 335.024 63.805999999999976zM104.05499999999998 99.83799999999998L66.30599999999998 109.39999999999998c5.643 78.022 28.546 132.393 60.44 174.47-16.54 10.348-40.693 19.673-68.782 26.843 5.664 6.597 14.25 16.18 30.53 18.53 24.846-4.33 39.912-14.982 53.75-26.593 76.24 85.145 190.22 118.955 253.126 224.22l49.436-0.126C329.39599999999996 313.71599999999995 119.40999999999998 403.20399999999995 104.05599999999998 99.83799999999998z" /></svg>