<svg xmlns="http://www.w3.org/2000/svg" width="100%" height="100%" viewBox="0 0 588.8 588.8"><path d="M174.96399999999997 69.40999999999998l239.67 149.595c-12.418 21.234-20.756 28.302-45.027 46.936l156.3-26.33-85.603-125.474c4.936 24.85 8.85 38.5 0.75 60.49L174.968 69.40999999999998h-0.004zM59.92399999999998 81.14999999999998l83.13 325.893c-21.017 5.232-30.98 3.262-58.875-3.96l124.046 113.45 13.426-166.844c-10.836 23.322-15.94 37.197-34.342 46.82L59.92299999999997 81.14999999999998z m64.353 0.215l252.2 353.16c-23.285 16.947-36.38 19.583-73.83 24.9l200.66 71.74L446.09999999999997 325.344c-2.477 33.743-2.313 53.14-20.37 74.09L124.27699999999997 81.36499999999998z" /></svg>