<svg xmlns="http://www.w3.org/2000/svg" width="100%" height="100%" viewBox="0 0 588.8 588.8"><path d="M294.4 59.39999999999998c-66.72 0-121 54.28-121 121s54.28 121 121 121 121-54.28 121-121S361.12 59.39999999999998 294.4 59.39999999999998z m0 18c56.992 0 103 46.008 103 103s-46.008 103-103 103-103-46.008-103-103S237.408 77.39999999999998 294.4 77.39999999999998z m0 11.75l-69.4 52.05 10.8 14.4L294.4 111.64999999999998l58.6 43.95 10.8-14.4L294.4 89.14999999999998z m0 48l-69.4 52.05 10.8 14.4 58.6-43.95 58.6 43.95 10.8-14.4L294.4 137.14999999999998z m0 48l-69.4 52.05 10.8 14.4 58.6-43.95 58.6 43.95 10.8-14.4-69.4-52.05zM91.96199999999997 223.39999999999998l-7 14h66.876l-7-14H91.96199999999997z m352 0l-7 14h66.875l-7-14h-52.875zM79.39999999999998 255.39999999999998v46h78v-46H79.39999999999998z m352 0v46h78v-46h-78zM102.39999999999998 269.4h32v18H102.39999999999998v-18z m352 0h32v18h-32v-18zM76.88599999999997 319.4l-10 30h455.028l-10-30H76.88599999999997zM63.39999999999998 367.4v158h199v-87h64v87h199V367.4H63.39999999999998z m55 14h32v18H118.39999999999998v-18z m80 0h32v18h-32v-18z m80 0h32v18h-32v-18z m80 0h32v18h-32v-18z m80 0h32v18h-32v-18z" /></svg>