<svg xmlns="http://www.w3.org/2000/svg" width="100%" height="100%" viewBox="0 0 588.8 588.8"><path d="M302.257 58.071999999999974c-1.538-0.042-3.12 0.125-4.658 0.125-32.844 0-59.585 33.908-59.585 75.92 0 21.273 7.083 40.468 18.096 54.285-68.132 10.566-82.843 105.413-66.646 191.555h23.334l-0.765-78.11 18.687-0.183 0.94 95.715 9.004 136.618h109.9l11.477-154.04h0.366l0.77-78.294 18.687 0.183-0.768 78.11h24.2c18.367-88.46-4.715-178.936-67.086-190.672 11.505-13.88 18.977-33.357 18.977-55.168 0-39.388-23.417-72.022-53.408-75.92-0.5-0.075-1.01-0.11-1.523-0.125z m-202.79 0.21v18.68H115.92999999999998v79.45H60.16999999999997v50.324h18.68v-31.643h23.34l-6.436 212.66L125.53699999999998 439.09999999999997l29.252-51.346-6.023-212.66h22.928v31.642h18.68v-50.324H134.60999999999996v-79.45h16.466V58.27999999999997h-51.61z m339.23 0v18.68h16.465v79.45h-55.764v50.324h18.682v-31.643h23.338l-6.436 212.66 29.785 51.346 29.252-51.346-6.022-212.66h22.927v31.642h18.682v-50.324h-55.764v-79.45h16.463V58.27999999999997h-51.61z m-167.95 66.59h53.385v18.688h-17.35v82.82h57.682v51.737h-18.687v-33.05h-24.04l6.237 220.296-30.26 53.113-30.808-53.113 6.664-220.295H249.09999999999997v33.05h-18.688V226.37999999999997h57.683v-82.82h-17.35V124.86999999999998z" /></svg>