<svg xmlns="http://www.w3.org/2000/svg" width="100%" height="100%" viewBox="0 0 588.8 588.8"><path d="M88.39999999999998 134.39999999999998c-9.972 0-18 8.028-18 18v300c0 9.972 8.028 18 18 18h412c9.972 0 18-8.028 18-18V152.39999999999998c0-9.972-8.028-18-18-18H88.39999999999998z m5 23h402v18H93.39999999999998v-18z m0 32h210v258H93.39999999999998V189.39999999999998z m18 18v222h7.03c0.47-24.342 18.315-74.172 47.093-97.889C174.73099999999997 338.96 186.015 343.4 198.39999999999998 343.4c12.385 0 23.669-4.44 32.877-11.889C260.05499999999995 355.22799999999995 277.9 405.058 278.37 429.4H285.4V207.39999999999998H111.39999999999998z m222 14h146v18H333.4v-18z m-135 10c20.835 0 39 20.241 39 47s-18.165 47-39 47-39-20.241-39-47 18.165-47 39-47z m135 22h114v18H333.4v-18z m0 32h50v18h-50v-18z m80 0h66v18h-66v-18z m-16 96h98v18h-98v-18z m-32 32h130v18H365.4v-18z" /></svg>