<svg xmlns="http://www.w3.org/2000/svg" width="100%" height="100%" viewBox="0 0 588.8 588.8"><path d="M396.07599999999996 58.78699999999998c-2.612 0.01-5.23 0.105-7.856 0.29-63.314 4.438-131.13 58.006-142.117 130.253L532.4 201.39199999999997V128.05599999999998c-8.09-7.792-16.415-15.25-24.953-22.177-34.59-28.067-72.195-47.234-111.37-47.093zM163.95 79.21199999999997C127.76299999999998 79.33999999999997 90.14299999999997 94.12499999999997 56.39999999999998 125.22499999999998v81.3l172.107-18.815-0.363-0.054c3.872-26.688 14.327-50.957 29.162-71.742-26.973-24.13-59.536-36.82-93.357-36.7z m110.263 129.514c-24.49-0.258-109.87 12.136-109.602 27.078 0.46 25.55 104.433 51.553 94.726 53.018C160.95299999999997 303.66999999999996 106.36799999999998 303.827 73.73999999999998 333.59999999999997c-38.914 35.507 214.983 80.92 184.422 89.687-57.204 16.412-107.82 36.256-109.002 88.414-0.17 7.52 0.8 14.385 2.705 20.7h54.945c-15.423-20.635-24.05-40.664-14.6-45.912 10.413 15.107 22.492 31.126 36.174 45.912h64.286c-19.474-9.912-51.732-29.408-50.594-49.424 1.6-28.17 66.37-47.758 69.883-47.758 0 0-48.786 26.384-49.867 49.866-0.767 16.68 22.317 36.985 35.69 47.316h51.976c-16.454-12.325-26.478-24.92-20.426-31.885 15.54 11.066 33.115 22.438 51.826 31.885h106.717c-56.74-15.988-102.683-32.67-115.225-53.127-10.196-16.63 72.362-27.836 60.408-78.902-5.79-24.738-58.24-41.094-203.222-62.626-25.368-3.768 134.358-19.456 129.818-57.11-2.65-21.98-103.288-26.85-114.58-36.933-4.746-4.237 5.863-29.56 29.137-34.974zM129.825 346.45599999999996c33.376-0.145 84.385 22.424 122.8 36.747l-1.79 11.67c-28.404-10.606-103.905-37.464-127.442-48.077 2.06-0.22 4.207-0.332 6.432-0.34z m270.234 53.803c0.103-0.006 0.1 0.077-0.015 0.253 3.9 12.183-21.487 44.05-61.807 42.842 14.153-7.15 59.732-43.004 61.822-43.096z" /></svg>