<svg xmlns="http://www.w3.org/2000/svg" width="100%" height="100%" viewBox="0 0 588.8 588.8"><path d="M235.24399999999997 52.52499999999998l-8.75 2.906-43.22 13.44-3.5 1.155-1.75 2.938L69.14999999999998 244.99299999999997l-14 21.032 5.344 15.156L79.89999999999998 346.87l2.344 7 7.594-0.595 74.156-4.687 6.437-0.563 1.75-5.844 77.095-239.436 1.156-2.938-1.155-2.906-11.125-35.625-2.03-6.094-0.032-0.25h-0.032l-0.812-2.405z m123.812 5.25l-2.906 5.844-18.125 40.874-1.75 3.5 1.188 4.094L421.556 312.4l1.75 4.656 4.657 1.188 64.843 14.03 7.594 1.157V333.4l2.906-7 26.875-60.72 1.75-4.092-1.75-4.094L428.55699999999996 67.08799999999998l-2.343-4.657-5.25-0.592-55.47-3.5-6.437-0.563zM222.99399999999997 75.86999999999998l7.562 23.936-0.906 2.844-89.594 174.125 23.625 31.094-6.874 21.31-32.78-42.5-42.563-0.842L76.39999999999998 268.58799999999997l1-1.563 46.094 0.938L222.11999999999998 76.14999999999998l0.874-0.28z m147.156 1.75l16.47 0.874 76.343 153.22 36.5 8.374 11.53 21.718-48.468-10.656-7.22 53.438-18.436-3.844L445.493 239.39999999999998l-77.53-156.72 2.186-5.06z m-79.437 85.28l-5.25 3.5-37.375 25.094-3.5 2.344-0.594 4.093L204.86999999999998 454.9l-0.564 5.25 4.063 3.5 76.53 63.656 6.406 5.282 5.844-5.282 75.344-66.562 4.094-2.938-0.594-4.656-28.625-251.125-0.564-4.094-4.093-2.342-46.72-29.782-5.28-2.906z m0.562 22.53l19.5 12.095 12.25 202.406 30.844 24.908 2.843 24.812-0.875 0.78-40.594-32.905-75.156 48.188-15.094-12.47 79.437-50.687-13.155-217.125z m108.438 148.345l-7.5 37.563 32.218 94 33.595 14.968 19.438-39.375-48.094-85.155-29.657-22zM147.02499999999998 388.9l-29.687 10.813L70.39999999999998 469.87l2.625 34.593 31.188-12.75 46.937-70.188-4.125-32.625z" /></svg>