<svg xmlns="http://www.w3.org/2000/svg" width="100%" height="100%" viewBox="0 0 588.8 588.8"><path d="M99.39999999999998 54.39999999999998L54.39999999999998 99.39999999999998l195 180 195 165-165-195L99.39999999999998 54.39999999999998z m314.97 240c-21.068 0.066-42.135 5.635-60.876 16.656l45.406 45.406c10.03-2.64 20.587-2.446 30.594 0.157l45.75-45.75v-0.064c-18.757-11.03-39.81-16.472-60.875-16.406z m-103.314 59.156c-22.027 37.48-22.31 84.238-0.25 121.75l45.75-45.75c-2.56-10.002-2.73-20.594-0.094-30.625l-45.406-45.374z m206.938 0l-45.75 45.75c2.556 10.007 2.73 20.565 0.094 30.594l45.406 45.406c22.03-37.48 22.312-84.24 0.25-121.75zM399.306 472.24399999999997l-45.75 45.75c37.514 22.06 84.27 21.788 121.75-0.25L429.9 472.33799999999997V472.4c-10.03 2.64-20.592 2.45-30.594-0.156z" /></svg>