<svg xmlns="http://www.w3.org/2000/svg" width="100%" height="100%" viewBox="0 0 588.8 588.8"><path d="M173.14499999999998 60.497999999999976c-4.538-0.146-9.08 1.43-14.893 7.243-5.586 5.586-11.841 21.725-15.248 35.992-0.234 0.979-0.444 1.907-0.654 2.836l114.254 105.338c-7.18-28.538-17.555-59.985-29.848-86.75-11.673-25.418-25.249-46.657-37.514-57.024-6.132-5.183-11.56-7.488-16.097-7.635zM130.928 120.52199999999998L120.52399999999997 130.926 281.98 306.051l24.072-24.072L130.928 120.52199999999998z m-24.357 21.826c-0.929 0.21-1.857 0.42-2.836 0.654-14.267 3.407-30.406 9.662-35.993 15.248-5.813 5.813-7.39 10.355-7.244 14.893 0.147 4.538 2.452 9.965 7.635 16.098 10.367 12.265 31.608 25.842 57.025 37.515 26.766 12.293 58.211 22.669 86.749 29.848L106.56999999999998 142.34799999999996zM319.299 294.18999999999994l-25.107 25.107 73.265 79.469 31.31-31.31L319.29999999999995 294.18999999999994z m92.715 85.476l-32.346 32.344 2.07 2.246c0.061 0.058 4.419 4.224 10.585 6.28 6.208 2.069 12.71 2.88 21.902-6.313 9.192-9.192 8.38-15.694 6.31-21.902-2.057-6.174-6.235-10.54-6.283-10.59l-2.238-2.065z m20.172 41.059a46.23 46.23 0 0 1-5.233 6.226 46.241 46.241 0 0 1-6.226 5.235L528.31 528.31l-96.125-107.586z" /></svg>