<svg xmlns="http://www.w3.org/2000/svg" width="100%" height="100%" viewBox="0 0 588.8 588.8"><path d="M56.39999999999998 56.39999999999998v61.193l25.22-7.142L95.28599999999997 56.39999999999998z m56.643 0L98.30999999999997 114.67999999999998l53.06 51.58 71.16-20.15L240.67 74.39999999999998l-18.5-18z m133.845 0l5.782 5.62L272.52299999999997 56.39999999999998z m104.27 0l42.453 41.27 71.158-20.15L470.11499999999995 56.39999999999998z m136.701 0l-6.43 25.33L532.4 131.24199999999996V56.39999999999998z m-159.328 2l-71.16 20.18-18.16 71.74 53 51.57 71.25-20.16 18.138-71.71z m140.988 35.69l-71.228 20.15-18.131 71.71 53.05 51.58L504.38 217.39999999999998l18.14-71.74zM86.29099999999997 127.01999999999998L56.39999999999998 135.48299999999998v133.191l64.81-18.355 18.13-71.71z m140.99 35.65l-71.192 20.16-18.18 71.71 53.061 51.58 71.17-20.14 18.14-71.74zM532.4 176.80799999999996L521.0799999999999 221.59999999999997 532.4 232.60299999999998zM368.14 198.29999999999998L296.96999999999997 218.39999999999998l-18.14 71.74 53 51.57 71.19-20.16 18.19-71.67z m140.93 35.65l-71.19 20.15-18.13 71.71L472.81 377.4 532.4 360.525V256.62699999999995zM125.88999999999997 266.89L56.39999999999998 286.568v91.406l33.23 32.276 71.18-20.07 18.13-71.71z m140.95 35.65l-71.19 20.16-18.14 71.7 53.06 51.58 71.16-20.15 18.14-71.74z m140.9 35.62l-71.16 20.15-18.14 71.74 53 51.57 71.19-20.16 18.14-71.71zM532.4 378.41799999999995l-54.92 15.543-18.13 71.709 53.06 51.58 19.99-5.657z m-476 23.63v93.233l3.09-0.881 18.14-71.71z m109.07 4.702L94.32999999999998 426.9l-18.12 71.74L110.91499999999998 532.4h81.154l8.332-2.36 18.13-71.71zM306.42999999999995 442.4l-71.22 20.15L217.58499999999998 532.4H349.76l9.72-38.44z m140.91 35.62l-71.13 20.15-8.677 34.23h132.162l0.705-2.79zM64.20999999999998 510.98999999999995L56.39999999999998 513.2V532.4h29.824zM532.4 526.13l-15.92 4.5-0.447 1.77H532.4z" /></svg>