<svg xmlns="http://www.w3.org/2000/svg" width="100%" height="100%" viewBox="0 0 588.8 588.8"><path d="M53.321999999999974 52.60999999999998V235.40999999999997c105.426 65.67 171.442 156.49 109.213 299.017 71.456-76.97 99.707-180.437 72.418-273.904l-43.217 28.034c-8.593-32.65-25.23-63.915-44.04-88.097-18.808-24.182-35.91-41.747-54.142-58.317l12.57-13.83c26.36 23.958 50.918 50.426 71.26 81.727 122.584 56.688 209.387 144.066 155.1 301.027 65.208-82.512 85.325-187.03 50.81-277.992l-41.466 30.37c-9.225-26.42-23.88-51.128-43.455-74.562-31.626-34.863-68.584-59.443-108.29-79.904l8.56-16.61c46.226 23.82 90.127 53.793 126.312 98.87C437.433 227.95999999999998 517.8979999999999 299.03999999999996 494.84 447.98999999999995c49.442-93.163 50.723-200.15 0.585-283.248l-35.04 38.547C417.676 127.99999999999997 327.06 73.86299999999997 198.15999999999997 52.60999999999998H53.32399999999998z" /></svg>