<svg xmlns="http://www.w3.org/2000/svg" width="100%" height="100%" viewBox="0 0 588.8 588.8"><path d="M134.57999999999998 60.88999999999997C303 136.76 441.5 253.2 78.50999999999998 308.9 191.39999999999998 306.4 229.99999999999997 329.5 102.51999999999998 421c230.18-128 331.68-189 318.98 106.9 30.5-54.4 114.6-241 36.4-268.3 6.2-7.4 15.5-19.4 22.1-31.9 13.1-5.7 22.6-13.6 30.3-23.7-8.7-2-16-2.5-22.8-2.3-0.2-2.8-0.8-5.5-2.1-7.9-8.7-16.5-48.1-13.7-62.4-12.1 4.7-81-226.8-117.09-288.42-120.81z" /></svg>