<svg xmlns="http://www.w3.org/2000/svg" width="100%" height="100%" viewBox="0 0 588.8 588.8"><path d="M294.4 61.39999999999998c-35 0-62 17.92-79.3 41.71-11.9 16.38-19.6 35.49-23.2 54.29H210.39999999999998c3.4-15.2 9.9-30.77 19.3-43.71C244.39999999999998 93.47999999999998 265.4 79.39999999999998 294.4 79.39999999999998s50 14.08 64.7 34.29c9.4 12.94 15.9 28.51 19.3 43.71h18.5c-3.6-18.8-11.3-37.91-23.2-54.29C356.4 79.31999999999998 329.4 61.39999999999998 294.4 61.39999999999998zM126.64999999999998 175.39999999999998L96.20999999999998 525.4H492.59999999999997l-30.4-350H126.64999999999998zM198.39999999999998 198.39999999999998a16 16 0 0 1 16 16 16 16 0 0 1-16 16 16 16 0 0 1-16-16 16 16 0 0 1 16-16z m192 0a16 16 0 0 1 16 16 16 16 0 0 1-16 16 16 16 0 0 1-16-16 16 16 0 0 1 16-16z" /></svg>