<svg xmlns="http://www.w3.org/2000/svg" width="100%" height="100%" viewBox="0 0 588.8 588.8"><path d="M116.03699999999998 59.235999999999976l-0.598 56.236-55.913 0.28 67.1 50.492 19.673-6.393 53.3 53.302-9.3-35.73-30.578-30.58 6.813-20.504-50.498-67.102z m338.855 0.818l-116.535 107.96-45.37-99.557-19.972 111.193-71.658-41.87 26.834 103.077-134.104 4.162 91.375 63.427-98.93 70.617 103.343-7.61L120.45999999999998 496.29999999999995l116.268-66.023-1.838 82.47 63.98-81.036 41.163 54.12 14.08-63.637 53.14 25.486-67.777-67.776c-10.955 6.72-22.698 11.65-34.62 14.172l0.026 0.135c-1.48 0.27-2.95 0.495-4.412 0.682-33.335 5.352-58.06-10.3-64.695-37.465-3.09-10.107-3.674-21.624-1.465-33.785 8.17-44.95 48.8-85.58 93.75-93.75 5.62-1.02 11.1-1.447 16.37-1.304 6.487 0.174 12.644 1.225 18.345 3.072 26.107 6.87 41.242 30.692 36.727 62.78-0.215 1.987-0.503 3.996-0.872 6.022l-0.18-0.033c-3.006 14.26-9.466 28.265-18.314 40.976l31.776 31.775 94.43-7.585-74.294-50.908 91.8-52.576-86.134-12.692 72.557-97.62-94.765 38.963 39.387-130.706zM285.46 272.578c-4.628 4.188-8.946 8.75-12.847 13.584L449.76 463.31l-48.223 26.666 129.7 45.11-45.118-129.694-24.158 43.69-66.933-66.932-0.114-0.406L368.77 355.59999999999997c-0.046 0.05-0.095 0.1-0.14 0.15l-83.17-83.172z" /></svg>