<svg xmlns="http://www.w3.org/2000/svg" width="100%" height="100%" viewBox="1.2 1.2 21.6 21.6"><defs><style>.cls-1{fill:none}</style></defs><g id="android"><path d="M18.06 9.33a.94.94 0 00-.94.94v4.26a.94.94 0 001.88 0v-4.26a.94.94 0 00-.94-.94zM5.94 9.33a.94.94 0 00-.94.94v4.26a.94.94 0 001.88 0v-4.26a.94.94 0 00-.94-.94zM7.56 9.33v6.4a1.07 1.07 0 001.07 1.07h.68v2.27a.94.94 0 001.88 0V16.8h1.62v2.27a.94.94 0 001.88 0V16.8h.68a1.07 1.07 0 001.07-1.07v-6.4z"/><circle cx="9.98" cy="7.07" r=".4" class="cls-1"/><circle cx="14.02" cy="7.07" r=".4" class="cls-1"/><path d="M16.32 8a4.13 4.13 0 00-1.83-2.36l-.15-.09-.16-.08.18-.31.53-1a.14.14 0 00-.05-.16h-.07a.17.17 0 00-.13.07L14.1 5l-.17.31-.16-.07-.17-.06a4.88 4.88 0 00-3.2 0l-.16.06-.17.07L9.9 5l-.54-1a.14.14 0 00-.25.14l.53 1 .18.31-.16.08-.15.09A4.07 4.07 0 007.69 8a3.11 3.11 0 00-.13.8h8.88a3.6 3.6 0 00-.12-.8zM10 7.47a.4.4 0 11.4-.4.4.4 0 01-.4.4zm4 0a.4.4 0 11.4-.4.4.4 0 01-.4.4z"/></g></svg>