<svg xmlns="http://www.w3.org/2000/svg" width="100%" height="100%" viewBox="1.2 1.2 21.6 21.6"><path d="M4.5 20.25a.76.76 0 01-.75-.75v-15a.75.75 0 011.5 0v15a.76.76 0 01-.75.75z"/><path d="M19.5 20.25h-15a.75.75 0 010-1.5h15a.75.75 0 010 1.5zM14 14.75a.74.74 0 01-.53-.22L11 12.06l-2.47 2.47a.75.75 0 01-1.06-1.06l3-3a.75.75 0 011.06 0L14 12.94l3.47-3.47a.75.75 0 011.06 1.06l-4 4a.74.74 0 01-.53.22z"/><path d="M18.5 13.84a.76.76 0 01-.75-.75v-2.84H15a.75.75 0 010-1.5h3.5a.76.76 0 01.75.75v3.59a.76.76 0 01-.75.75z"/></svg>