<svg xmlns="http://www.w3.org/2000/svg" width="100%" height="100%" viewBox="1.2 1.2 21.6 21.6"><path d="M12 21.25a1.81 1.81 0 01-1.28-.53l-7.44-7.44a1.81 1.81 0 010-2.56l7.44-7.44a1.86 1.86 0 012.56 0l7.44 7.44a1.81 1.81 0 010 2.56l-7.44 7.44a1.81 1.81 0 01-1.28.53zm0-17a.27.27 0 00-.21.09l-7.45 7.45a.29.29 0 000 .42l7.45 7.45a.25.25 0 00.42 0l7.45-7.45a.29.29 0 000-.42l-7.45-7.45a.27.27 0 00-.21-.09z"/><path d="M10.73 14.42a.74.74 0 01-.53-.22L8 12a.75.75 0 010-1.06l2.2-2.22a.75.75 0 011.06 0 .75.75 0 010 1.06l-1.7 1.68 1.7 1.68a.75.75 0 010 1.06.74.74 0 01-.53.22z"/><path d="M15.5 15a.76.76 0 01-.75-.75v-2H8.5a.75.75 0 010-1.5h7a.76.76 0 01.75.75v2.79a.76.76 0 01-.75.71z"/></svg>