<svg xmlns="http://www.w3.org/2000/svg" width="100%" height="100%" viewBox="1.2 1.2 21.6 21.6"><path d="M4.25 18.5h-1.5v-11a2.71 2.71 0 012.68-2.75h2.41a.76.76 0 01.58.25l2.67 3.23H16A2.71 2.71 0 0118.72 11v.5h-1.5V11A1.22 1.22 0 0016 9.75h-5.27a.74.74 0 01-.57-.27L7.49 6.25H5.43A1.22 1.22 0 004.25 7.5z"/><path d="M17.12 19.25H3.5a.76.76 0 01-.64-.36.75.75 0 010-.74l3.38-6.5a.77.77 0 01.67-.4H20.5a.76.76 0 01.64.36.75.75 0 010 .74l-3.38 6.5a.77.77 0 01-.64.4zm-12.39-1.5h11.94l2.6-5H7.33z"/></svg>