<svg xmlns="http://www.w3.org/2000/svg" width="100%" height="100%" viewBox="1.2 1.2 21.6 21.6"><path d="M19.42 4.45a.74.74 0 00-.69-.08 13.82 13.82 0 01-3.73 1 8.46 8.46 0 01-2.3-1 8.84 8.84 0 00-3-1.16 20 20 0 00-5 1.1.75.75 0 00-.51.71V20a.75.75 0 001.5 0v-5.85a15.79 15.79 0 013.86-.87 8.54 8.54 0 012.4 1 9.11 9.11 0 002.82 1.13H15a16 16 0 004.21-1.13.75.75 0 00.48-.7V5.07a.74.74 0 00-.27-.62zm-1.17 8.63a12.06 12.06 0 01-3.25.84 8.46 8.46 0 01-2.3-1 8.84 8.84 0 00-3-1.16h-.2a16.31 16.31 0 00-3.78.8v-7a15.79 15.79 0 013.86-.87 8.54 8.54 0 012.4 1 9.11 9.11 0 002.82 1.13 10.27 10.27 0 003.42-.73z"/></svg>