<svg xmlns="http://www.w3.org/2000/svg" width="100%" height="100%" viewBox="1.2 1.2 21.6 21.6"><path d="M18.53 9L13 3.47a.75.75 0 00-.53-.22H8A2.75 2.75 0 005.25 6v12A2.75 2.75 0 008 20.75h8A2.75 2.75 0 0018.75 18V9.5a.75.75 0 00-.22-.5zm-5.28-3.19l2.94 2.94h-2.94zM16 19.25H8A1.25 1.25 0 016.75 18V6A1.25 1.25 0 018 4.75h3.75V9.5a.76.76 0 00.75.75h4.75V18A1.25 1.25 0 0116 19.25z"/><path d="M14.47 11.91a.77.77 0 00-1.06.12L12 13.8 10.59 12a.75.75 0 10-1.18 1L11 15l-1.59 2a.75.75 0 001.18.94L12 16.2l1.41 1.8a.77.77 0 00.59.28.75.75 0 00.59-1.28L13 15l1.63-2a.77.77 0 00-.16-1.09z"/></svg>