<svg xmlns="http://www.w3.org/2000/svg" width="100%" height="100%" viewBox="1.2 1.2 21.6 21.6"><path d="M12 3a9 9 0 109 9 9 9 0 00-9-9zm7.46 8.25H16.7a13 13 0 00-2.94-6.53 7.52 7.52 0 015.7 6.53zm-10.65 1.5h6.38A13.18 13.18 0 0112 19.1a13.18 13.18 0 01-3.19-6.35zm0-1.5A13.18 13.18 0 0112 4.9a13.18 13.18 0 013.19 6.35zm1.43-6.53a13 13 0 00-2.94 6.53H4.54a7.52 7.52 0 015.7-6.53zm-5.7 8H7.3a13 13 0 002.94 6.53 7.52 7.52 0 01-5.7-6.5zm9.22 6.53a13 13 0 002.94-6.53h2.76a7.52 7.52 0 01-5.7 6.56z"/></svg>