<svg xmlns="http://www.w3.org/2000/svg" width="100%" height="100%" viewBox="1.2 1.2 21.6 21.6"><path d="M19 12.75H8a.75.75 0 010-1.5h11a.75.75 0 010 1.5zM19 8.25H8a.75.75 0 010-1.5h11a.75.75 0 010 1.5zM19 17.25H8a.75.75 0 010-1.5h11a.75.75 0 010 1.5zM5 8.5a1 1 0 01-.38-.07 1.46 1.46 0 01-.33-.22A1 1 0 014 7.5a1.05 1.05 0 01.29-.71.93.93 0 01.33-.21 1 1 0 01.76 0 1 1 0 01.33.21A1.05 1.05 0 016 7.5a1 1 0 01-.29.71 1.46 1.46 0 01-.33.22A1 1 0 015 8.5zM5 13a1 1 0 01-.38-.08 1.15 1.15 0 01-.33-.21A1 1 0 014 12a1.05 1.05 0 01.29-.71 1.15 1.15 0 01.33-.21A1 1 0 015.2 11l.18.06.18.09a1.58 1.58 0 01.15.12A1.05 1.05 0 016 12a1 1 0 01-1 1zM5 17.5a1 1 0 01-.38-.07 1.46 1.46 0 01-.33-.22 1.15 1.15 0 01-.21-.33.94.94 0 010-.76 1.15 1.15 0 01.21-.33 1 1 0 011.09-.21 1 1 0 01.33.21 1.15 1.15 0 01.21.33.94.94 0 010 .76 1.15 1.15 0 01-.21.33 1 1 0 01-.71.29z"/></svg>