<svg xmlns="http://www.w3.org/2000/svg" width="100%" height="100%" viewBox="1.2 1.2 21.6 21.6"><path d="M12 17.75A5.75 5.75 0 1117.75 12 5.76 5.76 0 0112 17.75zm0-10A4.25 4.25 0 1016.25 12 4.26 4.26 0 0012 7.75zM12 5a.76.76 0 01-.75-.75v-1.5a.75.75 0 011.5 0v1.5A.76.76 0 0112 5zM12 22a.76.76 0 01-.75-.75v-1.5a.75.75 0 011.5 0v1.5A.76.76 0 0112 22zM21.25 12.75h-1.5a.75.75 0 010-1.5h1.5a.75.75 0 010 1.5zM4.25 12.75h-1.5a.75.75 0 010-1.5h1.5a.75.75 0 010 1.5zM6.5 7.25A.74.74 0 016 7L4.91 6A.75.75 0 116 4.91L7 6a.75.75 0 010 1 .74.74 0 01-.5.25zM18.56 19.31a.74.74 0 01-.53-.22L17 18a.75.75 0 011-1l1.09 1a.75.75 0 010 1.06.74.74 0 01-.53.25zM17.5 7.25A.74.74 0 0117 7a.75.75 0 010-1l1-1.09A.75.75 0 1119.09 6L18 7a.74.74 0 01-.5.25zM5.44 19.31a.74.74 0 01-.53-.22.75.75 0 010-1.06L6 17a.75.75 0 011 1l-1 1.09a.74.74 0 01-.56.22z"/></svg>