<svg xmlns="http://www.w3.org/2000/svg" width="100%" height="100%" viewBox="1.2 1.2 21.6 21.6"><path d="M8.78 4.47a.78.78 0 00-.24-.16.73.73 0 00-.58 0 .78.78 0 00-.24.16L5.22 7a.75.75 0 101.06 1L7.5 6.81V19A.75.75 0 009 19V6.81L10.22 8a.75.75 0 001.06 0 .75.75 0 000-1.06zM19 18.25l-1.71-4.79a1.05 1.05 0 00-2 0l-1.71 4.77a.75.75 0 001.42.5l.27-.77h2l.27.77a.75.75 0 00.71.5.73.73 0 00.25 0 .75.75 0 00.5-.98zm-3.19-1.77l.48-1.35.48 1.35zM13.83 10.54a1.11 1.11 0 001 .71H18a.75.75 0 000-1.5h-2.39l2.82-2.93a1.28 1.28 0 00.24-1.36 1.15 1.15 0 00-1.06-.71H14.5a.75.75 0 000 1.5h2.39L14.06 9.2a1.22 1.22 0 00-.23 1.34z"/></svg>