<svg xmlns="http://www.w3.org/2000/svg" width="100%" height="100%" viewBox="1.2 1.2 21.6 21.6"><path d="M10.75 8.25a.74.74 0 01-.53-.25l-2-2-2 2a.75.75 0 11-1-1l2.5-2.5a.75.75 0 011.06 0l2.5 2.5a.75.75 0 010 1.06.74.74 0 01-.53.19z"/><path d="M8.25 19.75A.76.76 0 017.5 19V5A.75.75 0 019 5v14a.76.76 0 01-.75.75zM17 11.25a.76.76 0 01-.75-.75V6.44l-.39.22a.76.76 0 01-1-.3.75.75 0 01.3-1l.63-.36A1.19 1.19 0 0117 4.87a1.27 1.27 0 01.74 1.18v4.45a.76.76 0 01-.74.75zM16.5 17.25A2.25 2.25 0 1118.75 15a2.25 2.25 0 01-2.25 2.25zm0-3a.75.75 0 10.75.75.76.76 0 00-.75-.75z"/><path d="M16 19.25h-.5a.75.75 0 010-1.5h.5a1.29 1.29 0 001.26-1.19V15a.75.75 0 011.5 0v1.64A2.78 2.78 0 0116 19.25z"/></svg>