<svg xmlns="http://www.w3.org/2000/svg" width="100%" height="100%" viewBox="1.2 1.2 21.6 21.6"><path d="M18.4 4H5.6A1.6 1.6 0 004 5.6v12.8A1.6 1.6 0 005.6 20h12.8a1.6 1.6 0 001.6-1.6V5.6A1.6 1.6 0 0018.4 4zm-.94 5.31q-.08 1.69-2.35 4.63c-1.57 2-2.91 3.06-4 3.06-.68 0-1.24-.62-1.71-1.87-.91-3.33-1.3-5.28-2-5.28a3.53 3.53 0 00-.91.54l-.54-.7c1.33-1.17 2.6-2.47 3.4-2.54S10.76 7.68 11 9c.74 4.69 1.07 5.4 2.41 3.27a4.63 4.63 0 00.78-1.74c.13-1.19-.92-1.11-1.64-.8q.83-2.8 3.23-2.73 1.78.06 1.68 2.31z"/></svg>