<svg xmlns="http://www.w3.org/2000/svg" width="100%" height="100%" viewBox="-3.2 -3.2 38.4 38.4"><g fill="none" fill-rule="evenodd"><circle cx="16" cy="16" r="16" fill="#2aabe4"/><path fill="#fff" d="M7.9 7h6.2a.9.9 0 01.9.9v6.2a.9.9 0 01-.9.9H7.9a.9.9 0 01-.9-.9V7.9a.9.9 0 01.9-.9zm10 0h6.2a.9.9 0 01.9.9v6.2a.9.9 0 01-.9.9h-6.2a.9.9 0 01-.9-.9V7.9a.9.9 0 01.9-.9zm0 10h6.2a.9.9 0 01.9.9v6.2a.9.9 0 01-.9.9h-6.2a.9.9 0 01-.9-.9v-6.2a.9.9 0 01.9-.9zm-10 0h6.2a.9.9 0 01.9.9v6.2a.9.9 0 01-.9.9H7.9a.9.9 0 01-.9-.9v-6.2a.9.9 0 01.9-.9z"/></g></svg>