<svg xmlns="http://www.w3.org/2000/svg" width="100%" height="100%" viewBox="-3.2 -3.2 38.4 38.4"><g fill="none"><circle cx="16" cy="16" r="16" fill="#104fca"/><g fill="#fff"><path fill-opacity=".5" d="M7 9.568l4.234 7.103V24C8.896 24 7 22.164 7 19.899z"/><path fill-opacity=".6" d="M20.765 16.663l4.232-7.099h.002V19.9C25 22.164 23.104 24 20.765 24z"/><path fill-opacity=".8" d="M15.997 16.458L13.88 20.01c-.439-.11-.911-.536-1.416-1.277L7 9.568c2.025-1.133 4.615-.46 5.784 1.5z"/><path d="M19.216 11.06C20.385 9.098 22.975 8.426 25 9.559l-5.464 9.165A4.267 4.267 0 0116 20.568a4.33 4.33 0 01-1.9-.435l-.22-.123z"/></g></g></svg>